%TF.GenerationSoftware,KiCad,Pcbnew,9.0.1*%
%TF.CreationDate,2025-04-07T03:54:42-07:00*%
%TF.ProjectId,Coil_Panel_Z,436f696c-5f50-4616-9e65-6c5f5a2e6b69,1.1*%
%TF.SameCoordinates,Original*%
%TF.FileFunction,Legend,Top*%
%TF.FilePolarity,Positive*%
%FSLAX46Y46*%
G04 Gerber Fmt 4.6, Leading zero omitted, Abs format (unit mm)*
G04 Created by KiCad (PCBNEW 9.0.1) date 2025-04-07 03:54:42*
%MOMM*%
%LPD*%
G01*
G04 APERTURE LIST*
%ADD10C,0.150000*%
%ADD11C,0.000000*%
%ADD12C,2.600000*%
%ADD13C,3.800000*%
G04 APERTURE END LIST*
D10*
X132786197Y-128122361D02*
X132214769Y-128122361D01*
X132500483Y-128122361D02*
X132500483Y-127122361D01*
X132500483Y-127122361D02*
X132405245Y-127265218D01*
X132405245Y-127265218D02*
X132310007Y-127360456D01*
X132310007Y-127360456D02*
X132214769Y-127408075D01*
X139834769Y-127217599D02*
X139882388Y-127169980D01*
X139882388Y-127169980D02*
X139977626Y-127122361D01*
X139977626Y-127122361D02*
X140215721Y-127122361D01*
X140215721Y-127122361D02*
X140310959Y-127169980D01*
X140310959Y-127169980D02*
X140358578Y-127217599D01*
X140358578Y-127217599D02*
X140406197Y-127312837D01*
X140406197Y-127312837D02*
X140406197Y-127408075D01*
X140406197Y-127408075D02*
X140358578Y-127550932D01*
X140358578Y-127550932D02*
X139787150Y-128122361D01*
X139787150Y-128122361D02*
X140406197Y-128122361D01*
X143377387Y-129995694D02*
X142615482Y-130281408D01*
X142615482Y-130281408D02*
X143377387Y-130567122D01*
X144615482Y-130662361D02*
X144615482Y-129662361D01*
X144948815Y-129995694D02*
X145329767Y-129995694D01*
X145091672Y-130662361D02*
X145091672Y-129805218D01*
X145091672Y-129805218D02*
X145139291Y-129709980D01*
X145139291Y-129709980D02*
X145234529Y-129662361D01*
X145234529Y-129662361D02*
X145329767Y-129662361D01*
X145948815Y-131043313D02*
X145901196Y-130995694D01*
X145901196Y-130995694D02*
X145805958Y-130852837D01*
X145805958Y-130852837D02*
X145758339Y-130757599D01*
X145758339Y-130757599D02*
X145710720Y-130614742D01*
X145710720Y-130614742D02*
X145663101Y-130376646D01*
X145663101Y-130376646D02*
X145663101Y-130186170D01*
X145663101Y-130186170D02*
X145710720Y-129948075D01*
X145710720Y-129948075D02*
X145758339Y-129805218D01*
X145758339Y-129805218D02*
X145805958Y-129709980D01*
X145805958Y-129709980D02*
X145901196Y-129567122D01*
X145901196Y-129567122D02*
X145948815Y-129519503D01*
X146329768Y-130281408D02*
X147091673Y-130281408D01*
X146710720Y-130662361D02*
X146710720Y-129900456D01*
X147472625Y-131043313D02*
X147520244Y-130995694D01*
X147520244Y-130995694D02*
X147615482Y-130852837D01*
X147615482Y-130852837D02*
X147663101Y-130757599D01*
X147663101Y-130757599D02*
X147710720Y-130614742D01*
X147710720Y-130614742D02*
X147758339Y-130376646D01*
X147758339Y-130376646D02*
X147758339Y-130186170D01*
X147758339Y-130186170D02*
X147710720Y-129948075D01*
X147710720Y-129948075D02*
X147663101Y-129805218D01*
X147663101Y-129805218D02*
X147615482Y-129709980D01*
X147615482Y-129709980D02*
X147520244Y-129567122D01*
X147520244Y-129567122D02*
X147472625Y-129519503D01*
X149329768Y-130138551D02*
X148996435Y-130138551D01*
X148996435Y-130662361D02*
X148996435Y-129662361D01*
X148996435Y-129662361D02*
X149472625Y-129662361D01*
X149853578Y-130662361D02*
X149853578Y-129995694D01*
X149853578Y-129662361D02*
X149805959Y-129709980D01*
X149805959Y-129709980D02*
X149853578Y-129757599D01*
X149853578Y-129757599D02*
X149901197Y-129709980D01*
X149901197Y-129709980D02*
X149853578Y-129662361D01*
X149853578Y-129662361D02*
X149853578Y-129757599D01*
X150710720Y-130614742D02*
X150615482Y-130662361D01*
X150615482Y-130662361D02*
X150425006Y-130662361D01*
X150425006Y-130662361D02*
X150329768Y-130614742D01*
X150329768Y-130614742D02*
X150282149Y-130519503D01*
X150282149Y-130519503D02*
X150282149Y-130138551D01*
X150282149Y-130138551D02*
X150329768Y-130043313D01*
X150329768Y-130043313D02*
X150425006Y-129995694D01*
X150425006Y-129995694D02*
X150615482Y-129995694D01*
X150615482Y-129995694D02*
X150710720Y-130043313D01*
X150710720Y-130043313D02*
X150758339Y-130138551D01*
X150758339Y-130138551D02*
X150758339Y-130233789D01*
X150758339Y-130233789D02*
X150282149Y-130329027D01*
X151329768Y-130662361D02*
X151234530Y-130614742D01*
X151234530Y-130614742D02*
X151186911Y-130519503D01*
X151186911Y-130519503D02*
X151186911Y-129662361D01*
X152139292Y-130662361D02*
X152139292Y-129662361D01*
X152139292Y-130614742D02*
X152044054Y-130662361D01*
X152044054Y-130662361D02*
X151853578Y-130662361D01*
X151853578Y-130662361D02*
X151758340Y-130614742D01*
X151758340Y-130614742D02*
X151710721Y-130567122D01*
X151710721Y-130567122D02*
X151663102Y-130471884D01*
X151663102Y-130471884D02*
X151663102Y-130186170D01*
X151663102Y-130186170D02*
X151710721Y-130090932D01*
X151710721Y-130090932D02*
X151758340Y-130043313D01*
X151758340Y-130043313D02*
X151853578Y-129995694D01*
X151853578Y-129995694D02*
X152044054Y-129995694D01*
X152044054Y-129995694D02*
X152139292Y-130043313D01*
X153377388Y-130662361D02*
X153377388Y-129995694D01*
X153377388Y-129662361D02*
X153329769Y-129709980D01*
X153329769Y-129709980D02*
X153377388Y-129757599D01*
X153377388Y-129757599D02*
X153425007Y-129709980D01*
X153425007Y-129709980D02*
X153377388Y-129662361D01*
X153377388Y-129662361D02*
X153377388Y-129757599D01*
X153853578Y-129995694D02*
X153853578Y-130662361D01*
X153853578Y-130090932D02*
X153901197Y-130043313D01*
X153901197Y-130043313D02*
X153996435Y-129995694D01*
X153996435Y-129995694D02*
X154139292Y-129995694D01*
X154139292Y-129995694D02*
X154234530Y-130043313D01*
X154234530Y-130043313D02*
X154282149Y-130138551D01*
X154282149Y-130138551D02*
X154282149Y-130662361D01*
X154615483Y-129995694D02*
X154996435Y-129995694D01*
X154758340Y-129662361D02*
X154758340Y-130519503D01*
X154758340Y-130519503D02*
X154805959Y-130614742D01*
X154805959Y-130614742D02*
X154901197Y-130662361D01*
X154901197Y-130662361D02*
X154996435Y-130662361D01*
X155472626Y-130662361D02*
X155377388Y-130614742D01*
X155377388Y-130614742D02*
X155329769Y-130567122D01*
X155329769Y-130567122D02*
X155282150Y-130471884D01*
X155282150Y-130471884D02*
X155282150Y-130186170D01*
X155282150Y-130186170D02*
X155329769Y-130090932D01*
X155329769Y-130090932D02*
X155377388Y-130043313D01*
X155377388Y-130043313D02*
X155472626Y-129995694D01*
X155472626Y-129995694D02*
X155615483Y-129995694D01*
X155615483Y-129995694D02*
X155710721Y-130043313D01*
X155710721Y-130043313D02*
X155758340Y-130090932D01*
X155758340Y-130090932D02*
X155805959Y-130186170D01*
X155805959Y-130186170D02*
X155805959Y-130471884D01*
X155805959Y-130471884D02*
X155758340Y-130567122D01*
X155758340Y-130567122D02*
X155710721Y-130614742D01*
X155710721Y-130614742D02*
X155615483Y-130662361D01*
X155615483Y-130662361D02*
X155472626Y-130662361D01*
X156853579Y-129662361D02*
X157425007Y-129662361D01*
X157139293Y-130662361D02*
X157139293Y-129662361D01*
X157758341Y-130662361D02*
X157758341Y-129662361D01*
X157758341Y-130138551D02*
X158329769Y-130138551D01*
X158329769Y-130662361D02*
X158329769Y-129662361D01*
X158805960Y-130662361D02*
X158805960Y-129662361D01*
X159234531Y-130614742D02*
X159377388Y-130662361D01*
X159377388Y-130662361D02*
X159615483Y-130662361D01*
X159615483Y-130662361D02*
X159710721Y-130614742D01*
X159710721Y-130614742D02*
X159758340Y-130567122D01*
X159758340Y-130567122D02*
X159805959Y-130471884D01*
X159805959Y-130471884D02*
X159805959Y-130376646D01*
X159805959Y-130376646D02*
X159758340Y-130281408D01*
X159758340Y-130281408D02*
X159710721Y-130233789D01*
X159710721Y-130233789D02*
X159615483Y-130186170D01*
X159615483Y-130186170D02*
X159425007Y-130138551D01*
X159425007Y-130138551D02*
X159329769Y-130090932D01*
X159329769Y-130090932D02*
X159282150Y-130043313D01*
X159282150Y-130043313D02*
X159234531Y-129948075D01*
X159234531Y-129948075D02*
X159234531Y-129852837D01*
X159234531Y-129852837D02*
X159282150Y-129757599D01*
X159282150Y-129757599D02*
X159329769Y-129709980D01*
X159329769Y-129709980D02*
X159425007Y-129662361D01*
X159425007Y-129662361D02*
X159663102Y-129662361D01*
X159663102Y-129662361D02*
X159805959Y-129709980D01*
X160948817Y-130614742D02*
X161091674Y-130662361D01*
X161091674Y-130662361D02*
X161329769Y-130662361D01*
X161329769Y-130662361D02*
X161425007Y-130614742D01*
X161425007Y-130614742D02*
X161472626Y-130567122D01*
X161472626Y-130567122D02*
X161520245Y-130471884D01*
X161520245Y-130471884D02*
X161520245Y-130376646D01*
X161520245Y-130376646D02*
X161472626Y-130281408D01*
X161472626Y-130281408D02*
X161425007Y-130233789D01*
X161425007Y-130233789D02*
X161329769Y-130186170D01*
X161329769Y-130186170D02*
X161139293Y-130138551D01*
X161139293Y-130138551D02*
X161044055Y-130090932D01*
X161044055Y-130090932D02*
X160996436Y-130043313D01*
X160996436Y-130043313D02*
X160948817Y-129948075D01*
X160948817Y-129948075D02*
X160948817Y-129852837D01*
X160948817Y-129852837D02*
X160996436Y-129757599D01*
X160996436Y-129757599D02*
X161044055Y-129709980D01*
X161044055Y-129709980D02*
X161139293Y-129662361D01*
X161139293Y-129662361D02*
X161377388Y-129662361D01*
X161377388Y-129662361D02*
X161520245Y-129709980D01*
X161948817Y-130662361D02*
X161948817Y-129662361D01*
X162425007Y-130662361D02*
X162425007Y-129662361D01*
X162425007Y-129662361D02*
X162663102Y-129662361D01*
X162663102Y-129662361D02*
X162805959Y-129709980D01*
X162805959Y-129709980D02*
X162901197Y-129805218D01*
X162901197Y-129805218D02*
X162948816Y-129900456D01*
X162948816Y-129900456D02*
X162996435Y-130090932D01*
X162996435Y-130090932D02*
X162996435Y-130233789D01*
X162996435Y-130233789D02*
X162948816Y-130424265D01*
X162948816Y-130424265D02*
X162901197Y-130519503D01*
X162901197Y-130519503D02*
X162805959Y-130614742D01*
X162805959Y-130614742D02*
X162663102Y-130662361D01*
X162663102Y-130662361D02*
X162425007Y-130662361D01*
X163425007Y-130138551D02*
X163758340Y-130138551D01*
X163901197Y-130662361D02*
X163425007Y-130662361D01*
X163425007Y-130662361D02*
X163425007Y-129662361D01*
X163425007Y-129662361D02*
X163901197Y-129662361D01*
X126605126Y-44467529D02*
X127271792Y-44467529D01*
X127271792Y-44467529D02*
X126605126Y-45467529D01*
X126605126Y-45467529D02*
X127271792Y-45467529D01*
X128414650Y-44467529D02*
X128414650Y-45277052D01*
X128414650Y-45277052D02*
X128462269Y-45372290D01*
X128462269Y-45372290D02*
X128509888Y-45419910D01*
X128509888Y-45419910D02*
X128605126Y-45467529D01*
X128605126Y-45467529D02*
X128795602Y-45467529D01*
X128795602Y-45467529D02*
X128890840Y-45419910D01*
X128890840Y-45419910D02*
X128938459Y-45372290D01*
X128938459Y-45372290D02*
X128986078Y-45277052D01*
X128986078Y-45277052D02*
X128986078Y-44467529D01*
X129462269Y-45467529D02*
X129462269Y-44467529D01*
X129462269Y-44467529D02*
X130033697Y-45467529D01*
X130033697Y-45467529D02*
X130033697Y-44467529D01*
X130509888Y-45467529D02*
X130509888Y-44467529D01*
X130843221Y-44467529D02*
X131176554Y-45467529D01*
X131176554Y-45467529D02*
X131509887Y-44467529D01*
X131843221Y-44943719D02*
X132176554Y-44943719D01*
X132319411Y-45467529D02*
X131843221Y-45467529D01*
X131843221Y-45467529D02*
X131843221Y-44467529D01*
X131843221Y-44467529D02*
X132319411Y-44467529D01*
X133319411Y-45467529D02*
X132986078Y-44991338D01*
X132747983Y-45467529D02*
X132747983Y-44467529D01*
X132747983Y-44467529D02*
X133128935Y-44467529D01*
X133128935Y-44467529D02*
X133224173Y-44515148D01*
X133224173Y-44515148D02*
X133271792Y-44562767D01*
X133271792Y-44562767D02*
X133319411Y-44658005D01*
X133319411Y-44658005D02*
X133319411Y-44800862D01*
X133319411Y-44800862D02*
X133271792Y-44896100D01*
X133271792Y-44896100D02*
X133224173Y-44943719D01*
X133224173Y-44943719D02*
X133128935Y-44991338D01*
X133128935Y-44991338D02*
X132747983Y-44991338D01*
X133700364Y-45419910D02*
X133843221Y-45467529D01*
X133843221Y-45467529D02*
X134081316Y-45467529D01*
X134081316Y-45467529D02*
X134176554Y-45419910D01*
X134176554Y-45419910D02*
X134224173Y-45372290D01*
X134224173Y-45372290D02*
X134271792Y-45277052D01*
X134271792Y-45277052D02*
X134271792Y-45181814D01*
X134271792Y-45181814D02*
X134224173Y-45086576D01*
X134224173Y-45086576D02*
X134176554Y-45038957D01*
X134176554Y-45038957D02*
X134081316Y-44991338D01*
X134081316Y-44991338D02*
X133890840Y-44943719D01*
X133890840Y-44943719D02*
X133795602Y-44896100D01*
X133795602Y-44896100D02*
X133747983Y-44848481D01*
X133747983Y-44848481D02*
X133700364Y-44753243D01*
X133700364Y-44753243D02*
X133700364Y-44658005D01*
X133700364Y-44658005D02*
X133747983Y-44562767D01*
X133747983Y-44562767D02*
X133795602Y-44515148D01*
X133795602Y-44515148D02*
X133890840Y-44467529D01*
X133890840Y-44467529D02*
X134128935Y-44467529D01*
X134128935Y-44467529D02*
X134271792Y-44515148D01*
X134652745Y-45181814D02*
X135128935Y-45181814D01*
X134557507Y-45467529D02*
X134890840Y-44467529D01*
X134890840Y-44467529D02*
X135224173Y-45467529D01*
X136033697Y-45467529D02*
X135557507Y-45467529D01*
X135557507Y-45467529D02*
X135557507Y-44467529D01*
X137700364Y-45372290D02*
X137652745Y-45419910D01*
X137652745Y-45419910D02*
X137509888Y-45467529D01*
X137509888Y-45467529D02*
X137414650Y-45467529D01*
X137414650Y-45467529D02*
X137271793Y-45419910D01*
X137271793Y-45419910D02*
X137176555Y-45324671D01*
X137176555Y-45324671D02*
X137128936Y-45229433D01*
X137128936Y-45229433D02*
X137081317Y-45038957D01*
X137081317Y-45038957D02*
X137081317Y-44896100D01*
X137081317Y-44896100D02*
X137128936Y-44705624D01*
X137128936Y-44705624D02*
X137176555Y-44610386D01*
X137176555Y-44610386D02*
X137271793Y-44515148D01*
X137271793Y-44515148D02*
X137414650Y-44467529D01*
X137414650Y-44467529D02*
X137509888Y-44467529D01*
X137509888Y-44467529D02*
X137652745Y-44515148D01*
X137652745Y-44515148D02*
X137700364Y-44562767D01*
X138319412Y-44467529D02*
X138509888Y-44467529D01*
X138509888Y-44467529D02*
X138605126Y-44515148D01*
X138605126Y-44515148D02*
X138700364Y-44610386D01*
X138700364Y-44610386D02*
X138747983Y-44800862D01*
X138747983Y-44800862D02*
X138747983Y-45134195D01*
X138747983Y-45134195D02*
X138700364Y-45324671D01*
X138700364Y-45324671D02*
X138605126Y-45419910D01*
X138605126Y-45419910D02*
X138509888Y-45467529D01*
X138509888Y-45467529D02*
X138319412Y-45467529D01*
X138319412Y-45467529D02*
X138224174Y-45419910D01*
X138224174Y-45419910D02*
X138128936Y-45324671D01*
X138128936Y-45324671D02*
X138081317Y-45134195D01*
X138081317Y-45134195D02*
X138081317Y-44800862D01*
X138081317Y-44800862D02*
X138128936Y-44610386D01*
X138128936Y-44610386D02*
X138224174Y-44515148D01*
X138224174Y-44515148D02*
X138319412Y-44467529D01*
X139176555Y-45467529D02*
X139176555Y-44467529D01*
X140128935Y-45467529D02*
X139652745Y-45467529D01*
X139652745Y-45467529D02*
X139652745Y-44467529D01*
X131890840Y-47077473D02*
X131890840Y-46077473D01*
X131890840Y-46077473D02*
X132224173Y-46791758D01*
X132224173Y-46791758D02*
X132557506Y-46077473D01*
X132557506Y-46077473D02*
X132557506Y-47077473D01*
X132986078Y-46791758D02*
X133462268Y-46791758D01*
X132890840Y-47077473D02*
X133224173Y-46077473D01*
X133224173Y-46077473D02*
X133557506Y-47077473D01*
X134414649Y-46125092D02*
X134319411Y-46077473D01*
X134319411Y-46077473D02*
X134176554Y-46077473D01*
X134176554Y-46077473D02*
X134033697Y-46125092D01*
X134033697Y-46125092D02*
X133938459Y-46220330D01*
X133938459Y-46220330D02*
X133890840Y-46315568D01*
X133890840Y-46315568D02*
X133843221Y-46506044D01*
X133843221Y-46506044D02*
X133843221Y-46648901D01*
X133843221Y-46648901D02*
X133890840Y-46839377D01*
X133890840Y-46839377D02*
X133938459Y-46934615D01*
X133938459Y-46934615D02*
X134033697Y-47029854D01*
X134033697Y-47029854D02*
X134176554Y-47077473D01*
X134176554Y-47077473D02*
X134271792Y-47077473D01*
X134271792Y-47077473D02*
X134414649Y-47029854D01*
X134414649Y-47029854D02*
X134462268Y-46982234D01*
X134462268Y-46982234D02*
X134462268Y-46648901D01*
X134462268Y-46648901D02*
X134271792Y-46648901D01*
X134890840Y-47077473D02*
X134890840Y-46077473D01*
X134890840Y-46077473D02*
X135462268Y-47077473D01*
X135462268Y-47077473D02*
X135462268Y-46077473D01*
X135938459Y-46553663D02*
X136271792Y-46553663D01*
X136414649Y-47077473D02*
X135938459Y-47077473D01*
X135938459Y-47077473D02*
X135938459Y-46077473D01*
X135938459Y-46077473D02*
X136414649Y-46077473D01*
X136700364Y-46077473D02*
X137271792Y-46077473D01*
X136986078Y-47077473D02*
X136986078Y-46077473D01*
X137795602Y-46077473D02*
X137986078Y-46077473D01*
X137986078Y-46077473D02*
X138081316Y-46125092D01*
X138081316Y-46125092D02*
X138176554Y-46220330D01*
X138176554Y-46220330D02*
X138224173Y-46410806D01*
X138224173Y-46410806D02*
X138224173Y-46744139D01*
X138224173Y-46744139D02*
X138176554Y-46934615D01*
X138176554Y-46934615D02*
X138081316Y-47029854D01*
X138081316Y-47029854D02*
X137986078Y-47077473D01*
X137986078Y-47077473D02*
X137795602Y-47077473D01*
X137795602Y-47077473D02*
X137700364Y-47029854D01*
X137700364Y-47029854D02*
X137605126Y-46934615D01*
X137605126Y-46934615D02*
X137557507Y-46744139D01*
X137557507Y-46744139D02*
X137557507Y-46410806D01*
X137557507Y-46410806D02*
X137605126Y-46220330D01*
X137605126Y-46220330D02*
X137700364Y-46125092D01*
X137700364Y-46125092D02*
X137795602Y-46077473D01*
X138652745Y-47077473D02*
X138652745Y-46077473D01*
X138652745Y-46077473D02*
X139224173Y-47077473D01*
X139224173Y-47077473D02*
X139224173Y-46077473D01*
X130986078Y-48687417D02*
X130652745Y-48211226D01*
X130414650Y-48687417D02*
X130414650Y-47687417D01*
X130414650Y-47687417D02*
X130795602Y-47687417D01*
X130795602Y-47687417D02*
X130890840Y-47735036D01*
X130890840Y-47735036D02*
X130938459Y-47782655D01*
X130938459Y-47782655D02*
X130986078Y-47877893D01*
X130986078Y-47877893D02*
X130986078Y-48020750D01*
X130986078Y-48020750D02*
X130938459Y-48115988D01*
X130938459Y-48115988D02*
X130890840Y-48163607D01*
X130890840Y-48163607D02*
X130795602Y-48211226D01*
X130795602Y-48211226D02*
X130414650Y-48211226D01*
X131414650Y-48687417D02*
X131414650Y-47687417D01*
X131747983Y-47687417D02*
X132081316Y-48687417D01*
X132081316Y-48687417D02*
X132414649Y-47687417D01*
X132747983Y-48163607D02*
X133081316Y-48163607D01*
X133224173Y-48687417D02*
X132747983Y-48687417D01*
X132747983Y-48687417D02*
X132747983Y-47687417D01*
X132747983Y-47687417D02*
X133224173Y-47687417D01*
X134224173Y-48687417D02*
X133890840Y-48211226D01*
X133652745Y-48687417D02*
X133652745Y-47687417D01*
X133652745Y-47687417D02*
X134033697Y-47687417D01*
X134033697Y-47687417D02*
X134128935Y-47735036D01*
X134128935Y-47735036D02*
X134176554Y-47782655D01*
X134176554Y-47782655D02*
X134224173Y-47877893D01*
X134224173Y-47877893D02*
X134224173Y-48020750D01*
X134224173Y-48020750D02*
X134176554Y-48115988D01*
X134176554Y-48115988D02*
X134128935Y-48163607D01*
X134128935Y-48163607D02*
X134033697Y-48211226D01*
X134033697Y-48211226D02*
X133652745Y-48211226D01*
X135414650Y-48687417D02*
X135414650Y-47687417D01*
X135414650Y-47687417D02*
X135652745Y-47687417D01*
X135652745Y-47687417D02*
X135795602Y-47735036D01*
X135795602Y-47735036D02*
X135890840Y-47830274D01*
X135890840Y-47830274D02*
X135938459Y-47925512D01*
X135938459Y-47925512D02*
X135986078Y-48115988D01*
X135986078Y-48115988D02*
X135986078Y-48258845D01*
X135986078Y-48258845D02*
X135938459Y-48449321D01*
X135938459Y-48449321D02*
X135890840Y-48544559D01*
X135890840Y-48544559D02*
X135795602Y-48639798D01*
X135795602Y-48639798D02*
X135652745Y-48687417D01*
X135652745Y-48687417D02*
X135414650Y-48687417D01*
X136605126Y-47687417D02*
X136795602Y-47687417D01*
X136795602Y-47687417D02*
X136890840Y-47735036D01*
X136890840Y-47735036D02*
X136986078Y-47830274D01*
X136986078Y-47830274D02*
X137033697Y-48020750D01*
X137033697Y-48020750D02*
X137033697Y-48354083D01*
X137033697Y-48354083D02*
X136986078Y-48544559D01*
X136986078Y-48544559D02*
X136890840Y-48639798D01*
X136890840Y-48639798D02*
X136795602Y-48687417D01*
X136795602Y-48687417D02*
X136605126Y-48687417D01*
X136605126Y-48687417D02*
X136509888Y-48639798D01*
X136509888Y-48639798D02*
X136414650Y-48544559D01*
X136414650Y-48544559D02*
X136367031Y-48354083D01*
X136367031Y-48354083D02*
X136367031Y-48020750D01*
X136367031Y-48020750D02*
X136414650Y-47830274D01*
X136414650Y-47830274D02*
X136509888Y-47735036D01*
X136509888Y-47735036D02*
X136605126Y-47687417D01*
X137367031Y-47687417D02*
X137605126Y-48687417D01*
X137605126Y-48687417D02*
X137795602Y-47973131D01*
X137795602Y-47973131D02*
X137986078Y-48687417D01*
X137986078Y-48687417D02*
X138224174Y-47687417D01*
X138605126Y-48687417D02*
X138605126Y-47687417D01*
X138605126Y-47687417D02*
X138843221Y-47687417D01*
X138843221Y-47687417D02*
X138986078Y-47735036D01*
X138986078Y-47735036D02*
X139081316Y-47830274D01*
X139081316Y-47830274D02*
X139128935Y-47925512D01*
X139128935Y-47925512D02*
X139176554Y-48115988D01*
X139176554Y-48115988D02*
X139176554Y-48258845D01*
X139176554Y-48258845D02*
X139128935Y-48449321D01*
X139128935Y-48449321D02*
X139081316Y-48544559D01*
X139081316Y-48544559D02*
X138986078Y-48639798D01*
X138986078Y-48639798D02*
X138843221Y-48687417D01*
X138843221Y-48687417D02*
X138605126Y-48687417D01*
X139795602Y-48211226D02*
X139795602Y-48687417D01*
X139462269Y-47687417D02*
X139795602Y-48211226D01*
X139795602Y-48211226D02*
X140128935Y-47687417D01*
X137224174Y-49630694D02*
X137462269Y-50297361D01*
X137462269Y-50297361D02*
X137700364Y-49630694D01*
X138605126Y-50297361D02*
X138033698Y-50297361D01*
X138319412Y-50297361D02*
X138319412Y-49297361D01*
X138319412Y-49297361D02*
X138224174Y-49440218D01*
X138224174Y-49440218D02*
X138128936Y-49535456D01*
X138128936Y-49535456D02*
X138033698Y-49583075D01*
X139033698Y-50202122D02*
X139081317Y-50249742D01*
X139081317Y-50249742D02*
X139033698Y-50297361D01*
X139033698Y-50297361D02*
X138986079Y-50249742D01*
X138986079Y-50249742D02*
X139033698Y-50202122D01*
X139033698Y-50202122D02*
X139033698Y-50297361D01*
X140033697Y-50297361D02*
X139462269Y-50297361D01*
X139747983Y-50297361D02*
X139747983Y-49297361D01*
X139747983Y-49297361D02*
X139652745Y-49440218D01*
X139652745Y-49440218D02*
X139557507Y-49535456D01*
X139557507Y-49535456D02*
X139462269Y-49583075D01*
X120258096Y-128711649D02*
X120258096Y-127711649D01*
X120258096Y-128187839D02*
X120829524Y-128187839D01*
X120829524Y-128711649D02*
X120829524Y-127711649D01*
X121210477Y-127711649D02*
X121829524Y-127711649D01*
X121829524Y-127711649D02*
X121496191Y-128092601D01*
X121496191Y-128092601D02*
X121639048Y-128092601D01*
X121639048Y-128092601D02*
X121734286Y-128140220D01*
X121734286Y-128140220D02*
X121781905Y-128187839D01*
X121781905Y-128187839D02*
X121829524Y-128283077D01*
X121829524Y-128283077D02*
X121829524Y-128521172D01*
X121829524Y-128521172D02*
X121781905Y-128616410D01*
X121781905Y-128616410D02*
X121734286Y-128664030D01*
X121734286Y-128664030D02*
X121639048Y-128711649D01*
X121639048Y-128711649D02*
X121353334Y-128711649D01*
X121353334Y-128711649D02*
X121258096Y-128664030D01*
X121258096Y-128664030D02*
X121210477Y-128616410D01*
X176932096Y-43711649D02*
X176932096Y-42711649D01*
X176932096Y-43187839D02*
X177503524Y-43187839D01*
X177503524Y-43711649D02*
X177503524Y-42711649D01*
X178408286Y-43044982D02*
X178408286Y-43711649D01*
X178170191Y-42664030D02*
X177932096Y-43378315D01*
X177932096Y-43378315D02*
X178551143Y-43378315D01*
X176932096Y-128711649D02*
X176932096Y-127711649D01*
X176932096Y-128187839D02*
X177503524Y-128187839D01*
X177503524Y-128711649D02*
X177503524Y-127711649D01*
X177932096Y-127806887D02*
X177979715Y-127759268D01*
X177979715Y-127759268D02*
X178074953Y-127711649D01*
X178074953Y-127711649D02*
X178313048Y-127711649D01*
X178313048Y-127711649D02*
X178408286Y-127759268D01*
X178408286Y-127759268D02*
X178455905Y-127806887D01*
X178455905Y-127806887D02*
X178503524Y-127902125D01*
X178503524Y-127902125D02*
X178503524Y-127997363D01*
X178503524Y-127997363D02*
X178455905Y-128140220D01*
X178455905Y-128140220D02*
X177884477Y-128711649D01*
X177884477Y-128711649D02*
X178503524Y-128711649D01*
X120258096Y-43711649D02*
X120258096Y-42711649D01*
X120258096Y-43187839D02*
X120829524Y-43187839D01*
X120829524Y-43711649D02*
X120829524Y-42711649D01*
X121829524Y-43711649D02*
X121258096Y-43711649D01*
X121543810Y-43711649D02*
X121543810Y-42711649D01*
X121543810Y-42711649D02*
X121448572Y-42854506D01*
X121448572Y-42854506D02*
X121353334Y-42949744D01*
X121353334Y-42949744D02*
X121258096Y-42997363D01*
D11*
%TO.C,G\u002A\u002A\u002A*%
G36*
X152092750Y-42832440D02*
G01*
X152031251Y-42909126D01*
X152024173Y-42916777D01*
X151943983Y-42983792D01*
X151825143Y-43050244D01*
X151658669Y-43119881D01*
X151435578Y-43196453D01*
X151146886Y-43283708D01*
X151140314Y-43285607D01*
X150911792Y-43350105D01*
X150752194Y-43391484D01*
X150658087Y-43410395D01*
X150626037Y-43407486D01*
X150652611Y-43383406D01*
X150666038Y-43375300D01*
X150724788Y-43349544D01*
X150840552Y-43305343D01*
X150998081Y-43248308D01*
X151182127Y-43184047D01*
X151237253Y-43165210D01*
X151439846Y-43092717D01*
X151633099Y-43017141D01*
X151796997Y-42946726D01*
X151911525Y-42889716D01*
X151924020Y-42882335D01*
X152038101Y-42818689D01*
X152094689Y-42802175D01*
X152092750Y-42832440D01*
G37*
G36*
X153760374Y-55347456D02*
G01*
X153824049Y-55418801D01*
X153892534Y-55494738D01*
X153944360Y-55519451D01*
X154007866Y-55503163D01*
X154030349Y-55493218D01*
X154113212Y-55465738D01*
X154173046Y-55486136D01*
X154213511Y-55522672D01*
X154291077Y-55600239D01*
X154185740Y-55710187D01*
X154122067Y-55782022D01*
X154108981Y-55820340D01*
X154141236Y-55843422D01*
X154146859Y-55845637D01*
X154188037Y-55868814D01*
X154178206Y-55902860D01*
X154131954Y-55952500D01*
X154073799Y-56001924D01*
X154016825Y-56014255D01*
X153929243Y-55993609D01*
X153896467Y-55982995D01*
X153774523Y-55953328D01*
X153682700Y-55961879D01*
X153645369Y-55976313D01*
X153547803Y-56014021D01*
X153490507Y-56014139D01*
X153463125Y-55995109D01*
X153438180Y-55924032D01*
X153468464Y-55843543D01*
X153501594Y-55810835D01*
X153541839Y-55767938D01*
X153540066Y-55709723D01*
X153517264Y-55647809D01*
X153490659Y-55562601D01*
X153503376Y-55494797D01*
X153555772Y-55414217D01*
X153630761Y-55327363D01*
X153692569Y-55305000D01*
X153760374Y-55347456D01*
G37*
G36*
X161155276Y-50055890D02*
G01*
X161343190Y-50114231D01*
X161519106Y-50222264D01*
X161668047Y-50373659D01*
X161754859Y-50515657D01*
X161804921Y-50690911D01*
X161814398Y-50895946D01*
X161784502Y-51096999D01*
X161728917Y-51239752D01*
X161603216Y-51404242D01*
X161443496Y-51528528D01*
X161267171Y-51603790D01*
X161091654Y-51621209D01*
X161007903Y-51604929D01*
X160812750Y-51504854D01*
X160659721Y-51343394D01*
X160597735Y-51234482D01*
X160551641Y-51119643D01*
X160528679Y-51006612D01*
X160524302Y-50864949D01*
X160527987Y-50767400D01*
X160555716Y-50550888D01*
X161253764Y-50550888D01*
X161288147Y-50677333D01*
X161356946Y-50779329D01*
X161453147Y-50836094D01*
X161496423Y-50841485D01*
X161582312Y-50812113D01*
X161623804Y-50767827D01*
X161662653Y-50630271D01*
X161629130Y-50492140D01*
X161529557Y-50355394D01*
X161395888Y-50213150D01*
X161316295Y-50307763D01*
X161260809Y-50420771D01*
X161253764Y-50550888D01*
X160555716Y-50550888D01*
X160562207Y-50500201D01*
X160635246Y-50296466D01*
X160748253Y-50153462D01*
X160803356Y-50113594D01*
X160970339Y-50053568D01*
X161155276Y-50055890D01*
G37*
G36*
X150210710Y-53885056D02*
G01*
X150327760Y-53980434D01*
X150426513Y-54122076D01*
X150503507Y-54295462D01*
X150555282Y-54486069D01*
X150578377Y-54679375D01*
X150569331Y-54860861D01*
X150524682Y-55016003D01*
X150440969Y-55130281D01*
X150391753Y-55163420D01*
X150305104Y-55203970D01*
X150241816Y-55212897D01*
X150158863Y-55195908D01*
X150154822Y-55194847D01*
X150072790Y-55137600D01*
X149995043Y-55019423D01*
X149926501Y-54855542D01*
X149872082Y-54661188D01*
X149836705Y-54451587D01*
X149825289Y-54241970D01*
X149827300Y-54180853D01*
X149829659Y-54156279D01*
X150162575Y-54156279D01*
X150172354Y-54267501D01*
X150194988Y-54384189D01*
X150227527Y-54483831D01*
X150258258Y-54535648D01*
X150322518Y-54581635D01*
X150365725Y-54554583D01*
X150387706Y-54454697D01*
X150390678Y-54378630D01*
X150371549Y-54268248D01*
X150322857Y-54158663D01*
X150258949Y-54074478D01*
X150194171Y-54040293D01*
X150193377Y-54040286D01*
X150168600Y-54073036D01*
X150162575Y-54156279D01*
X149829659Y-54156279D01*
X149842695Y-54020466D01*
X149874194Y-53921725D01*
X149932711Y-53870291D01*
X150029165Y-53851824D01*
X150078824Y-53850464D01*
X150210710Y-53885056D01*
G37*
G36*
X153841968Y-46926233D02*
G01*
X153855433Y-47000759D01*
X153845939Y-47123542D01*
X153818021Y-47271817D01*
X153776211Y-47422814D01*
X153725045Y-47553766D01*
X153711826Y-47579775D01*
X153562378Y-47783817D01*
X153370563Y-47926015D01*
X153141841Y-48002846D01*
X153037980Y-48014673D01*
X152848050Y-48010961D01*
X152711256Y-47973745D01*
X152695408Y-47965725D01*
X152559209Y-47883791D01*
X152448959Y-47801936D01*
X152377385Y-47731215D01*
X152357215Y-47682685D01*
X152361417Y-47675587D01*
X152414952Y-47637884D01*
X152520377Y-47576038D01*
X152665799Y-47496069D01*
X152839325Y-47403997D01*
X153029063Y-47305840D01*
X153119364Y-47260134D01*
X153437738Y-47260134D01*
X153466003Y-47359625D01*
X153540586Y-47410882D01*
X153570574Y-47414199D01*
X153628086Y-47400713D01*
X153667213Y-47348077D01*
X153701498Y-47238203D01*
X153724886Y-47132635D01*
X153734352Y-47062789D01*
X153732415Y-47048807D01*
X153694898Y-47058281D01*
X153623233Y-47100709D01*
X153540902Y-47159252D01*
X153471387Y-47217068D01*
X153438169Y-47257319D01*
X153437738Y-47260134D01*
X153119364Y-47260134D01*
X153223120Y-47207618D01*
X153409604Y-47115349D01*
X153576621Y-47035055D01*
X153712279Y-46972752D01*
X153804686Y-46934462D01*
X153841948Y-46926203D01*
X153841968Y-46926233D01*
G37*
G36*
X150581568Y-52250616D02*
G01*
X150819248Y-52361398D01*
X151042628Y-52542466D01*
X151249224Y-52791170D01*
X151436550Y-53104857D01*
X151602120Y-53480877D01*
X151652656Y-53621396D01*
X151710510Y-53800256D01*
X151747283Y-53946593D01*
X151767763Y-54090073D01*
X151776740Y-54260360D01*
X151778691Y-54402055D01*
X151771528Y-54680404D01*
X151742401Y-54902573D01*
X151685507Y-55086810D01*
X151595041Y-55251364D01*
X151465198Y-55414481D01*
X151452040Y-55428996D01*
X151256671Y-55604831D01*
X151036734Y-55739227D01*
X150808038Y-55826201D01*
X150586389Y-55859770D01*
X150387594Y-55833952D01*
X150384649Y-55833012D01*
X150171658Y-55740309D01*
X149990044Y-55605222D01*
X149829982Y-55417703D01*
X149681648Y-55167707D01*
X149629196Y-55060412D01*
X149492366Y-54693492D01*
X149402164Y-54289134D01*
X149361287Y-53870993D01*
X149364415Y-53756404D01*
X149501591Y-53756404D01*
X149501832Y-53792760D01*
X149519433Y-54212435D01*
X149565739Y-54568580D01*
X149643061Y-54869105D01*
X149753708Y-55121922D01*
X149899992Y-55334941D01*
X149976488Y-55418348D01*
X150180530Y-55576162D01*
X150408955Y-55672290D01*
X150647553Y-55703991D01*
X150882111Y-55668521D01*
X151008029Y-55617465D01*
X151241274Y-55468240D01*
X151419183Y-55281412D01*
X151541881Y-55076639D01*
X151599697Y-54953954D01*
X151635992Y-54854413D01*
X151655420Y-54753430D01*
X151662632Y-54626417D01*
X151662282Y-54448788D01*
X151662184Y-54440930D01*
X151633135Y-54079668D01*
X151558878Y-53718737D01*
X151445357Y-53374723D01*
X151298512Y-53064213D01*
X151124284Y-52803794D01*
X151042752Y-52711677D01*
X150819486Y-52519214D01*
X150596140Y-52396562D01*
X150378118Y-52343838D01*
X150170822Y-52361159D01*
X149979655Y-52448642D01*
X149810021Y-52606405D01*
X149753073Y-52683692D01*
X149650890Y-52856769D01*
X149578597Y-53033157D01*
X149532248Y-53230277D01*
X149507894Y-53465553D01*
X149501591Y-53756404D01*
X149364415Y-53756404D01*
X149372432Y-53462720D01*
X149415191Y-53183465D01*
X149503474Y-52898510D01*
X149632708Y-52652565D01*
X149795397Y-52453567D01*
X149984043Y-52309454D01*
X150191147Y-52228163D01*
X150332075Y-52212772D01*
X150581568Y-52250616D01*
G37*
G36*
X153493582Y-45302984D02*
G01*
X153848060Y-45378448D01*
X154170959Y-45517758D01*
X154455757Y-45716510D01*
X154695928Y-45970301D01*
X154884948Y-46274725D01*
X155000221Y-46568991D01*
X155043058Y-46730755D01*
X155066173Y-46879353D01*
X155072902Y-47046340D01*
X155068645Y-47216368D01*
X155058093Y-47401588D01*
X155040949Y-47535184D01*
X155011792Y-47641686D01*
X154965199Y-47745622D01*
X154942067Y-47789049D01*
X154786802Y-48013821D01*
X154573137Y-48239044D01*
X154317695Y-48452044D01*
X154037100Y-48640148D01*
X153747975Y-48790682D01*
X153513900Y-48877875D01*
X153341784Y-48915290D01*
X153127824Y-48942274D01*
X152898749Y-48957327D01*
X152681290Y-48958948D01*
X152502177Y-48945636D01*
X152454346Y-48937353D01*
X152126979Y-48831527D01*
X151841889Y-48662673D01*
X151600145Y-48431816D01*
X151402818Y-48139979D01*
X151250977Y-47788186D01*
X151249621Y-47784159D01*
X151167620Y-47427444D01*
X151160824Y-47092731D01*
X151360465Y-47092731D01*
X151379638Y-47425669D01*
X151455990Y-47749459D01*
X151586289Y-48051450D01*
X151767299Y-48318987D01*
X151995786Y-48539419D01*
X152050939Y-48579535D01*
X152300437Y-48719136D01*
X152562444Y-48798360D01*
X152849652Y-48819169D01*
X153174755Y-48783521D01*
X153261457Y-48766438D01*
X153575180Y-48672193D01*
X153886073Y-48528049D01*
X154176688Y-48345291D01*
X154429579Y-48135201D01*
X154627298Y-47909064D01*
X154658803Y-47862722D01*
X154792868Y-47589370D01*
X154860159Y-47298293D01*
X154865041Y-46998968D01*
X154811880Y-46700871D01*
X154705041Y-46413476D01*
X154548890Y-46146260D01*
X154347791Y-45908698D01*
X154106111Y-45710266D01*
X153828215Y-45560439D01*
X153559626Y-45476840D01*
X153220769Y-45436586D01*
X152891654Y-45465406D01*
X152773312Y-45492192D01*
X152480106Y-45595489D01*
X152196594Y-45745141D01*
X151937824Y-45929772D01*
X151718839Y-46138004D01*
X151554686Y-46358461D01*
X151506597Y-46450024D01*
X151401707Y-46763299D01*
X151360465Y-47092731D01*
X151160824Y-47092731D01*
X151160461Y-47074835D01*
X151226828Y-46731473D01*
X151365407Y-46402497D01*
X151574884Y-46093050D01*
X151723834Y-45929042D01*
X152031491Y-45667907D01*
X152363635Y-45477318D01*
X152727479Y-45353990D01*
X153114050Y-45295770D01*
X153493582Y-45302984D01*
G37*
G36*
X156254133Y-47222217D02*
G01*
X156325997Y-47298115D01*
X156391256Y-47325407D01*
X156470127Y-47303690D01*
X156582828Y-47232561D01*
X156607297Y-47215174D01*
X156655404Y-47194093D01*
X156704657Y-47214922D01*
X156775144Y-47287229D01*
X156786634Y-47300580D01*
X156874784Y-47425916D01*
X156896307Y-47520428D01*
X156851851Y-47588998D01*
X156826943Y-47604604D01*
X156761856Y-47667822D01*
X156762953Y-47757001D01*
X156812922Y-47854446D01*
X156852582Y-47926861D01*
X156844162Y-47978181D01*
X156803827Y-48027997D01*
X156698863Y-48124930D01*
X156612443Y-48155813D01*
X156531508Y-48123894D01*
X156505848Y-48102093D01*
X156442387Y-48048977D01*
X156395543Y-48047082D01*
X156328557Y-48093592D01*
X156191287Y-48173951D01*
X156067760Y-48195248D01*
X156027243Y-48186502D01*
X155906608Y-48115383D01*
X155848533Y-48019832D01*
X155851892Y-47979924D01*
X156030653Y-47979924D01*
X156055551Y-48044691D01*
X156111286Y-48072851D01*
X156190352Y-48046036D01*
X156196455Y-48041706D01*
X156296234Y-47976592D01*
X156360297Y-47940709D01*
X156436971Y-47918229D01*
X156505080Y-47951515D01*
X156523326Y-47967306D01*
X156585097Y-48013275D01*
X156629554Y-48005548D01*
X156658614Y-47979658D01*
X156693532Y-47932207D01*
X156687681Y-47878825D01*
X156651179Y-47808230D01*
X156612116Y-47731025D01*
X156611362Y-47674828D01*
X156652578Y-47604836D01*
X156675956Y-47572860D01*
X156731234Y-47491707D01*
X156742445Y-47442715D01*
X156713353Y-47398776D01*
X156701775Y-47386953D01*
X156656143Y-47350269D01*
X156613639Y-47355088D01*
X156549502Y-47407369D01*
X156526589Y-47429126D01*
X156415339Y-47506958D01*
X156321486Y-47510667D01*
X156245104Y-47440261D01*
X156225380Y-47404213D01*
X156164394Y-47322973D01*
X156097440Y-47301645D01*
X156044046Y-47341657D01*
X156047409Y-47397048D01*
X156089225Y-47478750D01*
X156098920Y-47492439D01*
X156167745Y-47620428D01*
X156165992Y-47727845D01*
X156103405Y-47814049D01*
X156044102Y-47896921D01*
X156030653Y-47979924D01*
X155851892Y-47979924D01*
X155857471Y-47913629D01*
X155913000Y-47833090D01*
X155978295Y-47732944D01*
X155973632Y-47626086D01*
X155898393Y-47502673D01*
X155891825Y-47494769D01*
X155829454Y-47394299D01*
X155832306Y-47309080D01*
X155903942Y-47228990D01*
X156007998Y-47164564D01*
X156146330Y-47090511D01*
X156254133Y-47222217D01*
G37*
G36*
X163889032Y-53860453D02*
G01*
X163952880Y-53890410D01*
X164042737Y-53939747D01*
X164086865Y-53986053D01*
X164099131Y-54056363D01*
X164094167Y-54165897D01*
X164081366Y-54362775D01*
X164241036Y-54396887D01*
X164343043Y-54427093D01*
X164407878Y-54462043D01*
X164416835Y-54473649D01*
X164417630Y-54539854D01*
X164398176Y-54647570D01*
X164366180Y-54767462D01*
X164329351Y-54870198D01*
X164298596Y-54923596D01*
X164243070Y-54940878D01*
X164142284Y-54917202D01*
X164094340Y-54899124D01*
X163993072Y-54861247D01*
X163935586Y-54854221D01*
X163895400Y-54879518D01*
X163867854Y-54911713D01*
X163818281Y-55002016D01*
X163780687Y-55119534D01*
X163777796Y-55133793D01*
X163741386Y-55263423D01*
X163693001Y-55347739D01*
X163648292Y-55371448D01*
X163600381Y-55358662D01*
X163509777Y-55328756D01*
X163475994Y-55316890D01*
X163329557Y-55252496D01*
X163252423Y-55184528D01*
X163237869Y-55104810D01*
X163255872Y-55049046D01*
X163290372Y-54933047D01*
X163300706Y-54839723D01*
X163291589Y-54767227D01*
X163250800Y-54723289D01*
X163158182Y-54688360D01*
X163138862Y-54682771D01*
X163034197Y-54649938D01*
X162962893Y-54621953D01*
X162950364Y-54614601D01*
X162942117Y-54566906D01*
X162952606Y-54474699D01*
X162967529Y-54405119D01*
X163148382Y-54405119D01*
X163163281Y-54475727D01*
X163220462Y-54526754D01*
X163300706Y-54563219D01*
X163397840Y-54612285D01*
X163445378Y-54674523D01*
X163449328Y-54768543D01*
X163415696Y-54912952D01*
X163414705Y-54916400D01*
X163394873Y-55012470D01*
X163410958Y-55068878D01*
X163442990Y-55098470D01*
X163543767Y-55141859D01*
X163625579Y-55112427D01*
X163685140Y-55011887D01*
X163698893Y-54965256D01*
X163737448Y-54838860D01*
X163788425Y-54767106D01*
X163873408Y-54732607D01*
X164005204Y-54718508D01*
X164119217Y-54707622D01*
X164177811Y-54685712D01*
X164201727Y-54641257D01*
X164207245Y-54606264D01*
X164205290Y-54538243D01*
X164165863Y-54499301D01*
X164073962Y-54470805D01*
X163929042Y-54435785D01*
X163934015Y-54241606D01*
X163933738Y-54126289D01*
X163918874Y-54065573D01*
X163879879Y-54038065D01*
X163838813Y-54028192D01*
X163727693Y-54032595D01*
X163658657Y-54088286D01*
X163643435Y-54151576D01*
X163617776Y-54236081D01*
X163536115Y-54286386D01*
X163391425Y-54306212D01*
X163350211Y-54306853D01*
X163233075Y-54309443D01*
X163173070Y-54323380D01*
X163151197Y-54357916D01*
X163148382Y-54405119D01*
X162967529Y-54405119D01*
X162976012Y-54365564D01*
X163006514Y-54267083D01*
X163035825Y-54209620D01*
X163102817Y-54184529D01*
X163230672Y-54190698D01*
X163240508Y-54192143D01*
X163393749Y-54200236D01*
X163487326Y-54166554D01*
X163526962Y-54088379D01*
X163529192Y-54054931D01*
X163552620Y-53915166D01*
X163621654Y-53835679D01*
X163734417Y-53817199D01*
X163889032Y-53860453D01*
G37*
G36*
X160322574Y-48890516D02*
G01*
X160553179Y-48907453D01*
X160711201Y-48933545D01*
X161107235Y-49065390D01*
X161466584Y-49261070D01*
X161783482Y-49514813D01*
X162052162Y-49820851D01*
X162266858Y-50173413D01*
X162421803Y-50566730D01*
X162451583Y-50674926D01*
X162479163Y-50808596D01*
X162498585Y-50965048D01*
X162510895Y-51158820D01*
X162517141Y-51404450D01*
X162518451Y-51603105D01*
X162517668Y-51857620D01*
X162513502Y-52052549D01*
X162504475Y-52204447D01*
X162489110Y-52329867D01*
X162465930Y-52445360D01*
X162433457Y-52567482D01*
X162431917Y-52572832D01*
X162316828Y-52904822D01*
X162173030Y-53186126D01*
X161986568Y-53440776D01*
X161830259Y-53609008D01*
X161532121Y-53859713D01*
X161186574Y-54062047D01*
X160785905Y-54220211D01*
X160615999Y-54270034D01*
X160404530Y-54314294D01*
X160155965Y-54346590D01*
X159892025Y-54365957D01*
X159634430Y-54371434D01*
X159404901Y-54362057D01*
X159225157Y-54336864D01*
X159207003Y-54332486D01*
X158905061Y-54229105D01*
X158600480Y-54078641D01*
X158314355Y-53894241D01*
X158067779Y-53689056D01*
X157924113Y-53532749D01*
X157750164Y-53273743D01*
X157599514Y-52972905D01*
X157488114Y-52664211D01*
X157455715Y-52534996D01*
X157425347Y-52330431D01*
X157406653Y-52074549D01*
X157399626Y-51791295D01*
X157400310Y-51748916D01*
X157698591Y-51748916D01*
X157722399Y-52139461D01*
X157785772Y-52518366D01*
X157886684Y-52864474D01*
X157973861Y-53066637D01*
X158186216Y-53414918D01*
X158439114Y-53698829D01*
X158731999Y-53918117D01*
X159064312Y-54072532D01*
X159435497Y-54161822D01*
X159844996Y-54185736D01*
X160292253Y-54144023D01*
X160344596Y-54135267D01*
X160766623Y-54030488D01*
X161135357Y-53871919D01*
X161452808Y-53658141D01*
X161720987Y-53387730D01*
X161941902Y-53059266D01*
X161987294Y-52973264D01*
X162087188Y-52754542D01*
X162159960Y-52541322D01*
X162210244Y-52312942D01*
X162242675Y-52048742D01*
X162260834Y-51753777D01*
X162268305Y-51498864D01*
X162265516Y-51295881D01*
X162251241Y-51121132D01*
X162224253Y-50950923D01*
X162217477Y-50916602D01*
X162099652Y-50503200D01*
X161925252Y-50140067D01*
X161696754Y-49829374D01*
X161416636Y-49573290D01*
X161087372Y-49373986D01*
X160711440Y-49233631D01*
X160291317Y-49154394D01*
X160196067Y-49145597D01*
X159857239Y-49139321D01*
X159533919Y-49170509D01*
X159246779Y-49236366D01*
X159092760Y-49294855D01*
X158823701Y-49454654D01*
X158562760Y-49677552D01*
X158319891Y-49950510D01*
X158105049Y-50260487D01*
X157928188Y-50594443D01*
X157799261Y-50939339D01*
X157777767Y-51017543D01*
X157716372Y-51367890D01*
X157698591Y-51748916D01*
X157400310Y-51748916D01*
X157404256Y-51504613D01*
X157420538Y-51238447D01*
X157448464Y-51016741D01*
X157456198Y-50976171D01*
X157583080Y-50531063D01*
X157768906Y-50131668D01*
X158010794Y-49781044D01*
X158305865Y-49482252D01*
X158651238Y-49238349D01*
X159044034Y-49052396D01*
X159359327Y-48954935D01*
X159556975Y-48919786D01*
X159799828Y-48897073D01*
X160063242Y-48887186D01*
X160322574Y-48890516D01*
G37*
G36*
X158780320Y-37371607D02*
G01*
X158817105Y-37406590D01*
X158890334Y-37492295D01*
X158992001Y-37618152D01*
X159114105Y-37773593D01*
X159248639Y-37948049D01*
X159387601Y-38130952D01*
X159522988Y-38311734D01*
X159646794Y-38479824D01*
X159751016Y-38624655D01*
X159827651Y-38735659D01*
X159868694Y-38802266D01*
X159873420Y-38814987D01*
X159849382Y-38856130D01*
X159783210Y-38942771D01*
X159683821Y-39063882D01*
X159560129Y-39208438D01*
X159498417Y-39278762D01*
X159230968Y-39587074D01*
X159009693Y-39856182D01*
X158825011Y-40098764D01*
X158667341Y-40327502D01*
X158527103Y-40555075D01*
X158504507Y-40594209D01*
X158380469Y-40822450D01*
X158270857Y-41046075D01*
X158181525Y-41251290D01*
X158118323Y-41424301D01*
X158087103Y-41551315D01*
X158084825Y-41583530D01*
X158089602Y-41624354D01*
X158108816Y-41633776D01*
X158151782Y-41605691D01*
X158227813Y-41533993D01*
X158346224Y-41412576D01*
X158347272Y-41411487D01*
X158494688Y-41242845D01*
X158667536Y-41019425D01*
X158856774Y-40754365D01*
X158894572Y-40697921D01*
X159417216Y-40697921D01*
X159437135Y-40742694D01*
X159492704Y-40838312D01*
X159576794Y-40974058D01*
X159682277Y-41139213D01*
X159802025Y-41323058D01*
X159928910Y-41514875D01*
X160055804Y-41703945D01*
X160175580Y-41879551D01*
X160281108Y-42030973D01*
X160365262Y-42147494D01*
X160420913Y-42218395D01*
X160439535Y-42235189D01*
X160478013Y-42208512D01*
X160554589Y-42136383D01*
X160657195Y-42030652D01*
X160745247Y-41935016D01*
X160856422Y-41809014D01*
X160945448Y-41703013D01*
X161001653Y-41630045D01*
X161015849Y-41604676D01*
X160993954Y-41567926D01*
X160933368Y-41480948D01*
X160841737Y-41353959D01*
X160726708Y-41197175D01*
X160595929Y-41020811D01*
X160457045Y-40835083D01*
X160317704Y-40650207D01*
X160185553Y-40476399D01*
X160068238Y-40323876D01*
X159973406Y-40202852D01*
X159908705Y-40123545D01*
X159898082Y-40111376D01*
X159820562Y-40024896D01*
X159619272Y-40339862D01*
X159533120Y-40478718D01*
X159465215Y-40595860D01*
X159424650Y-40675178D01*
X159417216Y-40697921D01*
X158894572Y-40697921D01*
X159053361Y-40460799D01*
X159248254Y-40151865D01*
X159366567Y-39951957D01*
X160010247Y-39951957D01*
X160014806Y-39959851D01*
X160053753Y-40009903D01*
X160126822Y-40103179D01*
X160220996Y-40223076D01*
X160264615Y-40278524D01*
X160386513Y-40440033D01*
X160523910Y-40632239D01*
X160652508Y-40820901D01*
X160687761Y-40874820D01*
X160857894Y-41114017D01*
X161017928Y-41285760D01*
X161174870Y-41396814D01*
X161270419Y-41437113D01*
X161369032Y-41454068D01*
X161501556Y-41458832D01*
X161642567Y-41452791D01*
X161766643Y-41437332D01*
X161848361Y-41413843D01*
X161861404Y-41404866D01*
X161851343Y-41361821D01*
X161793442Y-41262663D01*
X161689075Y-41109405D01*
X161539613Y-40904061D01*
X161346431Y-40648643D01*
X161339827Y-40640035D01*
X160781203Y-39912250D01*
X160379770Y-39912250D01*
X160197379Y-39914102D01*
X160081428Y-39920499D01*
X160022268Y-39932697D01*
X160010247Y-39951957D01*
X159366567Y-39951957D01*
X159432414Y-39840698D01*
X159451428Y-39807251D01*
X159540687Y-39657461D01*
X159624049Y-39531519D01*
X159690483Y-39445360D01*
X159721613Y-39416921D01*
X159782816Y-39404391D01*
X159903543Y-39394592D01*
X160067201Y-39387607D01*
X160257196Y-39383519D01*
X160456938Y-39382413D01*
X160649833Y-39384372D01*
X160819288Y-39389480D01*
X160948711Y-39397821D01*
X161021510Y-39409477D01*
X161023892Y-39410354D01*
X161064228Y-39447195D01*
X161142070Y-39536377D01*
X161250635Y-39668916D01*
X161383141Y-39835826D01*
X161532803Y-40028121D01*
X161692839Y-40236816D01*
X161856465Y-40452925D01*
X162016898Y-40667463D01*
X162167354Y-40871445D01*
X162301052Y-41055884D01*
X162411206Y-41211796D01*
X162491035Y-41330194D01*
X162533755Y-41402094D01*
X162539087Y-41417472D01*
X162514143Y-41478427D01*
X162443877Y-41586683D01*
X162335139Y-41734055D01*
X162194780Y-41912358D01*
X162029649Y-42113407D01*
X161846597Y-42329017D01*
X161652473Y-42551003D01*
X161454128Y-42771180D01*
X161258412Y-42981362D01*
X161072175Y-43173364D01*
X161056055Y-43189532D01*
X160794374Y-43446013D01*
X160569621Y-43653953D01*
X160370141Y-43823466D01*
X160184277Y-43964664D01*
X160080545Y-44035967D01*
X159578919Y-44334026D01*
X159065271Y-44568534D01*
X158524995Y-44744852D01*
X157943484Y-44868339D01*
X157724439Y-44900473D01*
X157581370Y-44920915D01*
X157470362Y-44939921D01*
X157410651Y-44954101D01*
X157405868Y-44956614D01*
X157405918Y-44999859D01*
X157427954Y-45083589D01*
X157431835Y-45094999D01*
X157450315Y-45185996D01*
X157464731Y-45329282D01*
X157473062Y-45501011D01*
X157474319Y-45596070D01*
X157476651Y-45775965D01*
X157484489Y-45889369D01*
X157499103Y-45945837D01*
X157521759Y-45954922D01*
X157521921Y-45954853D01*
X157576423Y-45931477D01*
X157682345Y-45886050D01*
X157821112Y-45826537D01*
X157893210Y-45795617D01*
X158383226Y-45610713D01*
X158872499Y-45479541D01*
X159378250Y-45399098D01*
X159917702Y-45366379D01*
X160330391Y-45370465D01*
X160849492Y-45407082D01*
X161320802Y-45481707D01*
X161765164Y-45599333D01*
X162203421Y-45764953D01*
X162448498Y-45877865D01*
X162591134Y-45941712D01*
X162699955Y-45979213D01*
X162760166Y-45985486D01*
X162765238Y-45982393D01*
X162784441Y-45934023D01*
X162814337Y-45825936D01*
X162851126Y-45673188D01*
X162891010Y-45490831D01*
X162898839Y-45453030D01*
X163048003Y-44781734D01*
X163219611Y-44107116D01*
X163360172Y-43615816D01*
X164405054Y-43615816D01*
X164419068Y-43659216D01*
X164458746Y-43763359D01*
X164520539Y-43919678D01*
X164600902Y-44119603D01*
X164696286Y-44354566D01*
X164803145Y-44616000D01*
X164917931Y-44895335D01*
X165037097Y-45184004D01*
X165157095Y-45473438D01*
X165274380Y-45755068D01*
X165385402Y-46020327D01*
X165486616Y-46260647D01*
X165574473Y-46467458D01*
X165645427Y-46632193D01*
X165695930Y-46746283D01*
X165722436Y-46801160D01*
X165725283Y-46804816D01*
X165744983Y-46773774D01*
X165792702Y-46690240D01*
X165860239Y-46568716D01*
X165906168Y-46484874D01*
X165982389Y-46336849D01*
X166041719Y-46206030D01*
X166075732Y-46111788D01*
X166080616Y-46083807D01*
X166067763Y-46003481D01*
X166031276Y-45865718D01*
X165974265Y-45678855D01*
X165899841Y-45451226D01*
X165811113Y-45191167D01*
X165711191Y-44907013D01*
X165603186Y-44607099D01*
X165490207Y-44299761D01*
X165375364Y-43993334D01*
X165261767Y-43696154D01*
X165152527Y-43416555D01*
X165050753Y-43162874D01*
X164959555Y-42943445D01*
X164882043Y-42766603D01*
X164821327Y-42640685D01*
X164780518Y-42574025D01*
X164767939Y-42565586D01*
X164743761Y-42601931D01*
X164702863Y-42695373D01*
X164650691Y-42830145D01*
X164592694Y-42990477D01*
X164534320Y-43160605D01*
X164481017Y-43324759D01*
X164438233Y-43467174D01*
X164411417Y-43572080D01*
X164405054Y-43615816D01*
X163360172Y-43615816D01*
X163408294Y-43447614D01*
X163608684Y-42821665D01*
X163815413Y-42247709D01*
X163880090Y-42082865D01*
X163920361Y-41985992D01*
X164823945Y-41985992D01*
X164840719Y-42033845D01*
X164887457Y-42137947D01*
X164958782Y-42287082D01*
X165049316Y-42470033D01*
X165153683Y-42675582D01*
X165165991Y-42699505D01*
X165287698Y-42938904D01*
X165411237Y-43187429D01*
X165526796Y-43424956D01*
X165624562Y-43631361D01*
X165683515Y-43760879D01*
X165736774Y-43889526D01*
X165804881Y-44066225D01*
X165884009Y-44279846D01*
X165970329Y-44519261D01*
X166060015Y-44773342D01*
X166149239Y-45030958D01*
X166234174Y-45280982D01*
X166310991Y-45512284D01*
X166375864Y-45713736D01*
X166424964Y-45874208D01*
X166454464Y-45982572D01*
X166461426Y-46022715D01*
X166493358Y-46070883D01*
X166538848Y-46081366D01*
X166592880Y-46070108D01*
X166710160Y-46038176D01*
X166881466Y-45988327D01*
X167097579Y-45923320D01*
X167349279Y-45845914D01*
X167627346Y-45758867D01*
X167805040Y-45702511D01*
X168103232Y-45607568D01*
X168388101Y-45517035D01*
X168648897Y-45434316D01*
X168874872Y-45362813D01*
X169055278Y-45305930D01*
X169179367Y-45267069D01*
X169217541Y-45255276D01*
X169338728Y-45211719D01*
X169427186Y-45167753D01*
X169459862Y-45138450D01*
X169463069Y-45059963D01*
X169440168Y-44917685D01*
X169393357Y-44718533D01*
X169324838Y-44469420D01*
X169236809Y-44177263D01*
X169131470Y-43848977D01*
X169011021Y-43491476D01*
X168877661Y-43111677D01*
X168733590Y-42716494D01*
X168581007Y-42312844D01*
X168472805Y-42035264D01*
X168352343Y-41731396D01*
X168255684Y-41491300D01*
X168179345Y-41307642D01*
X168119841Y-41173087D01*
X168073686Y-41080301D01*
X168037396Y-41021951D01*
X168007486Y-40990703D01*
X167980472Y-40979223D01*
X167970673Y-40978517D01*
X167914311Y-40989656D01*
X167794949Y-41021211D01*
X167622127Y-41070388D01*
X167405383Y-41134393D01*
X167154258Y-41210433D01*
X166878290Y-41295713D01*
X166745184Y-41337416D01*
X166441960Y-41432739D01*
X166142415Y-41526738D01*
X165859663Y-41615310D01*
X165606817Y-41694353D01*
X165396989Y-41759764D01*
X165243293Y-41807441D01*
X165214274Y-41816385D01*
X165037747Y-41875156D01*
X164907959Y-41927591D01*
X164835514Y-41969080D01*
X164823945Y-41985992D01*
X163920361Y-41985992D01*
X163955625Y-41901163D01*
X164026984Y-41741427D01*
X164086925Y-41619077D01*
X164128211Y-41549529D01*
X164133296Y-41543609D01*
X164182287Y-41518796D01*
X164296040Y-41474446D01*
X164466488Y-41413310D01*
X164685564Y-41338138D01*
X164945203Y-41251679D01*
X165237337Y-41156684D01*
X165553900Y-41055903D01*
X165680766Y-41016083D01*
X166030817Y-40906571D01*
X166382209Y-40796488D01*
X166722797Y-40689651D01*
X167040434Y-40589875D01*
X167322975Y-40500976D01*
X167558272Y-40426769D01*
X167734179Y-40371070D01*
X167747512Y-40366832D01*
X167948526Y-40305187D01*
X168126437Y-40254917D01*
X168267639Y-40219533D01*
X168358524Y-40202545D01*
X168383501Y-40202738D01*
X168394954Y-40206026D01*
X168405034Y-40209394D01*
X168415540Y-40217762D01*
X168428276Y-40236054D01*
X168445043Y-40269191D01*
X168467643Y-40322095D01*
X168497878Y-40399688D01*
X168537551Y-40506892D01*
X168588463Y-40648630D01*
X168652416Y-40829822D01*
X168731212Y-41055391D01*
X168826653Y-41330259D01*
X168940541Y-41659348D01*
X169074678Y-42047580D01*
X169230867Y-42499876D01*
X169336726Y-42806403D01*
X169478787Y-43219752D01*
X169611032Y-43608548D01*
X169731545Y-43966908D01*
X169838405Y-44288951D01*
X169929697Y-44568794D01*
X170003500Y-44800555D01*
X170057897Y-44978351D01*
X170090971Y-45096300D01*
X170100802Y-45148521D01*
X170100678Y-45149186D01*
X170065105Y-45201823D01*
X169981642Y-45289370D01*
X169862490Y-45399945D01*
X169719848Y-45521664D01*
X169709666Y-45529996D01*
X169429943Y-45767322D01*
X169140552Y-46029327D01*
X168850261Y-46306781D01*
X168567843Y-46590456D01*
X168302070Y-46871122D01*
X168061711Y-47139551D01*
X167855538Y-47386514D01*
X167692323Y-47602783D01*
X167593151Y-47756928D01*
X167462125Y-48032782D01*
X167399662Y-48276640D01*
X167404521Y-48486318D01*
X167475462Y-48659633D01*
X167611244Y-48794401D01*
X167810627Y-48888439D01*
X168072370Y-48939564D01*
X168270271Y-48948756D01*
X168448830Y-48941178D01*
X168664324Y-48917750D01*
X168923557Y-48877254D01*
X169233333Y-48818474D01*
X169600457Y-48740191D01*
X170031730Y-48641187D01*
X170162980Y-48610048D01*
X170337853Y-48571255D01*
X170492733Y-48542255D01*
X170608207Y-48526375D01*
X170658033Y-48525180D01*
X170698615Y-48539671D01*
X170735464Y-48578513D01*
X170774762Y-48653695D01*
X170822689Y-48777206D01*
X170885426Y-48961034D01*
X170890217Y-48975518D01*
X171069628Y-49559547D01*
X171211998Y-50120022D01*
X171321941Y-50680790D01*
X171404073Y-51265701D01*
X171463006Y-51898601D01*
X171467286Y-51958103D01*
X171485709Y-52219849D01*
X171503733Y-52475728D01*
X171520163Y-52708794D01*
X171533803Y-52902101D01*
X171543459Y-53038704D01*
X171544407Y-53052074D01*
X171550823Y-53234451D01*
X171538717Y-53351579D01*
X171516928Y-53402078D01*
X171470236Y-53429887D01*
X171360685Y-53478996D01*
X171197396Y-53545811D01*
X170989490Y-53626743D01*
X170746088Y-53718199D01*
X170476310Y-53816589D01*
X170345684Y-53863253D01*
X170021748Y-53978497D01*
X169679278Y-54100839D01*
X169336323Y-54223794D01*
X169010935Y-54340879D01*
X168721165Y-54445612D01*
X168485064Y-54531510D01*
X168483956Y-54531915D01*
X168254933Y-54613841D01*
X168044342Y-54685768D01*
X167864742Y-54743674D01*
X167728695Y-54783540D01*
X167648761Y-54801345D01*
X167640443Y-54801905D01*
X167561720Y-54783514D01*
X167429944Y-54732520D01*
X167257554Y-54655196D01*
X167056989Y-54557812D01*
X166840691Y-54446640D01*
X166621099Y-54327951D01*
X166410653Y-54208016D01*
X166221794Y-54093107D01*
X166175819Y-54063562D01*
X165957977Y-53915366D01*
X165728462Y-53748494D01*
X165503644Y-53575748D01*
X165299892Y-53409931D01*
X165133578Y-53263844D01*
X165054023Y-53186281D01*
X164922332Y-53049237D01*
X164874488Y-53135391D01*
X164828602Y-53259762D01*
X164831562Y-53392080D01*
X164886298Y-53545691D01*
X164995738Y-53733946D01*
X165010849Y-53756754D01*
X165160578Y-53997153D01*
X165262387Y-54206818D01*
X165323201Y-54407863D01*
X165349944Y-54622402D01*
X165350715Y-54842187D01*
X165341720Y-55023573D01*
X165325113Y-55157607D01*
X165294029Y-55273094D01*
X165241604Y-55398843D01*
X165195135Y-55495075D01*
X164999423Y-55820374D01*
X164766891Y-56080379D01*
X164498830Y-56274035D01*
X164196533Y-56400285D01*
X164043285Y-56435985D01*
X163735199Y-56453893D01*
X163422501Y-56402676D01*
X163120505Y-56286716D01*
X162844526Y-56110397D01*
X162811571Y-56083450D01*
X162653623Y-55977953D01*
X162496556Y-55935937D01*
X162324719Y-55956413D01*
X162122459Y-56038393D01*
X162119795Y-56039740D01*
X161950127Y-56112832D01*
X161718803Y-56193008D01*
X161439441Y-56275781D01*
X161254647Y-56324769D01*
X161093595Y-56365734D01*
X161324740Y-56640566D01*
X161636070Y-57060684D01*
X161873911Y-57495514D01*
X162040421Y-57950922D01*
X162137758Y-58432775D01*
X162168119Y-58933689D01*
X162163111Y-59201034D01*
X162146917Y-59442325D01*
X162116397Y-59679950D01*
X162068410Y-59936292D01*
X161999818Y-60233738D01*
X161967818Y-60361725D01*
X161904985Y-60595571D01*
X161828630Y-60858118D01*
X161742747Y-61137575D01*
X161651334Y-61422148D01*
X161558386Y-61700045D01*
X161467899Y-61959473D01*
X161383869Y-62188640D01*
X161310292Y-62375753D01*
X161251164Y-62509020D01*
X161222684Y-62560708D01*
X161200676Y-62591898D01*
X161174950Y-62615066D01*
X161137215Y-62629505D01*
X161079185Y-62634510D01*
X160992570Y-62629375D01*
X160869083Y-62613393D01*
X160700435Y-62585859D01*
X160478338Y-62546067D01*
X160194504Y-62493310D01*
X159997627Y-62456362D01*
X159733985Y-62405361D01*
X159493185Y-62355965D01*
X159285995Y-62310609D01*
X159123183Y-62271727D01*
X159015517Y-62241756D01*
X158975546Y-62225226D01*
X158934257Y-62171724D01*
X158869538Y-62065919D01*
X158790943Y-61924162D01*
X158723454Y-61793782D01*
X158630306Y-61597667D01*
X158586810Y-61477491D01*
X158959477Y-61477491D01*
X158983286Y-61553592D01*
X159042670Y-61655701D01*
X159119562Y-61759040D01*
X159195896Y-61838829D01*
X159245084Y-61869223D01*
X159328032Y-61884689D01*
X159469356Y-61905687D01*
X159651654Y-61930126D01*
X159857520Y-61955919D01*
X160069553Y-61980976D01*
X160270348Y-62003207D01*
X160442502Y-62020523D01*
X160568612Y-62030836D01*
X160606478Y-62032655D01*
X160787363Y-62037288D01*
X160787363Y-61904004D01*
X160937522Y-61904004D01*
X161055161Y-61599357D01*
X161157172Y-61259402D01*
X161193904Y-61009102D01*
X161201294Y-60854695D01*
X161195516Y-60771905D01*
X161177541Y-60761575D01*
X161129668Y-60841428D01*
X161078862Y-60976845D01*
X161030472Y-61147683D01*
X160989848Y-61333797D01*
X160962338Y-61515042D01*
X160955068Y-61599357D01*
X160937522Y-61904004D01*
X160787363Y-61904004D01*
X160787363Y-61851546D01*
X160776102Y-61719961D01*
X160745788Y-61634561D01*
X160734630Y-61622039D01*
X160681686Y-61604766D01*
X160565522Y-61582621D01*
X160398777Y-61557497D01*
X160194093Y-61531282D01*
X159964111Y-61505868D01*
X159944450Y-61503871D01*
X159644276Y-61474050D01*
X159411432Y-61452364D01*
X159237548Y-61438590D01*
X159114254Y-61432503D01*
X159033177Y-61433880D01*
X158985947Y-61442496D01*
X158964193Y-61458126D01*
X158959477Y-61477491D01*
X158586810Y-61477491D01*
X158572378Y-61437615D01*
X158549941Y-61294481D01*
X158561578Y-61167559D01*
X159032339Y-61167559D01*
X159046412Y-61188513D01*
X159102779Y-61204274D01*
X159220479Y-61223618D01*
X159384847Y-61245097D01*
X159581221Y-61267263D01*
X159794938Y-61288668D01*
X160011334Y-61307864D01*
X160215745Y-61323403D01*
X160393509Y-61333838D01*
X160529962Y-61337720D01*
X160555330Y-61337509D01*
X160799309Y-61332790D01*
X160906724Y-60954299D01*
X160950431Y-60796778D01*
X160983819Y-60669637D01*
X161002888Y-60588548D01*
X161005474Y-60567442D01*
X160961161Y-60557502D01*
X160854530Y-60545090D01*
X160698835Y-60531028D01*
X160507333Y-60516133D01*
X160489126Y-60514865D01*
X161333505Y-60514865D01*
X161338402Y-60536601D01*
X161363434Y-60544824D01*
X161399241Y-60488940D01*
X161442417Y-60379671D01*
X161489556Y-60227741D01*
X161537251Y-60043873D01*
X161582098Y-59838789D01*
X161612413Y-59673944D01*
X161645493Y-59432871D01*
X161654306Y-59232124D01*
X161640936Y-59045609D01*
X161623871Y-58917090D01*
X161612250Y-58859036D01*
X161603981Y-58866124D01*
X161596970Y-58933029D01*
X161596921Y-58933689D01*
X161555047Y-59300188D01*
X161481292Y-59716551D01*
X161409100Y-60041549D01*
X161362913Y-60252841D01*
X161337280Y-60413656D01*
X161333505Y-60514865D01*
X160489126Y-60514865D01*
X160293281Y-60501226D01*
X160069935Y-60487126D01*
X159850552Y-60474651D01*
X159648387Y-60464623D01*
X159476698Y-60457859D01*
X159348740Y-60455179D01*
X159277770Y-60457403D01*
X159268089Y-60460056D01*
X159241976Y-60509594D01*
X159198586Y-60612972D01*
X159145357Y-60751989D01*
X159118243Y-60826744D01*
X159061512Y-60995464D01*
X159033596Y-61105453D01*
X159032339Y-61167559D01*
X158561578Y-61167559D01*
X158563269Y-61149120D01*
X158612634Y-60982387D01*
X158698310Y-60775136D01*
X158739263Y-60684362D01*
X158914820Y-60270547D01*
X159055659Y-59876865D01*
X159160992Y-59509214D01*
X159230031Y-59173491D01*
X159261988Y-58875593D01*
X159256074Y-58621415D01*
X159211503Y-58416856D01*
X159127484Y-58267811D01*
X159069269Y-58215128D01*
X158933822Y-58162470D01*
X158772663Y-58162293D01*
X158614523Y-58213821D01*
X158589339Y-58228074D01*
X158449508Y-58347567D01*
X158302012Y-58537915D01*
X158148905Y-58794435D01*
X157992241Y-59112441D01*
X157834076Y-59487251D01*
X157676463Y-59914179D01*
X157521458Y-60388542D01*
X157371114Y-60905656D01*
X157302982Y-61160848D01*
X157244641Y-61377846D01*
X157189009Y-61570913D01*
X157140090Y-61727194D01*
X157101885Y-61833833D01*
X157080140Y-61876573D01*
X157050001Y-61892828D01*
X156994659Y-61899179D01*
X156903986Y-61894742D01*
X156767857Y-61878634D01*
X156576143Y-61849974D01*
X156347864Y-61812743D01*
X156101147Y-61772075D01*
X155854543Y-61732215D01*
X155628364Y-61696390D01*
X155442922Y-61667828D01*
X155349186Y-61654022D01*
X155223808Y-61636479D01*
X155131767Y-61618967D01*
X155060006Y-61591668D01*
X154995468Y-61544762D01*
X154925096Y-61468429D01*
X154835832Y-61352851D01*
X154714619Y-61188207D01*
X154695832Y-61162684D01*
X154621096Y-61057776D01*
X154565413Y-60964312D01*
X154530218Y-60873055D01*
X154517743Y-60780659D01*
X155202258Y-60780659D01*
X155202450Y-60809391D01*
X155232135Y-60882181D01*
X155280373Y-60978542D01*
X155336224Y-61077989D01*
X155388746Y-61160038D01*
X155427000Y-61204201D01*
X155429145Y-61205499D01*
X155504967Y-61231705D01*
X155631524Y-61260339D01*
X155794100Y-61289562D01*
X155977982Y-61317534D01*
X156168455Y-61342415D01*
X156350805Y-61362366D01*
X156510318Y-61375547D01*
X156632280Y-61380118D01*
X156701976Y-61374239D01*
X156712700Y-61365986D01*
X156693389Y-61309555D01*
X156644623Y-61218482D01*
X156580151Y-61114117D01*
X156513722Y-61017814D01*
X156459086Y-60950924D01*
X156433818Y-60932897D01*
X156382182Y-60928214D01*
X156269141Y-60915323D01*
X156108806Y-60895917D01*
X155978941Y-60879656D01*
X156750661Y-60879656D01*
X156760490Y-60985139D01*
X156784973Y-61090215D01*
X156816908Y-61173974D01*
X156849090Y-61215508D01*
X156865121Y-61211912D01*
X156887097Y-61162856D01*
X156921216Y-61058753D01*
X156961473Y-60918523D01*
X156978271Y-60855319D01*
X157019401Y-60685470D01*
X157039078Y-60564912D01*
X157039270Y-60470469D01*
X157021947Y-60378959D01*
X157019518Y-60369786D01*
X156986879Y-60272423D01*
X156955376Y-60215497D01*
X156945266Y-60209402D01*
X156918783Y-60243383D01*
X156882439Y-60332154D01*
X156841969Y-60455959D01*
X156803111Y-60595041D01*
X156771601Y-60729642D01*
X156753175Y-60840005D01*
X156750661Y-60879656D01*
X155978941Y-60879656D01*
X155915290Y-60871686D01*
X155798757Y-60856778D01*
X155596653Y-60830775D01*
X155423544Y-60808591D01*
X155292401Y-60791880D01*
X155216194Y-60782298D01*
X155202258Y-60780659D01*
X154517743Y-60780659D01*
X154516948Y-60774770D01*
X154527039Y-60660221D01*
X154551453Y-60562216D01*
X155276491Y-60562216D01*
X155277511Y-60566261D01*
X155325185Y-60598448D01*
X155444205Y-60629043D01*
X155636731Y-60658565D01*
X155691055Y-60665189D01*
X155869262Y-60687817D01*
X156030557Y-60711330D01*
X156152507Y-60732308D01*
X156198607Y-60742566D01*
X156381902Y-60774643D01*
X156511892Y-60755503D01*
X156570736Y-60713974D01*
X156605700Y-60651594D01*
X156646583Y-60545268D01*
X156687174Y-60416882D01*
X156721259Y-60288320D01*
X156742628Y-60181466D01*
X156745068Y-60118207D01*
X156741744Y-60111508D01*
X156698238Y-60100936D01*
X156594578Y-60086479D01*
X156446585Y-60069568D01*
X156270081Y-60051630D01*
X156080887Y-60034096D01*
X155894825Y-60018395D01*
X155727716Y-60005955D01*
X155595383Y-59998206D01*
X155513647Y-59996577D01*
X155495725Y-59998958D01*
X155460979Y-60046872D01*
X155413762Y-60143726D01*
X155362890Y-60266605D01*
X155317178Y-60392590D01*
X155285440Y-60498766D01*
X155276491Y-60562216D01*
X154551453Y-60562216D01*
X154561927Y-60520171D01*
X154623049Y-60345383D01*
X154711840Y-60126621D01*
X154803764Y-59914567D01*
X157060230Y-59914567D01*
X157066059Y-59989671D01*
X157093308Y-60041053D01*
X157101126Y-60049462D01*
X157133003Y-60073761D01*
X157161150Y-60068114D01*
X157191968Y-60022328D01*
X157231857Y-59926210D01*
X157287216Y-59769568D01*
X157299579Y-59733390D01*
X157400936Y-59465351D01*
X157525494Y-59181322D01*
X157662505Y-58903007D01*
X157801218Y-58652107D01*
X157930884Y-58450326D01*
X157944163Y-58432021D01*
X158145618Y-58207470D01*
X158369001Y-58054889D01*
X158620135Y-57971812D01*
X158904847Y-57955768D01*
X159037405Y-57968638D01*
X159163492Y-57983226D01*
X159255896Y-57988937D01*
X159292258Y-57985266D01*
X159290818Y-57939427D01*
X159240700Y-57868870D01*
X159157490Y-57789749D01*
X159056775Y-57718220D01*
X159010278Y-57692999D01*
X158804141Y-57632819D01*
X158589488Y-57643611D01*
X158370627Y-57721270D01*
X158151867Y-57861694D01*
X157937513Y-58060778D01*
X157731875Y-58314421D01*
X157539259Y-58618517D01*
X157363974Y-58968964D01*
X157210327Y-59361658D01*
X157187705Y-59429156D01*
X157119409Y-59646087D01*
X157077466Y-59803965D01*
X157060230Y-59914567D01*
X154803764Y-59914567D01*
X154829738Y-59854650D01*
X154888806Y-59721424D01*
X155662392Y-59721424D01*
X155674621Y-59746316D01*
X155728017Y-59760076D01*
X155842232Y-59777840D01*
X156002161Y-59797613D01*
X156192696Y-59817402D01*
X156260858Y-59823698D01*
X156479730Y-59842139D01*
X156635157Y-59851835D01*
X156739363Y-59852698D01*
X156804572Y-59844641D01*
X156843007Y-59827576D01*
X156852388Y-59819467D01*
X156887798Y-59758716D01*
X156932831Y-59646797D01*
X156978505Y-59506396D01*
X156984258Y-59486399D01*
X157124062Y-59066442D01*
X157294146Y-58680340D01*
X157489318Y-58335538D01*
X157704384Y-58039483D01*
X157934152Y-57799619D01*
X158173429Y-57623392D01*
X158339344Y-57543546D01*
X158584629Y-57479380D01*
X158823086Y-57468862D01*
X159037934Y-57510801D01*
X159212390Y-57604008D01*
X159214377Y-57605599D01*
X159377204Y-57773902D01*
X159494743Y-57982578D01*
X159567609Y-58235902D01*
X159596415Y-58538148D01*
X159581775Y-58893590D01*
X159524306Y-59306500D01*
X159486930Y-59501081D01*
X159440033Y-59730285D01*
X159407929Y-59895742D01*
X159390167Y-60008323D01*
X159386296Y-60078903D01*
X159395865Y-60118353D01*
X159418424Y-60137546D01*
X159453523Y-60147357D01*
X159460084Y-60148743D01*
X159526052Y-60158310D01*
X159653760Y-60173164D01*
X159829090Y-60191797D01*
X160037923Y-60212701D01*
X160235189Y-60231498D01*
X160455121Y-60252641D01*
X160647556Y-60272413D01*
X160800175Y-60289445D01*
X160900662Y-60302366D01*
X160936513Y-60309477D01*
X161000061Y-60325575D01*
X161088199Y-60312287D01*
X161158750Y-60276868D01*
X161165159Y-60270154D01*
X161216338Y-60175544D01*
X161269756Y-60020052D01*
X161322467Y-59818778D01*
X161371525Y-59586826D01*
X161413982Y-59339298D01*
X161446892Y-59091296D01*
X161467309Y-58857922D01*
X161472667Y-58694078D01*
X161443453Y-58246921D01*
X161355388Y-57848095D01*
X161208524Y-57497650D01*
X161002912Y-57195636D01*
X160738605Y-56942102D01*
X160415654Y-56737097D01*
X160034111Y-56580672D01*
X159594028Y-56472877D01*
X159095456Y-56413759D01*
X159094538Y-56413699D01*
X158733871Y-56414806D01*
X158386281Y-56470031D01*
X158031945Y-56583570D01*
X157790672Y-56689642D01*
X157449441Y-56891406D01*
X157115793Y-57162563D01*
X156795776Y-57496360D01*
X156495441Y-57886044D01*
X156220836Y-58324863D01*
X156070412Y-58610001D01*
X155952656Y-58859000D01*
X155850229Y-59095620D01*
X155766560Y-59310018D01*
X155705078Y-59492347D01*
X155669212Y-59632764D01*
X155662392Y-59721424D01*
X154888806Y-59721424D01*
X154936780Y-59613221D01*
X155178197Y-59079343D01*
X155402195Y-58601612D01*
X155607140Y-58183289D01*
X155791400Y-57827636D01*
X155953345Y-57537915D01*
X156067428Y-57353224D01*
X156234359Y-57122133D01*
X156441244Y-56871036D01*
X156669374Y-56620303D01*
X156900036Y-56390304D01*
X157114521Y-56201406D01*
X157154396Y-56169915D01*
X157257266Y-56087151D01*
X157330529Y-56021707D01*
X157358579Y-55987539D01*
X157358574Y-55987304D01*
X157328005Y-55959019D01*
X157244715Y-55896824D01*
X157119691Y-55808552D01*
X156963916Y-55702035D01*
X156873042Y-55641127D01*
X156628648Y-55471089D01*
X156408064Y-55299762D01*
X156189111Y-55108663D01*
X155949609Y-54879311D01*
X155901973Y-54831907D01*
X155743368Y-54675882D01*
X155600934Y-54540575D01*
X155484145Y-54434603D01*
X155402476Y-54366584D01*
X155366598Y-54344934D01*
X155308288Y-54359454D01*
X155246946Y-54409084D01*
X155175412Y-54502928D01*
X155086527Y-54650091D01*
X154996146Y-54816044D01*
X154796928Y-55191952D01*
X154860100Y-55368218D01*
X154917620Y-55633389D01*
X154907711Y-55900728D01*
X154835746Y-56156678D01*
X154707097Y-56387679D01*
X154527138Y-56580171D01*
X154329396Y-56707524D01*
X154121012Y-56775159D01*
X153893718Y-56794422D01*
X153675057Y-56765406D01*
X153519826Y-56704709D01*
X153365161Y-56617782D01*
X153139641Y-56718989D01*
X153014791Y-56771660D01*
X152913246Y-56808476D01*
X152861761Y-56820779D01*
X152783530Y-56840797D01*
X152756196Y-56855051D01*
X152740537Y-56884805D01*
X152766693Y-56937155D01*
X152841181Y-57022062D01*
X152911470Y-57092474D01*
X153181551Y-57396766D01*
X153379408Y-57714017D01*
X153508810Y-58052155D01*
X153573526Y-58419104D01*
X153578990Y-58495758D01*
X153584089Y-58639991D01*
X153579848Y-58767887D01*
X153563407Y-58900154D01*
X153531906Y-59057499D01*
X153482485Y-59260632D01*
X153462769Y-59337335D01*
X153393929Y-59583412D01*
X153307311Y-59864245D01*
X153214296Y-60144232D01*
X153131116Y-60375042D01*
X153051397Y-60581100D01*
X152991166Y-60725544D01*
X152944884Y-60818691D01*
X152907011Y-60870858D01*
X152872009Y-60892363D01*
X152852015Y-60894859D01*
X152778273Y-60883661D01*
X152649220Y-60853390D01*
X152481752Y-60809029D01*
X152292767Y-60755560D01*
X152099161Y-60697966D01*
X151917832Y-60641231D01*
X151765675Y-60590337D01*
X151659590Y-60550267D01*
X151623725Y-60532635D01*
X151548658Y-60455015D01*
X151473356Y-60332761D01*
X151412939Y-60195840D01*
X151382528Y-60074215D01*
X151381366Y-60052344D01*
X151385397Y-60031623D01*
X151759627Y-60031623D01*
X151802344Y-60067525D01*
X151906027Y-60123801D01*
X152065432Y-60197457D01*
X152185241Y-60248582D01*
X152377809Y-60327170D01*
X152506957Y-60375711D01*
X152578487Y-60395919D01*
X152598202Y-60389506D01*
X152579012Y-60364845D01*
X152530029Y-60335694D01*
X152452475Y-60297793D01*
X152752773Y-60297793D01*
X152770544Y-60308214D01*
X152810973Y-60259608D01*
X152869324Y-60152280D01*
X152926567Y-60025832D01*
X152966750Y-59920197D01*
X152980647Y-59861993D01*
X152995496Y-59792948D01*
X153033236Y-59685396D01*
X153061002Y-59618806D01*
X153127063Y-59428736D01*
X153182739Y-59192266D01*
X153222621Y-58938991D01*
X153241298Y-58698512D01*
X153241913Y-58629042D01*
X153240150Y-58526993D01*
X153236544Y-58479517D01*
X153228980Y-58491543D01*
X153215346Y-58568003D01*
X153193529Y-58713825D01*
X153187312Y-58756450D01*
X153125183Y-59089944D01*
X153036669Y-59438534D01*
X152930982Y-59769062D01*
X152845763Y-59985678D01*
X152789345Y-60129194D01*
X152758694Y-60235676D01*
X152752773Y-60297793D01*
X152452475Y-60297793D01*
X152429553Y-60286591D01*
X152296087Y-60225576D01*
X152148133Y-60160684D01*
X152004192Y-60099955D01*
X151882766Y-60051425D01*
X151802358Y-60023134D01*
X151783120Y-60019087D01*
X151759627Y-60031623D01*
X151385397Y-60031623D01*
X151394284Y-59985939D01*
X151430034Y-59862489D01*
X151452196Y-59794267D01*
X151738226Y-59794267D01*
X151741932Y-59858483D01*
X151746183Y-59864693D01*
X151812773Y-59906615D01*
X151931360Y-59962256D01*
X152080925Y-60023676D01*
X152240447Y-60082934D01*
X152388908Y-60132088D01*
X152505288Y-60163197D01*
X152554298Y-60169987D01*
X152643882Y-60160029D01*
X152698457Y-60113501D01*
X152735183Y-60039260D01*
X152779539Y-59924944D01*
X152796345Y-59840489D01*
X152777159Y-59776456D01*
X152713539Y-59723403D01*
X152597044Y-59671893D01*
X152419231Y-59612486D01*
X152328161Y-59584123D01*
X152120405Y-59522410D01*
X151975656Y-59485882D01*
X151885641Y-59472895D01*
X151842088Y-59481805D01*
X151837854Y-59486645D01*
X151792723Y-59581397D01*
X151757335Y-59692921D01*
X151738226Y-59794267D01*
X151452196Y-59794267D01*
X151484108Y-59696032D01*
X151552000Y-59500610D01*
X151606723Y-59350349D01*
X151721319Y-59032864D01*
X151806337Y-58775136D01*
X151863982Y-58567707D01*
X151896458Y-58401121D01*
X151905970Y-58265921D01*
X151894722Y-58152650D01*
X151890491Y-58133128D01*
X151851071Y-58021685D01*
X151795674Y-57971942D01*
X151718268Y-57984737D01*
X151612819Y-58060910D01*
X151484036Y-58189646D01*
X151402709Y-58284115D01*
X151322292Y-58393381D01*
X151236380Y-58528151D01*
X151138571Y-58699132D01*
X151022460Y-58917030D01*
X150881645Y-59192552D01*
X150867957Y-59219714D01*
X150753436Y-59445052D01*
X150649364Y-59645794D01*
X150560801Y-59812505D01*
X150492808Y-59935748D01*
X150450446Y-60006090D01*
X150439241Y-60018997D01*
X150368465Y-60004693D01*
X150247080Y-59966683D01*
X150094019Y-59912315D01*
X149928216Y-59848941D01*
X149768603Y-59783910D01*
X149634114Y-59724572D01*
X149543682Y-59678278D01*
X149521213Y-59662604D01*
X149404397Y-59517824D01*
X149350308Y-59402603D01*
X149720113Y-59402603D01*
X149765491Y-59443985D01*
X149862970Y-59503320D01*
X149984369Y-59564748D01*
X150126217Y-59628028D01*
X150208439Y-59654177D01*
X150237341Y-59644190D01*
X150221126Y-59602096D01*
X150165713Y-59554342D01*
X150063795Y-59495890D01*
X150063631Y-59495815D01*
X150391261Y-59495815D01*
X150407070Y-59514481D01*
X150444271Y-59484214D01*
X150487524Y-59422796D01*
X150521486Y-59348015D01*
X150523023Y-59343060D01*
X150530363Y-59277737D01*
X150514183Y-59257378D01*
X150475859Y-59288781D01*
X150432262Y-59362334D01*
X150399367Y-59447045D01*
X150391261Y-59495815D01*
X150063631Y-59495815D01*
X149941253Y-59439721D01*
X149823968Y-59398819D01*
X149807336Y-59394538D01*
X149732255Y-59384384D01*
X149720113Y-59402603D01*
X149350308Y-59402603D01*
X149321107Y-59340400D01*
X149292243Y-59191133D01*
X149597788Y-59191133D01*
X149598481Y-59200829D01*
X149637621Y-59219877D01*
X149728598Y-59258052D01*
X149852113Y-59307268D01*
X149858335Y-59309694D01*
X150047138Y-59370474D01*
X150188779Y-59383723D01*
X150296008Y-59348932D01*
X150362700Y-59289616D01*
X150423976Y-59188154D01*
X150414209Y-59107213D01*
X150331437Y-59041102D01*
X150267498Y-59013806D01*
X150069256Y-58942456D01*
X149930921Y-58897064D01*
X150691353Y-58897064D01*
X150705678Y-58906941D01*
X150753911Y-58855327D01*
X150833679Y-58742494D01*
X150942606Y-58568717D01*
X150993833Y-58482163D01*
X151177993Y-58194495D01*
X151353131Y-57977789D01*
X151426692Y-57905741D01*
X151628892Y-57724727D01*
X151462657Y-57815076D01*
X151273368Y-57954638D01*
X151086907Y-58163689D01*
X150908981Y-58435612D01*
X150875572Y-58495758D01*
X150773926Y-58691746D01*
X150713311Y-58825423D01*
X150691353Y-58897064D01*
X149930921Y-58897064D01*
X149930168Y-58896817D01*
X149838735Y-58874157D01*
X149783458Y-58871749D01*
X149752838Y-58886860D01*
X149749395Y-58890801D01*
X149706429Y-58956770D01*
X149658390Y-59046171D01*
X149617952Y-59132970D01*
X149597788Y-59191133D01*
X149292243Y-59191133D01*
X149287099Y-59164532D01*
X149286969Y-59154172D01*
X149307167Y-59063774D01*
X149363342Y-58921724D01*
X149448941Y-58739549D01*
X149519867Y-58601726D01*
X149877918Y-58601726D01*
X149883601Y-58650707D01*
X149932500Y-58677552D01*
X150034195Y-58720636D01*
X150169300Y-58771905D01*
X150211587Y-58787021D01*
X150357429Y-58837493D01*
X150449377Y-58863880D01*
X150505281Y-58867664D01*
X150542988Y-58850326D01*
X150576637Y-58817332D01*
X150629496Y-58740547D01*
X150690806Y-58623254D01*
X150727151Y-58540093D01*
X150811869Y-58361061D01*
X150924086Y-58168338D01*
X151049864Y-57982381D01*
X151175267Y-57823649D01*
X151286359Y-57712599D01*
X151296038Y-57704985D01*
X151406565Y-57636364D01*
X151523763Y-57605951D01*
X151632656Y-57600856D01*
X151830948Y-57628277D01*
X151984727Y-57714664D01*
X152104389Y-57866208D01*
X152117005Y-57889170D01*
X152164829Y-58044299D01*
X152176961Y-58248710D01*
X152154771Y-58485146D01*
X152099627Y-58736353D01*
X152034178Y-58932589D01*
X151971189Y-59110364D01*
X151945586Y-59224295D01*
X151954710Y-59274740D01*
X152013027Y-59307643D01*
X152125586Y-59352932D01*
X152272764Y-59404440D01*
X152434937Y-59455999D01*
X152592480Y-59501439D01*
X152725768Y-59534594D01*
X152815179Y-59549296D01*
X152828442Y-59549360D01*
X152880188Y-59538254D01*
X152917190Y-59502486D01*
X152948967Y-59425863D01*
X152985039Y-59292194D01*
X152988918Y-59276418D01*
X153076148Y-58834485D01*
X153112477Y-58432548D01*
X153098251Y-58074495D01*
X153033815Y-57764214D01*
X152919514Y-57505590D01*
X152819316Y-57367793D01*
X152647542Y-57205619D01*
X152457574Y-57098256D01*
X152230855Y-57037479D01*
X152029546Y-57017709D01*
X151645232Y-57027534D01*
X151301519Y-57098367D01*
X150989010Y-57233762D01*
X150698307Y-57437275D01*
X150544293Y-57579548D01*
X150424328Y-57711858D01*
X150300119Y-57869005D01*
X150179167Y-58038829D01*
X150068972Y-58209173D01*
X149977032Y-58367876D01*
X149910847Y-58502780D01*
X149877918Y-58601726D01*
X149519867Y-58601726D01*
X149557407Y-58528777D01*
X149682185Y-58300935D01*
X149816722Y-58067550D01*
X149954461Y-57840150D01*
X150088848Y-57630262D01*
X150213328Y-57449413D01*
X150321345Y-57309130D01*
X150362700Y-57262452D01*
X150462463Y-57156350D01*
X150538417Y-57074497D01*
X150578411Y-57030034D01*
X150581666Y-57025717D01*
X150547955Y-57018146D01*
X150463119Y-57005090D01*
X150419822Y-56999161D01*
X150319298Y-56973042D01*
X150173292Y-56919086D01*
X150003261Y-56845785D01*
X149867623Y-56780576D01*
X149477268Y-56583460D01*
X149324199Y-56644707D01*
X149173094Y-56684584D01*
X148991777Y-56703415D01*
X148813574Y-56699914D01*
X148671814Y-56672794D01*
X148664625Y-56670172D01*
X148550652Y-56601172D01*
X148424798Y-56485884D01*
X148308161Y-56346672D01*
X148221835Y-56205902D01*
X148217082Y-56195711D01*
X148163201Y-56013445D01*
X148147952Y-55819921D01*
X148372970Y-55819921D01*
X148405279Y-55902007D01*
X148484021Y-55980161D01*
X148581914Y-56031291D01*
X148632400Y-56039536D01*
X148694816Y-56046053D01*
X148727037Y-56078943D01*
X148741716Y-56158217D01*
X148746317Y-56219703D01*
X148767204Y-56353988D01*
X148813944Y-56435747D01*
X148838999Y-56456677D01*
X148944789Y-56491471D01*
X149066052Y-56480447D01*
X149149204Y-56436992D01*
X149147570Y-56390194D01*
X149099691Y-56301420D01*
X149013885Y-56181832D01*
X148898468Y-56042593D01*
X148761756Y-55894865D01*
X148697041Y-55830091D01*
X148589184Y-55726612D01*
X148565040Y-55706572D01*
X148832526Y-55706572D01*
X148840396Y-55782293D01*
X148885368Y-55888891D01*
X148910305Y-55932092D01*
X148981697Y-56020315D01*
X149041833Y-56043644D01*
X149082114Y-56000020D01*
X149088802Y-55974817D01*
X149072585Y-55913316D01*
X149021146Y-55827650D01*
X148954047Y-55743740D01*
X148890849Y-55687507D01*
X148864637Y-55677767D01*
X148832526Y-55706572D01*
X148565040Y-55706572D01*
X148521065Y-55670071D01*
X148478694Y-55653427D01*
X148448079Y-55669638D01*
X148427777Y-55694566D01*
X148384468Y-55772984D01*
X148372970Y-55819921D01*
X148147952Y-55819921D01*
X148147011Y-55807985D01*
X148168779Y-55611507D01*
X148211185Y-55487363D01*
X148273860Y-55392274D01*
X148352641Y-55349957D01*
X148402568Y-55342069D01*
X148527368Y-55330059D01*
X148443336Y-55180544D01*
X148359304Y-55031029D01*
X148192324Y-55205299D01*
X148076893Y-55313580D01*
X147953248Y-55400786D01*
X147811251Y-55469593D01*
X147640764Y-55522676D01*
X147431649Y-55562711D01*
X147173767Y-55592373D01*
X146856980Y-55614340D01*
X146596461Y-55626501D01*
X145981421Y-55651349D01*
X145807572Y-55549466D01*
X145682465Y-55461306D01*
X145568830Y-55357243D01*
X145532750Y-55315203D01*
X145481930Y-55243231D01*
X145454144Y-55178637D01*
X145445324Y-55097881D01*
X145451401Y-54977423D01*
X145452884Y-54960834D01*
X145787748Y-54960834D01*
X145792586Y-55058670D01*
X145799147Y-55092493D01*
X145851604Y-55135296D01*
X145944040Y-55140535D01*
X146049429Y-55106853D01*
X146052535Y-55105213D01*
X146095765Y-55067341D01*
X146118327Y-54999493D01*
X146120825Y-54960740D01*
X146276253Y-54960740D01*
X146302745Y-55055978D01*
X146364199Y-55108026D01*
X146453764Y-55125942D01*
X146597865Y-55132456D01*
X146775918Y-55128724D01*
X146967341Y-55115902D01*
X147151550Y-55095148D01*
X147307962Y-55067618D01*
X147369800Y-55051524D01*
X147638932Y-54934881D01*
X147863657Y-54766703D01*
X148032352Y-54555876D01*
X148043623Y-54536474D01*
X148134027Y-54309435D01*
X148163714Y-54069638D01*
X148134765Y-53834112D01*
X148049262Y-53619887D01*
X147910184Y-53444808D01*
X147857877Y-53408700D01*
X148391824Y-53408700D01*
X148392630Y-53876806D01*
X148445128Y-54338689D01*
X148548320Y-54776884D01*
X148700568Y-55172585D01*
X148915221Y-55534707D01*
X149191964Y-55857469D01*
X149525601Y-56137185D01*
X149910932Y-56370172D01*
X150342760Y-56552744D01*
X150815888Y-56681219D01*
X150834250Y-56684913D01*
X151046147Y-56714579D01*
X151308223Y-56732620D01*
X151595378Y-56738978D01*
X151882513Y-56733591D01*
X152144527Y-56716401D01*
X152350248Y-56688524D01*
X152553791Y-56639482D01*
X152756215Y-56573236D01*
X152938138Y-56497664D01*
X153080179Y-56420645D01*
X153153025Y-56362237D01*
X153183888Y-56319547D01*
X153185722Y-56274595D01*
X153153169Y-56207553D01*
X153082356Y-56100753D01*
X152964022Y-55881944D01*
X152919552Y-55677767D01*
X153133090Y-55677767D01*
X153161059Y-55892961D01*
X153248806Y-56070647D01*
X153402091Y-56219820D01*
X153532940Y-56302136D01*
X153691564Y-56350381D01*
X153879169Y-56349042D01*
X154069351Y-56300812D01*
X154199952Y-56234067D01*
X154354676Y-56088592D01*
X154468168Y-55892592D01*
X154531493Y-55664519D01*
X154541713Y-55528436D01*
X154537705Y-55408278D01*
X154516049Y-55325655D01*
X154463101Y-55250447D01*
X154376214Y-55163051D01*
X154183779Y-55023006D01*
X153979312Y-54949764D01*
X153774129Y-54938640D01*
X153579544Y-54984950D01*
X153406873Y-55084007D01*
X153267430Y-55231128D01*
X153172531Y-55421628D01*
X153133489Y-55650821D01*
X153133090Y-55677767D01*
X152919552Y-55677767D01*
X152917795Y-55669698D01*
X152941490Y-55453794D01*
X152942977Y-55448196D01*
X153043711Y-55202604D01*
X153193765Y-55009305D01*
X153383259Y-54872683D01*
X153602307Y-54797124D01*
X153841026Y-54787011D01*
X154089534Y-54846731D01*
X154193692Y-54893304D01*
X154311501Y-54945843D01*
X154407747Y-54975105D01*
X154452339Y-54976445D01*
X154507279Y-54924427D01*
X154573175Y-54816277D01*
X154642580Y-54669765D01*
X154708045Y-54502663D01*
X154762121Y-54332743D01*
X154797360Y-54177777D01*
X154802725Y-54140425D01*
X154833800Y-53882300D01*
X154684303Y-53673529D01*
X154550691Y-53457316D01*
X154456245Y-53229039D01*
X154394705Y-52968691D01*
X154359808Y-52656265D01*
X154359515Y-52651825D01*
X154504218Y-52651825D01*
X154514253Y-52761466D01*
X154537050Y-52893926D01*
X154570036Y-53032359D01*
X154610638Y-53159917D01*
X154630527Y-53208875D01*
X154706491Y-53354645D01*
X154791337Y-53478527D01*
X154875861Y-53572394D01*
X154950859Y-53628119D01*
X155007126Y-53637573D01*
X155035460Y-53592630D01*
X155037138Y-53567929D01*
X155011138Y-53506831D01*
X154964980Y-53453655D01*
X154884967Y-53341651D01*
X154880248Y-53219305D01*
X154950809Y-53087661D01*
X154969556Y-53065268D01*
X155039214Y-52963174D01*
X155059784Y-52880019D01*
X155030029Y-52830035D01*
X154990732Y-52821838D01*
X154928677Y-52840593D01*
X154836228Y-52886889D01*
X154812635Y-52900807D01*
X154723795Y-52945693D01*
X154666614Y-52942076D01*
X154629448Y-52881076D01*
X154600651Y-52753817D01*
X154597764Y-52736992D01*
X154572087Y-52637506D01*
X154539480Y-52574173D01*
X154532721Y-52568382D01*
X154509516Y-52581848D01*
X154504218Y-52651825D01*
X154359515Y-52651825D01*
X154358178Y-52631563D01*
X154345431Y-52449661D01*
X154329694Y-52319207D01*
X154315577Y-52263102D01*
X154477107Y-52263102D01*
X154479221Y-52359681D01*
X154524770Y-52414767D01*
X154561126Y-52421845D01*
X154609313Y-52435950D01*
X154642038Y-52489586D01*
X154668788Y-52599739D01*
X154672798Y-52621770D01*
X154699498Y-52733037D01*
X154730205Y-52805509D01*
X154748960Y-52821444D01*
X154805675Y-52801728D01*
X154891192Y-52753762D01*
X154903855Y-52745533D01*
X155018234Y-52684132D01*
X155099741Y-52684340D01*
X155166288Y-52751010D01*
X155207904Y-52827880D01*
X155252347Y-52925043D01*
X155263636Y-52977198D01*
X155242034Y-53007774D01*
X155210143Y-53027368D01*
X155108033Y-53099770D01*
X155020484Y-53185502D01*
X154967857Y-53263048D01*
X154960976Y-53290662D01*
X154981189Y-53353114D01*
X155032035Y-53446994D01*
X155057645Y-53486650D01*
X155115482Y-53582863D01*
X155128366Y-53643998D01*
X155107695Y-53685271D01*
X155081613Y-53738724D01*
X155115749Y-53776039D01*
X155186833Y-53795723D01*
X155306418Y-53806916D01*
X155447400Y-53809584D01*
X155582673Y-53803690D01*
X155685133Y-53789201D01*
X155718885Y-53776818D01*
X155750731Y-53715121D01*
X155757543Y-53597093D01*
X155742111Y-53437301D01*
X155707223Y-53250312D01*
X155655670Y-53050692D01*
X155590241Y-52853009D01*
X155513727Y-52671828D01*
X155503154Y-52650331D01*
X155419111Y-52499426D01*
X155315445Y-52338058D01*
X155293743Y-52307602D01*
X155456788Y-52307602D01*
X155599212Y-52583399D01*
X155666217Y-52710675D01*
X155719334Y-52806949D01*
X155749661Y-52856242D01*
X155753047Y-52859486D01*
X155790985Y-52844079D01*
X155868120Y-52806153D01*
X155876810Y-52801677D01*
X155960610Y-52735018D01*
X155985570Y-52646289D01*
X155951456Y-52526833D01*
X155865399Y-52378917D01*
X155772485Y-52255113D01*
X155695955Y-52195434D01*
X155622098Y-52194040D01*
X155542090Y-52241249D01*
X155456788Y-52307602D01*
X155293743Y-52307602D01*
X155202345Y-52179340D01*
X155089999Y-52036386D01*
X154988595Y-51922310D01*
X154908321Y-51850228D01*
X154867084Y-51831590D01*
X154802387Y-51858312D01*
X154712385Y-51925549D01*
X154618805Y-52013909D01*
X154543371Y-52104000D01*
X154520694Y-52140784D01*
X154477107Y-52263102D01*
X154315577Y-52263102D01*
X154303626Y-52215608D01*
X154259889Y-52114275D01*
X154191145Y-51990617D01*
X154142200Y-51907850D01*
X153938061Y-51607466D01*
X153871476Y-51530087D01*
X155002086Y-51530087D01*
X155018481Y-51633969D01*
X155055607Y-51724498D01*
X155115433Y-51817104D01*
X155173607Y-51893650D01*
X155285307Y-52023430D01*
X155369917Y-52093256D01*
X155411613Y-52103931D01*
X155602052Y-52075010D01*
X155760885Y-52071971D01*
X155868870Y-52095077D01*
X155874016Y-52097674D01*
X155942819Y-52163905D01*
X156016278Y-52278898D01*
X156081982Y-52417189D01*
X156127522Y-52553315D01*
X156141114Y-52645716D01*
X156105394Y-52768780D01*
X156003405Y-52908182D01*
X155944900Y-52976222D01*
X155906039Y-53037982D01*
X155885470Y-53108312D01*
X155881840Y-53202062D01*
X155893798Y-53334082D01*
X155919989Y-53519222D01*
X155937421Y-53632615D01*
X155941737Y-53752195D01*
X155904020Y-53837480D01*
X155889119Y-53855230D01*
X155865204Y-53884869D01*
X155856405Y-53914690D01*
X155869147Y-53953277D01*
X155909859Y-54009213D01*
X155984965Y-54091083D01*
X156100892Y-54207471D01*
X156264068Y-54366961D01*
X156294125Y-54396211D01*
X156711689Y-54776305D01*
X157118509Y-55091653D01*
X157525856Y-55350422D01*
X157828099Y-55507374D01*
X158143892Y-55641020D01*
X158485490Y-55758426D01*
X158822366Y-55850062D01*
X159092760Y-55902121D01*
X159310097Y-55923768D01*
X159578476Y-55935762D01*
X159873388Y-55938078D01*
X160170324Y-55930691D01*
X160444774Y-55913576D01*
X160546144Y-55903626D01*
X160871337Y-55851469D01*
X161207826Y-55769181D01*
X161537765Y-55663134D01*
X161843313Y-55539697D01*
X162106627Y-55405243D01*
X162292928Y-55279939D01*
X162401850Y-55193087D01*
X162403731Y-54744349D01*
X162656221Y-54744349D01*
X162670646Y-54859820D01*
X162713084Y-54977753D01*
X162745562Y-55046769D01*
X162873677Y-55246397D01*
X163044717Y-55425618D01*
X163236457Y-55563496D01*
X163351134Y-55617282D01*
X163567840Y-55658360D01*
X163809163Y-55637131D01*
X164058481Y-55555318D01*
X164089905Y-55540664D01*
X164314521Y-55394592D01*
X164483573Y-55207324D01*
X164596965Y-54989857D01*
X164654600Y-54753189D01*
X164656383Y-54508316D01*
X164602216Y-54266236D01*
X164492004Y-54037944D01*
X164325649Y-53834439D01*
X164106328Y-53668630D01*
X163891758Y-53583234D01*
X163667132Y-53564807D01*
X163442563Y-53606875D01*
X163228164Y-53702964D01*
X163034048Y-53846602D01*
X162870329Y-54031314D01*
X162747121Y-54250627D01*
X162674536Y-54498067D01*
X162662755Y-54592668D01*
X162656221Y-54744349D01*
X162403731Y-54744349D01*
X162403827Y-54721409D01*
X162405795Y-54520071D01*
X162411738Y-54376244D01*
X162424682Y-54271280D01*
X162447657Y-54186533D01*
X162483689Y-54103359D01*
X162513690Y-54044829D01*
X162656527Y-53827479D01*
X162840580Y-53626284D01*
X163043410Y-53463722D01*
X163161993Y-53395424D01*
X163386274Y-53320664D01*
X163645455Y-53288198D01*
X163909716Y-53300171D01*
X164062325Y-53330661D01*
X164181837Y-53356407D01*
X164271784Y-53363519D01*
X164304807Y-53355279D01*
X164327713Y-53309892D01*
X164368314Y-53208376D01*
X164420916Y-53067083D01*
X164479825Y-52902366D01*
X164539349Y-52730578D01*
X164593794Y-52568071D01*
X164637467Y-52431198D01*
X164664673Y-52336312D01*
X164670869Y-52303877D01*
X164649091Y-52259211D01*
X164589130Y-52167739D01*
X164499958Y-52042463D01*
X164390547Y-51896384D01*
X164381802Y-51884986D01*
X164029530Y-51389468D01*
X163741408Y-50898213D01*
X163510017Y-50394301D01*
X163327941Y-49860810D01*
X163187760Y-49280818D01*
X163148668Y-49071984D01*
X163097359Y-48739604D01*
X163053649Y-48380111D01*
X163020212Y-48020919D01*
X163005461Y-47782319D01*
X163309697Y-47782319D01*
X163324973Y-48372623D01*
X163396491Y-48940959D01*
X163524870Y-49495322D01*
X163710728Y-50043704D01*
X163954685Y-50594100D01*
X163968298Y-50621572D01*
X164299064Y-51218913D01*
X164677719Y-51773906D01*
X165115240Y-52301745D01*
X165394639Y-52595748D01*
X165524235Y-52721309D01*
X165672028Y-52856895D01*
X165827221Y-52993515D01*
X165979019Y-53122175D01*
X166116626Y-53233883D01*
X166229247Y-53319647D01*
X166306085Y-53370475D01*
X166335373Y-53379333D01*
X166334595Y-53340670D01*
X166328173Y-53235471D01*
X166316792Y-53073097D01*
X166301139Y-52862911D01*
X166281900Y-52614273D01*
X166259762Y-52336547D01*
X166251095Y-52229786D01*
X166215767Y-51798030D01*
X166185857Y-51436123D01*
X166160787Y-51137991D01*
X166139974Y-50897557D01*
X166122840Y-50708748D01*
X166108803Y-50565486D01*
X166103174Y-50514766D01*
X166457009Y-50514766D01*
X166457037Y-50697188D01*
X166460484Y-50931721D01*
X166467259Y-51210379D01*
X166477269Y-51525174D01*
X166482911Y-51679267D01*
X166499596Y-52110120D01*
X166514337Y-52471154D01*
X166527593Y-52768671D01*
X166539822Y-53008976D01*
X166551484Y-53198372D01*
X166563038Y-53343163D01*
X166574943Y-53449653D01*
X166587659Y-53524145D01*
X166601643Y-53572945D01*
X166617356Y-53602354D01*
X166623479Y-53609364D01*
X166671875Y-53638132D01*
X166774437Y-53688085D01*
X166914625Y-53752099D01*
X167075900Y-53823050D01*
X167241724Y-53893815D01*
X167395556Y-53957269D01*
X167520858Y-54006287D01*
X167601091Y-54033747D01*
X167616401Y-54037055D01*
X167632459Y-54007671D01*
X167626419Y-53935563D01*
X167617419Y-53877566D01*
X167599965Y-53751838D01*
X167575083Y-53566218D01*
X167543797Y-53328545D01*
X167507133Y-53046659D01*
X167466116Y-52728398D01*
X167421770Y-52381602D01*
X167375121Y-52014109D01*
X167373710Y-52002955D01*
X167326904Y-51637789D01*
X167281808Y-51295462D01*
X167239493Y-50983446D01*
X167201029Y-50709210D01*
X167167487Y-50480224D01*
X167139937Y-50303959D01*
X167119450Y-50187885D01*
X167107096Y-50139473D01*
X167106621Y-50138867D01*
X167041531Y-50123904D01*
X166946933Y-50145842D01*
X166826722Y-50184287D01*
X166688051Y-50224035D01*
X166661998Y-50230939D01*
X166554835Y-50271106D01*
X166480260Y-50321307D01*
X166467575Y-50338206D01*
X166460491Y-50392443D01*
X166457009Y-50514766D01*
X166103174Y-50514766D01*
X166097285Y-50461697D01*
X166087703Y-50391306D01*
X166079479Y-50348236D01*
X166072033Y-50326413D01*
X166068900Y-50322024D01*
X166023646Y-50302091D01*
X165924543Y-50269901D01*
X165791581Y-50231864D01*
X165768458Y-50225653D01*
X165396995Y-50101287D01*
X165093401Y-49943724D01*
X165063939Y-49919897D01*
X167495770Y-49919897D01*
X167511096Y-50041218D01*
X167543225Y-50216186D01*
X167581751Y-50407838D01*
X167686080Y-50965727D01*
X167782816Y-51570607D01*
X167868343Y-52195220D01*
X167939043Y-52812308D01*
X167991300Y-53394613D01*
X168005648Y-53602355D01*
X168018780Y-53800066D01*
X168030731Y-53934011D01*
X168044144Y-54016490D01*
X168061662Y-54059804D01*
X168085929Y-54076251D01*
X168107949Y-54078367D01*
X168153850Y-54066089D01*
X168261704Y-54031464D01*
X168421756Y-53977803D01*
X168624248Y-53908419D01*
X168859425Y-53826624D01*
X169117530Y-53735730D01*
X169124367Y-53733308D01*
X169415114Y-53630131D01*
X169712362Y-53524377D01*
X169999444Y-53421995D01*
X170259695Y-53328933D01*
X170476448Y-53251140D01*
X170593210Y-53209014D01*
X171088262Y-53029780D01*
X171077023Y-52859096D01*
X171061524Y-52705200D01*
X171032014Y-52488533D01*
X170990539Y-52220772D01*
X170939145Y-51913596D01*
X170879878Y-51578684D01*
X170814785Y-51227713D01*
X170745911Y-50872362D01*
X170675304Y-50524309D01*
X170632149Y-50320076D01*
X170558919Y-49979696D01*
X170499581Y-49706406D01*
X170451989Y-49492843D01*
X170413997Y-49331642D01*
X170383458Y-49215440D01*
X170358227Y-49136873D01*
X170336156Y-49088578D01*
X170315101Y-49063189D01*
X170292914Y-49053345D01*
X170267450Y-49051680D01*
X170262474Y-49051680D01*
X170211602Y-49061121D01*
X170097561Y-49087639D01*
X169930728Y-49128532D01*
X169721481Y-49181094D01*
X169480199Y-49242622D01*
X169217259Y-49310411D01*
X168943039Y-49381758D01*
X168667918Y-49453958D01*
X168402274Y-49524306D01*
X168156485Y-49590100D01*
X167940928Y-49648635D01*
X167765983Y-49697206D01*
X167642026Y-49733109D01*
X167613375Y-49741939D01*
X167556049Y-49763243D01*
X167517702Y-49792366D01*
X167497790Y-49840765D01*
X167495770Y-49919897D01*
X165063939Y-49919897D01*
X164856662Y-49752264D01*
X164685767Y-49526209D01*
X164647182Y-49451530D01*
X164600035Y-49333935D01*
X164572490Y-49213219D01*
X164559990Y-49062498D01*
X164558981Y-49000087D01*
X164862026Y-49000087D01*
X164898214Y-49216295D01*
X165005180Y-49409135D01*
X165180529Y-49576360D01*
X165421862Y-49715720D01*
X165726784Y-49824969D01*
X165747433Y-49830621D01*
X165896949Y-49866581D01*
X166021174Y-49882103D01*
X166148414Y-49877272D01*
X166306975Y-49852172D01*
X166404304Y-49832578D01*
X166544626Y-49800702D01*
X166734197Y-49754015D01*
X166949025Y-49698588D01*
X167165115Y-49640492D01*
X167182556Y-49635685D01*
X167694241Y-49494353D01*
X167478310Y-49422376D01*
X167251218Y-49308787D01*
X167070319Y-49136918D01*
X166937815Y-48910665D01*
X166855910Y-48633920D01*
X166826807Y-48310580D01*
X166826939Y-48271021D01*
X166845952Y-48033497D01*
X166901124Y-47814818D01*
X166998908Y-47602902D01*
X167145758Y-47385666D01*
X167348126Y-47151025D01*
X167516902Y-46979126D01*
X167630129Y-46863353D01*
X167712711Y-46769540D01*
X167755968Y-46708240D01*
X167755045Y-46689573D01*
X167705098Y-46699327D01*
X167591779Y-46727417D01*
X167424933Y-46771210D01*
X167214406Y-46828074D01*
X166970046Y-46895376D01*
X166701698Y-46970484D01*
X166655111Y-46983639D01*
X165611165Y-47278793D01*
X165450863Y-47527380D01*
X165265573Y-47838134D01*
X165109125Y-48147729D01*
X164986667Y-48443286D01*
X164903351Y-48711922D01*
X164864326Y-48940759D01*
X164862026Y-49000087D01*
X164558981Y-49000087D01*
X164557750Y-48923894D01*
X164564972Y-48733991D01*
X164584416Y-48538920D01*
X164612166Y-48375921D01*
X164617788Y-48352679D01*
X164695975Y-48122095D01*
X164814952Y-47861834D01*
X164962089Y-47596508D01*
X165124758Y-47350726D01*
X165148080Y-47319241D01*
X165234605Y-47199468D01*
X165302620Y-47096562D01*
X165338636Y-47031043D01*
X165339991Y-47027234D01*
X165344310Y-47007954D01*
X165344294Y-46983083D01*
X165337797Y-46947517D01*
X165322675Y-46896156D01*
X165296783Y-46823896D01*
X165291728Y-46811097D01*
X166082278Y-46811097D01*
X166096430Y-46841701D01*
X166109177Y-46842937D01*
X166152650Y-46832384D01*
X166257780Y-46802926D01*
X166413360Y-46757823D01*
X166608182Y-46700334D01*
X166831037Y-46633719D01*
X166899357Y-46613145D01*
X167158334Y-46535961D01*
X167420994Y-46459337D01*
X167668268Y-46388718D01*
X167881092Y-46329548D01*
X168040398Y-46287272D01*
X168041786Y-46286920D01*
X168221944Y-46235925D01*
X168391560Y-46178586D01*
X168525577Y-46123781D01*
X168574919Y-46098005D01*
X168674401Y-46029760D01*
X168790517Y-45938413D01*
X168909848Y-45836215D01*
X169018979Y-45735419D01*
X169104494Y-45648276D01*
X169152976Y-45587040D01*
X169157520Y-45565965D01*
X169116096Y-45570370D01*
X169012809Y-45595588D01*
X168858141Y-45638641D01*
X168662581Y-45696549D01*
X168436611Y-45766333D01*
X168302272Y-45808984D01*
X168033992Y-45894500D01*
X167762584Y-45980178D01*
X167505783Y-46060478D01*
X167281327Y-46129862D01*
X167106953Y-46182791D01*
X167071775Y-46193243D01*
X166823950Y-46273596D01*
X166627906Y-46356836D01*
X166459886Y-46455579D01*
X166296134Y-46582443D01*
X166231114Y-46639719D01*
X166127974Y-46742434D01*
X166082278Y-46811097D01*
X165291728Y-46811097D01*
X165257975Y-46725635D01*
X165204107Y-46596272D01*
X165133033Y-46430703D01*
X165042608Y-46223827D01*
X164930687Y-45970541D01*
X164795126Y-45665744D01*
X164633779Y-45304331D01*
X164444500Y-44881203D01*
X164333966Y-44634289D01*
X164260265Y-44476347D01*
X164194616Y-44347841D01*
X164144495Y-44262645D01*
X164118432Y-44234439D01*
X164092859Y-44269058D01*
X164050178Y-44365012D01*
X163994354Y-44510447D01*
X163929351Y-44693509D01*
X163859130Y-44902343D01*
X163787655Y-45125095D01*
X163718889Y-45349911D01*
X163656796Y-45564936D01*
X163605339Y-45758316D01*
X163595138Y-45799670D01*
X163445398Y-46503836D01*
X163350045Y-47162055D01*
X163309697Y-47782319D01*
X163005461Y-47782319D01*
X162999719Y-47689441D01*
X162994517Y-47490361D01*
X162973386Y-47213456D01*
X162914725Y-46994208D01*
X162820722Y-46838596D01*
X162726630Y-46764275D01*
X162572070Y-46676342D01*
X162370295Y-46580298D01*
X162134563Y-46481645D01*
X161878128Y-46385887D01*
X161614245Y-46298525D01*
X161356169Y-46225061D01*
X161321534Y-46216268D01*
X160975703Y-46137250D01*
X160666765Y-46084881D01*
X160361930Y-46055069D01*
X160028410Y-46043718D01*
X159936117Y-46043285D01*
X159535539Y-46056951D01*
X159176485Y-46101099D01*
X158828806Y-46180451D01*
X158593106Y-46253662D01*
X158451428Y-46307266D01*
X158269570Y-46384194D01*
X158063244Y-46476918D01*
X157848156Y-46577910D01*
X157640017Y-46679641D01*
X157454535Y-46774583D01*
X157307418Y-46855208D01*
X157214376Y-46913987D01*
X157212833Y-46915146D01*
X157122712Y-46983293D01*
X157207981Y-47170185D01*
X157273555Y-47373315D01*
X157310508Y-47623715D01*
X157312356Y-47649445D01*
X157307970Y-47900072D01*
X157253117Y-48106957D01*
X157139944Y-48289484D01*
X156992091Y-48439901D01*
X156797881Y-48579278D01*
X156585128Y-48665213D01*
X156336567Y-48702977D01*
X156129084Y-48703449D01*
X155817798Y-48689911D01*
X155676677Y-48956478D01*
X155499521Y-49338776D01*
X155339935Y-49778071D01*
X155203480Y-50256149D01*
X155095717Y-50754798D01*
X155057616Y-50984038D01*
X155023621Y-51220551D01*
X155004455Y-51397424D01*
X155002086Y-51530087D01*
X153871476Y-51530087D01*
X153702599Y-51333832D01*
X153449923Y-51100909D01*
X153194139Y-50922661D01*
X153092693Y-50869121D01*
X152900490Y-50784485D01*
X152716813Y-50720229D01*
X152526653Y-50673911D01*
X152314999Y-50643094D01*
X152066840Y-50625337D01*
X151767167Y-50618200D01*
X151547951Y-50618044D01*
X151216344Y-50623267D01*
X150943791Y-50637310D01*
X150713377Y-50663544D01*
X150508191Y-50705342D01*
X150311317Y-50766076D01*
X150105844Y-50849117D01*
X149896208Y-50947366D01*
X149518927Y-51173346D01*
X149188645Y-51457298D01*
X148909787Y-51794041D01*
X148686782Y-52178395D01*
X148549278Y-52523678D01*
X148443708Y-52951836D01*
X148391824Y-53408700D01*
X147857877Y-53408700D01*
X147720534Y-53313892D01*
X147476086Y-53208914D01*
X147195371Y-53135227D01*
X146896920Y-53098187D01*
X146703847Y-53096236D01*
X146411801Y-53107303D01*
X146400264Y-53245370D01*
X146415109Y-53383694D01*
X146486454Y-53470975D01*
X146613514Y-53506360D01*
X146641132Y-53507153D01*
X146861238Y-53526032D01*
X147077986Y-53577872D01*
X147273543Y-53655474D01*
X147430072Y-53751639D01*
X147529738Y-53859169D01*
X147534556Y-53867740D01*
X147579942Y-54023893D01*
X147569342Y-54192428D01*
X147516303Y-54320313D01*
X147406552Y-54429206D01*
X147238338Y-54522853D01*
X147028941Y-54593999D01*
X146795639Y-54635392D01*
X146757831Y-54638724D01*
X146592635Y-54656069D01*
X146482000Y-54682005D01*
X146404364Y-54722689D01*
X146373317Y-54748493D01*
X146299968Y-54850718D01*
X146276253Y-54960740D01*
X146120825Y-54960740D01*
X146125950Y-54881249D01*
X146126193Y-54842721D01*
X146120225Y-54702683D01*
X146094466Y-54625254D01*
X146037133Y-54597302D01*
X145936443Y-54605698D01*
X145916748Y-54609304D01*
X145850306Y-54627299D01*
X145814654Y-54662814D01*
X145798080Y-54736901D01*
X145790822Y-54835657D01*
X145787748Y-54960834D01*
X145452884Y-54960834D01*
X145459233Y-54889841D01*
X145471847Y-54740176D01*
X145484432Y-54627782D01*
X145506907Y-54547365D01*
X145549191Y-54493632D01*
X145621205Y-54461288D01*
X145732869Y-54445040D01*
X145894103Y-54439594D01*
X146114827Y-54439657D01*
X146301917Y-54440144D01*
X146585608Y-54438951D01*
X146804464Y-54433932D01*
X146969793Y-54422914D01*
X147092903Y-54403728D01*
X147185103Y-54374201D01*
X147257700Y-54332163D01*
X147322005Y-54275441D01*
X147357732Y-54237423D01*
X147414697Y-54137929D01*
X147397228Y-54048892D01*
X147306431Y-53971048D01*
X147143412Y-53905137D01*
X146909276Y-53851894D01*
X146742820Y-53827295D01*
X146538819Y-53804913D01*
X146328827Y-53787195D01*
X146144991Y-53776645D01*
X146069072Y-53774816D01*
X145825517Y-53749912D01*
X145640676Y-53677290D01*
X145513704Y-53555836D01*
X145473868Y-53458225D01*
X145804883Y-53458225D01*
X145814553Y-53487467D01*
X145863442Y-53499152D01*
X145959809Y-53501631D01*
X146009509Y-53499388D01*
X146115740Y-53488695D01*
X146170564Y-53460837D01*
X146198621Y-53394541D01*
X146213716Y-53323116D01*
X146229315Y-53209502D01*
X146229535Y-53122394D01*
X146225455Y-53104150D01*
X146176349Y-53068340D01*
X146084353Y-53051627D01*
X145980450Y-53054565D01*
X145895619Y-53077709D01*
X145869432Y-53097782D01*
X145841466Y-53162903D01*
X145818576Y-53264635D01*
X145804977Y-53373052D01*
X145804883Y-53458225D01*
X145473868Y-53458225D01*
X145443753Y-53384435D01*
X145429976Y-53161974D01*
X145454829Y-52967084D01*
X145473585Y-52887656D01*
X145505231Y-52842512D01*
X145570219Y-52817368D01*
X145689000Y-52797942D01*
X145699023Y-52796544D01*
X145803304Y-52787339D01*
X145968494Y-52779177D01*
X146179344Y-52772516D01*
X146420602Y-52767815D01*
X146677019Y-52765532D01*
X146735489Y-52765398D01*
X147554229Y-52764574D01*
X147820796Y-52896148D01*
X147949931Y-52960021D01*
X148051374Y-53010447D01*
X148106773Y-53038295D01*
X148110884Y-53040445D01*
X148128844Y-53011589D01*
X148158062Y-52923623D01*
X148193807Y-52791900D01*
X148216746Y-52696835D01*
X148344024Y-52281116D01*
X148526561Y-51880022D01*
X148755295Y-51508188D01*
X149021163Y-51180247D01*
X149315103Y-50910833D01*
X149329711Y-50899664D01*
X149474448Y-50800924D01*
X149657349Y-50691887D01*
X149858076Y-50583099D01*
X150056288Y-50485109D01*
X150231646Y-50408463D01*
X150362700Y-50363983D01*
X150438202Y-50337809D01*
X150467263Y-50313744D01*
X150451235Y-50268821D01*
X150410135Y-50179050D01*
X150372061Y-50101973D01*
X150299987Y-49912355D01*
X150277075Y-49707176D01*
X150277024Y-49695707D01*
X150454901Y-49695707D01*
X150465616Y-49827544D01*
X150512088Y-49945436D01*
X150536064Y-49976659D01*
X150595147Y-50057065D01*
X150619747Y-50125364D01*
X150619747Y-50125402D01*
X150650980Y-50187290D01*
X150733716Y-50269285D01*
X150851506Y-50357089D01*
X150962475Y-50423271D01*
X151093969Y-50477731D01*
X151235632Y-50512486D01*
X151367427Y-50525623D01*
X151469314Y-50515225D01*
X151521255Y-50479379D01*
X151522223Y-50476758D01*
X151501546Y-50433658D01*
X151435314Y-50389997D01*
X151363630Y-50340581D01*
X151353590Y-50274605D01*
X151356572Y-50261654D01*
X151357169Y-50174606D01*
X151337291Y-50129766D01*
X151297740Y-50107138D01*
X151239742Y-50131794D01*
X151182225Y-50176576D01*
X151089695Y-50237238D01*
X151000574Y-50247957D01*
X150894451Y-50206885D01*
X150791848Y-50141283D01*
X150713318Y-50087044D01*
X150666803Y-50055922D01*
X150663535Y-50053968D01*
X150666858Y-50021643D01*
X150674297Y-50007864D01*
X150718859Y-50003380D01*
X150809728Y-50042427D01*
X150875971Y-50081493D01*
X151007498Y-50158412D01*
X151091233Y-50188066D01*
X151138245Y-50171521D01*
X151159604Y-50109842D01*
X151159752Y-50108816D01*
X151202645Y-50031875D01*
X151299138Y-50005608D01*
X151403739Y-50020179D01*
X151462004Y-50042808D01*
X151482498Y-50086796D01*
X151474858Y-50176803D01*
X151472022Y-50194915D01*
X151460814Y-50292004D01*
X151474072Y-50335569D01*
X151519390Y-50346356D01*
X151527483Y-50346433D01*
X151607903Y-50377255D01*
X151647933Y-50422595D01*
X151698855Y-50483071D01*
X151735798Y-50498757D01*
X151804124Y-50472482D01*
X151893774Y-50407450D01*
X151982259Y-50324349D01*
X152000921Y-50301181D01*
X152782300Y-50301181D01*
X152798800Y-50328443D01*
X152880312Y-50369384D01*
X153017822Y-50419770D01*
X153071053Y-50436845D01*
X153351342Y-50547942D01*
X153625135Y-50699841D01*
X153877455Y-50880993D01*
X154093323Y-51079847D01*
X154257759Y-51284853D01*
X154324201Y-51403180D01*
X154370468Y-51473013D01*
X154430726Y-51482226D01*
X154506508Y-51449441D01*
X154542314Y-51421239D01*
X154564351Y-51372585D01*
X154575812Y-51287155D01*
X154579888Y-51148625D01*
X154580166Y-51072800D01*
X154598911Y-50758125D01*
X154658955Y-50434602D01*
X154675369Y-50369166D01*
X154715581Y-50213142D01*
X154747392Y-50087326D01*
X154766688Y-50008123D01*
X154770571Y-49989412D01*
X154738007Y-49996628D01*
X154650865Y-50027194D01*
X154524967Y-50075408D01*
X154458320Y-50101973D01*
X154082980Y-50227283D01*
X153723363Y-50290516D01*
X153356718Y-50295322D01*
X153286067Y-50290077D01*
X153090308Y-50274102D01*
X152956369Y-50266529D01*
X152870339Y-50267665D01*
X152818309Y-50277815D01*
X152786368Y-50297287D01*
X152782300Y-50301181D01*
X152000921Y-50301181D01*
X152047089Y-50243865D01*
X152066823Y-50194259D01*
X152032960Y-50092615D01*
X151940474Y-49977514D01*
X151803016Y-49859515D01*
X151634238Y-49749176D01*
X151447793Y-49657056D01*
X151307812Y-49607215D01*
X151177448Y-49579109D01*
X151019739Y-49559621D01*
X150853768Y-49549212D01*
X150698614Y-49548341D01*
X150573358Y-49557469D01*
X150497081Y-49577053D01*
X150484868Y-49587394D01*
X150454901Y-49695707D01*
X150277024Y-49695707D01*
X150277018Y-49694432D01*
X150274443Y-49569015D01*
X150256759Y-49491153D01*
X150209026Y-49432240D01*
X150116305Y-49363669D01*
X150097529Y-49350738D01*
X149905430Y-49199561D01*
X149698267Y-49005024D01*
X149498443Y-48790079D01*
X149328358Y-48577676D01*
X149290755Y-48524205D01*
X149200828Y-48382568D01*
X149109524Y-48223380D01*
X149025705Y-48064051D01*
X148958235Y-47921989D01*
X148915975Y-47814603D01*
X148906134Y-47768695D01*
X148886218Y-47710439D01*
X148826908Y-47716909D01*
X148728681Y-47787942D01*
X148658548Y-47854163D01*
X148449033Y-48026401D01*
X148208418Y-48151203D01*
X147928714Y-48230588D01*
X147601933Y-48266572D01*
X147220088Y-48261173D01*
X147086463Y-48251166D01*
X146740447Y-48215993D01*
X146398073Y-48172019D01*
X146070432Y-48121365D01*
X145768612Y-48066151D01*
X145503700Y-48008497D01*
X145286787Y-47950524D01*
X145128960Y-47894351D01*
X145073501Y-47866301D01*
X144948464Y-47749995D01*
X144863500Y-47589046D01*
X144832795Y-47410437D01*
X144832812Y-47408444D01*
X144840875Y-47317642D01*
X145155882Y-47317642D01*
X145164391Y-47401298D01*
X145213815Y-47457554D01*
X145312816Y-47496666D01*
X145470055Y-47528890D01*
X145678742Y-47562071D01*
X145708640Y-47557219D01*
X145708679Y-47557003D01*
X145715452Y-47517998D01*
X145732706Y-47419863D01*
X145735116Y-47406203D01*
X145914879Y-47406203D01*
X145918316Y-47506552D01*
X145930177Y-47538062D01*
X146009180Y-47578118D01*
X146149983Y-47611197D01*
X146338507Y-47636901D01*
X146560674Y-47654831D01*
X146802408Y-47664587D01*
X147049628Y-47665771D01*
X147288259Y-47657985D01*
X147504221Y-47640828D01*
X147683437Y-47613903D01*
X147775477Y-47590351D01*
X148108152Y-47450112D01*
X148380648Y-47264181D01*
X148595955Y-47029412D01*
X148757066Y-46742658D01*
X148853455Y-46456385D01*
X148867185Y-46353233D01*
X149150854Y-46353233D01*
X149157748Y-46683894D01*
X149183533Y-46993882D01*
X149228214Y-47259715D01*
X149243007Y-47318997D01*
X149349308Y-47637561D01*
X149496387Y-47975948D01*
X149669330Y-48302034D01*
X149785931Y-48488300D01*
X149914547Y-48660461D01*
X150069335Y-48838286D01*
X150239058Y-49011772D01*
X150412482Y-49170915D01*
X150578371Y-49305711D01*
X150725489Y-49406156D01*
X150842601Y-49462247D01*
X150889117Y-49470571D01*
X150950012Y-49436512D01*
X150979013Y-49385256D01*
X151170043Y-49385256D01*
X151183264Y-49443022D01*
X151262166Y-49470874D01*
X151278891Y-49471570D01*
X151365166Y-49488252D01*
X151478901Y-49528687D01*
X151514649Y-49544649D01*
X151629718Y-49596779D01*
X151692366Y-49612755D01*
X151718506Y-49590053D01*
X151724054Y-49526146D01*
X151724094Y-49511416D01*
X151691094Y-49392586D01*
X151605572Y-49304432D01*
X151487753Y-49255068D01*
X151357857Y-49252604D01*
X151236109Y-49305155D01*
X151227202Y-49312080D01*
X151170043Y-49385256D01*
X150979013Y-49385256D01*
X150993999Y-49358771D01*
X151072998Y-49238306D01*
X151200596Y-49161829D01*
X151359892Y-49134464D01*
X151533982Y-49161337D01*
X151584250Y-49179768D01*
X151728746Y-49279487D01*
X151824017Y-49437286D01*
X151861239Y-49581336D01*
X151888546Y-49696700D01*
X151924944Y-49787233D01*
X151933243Y-49800294D01*
X152015875Y-49858150D01*
X152160422Y-49902062D01*
X152353873Y-49931764D01*
X152583221Y-49946988D01*
X152835455Y-49947468D01*
X153097567Y-49932936D01*
X153356546Y-49903125D01*
X153599384Y-49857768D01*
X153685264Y-49836255D01*
X154153101Y-49684312D01*
X154582691Y-49494789D01*
X154963670Y-49273270D01*
X155285674Y-49025341D01*
X155406404Y-48908906D01*
X155536344Y-48764527D01*
X155610411Y-48653413D01*
X155632490Y-48561609D01*
X155606467Y-48475165D01*
X155549418Y-48395464D01*
X155425887Y-48213644D01*
X155359883Y-48018834D01*
X155341786Y-47803016D01*
X155343550Y-47787186D01*
X155472651Y-47787186D01*
X155506872Y-48008910D01*
X155604703Y-48207959D01*
X155759879Y-48373821D01*
X155966133Y-48495985D01*
X156096571Y-48540090D01*
X156296593Y-48569436D01*
X156482774Y-48541673D01*
X156640144Y-48477212D01*
X156827338Y-48345500D01*
X156986974Y-48160762D01*
X157103005Y-47945259D01*
X157153822Y-47764597D01*
X157150022Y-47562264D01*
X157083212Y-47355524D01*
X156963684Y-47160652D01*
X156801727Y-46993924D01*
X156607633Y-46871617D01*
X156582222Y-46860511D01*
X156387043Y-46817998D01*
X156185624Y-46842581D01*
X155988959Y-46927166D01*
X155808041Y-47064663D01*
X155653863Y-47247979D01*
X155537418Y-47470023D01*
X155508308Y-47553299D01*
X155472651Y-47787186D01*
X155343550Y-47787186D01*
X155374390Y-47510474D01*
X155473462Y-47253093D01*
X155611641Y-47057732D01*
X155814653Y-46877665D01*
X156058591Y-46755837D01*
X156335919Y-46690091D01*
X156466806Y-46666067D01*
X156568796Y-46637299D01*
X156613479Y-46614562D01*
X156632023Y-46555820D01*
X156644816Y-46425007D01*
X156651605Y-46226020D01*
X156652504Y-46012672D01*
X156650401Y-45790267D01*
X156644962Y-45623699D01*
X156633257Y-45492645D01*
X156612357Y-45376780D01*
X156579330Y-45255781D01*
X156531248Y-45109325D01*
X156515737Y-45064040D01*
X156310908Y-44582691D01*
X156194706Y-44390472D01*
X157778967Y-44390472D01*
X157813424Y-44404075D01*
X157904502Y-44406065D01*
X158033767Y-44397747D01*
X158182781Y-44380426D01*
X158333109Y-44355407D01*
X158364334Y-44349040D01*
X158648264Y-44264326D01*
X158963515Y-44126652D01*
X159294955Y-43943411D01*
X159585197Y-43752331D01*
X159704640Y-43661480D01*
X159851080Y-43540705D01*
X160015659Y-43398344D01*
X160189517Y-43242734D01*
X160363794Y-43082215D01*
X160529632Y-42925124D01*
X160678172Y-42779801D01*
X160800553Y-42654583D01*
X160887918Y-42557809D01*
X160931406Y-42497818D01*
X160933340Y-42483446D01*
X160883015Y-42467863D01*
X160784941Y-42458521D01*
X160731025Y-42457328D01*
X160666105Y-42458857D01*
X160610313Y-42468323D01*
X160553391Y-42493036D01*
X160485082Y-42540310D01*
X160395128Y-42617459D01*
X160273272Y-42731794D01*
X160109257Y-42890630D01*
X160070955Y-42927931D01*
X159668524Y-43302757D01*
X159294183Y-43614545D01*
X158941078Y-43867932D01*
X158602360Y-44067555D01*
X158271175Y-44218050D01*
X158055054Y-44292219D01*
X157923420Y-44333622D01*
X157825886Y-44367857D01*
X157780287Y-44388576D01*
X157778967Y-44390472D01*
X156194706Y-44390472D01*
X156042801Y-44139194D01*
X155716971Y-43738805D01*
X155338977Y-43386782D01*
X154914373Y-43088380D01*
X154448715Y-42848856D01*
X154006390Y-42690079D01*
X153849282Y-42654895D01*
X153648911Y-42625435D01*
X153422444Y-42602564D01*
X153187048Y-42587146D01*
X152959893Y-42580044D01*
X152758146Y-42582124D01*
X152598975Y-42594248D01*
X152506045Y-42614566D01*
X152434566Y-42649231D01*
X152428826Y-42677680D01*
X152448923Y-42693763D01*
X152533034Y-42723642D01*
X152586362Y-42729658D01*
X152665816Y-42756803D01*
X152697478Y-42830443D01*
X152685240Y-42941132D01*
X152632991Y-43079421D01*
X152544621Y-43235862D01*
X152424021Y-43401009D01*
X152275082Y-43565414D01*
X152220749Y-43617549D01*
X151941327Y-43834652D01*
X151638677Y-43995024D01*
X151324492Y-44095267D01*
X151010464Y-44131982D01*
X150708286Y-44101772D01*
X150627042Y-44080754D01*
X150481093Y-44017579D01*
X150404326Y-43931184D01*
X150399926Y-43891390D01*
X150550284Y-43891390D01*
X150562625Y-43948832D01*
X150617447Y-43974157D01*
X150729823Y-43984527D01*
X150882721Y-43980391D01*
X151059110Y-43962199D01*
X151239317Y-43930961D01*
X151418388Y-43880687D01*
X151611247Y-43807991D01*
X151732895Y-43750738D01*
X151904457Y-43645578D01*
X152075914Y-43516583D01*
X152235208Y-43375658D01*
X152370283Y-43234705D01*
X152469082Y-43105628D01*
X152519549Y-43000330D01*
X152523561Y-42970138D01*
X152499773Y-42979917D01*
X152437361Y-43034201D01*
X152349375Y-43121546D01*
X152341170Y-43130091D01*
X152036348Y-43403778D01*
X151699389Y-43625833D01*
X151344657Y-43788219D01*
X150999701Y-43880689D01*
X150842286Y-43903502D01*
X150739504Y-43906455D01*
X150672475Y-43889595D01*
X150657823Y-43881505D01*
X150588349Y-43862249D01*
X150550284Y-43891390D01*
X150399926Y-43891390D01*
X150391349Y-43813816D01*
X150402445Y-43757854D01*
X150408063Y-43681663D01*
X150371360Y-43665325D01*
X150295559Y-43707648D01*
X150183883Y-43807443D01*
X150136644Y-43856017D01*
X149819695Y-44244357D01*
X149552867Y-44682301D01*
X149343611Y-45156368D01*
X149243459Y-45472070D01*
X149193715Y-45723837D01*
X149162845Y-46025386D01*
X149150854Y-46353233D01*
X148867185Y-46353233D01*
X148893999Y-46151790D01*
X148860265Y-45853066D01*
X148754139Y-45565776D01*
X148577504Y-45295485D01*
X148395176Y-45102944D01*
X148147668Y-44900367D01*
X147875471Y-44718662D01*
X147592933Y-44564601D01*
X147314402Y-44444957D01*
X147054227Y-44366500D01*
X146826754Y-44336002D01*
X146772097Y-44336909D01*
X146565090Y-44348682D01*
X146538426Y-44501006D01*
X146518958Y-44640749D01*
X146506555Y-44786157D01*
X146502136Y-44915413D01*
X146506621Y-45006701D01*
X146515837Y-45036626D01*
X146559828Y-45052633D01*
X146661592Y-45078981D01*
X146804136Y-45111485D01*
X146912047Y-45134224D01*
X147266390Y-45226218D01*
X147552993Y-45344782D01*
X147776453Y-45492652D01*
X147941365Y-45672565D01*
X148009339Y-45787295D01*
X148089425Y-46018816D01*
X148097739Y-46237707D01*
X148038460Y-46437018D01*
X147915764Y-46609802D01*
X147733832Y-46749108D01*
X147496840Y-46847988D01*
X147351517Y-46881421D01*
X147213477Y-46900737D01*
X147083081Y-46905715D01*
X146934697Y-46895622D01*
X146742694Y-46869722D01*
X146697408Y-46862676D01*
X146455177Y-46824269D01*
X146277911Y-46796702D01*
X146155221Y-46779754D01*
X146076717Y-46773204D01*
X146032012Y-46776829D01*
X146010715Y-46790410D01*
X146002438Y-46813725D01*
X145996791Y-46846552D01*
X145996539Y-46847748D01*
X145955270Y-47063492D01*
X145927623Y-47254080D01*
X145914879Y-47406203D01*
X145735116Y-47406203D01*
X145757649Y-47278463D01*
X145780770Y-47147632D01*
X145811192Y-46952894D01*
X145825554Y-46807230D01*
X145823020Y-46720941D01*
X145816751Y-46704928D01*
X145761256Y-46669553D01*
X145661144Y-46629691D01*
X145608868Y-46613594D01*
X145508267Y-46590591D01*
X145433950Y-46593587D01*
X145376767Y-46632486D01*
X145327570Y-46717194D01*
X145277211Y-46857617D01*
X145226968Y-47027103D01*
X145179628Y-47196329D01*
X145155882Y-47317642D01*
X144840875Y-47317642D01*
X144842254Y-47302117D01*
X144866077Y-47154325D01*
X144900094Y-46983054D01*
X144940116Y-46806288D01*
X144981956Y-46642013D01*
X145021427Y-46508215D01*
X145054341Y-46422879D01*
X145066587Y-46404406D01*
X145105317Y-46385695D01*
X145173316Y-46383995D01*
X145284179Y-46400683D01*
X145451498Y-46437136D01*
X145497858Y-46448094D01*
X145926128Y-46542383D01*
X146324348Y-46614454D01*
X146685699Y-46663772D01*
X147003364Y-46689805D01*
X147270526Y-46692020D01*
X147480366Y-46669883D01*
X147626068Y-46622861D01*
X147638890Y-46615538D01*
X147737123Y-46530715D01*
X147788588Y-46416204D01*
X147798631Y-46256217D01*
X147791156Y-46166017D01*
X147758402Y-46022079D01*
X147688576Y-45916741D01*
X147659988Y-45889300D01*
X147575568Y-45836492D01*
X147428553Y-45768961D01*
X147230175Y-45690688D01*
X146991670Y-45605652D01*
X146724271Y-45517835D01*
X146439211Y-45431218D01*
X146147725Y-45349781D01*
X146107153Y-45339048D01*
X145893300Y-45279477D01*
X145740368Y-45226571D01*
X145634427Y-45172911D01*
X145561551Y-45111074D01*
X145507811Y-45033640D01*
X145497367Y-45014150D01*
X145474244Y-44962535D01*
X145463014Y-44908420D01*
X145465098Y-44837003D01*
X145480135Y-44744441D01*
X145805284Y-44744441D01*
X145809956Y-44837432D01*
X145847741Y-44891844D01*
X145926618Y-44925490D01*
X145979862Y-44939127D01*
X146117426Y-44966632D01*
X146203283Y-44968002D01*
X146257632Y-44942203D01*
X146275102Y-44924011D01*
X146302561Y-44862428D01*
X146334720Y-44748392D01*
X146365271Y-44604814D01*
X146369459Y-44581374D01*
X146394769Y-44415075D01*
X146394161Y-44308089D01*
X146357688Y-44245259D01*
X146275403Y-44211428D01*
X146137359Y-44191441D01*
X146111794Y-44188758D01*
X146019084Y-44178039D01*
X145956608Y-44176699D01*
X145915939Y-44196710D01*
X145888649Y-44250043D01*
X145866309Y-44348668D01*
X145840492Y-44504556D01*
X145825746Y-44595058D01*
X145805284Y-44744441D01*
X145480135Y-44744441D01*
X145481916Y-44733481D01*
X145514887Y-44583053D01*
X145554873Y-44414733D01*
X145612188Y-44177800D01*
X145656612Y-44005218D01*
X145693460Y-43887388D01*
X145728050Y-43814709D01*
X145765699Y-43777579D01*
X145811722Y-43766397D01*
X145871437Y-43771563D01*
X145907886Y-43777244D01*
X146152868Y-43821827D01*
X146438181Y-43883442D01*
X146736466Y-43955413D01*
X147020364Y-44031063D01*
X147262517Y-44103717D01*
X147308998Y-44119154D01*
X147754644Y-44292575D01*
X148167684Y-44501864D01*
X148569845Y-44759219D01*
X148912650Y-45019444D01*
X148999557Y-45070198D01*
X149071017Y-45079815D01*
X149074211Y-45078739D01*
X149115988Y-45035648D01*
X149177301Y-44939707D01*
X149247704Y-44808080D01*
X149280245Y-44740316D01*
X149365912Y-44571886D01*
X149479176Y-44371695D01*
X149602753Y-44169510D01*
X149680378Y-44051184D01*
X149779157Y-43904818D01*
X149859991Y-43783140D01*
X149914496Y-43698902D01*
X149934289Y-43664902D01*
X149901285Y-43664970D01*
X149818025Y-43679862D01*
X149772445Y-43689961D01*
X149624564Y-43708526D01*
X149435904Y-43710507D01*
X149234718Y-43697804D01*
X149049258Y-43672321D01*
X148907775Y-43635958D01*
X148894960Y-43630897D01*
X148803756Y-43572834D01*
X148730759Y-43476456D01*
X148720478Y-43451632D01*
X150457740Y-43451632D01*
X150494115Y-43533574D01*
X150593251Y-43664628D01*
X150692715Y-43766968D01*
X150777115Y-43825934D01*
X150810133Y-43834589D01*
X150872582Y-43822712D01*
X150986309Y-43790999D01*
X151130901Y-43745326D01*
X151193338Y-43724282D01*
X151509603Y-43608520D01*
X151753214Y-43503405D01*
X151923268Y-43409364D01*
X152009702Y-43338006D01*
X152085864Y-43251418D01*
X152009702Y-43271753D01*
X151945432Y-43289865D01*
X151824700Y-43324701D01*
X151664097Y-43371448D01*
X151480212Y-43425291D01*
X151457528Y-43431954D01*
X151208815Y-43501867D01*
X150998754Y-43554606D01*
X150834445Y-43588854D01*
X150722992Y-43603296D01*
X150671496Y-43596617D01*
X150676868Y-43576565D01*
X150725866Y-43553179D01*
X150834373Y-43515925D01*
X150987991Y-43469319D01*
X151172318Y-43417875D01*
X151241540Y-43399530D01*
X151444297Y-43345016D01*
X151632235Y-43291722D01*
X151787223Y-43244978D01*
X151891132Y-43210117D01*
X151907362Y-43203734D01*
X152010781Y-43171222D01*
X152058503Y-43182241D01*
X152059881Y-43185427D01*
X152090383Y-43221779D01*
X152145806Y-43201871D01*
X152232995Y-43124898D01*
X152297286Y-43027835D01*
X152331763Y-42910320D01*
X152333421Y-42798276D01*
X152299256Y-42717622D01*
X152281828Y-42703573D01*
X152224516Y-42647372D01*
X152185285Y-42587438D01*
X152136164Y-42522322D01*
X152097848Y-42501755D01*
X152048620Y-42521199D01*
X151952857Y-42573210D01*
X151827528Y-42648311D01*
X151765979Y-42687131D01*
X151465075Y-42867781D01*
X151152061Y-43034323D01*
X150854524Y-43172547D01*
X150714363Y-43228783D01*
X150558972Y-43299462D01*
X150474970Y-43371615D01*
X150457740Y-43451632D01*
X148720478Y-43451632D01*
X148670255Y-43330364D01*
X148616527Y-43123156D01*
X148599863Y-43042237D01*
X148572785Y-42814550D01*
X148569984Y-42618499D01*
X149025378Y-42618499D01*
X149044434Y-42770150D01*
X149067413Y-42889499D01*
X149111637Y-43080454D01*
X149159352Y-43208344D01*
X149223719Y-43285653D01*
X149317900Y-43324860D01*
X149455054Y-43338449D01*
X149541947Y-43339536D01*
X149730851Y-43330717D01*
X149943863Y-43307728D01*
X150114404Y-43279398D01*
X150457330Y-43188850D01*
X150810887Y-43059772D01*
X151163667Y-42899166D01*
X151504265Y-42714035D01*
X151821273Y-42511380D01*
X152103285Y-42298202D01*
X152338894Y-42081504D01*
X152516694Y-41868286D01*
X152579899Y-41766010D01*
X152654849Y-41626836D01*
X152537172Y-41388359D01*
X152372259Y-41115703D01*
X152171061Y-40883828D01*
X151944794Y-40702296D01*
X151704671Y-40580665D01*
X151538324Y-40536910D01*
X151375925Y-40510941D01*
X151401458Y-40647043D01*
X151413409Y-40731792D01*
X151396185Y-40778009D01*
X151332829Y-40807645D01*
X151261996Y-40827574D01*
X151125915Y-40868287D01*
X150968165Y-40921093D01*
X150896455Y-40947036D01*
X150777822Y-40997331D01*
X150716653Y-41042882D01*
X150696480Y-41097258D01*
X150695909Y-41112289D01*
X150710646Y-41192038D01*
X150734714Y-41226491D01*
X150770565Y-41270278D01*
X150825858Y-41358757D01*
X150887315Y-41467844D01*
X150941656Y-41573458D01*
X150975602Y-41651514D01*
X150980780Y-41672753D01*
X150951688Y-41702628D01*
X150875800Y-41760395D01*
X150771136Y-41833961D01*
X150655720Y-41911228D01*
X150547575Y-41980104D01*
X150464722Y-42028492D01*
X150426812Y-42044527D01*
X150397271Y-42015369D01*
X150335721Y-41936866D01*
X150252717Y-41822832D01*
X150201525Y-41749656D01*
X150112345Y-41620554D01*
X150040917Y-41517327D01*
X149997244Y-41454424D01*
X149988684Y-41442257D01*
X149953938Y-41452855D01*
X149880884Y-41503017D01*
X149785563Y-41578947D01*
X149684016Y-41666852D01*
X149592282Y-41752939D01*
X149526404Y-41823413D01*
X149502895Y-41860001D01*
X149477318Y-41908848D01*
X149421017Y-41920201D01*
X149350257Y-41910155D01*
X149253254Y-41901297D01*
X149193115Y-41930885D01*
X149153809Y-41982044D01*
X149114143Y-42070337D01*
X149074419Y-42203198D01*
X149047189Y-42330903D01*
X149026712Y-42483560D01*
X149025378Y-42618499D01*
X148569984Y-42618499D01*
X148569006Y-42550068D01*
X148586770Y-42277207D01*
X148624326Y-42024382D01*
X148674342Y-41835339D01*
X148719042Y-41740333D01*
X149311033Y-41740333D01*
X149366161Y-41775126D01*
X149406123Y-41778217D01*
X149508842Y-41745170D01*
X149598908Y-41642576D01*
X149620192Y-41605469D01*
X149673575Y-41540602D01*
X149765930Y-41457327D01*
X149831543Y-41406914D01*
X150002234Y-41284333D01*
X150131020Y-41445593D01*
X150230267Y-41571985D01*
X150330491Y-41702825D01*
X150365552Y-41749656D01*
X150441459Y-41845347D01*
X150497115Y-41883621D01*
X150554964Y-41870132D01*
X150630138Y-41816298D01*
X150716304Y-41762522D01*
X150787565Y-41740136D01*
X150787597Y-41740136D01*
X150840602Y-41730341D01*
X150848232Y-41721148D01*
X150833555Y-41680569D01*
X150793988Y-41586368D01*
X150736227Y-41454221D01*
X150690773Y-41352464D01*
X150533313Y-41002768D01*
X150616172Y-40935673D01*
X150714202Y-40875767D01*
X150853876Y-40812655D01*
X151006053Y-40757290D01*
X151141591Y-40720625D01*
X151211430Y-40711950D01*
X151285148Y-40693725D01*
X151305204Y-40634593D01*
X151288767Y-40570198D01*
X151233050Y-40536804D01*
X151128439Y-40532965D01*
X150965322Y-40557234D01*
X150891467Y-40572351D01*
X150540796Y-40678931D01*
X150196603Y-40841994D01*
X149876256Y-41050317D01*
X149597121Y-41292678D01*
X149384608Y-41546135D01*
X149317261Y-41664846D01*
X149311033Y-41740333D01*
X148719042Y-41740333D01*
X148831549Y-41501206D01*
X149054576Y-41192187D01*
X149335615Y-40913910D01*
X149666860Y-40672003D01*
X150040504Y-40472093D01*
X150448740Y-40319807D01*
X150883760Y-40220773D01*
X150922363Y-40214897D01*
X151297649Y-40196479D01*
X151657977Y-40251383D01*
X151999243Y-40377548D01*
X152317345Y-40572913D01*
X152608177Y-40835415D01*
X152867637Y-41162993D01*
X152896538Y-41206685D01*
X153005553Y-41401086D01*
X153055031Y-41566787D01*
X153046152Y-41721070D01*
X152980096Y-41881218D01*
X152946408Y-41937577D01*
X152876890Y-42040195D01*
X152818077Y-42114978D01*
X152794085Y-42137685D01*
X152758495Y-42168521D01*
X152767986Y-42192610D01*
X152828913Y-42211174D01*
X152947633Y-42225436D01*
X153130504Y-42236619D01*
X153352056Y-42244961D01*
X153812764Y-42276329D01*
X154219718Y-42342665D01*
X154589133Y-42448849D01*
X154937224Y-42599763D01*
X155280203Y-42800288D01*
X155348424Y-42845964D01*
X155458813Y-42920411D01*
X155541209Y-42974276D01*
X155578840Y-42996612D01*
X155579361Y-42996711D01*
X155582653Y-42960562D01*
X155585854Y-42860027D01*
X155588744Y-42706885D01*
X155589984Y-42604864D01*
X156035953Y-42604864D01*
X156059125Y-42915277D01*
X156111251Y-43180083D01*
X156195814Y-43412941D01*
X156316301Y-43627508D01*
X156434249Y-43787005D01*
X156663711Y-44016687D01*
X156921279Y-44175948D01*
X157204658Y-44264198D01*
X157511553Y-44280847D01*
X157839669Y-44225308D01*
X157975707Y-44182970D01*
X158398720Y-44005165D01*
X158827886Y-43764785D01*
X159267417Y-43458989D01*
X159721524Y-43084938D01*
X160039863Y-42791038D01*
X160189751Y-42640432D01*
X160282289Y-42531152D01*
X160321002Y-42458753D01*
X160321479Y-42435716D01*
X160296045Y-42385626D01*
X160252038Y-42311351D01*
X160630307Y-42311351D01*
X160786514Y-42311351D01*
X160927706Y-42292622D01*
X161068428Y-42246744D01*
X161084885Y-42238824D01*
X161178127Y-42177356D01*
X161300239Y-42078123D01*
X161428827Y-41959686D01*
X161463879Y-41924656D01*
X161700709Y-41683015D01*
X161533078Y-41671548D01*
X161315134Y-41690988D01*
X161109664Y-41781333D01*
X160913613Y-41944409D01*
X160756436Y-42135492D01*
X160630307Y-42311351D01*
X160252038Y-42311351D01*
X160234657Y-42282015D01*
X160143503Y-42134805D01*
X160028771Y-41953914D01*
X159896652Y-41749262D01*
X159820126Y-41632163D01*
X159660302Y-41387490D01*
X159536848Y-41201510D01*
X159442034Y-41070818D01*
X159368130Y-40992011D01*
X159307407Y-40961684D01*
X159252135Y-40976434D01*
X159194585Y-41032857D01*
X159127027Y-41127548D01*
X159041733Y-41257104D01*
X159025113Y-41282053D01*
X158732662Y-41696815D01*
X158456912Y-42042749D01*
X158198640Y-42319420D01*
X157958628Y-42526388D01*
X157737656Y-42663219D01*
X157536504Y-42729474D01*
X157355953Y-42724717D01*
X157196783Y-42648511D01*
X157059773Y-42500418D01*
X157006765Y-42412474D01*
X156968279Y-42330605D01*
X156943631Y-42245332D01*
X156930064Y-42137266D01*
X156924819Y-41987018D01*
X156924687Y-41835339D01*
X156929370Y-41625789D01*
X157067772Y-41625789D01*
X157071333Y-41839759D01*
X157105687Y-42073025D01*
X157156747Y-42273414D01*
X157219881Y-42426774D01*
X157290460Y-42518952D01*
X157294488Y-42521981D01*
X157405686Y-42562623D01*
X157551755Y-42564794D01*
X157703268Y-42530839D01*
X157805621Y-42481228D01*
X157873057Y-42432814D01*
X157881273Y-42403341D01*
X157835989Y-42371958D01*
X157835646Y-42371766D01*
X157762400Y-42319787D01*
X157668329Y-42239675D01*
X157637078Y-42210436D01*
X157565839Y-42134195D01*
X157528463Y-42062221D01*
X157514267Y-41964869D01*
X157512400Y-41864476D01*
X157536547Y-41637409D01*
X157609611Y-41366430D01*
X157732526Y-41049325D01*
X157906228Y-40683881D01*
X158131652Y-40267884D01*
X158327639Y-39933943D01*
X158421939Y-39777067D01*
X158500075Y-39646104D01*
X158554647Y-39553529D01*
X158578254Y-39511818D01*
X158578667Y-39510731D01*
X158545760Y-39508314D01*
X158461599Y-39522141D01*
X158348029Y-39547065D01*
X158226893Y-39577937D01*
X158120033Y-39609612D01*
X158054963Y-39634149D01*
X157958469Y-39710392D01*
X157839027Y-39858995D01*
X157696601Y-40080014D01*
X157531156Y-40373506D01*
X157363041Y-40698664D01*
X157208655Y-41042989D01*
X157111039Y-41348871D01*
X157067772Y-41625789D01*
X156929370Y-41625789D01*
X156929466Y-41621502D01*
X156943678Y-41454174D01*
X156971632Y-41303874D01*
X157017635Y-41141121D01*
X157033204Y-41092760D01*
X157127517Y-40839251D01*
X157252891Y-40551522D01*
X157396086Y-40257303D01*
X157543863Y-39984327D01*
X157633136Y-39836088D01*
X157705850Y-39717589D01*
X157762573Y-39618036D01*
X157788403Y-39565062D01*
X157777046Y-39504398D01*
X157722240Y-39390902D01*
X157697970Y-39350014D01*
X158159777Y-39350014D01*
X158192958Y-39368277D01*
X158281725Y-39363893D01*
X158409907Y-39339750D01*
X158561337Y-39298740D01*
X158689363Y-39255355D01*
X158808186Y-39199176D01*
X158928646Y-39122698D01*
X159039049Y-39036678D01*
X159127703Y-38951873D01*
X159182914Y-38879040D01*
X159192991Y-38828936D01*
X159169537Y-38813601D01*
X159060435Y-38811586D01*
X158908377Y-38831940D01*
X158740999Y-38868445D01*
X158585939Y-38914886D01*
X158470835Y-38965045D01*
X158456490Y-38973989D01*
X158365835Y-39050450D01*
X158274702Y-39150949D01*
X158200833Y-39253003D01*
X158161969Y-39334127D01*
X158159777Y-39350014D01*
X157697970Y-39350014D01*
X157627664Y-39231568D01*
X157550291Y-39112264D01*
X157289809Y-38721048D01*
X157146659Y-38944826D01*
X156993282Y-39207618D01*
X156830874Y-39526454D01*
X156667158Y-39883080D01*
X156509856Y-40259246D01*
X156366691Y-40636696D01*
X156245385Y-40997180D01*
X156173487Y-41245084D01*
X156121399Y-41455143D01*
X156085214Y-41641821D01*
X156061241Y-41832148D01*
X156045788Y-42053152D01*
X156038248Y-42235189D01*
X156035953Y-42604864D01*
X155589984Y-42604864D01*
X155591101Y-42512911D01*
X155592706Y-42289884D01*
X155592741Y-42282693D01*
X155594743Y-42024721D01*
X155599135Y-41825460D01*
X155607716Y-41667465D01*
X155622286Y-41533288D01*
X155644645Y-41405481D01*
X155676593Y-41266597D01*
X155711568Y-41130841D01*
X155817901Y-40764876D01*
X155945729Y-40397870D01*
X156101199Y-40014603D01*
X156290457Y-39599859D01*
X156503652Y-39169671D01*
X156653192Y-38881318D01*
X156803959Y-38598519D01*
X156831053Y-38549031D01*
X157353388Y-38549031D01*
X157454381Y-38687987D01*
X157526205Y-38788251D01*
X157621975Y-38923825D01*
X157722371Y-39067341D01*
X157733812Y-39083798D01*
X157819220Y-39202304D01*
X157889684Y-39291935D01*
X157933305Y-39337824D01*
X157939535Y-39340844D01*
X157973476Y-39312609D01*
X158040061Y-39237253D01*
X158126905Y-39129082D01*
X158158500Y-39087830D01*
X158246872Y-38966002D01*
X158313702Y-38864175D01*
X158347924Y-38799562D01*
X158350181Y-38789704D01*
X158326510Y-38745101D01*
X158261943Y-38656154D01*
X158166153Y-38535471D01*
X158048812Y-38395660D01*
X158040499Y-38386013D01*
X157921853Y-38248532D01*
X157822651Y-38133530D01*
X157752725Y-38052407D01*
X157721906Y-38016563D01*
X157721406Y-38015971D01*
X157697874Y-38040191D01*
X157643098Y-38114521D01*
X157567124Y-38225071D01*
X157532692Y-38276865D01*
X157353388Y-38549031D01*
X156831053Y-38549031D01*
X156950675Y-38330536D01*
X157088062Y-38086630D01*
X157173753Y-37939668D01*
X157894828Y-37939668D01*
X158108631Y-38211941D01*
X158214807Y-38347730D01*
X158312080Y-38473138D01*
X158384187Y-38567166D01*
X158400590Y-38588937D01*
X158449946Y-38647695D01*
X158501724Y-38680066D01*
X158574646Y-38688808D01*
X158687435Y-38676677D01*
X158828720Y-38652001D01*
X158957938Y-38625344D01*
X159059667Y-38599255D01*
X159102765Y-38583574D01*
X159106315Y-38547782D01*
X159061675Y-38468039D01*
X158966594Y-38340874D01*
X158865420Y-38217746D01*
X158748403Y-38081525D01*
X158645737Y-37967125D01*
X158569101Y-37887237D01*
X158531727Y-37855179D01*
X158473245Y-37850536D01*
X158362066Y-37859516D01*
X158220048Y-37880175D01*
X158189146Y-37885669D01*
X157894828Y-37939668D01*
X157173753Y-37939668D01*
X157210842Y-37876060D01*
X157313737Y-37708088D01*
X157391469Y-37591974D01*
X157429706Y-37544861D01*
X157477270Y-37516821D01*
X157566378Y-37491060D01*
X157706132Y-37465868D01*
X157905636Y-37439536D01*
X158111575Y-37416793D01*
X158323034Y-37396157D01*
X158509730Y-37380669D01*
X158657727Y-37371271D01*
X158753092Y-37368904D01*
X158780320Y-37371607D01*
G37*
%TD*%
%LPC*%
D12*
%TO.C,H3*%
X121020001Y-131156830D03*
D13*
X121020001Y-131156830D03*
%TD*%
D12*
%TO.C,H4*%
X177694001Y-46156830D03*
D13*
X177694001Y-46156830D03*
%TD*%
D12*
%TO.C,H2*%
X177694001Y-131156830D03*
D13*
X177694001Y-131156830D03*
%TD*%
D12*
%TO.C,H1*%
X121020001Y-46156830D03*
D13*
X121020001Y-46156830D03*
%TD*%
D12*
%TO.C,TP1*%
X132552858Y-130237542D03*
X140172858Y-130237542D03*
%TD*%
%LPD*%
M02*
