%TF.GenerationSoftware,KiCad,Pcbnew,9.0.1*%
%TF.CreationDate,2025-04-07T03:54:42-07:00*%
%TF.ProjectId,Coil_Panel_Z,436f696c-5f50-4616-9e65-6c5f5a2e6b69,1.1*%
%TF.SameCoordinates,Original*%
%TF.FileFunction,Legend,Bot*%
%TF.FilePolarity,Positive*%
%FSLAX46Y46*%
G04 Gerber Fmt 4.6, Leading zero omitted, Abs format (unit mm)*
G04 Created by KiCad (PCBNEW 9.0.1) date 2025-04-07 03:54:42*
%MOMM*%
%LPD*%
G01*
G04 APERTURE LIST*
%ADD10C,0.150000*%
%ADD11C,0.120000*%
%ADD12C,0.000000*%
%ADD13C,2.600000*%
%ADD14C,3.800000*%
%ADD15R,1.100000X1.450000*%
%ADD16R,1.350000X2.899999*%
G04 APERTURE END LIST*
D10*
X140603446Y-127217599D02*
X140555827Y-127169980D01*
X140555827Y-127169980D02*
X140460589Y-127122361D01*
X140460589Y-127122361D02*
X140222494Y-127122361D01*
X140222494Y-127122361D02*
X140127256Y-127169980D01*
X140127256Y-127169980D02*
X140079637Y-127217599D01*
X140079637Y-127217599D02*
X140032018Y-127312837D01*
X140032018Y-127312837D02*
X140032018Y-127408075D01*
X140032018Y-127408075D02*
X140079637Y-127550932D01*
X140079637Y-127550932D02*
X140651065Y-128122361D01*
X140651065Y-128122361D02*
X140032018Y-128122361D01*
X143520481Y-130001889D02*
X142758576Y-129716175D01*
X142758576Y-129716175D02*
X143520481Y-129430461D01*
X144758576Y-129335222D02*
X144758576Y-130335222D01*
X145091909Y-130001889D02*
X145472861Y-130001889D01*
X145234766Y-129335222D02*
X145234766Y-130192365D01*
X145234766Y-130192365D02*
X145282385Y-130287603D01*
X145282385Y-130287603D02*
X145377623Y-130335222D01*
X145377623Y-130335222D02*
X145472861Y-130335222D01*
X146091909Y-128954270D02*
X146044290Y-129001889D01*
X146044290Y-129001889D02*
X145949052Y-129144746D01*
X145949052Y-129144746D02*
X145901433Y-129239984D01*
X145901433Y-129239984D02*
X145853814Y-129382842D01*
X145853814Y-129382842D02*
X145806195Y-129620937D01*
X145806195Y-129620937D02*
X145806195Y-129811413D01*
X145806195Y-129811413D02*
X145853814Y-130049508D01*
X145853814Y-130049508D02*
X145901433Y-130192365D01*
X145901433Y-130192365D02*
X145949052Y-130287603D01*
X145949052Y-130287603D02*
X146044290Y-130430461D01*
X146044290Y-130430461D02*
X146091909Y-130478080D01*
X146472862Y-129716175D02*
X147234767Y-129716175D01*
X146853814Y-129335222D02*
X146853814Y-130097127D01*
X147615719Y-128954270D02*
X147663338Y-129001889D01*
X147663338Y-129001889D02*
X147758576Y-129144746D01*
X147758576Y-129144746D02*
X147806195Y-129239984D01*
X147806195Y-129239984D02*
X147853814Y-129382842D01*
X147853814Y-129382842D02*
X147901433Y-129620937D01*
X147901433Y-129620937D02*
X147901433Y-129811413D01*
X147901433Y-129811413D02*
X147853814Y-130049508D01*
X147853814Y-130049508D02*
X147806195Y-130192365D01*
X147806195Y-130192365D02*
X147758576Y-130287603D01*
X147758576Y-130287603D02*
X147663338Y-130430461D01*
X147663338Y-130430461D02*
X147615719Y-130478080D01*
X149472862Y-129859032D02*
X149139529Y-129859032D01*
X149139529Y-129335222D02*
X149139529Y-130335222D01*
X149139529Y-130335222D02*
X149615719Y-130335222D01*
X149996672Y-129335222D02*
X149996672Y-130001889D01*
X149996672Y-130335222D02*
X149949053Y-130287603D01*
X149949053Y-130287603D02*
X149996672Y-130239984D01*
X149996672Y-130239984D02*
X150044291Y-130287603D01*
X150044291Y-130287603D02*
X149996672Y-130335222D01*
X149996672Y-130335222D02*
X149996672Y-130239984D01*
X150853814Y-129382842D02*
X150758576Y-129335222D01*
X150758576Y-129335222D02*
X150568100Y-129335222D01*
X150568100Y-129335222D02*
X150472862Y-129382842D01*
X150472862Y-129382842D02*
X150425243Y-129478080D01*
X150425243Y-129478080D02*
X150425243Y-129859032D01*
X150425243Y-129859032D02*
X150472862Y-129954270D01*
X150472862Y-129954270D02*
X150568100Y-130001889D01*
X150568100Y-130001889D02*
X150758576Y-130001889D01*
X150758576Y-130001889D02*
X150853814Y-129954270D01*
X150853814Y-129954270D02*
X150901433Y-129859032D01*
X150901433Y-129859032D02*
X150901433Y-129763794D01*
X150901433Y-129763794D02*
X150425243Y-129668556D01*
X151472862Y-129335222D02*
X151377624Y-129382842D01*
X151377624Y-129382842D02*
X151330005Y-129478080D01*
X151330005Y-129478080D02*
X151330005Y-130335222D01*
X152282386Y-129335222D02*
X152282386Y-130335222D01*
X152282386Y-129382842D02*
X152187148Y-129335222D01*
X152187148Y-129335222D02*
X151996672Y-129335222D01*
X151996672Y-129335222D02*
X151901434Y-129382842D01*
X151901434Y-129382842D02*
X151853815Y-129430461D01*
X151853815Y-129430461D02*
X151806196Y-129525699D01*
X151806196Y-129525699D02*
X151806196Y-129811413D01*
X151806196Y-129811413D02*
X151853815Y-129906651D01*
X151853815Y-129906651D02*
X151901434Y-129954270D01*
X151901434Y-129954270D02*
X151996672Y-130001889D01*
X151996672Y-130001889D02*
X152187148Y-130001889D01*
X152187148Y-130001889D02*
X152282386Y-129954270D01*
X153663339Y-129335222D02*
X153568101Y-129382842D01*
X153568101Y-129382842D02*
X153520482Y-129430461D01*
X153520482Y-129430461D02*
X153472863Y-129525699D01*
X153472863Y-129525699D02*
X153472863Y-129811413D01*
X153472863Y-129811413D02*
X153520482Y-129906651D01*
X153520482Y-129906651D02*
X153568101Y-129954270D01*
X153568101Y-129954270D02*
X153663339Y-130001889D01*
X153663339Y-130001889D02*
X153806196Y-130001889D01*
X153806196Y-130001889D02*
X153901434Y-129954270D01*
X153901434Y-129954270D02*
X153949053Y-129906651D01*
X153949053Y-129906651D02*
X153996672Y-129811413D01*
X153996672Y-129811413D02*
X153996672Y-129525699D01*
X153996672Y-129525699D02*
X153949053Y-129430461D01*
X153949053Y-129430461D02*
X153901434Y-129382842D01*
X153901434Y-129382842D02*
X153806196Y-129335222D01*
X153806196Y-129335222D02*
X153663339Y-129335222D01*
X154853815Y-130001889D02*
X154853815Y-129335222D01*
X154425244Y-130001889D02*
X154425244Y-129478080D01*
X154425244Y-129478080D02*
X154472863Y-129382842D01*
X154472863Y-129382842D02*
X154568101Y-129335222D01*
X154568101Y-129335222D02*
X154710958Y-129335222D01*
X154710958Y-129335222D02*
X154806196Y-129382842D01*
X154806196Y-129382842D02*
X154853815Y-129430461D01*
X155187149Y-130001889D02*
X155568101Y-130001889D01*
X155330006Y-130335222D02*
X155330006Y-129478080D01*
X155330006Y-129478080D02*
X155377625Y-129382842D01*
X155377625Y-129382842D02*
X155472863Y-129335222D01*
X155472863Y-129335222D02*
X155568101Y-129335222D01*
X156806197Y-129335222D02*
X156710959Y-129382842D01*
X156710959Y-129382842D02*
X156663340Y-129430461D01*
X156663340Y-129430461D02*
X156615721Y-129525699D01*
X156615721Y-129525699D02*
X156615721Y-129811413D01*
X156615721Y-129811413D02*
X156663340Y-129906651D01*
X156663340Y-129906651D02*
X156710959Y-129954270D01*
X156710959Y-129954270D02*
X156806197Y-130001889D01*
X156806197Y-130001889D02*
X156949054Y-130001889D01*
X156949054Y-130001889D02*
X157044292Y-129954270D01*
X157044292Y-129954270D02*
X157091911Y-129906651D01*
X157091911Y-129906651D02*
X157139530Y-129811413D01*
X157139530Y-129811413D02*
X157139530Y-129525699D01*
X157139530Y-129525699D02*
X157091911Y-129430461D01*
X157091911Y-129430461D02*
X157044292Y-129382842D01*
X157044292Y-129382842D02*
X156949054Y-129335222D01*
X156949054Y-129335222D02*
X156806197Y-129335222D01*
X157425245Y-130001889D02*
X157806197Y-130001889D01*
X157568102Y-129335222D02*
X157568102Y-130192365D01*
X157568102Y-130192365D02*
X157615721Y-130287603D01*
X157615721Y-130287603D02*
X157710959Y-130335222D01*
X157710959Y-130335222D02*
X157806197Y-130335222D01*
X158758579Y-130335222D02*
X159330007Y-130335222D01*
X159044293Y-129335222D02*
X159044293Y-130335222D01*
X159663341Y-129335222D02*
X159663341Y-130335222D01*
X159663341Y-129859032D02*
X160234769Y-129859032D01*
X160234769Y-129335222D02*
X160234769Y-130335222D01*
X160710960Y-129335222D02*
X160710960Y-130335222D01*
X161139531Y-129382842D02*
X161282388Y-129335222D01*
X161282388Y-129335222D02*
X161520483Y-129335222D01*
X161520483Y-129335222D02*
X161615721Y-129382842D01*
X161615721Y-129382842D02*
X161663340Y-129430461D01*
X161663340Y-129430461D02*
X161710959Y-129525699D01*
X161710959Y-129525699D02*
X161710959Y-129620937D01*
X161710959Y-129620937D02*
X161663340Y-129716175D01*
X161663340Y-129716175D02*
X161615721Y-129763794D01*
X161615721Y-129763794D02*
X161520483Y-129811413D01*
X161520483Y-129811413D02*
X161330007Y-129859032D01*
X161330007Y-129859032D02*
X161234769Y-129906651D01*
X161234769Y-129906651D02*
X161187150Y-129954270D01*
X161187150Y-129954270D02*
X161139531Y-130049508D01*
X161139531Y-130049508D02*
X161139531Y-130144746D01*
X161139531Y-130144746D02*
X161187150Y-130239984D01*
X161187150Y-130239984D02*
X161234769Y-130287603D01*
X161234769Y-130287603D02*
X161330007Y-130335222D01*
X161330007Y-130335222D02*
X161568102Y-130335222D01*
X161568102Y-130335222D02*
X161710959Y-130287603D01*
X162853817Y-129382842D02*
X162996674Y-129335222D01*
X162996674Y-129335222D02*
X163234769Y-129335222D01*
X163234769Y-129335222D02*
X163330007Y-129382842D01*
X163330007Y-129382842D02*
X163377626Y-129430461D01*
X163377626Y-129430461D02*
X163425245Y-129525699D01*
X163425245Y-129525699D02*
X163425245Y-129620937D01*
X163425245Y-129620937D02*
X163377626Y-129716175D01*
X163377626Y-129716175D02*
X163330007Y-129763794D01*
X163330007Y-129763794D02*
X163234769Y-129811413D01*
X163234769Y-129811413D02*
X163044293Y-129859032D01*
X163044293Y-129859032D02*
X162949055Y-129906651D01*
X162949055Y-129906651D02*
X162901436Y-129954270D01*
X162901436Y-129954270D02*
X162853817Y-130049508D01*
X162853817Y-130049508D02*
X162853817Y-130144746D01*
X162853817Y-130144746D02*
X162901436Y-130239984D01*
X162901436Y-130239984D02*
X162949055Y-130287603D01*
X162949055Y-130287603D02*
X163044293Y-130335222D01*
X163044293Y-130335222D02*
X163282388Y-130335222D01*
X163282388Y-130335222D02*
X163425245Y-130287603D01*
X163853817Y-129335222D02*
X163853817Y-130335222D01*
X164330007Y-129335222D02*
X164330007Y-130335222D01*
X164330007Y-130335222D02*
X164568102Y-130335222D01*
X164568102Y-130335222D02*
X164710959Y-130287603D01*
X164710959Y-130287603D02*
X164806197Y-130192365D01*
X164806197Y-130192365D02*
X164853816Y-130097127D01*
X164853816Y-130097127D02*
X164901435Y-129906651D01*
X164901435Y-129906651D02*
X164901435Y-129763794D01*
X164901435Y-129763794D02*
X164853816Y-129573318D01*
X164853816Y-129573318D02*
X164806197Y-129478080D01*
X164806197Y-129478080D02*
X164710959Y-129382842D01*
X164710959Y-129382842D02*
X164568102Y-129335222D01*
X164568102Y-129335222D02*
X164330007Y-129335222D01*
X165330007Y-129859032D02*
X165663340Y-129859032D01*
X165806197Y-129335222D02*
X165330007Y-129335222D01*
X165330007Y-129335222D02*
X165330007Y-130335222D01*
X165330007Y-130335222D02*
X165806197Y-130335222D01*
X132094518Y-128122361D02*
X132665946Y-128122361D01*
X132380232Y-128122361D02*
X132380232Y-127122361D01*
X132380232Y-127122361D02*
X132475470Y-127265218D01*
X132475470Y-127265218D02*
X132570708Y-127360456D01*
X132570708Y-127360456D02*
X132665946Y-127408075D01*
X135110953Y-130782722D02*
X135682381Y-130782722D01*
X135396667Y-129782722D02*
X135396667Y-130782722D01*
X136015715Y-129782722D02*
X136015715Y-130782722D01*
X136015715Y-130782722D02*
X136396667Y-130782722D01*
X136396667Y-130782722D02*
X136491905Y-130735103D01*
X136491905Y-130735103D02*
X136539524Y-130687484D01*
X136539524Y-130687484D02*
X136587143Y-130592246D01*
X136587143Y-130592246D02*
X136587143Y-130449389D01*
X136587143Y-130449389D02*
X136539524Y-130354151D01*
X136539524Y-130354151D02*
X136491905Y-130306532D01*
X136491905Y-130306532D02*
X136396667Y-130258913D01*
X136396667Y-130258913D02*
X136015715Y-130258913D01*
X137539524Y-129782722D02*
X136968096Y-129782722D01*
X137253810Y-129782722D02*
X137253810Y-130782722D01*
X137253810Y-130782722D02*
X137158572Y-130639865D01*
X137158572Y-130639865D02*
X137063334Y-130544627D01*
X137063334Y-130544627D02*
X136968096Y-130497008D01*
X139811193Y-125007362D02*
X139811193Y-125721647D01*
X139811193Y-125721647D02*
X139858812Y-125864504D01*
X139858812Y-125864504D02*
X139954050Y-125959743D01*
X139954050Y-125959743D02*
X140096907Y-126007362D01*
X140096907Y-126007362D02*
X140192145Y-126007362D01*
X138811193Y-126007362D02*
X139382621Y-126007362D01*
X139096907Y-126007362D02*
X139096907Y-125007362D01*
X139096907Y-125007362D02*
X139192145Y-125150219D01*
X139192145Y-125150219D02*
X139287383Y-125245457D01*
X139287383Y-125245457D02*
X139382621Y-125293076D01*
X135182857Y-124812361D02*
X135182857Y-125050456D01*
X135420952Y-124955218D02*
X135182857Y-125050456D01*
X135182857Y-125050456D02*
X134944762Y-124955218D01*
X135325714Y-125240932D02*
X135182857Y-125050456D01*
X135182857Y-125050456D02*
X135040000Y-125240932D01*
D11*
%TO.C,TP1*%
X130952858Y-128637542D02*
X141852858Y-128637542D01*
X130952858Y-131837542D02*
X130952858Y-128637542D01*
X141852858Y-128637542D02*
X141852858Y-131837542D01*
X141852858Y-131837542D02*
X130952858Y-131837542D01*
%TO.C,J1*%
X130019866Y-123292542D02*
X130019866Y-124562542D01*
X130019866Y-124562542D02*
X131543866Y-123927542D01*
X131543866Y-123927542D02*
X130019866Y-123292542D01*
X131797866Y-124352542D02*
X131797866Y-119722582D01*
X133256876Y-116402542D02*
X139088839Y-116402542D01*
X134302818Y-124352542D02*
X131797866Y-124352542D01*
X136302819Y-124352542D02*
X136042898Y-124352542D01*
X140547849Y-119722582D02*
X140547849Y-124352542D01*
X140547849Y-124352542D02*
X138042899Y-124352542D01*
D12*
%TO.C,G\u002A\u002A\u002A*%
G36*
X164757615Y-43018689D02*
G01*
X164871696Y-43082335D01*
X164884191Y-43089716D01*
X164998719Y-43146726D01*
X165162617Y-43217141D01*
X165355870Y-43292717D01*
X165558463Y-43365210D01*
X165613589Y-43384047D01*
X165797635Y-43448308D01*
X165955164Y-43505343D01*
X166070928Y-43549544D01*
X166129678Y-43575300D01*
X166143105Y-43583406D01*
X166169679Y-43607486D01*
X166137629Y-43610395D01*
X166043522Y-43591484D01*
X165883924Y-43550105D01*
X165655402Y-43485607D01*
X165648830Y-43483708D01*
X165360138Y-43396453D01*
X165137047Y-43319881D01*
X164970573Y-43250244D01*
X164851733Y-43183792D01*
X164771543Y-43116777D01*
X164764465Y-43109126D01*
X164702966Y-43032440D01*
X164701027Y-43002175D01*
X164757615Y-43018689D01*
G37*
G36*
X163164955Y-55527363D02*
G01*
X163239944Y-55614217D01*
X163292340Y-55694797D01*
X163305057Y-55762601D01*
X163278452Y-55847809D01*
X163255650Y-55909723D01*
X163253877Y-55967938D01*
X163294122Y-56010835D01*
X163327252Y-56043543D01*
X163357536Y-56124032D01*
X163332591Y-56195109D01*
X163305209Y-56214139D01*
X163247913Y-56214021D01*
X163150347Y-56176313D01*
X163113016Y-56161879D01*
X163021193Y-56153328D01*
X162899249Y-56182995D01*
X162866473Y-56193609D01*
X162778891Y-56214255D01*
X162721917Y-56201924D01*
X162663762Y-56152500D01*
X162617510Y-56102860D01*
X162607679Y-56068814D01*
X162648857Y-56045637D01*
X162654480Y-56043422D01*
X162686735Y-56020340D01*
X162673649Y-55982022D01*
X162609976Y-55910187D01*
X162504639Y-55800239D01*
X162582205Y-55722672D01*
X162622670Y-55686136D01*
X162682504Y-55665738D01*
X162765367Y-55693218D01*
X162787850Y-55703163D01*
X162851356Y-55719451D01*
X162903182Y-55694738D01*
X162971667Y-55618801D01*
X163035342Y-55547456D01*
X163103147Y-55505000D01*
X163164955Y-55527363D01*
G37*
G36*
X156267729Y-50967400D02*
G01*
X156271414Y-51064949D01*
X156267037Y-51206612D01*
X156244075Y-51319643D01*
X156197981Y-51434482D01*
X156135995Y-51543394D01*
X155982966Y-51704854D01*
X155787813Y-51804929D01*
X155704062Y-51821209D01*
X155528545Y-51803790D01*
X155352220Y-51728528D01*
X155192500Y-51604242D01*
X155066799Y-51439752D01*
X155011214Y-51296999D01*
X154981318Y-51095946D01*
X154990795Y-50890911D01*
X155008117Y-50830271D01*
X155133063Y-50830271D01*
X155171912Y-50967827D01*
X155213404Y-51012113D01*
X155299293Y-51041485D01*
X155342569Y-51036094D01*
X155438770Y-50979329D01*
X155507569Y-50877333D01*
X155541952Y-50750888D01*
X155534907Y-50620771D01*
X155479421Y-50507763D01*
X155399828Y-50413150D01*
X155266159Y-50555394D01*
X155166586Y-50692140D01*
X155133063Y-50830271D01*
X155008117Y-50830271D01*
X155040857Y-50715657D01*
X155127669Y-50573659D01*
X155276610Y-50422264D01*
X155452526Y-50314231D01*
X155640440Y-50255890D01*
X155825377Y-50253568D01*
X155992360Y-50313594D01*
X156047463Y-50353462D01*
X156160470Y-50496466D01*
X156233509Y-50700201D01*
X156240000Y-50750888D01*
X156267729Y-50967400D01*
G37*
G36*
X166968416Y-54380853D02*
G01*
X166970427Y-54441970D01*
X166959011Y-54651587D01*
X166923634Y-54861188D01*
X166869215Y-55055542D01*
X166800673Y-55219423D01*
X166722926Y-55337600D01*
X166640894Y-55394847D01*
X166636853Y-55395908D01*
X166553900Y-55412897D01*
X166490612Y-55403970D01*
X166403963Y-55363420D01*
X166354747Y-55330281D01*
X166271034Y-55216003D01*
X166226385Y-55060861D01*
X166217339Y-54879375D01*
X166240434Y-54686069D01*
X166269618Y-54578630D01*
X166405038Y-54578630D01*
X166408010Y-54654697D01*
X166429991Y-54754583D01*
X166473198Y-54781635D01*
X166537458Y-54735648D01*
X166568189Y-54683831D01*
X166600728Y-54584189D01*
X166623362Y-54467501D01*
X166633141Y-54356279D01*
X166627116Y-54273036D01*
X166602339Y-54240286D01*
X166601545Y-54240293D01*
X166536767Y-54274478D01*
X166472859Y-54358663D01*
X166424167Y-54468248D01*
X166405038Y-54578630D01*
X166269618Y-54578630D01*
X166292209Y-54495462D01*
X166369203Y-54322076D01*
X166467956Y-54180434D01*
X166585006Y-54085056D01*
X166716892Y-54050464D01*
X166766551Y-54051824D01*
X166863005Y-54070291D01*
X166921522Y-54121725D01*
X166953021Y-54220466D01*
X166966057Y-54356279D01*
X166968416Y-54380853D01*
G37*
G36*
X163766653Y-47505840D02*
G01*
X163956391Y-47603997D01*
X164129917Y-47696069D01*
X164275339Y-47776038D01*
X164380764Y-47837884D01*
X164434299Y-47875587D01*
X164438501Y-47882685D01*
X164418331Y-47931215D01*
X164346757Y-48001936D01*
X164236507Y-48083791D01*
X164100308Y-48165725D01*
X164084460Y-48173745D01*
X163947666Y-48210961D01*
X163757736Y-48214673D01*
X163653875Y-48202846D01*
X163425153Y-48126015D01*
X163233338Y-47983817D01*
X163083890Y-47779775D01*
X163070671Y-47753766D01*
X163019505Y-47622814D01*
X162977695Y-47471817D01*
X162949777Y-47323542D01*
X162945079Y-47262789D01*
X163061364Y-47262789D01*
X163070830Y-47332635D01*
X163094218Y-47438203D01*
X163128503Y-47548077D01*
X163167630Y-47600713D01*
X163225142Y-47614199D01*
X163255130Y-47610882D01*
X163329713Y-47559625D01*
X163357978Y-47460134D01*
X163357547Y-47457319D01*
X163324329Y-47417068D01*
X163254814Y-47359252D01*
X163172483Y-47300709D01*
X163100818Y-47258281D01*
X163063301Y-47248807D01*
X163061364Y-47262789D01*
X162945079Y-47262789D01*
X162940283Y-47200759D01*
X162953748Y-47126233D01*
X162953768Y-47126203D01*
X162991030Y-47134462D01*
X163083437Y-47172752D01*
X163219095Y-47235055D01*
X163386112Y-47315349D01*
X163572596Y-47407618D01*
X163676352Y-47460134D01*
X163766653Y-47505840D01*
G37*
G36*
X167434429Y-54070993D02*
G01*
X167393552Y-54489134D01*
X167303350Y-54893492D01*
X167166520Y-55260412D01*
X167114068Y-55367707D01*
X166965734Y-55617703D01*
X166805672Y-55805222D01*
X166624058Y-55940309D01*
X166411067Y-56033012D01*
X166408122Y-56033952D01*
X166209327Y-56059770D01*
X165987678Y-56026201D01*
X165758982Y-55939227D01*
X165539045Y-55804831D01*
X165343676Y-55628996D01*
X165330518Y-55614481D01*
X165200675Y-55451364D01*
X165110209Y-55286810D01*
X165053315Y-55102573D01*
X165024188Y-54880404D01*
X165022799Y-54826417D01*
X165133084Y-54826417D01*
X165140296Y-54953430D01*
X165159724Y-55054413D01*
X165196019Y-55153954D01*
X165253835Y-55276639D01*
X165376533Y-55481412D01*
X165554442Y-55668240D01*
X165787687Y-55817465D01*
X165913605Y-55868521D01*
X166148163Y-55903991D01*
X166386761Y-55872290D01*
X166615186Y-55776162D01*
X166819228Y-55618348D01*
X166895724Y-55534941D01*
X167042008Y-55321922D01*
X167152655Y-55069105D01*
X167229977Y-54768580D01*
X167276283Y-54412435D01*
X167293884Y-53992760D01*
X167294125Y-53956404D01*
X167287822Y-53665553D01*
X167263468Y-53430277D01*
X167217119Y-53233157D01*
X167144826Y-53056769D01*
X167042643Y-52883692D01*
X166985695Y-52806405D01*
X166816061Y-52648642D01*
X166624894Y-52561159D01*
X166417598Y-52543838D01*
X166199576Y-52596562D01*
X165976230Y-52719214D01*
X165752964Y-52911677D01*
X165671432Y-53003794D01*
X165497204Y-53264213D01*
X165350359Y-53574723D01*
X165236838Y-53918737D01*
X165162581Y-54279668D01*
X165133532Y-54640930D01*
X165133434Y-54648788D01*
X165133084Y-54826417D01*
X165022799Y-54826417D01*
X165017025Y-54602055D01*
X165018976Y-54460360D01*
X165027953Y-54290073D01*
X165048433Y-54146593D01*
X165085206Y-54000256D01*
X165143060Y-53821396D01*
X165193596Y-53680877D01*
X165359166Y-53304857D01*
X165546492Y-52991170D01*
X165753088Y-52742466D01*
X165976468Y-52561398D01*
X166214148Y-52450616D01*
X166463641Y-52412772D01*
X166604569Y-52428163D01*
X166811673Y-52509454D01*
X167000319Y-52653567D01*
X167163008Y-52852565D01*
X167292242Y-53098510D01*
X167380525Y-53383465D01*
X167423284Y-53662720D01*
X167431301Y-53956404D01*
X167434429Y-54070993D01*
G37*
G36*
X165628096Y-47627444D02*
G01*
X165546095Y-47984159D01*
X165544739Y-47988186D01*
X165392898Y-48339979D01*
X165195571Y-48631816D01*
X164953827Y-48862673D01*
X164668737Y-49031527D01*
X164341370Y-49137353D01*
X164293539Y-49145636D01*
X164114426Y-49158948D01*
X163896967Y-49157327D01*
X163667892Y-49142274D01*
X163453932Y-49115290D01*
X163281816Y-49077875D01*
X163047741Y-48990682D01*
X162758616Y-48840148D01*
X162478021Y-48652044D01*
X162222579Y-48439044D01*
X162008914Y-48213821D01*
X161853649Y-47989049D01*
X161830517Y-47945622D01*
X161783924Y-47841686D01*
X161754767Y-47735184D01*
X161737623Y-47601588D01*
X161727071Y-47416368D01*
X161722814Y-47246340D01*
X161724723Y-47198968D01*
X161930675Y-47198968D01*
X161935557Y-47498293D01*
X162002848Y-47789370D01*
X162136913Y-48062722D01*
X162168418Y-48109064D01*
X162366137Y-48335201D01*
X162619028Y-48545291D01*
X162909643Y-48728049D01*
X163220536Y-48872193D01*
X163534259Y-48966438D01*
X163620961Y-48983521D01*
X163946064Y-49019169D01*
X164233272Y-48998360D01*
X164495279Y-48919136D01*
X164744777Y-48779535D01*
X164799930Y-48739419D01*
X165028417Y-48518987D01*
X165209427Y-48251450D01*
X165339726Y-47949459D01*
X165416078Y-47625669D01*
X165435251Y-47292731D01*
X165394009Y-46963299D01*
X165289119Y-46650024D01*
X165241030Y-46558461D01*
X165076877Y-46338004D01*
X164857892Y-46129772D01*
X164599122Y-45945141D01*
X164315610Y-45795489D01*
X164022404Y-45692192D01*
X163904062Y-45665406D01*
X163574947Y-45636586D01*
X163236090Y-45676840D01*
X162967501Y-45760439D01*
X162689605Y-45910266D01*
X162447925Y-46108698D01*
X162246826Y-46346260D01*
X162090675Y-46613476D01*
X161983836Y-46900871D01*
X161930675Y-47198968D01*
X161724723Y-47198968D01*
X161729543Y-47079353D01*
X161752658Y-46930755D01*
X161795495Y-46768991D01*
X161910768Y-46474725D01*
X162099788Y-46170301D01*
X162339959Y-45916510D01*
X162624757Y-45717758D01*
X162947656Y-45578448D01*
X163302134Y-45502984D01*
X163681666Y-45495770D01*
X164068237Y-45553990D01*
X164432081Y-45677318D01*
X164764225Y-45867907D01*
X165071882Y-46129042D01*
X165220832Y-46293050D01*
X165430309Y-46602497D01*
X165568888Y-46931473D01*
X165635255Y-47274835D01*
X165634892Y-47292731D01*
X165628096Y-47627444D01*
G37*
G36*
X160947183Y-48219832D02*
G01*
X160889108Y-48315383D01*
X160768473Y-48386502D01*
X160727956Y-48395248D01*
X160604429Y-48373951D01*
X160467159Y-48293592D01*
X160400173Y-48247082D01*
X160353329Y-48248977D01*
X160289868Y-48302093D01*
X160264208Y-48323894D01*
X160183273Y-48355813D01*
X160096853Y-48324930D01*
X159991889Y-48227997D01*
X159951554Y-48178181D01*
X159943134Y-48126861D01*
X159982794Y-48054446D01*
X160032763Y-47957001D01*
X160033860Y-47867822D01*
X159968773Y-47804604D01*
X159943865Y-47788998D01*
X159899409Y-47720428D01*
X159917106Y-47642715D01*
X160053271Y-47642715D01*
X160064482Y-47691707D01*
X160119760Y-47772860D01*
X160143138Y-47804836D01*
X160184354Y-47874828D01*
X160183600Y-47931025D01*
X160144537Y-48008230D01*
X160108035Y-48078825D01*
X160102184Y-48132207D01*
X160137102Y-48179658D01*
X160166162Y-48205548D01*
X160210619Y-48213275D01*
X160272390Y-48167306D01*
X160290636Y-48151515D01*
X160358745Y-48118229D01*
X160435419Y-48140709D01*
X160499482Y-48176592D01*
X160599261Y-48241706D01*
X160605364Y-48246036D01*
X160684430Y-48272851D01*
X160740165Y-48244691D01*
X160765063Y-48179924D01*
X160751614Y-48096921D01*
X160692311Y-48014049D01*
X160629724Y-47927845D01*
X160627971Y-47820428D01*
X160696796Y-47692439D01*
X160706491Y-47678750D01*
X160748307Y-47597048D01*
X160751670Y-47541657D01*
X160698276Y-47501645D01*
X160631322Y-47522973D01*
X160570336Y-47604213D01*
X160550612Y-47640261D01*
X160474230Y-47710667D01*
X160380377Y-47706958D01*
X160269127Y-47629126D01*
X160246214Y-47607369D01*
X160182077Y-47555088D01*
X160139573Y-47550269D01*
X160093941Y-47586953D01*
X160082363Y-47598776D01*
X160053271Y-47642715D01*
X159917106Y-47642715D01*
X159920932Y-47625916D01*
X160009082Y-47500580D01*
X160020572Y-47487229D01*
X160091059Y-47414922D01*
X160140312Y-47394093D01*
X160188419Y-47415174D01*
X160212888Y-47432561D01*
X160325589Y-47503690D01*
X160404460Y-47525407D01*
X160469719Y-47498115D01*
X160541583Y-47422217D01*
X160649386Y-47290511D01*
X160787718Y-47364564D01*
X160891774Y-47428990D01*
X160963410Y-47509080D01*
X160966262Y-47594299D01*
X160903891Y-47694769D01*
X160897323Y-47702673D01*
X160822084Y-47826086D01*
X160817421Y-47932944D01*
X160882716Y-48033090D01*
X160938245Y-48113629D01*
X160943824Y-48179924D01*
X160947183Y-48219832D01*
G37*
G36*
X153843110Y-54674699D02*
G01*
X153853599Y-54766906D01*
X153845352Y-54814601D01*
X153832823Y-54821953D01*
X153761519Y-54849938D01*
X153656854Y-54882771D01*
X153637534Y-54888360D01*
X153544916Y-54923289D01*
X153504127Y-54967227D01*
X153495010Y-55039723D01*
X153505344Y-55133047D01*
X153539844Y-55249046D01*
X153557847Y-55304810D01*
X153543293Y-55384528D01*
X153466159Y-55452496D01*
X153319722Y-55516890D01*
X153285939Y-55528756D01*
X153195335Y-55558662D01*
X153147424Y-55571448D01*
X153102715Y-55547739D01*
X153054330Y-55463423D01*
X153017920Y-55333793D01*
X153015029Y-55319534D01*
X152977435Y-55202016D01*
X152927862Y-55111713D01*
X152900316Y-55079518D01*
X152860130Y-55054221D01*
X152802644Y-55061247D01*
X152701376Y-55099124D01*
X152653432Y-55117202D01*
X152552646Y-55140878D01*
X152497120Y-55123596D01*
X152466365Y-55070198D01*
X152429536Y-54967462D01*
X152397540Y-54847570D01*
X152390080Y-54806264D01*
X152588471Y-54806264D01*
X152593989Y-54841257D01*
X152617905Y-54885712D01*
X152676499Y-54907622D01*
X152790512Y-54918508D01*
X152922308Y-54932607D01*
X153007291Y-54967106D01*
X153058268Y-55038860D01*
X153096823Y-55165256D01*
X153110576Y-55211887D01*
X153170137Y-55312427D01*
X153251949Y-55341859D01*
X153352726Y-55298470D01*
X153384758Y-55268878D01*
X153400843Y-55212470D01*
X153381011Y-55116400D01*
X153380020Y-55112952D01*
X153346388Y-54968543D01*
X153350338Y-54874523D01*
X153397876Y-54812285D01*
X153495010Y-54763219D01*
X153575254Y-54726754D01*
X153632435Y-54675727D01*
X153647334Y-54605119D01*
X153644519Y-54557916D01*
X153622646Y-54523380D01*
X153562641Y-54509443D01*
X153445505Y-54506853D01*
X153404291Y-54506212D01*
X153259601Y-54486386D01*
X153177940Y-54436081D01*
X153152281Y-54351576D01*
X153137059Y-54288286D01*
X153068023Y-54232595D01*
X152956903Y-54228192D01*
X152915837Y-54238065D01*
X152876842Y-54265573D01*
X152861978Y-54326289D01*
X152861701Y-54441606D01*
X152866674Y-54635785D01*
X152721754Y-54670805D01*
X152629853Y-54699301D01*
X152590426Y-54738243D01*
X152588471Y-54806264D01*
X152390080Y-54806264D01*
X152378086Y-54739854D01*
X152378881Y-54673649D01*
X152387838Y-54662043D01*
X152452673Y-54627093D01*
X152554680Y-54596887D01*
X152714350Y-54562775D01*
X152701549Y-54365897D01*
X152696585Y-54256363D01*
X152708851Y-54186053D01*
X152752979Y-54139747D01*
X152842836Y-54090410D01*
X152906684Y-54060453D01*
X153061299Y-54017199D01*
X153174062Y-54035679D01*
X153243096Y-54115166D01*
X153266524Y-54254931D01*
X153268754Y-54288379D01*
X153308390Y-54366554D01*
X153401967Y-54400236D01*
X153555208Y-54392143D01*
X153565044Y-54390698D01*
X153692899Y-54384529D01*
X153759891Y-54409620D01*
X153789202Y-54467083D01*
X153819704Y-54565564D01*
X153828187Y-54605119D01*
X153843110Y-54674699D01*
G37*
G36*
X159396090Y-51991295D02*
G01*
X159389063Y-52274549D01*
X159370369Y-52530431D01*
X159340001Y-52734996D01*
X159307602Y-52864211D01*
X159196202Y-53172905D01*
X159045552Y-53473743D01*
X158871603Y-53732749D01*
X158727937Y-53889056D01*
X158481361Y-54094241D01*
X158195236Y-54278641D01*
X157890655Y-54429105D01*
X157588713Y-54532486D01*
X157570559Y-54536864D01*
X157390815Y-54562057D01*
X157161286Y-54571434D01*
X156903691Y-54565957D01*
X156639751Y-54546590D01*
X156391186Y-54514294D01*
X156179717Y-54470034D01*
X156009811Y-54420211D01*
X155609142Y-54262047D01*
X155263595Y-54059713D01*
X154965457Y-53809008D01*
X154809148Y-53640776D01*
X154622686Y-53386126D01*
X154478888Y-53104822D01*
X154363799Y-52772832D01*
X154362259Y-52767482D01*
X154329786Y-52645360D01*
X154306606Y-52529867D01*
X154291241Y-52404447D01*
X154282214Y-52252549D01*
X154278048Y-52057620D01*
X154277265Y-51803105D01*
X154277952Y-51698864D01*
X154527411Y-51698864D01*
X154534882Y-51953777D01*
X154553041Y-52248742D01*
X154585472Y-52512942D01*
X154635756Y-52741322D01*
X154708528Y-52954542D01*
X154808422Y-53173264D01*
X154853814Y-53259266D01*
X155074729Y-53587730D01*
X155342908Y-53858141D01*
X155660359Y-54071919D01*
X156029093Y-54230488D01*
X156451120Y-54335267D01*
X156503463Y-54344023D01*
X156950720Y-54385736D01*
X157360219Y-54361822D01*
X157731404Y-54272532D01*
X158063717Y-54118117D01*
X158356602Y-53898829D01*
X158609500Y-53614918D01*
X158821855Y-53266637D01*
X158909032Y-53064474D01*
X159009944Y-52718366D01*
X159073317Y-52339461D01*
X159097125Y-51948916D01*
X159079344Y-51567890D01*
X159017949Y-51217543D01*
X158996455Y-51139339D01*
X158867528Y-50794443D01*
X158690667Y-50460487D01*
X158475825Y-50150510D01*
X158232956Y-49877552D01*
X157972015Y-49654654D01*
X157702956Y-49494855D01*
X157548937Y-49436366D01*
X157261797Y-49370509D01*
X156938477Y-49339321D01*
X156599649Y-49345597D01*
X156504399Y-49354394D01*
X156084276Y-49433631D01*
X155708344Y-49573986D01*
X155379080Y-49773290D01*
X155098962Y-50029374D01*
X154870464Y-50340067D01*
X154696064Y-50703200D01*
X154578239Y-51116602D01*
X154571463Y-51150923D01*
X154544475Y-51321132D01*
X154530200Y-51495881D01*
X154527411Y-51698864D01*
X154277952Y-51698864D01*
X154278575Y-51604450D01*
X154284821Y-51358820D01*
X154297131Y-51165048D01*
X154316553Y-51008596D01*
X154344133Y-50874926D01*
X154373913Y-50766730D01*
X154528858Y-50373413D01*
X154743554Y-50020851D01*
X155012234Y-49714813D01*
X155329132Y-49461070D01*
X155688481Y-49265390D01*
X156084515Y-49133545D01*
X156242537Y-49107453D01*
X156473142Y-49090516D01*
X156732474Y-49087186D01*
X156995888Y-49097073D01*
X157238741Y-49119786D01*
X157436389Y-49154935D01*
X157751682Y-49252396D01*
X158144478Y-49438349D01*
X158489851Y-49682252D01*
X158784922Y-49981044D01*
X159026810Y-50331668D01*
X159212636Y-50731063D01*
X159339518Y-51176171D01*
X159347252Y-51216741D01*
X159375178Y-51438447D01*
X159391460Y-51704613D01*
X159395406Y-51948916D01*
X159396090Y-51991295D01*
G37*
G36*
X159707654Y-38286630D02*
G01*
X159845041Y-38530536D01*
X159964663Y-38749031D01*
X159991757Y-38798519D01*
X160142524Y-39081318D01*
X160292064Y-39369671D01*
X160505259Y-39799859D01*
X160694517Y-40214603D01*
X160849987Y-40597870D01*
X160977815Y-40964876D01*
X161084148Y-41330841D01*
X161119123Y-41466597D01*
X161151071Y-41605481D01*
X161173430Y-41733288D01*
X161188000Y-41867465D01*
X161196581Y-42025460D01*
X161200973Y-42224721D01*
X161202975Y-42482693D01*
X161203010Y-42489884D01*
X161204615Y-42712911D01*
X161205732Y-42804864D01*
X161206972Y-42906885D01*
X161209862Y-43060027D01*
X161213063Y-43160562D01*
X161216355Y-43196711D01*
X161216876Y-43196612D01*
X161254507Y-43174276D01*
X161336903Y-43120411D01*
X161447292Y-43045964D01*
X161515513Y-43000288D01*
X161858492Y-42799763D01*
X162206583Y-42648849D01*
X162575998Y-42542665D01*
X162982952Y-42476329D01*
X163443660Y-42444961D01*
X163665212Y-42436619D01*
X163848083Y-42425436D01*
X163966803Y-42411174D01*
X164027730Y-42392610D01*
X164037221Y-42368521D01*
X164001631Y-42337685D01*
X163977639Y-42314978D01*
X163918826Y-42240195D01*
X163849308Y-42137577D01*
X163815620Y-42081218D01*
X163749564Y-41921070D01*
X163744141Y-41826836D01*
X164140867Y-41826836D01*
X164215817Y-41966010D01*
X164279022Y-42068286D01*
X164456822Y-42281504D01*
X164692431Y-42498202D01*
X164974443Y-42711380D01*
X165291451Y-42914035D01*
X165632049Y-43099166D01*
X165984829Y-43259772D01*
X166338386Y-43388850D01*
X166681312Y-43479398D01*
X166851853Y-43507728D01*
X167064865Y-43530717D01*
X167253769Y-43539536D01*
X167340662Y-43538449D01*
X167477816Y-43524860D01*
X167571997Y-43485653D01*
X167636364Y-43408344D01*
X167684079Y-43280454D01*
X167728303Y-43089499D01*
X167751282Y-42970150D01*
X167770338Y-42818499D01*
X167769004Y-42683560D01*
X167748527Y-42530903D01*
X167721297Y-42403198D01*
X167681573Y-42270337D01*
X167641907Y-42182044D01*
X167602601Y-42130885D01*
X167542462Y-42101297D01*
X167445459Y-42110155D01*
X167374699Y-42120201D01*
X167318398Y-42108848D01*
X167292821Y-42060001D01*
X167269312Y-42023413D01*
X167203434Y-41952939D01*
X167111700Y-41866852D01*
X167010153Y-41778947D01*
X166914832Y-41703017D01*
X166841778Y-41652855D01*
X166807032Y-41642257D01*
X166798472Y-41654424D01*
X166754799Y-41717327D01*
X166683371Y-41820554D01*
X166594191Y-41949656D01*
X166542999Y-42022832D01*
X166459995Y-42136866D01*
X166398445Y-42215369D01*
X166368904Y-42244527D01*
X166330994Y-42228492D01*
X166248141Y-42180104D01*
X166139996Y-42111228D01*
X166024580Y-42033961D01*
X165919916Y-41960395D01*
X165844028Y-41902628D01*
X165814936Y-41872753D01*
X165820114Y-41851514D01*
X165854060Y-41773458D01*
X165908401Y-41667844D01*
X165969858Y-41558757D01*
X166025151Y-41470278D01*
X166061002Y-41426491D01*
X166085070Y-41392038D01*
X166099807Y-41312289D01*
X166099236Y-41297258D01*
X166079063Y-41242882D01*
X166017894Y-41197331D01*
X165899261Y-41147036D01*
X165827551Y-41121093D01*
X165669801Y-41068287D01*
X165533720Y-41027574D01*
X165462887Y-41007645D01*
X165399531Y-40978009D01*
X165382307Y-40931792D01*
X165394258Y-40847043D01*
X165396594Y-40834593D01*
X165490512Y-40834593D01*
X165510568Y-40893725D01*
X165584286Y-40911950D01*
X165654125Y-40920625D01*
X165789663Y-40957290D01*
X165941840Y-41012655D01*
X166081514Y-41075767D01*
X166179544Y-41135673D01*
X166262403Y-41202768D01*
X166104943Y-41552464D01*
X166059489Y-41654221D01*
X166001728Y-41786368D01*
X165962161Y-41880569D01*
X165947484Y-41921148D01*
X165955114Y-41930341D01*
X166008119Y-41940136D01*
X166008151Y-41940136D01*
X166079412Y-41962522D01*
X166165578Y-42016298D01*
X166240752Y-42070132D01*
X166298601Y-42083621D01*
X166354257Y-42045347D01*
X166430164Y-41949656D01*
X166465225Y-41902825D01*
X166565449Y-41771985D01*
X166664696Y-41645593D01*
X166793482Y-41484333D01*
X166964173Y-41606914D01*
X167029786Y-41657327D01*
X167122141Y-41740602D01*
X167175524Y-41805469D01*
X167196808Y-41842576D01*
X167286874Y-41945170D01*
X167389593Y-41978217D01*
X167429555Y-41975126D01*
X167484683Y-41940333D01*
X167478455Y-41864846D01*
X167411108Y-41746135D01*
X167198595Y-41492678D01*
X166919460Y-41250317D01*
X166599113Y-41041994D01*
X166254920Y-40878931D01*
X165904249Y-40772351D01*
X165830394Y-40757234D01*
X165667277Y-40732965D01*
X165562666Y-40736804D01*
X165506949Y-40770198D01*
X165490512Y-40834593D01*
X165396594Y-40834593D01*
X165419791Y-40710941D01*
X165257392Y-40736910D01*
X165091045Y-40780665D01*
X164850922Y-40902296D01*
X164624655Y-41083828D01*
X164423457Y-41315703D01*
X164258544Y-41588359D01*
X164140867Y-41826836D01*
X163744141Y-41826836D01*
X163740685Y-41766787D01*
X163790163Y-41601086D01*
X163899178Y-41406685D01*
X163928079Y-41362993D01*
X164187539Y-41035415D01*
X164478371Y-40772913D01*
X164796473Y-40577548D01*
X165137739Y-40451383D01*
X165498067Y-40396479D01*
X165873353Y-40414897D01*
X165911956Y-40420773D01*
X166346976Y-40519807D01*
X166755212Y-40672093D01*
X167128856Y-40872003D01*
X167460101Y-41113910D01*
X167741140Y-41392187D01*
X167964167Y-41701206D01*
X168076674Y-41940333D01*
X168121374Y-42035339D01*
X168171390Y-42224382D01*
X168208946Y-42477207D01*
X168226710Y-42750068D01*
X168225732Y-42818499D01*
X168222931Y-43014550D01*
X168195853Y-43242237D01*
X168179189Y-43323156D01*
X168125461Y-43530364D01*
X168075238Y-43651632D01*
X168064957Y-43676456D01*
X167991960Y-43772834D01*
X167900756Y-43830897D01*
X167887941Y-43835958D01*
X167746458Y-43872321D01*
X167560998Y-43897804D01*
X167359812Y-43910507D01*
X167171152Y-43908526D01*
X167023271Y-43889961D01*
X166977691Y-43879862D01*
X166894431Y-43864970D01*
X166861427Y-43864902D01*
X166881220Y-43898902D01*
X166935725Y-43983140D01*
X167016559Y-44104818D01*
X167115338Y-44251184D01*
X167192963Y-44369510D01*
X167316540Y-44571695D01*
X167429804Y-44771886D01*
X167515471Y-44940316D01*
X167548012Y-45008080D01*
X167618415Y-45139707D01*
X167679728Y-45235648D01*
X167721505Y-45278739D01*
X167724699Y-45279815D01*
X167796159Y-45270198D01*
X167883066Y-45219444D01*
X168225871Y-44959219D01*
X168628032Y-44701864D01*
X169041072Y-44492575D01*
X169486718Y-44319154D01*
X169533199Y-44303717D01*
X169775352Y-44231063D01*
X170059250Y-44155413D01*
X170357535Y-44083442D01*
X170642848Y-44021827D01*
X170887830Y-43977244D01*
X170924279Y-43971563D01*
X170983994Y-43966397D01*
X171030017Y-43977579D01*
X171067666Y-44014709D01*
X171102256Y-44087388D01*
X171139104Y-44205218D01*
X171183528Y-44377800D01*
X171240843Y-44614733D01*
X171280829Y-44783053D01*
X171313800Y-44933481D01*
X171315581Y-44944441D01*
X171330618Y-45037003D01*
X171332702Y-45108420D01*
X171321472Y-45162535D01*
X171298349Y-45214150D01*
X171287905Y-45233640D01*
X171234165Y-45311074D01*
X171161289Y-45372911D01*
X171055348Y-45426571D01*
X170902416Y-45479477D01*
X170688563Y-45539048D01*
X170647991Y-45549781D01*
X170356505Y-45631218D01*
X170071445Y-45717835D01*
X169804046Y-45805652D01*
X169565541Y-45890688D01*
X169367163Y-45968961D01*
X169220148Y-46036492D01*
X169135728Y-46089300D01*
X169107140Y-46116741D01*
X169037314Y-46222079D01*
X169004560Y-46366017D01*
X168997085Y-46456217D01*
X169007128Y-46616204D01*
X169058593Y-46730715D01*
X169156826Y-46815538D01*
X169169648Y-46822861D01*
X169315350Y-46869883D01*
X169525190Y-46892020D01*
X169792352Y-46889805D01*
X170110017Y-46863772D01*
X170471368Y-46814454D01*
X170869588Y-46742383D01*
X171297858Y-46648094D01*
X171344218Y-46637136D01*
X171511537Y-46600683D01*
X171622400Y-46583995D01*
X171690399Y-46585695D01*
X171729129Y-46604406D01*
X171741375Y-46622879D01*
X171774289Y-46708215D01*
X171813760Y-46842013D01*
X171855600Y-47006288D01*
X171895622Y-47183054D01*
X171929639Y-47354325D01*
X171953462Y-47502117D01*
X171954841Y-47517642D01*
X171962904Y-47608444D01*
X171962921Y-47610437D01*
X171932216Y-47789046D01*
X171847252Y-47949995D01*
X171722215Y-48066301D01*
X171666756Y-48094351D01*
X171508929Y-48150524D01*
X171292016Y-48208497D01*
X171027104Y-48266151D01*
X170725284Y-48321365D01*
X170397643Y-48372019D01*
X170055269Y-48415993D01*
X169709253Y-48451166D01*
X169575628Y-48461173D01*
X169193783Y-48466572D01*
X168867002Y-48430588D01*
X168587298Y-48351203D01*
X168346683Y-48226401D01*
X168137168Y-48054163D01*
X168067035Y-47987942D01*
X167968808Y-47916909D01*
X167909498Y-47910439D01*
X167889582Y-47968695D01*
X167879741Y-48014603D01*
X167837481Y-48121989D01*
X167770011Y-48264051D01*
X167686192Y-48423380D01*
X167594888Y-48582568D01*
X167504961Y-48724205D01*
X167467358Y-48777676D01*
X167297273Y-48990079D01*
X167097449Y-49205024D01*
X166890286Y-49399561D01*
X166698187Y-49550738D01*
X166679411Y-49563669D01*
X166586690Y-49632240D01*
X166538957Y-49691153D01*
X166521273Y-49769015D01*
X166518698Y-49894432D01*
X166518692Y-49895707D01*
X166518641Y-49907176D01*
X166495729Y-50112355D01*
X166423655Y-50301973D01*
X166385581Y-50379050D01*
X166344481Y-50468821D01*
X166328453Y-50513744D01*
X166357514Y-50537809D01*
X166433016Y-50563983D01*
X166564070Y-50608463D01*
X166739428Y-50685109D01*
X166937640Y-50783099D01*
X167138367Y-50891887D01*
X167321268Y-51000924D01*
X167466005Y-51099664D01*
X167480613Y-51110833D01*
X167774553Y-51380247D01*
X168040421Y-51708188D01*
X168269155Y-52080022D01*
X168451692Y-52481116D01*
X168578970Y-52896835D01*
X168601909Y-52991900D01*
X168637654Y-53123623D01*
X168666872Y-53211589D01*
X168684832Y-53240445D01*
X168688943Y-53238295D01*
X168744342Y-53210447D01*
X168845785Y-53160021D01*
X168974920Y-53096148D01*
X169241487Y-52964574D01*
X170060227Y-52965398D01*
X170118697Y-52965532D01*
X170375114Y-52967815D01*
X170616372Y-52972516D01*
X170827222Y-52979177D01*
X170992412Y-52987339D01*
X171096693Y-52996544D01*
X171106716Y-52997942D01*
X171225497Y-53017368D01*
X171290485Y-53042512D01*
X171322131Y-53087656D01*
X171340887Y-53167084D01*
X171365740Y-53361974D01*
X171351963Y-53584435D01*
X171321848Y-53658225D01*
X171282012Y-53755836D01*
X171155040Y-53877290D01*
X170970199Y-53949912D01*
X170726644Y-53974816D01*
X170650725Y-53976645D01*
X170466889Y-53987195D01*
X170256897Y-54004913D01*
X170052896Y-54027295D01*
X169886440Y-54051894D01*
X169652304Y-54105137D01*
X169489285Y-54171048D01*
X169398488Y-54248892D01*
X169381019Y-54337929D01*
X169437984Y-54437423D01*
X169473711Y-54475441D01*
X169538016Y-54532163D01*
X169610613Y-54574201D01*
X169702813Y-54603728D01*
X169825923Y-54622914D01*
X169991252Y-54633932D01*
X170210108Y-54638951D01*
X170493799Y-54640144D01*
X170680889Y-54639657D01*
X170901613Y-54639594D01*
X171062847Y-54645040D01*
X171174511Y-54661288D01*
X171246525Y-54693632D01*
X171288809Y-54747365D01*
X171311284Y-54827782D01*
X171323869Y-54940176D01*
X171336483Y-55089841D01*
X171342832Y-55160834D01*
X171344315Y-55177423D01*
X171350392Y-55297881D01*
X171341572Y-55378637D01*
X171313786Y-55443231D01*
X171262966Y-55515203D01*
X171226886Y-55557243D01*
X171113251Y-55661306D01*
X170988144Y-55749466D01*
X170814295Y-55851349D01*
X170199255Y-55826501D01*
X169938736Y-55814340D01*
X169621949Y-55792373D01*
X169364067Y-55762711D01*
X169154952Y-55722676D01*
X168984465Y-55669593D01*
X168842468Y-55600786D01*
X168718823Y-55513580D01*
X168603392Y-55405299D01*
X168436412Y-55231029D01*
X168352380Y-55380544D01*
X168268348Y-55530059D01*
X168393148Y-55542069D01*
X168443075Y-55549957D01*
X168521856Y-55592274D01*
X168584531Y-55687363D01*
X168626937Y-55811507D01*
X168648705Y-56007985D01*
X168647764Y-56019921D01*
X168632515Y-56213445D01*
X168578634Y-56395711D01*
X168573881Y-56405902D01*
X168487555Y-56546672D01*
X168370918Y-56685884D01*
X168245064Y-56801172D01*
X168131091Y-56870172D01*
X168123902Y-56872794D01*
X167982142Y-56899914D01*
X167803939Y-56903415D01*
X167622622Y-56884584D01*
X167471517Y-56844707D01*
X167318448Y-56783460D01*
X166928093Y-56980576D01*
X166792455Y-57045785D01*
X166622424Y-57119086D01*
X166476418Y-57173042D01*
X166375894Y-57199161D01*
X166332597Y-57205090D01*
X166247761Y-57218146D01*
X166214050Y-57225717D01*
X166217305Y-57230034D01*
X166257299Y-57274497D01*
X166333253Y-57356350D01*
X166433016Y-57462452D01*
X166474371Y-57509130D01*
X166582388Y-57649413D01*
X166706868Y-57830262D01*
X166841255Y-58040150D01*
X166978994Y-58267550D01*
X167113531Y-58500935D01*
X167238309Y-58728777D01*
X167275849Y-58801726D01*
X167346775Y-58939549D01*
X167432374Y-59121724D01*
X167488549Y-59263774D01*
X167508747Y-59354172D01*
X167508617Y-59364532D01*
X167503473Y-59391133D01*
X167474609Y-59540400D01*
X167445408Y-59602603D01*
X167391319Y-59717824D01*
X167274503Y-59862604D01*
X167252034Y-59878278D01*
X167161602Y-59924572D01*
X167027113Y-59983910D01*
X166867500Y-60048941D01*
X166701697Y-60112315D01*
X166548636Y-60166683D01*
X166427251Y-60204693D01*
X166356475Y-60218997D01*
X166345270Y-60206090D01*
X166302908Y-60135748D01*
X166234915Y-60012505D01*
X166146352Y-59845794D01*
X166145520Y-59844190D01*
X166558375Y-59844190D01*
X166587277Y-59854177D01*
X166669499Y-59828028D01*
X166811347Y-59764748D01*
X166932746Y-59703320D01*
X167030225Y-59643985D01*
X167075603Y-59602603D01*
X167063461Y-59584384D01*
X166988380Y-59594538D01*
X166971748Y-59598819D01*
X166854463Y-59639721D01*
X166732085Y-59695815D01*
X166731921Y-59695890D01*
X166630003Y-59754342D01*
X166574590Y-59802096D01*
X166558375Y-59844190D01*
X166145520Y-59844190D01*
X166042280Y-59645052D01*
X165957247Y-59477737D01*
X166265353Y-59477737D01*
X166272693Y-59543060D01*
X166274230Y-59548015D01*
X166308192Y-59622796D01*
X166351445Y-59684214D01*
X166388646Y-59714481D01*
X166404455Y-59695815D01*
X166396349Y-59647045D01*
X166363454Y-59562334D01*
X166319857Y-59488781D01*
X166281533Y-59457378D01*
X166265353Y-59477737D01*
X165957247Y-59477737D01*
X165927759Y-59419714D01*
X165914071Y-59392552D01*
X165911823Y-59388154D01*
X166371740Y-59388154D01*
X166433016Y-59489616D01*
X166499708Y-59548932D01*
X166606937Y-59583723D01*
X166748578Y-59570474D01*
X166937381Y-59509694D01*
X166943603Y-59507268D01*
X167067118Y-59458052D01*
X167158095Y-59419877D01*
X167197235Y-59400829D01*
X167197928Y-59391133D01*
X167177764Y-59332970D01*
X167137326Y-59246171D01*
X167089287Y-59156770D01*
X167046321Y-59090801D01*
X167042878Y-59086860D01*
X167012258Y-59071749D01*
X166956981Y-59074157D01*
X166865548Y-59096817D01*
X166864795Y-59097064D01*
X166726460Y-59142456D01*
X166528218Y-59213806D01*
X166464279Y-59241102D01*
X166381507Y-59307213D01*
X166371740Y-59388154D01*
X165911823Y-59388154D01*
X165773256Y-59117030D01*
X165657145Y-58899132D01*
X165559336Y-58728151D01*
X165473424Y-58593381D01*
X165393007Y-58484115D01*
X165311680Y-58389646D01*
X165182897Y-58260910D01*
X165077448Y-58184737D01*
X165000042Y-58171942D01*
X164944645Y-58221685D01*
X164905225Y-58333128D01*
X164900994Y-58352650D01*
X164889746Y-58465921D01*
X164899258Y-58601121D01*
X164931734Y-58767707D01*
X164989379Y-58975136D01*
X165074397Y-59232864D01*
X165188993Y-59550349D01*
X165243716Y-59700610D01*
X165311608Y-59896032D01*
X165343520Y-59994267D01*
X165365682Y-60062489D01*
X165401432Y-60185939D01*
X165410319Y-60231623D01*
X165414350Y-60252344D01*
X165413188Y-60274215D01*
X165382777Y-60395840D01*
X165322360Y-60532761D01*
X165247058Y-60655015D01*
X165171991Y-60732635D01*
X165136126Y-60750267D01*
X165030041Y-60790337D01*
X164877884Y-60841231D01*
X164696555Y-60897966D01*
X164502949Y-60955560D01*
X164313964Y-61009029D01*
X164146496Y-61053390D01*
X164017443Y-61083661D01*
X163943701Y-61094859D01*
X163923707Y-61092363D01*
X163888705Y-61070858D01*
X163850832Y-61018691D01*
X163804550Y-60925544D01*
X163744319Y-60781100D01*
X163670196Y-60589506D01*
X164197514Y-60589506D01*
X164217229Y-60595919D01*
X164288759Y-60575711D01*
X164417907Y-60527170D01*
X164610475Y-60448582D01*
X164730284Y-60397457D01*
X164889689Y-60323801D01*
X164993372Y-60267525D01*
X165036089Y-60231623D01*
X165012596Y-60219087D01*
X164993358Y-60223134D01*
X164912950Y-60251425D01*
X164791524Y-60299955D01*
X164647583Y-60360684D01*
X164499629Y-60425576D01*
X164366163Y-60486591D01*
X164343241Y-60497793D01*
X164265687Y-60535694D01*
X164216704Y-60564845D01*
X164197514Y-60589506D01*
X163670196Y-60589506D01*
X163664600Y-60575042D01*
X163581420Y-60344232D01*
X163488405Y-60064245D01*
X163401787Y-59783412D01*
X163332947Y-59537335D01*
X163313231Y-59460632D01*
X163263810Y-59257499D01*
X163232309Y-59100154D01*
X163215868Y-58967887D01*
X163211627Y-58839991D01*
X163212014Y-58829042D01*
X163553803Y-58829042D01*
X163554418Y-58898512D01*
X163573095Y-59138991D01*
X163612977Y-59392266D01*
X163668653Y-59628736D01*
X163734714Y-59818806D01*
X163762480Y-59885396D01*
X163800220Y-59992948D01*
X163815069Y-60061993D01*
X163828966Y-60120197D01*
X163869149Y-60225832D01*
X163926392Y-60352280D01*
X163984743Y-60459608D01*
X164025172Y-60508214D01*
X164042943Y-60497793D01*
X164037022Y-60435676D01*
X164006371Y-60329194D01*
X163949953Y-60185678D01*
X163892834Y-60040489D01*
X163999371Y-60040489D01*
X164016177Y-60124944D01*
X164060533Y-60239260D01*
X164097259Y-60313501D01*
X164151834Y-60360029D01*
X164241418Y-60369987D01*
X164290428Y-60363197D01*
X164406808Y-60332088D01*
X164555269Y-60282934D01*
X164714791Y-60223676D01*
X164864356Y-60162256D01*
X164982943Y-60106615D01*
X165049533Y-60064693D01*
X165053784Y-60058483D01*
X165057490Y-59994267D01*
X165038381Y-59892921D01*
X165002993Y-59781397D01*
X164957862Y-59686645D01*
X164953628Y-59681805D01*
X164910075Y-59672895D01*
X164820060Y-59685882D01*
X164675311Y-59722410D01*
X164467555Y-59784123D01*
X164376485Y-59812486D01*
X164198672Y-59871893D01*
X164082177Y-59923403D01*
X164018557Y-59976456D01*
X163999371Y-60040489D01*
X163892834Y-60040489D01*
X163864734Y-59969062D01*
X163759047Y-59638534D01*
X163670533Y-59289944D01*
X163608404Y-58956450D01*
X163602187Y-58913825D01*
X163580370Y-58768003D01*
X163566736Y-58691543D01*
X163559172Y-58679517D01*
X163555566Y-58726993D01*
X163553803Y-58829042D01*
X163212014Y-58829042D01*
X163216726Y-58695758D01*
X163221232Y-58632548D01*
X163683239Y-58632548D01*
X163719568Y-59034485D01*
X163806798Y-59476418D01*
X163810677Y-59492194D01*
X163846749Y-59625863D01*
X163878526Y-59702486D01*
X163915528Y-59738254D01*
X163967274Y-59749360D01*
X163980537Y-59749296D01*
X164069948Y-59734594D01*
X164203236Y-59701439D01*
X164360779Y-59655999D01*
X164522952Y-59604440D01*
X164670130Y-59552932D01*
X164782689Y-59507643D01*
X164841006Y-59474740D01*
X164850130Y-59424295D01*
X164824527Y-59310364D01*
X164761538Y-59132589D01*
X164696089Y-58936353D01*
X164640945Y-58685146D01*
X164618755Y-58448710D01*
X164630887Y-58244299D01*
X164678711Y-58089170D01*
X164691327Y-58066208D01*
X164803043Y-57924727D01*
X165166824Y-57924727D01*
X165369024Y-58105741D01*
X165442585Y-58177789D01*
X165617723Y-58394495D01*
X165801883Y-58682163D01*
X165853110Y-58768717D01*
X165962037Y-58942494D01*
X166041805Y-59055327D01*
X166090038Y-59106941D01*
X166104363Y-59097064D01*
X166082405Y-59025423D01*
X166021790Y-58891746D01*
X165920144Y-58695758D01*
X165886735Y-58635612D01*
X165708809Y-58363689D01*
X165522348Y-58154638D01*
X165333059Y-58015076D01*
X165166824Y-57924727D01*
X164803043Y-57924727D01*
X164810989Y-57914664D01*
X164964768Y-57828277D01*
X165163060Y-57800856D01*
X165271953Y-57805951D01*
X165389151Y-57836364D01*
X165499678Y-57904985D01*
X165509357Y-57912599D01*
X165620449Y-58023649D01*
X165745852Y-58182381D01*
X165871630Y-58368338D01*
X165983847Y-58561061D01*
X166068565Y-58740093D01*
X166104910Y-58823254D01*
X166166220Y-58940547D01*
X166219079Y-59017332D01*
X166252728Y-59050326D01*
X166290435Y-59067664D01*
X166346339Y-59063880D01*
X166438287Y-59037493D01*
X166584129Y-58987021D01*
X166626416Y-58971905D01*
X166761521Y-58920636D01*
X166863216Y-58877552D01*
X166912115Y-58850707D01*
X166917798Y-58801726D01*
X166884869Y-58702780D01*
X166818684Y-58567876D01*
X166726744Y-58409173D01*
X166616549Y-58238829D01*
X166495597Y-58069005D01*
X166371388Y-57911858D01*
X166251423Y-57779548D01*
X166097409Y-57637275D01*
X165806706Y-57433762D01*
X165494197Y-57298367D01*
X165150484Y-57227534D01*
X164766170Y-57217709D01*
X164564861Y-57237479D01*
X164338142Y-57298256D01*
X164148174Y-57405619D01*
X163976400Y-57567793D01*
X163876202Y-57705590D01*
X163761901Y-57964214D01*
X163697465Y-58274495D01*
X163683239Y-58632548D01*
X163221232Y-58632548D01*
X163222190Y-58619104D01*
X163286906Y-58252155D01*
X163416308Y-57914017D01*
X163614165Y-57596766D01*
X163884246Y-57292474D01*
X163954535Y-57222062D01*
X164029023Y-57137155D01*
X164055179Y-57084805D01*
X164039520Y-57055051D01*
X164012186Y-57040797D01*
X163933955Y-57020779D01*
X163882470Y-57008476D01*
X163780925Y-56971660D01*
X163656075Y-56918989D01*
X163430555Y-56817782D01*
X163275890Y-56904709D01*
X163120659Y-56965406D01*
X162901998Y-56994422D01*
X162674704Y-56975159D01*
X162466320Y-56907524D01*
X162268578Y-56780171D01*
X162088619Y-56587679D01*
X161959970Y-56356678D01*
X161888005Y-56100728D01*
X161878096Y-55833389D01*
X161900862Y-55728436D01*
X162254003Y-55728436D01*
X162264223Y-55864519D01*
X162327548Y-56092592D01*
X162441040Y-56288592D01*
X162595764Y-56434067D01*
X162726365Y-56500812D01*
X162916547Y-56549042D01*
X163104152Y-56550381D01*
X163262776Y-56502136D01*
X163393625Y-56419820D01*
X163546910Y-56270647D01*
X163634657Y-56092961D01*
X163662626Y-55877767D01*
X163662227Y-55850821D01*
X163623185Y-55621628D01*
X163528286Y-55431128D01*
X163388843Y-55284007D01*
X163216172Y-55184950D01*
X163021587Y-55138640D01*
X162816404Y-55149764D01*
X162611937Y-55223006D01*
X162419502Y-55363051D01*
X162332615Y-55450447D01*
X162279667Y-55525655D01*
X162258011Y-55608278D01*
X162254003Y-55728436D01*
X161900862Y-55728436D01*
X161935616Y-55568218D01*
X161998788Y-55391952D01*
X161799570Y-55016044D01*
X161709189Y-54850091D01*
X161620304Y-54702928D01*
X161548770Y-54609084D01*
X161487428Y-54559454D01*
X161429118Y-54544934D01*
X161393240Y-54566584D01*
X161311571Y-54634603D01*
X161194782Y-54740575D01*
X161052348Y-54875882D01*
X160893743Y-55031907D01*
X160846107Y-55079311D01*
X160606605Y-55308663D01*
X160387652Y-55499762D01*
X160167068Y-55671089D01*
X159922674Y-55841127D01*
X159831800Y-55902035D01*
X159676025Y-56008552D01*
X159551001Y-56096824D01*
X159467711Y-56159019D01*
X159437142Y-56187304D01*
X159437137Y-56187539D01*
X159465187Y-56221707D01*
X159538450Y-56287151D01*
X159641320Y-56369915D01*
X159681195Y-56401406D01*
X159895680Y-56590304D01*
X160126342Y-56820303D01*
X160354472Y-57071036D01*
X160561357Y-57322133D01*
X160728288Y-57553224D01*
X160842371Y-57737915D01*
X161004316Y-58027636D01*
X161188576Y-58383289D01*
X161393521Y-58801612D01*
X161617519Y-59279343D01*
X161858936Y-59813221D01*
X161906910Y-59921424D01*
X161965978Y-60054650D01*
X161991952Y-60114567D01*
X162083876Y-60326621D01*
X162172667Y-60545383D01*
X162233789Y-60720171D01*
X162244263Y-60762216D01*
X162268677Y-60860221D01*
X162278768Y-60974770D01*
X162277973Y-60980659D01*
X162265498Y-61073055D01*
X162230303Y-61164312D01*
X162174620Y-61257776D01*
X162099884Y-61362684D01*
X162081097Y-61388207D01*
X161959884Y-61552851D01*
X161870620Y-61668429D01*
X161800248Y-61744762D01*
X161735710Y-61791668D01*
X161663949Y-61818967D01*
X161571908Y-61836479D01*
X161446530Y-61854022D01*
X161352794Y-61867828D01*
X161167352Y-61896390D01*
X160941173Y-61932215D01*
X160694569Y-61972075D01*
X160447852Y-62012743D01*
X160219573Y-62049974D01*
X160027859Y-62078634D01*
X159891730Y-62094742D01*
X159801057Y-62099179D01*
X159745715Y-62092828D01*
X159715576Y-62076573D01*
X159693831Y-62033833D01*
X159655626Y-61927194D01*
X159606707Y-61770913D01*
X159551075Y-61577846D01*
X159547886Y-61565986D01*
X160083016Y-61565986D01*
X160093740Y-61574239D01*
X160163436Y-61580118D01*
X160285398Y-61575547D01*
X160444911Y-61562366D01*
X160627261Y-61542415D01*
X160817734Y-61517534D01*
X161001616Y-61489562D01*
X161164192Y-61460339D01*
X161290749Y-61431705D01*
X161366571Y-61405499D01*
X161368716Y-61404201D01*
X161406970Y-61360038D01*
X161459492Y-61277989D01*
X161515343Y-61178542D01*
X161563581Y-61082181D01*
X161593266Y-61009391D01*
X161593458Y-60980659D01*
X161579522Y-60982298D01*
X161503315Y-60991880D01*
X161372172Y-61008591D01*
X161199063Y-61030775D01*
X160996959Y-61056778D01*
X160880426Y-61071686D01*
X160816775Y-61079656D01*
X160686910Y-61095917D01*
X160526575Y-61115323D01*
X160413534Y-61128214D01*
X160361898Y-61132897D01*
X160336630Y-61150924D01*
X160281994Y-61217814D01*
X160215565Y-61314117D01*
X160151093Y-61418482D01*
X160102327Y-61509555D01*
X160083016Y-61565986D01*
X159547886Y-61565986D01*
X159492734Y-61360848D01*
X159424602Y-61105656D01*
X159298077Y-60670469D01*
X159756446Y-60670469D01*
X159756638Y-60764912D01*
X159776315Y-60885470D01*
X159817445Y-61055319D01*
X159834243Y-61118523D01*
X159874500Y-61258753D01*
X159908619Y-61362856D01*
X159930595Y-61411912D01*
X159946626Y-61415508D01*
X159978808Y-61373974D01*
X160010743Y-61290215D01*
X160035226Y-61185139D01*
X160045055Y-61079656D01*
X160042541Y-61040005D01*
X160024115Y-60929642D01*
X159992605Y-60795041D01*
X159953747Y-60655959D01*
X159913277Y-60532154D01*
X159876933Y-60443383D01*
X159850450Y-60409402D01*
X159840340Y-60415497D01*
X159808837Y-60472423D01*
X159776198Y-60569786D01*
X159773769Y-60578959D01*
X159756446Y-60670469D01*
X159298077Y-60670469D01*
X159274258Y-60588542D01*
X159185922Y-60318207D01*
X160050648Y-60318207D01*
X160053088Y-60381466D01*
X160074457Y-60488320D01*
X160108542Y-60616882D01*
X160149133Y-60745268D01*
X160190016Y-60851594D01*
X160224980Y-60913974D01*
X160283824Y-60955503D01*
X160413814Y-60974643D01*
X160597109Y-60942566D01*
X160643209Y-60932308D01*
X160765159Y-60911330D01*
X160926454Y-60887817D01*
X161104661Y-60865189D01*
X161158985Y-60858565D01*
X161351511Y-60829043D01*
X161470531Y-60798448D01*
X161518205Y-60766261D01*
X161519225Y-60762216D01*
X161510276Y-60698766D01*
X161478538Y-60592590D01*
X161432826Y-60466605D01*
X161381954Y-60343726D01*
X161334737Y-60246872D01*
X161299991Y-60198958D01*
X161282069Y-60196577D01*
X161200333Y-60198206D01*
X161068000Y-60205955D01*
X160900891Y-60218395D01*
X160714829Y-60234096D01*
X160525635Y-60251630D01*
X160349131Y-60269568D01*
X160201138Y-60286479D01*
X160097478Y-60300936D01*
X160053972Y-60311508D01*
X160050648Y-60318207D01*
X159185922Y-60318207D01*
X159119253Y-60114179D01*
X158961640Y-59687251D01*
X158803475Y-59312441D01*
X158646811Y-58994435D01*
X158493704Y-58737915D01*
X158346208Y-58547567D01*
X158206377Y-58428074D01*
X158181193Y-58413821D01*
X158023053Y-58362293D01*
X157861894Y-58362470D01*
X157726447Y-58415128D01*
X157668232Y-58467811D01*
X157584213Y-58616856D01*
X157539642Y-58821415D01*
X157533728Y-59075593D01*
X157565685Y-59373491D01*
X157634724Y-59709214D01*
X157740057Y-60076865D01*
X157880896Y-60470547D01*
X158056453Y-60884362D01*
X158097406Y-60975136D01*
X158183082Y-61182387D01*
X158232447Y-61349120D01*
X158234138Y-61367559D01*
X158245775Y-61494481D01*
X158223338Y-61637615D01*
X158208906Y-61677491D01*
X158165410Y-61797667D01*
X158072262Y-61993782D01*
X158004773Y-62124162D01*
X157926178Y-62265919D01*
X157861459Y-62371724D01*
X157820170Y-62425226D01*
X157780199Y-62441756D01*
X157672533Y-62471727D01*
X157509721Y-62510609D01*
X157302531Y-62555965D01*
X157061731Y-62605361D01*
X156798089Y-62656362D01*
X156601212Y-62693310D01*
X156317378Y-62746067D01*
X156095281Y-62785859D01*
X155926633Y-62813393D01*
X155803146Y-62829375D01*
X155716531Y-62834510D01*
X155658501Y-62829505D01*
X155620766Y-62815066D01*
X155595040Y-62791898D01*
X155573032Y-62760708D01*
X155544552Y-62709020D01*
X155485424Y-62575753D01*
X155411847Y-62388640D01*
X155356350Y-62237288D01*
X156008353Y-62237288D01*
X156189238Y-62232655D01*
X156227104Y-62230836D01*
X156353214Y-62220523D01*
X156525368Y-62203207D01*
X156726163Y-62180976D01*
X156938196Y-62155919D01*
X157144062Y-62130126D01*
X157326360Y-62105687D01*
X157467684Y-62084689D01*
X157550632Y-62069223D01*
X157599820Y-62038829D01*
X157676154Y-61959040D01*
X157753046Y-61855701D01*
X157812430Y-61753592D01*
X157836239Y-61677491D01*
X157831523Y-61658126D01*
X157809769Y-61642496D01*
X157762539Y-61633880D01*
X157681462Y-61632503D01*
X157558168Y-61638590D01*
X157384284Y-61652364D01*
X157151440Y-61674050D01*
X156851266Y-61703871D01*
X156831605Y-61705868D01*
X156601623Y-61731282D01*
X156396939Y-61757497D01*
X156230194Y-61782621D01*
X156114030Y-61804766D01*
X156061086Y-61822039D01*
X156049928Y-61834561D01*
X156019614Y-61919961D01*
X156008353Y-62051546D01*
X156008353Y-62104004D01*
X156008353Y-62237288D01*
X155356350Y-62237288D01*
X155327817Y-62159473D01*
X155237330Y-61900045D01*
X155144382Y-61622148D01*
X155052969Y-61337575D01*
X154967086Y-61058118D01*
X154966091Y-61054695D01*
X155594422Y-61054695D01*
X155601812Y-61209102D01*
X155638544Y-61459402D01*
X155740555Y-61799357D01*
X155858194Y-62104004D01*
X155840648Y-61799357D01*
X155833378Y-61715042D01*
X155805868Y-61533797D01*
X155765244Y-61347683D01*
X155716854Y-61176845D01*
X155666048Y-61041428D01*
X155618175Y-60961575D01*
X155600200Y-60971905D01*
X155594422Y-61054695D01*
X154966091Y-61054695D01*
X154890731Y-60795571D01*
X154883173Y-60767442D01*
X155790242Y-60767442D01*
X155792828Y-60788548D01*
X155811897Y-60869637D01*
X155845285Y-60996778D01*
X155888992Y-61154299D01*
X155996407Y-61532790D01*
X156240386Y-61537509D01*
X156265754Y-61537720D01*
X156402207Y-61533838D01*
X156579971Y-61523403D01*
X156784382Y-61507864D01*
X157000778Y-61488668D01*
X157214495Y-61467263D01*
X157410869Y-61445097D01*
X157575237Y-61423618D01*
X157692937Y-61404274D01*
X157749304Y-61388513D01*
X157763377Y-61367559D01*
X157762120Y-61305453D01*
X157734204Y-61195464D01*
X157677473Y-61026744D01*
X157650359Y-60951989D01*
X157597130Y-60812972D01*
X157553740Y-60709594D01*
X157527627Y-60660056D01*
X157517946Y-60657403D01*
X157446976Y-60655179D01*
X157319018Y-60657859D01*
X157147329Y-60664623D01*
X156945164Y-60674651D01*
X156725781Y-60687126D01*
X156502435Y-60701226D01*
X156306590Y-60714865D01*
X156288383Y-60716133D01*
X156096881Y-60731028D01*
X155941186Y-60745090D01*
X155834555Y-60757502D01*
X155790242Y-60767442D01*
X154883173Y-60767442D01*
X154827898Y-60561725D01*
X154795898Y-60433738D01*
X154727306Y-60136292D01*
X154679319Y-59879950D01*
X154648799Y-59642325D01*
X154634692Y-59432124D01*
X155141410Y-59432124D01*
X155150223Y-59632871D01*
X155183303Y-59873944D01*
X155213618Y-60038789D01*
X155258465Y-60243873D01*
X155306160Y-60427741D01*
X155353299Y-60579671D01*
X155396475Y-60688940D01*
X155432282Y-60744824D01*
X155457314Y-60736601D01*
X155462211Y-60714865D01*
X155458436Y-60613656D01*
X155432803Y-60452841D01*
X155386616Y-60241549D01*
X155314424Y-59916551D01*
X155240669Y-59500188D01*
X155198795Y-59133689D01*
X155198746Y-59133029D01*
X155191735Y-59066124D01*
X155183466Y-59059036D01*
X155171845Y-59117090D01*
X155154780Y-59245609D01*
X155141410Y-59432124D01*
X154634692Y-59432124D01*
X154632605Y-59401034D01*
X154627597Y-59133689D01*
X154642120Y-58894078D01*
X155323049Y-58894078D01*
X155328407Y-59057922D01*
X155348824Y-59291296D01*
X155381734Y-59539298D01*
X155424191Y-59786826D01*
X155473249Y-60018778D01*
X155525960Y-60220052D01*
X155579378Y-60375544D01*
X155630557Y-60470154D01*
X155636966Y-60476868D01*
X155707517Y-60512287D01*
X155795655Y-60525575D01*
X155859203Y-60509477D01*
X155895054Y-60502366D01*
X155995541Y-60489445D01*
X156148160Y-60472413D01*
X156340595Y-60452641D01*
X156560527Y-60431498D01*
X156757793Y-60412701D01*
X156966626Y-60391797D01*
X157141956Y-60373164D01*
X157269664Y-60358310D01*
X157335632Y-60348743D01*
X157342193Y-60347357D01*
X157377292Y-60337546D01*
X157399851Y-60318353D01*
X157409420Y-60278903D01*
X157405549Y-60208323D01*
X157387787Y-60095742D01*
X157355683Y-59930285D01*
X157308786Y-59701081D01*
X157271410Y-59506500D01*
X157213941Y-59093590D01*
X157199301Y-58738148D01*
X157228107Y-58435902D01*
X157300200Y-58185266D01*
X157503458Y-58185266D01*
X157539820Y-58188937D01*
X157632224Y-58183226D01*
X157758311Y-58168638D01*
X157890869Y-58155768D01*
X158175581Y-58171812D01*
X158426715Y-58254889D01*
X158650098Y-58407470D01*
X158851553Y-58632021D01*
X158864832Y-58650326D01*
X158994498Y-58852107D01*
X159133211Y-59103007D01*
X159270222Y-59381322D01*
X159394780Y-59665351D01*
X159496137Y-59933390D01*
X159508500Y-59969568D01*
X159563859Y-60126210D01*
X159603748Y-60222328D01*
X159634566Y-60268114D01*
X159662713Y-60273761D01*
X159694590Y-60249462D01*
X159702408Y-60241053D01*
X159729657Y-60189671D01*
X159735486Y-60114567D01*
X159718250Y-60003965D01*
X159676307Y-59846087D01*
X159608011Y-59629156D01*
X159585389Y-59561658D01*
X159431742Y-59168964D01*
X159256457Y-58818517D01*
X159063841Y-58514421D01*
X158858203Y-58260778D01*
X158643849Y-58061694D01*
X158425089Y-57921270D01*
X158206228Y-57843611D01*
X157991575Y-57832819D01*
X157785438Y-57892999D01*
X157738941Y-57918220D01*
X157638226Y-57989749D01*
X157555016Y-58068870D01*
X157504898Y-58139427D01*
X157503458Y-58185266D01*
X157300200Y-58185266D01*
X157300973Y-58182578D01*
X157418512Y-57973902D01*
X157581339Y-57805599D01*
X157583326Y-57804008D01*
X157757782Y-57710801D01*
X157972630Y-57668862D01*
X158211087Y-57679380D01*
X158456372Y-57743546D01*
X158622287Y-57823392D01*
X158861564Y-57999619D01*
X159091332Y-58239483D01*
X159306398Y-58535538D01*
X159501570Y-58880340D01*
X159671654Y-59266442D01*
X159811458Y-59686399D01*
X159817211Y-59706396D01*
X159862885Y-59846797D01*
X159907918Y-59958716D01*
X159943328Y-60019467D01*
X159952709Y-60027576D01*
X159991144Y-60044641D01*
X160056353Y-60052698D01*
X160160559Y-60051835D01*
X160315986Y-60042139D01*
X160534858Y-60023698D01*
X160603020Y-60017402D01*
X160793555Y-59997613D01*
X160953484Y-59977840D01*
X161067699Y-59960076D01*
X161121095Y-59946316D01*
X161133324Y-59921424D01*
X161126504Y-59832764D01*
X161090638Y-59692347D01*
X161029156Y-59510018D01*
X160945487Y-59295620D01*
X160843060Y-59059000D01*
X160725304Y-58810001D01*
X160574880Y-58524863D01*
X160300275Y-58086044D01*
X159999940Y-57696360D01*
X159679923Y-57362563D01*
X159346275Y-57091406D01*
X159005044Y-56889642D01*
X158763771Y-56783570D01*
X158409435Y-56670031D01*
X158061845Y-56614806D01*
X157701178Y-56613699D01*
X157700260Y-56613759D01*
X157201688Y-56672877D01*
X156761605Y-56780672D01*
X156380062Y-56937097D01*
X156057111Y-57142102D01*
X155792804Y-57395636D01*
X155587192Y-57697650D01*
X155440328Y-58048095D01*
X155352263Y-58446921D01*
X155323049Y-58894078D01*
X154642120Y-58894078D01*
X154657958Y-58632775D01*
X154755295Y-58150922D01*
X154921805Y-57695514D01*
X155159646Y-57260684D01*
X155470976Y-56840566D01*
X155702121Y-56565734D01*
X155541069Y-56524769D01*
X155356275Y-56475781D01*
X155076913Y-56393008D01*
X154845589Y-56312832D01*
X154675921Y-56239740D01*
X154673257Y-56238393D01*
X154470997Y-56156413D01*
X154299160Y-56135937D01*
X154142093Y-56177953D01*
X153984145Y-56283450D01*
X153951190Y-56310397D01*
X153675211Y-56486716D01*
X153373215Y-56602676D01*
X153060517Y-56653893D01*
X152752431Y-56635985D01*
X152599183Y-56600285D01*
X152296886Y-56474035D01*
X152028825Y-56280379D01*
X151796293Y-56020374D01*
X151600581Y-55695075D01*
X151554112Y-55598843D01*
X151501687Y-55473094D01*
X151470603Y-55357607D01*
X151453996Y-55223573D01*
X151445001Y-55042187D01*
X151445772Y-54822402D01*
X151459993Y-54708316D01*
X152139333Y-54708316D01*
X152141116Y-54953189D01*
X152198751Y-55189857D01*
X152312143Y-55407324D01*
X152481195Y-55594592D01*
X152705811Y-55740664D01*
X152737235Y-55755318D01*
X152986553Y-55837131D01*
X153227876Y-55858360D01*
X153444582Y-55817282D01*
X153559259Y-55763496D01*
X153750999Y-55625618D01*
X153922039Y-55446397D01*
X154050154Y-55246769D01*
X154082632Y-55177753D01*
X154125070Y-55059820D01*
X154139495Y-54944349D01*
X154132961Y-54792668D01*
X154121180Y-54698067D01*
X154048595Y-54450627D01*
X153925387Y-54231314D01*
X153761668Y-54046602D01*
X153567552Y-53902964D01*
X153353153Y-53806875D01*
X153128584Y-53764807D01*
X152903958Y-53783234D01*
X152689388Y-53868630D01*
X152470067Y-54034439D01*
X152303712Y-54237944D01*
X152193500Y-54466236D01*
X152139333Y-54708316D01*
X151459993Y-54708316D01*
X151472515Y-54607863D01*
X151533329Y-54406818D01*
X151635138Y-54197153D01*
X151784867Y-53956754D01*
X151799978Y-53933946D01*
X151909418Y-53745691D01*
X151964154Y-53592080D01*
X151967114Y-53459762D01*
X151921228Y-53335391D01*
X151873384Y-53249237D01*
X151741693Y-53386281D01*
X151662138Y-53463844D01*
X151495824Y-53609931D01*
X151292072Y-53775748D01*
X151067254Y-53948494D01*
X150837739Y-54115366D01*
X150619897Y-54263562D01*
X150573922Y-54293107D01*
X150385063Y-54408016D01*
X150174617Y-54527951D01*
X149955025Y-54646640D01*
X149738727Y-54757812D01*
X149538162Y-54855196D01*
X149365772Y-54932520D01*
X149233996Y-54983514D01*
X149155273Y-55001905D01*
X149146955Y-55001345D01*
X149067021Y-54983540D01*
X148930974Y-54943674D01*
X148751374Y-54885768D01*
X148540783Y-54813841D01*
X148311760Y-54731915D01*
X148310652Y-54731510D01*
X148074551Y-54645612D01*
X147784781Y-54540879D01*
X147459393Y-54423794D01*
X147116438Y-54300839D01*
X146773968Y-54178497D01*
X146450032Y-54063253D01*
X146319406Y-54016589D01*
X146049628Y-53918199D01*
X145806226Y-53826743D01*
X145598320Y-53745811D01*
X145435031Y-53678996D01*
X145325480Y-53629887D01*
X145278788Y-53602078D01*
X145256999Y-53551579D01*
X145244893Y-53434451D01*
X145251309Y-53252074D01*
X145252257Y-53238704D01*
X145252888Y-53229780D01*
X145707454Y-53229780D01*
X146202506Y-53409014D01*
X146319268Y-53451140D01*
X146536021Y-53528933D01*
X146796272Y-53621995D01*
X147083354Y-53724377D01*
X147380602Y-53830131D01*
X147671349Y-53933308D01*
X147678186Y-53935730D01*
X147936291Y-54026624D01*
X148171468Y-54108419D01*
X148373960Y-54177803D01*
X148534012Y-54231464D01*
X148641866Y-54266089D01*
X148687767Y-54278367D01*
X148709787Y-54276251D01*
X148734054Y-54259804D01*
X148751572Y-54216490D01*
X148753006Y-54207671D01*
X149163257Y-54207671D01*
X149179315Y-54237055D01*
X149194625Y-54233747D01*
X149274858Y-54206287D01*
X149400160Y-54157269D01*
X149553992Y-54093815D01*
X149719816Y-54023050D01*
X149881091Y-53952099D01*
X150021279Y-53888085D01*
X150123841Y-53838132D01*
X150172237Y-53809364D01*
X150178360Y-53802354D01*
X150194073Y-53772945D01*
X150208057Y-53724145D01*
X150220773Y-53649653D01*
X150228634Y-53579333D01*
X150460343Y-53579333D01*
X150489631Y-53570475D01*
X150566469Y-53519647D01*
X150679090Y-53433883D01*
X150816697Y-53322175D01*
X150968495Y-53193515D01*
X151123688Y-53056895D01*
X151271481Y-52921309D01*
X151401077Y-52795748D01*
X151678450Y-52503877D01*
X152124847Y-52503877D01*
X152131043Y-52536312D01*
X152158249Y-52631198D01*
X152201922Y-52768071D01*
X152256367Y-52930578D01*
X152315891Y-53102366D01*
X152374800Y-53267083D01*
X152427402Y-53408376D01*
X152468003Y-53509892D01*
X152490909Y-53555279D01*
X152523932Y-53563519D01*
X152613879Y-53556407D01*
X152733391Y-53530661D01*
X152886000Y-53500171D01*
X153150261Y-53488198D01*
X153409442Y-53520664D01*
X153633723Y-53595424D01*
X153752306Y-53663722D01*
X153955136Y-53826284D01*
X154139189Y-54027479D01*
X154282026Y-54244829D01*
X154312027Y-54303359D01*
X154348059Y-54386533D01*
X154371034Y-54471280D01*
X154383978Y-54576244D01*
X154389921Y-54720071D01*
X154391889Y-54921409D01*
X154391985Y-54944349D01*
X154393866Y-55393087D01*
X154502788Y-55479939D01*
X154689089Y-55605243D01*
X154952403Y-55739697D01*
X155257951Y-55863134D01*
X155587890Y-55969181D01*
X155924379Y-56051469D01*
X156249572Y-56103626D01*
X156350942Y-56113576D01*
X156625392Y-56130691D01*
X156922328Y-56138078D01*
X157217240Y-56135762D01*
X157485619Y-56123768D01*
X157702956Y-56102121D01*
X157973350Y-56050062D01*
X158310226Y-55958426D01*
X158651824Y-55841020D01*
X158967617Y-55707374D01*
X159269860Y-55550422D01*
X159677207Y-55291653D01*
X160084027Y-54976305D01*
X160501591Y-54596211D01*
X160531648Y-54566961D01*
X160694824Y-54407471D01*
X160810751Y-54291083D01*
X160885857Y-54209213D01*
X160926569Y-54153277D01*
X160939311Y-54114690D01*
X160930512Y-54084869D01*
X160928439Y-54082300D01*
X161961916Y-54082300D01*
X161992991Y-54340425D01*
X161998356Y-54377777D01*
X162033595Y-54532743D01*
X162087671Y-54702663D01*
X162153136Y-54869765D01*
X162222541Y-55016277D01*
X162288437Y-55124427D01*
X162343377Y-55176445D01*
X162387969Y-55175105D01*
X162484215Y-55145843D01*
X162602024Y-55093304D01*
X162706182Y-55046731D01*
X162954690Y-54987011D01*
X163193409Y-54997124D01*
X163412457Y-55072683D01*
X163601951Y-55209305D01*
X163752005Y-55402604D01*
X163852739Y-55648196D01*
X163854226Y-55653794D01*
X163877921Y-55869698D01*
X163876164Y-55877767D01*
X163831694Y-56081944D01*
X163713360Y-56300753D01*
X163642547Y-56407553D01*
X163609994Y-56474595D01*
X163611828Y-56519547D01*
X163642691Y-56562237D01*
X163715537Y-56620645D01*
X163857578Y-56697664D01*
X164039501Y-56773236D01*
X164241925Y-56839482D01*
X164445468Y-56888524D01*
X164651189Y-56916401D01*
X164913203Y-56933591D01*
X165200338Y-56938978D01*
X165487493Y-56932620D01*
X165749569Y-56914579D01*
X165961466Y-56884913D01*
X165979828Y-56881219D01*
X166452956Y-56752744D01*
X166726738Y-56636992D01*
X167646512Y-56636992D01*
X167729664Y-56680447D01*
X167850927Y-56691471D01*
X167956717Y-56656677D01*
X167981772Y-56635747D01*
X168028512Y-56553988D01*
X168049399Y-56419703D01*
X168054000Y-56358217D01*
X168068679Y-56278943D01*
X168100900Y-56246053D01*
X168163316Y-56239536D01*
X168213802Y-56231291D01*
X168311695Y-56180161D01*
X168390437Y-56102007D01*
X168422746Y-56019921D01*
X168411248Y-55972984D01*
X168367939Y-55894566D01*
X168347637Y-55869638D01*
X168317022Y-55853427D01*
X168274651Y-55870071D01*
X168230676Y-55906572D01*
X168206532Y-55926612D01*
X168098675Y-56030091D01*
X168033960Y-56094865D01*
X167897248Y-56242593D01*
X167781831Y-56381832D01*
X167696025Y-56501420D01*
X167648146Y-56590194D01*
X167646512Y-56636992D01*
X166726738Y-56636992D01*
X166884784Y-56570172D01*
X167270115Y-56337185D01*
X167463783Y-56174817D01*
X167706914Y-56174817D01*
X167713602Y-56200020D01*
X167753883Y-56243644D01*
X167814019Y-56220315D01*
X167885411Y-56132092D01*
X167910348Y-56088891D01*
X167955320Y-55982293D01*
X167963190Y-55906572D01*
X167931079Y-55877767D01*
X167904867Y-55887507D01*
X167841669Y-55943740D01*
X167774570Y-56027650D01*
X167723131Y-56113316D01*
X167706914Y-56174817D01*
X167463783Y-56174817D01*
X167603752Y-56057469D01*
X167880495Y-55734707D01*
X168095148Y-55372585D01*
X168247396Y-54976884D01*
X168350588Y-54538689D01*
X168381169Y-54269638D01*
X168632002Y-54269638D01*
X168661689Y-54509435D01*
X168752093Y-54736474D01*
X168763364Y-54755876D01*
X168932059Y-54966703D01*
X169156784Y-55134881D01*
X169425916Y-55251524D01*
X169487754Y-55267618D01*
X169644166Y-55295148D01*
X169828375Y-55315902D01*
X170019798Y-55328724D01*
X170197851Y-55332456D01*
X170341952Y-55325942D01*
X170431517Y-55308026D01*
X170492971Y-55255978D01*
X170519463Y-55160740D01*
X170495748Y-55050718D01*
X170490010Y-55042721D01*
X170669523Y-55042721D01*
X170669766Y-55081249D01*
X170674891Y-55160740D01*
X170677389Y-55199493D01*
X170699951Y-55267341D01*
X170743181Y-55305213D01*
X170746287Y-55306853D01*
X170851676Y-55340535D01*
X170944112Y-55335296D01*
X170996569Y-55292493D01*
X171003130Y-55258670D01*
X171007968Y-55160834D01*
X171004894Y-55035657D01*
X170997636Y-54936901D01*
X170981062Y-54862814D01*
X170945410Y-54827299D01*
X170878968Y-54809304D01*
X170859273Y-54805698D01*
X170758583Y-54797302D01*
X170701250Y-54825254D01*
X170675491Y-54902683D01*
X170669523Y-55042721D01*
X170490010Y-55042721D01*
X170422399Y-54948493D01*
X170391352Y-54922689D01*
X170313716Y-54882005D01*
X170203081Y-54856069D01*
X170037885Y-54838724D01*
X170000077Y-54835392D01*
X169766775Y-54793999D01*
X169557378Y-54722853D01*
X169389164Y-54629206D01*
X169279413Y-54520313D01*
X169226374Y-54392428D01*
X169215774Y-54223893D01*
X169261160Y-54067740D01*
X169265978Y-54059169D01*
X169365644Y-53951639D01*
X169522173Y-53855474D01*
X169717730Y-53777872D01*
X169934478Y-53726032D01*
X170154584Y-53707153D01*
X170182202Y-53706360D01*
X170309262Y-53670975D01*
X170380607Y-53583694D01*
X170395452Y-53445370D01*
X170385176Y-53322394D01*
X170566181Y-53322394D01*
X170566401Y-53409502D01*
X170582000Y-53523116D01*
X170597095Y-53594541D01*
X170625152Y-53660837D01*
X170679976Y-53688695D01*
X170786207Y-53699388D01*
X170835907Y-53701631D01*
X170932274Y-53699152D01*
X170981163Y-53687467D01*
X170990833Y-53658225D01*
X170990739Y-53573052D01*
X170977140Y-53464635D01*
X170954250Y-53362903D01*
X170926284Y-53297782D01*
X170900097Y-53277709D01*
X170815266Y-53254565D01*
X170711363Y-53251627D01*
X170619367Y-53268340D01*
X170570261Y-53304150D01*
X170566181Y-53322394D01*
X170385176Y-53322394D01*
X170383915Y-53307303D01*
X170091869Y-53296236D01*
X169898796Y-53298187D01*
X169600345Y-53335227D01*
X169319630Y-53408914D01*
X169075182Y-53513892D01*
X168937839Y-53608700D01*
X168885532Y-53644808D01*
X168746454Y-53819887D01*
X168660951Y-54034112D01*
X168632002Y-54269638D01*
X168381169Y-54269638D01*
X168403086Y-54076806D01*
X168403892Y-53608700D01*
X168352008Y-53151836D01*
X168246438Y-52723678D01*
X168108934Y-52378395D01*
X167885929Y-51994041D01*
X167607071Y-51657298D01*
X167276789Y-51373346D01*
X166899508Y-51147366D01*
X166689872Y-51049117D01*
X166484399Y-50966076D01*
X166287525Y-50905342D01*
X166082339Y-50863544D01*
X165851925Y-50837310D01*
X165579372Y-50823267D01*
X165247765Y-50818044D01*
X165028549Y-50818200D01*
X164728876Y-50825337D01*
X164480717Y-50843094D01*
X164269063Y-50873911D01*
X164078903Y-50920229D01*
X163895226Y-50984485D01*
X163703023Y-51069121D01*
X163601577Y-51122661D01*
X163345793Y-51300909D01*
X163093117Y-51533832D01*
X162924240Y-51730087D01*
X162857655Y-51807466D01*
X162653516Y-52107850D01*
X162604571Y-52190617D01*
X162535827Y-52314275D01*
X162492090Y-52415608D01*
X162480139Y-52463102D01*
X162466022Y-52519207D01*
X162450285Y-52649661D01*
X162437538Y-52831563D01*
X162436201Y-52851825D01*
X162435908Y-52856265D01*
X162401011Y-53168691D01*
X162339471Y-53429039D01*
X162245025Y-53657316D01*
X162111413Y-53873529D01*
X161961916Y-54082300D01*
X160928439Y-54082300D01*
X160906597Y-54055230D01*
X160891696Y-54037480D01*
X160853979Y-53952195D01*
X160858295Y-53832615D01*
X160863756Y-53797093D01*
X161038173Y-53797093D01*
X161044985Y-53915121D01*
X161076831Y-53976818D01*
X161110583Y-53989201D01*
X161213043Y-54003690D01*
X161348316Y-54009584D01*
X161489298Y-54006916D01*
X161608883Y-53995723D01*
X161679967Y-53976039D01*
X161714103Y-53938724D01*
X161688021Y-53885271D01*
X161667350Y-53843998D01*
X161680234Y-53782863D01*
X161738071Y-53686650D01*
X161763681Y-53646994D01*
X161814527Y-53553114D01*
X161834740Y-53490662D01*
X161827859Y-53463048D01*
X161775232Y-53385502D01*
X161687683Y-53299770D01*
X161585573Y-53227368D01*
X161553682Y-53207774D01*
X161532080Y-53177198D01*
X161543369Y-53125043D01*
X161563963Y-53080019D01*
X161735932Y-53080019D01*
X161756502Y-53163174D01*
X161826160Y-53265268D01*
X161844907Y-53287661D01*
X161915468Y-53419305D01*
X161910749Y-53541651D01*
X161830736Y-53653655D01*
X161784578Y-53706831D01*
X161758578Y-53767929D01*
X161760256Y-53792630D01*
X161788590Y-53837573D01*
X161844857Y-53828119D01*
X161919855Y-53772394D01*
X162004379Y-53678527D01*
X162089225Y-53554645D01*
X162165189Y-53408875D01*
X162185078Y-53359917D01*
X162225680Y-53232359D01*
X162258666Y-53093926D01*
X162281463Y-52961466D01*
X162291498Y-52851825D01*
X162286200Y-52781848D01*
X162262995Y-52768382D01*
X162256236Y-52774173D01*
X162223629Y-52837506D01*
X162197952Y-52936992D01*
X162195065Y-52953817D01*
X162166268Y-53081076D01*
X162129102Y-53142076D01*
X162071921Y-53145693D01*
X161983081Y-53100807D01*
X161959488Y-53086889D01*
X161867039Y-53040593D01*
X161804984Y-53021838D01*
X161765687Y-53030035D01*
X161735932Y-53080019D01*
X161563963Y-53080019D01*
X161587812Y-53027880D01*
X161629428Y-52951010D01*
X161695975Y-52884340D01*
X161777482Y-52884132D01*
X161891861Y-52945533D01*
X161904524Y-52953762D01*
X161990041Y-53001728D01*
X162046756Y-53021444D01*
X162065511Y-53005509D01*
X162096218Y-52933037D01*
X162122918Y-52821770D01*
X162126928Y-52799739D01*
X162153678Y-52689586D01*
X162186403Y-52635950D01*
X162234590Y-52621845D01*
X162270946Y-52614767D01*
X162316495Y-52559681D01*
X162318609Y-52463102D01*
X162275022Y-52340784D01*
X162252345Y-52304000D01*
X162176911Y-52213909D01*
X162083331Y-52125549D01*
X161993329Y-52058312D01*
X161928632Y-52031590D01*
X161887395Y-52050228D01*
X161807121Y-52122310D01*
X161705717Y-52236386D01*
X161593371Y-52379340D01*
X161501973Y-52507602D01*
X161480271Y-52538058D01*
X161376605Y-52699426D01*
X161292562Y-52850331D01*
X161281989Y-52871828D01*
X161205475Y-53053009D01*
X161140046Y-53250692D01*
X161088493Y-53450312D01*
X161053605Y-53637301D01*
X161038173Y-53797093D01*
X160863756Y-53797093D01*
X160875727Y-53719222D01*
X160901918Y-53534082D01*
X160913876Y-53402062D01*
X160910246Y-53308312D01*
X160889677Y-53237982D01*
X160850816Y-53176222D01*
X160792311Y-53108182D01*
X160690322Y-52968780D01*
X160654768Y-52846289D01*
X160810146Y-52846289D01*
X160835106Y-52935018D01*
X160918906Y-53001677D01*
X160927596Y-53006153D01*
X161004731Y-53044079D01*
X161042669Y-53059486D01*
X161046055Y-53056242D01*
X161076382Y-53006949D01*
X161129499Y-52910675D01*
X161196504Y-52783399D01*
X161338928Y-52507602D01*
X161253626Y-52441249D01*
X161173618Y-52394040D01*
X161099761Y-52395434D01*
X161023231Y-52455113D01*
X160930317Y-52578917D01*
X160844260Y-52726833D01*
X160810146Y-52846289D01*
X160654768Y-52846289D01*
X160654602Y-52845716D01*
X160668194Y-52753315D01*
X160713734Y-52617189D01*
X160779438Y-52478898D01*
X160852897Y-52363905D01*
X160921700Y-52297674D01*
X160926846Y-52295077D01*
X161034831Y-52271971D01*
X161193664Y-52275010D01*
X161384103Y-52303931D01*
X161425799Y-52293256D01*
X161510409Y-52223430D01*
X161622109Y-52093650D01*
X161680283Y-52017104D01*
X161740109Y-51924498D01*
X161777235Y-51833969D01*
X161793630Y-51730087D01*
X161791261Y-51597424D01*
X161772095Y-51420551D01*
X161738100Y-51184038D01*
X161699999Y-50954798D01*
X161592236Y-50456149D01*
X161516103Y-50189412D01*
X162025145Y-50189412D01*
X162029028Y-50208123D01*
X162048324Y-50287326D01*
X162080135Y-50413142D01*
X162120347Y-50569166D01*
X162136761Y-50634602D01*
X162196805Y-50958125D01*
X162215550Y-51272800D01*
X162215828Y-51348625D01*
X162219904Y-51487155D01*
X162231365Y-51572585D01*
X162253402Y-51621239D01*
X162289208Y-51649441D01*
X162364990Y-51682226D01*
X162425248Y-51673013D01*
X162471515Y-51603180D01*
X162537957Y-51484853D01*
X162702393Y-51279847D01*
X162918261Y-51080993D01*
X163170581Y-50899841D01*
X163444374Y-50747942D01*
X163724663Y-50636845D01*
X163777894Y-50619770D01*
X163915404Y-50569384D01*
X163996916Y-50528443D01*
X164013416Y-50501181D01*
X164009348Y-50497287D01*
X163977407Y-50477815D01*
X163925377Y-50467665D01*
X163839347Y-50466529D01*
X163705408Y-50474102D01*
X163509649Y-50490077D01*
X163438998Y-50495322D01*
X163072353Y-50490516D01*
X162712736Y-50427283D01*
X162613819Y-50394259D01*
X164728893Y-50394259D01*
X164748627Y-50443865D01*
X164794795Y-50501181D01*
X164813457Y-50524349D01*
X164901942Y-50607450D01*
X164991592Y-50672482D01*
X165059918Y-50698757D01*
X165096861Y-50683071D01*
X165147783Y-50622595D01*
X165187813Y-50577255D01*
X165268233Y-50546433D01*
X165276326Y-50546356D01*
X165321644Y-50535569D01*
X165334902Y-50492004D01*
X165323694Y-50394915D01*
X165320858Y-50376803D01*
X165313218Y-50286796D01*
X165333712Y-50242808D01*
X165391977Y-50220179D01*
X165496578Y-50205608D01*
X165593071Y-50231875D01*
X165635964Y-50308816D01*
X165636112Y-50309842D01*
X165657471Y-50371521D01*
X165704483Y-50388066D01*
X165788218Y-50358412D01*
X165919745Y-50281493D01*
X165985988Y-50242427D01*
X166076857Y-50203380D01*
X166121419Y-50207864D01*
X166128858Y-50221643D01*
X166132181Y-50253968D01*
X166128913Y-50255922D01*
X166082398Y-50287044D01*
X166003868Y-50341283D01*
X165901265Y-50406885D01*
X165795142Y-50447957D01*
X165706021Y-50437238D01*
X165613491Y-50376576D01*
X165555974Y-50331794D01*
X165497976Y-50307138D01*
X165458425Y-50329766D01*
X165438547Y-50374606D01*
X165439144Y-50461654D01*
X165442126Y-50474605D01*
X165432086Y-50540581D01*
X165360402Y-50589997D01*
X165294170Y-50633658D01*
X165273493Y-50676758D01*
X165274461Y-50679379D01*
X165326402Y-50715225D01*
X165428289Y-50725623D01*
X165560084Y-50712486D01*
X165701747Y-50677731D01*
X165833241Y-50623271D01*
X165944210Y-50557089D01*
X166062000Y-50469285D01*
X166144736Y-50387290D01*
X166175969Y-50325402D01*
X166175969Y-50325364D01*
X166200569Y-50257065D01*
X166259652Y-50176659D01*
X166283628Y-50145436D01*
X166330100Y-50027544D01*
X166340815Y-49895707D01*
X166310848Y-49787394D01*
X166298635Y-49777053D01*
X166222358Y-49757469D01*
X166097102Y-49748341D01*
X165941948Y-49749212D01*
X165775977Y-49759621D01*
X165618268Y-49779109D01*
X165487904Y-49807215D01*
X165347923Y-49857056D01*
X165161478Y-49949176D01*
X164992700Y-50059515D01*
X164855242Y-50177514D01*
X164762756Y-50292615D01*
X164728893Y-50394259D01*
X162613819Y-50394259D01*
X162337396Y-50301973D01*
X162270749Y-50275408D01*
X162144851Y-50227194D01*
X162057709Y-50196628D01*
X162025145Y-50189412D01*
X161516103Y-50189412D01*
X161455781Y-49978071D01*
X161296195Y-49538776D01*
X161119039Y-49156478D01*
X160977918Y-48889911D01*
X160666632Y-48903449D01*
X160459149Y-48902977D01*
X160210588Y-48865213D01*
X159997835Y-48779278D01*
X159803625Y-48639901D01*
X159655772Y-48489484D01*
X159542599Y-48306957D01*
X159487746Y-48100072D01*
X159485375Y-47964597D01*
X159641894Y-47964597D01*
X159692711Y-48145259D01*
X159808742Y-48360762D01*
X159968378Y-48545500D01*
X160155572Y-48677212D01*
X160312942Y-48741673D01*
X160499123Y-48769436D01*
X160699145Y-48740090D01*
X160829583Y-48695985D01*
X161035837Y-48573821D01*
X161191013Y-48407959D01*
X161288844Y-48208910D01*
X161323065Y-47987186D01*
X161287408Y-47753299D01*
X161258298Y-47670023D01*
X161141853Y-47447979D01*
X160987675Y-47264663D01*
X160806757Y-47127166D01*
X160610092Y-47042581D01*
X160408673Y-47017998D01*
X160213494Y-47060511D01*
X160188083Y-47071617D01*
X159993989Y-47193924D01*
X159832032Y-47360652D01*
X159712504Y-47555524D01*
X159645694Y-47762264D01*
X159641894Y-47964597D01*
X159485375Y-47964597D01*
X159483360Y-47849445D01*
X159485208Y-47823715D01*
X159522161Y-47573315D01*
X159587735Y-47370185D01*
X159673004Y-47183293D01*
X159582883Y-47115146D01*
X159581340Y-47113987D01*
X159488298Y-47055208D01*
X159341181Y-46974583D01*
X159155699Y-46879641D01*
X158947560Y-46777910D01*
X158732472Y-46676918D01*
X158526146Y-46584194D01*
X158344288Y-46507266D01*
X158202610Y-46453662D01*
X157966910Y-46380451D01*
X157619231Y-46301099D01*
X157260177Y-46256951D01*
X156859599Y-46243285D01*
X156767306Y-46243718D01*
X156433786Y-46255069D01*
X156128951Y-46284881D01*
X155820013Y-46337250D01*
X155474182Y-46416268D01*
X155439547Y-46425061D01*
X155181471Y-46498525D01*
X154917588Y-46585887D01*
X154661153Y-46681645D01*
X154425421Y-46780298D01*
X154223646Y-46876342D01*
X154069086Y-46964275D01*
X153974994Y-47038596D01*
X153880991Y-47194208D01*
X153822330Y-47413456D01*
X153801199Y-47690361D01*
X153795997Y-47889441D01*
X153790255Y-47982319D01*
X153775504Y-48220919D01*
X153742067Y-48580111D01*
X153698357Y-48939604D01*
X153647048Y-49271984D01*
X153607956Y-49480818D01*
X153467775Y-50060810D01*
X153285699Y-50594301D01*
X153054308Y-51098213D01*
X152766186Y-51589468D01*
X152413914Y-52084986D01*
X152405169Y-52096384D01*
X152295758Y-52242463D01*
X152206586Y-52367739D01*
X152146625Y-52459211D01*
X152124847Y-52503877D01*
X151678450Y-52503877D01*
X151680476Y-52501745D01*
X152117997Y-51973906D01*
X152496652Y-51418913D01*
X152827418Y-50821572D01*
X152841031Y-50794100D01*
X153084988Y-50243704D01*
X153270846Y-49695322D01*
X153399225Y-49140959D01*
X153470743Y-48572623D01*
X153486019Y-47982319D01*
X153445671Y-47362055D01*
X153350318Y-46703836D01*
X153245873Y-46212672D01*
X160143212Y-46212672D01*
X160144111Y-46426020D01*
X160150900Y-46625007D01*
X160163693Y-46755820D01*
X160182237Y-46814562D01*
X160226920Y-46837299D01*
X160328910Y-46866067D01*
X160459797Y-46890091D01*
X160737125Y-46955837D01*
X160981063Y-47077665D01*
X161184075Y-47257732D01*
X161322254Y-47453093D01*
X161421326Y-47710474D01*
X161452166Y-47987186D01*
X161453930Y-48003016D01*
X161435833Y-48218834D01*
X161369829Y-48413644D01*
X161246298Y-48595464D01*
X161189249Y-48675165D01*
X161163226Y-48761609D01*
X161185305Y-48853413D01*
X161259372Y-48964527D01*
X161389312Y-49108906D01*
X161510042Y-49225341D01*
X161832046Y-49473270D01*
X162213025Y-49694789D01*
X162642615Y-49884312D01*
X163110452Y-50036255D01*
X163196332Y-50057768D01*
X163439170Y-50103125D01*
X163698149Y-50132936D01*
X163960261Y-50147468D01*
X164212495Y-50146988D01*
X164441843Y-50131764D01*
X164635294Y-50102062D01*
X164779841Y-50058150D01*
X164862473Y-50000294D01*
X164870772Y-49987233D01*
X164907170Y-49896700D01*
X164934477Y-49781336D01*
X164952544Y-49711416D01*
X165071622Y-49711416D01*
X165071662Y-49726146D01*
X165077210Y-49790053D01*
X165103350Y-49812755D01*
X165165998Y-49796779D01*
X165281067Y-49744649D01*
X165316815Y-49728687D01*
X165430550Y-49688252D01*
X165516825Y-49671570D01*
X165533550Y-49670874D01*
X165612452Y-49643022D01*
X165625673Y-49585256D01*
X165568514Y-49512080D01*
X165559607Y-49505155D01*
X165437859Y-49452604D01*
X165307963Y-49455068D01*
X165190144Y-49504432D01*
X165104622Y-49592586D01*
X165071622Y-49711416D01*
X164952544Y-49711416D01*
X164971699Y-49637286D01*
X165066970Y-49479487D01*
X165211466Y-49379768D01*
X165261734Y-49361337D01*
X165435824Y-49334464D01*
X165595120Y-49361829D01*
X165722718Y-49438306D01*
X165801717Y-49558771D01*
X165816703Y-49585256D01*
X165845704Y-49636512D01*
X165906599Y-49670571D01*
X165953115Y-49662247D01*
X166070227Y-49606156D01*
X166217345Y-49505711D01*
X166383234Y-49370915D01*
X166556658Y-49211772D01*
X166726381Y-49038286D01*
X166881169Y-48860461D01*
X167009785Y-48688300D01*
X167126386Y-48502034D01*
X167299329Y-48175948D01*
X167446408Y-47837561D01*
X167552709Y-47518997D01*
X167567502Y-47459715D01*
X167612183Y-47193882D01*
X167637968Y-46883894D01*
X167644862Y-46553233D01*
X167637494Y-46351790D01*
X167901717Y-46351790D01*
X167928531Y-46553233D01*
X167942261Y-46656385D01*
X168038650Y-46942658D01*
X168199761Y-47229412D01*
X168415068Y-47464181D01*
X168687564Y-47650112D01*
X169020239Y-47790351D01*
X169112279Y-47813903D01*
X169291495Y-47840828D01*
X169507457Y-47857985D01*
X169746088Y-47865771D01*
X169993308Y-47864587D01*
X170235042Y-47854831D01*
X170457209Y-47836901D01*
X170645733Y-47811197D01*
X170786536Y-47778118D01*
X170865539Y-47738062D01*
X170877400Y-47706552D01*
X170880837Y-47606203D01*
X170868093Y-47454080D01*
X170840446Y-47263492D01*
X170799177Y-47047748D01*
X170798925Y-47046552D01*
X170793278Y-47013725D01*
X170790972Y-47007230D01*
X170970162Y-47007230D01*
X170984524Y-47152894D01*
X171014946Y-47347632D01*
X171038067Y-47478463D01*
X171060600Y-47606203D01*
X171063010Y-47619863D01*
X171080264Y-47717998D01*
X171087037Y-47757003D01*
X171087076Y-47757219D01*
X171116974Y-47762071D01*
X171325661Y-47728890D01*
X171482900Y-47696666D01*
X171581901Y-47657554D01*
X171631325Y-47601298D01*
X171639834Y-47517642D01*
X171616088Y-47396329D01*
X171568748Y-47227103D01*
X171518505Y-47057617D01*
X171468146Y-46917194D01*
X171418949Y-46832486D01*
X171361766Y-46793587D01*
X171287449Y-46790591D01*
X171186848Y-46813594D01*
X171134572Y-46829691D01*
X171034460Y-46869553D01*
X170978965Y-46904928D01*
X170972696Y-46920941D01*
X170970162Y-47007230D01*
X170790972Y-47007230D01*
X170785001Y-46990410D01*
X170763704Y-46976829D01*
X170718999Y-46973204D01*
X170640495Y-46979754D01*
X170517805Y-46996702D01*
X170340539Y-47024269D01*
X170098308Y-47062676D01*
X170053022Y-47069722D01*
X169861019Y-47095622D01*
X169712635Y-47105715D01*
X169582239Y-47100737D01*
X169444199Y-47081421D01*
X169298876Y-47047988D01*
X169061884Y-46949108D01*
X168879952Y-46809802D01*
X168757256Y-46637018D01*
X168697977Y-46437707D01*
X168706291Y-46218816D01*
X168786377Y-45987295D01*
X168854351Y-45872565D01*
X169019263Y-45692652D01*
X169242723Y-45544782D01*
X169529326Y-45426218D01*
X169883669Y-45334224D01*
X169991580Y-45311485D01*
X170134124Y-45278981D01*
X170235888Y-45252633D01*
X170279879Y-45236626D01*
X170289095Y-45206701D01*
X170293580Y-45115413D01*
X170289161Y-44986157D01*
X170276758Y-44840749D01*
X170257290Y-44701006D01*
X170242248Y-44615075D01*
X170400947Y-44615075D01*
X170426257Y-44781374D01*
X170430445Y-44804814D01*
X170460996Y-44948392D01*
X170493155Y-45062428D01*
X170520614Y-45124011D01*
X170538084Y-45142203D01*
X170592433Y-45168002D01*
X170678290Y-45166632D01*
X170815854Y-45139127D01*
X170869098Y-45125490D01*
X170947975Y-45091844D01*
X170985760Y-45037432D01*
X170990432Y-44944441D01*
X170969970Y-44795058D01*
X170955224Y-44704556D01*
X170929407Y-44548668D01*
X170907067Y-44450043D01*
X170879777Y-44396710D01*
X170839108Y-44376699D01*
X170776632Y-44378039D01*
X170683922Y-44388758D01*
X170658357Y-44391441D01*
X170520313Y-44411428D01*
X170438028Y-44445259D01*
X170401555Y-44508089D01*
X170400947Y-44615075D01*
X170242248Y-44615075D01*
X170230626Y-44548682D01*
X170023619Y-44536909D01*
X169968962Y-44536002D01*
X169741489Y-44566500D01*
X169481314Y-44644957D01*
X169202783Y-44764601D01*
X168920245Y-44918662D01*
X168648048Y-45100367D01*
X168400540Y-45302944D01*
X168218212Y-45495485D01*
X168041577Y-45765776D01*
X167935451Y-46053066D01*
X167901717Y-46351790D01*
X167637494Y-46351790D01*
X167632871Y-46225386D01*
X167602001Y-45923837D01*
X167552257Y-45672070D01*
X167452105Y-45356368D01*
X167242849Y-44882301D01*
X166976021Y-44444357D01*
X166659072Y-44056017D01*
X166611833Y-44007443D01*
X166500157Y-43907648D01*
X166424356Y-43865325D01*
X166387653Y-43881663D01*
X166393271Y-43957854D01*
X166404367Y-44013816D01*
X166395790Y-44091390D01*
X166391390Y-44131184D01*
X166314623Y-44217579D01*
X166168674Y-44280754D01*
X166087430Y-44301772D01*
X165785252Y-44331982D01*
X165471224Y-44295267D01*
X165157039Y-44195024D01*
X164854389Y-44034652D01*
X164574967Y-43817549D01*
X164520634Y-43765414D01*
X164371695Y-43601009D01*
X164251095Y-43435862D01*
X164162725Y-43279421D01*
X164121435Y-43170138D01*
X164272155Y-43170138D01*
X164276167Y-43200330D01*
X164326634Y-43305628D01*
X164425433Y-43434705D01*
X164560508Y-43575658D01*
X164719802Y-43716583D01*
X164891259Y-43845578D01*
X165062821Y-43950738D01*
X165184469Y-44007991D01*
X165377328Y-44080687D01*
X165556399Y-44130961D01*
X165736606Y-44162199D01*
X165912995Y-44180391D01*
X166065893Y-44184527D01*
X166178269Y-44174157D01*
X166233091Y-44148832D01*
X166245432Y-44091390D01*
X166207367Y-44062249D01*
X166137893Y-44081505D01*
X166123241Y-44089595D01*
X166056212Y-44106455D01*
X165953430Y-44103502D01*
X165796015Y-44080689D01*
X165451059Y-43988219D01*
X165096327Y-43825833D01*
X164759368Y-43603778D01*
X164454546Y-43330091D01*
X164446341Y-43321546D01*
X164358355Y-43234201D01*
X164295943Y-43179917D01*
X164272155Y-43170138D01*
X164121435Y-43170138D01*
X164110476Y-43141132D01*
X164098238Y-43030443D01*
X164112068Y-42998276D01*
X164462295Y-42998276D01*
X164463953Y-43110320D01*
X164498430Y-43227835D01*
X164562721Y-43324898D01*
X164649910Y-43401871D01*
X164705333Y-43421779D01*
X164735835Y-43385427D01*
X164737213Y-43382241D01*
X164784935Y-43371222D01*
X164888354Y-43403734D01*
X164904584Y-43410117D01*
X165008493Y-43444978D01*
X165163481Y-43491722D01*
X165351419Y-43545016D01*
X165554176Y-43599530D01*
X165623398Y-43617875D01*
X165807725Y-43669319D01*
X165961343Y-43715925D01*
X166069850Y-43753179D01*
X166118848Y-43776565D01*
X166124220Y-43796617D01*
X166072724Y-43803296D01*
X165961271Y-43788854D01*
X165796962Y-43754606D01*
X165586901Y-43701867D01*
X165338188Y-43631954D01*
X165315504Y-43625291D01*
X165131619Y-43571448D01*
X164971016Y-43524701D01*
X164850284Y-43489865D01*
X164786014Y-43471753D01*
X164709852Y-43451418D01*
X164786014Y-43538006D01*
X164872448Y-43609364D01*
X165042502Y-43703405D01*
X165286113Y-43808520D01*
X165602378Y-43924282D01*
X165664815Y-43945326D01*
X165809407Y-43990999D01*
X165923134Y-44022712D01*
X165985583Y-44034589D01*
X166018601Y-44025934D01*
X166103001Y-43966968D01*
X166202465Y-43864628D01*
X166301601Y-43733574D01*
X166337976Y-43651632D01*
X166320746Y-43571615D01*
X166236744Y-43499462D01*
X166081353Y-43428783D01*
X165941192Y-43372547D01*
X165643655Y-43234323D01*
X165330641Y-43067781D01*
X165029737Y-42887131D01*
X164968188Y-42848311D01*
X164842859Y-42773210D01*
X164747096Y-42721199D01*
X164697868Y-42701755D01*
X164659552Y-42722322D01*
X164610431Y-42787438D01*
X164571200Y-42847372D01*
X164513888Y-42903573D01*
X164496460Y-42917622D01*
X164462295Y-42998276D01*
X164112068Y-42998276D01*
X164129900Y-42956803D01*
X164209354Y-42929658D01*
X164262682Y-42923642D01*
X164346793Y-42893763D01*
X164366890Y-42877680D01*
X164361150Y-42849231D01*
X164289671Y-42814566D01*
X164196741Y-42794248D01*
X164037570Y-42782124D01*
X163835823Y-42780044D01*
X163608668Y-42787146D01*
X163373272Y-42802564D01*
X163146805Y-42825435D01*
X162946434Y-42854895D01*
X162789326Y-42890079D01*
X162347001Y-43048856D01*
X161881343Y-43288380D01*
X161456739Y-43586782D01*
X161078745Y-43938805D01*
X160752915Y-44339194D01*
X160601010Y-44590472D01*
X160484808Y-44782691D01*
X160279979Y-45264040D01*
X160264468Y-45309325D01*
X160216386Y-45455781D01*
X160183359Y-45576780D01*
X160162459Y-45692645D01*
X160150754Y-45823699D01*
X160145315Y-45990267D01*
X160143212Y-46212672D01*
X153245873Y-46212672D01*
X153200578Y-45999670D01*
X153190377Y-45958316D01*
X153138920Y-45764936D01*
X153076827Y-45549911D01*
X153008061Y-45325095D01*
X152936586Y-45102343D01*
X152866365Y-44893509D01*
X152801362Y-44710447D01*
X152745538Y-44565012D01*
X152702857Y-44469058D01*
X152677284Y-44434439D01*
X152651221Y-44462645D01*
X152601100Y-44547841D01*
X152535451Y-44676347D01*
X152461750Y-44834289D01*
X152351216Y-45081203D01*
X152161937Y-45504331D01*
X152000590Y-45865744D01*
X151865029Y-46170541D01*
X151753108Y-46423827D01*
X151662683Y-46630703D01*
X151591609Y-46796272D01*
X151537741Y-46925635D01*
X151503988Y-47011097D01*
X151498933Y-47023896D01*
X151473041Y-47096156D01*
X151457919Y-47147517D01*
X151451422Y-47183083D01*
X151451406Y-47207954D01*
X151455725Y-47227234D01*
X151457080Y-47231043D01*
X151493096Y-47296562D01*
X151561111Y-47399468D01*
X151647636Y-47519241D01*
X151670958Y-47550726D01*
X151833627Y-47796508D01*
X151980764Y-48061834D01*
X152099741Y-48322095D01*
X152177928Y-48552679D01*
X152183550Y-48575921D01*
X152211300Y-48738920D01*
X152230744Y-48933991D01*
X152237966Y-49123894D01*
X152236735Y-49200087D01*
X152235726Y-49262498D01*
X152223226Y-49413219D01*
X152195681Y-49533935D01*
X152148534Y-49651530D01*
X152109949Y-49726209D01*
X151939054Y-49952264D01*
X151731777Y-50119897D01*
X151702315Y-50143724D01*
X151398721Y-50301287D01*
X151027258Y-50425653D01*
X151004135Y-50431864D01*
X150871173Y-50469901D01*
X150772070Y-50502091D01*
X150726816Y-50522024D01*
X150723683Y-50526413D01*
X150716237Y-50548236D01*
X150708013Y-50591306D01*
X150698431Y-50661697D01*
X150692542Y-50714766D01*
X150686913Y-50765486D01*
X150672876Y-50908748D01*
X150655742Y-51097557D01*
X150634929Y-51337991D01*
X150609859Y-51636123D01*
X150579949Y-51998030D01*
X150544621Y-52429786D01*
X150535954Y-52536547D01*
X150513816Y-52814273D01*
X150494577Y-53062911D01*
X150478924Y-53273097D01*
X150467543Y-53435471D01*
X150461121Y-53540670D01*
X150460343Y-53579333D01*
X150228634Y-53579333D01*
X150232678Y-53543163D01*
X150244232Y-53398372D01*
X150255894Y-53208976D01*
X150268123Y-52968671D01*
X150281379Y-52671154D01*
X150296120Y-52310120D01*
X150312805Y-51879267D01*
X150318447Y-51725174D01*
X150328457Y-51410379D01*
X150335232Y-51131721D01*
X150338679Y-50897188D01*
X150338707Y-50714766D01*
X150335225Y-50592443D01*
X150328141Y-50538206D01*
X150315456Y-50521307D01*
X150240881Y-50471106D01*
X150133718Y-50430939D01*
X150107665Y-50424035D01*
X149968994Y-50384287D01*
X149848783Y-50345842D01*
X149754185Y-50323904D01*
X149689095Y-50338867D01*
X149688620Y-50339473D01*
X149676266Y-50387885D01*
X149655779Y-50503959D01*
X149628229Y-50680224D01*
X149594687Y-50909210D01*
X149556223Y-51183446D01*
X149513908Y-51495462D01*
X149468812Y-51837789D01*
X149422006Y-52202955D01*
X149420595Y-52214109D01*
X149373946Y-52581602D01*
X149329600Y-52928398D01*
X149288583Y-53246659D01*
X149251919Y-53528545D01*
X149220633Y-53766218D01*
X149195751Y-53951838D01*
X149178297Y-54077566D01*
X149169297Y-54135563D01*
X149163257Y-54207671D01*
X148753006Y-54207671D01*
X148764985Y-54134011D01*
X148776936Y-54000066D01*
X148790068Y-53802355D01*
X148804416Y-53594613D01*
X148856673Y-53012308D01*
X148927373Y-52395220D01*
X149012900Y-51770607D01*
X149109636Y-51165727D01*
X149213965Y-50607838D01*
X149252491Y-50416186D01*
X149284620Y-50241218D01*
X149299946Y-50119897D01*
X149297926Y-50040765D01*
X149278014Y-49992366D01*
X149239667Y-49963243D01*
X149182341Y-49941939D01*
X149153690Y-49933109D01*
X149029733Y-49897206D01*
X148854788Y-49848635D01*
X148639231Y-49790100D01*
X148393442Y-49724306D01*
X148127798Y-49653958D01*
X147852677Y-49581758D01*
X147578457Y-49510411D01*
X147315517Y-49442622D01*
X147074235Y-49381094D01*
X146864988Y-49328532D01*
X146698155Y-49287639D01*
X146584114Y-49261121D01*
X146533242Y-49251680D01*
X146528266Y-49251680D01*
X146502802Y-49253345D01*
X146480615Y-49263189D01*
X146459560Y-49288578D01*
X146437489Y-49336873D01*
X146412258Y-49415440D01*
X146381719Y-49531642D01*
X146343727Y-49692843D01*
X146296135Y-49906406D01*
X146236797Y-50179696D01*
X146163567Y-50520076D01*
X146120412Y-50724309D01*
X146049805Y-51072362D01*
X145980931Y-51427713D01*
X145915838Y-51778684D01*
X145856571Y-52113596D01*
X145805177Y-52420772D01*
X145763702Y-52688533D01*
X145734192Y-52905200D01*
X145718693Y-53059096D01*
X145707454Y-53229780D01*
X145252888Y-53229780D01*
X145261913Y-53102101D01*
X145275553Y-52908794D01*
X145291983Y-52675728D01*
X145310007Y-52419849D01*
X145328430Y-52158103D01*
X145332710Y-52098601D01*
X145391643Y-51465701D01*
X145473775Y-50880790D01*
X145583718Y-50320022D01*
X145726088Y-49759547D01*
X145905499Y-49175518D01*
X145910290Y-49161034D01*
X145973027Y-48977206D01*
X146020954Y-48853695D01*
X146060252Y-48778513D01*
X146097101Y-48739671D01*
X146137683Y-48725180D01*
X146187509Y-48726375D01*
X146302983Y-48742255D01*
X146457863Y-48771255D01*
X146632736Y-48810048D01*
X146763986Y-48841187D01*
X147195259Y-48940191D01*
X147562383Y-49018474D01*
X147872159Y-49077254D01*
X148131392Y-49117750D01*
X148346886Y-49141178D01*
X148525445Y-49148756D01*
X148723346Y-49139564D01*
X148985089Y-49088439D01*
X149184472Y-48994401D01*
X149320254Y-48859633D01*
X149391195Y-48686318D01*
X149396054Y-48476640D01*
X149333591Y-48232782D01*
X149202565Y-47956928D01*
X149103393Y-47802783D01*
X148940178Y-47586514D01*
X148734005Y-47339551D01*
X148493646Y-47071122D01*
X148339407Y-46908240D01*
X149039748Y-46908240D01*
X149083005Y-46969540D01*
X149165587Y-47063353D01*
X149278814Y-47179126D01*
X149447590Y-47351025D01*
X149649958Y-47585666D01*
X149796808Y-47802902D01*
X149894592Y-48014818D01*
X149949764Y-48233497D01*
X149968777Y-48471021D01*
X149968909Y-48510580D01*
X149939806Y-48833920D01*
X149857901Y-49110665D01*
X149725397Y-49336918D01*
X149544498Y-49508787D01*
X149317406Y-49622376D01*
X149101475Y-49694353D01*
X149613160Y-49835685D01*
X149630601Y-49840492D01*
X149846691Y-49898588D01*
X150061519Y-49954015D01*
X150251090Y-50000702D01*
X150391412Y-50032578D01*
X150488741Y-50052172D01*
X150647302Y-50077272D01*
X150774542Y-50082103D01*
X150898767Y-50066581D01*
X151048283Y-50030621D01*
X151068932Y-50024969D01*
X151373854Y-49915720D01*
X151615187Y-49776360D01*
X151790536Y-49609135D01*
X151897502Y-49416295D01*
X151933690Y-49200087D01*
X151931390Y-49140759D01*
X151892365Y-48911922D01*
X151809049Y-48643286D01*
X151686591Y-48347729D01*
X151530143Y-48038134D01*
X151344853Y-47727380D01*
X151184551Y-47478793D01*
X150140605Y-47183639D01*
X150094018Y-47170484D01*
X149825670Y-47095376D01*
X149581310Y-47028074D01*
X149370783Y-46971210D01*
X149203937Y-46927417D01*
X149090618Y-46899327D01*
X149040671Y-46889573D01*
X149039748Y-46908240D01*
X148339407Y-46908240D01*
X148227873Y-46790456D01*
X147945455Y-46506781D01*
X147655164Y-46229327D01*
X147365773Y-45967322D01*
X147128445Y-45765965D01*
X147638196Y-45765965D01*
X147642740Y-45787040D01*
X147691222Y-45848276D01*
X147776737Y-45935419D01*
X147885868Y-46036215D01*
X148005199Y-46138413D01*
X148121315Y-46229760D01*
X148220797Y-46298005D01*
X148270139Y-46323781D01*
X148404156Y-46378586D01*
X148573772Y-46435925D01*
X148753930Y-46486920D01*
X148755318Y-46487272D01*
X148914624Y-46529548D01*
X149127448Y-46588718D01*
X149374722Y-46659337D01*
X149637382Y-46735961D01*
X149896359Y-46813145D01*
X149964679Y-46833719D01*
X150187534Y-46900334D01*
X150382356Y-46957823D01*
X150537936Y-47002926D01*
X150643066Y-47032384D01*
X150686539Y-47042937D01*
X150699286Y-47041701D01*
X150713438Y-47011097D01*
X150667742Y-46942434D01*
X150564602Y-46839719D01*
X150499582Y-46782443D01*
X150335830Y-46655579D01*
X150167810Y-46556836D01*
X149971766Y-46473596D01*
X149723941Y-46393243D01*
X149688763Y-46382791D01*
X149514389Y-46329862D01*
X149365402Y-46283807D01*
X150715100Y-46283807D01*
X150719984Y-46311788D01*
X150753997Y-46406030D01*
X150813327Y-46536849D01*
X150889548Y-46684874D01*
X150935477Y-46768716D01*
X151003014Y-46890240D01*
X151050733Y-46973774D01*
X151070433Y-47004816D01*
X151073280Y-47001160D01*
X151099786Y-46946283D01*
X151150289Y-46832193D01*
X151221243Y-46667458D01*
X151309100Y-46460647D01*
X151410314Y-46220327D01*
X151521336Y-45955068D01*
X151638621Y-45673438D01*
X151758619Y-45384004D01*
X151877785Y-45095335D01*
X151992571Y-44816000D01*
X152099430Y-44554566D01*
X152194814Y-44319603D01*
X152275177Y-44119678D01*
X152336970Y-43963359D01*
X152376648Y-43859216D01*
X152390662Y-43815816D01*
X152384299Y-43772080D01*
X152357483Y-43667174D01*
X152314699Y-43524759D01*
X152261396Y-43360605D01*
X152203022Y-43190477D01*
X152145025Y-43030145D01*
X152092853Y-42895373D01*
X152051955Y-42801931D01*
X152027777Y-42765586D01*
X152015198Y-42774025D01*
X151974389Y-42840685D01*
X151913673Y-42966603D01*
X151836161Y-43143445D01*
X151744963Y-43362874D01*
X151643189Y-43616555D01*
X151533949Y-43896154D01*
X151420352Y-44193334D01*
X151305509Y-44499761D01*
X151192530Y-44807099D01*
X151084525Y-45107013D01*
X150984603Y-45391167D01*
X150895875Y-45651226D01*
X150821451Y-45878855D01*
X150764440Y-46065718D01*
X150727953Y-46203481D01*
X150715100Y-46283807D01*
X149365402Y-46283807D01*
X149289933Y-46260478D01*
X149033132Y-46180178D01*
X148761724Y-46094500D01*
X148493444Y-46008984D01*
X148359105Y-45966333D01*
X148133135Y-45896549D01*
X147937575Y-45838641D01*
X147782907Y-45795588D01*
X147679620Y-45770370D01*
X147638196Y-45765965D01*
X147128445Y-45765965D01*
X147086050Y-45729996D01*
X147075868Y-45721664D01*
X146933226Y-45599945D01*
X146814074Y-45489370D01*
X146730611Y-45401823D01*
X146695038Y-45349186D01*
X146694914Y-45348521D01*
X146704745Y-45296300D01*
X146714934Y-45259963D01*
X147332647Y-45259963D01*
X147335854Y-45338450D01*
X147368530Y-45367753D01*
X147456988Y-45411719D01*
X147578175Y-45455276D01*
X147616349Y-45467069D01*
X147740438Y-45505930D01*
X147920844Y-45562813D01*
X148146819Y-45634316D01*
X148407615Y-45717035D01*
X148692484Y-45807568D01*
X148990676Y-45902511D01*
X149168370Y-45958867D01*
X149446437Y-46045914D01*
X149698137Y-46123320D01*
X149914250Y-46188327D01*
X150085556Y-46238176D01*
X150202836Y-46270108D01*
X150256868Y-46281366D01*
X150302358Y-46270883D01*
X150334290Y-46222715D01*
X150341252Y-46182572D01*
X150370752Y-46074208D01*
X150419852Y-45913736D01*
X150484725Y-45712284D01*
X150561542Y-45480982D01*
X150646477Y-45230958D01*
X150735701Y-44973342D01*
X150825387Y-44719261D01*
X150911707Y-44479846D01*
X150990835Y-44266225D01*
X151058942Y-44089526D01*
X151112201Y-43960879D01*
X151171154Y-43831361D01*
X151268920Y-43624956D01*
X151384479Y-43387429D01*
X151508018Y-43138904D01*
X151629725Y-42899505D01*
X151642033Y-42875582D01*
X151746400Y-42670033D01*
X151836934Y-42487082D01*
X151908259Y-42337947D01*
X151954997Y-42233845D01*
X151971771Y-42185992D01*
X151960202Y-42169080D01*
X151887757Y-42127591D01*
X151757969Y-42075156D01*
X151581442Y-42016385D01*
X151552423Y-42007441D01*
X151398727Y-41959764D01*
X151188899Y-41894353D01*
X150936053Y-41815310D01*
X150653301Y-41726738D01*
X150353756Y-41632739D01*
X150050532Y-41537416D01*
X149917426Y-41495713D01*
X149641458Y-41410433D01*
X149390333Y-41334393D01*
X149173589Y-41270388D01*
X149000767Y-41221211D01*
X148881405Y-41189656D01*
X148825043Y-41178517D01*
X148815244Y-41179223D01*
X148788230Y-41190703D01*
X148758320Y-41221951D01*
X148722030Y-41280301D01*
X148675875Y-41373087D01*
X148616371Y-41507642D01*
X148540032Y-41691300D01*
X148443373Y-41931396D01*
X148322911Y-42235264D01*
X148214709Y-42512844D01*
X148062126Y-42916494D01*
X147918055Y-43311677D01*
X147784695Y-43691476D01*
X147664246Y-44048977D01*
X147558907Y-44377263D01*
X147470878Y-44669420D01*
X147402359Y-44918533D01*
X147355548Y-45117685D01*
X147332647Y-45259963D01*
X146714934Y-45259963D01*
X146737819Y-45178351D01*
X146792216Y-45000555D01*
X146866019Y-44768794D01*
X146957311Y-44488951D01*
X147064171Y-44166908D01*
X147184684Y-43808548D01*
X147316929Y-43419752D01*
X147458990Y-43006403D01*
X147564849Y-42699876D01*
X147721038Y-42247580D01*
X147855175Y-41859348D01*
X147969063Y-41530259D01*
X148064504Y-41255391D01*
X148143300Y-41029822D01*
X148207253Y-40848630D01*
X148258165Y-40706892D01*
X148297838Y-40599688D01*
X148328073Y-40522095D01*
X148350673Y-40469191D01*
X148367440Y-40436054D01*
X148380176Y-40417762D01*
X148390682Y-40409394D01*
X148400762Y-40406026D01*
X148412215Y-40402738D01*
X148437192Y-40402545D01*
X148528077Y-40419533D01*
X148669279Y-40454917D01*
X148847190Y-40505187D01*
X149048204Y-40566832D01*
X149061537Y-40571070D01*
X149237444Y-40626769D01*
X149472741Y-40700976D01*
X149755282Y-40789875D01*
X150072919Y-40889651D01*
X150413507Y-40996488D01*
X150764899Y-41106571D01*
X151114950Y-41216083D01*
X151241816Y-41255903D01*
X151558379Y-41356684D01*
X151850513Y-41451679D01*
X152110152Y-41538138D01*
X152329228Y-41613310D01*
X152499676Y-41674446D01*
X152613429Y-41718796D01*
X152662420Y-41743609D01*
X152667505Y-41749529D01*
X152708791Y-41819077D01*
X152768732Y-41941427D01*
X152840091Y-42101163D01*
X152875355Y-42185992D01*
X152915626Y-42282865D01*
X152980303Y-42447709D01*
X153187032Y-43021665D01*
X153387422Y-43647614D01*
X153435544Y-43815816D01*
X153576105Y-44307116D01*
X153747713Y-44981734D01*
X153896877Y-45653030D01*
X153904706Y-45690831D01*
X153944590Y-45873188D01*
X153981379Y-46025936D01*
X154011275Y-46134023D01*
X154030478Y-46182393D01*
X154035550Y-46185486D01*
X154095761Y-46179213D01*
X154204582Y-46141712D01*
X154347218Y-46077865D01*
X154592295Y-45964953D01*
X155030552Y-45799333D01*
X155474914Y-45681707D01*
X155946224Y-45607082D01*
X156465325Y-45570465D01*
X156878014Y-45566379D01*
X157417466Y-45599098D01*
X157923217Y-45679541D01*
X158412490Y-45810713D01*
X158902506Y-45995617D01*
X158974604Y-46026537D01*
X159113371Y-46086050D01*
X159219293Y-46131477D01*
X159273795Y-46154853D01*
X159273957Y-46154922D01*
X159296613Y-46145837D01*
X159311227Y-46089369D01*
X159319065Y-45975965D01*
X159321397Y-45796070D01*
X159322654Y-45701011D01*
X159330985Y-45529282D01*
X159345401Y-45385996D01*
X159363881Y-45294999D01*
X159367762Y-45283589D01*
X159389798Y-45199859D01*
X159389848Y-45156614D01*
X159385065Y-45154101D01*
X159325354Y-45139921D01*
X159214346Y-45120915D01*
X159071277Y-45100473D01*
X158852232Y-45068339D01*
X158270721Y-44944852D01*
X157730445Y-44768534D01*
X157216797Y-44534026D01*
X156715171Y-44235967D01*
X156611439Y-44164664D01*
X156425575Y-44023466D01*
X156226095Y-43853953D01*
X156001342Y-43646013D01*
X155739661Y-43389532D01*
X155723541Y-43373364D01*
X155537304Y-43181362D01*
X155341588Y-42971180D01*
X155143243Y-42751003D01*
X155084165Y-42683446D01*
X155862376Y-42683446D01*
X155864310Y-42697818D01*
X155907798Y-42757809D01*
X155995163Y-42854583D01*
X156117544Y-42979801D01*
X156266084Y-43125124D01*
X156431922Y-43282215D01*
X156606199Y-43442734D01*
X156780057Y-43598344D01*
X156944636Y-43740705D01*
X157091076Y-43861480D01*
X157210519Y-43952331D01*
X157500761Y-44143411D01*
X157832201Y-44326652D01*
X158147452Y-44464326D01*
X158431382Y-44549040D01*
X158462607Y-44555407D01*
X158612935Y-44580426D01*
X158761949Y-44597747D01*
X158891214Y-44606065D01*
X158982292Y-44604075D01*
X159016749Y-44590472D01*
X159015429Y-44588576D01*
X158969830Y-44567857D01*
X158872296Y-44533622D01*
X158740662Y-44492219D01*
X158524541Y-44418050D01*
X158193356Y-44267555D01*
X157854638Y-44067932D01*
X157501533Y-43814545D01*
X157127192Y-43502757D01*
X156724761Y-43127931D01*
X156686459Y-43090630D01*
X156522444Y-42931794D01*
X156400588Y-42817459D01*
X156310634Y-42740310D01*
X156242325Y-42693036D01*
X156185403Y-42668323D01*
X156129611Y-42658857D01*
X156064691Y-42657328D01*
X156010775Y-42658521D01*
X155912701Y-42667863D01*
X155862376Y-42683446D01*
X155084165Y-42683446D01*
X155042426Y-42635716D01*
X156474237Y-42635716D01*
X156474714Y-42658753D01*
X156513427Y-42731152D01*
X156605965Y-42840432D01*
X156755853Y-42991038D01*
X157074192Y-43284938D01*
X157528299Y-43658989D01*
X157967830Y-43964785D01*
X158396996Y-44205165D01*
X158820009Y-44382970D01*
X158956047Y-44425308D01*
X159284163Y-44480847D01*
X159591058Y-44464198D01*
X159874437Y-44375948D01*
X160132005Y-44216687D01*
X160361467Y-43987005D01*
X160479415Y-43827508D01*
X160599902Y-43612941D01*
X160684465Y-43380083D01*
X160736591Y-43115277D01*
X160759763Y-42804864D01*
X160757468Y-42435189D01*
X160749928Y-42253152D01*
X160734475Y-42032148D01*
X160710502Y-41841821D01*
X160674317Y-41655143D01*
X160622229Y-41445084D01*
X160550331Y-41197180D01*
X160429025Y-40836696D01*
X160285860Y-40459246D01*
X160128558Y-40083080D01*
X159964842Y-39726454D01*
X159802434Y-39407618D01*
X159649057Y-39144826D01*
X159505907Y-38921048D01*
X159245425Y-39312264D01*
X159168052Y-39431568D01*
X159097746Y-39550014D01*
X159073476Y-39590902D01*
X159018670Y-39704398D01*
X159007313Y-39765062D01*
X159033143Y-39818036D01*
X159089866Y-39917589D01*
X159162580Y-40036088D01*
X159251853Y-40184327D01*
X159399630Y-40457303D01*
X159542825Y-40751522D01*
X159668199Y-41039251D01*
X159762512Y-41292760D01*
X159778081Y-41341121D01*
X159824084Y-41503874D01*
X159852038Y-41654174D01*
X159866250Y-41821502D01*
X159866346Y-41825789D01*
X159871029Y-42035339D01*
X159870897Y-42187018D01*
X159865652Y-42337266D01*
X159852085Y-42445332D01*
X159827437Y-42530605D01*
X159788951Y-42612474D01*
X159735943Y-42700418D01*
X159598933Y-42848511D01*
X159439763Y-42924717D01*
X159259212Y-42929474D01*
X159058060Y-42863219D01*
X158837088Y-42726388D01*
X158597076Y-42519420D01*
X158338804Y-42242749D01*
X158063054Y-41896815D01*
X157770603Y-41482053D01*
X157753983Y-41457104D01*
X157668689Y-41327548D01*
X157601131Y-41232857D01*
X157543581Y-41176434D01*
X157488309Y-41161684D01*
X157427586Y-41192011D01*
X157353682Y-41270818D01*
X157258868Y-41401510D01*
X157135414Y-41587490D01*
X156975590Y-41832163D01*
X156899064Y-41949262D01*
X156766945Y-42153914D01*
X156652213Y-42334805D01*
X156561059Y-42482015D01*
X156543678Y-42511351D01*
X156499671Y-42585626D01*
X156474237Y-42635716D01*
X155042426Y-42635716D01*
X154949119Y-42529017D01*
X154766067Y-42313407D01*
X154600936Y-42112358D01*
X154460577Y-41934055D01*
X154422917Y-41883015D01*
X155095007Y-41883015D01*
X155331837Y-42124656D01*
X155366889Y-42159686D01*
X155495477Y-42278123D01*
X155617589Y-42377356D01*
X155710831Y-42438824D01*
X155727288Y-42446744D01*
X155868010Y-42492622D01*
X156009202Y-42511351D01*
X156165409Y-42511351D01*
X156039280Y-42335492D01*
X155882103Y-42144409D01*
X155686052Y-41981333D01*
X155480582Y-41890988D01*
X155262638Y-41871548D01*
X155095007Y-41883015D01*
X154422917Y-41883015D01*
X154365115Y-41804676D01*
X155779867Y-41804676D01*
X155794063Y-41830045D01*
X155850268Y-41903013D01*
X155939294Y-42009014D01*
X156050469Y-42135016D01*
X156138521Y-42230652D01*
X156241127Y-42336383D01*
X156317703Y-42408512D01*
X156356181Y-42435189D01*
X156374803Y-42418395D01*
X156430454Y-42347494D01*
X156514608Y-42230973D01*
X156620136Y-42079551D01*
X156739912Y-41903945D01*
X156866806Y-41714875D01*
X156993691Y-41523058D01*
X157113439Y-41339213D01*
X157218922Y-41174058D01*
X157303012Y-41038312D01*
X157358581Y-40942694D01*
X157378500Y-40897921D01*
X157371066Y-40875178D01*
X157330501Y-40795860D01*
X157262596Y-40678718D01*
X157176444Y-40539862D01*
X156975154Y-40224896D01*
X156897634Y-40311376D01*
X156887011Y-40323545D01*
X156822310Y-40402852D01*
X156727478Y-40523876D01*
X156610163Y-40676399D01*
X156478012Y-40850207D01*
X156338671Y-41035083D01*
X156199787Y-41220811D01*
X156069008Y-41397175D01*
X155953979Y-41553959D01*
X155862348Y-41680948D01*
X155801762Y-41767926D01*
X155779867Y-41804676D01*
X154365115Y-41804676D01*
X154351839Y-41786683D01*
X154281573Y-41678427D01*
X154256629Y-41617472D01*
X154261000Y-41604866D01*
X154934312Y-41604866D01*
X154947355Y-41613843D01*
X155029073Y-41637332D01*
X155153149Y-41652791D01*
X155294160Y-41658832D01*
X155426684Y-41654068D01*
X155525297Y-41637113D01*
X155620846Y-41596814D01*
X155777788Y-41485760D01*
X155937822Y-41314017D01*
X156107955Y-41074820D01*
X156143208Y-41020901D01*
X156271806Y-40832239D01*
X156409203Y-40640033D01*
X156531101Y-40478524D01*
X156574720Y-40423076D01*
X156668894Y-40303179D01*
X156741963Y-40209903D01*
X156780910Y-40159851D01*
X156785469Y-40151957D01*
X156773448Y-40132697D01*
X156714288Y-40120499D01*
X156598337Y-40114102D01*
X156415946Y-40112250D01*
X156014513Y-40112250D01*
X155455889Y-40840035D01*
X155449285Y-40848643D01*
X155256103Y-41104061D01*
X155106641Y-41309405D01*
X155002274Y-41462663D01*
X154944373Y-41561821D01*
X154934312Y-41604866D01*
X154261000Y-41604866D01*
X154261961Y-41602094D01*
X154304681Y-41530194D01*
X154384510Y-41411796D01*
X154494664Y-41255884D01*
X154628362Y-41071445D01*
X154778818Y-40867463D01*
X154939251Y-40652925D01*
X155102877Y-40436816D01*
X155262913Y-40228121D01*
X155412575Y-40035826D01*
X155545081Y-39868916D01*
X155653646Y-39736377D01*
X155731488Y-39647195D01*
X155771824Y-39610354D01*
X155774206Y-39609477D01*
X155847005Y-39597821D01*
X155976428Y-39589480D01*
X156145883Y-39584372D01*
X156338778Y-39582413D01*
X156538520Y-39583519D01*
X156728515Y-39587607D01*
X156892173Y-39594592D01*
X157012900Y-39604391D01*
X157074103Y-39616921D01*
X157105233Y-39645360D01*
X157171667Y-39731519D01*
X157255029Y-39857461D01*
X157344288Y-40007251D01*
X157363302Y-40040698D01*
X157429149Y-40151957D01*
X157547462Y-40351865D01*
X157742355Y-40660799D01*
X157901144Y-40897921D01*
X157938942Y-40954365D01*
X158128180Y-41219425D01*
X158301028Y-41442845D01*
X158448444Y-41611487D01*
X158449492Y-41612576D01*
X158567903Y-41733993D01*
X158643934Y-41805691D01*
X158686900Y-41833776D01*
X158706114Y-41824354D01*
X158710891Y-41783530D01*
X158708613Y-41751315D01*
X158677393Y-41624301D01*
X158614191Y-41451290D01*
X158524859Y-41246075D01*
X158415247Y-41022450D01*
X158291209Y-40794209D01*
X158268613Y-40755075D01*
X158128375Y-40527502D01*
X157970705Y-40298764D01*
X157786023Y-40056182D01*
X157564748Y-39787074D01*
X157498523Y-39710731D01*
X158217049Y-39710731D01*
X158217462Y-39711818D01*
X158241069Y-39753529D01*
X158295641Y-39846104D01*
X158373777Y-39977067D01*
X158468077Y-40133943D01*
X158664064Y-40467884D01*
X158889488Y-40883881D01*
X159063190Y-41249325D01*
X159186105Y-41566430D01*
X159259169Y-41837409D01*
X159283316Y-42064476D01*
X159281449Y-42164869D01*
X159267253Y-42262221D01*
X159229877Y-42334195D01*
X159158638Y-42410436D01*
X159127387Y-42439675D01*
X159033316Y-42519787D01*
X158960070Y-42571766D01*
X158959727Y-42571958D01*
X158914443Y-42603341D01*
X158922659Y-42632814D01*
X158990095Y-42681228D01*
X159092448Y-42730839D01*
X159243961Y-42764794D01*
X159390030Y-42762623D01*
X159501228Y-42721981D01*
X159505256Y-42718952D01*
X159575835Y-42626774D01*
X159638969Y-42473414D01*
X159690029Y-42273025D01*
X159724383Y-42039759D01*
X159727944Y-41825789D01*
X159684677Y-41548871D01*
X159587061Y-41242989D01*
X159432675Y-40898664D01*
X159264560Y-40573506D01*
X159099115Y-40280014D01*
X158956689Y-40058995D01*
X158837247Y-39910392D01*
X158740753Y-39834149D01*
X158675683Y-39809612D01*
X158568823Y-39777937D01*
X158447687Y-39747065D01*
X158334117Y-39722141D01*
X158249956Y-39708314D01*
X158217049Y-39710731D01*
X157498523Y-39710731D01*
X157297299Y-39478762D01*
X157235587Y-39408438D01*
X157111895Y-39263882D01*
X157012506Y-39142771D01*
X156946334Y-39056130D01*
X156930446Y-39028936D01*
X157602725Y-39028936D01*
X157612802Y-39079040D01*
X157668013Y-39151873D01*
X157756667Y-39236678D01*
X157867070Y-39322698D01*
X157987530Y-39399176D01*
X158106353Y-39455355D01*
X158234379Y-39498740D01*
X158385809Y-39539750D01*
X158513991Y-39563893D01*
X158602758Y-39568277D01*
X158635939Y-39550014D01*
X158633747Y-39534127D01*
X158594883Y-39453003D01*
X158521014Y-39350949D01*
X158429881Y-39250450D01*
X158339226Y-39173989D01*
X158324881Y-39165045D01*
X158209777Y-39114886D01*
X158054717Y-39068445D01*
X157887339Y-39031940D01*
X157735281Y-39011586D01*
X157626179Y-39013601D01*
X157602725Y-39028936D01*
X156930446Y-39028936D01*
X156922296Y-39014987D01*
X156927022Y-39002266D01*
X156934763Y-38989704D01*
X158445535Y-38989704D01*
X158447792Y-38999562D01*
X158482014Y-39064175D01*
X158548844Y-39166002D01*
X158637216Y-39287830D01*
X158668811Y-39329082D01*
X158755655Y-39437253D01*
X158822240Y-39512609D01*
X158856181Y-39540844D01*
X158862411Y-39537824D01*
X158906032Y-39491935D01*
X158976496Y-39402304D01*
X159061904Y-39283798D01*
X159073345Y-39267341D01*
X159173741Y-39123825D01*
X159269511Y-38988251D01*
X159341335Y-38887987D01*
X159442328Y-38749031D01*
X159263024Y-38476865D01*
X159228592Y-38425071D01*
X159152618Y-38314521D01*
X159097842Y-38240191D01*
X159074310Y-38215971D01*
X159073810Y-38216563D01*
X159042991Y-38252407D01*
X158973065Y-38333530D01*
X158873863Y-38448532D01*
X158755217Y-38586013D01*
X158746904Y-38595660D01*
X158629563Y-38735471D01*
X158533773Y-38856154D01*
X158469206Y-38945101D01*
X158445535Y-38989704D01*
X156934763Y-38989704D01*
X156968065Y-38935659D01*
X157044700Y-38824655D01*
X157100019Y-38747782D01*
X157689401Y-38747782D01*
X157692951Y-38783574D01*
X157736049Y-38799255D01*
X157837778Y-38825344D01*
X157966996Y-38852001D01*
X158108281Y-38876677D01*
X158221070Y-38888808D01*
X158293992Y-38880066D01*
X158345770Y-38847695D01*
X158395126Y-38788937D01*
X158411529Y-38767166D01*
X158483636Y-38673138D01*
X158580909Y-38547730D01*
X158687085Y-38411941D01*
X158900888Y-38139668D01*
X158606570Y-38085669D01*
X158575668Y-38080175D01*
X158433650Y-38059516D01*
X158322471Y-38050536D01*
X158263989Y-38055179D01*
X158226615Y-38087237D01*
X158149979Y-38167125D01*
X158047313Y-38281525D01*
X157930296Y-38417746D01*
X157829122Y-38540874D01*
X157734041Y-38668039D01*
X157689401Y-38747782D01*
X157100019Y-38747782D01*
X157148922Y-38679824D01*
X157272728Y-38511734D01*
X157408115Y-38330952D01*
X157547077Y-38148049D01*
X157681611Y-37973593D01*
X157803715Y-37818152D01*
X157905382Y-37692295D01*
X157978611Y-37606590D01*
X158015396Y-37571607D01*
X158042624Y-37568904D01*
X158137989Y-37571271D01*
X158285986Y-37580669D01*
X158472682Y-37596157D01*
X158684141Y-37616793D01*
X158890080Y-37639536D01*
X159089584Y-37665868D01*
X159229338Y-37691060D01*
X159318446Y-37716821D01*
X159366010Y-37744861D01*
X159404247Y-37791974D01*
X159481979Y-37908088D01*
X159584874Y-38076060D01*
X159621963Y-38139668D01*
X159707654Y-38286630D01*
G37*
%TD*%
%LPC*%
D13*
%TO.C,H3*%
X121020001Y-131156830D03*
D14*
X121020001Y-131156830D03*
%TD*%
D13*
%TO.C,H4*%
X177694001Y-46156830D03*
D14*
X177694001Y-46156830D03*
%TD*%
D13*
%TO.C,H2*%
X177694001Y-131156830D03*
D14*
X177694001Y-131156830D03*
%TD*%
D13*
%TO.C,H1*%
X121020001Y-46156830D03*
D14*
X121020001Y-46156830D03*
%TD*%
D13*
%TO.C,TP1*%
X132552858Y-130237542D03*
X140172858Y-130237542D03*
%TD*%
D15*
%TO.C,J1*%
X135172858Y-123927542D03*
X137172859Y-123927542D03*
D16*
X132277860Y-117952543D03*
X140067855Y-117952543D03*
%TD*%
%LPD*%
M02*
