%TF.GenerationSoftware,KiCad,Pcbnew,7.0.10*%
%TF.CreationDate,2024-05-04T16:42:37-07:00*%
%TF.ProjectId,Z_Panels,5a5f5061-6e65-46c7-932e-6b696361645f,rev?*%
%TF.SameCoordinates,Original*%
%TF.FileFunction,Copper,L3,Inr*%
%TF.FilePolarity,Positive*%
%FSLAX46Y46*%
G04 Gerber Fmt 4.6, Leading zero omitted, Abs format (unit mm)*
G04 Created by KiCad (PCBNEW 7.0.10) date 2024-05-04 16:42:37*
%MOMM*%
%LPD*%
G01*
G04 APERTURE LIST*
%TA.AperFunction,ComponentPad*%
%ADD10C,3.000000*%
%TD*%
%TA.AperFunction,ComponentPad*%
%ADD11C,2.600000*%
%TD*%
%TA.AperFunction,ComponentPad*%
%ADD12C,2.050000*%
%TD*%
%TA.AperFunction,ComponentPad*%
%ADD13C,2.250000*%
%TD*%
%TA.AperFunction,ViaPad*%
%ADD14C,0.800000*%
%TD*%
G04 APERTURE END LIST*
D10*
X150000000Y-82600000D03*
X141000000Y-82600000D03*
D11*
X155182000Y-45965600D03*
D10*
X188600000Y-121500000D03*
X188600000Y-130500000D03*
D11*
X159500000Y-112400000D03*
X172000000Y-112400000D03*
X172000000Y-91600000D03*
X211856000Y-45965600D03*
D10*
X188800000Y-46500000D03*
X188800000Y-55500000D03*
X224300000Y-83200000D03*
X215300000Y-83200000D03*
X149900000Y-118000000D03*
X140900000Y-118000000D03*
D11*
X211856000Y-130965600D03*
D10*
X224300000Y-118600000D03*
X215300000Y-118600000D03*
D11*
X155182000Y-130965600D03*
X159500000Y-91600000D03*
D12*
X195800000Y-88400000D03*
D13*
X193260000Y-90940000D03*
X198340000Y-90940000D03*
X193260000Y-85860000D03*
X198340000Y-85860000D03*
D14*
X193000000Y-107600000D03*
X207552000Y-87382000D03*
X201200000Y-91800000D03*
X193000000Y-79000000D03*
X201200000Y-87000000D03*
X193200000Y-68800000D03*
X193000000Y-99600000D03*
X201200000Y-85200000D03*
X207552000Y-109416000D03*
X207552000Y-111416000D03*
X158250000Y-103800000D03*
X195000000Y-100600000D03*
X207552000Y-69856000D03*
X195000000Y-104600000D03*
X194800000Y-70400000D03*
X207552000Y-67856000D03*
X207552000Y-107416000D03*
X193200000Y-70800000D03*
X201200000Y-90000000D03*
X207552000Y-103416000D03*
X193000000Y-111600000D03*
X194800000Y-66400000D03*
X193200000Y-64800000D03*
X158050000Y-99450000D03*
X194800000Y-64800000D03*
X195000000Y-110000000D03*
X207552000Y-85382000D03*
X194800000Y-63400000D03*
X193000000Y-81000000D03*
X193000000Y-97600000D03*
X193000000Y-83400000D03*
X193000000Y-109600000D03*
X199074000Y-83476000D03*
X207552000Y-73856000D03*
X195000000Y-102600000D03*
X207552000Y-83382000D03*
X193000000Y-93600000D03*
X207552000Y-105416000D03*
X194800000Y-72400000D03*
X207552000Y-71856000D03*
X193000000Y-75000000D03*
X207552000Y-89382000D03*
X195000000Y-111800000D03*
X193000000Y-73000000D03*
X207552000Y-91382000D03*
X193000000Y-95600000D03*
X193200000Y-66800000D03*
X195000000Y-106600000D03*
X207552000Y-101416000D03*
X193000000Y-105600000D03*
X197074000Y-83476000D03*
X193200000Y-63400000D03*
X207552000Y-63856000D03*
X195000000Y-108600000D03*
X207552000Y-65856000D03*
X193000000Y-101600000D03*
X193000000Y-103600000D03*
X194800000Y-68400000D03*
X195074000Y-83476000D03*
X201074000Y-83476000D03*
X193000000Y-77000000D03*
X194800000Y-74400000D03*
X178700000Y-109175000D03*
X183175000Y-107900000D03*
X181775000Y-113325000D03*
X179225000Y-106800000D03*
X173075000Y-54150000D03*
X190250000Y-108100000D03*
X182700000Y-97625000D03*
X174850000Y-94800000D03*
X182550000Y-101810000D03*
X177150000Y-56075000D03*
X186375000Y-64525000D03*
X180625000Y-96475000D03*
X167525000Y-55650000D03*
%TA.AperFunction,Conductor*%
G36*
X208241660Y-40126685D02*
G01*
X208278532Y-40177435D01*
X208283500Y-40208800D01*
X208283500Y-40750723D01*
X208279627Y-40778494D01*
X208279599Y-40778591D01*
X208279599Y-40778593D01*
X208280925Y-40792908D01*
X208283067Y-40816017D01*
X208283500Y-40825383D01*
X208283500Y-40834639D01*
X208283501Y-40834652D01*
X208285202Y-40843758D01*
X208286495Y-40853026D01*
X208289965Y-40890459D01*
X208289965Y-40890462D01*
X208290012Y-40890555D01*
X208298918Y-40917125D01*
X208298937Y-40917226D01*
X208298939Y-40917234D01*
X208318726Y-40949191D01*
X208323287Y-40957380D01*
X208340041Y-40991027D01*
X208340108Y-40991088D01*
X208358028Y-41012667D01*
X208358081Y-41012752D01*
X208384519Y-41032717D01*
X208388070Y-41035398D01*
X208395276Y-41041381D01*
X208423067Y-41066716D01*
X208423071Y-41066717D01*
X208423072Y-41066718D01*
X208423158Y-41066752D01*
X208447656Y-41080396D01*
X208447733Y-41080454D01*
X208447736Y-41080456D01*
X208483885Y-41090741D01*
X208492762Y-41093715D01*
X208527827Y-41107300D01*
X208527924Y-41107300D01*
X208555698Y-41111174D01*
X208555793Y-41111201D01*
X208593220Y-41107732D01*
X208602584Y-41107300D01*
X219456000Y-41107300D01*
X219515660Y-41126685D01*
X219552532Y-41177435D01*
X219557500Y-41208800D01*
X219557500Y-51266323D01*
X219553627Y-51294094D01*
X219553599Y-51294191D01*
X219553599Y-51294193D01*
X219554925Y-51308508D01*
X219557067Y-51331617D01*
X219557500Y-51340983D01*
X219557500Y-51350239D01*
X219557501Y-51350252D01*
X219559202Y-51359358D01*
X219560495Y-51368626D01*
X219563965Y-51406059D01*
X219563965Y-51406062D01*
X219564012Y-51406155D01*
X219572918Y-51432725D01*
X219572937Y-51432826D01*
X219572939Y-51432834D01*
X219592726Y-51464791D01*
X219597287Y-51472980D01*
X219614041Y-51506627D01*
X219614108Y-51506688D01*
X219632028Y-51528267D01*
X219632081Y-51528352D01*
X219658519Y-51548317D01*
X219662070Y-51550998D01*
X219669276Y-51556981D01*
X219697067Y-51582316D01*
X219697071Y-51582317D01*
X219697072Y-51582318D01*
X219697158Y-51582352D01*
X219721656Y-51595996D01*
X219721733Y-51596054D01*
X219721736Y-51596056D01*
X219757885Y-51606341D01*
X219766762Y-51609315D01*
X219801827Y-51622900D01*
X219801924Y-51622900D01*
X219829698Y-51626774D01*
X219829793Y-51626801D01*
X219867220Y-51623332D01*
X219876584Y-51622900D01*
X230729989Y-51622900D01*
X230789649Y-51642285D01*
X230826521Y-51693035D01*
X230831489Y-51724403D01*
X230830594Y-84987484D01*
X230829563Y-123300500D01*
X230829511Y-125218003D01*
X230810125Y-125277662D01*
X230759374Y-125314533D01*
X230728011Y-125319500D01*
X219912076Y-125319500D01*
X219884302Y-125315626D01*
X219884208Y-125315599D01*
X219884205Y-125315599D01*
X219860290Y-125317815D01*
X219846779Y-125319067D01*
X219837416Y-125319500D01*
X219828150Y-125319500D01*
X219819043Y-125321202D01*
X219809773Y-125322495D01*
X219772338Y-125325965D01*
X219772334Y-125325966D01*
X219772235Y-125326016D01*
X219745675Y-125334918D01*
X219745569Y-125334937D01*
X219745567Y-125334938D01*
X219713610Y-125354724D01*
X219705426Y-125359282D01*
X219671771Y-125376041D01*
X219671768Y-125376043D01*
X219671692Y-125376128D01*
X219650146Y-125394019D01*
X219650054Y-125394075D01*
X219650046Y-125394083D01*
X219627399Y-125424072D01*
X219621413Y-125431280D01*
X219596084Y-125459065D01*
X219596082Y-125459068D01*
X219596042Y-125459174D01*
X219582409Y-125483648D01*
X219582346Y-125483730D01*
X219582343Y-125483736D01*
X219572056Y-125519891D01*
X219569078Y-125528776D01*
X219555500Y-125563826D01*
X219555500Y-125563923D01*
X219551627Y-125591694D01*
X219551599Y-125591791D01*
X219551599Y-125591793D01*
X219552925Y-125606108D01*
X219555067Y-125629217D01*
X219555500Y-125638583D01*
X219555500Y-135733600D01*
X219536115Y-135793260D01*
X219485365Y-135830132D01*
X219454000Y-135835100D01*
X208638076Y-135835100D01*
X208610302Y-135831226D01*
X208610208Y-135831199D01*
X208610205Y-135831199D01*
X208586290Y-135833415D01*
X208572779Y-135834667D01*
X208563416Y-135835100D01*
X208554150Y-135835100D01*
X208545043Y-135836802D01*
X208535773Y-135838095D01*
X208498338Y-135841565D01*
X208498334Y-135841566D01*
X208498235Y-135841616D01*
X208471675Y-135850518D01*
X208471569Y-135850537D01*
X208471567Y-135850538D01*
X208439610Y-135870324D01*
X208431426Y-135874882D01*
X208397771Y-135891641D01*
X208397768Y-135891643D01*
X208397692Y-135891728D01*
X208376146Y-135909619D01*
X208376054Y-135909675D01*
X208376046Y-135909683D01*
X208353399Y-135939672D01*
X208347413Y-135946880D01*
X208322084Y-135974665D01*
X208322082Y-135974668D01*
X208322042Y-135974774D01*
X208308409Y-135999248D01*
X208308346Y-135999330D01*
X208308343Y-135999336D01*
X208298056Y-136035491D01*
X208295078Y-136044376D01*
X208281500Y-136079426D01*
X208281500Y-136079523D01*
X208277627Y-136107294D01*
X208277599Y-136107391D01*
X208277599Y-136107393D01*
X208278925Y-136121708D01*
X208281067Y-136144817D01*
X208281500Y-136154183D01*
X208281500Y-136733600D01*
X208262115Y-136793260D01*
X208211365Y-136830132D01*
X208180000Y-136835100D01*
X157112000Y-136835100D01*
X157052340Y-136815715D01*
X157015468Y-136764965D01*
X157010500Y-136733600D01*
X157010500Y-136191675D01*
X157014376Y-136163895D01*
X157014376Y-136163891D01*
X157014401Y-136163807D01*
X157014367Y-136163444D01*
X157010933Y-136126380D01*
X157010500Y-136117015D01*
X157010500Y-136107757D01*
X157010432Y-136107391D01*
X157008796Y-136098646D01*
X157007503Y-136089370D01*
X157004035Y-136051940D01*
X157003990Y-136051850D01*
X156995079Y-136025264D01*
X156995061Y-136025167D01*
X156975273Y-135993209D01*
X156970713Y-135985021D01*
X156953958Y-135951373D01*
X156953958Y-135951372D01*
X156953885Y-135951306D01*
X156935967Y-135929726D01*
X156935918Y-135929647D01*
X156905927Y-135906999D01*
X156898713Y-135901009D01*
X156870934Y-135875685D01*
X156870932Y-135875683D01*
X156870859Y-135875655D01*
X156870835Y-135875646D01*
X156846338Y-135862000D01*
X156846265Y-135861945D01*
X156846264Y-135861944D01*
X156846263Y-135861943D01*
X156846262Y-135861943D01*
X156810116Y-135851659D01*
X156801235Y-135848683D01*
X156766173Y-135835100D01*
X156766076Y-135835100D01*
X156738302Y-135831226D01*
X156738208Y-135831199D01*
X156738205Y-135831199D01*
X156714290Y-135833415D01*
X156700779Y-135834667D01*
X156691416Y-135835100D01*
X145838000Y-135835100D01*
X145778340Y-135815715D01*
X145741468Y-135764965D01*
X145736500Y-135733600D01*
X145736500Y-130965602D01*
X153368429Y-130965602D01*
X153388684Y-131235891D01*
X153388686Y-131235906D01*
X153399526Y-131283398D01*
X153449001Y-131500159D01*
X153548029Y-131752479D01*
X153548031Y-131752482D01*
X153639918Y-131911637D01*
X153683557Y-131987221D01*
X153852558Y-132199142D01*
X154017363Y-132352058D01*
X154051258Y-132383508D01*
X154051260Y-132383510D01*
X154275210Y-132536196D01*
X154275213Y-132536198D01*
X154519419Y-132653802D01*
X154519421Y-132653802D01*
X154519428Y-132653806D01*
X154778442Y-132733701D01*
X155046472Y-132774100D01*
X155046478Y-132774100D01*
X155317522Y-132774100D01*
X155317528Y-132774100D01*
X155585558Y-132733701D01*
X155844572Y-132653806D01*
X156088786Y-132536199D01*
X156312743Y-132383507D01*
X156511442Y-132199142D01*
X156680443Y-131987221D01*
X156815971Y-131752479D01*
X156914999Y-131500159D01*
X156975315Y-131235899D01*
X156995571Y-130965600D01*
X156975315Y-130695301D01*
X156930739Y-130500002D01*
X186794451Y-130500002D01*
X186814616Y-130769095D01*
X186814618Y-130769110D01*
X186874665Y-131032191D01*
X186874666Y-131032195D01*
X186946245Y-131214574D01*
X186973256Y-131283396D01*
X186973259Y-131283402D01*
X187108184Y-131517101D01*
X187108187Y-131517106D01*
X187276440Y-131728087D01*
X187474260Y-131911636D01*
X187474262Y-131911638D01*
X187697221Y-132063648D01*
X187697224Y-132063650D01*
X187940352Y-132180735D01*
X187940354Y-132180735D01*
X187940359Y-132180738D01*
X188198228Y-132260280D01*
X188465071Y-132300500D01*
X188465077Y-132300500D01*
X188734923Y-132300500D01*
X188734929Y-132300500D01*
X189001772Y-132260280D01*
X189259641Y-132180738D01*
X189502775Y-132063651D01*
X189725741Y-131911635D01*
X189923561Y-131728085D01*
X190091815Y-131517102D01*
X190226743Y-131283398D01*
X190325334Y-131032195D01*
X190340533Y-130965602D01*
X210042429Y-130965602D01*
X210062684Y-131235891D01*
X210062686Y-131235906D01*
X210073526Y-131283398D01*
X210123001Y-131500159D01*
X210222029Y-131752479D01*
X210222031Y-131752482D01*
X210313918Y-131911637D01*
X210357557Y-131987221D01*
X210526558Y-132199142D01*
X210691363Y-132352058D01*
X210725258Y-132383508D01*
X210725260Y-132383510D01*
X210949210Y-132536196D01*
X210949213Y-132536198D01*
X211193419Y-132653802D01*
X211193421Y-132653802D01*
X211193428Y-132653806D01*
X211452442Y-132733701D01*
X211720472Y-132774100D01*
X211720478Y-132774100D01*
X211991522Y-132774100D01*
X211991528Y-132774100D01*
X212259558Y-132733701D01*
X212518572Y-132653806D01*
X212762786Y-132536199D01*
X212986743Y-132383507D01*
X213185442Y-132199142D01*
X213354443Y-131987221D01*
X213489971Y-131752479D01*
X213588999Y-131500159D01*
X213649315Y-131235899D01*
X213669571Y-130965600D01*
X213649315Y-130695301D01*
X213588999Y-130431041D01*
X213489971Y-130178721D01*
X213354443Y-129943979D01*
X213185442Y-129732058D01*
X212986743Y-129547693D01*
X212986741Y-129547691D01*
X212986739Y-129547689D01*
X212762789Y-129395002D01*
X212685644Y-129357851D01*
X212518572Y-129277394D01*
X212259558Y-129197499D01*
X212259555Y-129197498D01*
X212259549Y-129197497D01*
X211991532Y-129157100D01*
X211991528Y-129157100D01*
X211720472Y-129157100D01*
X211720467Y-129157100D01*
X211452450Y-129197497D01*
X211452442Y-129197499D01*
X211193428Y-129277394D01*
X211193419Y-129277397D01*
X210949213Y-129395001D01*
X210949210Y-129395003D01*
X210725260Y-129547689D01*
X210725258Y-129547691D01*
X210526567Y-129732049D01*
X210526562Y-129732053D01*
X210526558Y-129732058D01*
X210526554Y-129732062D01*
X210526553Y-129732064D01*
X210357560Y-129943974D01*
X210357556Y-129943979D01*
X210222031Y-130178717D01*
X210222029Y-130178721D01*
X210123001Y-130431041D01*
X210123000Y-130431044D01*
X210122999Y-130431044D01*
X210062686Y-130695293D01*
X210062684Y-130695308D01*
X210042429Y-130965597D01*
X210042429Y-130965602D01*
X190340533Y-130965602D01*
X190385383Y-130769103D01*
X190405549Y-130500000D01*
X190385383Y-130230897D01*
X190325334Y-129967805D01*
X190226743Y-129716602D01*
X190091815Y-129482898D01*
X190091812Y-129482893D01*
X189923559Y-129271912D01*
X189725745Y-129088368D01*
X189725738Y-129088362D01*
X189502773Y-128936347D01*
X189259649Y-128819265D01*
X189259643Y-128819263D01*
X189259641Y-128819262D01*
X189001772Y-128739720D01*
X189001769Y-128739719D01*
X189001763Y-128739718D01*
X188734933Y-128699500D01*
X188734929Y-128699500D01*
X188465071Y-128699500D01*
X188465066Y-128699500D01*
X188198236Y-128739718D01*
X188198228Y-128739720D01*
X187940352Y-128819264D01*
X187697224Y-128936349D01*
X187697221Y-128936351D01*
X187474262Y-129088361D01*
X187474260Y-129088363D01*
X187276440Y-129271912D01*
X187108187Y-129482893D01*
X187108184Y-129482898D01*
X186973259Y-129716597D01*
X186973256Y-129716603D01*
X186896950Y-129911026D01*
X186874666Y-129967805D01*
X186874665Y-129967808D01*
X186874664Y-129967808D01*
X186814618Y-130230889D01*
X186814616Y-130230904D01*
X186794451Y-130499997D01*
X186794451Y-130500002D01*
X156930739Y-130500002D01*
X156914999Y-130431041D01*
X156815971Y-130178721D01*
X156680443Y-129943979D01*
X156511442Y-129732058D01*
X156312743Y-129547693D01*
X156312741Y-129547691D01*
X156312739Y-129547689D01*
X156088789Y-129395002D01*
X156011644Y-129357851D01*
X155844572Y-129277394D01*
X155585558Y-129197499D01*
X155585555Y-129197498D01*
X155585549Y-129197497D01*
X155317532Y-129157100D01*
X155317528Y-129157100D01*
X155046472Y-129157100D01*
X155046467Y-129157100D01*
X154778450Y-129197497D01*
X154778442Y-129197499D01*
X154519428Y-129277394D01*
X154519419Y-129277397D01*
X154275213Y-129395001D01*
X154275210Y-129395003D01*
X154051260Y-129547689D01*
X154051258Y-129547691D01*
X153852567Y-129732049D01*
X153852562Y-129732053D01*
X153852558Y-129732058D01*
X153852554Y-129732062D01*
X153852553Y-129732064D01*
X153683560Y-129943974D01*
X153683556Y-129943979D01*
X153548031Y-130178717D01*
X153548029Y-130178721D01*
X153449001Y-130431041D01*
X153449000Y-130431044D01*
X153448999Y-130431044D01*
X153388686Y-130695293D01*
X153388684Y-130695308D01*
X153368429Y-130965597D01*
X153368429Y-130965602D01*
X145736500Y-130965602D01*
X145736500Y-125676075D01*
X145740376Y-125648295D01*
X145740376Y-125648291D01*
X145740401Y-125648207D01*
X145739074Y-125633891D01*
X145736933Y-125610780D01*
X145736500Y-125601415D01*
X145736500Y-125592157D01*
X145736432Y-125591791D01*
X145734796Y-125583046D01*
X145733503Y-125573770D01*
X145730035Y-125536340D01*
X145729990Y-125536250D01*
X145721079Y-125509664D01*
X145721061Y-125509567D01*
X145701273Y-125477609D01*
X145696713Y-125469421D01*
X145679958Y-125435773D01*
X145679958Y-125435772D01*
X145679885Y-125435706D01*
X145661967Y-125414126D01*
X145661918Y-125414047D01*
X145631927Y-125391399D01*
X145624713Y-125385409D01*
X145596934Y-125360085D01*
X145596932Y-125360083D01*
X145596859Y-125360055D01*
X145596835Y-125360046D01*
X145572338Y-125346400D01*
X145572265Y-125346345D01*
X145572264Y-125346344D01*
X145572263Y-125346343D01*
X145572262Y-125346343D01*
X145536116Y-125336059D01*
X145527235Y-125333083D01*
X145492173Y-125319500D01*
X145492076Y-125319500D01*
X145464302Y-125315626D01*
X145464208Y-125315599D01*
X145464205Y-125315599D01*
X145440290Y-125317815D01*
X145426779Y-125319067D01*
X145417416Y-125319500D01*
X134564011Y-125319500D01*
X134504351Y-125300115D01*
X134467479Y-125249365D01*
X134462511Y-125217997D01*
X134462611Y-121500002D01*
X186794451Y-121500002D01*
X186814616Y-121769095D01*
X186814618Y-121769110D01*
X186874665Y-122032191D01*
X186874666Y-122032195D01*
X186946245Y-122214574D01*
X186973256Y-122283396D01*
X186973259Y-122283402D01*
X187108184Y-122517101D01*
X187108187Y-122517106D01*
X187276440Y-122728087D01*
X187474260Y-122911636D01*
X187474262Y-122911638D01*
X187697221Y-123063648D01*
X187697224Y-123063650D01*
X187940352Y-123180735D01*
X187940354Y-123180735D01*
X187940359Y-123180738D01*
X188198228Y-123260280D01*
X188465071Y-123300500D01*
X188465077Y-123300500D01*
X188734923Y-123300500D01*
X188734929Y-123300500D01*
X189001772Y-123260280D01*
X189259641Y-123180738D01*
X189502775Y-123063651D01*
X189725741Y-122911635D01*
X189923561Y-122728085D01*
X190091815Y-122517102D01*
X190226743Y-122283398D01*
X190325334Y-122032195D01*
X190385383Y-121769103D01*
X190405549Y-121500000D01*
X190385383Y-121230897D01*
X190325334Y-120967805D01*
X190226743Y-120716602D01*
X190091815Y-120482898D01*
X190091812Y-120482893D01*
X189923559Y-120271912D01*
X189725745Y-120088368D01*
X189725738Y-120088362D01*
X189502773Y-119936347D01*
X189259649Y-119819265D01*
X189259643Y-119819263D01*
X189259641Y-119819262D01*
X189001772Y-119739720D01*
X189001769Y-119739719D01*
X189001763Y-119739718D01*
X188734933Y-119699500D01*
X188734929Y-119699500D01*
X188465071Y-119699500D01*
X188465066Y-119699500D01*
X188198236Y-119739718D01*
X188198228Y-119739720D01*
X187940352Y-119819264D01*
X187697224Y-119936349D01*
X187697221Y-119936351D01*
X187474262Y-120088361D01*
X187474260Y-120088363D01*
X187276440Y-120271912D01*
X187108187Y-120482893D01*
X187108184Y-120482898D01*
X186973259Y-120716597D01*
X186973256Y-120716603D01*
X186896950Y-120911026D01*
X186874666Y-120967805D01*
X186874665Y-120967808D01*
X186874664Y-120967808D01*
X186814618Y-121230889D01*
X186814616Y-121230904D01*
X186794451Y-121499997D01*
X186794451Y-121500002D01*
X134462611Y-121500002D01*
X134462705Y-118000002D01*
X139094451Y-118000002D01*
X139114616Y-118269095D01*
X139114618Y-118269110D01*
X139174665Y-118532191D01*
X139174666Y-118532195D01*
X139201277Y-118599997D01*
X139273256Y-118783396D01*
X139273259Y-118783402D01*
X139408184Y-119017101D01*
X139408187Y-119017106D01*
X139576440Y-119228087D01*
X139774260Y-119411636D01*
X139774262Y-119411638D01*
X139997221Y-119563648D01*
X139997224Y-119563650D01*
X140240352Y-119680735D01*
X140240354Y-119680735D01*
X140240359Y-119680738D01*
X140498228Y-119760280D01*
X140765071Y-119800500D01*
X140765077Y-119800500D01*
X141034923Y-119800500D01*
X141034929Y-119800500D01*
X141301772Y-119760280D01*
X141559641Y-119680738D01*
X141802775Y-119563651D01*
X142025741Y-119411635D01*
X142223561Y-119228085D01*
X142391815Y-119017102D01*
X142526743Y-118783398D01*
X142625334Y-118532195D01*
X142685383Y-118269103D01*
X142705549Y-118000002D01*
X148094451Y-118000002D01*
X148114616Y-118269095D01*
X148114618Y-118269110D01*
X148174665Y-118532191D01*
X148174666Y-118532195D01*
X148201277Y-118599997D01*
X148273256Y-118783396D01*
X148273259Y-118783402D01*
X148408184Y-119017101D01*
X148408187Y-119017106D01*
X148576440Y-119228087D01*
X148774260Y-119411636D01*
X148774262Y-119411638D01*
X148997221Y-119563648D01*
X148997224Y-119563650D01*
X149240352Y-119680735D01*
X149240354Y-119680735D01*
X149240359Y-119680738D01*
X149498228Y-119760280D01*
X149765071Y-119800500D01*
X149765077Y-119800500D01*
X150034923Y-119800500D01*
X150034929Y-119800500D01*
X150301772Y-119760280D01*
X150559641Y-119680738D01*
X150802775Y-119563651D01*
X151025741Y-119411635D01*
X151223561Y-119228085D01*
X151391815Y-119017102D01*
X151526743Y-118783398D01*
X151598721Y-118600002D01*
X213494451Y-118600002D01*
X213514616Y-118869095D01*
X213514618Y-118869110D01*
X213574665Y-119132191D01*
X213574666Y-119132195D01*
X213646245Y-119314574D01*
X213673256Y-119383396D01*
X213673259Y-119383402D01*
X213808184Y-119617101D01*
X213808187Y-119617106D01*
X213976440Y-119828087D01*
X214174260Y-120011636D01*
X214174262Y-120011638D01*
X214397221Y-120163648D01*
X214397224Y-120163650D01*
X214640352Y-120280735D01*
X214640354Y-120280735D01*
X214640359Y-120280738D01*
X214898228Y-120360280D01*
X215165071Y-120400500D01*
X215165077Y-120400500D01*
X215434923Y-120400500D01*
X215434929Y-120400500D01*
X215701772Y-120360280D01*
X215959641Y-120280738D01*
X216202775Y-120163651D01*
X216425741Y-120011635D01*
X216623561Y-119828085D01*
X216791815Y-119617102D01*
X216926743Y-119383398D01*
X217025334Y-119132195D01*
X217085383Y-118869103D01*
X217105549Y-118600002D01*
X222494451Y-118600002D01*
X222514616Y-118869095D01*
X222514618Y-118869110D01*
X222574665Y-119132191D01*
X222574666Y-119132195D01*
X222646245Y-119314574D01*
X222673256Y-119383396D01*
X222673259Y-119383402D01*
X222808184Y-119617101D01*
X222808187Y-119617106D01*
X222976440Y-119828087D01*
X223174260Y-120011636D01*
X223174262Y-120011638D01*
X223397221Y-120163648D01*
X223397224Y-120163650D01*
X223640352Y-120280735D01*
X223640354Y-120280735D01*
X223640359Y-120280738D01*
X223898228Y-120360280D01*
X224165071Y-120400500D01*
X224165077Y-120400500D01*
X224434923Y-120400500D01*
X224434929Y-120400500D01*
X224701772Y-120360280D01*
X224959641Y-120280738D01*
X225202775Y-120163651D01*
X225425741Y-120011635D01*
X225623561Y-119828085D01*
X225791815Y-119617102D01*
X225926743Y-119383398D01*
X226025334Y-119132195D01*
X226085383Y-118869103D01*
X226105549Y-118600000D01*
X226085383Y-118330897D01*
X226025334Y-118067805D01*
X225926743Y-117816602D01*
X225791815Y-117582898D01*
X225791812Y-117582893D01*
X225623559Y-117371912D01*
X225425745Y-117188368D01*
X225425738Y-117188362D01*
X225202773Y-117036347D01*
X224959649Y-116919265D01*
X224959643Y-116919263D01*
X224959641Y-116919262D01*
X224701772Y-116839720D01*
X224701769Y-116839719D01*
X224701763Y-116839718D01*
X224434933Y-116799500D01*
X224434929Y-116799500D01*
X224165071Y-116799500D01*
X224165066Y-116799500D01*
X223898236Y-116839718D01*
X223898228Y-116839720D01*
X223640352Y-116919264D01*
X223397224Y-117036349D01*
X223397221Y-117036351D01*
X223174262Y-117188361D01*
X223174260Y-117188363D01*
X222976440Y-117371912D01*
X222808187Y-117582893D01*
X222808184Y-117582898D01*
X222673259Y-117816597D01*
X222673256Y-117816603D01*
X222601279Y-117999997D01*
X222574666Y-118067805D01*
X222574665Y-118067808D01*
X222574664Y-118067808D01*
X222514618Y-118330889D01*
X222514616Y-118330904D01*
X222494451Y-118599997D01*
X222494451Y-118600002D01*
X217105549Y-118600002D01*
X217105549Y-118600000D01*
X217085383Y-118330897D01*
X217025334Y-118067805D01*
X216926743Y-117816602D01*
X216791815Y-117582898D01*
X216791812Y-117582893D01*
X216623559Y-117371912D01*
X216425745Y-117188368D01*
X216425738Y-117188362D01*
X216202773Y-117036347D01*
X215959649Y-116919265D01*
X215959643Y-116919263D01*
X215959641Y-116919262D01*
X215701772Y-116839720D01*
X215701769Y-116839719D01*
X215701763Y-116839718D01*
X215434933Y-116799500D01*
X215434929Y-116799500D01*
X215165071Y-116799500D01*
X215165066Y-116799500D01*
X214898236Y-116839718D01*
X214898228Y-116839720D01*
X214640352Y-116919264D01*
X214397224Y-117036349D01*
X214397221Y-117036351D01*
X214174262Y-117188361D01*
X214174260Y-117188363D01*
X213976440Y-117371912D01*
X213808187Y-117582893D01*
X213808184Y-117582898D01*
X213673259Y-117816597D01*
X213673256Y-117816603D01*
X213601279Y-117999997D01*
X213574666Y-118067805D01*
X213574665Y-118067808D01*
X213574664Y-118067808D01*
X213514618Y-118330889D01*
X213514616Y-118330904D01*
X213494451Y-118599997D01*
X213494451Y-118600002D01*
X151598721Y-118600002D01*
X151625334Y-118532195D01*
X151685383Y-118269103D01*
X151705549Y-118000000D01*
X151685383Y-117730897D01*
X151625334Y-117467805D01*
X151526743Y-117216602D01*
X151391815Y-116982898D01*
X151391812Y-116982893D01*
X151223559Y-116771912D01*
X151025745Y-116588368D01*
X151025738Y-116588362D01*
X150802773Y-116436347D01*
X150559649Y-116319265D01*
X150559643Y-116319263D01*
X150559641Y-116319262D01*
X150301772Y-116239720D01*
X150301769Y-116239719D01*
X150301763Y-116239718D01*
X150034933Y-116199500D01*
X150034929Y-116199500D01*
X149765071Y-116199500D01*
X149765066Y-116199500D01*
X149498236Y-116239718D01*
X149498228Y-116239720D01*
X149240352Y-116319264D01*
X148997224Y-116436349D01*
X148997221Y-116436351D01*
X148774262Y-116588361D01*
X148774260Y-116588363D01*
X148576440Y-116771912D01*
X148408187Y-116982893D01*
X148408184Y-116982898D01*
X148273259Y-117216597D01*
X148273256Y-117216603D01*
X148212302Y-117371912D01*
X148174666Y-117467805D01*
X148174665Y-117467808D01*
X148174664Y-117467808D01*
X148114618Y-117730889D01*
X148114616Y-117730904D01*
X148094451Y-117999997D01*
X148094451Y-118000002D01*
X142705549Y-118000002D01*
X142705549Y-118000000D01*
X142685383Y-117730897D01*
X142625334Y-117467805D01*
X142526743Y-117216602D01*
X142391815Y-116982898D01*
X142391812Y-116982893D01*
X142223559Y-116771912D01*
X142025745Y-116588368D01*
X142025738Y-116588362D01*
X141802773Y-116436347D01*
X141559649Y-116319265D01*
X141559643Y-116319263D01*
X141559641Y-116319262D01*
X141301772Y-116239720D01*
X141301769Y-116239719D01*
X141301763Y-116239718D01*
X141034933Y-116199500D01*
X141034929Y-116199500D01*
X140765071Y-116199500D01*
X140765066Y-116199500D01*
X140498236Y-116239718D01*
X140498228Y-116239720D01*
X140240352Y-116319264D01*
X139997224Y-116436349D01*
X139997221Y-116436351D01*
X139774262Y-116588361D01*
X139774260Y-116588363D01*
X139576440Y-116771912D01*
X139408187Y-116982893D01*
X139408184Y-116982898D01*
X139273259Y-117216597D01*
X139273256Y-117216603D01*
X139212302Y-117371912D01*
X139174666Y-117467805D01*
X139174665Y-117467808D01*
X139174664Y-117467808D01*
X139114618Y-117730889D01*
X139114616Y-117730904D01*
X139094451Y-117999997D01*
X139094451Y-118000002D01*
X134462705Y-118000002D01*
X134462856Y-112400002D01*
X157686429Y-112400002D01*
X157706684Y-112670291D01*
X157706686Y-112670306D01*
X157749315Y-112857071D01*
X157767001Y-112934559D01*
X157866029Y-113186879D01*
X158001557Y-113421621D01*
X158170558Y-113633542D01*
X158335363Y-113786458D01*
X158369258Y-113817908D01*
X158369260Y-113817910D01*
X158593210Y-113970596D01*
X158593213Y-113970598D01*
X158837419Y-114088202D01*
X158837421Y-114088202D01*
X158837428Y-114088206D01*
X159096442Y-114168101D01*
X159364472Y-114208500D01*
X159364478Y-114208500D01*
X159635522Y-114208500D01*
X159635528Y-114208500D01*
X159903558Y-114168101D01*
X160162572Y-114088206D01*
X160406786Y-113970599D01*
X160630743Y-113817907D01*
X160829442Y-113633542D01*
X160998443Y-113421621D01*
X161133971Y-113186879D01*
X161232999Y-112934559D01*
X161293315Y-112670299D01*
X161313571Y-112400002D01*
X170186429Y-112400002D01*
X170206684Y-112670291D01*
X170206686Y-112670306D01*
X170249315Y-112857071D01*
X170267001Y-112934559D01*
X170366029Y-113186879D01*
X170501557Y-113421621D01*
X170670558Y-113633542D01*
X170835363Y-113786458D01*
X170869258Y-113817908D01*
X170869260Y-113817910D01*
X171093210Y-113970596D01*
X171093213Y-113970598D01*
X171337419Y-114088202D01*
X171337421Y-114088202D01*
X171337428Y-114088206D01*
X171596442Y-114168101D01*
X171864472Y-114208500D01*
X171864478Y-114208500D01*
X172135522Y-114208500D01*
X172135528Y-114208500D01*
X172403558Y-114168101D01*
X172662572Y-114088206D01*
X172906786Y-113970599D01*
X173130743Y-113817907D01*
X173329442Y-113633542D01*
X173498443Y-113421621D01*
X173554227Y-113325000D01*
X181069355Y-113325000D01*
X181089859Y-113493868D01*
X181089860Y-113493873D01*
X181142826Y-113633535D01*
X181150182Y-113652930D01*
X181246817Y-113792929D01*
X181374148Y-113905734D01*
X181524775Y-113984790D01*
X181689944Y-114025500D01*
X181689945Y-114025500D01*
X181860055Y-114025500D01*
X181860056Y-114025500D01*
X182025225Y-113984790D01*
X182175852Y-113905734D01*
X182303183Y-113792929D01*
X182399818Y-113652930D01*
X182460140Y-113493872D01*
X182480645Y-113325000D01*
X182460140Y-113156128D01*
X182399818Y-112997070D01*
X182303183Y-112857071D01*
X182175852Y-112744266D01*
X182146810Y-112729023D01*
X182025230Y-112665212D01*
X182025225Y-112665210D01*
X181860056Y-112624500D01*
X181689944Y-112624500D01*
X181607359Y-112644855D01*
X181524774Y-112665210D01*
X181524769Y-112665212D01*
X181374153Y-112744263D01*
X181374150Y-112744264D01*
X181374148Y-112744266D01*
X181374147Y-112744267D01*
X181246817Y-112857071D01*
X181150180Y-112997073D01*
X181089860Y-113156126D01*
X181089859Y-113156131D01*
X181069355Y-113325000D01*
X173554227Y-113325000D01*
X173633971Y-113186879D01*
X173732999Y-112934559D01*
X173793315Y-112670299D01*
X173813571Y-112400000D01*
X173812905Y-112391118D01*
X173807494Y-112318910D01*
X173793315Y-112129701D01*
X173732999Y-111865441D01*
X173633971Y-111613121D01*
X173498443Y-111378379D01*
X173329442Y-111166458D01*
X173130743Y-110982093D01*
X173130741Y-110982091D01*
X173130739Y-110982089D01*
X172906789Y-110829402D01*
X172827286Y-110791116D01*
X172662572Y-110711794D01*
X172403558Y-110631899D01*
X172403555Y-110631898D01*
X172403549Y-110631897D01*
X172135532Y-110591500D01*
X172135528Y-110591500D01*
X171864472Y-110591500D01*
X171864467Y-110591500D01*
X171596450Y-110631897D01*
X171596442Y-110631899D01*
X171337428Y-110711794D01*
X171337419Y-110711797D01*
X171093213Y-110829401D01*
X171093210Y-110829403D01*
X170869260Y-110982089D01*
X170869258Y-110982091D01*
X170670567Y-111166449D01*
X170670562Y-111166453D01*
X170670558Y-111166458D01*
X170670554Y-111166462D01*
X170670553Y-111166464D01*
X170501560Y-111378374D01*
X170501556Y-111378379D01*
X170370182Y-111605928D01*
X170366029Y-111613121D01*
X170267001Y-111865441D01*
X170267000Y-111865444D01*
X170266999Y-111865444D01*
X170206686Y-112129693D01*
X170206684Y-112129708D01*
X170186429Y-112399997D01*
X170186429Y-112400002D01*
X161313571Y-112400002D01*
X161313571Y-112400000D01*
X161312905Y-112391118D01*
X161307494Y-112318910D01*
X161293315Y-112129701D01*
X161232999Y-111865441D01*
X161133971Y-111613121D01*
X160998443Y-111378379D01*
X160829442Y-111166458D01*
X160630743Y-110982093D01*
X160630741Y-110982091D01*
X160630739Y-110982089D01*
X160406789Y-110829402D01*
X160327286Y-110791116D01*
X160162572Y-110711794D01*
X159903558Y-110631899D01*
X159903555Y-110631898D01*
X159903549Y-110631897D01*
X159635532Y-110591500D01*
X159635528Y-110591500D01*
X159364472Y-110591500D01*
X159364467Y-110591500D01*
X159096450Y-110631897D01*
X159096442Y-110631899D01*
X158837428Y-110711794D01*
X158837419Y-110711797D01*
X158593213Y-110829401D01*
X158593210Y-110829403D01*
X158369260Y-110982089D01*
X158369258Y-110982091D01*
X158170567Y-111166449D01*
X158170562Y-111166453D01*
X158170558Y-111166458D01*
X158170554Y-111166462D01*
X158170553Y-111166464D01*
X158001560Y-111378374D01*
X158001556Y-111378379D01*
X157870182Y-111605928D01*
X157866029Y-111613121D01*
X157767001Y-111865441D01*
X157767000Y-111865444D01*
X157766999Y-111865444D01*
X157706686Y-112129693D01*
X157706684Y-112129708D01*
X157686429Y-112399997D01*
X157686429Y-112400002D01*
X134462856Y-112400002D01*
X134462943Y-109175000D01*
X177994355Y-109175000D01*
X178014859Y-109343868D01*
X178014860Y-109343873D01*
X178060058Y-109463053D01*
X178075182Y-109502930D01*
X178171817Y-109642929D01*
X178299148Y-109755734D01*
X178449775Y-109834790D01*
X178614944Y-109875500D01*
X178614945Y-109875500D01*
X178785055Y-109875500D01*
X178785056Y-109875500D01*
X178950225Y-109834790D01*
X179100852Y-109755734D01*
X179228183Y-109642929D01*
X179324818Y-109502930D01*
X179385140Y-109343872D01*
X179405645Y-109175000D01*
X179385140Y-109006128D01*
X179324818Y-108847070D01*
X179228183Y-108707071D01*
X179100852Y-108594266D01*
X179050670Y-108567928D01*
X178950230Y-108515212D01*
X178950225Y-108515210D01*
X178891428Y-108500718D01*
X178785056Y-108474500D01*
X178614944Y-108474500D01*
X178532359Y-108494855D01*
X178449774Y-108515210D01*
X178449769Y-108515212D01*
X178299153Y-108594263D01*
X178299150Y-108594264D01*
X178299148Y-108594266D01*
X178171817Y-108707071D01*
X178101542Y-108808882D01*
X178075180Y-108847073D01*
X178014860Y-109006126D01*
X178014859Y-109006131D01*
X177994355Y-109175000D01*
X134462943Y-109175000D01*
X134462977Y-107921793D01*
X165695599Y-107921793D01*
X165696925Y-107936108D01*
X165699067Y-107959217D01*
X165699500Y-107968583D01*
X165699500Y-107977839D01*
X165699501Y-107977852D01*
X165701202Y-107986958D01*
X165702495Y-107996226D01*
X165705965Y-108033659D01*
X165705965Y-108033662D01*
X165706012Y-108033755D01*
X165714918Y-108060325D01*
X165714937Y-108060426D01*
X165714939Y-108060434D01*
X165734726Y-108092391D01*
X165739287Y-108100580D01*
X165756041Y-108134227D01*
X165756108Y-108134288D01*
X165774028Y-108155867D01*
X165774081Y-108155952D01*
X165800519Y-108175917D01*
X165804070Y-108178598D01*
X165811276Y-108184581D01*
X165839067Y-108209916D01*
X165839071Y-108209917D01*
X165839072Y-108209918D01*
X165839158Y-108209952D01*
X165863656Y-108223596D01*
X165863733Y-108223654D01*
X165863736Y-108223656D01*
X165899885Y-108233941D01*
X165908762Y-108236915D01*
X165943827Y-108250500D01*
X165943924Y-108250500D01*
X165971698Y-108254374D01*
X165971793Y-108254401D01*
X166009220Y-108250932D01*
X166018584Y-108250500D01*
X177943924Y-108250500D01*
X177971698Y-108254374D01*
X177971793Y-108254401D01*
X178009220Y-108250932D01*
X178018584Y-108250500D01*
X178027845Y-108250500D01*
X178029759Y-108250141D01*
X178036947Y-108248797D01*
X178046215Y-108247504D01*
X178083660Y-108244035D01*
X178083745Y-108243992D01*
X178110342Y-108235078D01*
X178110433Y-108235061D01*
X178142401Y-108215266D01*
X178150559Y-108210721D01*
X178184228Y-108193958D01*
X178184286Y-108193893D01*
X178205872Y-108175968D01*
X178205952Y-108175919D01*
X178228616Y-108145905D01*
X178234578Y-108138725D01*
X178259916Y-108110933D01*
X178259949Y-108110846D01*
X178273599Y-108086338D01*
X178273656Y-108086264D01*
X178283941Y-108050112D01*
X178286915Y-108041237D01*
X178300500Y-108006173D01*
X178300500Y-108006075D01*
X178304376Y-107978295D01*
X178304376Y-107978291D01*
X178304401Y-107978207D01*
X178304367Y-107977844D01*
X178300933Y-107940780D01*
X178300500Y-107931415D01*
X178300500Y-107900000D01*
X182469355Y-107900000D01*
X182489859Y-108068868D01*
X182489860Y-108068873D01*
X182544445Y-108212804D01*
X182550182Y-108227930D01*
X182646817Y-108367929D01*
X182774148Y-108480734D01*
X182895733Y-108544547D01*
X182900796Y-108547205D01*
X182924775Y-108559790D01*
X183089944Y-108600500D01*
X183089945Y-108600500D01*
X183260055Y-108600500D01*
X183260056Y-108600500D01*
X183425225Y-108559790D01*
X183575852Y-108480734D01*
X183703183Y-108367929D01*
X183799818Y-108227930D01*
X183848335Y-108100000D01*
X189544355Y-108100000D01*
X189564859Y-108268868D01*
X189564860Y-108268873D01*
X189602426Y-108367929D01*
X189625182Y-108427930D01*
X189721817Y-108567929D01*
X189849148Y-108680734D01*
X189999775Y-108759790D01*
X190164944Y-108800500D01*
X190164945Y-108800500D01*
X190335055Y-108800500D01*
X190335056Y-108800500D01*
X190500225Y-108759790D01*
X190650852Y-108680734D01*
X190778183Y-108567929D01*
X190874818Y-108427930D01*
X190935140Y-108268872D01*
X190955645Y-108100000D01*
X190935140Y-107931128D01*
X190874818Y-107772070D01*
X190778183Y-107632071D01*
X190650852Y-107519266D01*
X190554687Y-107468794D01*
X190500230Y-107440212D01*
X190500225Y-107440210D01*
X190431516Y-107423275D01*
X190335056Y-107399500D01*
X190164944Y-107399500D01*
X190098004Y-107415999D01*
X189999774Y-107440210D01*
X189999769Y-107440212D01*
X189849153Y-107519263D01*
X189849150Y-107519264D01*
X189849148Y-107519266D01*
X189849147Y-107519267D01*
X189721817Y-107632071D01*
X189625180Y-107772073D01*
X189564860Y-107931126D01*
X189564859Y-107931131D01*
X189544355Y-108100000D01*
X183848335Y-108100000D01*
X183860140Y-108068872D01*
X183880645Y-107900000D01*
X183860140Y-107731128D01*
X183799818Y-107572070D01*
X183703183Y-107432071D01*
X183575852Y-107319266D01*
X183546810Y-107304023D01*
X183425230Y-107240212D01*
X183425225Y-107240210D01*
X183367860Y-107226071D01*
X183260056Y-107199500D01*
X183089944Y-107199500D01*
X183007359Y-107219855D01*
X182924774Y-107240210D01*
X182924769Y-107240212D01*
X182774153Y-107319263D01*
X182774150Y-107319264D01*
X182774148Y-107319266D01*
X182693046Y-107391116D01*
X182646817Y-107432071D01*
X182550180Y-107572073D01*
X182489860Y-107731126D01*
X182489859Y-107731131D01*
X182469355Y-107900000D01*
X178300500Y-107900000D01*
X178300500Y-106800000D01*
X178519355Y-106800000D01*
X178539859Y-106968868D01*
X178539860Y-106968873D01*
X178575578Y-107063056D01*
X178600182Y-107127930D01*
X178696817Y-107267929D01*
X178824148Y-107380734D01*
X178974775Y-107459790D01*
X179139944Y-107500500D01*
X179139945Y-107500500D01*
X179310055Y-107500500D01*
X179310056Y-107500500D01*
X179475225Y-107459790D01*
X179625852Y-107380734D01*
X179753183Y-107267929D01*
X179849818Y-107127930D01*
X179910140Y-106968872D01*
X179930645Y-106800000D01*
X179910140Y-106631128D01*
X179849818Y-106472070D01*
X179753183Y-106332071D01*
X179625852Y-106219266D01*
X179596810Y-106204023D01*
X179475230Y-106140212D01*
X179475225Y-106140210D01*
X179461974Y-106136944D01*
X179310056Y-106099500D01*
X179139944Y-106099500D01*
X179057359Y-106119855D01*
X178974774Y-106140210D01*
X178974769Y-106140212D01*
X178824153Y-106219263D01*
X178824150Y-106219264D01*
X178824148Y-106219266D01*
X178824147Y-106219267D01*
X178696817Y-106332071D01*
X178600180Y-106472073D01*
X178539860Y-106631126D01*
X178539859Y-106631131D01*
X178519355Y-106800000D01*
X178300500Y-106800000D01*
X178300500Y-101810000D01*
X181844355Y-101810000D01*
X181864859Y-101978868D01*
X181864860Y-101978873D01*
X181924808Y-102136946D01*
X181925182Y-102137930D01*
X182021817Y-102277929D01*
X182149148Y-102390734D01*
X182299775Y-102469790D01*
X182464944Y-102510500D01*
X182464945Y-102510500D01*
X182635055Y-102510500D01*
X182635056Y-102510500D01*
X182800225Y-102469790D01*
X182950852Y-102390734D01*
X183078183Y-102277929D01*
X183174818Y-102137930D01*
X183235140Y-101978872D01*
X183255645Y-101810000D01*
X183235140Y-101641128D01*
X183174818Y-101482070D01*
X183078183Y-101342071D01*
X182950852Y-101229266D01*
X182875453Y-101189693D01*
X182800230Y-101150212D01*
X182800225Y-101150210D01*
X182706990Y-101127230D01*
X182635056Y-101109500D01*
X182464944Y-101109500D01*
X182393010Y-101127230D01*
X182299774Y-101150210D01*
X182299769Y-101150212D01*
X182149153Y-101229263D01*
X182149150Y-101229264D01*
X182149148Y-101229266D01*
X182093164Y-101278863D01*
X182021817Y-101342071D01*
X181925180Y-101482073D01*
X181864860Y-101641126D01*
X181864859Y-101641131D01*
X181844355Y-101810000D01*
X178300500Y-101810000D01*
X178300500Y-97625000D01*
X181994355Y-97625000D01*
X182014859Y-97793868D01*
X182014860Y-97793872D01*
X182075182Y-97952930D01*
X182171817Y-98092929D01*
X182299148Y-98205734D01*
X182449775Y-98284790D01*
X182614944Y-98325500D01*
X182614945Y-98325500D01*
X182785055Y-98325500D01*
X182785056Y-98325500D01*
X182950225Y-98284790D01*
X183100852Y-98205734D01*
X183228183Y-98092929D01*
X183324818Y-97952930D01*
X183385140Y-97793872D01*
X183405645Y-97625000D01*
X183385140Y-97456128D01*
X183324818Y-97297070D01*
X183228183Y-97157071D01*
X183100852Y-97044266D01*
X183032937Y-97008621D01*
X182950230Y-96965212D01*
X182950225Y-96965210D01*
X182785056Y-96924500D01*
X182614944Y-96924500D01*
X182532359Y-96944855D01*
X182449774Y-96965210D01*
X182449769Y-96965212D01*
X182299153Y-97044263D01*
X182299150Y-97044264D01*
X182299148Y-97044266D01*
X182171817Y-97157071D01*
X182075180Y-97297073D01*
X182014860Y-97456126D01*
X182014859Y-97456131D01*
X181994355Y-97625000D01*
X178300500Y-97625000D01*
X178300500Y-96106075D01*
X178304376Y-96078295D01*
X178304376Y-96078291D01*
X178304401Y-96078207D01*
X178303074Y-96063891D01*
X178300933Y-96040780D01*
X178300500Y-96031415D01*
X178300500Y-96022157D01*
X178300432Y-96021791D01*
X178298796Y-96013046D01*
X178297503Y-96003770D01*
X178294035Y-95966340D01*
X178293990Y-95966250D01*
X178285079Y-95939664D01*
X178285061Y-95939567D01*
X178265273Y-95907609D01*
X178260713Y-95899421D01*
X178243958Y-95865773D01*
X178243958Y-95865772D01*
X178243885Y-95865706D01*
X178225967Y-95844126D01*
X178225918Y-95844047D01*
X178195927Y-95821399D01*
X178188713Y-95815409D01*
X178160934Y-95790085D01*
X178160932Y-95790083D01*
X178160859Y-95790055D01*
X178160835Y-95790046D01*
X178136338Y-95776400D01*
X178136265Y-95776345D01*
X178136264Y-95776344D01*
X178136263Y-95776343D01*
X178136262Y-95776343D01*
X178100116Y-95766059D01*
X178091235Y-95763083D01*
X178056173Y-95749500D01*
X178056076Y-95749500D01*
X178028302Y-95745626D01*
X178028208Y-95745599D01*
X178028205Y-95745599D01*
X178004290Y-95747815D01*
X177990779Y-95749067D01*
X177981416Y-95749500D01*
X166056076Y-95749500D01*
X166028302Y-95745626D01*
X166028208Y-95745599D01*
X166028205Y-95745599D01*
X166004290Y-95747815D01*
X165990779Y-95749067D01*
X165981416Y-95749500D01*
X165972150Y-95749500D01*
X165963043Y-95751202D01*
X165953773Y-95752495D01*
X165916338Y-95755965D01*
X165916334Y-95755966D01*
X165916235Y-95756016D01*
X165889675Y-95764918D01*
X165889569Y-95764937D01*
X165889567Y-95764938D01*
X165857610Y-95784724D01*
X165849426Y-95789282D01*
X165815771Y-95806041D01*
X165815768Y-95806043D01*
X165815692Y-95806128D01*
X165794146Y-95824019D01*
X165794054Y-95824075D01*
X165794046Y-95824083D01*
X165771399Y-95854072D01*
X165765413Y-95861280D01*
X165740084Y-95889065D01*
X165740082Y-95889068D01*
X165740042Y-95889174D01*
X165726409Y-95913648D01*
X165726346Y-95913730D01*
X165726343Y-95913736D01*
X165716056Y-95949891D01*
X165713078Y-95958776D01*
X165699500Y-95993826D01*
X165699500Y-95993923D01*
X165695627Y-96021694D01*
X165695599Y-96021791D01*
X165695599Y-96021793D01*
X165696925Y-96036108D01*
X165699067Y-96059217D01*
X165699500Y-96068583D01*
X165699500Y-107893923D01*
X165695627Y-107921694D01*
X165695599Y-107921791D01*
X165695599Y-107921793D01*
X134462977Y-107921793D01*
X134463088Y-103800000D01*
X157336496Y-103800000D01*
X157356457Y-103989925D01*
X157356458Y-103989928D01*
X157415473Y-104171556D01*
X157477427Y-104278863D01*
X157510961Y-104336946D01*
X157629678Y-104468794D01*
X157638747Y-104478866D01*
X157793248Y-104591118D01*
X157967712Y-104668794D01*
X158074535Y-104691500D01*
X158154512Y-104708500D01*
X158154513Y-104708500D01*
X158345487Y-104708500D01*
X158532288Y-104668794D01*
X158706752Y-104591118D01*
X158861253Y-104478866D01*
X158989040Y-104336944D01*
X159084527Y-104171556D01*
X159143542Y-103989928D01*
X159163504Y-103800000D01*
X159143542Y-103610072D01*
X159084527Y-103428444D01*
X158989040Y-103263056D01*
X158989039Y-103263055D01*
X158989038Y-103263053D01*
X158861256Y-103121137D01*
X158861255Y-103121136D01*
X158861254Y-103121135D01*
X158861253Y-103121134D01*
X158755699Y-103044444D01*
X158706754Y-103008883D01*
X158706752Y-103008882D01*
X158532288Y-102931206D01*
X158532284Y-102931205D01*
X158345487Y-102891500D01*
X158154513Y-102891500D01*
X157967715Y-102931205D01*
X157967713Y-102931205D01*
X157967712Y-102931206D01*
X157880480Y-102970044D01*
X157793245Y-103008883D01*
X157638744Y-103121136D01*
X157638743Y-103121137D01*
X157510961Y-103263053D01*
X157461061Y-103349484D01*
X157415473Y-103428444D01*
X157391990Y-103500718D01*
X157356458Y-103610071D01*
X157356457Y-103610074D01*
X157336496Y-103799999D01*
X157336496Y-103800000D01*
X134463088Y-103800000D01*
X134463205Y-99450000D01*
X157136496Y-99450000D01*
X157156457Y-99639925D01*
X157156458Y-99639928D01*
X157215473Y-99821556D01*
X157299679Y-99967405D01*
X157310961Y-99986946D01*
X157379491Y-100063056D01*
X157438747Y-100128866D01*
X157593248Y-100241118D01*
X157767712Y-100318794D01*
X157907812Y-100348573D01*
X157954512Y-100358500D01*
X157954513Y-100358500D01*
X158145487Y-100358500D01*
X158332288Y-100318794D01*
X158506752Y-100241118D01*
X158661253Y-100128866D01*
X158789040Y-99986944D01*
X158884527Y-99821556D01*
X158943542Y-99639928D01*
X158963504Y-99450000D01*
X158943542Y-99260072D01*
X158884527Y-99078444D01*
X158789040Y-98913056D01*
X158789039Y-98913055D01*
X158789038Y-98913053D01*
X158661256Y-98771137D01*
X158661255Y-98771136D01*
X158661254Y-98771135D01*
X158661253Y-98771134D01*
X158519188Y-98667917D01*
X158506754Y-98658883D01*
X158488487Y-98650750D01*
X158332288Y-98581206D01*
X158332284Y-98581205D01*
X158145487Y-98541500D01*
X157954513Y-98541500D01*
X157767715Y-98581205D01*
X157767713Y-98581205D01*
X157767712Y-98581206D01*
X157701669Y-98610610D01*
X157593245Y-98658883D01*
X157438744Y-98771136D01*
X157438743Y-98771137D01*
X157310961Y-98913053D01*
X157306294Y-98921137D01*
X157215473Y-99078444D01*
X157215473Y-99078445D01*
X157156458Y-99260071D01*
X157156457Y-99260074D01*
X157136496Y-99449999D01*
X157136496Y-99450000D01*
X134463205Y-99450000D01*
X134463330Y-94800000D01*
X174144355Y-94800000D01*
X174164859Y-94968868D01*
X174164860Y-94968873D01*
X174200578Y-95063056D01*
X174225182Y-95127930D01*
X174321817Y-95267929D01*
X174449148Y-95380734D01*
X174570733Y-95444547D01*
X174575796Y-95447205D01*
X174599775Y-95459790D01*
X174764944Y-95500500D01*
X174764945Y-95500500D01*
X174935055Y-95500500D01*
X174935056Y-95500500D01*
X175100225Y-95459790D01*
X175250852Y-95380734D01*
X175378183Y-95267929D01*
X175474818Y-95127930D01*
X175535140Y-94968872D01*
X175555645Y-94800000D01*
X175535140Y-94631128D01*
X175474818Y-94472070D01*
X175378183Y-94332071D01*
X175250852Y-94219266D01*
X175221810Y-94204023D01*
X175100230Y-94140212D01*
X175100225Y-94140210D01*
X175086974Y-94136944D01*
X174935056Y-94099500D01*
X174764944Y-94099500D01*
X174682359Y-94119855D01*
X174599774Y-94140210D01*
X174599769Y-94140212D01*
X174449153Y-94219263D01*
X174449150Y-94219264D01*
X174449148Y-94219266D01*
X174449147Y-94219267D01*
X174321817Y-94332071D01*
X174225180Y-94472073D01*
X174164860Y-94631126D01*
X174164859Y-94631131D01*
X174144355Y-94800000D01*
X134463330Y-94800000D01*
X134463416Y-91600002D01*
X157686429Y-91600002D01*
X157706684Y-91870291D01*
X157706686Y-91870306D01*
X157767000Y-92134555D01*
X157767001Y-92134559D01*
X157866029Y-92386879D01*
X157918614Y-92477960D01*
X157976690Y-92578551D01*
X158001557Y-92621621D01*
X158170558Y-92833542D01*
X158170567Y-92833550D01*
X158369258Y-93017908D01*
X158369260Y-93017910D01*
X158593210Y-93170596D01*
X158593213Y-93170598D01*
X158837419Y-93288202D01*
X158837421Y-93288202D01*
X158837428Y-93288206D01*
X159096442Y-93368101D01*
X159364472Y-93408500D01*
X159364478Y-93408500D01*
X159635522Y-93408500D01*
X159635528Y-93408500D01*
X159903558Y-93368101D01*
X160162572Y-93288206D01*
X160406786Y-93170599D01*
X160564522Y-93063056D01*
X160630739Y-93017910D01*
X160630739Y-93017909D01*
X160630743Y-93017907D01*
X160829442Y-92833542D01*
X160998443Y-92621621D01*
X161133971Y-92386879D01*
X161232999Y-92134559D01*
X161293315Y-91870299D01*
X161313571Y-91600002D01*
X170186429Y-91600002D01*
X170206684Y-91870291D01*
X170206686Y-91870306D01*
X170267000Y-92134555D01*
X170267001Y-92134559D01*
X170366029Y-92386879D01*
X170418614Y-92477960D01*
X170476690Y-92578551D01*
X170501557Y-92621621D01*
X170670558Y-92833542D01*
X170670567Y-92833550D01*
X170869258Y-93017908D01*
X170869260Y-93017910D01*
X171093210Y-93170596D01*
X171093213Y-93170598D01*
X171337419Y-93288202D01*
X171337421Y-93288202D01*
X171337428Y-93288206D01*
X171596442Y-93368101D01*
X171864472Y-93408500D01*
X171864478Y-93408500D01*
X172135522Y-93408500D01*
X172135528Y-93408500D01*
X172403558Y-93368101D01*
X172662572Y-93288206D01*
X172906786Y-93170599D01*
X173064522Y-93063056D01*
X173130739Y-93017910D01*
X173130739Y-93017909D01*
X173130743Y-93017907D01*
X173329442Y-92833542D01*
X173498443Y-92621621D01*
X173633971Y-92386879D01*
X173732999Y-92134559D01*
X173793315Y-91870299D01*
X173813571Y-91600000D01*
X173793315Y-91329701D01*
X173732999Y-91065441D01*
X173683768Y-90940001D01*
X191621449Y-90940001D01*
X191641622Y-91196326D01*
X191701645Y-91446340D01*
X191701645Y-91446342D01*
X191800037Y-91683882D01*
X191800039Y-91683885D01*
X191800040Y-91683887D01*
X191934384Y-91903116D01*
X192101369Y-92098631D01*
X192296884Y-92265616D01*
X192516113Y-92399960D01*
X192516115Y-92399961D01*
X192516117Y-92399962D01*
X192753657Y-92498354D01*
X192753658Y-92498354D01*
X192753660Y-92498355D01*
X192815041Y-92513091D01*
X192868525Y-92545866D01*
X192892532Y-92603821D01*
X192877889Y-92664819D01*
X192830188Y-92705559D01*
X192812449Y-92711068D01*
X192717714Y-92731205D01*
X192543245Y-92808883D01*
X192388744Y-92921136D01*
X192388743Y-92921137D01*
X192260961Y-93063053D01*
X192207576Y-93155519D01*
X192165473Y-93228444D01*
X192165473Y-93228445D01*
X192106458Y-93410071D01*
X192106457Y-93410074D01*
X192086496Y-93599999D01*
X192086496Y-93600000D01*
X192106457Y-93789925D01*
X192106458Y-93789928D01*
X192165473Y-93971556D01*
X192239342Y-94099500D01*
X192260961Y-94136946D01*
X192388743Y-94278862D01*
X192388747Y-94278866D01*
X192543248Y-94391118D01*
X192717712Y-94468794D01*
X192837133Y-94494177D01*
X192867901Y-94500718D01*
X192922227Y-94532083D01*
X192947742Y-94589391D01*
X192934699Y-94650750D01*
X192888082Y-94692725D01*
X192867901Y-94699282D01*
X192717715Y-94731205D01*
X192717713Y-94731205D01*
X192717712Y-94731206D01*
X192664885Y-94754726D01*
X192543245Y-94808883D01*
X192388744Y-94921136D01*
X192388743Y-94921137D01*
X192260961Y-95063053D01*
X192223507Y-95127926D01*
X192165473Y-95228444D01*
X192135965Y-95319258D01*
X192106458Y-95410071D01*
X192106457Y-95410074D01*
X192086496Y-95599999D01*
X192086496Y-95600000D01*
X192106457Y-95789925D01*
X192106458Y-95789928D01*
X192165473Y-95971556D01*
X192218783Y-96063891D01*
X192260961Y-96136946D01*
X192370438Y-96258532D01*
X192388747Y-96278866D01*
X192543248Y-96391118D01*
X192717712Y-96468794D01*
X192824911Y-96491580D01*
X192867901Y-96500718D01*
X192922227Y-96532083D01*
X192947742Y-96589391D01*
X192934699Y-96650750D01*
X192888082Y-96692725D01*
X192867901Y-96699282D01*
X192717715Y-96731205D01*
X192717713Y-96731205D01*
X192717712Y-96731206D01*
X192630480Y-96770044D01*
X192543245Y-96808883D01*
X192388744Y-96921136D01*
X192388743Y-96921137D01*
X192260961Y-97063053D01*
X192207576Y-97155519D01*
X192165473Y-97228444D01*
X192165473Y-97228445D01*
X192106458Y-97410071D01*
X192106457Y-97410074D01*
X192086496Y-97599999D01*
X192086496Y-97600000D01*
X192106457Y-97789925D01*
X192106458Y-97789928D01*
X192165473Y-97971556D01*
X192235547Y-98092928D01*
X192260961Y-98136946D01*
X192388743Y-98278862D01*
X192388747Y-98278866D01*
X192543248Y-98391118D01*
X192717712Y-98468794D01*
X192837133Y-98494177D01*
X192867901Y-98500718D01*
X192922227Y-98532083D01*
X192947742Y-98589391D01*
X192934699Y-98650750D01*
X192888082Y-98692725D01*
X192867901Y-98699282D01*
X192717715Y-98731205D01*
X192717713Y-98731205D01*
X192717712Y-98731206D01*
X192630480Y-98770044D01*
X192543245Y-98808883D01*
X192388744Y-98921136D01*
X192388743Y-98921137D01*
X192260961Y-99063053D01*
X192252075Y-99078445D01*
X192165473Y-99228444D01*
X192155196Y-99260074D01*
X192106458Y-99410071D01*
X192106457Y-99410074D01*
X192086496Y-99599999D01*
X192086496Y-99600000D01*
X192106457Y-99789925D01*
X192106458Y-99789928D01*
X192165473Y-99971556D01*
X192218299Y-100063053D01*
X192260961Y-100136946D01*
X192388743Y-100278862D01*
X192388747Y-100278866D01*
X192543248Y-100391118D01*
X192717712Y-100468794D01*
X192837133Y-100494177D01*
X192867901Y-100500718D01*
X192922227Y-100532083D01*
X192947742Y-100589391D01*
X192934699Y-100650750D01*
X192888082Y-100692725D01*
X192867901Y-100699282D01*
X192717715Y-100731205D01*
X192717713Y-100731205D01*
X192717712Y-100731206D01*
X192704391Y-100737137D01*
X192543245Y-100808883D01*
X192388744Y-100921136D01*
X192388743Y-100921137D01*
X192260961Y-101063053D01*
X192210640Y-101150212D01*
X192165473Y-101228444D01*
X192138139Y-101312569D01*
X192106458Y-101410071D01*
X192106457Y-101410074D01*
X192086496Y-101599999D01*
X192086496Y-101600000D01*
X192106457Y-101789925D01*
X192106458Y-101789928D01*
X192165473Y-101971556D01*
X192236666Y-102094866D01*
X192260961Y-102136946D01*
X192387902Y-102277928D01*
X192388747Y-102278866D01*
X192451557Y-102324500D01*
X192542716Y-102390732D01*
X192543248Y-102391118D01*
X192717712Y-102468794D01*
X192837133Y-102494177D01*
X192867901Y-102500718D01*
X192922227Y-102532083D01*
X192947742Y-102589391D01*
X192934699Y-102650750D01*
X192888082Y-102692725D01*
X192867901Y-102699282D01*
X192717715Y-102731205D01*
X192717713Y-102731205D01*
X192717712Y-102731206D01*
X192704391Y-102737137D01*
X192543245Y-102808883D01*
X192388744Y-102921136D01*
X192388743Y-102921137D01*
X192260961Y-103063053D01*
X192207576Y-103155519D01*
X192165473Y-103228444D01*
X192154228Y-103263053D01*
X192106458Y-103410071D01*
X192106457Y-103410074D01*
X192086496Y-103599999D01*
X192086496Y-103600000D01*
X192106457Y-103789925D01*
X192106458Y-103789928D01*
X192165473Y-103971556D01*
X192236666Y-104094866D01*
X192260961Y-104136946D01*
X192388743Y-104278862D01*
X192388747Y-104278866D01*
X192543248Y-104391118D01*
X192717712Y-104468794D01*
X192837133Y-104494177D01*
X192867901Y-104500718D01*
X192922227Y-104532083D01*
X192947742Y-104589391D01*
X192934699Y-104650750D01*
X192888082Y-104692725D01*
X192867901Y-104699282D01*
X192717715Y-104731205D01*
X192717713Y-104731205D01*
X192717712Y-104731206D01*
X192704391Y-104737137D01*
X192543245Y-104808883D01*
X192388744Y-104921136D01*
X192388743Y-104921137D01*
X192260961Y-105063053D01*
X192207576Y-105155519D01*
X192165473Y-105228444D01*
X192165473Y-105228445D01*
X192106458Y-105410071D01*
X192106457Y-105410074D01*
X192086496Y-105599999D01*
X192086496Y-105600000D01*
X192106457Y-105789925D01*
X192106458Y-105789928D01*
X192165473Y-105971556D01*
X192236666Y-106094866D01*
X192260961Y-106136946D01*
X192343352Y-106228450D01*
X192388747Y-106278866D01*
X192543248Y-106391118D01*
X192717712Y-106468794D01*
X192837133Y-106494177D01*
X192867901Y-106500718D01*
X192922227Y-106532083D01*
X192947742Y-106589391D01*
X192934699Y-106650750D01*
X192888082Y-106692725D01*
X192867901Y-106699282D01*
X192717715Y-106731205D01*
X192717713Y-106731205D01*
X192717712Y-106731206D01*
X192704391Y-106737137D01*
X192543245Y-106808883D01*
X192388744Y-106921136D01*
X192388743Y-106921137D01*
X192260961Y-107063053D01*
X192207576Y-107155519D01*
X192165473Y-107228444D01*
X192149091Y-107278862D01*
X192106458Y-107410071D01*
X192106457Y-107410074D01*
X192086496Y-107599999D01*
X192086496Y-107600000D01*
X192106457Y-107789925D01*
X192106458Y-107789928D01*
X192165473Y-107971556D01*
X192236666Y-108094866D01*
X192260961Y-108136946D01*
X192379748Y-108268872D01*
X192388747Y-108278866D01*
X192543248Y-108391118D01*
X192717712Y-108468794D01*
X192837133Y-108494177D01*
X192867901Y-108500718D01*
X192922227Y-108532083D01*
X192947742Y-108589391D01*
X192934699Y-108650750D01*
X192888082Y-108692725D01*
X192867901Y-108699282D01*
X192717715Y-108731205D01*
X192717713Y-108731205D01*
X192717712Y-108731206D01*
X192704391Y-108737137D01*
X192543245Y-108808883D01*
X192388744Y-108921136D01*
X192388743Y-108921137D01*
X192260961Y-109063053D01*
X192207576Y-109155519D01*
X192165473Y-109228444D01*
X192165473Y-109228445D01*
X192106458Y-109410071D01*
X192106457Y-109410074D01*
X192086496Y-109599999D01*
X192086496Y-109600000D01*
X192106457Y-109789925D01*
X192106458Y-109789928D01*
X192165473Y-109971556D01*
X192236666Y-110094866D01*
X192260961Y-110136946D01*
X192388743Y-110278862D01*
X192388747Y-110278866D01*
X192543248Y-110391118D01*
X192717712Y-110468794D01*
X192818292Y-110490173D01*
X192867901Y-110500718D01*
X192922227Y-110532083D01*
X192947742Y-110589391D01*
X192934699Y-110650750D01*
X192888082Y-110692725D01*
X192867901Y-110699282D01*
X192717715Y-110731205D01*
X192717713Y-110731205D01*
X192717712Y-110731206D01*
X192701552Y-110738401D01*
X192543245Y-110808883D01*
X192388744Y-110921136D01*
X192388743Y-110921137D01*
X192260961Y-111063053D01*
X192227427Y-111121136D01*
X192165473Y-111228444D01*
X192165473Y-111228445D01*
X192106458Y-111410071D01*
X192106457Y-111410074D01*
X192086496Y-111599999D01*
X192086496Y-111600000D01*
X192106457Y-111789925D01*
X192106458Y-111789928D01*
X192165473Y-111971556D01*
X192236666Y-112094866D01*
X192260961Y-112136946D01*
X192388743Y-112278862D01*
X192388747Y-112278866D01*
X192543248Y-112391118D01*
X192717712Y-112468794D01*
X192857812Y-112498573D01*
X192904512Y-112508500D01*
X192904513Y-112508500D01*
X193095487Y-112508500D01*
X193282288Y-112468794D01*
X193456752Y-112391118D01*
X193611253Y-112278866D01*
X193739040Y-112136944D01*
X193834527Y-111971556D01*
X193890974Y-111797829D01*
X193927845Y-111747082D01*
X193987505Y-111727697D01*
X194047165Y-111747082D01*
X194084037Y-111797832D01*
X194088449Y-111818587D01*
X194106457Y-111989925D01*
X194106458Y-111989928D01*
X194165473Y-112171556D01*
X194227427Y-112278863D01*
X194260961Y-112336946D01*
X194379678Y-112468794D01*
X194388747Y-112478866D01*
X194543248Y-112591118D01*
X194717712Y-112668794D01*
X194857812Y-112698573D01*
X194904512Y-112708500D01*
X194904513Y-112708500D01*
X195095487Y-112708500D01*
X195282288Y-112668794D01*
X195456752Y-112591118D01*
X195611253Y-112478866D01*
X195739040Y-112336944D01*
X195834527Y-112171556D01*
X195893542Y-111989928D01*
X195913504Y-111800000D01*
X195893542Y-111610072D01*
X195834527Y-111428444D01*
X195827342Y-111416000D01*
X206638496Y-111416000D01*
X206658457Y-111605925D01*
X206658458Y-111605928D01*
X206717473Y-111787556D01*
X206762442Y-111865444D01*
X206812961Y-111952946D01*
X206940743Y-112094862D01*
X206940747Y-112094866D01*
X207095248Y-112207118D01*
X207269712Y-112284794D01*
X207409812Y-112314573D01*
X207456512Y-112324500D01*
X207456513Y-112324500D01*
X207647487Y-112324500D01*
X207834288Y-112284794D01*
X208008752Y-112207118D01*
X208163253Y-112094866D01*
X208291040Y-111952944D01*
X208386527Y-111787556D01*
X208445542Y-111605928D01*
X208465504Y-111416000D01*
X208445542Y-111226072D01*
X208386527Y-111044444D01*
X208291040Y-110879056D01*
X208291039Y-110879055D01*
X208291038Y-110879053D01*
X208163256Y-110737137D01*
X208163255Y-110737136D01*
X208163254Y-110737135D01*
X208163253Y-110737134D01*
X208067984Y-110667917D01*
X208008754Y-110624883D01*
X208008752Y-110624882D01*
X207834288Y-110547206D01*
X207834284Y-110547205D01*
X207684098Y-110515282D01*
X207629772Y-110483917D01*
X207604257Y-110426610D01*
X207617299Y-110365250D01*
X207663917Y-110323275D01*
X207684098Y-110316718D01*
X207834288Y-110284794D01*
X208008752Y-110207118D01*
X208163253Y-110094866D01*
X208291040Y-109952944D01*
X208386527Y-109787556D01*
X208445542Y-109605928D01*
X208465504Y-109416000D01*
X208445542Y-109226072D01*
X208386527Y-109044444D01*
X208291040Y-108879056D01*
X208291039Y-108879055D01*
X208291038Y-108879053D01*
X208163256Y-108737137D01*
X208163255Y-108737136D01*
X208163254Y-108737135D01*
X208163253Y-108737134D01*
X208044356Y-108650750D01*
X208008754Y-108624883D01*
X207976696Y-108610610D01*
X207834288Y-108547206D01*
X207834284Y-108547205D01*
X207684098Y-108515282D01*
X207629772Y-108483917D01*
X207604257Y-108426610D01*
X207617299Y-108365250D01*
X207663917Y-108323275D01*
X207684098Y-108316718D01*
X207834288Y-108284794D01*
X208008752Y-108207118D01*
X208163253Y-108094866D01*
X208291040Y-107952944D01*
X208386527Y-107787556D01*
X208445542Y-107605928D01*
X208465504Y-107416000D01*
X208445542Y-107226072D01*
X208386527Y-107044444D01*
X208291040Y-106879056D01*
X208291039Y-106879055D01*
X208291038Y-106879053D01*
X208163256Y-106737137D01*
X208163255Y-106737136D01*
X208163254Y-106737135D01*
X208163253Y-106737134D01*
X208046483Y-106652295D01*
X208008754Y-106624883D01*
X207976696Y-106610610D01*
X207834288Y-106547206D01*
X207834284Y-106547205D01*
X207684098Y-106515282D01*
X207629772Y-106483917D01*
X207604257Y-106426610D01*
X207617299Y-106365250D01*
X207663917Y-106323275D01*
X207684098Y-106316718D01*
X207834288Y-106284794D01*
X208008752Y-106207118D01*
X208163253Y-106094866D01*
X208291040Y-105952944D01*
X208386527Y-105787556D01*
X208445542Y-105605928D01*
X208465504Y-105416000D01*
X208445542Y-105226072D01*
X208386527Y-105044444D01*
X208291040Y-104879056D01*
X208291039Y-104879055D01*
X208291038Y-104879053D01*
X208163256Y-104737137D01*
X208163255Y-104737136D01*
X208163254Y-104737135D01*
X208163253Y-104737134D01*
X208078757Y-104675743D01*
X208008754Y-104624883D01*
X207976696Y-104610610D01*
X207834288Y-104547206D01*
X207834284Y-104547205D01*
X207684098Y-104515282D01*
X207629772Y-104483917D01*
X207604257Y-104426610D01*
X207617299Y-104365250D01*
X207663917Y-104323275D01*
X207684098Y-104316718D01*
X207834288Y-104284794D01*
X208008752Y-104207118D01*
X208163253Y-104094866D01*
X208291040Y-103952944D01*
X208386527Y-103787556D01*
X208445542Y-103605928D01*
X208465504Y-103416000D01*
X208460550Y-103368870D01*
X208445542Y-103226074D01*
X208445542Y-103226072D01*
X208386527Y-103044444D01*
X208291040Y-102879056D01*
X208291039Y-102879055D01*
X208291038Y-102879053D01*
X208163256Y-102737137D01*
X208163255Y-102737136D01*
X208163254Y-102737135D01*
X208163253Y-102737134D01*
X208044356Y-102650750D01*
X208008754Y-102624883D01*
X207976696Y-102610610D01*
X207834288Y-102547206D01*
X207834284Y-102547205D01*
X207684098Y-102515282D01*
X207629772Y-102483917D01*
X207604257Y-102426610D01*
X207617299Y-102365250D01*
X207663917Y-102323275D01*
X207684098Y-102316718D01*
X207834288Y-102284794D01*
X208008752Y-102207118D01*
X208163253Y-102094866D01*
X208291040Y-101952944D01*
X208386527Y-101787556D01*
X208445542Y-101605928D01*
X208465504Y-101416000D01*
X208464635Y-101407736D01*
X208455212Y-101318081D01*
X208445542Y-101226072D01*
X208386527Y-101044444D01*
X208291040Y-100879056D01*
X208291039Y-100879055D01*
X208291038Y-100879053D01*
X208163256Y-100737137D01*
X208163255Y-100737136D01*
X208163254Y-100737135D01*
X208163253Y-100737134D01*
X208044356Y-100650750D01*
X208008754Y-100624883D01*
X207976696Y-100610610D01*
X207834288Y-100547206D01*
X207834284Y-100547205D01*
X207647487Y-100507500D01*
X207456513Y-100507500D01*
X207269715Y-100547205D01*
X207269713Y-100547205D01*
X207269712Y-100547206D01*
X207182480Y-100586044D01*
X207095245Y-100624883D01*
X206940744Y-100737136D01*
X206940743Y-100737137D01*
X206812961Y-100879053D01*
X206788666Y-100921134D01*
X206717473Y-101044444D01*
X206717473Y-101044445D01*
X206658458Y-101226071D01*
X206658457Y-101226074D01*
X206638496Y-101415999D01*
X206638496Y-101416000D01*
X206658457Y-101605925D01*
X206658458Y-101605928D01*
X206717473Y-101787556D01*
X206794596Y-101921136D01*
X206812961Y-101952946D01*
X206912102Y-102063053D01*
X206940747Y-102094866D01*
X207095248Y-102207118D01*
X207269712Y-102284794D01*
X207389133Y-102310177D01*
X207419901Y-102316718D01*
X207474227Y-102348083D01*
X207499742Y-102405391D01*
X207486699Y-102466750D01*
X207440082Y-102508725D01*
X207419901Y-102515282D01*
X207269715Y-102547205D01*
X207269713Y-102547205D01*
X207269712Y-102547206D01*
X207182480Y-102586044D01*
X207095245Y-102624883D01*
X206940744Y-102737136D01*
X206940743Y-102737137D01*
X206812961Y-102879053D01*
X206782851Y-102931206D01*
X206717473Y-103044444D01*
X206717473Y-103044445D01*
X206658458Y-103226071D01*
X206658457Y-103226074D01*
X206638496Y-103415999D01*
X206638496Y-103416000D01*
X206658457Y-103605925D01*
X206658458Y-103605928D01*
X206717473Y-103787556D01*
X206794596Y-103921136D01*
X206812961Y-103952946D01*
X206940743Y-104094862D01*
X206940747Y-104094866D01*
X207095248Y-104207118D01*
X207269712Y-104284794D01*
X207387906Y-104309917D01*
X207419901Y-104316718D01*
X207474227Y-104348083D01*
X207499742Y-104405391D01*
X207486699Y-104466750D01*
X207440082Y-104508725D01*
X207419901Y-104515282D01*
X207269715Y-104547205D01*
X207269713Y-104547205D01*
X207269712Y-104547206D01*
X207182480Y-104586044D01*
X207095245Y-104624883D01*
X206940744Y-104737136D01*
X206940743Y-104737137D01*
X206812961Y-104879053D01*
X206788666Y-104921134D01*
X206717473Y-105044444D01*
X206717473Y-105044445D01*
X206658458Y-105226071D01*
X206658457Y-105226074D01*
X206638496Y-105415999D01*
X206638496Y-105416000D01*
X206658457Y-105605925D01*
X206658458Y-105605928D01*
X206717473Y-105787556D01*
X206794596Y-105921136D01*
X206812961Y-105952946D01*
X206829718Y-105971556D01*
X206940747Y-106094866D01*
X207095248Y-106207118D01*
X207269712Y-106284794D01*
X207379033Y-106308031D01*
X207419901Y-106316718D01*
X207474227Y-106348083D01*
X207499742Y-106405391D01*
X207486699Y-106466750D01*
X207440082Y-106508725D01*
X207419901Y-106515282D01*
X207269715Y-106547205D01*
X207269713Y-106547205D01*
X207269712Y-106547206D01*
X207201064Y-106577770D01*
X207095245Y-106624883D01*
X206940744Y-106737136D01*
X206940743Y-106737137D01*
X206812961Y-106879053D01*
X206761107Y-106968868D01*
X206717473Y-107044444D01*
X206717473Y-107044445D01*
X206658458Y-107226071D01*
X206658457Y-107226074D01*
X206638496Y-107415999D01*
X206638496Y-107416000D01*
X206658457Y-107605925D01*
X206658458Y-107605928D01*
X206717473Y-107787556D01*
X206794596Y-107921136D01*
X206812961Y-107952946D01*
X206940743Y-108094862D01*
X206940747Y-108094866D01*
X207052366Y-108175962D01*
X207077133Y-108193957D01*
X207095248Y-108207118D01*
X207269712Y-108284794D01*
X207389133Y-108310177D01*
X207419901Y-108316718D01*
X207474227Y-108348083D01*
X207499742Y-108405391D01*
X207486699Y-108466750D01*
X207440082Y-108508725D01*
X207419901Y-108515282D01*
X207269715Y-108547205D01*
X207269713Y-108547205D01*
X207269712Y-108547206D01*
X207182480Y-108586044D01*
X207095245Y-108624883D01*
X206940744Y-108737136D01*
X206940743Y-108737137D01*
X206812961Y-108879053D01*
X206788666Y-108921134D01*
X206717473Y-109044444D01*
X206717473Y-109044445D01*
X206658458Y-109226071D01*
X206658457Y-109226074D01*
X206638496Y-109415999D01*
X206638496Y-109416000D01*
X206658457Y-109605925D01*
X206658458Y-109605928D01*
X206717473Y-109787556D01*
X206744744Y-109834790D01*
X206812961Y-109952946D01*
X206829718Y-109971556D01*
X206940747Y-110094866D01*
X207095248Y-110207118D01*
X207269712Y-110284794D01*
X207389133Y-110310177D01*
X207419901Y-110316718D01*
X207474227Y-110348083D01*
X207499742Y-110405391D01*
X207486699Y-110466750D01*
X207440082Y-110508725D01*
X207419901Y-110515282D01*
X207269715Y-110547205D01*
X207269713Y-110547205D01*
X207269712Y-110547206D01*
X207217934Y-110570259D01*
X207095245Y-110624883D01*
X206940744Y-110737136D01*
X206940743Y-110737137D01*
X206812961Y-110879053D01*
X206794742Y-110910610D01*
X206717473Y-111044444D01*
X206717473Y-111044445D01*
X206658458Y-111226071D01*
X206658457Y-111226074D01*
X206638496Y-111415999D01*
X206638496Y-111416000D01*
X195827342Y-111416000D01*
X195739040Y-111263056D01*
X195739039Y-111263055D01*
X195739038Y-111263053D01*
X195611256Y-111121137D01*
X195611255Y-111121136D01*
X195611254Y-111121135D01*
X195611253Y-111121134D01*
X195456752Y-111008882D01*
X195420461Y-110992724D01*
X195373844Y-110950750D01*
X195360801Y-110889391D01*
X195386316Y-110832083D01*
X195420461Y-110807275D01*
X195456752Y-110791118D01*
X195611253Y-110678866D01*
X195612922Y-110677011D01*
X195614009Y-110676384D01*
X195615209Y-110675304D01*
X195615438Y-110675558D01*
X195667245Y-110645642D01*
X195729632Y-110652193D01*
X195756737Y-110669913D01*
X195783064Y-110693914D01*
X195783065Y-110693914D01*
X195783067Y-110693916D01*
X195783071Y-110693917D01*
X195783072Y-110693918D01*
X195783158Y-110693952D01*
X195807656Y-110707596D01*
X195807733Y-110707654D01*
X195807736Y-110707656D01*
X195843885Y-110717941D01*
X195852762Y-110720915D01*
X195887827Y-110734500D01*
X195887924Y-110734500D01*
X195915698Y-110738374D01*
X195915793Y-110738401D01*
X195953220Y-110734932D01*
X195962584Y-110734500D01*
X206047924Y-110734500D01*
X206075698Y-110738374D01*
X206075793Y-110738401D01*
X206113220Y-110734932D01*
X206122584Y-110734500D01*
X206131845Y-110734500D01*
X206133759Y-110734141D01*
X206140947Y-110732797D01*
X206150215Y-110731504D01*
X206187660Y-110728035D01*
X206187745Y-110727992D01*
X206214342Y-110719078D01*
X206214433Y-110719061D01*
X206246401Y-110699266D01*
X206254559Y-110694721D01*
X206288228Y-110677958D01*
X206288286Y-110677893D01*
X206309872Y-110659968D01*
X206309952Y-110659919D01*
X206332616Y-110629905D01*
X206338578Y-110622725D01*
X206363916Y-110594933D01*
X206363949Y-110594846D01*
X206377599Y-110570338D01*
X206377656Y-110570264D01*
X206387941Y-110534112D01*
X206390915Y-110525237D01*
X206404500Y-110490173D01*
X206404500Y-110490075D01*
X206408376Y-110462295D01*
X206408376Y-110462291D01*
X206408401Y-110462207D01*
X206405102Y-110426610D01*
X206404933Y-110424780D01*
X206404500Y-110415415D01*
X206404500Y-106680075D01*
X206408376Y-106652295D01*
X206408376Y-106652291D01*
X206408401Y-106652207D01*
X206404933Y-106614780D01*
X206404500Y-106605415D01*
X206404500Y-106596157D01*
X206403235Y-106589391D01*
X206402796Y-106587046D01*
X206401503Y-106577770D01*
X206398035Y-106540340D01*
X206397990Y-106540250D01*
X206389079Y-106513664D01*
X206389061Y-106513567D01*
X206369273Y-106481609D01*
X206364713Y-106473421D01*
X206347958Y-106439773D01*
X206347958Y-106439772D01*
X206347885Y-106439706D01*
X206329967Y-106418126D01*
X206329918Y-106418047D01*
X206299927Y-106395399D01*
X206292713Y-106389409D01*
X206264934Y-106364085D01*
X206264932Y-106364083D01*
X206264859Y-106364055D01*
X206264835Y-106364046D01*
X206240338Y-106350400D01*
X206240265Y-106350345D01*
X206240264Y-106350344D01*
X206240263Y-106350343D01*
X206240262Y-106350343D01*
X206204116Y-106340059D01*
X206195235Y-106337083D01*
X206160173Y-106323500D01*
X206160076Y-106323500D01*
X206132302Y-106319626D01*
X206132208Y-106319599D01*
X206132205Y-106319599D01*
X206108290Y-106321815D01*
X206094779Y-106323067D01*
X206085416Y-106323500D01*
X196000076Y-106323500D01*
X195972302Y-106319626D01*
X195972208Y-106319599D01*
X195972202Y-106319598D01*
X195948118Y-106321830D01*
X195886924Y-106308031D01*
X195845528Y-106260899D01*
X195842223Y-106252128D01*
X195834529Y-106228450D01*
X195834528Y-106228449D01*
X195834527Y-106228444D01*
X195739040Y-106063056D01*
X195739039Y-106063055D01*
X195739038Y-106063053D01*
X195611256Y-105921137D01*
X195611255Y-105921136D01*
X195611254Y-105921135D01*
X195611253Y-105921134D01*
X195526757Y-105859743D01*
X195456754Y-105808883D01*
X195414180Y-105789928D01*
X195282288Y-105731206D01*
X195282284Y-105731205D01*
X195132098Y-105699282D01*
X195077772Y-105667917D01*
X195052257Y-105610610D01*
X195065299Y-105549250D01*
X195111917Y-105507275D01*
X195132098Y-105500718D01*
X195282288Y-105468794D01*
X195456752Y-105391118D01*
X195611253Y-105278866D01*
X195739040Y-105136944D01*
X195834527Y-104971556D01*
X195893542Y-104789928D01*
X195913504Y-104600000D01*
X195902637Y-104496608D01*
X195915679Y-104435250D01*
X195962297Y-104393275D01*
X196003581Y-104384500D01*
X206052959Y-104384500D01*
X206080733Y-104388374D01*
X206080828Y-104388401D01*
X206118255Y-104384932D01*
X206127619Y-104384500D01*
X206136880Y-104384500D01*
X206138794Y-104384141D01*
X206145982Y-104382797D01*
X206155250Y-104381504D01*
X206192695Y-104378035D01*
X206192780Y-104377992D01*
X206219377Y-104369078D01*
X206219468Y-104369061D01*
X206251436Y-104349266D01*
X206259594Y-104344721D01*
X206293263Y-104327958D01*
X206293321Y-104327893D01*
X206314907Y-104309968D01*
X206314987Y-104309919D01*
X206337651Y-104279905D01*
X206343613Y-104272725D01*
X206368951Y-104244933D01*
X206368984Y-104244846D01*
X206382634Y-104220338D01*
X206382691Y-104220264D01*
X206392976Y-104184112D01*
X206395950Y-104175237D01*
X206409535Y-104140173D01*
X206409535Y-104140075D01*
X206413411Y-104112295D01*
X206413411Y-104112291D01*
X206413436Y-104112207D01*
X206409968Y-104074780D01*
X206409535Y-104065415D01*
X206409535Y-101600075D01*
X206413411Y-101572295D01*
X206413411Y-101572291D01*
X206413436Y-101572207D01*
X206412109Y-101557891D01*
X206409968Y-101534780D01*
X206409535Y-101525415D01*
X206409535Y-101516157D01*
X206409467Y-101515791D01*
X206407831Y-101507046D01*
X206406538Y-101497770D01*
X206403070Y-101460340D01*
X206403025Y-101460250D01*
X206394114Y-101433664D01*
X206394096Y-101433567D01*
X206374308Y-101401609D01*
X206369748Y-101393421D01*
X206352993Y-101359773D01*
X206352993Y-101359772D01*
X206352920Y-101359706D01*
X206335002Y-101338126D01*
X206334953Y-101338047D01*
X206304962Y-101315399D01*
X206297748Y-101309409D01*
X206269969Y-101284085D01*
X206269967Y-101284083D01*
X206269894Y-101284055D01*
X206269870Y-101284046D01*
X206245373Y-101270400D01*
X206245300Y-101270345D01*
X206245299Y-101270344D01*
X206245298Y-101270343D01*
X206245297Y-101270343D01*
X206209151Y-101260059D01*
X206200270Y-101257083D01*
X206165208Y-101243500D01*
X206165111Y-101243500D01*
X206137337Y-101239626D01*
X206137243Y-101239599D01*
X206137240Y-101239599D01*
X206113325Y-101241815D01*
X206099814Y-101243067D01*
X206090451Y-101243500D01*
X196005111Y-101243500D01*
X195977337Y-101239626D01*
X195977243Y-101239599D01*
X195977240Y-101239599D01*
X195953325Y-101241815D01*
X195939814Y-101243067D01*
X195930451Y-101243500D01*
X195921185Y-101243500D01*
X195912078Y-101245202D01*
X195902807Y-101246495D01*
X195869367Y-101249594D01*
X195865375Y-101249965D01*
X195865374Y-101249965D01*
X195858332Y-101250618D01*
X195797137Y-101236823D01*
X195755738Y-101189693D01*
X195749948Y-101127230D01*
X195761059Y-101098805D01*
X195834527Y-100971556D01*
X195893542Y-100789928D01*
X195913504Y-100600000D01*
X195893542Y-100410072D01*
X195834527Y-100228444D01*
X195739040Y-100063056D01*
X195739039Y-100063055D01*
X195739038Y-100063053D01*
X195611256Y-99921137D01*
X195611255Y-99921136D01*
X195611254Y-99921135D01*
X195611253Y-99921134D01*
X195526757Y-99859743D01*
X195456754Y-99808883D01*
X195414180Y-99789928D01*
X195282288Y-99731206D01*
X195282284Y-99731205D01*
X195095487Y-99691500D01*
X194904513Y-99691500D01*
X194717715Y-99731205D01*
X194717713Y-99731205D01*
X194717712Y-99731206D01*
X194630480Y-99770044D01*
X194543245Y-99808883D01*
X194388744Y-99921136D01*
X194388743Y-99921137D01*
X194260961Y-100063053D01*
X194207576Y-100155519D01*
X194165473Y-100228444D01*
X194165473Y-100228445D01*
X194106458Y-100410071D01*
X194106457Y-100410074D01*
X194086496Y-100599999D01*
X194086496Y-100600000D01*
X194106457Y-100789925D01*
X194106458Y-100789928D01*
X194165473Y-100971556D01*
X194207556Y-101044445D01*
X194260961Y-101136946D01*
X194381124Y-101270400D01*
X194388747Y-101278866D01*
X194543248Y-101391118D01*
X194717712Y-101468794D01*
X194837133Y-101494177D01*
X194867901Y-101500718D01*
X194922227Y-101532083D01*
X194947742Y-101589391D01*
X194934699Y-101650750D01*
X194888082Y-101692725D01*
X194867901Y-101699282D01*
X194717715Y-101731205D01*
X194717713Y-101731205D01*
X194717712Y-101731206D01*
X194630480Y-101770044D01*
X194543245Y-101808883D01*
X194388744Y-101921136D01*
X194388743Y-101921137D01*
X194260961Y-102063053D01*
X194217734Y-102137926D01*
X194165473Y-102228444D01*
X194165473Y-102228445D01*
X194106458Y-102410071D01*
X194106457Y-102410074D01*
X194086496Y-102599999D01*
X194086496Y-102600000D01*
X194106457Y-102789925D01*
X194106458Y-102789928D01*
X194165473Y-102971556D01*
X194207556Y-103044445D01*
X194260961Y-103136946D01*
X194388743Y-103278862D01*
X194388747Y-103278866D01*
X194543248Y-103391118D01*
X194717712Y-103468794D01*
X194837133Y-103494177D01*
X194867901Y-103500718D01*
X194922227Y-103532083D01*
X194947742Y-103589391D01*
X194934699Y-103650750D01*
X194888082Y-103692725D01*
X194867901Y-103699282D01*
X194717715Y-103731205D01*
X194717713Y-103731205D01*
X194717712Y-103731206D01*
X194630480Y-103770044D01*
X194543245Y-103808883D01*
X194388744Y-103921136D01*
X194388743Y-103921137D01*
X194260961Y-104063053D01*
X194216436Y-104140173D01*
X194165473Y-104228444D01*
X194147164Y-104284794D01*
X194106458Y-104410071D01*
X194106457Y-104410074D01*
X194086496Y-104599999D01*
X194086496Y-104600000D01*
X194106457Y-104789925D01*
X194106458Y-104789928D01*
X194165473Y-104971556D01*
X194207556Y-105044445D01*
X194260961Y-105136946D01*
X194388743Y-105278862D01*
X194388747Y-105278866D01*
X194543248Y-105391118D01*
X194717712Y-105468794D01*
X194837133Y-105494177D01*
X194867901Y-105500718D01*
X194922227Y-105532083D01*
X194947742Y-105589391D01*
X194934699Y-105650750D01*
X194888082Y-105692725D01*
X194867901Y-105699282D01*
X194717715Y-105731205D01*
X194717713Y-105731205D01*
X194717712Y-105731206D01*
X194630480Y-105770044D01*
X194543245Y-105808883D01*
X194388744Y-105921136D01*
X194388743Y-105921137D01*
X194260961Y-106063053D01*
X194216415Y-106140210D01*
X194165473Y-106228444D01*
X194165473Y-106228445D01*
X194106458Y-106410071D01*
X194106457Y-106410074D01*
X194086496Y-106599999D01*
X194086496Y-106600000D01*
X194106457Y-106789925D01*
X194106458Y-106789928D01*
X194165473Y-106971556D01*
X194207556Y-107044445D01*
X194260961Y-107136946D01*
X194378898Y-107267928D01*
X194388747Y-107278866D01*
X194543248Y-107391118D01*
X194717712Y-107468794D01*
X194837133Y-107494177D01*
X194867901Y-107500718D01*
X194922227Y-107532083D01*
X194947742Y-107589391D01*
X194934699Y-107650750D01*
X194888082Y-107692725D01*
X194867901Y-107699282D01*
X194717715Y-107731205D01*
X194717713Y-107731205D01*
X194717712Y-107731206D01*
X194630480Y-107770044D01*
X194543245Y-107808883D01*
X194388744Y-107921136D01*
X194388743Y-107921137D01*
X194260961Y-108063053D01*
X194217279Y-108138714D01*
X194165473Y-108228444D01*
X194152337Y-108268872D01*
X194106458Y-108410071D01*
X194106457Y-108410074D01*
X194086496Y-108599999D01*
X194086496Y-108600000D01*
X194106457Y-108789925D01*
X194106458Y-108789928D01*
X194165473Y-108971556D01*
X194207556Y-109044445D01*
X194260961Y-109136946D01*
X194346623Y-109232083D01*
X194372138Y-109289390D01*
X194359096Y-109350750D01*
X194346623Y-109367917D01*
X194260961Y-109463053D01*
X194207576Y-109555519D01*
X194165473Y-109628444D01*
X194135965Y-109719258D01*
X194106458Y-109810071D01*
X194106457Y-109810074D01*
X194086496Y-109999999D01*
X194086496Y-110000000D01*
X194106457Y-110189925D01*
X194106458Y-110189928D01*
X194165473Y-110371556D01*
X194244538Y-110508500D01*
X194260961Y-110536946D01*
X194387929Y-110677958D01*
X194388747Y-110678866D01*
X194543248Y-110791118D01*
X194579538Y-110807275D01*
X194626156Y-110849251D01*
X194639198Y-110910610D01*
X194613683Y-110967917D01*
X194579538Y-110992724D01*
X194543248Y-111008882D01*
X194543246Y-111008883D01*
X194388744Y-111121136D01*
X194388743Y-111121137D01*
X194260961Y-111263053D01*
X194207576Y-111355519D01*
X194165473Y-111428444D01*
X194165473Y-111428445D01*
X194109026Y-111602168D01*
X194072154Y-111652918D01*
X194012493Y-111672302D01*
X193952833Y-111652917D01*
X193915962Y-111602167D01*
X193911550Y-111581411D01*
X193893542Y-111410074D01*
X193893542Y-111410072D01*
X193834527Y-111228444D01*
X193739040Y-111063056D01*
X193739039Y-111063055D01*
X193739038Y-111063053D01*
X193611256Y-110921137D01*
X193611255Y-110921136D01*
X193611254Y-110921135D01*
X193611253Y-110921134D01*
X193512315Y-110849251D01*
X193456754Y-110808883D01*
X193456752Y-110808882D01*
X193282288Y-110731206D01*
X193282284Y-110731205D01*
X193132098Y-110699282D01*
X193077772Y-110667917D01*
X193052257Y-110610610D01*
X193065299Y-110549250D01*
X193111917Y-110507275D01*
X193132098Y-110500718D01*
X193282288Y-110468794D01*
X193456752Y-110391118D01*
X193611253Y-110278866D01*
X193739040Y-110136944D01*
X193834527Y-109971556D01*
X193893542Y-109789928D01*
X193913504Y-109600000D01*
X193893542Y-109410072D01*
X193834527Y-109228444D01*
X193739040Y-109063056D01*
X193739039Y-109063055D01*
X193739038Y-109063053D01*
X193611256Y-108921137D01*
X193611255Y-108921136D01*
X193611254Y-108921135D01*
X193611253Y-108921134D01*
X193509313Y-108847070D01*
X193456754Y-108808883D01*
X193456752Y-108808882D01*
X193282288Y-108731206D01*
X193282284Y-108731205D01*
X193132098Y-108699282D01*
X193077772Y-108667917D01*
X193052257Y-108610610D01*
X193065299Y-108549250D01*
X193111917Y-108507275D01*
X193132098Y-108500718D01*
X193282288Y-108468794D01*
X193456752Y-108391118D01*
X193611253Y-108278866D01*
X193739040Y-108136944D01*
X193834527Y-107971556D01*
X193893542Y-107789928D01*
X193913504Y-107600000D01*
X193910568Y-107572070D01*
X193899714Y-107468794D01*
X193893542Y-107410072D01*
X193834527Y-107228444D01*
X193739040Y-107063056D01*
X193739039Y-107063055D01*
X193739038Y-107063053D01*
X193611256Y-106921137D01*
X193611255Y-106921136D01*
X193611254Y-106921135D01*
X193611253Y-106921134D01*
X193526757Y-106859743D01*
X193456754Y-106808883D01*
X193456752Y-106808882D01*
X193282288Y-106731206D01*
X193282284Y-106731205D01*
X193132098Y-106699282D01*
X193077772Y-106667917D01*
X193052257Y-106610610D01*
X193065299Y-106549250D01*
X193111917Y-106507275D01*
X193132098Y-106500718D01*
X193282288Y-106468794D01*
X193456752Y-106391118D01*
X193611253Y-106278866D01*
X193739040Y-106136944D01*
X193834527Y-105971556D01*
X193893542Y-105789928D01*
X193913504Y-105600000D01*
X193893542Y-105410072D01*
X193834527Y-105228444D01*
X193739040Y-105063056D01*
X193739039Y-105063055D01*
X193739038Y-105063053D01*
X193611256Y-104921137D01*
X193611255Y-104921136D01*
X193611254Y-104921135D01*
X193611253Y-104921134D01*
X193526757Y-104859743D01*
X193456754Y-104808883D01*
X193414180Y-104789928D01*
X193282288Y-104731206D01*
X193282284Y-104731205D01*
X193132098Y-104699282D01*
X193077772Y-104667917D01*
X193052257Y-104610610D01*
X193065299Y-104549250D01*
X193111917Y-104507275D01*
X193132098Y-104500718D01*
X193282288Y-104468794D01*
X193456752Y-104391118D01*
X193611253Y-104278866D01*
X193739040Y-104136944D01*
X193834527Y-103971556D01*
X193893542Y-103789928D01*
X193913504Y-103600000D01*
X193893542Y-103410072D01*
X193834527Y-103228444D01*
X193739040Y-103063056D01*
X193739039Y-103063055D01*
X193739038Y-103063053D01*
X193611256Y-102921137D01*
X193611255Y-102921136D01*
X193611254Y-102921135D01*
X193611253Y-102921134D01*
X193526757Y-102859743D01*
X193456754Y-102808883D01*
X193414180Y-102789928D01*
X193282288Y-102731206D01*
X193282284Y-102731205D01*
X193132098Y-102699282D01*
X193077772Y-102667917D01*
X193052257Y-102610610D01*
X193065299Y-102549250D01*
X193111917Y-102507275D01*
X193132098Y-102500718D01*
X193282288Y-102468794D01*
X193456752Y-102391118D01*
X193611253Y-102278866D01*
X193739040Y-102136944D01*
X193834527Y-101971556D01*
X193893542Y-101789928D01*
X193913504Y-101600000D01*
X193893542Y-101410072D01*
X193834527Y-101228444D01*
X193739040Y-101063056D01*
X193739039Y-101063055D01*
X193739038Y-101063053D01*
X193611256Y-100921137D01*
X193611255Y-100921136D01*
X193611254Y-100921135D01*
X193611253Y-100921134D01*
X193526757Y-100859743D01*
X193456754Y-100808883D01*
X193414180Y-100789928D01*
X193282288Y-100731206D01*
X193282284Y-100731205D01*
X193132098Y-100699282D01*
X193077772Y-100667917D01*
X193052257Y-100610610D01*
X193065299Y-100549250D01*
X193111917Y-100507275D01*
X193132098Y-100500718D01*
X193282288Y-100468794D01*
X193456752Y-100391118D01*
X193611253Y-100278866D01*
X193739040Y-100136944D01*
X193834527Y-99971556D01*
X193893542Y-99789928D01*
X193913504Y-99600000D01*
X193893542Y-99410072D01*
X193834527Y-99228444D01*
X193739040Y-99063056D01*
X193739039Y-99063055D01*
X193739038Y-99063053D01*
X193611256Y-98921137D01*
X193611255Y-98921136D01*
X193611254Y-98921135D01*
X193611253Y-98921134D01*
X193526757Y-98859743D01*
X193456754Y-98808883D01*
X193456752Y-98808882D01*
X193282288Y-98731206D01*
X193282284Y-98731205D01*
X193132098Y-98699282D01*
X193077772Y-98667917D01*
X193052257Y-98610610D01*
X193065299Y-98549250D01*
X193111917Y-98507275D01*
X193132098Y-98500718D01*
X193282288Y-98468794D01*
X193456752Y-98391118D01*
X193611253Y-98278866D01*
X193739040Y-98136944D01*
X193834527Y-97971556D01*
X193893542Y-97789928D01*
X193913504Y-97600000D01*
X193893542Y-97410072D01*
X193834527Y-97228444D01*
X193739040Y-97063056D01*
X193739039Y-97063055D01*
X193739038Y-97063053D01*
X193611256Y-96921137D01*
X193611255Y-96921136D01*
X193611254Y-96921135D01*
X193611253Y-96921134D01*
X193526757Y-96859743D01*
X193456754Y-96808883D01*
X193456752Y-96808882D01*
X193282288Y-96731206D01*
X193282284Y-96731205D01*
X193132098Y-96699282D01*
X193077772Y-96667917D01*
X193052257Y-96610610D01*
X193065299Y-96549250D01*
X193111917Y-96507275D01*
X193132098Y-96500718D01*
X193282288Y-96468794D01*
X193456752Y-96391118D01*
X193611253Y-96278866D01*
X193739040Y-96136944D01*
X193806358Y-96020346D01*
X199765702Y-96020346D01*
X199765779Y-96022156D01*
X199775819Y-96258529D01*
X199807020Y-96403303D01*
X199826046Y-96491581D01*
X199909508Y-96699282D01*
X199914938Y-96712794D01*
X200039926Y-96915788D01*
X200039930Y-96915794D01*
X200083424Y-96965212D01*
X200197436Y-97094755D01*
X200382920Y-97244523D01*
X200591046Y-97360790D01*
X200815829Y-97440211D01*
X201050800Y-97480500D01*
X201050802Y-97480500D01*
X201229500Y-97480500D01*
X201355136Y-97469806D01*
X201407541Y-97465346D01*
X201638249Y-97405275D01*
X201855486Y-97307077D01*
X202053003Y-97173579D01*
X202225118Y-97008621D01*
X202366879Y-96816947D01*
X202474207Y-96604074D01*
X202544016Y-96376123D01*
X202574298Y-96139654D01*
X202564180Y-95901468D01*
X202513954Y-95668419D01*
X202425064Y-95447210D01*
X202425061Y-95447205D01*
X202300073Y-95244211D01*
X202300069Y-95244205D01*
X202142564Y-95065245D01*
X202044940Y-94986419D01*
X201957080Y-94915477D01*
X201845102Y-94852922D01*
X201748956Y-94799211D01*
X201748947Y-94799207D01*
X201524177Y-94719791D01*
X201524175Y-94719790D01*
X201524171Y-94719789D01*
X201514701Y-94718165D01*
X201289204Y-94679500D01*
X201289200Y-94679500D01*
X201110503Y-94679500D01*
X201110500Y-94679500D01*
X200932471Y-94694652D01*
X200932460Y-94694653D01*
X200932459Y-94694654D01*
X200792082Y-94731205D01*
X200701747Y-94754726D01*
X200484515Y-94852922D01*
X200286998Y-94986419D01*
X200114880Y-95151381D01*
X199973123Y-95343048D01*
X199973117Y-95343058D01*
X199865796Y-95555917D01*
X199865792Y-95555927D01*
X199795984Y-95783876D01*
X199765702Y-96020342D01*
X199765702Y-96020345D01*
X199765702Y-96020346D01*
X193806358Y-96020346D01*
X193834527Y-95971556D01*
X193893542Y-95789928D01*
X193913504Y-95600000D01*
X193893542Y-95410072D01*
X193834527Y-95228444D01*
X193739040Y-95063056D01*
X193739039Y-95063055D01*
X193739038Y-95063053D01*
X193611256Y-94921137D01*
X193611255Y-94921136D01*
X193611254Y-94921135D01*
X193611253Y-94921134D01*
X193517368Y-94852922D01*
X193456754Y-94808883D01*
X193456752Y-94808882D01*
X193282288Y-94731206D01*
X193282284Y-94731205D01*
X193132098Y-94699282D01*
X193077772Y-94667917D01*
X193052257Y-94610610D01*
X193065299Y-94549250D01*
X193111917Y-94507275D01*
X193132098Y-94500718D01*
X193282288Y-94468794D01*
X193456752Y-94391118D01*
X193611253Y-94278866D01*
X193739040Y-94136944D01*
X193834527Y-93971556D01*
X193893542Y-93789928D01*
X193913504Y-93600000D01*
X193893542Y-93410072D01*
X193834527Y-93228444D01*
X193739040Y-93063056D01*
X193739039Y-93063055D01*
X193739038Y-93063053D01*
X193611256Y-92921137D01*
X193611255Y-92921136D01*
X193611254Y-92921135D01*
X193611253Y-92921134D01*
X193456752Y-92808882D01*
X193352678Y-92762545D01*
X193306061Y-92720571D01*
X193293019Y-92659211D01*
X193318534Y-92601904D01*
X193372860Y-92570539D01*
X193385988Y-92568635D01*
X193516326Y-92558378D01*
X193766340Y-92498355D01*
X194003887Y-92399960D01*
X194223116Y-92265616D01*
X194418631Y-92098631D01*
X194585616Y-91903116D01*
X194719960Y-91683887D01*
X194818355Y-91446340D01*
X194878378Y-91196326D01*
X194898551Y-90940001D01*
X196701449Y-90940001D01*
X196721622Y-91196326D01*
X196781645Y-91446340D01*
X196781645Y-91446342D01*
X196880037Y-91683882D01*
X196880039Y-91683885D01*
X196880040Y-91683887D01*
X197014384Y-91903116D01*
X197181369Y-92098631D01*
X197376884Y-92265616D01*
X197596113Y-92399960D01*
X197596115Y-92399961D01*
X197596117Y-92399962D01*
X197754477Y-92465556D01*
X197833660Y-92498355D01*
X198083674Y-92558378D01*
X198318102Y-92576827D01*
X198339999Y-92578551D01*
X198340000Y-92578551D01*
X198340001Y-92578551D01*
X198358702Y-92577079D01*
X198596326Y-92558378D01*
X198846340Y-92498355D01*
X199083887Y-92399960D01*
X199303116Y-92265616D01*
X199498631Y-92098631D01*
X199665616Y-91903116D01*
X199728806Y-91800000D01*
X200286496Y-91800000D01*
X200306457Y-91989925D01*
X200306458Y-91989928D01*
X200365473Y-92171556D01*
X200449679Y-92317405D01*
X200460961Y-92336946D01*
X200588743Y-92478862D01*
X200588747Y-92478866D01*
X200743248Y-92591118D01*
X200917712Y-92668794D01*
X201024535Y-92691500D01*
X201104512Y-92708500D01*
X201104513Y-92708500D01*
X201295487Y-92708500D01*
X201482288Y-92668794D01*
X201656752Y-92591118D01*
X201811253Y-92478866D01*
X201939040Y-92336944D01*
X202034527Y-92171556D01*
X202093542Y-91989928D01*
X202113504Y-91800000D01*
X202093542Y-91610072D01*
X202034527Y-91428444D01*
X202007712Y-91382000D01*
X206638496Y-91382000D01*
X206658457Y-91571925D01*
X206658458Y-91571928D01*
X206717473Y-91753556D01*
X206744288Y-91800000D01*
X206812961Y-91918946D01*
X206876874Y-91989928D01*
X206940747Y-92060866D01*
X207095248Y-92173118D01*
X207269712Y-92250794D01*
X207409812Y-92280573D01*
X207456512Y-92290500D01*
X207456513Y-92290500D01*
X207647487Y-92290500D01*
X207834288Y-92250794D01*
X208008752Y-92173118D01*
X208163253Y-92060866D01*
X208291040Y-91918944D01*
X208386527Y-91753556D01*
X208445542Y-91571928D01*
X208465504Y-91382000D01*
X208445542Y-91192072D01*
X208386527Y-91010444D01*
X208291040Y-90845056D01*
X208291039Y-90845055D01*
X208291038Y-90845053D01*
X208163256Y-90703137D01*
X208163255Y-90703136D01*
X208163254Y-90703135D01*
X208163253Y-90703134D01*
X208078757Y-90641743D01*
X208008754Y-90590883D01*
X208008752Y-90590882D01*
X207834288Y-90513206D01*
X207834284Y-90513205D01*
X207684098Y-90481282D01*
X207629772Y-90449917D01*
X207604257Y-90392610D01*
X207617299Y-90331250D01*
X207663917Y-90289275D01*
X207684098Y-90282718D01*
X207834288Y-90250794D01*
X208008752Y-90173118D01*
X208163253Y-90060866D01*
X208291040Y-89918944D01*
X208386527Y-89753556D01*
X208445542Y-89571928D01*
X208465504Y-89382000D01*
X208445542Y-89192072D01*
X208386527Y-89010444D01*
X208291040Y-88845056D01*
X208291039Y-88845055D01*
X208291038Y-88845053D01*
X208163256Y-88703137D01*
X208163255Y-88703136D01*
X208163254Y-88703135D01*
X208163253Y-88703134D01*
X208077229Y-88640634D01*
X208008754Y-88590883D01*
X208008752Y-88590882D01*
X207834288Y-88513206D01*
X207834284Y-88513205D01*
X207684098Y-88481282D01*
X207629772Y-88449917D01*
X207604257Y-88392610D01*
X207617299Y-88331250D01*
X207663917Y-88289275D01*
X207684098Y-88282718D01*
X207834288Y-88250794D01*
X208008752Y-88173118D01*
X208163253Y-88060866D01*
X208291040Y-87918944D01*
X208386527Y-87753556D01*
X208445542Y-87571928D01*
X208465504Y-87382000D01*
X208445542Y-87192072D01*
X208386527Y-87010444D01*
X208291040Y-86845056D01*
X208291039Y-86845055D01*
X208291038Y-86845053D01*
X208163256Y-86703137D01*
X208163255Y-86703136D01*
X208163254Y-86703135D01*
X208163253Y-86703134D01*
X208060453Y-86628445D01*
X208008754Y-86590883D01*
X208008752Y-86590882D01*
X207834288Y-86513206D01*
X207834284Y-86513205D01*
X207684098Y-86481282D01*
X207629772Y-86449917D01*
X207604257Y-86392610D01*
X207617299Y-86331250D01*
X207663917Y-86289275D01*
X207684098Y-86282718D01*
X207834288Y-86250794D01*
X208008752Y-86173118D01*
X208163253Y-86060866D01*
X208291040Y-85918944D01*
X208386527Y-85753556D01*
X208445542Y-85571928D01*
X208465504Y-85382000D01*
X208445542Y-85192072D01*
X208386527Y-85010444D01*
X208291040Y-84845056D01*
X208291039Y-84845055D01*
X208291038Y-84845053D01*
X208163256Y-84703137D01*
X208163255Y-84703136D01*
X208163254Y-84703135D01*
X208163253Y-84703134D01*
X208037319Y-84611637D01*
X208008754Y-84590883D01*
X208008752Y-84590882D01*
X207834288Y-84513206D01*
X207834284Y-84513205D01*
X207684098Y-84481282D01*
X207629772Y-84449917D01*
X207604257Y-84392610D01*
X207617299Y-84331250D01*
X207663917Y-84289275D01*
X207684098Y-84282718D01*
X207693432Y-84280734D01*
X207834288Y-84250794D01*
X208008752Y-84173118D01*
X208163253Y-84060866D01*
X208291040Y-83918944D01*
X208386527Y-83753556D01*
X208445542Y-83571928D01*
X208465504Y-83382000D01*
X208446376Y-83200004D01*
X213286807Y-83200004D01*
X213305556Y-83474121D01*
X213305557Y-83474123D01*
X213305557Y-83474126D01*
X213305558Y-83474130D01*
X213305947Y-83476000D01*
X213361461Y-83743153D01*
X213453478Y-84002061D01*
X213453480Y-84002065D01*
X213532653Y-84154862D01*
X213579889Y-84246023D01*
X213738343Y-84470502D01*
X213925889Y-84671314D01*
X213925894Y-84671318D01*
X213925897Y-84671321D01*
X214097585Y-84810999D01*
X214139031Y-84844718D01*
X214373800Y-84987484D01*
X214373804Y-84987486D01*
X214373808Y-84987488D01*
X214453701Y-85022190D01*
X214625823Y-85096953D01*
X214625830Y-85096955D01*
X214625835Y-85096957D01*
X214890392Y-85171082D01*
X214890394Y-85171082D01*
X214890404Y-85171085D01*
X215162615Y-85208500D01*
X215162619Y-85208500D01*
X215437381Y-85208500D01*
X215437385Y-85208500D01*
X215709596Y-85171085D01*
X215709607Y-85171082D01*
X215974164Y-85096957D01*
X215974166Y-85096955D01*
X215974177Y-85096953D01*
X216226200Y-84987484D01*
X216460969Y-84844718D01*
X216674111Y-84671314D01*
X216861657Y-84470502D01*
X217020111Y-84246023D01*
X217146523Y-84002058D01*
X217238538Y-83743153D01*
X217294442Y-83474130D01*
X217294786Y-83469110D01*
X217313193Y-83200004D01*
X217313193Y-83200002D01*
X222494451Y-83200002D01*
X222514616Y-83469095D01*
X222514618Y-83469110D01*
X222559540Y-83665925D01*
X222574666Y-83732195D01*
X222646245Y-83914574D01*
X222673256Y-83983396D01*
X222673259Y-83983402D01*
X222808184Y-84217101D01*
X222808187Y-84217106D01*
X222976440Y-84428087D01*
X223174260Y-84611636D01*
X223174262Y-84611638D01*
X223397221Y-84763648D01*
X223397224Y-84763650D01*
X223640352Y-84880735D01*
X223640354Y-84880735D01*
X223640359Y-84880738D01*
X223898228Y-84960280D01*
X224165071Y-85000500D01*
X224165077Y-85000500D01*
X224434923Y-85000500D01*
X224434929Y-85000500D01*
X224701772Y-84960280D01*
X224959641Y-84880738D01*
X225202775Y-84763651D01*
X225425741Y-84611635D01*
X225623561Y-84428085D01*
X225751930Y-84267116D01*
X225791812Y-84217106D01*
X225791812Y-84217105D01*
X225791815Y-84217102D01*
X225926743Y-83983398D01*
X226025334Y-83732195D01*
X226085383Y-83469103D01*
X226105549Y-83200000D01*
X226085383Y-82930897D01*
X226025334Y-82667805D01*
X225926743Y-82416602D01*
X225791815Y-82182898D01*
X225791812Y-82182893D01*
X225623559Y-81971912D01*
X225425745Y-81788368D01*
X225425738Y-81788362D01*
X225202773Y-81636347D01*
X224959649Y-81519265D01*
X224959643Y-81519263D01*
X224959641Y-81519262D01*
X224701772Y-81439720D01*
X224701769Y-81439719D01*
X224701763Y-81439718D01*
X224434933Y-81399500D01*
X224434929Y-81399500D01*
X224165071Y-81399500D01*
X224165066Y-81399500D01*
X223898236Y-81439718D01*
X223898228Y-81439720D01*
X223640352Y-81519264D01*
X223397224Y-81636349D01*
X223397221Y-81636351D01*
X223174262Y-81788361D01*
X223174260Y-81788363D01*
X222976440Y-81971912D01*
X222808187Y-82182893D01*
X222808184Y-82182898D01*
X222673259Y-82416597D01*
X222673256Y-82416603D01*
X222614033Y-82567500D01*
X222574666Y-82667805D01*
X222574665Y-82667808D01*
X222574664Y-82667808D01*
X222514618Y-82930889D01*
X222514616Y-82930904D01*
X222494451Y-83199997D01*
X222494451Y-83200002D01*
X217313193Y-83200002D01*
X217313193Y-83199995D01*
X217294443Y-82925878D01*
X217294442Y-82925876D01*
X217294442Y-82925870D01*
X217238538Y-82656847D01*
X217218333Y-82599997D01*
X217187488Y-82513206D01*
X217146523Y-82397942D01*
X217020111Y-82153977D01*
X216861657Y-81929498D01*
X216674111Y-81728686D01*
X216674105Y-81728681D01*
X216674102Y-81728678D01*
X216460974Y-81555286D01*
X216460973Y-81555285D01*
X216460969Y-81555282D01*
X216226200Y-81412516D01*
X216226197Y-81412514D01*
X216226191Y-81412511D01*
X216060237Y-81340428D01*
X215974177Y-81303047D01*
X215974173Y-81303045D01*
X215974164Y-81303042D01*
X215709607Y-81228917D01*
X215709599Y-81228915D01*
X215709596Y-81228915D01*
X215497202Y-81199721D01*
X215437386Y-81191500D01*
X215437385Y-81191500D01*
X215162615Y-81191500D01*
X215162613Y-81191500D01*
X215064531Y-81204981D01*
X214890404Y-81228915D01*
X214890400Y-81228915D01*
X214890393Y-81228917D01*
X214890392Y-81228917D01*
X214625835Y-81303042D01*
X214625821Y-81303048D01*
X214373808Y-81412511D01*
X214373800Y-81412516D01*
X214139031Y-81555282D01*
X214139029Y-81555283D01*
X214139025Y-81555286D01*
X213925897Y-81728678D01*
X213925888Y-81728687D01*
X213738343Y-81929497D01*
X213738343Y-81929498D01*
X213640714Y-82067808D01*
X213579887Y-82153980D01*
X213453480Y-82397934D01*
X213453478Y-82397938D01*
X213361461Y-82656846D01*
X213305557Y-82925876D01*
X213305556Y-82925878D01*
X213286807Y-83199995D01*
X213286807Y-83200004D01*
X208446376Y-83200004D01*
X208445542Y-83192072D01*
X208386527Y-83010444D01*
X208291040Y-82845056D01*
X208291039Y-82845055D01*
X208291038Y-82845053D01*
X208163256Y-82703137D01*
X208163255Y-82703136D01*
X208163254Y-82703135D01*
X208163253Y-82703134D01*
X208078757Y-82641743D01*
X208008754Y-82590883D01*
X208008752Y-82590882D01*
X207834288Y-82513206D01*
X207834284Y-82513205D01*
X207647487Y-82473500D01*
X207456513Y-82473500D01*
X207269715Y-82513205D01*
X207269713Y-82513205D01*
X207269712Y-82513206D01*
X207182480Y-82552044D01*
X207095245Y-82590883D01*
X206940744Y-82703136D01*
X206940743Y-82703137D01*
X206812961Y-82845053D01*
X206759576Y-82937519D01*
X206717473Y-83010444D01*
X206711624Y-83028445D01*
X206658458Y-83192071D01*
X206658457Y-83192074D01*
X206638496Y-83381999D01*
X206638496Y-83382000D01*
X206658457Y-83571925D01*
X206658458Y-83571928D01*
X206717473Y-83753556D01*
X206760504Y-83828087D01*
X206812961Y-83918946D01*
X206940743Y-84060862D01*
X206940747Y-84060866D01*
X207095248Y-84173118D01*
X207269712Y-84250794D01*
X207389133Y-84276177D01*
X207419901Y-84282718D01*
X207474227Y-84314083D01*
X207499742Y-84371391D01*
X207486699Y-84432750D01*
X207440082Y-84474725D01*
X207419901Y-84481282D01*
X207269715Y-84513205D01*
X207269713Y-84513205D01*
X207269712Y-84513206D01*
X207219178Y-84535705D01*
X207095245Y-84590883D01*
X206940744Y-84703136D01*
X206940743Y-84703137D01*
X206812961Y-84845053D01*
X206783037Y-84896884D01*
X206717473Y-85010444D01*
X206717473Y-85010445D01*
X206658458Y-85192071D01*
X206658457Y-85192074D01*
X206638496Y-85381999D01*
X206638496Y-85382000D01*
X206658457Y-85571925D01*
X206658458Y-85571928D01*
X206717473Y-85753556D01*
X206778929Y-85860000D01*
X206812961Y-85918946D01*
X206940743Y-86060862D01*
X206940747Y-86060866D01*
X207095248Y-86173118D01*
X207269712Y-86250794D01*
X207389133Y-86276177D01*
X207419901Y-86282718D01*
X207474227Y-86314083D01*
X207499742Y-86371391D01*
X207486699Y-86432750D01*
X207440082Y-86474725D01*
X207419901Y-86481282D01*
X207269715Y-86513205D01*
X207269713Y-86513205D01*
X207269712Y-86513206D01*
X207182480Y-86552044D01*
X207095245Y-86590883D01*
X206940744Y-86703136D01*
X206940743Y-86703137D01*
X206812961Y-86845053D01*
X206792383Y-86880696D01*
X206717473Y-87010444D01*
X206717473Y-87010445D01*
X206658458Y-87192071D01*
X206658457Y-87192074D01*
X206638496Y-87381999D01*
X206638496Y-87382000D01*
X206658457Y-87571925D01*
X206658458Y-87571928D01*
X206717473Y-87753556D01*
X206784006Y-87868794D01*
X206812961Y-87918946D01*
X206940743Y-88060862D01*
X206940747Y-88060866D01*
X207095248Y-88173118D01*
X207269712Y-88250794D01*
X207389133Y-88276177D01*
X207419901Y-88282718D01*
X207474227Y-88314083D01*
X207499742Y-88371391D01*
X207486699Y-88432750D01*
X207440082Y-88474725D01*
X207419901Y-88481282D01*
X207269715Y-88513205D01*
X207269713Y-88513205D01*
X207269712Y-88513206D01*
X207182480Y-88552044D01*
X207095245Y-88590883D01*
X206940744Y-88703136D01*
X206940743Y-88703137D01*
X206812961Y-88845053D01*
X206759576Y-88937519D01*
X206717473Y-89010444D01*
X206717473Y-89010445D01*
X206658458Y-89192071D01*
X206658457Y-89192074D01*
X206638496Y-89381999D01*
X206638496Y-89382000D01*
X206658457Y-89571925D01*
X206658458Y-89571928D01*
X206717473Y-89753556D01*
X206780635Y-89862955D01*
X206812961Y-89918946D01*
X206940743Y-90060862D01*
X206940747Y-90060866D01*
X207095248Y-90173118D01*
X207269712Y-90250794D01*
X207389133Y-90276177D01*
X207419901Y-90282718D01*
X207474227Y-90314083D01*
X207499742Y-90371391D01*
X207486699Y-90432750D01*
X207440082Y-90474725D01*
X207419901Y-90481282D01*
X207269715Y-90513205D01*
X207269713Y-90513205D01*
X207269712Y-90513206D01*
X207216391Y-90536946D01*
X207095245Y-90590883D01*
X206940744Y-90703136D01*
X206940743Y-90703137D01*
X206812961Y-90845053D01*
X206787363Y-90889391D01*
X206717473Y-91010444D01*
X206717473Y-91010445D01*
X206658458Y-91192071D01*
X206658457Y-91192074D01*
X206638496Y-91381999D01*
X206638496Y-91382000D01*
X202007712Y-91382000D01*
X201939040Y-91263056D01*
X201939039Y-91263055D01*
X201939038Y-91263053D01*
X201811256Y-91121137D01*
X201811255Y-91121136D01*
X201811254Y-91121135D01*
X201811253Y-91121134D01*
X201656752Y-91008882D01*
X201620461Y-90992724D01*
X201573844Y-90950750D01*
X201560801Y-90889391D01*
X201586316Y-90832083D01*
X201620461Y-90807275D01*
X201656752Y-90791118D01*
X201811253Y-90678866D01*
X201939040Y-90536944D01*
X202034527Y-90371556D01*
X202093542Y-90189928D01*
X202113504Y-90000000D01*
X202111074Y-89976884D01*
X202105023Y-89919304D01*
X202093542Y-89810072D01*
X202034527Y-89628444D01*
X201939040Y-89463056D01*
X201939039Y-89463055D01*
X201939038Y-89463053D01*
X201811256Y-89321137D01*
X201811255Y-89321136D01*
X201811254Y-89321135D01*
X201811253Y-89321134D01*
X201726757Y-89259743D01*
X201656754Y-89208883D01*
X201619000Y-89192074D01*
X201482288Y-89131206D01*
X201482284Y-89131205D01*
X201295487Y-89091500D01*
X201104513Y-89091500D01*
X200917715Y-89131205D01*
X200917713Y-89131205D01*
X200917712Y-89131206D01*
X200830480Y-89170044D01*
X200743245Y-89208883D01*
X200588744Y-89321136D01*
X200588743Y-89321137D01*
X200460961Y-89463053D01*
X200451154Y-89480040D01*
X200365473Y-89628444D01*
X200365473Y-89628445D01*
X200306458Y-89810071D01*
X200306457Y-89810074D01*
X200286496Y-89999999D01*
X200286496Y-90000000D01*
X200306457Y-90189925D01*
X200306458Y-90189928D01*
X200365473Y-90371556D01*
X200447254Y-90513205D01*
X200460961Y-90536946D01*
X200588743Y-90678862D01*
X200588747Y-90678866D01*
X200743248Y-90791118D01*
X200779538Y-90807275D01*
X200826156Y-90849251D01*
X200839198Y-90910610D01*
X200813683Y-90967917D01*
X200779538Y-90992724D01*
X200743248Y-91008882D01*
X200743246Y-91008883D01*
X200588744Y-91121136D01*
X200588743Y-91121137D01*
X200460961Y-91263053D01*
X200422487Y-91329693D01*
X200365473Y-91428444D01*
X200365473Y-91428445D01*
X200306458Y-91610071D01*
X200306457Y-91610074D01*
X200286496Y-91799999D01*
X200286496Y-91800000D01*
X199728806Y-91800000D01*
X199799960Y-91683887D01*
X199898355Y-91446340D01*
X199958378Y-91196326D01*
X199978551Y-90940000D01*
X199958378Y-90683674D01*
X199898355Y-90433660D01*
X199872630Y-90371554D01*
X199799962Y-90196117D01*
X199799960Y-90196114D01*
X199799960Y-90196113D01*
X199665616Y-89976884D01*
X199498631Y-89781369D01*
X199303116Y-89614384D01*
X199083887Y-89480040D01*
X199083885Y-89480039D01*
X199083882Y-89480037D01*
X198846341Y-89381645D01*
X198596326Y-89321622D01*
X198596327Y-89321622D01*
X198340001Y-89301449D01*
X198339999Y-89301449D01*
X198083673Y-89321622D01*
X197833659Y-89381645D01*
X197833657Y-89381645D01*
X197596117Y-89480037D01*
X197596114Y-89480039D01*
X197376883Y-89614384D01*
X197181369Y-89781369D01*
X197014384Y-89976883D01*
X196880039Y-90196114D01*
X196880037Y-90196117D01*
X196781645Y-90433657D01*
X196781645Y-90433659D01*
X196721622Y-90683673D01*
X196701449Y-90939998D01*
X196701449Y-90940001D01*
X194898551Y-90940001D01*
X194898551Y-90940000D01*
X194878378Y-90683674D01*
X194818355Y-90433660D01*
X194792630Y-90371554D01*
X194719962Y-90196117D01*
X194719960Y-90196114D01*
X194719960Y-90196113D01*
X194585616Y-89976884D01*
X194418631Y-89781369D01*
X194223116Y-89614384D01*
X194003887Y-89480040D01*
X194003885Y-89480039D01*
X194003882Y-89480037D01*
X193766341Y-89381645D01*
X193516326Y-89321622D01*
X193516327Y-89321622D01*
X193260001Y-89301449D01*
X193259999Y-89301449D01*
X193003673Y-89321622D01*
X192753659Y-89381645D01*
X192753657Y-89381645D01*
X192516117Y-89480037D01*
X192516114Y-89480039D01*
X192296883Y-89614384D01*
X192101369Y-89781369D01*
X191934384Y-89976883D01*
X191800039Y-90196114D01*
X191800037Y-90196117D01*
X191701645Y-90433657D01*
X191701645Y-90433659D01*
X191641622Y-90683673D01*
X191621449Y-90939998D01*
X191621449Y-90940001D01*
X173683768Y-90940001D01*
X173633971Y-90813121D01*
X173498443Y-90578379D01*
X173329442Y-90366458D01*
X173130743Y-90182093D01*
X173130741Y-90182091D01*
X173130739Y-90182089D01*
X172906789Y-90029402D01*
X172797731Y-89976883D01*
X172662572Y-89911794D01*
X172403558Y-89831899D01*
X172403555Y-89831898D01*
X172403549Y-89831897D01*
X172135532Y-89791500D01*
X172135528Y-89791500D01*
X171864472Y-89791500D01*
X171864467Y-89791500D01*
X171596450Y-89831897D01*
X171596442Y-89831899D01*
X171337428Y-89911794D01*
X171337419Y-89911797D01*
X171093213Y-90029401D01*
X171093210Y-90029403D01*
X170869260Y-90182089D01*
X170869258Y-90182091D01*
X170670567Y-90366449D01*
X170670562Y-90366453D01*
X170670558Y-90366458D01*
X170670554Y-90366462D01*
X170670553Y-90366464D01*
X170501560Y-90578374D01*
X170501556Y-90578379D01*
X170378733Y-90791117D01*
X170366029Y-90813121D01*
X170267001Y-91065441D01*
X170267000Y-91065444D01*
X170266999Y-91065444D01*
X170206686Y-91329693D01*
X170206684Y-91329708D01*
X170186429Y-91599997D01*
X170186429Y-91600002D01*
X161313571Y-91600002D01*
X161313571Y-91600000D01*
X161293315Y-91329701D01*
X161232999Y-91065441D01*
X161133971Y-90813121D01*
X160998443Y-90578379D01*
X160829442Y-90366458D01*
X160630743Y-90182093D01*
X160630741Y-90182091D01*
X160630739Y-90182089D01*
X160406789Y-90029402D01*
X160297731Y-89976883D01*
X160162572Y-89911794D01*
X159903558Y-89831899D01*
X159903555Y-89831898D01*
X159903549Y-89831897D01*
X159635532Y-89791500D01*
X159635528Y-89791500D01*
X159364472Y-89791500D01*
X159364467Y-89791500D01*
X159096450Y-89831897D01*
X159096442Y-89831899D01*
X158837428Y-89911794D01*
X158837419Y-89911797D01*
X158593213Y-90029401D01*
X158593210Y-90029403D01*
X158369260Y-90182089D01*
X158369258Y-90182091D01*
X158170567Y-90366449D01*
X158170562Y-90366453D01*
X158170558Y-90366458D01*
X158170554Y-90366462D01*
X158170553Y-90366464D01*
X158001560Y-90578374D01*
X158001556Y-90578379D01*
X157878733Y-90791117D01*
X157866029Y-90813121D01*
X157767001Y-91065441D01*
X157767000Y-91065444D01*
X157766999Y-91065444D01*
X157706686Y-91329693D01*
X157706684Y-91329708D01*
X157686429Y-91599997D01*
X157686429Y-91600002D01*
X134463416Y-91600002D01*
X134463594Y-84987484D01*
X134463658Y-82600002D01*
X139194451Y-82600002D01*
X139214616Y-82869095D01*
X139214618Y-82869110D01*
X139268332Y-83104444D01*
X139274666Y-83132195D01*
X139305231Y-83210072D01*
X139373256Y-83383396D01*
X139373259Y-83383402D01*
X139508184Y-83617101D01*
X139508187Y-83617106D01*
X139676440Y-83828087D01*
X139874260Y-84011636D01*
X139874262Y-84011638D01*
X140097221Y-84163648D01*
X140097224Y-84163650D01*
X140340352Y-84280735D01*
X140340354Y-84280735D01*
X140340359Y-84280738D01*
X140598228Y-84360280D01*
X140865071Y-84400500D01*
X140865077Y-84400500D01*
X141134923Y-84400500D01*
X141134929Y-84400500D01*
X141401772Y-84360280D01*
X141659641Y-84280738D01*
X141870919Y-84178992D01*
X141902773Y-84163652D01*
X141902773Y-84163651D01*
X141902775Y-84163651D01*
X142125741Y-84011635D01*
X142323561Y-83828085D01*
X142491815Y-83617102D01*
X142626743Y-83383398D01*
X142725334Y-83132195D01*
X142785383Y-82869103D01*
X142804883Y-82608883D01*
X142805549Y-82600002D01*
X148194451Y-82600002D01*
X148214616Y-82869095D01*
X148214618Y-82869110D01*
X148268332Y-83104444D01*
X148274666Y-83132195D01*
X148305231Y-83210072D01*
X148373256Y-83383396D01*
X148373259Y-83383402D01*
X148508184Y-83617101D01*
X148508187Y-83617106D01*
X148676440Y-83828087D01*
X148874260Y-84011636D01*
X148874262Y-84011638D01*
X149097221Y-84163648D01*
X149097224Y-84163650D01*
X149340352Y-84280735D01*
X149340354Y-84280735D01*
X149340359Y-84280738D01*
X149598228Y-84360280D01*
X149865071Y-84400500D01*
X149865077Y-84400500D01*
X150134923Y-84400500D01*
X150134929Y-84400500D01*
X150401772Y-84360280D01*
X150659641Y-84280738D01*
X150870919Y-84178992D01*
X150902773Y-84163652D01*
X150902773Y-84163651D01*
X150902775Y-84163651D01*
X151125741Y-84011635D01*
X151323561Y-83828085D01*
X151491815Y-83617102D01*
X151626743Y-83383398D01*
X151725334Y-83132195D01*
X151785383Y-82869103D01*
X151804883Y-82608883D01*
X151805549Y-82600002D01*
X151805549Y-82599997D01*
X151796069Y-82473500D01*
X151785383Y-82330897D01*
X151725334Y-82067805D01*
X151626743Y-81816602D01*
X151491815Y-81582898D01*
X151491812Y-81582893D01*
X151323559Y-81371912D01*
X151125745Y-81188368D01*
X151125738Y-81188362D01*
X150902773Y-81036347D01*
X150659649Y-80919265D01*
X150659643Y-80919263D01*
X150659641Y-80919262D01*
X150401772Y-80839720D01*
X150401769Y-80839719D01*
X150401763Y-80839718D01*
X150134933Y-80799500D01*
X150134929Y-80799500D01*
X149865071Y-80799500D01*
X149865066Y-80799500D01*
X149598236Y-80839718D01*
X149598228Y-80839720D01*
X149340352Y-80919264D01*
X149097224Y-81036349D01*
X149097221Y-81036351D01*
X148874262Y-81188361D01*
X148874260Y-81188363D01*
X148676440Y-81371912D01*
X148508187Y-81582893D01*
X148508184Y-81582898D01*
X148373259Y-81816597D01*
X148373256Y-81816603D01*
X148337189Y-81908500D01*
X148274666Y-82067805D01*
X148274665Y-82067808D01*
X148274664Y-82067808D01*
X148214618Y-82330889D01*
X148214616Y-82330904D01*
X148194451Y-82599997D01*
X148194451Y-82600002D01*
X142805549Y-82600002D01*
X142805549Y-82599997D01*
X142796069Y-82473500D01*
X142785383Y-82330897D01*
X142725334Y-82067805D01*
X142626743Y-81816602D01*
X142491815Y-81582898D01*
X142491812Y-81582893D01*
X142323559Y-81371912D01*
X142125745Y-81188368D01*
X142125738Y-81188362D01*
X141902773Y-81036347D01*
X141659649Y-80919265D01*
X141659643Y-80919263D01*
X141659641Y-80919262D01*
X141401772Y-80839720D01*
X141401769Y-80839719D01*
X141401763Y-80839718D01*
X141134933Y-80799500D01*
X141134929Y-80799500D01*
X140865071Y-80799500D01*
X140865066Y-80799500D01*
X140598236Y-80839718D01*
X140598228Y-80839720D01*
X140340352Y-80919264D01*
X140097224Y-81036349D01*
X140097221Y-81036351D01*
X139874262Y-81188361D01*
X139874260Y-81188363D01*
X139676440Y-81371912D01*
X139508187Y-81582893D01*
X139508184Y-81582898D01*
X139373259Y-81816597D01*
X139373256Y-81816603D01*
X139337189Y-81908500D01*
X139274666Y-82067805D01*
X139274665Y-82067808D01*
X139274664Y-82067808D01*
X139214618Y-82330889D01*
X139214616Y-82330904D01*
X139194451Y-82599997D01*
X139194451Y-82600002D01*
X134463658Y-82600002D01*
X134464157Y-64066530D01*
X156999012Y-64066530D01*
X157124012Y-88956530D01*
X157124013Y-88956531D01*
X182192013Y-89006531D01*
X182188967Y-88400001D01*
X194261758Y-88400001D01*
X194280696Y-88640634D01*
X194337044Y-88875343D01*
X194429413Y-89098342D01*
X194429415Y-89098345D01*
X194429416Y-89098347D01*
X194449552Y-89131206D01*
X194555536Y-89304156D01*
X194555541Y-89304162D01*
X194712298Y-89487701D01*
X194860625Y-89614384D01*
X194895844Y-89644464D01*
X195101653Y-89770584D01*
X195101655Y-89770585D01*
X195101657Y-89770586D01*
X195324656Y-89862955D01*
X195381005Y-89876483D01*
X195559366Y-89919304D01*
X195779443Y-89936624D01*
X195799999Y-89938242D01*
X195800000Y-89938242D01*
X195800001Y-89938242D01*
X195817557Y-89936860D01*
X196040634Y-89919304D01*
X196275343Y-89862955D01*
X196498347Y-89770584D01*
X196704156Y-89644464D01*
X196887701Y-89487701D01*
X197044464Y-89304156D01*
X197170584Y-89098347D01*
X197262955Y-88875343D01*
X197319304Y-88640634D01*
X197338242Y-88400000D01*
X197337660Y-88392610D01*
X197329528Y-88289275D01*
X197319304Y-88159366D01*
X197262955Y-87924657D01*
X197260589Y-87918946D01*
X197170586Y-87701657D01*
X197170584Y-87701654D01*
X197170584Y-87701653D01*
X197044464Y-87495844D01*
X196938310Y-87371554D01*
X196887701Y-87312298D01*
X196704162Y-87155541D01*
X196704156Y-87155536D01*
X196498345Y-87029415D01*
X196498342Y-87029413D01*
X196275343Y-86937044D01*
X196040634Y-86880696D01*
X196040635Y-86880696D01*
X195800001Y-86861758D01*
X195799999Y-86861758D01*
X195559365Y-86880696D01*
X195324656Y-86937044D01*
X195101657Y-87029413D01*
X195101654Y-87029415D01*
X194895843Y-87155536D01*
X194895837Y-87155541D01*
X194712298Y-87312298D01*
X194555541Y-87495837D01*
X194555536Y-87495843D01*
X194429415Y-87701654D01*
X194429413Y-87701657D01*
X194337044Y-87924656D01*
X194280696Y-88159365D01*
X194261758Y-88399998D01*
X194261758Y-88400001D01*
X182188967Y-88400001D01*
X182176210Y-85860001D01*
X191621449Y-85860001D01*
X191641622Y-86116326D01*
X191701645Y-86366340D01*
X191701645Y-86366342D01*
X191800037Y-86603882D01*
X191800039Y-86603885D01*
X191800040Y-86603887D01*
X191934384Y-86823116D01*
X192101369Y-87018631D01*
X192296884Y-87185616D01*
X192516113Y-87319960D01*
X192516115Y-87319961D01*
X192516117Y-87319962D01*
X192640672Y-87371554D01*
X192753660Y-87418355D01*
X193003674Y-87478378D01*
X193225604Y-87495844D01*
X193259999Y-87498551D01*
X193260000Y-87498551D01*
X193260001Y-87498551D01*
X193278702Y-87497079D01*
X193516326Y-87478378D01*
X193766340Y-87418355D01*
X194003887Y-87319960D01*
X194223116Y-87185616D01*
X194418631Y-87018631D01*
X194585616Y-86823116D01*
X194719960Y-86603887D01*
X194818355Y-86366340D01*
X194878378Y-86116326D01*
X194898551Y-85860000D01*
X194878378Y-85603674D01*
X194818355Y-85353660D01*
X194758228Y-85208500D01*
X194719962Y-85116117D01*
X194719960Y-85116114D01*
X194719960Y-85116113D01*
X194585616Y-84896884D01*
X194418631Y-84701369D01*
X194223116Y-84534384D01*
X194003887Y-84400040D01*
X194003885Y-84400039D01*
X194003882Y-84400037D01*
X193766342Y-84301645D01*
X193766328Y-84301641D01*
X193633387Y-84269724D01*
X193579900Y-84236947D01*
X193555895Y-84178992D01*
X193570539Y-84117995D01*
X193597420Y-84088916D01*
X193611253Y-84078866D01*
X193739040Y-83936944D01*
X193834527Y-83771556D01*
X193893542Y-83589928D01*
X193905516Y-83476000D01*
X194160496Y-83476000D01*
X194180457Y-83665925D01*
X194180458Y-83665928D01*
X194239473Y-83847556D01*
X194317900Y-83983396D01*
X194334961Y-84012946D01*
X194462743Y-84154862D01*
X194462747Y-84154866D01*
X194617248Y-84267118D01*
X194791712Y-84344794D01*
X194931812Y-84374573D01*
X194978512Y-84384500D01*
X194978513Y-84384500D01*
X195169487Y-84384500D01*
X195356288Y-84344794D01*
X195530752Y-84267118D01*
X195685253Y-84154866D01*
X195813040Y-84012944D01*
X195908527Y-83847556D01*
X195967542Y-83665928D01*
X195973056Y-83613464D01*
X195998571Y-83556157D01*
X196052897Y-83524792D01*
X196115283Y-83531349D01*
X196161901Y-83573324D01*
X196174944Y-83613465D01*
X196180457Y-83665925D01*
X196180458Y-83665928D01*
X196239473Y-83847556D01*
X196317900Y-83983396D01*
X196334961Y-84012946D01*
X196462743Y-84154862D01*
X196462747Y-84154866D01*
X196617248Y-84267118D01*
X196791712Y-84344794D01*
X196931812Y-84374573D01*
X196978512Y-84384500D01*
X196978513Y-84384500D01*
X197169486Y-84384500D01*
X197169487Y-84384500D01*
X197288315Y-84359242D01*
X197350701Y-84365799D01*
X197397319Y-84407774D01*
X197410362Y-84469133D01*
X197384847Y-84526441D01*
X197375337Y-84535705D01*
X197181369Y-84701369D01*
X197014384Y-84896883D01*
X196880039Y-85116114D01*
X196880037Y-85116117D01*
X196781645Y-85353657D01*
X196781645Y-85353659D01*
X196721622Y-85603673D01*
X196701449Y-85859998D01*
X196701449Y-85860001D01*
X196721622Y-86116326D01*
X196781645Y-86366340D01*
X196781645Y-86366342D01*
X196880037Y-86603882D01*
X196880039Y-86603885D01*
X196880040Y-86603887D01*
X197014384Y-86823116D01*
X197181369Y-87018631D01*
X197376884Y-87185616D01*
X197596113Y-87319960D01*
X197596115Y-87319961D01*
X197596117Y-87319962D01*
X197720672Y-87371554D01*
X197833660Y-87418355D01*
X198083674Y-87478378D01*
X198305604Y-87495844D01*
X198339999Y-87498551D01*
X198340000Y-87498551D01*
X198340001Y-87498551D01*
X198358702Y-87497079D01*
X198596326Y-87478378D01*
X198846340Y-87418355D01*
X199083887Y-87319960D01*
X199303116Y-87185616D01*
X199498631Y-87018631D01*
X199665616Y-86823116D01*
X199799960Y-86603887D01*
X199898355Y-86366340D01*
X199958378Y-86116326D01*
X199978551Y-85860000D01*
X199958378Y-85603674D01*
X199898355Y-85353660D01*
X199838228Y-85208500D01*
X199799962Y-85116117D01*
X199799960Y-85116114D01*
X199799960Y-85116113D01*
X199665616Y-84896884D01*
X199498631Y-84701369D01*
X199303116Y-84534384D01*
X199303117Y-84534384D01*
X199303114Y-84534382D01*
X199299887Y-84532038D01*
X199300647Y-84530991D01*
X199263280Y-84487232D01*
X199258363Y-84424694D01*
X199291144Y-84371210D01*
X199335953Y-84349116D01*
X199356288Y-84344794D01*
X199530752Y-84267118D01*
X199685253Y-84154866D01*
X199813040Y-84012944D01*
X199908527Y-83847556D01*
X199967542Y-83665928D01*
X199973056Y-83613464D01*
X199998571Y-83556157D01*
X200052897Y-83524792D01*
X200115283Y-83531349D01*
X200161901Y-83573324D01*
X200174944Y-83613465D01*
X200180457Y-83665925D01*
X200180458Y-83665928D01*
X200239473Y-83847556D01*
X200317900Y-83983396D01*
X200334961Y-84012946D01*
X200462743Y-84154862D01*
X200462747Y-84154866D01*
X200617248Y-84267118D01*
X200655752Y-84284261D01*
X200702369Y-84326235D01*
X200715411Y-84387595D01*
X200689896Y-84444902D01*
X200674128Y-84459099D01*
X200588751Y-84521130D01*
X200588743Y-84521137D01*
X200460961Y-84663053D01*
X200437819Y-84703137D01*
X200365473Y-84828444D01*
X200348482Y-84880737D01*
X200306458Y-85010071D01*
X200306457Y-85010074D01*
X200286496Y-85199999D01*
X200286496Y-85200000D01*
X200306457Y-85389925D01*
X200306458Y-85389928D01*
X200365473Y-85571556D01*
X200449679Y-85717405D01*
X200460961Y-85736946D01*
X200588743Y-85878862D01*
X200588747Y-85878866D01*
X200743248Y-85991118D01*
X200779538Y-86007275D01*
X200826156Y-86049251D01*
X200839198Y-86110610D01*
X200813683Y-86167917D01*
X200779538Y-86192724D01*
X200743248Y-86208882D01*
X200743246Y-86208883D01*
X200588744Y-86321136D01*
X200588743Y-86321137D01*
X200460961Y-86463053D01*
X200407576Y-86555519D01*
X200365473Y-86628444D01*
X200365473Y-86628445D01*
X200306458Y-86810071D01*
X200306457Y-86810074D01*
X200286496Y-86999999D01*
X200286496Y-87000000D01*
X200306457Y-87189925D01*
X200306458Y-87189928D01*
X200365473Y-87371556D01*
X200427147Y-87478378D01*
X200460961Y-87536946D01*
X200588743Y-87678862D01*
X200588747Y-87678866D01*
X200743248Y-87791118D01*
X200917712Y-87868794D01*
X201057812Y-87898573D01*
X201104512Y-87908500D01*
X201104513Y-87908500D01*
X201295487Y-87908500D01*
X201482288Y-87868794D01*
X201656752Y-87791118D01*
X201811253Y-87678866D01*
X201939040Y-87536944D01*
X202034527Y-87371556D01*
X202093542Y-87189928D01*
X202113504Y-87000000D01*
X202093542Y-86810072D01*
X202034527Y-86628444D01*
X201939040Y-86463056D01*
X201939039Y-86463055D01*
X201939038Y-86463053D01*
X201811256Y-86321137D01*
X201811255Y-86321136D01*
X201811254Y-86321135D01*
X201811253Y-86321134D01*
X201656752Y-86208882D01*
X201620461Y-86192724D01*
X201573844Y-86150750D01*
X201560801Y-86089391D01*
X201586316Y-86032083D01*
X201620461Y-86007275D01*
X201656752Y-85991118D01*
X201811253Y-85878866D01*
X201939040Y-85736944D01*
X202034527Y-85571556D01*
X202093542Y-85389928D01*
X202113504Y-85200000D01*
X202093542Y-85010072D01*
X202034527Y-84828444D01*
X201939040Y-84663056D01*
X201939039Y-84663055D01*
X201939038Y-84663053D01*
X201811256Y-84521137D01*
X201811255Y-84521136D01*
X201811254Y-84521135D01*
X201811253Y-84521134D01*
X201656752Y-84408882D01*
X201618246Y-84391738D01*
X201571629Y-84349764D01*
X201558587Y-84288404D01*
X201584102Y-84231097D01*
X201599860Y-84216907D01*
X201685253Y-84154866D01*
X201813040Y-84012944D01*
X201908527Y-83847556D01*
X201967542Y-83665928D01*
X201987504Y-83476000D01*
X201987307Y-83474130D01*
X201967542Y-83286074D01*
X201967542Y-83286072D01*
X201908527Y-83104444D01*
X201813040Y-82939056D01*
X201813039Y-82939055D01*
X201813038Y-82939053D01*
X201685256Y-82797137D01*
X201685255Y-82797136D01*
X201685254Y-82797135D01*
X201685253Y-82797134D01*
X201580651Y-82721136D01*
X201530754Y-82684883D01*
X201530752Y-82684882D01*
X201356288Y-82607206D01*
X201356284Y-82607205D01*
X201169487Y-82567500D01*
X200978513Y-82567500D01*
X200791715Y-82607205D01*
X200791713Y-82607205D01*
X200791712Y-82607206D01*
X200704480Y-82646044D01*
X200617245Y-82684883D01*
X200462744Y-82797136D01*
X200462743Y-82797137D01*
X200334961Y-82939053D01*
X200293744Y-83010444D01*
X200239473Y-83104444D01*
X200230456Y-83132195D01*
X200180458Y-83286071D01*
X200180457Y-83286074D01*
X200174944Y-83338534D01*
X200149429Y-83395842D01*
X200095103Y-83427207D01*
X200032716Y-83420650D01*
X199986098Y-83378675D01*
X199973056Y-83338534D01*
X199967542Y-83286074D01*
X199967542Y-83286072D01*
X199908527Y-83104444D01*
X199813040Y-82939056D01*
X199813039Y-82939055D01*
X199813038Y-82939053D01*
X199685256Y-82797137D01*
X199685255Y-82797136D01*
X199685254Y-82797135D01*
X199685253Y-82797134D01*
X199580651Y-82721136D01*
X199530754Y-82684883D01*
X199530752Y-82684882D01*
X199356288Y-82607206D01*
X199356284Y-82607205D01*
X199169487Y-82567500D01*
X198978513Y-82567500D01*
X198791715Y-82607205D01*
X198791713Y-82607205D01*
X198791712Y-82607206D01*
X198704480Y-82646044D01*
X198617245Y-82684883D01*
X198462744Y-82797136D01*
X198462743Y-82797137D01*
X198334961Y-82939053D01*
X198293744Y-83010444D01*
X198239473Y-83104444D01*
X198230456Y-83132195D01*
X198180458Y-83286071D01*
X198180457Y-83286074D01*
X198174944Y-83338534D01*
X198149429Y-83395842D01*
X198095103Y-83427207D01*
X198032716Y-83420650D01*
X197986098Y-83378675D01*
X197973056Y-83338534D01*
X197967542Y-83286074D01*
X197967542Y-83286072D01*
X197908527Y-83104444D01*
X197813040Y-82939056D01*
X197813039Y-82939055D01*
X197813038Y-82939053D01*
X197685256Y-82797137D01*
X197685255Y-82797136D01*
X197685254Y-82797135D01*
X197685253Y-82797134D01*
X197580651Y-82721136D01*
X197530754Y-82684883D01*
X197530752Y-82684882D01*
X197356288Y-82607206D01*
X197356284Y-82607205D01*
X197169487Y-82567500D01*
X196978513Y-82567500D01*
X196791715Y-82607205D01*
X196791713Y-82607205D01*
X196791712Y-82607206D01*
X196704480Y-82646044D01*
X196617245Y-82684883D01*
X196462744Y-82797136D01*
X196462743Y-82797137D01*
X196334961Y-82939053D01*
X196293744Y-83010444D01*
X196239473Y-83104444D01*
X196230456Y-83132195D01*
X196180458Y-83286071D01*
X196180457Y-83286074D01*
X196174944Y-83338534D01*
X196149429Y-83395842D01*
X196095103Y-83427207D01*
X196032716Y-83420650D01*
X195986098Y-83378675D01*
X195973056Y-83338534D01*
X195967542Y-83286074D01*
X195967542Y-83286072D01*
X195908527Y-83104444D01*
X195813040Y-82939056D01*
X195813039Y-82939055D01*
X195813038Y-82939053D01*
X195685256Y-82797137D01*
X195685255Y-82797136D01*
X195685254Y-82797135D01*
X195685253Y-82797134D01*
X195580651Y-82721136D01*
X195530754Y-82684883D01*
X195530752Y-82684882D01*
X195356288Y-82607206D01*
X195356284Y-82607205D01*
X195169487Y-82567500D01*
X194978513Y-82567500D01*
X194791715Y-82607205D01*
X194791713Y-82607205D01*
X194791712Y-82607206D01*
X194704480Y-82646044D01*
X194617245Y-82684883D01*
X194462744Y-82797136D01*
X194462743Y-82797137D01*
X194334961Y-82939053D01*
X194293744Y-83010444D01*
X194239473Y-83104444D01*
X194230456Y-83132195D01*
X194180458Y-83286071D01*
X194180457Y-83286074D01*
X194160496Y-83475999D01*
X194160496Y-83476000D01*
X193905516Y-83476000D01*
X193913504Y-83400000D01*
X193893542Y-83210072D01*
X193834527Y-83028444D01*
X193739040Y-82863056D01*
X193739039Y-82863055D01*
X193739038Y-82863053D01*
X193611256Y-82721137D01*
X193611255Y-82721136D01*
X193611254Y-82721135D01*
X193611253Y-82721134D01*
X193522769Y-82656846D01*
X193456754Y-82608883D01*
X193456752Y-82608882D01*
X193282288Y-82531206D01*
X193282284Y-82531205D01*
X193095487Y-82491500D01*
X192904513Y-82491500D01*
X192717715Y-82531205D01*
X192717713Y-82531205D01*
X192717712Y-82531206D01*
X192636194Y-82567500D01*
X192543245Y-82608883D01*
X192388744Y-82721136D01*
X192388743Y-82721137D01*
X192260961Y-82863053D01*
X192221792Y-82930897D01*
X192165473Y-83028444D01*
X192165473Y-83028445D01*
X192106458Y-83210071D01*
X192106457Y-83210074D01*
X192086496Y-83399999D01*
X192086496Y-83400000D01*
X192106457Y-83589925D01*
X192106458Y-83589928D01*
X192165473Y-83771556D01*
X192209351Y-83847554D01*
X192260961Y-83936946D01*
X192388743Y-84078862D01*
X192388747Y-84078866D01*
X192518473Y-84173118D01*
X192543248Y-84191118D01*
X192557438Y-84197436D01*
X192604055Y-84239411D01*
X192617097Y-84300771D01*
X192591581Y-84358078D01*
X192554996Y-84383934D01*
X192516113Y-84400039D01*
X192296883Y-84534384D01*
X192101369Y-84701369D01*
X191934384Y-84896883D01*
X191800039Y-85116114D01*
X191800037Y-85116117D01*
X191701645Y-85353657D01*
X191701645Y-85353659D01*
X191641622Y-85603673D01*
X191621449Y-85859998D01*
X191621449Y-85860001D01*
X182176210Y-85860001D01*
X182156820Y-81999189D01*
X182175905Y-81939434D01*
X182226469Y-81902308D01*
X182258355Y-81897181D01*
X182323029Y-81897206D01*
X182323349Y-81897207D01*
X182323349Y-81897206D01*
X182323358Y-81897207D01*
X182323367Y-81897206D01*
X182323373Y-81897206D01*
X182667833Y-81868794D01*
X182772814Y-81860135D01*
X183217673Y-81786064D01*
X183217681Y-81786062D01*
X183654883Y-81675504D01*
X183654886Y-81675502D01*
X183654894Y-81675501D01*
X184081487Y-81529202D01*
X184494539Y-81348165D01*
X184891225Y-81133629D01*
X185095872Y-81000000D01*
X192086496Y-81000000D01*
X192106457Y-81189925D01*
X192106458Y-81189928D01*
X192165473Y-81371556D01*
X192204828Y-81439720D01*
X192260961Y-81536946D01*
X192388743Y-81678862D01*
X192388747Y-81678866D01*
X192515491Y-81770951D01*
X192539454Y-81788362D01*
X192543248Y-81791118D01*
X192717712Y-81868794D01*
X192851078Y-81897142D01*
X192904512Y-81908500D01*
X192904513Y-81908500D01*
X193095487Y-81908500D01*
X193282288Y-81868794D01*
X193456752Y-81791118D01*
X193611253Y-81678866D01*
X193739040Y-81536944D01*
X193834527Y-81371556D01*
X193893542Y-81189928D01*
X193913504Y-81000000D01*
X193893542Y-80810072D01*
X193834527Y-80628444D01*
X193739040Y-80463056D01*
X193739039Y-80463055D01*
X193739038Y-80463053D01*
X193611256Y-80321137D01*
X193611255Y-80321136D01*
X193611254Y-80321135D01*
X193611253Y-80321134D01*
X193526757Y-80259743D01*
X193456754Y-80208883D01*
X193456752Y-80208882D01*
X193282288Y-80131206D01*
X193282284Y-80131205D01*
X193132098Y-80099282D01*
X193077772Y-80067917D01*
X193052257Y-80010610D01*
X193065299Y-79949250D01*
X193111917Y-79907275D01*
X193132098Y-79900718D01*
X193282288Y-79868794D01*
X193456752Y-79791118D01*
X193611253Y-79678866D01*
X193739040Y-79536944D01*
X193834527Y-79371556D01*
X193893542Y-79189928D01*
X193913504Y-79000000D01*
X193907234Y-78940345D01*
X199765702Y-78940345D01*
X199775819Y-79178529D01*
X199801163Y-79296123D01*
X199826046Y-79411581D01*
X199908666Y-79617186D01*
X199914938Y-79632794D01*
X200039926Y-79835788D01*
X200039930Y-79835794D01*
X200160712Y-79973028D01*
X200197436Y-80014755D01*
X200382920Y-80164523D01*
X200591046Y-80280790D01*
X200815829Y-80360211D01*
X201050800Y-80400500D01*
X201050802Y-80400500D01*
X201229500Y-80400500D01*
X201355136Y-80389806D01*
X201407541Y-80385346D01*
X201638249Y-80325275D01*
X201855486Y-80227077D01*
X202053003Y-80093579D01*
X202225118Y-79928621D01*
X202366879Y-79736947D01*
X202474207Y-79524074D01*
X202544016Y-79296123D01*
X202574298Y-79059654D01*
X202564180Y-78821468D01*
X202513954Y-78588419D01*
X202425064Y-78367210D01*
X202360929Y-78263048D01*
X202300073Y-78164211D01*
X202300069Y-78164205D01*
X202142564Y-77985245D01*
X201957082Y-77835479D01*
X201957080Y-77835477D01*
X201748954Y-77719210D01*
X201748952Y-77719209D01*
X201748947Y-77719207D01*
X201524177Y-77639791D01*
X201524175Y-77639790D01*
X201524171Y-77639789D01*
X201514701Y-77638165D01*
X201289204Y-77599500D01*
X201289200Y-77599500D01*
X201110503Y-77599500D01*
X201110500Y-77599500D01*
X200932471Y-77614652D01*
X200932460Y-77614653D01*
X200932459Y-77614654D01*
X200733468Y-77666466D01*
X200701747Y-77674726D01*
X200484515Y-77772922D01*
X200286998Y-77906419D01*
X200114880Y-78071381D01*
X199973123Y-78263048D01*
X199973117Y-78263058D01*
X199865796Y-78475917D01*
X199865792Y-78475927D01*
X199795984Y-78703876D01*
X199765702Y-78940342D01*
X199765702Y-78940345D01*
X193907234Y-78940345D01*
X193893542Y-78810072D01*
X193834527Y-78628444D01*
X193739040Y-78463056D01*
X193739039Y-78463055D01*
X193739038Y-78463053D01*
X193611256Y-78321137D01*
X193611255Y-78321136D01*
X193611254Y-78321135D01*
X193611253Y-78321134D01*
X193526757Y-78259743D01*
X193456754Y-78208883D01*
X193456752Y-78208882D01*
X193282288Y-78131206D01*
X193282284Y-78131205D01*
X193132098Y-78099282D01*
X193077772Y-78067917D01*
X193052257Y-78010610D01*
X193065299Y-77949250D01*
X193111917Y-77907275D01*
X193132098Y-77900718D01*
X193282288Y-77868794D01*
X193456752Y-77791118D01*
X193611253Y-77678866D01*
X193739040Y-77536944D01*
X193834527Y-77371556D01*
X193893542Y-77189928D01*
X193913504Y-77000000D01*
X193893542Y-76810072D01*
X193834527Y-76628444D01*
X193739040Y-76463056D01*
X193739039Y-76463055D01*
X193739038Y-76463053D01*
X193611256Y-76321137D01*
X193611255Y-76321136D01*
X193611254Y-76321135D01*
X193611253Y-76321134D01*
X193526757Y-76259743D01*
X193456754Y-76208883D01*
X193456752Y-76208882D01*
X193282288Y-76131206D01*
X193282284Y-76131205D01*
X193132098Y-76099282D01*
X193077772Y-76067917D01*
X193052257Y-76010610D01*
X193065299Y-75949250D01*
X193111917Y-75907275D01*
X193132098Y-75900718D01*
X193282288Y-75868794D01*
X193456752Y-75791118D01*
X193611253Y-75678866D01*
X193739040Y-75536944D01*
X193834527Y-75371556D01*
X193893542Y-75189928D01*
X193911022Y-75023611D01*
X193936537Y-74966305D01*
X193990863Y-74934939D01*
X194053249Y-74941496D01*
X194087395Y-74966304D01*
X194138996Y-75023612D01*
X194188747Y-75078866D01*
X194343248Y-75191118D01*
X194517712Y-75268794D01*
X194657812Y-75298573D01*
X194704512Y-75308500D01*
X194704513Y-75308500D01*
X194895487Y-75308500D01*
X195082288Y-75268794D01*
X195256752Y-75191118D01*
X195411253Y-75078866D01*
X195539040Y-74936944D01*
X195634527Y-74771556D01*
X195693542Y-74589928D01*
X195713504Y-74400000D01*
X195713151Y-74396646D01*
X195705215Y-74321134D01*
X195693542Y-74210072D01*
X195634527Y-74028444D01*
X195539040Y-73863056D01*
X195539039Y-73863055D01*
X195539038Y-73863053D01*
X195411256Y-73721137D01*
X195411255Y-73721136D01*
X195411254Y-73721135D01*
X195411253Y-73721134D01*
X195318254Y-73653566D01*
X195256754Y-73608883D01*
X195219299Y-73592207D01*
X195082288Y-73531206D01*
X195082284Y-73531205D01*
X194932098Y-73499282D01*
X194877772Y-73467917D01*
X194852257Y-73410610D01*
X194865299Y-73349250D01*
X194911917Y-73307275D01*
X194932098Y-73300718D01*
X195082288Y-73268794D01*
X195256752Y-73191118D01*
X195411253Y-73078866D01*
X195539040Y-72936944D01*
X195634527Y-72771556D01*
X195650503Y-72722384D01*
X195687375Y-72671637D01*
X195747035Y-72652252D01*
X195806696Y-72671637D01*
X195843567Y-72722387D01*
X195848535Y-72753752D01*
X195848535Y-73507923D01*
X195844662Y-73535694D01*
X195844634Y-73535791D01*
X195844634Y-73535793D01*
X195845960Y-73550108D01*
X195848102Y-73573217D01*
X195848535Y-73582583D01*
X195848535Y-73591839D01*
X195848536Y-73591852D01*
X195850237Y-73600958D01*
X195851530Y-73610226D01*
X195855000Y-73647659D01*
X195855000Y-73647662D01*
X195855047Y-73647755D01*
X195863953Y-73674325D01*
X195863972Y-73674426D01*
X195863974Y-73674434D01*
X195883761Y-73706391D01*
X195888322Y-73714580D01*
X195905076Y-73748227D01*
X195905143Y-73748288D01*
X195923064Y-73769868D01*
X195923116Y-73769952D01*
X195923117Y-73769953D01*
X195953105Y-73792598D01*
X195960311Y-73798581D01*
X195988102Y-73823916D01*
X195988106Y-73823917D01*
X195988107Y-73823918D01*
X195988193Y-73823952D01*
X196012691Y-73837596D01*
X196012768Y-73837654D01*
X196012771Y-73837656D01*
X196048920Y-73847941D01*
X196057797Y-73850915D01*
X196092862Y-73864500D01*
X196092959Y-73864500D01*
X196120733Y-73868374D01*
X196120828Y-73868401D01*
X196158255Y-73864932D01*
X196167619Y-73864500D01*
X206252959Y-73864500D01*
X206280733Y-73868374D01*
X206280828Y-73868401D01*
X206318255Y-73864932D01*
X206327619Y-73864500D01*
X206336880Y-73864500D01*
X206338794Y-73864141D01*
X206345982Y-73862797D01*
X206355250Y-73861504D01*
X206392695Y-73858035D01*
X206392780Y-73857992D01*
X206419377Y-73849078D01*
X206419468Y-73849061D01*
X206451436Y-73829266D01*
X206459585Y-73824726D01*
X206493263Y-73807958D01*
X206493265Y-73807955D01*
X206495576Y-73806805D01*
X206557623Y-73797567D01*
X206613250Y-73826563D01*
X206641209Y-73882718D01*
X206641760Y-73887056D01*
X206658457Y-74045926D01*
X206658458Y-74045928D01*
X206717473Y-74227556D01*
X206801679Y-74373405D01*
X206812961Y-74392946D01*
X206877893Y-74465060D01*
X206940747Y-74534866D01*
X207095248Y-74647118D01*
X207269712Y-74724794D01*
X207409812Y-74754573D01*
X207456512Y-74764500D01*
X207456513Y-74764500D01*
X207647487Y-74764500D01*
X207834288Y-74724794D01*
X208008752Y-74647118D01*
X208163253Y-74534866D01*
X208291040Y-74392944D01*
X208386527Y-74227556D01*
X208445542Y-74045928D01*
X208465504Y-73856000D01*
X208464774Y-73849059D01*
X208455186Y-73757831D01*
X208445542Y-73666072D01*
X208386527Y-73484444D01*
X208291040Y-73319056D01*
X208291039Y-73319055D01*
X208291038Y-73319053D01*
X208163256Y-73177137D01*
X208163255Y-73177136D01*
X208163254Y-73177135D01*
X208163253Y-73177134D01*
X208078757Y-73115743D01*
X208008754Y-73064883D01*
X208008752Y-73064882D01*
X207834288Y-72987206D01*
X207834284Y-72987205D01*
X207684098Y-72955282D01*
X207629772Y-72923917D01*
X207604257Y-72866610D01*
X207617299Y-72805250D01*
X207663917Y-72763275D01*
X207684098Y-72756718D01*
X207698052Y-72753752D01*
X207834288Y-72724794D01*
X208008752Y-72647118D01*
X208163253Y-72534866D01*
X208291040Y-72392944D01*
X208386527Y-72227556D01*
X208445542Y-72045928D01*
X208465504Y-71856000D01*
X208445542Y-71666072D01*
X208386527Y-71484444D01*
X208291040Y-71319056D01*
X208291039Y-71319055D01*
X208291038Y-71319053D01*
X208163256Y-71177137D01*
X208163255Y-71177136D01*
X208163254Y-71177135D01*
X208163253Y-71177134D01*
X208066966Y-71107177D01*
X208008754Y-71064883D01*
X207980283Y-71052207D01*
X207834288Y-70987206D01*
X207834284Y-70987205D01*
X207684098Y-70955282D01*
X207629772Y-70923917D01*
X207604257Y-70866610D01*
X207617299Y-70805250D01*
X207663917Y-70763275D01*
X207684098Y-70756718D01*
X207834288Y-70724794D01*
X208008752Y-70647118D01*
X208163253Y-70534866D01*
X208291040Y-70392944D01*
X208386527Y-70227556D01*
X208445542Y-70045928D01*
X208465504Y-69856000D01*
X208445542Y-69666072D01*
X208386527Y-69484444D01*
X208291040Y-69319056D01*
X208291039Y-69319055D01*
X208291038Y-69319053D01*
X208163256Y-69177137D01*
X208163255Y-69177136D01*
X208163254Y-69177135D01*
X208163253Y-69177134D01*
X208040621Y-69088036D01*
X208008754Y-69064883D01*
X208008752Y-69064882D01*
X207834288Y-68987206D01*
X207834284Y-68987205D01*
X207684098Y-68955282D01*
X207629772Y-68923917D01*
X207604257Y-68866610D01*
X207617299Y-68805250D01*
X207663917Y-68763275D01*
X207684098Y-68756718D01*
X207834288Y-68724794D01*
X208008752Y-68647118D01*
X208163253Y-68534866D01*
X208291040Y-68392944D01*
X208386527Y-68227556D01*
X208445542Y-68045928D01*
X208465504Y-67856000D01*
X208445542Y-67666072D01*
X208386527Y-67484444D01*
X208291040Y-67319056D01*
X208291039Y-67319055D01*
X208291038Y-67319053D01*
X208163256Y-67177137D01*
X208163255Y-67177136D01*
X208163254Y-67177135D01*
X208163253Y-67177134D01*
X208040621Y-67088036D01*
X208008754Y-67064883D01*
X208008752Y-67064882D01*
X207834288Y-66987206D01*
X207834284Y-66987205D01*
X207684098Y-66955282D01*
X207629772Y-66923917D01*
X207604257Y-66866610D01*
X207617299Y-66805250D01*
X207663917Y-66763275D01*
X207684098Y-66756718D01*
X207834288Y-66724794D01*
X208008752Y-66647118D01*
X208163253Y-66534866D01*
X208291040Y-66392944D01*
X208386527Y-66227556D01*
X208445542Y-66045928D01*
X208465504Y-65856000D01*
X208445542Y-65666072D01*
X208386527Y-65484444D01*
X208291040Y-65319056D01*
X208291039Y-65319055D01*
X208291038Y-65319053D01*
X208163256Y-65177137D01*
X208163255Y-65177136D01*
X208163254Y-65177135D01*
X208163253Y-65177134D01*
X208078757Y-65115743D01*
X208008754Y-65064883D01*
X208008752Y-65064882D01*
X207834288Y-64987206D01*
X207834284Y-64987205D01*
X207684098Y-64955282D01*
X207629772Y-64923917D01*
X207604257Y-64866610D01*
X207617299Y-64805250D01*
X207663917Y-64763275D01*
X207684098Y-64756718D01*
X207834288Y-64724794D01*
X208008752Y-64647118D01*
X208163253Y-64534866D01*
X208291040Y-64392944D01*
X208386527Y-64227556D01*
X208445542Y-64045928D01*
X208465504Y-63856000D01*
X208445542Y-63666072D01*
X208386527Y-63484444D01*
X208291040Y-63319056D01*
X208291039Y-63319055D01*
X208291038Y-63319053D01*
X208163256Y-63177137D01*
X208163255Y-63177136D01*
X208163254Y-63177135D01*
X208163253Y-63177134D01*
X208078757Y-63115743D01*
X208008754Y-63064883D01*
X208008752Y-63064882D01*
X207834288Y-62987206D01*
X207834284Y-62987205D01*
X207647487Y-62947500D01*
X207456513Y-62947500D01*
X207269715Y-62987205D01*
X207269713Y-62987205D01*
X207269712Y-62987206D01*
X207182480Y-63026044D01*
X207095245Y-63064883D01*
X206940744Y-63177136D01*
X206940743Y-63177137D01*
X206812961Y-63319053D01*
X206766227Y-63399999D01*
X206717473Y-63484444D01*
X206717473Y-63484445D01*
X206658458Y-63666071D01*
X206658457Y-63666074D01*
X206638496Y-63855999D01*
X206638496Y-63856000D01*
X206658457Y-64045925D01*
X206658458Y-64045928D01*
X206717473Y-64227556D01*
X206791703Y-64356126D01*
X206812961Y-64392946D01*
X206937817Y-64531612D01*
X206940747Y-64534866D01*
X207095248Y-64647118D01*
X207269712Y-64724794D01*
X207389133Y-64750177D01*
X207419901Y-64756718D01*
X207474227Y-64788083D01*
X207499742Y-64845391D01*
X207486699Y-64906750D01*
X207440082Y-64948725D01*
X207419901Y-64955282D01*
X207269715Y-64987205D01*
X207269713Y-64987205D01*
X207269712Y-64987206D01*
X207182480Y-65026044D01*
X207095245Y-65064883D01*
X206940744Y-65177136D01*
X206940743Y-65177137D01*
X206812961Y-65319053D01*
X206812959Y-65319056D01*
X206793901Y-65352066D01*
X206747283Y-65394040D01*
X206684896Y-65400597D01*
X206630570Y-65369231D01*
X206605056Y-65311924D01*
X206604500Y-65301315D01*
X206604500Y-64730075D01*
X206608376Y-64702295D01*
X206608376Y-64702291D01*
X206608401Y-64702207D01*
X206607074Y-64687891D01*
X206604933Y-64664780D01*
X206604500Y-64655415D01*
X206604500Y-64646157D01*
X206604432Y-64645793D01*
X206602796Y-64637046D01*
X206601503Y-64627770D01*
X206598035Y-64590340D01*
X206597990Y-64590250D01*
X206589079Y-64563664D01*
X206589061Y-64563567D01*
X206569273Y-64531609D01*
X206564713Y-64523421D01*
X206547958Y-64489773D01*
X206547958Y-64489772D01*
X206547885Y-64489706D01*
X206529967Y-64468126D01*
X206529918Y-64468047D01*
X206499927Y-64445399D01*
X206492713Y-64439409D01*
X206464934Y-64414085D01*
X206464932Y-64414083D01*
X206464859Y-64414055D01*
X206464835Y-64414046D01*
X206440338Y-64400400D01*
X206440265Y-64400345D01*
X206440264Y-64400344D01*
X206440263Y-64400343D01*
X206440262Y-64400343D01*
X206404116Y-64390059D01*
X206395235Y-64387083D01*
X206360173Y-64373500D01*
X206360076Y-64373500D01*
X206332302Y-64369626D01*
X206332208Y-64369599D01*
X206332205Y-64369599D01*
X206308290Y-64371815D01*
X206294779Y-64373067D01*
X206285416Y-64373500D01*
X196200076Y-64373500D01*
X196172302Y-64369626D01*
X196172208Y-64369599D01*
X196172205Y-64369599D01*
X196148290Y-64371815D01*
X196134779Y-64373067D01*
X196125416Y-64373500D01*
X196116150Y-64373500D01*
X196107043Y-64375202D01*
X196097773Y-64376495D01*
X196060338Y-64379965D01*
X196060334Y-64379966D01*
X196060235Y-64380016D01*
X196033675Y-64388918D01*
X196033569Y-64388937D01*
X196033567Y-64388938D01*
X196001610Y-64408724D01*
X195993426Y-64413282D01*
X195959771Y-64430041D01*
X195959768Y-64430043D01*
X195959692Y-64430128D01*
X195938146Y-64448019D01*
X195938054Y-64448075D01*
X195938046Y-64448083D01*
X195915399Y-64478072D01*
X195909413Y-64485280D01*
X195884084Y-64513065D01*
X195884082Y-64513068D01*
X195884042Y-64513174D01*
X195870409Y-64537648D01*
X195870346Y-64537730D01*
X195870342Y-64537739D01*
X195868016Y-64545914D01*
X195833042Y-64597990D01*
X195774138Y-64619564D01*
X195713803Y-64602394D01*
X195675083Y-64553040D01*
X195673860Y-64549499D01*
X195634527Y-64428444D01*
X195539040Y-64263056D01*
X195539039Y-64263055D01*
X195539038Y-64263053D01*
X195453377Y-64167918D01*
X195453375Y-64167915D01*
X195427861Y-64110610D01*
X195440903Y-64049251D01*
X195453373Y-64032086D01*
X195539040Y-63936944D01*
X195634527Y-63771556D01*
X195693542Y-63589928D01*
X195713504Y-63400000D01*
X195693542Y-63210072D01*
X195634527Y-63028444D01*
X195539040Y-62863056D01*
X195539039Y-62863055D01*
X195539038Y-62863053D01*
X195411256Y-62721137D01*
X195411255Y-62721136D01*
X195411254Y-62721135D01*
X195411253Y-62721134D01*
X195326757Y-62659743D01*
X195256754Y-62608883D01*
X195256752Y-62608882D01*
X195082288Y-62531206D01*
X195082284Y-62531205D01*
X194895487Y-62491500D01*
X194704513Y-62491500D01*
X194517715Y-62531205D01*
X194517713Y-62531205D01*
X194517712Y-62531206D01*
X194430480Y-62570044D01*
X194343245Y-62608883D01*
X194188744Y-62721136D01*
X194188743Y-62721137D01*
X194075429Y-62846985D01*
X194021103Y-62878350D01*
X193958716Y-62871793D01*
X193924571Y-62846985D01*
X193811256Y-62721137D01*
X193811255Y-62721136D01*
X193811254Y-62721135D01*
X193811253Y-62721134D01*
X193726757Y-62659743D01*
X193656754Y-62608883D01*
X193656752Y-62608882D01*
X193482288Y-62531206D01*
X193482284Y-62531205D01*
X193295487Y-62491500D01*
X193104513Y-62491500D01*
X192917715Y-62531205D01*
X192917713Y-62531205D01*
X192917712Y-62531206D01*
X192830480Y-62570044D01*
X192743245Y-62608883D01*
X192588744Y-62721136D01*
X192588743Y-62721137D01*
X192460961Y-62863053D01*
X192412206Y-62947500D01*
X192365473Y-63028444D01*
X192353633Y-63064883D01*
X192306458Y-63210071D01*
X192306457Y-63210074D01*
X192286496Y-63399999D01*
X192286496Y-63400000D01*
X192306457Y-63589925D01*
X192306458Y-63589928D01*
X192365473Y-63771556D01*
X192449679Y-63917405D01*
X192460961Y-63936946D01*
X192546623Y-64032083D01*
X192572138Y-64089390D01*
X192559096Y-64150750D01*
X192546623Y-64167917D01*
X192460961Y-64263053D01*
X192407576Y-64355519D01*
X192365473Y-64428444D01*
X192349348Y-64478072D01*
X192306458Y-64610071D01*
X192306457Y-64610074D01*
X192286496Y-64799999D01*
X192286496Y-64800000D01*
X192306457Y-64989925D01*
X192306458Y-64989928D01*
X192365473Y-65171556D01*
X192396618Y-65225500D01*
X192460961Y-65336946D01*
X192475429Y-65353014D01*
X192588747Y-65478866D01*
X192743248Y-65591118D01*
X192917712Y-65668794D01*
X193037133Y-65694177D01*
X193067901Y-65700718D01*
X193122227Y-65732083D01*
X193147742Y-65789391D01*
X193134699Y-65850750D01*
X193088082Y-65892725D01*
X193067901Y-65899282D01*
X192917715Y-65931205D01*
X192917713Y-65931205D01*
X192917712Y-65931206D01*
X192830480Y-65970044D01*
X192743245Y-66008883D01*
X192588744Y-66121136D01*
X192588743Y-66121137D01*
X192460961Y-66263053D01*
X192410172Y-66351024D01*
X192365473Y-66428444D01*
X192365473Y-66428445D01*
X192306458Y-66610071D01*
X192306457Y-66610074D01*
X192286496Y-66799999D01*
X192286496Y-66800000D01*
X192306457Y-66989925D01*
X192306458Y-66989928D01*
X192365473Y-67171556D01*
X192440045Y-67300718D01*
X192460961Y-67336946D01*
X192563431Y-67450750D01*
X192588747Y-67478866D01*
X192743248Y-67591118D01*
X192917712Y-67668794D01*
X193037133Y-67694177D01*
X193067901Y-67700718D01*
X193122227Y-67732083D01*
X193147742Y-67789391D01*
X193134699Y-67850750D01*
X193088082Y-67892725D01*
X193067901Y-67899282D01*
X192917715Y-67931205D01*
X192917713Y-67931205D01*
X192917712Y-67931206D01*
X192830480Y-67970044D01*
X192743245Y-68008883D01*
X192588744Y-68121136D01*
X192588743Y-68121137D01*
X192460961Y-68263053D01*
X192410172Y-68351024D01*
X192365473Y-68428444D01*
X192338257Y-68512205D01*
X192306458Y-68610071D01*
X192306457Y-68610074D01*
X192286496Y-68799999D01*
X192286496Y-68800000D01*
X192306457Y-68989925D01*
X192306458Y-68989928D01*
X192365473Y-69171556D01*
X192440045Y-69300718D01*
X192460961Y-69336946D01*
X192563431Y-69450750D01*
X192588747Y-69478866D01*
X192743248Y-69591118D01*
X192917712Y-69668794D01*
X193037133Y-69694177D01*
X193067901Y-69700718D01*
X193122227Y-69732083D01*
X193147742Y-69789391D01*
X193134699Y-69850750D01*
X193088082Y-69892725D01*
X193067901Y-69899282D01*
X192917715Y-69931205D01*
X192917713Y-69931205D01*
X192917712Y-69931206D01*
X192830480Y-69970044D01*
X192743245Y-70008883D01*
X192588744Y-70121136D01*
X192588743Y-70121137D01*
X192460961Y-70263053D01*
X192407576Y-70355519D01*
X192365473Y-70428444D01*
X192365473Y-70428445D01*
X192306458Y-70610071D01*
X192306457Y-70610074D01*
X192286496Y-70799999D01*
X192286496Y-70800000D01*
X192306457Y-70989925D01*
X192306458Y-70989928D01*
X192365473Y-71171556D01*
X192440045Y-71300718D01*
X192460961Y-71336946D01*
X192563431Y-71450750D01*
X192588747Y-71478866D01*
X192743248Y-71591118D01*
X192917712Y-71668794D01*
X193057812Y-71698573D01*
X193104512Y-71708500D01*
X193104513Y-71708500D01*
X193295487Y-71708500D01*
X193482288Y-71668794D01*
X193656752Y-71591118D01*
X193811253Y-71478866D01*
X193939040Y-71336944D01*
X194034527Y-71171556D01*
X194045176Y-71138781D01*
X194082044Y-71088036D01*
X194141704Y-71068650D01*
X194201365Y-71088034D01*
X194201366Y-71088035D01*
X194343243Y-71191115D01*
X194343245Y-71191116D01*
X194343248Y-71191118D01*
X194517712Y-71268794D01*
X194629682Y-71292594D01*
X194667901Y-71300718D01*
X194722227Y-71332083D01*
X194747742Y-71389391D01*
X194734699Y-71450750D01*
X194688082Y-71492725D01*
X194667901Y-71499282D01*
X194517715Y-71531205D01*
X194517713Y-71531205D01*
X194517712Y-71531206D01*
X194430480Y-71570044D01*
X194343245Y-71608883D01*
X194188744Y-71721136D01*
X194188743Y-71721137D01*
X194060961Y-71863053D01*
X194045943Y-71889066D01*
X193965473Y-72028444D01*
X193958180Y-72050890D01*
X193906458Y-72210071D01*
X193906457Y-72210074D01*
X193888977Y-72376388D01*
X193863462Y-72433695D01*
X193809136Y-72465060D01*
X193746749Y-72458503D01*
X193712604Y-72433695D01*
X193611256Y-72321137D01*
X193611255Y-72321136D01*
X193611254Y-72321135D01*
X193611253Y-72321134D01*
X193508095Y-72246185D01*
X193456754Y-72208883D01*
X193456752Y-72208882D01*
X193282288Y-72131206D01*
X193282284Y-72131205D01*
X193095487Y-72091500D01*
X192904513Y-72091500D01*
X192717715Y-72131205D01*
X192717713Y-72131205D01*
X192717712Y-72131206D01*
X192630480Y-72170044D01*
X192543245Y-72208883D01*
X192388744Y-72321136D01*
X192388743Y-72321137D01*
X192260961Y-72463053D01*
X192219503Y-72534862D01*
X192165473Y-72628444D01*
X192157737Y-72652252D01*
X192106458Y-72810071D01*
X192106457Y-72810074D01*
X192086496Y-72999999D01*
X192086496Y-73000000D01*
X192106457Y-73189925D01*
X192106458Y-73189928D01*
X192165473Y-73371556D01*
X192230649Y-73484444D01*
X192260961Y-73536946D01*
X192384756Y-73674434D01*
X192388747Y-73678866D01*
X192446928Y-73721137D01*
X192541597Y-73789919D01*
X192543248Y-73791118D01*
X192717712Y-73868794D01*
X192837133Y-73894177D01*
X192867901Y-73900718D01*
X192922227Y-73932083D01*
X192947742Y-73989391D01*
X192934699Y-74050750D01*
X192888082Y-74092725D01*
X192867901Y-74099282D01*
X192717715Y-74131205D01*
X192717713Y-74131205D01*
X192717712Y-74131206D01*
X192630480Y-74170044D01*
X192543245Y-74208883D01*
X192388744Y-74321136D01*
X192388743Y-74321137D01*
X192260961Y-74463053D01*
X192219503Y-74534862D01*
X192165473Y-74628444D01*
X192135965Y-74719258D01*
X192106458Y-74810071D01*
X192106457Y-74810074D01*
X192086496Y-74999999D01*
X192086496Y-75000000D01*
X192106457Y-75189925D01*
X192106458Y-75189928D01*
X192165473Y-75371556D01*
X192249679Y-75517405D01*
X192260961Y-75536946D01*
X192321609Y-75604302D01*
X192388747Y-75678866D01*
X192543248Y-75791118D01*
X192717712Y-75868794D01*
X192837133Y-75894177D01*
X192867901Y-75900718D01*
X192922227Y-75932083D01*
X192947742Y-75989391D01*
X192934699Y-76050750D01*
X192888082Y-76092725D01*
X192867901Y-76099282D01*
X192717715Y-76131205D01*
X192717713Y-76131205D01*
X192717712Y-76131206D01*
X192630480Y-76170044D01*
X192543245Y-76208883D01*
X192388744Y-76321136D01*
X192388743Y-76321137D01*
X192260961Y-76463053D01*
X192207576Y-76555519D01*
X192165473Y-76628444D01*
X192165473Y-76628445D01*
X192106458Y-76810071D01*
X192106457Y-76810074D01*
X192086496Y-76999999D01*
X192086496Y-77000000D01*
X192106457Y-77189925D01*
X192106458Y-77189928D01*
X192165473Y-77371556D01*
X192249679Y-77517405D01*
X192260961Y-77536946D01*
X192385018Y-77674725D01*
X192388747Y-77678866D01*
X192543248Y-77791118D01*
X192717712Y-77868794D01*
X192837133Y-77894177D01*
X192867901Y-77900718D01*
X192922227Y-77932083D01*
X192947742Y-77989391D01*
X192934699Y-78050750D01*
X192888082Y-78092725D01*
X192867901Y-78099282D01*
X192717715Y-78131205D01*
X192717713Y-78131205D01*
X192717712Y-78131206D01*
X192643595Y-78164205D01*
X192543245Y-78208883D01*
X192388744Y-78321136D01*
X192388743Y-78321137D01*
X192260961Y-78463053D01*
X192207576Y-78555519D01*
X192165473Y-78628444D01*
X192140963Y-78703877D01*
X192106458Y-78810071D01*
X192106457Y-78810074D01*
X192086496Y-78999999D01*
X192086496Y-79000000D01*
X192106457Y-79189925D01*
X192106458Y-79189928D01*
X192165473Y-79371556D01*
X192249679Y-79517405D01*
X192260961Y-79536946D01*
X192388743Y-79678862D01*
X192388747Y-79678866D01*
X192543248Y-79791118D01*
X192717712Y-79868794D01*
X192837133Y-79894177D01*
X192867901Y-79900718D01*
X192922227Y-79932083D01*
X192947742Y-79989391D01*
X192934699Y-80050750D01*
X192888082Y-80092725D01*
X192867901Y-80099282D01*
X192717715Y-80131205D01*
X192717713Y-80131205D01*
X192717712Y-80131206D01*
X192630480Y-80170044D01*
X192543245Y-80208883D01*
X192388744Y-80321136D01*
X192388743Y-80321137D01*
X192260961Y-80463053D01*
X192207576Y-80555519D01*
X192165473Y-80628444D01*
X192165473Y-80628445D01*
X192106458Y-80810071D01*
X192106457Y-80810074D01*
X192086496Y-80999999D01*
X192086496Y-81000000D01*
X185095872Y-81000000D01*
X185268835Y-80887060D01*
X185367794Y-80810074D01*
X185624772Y-80610156D01*
X185624776Y-80610151D01*
X185624788Y-80610143D01*
X185896404Y-80360208D01*
X185956646Y-80304775D01*
X185956651Y-80304770D01*
X186262157Y-79973028D01*
X186539216Y-79617186D01*
X186785936Y-79239674D01*
X187000630Y-78843073D01*
X187181831Y-78430094D01*
X187328301Y-78003559D01*
X187439038Y-77566383D01*
X187513286Y-77121554D01*
X187550538Y-76672112D01*
X187550538Y-76221128D01*
X187514897Y-75791118D01*
X187513287Y-75771696D01*
X187513286Y-75771693D01*
X187513286Y-75771686D01*
X187439038Y-75326857D01*
X187328301Y-74889681D01*
X187181831Y-74463146D01*
X187000630Y-74050167D01*
X187000624Y-74050155D01*
X187000622Y-74050151D01*
X186824569Y-73724933D01*
X186785936Y-73653566D01*
X186539216Y-73276054D01*
X186374797Y-73064882D01*
X186262165Y-72920222D01*
X186262151Y-72920205D01*
X185956646Y-72588464D01*
X185624791Y-72283100D01*
X185624772Y-72283083D01*
X185268840Y-72006183D01*
X185268836Y-72006180D01*
X184891237Y-71759618D01*
X184891229Y-71759613D01*
X184891225Y-71759611D01*
X184494539Y-71545075D01*
X184139332Y-71389391D01*
X184081485Y-71364037D01*
X183654902Y-71217741D01*
X183654883Y-71217735D01*
X183217681Y-71107177D01*
X182969878Y-71065917D01*
X182772814Y-71033105D01*
X182772810Y-71033104D01*
X182772800Y-71033103D01*
X182323373Y-70996033D01*
X182323348Y-70996032D01*
X182202592Y-70996079D01*
X182142924Y-70976717D01*
X182106033Y-70925981D01*
X182101054Y-70895093D01*
X182069064Y-64525000D01*
X185669355Y-64525000D01*
X185689859Y-64693868D01*
X185689860Y-64693873D01*
X185747322Y-64845391D01*
X185750182Y-64852930D01*
X185846817Y-64992929D01*
X185974148Y-65105734D01*
X186095161Y-65169247D01*
X186110193Y-65177137D01*
X186124775Y-65184790D01*
X186289944Y-65225500D01*
X186289945Y-65225500D01*
X186460055Y-65225500D01*
X186460056Y-65225500D01*
X186625225Y-65184790D01*
X186775852Y-65105734D01*
X186903183Y-64992929D01*
X186999818Y-64852930D01*
X187060140Y-64693872D01*
X187080645Y-64525000D01*
X187060140Y-64356128D01*
X186999818Y-64197070D01*
X186903183Y-64057071D01*
X186775852Y-63944266D01*
X186745253Y-63928206D01*
X186625230Y-63865212D01*
X186625225Y-63865210D01*
X186487880Y-63831358D01*
X186460056Y-63824500D01*
X186289944Y-63824500D01*
X186262120Y-63831358D01*
X186124774Y-63865210D01*
X186124769Y-63865212D01*
X185974153Y-63944263D01*
X185974150Y-63944264D01*
X185974148Y-63944266D01*
X185846817Y-64057071D01*
X185778171Y-64156522D01*
X185750180Y-64197073D01*
X185689860Y-64356126D01*
X185689859Y-64356131D01*
X185669355Y-64525000D01*
X182069064Y-64525000D01*
X182067013Y-64116531D01*
X182067012Y-64116531D01*
X182067012Y-64116530D01*
X179450167Y-64156513D01*
X179447857Y-64156522D01*
X175949022Y-64130370D01*
X168411540Y-64074030D01*
X156999012Y-64066530D01*
X134464157Y-64066530D01*
X134464372Y-56075000D01*
X176444355Y-56075000D01*
X176464859Y-56243868D01*
X176464860Y-56243873D01*
X176479851Y-56283402D01*
X176525182Y-56402930D01*
X176621817Y-56542929D01*
X176749148Y-56655734D01*
X176870733Y-56719547D01*
X176887003Y-56728087D01*
X176899775Y-56734790D01*
X177064944Y-56775500D01*
X177064945Y-56775500D01*
X177235055Y-56775500D01*
X177235056Y-56775500D01*
X177400225Y-56734790D01*
X177550852Y-56655734D01*
X177678183Y-56542929D01*
X177774818Y-56402930D01*
X177835140Y-56243872D01*
X177855645Y-56075000D01*
X177835140Y-55906128D01*
X177774818Y-55747070D01*
X177678183Y-55607071D01*
X177557327Y-55500002D01*
X186994451Y-55500002D01*
X187014616Y-55769095D01*
X187014618Y-55769110D01*
X187074665Y-56032191D01*
X187074666Y-56032195D01*
X187091466Y-56075000D01*
X187173256Y-56283396D01*
X187173259Y-56283402D01*
X187308184Y-56517101D01*
X187308187Y-56517106D01*
X187476440Y-56728087D01*
X187674260Y-56911636D01*
X187674262Y-56911638D01*
X187897221Y-57063648D01*
X187897224Y-57063650D01*
X188140352Y-57180735D01*
X188140354Y-57180735D01*
X188140359Y-57180738D01*
X188398228Y-57260280D01*
X188665071Y-57300500D01*
X188665077Y-57300500D01*
X188934923Y-57300500D01*
X188934929Y-57300500D01*
X189201772Y-57260280D01*
X189459641Y-57180738D01*
X189702775Y-57063651D01*
X189925741Y-56911635D01*
X190123561Y-56728085D01*
X190291815Y-56517102D01*
X190426743Y-56283398D01*
X190525334Y-56032195D01*
X190585383Y-55769103D01*
X190605549Y-55500000D01*
X190605119Y-55494267D01*
X190596144Y-55374500D01*
X190585383Y-55230897D01*
X190525334Y-54967805D01*
X190426743Y-54716602D01*
X190291815Y-54482898D01*
X190291812Y-54482893D01*
X190123559Y-54271912D01*
X189925745Y-54088368D01*
X189925738Y-54088362D01*
X189702773Y-53936347D01*
X189459649Y-53819265D01*
X189459643Y-53819263D01*
X189459641Y-53819262D01*
X189201772Y-53739720D01*
X189201769Y-53739719D01*
X189201763Y-53739718D01*
X188934933Y-53699500D01*
X188934929Y-53699500D01*
X188665071Y-53699500D01*
X188665066Y-53699500D01*
X188398236Y-53739718D01*
X188398228Y-53739720D01*
X188140352Y-53819264D01*
X187897224Y-53936349D01*
X187897221Y-53936351D01*
X187674262Y-54088361D01*
X187674260Y-54088363D01*
X187476440Y-54271912D01*
X187308187Y-54482893D01*
X187308184Y-54482898D01*
X187173259Y-54716597D01*
X187173256Y-54716603D01*
X187136684Y-54809787D01*
X187074666Y-54967805D01*
X187074665Y-54967808D01*
X187074664Y-54967808D01*
X187014618Y-55230889D01*
X187014616Y-55230904D01*
X186994451Y-55499997D01*
X186994451Y-55500002D01*
X177557327Y-55500002D01*
X177550852Y-55494266D01*
X177521810Y-55479023D01*
X177400230Y-55415212D01*
X177400225Y-55415210D01*
X177235056Y-55374500D01*
X177064944Y-55374500D01*
X176982359Y-55394855D01*
X176899774Y-55415210D01*
X176899769Y-55415212D01*
X176749153Y-55494263D01*
X176749150Y-55494264D01*
X176749148Y-55494266D01*
X176749147Y-55494267D01*
X176621817Y-55607071D01*
X176525180Y-55747073D01*
X176464860Y-55906126D01*
X176464859Y-55906131D01*
X176444355Y-56075000D01*
X134464372Y-56075000D01*
X134464424Y-54150000D01*
X172369355Y-54150000D01*
X172389859Y-54318868D01*
X172389860Y-54318872D01*
X172450182Y-54477930D01*
X172546817Y-54617929D01*
X172674148Y-54730734D01*
X172824775Y-54809790D01*
X172989944Y-54850500D01*
X172989945Y-54850500D01*
X173160055Y-54850500D01*
X173160056Y-54850500D01*
X173325225Y-54809790D01*
X173475852Y-54730734D01*
X173603183Y-54617929D01*
X173699818Y-54477930D01*
X173760140Y-54318872D01*
X173780645Y-54150000D01*
X173760140Y-53981128D01*
X173699818Y-53822070D01*
X173603183Y-53682071D01*
X173475852Y-53569266D01*
X173446810Y-53554023D01*
X173325230Y-53490212D01*
X173325225Y-53490210D01*
X173160056Y-53449500D01*
X172989944Y-53449500D01*
X172907359Y-53469855D01*
X172824774Y-53490210D01*
X172824769Y-53490212D01*
X172674153Y-53569263D01*
X172674150Y-53569264D01*
X172674148Y-53569266D01*
X172546817Y-53682071D01*
X172507025Y-53739720D01*
X172450180Y-53822073D01*
X172389860Y-53981126D01*
X172389859Y-53981131D01*
X172369355Y-54150000D01*
X134464424Y-54150000D01*
X134464489Y-51724396D01*
X134483875Y-51664738D01*
X134534626Y-51627867D01*
X134565989Y-51622900D01*
X145381924Y-51622900D01*
X145409698Y-51626774D01*
X145409793Y-51626801D01*
X145447220Y-51623332D01*
X145456584Y-51622900D01*
X145465845Y-51622900D01*
X145467759Y-51622541D01*
X145474947Y-51621197D01*
X145484215Y-51619904D01*
X145521660Y-51616435D01*
X145521745Y-51616392D01*
X145548342Y-51607478D01*
X145548433Y-51607461D01*
X145580401Y-51587666D01*
X145588559Y-51583121D01*
X145622228Y-51566358D01*
X145622286Y-51566293D01*
X145643872Y-51548368D01*
X145643952Y-51548319D01*
X145666616Y-51518305D01*
X145672578Y-51511125D01*
X145697916Y-51483333D01*
X145697949Y-51483246D01*
X145711599Y-51458738D01*
X145711656Y-51458664D01*
X145721941Y-51422512D01*
X145724915Y-51413637D01*
X145738500Y-51378573D01*
X145738500Y-51378475D01*
X145742376Y-51350695D01*
X145742376Y-51350691D01*
X145742401Y-51350607D01*
X145742367Y-51350244D01*
X145738933Y-51313180D01*
X145738500Y-51303815D01*
X145738500Y-45965602D01*
X153368429Y-45965602D01*
X153388684Y-46235891D01*
X153388686Y-46235906D01*
X153448964Y-46499997D01*
X153449001Y-46500159D01*
X153548029Y-46752479D01*
X153683557Y-46987221D01*
X153852558Y-47199142D01*
X153852567Y-47199150D01*
X154051258Y-47383508D01*
X154051260Y-47383510D01*
X154275210Y-47536196D01*
X154275213Y-47536198D01*
X154519419Y-47653802D01*
X154519421Y-47653802D01*
X154519428Y-47653806D01*
X154778442Y-47733701D01*
X155046472Y-47774100D01*
X155046478Y-47774100D01*
X155317522Y-47774100D01*
X155317528Y-47774100D01*
X155585558Y-47733701D01*
X155844572Y-47653806D01*
X156088786Y-47536199D01*
X156116796Y-47517102D01*
X156312739Y-47383510D01*
X156312739Y-47383509D01*
X156312743Y-47383507D01*
X156511442Y-47199142D01*
X156680443Y-46987221D01*
X156815971Y-46752479D01*
X156914999Y-46500159D01*
X156915035Y-46500002D01*
X186994451Y-46500002D01*
X187014616Y-46769095D01*
X187014618Y-46769110D01*
X187064401Y-46987220D01*
X187074666Y-47032195D01*
X187140186Y-47199135D01*
X187173256Y-47283396D01*
X187173259Y-47283402D01*
X187308184Y-47517101D01*
X187308187Y-47517106D01*
X187476440Y-47728087D01*
X187674260Y-47911636D01*
X187674262Y-47911638D01*
X187897221Y-48063648D01*
X187897224Y-48063650D01*
X188140352Y-48180735D01*
X188140354Y-48180735D01*
X188140359Y-48180738D01*
X188398228Y-48260280D01*
X188665071Y-48300500D01*
X188665077Y-48300500D01*
X188934923Y-48300500D01*
X188934929Y-48300500D01*
X189201772Y-48260280D01*
X189459641Y-48180738D01*
X189702775Y-48063651D01*
X189925741Y-47911635D01*
X190117507Y-47733702D01*
X190123559Y-47728087D01*
X190182798Y-47653805D01*
X190276586Y-47536199D01*
X190291812Y-47517106D01*
X190291812Y-47517105D01*
X190291815Y-47517102D01*
X190426743Y-47283398D01*
X190525334Y-47032195D01*
X190585383Y-46769103D01*
X190605537Y-46500159D01*
X190605549Y-46500002D01*
X190605549Y-46499997D01*
X190585758Y-46235906D01*
X190585383Y-46230897D01*
X190525334Y-45967805D01*
X190524469Y-45965602D01*
X210042429Y-45965602D01*
X210062684Y-46235891D01*
X210062686Y-46235906D01*
X210122964Y-46499997D01*
X210123001Y-46500159D01*
X210222029Y-46752479D01*
X210357557Y-46987221D01*
X210526558Y-47199142D01*
X210526567Y-47199150D01*
X210725258Y-47383508D01*
X210725260Y-47383510D01*
X210949210Y-47536196D01*
X210949213Y-47536198D01*
X211193419Y-47653802D01*
X211193421Y-47653802D01*
X211193428Y-47653806D01*
X211452442Y-47733701D01*
X211720472Y-47774100D01*
X211720478Y-47774100D01*
X211991522Y-47774100D01*
X211991528Y-47774100D01*
X212259558Y-47733701D01*
X212518572Y-47653806D01*
X212762786Y-47536199D01*
X212790796Y-47517102D01*
X212986739Y-47383510D01*
X212986739Y-47383509D01*
X212986743Y-47383507D01*
X213185442Y-47199142D01*
X213354443Y-46987221D01*
X213489971Y-46752479D01*
X213588999Y-46500159D01*
X213649315Y-46235899D01*
X213669571Y-45965600D01*
X213649315Y-45695301D01*
X213588999Y-45431041D01*
X213489971Y-45178721D01*
X213354443Y-44943979D01*
X213185442Y-44732058D01*
X212986743Y-44547693D01*
X212986741Y-44547691D01*
X212986739Y-44547689D01*
X212762789Y-44395002D01*
X212685644Y-44357851D01*
X212518572Y-44277394D01*
X212259558Y-44197499D01*
X212259555Y-44197498D01*
X212259549Y-44197497D01*
X211991532Y-44157100D01*
X211991528Y-44157100D01*
X211720472Y-44157100D01*
X211720467Y-44157100D01*
X211452450Y-44197497D01*
X211452442Y-44197499D01*
X211193428Y-44277394D01*
X211193419Y-44277397D01*
X210949213Y-44395001D01*
X210949210Y-44395003D01*
X210725260Y-44547689D01*
X210725258Y-44547691D01*
X210526567Y-44732049D01*
X210526562Y-44732053D01*
X210526558Y-44732058D01*
X210526554Y-44732062D01*
X210526553Y-44732064D01*
X210357560Y-44943974D01*
X210357556Y-44943979D01*
X210274194Y-45088368D01*
X210222029Y-45178721D01*
X210123001Y-45431041D01*
X210123000Y-45431044D01*
X210122999Y-45431044D01*
X210062686Y-45695293D01*
X210062684Y-45695308D01*
X210042429Y-45965597D01*
X210042429Y-45965602D01*
X190524469Y-45965602D01*
X190426743Y-45716602D01*
X190291815Y-45482898D01*
X190291812Y-45482893D01*
X190123559Y-45271912D01*
X189925745Y-45088368D01*
X189925738Y-45088362D01*
X189702773Y-44936347D01*
X189459649Y-44819265D01*
X189459643Y-44819263D01*
X189459641Y-44819262D01*
X189201772Y-44739720D01*
X189201769Y-44739719D01*
X189201763Y-44739718D01*
X188934933Y-44699500D01*
X188934929Y-44699500D01*
X188665071Y-44699500D01*
X188665066Y-44699500D01*
X188398236Y-44739718D01*
X188398228Y-44739720D01*
X188140352Y-44819264D01*
X187897224Y-44936349D01*
X187897221Y-44936351D01*
X187674262Y-45088361D01*
X187674260Y-45088363D01*
X187476440Y-45271912D01*
X187308187Y-45482893D01*
X187308184Y-45482898D01*
X187173259Y-45716597D01*
X187173256Y-45716603D01*
X187096950Y-45911026D01*
X187074666Y-45967805D01*
X187074665Y-45967808D01*
X187074664Y-45967808D01*
X187014618Y-46230889D01*
X187014616Y-46230904D01*
X186994451Y-46499997D01*
X186994451Y-46500002D01*
X156915035Y-46500002D01*
X156975315Y-46235899D01*
X156995571Y-45965600D01*
X156975315Y-45695301D01*
X156914999Y-45431041D01*
X156815971Y-45178721D01*
X156680443Y-44943979D01*
X156511442Y-44732058D01*
X156312743Y-44547693D01*
X156312741Y-44547691D01*
X156312739Y-44547689D01*
X156088789Y-44395002D01*
X156011644Y-44357851D01*
X155844572Y-44277394D01*
X155585558Y-44197499D01*
X155585555Y-44197498D01*
X155585549Y-44197497D01*
X155317532Y-44157100D01*
X155317528Y-44157100D01*
X155046472Y-44157100D01*
X155046467Y-44157100D01*
X154778450Y-44197497D01*
X154778442Y-44197499D01*
X154519428Y-44277394D01*
X154519419Y-44277397D01*
X154275213Y-44395001D01*
X154275210Y-44395003D01*
X154051260Y-44547689D01*
X154051258Y-44547691D01*
X153852567Y-44732049D01*
X153852562Y-44732053D01*
X153852558Y-44732058D01*
X153852554Y-44732062D01*
X153852553Y-44732064D01*
X153683560Y-44943974D01*
X153683556Y-44943979D01*
X153600194Y-45088368D01*
X153548029Y-45178721D01*
X153449001Y-45431041D01*
X153449000Y-45431044D01*
X153448999Y-45431044D01*
X153388686Y-45695293D01*
X153388684Y-45695308D01*
X153368429Y-45965597D01*
X153368429Y-45965602D01*
X145738500Y-45965602D01*
X145738500Y-41208800D01*
X145757885Y-41149140D01*
X145808635Y-41112268D01*
X145840000Y-41107300D01*
X156655924Y-41107300D01*
X156683698Y-41111174D01*
X156683793Y-41111201D01*
X156721220Y-41107732D01*
X156730584Y-41107300D01*
X156739845Y-41107300D01*
X156741759Y-41106941D01*
X156748947Y-41105597D01*
X156758215Y-41104304D01*
X156795660Y-41100835D01*
X156795745Y-41100792D01*
X156822342Y-41091878D01*
X156822433Y-41091861D01*
X156854401Y-41072066D01*
X156862559Y-41067521D01*
X156896228Y-41050758D01*
X156896286Y-41050693D01*
X156917872Y-41032768D01*
X156917952Y-41032719D01*
X156940616Y-41002705D01*
X156946578Y-40995525D01*
X156971916Y-40967733D01*
X156971949Y-40967646D01*
X156985599Y-40943138D01*
X156985656Y-40943064D01*
X156995941Y-40906912D01*
X156998915Y-40898037D01*
X157012500Y-40862973D01*
X157012500Y-40862875D01*
X157016376Y-40835095D01*
X157016376Y-40835091D01*
X157016401Y-40835007D01*
X157016367Y-40834644D01*
X157012933Y-40797580D01*
X157012500Y-40788215D01*
X157012500Y-40208800D01*
X157031885Y-40149140D01*
X157082635Y-40112268D01*
X157114000Y-40107300D01*
X208182000Y-40107300D01*
X208241660Y-40126685D01*
G37*
%TD.AperFunction*%
M02*
