%TF.GenerationSoftware,KiCad,Pcbnew,8.0.8*%
%TF.CreationDate,2025-03-18T17:19:46-07:00*%
%TF.ProjectId,MPPT_addon_board,4d505054-5f61-4646-946f-6e5f626f6172,1.4*%
%TF.SameCoordinates,Original*%
%TF.FileFunction,Copper,L2,Bot*%
%TF.FilePolarity,Positive*%
%FSLAX46Y46*%
G04 Gerber Fmt 4.6, Leading zero omitted, Abs format (unit mm)*
G04 Created by KiCad (PCBNEW 8.0.8) date 2025-03-18 17:19:46*
%MOMM*%
%LPD*%
G01*
G04 APERTURE LIST*
%TA.AperFunction,ComponentPad*%
%ADD10C,5.600000*%
%TD*%
%TA.AperFunction,SMDPad,CuDef*%
%ADD11C,1.000000*%
%TD*%
%TA.AperFunction,ViaPad*%
%ADD12C,0.800000*%
%TD*%
%TA.AperFunction,Conductor*%
%ADD13C,0.250000*%
%TD*%
%TA.AperFunction,Conductor*%
%ADD14C,1.905000*%
%TD*%
G04 APERTURE END LIST*
D10*
X107236100Y-57564100D03*
X103426100Y-143294100D03*
X183426100Y-143294100D03*
X180896100Y-57564100D03*
D11*
X186436000Y-54356000D03*
X100838000Y-54864000D03*
X100330000Y-146558000D03*
D12*
X159800000Y-127400000D03*
X159800000Y-118600000D03*
X159800000Y-125200000D03*
X115400000Y-123000000D03*
X128300000Y-98500000D03*
X127508000Y-57658000D03*
X113300000Y-85500000D03*
X128524000Y-57658000D03*
X158275000Y-81675000D03*
X127200000Y-129700000D03*
X168000000Y-118600000D03*
X127200000Y-118600000D03*
X163800000Y-132300000D03*
X121400000Y-118600000D03*
X171600000Y-118600000D03*
X128016000Y-72136000D03*
X119400000Y-132300000D03*
X159800000Y-123000000D03*
X159800000Y-132300000D03*
X115400000Y-129700000D03*
X118872000Y-60198000D03*
X126492000Y-57658000D03*
X159800000Y-120600000D03*
X115400000Y-127400000D03*
X129540000Y-59690000D03*
X126492000Y-59690000D03*
X123600000Y-118600000D03*
X126492000Y-58674000D03*
X171600000Y-125200000D03*
X171600000Y-129700000D03*
X128200000Y-95200000D03*
X127200000Y-127400000D03*
X115824000Y-60198000D03*
X119400000Y-118600000D03*
X117300000Y-118600000D03*
X171600000Y-81200000D03*
X125500000Y-132300000D03*
X127000000Y-72136000D03*
X115400000Y-118600000D03*
X116840000Y-60198000D03*
X161700000Y-132300000D03*
X171600000Y-127400000D03*
X169900000Y-132300000D03*
X117856000Y-60198000D03*
X128524000Y-59690000D03*
X114808000Y-60198000D03*
X159800000Y-129700000D03*
X115800000Y-81900000D03*
X121300000Y-90400000D03*
X115400000Y-120600000D03*
X165800000Y-132300000D03*
X161700000Y-118600000D03*
X115400000Y-125200000D03*
X125984000Y-72136000D03*
X127200000Y-125200000D03*
X127508000Y-59690000D03*
X165800000Y-118600000D03*
X123600000Y-132300000D03*
X115400000Y-132300000D03*
X129540000Y-58674000D03*
X127508000Y-58674000D03*
X171600000Y-120600000D03*
X129032000Y-72136000D03*
X169900000Y-118600000D03*
X113792000Y-60198000D03*
X127200000Y-132300000D03*
X129000000Y-81500000D03*
X163800000Y-118600000D03*
X125500000Y-118600000D03*
X127200000Y-120600000D03*
X129540000Y-57658000D03*
X127200000Y-123000000D03*
X168000000Y-132300000D03*
X101500000Y-102000000D03*
X171600000Y-132300000D03*
X121400000Y-132300000D03*
X128524000Y-58674000D03*
X117300000Y-132300000D03*
X171600000Y-123000000D03*
X129000000Y-85600000D03*
X120650000Y-74400000D03*
X136400000Y-74400000D03*
X122430000Y-61700000D03*
X166600000Y-75100000D03*
X130000000Y-73400000D03*
X119400000Y-73400000D03*
X136000000Y-92000000D03*
X111850000Y-75050000D03*
X112300000Y-61500000D03*
X136400000Y-60800000D03*
X143600000Y-121600000D03*
X107100000Y-74676000D03*
X104600000Y-116000000D03*
X184400000Y-116200000D03*
X179832000Y-68072000D03*
X148400000Y-85200000D03*
X169600000Y-99600000D03*
X114800000Y-72100000D03*
X138800000Y-117200000D03*
X146900000Y-102300000D03*
X145275500Y-76899500D03*
X137200000Y-66500000D03*
X145700000Y-80400000D03*
X138100000Y-68600000D03*
X139900000Y-77200000D03*
D13*
X115800000Y-83000000D02*
X113300000Y-85500000D01*
X118200000Y-90400000D02*
X113300000Y-85500000D01*
X121300000Y-90400000D02*
X118200000Y-90400000D01*
X115800000Y-81900000D02*
X115800000Y-83000000D01*
X158275000Y-81675000D02*
X158100000Y-81850000D01*
X120650000Y-74400000D02*
X136200000Y-74400000D01*
X136200000Y-74400000D02*
X136400000Y-74400000D01*
X122430000Y-61700000D02*
X153200000Y-61700000D01*
X153200000Y-61700000D02*
X166600000Y-75100000D01*
X119400000Y-73400000D02*
X130000000Y-73400000D01*
X111850000Y-75050000D02*
X112000000Y-75200000D01*
X112000000Y-75200000D02*
X114800000Y-75200000D01*
X114800000Y-75200000D02*
X131600000Y-92000000D01*
X131600000Y-92000000D02*
X136000000Y-92000000D01*
X136400000Y-60800000D02*
X120200000Y-60800000D01*
X120200000Y-60800000D02*
X119500000Y-61500000D01*
X119500000Y-61500000D02*
X112300000Y-61500000D01*
D14*
X137600000Y-121600000D02*
X128400000Y-112400000D01*
X143600000Y-121600000D02*
X137600000Y-121600000D01*
X128400000Y-112400000D02*
X108200000Y-112400000D01*
X107100000Y-74676000D02*
X107100000Y-111300000D01*
X107100000Y-111300000D02*
X108200000Y-112400000D01*
X104600000Y-116000000D02*
X108200000Y-112400000D01*
X184400000Y-72640000D02*
X184400000Y-116200000D01*
X179832000Y-68072000D02*
X184400000Y-72640000D01*
D13*
X169600000Y-99600000D02*
X162800000Y-99600000D01*
X162800000Y-99600000D02*
X148400000Y-85200000D01*
D14*
X112204433Y-72300000D02*
X109600000Y-74904433D01*
X114700000Y-72300000D02*
X112204433Y-72300000D01*
X109600000Y-88000000D02*
X138800000Y-117200000D01*
X109600000Y-74904433D02*
X109600000Y-88000000D01*
D13*
X144975000Y-77200000D02*
X144975000Y-100275000D01*
X147000000Y-102300000D02*
X146900000Y-102200000D01*
X146900000Y-102200000D02*
X146900000Y-102300000D01*
X144975000Y-100275000D02*
X146900000Y-102200000D01*
X146900000Y-102300000D02*
X147000000Y-102300000D01*
X145275500Y-76899500D02*
X144975000Y-77200000D01*
X146000500Y-75300500D02*
X146000500Y-80099500D01*
X146000500Y-80099500D02*
X145700000Y-80400000D01*
X137200000Y-66500000D02*
X146000500Y-75300500D01*
X139900000Y-70400000D02*
X138100000Y-68600000D01*
X139900000Y-77200000D02*
X139900000Y-70400000D01*
%TA.AperFunction,Conductor*%
G36*
X110838681Y-52819454D02*
G01*
X110919463Y-52873430D01*
X110934315Y-52889657D01*
X111384341Y-53427188D01*
X114338921Y-56956269D01*
X114349744Y-56971744D01*
X114359538Y-56984508D01*
X114359540Y-56984511D01*
X114367630Y-56992601D01*
X114370344Y-56995315D01*
X114385191Y-57011537D01*
X114394982Y-57023232D01*
X114404865Y-57032307D01*
X114415487Y-57040458D01*
X114415489Y-57040460D01*
X114428713Y-57048095D01*
X114447253Y-57059921D01*
X114456949Y-57066726D01*
X114459749Y-57068691D01*
X114459751Y-57068692D01*
X114471631Y-57074893D01*
X114484008Y-57080020D01*
X114484010Y-57080020D01*
X114484011Y-57080021D01*
X114498757Y-57083972D01*
X114519725Y-57090596D01*
X114534070Y-57095835D01*
X114534071Y-57095835D01*
X114547161Y-57098752D01*
X114560436Y-57100500D01*
X114560438Y-57100500D01*
X114575705Y-57100500D01*
X114597682Y-57101471D01*
X114612885Y-57102819D01*
X114612892Y-57102817D01*
X114628968Y-57102134D01*
X114647769Y-57100500D01*
X173656060Y-57100500D01*
X173684487Y-57102772D01*
X173691300Y-57102968D01*
X173691302Y-57102967D01*
X173691304Y-57102968D01*
X173702702Y-57101798D01*
X173728106Y-57100500D01*
X173739562Y-57100500D01*
X173746373Y-57099602D01*
X173763325Y-57096482D01*
X173770006Y-57094895D01*
X173770015Y-57094895D01*
X173780726Y-57090813D01*
X173804924Y-57082985D01*
X173815989Y-57080021D01*
X173815993Y-57080018D01*
X173822335Y-57077392D01*
X173837916Y-57069984D01*
X173843943Y-57066732D01*
X173843949Y-57066727D01*
X173843953Y-57066726D01*
X173853240Y-57060013D01*
X173874586Y-57046189D01*
X173884511Y-57040460D01*
X173884514Y-57040456D01*
X173884517Y-57040455D01*
X173889957Y-57036280D01*
X173903078Y-57025103D01*
X173908073Y-57020385D01*
X173908082Y-57020380D01*
X173915317Y-57011489D01*
X173932353Y-56992616D01*
X173940460Y-56984511D01*
X173940463Y-56984505D01*
X173944624Y-56979082D01*
X173960789Y-56955625D01*
X177268137Y-52892311D01*
X177342989Y-52830377D01*
X177435846Y-52801799D01*
X177461251Y-52800500D01*
X186452405Y-52800500D01*
X186491102Y-52800500D01*
X186508864Y-52801134D01*
X186518163Y-52801799D01*
X186724113Y-52816528D01*
X186759261Y-52821582D01*
X186961408Y-52865557D01*
X186995477Y-52875560D01*
X187189319Y-52947859D01*
X187221620Y-52962610D01*
X187403195Y-53061758D01*
X187433073Y-53080960D01*
X187598676Y-53204929D01*
X187625526Y-53228194D01*
X187771805Y-53374473D01*
X187795070Y-53401323D01*
X187909452Y-53554120D01*
X187919036Y-53566922D01*
X187938243Y-53596808D01*
X188037385Y-53778371D01*
X188052144Y-53810689D01*
X188124436Y-54004514D01*
X188134444Y-54038600D01*
X188178415Y-54240728D01*
X188183472Y-54275895D01*
X188198866Y-54491135D01*
X188199500Y-54508898D01*
X188199500Y-65802386D01*
X188180546Y-65897674D01*
X188142469Y-65960969D01*
X186384960Y-68088480D01*
X186369069Y-68105958D01*
X186359540Y-68115487D01*
X186352745Y-68124343D01*
X186349066Y-68129639D01*
X186343126Y-68139125D01*
X186337534Y-68151361D01*
X186326706Y-68172358D01*
X186319977Y-68184011D01*
X186315694Y-68194352D01*
X186313528Y-68200375D01*
X186310243Y-68211082D01*
X186308006Y-68224361D01*
X186302984Y-68247432D01*
X186299500Y-68260434D01*
X186298035Y-68271563D01*
X186297505Y-68277906D01*
X186297102Y-68289101D01*
X186298378Y-68302490D01*
X186299500Y-68326103D01*
X186299500Y-72211927D01*
X186280546Y-72307215D01*
X186226570Y-72387997D01*
X186145788Y-72441973D01*
X186050500Y-72460927D01*
X185955212Y-72441973D01*
X185874430Y-72387997D01*
X185820454Y-72307215D01*
X185813687Y-72288873D01*
X185746548Y-72082242D01*
X185684138Y-71959755D01*
X185684137Y-71959754D01*
X185642716Y-71878460D01*
X185591082Y-71807393D01*
X185508286Y-71693434D01*
X185508283Y-71693431D01*
X185346566Y-71531713D01*
X185346566Y-71531714D01*
X180778566Y-66963713D01*
X180593538Y-66829283D01*
X180593535Y-66829281D01*
X180593529Y-66829278D01*
X180389769Y-66725457D01*
X180389767Y-66725456D01*
X180389759Y-66725452D01*
X180389752Y-66725449D01*
X180389748Y-66725448D01*
X180172251Y-66654780D01*
X180172252Y-66654780D01*
X180172245Y-66654778D01*
X180172243Y-66654777D01*
X180172234Y-66654775D01*
X179946362Y-66619000D01*
X179946353Y-66619000D01*
X179717647Y-66619000D01*
X179717637Y-66619000D01*
X179491765Y-66654775D01*
X179491748Y-66654780D01*
X179274251Y-66725448D01*
X179274243Y-66725451D01*
X179274241Y-66725452D01*
X179274237Y-66725453D01*
X179274230Y-66725457D01*
X179070470Y-66829278D01*
X179070463Y-66829282D01*
X178885436Y-66963711D01*
X178723711Y-67125436D01*
X178589282Y-67310463D01*
X178589278Y-67310470D01*
X178485457Y-67514230D01*
X178485448Y-67514251D01*
X178414780Y-67731748D01*
X178414775Y-67731765D01*
X178379000Y-67957637D01*
X178379000Y-68186362D01*
X178414775Y-68412234D01*
X178414780Y-68412251D01*
X178475782Y-68600000D01*
X178485452Y-68629759D01*
X178485456Y-68629767D01*
X178485457Y-68629769D01*
X178566210Y-68788256D01*
X178589283Y-68833538D01*
X178723713Y-69018566D01*
X180840308Y-71135160D01*
X182874070Y-73168922D01*
X182928046Y-73249704D01*
X182947000Y-73344992D01*
X182947000Y-116314363D01*
X182982777Y-116540242D01*
X183053449Y-116757751D01*
X183053452Y-116757758D01*
X183157283Y-116961538D01*
X183291714Y-117146566D01*
X183453434Y-117308286D01*
X183638462Y-117442717D01*
X183842242Y-117546548D01*
X184059755Y-117617222D01*
X184139203Y-117629805D01*
X184285636Y-117652999D01*
X184285643Y-117652999D01*
X184285646Y-117653000D01*
X184285649Y-117653000D01*
X184514351Y-117653000D01*
X184514354Y-117653000D01*
X184514357Y-117652999D01*
X184514363Y-117652999D01*
X184621072Y-117636097D01*
X184740245Y-117617222D01*
X184957758Y-117546548D01*
X185161538Y-117442717D01*
X185346566Y-117308286D01*
X185508286Y-117146566D01*
X185642717Y-116961538D01*
X185746548Y-116757758D01*
X185813687Y-116551123D01*
X185861159Y-116466357D01*
X185937456Y-116406209D01*
X186030963Y-116379837D01*
X186127445Y-116391256D01*
X186212212Y-116438728D01*
X186272360Y-116515025D01*
X186298732Y-116608532D01*
X186299500Y-116628069D01*
X186299500Y-134073897D01*
X186298378Y-134097508D01*
X186297103Y-134110892D01*
X186297506Y-134122109D01*
X186298036Y-134128443D01*
X186299500Y-134139561D01*
X186299500Y-134139562D01*
X186302984Y-134152565D01*
X186308005Y-134175635D01*
X186310243Y-134188917D01*
X186310244Y-134188921D01*
X186313537Y-134199648D01*
X186315690Y-134205636D01*
X186319979Y-134215992D01*
X186326706Y-134227642D01*
X186337538Y-134248646D01*
X186343128Y-134260879D01*
X186349083Y-134270387D01*
X186352714Y-134275615D01*
X186359543Y-134284515D01*
X186369066Y-134294038D01*
X186384955Y-134311513D01*
X188142471Y-136439032D01*
X188188544Y-136524563D01*
X188199500Y-136597612D01*
X188199500Y-146391101D01*
X188198866Y-146408864D01*
X188183472Y-146624104D01*
X188178415Y-146659271D01*
X188134444Y-146861399D01*
X188124436Y-146895485D01*
X188052144Y-147089310D01*
X188037385Y-147121628D01*
X187938243Y-147303191D01*
X187919036Y-147333077D01*
X187795070Y-147498676D01*
X187771805Y-147525526D01*
X187625526Y-147671805D01*
X187598676Y-147695070D01*
X187433077Y-147819036D01*
X187403191Y-147838243D01*
X187221628Y-147937385D01*
X187189310Y-147952144D01*
X186995485Y-148024436D01*
X186961399Y-148034444D01*
X186759271Y-148078415D01*
X186724104Y-148083472D01*
X186508865Y-148098866D01*
X186491102Y-148099500D01*
X177543751Y-148099500D01*
X177448463Y-148080546D01*
X177367681Y-148026570D01*
X177319841Y-147959429D01*
X175050221Y-143294100D01*
X180121253Y-143294100D01*
X180140625Y-143651413D01*
X180198515Y-144004531D01*
X180198518Y-144004542D01*
X180294251Y-144349345D01*
X180426702Y-144681769D01*
X180426703Y-144681770D01*
X180594317Y-144997925D01*
X180764364Y-145248726D01*
X181997827Y-144015262D01*
X182057657Y-144132683D01*
X182205688Y-144336430D01*
X182383770Y-144514512D01*
X182587517Y-144662543D01*
X182704935Y-144722370D01*
X181472812Y-145954494D01*
X181571451Y-146029478D01*
X181878086Y-146213973D01*
X182202842Y-146364223D01*
X182541958Y-146478483D01*
X182541972Y-146478487D01*
X182891439Y-146555411D01*
X182891436Y-146555411D01*
X183247173Y-146594100D01*
X183605027Y-146594100D01*
X183960761Y-146555411D01*
X184310227Y-146478487D01*
X184310241Y-146478483D01*
X184649357Y-146364223D01*
X184974113Y-146213973D01*
X185280741Y-146029482D01*
X185379386Y-145954494D01*
X184147263Y-144722371D01*
X184264683Y-144662543D01*
X184468430Y-144514512D01*
X184646512Y-144336430D01*
X184794543Y-144132683D01*
X184854371Y-144015263D01*
X186087834Y-145248726D01*
X186257878Y-144997933D01*
X186257879Y-144997931D01*
X186425496Y-144681770D01*
X186425497Y-144681769D01*
X186557948Y-144349345D01*
X186653681Y-144004542D01*
X186653684Y-144004531D01*
X186711574Y-143651413D01*
X186730946Y-143294100D01*
X186711574Y-142936786D01*
X186653684Y-142583668D01*
X186653681Y-142583657D01*
X186557948Y-142238854D01*
X186425497Y-141906430D01*
X186425496Y-141906429D01*
X186257879Y-141590268D01*
X186257878Y-141590266D01*
X186087834Y-141339472D01*
X184854370Y-142572935D01*
X184794543Y-142455517D01*
X184646512Y-142251770D01*
X184468430Y-142073688D01*
X184264683Y-141925657D01*
X184147263Y-141865828D01*
X185379386Y-140633705D01*
X185280741Y-140558717D01*
X184974113Y-140374226D01*
X184649357Y-140223976D01*
X184310241Y-140109716D01*
X184310227Y-140109712D01*
X183960760Y-140032788D01*
X183960763Y-140032788D01*
X183605027Y-139994100D01*
X183247173Y-139994100D01*
X182891438Y-140032788D01*
X182541972Y-140109712D01*
X182541958Y-140109716D01*
X182202842Y-140223976D01*
X181878086Y-140374226D01*
X181571459Y-140558717D01*
X181472812Y-140633704D01*
X182704936Y-141865828D01*
X182587517Y-141925657D01*
X182383770Y-142073688D01*
X182205688Y-142251770D01*
X182057657Y-142455517D01*
X181997828Y-142572936D01*
X180764364Y-141339472D01*
X180594317Y-141590273D01*
X180426703Y-141906429D01*
X180426702Y-141906430D01*
X180294251Y-142238854D01*
X180198518Y-142583657D01*
X180198515Y-142583668D01*
X180140625Y-142936786D01*
X180121253Y-143294100D01*
X175050221Y-143294100D01*
X173893241Y-140915865D01*
X173886887Y-140898836D01*
X173886268Y-140899093D01*
X173880022Y-140884013D01*
X173880016Y-140884002D01*
X173869972Y-140866605D01*
X173861711Y-140851052D01*
X173852913Y-140832966D01*
X173852910Y-140832963D01*
X173852909Y-140832960D01*
X173847002Y-140824015D01*
X173840457Y-140815485D01*
X173826234Y-140801262D01*
X173814231Y-140788377D01*
X173801063Y-140773199D01*
X173801062Y-140773198D01*
X173801061Y-140773197D01*
X173793029Y-140766077D01*
X173784515Y-140759544D01*
X173784511Y-140759540D01*
X173767084Y-140749478D01*
X173752160Y-140740141D01*
X173737739Y-140730393D01*
X173735513Y-140728888D01*
X173735509Y-140728886D01*
X173725915Y-140724091D01*
X173715986Y-140719977D01*
X173696574Y-140714776D01*
X173679728Y-140709616D01*
X173660732Y-140703054D01*
X173650196Y-140700899D01*
X173639562Y-140699500D01*
X173619467Y-140699500D01*
X173601847Y-140698876D01*
X173590528Y-140698073D01*
X173581803Y-140697454D01*
X173581802Y-140697454D01*
X173581801Y-140697454D01*
X173565514Y-140698434D01*
X173565473Y-140697765D01*
X173547371Y-140699500D01*
X114549588Y-140699500D01*
X114531185Y-140697839D01*
X114531174Y-140698073D01*
X114514872Y-140697271D01*
X114497859Y-140698667D01*
X114477511Y-140699500D01*
X114460438Y-140699500D01*
X114448131Y-140701119D01*
X114436012Y-140703737D01*
X114419921Y-140709494D01*
X114400506Y-140715557D01*
X114384019Y-140719975D01*
X114372534Y-140724732D01*
X114361522Y-140730389D01*
X114347468Y-140740116D01*
X114330270Y-140751006D01*
X114315488Y-140759540D01*
X114305641Y-140767096D01*
X114296454Y-140775421D01*
X114285402Y-140788448D01*
X114271617Y-140803410D01*
X114259542Y-140815485D01*
X114251985Y-140825334D01*
X114245263Y-140835760D01*
X114237959Y-140851202D01*
X114228516Y-140869222D01*
X114219983Y-140884002D01*
X114213738Y-140899079D01*
X114213521Y-140898989D01*
X114207157Y-140916327D01*
X110877128Y-147956963D01*
X110819252Y-148034998D01*
X110735919Y-148084945D01*
X110652035Y-148099500D01*
X100308898Y-148099500D01*
X100291135Y-148098866D01*
X100075895Y-148083472D01*
X100040728Y-148078415D01*
X99838600Y-148034444D01*
X99804514Y-148024436D01*
X99630221Y-147959429D01*
X99610687Y-147952143D01*
X99578371Y-147937385D01*
X99396808Y-147838243D01*
X99366922Y-147819036D01*
X99201323Y-147695070D01*
X99174473Y-147671805D01*
X99028194Y-147525526D01*
X99004929Y-147498676D01*
X98926502Y-147393910D01*
X98880960Y-147333073D01*
X98861756Y-147303191D01*
X98762610Y-147121620D01*
X98747859Y-147089319D01*
X98675560Y-146895477D01*
X98665557Y-146861408D01*
X98621582Y-146659261D01*
X98616528Y-146624113D01*
X98611800Y-146558000D01*
X99324659Y-146558000D01*
X99343975Y-146754131D01*
X99401185Y-146942725D01*
X99401188Y-146942733D01*
X99494088Y-147116536D01*
X99494090Y-147116538D01*
X99619117Y-147268883D01*
X99679964Y-147318819D01*
X99771463Y-147393911D01*
X99945266Y-147486811D01*
X99945270Y-147486812D01*
X99945273Y-147486814D01*
X100133868Y-147544024D01*
X100330000Y-147563341D01*
X100526132Y-147544024D01*
X100714727Y-147486814D01*
X100888538Y-147393910D01*
X101040883Y-147268883D01*
X101165910Y-147116538D01*
X101258814Y-146942727D01*
X101316024Y-146754132D01*
X101335341Y-146558000D01*
X101316024Y-146361868D01*
X101316023Y-146361867D01*
X101314825Y-146349694D01*
X101316032Y-146349575D01*
X101316032Y-146264760D01*
X101353210Y-146175000D01*
X101421908Y-146106300D01*
X101511667Y-146069119D01*
X101608822Y-146069118D01*
X101688621Y-146099977D01*
X101878074Y-146213967D01*
X101878083Y-146213972D01*
X102202842Y-146364223D01*
X102541958Y-146478483D01*
X102541972Y-146478487D01*
X102891439Y-146555411D01*
X102891436Y-146555411D01*
X103247173Y-146594100D01*
X103605027Y-146594100D01*
X103960761Y-146555411D01*
X104310227Y-146478487D01*
X104310241Y-146478483D01*
X104649357Y-146364223D01*
X104974113Y-146213973D01*
X105280741Y-146029482D01*
X105379386Y-145954494D01*
X104147264Y-144722371D01*
X104264683Y-144662543D01*
X104468430Y-144514512D01*
X104646512Y-144336430D01*
X104794543Y-144132683D01*
X104854371Y-144015263D01*
X106087834Y-145248726D01*
X106257878Y-144997933D01*
X106257879Y-144997931D01*
X106425496Y-144681770D01*
X106425497Y-144681769D01*
X106557948Y-144349345D01*
X106653681Y-144004542D01*
X106653684Y-144004531D01*
X106711574Y-143651413D01*
X106730946Y-143294100D01*
X106711574Y-142936786D01*
X106653684Y-142583668D01*
X106653681Y-142583657D01*
X106557948Y-142238854D01*
X106425497Y-141906430D01*
X106425496Y-141906429D01*
X106257879Y-141590268D01*
X106257878Y-141590266D01*
X106087834Y-141339472D01*
X104854370Y-142572935D01*
X104794543Y-142455517D01*
X104646512Y-142251770D01*
X104468430Y-142073688D01*
X104264683Y-141925657D01*
X104147263Y-141865828D01*
X105379386Y-140633705D01*
X105280741Y-140558717D01*
X104974113Y-140374226D01*
X104649357Y-140223976D01*
X104310241Y-140109716D01*
X104310227Y-140109712D01*
X103960760Y-140032788D01*
X103960763Y-140032788D01*
X103605027Y-139994100D01*
X103247173Y-139994100D01*
X102891438Y-140032788D01*
X102541972Y-140109712D01*
X102541958Y-140109716D01*
X102202842Y-140223976D01*
X101878086Y-140374226D01*
X101571459Y-140558717D01*
X101472812Y-140633704D01*
X102704936Y-141865828D01*
X102587517Y-141925657D01*
X102383770Y-142073688D01*
X102205688Y-142251770D01*
X102057657Y-142455517D01*
X101997828Y-142572935D01*
X100764364Y-141339472D01*
X100594317Y-141590273D01*
X100426703Y-141906429D01*
X100426702Y-141906430D01*
X100294251Y-142238854D01*
X100198518Y-142583657D01*
X100198515Y-142583668D01*
X100140625Y-142936786D01*
X100121253Y-143294100D01*
X100140625Y-143651413D01*
X100198515Y-144004531D01*
X100198518Y-144004542D01*
X100294251Y-144349345D01*
X100426702Y-144681769D01*
X100426703Y-144681770D01*
X100594320Y-144997931D01*
X100594321Y-144997933D01*
X100718210Y-145180654D01*
X100755997Y-145270160D01*
X100756655Y-145367312D01*
X100720084Y-145457322D01*
X100651852Y-145526484D01*
X100562346Y-145564271D01*
X100487711Y-145568191D01*
X100330001Y-145552659D01*
X100330000Y-145552659D01*
X100133868Y-145571975D01*
X99945274Y-145629185D01*
X99945266Y-145629188D01*
X99771463Y-145722088D01*
X99619120Y-145847114D01*
X99619114Y-145847120D01*
X99494088Y-145999463D01*
X99401188Y-146173266D01*
X99401185Y-146173274D01*
X99343975Y-146361868D01*
X99324659Y-146558000D01*
X98611800Y-146558000D01*
X98601134Y-146408863D01*
X98600500Y-146391101D01*
X98600500Y-136597613D01*
X98619454Y-136502325D01*
X98657528Y-136439032D01*
X100415051Y-134311503D01*
X100430948Y-134294022D01*
X100440460Y-134284511D01*
X100440462Y-134284506D01*
X100447321Y-134275568D01*
X100450879Y-134270444D01*
X100456866Y-134260886D01*
X100456870Y-134260882D01*
X100462454Y-134248659D01*
X100473296Y-134227636D01*
X100480020Y-134215990D01*
X100480021Y-134215989D01*
X100480022Y-134215984D01*
X100484339Y-134205561D01*
X100486443Y-134199711D01*
X100489752Y-134188927D01*
X100489757Y-134188917D01*
X100491989Y-134175661D01*
X100497021Y-134152545D01*
X100500499Y-134139565D01*
X100500500Y-134139562D01*
X100500500Y-134139557D01*
X100501963Y-134128447D01*
X100502494Y-134122094D01*
X100502897Y-134110896D01*
X100501621Y-134097492D01*
X100500500Y-134073888D01*
X100500500Y-115885637D01*
X103147000Y-115885637D01*
X103147000Y-116114362D01*
X103182775Y-116340234D01*
X103182777Y-116340243D01*
X103182778Y-116340245D01*
X103253452Y-116557759D01*
X103357283Y-116761538D01*
X103491713Y-116946566D01*
X103653434Y-117108287D01*
X103838462Y-117242717D01*
X104042241Y-117346548D01*
X104259755Y-117417222D01*
X104259761Y-117417223D01*
X104259765Y-117417224D01*
X104485637Y-117452999D01*
X104485644Y-117452999D01*
X104485647Y-117453000D01*
X104485650Y-117453000D01*
X104714350Y-117453000D01*
X104714353Y-117453000D01*
X104714356Y-117452999D01*
X104714362Y-117452999D01*
X104940234Y-117417224D01*
X104940235Y-117417223D01*
X104940245Y-117417222D01*
X105157759Y-117346548D01*
X105361538Y-117242717D01*
X105546566Y-117108287D01*
X108728923Y-113925930D01*
X108809705Y-113871954D01*
X108904993Y-113853000D01*
X127695007Y-113853000D01*
X127790295Y-113871954D01*
X127871077Y-113925930D01*
X136653434Y-122708287D01*
X136838462Y-122842717D01*
X137042241Y-122946548D01*
X137259755Y-123017222D01*
X137259761Y-123017223D01*
X137259765Y-123017224D01*
X137485636Y-123052999D01*
X137485643Y-123052999D01*
X137485646Y-123053000D01*
X137485647Y-123053000D01*
X137485649Y-123053000D01*
X143714351Y-123053000D01*
X143714354Y-123053000D01*
X143714357Y-123052999D01*
X143714363Y-123052999D01*
X143821072Y-123036097D01*
X143940245Y-123017222D01*
X144157758Y-122946548D01*
X144361538Y-122842717D01*
X144546566Y-122708286D01*
X144708286Y-122546566D01*
X144842717Y-122361538D01*
X144946548Y-122157758D01*
X145017222Y-121940245D01*
X145053000Y-121714354D01*
X145053000Y-121485646D01*
X145052999Y-121485643D01*
X145052999Y-121485636D01*
X145017222Y-121259757D01*
X145017222Y-121259755D01*
X144946548Y-121042242D01*
X144842717Y-120838462D01*
X144708286Y-120653434D01*
X144546566Y-120491714D01*
X144361538Y-120357283D01*
X144157758Y-120253452D01*
X144157751Y-120253449D01*
X143940242Y-120182777D01*
X143714363Y-120147000D01*
X143714354Y-120147000D01*
X138304993Y-120147000D01*
X138209705Y-120128046D01*
X138128923Y-120074070D01*
X133940490Y-115885637D01*
X129346566Y-111291713D01*
X129161538Y-111157283D01*
X129161535Y-111157281D01*
X129161529Y-111157278D01*
X128957769Y-111053457D01*
X128957767Y-111053456D01*
X128957759Y-111053452D01*
X128957752Y-111053449D01*
X128957748Y-111053448D01*
X128740251Y-110982780D01*
X128740252Y-110982780D01*
X128740245Y-110982778D01*
X128740243Y-110982777D01*
X128740234Y-110982775D01*
X128514363Y-110947000D01*
X128514354Y-110947000D01*
X108904993Y-110947000D01*
X108809705Y-110928046D01*
X108728923Y-110874070D01*
X108625930Y-110771077D01*
X108571954Y-110690295D01*
X108553000Y-110595007D01*
X108553000Y-89608992D01*
X108571954Y-89513704D01*
X108625930Y-89432922D01*
X108706712Y-89378946D01*
X108802000Y-89359992D01*
X108897288Y-89378946D01*
X108978066Y-89432919D01*
X137853434Y-118308287D01*
X138038462Y-118442717D01*
X138242241Y-118546548D01*
X138459755Y-118617222D01*
X138459761Y-118617223D01*
X138459765Y-118617224D01*
X138685637Y-118652999D01*
X138685644Y-118652999D01*
X138685647Y-118653000D01*
X138685650Y-118653000D01*
X138914350Y-118653000D01*
X138914353Y-118653000D01*
X138914356Y-118652999D01*
X138914362Y-118652999D01*
X139140234Y-118617224D01*
X139140235Y-118617223D01*
X139140245Y-118617222D01*
X139357759Y-118546548D01*
X139561538Y-118442717D01*
X139746566Y-118308287D01*
X139908287Y-118146566D01*
X140042717Y-117961538D01*
X140146548Y-117757759D01*
X140217222Y-117540245D01*
X140217224Y-117540234D01*
X140252999Y-117314362D01*
X140253000Y-117314350D01*
X140253000Y-117085649D01*
X140252999Y-117085637D01*
X140217224Y-116859765D01*
X140217223Y-116859761D01*
X140217222Y-116859755D01*
X140146548Y-116642241D01*
X140042717Y-116438462D01*
X139908287Y-116253434D01*
X111125930Y-87471077D01*
X111071954Y-87390295D01*
X111053000Y-87295007D01*
X111053000Y-76064298D01*
X111071954Y-75969010D01*
X111125930Y-75888228D01*
X111206712Y-75834252D01*
X111302000Y-75815298D01*
X111397288Y-75834252D01*
X111403252Y-75836814D01*
X111570197Y-75911144D01*
X111755354Y-75950500D01*
X111944645Y-75950500D01*
X111944646Y-75950500D01*
X112129803Y-75911144D01*
X112273810Y-75847026D01*
X112368569Y-75825585D01*
X112375088Y-75825500D01*
X114437770Y-75825500D01*
X114533058Y-75844454D01*
X114613840Y-75898430D01*
X131114139Y-92398729D01*
X131114142Y-92398733D01*
X131201267Y-92485858D01*
X131270643Y-92532213D01*
X131270646Y-92532216D01*
X131270647Y-92532216D01*
X131303716Y-92554313D01*
X131343937Y-92570972D01*
X131367500Y-92580732D01*
X131367501Y-92580733D01*
X131385988Y-92588390D01*
X131417548Y-92601463D01*
X131477971Y-92613481D01*
X131507767Y-92619408D01*
X131538392Y-92625500D01*
X131538393Y-92625500D01*
X131538394Y-92625500D01*
X135248000Y-92625500D01*
X135343288Y-92644454D01*
X135394358Y-92673055D01*
X135547268Y-92784150D01*
X135547269Y-92784151D01*
X135720189Y-92861141D01*
X135720192Y-92861142D01*
X135720197Y-92861144D01*
X135905354Y-92900500D01*
X136094645Y-92900500D01*
X136094646Y-92900500D01*
X136279803Y-92861144D01*
X136452730Y-92784151D01*
X136605871Y-92672888D01*
X136732533Y-92532216D01*
X136827179Y-92368284D01*
X136885674Y-92188256D01*
X136905460Y-92000000D01*
X136885674Y-91811744D01*
X136827179Y-91631716D01*
X136732533Y-91467784D01*
X136732531Y-91467781D01*
X136732530Y-91467780D01*
X136605873Y-91327114D01*
X136605872Y-91327113D01*
X136605871Y-91327112D01*
X136529300Y-91271480D01*
X136452728Y-91215847D01*
X136279810Y-91138858D01*
X136279796Y-91138854D01*
X136094646Y-91099500D01*
X135905354Y-91099500D01*
X135720203Y-91138854D01*
X135720189Y-91138858D01*
X135547269Y-91215848D01*
X135547268Y-91215849D01*
X135394358Y-91326945D01*
X135306128Y-91367620D01*
X135248000Y-91374500D01*
X131962230Y-91374500D01*
X131866942Y-91355546D01*
X131786160Y-91301570D01*
X115285860Y-74801270D01*
X115285858Y-74801267D01*
X115198733Y-74714142D01*
X115140153Y-74675000D01*
X115139557Y-74674602D01*
X115096288Y-74645689D01*
X115096286Y-74645688D01*
X115015792Y-74612347D01*
X115015791Y-74612346D01*
X114982452Y-74598537D01*
X114930759Y-74588255D01*
X114901585Y-74582452D01*
X114901583Y-74582451D01*
X114901580Y-74582450D01*
X114861610Y-74574500D01*
X114861607Y-74574500D01*
X114861606Y-74574500D01*
X112744462Y-74574500D01*
X112649174Y-74555546D01*
X112568392Y-74501570D01*
X112559420Y-74492114D01*
X112484304Y-74408690D01*
X112434629Y-74325195D01*
X112420687Y-74229045D01*
X112444602Y-74134880D01*
X112493273Y-74066010D01*
X112733355Y-73825930D01*
X112814137Y-73771954D01*
X112909424Y-73753000D01*
X114814351Y-73753000D01*
X114814354Y-73753000D01*
X114814357Y-73752999D01*
X114814363Y-73752999D01*
X114921072Y-73736097D01*
X115040245Y-73717222D01*
X115257758Y-73646548D01*
X115461538Y-73542717D01*
X115646566Y-73408286D01*
X115654852Y-73400000D01*
X118494540Y-73400000D01*
X118514325Y-73588255D01*
X118524896Y-73620788D01*
X118572821Y-73768284D01*
X118657217Y-73914462D01*
X118667469Y-73932219D01*
X118757057Y-74031716D01*
X118794129Y-74072888D01*
X118879454Y-74134880D01*
X118947271Y-74184152D01*
X119120189Y-74261141D01*
X119120192Y-74261142D01*
X119120197Y-74261144D01*
X119305354Y-74300500D01*
X119507695Y-74300500D01*
X119507695Y-74303837D01*
X119580493Y-74310501D01*
X119666490Y-74355708D01*
X119728641Y-74430383D01*
X119757484Y-74523158D01*
X119764326Y-74588256D01*
X119822821Y-74768284D01*
X119899887Y-74901766D01*
X119917469Y-74932219D01*
X120044126Y-75072885D01*
X120044129Y-75072888D01*
X120158984Y-75156335D01*
X120197271Y-75184152D01*
X120370189Y-75261141D01*
X120370192Y-75261142D01*
X120370197Y-75261144D01*
X120555354Y-75300500D01*
X120744645Y-75300500D01*
X120744646Y-75300500D01*
X120929803Y-75261144D01*
X120979793Y-75238887D01*
X121102730Y-75184151D01*
X121102731Y-75184150D01*
X121255642Y-75073055D01*
X121343872Y-75032380D01*
X121402000Y-75025500D01*
X135648000Y-75025500D01*
X135743288Y-75044454D01*
X135794358Y-75073055D01*
X135947268Y-75184150D01*
X135947269Y-75184151D01*
X136120189Y-75261141D01*
X136120192Y-75261142D01*
X136120197Y-75261144D01*
X136305354Y-75300500D01*
X136494645Y-75300500D01*
X136494646Y-75300500D01*
X136679803Y-75261144D01*
X136729793Y-75238887D01*
X136852728Y-75184152D01*
X136852728Y-75184151D01*
X136852730Y-75184151D01*
X137005871Y-75072888D01*
X137132533Y-74932216D01*
X137227179Y-74768284D01*
X137285674Y-74588256D01*
X137305460Y-74400000D01*
X137285674Y-74211744D01*
X137227179Y-74031716D01*
X137132533Y-73867784D01*
X137132531Y-73867781D01*
X137132530Y-73867780D01*
X137005873Y-73727114D01*
X137005872Y-73727113D01*
X137005871Y-73727112D01*
X136929300Y-73671480D01*
X136852728Y-73615847D01*
X136679810Y-73538858D01*
X136679796Y-73538854D01*
X136494646Y-73499500D01*
X136305354Y-73499500D01*
X136120203Y-73538854D01*
X136120189Y-73538858D01*
X135947269Y-73615848D01*
X135947268Y-73615849D01*
X135794358Y-73726945D01*
X135706128Y-73767620D01*
X135648000Y-73774500D01*
X131142641Y-73774500D01*
X131047353Y-73755546D01*
X130966571Y-73701570D01*
X130912595Y-73620788D01*
X130893641Y-73525500D01*
X130895005Y-73499473D01*
X130905460Y-73400000D01*
X130885674Y-73211744D01*
X130827179Y-73031716D01*
X130732533Y-72867784D01*
X130732531Y-72867781D01*
X130732530Y-72867780D01*
X130605873Y-72727114D01*
X130605872Y-72727113D01*
X130605871Y-72727112D01*
X130529300Y-72671480D01*
X130452728Y-72615847D01*
X130279810Y-72538858D01*
X130279796Y-72538854D01*
X130094646Y-72499500D01*
X129905354Y-72499500D01*
X129720203Y-72538854D01*
X129720189Y-72538858D01*
X129547269Y-72615848D01*
X129547268Y-72615849D01*
X129394358Y-72726945D01*
X129306128Y-72767620D01*
X129248000Y-72774500D01*
X120152000Y-72774500D01*
X120056712Y-72755546D01*
X120005642Y-72726945D01*
X119852731Y-72615849D01*
X119852730Y-72615848D01*
X119679810Y-72538858D01*
X119679796Y-72538854D01*
X119494646Y-72499500D01*
X119305354Y-72499500D01*
X119120203Y-72538854D01*
X119120189Y-72538858D01*
X118947271Y-72615847D01*
X118794126Y-72727114D01*
X118667469Y-72867780D01*
X118572822Y-73031714D01*
X118514325Y-73211744D01*
X118494540Y-73400000D01*
X115654852Y-73400000D01*
X115808286Y-73246566D01*
X115942717Y-73061538D01*
X116046548Y-72857758D01*
X116117222Y-72640245D01*
X116139514Y-72499500D01*
X116152999Y-72414363D01*
X116153000Y-72414351D01*
X116153000Y-72185648D01*
X116152999Y-72185636D01*
X116117222Y-71959754D01*
X116046550Y-71742248D01*
X116046549Y-71742247D01*
X116046548Y-71742242D01*
X115942717Y-71538462D01*
X115808286Y-71353434D01*
X115646566Y-71191714D01*
X115461538Y-71057283D01*
X115257758Y-70953452D01*
X115257751Y-70953449D01*
X115040242Y-70882777D01*
X114814363Y-70847000D01*
X114814354Y-70847000D01*
X112090079Y-70847000D01*
X112090069Y-70847000D01*
X111864190Y-70882777D01*
X111646681Y-70953449D01*
X111646668Y-70953455D01*
X111505274Y-71025498D01*
X111505275Y-71025499D01*
X111442889Y-71057286D01*
X111257870Y-71191711D01*
X108629832Y-73819748D01*
X108549050Y-73873724D01*
X108453762Y-73892678D01*
X108358474Y-73873724D01*
X108277692Y-73819748D01*
X108252317Y-73790037D01*
X108208288Y-73729437D01*
X108208286Y-73729434D01*
X108046566Y-73567714D01*
X108006849Y-73538858D01*
X107861541Y-73433285D01*
X107861540Y-73433284D01*
X107861538Y-73433283D01*
X107657758Y-73329452D01*
X107657751Y-73329449D01*
X107440242Y-73258777D01*
X107214363Y-73223000D01*
X107214354Y-73223000D01*
X106985646Y-73223000D01*
X106985636Y-73223000D01*
X106759757Y-73258777D01*
X106542248Y-73329449D01*
X106542241Y-73329452D01*
X106338458Y-73433285D01*
X106153437Y-73567711D01*
X105991711Y-73729437D01*
X105857285Y-73914458D01*
X105753452Y-74118241D01*
X105753449Y-74118248D01*
X105682777Y-74335757D01*
X105647000Y-74561636D01*
X105647000Y-111414362D01*
X105682775Y-111640234D01*
X105682777Y-111640243D01*
X105682778Y-111640245D01*
X105753452Y-111857759D01*
X105857283Y-112061538D01*
X105857286Y-112061542D01*
X105995843Y-112252252D01*
X106036517Y-112340482D01*
X106040331Y-112437563D01*
X106006704Y-112528712D01*
X105970467Y-112574679D01*
X103491712Y-115053435D01*
X103357282Y-115238463D01*
X103357278Y-115238470D01*
X103253457Y-115442230D01*
X103253448Y-115442251D01*
X103182780Y-115659748D01*
X103182775Y-115659765D01*
X103147000Y-115885637D01*
X100500500Y-115885637D01*
X100500500Y-68326111D01*
X100501621Y-68302506D01*
X100502897Y-68289103D01*
X100502494Y-68277914D01*
X100501962Y-68271550D01*
X100500500Y-68260447D01*
X100500500Y-68260438D01*
X100497015Y-68247432D01*
X100491990Y-68224346D01*
X100489757Y-68211083D01*
X100489754Y-68211078D01*
X100486456Y-68200329D01*
X100484328Y-68194411D01*
X100480022Y-68184015D01*
X100480021Y-68184011D01*
X100473293Y-68172358D01*
X100462457Y-68151345D01*
X100457501Y-68140500D01*
X100456870Y-68139118D01*
X100456869Y-68139117D01*
X100456869Y-68139116D01*
X100450913Y-68129606D01*
X100447292Y-68124393D01*
X100440459Y-68115487D01*
X100430938Y-68105966D01*
X100415042Y-68088484D01*
X99397160Y-66856310D01*
X112349500Y-66856310D01*
X112349500Y-67043689D01*
X112349501Y-67043704D01*
X112378812Y-67228771D01*
X112378813Y-67228773D01*
X112436719Y-67406988D01*
X112436720Y-67406991D01*
X112521795Y-67573962D01*
X112631933Y-67725553D01*
X112631935Y-67725555D01*
X112631938Y-67725559D01*
X112764441Y-67858062D01*
X112764444Y-67858064D01*
X112764446Y-67858066D01*
X112916037Y-67968204D01*
X112916039Y-67968205D01*
X112916042Y-67968207D01*
X113083007Y-68053279D01*
X113261224Y-68111186D01*
X113261226Y-68111186D01*
X113261228Y-68111187D01*
X113367321Y-68127990D01*
X113446306Y-68140500D01*
X113446310Y-68140500D01*
X113633690Y-68140500D01*
X113633694Y-68140500D01*
X113757082Y-68120957D01*
X113818771Y-68111187D01*
X113818771Y-68111186D01*
X113818776Y-68111186D01*
X113996993Y-68053279D01*
X114163958Y-67968207D01*
X114315559Y-67858062D01*
X114448062Y-67725559D01*
X114558207Y-67573958D01*
X114643279Y-67406993D01*
X114701186Y-67228776D01*
X114730500Y-67043694D01*
X114730500Y-66856310D01*
X130129500Y-66856310D01*
X130129500Y-67043689D01*
X130129501Y-67043704D01*
X130158812Y-67228771D01*
X130158813Y-67228773D01*
X130216719Y-67406988D01*
X130216720Y-67406991D01*
X130301795Y-67573962D01*
X130411933Y-67725553D01*
X130411935Y-67725555D01*
X130411938Y-67725559D01*
X130544441Y-67858062D01*
X130544444Y-67858064D01*
X130544446Y-67858066D01*
X130696037Y-67968204D01*
X130696039Y-67968205D01*
X130696042Y-67968207D01*
X130863007Y-68053279D01*
X131041224Y-68111186D01*
X131041226Y-68111186D01*
X131041228Y-68111187D01*
X131147321Y-68127990D01*
X131226306Y-68140500D01*
X131226310Y-68140500D01*
X131413690Y-68140500D01*
X131413694Y-68140500D01*
X131537082Y-68120957D01*
X131598771Y-68111187D01*
X131598771Y-68111186D01*
X131598776Y-68111186D01*
X131776993Y-68053279D01*
X131943958Y-67968207D01*
X132095559Y-67858062D01*
X132228062Y-67725559D01*
X132338207Y-67573958D01*
X132423279Y-67406993D01*
X132481186Y-67228776D01*
X132510500Y-67043694D01*
X132510500Y-66856306D01*
X132483884Y-66688256D01*
X132481187Y-66671228D01*
X132481186Y-66671226D01*
X132481186Y-66671224D01*
X132425551Y-66500000D01*
X136294540Y-66500000D01*
X136314325Y-66688255D01*
X136326413Y-66725457D01*
X136372821Y-66868284D01*
X136372822Y-66868285D01*
X136467469Y-67032219D01*
X136594126Y-67172885D01*
X136594129Y-67172888D01*
X136671053Y-67228776D01*
X136747271Y-67284152D01*
X136920189Y-67361141D01*
X136920192Y-67361142D01*
X136920197Y-67361144D01*
X137105354Y-67400500D01*
X137112770Y-67400500D01*
X137208058Y-67419454D01*
X137288840Y-67473430D01*
X137444732Y-67629322D01*
X137498708Y-67710104D01*
X137517662Y-67805392D01*
X137498708Y-67900680D01*
X137453706Y-67972005D01*
X137367467Y-68067783D01*
X137272822Y-68231714D01*
X137214325Y-68411744D01*
X137194540Y-68600000D01*
X137214325Y-68788255D01*
X137229036Y-68833529D01*
X137272821Y-68968284D01*
X137367467Y-69132216D01*
X137367469Y-69132219D01*
X137494126Y-69272885D01*
X137494129Y-69272888D01*
X137608984Y-69356335D01*
X137647271Y-69384152D01*
X137820189Y-69461141D01*
X137820192Y-69461142D01*
X137820197Y-69461144D01*
X138005354Y-69500500D01*
X138012770Y-69500500D01*
X138108058Y-69519454D01*
X138188840Y-69573430D01*
X139201570Y-70586160D01*
X139255546Y-70666942D01*
X139274500Y-70762230D01*
X139274500Y-76453329D01*
X139255546Y-76548617D01*
X139210544Y-76619942D01*
X139167467Y-76667783D01*
X139072822Y-76831714D01*
X139014325Y-77011744D01*
X138994540Y-77200000D01*
X139014325Y-77388255D01*
X139043573Y-77478270D01*
X139072821Y-77568284D01*
X139072822Y-77568285D01*
X139167469Y-77732219D01*
X139294126Y-77872885D01*
X139294129Y-77872888D01*
X139408984Y-77956335D01*
X139447271Y-77984152D01*
X139620189Y-78061141D01*
X139620192Y-78061142D01*
X139620197Y-78061144D01*
X139805354Y-78100500D01*
X139994645Y-78100500D01*
X139994646Y-78100500D01*
X140179803Y-78061144D01*
X140352730Y-77984151D01*
X140505871Y-77872888D01*
X140632533Y-77732216D01*
X140727179Y-77568284D01*
X140785674Y-77388256D01*
X140805460Y-77200000D01*
X140785674Y-77011744D01*
X140727179Y-76831716D01*
X140632533Y-76667784D01*
X140589456Y-76619942D01*
X140539782Y-76536446D01*
X140525500Y-76453329D01*
X140525500Y-71311230D01*
X140544454Y-71215942D01*
X140598430Y-71135160D01*
X140679212Y-71081184D01*
X140774500Y-71062230D01*
X140869788Y-71081184D01*
X140950570Y-71135160D01*
X145302070Y-75486660D01*
X145356046Y-75567442D01*
X145375000Y-75662730D01*
X145375000Y-75756096D01*
X145356046Y-75851384D01*
X145302070Y-75932166D01*
X145221288Y-75986142D01*
X145177770Y-75999655D01*
X144995701Y-76038354D01*
X144995689Y-76038358D01*
X144822771Y-76115347D01*
X144669626Y-76226614D01*
X144542969Y-76367280D01*
X144448322Y-76531214D01*
X144389825Y-76711244D01*
X144370040Y-76899499D01*
X144370040Y-76899505D01*
X144375418Y-76950683D01*
X144371998Y-77025280D01*
X144349500Y-77138390D01*
X144349500Y-77138394D01*
X144349500Y-100336606D01*
X144373537Y-100457452D01*
X144375067Y-100461145D01*
X144387348Y-100490794D01*
X144387347Y-100490794D01*
X144420687Y-100571284D01*
X144420688Y-100571286D01*
X144454915Y-100622509D01*
X144489142Y-100673733D01*
X144576267Y-100760858D01*
X144576270Y-100760860D01*
X145922055Y-102106645D01*
X145976031Y-102187427D01*
X145994985Y-102282715D01*
X145994540Y-102291212D01*
X145994540Y-102299999D01*
X146014325Y-102488255D01*
X146043573Y-102578270D01*
X146072821Y-102668284D01*
X146072822Y-102668285D01*
X146167469Y-102832219D01*
X146294126Y-102972885D01*
X146294129Y-102972888D01*
X146408984Y-103056335D01*
X146447271Y-103084152D01*
X146620189Y-103161141D01*
X146620192Y-103161142D01*
X146620197Y-103161144D01*
X146805354Y-103200500D01*
X146994645Y-103200500D01*
X146994646Y-103200500D01*
X147179803Y-103161144D01*
X147352730Y-103084151D01*
X147505871Y-102972888D01*
X147632533Y-102832216D01*
X147727179Y-102668284D01*
X147785674Y-102488256D01*
X147805460Y-102300000D01*
X147785674Y-102111744D01*
X147727179Y-101931716D01*
X147632533Y-101767784D01*
X147632531Y-101767781D01*
X147632530Y-101767780D01*
X147505873Y-101627114D01*
X147505872Y-101627113D01*
X147505871Y-101627112D01*
X147429300Y-101571480D01*
X147352728Y-101515847D01*
X147179810Y-101438858D01*
X147179798Y-101438854D01*
X147053386Y-101411985D01*
X146964121Y-101373633D01*
X146929086Y-101344496D01*
X145673430Y-100088840D01*
X145619454Y-100008058D01*
X145600500Y-99912770D01*
X145600500Y-85200000D01*
X147494540Y-85200000D01*
X147514325Y-85388255D01*
X147543573Y-85478270D01*
X147572821Y-85568284D01*
X147572822Y-85568285D01*
X147667469Y-85732219D01*
X147794126Y-85872885D01*
X147794129Y-85872888D01*
X147908984Y-85956335D01*
X147947271Y-85984152D01*
X148120189Y-86061141D01*
X148120192Y-86061142D01*
X148120197Y-86061144D01*
X148305354Y-86100500D01*
X148312770Y-86100500D01*
X148408058Y-86119454D01*
X148488840Y-86173430D01*
X162314139Y-99998729D01*
X162314142Y-99998733D01*
X162401267Y-100085858D01*
X162503714Y-100154311D01*
X162503716Y-100154311D01*
X162503718Y-100154313D01*
X162579603Y-100185745D01*
X162617548Y-100201463D01*
X162677526Y-100213393D01*
X162738393Y-100225500D01*
X162738394Y-100225500D01*
X168848000Y-100225500D01*
X168943288Y-100244454D01*
X168994358Y-100273055D01*
X169147268Y-100384150D01*
X169147269Y-100384151D01*
X169320189Y-100461141D01*
X169320192Y-100461142D01*
X169320197Y-100461144D01*
X169505354Y-100500500D01*
X169694645Y-100500500D01*
X169694646Y-100500500D01*
X169879803Y-100461144D01*
X169888096Y-100457452D01*
X170052728Y-100384152D01*
X170052728Y-100384151D01*
X170052730Y-100384151D01*
X170205871Y-100272888D01*
X170332533Y-100132216D01*
X170427179Y-99968284D01*
X170485674Y-99788256D01*
X170505460Y-99600000D01*
X170485674Y-99411744D01*
X170427179Y-99231716D01*
X170332533Y-99067784D01*
X170332531Y-99067781D01*
X170332530Y-99067780D01*
X170205873Y-98927114D01*
X170205872Y-98927113D01*
X170205871Y-98927112D01*
X170129300Y-98871480D01*
X170052728Y-98815847D01*
X169879810Y-98738858D01*
X169879796Y-98738854D01*
X169694646Y-98699500D01*
X169505354Y-98699500D01*
X169320203Y-98738854D01*
X169320189Y-98738858D01*
X169147269Y-98815848D01*
X169147268Y-98815849D01*
X168994358Y-98926945D01*
X168906128Y-98967620D01*
X168848000Y-98974500D01*
X163162230Y-98974500D01*
X163066942Y-98955546D01*
X162986160Y-98901570D01*
X149370260Y-85285670D01*
X149316284Y-85204888D01*
X149298694Y-85135626D01*
X149285674Y-85011744D01*
X149227179Y-84831716D01*
X149132533Y-84667784D01*
X149132531Y-84667781D01*
X149132530Y-84667780D01*
X149005873Y-84527114D01*
X149005872Y-84527113D01*
X149005871Y-84527112D01*
X148929300Y-84471480D01*
X148852728Y-84415847D01*
X148679810Y-84338858D01*
X148679796Y-84338854D01*
X148494646Y-84299500D01*
X148305354Y-84299500D01*
X148120203Y-84338854D01*
X148120189Y-84338858D01*
X147947271Y-84415847D01*
X147794126Y-84527114D01*
X147667469Y-84667780D01*
X147572822Y-84831714D01*
X147514325Y-85011744D01*
X147494540Y-85200000D01*
X145600500Y-85200000D01*
X145600500Y-81543403D01*
X145619454Y-81448115D01*
X145673430Y-81367333D01*
X145754212Y-81313357D01*
X145797728Y-81299844D01*
X145979803Y-81261144D01*
X146152730Y-81184151D01*
X146305871Y-81072888D01*
X146432533Y-80932216D01*
X146527179Y-80768284D01*
X146585674Y-80588256D01*
X146605460Y-80400000D01*
X146600080Y-80348816D01*
X146603500Y-80274220D01*
X146626000Y-80161106D01*
X146626000Y-75238894D01*
X146625999Y-75238887D01*
X146624719Y-75232453D01*
X146624715Y-75232434D01*
X146601964Y-75118052D01*
X146601963Y-75118050D01*
X146601963Y-75118048D01*
X146554811Y-75004214D01*
X146554810Y-75004212D01*
X146554809Y-75004210D01*
X146554807Y-75004208D01*
X146486360Y-74901770D01*
X146486359Y-74901769D01*
X146486357Y-74901766D01*
X138170259Y-66585669D01*
X138116284Y-66504888D01*
X138098694Y-66435626D01*
X138085674Y-66311744D01*
X138027179Y-66131716D01*
X137932533Y-65967784D01*
X137932531Y-65967781D01*
X137932530Y-65967780D01*
X137805873Y-65827114D01*
X137805872Y-65827113D01*
X137805871Y-65827112D01*
X137712811Y-65759500D01*
X137652728Y-65715847D01*
X137479810Y-65638858D01*
X137479796Y-65638854D01*
X137294646Y-65599500D01*
X137105354Y-65599500D01*
X136920203Y-65638854D01*
X136920189Y-65638858D01*
X136747271Y-65715847D01*
X136594126Y-65827114D01*
X136467469Y-65967780D01*
X136372822Y-66131714D01*
X136314325Y-66311744D01*
X136294540Y-66500000D01*
X132425551Y-66500000D01*
X132423279Y-66493007D01*
X132338207Y-66326042D01*
X132338205Y-66326039D01*
X132338204Y-66326037D01*
X132228066Y-66174446D01*
X132228064Y-66174444D01*
X132228062Y-66174441D01*
X132095559Y-66041938D01*
X132095555Y-66041935D01*
X132095553Y-66041933D01*
X131943962Y-65931795D01*
X131776991Y-65846720D01*
X131776988Y-65846719D01*
X131598773Y-65788813D01*
X131598771Y-65788812D01*
X131413704Y-65759501D01*
X131413697Y-65759500D01*
X131413694Y-65759500D01*
X131226306Y-65759500D01*
X131226303Y-65759500D01*
X131226295Y-65759501D01*
X131041228Y-65788812D01*
X131041226Y-65788813D01*
X130863011Y-65846719D01*
X130863008Y-65846720D01*
X130696037Y-65931795D01*
X130544446Y-66041933D01*
X130411933Y-66174446D01*
X130301795Y-66326037D01*
X130216720Y-66493008D01*
X130216719Y-66493011D01*
X130158813Y-66671226D01*
X130158812Y-66671228D01*
X130129501Y-66856295D01*
X130129500Y-66856310D01*
X114730500Y-66856310D01*
X114730500Y-66856306D01*
X114703884Y-66688256D01*
X114701187Y-66671228D01*
X114701186Y-66671226D01*
X114701186Y-66671224D01*
X114643279Y-66493007D01*
X114558207Y-66326042D01*
X114558205Y-66326039D01*
X114558204Y-66326037D01*
X114448066Y-66174446D01*
X114448064Y-66174444D01*
X114448062Y-66174441D01*
X114315559Y-66041938D01*
X114315555Y-66041935D01*
X114315553Y-66041933D01*
X114163962Y-65931795D01*
X113996991Y-65846720D01*
X113996988Y-65846719D01*
X113818773Y-65788813D01*
X113818771Y-65788812D01*
X113633704Y-65759501D01*
X113633697Y-65759500D01*
X113633694Y-65759500D01*
X113446306Y-65759500D01*
X113446303Y-65759500D01*
X113446295Y-65759501D01*
X113261228Y-65788812D01*
X113261226Y-65788813D01*
X113083011Y-65846719D01*
X113083008Y-65846720D01*
X112916037Y-65931795D01*
X112764446Y-66041933D01*
X112631933Y-66174446D01*
X112521795Y-66326037D01*
X112436720Y-66493008D01*
X112436719Y-66493011D01*
X112378813Y-66671226D01*
X112378812Y-66671228D01*
X112349501Y-66856295D01*
X112349500Y-66856310D01*
X99397160Y-66856310D01*
X98657530Y-65960968D01*
X98611456Y-65875433D01*
X98600500Y-65802385D01*
X98600500Y-61500000D01*
X111394540Y-61500000D01*
X111414325Y-61688255D01*
X111443573Y-61778270D01*
X111472821Y-61868284D01*
X111540703Y-61985859D01*
X111567469Y-62032219D01*
X111657655Y-62132380D01*
X111694129Y-62172888D01*
X111808984Y-62256335D01*
X111847271Y-62284152D01*
X112020189Y-62361141D01*
X112020192Y-62361142D01*
X112020197Y-62361144D01*
X112205354Y-62400500D01*
X112394645Y-62400500D01*
X112394646Y-62400500D01*
X112579803Y-62361144D01*
X112752730Y-62284151D01*
X112824213Y-62232216D01*
X112905642Y-62173055D01*
X112993872Y-62132380D01*
X113052000Y-62125500D01*
X119561607Y-62125500D01*
X119622029Y-62113481D01*
X119682452Y-62101463D01*
X119732496Y-62080734D01*
X119796286Y-62054312D01*
X119847509Y-62020084D01*
X119898733Y-61985858D01*
X119985858Y-61898733D01*
X119985858Y-61898731D01*
X120006358Y-61878232D01*
X120006359Y-61878229D01*
X120386161Y-61498430D01*
X120466943Y-61444454D01*
X120562230Y-61425500D01*
X121276849Y-61425500D01*
X121372137Y-61444454D01*
X121452919Y-61498430D01*
X121506895Y-61579212D01*
X121525849Y-61674500D01*
X121524540Y-61699465D01*
X121524540Y-61699999D01*
X121544325Y-61888255D01*
X121547729Y-61898730D01*
X121602821Y-62068284D01*
X121697467Y-62232216D01*
X121697469Y-62232219D01*
X121824126Y-62372885D01*
X121824129Y-62372888D01*
X121938984Y-62456335D01*
X121977271Y-62484152D01*
X122150189Y-62561141D01*
X122150192Y-62561142D01*
X122150197Y-62561144D01*
X122335354Y-62600500D01*
X122524645Y-62600500D01*
X122524646Y-62600500D01*
X122709803Y-62561144D01*
X122882730Y-62484151D01*
X122929405Y-62450239D01*
X123035642Y-62373055D01*
X123123872Y-62332380D01*
X123182000Y-62325500D01*
X152837770Y-62325500D01*
X152933058Y-62344454D01*
X153013840Y-62398430D01*
X165629739Y-75014329D01*
X165683715Y-75095111D01*
X165701305Y-75164371D01*
X165714326Y-75288255D01*
X165714326Y-75288256D01*
X165772821Y-75468284D01*
X165830070Y-75567442D01*
X165867469Y-75632219D01*
X165979009Y-75756096D01*
X165994129Y-75772888D01*
X166092632Y-75844454D01*
X166147271Y-75884152D01*
X166320189Y-75961141D01*
X166320192Y-75961142D01*
X166320197Y-75961144D01*
X166505354Y-76000500D01*
X166694645Y-76000500D01*
X166694646Y-76000500D01*
X166879803Y-75961144D01*
X166992104Y-75911144D01*
X167052728Y-75884152D01*
X167052728Y-75884151D01*
X167052730Y-75884151D01*
X167205871Y-75772888D01*
X167332533Y-75632216D01*
X167427179Y-75468284D01*
X167485674Y-75288256D01*
X167505460Y-75100000D01*
X167485674Y-74911744D01*
X167427179Y-74731716D01*
X167332533Y-74567784D01*
X167332531Y-74567781D01*
X167332530Y-74567780D01*
X167205873Y-74427114D01*
X167205872Y-74427113D01*
X167205871Y-74427112D01*
X167129300Y-74371480D01*
X167052728Y-74315847D01*
X166879810Y-74238858D01*
X166879796Y-74238854D01*
X166694646Y-74199500D01*
X166687230Y-74199500D01*
X166591942Y-74180546D01*
X166511160Y-74126570D01*
X153685860Y-61301270D01*
X153685858Y-61301267D01*
X153598733Y-61214142D01*
X153530102Y-61168284D01*
X153496286Y-61145688D01*
X153415792Y-61112347D01*
X153415791Y-61112346D01*
X153397554Y-61104792D01*
X153382452Y-61098537D01*
X153382449Y-61098536D01*
X153382446Y-61098535D01*
X153322032Y-61086518D01*
X153261612Y-61074500D01*
X153261607Y-61074500D01*
X153261606Y-61074500D01*
X137553151Y-61074500D01*
X137457863Y-61055546D01*
X137377081Y-61001570D01*
X137323105Y-60920788D01*
X137304151Y-60825500D01*
X137305460Y-60800534D01*
X137305460Y-60800000D01*
X137285674Y-60611744D01*
X137281696Y-60599500D01*
X137227179Y-60431716D01*
X137132533Y-60267784D01*
X137132531Y-60267781D01*
X137132530Y-60267780D01*
X137005873Y-60127114D01*
X137005872Y-60127113D01*
X137005871Y-60127112D01*
X136929300Y-60071480D01*
X136852728Y-60015847D01*
X136679810Y-59938858D01*
X136679796Y-59938854D01*
X136494646Y-59899500D01*
X136305354Y-59899500D01*
X136120203Y-59938854D01*
X136120189Y-59938858D01*
X135947269Y-60015848D01*
X135947268Y-60015849D01*
X135794358Y-60126945D01*
X135706128Y-60167620D01*
X135648000Y-60174500D01*
X120261606Y-60174500D01*
X120138393Y-60174500D01*
X120017548Y-60198537D01*
X120017547Y-60198537D01*
X120017544Y-60198538D01*
X119903710Y-60245690D01*
X119903708Y-60245692D01*
X119801269Y-60314139D01*
X119801265Y-60314143D01*
X119313841Y-60801569D01*
X119233059Y-60855546D01*
X119137771Y-60874500D01*
X113052000Y-60874500D01*
X112956712Y-60855546D01*
X112905642Y-60826945D01*
X112752731Y-60715849D01*
X112752730Y-60715848D01*
X112579810Y-60638858D01*
X112579796Y-60638854D01*
X112394646Y-60599500D01*
X112205354Y-60599500D01*
X112020203Y-60638854D01*
X112020189Y-60638858D01*
X111847271Y-60715847D01*
X111694126Y-60827114D01*
X111567469Y-60967780D01*
X111472822Y-61131714D01*
X111414325Y-61311744D01*
X111394540Y-61500000D01*
X98600500Y-61500000D01*
X98600500Y-57564100D01*
X103931253Y-57564100D01*
X103950625Y-57921413D01*
X104008515Y-58274531D01*
X104008518Y-58274542D01*
X104104251Y-58619345D01*
X104236702Y-58951769D01*
X104236703Y-58951770D01*
X104404317Y-59267925D01*
X104574364Y-59518726D01*
X105807827Y-58285262D01*
X105867657Y-58402683D01*
X106015688Y-58606430D01*
X106193770Y-58784512D01*
X106397517Y-58932543D01*
X106514935Y-58992370D01*
X105282812Y-60224494D01*
X105381451Y-60299478D01*
X105688086Y-60483973D01*
X106012842Y-60634223D01*
X106351958Y-60748483D01*
X106351972Y-60748487D01*
X106701439Y-60825411D01*
X106701436Y-60825411D01*
X107057173Y-60864100D01*
X107415027Y-60864100D01*
X107770761Y-60825411D01*
X108120227Y-60748487D01*
X108120241Y-60748483D01*
X108459357Y-60634223D01*
X108784113Y-60483973D01*
X109090741Y-60299482D01*
X109189386Y-60224494D01*
X107957263Y-58992371D01*
X108074683Y-58932543D01*
X108278430Y-58784512D01*
X108456512Y-58606430D01*
X108604543Y-58402683D01*
X108664371Y-58285263D01*
X109897834Y-59518726D01*
X110067878Y-59267933D01*
X110067879Y-59267931D01*
X110235496Y-58951770D01*
X110235497Y-58951769D01*
X110367948Y-58619345D01*
X110463681Y-58274542D01*
X110463684Y-58274531D01*
X110521574Y-57921413D01*
X110540946Y-57564100D01*
X177591253Y-57564100D01*
X177610625Y-57921413D01*
X177668515Y-58274531D01*
X177668518Y-58274542D01*
X177764251Y-58619345D01*
X177896702Y-58951769D01*
X177896703Y-58951770D01*
X178064317Y-59267925D01*
X178234364Y-59518726D01*
X179467827Y-58285262D01*
X179527657Y-58402683D01*
X179675688Y-58606430D01*
X179853770Y-58784512D01*
X180057517Y-58932543D01*
X180174935Y-58992370D01*
X178942812Y-60224494D01*
X179041451Y-60299478D01*
X179348086Y-60483973D01*
X179672842Y-60634223D01*
X180011958Y-60748483D01*
X180011972Y-60748487D01*
X180361439Y-60825411D01*
X180361436Y-60825411D01*
X180717173Y-60864100D01*
X181075027Y-60864100D01*
X181430761Y-60825411D01*
X181780227Y-60748487D01*
X181780241Y-60748483D01*
X182119357Y-60634223D01*
X182444113Y-60483973D01*
X182750741Y-60299482D01*
X182849386Y-60224494D01*
X181617263Y-58992371D01*
X181734683Y-58932543D01*
X181938430Y-58784512D01*
X182116512Y-58606430D01*
X182264543Y-58402683D01*
X182324371Y-58285263D01*
X183557834Y-59518726D01*
X183727878Y-59267933D01*
X183727879Y-59267931D01*
X183895496Y-58951770D01*
X183895497Y-58951769D01*
X184027948Y-58619345D01*
X184123681Y-58274542D01*
X184123684Y-58274531D01*
X184181574Y-57921413D01*
X184200946Y-57564100D01*
X184181574Y-57206786D01*
X184123684Y-56853668D01*
X184123681Y-56853657D01*
X184027948Y-56508854D01*
X183895497Y-56176430D01*
X183895496Y-56176429D01*
X183727879Y-55860268D01*
X183727878Y-55860266D01*
X183557834Y-55609472D01*
X182324370Y-56842935D01*
X182264543Y-56725517D01*
X182116512Y-56521770D01*
X181938430Y-56343688D01*
X181734683Y-56195657D01*
X181617263Y-56135828D01*
X182849386Y-54903705D01*
X182750741Y-54828717D01*
X182444113Y-54644226D01*
X182119357Y-54493976D01*
X181780241Y-54379716D01*
X181780227Y-54379712D01*
X181672503Y-54356000D01*
X185430659Y-54356000D01*
X185449975Y-54552131D01*
X185507185Y-54740725D01*
X185507188Y-54740733D01*
X185600088Y-54914536D01*
X185600090Y-54914538D01*
X185725117Y-55066883D01*
X185834870Y-55156955D01*
X185877463Y-55191911D01*
X186051266Y-55284811D01*
X186051270Y-55284812D01*
X186051273Y-55284814D01*
X186239868Y-55342024D01*
X186436000Y-55361341D01*
X186632132Y-55342024D01*
X186820727Y-55284814D01*
X186994538Y-55191910D01*
X187146883Y-55066883D01*
X187271910Y-54914538D01*
X187364814Y-54740727D01*
X187422024Y-54552132D01*
X187441341Y-54356000D01*
X187422024Y-54159868D01*
X187364814Y-53971273D01*
X187364812Y-53971270D01*
X187364811Y-53971266D01*
X187271911Y-53797463D01*
X187146885Y-53645120D01*
X187146883Y-53645117D01*
X187051603Y-53566922D01*
X186994536Y-53520088D01*
X186820733Y-53427188D01*
X186820725Y-53427185D01*
X186632131Y-53369975D01*
X186436000Y-53350659D01*
X186239868Y-53369975D01*
X186051274Y-53427185D01*
X186051266Y-53427188D01*
X185877463Y-53520088D01*
X185725120Y-53645114D01*
X185725114Y-53645120D01*
X185600088Y-53797463D01*
X185507188Y-53971266D01*
X185507185Y-53971274D01*
X185449975Y-54159868D01*
X185430659Y-54356000D01*
X181672503Y-54356000D01*
X181430760Y-54302788D01*
X181430763Y-54302788D01*
X181075027Y-54264100D01*
X180717173Y-54264100D01*
X180361438Y-54302788D01*
X180011972Y-54379712D01*
X180011958Y-54379716D01*
X179672842Y-54493976D01*
X179348086Y-54644226D01*
X179041459Y-54828717D01*
X178942812Y-54903704D01*
X180174936Y-56135828D01*
X180057517Y-56195657D01*
X179853770Y-56343688D01*
X179675688Y-56521770D01*
X179527657Y-56725517D01*
X179467828Y-56842936D01*
X178234364Y-55609472D01*
X178064317Y-55860273D01*
X177896703Y-56176429D01*
X177896702Y-56176430D01*
X177764251Y-56508854D01*
X177668518Y-56853657D01*
X177668515Y-56853668D01*
X177610625Y-57206786D01*
X177591253Y-57564100D01*
X110540946Y-57564100D01*
X110521574Y-57206786D01*
X110463684Y-56853668D01*
X110463681Y-56853657D01*
X110367948Y-56508854D01*
X110235497Y-56176430D01*
X110235496Y-56176429D01*
X110067879Y-55860268D01*
X110067878Y-55860266D01*
X109897834Y-55609472D01*
X108664370Y-56842935D01*
X108604543Y-56725517D01*
X108456512Y-56521770D01*
X108278430Y-56343688D01*
X108074683Y-56195657D01*
X107957263Y-56135828D01*
X109189386Y-54903705D01*
X109090741Y-54828717D01*
X108784113Y-54644226D01*
X108459357Y-54493976D01*
X108120241Y-54379716D01*
X108120227Y-54379712D01*
X107770760Y-54302788D01*
X107770763Y-54302788D01*
X107415027Y-54264100D01*
X107057173Y-54264100D01*
X106701438Y-54302788D01*
X106351972Y-54379712D01*
X106351958Y-54379716D01*
X106012842Y-54493976D01*
X105688086Y-54644226D01*
X105381459Y-54828717D01*
X105282812Y-54903704D01*
X106514936Y-56135828D01*
X106397517Y-56195657D01*
X106193770Y-56343688D01*
X106015688Y-56521770D01*
X105867657Y-56725517D01*
X105807828Y-56842936D01*
X104574364Y-55609472D01*
X104404317Y-55860273D01*
X104236703Y-56176429D01*
X104236702Y-56176430D01*
X104104251Y-56508854D01*
X104008518Y-56853657D01*
X104008515Y-56853668D01*
X103950625Y-57206786D01*
X103931253Y-57564100D01*
X98600500Y-57564100D01*
X98600500Y-54864000D01*
X99832659Y-54864000D01*
X99851975Y-55060131D01*
X99909185Y-55248725D01*
X99909188Y-55248733D01*
X100002088Y-55422536D01*
X100002090Y-55422538D01*
X100127117Y-55574883D01*
X100169264Y-55609472D01*
X100279463Y-55699911D01*
X100453266Y-55792811D01*
X100453270Y-55792812D01*
X100453273Y-55792814D01*
X100641868Y-55850024D01*
X100838000Y-55869341D01*
X101034132Y-55850024D01*
X101222727Y-55792814D01*
X101396538Y-55699910D01*
X101548883Y-55574883D01*
X101673910Y-55422538D01*
X101766814Y-55248727D01*
X101824024Y-55060132D01*
X101843341Y-54864000D01*
X101824024Y-54667868D01*
X101766814Y-54479273D01*
X101766812Y-54479270D01*
X101766811Y-54479266D01*
X101673911Y-54305463D01*
X101548885Y-54153120D01*
X101548883Y-54153117D01*
X101465353Y-54084565D01*
X101396536Y-54028088D01*
X101222733Y-53935188D01*
X101222725Y-53935185D01*
X101034131Y-53877975D01*
X100838000Y-53858659D01*
X100641868Y-53877975D01*
X100453274Y-53935185D01*
X100453266Y-53935188D01*
X100279463Y-54028088D01*
X100127120Y-54153114D01*
X100127114Y-54153120D01*
X100002088Y-54305463D01*
X99909188Y-54479266D01*
X99909185Y-54479274D01*
X99851975Y-54667868D01*
X99832659Y-54864000D01*
X98600500Y-54864000D01*
X98600500Y-54508898D01*
X98601134Y-54491136D01*
X98603329Y-54460438D01*
X98616528Y-54275884D01*
X98621582Y-54240740D01*
X98665558Y-54038587D01*
X98675559Y-54004526D01*
X98747861Y-53810675D01*
X98762607Y-53778384D01*
X98861762Y-53596798D01*
X98880956Y-53566932D01*
X99004935Y-53401315D01*
X99028187Y-53374480D01*
X99174480Y-53228187D01*
X99201315Y-53204935D01*
X99366932Y-53080956D01*
X99396798Y-53061762D01*
X99578384Y-52962607D01*
X99610675Y-52947861D01*
X99804526Y-52875559D01*
X99838587Y-52865558D01*
X100040740Y-52821582D01*
X100075884Y-52816528D01*
X100281837Y-52801799D01*
X100291136Y-52801134D01*
X100308898Y-52800500D01*
X100347595Y-52800500D01*
X110743393Y-52800500D01*
X110838681Y-52819454D01*
G37*
%TD.AperFunction*%
M02*
