%TF.GenerationSoftware,KiCad,Pcbnew,9.0.0*%
%TF.CreationDate,2025-03-08T12:40:55-08:00*%
%TF.ProjectId,Coil_Panel_Z,436f696c-5f50-4616-9e65-6c5f5a2e6b69,1.0*%
%TF.SameCoordinates,Original*%
%TF.FileFunction,Copper,L2,Inr*%
%TF.FilePolarity,Positive*%
%FSLAX46Y46*%
G04 Gerber Fmt 4.6, Leading zero omitted, Abs format (unit mm)*
G04 Created by KiCad (PCBNEW 9.0.0) date 2025-03-08 12:40:55*
%MOMM*%
%LPD*%
G01*
G04 APERTURE LIST*
%TA.AperFunction,ComponentPad*%
%ADD10C,4.700000*%
%TD*%
%TA.AperFunction,ComponentPad*%
%ADD11C,2.600000*%
%TD*%
%TA.AperFunction,ViaPad*%
%ADD12C,0.650000*%
%TD*%
%TA.AperFunction,Conductor*%
%ADD13C,0.170000*%
%TD*%
G04 APERTURE END LIST*
D10*
X189637061Y-138948940D03*
X104641451Y-53941800D03*
X104637051Y-138948990D03*
X189636861Y-53948740D03*
D11*
X113784000Y-140074000D03*
X121404000Y-140074000D03*
D12*
X128272000Y-117084000D03*
X122514000Y-136394000D03*
X130304000Y-117084000D03*
X126240000Y-117084000D03*
X127256000Y-117084000D03*
X129288000Y-117084000D03*
X121594000Y-136404000D03*
X119689000Y-136424000D03*
X120674000Y-136414000D03*
D13*
X184989000Y-58249000D02*
X185359000Y-58619000D01*
X116609000Y-127369000D02*
X116239000Y-126999000D01*
X118459000Y-67499000D02*
X175739000Y-67499000D01*
X124009000Y-73789000D02*
X124009000Y-119229000D01*
X175369000Y-68609000D02*
X175369000Y-124039000D01*
X182029000Y-130699000D02*
X181659000Y-131069000D01*
X111429000Y-61209000D02*
X111429000Y-131809000D01*
X174259000Y-68979000D02*
X174629000Y-69349000D01*
X119569000Y-68609000D02*
X174629000Y-68609000D01*
X185359000Y-57879000D02*
X185729000Y-58249000D01*
X180919000Y-129589000D02*
X180549000Y-129959000D01*
X180549000Y-129219000D02*
X180179000Y-129589000D01*
X179809000Y-128479000D02*
X179439000Y-128849000D01*
X118089000Y-67869000D02*
X118089000Y-125149000D01*
X171669000Y-121079000D02*
X122899000Y-121079000D01*
X183138999Y-60099000D02*
X183508999Y-60469000D01*
X177589000Y-66389000D02*
X177589000Y-126259000D01*
X178328999Y-127739000D02*
X116239000Y-127739000D01*
X120309000Y-70089000D02*
X120309000Y-122929000D01*
X184619000Y-134029000D02*
X109949000Y-134029000D01*
X124749000Y-74529000D02*
X125119000Y-74159000D01*
X181289000Y-129959000D02*
X180919000Y-130329000D01*
X121419000Y-122559000D02*
X121049000Y-122189000D01*
X178328999Y-64909000D02*
X178698999Y-65279000D01*
X123269000Y-73049000D02*
X123639000Y-72679000D01*
X176479000Y-125889000D02*
X118089000Y-125889000D01*
X173148999Y-122559000D02*
X121419000Y-122559000D01*
X117349000Y-126629000D02*
X116979000Y-126259000D01*
X170929000Y-119599000D02*
X170559000Y-119969000D01*
X111059000Y-60099000D02*
X183138999Y-60099000D01*
X124009000Y-119969000D02*
X123639000Y-119599000D01*
X173518999Y-122189000D02*
X173148999Y-122559000D01*
X114759000Y-129219000D02*
X114389000Y-128849000D01*
X182398999Y-131809000D02*
X112169000Y-131809000D01*
X123639000Y-120339000D02*
X123269000Y-119969000D01*
X123639000Y-73419000D02*
X124009000Y-73049000D01*
X186099000Y-134769000D02*
X185729000Y-135139000D01*
X124379000Y-119599000D02*
X124009000Y-119229000D01*
X109579000Y-59359000D02*
X109949000Y-58989000D01*
X125489000Y-74529000D02*
X168708999Y-74529000D01*
X168339000Y-74899000D02*
X168709000Y-75269000D01*
X171669000Y-120339000D02*
X171299000Y-120709000D01*
X168709000Y-117379000D02*
X168339000Y-117749000D01*
X108469000Y-135509000D02*
X108099000Y-135139000D01*
X176109000Y-67129000D02*
X176479000Y-67499000D01*
X125119000Y-74899000D02*
X125489000Y-74529000D01*
X121049000Y-70829000D02*
X121049000Y-122188999D01*
X122529000Y-121449000D02*
X122159000Y-121079000D01*
X182768999Y-132179000D02*
X111799000Y-132179000D01*
X110689000Y-60469000D02*
X111059000Y-60099000D01*
X120309000Y-70089000D02*
X120679000Y-69719000D01*
X119209000Y-135879000D02*
X119764000Y-136434000D01*
X114389000Y-64169000D02*
X114759000Y-63799000D01*
X169448999Y-118859000D02*
X125119000Y-118859000D01*
X175369000Y-67869000D02*
X175739000Y-68239000D01*
X109949000Y-58989000D02*
X184249000Y-58989000D01*
X176849000Y-67129000D02*
X176849000Y-125519000D01*
X173518999Y-122929000D02*
X121049000Y-122929000D01*
X178698999Y-127369000D02*
X178328999Y-127739000D01*
X110689000Y-59729000D02*
X183509000Y-59729000D01*
X110689000Y-60469000D02*
X110689000Y-132549000D01*
X177219000Y-125889000D02*
X176849000Y-126259000D01*
X120309000Y-123669000D02*
X119939000Y-123299000D01*
X121049000Y-70829000D02*
X121419000Y-70459000D01*
X122159000Y-71939000D02*
X122159000Y-121079000D01*
X120309000Y-69349000D02*
X173888999Y-69349000D01*
X180179000Y-63799000D02*
X180179000Y-128849000D01*
X173888999Y-69349000D02*
X174258999Y-69719000D01*
X125489000Y-118489000D02*
X125119000Y-118119000D01*
X117349000Y-67129000D02*
X117349000Y-125889000D01*
X183879000Y-133289000D02*
X110689000Y-133289000D01*
X121789000Y-70829000D02*
X172409000Y-70829000D01*
X122159000Y-71939000D02*
X122529000Y-71569000D01*
X123639000Y-73419000D02*
X123639000Y-119598999D01*
X107729000Y-57509000D02*
X107729000Y-135509000D01*
X182028999Y-61209000D02*
X182398999Y-61579000D01*
X125489000Y-75269000D02*
X125859000Y-74899000D01*
X119939000Y-69719000D02*
X119939000Y-123299000D01*
X184619000Y-59359000D02*
X184619000Y-133289000D01*
X116609000Y-65649000D02*
X177589000Y-65649000D01*
X119199000Y-68239000D02*
X174999000Y-68239000D01*
X114019000Y-63059000D02*
X180179000Y-63059000D01*
X170559000Y-72679000D02*
X170929000Y-73049000D01*
X170929000Y-72309000D02*
X171299000Y-72679000D01*
X114019000Y-63799000D02*
X114019000Y-129218999D01*
X113279000Y-63059000D02*
X113279000Y-129959000D01*
X125859000Y-74899000D02*
X168339000Y-74899000D01*
X112539000Y-62319000D02*
X112909000Y-61949000D01*
X117349000Y-66389000D02*
X176849000Y-66389000D01*
X178328999Y-65649000D02*
X178328999Y-126999000D01*
X185359000Y-58619000D02*
X185359000Y-134029000D01*
X123269000Y-73049000D02*
X123269000Y-119968999D01*
X108099000Y-135879000D02*
X119209000Y-135879000D01*
X173149000Y-121819000D02*
X172779000Y-122189000D01*
X111429000Y-132549000D02*
X111059000Y-132179000D01*
X185729000Y-134399000D02*
X185359000Y-134769000D01*
X169819000Y-73419000D02*
X170189000Y-73789000D01*
X118459000Y-68239000D02*
X118459000Y-124779000D01*
X118459000Y-125519000D02*
X118089000Y-125149000D01*
X121419000Y-70459000D02*
X172779000Y-70459000D01*
X174629000Y-68609000D02*
X174999000Y-68979000D01*
X115499000Y-64539000D02*
X178698999Y-64539000D01*
X176479000Y-67499000D02*
X176479000Y-125149000D01*
X112909000Y-131069000D02*
X112539000Y-130699000D01*
X169448999Y-118119000D02*
X169078999Y-118489000D01*
X173888999Y-70089000D02*
X173888999Y-122559000D01*
X109579000Y-134399000D02*
X109209000Y-134029000D01*
X177959000Y-66019000D02*
X177959000Y-126629000D01*
X112169000Y-61949000D02*
X112169000Y-131069000D01*
X121789000Y-71569000D02*
X121789000Y-121449000D01*
X113279000Y-63059000D02*
X113649000Y-62689000D01*
X182028999Y-131439000D02*
X112539000Y-131439000D01*
X111059000Y-60839000D02*
X111059000Y-132179000D01*
X114019000Y-63799000D02*
X114389000Y-63429000D01*
X124379000Y-74159000D02*
X124379000Y-118859000D01*
X109209000Y-134769000D02*
X108839000Y-134399000D01*
X177958999Y-127369000D02*
X116609000Y-127369000D01*
X115129000Y-64909000D02*
X115499000Y-64539000D01*
X185359000Y-134769000D02*
X109209000Y-134769000D01*
X122899000Y-72679000D02*
X122899000Y-120339000D01*
X185729000Y-135139000D02*
X108839000Y-135139000D01*
X177589000Y-126259000D02*
X177219000Y-126629000D01*
X114389000Y-63429000D02*
X179809000Y-63429000D01*
X169819000Y-119229000D02*
X124749000Y-119229000D01*
X108839000Y-135139000D02*
X108469000Y-134769000D01*
X108839000Y-58619000D02*
X109209000Y-58249000D01*
X125859000Y-118119000D02*
X125489000Y-117749000D01*
X114759000Y-64539000D02*
X115129000Y-64169000D01*
X178328999Y-126999000D02*
X177958999Y-127369000D01*
X174258999Y-122929000D02*
X173888999Y-123299000D01*
X173518999Y-70459000D02*
X173518999Y-122189000D01*
X170559000Y-119229000D02*
X170189000Y-119599000D01*
X171299000Y-71939000D02*
X171669000Y-72309000D01*
X184249000Y-59729000D02*
X184249000Y-132919000D01*
X183138999Y-60839000D02*
X183138999Y-131809000D01*
X184249000Y-132919000D02*
X183879000Y-133289000D01*
X182768999Y-61209000D02*
X182768999Y-131439000D01*
X114759000Y-63799000D02*
X179439000Y-63799000D01*
X116239000Y-127739000D02*
X115869000Y-127369000D01*
X169819000Y-74159000D02*
X169819000Y-118489000D01*
X179809000Y-63429000D02*
X180179000Y-63799000D01*
X111059000Y-132919000D02*
X110689000Y-132549000D01*
X178698999Y-64539000D02*
X179069000Y-64909000D01*
X184249000Y-58989000D02*
X184619000Y-59359000D01*
X115499000Y-65279000D02*
X115499000Y-127739000D01*
X174258999Y-69719000D02*
X174258999Y-122929000D01*
X170189000Y-118859000D02*
X169819000Y-119229000D01*
X119569000Y-69349000D02*
X119569000Y-123669000D01*
X172039000Y-121449000D02*
X122529000Y-121449000D01*
X110319000Y-133659000D02*
X109949000Y-133289000D01*
X172039000Y-71939000D02*
X172039000Y-120709000D01*
X176849000Y-66389000D02*
X177219000Y-66759000D01*
X124749000Y-73789000D02*
X169448999Y-73789000D01*
X175369000Y-124039000D02*
X174999000Y-124409000D01*
X183138999Y-132549000D02*
X111429000Y-132549000D01*
X125489000Y-117748999D02*
X125489000Y-75269000D01*
X175739000Y-68239000D02*
X175739000Y-124409000D01*
X109209000Y-58989000D02*
X109209000Y-134029000D01*
X123269000Y-72309000D02*
X170929000Y-72309000D01*
X176109000Y-125519000D02*
X118459000Y-125519000D01*
X121789000Y-122189000D02*
X121419000Y-121819000D01*
X110319000Y-60099000D02*
X110689000Y-59729000D01*
X180179000Y-63059000D02*
X180549000Y-63429000D01*
X116609000Y-66389000D02*
X116609000Y-126629000D01*
X186099000Y-57879000D02*
X186099000Y-134769000D01*
X179069000Y-64169000D02*
X179439000Y-64539000D01*
X115129000Y-64169000D02*
X179069000Y-64169000D01*
X118829000Y-67869000D02*
X175369000Y-67869000D01*
X177219000Y-126629000D02*
X117349000Y-126629000D01*
X117349000Y-67129000D02*
X117719000Y-66759000D01*
X173888999Y-123299000D02*
X120679000Y-123299000D01*
X114019000Y-129959000D02*
X113649000Y-129589000D01*
X170929000Y-120339000D02*
X123639000Y-120339000D01*
X184989000Y-133659000D02*
X184619000Y-134029000D01*
X177589000Y-126999000D02*
X116979000Y-126999000D01*
X115129000Y-64909000D02*
X115129000Y-128109000D01*
X118459000Y-68239000D02*
X118829000Y-67869000D01*
X122529000Y-72309000D02*
X122529000Y-120709000D01*
X174999000Y-123669000D02*
X174629000Y-124039000D01*
X119199000Y-124779000D02*
X118829000Y-124409000D01*
X186469000Y-135139000D02*
X186099000Y-135509000D01*
X116979000Y-66759000D02*
X117349000Y-66389000D01*
X172779000Y-121449000D02*
X172409000Y-121819000D01*
X122159000Y-71199000D02*
X172039000Y-71199000D01*
X113279000Y-62319000D02*
X180919000Y-62319000D01*
X118829000Y-68609000D02*
X118829000Y-124408999D01*
X176109000Y-67869000D02*
X176109000Y-124779000D01*
X119939000Y-68979000D02*
X174259000Y-68979000D01*
X176109000Y-124779000D02*
X175739000Y-125149000D01*
X124749000Y-119229000D02*
X124379000Y-118859000D01*
X172039000Y-120709000D02*
X171669000Y-121079000D01*
X169448999Y-74529000D02*
X169448999Y-118119000D01*
X181659000Y-131069000D02*
X112909000Y-131069000D01*
X184249000Y-133659000D02*
X110319000Y-133659000D01*
X110319000Y-59359000D02*
X183879000Y-59359000D01*
X171299000Y-120709000D02*
X123269000Y-120709000D01*
X115869000Y-65649000D02*
X116239000Y-65279000D01*
X175739000Y-124409000D02*
X175369000Y-124779000D01*
X110319000Y-60099000D02*
X110319000Y-132919000D01*
X168708999Y-74529000D02*
X169078999Y-74899000D01*
X124749000Y-74529000D02*
X124749000Y-118489000D01*
X120679000Y-70459000D02*
X121049000Y-70089000D01*
X120679000Y-69719000D02*
X173518999Y-69719000D01*
X107729000Y-135509000D02*
X108099000Y-135879000D01*
X108469000Y-58249000D02*
X108839000Y-57879000D01*
X117719000Y-67499000D02*
X118089000Y-67129000D01*
X124009000Y-73789000D02*
X124379000Y-73419000D01*
X122899000Y-121079000D02*
X122529000Y-120709000D01*
X173518999Y-69719000D02*
X173888999Y-70089000D01*
X118829000Y-125149000D02*
X118459000Y-124779000D01*
X174259000Y-123669000D02*
X120309000Y-123669000D01*
X114759000Y-64539000D02*
X114759000Y-128479000D01*
X113649000Y-63429000D02*
X113649000Y-129589000D01*
X179069000Y-128479000D02*
X115499000Y-128479000D01*
X176479000Y-125149000D02*
X176109000Y-125519000D01*
X180919000Y-63059000D02*
X180919000Y-129589000D01*
X179069000Y-64909000D02*
X179069000Y-127739000D01*
X169448999Y-73789000D02*
X169819000Y-74159000D01*
X115869000Y-65649000D02*
X115869000Y-127369000D01*
X185729000Y-57509000D02*
X186099000Y-57879000D01*
X174629000Y-69349000D02*
X174629000Y-123299000D01*
X181289000Y-62689000D02*
X181289000Y-129959000D01*
X169078999Y-74159000D02*
X169448999Y-74529000D01*
X180919000Y-62319000D02*
X181289000Y-62689000D01*
X119199000Y-68979000D02*
X119199000Y-124038999D01*
X182768999Y-131439000D02*
X182398999Y-131809000D01*
X116609000Y-66389000D02*
X116979000Y-66019000D01*
X116239000Y-65279000D02*
X177958999Y-65279000D01*
X122899000Y-72679000D02*
X123269000Y-72309000D01*
X181289000Y-61949000D02*
X181659000Y-62319000D01*
X179069000Y-127739000D02*
X178698999Y-128109000D01*
X169078999Y-118489000D02*
X125489000Y-118489000D01*
X112909000Y-62689000D02*
X113279000Y-62319000D01*
X115499000Y-65279000D02*
X115869000Y-64909000D01*
X112169000Y-61949000D02*
X112539000Y-61579000D01*
X116239000Y-66019000D02*
X116609000Y-65649000D01*
X113279000Y-130699000D02*
X112909000Y-130329000D01*
X116979000Y-126999000D02*
X116609000Y-126629000D01*
X120679000Y-123299000D02*
X120309000Y-122929000D01*
X112539000Y-131439000D02*
X112169000Y-131069000D01*
X113649000Y-130329000D02*
X113279000Y-129959000D01*
X180179000Y-129589000D02*
X114389000Y-129589000D01*
X174999000Y-124409000D02*
X119569000Y-124409000D01*
X125119000Y-74159000D02*
X169078999Y-74159000D01*
X119939000Y-69719000D02*
X120309000Y-69349000D01*
X170189000Y-73049000D02*
X170559000Y-73419000D01*
X186469000Y-57509000D02*
X186469000Y-135139000D01*
X118829000Y-68609000D02*
X119199000Y-68239000D01*
X113649000Y-63429000D02*
X114019000Y-63059000D01*
X182768999Y-60469000D02*
X183138999Y-60839000D01*
X183509000Y-59729000D02*
X183879000Y-60099000D01*
X174629000Y-123299000D02*
X174259000Y-123669000D01*
X171669000Y-72309000D02*
X171669000Y-120339000D01*
X180549000Y-63429000D02*
X180549000Y-129219000D01*
X109949000Y-134029000D02*
X109579000Y-133659000D01*
X114389000Y-129589000D02*
X114019000Y-129219000D01*
X171299000Y-72679000D02*
X171299000Y-119969000D01*
X182398999Y-60839000D02*
X182768999Y-61209000D01*
X183879000Y-132549000D02*
X183509000Y-132919000D01*
X115129000Y-128849000D02*
X114759000Y-128479000D01*
X109949000Y-59729000D02*
X110319000Y-59359000D01*
X170189000Y-119599000D02*
X124379000Y-119599000D01*
X180549000Y-129959000D02*
X114019000Y-129959000D01*
X174999000Y-68979000D02*
X174999000Y-123669000D01*
X169078999Y-74899000D02*
X169078999Y-117749000D01*
X111799000Y-61579000D02*
X111799000Y-131438999D01*
X174629000Y-124039000D02*
X119939000Y-124039000D01*
X181289000Y-130699000D02*
X113279000Y-130699000D01*
X111799000Y-60839000D02*
X182398999Y-60839000D01*
X124379000Y-74159000D02*
X124749000Y-73789000D01*
X109579000Y-59359000D02*
X109579000Y-133658999D01*
X186099000Y-135509000D02*
X108469000Y-135509000D01*
X119199000Y-68979000D02*
X119569000Y-68609000D01*
X168339000Y-117749000D02*
X127921000Y-117749000D01*
X108469000Y-58249000D02*
X108469000Y-134769000D01*
X173888999Y-122559000D02*
X173518999Y-122929000D01*
X174999000Y-68239000D02*
X175369000Y-68609000D01*
X115869000Y-128109000D02*
X115499000Y-127739000D01*
X119569000Y-69349000D02*
X119939000Y-68979000D01*
X122159000Y-121819000D02*
X121789000Y-121449000D01*
X177219000Y-66019000D02*
X177589000Y-66389000D01*
X172039000Y-71199000D02*
X172409000Y-71569000D01*
X184619000Y-58619000D02*
X184989000Y-58989000D01*
X184989000Y-58989000D02*
X184989000Y-133659000D01*
X172779000Y-122189000D02*
X121789000Y-122189000D01*
X125119000Y-118859000D02*
X124749000Y-118489000D01*
X177589000Y-65649000D02*
X177959000Y-66019000D01*
X172409000Y-70829000D02*
X172779000Y-71199000D01*
X175739000Y-125149000D02*
X118829000Y-125149000D01*
X171299000Y-119969000D02*
X170929000Y-120339000D01*
X183508999Y-132179000D02*
X183138999Y-132549000D01*
X117719000Y-126259000D02*
X117349000Y-125889000D01*
X124379000Y-73419000D02*
X169819000Y-73419000D01*
X117719000Y-66759000D02*
X176479000Y-66759000D01*
X113649000Y-62689000D02*
X180549000Y-62689000D01*
X180919000Y-130329000D02*
X113649000Y-130329000D01*
X124009000Y-73049000D02*
X170189000Y-73049000D01*
X169819000Y-118489000D02*
X169448999Y-118859000D01*
X183879000Y-59359000D02*
X184249000Y-59729000D01*
X181659000Y-62319000D02*
X181659000Y-130329000D01*
X116979000Y-66759000D02*
X116979000Y-126259000D01*
X122529000Y-72309000D02*
X122899000Y-71939000D01*
X173149000Y-70829000D02*
X173149000Y-121819000D01*
X120679000Y-70459000D02*
X120679000Y-122559000D01*
X183138999Y-131809000D02*
X182768999Y-132179000D01*
X181659000Y-130329000D02*
X181289000Y-130699000D01*
X172779000Y-70459000D02*
X173149000Y-70829000D01*
X172409000Y-71569000D02*
X172409000Y-121079000D01*
X183509000Y-132919000D02*
X111059000Y-132919000D01*
X168708999Y-118119000D02*
X125859000Y-118119000D01*
X172779000Y-71199000D02*
X172779000Y-121449000D01*
X180549000Y-62689000D02*
X180919000Y-63059000D01*
X112169000Y-131809000D02*
X111799000Y-131439000D01*
X121419000Y-71199000D02*
X121419000Y-121819000D01*
X118089000Y-67129000D02*
X176109000Y-67129000D01*
X123269000Y-120709000D02*
X122899000Y-120339000D01*
X184619000Y-133289000D02*
X184249000Y-133659000D01*
X119569000Y-124409000D02*
X119199000Y-124039000D01*
X111059000Y-60839000D02*
X111429000Y-60469000D01*
X182398999Y-61579000D02*
X182398999Y-131069000D01*
X121049000Y-122929000D02*
X120679000Y-122559000D01*
X121419000Y-71199000D02*
X121789000Y-70829000D01*
X125119000Y-74899000D02*
X125119000Y-118119000D01*
X111799000Y-132179000D02*
X111429000Y-131809000D01*
X170929000Y-73049000D02*
X170929000Y-119599000D01*
X177958999Y-65279000D02*
X178328999Y-65649000D01*
X182398999Y-131069000D02*
X182028999Y-131439000D01*
X108839000Y-58619000D02*
X108839000Y-134399000D01*
X184989000Y-134399000D02*
X109579000Y-134399000D01*
X117719000Y-67499000D02*
X117719000Y-125519000D01*
X183879000Y-60099000D02*
X183879000Y-132549000D01*
X115499000Y-128479000D02*
X115129000Y-128109000D01*
X116239000Y-66019000D02*
X116239000Y-126998999D01*
X127921000Y-117749000D02*
X127256000Y-117084000D01*
X108839000Y-57879000D02*
X185359000Y-57879000D01*
X119939000Y-124039000D02*
X119569000Y-123669000D01*
X177219000Y-66759000D02*
X177219000Y-125889000D01*
X109209000Y-58249000D02*
X184989000Y-58249000D01*
X109949000Y-59729000D02*
X109949000Y-133288999D01*
X176849000Y-125519000D02*
X176479000Y-125889000D01*
X123639000Y-72679000D02*
X170559000Y-72679000D01*
X109209000Y-58989000D02*
X109579000Y-58619000D01*
X185359000Y-134029000D02*
X184989000Y-134399000D01*
X178698999Y-65279000D02*
X178698999Y-127369000D01*
X179439000Y-128849000D02*
X115129000Y-128849000D01*
X108099000Y-57879000D02*
X108469000Y-57509000D01*
X118089000Y-125889000D02*
X117719000Y-125519000D01*
X175739000Y-67499000D02*
X176109000Y-67869000D01*
X118089000Y-67869000D02*
X118459000Y-67499000D01*
X111429000Y-60469000D02*
X182768999Y-60469000D01*
X168709000Y-75269000D02*
X168709000Y-117379000D01*
X172409000Y-121819000D02*
X122159000Y-121819000D01*
X112909000Y-61949000D02*
X181289000Y-61949000D01*
X107729000Y-57509000D02*
X108099000Y-57139000D01*
X172409000Y-121079000D02*
X172039000Y-121449000D01*
X122899000Y-71939000D02*
X171299000Y-71939000D01*
X115869000Y-64909000D02*
X178328999Y-64909000D01*
X179809000Y-64169000D02*
X179809000Y-128479000D01*
X121049000Y-70089000D02*
X173148999Y-70089000D01*
X111799000Y-61579000D02*
X112169000Y-61209000D01*
X109579000Y-58619000D02*
X184619000Y-58619000D01*
X179809000Y-129219000D02*
X114759000Y-129219000D01*
X112909000Y-62689000D02*
X112909000Y-130329000D01*
X176849000Y-126259000D02*
X117719000Y-126259000D01*
X182029000Y-61949000D02*
X182029000Y-130699000D01*
X179439000Y-128109000D02*
X179069000Y-128479000D01*
X173148999Y-70089000D02*
X173518999Y-70459000D01*
X170559000Y-119969000D02*
X124009000Y-119969000D01*
X181659000Y-61579000D02*
X182029000Y-61949000D01*
X121789000Y-71569000D02*
X122159000Y-71199000D01*
X183508999Y-60469000D02*
X183508999Y-132179000D01*
X180179000Y-128849000D02*
X179809000Y-129219000D01*
X122529000Y-71569000D02*
X171669000Y-71569000D01*
X108099000Y-57139000D02*
X186099000Y-57139000D01*
X171669000Y-71569000D02*
X172039000Y-71939000D01*
X179439000Y-63799000D02*
X179809000Y-64169000D01*
X170559000Y-73419000D02*
X170559000Y-119229000D01*
X177959000Y-126629000D02*
X177589000Y-126999000D01*
X110689000Y-133289000D02*
X110319000Y-132919000D01*
X186099000Y-57139000D02*
X186469000Y-57509000D01*
X116979000Y-66019000D02*
X177219000Y-66019000D01*
X112539000Y-62319000D02*
X112539000Y-130699000D01*
X185729000Y-58249000D02*
X185729000Y-134399000D01*
X178698999Y-128109000D02*
X115869000Y-128109000D01*
X170189000Y-73789000D02*
X170189000Y-118859000D01*
X176479000Y-66759000D02*
X176849000Y-67129000D01*
X175369000Y-124779000D02*
X119199000Y-124779000D01*
X111429000Y-61209000D02*
X111799000Y-60839000D01*
X112169000Y-61209000D02*
X182028999Y-61209000D01*
X108469000Y-57509000D02*
X185729000Y-57509000D01*
X114389000Y-64169000D02*
X114389000Y-128848999D01*
X179439000Y-64539000D02*
X179439000Y-128109000D01*
X169078999Y-117749000D02*
X168708999Y-118119000D01*
X112539000Y-61579000D02*
X181659000Y-61579000D01*
X108099000Y-57879000D02*
X108099000Y-135139000D01*
M02*
