M48
; DRILL file {KiCad 8.0.5} date 2024-12-07T16:09:06-0800
; FORMAT={-:-/ absolute / inch / decimal}
; #@! TF.CreationDate,2024-12-07T16:09:06-08:00
; #@! TF.GenerationSoftware,Kicad,Pcbnew,8.0.5
; #@! TF.FileFunction,Plated,1,4,PTH
FMAT,2
INCH
; #@! TA.AperFunction,Plated,PTH,ViaDrill
T1C0.0157
; #@! TA.AperFunction,Plated,PTH,ComponentDrill
T2C0.0276
; #@! TA.AperFunction,Plated,PTH,ComponentDrill
T3C0.0315
; #@! TA.AperFunction,Plated,PTH,ComponentDrill
T4C0.0394
; #@! TA.AperFunction,Plated,PTH,ComponentDrill
T5C0.0591
; #@! TA.AperFunction,Plated,PTH,ComponentDrill
T6C0.0669
; #@! TA.AperFunction,Plated,PTH,ComponentDrill
T7C0.1063
%
G90
G05
T1
X3.6062Y-4.0937
X3.6062Y-4.1281
X3.6062Y-4.1626
X3.6075Y-3.822
X3.6075Y-3.8575
X3.6429Y-3.822
X3.6429Y-3.8575
X3.6446Y-4.0937
X3.6446Y-4.1281
X3.6446Y-4.1626
X3.6783Y-3.822
X3.6783Y-3.8575
X3.682Y-4.0937
X3.682Y-4.1281
X3.682Y-4.1626
X3.7194Y-4.0937
X3.7194Y-4.1281
X3.7194Y-4.1626
X3.7343Y-3.7323
X3.7568Y-4.0937
X3.7568Y-4.1281
X3.7568Y-4.1626
X3.7952Y-4.0937
X3.7952Y-4.1281
X3.7952Y-4.1626
X3.8291Y-3.8669
X3.8291Y-3.9024
X3.8291Y-3.9378
X3.8326Y-4.0937
X3.8326Y-4.1281
X3.8326Y-4.1626
X3.8646Y-3.8669
X3.8646Y-3.9024
X3.8646Y-3.9378
X3.87Y-4.0937
X3.87Y-4.1281
X3.87Y-4.1626
X3.8888Y-3.3356
X3.8888Y-3.373
X3.9232Y-3.3356
X3.9232Y-3.373
X3.9375Y-3.22
X3.9463Y-2.9577
X3.9538Y-2.9155
X3.9591Y-3.2555
X3.9749Y-3.22
X3.9965Y-3.2555
X4.1198Y-2.707
X4.1513Y-2.6755
X4.1658Y-2.9248
X4.1658Y-2.9622
X4.1658Y-2.9996
X4.1658Y-3.0379
X4.1732Y-2.8642
X4.2002Y-2.9248
X4.2002Y-2.9622
X4.2002Y-2.9996
X4.2002Y-3.0379
X4.2224Y-2.8642
X4.2347Y-2.9248
X4.2347Y-2.9622
X4.2347Y-2.9996
X4.2347Y-3.0379
X4.2746Y-3.1102
X4.2746Y-3.1476
X4.2917Y-3.2923
X4.2917Y-3.3307
X4.3091Y-3.1102
X4.3091Y-3.1476
X4.3262Y-3.2923
X4.3262Y-3.3307
X4.3435Y-3.1102
X4.3435Y-3.1476
X4.3606Y-3.2923
X4.3606Y-3.3307
X4.4165Y-3.102
X4.4207Y-3.3391
X4.4421Y-2.6744
X4.4562Y-3.3746
X4.4581Y-3.3391
X4.4736Y-2.6429
X4.4936Y-3.3746
X4.5369Y-3.1974
X4.5482Y-3.5748
X4.5522Y-2.3287
X4.5522Y-2.3661
X4.5866Y-2.3287
X4.5866Y-2.3661
X4.6107Y-3.531
X4.6195Y-3.0557
X4.6211Y-2.3287
X4.6211Y-2.3661
X4.6314Y-3.1501
X4.6314Y-3.2289
X4.7136Y-2.624
X4.7136Y-2.6614
X4.7472Y-2.8494
X4.748Y-2.624
X4.748Y-2.6614
X4.7825Y-2.624
X4.7825Y-2.6614
X4.811Y-2.8169
X4.8937Y-3.8927
X4.8961Y-2.8744
X4.9035Y-2.065
X4.9035Y-2.1033
X4.9035Y-2.1407
X4.9035Y-2.1781
X4.9203Y-2.3514
X4.938Y-2.065
X4.938Y-2.1033
X4.938Y-2.1407
X4.938Y-2.1781
X4.9459Y-2.875
X4.9724Y-2.065
X4.9724Y-2.1033
X4.9724Y-2.1407
X4.9724Y-2.1781
X4.9724Y-3.8927
X4.9819Y-2.4453
X4.9961Y-2.9488
X5.086Y-3.4807
X5.086Y-3.5152
X5.086Y-3.5496
X5.1234Y-3.4807
X5.1234Y-3.5152
X5.1234Y-3.5496
X5.1319Y-2.1309
X5.1319Y-2.1654
X5.1319Y-2.1998
X5.1608Y-3.4807
X5.1608Y-3.5152
X5.1608Y-3.5496
X5.1644Y-2.5138
X5.1644Y-2.5512
X5.1693Y-2.1309
X5.1693Y-2.1654
X5.1693Y-2.1998
X5.1988Y-2.5138
X5.1988Y-2.5512
X5.1992Y-3.4807
X5.1992Y-3.5152
X5.1992Y-3.5496
X5.2067Y-2.1309
X5.2067Y-2.1654
X5.2067Y-2.1998
X5.2333Y-2.5138
X5.2333Y-2.5512
X5.2451Y-2.1309
X5.2451Y-2.1654
X5.2451Y-2.1998
X5.3386Y-3.2677
X5.4183Y-1.998
X5.4685Y-2.687
X5.4961Y-3.3652
T2
X4.7598Y-3.4827
X4.7598Y-3.6827
T3
X3.6545Y-4.0
X3.7333Y-4.0
X3.812Y-4.0
X3.8907Y-4.0
X3.9695Y-4.0
X4.0482Y-4.0
X4.127Y-4.0
X4.2057Y-4.0
X4.2844Y-4.0
T4
X4.3504Y-2.2622
X4.3504Y-2.3622
X4.3504Y-2.4622
X5.5602Y-2.2193
X5.5602Y-2.3193
X5.5602Y-2.4193
X5.5602Y-2.5193
X5.5602Y-2.6193
X5.5602Y-2.7193
X5.5602Y-2.8193
X5.5602Y-2.9193
X5.5602Y-3.0193
X5.5602Y-3.1193
X5.5602Y-3.2193
X5.5602Y-3.3193
X5.5602Y-3.4193
X5.5602Y-3.5193
X5.5602Y-3.6193
X5.5602Y-3.7193
X5.5602Y-3.8193
X5.5602Y-3.9193
X5.5602Y-4.0193
X5.5602Y-4.1193
X5.6602Y-2.2193
X5.6602Y-2.3193
X5.6602Y-2.4193
X5.6602Y-2.5193
X5.6602Y-2.6193
X5.6602Y-2.7193
X5.6602Y-2.8193
X5.6602Y-2.9193
X5.6602Y-3.0193
X5.6602Y-3.1193
X5.6602Y-3.2193
X5.6602Y-3.3193
X5.6602Y-3.4193
X5.6602Y-3.5193
X5.6602Y-3.6193
X5.6602Y-3.7193
X5.6602Y-3.8193
X5.6602Y-3.9193
X5.6602Y-4.0193
X5.6602Y-4.1193
T5
X5.2689Y-4.2652
T6
X5.1689Y-4.1652
X5.1689Y-4.3652
X5.3689Y-4.1652
X5.3689Y-4.3652
T7
X3.6811Y-2.0276
X3.6811Y-3.3937
X3.6811Y-4.311
X5.6102Y-2.0276
X5.6102Y-4.311
M30
