%TF.GenerationSoftware,KiCad,Pcbnew,8.0.8*%
%TF.CreationDate,2025-03-15T17:30:19-07:00*%
%TF.ProjectId,Coil_Panel_XY,436f696c-5f50-4616-9e65-6c5f58592e6b,2.1*%
%TF.SameCoordinates,Original*%
%TF.FileFunction,Drillmap*%
%TF.FilePolarity,Positive*%
%FSLAX45Y45*%
G04 Gerber Fmt 4.5, Leading zero omitted, Abs format (unit mm)*
G04 Created by KiCad (PCBNEW 8.0.8) date 2025-03-15 17:30:19*
%MOMM*%
%LPD*%
G01*
G04 APERTURE LIST*
%ADD10C,0.200000*%
%ADD11C,0.100000*%
G04 APERTURE END LIST*
D10*
X16012163Y-12683600D02*
X16012163Y-12666100D01*
X24801787Y-12514371D02*
G75*
G02*
X22823237Y-12443994I-947637J1205771D01*
G01*
X16012163Y-12666100D02*
G75*
G02*
X16312163Y-12366093I300007J0D01*
G01*
X16312163Y-12366100D02*
X22621570Y-12366100D01*
X5937163Y-5451100D02*
G75*
G02*
X5637170Y-5151100I-3J299990D01*
G01*
X26067163Y-7708600D02*
G75*
G02*
X25567163Y-7708600I-250000J0D01*
G01*
X25567163Y-7708600D02*
G75*
G02*
X26067163Y-7708600I250000J0D01*
G01*
X5837163Y-12683600D02*
G75*
G02*
X5537163Y-12983593I-299993J0D01*
G01*
X7013483Y-7648990D02*
X7889632Y-7639092D01*
X5637163Y-5151100D02*
X5637163Y-5133600D01*
X8230400Y-11152390D02*
G75*
G02*
X7930393Y-11452390I-300000J0D01*
G01*
X16012163Y-12683600D02*
G75*
G02*
X15712163Y-12983593I-299993J0D01*
G01*
X15212163Y-5151100D02*
G75*
G02*
X14912163Y-5451093I-299993J0D01*
G01*
X14912163Y-12366100D02*
G75*
G02*
X15212170Y-12666100I-3J-300010D01*
G01*
X15712163Y-4833600D02*
X15512163Y-4833600D01*
X15512163Y-12983600D02*
X15712163Y-12983600D01*
X7930393Y-11452390D02*
X7013483Y-11452390D01*
X15212163Y-12666100D02*
X15212163Y-12683600D01*
X5837163Y-12666100D02*
G75*
G02*
X6137163Y-12366093I300007J0D01*
G01*
X15212163Y-5133600D02*
G75*
G02*
X15512163Y-4833593I300007J0D01*
G01*
X25583450Y-12983600D02*
X26087163Y-12983600D01*
X15512163Y-12983600D02*
G75*
G02*
X15212170Y-12683600I-3J299990D01*
G01*
X15712163Y-4833600D02*
G75*
G02*
X16012170Y-5133600I-3J-300010D01*
G01*
X14912163Y-5451100D02*
X8212163Y-5451100D01*
X16312163Y-5451100D02*
G75*
G02*
X16012170Y-5151100I-3J299990D01*
G01*
X8112163Y-5551100D02*
X8112163Y-5908600D01*
X8112163Y-5908600D02*
G75*
G02*
X8012163Y-6008593I-99993J0D01*
G01*
X6713483Y-7948990D02*
G75*
G02*
X7013483Y-7648983I300007J0D01*
G01*
X5137163Y-12983600D02*
G75*
G02*
X4837170Y-12683600I-3J299990D01*
G01*
X24780746Y-9618600D02*
X25366153Y-9618600D01*
X26087163Y-4833600D02*
G75*
G02*
X26387170Y-5133600I-3J-300010D01*
G01*
X16012163Y-5151100D02*
X16012163Y-5133600D01*
X4837163Y-5133600D02*
G75*
G02*
X5137163Y-4833593I300007J0D01*
G01*
X8112163Y-5551100D02*
G75*
G02*
X8212163Y-5451093I100007J0D01*
G01*
X6112163Y-5908600D02*
X6112163Y-5551100D01*
X6137163Y-12366100D02*
X14912163Y-12366100D01*
X25406649Y-5604911D02*
G75*
G02*
X25496905Y-5390416I300001J1D01*
G01*
X6012163Y-5451100D02*
X5937163Y-5451100D01*
X24496549Y-9052225D02*
G75*
G02*
X24634551Y-9018598I138001J-266355D01*
G01*
X25366153Y-9618600D02*
G75*
G02*
X25606452Y-9738997I-3J-300010D01*
G01*
X25552649Y-11439572D02*
G75*
G02*
X25401581Y-11699996I-300009J2D01*
G01*
X23590801Y-9483600D02*
X21837163Y-9483600D01*
X25587163Y-5133600D02*
G75*
G02*
X25887163Y-4833593I300007J0D01*
G01*
X25401580Y-11699994D02*
X24404184Y-12270391D01*
X15212163Y-5133600D02*
X15212163Y-5151100D01*
X25830611Y-9858962D02*
G75*
G02*
X25833293Y-10358079I-13451J-249638D01*
G01*
X7889632Y-7639092D02*
G75*
G02*
X8231481Y-7937393I40768J-298308D01*
G01*
X6713483Y-11152390D02*
X6713483Y-7948990D01*
X26387163Y-12683600D02*
G75*
G02*
X26087163Y-12983593I-299993J0D01*
G01*
X5337163Y-4833600D02*
G75*
G02*
X5637170Y-5133600I-3J-300010D01*
G01*
X25552649Y-10657454D02*
G75*
G02*
X25833293Y-10358083I299991J4D01*
G01*
X25587163Y-5175922D02*
G75*
G02*
X25496906Y-5390416I-300003J2D01*
G01*
X25830611Y-9858962D02*
G75*
G02*
X25606449Y-9739000I16149J299592D01*
G01*
X25406649Y-5604911D02*
X25406649Y-8718600D01*
X25106649Y-9018600D02*
X24634551Y-9018600D01*
X8012163Y-6008600D02*
X6212163Y-6008600D01*
X5657163Y-7708600D02*
G75*
G02*
X5157163Y-7708600I-250000J0D01*
G01*
X5157163Y-7708600D02*
G75*
G02*
X5657163Y-7708600I250000J0D01*
G01*
X22621570Y-12366100D02*
G75*
G02*
X22823236Y-12443996I10J-299970D01*
G01*
X25552649Y-10657454D02*
X25552649Y-11439572D01*
X25587163Y-5133600D02*
X25587163Y-5175922D01*
X7013483Y-11452390D02*
G75*
G02*
X6713490Y-11152390I-3J299990D01*
G01*
X23344479Y-10324823D02*
X24642744Y-9652225D01*
X25406649Y-8718600D02*
G75*
G02*
X25106649Y-9018599I-299999J0D01*
G01*
X4837163Y-5133600D02*
X4837163Y-12683600D01*
X5137163Y-12983600D02*
X5537163Y-12983600D01*
X24404184Y-12270391D02*
G75*
G02*
X23344480Y-10324824I-550034J961791D01*
G01*
X21637163Y-9283600D02*
X21637163Y-5751100D01*
X26387163Y-12683600D02*
X26387163Y-5133600D01*
X6012163Y-5451100D02*
G75*
G02*
X6112170Y-5551100I-3J-100010D01*
G01*
X24496549Y-9052225D02*
X23728803Y-9449975D01*
X6212163Y-6008600D02*
G75*
G02*
X6112170Y-5908600I-3J99990D01*
G01*
X5837163Y-12683600D02*
X5837163Y-12666100D01*
X23728803Y-9449975D02*
G75*
G02*
X23590801Y-9483599I-138003J266395D01*
G01*
X24801787Y-12514371D02*
G75*
G02*
X25285306Y-12716922I185373J-235879D01*
G01*
X25583450Y-12983600D02*
G75*
G02*
X25285307Y-12716922I10J300010D01*
G01*
X21337163Y-5451100D02*
X16312163Y-5451100D01*
X21337163Y-5451100D02*
G75*
G02*
X21637170Y-5751100I-3J-300010D01*
G01*
X5337163Y-4833600D02*
X5137163Y-4833600D01*
X5657163Y-10108600D02*
G75*
G02*
X5157163Y-10108600I-250000J0D01*
G01*
X5157163Y-10108600D02*
G75*
G02*
X5657163Y-10108600I250000J0D01*
G01*
X26087163Y-4833600D02*
X25887163Y-4833600D01*
D11*
X10363200Y-7543800D02*
X19488070Y-7543800D01*
X19488070Y-10074163D01*
X10363200Y-10074163D01*
X10363200Y-7543800D01*
D10*
X21837163Y-9483600D02*
G75*
G02*
X21637170Y-9283600I-3J199990D01*
G01*
X24642744Y-9652225D02*
G75*
G02*
X24780746Y-9618602I138006J-266405D01*
G01*
X8231481Y-7937393D02*
X8230400Y-11152390D01*
X5087940Y-13305084D02*
X5087940Y-13105084D01*
X5087940Y-13105084D02*
X5135559Y-13105084D01*
X5135559Y-13105084D02*
X5164130Y-13114608D01*
X5164130Y-13114608D02*
X5183178Y-13133655D01*
X5183178Y-13133655D02*
X5192702Y-13152703D01*
X5192702Y-13152703D02*
X5202226Y-13190798D01*
X5202226Y-13190798D02*
X5202226Y-13219369D01*
X5202226Y-13219369D02*
X5192702Y-13257465D01*
X5192702Y-13257465D02*
X5183178Y-13276512D01*
X5183178Y-13276512D02*
X5164130Y-13295560D01*
X5164130Y-13295560D02*
X5135559Y-13305084D01*
X5135559Y-13305084D02*
X5087940Y-13305084D01*
X5287940Y-13305084D02*
X5287940Y-13171750D01*
X5287940Y-13209846D02*
X5297464Y-13190798D01*
X5297464Y-13190798D02*
X5306988Y-13181274D01*
X5306988Y-13181274D02*
X5326035Y-13171750D01*
X5326035Y-13171750D02*
X5345083Y-13171750D01*
X5411749Y-13305084D02*
X5411749Y-13171750D01*
X5411749Y-13105084D02*
X5402226Y-13114608D01*
X5402226Y-13114608D02*
X5411749Y-13124131D01*
X5411749Y-13124131D02*
X5421273Y-13114608D01*
X5421273Y-13114608D02*
X5411749Y-13105084D01*
X5411749Y-13105084D02*
X5411749Y-13124131D01*
X5535559Y-13305084D02*
X5516511Y-13295560D01*
X5516511Y-13295560D02*
X5506988Y-13276512D01*
X5506988Y-13276512D02*
X5506988Y-13105084D01*
X5640321Y-13305084D02*
X5621273Y-13295560D01*
X5621273Y-13295560D02*
X5611749Y-13276512D01*
X5611749Y-13276512D02*
X5611749Y-13105084D01*
X5868892Y-13305084D02*
X5868892Y-13105084D01*
X5868892Y-13105084D02*
X5935559Y-13247941D01*
X5935559Y-13247941D02*
X6002226Y-13105084D01*
X6002226Y-13105084D02*
X6002226Y-13305084D01*
X6183178Y-13305084D02*
X6183178Y-13200322D01*
X6183178Y-13200322D02*
X6173654Y-13181274D01*
X6173654Y-13181274D02*
X6154607Y-13171750D01*
X6154607Y-13171750D02*
X6116511Y-13171750D01*
X6116511Y-13171750D02*
X6097464Y-13181274D01*
X6183178Y-13295560D02*
X6164130Y-13305084D01*
X6164130Y-13305084D02*
X6116511Y-13305084D01*
X6116511Y-13305084D02*
X6097464Y-13295560D01*
X6097464Y-13295560D02*
X6087940Y-13276512D01*
X6087940Y-13276512D02*
X6087940Y-13257465D01*
X6087940Y-13257465D02*
X6097464Y-13238417D01*
X6097464Y-13238417D02*
X6116511Y-13228893D01*
X6116511Y-13228893D02*
X6164130Y-13228893D01*
X6164130Y-13228893D02*
X6183178Y-13219369D01*
X6278416Y-13171750D02*
X6278416Y-13371750D01*
X6278416Y-13181274D02*
X6297464Y-13171750D01*
X6297464Y-13171750D02*
X6335559Y-13171750D01*
X6335559Y-13171750D02*
X6354607Y-13181274D01*
X6354607Y-13181274D02*
X6364130Y-13190798D01*
X6364130Y-13190798D02*
X6373654Y-13209846D01*
X6373654Y-13209846D02*
X6373654Y-13266988D01*
X6373654Y-13266988D02*
X6364130Y-13286036D01*
X6364130Y-13286036D02*
X6354607Y-13295560D01*
X6354607Y-13295560D02*
X6335559Y-13305084D01*
X6335559Y-13305084D02*
X6297464Y-13305084D01*
X6297464Y-13305084D02*
X6278416Y-13295560D01*
X6459368Y-13286036D02*
X6468892Y-13295560D01*
X6468892Y-13295560D02*
X6459368Y-13305084D01*
X6459368Y-13305084D02*
X6449845Y-13295560D01*
X6449845Y-13295560D02*
X6459368Y-13286036D01*
X6459368Y-13286036D02*
X6459368Y-13305084D01*
X6459368Y-13181274D02*
X6468892Y-13190798D01*
X6468892Y-13190798D02*
X6459368Y-13200322D01*
X6459368Y-13200322D02*
X6449845Y-13190798D01*
X6449845Y-13190798D02*
X6459368Y-13181274D01*
X6459368Y-13181274D02*
X6459368Y-13200322D01*
M02*
