%TF.GenerationSoftware,KiCad,Pcbnew,8.0.8*%
%TF.CreationDate,2025-03-15T17:30:35-07:00*%
%TF.ProjectId,Coil_Panel_XY,436f696c-5f50-4616-9e65-6c5f58592e6b,2.1*%
%TF.SameCoordinates,Original*%
%TF.FileFunction,Legend,Top*%
%TF.FilePolarity,Positive*%
%FSLAX46Y46*%
G04 Gerber Fmt 4.6, Leading zero omitted, Abs format (unit mm)*
G04 Created by KiCad (PCBNEW 8.0.8) date 2025-03-15 17:30:35*
%MOMM*%
%LPD*%
G01*
G04 APERTURE LIST*
%ADD10C,0.150000*%
%ADD11C,0.120000*%
%ADD12C,2.600000*%
%ADD13C,3.800000*%
G04 APERTURE END LIST*
D10*
X48710779Y-117343931D02*
X48710779Y-116343931D01*
X49044112Y-116677264D02*
X49425064Y-116677264D01*
X49186969Y-117343931D02*
X49186969Y-116486788D01*
X49186969Y-116486788D02*
X49234588Y-116391550D01*
X49234588Y-116391550D02*
X49329826Y-116343931D01*
X49329826Y-116343931D02*
X49425064Y-116343931D01*
X50806017Y-117724883D02*
X50758398Y-117677264D01*
X50758398Y-117677264D02*
X50663160Y-117534407D01*
X50663160Y-117534407D02*
X50615541Y-117439169D01*
X50615541Y-117439169D02*
X50567922Y-117296312D01*
X50567922Y-117296312D02*
X50520303Y-117058216D01*
X50520303Y-117058216D02*
X50520303Y-116867740D01*
X50520303Y-116867740D02*
X50567922Y-116629645D01*
X50567922Y-116629645D02*
X50615541Y-116486788D01*
X50615541Y-116486788D02*
X50663160Y-116391550D01*
X50663160Y-116391550D02*
X50758398Y-116248692D01*
X50758398Y-116248692D02*
X50806017Y-116201073D01*
X51186970Y-116962978D02*
X51948875Y-116962978D01*
X51567922Y-117343931D02*
X51567922Y-116582026D01*
X52329827Y-117724883D02*
X52377446Y-117677264D01*
X52377446Y-117677264D02*
X52472684Y-117534407D01*
X52472684Y-117534407D02*
X52520303Y-117439169D01*
X52520303Y-117439169D02*
X52567922Y-117296312D01*
X52567922Y-117296312D02*
X52615541Y-117058216D01*
X52615541Y-117058216D02*
X52615541Y-116867740D01*
X52615541Y-116867740D02*
X52567922Y-116629645D01*
X52567922Y-116629645D02*
X52520303Y-116486788D01*
X52520303Y-116486788D02*
X52472684Y-116391550D01*
X52472684Y-116391550D02*
X52377446Y-116248692D01*
X52377446Y-116248692D02*
X52329827Y-116201073D01*
X49044112Y-118430065D02*
X48710779Y-118430065D01*
X48710779Y-118953875D02*
X48710779Y-117953875D01*
X48710779Y-117953875D02*
X49186969Y-117953875D01*
X49567922Y-118953875D02*
X49567922Y-118287208D01*
X49567922Y-117953875D02*
X49520303Y-118001494D01*
X49520303Y-118001494D02*
X49567922Y-118049113D01*
X49567922Y-118049113D02*
X49615541Y-118001494D01*
X49615541Y-118001494D02*
X49567922Y-117953875D01*
X49567922Y-117953875D02*
X49567922Y-118049113D01*
X50425064Y-118906256D02*
X50329826Y-118953875D01*
X50329826Y-118953875D02*
X50139350Y-118953875D01*
X50139350Y-118953875D02*
X50044112Y-118906256D01*
X50044112Y-118906256D02*
X49996493Y-118811017D01*
X49996493Y-118811017D02*
X49996493Y-118430065D01*
X49996493Y-118430065D02*
X50044112Y-118334827D01*
X50044112Y-118334827D02*
X50139350Y-118287208D01*
X50139350Y-118287208D02*
X50329826Y-118287208D01*
X50329826Y-118287208D02*
X50425064Y-118334827D01*
X50425064Y-118334827D02*
X50472683Y-118430065D01*
X50472683Y-118430065D02*
X50472683Y-118525303D01*
X50472683Y-118525303D02*
X49996493Y-118620541D01*
X51044112Y-118953875D02*
X50948874Y-118906256D01*
X50948874Y-118906256D02*
X50901255Y-118811017D01*
X50901255Y-118811017D02*
X50901255Y-117953875D01*
X51853636Y-118953875D02*
X51853636Y-117953875D01*
X51853636Y-118906256D02*
X51758398Y-118953875D01*
X51758398Y-118953875D02*
X51567922Y-118953875D01*
X51567922Y-118953875D02*
X51472684Y-118906256D01*
X51472684Y-118906256D02*
X51425065Y-118858636D01*
X51425065Y-118858636D02*
X51377446Y-118763398D01*
X51377446Y-118763398D02*
X51377446Y-118477684D01*
X51377446Y-118477684D02*
X51425065Y-118382446D01*
X51425065Y-118382446D02*
X51472684Y-118334827D01*
X51472684Y-118334827D02*
X51567922Y-118287208D01*
X51567922Y-118287208D02*
X51758398Y-118287208D01*
X51758398Y-118287208D02*
X51853636Y-118334827D01*
X53282208Y-117953875D02*
X53472684Y-117953875D01*
X53472684Y-117953875D02*
X53567922Y-118001494D01*
X53567922Y-118001494D02*
X53663160Y-118096732D01*
X53663160Y-118096732D02*
X53710779Y-118287208D01*
X53710779Y-118287208D02*
X53710779Y-118620541D01*
X53710779Y-118620541D02*
X53663160Y-118811017D01*
X53663160Y-118811017D02*
X53567922Y-118906256D01*
X53567922Y-118906256D02*
X53472684Y-118953875D01*
X53472684Y-118953875D02*
X53282208Y-118953875D01*
X53282208Y-118953875D02*
X53186970Y-118906256D01*
X53186970Y-118906256D02*
X53091732Y-118811017D01*
X53091732Y-118811017D02*
X53044113Y-118620541D01*
X53044113Y-118620541D02*
X53044113Y-118287208D01*
X53044113Y-118287208D02*
X53091732Y-118096732D01*
X53091732Y-118096732D02*
X53186970Y-118001494D01*
X53186970Y-118001494D02*
X53282208Y-117953875D01*
X54567922Y-118287208D02*
X54567922Y-118953875D01*
X54139351Y-118287208D02*
X54139351Y-118811017D01*
X54139351Y-118811017D02*
X54186970Y-118906256D01*
X54186970Y-118906256D02*
X54282208Y-118953875D01*
X54282208Y-118953875D02*
X54425065Y-118953875D01*
X54425065Y-118953875D02*
X54520303Y-118906256D01*
X54520303Y-118906256D02*
X54567922Y-118858636D01*
X54901256Y-118287208D02*
X55282208Y-118287208D01*
X55044113Y-117953875D02*
X55044113Y-118811017D01*
X55044113Y-118811017D02*
X55091732Y-118906256D01*
X55091732Y-118906256D02*
X55186970Y-118953875D01*
X55186970Y-118953875D02*
X55282208Y-118953875D01*
X56520304Y-118953875D02*
X56425066Y-118906256D01*
X56425066Y-118906256D02*
X56377447Y-118858636D01*
X56377447Y-118858636D02*
X56329828Y-118763398D01*
X56329828Y-118763398D02*
X56329828Y-118477684D01*
X56329828Y-118477684D02*
X56377447Y-118382446D01*
X56377447Y-118382446D02*
X56425066Y-118334827D01*
X56425066Y-118334827D02*
X56520304Y-118287208D01*
X56520304Y-118287208D02*
X56663161Y-118287208D01*
X56663161Y-118287208D02*
X56758399Y-118334827D01*
X56758399Y-118334827D02*
X56806018Y-118382446D01*
X56806018Y-118382446D02*
X56853637Y-118477684D01*
X56853637Y-118477684D02*
X56853637Y-118763398D01*
X56853637Y-118763398D02*
X56806018Y-118858636D01*
X56806018Y-118858636D02*
X56758399Y-118906256D01*
X56758399Y-118906256D02*
X56663161Y-118953875D01*
X56663161Y-118953875D02*
X56520304Y-118953875D01*
X57139352Y-118287208D02*
X57520304Y-118287208D01*
X57282209Y-118953875D02*
X57282209Y-118096732D01*
X57282209Y-118096732D02*
X57329828Y-118001494D01*
X57329828Y-118001494D02*
X57425066Y-117953875D01*
X57425066Y-117953875D02*
X57520304Y-117953875D01*
X58472686Y-117953875D02*
X59044114Y-117953875D01*
X58758400Y-118953875D02*
X58758400Y-117953875D01*
X59377448Y-118953875D02*
X59377448Y-117953875D01*
X59377448Y-118430065D02*
X59948876Y-118430065D01*
X59948876Y-118953875D02*
X59948876Y-117953875D01*
X60425067Y-118953875D02*
X60425067Y-117953875D01*
X60853638Y-118906256D02*
X60996495Y-118953875D01*
X60996495Y-118953875D02*
X61234590Y-118953875D01*
X61234590Y-118953875D02*
X61329828Y-118906256D01*
X61329828Y-118906256D02*
X61377447Y-118858636D01*
X61377447Y-118858636D02*
X61425066Y-118763398D01*
X61425066Y-118763398D02*
X61425066Y-118668160D01*
X61425066Y-118668160D02*
X61377447Y-118572922D01*
X61377447Y-118572922D02*
X61329828Y-118525303D01*
X61329828Y-118525303D02*
X61234590Y-118477684D01*
X61234590Y-118477684D02*
X61044114Y-118430065D01*
X61044114Y-118430065D02*
X60948876Y-118382446D01*
X60948876Y-118382446D02*
X60901257Y-118334827D01*
X60901257Y-118334827D02*
X60853638Y-118239589D01*
X60853638Y-118239589D02*
X60853638Y-118144351D01*
X60853638Y-118144351D02*
X60901257Y-118049113D01*
X60901257Y-118049113D02*
X60948876Y-118001494D01*
X60948876Y-118001494D02*
X61044114Y-117953875D01*
X61044114Y-117953875D02*
X61282209Y-117953875D01*
X61282209Y-117953875D02*
X61425066Y-118001494D01*
X62567924Y-118906256D02*
X62710781Y-118953875D01*
X62710781Y-118953875D02*
X62948876Y-118953875D01*
X62948876Y-118953875D02*
X63044114Y-118906256D01*
X63044114Y-118906256D02*
X63091733Y-118858636D01*
X63091733Y-118858636D02*
X63139352Y-118763398D01*
X63139352Y-118763398D02*
X63139352Y-118668160D01*
X63139352Y-118668160D02*
X63091733Y-118572922D01*
X63091733Y-118572922D02*
X63044114Y-118525303D01*
X63044114Y-118525303D02*
X62948876Y-118477684D01*
X62948876Y-118477684D02*
X62758400Y-118430065D01*
X62758400Y-118430065D02*
X62663162Y-118382446D01*
X62663162Y-118382446D02*
X62615543Y-118334827D01*
X62615543Y-118334827D02*
X62567924Y-118239589D01*
X62567924Y-118239589D02*
X62567924Y-118144351D01*
X62567924Y-118144351D02*
X62615543Y-118049113D01*
X62615543Y-118049113D02*
X62663162Y-118001494D01*
X62663162Y-118001494D02*
X62758400Y-117953875D01*
X62758400Y-117953875D02*
X62996495Y-117953875D01*
X62996495Y-117953875D02*
X63139352Y-118001494D01*
X63567924Y-118953875D02*
X63567924Y-118287208D01*
X63567924Y-117953875D02*
X63520305Y-118001494D01*
X63520305Y-118001494D02*
X63567924Y-118049113D01*
X63567924Y-118049113D02*
X63615543Y-118001494D01*
X63615543Y-118001494D02*
X63567924Y-117953875D01*
X63567924Y-117953875D02*
X63567924Y-118049113D01*
X64472685Y-118953875D02*
X64472685Y-117953875D01*
X64472685Y-118906256D02*
X64377447Y-118953875D01*
X64377447Y-118953875D02*
X64186971Y-118953875D01*
X64186971Y-118953875D02*
X64091733Y-118906256D01*
X64091733Y-118906256D02*
X64044114Y-118858636D01*
X64044114Y-118858636D02*
X63996495Y-118763398D01*
X63996495Y-118763398D02*
X63996495Y-118477684D01*
X63996495Y-118477684D02*
X64044114Y-118382446D01*
X64044114Y-118382446D02*
X64091733Y-118334827D01*
X64091733Y-118334827D02*
X64186971Y-118287208D01*
X64186971Y-118287208D02*
X64377447Y-118287208D01*
X64377447Y-118287208D02*
X64472685Y-118334827D01*
X65329828Y-118906256D02*
X65234590Y-118953875D01*
X65234590Y-118953875D02*
X65044114Y-118953875D01*
X65044114Y-118953875D02*
X64948876Y-118906256D01*
X64948876Y-118906256D02*
X64901257Y-118811017D01*
X64901257Y-118811017D02*
X64901257Y-118430065D01*
X64901257Y-118430065D02*
X64948876Y-118334827D01*
X64948876Y-118334827D02*
X65044114Y-118287208D01*
X65044114Y-118287208D02*
X65234590Y-118287208D01*
X65234590Y-118287208D02*
X65329828Y-118334827D01*
X65329828Y-118334827D02*
X65377447Y-118430065D01*
X65377447Y-118430065D02*
X65377447Y-118525303D01*
X65377447Y-118525303D02*
X64901257Y-118620541D01*
X66567924Y-118287208D02*
X67329829Y-118572922D01*
X67329829Y-118572922D02*
X66567924Y-118858636D01*
X67806019Y-118287208D02*
X68567924Y-118572922D01*
X68567924Y-118572922D02*
X67806019Y-118858636D01*
X48996493Y-120944771D02*
X48948874Y-120897152D01*
X48948874Y-120897152D02*
X48853636Y-120754295D01*
X48853636Y-120754295D02*
X48806017Y-120659057D01*
X48806017Y-120659057D02*
X48758398Y-120516200D01*
X48758398Y-120516200D02*
X48710779Y-120278104D01*
X48710779Y-120278104D02*
X48710779Y-120087628D01*
X48710779Y-120087628D02*
X48758398Y-119849533D01*
X48758398Y-119849533D02*
X48806017Y-119706676D01*
X48806017Y-119706676D02*
X48853636Y-119611438D01*
X48853636Y-119611438D02*
X48948874Y-119468580D01*
X48948874Y-119468580D02*
X48996493Y-119420961D01*
X49567922Y-119563819D02*
X49758398Y-119563819D01*
X49758398Y-119563819D02*
X49853636Y-119611438D01*
X49853636Y-119611438D02*
X49948874Y-119706676D01*
X49948874Y-119706676D02*
X49996493Y-119897152D01*
X49996493Y-119897152D02*
X49996493Y-120230485D01*
X49996493Y-120230485D02*
X49948874Y-120420961D01*
X49948874Y-120420961D02*
X49853636Y-120516200D01*
X49853636Y-120516200D02*
X49758398Y-120563819D01*
X49758398Y-120563819D02*
X49567922Y-120563819D01*
X49567922Y-120563819D02*
X49472684Y-120516200D01*
X49472684Y-120516200D02*
X49377446Y-120420961D01*
X49377446Y-120420961D02*
X49329827Y-120230485D01*
X49329827Y-120230485D02*
X49329827Y-119897152D01*
X49329827Y-119897152D02*
X49377446Y-119706676D01*
X49377446Y-119706676D02*
X49472684Y-119611438D01*
X49472684Y-119611438D02*
X49567922Y-119563819D01*
X50853636Y-119897152D02*
X50853636Y-120563819D01*
X50425065Y-119897152D02*
X50425065Y-120420961D01*
X50425065Y-120420961D02*
X50472684Y-120516200D01*
X50472684Y-120516200D02*
X50567922Y-120563819D01*
X50567922Y-120563819D02*
X50710779Y-120563819D01*
X50710779Y-120563819D02*
X50806017Y-120516200D01*
X50806017Y-120516200D02*
X50853636Y-120468580D01*
X51186970Y-119897152D02*
X51567922Y-119897152D01*
X51329827Y-119563819D02*
X51329827Y-120420961D01*
X51329827Y-120420961D02*
X51377446Y-120516200D01*
X51377446Y-120516200D02*
X51472684Y-120563819D01*
X51472684Y-120563819D02*
X51567922Y-120563819D01*
X52806018Y-120563819D02*
X52710780Y-120516200D01*
X52710780Y-120516200D02*
X52663161Y-120468580D01*
X52663161Y-120468580D02*
X52615542Y-120373342D01*
X52615542Y-120373342D02*
X52615542Y-120087628D01*
X52615542Y-120087628D02*
X52663161Y-119992390D01*
X52663161Y-119992390D02*
X52710780Y-119944771D01*
X52710780Y-119944771D02*
X52806018Y-119897152D01*
X52806018Y-119897152D02*
X52948875Y-119897152D01*
X52948875Y-119897152D02*
X53044113Y-119944771D01*
X53044113Y-119944771D02*
X53091732Y-119992390D01*
X53091732Y-119992390D02*
X53139351Y-120087628D01*
X53139351Y-120087628D02*
X53139351Y-120373342D01*
X53139351Y-120373342D02*
X53091732Y-120468580D01*
X53091732Y-120468580D02*
X53044113Y-120516200D01*
X53044113Y-120516200D02*
X52948875Y-120563819D01*
X52948875Y-120563819D02*
X52806018Y-120563819D01*
X53425066Y-119897152D02*
X53806018Y-119897152D01*
X53567923Y-120563819D02*
X53567923Y-119706676D01*
X53567923Y-119706676D02*
X53615542Y-119611438D01*
X53615542Y-119611438D02*
X53710780Y-119563819D01*
X53710780Y-119563819D02*
X53806018Y-119563819D01*
X54853638Y-120516200D02*
X54996495Y-120563819D01*
X54996495Y-120563819D02*
X55234590Y-120563819D01*
X55234590Y-120563819D02*
X55329828Y-120516200D01*
X55329828Y-120516200D02*
X55377447Y-120468580D01*
X55377447Y-120468580D02*
X55425066Y-120373342D01*
X55425066Y-120373342D02*
X55425066Y-120278104D01*
X55425066Y-120278104D02*
X55377447Y-120182866D01*
X55377447Y-120182866D02*
X55329828Y-120135247D01*
X55329828Y-120135247D02*
X55234590Y-120087628D01*
X55234590Y-120087628D02*
X55044114Y-120040009D01*
X55044114Y-120040009D02*
X54948876Y-119992390D01*
X54948876Y-119992390D02*
X54901257Y-119944771D01*
X54901257Y-119944771D02*
X54853638Y-119849533D01*
X54853638Y-119849533D02*
X54853638Y-119754295D01*
X54853638Y-119754295D02*
X54901257Y-119659057D01*
X54901257Y-119659057D02*
X54948876Y-119611438D01*
X54948876Y-119611438D02*
X55044114Y-119563819D01*
X55044114Y-119563819D02*
X55282209Y-119563819D01*
X55282209Y-119563819D02*
X55425066Y-119611438D01*
X56282209Y-120563819D02*
X56282209Y-120040009D01*
X56282209Y-120040009D02*
X56234590Y-119944771D01*
X56234590Y-119944771D02*
X56139352Y-119897152D01*
X56139352Y-119897152D02*
X55948876Y-119897152D01*
X55948876Y-119897152D02*
X55853638Y-119944771D01*
X56282209Y-120516200D02*
X56186971Y-120563819D01*
X56186971Y-120563819D02*
X55948876Y-120563819D01*
X55948876Y-120563819D02*
X55853638Y-120516200D01*
X55853638Y-120516200D02*
X55806019Y-120420961D01*
X55806019Y-120420961D02*
X55806019Y-120325723D01*
X55806019Y-120325723D02*
X55853638Y-120230485D01*
X55853638Y-120230485D02*
X55948876Y-120182866D01*
X55948876Y-120182866D02*
X56186971Y-120182866D01*
X56186971Y-120182866D02*
X56282209Y-120135247D01*
X56615543Y-119897152D02*
X56996495Y-119897152D01*
X56758400Y-119563819D02*
X56758400Y-120420961D01*
X56758400Y-120420961D02*
X56806019Y-120516200D01*
X56806019Y-120516200D02*
X56901257Y-120563819D01*
X56901257Y-120563819D02*
X56996495Y-120563819D01*
X57710781Y-120516200D02*
X57615543Y-120563819D01*
X57615543Y-120563819D02*
X57425067Y-120563819D01*
X57425067Y-120563819D02*
X57329829Y-120516200D01*
X57329829Y-120516200D02*
X57282210Y-120420961D01*
X57282210Y-120420961D02*
X57282210Y-120040009D01*
X57282210Y-120040009D02*
X57329829Y-119944771D01*
X57329829Y-119944771D02*
X57425067Y-119897152D01*
X57425067Y-119897152D02*
X57615543Y-119897152D01*
X57615543Y-119897152D02*
X57710781Y-119944771D01*
X57710781Y-119944771D02*
X57758400Y-120040009D01*
X57758400Y-120040009D02*
X57758400Y-120135247D01*
X57758400Y-120135247D02*
X57282210Y-120230485D01*
X58329829Y-120563819D02*
X58234591Y-120516200D01*
X58234591Y-120516200D02*
X58186972Y-120420961D01*
X58186972Y-120420961D02*
X58186972Y-119563819D01*
X58853639Y-120563819D02*
X58758401Y-120516200D01*
X58758401Y-120516200D02*
X58710782Y-120420961D01*
X58710782Y-120420961D02*
X58710782Y-119563819D01*
X59234592Y-120563819D02*
X59234592Y-119897152D01*
X59234592Y-119563819D02*
X59186973Y-119611438D01*
X59186973Y-119611438D02*
X59234592Y-119659057D01*
X59234592Y-119659057D02*
X59282211Y-119611438D01*
X59282211Y-119611438D02*
X59234592Y-119563819D01*
X59234592Y-119563819D02*
X59234592Y-119659057D01*
X59567925Y-119897152D02*
X59948877Y-119897152D01*
X59710782Y-119563819D02*
X59710782Y-120420961D01*
X59710782Y-120420961D02*
X59758401Y-120516200D01*
X59758401Y-120516200D02*
X59853639Y-120563819D01*
X59853639Y-120563819D02*
X59948877Y-120563819D01*
X60663163Y-120516200D02*
X60567925Y-120563819D01*
X60567925Y-120563819D02*
X60377449Y-120563819D01*
X60377449Y-120563819D02*
X60282211Y-120516200D01*
X60282211Y-120516200D02*
X60234592Y-120420961D01*
X60234592Y-120420961D02*
X60234592Y-120040009D01*
X60234592Y-120040009D02*
X60282211Y-119944771D01*
X60282211Y-119944771D02*
X60377449Y-119897152D01*
X60377449Y-119897152D02*
X60567925Y-119897152D01*
X60567925Y-119897152D02*
X60663163Y-119944771D01*
X60663163Y-119944771D02*
X60710782Y-120040009D01*
X60710782Y-120040009D02*
X60710782Y-120135247D01*
X60710782Y-120135247D02*
X60234592Y-120230485D01*
X61044116Y-120944771D02*
X61091735Y-120897152D01*
X61091735Y-120897152D02*
X61186973Y-120754295D01*
X61186973Y-120754295D02*
X61234592Y-120659057D01*
X61234592Y-120659057D02*
X61282211Y-120516200D01*
X61282211Y-120516200D02*
X61329830Y-120278104D01*
X61329830Y-120278104D02*
X61329830Y-120087628D01*
X61329830Y-120087628D02*
X61282211Y-119849533D01*
X61282211Y-119849533D02*
X61234592Y-119706676D01*
X61234592Y-119706676D02*
X61186973Y-119611438D01*
X61186973Y-119611438D02*
X61091735Y-119468580D01*
X61091735Y-119468580D02*
X61044116Y-119420961D01*
X77793160Y-115639057D02*
X77840779Y-115591438D01*
X77840779Y-115591438D02*
X77936017Y-115543819D01*
X77936017Y-115543819D02*
X78174112Y-115543819D01*
X78174112Y-115543819D02*
X78269350Y-115591438D01*
X78269350Y-115591438D02*
X78316969Y-115639057D01*
X78316969Y-115639057D02*
X78364588Y-115734295D01*
X78364588Y-115734295D02*
X78364588Y-115829533D01*
X78364588Y-115829533D02*
X78316969Y-115972390D01*
X78316969Y-115972390D02*
X77745541Y-116543819D01*
X77745541Y-116543819D02*
X78364588Y-116543819D01*
X93862458Y-117323931D02*
X93862458Y-116323931D01*
X94195791Y-116657264D02*
X94576743Y-116657264D01*
X94338648Y-117323931D02*
X94338648Y-116466788D01*
X94338648Y-116466788D02*
X94386267Y-116371550D01*
X94386267Y-116371550D02*
X94481505Y-116323931D01*
X94481505Y-116323931D02*
X94576743Y-116323931D01*
X95957696Y-117704883D02*
X95910077Y-117657264D01*
X95910077Y-117657264D02*
X95814839Y-117514407D01*
X95814839Y-117514407D02*
X95767220Y-117419169D01*
X95767220Y-117419169D02*
X95719601Y-117276312D01*
X95719601Y-117276312D02*
X95671982Y-117038216D01*
X95671982Y-117038216D02*
X95671982Y-116847740D01*
X95671982Y-116847740D02*
X95719601Y-116609645D01*
X95719601Y-116609645D02*
X95767220Y-116466788D01*
X95767220Y-116466788D02*
X95814839Y-116371550D01*
X95814839Y-116371550D02*
X95910077Y-116228692D01*
X95910077Y-116228692D02*
X95957696Y-116181073D01*
X96338649Y-116942978D02*
X97100554Y-116942978D01*
X96719601Y-117323931D02*
X96719601Y-116562026D01*
X97481506Y-117704883D02*
X97529125Y-117657264D01*
X97529125Y-117657264D02*
X97624363Y-117514407D01*
X97624363Y-117514407D02*
X97671982Y-117419169D01*
X97671982Y-117419169D02*
X97719601Y-117276312D01*
X97719601Y-117276312D02*
X97767220Y-117038216D01*
X97767220Y-117038216D02*
X97767220Y-116847740D01*
X97767220Y-116847740D02*
X97719601Y-116609645D01*
X97719601Y-116609645D02*
X97671982Y-116466788D01*
X97671982Y-116466788D02*
X97624363Y-116371550D01*
X97624363Y-116371550D02*
X97529125Y-116228692D01*
X97529125Y-116228692D02*
X97481506Y-116181073D01*
X80576744Y-118267208D02*
X79814839Y-118552922D01*
X79814839Y-118552922D02*
X80576744Y-118838636D01*
X81814839Y-118267208D02*
X81052934Y-118552922D01*
X81052934Y-118552922D02*
X81814839Y-118838636D01*
X83386267Y-118410065D02*
X83052934Y-118410065D01*
X83052934Y-118933875D02*
X83052934Y-117933875D01*
X83052934Y-117933875D02*
X83529124Y-117933875D01*
X83910077Y-118933875D02*
X83910077Y-118267208D01*
X83910077Y-117933875D02*
X83862458Y-117981494D01*
X83862458Y-117981494D02*
X83910077Y-118029113D01*
X83910077Y-118029113D02*
X83957696Y-117981494D01*
X83957696Y-117981494D02*
X83910077Y-117933875D01*
X83910077Y-117933875D02*
X83910077Y-118029113D01*
X84767219Y-118886256D02*
X84671981Y-118933875D01*
X84671981Y-118933875D02*
X84481505Y-118933875D01*
X84481505Y-118933875D02*
X84386267Y-118886256D01*
X84386267Y-118886256D02*
X84338648Y-118791017D01*
X84338648Y-118791017D02*
X84338648Y-118410065D01*
X84338648Y-118410065D02*
X84386267Y-118314827D01*
X84386267Y-118314827D02*
X84481505Y-118267208D01*
X84481505Y-118267208D02*
X84671981Y-118267208D01*
X84671981Y-118267208D02*
X84767219Y-118314827D01*
X84767219Y-118314827D02*
X84814838Y-118410065D01*
X84814838Y-118410065D02*
X84814838Y-118505303D01*
X84814838Y-118505303D02*
X84338648Y-118600541D01*
X85386267Y-118933875D02*
X85291029Y-118886256D01*
X85291029Y-118886256D02*
X85243410Y-118791017D01*
X85243410Y-118791017D02*
X85243410Y-117933875D01*
X86195791Y-118933875D02*
X86195791Y-117933875D01*
X86195791Y-118886256D02*
X86100553Y-118933875D01*
X86100553Y-118933875D02*
X85910077Y-118933875D01*
X85910077Y-118933875D02*
X85814839Y-118886256D01*
X85814839Y-118886256D02*
X85767220Y-118838636D01*
X85767220Y-118838636D02*
X85719601Y-118743398D01*
X85719601Y-118743398D02*
X85719601Y-118457684D01*
X85719601Y-118457684D02*
X85767220Y-118362446D01*
X85767220Y-118362446D02*
X85814839Y-118314827D01*
X85814839Y-118314827D02*
X85910077Y-118267208D01*
X85910077Y-118267208D02*
X86100553Y-118267208D01*
X86100553Y-118267208D02*
X86195791Y-118314827D01*
X87433887Y-118933875D02*
X87433887Y-117933875D01*
X87910077Y-118267208D02*
X87910077Y-118933875D01*
X87910077Y-118362446D02*
X87957696Y-118314827D01*
X87957696Y-118314827D02*
X88052934Y-118267208D01*
X88052934Y-118267208D02*
X88195791Y-118267208D01*
X88195791Y-118267208D02*
X88291029Y-118314827D01*
X88291029Y-118314827D02*
X88338648Y-118410065D01*
X88338648Y-118410065D02*
X88338648Y-118933875D01*
X88671982Y-118267208D02*
X89052934Y-118267208D01*
X88814839Y-117933875D02*
X88814839Y-118791017D01*
X88814839Y-118791017D02*
X88862458Y-118886256D01*
X88862458Y-118886256D02*
X88957696Y-118933875D01*
X88957696Y-118933875D02*
X89052934Y-118933875D01*
X89529125Y-118933875D02*
X89433887Y-118886256D01*
X89433887Y-118886256D02*
X89386268Y-118838636D01*
X89386268Y-118838636D02*
X89338649Y-118743398D01*
X89338649Y-118743398D02*
X89338649Y-118457684D01*
X89338649Y-118457684D02*
X89386268Y-118362446D01*
X89386268Y-118362446D02*
X89433887Y-118314827D01*
X89433887Y-118314827D02*
X89529125Y-118267208D01*
X89529125Y-118267208D02*
X89671982Y-118267208D01*
X89671982Y-118267208D02*
X89767220Y-118314827D01*
X89767220Y-118314827D02*
X89814839Y-118362446D01*
X89814839Y-118362446D02*
X89862458Y-118457684D01*
X89862458Y-118457684D02*
X89862458Y-118743398D01*
X89862458Y-118743398D02*
X89814839Y-118838636D01*
X89814839Y-118838636D02*
X89767220Y-118886256D01*
X89767220Y-118886256D02*
X89671982Y-118933875D01*
X89671982Y-118933875D02*
X89529125Y-118933875D01*
X90910078Y-117933875D02*
X91481506Y-117933875D01*
X91195792Y-118933875D02*
X91195792Y-117933875D01*
X91814840Y-118933875D02*
X91814840Y-117933875D01*
X91814840Y-118410065D02*
X92386268Y-118410065D01*
X92386268Y-118933875D02*
X92386268Y-117933875D01*
X92862459Y-118933875D02*
X92862459Y-117933875D01*
X93291030Y-118886256D02*
X93433887Y-118933875D01*
X93433887Y-118933875D02*
X93671982Y-118933875D01*
X93671982Y-118933875D02*
X93767220Y-118886256D01*
X93767220Y-118886256D02*
X93814839Y-118838636D01*
X93814839Y-118838636D02*
X93862458Y-118743398D01*
X93862458Y-118743398D02*
X93862458Y-118648160D01*
X93862458Y-118648160D02*
X93814839Y-118552922D01*
X93814839Y-118552922D02*
X93767220Y-118505303D01*
X93767220Y-118505303D02*
X93671982Y-118457684D01*
X93671982Y-118457684D02*
X93481506Y-118410065D01*
X93481506Y-118410065D02*
X93386268Y-118362446D01*
X93386268Y-118362446D02*
X93338649Y-118314827D01*
X93338649Y-118314827D02*
X93291030Y-118219589D01*
X93291030Y-118219589D02*
X93291030Y-118124351D01*
X93291030Y-118124351D02*
X93338649Y-118029113D01*
X93338649Y-118029113D02*
X93386268Y-117981494D01*
X93386268Y-117981494D02*
X93481506Y-117933875D01*
X93481506Y-117933875D02*
X93719601Y-117933875D01*
X93719601Y-117933875D02*
X93862458Y-117981494D01*
X95005316Y-118886256D02*
X95148173Y-118933875D01*
X95148173Y-118933875D02*
X95386268Y-118933875D01*
X95386268Y-118933875D02*
X95481506Y-118886256D01*
X95481506Y-118886256D02*
X95529125Y-118838636D01*
X95529125Y-118838636D02*
X95576744Y-118743398D01*
X95576744Y-118743398D02*
X95576744Y-118648160D01*
X95576744Y-118648160D02*
X95529125Y-118552922D01*
X95529125Y-118552922D02*
X95481506Y-118505303D01*
X95481506Y-118505303D02*
X95386268Y-118457684D01*
X95386268Y-118457684D02*
X95195792Y-118410065D01*
X95195792Y-118410065D02*
X95100554Y-118362446D01*
X95100554Y-118362446D02*
X95052935Y-118314827D01*
X95052935Y-118314827D02*
X95005316Y-118219589D01*
X95005316Y-118219589D02*
X95005316Y-118124351D01*
X95005316Y-118124351D02*
X95052935Y-118029113D01*
X95052935Y-118029113D02*
X95100554Y-117981494D01*
X95100554Y-117981494D02*
X95195792Y-117933875D01*
X95195792Y-117933875D02*
X95433887Y-117933875D01*
X95433887Y-117933875D02*
X95576744Y-117981494D01*
X96005316Y-118933875D02*
X96005316Y-118267208D01*
X96005316Y-117933875D02*
X95957697Y-117981494D01*
X95957697Y-117981494D02*
X96005316Y-118029113D01*
X96005316Y-118029113D02*
X96052935Y-117981494D01*
X96052935Y-117981494D02*
X96005316Y-117933875D01*
X96005316Y-117933875D02*
X96005316Y-118029113D01*
X96910077Y-118933875D02*
X96910077Y-117933875D01*
X96910077Y-118886256D02*
X96814839Y-118933875D01*
X96814839Y-118933875D02*
X96624363Y-118933875D01*
X96624363Y-118933875D02*
X96529125Y-118886256D01*
X96529125Y-118886256D02*
X96481506Y-118838636D01*
X96481506Y-118838636D02*
X96433887Y-118743398D01*
X96433887Y-118743398D02*
X96433887Y-118457684D01*
X96433887Y-118457684D02*
X96481506Y-118362446D01*
X96481506Y-118362446D02*
X96529125Y-118314827D01*
X96529125Y-118314827D02*
X96624363Y-118267208D01*
X96624363Y-118267208D02*
X96814839Y-118267208D01*
X96814839Y-118267208D02*
X96910077Y-118314827D01*
X97767220Y-118886256D02*
X97671982Y-118933875D01*
X97671982Y-118933875D02*
X97481506Y-118933875D01*
X97481506Y-118933875D02*
X97386268Y-118886256D01*
X97386268Y-118886256D02*
X97338649Y-118791017D01*
X97338649Y-118791017D02*
X97338649Y-118410065D01*
X97338649Y-118410065D02*
X97386268Y-118314827D01*
X97386268Y-118314827D02*
X97481506Y-118267208D01*
X97481506Y-118267208D02*
X97671982Y-118267208D01*
X97671982Y-118267208D02*
X97767220Y-118314827D01*
X97767220Y-118314827D02*
X97814839Y-118410065D01*
X97814839Y-118410065D02*
X97814839Y-118505303D01*
X97814839Y-118505303D02*
X97338649Y-118600541D01*
X87338646Y-120924771D02*
X87291027Y-120877152D01*
X87291027Y-120877152D02*
X87195789Y-120734295D01*
X87195789Y-120734295D02*
X87148170Y-120639057D01*
X87148170Y-120639057D02*
X87100551Y-120496200D01*
X87100551Y-120496200D02*
X87052932Y-120258104D01*
X87052932Y-120258104D02*
X87052932Y-120067628D01*
X87052932Y-120067628D02*
X87100551Y-119829533D01*
X87100551Y-119829533D02*
X87148170Y-119686676D01*
X87148170Y-119686676D02*
X87195789Y-119591438D01*
X87195789Y-119591438D02*
X87291027Y-119448580D01*
X87291027Y-119448580D02*
X87338646Y-119400961D01*
X87719599Y-120543819D02*
X87719599Y-119543819D01*
X88195789Y-119877152D02*
X88195789Y-120543819D01*
X88195789Y-119972390D02*
X88243408Y-119924771D01*
X88243408Y-119924771D02*
X88338646Y-119877152D01*
X88338646Y-119877152D02*
X88481503Y-119877152D01*
X88481503Y-119877152D02*
X88576741Y-119924771D01*
X88576741Y-119924771D02*
X88624360Y-120020009D01*
X88624360Y-120020009D02*
X88624360Y-120543819D01*
X88957694Y-119877152D02*
X89338646Y-119877152D01*
X89100551Y-119543819D02*
X89100551Y-120400961D01*
X89100551Y-120400961D02*
X89148170Y-120496200D01*
X89148170Y-120496200D02*
X89243408Y-120543819D01*
X89243408Y-120543819D02*
X89338646Y-120543819D01*
X89814837Y-120543819D02*
X89719599Y-120496200D01*
X89719599Y-120496200D02*
X89671980Y-120448580D01*
X89671980Y-120448580D02*
X89624361Y-120353342D01*
X89624361Y-120353342D02*
X89624361Y-120067628D01*
X89624361Y-120067628D02*
X89671980Y-119972390D01*
X89671980Y-119972390D02*
X89719599Y-119924771D01*
X89719599Y-119924771D02*
X89814837Y-119877152D01*
X89814837Y-119877152D02*
X89957694Y-119877152D01*
X89957694Y-119877152D02*
X90052932Y-119924771D01*
X90052932Y-119924771D02*
X90100551Y-119972390D01*
X90100551Y-119972390D02*
X90148170Y-120067628D01*
X90148170Y-120067628D02*
X90148170Y-120353342D01*
X90148170Y-120353342D02*
X90100551Y-120448580D01*
X90100551Y-120448580D02*
X90052932Y-120496200D01*
X90052932Y-120496200D02*
X89957694Y-120543819D01*
X89957694Y-120543819D02*
X89814837Y-120543819D01*
X91291028Y-120496200D02*
X91433885Y-120543819D01*
X91433885Y-120543819D02*
X91671980Y-120543819D01*
X91671980Y-120543819D02*
X91767218Y-120496200D01*
X91767218Y-120496200D02*
X91814837Y-120448580D01*
X91814837Y-120448580D02*
X91862456Y-120353342D01*
X91862456Y-120353342D02*
X91862456Y-120258104D01*
X91862456Y-120258104D02*
X91814837Y-120162866D01*
X91814837Y-120162866D02*
X91767218Y-120115247D01*
X91767218Y-120115247D02*
X91671980Y-120067628D01*
X91671980Y-120067628D02*
X91481504Y-120020009D01*
X91481504Y-120020009D02*
X91386266Y-119972390D01*
X91386266Y-119972390D02*
X91338647Y-119924771D01*
X91338647Y-119924771D02*
X91291028Y-119829533D01*
X91291028Y-119829533D02*
X91291028Y-119734295D01*
X91291028Y-119734295D02*
X91338647Y-119639057D01*
X91338647Y-119639057D02*
X91386266Y-119591438D01*
X91386266Y-119591438D02*
X91481504Y-119543819D01*
X91481504Y-119543819D02*
X91719599Y-119543819D01*
X91719599Y-119543819D02*
X91862456Y-119591438D01*
X92719599Y-120543819D02*
X92719599Y-120020009D01*
X92719599Y-120020009D02*
X92671980Y-119924771D01*
X92671980Y-119924771D02*
X92576742Y-119877152D01*
X92576742Y-119877152D02*
X92386266Y-119877152D01*
X92386266Y-119877152D02*
X92291028Y-119924771D01*
X92719599Y-120496200D02*
X92624361Y-120543819D01*
X92624361Y-120543819D02*
X92386266Y-120543819D01*
X92386266Y-120543819D02*
X92291028Y-120496200D01*
X92291028Y-120496200D02*
X92243409Y-120400961D01*
X92243409Y-120400961D02*
X92243409Y-120305723D01*
X92243409Y-120305723D02*
X92291028Y-120210485D01*
X92291028Y-120210485D02*
X92386266Y-120162866D01*
X92386266Y-120162866D02*
X92624361Y-120162866D01*
X92624361Y-120162866D02*
X92719599Y-120115247D01*
X93052933Y-119877152D02*
X93433885Y-119877152D01*
X93195790Y-119543819D02*
X93195790Y-120400961D01*
X93195790Y-120400961D02*
X93243409Y-120496200D01*
X93243409Y-120496200D02*
X93338647Y-120543819D01*
X93338647Y-120543819D02*
X93433885Y-120543819D01*
X94148171Y-120496200D02*
X94052933Y-120543819D01*
X94052933Y-120543819D02*
X93862457Y-120543819D01*
X93862457Y-120543819D02*
X93767219Y-120496200D01*
X93767219Y-120496200D02*
X93719600Y-120400961D01*
X93719600Y-120400961D02*
X93719600Y-120020009D01*
X93719600Y-120020009D02*
X93767219Y-119924771D01*
X93767219Y-119924771D02*
X93862457Y-119877152D01*
X93862457Y-119877152D02*
X94052933Y-119877152D01*
X94052933Y-119877152D02*
X94148171Y-119924771D01*
X94148171Y-119924771D02*
X94195790Y-120020009D01*
X94195790Y-120020009D02*
X94195790Y-120115247D01*
X94195790Y-120115247D02*
X93719600Y-120210485D01*
X94767219Y-120543819D02*
X94671981Y-120496200D01*
X94671981Y-120496200D02*
X94624362Y-120400961D01*
X94624362Y-120400961D02*
X94624362Y-119543819D01*
X95291029Y-120543819D02*
X95195791Y-120496200D01*
X95195791Y-120496200D02*
X95148172Y-120400961D01*
X95148172Y-120400961D02*
X95148172Y-119543819D01*
X95671982Y-120543819D02*
X95671982Y-119877152D01*
X95671982Y-119543819D02*
X95624363Y-119591438D01*
X95624363Y-119591438D02*
X95671982Y-119639057D01*
X95671982Y-119639057D02*
X95719601Y-119591438D01*
X95719601Y-119591438D02*
X95671982Y-119543819D01*
X95671982Y-119543819D02*
X95671982Y-119639057D01*
X96005315Y-119877152D02*
X96386267Y-119877152D01*
X96148172Y-119543819D02*
X96148172Y-120400961D01*
X96148172Y-120400961D02*
X96195791Y-120496200D01*
X96195791Y-120496200D02*
X96291029Y-120543819D01*
X96291029Y-120543819D02*
X96386267Y-120543819D01*
X97100553Y-120496200D02*
X97005315Y-120543819D01*
X97005315Y-120543819D02*
X96814839Y-120543819D01*
X96814839Y-120543819D02*
X96719601Y-120496200D01*
X96719601Y-120496200D02*
X96671982Y-120400961D01*
X96671982Y-120400961D02*
X96671982Y-120020009D01*
X96671982Y-120020009D02*
X96719601Y-119924771D01*
X96719601Y-119924771D02*
X96814839Y-119877152D01*
X96814839Y-119877152D02*
X97005315Y-119877152D01*
X97005315Y-119877152D02*
X97100553Y-119924771D01*
X97100553Y-119924771D02*
X97148172Y-120020009D01*
X97148172Y-120020009D02*
X97148172Y-120115247D01*
X97148172Y-120115247D02*
X96671982Y-120210485D01*
X97481506Y-120924771D02*
X97529125Y-120877152D01*
X97529125Y-120877152D02*
X97624363Y-120734295D01*
X97624363Y-120734295D02*
X97671982Y-120639057D01*
X97671982Y-120639057D02*
X97719601Y-120496200D01*
X97719601Y-120496200D02*
X97767220Y-120258104D01*
X97767220Y-120258104D02*
X97767220Y-120067628D01*
X97767220Y-120067628D02*
X97719601Y-119829533D01*
X97719601Y-119829533D02*
X97671982Y-119686676D01*
X97671982Y-119686676D02*
X97624363Y-119591438D01*
X97624363Y-119591438D02*
X97529125Y-119448580D01*
X97529125Y-119448580D02*
X97481506Y-119400961D01*
X69164588Y-115243819D02*
X68593160Y-115243819D01*
X68878874Y-115243819D02*
X68878874Y-114243819D01*
X68878874Y-114243819D02*
X68783636Y-114386676D01*
X68783636Y-114386676D02*
X68688398Y-114481914D01*
X68688398Y-114481914D02*
X68593160Y-114529533D01*
X51642095Y-54028819D02*
X51642095Y-53028819D01*
X51642095Y-53505009D02*
X52213523Y-53505009D01*
X52213523Y-54028819D02*
X52213523Y-53028819D01*
X52642095Y-53124057D02*
X52689714Y-53076438D01*
X52689714Y-53076438D02*
X52784952Y-53028819D01*
X52784952Y-53028819D02*
X53023047Y-53028819D01*
X53023047Y-53028819D02*
X53118285Y-53076438D01*
X53118285Y-53076438D02*
X53165904Y-53124057D01*
X53165904Y-53124057D02*
X53213523Y-53219295D01*
X53213523Y-53219295D02*
X53213523Y-53314533D01*
X53213523Y-53314533D02*
X53165904Y-53457390D01*
X53165904Y-53457390D02*
X52594476Y-54028819D01*
X52594476Y-54028819D02*
X53213523Y-54028819D01*
X72906095Y-118080819D02*
X73477523Y-118080819D01*
X73191809Y-119080819D02*
X73191809Y-118080819D01*
X73810857Y-119080819D02*
X73810857Y-118080819D01*
X73810857Y-118080819D02*
X74191809Y-118080819D01*
X74191809Y-118080819D02*
X74287047Y-118128438D01*
X74287047Y-118128438D02*
X74334666Y-118176057D01*
X74334666Y-118176057D02*
X74382285Y-118271295D01*
X74382285Y-118271295D02*
X74382285Y-118414152D01*
X74382285Y-118414152D02*
X74334666Y-118509390D01*
X74334666Y-118509390D02*
X74287047Y-118557009D01*
X74287047Y-118557009D02*
X74191809Y-118604628D01*
X74191809Y-118604628D02*
X73810857Y-118604628D01*
X75334666Y-119080819D02*
X74763238Y-119080819D01*
X75048952Y-119080819D02*
X75048952Y-118080819D01*
X75048952Y-118080819D02*
X74953714Y-118223676D01*
X74953714Y-118223676D02*
X74858476Y-118318914D01*
X74858476Y-118318914D02*
X74763238Y-118366533D01*
X155359726Y-54028819D02*
X155359726Y-53028819D01*
X155359726Y-53505009D02*
X155931154Y-53505009D01*
X155931154Y-54028819D02*
X155931154Y-53028819D01*
X156312107Y-53028819D02*
X156931154Y-53028819D01*
X156931154Y-53028819D02*
X156597821Y-53409771D01*
X156597821Y-53409771D02*
X156740678Y-53409771D01*
X156740678Y-53409771D02*
X156835916Y-53457390D01*
X156835916Y-53457390D02*
X156883535Y-53505009D01*
X156883535Y-53505009D02*
X156931154Y-53600247D01*
X156931154Y-53600247D02*
X156931154Y-53838342D01*
X156931154Y-53838342D02*
X156883535Y-53933580D01*
X156883535Y-53933580D02*
X156835916Y-53981200D01*
X156835916Y-53981200D02*
X156740678Y-54028819D01*
X156740678Y-54028819D02*
X156454964Y-54028819D01*
X156454964Y-54028819D02*
X156359726Y-53981200D01*
X156359726Y-53981200D02*
X156312107Y-53933580D01*
X259109726Y-125140819D02*
X259109726Y-124140819D01*
X259109726Y-124617009D02*
X259681154Y-124617009D01*
X259681154Y-125140819D02*
X259681154Y-124140819D01*
X260585916Y-124140819D02*
X260395440Y-124140819D01*
X260395440Y-124140819D02*
X260300202Y-124188438D01*
X260300202Y-124188438D02*
X260252583Y-124236057D01*
X260252583Y-124236057D02*
X260157345Y-124378914D01*
X260157345Y-124378914D02*
X260109726Y-124569390D01*
X260109726Y-124569390D02*
X260109726Y-124950342D01*
X260109726Y-124950342D02*
X260157345Y-125045580D01*
X260157345Y-125045580D02*
X260204964Y-125093200D01*
X260204964Y-125093200D02*
X260300202Y-125140819D01*
X260300202Y-125140819D02*
X260490678Y-125140819D01*
X260490678Y-125140819D02*
X260585916Y-125093200D01*
X260585916Y-125093200D02*
X260633535Y-125045580D01*
X260633535Y-125045580D02*
X260681154Y-124950342D01*
X260681154Y-124950342D02*
X260681154Y-124712247D01*
X260681154Y-124712247D02*
X260633535Y-124617009D01*
X260633535Y-124617009D02*
X260585916Y-124569390D01*
X260585916Y-124569390D02*
X260490678Y-124521771D01*
X260490678Y-124521771D02*
X260300202Y-124521771D01*
X260300202Y-124521771D02*
X260204964Y-124569390D01*
X260204964Y-124569390D02*
X260157345Y-124617009D01*
X260157345Y-124617009D02*
X260109726Y-124712247D01*
X155359726Y-125140819D02*
X155359726Y-124140819D01*
X155359726Y-124617009D02*
X155931154Y-124617009D01*
X155931154Y-125140819D02*
X155931154Y-124140819D01*
X156883535Y-124140819D02*
X156407345Y-124140819D01*
X156407345Y-124140819D02*
X156359726Y-124617009D01*
X156359726Y-124617009D02*
X156407345Y-124569390D01*
X156407345Y-124569390D02*
X156502583Y-124521771D01*
X156502583Y-124521771D02*
X156740678Y-124521771D01*
X156740678Y-124521771D02*
X156835916Y-124569390D01*
X156835916Y-124569390D02*
X156883535Y-124617009D01*
X156883535Y-124617009D02*
X156931154Y-124712247D01*
X156931154Y-124712247D02*
X156931154Y-124950342D01*
X156931154Y-124950342D02*
X156883535Y-125045580D01*
X156883535Y-125045580D02*
X156835916Y-125093200D01*
X156835916Y-125093200D02*
X156740678Y-125140819D01*
X156740678Y-125140819D02*
X156502583Y-125140819D01*
X156502583Y-125140819D02*
X156407345Y-125093200D01*
X156407345Y-125093200D02*
X156359726Y-125045580D01*
X51609726Y-125140819D02*
X51609726Y-124140819D01*
X51609726Y-124617009D02*
X52181154Y-124617009D01*
X52181154Y-125140819D02*
X52181154Y-124140819D01*
X53181154Y-125140819D02*
X52609726Y-125140819D01*
X52895440Y-125140819D02*
X52895440Y-124140819D01*
X52895440Y-124140819D02*
X52800202Y-124283676D01*
X52800202Y-124283676D02*
X52704964Y-124378914D01*
X52704964Y-124378914D02*
X52609726Y-124426533D01*
X259142095Y-54228819D02*
X259142095Y-53228819D01*
X259142095Y-53705009D02*
X259713523Y-53705009D01*
X259713523Y-54228819D02*
X259713523Y-53228819D01*
X260618285Y-53562152D02*
X260618285Y-54228819D01*
X260380190Y-53181200D02*
X260142095Y-53895485D01*
X260142095Y-53895485D02*
X260761142Y-53895485D01*
D11*
X68748000Y-117026000D02*
X79648000Y-117026000D01*
X68748000Y-120226000D02*
X68748000Y-117026000D01*
X79648000Y-117026000D02*
X79648000Y-120226000D01*
X79648000Y-120226000D02*
X68748000Y-120226000D01*
%LPC*%
D12*
X52371631Y-50586000D03*
D13*
X52371631Y-50586000D03*
D12*
X70348000Y-118626000D03*
X77968000Y-118626000D03*
X156121631Y-50586000D03*
D13*
X156121631Y-50586000D03*
D12*
X259871631Y-127586000D03*
D13*
X259871631Y-127586000D03*
D12*
X156121631Y-127586000D03*
D13*
X156121631Y-127586000D03*
D12*
X52371631Y-127586000D03*
D13*
X52371631Y-127586000D03*
D12*
X259871631Y-50586000D03*
D13*
X259871631Y-50586000D03*
%LPD*%
M02*
