%TF.GenerationSoftware,KiCad,Pcbnew,(6.0.5)*%
%TF.CreationDate,2022-07-09T16:18:46-07:00*%
%TF.ProjectId,solar-panel-side-Y-minus,736f6c61-722d-4706-916e-656c2d736964,rev?*%
%TF.SameCoordinates,Original*%
%TF.FileFunction,Legend,Bot*%
%TF.FilePolarity,Positive*%
%FSLAX46Y46*%
G04 Gerber Fmt 4.6, Leading zero omitted, Abs format (unit mm)*
G04 Created by KiCad (PCBNEW (6.0.5)) date 2022-07-09 16:18:46*
%MOMM*%
%LPD*%
G01*
G04 APERTURE LIST*
G04 Aperture macros list*
%AMRoundRect*
0 Rectangle with rounded corners*
0 $1 Rounding radius*
0 $2 $3 $4 $5 $6 $7 $8 $9 X,Y pos of 4 corners*
0 Add a 4 corners polygon primitive as box body*
4,1,4,$2,$3,$4,$5,$6,$7,$8,$9,$2,$3,0*
0 Add four circle primitives for the rounded corners*
1,1,$1+$1,$2,$3*
1,1,$1+$1,$4,$5*
1,1,$1+$1,$6,$7*
1,1,$1+$1,$8,$9*
0 Add four rect primitives between the rounded corners*
20,1,$1+$1,$2,$3,$4,$5,0*
20,1,$1+$1,$4,$5,$6,$7,0*
20,1,$1+$1,$6,$7,$8,$9,0*
20,1,$1+$1,$8,$9,$2,$3,0*%
G04 Aperture macros list end*
%ADD10C,0.100000*%
%ADD11C,0.200000*%
%ADD12C,0.150000*%
%ADD13C,0.127000*%
%ADD14C,0.120000*%
%ADD15C,0.010000*%
%ADD16C,3.000000*%
%ADD17C,3.800000*%
%ADD18C,2.600000*%
%ADD19RoundRect,0.200000X0.200000X0.275000X-0.200000X0.275000X-0.200000X-0.275000X0.200000X-0.275000X0*%
%ADD20RoundRect,0.200000X-0.200000X-0.275000X0.200000X-0.275000X0.200000X0.275000X-0.200000X0.275000X0*%
%ADD21R,0.600000X0.400000*%
%ADD22R,0.650000X0.400000*%
%ADD23RoundRect,0.225000X0.225000X0.250000X-0.225000X0.250000X-0.225000X-0.250000X0.225000X-0.250000X0*%
G04 APERTURE END LIST*
D10*
X180873333Y-63150000D02*
X180940000Y-63116666D01*
X181040000Y-63116666D01*
X181140000Y-63150000D01*
X181206666Y-63216666D01*
X181240000Y-63283333D01*
X181273333Y-63416666D01*
X181273333Y-63516666D01*
X181240000Y-63650000D01*
X181206666Y-63716666D01*
X181140000Y-63783333D01*
X181040000Y-63816666D01*
X180973333Y-63816666D01*
X180873333Y-63783333D01*
X180840000Y-63750000D01*
X180840000Y-63516666D01*
X180973333Y-63516666D01*
X180540000Y-63816666D02*
X180540000Y-63116666D01*
X180140000Y-63816666D01*
X180140000Y-63116666D01*
X179806666Y-63816666D02*
X179806666Y-63116666D01*
X179640000Y-63116666D01*
X179540000Y-63150000D01*
X179473333Y-63216666D01*
X179440000Y-63283333D01*
X179406666Y-63416666D01*
X179406666Y-63516666D01*
X179440000Y-63650000D01*
X179473333Y-63716666D01*
X179540000Y-63783333D01*
X179640000Y-63816666D01*
X179806666Y-63816666D01*
X181190000Y-61751333D02*
X181090000Y-61784666D01*
X180923333Y-61784666D01*
X180856666Y-61751333D01*
X180823333Y-61718000D01*
X180790000Y-61651333D01*
X180790000Y-61584666D01*
X180823333Y-61518000D01*
X180856666Y-61484666D01*
X180923333Y-61451333D01*
X181056666Y-61418000D01*
X181123333Y-61384666D01*
X181156666Y-61351333D01*
X181190000Y-61284666D01*
X181190000Y-61218000D01*
X181156666Y-61151333D01*
X181123333Y-61118000D01*
X181056666Y-61084666D01*
X180890000Y-61084666D01*
X180790000Y-61118000D01*
X180490000Y-61784666D02*
X180490000Y-61084666D01*
X180323333Y-61084666D01*
X180223333Y-61118000D01*
X180156666Y-61184666D01*
X180123333Y-61251333D01*
X180090000Y-61384666D01*
X180090000Y-61484666D01*
X180123333Y-61618000D01*
X180156666Y-61684666D01*
X180223333Y-61751333D01*
X180323333Y-61784666D01*
X180490000Y-61784666D01*
X179823333Y-61584666D02*
X179490000Y-61584666D01*
X179890000Y-61784666D02*
X179656666Y-61084666D01*
X179423333Y-61784666D01*
X181173333Y-59719333D02*
X181073333Y-59752666D01*
X180906666Y-59752666D01*
X180840000Y-59719333D01*
X180806666Y-59686000D01*
X180773333Y-59619333D01*
X180773333Y-59552666D01*
X180806666Y-59486000D01*
X180840000Y-59452666D01*
X180906666Y-59419333D01*
X181040000Y-59386000D01*
X181106666Y-59352666D01*
X181140000Y-59319333D01*
X181173333Y-59252666D01*
X181173333Y-59186000D01*
X181140000Y-59119333D01*
X181106666Y-59086000D01*
X181040000Y-59052666D01*
X180873333Y-59052666D01*
X180773333Y-59086000D01*
X180073333Y-59686000D02*
X180106666Y-59719333D01*
X180206666Y-59752666D01*
X180273333Y-59752666D01*
X180373333Y-59719333D01*
X180440000Y-59652666D01*
X180473333Y-59586000D01*
X180506666Y-59452666D01*
X180506666Y-59352666D01*
X180473333Y-59219333D01*
X180440000Y-59152666D01*
X180373333Y-59086000D01*
X180273333Y-59052666D01*
X180206666Y-59052666D01*
X180106666Y-59086000D01*
X180073333Y-59119333D01*
X179440000Y-59752666D02*
X179773333Y-59752666D01*
X179773333Y-59052666D01*
X182375000Y-65582000D02*
X181841666Y-65582000D01*
X182108333Y-65848666D02*
X182108333Y-65315333D01*
X181575000Y-65148666D02*
X181141666Y-65148666D01*
X181375000Y-65415333D01*
X181275000Y-65415333D01*
X181208333Y-65448666D01*
X181175000Y-65482000D01*
X181141666Y-65548666D01*
X181141666Y-65715333D01*
X181175000Y-65782000D01*
X181208333Y-65815333D01*
X181275000Y-65848666D01*
X181475000Y-65848666D01*
X181541666Y-65815333D01*
X181575000Y-65782000D01*
X180841666Y-65782000D02*
X180808333Y-65815333D01*
X180841666Y-65848666D01*
X180875000Y-65815333D01*
X180841666Y-65782000D01*
X180841666Y-65848666D01*
X180575000Y-65148666D02*
X180141666Y-65148666D01*
X180375000Y-65415333D01*
X180275000Y-65415333D01*
X180208333Y-65448666D01*
X180175000Y-65482000D01*
X180141666Y-65548666D01*
X180141666Y-65715333D01*
X180175000Y-65782000D01*
X180208333Y-65815333D01*
X180275000Y-65848666D01*
X180475000Y-65848666D01*
X180541666Y-65815333D01*
X180575000Y-65782000D01*
X179941666Y-65148666D02*
X179708333Y-65848666D01*
X179475000Y-65148666D01*
X180873333Y-57181000D02*
X180940000Y-57147666D01*
X181040000Y-57147666D01*
X181140000Y-57181000D01*
X181206666Y-57247666D01*
X181240000Y-57314333D01*
X181273333Y-57447666D01*
X181273333Y-57547666D01*
X181240000Y-57681000D01*
X181206666Y-57747666D01*
X181140000Y-57814333D01*
X181040000Y-57847666D01*
X180973333Y-57847666D01*
X180873333Y-57814333D01*
X180840000Y-57781000D01*
X180840000Y-57547666D01*
X180973333Y-57547666D01*
X180540000Y-57847666D02*
X180540000Y-57147666D01*
X180140000Y-57847666D01*
X180140000Y-57147666D01*
X179806666Y-57847666D02*
X179806666Y-57147666D01*
X179640000Y-57147666D01*
X179540000Y-57181000D01*
X179473333Y-57247666D01*
X179440000Y-57314333D01*
X179406666Y-57447666D01*
X179406666Y-57547666D01*
X179440000Y-57681000D01*
X179473333Y-57747666D01*
X179540000Y-57814333D01*
X179640000Y-57847666D01*
X179806666Y-57847666D01*
X182575000Y-66926666D02*
X182341666Y-67626666D01*
X182108333Y-66926666D01*
X181908333Y-67593333D02*
X181808333Y-67626666D01*
X181641666Y-67626666D01*
X181575000Y-67593333D01*
X181541666Y-67560000D01*
X181508333Y-67493333D01*
X181508333Y-67426666D01*
X181541666Y-67360000D01*
X181575000Y-67326666D01*
X181641666Y-67293333D01*
X181775000Y-67260000D01*
X181841666Y-67226666D01*
X181875000Y-67193333D01*
X181908333Y-67126666D01*
X181908333Y-67060000D01*
X181875000Y-66993333D01*
X181841666Y-66960000D01*
X181775000Y-66926666D01*
X181608333Y-66926666D01*
X181508333Y-66960000D01*
X181108333Y-67626666D02*
X181175000Y-67593333D01*
X181208333Y-67560000D01*
X181241666Y-67493333D01*
X181241666Y-67293333D01*
X181208333Y-67226666D01*
X181175000Y-67193333D01*
X181108333Y-67160000D01*
X181008333Y-67160000D01*
X180941666Y-67193333D01*
X180908333Y-67226666D01*
X180875000Y-67293333D01*
X180875000Y-67493333D01*
X180908333Y-67560000D01*
X180941666Y-67593333D01*
X181008333Y-67626666D01*
X181108333Y-67626666D01*
X180475000Y-67626666D02*
X180541666Y-67593333D01*
X180575000Y-67526666D01*
X180575000Y-66926666D01*
X179908333Y-67626666D02*
X179908333Y-67260000D01*
X179941666Y-67193333D01*
X180008333Y-67160000D01*
X180141666Y-67160000D01*
X180208333Y-67193333D01*
X179908333Y-67593333D02*
X179975000Y-67626666D01*
X180141666Y-67626666D01*
X180208333Y-67593333D01*
X180241666Y-67526666D01*
X180241666Y-67460000D01*
X180208333Y-67393333D01*
X180141666Y-67360000D01*
X179975000Y-67360000D01*
X179908333Y-67326666D01*
X179575000Y-67626666D02*
X179575000Y-67160000D01*
X179575000Y-67293333D02*
X179541666Y-67226666D01*
X179508333Y-67193333D01*
X179441666Y-67160000D01*
X179375000Y-67160000D01*
D11*
X156705714Y-54426857D02*
X156705714Y-54655428D01*
X156248571Y-54426857D02*
X156248571Y-54655428D01*
X155905714Y-54426857D02*
X155220000Y-54426857D01*
X155562857Y-55626857D02*
X155562857Y-54426857D01*
X154820000Y-55626857D02*
X154820000Y-54426857D01*
X154305714Y-55626857D02*
X154305714Y-54998285D01*
X154362857Y-54884000D01*
X154477142Y-54826857D01*
X154648571Y-54826857D01*
X154762857Y-54884000D01*
X154820000Y-54941142D01*
X153220000Y-55626857D02*
X153220000Y-54998285D01*
X153277142Y-54884000D01*
X153391428Y-54826857D01*
X153620000Y-54826857D01*
X153734285Y-54884000D01*
X153220000Y-55569714D02*
X153334285Y-55626857D01*
X153620000Y-55626857D01*
X153734285Y-55569714D01*
X153791428Y-55455428D01*
X153791428Y-55341142D01*
X153734285Y-55226857D01*
X153620000Y-55169714D01*
X153334285Y-55169714D01*
X153220000Y-55112571D01*
X152648571Y-54826857D02*
X152648571Y-55626857D01*
X152648571Y-54941142D02*
X152591428Y-54884000D01*
X152477142Y-54826857D01*
X152305714Y-54826857D01*
X152191428Y-54884000D01*
X152134285Y-54998285D01*
X152134285Y-55626857D01*
X151562857Y-55626857D02*
X151562857Y-54426857D01*
X151448571Y-55169714D02*
X151105714Y-55626857D01*
X151105714Y-54826857D02*
X151562857Y-55284000D01*
X149791428Y-54826857D02*
X149505714Y-55626857D01*
X149220000Y-54826857D02*
X149505714Y-55626857D01*
X149620000Y-55912571D01*
X149677142Y-55969714D01*
X149791428Y-56026857D01*
X148591428Y-55626857D02*
X148705714Y-55569714D01*
X148762857Y-55512571D01*
X148820000Y-55398285D01*
X148820000Y-55055428D01*
X148762857Y-54941142D01*
X148705714Y-54884000D01*
X148591428Y-54826857D01*
X148420000Y-54826857D01*
X148305714Y-54884000D01*
X148248571Y-54941142D01*
X148191428Y-55055428D01*
X148191428Y-55398285D01*
X148248571Y-55512571D01*
X148305714Y-55569714D01*
X148420000Y-55626857D01*
X148591428Y-55626857D01*
X147162857Y-54826857D02*
X147162857Y-55626857D01*
X147677142Y-54826857D02*
X147677142Y-55455428D01*
X147620000Y-55569714D01*
X147505714Y-55626857D01*
X147334285Y-55626857D01*
X147220000Y-55569714D01*
X147162857Y-55512571D01*
X146534285Y-55569714D02*
X146534285Y-55626857D01*
X146591428Y-55741142D01*
X146648571Y-55798285D01*
X145105714Y-55626857D02*
X145105714Y-54426857D01*
X144705714Y-55284000D01*
X144305714Y-54426857D01*
X144305714Y-55626857D01*
X143220000Y-55626857D02*
X143220000Y-54998285D01*
X143277142Y-54884000D01*
X143391428Y-54826857D01*
X143620000Y-54826857D01*
X143734285Y-54884000D01*
X143220000Y-55569714D02*
X143334285Y-55626857D01*
X143620000Y-55626857D01*
X143734285Y-55569714D01*
X143791428Y-55455428D01*
X143791428Y-55341142D01*
X143734285Y-55226857D01*
X143620000Y-55169714D01*
X143334285Y-55169714D01*
X143220000Y-55112571D01*
X142648571Y-55626857D02*
X142648571Y-54826857D01*
X142648571Y-54941142D02*
X142591428Y-54884000D01*
X142477142Y-54826857D01*
X142305714Y-54826857D01*
X142191428Y-54884000D01*
X142134285Y-54998285D01*
X142134285Y-55626857D01*
X142134285Y-54998285D02*
X142077142Y-54884000D01*
X141962857Y-54826857D01*
X141791428Y-54826857D01*
X141677142Y-54884000D01*
X141620000Y-54998285D01*
X141620000Y-55626857D01*
X141048571Y-55626857D02*
X141048571Y-54826857D01*
X141048571Y-54426857D02*
X141105714Y-54484000D01*
X141048571Y-54541142D01*
X140991428Y-54484000D01*
X141048571Y-54426857D01*
X141048571Y-54541142D01*
X140020000Y-55569714D02*
X140134285Y-55626857D01*
X140362857Y-55626857D01*
X140477142Y-55569714D01*
X140534285Y-55455428D01*
X140534285Y-54998285D01*
X140477142Y-54884000D01*
X140362857Y-54826857D01*
X140134285Y-54826857D01*
X140020000Y-54884000D01*
X139962857Y-54998285D01*
X139962857Y-55112571D01*
X140534285Y-55226857D01*
X139505714Y-54426857D02*
X139505714Y-54655428D01*
X139048571Y-54426857D02*
X139048571Y-54655428D01*
X149191428Y-57101714D02*
X148277142Y-57101714D01*
X147705714Y-57558857D02*
X147705714Y-56358857D01*
X147191428Y-57501714D02*
X147077142Y-57558857D01*
X146848571Y-57558857D01*
X146734285Y-57501714D01*
X146677142Y-57387428D01*
X146677142Y-57330285D01*
X146734285Y-57216000D01*
X146848571Y-57158857D01*
X147020000Y-57158857D01*
X147134285Y-57101714D01*
X147191428Y-56987428D01*
X147191428Y-56930285D01*
X147134285Y-56816000D01*
X147020000Y-56758857D01*
X146848571Y-56758857D01*
X146734285Y-56816000D01*
X145991428Y-57558857D02*
X146105714Y-57501714D01*
X146162857Y-57444571D01*
X146220000Y-57330285D01*
X146220000Y-56987428D01*
X146162857Y-56873142D01*
X146105714Y-56816000D01*
X145991428Y-56758857D01*
X145820000Y-56758857D01*
X145705714Y-56816000D01*
X145648571Y-56873142D01*
X145591428Y-56987428D01*
X145591428Y-57330285D01*
X145648571Y-57444571D01*
X145705714Y-57501714D01*
X145820000Y-57558857D01*
X145991428Y-57558857D01*
D12*
X159846666Y-97664595D02*
X159103809Y-97664595D01*
X159475238Y-98964595D02*
X159475238Y-97664595D01*
X158484761Y-98964595D02*
X158608571Y-98902690D01*
X158670476Y-98840785D01*
X158732380Y-98716976D01*
X158732380Y-98345547D01*
X158670476Y-98221738D01*
X158608571Y-98159833D01*
X158484761Y-98097928D01*
X158299047Y-98097928D01*
X158175238Y-98159833D01*
X158113333Y-98221738D01*
X158051428Y-98345547D01*
X158051428Y-98716976D01*
X158113333Y-98840785D01*
X158175238Y-98902690D01*
X158299047Y-98964595D01*
X158484761Y-98964595D01*
X156689523Y-98097928D02*
X156194285Y-98097928D01*
X156503809Y-97664595D02*
X156503809Y-98778880D01*
X156441904Y-98902690D01*
X156318095Y-98964595D01*
X156194285Y-98964595D01*
X155760952Y-98964595D02*
X155760952Y-97664595D01*
X155203809Y-98964595D02*
X155203809Y-98283642D01*
X155265714Y-98159833D01*
X155389523Y-98097928D01*
X155575238Y-98097928D01*
X155699047Y-98159833D01*
X155760952Y-98221738D01*
X154089523Y-98902690D02*
X154213333Y-98964595D01*
X154460952Y-98964595D01*
X154584761Y-98902690D01*
X154646666Y-98778880D01*
X154646666Y-98283642D01*
X154584761Y-98159833D01*
X154460952Y-98097928D01*
X154213333Y-98097928D01*
X154089523Y-98159833D01*
X154027619Y-98283642D01*
X154027619Y-98407452D01*
X154646666Y-98531261D01*
X152541904Y-98902690D02*
X152356190Y-98964595D01*
X152046666Y-98964595D01*
X151922857Y-98902690D01*
X151860952Y-98840785D01*
X151799047Y-98716976D01*
X151799047Y-98593166D01*
X151860952Y-98469357D01*
X151922857Y-98407452D01*
X152046666Y-98345547D01*
X152294285Y-98283642D01*
X152418095Y-98221738D01*
X152480000Y-98159833D01*
X152541904Y-98036023D01*
X152541904Y-97912214D01*
X152480000Y-97788404D01*
X152418095Y-97726500D01*
X152294285Y-97664595D01*
X151984761Y-97664595D01*
X151799047Y-97726500D01*
X151303809Y-98902690D02*
X151118095Y-98964595D01*
X150808571Y-98964595D01*
X150684761Y-98902690D01*
X150622857Y-98840785D01*
X150560952Y-98716976D01*
X150560952Y-98593166D01*
X150622857Y-98469357D01*
X150684761Y-98407452D01*
X150808571Y-98345547D01*
X151056190Y-98283642D01*
X151180000Y-98221738D01*
X151241904Y-98159833D01*
X151303809Y-98036023D01*
X151303809Y-97912214D01*
X151241904Y-97788404D01*
X151180000Y-97726500D01*
X151056190Y-97664595D01*
X150746666Y-97664595D01*
X150560952Y-97726500D01*
X150003809Y-98964595D02*
X150003809Y-97664595D01*
X148456190Y-98902690D02*
X148270476Y-98964595D01*
X147960952Y-98964595D01*
X147837142Y-98902690D01*
X147775238Y-98840785D01*
X147713333Y-98716976D01*
X147713333Y-98593166D01*
X147775238Y-98469357D01*
X147837142Y-98407452D01*
X147960952Y-98345547D01*
X148208571Y-98283642D01*
X148332380Y-98221738D01*
X148394285Y-98159833D01*
X148456190Y-98036023D01*
X148456190Y-97912214D01*
X148394285Y-97788404D01*
X148332380Y-97726500D01*
X148208571Y-97664595D01*
X147899047Y-97664595D01*
X147713333Y-97726500D01*
X146599047Y-98964595D02*
X146599047Y-98283642D01*
X146660952Y-98159833D01*
X146784761Y-98097928D01*
X147032380Y-98097928D01*
X147156190Y-98159833D01*
X146599047Y-98902690D02*
X146722857Y-98964595D01*
X147032380Y-98964595D01*
X147156190Y-98902690D01*
X147218095Y-98778880D01*
X147218095Y-98655071D01*
X147156190Y-98531261D01*
X147032380Y-98469357D01*
X146722857Y-98469357D01*
X146599047Y-98407452D01*
X146165714Y-98097928D02*
X145670476Y-98097928D01*
X145980000Y-97664595D02*
X145980000Y-98778880D01*
X145918095Y-98902690D01*
X145794285Y-98964595D01*
X145670476Y-98964595D01*
X144741904Y-98902690D02*
X144865714Y-98964595D01*
X145113333Y-98964595D01*
X145237142Y-98902690D01*
X145299047Y-98778880D01*
X145299047Y-98283642D01*
X145237142Y-98159833D01*
X145113333Y-98097928D01*
X144865714Y-98097928D01*
X144741904Y-98159833D01*
X144680000Y-98283642D01*
X144680000Y-98407452D01*
X145299047Y-98531261D01*
X143937142Y-98964595D02*
X144060952Y-98902690D01*
X144122857Y-98778880D01*
X144122857Y-97664595D01*
X143256190Y-98964595D02*
X143380000Y-98902690D01*
X143441904Y-98778880D01*
X143441904Y-97664595D01*
X142760952Y-98964595D02*
X142760952Y-98097928D01*
X142760952Y-97664595D02*
X142822857Y-97726500D01*
X142760952Y-97788404D01*
X142699047Y-97726500D01*
X142760952Y-97664595D01*
X142760952Y-97788404D01*
X142327619Y-98097928D02*
X141832380Y-98097928D01*
X142141904Y-97664595D02*
X142141904Y-98778880D01*
X142080000Y-98902690D01*
X141956190Y-98964595D01*
X141832380Y-98964595D01*
X140903809Y-98902690D02*
X141027619Y-98964595D01*
X141275238Y-98964595D01*
X141399047Y-98902690D01*
X141460952Y-98778880D01*
X141460952Y-98283642D01*
X141399047Y-98159833D01*
X141275238Y-98097928D01*
X141027619Y-98097928D01*
X140903809Y-98159833D01*
X140841904Y-98283642D01*
X140841904Y-98407452D01*
X141460952Y-98531261D01*
X139480000Y-97664595D02*
X138737142Y-97664595D01*
X139108571Y-98964595D02*
X139108571Y-97664595D01*
X137808571Y-98902690D02*
X137932380Y-98964595D01*
X138180000Y-98964595D01*
X138303809Y-98902690D01*
X138365714Y-98778880D01*
X138365714Y-98283642D01*
X138303809Y-98159833D01*
X138180000Y-98097928D01*
X137932380Y-98097928D01*
X137808571Y-98159833D01*
X137746666Y-98283642D01*
X137746666Y-98407452D01*
X138365714Y-98531261D01*
X136632380Y-98964595D02*
X136632380Y-98283642D01*
X136694285Y-98159833D01*
X136818095Y-98097928D01*
X137065714Y-98097928D01*
X137189523Y-98159833D01*
X136632380Y-98902690D02*
X136756190Y-98964595D01*
X137065714Y-98964595D01*
X137189523Y-98902690D01*
X137251428Y-98778880D01*
X137251428Y-98655071D01*
X137189523Y-98531261D01*
X137065714Y-98469357D01*
X136756190Y-98469357D01*
X136632380Y-98407452D01*
X136013333Y-98964595D02*
X136013333Y-98097928D01*
X136013333Y-98221738D02*
X135951428Y-98159833D01*
X135827619Y-98097928D01*
X135641904Y-98097928D01*
X135518095Y-98159833D01*
X135456190Y-98283642D01*
X135456190Y-98964595D01*
X135456190Y-98283642D02*
X135394285Y-98159833D01*
X135270476Y-98097928D01*
X135084761Y-98097928D01*
X134960952Y-98159833D01*
X134899047Y-98283642D01*
X134899047Y-98964595D01*
X152325238Y-101912500D02*
X152449047Y-101850595D01*
X152634761Y-101850595D01*
X152820476Y-101912500D01*
X152944285Y-102036309D01*
X153006190Y-102160119D01*
X153068095Y-102407738D01*
X153068095Y-102593452D01*
X153006190Y-102841071D01*
X152944285Y-102964880D01*
X152820476Y-103088690D01*
X152634761Y-103150595D01*
X152510952Y-103150595D01*
X152325238Y-103088690D01*
X152263333Y-103026785D01*
X152263333Y-102593452D01*
X152510952Y-102593452D01*
X151706190Y-103150595D02*
X151706190Y-102283928D01*
X151706190Y-102531547D02*
X151644285Y-102407738D01*
X151582380Y-102345833D01*
X151458571Y-102283928D01*
X151334761Y-102283928D01*
X150344285Y-103150595D02*
X150344285Y-102469642D01*
X150406190Y-102345833D01*
X150530000Y-102283928D01*
X150777619Y-102283928D01*
X150901428Y-102345833D01*
X150344285Y-103088690D02*
X150468095Y-103150595D01*
X150777619Y-103150595D01*
X150901428Y-103088690D01*
X150963333Y-102964880D01*
X150963333Y-102841071D01*
X150901428Y-102717261D01*
X150777619Y-102655357D01*
X150468095Y-102655357D01*
X150344285Y-102593452D01*
X149725238Y-102283928D02*
X149725238Y-103150595D01*
X149725238Y-102407738D02*
X149663333Y-102345833D01*
X149539523Y-102283928D01*
X149353809Y-102283928D01*
X149230000Y-102345833D01*
X149168095Y-102469642D01*
X149168095Y-103150595D01*
X148734761Y-102283928D02*
X148239523Y-102283928D01*
X148549047Y-101850595D02*
X148549047Y-102964880D01*
X148487142Y-103088690D01*
X148363333Y-103150595D01*
X148239523Y-103150595D01*
X146072857Y-103150595D02*
X146506190Y-102531547D01*
X146815714Y-103150595D02*
X146815714Y-101850595D01*
X146320476Y-101850595D01*
X146196666Y-101912500D01*
X146134761Y-101974404D01*
X146072857Y-102098214D01*
X146072857Y-102283928D01*
X146134761Y-102407738D01*
X146196666Y-102469642D01*
X146320476Y-102531547D01*
X146815714Y-102531547D01*
X145020476Y-103088690D02*
X145144285Y-103150595D01*
X145391904Y-103150595D01*
X145515714Y-103088690D01*
X145577619Y-102964880D01*
X145577619Y-102469642D01*
X145515714Y-102345833D01*
X145391904Y-102283928D01*
X145144285Y-102283928D01*
X145020476Y-102345833D01*
X144958571Y-102469642D01*
X144958571Y-102593452D01*
X145577619Y-102717261D01*
X143844285Y-102283928D02*
X143844285Y-103336309D01*
X143906190Y-103460119D01*
X143968095Y-103522023D01*
X144091904Y-103583928D01*
X144277619Y-103583928D01*
X144401428Y-103522023D01*
X143844285Y-103088690D02*
X143968095Y-103150595D01*
X144215714Y-103150595D01*
X144339523Y-103088690D01*
X144401428Y-103026785D01*
X144463333Y-102902976D01*
X144463333Y-102531547D01*
X144401428Y-102407738D01*
X144339523Y-102345833D01*
X144215714Y-102283928D01*
X143968095Y-102283928D01*
X143844285Y-102345833D01*
X142730000Y-103088690D02*
X142853809Y-103150595D01*
X143101428Y-103150595D01*
X143225238Y-103088690D01*
X143287142Y-102964880D01*
X143287142Y-102469642D01*
X143225238Y-102345833D01*
X143101428Y-102283928D01*
X142853809Y-102283928D01*
X142730000Y-102345833D01*
X142668095Y-102469642D01*
X142668095Y-102593452D01*
X143287142Y-102717261D01*
X142110952Y-102283928D02*
X142110952Y-103150595D01*
X142110952Y-102407738D02*
X142049047Y-102345833D01*
X141925238Y-102283928D01*
X141739523Y-102283928D01*
X141615714Y-102345833D01*
X141553809Y-102469642D01*
X141553809Y-103150595D01*
X154306190Y-104562642D02*
X154739523Y-104562642D01*
X154739523Y-105243595D02*
X154739523Y-103943595D01*
X154120476Y-103943595D01*
X153439523Y-105243595D02*
X153563333Y-105181690D01*
X153625238Y-105057880D01*
X153625238Y-103943595D01*
X153068095Y-104376928D02*
X152758571Y-105243595D01*
X152449047Y-104376928D02*
X152758571Y-105243595D01*
X152882380Y-105553119D01*
X152944285Y-105615023D01*
X153068095Y-105676928D01*
X151953809Y-104376928D02*
X151953809Y-105243595D01*
X151953809Y-104500738D02*
X151891904Y-104438833D01*
X151768095Y-104376928D01*
X151582380Y-104376928D01*
X151458571Y-104438833D01*
X151396666Y-104562642D01*
X151396666Y-105243595D01*
X150777619Y-104376928D02*
X150777619Y-105243595D01*
X150777619Y-104500738D02*
X150715714Y-104438833D01*
X150591904Y-104376928D01*
X150406190Y-104376928D01*
X150282380Y-104438833D01*
X150220476Y-104562642D01*
X150220476Y-105243595D01*
X148610952Y-105243595D02*
X148610952Y-103943595D01*
X148301428Y-103943595D01*
X148115714Y-104005500D01*
X147991904Y-104129309D01*
X147930000Y-104253119D01*
X147868095Y-104500738D01*
X147868095Y-104686452D01*
X147930000Y-104934071D01*
X147991904Y-105057880D01*
X148115714Y-105181690D01*
X148301428Y-105243595D01*
X148610952Y-105243595D01*
X147310952Y-105243595D02*
X147310952Y-104376928D01*
X147310952Y-104624547D02*
X147249047Y-104500738D01*
X147187142Y-104438833D01*
X147063333Y-104376928D01*
X146939523Y-104376928D01*
X146010952Y-105181690D02*
X146134761Y-105243595D01*
X146382380Y-105243595D01*
X146506190Y-105181690D01*
X146568095Y-105057880D01*
X146568095Y-104562642D01*
X146506190Y-104438833D01*
X146382380Y-104376928D01*
X146134761Y-104376928D01*
X146010952Y-104438833D01*
X145949047Y-104562642D01*
X145949047Y-104686452D01*
X146568095Y-104810261D01*
X145391904Y-105243595D02*
X145391904Y-104376928D01*
X145391904Y-103943595D02*
X145453809Y-104005500D01*
X145391904Y-104067404D01*
X145330000Y-104005500D01*
X145391904Y-103943595D01*
X145391904Y-104067404D01*
X144587142Y-105243595D02*
X144710952Y-105181690D01*
X144772857Y-105057880D01*
X144772857Y-103943595D01*
X144091904Y-105243595D02*
X144091904Y-104376928D01*
X144091904Y-103943595D02*
X144153809Y-104005500D01*
X144091904Y-104067404D01*
X144030000Y-104005500D01*
X144091904Y-103943595D01*
X144091904Y-104067404D01*
X143472857Y-104376928D02*
X143472857Y-105243595D01*
X143472857Y-104500738D02*
X143410952Y-104438833D01*
X143287142Y-104376928D01*
X143101428Y-104376928D01*
X142977619Y-104438833D01*
X142915714Y-104562642D01*
X142915714Y-105243595D01*
X141739523Y-104376928D02*
X141739523Y-105429309D01*
X141801428Y-105553119D01*
X141863333Y-105615023D01*
X141987142Y-105676928D01*
X142172857Y-105676928D01*
X142296666Y-105615023D01*
X141739523Y-105181690D02*
X141863333Y-105243595D01*
X142110952Y-105243595D01*
X142234761Y-105181690D01*
X142296666Y-105119785D01*
X142358571Y-104995976D01*
X142358571Y-104624547D01*
X142296666Y-104500738D01*
X142234761Y-104438833D01*
X142110952Y-104376928D01*
X141863333Y-104376928D01*
X141739523Y-104438833D01*
X140625238Y-105181690D02*
X140749047Y-105243595D01*
X140996666Y-105243595D01*
X141120476Y-105181690D01*
X141182380Y-105057880D01*
X141182380Y-104562642D01*
X141120476Y-104438833D01*
X140996666Y-104376928D01*
X140749047Y-104376928D01*
X140625238Y-104438833D01*
X140563333Y-104562642D01*
X140563333Y-104686452D01*
X141182380Y-104810261D01*
X140006190Y-105243595D02*
X140006190Y-104376928D01*
X140006190Y-104624547D02*
X139944285Y-104500738D01*
X139882380Y-104438833D01*
X139758571Y-104376928D01*
X139634761Y-104376928D01*
X153253809Y-106036595D02*
X153253809Y-106965166D01*
X153315714Y-107150880D01*
X153439523Y-107274690D01*
X153625238Y-107336595D01*
X153749047Y-107336595D01*
X152077619Y-107336595D02*
X152077619Y-106655642D01*
X152139523Y-106531833D01*
X152263333Y-106469928D01*
X152510952Y-106469928D01*
X152634761Y-106531833D01*
X152077619Y-107274690D02*
X152201428Y-107336595D01*
X152510952Y-107336595D01*
X152634761Y-107274690D01*
X152696666Y-107150880D01*
X152696666Y-107027071D01*
X152634761Y-106903261D01*
X152510952Y-106841357D01*
X152201428Y-106841357D01*
X152077619Y-106779452D01*
X150901428Y-107274690D02*
X151025238Y-107336595D01*
X151272857Y-107336595D01*
X151396666Y-107274690D01*
X151458571Y-107212785D01*
X151520476Y-107088976D01*
X151520476Y-106717547D01*
X151458571Y-106593738D01*
X151396666Y-106531833D01*
X151272857Y-106469928D01*
X151025238Y-106469928D01*
X150901428Y-106531833D01*
X150158571Y-107336595D02*
X150282380Y-107274690D01*
X150344285Y-107212785D01*
X150406190Y-107088976D01*
X150406190Y-106717547D01*
X150344285Y-106593738D01*
X150282380Y-106531833D01*
X150158571Y-106469928D01*
X149972857Y-106469928D01*
X149849047Y-106531833D01*
X149787142Y-106593738D01*
X149725238Y-106717547D01*
X149725238Y-107088976D01*
X149787142Y-107212785D01*
X149849047Y-107274690D01*
X149972857Y-107336595D01*
X150158571Y-107336595D01*
X149168095Y-107336595D02*
X149168095Y-106036595D01*
X149168095Y-106531833D02*
X149044285Y-106469928D01*
X148796666Y-106469928D01*
X148672857Y-106531833D01*
X148610952Y-106593738D01*
X148549047Y-106717547D01*
X148549047Y-107088976D01*
X148610952Y-107212785D01*
X148672857Y-107274690D01*
X148796666Y-107336595D01*
X149044285Y-107336595D01*
X149168095Y-107274690D01*
X147001428Y-107336595D02*
X147001428Y-106036595D01*
X146568095Y-106965166D01*
X146134761Y-106036595D01*
X146134761Y-107336595D01*
X144958571Y-106469928D02*
X144958571Y-107336595D01*
X145515714Y-106469928D02*
X145515714Y-107150880D01*
X145453809Y-107274690D01*
X145330000Y-107336595D01*
X145144285Y-107336595D01*
X145020476Y-107274690D01*
X144958571Y-107212785D01*
X144339523Y-107336595D02*
X144339523Y-106036595D01*
X144215714Y-106841357D02*
X143844285Y-107336595D01*
X143844285Y-106469928D02*
X144339523Y-106965166D01*
X143101428Y-107336595D02*
X143225238Y-107274690D01*
X143287142Y-107212785D01*
X143349047Y-107088976D01*
X143349047Y-106717547D01*
X143287142Y-106593738D01*
X143225238Y-106531833D01*
X143101428Y-106469928D01*
X142915714Y-106469928D01*
X142791904Y-106531833D01*
X142730000Y-106593738D01*
X142668095Y-106717547D01*
X142668095Y-107088976D01*
X142730000Y-107212785D01*
X142791904Y-107274690D01*
X142915714Y-107336595D01*
X143101428Y-107336595D01*
X142110952Y-107336595D02*
X142110952Y-106036595D01*
X142110952Y-106531833D02*
X141987142Y-106469928D01*
X141739523Y-106469928D01*
X141615714Y-106531833D01*
X141553809Y-106593738D01*
X141491904Y-106717547D01*
X141491904Y-107088976D01*
X141553809Y-107212785D01*
X141615714Y-107274690D01*
X141739523Y-107336595D01*
X141987142Y-107336595D01*
X142110952Y-107274690D01*
X140934761Y-107336595D02*
X140934761Y-106469928D01*
X140934761Y-106036595D02*
X140996666Y-106098500D01*
X140934761Y-106160404D01*
X140872857Y-106098500D01*
X140934761Y-106036595D01*
X140934761Y-106160404D01*
X153160952Y-109429595D02*
X153160952Y-108129595D01*
X152603809Y-109367690D02*
X152480000Y-109429595D01*
X152232380Y-109429595D01*
X152108571Y-109367690D01*
X152046666Y-109243880D01*
X152046666Y-109181976D01*
X152108571Y-109058166D01*
X152232380Y-108996261D01*
X152418095Y-108996261D01*
X152541904Y-108934357D01*
X152603809Y-108810547D01*
X152603809Y-108748642D01*
X152541904Y-108624833D01*
X152418095Y-108562928D01*
X152232380Y-108562928D01*
X152108571Y-108624833D01*
X151303809Y-109429595D02*
X151427619Y-109367690D01*
X151489523Y-109305785D01*
X151551428Y-109181976D01*
X151551428Y-108810547D01*
X151489523Y-108686738D01*
X151427619Y-108624833D01*
X151303809Y-108562928D01*
X151118095Y-108562928D01*
X150994285Y-108624833D01*
X150932380Y-108686738D01*
X150870476Y-108810547D01*
X150870476Y-109181976D01*
X150932380Y-109305785D01*
X150994285Y-109367690D01*
X151118095Y-109429595D01*
X151303809Y-109429595D01*
X149322857Y-109429595D02*
X149322857Y-108129595D01*
X148827619Y-108129595D01*
X148703809Y-108191500D01*
X148641904Y-108253404D01*
X148580000Y-108377214D01*
X148580000Y-108562928D01*
X148641904Y-108686738D01*
X148703809Y-108748642D01*
X148827619Y-108810547D01*
X149322857Y-108810547D01*
X147837142Y-109429595D02*
X147960952Y-109367690D01*
X148022857Y-109305785D01*
X148084761Y-109181976D01*
X148084761Y-108810547D01*
X148022857Y-108686738D01*
X147960952Y-108624833D01*
X147837142Y-108562928D01*
X147651428Y-108562928D01*
X147527619Y-108624833D01*
X147465714Y-108686738D01*
X147403809Y-108810547D01*
X147403809Y-109181976D01*
X147465714Y-109305785D01*
X147527619Y-109367690D01*
X147651428Y-109429595D01*
X147837142Y-109429595D01*
X146846666Y-109429595D02*
X146846666Y-108562928D01*
X146846666Y-108810547D02*
X146784761Y-108686738D01*
X146722857Y-108624833D01*
X146599047Y-108562928D01*
X146475238Y-108562928D01*
X146227619Y-108562928D02*
X145732380Y-108562928D01*
X146041904Y-108129595D02*
X146041904Y-109243880D01*
X145980000Y-109367690D01*
X145856190Y-109429595D01*
X145732380Y-109429595D01*
X144803809Y-109367690D02*
X144927619Y-109429595D01*
X145175238Y-109429595D01*
X145299047Y-109367690D01*
X145360952Y-109243880D01*
X145360952Y-108748642D01*
X145299047Y-108624833D01*
X145175238Y-108562928D01*
X144927619Y-108562928D01*
X144803809Y-108624833D01*
X144741904Y-108748642D01*
X144741904Y-108872452D01*
X145360952Y-108996261D01*
X143999047Y-109429595D02*
X144122857Y-109367690D01*
X144184761Y-109305785D01*
X144246666Y-109181976D01*
X144246666Y-108810547D01*
X144184761Y-108686738D01*
X144122857Y-108624833D01*
X143999047Y-108562928D01*
X143813333Y-108562928D01*
X143689523Y-108624833D01*
X143627619Y-108686738D01*
X143565714Y-108810547D01*
X143565714Y-109181976D01*
X143627619Y-109305785D01*
X143689523Y-109367690D01*
X143813333Y-109429595D01*
X143999047Y-109429595D01*
X142451428Y-108562928D02*
X142451428Y-109429595D01*
X143008571Y-108562928D02*
X143008571Y-109243880D01*
X142946666Y-109367690D01*
X142822857Y-109429595D01*
X142637142Y-109429595D01*
X142513333Y-109367690D01*
X142451428Y-109305785D01*
X141894285Y-109367690D02*
X141770476Y-109429595D01*
X141522857Y-109429595D01*
X141399047Y-109367690D01*
X141337142Y-109243880D01*
X141337142Y-109181976D01*
X141399047Y-109058166D01*
X141522857Y-108996261D01*
X141708571Y-108996261D01*
X141832380Y-108934357D01*
X141894285Y-108810547D01*
X141894285Y-108748642D01*
X141832380Y-108624833D01*
X141708571Y-108562928D01*
X141522857Y-108562928D01*
X141399047Y-108624833D01*
X151953809Y-111522595D02*
X151953809Y-110222595D01*
X150777619Y-111522595D02*
X150777619Y-110841642D01*
X150839523Y-110717833D01*
X150963333Y-110655928D01*
X151210952Y-110655928D01*
X151334761Y-110717833D01*
X150777619Y-111460690D02*
X150901428Y-111522595D01*
X151210952Y-111522595D01*
X151334761Y-111460690D01*
X151396666Y-111336880D01*
X151396666Y-111213071D01*
X151334761Y-111089261D01*
X151210952Y-111027357D01*
X150901428Y-111027357D01*
X150777619Y-110965452D01*
X150158571Y-110655928D02*
X150158571Y-111522595D01*
X150158571Y-110779738D02*
X150096666Y-110717833D01*
X149972857Y-110655928D01*
X149787142Y-110655928D01*
X149663333Y-110717833D01*
X149601428Y-110841642D01*
X149601428Y-111522595D01*
X147249047Y-111398785D02*
X147310952Y-111460690D01*
X147496666Y-111522595D01*
X147620476Y-111522595D01*
X147806190Y-111460690D01*
X147930000Y-111336880D01*
X147991904Y-111213071D01*
X148053809Y-110965452D01*
X148053809Y-110779738D01*
X147991904Y-110532119D01*
X147930000Y-110408309D01*
X147806190Y-110284500D01*
X147620476Y-110222595D01*
X147496666Y-110222595D01*
X147310952Y-110284500D01*
X147249047Y-110346404D01*
X146691904Y-111522595D02*
X146691904Y-110222595D01*
X146134761Y-111522595D02*
X146134761Y-110841642D01*
X146196666Y-110717833D01*
X146320476Y-110655928D01*
X146506190Y-110655928D01*
X146630000Y-110717833D01*
X146691904Y-110779738D01*
X144958571Y-111522595D02*
X144958571Y-110841642D01*
X145020476Y-110717833D01*
X145144285Y-110655928D01*
X145391904Y-110655928D01*
X145515714Y-110717833D01*
X144958571Y-111460690D02*
X145082380Y-111522595D01*
X145391904Y-111522595D01*
X145515714Y-111460690D01*
X145577619Y-111336880D01*
X145577619Y-111213071D01*
X145515714Y-111089261D01*
X145391904Y-111027357D01*
X145082380Y-111027357D01*
X144958571Y-110965452D01*
X144339523Y-110655928D02*
X144339523Y-111522595D01*
X144339523Y-110779738D02*
X144277619Y-110717833D01*
X144153809Y-110655928D01*
X143968095Y-110655928D01*
X143844285Y-110717833D01*
X143782380Y-110841642D01*
X143782380Y-111522595D01*
X142606190Y-110655928D02*
X142606190Y-111708309D01*
X142668095Y-111832119D01*
X142730000Y-111894023D01*
X142853809Y-111955928D01*
X143039523Y-111955928D01*
X143163333Y-111894023D01*
X142606190Y-111460690D02*
X142730000Y-111522595D01*
X142977619Y-111522595D01*
X143101428Y-111460690D01*
X143163333Y-111398785D01*
X143225238Y-111274976D01*
X143225238Y-110903547D01*
X143163333Y-110779738D01*
X143101428Y-110717833D01*
X142977619Y-110655928D01*
X142730000Y-110655928D01*
X142606190Y-110717833D01*
X154399047Y-113244166D02*
X153780000Y-113244166D01*
X154522857Y-113615595D02*
X154089523Y-112315595D01*
X153656190Y-113615595D01*
X153222857Y-113615595D02*
X153222857Y-112315595D01*
X153099047Y-113120357D02*
X152727619Y-113615595D01*
X152727619Y-112748928D02*
X153222857Y-113244166D01*
X151613333Y-113615595D02*
X151613333Y-112934642D01*
X151675238Y-112810833D01*
X151799047Y-112748928D01*
X152046666Y-112748928D01*
X152170476Y-112810833D01*
X151613333Y-113553690D02*
X151737142Y-113615595D01*
X152046666Y-113615595D01*
X152170476Y-113553690D01*
X152232380Y-113429880D01*
X152232380Y-113306071D01*
X152170476Y-113182261D01*
X152046666Y-113120357D01*
X151737142Y-113120357D01*
X151613333Y-113058452D01*
X151056190Y-113553690D02*
X150932380Y-113615595D01*
X150684761Y-113615595D01*
X150560952Y-113553690D01*
X150499047Y-113429880D01*
X150499047Y-113367976D01*
X150560952Y-113244166D01*
X150684761Y-113182261D01*
X150870476Y-113182261D01*
X150994285Y-113120357D01*
X151056190Y-112996547D01*
X151056190Y-112934642D01*
X150994285Y-112810833D01*
X150870476Y-112748928D01*
X150684761Y-112748928D01*
X150560952Y-112810833D01*
X149941904Y-113615595D02*
X149941904Y-112315595D01*
X149384761Y-113615595D02*
X149384761Y-112934642D01*
X149446666Y-112810833D01*
X149570476Y-112748928D01*
X149756190Y-112748928D01*
X149880000Y-112810833D01*
X149941904Y-112872738D01*
X148208571Y-113615595D02*
X148208571Y-112934642D01*
X148270476Y-112810833D01*
X148394285Y-112748928D01*
X148641904Y-112748928D01*
X148765714Y-112810833D01*
X148208571Y-113553690D02*
X148332380Y-113615595D01*
X148641904Y-113615595D01*
X148765714Y-113553690D01*
X148827619Y-113429880D01*
X148827619Y-113306071D01*
X148765714Y-113182261D01*
X148641904Y-113120357D01*
X148332380Y-113120357D01*
X148208571Y-113058452D01*
X146599047Y-113615595D02*
X146599047Y-112315595D01*
X146599047Y-112934642D02*
X145856190Y-112934642D01*
X145856190Y-113615595D02*
X145856190Y-112315595D01*
X144680000Y-113615595D02*
X144680000Y-112934642D01*
X144741904Y-112810833D01*
X144865714Y-112748928D01*
X145113333Y-112748928D01*
X145237142Y-112810833D01*
X144680000Y-113553690D02*
X144803809Y-113615595D01*
X145113333Y-113615595D01*
X145237142Y-113553690D01*
X145299047Y-113429880D01*
X145299047Y-113306071D01*
X145237142Y-113182261D01*
X145113333Y-113120357D01*
X144803809Y-113120357D01*
X144680000Y-113058452D01*
X144184761Y-112748928D02*
X143875238Y-113615595D01*
X143565714Y-112748928D02*
X143875238Y-113615595D01*
X143999047Y-113925119D01*
X144060952Y-113987023D01*
X144184761Y-114048928D01*
X142513333Y-113615595D02*
X142513333Y-112315595D01*
X142513333Y-113553690D02*
X142637142Y-113615595D01*
X142884761Y-113615595D01*
X143008571Y-113553690D01*
X143070476Y-113491785D01*
X143132380Y-113367976D01*
X143132380Y-112996547D01*
X143070476Y-112872738D01*
X143008571Y-112810833D01*
X142884761Y-112748928D01*
X142637142Y-112748928D01*
X142513333Y-112810833D01*
X141399047Y-113553690D02*
X141522857Y-113615595D01*
X141770476Y-113615595D01*
X141894285Y-113553690D01*
X141956190Y-113429880D01*
X141956190Y-112934642D01*
X141894285Y-112810833D01*
X141770476Y-112748928D01*
X141522857Y-112748928D01*
X141399047Y-112810833D01*
X141337142Y-112934642D01*
X141337142Y-113058452D01*
X141956190Y-113182261D01*
X140780000Y-112748928D02*
X140780000Y-113615595D01*
X140780000Y-112872738D02*
X140718095Y-112810833D01*
X140594285Y-112748928D01*
X140408571Y-112748928D01*
X140284761Y-112810833D01*
X140222857Y-112934642D01*
X140222857Y-113615595D01*
X154646666Y-115337166D02*
X154027619Y-115337166D01*
X154770476Y-115708595D02*
X154337142Y-114408595D01*
X153903809Y-115708595D01*
X152913333Y-115708595D02*
X152913333Y-114408595D01*
X152913333Y-115646690D02*
X153037142Y-115708595D01*
X153284761Y-115708595D01*
X153408571Y-115646690D01*
X153470476Y-115584785D01*
X153532380Y-115460976D01*
X153532380Y-115089547D01*
X153470476Y-114965738D01*
X153408571Y-114903833D01*
X153284761Y-114841928D01*
X153037142Y-114841928D01*
X152913333Y-114903833D01*
X152294285Y-115708595D02*
X152294285Y-114841928D01*
X152294285Y-115089547D02*
X152232380Y-114965738D01*
X152170476Y-114903833D01*
X152046666Y-114841928D01*
X151922857Y-114841928D01*
X151489523Y-115708595D02*
X151489523Y-114841928D01*
X151489523Y-114408595D02*
X151551428Y-114470500D01*
X151489523Y-114532404D01*
X151427619Y-114470500D01*
X151489523Y-114408595D01*
X151489523Y-114532404D01*
X150313333Y-115708595D02*
X150313333Y-115027642D01*
X150375238Y-114903833D01*
X150499047Y-114841928D01*
X150746666Y-114841928D01*
X150870476Y-114903833D01*
X150313333Y-115646690D02*
X150437142Y-115708595D01*
X150746666Y-115708595D01*
X150870476Y-115646690D01*
X150932380Y-115522880D01*
X150932380Y-115399071D01*
X150870476Y-115275261D01*
X150746666Y-115213357D01*
X150437142Y-115213357D01*
X150313333Y-115151452D01*
X149694285Y-114841928D02*
X149694285Y-115708595D01*
X149694285Y-114965738D02*
X149632380Y-114903833D01*
X149508571Y-114841928D01*
X149322857Y-114841928D01*
X149199047Y-114903833D01*
X149137142Y-115027642D01*
X149137142Y-115708595D01*
X146846666Y-114470500D02*
X146970476Y-114408595D01*
X147156190Y-114408595D01*
X147341904Y-114470500D01*
X147465714Y-114594309D01*
X147527619Y-114718119D01*
X147589523Y-114965738D01*
X147589523Y-115151452D01*
X147527619Y-115399071D01*
X147465714Y-115522880D01*
X147341904Y-115646690D01*
X147156190Y-115708595D01*
X147032380Y-115708595D01*
X146846666Y-115646690D01*
X146784761Y-115584785D01*
X146784761Y-115151452D01*
X147032380Y-115151452D01*
X145670476Y-115708595D02*
X145670476Y-115027642D01*
X145732380Y-114903833D01*
X145856190Y-114841928D01*
X146103809Y-114841928D01*
X146227619Y-114903833D01*
X145670476Y-115646690D02*
X145794285Y-115708595D01*
X146103809Y-115708595D01*
X146227619Y-115646690D01*
X146289523Y-115522880D01*
X146289523Y-115399071D01*
X146227619Y-115275261D01*
X146103809Y-115213357D01*
X145794285Y-115213357D01*
X145670476Y-115151452D01*
X145051428Y-115708595D02*
X145051428Y-114841928D01*
X145051428Y-114965738D02*
X144989523Y-114903833D01*
X144865714Y-114841928D01*
X144680000Y-114841928D01*
X144556190Y-114903833D01*
X144494285Y-115027642D01*
X144494285Y-115708595D01*
X144494285Y-115027642D02*
X144432380Y-114903833D01*
X144308571Y-114841928D01*
X144122857Y-114841928D01*
X143999047Y-114903833D01*
X143937142Y-115027642D01*
X143937142Y-115708595D01*
X142760952Y-115708595D02*
X142760952Y-115027642D01*
X142822857Y-114903833D01*
X142946666Y-114841928D01*
X143194285Y-114841928D01*
X143318095Y-114903833D01*
X142760952Y-115646690D02*
X142884761Y-115708595D01*
X143194285Y-115708595D01*
X143318095Y-115646690D01*
X143380000Y-115522880D01*
X143380000Y-115399071D01*
X143318095Y-115275261D01*
X143194285Y-115213357D01*
X142884761Y-115213357D01*
X142760952Y-115151452D01*
X142141904Y-115708595D02*
X142141904Y-114841928D01*
X142141904Y-115089547D02*
X142080000Y-114965738D01*
X142018095Y-114903833D01*
X141894285Y-114841928D01*
X141770476Y-114841928D01*
X141337142Y-115708595D02*
X141337142Y-114841928D01*
X141337142Y-115089547D02*
X141275238Y-114965738D01*
X141213333Y-114903833D01*
X141089523Y-114841928D01*
X140965714Y-114841928D01*
X139975238Y-115708595D02*
X139975238Y-115027642D01*
X140037142Y-114903833D01*
X140160952Y-114841928D01*
X140408571Y-114841928D01*
X140532380Y-114903833D01*
X139975238Y-115646690D02*
X140099047Y-115708595D01*
X140408571Y-115708595D01*
X140532380Y-115646690D01*
X140594285Y-115522880D01*
X140594285Y-115399071D01*
X140532380Y-115275261D01*
X140408571Y-115213357D01*
X140099047Y-115213357D01*
X139975238Y-115151452D01*
X154058571Y-116501595D02*
X153315714Y-116501595D01*
X153687142Y-117801595D02*
X153687142Y-116501595D01*
X152325238Y-117801595D02*
X152325238Y-117120642D01*
X152387142Y-116996833D01*
X152510952Y-116934928D01*
X152758571Y-116934928D01*
X152882380Y-116996833D01*
X152325238Y-117739690D02*
X152449047Y-117801595D01*
X152758571Y-117801595D01*
X152882380Y-117739690D01*
X152944285Y-117615880D01*
X152944285Y-117492071D01*
X152882380Y-117368261D01*
X152758571Y-117306357D01*
X152449047Y-117306357D01*
X152325238Y-117244452D01*
X151706190Y-117801595D02*
X151706190Y-116501595D01*
X150963333Y-117801595D01*
X150963333Y-116501595D01*
X150344285Y-117801595D02*
X150344285Y-116934928D01*
X150344285Y-116501595D02*
X150406190Y-116563500D01*
X150344285Y-116625404D01*
X150282380Y-116563500D01*
X150344285Y-116501595D01*
X150344285Y-116625404D01*
X149168095Y-117801595D02*
X149168095Y-117120642D01*
X149230000Y-116996833D01*
X149353809Y-116934928D01*
X149601428Y-116934928D01*
X149725238Y-116996833D01*
X149168095Y-117739690D02*
X149291904Y-117801595D01*
X149601428Y-117801595D01*
X149725238Y-117739690D01*
X149787142Y-117615880D01*
X149787142Y-117492071D01*
X149725238Y-117368261D01*
X149601428Y-117306357D01*
X149291904Y-117306357D01*
X149168095Y-117244452D01*
X147558571Y-117801595D02*
X147558571Y-116501595D01*
X147249047Y-116501595D01*
X147063333Y-116563500D01*
X146939523Y-116687309D01*
X146877619Y-116811119D01*
X146815714Y-117058738D01*
X146815714Y-117244452D01*
X146877619Y-117492071D01*
X146939523Y-117615880D01*
X147063333Y-117739690D01*
X147249047Y-117801595D01*
X147558571Y-117801595D01*
X146072857Y-117801595D02*
X146196666Y-117739690D01*
X146258571Y-117677785D01*
X146320476Y-117553976D01*
X146320476Y-117182547D01*
X146258571Y-117058738D01*
X146196666Y-116996833D01*
X146072857Y-116934928D01*
X145887142Y-116934928D01*
X145763333Y-116996833D01*
X145701428Y-117058738D01*
X145639523Y-117182547D01*
X145639523Y-117553976D01*
X145701428Y-117677785D01*
X145763333Y-117739690D01*
X145887142Y-117801595D01*
X146072857Y-117801595D01*
X145082380Y-116934928D02*
X145082380Y-117801595D01*
X145082380Y-117058738D02*
X145020476Y-116996833D01*
X144896666Y-116934928D01*
X144710952Y-116934928D01*
X144587142Y-116996833D01*
X144525238Y-117120642D01*
X144525238Y-117801595D01*
X143349047Y-117801595D02*
X143349047Y-117120642D01*
X143410952Y-116996833D01*
X143534761Y-116934928D01*
X143782380Y-116934928D01*
X143906190Y-116996833D01*
X143349047Y-117739690D02*
X143472857Y-117801595D01*
X143782380Y-117801595D01*
X143906190Y-117739690D01*
X143968095Y-117615880D01*
X143968095Y-117492071D01*
X143906190Y-117368261D01*
X143782380Y-117306357D01*
X143472857Y-117306357D01*
X143349047Y-117244452D01*
X142915714Y-116934928D02*
X142420476Y-116934928D01*
X142730000Y-116501595D02*
X142730000Y-117615880D01*
X142668095Y-117739690D01*
X142544285Y-117801595D01*
X142420476Y-117801595D01*
X142172857Y-116934928D02*
X141677619Y-116934928D01*
X141987142Y-116501595D02*
X141987142Y-117615880D01*
X141925238Y-117739690D01*
X141801428Y-117801595D01*
X141677619Y-117801595D01*
X141058571Y-117801595D02*
X141182380Y-117739690D01*
X141244285Y-117677785D01*
X141306190Y-117553976D01*
X141306190Y-117182547D01*
X141244285Y-117058738D01*
X141182380Y-116996833D01*
X141058571Y-116934928D01*
X140872857Y-116934928D01*
X140749047Y-116996833D01*
X140687142Y-117058738D01*
X140625238Y-117182547D01*
X140625238Y-117553976D01*
X140687142Y-117677785D01*
X140749047Y-117739690D01*
X140872857Y-117801595D01*
X141058571Y-117801595D01*
X154089523Y-119770785D02*
X154151428Y-119832690D01*
X154337142Y-119894595D01*
X154460952Y-119894595D01*
X154646666Y-119832690D01*
X154770476Y-119708880D01*
X154832380Y-119585071D01*
X154894285Y-119337452D01*
X154894285Y-119151738D01*
X154832380Y-118904119D01*
X154770476Y-118780309D01*
X154646666Y-118656500D01*
X154460952Y-118594595D01*
X154337142Y-118594595D01*
X154151428Y-118656500D01*
X154089523Y-118718404D01*
X153346666Y-119894595D02*
X153470476Y-119832690D01*
X153532380Y-119770785D01*
X153594285Y-119646976D01*
X153594285Y-119275547D01*
X153532380Y-119151738D01*
X153470476Y-119089833D01*
X153346666Y-119027928D01*
X153160952Y-119027928D01*
X153037142Y-119089833D01*
X152975238Y-119151738D01*
X152913333Y-119275547D01*
X152913333Y-119646976D01*
X152975238Y-119770785D01*
X153037142Y-119832690D01*
X153160952Y-119894595D01*
X153346666Y-119894595D01*
X152356190Y-119027928D02*
X152356190Y-119894595D01*
X152356190Y-119151738D02*
X152294285Y-119089833D01*
X152170476Y-119027928D01*
X151984761Y-119027928D01*
X151860952Y-119089833D01*
X151799047Y-119213642D01*
X151799047Y-119894595D01*
X151180000Y-119027928D02*
X151180000Y-119894595D01*
X151180000Y-119151738D02*
X151118095Y-119089833D01*
X150994285Y-119027928D01*
X150808571Y-119027928D01*
X150684761Y-119089833D01*
X150622857Y-119213642D01*
X150622857Y-119894595D01*
X149818095Y-119894595D02*
X149941904Y-119832690D01*
X150003809Y-119770785D01*
X150065714Y-119646976D01*
X150065714Y-119275547D01*
X150003809Y-119151738D01*
X149941904Y-119089833D01*
X149818095Y-119027928D01*
X149632380Y-119027928D01*
X149508571Y-119089833D01*
X149446666Y-119151738D01*
X149384761Y-119275547D01*
X149384761Y-119646976D01*
X149446666Y-119770785D01*
X149508571Y-119832690D01*
X149632380Y-119894595D01*
X149818095Y-119894595D01*
X148827619Y-119894595D02*
X148827619Y-119027928D01*
X148827619Y-119275547D02*
X148765714Y-119151738D01*
X148703809Y-119089833D01*
X148580000Y-119027928D01*
X148456190Y-119027928D01*
X146289523Y-119770785D02*
X146351428Y-119832690D01*
X146537142Y-119894595D01*
X146660952Y-119894595D01*
X146846666Y-119832690D01*
X146970476Y-119708880D01*
X147032380Y-119585071D01*
X147094285Y-119337452D01*
X147094285Y-119151738D01*
X147032380Y-118904119D01*
X146970476Y-118780309D01*
X146846666Y-118656500D01*
X146660952Y-118594595D01*
X146537142Y-118594595D01*
X146351428Y-118656500D01*
X146289523Y-118718404D01*
X145732380Y-119894595D02*
X145732380Y-119027928D01*
X145732380Y-119275547D02*
X145670476Y-119151738D01*
X145608571Y-119089833D01*
X145484761Y-119027928D01*
X145360952Y-119027928D01*
X144432380Y-119832690D02*
X144556190Y-119894595D01*
X144803809Y-119894595D01*
X144927619Y-119832690D01*
X144989523Y-119708880D01*
X144989523Y-119213642D01*
X144927619Y-119089833D01*
X144803809Y-119027928D01*
X144556190Y-119027928D01*
X144432380Y-119089833D01*
X144370476Y-119213642D01*
X144370476Y-119337452D01*
X144989523Y-119461261D01*
X143813333Y-119894595D02*
X143813333Y-119027928D01*
X143813333Y-119151738D02*
X143751428Y-119089833D01*
X143627619Y-119027928D01*
X143441904Y-119027928D01*
X143318095Y-119089833D01*
X143256190Y-119213642D01*
X143256190Y-119894595D01*
X143256190Y-119213642D02*
X143194285Y-119089833D01*
X143070476Y-119027928D01*
X142884761Y-119027928D01*
X142760952Y-119089833D01*
X142699047Y-119213642D01*
X142699047Y-119894595D01*
X141584761Y-119832690D02*
X141708571Y-119894595D01*
X141956190Y-119894595D01*
X142080000Y-119832690D01*
X142141904Y-119708880D01*
X142141904Y-119213642D01*
X142080000Y-119089833D01*
X141956190Y-119027928D01*
X141708571Y-119027928D01*
X141584761Y-119089833D01*
X141522857Y-119213642D01*
X141522857Y-119337452D01*
X142141904Y-119461261D01*
X140965714Y-119894595D02*
X140965714Y-119027928D01*
X140965714Y-119275547D02*
X140903809Y-119151738D01*
X140841904Y-119089833D01*
X140718095Y-119027928D01*
X140594285Y-119027928D01*
X140222857Y-119832690D02*
X140099047Y-119894595D01*
X139851428Y-119894595D01*
X139727619Y-119832690D01*
X139665714Y-119708880D01*
X139665714Y-119646976D01*
X139727619Y-119523166D01*
X139851428Y-119461261D01*
X140037142Y-119461261D01*
X140160952Y-119399357D01*
X140222857Y-119275547D01*
X140222857Y-119213642D01*
X140160952Y-119089833D01*
X140037142Y-119027928D01*
X139851428Y-119027928D01*
X139727619Y-119089833D01*
X150932380Y-121987595D02*
X150932380Y-120687595D01*
X150622857Y-120687595D01*
X150437142Y-120749500D01*
X150313333Y-120873309D01*
X150251428Y-120997119D01*
X150189523Y-121244738D01*
X150189523Y-121430452D01*
X150251428Y-121678071D01*
X150313333Y-121801880D01*
X150437142Y-121925690D01*
X150622857Y-121987595D01*
X150932380Y-121987595D01*
X149137142Y-121925690D02*
X149260952Y-121987595D01*
X149508571Y-121987595D01*
X149632380Y-121925690D01*
X149694285Y-121801880D01*
X149694285Y-121306642D01*
X149632380Y-121182833D01*
X149508571Y-121120928D01*
X149260952Y-121120928D01*
X149137142Y-121182833D01*
X149075238Y-121306642D01*
X149075238Y-121430452D01*
X149694285Y-121554261D01*
X148641904Y-121120928D02*
X148332380Y-121987595D01*
X148022857Y-121120928D01*
X146537142Y-121987595D02*
X146537142Y-120687595D01*
X146041904Y-121120928D02*
X145732380Y-121987595D01*
X145422857Y-121120928D02*
X145732380Y-121987595D01*
X145856190Y-122297119D01*
X145918095Y-122359023D01*
X146041904Y-122420928D01*
X144432380Y-121925690D02*
X144556190Y-121987595D01*
X144803809Y-121987595D01*
X144927619Y-121925690D01*
X144989523Y-121801880D01*
X144989523Y-121306642D01*
X144927619Y-121182833D01*
X144803809Y-121120928D01*
X144556190Y-121120928D01*
X144432380Y-121182833D01*
X144370476Y-121306642D01*
X144370476Y-121430452D01*
X144989523Y-121554261D01*
X143813333Y-121987595D02*
X143813333Y-121120928D01*
X143813333Y-121368547D02*
X143751428Y-121244738D01*
X143689523Y-121182833D01*
X143565714Y-121120928D01*
X143441904Y-121120928D01*
X152077619Y-124080595D02*
X152077619Y-122780595D01*
X152077619Y-123399642D02*
X151334761Y-123399642D01*
X151334761Y-124080595D02*
X151334761Y-122780595D01*
X150158571Y-123213928D02*
X150158571Y-124080595D01*
X150715714Y-123213928D02*
X150715714Y-123894880D01*
X150653809Y-124018690D01*
X150530000Y-124080595D01*
X150344285Y-124080595D01*
X150220476Y-124018690D01*
X150158571Y-123956785D01*
X149539523Y-123213928D02*
X149539523Y-124080595D01*
X149539523Y-123337738D02*
X149477619Y-123275833D01*
X149353809Y-123213928D01*
X149168095Y-123213928D01*
X149044285Y-123275833D01*
X148982380Y-123399642D01*
X148982380Y-124080595D01*
X148549047Y-123213928D02*
X148053809Y-123213928D01*
X148363333Y-122780595D02*
X148363333Y-123894880D01*
X148301428Y-124018690D01*
X148177619Y-124080595D01*
X148053809Y-124080595D01*
X147125238Y-124018690D02*
X147249047Y-124080595D01*
X147496666Y-124080595D01*
X147620476Y-124018690D01*
X147682380Y-123894880D01*
X147682380Y-123399642D01*
X147620476Y-123275833D01*
X147496666Y-123213928D01*
X147249047Y-123213928D01*
X147125238Y-123275833D01*
X147063333Y-123399642D01*
X147063333Y-123523452D01*
X147682380Y-123647261D01*
X146506190Y-124080595D02*
X146506190Y-123213928D01*
X146506190Y-123461547D02*
X146444285Y-123337738D01*
X146382380Y-123275833D01*
X146258571Y-123213928D01*
X146134761Y-123213928D01*
X144091904Y-124080595D02*
X144710952Y-124080595D01*
X144710952Y-122780595D01*
X143658571Y-124080595D02*
X143658571Y-123213928D01*
X143658571Y-122780595D02*
X143720476Y-122842500D01*
X143658571Y-122904404D01*
X143596666Y-122842500D01*
X143658571Y-122780595D01*
X143658571Y-122904404D01*
X142482380Y-123213928D02*
X142482380Y-124080595D01*
X143039523Y-123213928D02*
X143039523Y-123894880D01*
X142977619Y-124018690D01*
X142853809Y-124080595D01*
X142668095Y-124080595D01*
X142544285Y-124018690D01*
X142482380Y-123956785D01*
X155110952Y-126111690D02*
X154925238Y-126173595D01*
X154615714Y-126173595D01*
X154491904Y-126111690D01*
X154430000Y-126049785D01*
X154368095Y-125925976D01*
X154368095Y-125802166D01*
X154430000Y-125678357D01*
X154491904Y-125616452D01*
X154615714Y-125554547D01*
X154863333Y-125492642D01*
X154987142Y-125430738D01*
X155049047Y-125368833D01*
X155110952Y-125245023D01*
X155110952Y-125121214D01*
X155049047Y-124997404D01*
X154987142Y-124935500D01*
X154863333Y-124873595D01*
X154553809Y-124873595D01*
X154368095Y-124935500D01*
X153810952Y-125306928D02*
X153810952Y-126606928D01*
X153810952Y-125368833D02*
X153687142Y-125306928D01*
X153439523Y-125306928D01*
X153315714Y-125368833D01*
X153253809Y-125430738D01*
X153191904Y-125554547D01*
X153191904Y-125925976D01*
X153253809Y-126049785D01*
X153315714Y-126111690D01*
X153439523Y-126173595D01*
X153687142Y-126173595D01*
X153810952Y-126111690D01*
X152139523Y-126111690D02*
X152263333Y-126173595D01*
X152510952Y-126173595D01*
X152634761Y-126111690D01*
X152696666Y-125987880D01*
X152696666Y-125492642D01*
X152634761Y-125368833D01*
X152510952Y-125306928D01*
X152263333Y-125306928D01*
X152139523Y-125368833D01*
X152077619Y-125492642D01*
X152077619Y-125616452D01*
X152696666Y-125740261D01*
X151520476Y-125306928D02*
X151520476Y-126173595D01*
X151520476Y-125430738D02*
X151458571Y-125368833D01*
X151334761Y-125306928D01*
X151149047Y-125306928D01*
X151025238Y-125368833D01*
X150963333Y-125492642D01*
X150963333Y-126173595D01*
X149787142Y-126111690D02*
X149910952Y-126173595D01*
X150158571Y-126173595D01*
X150282380Y-126111690D01*
X150344285Y-126049785D01*
X150406190Y-125925976D01*
X150406190Y-125554547D01*
X150344285Y-125430738D01*
X150282380Y-125368833D01*
X150158571Y-125306928D01*
X149910952Y-125306928D01*
X149787142Y-125368833D01*
X148734761Y-126111690D02*
X148858571Y-126173595D01*
X149106190Y-126173595D01*
X149230000Y-126111690D01*
X149291904Y-125987880D01*
X149291904Y-125492642D01*
X149230000Y-125368833D01*
X149106190Y-125306928D01*
X148858571Y-125306928D01*
X148734761Y-125368833D01*
X148672857Y-125492642D01*
X148672857Y-125616452D01*
X149291904Y-125740261D01*
X148115714Y-126173595D02*
X148115714Y-125306928D01*
X148115714Y-125554547D02*
X148053809Y-125430738D01*
X147991904Y-125368833D01*
X147868095Y-125306928D01*
X147744285Y-125306928D01*
X146444285Y-124873595D02*
X146134761Y-126173595D01*
X145887142Y-125245023D01*
X145639523Y-126173595D01*
X145330000Y-124873595D01*
X144277619Y-126173595D02*
X144277619Y-125492642D01*
X144339523Y-125368833D01*
X144463333Y-125306928D01*
X144710952Y-125306928D01*
X144834761Y-125368833D01*
X144277619Y-126111690D02*
X144401428Y-126173595D01*
X144710952Y-126173595D01*
X144834761Y-126111690D01*
X144896666Y-125987880D01*
X144896666Y-125864071D01*
X144834761Y-125740261D01*
X144710952Y-125678357D01*
X144401428Y-125678357D01*
X144277619Y-125616452D01*
X143472857Y-126173595D02*
X143596666Y-126111690D01*
X143658571Y-125987880D01*
X143658571Y-124873595D01*
X142791904Y-126173595D02*
X142915714Y-126111690D01*
X142977619Y-125987880D01*
X142977619Y-124873595D01*
X141739523Y-126173595D02*
X141739523Y-125492642D01*
X141801428Y-125368833D01*
X141925238Y-125306928D01*
X142172857Y-125306928D01*
X142296666Y-125368833D01*
X141739523Y-126111690D02*
X141863333Y-126173595D01*
X142172857Y-126173595D01*
X142296666Y-126111690D01*
X142358571Y-125987880D01*
X142358571Y-125864071D01*
X142296666Y-125740261D01*
X142172857Y-125678357D01*
X141863333Y-125678357D01*
X141739523Y-125616452D01*
X140563333Y-126111690D02*
X140687142Y-126173595D01*
X140934761Y-126173595D01*
X141058571Y-126111690D01*
X141120476Y-126049785D01*
X141182380Y-125925976D01*
X141182380Y-125554547D01*
X141120476Y-125430738D01*
X141058571Y-125368833D01*
X140934761Y-125306928D01*
X140687142Y-125306928D01*
X140563333Y-125368833D01*
X139510952Y-126111690D02*
X139634761Y-126173595D01*
X139882380Y-126173595D01*
X140006190Y-126111690D01*
X140068095Y-125987880D01*
X140068095Y-125492642D01*
X140006190Y-125368833D01*
X139882380Y-125306928D01*
X139634761Y-125306928D01*
X139510952Y-125368833D01*
X139449047Y-125492642D01*
X139449047Y-125616452D01*
X140068095Y-125740261D01*
X152015714Y-127585642D02*
X151582380Y-127585642D01*
X151396666Y-128266595D02*
X152015714Y-128266595D01*
X152015714Y-126966595D01*
X151396666Y-126966595D01*
X150653809Y-128266595D02*
X150777619Y-128204690D01*
X150839523Y-128080880D01*
X150839523Y-126966595D01*
X150158571Y-128266595D02*
X150158571Y-127399928D01*
X150158571Y-126966595D02*
X150220476Y-127028500D01*
X150158571Y-127090404D01*
X150096666Y-127028500D01*
X150158571Y-126966595D01*
X150158571Y-127090404D01*
X149539523Y-127399928D02*
X149539523Y-128514214D01*
X149601428Y-128638023D01*
X149725238Y-128699928D01*
X149787142Y-128699928D01*
X149539523Y-126966595D02*
X149601428Y-127028500D01*
X149539523Y-127090404D01*
X149477619Y-127028500D01*
X149539523Y-126966595D01*
X149539523Y-127090404D01*
X148363333Y-128266595D02*
X148363333Y-127585642D01*
X148425238Y-127461833D01*
X148549047Y-127399928D01*
X148796666Y-127399928D01*
X148920476Y-127461833D01*
X148363333Y-128204690D02*
X148487142Y-128266595D01*
X148796666Y-128266595D01*
X148920476Y-128204690D01*
X148982380Y-128080880D01*
X148982380Y-127957071D01*
X148920476Y-127833261D01*
X148796666Y-127771357D01*
X148487142Y-127771357D01*
X148363333Y-127709452D01*
X147744285Y-128266595D02*
X147744285Y-126966595D01*
X147187142Y-128266595D02*
X147187142Y-127585642D01*
X147249047Y-127461833D01*
X147372857Y-127399928D01*
X147558571Y-127399928D01*
X147682380Y-127461833D01*
X147744285Y-127523738D01*
X145577619Y-128266595D02*
X145577619Y-126966595D01*
X144834761Y-128266595D02*
X145391904Y-127523738D01*
X144834761Y-126966595D02*
X145577619Y-127709452D01*
X144277619Y-128266595D02*
X144277619Y-127399928D01*
X144277619Y-126966595D02*
X144339523Y-127028500D01*
X144277619Y-127090404D01*
X144215714Y-127028500D01*
X144277619Y-126966595D01*
X144277619Y-127090404D01*
X143658571Y-128266595D02*
X143658571Y-127399928D01*
X143658571Y-127523738D02*
X143596666Y-127461833D01*
X143472857Y-127399928D01*
X143287142Y-127399928D01*
X143163333Y-127461833D01*
X143101428Y-127585642D01*
X143101428Y-128266595D01*
X143101428Y-127585642D02*
X143039523Y-127461833D01*
X142915714Y-127399928D01*
X142730000Y-127399928D01*
X142606190Y-127461833D01*
X142544285Y-127585642D01*
X142544285Y-128266595D01*
X155110952Y-130359595D02*
X155730000Y-130359595D01*
X155730000Y-129059595D01*
X154120476Y-130359595D02*
X154120476Y-129678642D01*
X154182380Y-129554833D01*
X154306190Y-129492928D01*
X154553809Y-129492928D01*
X154677619Y-129554833D01*
X154120476Y-130297690D02*
X154244285Y-130359595D01*
X154553809Y-130359595D01*
X154677619Y-130297690D01*
X154739523Y-130173880D01*
X154739523Y-130050071D01*
X154677619Y-129926261D01*
X154553809Y-129864357D01*
X154244285Y-129864357D01*
X154120476Y-129802452D01*
X153501428Y-129492928D02*
X153501428Y-130359595D01*
X153501428Y-129616738D02*
X153439523Y-129554833D01*
X153315714Y-129492928D01*
X153130000Y-129492928D01*
X153006190Y-129554833D01*
X152944285Y-129678642D01*
X152944285Y-130359595D01*
X151768095Y-129492928D02*
X151768095Y-130545309D01*
X151830000Y-130669119D01*
X151891904Y-130731023D01*
X152015714Y-130792928D01*
X152201428Y-130792928D01*
X152325238Y-130731023D01*
X151768095Y-130297690D02*
X151891904Y-130359595D01*
X152139523Y-130359595D01*
X152263333Y-130297690D01*
X152325238Y-130235785D01*
X152387142Y-130111976D01*
X152387142Y-129740547D01*
X152325238Y-129616738D01*
X152263333Y-129554833D01*
X152139523Y-129492928D01*
X151891904Y-129492928D01*
X151768095Y-129554833D01*
X151210952Y-130297690D02*
X151087142Y-130359595D01*
X150839523Y-130359595D01*
X150715714Y-130297690D01*
X150653809Y-130173880D01*
X150653809Y-130111976D01*
X150715714Y-129988166D01*
X150839523Y-129926261D01*
X151025238Y-129926261D01*
X151149047Y-129864357D01*
X151210952Y-129740547D01*
X151210952Y-129678642D01*
X151149047Y-129554833D01*
X151025238Y-129492928D01*
X150839523Y-129492928D01*
X150715714Y-129554833D01*
X150282380Y-129492928D02*
X149787142Y-129492928D01*
X150096666Y-129059595D02*
X150096666Y-130173880D01*
X150034761Y-130297690D01*
X149910952Y-130359595D01*
X149787142Y-130359595D01*
X149168095Y-130359595D02*
X149291904Y-130297690D01*
X149353809Y-130235785D01*
X149415714Y-130111976D01*
X149415714Y-129740547D01*
X149353809Y-129616738D01*
X149291904Y-129554833D01*
X149168095Y-129492928D01*
X148982380Y-129492928D01*
X148858571Y-129554833D01*
X148796666Y-129616738D01*
X148734761Y-129740547D01*
X148734761Y-130111976D01*
X148796666Y-130235785D01*
X148858571Y-130297690D01*
X148982380Y-130359595D01*
X149168095Y-130359595D01*
X148177619Y-129492928D02*
X148177619Y-130359595D01*
X148177619Y-129616738D02*
X148115714Y-129554833D01*
X147991904Y-129492928D01*
X147806190Y-129492928D01*
X147682380Y-129554833D01*
X147620476Y-129678642D01*
X147620476Y-130359595D01*
X146010952Y-130359595D02*
X146010952Y-129059595D01*
X145268095Y-130359595D01*
X145268095Y-129059595D01*
X144091904Y-130359595D02*
X144091904Y-129678642D01*
X144153809Y-129554833D01*
X144277619Y-129492928D01*
X144525238Y-129492928D01*
X144649047Y-129554833D01*
X144091904Y-130297690D02*
X144215714Y-130359595D01*
X144525238Y-130359595D01*
X144649047Y-130297690D01*
X144710952Y-130173880D01*
X144710952Y-130050071D01*
X144649047Y-129926261D01*
X144525238Y-129864357D01*
X144215714Y-129864357D01*
X144091904Y-129802452D01*
X143534761Y-130297690D02*
X143410952Y-130359595D01*
X143163333Y-130359595D01*
X143039523Y-130297690D01*
X142977619Y-130173880D01*
X142977619Y-130111976D01*
X143039523Y-129988166D01*
X143163333Y-129926261D01*
X143349047Y-129926261D01*
X143472857Y-129864357D01*
X143534761Y-129740547D01*
X143534761Y-129678642D01*
X143472857Y-129554833D01*
X143349047Y-129492928D01*
X143163333Y-129492928D01*
X143039523Y-129554833D01*
X142420476Y-130359595D02*
X142420476Y-129059595D01*
X141863333Y-130359595D02*
X141863333Y-129678642D01*
X141925238Y-129554833D01*
X142049047Y-129492928D01*
X142234761Y-129492928D01*
X142358571Y-129554833D01*
X142420476Y-129616738D01*
X141058571Y-130359595D02*
X141182380Y-130297690D01*
X141244285Y-130235785D01*
X141306190Y-130111976D01*
X141306190Y-129740547D01*
X141244285Y-129616738D01*
X141182380Y-129554833D01*
X141058571Y-129492928D01*
X140872857Y-129492928D01*
X140749047Y-129554833D01*
X140687142Y-129616738D01*
X140625238Y-129740547D01*
X140625238Y-130111976D01*
X140687142Y-130235785D01*
X140749047Y-130297690D01*
X140872857Y-130359595D01*
X141058571Y-130359595D01*
X139882380Y-130359595D02*
X140006190Y-130297690D01*
X140068095Y-130173880D01*
X140068095Y-129059595D01*
X138830000Y-130359595D02*
X138830000Y-129059595D01*
X138830000Y-130297690D02*
X138953809Y-130359595D01*
X139201428Y-130359595D01*
X139325238Y-130297690D01*
X139387142Y-130235785D01*
X139449047Y-130111976D01*
X139449047Y-129740547D01*
X139387142Y-129616738D01*
X139325238Y-129554833D01*
X139201428Y-129492928D01*
X138953809Y-129492928D01*
X138830000Y-129554833D01*
X154306190Y-132452595D02*
X154306190Y-131152595D01*
X153872857Y-132081166D01*
X153439523Y-131152595D01*
X153439523Y-132452595D01*
X152634761Y-132452595D02*
X152758571Y-132390690D01*
X152820476Y-132328785D01*
X152882380Y-132204976D01*
X152882380Y-131833547D01*
X152820476Y-131709738D01*
X152758571Y-131647833D01*
X152634761Y-131585928D01*
X152449047Y-131585928D01*
X152325238Y-131647833D01*
X152263333Y-131709738D01*
X152201428Y-131833547D01*
X152201428Y-132204976D01*
X152263333Y-132328785D01*
X152325238Y-132390690D01*
X152449047Y-132452595D01*
X152634761Y-132452595D01*
X151644285Y-132452595D02*
X151644285Y-131585928D01*
X151644285Y-131833547D02*
X151582380Y-131709738D01*
X151520476Y-131647833D01*
X151396666Y-131585928D01*
X151272857Y-131585928D01*
X150839523Y-132452595D02*
X150839523Y-131585928D01*
X150839523Y-131152595D02*
X150901428Y-131214500D01*
X150839523Y-131276404D01*
X150777619Y-131214500D01*
X150839523Y-131152595D01*
X150839523Y-131276404D01*
X150406190Y-131585928D02*
X149910952Y-131585928D01*
X150220476Y-131152595D02*
X150220476Y-132266880D01*
X150158571Y-132390690D01*
X150034761Y-132452595D01*
X149910952Y-132452595D01*
X149601428Y-131585928D02*
X148920476Y-131585928D01*
X149601428Y-132452595D01*
X148920476Y-132452595D01*
X147496666Y-132390690D02*
X147310952Y-132452595D01*
X147001428Y-132452595D01*
X146877619Y-132390690D01*
X146815714Y-132328785D01*
X146753809Y-132204976D01*
X146753809Y-132081166D01*
X146815714Y-131957357D01*
X146877619Y-131895452D01*
X147001428Y-131833547D01*
X147249047Y-131771642D01*
X147372857Y-131709738D01*
X147434761Y-131647833D01*
X147496666Y-131524023D01*
X147496666Y-131400214D01*
X147434761Y-131276404D01*
X147372857Y-131214500D01*
X147249047Y-131152595D01*
X146939523Y-131152595D01*
X146753809Y-131214500D01*
X146382380Y-131585928D02*
X145887142Y-131585928D01*
X146196666Y-131152595D02*
X146196666Y-132266880D01*
X146134761Y-132390690D01*
X146010952Y-132452595D01*
X145887142Y-132452595D01*
X144958571Y-132390690D02*
X145082380Y-132452595D01*
X145330000Y-132452595D01*
X145453809Y-132390690D01*
X145515714Y-132266880D01*
X145515714Y-131771642D01*
X145453809Y-131647833D01*
X145330000Y-131585928D01*
X145082380Y-131585928D01*
X144958571Y-131647833D01*
X144896666Y-131771642D01*
X144896666Y-131895452D01*
X145515714Y-132019261D01*
X144339523Y-131585928D02*
X144339523Y-132885928D01*
X144339523Y-131647833D02*
X144215714Y-131585928D01*
X143968095Y-131585928D01*
X143844285Y-131647833D01*
X143782380Y-131709738D01*
X143720476Y-131833547D01*
X143720476Y-132204976D01*
X143782380Y-132328785D01*
X143844285Y-132390690D01*
X143968095Y-132452595D01*
X144215714Y-132452595D01*
X144339523Y-132390690D01*
X143163333Y-132452595D02*
X143163333Y-131152595D01*
X142606190Y-132452595D02*
X142606190Y-131771642D01*
X142668095Y-131647833D01*
X142791904Y-131585928D01*
X142977619Y-131585928D01*
X143101428Y-131647833D01*
X143163333Y-131709738D01*
X141430000Y-132452595D02*
X141430000Y-131771642D01*
X141491904Y-131647833D01*
X141615714Y-131585928D01*
X141863333Y-131585928D01*
X141987142Y-131647833D01*
X141430000Y-132390690D02*
X141553809Y-132452595D01*
X141863333Y-132452595D01*
X141987142Y-132390690D01*
X142049047Y-132266880D01*
X142049047Y-132143071D01*
X141987142Y-132019261D01*
X141863333Y-131957357D01*
X141553809Y-131957357D01*
X141430000Y-131895452D01*
X140810952Y-131585928D02*
X140810952Y-132452595D01*
X140810952Y-131709738D02*
X140749047Y-131647833D01*
X140625238Y-131585928D01*
X140439523Y-131585928D01*
X140315714Y-131647833D01*
X140253809Y-131771642D01*
X140253809Y-132452595D01*
X157927619Y-133864642D02*
X158360952Y-133864642D01*
X158360952Y-134545595D02*
X158360952Y-133245595D01*
X157741904Y-133245595D01*
X157246666Y-134545595D02*
X157246666Y-133678928D01*
X157246666Y-133926547D02*
X157184761Y-133802738D01*
X157122857Y-133740833D01*
X156999047Y-133678928D01*
X156875238Y-133678928D01*
X155884761Y-134545595D02*
X155884761Y-133864642D01*
X155946666Y-133740833D01*
X156070476Y-133678928D01*
X156318095Y-133678928D01*
X156441904Y-133740833D01*
X155884761Y-134483690D02*
X156008571Y-134545595D01*
X156318095Y-134545595D01*
X156441904Y-134483690D01*
X156503809Y-134359880D01*
X156503809Y-134236071D01*
X156441904Y-134112261D01*
X156318095Y-134050357D01*
X156008571Y-134050357D01*
X155884761Y-133988452D01*
X155265714Y-133678928D02*
X155265714Y-134545595D01*
X155265714Y-133802738D02*
X155203809Y-133740833D01*
X155080000Y-133678928D01*
X154894285Y-133678928D01*
X154770476Y-133740833D01*
X154708571Y-133864642D01*
X154708571Y-134545595D01*
X153532380Y-134483690D02*
X153656190Y-134545595D01*
X153903809Y-134545595D01*
X154027619Y-134483690D01*
X154089523Y-134421785D01*
X154151428Y-134297976D01*
X154151428Y-133926547D01*
X154089523Y-133802738D01*
X154027619Y-133740833D01*
X153903809Y-133678928D01*
X153656190Y-133678928D01*
X153532380Y-133740833D01*
X152480000Y-134483690D02*
X152603809Y-134545595D01*
X152851428Y-134545595D01*
X152975238Y-134483690D01*
X153037142Y-134359880D01*
X153037142Y-133864642D01*
X152975238Y-133740833D01*
X152851428Y-133678928D01*
X152603809Y-133678928D01*
X152480000Y-133740833D01*
X152418095Y-133864642D01*
X152418095Y-133988452D01*
X153037142Y-134112261D01*
X151922857Y-134483690D02*
X151799047Y-134545595D01*
X151551428Y-134545595D01*
X151427619Y-134483690D01*
X151365714Y-134359880D01*
X151365714Y-134297976D01*
X151427619Y-134174166D01*
X151551428Y-134112261D01*
X151737142Y-134112261D01*
X151860952Y-134050357D01*
X151922857Y-133926547D01*
X151922857Y-133864642D01*
X151860952Y-133740833D01*
X151737142Y-133678928D01*
X151551428Y-133678928D01*
X151427619Y-133740833D01*
X149384761Y-133864642D02*
X149199047Y-133926547D01*
X149137142Y-133988452D01*
X149075238Y-134112261D01*
X149075238Y-134297976D01*
X149137142Y-134421785D01*
X149199047Y-134483690D01*
X149322857Y-134545595D01*
X149818095Y-134545595D01*
X149818095Y-133245595D01*
X149384761Y-133245595D01*
X149260952Y-133307500D01*
X149199047Y-133369404D01*
X149137142Y-133493214D01*
X149137142Y-133617023D01*
X149199047Y-133740833D01*
X149260952Y-133802738D01*
X149384761Y-133864642D01*
X149818095Y-133864642D01*
X147960952Y-133678928D02*
X147960952Y-134545595D01*
X148518095Y-133678928D02*
X148518095Y-134359880D01*
X148456190Y-134483690D01*
X148332380Y-134545595D01*
X148146666Y-134545595D01*
X148022857Y-134483690D01*
X147960952Y-134421785D01*
X147341904Y-133678928D02*
X147341904Y-134793214D01*
X147403809Y-134917023D01*
X147527619Y-134978928D01*
X147589523Y-134978928D01*
X147341904Y-133245595D02*
X147403809Y-133307500D01*
X147341904Y-133369404D01*
X147280000Y-133307500D01*
X147341904Y-133245595D01*
X147341904Y-133369404D01*
X146165714Y-134545595D02*
X146165714Y-133864642D01*
X146227619Y-133740833D01*
X146351428Y-133678928D01*
X146599047Y-133678928D01*
X146722857Y-133740833D01*
X146165714Y-134483690D02*
X146289523Y-134545595D01*
X146599047Y-134545595D01*
X146722857Y-134483690D01*
X146784761Y-134359880D01*
X146784761Y-134236071D01*
X146722857Y-134112261D01*
X146599047Y-134050357D01*
X146289523Y-134050357D01*
X146165714Y-133988452D01*
X145546666Y-134545595D02*
X145546666Y-133245595D01*
X144989523Y-134545595D02*
X144989523Y-133864642D01*
X145051428Y-133740833D01*
X145175238Y-133678928D01*
X145360952Y-133678928D01*
X145484761Y-133740833D01*
X145546666Y-133802738D01*
X142637142Y-134545595D02*
X143070476Y-133926547D01*
X143380000Y-134545595D02*
X143380000Y-133245595D01*
X142884761Y-133245595D01*
X142760952Y-133307500D01*
X142699047Y-133369404D01*
X142637142Y-133493214D01*
X142637142Y-133678928D01*
X142699047Y-133802738D01*
X142760952Y-133864642D01*
X142884761Y-133926547D01*
X143380000Y-133926547D01*
X141522857Y-134545595D02*
X141522857Y-133864642D01*
X141584761Y-133740833D01*
X141708571Y-133678928D01*
X141956190Y-133678928D01*
X142080000Y-133740833D01*
X141522857Y-134483690D02*
X141646666Y-134545595D01*
X141956190Y-134545595D01*
X142080000Y-134483690D01*
X142141904Y-134359880D01*
X142141904Y-134236071D01*
X142080000Y-134112261D01*
X141956190Y-134050357D01*
X141646666Y-134050357D01*
X141522857Y-133988452D01*
X140903809Y-133678928D02*
X140903809Y-134978928D01*
X140903809Y-133740833D02*
X140780000Y-133678928D01*
X140532380Y-133678928D01*
X140408571Y-133740833D01*
X140346666Y-133802738D01*
X140284761Y-133926547D01*
X140284761Y-134297976D01*
X140346666Y-134421785D01*
X140408571Y-134483690D01*
X140532380Y-134545595D01*
X140780000Y-134545595D01*
X140903809Y-134483690D01*
X139727619Y-134545595D02*
X139727619Y-133245595D01*
X139170476Y-134545595D02*
X139170476Y-133864642D01*
X139232380Y-133740833D01*
X139356190Y-133678928D01*
X139541904Y-133678928D01*
X139665714Y-133740833D01*
X139727619Y-133802738D01*
X137994285Y-134545595D02*
X137994285Y-133864642D01*
X138056190Y-133740833D01*
X138180000Y-133678928D01*
X138427619Y-133678928D01*
X138551428Y-133740833D01*
X137994285Y-134483690D02*
X138118095Y-134545595D01*
X138427619Y-134545595D01*
X138551428Y-134483690D01*
X138613333Y-134359880D01*
X138613333Y-134236071D01*
X138551428Y-134112261D01*
X138427619Y-134050357D01*
X138118095Y-134050357D01*
X137994285Y-133988452D01*
X136880000Y-134483690D02*
X137003809Y-134545595D01*
X137251428Y-134545595D01*
X137375238Y-134483690D01*
X137437142Y-134359880D01*
X137437142Y-133864642D01*
X137375238Y-133740833D01*
X137251428Y-133678928D01*
X137003809Y-133678928D01*
X136880000Y-133740833D01*
X136818095Y-133864642D01*
X136818095Y-133988452D01*
X137437142Y-134112261D01*
X136075238Y-134545595D02*
X136199047Y-134483690D01*
X136260952Y-134359880D01*
X136260952Y-133245595D01*
X155575238Y-136638595D02*
X155575238Y-135338595D01*
X155575238Y-135957642D02*
X154832380Y-135957642D01*
X154832380Y-136638595D02*
X154832380Y-135338595D01*
X154027619Y-136638595D02*
X154151428Y-136576690D01*
X154213333Y-136514785D01*
X154275238Y-136390976D01*
X154275238Y-136019547D01*
X154213333Y-135895738D01*
X154151428Y-135833833D01*
X154027619Y-135771928D01*
X153841904Y-135771928D01*
X153718095Y-135833833D01*
X153656190Y-135895738D01*
X153594285Y-136019547D01*
X153594285Y-136390976D01*
X153656190Y-136514785D01*
X153718095Y-136576690D01*
X153841904Y-136638595D01*
X154027619Y-136638595D01*
X152851428Y-136638595D02*
X152975238Y-136576690D01*
X153037142Y-136452880D01*
X153037142Y-135338595D01*
X152170476Y-136638595D02*
X152294285Y-136576690D01*
X152356190Y-136452880D01*
X152356190Y-135338595D01*
X151118095Y-136638595D02*
X151118095Y-135957642D01*
X151180000Y-135833833D01*
X151303809Y-135771928D01*
X151551428Y-135771928D01*
X151675238Y-135833833D01*
X151118095Y-136576690D02*
X151241904Y-136638595D01*
X151551428Y-136638595D01*
X151675238Y-136576690D01*
X151737142Y-136452880D01*
X151737142Y-136329071D01*
X151675238Y-136205261D01*
X151551428Y-136143357D01*
X151241904Y-136143357D01*
X151118095Y-136081452D01*
X150499047Y-135771928D02*
X150499047Y-136638595D01*
X150499047Y-135895738D02*
X150437142Y-135833833D01*
X150313333Y-135771928D01*
X150127619Y-135771928D01*
X150003809Y-135833833D01*
X149941904Y-135957642D01*
X149941904Y-136638595D01*
X148765714Y-136638595D02*
X148765714Y-135338595D01*
X148765714Y-136576690D02*
X148889523Y-136638595D01*
X149137142Y-136638595D01*
X149260952Y-136576690D01*
X149322857Y-136514785D01*
X149384761Y-136390976D01*
X149384761Y-136019547D01*
X149322857Y-135895738D01*
X149260952Y-135833833D01*
X149137142Y-135771928D01*
X148889523Y-135771928D01*
X148765714Y-135833833D01*
X146722857Y-135957642D02*
X147156190Y-135957642D01*
X147156190Y-136638595D02*
X147156190Y-135338595D01*
X146537142Y-135338595D01*
X145546666Y-136576690D02*
X145670476Y-136638595D01*
X145918095Y-136638595D01*
X146041904Y-136576690D01*
X146103809Y-136452880D01*
X146103809Y-135957642D01*
X146041904Y-135833833D01*
X145918095Y-135771928D01*
X145670476Y-135771928D01*
X145546666Y-135833833D01*
X145484761Y-135957642D01*
X145484761Y-136081452D01*
X146103809Y-136205261D01*
X144927619Y-136638595D02*
X144927619Y-135771928D01*
X144927619Y-136019547D02*
X144865714Y-135895738D01*
X144803809Y-135833833D01*
X144680000Y-135771928D01*
X144556190Y-135771928D01*
X143565714Y-135771928D02*
X143565714Y-136824309D01*
X143627619Y-136948119D01*
X143689523Y-137010023D01*
X143813333Y-137071928D01*
X143999047Y-137071928D01*
X144122857Y-137010023D01*
X143565714Y-136576690D02*
X143689523Y-136638595D01*
X143937142Y-136638595D01*
X144060952Y-136576690D01*
X144122857Y-136514785D01*
X144184761Y-136390976D01*
X144184761Y-136019547D01*
X144122857Y-135895738D01*
X144060952Y-135833833D01*
X143937142Y-135771928D01*
X143689523Y-135771928D01*
X143565714Y-135833833D01*
X142389523Y-135771928D02*
X142389523Y-136638595D01*
X142946666Y-135771928D02*
X142946666Y-136452880D01*
X142884761Y-136576690D01*
X142760952Y-136638595D01*
X142575238Y-136638595D01*
X142451428Y-136576690D01*
X142389523Y-136514785D01*
X141832380Y-136576690D02*
X141708571Y-136638595D01*
X141460952Y-136638595D01*
X141337142Y-136576690D01*
X141275238Y-136452880D01*
X141275238Y-136390976D01*
X141337142Y-136267166D01*
X141460952Y-136205261D01*
X141646666Y-136205261D01*
X141770476Y-136143357D01*
X141832380Y-136019547D01*
X141832380Y-135957642D01*
X141770476Y-135833833D01*
X141646666Y-135771928D01*
X141460952Y-135771928D01*
X141337142Y-135833833D01*
X140532380Y-136638595D02*
X140656190Y-136576690D01*
X140718095Y-136514785D01*
X140780000Y-136390976D01*
X140780000Y-136019547D01*
X140718095Y-135895738D01*
X140656190Y-135833833D01*
X140532380Y-135771928D01*
X140346666Y-135771928D01*
X140222857Y-135833833D01*
X140160952Y-135895738D01*
X140099047Y-136019547D01*
X140099047Y-136390976D01*
X140160952Y-136514785D01*
X140222857Y-136576690D01*
X140346666Y-136638595D01*
X140532380Y-136638595D01*
X139541904Y-135771928D02*
X139541904Y-136638595D01*
X139541904Y-135895738D02*
X139480000Y-135833833D01*
X139356190Y-135771928D01*
X139170476Y-135771928D01*
X139046666Y-135833833D01*
X138984761Y-135957642D01*
X138984761Y-136638595D01*
X153749047Y-138731595D02*
X154368095Y-138731595D01*
X154368095Y-137431595D01*
X152758571Y-138731595D02*
X152758571Y-138050642D01*
X152820476Y-137926833D01*
X152944285Y-137864928D01*
X153191904Y-137864928D01*
X153315714Y-137926833D01*
X152758571Y-138669690D02*
X152882380Y-138731595D01*
X153191904Y-138731595D01*
X153315714Y-138669690D01*
X153377619Y-138545880D01*
X153377619Y-138422071D01*
X153315714Y-138298261D01*
X153191904Y-138236357D01*
X152882380Y-138236357D01*
X152758571Y-138174452D01*
X152263333Y-137864928D02*
X152015714Y-138731595D01*
X151768095Y-138112547D01*
X151520476Y-138731595D01*
X151272857Y-137864928D01*
X150963333Y-137864928D02*
X150468095Y-137864928D01*
X150777619Y-137431595D02*
X150777619Y-138545880D01*
X150715714Y-138669690D01*
X150591904Y-138731595D01*
X150468095Y-138731595D01*
X149849047Y-138731595D02*
X149972857Y-138669690D01*
X150034761Y-138607785D01*
X150096666Y-138483976D01*
X150096666Y-138112547D01*
X150034761Y-137988738D01*
X149972857Y-137926833D01*
X149849047Y-137864928D01*
X149663333Y-137864928D01*
X149539523Y-137926833D01*
X149477619Y-137988738D01*
X149415714Y-138112547D01*
X149415714Y-138483976D01*
X149477619Y-138607785D01*
X149539523Y-138669690D01*
X149663333Y-138731595D01*
X149849047Y-138731595D01*
X148858571Y-137864928D02*
X148858571Y-138731595D01*
X148858571Y-137988738D02*
X148796666Y-137926833D01*
X148672857Y-137864928D01*
X148487142Y-137864928D01*
X148363333Y-137926833D01*
X148301428Y-138050642D01*
X148301428Y-138731595D01*
X146753809Y-138669690D02*
X146568095Y-138731595D01*
X146258571Y-138731595D01*
X146134761Y-138669690D01*
X146072857Y-138607785D01*
X146010952Y-138483976D01*
X146010952Y-138360166D01*
X146072857Y-138236357D01*
X146134761Y-138174452D01*
X146258571Y-138112547D01*
X146506190Y-138050642D01*
X146630000Y-137988738D01*
X146691904Y-137926833D01*
X146753809Y-137803023D01*
X146753809Y-137679214D01*
X146691904Y-137555404D01*
X146630000Y-137493500D01*
X146506190Y-137431595D01*
X146196666Y-137431595D01*
X146010952Y-137493500D01*
X145453809Y-138731595D02*
X145453809Y-137431595D01*
X145330000Y-138236357D02*
X144958571Y-138731595D01*
X144958571Y-137864928D02*
X145453809Y-138360166D01*
X143844285Y-138731595D02*
X143844285Y-138050642D01*
X143906190Y-137926833D01*
X144030000Y-137864928D01*
X144277619Y-137864928D01*
X144401428Y-137926833D01*
X143844285Y-138669690D02*
X143968095Y-138731595D01*
X144277619Y-138731595D01*
X144401428Y-138669690D01*
X144463333Y-138545880D01*
X144463333Y-138422071D01*
X144401428Y-138298261D01*
X144277619Y-138236357D01*
X143968095Y-138236357D01*
X143844285Y-138174452D01*
X143039523Y-138731595D02*
X143163333Y-138669690D01*
X143225238Y-138545880D01*
X143225238Y-137431595D01*
X142544285Y-138731595D02*
X142544285Y-137864928D01*
X142544285Y-137431595D02*
X142606190Y-137493500D01*
X142544285Y-137555404D01*
X142482380Y-137493500D01*
X142544285Y-137431595D01*
X142544285Y-137555404D01*
X141925238Y-137864928D02*
X141925238Y-138731595D01*
X141925238Y-137988738D02*
X141863333Y-137926833D01*
X141739523Y-137864928D01*
X141553809Y-137864928D01*
X141430000Y-137926833D01*
X141368095Y-138050642D01*
X141368095Y-138731595D01*
X140191904Y-137864928D02*
X140191904Y-138917309D01*
X140253809Y-139041119D01*
X140315714Y-139103023D01*
X140439523Y-139164928D01*
X140625238Y-139164928D01*
X140749047Y-139103023D01*
X140191904Y-138669690D02*
X140315714Y-138731595D01*
X140563333Y-138731595D01*
X140687142Y-138669690D01*
X140749047Y-138607785D01*
X140810952Y-138483976D01*
X140810952Y-138112547D01*
X140749047Y-137988738D01*
X140687142Y-137926833D01*
X140563333Y-137864928D01*
X140315714Y-137864928D01*
X140191904Y-137926833D01*
X171402333Y-55840380D02*
X171402333Y-56554666D01*
X171449952Y-56697523D01*
X171545190Y-56792761D01*
X171688047Y-56840380D01*
X171783285Y-56840380D01*
X170402333Y-56840380D02*
X170973761Y-56840380D01*
X170688047Y-56840380D02*
X170688047Y-55840380D01*
X170783285Y-55983238D01*
X170878523Y-56078476D01*
X170973761Y-56126095D01*
X143997314Y-86250428D02*
X144197314Y-85964714D01*
X144340171Y-86250428D02*
X144340171Y-85650428D01*
X144111600Y-85650428D01*
X144054457Y-85679000D01*
X144025885Y-85707571D01*
X143997314Y-85764714D01*
X143997314Y-85850428D01*
X144025885Y-85907571D01*
X144054457Y-85936142D01*
X144111600Y-85964714D01*
X144340171Y-85964714D01*
X143483028Y-85650428D02*
X143597314Y-85650428D01*
X143654457Y-85679000D01*
X143683028Y-85707571D01*
X143740171Y-85793285D01*
X143768742Y-85907571D01*
X143768742Y-86136142D01*
X143740171Y-86193285D01*
X143711600Y-86221857D01*
X143654457Y-86250428D01*
X143540171Y-86250428D01*
X143483028Y-86221857D01*
X143454457Y-86193285D01*
X143425885Y-86136142D01*
X143425885Y-85993285D01*
X143454457Y-85936142D01*
X143483028Y-85907571D01*
X143540171Y-85879000D01*
X143654457Y-85879000D01*
X143711600Y-85907571D01*
X143740171Y-85936142D01*
X143768742Y-85993285D01*
X143197314Y-85707571D02*
X143168742Y-85679000D01*
X143111600Y-85650428D01*
X142968742Y-85650428D01*
X142911600Y-85679000D01*
X142883028Y-85707571D01*
X142854457Y-85764714D01*
X142854457Y-85821857D01*
X142883028Y-85907571D01*
X143225885Y-86250428D01*
X142854457Y-86250428D01*
X143997314Y-87876028D02*
X144197314Y-87590314D01*
X144340171Y-87876028D02*
X144340171Y-87276028D01*
X144111600Y-87276028D01*
X144054457Y-87304600D01*
X144025885Y-87333171D01*
X143997314Y-87390314D01*
X143997314Y-87476028D01*
X144025885Y-87533171D01*
X144054457Y-87561742D01*
X144111600Y-87590314D01*
X144340171Y-87590314D01*
X143797314Y-87276028D02*
X143397314Y-87276028D01*
X143654457Y-87876028D01*
X143197314Y-87333171D02*
X143168742Y-87304600D01*
X143111600Y-87276028D01*
X142968742Y-87276028D01*
X142911600Y-87304600D01*
X142883028Y-87333171D01*
X142854457Y-87390314D01*
X142854457Y-87447457D01*
X142883028Y-87533171D01*
X143225885Y-87876028D01*
X142854457Y-87876028D01*
D13*
X137687000Y-82651333D02*
X137753666Y-82618000D01*
X137820333Y-82551333D01*
X137920333Y-82451333D01*
X137987000Y-82418000D01*
X138053666Y-82418000D01*
X138020333Y-82584666D02*
X138087000Y-82551333D01*
X138153666Y-82484666D01*
X138187000Y-82351333D01*
X138187000Y-82118000D01*
X138153666Y-81984666D01*
X138087000Y-81918000D01*
X138020333Y-81884666D01*
X137887000Y-81884666D01*
X137820333Y-81918000D01*
X137753666Y-81984666D01*
X137720333Y-82118000D01*
X137720333Y-82351333D01*
X137753666Y-82484666D01*
X137820333Y-82551333D01*
X137887000Y-82584666D01*
X138020333Y-82584666D01*
X137053666Y-82584666D02*
X137453666Y-82584666D01*
X137253666Y-82584666D02*
X137253666Y-81884666D01*
X137320333Y-81984666D01*
X137387000Y-82051333D01*
X137453666Y-82084666D01*
X136820333Y-81884666D02*
X136387000Y-81884666D01*
X136620333Y-82151333D01*
X136520333Y-82151333D01*
X136453666Y-82184666D01*
X136420333Y-82218000D01*
X136387000Y-82284666D01*
X136387000Y-82451333D01*
X136420333Y-82518000D01*
X136453666Y-82551333D01*
X136520333Y-82584666D01*
X136720333Y-82584666D01*
X136787000Y-82551333D01*
X136820333Y-82518000D01*
D12*
X131246514Y-84320028D02*
X131446514Y-84034314D01*
X131589371Y-84320028D02*
X131589371Y-83720028D01*
X131360800Y-83720028D01*
X131303657Y-83748600D01*
X131275085Y-83777171D01*
X131246514Y-83834314D01*
X131246514Y-83920028D01*
X131275085Y-83977171D01*
X131303657Y-84005742D01*
X131360800Y-84034314D01*
X131589371Y-84034314D01*
X131046514Y-83720028D02*
X130646514Y-83720028D01*
X130903657Y-84320028D01*
X130160800Y-83720028D02*
X130275085Y-83720028D01*
X130332228Y-83748600D01*
X130360800Y-83777171D01*
X130417942Y-83862885D01*
X130446514Y-83977171D01*
X130446514Y-84205742D01*
X130417942Y-84262885D01*
X130389371Y-84291457D01*
X130332228Y-84320028D01*
X130217942Y-84320028D01*
X130160800Y-84291457D01*
X130132228Y-84262885D01*
X130103657Y-84205742D01*
X130103657Y-84062885D01*
X130132228Y-84005742D01*
X130160800Y-83977171D01*
X130217942Y-83948600D01*
X130332228Y-83948600D01*
X130389371Y-83977171D01*
X130417942Y-84005742D01*
X130446514Y-84062885D01*
X137698114Y-91787628D02*
X137898114Y-91501914D01*
X138040971Y-91787628D02*
X138040971Y-91187628D01*
X137812400Y-91187628D01*
X137755257Y-91216200D01*
X137726685Y-91244771D01*
X137698114Y-91301914D01*
X137698114Y-91387628D01*
X137726685Y-91444771D01*
X137755257Y-91473342D01*
X137812400Y-91501914D01*
X138040971Y-91501914D01*
X137412400Y-91787628D02*
X137298114Y-91787628D01*
X137240971Y-91759057D01*
X137212400Y-91730485D01*
X137155257Y-91644771D01*
X137126685Y-91530485D01*
X137126685Y-91301914D01*
X137155257Y-91244771D01*
X137183828Y-91216200D01*
X137240971Y-91187628D01*
X137355257Y-91187628D01*
X137412400Y-91216200D01*
X137440971Y-91244771D01*
X137469542Y-91301914D01*
X137469542Y-91444771D01*
X137440971Y-91501914D01*
X137412400Y-91530485D01*
X137355257Y-91559057D01*
X137240971Y-91559057D01*
X137183828Y-91530485D01*
X137155257Y-91501914D01*
X137126685Y-91444771D01*
X136783828Y-91444771D02*
X136840971Y-91416200D01*
X136869542Y-91387628D01*
X136898114Y-91330485D01*
X136898114Y-91301914D01*
X136869542Y-91244771D01*
X136840971Y-91216200D01*
X136783828Y-91187628D01*
X136669542Y-91187628D01*
X136612400Y-91216200D01*
X136583828Y-91244771D01*
X136555257Y-91301914D01*
X136555257Y-91330485D01*
X136583828Y-91387628D01*
X136612400Y-91416200D01*
X136669542Y-91444771D01*
X136783828Y-91444771D01*
X136840971Y-91473342D01*
X136869542Y-91501914D01*
X136898114Y-91559057D01*
X136898114Y-91673342D01*
X136869542Y-91730485D01*
X136840971Y-91759057D01*
X136783828Y-91787628D01*
X136669542Y-91787628D01*
X136612400Y-91759057D01*
X136583828Y-91730485D01*
X136555257Y-91673342D01*
X136555257Y-91559057D01*
X136583828Y-91501914D01*
X136612400Y-91473342D01*
X136669542Y-91444771D01*
X143997314Y-82948428D02*
X144197314Y-82662714D01*
X144340171Y-82948428D02*
X144340171Y-82348428D01*
X144111600Y-82348428D01*
X144054457Y-82377000D01*
X144025885Y-82405571D01*
X143997314Y-82462714D01*
X143997314Y-82548428D01*
X144025885Y-82605571D01*
X144054457Y-82634142D01*
X144111600Y-82662714D01*
X144340171Y-82662714D01*
X143483028Y-82348428D02*
X143597314Y-82348428D01*
X143654457Y-82377000D01*
X143683028Y-82405571D01*
X143740171Y-82491285D01*
X143768742Y-82605571D01*
X143768742Y-82834142D01*
X143740171Y-82891285D01*
X143711600Y-82919857D01*
X143654457Y-82948428D01*
X143540171Y-82948428D01*
X143483028Y-82919857D01*
X143454457Y-82891285D01*
X143425885Y-82834142D01*
X143425885Y-82691285D01*
X143454457Y-82634142D01*
X143483028Y-82605571D01*
X143540171Y-82577000D01*
X143654457Y-82577000D01*
X143711600Y-82605571D01*
X143740171Y-82634142D01*
X143768742Y-82691285D01*
X143225885Y-82348428D02*
X142825885Y-82348428D01*
X143083028Y-82948428D01*
X143997314Y-84523228D02*
X144197314Y-84237514D01*
X144340171Y-84523228D02*
X144340171Y-83923228D01*
X144111600Y-83923228D01*
X144054457Y-83951800D01*
X144025885Y-83980371D01*
X143997314Y-84037514D01*
X143997314Y-84123228D01*
X144025885Y-84180371D01*
X144054457Y-84208942D01*
X144111600Y-84237514D01*
X144340171Y-84237514D01*
X143797314Y-83923228D02*
X143397314Y-83923228D01*
X143654457Y-84523228D01*
X142911600Y-84123228D02*
X142911600Y-84523228D01*
X143054457Y-83894657D02*
X143197314Y-84323228D01*
X142825885Y-84323228D01*
X140071466Y-89562733D02*
X140138133Y-89529400D01*
X140204800Y-89462733D01*
X140304800Y-89362733D01*
X140371466Y-89329400D01*
X140438133Y-89329400D01*
X140404800Y-89496066D02*
X140471466Y-89462733D01*
X140538133Y-89396066D01*
X140571466Y-89262733D01*
X140571466Y-89029400D01*
X140538133Y-88896066D01*
X140471466Y-88829400D01*
X140404800Y-88796066D01*
X140271466Y-88796066D01*
X140204800Y-88829400D01*
X140138133Y-88896066D01*
X140104800Y-89029400D01*
X140104800Y-89262733D01*
X140138133Y-89396066D01*
X140204800Y-89462733D01*
X140271466Y-89496066D01*
X140404800Y-89496066D01*
X139704800Y-89096066D02*
X139771466Y-89062733D01*
X139804800Y-89029400D01*
X139838133Y-88962733D01*
X139838133Y-88929400D01*
X139804800Y-88862733D01*
X139771466Y-88829400D01*
X139704800Y-88796066D01*
X139571466Y-88796066D01*
X139504800Y-88829400D01*
X139471466Y-88862733D01*
X139438133Y-88929400D01*
X139438133Y-88962733D01*
X139471466Y-89029400D01*
X139504800Y-89062733D01*
X139571466Y-89096066D01*
X139704800Y-89096066D01*
X139771466Y-89129400D01*
X139804800Y-89162733D01*
X139838133Y-89229400D01*
X139838133Y-89362733D01*
X139804800Y-89429400D01*
X139771466Y-89462733D01*
X139704800Y-89496066D01*
X139571466Y-89496066D01*
X139504800Y-89462733D01*
X139471466Y-89429400D01*
X139438133Y-89362733D01*
X139438133Y-89229400D01*
X139471466Y-89162733D01*
X139504800Y-89129400D01*
X139571466Y-89096066D01*
X131297314Y-86142485D02*
X131325885Y-86171057D01*
X131411600Y-86199628D01*
X131468742Y-86199628D01*
X131554457Y-86171057D01*
X131611600Y-86113914D01*
X131640171Y-86056771D01*
X131668742Y-85942485D01*
X131668742Y-85856771D01*
X131640171Y-85742485D01*
X131611600Y-85685342D01*
X131554457Y-85628200D01*
X131468742Y-85599628D01*
X131411600Y-85599628D01*
X131325885Y-85628200D01*
X131297314Y-85656771D01*
X130783028Y-85799628D02*
X130783028Y-86199628D01*
X130925885Y-85571057D02*
X131068742Y-85999628D01*
X130697314Y-85999628D01*
X130354457Y-85599628D02*
X130297314Y-85599628D01*
X130240171Y-85628200D01*
X130211600Y-85656771D01*
X130183028Y-85713914D01*
X130154457Y-85828200D01*
X130154457Y-85971057D01*
X130183028Y-86085342D01*
X130211600Y-86142485D01*
X130240171Y-86171057D01*
X130297314Y-86199628D01*
X130354457Y-86199628D01*
X130411600Y-86171057D01*
X130440171Y-86142485D01*
X130468742Y-86085342D01*
X130497314Y-85971057D01*
X130497314Y-85828200D01*
X130468742Y-85713914D01*
X130440171Y-85656771D01*
X130411600Y-85628200D01*
X130354457Y-85599628D01*
D13*
X179110000Y-67184000D02*
X178610000Y-67484000D01*
X177965000Y-70859000D02*
X177965000Y-68384000D01*
X177965000Y-54109000D02*
X173340000Y-54109000D01*
X178610000Y-67484000D02*
X179110000Y-67784000D01*
X170015000Y-69284000D02*
X170015000Y-55684000D01*
X177965000Y-56584000D02*
X177965000Y-54109000D01*
X179110000Y-67784000D02*
X179110000Y-67184000D01*
X173340000Y-70859000D02*
X177965000Y-70859000D01*
D14*
X141461258Y-86501500D02*
X140986742Y-86501500D01*
X141461258Y-85456500D02*
X140986742Y-85456500D01*
X140923742Y-88152500D02*
X141398258Y-88152500D01*
X140923742Y-87107500D02*
X141398258Y-87107500D01*
D11*
X138527000Y-83128000D02*
X137787000Y-83128000D01*
D14*
X133112742Y-84596500D02*
X133587258Y-84596500D01*
X133112742Y-83551500D02*
X133587258Y-83551500D01*
X137049742Y-89774500D02*
X137524258Y-89774500D01*
X137049742Y-90819500D02*
X137524258Y-90819500D01*
X141461258Y-83199500D02*
X140986742Y-83199500D01*
X141461258Y-82154500D02*
X140986742Y-82154500D01*
X141461258Y-83805500D02*
X140986742Y-83805500D01*
X141461258Y-84850500D02*
X140986742Y-84850500D01*
X136587000Y-86724000D02*
X138487000Y-86724000D01*
X137987000Y-89044000D02*
X136587000Y-89044000D01*
X133490580Y-86489000D02*
X133209420Y-86489000D01*
X133490580Y-85469000D02*
X133209420Y-85469000D01*
%LPC*%
G36*
X178341200Y-62110200D02*
G01*
X176738800Y-62110200D01*
X176738800Y-60857800D01*
X178341200Y-60857800D01*
X178341200Y-62110200D01*
G37*
D15*
X178341200Y-62110200D02*
X176738800Y-62110200D01*
X176738800Y-60857800D01*
X178341200Y-60857800D01*
X178341200Y-62110200D01*
G36*
X173091200Y-71130200D02*
G01*
X170038800Y-71130200D01*
X170038800Y-69627800D01*
X173091200Y-69627800D01*
X173091200Y-71130200D01*
G37*
X173091200Y-71130200D02*
X170038800Y-71130200D01*
X170038800Y-69627800D01*
X173091200Y-69627800D01*
X173091200Y-71130200D01*
G36*
X178341200Y-68110200D02*
G01*
X176738800Y-68110200D01*
X176738800Y-66857800D01*
X178341200Y-66857800D01*
X178341200Y-68110200D01*
G37*
X178341200Y-68110200D02*
X176738800Y-68110200D01*
X176738800Y-66857800D01*
X178341200Y-66857800D01*
X178341200Y-68110200D01*
G36*
X173091200Y-55340200D02*
G01*
X170038800Y-55340200D01*
X170038800Y-53837800D01*
X173091200Y-53837800D01*
X173091200Y-55340200D01*
G37*
X173091200Y-55340200D02*
X170038800Y-55340200D01*
X170038800Y-53837800D01*
X173091200Y-53837800D01*
X173091200Y-55340200D01*
G36*
X178341200Y-60110200D02*
G01*
X176738800Y-60110200D01*
X176738800Y-58857800D01*
X178341200Y-58857800D01*
X178341200Y-60110200D01*
G37*
X178341200Y-60110200D02*
X176738800Y-60110200D01*
X176738800Y-58857800D01*
X178341200Y-58857800D01*
X178341200Y-60110200D01*
G36*
X178341200Y-66110200D02*
G01*
X176738800Y-66110200D01*
X176738800Y-64857800D01*
X178341200Y-64857800D01*
X178341200Y-66110200D01*
G37*
X178341200Y-66110200D02*
X176738800Y-66110200D01*
X176738800Y-64857800D01*
X178341200Y-64857800D01*
X178341200Y-66110200D01*
G36*
X178341200Y-64110200D02*
G01*
X176738800Y-64110200D01*
X176738800Y-62857800D01*
X178341200Y-62857800D01*
X178341200Y-64110200D01*
G37*
X178341200Y-64110200D02*
X176738800Y-64110200D01*
X176738800Y-62857800D01*
X178341200Y-62857800D01*
X178341200Y-64110200D01*
G36*
X178341200Y-58110200D02*
G01*
X176738800Y-58110200D01*
X176738800Y-56857800D01*
X178341200Y-56857800D01*
X178341200Y-58110200D01*
G37*
X178341200Y-58110200D02*
X176738800Y-58110200D01*
X176738800Y-56857800D01*
X178341200Y-56857800D01*
X178341200Y-58110200D01*
D16*
X177846000Y-124786000D03*
X177846000Y-133786000D03*
D17*
X108850000Y-50214000D03*
D18*
X108850000Y-50214000D03*
D16*
X177846000Y-102434000D03*
X177846000Y-111434000D03*
D18*
X147350000Y-50214000D03*
D17*
X147350000Y-50214000D03*
D16*
X122610000Y-86914000D03*
X113610000Y-86914000D03*
X181030000Y-86914000D03*
X172030000Y-86914000D03*
D18*
X108850000Y-97214000D03*
D17*
X108850000Y-97214000D03*
X108850000Y-144214000D03*
D18*
X108850000Y-144214000D03*
D17*
X185850000Y-144214000D03*
D18*
X185850000Y-144214000D03*
D16*
X116540000Y-133786000D03*
X116540000Y-124786000D03*
D18*
X147350000Y-144214000D03*
D17*
X147350000Y-144214000D03*
D16*
X116540000Y-111434000D03*
X116540000Y-102434000D03*
D18*
X185850000Y-97214000D03*
D17*
X185850000Y-97214000D03*
X185850000Y-50214000D03*
D18*
X185850000Y-50214000D03*
D19*
X142049000Y-85979000D03*
X140399000Y-85979000D03*
D20*
X140336000Y-87630000D03*
X141986000Y-87630000D03*
D21*
X138237000Y-83678000D03*
X138237000Y-84328000D03*
X138237000Y-84978000D03*
X136337000Y-84978000D03*
X136337000Y-84328000D03*
X136337000Y-83678000D03*
D20*
X132525000Y-84074000D03*
X134175000Y-84074000D03*
X136462000Y-90297000D03*
X138112000Y-90297000D03*
D19*
X142049000Y-82677000D03*
X140399000Y-82677000D03*
X142049000Y-84328000D03*
X140399000Y-84328000D03*
D22*
X138237000Y-87234000D03*
X138237000Y-87884000D03*
X138237000Y-88534000D03*
X136337000Y-88534000D03*
X136337000Y-87884000D03*
X136337000Y-87234000D03*
D23*
X134125000Y-85979000D03*
X132575000Y-85979000D03*
M02*
