%TF.GenerationSoftware,KiCad,Pcbnew,(6.0.5)*%
%TF.CreationDate,2022-07-09T16:18:45-07:00*%
%TF.ProjectId,solar-panel-side-Y-minus,736f6c61-722d-4706-916e-656c2d736964,rev?*%
%TF.SameCoordinates,Original*%
%TF.FileFunction,Copper,L1,Top*%
%TF.FilePolarity,Positive*%
%FSLAX46Y46*%
G04 Gerber Fmt 4.6, Leading zero omitted, Abs format (unit mm)*
G04 Created by KiCad (PCBNEW (6.0.5)) date 2022-07-09 16:18:45*
%MOMM*%
%LPD*%
G01*
G04 APERTURE LIST*
G04 Aperture macros list*
%AMRoundRect*
0 Rectangle with rounded corners*
0 $1 Rounding radius*
0 $2 $3 $4 $5 $6 $7 $8 $9 X,Y pos of 4 corners*
0 Add a 4 corners polygon primitive as box body*
4,1,4,$2,$3,$4,$5,$6,$7,$8,$9,$2,$3,0*
0 Add four circle primitives for the rounded corners*
1,1,$1+$1,$2,$3*
1,1,$1+$1,$4,$5*
1,1,$1+$1,$6,$7*
1,1,$1+$1,$8,$9*
0 Add four rect primitives between the rounded corners*
20,1,$1+$1,$2,$3,$4,$5,0*
20,1,$1+$1,$4,$5,$6,$7,0*
20,1,$1+$1,$6,$7,$8,$9,0*
20,1,$1+$1,$8,$9,$2,$3,0*%
G04 Aperture macros list end*
%TA.AperFunction,ComponentPad*%
%ADD10C,3.000000*%
%TD*%
%TA.AperFunction,SMDPad,CuDef*%
%ADD11R,1.700000X2.500000*%
%TD*%
%TA.AperFunction,ConnectorPad*%
%ADD12C,3.800000*%
%TD*%
%TA.AperFunction,ComponentPad*%
%ADD13C,2.600000*%
%TD*%
%TA.AperFunction,SMDPad,CuDef*%
%ADD14RoundRect,0.225000X-0.225000X-0.250000X0.225000X-0.250000X0.225000X0.250000X-0.225000X0.250000X0*%
%TD*%
%TA.AperFunction,SMDPad,CuDef*%
%ADD15R,2.500000X1.700000*%
%TD*%
%TA.AperFunction,SMDPad,CuDef*%
%ADD16RoundRect,0.200000X0.200000X0.275000X-0.200000X0.275000X-0.200000X-0.275000X0.200000X-0.275000X0*%
%TD*%
%TA.AperFunction,SMDPad,CuDef*%
%ADD17RoundRect,0.200000X-0.200000X-0.275000X0.200000X-0.275000X0.200000X0.275000X-0.200000X0.275000X0*%
%TD*%
%TA.AperFunction,SMDPad,CuDef*%
%ADD18R,0.600000X0.400000*%
%TD*%
%TA.AperFunction,SMDPad,CuDef*%
%ADD19R,0.650000X0.400000*%
%TD*%
%TA.AperFunction,SMDPad,CuDef*%
%ADD20RoundRect,0.225000X0.225000X0.250000X-0.225000X0.250000X-0.225000X-0.250000X0.225000X-0.250000X0*%
%TD*%
%TA.AperFunction,SMDPad,CuDef*%
%ADD21R,0.740000X0.270000*%
%TD*%
%TA.AperFunction,SMDPad,CuDef*%
%ADD22R,0.650000X1.350000*%
%TD*%
%TA.AperFunction,ViaPad*%
%ADD23C,0.800000*%
%TD*%
%TA.AperFunction,Conductor*%
%ADD24C,0.250000*%
%TD*%
%TA.AperFunction,Conductor*%
%ADD25C,0.500000*%
%TD*%
G04 APERTURE END LIST*
D10*
X177846000Y-124786000D03*
X177846000Y-133786000D03*
D11*
X108966000Y-114268000D03*
X108966000Y-110268000D03*
X185166000Y-122206000D03*
X185166000Y-126206000D03*
X108966000Y-126206000D03*
X108966000Y-122206000D03*
D12*
X108850000Y-50214000D03*
D13*
X108850000Y-50214000D03*
D10*
X177846000Y-102434000D03*
X177846000Y-111434000D03*
D11*
X162052000Y-88932000D03*
X162052000Y-92932000D03*
D14*
X146545000Y-87122000D03*
X148095000Y-87122000D03*
D13*
X147350000Y-50214000D03*
D12*
X147350000Y-50214000D03*
D11*
X185420000Y-110236000D03*
X185420000Y-114236000D03*
D15*
X122714000Y-93726000D03*
X126714000Y-93726000D03*
D11*
X162052000Y-80042000D03*
X162052000Y-84042000D03*
D10*
X122610000Y-86914000D03*
X113610000Y-86914000D03*
X181030000Y-86914000D03*
X172030000Y-86914000D03*
D13*
X108850000Y-97214000D03*
D12*
X108850000Y-97214000D03*
D13*
X108850000Y-144214000D03*
D12*
X108850000Y-144214000D03*
D13*
X185850000Y-144214000D03*
D12*
X185850000Y-144214000D03*
D10*
X116540000Y-133786000D03*
X116540000Y-124786000D03*
D13*
X147350000Y-144214000D03*
D12*
X147350000Y-144214000D03*
D10*
X116540000Y-111434000D03*
X116540000Y-102434000D03*
D13*
X185850000Y-97214000D03*
D12*
X185850000Y-97214000D03*
X185850000Y-50214000D03*
D13*
X185850000Y-50214000D03*
D16*
X142049000Y-84328000D03*
X140399000Y-84328000D03*
X142049000Y-85979000D03*
X140399000Y-85979000D03*
X142049000Y-82677000D03*
X140399000Y-82677000D03*
D17*
X140399000Y-87630000D03*
X142049000Y-87630000D03*
X136462000Y-90297000D03*
X138112000Y-90297000D03*
D18*
X138237000Y-84978000D03*
X138237000Y-84328000D03*
X138237000Y-83678000D03*
X136337000Y-83678000D03*
X136337000Y-84328000D03*
X136337000Y-84978000D03*
D17*
X132525000Y-84074000D03*
X134175000Y-84074000D03*
D19*
X138237000Y-88534000D03*
X138237000Y-87884000D03*
X138237000Y-87234000D03*
X136337000Y-87234000D03*
X136337000Y-87884000D03*
X136337000Y-88534000D03*
D20*
X134125000Y-85979000D03*
X132575000Y-85979000D03*
D21*
X146579000Y-90282000D03*
X146579000Y-90932000D03*
X146579000Y-91582000D03*
X148569000Y-91582000D03*
X148569000Y-90932000D03*
X148569000Y-90282000D03*
D22*
X147574000Y-90932000D03*
D23*
X171196000Y-65532000D03*
X143383000Y-85217000D03*
X175514000Y-56134000D03*
X178054000Y-55372000D03*
X179451000Y-55372000D03*
X175514000Y-62738000D03*
X112776000Y-89916000D03*
X130556000Y-93091000D03*
X129159000Y-94361000D03*
X129159000Y-93091000D03*
X146304000Y-97917000D03*
X175514000Y-57404000D03*
X110236000Y-89154000D03*
X146304000Y-96774000D03*
X176657000Y-55372000D03*
X179324000Y-64262000D03*
X180975000Y-55372000D03*
X148209000Y-97917000D03*
X179324000Y-62738000D03*
X110236000Y-87122000D03*
X175514000Y-64262000D03*
X148209000Y-96774000D03*
X110236000Y-85598000D03*
X130556000Y-94361000D03*
X131699000Y-93726000D03*
X175514000Y-58674000D03*
X115062000Y-89916000D03*
X148844000Y-85598000D03*
X143764000Y-89408000D03*
X145034000Y-91948000D03*
X151892000Y-88900000D03*
X155420000Y-88900000D03*
X151892000Y-87122000D03*
X145034000Y-89408000D03*
X155420000Y-87120000D03*
X135318500Y-82994500D03*
X177546000Y-78232000D03*
X139554790Y-90442210D03*
X133746000Y-88534000D03*
X130937000Y-86995000D03*
X140335000Y-92329000D03*
X138303000Y-93218000D03*
D24*
X146545000Y-87122000D02*
X146545000Y-90248000D01*
X146545000Y-87122000D02*
X146545000Y-86119000D01*
X155194000Y-81534000D02*
X171196000Y-65532000D01*
X171196000Y-65532000D02*
X171196000Y-65532000D01*
X146545000Y-90248000D02*
X146579000Y-90282000D01*
X146545000Y-86119000D02*
X151130000Y-81534000D01*
X151130000Y-81534000D02*
X155194000Y-81534000D01*
D25*
X142049000Y-82677000D02*
X142049000Y-84328000D01*
X142049000Y-84328000D02*
X142049000Y-85979000D01*
D24*
X143764000Y-84328000D02*
X143764000Y-84836000D01*
X143764000Y-84328000D02*
X142049000Y-84328000D01*
X143510000Y-85090000D02*
X143383000Y-85217000D01*
X143383000Y-85217000D02*
X143383000Y-85217000D01*
X143764000Y-84836000D02*
X143510000Y-85090000D01*
X143383000Y-85217000D02*
X145643000Y-85217000D01*
X145643000Y-85217000D02*
X146545000Y-86119000D01*
D25*
X185420000Y-110008000D02*
X177846000Y-102434000D01*
X185420000Y-110236000D02*
X185420000Y-110008000D01*
X162052000Y-92932000D02*
X168344000Y-92932000D01*
X168344000Y-92932000D02*
X177846000Y-102434000D01*
X168942000Y-88932000D02*
X171196000Y-91186000D01*
X171196000Y-91186000D02*
X176758000Y-91186000D01*
X176758000Y-91186000D02*
X181030000Y-86914000D01*
X162052000Y-88932000D02*
X168942000Y-88932000D01*
X162052000Y-88932000D02*
X162052000Y-84042000D01*
X185420000Y-114236000D02*
X180648000Y-114236000D01*
X185166000Y-114490000D02*
X185420000Y-114236000D01*
X182586000Y-124786000D02*
X185166000Y-122206000D01*
X177846000Y-124786000D02*
X182586000Y-124786000D01*
X180648000Y-114236000D02*
X177846000Y-111434000D01*
X185166000Y-122206000D02*
X185166000Y-114490000D01*
X108966000Y-126212000D02*
X116540000Y-133786000D01*
X185166000Y-126466000D02*
X185166000Y-126206000D01*
X177846000Y-133786000D02*
X185166000Y-126466000D01*
X108966000Y-126206000D02*
X108966000Y-126212000D01*
X111546000Y-124786000D02*
X108966000Y-122206000D01*
X116540000Y-124786000D02*
X111546000Y-124786000D01*
X111800000Y-111434000D02*
X108966000Y-114268000D01*
X116540000Y-111434000D02*
X111800000Y-111434000D01*
X108966000Y-122206000D02*
X108966000Y-114268000D01*
X108966000Y-110008000D02*
X108966000Y-110268000D01*
X116540000Y-102434000D02*
X108966000Y-110008000D01*
X122610000Y-93622000D02*
X122714000Y-93726000D01*
X122610000Y-86914000D02*
X122610000Y-93622000D01*
X162052000Y-80042000D02*
X175736000Y-80042000D01*
X177546000Y-78232000D02*
X177546000Y-78232000D01*
X175736000Y-80042000D02*
X177546000Y-78232000D01*
D24*
X137662000Y-88534000D02*
X137586999Y-88458999D01*
X138237000Y-88534000D02*
X138237000Y-90172000D01*
X137586999Y-87309001D02*
X137662000Y-87234000D01*
X138237000Y-90172000D02*
X138112000Y-90297000D01*
X137662000Y-87234000D02*
X138237000Y-87234000D01*
X137586999Y-88458999D02*
X137586999Y-87309001D01*
X138257210Y-90442210D02*
X138112000Y-90297000D01*
X138237000Y-88534000D02*
X137662000Y-88534000D01*
X139554790Y-90442210D02*
X138257210Y-90442210D01*
D25*
X134125000Y-84124000D02*
X134175000Y-84074000D01*
D24*
X134429000Y-84328000D02*
X134175000Y-84074000D01*
D25*
X134125000Y-85979000D02*
X134125000Y-84124000D01*
D24*
X136337000Y-84328000D02*
X134429000Y-84328000D01*
X135686999Y-85628001D02*
X136337000Y-84978000D01*
X135762000Y-87884000D02*
X135686999Y-87808999D01*
X136337000Y-87884000D02*
X135762000Y-87884000D01*
X142049000Y-87630000D02*
X142049000Y-87629000D01*
X140399000Y-85979000D02*
X139446000Y-85979000D01*
X137338000Y-85979000D02*
X136337000Y-84978000D01*
X135686999Y-87808999D02*
X135686999Y-85628001D01*
X142049000Y-87629000D02*
X140399000Y-85979000D01*
X139446000Y-85979000D02*
X139192000Y-86233000D01*
X137592000Y-86233000D02*
X137338000Y-85979000D01*
X139192000Y-86233000D02*
X137592000Y-86233000D01*
X140399000Y-87630000D02*
X140145000Y-87884000D01*
X140145000Y-87884000D02*
X138237000Y-87884000D01*
X136462000Y-90361000D02*
X137541000Y-91440000D01*
X136462000Y-90297000D02*
X136462000Y-90361000D01*
X136987001Y-87309001D02*
X136987001Y-88458999D01*
X136912000Y-88534000D02*
X136337000Y-88534000D01*
X138938000Y-82169000D02*
X134430000Y-82169000D01*
X133350000Y-86741000D02*
X133350000Y-84899000D01*
X136337000Y-88534000D02*
X136337000Y-90172000D01*
X140399000Y-82677000D02*
X139446000Y-82677000D01*
X137541000Y-91440000D02*
X141097000Y-91440000D01*
X135143000Y-88534000D02*
X133350000Y-86741000D01*
X136987001Y-88458999D02*
X136912000Y-88534000D01*
X136337000Y-88534000D02*
X135143000Y-88534000D01*
X133350000Y-84899000D02*
X132525000Y-84074000D01*
X139446000Y-82677000D02*
X138938000Y-82169000D01*
X133922000Y-82677000D02*
X132525000Y-84074000D01*
X134430000Y-82169000D02*
X133922000Y-82677000D01*
X136337000Y-90172000D02*
X136462000Y-90297000D01*
X136912000Y-87234000D02*
X136987001Y-87309001D01*
X136337000Y-87234000D02*
X136912000Y-87234000D01*
X144145000Y-91440000D02*
X144145000Y-92456000D01*
X143637000Y-90932000D02*
X144145000Y-91440000D01*
X141097000Y-91440000D02*
X141605000Y-90932000D01*
X143637000Y-90932000D02*
X146579000Y-90932000D01*
X144145000Y-92456000D02*
X144780000Y-93091000D01*
X144780000Y-93091000D02*
X147828000Y-93091000D01*
X141605000Y-90932000D02*
X143637000Y-90932000D01*
X147828000Y-93091000D02*
X148569000Y-92350000D01*
X148569000Y-92350000D02*
X148569000Y-91582000D01*
X131968000Y-88534000D02*
X130937000Y-87503000D01*
X138303000Y-93218000D02*
X139446000Y-93218000D01*
X130937000Y-87503000D02*
X130937000Y-86995000D01*
X130937000Y-86995000D02*
X130937000Y-86995000D01*
X133746000Y-88534000D02*
X131968000Y-88534000D01*
X139446000Y-93218000D02*
X140335000Y-92329000D01*
X149606000Y-92710000D02*
X149606000Y-90699000D01*
X148590000Y-93726000D02*
X149606000Y-92710000D01*
X141732000Y-93726000D02*
X148590000Y-93726000D01*
X149189000Y-90282000D02*
X148569000Y-90282000D01*
X140335000Y-92329000D02*
X141732000Y-93726000D01*
X149606000Y-90699000D02*
X149189000Y-90282000D01*
X138237000Y-84328000D02*
X140399000Y-84328000D01*
D25*
X138237000Y-84328000D02*
X138237000Y-83678000D01*
%TA.AperFunction,Conductor*%
G36*
X108205179Y-47987713D02*
G01*
X108241724Y-48038013D01*
X108241724Y-48100187D01*
X108205179Y-48150487D01*
X108172594Y-48166134D01*
X108143274Y-48174155D01*
X108136813Y-48176405D01*
X107872973Y-48288943D01*
X107866876Y-48292050D01*
X107620751Y-48439353D01*
X107615137Y-48443254D01*
X107529484Y-48511875D01*
X107522041Y-48523205D01*
X107522154Y-48525591D01*
X107524619Y-48529409D01*
X108838732Y-49843522D01*
X108850811Y-49849677D01*
X108855923Y-49848867D01*
X110171900Y-48532890D01*
X110178055Y-48520811D01*
X110177637Y-48518173D01*
X110175087Y-48515008D01*
X110103338Y-48456282D01*
X110097769Y-48452324D01*
X109853190Y-48302446D01*
X109847137Y-48299281D01*
X109584479Y-48183982D01*
X109578051Y-48181668D01*
X109522523Y-48165851D01*
X109470918Y-48131174D01*
X109449551Y-48072787D01*
X109466584Y-48012991D01*
X109515511Y-47974627D01*
X109550083Y-47968500D01*
X146646048Y-47968500D01*
X146705179Y-47987713D01*
X146741724Y-48038013D01*
X146741724Y-48100187D01*
X146705179Y-48150487D01*
X146672594Y-48166134D01*
X146643274Y-48174155D01*
X146636813Y-48176405D01*
X146372973Y-48288943D01*
X146366876Y-48292050D01*
X146120751Y-48439353D01*
X146115137Y-48443254D01*
X146029484Y-48511875D01*
X146022041Y-48523205D01*
X146022154Y-48525591D01*
X146024619Y-48529409D01*
X147338732Y-49843522D01*
X147350811Y-49849677D01*
X147355923Y-49848867D01*
X148671900Y-48532890D01*
X148678055Y-48520811D01*
X148677637Y-48518173D01*
X148675087Y-48515008D01*
X148603338Y-48456282D01*
X148597769Y-48452324D01*
X148353190Y-48302446D01*
X148347137Y-48299281D01*
X148084479Y-48183982D01*
X148078051Y-48181668D01*
X148022523Y-48165851D01*
X147970918Y-48131174D01*
X147949551Y-48072787D01*
X147966584Y-48012991D01*
X148015511Y-47974627D01*
X148050083Y-47968500D01*
X185146048Y-47968500D01*
X185205179Y-47987713D01*
X185241724Y-48038013D01*
X185241724Y-48100187D01*
X185205179Y-48150487D01*
X185172594Y-48166134D01*
X185143274Y-48174155D01*
X185136813Y-48176405D01*
X184872973Y-48288943D01*
X184866876Y-48292050D01*
X184620751Y-48439353D01*
X184615137Y-48443254D01*
X184529484Y-48511875D01*
X184522041Y-48523205D01*
X184522154Y-48525591D01*
X184524619Y-48529409D01*
X185838732Y-49843522D01*
X185850811Y-49849677D01*
X185855923Y-49848867D01*
X187171900Y-48532890D01*
X187178055Y-48520811D01*
X187177637Y-48518173D01*
X187175087Y-48515008D01*
X187103338Y-48456282D01*
X187097769Y-48452324D01*
X186853190Y-48302446D01*
X186847137Y-48299281D01*
X186584479Y-48183982D01*
X186578051Y-48181668D01*
X186522523Y-48165851D01*
X186470918Y-48131174D01*
X186449551Y-48072787D01*
X186466584Y-48012991D01*
X186515511Y-47974627D01*
X186550083Y-47968500D01*
X187994900Y-47968500D01*
X188054031Y-47987713D01*
X188090576Y-48038013D01*
X188095500Y-48069100D01*
X188095500Y-49516704D01*
X188076287Y-49575835D01*
X188025987Y-49612380D01*
X187963813Y-49612380D01*
X187913513Y-49575835D01*
X187900070Y-49550285D01*
X187832604Y-49359767D01*
X187829894Y-49353506D01*
X187698333Y-49098610D01*
X187694788Y-49092757D01*
X187553576Y-48891832D01*
X187542738Y-48883694D01*
X187542049Y-48883684D01*
X187535711Y-48887499D01*
X186220478Y-50202732D01*
X186214323Y-50214811D01*
X186215133Y-50219923D01*
X187531714Y-51536504D01*
X187543793Y-51542659D01*
X187545034Y-51542462D01*
X187549951Y-51538285D01*
X187670907Y-51373624D01*
X187674564Y-51367862D01*
X187811434Y-51115779D01*
X187814283Y-51109556D01*
X187900794Y-50880610D01*
X187939668Y-50832087D01*
X187999639Y-50815681D01*
X188057799Y-50837658D01*
X188091934Y-50889623D01*
X188095500Y-50916169D01*
X188095500Y-96516704D01*
X188076287Y-96575835D01*
X188025987Y-96612380D01*
X187963813Y-96612380D01*
X187913513Y-96575835D01*
X187900070Y-96550285D01*
X187832604Y-96359767D01*
X187829894Y-96353506D01*
X187698333Y-96098610D01*
X187694788Y-96092757D01*
X187553576Y-95891832D01*
X187542738Y-95883694D01*
X187542049Y-95883684D01*
X187535711Y-95887499D01*
X186220478Y-97202732D01*
X186214323Y-97214811D01*
X186215133Y-97219923D01*
X187531714Y-98536504D01*
X187543793Y-98542659D01*
X187545034Y-98542462D01*
X187549951Y-98538285D01*
X187670907Y-98373624D01*
X187674564Y-98367862D01*
X187811434Y-98115779D01*
X187814283Y-98109556D01*
X187900794Y-97880610D01*
X187939668Y-97832087D01*
X187999639Y-97815681D01*
X188057799Y-97837658D01*
X188091934Y-97889623D01*
X188095500Y-97916169D01*
X188095500Y-143516704D01*
X188076287Y-143575835D01*
X188025987Y-143612380D01*
X187963813Y-143612380D01*
X187913513Y-143575835D01*
X187900070Y-143550285D01*
X187832604Y-143359767D01*
X187829894Y-143353506D01*
X187698333Y-143098610D01*
X187694788Y-143092757D01*
X187553576Y-142891832D01*
X187542738Y-142883694D01*
X187542049Y-142883684D01*
X187535711Y-142887499D01*
X186220478Y-144202732D01*
X186214323Y-144214811D01*
X186215133Y-144219923D01*
X187531714Y-145536504D01*
X187543793Y-145542659D01*
X187545034Y-145542462D01*
X187549951Y-145538285D01*
X187670907Y-145373624D01*
X187674564Y-145367862D01*
X187811434Y-145115779D01*
X187814283Y-145109556D01*
X187900794Y-144880610D01*
X187939668Y-144832087D01*
X187999639Y-144815681D01*
X188057799Y-144837658D01*
X188091934Y-144889623D01*
X188095500Y-144916169D01*
X188095500Y-146358900D01*
X188076287Y-146418031D01*
X188025987Y-146454576D01*
X187994900Y-146459500D01*
X186559102Y-146459500D01*
X186499971Y-146440287D01*
X186463426Y-146389987D01*
X186463426Y-146327813D01*
X186499971Y-146277513D01*
X186532105Y-146262289D01*
X186532084Y-146262225D01*
X186532622Y-146262044D01*
X186533576Y-146261592D01*
X186535339Y-146261129D01*
X186541808Y-146258952D01*
X186806813Y-146149184D01*
X186812941Y-146146142D01*
X187060595Y-146001425D01*
X187066255Y-145997579D01*
X187170366Y-145915945D01*
X187177925Y-145904695D01*
X187177848Y-145902590D01*
X187175146Y-145898356D01*
X185861268Y-144584478D01*
X185849189Y-144578323D01*
X185844077Y-144579133D01*
X184527717Y-145895493D01*
X184521562Y-145907572D01*
X184522024Y-145910489D01*
X184524254Y-145913287D01*
X184578323Y-145958496D01*
X184583858Y-145962517D01*
X184826842Y-146114941D01*
X184832870Y-146118173D01*
X185094305Y-146236216D01*
X185100701Y-146238595D01*
X185181213Y-146262443D01*
X185232452Y-146297658D01*
X185253207Y-146356266D01*
X185235548Y-146415880D01*
X185186222Y-146453730D01*
X185152641Y-146459500D01*
X148059102Y-146459500D01*
X147999971Y-146440287D01*
X147963426Y-146389987D01*
X147963426Y-146327813D01*
X147999971Y-146277513D01*
X148032105Y-146262289D01*
X148032084Y-146262225D01*
X148032622Y-146262044D01*
X148033576Y-146261592D01*
X148035339Y-146261129D01*
X148041808Y-146258952D01*
X148306813Y-146149184D01*
X148312941Y-146146142D01*
X148560595Y-146001425D01*
X148566255Y-145997579D01*
X148670366Y-145915945D01*
X148677925Y-145904695D01*
X148677848Y-145902590D01*
X148675146Y-145898356D01*
X147361268Y-144584478D01*
X147349189Y-144578323D01*
X147344077Y-144579133D01*
X146027717Y-145895493D01*
X146021562Y-145907572D01*
X146022024Y-145910489D01*
X146024254Y-145913287D01*
X146078323Y-145958496D01*
X146083858Y-145962517D01*
X146326842Y-146114941D01*
X146332870Y-146118173D01*
X146594305Y-146236216D01*
X146600701Y-146238595D01*
X146681213Y-146262443D01*
X146732452Y-146297658D01*
X146753207Y-146356266D01*
X146735548Y-146415880D01*
X146686222Y-146453730D01*
X146652641Y-146459500D01*
X109559102Y-146459500D01*
X109499971Y-146440287D01*
X109463426Y-146389987D01*
X109463426Y-146327813D01*
X109499971Y-146277513D01*
X109532105Y-146262289D01*
X109532084Y-146262225D01*
X109532622Y-146262044D01*
X109533576Y-146261592D01*
X109535339Y-146261129D01*
X109541808Y-146258952D01*
X109806813Y-146149184D01*
X109812941Y-146146142D01*
X110060595Y-146001425D01*
X110066255Y-145997579D01*
X110170366Y-145915945D01*
X110177925Y-145904695D01*
X110177848Y-145902590D01*
X110175146Y-145898356D01*
X108861268Y-144584478D01*
X108849189Y-144578323D01*
X108844077Y-144579133D01*
X107527717Y-145895493D01*
X107521562Y-145907572D01*
X107522024Y-145910489D01*
X107524254Y-145913287D01*
X107578323Y-145958496D01*
X107583858Y-145962517D01*
X107826842Y-146114941D01*
X107832870Y-146118173D01*
X108094305Y-146236216D01*
X108100701Y-146238595D01*
X108181213Y-146262443D01*
X108232452Y-146297658D01*
X108253207Y-146356266D01*
X108235548Y-146415880D01*
X108186222Y-146453730D01*
X108152641Y-146459500D01*
X106705100Y-146459500D01*
X106645969Y-146440287D01*
X106609424Y-146389987D01*
X106604500Y-146358900D01*
X106604500Y-144909779D01*
X106623713Y-144850648D01*
X106674013Y-144814103D01*
X106736187Y-144814103D01*
X106786487Y-144850648D01*
X106800276Y-144877193D01*
X106858558Y-145047420D01*
X106861204Y-145053715D01*
X106990092Y-145309979D01*
X106993570Y-145315860D01*
X107145587Y-145537046D01*
X107156340Y-145545297D01*
X107156743Y-145545308D01*
X107163505Y-145541285D01*
X108479522Y-144225268D01*
X108484850Y-144214811D01*
X109214323Y-144214811D01*
X109215133Y-144219923D01*
X110531714Y-145536504D01*
X110543793Y-145542659D01*
X110545034Y-145542462D01*
X110549951Y-145538285D01*
X110670907Y-145373624D01*
X110674564Y-145367862D01*
X110811434Y-145115779D01*
X110814283Y-145109556D01*
X110915672Y-144841238D01*
X110917650Y-144834685D01*
X110981689Y-144555080D01*
X110982756Y-144548342D01*
X111008383Y-144261182D01*
X111008580Y-144257232D01*
X111009012Y-144215974D01*
X111008899Y-144212036D01*
X111007725Y-144194819D01*
X145191283Y-144194819D01*
X145207795Y-144481176D01*
X145208652Y-144487962D01*
X145263874Y-144769433D01*
X145265646Y-144776046D01*
X145358558Y-145047420D01*
X145361204Y-145053715D01*
X145490092Y-145309979D01*
X145493570Y-145315860D01*
X145645587Y-145537046D01*
X145656340Y-145545297D01*
X145656743Y-145545308D01*
X145663505Y-145541285D01*
X146979522Y-144225268D01*
X146984850Y-144214811D01*
X147714323Y-144214811D01*
X147715133Y-144219923D01*
X149031714Y-145536504D01*
X149043793Y-145542659D01*
X149045034Y-145542462D01*
X149049951Y-145538285D01*
X149170907Y-145373624D01*
X149174564Y-145367862D01*
X149311434Y-145115779D01*
X149314283Y-145109556D01*
X149415672Y-144841238D01*
X149417650Y-144834685D01*
X149481689Y-144555080D01*
X149482756Y-144548342D01*
X149508383Y-144261182D01*
X149508580Y-144257232D01*
X149509012Y-144215974D01*
X149508899Y-144212036D01*
X149507725Y-144194819D01*
X183691283Y-144194819D01*
X183707795Y-144481176D01*
X183708652Y-144487962D01*
X183763874Y-144769433D01*
X183765646Y-144776046D01*
X183858558Y-145047420D01*
X183861204Y-145053715D01*
X183990092Y-145309979D01*
X183993570Y-145315860D01*
X184145587Y-145537046D01*
X184156340Y-145545297D01*
X184156743Y-145545308D01*
X184163505Y-145541285D01*
X185479522Y-144225268D01*
X185485677Y-144213189D01*
X185484867Y-144208077D01*
X184167656Y-142890866D01*
X184155577Y-142884711D01*
X184154618Y-142884863D01*
X184149362Y-142889376D01*
X184017050Y-143073507D01*
X184013453Y-143079308D01*
X183879224Y-143332823D01*
X183876450Y-143339052D01*
X183777870Y-143608435D01*
X183775965Y-143614991D01*
X183714857Y-143895258D01*
X183713859Y-143902015D01*
X183691354Y-144187970D01*
X183691283Y-144194819D01*
X149507725Y-144194819D01*
X149489289Y-143924396D01*
X149488364Y-143917640D01*
X149430196Y-143636752D01*
X149428355Y-143630161D01*
X149332604Y-143359767D01*
X149329894Y-143353506D01*
X149198333Y-143098610D01*
X149194788Y-143092757D01*
X149053576Y-142891832D01*
X149042738Y-142883694D01*
X149042049Y-142883684D01*
X149035711Y-142887499D01*
X147720478Y-144202732D01*
X147714323Y-144214811D01*
X146984850Y-144214811D01*
X146985677Y-144213189D01*
X146984867Y-144208077D01*
X145667656Y-142890866D01*
X145655577Y-142884711D01*
X145654618Y-142884863D01*
X145649362Y-142889376D01*
X145517050Y-143073507D01*
X145513453Y-143079308D01*
X145379224Y-143332823D01*
X145376450Y-143339052D01*
X145277870Y-143608435D01*
X145275965Y-143614991D01*
X145214857Y-143895258D01*
X145213859Y-143902015D01*
X145191354Y-144187970D01*
X145191283Y-144194819D01*
X111007725Y-144194819D01*
X110989289Y-143924396D01*
X110988364Y-143917640D01*
X110930196Y-143636752D01*
X110928355Y-143630161D01*
X110832604Y-143359767D01*
X110829894Y-143353506D01*
X110698333Y-143098610D01*
X110694788Y-143092757D01*
X110553576Y-142891832D01*
X110542738Y-142883694D01*
X110542049Y-142883684D01*
X110535711Y-142887499D01*
X109220478Y-144202732D01*
X109214323Y-144214811D01*
X108484850Y-144214811D01*
X108485677Y-144213189D01*
X108484867Y-144208077D01*
X107167656Y-142890866D01*
X107155577Y-142884711D01*
X107154618Y-142884863D01*
X107149362Y-142889376D01*
X107017050Y-143073507D01*
X107013453Y-143079308D01*
X106879224Y-143332823D01*
X106876450Y-143339052D01*
X106799573Y-143549129D01*
X106761209Y-143598056D01*
X106701414Y-143615089D01*
X106643026Y-143593723D01*
X106608349Y-143542117D01*
X106604500Y-143514557D01*
X106604500Y-142523205D01*
X107522041Y-142523205D01*
X107522154Y-142525591D01*
X107524619Y-142529409D01*
X108838732Y-143843522D01*
X108850811Y-143849677D01*
X108855923Y-143848867D01*
X110171900Y-142532890D01*
X110176835Y-142523205D01*
X146022041Y-142523205D01*
X146022154Y-142525591D01*
X146024619Y-142529409D01*
X147338732Y-143843522D01*
X147350811Y-143849677D01*
X147355923Y-143848867D01*
X148671900Y-142532890D01*
X148676835Y-142523205D01*
X184522041Y-142523205D01*
X184522154Y-142525591D01*
X184524619Y-142529409D01*
X185838732Y-143843522D01*
X185850811Y-143849677D01*
X185855923Y-143848867D01*
X187171900Y-142532890D01*
X187178055Y-142520811D01*
X187177637Y-142518173D01*
X187175087Y-142515008D01*
X187103338Y-142456282D01*
X187097769Y-142452324D01*
X186853190Y-142302446D01*
X186847137Y-142299281D01*
X186584479Y-142183982D01*
X186578051Y-142181668D01*
X186302188Y-142103087D01*
X186295491Y-142101663D01*
X186011511Y-142061247D01*
X186004709Y-142060747D01*
X185717853Y-142059245D01*
X185711037Y-142059674D01*
X185426650Y-142097115D01*
X185419944Y-142098467D01*
X185143274Y-142174155D01*
X185136813Y-142176405D01*
X184872973Y-142288943D01*
X184866876Y-142292050D01*
X184620751Y-142439353D01*
X184615137Y-142443254D01*
X184529484Y-142511875D01*
X184522041Y-142523205D01*
X148676835Y-142523205D01*
X148678055Y-142520811D01*
X148677637Y-142518173D01*
X148675087Y-142515008D01*
X148603338Y-142456282D01*
X148597769Y-142452324D01*
X148353190Y-142302446D01*
X148347137Y-142299281D01*
X148084479Y-142183982D01*
X148078051Y-142181668D01*
X147802188Y-142103087D01*
X147795491Y-142101663D01*
X147511511Y-142061247D01*
X147504709Y-142060747D01*
X147217853Y-142059245D01*
X147211037Y-142059674D01*
X146926650Y-142097115D01*
X146919944Y-142098467D01*
X146643274Y-142174155D01*
X146636813Y-142176405D01*
X146372973Y-142288943D01*
X146366876Y-142292050D01*
X146120751Y-142439353D01*
X146115137Y-142443254D01*
X146029484Y-142511875D01*
X146022041Y-142523205D01*
X110176835Y-142523205D01*
X110178055Y-142520811D01*
X110177637Y-142518173D01*
X110175087Y-142515008D01*
X110103338Y-142456282D01*
X110097769Y-142452324D01*
X109853190Y-142302446D01*
X109847137Y-142299281D01*
X109584479Y-142183982D01*
X109578051Y-142181668D01*
X109302188Y-142103087D01*
X109295491Y-142101663D01*
X109011511Y-142061247D01*
X109004709Y-142060747D01*
X108717853Y-142059245D01*
X108711037Y-142059674D01*
X108426650Y-142097115D01*
X108419944Y-142098467D01*
X108143274Y-142174155D01*
X108136813Y-142176405D01*
X107872973Y-142288943D01*
X107866876Y-142292050D01*
X107620751Y-142439353D01*
X107615137Y-142443254D01*
X107529484Y-142511875D01*
X107522041Y-142523205D01*
X106604500Y-142523205D01*
X106604500Y-124930933D01*
X107861500Y-124930933D01*
X107861501Y-127481066D01*
X107876266Y-127555301D01*
X107881769Y-127563536D01*
X107881769Y-127563537D01*
X107927012Y-127631247D01*
X107932516Y-127639484D01*
X108016699Y-127695734D01*
X108065239Y-127705389D01*
X108086081Y-127709535D01*
X108086082Y-127709535D01*
X108090933Y-127710500D01*
X108267102Y-127710500D01*
X109709358Y-127710499D01*
X109768489Y-127729712D01*
X109780493Y-127739964D01*
X114940965Y-132900435D01*
X114969191Y-132955833D01*
X114962603Y-133010472D01*
X114871500Y-133227728D01*
X114807310Y-133480480D01*
X114806936Y-133484191D01*
X114806936Y-133484193D01*
X114803100Y-133522293D01*
X114781183Y-133739944D01*
X114793694Y-134000419D01*
X114844569Y-134256185D01*
X114932690Y-134501621D01*
X115056120Y-134731336D01*
X115058350Y-134734322D01*
X115058353Y-134734327D01*
X115142980Y-134847655D01*
X115212149Y-134940283D01*
X115397348Y-135123873D01*
X115510701Y-135206987D01*
X115604641Y-135275868D01*
X115604646Y-135275871D01*
X115607649Y-135278073D01*
X115610947Y-135279808D01*
X115835127Y-135397755D01*
X115835131Y-135397757D01*
X115838433Y-135399494D01*
X115841960Y-135400726D01*
X115841963Y-135400727D01*
X116081101Y-135484237D01*
X116084629Y-135485469D01*
X116340828Y-135534110D01*
X116344557Y-135534256D01*
X116344561Y-135534257D01*
X116510618Y-135540781D01*
X116601403Y-135544348D01*
X116694885Y-135534110D01*
X116856916Y-135516365D01*
X116856921Y-135516364D01*
X116860629Y-135515958D01*
X116981114Y-135484237D01*
X117109204Y-135450514D01*
X117109208Y-135450512D01*
X117112811Y-135449564D01*
X117352410Y-135346625D01*
X117574161Y-135209401D01*
X117773194Y-135040907D01*
X117859138Y-134942906D01*
X117942671Y-134847655D01*
X117942673Y-134847653D01*
X117945135Y-134844845D01*
X117947153Y-134841707D01*
X117947158Y-134841701D01*
X118084183Y-134628672D01*
X118084186Y-134628667D01*
X118086208Y-134625523D01*
X118087743Y-134622116D01*
X118087746Y-134622110D01*
X118191780Y-134391163D01*
X118191781Y-134391160D01*
X118193314Y-134387757D01*
X118264099Y-134136772D01*
X118280980Y-134004077D01*
X118296691Y-133880582D01*
X118296691Y-133880579D01*
X118297009Y-133878081D01*
X118299420Y-133786000D01*
X118295997Y-133739944D01*
X176087183Y-133739944D01*
X176099694Y-134000419D01*
X176150569Y-134256185D01*
X176238690Y-134501621D01*
X176362120Y-134731336D01*
X176364350Y-134734322D01*
X176364353Y-134734327D01*
X176448980Y-134847655D01*
X176518149Y-134940283D01*
X176703348Y-135123873D01*
X176816701Y-135206987D01*
X176910641Y-135275868D01*
X176910646Y-135275871D01*
X176913649Y-135278073D01*
X176916947Y-135279808D01*
X177141127Y-135397755D01*
X177141131Y-135397757D01*
X177144433Y-135399494D01*
X177147960Y-135400726D01*
X177147963Y-135400727D01*
X177387101Y-135484237D01*
X177390629Y-135485469D01*
X177646828Y-135534110D01*
X177650557Y-135534256D01*
X177650561Y-135534257D01*
X177816618Y-135540781D01*
X177907403Y-135544348D01*
X178000885Y-135534110D01*
X178162916Y-135516365D01*
X178162921Y-135516364D01*
X178166629Y-135515958D01*
X178287114Y-135484237D01*
X178415204Y-135450514D01*
X178415208Y-135450512D01*
X178418811Y-135449564D01*
X178658410Y-135346625D01*
X178880161Y-135209401D01*
X179079194Y-135040907D01*
X179165138Y-134942906D01*
X179248671Y-134847655D01*
X179248673Y-134847653D01*
X179251135Y-134844845D01*
X179253153Y-134841707D01*
X179253158Y-134841701D01*
X179390183Y-134628672D01*
X179390186Y-134628667D01*
X179392208Y-134625523D01*
X179393743Y-134622116D01*
X179393746Y-134622110D01*
X179497780Y-134391163D01*
X179497781Y-134391160D01*
X179499314Y-134387757D01*
X179570099Y-134136772D01*
X179586980Y-134004077D01*
X179602691Y-133880582D01*
X179602691Y-133880579D01*
X179603009Y-133878081D01*
X179605420Y-133786000D01*
X179586094Y-133525941D01*
X179576648Y-133484193D01*
X179529367Y-133275240D01*
X179529366Y-133275237D01*
X179528542Y-133271595D01*
X179527192Y-133268122D01*
X179527189Y-133268114D01*
X179435382Y-133032033D01*
X179435379Y-133032027D01*
X179434027Y-133028550D01*
X179429567Y-133020746D01*
X179416908Y-132959874D01*
X179445775Y-132899696D01*
X184605506Y-127739965D01*
X184660904Y-127711739D01*
X184676641Y-127710500D01*
X185892094Y-127710499D01*
X186041066Y-127710499D01*
X186076548Y-127703442D01*
X186105584Y-127697667D01*
X186105586Y-127697666D01*
X186115301Y-127695734D01*
X186199484Y-127639484D01*
X186255734Y-127555301D01*
X186270500Y-127481067D01*
X186270499Y-124930934D01*
X186255734Y-124856699D01*
X186250230Y-124848461D01*
X186204988Y-124780753D01*
X186199484Y-124772516D01*
X186115301Y-124716266D01*
X186066761Y-124706611D01*
X186045919Y-124702465D01*
X186045918Y-124702465D01*
X186041067Y-124701500D01*
X186036120Y-124701500D01*
X185165204Y-124701501D01*
X184290934Y-124701501D01*
X184255452Y-124708558D01*
X184226416Y-124714333D01*
X184226414Y-124714334D01*
X184216699Y-124716266D01*
X184132516Y-124772516D01*
X184076266Y-124856699D01*
X184061500Y-124930933D01*
X184061500Y-124935880D01*
X184061501Y-126815358D01*
X184042288Y-126874489D01*
X184032036Y-126886493D01*
X178729354Y-132189175D01*
X178673956Y-132217401D01*
X178613725Y-132208266D01*
X178561044Y-132182287D01*
X178505090Y-132154694D01*
X178501540Y-132153558D01*
X178501536Y-132153556D01*
X178387214Y-132116962D01*
X178256728Y-132075193D01*
X177999344Y-132033275D01*
X177995602Y-132033226D01*
X177966905Y-132032850D01*
X177738590Y-132029862D01*
X177628620Y-132044828D01*
X177483898Y-132064524D01*
X177483896Y-132064524D01*
X177480196Y-132065028D01*
X177476613Y-132066072D01*
X177476610Y-132066073D01*
X177445321Y-132075193D01*
X177229838Y-132138000D01*
X177226456Y-132139559D01*
X177226451Y-132139561D01*
X177190040Y-132156347D01*
X176993016Y-132247177D01*
X176989895Y-132249223D01*
X176989890Y-132249226D01*
X176834459Y-132351131D01*
X176774933Y-132390158D01*
X176580379Y-132563804D01*
X176577987Y-132566680D01*
X176416016Y-132761429D01*
X176416011Y-132761436D01*
X176413629Y-132764300D01*
X176278345Y-132987240D01*
X176177500Y-133227728D01*
X176113310Y-133480480D01*
X176112936Y-133484191D01*
X176112936Y-133484193D01*
X176109100Y-133522293D01*
X176087183Y-133739944D01*
X118295997Y-133739944D01*
X118280094Y-133525941D01*
X118270648Y-133484193D01*
X118223367Y-133275240D01*
X118223366Y-133275237D01*
X118222542Y-133271595D01*
X118221192Y-133268122D01*
X118221189Y-133268114D01*
X118129381Y-133032032D01*
X118128027Y-133028550D01*
X117998625Y-132802145D01*
X117837180Y-132597353D01*
X117801517Y-132563804D01*
X117649957Y-132421231D01*
X117647239Y-132418674D01*
X117644182Y-132416554D01*
X117644178Y-132416550D01*
X117530977Y-132338020D01*
X117432973Y-132270032D01*
X117199090Y-132154694D01*
X117195535Y-132153556D01*
X117195533Y-132153555D01*
X117074909Y-132114944D01*
X116950728Y-132075193D01*
X116693344Y-132033275D01*
X116689602Y-132033226D01*
X116660905Y-132032850D01*
X116432590Y-132029862D01*
X116322620Y-132044828D01*
X116177898Y-132064524D01*
X116177896Y-132064524D01*
X116174196Y-132065028D01*
X116170613Y-132066072D01*
X116170610Y-132066073D01*
X116139321Y-132075193D01*
X115923838Y-132138000D01*
X115769602Y-132209104D01*
X115707860Y-132216412D01*
X115656351Y-132188880D01*
X110099965Y-126632494D01*
X110071739Y-126577096D01*
X110070500Y-126561359D01*
X110070499Y-124935872D01*
X110070499Y-124930934D01*
X110055734Y-124856699D01*
X110050230Y-124848461D01*
X110004988Y-124780753D01*
X109999484Y-124772516D01*
X109915301Y-124716266D01*
X109866761Y-124706611D01*
X109845919Y-124702465D01*
X109845918Y-124702465D01*
X109841067Y-124701500D01*
X109836120Y-124701500D01*
X108965204Y-124701501D01*
X108090934Y-124701501D01*
X108055452Y-124708558D01*
X108026416Y-124714333D01*
X108026414Y-124714334D01*
X108016699Y-124716266D01*
X107932516Y-124772516D01*
X107876266Y-124856699D01*
X107861500Y-124930933D01*
X106604500Y-124930933D01*
X106604500Y-120930933D01*
X107861500Y-120930933D01*
X107861501Y-123481066D01*
X107876266Y-123555301D01*
X107881769Y-123563536D01*
X107881769Y-123563537D01*
X107906324Y-123600286D01*
X107932516Y-123639484D01*
X108016699Y-123695734D01*
X108065239Y-123705389D01*
X108086081Y-123709535D01*
X108086082Y-123709535D01*
X108090933Y-123710500D01*
X108267739Y-123710500D01*
X109715358Y-123710499D01*
X109774489Y-123729712D01*
X109786493Y-123739964D01*
X111141332Y-125094803D01*
X111149355Y-125104845D01*
X111149384Y-125104820D01*
X111154028Y-125110276D01*
X111157853Y-125116339D01*
X111180989Y-125136772D01*
X111198441Y-125152185D01*
X111202982Y-125156453D01*
X111214880Y-125168351D01*
X111220476Y-125172545D01*
X111223977Y-125175169D01*
X111230227Y-125180258D01*
X111266170Y-125212001D01*
X111275459Y-125216362D01*
X111293029Y-125226920D01*
X111295496Y-125228769D01*
X111295500Y-125228771D01*
X111301236Y-125233070D01*
X111307947Y-125235586D01*
X111307949Y-125235587D01*
X111346134Y-125249902D01*
X111353573Y-125253037D01*
X111360278Y-125256185D01*
X111396982Y-125273417D01*
X111404059Y-125274519D01*
X111404063Y-125274520D01*
X111407111Y-125274994D01*
X111426952Y-125280199D01*
X111436552Y-125283798D01*
X111476299Y-125286751D01*
X111484357Y-125287350D01*
X111492382Y-125288271D01*
X111502856Y-125289902D01*
X111502858Y-125289902D01*
X111506697Y-125290500D01*
X111523016Y-125290500D01*
X111530471Y-125290777D01*
X111573518Y-125293976D01*
X111573520Y-125293976D01*
X111580667Y-125294507D01*
X111589053Y-125292717D01*
X111610054Y-125290500D01*
X114786121Y-125290500D01*
X114845252Y-125309713D01*
X114880803Y-125357105D01*
X114932690Y-125501621D01*
X115056120Y-125731336D01*
X115058350Y-125734322D01*
X115058353Y-125734327D01*
X115142980Y-125847655D01*
X115212149Y-125940283D01*
X115397348Y-126123873D01*
X115510701Y-126206987D01*
X115604641Y-126275868D01*
X115604646Y-126275871D01*
X115607649Y-126278073D01*
X115610947Y-126279808D01*
X115835127Y-126397755D01*
X115835131Y-126397757D01*
X115838433Y-126399494D01*
X115841960Y-126400726D01*
X115841963Y-126400727D01*
X116081101Y-126484237D01*
X116084629Y-126485469D01*
X116340828Y-126534110D01*
X116344557Y-126534256D01*
X116344561Y-126534257D01*
X116510618Y-126540781D01*
X116601403Y-126544348D01*
X116694885Y-126534110D01*
X116856916Y-126516365D01*
X116856921Y-126516364D01*
X116860629Y-126515958D01*
X116981114Y-126484237D01*
X117109204Y-126450514D01*
X117109208Y-126450512D01*
X117112811Y-126449564D01*
X117352410Y-126346625D01*
X117574161Y-126209401D01*
X117773194Y-126040907D01*
X117859138Y-125942906D01*
X117942671Y-125847655D01*
X117942673Y-125847653D01*
X117945135Y-125844845D01*
X117947153Y-125841707D01*
X117947158Y-125841701D01*
X118084183Y-125628672D01*
X118084186Y-125628667D01*
X118086208Y-125625523D01*
X118087743Y-125622116D01*
X118087746Y-125622110D01*
X118191780Y-125391163D01*
X118191781Y-125391160D01*
X118193314Y-125387757D01*
X118253270Y-125175169D01*
X118263086Y-125140365D01*
X118263087Y-125140361D01*
X118264099Y-125136772D01*
X118264570Y-125133071D01*
X118296691Y-124880582D01*
X118296691Y-124880579D01*
X118297009Y-124878081D01*
X118299420Y-124786000D01*
X118295997Y-124739944D01*
X176087183Y-124739944D01*
X176087362Y-124743674D01*
X176087362Y-124743679D01*
X176096594Y-124935872D01*
X176099694Y-125000419D01*
X176150569Y-125256185D01*
X176151831Y-125259700D01*
X176164163Y-125294046D01*
X176238690Y-125501621D01*
X176362120Y-125731336D01*
X176364350Y-125734322D01*
X176364353Y-125734327D01*
X176448980Y-125847655D01*
X176518149Y-125940283D01*
X176703348Y-126123873D01*
X176816701Y-126206987D01*
X176910641Y-126275868D01*
X176910646Y-126275871D01*
X176913649Y-126278073D01*
X176916947Y-126279808D01*
X177141127Y-126397755D01*
X177141131Y-126397757D01*
X177144433Y-126399494D01*
X177147960Y-126400726D01*
X177147963Y-126400727D01*
X177387101Y-126484237D01*
X177390629Y-126485469D01*
X177646828Y-126534110D01*
X177650557Y-126534256D01*
X177650561Y-126534257D01*
X177816618Y-126540781D01*
X177907403Y-126544348D01*
X178000885Y-126534110D01*
X178162916Y-126516365D01*
X178162921Y-126516364D01*
X178166629Y-126515958D01*
X178287114Y-126484237D01*
X178415204Y-126450514D01*
X178415208Y-126450512D01*
X178418811Y-126449564D01*
X178658410Y-126346625D01*
X178880161Y-126209401D01*
X179079194Y-126040907D01*
X179165138Y-125942906D01*
X179248671Y-125847655D01*
X179248673Y-125847653D01*
X179251135Y-125844845D01*
X179253153Y-125841707D01*
X179253158Y-125841701D01*
X179390183Y-125628672D01*
X179390186Y-125628667D01*
X179392208Y-125625523D01*
X179393743Y-125622116D01*
X179393746Y-125622110D01*
X179497780Y-125391163D01*
X179497781Y-125391160D01*
X179499314Y-125387757D01*
X179506073Y-125363793D01*
X179540612Y-125312098D01*
X179602895Y-125290500D01*
X182518215Y-125290500D01*
X182530989Y-125291927D01*
X182530992Y-125291889D01*
X182538130Y-125292463D01*
X182545124Y-125294046D01*
X182599172Y-125290693D01*
X182605401Y-125290500D01*
X182622226Y-125290500D01*
X182625764Y-125289993D01*
X182625781Y-125289992D01*
X182633475Y-125288890D01*
X182641504Y-125288067D01*
X182682204Y-125285542D01*
X182682205Y-125285542D01*
X182689359Y-125285098D01*
X182699010Y-125281614D01*
X182718901Y-125276655D01*
X182721962Y-125276217D01*
X182721965Y-125276216D01*
X182729052Y-125275201D01*
X182735572Y-125272237D01*
X182735574Y-125272236D01*
X182772701Y-125255356D01*
X182780178Y-125252312D01*
X182798754Y-125245606D01*
X182825284Y-125236028D01*
X182833564Y-125229979D01*
X182851267Y-125219634D01*
X182854080Y-125218355D01*
X182854082Y-125218354D01*
X182860605Y-125215388D01*
X182896939Y-125184080D01*
X182903247Y-125179072D01*
X182911810Y-125172817D01*
X182911814Y-125172813D01*
X182914944Y-125170527D01*
X182926477Y-125158994D01*
X182931944Y-125153918D01*
X182964655Y-125125733D01*
X182964658Y-125125730D01*
X182970082Y-125121056D01*
X182973981Y-125115041D01*
X182974748Y-125113858D01*
X182988030Y-125097441D01*
X184345506Y-123739965D01*
X184400904Y-123711739D01*
X184416641Y-123710500D01*
X185864547Y-123710499D01*
X186041066Y-123710499D01*
X186076548Y-123703442D01*
X186105584Y-123697667D01*
X186105586Y-123697666D01*
X186115301Y-123695734D01*
X186199484Y-123639484D01*
X186255734Y-123555301D01*
X186270500Y-123481067D01*
X186270499Y-120930934D01*
X186255734Y-120856699D01*
X186250230Y-120848461D01*
X186204988Y-120780753D01*
X186199484Y-120772516D01*
X186115301Y-120716266D01*
X186066761Y-120706611D01*
X186045919Y-120702465D01*
X186045918Y-120702465D01*
X186041067Y-120701500D01*
X185771100Y-120701500D01*
X185711969Y-120682287D01*
X185675424Y-120631987D01*
X185670500Y-120600900D01*
X185670500Y-115841099D01*
X185689713Y-115781968D01*
X185740013Y-115745423D01*
X185771100Y-115740499D01*
X186295066Y-115740499D01*
X186330548Y-115733442D01*
X186359584Y-115727667D01*
X186359586Y-115727666D01*
X186369301Y-115725734D01*
X186453484Y-115669484D01*
X186509734Y-115585301D01*
X186524500Y-115511067D01*
X186524499Y-112960934D01*
X186509734Y-112886699D01*
X186504230Y-112878461D01*
X186458988Y-112810753D01*
X186453484Y-112802516D01*
X186369301Y-112746266D01*
X186320761Y-112736611D01*
X186299919Y-112732465D01*
X186299918Y-112732465D01*
X186295067Y-112731500D01*
X186290120Y-112731500D01*
X185419204Y-112731501D01*
X184544934Y-112731501D01*
X184509452Y-112738558D01*
X184480416Y-112744333D01*
X184480414Y-112744334D01*
X184470699Y-112746266D01*
X184462464Y-112751769D01*
X184462463Y-112751769D01*
X184394753Y-112797012D01*
X184386516Y-112802516D01*
X184330266Y-112886699D01*
X184315500Y-112960933D01*
X184315500Y-113630900D01*
X184296287Y-113690031D01*
X184245987Y-113726576D01*
X184214900Y-113731500D01*
X180898641Y-113731500D01*
X180839510Y-113712287D01*
X180827506Y-113702035D01*
X179443434Y-112317963D01*
X179415208Y-112262565D01*
X179422846Y-112205510D01*
X179497780Y-112039163D01*
X179497781Y-112039160D01*
X179499314Y-112035757D01*
X179570099Y-111784772D01*
X179571660Y-111772500D01*
X179602691Y-111528582D01*
X179602691Y-111528579D01*
X179603009Y-111526081D01*
X179605420Y-111434000D01*
X179586094Y-111173941D01*
X179576648Y-111132193D01*
X179529367Y-110923240D01*
X179529366Y-110923237D01*
X179528542Y-110919595D01*
X179527192Y-110916122D01*
X179527189Y-110916114D01*
X179435381Y-110680032D01*
X179434027Y-110676550D01*
X179304625Y-110450145D01*
X179143180Y-110245353D01*
X179107517Y-110211804D01*
X178955957Y-110069231D01*
X178953239Y-110066674D01*
X178950182Y-110064554D01*
X178950178Y-110064550D01*
X178836977Y-109986020D01*
X178738973Y-109918032D01*
X178505090Y-109802694D01*
X178501538Y-109801557D01*
X178501533Y-109801555D01*
X178380909Y-109762944D01*
X178256728Y-109723193D01*
X177999344Y-109681275D01*
X177995602Y-109681226D01*
X177966905Y-109680850D01*
X177738590Y-109677862D01*
X177628620Y-109692828D01*
X177483898Y-109712524D01*
X177483896Y-109712524D01*
X177480196Y-109713028D01*
X177476613Y-109714072D01*
X177476610Y-109714073D01*
X177445321Y-109723193D01*
X177229838Y-109786000D01*
X177226456Y-109787559D01*
X177226451Y-109787561D01*
X177190040Y-109804347D01*
X176993016Y-109895177D01*
X176989895Y-109897223D01*
X176989890Y-109897226D01*
X176834459Y-109999131D01*
X176774933Y-110038158D01*
X176580379Y-110211804D01*
X176577987Y-110214680D01*
X176416016Y-110409429D01*
X176416011Y-110409436D01*
X176413629Y-110412300D01*
X176278345Y-110635240D01*
X176177500Y-110875728D01*
X176154917Y-110964649D01*
X176114814Y-111122559D01*
X176113310Y-111128480D01*
X176112936Y-111132191D01*
X176112936Y-111132193D01*
X176109100Y-111170293D01*
X176087183Y-111387944D01*
X176087362Y-111391674D01*
X176087362Y-111391679D01*
X176097733Y-111607584D01*
X176099694Y-111648419D01*
X176150569Y-111904185D01*
X176238690Y-112149621D01*
X176362120Y-112379336D01*
X176364350Y-112382322D01*
X176364353Y-112382327D01*
X176448980Y-112495655D01*
X176518149Y-112588283D01*
X176703348Y-112771873D01*
X176788782Y-112834516D01*
X176910641Y-112923868D01*
X176910646Y-112923871D01*
X176913649Y-112926073D01*
X176916947Y-112927808D01*
X177141127Y-113045755D01*
X177141131Y-113045757D01*
X177144433Y-113047494D01*
X177147960Y-113048726D01*
X177147963Y-113048727D01*
X177387101Y-113132237D01*
X177390629Y-113133469D01*
X177646828Y-113182110D01*
X177650557Y-113182256D01*
X177650561Y-113182257D01*
X177816618Y-113188781D01*
X177907403Y-113192348D01*
X178000885Y-113182110D01*
X178162916Y-113164365D01*
X178162921Y-113164364D01*
X178166629Y-113163958D01*
X178287114Y-113132237D01*
X178415204Y-113098514D01*
X178415208Y-113098512D01*
X178418811Y-113097564D01*
X178422240Y-113096091D01*
X178422248Y-113096088D01*
X178620074Y-113011096D01*
X178681987Y-113005407D01*
X178730920Y-113032391D01*
X180243332Y-114544803D01*
X180251355Y-114554845D01*
X180251384Y-114554820D01*
X180256028Y-114560276D01*
X180259853Y-114566339D01*
X180265226Y-114571084D01*
X180300441Y-114602185D01*
X180304982Y-114606453D01*
X180316880Y-114618351D01*
X180325981Y-114625172D01*
X180332211Y-114630244D01*
X180368170Y-114662001D01*
X180377451Y-114666358D01*
X180395033Y-114676923D01*
X180403235Y-114683070D01*
X180448153Y-114699909D01*
X180455570Y-114703035D01*
X180492493Y-114720371D01*
X180492497Y-114720372D01*
X180498982Y-114723417D01*
X180508523Y-114724902D01*
X180509111Y-114724994D01*
X180528952Y-114730199D01*
X180538552Y-114733798D01*
X180586367Y-114737352D01*
X180594369Y-114738270D01*
X180608697Y-114740500D01*
X180625016Y-114740500D01*
X180632471Y-114740777D01*
X180675517Y-114743976D01*
X180675519Y-114743976D01*
X180682666Y-114744507D01*
X180691052Y-114742717D01*
X180712053Y-114740500D01*
X184214901Y-114740500D01*
X184274032Y-114759713D01*
X184310577Y-114810013D01*
X184315501Y-114841100D01*
X184315501Y-115511066D01*
X184330266Y-115585301D01*
X184335769Y-115593536D01*
X184335769Y-115593537D01*
X184381012Y-115661247D01*
X184386516Y-115669484D01*
X184470699Y-115725734D01*
X184519239Y-115735389D01*
X184540081Y-115739535D01*
X184540082Y-115739535D01*
X184544933Y-115740500D01*
X184560900Y-115740500D01*
X184620031Y-115759713D01*
X184656576Y-115810013D01*
X184661500Y-115841100D01*
X184661500Y-120600901D01*
X184642287Y-120660032D01*
X184591987Y-120696577D01*
X184560900Y-120701501D01*
X184290934Y-120701501D01*
X184255452Y-120708558D01*
X184226416Y-120714333D01*
X184226414Y-120714334D01*
X184216699Y-120716266D01*
X184132516Y-120772516D01*
X184076266Y-120856699D01*
X184061500Y-120930933D01*
X184061500Y-120935880D01*
X184061501Y-122555358D01*
X184042288Y-122614489D01*
X184032036Y-122626493D01*
X182406494Y-124252035D01*
X182351096Y-124280261D01*
X182335359Y-124281500D01*
X179601212Y-124281500D01*
X179542081Y-124262287D01*
X179507452Y-124217361D01*
X179435381Y-124032032D01*
X179434027Y-124028550D01*
X179304625Y-123802145D01*
X179143180Y-123597353D01*
X179107517Y-123563804D01*
X178955957Y-123421231D01*
X178953239Y-123418674D01*
X178950182Y-123416554D01*
X178950178Y-123416550D01*
X178836977Y-123338020D01*
X178738973Y-123270032D01*
X178505090Y-123154694D01*
X178501538Y-123153557D01*
X178501533Y-123153555D01*
X178380909Y-123114944D01*
X178256728Y-123075193D01*
X177999344Y-123033275D01*
X177995602Y-123033226D01*
X177966905Y-123032850D01*
X177738590Y-123029862D01*
X177628620Y-123044828D01*
X177483898Y-123064524D01*
X177483896Y-123064524D01*
X177480196Y-123065028D01*
X177476613Y-123066072D01*
X177476610Y-123066073D01*
X177445321Y-123075193D01*
X177229838Y-123138000D01*
X177226456Y-123139559D01*
X177226451Y-123139561D01*
X177190040Y-123156347D01*
X176993016Y-123247177D01*
X176989895Y-123249223D01*
X176989890Y-123249226D01*
X176834459Y-123351131D01*
X176774933Y-123390158D01*
X176580379Y-123563804D01*
X176577987Y-123566680D01*
X176416016Y-123761429D01*
X176416011Y-123761436D01*
X176413629Y-123764300D01*
X176278345Y-123987240D01*
X176177500Y-124227728D01*
X176113310Y-124480480D01*
X176112936Y-124484191D01*
X176112936Y-124484193D01*
X176109100Y-124522293D01*
X176087183Y-124739944D01*
X118295997Y-124739944D01*
X118280094Y-124525941D01*
X118270648Y-124484193D01*
X118223367Y-124275240D01*
X118223366Y-124275237D01*
X118222542Y-124271595D01*
X118221192Y-124268122D01*
X118221189Y-124268114D01*
X118129381Y-124032032D01*
X118128027Y-124028550D01*
X117998625Y-123802145D01*
X117837180Y-123597353D01*
X117801517Y-123563804D01*
X117649957Y-123421231D01*
X117647239Y-123418674D01*
X117644182Y-123416554D01*
X117644178Y-123416550D01*
X117530977Y-123338020D01*
X117432973Y-123270032D01*
X117199090Y-123154694D01*
X117195538Y-123153557D01*
X117195533Y-123153555D01*
X117074909Y-123114944D01*
X116950728Y-123075193D01*
X116693344Y-123033275D01*
X116689602Y-123033226D01*
X116660905Y-123032850D01*
X116432590Y-123029862D01*
X116322620Y-123044828D01*
X116177898Y-123064524D01*
X116177896Y-123064524D01*
X116174196Y-123065028D01*
X116170613Y-123066072D01*
X116170610Y-123066073D01*
X116139321Y-123075193D01*
X115923838Y-123138000D01*
X115920456Y-123139559D01*
X115920451Y-123139561D01*
X115884040Y-123156347D01*
X115687016Y-123247177D01*
X115683895Y-123249223D01*
X115683890Y-123249226D01*
X115528459Y-123351131D01*
X115468933Y-123390158D01*
X115274379Y-123563804D01*
X115271987Y-123566680D01*
X115110016Y-123761429D01*
X115110011Y-123761436D01*
X115107629Y-123764300D01*
X114972345Y-123987240D01*
X114970900Y-123990686D01*
X114874823Y-124219803D01*
X114834239Y-124266904D01*
X114782050Y-124281500D01*
X111796641Y-124281500D01*
X111737510Y-124262287D01*
X111725506Y-124252035D01*
X110099965Y-122626494D01*
X110071739Y-122571096D01*
X110070500Y-122555359D01*
X110070499Y-120935872D01*
X110070499Y-120930934D01*
X110055734Y-120856699D01*
X110050230Y-120848461D01*
X110004988Y-120780753D01*
X109999484Y-120772516D01*
X109915301Y-120716266D01*
X109866761Y-120706611D01*
X109845919Y-120702465D01*
X109845918Y-120702465D01*
X109841067Y-120701500D01*
X109571100Y-120701500D01*
X109511969Y-120682287D01*
X109475424Y-120631987D01*
X109470500Y-120600900D01*
X109470500Y-115873099D01*
X109489713Y-115813968D01*
X109540013Y-115777423D01*
X109571100Y-115772499D01*
X109841066Y-115772499D01*
X109876548Y-115765442D01*
X109905584Y-115759667D01*
X109905586Y-115759666D01*
X109915301Y-115757734D01*
X109933726Y-115745423D01*
X109991247Y-115706988D01*
X109999484Y-115701484D01*
X110055734Y-115617301D01*
X110070500Y-115543067D01*
X110070499Y-113918642D01*
X110089712Y-113859511D01*
X110099964Y-113847507D01*
X111979506Y-111967965D01*
X112034904Y-111939739D01*
X112050641Y-111938500D01*
X114786121Y-111938500D01*
X114845252Y-111957713D01*
X114880803Y-112005105D01*
X114932690Y-112149621D01*
X115056120Y-112379336D01*
X115058350Y-112382322D01*
X115058353Y-112382327D01*
X115142980Y-112495655D01*
X115212149Y-112588283D01*
X115397348Y-112771873D01*
X115482782Y-112834516D01*
X115604641Y-112923868D01*
X115604646Y-112923871D01*
X115607649Y-112926073D01*
X115610947Y-112927808D01*
X115835127Y-113045755D01*
X115835131Y-113045757D01*
X115838433Y-113047494D01*
X115841960Y-113048726D01*
X115841963Y-113048727D01*
X116081101Y-113132237D01*
X116084629Y-113133469D01*
X116340828Y-113182110D01*
X116344557Y-113182256D01*
X116344561Y-113182257D01*
X116510618Y-113188781D01*
X116601403Y-113192348D01*
X116694885Y-113182110D01*
X116856916Y-113164365D01*
X116856921Y-113164364D01*
X116860629Y-113163958D01*
X116981114Y-113132237D01*
X117109204Y-113098514D01*
X117109208Y-113098512D01*
X117112811Y-113097564D01*
X117352410Y-112994625D01*
X117574161Y-112857401D01*
X117607696Y-112829012D01*
X117770339Y-112691324D01*
X117773194Y-112688907D01*
X117859138Y-112590906D01*
X117942671Y-112495655D01*
X117942673Y-112495653D01*
X117945135Y-112492845D01*
X117947153Y-112489707D01*
X117947158Y-112489701D01*
X118084183Y-112276672D01*
X118084186Y-112276667D01*
X118086208Y-112273523D01*
X118087743Y-112270116D01*
X118087746Y-112270110D01*
X118191780Y-112039163D01*
X118191781Y-112039160D01*
X118193314Y-112035757D01*
X118264099Y-111784772D01*
X118265660Y-111772500D01*
X118296691Y-111528582D01*
X118296691Y-111528579D01*
X118297009Y-111526081D01*
X118299420Y-111434000D01*
X118280094Y-111173941D01*
X118270648Y-111132193D01*
X118223367Y-110923240D01*
X118223366Y-110923237D01*
X118222542Y-110919595D01*
X118221192Y-110916122D01*
X118221189Y-110916114D01*
X118129381Y-110680032D01*
X118128027Y-110676550D01*
X117998625Y-110450145D01*
X117837180Y-110245353D01*
X117801517Y-110211804D01*
X117649957Y-110069231D01*
X117647239Y-110066674D01*
X117644182Y-110064554D01*
X117644178Y-110064550D01*
X117530977Y-109986020D01*
X117432973Y-109918032D01*
X117199090Y-109802694D01*
X117195538Y-109801557D01*
X117195533Y-109801555D01*
X117074909Y-109762944D01*
X116950728Y-109723193D01*
X116693344Y-109681275D01*
X116689602Y-109681226D01*
X116660905Y-109680850D01*
X116432590Y-109677862D01*
X116322620Y-109692828D01*
X116177898Y-109712524D01*
X116177896Y-109712524D01*
X116174196Y-109713028D01*
X116170613Y-109714072D01*
X116170610Y-109714073D01*
X116139321Y-109723193D01*
X115923838Y-109786000D01*
X115920456Y-109787559D01*
X115920451Y-109787561D01*
X115884040Y-109804347D01*
X115687016Y-109895177D01*
X115683895Y-109897223D01*
X115683890Y-109897226D01*
X115528459Y-109999131D01*
X115468933Y-110038158D01*
X115274379Y-110211804D01*
X115271987Y-110214680D01*
X115110016Y-110409429D01*
X115110011Y-110409436D01*
X115107629Y-110412300D01*
X114972345Y-110635240D01*
X114970900Y-110638686D01*
X114874823Y-110867803D01*
X114834239Y-110914904D01*
X114782050Y-110929500D01*
X111867785Y-110929500D01*
X111855011Y-110928073D01*
X111855008Y-110928111D01*
X111847870Y-110927537D01*
X111840876Y-110925954D01*
X111806107Y-110928111D01*
X111786828Y-110929307D01*
X111780599Y-110929500D01*
X111763774Y-110929500D01*
X111760236Y-110930007D01*
X111760219Y-110930008D01*
X111752525Y-110931110D01*
X111744496Y-110931933D01*
X111703796Y-110934458D01*
X111703795Y-110934458D01*
X111696641Y-110934902D01*
X111686990Y-110938386D01*
X111667099Y-110943345D01*
X111664041Y-110943783D01*
X111664040Y-110943783D01*
X111656948Y-110944799D01*
X111613273Y-110964657D01*
X111605835Y-110967684D01*
X111560716Y-110983973D01*
X111554932Y-110988198D01*
X111554933Y-110988198D01*
X111552436Y-110990022D01*
X111534735Y-111000366D01*
X111525395Y-111004612D01*
X111489066Y-111035915D01*
X111482754Y-111040927D01*
X111474198Y-111047177D01*
X111474192Y-111047182D01*
X111471056Y-111049473D01*
X111459523Y-111061006D01*
X111454056Y-111066082D01*
X111421345Y-111094267D01*
X111421342Y-111094270D01*
X111415918Y-111098944D01*
X111412020Y-111104958D01*
X111412019Y-111104959D01*
X111411252Y-111106142D01*
X111397970Y-111122559D01*
X109786494Y-112734035D01*
X109731096Y-112762261D01*
X109715359Y-112763500D01*
X108267453Y-112763501D01*
X108090934Y-112763501D01*
X108055452Y-112770558D01*
X108026416Y-112776333D01*
X108026414Y-112776334D01*
X108016699Y-112778266D01*
X107932516Y-112834516D01*
X107876266Y-112918699D01*
X107861500Y-112992933D01*
X107861501Y-115543066D01*
X107876266Y-115617301D01*
X107881769Y-115625536D01*
X107881769Y-115625537D01*
X107905630Y-115661247D01*
X107932516Y-115701484D01*
X108016699Y-115757734D01*
X108065239Y-115767389D01*
X108086081Y-115771535D01*
X108086082Y-115771535D01*
X108090933Y-115772500D01*
X108360900Y-115772500D01*
X108420031Y-115791713D01*
X108456576Y-115842013D01*
X108461500Y-115873100D01*
X108461500Y-120600901D01*
X108442287Y-120660032D01*
X108391987Y-120696577D01*
X108360900Y-120701501D01*
X108090934Y-120701501D01*
X108055452Y-120708558D01*
X108026416Y-120714333D01*
X108026414Y-120714334D01*
X108016699Y-120716266D01*
X107932516Y-120772516D01*
X107876266Y-120856699D01*
X107861500Y-120930933D01*
X106604500Y-120930933D01*
X106604500Y-108992933D01*
X107861500Y-108992933D01*
X107861501Y-111543066D01*
X107876266Y-111617301D01*
X107881769Y-111625536D01*
X107881769Y-111625537D01*
X107899503Y-111652077D01*
X107932516Y-111701484D01*
X108016699Y-111757734D01*
X108065239Y-111767389D01*
X108086081Y-111771535D01*
X108086082Y-111771535D01*
X108090933Y-111772500D01*
X108095880Y-111772500D01*
X108966796Y-111772499D01*
X109841066Y-111772499D01*
X109876548Y-111765442D01*
X109905584Y-111759667D01*
X109905586Y-111759666D01*
X109915301Y-111757734D01*
X109942538Y-111739535D01*
X109991247Y-111706988D01*
X109999484Y-111701484D01*
X110055734Y-111617301D01*
X110070500Y-111543067D01*
X110070499Y-109658642D01*
X110089712Y-109599511D01*
X110099964Y-109587507D01*
X115655996Y-104031474D01*
X115711394Y-104003248D01*
X115773970Y-104013579D01*
X115807984Y-104031474D01*
X115835127Y-104045755D01*
X115835131Y-104045757D01*
X115838433Y-104047494D01*
X115841960Y-104048726D01*
X115841963Y-104048727D01*
X116081101Y-104132237D01*
X116084629Y-104133469D01*
X116340828Y-104182110D01*
X116344557Y-104182256D01*
X116344561Y-104182257D01*
X116510618Y-104188781D01*
X116601403Y-104192348D01*
X116694885Y-104182110D01*
X116856916Y-104164365D01*
X116856921Y-104164364D01*
X116860629Y-104163958D01*
X116981114Y-104132237D01*
X117109204Y-104098514D01*
X117109208Y-104098512D01*
X117112811Y-104097564D01*
X117352410Y-103994625D01*
X117574161Y-103857401D01*
X117773194Y-103688907D01*
X117859138Y-103590906D01*
X117942671Y-103495655D01*
X117942673Y-103495653D01*
X117945135Y-103492845D01*
X117947153Y-103489707D01*
X117947158Y-103489701D01*
X118084183Y-103276672D01*
X118084186Y-103276667D01*
X118086208Y-103273523D01*
X118087743Y-103270116D01*
X118087746Y-103270110D01*
X118191780Y-103039163D01*
X118191781Y-103039160D01*
X118193314Y-103035757D01*
X118264099Y-102784772D01*
X118280980Y-102652077D01*
X118296691Y-102528582D01*
X118296691Y-102528579D01*
X118297009Y-102526081D01*
X118299420Y-102434000D01*
X118280094Y-102173941D01*
X118270648Y-102132193D01*
X118223367Y-101923240D01*
X118223366Y-101923237D01*
X118222542Y-101919595D01*
X118221192Y-101916122D01*
X118221189Y-101916114D01*
X118129381Y-101680032D01*
X118128027Y-101676550D01*
X117998625Y-101450145D01*
X117837180Y-101245353D01*
X117801517Y-101211804D01*
X117649957Y-101069231D01*
X117647239Y-101066674D01*
X117644182Y-101064554D01*
X117644178Y-101064550D01*
X117530977Y-100986020D01*
X117432973Y-100918032D01*
X117199090Y-100802694D01*
X117195538Y-100801557D01*
X117195533Y-100801555D01*
X117074909Y-100762943D01*
X116950728Y-100723193D01*
X116693344Y-100681275D01*
X116689602Y-100681226D01*
X116660905Y-100680850D01*
X116432590Y-100677862D01*
X116322620Y-100692828D01*
X116177898Y-100712524D01*
X116177896Y-100712524D01*
X116174196Y-100713028D01*
X116170613Y-100714072D01*
X116170610Y-100714073D01*
X116139321Y-100723193D01*
X115923838Y-100786000D01*
X115920456Y-100787559D01*
X115920451Y-100787561D01*
X115884040Y-100804347D01*
X115687016Y-100895177D01*
X115683895Y-100897223D01*
X115683890Y-100897226D01*
X115528459Y-100999131D01*
X115468933Y-101038158D01*
X115274379Y-101211804D01*
X115271987Y-101214680D01*
X115110016Y-101409429D01*
X115110011Y-101409436D01*
X115107629Y-101412300D01*
X114972345Y-101635240D01*
X114871500Y-101875728D01*
X114807310Y-102128480D01*
X114806936Y-102132191D01*
X114806936Y-102132193D01*
X114803100Y-102170293D01*
X114781183Y-102387944D01*
X114793694Y-102648419D01*
X114844569Y-102904185D01*
X114932690Y-103149621D01*
X114934456Y-103152907D01*
X114934459Y-103152914D01*
X114959585Y-103199677D01*
X114970648Y-103260859D01*
X114942102Y-103318427D01*
X109526494Y-108734035D01*
X109471096Y-108762261D01*
X109455359Y-108763500D01*
X108239906Y-108763501D01*
X108090934Y-108763501D01*
X108055452Y-108770558D01*
X108026416Y-108776333D01*
X108026414Y-108776334D01*
X108016699Y-108778266D01*
X107932516Y-108834516D01*
X107876266Y-108918699D01*
X107861500Y-108992933D01*
X106604500Y-108992933D01*
X106604500Y-98907572D01*
X107521562Y-98907572D01*
X107522024Y-98910489D01*
X107524254Y-98913287D01*
X107578323Y-98958496D01*
X107583858Y-98962517D01*
X107826842Y-99114941D01*
X107832870Y-99118173D01*
X108094305Y-99236216D01*
X108100701Y-99238595D01*
X108375727Y-99320060D01*
X108382421Y-99321556D01*
X108665943Y-99364942D01*
X108672764Y-99365515D01*
X108959571Y-99370020D01*
X108966401Y-99369662D01*
X109251163Y-99335202D01*
X109257872Y-99333923D01*
X109535332Y-99261132D01*
X109541808Y-99258952D01*
X109806813Y-99149184D01*
X109812941Y-99146142D01*
X110060595Y-99001425D01*
X110066255Y-98997579D01*
X110170366Y-98915945D01*
X110177925Y-98904695D01*
X110177848Y-98902590D01*
X110175146Y-98898356D01*
X108861268Y-97584478D01*
X108849189Y-97578323D01*
X108844077Y-97579133D01*
X107527717Y-98895493D01*
X107521562Y-98907572D01*
X106604500Y-98907572D01*
X106604500Y-97909779D01*
X106623713Y-97850648D01*
X106674013Y-97814103D01*
X106736187Y-97814103D01*
X106786487Y-97850648D01*
X106800276Y-97877193D01*
X106858558Y-98047420D01*
X106861204Y-98053715D01*
X106990092Y-98309979D01*
X106993570Y-98315860D01*
X107145587Y-98537046D01*
X107156340Y-98545297D01*
X107156743Y-98545308D01*
X107163505Y-98541285D01*
X108479522Y-97225268D01*
X108484850Y-97214811D01*
X109214323Y-97214811D01*
X109215133Y-97219923D01*
X110531714Y-98536504D01*
X110543793Y-98542659D01*
X110545034Y-98542462D01*
X110549951Y-98538285D01*
X110670907Y-98373624D01*
X110674564Y-98367862D01*
X110811434Y-98115779D01*
X110814283Y-98109556D01*
X110915672Y-97841238D01*
X110917650Y-97834685D01*
X110981689Y-97555080D01*
X110982756Y-97548342D01*
X111008383Y-97261182D01*
X111008580Y-97257232D01*
X111009012Y-97215974D01*
X111008899Y-97212036D01*
X110989289Y-96924396D01*
X110988364Y-96917640D01*
X110930196Y-96636752D01*
X110928355Y-96630161D01*
X110832604Y-96359767D01*
X110829894Y-96353506D01*
X110698333Y-96098610D01*
X110694788Y-96092757D01*
X110553576Y-95891832D01*
X110542738Y-95883694D01*
X110542049Y-95883684D01*
X110535711Y-95887499D01*
X109220478Y-97202732D01*
X109214323Y-97214811D01*
X108484850Y-97214811D01*
X108485677Y-97213189D01*
X108484867Y-97208077D01*
X107167656Y-95890866D01*
X107155577Y-95884711D01*
X107154618Y-95884863D01*
X107149362Y-95889376D01*
X107017050Y-96073507D01*
X107013453Y-96079308D01*
X106879224Y-96332823D01*
X106876450Y-96339052D01*
X106799573Y-96549129D01*
X106761209Y-96598056D01*
X106701414Y-96615089D01*
X106643026Y-96593723D01*
X106608349Y-96542117D01*
X106604500Y-96514557D01*
X106604500Y-95523205D01*
X107522041Y-95523205D01*
X107522154Y-95525591D01*
X107524619Y-95529409D01*
X108838732Y-96843522D01*
X108850811Y-96849677D01*
X108855923Y-96848867D01*
X110171900Y-95532890D01*
X110178055Y-95520811D01*
X110177637Y-95518173D01*
X110175087Y-95515008D01*
X110103338Y-95456282D01*
X110097769Y-95452324D01*
X109853190Y-95302446D01*
X109847137Y-95299281D01*
X109584479Y-95183982D01*
X109578051Y-95181668D01*
X109302188Y-95103087D01*
X109295491Y-95101663D01*
X109011511Y-95061247D01*
X109004709Y-95060747D01*
X108717853Y-95059245D01*
X108711037Y-95059674D01*
X108426650Y-95097115D01*
X108419944Y-95098467D01*
X108143274Y-95174155D01*
X108136813Y-95176405D01*
X107872973Y-95288943D01*
X107866876Y-95292050D01*
X107620751Y-95439353D01*
X107615137Y-95443254D01*
X107529484Y-95511875D01*
X107522041Y-95523205D01*
X106604500Y-95523205D01*
X106604500Y-88321701D01*
X112567434Y-88321701D01*
X112567627Y-88322917D01*
X112571835Y-88327866D01*
X112674907Y-88403442D01*
X112681213Y-88407382D01*
X112905327Y-88525294D01*
X112912163Y-88528266D01*
X113151231Y-88611752D01*
X113158425Y-88613680D01*
X113407220Y-88660915D01*
X113414618Y-88661758D01*
X113667648Y-88671700D01*
X113675100Y-88671440D01*
X113926824Y-88643872D01*
X113934148Y-88642514D01*
X114179037Y-88578041D01*
X114186083Y-88575614D01*
X114418749Y-88475652D01*
X114425346Y-88472219D01*
X114640695Y-88338957D01*
X114646715Y-88334583D01*
X114647908Y-88333573D01*
X114655039Y-88322049D01*
X114654808Y-88318938D01*
X114652984Y-88316195D01*
X113621268Y-87284478D01*
X113609189Y-87278323D01*
X113604077Y-87279133D01*
X112573589Y-88309622D01*
X112567434Y-88321701D01*
X106604500Y-88321701D01*
X106604500Y-86871692D01*
X111851864Y-86871692D01*
X111864014Y-87124632D01*
X111864921Y-87132016D01*
X111914323Y-87380380D01*
X111916318Y-87387574D01*
X112001885Y-87625897D01*
X112004915Y-87632705D01*
X112124778Y-87855779D01*
X112128777Y-87862057D01*
X112193610Y-87948878D01*
X112204680Y-87956701D01*
X112206149Y-87956682D01*
X112211327Y-87953462D01*
X113239522Y-86925268D01*
X113244850Y-86914811D01*
X113974323Y-86914811D01*
X113975133Y-86919923D01*
X115008563Y-87953352D01*
X115020417Y-87959392D01*
X115027055Y-87953389D01*
X115153744Y-87756427D01*
X115157305Y-87749869D01*
X115261308Y-87518991D01*
X115263855Y-87511992D01*
X115332594Y-87268264D01*
X115334078Y-87260972D01*
X115366189Y-87008557D01*
X115366573Y-87003535D01*
X115368852Y-86916522D01*
X115368730Y-86911476D01*
X115365495Y-86867944D01*
X120851183Y-86867944D01*
X120851362Y-86871674D01*
X120851362Y-86871679D01*
X120858966Y-87029990D01*
X120863694Y-87128419D01*
X120914569Y-87384185D01*
X120915831Y-87387700D01*
X120998731Y-87618593D01*
X121002690Y-87629621D01*
X121126120Y-87859336D01*
X121128350Y-87862322D01*
X121128353Y-87862327D01*
X121264623Y-88044813D01*
X121282149Y-88068283D01*
X121467348Y-88251873D01*
X121564239Y-88322917D01*
X121674641Y-88403868D01*
X121674646Y-88403871D01*
X121677649Y-88406073D01*
X121714161Y-88425283D01*
X121905127Y-88525755D01*
X121905131Y-88525757D01*
X121908433Y-88527494D01*
X121911960Y-88528726D01*
X121911963Y-88528727D01*
X122038067Y-88572764D01*
X122087558Y-88610397D01*
X122105500Y-88667739D01*
X122105500Y-92520901D01*
X122086287Y-92580032D01*
X122035987Y-92616577D01*
X122004900Y-92621501D01*
X121438934Y-92621501D01*
X121404504Y-92628349D01*
X121374416Y-92634333D01*
X121374414Y-92634334D01*
X121364699Y-92636266D01*
X121356464Y-92641769D01*
X121356463Y-92641769D01*
X121304319Y-92676611D01*
X121280516Y-92692516D01*
X121224266Y-92776699D01*
X121222294Y-92786614D01*
X121212220Y-92837261D01*
X121209500Y-92850933D01*
X121209501Y-94601066D01*
X121216558Y-94636548D01*
X121222295Y-94665389D01*
X121224266Y-94675301D01*
X121229769Y-94683536D01*
X121229769Y-94683537D01*
X121274770Y-94750885D01*
X121280516Y-94759484D01*
X121364699Y-94815734D01*
X121413239Y-94825389D01*
X121434081Y-94829535D01*
X121434082Y-94829535D01*
X121438933Y-94830500D01*
X121443880Y-94830500D01*
X122715160Y-94830499D01*
X123989066Y-94830499D01*
X124024548Y-94823442D01*
X124053584Y-94817667D01*
X124053586Y-94817666D01*
X124063301Y-94815734D01*
X124147484Y-94759484D01*
X124203734Y-94675301D01*
X124218500Y-94601067D01*
X124218500Y-94596078D01*
X125210001Y-94596078D01*
X125210965Y-94605861D01*
X125222804Y-94665386D01*
X125230242Y-94683345D01*
X125275371Y-94750885D01*
X125289115Y-94764629D01*
X125356657Y-94809759D01*
X125374611Y-94817196D01*
X125434131Y-94829035D01*
X125443930Y-94830000D01*
X126444067Y-94830000D01*
X126456957Y-94825812D01*
X126460000Y-94821623D01*
X126460000Y-94814066D01*
X126968000Y-94814066D01*
X126972188Y-94826956D01*
X126976377Y-94829999D01*
X127984078Y-94829999D01*
X127993861Y-94829035D01*
X128053386Y-94817196D01*
X128071345Y-94809758D01*
X128138885Y-94764629D01*
X128152629Y-94750885D01*
X128197759Y-94683343D01*
X128205196Y-94665389D01*
X128217035Y-94605869D01*
X128218000Y-94596070D01*
X128218000Y-93995933D01*
X128213812Y-93983043D01*
X128209623Y-93980000D01*
X126983933Y-93980000D01*
X126971043Y-93984188D01*
X126968000Y-93988377D01*
X126968000Y-94814066D01*
X126460000Y-94814066D01*
X126460000Y-93995933D01*
X126455812Y-93983043D01*
X126451623Y-93980000D01*
X125225934Y-93980000D01*
X125213044Y-93984188D01*
X125210001Y-93988377D01*
X125210001Y-94596078D01*
X124218500Y-94596078D01*
X124218499Y-93456067D01*
X125210000Y-93456067D01*
X125214188Y-93468957D01*
X125218377Y-93472000D01*
X126444067Y-93472000D01*
X126456957Y-93467812D01*
X126460000Y-93463623D01*
X126460000Y-93456067D01*
X126968000Y-93456067D01*
X126972188Y-93468957D01*
X126976377Y-93472000D01*
X128202066Y-93472000D01*
X128214956Y-93467812D01*
X128217999Y-93463623D01*
X128217999Y-92855922D01*
X128217035Y-92846139D01*
X128205196Y-92786614D01*
X128197758Y-92768655D01*
X128152629Y-92701115D01*
X128138885Y-92687371D01*
X128071343Y-92642241D01*
X128053389Y-92634804D01*
X127993869Y-92622965D01*
X127984070Y-92622000D01*
X126983933Y-92622000D01*
X126971043Y-92626188D01*
X126968000Y-92630377D01*
X126968000Y-93456067D01*
X126460000Y-93456067D01*
X126460000Y-92637934D01*
X126455812Y-92625044D01*
X126451623Y-92622001D01*
X125443922Y-92622001D01*
X125434139Y-92622965D01*
X125374614Y-92634804D01*
X125356655Y-92642242D01*
X125289115Y-92687371D01*
X125275371Y-92701115D01*
X125230241Y-92768657D01*
X125222804Y-92786611D01*
X125210965Y-92846131D01*
X125210000Y-92855930D01*
X125210000Y-93456067D01*
X124218499Y-93456067D01*
X124218499Y-92850934D01*
X124211442Y-92815452D01*
X124205667Y-92786416D01*
X124205666Y-92786414D01*
X124203734Y-92776699D01*
X124198230Y-92768461D01*
X124152988Y-92700753D01*
X124147484Y-92692516D01*
X124063301Y-92636266D01*
X124006884Y-92625044D01*
X123993919Y-92622465D01*
X123993918Y-92622465D01*
X123989067Y-92621500D01*
X123215100Y-92621500D01*
X123155969Y-92602287D01*
X123119424Y-92551987D01*
X123114500Y-92520900D01*
X123114500Y-88672550D01*
X123133713Y-88613419D01*
X123181818Y-88577825D01*
X123182811Y-88577564D01*
X123193984Y-88572764D01*
X123418979Y-88476099D01*
X123418978Y-88476099D01*
X123422410Y-88474625D01*
X123644161Y-88337401D01*
X123655425Y-88327866D01*
X123840339Y-88171324D01*
X123843194Y-88168907D01*
X123905550Y-88097803D01*
X124012671Y-87975655D01*
X124012673Y-87975653D01*
X124015135Y-87972845D01*
X124017153Y-87969707D01*
X124017158Y-87969701D01*
X124154183Y-87756672D01*
X124154186Y-87756667D01*
X124156208Y-87753523D01*
X124157743Y-87750116D01*
X124157746Y-87750110D01*
X124261780Y-87519163D01*
X124261781Y-87519160D01*
X124263314Y-87515757D01*
X124302197Y-87377887D01*
X124333086Y-87268365D01*
X124333087Y-87268361D01*
X124334099Y-87264772D01*
X124334570Y-87261071D01*
X124366691Y-87008582D01*
X124366691Y-87008579D01*
X124367009Y-87006081D01*
X124367318Y-86994300D01*
X124367480Y-86988096D01*
X130277729Y-86988096D01*
X130278394Y-86994120D01*
X130278394Y-86994124D01*
X130281198Y-87019520D01*
X130295113Y-87145553D01*
X130297197Y-87151247D01*
X130345952Y-87284478D01*
X130349553Y-87294319D01*
X130352939Y-87299358D01*
X130434037Y-87420044D01*
X130437908Y-87425805D01*
X130442394Y-87429887D01*
X130442395Y-87429888D01*
X130460143Y-87446037D01*
X130526870Y-87506753D01*
X130530915Y-87510434D01*
X130561720Y-87564440D01*
X130563112Y-87573013D01*
X130567530Y-87610341D01*
X130570898Y-87617354D01*
X130571719Y-87619949D01*
X130572996Y-87627626D01*
X130576946Y-87634946D01*
X130597613Y-87673249D01*
X130599766Y-87677474D01*
X130617567Y-87714544D01*
X130622219Y-87724232D01*
X130625814Y-87728508D01*
X130627359Y-87730053D01*
X130628210Y-87730981D01*
X130629745Y-87732801D01*
X130632990Y-87738814D01*
X130645210Y-87750110D01*
X130672930Y-87775734D01*
X130675778Y-87778472D01*
X131663435Y-88766129D01*
X131676814Y-88782695D01*
X131683429Y-88792940D01*
X131689959Y-88798087D01*
X131689960Y-88798089D01*
X131710971Y-88814652D01*
X131716806Y-88819837D01*
X131719012Y-88821706D01*
X131721944Y-88824638D01*
X131738125Y-88836201D01*
X131741913Y-88839045D01*
X131754264Y-88848781D01*
X131782647Y-88871156D01*
X131789986Y-88873733D01*
X131792405Y-88874990D01*
X131798734Y-88879513D01*
X131806702Y-88881896D01*
X131806704Y-88881897D01*
X131840208Y-88891917D01*
X131847355Y-88894054D01*
X131848428Y-88894375D01*
X131852932Y-88895839D01*
X131901851Y-88913018D01*
X131907416Y-88913500D01*
X131909582Y-88913500D01*
X131910857Y-88913555D01*
X131913234Y-88913756D01*
X131919778Y-88915713D01*
X131974118Y-88913578D01*
X131978068Y-88913500D01*
X133158829Y-88913500D01*
X133217960Y-88932713D01*
X133242325Y-88957987D01*
X133243520Y-88959766D01*
X133243529Y-88959776D01*
X133246908Y-88964805D01*
X133364076Y-89071419D01*
X133369403Y-89074311D01*
X133369404Y-89074312D01*
X133390704Y-89085877D01*
X133503293Y-89147008D01*
X133509163Y-89148548D01*
X133650655Y-89185668D01*
X133650656Y-89185668D01*
X133656522Y-89187207D01*
X133728716Y-89188341D01*
X133808852Y-89189600D01*
X133808854Y-89189600D01*
X133814916Y-89189695D01*
X133820827Y-89188341D01*
X133820829Y-89188341D01*
X133963422Y-89155683D01*
X133963425Y-89155682D01*
X133969332Y-89154329D01*
X134110855Y-89083151D01*
X134177806Y-89025970D01*
X134226705Y-88984206D01*
X134226707Y-88984204D01*
X134231314Y-88980269D01*
X134276531Y-88917343D01*
X134320218Y-88856547D01*
X134320220Y-88856544D01*
X134323755Y-88851624D01*
X134327307Y-88842790D01*
X134360963Y-88759067D01*
X134382842Y-88704641D01*
X134383696Y-88698641D01*
X134383697Y-88698637D01*
X134403575Y-88558961D01*
X134430927Y-88503126D01*
X134485875Y-88474033D01*
X134547429Y-88482793D01*
X134574306Y-88502000D01*
X134838435Y-88766129D01*
X134851814Y-88782695D01*
X134858429Y-88792940D01*
X134864959Y-88798087D01*
X134864960Y-88798089D01*
X134885971Y-88814652D01*
X134891799Y-88819830D01*
X134894008Y-88821702D01*
X134896944Y-88824638D01*
X134900318Y-88827049D01*
X134900319Y-88827050D01*
X134913154Y-88836222D01*
X134916943Y-88839068D01*
X134951116Y-88866008D01*
X134951118Y-88866009D01*
X134957647Y-88871156D01*
X134964982Y-88873732D01*
X134967400Y-88874988D01*
X134973734Y-88879514D01*
X134981697Y-88881895D01*
X134981700Y-88881897D01*
X135017308Y-88892546D01*
X135023426Y-88894375D01*
X135023439Y-88894379D01*
X135027918Y-88895834D01*
X135076851Y-88913018D01*
X135082416Y-88913500D01*
X135084582Y-88913500D01*
X135085857Y-88913555D01*
X135088234Y-88913756D01*
X135094778Y-88915713D01*
X135149118Y-88913578D01*
X135153068Y-88913500D01*
X135792036Y-88913500D01*
X135847927Y-88930455D01*
X135912699Y-88973735D01*
X135910346Y-88977257D01*
X135942623Y-89004769D01*
X135957500Y-89057418D01*
X135957500Y-89636391D01*
X135938287Y-89695522D01*
X135937107Y-89696903D01*
X135936990Y-89696990D01*
X135855791Y-89806924D01*
X135834214Y-89868367D01*
X135812540Y-89930085D01*
X135810507Y-89935873D01*
X135809931Y-89941972D01*
X135809930Y-89941974D01*
X135807724Y-89965320D01*
X135807500Y-89967685D01*
X135807501Y-90626314D01*
X135810507Y-90658127D01*
X135855791Y-90787076D01*
X135860258Y-90793123D01*
X135860258Y-90793124D01*
X135884831Y-90826393D01*
X135936990Y-90897010D01*
X135943039Y-90901478D01*
X135994517Y-90939500D01*
X136046924Y-90978209D01*
X136140054Y-91010914D01*
X136170089Y-91021462D01*
X136170091Y-91021462D01*
X136175873Y-91023493D01*
X136181972Y-91024069D01*
X136181974Y-91024070D01*
X136205322Y-91026277D01*
X136205330Y-91026277D01*
X136207685Y-91026500D01*
X136228368Y-91026500D01*
X136549135Y-91026499D01*
X136608266Y-91045712D01*
X136620270Y-91055964D01*
X137236435Y-91672129D01*
X137249814Y-91688695D01*
X137256429Y-91698940D01*
X137262959Y-91704087D01*
X137262960Y-91704089D01*
X137283971Y-91720652D01*
X137289806Y-91725837D01*
X137292012Y-91727706D01*
X137294944Y-91730638D01*
X137303956Y-91737078D01*
X137311125Y-91742201D01*
X137314913Y-91745045D01*
X137322703Y-91751186D01*
X137355647Y-91777156D01*
X137362986Y-91779733D01*
X137365405Y-91780990D01*
X137371734Y-91785513D01*
X137379702Y-91787896D01*
X137379704Y-91787897D01*
X137413208Y-91797917D01*
X137420355Y-91800054D01*
X137421428Y-91800375D01*
X137425932Y-91801839D01*
X137474851Y-91819018D01*
X137480416Y-91819500D01*
X137482582Y-91819500D01*
X137483857Y-91819555D01*
X137486234Y-91819756D01*
X137492778Y-91821713D01*
X137547118Y-91819578D01*
X137551068Y-91819500D01*
X139699404Y-91819500D01*
X139758535Y-91838713D01*
X139795080Y-91889013D01*
X139795080Y-91951187D01*
X139781711Y-91977945D01*
X139753950Y-92017444D01*
X139696406Y-92165037D01*
X139675729Y-92322096D01*
X139676394Y-92328120D01*
X139676394Y-92328123D01*
X139680286Y-92363372D01*
X139683024Y-92388165D01*
X139683302Y-92390686D01*
X139670695Y-92451568D01*
X139654445Y-92472861D01*
X139318271Y-92809035D01*
X139262873Y-92837261D01*
X139247136Y-92838500D01*
X138889318Y-92838500D01*
X138830187Y-92819287D01*
X138806410Y-92794879D01*
X138800987Y-92786989D01*
X138797553Y-92781992D01*
X138793029Y-92777961D01*
X138793027Y-92777959D01*
X138683804Y-92680646D01*
X138683803Y-92680645D01*
X138679275Y-92676611D01*
X138539274Y-92602484D01*
X138385633Y-92563892D01*
X138379576Y-92563860D01*
X138379574Y-92563860D01*
X138302450Y-92563456D01*
X138227221Y-92563062D01*
X138221324Y-92564478D01*
X138221322Y-92564478D01*
X138089791Y-92596056D01*
X138073184Y-92600043D01*
X138067798Y-92602823D01*
X138067795Y-92602824D01*
X137991427Y-92642241D01*
X137932414Y-92672700D01*
X137898946Y-92701896D01*
X137820220Y-92770574D01*
X137813039Y-92776838D01*
X137809553Y-92781798D01*
X137770573Y-92837261D01*
X137721950Y-92906444D01*
X137664406Y-93054037D01*
X137643729Y-93211096D01*
X137644394Y-93217120D01*
X137644394Y-93217124D01*
X137645834Y-93230163D01*
X137661113Y-93368553D01*
X137663197Y-93374247D01*
X137701612Y-93479222D01*
X137715553Y-93517319D01*
X137718939Y-93522358D01*
X137766788Y-93593564D01*
X137803908Y-93648805D01*
X137921076Y-93755419D01*
X137926403Y-93758311D01*
X137926404Y-93758312D01*
X137947704Y-93769877D01*
X138060293Y-93831008D01*
X138066163Y-93832548D01*
X138207655Y-93869668D01*
X138207656Y-93869668D01*
X138213522Y-93871207D01*
X138285716Y-93872341D01*
X138365852Y-93873600D01*
X138365854Y-93873600D01*
X138371916Y-93873695D01*
X138377827Y-93872341D01*
X138377829Y-93872341D01*
X138520422Y-93839683D01*
X138520425Y-93839682D01*
X138526332Y-93838329D01*
X138667855Y-93767151D01*
X138734806Y-93709970D01*
X138783705Y-93668206D01*
X138783707Y-93668204D01*
X138788314Y-93664269D01*
X138803046Y-93643768D01*
X138806187Y-93639396D01*
X138856295Y-93602588D01*
X138887883Y-93597500D01*
X139394784Y-93597500D01*
X139415958Y-93599754D01*
X139419747Y-93600570D01*
X139419748Y-93600570D01*
X139427876Y-93602320D01*
X139436131Y-93601343D01*
X139462710Y-93598197D01*
X139470499Y-93597738D01*
X139473378Y-93597500D01*
X139477524Y-93597500D01*
X139481614Y-93596819D01*
X139481616Y-93596819D01*
X139497160Y-93594232D01*
X139501853Y-93593564D01*
X139545082Y-93588448D01*
X139545085Y-93588447D01*
X139553341Y-93587470D01*
X139560354Y-93584102D01*
X139562949Y-93583281D01*
X139570626Y-93582004D01*
X139616252Y-93557385D01*
X139620474Y-93555234D01*
X139661520Y-93535524D01*
X139661521Y-93535523D01*
X139667232Y-93532781D01*
X139671508Y-93529186D01*
X139673053Y-93527641D01*
X139673981Y-93526790D01*
X139675801Y-93525255D01*
X139681814Y-93522010D01*
X139718734Y-93482070D01*
X139721472Y-93479222D01*
X140188783Y-93011911D01*
X140244181Y-92983685D01*
X140261498Y-92982458D01*
X140397854Y-92984600D01*
X140397856Y-92984600D01*
X140402684Y-92984676D01*
X140402686Y-92984676D01*
X140403916Y-92984695D01*
X140403912Y-92984936D01*
X140461663Y-92997208D01*
X140482504Y-93013198D01*
X141427435Y-93958129D01*
X141440814Y-93974695D01*
X141447429Y-93984940D01*
X141453959Y-93990087D01*
X141453960Y-93990089D01*
X141474971Y-94006652D01*
X141480806Y-94011837D01*
X141483012Y-94013706D01*
X141485944Y-94016638D01*
X141496112Y-94023904D01*
X141502125Y-94028201D01*
X141505913Y-94031045D01*
X141513703Y-94037186D01*
X141546647Y-94063156D01*
X141553986Y-94065733D01*
X141556405Y-94066990D01*
X141562734Y-94071513D01*
X141570702Y-94073896D01*
X141570704Y-94073897D01*
X141604208Y-94083917D01*
X141611355Y-94086054D01*
X141612428Y-94086375D01*
X141616932Y-94087839D01*
X141665851Y-94105018D01*
X141671416Y-94105500D01*
X141673582Y-94105500D01*
X141674857Y-94105555D01*
X141677234Y-94105756D01*
X141683778Y-94107713D01*
X141738118Y-94105578D01*
X141742068Y-94105500D01*
X148538784Y-94105500D01*
X148559958Y-94107754D01*
X148563747Y-94108570D01*
X148563748Y-94108570D01*
X148571876Y-94110320D01*
X148580131Y-94109343D01*
X148599330Y-94107071D01*
X148606710Y-94106197D01*
X148614499Y-94105738D01*
X148617378Y-94105500D01*
X148621524Y-94105500D01*
X148625614Y-94104819D01*
X148625616Y-94104819D01*
X148641160Y-94102232D01*
X148645853Y-94101564D01*
X148689082Y-94096448D01*
X148689085Y-94096447D01*
X148697341Y-94095470D01*
X148704354Y-94092102D01*
X148706949Y-94091281D01*
X148714626Y-94090004D01*
X148760252Y-94065385D01*
X148764474Y-94063234D01*
X148805520Y-94043524D01*
X148805521Y-94043523D01*
X148811232Y-94040781D01*
X148815508Y-94037186D01*
X148817053Y-94035641D01*
X148817981Y-94034790D01*
X148819801Y-94033255D01*
X148825814Y-94030010D01*
X148862734Y-93990070D01*
X148865472Y-93987222D01*
X149838129Y-93014565D01*
X149854695Y-93001186D01*
X149864940Y-92994571D01*
X149872726Y-92984695D01*
X149886652Y-92967029D01*
X149891830Y-92961201D01*
X149893702Y-92958992D01*
X149896638Y-92956056D01*
X149908222Y-92939846D01*
X149911068Y-92936057D01*
X149938008Y-92901884D01*
X149938009Y-92901882D01*
X149943156Y-92895353D01*
X149945732Y-92888018D01*
X149946988Y-92885600D01*
X149951514Y-92879266D01*
X149953895Y-92871303D01*
X149953897Y-92871300D01*
X149966379Y-92829561D01*
X149967834Y-92825082D01*
X149985018Y-92776149D01*
X149985500Y-92770584D01*
X149985500Y-92768418D01*
X149985555Y-92767143D01*
X149985756Y-92764766D01*
X149987713Y-92758222D01*
X149985578Y-92703881D01*
X149985500Y-92699932D01*
X149985500Y-91656933D01*
X160947500Y-91656933D01*
X160947501Y-94207066D01*
X160962266Y-94281301D01*
X160967769Y-94289536D01*
X160967769Y-94289537D01*
X161013012Y-94357247D01*
X161018516Y-94365484D01*
X161102699Y-94421734D01*
X161151239Y-94431389D01*
X161172081Y-94435535D01*
X161172082Y-94435535D01*
X161176933Y-94436500D01*
X161181880Y-94436500D01*
X162052796Y-94436499D01*
X162927066Y-94436499D01*
X162962548Y-94429442D01*
X162991584Y-94423667D01*
X162991586Y-94423666D01*
X163001301Y-94421734D01*
X163085484Y-94365484D01*
X163141734Y-94281301D01*
X163156500Y-94207067D01*
X163156500Y-93537100D01*
X163175713Y-93477969D01*
X163226013Y-93441424D01*
X163257100Y-93436500D01*
X168093359Y-93436500D01*
X168152490Y-93455713D01*
X168164494Y-93465965D01*
X176246964Y-101548435D01*
X176275190Y-101603833D01*
X176268603Y-101658472D01*
X176177500Y-101875728D01*
X176113310Y-102128480D01*
X176112936Y-102132191D01*
X176112936Y-102132193D01*
X176109100Y-102170293D01*
X176087183Y-102387944D01*
X176099694Y-102648419D01*
X176150569Y-102904185D01*
X176238690Y-103149621D01*
X176362120Y-103379336D01*
X176364350Y-103382322D01*
X176364353Y-103382327D01*
X176448980Y-103495655D01*
X176518149Y-103588283D01*
X176703348Y-103771873D01*
X176816701Y-103854987D01*
X176910641Y-103923868D01*
X176910646Y-103923871D01*
X176913649Y-103926073D01*
X176916947Y-103927808D01*
X177141127Y-104045755D01*
X177141131Y-104045757D01*
X177144433Y-104047494D01*
X177147960Y-104048726D01*
X177147963Y-104048727D01*
X177387101Y-104132237D01*
X177390629Y-104133469D01*
X177646828Y-104182110D01*
X177650557Y-104182256D01*
X177650561Y-104182257D01*
X177816618Y-104188781D01*
X177907403Y-104192348D01*
X178000885Y-104182110D01*
X178162916Y-104164365D01*
X178162921Y-104164364D01*
X178166629Y-104163958D01*
X178287114Y-104132237D01*
X178415204Y-104098514D01*
X178415208Y-104098512D01*
X178418811Y-104097564D01*
X178620075Y-104011095D01*
X178681989Y-104005407D01*
X178730921Y-104032391D01*
X184286035Y-109587505D01*
X184314261Y-109642903D01*
X184315500Y-109658640D01*
X184315501Y-111511066D01*
X184330266Y-111585301D01*
X184335769Y-111593536D01*
X184335769Y-111593537D01*
X184374885Y-111652077D01*
X184386516Y-111669484D01*
X184470699Y-111725734D01*
X184519239Y-111735389D01*
X184540081Y-111739535D01*
X184540082Y-111739535D01*
X184544933Y-111740500D01*
X184549880Y-111740500D01*
X185420796Y-111740499D01*
X186295066Y-111740499D01*
X186330548Y-111733442D01*
X186359584Y-111727667D01*
X186359586Y-111727666D01*
X186369301Y-111725734D01*
X186453484Y-111669484D01*
X186509734Y-111585301D01*
X186524500Y-111511067D01*
X186524499Y-108960934D01*
X186509734Y-108886699D01*
X186453484Y-108802516D01*
X186369301Y-108746266D01*
X186320761Y-108736611D01*
X186299919Y-108732465D01*
X186299918Y-108732465D01*
X186295067Y-108731500D01*
X186142456Y-108731500D01*
X184898642Y-108731501D01*
X184839511Y-108712288D01*
X184827507Y-108702036D01*
X179443434Y-103317963D01*
X179415208Y-103262565D01*
X179422846Y-103205510D01*
X179497780Y-103039163D01*
X179497781Y-103039160D01*
X179499314Y-103035757D01*
X179570099Y-102784772D01*
X179586980Y-102652077D01*
X179602691Y-102528582D01*
X179602691Y-102528579D01*
X179603009Y-102526081D01*
X179605420Y-102434000D01*
X179586094Y-102173941D01*
X179576648Y-102132193D01*
X179529367Y-101923240D01*
X179529366Y-101923237D01*
X179528542Y-101919595D01*
X179527192Y-101916122D01*
X179527189Y-101916114D01*
X179435381Y-101680032D01*
X179434027Y-101676550D01*
X179304625Y-101450145D01*
X179143180Y-101245353D01*
X179107517Y-101211804D01*
X178955957Y-101069231D01*
X178953239Y-101066674D01*
X178950182Y-101064554D01*
X178950178Y-101064550D01*
X178836977Y-100986020D01*
X178738973Y-100918032D01*
X178505090Y-100802694D01*
X178501538Y-100801557D01*
X178501533Y-100801555D01*
X178380909Y-100762943D01*
X178256728Y-100723193D01*
X177999344Y-100681275D01*
X177995602Y-100681226D01*
X177966905Y-100680850D01*
X177738590Y-100677862D01*
X177628620Y-100692828D01*
X177483898Y-100712524D01*
X177483896Y-100712524D01*
X177480196Y-100713028D01*
X177476613Y-100714072D01*
X177476610Y-100714073D01*
X177445321Y-100723193D01*
X177229838Y-100786000D01*
X177075602Y-100857104D01*
X177013860Y-100864412D01*
X176962351Y-100836880D01*
X175033043Y-98907572D01*
X184521562Y-98907572D01*
X184522024Y-98910489D01*
X184524254Y-98913287D01*
X184578323Y-98958496D01*
X184583858Y-98962517D01*
X184826842Y-99114941D01*
X184832870Y-99118173D01*
X185094305Y-99236216D01*
X185100701Y-99238595D01*
X185375727Y-99320060D01*
X185382421Y-99321556D01*
X185665943Y-99364942D01*
X185672764Y-99365515D01*
X185959571Y-99370020D01*
X185966401Y-99369662D01*
X186251163Y-99335202D01*
X186257872Y-99333923D01*
X186535332Y-99261132D01*
X186541808Y-99258952D01*
X186806813Y-99149184D01*
X186812941Y-99146142D01*
X187060595Y-99001425D01*
X187066255Y-98997579D01*
X187170366Y-98915945D01*
X187177925Y-98904695D01*
X187177848Y-98902590D01*
X187175146Y-98898356D01*
X185861268Y-97584478D01*
X185849189Y-97578323D01*
X185844077Y-97579133D01*
X184527717Y-98895493D01*
X184521562Y-98907572D01*
X175033043Y-98907572D01*
X173320290Y-97194819D01*
X183691283Y-97194819D01*
X183707795Y-97481176D01*
X183708652Y-97487962D01*
X183763874Y-97769433D01*
X183765646Y-97776046D01*
X183858558Y-98047420D01*
X183861204Y-98053715D01*
X183990092Y-98309979D01*
X183993570Y-98315860D01*
X184145587Y-98537046D01*
X184156340Y-98545297D01*
X184156743Y-98545308D01*
X184163505Y-98541285D01*
X185479522Y-97225268D01*
X185485677Y-97213189D01*
X185484867Y-97208077D01*
X184167656Y-95890866D01*
X184155577Y-95884711D01*
X184154618Y-95884863D01*
X184149362Y-95889376D01*
X184017050Y-96073507D01*
X184013453Y-96079308D01*
X183879224Y-96332823D01*
X183876450Y-96339052D01*
X183777870Y-96608435D01*
X183775965Y-96614991D01*
X183714857Y-96895258D01*
X183713859Y-96902015D01*
X183691354Y-97187970D01*
X183691283Y-97194819D01*
X173320290Y-97194819D01*
X171648676Y-95523205D01*
X184522041Y-95523205D01*
X184522154Y-95525591D01*
X184524619Y-95529409D01*
X185838732Y-96843522D01*
X185850811Y-96849677D01*
X185855923Y-96848867D01*
X187171900Y-95532890D01*
X187178055Y-95520811D01*
X187177637Y-95518173D01*
X187175087Y-95515008D01*
X187103338Y-95456282D01*
X187097769Y-95452324D01*
X186853190Y-95302446D01*
X186847137Y-95299281D01*
X186584479Y-95183982D01*
X186578051Y-95181668D01*
X186302188Y-95103087D01*
X186295491Y-95101663D01*
X186011511Y-95061247D01*
X186004709Y-95060747D01*
X185717853Y-95059245D01*
X185711037Y-95059674D01*
X185426650Y-95097115D01*
X185419944Y-95098467D01*
X185143274Y-95174155D01*
X185136813Y-95176405D01*
X184872973Y-95288943D01*
X184866876Y-95292050D01*
X184620751Y-95439353D01*
X184615137Y-95443254D01*
X184529484Y-95511875D01*
X184522041Y-95523205D01*
X171648676Y-95523205D01*
X168748668Y-92623197D01*
X168740645Y-92613155D01*
X168740616Y-92613180D01*
X168735972Y-92607724D01*
X168732147Y-92601661D01*
X168691558Y-92565814D01*
X168687018Y-92561547D01*
X168675120Y-92549649D01*
X168666023Y-92542831D01*
X168659773Y-92537742D01*
X168623830Y-92505999D01*
X168614541Y-92501638D01*
X168596971Y-92491080D01*
X168594504Y-92489231D01*
X168594500Y-92489229D01*
X168588764Y-92484930D01*
X168582053Y-92482414D01*
X168582051Y-92482413D01*
X168543866Y-92468098D01*
X168536427Y-92464963D01*
X168499506Y-92447629D01*
X168493018Y-92444583D01*
X168485941Y-92443481D01*
X168485937Y-92443480D01*
X168482889Y-92443006D01*
X168463048Y-92437801D01*
X168453448Y-92434202D01*
X168413701Y-92431249D01*
X168405643Y-92430650D01*
X168397618Y-92429729D01*
X168387144Y-92428098D01*
X168387142Y-92428098D01*
X168383303Y-92427500D01*
X168366984Y-92427500D01*
X168359529Y-92427223D01*
X168316482Y-92424024D01*
X168316480Y-92424024D01*
X168309333Y-92423493D01*
X168300948Y-92425283D01*
X168279946Y-92427500D01*
X163257099Y-92427500D01*
X163197968Y-92408287D01*
X163161423Y-92357987D01*
X163156499Y-92326900D01*
X163156499Y-91656934D01*
X163147562Y-91612001D01*
X163143667Y-91592416D01*
X163143666Y-91592414D01*
X163141734Y-91582699D01*
X163136230Y-91574461D01*
X163090988Y-91506753D01*
X163085484Y-91498516D01*
X163001301Y-91442266D01*
X162945000Y-91431067D01*
X162931919Y-91428465D01*
X162931918Y-91428465D01*
X162927067Y-91427500D01*
X162922120Y-91427500D01*
X162051204Y-91427501D01*
X161176934Y-91427501D01*
X161141452Y-91434558D01*
X161112416Y-91440333D01*
X161112414Y-91440334D01*
X161102699Y-91442266D01*
X161018516Y-91498516D01*
X160962266Y-91582699D01*
X160947500Y-91656933D01*
X149985500Y-91656933D01*
X149985500Y-90750216D01*
X149987754Y-90729042D01*
X149988570Y-90725253D01*
X149988570Y-90725252D01*
X149990320Y-90717124D01*
X149986197Y-90682290D01*
X149985738Y-90674501D01*
X149985500Y-90671622D01*
X149985500Y-90667476D01*
X149982930Y-90652035D01*
X149982232Y-90647840D01*
X149981564Y-90643147D01*
X149976448Y-90599918D01*
X149976447Y-90599915D01*
X149975470Y-90591659D01*
X149972102Y-90584646D01*
X149971281Y-90582051D01*
X149970004Y-90574374D01*
X149945385Y-90528748D01*
X149943234Y-90524526D01*
X149923524Y-90483480D01*
X149923523Y-90483479D01*
X149920781Y-90477768D01*
X149917186Y-90473492D01*
X149915641Y-90471947D01*
X149914790Y-90471019D01*
X149913255Y-90469199D01*
X149910010Y-90463186D01*
X149870070Y-90426266D01*
X149867222Y-90423528D01*
X149493565Y-90049871D01*
X149480186Y-90033305D01*
X149473571Y-90023060D01*
X149467041Y-90017913D01*
X149467040Y-90017911D01*
X149446029Y-90001348D01*
X149440201Y-89996170D01*
X149437992Y-89994298D01*
X149435056Y-89991362D01*
X149418846Y-89979778D01*
X149415057Y-89976932D01*
X149380884Y-89949992D01*
X149380882Y-89949991D01*
X149374353Y-89944844D01*
X149367018Y-89942268D01*
X149364600Y-89941012D01*
X149358266Y-89936486D01*
X149350303Y-89934105D01*
X149350300Y-89934103D01*
X149308561Y-89921621D01*
X149304082Y-89920166D01*
X149255149Y-89902982D01*
X149249584Y-89902500D01*
X149247418Y-89902500D01*
X149246143Y-89902445D01*
X149243766Y-89902244D01*
X149237222Y-89900287D01*
X149184152Y-89902372D01*
X149182881Y-89902422D01*
X149178932Y-89902500D01*
X149024249Y-89902500D01*
X149004623Y-89900567D01*
X148968919Y-89893465D01*
X148968918Y-89893465D01*
X148964067Y-89892500D01*
X148959120Y-89892500D01*
X148568641Y-89892501D01*
X148173934Y-89892501D01*
X148151767Y-89896910D01*
X148109416Y-89905333D01*
X148109414Y-89905334D01*
X148099699Y-89907266D01*
X148091464Y-89912769D01*
X148091463Y-89912769D01*
X148047998Y-89941812D01*
X148015516Y-89963516D01*
X148010012Y-89971753D01*
X148007057Y-89974708D01*
X147951659Y-90002934D01*
X147926058Y-90003688D01*
X147919075Y-90003000D01*
X147843933Y-90003000D01*
X147831043Y-90007188D01*
X147828000Y-90011377D01*
X147828000Y-91845066D01*
X147832188Y-91857956D01*
X147836377Y-91860999D01*
X147919074Y-91860999D01*
X147926057Y-91860311D01*
X147986787Y-91873633D01*
X148007056Y-91889291D01*
X148010012Y-91892247D01*
X148015516Y-91900484D01*
X148099699Y-91956734D01*
X148109419Y-91958667D01*
X148118570Y-91962458D01*
X148118013Y-91963802D01*
X148162774Y-91988871D01*
X148188803Y-92045335D01*
X148189500Y-92057157D01*
X148189500Y-92151136D01*
X148170287Y-92210267D01*
X148160035Y-92222271D01*
X147700271Y-92682035D01*
X147644873Y-92710261D01*
X147629136Y-92711500D01*
X144978864Y-92711500D01*
X144919733Y-92692287D01*
X144907729Y-92682035D01*
X144553965Y-92328271D01*
X144525739Y-92272873D01*
X144524500Y-92257136D01*
X144524500Y-91737078D01*
X145955001Y-91737078D01*
X145955965Y-91746861D01*
X145967804Y-91806386D01*
X145975242Y-91824345D01*
X146020371Y-91891885D01*
X146034115Y-91905629D01*
X146101657Y-91950759D01*
X146119611Y-91958196D01*
X146179131Y-91970035D01*
X146188930Y-91971000D01*
X146428067Y-91971000D01*
X146440957Y-91966812D01*
X146444000Y-91962623D01*
X146444000Y-91732933D01*
X146439812Y-91720043D01*
X146435623Y-91717000D01*
X145970934Y-91717000D01*
X145958044Y-91721188D01*
X145955001Y-91725377D01*
X145955001Y-91737078D01*
X144524500Y-91737078D01*
X144524500Y-91491216D01*
X144526754Y-91470042D01*
X144527570Y-91466253D01*
X144527570Y-91466252D01*
X144529320Y-91458124D01*
X144525272Y-91423925D01*
X144537402Y-91362945D01*
X144583057Y-91320741D01*
X144625175Y-91311500D01*
X145855373Y-91311500D01*
X145914504Y-91330713D01*
X145951049Y-91381013D01*
X145955489Y-91421957D01*
X145955000Y-91426924D01*
X145955000Y-91431067D01*
X145959188Y-91443957D01*
X145963377Y-91447000D01*
X146613400Y-91447000D01*
X146672531Y-91466213D01*
X146709076Y-91516513D01*
X146714000Y-91547600D01*
X146714000Y-91955066D01*
X146718188Y-91967956D01*
X146722377Y-91970999D01*
X146969078Y-91970999D01*
X146978861Y-91970035D01*
X147038386Y-91958196D01*
X147056345Y-91950758D01*
X147123885Y-91905629D01*
X147140286Y-91889228D01*
X147195684Y-91861002D01*
X147221280Y-91860247D01*
X147228927Y-91861000D01*
X147304067Y-91861000D01*
X147316957Y-91856812D01*
X147320000Y-91852623D01*
X147320000Y-90018934D01*
X147315812Y-90006044D01*
X147311623Y-90003001D01*
X147228926Y-90003001D01*
X147221943Y-90003689D01*
X147161213Y-89990367D01*
X147140944Y-89974709D01*
X147137988Y-89971753D01*
X147132484Y-89963516D01*
X147048301Y-89907266D01*
X147014623Y-89900567D01*
X147005474Y-89898747D01*
X146951227Y-89868367D01*
X146925197Y-89811904D01*
X146924500Y-89800080D01*
X146924500Y-87895932D01*
X146943713Y-87836801D01*
X146989789Y-87801733D01*
X147002635Y-87796917D01*
X147008367Y-87792621D01*
X147008369Y-87792620D01*
X147106808Y-87718843D01*
X147112544Y-87714544D01*
X147116843Y-87708808D01*
X147190620Y-87610369D01*
X147190621Y-87610367D01*
X147194917Y-87604635D01*
X147203141Y-87582699D01*
X147226068Y-87521538D01*
X147264815Y-87472914D01*
X147324742Y-87456351D01*
X147382960Y-87478175D01*
X147414466Y-87521539D01*
X147443011Y-87597684D01*
X147449821Y-87610124D01*
X147523517Y-87708455D01*
X147533545Y-87718483D01*
X147631876Y-87792179D01*
X147644314Y-87798988D01*
X147760185Y-87842426D01*
X147772347Y-87845317D01*
X147821956Y-87850707D01*
X147825397Y-87850893D01*
X147837957Y-87846812D01*
X147841000Y-87842623D01*
X147841000Y-87835067D01*
X148349000Y-87835067D01*
X148353188Y-87847957D01*
X148357377Y-87851000D01*
X148362624Y-87851000D01*
X148368044Y-87850707D01*
X148417653Y-87845317D01*
X148429815Y-87842426D01*
X148545686Y-87798988D01*
X148558124Y-87792179D01*
X148656455Y-87718483D01*
X148666483Y-87708455D01*
X148705097Y-87656933D01*
X160947500Y-87656933D01*
X160947501Y-90207066D01*
X160962266Y-90281301D01*
X160967769Y-90289536D01*
X160967769Y-90289537D01*
X160968723Y-90290965D01*
X161018516Y-90365484D01*
X161102699Y-90421734D01*
X161151239Y-90431389D01*
X161172081Y-90435535D01*
X161172082Y-90435535D01*
X161176933Y-90436500D01*
X161181880Y-90436500D01*
X162052796Y-90436499D01*
X162927066Y-90436499D01*
X162962548Y-90429442D01*
X162991584Y-90423667D01*
X162991586Y-90423666D01*
X163001301Y-90421734D01*
X163085484Y-90365484D01*
X163141734Y-90281301D01*
X163156500Y-90207067D01*
X163156500Y-89537100D01*
X163175713Y-89477969D01*
X163226013Y-89441424D01*
X163257100Y-89436500D01*
X168691359Y-89436500D01*
X168750490Y-89455713D01*
X168762494Y-89465965D01*
X170791332Y-91494803D01*
X170799355Y-91504845D01*
X170799384Y-91504820D01*
X170804028Y-91510276D01*
X170807853Y-91516339D01*
X170848441Y-91552185D01*
X170852982Y-91556453D01*
X170864880Y-91568351D01*
X170873981Y-91575172D01*
X170880211Y-91580244D01*
X170916170Y-91612001D01*
X170925451Y-91616358D01*
X170943033Y-91626923D01*
X170951235Y-91633070D01*
X170996153Y-91649909D01*
X171003570Y-91653035D01*
X171040493Y-91670371D01*
X171040497Y-91670372D01*
X171046982Y-91673417D01*
X171056523Y-91674902D01*
X171057111Y-91674994D01*
X171076952Y-91680199D01*
X171086552Y-91683798D01*
X171134367Y-91687352D01*
X171142369Y-91688270D01*
X171156697Y-91690500D01*
X171173016Y-91690500D01*
X171180471Y-91690777D01*
X171223517Y-91693976D01*
X171223519Y-91693976D01*
X171230666Y-91694507D01*
X171239052Y-91692717D01*
X171260053Y-91690500D01*
X176690215Y-91690500D01*
X176702989Y-91691927D01*
X176702992Y-91691889D01*
X176710130Y-91692463D01*
X176717124Y-91694046D01*
X176771172Y-91690693D01*
X176777401Y-91690500D01*
X176794226Y-91690500D01*
X176797764Y-91689993D01*
X176797781Y-91689992D01*
X176805475Y-91688890D01*
X176813504Y-91688067D01*
X176854204Y-91685542D01*
X176854205Y-91685542D01*
X176861359Y-91685098D01*
X176871010Y-91681614D01*
X176890901Y-91676655D01*
X176893962Y-91676217D01*
X176893965Y-91676216D01*
X176901052Y-91675201D01*
X176907572Y-91672237D01*
X176907574Y-91672236D01*
X176944701Y-91655356D01*
X176952178Y-91652312D01*
X176970754Y-91645606D01*
X176997284Y-91636028D01*
X177005564Y-91629979D01*
X177023267Y-91619634D01*
X177026080Y-91618355D01*
X177026082Y-91618354D01*
X177032605Y-91615388D01*
X177068939Y-91584080D01*
X177075247Y-91579072D01*
X177083810Y-91572817D01*
X177083814Y-91572813D01*
X177086944Y-91570527D01*
X177098477Y-91558994D01*
X177103944Y-91553918D01*
X177136655Y-91525733D01*
X177136658Y-91525730D01*
X177142082Y-91521056D01*
X177145981Y-91515041D01*
X177146748Y-91513858D01*
X177160030Y-91497441D01*
X180145996Y-88511475D01*
X180201394Y-88483249D01*
X180263971Y-88493580D01*
X180325121Y-88525752D01*
X180325127Y-88525755D01*
X180328433Y-88527494D01*
X180331960Y-88528726D01*
X180331963Y-88528727D01*
X180527228Y-88596916D01*
X180574629Y-88613469D01*
X180830828Y-88662110D01*
X180834557Y-88662256D01*
X180834561Y-88662257D01*
X181000618Y-88668781D01*
X181091403Y-88672348D01*
X181184885Y-88662110D01*
X181346916Y-88644365D01*
X181346921Y-88644364D01*
X181350629Y-88643958D01*
X181478103Y-88610397D01*
X181599204Y-88578514D01*
X181599208Y-88578512D01*
X181602811Y-88577564D01*
X181842410Y-88474625D01*
X182064161Y-88337401D01*
X182075425Y-88327866D01*
X182260339Y-88171324D01*
X182263194Y-88168907D01*
X182325550Y-88097803D01*
X182432671Y-87975655D01*
X182432673Y-87975653D01*
X182435135Y-87972845D01*
X182437153Y-87969707D01*
X182437158Y-87969701D01*
X182574183Y-87756672D01*
X182574186Y-87756667D01*
X182576208Y-87753523D01*
X182577743Y-87750116D01*
X182577746Y-87750110D01*
X182681780Y-87519163D01*
X182681781Y-87519160D01*
X182683314Y-87515757D01*
X182722197Y-87377887D01*
X182753086Y-87268365D01*
X182753087Y-87268361D01*
X182754099Y-87264772D01*
X182754570Y-87261071D01*
X182786691Y-87008582D01*
X182786691Y-87008579D01*
X182787009Y-87006081D01*
X182787318Y-86994300D01*
X182789354Y-86916522D01*
X182789354Y-86916521D01*
X182789420Y-86914000D01*
X182770094Y-86653941D01*
X182769117Y-86649620D01*
X182713367Y-86403240D01*
X182713366Y-86403237D01*
X182712542Y-86399595D01*
X182711192Y-86396122D01*
X182711189Y-86396114D01*
X182619381Y-86160032D01*
X182618027Y-86156550D01*
X182488625Y-85930145D01*
X182327180Y-85725353D01*
X182308935Y-85708189D01*
X182139957Y-85549231D01*
X182137239Y-85546674D01*
X182134182Y-85544554D01*
X182134178Y-85544550D01*
X182010476Y-85458735D01*
X181922973Y-85398032D01*
X181689090Y-85282694D01*
X181685538Y-85281557D01*
X181685533Y-85281555D01*
X181494242Y-85220323D01*
X181440728Y-85203193D01*
X181183344Y-85161275D01*
X181179602Y-85161226D01*
X181150905Y-85160850D01*
X180922590Y-85157862D01*
X180812620Y-85172828D01*
X180667898Y-85192524D01*
X180667896Y-85192524D01*
X180664196Y-85193028D01*
X180660613Y-85194072D01*
X180660610Y-85194073D01*
X180603888Y-85210606D01*
X180413838Y-85266000D01*
X180410456Y-85267559D01*
X180410451Y-85267561D01*
X180299853Y-85318548D01*
X180177016Y-85375177D01*
X180173895Y-85377223D01*
X180173890Y-85377226D01*
X180057469Y-85453555D01*
X179958933Y-85518158D01*
X179764379Y-85691804D01*
X179761987Y-85694680D01*
X179600016Y-85889429D01*
X179600011Y-85889436D01*
X179597629Y-85892300D01*
X179462345Y-86115240D01*
X179361500Y-86355728D01*
X179334603Y-86461635D01*
X179299617Y-86599398D01*
X179297310Y-86608480D01*
X179296936Y-86612191D01*
X179296936Y-86612193D01*
X179271868Y-86861146D01*
X179271183Y-86867944D01*
X179271362Y-86871674D01*
X179271362Y-86871679D01*
X179278966Y-87029990D01*
X179283694Y-87128419D01*
X179334569Y-87384185D01*
X179335831Y-87387700D01*
X179418731Y-87618593D01*
X179422690Y-87629621D01*
X179424456Y-87632907D01*
X179424459Y-87632914D01*
X179449585Y-87679677D01*
X179460648Y-87740859D01*
X179432102Y-87798427D01*
X176578494Y-90652035D01*
X176523096Y-90680261D01*
X176507359Y-90681500D01*
X171446641Y-90681500D01*
X171387510Y-90662287D01*
X171375506Y-90652035D01*
X169346668Y-88623197D01*
X169338645Y-88613155D01*
X169338616Y-88613180D01*
X169333972Y-88607724D01*
X169330147Y-88601661D01*
X169289558Y-88565814D01*
X169285018Y-88561547D01*
X169273120Y-88549649D01*
X169264023Y-88542831D01*
X169257773Y-88537742D01*
X169221830Y-88505999D01*
X169212541Y-88501638D01*
X169194971Y-88491080D01*
X169192504Y-88489231D01*
X169192500Y-88489229D01*
X169186764Y-88484930D01*
X169180053Y-88482414D01*
X169180051Y-88482413D01*
X169141866Y-88468098D01*
X169134427Y-88464963D01*
X169097506Y-88447629D01*
X169091018Y-88444583D01*
X169083941Y-88443481D01*
X169083937Y-88443480D01*
X169080889Y-88443006D01*
X169061048Y-88437801D01*
X169051448Y-88434202D01*
X169011701Y-88431249D01*
X169003643Y-88430650D01*
X168995618Y-88429729D01*
X168985144Y-88428098D01*
X168985142Y-88428098D01*
X168981303Y-88427500D01*
X168964984Y-88427500D01*
X168957529Y-88427223D01*
X168914482Y-88424024D01*
X168914480Y-88424024D01*
X168907333Y-88423493D01*
X168898948Y-88425283D01*
X168877946Y-88427500D01*
X163257099Y-88427500D01*
X163197968Y-88408287D01*
X163161423Y-88357987D01*
X163156499Y-88326900D01*
X163156499Y-87656934D01*
X163148441Y-87616418D01*
X163143667Y-87592416D01*
X163143666Y-87592414D01*
X163141734Y-87582699D01*
X163136230Y-87574461D01*
X163090988Y-87506753D01*
X163085484Y-87498516D01*
X163001301Y-87442266D01*
X162952761Y-87432611D01*
X162931919Y-87428465D01*
X162931918Y-87428465D01*
X162927067Y-87427500D01*
X162657100Y-87427500D01*
X162597969Y-87408287D01*
X162561424Y-87357987D01*
X162556500Y-87326900D01*
X162556500Y-86867944D01*
X170271183Y-86867944D01*
X170271362Y-86871674D01*
X170271362Y-86871679D01*
X170278966Y-87029990D01*
X170283694Y-87128419D01*
X170334569Y-87384185D01*
X170335831Y-87387700D01*
X170418731Y-87618593D01*
X170422690Y-87629621D01*
X170546120Y-87859336D01*
X170548350Y-87862322D01*
X170548353Y-87862327D01*
X170684623Y-88044813D01*
X170702149Y-88068283D01*
X170887348Y-88251873D01*
X170984239Y-88322917D01*
X171094641Y-88403868D01*
X171094646Y-88403871D01*
X171097649Y-88406073D01*
X171134161Y-88425283D01*
X171325127Y-88525755D01*
X171325131Y-88525757D01*
X171328433Y-88527494D01*
X171331960Y-88528726D01*
X171331963Y-88528727D01*
X171527228Y-88596916D01*
X171574629Y-88613469D01*
X171830828Y-88662110D01*
X171834557Y-88662256D01*
X171834561Y-88662257D01*
X172000618Y-88668781D01*
X172091403Y-88672348D01*
X172184885Y-88662110D01*
X172346916Y-88644365D01*
X172346921Y-88644364D01*
X172350629Y-88643958D01*
X172478103Y-88610397D01*
X172599204Y-88578514D01*
X172599208Y-88578512D01*
X172602811Y-88577564D01*
X172842410Y-88474625D01*
X173064161Y-88337401D01*
X173075425Y-88327866D01*
X173260339Y-88171324D01*
X173263194Y-88168907D01*
X173325550Y-88097803D01*
X173432671Y-87975655D01*
X173432673Y-87975653D01*
X173435135Y-87972845D01*
X173437153Y-87969707D01*
X173437158Y-87969701D01*
X173574183Y-87756672D01*
X173574186Y-87756667D01*
X173576208Y-87753523D01*
X173577743Y-87750116D01*
X173577746Y-87750110D01*
X173681780Y-87519163D01*
X173681781Y-87519160D01*
X173683314Y-87515757D01*
X173722197Y-87377887D01*
X173753086Y-87268365D01*
X173753087Y-87268361D01*
X173754099Y-87264772D01*
X173754570Y-87261071D01*
X173786691Y-87008582D01*
X173786691Y-87008579D01*
X173787009Y-87006081D01*
X173787318Y-86994300D01*
X173789354Y-86916522D01*
X173789354Y-86916521D01*
X173789420Y-86914000D01*
X173770094Y-86653941D01*
X173769117Y-86649620D01*
X173713367Y-86403240D01*
X173713366Y-86403237D01*
X173712542Y-86399595D01*
X173711192Y-86396122D01*
X173711189Y-86396114D01*
X173619381Y-86160032D01*
X173618027Y-86156550D01*
X173488625Y-85930145D01*
X173327180Y-85725353D01*
X173308935Y-85708189D01*
X173139957Y-85549231D01*
X173137239Y-85546674D01*
X173134182Y-85544554D01*
X173134178Y-85544550D01*
X173010476Y-85458735D01*
X172922973Y-85398032D01*
X172689090Y-85282694D01*
X172685538Y-85281557D01*
X172685533Y-85281555D01*
X172494242Y-85220323D01*
X172440728Y-85203193D01*
X172183344Y-85161275D01*
X172179602Y-85161226D01*
X172150905Y-85160850D01*
X171922590Y-85157862D01*
X171812620Y-85172828D01*
X171667898Y-85192524D01*
X171667896Y-85192524D01*
X171664196Y-85193028D01*
X171660613Y-85194072D01*
X171660610Y-85194073D01*
X171603888Y-85210606D01*
X171413838Y-85266000D01*
X171410456Y-85267559D01*
X171410451Y-85267561D01*
X171299853Y-85318548D01*
X171177016Y-85375177D01*
X171173895Y-85377223D01*
X171173890Y-85377226D01*
X171057469Y-85453555D01*
X170958933Y-85518158D01*
X170764379Y-85691804D01*
X170761987Y-85694680D01*
X170600016Y-85889429D01*
X170600011Y-85889436D01*
X170597629Y-85892300D01*
X170462345Y-86115240D01*
X170361500Y-86355728D01*
X170334603Y-86461635D01*
X170299617Y-86599398D01*
X170297310Y-86608480D01*
X170296936Y-86612191D01*
X170296936Y-86612193D01*
X170271868Y-86861146D01*
X170271183Y-86867944D01*
X162556500Y-86867944D01*
X162556500Y-85647099D01*
X162575713Y-85587968D01*
X162626013Y-85551423D01*
X162657100Y-85546499D01*
X162927066Y-85546499D01*
X162962773Y-85539397D01*
X162991584Y-85533667D01*
X162991586Y-85533666D01*
X163001301Y-85531734D01*
X163029415Y-85512949D01*
X163077247Y-85480988D01*
X163085484Y-85475484D01*
X163096676Y-85458735D01*
X163107425Y-85442648D01*
X163141734Y-85391301D01*
X163156500Y-85317067D01*
X163156499Y-82766934D01*
X163141734Y-82692699D01*
X163136230Y-82684461D01*
X163090988Y-82616753D01*
X163085484Y-82608516D01*
X163001301Y-82552266D01*
X162952761Y-82542611D01*
X162931919Y-82538465D01*
X162931918Y-82538465D01*
X162927067Y-82537500D01*
X162922120Y-82537500D01*
X162051204Y-82537501D01*
X161176934Y-82537501D01*
X161141452Y-82544558D01*
X161112416Y-82550333D01*
X161112414Y-82550334D01*
X161102699Y-82552266D01*
X161018516Y-82608516D01*
X160962266Y-82692699D01*
X160947500Y-82766933D01*
X160947501Y-85317066D01*
X160948768Y-85323436D01*
X160959467Y-85377226D01*
X160962266Y-85391301D01*
X160967769Y-85399536D01*
X160967769Y-85399537D01*
X161012647Y-85466701D01*
X161018516Y-85475484D01*
X161102699Y-85531734D01*
X161141224Y-85539397D01*
X161172081Y-85545535D01*
X161172082Y-85545535D01*
X161176933Y-85546500D01*
X161446900Y-85546500D01*
X161506031Y-85565713D01*
X161542576Y-85616013D01*
X161547500Y-85647100D01*
X161547500Y-87326901D01*
X161528287Y-87386032D01*
X161477987Y-87422577D01*
X161446900Y-87427501D01*
X161176934Y-87427501D01*
X161141452Y-87434558D01*
X161112416Y-87440333D01*
X161112414Y-87440334D01*
X161102699Y-87442266D01*
X161094464Y-87447769D01*
X161094463Y-87447769D01*
X161052177Y-87476024D01*
X161018516Y-87498516D01*
X161013012Y-87506753D01*
X161006996Y-87515757D01*
X160962266Y-87582699D01*
X160947500Y-87656933D01*
X148705097Y-87656933D01*
X148740179Y-87610124D01*
X148746988Y-87597686D01*
X148790426Y-87481815D01*
X148793317Y-87469653D01*
X148798707Y-87420044D01*
X148799000Y-87414624D01*
X148799000Y-87391933D01*
X148794812Y-87379043D01*
X148790623Y-87376000D01*
X148364933Y-87376000D01*
X148352043Y-87380188D01*
X148349000Y-87384377D01*
X148349000Y-87835067D01*
X147841000Y-87835067D01*
X147841000Y-86852067D01*
X148349000Y-86852067D01*
X148353188Y-86864957D01*
X148357377Y-86868000D01*
X148783067Y-86868000D01*
X148795957Y-86863812D01*
X148799000Y-86859623D01*
X148799000Y-86829376D01*
X148798707Y-86823956D01*
X148793317Y-86774347D01*
X148790426Y-86762185D01*
X148746988Y-86646314D01*
X148740179Y-86633876D01*
X148666483Y-86535545D01*
X148656455Y-86525517D01*
X148558124Y-86451821D01*
X148545686Y-86445012D01*
X148429815Y-86401574D01*
X148417653Y-86398683D01*
X148368044Y-86393293D01*
X148364603Y-86393107D01*
X148352043Y-86397188D01*
X148349000Y-86401377D01*
X148349000Y-86852067D01*
X147841000Y-86852067D01*
X147841000Y-86408933D01*
X147836812Y-86396043D01*
X147832623Y-86393000D01*
X147827376Y-86393000D01*
X147821956Y-86393293D01*
X147772347Y-86398683D01*
X147760185Y-86401574D01*
X147644314Y-86445012D01*
X147631876Y-86451821D01*
X147533545Y-86525517D01*
X147523517Y-86535545D01*
X147449821Y-86633876D01*
X147443011Y-86646316D01*
X147414466Y-86722461D01*
X147375719Y-86771086D01*
X147315792Y-86787649D01*
X147257574Y-86765825D01*
X147226068Y-86722462D01*
X147197432Y-86646073D01*
X147197431Y-86646071D01*
X147194917Y-86639365D01*
X147189183Y-86631713D01*
X147116843Y-86535192D01*
X147112544Y-86529456D01*
X147069332Y-86497070D01*
X147008369Y-86451380D01*
X147008367Y-86451379D01*
X147002635Y-86447083D01*
X146989789Y-86442267D01*
X146941164Y-86403522D01*
X146924500Y-86348068D01*
X146924500Y-86317864D01*
X146943713Y-86258733D01*
X146953965Y-86246729D01*
X151257729Y-81942965D01*
X151313127Y-81914739D01*
X151328864Y-81913500D01*
X155142784Y-81913500D01*
X155163958Y-81915754D01*
X155167747Y-81916570D01*
X155167748Y-81916570D01*
X155175876Y-81918320D01*
X155184131Y-81917343D01*
X155210710Y-81914197D01*
X155218499Y-81913738D01*
X155221378Y-81913500D01*
X155225524Y-81913500D01*
X155229614Y-81912819D01*
X155229616Y-81912819D01*
X155245160Y-81910232D01*
X155249853Y-81909564D01*
X155293082Y-81904448D01*
X155293085Y-81904447D01*
X155301341Y-81903470D01*
X155308354Y-81900102D01*
X155310949Y-81899281D01*
X155318626Y-81898004D01*
X155364252Y-81873385D01*
X155368474Y-81871234D01*
X155409520Y-81851524D01*
X155409521Y-81851523D01*
X155415232Y-81848781D01*
X155419508Y-81845186D01*
X155421053Y-81843641D01*
X155421981Y-81842790D01*
X155423801Y-81841255D01*
X155429814Y-81838010D01*
X155466734Y-81798070D01*
X155469472Y-81795222D01*
X158497761Y-78766933D01*
X160947500Y-78766933D01*
X160947501Y-81317066D01*
X160962266Y-81391301D01*
X160967769Y-81399536D01*
X160967769Y-81399537D01*
X161013012Y-81467247D01*
X161018516Y-81475484D01*
X161102699Y-81531734D01*
X161151239Y-81541389D01*
X161172081Y-81545535D01*
X161172082Y-81545535D01*
X161176933Y-81546500D01*
X161181880Y-81546500D01*
X162052796Y-81546499D01*
X162927066Y-81546499D01*
X162962548Y-81539442D01*
X162991584Y-81533667D01*
X162991586Y-81533666D01*
X163001301Y-81531734D01*
X163085484Y-81475484D01*
X163141734Y-81391301D01*
X163156500Y-81317067D01*
X163156500Y-80647100D01*
X163175713Y-80587969D01*
X163226013Y-80551424D01*
X163257100Y-80546500D01*
X175668215Y-80546500D01*
X175680989Y-80547927D01*
X175680992Y-80547889D01*
X175688130Y-80548463D01*
X175695124Y-80550046D01*
X175749172Y-80546693D01*
X175755401Y-80546500D01*
X175772226Y-80546500D01*
X175775764Y-80545993D01*
X175775781Y-80545992D01*
X175783475Y-80544890D01*
X175791504Y-80544067D01*
X175832204Y-80541542D01*
X175832205Y-80541542D01*
X175839359Y-80541098D01*
X175849010Y-80537614D01*
X175868901Y-80532655D01*
X175871962Y-80532217D01*
X175871965Y-80532216D01*
X175879052Y-80531201D01*
X175885572Y-80528237D01*
X175885574Y-80528236D01*
X175922701Y-80511356D01*
X175930178Y-80508312D01*
X175948754Y-80501606D01*
X175975284Y-80492028D01*
X175983564Y-80485979D01*
X176001267Y-80475634D01*
X176004080Y-80474355D01*
X176004082Y-80474354D01*
X176010605Y-80471388D01*
X176046939Y-80440080D01*
X176053247Y-80435072D01*
X176061810Y-80428817D01*
X176061814Y-80428813D01*
X176064944Y-80426527D01*
X176076477Y-80414994D01*
X176081944Y-80409918D01*
X176114655Y-80381733D01*
X176114658Y-80381730D01*
X176120082Y-80377056D01*
X176123981Y-80371041D01*
X176124748Y-80369858D01*
X176138030Y-80353441D01*
X177580001Y-78911469D01*
X177628676Y-78884544D01*
X177685109Y-78871619D01*
X177763422Y-78853683D01*
X177763425Y-78853682D01*
X177769332Y-78852329D01*
X177910855Y-78781151D01*
X177977806Y-78723970D01*
X178026705Y-78682206D01*
X178026707Y-78682204D01*
X178031314Y-78678269D01*
X178117901Y-78557771D01*
X178120218Y-78554547D01*
X178120220Y-78554544D01*
X178123755Y-78549624D01*
X178128629Y-78537501D01*
X178180580Y-78408267D01*
X178182842Y-78402641D01*
X178205162Y-78245807D01*
X178205307Y-78232000D01*
X178200803Y-78194776D01*
X178187005Y-78080755D01*
X178187004Y-78080753D01*
X178186276Y-78074733D01*
X178130280Y-77926546D01*
X178040553Y-77795992D01*
X177922275Y-77690611D01*
X177782274Y-77616484D01*
X177628633Y-77577892D01*
X177622576Y-77577860D01*
X177622574Y-77577860D01*
X177545450Y-77577456D01*
X177470221Y-77577062D01*
X177464324Y-77578478D01*
X177464322Y-77578478D01*
X177322082Y-77612627D01*
X177316184Y-77614043D01*
X177310798Y-77616823D01*
X177310795Y-77616824D01*
X177180802Y-77683919D01*
X177175414Y-77686700D01*
X177056039Y-77790838D01*
X176964950Y-77920444D01*
X176907406Y-78068037D01*
X176906614Y-78074053D01*
X176898357Y-78136772D01*
X176869753Y-78194776D01*
X175556494Y-79508035D01*
X175501096Y-79536261D01*
X175485359Y-79537500D01*
X163257099Y-79537500D01*
X163197968Y-79518287D01*
X163161423Y-79467987D01*
X163156499Y-79436900D01*
X163156499Y-78766934D01*
X163141734Y-78692699D01*
X163136230Y-78684461D01*
X163090988Y-78616753D01*
X163085484Y-78608516D01*
X163001301Y-78552266D01*
X162952761Y-78542611D01*
X162931919Y-78538465D01*
X162931918Y-78538465D01*
X162927067Y-78537500D01*
X162922120Y-78537500D01*
X162051204Y-78537501D01*
X161176934Y-78537501D01*
X161144269Y-78543998D01*
X161112416Y-78550333D01*
X161112414Y-78550334D01*
X161102699Y-78552266D01*
X161018516Y-78608516D01*
X160962266Y-78692699D01*
X160947500Y-78766933D01*
X158497761Y-78766933D01*
X171049783Y-66214911D01*
X171105181Y-66186685D01*
X171122498Y-66185458D01*
X171258852Y-66187600D01*
X171258854Y-66187600D01*
X171264916Y-66187695D01*
X171270827Y-66186341D01*
X171270829Y-66186341D01*
X171413422Y-66153683D01*
X171413425Y-66153682D01*
X171419332Y-66152329D01*
X171560855Y-66081151D01*
X171627806Y-66023970D01*
X171676705Y-65982206D01*
X171676707Y-65982204D01*
X171681314Y-65978269D01*
X171712554Y-65934794D01*
X171770218Y-65854547D01*
X171770220Y-65854544D01*
X171773755Y-65849624D01*
X171832842Y-65702641D01*
X171855162Y-65545807D01*
X171855307Y-65532000D01*
X171836276Y-65374733D01*
X171780280Y-65226546D01*
X171690553Y-65095992D01*
X171572275Y-64990611D01*
X171432274Y-64916484D01*
X171278633Y-64877892D01*
X171272576Y-64877860D01*
X171272574Y-64877860D01*
X171195450Y-64877456D01*
X171120221Y-64877062D01*
X171114324Y-64878478D01*
X171114322Y-64878478D01*
X170972082Y-64912627D01*
X170966184Y-64914043D01*
X170960798Y-64916823D01*
X170960795Y-64916824D01*
X170830802Y-64983919D01*
X170825414Y-64986700D01*
X170706039Y-65090838D01*
X170614950Y-65220444D01*
X170557406Y-65368037D01*
X170536729Y-65525096D01*
X170537394Y-65531120D01*
X170537394Y-65531123D01*
X170544302Y-65593686D01*
X170531695Y-65654568D01*
X170515445Y-65675861D01*
X155066271Y-81125035D01*
X155010873Y-81153261D01*
X154995136Y-81154500D01*
X151181216Y-81154500D01*
X151160042Y-81152246D01*
X151156253Y-81151430D01*
X151156252Y-81151430D01*
X151148124Y-81149680D01*
X151139869Y-81150657D01*
X151113290Y-81153803D01*
X151105501Y-81154262D01*
X151102622Y-81154500D01*
X151098476Y-81154500D01*
X151094386Y-81155181D01*
X151094384Y-81155181D01*
X151078840Y-81157768D01*
X151074147Y-81158436D01*
X151030918Y-81163552D01*
X151030915Y-81163553D01*
X151022659Y-81164530D01*
X151015646Y-81167898D01*
X151013051Y-81168719D01*
X151005374Y-81169996D01*
X150970084Y-81189038D01*
X150959723Y-81194628D01*
X150955501Y-81196779D01*
X150908768Y-81219220D01*
X150904492Y-81222814D01*
X150902959Y-81224347D01*
X150902017Y-81225211D01*
X150900198Y-81226746D01*
X150894186Y-81229990D01*
X150888542Y-81236096D01*
X150857266Y-81269930D01*
X150854528Y-81272778D01*
X146616135Y-85511171D01*
X146560737Y-85539397D01*
X146499329Y-85529671D01*
X146473865Y-85511171D01*
X145947565Y-84984871D01*
X145934186Y-84968305D01*
X145927571Y-84958060D01*
X145921041Y-84952913D01*
X145921040Y-84952911D01*
X145900029Y-84936348D01*
X145894201Y-84931170D01*
X145891992Y-84929298D01*
X145889056Y-84926362D01*
X145882898Y-84921961D01*
X145872846Y-84914778D01*
X145869057Y-84911932D01*
X145834884Y-84884992D01*
X145834882Y-84884991D01*
X145828353Y-84879844D01*
X145821018Y-84877268D01*
X145818600Y-84876012D01*
X145812266Y-84871486D01*
X145804303Y-84869105D01*
X145804300Y-84869103D01*
X145762561Y-84856621D01*
X145758082Y-84855166D01*
X145709149Y-84837982D01*
X145703584Y-84837500D01*
X145701418Y-84837500D01*
X145700143Y-84837445D01*
X145697766Y-84837244D01*
X145691222Y-84835287D01*
X145638152Y-84837372D01*
X145636881Y-84837422D01*
X145632932Y-84837500D01*
X144244100Y-84837500D01*
X144184969Y-84818287D01*
X144148424Y-84767987D01*
X144143500Y-84736900D01*
X144143500Y-84349051D01*
X144143875Y-84340370D01*
X144146844Y-84306097D01*
X144146844Y-84306094D01*
X144147561Y-84297813D01*
X144136878Y-84254806D01*
X144135279Y-84247084D01*
X144129369Y-84211575D01*
X144128004Y-84203374D01*
X144124056Y-84196056D01*
X144121838Y-84189579D01*
X144119108Y-84183270D01*
X144117103Y-84175199D01*
X144093069Y-84137977D01*
X144089053Y-84131186D01*
X144071959Y-84099504D01*
X144071957Y-84099502D01*
X144068010Y-84092186D01*
X144061905Y-84086543D01*
X144057706Y-84081130D01*
X144053084Y-84076050D01*
X144048571Y-84069060D01*
X144042040Y-84063912D01*
X144042036Y-84063907D01*
X144013777Y-84041630D01*
X144007770Y-84036500D01*
X143981346Y-84012074D01*
X143981342Y-84012072D01*
X143975235Y-84006426D01*
X143967629Y-84003064D01*
X143961893Y-83999296D01*
X143955882Y-83995992D01*
X143949353Y-83990844D01*
X143907547Y-83976163D01*
X143900222Y-83973263D01*
X143859683Y-83955341D01*
X143851404Y-83954624D01*
X143843344Y-83952554D01*
X143843444Y-83952166D01*
X143842408Y-83951943D01*
X143842307Y-83952411D01*
X143836121Y-83951079D01*
X143830149Y-83948982D01*
X143824584Y-83948500D01*
X143785051Y-83948500D01*
X143776370Y-83948125D01*
X143742097Y-83945156D01*
X143742094Y-83945156D01*
X143733813Y-83944439D01*
X143725745Y-83946443D01*
X143717453Y-83947096D01*
X143717445Y-83946997D01*
X143705156Y-83948500D01*
X142765335Y-83948500D01*
X142706204Y-83929287D01*
X142670418Y-83881233D01*
X142667703Y-83873501D01*
X142655209Y-83837924D01*
X142636352Y-83812393D01*
X142574010Y-83727990D01*
X142576616Y-83726065D01*
X142554739Y-83683128D01*
X142553500Y-83667391D01*
X142553500Y-83337609D01*
X142572713Y-83278478D01*
X142573893Y-83277097D01*
X142574010Y-83277010D01*
X142574287Y-83276635D01*
X142650742Y-83173124D01*
X142650742Y-83173123D01*
X142655209Y-83167076D01*
X142693264Y-83058713D01*
X142698462Y-83043911D01*
X142698462Y-83043909D01*
X142700493Y-83038127D01*
X142703500Y-83006315D01*
X142703499Y-82347686D01*
X142700493Y-82315873D01*
X142655209Y-82186924D01*
X142574010Y-82076990D01*
X142464076Y-81995791D01*
X142370946Y-81963086D01*
X142340911Y-81952538D01*
X142340909Y-81952538D01*
X142335127Y-81950507D01*
X142329028Y-81949931D01*
X142329026Y-81949930D01*
X142305678Y-81947723D01*
X142305670Y-81947723D01*
X142303315Y-81947500D01*
X142300937Y-81947500D01*
X142047980Y-81947501D01*
X141794686Y-81947501D01*
X141762873Y-81950507D01*
X141633924Y-81995791D01*
X141523990Y-82076990D01*
X141442791Y-82186924D01*
X141427582Y-82230233D01*
X141399540Y-82310085D01*
X141397507Y-82315873D01*
X141394500Y-82347685D01*
X141394501Y-83006314D01*
X141397507Y-83038127D01*
X141442791Y-83167076D01*
X141447258Y-83173123D01*
X141447258Y-83173124D01*
X141523990Y-83277010D01*
X141521384Y-83278935D01*
X141543261Y-83321872D01*
X141544500Y-83337609D01*
X141544500Y-83667391D01*
X141525287Y-83726522D01*
X141524107Y-83727903D01*
X141523990Y-83727990D01*
X141523713Y-83728365D01*
X141461649Y-83812393D01*
X141442791Y-83837924D01*
X141425112Y-83888266D01*
X141399540Y-83961085D01*
X141397507Y-83966873D01*
X141396931Y-83972972D01*
X141396930Y-83972974D01*
X141395502Y-83988089D01*
X141394500Y-83998685D01*
X141394501Y-84657314D01*
X141397507Y-84689127D01*
X141442791Y-84818076D01*
X141447258Y-84824123D01*
X141447258Y-84824124D01*
X141523990Y-84928010D01*
X141521384Y-84929935D01*
X141543261Y-84972872D01*
X141544500Y-84988609D01*
X141544500Y-85318391D01*
X141525287Y-85377522D01*
X141524107Y-85378903D01*
X141523990Y-85378990D01*
X141523713Y-85379365D01*
X141472178Y-85449138D01*
X141442791Y-85488924D01*
X141411113Y-85579129D01*
X141399540Y-85612085D01*
X141397507Y-85617873D01*
X141396931Y-85623972D01*
X141396930Y-85623974D01*
X141395451Y-85639627D01*
X141394500Y-85649685D01*
X141394501Y-85933667D01*
X141394501Y-86194937D01*
X141375288Y-86254068D01*
X141324988Y-86290613D01*
X141262814Y-86290613D01*
X141222766Y-86266072D01*
X141082965Y-86126271D01*
X141054739Y-86070873D01*
X141053500Y-86055136D01*
X141053499Y-85652046D01*
X141053499Y-85649686D01*
X141050493Y-85617873D01*
X141005209Y-85488924D01*
X140975823Y-85449138D01*
X140928478Y-85385039D01*
X140924010Y-85378990D01*
X140875866Y-85343430D01*
X140820124Y-85302258D01*
X140820123Y-85302258D01*
X140814076Y-85297791D01*
X140685127Y-85252507D01*
X140679026Y-85251930D01*
X140678259Y-85251762D01*
X140624620Y-85220323D01*
X140599704Y-85163359D01*
X140613030Y-85102630D01*
X140659506Y-85061331D01*
X140678259Y-85055238D01*
X140679028Y-85055069D01*
X140685127Y-85054493D01*
X140814076Y-85009209D01*
X140832224Y-84995805D01*
X140917961Y-84932478D01*
X140924010Y-84928010D01*
X140934793Y-84913411D01*
X141000742Y-84824124D01*
X141000742Y-84824123D01*
X141005209Y-84818076D01*
X141044041Y-84707500D01*
X141048462Y-84694911D01*
X141048462Y-84694909D01*
X141050493Y-84689127D01*
X141051500Y-84678478D01*
X141053277Y-84659678D01*
X141053278Y-84659662D01*
X141053500Y-84657315D01*
X141053499Y-83998686D01*
X141050493Y-83966873D01*
X141005209Y-83837924D01*
X140986352Y-83812393D01*
X140928478Y-83734039D01*
X140924010Y-83727990D01*
X140911810Y-83718979D01*
X140820124Y-83651258D01*
X140820123Y-83651258D01*
X140814076Y-83646791D01*
X140685127Y-83601507D01*
X140679026Y-83600930D01*
X140678259Y-83600762D01*
X140624620Y-83569323D01*
X140599704Y-83512359D01*
X140613030Y-83451630D01*
X140659506Y-83410331D01*
X140678259Y-83404238D01*
X140679028Y-83404069D01*
X140685127Y-83403493D01*
X140814076Y-83358209D01*
X140829347Y-83346930D01*
X140917961Y-83281478D01*
X140924010Y-83277010D01*
X140963533Y-83223500D01*
X141000742Y-83173124D01*
X141000742Y-83173123D01*
X141005209Y-83167076D01*
X141043264Y-83058713D01*
X141048462Y-83043911D01*
X141048462Y-83043909D01*
X141050493Y-83038127D01*
X141053500Y-83006315D01*
X141053499Y-82347686D01*
X141050493Y-82315873D01*
X141005209Y-82186924D01*
X140924010Y-82076990D01*
X140814076Y-81995791D01*
X140720946Y-81963086D01*
X140690911Y-81952538D01*
X140690909Y-81952538D01*
X140685127Y-81950507D01*
X140679028Y-81949931D01*
X140679026Y-81949930D01*
X140655678Y-81947723D01*
X140655670Y-81947723D01*
X140653315Y-81947500D01*
X140650937Y-81947500D01*
X140397980Y-81947501D01*
X140144686Y-81947501D01*
X140112873Y-81950507D01*
X139983924Y-81995791D01*
X139873990Y-82076990D01*
X139792791Y-82186924D01*
X139777582Y-82230233D01*
X139739862Y-82279658D01*
X139682665Y-82297500D01*
X139644864Y-82297500D01*
X139585733Y-82278287D01*
X139573729Y-82268035D01*
X139242565Y-81936871D01*
X139229186Y-81920305D01*
X139227904Y-81918320D01*
X139222571Y-81910060D01*
X139216041Y-81904913D01*
X139216040Y-81904911D01*
X139195029Y-81888348D01*
X139189201Y-81883170D01*
X139186992Y-81881298D01*
X139184056Y-81878362D01*
X139174082Y-81871234D01*
X139167846Y-81866778D01*
X139164057Y-81863932D01*
X139129884Y-81836992D01*
X139129882Y-81836991D01*
X139123353Y-81831844D01*
X139116018Y-81829268D01*
X139113600Y-81828012D01*
X139107266Y-81823486D01*
X139099303Y-81821105D01*
X139099300Y-81821103D01*
X139057561Y-81808621D01*
X139053082Y-81807166D01*
X139004149Y-81789982D01*
X138998584Y-81789500D01*
X138996418Y-81789500D01*
X138995143Y-81789445D01*
X138992766Y-81789244D01*
X138986222Y-81787287D01*
X138935954Y-81789262D01*
X138931881Y-81789422D01*
X138927932Y-81789500D01*
X134481216Y-81789500D01*
X134460042Y-81787246D01*
X134456253Y-81786430D01*
X134456252Y-81786430D01*
X134448124Y-81784680D01*
X134439870Y-81785657D01*
X134439869Y-81785657D01*
X134413291Y-81788803D01*
X134405499Y-81789262D01*
X134402620Y-81789500D01*
X134398476Y-81789500D01*
X134394386Y-81790181D01*
X134394384Y-81790181D01*
X134378828Y-81792770D01*
X134374136Y-81793438D01*
X134330913Y-81798554D01*
X134322659Y-81799531D01*
X134315651Y-81802896D01*
X134313051Y-81803718D01*
X134305374Y-81804996D01*
X134259700Y-81829640D01*
X134255527Y-81831767D01*
X134208768Y-81854220D01*
X134204492Y-81857814D01*
X134202959Y-81859347D01*
X134202017Y-81860211D01*
X134200198Y-81861746D01*
X134194186Y-81864990D01*
X134186424Y-81873387D01*
X134157266Y-81904930D01*
X134154528Y-81907778D01*
X132747271Y-83315035D01*
X132691873Y-83343261D01*
X132676136Y-83344500D01*
X132294652Y-83344501D01*
X132270686Y-83344501D01*
X132238873Y-83347507D01*
X132109924Y-83392791D01*
X132103877Y-83397258D01*
X132103876Y-83397258D01*
X132086177Y-83410331D01*
X131999990Y-83473990D01*
X131995522Y-83480039D01*
X131929576Y-83569323D01*
X131918791Y-83583924D01*
X131896714Y-83646791D01*
X131875540Y-83707085D01*
X131873507Y-83712873D01*
X131872931Y-83718972D01*
X131872930Y-83718974D01*
X131872043Y-83728365D01*
X131870500Y-83744685D01*
X131870501Y-84403314D01*
X131873507Y-84435127D01*
X131918791Y-84564076D01*
X131999990Y-84674010D01*
X132006039Y-84678478D01*
X132045332Y-84707500D01*
X132109924Y-84755209D01*
X132184889Y-84781535D01*
X132233089Y-84798462D01*
X132233091Y-84798462D01*
X132238873Y-84800493D01*
X132244972Y-84801069D01*
X132244974Y-84801070D01*
X132268322Y-84803277D01*
X132268330Y-84803277D01*
X132270685Y-84803500D01*
X132294823Y-84803500D01*
X132676135Y-84803499D01*
X132735266Y-84822712D01*
X132747270Y-84832964D01*
X132941035Y-85026729D01*
X132969261Y-85082127D01*
X132970500Y-85097864D01*
X132970500Y-85151475D01*
X132951287Y-85210606D01*
X132900987Y-85247151D01*
X132859038Y-85251487D01*
X132848051Y-85250294D01*
X132844603Y-85250107D01*
X132832043Y-85254188D01*
X132829000Y-85258377D01*
X132829000Y-86692067D01*
X132833188Y-86704957D01*
X132837377Y-86708000D01*
X132842624Y-86708000D01*
X132848051Y-86707706D01*
X132863237Y-86706057D01*
X132924097Y-86718773D01*
X132965859Y-86764833D01*
X132973334Y-86789555D01*
X132973768Y-86792163D01*
X132974436Y-86796853D01*
X132979552Y-86840082D01*
X132979553Y-86840085D01*
X132980530Y-86848341D01*
X132983898Y-86855354D01*
X132984719Y-86857949D01*
X132985996Y-86865626D01*
X133008901Y-86908077D01*
X133010613Y-86911249D01*
X133012766Y-86915474D01*
X133028765Y-86948791D01*
X133035219Y-86962232D01*
X133038814Y-86966508D01*
X133040359Y-86968053D01*
X133041210Y-86968981D01*
X133042745Y-86970801D01*
X133045990Y-86976814D01*
X133070764Y-86999715D01*
X133085930Y-87013734D01*
X133088778Y-87016472D01*
X133779833Y-87707527D01*
X133808059Y-87762925D01*
X133798333Y-87824333D01*
X133754369Y-87868297D01*
X133708171Y-87879261D01*
X133670221Y-87879062D01*
X133664324Y-87880478D01*
X133664322Y-87880478D01*
X133599952Y-87895932D01*
X133516184Y-87916043D01*
X133510798Y-87918823D01*
X133510795Y-87918824D01*
X133432348Y-87959314D01*
X133375414Y-87988700D01*
X133370844Y-87992687D01*
X133287610Y-88065297D01*
X133256039Y-88092838D01*
X133252551Y-88097800D01*
X133252549Y-88097803D01*
X133242749Y-88111746D01*
X133193029Y-88149076D01*
X133160444Y-88154500D01*
X132166864Y-88154500D01*
X132107733Y-88135287D01*
X132095729Y-88125035D01*
X131478420Y-87507726D01*
X131450194Y-87452328D01*
X131459920Y-87390920D01*
X131467859Y-87377887D01*
X131511218Y-87317547D01*
X131511220Y-87317544D01*
X131514755Y-87312624D01*
X131519555Y-87300685D01*
X131571580Y-87171267D01*
X131573842Y-87165641D01*
X131596162Y-87008807D01*
X131596218Y-87003535D01*
X131596272Y-86998298D01*
X131596307Y-86995000D01*
X131594790Y-86982458D01*
X131578005Y-86843755D01*
X131578004Y-86843753D01*
X131577276Y-86837733D01*
X131573074Y-86826611D01*
X131523425Y-86695222D01*
X131523424Y-86695221D01*
X131521280Y-86689546D01*
X131431553Y-86558992D01*
X131326203Y-86465129D01*
X131317804Y-86457646D01*
X131317803Y-86457645D01*
X131313275Y-86453611D01*
X131211257Y-86399595D01*
X131178636Y-86382323D01*
X131173274Y-86379484D01*
X131019633Y-86340892D01*
X131013576Y-86340860D01*
X131013574Y-86340860D01*
X130936450Y-86340456D01*
X130861221Y-86340062D01*
X130855324Y-86341478D01*
X130855322Y-86341478D01*
X130779260Y-86359739D01*
X130707184Y-86377043D01*
X130701798Y-86379823D01*
X130701795Y-86379824D01*
X130645398Y-86408933D01*
X130566414Y-86449700D01*
X130546441Y-86467124D01*
X130451809Y-86549677D01*
X130447039Y-86553838D01*
X130355950Y-86683444D01*
X130298406Y-86831037D01*
X130277729Y-86988096D01*
X124367480Y-86988096D01*
X124369354Y-86916522D01*
X124369354Y-86916521D01*
X124369420Y-86914000D01*
X124350094Y-86653941D01*
X124349117Y-86649620D01*
X124293367Y-86403240D01*
X124293366Y-86403237D01*
X124292542Y-86399595D01*
X124291192Y-86396122D01*
X124291189Y-86396114D01*
X124242777Y-86271624D01*
X131871000Y-86271624D01*
X131871293Y-86277044D01*
X131876683Y-86326653D01*
X131879574Y-86338815D01*
X131923012Y-86454686D01*
X131929821Y-86467124D01*
X132003517Y-86565455D01*
X132013545Y-86575483D01*
X132111876Y-86649179D01*
X132124314Y-86655988D01*
X132240185Y-86699426D01*
X132252347Y-86702317D01*
X132301956Y-86707707D01*
X132305397Y-86707893D01*
X132317957Y-86703812D01*
X132321000Y-86699623D01*
X132321000Y-86248933D01*
X132316812Y-86236043D01*
X132312623Y-86233000D01*
X131886933Y-86233000D01*
X131874043Y-86237188D01*
X131871000Y-86241377D01*
X131871000Y-86271624D01*
X124242777Y-86271624D01*
X124199381Y-86160032D01*
X124198027Y-86156550D01*
X124068625Y-85930145D01*
X123907180Y-85725353D01*
X123889868Y-85709067D01*
X131871000Y-85709067D01*
X131875188Y-85721957D01*
X131879377Y-85725000D01*
X132305067Y-85725000D01*
X132317957Y-85720812D01*
X132321000Y-85716623D01*
X132321000Y-85265933D01*
X132316812Y-85253043D01*
X132312623Y-85250000D01*
X132307376Y-85250000D01*
X132301956Y-85250293D01*
X132252347Y-85255683D01*
X132240185Y-85258574D01*
X132124314Y-85302012D01*
X132111876Y-85308821D01*
X132013545Y-85382517D01*
X132003517Y-85392545D01*
X131929821Y-85490876D01*
X131923012Y-85503314D01*
X131879574Y-85619185D01*
X131876683Y-85631347D01*
X131871293Y-85680956D01*
X131871000Y-85686376D01*
X131871000Y-85709067D01*
X123889868Y-85709067D01*
X123888935Y-85708189D01*
X123719957Y-85549231D01*
X123717239Y-85546674D01*
X123714182Y-85544554D01*
X123714178Y-85544550D01*
X123590476Y-85458735D01*
X123502973Y-85398032D01*
X123269090Y-85282694D01*
X123265538Y-85281557D01*
X123265533Y-85281555D01*
X123074242Y-85220323D01*
X123020728Y-85203193D01*
X122763344Y-85161275D01*
X122759602Y-85161226D01*
X122730905Y-85160850D01*
X122502590Y-85157862D01*
X122392620Y-85172828D01*
X122247898Y-85192524D01*
X122247896Y-85192524D01*
X122244196Y-85193028D01*
X122240613Y-85194072D01*
X122240610Y-85194073D01*
X122183888Y-85210606D01*
X121993838Y-85266000D01*
X121990456Y-85267559D01*
X121990451Y-85267561D01*
X121879853Y-85318548D01*
X121757016Y-85375177D01*
X121753895Y-85377223D01*
X121753890Y-85377226D01*
X121637469Y-85453555D01*
X121538933Y-85518158D01*
X121344379Y-85691804D01*
X121341987Y-85694680D01*
X121180016Y-85889429D01*
X121180011Y-85889436D01*
X121177629Y-85892300D01*
X121042345Y-86115240D01*
X120941500Y-86355728D01*
X120914603Y-86461635D01*
X120879617Y-86599398D01*
X120877310Y-86608480D01*
X120876936Y-86612191D01*
X120876936Y-86612193D01*
X120851868Y-86861146D01*
X120851183Y-86867944D01*
X115365495Y-86867944D01*
X115349875Y-86657744D01*
X115348773Y-86650368D01*
X115292887Y-86403387D01*
X115290708Y-86396261D01*
X115198928Y-86160248D01*
X115195722Y-86153526D01*
X115070061Y-85933667D01*
X115065894Y-85927490D01*
X115027192Y-85878396D01*
X115015922Y-85870865D01*
X115013746Y-85870951D01*
X115009617Y-85873594D01*
X113980478Y-86902732D01*
X113974323Y-86914811D01*
X113244850Y-86914811D01*
X113245677Y-86913189D01*
X113244867Y-86908077D01*
X112212618Y-85875829D01*
X112200539Y-85869674D01*
X112197692Y-85870125D01*
X112194801Y-85872435D01*
X112180425Y-85889720D01*
X112176101Y-85895783D01*
X112044730Y-86112276D01*
X112041348Y-86118914D01*
X111943423Y-86352437D01*
X111941057Y-86359507D01*
X111878722Y-86604951D01*
X111877430Y-86612280D01*
X111852059Y-86864239D01*
X111851864Y-86871692D01*
X106604500Y-86871692D01*
X106604500Y-85506631D01*
X112565005Y-85506631D01*
X112569379Y-85514169D01*
X113598732Y-86543522D01*
X113610811Y-86549677D01*
X113615923Y-86548867D01*
X114647087Y-85517702D01*
X114653242Y-85505623D01*
X114653160Y-85505109D01*
X114648114Y-85499329D01*
X114505782Y-85400591D01*
X114499368Y-85396813D01*
X114272254Y-85284813D01*
X114265345Y-85282021D01*
X114024168Y-85204820D01*
X114016927Y-85203081D01*
X113766990Y-85162376D01*
X113759558Y-85161726D01*
X113506352Y-85158412D01*
X113498926Y-85158866D01*
X113248002Y-85193015D01*
X113240714Y-85194564D01*
X112997593Y-85265427D01*
X112990627Y-85268031D01*
X112760653Y-85374052D01*
X112754135Y-85377665D01*
X112573419Y-85496148D01*
X112565005Y-85506631D01*
X106604500Y-85506631D01*
X106604500Y-79130000D01*
X140760514Y-79130000D01*
X140765500Y-79155067D01*
X140780266Y-79229301D01*
X140836516Y-79313484D01*
X140920699Y-79369734D01*
X141020000Y-79389486D01*
X141029718Y-79387553D01*
X141029719Y-79387553D01*
X141035350Y-79386433D01*
X141054975Y-79384500D01*
X153185025Y-79384500D01*
X153204650Y-79386433D01*
X153210281Y-79387553D01*
X153210282Y-79387553D01*
X153220000Y-79389486D01*
X153319301Y-79369734D01*
X153403484Y-79313484D01*
X153459734Y-79229301D01*
X153474500Y-79155067D01*
X153479486Y-79130000D01*
X153476433Y-79114650D01*
X153474500Y-79095025D01*
X153474500Y-66964975D01*
X153476433Y-66945350D01*
X153477553Y-66939719D01*
X153477553Y-66939718D01*
X153479486Y-66930000D01*
X153459734Y-66830699D01*
X153403484Y-66746516D01*
X153319301Y-66690266D01*
X153245067Y-66675500D01*
X153220000Y-66670514D01*
X153210282Y-66672447D01*
X153210281Y-66672447D01*
X153204650Y-66673567D01*
X153185025Y-66675500D01*
X141054975Y-66675500D01*
X141035350Y-66673567D01*
X141029719Y-66672447D01*
X141029718Y-66672447D01*
X141020000Y-66670514D01*
X140994933Y-66675500D01*
X140920699Y-66690266D01*
X140836516Y-66746516D01*
X140780266Y-66830699D01*
X140760514Y-66930000D01*
X140762447Y-66939718D01*
X140762447Y-66939719D01*
X140763567Y-66945350D01*
X140765500Y-66964975D01*
X140765500Y-79095025D01*
X140763567Y-79114650D01*
X140760514Y-79130000D01*
X106604500Y-79130000D01*
X106604500Y-51907572D01*
X107521562Y-51907572D01*
X107522024Y-51910489D01*
X107524254Y-51913287D01*
X107578323Y-51958496D01*
X107583858Y-51962517D01*
X107826842Y-52114941D01*
X107832870Y-52118173D01*
X108094305Y-52236216D01*
X108100701Y-52238595D01*
X108375727Y-52320060D01*
X108382421Y-52321556D01*
X108665943Y-52364942D01*
X108672764Y-52365515D01*
X108959571Y-52370020D01*
X108966401Y-52369662D01*
X109251163Y-52335202D01*
X109257872Y-52333923D01*
X109535332Y-52261132D01*
X109541808Y-52258952D01*
X109806813Y-52149184D01*
X109812941Y-52146142D01*
X110060595Y-52001425D01*
X110066255Y-51997579D01*
X110170366Y-51915945D01*
X110175992Y-51907572D01*
X146021562Y-51907572D01*
X146022024Y-51910489D01*
X146024254Y-51913287D01*
X146078323Y-51958496D01*
X146083858Y-51962517D01*
X146326842Y-52114941D01*
X146332870Y-52118173D01*
X146594305Y-52236216D01*
X146600701Y-52238595D01*
X146875727Y-52320060D01*
X146882421Y-52321556D01*
X147165943Y-52364942D01*
X147172764Y-52365515D01*
X147459571Y-52370020D01*
X147466401Y-52369662D01*
X147751163Y-52335202D01*
X147757872Y-52333923D01*
X148035332Y-52261132D01*
X148041808Y-52258952D01*
X148306813Y-52149184D01*
X148312941Y-52146142D01*
X148560595Y-52001425D01*
X148566255Y-51997579D01*
X148670366Y-51915945D01*
X148675992Y-51907572D01*
X184521562Y-51907572D01*
X184522024Y-51910489D01*
X184524254Y-51913287D01*
X184578323Y-51958496D01*
X184583858Y-51962517D01*
X184826842Y-52114941D01*
X184832870Y-52118173D01*
X185094305Y-52236216D01*
X185100701Y-52238595D01*
X185375727Y-52320060D01*
X185382421Y-52321556D01*
X185665943Y-52364942D01*
X185672764Y-52365515D01*
X185959571Y-52370020D01*
X185966401Y-52369662D01*
X186251163Y-52335202D01*
X186257872Y-52333923D01*
X186535332Y-52261132D01*
X186541808Y-52258952D01*
X186806813Y-52149184D01*
X186812941Y-52146142D01*
X187060595Y-52001425D01*
X187066255Y-51997579D01*
X187170366Y-51915945D01*
X187177925Y-51904695D01*
X187177848Y-51902590D01*
X187175146Y-51898356D01*
X185861268Y-50584478D01*
X185849189Y-50578323D01*
X185844077Y-50579133D01*
X184527717Y-51895493D01*
X184521562Y-51907572D01*
X148675992Y-51907572D01*
X148677925Y-51904695D01*
X148677848Y-51902590D01*
X148675146Y-51898356D01*
X147361268Y-50584478D01*
X147349189Y-50578323D01*
X147344077Y-50579133D01*
X146027717Y-51895493D01*
X146021562Y-51907572D01*
X110175992Y-51907572D01*
X110177925Y-51904695D01*
X110177848Y-51902590D01*
X110175146Y-51898356D01*
X108861268Y-50584478D01*
X108849189Y-50578323D01*
X108844077Y-50579133D01*
X107527717Y-51895493D01*
X107521562Y-51907572D01*
X106604500Y-51907572D01*
X106604500Y-50909779D01*
X106623713Y-50850648D01*
X106674013Y-50814103D01*
X106736187Y-50814103D01*
X106786487Y-50850648D01*
X106800276Y-50877193D01*
X106858558Y-51047420D01*
X106861204Y-51053715D01*
X106990092Y-51309979D01*
X106993570Y-51315860D01*
X107145587Y-51537046D01*
X107156340Y-51545297D01*
X107156743Y-51545308D01*
X107163505Y-51541285D01*
X108479522Y-50225268D01*
X108484850Y-50214811D01*
X109214323Y-50214811D01*
X109215133Y-50219923D01*
X110531714Y-51536504D01*
X110543793Y-51542659D01*
X110545034Y-51542462D01*
X110549951Y-51538285D01*
X110670907Y-51373624D01*
X110674564Y-51367862D01*
X110811434Y-51115779D01*
X110814283Y-51109556D01*
X110915672Y-50841238D01*
X110917650Y-50834685D01*
X110981689Y-50555080D01*
X110982756Y-50548342D01*
X111008383Y-50261182D01*
X111008580Y-50257232D01*
X111009012Y-50215974D01*
X111008899Y-50212036D01*
X111007725Y-50194819D01*
X145191283Y-50194819D01*
X145207795Y-50481176D01*
X145208652Y-50487962D01*
X145263874Y-50769433D01*
X145265646Y-50776046D01*
X145358558Y-51047420D01*
X145361204Y-51053715D01*
X145490092Y-51309979D01*
X145493570Y-51315860D01*
X145645587Y-51537046D01*
X145656340Y-51545297D01*
X145656743Y-51545308D01*
X145663505Y-51541285D01*
X146979522Y-50225268D01*
X146984850Y-50214811D01*
X147714323Y-50214811D01*
X147715133Y-50219923D01*
X149031714Y-51536504D01*
X149043793Y-51542659D01*
X149045034Y-51542462D01*
X149049951Y-51538285D01*
X149170907Y-51373624D01*
X149174564Y-51367862D01*
X149311434Y-51115779D01*
X149314283Y-51109556D01*
X149415672Y-50841238D01*
X149417650Y-50834685D01*
X149481689Y-50555080D01*
X149482756Y-50548342D01*
X149508383Y-50261182D01*
X149508580Y-50257232D01*
X149509012Y-50215974D01*
X149508899Y-50212036D01*
X149507725Y-50194819D01*
X183691283Y-50194819D01*
X183707795Y-50481176D01*
X183708652Y-50487962D01*
X183763874Y-50769433D01*
X183765646Y-50776046D01*
X183858558Y-51047420D01*
X183861204Y-51053715D01*
X183990092Y-51309979D01*
X183993570Y-51315860D01*
X184145587Y-51537046D01*
X184156340Y-51545297D01*
X184156743Y-51545308D01*
X184163505Y-51541285D01*
X185479522Y-50225268D01*
X185485677Y-50213189D01*
X185484867Y-50208077D01*
X184167656Y-48890866D01*
X184155577Y-48884711D01*
X184154618Y-48884863D01*
X184149362Y-48889376D01*
X184017050Y-49073507D01*
X184013453Y-49079308D01*
X183879224Y-49332823D01*
X183876450Y-49339052D01*
X183777870Y-49608435D01*
X183775965Y-49614991D01*
X183714857Y-49895258D01*
X183713859Y-49902015D01*
X183691354Y-50187970D01*
X183691283Y-50194819D01*
X149507725Y-50194819D01*
X149489289Y-49924396D01*
X149488364Y-49917640D01*
X149430196Y-49636752D01*
X149428355Y-49630161D01*
X149332604Y-49359767D01*
X149329894Y-49353506D01*
X149198333Y-49098610D01*
X149194788Y-49092757D01*
X149053576Y-48891832D01*
X149042738Y-48883694D01*
X149042049Y-48883684D01*
X149035711Y-48887499D01*
X147720478Y-50202732D01*
X147714323Y-50214811D01*
X146984850Y-50214811D01*
X146985677Y-50213189D01*
X146984867Y-50208077D01*
X145667656Y-48890866D01*
X145655577Y-48884711D01*
X145654618Y-48884863D01*
X145649362Y-48889376D01*
X145517050Y-49073507D01*
X145513453Y-49079308D01*
X145379224Y-49332823D01*
X145376450Y-49339052D01*
X145277870Y-49608435D01*
X145275965Y-49614991D01*
X145214857Y-49895258D01*
X145213859Y-49902015D01*
X145191354Y-50187970D01*
X145191283Y-50194819D01*
X111007725Y-50194819D01*
X110989289Y-49924396D01*
X110988364Y-49917640D01*
X110930196Y-49636752D01*
X110928355Y-49630161D01*
X110832604Y-49359767D01*
X110829894Y-49353506D01*
X110698333Y-49098610D01*
X110694788Y-49092757D01*
X110553576Y-48891832D01*
X110542738Y-48883694D01*
X110542049Y-48883684D01*
X110535711Y-48887499D01*
X109220478Y-50202732D01*
X109214323Y-50214811D01*
X108484850Y-50214811D01*
X108485677Y-50213189D01*
X108484867Y-50208077D01*
X107167656Y-48890866D01*
X107155577Y-48884711D01*
X107154618Y-48884863D01*
X107149362Y-48889376D01*
X107017050Y-49073507D01*
X107013453Y-49079308D01*
X106879224Y-49332823D01*
X106876450Y-49339052D01*
X106799573Y-49549129D01*
X106761209Y-49598056D01*
X106701414Y-49615089D01*
X106643026Y-49593723D01*
X106608349Y-49542117D01*
X106604500Y-49514557D01*
X106604500Y-48069100D01*
X106623713Y-48009969D01*
X106674013Y-47973424D01*
X106705100Y-47968500D01*
X108146048Y-47968500D01*
X108205179Y-47987713D01*
G37*
%TD.AperFunction*%
%TA.AperFunction,Conductor*%
G36*
X145503267Y-85615713D02*
G01*
X145515271Y-85625965D01*
X146136035Y-86246729D01*
X146164261Y-86302127D01*
X146165500Y-86317864D01*
X146165500Y-86348068D01*
X146146287Y-86407199D01*
X146100211Y-86442267D01*
X146087365Y-86447083D01*
X146081633Y-86451379D01*
X146081631Y-86451380D01*
X146020668Y-86497070D01*
X145977456Y-86529456D01*
X145973157Y-86535192D01*
X145900818Y-86631713D01*
X145895083Y-86639365D01*
X145892569Y-86646071D01*
X145892568Y-86646073D01*
X145854389Y-86747919D01*
X145846870Y-86767976D01*
X145840500Y-86826611D01*
X145840501Y-87417388D01*
X145846870Y-87476024D01*
X145849083Y-87481926D01*
X145849083Y-87481928D01*
X145886860Y-87582699D01*
X145895083Y-87604635D01*
X145899379Y-87610367D01*
X145899380Y-87610369D01*
X145973157Y-87708808D01*
X145977456Y-87714544D01*
X145983192Y-87718843D01*
X146081631Y-87792620D01*
X146081633Y-87792621D01*
X146087365Y-87796917D01*
X146100211Y-87801733D01*
X146148836Y-87840478D01*
X146165500Y-87895932D01*
X146165500Y-89819026D01*
X146146287Y-89878157D01*
X146109583Y-89907092D01*
X146109699Y-89907266D01*
X146107488Y-89908743D01*
X146107485Y-89908745D01*
X146025516Y-89963516D01*
X145969266Y-90047699D01*
X145954500Y-90121933D01*
X145954501Y-90442066D01*
X145954728Y-90443207D01*
X145941663Y-90502765D01*
X145895189Y-90544067D01*
X145854870Y-90552500D01*
X143698174Y-90552500D01*
X143691143Y-90552058D01*
X143685222Y-90550287D01*
X143634954Y-90552262D01*
X143630881Y-90552422D01*
X143626932Y-90552500D01*
X141656216Y-90552500D01*
X141635042Y-90550246D01*
X141631253Y-90549430D01*
X141631252Y-90549430D01*
X141623124Y-90547680D01*
X141614870Y-90548657D01*
X141614869Y-90548657D01*
X141588291Y-90551803D01*
X141580499Y-90552262D01*
X141577620Y-90552500D01*
X141573476Y-90552500D01*
X141569386Y-90553181D01*
X141569384Y-90553181D01*
X141553828Y-90555770D01*
X141549136Y-90556438D01*
X141505913Y-90561554D01*
X141497659Y-90562531D01*
X141490651Y-90565896D01*
X141488051Y-90566718D01*
X141480374Y-90567996D01*
X141434700Y-90592640D01*
X141430527Y-90594767D01*
X141383768Y-90617220D01*
X141379492Y-90620814D01*
X141377959Y-90622347D01*
X141377017Y-90623211D01*
X141375198Y-90624746D01*
X141369186Y-90627990D01*
X141346972Y-90652021D01*
X141332266Y-90667930D01*
X141329528Y-90670778D01*
X140969271Y-91031035D01*
X140913873Y-91059261D01*
X140898136Y-91060500D01*
X140110106Y-91060500D01*
X140050975Y-91041287D01*
X140014430Y-90990987D01*
X140014430Y-90928813D01*
X140035902Y-90892068D01*
X140040104Y-90888479D01*
X140074277Y-90840923D01*
X140129008Y-90764757D01*
X140129010Y-90764754D01*
X140132545Y-90759834D01*
X140136412Y-90750216D01*
X140182299Y-90636068D01*
X140191632Y-90612851D01*
X140213952Y-90456017D01*
X140214097Y-90442210D01*
X140213482Y-90437123D01*
X140195795Y-90290965D01*
X140195794Y-90290963D01*
X140195066Y-90284943D01*
X140190018Y-90271582D01*
X140141215Y-90142432D01*
X140141214Y-90142431D01*
X140139070Y-90136756D01*
X140049343Y-90006202D01*
X139977260Y-89941979D01*
X139935594Y-89904856D01*
X139935593Y-89904855D01*
X139931065Y-89900821D01*
X139791064Y-89826694D01*
X139637423Y-89788102D01*
X139631366Y-89788070D01*
X139631364Y-89788070D01*
X139554240Y-89787666D01*
X139479011Y-89787272D01*
X139473114Y-89788688D01*
X139473112Y-89788688D01*
X139346746Y-89819026D01*
X139324974Y-89824253D01*
X139319588Y-89827033D01*
X139319585Y-89827034D01*
X139189592Y-89894129D01*
X139184204Y-89896910D01*
X139135274Y-89939595D01*
X139070421Y-89996170D01*
X139064829Y-90001048D01*
X139061341Y-90006010D01*
X139061339Y-90006013D01*
X139051539Y-90019956D01*
X139001819Y-90057286D01*
X138969234Y-90062710D01*
X138866836Y-90062710D01*
X138807705Y-90043497D01*
X138771160Y-89993197D01*
X138766501Y-89967686D01*
X138766499Y-89967686D01*
X138766496Y-89967658D01*
X138763493Y-89935873D01*
X138718209Y-89806924D01*
X138637010Y-89696990D01*
X138639616Y-89695065D01*
X138617739Y-89652128D01*
X138616500Y-89636391D01*
X138616500Y-89057418D01*
X138635713Y-88998287D01*
X138663228Y-88976618D01*
X138661301Y-88973734D01*
X138737247Y-88922988D01*
X138745484Y-88917484D01*
X138754195Y-88904448D01*
X138773560Y-88875466D01*
X138801734Y-88833301D01*
X138816500Y-88759067D01*
X138816499Y-88364100D01*
X138835712Y-88304969D01*
X138886012Y-88268424D01*
X138917099Y-88263500D01*
X139886207Y-88263500D01*
X139945976Y-88283180D01*
X139983924Y-88311209D01*
X140077054Y-88343914D01*
X140107089Y-88354462D01*
X140107091Y-88354462D01*
X140112873Y-88356493D01*
X140118972Y-88357069D01*
X140118974Y-88357070D01*
X140142322Y-88359277D01*
X140142330Y-88359277D01*
X140144685Y-88359500D01*
X140147063Y-88359500D01*
X140400020Y-88359499D01*
X140653314Y-88359499D01*
X140685127Y-88356493D01*
X140814076Y-88311209D01*
X140878669Y-88263500D01*
X140917961Y-88234478D01*
X140924010Y-88230010D01*
X140928478Y-88223961D01*
X141000742Y-88126124D01*
X141000742Y-88126123D01*
X141005209Y-88120076D01*
X141043944Y-88009777D01*
X141048462Y-87996911D01*
X141048462Y-87996909D01*
X141050493Y-87991127D01*
X141051070Y-87985021D01*
X141053277Y-87961678D01*
X141053278Y-87961662D01*
X141053500Y-87959315D01*
X141053499Y-87413062D01*
X141072712Y-87353932D01*
X141123012Y-87317387D01*
X141185186Y-87317387D01*
X141225234Y-87341928D01*
X141365035Y-87481729D01*
X141393261Y-87537127D01*
X141394500Y-87552864D01*
X141394501Y-87756427D01*
X141394501Y-87959314D01*
X141397507Y-87991127D01*
X141442791Y-88120076D01*
X141447258Y-88126123D01*
X141447258Y-88126124D01*
X141519522Y-88223961D01*
X141523990Y-88230010D01*
X141530039Y-88234478D01*
X141569332Y-88263500D01*
X141633924Y-88311209D01*
X141727054Y-88343914D01*
X141757089Y-88354462D01*
X141757091Y-88354462D01*
X141762873Y-88356493D01*
X141768972Y-88357069D01*
X141768974Y-88357070D01*
X141792322Y-88359277D01*
X141792330Y-88359277D01*
X141794685Y-88359500D01*
X141797063Y-88359500D01*
X142050020Y-88359499D01*
X142303314Y-88359499D01*
X142335127Y-88356493D01*
X142464076Y-88311209D01*
X142528669Y-88263500D01*
X142567961Y-88234478D01*
X142574010Y-88230010D01*
X142578478Y-88223961D01*
X142650742Y-88126124D01*
X142650742Y-88126123D01*
X142655209Y-88120076D01*
X142693944Y-88009777D01*
X142698462Y-87996911D01*
X142698462Y-87996909D01*
X142700493Y-87991127D01*
X142701070Y-87985021D01*
X142703277Y-87961678D01*
X142703278Y-87961662D01*
X142703500Y-87959315D01*
X142703499Y-87300686D01*
X142700493Y-87268873D01*
X142655209Y-87139924D01*
X142643959Y-87124692D01*
X142578478Y-87036039D01*
X142574010Y-87029990D01*
X142567961Y-87025522D01*
X142470124Y-86953258D01*
X142470123Y-86953258D01*
X142464076Y-86948791D01*
X142335127Y-86903507D01*
X142329026Y-86902930D01*
X142328259Y-86902762D01*
X142274620Y-86871323D01*
X142249704Y-86814359D01*
X142263030Y-86753630D01*
X142309506Y-86712331D01*
X142328259Y-86706238D01*
X142329028Y-86706069D01*
X142335127Y-86705493D01*
X142464076Y-86660209D01*
X142479010Y-86649179D01*
X142567961Y-86583478D01*
X142574010Y-86579010D01*
X142591776Y-86554957D01*
X142650742Y-86475124D01*
X142650742Y-86475123D01*
X142655209Y-86469076D01*
X142700493Y-86340127D01*
X142701070Y-86334026D01*
X142703277Y-86310678D01*
X142703277Y-86310670D01*
X142703500Y-86308315D01*
X142703499Y-85708189D01*
X142722712Y-85649058D01*
X142773012Y-85612513D01*
X142835186Y-85612513D01*
X142880254Y-85642456D01*
X142880523Y-85642768D01*
X142883908Y-85647805D01*
X143001076Y-85754419D01*
X143006403Y-85757311D01*
X143006404Y-85757312D01*
X143025599Y-85767734D01*
X143140293Y-85830008D01*
X143146163Y-85831548D01*
X143287655Y-85868668D01*
X143287656Y-85868668D01*
X143293522Y-85870207D01*
X143365716Y-85871341D01*
X143445852Y-85872600D01*
X143445854Y-85872600D01*
X143451916Y-85872695D01*
X143457827Y-85871341D01*
X143457829Y-85871341D01*
X143600422Y-85838683D01*
X143600425Y-85838682D01*
X143606332Y-85837329D01*
X143747855Y-85766151D01*
X143834904Y-85691804D01*
X143863705Y-85667206D01*
X143863707Y-85667204D01*
X143868314Y-85663269D01*
X143876367Y-85652063D01*
X143886187Y-85638396D01*
X143936295Y-85601588D01*
X143967883Y-85596500D01*
X145444136Y-85596500D01*
X145503267Y-85615713D01*
G37*
%TD.AperFunction*%
%TA.AperFunction,Conductor*%
G36*
X138798267Y-82567713D02*
G01*
X138810271Y-82577965D01*
X139141437Y-82909132D01*
X139154816Y-82925697D01*
X139161429Y-82935940D01*
X139167959Y-82941087D01*
X139167960Y-82941089D01*
X139188966Y-82957648D01*
X139194820Y-82962850D01*
X139197013Y-82964708D01*
X139199943Y-82967638D01*
X139203317Y-82970049D01*
X139216141Y-82979213D01*
X139219932Y-82982060D01*
X139254113Y-83009006D01*
X139254117Y-83009008D01*
X139260647Y-83014156D01*
X139267984Y-83016733D01*
X139270406Y-83017991D01*
X139276734Y-83022513D01*
X139284702Y-83024896D01*
X139284704Y-83024897D01*
X139326428Y-83037375D01*
X139330932Y-83038839D01*
X139379851Y-83056018D01*
X139385416Y-83056500D01*
X139387582Y-83056500D01*
X139388857Y-83056555D01*
X139391234Y-83056756D01*
X139397778Y-83058713D01*
X139452118Y-83056578D01*
X139456068Y-83056500D01*
X139682665Y-83056500D01*
X139741796Y-83075713D01*
X139777582Y-83123766D01*
X139792791Y-83167076D01*
X139797258Y-83173123D01*
X139797258Y-83173124D01*
X139834467Y-83223500D01*
X139873990Y-83277010D01*
X139880039Y-83281478D01*
X139968654Y-83346930D01*
X139983924Y-83358209D01*
X140112873Y-83403493D01*
X140118974Y-83404070D01*
X140119741Y-83404238D01*
X140173380Y-83435677D01*
X140198296Y-83492641D01*
X140184970Y-83553370D01*
X140138494Y-83594669D01*
X140119741Y-83600762D01*
X140118972Y-83600931D01*
X140112873Y-83601507D01*
X139983924Y-83646791D01*
X139977877Y-83651258D01*
X139977876Y-83651258D01*
X139886190Y-83718979D01*
X139873990Y-83727990D01*
X139869522Y-83734039D01*
X139811649Y-83812393D01*
X139792791Y-83837924D01*
X139780297Y-83873501D01*
X139777582Y-83881233D01*
X139739862Y-83930658D01*
X139682665Y-83948500D01*
X138892100Y-83948500D01*
X138832969Y-83929287D01*
X138796424Y-83878987D01*
X138791500Y-83847900D01*
X138791499Y-83457872D01*
X138791499Y-83452934D01*
X138784442Y-83417452D01*
X138778667Y-83388416D01*
X138778666Y-83388414D01*
X138776734Y-83378699D01*
X138771230Y-83370461D01*
X138725988Y-83302753D01*
X138720484Y-83294516D01*
X138636301Y-83238266D01*
X138579884Y-83227044D01*
X138566919Y-83224465D01*
X138566918Y-83224465D01*
X138562067Y-83223500D01*
X138488196Y-83223500D01*
X138450802Y-83215278D01*
X138450790Y-83215317D01*
X138450265Y-83215160D01*
X138443927Y-83213265D01*
X138443926Y-83213264D01*
X138319203Y-83175963D01*
X138319200Y-83175963D01*
X138312337Y-83173910D01*
X138305172Y-83173866D01*
X138305170Y-83173866D01*
X138240845Y-83173474D01*
X138167827Y-83173028D01*
X138160939Y-83174997D01*
X138160936Y-83174997D01*
X138035775Y-83210768D01*
X138028879Y-83212739D01*
X138025110Y-83215117D01*
X137985835Y-83223501D01*
X137911934Y-83223501D01*
X137876452Y-83230558D01*
X137847416Y-83236333D01*
X137847414Y-83236334D01*
X137837699Y-83238266D01*
X137753516Y-83294516D01*
X137697266Y-83378699D01*
X137682500Y-83452933D01*
X137682501Y-83903066D01*
X137692344Y-83952554D01*
X137697266Y-83977301D01*
X137695099Y-83977732D01*
X137698916Y-84026230D01*
X137697266Y-84028699D01*
X137682500Y-84102933D01*
X137682501Y-84553066D01*
X137684691Y-84564076D01*
X137697266Y-84627301D01*
X137695318Y-84627688D01*
X137699212Y-84677147D01*
X137696305Y-84686093D01*
X137683965Y-84748131D01*
X137683000Y-84757930D01*
X137683000Y-84762067D01*
X137687188Y-84774957D01*
X137691377Y-84778000D01*
X137879402Y-84778000D01*
X137899028Y-84779933D01*
X137907081Y-84781535D01*
X137907082Y-84781535D01*
X137911933Y-84782500D01*
X137985804Y-84782500D01*
X138023198Y-84790722D01*
X138023210Y-84790683D01*
X138030073Y-84792735D01*
X138030074Y-84792736D01*
X138154797Y-84830037D01*
X138154800Y-84830037D01*
X138161663Y-84832090D01*
X138168828Y-84832134D01*
X138168830Y-84832134D01*
X138233155Y-84832526D01*
X138306173Y-84832972D01*
X138313061Y-84831003D01*
X138313064Y-84831003D01*
X138438225Y-84795232D01*
X138438226Y-84795232D01*
X138445121Y-84793261D01*
X138448890Y-84790883D01*
X138488165Y-84782499D01*
X138562066Y-84782499D01*
X138566907Y-84781536D01*
X138566909Y-84781536D01*
X138570946Y-84780733D01*
X138574968Y-84779933D01*
X138594591Y-84778000D01*
X138775066Y-84778000D01*
X138787956Y-84773812D01*
X138805288Y-84749956D01*
X138808049Y-84751962D01*
X138815673Y-84736988D01*
X138871062Y-84708744D01*
X138886831Y-84707500D01*
X139682665Y-84707500D01*
X139741796Y-84726713D01*
X139777582Y-84774766D01*
X139792791Y-84818076D01*
X139797258Y-84824123D01*
X139797258Y-84824124D01*
X139863207Y-84913411D01*
X139873990Y-84928010D01*
X139880039Y-84932478D01*
X139965777Y-84995805D01*
X139983924Y-85009209D01*
X140112873Y-85054493D01*
X140118974Y-85055070D01*
X140119741Y-85055238D01*
X140173380Y-85086677D01*
X140198296Y-85143641D01*
X140184970Y-85204370D01*
X140138494Y-85245669D01*
X140119741Y-85251762D01*
X140118972Y-85251931D01*
X140112873Y-85252507D01*
X139983924Y-85297791D01*
X139977877Y-85302258D01*
X139977876Y-85302258D01*
X139922134Y-85343430D01*
X139873990Y-85378990D01*
X139869522Y-85385039D01*
X139822178Y-85449138D01*
X139792791Y-85488924D01*
X139777757Y-85531734D01*
X139777582Y-85532233D01*
X139739862Y-85581658D01*
X139682665Y-85599500D01*
X139497216Y-85599500D01*
X139476042Y-85597246D01*
X139472253Y-85596430D01*
X139472252Y-85596430D01*
X139464124Y-85594680D01*
X139455870Y-85595657D01*
X139455869Y-85595657D01*
X139429291Y-85598803D01*
X139421499Y-85599262D01*
X139418620Y-85599500D01*
X139414476Y-85599500D01*
X139410386Y-85600181D01*
X139410384Y-85600181D01*
X139394828Y-85602770D01*
X139390136Y-85603438D01*
X139346913Y-85608554D01*
X139338659Y-85609531D01*
X139331651Y-85612896D01*
X139329051Y-85613718D01*
X139321374Y-85614996D01*
X139275700Y-85639640D01*
X139271527Y-85641767D01*
X139224768Y-85664220D01*
X139220492Y-85667814D01*
X139218959Y-85669347D01*
X139218017Y-85670211D01*
X139216198Y-85671746D01*
X139210186Y-85674990D01*
X139191985Y-85694680D01*
X139173266Y-85714930D01*
X139170528Y-85717778D01*
X139064271Y-85824035D01*
X139008873Y-85852261D01*
X138993136Y-85853500D01*
X137790864Y-85853500D01*
X137731733Y-85834287D01*
X137719729Y-85824035D01*
X137649192Y-85753498D01*
X137649187Y-85753492D01*
X137093773Y-85198078D01*
X137683001Y-85198078D01*
X137683965Y-85207861D01*
X137695804Y-85267386D01*
X137703242Y-85285345D01*
X137748371Y-85352885D01*
X137762115Y-85366629D01*
X137829657Y-85411759D01*
X137847611Y-85419196D01*
X137907131Y-85431035D01*
X137916930Y-85432000D01*
X138021067Y-85432000D01*
X138033957Y-85427812D01*
X138037000Y-85423623D01*
X138037000Y-85416066D01*
X138437000Y-85416066D01*
X138441188Y-85428956D01*
X138445377Y-85431999D01*
X138557078Y-85431999D01*
X138566861Y-85431035D01*
X138626386Y-85419196D01*
X138644345Y-85411758D01*
X138711885Y-85366629D01*
X138725629Y-85352885D01*
X138770759Y-85285343D01*
X138778196Y-85267389D01*
X138790035Y-85207869D01*
X138791000Y-85198070D01*
X138791000Y-85193933D01*
X138786812Y-85181043D01*
X138782623Y-85178000D01*
X138452933Y-85178000D01*
X138440043Y-85182188D01*
X138437000Y-85186377D01*
X138437000Y-85416066D01*
X138037000Y-85416066D01*
X138037000Y-85193933D01*
X138032812Y-85181043D01*
X138028623Y-85178000D01*
X137698934Y-85178000D01*
X137686044Y-85182188D01*
X137683001Y-85186377D01*
X137683001Y-85198078D01*
X137093773Y-85198078D01*
X136920965Y-85025270D01*
X136892739Y-84969872D01*
X136891500Y-84954135D01*
X136891499Y-84757872D01*
X136891499Y-84752934D01*
X136876734Y-84678699D01*
X136878901Y-84678268D01*
X136875086Y-84629767D01*
X136876734Y-84627301D01*
X136891500Y-84553067D01*
X136891499Y-84102934D01*
X136876734Y-84028699D01*
X136878682Y-84028312D01*
X136874788Y-83978853D01*
X136877695Y-83969907D01*
X136890035Y-83907869D01*
X136891000Y-83898070D01*
X136891000Y-83893933D01*
X136886812Y-83881043D01*
X136882623Y-83878000D01*
X136694598Y-83878000D01*
X136674972Y-83876067D01*
X136666919Y-83874465D01*
X136666918Y-83874465D01*
X136662067Y-83873500D01*
X136657120Y-83873500D01*
X136336705Y-83873501D01*
X136011934Y-83873501D01*
X136007093Y-83874464D01*
X136007091Y-83874464D01*
X136003054Y-83875267D01*
X135999032Y-83876067D01*
X135979409Y-83878000D01*
X135798934Y-83878000D01*
X135786044Y-83882188D01*
X135768712Y-83906044D01*
X135765951Y-83904038D01*
X135758327Y-83919012D01*
X135702938Y-83947256D01*
X135687169Y-83948500D01*
X134930099Y-83948500D01*
X134870968Y-83929287D01*
X134834423Y-83878987D01*
X134829499Y-83847900D01*
X134829499Y-83744686D01*
X134826493Y-83712873D01*
X134781209Y-83583924D01*
X134770425Y-83569323D01*
X134704478Y-83480039D01*
X134700010Y-83473990D01*
X134683868Y-83462067D01*
X135783000Y-83462067D01*
X135787188Y-83474957D01*
X135791377Y-83478000D01*
X136121067Y-83478000D01*
X136133957Y-83473812D01*
X136137000Y-83469623D01*
X136137000Y-83462067D01*
X136537000Y-83462067D01*
X136541188Y-83474957D01*
X136545377Y-83478000D01*
X136875066Y-83478000D01*
X136887956Y-83473812D01*
X136890999Y-83469623D01*
X136890999Y-83457922D01*
X136890035Y-83448139D01*
X136878196Y-83388614D01*
X136870758Y-83370655D01*
X136825629Y-83303115D01*
X136811885Y-83289371D01*
X136744343Y-83244241D01*
X136726389Y-83236804D01*
X136666869Y-83224965D01*
X136657070Y-83224000D01*
X136552933Y-83224000D01*
X136540043Y-83228188D01*
X136537000Y-83232377D01*
X136537000Y-83462067D01*
X136137000Y-83462067D01*
X136137000Y-83239934D01*
X136132812Y-83227044D01*
X136128623Y-83224001D01*
X136016922Y-83224001D01*
X136007139Y-83224965D01*
X135947614Y-83236804D01*
X135929655Y-83244242D01*
X135862115Y-83289371D01*
X135848371Y-83303115D01*
X135803241Y-83370657D01*
X135795804Y-83388611D01*
X135783965Y-83448131D01*
X135783000Y-83457930D01*
X135783000Y-83462067D01*
X134683868Y-83462067D01*
X134613823Y-83410331D01*
X134596124Y-83397258D01*
X134596123Y-83397258D01*
X134590076Y-83392791D01*
X134478882Y-83353742D01*
X134466911Y-83349538D01*
X134466909Y-83349538D01*
X134461127Y-83347507D01*
X134455028Y-83346931D01*
X134455026Y-83346930D01*
X134431678Y-83344723D01*
X134431670Y-83344723D01*
X134429315Y-83344500D01*
X134418866Y-83344500D01*
X134034062Y-83344501D01*
X133974932Y-83325288D01*
X133938387Y-83274988D01*
X133938387Y-83212814D01*
X133962928Y-83172766D01*
X134212638Y-82923056D01*
X134557730Y-82577965D01*
X134613128Y-82549739D01*
X134628865Y-82548500D01*
X138739136Y-82548500D01*
X138798267Y-82567713D01*
G37*
%TD.AperFunction*%
M02*
