%TF.GenerationSoftware,KiCad,Pcbnew,9.0.1*%
%TF.CreationDate,2025-04-06T00:03:57-07:00*%
%TF.ProjectId,MPPT_addon_board,4d505054-5f61-4646-946f-6e5f626f6172,1.4*%
%TF.SameCoordinates,Original*%
%TF.FileFunction,Paste,Top*%
%TF.FilePolarity,Positive*%
%FSLAX46Y46*%
G04 Gerber Fmt 4.6, Leading zero omitted, Abs format (unit mm)*
G04 Created by KiCad (PCBNEW 9.0.1) date 2025-04-06 00:03:57*
%MOMM*%
%LPD*%
G01*
G04 APERTURE LIST*
G04 Aperture macros list*
%AMRoundRect*
0 Rectangle with rounded corners*
0 $1 Rounding radius*
0 $2 $3 $4 $5 $6 $7 $8 $9 X,Y pos of 4 corners*
0 Add a 4 corners polygon primitive as box body*
4,1,4,$2,$3,$4,$5,$6,$7,$8,$9,$2,$3,0*
0 Add four circle primitives for the rounded corners*
1,1,$1+$1,$2,$3*
1,1,$1+$1,$4,$5*
1,1,$1+$1,$6,$7*
1,1,$1+$1,$8,$9*
0 Add four rect primitives between the rounded corners*
20,1,$1+$1,$2,$3,$4,$5,0*
20,1,$1+$1,$4,$5,$6,$7,0*
20,1,$1+$1,$6,$7,$8,$9,0*
20,1,$1+$1,$8,$9,$2,$3,0*%
G04 Aperture macros list end*
%ADD10RoundRect,0.200000X-0.200000X-0.275000X0.200000X-0.275000X0.200000X0.275000X-0.200000X0.275000X0*%
%ADD11RoundRect,0.200000X0.275000X-0.200000X0.275000X0.200000X-0.275000X0.200000X-0.275000X-0.200000X0*%
%ADD12RoundRect,0.200000X-0.275000X0.200000X-0.275000X-0.200000X0.275000X-0.200000X0.275000X0.200000X0*%
%ADD13RoundRect,0.100000X-0.100000X0.225000X-0.100000X-0.225000X0.100000X-0.225000X0.100000X0.225000X0*%
%ADD14RoundRect,0.200000X0.200000X0.275000X-0.200000X0.275000X-0.200000X-0.275000X0.200000X-0.275000X0*%
%ADD15RoundRect,0.225000X0.250000X-0.225000X0.250000X0.225000X-0.250000X0.225000X-0.250000X-0.225000X0*%
%ADD16RoundRect,0.140000X1.910000X0.560000X-1.910000X0.560000X-1.910000X-0.560000X1.910000X-0.560000X0*%
%ADD17RoundRect,0.140000X-0.560000X1.910000X-0.560000X-1.910000X0.560000X-1.910000X0.560000X1.910000X0*%
%ADD18RoundRect,0.352000X3.168000X3.908000X-3.168000X3.908000X-3.168000X-3.908000X3.168000X-3.908000X0*%
%ADD19RoundRect,0.225000X0.225000X0.250000X-0.225000X0.250000X-0.225000X-0.250000X0.225000X-0.250000X0*%
%ADD20RoundRect,0.100000X0.100000X-0.225000X0.100000X0.225000X-0.100000X0.225000X-0.100000X-0.225000X0*%
%ADD21RoundRect,0.225000X-0.225000X-0.250000X0.225000X-0.250000X0.225000X0.250000X-0.225000X0.250000X0*%
%ADD22R,0.400000X0.600000*%
%ADD23R,1.140000X3.175000*%
G04 APERTURE END LIST*
D10*
%TO.C,R2*%
X140800000Y-83000000D03*
X142450000Y-83000000D03*
%TD*%
D11*
%TO.C,R28*%
X176200000Y-82825000D03*
X176200000Y-81175000D03*
%TD*%
D12*
%TO.C,R20*%
X153600000Y-76175000D03*
X153600000Y-77825000D03*
%TD*%
%TO.C,R29*%
X138500000Y-63100000D03*
X138500000Y-64750000D03*
%TD*%
%TO.C,R5*%
X111000000Y-76175000D03*
X111000000Y-77825000D03*
%TD*%
D13*
%TO.C,Q4*%
X127650000Y-76050000D03*
X127000000Y-76050000D03*
X126350000Y-76050000D03*
X126350000Y-77950000D03*
X127000000Y-77950000D03*
X127650000Y-77950000D03*
%TD*%
D12*
%TO.C,R4*%
X114000000Y-76175000D03*
X114000000Y-77825000D03*
%TD*%
D11*
%TO.C,R25*%
X166600000Y-80425000D03*
X166600000Y-78775000D03*
%TD*%
D14*
%TO.C,R16*%
X146250000Y-83000000D03*
X144600000Y-83000000D03*
%TD*%
D11*
%TO.C,R13*%
X120800000Y-80425000D03*
X120800000Y-78775000D03*
%TD*%
D12*
%TO.C,R17*%
X150600000Y-76175000D03*
X150600000Y-77825000D03*
%TD*%
D15*
%TO.C,C2*%
X130600000Y-82775000D03*
X130600000Y-81225000D03*
%TD*%
D16*
%TO.C,U1*%
X139850000Y-132500000D03*
X139850000Y-127380000D03*
X139850000Y-124840000D03*
X139850000Y-122300000D03*
X139850000Y-119760000D03*
X139850000Y-109600000D03*
X139850000Y-104520000D03*
X139850000Y-99440000D03*
X139850000Y-96900000D03*
X139850000Y-94360000D03*
X139850000Y-91820000D03*
X103600000Y-91820000D03*
X103600000Y-94360000D03*
X103600000Y-96900000D03*
X103600000Y-99440000D03*
X103600000Y-104520000D03*
X103600000Y-109600000D03*
X103600000Y-119760000D03*
X103600000Y-122300000D03*
X103600000Y-124840000D03*
X103600000Y-127380000D03*
X103600000Y-132500000D03*
D17*
X109600000Y-135500000D03*
X121725000Y-135500000D03*
X133850000Y-135500000D03*
D18*
X121725000Y-125475000D03*
%TD*%
D19*
%TO.C,C5*%
X119400000Y-72400000D03*
X117850000Y-72400000D03*
%TD*%
D12*
%TO.C,R21*%
X150600000Y-81175000D03*
X150600000Y-82825000D03*
%TD*%
D11*
%TO.C,R12*%
X133600000Y-82825000D03*
X133600000Y-81175000D03*
%TD*%
D12*
%TO.C,R10*%
X133600000Y-76175000D03*
X133600000Y-77825000D03*
%TD*%
%TO.C,R24*%
X173200000Y-76175000D03*
X173200000Y-77825000D03*
%TD*%
%TO.C,R9*%
X130600000Y-76175000D03*
X130600000Y-77825000D03*
%TD*%
D20*
%TO.C,Q9*%
X142900000Y-79650000D03*
X143550000Y-79650000D03*
X144200000Y-79650000D03*
X144200000Y-77750000D03*
X143550000Y-77750000D03*
X142900000Y-77750000D03*
%TD*%
D14*
%TO.C,R1*%
X142400000Y-85200000D03*
X140750000Y-85200000D03*
%TD*%
D12*
%TO.C,R23*%
X179200000Y-76175000D03*
X179200000Y-77825000D03*
%TD*%
D11*
%TO.C,R19*%
X163400000Y-80425000D03*
X163400000Y-78775000D03*
%TD*%
%TO.C,R14*%
X124000000Y-80425000D03*
X124000000Y-78775000D03*
%TD*%
D15*
%TO.C,C4*%
X173200000Y-82775000D03*
X173200000Y-81225000D03*
%TD*%
D12*
%TO.C,R3*%
X108000000Y-76175000D03*
X108000000Y-77825000D03*
%TD*%
%TO.C,R8*%
X136600000Y-76175000D03*
X136600000Y-77825000D03*
%TD*%
D21*
%TO.C,C6*%
X125425000Y-61600000D03*
X126975000Y-61600000D03*
%TD*%
D22*
%TO.C,Q3*%
X127650000Y-81050000D03*
X127000000Y-81050000D03*
X126350000Y-81050000D03*
X126350000Y-82950000D03*
X127000000Y-82950000D03*
X127650000Y-82950000D03*
%TD*%
D12*
%TO.C,R26*%
X176200000Y-76175000D03*
X176200000Y-77825000D03*
%TD*%
%TO.C,R6*%
X108000000Y-81175000D03*
X108000000Y-82825000D03*
%TD*%
D15*
%TO.C,C1*%
X114000000Y-82775000D03*
X114000000Y-81225000D03*
%TD*%
D11*
%TO.C,R22*%
X153600000Y-82825000D03*
X153600000Y-81175000D03*
%TD*%
D22*
%TO.C,Q5*%
X160850000Y-81050000D03*
X160200000Y-81050000D03*
X159550000Y-81050000D03*
X159550000Y-82950000D03*
X160200000Y-82950000D03*
X160850000Y-82950000D03*
%TD*%
D12*
%TO.C,R30*%
X135700000Y-63100000D03*
X135700000Y-64750000D03*
%TD*%
D13*
%TO.C,Q2*%
X118250000Y-76050000D03*
X117600000Y-76050000D03*
X116950000Y-76050000D03*
X116950000Y-77950000D03*
X117600000Y-77950000D03*
X118250000Y-77950000D03*
%TD*%
D16*
%TO.C,U2*%
X183325000Y-132500000D03*
X183325000Y-127380000D03*
X183325000Y-124840000D03*
X183325000Y-122300000D03*
X183325000Y-119760000D03*
X183325000Y-109600000D03*
X183325000Y-104520000D03*
X183325000Y-99440000D03*
X183325000Y-96900000D03*
X183325000Y-94360000D03*
X183325000Y-91820000D03*
X147075000Y-91820000D03*
X147075000Y-94360000D03*
X147075000Y-96900000D03*
X147075000Y-99440000D03*
X147075000Y-104520000D03*
X147075000Y-109600000D03*
X147075000Y-119760000D03*
X147075000Y-122300000D03*
X147075000Y-124840000D03*
X147075000Y-127380000D03*
X147075000Y-132500000D03*
D17*
X153075000Y-135500000D03*
X165200000Y-135500000D03*
X177325000Y-135500000D03*
D18*
X165200000Y-125475000D03*
%TD*%
D22*
%TO.C,Q1*%
X118300000Y-81050000D03*
X117650000Y-81050000D03*
X117000000Y-81050000D03*
X117000000Y-82950000D03*
X117650000Y-82950000D03*
X118300000Y-82950000D03*
%TD*%
D13*
%TO.C,Q6*%
X160850000Y-76050000D03*
X160200000Y-76050000D03*
X159550000Y-76050000D03*
X159550000Y-77950000D03*
X160200000Y-77950000D03*
X160850000Y-77950000D03*
%TD*%
D12*
%TO.C,R18*%
X156600000Y-76175000D03*
X156600000Y-77825000D03*
%TD*%
D22*
%TO.C,Q7*%
X170250000Y-81050000D03*
X169600000Y-81050000D03*
X168950000Y-81050000D03*
X168950000Y-82950000D03*
X169600000Y-82950000D03*
X170250000Y-82950000D03*
%TD*%
D23*
%TO.C,J1*%
X112270000Y-69552500D03*
X112270000Y-64347500D03*
X114810000Y-69552500D03*
X114810000Y-64347500D03*
X117350000Y-69552500D03*
X117350000Y-64347500D03*
X119890000Y-69552500D03*
X119890000Y-64347500D03*
X122430000Y-69552500D03*
X122430000Y-64347500D03*
X124970000Y-69552500D03*
X124970000Y-64347500D03*
X127510000Y-69552500D03*
X127510000Y-64347500D03*
X130050000Y-69552500D03*
X130050000Y-64347500D03*
X132590000Y-69552500D03*
X132590000Y-64347500D03*
%TD*%
D13*
%TO.C,Q8*%
X170250000Y-76050000D03*
X169600000Y-76050000D03*
X168950000Y-76050000D03*
X168950000Y-77950000D03*
X169600000Y-77950000D03*
X170250000Y-77950000D03*
%TD*%
D14*
%TO.C,R15*%
X146225000Y-85200000D03*
X144575000Y-85200000D03*
%TD*%
D11*
%TO.C,R7*%
X111000000Y-82825000D03*
X111000000Y-81175000D03*
%TD*%
D12*
%TO.C,R11*%
X136600000Y-81175000D03*
X136600000Y-82825000D03*
%TD*%
D15*
%TO.C,C3*%
X156600000Y-82800000D03*
X156600000Y-81250000D03*
%TD*%
D12*
%TO.C,R27*%
X179200000Y-81175000D03*
X179200000Y-82825000D03*
%TD*%
M02*
