%TF.GenerationSoftware,KiCad,Pcbnew,9.0.1*%
%TF.CreationDate,2025-04-22T22:25:35-07:00*%
%TF.ProjectId,ZPlus_Panel,5a506c75-735f-4506-916e-656c2e6b6963,2.4*%
%TF.SameCoordinates,Original*%
%TF.FileFunction,Profile,NP*%
%FSLAX46Y46*%
G04 Gerber Fmt 4.6, Leading zero omitted, Abs format (unit mm)*
G04 Created by KiCad (PCBNEW 9.0.1) date 2025-04-22 22:25:35*
%MOMM*%
%LPD*%
G01*
G04 APERTURE LIST*
%TA.AperFunction,Profile*%
%ADD10C,0.050000*%
%TD*%
%TA.AperFunction,Profile*%
%ADD11C,0.100000*%
%TD*%
G04 APERTURE END LIST*
D10*
X185700000Y-41000000D02*
X174450000Y-41000000D01*
X174450000Y-40000000D02*
X174450000Y-41000000D01*
X174450000Y-40000000D02*
X122550000Y-40000000D01*
X185700000Y-136000000D02*
X185700000Y-125500000D01*
X122550000Y-41000000D02*
X111300000Y-41000000D01*
X111300000Y-51500000D02*
X100000000Y-51500000D01*
X161987035Y-71217200D02*
X161987035Y-73757200D01*
X185700000Y-51500000D02*
X185700000Y-41000000D01*
X171947035Y-101737200D02*
X171947035Y-104277200D01*
X171947035Y-104277200D02*
X161787035Y-104277200D01*
X171942000Y-106817200D02*
X161782000Y-106817200D01*
X172142000Y-68677200D02*
X172142000Y-64867200D01*
X161982000Y-64867200D02*
X161982000Y-68677200D01*
X161787035Y-101737200D02*
X171947035Y-101737200D01*
X197000000Y-125500000D02*
X185700000Y-125500000D01*
X111300000Y-125500000D02*
X100000000Y-125500000D01*
X172147035Y-73757200D02*
X172147035Y-71217200D01*
X111300000Y-51500000D02*
X111300000Y-41000000D01*
X161782000Y-110627200D02*
X171942000Y-110627200D01*
X172142000Y-64867200D02*
X161982000Y-64867200D01*
X122550000Y-137000000D02*
X122550000Y-136000000D01*
X100000000Y-51500000D02*
X100000000Y-125500000D01*
X122550000Y-136000000D02*
X111300000Y-136000000D01*
X185700000Y-136000000D02*
X174450000Y-136000000D01*
X161782000Y-106817200D02*
X161782000Y-110627200D01*
X174450000Y-137000000D02*
X122550000Y-137000000D01*
X197000000Y-125500000D02*
X197000000Y-51500000D01*
X161787035Y-104277200D02*
X161787035Y-101737200D01*
X197000000Y-51500000D02*
X185700000Y-51500000D01*
X122550000Y-41000000D02*
X122550000Y-40000000D01*
X172147035Y-71217200D02*
X161987035Y-71217200D01*
X161982000Y-68677200D02*
X172142000Y-68677200D01*
X174450000Y-136000000D02*
X174450000Y-137000000D01*
X161987035Y-73757200D02*
X172147035Y-73757200D01*
X111300000Y-136000000D02*
X111300000Y-125500000D01*
X171942000Y-110627200D02*
X171942000Y-106817200D01*
D11*
X132138000Y-95943200D02*
X150663000Y-95943200D01*
X150663000Y-107843200D01*
X132138000Y-107843200D01*
X132138000Y-95943200D01*
%TO.C,AE2*%
X129475500Y-70868200D02*
X129475500Y-81168200D01*
X129475500Y-70868200D02*
X149250500Y-70868200D01*
X129475500Y-81168200D02*
X149250500Y-81168200D01*
X149250500Y-70868200D02*
G75*
G02*
X149250500Y-81168200I2054J-5150000D01*
G01*
%TD*%
M02*
