%TF.GenerationSoftware,KiCad,Pcbnew,9.0.1*%
%TF.CreationDate,2025-04-05T23:02:22-07:00*%
%TF.ProjectId,FlexDeploySidePanels,466c6578-4465-4706-9c6f-795369646550,3.3*%
%TF.SameCoordinates,Original*%
%TF.FileFunction,Other,User*%
%FSLAX46Y46*%
G04 Gerber Fmt 4.6, Leading zero omitted, Abs format (unit mm)*
G04 Created by KiCad (PCBNEW 9.0.1) date 2025-04-05 23:02:22*
%MOMM*%
%LPD*%
G01*
G04 APERTURE LIST*
%ADD10C,0.200000*%
G04 APERTURE END LIST*
D10*
X125195400Y-269244400D02*
G75*
G02*
X127195400Y-267244400I2000000J0D01*
G01*
X415213400Y-312744400D02*
G75*
G02*
X413213400Y-314744400I-2000000J0D01*
G01*
X418213400Y-110994400D02*
G75*
G02*
X416213400Y-108994400I0J2000000D01*
G01*
X261195400Y-110994400D02*
X254705400Y-110994400D01*
X93195400Y-210994400D02*
G75*
G02*
X95195400Y-212994400I0J-2000000D01*
G01*
X418213400Y-302994400D02*
X423713400Y-302994400D01*
X418213400Y-110994400D02*
G75*
G02*
X416213400Y-108994400I0J2000000D01*
G01*
X413213400Y-99244400D02*
G75*
G02*
X415213400Y-101244400I0J-2000000D01*
G01*
X415213400Y-304994400D02*
X415213400Y-312744400D01*
X362024725Y-266995359D02*
X339413400Y-266995359D01*
X172195400Y-304994400D02*
X172195400Y-312744400D01*
X169595400Y-107244400D02*
X164195400Y-107244400D01*
X182195400Y-300994400D02*
G75*
G02*
X180195400Y-302994400I-2000000J0D01*
G01*
X321005400Y-112994400D02*
G75*
G02*
X323005400Y-110994400I2000000J0D01*
G01*
X182195400Y-300994400D02*
G75*
G02*
X180195400Y-302994400I-2000000J0D01*
G01*
X494213400Y-302994400D02*
G75*
G02*
X496213400Y-304994400I0J-2000000D01*
G01*
X242195400Y-112994400D02*
G75*
G02*
X244195400Y-110994400I2000000J0D01*
G01*
X93195400Y-210994400D02*
X92195400Y-210994400D01*
X92195400Y-109244400D02*
G75*
G02*
X90195400Y-107244400I0J2000000D01*
G01*
X405713400Y-239908101D02*
X405713400Y-300994400D01*
X162195400Y-265244400D02*
G75*
G02*
X160195400Y-267244400I-2000000J0D01*
G01*
X90195400Y-101244400D02*
X90195400Y-107244400D01*
X346913400Y-152094400D02*
X346913400Y-238094400D01*
X252705400Y-304994400D02*
X252705400Y-312744400D01*
X254705400Y-110994400D02*
G75*
G02*
X252705400Y-108994400I0J2000000D01*
G01*
X171595400Y-308744400D02*
X171595400Y-312744400D01*
X252705400Y-101244400D02*
X252705400Y-108994400D01*
X244195400Y-302994400D02*
X250195400Y-302994400D01*
X323005400Y-133994400D02*
G75*
G02*
X321005400Y-131994400I0J2000000D01*
G01*
X425713400Y-174080699D02*
X425713400Y-112994400D01*
X405213400Y-238585225D02*
G75*
G02*
X405713400Y-239908101I-1500000J-1322875D01*
G01*
X92195400Y-210994400D02*
X93195400Y-210994400D01*
X125195400Y-269244400D02*
X125195400Y-304744400D01*
X242195400Y-112994400D02*
G75*
G02*
X244195400Y-110994400I2000000J0D01*
G01*
X254705400Y-314744400D02*
X328505400Y-314744400D01*
X330505400Y-108994400D02*
G75*
G02*
X328505400Y-110994400I-2000000J0D01*
G01*
X494213400Y-99244400D02*
G75*
G02*
X496213400Y-101244400I0J-2000000D01*
G01*
X413213400Y-314744400D02*
X339413400Y-314744400D01*
X171595400Y-105244400D02*
G75*
G02*
X169595400Y-107244400I-2000000J0D01*
G01*
X339413400Y-110994400D02*
G75*
G02*
X337413400Y-108994400I0J2000000D01*
G01*
X252195400Y-312744400D02*
G75*
G02*
X250195400Y-314744400I-2000000J0D01*
G01*
X95195400Y-200994400D02*
G75*
G02*
X93195400Y-202994400I-2000000J0D01*
G01*
X416213400Y-101244400D02*
G75*
G02*
X418213400Y-99244400I2000000J0D01*
G01*
X162195400Y-223994400D02*
X162195400Y-189994400D01*
X413213400Y-110994400D02*
X407713400Y-110994400D01*
X90195400Y-204994400D02*
X90195400Y-208994400D01*
X339413400Y-110994400D02*
G75*
G02*
X337413400Y-108994400I0J2000000D01*
G01*
X242195400Y-300994400D02*
X242195400Y-281994400D01*
X488713400Y-302994400D02*
X494213400Y-302994400D01*
X321005400Y-152094400D02*
G75*
G02*
X323005400Y-150094400I2000000J0D01*
G01*
X346913400Y-131994400D02*
X346913400Y-112994400D01*
X252705400Y-304994400D02*
G75*
G02*
X254705400Y-302994400I2000000J0D01*
G01*
X95195400Y-302744400D02*
G75*
G02*
X93195400Y-304744400I-2000000J0D01*
G01*
X416213400Y-101244400D02*
G75*
G02*
X418213400Y-99244400I2000000J0D01*
G01*
X494213400Y-99244400D02*
X418213400Y-99244400D01*
X321005400Y-238094400D02*
X321005400Y-152094400D01*
X174195400Y-302994400D02*
X180195400Y-302994400D01*
X425713400Y-239908101D02*
G75*
G02*
X426213400Y-238585225I2000000J1D01*
G01*
X291971425Y-293110096D02*
G75*
G02*
X291239313Y-290378009I999975J1732096D01*
G01*
X494213400Y-302994400D02*
X488713400Y-302994400D01*
X330505400Y-108994400D02*
G75*
G02*
X328505400Y-110994400I-2000000J0D01*
G01*
X169595400Y-99244400D02*
G75*
G02*
X171595400Y-101244400I0J-2000000D01*
G01*
X494213400Y-314744400D02*
X418213400Y-314744400D01*
X344913400Y-110994400D02*
X339413400Y-110994400D01*
X242195400Y-269994400D02*
X242195400Y-143994400D01*
X407713400Y-110994400D02*
X413213400Y-110994400D01*
X346913400Y-238094400D02*
X346913400Y-152094400D01*
X407713400Y-302994400D02*
G75*
G02*
X405713400Y-300994400I0J2000000D01*
G01*
X337413400Y-101244400D02*
G75*
G02*
X339413400Y-99244400I2000000J0D01*
G01*
X496213400Y-312744400D02*
G75*
G02*
X494213400Y-314744400I-2000000J0D01*
G01*
X413213400Y-99244400D02*
X339413400Y-99244400D01*
X250195400Y-302994400D02*
G75*
G02*
X252195400Y-304994400I0J-2000000D01*
G01*
X321005400Y-131994400D02*
X321005400Y-112994400D01*
X318586733Y-308476451D02*
X291971425Y-293110096D01*
X494213400Y-302994400D02*
G75*
G02*
X496213400Y-304994400I0J-2000000D01*
G01*
X375947375Y-293110096D02*
X349332067Y-308476451D01*
X323005400Y-133994400D02*
X328505400Y-133994400D01*
X182195400Y-235994400D02*
X182195400Y-300994400D01*
X425713400Y-112994400D02*
X425713400Y-174080699D01*
X90195400Y-312744400D02*
X90195400Y-306744400D01*
X93195400Y-210994400D02*
G75*
G02*
X95195400Y-212994400I0J-2000000D01*
G01*
X323005400Y-240094400D02*
G75*
G02*
X321005400Y-238094400I0J2000000D01*
G01*
X319586733Y-308744400D02*
X328505400Y-308744400D01*
X418213400Y-110994400D02*
X423713400Y-110994400D01*
X339413400Y-110994400D02*
X344913400Y-110994400D01*
X90195400Y-204994400D02*
G75*
G02*
X92195400Y-202994400I2000000J0D01*
G01*
X252705400Y-312744400D02*
X252705400Y-304994400D01*
X496213400Y-108994400D02*
X496213400Y-101244400D01*
X337413400Y-101244400D02*
X337413400Y-108994400D01*
X346913400Y-238094400D02*
G75*
G02*
X344913400Y-240094400I-2000000J0D01*
G01*
X337413400Y-310744400D02*
G75*
G02*
X339413400Y-308744400I2000000J0D01*
G01*
X426213400Y-175403575D02*
G75*
G02*
X425713400Y-174080699I1500000J1322875D01*
G01*
X254705400Y-110994400D02*
X261195400Y-110994400D01*
X171595400Y-101244400D02*
X171595400Y-105244400D01*
X330505400Y-312744400D02*
G75*
G02*
X328505400Y-314744400I-2000000J0D01*
G01*
X339413400Y-314744400D02*
G75*
G02*
X337413400Y-312744400I0J2000000D01*
G01*
X291239375Y-290378045D02*
X304162024Y-267995359D01*
X405713400Y-173262349D02*
G75*
G02*
X405213425Y-174585247I-2000000J-51D01*
G01*
X346913400Y-112994400D02*
X346913400Y-131994400D01*
X330505400Y-310744400D02*
X330505400Y-312744400D01*
X162195400Y-265244400D02*
X162195400Y-235994400D01*
X252705400Y-101244400D02*
G75*
G02*
X254705400Y-99244400I2000000J0D01*
G01*
X337413400Y-312744400D02*
X337413400Y-310744400D01*
X182195400Y-112994400D02*
X182195400Y-177994400D01*
X254705400Y-110994400D02*
G75*
G02*
X252705400Y-108994400I0J2000000D01*
G01*
X407713400Y-302994400D02*
G75*
G02*
X405713400Y-300994400I0J2000000D01*
G01*
X413213400Y-99244400D02*
G75*
G02*
X415213400Y-101244400I0J-2000000D01*
G01*
X339413400Y-133994400D02*
X344913400Y-133994400D01*
X250195400Y-110994400D02*
X244195400Y-110994400D01*
X415213400Y-312744400D02*
X415213400Y-304994400D01*
X423713400Y-110994400D02*
X418213400Y-110994400D01*
X404713400Y-175908101D02*
G75*
G02*
X405213400Y-174585225I2000000J1D01*
G01*
X160195400Y-267244400D02*
X127195400Y-267244400D01*
X92195400Y-109244400D02*
X93195400Y-109244400D01*
X254705400Y-314744400D02*
G75*
G02*
X252705400Y-312744400I0J2000000D01*
G01*
X92195400Y-99244400D02*
X169595400Y-99244400D01*
X263195400Y-300994400D02*
G75*
G02*
X261195400Y-302994400I-2000000J0D01*
G01*
X252705400Y-108994400D02*
X252705400Y-101244400D01*
X93195400Y-109244400D02*
G75*
G02*
X95195400Y-111244400I0J-2000000D01*
G01*
X93195400Y-304744400D02*
X92195400Y-304744400D01*
X425713400Y-239908101D02*
X425713400Y-300994400D01*
X169595400Y-306744400D02*
G75*
G02*
X171595400Y-308744400I0J-2000000D01*
G01*
X169595400Y-314744400D02*
X92195400Y-314744400D01*
X93195400Y-109244400D02*
G75*
G02*
X95195400Y-111244400I0J-2000000D01*
G01*
X242195400Y-131994400D02*
X242195400Y-112994400D01*
X95195400Y-302744400D02*
G75*
G02*
X93195400Y-304744400I-2000000J0D01*
G01*
X250195400Y-99244400D02*
X174195400Y-99244400D01*
X172195400Y-304994400D02*
G75*
G02*
X174195400Y-302994400I2000000J0D01*
G01*
X321005400Y-112994400D02*
X321005400Y-131994400D01*
X376679425Y-290378045D02*
X363756776Y-267995359D01*
X426713400Y-237262349D02*
X426713400Y-176726451D01*
X169595400Y-99244400D02*
G75*
G02*
X171595400Y-101244400I0J-2000000D01*
G01*
X323005400Y-240094400D02*
X328505400Y-240094400D01*
X172195400Y-101244400D02*
G75*
G02*
X174195400Y-99244400I2000000J0D01*
G01*
X404713400Y-223994400D02*
X404718003Y-224130018D01*
X172195400Y-304994400D02*
G75*
G02*
X174195400Y-302994400I2000000J0D01*
G01*
X344913400Y-150094400D02*
X339413400Y-150094400D01*
X328505400Y-240094400D02*
X328505400Y-266995359D01*
X252195400Y-304994400D02*
X252195400Y-312744400D01*
X174195400Y-99244400D02*
X250195400Y-99244400D01*
X404713400Y-175908101D02*
G75*
G02*
X405213400Y-174585225I2000000J1D01*
G01*
X330505400Y-312744400D02*
G75*
G02*
X328505400Y-314744400I-2000000J0D01*
G01*
X92195400Y-304744400D02*
X93195400Y-304744400D01*
X415213400Y-108994400D02*
X415213400Y-101244400D01*
X404713400Y-235994400D02*
G75*
G02*
X405081477Y-234838187I2000000J0D01*
G01*
X162195400Y-265244400D02*
G75*
G02*
X160195400Y-267244400I-2000000J0D01*
G01*
X330505400Y-101244400D02*
X330505400Y-108994400D01*
X321005400Y-152094400D02*
X321005400Y-238094400D01*
X348332067Y-308744400D02*
X339413400Y-308744400D01*
X404718003Y-224130018D02*
X405081477Y-234838187D01*
X362024725Y-266995359D02*
G75*
G02*
X363756775Y-267995360I-25J-2000041D01*
G01*
X180195400Y-110994400D02*
G75*
G02*
X182195400Y-112994400I0J-2000000D01*
G01*
X90195400Y-306744400D02*
X90195400Y-312744400D01*
X496213400Y-312744400D02*
X496213400Y-304994400D01*
X291971425Y-293110096D02*
X318586733Y-308476451D01*
X92195400Y-109244400D02*
G75*
G02*
X90195400Y-107244400I0J2000000D01*
G01*
X346913400Y-131994400D02*
G75*
G02*
X344913400Y-133994400I-2000000J0D01*
G01*
X339413400Y-99244400D02*
X413213400Y-99244400D01*
X425713400Y-300994400D02*
G75*
G02*
X423713400Y-302994400I-2000000J0D01*
G01*
X415213400Y-108994400D02*
G75*
G02*
X413213400Y-110994400I-2000000J0D01*
G01*
X339413400Y-308744400D02*
X348332067Y-308744400D01*
X426713400Y-237262349D02*
G75*
G02*
X426213425Y-238585247I-2000000J-51D01*
G01*
X405713400Y-112994400D02*
G75*
G02*
X407713400Y-110994400I2000000J0D01*
G01*
X496213400Y-108994400D02*
G75*
G02*
X494213400Y-110994400I-2000000J0D01*
G01*
X328505400Y-308744400D02*
G75*
G02*
X330505400Y-310744400I0J-2000000D01*
G01*
X330505400Y-108994400D02*
X330505400Y-101244400D01*
X423713400Y-302994400D02*
X418213400Y-302994400D01*
X405713400Y-112994400D02*
X405713400Y-173262349D01*
X321005400Y-112994400D02*
G75*
G02*
X323005400Y-110994400I2000000J0D01*
G01*
X339413400Y-314744400D02*
X413213400Y-314744400D01*
X252195400Y-108994400D02*
G75*
G02*
X250195400Y-110994400I-2000000J0D01*
G01*
X486713400Y-112994400D02*
X486713400Y-300994400D01*
X376679425Y-290378045D02*
G75*
G02*
X375947339Y-293110034I-1732025J-999955D01*
G01*
X376679425Y-290378045D02*
G75*
G02*
X375947339Y-293110034I-1732025J-999955D01*
G01*
X261195400Y-302994400D02*
X254705400Y-302994400D01*
X423713400Y-110994400D02*
G75*
G02*
X425713400Y-112994400I0J-2000000D01*
G01*
X250195400Y-302994400D02*
X244195400Y-302994400D01*
X169595400Y-99244400D02*
X92195400Y-99244400D01*
X423713400Y-110994400D02*
G75*
G02*
X425713400Y-112994400I0J-2000000D01*
G01*
X404713400Y-237262349D02*
X404713400Y-235994400D01*
X405713400Y-300994400D02*
X405713400Y-239908101D01*
X92195400Y-210994400D02*
G75*
G02*
X90195400Y-208994400I0J2000000D01*
G01*
X92195400Y-210994400D02*
G75*
G02*
X90195400Y-208994400I0J2000000D01*
G01*
X95195400Y-200994400D02*
G75*
G02*
X93195400Y-202994400I-2000000J0D01*
G01*
X496213400Y-304994400D02*
X496213400Y-312744400D01*
X404713400Y-175908101D02*
X404713400Y-223994400D01*
X416213400Y-304994400D02*
G75*
G02*
X418213400Y-302994400I2000000J0D01*
G01*
X174195400Y-110994400D02*
G75*
G02*
X172195400Y-108994400I0J2000000D01*
G01*
X426213400Y-175403575D02*
G75*
G02*
X425713400Y-174080699I1500000J1322875D01*
G01*
X328505400Y-150094400D02*
X323005400Y-150094400D01*
X416213400Y-108994400D02*
X416213400Y-101244400D01*
X304162024Y-267995359D02*
G75*
G02*
X305894075Y-266995358I1732076J-1000041D01*
G01*
X92195400Y-314744400D02*
X169595400Y-314744400D01*
X263195400Y-112994400D02*
X263195400Y-131994400D01*
X162195400Y-109244400D02*
G75*
G02*
X164195400Y-107244400I2000000J0D01*
G01*
X172195400Y-101244400D02*
X172195400Y-108994400D01*
X319586733Y-308744400D02*
G75*
G02*
X318586725Y-308476465I-33J2000000D01*
G01*
X344913400Y-110994400D02*
G75*
G02*
X346913400Y-112994400I0J-2000000D01*
G01*
X174195400Y-314744400D02*
G75*
G02*
X172195400Y-312744400I0J2000000D01*
G01*
X425713400Y-300994400D02*
G75*
G02*
X423713400Y-302994400I-2000000J0D01*
G01*
X254705400Y-99244400D02*
X328505400Y-99244400D01*
X250195400Y-99244400D02*
G75*
G02*
X252195400Y-101244400I0J-2000000D01*
G01*
X171595400Y-312744400D02*
G75*
G02*
X169595400Y-314744400I-2000000J0D01*
G01*
X250195400Y-302994400D02*
G75*
G02*
X252195400Y-304994400I0J-2000000D01*
G01*
X263195400Y-300994400D02*
X263195400Y-112994400D01*
X405213400Y-238585225D02*
G75*
G02*
X405713400Y-239908101I-1500000J-1322875D01*
G01*
X413213400Y-302994400D02*
X407713400Y-302994400D01*
X488713400Y-302994400D02*
G75*
G02*
X486713400Y-300994400I0J2000000D01*
G01*
X328505400Y-99244400D02*
G75*
G02*
X330505400Y-101244400I0J-2000000D01*
G01*
X263195400Y-143994400D02*
X263195400Y-269994400D01*
X328505400Y-99244400D02*
X254705400Y-99244400D01*
X171595400Y-105244400D02*
X171595400Y-101244400D01*
X252195400Y-312744400D02*
G75*
G02*
X250195400Y-314744400I-2000000J0D01*
G01*
X339413400Y-314744400D02*
G75*
G02*
X337413400Y-312744400I0J2000000D01*
G01*
X328505400Y-110994400D02*
X323005400Y-110994400D01*
X344913400Y-150094400D02*
G75*
G02*
X346913400Y-152094400I0J-2000000D01*
G01*
X164195400Y-107244400D02*
X169595400Y-107244400D01*
X250195400Y-99244400D02*
G75*
G02*
X252195400Y-101244400I0J-2000000D01*
G01*
X425713400Y-239908101D02*
G75*
G02*
X426213400Y-238585225I2000000J1D01*
G01*
X418213400Y-99244400D02*
X494213400Y-99244400D01*
X162195400Y-177994400D02*
X162195400Y-109244400D01*
X496213400Y-108994400D02*
G75*
G02*
X494213400Y-110994400I-2000000J0D01*
G01*
X162195400Y-109244400D02*
G75*
G02*
X164195400Y-107244400I2000000J0D01*
G01*
X95195400Y-302744400D02*
X95195400Y-212994400D01*
X362024725Y-266995359D02*
G75*
G02*
X363756775Y-267995360I-25J-2000041D01*
G01*
X339413400Y-240094400D02*
X344913400Y-240094400D01*
X127195400Y-306744400D02*
X169595400Y-306744400D01*
X496213400Y-312744400D02*
G75*
G02*
X494213400Y-314744400I-2000000J0D01*
G01*
X328505400Y-314744400D02*
X254705400Y-314744400D01*
X363756776Y-267995359D02*
X376679425Y-290378045D01*
X242195400Y-112994400D02*
X242195400Y-300994400D01*
X90195400Y-204994400D02*
G75*
G02*
X92195400Y-202994400I2000000J0D01*
G01*
X404713400Y-223994400D02*
X404713400Y-189994400D01*
X90195400Y-306744400D02*
G75*
G02*
X92195400Y-304744400I2000000J0D01*
G01*
X90195400Y-107244400D02*
X90195400Y-101244400D01*
X90195400Y-101244400D02*
G75*
G02*
X92195400Y-99244400I2000000J0D01*
G01*
X252195400Y-101244400D02*
X252195400Y-108994400D01*
X95195400Y-212994400D02*
X95195400Y-302744400D01*
X263195400Y-300994400D02*
G75*
G02*
X261195400Y-302994400I-2000000J0D01*
G01*
X93195400Y-109244400D02*
X92195400Y-109244400D01*
X263195400Y-281994400D02*
X263195400Y-300994400D01*
X92195400Y-202994400D02*
X93195400Y-202994400D01*
X426213400Y-175403575D02*
G75*
G02*
X426713366Y-176726451I-1500000J-1322825D01*
G01*
X337413400Y-108994400D02*
X337413400Y-101244400D01*
X171595400Y-312744400D02*
G75*
G02*
X169595400Y-314744400I-2000000J0D01*
G01*
X418213400Y-314744400D02*
G75*
G02*
X416213400Y-312744400I0J2000000D01*
G01*
X413213400Y-302994400D02*
G75*
G02*
X415213400Y-304994400I0J-2000000D01*
G01*
X486713400Y-112994400D02*
G75*
G02*
X488713400Y-110994400I2000000J0D01*
G01*
X415213400Y-108994400D02*
G75*
G02*
X413213400Y-110994400I-2000000J0D01*
G01*
X418213400Y-314744400D02*
G75*
G02*
X416213400Y-312744400I0J2000000D01*
G01*
X425713400Y-300994400D02*
X425713400Y-239908101D01*
X261195400Y-110994400D02*
G75*
G02*
X263195400Y-112994400I0J-2000000D01*
G01*
X426713400Y-189994400D02*
X426713400Y-223994400D01*
X337413400Y-310744400D02*
G75*
G02*
X339413400Y-308744400I2000000J0D01*
G01*
X416213400Y-101244400D02*
X416213400Y-108994400D01*
X496213400Y-101244400D02*
X496213400Y-108994400D01*
X416213400Y-304994400D02*
X416213400Y-312744400D01*
X404713400Y-235994400D02*
X404713400Y-237262349D01*
X337413400Y-310744400D02*
X337413400Y-312744400D01*
X486713400Y-300994400D02*
X486713400Y-112994400D01*
X252195400Y-108994400D02*
G75*
G02*
X250195400Y-110994400I-2000000J0D01*
G01*
X330505400Y-312744400D02*
X330505400Y-310744400D01*
X416213400Y-304994400D02*
G75*
G02*
X418213400Y-302994400I2000000J0D01*
G01*
X180195400Y-110994400D02*
G75*
G02*
X182195400Y-112994400I0J-2000000D01*
G01*
X415213400Y-101244400D02*
X415213400Y-108994400D01*
X174195400Y-110994400D02*
X180195400Y-110994400D01*
X180195400Y-302994400D02*
X174195400Y-302994400D01*
X127195400Y-306744400D02*
G75*
G02*
X125195400Y-304744400I0J2000000D01*
G01*
X250195400Y-314744400D02*
X174195400Y-314744400D01*
X252705400Y-101244400D02*
G75*
G02*
X254705400Y-99244400I2000000J0D01*
G01*
X426713400Y-237262349D02*
G75*
G02*
X426213425Y-238585247I-2000000J-51D01*
G01*
X244195400Y-302994400D02*
G75*
G02*
X242195400Y-300994400I0J2000000D01*
G01*
X304162024Y-267995359D02*
G75*
G02*
X305894075Y-266995358I1732076J-1000041D01*
G01*
X244195400Y-110994400D02*
X250195400Y-110994400D01*
X418213400Y-314744400D02*
X494213400Y-314744400D01*
X339413400Y-266995359D02*
X339413400Y-240094400D01*
X252195400Y-108994400D02*
X252195400Y-101244400D01*
X328505400Y-133994400D02*
X328505400Y-150094400D01*
X95195400Y-200994400D02*
X95195400Y-111244400D01*
X323005400Y-110994400D02*
X328505400Y-110994400D01*
X127195400Y-267244400D02*
X160195400Y-267244400D01*
X92195400Y-314744400D02*
G75*
G02*
X90195400Y-312744400I0J2000000D01*
G01*
X172195400Y-312744400D02*
X172195400Y-304994400D01*
X254705400Y-302994400D02*
X261195400Y-302994400D01*
X488713400Y-302994400D02*
G75*
G02*
X486713400Y-300994400I0J2000000D01*
G01*
X328505400Y-99244400D02*
G75*
G02*
X330505400Y-101244400I0J-2000000D01*
G01*
X486713400Y-112994400D02*
G75*
G02*
X488713400Y-110994400I2000000J0D01*
G01*
X488713400Y-110994400D02*
X494213400Y-110994400D01*
X244195400Y-302994400D02*
G75*
G02*
X242195400Y-300994400I0J2000000D01*
G01*
X95195400Y-111244400D02*
X95195400Y-200994400D01*
X93195400Y-202994400D02*
X92195400Y-202994400D01*
X171595400Y-105244400D02*
G75*
G02*
X169595400Y-107244400I-2000000J0D01*
G01*
X413213400Y-302994400D02*
G75*
G02*
X415213400Y-304994400I0J-2000000D01*
G01*
X405213400Y-238585225D02*
G75*
G02*
X404713434Y-237262349I1500000J1322825D01*
G01*
X494213400Y-99244400D02*
G75*
G02*
X496213400Y-101244400I0J-2000000D01*
G01*
X92195400Y-314744400D02*
G75*
G02*
X90195400Y-312744400I0J2000000D01*
G01*
X169595400Y-306744400D02*
G75*
G02*
X171595400Y-308744400I0J-2000000D01*
G01*
X125195400Y-304744400D02*
X125195400Y-269244400D01*
X254705400Y-314744400D02*
G75*
G02*
X252705400Y-312744400I0J2000000D01*
G01*
X162195400Y-109244400D02*
X162195400Y-265244400D01*
X172195400Y-101244400D02*
G75*
G02*
X174195400Y-99244400I2000000J0D01*
G01*
X328505400Y-266995359D02*
X305894075Y-266995359D01*
X404713400Y-177994400D02*
X404713400Y-175908101D01*
X171595400Y-312744400D02*
X171595400Y-308744400D01*
X416213400Y-312744400D02*
X416213400Y-304994400D01*
X426213400Y-175403575D02*
G75*
G02*
X426713366Y-176726451I-1500000J-1322825D01*
G01*
X172195400Y-108994400D02*
X172195400Y-101244400D01*
X415213400Y-312744400D02*
G75*
G02*
X413213400Y-314744400I-2000000J0D01*
G01*
X349332067Y-308476451D02*
G75*
G02*
X348332067Y-308744384I-999967J1732051D01*
G01*
X328505400Y-308744400D02*
G75*
G02*
X330505400Y-310744400I0J-2000000D01*
G01*
X337413400Y-101244400D02*
G75*
G02*
X339413400Y-99244400I2000000J0D01*
G01*
X90195400Y-306744400D02*
G75*
G02*
X92195400Y-304744400I2000000J0D01*
G01*
X405213400Y-238585225D02*
G75*
G02*
X404713434Y-237262349I1500000J1322825D01*
G01*
X90195400Y-101244400D02*
G75*
G02*
X92195400Y-99244400I2000000J0D01*
G01*
X349332067Y-308476451D02*
G75*
G02*
X348332067Y-308744384I-999967J1732051D01*
G01*
X304162024Y-267995359D02*
X291239375Y-290378045D01*
X125195400Y-269244400D02*
G75*
G02*
X127195400Y-267244400I2000000J0D01*
G01*
X319586733Y-308744400D02*
G75*
G02*
X318586725Y-308476465I-33J2000000D01*
G01*
X182195400Y-300994400D02*
X182195400Y-112994400D01*
X174195400Y-314744400D02*
G75*
G02*
X172195400Y-312744400I0J2000000D01*
G01*
X169595400Y-306744400D02*
X127195400Y-306744400D01*
X328505400Y-308744400D02*
X319586733Y-308744400D01*
X349332067Y-308476451D02*
X375947375Y-293110096D01*
X252195400Y-312744400D02*
X252195400Y-304994400D01*
X180195400Y-110994400D02*
X174195400Y-110994400D01*
X291971425Y-293110096D02*
G75*
G02*
X291239313Y-290378009I999975J1732096D01*
G01*
X407713400Y-302994400D02*
X413213400Y-302994400D01*
X174195400Y-314744400D02*
X250195400Y-314744400D01*
X261195400Y-110994400D02*
G75*
G02*
X263195400Y-112994400I0J-2000000D01*
G01*
X405713400Y-173262349D02*
X405713400Y-112994400D01*
X90195400Y-208994400D02*
X90195400Y-204994400D01*
X127195400Y-306744400D02*
G75*
G02*
X125195400Y-304744400I0J2000000D01*
G01*
X426713400Y-235994400D02*
X426713400Y-237262349D01*
X339413400Y-150094400D02*
X339413400Y-133994400D01*
X252705400Y-304994400D02*
G75*
G02*
X254705400Y-302994400I2000000J0D01*
G01*
X182195400Y-189994400D02*
X182195400Y-223994400D01*
X405713400Y-112994400D02*
G75*
G02*
X407713400Y-110994400I2000000J0D01*
G01*
X174195400Y-110994400D02*
G75*
G02*
X172195400Y-108994400I0J2000000D01*
G01*
X405713400Y-173262349D02*
G75*
G02*
X405213425Y-174585247I-2000000J-51D01*
G01*
X426713400Y-176726451D02*
X426713400Y-177994400D01*
X494213400Y-110994400D02*
X488713400Y-110994400D01*
X344913400Y-110994400D02*
G75*
G02*
X346913400Y-112994400I0J-2000000D01*
G01*
M02*
