M48
INCH,TZ
T1C0.0236
T2C0.0394
T3C0.0787
T4C0.0866
%
G90
G05
T1
X50500Y-120200
X72400Y-103000
X104400Y-103000
X138200Y-100700
X141150Y-106000
X158200Y-93900
X171600Y-103000
T2
X50689Y-79000
X50689Y-80000
X50689Y-81000
X50689Y-82000
X50689Y-83000
X50689Y-84000
T3
X38780Y-99213
X43307Y-106299
X43307Y-121654
X43504Y-40551
X43504Y-55906
X43504Y-58661
X43504Y-74016
X43504Y-76772
X43504Y-92126
X54134Y-99213
X57874Y-40551
X57874Y-55906
X57874Y-58661
X57874Y-74016
X57874Y-76772
X57874Y-92126
X77500Y-84580
X77500Y-99934
X77559Y-41929
X77559Y-57283
X77559Y-63255
X77559Y-78609
X77559Y-105906
X77559Y-121260
X89567Y-41929
X89567Y-57283
X89567Y-63255
X89567Y-78609
X89567Y-84580
X89567Y-99934
X89567Y-105906
X89567Y-121260
X109449Y-41732
X109449Y-57087
X109449Y-63189
X109449Y-78543
X109449Y-84646
X109449Y-100000
X109449Y-106102
X109449Y-121457
X120866Y-41732
X120866Y-57087
X120866Y-63189
X120866Y-78543
X120866Y-84646
X120866Y-100000
X120866Y-106102
X120866Y-121457
X140650Y-99000
X142520Y-40354
X142520Y-55709
X142520Y-58465
X142520Y-73819
X142520Y-76575
X142520Y-91929
X154134Y-40354
X154134Y-55709
X154134Y-58465
X154134Y-73819
X154134Y-76575
X154134Y-91929
X154134Y-106500
X154134Y-121854
X156004Y-99000
X176575Y-41732
X176575Y-57087
X176575Y-63189
X176575Y-78543
X176575Y-84646
X176575Y-100000
X176575Y-106102
X176575Y-121457
X188583Y-41732
X188583Y-57087
X188583Y-63189
X188583Y-78543
X188583Y-84646
X188583Y-100000
X188583Y-106102
X188583Y-121457
T4
X36398Y-81496
X36398Y-122343
X36400Y-40650
X66713Y-40650
X66713Y-122350
X68976Y-40256
X68976Y-122736
X98110Y-40256
X98110Y-122736
X100866Y-40256
X100866Y-122736
X129134Y-40256
X129134Y-122736
X134213Y-40256
X134213Y-122736
X162480Y-40256
X162480Y-122736
X167992Y-40256
X168000Y-122736
X197126Y-40256
X197126Y-122736
T0
M30
