%TF.GenerationSoftware,KiCad,Pcbnew,7.0.8*%
%TF.CreationDate,2024-01-15T20:22:08-08:00*%
%TF.ProjectId,FlexDeploySidePanels,466c6578-4465-4706-9c6f-795369646550,rev?*%
%TF.SameCoordinates,Original*%
%TF.FileFunction,Other,User*%
%FSLAX46Y46*%
G04 Gerber Fmt 4.6, Leading zero omitted, Abs format (unit mm)*
G04 Created by KiCad (PCBNEW 7.0.8) date 2024-01-15 20:22:08*
%MOMM*%
%LPD*%
G01*
G04 APERTURE LIST*
%ADD10C,0.200000*%
G04 APERTURE END LIST*
D10*
X423708000Y-101250000D02*
X423708000Y-111000000D01*
X347408000Y-115000000D02*
G75*
G03*
X345408000Y-113000000I-2000000J0D01*
G01*
X329000000Y-314750000D02*
G75*
G03*
X331000000Y-312750000I0J2000000D01*
G01*
X255200000Y-99250000D02*
G75*
G03*
X253200000Y-101250000I0J-2000000D01*
G01*
X501708000Y-99250000D02*
X425708000Y-99250000D01*
X352262112Y-279680676D02*
G75*
G03*
X352262112Y-279680676I-1350000J0D01*
G01*
X496208000Y-113000000D02*
X501708000Y-113000000D01*
X164200000Y-107250000D02*
G75*
G03*
X162200000Y-109250000I0J-2000000D01*
G01*
X253200000Y-111000000D02*
G75*
G03*
X255200000Y-113000000I2000000J0D01*
G01*
X182200000Y-115000000D02*
G75*
G03*
X180200000Y-113000000I-2000000J0D01*
G01*
X252200000Y-101250000D02*
G75*
G03*
X250200000Y-99250000I-2000000J0D01*
G01*
X433208000Y-115000000D02*
G75*
G03*
X431208000Y-113000000I-2000000J0D01*
G01*
X95200000Y-213000000D02*
X95200000Y-304750000D01*
X501708000Y-113000000D02*
G75*
G03*
X503708000Y-111000000I0J2000000D01*
G01*
X253200000Y-312750000D02*
G75*
G03*
X255200000Y-314750000I2000000J0D01*
G01*
X261200000Y-301000000D02*
X255200000Y-301000000D01*
X89700000Y-308750000D02*
X89700000Y-312750000D01*
X171600000Y-105250000D02*
X171600000Y-101250000D01*
X91700000Y-107250000D02*
X93200000Y-107250000D01*
X91700000Y-203000000D02*
G75*
G03*
X89700000Y-205000000I0J-2000000D01*
G01*
X501708000Y-314750000D02*
G75*
G03*
X503708000Y-312750000I0J2000000D01*
G01*
X331000000Y-303000000D02*
G75*
G03*
X329000000Y-301000000I-2000000J0D01*
G01*
X503708000Y-312750000D02*
X503708000Y-303000000D01*
X408208000Y-113000000D02*
G75*
G03*
X406208000Y-115000000I0J-2000000D01*
G01*
X413708000Y-314750000D02*
G75*
G03*
X415708000Y-312750000I0J2000000D01*
G01*
X91700000Y-314750000D02*
X169600000Y-314750000D01*
X329000000Y-113000000D02*
G75*
G03*
X331000000Y-111000000I0J2000000D01*
G01*
X253200000Y-303000000D02*
X253200000Y-312750000D01*
X127118420Y-290017619D02*
X140773121Y-266366984D01*
X337908000Y-101250000D02*
X337908000Y-111000000D01*
X496208000Y-113000000D02*
G75*
G03*
X494208000Y-115000000I0J-2000000D01*
G01*
X261200000Y-301000000D02*
G75*
G03*
X263200000Y-299000000I0J2000000D01*
G01*
X425708000Y-99250000D02*
G75*
G03*
X423708000Y-101250000I0J-2000000D01*
G01*
X95200000Y-213000000D02*
G75*
G03*
X93200000Y-211000000I-2000000J0D01*
G01*
X413708000Y-99250000D02*
X339908000Y-99250000D01*
X250200000Y-301000000D02*
X244200000Y-301000000D01*
X253200000Y-101250000D02*
X253200000Y-111000000D01*
X494208000Y-299000000D02*
G75*
G03*
X496208000Y-301000000I2000000J0D01*
G01*
X255200000Y-301000000D02*
G75*
G03*
X253200000Y-303000000I0J-2000000D01*
G01*
X345408000Y-301000000D02*
G75*
G03*
X347408000Y-299000000I0J2000000D01*
G01*
X331000000Y-312750000D02*
X331000000Y-303000000D01*
X180200000Y-301000000D02*
G75*
G03*
X182200000Y-299000000I0J2000000D01*
G01*
X415708000Y-312750000D02*
X415708000Y-303000000D01*
X255200000Y-113000000D02*
X261200000Y-113000000D01*
X242200000Y-299000000D02*
G75*
G03*
X244200000Y-301000000I2000000J0D01*
G01*
X415708000Y-111000000D02*
X415708000Y-101250000D01*
X494208000Y-299000000D02*
X494208000Y-284000000D01*
X415708000Y-101250000D02*
G75*
G03*
X413708000Y-99250000I-2000000J0D01*
G01*
X331000000Y-111000000D02*
X331000000Y-101250000D01*
X431208000Y-301000000D02*
X425708000Y-301000000D01*
X503708000Y-303000000D02*
G75*
G03*
X501708000Y-301000000I-2000000J0D01*
G01*
X425708000Y-113000000D02*
X431208000Y-113000000D01*
X501708000Y-301000000D02*
X496208000Y-301000000D01*
X252200000Y-111000000D02*
X252200000Y-101250000D01*
X329000000Y-99250000D02*
X255200000Y-99250000D01*
X162200000Y-274980479D02*
X162200000Y-109250000D01*
X329000000Y-301000000D02*
X323500000Y-301000000D01*
X91700000Y-211000000D02*
X93200000Y-211000000D01*
X145886378Y-265634918D02*
G75*
G03*
X144886369Y-265366984I-999978J-1732082D01*
G01*
X172200000Y-303000000D02*
X172200000Y-312750000D01*
X93200000Y-203000000D02*
X91700000Y-203000000D01*
X339908000Y-113000000D02*
X345408000Y-113000000D01*
X95200000Y-109250000D02*
G75*
G03*
X93200000Y-107250000I-2000000J0D01*
G01*
X244200000Y-113000000D02*
G75*
G03*
X242200000Y-115000000I0J-2000000D01*
G01*
X425708000Y-314750000D02*
X501708000Y-314750000D01*
X431208000Y-301000000D02*
G75*
G03*
X433208000Y-299000000I0J2000000D01*
G01*
X169600000Y-306750000D02*
X162200000Y-306750000D01*
X503708000Y-101250000D02*
G75*
G03*
X501708000Y-99250000I-2000000J0D01*
G01*
X91700000Y-99250000D02*
G75*
G03*
X89700000Y-101250000I0J-2000000D01*
G01*
X169600000Y-107250000D02*
G75*
G03*
X171600000Y-105250000I0J2000000D01*
G01*
X174200000Y-99250000D02*
G75*
G03*
X172200000Y-101250000I0J-2000000D01*
G01*
X433208000Y-115000000D02*
X433208000Y-299000000D01*
X171600000Y-312750000D02*
X171600000Y-308750000D01*
X339908000Y-99250000D02*
G75*
G03*
X337908000Y-101250000I0J-2000000D01*
G01*
X172200000Y-111000000D02*
G75*
G03*
X174200000Y-113000000I2000000J0D01*
G01*
X89700000Y-312750000D02*
G75*
G03*
X91700000Y-314750000I2000000J0D01*
G01*
X337908000Y-111000000D02*
G75*
G03*
X339908000Y-113000000I2000000J0D01*
G01*
X174200000Y-301000000D02*
G75*
G03*
X172200000Y-303000000I0J-2000000D01*
G01*
X250200000Y-99250000D02*
X174200000Y-99250000D01*
X339908000Y-314750000D02*
X413708000Y-314750000D01*
X244200000Y-113000000D02*
X250200000Y-113000000D01*
X503708000Y-111000000D02*
X503708000Y-101250000D01*
X423708000Y-111000000D02*
G75*
G03*
X425708000Y-113000000I2000000J0D01*
G01*
X406208000Y-299000000D02*
G75*
G03*
X408208000Y-301000000I2000000J0D01*
G01*
X345408000Y-301000000D02*
X339908000Y-301000000D01*
X425708000Y-301000000D02*
G75*
G03*
X423708000Y-303000000I0J-2000000D01*
G01*
X174200000Y-314750000D02*
X250200000Y-314750000D01*
X323500000Y-113000000D02*
X329000000Y-113000000D01*
X250200000Y-314750000D02*
G75*
G03*
X252200000Y-312750000I0J2000000D01*
G01*
X423708000Y-312750000D02*
G75*
G03*
X425708000Y-314750000I2000000J0D01*
G01*
X127118407Y-290017611D02*
G75*
G03*
X127850471Y-292749670I1732093J-999989D01*
G01*
X255200000Y-314750000D02*
X329000000Y-314750000D01*
X503708000Y-280000000D02*
X503708000Y-134000000D01*
X180200000Y-301000000D02*
X174200000Y-301000000D01*
X413708000Y-301000000D02*
X408208000Y-301000000D01*
X171600000Y-101250000D02*
G75*
G03*
X169600000Y-99250000I-2000000J0D01*
G01*
X347408000Y-115000000D02*
X347408000Y-299000000D01*
X93200000Y-306750000D02*
X91700000Y-306750000D01*
X415708000Y-303000000D02*
G75*
G03*
X413708000Y-301000000I-2000000J0D01*
G01*
X321500000Y-299000000D02*
X321500000Y-115000000D01*
X91700000Y-306750000D02*
G75*
G03*
X89700000Y-308750000I0J-2000000D01*
G01*
X263200000Y-115000000D02*
X263200000Y-299000000D01*
X368273653Y-293299479D02*
G75*
G03*
X368273653Y-293299479I-1350000J0D01*
G01*
X164200000Y-107250000D02*
X169600000Y-107250000D01*
X169600000Y-99250000D02*
X91700000Y-99250000D01*
X93200000Y-306750000D02*
G75*
G03*
X95200000Y-304750000I0J2000000D01*
G01*
X406208000Y-299000000D02*
X406208000Y-115000000D01*
X323500000Y-113000000D02*
G75*
G03*
X321500000Y-115000000I0J-2000000D01*
G01*
X89700000Y-101250000D02*
X89700000Y-105250000D01*
X145886369Y-265634934D02*
X161735898Y-274785663D01*
X172200000Y-101250000D02*
X172200000Y-111000000D01*
X161735898Y-274785663D02*
G75*
G03*
X162200000Y-274980478I1000002J1732063D01*
G01*
X423708000Y-303000000D02*
X423708000Y-312750000D01*
X358373653Y-276152176D02*
G75*
G03*
X358373653Y-276152176I-1350000J0D01*
G01*
X321500000Y-299000000D02*
G75*
G03*
X323500000Y-301000000I2000000J0D01*
G01*
X362162112Y-296827979D02*
G75*
G03*
X362162112Y-296827979I-1350000J0D01*
G01*
X494208000Y-130000000D02*
X494208000Y-115000000D01*
X408208000Y-113000000D02*
X413708000Y-113000000D01*
X250200000Y-113000000D02*
G75*
G03*
X252200000Y-111000000I0J2000000D01*
G01*
X337908000Y-312750000D02*
G75*
G03*
X339908000Y-314750000I2000000J0D01*
G01*
X162200000Y-306750000D02*
X150199937Y-305456008D01*
X182200000Y-115000000D02*
X182200000Y-299000000D01*
X89700000Y-209000000D02*
G75*
G03*
X91700000Y-211000000I2000000J0D01*
G01*
X142505171Y-265366968D02*
G75*
G03*
X140773121Y-266366984I29J-2000032D01*
G01*
X496208000Y-282000000D02*
G75*
G03*
X494208000Y-284000000I0J-2000000D01*
G01*
X171600000Y-308750000D02*
G75*
G03*
X169600000Y-306750000I-2000000J0D01*
G01*
X174200000Y-113000000D02*
X180200000Y-113000000D01*
X89700000Y-205000000D02*
X89700000Y-209000000D01*
X93200000Y-203000000D02*
G75*
G03*
X95200000Y-201000000I0J2000000D01*
G01*
X413708000Y-113000000D02*
G75*
G03*
X415708000Y-111000000I0J2000000D01*
G01*
X501708000Y-282000000D02*
G75*
G03*
X503708000Y-280000000I0J2000000D01*
G01*
X263200000Y-115000000D02*
G75*
G03*
X261200000Y-113000000I-2000000J0D01*
G01*
X252200000Y-312750000D02*
X252200000Y-303000000D01*
X89700000Y-105250000D02*
G75*
G03*
X91700000Y-107250000I2000000J0D01*
G01*
X172200000Y-312750000D02*
G75*
G03*
X174200000Y-314750000I2000000J0D01*
G01*
X339908000Y-301000000D02*
G75*
G03*
X337908000Y-303000000I0J-2000000D01*
G01*
X252200000Y-303000000D02*
G75*
G03*
X250200000Y-301000000I-2000000J0D01*
G01*
X242200000Y-299000000D02*
X242200000Y-115000000D01*
X496208000Y-282000000D02*
X501708000Y-282000000D01*
X149414364Y-305199575D02*
G75*
G03*
X150199937Y-305456007I1000036J1732075D01*
G01*
X337908000Y-303000000D02*
X337908000Y-312750000D01*
X169600000Y-314750000D02*
G75*
G03*
X171600000Y-312750000I0J2000000D01*
G01*
X503708000Y-134000000D02*
G75*
G03*
X501708000Y-132000000I-2000000J0D01*
G01*
X331000000Y-101250000D02*
G75*
G03*
X329000000Y-99250000I-2000000J0D01*
G01*
X95200000Y-109250000D02*
X95200000Y-201000000D01*
X494208000Y-130000000D02*
G75*
G03*
X496208000Y-132000000I2000000J0D01*
G01*
X501708000Y-132000000D02*
X496208000Y-132000000D01*
X149414358Y-305199586D02*
X127850471Y-292749670D01*
X142505171Y-265366984D02*
X144886369Y-265366984D01*
M02*
