%TF.GenerationSoftware,KiCad,Pcbnew,7.0.6*%
%TF.CreationDate,2024-05-06T19:07:49-07:00*%
%TF.ProjectId,2400_TCXO_RPi,32343030-5f54-4435-984f-5f5250692e6b,1.0*%
%TF.SameCoordinates,Original*%
%TF.FileFunction,Soldermask,Bot*%
%TF.FilePolarity,Negative*%
%FSLAX46Y46*%
G04 Gerber Fmt 4.6, Leading zero omitted, Abs format (unit mm)*
G04 Created by KiCad (PCBNEW 7.0.6) date 2024-05-06 19:07:49*
%MOMM*%
%LPD*%
G01*
G04 APERTURE LIST*
G04 Aperture macros list*
%AMFreePoly0*
4,1,19,0.000000,0.744911,0.071157,0.744911,0.207708,0.704816,0.327430,0.627875,0.420627,0.520320,0.479746,0.390866,0.500000,0.250000,0.500000,-0.250000,0.479746,-0.390866,0.420627,-0.520320,0.327430,-0.627875,0.207708,-0.704816,0.071157,-0.744911,0.000000,-0.744911,0.000000,-0.750000,-0.500000,-0.750000,-0.500000,0.750000,0.000000,0.750000,0.000000,0.744911,0.000000,0.744911,
$1*%
%AMFreePoly1*
4,1,19,0.500000,-0.750000,0.000000,-0.750000,0.000000,-0.744911,-0.071157,-0.744911,-0.207708,-0.704816,-0.327430,-0.627875,-0.420627,-0.520320,-0.479746,-0.390866,-0.500000,-0.250000,-0.500000,0.250000,-0.479746,0.390866,-0.420627,0.520320,-0.327430,0.627875,-0.207708,0.704816,-0.071157,0.744911,0.000000,0.744911,0.000000,0.750000,0.500000,0.750000,0.500000,-0.750000,0.500000,-0.750000,
$1*%
G04 Aperture macros list end*
%ADD10FreePoly0,90.000000*%
%ADD11FreePoly1,90.000000*%
%ADD12C,4.700000*%
%ADD13C,2.050000*%
%ADD14C,2.250000*%
%ADD15R,1.700000X1.700000*%
%ADD16O,1.700000X1.700000*%
G04 APERTURE END LIST*
D10*
%TO.C,JP1*%
X146420000Y-85580000D03*
D11*
X146420000Y-86880000D03*
%TD*%
D12*
%TO.C,H5*%
X128500000Y-51500000D03*
%TD*%
%TO.C,H2*%
X151500000Y-51500000D03*
%TD*%
%TO.C,H4*%
X151500000Y-109500000D03*
%TD*%
%TO.C,H3*%
X128550000Y-109500000D03*
%TD*%
D13*
%TO.C,J4*%
X142830000Y-107960000D03*
D14*
X140290000Y-105420000D03*
X140290000Y-110500000D03*
X145370000Y-105420000D03*
X145370000Y-110500000D03*
%TD*%
D15*
%TO.C,J1*%
X150230000Y-56370000D03*
D16*
X152770000Y-56370000D03*
X150230000Y-58910000D03*
X152770000Y-58910000D03*
X150230000Y-61450000D03*
X152770000Y-61450000D03*
X150230000Y-63990000D03*
X152770000Y-63990000D03*
X150230000Y-66530000D03*
X152770000Y-66530000D03*
X150230000Y-69070000D03*
X152770000Y-69070000D03*
X150230000Y-71610000D03*
X152770000Y-71610000D03*
X150230000Y-74150000D03*
X152770000Y-74150000D03*
X150230000Y-76690000D03*
X152770000Y-76690000D03*
X150230000Y-79230000D03*
X152770000Y-79230000D03*
X150230000Y-81770000D03*
X152770000Y-81770000D03*
X150230000Y-84310000D03*
X152770000Y-84310000D03*
X150230000Y-86850000D03*
X152770000Y-86850000D03*
X150230000Y-89390000D03*
X152770000Y-89390000D03*
X150230000Y-91930000D03*
X152770000Y-91930000D03*
X150230000Y-94470000D03*
X152770000Y-94470000D03*
X150230000Y-97010000D03*
X152770000Y-97010000D03*
X150230000Y-99550000D03*
X152770000Y-99550000D03*
X150230000Y-102090000D03*
X152770000Y-102090000D03*
X150230000Y-104630000D03*
X152770000Y-104630000D03*
%TD*%
M02*
