%TF.GenerationSoftware,KiCad,Pcbnew,7.0.6*%
%TF.CreationDate,2024-05-06T19:07:53-07:00*%
%TF.ProjectId,2400_TCXO_RPi,32343030-5f54-4435-984f-5f5250692e6b,1.0*%
%TF.SameCoordinates,Original*%
%TF.FileFunction,Drillmap*%
%TF.FilePolarity,Positive*%
%FSLAX45Y45*%
G04 Gerber Fmt 4.5, Leading zero omitted, Abs format (unit mm)*
G04 Created by KiCad (PCBNEW 7.0.6) date 2024-05-06 19:07:53*
%MOMM*%
%LPD*%
G01*
G04 APERTURE LIST*
%ADD10C,0.100000*%
%ADD11C,0.200000*%
%ADD12C,0.040000*%
%ADD13C,0.150000*%
%ADD14C,0.170000*%
%ADD15C,0.270000*%
G04 APERTURE END LIST*
D10*
X12605000Y-4817000D02*
G75*
G03*
X12505000Y-4917000I0J-100000D01*
G01*
X15505000Y-4917000D02*
G75*
G03*
X15405000Y-4817000I-100000J0D01*
G01*
X12505000Y-4917000D02*
X12505000Y-11217000D01*
X15405000Y-4817000D02*
X12605000Y-4817000D01*
X15505000Y-11217000D02*
X15505000Y-4917000D01*
X12605000Y-11317000D02*
X15405000Y-11317000D01*
X15405000Y-11317000D02*
G75*
G03*
X15505000Y-11217000I0J100000D01*
G01*
X12505000Y-11217000D02*
G75*
G03*
X12605000Y-11317000I100000J0D01*
G01*
D11*
D12*
X12956000Y-8336000D02*
X12996000Y-8376000D01*
X12996000Y-8336000D02*
X12956000Y-8376000D01*
X13024000Y-6723000D02*
X13064000Y-6763000D01*
X13064000Y-6723000D02*
X13024000Y-6763000D01*
X13310000Y-9722500D02*
X13350000Y-9762500D01*
X13350000Y-9722500D02*
X13310000Y-9762500D01*
X13312500Y-6882500D02*
X13352500Y-6922500D01*
X13352500Y-6882500D02*
X13312500Y-6922500D01*
X13442500Y-6885000D02*
X13482500Y-6925000D01*
X13482500Y-6885000D02*
X13442500Y-6925000D01*
X13510000Y-9722500D02*
X13550000Y-9762500D01*
X13550000Y-9722500D02*
X13510000Y-9762500D01*
X13516000Y-5877000D02*
X13556000Y-5917000D01*
X13556000Y-5877000D02*
X13516000Y-5917000D01*
X13529800Y-11027200D02*
X13569800Y-11067200D01*
X13569800Y-11027200D02*
X13529800Y-11067200D01*
X13570000Y-6887500D02*
X13610000Y-6927500D01*
X13610000Y-6887500D02*
X13570000Y-6927500D01*
X13697500Y-6892500D02*
X13737500Y-6932500D01*
X13737500Y-6892500D02*
X13697500Y-6932500D01*
X13707600Y-10062000D02*
X13747600Y-10102000D01*
X13747600Y-10062000D02*
X13707600Y-10102000D01*
X13803000Y-7542000D02*
X13843000Y-7582000D01*
X13843000Y-7542000D02*
X13803000Y-7582000D01*
X13855000Y-9142500D02*
X13895000Y-9182500D01*
X13895000Y-9142500D02*
X13855000Y-9182500D01*
X13855000Y-9237500D02*
X13895000Y-9277500D01*
X13895000Y-9237500D02*
X13855000Y-9277500D01*
X13855000Y-9332500D02*
X13895000Y-9372500D01*
X13895000Y-9332500D02*
X13855000Y-9372500D01*
X13855000Y-9430000D02*
X13895000Y-9470000D01*
X13895000Y-9430000D02*
X13855000Y-9470000D01*
X13910800Y-10062000D02*
X13950800Y-10102000D01*
X13950800Y-10062000D02*
X13910800Y-10102000D01*
X13917000Y-9604000D02*
X13957000Y-9644000D01*
X13957000Y-9604000D02*
X13917000Y-9644000D01*
X13942500Y-9142500D02*
X13982500Y-9182500D01*
X13982500Y-9142500D02*
X13942500Y-9182500D01*
X13942500Y-9237500D02*
X13982500Y-9277500D01*
X13982500Y-9237500D02*
X13942500Y-9277500D01*
X13942500Y-9332500D02*
X13982500Y-9372500D01*
X13982500Y-9332500D02*
X13942500Y-9372500D01*
X13942500Y-9430000D02*
X13982500Y-9470000D01*
X13982500Y-9430000D02*
X13942500Y-9470000D01*
X14030000Y-9142500D02*
X14070000Y-9182500D01*
X14070000Y-9142500D02*
X14030000Y-9182500D01*
X14030000Y-9237500D02*
X14070000Y-9277500D01*
X14070000Y-9237500D02*
X14030000Y-9277500D01*
X14030000Y-9332500D02*
X14070000Y-9372500D01*
X14070000Y-9332500D02*
X14030000Y-9372500D01*
X14030000Y-9430000D02*
X14070000Y-9470000D01*
X14070000Y-9430000D02*
X14030000Y-9470000D01*
X14137000Y-10208000D02*
X14177000Y-10248000D01*
X14177000Y-10208000D02*
X14137000Y-10248000D01*
X14152000Y-7898000D02*
X14192000Y-7938000D01*
X14192000Y-7898000D02*
X14152000Y-7938000D01*
X14371230Y-7518770D02*
X14411230Y-7558770D01*
X14411230Y-7518770D02*
X14371230Y-7558770D01*
X14379000Y-10203000D02*
X14419000Y-10243000D01*
X14419000Y-10203000D02*
X14379000Y-10243000D01*
X14469600Y-9706400D02*
X14509600Y-9746400D01*
X14509600Y-9706400D02*
X14469600Y-9746400D01*
X14469600Y-10036600D02*
X14509600Y-10076600D01*
X14509600Y-10036600D02*
X14469600Y-10076600D01*
X14596600Y-6125000D02*
X14636600Y-6165000D01*
X14636600Y-6125000D02*
X14596600Y-6165000D01*
X14767500Y-6632500D02*
X14807500Y-6672500D01*
X14807500Y-6632500D02*
X14767500Y-6672500D01*
X14914950Y-8284000D02*
X14954950Y-8324000D01*
X14954950Y-8284000D02*
X14914950Y-8324000D01*
D10*
X15073000Y-5637000D02*
G75*
G03*
X15073000Y-5637000I-50000J0D01*
G01*
X15073000Y-5891000D02*
G75*
G03*
X15073000Y-5891000I-50000J0D01*
G01*
X15073000Y-6145000D02*
G75*
G03*
X15073000Y-6145000I-50000J0D01*
G01*
X15073000Y-6399000D02*
G75*
G03*
X15073000Y-6399000I-50000J0D01*
G01*
X15073000Y-6653000D02*
G75*
G03*
X15073000Y-6653000I-50000J0D01*
G01*
X15073000Y-6907000D02*
G75*
G03*
X15073000Y-6907000I-50000J0D01*
G01*
X15073000Y-7161000D02*
G75*
G03*
X15073000Y-7161000I-50000J0D01*
G01*
X15073000Y-7415000D02*
G75*
G03*
X15073000Y-7415000I-50000J0D01*
G01*
X15073000Y-7669000D02*
G75*
G03*
X15073000Y-7669000I-50000J0D01*
G01*
X15073000Y-7923000D02*
G75*
G03*
X15073000Y-7923000I-50000J0D01*
G01*
X15073000Y-8177000D02*
G75*
G03*
X15073000Y-8177000I-50000J0D01*
G01*
X15073000Y-8431000D02*
G75*
G03*
X15073000Y-8431000I-50000J0D01*
G01*
X15073000Y-8685000D02*
G75*
G03*
X15073000Y-8685000I-50000J0D01*
G01*
X15073000Y-8939000D02*
G75*
G03*
X15073000Y-8939000I-50000J0D01*
G01*
X15073000Y-9193000D02*
G75*
G03*
X15073000Y-9193000I-50000J0D01*
G01*
X15073000Y-9447000D02*
G75*
G03*
X15073000Y-9447000I-50000J0D01*
G01*
X15073000Y-9701000D02*
G75*
G03*
X15073000Y-9701000I-50000J0D01*
G01*
X15073000Y-9955000D02*
G75*
G03*
X15073000Y-9955000I-50000J0D01*
G01*
X15073000Y-10209000D02*
G75*
G03*
X15073000Y-10209000I-50000J0D01*
G01*
X15073000Y-10463000D02*
G75*
G03*
X15073000Y-10463000I-50000J0D01*
G01*
X15327000Y-5637000D02*
G75*
G03*
X15327000Y-5637000I-50000J0D01*
G01*
X15327000Y-5891000D02*
G75*
G03*
X15327000Y-5891000I-50000J0D01*
G01*
X15327000Y-6145000D02*
G75*
G03*
X15327000Y-6145000I-50000J0D01*
G01*
X15327000Y-6399000D02*
G75*
G03*
X15327000Y-6399000I-50000J0D01*
G01*
X15327000Y-6653000D02*
G75*
G03*
X15327000Y-6653000I-50000J0D01*
G01*
X15327000Y-6907000D02*
G75*
G03*
X15327000Y-6907000I-50000J0D01*
G01*
X15327000Y-7161000D02*
G75*
G03*
X15327000Y-7161000I-50000J0D01*
G01*
X15327000Y-7415000D02*
G75*
G03*
X15327000Y-7415000I-50000J0D01*
G01*
X15327000Y-7669000D02*
G75*
G03*
X15327000Y-7669000I-50000J0D01*
G01*
X15327000Y-7923000D02*
G75*
G03*
X15327000Y-7923000I-50000J0D01*
G01*
X15327000Y-8177000D02*
G75*
G03*
X15327000Y-8177000I-50000J0D01*
G01*
X15327000Y-8431000D02*
G75*
G03*
X15327000Y-8431000I-50000J0D01*
G01*
X15327000Y-8685000D02*
G75*
G03*
X15327000Y-8685000I-50000J0D01*
G01*
X15327000Y-8939000D02*
G75*
G03*
X15327000Y-8939000I-50000J0D01*
G01*
X15327000Y-9193000D02*
G75*
G03*
X15327000Y-9193000I-50000J0D01*
G01*
X15327000Y-9447000D02*
G75*
G03*
X15327000Y-9447000I-50000J0D01*
G01*
X15327000Y-9701000D02*
G75*
G03*
X15327000Y-9701000I-50000J0D01*
G01*
X15327000Y-9955000D02*
G75*
G03*
X15327000Y-9955000I-50000J0D01*
G01*
X15327000Y-10209000D02*
G75*
G03*
X15327000Y-10209000I-50000J0D01*
G01*
X15327000Y-10463000D02*
G75*
G03*
X15327000Y-10463000I-50000J0D01*
G01*
D13*
X14283000Y-10721000D02*
X14283000Y-10871000D01*
X14208000Y-10796000D02*
X14358000Y-10796000D01*
D14*
X14089105Y-10602105D02*
X14089105Y-10481895D01*
X13968895Y-10481895D01*
X13968895Y-10602105D01*
X14089105Y-10602105D01*
X14089105Y-11110105D02*
X14089105Y-10989895D01*
X13968895Y-10989895D01*
X13968895Y-11110105D01*
X14089105Y-11110105D01*
X14597105Y-10602105D02*
X14597105Y-10481895D01*
X14476895Y-10481895D01*
X14476895Y-10602105D01*
X14597105Y-10602105D01*
X14597105Y-11110105D02*
X14597105Y-10989895D01*
X14476895Y-10989895D01*
X14476895Y-11110105D01*
X14597105Y-11110105D01*
D15*
X12850000Y-5285000D02*
X12985000Y-5150000D01*
X12850000Y-5015000D01*
X12715000Y-5150000D01*
X12850000Y-5285000D01*
X12855000Y-11085000D02*
X12990000Y-10950000D01*
X12855000Y-10815000D01*
X12720000Y-10950000D01*
X12855000Y-11085000D01*
X15150000Y-5285000D02*
X15285000Y-5150000D01*
X15150000Y-5015000D01*
X15015000Y-5150000D01*
X15150000Y-5285000D01*
X15150000Y-11085000D02*
X15285000Y-10950000D01*
X15150000Y-10815000D01*
X15015000Y-10950000D01*
X15150000Y-11085000D01*
D11*
X12760777Y-11633484D02*
X12760777Y-11433484D01*
X12760777Y-11433484D02*
X12808396Y-11433484D01*
X12808396Y-11433484D02*
X12836967Y-11443008D01*
X12836967Y-11443008D02*
X12856015Y-11462055D01*
X12856015Y-11462055D02*
X12865539Y-11481103D01*
X12865539Y-11481103D02*
X12875062Y-11519198D01*
X12875062Y-11519198D02*
X12875062Y-11547769D01*
X12875062Y-11547769D02*
X12865539Y-11585865D01*
X12865539Y-11585865D02*
X12856015Y-11604912D01*
X12856015Y-11604912D02*
X12836967Y-11623960D01*
X12836967Y-11623960D02*
X12808396Y-11633484D01*
X12808396Y-11633484D02*
X12760777Y-11633484D01*
X12960777Y-11633484D02*
X12960777Y-11500150D01*
X12960777Y-11538246D02*
X12970301Y-11519198D01*
X12970301Y-11519198D02*
X12979824Y-11509674D01*
X12979824Y-11509674D02*
X12998872Y-11500150D01*
X12998872Y-11500150D02*
X13017920Y-11500150D01*
X13084586Y-11633484D02*
X13084586Y-11500150D01*
X13084586Y-11433484D02*
X13075062Y-11443008D01*
X13075062Y-11443008D02*
X13084586Y-11452531D01*
X13084586Y-11452531D02*
X13094110Y-11443008D01*
X13094110Y-11443008D02*
X13084586Y-11433484D01*
X13084586Y-11433484D02*
X13084586Y-11452531D01*
X13208396Y-11633484D02*
X13189348Y-11623960D01*
X13189348Y-11623960D02*
X13179824Y-11604912D01*
X13179824Y-11604912D02*
X13179824Y-11433484D01*
X13313158Y-11633484D02*
X13294110Y-11623960D01*
X13294110Y-11623960D02*
X13284586Y-11604912D01*
X13284586Y-11604912D02*
X13284586Y-11433484D01*
X13541729Y-11633484D02*
X13541729Y-11433484D01*
X13541729Y-11433484D02*
X13608396Y-11576341D01*
X13608396Y-11576341D02*
X13675062Y-11433484D01*
X13675062Y-11433484D02*
X13675062Y-11633484D01*
X13856015Y-11633484D02*
X13856015Y-11528722D01*
X13856015Y-11528722D02*
X13846491Y-11509674D01*
X13846491Y-11509674D02*
X13827443Y-11500150D01*
X13827443Y-11500150D02*
X13789348Y-11500150D01*
X13789348Y-11500150D02*
X13770301Y-11509674D01*
X13856015Y-11623960D02*
X13836967Y-11633484D01*
X13836967Y-11633484D02*
X13789348Y-11633484D01*
X13789348Y-11633484D02*
X13770301Y-11623960D01*
X13770301Y-11623960D02*
X13760777Y-11604912D01*
X13760777Y-11604912D02*
X13760777Y-11585865D01*
X13760777Y-11585865D02*
X13770301Y-11566817D01*
X13770301Y-11566817D02*
X13789348Y-11557293D01*
X13789348Y-11557293D02*
X13836967Y-11557293D01*
X13836967Y-11557293D02*
X13856015Y-11547769D01*
X13951253Y-11500150D02*
X13951253Y-11700150D01*
X13951253Y-11509674D02*
X13970301Y-11500150D01*
X13970301Y-11500150D02*
X14008396Y-11500150D01*
X14008396Y-11500150D02*
X14027443Y-11509674D01*
X14027443Y-11509674D02*
X14036967Y-11519198D01*
X14036967Y-11519198D02*
X14046491Y-11538246D01*
X14046491Y-11538246D02*
X14046491Y-11595388D01*
X14046491Y-11595388D02*
X14036967Y-11614436D01*
X14036967Y-11614436D02*
X14027443Y-11623960D01*
X14027443Y-11623960D02*
X14008396Y-11633484D01*
X14008396Y-11633484D02*
X13970301Y-11633484D01*
X13970301Y-11633484D02*
X13951253Y-11623960D01*
X14132205Y-11614436D02*
X14141729Y-11623960D01*
X14141729Y-11623960D02*
X14132205Y-11633484D01*
X14132205Y-11633484D02*
X14122682Y-11623960D01*
X14122682Y-11623960D02*
X14132205Y-11614436D01*
X14132205Y-11614436D02*
X14132205Y-11633484D01*
X14132205Y-11509674D02*
X14141729Y-11519198D01*
X14141729Y-11519198D02*
X14132205Y-11528722D01*
X14132205Y-11528722D02*
X14122682Y-11519198D01*
X14122682Y-11519198D02*
X14132205Y-11509674D01*
X14132205Y-11509674D02*
X14132205Y-11528722D01*
D12*
X12460000Y-11942000D02*
X12500000Y-11982000D01*
X12500000Y-11942000D02*
X12460000Y-11982000D01*
D11*
X12798872Y-11853484D02*
X12817920Y-11853484D01*
X12817920Y-11853484D02*
X12836967Y-11863008D01*
X12836967Y-11863008D02*
X12846491Y-11872531D01*
X12846491Y-11872531D02*
X12856015Y-11891579D01*
X12856015Y-11891579D02*
X12865539Y-11929674D01*
X12865539Y-11929674D02*
X12865539Y-11977293D01*
X12865539Y-11977293D02*
X12856015Y-12015388D01*
X12856015Y-12015388D02*
X12846491Y-12034436D01*
X12846491Y-12034436D02*
X12836967Y-12043960D01*
X12836967Y-12043960D02*
X12817920Y-12053484D01*
X12817920Y-12053484D02*
X12798872Y-12053484D01*
X12798872Y-12053484D02*
X12779824Y-12043960D01*
X12779824Y-12043960D02*
X12770301Y-12034436D01*
X12770301Y-12034436D02*
X12760777Y-12015388D01*
X12760777Y-12015388D02*
X12751253Y-11977293D01*
X12751253Y-11977293D02*
X12751253Y-11929674D01*
X12751253Y-11929674D02*
X12760777Y-11891579D01*
X12760777Y-11891579D02*
X12770301Y-11872531D01*
X12770301Y-11872531D02*
X12779824Y-11863008D01*
X12779824Y-11863008D02*
X12798872Y-11853484D01*
X12951253Y-12034436D02*
X12960777Y-12043960D01*
X12960777Y-12043960D02*
X12951253Y-12053484D01*
X12951253Y-12053484D02*
X12941729Y-12043960D01*
X12941729Y-12043960D02*
X12951253Y-12034436D01*
X12951253Y-12034436D02*
X12951253Y-12053484D01*
X13132205Y-11920150D02*
X13132205Y-12053484D01*
X13084586Y-11843960D02*
X13036967Y-11986817D01*
X13036967Y-11986817D02*
X13160777Y-11986817D01*
X13275062Y-11853484D02*
X13294110Y-11853484D01*
X13294110Y-11853484D02*
X13313158Y-11863008D01*
X13313158Y-11863008D02*
X13322682Y-11872531D01*
X13322682Y-11872531D02*
X13332205Y-11891579D01*
X13332205Y-11891579D02*
X13341729Y-11929674D01*
X13341729Y-11929674D02*
X13341729Y-11977293D01*
X13341729Y-11977293D02*
X13332205Y-12015388D01*
X13332205Y-12015388D02*
X13322682Y-12034436D01*
X13322682Y-12034436D02*
X13313158Y-12043960D01*
X13313158Y-12043960D02*
X13294110Y-12053484D01*
X13294110Y-12053484D02*
X13275062Y-12053484D01*
X13275062Y-12053484D02*
X13256015Y-12043960D01*
X13256015Y-12043960D02*
X13246491Y-12034436D01*
X13246491Y-12034436D02*
X13236967Y-12015388D01*
X13236967Y-12015388D02*
X13227443Y-11977293D01*
X13227443Y-11977293D02*
X13227443Y-11929674D01*
X13227443Y-11929674D02*
X13236967Y-11891579D01*
X13236967Y-11891579D02*
X13246491Y-11872531D01*
X13246491Y-11872531D02*
X13256015Y-11863008D01*
X13256015Y-11863008D02*
X13275062Y-11853484D01*
X13465539Y-11853484D02*
X13484586Y-11853484D01*
X13484586Y-11853484D02*
X13503634Y-11863008D01*
X13503634Y-11863008D02*
X13513158Y-11872531D01*
X13513158Y-11872531D02*
X13522682Y-11891579D01*
X13522682Y-11891579D02*
X13532205Y-11929674D01*
X13532205Y-11929674D02*
X13532205Y-11977293D01*
X13532205Y-11977293D02*
X13522682Y-12015388D01*
X13522682Y-12015388D02*
X13513158Y-12034436D01*
X13513158Y-12034436D02*
X13503634Y-12043960D01*
X13503634Y-12043960D02*
X13484586Y-12053484D01*
X13484586Y-12053484D02*
X13465539Y-12053484D01*
X13465539Y-12053484D02*
X13446491Y-12043960D01*
X13446491Y-12043960D02*
X13436967Y-12034436D01*
X13436967Y-12034436D02*
X13427443Y-12015388D01*
X13427443Y-12015388D02*
X13417920Y-11977293D01*
X13417920Y-11977293D02*
X13417920Y-11929674D01*
X13417920Y-11929674D02*
X13427443Y-11891579D01*
X13427443Y-11891579D02*
X13436967Y-11872531D01*
X13436967Y-11872531D02*
X13446491Y-11863008D01*
X13446491Y-11863008D02*
X13465539Y-11853484D01*
X13617920Y-12053484D02*
X13617920Y-11920150D01*
X13617920Y-11939198D02*
X13627443Y-11929674D01*
X13627443Y-11929674D02*
X13646491Y-11920150D01*
X13646491Y-11920150D02*
X13675063Y-11920150D01*
X13675063Y-11920150D02*
X13694110Y-11929674D01*
X13694110Y-11929674D02*
X13703634Y-11948722D01*
X13703634Y-11948722D02*
X13703634Y-12053484D01*
X13703634Y-11948722D02*
X13713158Y-11929674D01*
X13713158Y-11929674D02*
X13732205Y-11920150D01*
X13732205Y-11920150D02*
X13760777Y-11920150D01*
X13760777Y-11920150D02*
X13779824Y-11929674D01*
X13779824Y-11929674D02*
X13789348Y-11948722D01*
X13789348Y-11948722D02*
X13789348Y-12053484D01*
X13884586Y-12053484D02*
X13884586Y-11920150D01*
X13884586Y-11939198D02*
X13894110Y-11929674D01*
X13894110Y-11929674D02*
X13913158Y-11920150D01*
X13913158Y-11920150D02*
X13941729Y-11920150D01*
X13941729Y-11920150D02*
X13960777Y-11929674D01*
X13960777Y-11929674D02*
X13970301Y-11948722D01*
X13970301Y-11948722D02*
X13970301Y-12053484D01*
X13970301Y-11948722D02*
X13979824Y-11929674D01*
X13979824Y-11929674D02*
X13998872Y-11920150D01*
X13998872Y-11920150D02*
X14027443Y-11920150D01*
X14027443Y-11920150D02*
X14046491Y-11929674D01*
X14046491Y-11929674D02*
X14056015Y-11948722D01*
X14056015Y-11948722D02*
X14056015Y-12053484D01*
X14446491Y-11843960D02*
X14275063Y-12101103D01*
X14703634Y-11853484D02*
X14722682Y-11853484D01*
X14722682Y-11853484D02*
X14741729Y-11863008D01*
X14741729Y-11863008D02*
X14751253Y-11872531D01*
X14751253Y-11872531D02*
X14760777Y-11891579D01*
X14760777Y-11891579D02*
X14770301Y-11929674D01*
X14770301Y-11929674D02*
X14770301Y-11977293D01*
X14770301Y-11977293D02*
X14760777Y-12015388D01*
X14760777Y-12015388D02*
X14751253Y-12034436D01*
X14751253Y-12034436D02*
X14741729Y-12043960D01*
X14741729Y-12043960D02*
X14722682Y-12053484D01*
X14722682Y-12053484D02*
X14703634Y-12053484D01*
X14703634Y-12053484D02*
X14684586Y-12043960D01*
X14684586Y-12043960D02*
X14675063Y-12034436D01*
X14675063Y-12034436D02*
X14665539Y-12015388D01*
X14665539Y-12015388D02*
X14656015Y-11977293D01*
X14656015Y-11977293D02*
X14656015Y-11929674D01*
X14656015Y-11929674D02*
X14665539Y-11891579D01*
X14665539Y-11891579D02*
X14675063Y-11872531D01*
X14675063Y-11872531D02*
X14684586Y-11863008D01*
X14684586Y-11863008D02*
X14703634Y-11853484D01*
X14856015Y-12034436D02*
X14865539Y-12043960D01*
X14865539Y-12043960D02*
X14856015Y-12053484D01*
X14856015Y-12053484D02*
X14846491Y-12043960D01*
X14846491Y-12043960D02*
X14856015Y-12034436D01*
X14856015Y-12034436D02*
X14856015Y-12053484D01*
X14989348Y-11853484D02*
X15008396Y-11853484D01*
X15008396Y-11853484D02*
X15027444Y-11863008D01*
X15027444Y-11863008D02*
X15036967Y-11872531D01*
X15036967Y-11872531D02*
X15046491Y-11891579D01*
X15046491Y-11891579D02*
X15056015Y-11929674D01*
X15056015Y-11929674D02*
X15056015Y-11977293D01*
X15056015Y-11977293D02*
X15046491Y-12015388D01*
X15046491Y-12015388D02*
X15036967Y-12034436D01*
X15036967Y-12034436D02*
X15027444Y-12043960D01*
X15027444Y-12043960D02*
X15008396Y-12053484D01*
X15008396Y-12053484D02*
X14989348Y-12053484D01*
X14989348Y-12053484D02*
X14970301Y-12043960D01*
X14970301Y-12043960D02*
X14960777Y-12034436D01*
X14960777Y-12034436D02*
X14951253Y-12015388D01*
X14951253Y-12015388D02*
X14941729Y-11977293D01*
X14941729Y-11977293D02*
X14941729Y-11929674D01*
X14941729Y-11929674D02*
X14951253Y-11891579D01*
X14951253Y-11891579D02*
X14960777Y-11872531D01*
X14960777Y-11872531D02*
X14970301Y-11863008D01*
X14970301Y-11863008D02*
X14989348Y-11853484D01*
X15246491Y-12053484D02*
X15132206Y-12053484D01*
X15189348Y-12053484D02*
X15189348Y-11853484D01*
X15189348Y-11853484D02*
X15170301Y-11882055D01*
X15170301Y-11882055D02*
X15151253Y-11901103D01*
X15151253Y-11901103D02*
X15132206Y-11910627D01*
X15427444Y-11853484D02*
X15332206Y-11853484D01*
X15332206Y-11853484D02*
X15322682Y-11948722D01*
X15322682Y-11948722D02*
X15332206Y-11939198D01*
X15332206Y-11939198D02*
X15351253Y-11929674D01*
X15351253Y-11929674D02*
X15398872Y-11929674D01*
X15398872Y-11929674D02*
X15417920Y-11939198D01*
X15417920Y-11939198D02*
X15427444Y-11948722D01*
X15427444Y-11948722D02*
X15436967Y-11967769D01*
X15436967Y-11967769D02*
X15436967Y-12015388D01*
X15436967Y-12015388D02*
X15427444Y-12034436D01*
X15427444Y-12034436D02*
X15417920Y-12043960D01*
X15417920Y-12043960D02*
X15398872Y-12053484D01*
X15398872Y-12053484D02*
X15351253Y-12053484D01*
X15351253Y-12053484D02*
X15332206Y-12043960D01*
X15332206Y-12043960D02*
X15322682Y-12034436D01*
X15503634Y-11853484D02*
X15636967Y-11853484D01*
X15636967Y-11853484D02*
X15551253Y-12053484D01*
X15703634Y-11853484D02*
X15703634Y-11891579D01*
X15779825Y-11853484D02*
X15779825Y-11891579D01*
X16075063Y-12129674D02*
X16065539Y-12120150D01*
X16065539Y-12120150D02*
X16046491Y-12091579D01*
X16046491Y-12091579D02*
X16036968Y-12072531D01*
X16036968Y-12072531D02*
X16027444Y-12043960D01*
X16027444Y-12043960D02*
X16017920Y-11996341D01*
X16017920Y-11996341D02*
X16017920Y-11958246D01*
X16017920Y-11958246D02*
X16027444Y-11910627D01*
X16027444Y-11910627D02*
X16036968Y-11882055D01*
X16036968Y-11882055D02*
X16046491Y-11863008D01*
X16046491Y-11863008D02*
X16065539Y-11834436D01*
X16065539Y-11834436D02*
X16075063Y-11824912D01*
X16132206Y-11853484D02*
X16256015Y-11853484D01*
X16256015Y-11853484D02*
X16189348Y-11929674D01*
X16189348Y-11929674D02*
X16217920Y-11929674D01*
X16217920Y-11929674D02*
X16236968Y-11939198D01*
X16236968Y-11939198D02*
X16246491Y-11948722D01*
X16246491Y-11948722D02*
X16256015Y-11967769D01*
X16256015Y-11967769D02*
X16256015Y-12015388D01*
X16256015Y-12015388D02*
X16246491Y-12034436D01*
X16246491Y-12034436D02*
X16236968Y-12043960D01*
X16236968Y-12043960D02*
X16217920Y-12053484D01*
X16217920Y-12053484D02*
X16160777Y-12053484D01*
X16160777Y-12053484D02*
X16141729Y-12043960D01*
X16141729Y-12043960D02*
X16132206Y-12034436D01*
X16436968Y-11853484D02*
X16341729Y-11853484D01*
X16341729Y-11853484D02*
X16332206Y-11948722D01*
X16332206Y-11948722D02*
X16341729Y-11939198D01*
X16341729Y-11939198D02*
X16360777Y-11929674D01*
X16360777Y-11929674D02*
X16408396Y-11929674D01*
X16408396Y-11929674D02*
X16427444Y-11939198D01*
X16427444Y-11939198D02*
X16436968Y-11948722D01*
X16436968Y-11948722D02*
X16446491Y-11967769D01*
X16446491Y-11967769D02*
X16446491Y-12015388D01*
X16446491Y-12015388D02*
X16436968Y-12034436D01*
X16436968Y-12034436D02*
X16427444Y-12043960D01*
X16427444Y-12043960D02*
X16408396Y-12053484D01*
X16408396Y-12053484D02*
X16360777Y-12053484D01*
X16360777Y-12053484D02*
X16341729Y-12043960D01*
X16341729Y-12043960D02*
X16332206Y-12034436D01*
X16684587Y-12053484D02*
X16684587Y-11853484D01*
X16770301Y-12053484D02*
X16770301Y-11948722D01*
X16770301Y-11948722D02*
X16760777Y-11929674D01*
X16760777Y-11929674D02*
X16741730Y-11920150D01*
X16741730Y-11920150D02*
X16713158Y-11920150D01*
X16713158Y-11920150D02*
X16694110Y-11929674D01*
X16694110Y-11929674D02*
X16684587Y-11939198D01*
X16894111Y-12053484D02*
X16875063Y-12043960D01*
X16875063Y-12043960D02*
X16865539Y-12034436D01*
X16865539Y-12034436D02*
X16856015Y-12015388D01*
X16856015Y-12015388D02*
X16856015Y-11958246D01*
X16856015Y-11958246D02*
X16865539Y-11939198D01*
X16865539Y-11939198D02*
X16875063Y-11929674D01*
X16875063Y-11929674D02*
X16894111Y-11920150D01*
X16894111Y-11920150D02*
X16922682Y-11920150D01*
X16922682Y-11920150D02*
X16941730Y-11929674D01*
X16941730Y-11929674D02*
X16951253Y-11939198D01*
X16951253Y-11939198D02*
X16960777Y-11958246D01*
X16960777Y-11958246D02*
X16960777Y-12015388D01*
X16960777Y-12015388D02*
X16951253Y-12034436D01*
X16951253Y-12034436D02*
X16941730Y-12043960D01*
X16941730Y-12043960D02*
X16922682Y-12053484D01*
X16922682Y-12053484D02*
X16894111Y-12053484D01*
X17075063Y-12053484D02*
X17056015Y-12043960D01*
X17056015Y-12043960D02*
X17046492Y-12024912D01*
X17046492Y-12024912D02*
X17046492Y-11853484D01*
X17227444Y-12043960D02*
X17208396Y-12053484D01*
X17208396Y-12053484D02*
X17170301Y-12053484D01*
X17170301Y-12053484D02*
X17151253Y-12043960D01*
X17151253Y-12043960D02*
X17141730Y-12024912D01*
X17141730Y-12024912D02*
X17141730Y-11948722D01*
X17141730Y-11948722D02*
X17151253Y-11929674D01*
X17151253Y-11929674D02*
X17170301Y-11920150D01*
X17170301Y-11920150D02*
X17208396Y-11920150D01*
X17208396Y-11920150D02*
X17227444Y-11929674D01*
X17227444Y-11929674D02*
X17236968Y-11948722D01*
X17236968Y-11948722D02*
X17236968Y-11967769D01*
X17236968Y-11967769D02*
X17141730Y-11986817D01*
X17313158Y-12043960D02*
X17332206Y-12053484D01*
X17332206Y-12053484D02*
X17370301Y-12053484D01*
X17370301Y-12053484D02*
X17389349Y-12043960D01*
X17389349Y-12043960D02*
X17398873Y-12024912D01*
X17398873Y-12024912D02*
X17398873Y-12015388D01*
X17398873Y-12015388D02*
X17389349Y-11996341D01*
X17389349Y-11996341D02*
X17370301Y-11986817D01*
X17370301Y-11986817D02*
X17341730Y-11986817D01*
X17341730Y-11986817D02*
X17322682Y-11977293D01*
X17322682Y-11977293D02*
X17313158Y-11958246D01*
X17313158Y-11958246D02*
X17313158Y-11948722D01*
X17313158Y-11948722D02*
X17322682Y-11929674D01*
X17322682Y-11929674D02*
X17341730Y-11920150D01*
X17341730Y-11920150D02*
X17370301Y-11920150D01*
X17370301Y-11920150D02*
X17389349Y-11929674D01*
X17465539Y-12129674D02*
X17475063Y-12120150D01*
X17475063Y-12120150D02*
X17494111Y-12091579D01*
X17494111Y-12091579D02*
X17503634Y-12072531D01*
X17503634Y-12072531D02*
X17513158Y-12043960D01*
X17513158Y-12043960D02*
X17522682Y-11996341D01*
X17522682Y-11996341D02*
X17522682Y-11958246D01*
X17522682Y-11958246D02*
X17513158Y-11910627D01*
X17513158Y-11910627D02*
X17503634Y-11882055D01*
X17503634Y-11882055D02*
X17494111Y-11863008D01*
X17494111Y-11863008D02*
X17475063Y-11834436D01*
X17475063Y-11834436D02*
X17465539Y-11824912D01*
D10*
X12500000Y-12226000D02*
G75*
G03*
X12500000Y-12226000I-50000J0D01*
G01*
D11*
X12865539Y-12317484D02*
X12751253Y-12317484D01*
X12808396Y-12317484D02*
X12808396Y-12117484D01*
X12808396Y-12117484D02*
X12789348Y-12146055D01*
X12789348Y-12146055D02*
X12770301Y-12165103D01*
X12770301Y-12165103D02*
X12751253Y-12174627D01*
X12951253Y-12298436D02*
X12960777Y-12307960D01*
X12960777Y-12307960D02*
X12951253Y-12317484D01*
X12951253Y-12317484D02*
X12941729Y-12307960D01*
X12941729Y-12307960D02*
X12951253Y-12298436D01*
X12951253Y-12298436D02*
X12951253Y-12317484D01*
X13084586Y-12117484D02*
X13103634Y-12117484D01*
X13103634Y-12117484D02*
X13122682Y-12127008D01*
X13122682Y-12127008D02*
X13132205Y-12136531D01*
X13132205Y-12136531D02*
X13141729Y-12155579D01*
X13141729Y-12155579D02*
X13151253Y-12193674D01*
X13151253Y-12193674D02*
X13151253Y-12241293D01*
X13151253Y-12241293D02*
X13141729Y-12279388D01*
X13141729Y-12279388D02*
X13132205Y-12298436D01*
X13132205Y-12298436D02*
X13122682Y-12307960D01*
X13122682Y-12307960D02*
X13103634Y-12317484D01*
X13103634Y-12317484D02*
X13084586Y-12317484D01*
X13084586Y-12317484D02*
X13065539Y-12307960D01*
X13065539Y-12307960D02*
X13056015Y-12298436D01*
X13056015Y-12298436D02*
X13046491Y-12279388D01*
X13046491Y-12279388D02*
X13036967Y-12241293D01*
X13036967Y-12241293D02*
X13036967Y-12193674D01*
X13036967Y-12193674D02*
X13046491Y-12155579D01*
X13046491Y-12155579D02*
X13056015Y-12136531D01*
X13056015Y-12136531D02*
X13065539Y-12127008D01*
X13065539Y-12127008D02*
X13084586Y-12117484D01*
X13275062Y-12117484D02*
X13294110Y-12117484D01*
X13294110Y-12117484D02*
X13313158Y-12127008D01*
X13313158Y-12127008D02*
X13322682Y-12136531D01*
X13322682Y-12136531D02*
X13332205Y-12155579D01*
X13332205Y-12155579D02*
X13341729Y-12193674D01*
X13341729Y-12193674D02*
X13341729Y-12241293D01*
X13341729Y-12241293D02*
X13332205Y-12279388D01*
X13332205Y-12279388D02*
X13322682Y-12298436D01*
X13322682Y-12298436D02*
X13313158Y-12307960D01*
X13313158Y-12307960D02*
X13294110Y-12317484D01*
X13294110Y-12317484D02*
X13275062Y-12317484D01*
X13275062Y-12317484D02*
X13256015Y-12307960D01*
X13256015Y-12307960D02*
X13246491Y-12298436D01*
X13246491Y-12298436D02*
X13236967Y-12279388D01*
X13236967Y-12279388D02*
X13227443Y-12241293D01*
X13227443Y-12241293D02*
X13227443Y-12193674D01*
X13227443Y-12193674D02*
X13236967Y-12155579D01*
X13236967Y-12155579D02*
X13246491Y-12136531D01*
X13246491Y-12136531D02*
X13256015Y-12127008D01*
X13256015Y-12127008D02*
X13275062Y-12117484D01*
X13465539Y-12117484D02*
X13484586Y-12117484D01*
X13484586Y-12117484D02*
X13503634Y-12127008D01*
X13503634Y-12127008D02*
X13513158Y-12136531D01*
X13513158Y-12136531D02*
X13522682Y-12155579D01*
X13522682Y-12155579D02*
X13532205Y-12193674D01*
X13532205Y-12193674D02*
X13532205Y-12241293D01*
X13532205Y-12241293D02*
X13522682Y-12279388D01*
X13522682Y-12279388D02*
X13513158Y-12298436D01*
X13513158Y-12298436D02*
X13503634Y-12307960D01*
X13503634Y-12307960D02*
X13484586Y-12317484D01*
X13484586Y-12317484D02*
X13465539Y-12317484D01*
X13465539Y-12317484D02*
X13446491Y-12307960D01*
X13446491Y-12307960D02*
X13436967Y-12298436D01*
X13436967Y-12298436D02*
X13427443Y-12279388D01*
X13427443Y-12279388D02*
X13417920Y-12241293D01*
X13417920Y-12241293D02*
X13417920Y-12193674D01*
X13417920Y-12193674D02*
X13427443Y-12155579D01*
X13427443Y-12155579D02*
X13436967Y-12136531D01*
X13436967Y-12136531D02*
X13446491Y-12127008D01*
X13446491Y-12127008D02*
X13465539Y-12117484D01*
X13617920Y-12317484D02*
X13617920Y-12184150D01*
X13617920Y-12203198D02*
X13627443Y-12193674D01*
X13627443Y-12193674D02*
X13646491Y-12184150D01*
X13646491Y-12184150D02*
X13675063Y-12184150D01*
X13675063Y-12184150D02*
X13694110Y-12193674D01*
X13694110Y-12193674D02*
X13703634Y-12212722D01*
X13703634Y-12212722D02*
X13703634Y-12317484D01*
X13703634Y-12212722D02*
X13713158Y-12193674D01*
X13713158Y-12193674D02*
X13732205Y-12184150D01*
X13732205Y-12184150D02*
X13760777Y-12184150D01*
X13760777Y-12184150D02*
X13779824Y-12193674D01*
X13779824Y-12193674D02*
X13789348Y-12212722D01*
X13789348Y-12212722D02*
X13789348Y-12317484D01*
X13884586Y-12317484D02*
X13884586Y-12184150D01*
X13884586Y-12203198D02*
X13894110Y-12193674D01*
X13894110Y-12193674D02*
X13913158Y-12184150D01*
X13913158Y-12184150D02*
X13941729Y-12184150D01*
X13941729Y-12184150D02*
X13960777Y-12193674D01*
X13960777Y-12193674D02*
X13970301Y-12212722D01*
X13970301Y-12212722D02*
X13970301Y-12317484D01*
X13970301Y-12212722D02*
X13979824Y-12193674D01*
X13979824Y-12193674D02*
X13998872Y-12184150D01*
X13998872Y-12184150D02*
X14027443Y-12184150D01*
X14027443Y-12184150D02*
X14046491Y-12193674D01*
X14046491Y-12193674D02*
X14056015Y-12212722D01*
X14056015Y-12212722D02*
X14056015Y-12317484D01*
X14446491Y-12107960D02*
X14275063Y-12365103D01*
X14703634Y-12117484D02*
X14722682Y-12117484D01*
X14722682Y-12117484D02*
X14741729Y-12127008D01*
X14741729Y-12127008D02*
X14751253Y-12136531D01*
X14751253Y-12136531D02*
X14760777Y-12155579D01*
X14760777Y-12155579D02*
X14770301Y-12193674D01*
X14770301Y-12193674D02*
X14770301Y-12241293D01*
X14770301Y-12241293D02*
X14760777Y-12279388D01*
X14760777Y-12279388D02*
X14751253Y-12298436D01*
X14751253Y-12298436D02*
X14741729Y-12307960D01*
X14741729Y-12307960D02*
X14722682Y-12317484D01*
X14722682Y-12317484D02*
X14703634Y-12317484D01*
X14703634Y-12317484D02*
X14684586Y-12307960D01*
X14684586Y-12307960D02*
X14675063Y-12298436D01*
X14675063Y-12298436D02*
X14665539Y-12279388D01*
X14665539Y-12279388D02*
X14656015Y-12241293D01*
X14656015Y-12241293D02*
X14656015Y-12193674D01*
X14656015Y-12193674D02*
X14665539Y-12155579D01*
X14665539Y-12155579D02*
X14675063Y-12136531D01*
X14675063Y-12136531D02*
X14684586Y-12127008D01*
X14684586Y-12127008D02*
X14703634Y-12117484D01*
X14856015Y-12298436D02*
X14865539Y-12307960D01*
X14865539Y-12307960D02*
X14856015Y-12317484D01*
X14856015Y-12317484D02*
X14846491Y-12307960D01*
X14846491Y-12307960D02*
X14856015Y-12298436D01*
X14856015Y-12298436D02*
X14856015Y-12317484D01*
X14989348Y-12117484D02*
X15008396Y-12117484D01*
X15008396Y-12117484D02*
X15027444Y-12127008D01*
X15027444Y-12127008D02*
X15036967Y-12136531D01*
X15036967Y-12136531D02*
X15046491Y-12155579D01*
X15046491Y-12155579D02*
X15056015Y-12193674D01*
X15056015Y-12193674D02*
X15056015Y-12241293D01*
X15056015Y-12241293D02*
X15046491Y-12279388D01*
X15046491Y-12279388D02*
X15036967Y-12298436D01*
X15036967Y-12298436D02*
X15027444Y-12307960D01*
X15027444Y-12307960D02*
X15008396Y-12317484D01*
X15008396Y-12317484D02*
X14989348Y-12317484D01*
X14989348Y-12317484D02*
X14970301Y-12307960D01*
X14970301Y-12307960D02*
X14960777Y-12298436D01*
X14960777Y-12298436D02*
X14951253Y-12279388D01*
X14951253Y-12279388D02*
X14941729Y-12241293D01*
X14941729Y-12241293D02*
X14941729Y-12193674D01*
X14941729Y-12193674D02*
X14951253Y-12155579D01*
X14951253Y-12155579D02*
X14960777Y-12136531D01*
X14960777Y-12136531D02*
X14970301Y-12127008D01*
X14970301Y-12127008D02*
X14989348Y-12117484D01*
X15122682Y-12117484D02*
X15246491Y-12117484D01*
X15246491Y-12117484D02*
X15179825Y-12193674D01*
X15179825Y-12193674D02*
X15208396Y-12193674D01*
X15208396Y-12193674D02*
X15227444Y-12203198D01*
X15227444Y-12203198D02*
X15236967Y-12212722D01*
X15236967Y-12212722D02*
X15246491Y-12231769D01*
X15246491Y-12231769D02*
X15246491Y-12279388D01*
X15246491Y-12279388D02*
X15236967Y-12298436D01*
X15236967Y-12298436D02*
X15227444Y-12307960D01*
X15227444Y-12307960D02*
X15208396Y-12317484D01*
X15208396Y-12317484D02*
X15151253Y-12317484D01*
X15151253Y-12317484D02*
X15132206Y-12307960D01*
X15132206Y-12307960D02*
X15122682Y-12298436D01*
X15341729Y-12317484D02*
X15379825Y-12317484D01*
X15379825Y-12317484D02*
X15398872Y-12307960D01*
X15398872Y-12307960D02*
X15408396Y-12298436D01*
X15408396Y-12298436D02*
X15427444Y-12269865D01*
X15427444Y-12269865D02*
X15436967Y-12231769D01*
X15436967Y-12231769D02*
X15436967Y-12155579D01*
X15436967Y-12155579D02*
X15427444Y-12136531D01*
X15427444Y-12136531D02*
X15417920Y-12127008D01*
X15417920Y-12127008D02*
X15398872Y-12117484D01*
X15398872Y-12117484D02*
X15360777Y-12117484D01*
X15360777Y-12117484D02*
X15341729Y-12127008D01*
X15341729Y-12127008D02*
X15332206Y-12136531D01*
X15332206Y-12136531D02*
X15322682Y-12155579D01*
X15322682Y-12155579D02*
X15322682Y-12203198D01*
X15322682Y-12203198D02*
X15332206Y-12222246D01*
X15332206Y-12222246D02*
X15341729Y-12231769D01*
X15341729Y-12231769D02*
X15360777Y-12241293D01*
X15360777Y-12241293D02*
X15398872Y-12241293D01*
X15398872Y-12241293D02*
X15417920Y-12231769D01*
X15417920Y-12231769D02*
X15427444Y-12222246D01*
X15427444Y-12222246D02*
X15436967Y-12203198D01*
X15608396Y-12184150D02*
X15608396Y-12317484D01*
X15560777Y-12107960D02*
X15513158Y-12250817D01*
X15513158Y-12250817D02*
X15636967Y-12250817D01*
X15703634Y-12117484D02*
X15703634Y-12155579D01*
X15779825Y-12117484D02*
X15779825Y-12155579D01*
X16075063Y-12393674D02*
X16065539Y-12384150D01*
X16065539Y-12384150D02*
X16046491Y-12355579D01*
X16046491Y-12355579D02*
X16036968Y-12336531D01*
X16036968Y-12336531D02*
X16027444Y-12307960D01*
X16027444Y-12307960D02*
X16017920Y-12260341D01*
X16017920Y-12260341D02*
X16017920Y-12222246D01*
X16017920Y-12222246D02*
X16027444Y-12174627D01*
X16027444Y-12174627D02*
X16036968Y-12146055D01*
X16036968Y-12146055D02*
X16046491Y-12127008D01*
X16046491Y-12127008D02*
X16065539Y-12098436D01*
X16065539Y-12098436D02*
X16075063Y-12088912D01*
X16236968Y-12184150D02*
X16236968Y-12317484D01*
X16189348Y-12107960D02*
X16141729Y-12250817D01*
X16141729Y-12250817D02*
X16265539Y-12250817D01*
X16379825Y-12117484D02*
X16398872Y-12117484D01*
X16398872Y-12117484D02*
X16417920Y-12127008D01*
X16417920Y-12127008D02*
X16427444Y-12136531D01*
X16427444Y-12136531D02*
X16436968Y-12155579D01*
X16436968Y-12155579D02*
X16446491Y-12193674D01*
X16446491Y-12193674D02*
X16446491Y-12241293D01*
X16446491Y-12241293D02*
X16436968Y-12279388D01*
X16436968Y-12279388D02*
X16427444Y-12298436D01*
X16427444Y-12298436D02*
X16417920Y-12307960D01*
X16417920Y-12307960D02*
X16398872Y-12317484D01*
X16398872Y-12317484D02*
X16379825Y-12317484D01*
X16379825Y-12317484D02*
X16360777Y-12307960D01*
X16360777Y-12307960D02*
X16351253Y-12298436D01*
X16351253Y-12298436D02*
X16341729Y-12279388D01*
X16341729Y-12279388D02*
X16332206Y-12241293D01*
X16332206Y-12241293D02*
X16332206Y-12193674D01*
X16332206Y-12193674D02*
X16341729Y-12155579D01*
X16341729Y-12155579D02*
X16351253Y-12136531D01*
X16351253Y-12136531D02*
X16360777Y-12127008D01*
X16360777Y-12127008D02*
X16379825Y-12117484D01*
X16684587Y-12317484D02*
X16684587Y-12117484D01*
X16770301Y-12317484D02*
X16770301Y-12212722D01*
X16770301Y-12212722D02*
X16760777Y-12193674D01*
X16760777Y-12193674D02*
X16741730Y-12184150D01*
X16741730Y-12184150D02*
X16713158Y-12184150D01*
X16713158Y-12184150D02*
X16694110Y-12193674D01*
X16694110Y-12193674D02*
X16684587Y-12203198D01*
X16894111Y-12317484D02*
X16875063Y-12307960D01*
X16875063Y-12307960D02*
X16865539Y-12298436D01*
X16865539Y-12298436D02*
X16856015Y-12279388D01*
X16856015Y-12279388D02*
X16856015Y-12222246D01*
X16856015Y-12222246D02*
X16865539Y-12203198D01*
X16865539Y-12203198D02*
X16875063Y-12193674D01*
X16875063Y-12193674D02*
X16894111Y-12184150D01*
X16894111Y-12184150D02*
X16922682Y-12184150D01*
X16922682Y-12184150D02*
X16941730Y-12193674D01*
X16941730Y-12193674D02*
X16951253Y-12203198D01*
X16951253Y-12203198D02*
X16960777Y-12222246D01*
X16960777Y-12222246D02*
X16960777Y-12279388D01*
X16960777Y-12279388D02*
X16951253Y-12298436D01*
X16951253Y-12298436D02*
X16941730Y-12307960D01*
X16941730Y-12307960D02*
X16922682Y-12317484D01*
X16922682Y-12317484D02*
X16894111Y-12317484D01*
X17075063Y-12317484D02*
X17056015Y-12307960D01*
X17056015Y-12307960D02*
X17046492Y-12288912D01*
X17046492Y-12288912D02*
X17046492Y-12117484D01*
X17227444Y-12307960D02*
X17208396Y-12317484D01*
X17208396Y-12317484D02*
X17170301Y-12317484D01*
X17170301Y-12317484D02*
X17151253Y-12307960D01*
X17151253Y-12307960D02*
X17141730Y-12288912D01*
X17141730Y-12288912D02*
X17141730Y-12212722D01*
X17141730Y-12212722D02*
X17151253Y-12193674D01*
X17151253Y-12193674D02*
X17170301Y-12184150D01*
X17170301Y-12184150D02*
X17208396Y-12184150D01*
X17208396Y-12184150D02*
X17227444Y-12193674D01*
X17227444Y-12193674D02*
X17236968Y-12212722D01*
X17236968Y-12212722D02*
X17236968Y-12231769D01*
X17236968Y-12231769D02*
X17141730Y-12250817D01*
X17313158Y-12307960D02*
X17332206Y-12317484D01*
X17332206Y-12317484D02*
X17370301Y-12317484D01*
X17370301Y-12317484D02*
X17389349Y-12307960D01*
X17389349Y-12307960D02*
X17398873Y-12288912D01*
X17398873Y-12288912D02*
X17398873Y-12279388D01*
X17398873Y-12279388D02*
X17389349Y-12260341D01*
X17389349Y-12260341D02*
X17370301Y-12250817D01*
X17370301Y-12250817D02*
X17341730Y-12250817D01*
X17341730Y-12250817D02*
X17322682Y-12241293D01*
X17322682Y-12241293D02*
X17313158Y-12222246D01*
X17313158Y-12222246D02*
X17313158Y-12212722D01*
X17313158Y-12212722D02*
X17322682Y-12193674D01*
X17322682Y-12193674D02*
X17341730Y-12184150D01*
X17341730Y-12184150D02*
X17370301Y-12184150D01*
X17370301Y-12184150D02*
X17389349Y-12193674D01*
X17465539Y-12393674D02*
X17475063Y-12384150D01*
X17475063Y-12384150D02*
X17494111Y-12355579D01*
X17494111Y-12355579D02*
X17503634Y-12336531D01*
X17503634Y-12336531D02*
X17513158Y-12307960D01*
X17513158Y-12307960D02*
X17522682Y-12260341D01*
X17522682Y-12260341D02*
X17522682Y-12222246D01*
X17522682Y-12222246D02*
X17513158Y-12174627D01*
X17513158Y-12174627D02*
X17503634Y-12146055D01*
X17503634Y-12146055D02*
X17494111Y-12127008D01*
X17494111Y-12127008D02*
X17475063Y-12098436D01*
X17475063Y-12098436D02*
X17465539Y-12088912D01*
D13*
X12425000Y-12415000D02*
X12425000Y-12565000D01*
X12350000Y-12490000D02*
X12500000Y-12490000D01*
D11*
X12865539Y-12581484D02*
X12751253Y-12581484D01*
X12808396Y-12581484D02*
X12808396Y-12381484D01*
X12808396Y-12381484D02*
X12789348Y-12410055D01*
X12789348Y-12410055D02*
X12770301Y-12429103D01*
X12770301Y-12429103D02*
X12751253Y-12438627D01*
X12951253Y-12562436D02*
X12960777Y-12571960D01*
X12960777Y-12571960D02*
X12951253Y-12581484D01*
X12951253Y-12581484D02*
X12941729Y-12571960D01*
X12941729Y-12571960D02*
X12951253Y-12562436D01*
X12951253Y-12562436D02*
X12951253Y-12581484D01*
X13141729Y-12381484D02*
X13046491Y-12381484D01*
X13046491Y-12381484D02*
X13036967Y-12476722D01*
X13036967Y-12476722D02*
X13046491Y-12467198D01*
X13046491Y-12467198D02*
X13065539Y-12457674D01*
X13065539Y-12457674D02*
X13113158Y-12457674D01*
X13113158Y-12457674D02*
X13132205Y-12467198D01*
X13132205Y-12467198D02*
X13141729Y-12476722D01*
X13141729Y-12476722D02*
X13151253Y-12495769D01*
X13151253Y-12495769D02*
X13151253Y-12543388D01*
X13151253Y-12543388D02*
X13141729Y-12562436D01*
X13141729Y-12562436D02*
X13132205Y-12571960D01*
X13132205Y-12571960D02*
X13113158Y-12581484D01*
X13113158Y-12581484D02*
X13065539Y-12581484D01*
X13065539Y-12581484D02*
X13046491Y-12571960D01*
X13046491Y-12571960D02*
X13036967Y-12562436D01*
X13275062Y-12381484D02*
X13294110Y-12381484D01*
X13294110Y-12381484D02*
X13313158Y-12391008D01*
X13313158Y-12391008D02*
X13322682Y-12400531D01*
X13322682Y-12400531D02*
X13332205Y-12419579D01*
X13332205Y-12419579D02*
X13341729Y-12457674D01*
X13341729Y-12457674D02*
X13341729Y-12505293D01*
X13341729Y-12505293D02*
X13332205Y-12543388D01*
X13332205Y-12543388D02*
X13322682Y-12562436D01*
X13322682Y-12562436D02*
X13313158Y-12571960D01*
X13313158Y-12571960D02*
X13294110Y-12581484D01*
X13294110Y-12581484D02*
X13275062Y-12581484D01*
X13275062Y-12581484D02*
X13256015Y-12571960D01*
X13256015Y-12571960D02*
X13246491Y-12562436D01*
X13246491Y-12562436D02*
X13236967Y-12543388D01*
X13236967Y-12543388D02*
X13227443Y-12505293D01*
X13227443Y-12505293D02*
X13227443Y-12457674D01*
X13227443Y-12457674D02*
X13236967Y-12419579D01*
X13236967Y-12419579D02*
X13246491Y-12400531D01*
X13246491Y-12400531D02*
X13256015Y-12391008D01*
X13256015Y-12391008D02*
X13275062Y-12381484D01*
X13465539Y-12381484D02*
X13484586Y-12381484D01*
X13484586Y-12381484D02*
X13503634Y-12391008D01*
X13503634Y-12391008D02*
X13513158Y-12400531D01*
X13513158Y-12400531D02*
X13522682Y-12419579D01*
X13522682Y-12419579D02*
X13532205Y-12457674D01*
X13532205Y-12457674D02*
X13532205Y-12505293D01*
X13532205Y-12505293D02*
X13522682Y-12543388D01*
X13522682Y-12543388D02*
X13513158Y-12562436D01*
X13513158Y-12562436D02*
X13503634Y-12571960D01*
X13503634Y-12571960D02*
X13484586Y-12581484D01*
X13484586Y-12581484D02*
X13465539Y-12581484D01*
X13465539Y-12581484D02*
X13446491Y-12571960D01*
X13446491Y-12571960D02*
X13436967Y-12562436D01*
X13436967Y-12562436D02*
X13427443Y-12543388D01*
X13427443Y-12543388D02*
X13417920Y-12505293D01*
X13417920Y-12505293D02*
X13417920Y-12457674D01*
X13417920Y-12457674D02*
X13427443Y-12419579D01*
X13427443Y-12419579D02*
X13436967Y-12400531D01*
X13436967Y-12400531D02*
X13446491Y-12391008D01*
X13446491Y-12391008D02*
X13465539Y-12381484D01*
X13617920Y-12581484D02*
X13617920Y-12448150D01*
X13617920Y-12467198D02*
X13627443Y-12457674D01*
X13627443Y-12457674D02*
X13646491Y-12448150D01*
X13646491Y-12448150D02*
X13675063Y-12448150D01*
X13675063Y-12448150D02*
X13694110Y-12457674D01*
X13694110Y-12457674D02*
X13703634Y-12476722D01*
X13703634Y-12476722D02*
X13703634Y-12581484D01*
X13703634Y-12476722D02*
X13713158Y-12457674D01*
X13713158Y-12457674D02*
X13732205Y-12448150D01*
X13732205Y-12448150D02*
X13760777Y-12448150D01*
X13760777Y-12448150D02*
X13779824Y-12457674D01*
X13779824Y-12457674D02*
X13789348Y-12476722D01*
X13789348Y-12476722D02*
X13789348Y-12581484D01*
X13884586Y-12581484D02*
X13884586Y-12448150D01*
X13884586Y-12467198D02*
X13894110Y-12457674D01*
X13894110Y-12457674D02*
X13913158Y-12448150D01*
X13913158Y-12448150D02*
X13941729Y-12448150D01*
X13941729Y-12448150D02*
X13960777Y-12457674D01*
X13960777Y-12457674D02*
X13970301Y-12476722D01*
X13970301Y-12476722D02*
X13970301Y-12581484D01*
X13970301Y-12476722D02*
X13979824Y-12457674D01*
X13979824Y-12457674D02*
X13998872Y-12448150D01*
X13998872Y-12448150D02*
X14027443Y-12448150D01*
X14027443Y-12448150D02*
X14046491Y-12457674D01*
X14046491Y-12457674D02*
X14056015Y-12476722D01*
X14056015Y-12476722D02*
X14056015Y-12581484D01*
X14446491Y-12371960D02*
X14275063Y-12629103D01*
X14703634Y-12381484D02*
X14722682Y-12381484D01*
X14722682Y-12381484D02*
X14741729Y-12391008D01*
X14741729Y-12391008D02*
X14751253Y-12400531D01*
X14751253Y-12400531D02*
X14760777Y-12419579D01*
X14760777Y-12419579D02*
X14770301Y-12457674D01*
X14770301Y-12457674D02*
X14770301Y-12505293D01*
X14770301Y-12505293D02*
X14760777Y-12543388D01*
X14760777Y-12543388D02*
X14751253Y-12562436D01*
X14751253Y-12562436D02*
X14741729Y-12571960D01*
X14741729Y-12571960D02*
X14722682Y-12581484D01*
X14722682Y-12581484D02*
X14703634Y-12581484D01*
X14703634Y-12581484D02*
X14684586Y-12571960D01*
X14684586Y-12571960D02*
X14675063Y-12562436D01*
X14675063Y-12562436D02*
X14665539Y-12543388D01*
X14665539Y-12543388D02*
X14656015Y-12505293D01*
X14656015Y-12505293D02*
X14656015Y-12457674D01*
X14656015Y-12457674D02*
X14665539Y-12419579D01*
X14665539Y-12419579D02*
X14675063Y-12400531D01*
X14675063Y-12400531D02*
X14684586Y-12391008D01*
X14684586Y-12391008D02*
X14703634Y-12381484D01*
X14856015Y-12562436D02*
X14865539Y-12571960D01*
X14865539Y-12571960D02*
X14856015Y-12581484D01*
X14856015Y-12581484D02*
X14846491Y-12571960D01*
X14846491Y-12571960D02*
X14856015Y-12562436D01*
X14856015Y-12562436D02*
X14856015Y-12581484D01*
X14989348Y-12381484D02*
X15008396Y-12381484D01*
X15008396Y-12381484D02*
X15027444Y-12391008D01*
X15027444Y-12391008D02*
X15036967Y-12400531D01*
X15036967Y-12400531D02*
X15046491Y-12419579D01*
X15046491Y-12419579D02*
X15056015Y-12457674D01*
X15056015Y-12457674D02*
X15056015Y-12505293D01*
X15056015Y-12505293D02*
X15046491Y-12543388D01*
X15046491Y-12543388D02*
X15036967Y-12562436D01*
X15036967Y-12562436D02*
X15027444Y-12571960D01*
X15027444Y-12571960D02*
X15008396Y-12581484D01*
X15008396Y-12581484D02*
X14989348Y-12581484D01*
X14989348Y-12581484D02*
X14970301Y-12571960D01*
X14970301Y-12571960D02*
X14960777Y-12562436D01*
X14960777Y-12562436D02*
X14951253Y-12543388D01*
X14951253Y-12543388D02*
X14941729Y-12505293D01*
X14941729Y-12505293D02*
X14941729Y-12457674D01*
X14941729Y-12457674D02*
X14951253Y-12419579D01*
X14951253Y-12419579D02*
X14960777Y-12400531D01*
X14960777Y-12400531D02*
X14970301Y-12391008D01*
X14970301Y-12391008D02*
X14989348Y-12381484D01*
X15236967Y-12381484D02*
X15141729Y-12381484D01*
X15141729Y-12381484D02*
X15132206Y-12476722D01*
X15132206Y-12476722D02*
X15141729Y-12467198D01*
X15141729Y-12467198D02*
X15160777Y-12457674D01*
X15160777Y-12457674D02*
X15208396Y-12457674D01*
X15208396Y-12457674D02*
X15227444Y-12467198D01*
X15227444Y-12467198D02*
X15236967Y-12476722D01*
X15236967Y-12476722D02*
X15246491Y-12495769D01*
X15246491Y-12495769D02*
X15246491Y-12543388D01*
X15246491Y-12543388D02*
X15236967Y-12562436D01*
X15236967Y-12562436D02*
X15227444Y-12571960D01*
X15227444Y-12571960D02*
X15208396Y-12581484D01*
X15208396Y-12581484D02*
X15160777Y-12581484D01*
X15160777Y-12581484D02*
X15141729Y-12571960D01*
X15141729Y-12571960D02*
X15132206Y-12562436D01*
X15341729Y-12581484D02*
X15379825Y-12581484D01*
X15379825Y-12581484D02*
X15398872Y-12571960D01*
X15398872Y-12571960D02*
X15408396Y-12562436D01*
X15408396Y-12562436D02*
X15427444Y-12533865D01*
X15427444Y-12533865D02*
X15436967Y-12495769D01*
X15436967Y-12495769D02*
X15436967Y-12419579D01*
X15436967Y-12419579D02*
X15427444Y-12400531D01*
X15427444Y-12400531D02*
X15417920Y-12391008D01*
X15417920Y-12391008D02*
X15398872Y-12381484D01*
X15398872Y-12381484D02*
X15360777Y-12381484D01*
X15360777Y-12381484D02*
X15341729Y-12391008D01*
X15341729Y-12391008D02*
X15332206Y-12400531D01*
X15332206Y-12400531D02*
X15322682Y-12419579D01*
X15322682Y-12419579D02*
X15322682Y-12467198D01*
X15322682Y-12467198D02*
X15332206Y-12486246D01*
X15332206Y-12486246D02*
X15341729Y-12495769D01*
X15341729Y-12495769D02*
X15360777Y-12505293D01*
X15360777Y-12505293D02*
X15398872Y-12505293D01*
X15398872Y-12505293D02*
X15417920Y-12495769D01*
X15417920Y-12495769D02*
X15427444Y-12486246D01*
X15427444Y-12486246D02*
X15436967Y-12467198D01*
X15627444Y-12581484D02*
X15513158Y-12581484D01*
X15570301Y-12581484D02*
X15570301Y-12381484D01*
X15570301Y-12381484D02*
X15551253Y-12410055D01*
X15551253Y-12410055D02*
X15532206Y-12429103D01*
X15532206Y-12429103D02*
X15513158Y-12438627D01*
X15703634Y-12381484D02*
X15703634Y-12419579D01*
X15779825Y-12381484D02*
X15779825Y-12419579D01*
X16075063Y-12657674D02*
X16065539Y-12648150D01*
X16065539Y-12648150D02*
X16046491Y-12619579D01*
X16046491Y-12619579D02*
X16036968Y-12600531D01*
X16036968Y-12600531D02*
X16027444Y-12571960D01*
X16027444Y-12571960D02*
X16017920Y-12524341D01*
X16017920Y-12524341D02*
X16017920Y-12486246D01*
X16017920Y-12486246D02*
X16027444Y-12438627D01*
X16027444Y-12438627D02*
X16036968Y-12410055D01*
X16036968Y-12410055D02*
X16046491Y-12391008D01*
X16046491Y-12391008D02*
X16065539Y-12362436D01*
X16065539Y-12362436D02*
X16075063Y-12352912D01*
X16256015Y-12581484D02*
X16141729Y-12581484D01*
X16198872Y-12581484D02*
X16198872Y-12381484D01*
X16198872Y-12381484D02*
X16179825Y-12410055D01*
X16179825Y-12410055D02*
X16160777Y-12429103D01*
X16160777Y-12429103D02*
X16141729Y-12438627D01*
X16494110Y-12581484D02*
X16494110Y-12381484D01*
X16579825Y-12581484D02*
X16579825Y-12476722D01*
X16579825Y-12476722D02*
X16570301Y-12457674D01*
X16570301Y-12457674D02*
X16551253Y-12448150D01*
X16551253Y-12448150D02*
X16522682Y-12448150D01*
X16522682Y-12448150D02*
X16503634Y-12457674D01*
X16503634Y-12457674D02*
X16494110Y-12467198D01*
X16703634Y-12581484D02*
X16684587Y-12571960D01*
X16684587Y-12571960D02*
X16675063Y-12562436D01*
X16675063Y-12562436D02*
X16665539Y-12543388D01*
X16665539Y-12543388D02*
X16665539Y-12486246D01*
X16665539Y-12486246D02*
X16675063Y-12467198D01*
X16675063Y-12467198D02*
X16684587Y-12457674D01*
X16684587Y-12457674D02*
X16703634Y-12448150D01*
X16703634Y-12448150D02*
X16732206Y-12448150D01*
X16732206Y-12448150D02*
X16751253Y-12457674D01*
X16751253Y-12457674D02*
X16760777Y-12467198D01*
X16760777Y-12467198D02*
X16770301Y-12486246D01*
X16770301Y-12486246D02*
X16770301Y-12543388D01*
X16770301Y-12543388D02*
X16760777Y-12562436D01*
X16760777Y-12562436D02*
X16751253Y-12571960D01*
X16751253Y-12571960D02*
X16732206Y-12581484D01*
X16732206Y-12581484D02*
X16703634Y-12581484D01*
X16884587Y-12581484D02*
X16865539Y-12571960D01*
X16865539Y-12571960D02*
X16856015Y-12552912D01*
X16856015Y-12552912D02*
X16856015Y-12381484D01*
X17036968Y-12571960D02*
X17017920Y-12581484D01*
X17017920Y-12581484D02*
X16979825Y-12581484D01*
X16979825Y-12581484D02*
X16960777Y-12571960D01*
X16960777Y-12571960D02*
X16951253Y-12552912D01*
X16951253Y-12552912D02*
X16951253Y-12476722D01*
X16951253Y-12476722D02*
X16960777Y-12457674D01*
X16960777Y-12457674D02*
X16979825Y-12448150D01*
X16979825Y-12448150D02*
X17017920Y-12448150D01*
X17017920Y-12448150D02*
X17036968Y-12457674D01*
X17036968Y-12457674D02*
X17046492Y-12476722D01*
X17046492Y-12476722D02*
X17046492Y-12495769D01*
X17046492Y-12495769D02*
X16951253Y-12514817D01*
X17113158Y-12657674D02*
X17122682Y-12648150D01*
X17122682Y-12648150D02*
X17141730Y-12619579D01*
X17141730Y-12619579D02*
X17151253Y-12600531D01*
X17151253Y-12600531D02*
X17160777Y-12571960D01*
X17160777Y-12571960D02*
X17170301Y-12524341D01*
X17170301Y-12524341D02*
X17170301Y-12486246D01*
X17170301Y-12486246D02*
X17160777Y-12438627D01*
X17160777Y-12438627D02*
X17151253Y-12410055D01*
X17151253Y-12410055D02*
X17141730Y-12391008D01*
X17141730Y-12391008D02*
X17122682Y-12362436D01*
X17122682Y-12362436D02*
X17113158Y-12352912D01*
D14*
X12475105Y-12820105D02*
X12475105Y-12699895D01*
X12354895Y-12699895D01*
X12354895Y-12820105D01*
X12475105Y-12820105D01*
D11*
X12865539Y-12851484D02*
X12751253Y-12851484D01*
X12808396Y-12851484D02*
X12808396Y-12651484D01*
X12808396Y-12651484D02*
X12789348Y-12680055D01*
X12789348Y-12680055D02*
X12770301Y-12699103D01*
X12770301Y-12699103D02*
X12751253Y-12708627D01*
X12951253Y-12832436D02*
X12960777Y-12841960D01*
X12960777Y-12841960D02*
X12951253Y-12851484D01*
X12951253Y-12851484D02*
X12941729Y-12841960D01*
X12941729Y-12841960D02*
X12951253Y-12832436D01*
X12951253Y-12832436D02*
X12951253Y-12851484D01*
X13027443Y-12651484D02*
X13160777Y-12651484D01*
X13160777Y-12651484D02*
X13075062Y-12851484D01*
X13275062Y-12651484D02*
X13294110Y-12651484D01*
X13294110Y-12651484D02*
X13313158Y-12661008D01*
X13313158Y-12661008D02*
X13322682Y-12670531D01*
X13322682Y-12670531D02*
X13332205Y-12689579D01*
X13332205Y-12689579D02*
X13341729Y-12727674D01*
X13341729Y-12727674D02*
X13341729Y-12775293D01*
X13341729Y-12775293D02*
X13332205Y-12813388D01*
X13332205Y-12813388D02*
X13322682Y-12832436D01*
X13322682Y-12832436D02*
X13313158Y-12841960D01*
X13313158Y-12841960D02*
X13294110Y-12851484D01*
X13294110Y-12851484D02*
X13275062Y-12851484D01*
X13275062Y-12851484D02*
X13256015Y-12841960D01*
X13256015Y-12841960D02*
X13246491Y-12832436D01*
X13246491Y-12832436D02*
X13236967Y-12813388D01*
X13236967Y-12813388D02*
X13227443Y-12775293D01*
X13227443Y-12775293D02*
X13227443Y-12727674D01*
X13227443Y-12727674D02*
X13236967Y-12689579D01*
X13236967Y-12689579D02*
X13246491Y-12670531D01*
X13246491Y-12670531D02*
X13256015Y-12661008D01*
X13256015Y-12661008D02*
X13275062Y-12651484D01*
X13465539Y-12651484D02*
X13484586Y-12651484D01*
X13484586Y-12651484D02*
X13503634Y-12661008D01*
X13503634Y-12661008D02*
X13513158Y-12670531D01*
X13513158Y-12670531D02*
X13522682Y-12689579D01*
X13522682Y-12689579D02*
X13532205Y-12727674D01*
X13532205Y-12727674D02*
X13532205Y-12775293D01*
X13532205Y-12775293D02*
X13522682Y-12813388D01*
X13522682Y-12813388D02*
X13513158Y-12832436D01*
X13513158Y-12832436D02*
X13503634Y-12841960D01*
X13503634Y-12841960D02*
X13484586Y-12851484D01*
X13484586Y-12851484D02*
X13465539Y-12851484D01*
X13465539Y-12851484D02*
X13446491Y-12841960D01*
X13446491Y-12841960D02*
X13436967Y-12832436D01*
X13436967Y-12832436D02*
X13427443Y-12813388D01*
X13427443Y-12813388D02*
X13417920Y-12775293D01*
X13417920Y-12775293D02*
X13417920Y-12727674D01*
X13417920Y-12727674D02*
X13427443Y-12689579D01*
X13427443Y-12689579D02*
X13436967Y-12670531D01*
X13436967Y-12670531D02*
X13446491Y-12661008D01*
X13446491Y-12661008D02*
X13465539Y-12651484D01*
X13617920Y-12851484D02*
X13617920Y-12718150D01*
X13617920Y-12737198D02*
X13627443Y-12727674D01*
X13627443Y-12727674D02*
X13646491Y-12718150D01*
X13646491Y-12718150D02*
X13675063Y-12718150D01*
X13675063Y-12718150D02*
X13694110Y-12727674D01*
X13694110Y-12727674D02*
X13703634Y-12746722D01*
X13703634Y-12746722D02*
X13703634Y-12851484D01*
X13703634Y-12746722D02*
X13713158Y-12727674D01*
X13713158Y-12727674D02*
X13732205Y-12718150D01*
X13732205Y-12718150D02*
X13760777Y-12718150D01*
X13760777Y-12718150D02*
X13779824Y-12727674D01*
X13779824Y-12727674D02*
X13789348Y-12746722D01*
X13789348Y-12746722D02*
X13789348Y-12851484D01*
X13884586Y-12851484D02*
X13884586Y-12718150D01*
X13884586Y-12737198D02*
X13894110Y-12727674D01*
X13894110Y-12727674D02*
X13913158Y-12718150D01*
X13913158Y-12718150D02*
X13941729Y-12718150D01*
X13941729Y-12718150D02*
X13960777Y-12727674D01*
X13960777Y-12727674D02*
X13970301Y-12746722D01*
X13970301Y-12746722D02*
X13970301Y-12851484D01*
X13970301Y-12746722D02*
X13979824Y-12727674D01*
X13979824Y-12727674D02*
X13998872Y-12718150D01*
X13998872Y-12718150D02*
X14027443Y-12718150D01*
X14027443Y-12718150D02*
X14046491Y-12727674D01*
X14046491Y-12727674D02*
X14056015Y-12746722D01*
X14056015Y-12746722D02*
X14056015Y-12851484D01*
X14446491Y-12641960D02*
X14275063Y-12899103D01*
X14703634Y-12651484D02*
X14722682Y-12651484D01*
X14722682Y-12651484D02*
X14741729Y-12661008D01*
X14741729Y-12661008D02*
X14751253Y-12670531D01*
X14751253Y-12670531D02*
X14760777Y-12689579D01*
X14760777Y-12689579D02*
X14770301Y-12727674D01*
X14770301Y-12727674D02*
X14770301Y-12775293D01*
X14770301Y-12775293D02*
X14760777Y-12813388D01*
X14760777Y-12813388D02*
X14751253Y-12832436D01*
X14751253Y-12832436D02*
X14741729Y-12841960D01*
X14741729Y-12841960D02*
X14722682Y-12851484D01*
X14722682Y-12851484D02*
X14703634Y-12851484D01*
X14703634Y-12851484D02*
X14684586Y-12841960D01*
X14684586Y-12841960D02*
X14675063Y-12832436D01*
X14675063Y-12832436D02*
X14665539Y-12813388D01*
X14665539Y-12813388D02*
X14656015Y-12775293D01*
X14656015Y-12775293D02*
X14656015Y-12727674D01*
X14656015Y-12727674D02*
X14665539Y-12689579D01*
X14665539Y-12689579D02*
X14675063Y-12670531D01*
X14675063Y-12670531D02*
X14684586Y-12661008D01*
X14684586Y-12661008D02*
X14703634Y-12651484D01*
X14856015Y-12832436D02*
X14865539Y-12841960D01*
X14865539Y-12841960D02*
X14856015Y-12851484D01*
X14856015Y-12851484D02*
X14846491Y-12841960D01*
X14846491Y-12841960D02*
X14856015Y-12832436D01*
X14856015Y-12832436D02*
X14856015Y-12851484D01*
X14989348Y-12651484D02*
X15008396Y-12651484D01*
X15008396Y-12651484D02*
X15027444Y-12661008D01*
X15027444Y-12661008D02*
X15036967Y-12670531D01*
X15036967Y-12670531D02*
X15046491Y-12689579D01*
X15046491Y-12689579D02*
X15056015Y-12727674D01*
X15056015Y-12727674D02*
X15056015Y-12775293D01*
X15056015Y-12775293D02*
X15046491Y-12813388D01*
X15046491Y-12813388D02*
X15036967Y-12832436D01*
X15036967Y-12832436D02*
X15027444Y-12841960D01*
X15027444Y-12841960D02*
X15008396Y-12851484D01*
X15008396Y-12851484D02*
X14989348Y-12851484D01*
X14989348Y-12851484D02*
X14970301Y-12841960D01*
X14970301Y-12841960D02*
X14960777Y-12832436D01*
X14960777Y-12832436D02*
X14951253Y-12813388D01*
X14951253Y-12813388D02*
X14941729Y-12775293D01*
X14941729Y-12775293D02*
X14941729Y-12727674D01*
X14941729Y-12727674D02*
X14951253Y-12689579D01*
X14951253Y-12689579D02*
X14960777Y-12670531D01*
X14960777Y-12670531D02*
X14970301Y-12661008D01*
X14970301Y-12661008D02*
X14989348Y-12651484D01*
X15227444Y-12651484D02*
X15189348Y-12651484D01*
X15189348Y-12651484D02*
X15170301Y-12661008D01*
X15170301Y-12661008D02*
X15160777Y-12670531D01*
X15160777Y-12670531D02*
X15141729Y-12699103D01*
X15141729Y-12699103D02*
X15132206Y-12737198D01*
X15132206Y-12737198D02*
X15132206Y-12813388D01*
X15132206Y-12813388D02*
X15141729Y-12832436D01*
X15141729Y-12832436D02*
X15151253Y-12841960D01*
X15151253Y-12841960D02*
X15170301Y-12851484D01*
X15170301Y-12851484D02*
X15208396Y-12851484D01*
X15208396Y-12851484D02*
X15227444Y-12841960D01*
X15227444Y-12841960D02*
X15236967Y-12832436D01*
X15236967Y-12832436D02*
X15246491Y-12813388D01*
X15246491Y-12813388D02*
X15246491Y-12765769D01*
X15246491Y-12765769D02*
X15236967Y-12746722D01*
X15236967Y-12746722D02*
X15227444Y-12737198D01*
X15227444Y-12737198D02*
X15208396Y-12727674D01*
X15208396Y-12727674D02*
X15170301Y-12727674D01*
X15170301Y-12727674D02*
X15151253Y-12737198D01*
X15151253Y-12737198D02*
X15141729Y-12746722D01*
X15141729Y-12746722D02*
X15132206Y-12765769D01*
X15417920Y-12651484D02*
X15379825Y-12651484D01*
X15379825Y-12651484D02*
X15360777Y-12661008D01*
X15360777Y-12661008D02*
X15351253Y-12670531D01*
X15351253Y-12670531D02*
X15332206Y-12699103D01*
X15332206Y-12699103D02*
X15322682Y-12737198D01*
X15322682Y-12737198D02*
X15322682Y-12813388D01*
X15322682Y-12813388D02*
X15332206Y-12832436D01*
X15332206Y-12832436D02*
X15341729Y-12841960D01*
X15341729Y-12841960D02*
X15360777Y-12851484D01*
X15360777Y-12851484D02*
X15398872Y-12851484D01*
X15398872Y-12851484D02*
X15417920Y-12841960D01*
X15417920Y-12841960D02*
X15427444Y-12832436D01*
X15427444Y-12832436D02*
X15436967Y-12813388D01*
X15436967Y-12813388D02*
X15436967Y-12765769D01*
X15436967Y-12765769D02*
X15427444Y-12746722D01*
X15427444Y-12746722D02*
X15417920Y-12737198D01*
X15417920Y-12737198D02*
X15398872Y-12727674D01*
X15398872Y-12727674D02*
X15360777Y-12727674D01*
X15360777Y-12727674D02*
X15341729Y-12737198D01*
X15341729Y-12737198D02*
X15332206Y-12746722D01*
X15332206Y-12746722D02*
X15322682Y-12765769D01*
X15532206Y-12851484D02*
X15570301Y-12851484D01*
X15570301Y-12851484D02*
X15589348Y-12841960D01*
X15589348Y-12841960D02*
X15598872Y-12832436D01*
X15598872Y-12832436D02*
X15617920Y-12803865D01*
X15617920Y-12803865D02*
X15627444Y-12765769D01*
X15627444Y-12765769D02*
X15627444Y-12689579D01*
X15627444Y-12689579D02*
X15617920Y-12670531D01*
X15617920Y-12670531D02*
X15608396Y-12661008D01*
X15608396Y-12661008D02*
X15589348Y-12651484D01*
X15589348Y-12651484D02*
X15551253Y-12651484D01*
X15551253Y-12651484D02*
X15532206Y-12661008D01*
X15532206Y-12661008D02*
X15522682Y-12670531D01*
X15522682Y-12670531D02*
X15513158Y-12689579D01*
X15513158Y-12689579D02*
X15513158Y-12737198D01*
X15513158Y-12737198D02*
X15522682Y-12756246D01*
X15522682Y-12756246D02*
X15532206Y-12765769D01*
X15532206Y-12765769D02*
X15551253Y-12775293D01*
X15551253Y-12775293D02*
X15589348Y-12775293D01*
X15589348Y-12775293D02*
X15608396Y-12765769D01*
X15608396Y-12765769D02*
X15617920Y-12756246D01*
X15617920Y-12756246D02*
X15627444Y-12737198D01*
X15703634Y-12651484D02*
X15703634Y-12689579D01*
X15779825Y-12651484D02*
X15779825Y-12689579D01*
X16075063Y-12927674D02*
X16065539Y-12918150D01*
X16065539Y-12918150D02*
X16046491Y-12889579D01*
X16046491Y-12889579D02*
X16036968Y-12870531D01*
X16036968Y-12870531D02*
X16027444Y-12841960D01*
X16027444Y-12841960D02*
X16017920Y-12794341D01*
X16017920Y-12794341D02*
X16017920Y-12756246D01*
X16017920Y-12756246D02*
X16027444Y-12708627D01*
X16027444Y-12708627D02*
X16036968Y-12680055D01*
X16036968Y-12680055D02*
X16046491Y-12661008D01*
X16046491Y-12661008D02*
X16065539Y-12632436D01*
X16065539Y-12632436D02*
X16075063Y-12622912D01*
X16236968Y-12718150D02*
X16236968Y-12851484D01*
X16189348Y-12641960D02*
X16141729Y-12784817D01*
X16141729Y-12784817D02*
X16265539Y-12784817D01*
X16494110Y-12851484D02*
X16494110Y-12651484D01*
X16579825Y-12851484D02*
X16579825Y-12746722D01*
X16579825Y-12746722D02*
X16570301Y-12727674D01*
X16570301Y-12727674D02*
X16551253Y-12718150D01*
X16551253Y-12718150D02*
X16522682Y-12718150D01*
X16522682Y-12718150D02*
X16503634Y-12727674D01*
X16503634Y-12727674D02*
X16494110Y-12737198D01*
X16703634Y-12851484D02*
X16684587Y-12841960D01*
X16684587Y-12841960D02*
X16675063Y-12832436D01*
X16675063Y-12832436D02*
X16665539Y-12813388D01*
X16665539Y-12813388D02*
X16665539Y-12756246D01*
X16665539Y-12756246D02*
X16675063Y-12737198D01*
X16675063Y-12737198D02*
X16684587Y-12727674D01*
X16684587Y-12727674D02*
X16703634Y-12718150D01*
X16703634Y-12718150D02*
X16732206Y-12718150D01*
X16732206Y-12718150D02*
X16751253Y-12727674D01*
X16751253Y-12727674D02*
X16760777Y-12737198D01*
X16760777Y-12737198D02*
X16770301Y-12756246D01*
X16770301Y-12756246D02*
X16770301Y-12813388D01*
X16770301Y-12813388D02*
X16760777Y-12832436D01*
X16760777Y-12832436D02*
X16751253Y-12841960D01*
X16751253Y-12841960D02*
X16732206Y-12851484D01*
X16732206Y-12851484D02*
X16703634Y-12851484D01*
X16884587Y-12851484D02*
X16865539Y-12841960D01*
X16865539Y-12841960D02*
X16856015Y-12822912D01*
X16856015Y-12822912D02*
X16856015Y-12651484D01*
X17036968Y-12841960D02*
X17017920Y-12851484D01*
X17017920Y-12851484D02*
X16979825Y-12851484D01*
X16979825Y-12851484D02*
X16960777Y-12841960D01*
X16960777Y-12841960D02*
X16951253Y-12822912D01*
X16951253Y-12822912D02*
X16951253Y-12746722D01*
X16951253Y-12746722D02*
X16960777Y-12727674D01*
X16960777Y-12727674D02*
X16979825Y-12718150D01*
X16979825Y-12718150D02*
X17017920Y-12718150D01*
X17017920Y-12718150D02*
X17036968Y-12727674D01*
X17036968Y-12727674D02*
X17046492Y-12746722D01*
X17046492Y-12746722D02*
X17046492Y-12765769D01*
X17046492Y-12765769D02*
X16951253Y-12784817D01*
X17122682Y-12841960D02*
X17141730Y-12851484D01*
X17141730Y-12851484D02*
X17179825Y-12851484D01*
X17179825Y-12851484D02*
X17198873Y-12841960D01*
X17198873Y-12841960D02*
X17208396Y-12822912D01*
X17208396Y-12822912D02*
X17208396Y-12813388D01*
X17208396Y-12813388D02*
X17198873Y-12794341D01*
X17198873Y-12794341D02*
X17179825Y-12784817D01*
X17179825Y-12784817D02*
X17151253Y-12784817D01*
X17151253Y-12784817D02*
X17132206Y-12775293D01*
X17132206Y-12775293D02*
X17122682Y-12756246D01*
X17122682Y-12756246D02*
X17122682Y-12746722D01*
X17122682Y-12746722D02*
X17132206Y-12727674D01*
X17132206Y-12727674D02*
X17151253Y-12718150D01*
X17151253Y-12718150D02*
X17179825Y-12718150D01*
X17179825Y-12718150D02*
X17198873Y-12727674D01*
X17275063Y-12927674D02*
X17284587Y-12918150D01*
X17284587Y-12918150D02*
X17303634Y-12889579D01*
X17303634Y-12889579D02*
X17313158Y-12870531D01*
X17313158Y-12870531D02*
X17322682Y-12841960D01*
X17322682Y-12841960D02*
X17332206Y-12794341D01*
X17332206Y-12794341D02*
X17332206Y-12756246D01*
X17332206Y-12756246D02*
X17322682Y-12708627D01*
X17322682Y-12708627D02*
X17313158Y-12680055D01*
X17313158Y-12680055D02*
X17303634Y-12661008D01*
X17303634Y-12661008D02*
X17284587Y-12632436D01*
X17284587Y-12632436D02*
X17275063Y-12622912D01*
X12400000Y-13150000D02*
X12500000Y-13050000D01*
X12400000Y-12950000D01*
X12300000Y-13050000D01*
X12400000Y-13150000D01*
X12751253Y-12960531D02*
X12760777Y-12951008D01*
X12760777Y-12951008D02*
X12779824Y-12941484D01*
X12779824Y-12941484D02*
X12827443Y-12941484D01*
X12827443Y-12941484D02*
X12846491Y-12951008D01*
X12846491Y-12951008D02*
X12856015Y-12960531D01*
X12856015Y-12960531D02*
X12865539Y-12979579D01*
X12865539Y-12979579D02*
X12865539Y-12998627D01*
X12865539Y-12998627D02*
X12856015Y-13027198D01*
X12856015Y-13027198D02*
X12741729Y-13141484D01*
X12741729Y-13141484D02*
X12865539Y-13141484D01*
X12951253Y-13122436D02*
X12960777Y-13131960D01*
X12960777Y-13131960D02*
X12951253Y-13141484D01*
X12951253Y-13141484D02*
X12941729Y-13131960D01*
X12941729Y-13131960D02*
X12951253Y-13122436D01*
X12951253Y-13122436D02*
X12951253Y-13141484D01*
X13027443Y-12941484D02*
X13160777Y-12941484D01*
X13160777Y-12941484D02*
X13075062Y-13141484D01*
X13275062Y-12941484D02*
X13294110Y-12941484D01*
X13294110Y-12941484D02*
X13313158Y-12951008D01*
X13313158Y-12951008D02*
X13322682Y-12960531D01*
X13322682Y-12960531D02*
X13332205Y-12979579D01*
X13332205Y-12979579D02*
X13341729Y-13017674D01*
X13341729Y-13017674D02*
X13341729Y-13065293D01*
X13341729Y-13065293D02*
X13332205Y-13103388D01*
X13332205Y-13103388D02*
X13322682Y-13122436D01*
X13322682Y-13122436D02*
X13313158Y-13131960D01*
X13313158Y-13131960D02*
X13294110Y-13141484D01*
X13294110Y-13141484D02*
X13275062Y-13141484D01*
X13275062Y-13141484D02*
X13256015Y-13131960D01*
X13256015Y-13131960D02*
X13246491Y-13122436D01*
X13246491Y-13122436D02*
X13236967Y-13103388D01*
X13236967Y-13103388D02*
X13227443Y-13065293D01*
X13227443Y-13065293D02*
X13227443Y-13017674D01*
X13227443Y-13017674D02*
X13236967Y-12979579D01*
X13236967Y-12979579D02*
X13246491Y-12960531D01*
X13246491Y-12960531D02*
X13256015Y-12951008D01*
X13256015Y-12951008D02*
X13275062Y-12941484D01*
X13465539Y-12941484D02*
X13484586Y-12941484D01*
X13484586Y-12941484D02*
X13503634Y-12951008D01*
X13503634Y-12951008D02*
X13513158Y-12960531D01*
X13513158Y-12960531D02*
X13522682Y-12979579D01*
X13522682Y-12979579D02*
X13532205Y-13017674D01*
X13532205Y-13017674D02*
X13532205Y-13065293D01*
X13532205Y-13065293D02*
X13522682Y-13103388D01*
X13522682Y-13103388D02*
X13513158Y-13122436D01*
X13513158Y-13122436D02*
X13503634Y-13131960D01*
X13503634Y-13131960D02*
X13484586Y-13141484D01*
X13484586Y-13141484D02*
X13465539Y-13141484D01*
X13465539Y-13141484D02*
X13446491Y-13131960D01*
X13446491Y-13131960D02*
X13436967Y-13122436D01*
X13436967Y-13122436D02*
X13427443Y-13103388D01*
X13427443Y-13103388D02*
X13417920Y-13065293D01*
X13417920Y-13065293D02*
X13417920Y-13017674D01*
X13417920Y-13017674D02*
X13427443Y-12979579D01*
X13427443Y-12979579D02*
X13436967Y-12960531D01*
X13436967Y-12960531D02*
X13446491Y-12951008D01*
X13446491Y-12951008D02*
X13465539Y-12941484D01*
X13617920Y-13141484D02*
X13617920Y-13008150D01*
X13617920Y-13027198D02*
X13627443Y-13017674D01*
X13627443Y-13017674D02*
X13646491Y-13008150D01*
X13646491Y-13008150D02*
X13675063Y-13008150D01*
X13675063Y-13008150D02*
X13694110Y-13017674D01*
X13694110Y-13017674D02*
X13703634Y-13036722D01*
X13703634Y-13036722D02*
X13703634Y-13141484D01*
X13703634Y-13036722D02*
X13713158Y-13017674D01*
X13713158Y-13017674D02*
X13732205Y-13008150D01*
X13732205Y-13008150D02*
X13760777Y-13008150D01*
X13760777Y-13008150D02*
X13779824Y-13017674D01*
X13779824Y-13017674D02*
X13789348Y-13036722D01*
X13789348Y-13036722D02*
X13789348Y-13141484D01*
X13884586Y-13141484D02*
X13884586Y-13008150D01*
X13884586Y-13027198D02*
X13894110Y-13017674D01*
X13894110Y-13017674D02*
X13913158Y-13008150D01*
X13913158Y-13008150D02*
X13941729Y-13008150D01*
X13941729Y-13008150D02*
X13960777Y-13017674D01*
X13960777Y-13017674D02*
X13970301Y-13036722D01*
X13970301Y-13036722D02*
X13970301Y-13141484D01*
X13970301Y-13036722D02*
X13979824Y-13017674D01*
X13979824Y-13017674D02*
X13998872Y-13008150D01*
X13998872Y-13008150D02*
X14027443Y-13008150D01*
X14027443Y-13008150D02*
X14046491Y-13017674D01*
X14046491Y-13017674D02*
X14056015Y-13036722D01*
X14056015Y-13036722D02*
X14056015Y-13141484D01*
X14446491Y-12931960D02*
X14275063Y-13189103D01*
X14703634Y-12941484D02*
X14722682Y-12941484D01*
X14722682Y-12941484D02*
X14741729Y-12951008D01*
X14741729Y-12951008D02*
X14751253Y-12960531D01*
X14751253Y-12960531D02*
X14760777Y-12979579D01*
X14760777Y-12979579D02*
X14770301Y-13017674D01*
X14770301Y-13017674D02*
X14770301Y-13065293D01*
X14770301Y-13065293D02*
X14760777Y-13103388D01*
X14760777Y-13103388D02*
X14751253Y-13122436D01*
X14751253Y-13122436D02*
X14741729Y-13131960D01*
X14741729Y-13131960D02*
X14722682Y-13141484D01*
X14722682Y-13141484D02*
X14703634Y-13141484D01*
X14703634Y-13141484D02*
X14684586Y-13131960D01*
X14684586Y-13131960D02*
X14675063Y-13122436D01*
X14675063Y-13122436D02*
X14665539Y-13103388D01*
X14665539Y-13103388D02*
X14656015Y-13065293D01*
X14656015Y-13065293D02*
X14656015Y-13017674D01*
X14656015Y-13017674D02*
X14665539Y-12979579D01*
X14665539Y-12979579D02*
X14675063Y-12960531D01*
X14675063Y-12960531D02*
X14684586Y-12951008D01*
X14684586Y-12951008D02*
X14703634Y-12941484D01*
X14856015Y-13122436D02*
X14865539Y-13131960D01*
X14865539Y-13131960D02*
X14856015Y-13141484D01*
X14856015Y-13141484D02*
X14846491Y-13131960D01*
X14846491Y-13131960D02*
X14856015Y-13122436D01*
X14856015Y-13122436D02*
X14856015Y-13141484D01*
X15056015Y-13141484D02*
X14941729Y-13141484D01*
X14998872Y-13141484D02*
X14998872Y-12941484D01*
X14998872Y-12941484D02*
X14979825Y-12970055D01*
X14979825Y-12970055D02*
X14960777Y-12989103D01*
X14960777Y-12989103D02*
X14941729Y-12998627D01*
X15179825Y-12941484D02*
X15198872Y-12941484D01*
X15198872Y-12941484D02*
X15217920Y-12951008D01*
X15217920Y-12951008D02*
X15227444Y-12960531D01*
X15227444Y-12960531D02*
X15236967Y-12979579D01*
X15236967Y-12979579D02*
X15246491Y-13017674D01*
X15246491Y-13017674D02*
X15246491Y-13065293D01*
X15246491Y-13065293D02*
X15236967Y-13103388D01*
X15236967Y-13103388D02*
X15227444Y-13122436D01*
X15227444Y-13122436D02*
X15217920Y-13131960D01*
X15217920Y-13131960D02*
X15198872Y-13141484D01*
X15198872Y-13141484D02*
X15179825Y-13141484D01*
X15179825Y-13141484D02*
X15160777Y-13131960D01*
X15160777Y-13131960D02*
X15151253Y-13122436D01*
X15151253Y-13122436D02*
X15141729Y-13103388D01*
X15141729Y-13103388D02*
X15132206Y-13065293D01*
X15132206Y-13065293D02*
X15132206Y-13017674D01*
X15132206Y-13017674D02*
X15141729Y-12979579D01*
X15141729Y-12979579D02*
X15151253Y-12960531D01*
X15151253Y-12960531D02*
X15160777Y-12951008D01*
X15160777Y-12951008D02*
X15179825Y-12941484D01*
X15417920Y-12941484D02*
X15379825Y-12941484D01*
X15379825Y-12941484D02*
X15360777Y-12951008D01*
X15360777Y-12951008D02*
X15351253Y-12960531D01*
X15351253Y-12960531D02*
X15332206Y-12989103D01*
X15332206Y-12989103D02*
X15322682Y-13027198D01*
X15322682Y-13027198D02*
X15322682Y-13103388D01*
X15322682Y-13103388D02*
X15332206Y-13122436D01*
X15332206Y-13122436D02*
X15341729Y-13131960D01*
X15341729Y-13131960D02*
X15360777Y-13141484D01*
X15360777Y-13141484D02*
X15398872Y-13141484D01*
X15398872Y-13141484D02*
X15417920Y-13131960D01*
X15417920Y-13131960D02*
X15427444Y-13122436D01*
X15427444Y-13122436D02*
X15436967Y-13103388D01*
X15436967Y-13103388D02*
X15436967Y-13055769D01*
X15436967Y-13055769D02*
X15427444Y-13036722D01*
X15427444Y-13036722D02*
X15417920Y-13027198D01*
X15417920Y-13027198D02*
X15398872Y-13017674D01*
X15398872Y-13017674D02*
X15360777Y-13017674D01*
X15360777Y-13017674D02*
X15341729Y-13027198D01*
X15341729Y-13027198D02*
X15332206Y-13036722D01*
X15332206Y-13036722D02*
X15322682Y-13055769D01*
X15503634Y-12941484D02*
X15627444Y-12941484D01*
X15627444Y-12941484D02*
X15560777Y-13017674D01*
X15560777Y-13017674D02*
X15589348Y-13017674D01*
X15589348Y-13017674D02*
X15608396Y-13027198D01*
X15608396Y-13027198D02*
X15617920Y-13036722D01*
X15617920Y-13036722D02*
X15627444Y-13055769D01*
X15627444Y-13055769D02*
X15627444Y-13103388D01*
X15627444Y-13103388D02*
X15617920Y-13122436D01*
X15617920Y-13122436D02*
X15608396Y-13131960D01*
X15608396Y-13131960D02*
X15589348Y-13141484D01*
X15589348Y-13141484D02*
X15532206Y-13141484D01*
X15532206Y-13141484D02*
X15513158Y-13131960D01*
X15513158Y-13131960D02*
X15503634Y-13122436D01*
X15703634Y-12941484D02*
X15703634Y-12979579D01*
X15779825Y-12941484D02*
X15779825Y-12979579D01*
X16075063Y-13217674D02*
X16065539Y-13208150D01*
X16065539Y-13208150D02*
X16046491Y-13179579D01*
X16046491Y-13179579D02*
X16036968Y-13160531D01*
X16036968Y-13160531D02*
X16027444Y-13131960D01*
X16027444Y-13131960D02*
X16017920Y-13084341D01*
X16017920Y-13084341D02*
X16017920Y-13046246D01*
X16017920Y-13046246D02*
X16027444Y-12998627D01*
X16027444Y-12998627D02*
X16036968Y-12970055D01*
X16036968Y-12970055D02*
X16046491Y-12951008D01*
X16046491Y-12951008D02*
X16065539Y-12922436D01*
X16065539Y-12922436D02*
X16075063Y-12912912D01*
X16236968Y-13008150D02*
X16236968Y-13141484D01*
X16189348Y-12931960D02*
X16141729Y-13074817D01*
X16141729Y-13074817D02*
X16265539Y-13074817D01*
X16494110Y-13141484D02*
X16494110Y-12941484D01*
X16579825Y-13141484D02*
X16579825Y-13036722D01*
X16579825Y-13036722D02*
X16570301Y-13017674D01*
X16570301Y-13017674D02*
X16551253Y-13008150D01*
X16551253Y-13008150D02*
X16522682Y-13008150D01*
X16522682Y-13008150D02*
X16503634Y-13017674D01*
X16503634Y-13017674D02*
X16494110Y-13027198D01*
X16703634Y-13141484D02*
X16684587Y-13131960D01*
X16684587Y-13131960D02*
X16675063Y-13122436D01*
X16675063Y-13122436D02*
X16665539Y-13103388D01*
X16665539Y-13103388D02*
X16665539Y-13046246D01*
X16665539Y-13046246D02*
X16675063Y-13027198D01*
X16675063Y-13027198D02*
X16684587Y-13017674D01*
X16684587Y-13017674D02*
X16703634Y-13008150D01*
X16703634Y-13008150D02*
X16732206Y-13008150D01*
X16732206Y-13008150D02*
X16751253Y-13017674D01*
X16751253Y-13017674D02*
X16760777Y-13027198D01*
X16760777Y-13027198D02*
X16770301Y-13046246D01*
X16770301Y-13046246D02*
X16770301Y-13103388D01*
X16770301Y-13103388D02*
X16760777Y-13122436D01*
X16760777Y-13122436D02*
X16751253Y-13131960D01*
X16751253Y-13131960D02*
X16732206Y-13141484D01*
X16732206Y-13141484D02*
X16703634Y-13141484D01*
X16884587Y-13141484D02*
X16865539Y-13131960D01*
X16865539Y-13131960D02*
X16856015Y-13112912D01*
X16856015Y-13112912D02*
X16856015Y-12941484D01*
X17036968Y-13131960D02*
X17017920Y-13141484D01*
X17017920Y-13141484D02*
X16979825Y-13141484D01*
X16979825Y-13141484D02*
X16960777Y-13131960D01*
X16960777Y-13131960D02*
X16951253Y-13112912D01*
X16951253Y-13112912D02*
X16951253Y-13036722D01*
X16951253Y-13036722D02*
X16960777Y-13017674D01*
X16960777Y-13017674D02*
X16979825Y-13008150D01*
X16979825Y-13008150D02*
X17017920Y-13008150D01*
X17017920Y-13008150D02*
X17036968Y-13017674D01*
X17036968Y-13017674D02*
X17046492Y-13036722D01*
X17046492Y-13036722D02*
X17046492Y-13055769D01*
X17046492Y-13055769D02*
X16951253Y-13074817D01*
X17122682Y-13131960D02*
X17141730Y-13141484D01*
X17141730Y-13141484D02*
X17179825Y-13141484D01*
X17179825Y-13141484D02*
X17198873Y-13131960D01*
X17198873Y-13131960D02*
X17208396Y-13112912D01*
X17208396Y-13112912D02*
X17208396Y-13103388D01*
X17208396Y-13103388D02*
X17198873Y-13084341D01*
X17198873Y-13084341D02*
X17179825Y-13074817D01*
X17179825Y-13074817D02*
X17151253Y-13074817D01*
X17151253Y-13074817D02*
X17132206Y-13065293D01*
X17132206Y-13065293D02*
X17122682Y-13046246D01*
X17122682Y-13046246D02*
X17122682Y-13036722D01*
X17122682Y-13036722D02*
X17132206Y-13017674D01*
X17132206Y-13017674D02*
X17151253Y-13008150D01*
X17151253Y-13008150D02*
X17179825Y-13008150D01*
X17179825Y-13008150D02*
X17198873Y-13017674D01*
X17275063Y-13217674D02*
X17284587Y-13208150D01*
X17284587Y-13208150D02*
X17303634Y-13179579D01*
X17303634Y-13179579D02*
X17313158Y-13160531D01*
X17313158Y-13160531D02*
X17322682Y-13131960D01*
X17322682Y-13131960D02*
X17332206Y-13084341D01*
X17332206Y-13084341D02*
X17332206Y-13046246D01*
X17332206Y-13046246D02*
X17322682Y-12998627D01*
X17322682Y-12998627D02*
X17313158Y-12970055D01*
X17313158Y-12970055D02*
X17303634Y-12951008D01*
X17303634Y-12951008D02*
X17284587Y-12922436D01*
X17284587Y-12922436D02*
X17275063Y-12912912D01*
M02*
