  0
SECTION
  2
HEADER
  9
$ANGBASE
  50
0.0
  9
$ANGDIR
  70
1
  9
$MEASUREMENT
  70
1
  0
ENDSEC
  0
SECTION
  2
TABLES
  0
TABLE
  2
LTYPE
  70
4
  0
LTYPE
  5
40F
  2
CONTINUOUS
  70
0
  3
Solid line
  72
65
  73
0
  40
0.0
  0
LTYPE
  5
410
  2
DASHDOT
 70
0
  3
Dash Dot ____ _ ____ _
 72
65
 73
4
 40
2.0
 49
1.25
 49
-0.25
 49
0.25
 49
-0.25
  0
LTYPE
  5
411
  2
DASHED
 70
0
  3
Dashed __ __ __ __ __
 72
65
 73
2
 40
0.75
 49
0.5
 49
-0.25
  0
LTYPE
  5
43B
  2
DOTTED
 70
0
  3
Dotted .  .  .  .
 72
65
 73
2
 40
0.2
 49
0.0
 49
-0.2
  0
ENDTAB
  0
TABLE
  2
STYLE
  70
4
  0
STYLE
  2
KICAD
  70
0
  40
0
  41
1
  42
1
  50
0
  71
0
  3
isocp.shx
  0
STYLE
  2
KICADB
  70
0
  40
0
  41
1
  42
1
  50
0
  71
0
  3
isocp.shx
  0
STYLE
  2
KICADI
  70
0
  40
0
  41
1
  42
1
  50
15
  71
0
  3
isocp.shx
  0
STYLE
  2
KICADBI
  70
0
  40
0
  41
1
  42
1
  50
15
  71
0
  3
isocp.shx
  0
ENDTAB
  0
TABLE
  2
LAYER
  70
1
  0
LAYER
  2
BLACK
  70
0
  62
7
  6
CONTINUOUS
  0
ENDTAB
  0
ENDSEC
  0
SECTION
  2
ENTITIES
0
LINE
8
BLACK
6
CONTINUOUS
10
112.95
20
-107.55
11
112.95
21
-108.15
0
LINE
8
BLACK
6
CONTINUOUS
10
86.35
20
-102.25
11
91.25
21
-102.25
0
LINE
8
BLACK
6
CONTINUOUS
10
106.05
20
-114.45
11
104.75
21
-115.75
0
ARC
8
BLACK
10
92.15
20
-94.05
40
2.6
50
45
51
90
0
LINE
8
BLACK
6
CONTINUOUS
10
104.75
20
-88.25
11
106.92
21
-86.08
0
LINE
8
BLACK
6
CONTINUOUS
10
92.15
20
-107.55
11
91.25
21
-106.65
0
LINE
8
BLACK
6
CONTINUOUS
10
106.92
20
-86.08
11
106.92
21
-82.08
0
LINE
8
BLACK
6
CONTINUOUS
10
114.788
20
-113.688
11
111.683
21
-116.786
0
LINE
8
BLACK
6
CONTINUOUS
10
108.85
20
-94.45
11
106.05
21
-94.45
0
ARC
8
BLACK
10
95.1359
20
-114.802
40
2.65
50
-90.0002
51
-45.0005
0
LINE
8
BLACK
6
CONTINUOUS
10
120.92
20
-100.08
11
118.75
21
-102.25
0
LINE
8
BLACK
6
CONTINUOUS
10
92.55
20
-98.15
11
92.55
21
-100.95
0
LINE
8
BLACK
6
CONTINUOUS
10
86.35
20
-102.25
11
84.18
21
-100.08
0
LINE
8
BLACK
6
CONTINUOUS
10
106.92
20
-126.82
11
98.18
21
-126.82
0
LINE
8
BLACK
6
CONTINUOUS
10
92.55
20
-100.95
11
91.25
21
-102.25
0
LINE
8
BLACK
6
CONTINUOUS
10
100.35
20
-120.65
11
98.18
21
-122.82
0
LINE
8
BLACK
6
CONTINUOUS
10
114.788
20
-110.012
11
112.95
21
-108.15
0
LINE
8
BLACK
6
CONTINUOUS
10
106.05
20
-94.45
11
104.75
21
-93.15
0
LINE
8
BLACK
6
CONTINUOUS
10
108.006
20
-116.786
11
107.95
21
-116.75
0
LINE
8
BLACK
6
CONTINUOUS
10
84.18
20
-108.82
11
80.18
21
-108.82
0
ARC
8
BLACK
10
92.15
20
-94.05
40
2.6
50
-180
51
-135
0
LINE
8
BLACK
6
CONTINUOUS
10
99.05
20
-114.45
11
97.55
21
-114.45
0
LINE
8
BLACK
6
CONTINUOUS
10
120.92
20
-100.08
11
124.92
21
-100.08
0
LINE
8
BLACK
6
CONTINUOUS
10
93.9885
20
-92.2115
11
96.25
21
-94.45
0
LINE
8
BLACK
6
CONTINUOUS
10
90.3115
20
-95.8885
11
92.55
21
-98.15
0
LINE
8
BLACK
6
CONTINUOUS
10
98.18
20
-122.82
11
98.18
21
-126.82
0
LINE
8
BLACK
6
CONTINUOUS
10
106.92
20
-122.82
11
106.92
21
-126.82
0
LINE
8
BLACK
6
CONTINUOUS
10
107.95
20
-114.9
11
107.95
21
-116.75
0
LINE
8
BLACK
6
CONTINUOUS
10
90.3262
20
-113.724
11
93.2974
21
-116.69
0
LINE
8
BLACK
6
CONTINUOUS
10
97.1
20
-116.6
11
97.0097
21
-116.676
0
LINE
8
BLACK
6
CONTINUOUS
10
84.18
20
-100.08
11
80.18
21
-100.08
0
ARC
8
BLACK
10
92.2
20
-111.85
40
2.65
50
-180
51
-135
0
LINE
8
BLACK
6
CONTINUOUS
10
118.75
20
-106.65
11
113.85
21
-106.65
0
LINE
8
BLACK
6
CONTINUOUS
10
113.85
20
-102.25
11
118.75
21
-102.25
0
ARC
8
BLACK
10
92.15
20
-94.05
40
2.6
50
90
51
180
0
LINE
8
BLACK
6
CONTINUOUS
10
106.05
20
-114.45
11
107.5
21
-114.45
0
LINE
8
BLACK
6
CONTINUOUS
10
99.05
20
-94.45
11
100.35
21
-93.15
0
LINE
8
BLACK
6
CONTINUOUS
10
104.75
20
-115.75
11
104.75
21
-120.65
0
LINE
8
BLACK
6
CONTINUOUS
10
114.788
20
-95.8885
11
112.55
21
-98.1
0
LINE
8
BLACK
6
CONTINUOUS
10
124.92
20
-100.08
11
124.92
21
-108.82
0
ARC
8
BLACK
10
92.15
20
-111.85
40
2.6
50
135
51
180
0
LINE
8
BLACK
6
CONTINUOUS
10
112.55
20
-100.95
11
113.85
21
-102.25
0
ARC
8
BLACK
10
112.95
20
-94.05
40
2.6
50
-45
51
-0
0
ARC
8
BLACK
10
112.95
20
-111.85
40
2.6
50
-45
51
-0
0
LINE
8
BLACK
6
CONTINUOUS
10
98.18
20
-86.08
11
100.35
21
-88.25
0
ARC
8
BLACK
10
95.1359
20
-114.852
40
2.60002
50
-135
51
-90.0002
0
LINE
8
BLACK
6
CONTINUOUS
10
97.1
20
-114.9
11
97.1
21
-116.6
0
LINE
8
BLACK
6
CONTINUOUS
10
112.55
20
-98.1
11
112.55
21
-100.95
0
ARC
8
BLACK
10
112.95
20
-94.05
40
2.6
50
-0
51
90
0
LINE
8
BLACK
6
CONTINUOUS
10
107.5
20
-114.45
11
107.95
21
-114.9
0
ARC
8
BLACK
10
109.845
20
-114.948
40
2.60001
50
-135
51
-90.0005
0
LINE
8
BLACK
6
CONTINUOUS
10
100.35
20
-93.15
11
100.35
21
-88.25
0
ARC
8
BLACK
10
109.845
20
-114.948
40
2.59999
50
-90.0005
51
-45.0006
0
LINE
8
BLACK
6
CONTINUOUS
10
98.18
20
-86.08
11
98.18
21
-82.08
0
LINE
8
BLACK
6
CONTINUOUS
10
98.18
20
-82.08
11
106.92
21
-82.08
0
LINE
8
BLACK
6
CONTINUOUS
10
97.55
20
-114.45
11
97.1
21
-114.9
0
LINE
8
BLACK
6
CONTINUOUS
10
99.05
20
-114.45
11
100.35
21
-115.75
0
LINE
8
BLACK
6
CONTINUOUS
10
84.18
20
-108.82
11
86.35
21
-106.65
0
LINE
8
BLACK
6
CONTINUOUS
10
90.3115
20
-110.012
11
92.15
21
-108.15
0
ARC
8
BLACK
10
112.95
20
-94.05
40
2.6
50
90
51
135
0
ARC
8
BLACK
10
112.95
20
-111.85
40
2.6
50
-0
51
45
0
LINE
8
BLACK
6
CONTINUOUS
10
118.75
20
-106.65
11
120.92
21
-108.82
0
LINE
8
BLACK
6
CONTINUOUS
10
104.75
20
-88.25
11
104.75
21
-93.15
0
LINE
8
BLACK
6
CONTINUOUS
10
91.25
20
-106.65
11
86.35
21
-106.65
0
LINE
8
BLACK
6
CONTINUOUS
10
80.18
20
-108.82
11
80.18
21
-100.08
0
LINE
8
BLACK
6
CONTINUOUS
10
92.15
20
-107.55
11
92.15
21
-108.15
0
LINE
8
BLACK
6
CONTINUOUS
10
120.92
20
-108.82
11
124.92
21
-108.82
0
LINE
8
BLACK
6
CONTINUOUS
10
111.112
20
-92.2115
11
108.85
21
-94.45
0
LINE
8
BLACK
6
CONTINUOUS
10
96.25
20
-94.45
11
99.05
21
-94.45
0
LINE
8
BLACK
6
CONTINUOUS
10
100.35
20
-120.65
11
100.35
21
-115.75
0
LINE
8
BLACK
6
CONTINUOUS
10
106.92
20
-122.82
11
104.75
21
-120.65
0
LINE
8
BLACK
6
CONTINUOUS
10
112.95
20
-107.55
11
113.85
21
-106.65
0
LINE
8
BLACK
6
CONTINUOUS
10
107.25
20
-100.95
11
107.65
21
-101.35
0
LINE
8
BLACK
6
CONTINUOUS
10
107.65
20
-100.95
11
107.25
21
-101.35
0
LINE
8
BLACK
6
CONTINUOUS
10
108.6
20
-100.95
11
109
21
-101.35
0
LINE
8
BLACK
6
CONTINUOUS
10
109
20
-100.95
11
108.6
21
-101.35
0
CIRCLE
8
BLACK
10
101.702
20
-101.163
40
0.3
0
CIRCLE
8
BLACK
10
107.097
20
-110.943
40
0.3
0
LINE
8
BLACK
6
CONTINUOUS
10
92.15
20
-92.95
11
92.15
21
-95.15
0
LINE
8
BLACK
6
CONTINUOUS
10
91.05
20
-94.05
11
93.25
21
-94.05
0
LINE
8
BLACK
6
CONTINUOUS
10
92.15
20
-110.75
11
92.15
21
-112.95
0
LINE
8
BLACK
6
CONTINUOUS
10
91.05
20
-111.85
11
93.25
21
-111.85
0
LINE
8
BLACK
6
CONTINUOUS
10
112.95
20
-92.95
11
112.95
21
-95.15
0
LINE
8
BLACK
6
CONTINUOUS
10
111.85
20
-94.05
11
114.05
21
-94.05
0
LINE
8
BLACK
6
CONTINUOUS
10
112.95
20
-110.75
11
112.95
21
-112.95
0
LINE
8
BLACK
6
CONTINUOUS
10
111.85
20
-111.85
11
114.05
21
-111.85
0
LINE
8
BLACK
6
CONTINUOUS
10
82.7378
20
-129.985
11
82.7378
21
-127.985
0
LINE
8
BLACK
6
CONTINUOUS
10
82.7378
20
-127.985
11
83.214
21
-127.985
0
LINE
8
BLACK
6
CONTINUOUS
10
83.214
20
-127.985
11
83.4997
21
-128.08
0
LINE
8
BLACK
6
CONTINUOUS
10
83.4997
20
-128.08
11
83.6901
21
-128.271
0
LINE
8
BLACK
6
CONTINUOUS
10
83.6901
20
-128.271
11
83.7854
21
-128.461
0
LINE
8
BLACK
6
CONTINUOUS
10
83.7854
20
-128.461
11
83.8806
21
-128.842
0
LINE
8
BLACK
6
CONTINUOUS
10
83.8806
20
-128.842
11
83.8806
21
-129.128
0
LINE
8
BLACK
6
CONTINUOUS
10
83.8806
20
-129.128
11
83.7854
21
-129.509
0
LINE
8
BLACK
6
CONTINUOUS
10
83.7854
20
-129.509
11
83.6901
21
-129.699
0
LINE
8
BLACK
6
CONTINUOUS
10
83.6901
20
-129.699
11
83.4997
21
-129.89
0
LINE
8
BLACK
6
CONTINUOUS
10
83.4997
20
-129.89
11
83.214
21
-129.985
0
LINE
8
BLACK
6
CONTINUOUS
10
83.214
20
-129.985
11
82.7378
21
-129.985
0
LINE
8
BLACK
6
CONTINUOUS
10
84.7378
20
-129.985
11
84.7378
21
-128.652
0
LINE
8
BLACK
6
CONTINUOUS
10
84.7378
20
-129.032
11
84.833
21
-128.842
0
LINE
8
BLACK
6
CONTINUOUS
10
84.833
20
-128.842
11
84.9282
21
-128.747
0
LINE
8
BLACK
6
CONTINUOUS
10
84.9282
20
-128.747
11
85.1187
21
-128.652
0
LINE
8
BLACK
6
CONTINUOUS
10
85.1187
20
-128.652
11
85.3092
21
-128.652
0
LINE
8
BLACK
6
CONTINUOUS
10
85.9759
20
-129.985
11
85.9759
21
-128.652
0
LINE
8
BLACK
6
CONTINUOUS
10
85.9759
20
-127.985
11
85.8806
21
-128.08
0
LINE
8
BLACK
6
CONTINUOUS
10
85.8806
20
-128.08
11
85.9759
21
-128.175
0
LINE
8
BLACK
6
CONTINUOUS
10
85.9759
20
-128.175
11
86.0711
21
-128.08
0
LINE
8
BLACK
6
CONTINUOUS
10
86.0711
20
-128.08
11
85.9759
21
-127.985
0
LINE
8
BLACK
6
CONTINUOUS
10
85.9759
20
-127.985
11
85.9759
21
-128.175
0
LINE
8
BLACK
6
CONTINUOUS
10
87.214
20
-129.985
11
87.0235
21
-129.89
0
LINE
8
BLACK
6
CONTINUOUS
10
87.0235
20
-129.89
11
86.9282
21
-129.699
0
LINE
8
BLACK
6
CONTINUOUS
10
86.9282
20
-129.699
11
86.9282
21
-127.985
0
LINE
8
BLACK
6
CONTINUOUS
10
88.2616
20
-129.985
11
88.0711
21
-129.89
0
LINE
8
BLACK
6
CONTINUOUS
10
88.0711
20
-129.89
11
87.9759
21
-129.699
0
LINE
8
BLACK
6
CONTINUOUS
10
87.9759
20
-129.699
11
87.9759
21
-127.985
0
LINE
8
BLACK
6
CONTINUOUS
10
90.5473
20
-129.985
11
90.5473
21
-127.985
0
LINE
8
BLACK
6
CONTINUOUS
10
90.5473
20
-127.985
11
91.214
21
-129.413
0
LINE
8
BLACK
6
CONTINUOUS
10
91.214
20
-129.413
11
91.8806
21
-127.985
0
LINE
8
BLACK
6
CONTINUOUS
10
91.8806
20
-127.985
11
91.8806
21
-129.985
0
LINE
8
BLACK
6
CONTINUOUS
10
93.6901
20
-129.985
11
93.6901
21
-128.937
0
LINE
8
BLACK
6
CONTINUOUS
10
93.6901
20
-128.937
11
93.5949
21
-128.747
0
LINE
8
BLACK
6
CONTINUOUS
10
93.5949
20
-128.747
11
93.4044
21
-128.652
0
LINE
8
BLACK
6
CONTINUOUS
10
93.4044
20
-128.652
11
93.0235
21
-128.652
0
LINE
8
BLACK
6
CONTINUOUS
10
93.0235
20
-128.652
11
92.833
21
-128.747
0
LINE
8
BLACK
6
CONTINUOUS
10
93.6901
20
-129.89
11
93.4997
21
-129.985
0
LINE
8
BLACK
6
CONTINUOUS
10
93.4997
20
-129.985
11
93.0235
21
-129.985
0
LINE
8
BLACK
6
CONTINUOUS
10
93.0235
20
-129.985
11
92.833
21
-129.89
0
LINE
8
BLACK
6
CONTINUOUS
10
92.833
20
-129.89
11
92.7378
21
-129.699
0
LINE
8
BLACK
6
CONTINUOUS
10
92.7378
20
-129.699
11
92.7378
21
-129.509
0
LINE
8
BLACK
6
CONTINUOUS
10
92.7378
20
-129.509
11
92.833
21
-129.318
0
LINE
8
BLACK
6
CONTINUOUS
10
92.833
20
-129.318
11
93.0235
21
-129.223
0
LINE
8
BLACK
6
CONTINUOUS
10
93.0235
20
-129.223
11
93.4997
21
-129.223
0
LINE
8
BLACK
6
CONTINUOUS
10
93.4997
20
-129.223
11
93.6901
21
-129.128
0
LINE
8
BLACK
6
CONTINUOUS
10
94.6425
20
-128.652
11
94.6425
21
-130.652
0
LINE
8
BLACK
6
CONTINUOUS
10
94.6425
20
-128.747
11
94.833
21
-128.652
0
LINE
8
BLACK
6
CONTINUOUS
10
94.833
20
-128.652
11
95.214
21
-128.652
0
LINE
8
BLACK
6
CONTINUOUS
10
95.214
20
-128.652
11
95.4044
21
-128.747
0
LINE
8
BLACK
6
CONTINUOUS
10
95.4044
20
-128.747
11
95.4997
21
-128.842
0
LINE
8
BLACK
6
CONTINUOUS
10
95.4997
20
-128.842
11
95.5949
21
-129.032
0
LINE
8
BLACK
6
CONTINUOUS
10
95.5949
20
-129.032
11
95.5949
21
-129.604
0
LINE
8
BLACK
6
CONTINUOUS
10
95.5949
20
-129.604
11
95.4997
21
-129.794
0
LINE
8
BLACK
6
CONTINUOUS
10
95.4997
20
-129.794
11
95.4044
21
-129.89
0
LINE
8
BLACK
6
CONTINUOUS
10
95.4044
20
-129.89
11
95.214
21
-129.985
0
LINE
8
BLACK
6
CONTINUOUS
10
95.214
20
-129.985
11
94.833
21
-129.985
0
LINE
8
BLACK
6
CONTINUOUS
10
94.833
20
-129.985
11
94.6425
21
-129.89
0
LINE
8
BLACK
6
CONTINUOUS
10
96.4521
20
-129.794
11
96.5473
21
-129.89
0
LINE
8
BLACK
6
CONTINUOUS
10
96.5473
20
-129.89
11
96.4521
21
-129.985
0
LINE
8
BLACK
6
CONTINUOUS
10
96.4521
20
-129.985
11
96.3568
21
-129.89
0
LINE
8
BLACK
6
CONTINUOUS
10
96.3568
20
-129.89
11
96.4521
21
-129.794
0
LINE
8
BLACK
6
CONTINUOUS
10
96.4521
20
-129.794
11
96.4521
21
-129.985
0
LINE
8
BLACK
6
CONTINUOUS
10
96.4521
20
-128.747
11
96.5473
21
-128.842
0
LINE
8
BLACK
6
CONTINUOUS
10
96.5473
20
-128.842
11
96.4521
21
-128.937
0
LINE
8
BLACK
6
CONTINUOUS
10
96.4521
20
-128.937
11
96.3568
21
-128.842
0
LINE
8
BLACK
6
CONTINUOUS
10
96.3568
20
-128.842
11
96.4521
21
-128.747
0
LINE
8
BLACK
6
CONTINUOUS
10
96.4521
20
-128.747
11
96.4521
21
-128.937
0
LINE
8
BLACK
6
CONTINUOUS
10
79.73
20
-133.07
11
80.13
21
-133.47
0
LINE
8
BLACK
6
CONTINUOUS
10
80.13
20
-133.07
11
79.73
21
-133.47
0
LINE
8
BLACK
6
CONTINUOUS
10
83.1187
20
-132.185
11
83.3092
21
-132.185
0
LINE
8
BLACK
6
CONTINUOUS
10
83.3092
20
-132.185
11
83.4997
21
-132.28
0
LINE
8
BLACK
6
CONTINUOUS
10
83.4997
20
-132.28
11
83.5949
21
-132.375
0
LINE
8
BLACK
6
CONTINUOUS
10
83.5949
20
-132.375
11
83.6901
21
-132.566
0
LINE
8
BLACK
6
CONTINUOUS
10
83.6901
20
-132.566
11
83.7854
21
-132.947
0
LINE
8
BLACK
6
CONTINUOUS
10
83.7854
20
-132.947
11
83.7854
21
-133.423
0
LINE
8
BLACK
6
CONTINUOUS
10
83.7854
20
-133.423
11
83.6901
21
-133.804
0
LINE
8
BLACK
6
CONTINUOUS
10
83.6901
20
-133.804
11
83.5949
21
-133.994
0
LINE
8
BLACK
6
CONTINUOUS
10
83.5949
20
-133.994
11
83.4997
21
-134.09
0
LINE
8
BLACK
6
CONTINUOUS
10
83.4997
20
-134.09
11
83.3092
21
-134.185
0
LINE
8
BLACK
6
CONTINUOUS
10
83.3092
20
-134.185
11
83.1187
21
-134.185
0
LINE
8
BLACK
6
CONTINUOUS
10
83.1187
20
-134.185
11
82.9282
21
-134.09
0
LINE
8
BLACK
6
CONTINUOUS
10
82.9282
20
-134.09
11
82.833
21
-133.994
0
LINE
8
BLACK
6
CONTINUOUS
10
82.833
20
-133.994
11
82.7378
21
-133.804
0
LINE
8
BLACK
6
CONTINUOUS
10
82.7378
20
-133.804
11
82.6425
21
-133.423
0
LINE
8
BLACK
6
CONTINUOUS
10
82.6425
20
-133.423
11
82.6425
21
-132.947
0
LINE
8
BLACK
6
CONTINUOUS
10
82.6425
20
-132.947
11
82.7378
21
-132.566
0
LINE
8
BLACK
6
CONTINUOUS
10
82.7378
20
-132.566
11
82.833
21
-132.375
0
LINE
8
BLACK
6
CONTINUOUS
10
82.833
20
-132.375
11
82.9282
21
-132.28
0
LINE
8
BLACK
6
CONTINUOUS
10
82.9282
20
-132.28
11
83.1187
21
-132.185
0
LINE
8
BLACK
6
CONTINUOUS
10
84.6425
20
-133.994
11
84.7378
21
-134.09
0
LINE
8
BLACK
6
CONTINUOUS
10
84.7378
20
-134.09
11
84.6425
21
-134.185
0
LINE
8
BLACK
6
CONTINUOUS
10
84.6425
20
-134.185
11
84.5473
21
-134.09
0
LINE
8
BLACK
6
CONTINUOUS
10
84.5473
20
-134.09
11
84.6425
21
-133.994
0
LINE
8
BLACK
6
CONTINUOUS
10
84.6425
20
-133.994
11
84.6425
21
-134.185
0
LINE
8
BLACK
6
CONTINUOUS
10
86.4521
20
-132.852
11
86.4521
21
-134.185
0
LINE
8
BLACK
6
CONTINUOUS
10
85.9759
20
-132.09
11
85.4997
21
-133.518
0
LINE
8
BLACK
6
CONTINUOUS
10
85.4997
20
-133.518
11
86.7378
21
-133.518
0
LINE
8
BLACK
6
CONTINUOUS
10
87.8806
20
-132.185
11
88.0711
21
-132.185
0
LINE
8
BLACK
6
CONTINUOUS
10
88.0711
20
-132.185
11
88.2616
21
-132.28
0
LINE
8
BLACK
6
CONTINUOUS
10
88.2616
20
-132.28
11
88.3568
21
-132.375
0
LINE
8
BLACK
6
CONTINUOUS
10
88.3568
20
-132.375
11
88.4521
21
-132.566
0
LINE
8
BLACK
6
CONTINUOUS
10
88.4521
20
-132.566
11
88.5473
21
-132.947
0
LINE
8
BLACK
6
CONTINUOUS
10
88.5473
20
-132.947
11
88.5473
21
-133.423
0
LINE
8
BLACK
6
CONTINUOUS
10
88.5473
20
-133.423
11
88.4521
21
-133.804
0
LINE
8
BLACK
6
CONTINUOUS
10
88.4521
20
-133.804
11
88.3568
21
-133.994
0
LINE
8
BLACK
6
CONTINUOUS
10
88.3568
20
-133.994
11
88.2616
21
-134.09
0
LINE
8
BLACK
6
CONTINUOUS
10
88.2616
20
-134.09
11
88.0711
21
-134.185
0
LINE
8
BLACK
6
CONTINUOUS
10
88.0711
20
-134.185
11
87.8806
21
-134.185
0
LINE
8
BLACK
6
CONTINUOUS
10
87.8806
20
-134.185
11
87.6901
21
-134.09
0
LINE
8
BLACK
6
CONTINUOUS
10
87.6901
20
-134.09
11
87.5949
21
-133.994
0
LINE
8
BLACK
6
CONTINUOUS
10
87.5949
20
-133.994
11
87.4997
21
-133.804
0
LINE
8
BLACK
6
CONTINUOUS
10
87.4997
20
-133.804
11
87.4044
21
-133.423
0
LINE
8
BLACK
6
CONTINUOUS
10
87.4044
20
-133.423
11
87.4044
21
-132.947
0
LINE
8
BLACK
6
CONTINUOUS
10
87.4044
20
-132.947
11
87.4997
21
-132.566
0
LINE
8
BLACK
6
CONTINUOUS
10
87.4997
20
-132.566
11
87.5949
21
-132.375
0
LINE
8
BLACK
6
CONTINUOUS
10
87.5949
20
-132.375
11
87.6901
21
-132.28
0
LINE
8
BLACK
6
CONTINUOUS
10
87.6901
20
-132.28
11
87.8806
21
-132.185
0
LINE
8
BLACK
6
CONTINUOUS
10
89.7854
20
-132.185
11
89.9759
21
-132.185
0
LINE
8
BLACK
6
CONTINUOUS
10
89.9759
20
-132.185
11
90.1663
21
-132.28
0
LINE
8
BLACK
6
CONTINUOUS
10
90.1663
20
-132.28
11
90.2616
21
-132.375
0
LINE
8
BLACK
6
CONTINUOUS
10
90.2616
20
-132.375
11
90.3568
21
-132.566
0
LINE
8
BLACK
6
CONTINUOUS
10
90.3568
20
-132.566
11
90.4521
21
-132.947
0
LINE
8
BLACK
6
CONTINUOUS
10
90.4521
20
-132.947
11
90.4521
21
-133.423
0
LINE
8
BLACK
6
CONTINUOUS
10
90.4521
20
-133.423
11
90.3568
21
-133.804
0
LINE
8
BLACK
6
CONTINUOUS
10
90.3568
20
-133.804
11
90.2616
21
-133.994
0
LINE
8
BLACK
6
CONTINUOUS
10
90.2616
20
-133.994
11
90.1663
21
-134.09
0
LINE
8
BLACK
6
CONTINUOUS
10
90.1663
20
-134.09
11
89.9759
21
-134.185
0
LINE
8
BLACK
6
CONTINUOUS
10
89.9759
20
-134.185
11
89.7854
21
-134.185
0
LINE
8
BLACK
6
CONTINUOUS
10
89.7854
20
-134.185
11
89.5949
21
-134.09
0
LINE
8
BLACK
6
CONTINUOUS
10
89.5949
20
-134.09
11
89.4997
21
-133.994
0
LINE
8
BLACK
6
CONTINUOUS
10
89.4997
20
-133.994
11
89.4044
21
-133.804
0
LINE
8
BLACK
6
CONTINUOUS
10
89.4044
20
-133.804
11
89.3092
21
-133.423
0
LINE
8
BLACK
6
CONTINUOUS
10
89.3092
20
-133.423
11
89.3092
21
-132.947
0
LINE
8
BLACK
6
CONTINUOUS
10
89.3092
20
-132.947
11
89.4044
21
-132.566
0
LINE
8
BLACK
6
CONTINUOUS
10
89.4044
20
-132.566
11
89.4997
21
-132.375
0
LINE
8
BLACK
6
CONTINUOUS
10
89.4997
20
-132.375
11
89.5949
21
-132.28
0
LINE
8
BLACK
6
CONTINUOUS
10
89.5949
20
-132.28
11
89.7854
21
-132.185
0
LINE
8
BLACK
6
CONTINUOUS
10
91.3092
20
-134.185
11
91.3092
21
-132.852
0
LINE
8
BLACK
6
CONTINUOUS
10
91.3092
20
-133.042
11
91.4044
21
-132.947
0
LINE
8
BLACK
6
CONTINUOUS
10
91.4044
20
-132.947
11
91.5949
21
-132.852
0
LINE
8
BLACK
6
CONTINUOUS
10
91.5949
20
-132.852
11
91.8806
21
-132.852
0
LINE
8
BLACK
6
CONTINUOUS
10
91.8806
20
-132.852
11
92.0711
21
-132.947
0
LINE
8
BLACK
6
CONTINUOUS
10
92.0711
20
-132.947
11
92.1663
21
-133.137
0
LINE
8
BLACK
6
CONTINUOUS
10
92.1663
20
-133.137
11
92.1663
21
-134.185
0
LINE
8
BLACK
6
CONTINUOUS
10
92.1663
20
-133.137
11
92.2616
21
-132.947
0
LINE
8
BLACK
6
CONTINUOUS
10
92.2616
20
-132.947
11
92.4521
21
-132.852
0
LINE
8
BLACK
6
CONTINUOUS
10
92.4521
20
-132.852
11
92.7378
21
-132.852
0
LINE
8
BLACK
6
CONTINUOUS
10
92.7378
20
-132.852
11
92.9282
21
-132.947
0
LINE
8
BLACK
6
CONTINUOUS
10
92.9282
20
-132.947
11
93.0235
21
-133.137
0
LINE
8
BLACK
6
CONTINUOUS
10
93.0235
20
-133.137
11
93.0235
21
-134.185
0
LINE
8
BLACK
6
CONTINUOUS
10
93.9759
20
-134.185
11
93.9759
21
-132.852
0
LINE
8
BLACK
6
CONTINUOUS
10
93.9759
20
-133.042
11
94.0711
21
-132.947
0
LINE
8
BLACK
6
CONTINUOUS
10
94.0711
20
-132.947
11
94.2616
21
-132.852
0
LINE
8
BLACK
6
CONTINUOUS
10
94.2616
20
-132.852
11
94.5473
21
-132.852
0
LINE
8
BLACK
6
CONTINUOUS
10
94.5473
20
-132.852
11
94.7378
21
-132.947
0
LINE
8
BLACK
6
CONTINUOUS
10
94.7378
20
-132.947
11
94.833
21
-133.137
0
LINE
8
BLACK
6
CONTINUOUS
10
94.833
20
-133.137
11
94.833
21
-134.185
0
LINE
8
BLACK
6
CONTINUOUS
10
94.833
20
-133.137
11
94.9282
21
-132.947
0
LINE
8
BLACK
6
CONTINUOUS
10
94.9282
20
-132.947
11
95.1187
21
-132.852
0
LINE
8
BLACK
6
CONTINUOUS
10
95.1187
20
-132.852
11
95.4044
21
-132.852
0
LINE
8
BLACK
6
CONTINUOUS
10
95.4044
20
-132.852
11
95.5949
21
-132.947
0
LINE
8
BLACK
6
CONTINUOUS
10
95.5949
20
-132.947
11
95.6902
21
-133.137
0
LINE
8
BLACK
6
CONTINUOUS
10
95.6902
20
-133.137
11
95.6902
21
-134.185
0
LINE
8
BLACK
6
CONTINUOUS
10
99.5949
20
-132.09
11
97.8806
21
-134.661
0
LINE
8
BLACK
6
CONTINUOUS
10
102.166
20
-132.185
11
102.357
21
-132.185
0
LINE
8
BLACK
6
CONTINUOUS
10
102.357
20
-132.185
11
102.547
21
-132.28
0
LINE
8
BLACK
6
CONTINUOUS
10
102.547
20
-132.28
11
102.643
21
-132.375
0
LINE
8
BLACK
6
CONTINUOUS
10
102.643
20
-132.375
11
102.738
21
-132.566
0
LINE
8
BLACK
6
CONTINUOUS
10
102.738
20
-132.566
11
102.833
21
-132.947
0
LINE
8
BLACK
6
CONTINUOUS
10
102.833
20
-132.947
11
102.833
21
-133.423
0
LINE
8
BLACK
6
CONTINUOUS
10
102.833
20
-133.423
11
102.738
21
-133.804
0
LINE
8
BLACK
6
CONTINUOUS
10
102.738
20
-133.804
11
102.643
21
-133.994
0
LINE
8
BLACK
6
CONTINUOUS
10
102.643
20
-133.994
11
102.547
21
-134.09
0
LINE
8
BLACK
6
CONTINUOUS
10
102.547
20
-134.09
11
102.357
21
-134.185
0
LINE
8
BLACK
6
CONTINUOUS
10
102.357
20
-134.185
11
102.166
21
-134.185
0
LINE
8
BLACK
6
CONTINUOUS
10
102.166
20
-134.185
11
101.976
21
-134.09
0
LINE
8
BLACK
6
CONTINUOUS
10
101.976
20
-134.09
11
101.881
21
-133.994
0
LINE
8
BLACK
6
CONTINUOUS
10
101.881
20
-133.994
11
101.785
21
-133.804
0
LINE
8
BLACK
6
CONTINUOUS
10
101.785
20
-133.804
11
101.69
21
-133.423
0
LINE
8
BLACK
6
CONTINUOUS
10
101.69
20
-133.423
11
101.69
21
-132.947
0
LINE
8
BLACK
6
CONTINUOUS
10
101.69
20
-132.947
11
101.785
21
-132.566
0
LINE
8
BLACK
6
CONTINUOUS
10
101.785
20
-132.566
11
101.881
21
-132.375
0
LINE
8
BLACK
6
CONTINUOUS
10
101.881
20
-132.375
11
101.976
21
-132.28
0
LINE
8
BLACK
6
CONTINUOUS
10
101.976
20
-132.28
11
102.166
21
-132.185
0
LINE
8
BLACK
6
CONTINUOUS
10
103.69
20
-133.994
11
103.785
21
-134.09
0
LINE
8
BLACK
6
CONTINUOUS
10
103.785
20
-134.09
11
103.69
21
-134.185
0
LINE
8
BLACK
6
CONTINUOUS
10
103.69
20
-134.185
11
103.595
21
-134.09
0
LINE
8
BLACK
6
CONTINUOUS
10
103.595
20
-134.09
11
103.69
21
-133.994
0
LINE
8
BLACK
6
CONTINUOUS
10
103.69
20
-133.994
11
103.69
21
-134.185
0
LINE
8
BLACK
6
CONTINUOUS
10
105.023
20
-132.185
11
105.214
21
-132.185
0
LINE
8
BLACK
6
CONTINUOUS
10
105.214
20
-132.185
11
105.404
21
-132.28
0
LINE
8
BLACK
6
CONTINUOUS
10
105.404
20
-132.28
11
105.5
21
-132.375
0
LINE
8
BLACK
6
CONTINUOUS
10
105.5
20
-132.375
11
105.595
21
-132.566
0
LINE
8
BLACK
6
CONTINUOUS
10
105.595
20
-132.566
11
105.69
21
-132.947
0
LINE
8
BLACK
6
CONTINUOUS
10
105.69
20
-132.947
11
105.69
21
-133.423
0
LINE
8
BLACK
6
CONTINUOUS
10
105.69
20
-133.423
11
105.595
21
-133.804
0
LINE
8
BLACK
6
CONTINUOUS
10
105.595
20
-133.804
11
105.5
21
-133.994
0
LINE
8
BLACK
6
CONTINUOUS
10
105.5
20
-133.994
11
105.404
21
-134.09
0
LINE
8
BLACK
6
CONTINUOUS
10
105.404
20
-134.09
11
105.214
21
-134.185
0
LINE
8
BLACK
6
CONTINUOUS
10
105.214
20
-134.185
11
105.023
21
-134.185
0
LINE
8
BLACK
6
CONTINUOUS
10
105.023
20
-134.185
11
104.833
21
-134.09
0
LINE
8
BLACK
6
CONTINUOUS
10
104.833
20
-134.09
11
104.738
21
-133.994
0
LINE
8
BLACK
6
CONTINUOUS
10
104.738
20
-133.994
11
104.643
21
-133.804
0
LINE
8
BLACK
6
CONTINUOUS
10
104.643
20
-133.804
11
104.547
21
-133.423
0
LINE
8
BLACK
6
CONTINUOUS
10
104.547
20
-133.423
11
104.547
21
-132.947
0
LINE
8
BLACK
6
CONTINUOUS
10
104.547
20
-132.947
11
104.643
21
-132.566
0
LINE
8
BLACK
6
CONTINUOUS
10
104.643
20
-132.566
11
104.738
21
-132.375
0
LINE
8
BLACK
6
CONTINUOUS
10
104.738
20
-132.375
11
104.833
21
-132.28
0
LINE
8
BLACK
6
CONTINUOUS
10
104.833
20
-132.28
11
105.023
21
-132.185
0
LINE
8
BLACK
6
CONTINUOUS
10
107.595
20
-134.185
11
106.452
21
-134.185
0
LINE
8
BLACK
6
CONTINUOUS
10
107.023
20
-134.185
11
107.023
21
-132.185
0
LINE
8
BLACK
6
CONTINUOUS
10
107.023
20
-132.185
11
106.833
21
-132.471
0
LINE
8
BLACK
6
CONTINUOUS
10
106.833
20
-132.471
11
106.643
21
-132.661
0
LINE
8
BLACK
6
CONTINUOUS
10
106.643
20
-132.661
11
106.452
21
-132.756
0
LINE
8
BLACK
6
CONTINUOUS
10
109.404
20
-132.185
11
108.452
21
-132.185
0
LINE
8
BLACK
6
CONTINUOUS
10
108.452
20
-132.185
11
108.357
21
-133.137
0
LINE
8
BLACK
6
CONTINUOUS
10
108.357
20
-133.137
11
108.452
21
-133.042
0
LINE
8
BLACK
6
CONTINUOUS
10
108.452
20
-133.042
11
108.643
21
-132.947
0
LINE
8
BLACK
6
CONTINUOUS
10
108.643
20
-132.947
11
109.119
21
-132.947
0
LINE
8
BLACK
6
CONTINUOUS
10
109.119
20
-132.947
11
109.309
21
-133.042
0
LINE
8
BLACK
6
CONTINUOUS
10
109.309
20
-133.042
11
109.404
21
-133.137
0
LINE
8
BLACK
6
CONTINUOUS
10
109.404
20
-133.137
11
109.5
21
-133.328
0
LINE
8
BLACK
6
CONTINUOUS
10
109.5
20
-133.328
11
109.5
21
-133.804
0
LINE
8
BLACK
6
CONTINUOUS
10
109.5
20
-133.804
11
109.404
21
-133.994
0
LINE
8
BLACK
6
CONTINUOUS
10
109.404
20
-133.994
11
109.309
21
-134.09
0
LINE
8
BLACK
6
CONTINUOUS
10
109.309
20
-134.09
11
109.119
21
-134.185
0
LINE
8
BLACK
6
CONTINUOUS
10
109.119
20
-134.185
11
108.643
21
-134.185
0
LINE
8
BLACK
6
CONTINUOUS
10
108.643
20
-134.185
11
108.452
21
-134.09
0
LINE
8
BLACK
6
CONTINUOUS
10
108.452
20
-134.09
11
108.357
21
-133.994
0
LINE
8
BLACK
6
CONTINUOUS
10
110.166
20
-132.185
11
111.5
21
-132.185
0
LINE
8
BLACK
6
CONTINUOUS
10
111.5
20
-132.185
11
110.643
21
-134.185
0
LINE
8
BLACK
6
CONTINUOUS
10
112.166
20
-132.185
11
112.166
21
-132.566
0
LINE
8
BLACK
6
CONTINUOUS
10
112.928
20
-132.185
11
112.928
21
-132.566
0
LINE
8
BLACK
6
CONTINUOUS
10
115.881
20
-134.947
11
115.785
21
-134.852
0
LINE
8
BLACK
6
CONTINUOUS
10
115.785
20
-134.852
11
115.595
21
-134.566
0
LINE
8
BLACK
6
CONTINUOUS
10
115.595
20
-134.566
11
115.5
21
-134.375
0
LINE
8
BLACK
6
CONTINUOUS
10
115.5
20
-134.375
11
115.404
21
-134.09
0
LINE
8
BLACK
6
CONTINUOUS
10
115.404
20
-134.09
11
115.309
21
-133.613
0
LINE
8
BLACK
6
CONTINUOUS
10
115.309
20
-133.613
11
115.309
21
-133.232
0
LINE
8
BLACK
6
CONTINUOUS
10
115.309
20
-133.232
11
115.404
21
-132.756
0
LINE
8
BLACK
6
CONTINUOUS
10
115.404
20
-132.756
11
115.5
21
-132.471
0
LINE
8
BLACK
6
CONTINUOUS
10
115.5
20
-132.471
11
115.595
21
-132.28
0
LINE
8
BLACK
6
CONTINUOUS
10
115.595
20
-132.28
11
115.785
21
-131.994
0
LINE
8
BLACK
6
CONTINUOUS
10
115.785
20
-131.994
11
115.881
21
-131.899
0
LINE
8
BLACK
6
CONTINUOUS
10
116.547
20
-132.375
11
116.643
21
-132.28
0
LINE
8
BLACK
6
CONTINUOUS
10
116.643
20
-132.28
11
116.833
21
-132.185
0
LINE
8
BLACK
6
CONTINUOUS
10
116.833
20
-132.185
11
117.309
21
-132.185
0
LINE
8
BLACK
6
CONTINUOUS
10
117.309
20
-132.185
11
117.5
21
-132.28
0
LINE
8
BLACK
6
CONTINUOUS
10
117.5
20
-132.28
11
117.595
21
-132.375
0
LINE
8
BLACK
6
CONTINUOUS
10
117.595
20
-132.375
11
117.69
21
-132.566
0
LINE
8
BLACK
6
CONTINUOUS
10
117.69
20
-132.566
11
117.69
21
-132.756
0
LINE
8
BLACK
6
CONTINUOUS
10
117.69
20
-132.756
11
117.595
21
-133.042
0
LINE
8
BLACK
6
CONTINUOUS
10
117.595
20
-133.042
11
116.452
21
-134.185
0
LINE
8
BLACK
6
CONTINUOUS
10
116.452
20
-134.185
11
117.69
21
-134.185
0
LINE
8
BLACK
6
CONTINUOUS
10
120.071
20
-134.185
11
120.071
21
-132.185
0
LINE
8
BLACK
6
CONTINUOUS
10
120.928
20
-134.185
11
120.928
21
-133.137
0
LINE
8
BLACK
6
CONTINUOUS
10
120.928
20
-133.137
11
120.833
21
-132.947
0
LINE
8
BLACK
6
CONTINUOUS
10
120.833
20
-132.947
11
120.643
21
-132.852
0
LINE
8
BLACK
6
CONTINUOUS
10
120.643
20
-132.852
11
120.357
21
-132.852
0
LINE
8
BLACK
6
CONTINUOUS
10
120.357
20
-132.852
11
120.166
21
-132.947
0
LINE
8
BLACK
6
CONTINUOUS
10
120.166
20
-132.947
11
120.071
21
-133.042
0
LINE
8
BLACK
6
CONTINUOUS
10
122.166
20
-134.185
11
121.976
21
-134.09
0
LINE
8
BLACK
6
CONTINUOUS
10
121.976
20
-134.09
11
121.881
21
-133.994
0
LINE
8
BLACK
6
CONTINUOUS
10
121.881
20
-133.994
11
121.785
21
-133.804
0
LINE
8
BLACK
6
CONTINUOUS
10
121.785
20
-133.804
11
121.785
21
-133.232
0
LINE
8
BLACK
6
CONTINUOUS
10
121.785
20
-133.232
11
121.881
21
-133.042
0
LINE
8
BLACK
6
CONTINUOUS
10
121.881
20
-133.042
11
121.976
21
-132.947
0
LINE
8
BLACK
6
CONTINUOUS
10
121.976
20
-132.947
11
122.166
21
-132.852
0
LINE
8
BLACK
6
CONTINUOUS
10
122.166
20
-132.852
11
122.452
21
-132.852
0
LINE
8
BLACK
6
CONTINUOUS
10
122.452
20
-132.852
11
122.643
21
-132.947
0
LINE
8
BLACK
6
CONTINUOUS
10
122.643
20
-132.947
11
122.738
21
-133.042
0
LINE
8
BLACK
6
CONTINUOUS
10
122.738
20
-133.042
11
122.833
21
-133.232
0
LINE
8
BLACK
6
CONTINUOUS
10
122.833
20
-133.232
11
122.833
21
-133.804
0
LINE
8
BLACK
6
CONTINUOUS
10
122.833
20
-133.804
11
122.738
21
-133.994
0
LINE
8
BLACK
6
CONTINUOUS
10
122.738
20
-133.994
11
122.643
21
-134.09
0
LINE
8
BLACK
6
CONTINUOUS
10
122.643
20
-134.09
11
122.452
21
-134.185
0
LINE
8
BLACK
6
CONTINUOUS
10
122.452
20
-134.185
11
122.166
21
-134.185
0
LINE
8
BLACK
6
CONTINUOUS
10
123.976
20
-134.185
11
123.785
21
-134.09
0
LINE
8
BLACK
6
CONTINUOUS
10
123.785
20
-134.09
11
123.69
21
-133.899
0
LINE
8
BLACK
6
CONTINUOUS
10
123.69
20
-133.899
11
123.69
21
-132.185
0
LINE
8
BLACK
6
CONTINUOUS
10
125.5
20
-134.09
11
125.309
21
-134.185
0
LINE
8
BLACK
6
CONTINUOUS
10
125.309
20
-134.185
11
124.928
21
-134.185
0
LINE
8
BLACK
6
CONTINUOUS
10
124.928
20
-134.185
11
124.738
21
-134.09
0
LINE
8
BLACK
6
CONTINUOUS
10
124.738
20
-134.09
11
124.643
21
-133.899
0
LINE
8
BLACK
6
CONTINUOUS
10
124.643
20
-133.899
11
124.643
21
-133.137
0
LINE
8
BLACK
6
CONTINUOUS
10
124.643
20
-133.137
11
124.738
21
-132.947
0
LINE
8
BLACK
6
CONTINUOUS
10
124.738
20
-132.947
11
124.928
21
-132.852
0
LINE
8
BLACK
6
CONTINUOUS
10
124.928
20
-132.852
11
125.309
21
-132.852
0
LINE
8
BLACK
6
CONTINUOUS
10
125.309
20
-132.852
11
125.5
21
-132.947
0
LINE
8
BLACK
6
CONTINUOUS
10
125.5
20
-132.947
11
125.595
21
-133.137
0
LINE
8
BLACK
6
CONTINUOUS
10
125.595
20
-133.137
11
125.595
21
-133.328
0
LINE
8
BLACK
6
CONTINUOUS
10
125.595
20
-133.328
11
124.643
21
-133.518
0
LINE
8
BLACK
6
CONTINUOUS
10
126.357
20
-134.09
11
126.547
21
-134.185
0
LINE
8
BLACK
6
CONTINUOUS
10
126.547
20
-134.185
11
126.928
21
-134.185
0
LINE
8
BLACK
6
CONTINUOUS
10
126.928
20
-134.185
11
127.119
21
-134.09
0
LINE
8
BLACK
6
CONTINUOUS
10
127.119
20
-134.09
11
127.214
21
-133.899
0
LINE
8
BLACK
6
CONTINUOUS
10
127.214
20
-133.899
11
127.214
21
-133.804
0
LINE
8
BLACK
6
CONTINUOUS
10
127.214
20
-133.804
11
127.119
21
-133.613
0
LINE
8
BLACK
6
CONTINUOUS
10
127.119
20
-133.613
11
126.928
21
-133.518
0
LINE
8
BLACK
6
CONTINUOUS
10
126.928
20
-133.518
11
126.643
21
-133.518
0
LINE
8
BLACK
6
CONTINUOUS
10
126.643
20
-133.518
11
126.452
21
-133.423
0
LINE
8
BLACK
6
CONTINUOUS
10
126.452
20
-133.423
11
126.357
21
-133.232
0
LINE
8
BLACK
6
CONTINUOUS
10
126.357
20
-133.232
11
126.357
21
-133.137
0
LINE
8
BLACK
6
CONTINUOUS
10
126.357
20
-133.137
11
126.452
21
-132.947
0
LINE
8
BLACK
6
CONTINUOUS
10
126.452
20
-132.947
11
126.643
21
-132.852
0
LINE
8
BLACK
6
CONTINUOUS
10
126.643
20
-132.852
11
126.928
21
-132.852
0
LINE
8
BLACK
6
CONTINUOUS
10
126.928
20
-132.852
11
127.119
21
-132.947
0
LINE
8
BLACK
6
CONTINUOUS
10
127.881
20
-134.947
11
127.976
21
-134.852
0
LINE
8
BLACK
6
CONTINUOUS
10
127.976
20
-134.852
11
128.166
21
-134.566
0
LINE
8
BLACK
6
CONTINUOUS
10
128.166
20
-134.566
11
128.262
21
-134.375
0
LINE
8
BLACK
6
CONTINUOUS
10
128.262
20
-134.375
11
128.357
21
-134.09
0
LINE
8
BLACK
6
CONTINUOUS
10
128.357
20
-134.09
11
128.452
21
-133.613
0
LINE
8
BLACK
6
CONTINUOUS
10
128.452
20
-133.613
11
128.452
21
-133.232
0
LINE
8
BLACK
6
CONTINUOUS
10
128.452
20
-133.232
11
128.357
21
-132.756
0
LINE
8
BLACK
6
CONTINUOUS
10
128.357
20
-132.756
11
128.262
21
-132.471
0
LINE
8
BLACK
6
CONTINUOUS
10
128.262
20
-132.471
11
128.166
21
-132.28
0
LINE
8
BLACK
6
CONTINUOUS
10
128.166
20
-132.28
11
127.976
21
-131.994
0
LINE
8
BLACK
6
CONTINUOUS
10
127.976
20
-131.994
11
127.881
21
-131.899
0
CIRCLE
8
BLACK
10
79.83
20
-135.91
40
0.3
0
LINE
8
BLACK
6
CONTINUOUS
10
83.1187
20
-134.825
11
83.3092
21
-134.825
0
LINE
8
BLACK
6
CONTINUOUS
10
83.3092
20
-134.825
11
83.4997
21
-134.92
0
LINE
8
BLACK
6
CONTINUOUS
10
83.4997
20
-134.92
11
83.5949
21
-135.015
0
LINE
8
BLACK
6
CONTINUOUS
10
83.5949
20
-135.015
11
83.6901
21
-135.206
0
LINE
8
BLACK
6
CONTINUOUS
10
83.6901
20
-135.206
11
83.7854
21
-135.587
0
LINE
8
BLACK
6
CONTINUOUS
10
83.7854
20
-135.587
11
83.7854
21
-136.063
0
LINE
8
BLACK
6
CONTINUOUS
10
83.7854
20
-136.063
11
83.6901
21
-136.444
0
LINE
8
BLACK
6
CONTINUOUS
10
83.6901
20
-136.444
11
83.5949
21
-136.634
0
LINE
8
BLACK
6
CONTINUOUS
10
83.5949
20
-136.634
11
83.4997
21
-136.73
0
LINE
8
BLACK
6
CONTINUOUS
10
83.4997
20
-136.73
11
83.3092
21
-136.825
0
LINE
8
BLACK
6
CONTINUOUS
10
83.3092
20
-136.825
11
83.1187
21
-136.825
0
LINE
8
BLACK
6
CONTINUOUS
10
83.1187
20
-136.825
11
82.9282
21
-136.73
0
LINE
8
BLACK
6
CONTINUOUS
10
82.9282
20
-136.73
11
82.833
21
-136.634
0
LINE
8
BLACK
6
CONTINUOUS
10
82.833
20
-136.634
11
82.7378
21
-136.444
0
LINE
8
BLACK
6
CONTINUOUS
10
82.7378
20
-136.444
11
82.6425
21
-136.063
0
LINE
8
BLACK
6
CONTINUOUS
10
82.6425
20
-136.063
11
82.6425
21
-135.587
0
LINE
8
BLACK
6
CONTINUOUS
10
82.6425
20
-135.587
11
82.7378
21
-135.206
0
LINE
8
BLACK
6
CONTINUOUS
10
82.7378
20
-135.206
11
82.833
21
-135.015
0
LINE
8
BLACK
6
CONTINUOUS
10
82.833
20
-135.015
11
82.9282
21
-134.92
0
LINE
8
BLACK
6
CONTINUOUS
10
82.9282
20
-134.92
11
83.1187
21
-134.825
0
LINE
8
BLACK
6
CONTINUOUS
10
84.6425
20
-136.634
11
84.7378
21
-136.73
0
LINE
8
BLACK
6
CONTINUOUS
10
84.7378
20
-136.73
11
84.6425
21
-136.825
0
LINE
8
BLACK
6
CONTINUOUS
10
84.6425
20
-136.825
11
84.5473
21
-136.73
0
LINE
8
BLACK
6
CONTINUOUS
10
84.5473
20
-136.73
11
84.6425
21
-136.634
0
LINE
8
BLACK
6
CONTINUOUS
10
84.6425
20
-136.634
11
84.6425
21
-136.825
0
LINE
8
BLACK
6
CONTINUOUS
10
86.4521
20
-134.825
11
86.0711
21
-134.825
0
LINE
8
BLACK
6
CONTINUOUS
10
86.0711
20
-134.825
11
85.8806
21
-134.92
0
LINE
8
BLACK
6
CONTINUOUS
10
85.8806
20
-134.92
11
85.7854
21
-135.015
0
LINE
8
BLACK
6
CONTINUOUS
10
85.7854
20
-135.015
11
85.5949
21
-135.301
0
LINE
8
BLACK
6
CONTINUOUS
10
85.5949
20
-135.301
11
85.4997
21
-135.682
0
LINE
8
BLACK
6
CONTINUOUS
10
85.4997
20
-135.682
11
85.4997
21
-136.444
0
LINE
8
BLACK
6
CONTINUOUS
10
85.4997
20
-136.444
11
85.5949
21
-136.634
0
LINE
8
BLACK
6
CONTINUOUS
10
85.5949
20
-136.634
11
85.6901
21
-136.73
0
LINE
8
BLACK
6
CONTINUOUS
10
85.6901
20
-136.73
11
85.8806
21
-136.825
0
LINE
8
BLACK
6
CONTINUOUS
10
85.8806
20
-136.825
11
86.2616
21
-136.825
0
LINE
8
BLACK
6
CONTINUOUS
10
86.2616
20
-136.825
11
86.4521
21
-136.73
0
LINE
8
BLACK
6
CONTINUOUS
10
86.4521
20
-136.73
11
86.5473
21
-136.634
0
LINE
8
BLACK
6
CONTINUOUS
10
86.5473
20
-136.634
11
86.6425
21
-136.444
0
LINE
8
BLACK
6
CONTINUOUS
10
86.6425
20
-136.444
11
86.6425
21
-135.968
0
LINE
8
BLACK
6
CONTINUOUS
10
86.6425
20
-135.968
11
86.5473
21
-135.777
0
LINE
8
BLACK
6
CONTINUOUS
10
86.5473
20
-135.777
11
86.4521
21
-135.682
0
LINE
8
BLACK
6
CONTINUOUS
10
86.4521
20
-135.682
11
86.2616
21
-135.587
0
LINE
8
BLACK
6
CONTINUOUS
10
86.2616
20
-135.587
11
85.8806
21
-135.587
0
LINE
8
BLACK
6
CONTINUOUS
10
85.8806
20
-135.587
11
85.6901
21
-135.682
0
LINE
8
BLACK
6
CONTINUOUS
10
85.6901
20
-135.682
11
85.5949
21
-135.777
0
LINE
8
BLACK
6
CONTINUOUS
10
85.5949
20
-135.777
11
85.4997
21
-135.968
0
LINE
8
BLACK
6
CONTINUOUS
10
87.8806
20
-134.825
11
88.0711
21
-134.825
0
LINE
8
BLACK
6
CONTINUOUS
10
88.0711
20
-134.825
11
88.2616
21
-134.92
0
LINE
8
BLACK
6
CONTINUOUS
10
88.2616
20
-134.92
11
88.3568
21
-135.015
0
LINE
8
BLACK
6
CONTINUOUS
10
88.3568
20
-135.015
11
88.4521
21
-135.206
0
LINE
8
BLACK
6
CONTINUOUS
10
88.4521
20
-135.206
11
88.5473
21
-135.587
0
LINE
8
BLACK
6
CONTINUOUS
10
88.5473
20
-135.587
11
88.5473
21
-136.063
0
LINE
8
BLACK
6
CONTINUOUS
10
88.5473
20
-136.063
11
88.4521
21
-136.444
0
LINE
8
BLACK
6
CONTINUOUS
10
88.4521
20
-136.444
11
88.3568
21
-136.634
0
LINE
8
BLACK
6
CONTINUOUS
10
88.3568
20
-136.634
11
88.2616
21
-136.73
0
LINE
8
BLACK
6
CONTINUOUS
10
88.2616
20
-136.73
11
88.0711
21
-136.825
0
LINE
8
BLACK
6
CONTINUOUS
10
88.0711
20
-136.825
11
87.8806
21
-136.825
0
LINE
8
BLACK
6
CONTINUOUS
10
87.8806
20
-136.825
11
87.6901
21
-136.73
0
LINE
8
BLACK
6
CONTINUOUS
10
87.6901
20
-136.73
11
87.5949
21
-136.634
0
LINE
8
BLACK
6
CONTINUOUS
10
87.5949
20
-136.634
11
87.4997
21
-136.444
0
LINE
8
BLACK
6
CONTINUOUS
10
87.4997
20
-136.444
11
87.4044
21
-136.063
0
LINE
8
BLACK
6
CONTINUOUS
10
87.4044
20
-136.063
11
87.4044
21
-135.587
0
LINE
8
BLACK
6
CONTINUOUS
10
87.4044
20
-135.587
11
87.4997
21
-135.206
0
LINE
8
BLACK
6
CONTINUOUS
10
87.4997
20
-135.206
11
87.5949
21
-135.015
0
LINE
8
BLACK
6
CONTINUOUS
10
87.5949
20
-135.015
11
87.6901
21
-134.92
0
LINE
8
BLACK
6
CONTINUOUS
10
87.6901
20
-134.92
11
87.8806
21
-134.825
0
LINE
8
BLACK
6
CONTINUOUS
10
89.7854
20
-134.825
11
89.9759
21
-134.825
0
LINE
8
BLACK
6
CONTINUOUS
10
89.9759
20
-134.825
11
90.1663
21
-134.92
0
LINE
8
BLACK
6
CONTINUOUS
10
90.1663
20
-134.92
11
90.2616
21
-135.015
0
LINE
8
BLACK
6
CONTINUOUS
10
90.2616
20
-135.015
11
90.3568
21
-135.206
0
LINE
8
BLACK
6
CONTINUOUS
10
90.3568
20
-135.206
11
90.4521
21
-135.587
0
LINE
8
BLACK
6
CONTINUOUS
10
90.4521
20
-135.587
11
90.4521
21
-136.063
0
LINE
8
BLACK
6
CONTINUOUS
10
90.4521
20
-136.063
11
90.3568
21
-136.444
0
LINE
8
BLACK
6
CONTINUOUS
10
90.3568
20
-136.444
11
90.2616
21
-136.634
0
LINE
8
BLACK
6
CONTINUOUS
10
90.2616
20
-136.634
11
90.1663
21
-136.73
0
LINE
8
BLACK
6
CONTINUOUS
10
90.1663
20
-136.73
11
89.9759
21
-136.825
0
LINE
8
BLACK
6
CONTINUOUS
10
89.9759
20
-136.825
11
89.7854
21
-136.825
0
LINE
8
BLACK
6
CONTINUOUS
10
89.7854
20
-136.825
11
89.5949
21
-136.73
0
LINE
8
BLACK
6
CONTINUOUS
10
89.5949
20
-136.73
11
89.4997
21
-136.634
0
LINE
8
BLACK
6
CONTINUOUS
10
89.4997
20
-136.634
11
89.4044
21
-136.444
0
LINE
8
BLACK
6
CONTINUOUS
10
89.4044
20
-136.444
11
89.3092
21
-136.063
0
LINE
8
BLACK
6
CONTINUOUS
10
89.3092
20
-136.063
11
89.3092
21
-135.587
0
LINE
8
BLACK
6
CONTINUOUS
10
89.3092
20
-135.587
11
89.4044
21
-135.206
0
LINE
8
BLACK
6
CONTINUOUS
10
89.4044
20
-135.206
11
89.4997
21
-135.015
0
LINE
8
BLACK
6
CONTINUOUS
10
89.4997
20
-135.015
11
89.5949
21
-134.92
0
LINE
8
BLACK
6
CONTINUOUS
10
89.5949
20
-134.92
11
89.7854
21
-134.825
0
LINE
8
BLACK
6
CONTINUOUS
10
91.3092
20
-136.825
11
91.3092
21
-135.492
0
LINE
8
BLACK
6
CONTINUOUS
10
91.3092
20
-135.682
11
91.4044
21
-135.587
0
LINE
8
BLACK
6
CONTINUOUS
10
91.4044
20
-135.587
11
91.5949
21
-135.492
0
LINE
8
BLACK
6
CONTINUOUS
10
91.5949
20
-135.492
11
91.8806
21
-135.492
0
LINE
8
BLACK
6
CONTINUOUS
10
91.8806
20
-135.492
11
92.0711
21
-135.587
0
LINE
8
BLACK
6
CONTINUOUS
10
92.0711
20
-135.587
11
92.1663
21
-135.777
0
LINE
8
BLACK
6
CONTINUOUS
10
92.1663
20
-135.777
11
92.1663
21
-136.825
0
LINE
8
BLACK
6
CONTINUOUS
10
92.1663
20
-135.777
11
92.2616
21
-135.587
0
LINE
8
BLACK
6
CONTINUOUS
10
92.2616
20
-135.587
11
92.4521
21
-135.492
0
LINE
8
BLACK
6
CONTINUOUS
10
92.4521
20
-135.492
11
92.7378
21
-135.492
0
LINE
8
BLACK
6
CONTINUOUS
10
92.7378
20
-135.492
11
92.9282
21
-135.587
0
LINE
8
BLACK
6
CONTINUOUS
10
92.9282
20
-135.587
11
93.0235
21
-135.777
0
LINE
8
BLACK
6
CONTINUOUS
10
93.0235
20
-135.777
11
93.0235
21
-136.825
0
LINE
8
BLACK
6
CONTINUOUS
10
93.9759
20
-136.825
11
93.9759
21
-135.492
0
LINE
8
BLACK
6
CONTINUOUS
10
93.9759
20
-135.682
11
94.0711
21
-135.587
0
LINE
8
BLACK
6
CONTINUOUS
10
94.0711
20
-135.587
11
94.2616
21
-135.492
0
LINE
8
BLACK
6
CONTINUOUS
10
94.2616
20
-135.492
11
94.5473
21
-135.492
0
LINE
8
BLACK
6
CONTINUOUS
10
94.5473
20
-135.492
11
94.7378
21
-135.587
0
LINE
8
BLACK
6
CONTINUOUS
10
94.7378
20
-135.587
11
94.833
21
-135.777
0
LINE
8
BLACK
6
CONTINUOUS
10
94.833
20
-135.777
11
94.833
21
-136.825
0
LINE
8
BLACK
6
CONTINUOUS
10
94.833
20
-135.777
11
94.9282
21
-135.587
0
LINE
8
BLACK
6
CONTINUOUS
10
94.9282
20
-135.587
11
95.1187
21
-135.492
0
LINE
8
BLACK
6
CONTINUOUS
10
95.1187
20
-135.492
11
95.4044
21
-135.492
0
LINE
8
BLACK
6
CONTINUOUS
10
95.4044
20
-135.492
11
95.5949
21
-135.587
0
LINE
8
BLACK
6
CONTINUOUS
10
95.5949
20
-135.587
11
95.6902
21
-135.777
0
LINE
8
BLACK
6
CONTINUOUS
10
95.6902
20
-135.777
11
95.6902
21
-136.825
0
LINE
8
BLACK
6
CONTINUOUS
10
99.5949
20
-134.73
11
97.8806
21
-137.301
0
LINE
8
BLACK
6
CONTINUOUS
10
102.166
20
-134.825
11
102.357
21
-134.825
0
LINE
8
BLACK
6
CONTINUOUS
10
102.357
20
-134.825
11
102.547
21
-134.92
0
LINE
8
BLACK
6
CONTINUOUS
10
102.547
20
-134.92
11
102.643
21
-135.015
0
LINE
8
BLACK
6
CONTINUOUS
10
102.643
20
-135.015
11
102.738
21
-135.206
0
LINE
8
BLACK
6
CONTINUOUS
10
102.738
20
-135.206
11
102.833
21
-135.587
0
LINE
8
BLACK
6
CONTINUOUS
10
102.833
20
-135.587
11
102.833
21
-136.063
0
LINE
8
BLACK
6
CONTINUOUS
10
102.833
20
-136.063
11
102.738
21
-136.444
0
LINE
8
BLACK
6
CONTINUOUS
10
102.738
20
-136.444
11
102.643
21
-136.634
0
LINE
8
BLACK
6
CONTINUOUS
10
102.643
20
-136.634
11
102.547
21
-136.73
0
LINE
8
BLACK
6
CONTINUOUS
10
102.547
20
-136.73
11
102.357
21
-136.825
0
LINE
8
BLACK
6
CONTINUOUS
10
102.357
20
-136.825
11
102.166
21
-136.825
0
LINE
8
BLACK
6
CONTINUOUS
10
102.166
20
-136.825
11
101.976
21
-136.73
0
LINE
8
BLACK
6
CONTINUOUS
10
101.976
20
-136.73
11
101.881
21
-136.634
0
LINE
8
BLACK
6
CONTINUOUS
10
101.881
20
-136.634
11
101.785
21
-136.444
0
LINE
8
BLACK
6
CONTINUOUS
10
101.785
20
-136.444
11
101.69
21
-136.063
0
LINE
8
BLACK
6
CONTINUOUS
10
101.69
20
-136.063
11
101.69
21
-135.587
0
LINE
8
BLACK
6
CONTINUOUS
10
101.69
20
-135.587
11
101.785
21
-135.206
0
LINE
8
BLACK
6
CONTINUOUS
10
101.785
20
-135.206
11
101.881
21
-135.015
0
LINE
8
BLACK
6
CONTINUOUS
10
101.881
20
-135.015
11
101.976
21
-134.92
0
LINE
8
BLACK
6
CONTINUOUS
10
101.976
20
-134.92
11
102.166
21
-134.825
0
LINE
8
BLACK
6
CONTINUOUS
10
103.69
20
-136.634
11
103.785
21
-136.73
0
LINE
8
BLACK
6
CONTINUOUS
10
103.785
20
-136.73
11
103.69
21
-136.825
0
LINE
8
BLACK
6
CONTINUOUS
10
103.69
20
-136.825
11
103.595
21
-136.73
0
LINE
8
BLACK
6
CONTINUOUS
10
103.595
20
-136.73
11
103.69
21
-136.634
0
LINE
8
BLACK
6
CONTINUOUS
10
103.69
20
-136.634
11
103.69
21
-136.825
0
LINE
8
BLACK
6
CONTINUOUS
10
105.023
20
-134.825
11
105.214
21
-134.825
0
LINE
8
BLACK
6
CONTINUOUS
10
105.214
20
-134.825
11
105.404
21
-134.92
0
LINE
8
BLACK
6
CONTINUOUS
10
105.404
20
-134.92
11
105.5
21
-135.015
0
LINE
8
BLACK
6
CONTINUOUS
10
105.5
20
-135.015
11
105.595
21
-135.206
0
LINE
8
BLACK
6
CONTINUOUS
10
105.595
20
-135.206
11
105.69
21
-135.587
0
LINE
8
BLACK
6
CONTINUOUS
10
105.69
20
-135.587
11
105.69
21
-136.063
0
LINE
8
BLACK
6
CONTINUOUS
10
105.69
20
-136.063
11
105.595
21
-136.444
0
LINE
8
BLACK
6
CONTINUOUS
10
105.595
20
-136.444
11
105.5
21
-136.634
0
LINE
8
BLACK
6
CONTINUOUS
10
105.5
20
-136.634
11
105.404
21
-136.73
0
LINE
8
BLACK
6
CONTINUOUS
10
105.404
20
-136.73
11
105.214
21
-136.825
0
LINE
8
BLACK
6
CONTINUOUS
10
105.214
20
-136.825
11
105.023
21
-136.825
0
LINE
8
BLACK
6
CONTINUOUS
10
105.023
20
-136.825
11
104.833
21
-136.73
0
LINE
8
BLACK
6
CONTINUOUS
10
104.833
20
-136.73
11
104.738
21
-136.634
0
LINE
8
BLACK
6
CONTINUOUS
10
104.738
20
-136.634
11
104.643
21
-136.444
0
LINE
8
BLACK
6
CONTINUOUS
10
104.643
20
-136.444
11
104.547
21
-136.063
0
LINE
8
BLACK
6
CONTINUOUS
10
104.547
20
-136.063
11
104.547
21
-135.587
0
LINE
8
BLACK
6
CONTINUOUS
10
104.547
20
-135.587
11
104.643
21
-135.206
0
LINE
8
BLACK
6
CONTINUOUS
10
104.643
20
-135.206
11
104.738
21
-135.015
0
LINE
8
BLACK
6
CONTINUOUS
10
104.738
20
-135.015
11
104.833
21
-134.92
0
LINE
8
BLACK
6
CONTINUOUS
10
104.833
20
-134.92
11
105.023
21
-134.825
0
LINE
8
BLACK
6
CONTINUOUS
10
106.452
20
-135.015
11
106.547
21
-134.92
0
LINE
8
BLACK
6
CONTINUOUS
10
106.547
20
-134.92
11
106.738
21
-134.825
0
LINE
8
BLACK
6
CONTINUOUS
10
106.738
20
-134.825
11
107.214
21
-134.825
0
LINE
8
BLACK
6
CONTINUOUS
10
107.214
20
-134.825
11
107.404
21
-134.92
0
LINE
8
BLACK
6
CONTINUOUS
10
107.404
20
-134.92
11
107.5
21
-135.015
0
LINE
8
BLACK
6
CONTINUOUS
10
107.5
20
-135.015
11
107.595
21
-135.206
0
LINE
8
BLACK
6
CONTINUOUS
10
107.595
20
-135.206
11
107.595
21
-135.396
0
LINE
8
BLACK
6
CONTINUOUS
10
107.595
20
-135.396
11
107.5
21
-135.682
0
LINE
8
BLACK
6
CONTINUOUS
10
107.5
20
-135.682
11
106.357
21
-136.825
0
LINE
8
BLACK
6
CONTINUOUS
10
106.357
20
-136.825
11
107.595
21
-136.825
0
LINE
8
BLACK
6
CONTINUOUS
10
108.262
20
-134.825
11
109.5
21
-134.825
0
LINE
8
BLACK
6
CONTINUOUS
10
109.5
20
-134.825
11
108.833
21
-135.587
0
LINE
8
BLACK
6
CONTINUOUS
10
108.833
20
-135.587
11
109.119
21
-135.587
0
LINE
8
BLACK
6
CONTINUOUS
10
109.119
20
-135.587
11
109.309
21
-135.682
0
LINE
8
BLACK
6
CONTINUOUS
10
109.309
20
-135.682
11
109.404
21
-135.777
0
LINE
8
BLACK
6
CONTINUOUS
10
109.404
20
-135.777
11
109.5
21
-135.968
0
LINE
8
BLACK
6
CONTINUOUS
10
109.5
20
-135.968
11
109.5
21
-136.444
0
LINE
8
BLACK
6
CONTINUOUS
10
109.5
20
-136.444
11
109.404
21
-136.634
0
LINE
8
BLACK
6
CONTINUOUS
10
109.404
20
-136.634
11
109.309
21
-136.73
0
LINE
8
BLACK
6
CONTINUOUS
10
109.309
20
-136.73
11
109.119
21
-136.825
0
LINE
8
BLACK
6
CONTINUOUS
10
109.119
20
-136.825
11
108.547
21
-136.825
0
LINE
8
BLACK
6
CONTINUOUS
10
108.547
20
-136.825
11
108.357
21
-136.73
0
LINE
8
BLACK
6
CONTINUOUS
10
108.357
20
-136.73
11
108.262
21
-136.634
0
LINE
8
BLACK
6
CONTINUOUS
10
111.214
20
-134.825
11
110.833
21
-134.825
0
LINE
8
BLACK
6
CONTINUOUS
10
110.833
20
-134.825
11
110.643
21
-134.92
0
LINE
8
BLACK
6
CONTINUOUS
10
110.643
20
-134.92
11
110.547
21
-135.015
0
LINE
8
BLACK
6
CONTINUOUS
10
110.547
20
-135.015
11
110.357
21
-135.301
0
LINE
8
BLACK
6
CONTINUOUS
10
110.357
20
-135.301
11
110.262
21
-135.682
0
LINE
8
BLACK
6
CONTINUOUS
10
110.262
20
-135.682
11
110.262
21
-136.444
0
LINE
8
BLACK
6
CONTINUOUS
10
110.262
20
-136.444
11
110.357
21
-136.634
0
LINE
8
BLACK
6
CONTINUOUS
10
110.357
20
-136.634
11
110.452
21
-136.73
0
LINE
8
BLACK
6
CONTINUOUS
10
110.452
20
-136.73
11
110.643
21
-136.825
0
LINE
8
BLACK
6
CONTINUOUS
10
110.643
20
-136.825
11
111.023
21
-136.825
0
LINE
8
BLACK
6
CONTINUOUS
10
111.023
20
-136.825
11
111.214
21
-136.73
0
LINE
8
BLACK
6
CONTINUOUS
10
111.214
20
-136.73
11
111.309
21
-136.634
0
LINE
8
BLACK
6
CONTINUOUS
10
111.309
20
-136.634
11
111.404
21
-136.444
0
LINE
8
BLACK
6
CONTINUOUS
10
111.404
20
-136.444
11
111.404
21
-135.968
0
LINE
8
BLACK
6
CONTINUOUS
10
111.404
20
-135.968
11
111.309
21
-135.777
0
LINE
8
BLACK
6
CONTINUOUS
10
111.309
20
-135.777
11
111.214
21
-135.682
0
LINE
8
BLACK
6
CONTINUOUS
10
111.214
20
-135.682
11
111.023
21
-135.587
0
LINE
8
BLACK
6
CONTINUOUS
10
111.023
20
-135.587
11
110.643
21
-135.587
0
LINE
8
BLACK
6
CONTINUOUS
10
110.643
20
-135.587
11
110.452
21
-135.682
0
LINE
8
BLACK
6
CONTINUOUS
10
110.452
20
-135.682
11
110.357
21
-135.777
0
LINE
8
BLACK
6
CONTINUOUS
10
110.357
20
-135.777
11
110.262
21
-135.968
0
LINE
8
BLACK
6
CONTINUOUS
10
112.166
20
-134.825
11
112.166
21
-135.206
0
LINE
8
BLACK
6
CONTINUOUS
10
112.928
20
-134.825
11
112.928
21
-135.206
0
LINE
8
BLACK
6
CONTINUOUS
10
115.881
20
-137.587
11
115.785
21
-137.492
0
LINE
8
BLACK
6
CONTINUOUS
10
115.785
20
-137.492
11
115.595
21
-137.206
0
LINE
8
BLACK
6
CONTINUOUS
10
115.595
20
-137.206
11
115.5
21
-137.015
0
LINE
8
BLACK
6
CONTINUOUS
10
115.5
20
-137.015
11
115.404
21
-136.73
0
LINE
8
BLACK
6
CONTINUOUS
10
115.404
20
-136.73
11
115.309
21
-136.253
0
LINE
8
BLACK
6
CONTINUOUS
10
115.309
20
-136.253
11
115.309
21
-135.872
0
LINE
8
BLACK
6
CONTINUOUS
10
115.309
20
-135.872
11
115.404
21
-135.396
0
LINE
8
BLACK
6
CONTINUOUS
10
115.404
20
-135.396
11
115.5
21
-135.111
0
LINE
8
BLACK
6
CONTINUOUS
10
115.5
20
-135.111
11
115.595
21
-134.92
0
LINE
8
BLACK
6
CONTINUOUS
10
115.595
20
-134.92
11
115.785
21
-134.634
0
LINE
8
BLACK
6
CONTINUOUS
10
115.785
20
-134.634
11
115.881
21
-134.539
0
LINE
8
BLACK
6
CONTINUOUS
10
116.547
20
-135.015
11
116.643
21
-134.92
0
LINE
8
BLACK
6
CONTINUOUS
10
116.643
20
-134.92
11
116.833
21
-134.825
0
LINE
8
BLACK
6
CONTINUOUS
10
116.833
20
-134.825
11
117.309
21
-134.825
0
LINE
8
BLACK
6
CONTINUOUS
10
117.309
20
-134.825
11
117.5
21
-134.92
0
LINE
8
BLACK
6
CONTINUOUS
10
117.5
20
-134.92
11
117.595
21
-135.015
0
LINE
8
BLACK
6
CONTINUOUS
10
117.595
20
-135.015
11
117.69
21
-135.206
0
LINE
8
BLACK
6
CONTINUOUS
10
117.69
20
-135.206
11
117.69
21
-135.396
0
LINE
8
BLACK
6
CONTINUOUS
10
117.69
20
-135.396
11
117.595
21
-135.682
0
LINE
8
BLACK
6
CONTINUOUS
10
117.595
20
-135.682
11
116.452
21
-136.825
0
LINE
8
BLACK
6
CONTINUOUS
10
116.452
20
-136.825
11
117.69
21
-136.825
0
LINE
8
BLACK
6
CONTINUOUS
10
120.071
20
-136.825
11
120.071
21
-134.825
0
LINE
8
BLACK
6
CONTINUOUS
10
120.928
20
-136.825
11
120.928
21
-135.777
0
LINE
8
BLACK
6
CONTINUOUS
10
120.928
20
-135.777
11
120.833
21
-135.587
0
LINE
8
BLACK
6
CONTINUOUS
10
120.833
20
-135.587
11
120.643
21
-135.492
0
LINE
8
BLACK
6
CONTINUOUS
10
120.643
20
-135.492
11
120.357
21
-135.492
0
LINE
8
BLACK
6
CONTINUOUS
10
120.357
20
-135.492
11
120.166
21
-135.587
0
LINE
8
BLACK
6
CONTINUOUS
10
120.166
20
-135.587
11
120.071
21
-135.682
0
LINE
8
BLACK
6
CONTINUOUS
10
122.166
20
-136.825
11
121.976
21
-136.73
0
LINE
8
BLACK
6
CONTINUOUS
10
121.976
20
-136.73
11
121.881
21
-136.634
0
LINE
8
BLACK
6
CONTINUOUS
10
121.881
20
-136.634
11
121.785
21
-136.444
0
LINE
8
BLACK
6
CONTINUOUS
10
121.785
20
-136.444
11
121.785
21
-135.872
0
LINE
8
BLACK
6
CONTINUOUS
10
121.785
20
-135.872
11
121.881
21
-135.682
0
LINE
8
BLACK
6
CONTINUOUS
10
121.881
20
-135.682
11
121.976
21
-135.587
0
LINE
8
BLACK
6
CONTINUOUS
10
121.976
20
-135.587
11
122.166
21
-135.492
0
LINE
8
BLACK
6
CONTINUOUS
10
122.166
20
-135.492
11
122.452
21
-135.492
0
LINE
8
BLACK
6
CONTINUOUS
10
122.452
20
-135.492
11
122.643
21
-135.587
0
LINE
8
BLACK
6
CONTINUOUS
10
122.643
20
-135.587
11
122.738
21
-135.682
0
LINE
8
BLACK
6
CONTINUOUS
10
122.738
20
-135.682
11
122.833
21
-135.872
0
LINE
8
BLACK
6
CONTINUOUS
10
122.833
20
-135.872
11
122.833
21
-136.444
0
LINE
8
BLACK
6
CONTINUOUS
10
122.833
20
-136.444
11
122.738
21
-136.634
0
LINE
8
BLACK
6
CONTINUOUS
10
122.738
20
-136.634
11
122.643
21
-136.73
0
LINE
8
BLACK
6
CONTINUOUS
10
122.643
20
-136.73
11
122.452
21
-136.825
0
LINE
8
BLACK
6
CONTINUOUS
10
122.452
20
-136.825
11
122.166
21
-136.825
0
LINE
8
BLACK
6
CONTINUOUS
10
123.976
20
-136.825
11
123.785
21
-136.73
0
LINE
8
BLACK
6
CONTINUOUS
10
123.785
20
-136.73
11
123.69
21
-136.539
0
LINE
8
BLACK
6
CONTINUOUS
10
123.69
20
-136.539
11
123.69
21
-134.825
0
LINE
8
BLACK
6
CONTINUOUS
10
125.5
20
-136.73
11
125.309
21
-136.825
0
LINE
8
BLACK
6
CONTINUOUS
10
125.309
20
-136.825
11
124.928
21
-136.825
0
LINE
8
BLACK
6
CONTINUOUS
10
124.928
20
-136.825
11
124.738
21
-136.73
0
LINE
8
BLACK
6
CONTINUOUS
10
124.738
20
-136.73
11
124.643
21
-136.539
0
LINE
8
BLACK
6
CONTINUOUS
10
124.643
20
-136.539
11
124.643
21
-135.777
0
LINE
8
BLACK
6
CONTINUOUS
10
124.643
20
-135.777
11
124.738
21
-135.587
0
LINE
8
BLACK
6
CONTINUOUS
10
124.738
20
-135.587
11
124.928
21
-135.492
0
LINE
8
BLACK
6
CONTINUOUS
10
124.928
20
-135.492
11
125.309
21
-135.492
0
LINE
8
BLACK
6
CONTINUOUS
10
125.309
20
-135.492
11
125.5
21
-135.587
0
LINE
8
BLACK
6
CONTINUOUS
10
125.5
20
-135.587
11
125.595
21
-135.777
0
LINE
8
BLACK
6
CONTINUOUS
10
125.595
20
-135.777
11
125.595
21
-135.968
0
LINE
8
BLACK
6
CONTINUOUS
10
125.595
20
-135.968
11
124.643
21
-136.158
0
LINE
8
BLACK
6
CONTINUOUS
10
126.357
20
-136.73
11
126.547
21
-136.825
0
LINE
8
BLACK
6
CONTINUOUS
10
126.547
20
-136.825
11
126.928
21
-136.825
0
LINE
8
BLACK
6
CONTINUOUS
10
126.928
20
-136.825
11
127.119
21
-136.73
0
LINE
8
BLACK
6
CONTINUOUS
10
127.119
20
-136.73
11
127.214
21
-136.539
0
LINE
8
BLACK
6
CONTINUOUS
10
127.214
20
-136.539
11
127.214
21
-136.444
0
LINE
8
BLACK
6
CONTINUOUS
10
127.214
20
-136.444
11
127.119
21
-136.253
0
LINE
8
BLACK
6
CONTINUOUS
10
127.119
20
-136.253
11
126.928
21
-136.158
0
LINE
8
BLACK
6
CONTINUOUS
10
126.928
20
-136.158
11
126.643
21
-136.158
0
LINE
8
BLACK
6
CONTINUOUS
10
126.643
20
-136.158
11
126.452
21
-136.063
0
LINE
8
BLACK
6
CONTINUOUS
10
126.452
20
-136.063
11
126.357
21
-135.872
0
LINE
8
BLACK
6
CONTINUOUS
10
126.357
20
-135.872
11
126.357
21
-135.777
0
LINE
8
BLACK
6
CONTINUOUS
10
126.357
20
-135.777
11
126.452
21
-135.587
0
LINE
8
BLACK
6
CONTINUOUS
10
126.452
20
-135.587
11
126.643
21
-135.492
0
LINE
8
BLACK
6
CONTINUOUS
10
126.643
20
-135.492
11
126.928
21
-135.492
0
LINE
8
BLACK
6
CONTINUOUS
10
126.928
20
-135.492
11
127.119
21
-135.587
0
LINE
8
BLACK
6
CONTINUOUS
10
127.881
20
-137.587
11
127.976
21
-137.492
0
LINE
8
BLACK
6
CONTINUOUS
10
127.976
20
-137.492
11
128.166
21
-137.206
0
LINE
8
BLACK
6
CONTINUOUS
10
128.166
20
-137.206
11
128.262
21
-137.015
0
LINE
8
BLACK
6
CONTINUOUS
10
128.262
20
-137.015
11
128.357
21
-136.73
0
LINE
8
BLACK
6
CONTINUOUS
10
128.357
20
-136.73
11
128.452
21
-136.253
0
LINE
8
BLACK
6
CONTINUOUS
10
128.452
20
-136.253
11
128.452
21
-135.872
0
LINE
8
BLACK
6
CONTINUOUS
10
128.452
20
-135.872
11
128.357
21
-135.396
0
LINE
8
BLACK
6
CONTINUOUS
10
128.357
20
-135.396
11
128.262
21
-135.111
0
LINE
8
BLACK
6
CONTINUOUS
10
128.262
20
-135.111
11
128.166
21
-134.92
0
LINE
8
BLACK
6
CONTINUOUS
10
128.166
20
-134.92
11
127.976
21
-134.634
0
LINE
8
BLACK
6
CONTINUOUS
10
127.976
20
-134.634
11
127.881
21
-134.539
0
LINE
8
BLACK
6
CONTINUOUS
10
79.13
20
-137.55
11
79.13
21
-139.55
0
LINE
8
BLACK
6
CONTINUOUS
10
78.13
20
-138.55
11
80.13
21
-138.55
0
LINE
8
BLACK
6
CONTINUOUS
10
82.6425
20
-137.655
11
82.7378
21
-137.56
0
LINE
8
BLACK
6
CONTINUOUS
10
82.7378
20
-137.56
11
82.9282
21
-137.465
0
LINE
8
BLACK
6
CONTINUOUS
10
82.9282
20
-137.465
11
83.4044
21
-137.465
0
LINE
8
BLACK
6
CONTINUOUS
10
83.4044
20
-137.465
11
83.5949
21
-137.56
0
LINE
8
BLACK
6
CONTINUOUS
10
83.5949
20
-137.56
11
83.6901
21
-137.655
0
LINE
8
BLACK
6
CONTINUOUS
10
83.6901
20
-137.655
11
83.7854
21
-137.846
0
LINE
8
BLACK
6
CONTINUOUS
10
83.7854
20
-137.846
11
83.7854
21
-138.036
0
LINE
8
BLACK
6
CONTINUOUS
10
83.7854
20
-138.036
11
83.6901
21
-138.322
0
LINE
8
BLACK
6
CONTINUOUS
10
83.6901
20
-138.322
11
82.5473
21
-139.465
0
LINE
8
BLACK
6
CONTINUOUS
10
82.5473
20
-139.465
11
83.7854
21
-139.465
0
LINE
8
BLACK
6
CONTINUOUS
10
84.6425
20
-139.274
11
84.7378
21
-139.37
0
LINE
8
BLACK
6
CONTINUOUS
10
84.7378
20
-139.37
11
84.6425
21
-139.465
0
LINE
8
BLACK
6
CONTINUOUS
10
84.6425
20
-139.465
11
84.5473
21
-139.37
0
LINE
8
BLACK
6
CONTINUOUS
10
84.5473
20
-139.37
11
84.6425
21
-139.274
0
LINE
8
BLACK
6
CONTINUOUS
10
84.6425
20
-139.274
11
84.6425
21
-139.465
0
LINE
8
BLACK
6
CONTINUOUS
10
85.4997
20
-137.655
11
85.5949
21
-137.56
0
LINE
8
BLACK
6
CONTINUOUS
10
85.5949
20
-137.56
11
85.7854
21
-137.465
0
LINE
8
BLACK
6
CONTINUOUS
10
85.7854
20
-137.465
11
86.2616
21
-137.465
0
LINE
8
BLACK
6
CONTINUOUS
10
86.2616
20
-137.465
11
86.4521
21
-137.56
0
LINE
8
BLACK
6
CONTINUOUS
10
86.4521
20
-137.56
11
86.5473
21
-137.655
0
LINE
8
BLACK
6
CONTINUOUS
10
86.5473
20
-137.655
11
86.6425
21
-137.846
0
LINE
8
BLACK
6
CONTINUOUS
10
86.6425
20
-137.846
11
86.6425
21
-138.036
0
LINE
8
BLACK
6
CONTINUOUS
10
86.6425
20
-138.036
11
86.5473
21
-138.322
0
LINE
8
BLACK
6
CONTINUOUS
10
86.5473
20
-138.322
11
85.4044
21
-139.465
0
LINE
8
BLACK
6
CONTINUOUS
10
85.4044
20
-139.465
11
86.6425
21
-139.465
0
LINE
8
BLACK
6
CONTINUOUS
10
87.8806
20
-137.465
11
88.0711
21
-137.465
0
LINE
8
BLACK
6
CONTINUOUS
10
88.0711
20
-137.465
11
88.2616
21
-137.56
0
LINE
8
BLACK
6
CONTINUOUS
10
88.2616
20
-137.56
11
88.3568
21
-137.655
0
LINE
8
BLACK
6
CONTINUOUS
10
88.3568
20
-137.655
11
88.4521
21
-137.846
0
LINE
8
BLACK
6
CONTINUOUS
10
88.4521
20
-137.846
11
88.5473
21
-138.227
0
LINE
8
BLACK
6
CONTINUOUS
10
88.5473
20
-138.227
11
88.5473
21
-138.703
0
LINE
8
BLACK
6
CONTINUOUS
10
88.5473
20
-138.703
11
88.4521
21
-139.084
0
LINE
8
BLACK
6
CONTINUOUS
10
88.4521
20
-139.084
11
88.3568
21
-139.274
0
LINE
8
BLACK
6
CONTINUOUS
10
88.3568
20
-139.274
11
88.2616
21
-139.37
0
LINE
8
BLACK
6
CONTINUOUS
10
88.2616
20
-139.37
11
88.0711
21
-139.465
0
LINE
8
BLACK
6
CONTINUOUS
10
88.0711
20
-139.465
11
87.8806
21
-139.465
0
LINE
8
BLACK
6
CONTINUOUS
10
87.8806
20
-139.465
11
87.6901
21
-139.37
0
LINE
8
BLACK
6
CONTINUOUS
10
87.6901
20
-139.37
11
87.5949
21
-139.274
0
LINE
8
BLACK
6
CONTINUOUS
10
87.5949
20
-139.274
11
87.4997
21
-139.084
0
LINE
8
BLACK
6
CONTINUOUS
10
87.4997
20
-139.084
11
87.4044
21
-138.703
0
LINE
8
BLACK
6
CONTINUOUS
10
87.4044
20
-138.703
11
87.4044
21
-138.227
0
LINE
8
BLACK
6
CONTINUOUS
10
87.4044
20
-138.227
11
87.4997
21
-137.846
0
LINE
8
BLACK
6
CONTINUOUS
10
87.4997
20
-137.846
11
87.5949
21
-137.655
0
LINE
8
BLACK
6
CONTINUOUS
10
87.5949
20
-137.655
11
87.6901
21
-137.56
0
LINE
8
BLACK
6
CONTINUOUS
10
87.6901
20
-137.56
11
87.8806
21
-137.465
0
LINE
8
BLACK
6
CONTINUOUS
10
89.7854
20
-137.465
11
89.9759
21
-137.465
0
LINE
8
BLACK
6
CONTINUOUS
10
89.9759
20
-137.465
11
90.1663
21
-137.56
0
LINE
8
BLACK
6
CONTINUOUS
10
90.1663
20
-137.56
11
90.2616
21
-137.655
0
LINE
8
BLACK
6
CONTINUOUS
10
90.2616
20
-137.655
11
90.3568
21
-137.846
0
LINE
8
BLACK
6
CONTINUOUS
10
90.3568
20
-137.846
11
90.4521
21
-138.227
0
LINE
8
BLACK
6
CONTINUOUS
10
90.4521
20
-138.227
11
90.4521
21
-138.703
0
LINE
8
BLACK
6
CONTINUOUS
10
90.4521
20
-138.703
11
90.3568
21
-139.084
0
LINE
8
BLACK
6
CONTINUOUS
10
90.3568
20
-139.084
11
90.2616
21
-139.274
0
LINE
8
BLACK
6
CONTINUOUS
10
90.2616
20
-139.274
11
90.1663
21
-139.37
0
LINE
8
BLACK
6
CONTINUOUS
10
90.1663
20
-139.37
11
89.9759
21
-139.465
0
LINE
8
BLACK
6
CONTINUOUS
10
89.9759
20
-139.465
11
89.7854
21
-139.465
0
LINE
8
BLACK
6
CONTINUOUS
10
89.7854
20
-139.465
11
89.5949
21
-139.37
0
LINE
8
BLACK
6
CONTINUOUS
10
89.5949
20
-139.37
11
89.4997
21
-139.274
0
LINE
8
BLACK
6
CONTINUOUS
10
89.4997
20
-139.274
11
89.4044
21
-139.084
0
LINE
8
BLACK
6
CONTINUOUS
10
89.4044
20
-139.084
11
89.3092
21
-138.703
0
LINE
8
BLACK
6
CONTINUOUS
10
89.3092
20
-138.703
11
89.3092
21
-138.227
0
LINE
8
BLACK
6
CONTINUOUS
10
89.3092
20
-138.227
11
89.4044
21
-137.846
0
LINE
8
BLACK
6
CONTINUOUS
10
89.4044
20
-137.846
11
89.4997
21
-137.655
0
LINE
8
BLACK
6
CONTINUOUS
10
89.4997
20
-137.655
11
89.5949
21
-137.56
0
LINE
8
BLACK
6
CONTINUOUS
10
89.5949
20
-137.56
11
89.7854
21
-137.465
0
LINE
8
BLACK
6
CONTINUOUS
10
91.3092
20
-139.465
11
91.3092
21
-138.132
0
LINE
8
BLACK
6
CONTINUOUS
10
91.3092
20
-138.322
11
91.4044
21
-138.227
0
LINE
8
BLACK
6
CONTINUOUS
10
91.4044
20
-138.227
11
91.5949
21
-138.132
0
LINE
8
BLACK
6
CONTINUOUS
10
91.5949
20
-138.132
11
91.8806
21
-138.132
0
LINE
8
BLACK
6
CONTINUOUS
10
91.8806
20
-138.132
11
92.0711
21
-138.227
0
LINE
8
BLACK
6
CONTINUOUS
10
92.0711
20
-138.227
11
92.1663
21
-138.417
0
LINE
8
BLACK
6
CONTINUOUS
10
92.1663
20
-138.417
11
92.1663
21
-139.465
0
LINE
8
BLACK
6
CONTINUOUS
10
92.1663
20
-138.417
11
92.2616
21
-138.227
0
LINE
8
BLACK
6
CONTINUOUS
10
92.2616
20
-138.227
11
92.4521
21
-138.132
0
LINE
8
BLACK
6
CONTINUOUS
10
92.4521
20
-138.132
11
92.7378
21
-138.132
0
LINE
8
BLACK
6
CONTINUOUS
10
92.7378
20
-138.132
11
92.9282
21
-138.227
0
LINE
8
BLACK
6
CONTINUOUS
10
92.9282
20
-138.227
11
93.0235
21
-138.417
0
LINE
8
BLACK
6
CONTINUOUS
10
93.0235
20
-138.417
11
93.0235
21
-139.465
0
LINE
8
BLACK
6
CONTINUOUS
10
93.9759
20
-139.465
11
93.9759
21
-138.132
0
LINE
8
BLACK
6
CONTINUOUS
10
93.9759
20
-138.322
11
94.0711
21
-138.227
0
LINE
8
BLACK
6
CONTINUOUS
10
94.0711
20
-138.227
11
94.2616
21
-138.132
0
LINE
8
BLACK
6
CONTINUOUS
10
94.2616
20
-138.132
11
94.5473
21
-138.132
0
LINE
8
BLACK
6
CONTINUOUS
10
94.5473
20
-138.132
11
94.7378
21
-138.227
0
LINE
8
BLACK
6
CONTINUOUS
10
94.7378
20
-138.227
11
94.833
21
-138.417
0
LINE
8
BLACK
6
CONTINUOUS
10
94.833
20
-138.417
11
94.833
21
-139.465
0
LINE
8
BLACK
6
CONTINUOUS
10
94.833
20
-138.417
11
94.9282
21
-138.227
0
LINE
8
BLACK
6
CONTINUOUS
10
94.9282
20
-138.227
11
95.1187
21
-138.132
0
LINE
8
BLACK
6
CONTINUOUS
10
95.1187
20
-138.132
11
95.4044
21
-138.132
0
LINE
8
BLACK
6
CONTINUOUS
10
95.4044
20
-138.132
11
95.5949
21
-138.227
0
LINE
8
BLACK
6
CONTINUOUS
10
95.5949
20
-138.227
11
95.6902
21
-138.417
0
LINE
8
BLACK
6
CONTINUOUS
10
95.6902
20
-138.417
11
95.6902
21
-139.465
0
LINE
8
BLACK
6
CONTINUOUS
10
99.5949
20
-137.37
11
97.8806
21
-139.941
0
LINE
8
BLACK
6
CONTINUOUS
10
102.166
20
-137.465
11
102.357
21
-137.465
0
LINE
8
BLACK
6
CONTINUOUS
10
102.357
20
-137.465
11
102.547
21
-137.56
0
LINE
8
BLACK
6
CONTINUOUS
10
102.547
20
-137.56
11
102.643
21
-137.655
0
LINE
8
BLACK
6
CONTINUOUS
10
102.643
20
-137.655
11
102.738
21
-137.846
0
LINE
8
BLACK
6
CONTINUOUS
10
102.738
20
-137.846
11
102.833
21
-138.227
0
LINE
8
BLACK
6
CONTINUOUS
10
102.833
20
-138.227
11
102.833
21
-138.703
0
LINE
8
BLACK
6
CONTINUOUS
10
102.833
20
-138.703
11
102.738
21
-139.084
0
LINE
8
BLACK
6
CONTINUOUS
10
102.738
20
-139.084
11
102.643
21
-139.274
0
LINE
8
BLACK
6
CONTINUOUS
10
102.643
20
-139.274
11
102.547
21
-139.37
0
LINE
8
BLACK
6
CONTINUOUS
10
102.547
20
-139.37
11
102.357
21
-139.465
0
LINE
8
BLACK
6
CONTINUOUS
10
102.357
20
-139.465
11
102.166
21
-139.465
0
LINE
8
BLACK
6
CONTINUOUS
10
102.166
20
-139.465
11
101.976
21
-139.37
0
LINE
8
BLACK
6
CONTINUOUS
10
101.976
20
-139.37
11
101.881
21
-139.274
0
LINE
8
BLACK
6
CONTINUOUS
10
101.881
20
-139.274
11
101.785
21
-139.084
0
LINE
8
BLACK
6
CONTINUOUS
10
101.785
20
-139.084
11
101.69
21
-138.703
0
LINE
8
BLACK
6
CONTINUOUS
10
101.69
20
-138.703
11
101.69
21
-138.227
0
LINE
8
BLACK
6
CONTINUOUS
10
101.69
20
-138.227
11
101.785
21
-137.846
0
LINE
8
BLACK
6
CONTINUOUS
10
101.785
20
-137.846
11
101.881
21
-137.655
0
LINE
8
BLACK
6
CONTINUOUS
10
101.881
20
-137.655
11
101.976
21
-137.56
0
LINE
8
BLACK
6
CONTINUOUS
10
101.976
20
-137.56
11
102.166
21
-137.465
0
LINE
8
BLACK
6
CONTINUOUS
10
103.69
20
-139.274
11
103.785
21
-139.37
0
LINE
8
BLACK
6
CONTINUOUS
10
103.785
20
-139.37
11
103.69
21
-139.465
0
LINE
8
BLACK
6
CONTINUOUS
10
103.69
20
-139.465
11
103.595
21
-139.37
0
LINE
8
BLACK
6
CONTINUOUS
10
103.595
20
-139.37
11
103.69
21
-139.274
0
LINE
8
BLACK
6
CONTINUOUS
10
103.69
20
-139.274
11
103.69
21
-139.465
0
LINE
8
BLACK
6
CONTINUOUS
10
105.023
20
-137.465
11
105.214
21
-137.465
0
LINE
8
BLACK
6
CONTINUOUS
10
105.214
20
-137.465
11
105.404
21
-137.56
0
LINE
8
BLACK
6
CONTINUOUS
10
105.404
20
-137.56
11
105.5
21
-137.655
0
LINE
8
BLACK
6
CONTINUOUS
10
105.5
20
-137.655
11
105.595
21
-137.846
0
LINE
8
BLACK
6
CONTINUOUS
10
105.595
20
-137.846
11
105.69
21
-138.227
0
LINE
8
BLACK
6
CONTINUOUS
10
105.69
20
-138.227
11
105.69
21
-138.703
0
LINE
8
BLACK
6
CONTINUOUS
10
105.69
20
-138.703
11
105.595
21
-139.084
0
LINE
8
BLACK
6
CONTINUOUS
10
105.595
20
-139.084
11
105.5
21
-139.274
0
LINE
8
BLACK
6
CONTINUOUS
10
105.5
20
-139.274
11
105.404
21
-139.37
0
LINE
8
BLACK
6
CONTINUOUS
10
105.404
20
-139.37
11
105.214
21
-139.465
0
LINE
8
BLACK
6
CONTINUOUS
10
105.214
20
-139.465
11
105.023
21
-139.465
0
LINE
8
BLACK
6
CONTINUOUS
10
105.023
20
-139.465
11
104.833
21
-139.37
0
LINE
8
BLACK
6
CONTINUOUS
10
104.833
20
-139.37
11
104.738
21
-139.274
0
LINE
8
BLACK
6
CONTINUOUS
10
104.738
20
-139.274
11
104.643
21
-139.084
0
LINE
8
BLACK
6
CONTINUOUS
10
104.643
20
-139.084
11
104.547
21
-138.703
0
LINE
8
BLACK
6
CONTINUOUS
10
104.547
20
-138.703
11
104.547
21
-138.227
0
LINE
8
BLACK
6
CONTINUOUS
10
104.547
20
-138.227
11
104.643
21
-137.846
0
LINE
8
BLACK
6
CONTINUOUS
10
104.643
20
-137.846
11
104.738
21
-137.655
0
LINE
8
BLACK
6
CONTINUOUS
10
104.738
20
-137.655
11
104.833
21
-137.56
0
LINE
8
BLACK
6
CONTINUOUS
10
104.833
20
-137.56
11
105.023
21
-137.465
0
LINE
8
BLACK
6
CONTINUOUS
10
106.833
20
-138.322
11
106.643
21
-138.227
0
LINE
8
BLACK
6
CONTINUOUS
10
106.643
20
-138.227
11
106.547
21
-138.132
0
LINE
8
BLACK
6
CONTINUOUS
10
106.547
20
-138.132
11
106.452
21
-137.941
0
LINE
8
BLACK
6
CONTINUOUS
10
106.452
20
-137.941
11
106.452
21
-137.846
0
LINE
8
BLACK
6
CONTINUOUS
10
106.452
20
-137.846
11
106.547
21
-137.655
0
LINE
8
BLACK
6
CONTINUOUS
10
106.547
20
-137.655
11
106.643
21
-137.56
0
LINE
8
BLACK
6
CONTINUOUS
10
106.643
20
-137.56
11
106.833
21
-137.465
0
LINE
8
BLACK
6
CONTINUOUS
10
106.833
20
-137.465
11
107.214
21
-137.465
0
LINE
8
BLACK
6
CONTINUOUS
10
107.214
20
-137.465
11
107.404
21
-137.56
0
LINE
8
BLACK
6
CONTINUOUS
10
107.404
20
-137.56
11
107.5
21
-137.655
0
LINE
8
BLACK
6
CONTINUOUS
10
107.5
20
-137.655
11
107.595
21
-137.846
0
LINE
8
BLACK
6
CONTINUOUS
10
107.595
20
-137.846
11
107.595
21
-137.941
0
LINE
8
BLACK
6
CONTINUOUS
10
107.595
20
-137.941
11
107.5
21
-138.132
0
LINE
8
BLACK
6
CONTINUOUS
10
107.5
20
-138.132
11
107.404
21
-138.227
0
LINE
8
BLACK
6
CONTINUOUS
10
107.404
20
-138.227
11
107.214
21
-138.322
0
LINE
8
BLACK
6
CONTINUOUS
10
107.214
20
-138.322
11
106.833
21
-138.322
0
LINE
8
BLACK
6
CONTINUOUS
10
106.833
20
-138.322
11
106.643
21
-138.417
0
LINE
8
BLACK
6
CONTINUOUS
10
106.643
20
-138.417
11
106.547
21
-138.512
0
LINE
8
BLACK
6
CONTINUOUS
10
106.547
20
-138.512
11
106.452
21
-138.703
0
LINE
8
BLACK
6
CONTINUOUS
10
106.452
20
-138.703
11
106.452
21
-139.084
0
LINE
8
BLACK
6
CONTINUOUS
10
106.452
20
-139.084
11
106.547
21
-139.274
0
LINE
8
BLACK
6
CONTINUOUS
10
106.547
20
-139.274
11
106.643
21
-139.37
0
LINE
8
BLACK
6
CONTINUOUS
10
106.643
20
-139.37
11
106.833
21
-139.465
0
LINE
8
BLACK
6
CONTINUOUS
10
106.833
20
-139.465
11
107.214
21
-139.465
0
LINE
8
BLACK
6
CONTINUOUS
10
107.214
20
-139.465
11
107.404
21
-139.37
0
LINE
8
BLACK
6
CONTINUOUS
10
107.404
20
-139.37
11
107.5
21
-139.274
0
LINE
8
BLACK
6
CONTINUOUS
10
107.5
20
-139.274
11
107.595
21
-139.084
0
LINE
8
BLACK
6
CONTINUOUS
10
107.595
20
-139.084
11
107.595
21
-138.703
0
LINE
8
BLACK
6
CONTINUOUS
10
107.595
20
-138.703
11
107.5
21
-138.512
0
LINE
8
BLACK
6
CONTINUOUS
10
107.5
20
-138.512
11
107.404
21
-138.417
0
LINE
8
BLACK
6
CONTINUOUS
10
107.404
20
-138.417
11
107.214
21
-138.322
0
LINE
8
BLACK
6
CONTINUOUS
10
109.309
20
-137.465
11
108.928
21
-137.465
0
LINE
8
BLACK
6
CONTINUOUS
10
108.928
20
-137.465
11
108.738
21
-137.56
0
LINE
8
BLACK
6
CONTINUOUS
10
108.738
20
-137.56
11
108.643
21
-137.655
0
LINE
8
BLACK
6
CONTINUOUS
10
108.643
20
-137.655
11
108.452
21
-137.941
0
LINE
8
BLACK
6
CONTINUOUS
10
108.452
20
-137.941
11
108.357
21
-138.322
0
LINE
8
BLACK
6
CONTINUOUS
10
108.357
20
-138.322
11
108.357
21
-139.084
0
LINE
8
BLACK
6
CONTINUOUS
10
108.357
20
-139.084
11
108.452
21
-139.274
0
LINE
8
BLACK
6
CONTINUOUS
10
108.452
20
-139.274
11
108.547
21
-139.37
0
LINE
8
BLACK
6
CONTINUOUS
10
108.547
20
-139.37
11
108.738
21
-139.465
0
LINE
8
BLACK
6
CONTINUOUS
10
108.738
20
-139.465
11
109.119
21
-139.465
0
LINE
8
BLACK
6
CONTINUOUS
10
109.119
20
-139.465
11
109.309
21
-139.37
0
LINE
8
BLACK
6
CONTINUOUS
10
109.309
20
-139.37
11
109.404
21
-139.274
0
LINE
8
BLACK
6
CONTINUOUS
10
109.404
20
-139.274
11
109.5
21
-139.084
0
LINE
8
BLACK
6
CONTINUOUS
10
109.5
20
-139.084
11
109.5
21
-138.608
0
LINE
8
BLACK
6
CONTINUOUS
10
109.5
20
-138.608
11
109.404
21
-138.417
0
LINE
8
BLACK
6
CONTINUOUS
10
109.404
20
-138.417
11
109.309
21
-138.322
0
LINE
8
BLACK
6
CONTINUOUS
10
109.309
20
-138.322
11
109.119
21
-138.227
0
LINE
8
BLACK
6
CONTINUOUS
10
109.119
20
-138.227
11
108.738
21
-138.227
0
LINE
8
BLACK
6
CONTINUOUS
10
108.738
20
-138.227
11
108.547
21
-138.322
0
LINE
8
BLACK
6
CONTINUOUS
10
108.547
20
-138.322
11
108.452
21
-138.417
0
LINE
8
BLACK
6
CONTINUOUS
10
108.452
20
-138.417
11
108.357
21
-138.608
0
LINE
8
BLACK
6
CONTINUOUS
10
111.214
20
-137.465
11
110.833
21
-137.465
0
LINE
8
BLACK
6
CONTINUOUS
10
110.833
20
-137.465
11
110.643
21
-137.56
0
LINE
8
BLACK
6
CONTINUOUS
10
110.643
20
-137.56
11
110.547
21
-137.655
0
LINE
8
BLACK
6
CONTINUOUS
10
110.547
20
-137.655
11
110.357
21
-137.941
0
LINE
8
BLACK
6
CONTINUOUS
10
110.357
20
-137.941
11
110.262
21
-138.322
0
LINE
8
BLACK
6
CONTINUOUS
10
110.262
20
-138.322
11
110.262
21
-139.084
0
LINE
8
BLACK
6
CONTINUOUS
10
110.262
20
-139.084
11
110.357
21
-139.274
0
LINE
8
BLACK
6
CONTINUOUS
10
110.357
20
-139.274
11
110.452
21
-139.37
0
LINE
8
BLACK
6
CONTINUOUS
10
110.452
20
-139.37
11
110.643
21
-139.465
0
LINE
8
BLACK
6
CONTINUOUS
10
110.643
20
-139.465
11
111.023
21
-139.465
0
LINE
8
BLACK
6
CONTINUOUS
10
111.023
20
-139.465
11
111.214
21
-139.37
0
LINE
8
BLACK
6
CONTINUOUS
10
111.214
20
-139.37
11
111.309
21
-139.274
0
LINE
8
BLACK
6
CONTINUOUS
10
111.309
20
-139.274
11
111.404
21
-139.084
0
LINE
8
BLACK
6
CONTINUOUS
10
111.404
20
-139.084
11
111.404
21
-138.608
0
LINE
8
BLACK
6
CONTINUOUS
10
111.404
20
-138.608
11
111.309
21
-138.417
0
LINE
8
BLACK
6
CONTINUOUS
10
111.309
20
-138.417
11
111.214
21
-138.322
0
LINE
8
BLACK
6
CONTINUOUS
10
111.214
20
-138.322
11
111.023
21
-138.227
0
LINE
8
BLACK
6
CONTINUOUS
10
111.023
20
-138.227
11
110.643
21
-138.227
0
LINE
8
BLACK
6
CONTINUOUS
10
110.643
20
-138.227
11
110.452
21
-138.322
0
LINE
8
BLACK
6
CONTINUOUS
10
110.452
20
-138.322
11
110.357
21
-138.417
0
LINE
8
BLACK
6
CONTINUOUS
10
110.357
20
-138.417
11
110.262
21
-138.608
0
LINE
8
BLACK
6
CONTINUOUS
10
112.166
20
-137.465
11
112.166
21
-137.846
0
LINE
8
BLACK
6
CONTINUOUS
10
112.928
20
-137.465
11
112.928
21
-137.846
0
LINE
8
BLACK
6
CONTINUOUS
10
115.881
20
-140.227
11
115.785
21
-140.132
0
LINE
8
BLACK
6
CONTINUOUS
10
115.785
20
-140.132
11
115.595
21
-139.846
0
LINE
8
BLACK
6
CONTINUOUS
10
115.595
20
-139.846
11
115.5
21
-139.655
0
LINE
8
BLACK
6
CONTINUOUS
10
115.5
20
-139.655
11
115.404
21
-139.37
0
LINE
8
BLACK
6
CONTINUOUS
10
115.404
20
-139.37
11
115.309
21
-138.893
0
LINE
8
BLACK
6
CONTINUOUS
10
115.309
20
-138.893
11
115.309
21
-138.512
0
LINE
8
BLACK
6
CONTINUOUS
10
115.309
20
-138.512
11
115.404
21
-138.036
0
LINE
8
BLACK
6
CONTINUOUS
10
115.404
20
-138.036
11
115.5
21
-137.751
0
LINE
8
BLACK
6
CONTINUOUS
10
115.5
20
-137.751
11
115.595
21
-137.56
0
LINE
8
BLACK
6
CONTINUOUS
10
115.595
20
-137.56
11
115.785
21
-137.274
0
LINE
8
BLACK
6
CONTINUOUS
10
115.785
20
-137.274
11
115.881
21
-137.179
0
LINE
8
BLACK
6
CONTINUOUS
10
117.5
20
-138.132
11
117.5
21
-139.465
0
LINE
8
BLACK
6
CONTINUOUS
10
117.023
20
-137.37
11
116.547
21
-138.798
0
LINE
8
BLACK
6
CONTINUOUS
10
116.547
20
-138.798
11
117.785
21
-138.798
0
LINE
8
BLACK
6
CONTINUOUS
10
120.071
20
-139.465
11
120.071
21
-137.465
0
LINE
8
BLACK
6
CONTINUOUS
10
120.928
20
-139.465
11
120.928
21
-138.417
0
LINE
8
BLACK
6
CONTINUOUS
10
120.928
20
-138.417
11
120.833
21
-138.227
0
LINE
8
BLACK
6
CONTINUOUS
10
120.833
20
-138.227
11
120.643
21
-138.132
0
LINE
8
BLACK
6
CONTINUOUS
10
120.643
20
-138.132
11
120.357
21
-138.132
0
LINE
8
BLACK
6
CONTINUOUS
10
120.357
20
-138.132
11
120.166
21
-138.227
0
LINE
8
BLACK
6
CONTINUOUS
10
120.166
20
-138.227
11
120.071
21
-138.322
0
LINE
8
BLACK
6
CONTINUOUS
10
122.166
20
-139.465
11
121.976
21
-139.37
0
LINE
8
BLACK
6
CONTINUOUS
10
121.976
20
-139.37
11
121.881
21
-139.274
0
LINE
8
BLACK
6
CONTINUOUS
10
121.881
20
-139.274
11
121.785
21
-139.084
0
LINE
8
BLACK
6
CONTINUOUS
10
121.785
20
-139.084
11
121.785
21
-138.512
0
LINE
8
BLACK
6
CONTINUOUS
10
121.785
20
-138.512
11
121.881
21
-138.322
0
LINE
8
BLACK
6
CONTINUOUS
10
121.881
20
-138.322
11
121.976
21
-138.227
0
LINE
8
BLACK
6
CONTINUOUS
10
121.976
20
-138.227
11
122.166
21
-138.132
0
LINE
8
BLACK
6
CONTINUOUS
10
122.166
20
-138.132
11
122.452
21
-138.132
0
LINE
8
BLACK
6
CONTINUOUS
10
122.452
20
-138.132
11
122.643
21
-138.227
0
LINE
8
BLACK
6
CONTINUOUS
10
122.643
20
-138.227
11
122.738
21
-138.322
0
LINE
8
BLACK
6
CONTINUOUS
10
122.738
20
-138.322
11
122.833
21
-138.512
0
LINE
8
BLACK
6
CONTINUOUS
10
122.833
20
-138.512
11
122.833
21
-139.084
0
LINE
8
BLACK
6
CONTINUOUS
10
122.833
20
-139.084
11
122.738
21
-139.274
0
LINE
8
BLACK
6
CONTINUOUS
10
122.738
20
-139.274
11
122.643
21
-139.37
0
LINE
8
BLACK
6
CONTINUOUS
10
122.643
20
-139.37
11
122.452
21
-139.465
0
LINE
8
BLACK
6
CONTINUOUS
10
122.452
20
-139.465
11
122.166
21
-139.465
0
LINE
8
BLACK
6
CONTINUOUS
10
123.976
20
-139.465
11
123.785
21
-139.37
0
LINE
8
BLACK
6
CONTINUOUS
10
123.785
20
-139.37
11
123.69
21
-139.179
0
LINE
8
BLACK
6
CONTINUOUS
10
123.69
20
-139.179
11
123.69
21
-137.465
0
LINE
8
BLACK
6
CONTINUOUS
10
125.5
20
-139.37
11
125.309
21
-139.465
0
LINE
8
BLACK
6
CONTINUOUS
10
125.309
20
-139.465
11
124.928
21
-139.465
0
LINE
8
BLACK
6
CONTINUOUS
10
124.928
20
-139.465
11
124.738
21
-139.37
0
LINE
8
BLACK
6
CONTINUOUS
10
124.738
20
-139.37
11
124.643
21
-139.179
0
LINE
8
BLACK
6
CONTINUOUS
10
124.643
20
-139.179
11
124.643
21
-138.417
0
LINE
8
BLACK
6
CONTINUOUS
10
124.643
20
-138.417
11
124.738
21
-138.227
0
LINE
8
BLACK
6
CONTINUOUS
10
124.738
20
-138.227
11
124.928
21
-138.132
0
LINE
8
BLACK
6
CONTINUOUS
10
124.928
20
-138.132
11
125.309
21
-138.132
0
LINE
8
BLACK
6
CONTINUOUS
10
125.309
20
-138.132
11
125.5
21
-138.227
0
LINE
8
BLACK
6
CONTINUOUS
10
125.5
20
-138.227
11
125.595
21
-138.417
0
LINE
8
BLACK
6
CONTINUOUS
10
125.595
20
-138.417
11
125.595
21
-138.608
0
LINE
8
BLACK
6
CONTINUOUS
10
125.595
20
-138.608
11
124.643
21
-138.798
0
LINE
8
BLACK
6
CONTINUOUS
10
126.357
20
-139.37
11
126.547
21
-139.465
0
LINE
8
BLACK
6
CONTINUOUS
10
126.547
20
-139.465
11
126.928
21
-139.465
0
LINE
8
BLACK
6
CONTINUOUS
10
126.928
20
-139.465
11
127.119
21
-139.37
0
LINE
8
BLACK
6
CONTINUOUS
10
127.119
20
-139.37
11
127.214
21
-139.179
0
LINE
8
BLACK
6
CONTINUOUS
10
127.214
20
-139.179
11
127.214
21
-139.084
0
LINE
8
BLACK
6
CONTINUOUS
10
127.214
20
-139.084
11
127.119
21
-138.893
0
LINE
8
BLACK
6
CONTINUOUS
10
127.119
20
-138.893
11
126.928
21
-138.798
0
LINE
8
BLACK
6
CONTINUOUS
10
126.928
20
-138.798
11
126.643
21
-138.798
0
LINE
8
BLACK
6
CONTINUOUS
10
126.643
20
-138.798
11
126.452
21
-138.703
0
LINE
8
BLACK
6
CONTINUOUS
10
126.452
20
-138.703
11
126.357
21
-138.512
0
LINE
8
BLACK
6
CONTINUOUS
10
126.357
20
-138.512
11
126.357
21
-138.417
0
LINE
8
BLACK
6
CONTINUOUS
10
126.357
20
-138.417
11
126.452
21
-138.227
0
LINE
8
BLACK
6
CONTINUOUS
10
126.452
20
-138.227
11
126.643
21
-138.132
0
LINE
8
BLACK
6
CONTINUOUS
10
126.643
20
-138.132
11
126.928
21
-138.132
0
LINE
8
BLACK
6
CONTINUOUS
10
126.928
20
-138.132
11
127.119
21
-138.227
0
LINE
8
BLACK
6
CONTINUOUS
10
127.881
20
-140.227
11
127.976
21
-140.132
0
LINE
8
BLACK
6
CONTINUOUS
10
127.976
20
-140.132
11
128.166
21
-139.846
0
LINE
8
BLACK
6
CONTINUOUS
10
128.166
20
-139.846
11
128.262
21
-139.655
0
LINE
8
BLACK
6
CONTINUOUS
10
128.262
20
-139.655
11
128.357
21
-139.37
0
LINE
8
BLACK
6
CONTINUOUS
10
128.357
20
-139.37
11
128.452
21
-138.893
0
LINE
8
BLACK
6
CONTINUOUS
10
128.452
20
-138.893
11
128.452
21
-138.512
0
LINE
8
BLACK
6
CONTINUOUS
10
128.452
20
-138.512
11
128.357
21
-138.036
0
LINE
8
BLACK
6
CONTINUOUS
10
128.357
20
-138.036
11
128.262
21
-137.751
0
LINE
8
BLACK
6
CONTINUOUS
10
128.262
20
-137.751
11
128.166
21
-137.56
0
LINE
8
BLACK
6
CONTINUOUS
10
128.166
20
-137.56
11
127.976
21
-137.274
0
LINE
8
BLACK
6
CONTINUOUS
10
127.976
20
-137.274
11
127.881
21
-137.179
  0
ENDSEC
  0
EOF
