%TF.GenerationSoftware,KiCad,Pcbnew,9.0.1*%
%TF.CreationDate,2025-04-07T22:57:10-07:00*%
%TF.ProjectId,Piramide_Del_Sol,50697261-6d69-4646-955f-44656c5f536f,3.2*%
%TF.SameCoordinates,Original*%
%TF.FileFunction,Other,User*%
%FSLAX46Y46*%
G04 Gerber Fmt 4.6, Leading zero omitted, Abs format (unit mm)*
G04 Created by KiCad (PCBNEW 9.0.1) date 2025-04-07 22:57:10*
%MOMM*%
%LPD*%
G01*
G04 APERTURE LIST*
%ADD10C,0.100000*%
%ADD11C,0.150000*%
G04 APERTURE END LIST*
D10*
X133000000Y-106000000D02*
G75*
G02*
X130000000Y-103000000I-3000000J0D01*
G01*
X146000000Y-103000000D02*
G75*
G02*
X143000000Y-106000000I0J-3000000D01*
G01*
X130000000Y-93000000D02*
G75*
G02*
X133000000Y-90000000I0J3000000D01*
G01*
X130000000Y-93000000D02*
X130000000Y-103000000D01*
X133000000Y-106000000D02*
X143000000Y-106000000D01*
X146000000Y-93000000D02*
X146000000Y-103000000D01*
X133000000Y-90000000D02*
X143000000Y-90000000D01*
X143000000Y-90000000D02*
G75*
G02*
X146000000Y-93000000I3000000J0D01*
G01*
D11*
X124879160Y-85480200D02*
X125022017Y-85527819D01*
X125022017Y-85527819D02*
X125260112Y-85527819D01*
X125260112Y-85527819D02*
X125355350Y-85480200D01*
X125355350Y-85480200D02*
X125402969Y-85432580D01*
X125402969Y-85432580D02*
X125450588Y-85337342D01*
X125450588Y-85337342D02*
X125450588Y-85242104D01*
X125450588Y-85242104D02*
X125402969Y-85146866D01*
X125402969Y-85146866D02*
X125355350Y-85099247D01*
X125355350Y-85099247D02*
X125260112Y-85051628D01*
X125260112Y-85051628D02*
X125069636Y-85004009D01*
X125069636Y-85004009D02*
X124974398Y-84956390D01*
X124974398Y-84956390D02*
X124926779Y-84908771D01*
X124926779Y-84908771D02*
X124879160Y-84813533D01*
X124879160Y-84813533D02*
X124879160Y-84718295D01*
X124879160Y-84718295D02*
X124926779Y-84623057D01*
X124926779Y-84623057D02*
X124974398Y-84575438D01*
X124974398Y-84575438D02*
X125069636Y-84527819D01*
X125069636Y-84527819D02*
X125307731Y-84527819D01*
X125307731Y-84527819D02*
X125450588Y-84575438D01*
X125736303Y-84861152D02*
X126117255Y-84861152D01*
X125879160Y-84527819D02*
X125879160Y-85384961D01*
X125879160Y-85384961D02*
X125926779Y-85480200D01*
X125926779Y-85480200D02*
X126022017Y-85527819D01*
X126022017Y-85527819D02*
X126117255Y-85527819D01*
X126450589Y-85527819D02*
X126450589Y-84861152D01*
X126450589Y-84527819D02*
X126402970Y-84575438D01*
X126402970Y-84575438D02*
X126450589Y-84623057D01*
X126450589Y-84623057D02*
X126498208Y-84575438D01*
X126498208Y-84575438D02*
X126450589Y-84527819D01*
X126450589Y-84527819D02*
X126450589Y-84623057D01*
X126783922Y-84861152D02*
X127164874Y-84861152D01*
X126926779Y-85527819D02*
X126926779Y-84670676D01*
X126926779Y-84670676D02*
X126974398Y-84575438D01*
X126974398Y-84575438D02*
X127069636Y-84527819D01*
X127069636Y-84527819D02*
X127164874Y-84527819D01*
X127355351Y-84861152D02*
X127736303Y-84861152D01*
X127498208Y-85527819D02*
X127498208Y-84670676D01*
X127498208Y-84670676D02*
X127545827Y-84575438D01*
X127545827Y-84575438D02*
X127641065Y-84527819D01*
X127641065Y-84527819D02*
X127736303Y-84527819D01*
X128450589Y-85480200D02*
X128355351Y-85527819D01*
X128355351Y-85527819D02*
X128164875Y-85527819D01*
X128164875Y-85527819D02*
X128069637Y-85480200D01*
X128069637Y-85480200D02*
X128022018Y-85384961D01*
X128022018Y-85384961D02*
X128022018Y-85004009D01*
X128022018Y-85004009D02*
X128069637Y-84908771D01*
X128069637Y-84908771D02*
X128164875Y-84861152D01*
X128164875Y-84861152D02*
X128355351Y-84861152D01*
X128355351Y-84861152D02*
X128450589Y-84908771D01*
X128450589Y-84908771D02*
X128498208Y-85004009D01*
X128498208Y-85004009D02*
X128498208Y-85099247D01*
X128498208Y-85099247D02*
X128022018Y-85194485D01*
X128926780Y-84861152D02*
X128926780Y-85527819D01*
X128926780Y-84956390D02*
X128974399Y-84908771D01*
X128974399Y-84908771D02*
X129069637Y-84861152D01*
X129069637Y-84861152D02*
X129212494Y-84861152D01*
X129212494Y-84861152D02*
X129307732Y-84908771D01*
X129307732Y-84908771D02*
X129355351Y-85004009D01*
X129355351Y-85004009D02*
X129355351Y-85527819D01*
X130212494Y-85480200D02*
X130117256Y-85527819D01*
X130117256Y-85527819D02*
X129926780Y-85527819D01*
X129926780Y-85527819D02*
X129831542Y-85480200D01*
X129831542Y-85480200D02*
X129783923Y-85384961D01*
X129783923Y-85384961D02*
X129783923Y-85004009D01*
X129783923Y-85004009D02*
X129831542Y-84908771D01*
X129831542Y-84908771D02*
X129926780Y-84861152D01*
X129926780Y-84861152D02*
X130117256Y-84861152D01*
X130117256Y-84861152D02*
X130212494Y-84908771D01*
X130212494Y-84908771D02*
X130260113Y-85004009D01*
X130260113Y-85004009D02*
X130260113Y-85099247D01*
X130260113Y-85099247D02*
X129783923Y-85194485D01*
X130688685Y-85527819D02*
X130688685Y-84861152D01*
X130688685Y-85051628D02*
X130736304Y-84956390D01*
X130736304Y-84956390D02*
X130783923Y-84908771D01*
X130783923Y-84908771D02*
X130879161Y-84861152D01*
X130879161Y-84861152D02*
X130974399Y-84861152D01*
M02*
