%TF.GenerationSoftware,KiCad,Pcbnew,8.0.5*%
%TF.CreationDate,2024-11-25T18:16:59-08:00*%
%TF.ProjectId,mainboard,6d61696e-626f-4617-9264-2e6b69636164,06c*%
%TF.SameCoordinates,Original*%
%TF.FileFunction,Soldermask,Bot*%
%TF.FilePolarity,Negative*%
%FSLAX46Y46*%
G04 Gerber Fmt 4.6, Leading zero omitted, Abs format (unit mm)*
G04 Created by KiCad (PCBNEW 8.0.5) date 2024-11-25 18:16:59*
%MOMM*%
%LPD*%
G01*
G04 APERTURE LIST*
G04 Aperture macros list*
%AMRoundRect*
0 Rectangle with rounded corners*
0 $1 Rounding radius*
0 $2 $3 $4 $5 $6 $7 $8 $9 X,Y pos of 4 corners*
0 Add a 4 corners polygon primitive as box body*
4,1,4,$2,$3,$4,$5,$6,$7,$8,$9,$2,$3,0*
0 Add four circle primitives for the rounded corners*
1,1,$1+$1,$2,$3*
1,1,$1+$1,$4,$5*
1,1,$1+$1,$6,$7*
1,1,$1+$1,$8,$9*
0 Add four rect primitives between the rounded corners*
20,1,$1+$1,$2,$3,$4,$5,0*
20,1,$1+$1,$4,$5,$6,$7,0*
20,1,$1+$1,$6,$7,$8,$9,0*
20,1,$1+$1,$8,$9,$2,$3,0*%
%AMFreePoly0*
4,1,35,1.110921,2.785921,1.125800,2.750000,1.125800,-2.750000,1.110921,-2.785921,1.075000,-2.800800,-0.537500,-2.800800,-0.543557,-2.800438,-0.670818,-2.785155,-0.683397,-2.781975,-0.819570,-2.728276,-0.831629,-2.721496,-0.948265,-2.633048,-0.958048,-2.623265,-1.046496,-2.506629,-1.053276,-2.494570,-1.106975,-2.358397,-1.110155,-2.345818,-1.125438,-2.218557,-1.125800,-2.212500,-1.125800,2.212500,
-1.125438,2.218557,-1.110155,2.345818,-1.106975,2.358397,-1.053276,2.494570,-1.046496,2.506629,-0.958048,2.623265,-0.948265,2.633048,-0.831629,2.721496,-0.819570,2.728276,-0.683397,2.781975,-0.670818,2.785155,-0.543557,2.800438,-0.537500,2.800800,1.075000,2.800800,1.110921,2.785921,1.110921,2.785921,$1*%
%AMFreePoly1*
4,1,35,0.543557,2.800438,0.670818,2.785155,0.683397,2.781975,0.819570,2.728276,0.831629,2.721496,0.948265,2.633048,0.958048,2.623265,1.046496,2.506629,1.053276,2.494570,1.106975,2.358397,1.110155,2.345818,1.125438,2.218557,1.125800,2.212500,1.125800,-2.212500,1.125438,-2.218557,1.110155,-2.345818,1.106975,-2.358397,1.053276,-2.494570,1.046496,-2.506629,0.958048,-2.623265,
0.948265,-2.633048,0.831629,-2.721496,0.819570,-2.728276,0.683397,-2.781975,0.670818,-2.785155,0.543557,-2.800438,0.537500,-2.800800,-1.075000,-2.800800,-1.110921,-2.785921,-1.125800,-2.750000,-1.125800,2.750000,-1.110921,2.785921,-1.075000,2.800800,0.537500,2.800800,0.543557,2.800438,0.543557,2.800438,$1*%
G04 Aperture macros list end*
%ADD10C,0.190500*%
%ADD11C,5.701600*%
%ADD12C,2.133600*%
%ADD13C,2.151600*%
%ADD14C,2.351600*%
%ADD15RoundRect,0.063500X-1.016000X1.016000X-1.016000X-1.016000X1.016000X-1.016000X1.016000X1.016000X0*%
%ADD16C,2.159000*%
%ADD17C,0.701600*%
%ADD18O,1.101600X2.201600*%
%ADD19O,1.101600X1.701600*%
%ADD20RoundRect,0.050800X0.575000X0.575000X-0.575000X0.575000X-0.575000X-0.575000X0.575000X-0.575000X0*%
%ADD21C,1.251600*%
%ADD22RoundRect,0.050800X0.575000X-0.575000X0.575000X0.575000X-0.575000X0.575000X-0.575000X-0.575000X0*%
%ADD23RoundRect,0.050800X0.654000X-0.654000X0.654000X0.654000X-0.654000X0.654000X-0.654000X-0.654000X0*%
%ADD24C,1.409600*%
%ADD25RoundRect,0.076200X-0.575000X-0.575000X0.575000X-0.575000X0.575000X0.575000X-0.575000X0.575000X0*%
%ADD26C,1.302400*%
%ADD27RoundRect,0.050800X-0.654000X0.654000X-0.654000X-0.654000X0.654000X-0.654000X0.654000X0.654000X0*%
%ADD28RoundRect,0.063500X-0.400000X-0.620000X0.400000X-0.620000X0.400000X0.620000X-0.400000X0.620000X0*%
%ADD29RoundRect,0.063500X-0.580000X-0.600000X0.580000X-0.600000X0.580000X0.600000X-0.580000X0.600000X0*%
%ADD30RoundRect,0.063500X-0.475000X-1.250000X0.475000X-1.250000X0.475000X1.250000X-0.475000X1.250000X0*%
%ADD31RoundRect,0.063500X-0.575000X-1.100000X0.575000X-1.100000X0.575000X1.100000X-0.575000X1.100000X0*%
%ADD32RoundRect,0.063500X-0.750000X-0.575000X0.750000X-0.575000X0.750000X0.575000X-0.750000X0.575000X0*%
%ADD33RoundRect,0.063500X-0.580000X-0.625000X0.580000X-0.625000X0.580000X0.625000X-0.580000X0.625000X0*%
%ADD34C,2.000000*%
%ADD35RoundRect,0.225400X-0.225400X-0.300400X0.225400X-0.300400X0.225400X0.300400X-0.225400X0.300400X0*%
%ADD36RoundRect,0.050800X0.150000X0.400000X-0.150000X0.400000X-0.150000X-0.400000X0.150000X-0.400000X0*%
%ADD37RoundRect,0.050800X-0.400000X0.150000X-0.400000X-0.150000X0.400000X-0.150000X0.400000X0.150000X0*%
%ADD38RoundRect,0.050800X-1.400000X1.400000X-1.400000X-1.400000X1.400000X-1.400000X1.400000X1.400000X0*%
%ADD39RoundRect,0.225400X0.225400X0.300400X-0.225400X0.300400X-0.225400X-0.300400X0.225400X-0.300400X0*%
%ADD40RoundRect,0.250400X0.275400X-0.250400X0.275400X0.250400X-0.275400X0.250400X-0.275400X-0.250400X0*%
%ADD41RoundRect,0.200155X-0.850645X0.250645X-0.850645X-0.250645X0.850645X-0.250645X0.850645X0.250645X0*%
%ADD42RoundRect,0.063500X-0.450000X-0.700000X0.450000X-0.700000X0.450000X0.700000X-0.450000X0.700000X0*%
%ADD43RoundRect,0.063500X-1.100000X-0.700000X1.100000X-0.700000X1.100000X0.700000X-1.100000X0.700000X0*%
%ADD44RoundRect,0.050800X-0.850000X0.850000X-0.850000X-0.850000X0.850000X-0.850000X0.850000X0.850000X0*%
%ADD45O,1.801600X1.801600*%
%ADD46RoundRect,0.225400X0.300400X-0.225400X0.300400X0.225400X-0.300400X0.225400X-0.300400X-0.225400X0*%
%ADD47RoundRect,0.050800X-0.750000X0.500000X-0.750000X-0.500000X0.750000X-0.500000X0.750000X0.500000X0*%
%ADD48RoundRect,0.250400X-0.250400X-0.275400X0.250400X-0.275400X0.250400X0.275400X-0.250400X0.275400X0*%
%ADD49RoundRect,0.225400X-0.300400X0.225400X-0.300400X-0.225400X0.300400X-0.225400X0.300400X0.225400X0*%
%ADD50RoundRect,0.250400X0.250400X0.275400X-0.250400X0.275400X-0.250400X-0.275400X0.250400X-0.275400X0*%
%ADD51FreePoly0,270.000000*%
%ADD52FreePoly1,270.000000*%
%ADD53RoundRect,0.050800X1.175000X-0.850000X1.175000X0.850000X-1.175000X0.850000X-1.175000X-0.850000X0*%
%ADD54RoundRect,0.050800X-0.304800X-1.104900X0.304800X-1.104900X0.304800X1.104900X-0.304800X1.104900X0*%
%ADD55RoundRect,0.270735X-1.455065X0.392565X-1.455065X-0.392565X1.455065X-0.392565X1.455065X0.392565X0*%
%ADD56RoundRect,0.125400X-0.662900X-0.125400X0.662900X-0.125400X0.662900X0.125400X-0.662900X0.125400X0*%
%ADD57RoundRect,0.063500X-0.525000X-0.225000X0.525000X-0.225000X0.525000X0.225000X-0.525000X0.225000X0*%
%ADD58RoundRect,0.063500X-1.050000X1.050000X-1.050000X-1.050000X1.050000X-1.050000X1.050000X1.050000X0*%
%ADD59RoundRect,0.050800X0.500000X0.750000X-0.500000X0.750000X-0.500000X-0.750000X0.500000X-0.750000X0*%
%ADD60RoundRect,0.250400X-0.275400X0.250400X-0.275400X-0.250400X0.275400X-0.250400X0.275400X0.250400X0*%
%ADD61RoundRect,0.250400X-0.400400X0.250400X-0.400400X-0.250400X0.400400X-0.250400X0.400400X0.250400X0*%
G04 APERTURE END LIST*
D10*
X138657390Y-59349285D02*
X139419390Y-59349285D01*
X139056533Y-59349285D02*
X139056533Y-58913856D01*
X138657390Y-58913856D02*
X139419390Y-58913856D01*
X139419390Y-58405856D02*
X139419390Y-58260713D01*
X139419390Y-58260713D02*
X139383104Y-58188142D01*
X139383104Y-58188142D02*
X139310533Y-58115570D01*
X139310533Y-58115570D02*
X139165390Y-58079285D01*
X139165390Y-58079285D02*
X138911390Y-58079285D01*
X138911390Y-58079285D02*
X138766247Y-58115570D01*
X138766247Y-58115570D02*
X138693676Y-58188142D01*
X138693676Y-58188142D02*
X138657390Y-58260713D01*
X138657390Y-58260713D02*
X138657390Y-58405856D01*
X138657390Y-58405856D02*
X138693676Y-58478428D01*
X138693676Y-58478428D02*
X138766247Y-58550999D01*
X138766247Y-58550999D02*
X138911390Y-58587285D01*
X138911390Y-58587285D02*
X139165390Y-58587285D01*
X139165390Y-58587285D02*
X139310533Y-58550999D01*
X139310533Y-58550999D02*
X139383104Y-58478428D01*
X139383104Y-58478428D02*
X139419390Y-58405856D01*
X138657390Y-57389856D02*
X138657390Y-57752713D01*
X138657390Y-57752713D02*
X139419390Y-57752713D01*
X138657390Y-56772999D02*
X138657390Y-57135856D01*
X138657390Y-57135856D02*
X139419390Y-57135856D01*
X138657390Y-56518999D02*
X139419390Y-56518999D01*
X138657390Y-56156142D02*
X139419390Y-56156142D01*
X139419390Y-56156142D02*
X139419390Y-55974713D01*
X139419390Y-55974713D02*
X139383104Y-55865856D01*
X139383104Y-55865856D02*
X139310533Y-55793285D01*
X139310533Y-55793285D02*
X139237961Y-55756999D01*
X139237961Y-55756999D02*
X139092818Y-55720713D01*
X139092818Y-55720713D02*
X138983961Y-55720713D01*
X138983961Y-55720713D02*
X138838818Y-55756999D01*
X138838818Y-55756999D02*
X138766247Y-55793285D01*
X138766247Y-55793285D02*
X138693676Y-55865856D01*
X138693676Y-55865856D02*
X138657390Y-55974713D01*
X138657390Y-55974713D02*
X138657390Y-56156142D01*
X138875104Y-55430428D02*
X138875104Y-55067571D01*
X138657390Y-55502999D02*
X139419390Y-55248999D01*
X139419390Y-55248999D02*
X138657390Y-54994999D01*
X139020247Y-54595856D02*
X138657390Y-54595856D01*
X139419390Y-54849856D02*
X139020247Y-54595856D01*
X139020247Y-54595856D02*
X139419390Y-54341856D01*
D11*
X107236100Y-57564100D03*
X103426100Y-143294100D03*
X183426100Y-143294100D03*
X180896100Y-57564100D03*
D12*
X157000000Y-67500000D03*
X157000000Y-59880000D03*
X167160000Y-67500000D03*
X174780000Y-59880000D03*
X174780000Y-67500000D03*
D13*
X103949500Y-130365500D03*
D14*
X106489500Y-127825500D03*
X101409500Y-127825500D03*
X106489500Y-132905500D03*
X101409500Y-132905500D03*
D15*
X173532800Y-80572200D03*
D16*
X173532800Y-84072200D03*
D15*
X139954000Y-79959200D03*
D16*
X139954000Y-83459200D03*
D17*
X148437000Y-59053000D03*
X142667000Y-59053000D03*
D18*
X149872000Y-59553000D03*
D19*
X149872000Y-55413000D03*
D18*
X141232000Y-59553000D03*
D19*
X141232000Y-55413000D03*
D15*
X139903200Y-72440800D03*
D16*
X139903200Y-75940800D03*
D15*
X173532800Y-73307800D03*
D16*
X173532800Y-76807800D03*
D17*
X149326667Y-103010000D03*
X149326667Y-104143333D03*
X149326667Y-105276666D03*
X150460000Y-103010000D03*
X150460000Y-104143333D03*
X150460000Y-105276666D03*
X151593333Y-103010000D03*
X151593333Y-104143333D03*
X151593333Y-105276666D03*
D20*
X158484001Y-142920000D03*
D21*
X160484002Y-142920000D03*
X162484001Y-142920000D03*
X164484002Y-142920000D03*
X166484000Y-142920000D03*
D22*
X105800000Y-82799999D03*
D21*
X105800000Y-84800000D03*
X105800000Y-86799999D03*
X105800000Y-88800000D03*
X105800000Y-90799998D03*
D23*
X181200000Y-70050001D03*
D24*
X181200000Y-72050002D03*
X181200000Y-74050001D03*
X181200000Y-76050002D03*
X181200000Y-78050000D03*
X181200000Y-80050001D03*
X181200000Y-82050000D03*
X181200000Y-84050001D03*
D22*
X142720000Y-115430000D03*
D21*
X142720000Y-117430001D03*
X142720000Y-119430000D03*
X142720000Y-121430001D03*
X142720000Y-123429999D03*
X142720000Y-125430000D03*
X142720000Y-127429999D03*
X142720000Y-129430000D03*
X142720000Y-131430001D03*
X142720000Y-133430000D03*
X142720000Y-135430000D03*
X142720000Y-137430000D03*
D25*
X147550000Y-142920000D03*
D26*
X149550000Y-142920000D03*
X151550000Y-142920000D03*
X153550000Y-142920000D03*
D23*
X126100000Y-73000000D03*
D24*
X126100000Y-75000000D03*
X126100000Y-77000000D03*
X126100000Y-79000000D03*
X126100000Y-81000000D03*
X126100000Y-83000000D03*
D27*
X116205000Y-86739999D03*
D24*
X116205000Y-84739998D03*
X116205000Y-82739999D03*
X116205000Y-80739998D03*
X116205000Y-78740000D03*
X116205000Y-76739999D03*
X116205000Y-74740000D03*
X116205000Y-72739999D03*
D22*
X105750000Y-65214001D03*
D21*
X105750000Y-67214002D03*
X105750000Y-69214001D03*
X105750000Y-71214002D03*
X105750000Y-73214000D03*
X105750000Y-75214001D03*
X105750000Y-77214000D03*
D25*
X171550000Y-142920000D03*
D26*
X173550000Y-142920000D03*
X175550000Y-142920000D03*
X177550000Y-142920000D03*
D20*
X116450001Y-59050000D03*
D21*
X118450002Y-59050000D03*
X120450001Y-59050000D03*
X122450002Y-59050000D03*
X124450000Y-59050000D03*
X126450001Y-59050000D03*
X128450000Y-59050000D03*
D22*
X181491000Y-115900000D03*
D21*
X181491000Y-117900001D03*
X181491000Y-119900000D03*
X181491000Y-121900001D03*
X181491000Y-123899999D03*
X181491000Y-125900000D03*
X181491000Y-127899999D03*
X181491000Y-129900000D03*
X181491000Y-131900001D03*
D28*
X118816800Y-116677200D03*
X119916800Y-116677200D03*
X121016800Y-116677200D03*
X122116800Y-116677200D03*
X123216800Y-116677200D03*
X124316800Y-116677200D03*
X125416800Y-116677200D03*
X126516800Y-116677200D03*
D29*
X128456800Y-105047200D03*
D30*
X114471800Y-116047200D03*
D31*
X128861800Y-116197200D03*
X114571800Y-104717200D03*
D32*
X118876800Y-103922200D03*
X126656800Y-103922200D03*
D33*
X128456800Y-114047200D03*
D34*
X186436000Y-54356000D03*
D35*
X146700000Y-61604600D03*
X148350000Y-61604600D03*
D36*
X151150000Y-64294000D03*
X151650000Y-64294000D03*
X152150000Y-64294000D03*
X152650000Y-64294000D03*
X153150000Y-64294000D03*
X153650000Y-64294000D03*
D37*
X154400000Y-65044000D03*
X154400000Y-65544000D03*
X154400000Y-66044000D03*
X154400000Y-66544000D03*
X154400000Y-67044000D03*
X154400000Y-67544000D03*
D36*
X153650000Y-68294000D03*
X153150000Y-68294000D03*
X152650000Y-68294000D03*
X152150000Y-68294000D03*
X151650000Y-68294000D03*
X151150000Y-68294000D03*
D37*
X150400000Y-67544000D03*
X150400000Y-67044000D03*
X150400000Y-66544000D03*
X150400000Y-66044000D03*
X150400000Y-65544000D03*
X150400000Y-65044000D03*
D38*
X152400000Y-66294000D03*
D39*
X158305000Y-65278000D03*
X156655000Y-65278000D03*
D40*
X148666200Y-67900000D03*
X148666200Y-66350000D03*
D39*
X162038800Y-62941200D03*
X160388800Y-62941200D03*
D35*
X156655000Y-62941200D03*
X158305000Y-62941200D03*
D39*
X148350000Y-63075000D03*
X146700000Y-63075000D03*
D41*
X146300000Y-67400000D03*
X146300000Y-69800000D03*
D42*
X162461000Y-67500500D03*
D43*
X159911000Y-67500500D03*
D44*
X152146000Y-70231000D03*
D45*
X154686000Y-70231000D03*
X157226000Y-70231000D03*
X159766000Y-70231000D03*
X162306000Y-70231000D03*
X164846000Y-70231000D03*
X167386000Y-70231000D03*
X169926000Y-70231000D03*
D39*
X134075000Y-107750000D03*
X132425000Y-107750000D03*
D46*
X161000000Y-87525000D03*
X161000000Y-85875000D03*
D34*
X100838000Y-54864000D03*
D46*
X159500000Y-87525000D03*
X159500000Y-85875000D03*
X152750000Y-87825000D03*
X152750000Y-86175000D03*
D35*
X149175000Y-90750000D03*
X150825000Y-90750000D03*
D39*
X149525000Y-82750000D03*
X147875000Y-82750000D03*
X146525000Y-82750000D03*
X144875000Y-82750000D03*
D46*
X179500000Y-93075000D03*
X179500000Y-91425000D03*
D47*
X183150000Y-102500000D03*
X183150000Y-103800000D03*
D39*
X143525000Y-82750000D03*
X141875000Y-82750000D03*
D48*
X144925000Y-79750000D03*
X146475000Y-79750000D03*
D35*
X144175000Y-97250000D03*
X145825000Y-97250000D03*
D49*
X149500000Y-79675000D03*
X149500000Y-81325000D03*
X160400000Y-95275000D03*
X160400000Y-96925000D03*
X141045000Y-90175000D03*
X141045000Y-91825000D03*
D39*
X161990000Y-99900000D03*
X160340000Y-99900000D03*
D48*
X148225000Y-92250000D03*
X149775000Y-92250000D03*
D35*
X158375000Y-89000000D03*
X160025000Y-89000000D03*
D50*
X152775000Y-92250000D03*
X151225000Y-92250000D03*
D48*
X136475000Y-85750000D03*
X138025000Y-85750000D03*
D35*
X135675000Y-89500000D03*
X137325000Y-89500000D03*
D48*
X139475000Y-88750000D03*
X141025000Y-88750000D03*
D51*
X171600000Y-99975000D03*
D52*
X171600000Y-103825000D03*
D35*
X136425000Y-87250000D03*
X138075000Y-87250000D03*
D47*
X185650000Y-102525000D03*
X185650000Y-103825000D03*
D34*
X100330000Y-146558000D03*
D53*
X174650000Y-96012000D03*
X170350000Y-96012000D03*
D46*
X139500000Y-91825000D03*
X139500000Y-90175000D03*
D35*
X139425000Y-87250000D03*
X141075000Y-87250000D03*
D48*
X139475000Y-93250000D03*
X141025000Y-93250000D03*
D39*
X145025000Y-81250000D03*
X143375000Y-81250000D03*
D54*
X181595000Y-89633800D03*
X182865000Y-89633800D03*
X184135000Y-89633800D03*
X185405000Y-89633800D03*
X185405000Y-94866200D03*
X184135000Y-94866200D03*
X182865000Y-94866200D03*
X181595000Y-94866200D03*
D49*
X149500000Y-76675000D03*
X149500000Y-78325000D03*
D48*
X147450000Y-64575000D03*
X149000000Y-64575000D03*
D55*
X178765200Y-98764500D03*
X178765200Y-104689500D03*
D56*
X144137500Y-88950000D03*
X144137500Y-88300000D03*
X144137500Y-87650000D03*
X144137500Y-87000000D03*
X144137500Y-86350000D03*
X144137500Y-85700000D03*
X144137500Y-85050000D03*
X149862500Y-85050000D03*
X149862500Y-85700000D03*
X149862500Y-86350000D03*
X149862500Y-87000000D03*
X149862500Y-87650000D03*
X149862500Y-88300000D03*
X149862500Y-88950000D03*
D57*
X147285000Y-97560000D03*
X147285000Y-96290000D03*
X147285000Y-95020000D03*
X147285000Y-93750000D03*
X152985000Y-93750000D03*
X152985000Y-95020000D03*
X152985000Y-96290000D03*
X152985000Y-97560000D03*
D58*
X150135000Y-95655000D03*
D53*
X134900000Y-92000000D03*
X130600000Y-92000000D03*
D39*
X148025000Y-81250000D03*
X146375000Y-81250000D03*
D59*
X184225000Y-99675000D03*
X182925000Y-99675000D03*
D60*
X138000000Y-90975000D03*
X138000000Y-92525000D03*
D49*
X152750000Y-89175000D03*
X152750000Y-90825000D03*
X148000000Y-78175000D03*
X148000000Y-79825000D03*
D44*
X112280000Y-68240000D03*
D45*
X112280000Y-65700000D03*
X114820000Y-68240000D03*
X114820000Y-65700000D03*
X117360000Y-68240000D03*
X117360000Y-65700000D03*
X119900000Y-68240000D03*
X119900000Y-65700000D03*
X122440000Y-68240000D03*
X122440000Y-65700000D03*
X124980000Y-68240000D03*
X124980000Y-65700000D03*
X127520000Y-68240000D03*
X127520000Y-65700000D03*
X130060000Y-68240000D03*
X130060000Y-65700000D03*
X132600000Y-68240000D03*
X132600000Y-65700000D03*
D39*
X145825000Y-98750000D03*
X144175000Y-98750000D03*
D61*
X154700000Y-88150000D03*
X154700000Y-91450000D03*
D40*
X154750000Y-97525000D03*
X154750000Y-95975000D03*
D48*
X160425000Y-98400000D03*
X161975000Y-98400000D03*
M02*
