  0
SECTION
  2
HEADER
  9
$ANGBASE
  50
0.0
  9
$ANGDIR
  70
1
  9
$MEASUREMENT
  70
1
  0
ENDSEC
  0
SECTION
  2
TABLES
  0
TABLE
  2
LTYPE
  70
4
  0
LTYPE
  5
40F
  2
CONTINUOUS
  70
0
  3
Solid line
  72
65
  73
0
  40
0.0
  0
LTYPE
  5
410
  2
DASHDOT
 70
0
  3
Dash Dot ____ _ ____ _
 72
65
 73
4
 40
2.0
 49
1.25
 49
-0.25
 49
0.25
 49
-0.25
  0
LTYPE
  5
411
  2
DASHED
 70
0
  3
Dashed __ __ __ __ __
 72
65
 73
2
 40
0.75
 49
0.5
 49
-0.25
  0
LTYPE
  5
43B
  2
DOTTED
 70
0
  3
Dotted .  .  .  .
 72
65
 73
2
 40
0.2
 49
0.0
 49
-0.2
  0
ENDTAB
  0
TABLE
  2
STYLE
  70
4
  0
STYLE
  2
KICAD
  70
0
  40
0
  41
1
  42
1
  50
0
  71
0
  3
isocp.shx
  0
STYLE
  2
KICADB
  70
0
  40
0
  41
1
  42
1
  50
0
  71
0
  3
isocp.shx
  0
STYLE
  2
KICADI
  70
0
  40
0
  41
1
  42
1
  50
15
  71
0
  3
isocp.shx
  0
STYLE
  2
KICADBI
  70
0
  40
0
  41
1
  42
1
  50
15
  71
0
  3
isocp.shx
  0
ENDTAB
  0
TABLE
  2
LAYER
  70
1
  0
LAYER
  2
BLACK
  70
0
  62
7
  6
CONTINUOUS
  0
ENDTAB
  0
ENDSEC
  0
SECTION
  2
ENTITIES
0
LINE
8
BLACK
6
CONTINUOUS
10
153.2299999999999898
20
-54.9079999999999941
11
143.2299999999999898
21
-54.9079999999999941
0
LINE
8
BLACK
6
CONTINUOUS
10
103.144999999999996
20
-139.8979999999999961
11
103.144999999999996
21
-147.8979999999999961
0
LINE
8
BLACK
6
CONTINUOUS
10
105.144999999999996
20
-137.3979999999999961
11
103.144999999999996
21
-139.8979999999999961
0
LINE
8
BLACK
6
CONTINUOUS
10
105.144999999999996
20
-66.5079999999999956
11
103.144999999999996
21
-64.0079999999999956
0
LINE
8
BLACK
6
CONTINUOUS
10
154.5
20
-54.0079999999999956
11
153.2299999999999898
21
-54.9079999999999941
0
LINE
8
BLACK
6
CONTINUOUS
10
191.3149999999999977
20
-66.5079999999999956
11
193.3149999999999977
21
-64.0079999999999956
0
LINE
8
BLACK
6
CONTINUOUS
10
105.144999999999996
20
-137.3979999999999961
11
105.144999999999996
21
-66.5079999999999956
0
ARC
8
BLACK
10
105.144999999999996
20
-56.0079999999999956
40
2.
50
90.00000000
51
180.00000000
0
LINE
8
BLACK
6
CONTINUOUS
10
143.2299999999999898
20
-54.9079999999999941
11
141.9500029999999811
21
-54.0079999999999956
0
LINE
8
BLACK
6
CONTINUOUS
10
193.3149999999999977
20
-64.0079999999999956
11
193.3149999999999977
21
-56.0079999999999956
0
LINE
8
BLACK
6
CONTINUOUS
10
141.9500029999999811
20
-54.0079999999999956
11
105.144999999999996
21
-54.0079999999999956
0
LINE
8
BLACK
6
CONTINUOUS
10
193.3149999999999977
20
-147.8979999999999961
11
193.3149999999999977
21
-139.8979999999999961
0
LINE
8
BLACK
6
CONTINUOUS
10
103.144999999999996
20
-56.0079999999999956
11
103.144999999999996
21
-64.0079999999999956
0
LINE
8
BLACK
6
CONTINUOUS
10
178.6449999999999818
20
-147.8979999999999961
11
181.1449999999999818
21
-149.8979999999999961
0
ARC
8
BLACK
10
191.3149999999999977
20
-56.0079999999999956
40
2.
50
0.00000000
51
90.00000000
0
LINE
8
BLACK
6
CONTINUOUS
10
105.144999999999996
20
-149.8979999999999961
11
113.144999999999996
21
-149.8979999999999961
0
LINE
8
BLACK
6
CONTINUOUS
10
191.3149999999999977
20
-137.3979999999999961
11
193.3149999999999977
21
-139.8979999999999961
0
LINE
8
BLACK
6
CONTINUOUS
10
178.6449999999999818
20
-147.8979999999999961
11
115.644999999999996
21
-147.8979999999999961
0
LINE
8
BLACK
6
CONTINUOUS
10
191.3149999999999977
20
-54.0079999999999956
11
154.5
21
-54.0079999999999956
0
ARC
8
BLACK
10
105.144999999999996
20
-147.8979999999999961
40
2.
50
-180.00000000
51
-90.00000000
0
LINE
8
BLACK
6
CONTINUOUS
10
115.644999999999996
20
-147.8979999999999961
11
113.144999999999996
21
-149.8979999999999961
0
LINE
8
BLACK
6
CONTINUOUS
10
181.1449999999999818
20
-149.8979999999999961
11
191.3149999999999977
21
-149.8979999999999961
0
LINE
8
BLACK
6
CONTINUOUS
10
191.3149999999999977
20
-66.5079999999999956
11
191.3149999999999977
21
-137.3979999999999961
0
ARC
8
BLACK
10
191.3149999999999977
20
-147.8979999999999961
40
2.
50
-90.00000000
51
-0.00000000
0
LINE
8
BLACK
6
CONTINUOUS
10
105.6777680000000004
20
-153.087838000000005
11
105.6777680000000004
21
-151.087838000000005
0
LINE
8
BLACK
6
CONTINUOUS
10
105.6777680000000004
20
-151.087838000000005
11
106.1539579999999887
21
-151.087838000000005
0
LINE
8
BLACK
6
CONTINUOUS
10
106.1539579999999887
20
-151.087838000000005
11
106.4396729999999991
21
-151.1830759999999998
0
LINE
8
BLACK
6
CONTINUOUS
10
106.4396729999999991
20
-151.1830759999999998
11
106.6301489999999887
21
-151.3735519999999894
0
LINE
8
BLACK
6
CONTINUOUS
10
106.6301489999999887
20
-151.3735519999999894
11
106.7253869999999978
21
-151.5640279999999791
0
LINE
8
BLACK
6
CONTINUOUS
10
106.7253869999999978
20
-151.5640279999999791
11
106.8206249999999926
21
-151.9449799999999868
0
LINE
8
BLACK
6
CONTINUOUS
10
106.8206249999999926
20
-151.9449799999999868
11
106.8206249999999926
21
-152.2306949999999972
0
LINE
8
BLACK
6
CONTINUOUS
10
106.8206249999999926
20
-152.2306949999999972
11
106.7253869999999978
21
-152.6116470000000049
0
LINE
8
BLACK
6
CONTINUOUS
10
106.7253869999999978
20
-152.6116470000000049
11
106.6301489999999887
21
-152.8021229999999946
0
LINE
8
BLACK
6
CONTINUOUS
10
106.6301489999999887
20
-152.8021229999999946
11
106.4396729999999991
21
-152.9925999999999817
0
LINE
8
BLACK
6
CONTINUOUS
10
106.4396729999999991
20
-152.9925999999999817
11
106.1539579999999887
21
-153.087838000000005
0
LINE
8
BLACK
6
CONTINUOUS
10
106.1539579999999887
20
-153.087838000000005
11
105.6777680000000004
21
-153.087838000000005
0
LINE
8
BLACK
6
CONTINUOUS
10
107.6777680000000004
20
-153.087838000000005
11
107.6777680000000004
21
-151.7545039999999972
0
LINE
8
BLACK
6
CONTINUOUS
10
107.6777680000000004
20
-152.1354570000000024
11
107.7730059999999952
21
-151.9449799999999868
0
LINE
8
BLACK
6
CONTINUOUS
10
107.7730059999999952
20
-151.9449799999999868
11
107.86824399999999
21
-151.849741999999992
0
LINE
8
BLACK
6
CONTINUOUS
10
107.86824399999999
20
-151.849741999999992
11
108.0587199999999939
21
-151.7545039999999972
0
LINE
8
BLACK
6
CONTINUOUS
10
108.0587199999999939
20
-151.7545039999999972
11
108.2491969999999952
21
-151.7545039999999972
0
LINE
8
BLACK
6
CONTINUOUS
10
108.9158630000000016
20
-153.087838000000005
11
108.9158630000000016
21
-151.7545039999999972
0
LINE
8
BLACK
6
CONTINUOUS
10
108.9158630000000016
20
-151.087838000000005
11
108.8206249999999926
21
-151.1830759999999998
0
LINE
8
BLACK
6
CONTINUOUS
10
108.8206249999999926
20
-151.1830759999999998
11
108.9158630000000016
21
-151.2783139999999946
0
LINE
8
BLACK
6
CONTINUOUS
10
108.9158630000000016
20
-151.2783139999999946
11
109.0111009999999965
21
-151.1830759999999998
0
LINE
8
BLACK
6
CONTINUOUS
10
109.0111009999999965
20
-151.1830759999999998
11
108.9158630000000016
21
-151.087838000000005
0
LINE
8
BLACK
6
CONTINUOUS
10
108.9158630000000016
20
-151.087838000000005
11
108.9158630000000016
21
-151.2783139999999946
0
LINE
8
BLACK
6
CONTINUOUS
10
110.1539579999999887
20
-153.087838000000005
11
109.9634819999999991
21
-152.9925999999999817
0
LINE
8
BLACK
6
CONTINUOUS
10
109.9634819999999991
20
-152.9925999999999817
11
109.86824399999999
21
-152.8021229999999946
0
LINE
8
BLACK
6
CONTINUOUS
10
109.86824399999999
20
-152.8021229999999946
11
109.86824399999999
21
-151.087838000000005
0
LINE
8
BLACK
6
CONTINUOUS
10
111.2015770000000003
20
-153.087838000000005
11
111.0111009999999965
21
-152.9925999999999817
0
LINE
8
BLACK
6
CONTINUOUS
10
111.0111009999999965
20
-152.9925999999999817
11
110.9158630000000016
21
-152.8021229999999946
0
LINE
8
BLACK
6
CONTINUOUS
10
110.9158630000000016
20
-152.8021229999999946
11
110.9158630000000016
21
-151.087838000000005
0
LINE
8
BLACK
6
CONTINUOUS
10
113.4872919999999965
20
-153.087838000000005
11
113.4872919999999965
21
-151.087838000000005
0
LINE
8
BLACK
6
CONTINUOUS
10
113.4872919999999965
20
-151.087838000000005
11
114.1539590000000004
21
-152.5164089999999817
0
LINE
8
BLACK
6
CONTINUOUS
10
114.1539590000000004
20
-152.5164089999999817
11
114.8206249999999926
21
-151.087838000000005
0
LINE
8
BLACK
6
CONTINUOUS
10
114.8206249999999926
20
-151.087838000000005
11
114.8206249999999926
21
-153.087838000000005
0
LINE
8
BLACK
6
CONTINUOUS
10
116.6301489999999887
20
-153.087838000000005
11
116.6301489999999887
21
-152.0402189999999791
0
LINE
8
BLACK
6
CONTINUOUS
10
116.6301489999999887
20
-152.0402189999999791
11
116.5349109999999939
21
-151.849741999999992
0
LINE
8
BLACK
6
CONTINUOUS
10
116.5349109999999939
20
-151.849741999999992
11
116.3444349999999901
21
-151.7545039999999972
0
LINE
8
BLACK
6
CONTINUOUS
10
116.3444349999999901
20
-151.7545039999999972
11
115.9634819999999991
21
-151.7545039999999972
0
LINE
8
BLACK
6
CONTINUOUS
10
115.9634819999999991
20
-151.7545039999999972
11
115.7730059999999952
21
-151.849741999999992
0
LINE
8
BLACK
6
CONTINUOUS
10
116.6301489999999887
20
-152.9925999999999817
11
116.4396729999999991
21
-153.087838000000005
0
LINE
8
BLACK
6
CONTINUOUS
10
116.4396729999999991
20
-153.087838000000005
11
115.9634819999999991
21
-153.087838000000005
0
LINE
8
BLACK
6
CONTINUOUS
10
115.9634819999999991
20
-153.087838000000005
11
115.7730059999999952
21
-152.9925999999999817
0
LINE
8
BLACK
6
CONTINUOUS
10
115.7730059999999952
20
-152.9925999999999817
11
115.6777680000000004
21
-152.8021229999999946
0
LINE
8
BLACK
6
CONTINUOUS
10
115.6777680000000004
20
-152.8021229999999946
11
115.6777680000000004
21
-152.6116470000000049
0
LINE
8
BLACK
6
CONTINUOUS
10
115.6777680000000004
20
-152.6116470000000049
11
115.7730059999999952
21
-152.4211709999999869
0
LINE
8
BLACK
6
CONTINUOUS
10
115.7730059999999952
20
-152.4211709999999869
11
115.9634819999999991
21
-152.325932999999992
0
LINE
8
BLACK
6
CONTINUOUS
10
115.9634819999999991
20
-152.325932999999992
11
116.4396729999999991
21
-152.325932999999992
0
LINE
8
BLACK
6
CONTINUOUS
10
116.4396729999999991
20
-152.325932999999992
11
116.6301489999999887
21
-152.2306949999999972
0
LINE
8
BLACK
6
CONTINUOUS
10
117.5825299999999913
20
-151.7545039999999972
11
117.5825299999999913
21
-153.7545039999999972
0
LINE
8
BLACK
6
CONTINUOUS
10
117.5825299999999913
20
-151.849741999999992
11
117.7730059999999952
21
-151.7545039999999972
0
LINE
8
BLACK
6
CONTINUOUS
10
117.7730059999999952
20
-151.7545039999999972
11
118.1539590000000004
21
-151.7545039999999972
0
LINE
8
BLACK
6
CONTINUOUS
10
118.1539590000000004
20
-151.7545039999999972
11
118.3444349999999901
21
-151.849741999999992
0
LINE
8
BLACK
6
CONTINUOUS
10
118.3444349999999901
20
-151.849741999999992
11
118.4396729999999991
21
-151.9449799999999868
0
LINE
8
BLACK
6
CONTINUOUS
10
118.4396729999999991
20
-151.9449799999999868
11
118.5349109999999939
21
-152.1354570000000024
0
LINE
8
BLACK
6
CONTINUOUS
10
118.5349109999999939
20
-152.1354570000000024
11
118.5349109999999939
21
-152.7068849999999998
0
LINE
8
BLACK
6
CONTINUOUS
10
118.5349109999999939
20
-152.7068849999999998
11
118.4396729999999991
21
-152.8973609999999894
0
LINE
8
BLACK
6
CONTINUOUS
10
118.4396729999999991
20
-152.8973609999999894
11
118.3444349999999901
21
-152.9925999999999817
0
LINE
8
BLACK
6
CONTINUOUS
10
118.3444349999999901
20
-152.9925999999999817
11
118.1539590000000004
21
-153.087838000000005
0
LINE
8
BLACK
6
CONTINUOUS
10
118.1539590000000004
20
-153.087838000000005
11
117.7730059999999952
21
-153.087838000000005
0
LINE
8
BLACK
6
CONTINUOUS
10
117.7730059999999952
20
-153.087838000000005
11
117.5825299999999913
21
-152.9925999999999817
0
LINE
8
BLACK
6
CONTINUOUS
10
119.3920540000000017
20
-152.8973609999999894
11
119.4872919999999965
21
-152.9925999999999817
0
LINE
8
BLACK
6
CONTINUOUS
10
119.4872919999999965
20
-152.9925999999999817
11
119.3920540000000017
21
-153.087838000000005
0
LINE
8
BLACK
6
CONTINUOUS
10
119.3920540000000017
20
-153.087838000000005
11
119.2968159999999926
21
-152.9925999999999817
0
LINE
8
BLACK
6
CONTINUOUS
10
119.2968159999999926
20
-152.9925999999999817
11
119.3920540000000017
21
-152.8973609999999894
0
LINE
8
BLACK
6
CONTINUOUS
10
119.3920540000000017
20
-152.8973609999999894
11
119.3920540000000017
21
-153.087838000000005
0
LINE
8
BLACK
6
CONTINUOUS
10
119.3920540000000017
20
-151.849741999999992
11
119.4872919999999965
21
-151.9449799999999868
0
LINE
8
BLACK
6
CONTINUOUS
10
119.4872919999999965
20
-151.9449799999999868
11
119.3920540000000017
21
-152.0402189999999791
0
LINE
8
BLACK
6
CONTINUOUS
10
119.3920540000000017
20
-152.0402189999999791
11
119.2968159999999926
21
-151.9449799999999868
0
LINE
8
BLACK
6
CONTINUOUS
10
119.2968159999999926
20
-151.9449799999999868
11
119.3920540000000017
21
-151.849741999999992
0
LINE
8
BLACK
6
CONTINUOUS
10
119.3920540000000017
20
-151.849741999999992
11
119.3920540000000017
21
-152.0402189999999791
  0
ENDSEC
  0
EOF
