M48
; DRILL file {KiCad 8.0.4} date 2024-12-03T20:52:27-0800
; FORMAT={-:-/ absolute / metric / decimal}
; #@! TF.CreationDate,2024-12-03T20:52:27-08:00
; #@! TF.GenerationSoftware,Kicad,Pcbnew,8.0.4
; #@! TF.FileFunction,Plated,1,2,PTH
FMAT,2
METRIC
; #@! TA.AperFunction,Plated,PTH,ViaDrill
T1C0.400
; #@! TA.AperFunction,Plated,PTH,ComponentDrill
T2C2.000
; #@! TA.AperFunction,Plated,PTH,ComponentDrill
T3C2.200
%
G90
G05
T1
X40.145Y-27.375
X42.175Y-27.285
X44.135Y-27.205
X46.145Y-27.315
X48.175Y-27.285
X50.125Y-27.185
X57.658Y-93.98
X60.565Y-196.355
X60.995Y-194.695
X61.275Y-197.825
X65.815Y-216.525
X67.315Y-217.035
X67.735Y-218.565
X72.595Y-92.456
T2
X40.435Y-155.595
X40.515Y-119.875
X41.565Y-194.405
X41.585Y-84.275
X49.435Y-155.595
X49.515Y-119.875
X50.565Y-194.405
X50.585Y-84.275
X65.075Y-186.925
X65.395Y-58.275
X72.915Y-198.435
X72.915Y-207.435
X72.915Y-221.075
X72.915Y-230.075
X74.075Y-186.925
X74.395Y-58.275
X88.285Y-96.475
X88.395Y-34.205
X89.805Y-132.995
X89.855Y-169.015
X97.285Y-96.475
X97.395Y-34.205
X98.805Y-132.995
X98.855Y-169.015
T3
X31.075Y-129.155
X31.085Y-25.415
X31.095Y-232.915
X61.666Y-96.723
X61.666Y-112.421
X65.1Y-120.315
X76.045Y-120.315
X77.364Y-96.723
X77.364Y-112.421
X108.075Y-129.165
X108.075Y-232.905
X108.095Y-25.405
M30
