%TF.GenerationSoftware,KiCad,Pcbnew,7.0.9*%
%TF.CreationDate,2024-05-14T22:46:39-07:00*%
%TF.ProjectId,mainboard,6d61696e-626f-4617-9264-2e6b69636164,06b*%
%TF.SameCoordinates,Original*%
%TF.FileFunction,Drillmap*%
%TF.FilePolarity,Positive*%
%FSLAX45Y45*%
G04 Gerber Fmt 4.5, Leading zero omitted, Abs format (unit mm)*
G04 Created by KiCad (PCBNEW 7.0.9) date 2024-05-14 22:46:39*
%MOMM*%
%LPD*%
G01*
G04 APERTURE LIST*
%ADD10C,0.150000*%
%ADD11C,0.200000*%
%ADD12C,0.100000*%
%ADD13C,0.120000*%
%ADD14C,0.129540*%
%ADD15C,0.170000*%
%ADD16C,0.320000*%
G04 APERTURE END LIST*
D10*
X10033610Y-5248910D02*
G75*
G03*
X9833610Y-5448910I0J-200000D01*
G01*
X9833610Y-14637410D02*
G75*
G03*
X10033610Y-14837410I200000J0D01*
G01*
X18650610Y-14837410D02*
G75*
G03*
X18850610Y-14637410I0J200000D01*
G01*
X15227610Y-5249910D02*
X15100610Y-5338810D01*
X14021110Y-5338810D02*
X13893110Y-5252720D01*
X11100160Y-5249020D02*
X10033610Y-5248910D01*
X18850610Y-5448910D02*
G75*
G03*
X18650610Y-5248910I-200000J0D01*
G01*
X15983160Y-5249910D02*
X15227610Y-5249910D01*
X9830020Y-12404840D02*
X9833610Y-14637410D01*
X15100610Y-5338810D02*
X14021110Y-5338810D01*
X11343640Y-14650720D02*
X11109960Y-14838680D01*
X18850610Y-5448910D02*
X18851880Y-6167120D01*
X18851880Y-8839200D02*
X18844260Y-10627360D01*
X18851880Y-13868400D02*
X18850610Y-14637410D01*
X18650610Y-14837410D02*
X17998440Y-14837410D01*
X11109960Y-14838680D02*
X10033610Y-14837410D01*
X10017980Y-12171160D02*
X10023000Y-6400800D01*
X17500000Y-5438980D02*
X17700000Y-5248910D01*
X11333840Y-5436980D02*
X13360400Y-5436980D01*
X17762830Y-14650720D02*
X11343640Y-14650720D01*
X9833610Y-5448910D02*
X9833020Y-6167120D01*
X13893110Y-5252720D02*
X13594080Y-5252720D01*
X18656300Y-10861040D02*
X18844260Y-10627360D01*
X16216840Y-5438980D02*
X15983160Y-5249910D01*
X10023000Y-6400800D02*
X9833020Y-6167120D01*
X13360400Y-5436980D02*
X13594080Y-5252720D01*
X18658840Y-13634720D02*
X18851880Y-13868400D01*
X18663920Y-6400800D02*
X18851880Y-6167120D01*
X10017980Y-12171160D02*
X9830020Y-12404840D01*
X11333840Y-5436980D02*
X11100160Y-5249020D01*
X18663920Y-6400800D02*
X18663920Y-8605520D01*
X17762830Y-14650720D02*
X17998440Y-14837410D01*
X18650610Y-5248910D02*
X17700000Y-5248910D01*
X16216840Y-5438980D02*
X17500000Y-5438980D01*
X18656300Y-10861040D02*
X18658840Y-13634720D01*
X18663920Y-8605520D02*
X18851880Y-8839200D01*
D11*
D12*
X11080950Y-10130950D02*
X11119050Y-10169050D01*
X11119050Y-10130950D02*
X11080950Y-10169050D01*
X11280950Y-8710950D02*
X11319050Y-8749050D01*
X11319050Y-8710950D02*
X11280950Y-8749050D01*
X11324936Y-9482702D02*
X11363036Y-9520802D01*
X11363036Y-9482702D02*
X11324936Y-9520802D01*
X11325510Y-10147300D02*
X11363610Y-10185400D01*
X11363610Y-10147300D02*
X11325510Y-10185400D01*
X11423650Y-9339590D02*
X11461750Y-9377690D01*
X11461750Y-9339590D02*
X11423650Y-9377690D01*
X11426190Y-9770110D02*
X11464290Y-9808210D01*
X11464290Y-9770110D02*
X11426190Y-9808210D01*
X11446950Y-9460950D02*
X11485050Y-9499050D01*
X11485050Y-9460950D02*
X11446950Y-9499050D01*
X11480800Y-13144500D02*
X11518900Y-13182600D01*
X11518900Y-13144500D02*
X11480800Y-13182600D01*
X11480800Y-13248490D02*
X11518900Y-13286590D01*
X11518900Y-13248490D02*
X11480800Y-13286590D01*
X11524603Y-9490753D02*
X11562703Y-9528853D01*
X11562703Y-9490753D02*
X11524603Y-9528853D01*
X11524932Y-9829684D02*
X11563032Y-9867784D01*
X11563032Y-9829684D02*
X11524932Y-9867784D01*
X11765950Y-10148450D02*
X11804050Y-10186550D01*
X11804050Y-10148450D02*
X11765950Y-10186550D01*
X11785600Y-9804400D02*
X11823700Y-9842500D01*
X11823700Y-9804400D02*
X11785600Y-9842500D01*
X11918950Y-9251950D02*
X11957050Y-9290050D01*
X11957050Y-9251950D02*
X11918950Y-9290050D01*
X11944350Y-10530950D02*
X11982450Y-10569050D01*
X11982450Y-10530950D02*
X11944350Y-10569050D01*
X12045950Y-9355950D02*
X12084050Y-9394050D01*
X12084050Y-9355950D02*
X12045950Y-9394050D01*
X12125776Y-9487795D02*
X12163876Y-9525895D01*
X12163876Y-9487795D02*
X12125776Y-9525895D01*
X12240260Y-9570720D02*
X12278360Y-9608820D01*
X12278360Y-9570720D02*
X12240260Y-9608820D01*
X12522199Y-9334501D02*
X12560299Y-9372601D01*
X12560299Y-9334501D02*
X12522199Y-9372601D01*
X12524810Y-9817100D02*
X12562910Y-9855200D01*
X12562910Y-9817100D02*
X12524810Y-9855200D01*
X12545950Y-12559950D02*
X12584050Y-12598050D01*
X12584050Y-12559950D02*
X12545950Y-12598050D01*
X12819344Y-13906845D02*
X12857444Y-13944945D01*
X12857444Y-13906845D02*
X12819344Y-13944945D01*
X13000990Y-11878310D02*
X13039090Y-11916410D01*
X13039090Y-11878310D02*
X13000990Y-11916410D01*
X13158869Y-13500989D02*
X13196969Y-13539089D01*
X13196969Y-13500989D02*
X13158869Y-13539089D01*
X13169344Y-14306845D02*
X13207444Y-14344945D01*
X13207444Y-14306845D02*
X13169344Y-14344945D01*
X13239750Y-10816590D02*
X13277850Y-10854690D01*
X13277850Y-10816590D02*
X13239750Y-10854690D01*
X13269421Y-9645650D02*
X13307521Y-9683750D01*
X13307521Y-9645650D02*
X13269421Y-9683750D01*
X13341350Y-10166350D02*
X13379450Y-10204450D01*
X13379450Y-10166350D02*
X13341350Y-10204450D01*
X13357424Y-13706665D02*
X13395524Y-13744765D01*
X13395524Y-13706665D02*
X13357424Y-13744765D01*
X13357424Y-13818425D02*
X13395524Y-13856525D01*
X13395524Y-13818425D02*
X13357424Y-13856525D01*
X13369344Y-14406845D02*
X13407444Y-14444945D01*
X13407444Y-14406845D02*
X13369344Y-14444945D01*
X13377950Y-11457950D02*
X13416050Y-11496050D01*
X13416050Y-11457950D02*
X13377950Y-11496050D01*
X13400950Y-6115950D02*
X13439050Y-6154050D01*
X13439050Y-6115950D02*
X13400950Y-6154050D01*
X13419344Y-13956845D02*
X13457444Y-13994945D01*
X13457444Y-13956845D02*
X13419344Y-13994945D01*
X13440950Y-5803900D02*
X13479050Y-5842000D01*
X13479050Y-5803900D02*
X13440950Y-5842000D01*
X13453944Y-13757465D02*
X13492044Y-13795565D01*
X13492044Y-13757465D02*
X13453944Y-13795565D01*
X13544450Y-12608650D02*
X13582550Y-12646750D01*
X13582550Y-12608650D02*
X13544450Y-12646750D01*
X13547090Y-11294110D02*
X13585190Y-11332210D01*
X13585190Y-11294110D02*
X13547090Y-11332210D01*
X13560950Y-6160950D02*
X13599050Y-6199050D01*
X13599050Y-6160950D02*
X13560950Y-6199050D01*
X13569950Y-10242550D02*
X13608050Y-10280650D01*
X13608050Y-10242550D02*
X13569950Y-10280650D01*
X13570784Y-13706665D02*
X13608884Y-13744765D01*
X13608884Y-13706665D02*
X13570784Y-13744765D01*
X13595350Y-9712009D02*
X13633450Y-9750109D01*
X13633450Y-9712009D02*
X13595350Y-9750109D01*
X13620750Y-11029950D02*
X13658850Y-11068050D01*
X13658850Y-11029950D02*
X13620750Y-11068050D01*
X13640950Y-6023450D02*
X13679050Y-6061550D01*
X13679050Y-6023450D02*
X13640950Y-6061550D01*
X13653450Y-6535950D02*
X13691550Y-6574050D01*
X13691550Y-6535950D02*
X13653450Y-6574050D01*
X13684250Y-11296650D02*
X13722350Y-11334750D01*
X13722350Y-11296650D02*
X13684250Y-11334750D01*
X13696950Y-11703050D02*
X13735050Y-11741150D01*
X13735050Y-11703050D02*
X13696950Y-11741150D01*
X13722350Y-10572750D02*
X13760450Y-10610850D01*
X13760450Y-10572750D02*
X13722350Y-10610850D01*
X13747750Y-9925048D02*
X13785850Y-9963148D01*
X13785850Y-9925048D02*
X13747750Y-9963148D01*
X13789470Y-14407290D02*
X13827570Y-14445390D01*
X13827570Y-14407290D02*
X13789470Y-14445390D01*
X13809470Y-13567290D02*
X13847570Y-13605390D01*
X13847570Y-13567290D02*
X13809470Y-13605390D01*
X13827950Y-8782950D02*
X13866050Y-8821050D01*
X13866050Y-8782950D02*
X13827950Y-8821050D01*
X13834150Y-10258050D02*
X13872250Y-10296150D01*
X13872250Y-10258050D02*
X13834150Y-10296150D01*
X13860950Y-10530950D02*
X13899050Y-10569050D01*
X13899050Y-10530950D02*
X13860950Y-10569050D01*
X13870950Y-9850950D02*
X13909050Y-9889050D01*
X13909050Y-9850950D02*
X13870950Y-9889050D01*
X13953450Y-9850950D02*
X13991550Y-9889050D01*
X13991550Y-9850950D02*
X13953450Y-9889050D01*
X13981430Y-11397742D02*
X14019530Y-11435842D01*
X14019530Y-11397742D02*
X13981430Y-11435842D01*
X14065161Y-9154739D02*
X14103261Y-9192839D01*
X14103261Y-9154739D02*
X14065161Y-9192839D01*
X14070950Y-6970950D02*
X14109050Y-7009050D01*
X14109050Y-6970950D02*
X14070950Y-7009050D01*
X14128750Y-10306050D02*
X14166850Y-10344150D01*
X14166850Y-10306050D02*
X14128750Y-10344150D01*
X14137950Y-10733950D02*
X14176050Y-10772050D01*
X14176050Y-10733950D02*
X14137950Y-10772050D01*
X14140950Y-10610950D02*
X14179050Y-10649050D01*
X14179050Y-10610950D02*
X14140950Y-10649050D01*
X14141450Y-10166349D02*
X14179550Y-10204449D01*
X14179550Y-10166349D02*
X14141450Y-10204449D01*
X14187950Y-8277950D02*
X14226050Y-8316050D01*
X14226050Y-8277950D02*
X14187950Y-8316050D01*
X14198950Y-9201950D02*
X14237050Y-9240050D01*
X14237050Y-9201950D02*
X14198950Y-9240050D01*
X14217126Y-8392774D02*
X14255226Y-8430874D01*
X14255226Y-8392774D02*
X14217126Y-8430874D01*
X14220950Y-6100950D02*
X14259050Y-6139050D01*
X14259050Y-6100950D02*
X14220950Y-6139050D01*
X14224950Y-9584950D02*
X14263050Y-9623050D01*
X14263050Y-9584950D02*
X14224950Y-9623050D01*
X14228450Y-10048450D02*
X14266550Y-10086550D01*
X14266550Y-10048450D02*
X14228450Y-10086550D01*
X14240950Y-10520950D02*
X14279050Y-10559050D01*
X14279050Y-10520950D02*
X14240950Y-10559050D01*
X14299470Y-14337290D02*
X14337570Y-14375390D01*
X14337570Y-14337290D02*
X14299470Y-14375390D01*
X14310950Y-6100950D02*
X14349050Y-6139050D01*
X14349050Y-6100950D02*
X14310950Y-6139050D01*
X14330950Y-10360950D02*
X14369050Y-10399050D01*
X14369050Y-10360950D02*
X14330950Y-10399050D01*
X14360950Y-10770950D02*
X14399050Y-10809050D01*
X14399050Y-10770950D02*
X14360950Y-10809050D01*
X14390950Y-6100950D02*
X14429050Y-6139050D01*
X14429050Y-6100950D02*
X14390950Y-6139050D01*
X14428736Y-10882986D02*
X14466836Y-10921086D01*
X14466836Y-10882986D02*
X14428736Y-10921086D01*
X14440950Y-9669130D02*
X14479050Y-9707230D01*
X14479050Y-9669130D02*
X14440950Y-9707230D01*
X14470950Y-11190950D02*
X14509050Y-11229050D01*
X14509050Y-11190950D02*
X14470950Y-11229050D01*
X14476950Y-10801950D02*
X14515050Y-10840050D01*
X14515050Y-10801950D02*
X14476950Y-10840050D01*
X14490252Y-11397742D02*
X14528352Y-11435842D01*
X14528352Y-11397742D02*
X14490252Y-11435842D01*
X14491950Y-10667950D02*
X14530050Y-10706050D01*
X14530050Y-10667950D02*
X14491950Y-10706050D01*
X14497950Y-9199950D02*
X14536050Y-9238050D01*
X14536050Y-9199950D02*
X14497950Y-9238050D01*
X14510950Y-5870950D02*
X14549050Y-5909050D01*
X14549050Y-5870950D02*
X14510950Y-5909050D01*
X14510950Y-9600950D02*
X14549050Y-9639050D01*
X14549050Y-9600950D02*
X14510950Y-9639050D01*
X14541740Y-6950950D02*
X14579840Y-6989050D01*
X14579840Y-6950950D02*
X14541740Y-6989050D01*
X14560950Y-6095950D02*
X14599050Y-6134050D01*
X14599050Y-6095950D02*
X14560950Y-6134050D01*
X14561950Y-10451950D02*
X14600050Y-10490050D01*
X14600050Y-10451950D02*
X14561950Y-10490050D01*
X14570950Y-10360950D02*
X14609050Y-10399050D01*
X14609050Y-10360950D02*
X14570950Y-10399050D01*
X14580950Y-10104248D02*
X14619050Y-10142348D01*
X14619050Y-10104248D02*
X14580950Y-10142348D01*
X14580950Y-10240950D02*
X14619050Y-10279050D01*
X14619050Y-10240950D02*
X14580950Y-10279050D01*
X14608450Y-9980950D02*
X14646550Y-10019050D01*
X14646550Y-9980950D02*
X14608450Y-10019050D01*
X14625160Y-6950950D02*
X14663260Y-6989050D01*
X14663260Y-6950950D02*
X14625160Y-6989050D01*
X14631249Y-10168156D02*
X14669349Y-10206256D01*
X14669349Y-10168156D02*
X14631249Y-10206256D01*
X14650950Y-8950950D02*
X14689050Y-8989050D01*
X14689050Y-8950950D02*
X14650950Y-8989050D01*
X14660950Y-5873750D02*
X14699050Y-5911850D01*
X14699050Y-5873750D02*
X14660950Y-5911850D01*
X14666950Y-11260950D02*
X14705050Y-11299050D01*
X14705050Y-11260950D02*
X14666950Y-11299050D01*
X14690950Y-9990950D02*
X14729050Y-10029050D01*
X14729050Y-9990950D02*
X14690950Y-10029050D01*
X14710950Y-11190950D02*
X14749050Y-11229050D01*
X14749050Y-11190950D02*
X14710950Y-11229050D01*
X14760950Y-9740950D02*
X14799050Y-9779050D01*
X14799050Y-9740950D02*
X14760950Y-9779050D01*
X14760950Y-10050950D02*
X14799050Y-10089050D01*
X14799050Y-10050950D02*
X14760950Y-10089050D01*
X14770100Y-10560050D02*
X14808200Y-10598150D01*
X14808200Y-10560050D02*
X14770100Y-10598150D01*
X14778736Y-8743697D02*
X14816836Y-8781797D01*
X14816836Y-8743697D02*
X14778736Y-8781797D01*
X14785950Y-9660950D02*
X14824050Y-9699050D01*
X14824050Y-9660950D02*
X14785950Y-9699050D01*
X14810950Y-9975950D02*
X14849050Y-10014050D01*
X14849050Y-9975950D02*
X14810950Y-10014050D01*
X14820458Y-11199987D02*
X14858558Y-11238087D01*
X14858558Y-11199987D02*
X14820458Y-11238087D01*
X14830950Y-10830950D02*
X14869050Y-10869050D01*
X14869050Y-10830950D02*
X14830950Y-10869050D01*
X14860950Y-7080950D02*
X14899050Y-7119050D01*
X14899050Y-7080950D02*
X14860950Y-7119050D01*
X14895950Y-11250950D02*
X14934050Y-11289050D01*
X14934050Y-11250950D02*
X14895950Y-11289050D01*
X14905950Y-6100950D02*
X14944050Y-6139050D01*
X14944050Y-6100950D02*
X14905950Y-6139050D01*
X14950950Y-10780950D02*
X14989050Y-10819050D01*
X14989050Y-10780950D02*
X14950950Y-10819050D01*
X14950950Y-11463234D02*
X14989050Y-11501334D01*
X14989050Y-11463234D02*
X14950950Y-11501334D01*
X14970950Y-10000950D02*
X15009050Y-10039050D01*
X15009050Y-10000950D02*
X14970950Y-10039050D01*
X14973300Y-7448550D02*
X15011400Y-7486650D01*
X15011400Y-7448550D02*
X14973300Y-7486650D01*
X14973300Y-8134350D02*
X15011400Y-8172450D01*
X15011400Y-8134350D02*
X14973300Y-8172450D01*
X14979650Y-7600950D02*
X15017750Y-7639050D01*
X15017750Y-7600950D02*
X14979650Y-7639050D01*
X15000950Y-10840950D02*
X15039050Y-10879050D01*
X15039050Y-10840950D02*
X15000950Y-10879050D01*
X15001950Y-10375950D02*
X15040050Y-10414050D01*
X15040050Y-10375950D02*
X15001950Y-10414050D01*
X15005050Y-9759949D02*
X15043150Y-9798049D01*
X15043150Y-9759949D02*
X15005050Y-9798049D01*
X15010950Y-6215950D02*
X15049050Y-6254050D01*
X15049050Y-6215950D02*
X15010950Y-6254050D01*
X15025370Y-10692130D02*
X15063470Y-10730230D01*
X15063470Y-10692130D02*
X15025370Y-10730230D01*
X15030450Y-10542269D02*
X15068550Y-10580369D01*
X15068550Y-10542269D02*
X15030450Y-10580369D01*
X15036800Y-8616950D02*
X15074900Y-8655050D01*
X15074900Y-8616950D02*
X15036800Y-8655050D01*
X15043150Y-6813550D02*
X15081250Y-6851650D01*
X15081250Y-6813550D02*
X15043150Y-6851650D01*
X15060950Y-6280950D02*
X15099050Y-6319050D01*
X15099050Y-6280950D02*
X15060950Y-6319050D01*
X15060950Y-9150950D02*
X15099050Y-9189050D01*
X15099050Y-9150950D02*
X15060950Y-9189050D01*
X15063433Y-7164107D02*
X15101533Y-7202207D01*
X15101533Y-7164107D02*
X15063433Y-7202207D01*
X15070950Y-9278993D02*
X15109050Y-9317093D01*
X15109050Y-9278993D02*
X15070950Y-9317093D01*
X15083790Y-7308850D02*
X15121890Y-7346950D01*
X15121890Y-7308850D02*
X15083790Y-7346950D01*
X15125700Y-8483600D02*
X15163800Y-8521700D01*
X15163800Y-8483600D02*
X15125700Y-8521700D01*
X15182850Y-7505700D02*
X15220950Y-7543800D01*
X15220950Y-7505700D02*
X15182850Y-7543800D01*
X15185950Y-8853950D02*
X15224050Y-8892050D01*
X15224050Y-8853950D02*
X15185950Y-8892050D01*
X15200950Y-9490950D02*
X15239050Y-9529050D01*
X15239050Y-9490950D02*
X15200950Y-9529050D01*
X15223490Y-9988550D02*
X15261590Y-10026650D01*
X15261590Y-9988550D02*
X15223490Y-10026650D01*
X15243810Y-6176010D02*
X15281910Y-6214110D01*
X15281910Y-6176010D02*
X15243810Y-6214110D01*
X15278100Y-10550950D02*
X15316200Y-10589050D01*
X15316200Y-10550950D02*
X15278100Y-10589050D01*
X15284450Y-10817950D02*
X15322550Y-10856050D01*
X15322550Y-10817950D02*
X15284450Y-10856050D01*
X15295070Y-10314125D02*
X15333170Y-10352225D01*
X15333170Y-10314125D02*
X15295070Y-10352225D01*
X15295950Y-7921950D02*
X15334050Y-7960050D01*
X15334050Y-7921950D02*
X15295950Y-7960050D01*
X15297150Y-10191750D02*
X15335250Y-10229850D01*
X15335250Y-10191750D02*
X15297150Y-10229850D01*
X15298950Y-5543950D02*
X15337050Y-5582050D01*
X15337050Y-5543950D02*
X15298950Y-5582050D01*
X15300950Y-6280950D02*
X15339050Y-6319050D01*
X15339050Y-6280950D02*
X15300950Y-6319050D01*
X15309850Y-9594850D02*
X15347950Y-9632950D01*
X15347950Y-9594850D02*
X15309850Y-9632950D01*
X15316950Y-10625950D02*
X15355050Y-10664050D01*
X15355050Y-10625950D02*
X15316950Y-10664050D01*
X15325090Y-7156450D02*
X15363190Y-7194550D01*
X15363190Y-7156450D02*
X15325090Y-7194550D01*
X15333450Y-8260950D02*
X15371550Y-8299050D01*
X15371550Y-8260950D02*
X15333450Y-8299050D01*
X15335950Y-8120950D02*
X15374050Y-8159050D01*
X15374050Y-8120950D02*
X15335950Y-8159050D01*
X15367950Y-10371950D02*
X15406050Y-10410050D01*
X15406050Y-10371950D02*
X15367950Y-10410050D01*
X15370950Y-6200950D02*
X15409050Y-6239050D01*
X15409050Y-6200950D02*
X15370950Y-6239050D01*
X15398750Y-7854955D02*
X15436850Y-7893055D01*
X15436850Y-7854955D02*
X15398750Y-7893055D01*
X15440950Y-5940950D02*
X15479050Y-5979050D01*
X15479050Y-5940950D02*
X15440950Y-5979050D01*
X15462250Y-7334250D02*
X15500350Y-7372350D01*
X15500350Y-7334250D02*
X15462250Y-7372350D01*
X15476590Y-6251310D02*
X15514690Y-6289410D01*
X15514690Y-6251310D02*
X15476590Y-6289410D01*
X15477490Y-6793230D02*
X15515590Y-6831330D01*
X15515590Y-6793230D02*
X15477490Y-6831330D01*
X15505950Y-9407950D02*
X15544050Y-9446050D01*
X15544050Y-9407950D02*
X15505950Y-9446050D01*
X15525750Y-6635750D02*
X15563850Y-6673850D01*
X15563850Y-6635750D02*
X15525750Y-6673850D01*
X15580950Y-10030950D02*
X15619050Y-10069050D01*
X15619050Y-10030950D02*
X15580950Y-10069050D01*
X15600950Y-9190950D02*
X15639050Y-9229050D01*
X15639050Y-9190950D02*
X15600950Y-9229050D01*
X15600950Y-10770950D02*
X15639050Y-10809050D01*
X15639050Y-10770950D02*
X15600950Y-10809050D01*
X15610300Y-5706650D02*
X15648400Y-5744750D01*
X15648400Y-5706650D02*
X15610300Y-5744750D01*
X15681950Y-10078950D02*
X15720050Y-10117050D01*
X15720050Y-10078950D02*
X15681950Y-10117050D01*
X15728949Y-7416801D02*
X15767049Y-7454901D01*
X15767049Y-7416801D02*
X15728949Y-7454901D01*
X15730950Y-9220950D02*
X15769050Y-9259050D01*
X15769050Y-9220950D02*
X15730950Y-9259050D01*
X15740950Y-9403450D02*
X15779050Y-9441550D01*
X15779050Y-9403450D02*
X15740950Y-9441550D01*
X15763950Y-10772950D02*
X15802050Y-10811050D01*
X15802050Y-10772950D02*
X15763950Y-10811050D01*
X15767050Y-10471150D02*
X15805150Y-10509250D01*
X15805150Y-10471150D02*
X15767050Y-10509250D01*
X15805150Y-5695950D02*
X15843250Y-5734050D01*
X15843250Y-5695950D02*
X15805150Y-5734050D01*
X15835950Y-10005950D02*
X15874050Y-10044050D01*
X15874050Y-10005950D02*
X15835950Y-10044050D01*
X15864197Y-9397950D02*
X15902297Y-9436050D01*
X15902297Y-9397950D02*
X15864197Y-9436050D01*
X15883450Y-8440950D02*
X15921550Y-8479050D01*
X15921550Y-8440950D02*
X15883450Y-8479050D01*
X15940950Y-9200950D02*
X15979050Y-9239050D01*
X15979050Y-9200950D02*
X15940950Y-9239050D01*
X15944850Y-7600955D02*
X15982950Y-7639055D01*
X15982950Y-7600955D02*
X15944850Y-7639055D01*
X15955950Y-10820950D02*
X15994050Y-10859050D01*
X15994050Y-10820950D02*
X15955950Y-10859050D01*
X15957550Y-10601641D02*
X15995650Y-10639741D01*
X15995650Y-10601641D02*
X15957550Y-10639741D01*
X15959950Y-9617950D02*
X15998050Y-9656050D01*
X15998050Y-9617950D02*
X15959950Y-9656050D01*
X15960950Y-9530950D02*
X15999050Y-9569050D01*
X15999050Y-9530950D02*
X15960950Y-9569050D01*
X15996950Y-8372950D02*
X16035050Y-8411050D01*
X16035050Y-8372950D02*
X15996950Y-8411050D01*
X16008350Y-8604250D02*
X16046450Y-8642350D01*
X16046450Y-8604250D02*
X16008350Y-8642350D01*
X16088450Y-8400950D02*
X16126550Y-8439050D01*
X16126550Y-8400950D02*
X16088450Y-8439050D01*
X16123450Y-8620950D02*
X16161550Y-8659050D01*
X16161550Y-8620950D02*
X16123450Y-8659050D01*
X16135350Y-9721850D02*
X16173450Y-9759950D01*
X16173450Y-9721850D02*
X16135350Y-9759950D01*
X16137950Y-10625950D02*
X16176050Y-10664050D01*
X16176050Y-10625950D02*
X16137950Y-10664050D01*
X16140430Y-7682230D02*
X16178530Y-7720330D01*
X16178530Y-7682230D02*
X16140430Y-7720330D01*
X16142950Y-9342950D02*
X16181050Y-9381050D01*
X16181050Y-9342950D02*
X16142950Y-9381050D01*
X16215950Y-9128450D02*
X16254050Y-9166550D01*
X16254050Y-9128450D02*
X16215950Y-9166550D01*
X16227990Y-10342950D02*
X16266090Y-10381050D01*
X16266090Y-10342950D02*
X16227990Y-10381050D01*
X16229550Y-6600190D02*
X16267650Y-6638290D01*
X16267650Y-6600190D02*
X16229550Y-6638290D01*
X16229950Y-10529950D02*
X16268050Y-10568050D01*
X16268050Y-10529950D02*
X16229950Y-10568050D01*
X16310950Y-9930950D02*
X16349050Y-9969050D01*
X16349050Y-9930950D02*
X16310950Y-9969050D01*
X16311880Y-9720834D02*
X16349980Y-9758934D01*
X16349980Y-9720834D02*
X16311880Y-9758934D01*
X16321950Y-9136950D02*
X16360050Y-9175050D01*
X16360050Y-9136950D02*
X16321950Y-9175050D01*
X16398450Y-8010950D02*
X16436550Y-8049050D01*
X16436550Y-8010950D02*
X16398450Y-8049050D01*
X16405950Y-11185950D02*
X16444050Y-11224050D01*
X16444050Y-11185950D02*
X16405950Y-11224050D01*
X16410950Y-9138450D02*
X16449050Y-9176550D01*
X16449050Y-9138450D02*
X16410950Y-9176550D01*
X16445950Y-10245950D02*
X16484050Y-10284050D01*
X16484050Y-10245950D02*
X16445950Y-10284050D01*
X16466950Y-12659950D02*
X16505050Y-12698050D01*
X16505050Y-12659950D02*
X16466950Y-12698050D01*
X16469950Y-12218950D02*
X16508050Y-12257050D01*
X16508050Y-12218950D02*
X16469950Y-12257050D01*
X16480950Y-13527950D02*
X16519050Y-13566050D01*
X16519050Y-13527950D02*
X16480950Y-13566050D01*
X16497300Y-9728200D02*
X16535400Y-9766300D01*
X16535400Y-9728200D02*
X16497300Y-9766300D01*
X16503650Y-7552690D02*
X16541750Y-7590790D01*
X16541750Y-7552690D02*
X16503650Y-7590790D01*
X16522700Y-9613900D02*
X16560800Y-9652000D01*
X16560800Y-9613900D02*
X16522700Y-9652000D01*
X16529370Y-9866289D02*
X16567470Y-9904389D01*
X16567470Y-9866289D02*
X16529370Y-9904389D01*
X16535908Y-9364980D02*
X16574008Y-9403080D01*
X16574008Y-9364980D02*
X16535908Y-9403080D01*
X16544950Y-8697950D02*
X16583050Y-8736050D01*
X16583050Y-8697950D02*
X16544950Y-8736050D01*
X16568450Y-9133450D02*
X16606550Y-9171550D01*
X16606550Y-9133450D02*
X16568450Y-9171550D01*
X16637950Y-10408950D02*
X16676050Y-10447050D01*
X16676050Y-10408950D02*
X16637950Y-10447050D01*
X16660950Y-11560950D02*
X16699050Y-11599050D01*
X16699050Y-11560950D02*
X16660950Y-11599050D01*
X16676950Y-10485950D02*
X16715050Y-10524050D01*
X16715050Y-10485950D02*
X16676950Y-10524050D01*
X16825950Y-9123450D02*
X16864050Y-9161550D01*
X16864050Y-9123450D02*
X16825950Y-9161550D01*
X16831300Y-7105650D02*
X16869400Y-7143750D01*
X16869400Y-7105650D02*
X16831300Y-7143750D01*
X16846550Y-7336800D02*
X16884650Y-7374900D01*
X16884650Y-7336800D02*
X16846550Y-7374900D01*
X16846550Y-7484100D02*
X16884650Y-7522200D01*
X16884650Y-7484100D02*
X16846550Y-7522200D01*
X16860950Y-11760950D02*
X16899050Y-11799050D01*
X16899050Y-11760950D02*
X16860950Y-11799050D01*
X16950950Y-11752928D02*
X16989050Y-11791028D01*
X16989050Y-11752928D02*
X16950950Y-11791028D01*
X17020950Y-9410950D02*
X17059050Y-9449050D01*
X17059050Y-9410950D02*
X17020950Y-9449050D01*
X17037950Y-9710950D02*
X17076050Y-9749050D01*
X17076050Y-9710950D02*
X17037950Y-9749050D01*
X17176750Y-9658350D02*
X17214850Y-9696450D01*
X17214850Y-9658350D02*
X17176750Y-9696450D01*
X17176750Y-10623550D02*
X17214850Y-10661650D01*
X17214850Y-10623550D02*
X17176750Y-10661650D01*
X17176750Y-10775950D02*
X17214850Y-10814050D01*
X17214850Y-10775950D02*
X17176750Y-10814050D01*
X17201950Y-9497950D02*
X17240050Y-9536050D01*
X17240050Y-9497950D02*
X17201950Y-9536050D01*
X17227550Y-10699750D02*
X17265650Y-10737850D01*
X17265650Y-10699750D02*
X17227550Y-10737850D01*
X17227550Y-10852150D02*
X17265650Y-10890250D01*
X17265650Y-10852150D02*
X17227550Y-10890250D01*
X17270950Y-9570950D02*
X17309050Y-9609050D01*
X17309050Y-9570950D02*
X17270950Y-9609050D01*
X17278350Y-10623550D02*
X17316450Y-10661650D01*
X17316450Y-10623550D02*
X17278350Y-10661650D01*
X17278350Y-10775950D02*
X17316450Y-10814050D01*
X17316450Y-10775950D02*
X17278350Y-10814050D01*
X17350950Y-9040950D02*
X17389050Y-9079050D01*
X17389050Y-9040950D02*
X17350950Y-9079050D01*
X17489170Y-9884950D02*
X17527270Y-9923050D01*
X17527270Y-9884950D02*
X17489170Y-9923050D01*
X17519650Y-9061450D02*
X17557750Y-9099550D01*
X17557750Y-9061450D02*
X17519650Y-9099550D01*
X17575950Y-9874950D02*
X17614050Y-9913050D01*
X17614050Y-9874950D02*
X17575950Y-9913050D01*
X17583950Y-11521950D02*
X17622050Y-11560050D01*
X17622050Y-11521950D02*
X17583950Y-11560050D01*
X17680950Y-9036049D02*
X17719050Y-9074149D01*
X17719050Y-9036049D02*
X17680950Y-9074149D01*
X17684750Y-10750550D02*
X17722850Y-10788650D01*
X17722850Y-10750550D02*
X17684750Y-10788650D01*
X17760950Y-10115550D02*
X17799050Y-10153650D01*
X17799050Y-10115550D02*
X17760950Y-10153650D01*
X17862550Y-10547350D02*
X17900650Y-10585450D01*
X17900650Y-10547350D02*
X17862550Y-10585450D01*
X17960950Y-10640950D02*
X17999050Y-10679050D01*
X17999050Y-10640950D02*
X17960950Y-10679050D01*
X17966450Y-8949450D02*
X18004550Y-8987550D01*
X18004550Y-8949450D02*
X17966450Y-8987550D01*
X18040350Y-9023350D02*
X18078450Y-9061450D01*
X18078450Y-9023350D02*
X18040350Y-9061450D01*
X18389950Y-10719950D02*
X18428050Y-10758050D01*
X18428050Y-10719950D02*
X18389950Y-10758050D01*
X18421950Y-9772950D02*
X18460050Y-9811050D01*
X18460050Y-9772950D02*
X18421950Y-9811050D01*
X18455950Y-9688450D02*
X18494050Y-9726550D01*
X18494050Y-9688450D02*
X18455950Y-9726550D01*
X18528950Y-9778950D02*
X18567050Y-9817050D01*
X18567050Y-9778950D02*
X18528950Y-9817050D01*
X18528950Y-10588950D02*
X18567050Y-10627050D01*
X18567050Y-10588950D02*
X18528950Y-10627050D01*
X18561950Y-9677950D02*
X18600050Y-9716050D01*
X18600050Y-9677950D02*
X18561950Y-9716050D01*
X18661950Y-10454950D02*
X18700050Y-10493050D01*
X18700050Y-10454950D02*
X18661950Y-10493050D01*
X10821350Y-13139750D02*
G75*
G03*
X10821350Y-13139750I-20000J0D01*
G01*
X10821858Y-12952806D02*
G75*
G03*
X10821858Y-12952806I-20000J0D01*
G01*
X10948350Y-13139750D02*
G75*
G03*
X10948350Y-13139750I-20000J0D01*
G01*
X10948350Y-13266750D02*
G75*
G03*
X10948350Y-13266750I-20000J0D01*
G01*
X10948350Y-13417550D02*
G75*
G03*
X10948350Y-13417550I-20000J0D01*
G01*
X10948350Y-13531850D02*
G75*
G03*
X10948350Y-13531850I-20000J0D01*
G01*
X10948350Y-13658850D02*
G75*
G03*
X10948350Y-13658850I-20000J0D01*
G01*
X10948858Y-12703886D02*
G75*
G03*
X10948858Y-12703886I-20000J0D01*
G01*
X10948858Y-12830886D02*
G75*
G03*
X10948858Y-12830886I-20000J0D01*
G01*
X10948858Y-12952806D02*
G75*
G03*
X10948858Y-12952806I-20000J0D01*
G01*
X11075350Y-13139750D02*
G75*
G03*
X11075350Y-13139750I-20000J0D01*
G01*
X11075350Y-13266750D02*
G75*
G03*
X11075350Y-13266750I-20000J0D01*
G01*
X11075350Y-13417550D02*
G75*
G03*
X11075350Y-13417550I-20000J0D01*
G01*
X11075350Y-13531850D02*
G75*
G03*
X11075350Y-13531850I-20000J0D01*
G01*
X11075350Y-13658850D02*
G75*
G03*
X11075350Y-13658850I-20000J0D01*
G01*
X11075858Y-12703886D02*
G75*
G03*
X11075858Y-12703886I-20000J0D01*
G01*
X11075858Y-12830886D02*
G75*
G03*
X11075858Y-12830886I-20000J0D01*
G01*
X11075858Y-12952806D02*
G75*
G03*
X11075858Y-12952806I-20000J0D01*
G01*
X11202350Y-13266750D02*
G75*
G03*
X11202350Y-13266750I-20000J0D01*
G01*
X11202350Y-13417550D02*
G75*
G03*
X11202350Y-13417550I-20000J0D01*
G01*
X11202350Y-13531850D02*
G75*
G03*
X11202350Y-13531850I-20000J0D01*
G01*
X11202350Y-13658850D02*
G75*
G03*
X11202350Y-13658850I-20000J0D01*
G01*
X11202858Y-12703886D02*
G75*
G03*
X11202858Y-12703886I-20000J0D01*
G01*
X11202858Y-12830886D02*
G75*
G03*
X11202858Y-12830886I-20000J0D01*
G01*
X11202858Y-12952806D02*
G75*
G03*
X11202858Y-12952806I-20000J0D01*
G01*
X11291250Y-13049250D02*
G75*
G03*
X11291250Y-13049250I-20000J0D01*
G01*
X11329350Y-13658850D02*
G75*
G03*
X11329350Y-13658850I-20000J0D01*
G01*
X11380150Y-12952806D02*
G75*
G03*
X11380150Y-12952806I-20000J0D01*
G01*
X11380150Y-13138150D02*
G75*
G03*
X11380150Y-13138150I-20000J0D01*
G01*
X11443650Y-13658850D02*
G75*
G03*
X11443650Y-13658850I-20000J0D01*
G01*
X11469050Y-13049250D02*
G75*
G03*
X11469050Y-13049250I-20000J0D01*
G01*
X11557950Y-13658850D02*
G75*
G03*
X11557950Y-13658850I-20000J0D01*
G01*
X11659550Y-13163550D02*
G75*
G03*
X11659550Y-13163550I-20000J0D01*
G01*
X11659550Y-13266750D02*
G75*
G03*
X11659550Y-13266750I-20000J0D01*
G01*
X11659550Y-13658850D02*
G75*
G03*
X11659550Y-13658850I-20000J0D01*
G01*
X12154000Y-12351000D02*
G75*
G03*
X12154000Y-12351000I-20000J0D01*
G01*
X12229490Y-12192250D02*
G75*
G03*
X12229490Y-12192250I-20000J0D01*
G01*
X12229490Y-12484350D02*
G75*
G03*
X12229490Y-12484350I-20000J0D01*
G01*
X12292990Y-12351000D02*
G75*
G03*
X12292990Y-12351000I-20000J0D01*
G01*
X13594594Y-13972095D02*
G75*
G03*
X13594594Y-13972095I-20000J0D01*
G01*
X13755700Y-13864100D02*
G75*
G03*
X13755700Y-13864100I-20000J0D01*
G01*
X13755700Y-14080000D02*
G75*
G03*
X13755700Y-14080000I-20000J0D01*
G01*
X13814400Y-13965700D02*
G75*
G03*
X13814400Y-13965700I-20000J0D01*
G01*
X13870000Y-13864100D02*
G75*
G03*
X13870000Y-13864100I-20000J0D01*
G01*
X13870000Y-14080000D02*
G75*
G03*
X13870000Y-14080000I-20000J0D01*
G01*
X15168560Y-6667500D02*
G75*
G03*
X15168560Y-6667500I-20000J0D01*
G01*
X17270000Y-9200000D02*
G75*
G03*
X17270000Y-9200000I-20000J0D01*
G01*
X14123200Y-5511300D02*
X14123200Y-5571300D01*
X14093200Y-5541300D02*
X14153200Y-5541300D01*
X14153200Y-5571300D02*
X14153200Y-5511300D01*
X14153200Y-5511300D02*
G75*
G03*
X14093200Y-5511300I-30000J0D01*
G01*
X14093200Y-5511300D02*
X14093200Y-5571300D01*
X14093200Y-5571300D02*
G75*
G03*
X14153200Y-5571300I30000J0D01*
G01*
X14123200Y-5925300D02*
X14123200Y-5985300D01*
X14093200Y-5955300D02*
X14153200Y-5955300D01*
X14153200Y-6010300D02*
X14153200Y-5900300D01*
X14153200Y-5900300D02*
G75*
G03*
X14093200Y-5900300I-30000J0D01*
G01*
X14093200Y-5900300D02*
X14093200Y-6010300D01*
X14093200Y-6010300D02*
G75*
G03*
X14153200Y-6010300I30000J0D01*
G01*
X14987200Y-5511300D02*
X14987200Y-5571300D01*
X14957200Y-5541300D02*
X15017200Y-5541300D01*
X15017200Y-5571300D02*
X15017200Y-5511300D01*
X15017200Y-5511300D02*
G75*
G03*
X14957200Y-5511300I-30000J0D01*
G01*
X14957200Y-5511300D02*
X14957200Y-5571300D01*
X14957200Y-5571300D02*
G75*
G03*
X15017200Y-5571300I30000J0D01*
G01*
X14987200Y-5925300D02*
X14987200Y-5985300D01*
X14957200Y-5955300D02*
X15017200Y-5955300D01*
X15017200Y-6010300D02*
X15017200Y-5900300D01*
X15017200Y-5900300D02*
G75*
G03*
X14957200Y-5900300I-30000J0D01*
G01*
X14957200Y-5900300D02*
X14957200Y-6010300D01*
X14957200Y-6010300D02*
G75*
G03*
X15017200Y-6010300I30000J0D01*
G01*
X13206941Y-7616941D02*
X13206941Y-7563059D01*
X13153059Y-7563059D01*
X13153059Y-7616941D01*
X13206941Y-7616941D01*
X16089941Y-6926941D02*
X16089941Y-6873059D01*
X16036059Y-6873059D01*
X16036059Y-6926941D01*
X16089941Y-6926941D01*
X10575000Y-6561400D02*
X10615000Y-6521400D01*
X10575000Y-6481400D01*
X10535000Y-6521400D01*
X10575000Y-6561400D01*
X10575000Y-6761400D02*
X10615000Y-6721400D01*
X10575000Y-6681400D01*
X10535000Y-6721400D01*
X10575000Y-6761400D01*
X10575000Y-6961400D02*
X10615000Y-6921400D01*
X10575000Y-6881400D01*
X10535000Y-6921400D01*
X10575000Y-6961400D01*
X10575000Y-7161400D02*
X10615000Y-7121400D01*
X10575000Y-7081400D01*
X10535000Y-7121400D01*
X10575000Y-7161400D01*
X10575000Y-7361400D02*
X10615000Y-7321400D01*
X10575000Y-7281400D01*
X10535000Y-7321400D01*
X10575000Y-7361400D01*
X10575000Y-7561400D02*
X10615000Y-7521400D01*
X10575000Y-7481400D01*
X10535000Y-7521400D01*
X10575000Y-7561400D01*
X10575000Y-7761400D02*
X10615000Y-7721400D01*
X10575000Y-7681400D01*
X10535000Y-7721400D01*
X10575000Y-7761400D01*
X10580000Y-8320000D02*
X10620000Y-8280000D01*
X10580000Y-8240000D01*
X10540000Y-8280000D01*
X10580000Y-8320000D01*
X10580000Y-8520000D02*
X10620000Y-8480000D01*
X10580000Y-8440000D01*
X10540000Y-8480000D01*
X10580000Y-8520000D01*
X10580000Y-8720000D02*
X10620000Y-8680000D01*
X10580000Y-8640000D01*
X10540000Y-8680000D01*
X10580000Y-8720000D01*
X10580000Y-8920000D02*
X10620000Y-8880000D01*
X10580000Y-8840000D01*
X10540000Y-8880000D01*
X10580000Y-8920000D01*
X10580000Y-9120000D02*
X10620000Y-9080000D01*
X10580000Y-9040000D01*
X10540000Y-9080000D01*
X10580000Y-9120000D01*
X11620500Y-7314000D02*
X11660500Y-7274000D01*
X11620500Y-7234000D01*
X11580500Y-7274000D01*
X11620500Y-7314000D01*
X11620500Y-7514000D02*
X11660500Y-7474000D01*
X11620500Y-7434000D01*
X11580500Y-7474000D01*
X11620500Y-7514000D01*
X11620500Y-7714000D02*
X11660500Y-7674000D01*
X11620500Y-7634000D01*
X11580500Y-7674000D01*
X11620500Y-7714000D01*
X11620500Y-7914000D02*
X11660500Y-7874000D01*
X11620500Y-7834000D01*
X11580500Y-7874000D01*
X11620500Y-7914000D01*
X11620500Y-8114000D02*
X11660500Y-8074000D01*
X11620500Y-8034000D01*
X11580500Y-8074000D01*
X11620500Y-8114000D01*
X11620500Y-8314000D02*
X11660500Y-8274000D01*
X11620500Y-8234000D01*
X11580500Y-8274000D01*
X11620500Y-8314000D01*
X11620500Y-8514000D02*
X11660500Y-8474000D01*
X11620500Y-8434000D01*
X11580500Y-8474000D01*
X11620500Y-8514000D01*
X11620500Y-8714000D02*
X11660500Y-8674000D01*
X11620500Y-8634000D01*
X11580500Y-8674000D01*
X11620500Y-8714000D01*
X11645000Y-5945000D02*
X11685000Y-5905000D01*
X11645000Y-5865000D01*
X11605000Y-5905000D01*
X11645000Y-5945000D01*
X11845000Y-5945000D02*
X11885000Y-5905000D01*
X11845000Y-5865000D01*
X11805000Y-5905000D01*
X11845000Y-5945000D01*
X12045000Y-5945000D02*
X12085000Y-5905000D01*
X12045000Y-5865000D01*
X12005000Y-5905000D01*
X12045000Y-5945000D01*
X12245000Y-5945000D02*
X12285000Y-5905000D01*
X12245000Y-5865000D01*
X12205000Y-5905000D01*
X12245000Y-5945000D01*
X12445000Y-5945000D02*
X12485000Y-5905000D01*
X12445000Y-5865000D01*
X12405000Y-5905000D01*
X12445000Y-5945000D01*
X12610000Y-7350000D02*
X12650000Y-7310000D01*
X12610000Y-7270000D01*
X12570000Y-7310000D01*
X12610000Y-7350000D01*
X12610000Y-7550000D02*
X12650000Y-7510000D01*
X12610000Y-7470000D01*
X12570000Y-7510000D01*
X12610000Y-7550000D01*
X12610000Y-7750000D02*
X12650000Y-7710000D01*
X12610000Y-7670000D01*
X12570000Y-7710000D01*
X12610000Y-7750000D01*
X12610000Y-7950000D02*
X12650000Y-7910000D01*
X12610000Y-7870000D01*
X12570000Y-7910000D01*
X12610000Y-7950000D01*
X12610000Y-8150000D02*
X12650000Y-8110000D01*
X12610000Y-8070000D01*
X12570000Y-8110000D01*
X12610000Y-8150000D01*
X12610000Y-8350000D02*
X12650000Y-8310000D01*
X12610000Y-8270000D01*
X12570000Y-8310000D01*
X12610000Y-8350000D01*
X12645000Y-5945000D02*
X12685000Y-5905000D01*
X12645000Y-5865000D01*
X12605000Y-5905000D01*
X12645000Y-5945000D01*
X12845000Y-5945000D02*
X12885000Y-5905000D01*
X12845000Y-5865000D01*
X12805000Y-5905000D01*
X12845000Y-5945000D01*
X14277500Y-11967500D02*
X14317500Y-11927500D01*
X14277500Y-11887500D01*
X14237500Y-11927500D01*
X14277500Y-11967500D01*
X14277500Y-12167500D02*
X14317500Y-12127500D01*
X14277500Y-12087500D01*
X14237500Y-12127500D01*
X14277500Y-12167500D01*
X14277500Y-12367500D02*
X14317500Y-12327500D01*
X14277500Y-12287500D01*
X14237500Y-12327500D01*
X14277500Y-12367500D01*
X14277500Y-12567500D02*
X14317500Y-12527500D01*
X14277500Y-12487500D01*
X14237500Y-12527500D01*
X14277500Y-12567500D01*
X14277500Y-12767500D02*
X14317500Y-12727500D01*
X14277500Y-12687500D01*
X14237500Y-12727500D01*
X14277500Y-12767500D01*
X14277500Y-12967500D02*
X14317500Y-12927500D01*
X14277500Y-12887500D01*
X14237500Y-12927500D01*
X14277500Y-12967500D01*
X14277500Y-13167500D02*
X14317500Y-13127500D01*
X14277500Y-13087500D01*
X14237500Y-13127500D01*
X14277500Y-13167500D01*
X14277500Y-13367500D02*
X14317500Y-13327500D01*
X14277500Y-13287500D01*
X14237500Y-13327500D01*
X14277500Y-13367500D01*
X14277500Y-13567500D02*
X14317500Y-13527500D01*
X14277500Y-13487500D01*
X14237500Y-13527500D01*
X14277500Y-13567500D01*
X14277500Y-13767500D02*
X14317500Y-13727500D01*
X14277500Y-13687500D01*
X14237500Y-13727500D01*
X14277500Y-13767500D01*
X14754864Y-14332000D02*
X14794864Y-14292000D01*
X14754864Y-14252000D01*
X14714864Y-14292000D01*
X14754864Y-14332000D01*
X14954864Y-14332000D02*
X14994864Y-14292000D01*
X14954864Y-14252000D01*
X14914864Y-14292000D01*
X14954864Y-14332000D01*
X15154864Y-14332000D02*
X15194864Y-14292000D01*
X15154864Y-14252000D01*
X15114864Y-14292000D01*
X15154864Y-14332000D01*
X15354864Y-14332000D02*
X15394864Y-14292000D01*
X15354864Y-14252000D01*
X15314864Y-14292000D01*
X15354864Y-14332000D01*
X15848400Y-14332000D02*
X15888400Y-14292000D01*
X15848400Y-14252000D01*
X15808400Y-14292000D01*
X15848400Y-14332000D01*
X16048400Y-14332000D02*
X16088400Y-14292000D01*
X16048400Y-14252000D01*
X16008400Y-14292000D01*
X16048400Y-14332000D01*
X16248400Y-14332000D02*
X16288400Y-14292000D01*
X16248400Y-14252000D01*
X16208400Y-14292000D01*
X16248400Y-14332000D01*
X16448400Y-14332000D02*
X16488400Y-14292000D01*
X16448400Y-14252000D01*
X16408400Y-14292000D01*
X16448400Y-14332000D01*
X16648400Y-14332000D02*
X16688400Y-14292000D01*
X16648400Y-14252000D01*
X16608400Y-14292000D01*
X16648400Y-14332000D01*
X17153750Y-14332000D02*
X17193750Y-14292000D01*
X17153750Y-14252000D01*
X17113750Y-14292000D01*
X17153750Y-14332000D01*
X17353750Y-14332000D02*
X17393750Y-14292000D01*
X17353750Y-14252000D01*
X17313750Y-14292000D01*
X17353750Y-14332000D01*
X17553750Y-14332000D02*
X17593750Y-14292000D01*
X17553750Y-14252000D01*
X17513750Y-14292000D01*
X17553750Y-14332000D01*
X17753750Y-14332000D02*
X17793750Y-14292000D01*
X17753750Y-14252000D01*
X17713750Y-14292000D01*
X17753750Y-14332000D01*
X18120000Y-7045000D02*
X18160000Y-7005000D01*
X18120000Y-6965000D01*
X18080000Y-7005000D01*
X18120000Y-7045000D01*
X18120000Y-7245000D02*
X18160000Y-7205000D01*
X18120000Y-7165000D01*
X18080000Y-7205000D01*
X18120000Y-7245000D01*
X18120000Y-7445000D02*
X18160000Y-7405000D01*
X18120000Y-7365000D01*
X18080000Y-7405000D01*
X18120000Y-7445000D01*
X18120000Y-7645000D02*
X18160000Y-7605000D01*
X18120000Y-7565000D01*
X18080000Y-7605000D01*
X18120000Y-7645000D01*
X18120000Y-7845000D02*
X18160000Y-7805000D01*
X18120000Y-7765000D01*
X18080000Y-7805000D01*
X18120000Y-7845000D01*
X18120000Y-8045000D02*
X18160000Y-8005000D01*
X18120000Y-7965000D01*
X18080000Y-8005000D01*
X18120000Y-8045000D01*
X18120000Y-8245000D02*
X18160000Y-8205000D01*
X18120000Y-8165000D01*
X18080000Y-8205000D01*
X18120000Y-8245000D01*
X18120000Y-8445000D02*
X18160000Y-8405000D01*
X18120000Y-8365000D01*
X18080000Y-8405000D01*
X18120000Y-8445000D01*
X18149100Y-11630000D02*
X18189100Y-11590000D01*
X18149100Y-11550000D01*
X18109100Y-11590000D01*
X18149100Y-11630000D01*
X18149100Y-11830000D02*
X18189100Y-11790000D01*
X18149100Y-11750000D01*
X18109100Y-11790000D01*
X18149100Y-11830000D01*
X18149100Y-12030000D02*
X18189100Y-11990000D01*
X18149100Y-11950000D01*
X18109100Y-11990000D01*
X18149100Y-12030000D01*
X18149100Y-12230000D02*
X18189100Y-12190000D01*
X18149100Y-12150000D01*
X18109100Y-12190000D01*
X18149100Y-12230000D01*
X18149100Y-12430000D02*
X18189100Y-12390000D01*
X18149100Y-12350000D01*
X18109100Y-12390000D01*
X18149100Y-12430000D01*
X18149100Y-12630000D02*
X18189100Y-12590000D01*
X18149100Y-12550000D01*
X18109100Y-12590000D01*
X18149100Y-12630000D01*
X18149100Y-12830000D02*
X18189100Y-12790000D01*
X18149100Y-12750000D01*
X18109100Y-12790000D01*
X18149100Y-12830000D01*
X18149100Y-13030000D02*
X18189100Y-12990000D01*
X18149100Y-12950000D01*
X18109100Y-12990000D01*
X18149100Y-13030000D01*
X18149100Y-13230000D02*
X18189100Y-13190000D01*
X18149100Y-13150000D01*
X18109100Y-13190000D01*
X18149100Y-13230000D01*
X11178000Y-6520000D02*
X11278000Y-6620000D01*
X11278000Y-6520000D02*
X11178000Y-6620000D01*
X11278000Y-6570000D02*
G75*
G03*
X11278000Y-6570000I-50000J0D01*
G01*
X11178000Y-6774000D02*
X11278000Y-6874000D01*
X11278000Y-6774000D02*
X11178000Y-6874000D01*
X11278000Y-6824000D02*
G75*
G03*
X11278000Y-6824000I-50000J0D01*
G01*
X11432000Y-6520000D02*
X11532000Y-6620000D01*
X11532000Y-6520000D02*
X11432000Y-6620000D01*
X11532000Y-6570000D02*
G75*
G03*
X11532000Y-6570000I-50000J0D01*
G01*
X11432000Y-6774000D02*
X11532000Y-6874000D01*
X11532000Y-6774000D02*
X11432000Y-6874000D01*
X11532000Y-6824000D02*
G75*
G03*
X11532000Y-6824000I-50000J0D01*
G01*
X11686000Y-6520000D02*
X11786000Y-6620000D01*
X11786000Y-6520000D02*
X11686000Y-6620000D01*
X11786000Y-6570000D02*
G75*
G03*
X11786000Y-6570000I-50000J0D01*
G01*
X11686000Y-6774000D02*
X11786000Y-6874000D01*
X11786000Y-6774000D02*
X11686000Y-6874000D01*
X11786000Y-6824000D02*
G75*
G03*
X11786000Y-6824000I-50000J0D01*
G01*
X11940000Y-6520000D02*
X12040000Y-6620000D01*
X12040000Y-6520000D02*
X11940000Y-6620000D01*
X12040000Y-6570000D02*
G75*
G03*
X12040000Y-6570000I-50000J0D01*
G01*
X11940000Y-6774000D02*
X12040000Y-6874000D01*
X12040000Y-6774000D02*
X11940000Y-6874000D01*
X12040000Y-6824000D02*
G75*
G03*
X12040000Y-6824000I-50000J0D01*
G01*
X12194000Y-6520000D02*
X12294000Y-6620000D01*
X12294000Y-6520000D02*
X12194000Y-6620000D01*
X12294000Y-6570000D02*
G75*
G03*
X12294000Y-6570000I-50000J0D01*
G01*
X12194000Y-6774000D02*
X12294000Y-6874000D01*
X12294000Y-6774000D02*
X12194000Y-6874000D01*
X12294000Y-6824000D02*
G75*
G03*
X12294000Y-6824000I-50000J0D01*
G01*
X12448000Y-6520000D02*
X12548000Y-6620000D01*
X12548000Y-6520000D02*
X12448000Y-6620000D01*
X12548000Y-6570000D02*
G75*
G03*
X12548000Y-6570000I-50000J0D01*
G01*
X12448000Y-6774000D02*
X12548000Y-6874000D01*
X12548000Y-6774000D02*
X12448000Y-6874000D01*
X12548000Y-6824000D02*
G75*
G03*
X12548000Y-6824000I-50000J0D01*
G01*
X12702000Y-6520000D02*
X12802000Y-6620000D01*
X12802000Y-6520000D02*
X12702000Y-6620000D01*
X12802000Y-6570000D02*
G75*
G03*
X12802000Y-6570000I-50000J0D01*
G01*
X12702000Y-6774000D02*
X12802000Y-6874000D01*
X12802000Y-6774000D02*
X12702000Y-6874000D01*
X12802000Y-6824000D02*
G75*
G03*
X12802000Y-6824000I-50000J0D01*
G01*
X12956000Y-6520000D02*
X13056000Y-6620000D01*
X13056000Y-6520000D02*
X12956000Y-6620000D01*
X13056000Y-6570000D02*
G75*
G03*
X13056000Y-6570000I-50000J0D01*
G01*
X12956000Y-6774000D02*
X13056000Y-6874000D01*
X13056000Y-6774000D02*
X12956000Y-6874000D01*
X13056000Y-6824000D02*
G75*
G03*
X13056000Y-6824000I-50000J0D01*
G01*
X13210000Y-6520000D02*
X13310000Y-6620000D01*
X13310000Y-6520000D02*
X13210000Y-6620000D01*
X13310000Y-6570000D02*
G75*
G03*
X13310000Y-6570000I-50000J0D01*
G01*
X13210000Y-6774000D02*
X13310000Y-6874000D01*
X13310000Y-6774000D02*
X13210000Y-6874000D01*
X13310000Y-6824000D02*
G75*
G03*
X13310000Y-6824000I-50000J0D01*
G01*
X15164600Y-6973100D02*
X15264600Y-7073100D01*
X15264600Y-6973100D02*
X15164600Y-7073100D01*
X15264600Y-7023100D02*
G75*
G03*
X15264600Y-7023100I-50000J0D01*
G01*
X15418600Y-6973100D02*
X15518600Y-7073100D01*
X15518600Y-6973100D02*
X15418600Y-7073100D01*
X15518600Y-7023100D02*
G75*
G03*
X15518600Y-7023100I-50000J0D01*
G01*
X15672600Y-6973100D02*
X15772600Y-7073100D01*
X15772600Y-6973100D02*
X15672600Y-7073100D01*
X15772600Y-7023100D02*
G75*
G03*
X15772600Y-7023100I-50000J0D01*
G01*
X15926600Y-6973100D02*
X16026600Y-7073100D01*
X16026600Y-6973100D02*
X15926600Y-7073100D01*
X16026600Y-7023100D02*
G75*
G03*
X16026600Y-7023100I-50000J0D01*
G01*
X16180600Y-6973100D02*
X16280600Y-7073100D01*
X16280600Y-6973100D02*
X16180600Y-7073100D01*
X16280600Y-7023100D02*
G75*
G03*
X16280600Y-7023100I-50000J0D01*
G01*
X16434600Y-6973100D02*
X16534600Y-7073100D01*
X16534600Y-6973100D02*
X16434600Y-7073100D01*
X16534600Y-7023100D02*
G75*
G03*
X16534600Y-7023100I-50000J0D01*
G01*
D13*
X13930320Y-7184080D02*
X14050320Y-7304080D01*
X14050320Y-7184080D02*
X13930320Y-7304080D01*
X13990320Y-7184080D02*
X13990320Y-7304080D01*
X13930320Y-7244080D02*
X14050320Y-7244080D01*
X13930320Y-7534080D02*
X14050320Y-7654080D01*
X14050320Y-7534080D02*
X13930320Y-7654080D01*
X13990320Y-7534080D02*
X13990320Y-7654080D01*
X13930320Y-7594080D02*
X14050320Y-7594080D01*
X13935400Y-7935920D02*
X14055400Y-8055920D01*
X14055400Y-7935920D02*
X13935400Y-8055920D01*
X13995400Y-7935920D02*
X13995400Y-8055920D01*
X13935400Y-7995920D02*
X14055400Y-7995920D01*
X13935400Y-8285920D02*
X14055400Y-8405920D01*
X14055400Y-8285920D02*
X13935400Y-8405920D01*
X13995400Y-8285920D02*
X13995400Y-8405920D01*
X13935400Y-8345920D02*
X14055400Y-8345920D01*
X17293280Y-7234880D02*
X17413280Y-7354880D01*
X17413280Y-7234880D02*
X17293280Y-7354880D01*
X17353280Y-7234880D02*
X17353280Y-7354880D01*
X17293280Y-7294880D02*
X17413280Y-7294880D01*
X17293280Y-7584880D02*
X17413280Y-7704880D01*
X17413280Y-7584880D02*
X17293280Y-7704880D01*
X17353280Y-7584880D02*
X17353280Y-7704880D01*
X17293280Y-7644880D02*
X17413280Y-7644880D01*
X17293280Y-7961320D02*
X17413280Y-8081320D01*
X17413280Y-7961320D02*
X17293280Y-8081320D01*
X17353280Y-7961320D02*
X17353280Y-8081320D01*
X17293280Y-8021320D02*
X17413280Y-8021320D01*
X17293280Y-8311320D02*
X17413280Y-8431320D01*
X17413280Y-8311320D02*
X17293280Y-8431320D01*
X17353280Y-8311320D02*
X17353280Y-8431320D01*
X17293280Y-8371320D02*
X17413280Y-8371320D01*
D14*
X15635230Y-5923230D02*
X15764770Y-6052770D01*
X15764770Y-5923230D02*
X15635230Y-6052770D01*
X15745800Y-6033800D02*
X15745800Y-5942200D01*
X15654200Y-5942200D01*
X15654200Y-6033800D01*
X15745800Y-6033800D01*
X15635230Y-6685230D02*
X15764770Y-6814770D01*
X15764770Y-6685230D02*
X15635230Y-6814770D01*
X15745800Y-6795800D02*
X15745800Y-6704200D01*
X15654200Y-6704200D01*
X15654200Y-6795800D01*
X15745800Y-6795800D01*
X16651230Y-6685230D02*
X16780770Y-6814770D01*
X16780770Y-6685230D02*
X16651230Y-6814770D01*
X16761800Y-6795800D02*
X16761800Y-6704200D01*
X16670200Y-6704200D01*
X16670200Y-6795800D01*
X16761800Y-6795800D01*
X17413230Y-5923230D02*
X17542770Y-6052770D01*
X17542770Y-5923230D02*
X17413230Y-6052770D01*
X17523800Y-6033800D02*
X17523800Y-5942200D01*
X17432200Y-5942200D01*
X17432200Y-6033800D01*
X17523800Y-6033800D01*
X17413230Y-6685230D02*
X17542770Y-6814770D01*
X17542770Y-6685230D02*
X17413230Y-6814770D01*
X17523800Y-6795800D02*
X17523800Y-6704200D01*
X17432200Y-6704200D01*
X17432200Y-6795800D01*
X17523800Y-6795800D01*
D10*
X10319950Y-12961550D02*
X10469950Y-13111550D01*
X10469950Y-12961550D02*
X10319950Y-13111550D01*
X10394950Y-13111550D02*
X10469950Y-13036550D01*
X10394950Y-12961550D01*
X10319950Y-13036550D01*
X10394950Y-13111550D01*
D15*
X10140950Y-12697550D02*
X10140950Y-12867550D01*
X10055950Y-12782550D02*
X10225950Y-12782550D01*
X10225950Y-12782550D02*
G75*
G03*
X10225950Y-12782550I-85000J0D01*
G01*
X10140950Y-13205550D02*
X10140950Y-13375550D01*
X10055950Y-13290550D02*
X10225950Y-13290550D01*
X10225950Y-13290550D02*
G75*
G03*
X10225950Y-13290550I-85000J0D01*
G01*
X10648950Y-12697550D02*
X10648950Y-12867550D01*
X10563950Y-12782550D02*
X10733950Y-12782550D01*
X10733950Y-12782550D02*
G75*
G03*
X10733950Y-12782550I-85000J0D01*
G01*
X10648950Y-13205550D02*
X10648950Y-13375550D01*
X10563950Y-13290550D02*
X10733950Y-13290550D01*
X10733950Y-13290550D02*
G75*
G03*
X10733950Y-13290550I-85000J0D01*
G01*
D16*
X10455748Y-14442548D02*
X10455748Y-14216272D01*
X10229472Y-14216272D01*
X10229472Y-14442548D01*
X10455748Y-14442548D01*
X10502610Y-14329410D02*
G75*
G03*
X10502610Y-14329410I-160000J0D01*
G01*
X10836748Y-5869548D02*
X10836748Y-5643272D01*
X10610472Y-5643272D01*
X10610472Y-5869548D01*
X10836748Y-5869548D01*
X10883610Y-5756410D02*
G75*
G03*
X10883610Y-5756410I-160000J0D01*
G01*
X18202748Y-5869548D02*
X18202748Y-5643272D01*
X17976472Y-5643272D01*
X17976472Y-5869548D01*
X18202748Y-5869548D01*
X18249610Y-5756410D02*
G75*
G03*
X18249610Y-5756410I-160000J0D01*
G01*
X18455748Y-14442548D02*
X18455748Y-14216272D01*
X18229472Y-14216272D01*
X18229472Y-14442548D01*
X18455748Y-14442548D01*
X18502610Y-14329410D02*
G75*
G03*
X18502610Y-14329410I-160000J0D01*
G01*
D11*
X10083297Y-15157664D02*
X10083297Y-14957664D01*
X10083297Y-14957664D02*
X10130916Y-14957664D01*
X10130916Y-14957664D02*
X10159487Y-14967188D01*
X10159487Y-14967188D02*
X10178535Y-14986235D01*
X10178535Y-14986235D02*
X10188059Y-15005283D01*
X10188059Y-15005283D02*
X10197583Y-15043378D01*
X10197583Y-15043378D02*
X10197583Y-15071949D01*
X10197583Y-15071949D02*
X10188059Y-15110045D01*
X10188059Y-15110045D02*
X10178535Y-15129092D01*
X10178535Y-15129092D02*
X10159487Y-15148140D01*
X10159487Y-15148140D02*
X10130916Y-15157664D01*
X10130916Y-15157664D02*
X10083297Y-15157664D01*
X10283297Y-15157664D02*
X10283297Y-15024330D01*
X10283297Y-15062426D02*
X10292821Y-15043378D01*
X10292821Y-15043378D02*
X10302344Y-15033854D01*
X10302344Y-15033854D02*
X10321392Y-15024330D01*
X10321392Y-15024330D02*
X10340440Y-15024330D01*
X10407106Y-15157664D02*
X10407106Y-15024330D01*
X10407106Y-14957664D02*
X10397583Y-14967188D01*
X10397583Y-14967188D02*
X10407106Y-14976711D01*
X10407106Y-14976711D02*
X10416630Y-14967188D01*
X10416630Y-14967188D02*
X10407106Y-14957664D01*
X10407106Y-14957664D02*
X10407106Y-14976711D01*
X10530916Y-15157664D02*
X10511868Y-15148140D01*
X10511868Y-15148140D02*
X10502344Y-15129092D01*
X10502344Y-15129092D02*
X10502344Y-14957664D01*
X10635678Y-15157664D02*
X10616630Y-15148140D01*
X10616630Y-15148140D02*
X10607106Y-15129092D01*
X10607106Y-15129092D02*
X10607106Y-14957664D01*
X10864249Y-15157664D02*
X10864249Y-14957664D01*
X10864249Y-14957664D02*
X10930916Y-15100521D01*
X10930916Y-15100521D02*
X10997583Y-14957664D01*
X10997583Y-14957664D02*
X10997583Y-15157664D01*
X11178535Y-15157664D02*
X11178535Y-15052902D01*
X11178535Y-15052902D02*
X11169011Y-15033854D01*
X11169011Y-15033854D02*
X11149964Y-15024330D01*
X11149964Y-15024330D02*
X11111868Y-15024330D01*
X11111868Y-15024330D02*
X11092821Y-15033854D01*
X11178535Y-15148140D02*
X11159487Y-15157664D01*
X11159487Y-15157664D02*
X11111868Y-15157664D01*
X11111868Y-15157664D02*
X11092821Y-15148140D01*
X11092821Y-15148140D02*
X11083297Y-15129092D01*
X11083297Y-15129092D02*
X11083297Y-15110045D01*
X11083297Y-15110045D02*
X11092821Y-15090997D01*
X11092821Y-15090997D02*
X11111868Y-15081473D01*
X11111868Y-15081473D02*
X11159487Y-15081473D01*
X11159487Y-15081473D02*
X11178535Y-15071949D01*
X11273773Y-15024330D02*
X11273773Y-15224330D01*
X11273773Y-15033854D02*
X11292821Y-15024330D01*
X11292821Y-15024330D02*
X11330916Y-15024330D01*
X11330916Y-15024330D02*
X11349963Y-15033854D01*
X11349963Y-15033854D02*
X11359487Y-15043378D01*
X11359487Y-15043378D02*
X11369011Y-15062426D01*
X11369011Y-15062426D02*
X11369011Y-15119568D01*
X11369011Y-15119568D02*
X11359487Y-15138616D01*
X11359487Y-15138616D02*
X11349963Y-15148140D01*
X11349963Y-15148140D02*
X11330916Y-15157664D01*
X11330916Y-15157664D02*
X11292821Y-15157664D01*
X11292821Y-15157664D02*
X11273773Y-15148140D01*
X11454725Y-15138616D02*
X11464249Y-15148140D01*
X11464249Y-15148140D02*
X11454725Y-15157664D01*
X11454725Y-15157664D02*
X11445202Y-15148140D01*
X11445202Y-15148140D02*
X11454725Y-15138616D01*
X11454725Y-15138616D02*
X11454725Y-15157664D01*
X11454725Y-15033854D02*
X11464249Y-15043378D01*
X11464249Y-15043378D02*
X11454725Y-15052902D01*
X11454725Y-15052902D02*
X11445202Y-15043378D01*
X11445202Y-15043378D02*
X11454725Y-15033854D01*
X11454725Y-15033854D02*
X11454725Y-15052902D01*
D12*
X9784420Y-15467130D02*
X9822520Y-15505230D01*
X9822520Y-15467130D02*
X9784420Y-15505230D01*
D11*
X10121392Y-15377664D02*
X10140440Y-15377664D01*
X10140440Y-15377664D02*
X10159487Y-15387188D01*
X10159487Y-15387188D02*
X10169011Y-15396711D01*
X10169011Y-15396711D02*
X10178535Y-15415759D01*
X10178535Y-15415759D02*
X10188059Y-15453854D01*
X10188059Y-15453854D02*
X10188059Y-15501473D01*
X10188059Y-15501473D02*
X10178535Y-15539568D01*
X10178535Y-15539568D02*
X10169011Y-15558616D01*
X10169011Y-15558616D02*
X10159487Y-15568140D01*
X10159487Y-15568140D02*
X10140440Y-15577664D01*
X10140440Y-15577664D02*
X10121392Y-15577664D01*
X10121392Y-15577664D02*
X10102344Y-15568140D01*
X10102344Y-15568140D02*
X10092821Y-15558616D01*
X10092821Y-15558616D02*
X10083297Y-15539568D01*
X10083297Y-15539568D02*
X10073773Y-15501473D01*
X10073773Y-15501473D02*
X10073773Y-15453854D01*
X10073773Y-15453854D02*
X10083297Y-15415759D01*
X10083297Y-15415759D02*
X10092821Y-15396711D01*
X10092821Y-15396711D02*
X10102344Y-15387188D01*
X10102344Y-15387188D02*
X10121392Y-15377664D01*
X10273773Y-15558616D02*
X10283297Y-15568140D01*
X10283297Y-15568140D02*
X10273773Y-15577664D01*
X10273773Y-15577664D02*
X10264249Y-15568140D01*
X10264249Y-15568140D02*
X10273773Y-15558616D01*
X10273773Y-15558616D02*
X10273773Y-15577664D01*
X10349964Y-15377664D02*
X10473773Y-15377664D01*
X10473773Y-15377664D02*
X10407106Y-15453854D01*
X10407106Y-15453854D02*
X10435678Y-15453854D01*
X10435678Y-15453854D02*
X10454725Y-15463378D01*
X10454725Y-15463378D02*
X10464249Y-15472902D01*
X10464249Y-15472902D02*
X10473773Y-15491949D01*
X10473773Y-15491949D02*
X10473773Y-15539568D01*
X10473773Y-15539568D02*
X10464249Y-15558616D01*
X10464249Y-15558616D02*
X10454725Y-15568140D01*
X10454725Y-15568140D02*
X10435678Y-15577664D01*
X10435678Y-15577664D02*
X10378535Y-15577664D01*
X10378535Y-15577664D02*
X10359487Y-15568140D01*
X10359487Y-15568140D02*
X10349964Y-15558616D01*
X10588059Y-15463378D02*
X10569011Y-15453854D01*
X10569011Y-15453854D02*
X10559487Y-15444330D01*
X10559487Y-15444330D02*
X10549964Y-15425283D01*
X10549964Y-15425283D02*
X10549964Y-15415759D01*
X10549964Y-15415759D02*
X10559487Y-15396711D01*
X10559487Y-15396711D02*
X10569011Y-15387188D01*
X10569011Y-15387188D02*
X10588059Y-15377664D01*
X10588059Y-15377664D02*
X10626154Y-15377664D01*
X10626154Y-15377664D02*
X10645202Y-15387188D01*
X10645202Y-15387188D02*
X10654725Y-15396711D01*
X10654725Y-15396711D02*
X10664249Y-15415759D01*
X10664249Y-15415759D02*
X10664249Y-15425283D01*
X10664249Y-15425283D02*
X10654725Y-15444330D01*
X10654725Y-15444330D02*
X10645202Y-15453854D01*
X10645202Y-15453854D02*
X10626154Y-15463378D01*
X10626154Y-15463378D02*
X10588059Y-15463378D01*
X10588059Y-15463378D02*
X10569011Y-15472902D01*
X10569011Y-15472902D02*
X10559487Y-15482426D01*
X10559487Y-15482426D02*
X10549964Y-15501473D01*
X10549964Y-15501473D02*
X10549964Y-15539568D01*
X10549964Y-15539568D02*
X10559487Y-15558616D01*
X10559487Y-15558616D02*
X10569011Y-15568140D01*
X10569011Y-15568140D02*
X10588059Y-15577664D01*
X10588059Y-15577664D02*
X10626154Y-15577664D01*
X10626154Y-15577664D02*
X10645202Y-15568140D01*
X10645202Y-15568140D02*
X10654725Y-15558616D01*
X10654725Y-15558616D02*
X10664249Y-15539568D01*
X10664249Y-15539568D02*
X10664249Y-15501473D01*
X10664249Y-15501473D02*
X10654725Y-15482426D01*
X10654725Y-15482426D02*
X10645202Y-15472902D01*
X10645202Y-15472902D02*
X10626154Y-15463378D01*
X10854725Y-15577664D02*
X10740440Y-15577664D01*
X10797583Y-15577664D02*
X10797583Y-15377664D01*
X10797583Y-15377664D02*
X10778535Y-15406235D01*
X10778535Y-15406235D02*
X10759487Y-15425283D01*
X10759487Y-15425283D02*
X10740440Y-15434807D01*
X10940440Y-15577664D02*
X10940440Y-15444330D01*
X10940440Y-15463378D02*
X10949964Y-15453854D01*
X10949964Y-15453854D02*
X10969011Y-15444330D01*
X10969011Y-15444330D02*
X10997583Y-15444330D01*
X10997583Y-15444330D02*
X11016630Y-15453854D01*
X11016630Y-15453854D02*
X11026154Y-15472902D01*
X11026154Y-15472902D02*
X11026154Y-15577664D01*
X11026154Y-15472902D02*
X11035678Y-15453854D01*
X11035678Y-15453854D02*
X11054725Y-15444330D01*
X11054725Y-15444330D02*
X11083297Y-15444330D01*
X11083297Y-15444330D02*
X11102345Y-15453854D01*
X11102345Y-15453854D02*
X11111868Y-15472902D01*
X11111868Y-15472902D02*
X11111868Y-15577664D01*
X11207106Y-15577664D02*
X11207106Y-15444330D01*
X11207106Y-15463378D02*
X11216630Y-15453854D01*
X11216630Y-15453854D02*
X11235678Y-15444330D01*
X11235678Y-15444330D02*
X11264249Y-15444330D01*
X11264249Y-15444330D02*
X11283297Y-15453854D01*
X11283297Y-15453854D02*
X11292821Y-15472902D01*
X11292821Y-15472902D02*
X11292821Y-15577664D01*
X11292821Y-15472902D02*
X11302344Y-15453854D01*
X11302344Y-15453854D02*
X11321392Y-15444330D01*
X11321392Y-15444330D02*
X11349963Y-15444330D01*
X11349963Y-15444330D02*
X11369011Y-15453854D01*
X11369011Y-15453854D02*
X11378535Y-15472902D01*
X11378535Y-15472902D02*
X11378535Y-15577664D01*
X11769011Y-15368140D02*
X11597583Y-15625283D01*
X12026154Y-15377664D02*
X12045202Y-15377664D01*
X12045202Y-15377664D02*
X12064249Y-15387188D01*
X12064249Y-15387188D02*
X12073773Y-15396711D01*
X12073773Y-15396711D02*
X12083297Y-15415759D01*
X12083297Y-15415759D02*
X12092821Y-15453854D01*
X12092821Y-15453854D02*
X12092821Y-15501473D01*
X12092821Y-15501473D02*
X12083297Y-15539568D01*
X12083297Y-15539568D02*
X12073773Y-15558616D01*
X12073773Y-15558616D02*
X12064249Y-15568140D01*
X12064249Y-15568140D02*
X12045202Y-15577664D01*
X12045202Y-15577664D02*
X12026154Y-15577664D01*
X12026154Y-15577664D02*
X12007106Y-15568140D01*
X12007106Y-15568140D02*
X11997583Y-15558616D01*
X11997583Y-15558616D02*
X11988059Y-15539568D01*
X11988059Y-15539568D02*
X11978535Y-15501473D01*
X11978535Y-15501473D02*
X11978535Y-15453854D01*
X11978535Y-15453854D02*
X11988059Y-15415759D01*
X11988059Y-15415759D02*
X11997583Y-15396711D01*
X11997583Y-15396711D02*
X12007106Y-15387188D01*
X12007106Y-15387188D02*
X12026154Y-15377664D01*
X12178535Y-15558616D02*
X12188059Y-15568140D01*
X12188059Y-15568140D02*
X12178535Y-15577664D01*
X12178535Y-15577664D02*
X12169011Y-15568140D01*
X12169011Y-15568140D02*
X12178535Y-15558616D01*
X12178535Y-15558616D02*
X12178535Y-15577664D01*
X12311868Y-15377664D02*
X12330916Y-15377664D01*
X12330916Y-15377664D02*
X12349964Y-15387188D01*
X12349964Y-15387188D02*
X12359487Y-15396711D01*
X12359487Y-15396711D02*
X12369011Y-15415759D01*
X12369011Y-15415759D02*
X12378535Y-15453854D01*
X12378535Y-15453854D02*
X12378535Y-15501473D01*
X12378535Y-15501473D02*
X12369011Y-15539568D01*
X12369011Y-15539568D02*
X12359487Y-15558616D01*
X12359487Y-15558616D02*
X12349964Y-15568140D01*
X12349964Y-15568140D02*
X12330916Y-15577664D01*
X12330916Y-15577664D02*
X12311868Y-15577664D01*
X12311868Y-15577664D02*
X12292821Y-15568140D01*
X12292821Y-15568140D02*
X12283297Y-15558616D01*
X12283297Y-15558616D02*
X12273773Y-15539568D01*
X12273773Y-15539568D02*
X12264249Y-15501473D01*
X12264249Y-15501473D02*
X12264249Y-15453854D01*
X12264249Y-15453854D02*
X12273773Y-15415759D01*
X12273773Y-15415759D02*
X12283297Y-15396711D01*
X12283297Y-15396711D02*
X12292821Y-15387188D01*
X12292821Y-15387188D02*
X12311868Y-15377664D01*
X12569011Y-15577664D02*
X12454726Y-15577664D01*
X12511868Y-15577664D02*
X12511868Y-15377664D01*
X12511868Y-15377664D02*
X12492821Y-15406235D01*
X12492821Y-15406235D02*
X12473773Y-15425283D01*
X12473773Y-15425283D02*
X12454726Y-15434807D01*
X12749964Y-15377664D02*
X12654726Y-15377664D01*
X12654726Y-15377664D02*
X12645202Y-15472902D01*
X12645202Y-15472902D02*
X12654726Y-15463378D01*
X12654726Y-15463378D02*
X12673773Y-15453854D01*
X12673773Y-15453854D02*
X12721392Y-15453854D01*
X12721392Y-15453854D02*
X12740440Y-15463378D01*
X12740440Y-15463378D02*
X12749964Y-15472902D01*
X12749964Y-15472902D02*
X12759487Y-15491949D01*
X12759487Y-15491949D02*
X12759487Y-15539568D01*
X12759487Y-15539568D02*
X12749964Y-15558616D01*
X12749964Y-15558616D02*
X12740440Y-15568140D01*
X12740440Y-15568140D02*
X12721392Y-15577664D01*
X12721392Y-15577664D02*
X12673773Y-15577664D01*
X12673773Y-15577664D02*
X12654726Y-15568140D01*
X12654726Y-15568140D02*
X12645202Y-15558616D01*
X12883297Y-15377664D02*
X12902345Y-15377664D01*
X12902345Y-15377664D02*
X12921392Y-15387188D01*
X12921392Y-15387188D02*
X12930916Y-15396711D01*
X12930916Y-15396711D02*
X12940440Y-15415759D01*
X12940440Y-15415759D02*
X12949964Y-15453854D01*
X12949964Y-15453854D02*
X12949964Y-15501473D01*
X12949964Y-15501473D02*
X12940440Y-15539568D01*
X12940440Y-15539568D02*
X12930916Y-15558616D01*
X12930916Y-15558616D02*
X12921392Y-15568140D01*
X12921392Y-15568140D02*
X12902345Y-15577664D01*
X12902345Y-15577664D02*
X12883297Y-15577664D01*
X12883297Y-15577664D02*
X12864249Y-15568140D01*
X12864249Y-15568140D02*
X12854726Y-15558616D01*
X12854726Y-15558616D02*
X12845202Y-15539568D01*
X12845202Y-15539568D02*
X12835678Y-15501473D01*
X12835678Y-15501473D02*
X12835678Y-15453854D01*
X12835678Y-15453854D02*
X12845202Y-15415759D01*
X12845202Y-15415759D02*
X12854726Y-15396711D01*
X12854726Y-15396711D02*
X12864249Y-15387188D01*
X12864249Y-15387188D02*
X12883297Y-15377664D01*
X13026154Y-15377664D02*
X13026154Y-15415759D01*
X13102345Y-15377664D02*
X13102345Y-15415759D01*
X13397583Y-15653854D02*
X13388059Y-15644330D01*
X13388059Y-15644330D02*
X13369011Y-15615759D01*
X13369011Y-15615759D02*
X13359488Y-15596711D01*
X13359488Y-15596711D02*
X13349964Y-15568140D01*
X13349964Y-15568140D02*
X13340440Y-15520521D01*
X13340440Y-15520521D02*
X13340440Y-15482426D01*
X13340440Y-15482426D02*
X13349964Y-15434807D01*
X13349964Y-15434807D02*
X13359488Y-15406235D01*
X13359488Y-15406235D02*
X13369011Y-15387188D01*
X13369011Y-15387188D02*
X13388059Y-15358616D01*
X13388059Y-15358616D02*
X13397583Y-15349092D01*
X13464249Y-15396711D02*
X13473773Y-15387188D01*
X13473773Y-15387188D02*
X13492821Y-15377664D01*
X13492821Y-15377664D02*
X13540440Y-15377664D01*
X13540440Y-15377664D02*
X13559488Y-15387188D01*
X13559488Y-15387188D02*
X13569011Y-15396711D01*
X13569011Y-15396711D02*
X13578535Y-15415759D01*
X13578535Y-15415759D02*
X13578535Y-15434807D01*
X13578535Y-15434807D02*
X13569011Y-15463378D01*
X13569011Y-15463378D02*
X13454726Y-15577664D01*
X13454726Y-15577664D02*
X13578535Y-15577664D01*
X13749964Y-15444330D02*
X13749964Y-15577664D01*
X13702345Y-15368140D02*
X13654726Y-15510997D01*
X13654726Y-15510997D02*
X13778535Y-15510997D01*
X13835678Y-15377664D02*
X13959488Y-15377664D01*
X13959488Y-15377664D02*
X13892821Y-15453854D01*
X13892821Y-15453854D02*
X13921392Y-15453854D01*
X13921392Y-15453854D02*
X13940440Y-15463378D01*
X13940440Y-15463378D02*
X13949964Y-15472902D01*
X13949964Y-15472902D02*
X13959488Y-15491949D01*
X13959488Y-15491949D02*
X13959488Y-15539568D01*
X13959488Y-15539568D02*
X13949964Y-15558616D01*
X13949964Y-15558616D02*
X13940440Y-15568140D01*
X13940440Y-15568140D02*
X13921392Y-15577664D01*
X13921392Y-15577664D02*
X13864249Y-15577664D01*
X13864249Y-15577664D02*
X13845202Y-15568140D01*
X13845202Y-15568140D02*
X13835678Y-15558616D01*
X14197583Y-15577664D02*
X14197583Y-15377664D01*
X14283297Y-15577664D02*
X14283297Y-15472902D01*
X14283297Y-15472902D02*
X14273773Y-15453854D01*
X14273773Y-15453854D02*
X14254726Y-15444330D01*
X14254726Y-15444330D02*
X14226154Y-15444330D01*
X14226154Y-15444330D02*
X14207107Y-15453854D01*
X14207107Y-15453854D02*
X14197583Y-15463378D01*
X14407107Y-15577664D02*
X14388059Y-15568140D01*
X14388059Y-15568140D02*
X14378535Y-15558616D01*
X14378535Y-15558616D02*
X14369011Y-15539568D01*
X14369011Y-15539568D02*
X14369011Y-15482426D01*
X14369011Y-15482426D02*
X14378535Y-15463378D01*
X14378535Y-15463378D02*
X14388059Y-15453854D01*
X14388059Y-15453854D02*
X14407107Y-15444330D01*
X14407107Y-15444330D02*
X14435678Y-15444330D01*
X14435678Y-15444330D02*
X14454726Y-15453854D01*
X14454726Y-15453854D02*
X14464250Y-15463378D01*
X14464250Y-15463378D02*
X14473773Y-15482426D01*
X14473773Y-15482426D02*
X14473773Y-15539568D01*
X14473773Y-15539568D02*
X14464250Y-15558616D01*
X14464250Y-15558616D02*
X14454726Y-15568140D01*
X14454726Y-15568140D02*
X14435678Y-15577664D01*
X14435678Y-15577664D02*
X14407107Y-15577664D01*
X14588059Y-15577664D02*
X14569011Y-15568140D01*
X14569011Y-15568140D02*
X14559488Y-15549092D01*
X14559488Y-15549092D02*
X14559488Y-15377664D01*
X14740440Y-15568140D02*
X14721392Y-15577664D01*
X14721392Y-15577664D02*
X14683297Y-15577664D01*
X14683297Y-15577664D02*
X14664250Y-15568140D01*
X14664250Y-15568140D02*
X14654726Y-15549092D01*
X14654726Y-15549092D02*
X14654726Y-15472902D01*
X14654726Y-15472902D02*
X14664250Y-15453854D01*
X14664250Y-15453854D02*
X14683297Y-15444330D01*
X14683297Y-15444330D02*
X14721392Y-15444330D01*
X14721392Y-15444330D02*
X14740440Y-15453854D01*
X14740440Y-15453854D02*
X14749964Y-15472902D01*
X14749964Y-15472902D02*
X14749964Y-15491949D01*
X14749964Y-15491949D02*
X14654726Y-15510997D01*
X14826154Y-15568140D02*
X14845202Y-15577664D01*
X14845202Y-15577664D02*
X14883297Y-15577664D01*
X14883297Y-15577664D02*
X14902345Y-15568140D01*
X14902345Y-15568140D02*
X14911869Y-15549092D01*
X14911869Y-15549092D02*
X14911869Y-15539568D01*
X14911869Y-15539568D02*
X14902345Y-15520521D01*
X14902345Y-15520521D02*
X14883297Y-15510997D01*
X14883297Y-15510997D02*
X14854726Y-15510997D01*
X14854726Y-15510997D02*
X14835678Y-15501473D01*
X14835678Y-15501473D02*
X14826154Y-15482426D01*
X14826154Y-15482426D02*
X14826154Y-15472902D01*
X14826154Y-15472902D02*
X14835678Y-15453854D01*
X14835678Y-15453854D02*
X14854726Y-15444330D01*
X14854726Y-15444330D02*
X14883297Y-15444330D01*
X14883297Y-15444330D02*
X14902345Y-15453854D01*
X14978535Y-15653854D02*
X14988059Y-15644330D01*
X14988059Y-15644330D02*
X15007107Y-15615759D01*
X15007107Y-15615759D02*
X15016631Y-15596711D01*
X15016631Y-15596711D02*
X15026154Y-15568140D01*
X15026154Y-15568140D02*
X15035678Y-15520521D01*
X15035678Y-15520521D02*
X15035678Y-15482426D01*
X15035678Y-15482426D02*
X15026154Y-15434807D01*
X15026154Y-15434807D02*
X15016631Y-15406235D01*
X15016631Y-15406235D02*
X15007107Y-15387188D01*
X15007107Y-15387188D02*
X14988059Y-15358616D01*
X14988059Y-15358616D02*
X14978535Y-15349092D01*
D12*
X9822520Y-15750180D02*
G75*
G03*
X9822520Y-15750180I-20000J0D01*
G01*
D11*
X10121392Y-15641664D02*
X10140440Y-15641664D01*
X10140440Y-15641664D02*
X10159487Y-15651188D01*
X10159487Y-15651188D02*
X10169011Y-15660711D01*
X10169011Y-15660711D02*
X10178535Y-15679759D01*
X10178535Y-15679759D02*
X10188059Y-15717854D01*
X10188059Y-15717854D02*
X10188059Y-15765473D01*
X10188059Y-15765473D02*
X10178535Y-15803568D01*
X10178535Y-15803568D02*
X10169011Y-15822616D01*
X10169011Y-15822616D02*
X10159487Y-15832140D01*
X10159487Y-15832140D02*
X10140440Y-15841664D01*
X10140440Y-15841664D02*
X10121392Y-15841664D01*
X10121392Y-15841664D02*
X10102344Y-15832140D01*
X10102344Y-15832140D02*
X10092821Y-15822616D01*
X10092821Y-15822616D02*
X10083297Y-15803568D01*
X10083297Y-15803568D02*
X10073773Y-15765473D01*
X10073773Y-15765473D02*
X10073773Y-15717854D01*
X10073773Y-15717854D02*
X10083297Y-15679759D01*
X10083297Y-15679759D02*
X10092821Y-15660711D01*
X10092821Y-15660711D02*
X10102344Y-15651188D01*
X10102344Y-15651188D02*
X10121392Y-15641664D01*
X10273773Y-15822616D02*
X10283297Y-15832140D01*
X10283297Y-15832140D02*
X10273773Y-15841664D01*
X10273773Y-15841664D02*
X10264249Y-15832140D01*
X10264249Y-15832140D02*
X10273773Y-15822616D01*
X10273773Y-15822616D02*
X10273773Y-15841664D01*
X10454725Y-15708330D02*
X10454725Y-15841664D01*
X10407106Y-15632140D02*
X10359487Y-15774997D01*
X10359487Y-15774997D02*
X10483297Y-15774997D01*
X10597583Y-15641664D02*
X10616630Y-15641664D01*
X10616630Y-15641664D02*
X10635678Y-15651188D01*
X10635678Y-15651188D02*
X10645202Y-15660711D01*
X10645202Y-15660711D02*
X10654725Y-15679759D01*
X10654725Y-15679759D02*
X10664249Y-15717854D01*
X10664249Y-15717854D02*
X10664249Y-15765473D01*
X10664249Y-15765473D02*
X10654725Y-15803568D01*
X10654725Y-15803568D02*
X10645202Y-15822616D01*
X10645202Y-15822616D02*
X10635678Y-15832140D01*
X10635678Y-15832140D02*
X10616630Y-15841664D01*
X10616630Y-15841664D02*
X10597583Y-15841664D01*
X10597583Y-15841664D02*
X10578535Y-15832140D01*
X10578535Y-15832140D02*
X10569011Y-15822616D01*
X10569011Y-15822616D02*
X10559487Y-15803568D01*
X10559487Y-15803568D02*
X10549964Y-15765473D01*
X10549964Y-15765473D02*
X10549964Y-15717854D01*
X10549964Y-15717854D02*
X10559487Y-15679759D01*
X10559487Y-15679759D02*
X10569011Y-15660711D01*
X10569011Y-15660711D02*
X10578535Y-15651188D01*
X10578535Y-15651188D02*
X10597583Y-15641664D01*
X10788059Y-15641664D02*
X10807106Y-15641664D01*
X10807106Y-15641664D02*
X10826154Y-15651188D01*
X10826154Y-15651188D02*
X10835678Y-15660711D01*
X10835678Y-15660711D02*
X10845202Y-15679759D01*
X10845202Y-15679759D02*
X10854725Y-15717854D01*
X10854725Y-15717854D02*
X10854725Y-15765473D01*
X10854725Y-15765473D02*
X10845202Y-15803568D01*
X10845202Y-15803568D02*
X10835678Y-15822616D01*
X10835678Y-15822616D02*
X10826154Y-15832140D01*
X10826154Y-15832140D02*
X10807106Y-15841664D01*
X10807106Y-15841664D02*
X10788059Y-15841664D01*
X10788059Y-15841664D02*
X10769011Y-15832140D01*
X10769011Y-15832140D02*
X10759487Y-15822616D01*
X10759487Y-15822616D02*
X10749964Y-15803568D01*
X10749964Y-15803568D02*
X10740440Y-15765473D01*
X10740440Y-15765473D02*
X10740440Y-15717854D01*
X10740440Y-15717854D02*
X10749964Y-15679759D01*
X10749964Y-15679759D02*
X10759487Y-15660711D01*
X10759487Y-15660711D02*
X10769011Y-15651188D01*
X10769011Y-15651188D02*
X10788059Y-15641664D01*
X10940440Y-15841664D02*
X10940440Y-15708330D01*
X10940440Y-15727378D02*
X10949964Y-15717854D01*
X10949964Y-15717854D02*
X10969011Y-15708330D01*
X10969011Y-15708330D02*
X10997583Y-15708330D01*
X10997583Y-15708330D02*
X11016630Y-15717854D01*
X11016630Y-15717854D02*
X11026154Y-15736902D01*
X11026154Y-15736902D02*
X11026154Y-15841664D01*
X11026154Y-15736902D02*
X11035678Y-15717854D01*
X11035678Y-15717854D02*
X11054725Y-15708330D01*
X11054725Y-15708330D02*
X11083297Y-15708330D01*
X11083297Y-15708330D02*
X11102345Y-15717854D01*
X11102345Y-15717854D02*
X11111868Y-15736902D01*
X11111868Y-15736902D02*
X11111868Y-15841664D01*
X11207106Y-15841664D02*
X11207106Y-15708330D01*
X11207106Y-15727378D02*
X11216630Y-15717854D01*
X11216630Y-15717854D02*
X11235678Y-15708330D01*
X11235678Y-15708330D02*
X11264249Y-15708330D01*
X11264249Y-15708330D02*
X11283297Y-15717854D01*
X11283297Y-15717854D02*
X11292821Y-15736902D01*
X11292821Y-15736902D02*
X11292821Y-15841664D01*
X11292821Y-15736902D02*
X11302344Y-15717854D01*
X11302344Y-15717854D02*
X11321392Y-15708330D01*
X11321392Y-15708330D02*
X11349963Y-15708330D01*
X11349963Y-15708330D02*
X11369011Y-15717854D01*
X11369011Y-15717854D02*
X11378535Y-15736902D01*
X11378535Y-15736902D02*
X11378535Y-15841664D01*
X11769011Y-15632140D02*
X11597583Y-15889283D01*
X12026154Y-15641664D02*
X12045202Y-15641664D01*
X12045202Y-15641664D02*
X12064249Y-15651188D01*
X12064249Y-15651188D02*
X12073773Y-15660711D01*
X12073773Y-15660711D02*
X12083297Y-15679759D01*
X12083297Y-15679759D02*
X12092821Y-15717854D01*
X12092821Y-15717854D02*
X12092821Y-15765473D01*
X12092821Y-15765473D02*
X12083297Y-15803568D01*
X12083297Y-15803568D02*
X12073773Y-15822616D01*
X12073773Y-15822616D02*
X12064249Y-15832140D01*
X12064249Y-15832140D02*
X12045202Y-15841664D01*
X12045202Y-15841664D02*
X12026154Y-15841664D01*
X12026154Y-15841664D02*
X12007106Y-15832140D01*
X12007106Y-15832140D02*
X11997583Y-15822616D01*
X11997583Y-15822616D02*
X11988059Y-15803568D01*
X11988059Y-15803568D02*
X11978535Y-15765473D01*
X11978535Y-15765473D02*
X11978535Y-15717854D01*
X11978535Y-15717854D02*
X11988059Y-15679759D01*
X11988059Y-15679759D02*
X11997583Y-15660711D01*
X11997583Y-15660711D02*
X12007106Y-15651188D01*
X12007106Y-15651188D02*
X12026154Y-15641664D01*
X12178535Y-15822616D02*
X12188059Y-15832140D01*
X12188059Y-15832140D02*
X12178535Y-15841664D01*
X12178535Y-15841664D02*
X12169011Y-15832140D01*
X12169011Y-15832140D02*
X12178535Y-15822616D01*
X12178535Y-15822616D02*
X12178535Y-15841664D01*
X12311868Y-15641664D02*
X12330916Y-15641664D01*
X12330916Y-15641664D02*
X12349964Y-15651188D01*
X12349964Y-15651188D02*
X12359487Y-15660711D01*
X12359487Y-15660711D02*
X12369011Y-15679759D01*
X12369011Y-15679759D02*
X12378535Y-15717854D01*
X12378535Y-15717854D02*
X12378535Y-15765473D01*
X12378535Y-15765473D02*
X12369011Y-15803568D01*
X12369011Y-15803568D02*
X12359487Y-15822616D01*
X12359487Y-15822616D02*
X12349964Y-15832140D01*
X12349964Y-15832140D02*
X12330916Y-15841664D01*
X12330916Y-15841664D02*
X12311868Y-15841664D01*
X12311868Y-15841664D02*
X12292821Y-15832140D01*
X12292821Y-15832140D02*
X12283297Y-15822616D01*
X12283297Y-15822616D02*
X12273773Y-15803568D01*
X12273773Y-15803568D02*
X12264249Y-15765473D01*
X12264249Y-15765473D02*
X12264249Y-15717854D01*
X12264249Y-15717854D02*
X12273773Y-15679759D01*
X12273773Y-15679759D02*
X12283297Y-15660711D01*
X12283297Y-15660711D02*
X12292821Y-15651188D01*
X12292821Y-15651188D02*
X12311868Y-15641664D01*
X12569011Y-15841664D02*
X12454726Y-15841664D01*
X12511868Y-15841664D02*
X12511868Y-15641664D01*
X12511868Y-15641664D02*
X12492821Y-15670235D01*
X12492821Y-15670235D02*
X12473773Y-15689283D01*
X12473773Y-15689283D02*
X12454726Y-15698807D01*
X12749964Y-15641664D02*
X12654726Y-15641664D01*
X12654726Y-15641664D02*
X12645202Y-15736902D01*
X12645202Y-15736902D02*
X12654726Y-15727378D01*
X12654726Y-15727378D02*
X12673773Y-15717854D01*
X12673773Y-15717854D02*
X12721392Y-15717854D01*
X12721392Y-15717854D02*
X12740440Y-15727378D01*
X12740440Y-15727378D02*
X12749964Y-15736902D01*
X12749964Y-15736902D02*
X12759487Y-15755949D01*
X12759487Y-15755949D02*
X12759487Y-15803568D01*
X12759487Y-15803568D02*
X12749964Y-15822616D01*
X12749964Y-15822616D02*
X12740440Y-15832140D01*
X12740440Y-15832140D02*
X12721392Y-15841664D01*
X12721392Y-15841664D02*
X12673773Y-15841664D01*
X12673773Y-15841664D02*
X12654726Y-15832140D01*
X12654726Y-15832140D02*
X12645202Y-15822616D01*
X12826154Y-15641664D02*
X12959487Y-15641664D01*
X12959487Y-15641664D02*
X12873773Y-15841664D01*
X13026154Y-15641664D02*
X13026154Y-15679759D01*
X13102345Y-15641664D02*
X13102345Y-15679759D01*
X13397583Y-15917854D02*
X13388059Y-15908330D01*
X13388059Y-15908330D02*
X13369011Y-15879759D01*
X13369011Y-15879759D02*
X13359488Y-15860711D01*
X13359488Y-15860711D02*
X13349964Y-15832140D01*
X13349964Y-15832140D02*
X13340440Y-15784521D01*
X13340440Y-15784521D02*
X13340440Y-15746426D01*
X13340440Y-15746426D02*
X13349964Y-15698807D01*
X13349964Y-15698807D02*
X13359488Y-15670235D01*
X13359488Y-15670235D02*
X13369011Y-15651188D01*
X13369011Y-15651188D02*
X13388059Y-15622616D01*
X13388059Y-15622616D02*
X13397583Y-15613092D01*
X13559488Y-15708330D02*
X13559488Y-15841664D01*
X13511868Y-15632140D02*
X13464249Y-15774997D01*
X13464249Y-15774997D02*
X13588059Y-15774997D01*
X13645202Y-15641664D02*
X13778535Y-15641664D01*
X13778535Y-15641664D02*
X13692821Y-15841664D01*
X14007107Y-15841664D02*
X14007107Y-15641664D01*
X14092821Y-15841664D02*
X14092821Y-15736902D01*
X14092821Y-15736902D02*
X14083297Y-15717854D01*
X14083297Y-15717854D02*
X14064250Y-15708330D01*
X14064250Y-15708330D02*
X14035678Y-15708330D01*
X14035678Y-15708330D02*
X14016630Y-15717854D01*
X14016630Y-15717854D02*
X14007107Y-15727378D01*
X14216630Y-15841664D02*
X14197583Y-15832140D01*
X14197583Y-15832140D02*
X14188059Y-15822616D01*
X14188059Y-15822616D02*
X14178535Y-15803568D01*
X14178535Y-15803568D02*
X14178535Y-15746426D01*
X14178535Y-15746426D02*
X14188059Y-15727378D01*
X14188059Y-15727378D02*
X14197583Y-15717854D01*
X14197583Y-15717854D02*
X14216630Y-15708330D01*
X14216630Y-15708330D02*
X14245202Y-15708330D01*
X14245202Y-15708330D02*
X14264250Y-15717854D01*
X14264250Y-15717854D02*
X14273773Y-15727378D01*
X14273773Y-15727378D02*
X14283297Y-15746426D01*
X14283297Y-15746426D02*
X14283297Y-15803568D01*
X14283297Y-15803568D02*
X14273773Y-15822616D01*
X14273773Y-15822616D02*
X14264250Y-15832140D01*
X14264250Y-15832140D02*
X14245202Y-15841664D01*
X14245202Y-15841664D02*
X14216630Y-15841664D01*
X14397583Y-15841664D02*
X14378535Y-15832140D01*
X14378535Y-15832140D02*
X14369011Y-15813092D01*
X14369011Y-15813092D02*
X14369011Y-15641664D01*
X14549964Y-15832140D02*
X14530916Y-15841664D01*
X14530916Y-15841664D02*
X14492821Y-15841664D01*
X14492821Y-15841664D02*
X14473773Y-15832140D01*
X14473773Y-15832140D02*
X14464250Y-15813092D01*
X14464250Y-15813092D02*
X14464250Y-15736902D01*
X14464250Y-15736902D02*
X14473773Y-15717854D01*
X14473773Y-15717854D02*
X14492821Y-15708330D01*
X14492821Y-15708330D02*
X14530916Y-15708330D01*
X14530916Y-15708330D02*
X14549964Y-15717854D01*
X14549964Y-15717854D02*
X14559488Y-15736902D01*
X14559488Y-15736902D02*
X14559488Y-15755949D01*
X14559488Y-15755949D02*
X14464250Y-15774997D01*
X14635678Y-15832140D02*
X14654726Y-15841664D01*
X14654726Y-15841664D02*
X14692821Y-15841664D01*
X14692821Y-15841664D02*
X14711869Y-15832140D01*
X14711869Y-15832140D02*
X14721392Y-15813092D01*
X14721392Y-15813092D02*
X14721392Y-15803568D01*
X14721392Y-15803568D02*
X14711869Y-15784521D01*
X14711869Y-15784521D02*
X14692821Y-15774997D01*
X14692821Y-15774997D02*
X14664250Y-15774997D01*
X14664250Y-15774997D02*
X14645202Y-15765473D01*
X14645202Y-15765473D02*
X14635678Y-15746426D01*
X14635678Y-15746426D02*
X14635678Y-15736902D01*
X14635678Y-15736902D02*
X14645202Y-15717854D01*
X14645202Y-15717854D02*
X14664250Y-15708330D01*
X14664250Y-15708330D02*
X14692821Y-15708330D01*
X14692821Y-15708330D02*
X14711869Y-15717854D01*
X14788059Y-15917854D02*
X14797583Y-15908330D01*
X14797583Y-15908330D02*
X14816631Y-15879759D01*
X14816631Y-15879759D02*
X14826154Y-15860711D01*
X14826154Y-15860711D02*
X14835678Y-15832140D01*
X14835678Y-15832140D02*
X14845202Y-15784521D01*
X14845202Y-15784521D02*
X14845202Y-15746426D01*
X14845202Y-15746426D02*
X14835678Y-15698807D01*
X14835678Y-15698807D02*
X14826154Y-15670235D01*
X14826154Y-15670235D02*
X14816631Y-15651188D01*
X14816631Y-15651188D02*
X14797583Y-15622616D01*
X14797583Y-15622616D02*
X14788059Y-15613092D01*
D12*
X9792520Y-15984180D02*
X9792520Y-16044180D01*
X9762520Y-16014180D02*
X9822520Y-16014180D01*
D11*
X10121392Y-15905664D02*
X10140440Y-15905664D01*
X10140440Y-15905664D02*
X10159487Y-15915188D01*
X10159487Y-15915188D02*
X10169011Y-15924711D01*
X10169011Y-15924711D02*
X10178535Y-15943759D01*
X10178535Y-15943759D02*
X10188059Y-15981854D01*
X10188059Y-15981854D02*
X10188059Y-16029473D01*
X10188059Y-16029473D02*
X10178535Y-16067568D01*
X10178535Y-16067568D02*
X10169011Y-16086616D01*
X10169011Y-16086616D02*
X10159487Y-16096140D01*
X10159487Y-16096140D02*
X10140440Y-16105664D01*
X10140440Y-16105664D02*
X10121392Y-16105664D01*
X10121392Y-16105664D02*
X10102344Y-16096140D01*
X10102344Y-16096140D02*
X10092821Y-16086616D01*
X10092821Y-16086616D02*
X10083297Y-16067568D01*
X10083297Y-16067568D02*
X10073773Y-16029473D01*
X10073773Y-16029473D02*
X10073773Y-15981854D01*
X10073773Y-15981854D02*
X10083297Y-15943759D01*
X10083297Y-15943759D02*
X10092821Y-15924711D01*
X10092821Y-15924711D02*
X10102344Y-15915188D01*
X10102344Y-15915188D02*
X10121392Y-15905664D01*
X10273773Y-16086616D02*
X10283297Y-16096140D01*
X10283297Y-16096140D02*
X10273773Y-16105664D01*
X10273773Y-16105664D02*
X10264249Y-16096140D01*
X10264249Y-16096140D02*
X10273773Y-16086616D01*
X10273773Y-16086616D02*
X10273773Y-16105664D01*
X10454725Y-15905664D02*
X10416630Y-15905664D01*
X10416630Y-15905664D02*
X10397583Y-15915188D01*
X10397583Y-15915188D02*
X10388059Y-15924711D01*
X10388059Y-15924711D02*
X10369011Y-15953283D01*
X10369011Y-15953283D02*
X10359487Y-15991378D01*
X10359487Y-15991378D02*
X10359487Y-16067568D01*
X10359487Y-16067568D02*
X10369011Y-16086616D01*
X10369011Y-16086616D02*
X10378535Y-16096140D01*
X10378535Y-16096140D02*
X10397583Y-16105664D01*
X10397583Y-16105664D02*
X10435678Y-16105664D01*
X10435678Y-16105664D02*
X10454725Y-16096140D01*
X10454725Y-16096140D02*
X10464249Y-16086616D01*
X10464249Y-16086616D02*
X10473773Y-16067568D01*
X10473773Y-16067568D02*
X10473773Y-16019949D01*
X10473773Y-16019949D02*
X10464249Y-16000902D01*
X10464249Y-16000902D02*
X10454725Y-15991378D01*
X10454725Y-15991378D02*
X10435678Y-15981854D01*
X10435678Y-15981854D02*
X10397583Y-15981854D01*
X10397583Y-15981854D02*
X10378535Y-15991378D01*
X10378535Y-15991378D02*
X10369011Y-16000902D01*
X10369011Y-16000902D02*
X10359487Y-16019949D01*
X10597583Y-15905664D02*
X10616630Y-15905664D01*
X10616630Y-15905664D02*
X10635678Y-15915188D01*
X10635678Y-15915188D02*
X10645202Y-15924711D01*
X10645202Y-15924711D02*
X10654725Y-15943759D01*
X10654725Y-15943759D02*
X10664249Y-15981854D01*
X10664249Y-15981854D02*
X10664249Y-16029473D01*
X10664249Y-16029473D02*
X10654725Y-16067568D01*
X10654725Y-16067568D02*
X10645202Y-16086616D01*
X10645202Y-16086616D02*
X10635678Y-16096140D01*
X10635678Y-16096140D02*
X10616630Y-16105664D01*
X10616630Y-16105664D02*
X10597583Y-16105664D01*
X10597583Y-16105664D02*
X10578535Y-16096140D01*
X10578535Y-16096140D02*
X10569011Y-16086616D01*
X10569011Y-16086616D02*
X10559487Y-16067568D01*
X10559487Y-16067568D02*
X10549964Y-16029473D01*
X10549964Y-16029473D02*
X10549964Y-15981854D01*
X10549964Y-15981854D02*
X10559487Y-15943759D01*
X10559487Y-15943759D02*
X10569011Y-15924711D01*
X10569011Y-15924711D02*
X10578535Y-15915188D01*
X10578535Y-15915188D02*
X10597583Y-15905664D01*
X10788059Y-15905664D02*
X10807106Y-15905664D01*
X10807106Y-15905664D02*
X10826154Y-15915188D01*
X10826154Y-15915188D02*
X10835678Y-15924711D01*
X10835678Y-15924711D02*
X10845202Y-15943759D01*
X10845202Y-15943759D02*
X10854725Y-15981854D01*
X10854725Y-15981854D02*
X10854725Y-16029473D01*
X10854725Y-16029473D02*
X10845202Y-16067568D01*
X10845202Y-16067568D02*
X10835678Y-16086616D01*
X10835678Y-16086616D02*
X10826154Y-16096140D01*
X10826154Y-16096140D02*
X10807106Y-16105664D01*
X10807106Y-16105664D02*
X10788059Y-16105664D01*
X10788059Y-16105664D02*
X10769011Y-16096140D01*
X10769011Y-16096140D02*
X10759487Y-16086616D01*
X10759487Y-16086616D02*
X10749964Y-16067568D01*
X10749964Y-16067568D02*
X10740440Y-16029473D01*
X10740440Y-16029473D02*
X10740440Y-15981854D01*
X10740440Y-15981854D02*
X10749964Y-15943759D01*
X10749964Y-15943759D02*
X10759487Y-15924711D01*
X10759487Y-15924711D02*
X10769011Y-15915188D01*
X10769011Y-15915188D02*
X10788059Y-15905664D01*
X10940440Y-16105664D02*
X10940440Y-15972330D01*
X10940440Y-15991378D02*
X10949964Y-15981854D01*
X10949964Y-15981854D02*
X10969011Y-15972330D01*
X10969011Y-15972330D02*
X10997583Y-15972330D01*
X10997583Y-15972330D02*
X11016630Y-15981854D01*
X11016630Y-15981854D02*
X11026154Y-16000902D01*
X11026154Y-16000902D02*
X11026154Y-16105664D01*
X11026154Y-16000902D02*
X11035678Y-15981854D01*
X11035678Y-15981854D02*
X11054725Y-15972330D01*
X11054725Y-15972330D02*
X11083297Y-15972330D01*
X11083297Y-15972330D02*
X11102345Y-15981854D01*
X11102345Y-15981854D02*
X11111868Y-16000902D01*
X11111868Y-16000902D02*
X11111868Y-16105664D01*
X11207106Y-16105664D02*
X11207106Y-15972330D01*
X11207106Y-15991378D02*
X11216630Y-15981854D01*
X11216630Y-15981854D02*
X11235678Y-15972330D01*
X11235678Y-15972330D02*
X11264249Y-15972330D01*
X11264249Y-15972330D02*
X11283297Y-15981854D01*
X11283297Y-15981854D02*
X11292821Y-16000902D01*
X11292821Y-16000902D02*
X11292821Y-16105664D01*
X11292821Y-16000902D02*
X11302344Y-15981854D01*
X11302344Y-15981854D02*
X11321392Y-15972330D01*
X11321392Y-15972330D02*
X11349963Y-15972330D01*
X11349963Y-15972330D02*
X11369011Y-15981854D01*
X11369011Y-15981854D02*
X11378535Y-16000902D01*
X11378535Y-16000902D02*
X11378535Y-16105664D01*
X11769011Y-15896140D02*
X11597583Y-16153283D01*
X12026154Y-15905664D02*
X12045202Y-15905664D01*
X12045202Y-15905664D02*
X12064249Y-15915188D01*
X12064249Y-15915188D02*
X12073773Y-15924711D01*
X12073773Y-15924711D02*
X12083297Y-15943759D01*
X12083297Y-15943759D02*
X12092821Y-15981854D01*
X12092821Y-15981854D02*
X12092821Y-16029473D01*
X12092821Y-16029473D02*
X12083297Y-16067568D01*
X12083297Y-16067568D02*
X12073773Y-16086616D01*
X12073773Y-16086616D02*
X12064249Y-16096140D01*
X12064249Y-16096140D02*
X12045202Y-16105664D01*
X12045202Y-16105664D02*
X12026154Y-16105664D01*
X12026154Y-16105664D02*
X12007106Y-16096140D01*
X12007106Y-16096140D02*
X11997583Y-16086616D01*
X11997583Y-16086616D02*
X11988059Y-16067568D01*
X11988059Y-16067568D02*
X11978535Y-16029473D01*
X11978535Y-16029473D02*
X11978535Y-15981854D01*
X11978535Y-15981854D02*
X11988059Y-15943759D01*
X11988059Y-15943759D02*
X11997583Y-15924711D01*
X11997583Y-15924711D02*
X12007106Y-15915188D01*
X12007106Y-15915188D02*
X12026154Y-15905664D01*
X12178535Y-16086616D02*
X12188059Y-16096140D01*
X12188059Y-16096140D02*
X12178535Y-16105664D01*
X12178535Y-16105664D02*
X12169011Y-16096140D01*
X12169011Y-16096140D02*
X12178535Y-16086616D01*
X12178535Y-16086616D02*
X12178535Y-16105664D01*
X12311868Y-15905664D02*
X12330916Y-15905664D01*
X12330916Y-15905664D02*
X12349964Y-15915188D01*
X12349964Y-15915188D02*
X12359487Y-15924711D01*
X12359487Y-15924711D02*
X12369011Y-15943759D01*
X12369011Y-15943759D02*
X12378535Y-15981854D01*
X12378535Y-15981854D02*
X12378535Y-16029473D01*
X12378535Y-16029473D02*
X12369011Y-16067568D01*
X12369011Y-16067568D02*
X12359487Y-16086616D01*
X12359487Y-16086616D02*
X12349964Y-16096140D01*
X12349964Y-16096140D02*
X12330916Y-16105664D01*
X12330916Y-16105664D02*
X12311868Y-16105664D01*
X12311868Y-16105664D02*
X12292821Y-16096140D01*
X12292821Y-16096140D02*
X12283297Y-16086616D01*
X12283297Y-16086616D02*
X12273773Y-16067568D01*
X12273773Y-16067568D02*
X12264249Y-16029473D01*
X12264249Y-16029473D02*
X12264249Y-15981854D01*
X12264249Y-15981854D02*
X12273773Y-15943759D01*
X12273773Y-15943759D02*
X12283297Y-15924711D01*
X12283297Y-15924711D02*
X12292821Y-15915188D01*
X12292821Y-15915188D02*
X12311868Y-15905664D01*
X12454726Y-15924711D02*
X12464249Y-15915188D01*
X12464249Y-15915188D02*
X12483297Y-15905664D01*
X12483297Y-15905664D02*
X12530916Y-15905664D01*
X12530916Y-15905664D02*
X12549964Y-15915188D01*
X12549964Y-15915188D02*
X12559487Y-15924711D01*
X12559487Y-15924711D02*
X12569011Y-15943759D01*
X12569011Y-15943759D02*
X12569011Y-15962807D01*
X12569011Y-15962807D02*
X12559487Y-15991378D01*
X12559487Y-15991378D02*
X12445202Y-16105664D01*
X12445202Y-16105664D02*
X12569011Y-16105664D01*
X12635678Y-15905664D02*
X12759487Y-15905664D01*
X12759487Y-15905664D02*
X12692821Y-15981854D01*
X12692821Y-15981854D02*
X12721392Y-15981854D01*
X12721392Y-15981854D02*
X12740440Y-15991378D01*
X12740440Y-15991378D02*
X12749964Y-16000902D01*
X12749964Y-16000902D02*
X12759487Y-16019949D01*
X12759487Y-16019949D02*
X12759487Y-16067568D01*
X12759487Y-16067568D02*
X12749964Y-16086616D01*
X12749964Y-16086616D02*
X12740440Y-16096140D01*
X12740440Y-16096140D02*
X12721392Y-16105664D01*
X12721392Y-16105664D02*
X12664249Y-16105664D01*
X12664249Y-16105664D02*
X12645202Y-16096140D01*
X12645202Y-16096140D02*
X12635678Y-16086616D01*
X12930916Y-15905664D02*
X12892821Y-15905664D01*
X12892821Y-15905664D02*
X12873773Y-15915188D01*
X12873773Y-15915188D02*
X12864249Y-15924711D01*
X12864249Y-15924711D02*
X12845202Y-15953283D01*
X12845202Y-15953283D02*
X12835678Y-15991378D01*
X12835678Y-15991378D02*
X12835678Y-16067568D01*
X12835678Y-16067568D02*
X12845202Y-16086616D01*
X12845202Y-16086616D02*
X12854726Y-16096140D01*
X12854726Y-16096140D02*
X12873773Y-16105664D01*
X12873773Y-16105664D02*
X12911868Y-16105664D01*
X12911868Y-16105664D02*
X12930916Y-16096140D01*
X12930916Y-16096140D02*
X12940440Y-16086616D01*
X12940440Y-16086616D02*
X12949964Y-16067568D01*
X12949964Y-16067568D02*
X12949964Y-16019949D01*
X12949964Y-16019949D02*
X12940440Y-16000902D01*
X12940440Y-16000902D02*
X12930916Y-15991378D01*
X12930916Y-15991378D02*
X12911868Y-15981854D01*
X12911868Y-15981854D02*
X12873773Y-15981854D01*
X12873773Y-15981854D02*
X12854726Y-15991378D01*
X12854726Y-15991378D02*
X12845202Y-16000902D01*
X12845202Y-16000902D02*
X12835678Y-16019949D01*
X13026154Y-15905664D02*
X13026154Y-15943759D01*
X13102345Y-15905664D02*
X13102345Y-15943759D01*
X13397583Y-16181854D02*
X13388059Y-16172330D01*
X13388059Y-16172330D02*
X13369011Y-16143759D01*
X13369011Y-16143759D02*
X13359488Y-16124711D01*
X13359488Y-16124711D02*
X13349964Y-16096140D01*
X13349964Y-16096140D02*
X13340440Y-16048521D01*
X13340440Y-16048521D02*
X13340440Y-16010426D01*
X13340440Y-16010426D02*
X13349964Y-15962807D01*
X13349964Y-15962807D02*
X13359488Y-15934235D01*
X13359488Y-15934235D02*
X13369011Y-15915188D01*
X13369011Y-15915188D02*
X13388059Y-15886616D01*
X13388059Y-15886616D02*
X13397583Y-15877092D01*
X13511868Y-15905664D02*
X13530916Y-15905664D01*
X13530916Y-15905664D02*
X13549964Y-15915188D01*
X13549964Y-15915188D02*
X13559488Y-15924711D01*
X13559488Y-15924711D02*
X13569011Y-15943759D01*
X13569011Y-15943759D02*
X13578535Y-15981854D01*
X13578535Y-15981854D02*
X13578535Y-16029473D01*
X13578535Y-16029473D02*
X13569011Y-16067568D01*
X13569011Y-16067568D02*
X13559488Y-16086616D01*
X13559488Y-16086616D02*
X13549964Y-16096140D01*
X13549964Y-16096140D02*
X13530916Y-16105664D01*
X13530916Y-16105664D02*
X13511868Y-16105664D01*
X13511868Y-16105664D02*
X13492821Y-16096140D01*
X13492821Y-16096140D02*
X13483297Y-16086616D01*
X13483297Y-16086616D02*
X13473773Y-16067568D01*
X13473773Y-16067568D02*
X13464249Y-16029473D01*
X13464249Y-16029473D02*
X13464249Y-15981854D01*
X13464249Y-15981854D02*
X13473773Y-15943759D01*
X13473773Y-15943759D02*
X13483297Y-15924711D01*
X13483297Y-15924711D02*
X13492821Y-15915188D01*
X13492821Y-15915188D02*
X13511868Y-15905664D01*
X13816630Y-16105664D02*
X13816630Y-15905664D01*
X13902345Y-16105664D02*
X13902345Y-16000902D01*
X13902345Y-16000902D02*
X13892821Y-15981854D01*
X13892821Y-15981854D02*
X13873773Y-15972330D01*
X13873773Y-15972330D02*
X13845202Y-15972330D01*
X13845202Y-15972330D02*
X13826154Y-15981854D01*
X13826154Y-15981854D02*
X13816630Y-15991378D01*
X14026154Y-16105664D02*
X14007107Y-16096140D01*
X14007107Y-16096140D02*
X13997583Y-16086616D01*
X13997583Y-16086616D02*
X13988059Y-16067568D01*
X13988059Y-16067568D02*
X13988059Y-16010426D01*
X13988059Y-16010426D02*
X13997583Y-15991378D01*
X13997583Y-15991378D02*
X14007107Y-15981854D01*
X14007107Y-15981854D02*
X14026154Y-15972330D01*
X14026154Y-15972330D02*
X14054726Y-15972330D01*
X14054726Y-15972330D02*
X14073773Y-15981854D01*
X14073773Y-15981854D02*
X14083297Y-15991378D01*
X14083297Y-15991378D02*
X14092821Y-16010426D01*
X14092821Y-16010426D02*
X14092821Y-16067568D01*
X14092821Y-16067568D02*
X14083297Y-16086616D01*
X14083297Y-16086616D02*
X14073773Y-16096140D01*
X14073773Y-16096140D02*
X14054726Y-16105664D01*
X14054726Y-16105664D02*
X14026154Y-16105664D01*
X14207107Y-16105664D02*
X14188059Y-16096140D01*
X14188059Y-16096140D02*
X14178535Y-16077092D01*
X14178535Y-16077092D02*
X14178535Y-15905664D01*
X14359488Y-16096140D02*
X14340440Y-16105664D01*
X14340440Y-16105664D02*
X14302345Y-16105664D01*
X14302345Y-16105664D02*
X14283297Y-16096140D01*
X14283297Y-16096140D02*
X14273773Y-16077092D01*
X14273773Y-16077092D02*
X14273773Y-16000902D01*
X14273773Y-16000902D02*
X14283297Y-15981854D01*
X14283297Y-15981854D02*
X14302345Y-15972330D01*
X14302345Y-15972330D02*
X14340440Y-15972330D01*
X14340440Y-15972330D02*
X14359488Y-15981854D01*
X14359488Y-15981854D02*
X14369011Y-16000902D01*
X14369011Y-16000902D02*
X14369011Y-16019949D01*
X14369011Y-16019949D02*
X14273773Y-16038997D01*
X14445202Y-16096140D02*
X14464250Y-16105664D01*
X14464250Y-16105664D02*
X14502345Y-16105664D01*
X14502345Y-16105664D02*
X14521392Y-16096140D01*
X14521392Y-16096140D02*
X14530916Y-16077092D01*
X14530916Y-16077092D02*
X14530916Y-16067568D01*
X14530916Y-16067568D02*
X14521392Y-16048521D01*
X14521392Y-16048521D02*
X14502345Y-16038997D01*
X14502345Y-16038997D02*
X14473773Y-16038997D01*
X14473773Y-16038997D02*
X14454726Y-16029473D01*
X14454726Y-16029473D02*
X14445202Y-16010426D01*
X14445202Y-16010426D02*
X14445202Y-16000902D01*
X14445202Y-16000902D02*
X14454726Y-15981854D01*
X14454726Y-15981854D02*
X14473773Y-15972330D01*
X14473773Y-15972330D02*
X14502345Y-15972330D01*
X14502345Y-15972330D02*
X14521392Y-15981854D01*
X14769012Y-16029473D02*
X14921393Y-16029473D01*
X14845202Y-16105664D02*
X14845202Y-15953283D01*
X15254726Y-15972330D02*
X15254726Y-16105664D01*
X15207107Y-15896140D02*
X15159488Y-16038997D01*
X15159488Y-16038997D02*
X15283297Y-16038997D01*
X15502345Y-16096140D02*
X15521393Y-16105664D01*
X15521393Y-16105664D02*
X15559488Y-16105664D01*
X15559488Y-16105664D02*
X15578535Y-16096140D01*
X15578535Y-16096140D02*
X15588059Y-16077092D01*
X15588059Y-16077092D02*
X15588059Y-16067568D01*
X15588059Y-16067568D02*
X15578535Y-16048521D01*
X15578535Y-16048521D02*
X15559488Y-16038997D01*
X15559488Y-16038997D02*
X15530916Y-16038997D01*
X15530916Y-16038997D02*
X15511869Y-16029473D01*
X15511869Y-16029473D02*
X15502345Y-16010426D01*
X15502345Y-16010426D02*
X15502345Y-16000902D01*
X15502345Y-16000902D02*
X15511869Y-15981854D01*
X15511869Y-15981854D02*
X15530916Y-15972330D01*
X15530916Y-15972330D02*
X15559488Y-15972330D01*
X15559488Y-15972330D02*
X15578535Y-15981854D01*
X15702345Y-16105664D02*
X15683297Y-16096140D01*
X15683297Y-16096140D02*
X15673774Y-16077092D01*
X15673774Y-16077092D02*
X15673774Y-15905664D01*
X15807107Y-16105664D02*
X15788059Y-16096140D01*
X15788059Y-16096140D02*
X15778535Y-16086616D01*
X15778535Y-16086616D02*
X15769012Y-16067568D01*
X15769012Y-16067568D02*
X15769012Y-16010426D01*
X15769012Y-16010426D02*
X15778535Y-15991378D01*
X15778535Y-15991378D02*
X15788059Y-15981854D01*
X15788059Y-15981854D02*
X15807107Y-15972330D01*
X15807107Y-15972330D02*
X15835678Y-15972330D01*
X15835678Y-15972330D02*
X15854726Y-15981854D01*
X15854726Y-15981854D02*
X15864250Y-15991378D01*
X15864250Y-15991378D02*
X15873774Y-16010426D01*
X15873774Y-16010426D02*
X15873774Y-16067568D01*
X15873774Y-16067568D02*
X15864250Y-16086616D01*
X15864250Y-16086616D02*
X15854726Y-16096140D01*
X15854726Y-16096140D02*
X15835678Y-16105664D01*
X15835678Y-16105664D02*
X15807107Y-16105664D01*
X15930916Y-15972330D02*
X16007107Y-15972330D01*
X15959488Y-15905664D02*
X15959488Y-16077092D01*
X15959488Y-16077092D02*
X15969012Y-16096140D01*
X15969012Y-16096140D02*
X15988059Y-16105664D01*
X15988059Y-16105664D02*
X16007107Y-16105664D01*
X16064250Y-16096140D02*
X16083297Y-16105664D01*
X16083297Y-16105664D02*
X16121393Y-16105664D01*
X16121393Y-16105664D02*
X16140440Y-16096140D01*
X16140440Y-16096140D02*
X16149964Y-16077092D01*
X16149964Y-16077092D02*
X16149964Y-16067568D01*
X16149964Y-16067568D02*
X16140440Y-16048521D01*
X16140440Y-16048521D02*
X16121393Y-16038997D01*
X16121393Y-16038997D02*
X16092821Y-16038997D01*
X16092821Y-16038997D02*
X16073774Y-16029473D01*
X16073774Y-16029473D02*
X16064250Y-16010426D01*
X16064250Y-16010426D02*
X16064250Y-16000902D01*
X16064250Y-16000902D02*
X16073774Y-15981854D01*
X16073774Y-15981854D02*
X16092821Y-15972330D01*
X16092821Y-15972330D02*
X16121393Y-15972330D01*
X16121393Y-15972330D02*
X16140440Y-15981854D01*
X16216631Y-16181854D02*
X16226155Y-16172330D01*
X16226155Y-16172330D02*
X16245202Y-16143759D01*
X16245202Y-16143759D02*
X16254726Y-16124711D01*
X16254726Y-16124711D02*
X16264250Y-16096140D01*
X16264250Y-16096140D02*
X16273774Y-16048521D01*
X16273774Y-16048521D02*
X16273774Y-16010426D01*
X16273774Y-16010426D02*
X16264250Y-15962807D01*
X16264250Y-15962807D02*
X16254726Y-15934235D01*
X16254726Y-15934235D02*
X16245202Y-15915188D01*
X16245202Y-15915188D02*
X16226155Y-15886616D01*
X16226155Y-15886616D02*
X16216631Y-15877092D01*
D12*
X9811361Y-16305121D02*
X9811361Y-16251239D01*
X9757479Y-16251239D01*
X9757479Y-16305121D01*
X9811361Y-16305121D01*
D11*
X10121392Y-16169664D02*
X10140440Y-16169664D01*
X10140440Y-16169664D02*
X10159487Y-16179188D01*
X10159487Y-16179188D02*
X10169011Y-16188711D01*
X10169011Y-16188711D02*
X10178535Y-16207759D01*
X10178535Y-16207759D02*
X10188059Y-16245854D01*
X10188059Y-16245854D02*
X10188059Y-16293473D01*
X10188059Y-16293473D02*
X10178535Y-16331568D01*
X10178535Y-16331568D02*
X10169011Y-16350616D01*
X10169011Y-16350616D02*
X10159487Y-16360140D01*
X10159487Y-16360140D02*
X10140440Y-16369664D01*
X10140440Y-16369664D02*
X10121392Y-16369664D01*
X10121392Y-16369664D02*
X10102344Y-16360140D01*
X10102344Y-16360140D02*
X10092821Y-16350616D01*
X10092821Y-16350616D02*
X10083297Y-16331568D01*
X10083297Y-16331568D02*
X10073773Y-16293473D01*
X10073773Y-16293473D02*
X10073773Y-16245854D01*
X10073773Y-16245854D02*
X10083297Y-16207759D01*
X10083297Y-16207759D02*
X10092821Y-16188711D01*
X10092821Y-16188711D02*
X10102344Y-16179188D01*
X10102344Y-16179188D02*
X10121392Y-16169664D01*
X10273773Y-16350616D02*
X10283297Y-16360140D01*
X10283297Y-16360140D02*
X10273773Y-16369664D01*
X10273773Y-16369664D02*
X10264249Y-16360140D01*
X10264249Y-16360140D02*
X10273773Y-16350616D01*
X10273773Y-16350616D02*
X10273773Y-16369664D01*
X10349964Y-16169664D02*
X10483297Y-16169664D01*
X10483297Y-16169664D02*
X10397583Y-16369664D01*
X10645202Y-16169664D02*
X10607106Y-16169664D01*
X10607106Y-16169664D02*
X10588059Y-16179188D01*
X10588059Y-16179188D02*
X10578535Y-16188711D01*
X10578535Y-16188711D02*
X10559487Y-16217283D01*
X10559487Y-16217283D02*
X10549964Y-16255378D01*
X10549964Y-16255378D02*
X10549964Y-16331568D01*
X10549964Y-16331568D02*
X10559487Y-16350616D01*
X10559487Y-16350616D02*
X10569011Y-16360140D01*
X10569011Y-16360140D02*
X10588059Y-16369664D01*
X10588059Y-16369664D02*
X10626154Y-16369664D01*
X10626154Y-16369664D02*
X10645202Y-16360140D01*
X10645202Y-16360140D02*
X10654725Y-16350616D01*
X10654725Y-16350616D02*
X10664249Y-16331568D01*
X10664249Y-16331568D02*
X10664249Y-16283949D01*
X10664249Y-16283949D02*
X10654725Y-16264902D01*
X10654725Y-16264902D02*
X10645202Y-16255378D01*
X10645202Y-16255378D02*
X10626154Y-16245854D01*
X10626154Y-16245854D02*
X10588059Y-16245854D01*
X10588059Y-16245854D02*
X10569011Y-16255378D01*
X10569011Y-16255378D02*
X10559487Y-16264902D01*
X10559487Y-16264902D02*
X10549964Y-16283949D01*
X10740440Y-16188711D02*
X10749964Y-16179188D01*
X10749964Y-16179188D02*
X10769011Y-16169664D01*
X10769011Y-16169664D02*
X10816630Y-16169664D01*
X10816630Y-16169664D02*
X10835678Y-16179188D01*
X10835678Y-16179188D02*
X10845202Y-16188711D01*
X10845202Y-16188711D02*
X10854725Y-16207759D01*
X10854725Y-16207759D02*
X10854725Y-16226807D01*
X10854725Y-16226807D02*
X10845202Y-16255378D01*
X10845202Y-16255378D02*
X10730916Y-16369664D01*
X10730916Y-16369664D02*
X10854725Y-16369664D01*
X10940440Y-16369664D02*
X10940440Y-16236330D01*
X10940440Y-16255378D02*
X10949964Y-16245854D01*
X10949964Y-16245854D02*
X10969011Y-16236330D01*
X10969011Y-16236330D02*
X10997583Y-16236330D01*
X10997583Y-16236330D02*
X11016630Y-16245854D01*
X11016630Y-16245854D02*
X11026154Y-16264902D01*
X11026154Y-16264902D02*
X11026154Y-16369664D01*
X11026154Y-16264902D02*
X11035678Y-16245854D01*
X11035678Y-16245854D02*
X11054725Y-16236330D01*
X11054725Y-16236330D02*
X11083297Y-16236330D01*
X11083297Y-16236330D02*
X11102345Y-16245854D01*
X11102345Y-16245854D02*
X11111868Y-16264902D01*
X11111868Y-16264902D02*
X11111868Y-16369664D01*
X11207106Y-16369664D02*
X11207106Y-16236330D01*
X11207106Y-16255378D02*
X11216630Y-16245854D01*
X11216630Y-16245854D02*
X11235678Y-16236330D01*
X11235678Y-16236330D02*
X11264249Y-16236330D01*
X11264249Y-16236330D02*
X11283297Y-16245854D01*
X11283297Y-16245854D02*
X11292821Y-16264902D01*
X11292821Y-16264902D02*
X11292821Y-16369664D01*
X11292821Y-16264902D02*
X11302344Y-16245854D01*
X11302344Y-16245854D02*
X11321392Y-16236330D01*
X11321392Y-16236330D02*
X11349963Y-16236330D01*
X11349963Y-16236330D02*
X11369011Y-16245854D01*
X11369011Y-16245854D02*
X11378535Y-16264902D01*
X11378535Y-16264902D02*
X11378535Y-16369664D01*
X11769011Y-16160140D02*
X11597583Y-16417283D01*
X12026154Y-16169664D02*
X12045202Y-16169664D01*
X12045202Y-16169664D02*
X12064249Y-16179188D01*
X12064249Y-16179188D02*
X12073773Y-16188711D01*
X12073773Y-16188711D02*
X12083297Y-16207759D01*
X12083297Y-16207759D02*
X12092821Y-16245854D01*
X12092821Y-16245854D02*
X12092821Y-16293473D01*
X12092821Y-16293473D02*
X12083297Y-16331568D01*
X12083297Y-16331568D02*
X12073773Y-16350616D01*
X12073773Y-16350616D02*
X12064249Y-16360140D01*
X12064249Y-16360140D02*
X12045202Y-16369664D01*
X12045202Y-16369664D02*
X12026154Y-16369664D01*
X12026154Y-16369664D02*
X12007106Y-16360140D01*
X12007106Y-16360140D02*
X11997583Y-16350616D01*
X11997583Y-16350616D02*
X11988059Y-16331568D01*
X11988059Y-16331568D02*
X11978535Y-16293473D01*
X11978535Y-16293473D02*
X11978535Y-16245854D01*
X11978535Y-16245854D02*
X11988059Y-16207759D01*
X11988059Y-16207759D02*
X11997583Y-16188711D01*
X11997583Y-16188711D02*
X12007106Y-16179188D01*
X12007106Y-16179188D02*
X12026154Y-16169664D01*
X12178535Y-16350616D02*
X12188059Y-16360140D01*
X12188059Y-16360140D02*
X12178535Y-16369664D01*
X12178535Y-16369664D02*
X12169011Y-16360140D01*
X12169011Y-16360140D02*
X12178535Y-16350616D01*
X12178535Y-16350616D02*
X12178535Y-16369664D01*
X12311868Y-16169664D02*
X12330916Y-16169664D01*
X12330916Y-16169664D02*
X12349964Y-16179188D01*
X12349964Y-16179188D02*
X12359487Y-16188711D01*
X12359487Y-16188711D02*
X12369011Y-16207759D01*
X12369011Y-16207759D02*
X12378535Y-16245854D01*
X12378535Y-16245854D02*
X12378535Y-16293473D01*
X12378535Y-16293473D02*
X12369011Y-16331568D01*
X12369011Y-16331568D02*
X12359487Y-16350616D01*
X12359487Y-16350616D02*
X12349964Y-16360140D01*
X12349964Y-16360140D02*
X12330916Y-16369664D01*
X12330916Y-16369664D02*
X12311868Y-16369664D01*
X12311868Y-16369664D02*
X12292821Y-16360140D01*
X12292821Y-16360140D02*
X12283297Y-16350616D01*
X12283297Y-16350616D02*
X12273773Y-16331568D01*
X12273773Y-16331568D02*
X12264249Y-16293473D01*
X12264249Y-16293473D02*
X12264249Y-16245854D01*
X12264249Y-16245854D02*
X12273773Y-16207759D01*
X12273773Y-16207759D02*
X12283297Y-16188711D01*
X12283297Y-16188711D02*
X12292821Y-16179188D01*
X12292821Y-16179188D02*
X12311868Y-16169664D01*
X12445202Y-16169664D02*
X12569011Y-16169664D01*
X12569011Y-16169664D02*
X12502345Y-16245854D01*
X12502345Y-16245854D02*
X12530916Y-16245854D01*
X12530916Y-16245854D02*
X12549964Y-16255378D01*
X12549964Y-16255378D02*
X12559487Y-16264902D01*
X12559487Y-16264902D02*
X12569011Y-16283949D01*
X12569011Y-16283949D02*
X12569011Y-16331568D01*
X12569011Y-16331568D02*
X12559487Y-16350616D01*
X12559487Y-16350616D02*
X12549964Y-16360140D01*
X12549964Y-16360140D02*
X12530916Y-16369664D01*
X12530916Y-16369664D02*
X12473773Y-16369664D01*
X12473773Y-16369664D02*
X12454726Y-16360140D01*
X12454726Y-16360140D02*
X12445202Y-16350616D01*
X12692821Y-16169664D02*
X12711868Y-16169664D01*
X12711868Y-16169664D02*
X12730916Y-16179188D01*
X12730916Y-16179188D02*
X12740440Y-16188711D01*
X12740440Y-16188711D02*
X12749964Y-16207759D01*
X12749964Y-16207759D02*
X12759487Y-16245854D01*
X12759487Y-16245854D02*
X12759487Y-16293473D01*
X12759487Y-16293473D02*
X12749964Y-16331568D01*
X12749964Y-16331568D02*
X12740440Y-16350616D01*
X12740440Y-16350616D02*
X12730916Y-16360140D01*
X12730916Y-16360140D02*
X12711868Y-16369664D01*
X12711868Y-16369664D02*
X12692821Y-16369664D01*
X12692821Y-16369664D02*
X12673773Y-16360140D01*
X12673773Y-16360140D02*
X12664249Y-16350616D01*
X12664249Y-16350616D02*
X12654726Y-16331568D01*
X12654726Y-16331568D02*
X12645202Y-16293473D01*
X12645202Y-16293473D02*
X12645202Y-16245854D01*
X12645202Y-16245854D02*
X12654726Y-16207759D01*
X12654726Y-16207759D02*
X12664249Y-16188711D01*
X12664249Y-16188711D02*
X12673773Y-16179188D01*
X12673773Y-16179188D02*
X12692821Y-16169664D01*
X12883297Y-16169664D02*
X12902345Y-16169664D01*
X12902345Y-16169664D02*
X12921392Y-16179188D01*
X12921392Y-16179188D02*
X12930916Y-16188711D01*
X12930916Y-16188711D02*
X12940440Y-16207759D01*
X12940440Y-16207759D02*
X12949964Y-16245854D01*
X12949964Y-16245854D02*
X12949964Y-16293473D01*
X12949964Y-16293473D02*
X12940440Y-16331568D01*
X12940440Y-16331568D02*
X12930916Y-16350616D01*
X12930916Y-16350616D02*
X12921392Y-16360140D01*
X12921392Y-16360140D02*
X12902345Y-16369664D01*
X12902345Y-16369664D02*
X12883297Y-16369664D01*
X12883297Y-16369664D02*
X12864249Y-16360140D01*
X12864249Y-16360140D02*
X12854726Y-16350616D01*
X12854726Y-16350616D02*
X12845202Y-16331568D01*
X12845202Y-16331568D02*
X12835678Y-16293473D01*
X12835678Y-16293473D02*
X12835678Y-16245854D01*
X12835678Y-16245854D02*
X12845202Y-16207759D01*
X12845202Y-16207759D02*
X12854726Y-16188711D01*
X12854726Y-16188711D02*
X12864249Y-16179188D01*
X12864249Y-16179188D02*
X12883297Y-16169664D01*
X13026154Y-16169664D02*
X13026154Y-16207759D01*
X13102345Y-16169664D02*
X13102345Y-16207759D01*
X13397583Y-16445854D02*
X13388059Y-16436330D01*
X13388059Y-16436330D02*
X13369011Y-16407759D01*
X13369011Y-16407759D02*
X13359488Y-16388711D01*
X13359488Y-16388711D02*
X13349964Y-16360140D01*
X13349964Y-16360140D02*
X13340440Y-16312521D01*
X13340440Y-16312521D02*
X13340440Y-16274426D01*
X13340440Y-16274426D02*
X13349964Y-16226807D01*
X13349964Y-16226807D02*
X13359488Y-16198235D01*
X13359488Y-16198235D02*
X13369011Y-16179188D01*
X13369011Y-16179188D02*
X13388059Y-16150616D01*
X13388059Y-16150616D02*
X13397583Y-16141092D01*
X13464249Y-16188711D02*
X13473773Y-16179188D01*
X13473773Y-16179188D02*
X13492821Y-16169664D01*
X13492821Y-16169664D02*
X13540440Y-16169664D01*
X13540440Y-16169664D02*
X13559488Y-16179188D01*
X13559488Y-16179188D02*
X13569011Y-16188711D01*
X13569011Y-16188711D02*
X13578535Y-16207759D01*
X13578535Y-16207759D02*
X13578535Y-16226807D01*
X13578535Y-16226807D02*
X13569011Y-16255378D01*
X13569011Y-16255378D02*
X13454726Y-16369664D01*
X13454726Y-16369664D02*
X13578535Y-16369664D01*
X13816630Y-16369664D02*
X13816630Y-16169664D01*
X13902345Y-16369664D02*
X13902345Y-16264902D01*
X13902345Y-16264902D02*
X13892821Y-16245854D01*
X13892821Y-16245854D02*
X13873773Y-16236330D01*
X13873773Y-16236330D02*
X13845202Y-16236330D01*
X13845202Y-16236330D02*
X13826154Y-16245854D01*
X13826154Y-16245854D02*
X13816630Y-16255378D01*
X14026154Y-16369664D02*
X14007107Y-16360140D01*
X14007107Y-16360140D02*
X13997583Y-16350616D01*
X13997583Y-16350616D02*
X13988059Y-16331568D01*
X13988059Y-16331568D02*
X13988059Y-16274426D01*
X13988059Y-16274426D02*
X13997583Y-16255378D01*
X13997583Y-16255378D02*
X14007107Y-16245854D01*
X14007107Y-16245854D02*
X14026154Y-16236330D01*
X14026154Y-16236330D02*
X14054726Y-16236330D01*
X14054726Y-16236330D02*
X14073773Y-16245854D01*
X14073773Y-16245854D02*
X14083297Y-16255378D01*
X14083297Y-16255378D02*
X14092821Y-16274426D01*
X14092821Y-16274426D02*
X14092821Y-16331568D01*
X14092821Y-16331568D02*
X14083297Y-16350616D01*
X14083297Y-16350616D02*
X14073773Y-16360140D01*
X14073773Y-16360140D02*
X14054726Y-16369664D01*
X14054726Y-16369664D02*
X14026154Y-16369664D01*
X14207107Y-16369664D02*
X14188059Y-16360140D01*
X14188059Y-16360140D02*
X14178535Y-16341092D01*
X14178535Y-16341092D02*
X14178535Y-16169664D01*
X14359488Y-16360140D02*
X14340440Y-16369664D01*
X14340440Y-16369664D02*
X14302345Y-16369664D01*
X14302345Y-16369664D02*
X14283297Y-16360140D01*
X14283297Y-16360140D02*
X14273773Y-16341092D01*
X14273773Y-16341092D02*
X14273773Y-16264902D01*
X14273773Y-16264902D02*
X14283297Y-16245854D01*
X14283297Y-16245854D02*
X14302345Y-16236330D01*
X14302345Y-16236330D02*
X14340440Y-16236330D01*
X14340440Y-16236330D02*
X14359488Y-16245854D01*
X14359488Y-16245854D02*
X14369011Y-16264902D01*
X14369011Y-16264902D02*
X14369011Y-16283949D01*
X14369011Y-16283949D02*
X14273773Y-16302997D01*
X14445202Y-16360140D02*
X14464250Y-16369664D01*
X14464250Y-16369664D02*
X14502345Y-16369664D01*
X14502345Y-16369664D02*
X14521392Y-16360140D01*
X14521392Y-16360140D02*
X14530916Y-16341092D01*
X14530916Y-16341092D02*
X14530916Y-16331568D01*
X14530916Y-16331568D02*
X14521392Y-16312521D01*
X14521392Y-16312521D02*
X14502345Y-16302997D01*
X14502345Y-16302997D02*
X14473773Y-16302997D01*
X14473773Y-16302997D02*
X14454726Y-16293473D01*
X14454726Y-16293473D02*
X14445202Y-16274426D01*
X14445202Y-16274426D02*
X14445202Y-16264902D01*
X14445202Y-16264902D02*
X14454726Y-16245854D01*
X14454726Y-16245854D02*
X14473773Y-16236330D01*
X14473773Y-16236330D02*
X14502345Y-16236330D01*
X14502345Y-16236330D02*
X14521392Y-16245854D01*
X14597583Y-16445854D02*
X14607107Y-16436330D01*
X14607107Y-16436330D02*
X14626154Y-16407759D01*
X14626154Y-16407759D02*
X14635678Y-16388711D01*
X14635678Y-16388711D02*
X14645202Y-16360140D01*
X14645202Y-16360140D02*
X14654726Y-16312521D01*
X14654726Y-16312521D02*
X14654726Y-16274426D01*
X14654726Y-16274426D02*
X14645202Y-16226807D01*
X14645202Y-16226807D02*
X14635678Y-16198235D01*
X14635678Y-16198235D02*
X14626154Y-16179188D01*
X14626154Y-16179188D02*
X14607107Y-16150616D01*
X14607107Y-16150616D02*
X14597583Y-16141092D01*
D12*
X9782520Y-16582180D02*
X9822520Y-16542180D01*
X9782520Y-16502180D01*
X9742520Y-16542180D01*
X9782520Y-16582180D01*
D11*
X10121392Y-16433664D02*
X10140440Y-16433664D01*
X10140440Y-16433664D02*
X10159487Y-16443188D01*
X10159487Y-16443188D02*
X10169011Y-16452711D01*
X10169011Y-16452711D02*
X10178535Y-16471759D01*
X10178535Y-16471759D02*
X10188059Y-16509854D01*
X10188059Y-16509854D02*
X10188059Y-16557473D01*
X10188059Y-16557473D02*
X10178535Y-16595568D01*
X10178535Y-16595568D02*
X10169011Y-16614616D01*
X10169011Y-16614616D02*
X10159487Y-16624140D01*
X10159487Y-16624140D02*
X10140440Y-16633664D01*
X10140440Y-16633664D02*
X10121392Y-16633664D01*
X10121392Y-16633664D02*
X10102344Y-16624140D01*
X10102344Y-16624140D02*
X10092821Y-16614616D01*
X10092821Y-16614616D02*
X10083297Y-16595568D01*
X10083297Y-16595568D02*
X10073773Y-16557473D01*
X10073773Y-16557473D02*
X10073773Y-16509854D01*
X10073773Y-16509854D02*
X10083297Y-16471759D01*
X10083297Y-16471759D02*
X10092821Y-16452711D01*
X10092821Y-16452711D02*
X10102344Y-16443188D01*
X10102344Y-16443188D02*
X10121392Y-16433664D01*
X10273773Y-16614616D02*
X10283297Y-16624140D01*
X10283297Y-16624140D02*
X10273773Y-16633664D01*
X10273773Y-16633664D02*
X10264249Y-16624140D01*
X10264249Y-16624140D02*
X10273773Y-16614616D01*
X10273773Y-16614616D02*
X10273773Y-16633664D01*
X10397583Y-16519378D02*
X10378535Y-16509854D01*
X10378535Y-16509854D02*
X10369011Y-16500330D01*
X10369011Y-16500330D02*
X10359487Y-16481283D01*
X10359487Y-16481283D02*
X10359487Y-16471759D01*
X10359487Y-16471759D02*
X10369011Y-16452711D01*
X10369011Y-16452711D02*
X10378535Y-16443188D01*
X10378535Y-16443188D02*
X10397583Y-16433664D01*
X10397583Y-16433664D02*
X10435678Y-16433664D01*
X10435678Y-16433664D02*
X10454725Y-16443188D01*
X10454725Y-16443188D02*
X10464249Y-16452711D01*
X10464249Y-16452711D02*
X10473773Y-16471759D01*
X10473773Y-16471759D02*
X10473773Y-16481283D01*
X10473773Y-16481283D02*
X10464249Y-16500330D01*
X10464249Y-16500330D02*
X10454725Y-16509854D01*
X10454725Y-16509854D02*
X10435678Y-16519378D01*
X10435678Y-16519378D02*
X10397583Y-16519378D01*
X10397583Y-16519378D02*
X10378535Y-16528902D01*
X10378535Y-16528902D02*
X10369011Y-16538426D01*
X10369011Y-16538426D02*
X10359487Y-16557473D01*
X10359487Y-16557473D02*
X10359487Y-16595568D01*
X10359487Y-16595568D02*
X10369011Y-16614616D01*
X10369011Y-16614616D02*
X10378535Y-16624140D01*
X10378535Y-16624140D02*
X10397583Y-16633664D01*
X10397583Y-16633664D02*
X10435678Y-16633664D01*
X10435678Y-16633664D02*
X10454725Y-16624140D01*
X10454725Y-16624140D02*
X10464249Y-16614616D01*
X10464249Y-16614616D02*
X10473773Y-16595568D01*
X10473773Y-16595568D02*
X10473773Y-16557473D01*
X10473773Y-16557473D02*
X10464249Y-16538426D01*
X10464249Y-16538426D02*
X10454725Y-16528902D01*
X10454725Y-16528902D02*
X10435678Y-16519378D01*
X10597583Y-16433664D02*
X10616630Y-16433664D01*
X10616630Y-16433664D02*
X10635678Y-16443188D01*
X10635678Y-16443188D02*
X10645202Y-16452711D01*
X10645202Y-16452711D02*
X10654725Y-16471759D01*
X10654725Y-16471759D02*
X10664249Y-16509854D01*
X10664249Y-16509854D02*
X10664249Y-16557473D01*
X10664249Y-16557473D02*
X10654725Y-16595568D01*
X10654725Y-16595568D02*
X10645202Y-16614616D01*
X10645202Y-16614616D02*
X10635678Y-16624140D01*
X10635678Y-16624140D02*
X10616630Y-16633664D01*
X10616630Y-16633664D02*
X10597583Y-16633664D01*
X10597583Y-16633664D02*
X10578535Y-16624140D01*
X10578535Y-16624140D02*
X10569011Y-16614616D01*
X10569011Y-16614616D02*
X10559487Y-16595568D01*
X10559487Y-16595568D02*
X10549964Y-16557473D01*
X10549964Y-16557473D02*
X10549964Y-16509854D01*
X10549964Y-16509854D02*
X10559487Y-16471759D01*
X10559487Y-16471759D02*
X10569011Y-16452711D01*
X10569011Y-16452711D02*
X10578535Y-16443188D01*
X10578535Y-16443188D02*
X10597583Y-16433664D01*
X10788059Y-16433664D02*
X10807106Y-16433664D01*
X10807106Y-16433664D02*
X10826154Y-16443188D01*
X10826154Y-16443188D02*
X10835678Y-16452711D01*
X10835678Y-16452711D02*
X10845202Y-16471759D01*
X10845202Y-16471759D02*
X10854725Y-16509854D01*
X10854725Y-16509854D02*
X10854725Y-16557473D01*
X10854725Y-16557473D02*
X10845202Y-16595568D01*
X10845202Y-16595568D02*
X10835678Y-16614616D01*
X10835678Y-16614616D02*
X10826154Y-16624140D01*
X10826154Y-16624140D02*
X10807106Y-16633664D01*
X10807106Y-16633664D02*
X10788059Y-16633664D01*
X10788059Y-16633664D02*
X10769011Y-16624140D01*
X10769011Y-16624140D02*
X10759487Y-16614616D01*
X10759487Y-16614616D02*
X10749964Y-16595568D01*
X10749964Y-16595568D02*
X10740440Y-16557473D01*
X10740440Y-16557473D02*
X10740440Y-16509854D01*
X10740440Y-16509854D02*
X10749964Y-16471759D01*
X10749964Y-16471759D02*
X10759487Y-16452711D01*
X10759487Y-16452711D02*
X10769011Y-16443188D01*
X10769011Y-16443188D02*
X10788059Y-16433664D01*
X10940440Y-16633664D02*
X10940440Y-16500330D01*
X10940440Y-16519378D02*
X10949964Y-16509854D01*
X10949964Y-16509854D02*
X10969011Y-16500330D01*
X10969011Y-16500330D02*
X10997583Y-16500330D01*
X10997583Y-16500330D02*
X11016630Y-16509854D01*
X11016630Y-16509854D02*
X11026154Y-16528902D01*
X11026154Y-16528902D02*
X11026154Y-16633664D01*
X11026154Y-16528902D02*
X11035678Y-16509854D01*
X11035678Y-16509854D02*
X11054725Y-16500330D01*
X11054725Y-16500330D02*
X11083297Y-16500330D01*
X11083297Y-16500330D02*
X11102345Y-16509854D01*
X11102345Y-16509854D02*
X11111868Y-16528902D01*
X11111868Y-16528902D02*
X11111868Y-16633664D01*
X11207106Y-16633664D02*
X11207106Y-16500330D01*
X11207106Y-16519378D02*
X11216630Y-16509854D01*
X11216630Y-16509854D02*
X11235678Y-16500330D01*
X11235678Y-16500330D02*
X11264249Y-16500330D01*
X11264249Y-16500330D02*
X11283297Y-16509854D01*
X11283297Y-16509854D02*
X11292821Y-16528902D01*
X11292821Y-16528902D02*
X11292821Y-16633664D01*
X11292821Y-16528902D02*
X11302344Y-16509854D01*
X11302344Y-16509854D02*
X11321392Y-16500330D01*
X11321392Y-16500330D02*
X11349963Y-16500330D01*
X11349963Y-16500330D02*
X11369011Y-16509854D01*
X11369011Y-16509854D02*
X11378535Y-16528902D01*
X11378535Y-16528902D02*
X11378535Y-16633664D01*
X11769011Y-16424140D02*
X11597583Y-16681283D01*
X12026154Y-16433664D02*
X12045202Y-16433664D01*
X12045202Y-16433664D02*
X12064249Y-16443188D01*
X12064249Y-16443188D02*
X12073773Y-16452711D01*
X12073773Y-16452711D02*
X12083297Y-16471759D01*
X12083297Y-16471759D02*
X12092821Y-16509854D01*
X12092821Y-16509854D02*
X12092821Y-16557473D01*
X12092821Y-16557473D02*
X12083297Y-16595568D01*
X12083297Y-16595568D02*
X12073773Y-16614616D01*
X12073773Y-16614616D02*
X12064249Y-16624140D01*
X12064249Y-16624140D02*
X12045202Y-16633664D01*
X12045202Y-16633664D02*
X12026154Y-16633664D01*
X12026154Y-16633664D02*
X12007106Y-16624140D01*
X12007106Y-16624140D02*
X11997583Y-16614616D01*
X11997583Y-16614616D02*
X11988059Y-16595568D01*
X11988059Y-16595568D02*
X11978535Y-16557473D01*
X11978535Y-16557473D02*
X11978535Y-16509854D01*
X11978535Y-16509854D02*
X11988059Y-16471759D01*
X11988059Y-16471759D02*
X11997583Y-16452711D01*
X11997583Y-16452711D02*
X12007106Y-16443188D01*
X12007106Y-16443188D02*
X12026154Y-16433664D01*
X12178535Y-16614616D02*
X12188059Y-16624140D01*
X12188059Y-16624140D02*
X12178535Y-16633664D01*
X12178535Y-16633664D02*
X12169011Y-16624140D01*
X12169011Y-16624140D02*
X12178535Y-16614616D01*
X12178535Y-16614616D02*
X12178535Y-16633664D01*
X12311868Y-16433664D02*
X12330916Y-16433664D01*
X12330916Y-16433664D02*
X12349964Y-16443188D01*
X12349964Y-16443188D02*
X12359487Y-16452711D01*
X12359487Y-16452711D02*
X12369011Y-16471759D01*
X12369011Y-16471759D02*
X12378535Y-16509854D01*
X12378535Y-16509854D02*
X12378535Y-16557473D01*
X12378535Y-16557473D02*
X12369011Y-16595568D01*
X12369011Y-16595568D02*
X12359487Y-16614616D01*
X12359487Y-16614616D02*
X12349964Y-16624140D01*
X12349964Y-16624140D02*
X12330916Y-16633664D01*
X12330916Y-16633664D02*
X12311868Y-16633664D01*
X12311868Y-16633664D02*
X12292821Y-16624140D01*
X12292821Y-16624140D02*
X12283297Y-16614616D01*
X12283297Y-16614616D02*
X12273773Y-16595568D01*
X12273773Y-16595568D02*
X12264249Y-16557473D01*
X12264249Y-16557473D02*
X12264249Y-16509854D01*
X12264249Y-16509854D02*
X12273773Y-16471759D01*
X12273773Y-16471759D02*
X12283297Y-16452711D01*
X12283297Y-16452711D02*
X12292821Y-16443188D01*
X12292821Y-16443188D02*
X12311868Y-16433664D01*
X12445202Y-16433664D02*
X12569011Y-16433664D01*
X12569011Y-16433664D02*
X12502345Y-16509854D01*
X12502345Y-16509854D02*
X12530916Y-16509854D01*
X12530916Y-16509854D02*
X12549964Y-16519378D01*
X12549964Y-16519378D02*
X12559487Y-16528902D01*
X12559487Y-16528902D02*
X12569011Y-16547949D01*
X12569011Y-16547949D02*
X12569011Y-16595568D01*
X12569011Y-16595568D02*
X12559487Y-16614616D01*
X12559487Y-16614616D02*
X12549964Y-16624140D01*
X12549964Y-16624140D02*
X12530916Y-16633664D01*
X12530916Y-16633664D02*
X12473773Y-16633664D01*
X12473773Y-16633664D02*
X12454726Y-16624140D01*
X12454726Y-16624140D02*
X12445202Y-16614616D01*
X12759487Y-16633664D02*
X12645202Y-16633664D01*
X12702345Y-16633664D02*
X12702345Y-16433664D01*
X12702345Y-16433664D02*
X12683297Y-16462235D01*
X12683297Y-16462235D02*
X12664249Y-16481283D01*
X12664249Y-16481283D02*
X12645202Y-16490807D01*
X12940440Y-16433664D02*
X12845202Y-16433664D01*
X12845202Y-16433664D02*
X12835678Y-16528902D01*
X12835678Y-16528902D02*
X12845202Y-16519378D01*
X12845202Y-16519378D02*
X12864249Y-16509854D01*
X12864249Y-16509854D02*
X12911868Y-16509854D01*
X12911868Y-16509854D02*
X12930916Y-16519378D01*
X12930916Y-16519378D02*
X12940440Y-16528902D01*
X12940440Y-16528902D02*
X12949964Y-16547949D01*
X12949964Y-16547949D02*
X12949964Y-16595568D01*
X12949964Y-16595568D02*
X12940440Y-16614616D01*
X12940440Y-16614616D02*
X12930916Y-16624140D01*
X12930916Y-16624140D02*
X12911868Y-16633664D01*
X12911868Y-16633664D02*
X12864249Y-16633664D01*
X12864249Y-16633664D02*
X12845202Y-16624140D01*
X12845202Y-16624140D02*
X12835678Y-16614616D01*
X13026154Y-16433664D02*
X13026154Y-16471759D01*
X13102345Y-16433664D02*
X13102345Y-16471759D01*
X13397583Y-16709854D02*
X13388059Y-16700330D01*
X13388059Y-16700330D02*
X13369011Y-16671759D01*
X13369011Y-16671759D02*
X13359488Y-16652711D01*
X13359488Y-16652711D02*
X13349964Y-16624140D01*
X13349964Y-16624140D02*
X13340440Y-16576521D01*
X13340440Y-16576521D02*
X13340440Y-16538426D01*
X13340440Y-16538426D02*
X13349964Y-16490807D01*
X13349964Y-16490807D02*
X13359488Y-16462235D01*
X13359488Y-16462235D02*
X13369011Y-16443188D01*
X13369011Y-16443188D02*
X13388059Y-16414616D01*
X13388059Y-16414616D02*
X13397583Y-16405092D01*
X13454726Y-16433664D02*
X13588059Y-16433664D01*
X13588059Y-16433664D02*
X13502345Y-16633664D01*
X13645202Y-16433664D02*
X13769011Y-16433664D01*
X13769011Y-16433664D02*
X13702345Y-16509854D01*
X13702345Y-16509854D02*
X13730916Y-16509854D01*
X13730916Y-16509854D02*
X13749964Y-16519378D01*
X13749964Y-16519378D02*
X13759488Y-16528902D01*
X13759488Y-16528902D02*
X13769011Y-16547949D01*
X13769011Y-16547949D02*
X13769011Y-16595568D01*
X13769011Y-16595568D02*
X13759488Y-16614616D01*
X13759488Y-16614616D02*
X13749964Y-16624140D01*
X13749964Y-16624140D02*
X13730916Y-16633664D01*
X13730916Y-16633664D02*
X13673773Y-16633664D01*
X13673773Y-16633664D02*
X13654726Y-16624140D01*
X13654726Y-16624140D02*
X13645202Y-16614616D01*
X14007107Y-16633664D02*
X14007107Y-16433664D01*
X14092821Y-16633664D02*
X14092821Y-16528902D01*
X14092821Y-16528902D02*
X14083297Y-16509854D01*
X14083297Y-16509854D02*
X14064250Y-16500330D01*
X14064250Y-16500330D02*
X14035678Y-16500330D01*
X14035678Y-16500330D02*
X14016630Y-16509854D01*
X14016630Y-16509854D02*
X14007107Y-16519378D01*
X14216630Y-16633664D02*
X14197583Y-16624140D01*
X14197583Y-16624140D02*
X14188059Y-16614616D01*
X14188059Y-16614616D02*
X14178535Y-16595568D01*
X14178535Y-16595568D02*
X14178535Y-16538426D01*
X14178535Y-16538426D02*
X14188059Y-16519378D01*
X14188059Y-16519378D02*
X14197583Y-16509854D01*
X14197583Y-16509854D02*
X14216630Y-16500330D01*
X14216630Y-16500330D02*
X14245202Y-16500330D01*
X14245202Y-16500330D02*
X14264250Y-16509854D01*
X14264250Y-16509854D02*
X14273773Y-16519378D01*
X14273773Y-16519378D02*
X14283297Y-16538426D01*
X14283297Y-16538426D02*
X14283297Y-16595568D01*
X14283297Y-16595568D02*
X14273773Y-16614616D01*
X14273773Y-16614616D02*
X14264250Y-16624140D01*
X14264250Y-16624140D02*
X14245202Y-16633664D01*
X14245202Y-16633664D02*
X14216630Y-16633664D01*
X14397583Y-16633664D02*
X14378535Y-16624140D01*
X14378535Y-16624140D02*
X14369011Y-16605092D01*
X14369011Y-16605092D02*
X14369011Y-16433664D01*
X14549964Y-16624140D02*
X14530916Y-16633664D01*
X14530916Y-16633664D02*
X14492821Y-16633664D01*
X14492821Y-16633664D02*
X14473773Y-16624140D01*
X14473773Y-16624140D02*
X14464250Y-16605092D01*
X14464250Y-16605092D02*
X14464250Y-16528902D01*
X14464250Y-16528902D02*
X14473773Y-16509854D01*
X14473773Y-16509854D02*
X14492821Y-16500330D01*
X14492821Y-16500330D02*
X14530916Y-16500330D01*
X14530916Y-16500330D02*
X14549964Y-16509854D01*
X14549964Y-16509854D02*
X14559488Y-16528902D01*
X14559488Y-16528902D02*
X14559488Y-16547949D01*
X14559488Y-16547949D02*
X14464250Y-16566997D01*
X14635678Y-16624140D02*
X14654726Y-16633664D01*
X14654726Y-16633664D02*
X14692821Y-16633664D01*
X14692821Y-16633664D02*
X14711869Y-16624140D01*
X14711869Y-16624140D02*
X14721392Y-16605092D01*
X14721392Y-16605092D02*
X14721392Y-16595568D01*
X14721392Y-16595568D02*
X14711869Y-16576521D01*
X14711869Y-16576521D02*
X14692821Y-16566997D01*
X14692821Y-16566997D02*
X14664250Y-16566997D01*
X14664250Y-16566997D02*
X14645202Y-16557473D01*
X14645202Y-16557473D02*
X14635678Y-16538426D01*
X14635678Y-16538426D02*
X14635678Y-16528902D01*
X14635678Y-16528902D02*
X14645202Y-16509854D01*
X14645202Y-16509854D02*
X14664250Y-16500330D01*
X14664250Y-16500330D02*
X14692821Y-16500330D01*
X14692821Y-16500330D02*
X14711869Y-16509854D01*
X14788059Y-16709854D02*
X14797583Y-16700330D01*
X14797583Y-16700330D02*
X14816631Y-16671759D01*
X14816631Y-16671759D02*
X14826154Y-16652711D01*
X14826154Y-16652711D02*
X14835678Y-16624140D01*
X14835678Y-16624140D02*
X14845202Y-16576521D01*
X14845202Y-16576521D02*
X14845202Y-16538426D01*
X14845202Y-16538426D02*
X14835678Y-16490807D01*
X14835678Y-16490807D02*
X14826154Y-16462235D01*
X14826154Y-16462235D02*
X14816631Y-16443188D01*
X14816631Y-16443188D02*
X14797583Y-16414616D01*
X14797583Y-16414616D02*
X14788059Y-16405092D01*
D12*
X9722520Y-16756180D02*
X9822520Y-16856180D01*
X9822520Y-16756180D02*
X9722520Y-16856180D01*
X9822520Y-16806180D02*
G75*
G03*
X9822520Y-16806180I-50000J0D01*
G01*
D11*
X10188059Y-16897664D02*
X10073773Y-16897664D01*
X10130916Y-16897664D02*
X10130916Y-16697664D01*
X10130916Y-16697664D02*
X10111868Y-16726235D01*
X10111868Y-16726235D02*
X10092821Y-16745283D01*
X10092821Y-16745283D02*
X10073773Y-16754807D01*
X10273773Y-16878616D02*
X10283297Y-16888140D01*
X10283297Y-16888140D02*
X10273773Y-16897664D01*
X10273773Y-16897664D02*
X10264249Y-16888140D01*
X10264249Y-16888140D02*
X10273773Y-16878616D01*
X10273773Y-16878616D02*
X10273773Y-16897664D01*
X10407106Y-16697664D02*
X10426154Y-16697664D01*
X10426154Y-16697664D02*
X10445202Y-16707188D01*
X10445202Y-16707188D02*
X10454725Y-16716711D01*
X10454725Y-16716711D02*
X10464249Y-16735759D01*
X10464249Y-16735759D02*
X10473773Y-16773854D01*
X10473773Y-16773854D02*
X10473773Y-16821473D01*
X10473773Y-16821473D02*
X10464249Y-16859569D01*
X10464249Y-16859569D02*
X10454725Y-16878616D01*
X10454725Y-16878616D02*
X10445202Y-16888140D01*
X10445202Y-16888140D02*
X10426154Y-16897664D01*
X10426154Y-16897664D02*
X10407106Y-16897664D01*
X10407106Y-16897664D02*
X10388059Y-16888140D01*
X10388059Y-16888140D02*
X10378535Y-16878616D01*
X10378535Y-16878616D02*
X10369011Y-16859569D01*
X10369011Y-16859569D02*
X10359487Y-16821473D01*
X10359487Y-16821473D02*
X10359487Y-16773854D01*
X10359487Y-16773854D02*
X10369011Y-16735759D01*
X10369011Y-16735759D02*
X10378535Y-16716711D01*
X10378535Y-16716711D02*
X10388059Y-16707188D01*
X10388059Y-16707188D02*
X10407106Y-16697664D01*
X10597583Y-16697664D02*
X10616630Y-16697664D01*
X10616630Y-16697664D02*
X10635678Y-16707188D01*
X10635678Y-16707188D02*
X10645202Y-16716711D01*
X10645202Y-16716711D02*
X10654725Y-16735759D01*
X10654725Y-16735759D02*
X10664249Y-16773854D01*
X10664249Y-16773854D02*
X10664249Y-16821473D01*
X10664249Y-16821473D02*
X10654725Y-16859569D01*
X10654725Y-16859569D02*
X10645202Y-16878616D01*
X10645202Y-16878616D02*
X10635678Y-16888140D01*
X10635678Y-16888140D02*
X10616630Y-16897664D01*
X10616630Y-16897664D02*
X10597583Y-16897664D01*
X10597583Y-16897664D02*
X10578535Y-16888140D01*
X10578535Y-16888140D02*
X10569011Y-16878616D01*
X10569011Y-16878616D02*
X10559487Y-16859569D01*
X10559487Y-16859569D02*
X10549964Y-16821473D01*
X10549964Y-16821473D02*
X10549964Y-16773854D01*
X10549964Y-16773854D02*
X10559487Y-16735759D01*
X10559487Y-16735759D02*
X10569011Y-16716711D01*
X10569011Y-16716711D02*
X10578535Y-16707188D01*
X10578535Y-16707188D02*
X10597583Y-16697664D01*
X10788059Y-16697664D02*
X10807106Y-16697664D01*
X10807106Y-16697664D02*
X10826154Y-16707188D01*
X10826154Y-16707188D02*
X10835678Y-16716711D01*
X10835678Y-16716711D02*
X10845202Y-16735759D01*
X10845202Y-16735759D02*
X10854725Y-16773854D01*
X10854725Y-16773854D02*
X10854725Y-16821473D01*
X10854725Y-16821473D02*
X10845202Y-16859569D01*
X10845202Y-16859569D02*
X10835678Y-16878616D01*
X10835678Y-16878616D02*
X10826154Y-16888140D01*
X10826154Y-16888140D02*
X10807106Y-16897664D01*
X10807106Y-16897664D02*
X10788059Y-16897664D01*
X10788059Y-16897664D02*
X10769011Y-16888140D01*
X10769011Y-16888140D02*
X10759487Y-16878616D01*
X10759487Y-16878616D02*
X10749964Y-16859569D01*
X10749964Y-16859569D02*
X10740440Y-16821473D01*
X10740440Y-16821473D02*
X10740440Y-16773854D01*
X10740440Y-16773854D02*
X10749964Y-16735759D01*
X10749964Y-16735759D02*
X10759487Y-16716711D01*
X10759487Y-16716711D02*
X10769011Y-16707188D01*
X10769011Y-16707188D02*
X10788059Y-16697664D01*
X10940440Y-16897664D02*
X10940440Y-16764330D01*
X10940440Y-16783378D02*
X10949964Y-16773854D01*
X10949964Y-16773854D02*
X10969011Y-16764330D01*
X10969011Y-16764330D02*
X10997583Y-16764330D01*
X10997583Y-16764330D02*
X11016630Y-16773854D01*
X11016630Y-16773854D02*
X11026154Y-16792902D01*
X11026154Y-16792902D02*
X11026154Y-16897664D01*
X11026154Y-16792902D02*
X11035678Y-16773854D01*
X11035678Y-16773854D02*
X11054725Y-16764330D01*
X11054725Y-16764330D02*
X11083297Y-16764330D01*
X11083297Y-16764330D02*
X11102345Y-16773854D01*
X11102345Y-16773854D02*
X11111868Y-16792902D01*
X11111868Y-16792902D02*
X11111868Y-16897664D01*
X11207106Y-16897664D02*
X11207106Y-16764330D01*
X11207106Y-16783378D02*
X11216630Y-16773854D01*
X11216630Y-16773854D02*
X11235678Y-16764330D01*
X11235678Y-16764330D02*
X11264249Y-16764330D01*
X11264249Y-16764330D02*
X11283297Y-16773854D01*
X11283297Y-16773854D02*
X11292821Y-16792902D01*
X11292821Y-16792902D02*
X11292821Y-16897664D01*
X11292821Y-16792902D02*
X11302344Y-16773854D01*
X11302344Y-16773854D02*
X11321392Y-16764330D01*
X11321392Y-16764330D02*
X11349963Y-16764330D01*
X11349963Y-16764330D02*
X11369011Y-16773854D01*
X11369011Y-16773854D02*
X11378535Y-16792902D01*
X11378535Y-16792902D02*
X11378535Y-16897664D01*
X11769011Y-16688140D02*
X11597583Y-16945283D01*
X12026154Y-16697664D02*
X12045202Y-16697664D01*
X12045202Y-16697664D02*
X12064249Y-16707188D01*
X12064249Y-16707188D02*
X12073773Y-16716711D01*
X12073773Y-16716711D02*
X12083297Y-16735759D01*
X12083297Y-16735759D02*
X12092821Y-16773854D01*
X12092821Y-16773854D02*
X12092821Y-16821473D01*
X12092821Y-16821473D02*
X12083297Y-16859569D01*
X12083297Y-16859569D02*
X12073773Y-16878616D01*
X12073773Y-16878616D02*
X12064249Y-16888140D01*
X12064249Y-16888140D02*
X12045202Y-16897664D01*
X12045202Y-16897664D02*
X12026154Y-16897664D01*
X12026154Y-16897664D02*
X12007106Y-16888140D01*
X12007106Y-16888140D02*
X11997583Y-16878616D01*
X11997583Y-16878616D02*
X11988059Y-16859569D01*
X11988059Y-16859569D02*
X11978535Y-16821473D01*
X11978535Y-16821473D02*
X11978535Y-16773854D01*
X11978535Y-16773854D02*
X11988059Y-16735759D01*
X11988059Y-16735759D02*
X11997583Y-16716711D01*
X11997583Y-16716711D02*
X12007106Y-16707188D01*
X12007106Y-16707188D02*
X12026154Y-16697664D01*
X12178535Y-16878616D02*
X12188059Y-16888140D01*
X12188059Y-16888140D02*
X12178535Y-16897664D01*
X12178535Y-16897664D02*
X12169011Y-16888140D01*
X12169011Y-16888140D02*
X12178535Y-16878616D01*
X12178535Y-16878616D02*
X12178535Y-16897664D01*
X12311868Y-16697664D02*
X12330916Y-16697664D01*
X12330916Y-16697664D02*
X12349964Y-16707188D01*
X12349964Y-16707188D02*
X12359487Y-16716711D01*
X12359487Y-16716711D02*
X12369011Y-16735759D01*
X12369011Y-16735759D02*
X12378535Y-16773854D01*
X12378535Y-16773854D02*
X12378535Y-16821473D01*
X12378535Y-16821473D02*
X12369011Y-16859569D01*
X12369011Y-16859569D02*
X12359487Y-16878616D01*
X12359487Y-16878616D02*
X12349964Y-16888140D01*
X12349964Y-16888140D02*
X12330916Y-16897664D01*
X12330916Y-16897664D02*
X12311868Y-16897664D01*
X12311868Y-16897664D02*
X12292821Y-16888140D01*
X12292821Y-16888140D02*
X12283297Y-16878616D01*
X12283297Y-16878616D02*
X12273773Y-16859569D01*
X12273773Y-16859569D02*
X12264249Y-16821473D01*
X12264249Y-16821473D02*
X12264249Y-16773854D01*
X12264249Y-16773854D02*
X12273773Y-16735759D01*
X12273773Y-16735759D02*
X12283297Y-16716711D01*
X12283297Y-16716711D02*
X12292821Y-16707188D01*
X12292821Y-16707188D02*
X12311868Y-16697664D01*
X12445202Y-16697664D02*
X12569011Y-16697664D01*
X12569011Y-16697664D02*
X12502345Y-16773854D01*
X12502345Y-16773854D02*
X12530916Y-16773854D01*
X12530916Y-16773854D02*
X12549964Y-16783378D01*
X12549964Y-16783378D02*
X12559487Y-16792902D01*
X12559487Y-16792902D02*
X12569011Y-16811950D01*
X12569011Y-16811950D02*
X12569011Y-16859569D01*
X12569011Y-16859569D02*
X12559487Y-16878616D01*
X12559487Y-16878616D02*
X12549964Y-16888140D01*
X12549964Y-16888140D02*
X12530916Y-16897664D01*
X12530916Y-16897664D02*
X12473773Y-16897664D01*
X12473773Y-16897664D02*
X12454726Y-16888140D01*
X12454726Y-16888140D02*
X12445202Y-16878616D01*
X12664249Y-16897664D02*
X12702345Y-16897664D01*
X12702345Y-16897664D02*
X12721392Y-16888140D01*
X12721392Y-16888140D02*
X12730916Y-16878616D01*
X12730916Y-16878616D02*
X12749964Y-16850045D01*
X12749964Y-16850045D02*
X12759487Y-16811950D01*
X12759487Y-16811950D02*
X12759487Y-16735759D01*
X12759487Y-16735759D02*
X12749964Y-16716711D01*
X12749964Y-16716711D02*
X12740440Y-16707188D01*
X12740440Y-16707188D02*
X12721392Y-16697664D01*
X12721392Y-16697664D02*
X12683297Y-16697664D01*
X12683297Y-16697664D02*
X12664249Y-16707188D01*
X12664249Y-16707188D02*
X12654726Y-16716711D01*
X12654726Y-16716711D02*
X12645202Y-16735759D01*
X12645202Y-16735759D02*
X12645202Y-16783378D01*
X12645202Y-16783378D02*
X12654726Y-16802426D01*
X12654726Y-16802426D02*
X12664249Y-16811950D01*
X12664249Y-16811950D02*
X12683297Y-16821473D01*
X12683297Y-16821473D02*
X12721392Y-16821473D01*
X12721392Y-16821473D02*
X12740440Y-16811950D01*
X12740440Y-16811950D02*
X12749964Y-16802426D01*
X12749964Y-16802426D02*
X12759487Y-16783378D01*
X12930916Y-16764330D02*
X12930916Y-16897664D01*
X12883297Y-16688140D02*
X12835678Y-16830997D01*
X12835678Y-16830997D02*
X12959487Y-16830997D01*
X13026154Y-16697664D02*
X13026154Y-16735759D01*
X13102345Y-16697664D02*
X13102345Y-16735759D01*
X13397583Y-16973854D02*
X13388059Y-16964330D01*
X13388059Y-16964330D02*
X13369011Y-16935759D01*
X13369011Y-16935759D02*
X13359488Y-16916711D01*
X13359488Y-16916711D02*
X13349964Y-16888140D01*
X13349964Y-16888140D02*
X13340440Y-16840521D01*
X13340440Y-16840521D02*
X13340440Y-16802426D01*
X13340440Y-16802426D02*
X13349964Y-16754807D01*
X13349964Y-16754807D02*
X13359488Y-16726235D01*
X13359488Y-16726235D02*
X13369011Y-16707188D01*
X13369011Y-16707188D02*
X13388059Y-16678616D01*
X13388059Y-16678616D02*
X13397583Y-16669092D01*
X13464249Y-16716711D02*
X13473773Y-16707188D01*
X13473773Y-16707188D02*
X13492821Y-16697664D01*
X13492821Y-16697664D02*
X13540440Y-16697664D01*
X13540440Y-16697664D02*
X13559488Y-16707188D01*
X13559488Y-16707188D02*
X13569011Y-16716711D01*
X13569011Y-16716711D02*
X13578535Y-16735759D01*
X13578535Y-16735759D02*
X13578535Y-16754807D01*
X13578535Y-16754807D02*
X13569011Y-16783378D01*
X13569011Y-16783378D02*
X13454726Y-16897664D01*
X13454726Y-16897664D02*
X13578535Y-16897664D01*
X13749964Y-16764330D02*
X13749964Y-16897664D01*
X13702345Y-16688140D02*
X13654726Y-16830997D01*
X13654726Y-16830997D02*
X13778535Y-16830997D01*
X14007107Y-16897664D02*
X14007107Y-16697664D01*
X14092821Y-16897664D02*
X14092821Y-16792902D01*
X14092821Y-16792902D02*
X14083297Y-16773854D01*
X14083297Y-16773854D02*
X14064250Y-16764330D01*
X14064250Y-16764330D02*
X14035678Y-16764330D01*
X14035678Y-16764330D02*
X14016630Y-16773854D01*
X14016630Y-16773854D02*
X14007107Y-16783378D01*
X14216630Y-16897664D02*
X14197583Y-16888140D01*
X14197583Y-16888140D02*
X14188059Y-16878616D01*
X14188059Y-16878616D02*
X14178535Y-16859569D01*
X14178535Y-16859569D02*
X14178535Y-16802426D01*
X14178535Y-16802426D02*
X14188059Y-16783378D01*
X14188059Y-16783378D02*
X14197583Y-16773854D01*
X14197583Y-16773854D02*
X14216630Y-16764330D01*
X14216630Y-16764330D02*
X14245202Y-16764330D01*
X14245202Y-16764330D02*
X14264250Y-16773854D01*
X14264250Y-16773854D02*
X14273773Y-16783378D01*
X14273773Y-16783378D02*
X14283297Y-16802426D01*
X14283297Y-16802426D02*
X14283297Y-16859569D01*
X14283297Y-16859569D02*
X14273773Y-16878616D01*
X14273773Y-16878616D02*
X14264250Y-16888140D01*
X14264250Y-16888140D02*
X14245202Y-16897664D01*
X14245202Y-16897664D02*
X14216630Y-16897664D01*
X14397583Y-16897664D02*
X14378535Y-16888140D01*
X14378535Y-16888140D02*
X14369011Y-16869092D01*
X14369011Y-16869092D02*
X14369011Y-16697664D01*
X14549964Y-16888140D02*
X14530916Y-16897664D01*
X14530916Y-16897664D02*
X14492821Y-16897664D01*
X14492821Y-16897664D02*
X14473773Y-16888140D01*
X14473773Y-16888140D02*
X14464250Y-16869092D01*
X14464250Y-16869092D02*
X14464250Y-16792902D01*
X14464250Y-16792902D02*
X14473773Y-16773854D01*
X14473773Y-16773854D02*
X14492821Y-16764330D01*
X14492821Y-16764330D02*
X14530916Y-16764330D01*
X14530916Y-16764330D02*
X14549964Y-16773854D01*
X14549964Y-16773854D02*
X14559488Y-16792902D01*
X14559488Y-16792902D02*
X14559488Y-16811950D01*
X14559488Y-16811950D02*
X14464250Y-16830997D01*
X14635678Y-16888140D02*
X14654726Y-16897664D01*
X14654726Y-16897664D02*
X14692821Y-16897664D01*
X14692821Y-16897664D02*
X14711869Y-16888140D01*
X14711869Y-16888140D02*
X14721392Y-16869092D01*
X14721392Y-16869092D02*
X14721392Y-16859569D01*
X14721392Y-16859569D02*
X14711869Y-16840521D01*
X14711869Y-16840521D02*
X14692821Y-16830997D01*
X14692821Y-16830997D02*
X14664250Y-16830997D01*
X14664250Y-16830997D02*
X14645202Y-16821473D01*
X14645202Y-16821473D02*
X14635678Y-16802426D01*
X14635678Y-16802426D02*
X14635678Y-16792902D01*
X14635678Y-16792902D02*
X14645202Y-16773854D01*
X14645202Y-16773854D02*
X14664250Y-16764330D01*
X14664250Y-16764330D02*
X14692821Y-16764330D01*
X14692821Y-16764330D02*
X14711869Y-16773854D01*
X14788059Y-16973854D02*
X14797583Y-16964330D01*
X14797583Y-16964330D02*
X14816631Y-16935759D01*
X14816631Y-16935759D02*
X14826154Y-16916711D01*
X14826154Y-16916711D02*
X14835678Y-16888140D01*
X14835678Y-16888140D02*
X14845202Y-16840521D01*
X14845202Y-16840521D02*
X14845202Y-16802426D01*
X14845202Y-16802426D02*
X14835678Y-16754807D01*
X14835678Y-16754807D02*
X14826154Y-16726235D01*
X14826154Y-16726235D02*
X14816631Y-16707188D01*
X14816631Y-16707188D02*
X14797583Y-16678616D01*
X14797583Y-16678616D02*
X14788059Y-16669092D01*
D13*
X9702520Y-17010180D02*
X9822520Y-17130180D01*
X9822520Y-17010180D02*
X9702520Y-17130180D01*
X9762520Y-17010180D02*
X9762520Y-17130180D01*
X9702520Y-17070180D02*
X9822520Y-17070180D01*
D11*
X10188059Y-17161664D02*
X10073773Y-17161664D01*
X10130916Y-17161664D02*
X10130916Y-16961664D01*
X10130916Y-16961664D02*
X10111868Y-16990235D01*
X10111868Y-16990235D02*
X10092821Y-17009283D01*
X10092821Y-17009283D02*
X10073773Y-17018807D01*
X10273773Y-17142616D02*
X10283297Y-17152140D01*
X10283297Y-17152140D02*
X10273773Y-17161664D01*
X10273773Y-17161664D02*
X10264249Y-17152140D01*
X10264249Y-17152140D02*
X10273773Y-17142616D01*
X10273773Y-17142616D02*
X10273773Y-17161664D01*
X10359487Y-16980711D02*
X10369011Y-16971188D01*
X10369011Y-16971188D02*
X10388059Y-16961664D01*
X10388059Y-16961664D02*
X10435678Y-16961664D01*
X10435678Y-16961664D02*
X10454725Y-16971188D01*
X10454725Y-16971188D02*
X10464249Y-16980711D01*
X10464249Y-16980711D02*
X10473773Y-16999759D01*
X10473773Y-16999759D02*
X10473773Y-17018807D01*
X10473773Y-17018807D02*
X10464249Y-17047378D01*
X10464249Y-17047378D02*
X10349964Y-17161664D01*
X10349964Y-17161664D02*
X10473773Y-17161664D01*
X10597583Y-16961664D02*
X10616630Y-16961664D01*
X10616630Y-16961664D02*
X10635678Y-16971188D01*
X10635678Y-16971188D02*
X10645202Y-16980711D01*
X10645202Y-16980711D02*
X10654725Y-16999759D01*
X10654725Y-16999759D02*
X10664249Y-17037854D01*
X10664249Y-17037854D02*
X10664249Y-17085473D01*
X10664249Y-17085473D02*
X10654725Y-17123569D01*
X10654725Y-17123569D02*
X10645202Y-17142616D01*
X10645202Y-17142616D02*
X10635678Y-17152140D01*
X10635678Y-17152140D02*
X10616630Y-17161664D01*
X10616630Y-17161664D02*
X10597583Y-17161664D01*
X10597583Y-17161664D02*
X10578535Y-17152140D01*
X10578535Y-17152140D02*
X10569011Y-17142616D01*
X10569011Y-17142616D02*
X10559487Y-17123569D01*
X10559487Y-17123569D02*
X10549964Y-17085473D01*
X10549964Y-17085473D02*
X10549964Y-17037854D01*
X10549964Y-17037854D02*
X10559487Y-16999759D01*
X10559487Y-16999759D02*
X10569011Y-16980711D01*
X10569011Y-16980711D02*
X10578535Y-16971188D01*
X10578535Y-16971188D02*
X10597583Y-16961664D01*
X10788059Y-16961664D02*
X10807106Y-16961664D01*
X10807106Y-16961664D02*
X10826154Y-16971188D01*
X10826154Y-16971188D02*
X10835678Y-16980711D01*
X10835678Y-16980711D02*
X10845202Y-16999759D01*
X10845202Y-16999759D02*
X10854725Y-17037854D01*
X10854725Y-17037854D02*
X10854725Y-17085473D01*
X10854725Y-17085473D02*
X10845202Y-17123569D01*
X10845202Y-17123569D02*
X10835678Y-17142616D01*
X10835678Y-17142616D02*
X10826154Y-17152140D01*
X10826154Y-17152140D02*
X10807106Y-17161664D01*
X10807106Y-17161664D02*
X10788059Y-17161664D01*
X10788059Y-17161664D02*
X10769011Y-17152140D01*
X10769011Y-17152140D02*
X10759487Y-17142616D01*
X10759487Y-17142616D02*
X10749964Y-17123569D01*
X10749964Y-17123569D02*
X10740440Y-17085473D01*
X10740440Y-17085473D02*
X10740440Y-17037854D01*
X10740440Y-17037854D02*
X10749964Y-16999759D01*
X10749964Y-16999759D02*
X10759487Y-16980711D01*
X10759487Y-16980711D02*
X10769011Y-16971188D01*
X10769011Y-16971188D02*
X10788059Y-16961664D01*
X10940440Y-17161664D02*
X10940440Y-17028330D01*
X10940440Y-17047378D02*
X10949964Y-17037854D01*
X10949964Y-17037854D02*
X10969011Y-17028330D01*
X10969011Y-17028330D02*
X10997583Y-17028330D01*
X10997583Y-17028330D02*
X11016630Y-17037854D01*
X11016630Y-17037854D02*
X11026154Y-17056902D01*
X11026154Y-17056902D02*
X11026154Y-17161664D01*
X11026154Y-17056902D02*
X11035678Y-17037854D01*
X11035678Y-17037854D02*
X11054725Y-17028330D01*
X11054725Y-17028330D02*
X11083297Y-17028330D01*
X11083297Y-17028330D02*
X11102345Y-17037854D01*
X11102345Y-17037854D02*
X11111868Y-17056902D01*
X11111868Y-17056902D02*
X11111868Y-17161664D01*
X11207106Y-17161664D02*
X11207106Y-17028330D01*
X11207106Y-17047378D02*
X11216630Y-17037854D01*
X11216630Y-17037854D02*
X11235678Y-17028330D01*
X11235678Y-17028330D02*
X11264249Y-17028330D01*
X11264249Y-17028330D02*
X11283297Y-17037854D01*
X11283297Y-17037854D02*
X11292821Y-17056902D01*
X11292821Y-17056902D02*
X11292821Y-17161664D01*
X11292821Y-17056902D02*
X11302344Y-17037854D01*
X11302344Y-17037854D02*
X11321392Y-17028330D01*
X11321392Y-17028330D02*
X11349963Y-17028330D01*
X11349963Y-17028330D02*
X11369011Y-17037854D01*
X11369011Y-17037854D02*
X11378535Y-17056902D01*
X11378535Y-17056902D02*
X11378535Y-17161664D01*
X11769011Y-16952140D02*
X11597583Y-17209283D01*
X12026154Y-16961664D02*
X12045202Y-16961664D01*
X12045202Y-16961664D02*
X12064249Y-16971188D01*
X12064249Y-16971188D02*
X12073773Y-16980711D01*
X12073773Y-16980711D02*
X12083297Y-16999759D01*
X12083297Y-16999759D02*
X12092821Y-17037854D01*
X12092821Y-17037854D02*
X12092821Y-17085473D01*
X12092821Y-17085473D02*
X12083297Y-17123569D01*
X12083297Y-17123569D02*
X12073773Y-17142616D01*
X12073773Y-17142616D02*
X12064249Y-17152140D01*
X12064249Y-17152140D02*
X12045202Y-17161664D01*
X12045202Y-17161664D02*
X12026154Y-17161664D01*
X12026154Y-17161664D02*
X12007106Y-17152140D01*
X12007106Y-17152140D02*
X11997583Y-17142616D01*
X11997583Y-17142616D02*
X11988059Y-17123569D01*
X11988059Y-17123569D02*
X11978535Y-17085473D01*
X11978535Y-17085473D02*
X11978535Y-17037854D01*
X11978535Y-17037854D02*
X11988059Y-16999759D01*
X11988059Y-16999759D02*
X11997583Y-16980711D01*
X11997583Y-16980711D02*
X12007106Y-16971188D01*
X12007106Y-16971188D02*
X12026154Y-16961664D01*
X12178535Y-17142616D02*
X12188059Y-17152140D01*
X12188059Y-17152140D02*
X12178535Y-17161664D01*
X12178535Y-17161664D02*
X12169011Y-17152140D01*
X12169011Y-17152140D02*
X12178535Y-17142616D01*
X12178535Y-17142616D02*
X12178535Y-17161664D01*
X12311868Y-16961664D02*
X12330916Y-16961664D01*
X12330916Y-16961664D02*
X12349964Y-16971188D01*
X12349964Y-16971188D02*
X12359487Y-16980711D01*
X12359487Y-16980711D02*
X12369011Y-16999759D01*
X12369011Y-16999759D02*
X12378535Y-17037854D01*
X12378535Y-17037854D02*
X12378535Y-17085473D01*
X12378535Y-17085473D02*
X12369011Y-17123569D01*
X12369011Y-17123569D02*
X12359487Y-17142616D01*
X12359487Y-17142616D02*
X12349964Y-17152140D01*
X12349964Y-17152140D02*
X12330916Y-17161664D01*
X12330916Y-17161664D02*
X12311868Y-17161664D01*
X12311868Y-17161664D02*
X12292821Y-17152140D01*
X12292821Y-17152140D02*
X12283297Y-17142616D01*
X12283297Y-17142616D02*
X12273773Y-17123569D01*
X12273773Y-17123569D02*
X12264249Y-17085473D01*
X12264249Y-17085473D02*
X12264249Y-17037854D01*
X12264249Y-17037854D02*
X12273773Y-16999759D01*
X12273773Y-16999759D02*
X12283297Y-16980711D01*
X12283297Y-16980711D02*
X12292821Y-16971188D01*
X12292821Y-16971188D02*
X12311868Y-16961664D01*
X12549964Y-17028330D02*
X12549964Y-17161664D01*
X12502345Y-16952140D02*
X12454726Y-17094997D01*
X12454726Y-17094997D02*
X12578535Y-17094997D01*
X12635678Y-16961664D02*
X12769011Y-16961664D01*
X12769011Y-16961664D02*
X12683297Y-17161664D01*
X12835678Y-16980711D02*
X12845202Y-16971188D01*
X12845202Y-16971188D02*
X12864249Y-16961664D01*
X12864249Y-16961664D02*
X12911868Y-16961664D01*
X12911868Y-16961664D02*
X12930916Y-16971188D01*
X12930916Y-16971188D02*
X12940440Y-16980711D01*
X12940440Y-16980711D02*
X12949964Y-16999759D01*
X12949964Y-16999759D02*
X12949964Y-17018807D01*
X12949964Y-17018807D02*
X12940440Y-17047378D01*
X12940440Y-17047378D02*
X12826154Y-17161664D01*
X12826154Y-17161664D02*
X12949964Y-17161664D01*
X13026154Y-16961664D02*
X13026154Y-16999759D01*
X13102345Y-16961664D02*
X13102345Y-16999759D01*
X13397583Y-17237854D02*
X13388059Y-17228330D01*
X13388059Y-17228330D02*
X13369011Y-17199759D01*
X13369011Y-17199759D02*
X13359488Y-17180711D01*
X13359488Y-17180711D02*
X13349964Y-17152140D01*
X13349964Y-17152140D02*
X13340440Y-17104521D01*
X13340440Y-17104521D02*
X13340440Y-17066426D01*
X13340440Y-17066426D02*
X13349964Y-17018807D01*
X13349964Y-17018807D02*
X13359488Y-16990235D01*
X13359488Y-16990235D02*
X13369011Y-16971188D01*
X13369011Y-16971188D02*
X13388059Y-16942616D01*
X13388059Y-16942616D02*
X13397583Y-16933092D01*
X13502345Y-17047378D02*
X13483297Y-17037854D01*
X13483297Y-17037854D02*
X13473773Y-17028330D01*
X13473773Y-17028330D02*
X13464249Y-17009283D01*
X13464249Y-17009283D02*
X13464249Y-16999759D01*
X13464249Y-16999759D02*
X13473773Y-16980711D01*
X13473773Y-16980711D02*
X13483297Y-16971188D01*
X13483297Y-16971188D02*
X13502345Y-16961664D01*
X13502345Y-16961664D02*
X13540440Y-16961664D01*
X13540440Y-16961664D02*
X13559488Y-16971188D01*
X13559488Y-16971188D02*
X13569011Y-16980711D01*
X13569011Y-16980711D02*
X13578535Y-16999759D01*
X13578535Y-16999759D02*
X13578535Y-17009283D01*
X13578535Y-17009283D02*
X13569011Y-17028330D01*
X13569011Y-17028330D02*
X13559488Y-17037854D01*
X13559488Y-17037854D02*
X13540440Y-17047378D01*
X13540440Y-17047378D02*
X13502345Y-17047378D01*
X13502345Y-17047378D02*
X13483297Y-17056902D01*
X13483297Y-17056902D02*
X13473773Y-17066426D01*
X13473773Y-17066426D02*
X13464249Y-17085473D01*
X13464249Y-17085473D02*
X13464249Y-17123569D01*
X13464249Y-17123569D02*
X13473773Y-17142616D01*
X13473773Y-17142616D02*
X13483297Y-17152140D01*
X13483297Y-17152140D02*
X13502345Y-17161664D01*
X13502345Y-17161664D02*
X13540440Y-17161664D01*
X13540440Y-17161664D02*
X13559488Y-17152140D01*
X13559488Y-17152140D02*
X13569011Y-17142616D01*
X13569011Y-17142616D02*
X13578535Y-17123569D01*
X13578535Y-17123569D02*
X13578535Y-17085473D01*
X13578535Y-17085473D02*
X13569011Y-17066426D01*
X13569011Y-17066426D02*
X13559488Y-17056902D01*
X13559488Y-17056902D02*
X13540440Y-17047378D01*
X13816630Y-17161664D02*
X13816630Y-16961664D01*
X13902345Y-17161664D02*
X13902345Y-17056902D01*
X13902345Y-17056902D02*
X13892821Y-17037854D01*
X13892821Y-17037854D02*
X13873773Y-17028330D01*
X13873773Y-17028330D02*
X13845202Y-17028330D01*
X13845202Y-17028330D02*
X13826154Y-17037854D01*
X13826154Y-17037854D02*
X13816630Y-17047378D01*
X14026154Y-17161664D02*
X14007107Y-17152140D01*
X14007107Y-17152140D02*
X13997583Y-17142616D01*
X13997583Y-17142616D02*
X13988059Y-17123569D01*
X13988059Y-17123569D02*
X13988059Y-17066426D01*
X13988059Y-17066426D02*
X13997583Y-17047378D01*
X13997583Y-17047378D02*
X14007107Y-17037854D01*
X14007107Y-17037854D02*
X14026154Y-17028330D01*
X14026154Y-17028330D02*
X14054726Y-17028330D01*
X14054726Y-17028330D02*
X14073773Y-17037854D01*
X14073773Y-17037854D02*
X14083297Y-17047378D01*
X14083297Y-17047378D02*
X14092821Y-17066426D01*
X14092821Y-17066426D02*
X14092821Y-17123569D01*
X14092821Y-17123569D02*
X14083297Y-17142616D01*
X14083297Y-17142616D02*
X14073773Y-17152140D01*
X14073773Y-17152140D02*
X14054726Y-17161664D01*
X14054726Y-17161664D02*
X14026154Y-17161664D01*
X14207107Y-17161664D02*
X14188059Y-17152140D01*
X14188059Y-17152140D02*
X14178535Y-17133092D01*
X14178535Y-17133092D02*
X14178535Y-16961664D01*
X14359488Y-17152140D02*
X14340440Y-17161664D01*
X14340440Y-17161664D02*
X14302345Y-17161664D01*
X14302345Y-17161664D02*
X14283297Y-17152140D01*
X14283297Y-17152140D02*
X14273773Y-17133092D01*
X14273773Y-17133092D02*
X14273773Y-17056902D01*
X14273773Y-17056902D02*
X14283297Y-17037854D01*
X14283297Y-17037854D02*
X14302345Y-17028330D01*
X14302345Y-17028330D02*
X14340440Y-17028330D01*
X14340440Y-17028330D02*
X14359488Y-17037854D01*
X14359488Y-17037854D02*
X14369011Y-17056902D01*
X14369011Y-17056902D02*
X14369011Y-17075950D01*
X14369011Y-17075950D02*
X14273773Y-17094997D01*
X14445202Y-17152140D02*
X14464250Y-17161664D01*
X14464250Y-17161664D02*
X14502345Y-17161664D01*
X14502345Y-17161664D02*
X14521392Y-17152140D01*
X14521392Y-17152140D02*
X14530916Y-17133092D01*
X14530916Y-17133092D02*
X14530916Y-17123569D01*
X14530916Y-17123569D02*
X14521392Y-17104521D01*
X14521392Y-17104521D02*
X14502345Y-17094997D01*
X14502345Y-17094997D02*
X14473773Y-17094997D01*
X14473773Y-17094997D02*
X14454726Y-17085473D01*
X14454726Y-17085473D02*
X14445202Y-17066426D01*
X14445202Y-17066426D02*
X14445202Y-17056902D01*
X14445202Y-17056902D02*
X14454726Y-17037854D01*
X14454726Y-17037854D02*
X14473773Y-17028330D01*
X14473773Y-17028330D02*
X14502345Y-17028330D01*
X14502345Y-17028330D02*
X14521392Y-17037854D01*
X14597583Y-17237854D02*
X14607107Y-17228330D01*
X14607107Y-17228330D02*
X14626154Y-17199759D01*
X14626154Y-17199759D02*
X14635678Y-17180711D01*
X14635678Y-17180711D02*
X14645202Y-17152140D01*
X14645202Y-17152140D02*
X14654726Y-17104521D01*
X14654726Y-17104521D02*
X14654726Y-17066426D01*
X14654726Y-17066426D02*
X14645202Y-17018807D01*
X14645202Y-17018807D02*
X14635678Y-16990235D01*
X14635678Y-16990235D02*
X14626154Y-16971188D01*
X14626154Y-16971188D02*
X14607107Y-16942616D01*
X14607107Y-16942616D02*
X14597583Y-16933092D01*
D14*
X9692980Y-17269410D02*
X9822520Y-17398950D01*
X9822520Y-17269410D02*
X9692980Y-17398950D01*
X9803550Y-17379980D02*
X9803550Y-17288380D01*
X9711950Y-17288380D01*
X9711950Y-17379980D01*
X9803550Y-17379980D01*
D11*
X10188059Y-17425664D02*
X10073773Y-17425664D01*
X10130916Y-17425664D02*
X10130916Y-17225664D01*
X10130916Y-17225664D02*
X10111868Y-17254235D01*
X10111868Y-17254235D02*
X10092821Y-17273283D01*
X10092821Y-17273283D02*
X10073773Y-17282807D01*
X10273773Y-17406616D02*
X10283297Y-17416140D01*
X10283297Y-17416140D02*
X10273773Y-17425664D01*
X10273773Y-17425664D02*
X10264249Y-17416140D01*
X10264249Y-17416140D02*
X10273773Y-17406616D01*
X10273773Y-17406616D02*
X10273773Y-17425664D01*
X10359487Y-17244711D02*
X10369011Y-17235188D01*
X10369011Y-17235188D02*
X10388059Y-17225664D01*
X10388059Y-17225664D02*
X10435678Y-17225664D01*
X10435678Y-17225664D02*
X10454725Y-17235188D01*
X10454725Y-17235188D02*
X10464249Y-17244711D01*
X10464249Y-17244711D02*
X10473773Y-17263759D01*
X10473773Y-17263759D02*
X10473773Y-17282807D01*
X10473773Y-17282807D02*
X10464249Y-17311378D01*
X10464249Y-17311378D02*
X10349964Y-17425664D01*
X10349964Y-17425664D02*
X10473773Y-17425664D01*
X10569011Y-17425664D02*
X10607106Y-17425664D01*
X10607106Y-17425664D02*
X10626154Y-17416140D01*
X10626154Y-17416140D02*
X10635678Y-17406616D01*
X10635678Y-17406616D02*
X10654725Y-17378045D01*
X10654725Y-17378045D02*
X10664249Y-17339950D01*
X10664249Y-17339950D02*
X10664249Y-17263759D01*
X10664249Y-17263759D02*
X10654725Y-17244711D01*
X10654725Y-17244711D02*
X10645202Y-17235188D01*
X10645202Y-17235188D02*
X10626154Y-17225664D01*
X10626154Y-17225664D02*
X10588059Y-17225664D01*
X10588059Y-17225664D02*
X10569011Y-17235188D01*
X10569011Y-17235188D02*
X10559487Y-17244711D01*
X10559487Y-17244711D02*
X10549964Y-17263759D01*
X10549964Y-17263759D02*
X10549964Y-17311378D01*
X10549964Y-17311378D02*
X10559487Y-17330426D01*
X10559487Y-17330426D02*
X10569011Y-17339950D01*
X10569011Y-17339950D02*
X10588059Y-17349473D01*
X10588059Y-17349473D02*
X10626154Y-17349473D01*
X10626154Y-17349473D02*
X10645202Y-17339950D01*
X10645202Y-17339950D02*
X10654725Y-17330426D01*
X10654725Y-17330426D02*
X10664249Y-17311378D01*
X10845202Y-17225664D02*
X10749964Y-17225664D01*
X10749964Y-17225664D02*
X10740440Y-17320902D01*
X10740440Y-17320902D02*
X10749964Y-17311378D01*
X10749964Y-17311378D02*
X10769011Y-17301854D01*
X10769011Y-17301854D02*
X10816630Y-17301854D01*
X10816630Y-17301854D02*
X10835678Y-17311378D01*
X10835678Y-17311378D02*
X10845202Y-17320902D01*
X10845202Y-17320902D02*
X10854725Y-17339950D01*
X10854725Y-17339950D02*
X10854725Y-17387569D01*
X10854725Y-17387569D02*
X10845202Y-17406616D01*
X10845202Y-17406616D02*
X10835678Y-17416140D01*
X10835678Y-17416140D02*
X10816630Y-17425664D01*
X10816630Y-17425664D02*
X10769011Y-17425664D01*
X10769011Y-17425664D02*
X10749964Y-17416140D01*
X10749964Y-17416140D02*
X10740440Y-17406616D01*
X10940440Y-17425664D02*
X10940440Y-17292330D01*
X10940440Y-17311378D02*
X10949964Y-17301854D01*
X10949964Y-17301854D02*
X10969011Y-17292330D01*
X10969011Y-17292330D02*
X10997583Y-17292330D01*
X10997583Y-17292330D02*
X11016630Y-17301854D01*
X11016630Y-17301854D02*
X11026154Y-17320902D01*
X11026154Y-17320902D02*
X11026154Y-17425664D01*
X11026154Y-17320902D02*
X11035678Y-17301854D01*
X11035678Y-17301854D02*
X11054725Y-17292330D01*
X11054725Y-17292330D02*
X11083297Y-17292330D01*
X11083297Y-17292330D02*
X11102345Y-17301854D01*
X11102345Y-17301854D02*
X11111868Y-17320902D01*
X11111868Y-17320902D02*
X11111868Y-17425664D01*
X11207106Y-17425664D02*
X11207106Y-17292330D01*
X11207106Y-17311378D02*
X11216630Y-17301854D01*
X11216630Y-17301854D02*
X11235678Y-17292330D01*
X11235678Y-17292330D02*
X11264249Y-17292330D01*
X11264249Y-17292330D02*
X11283297Y-17301854D01*
X11283297Y-17301854D02*
X11292821Y-17320902D01*
X11292821Y-17320902D02*
X11292821Y-17425664D01*
X11292821Y-17320902D02*
X11302344Y-17301854D01*
X11302344Y-17301854D02*
X11321392Y-17292330D01*
X11321392Y-17292330D02*
X11349963Y-17292330D01*
X11349963Y-17292330D02*
X11369011Y-17301854D01*
X11369011Y-17301854D02*
X11378535Y-17320902D01*
X11378535Y-17320902D02*
X11378535Y-17425664D01*
X11769011Y-17216140D02*
X11597583Y-17473283D01*
X12026154Y-17225664D02*
X12045202Y-17225664D01*
X12045202Y-17225664D02*
X12064249Y-17235188D01*
X12064249Y-17235188D02*
X12073773Y-17244711D01*
X12073773Y-17244711D02*
X12083297Y-17263759D01*
X12083297Y-17263759D02*
X12092821Y-17301854D01*
X12092821Y-17301854D02*
X12092821Y-17349473D01*
X12092821Y-17349473D02*
X12083297Y-17387569D01*
X12083297Y-17387569D02*
X12073773Y-17406616D01*
X12073773Y-17406616D02*
X12064249Y-17416140D01*
X12064249Y-17416140D02*
X12045202Y-17425664D01*
X12045202Y-17425664D02*
X12026154Y-17425664D01*
X12026154Y-17425664D02*
X12007106Y-17416140D01*
X12007106Y-17416140D02*
X11997583Y-17406616D01*
X11997583Y-17406616D02*
X11988059Y-17387569D01*
X11988059Y-17387569D02*
X11978535Y-17349473D01*
X11978535Y-17349473D02*
X11978535Y-17301854D01*
X11978535Y-17301854D02*
X11988059Y-17263759D01*
X11988059Y-17263759D02*
X11997583Y-17244711D01*
X11997583Y-17244711D02*
X12007106Y-17235188D01*
X12007106Y-17235188D02*
X12026154Y-17225664D01*
X12178535Y-17406616D02*
X12188059Y-17416140D01*
X12188059Y-17416140D02*
X12178535Y-17425664D01*
X12178535Y-17425664D02*
X12169011Y-17416140D01*
X12169011Y-17416140D02*
X12178535Y-17406616D01*
X12178535Y-17406616D02*
X12178535Y-17425664D01*
X12311868Y-17225664D02*
X12330916Y-17225664D01*
X12330916Y-17225664D02*
X12349964Y-17235188D01*
X12349964Y-17235188D02*
X12359487Y-17244711D01*
X12359487Y-17244711D02*
X12369011Y-17263759D01*
X12369011Y-17263759D02*
X12378535Y-17301854D01*
X12378535Y-17301854D02*
X12378535Y-17349473D01*
X12378535Y-17349473D02*
X12369011Y-17387569D01*
X12369011Y-17387569D02*
X12359487Y-17406616D01*
X12359487Y-17406616D02*
X12349964Y-17416140D01*
X12349964Y-17416140D02*
X12330916Y-17425664D01*
X12330916Y-17425664D02*
X12311868Y-17425664D01*
X12311868Y-17425664D02*
X12292821Y-17416140D01*
X12292821Y-17416140D02*
X12283297Y-17406616D01*
X12283297Y-17406616D02*
X12273773Y-17387569D01*
X12273773Y-17387569D02*
X12264249Y-17349473D01*
X12264249Y-17349473D02*
X12264249Y-17301854D01*
X12264249Y-17301854D02*
X12273773Y-17263759D01*
X12273773Y-17263759D02*
X12283297Y-17244711D01*
X12283297Y-17244711D02*
X12292821Y-17235188D01*
X12292821Y-17235188D02*
X12311868Y-17225664D01*
X12559487Y-17225664D02*
X12464249Y-17225664D01*
X12464249Y-17225664D02*
X12454726Y-17320902D01*
X12454726Y-17320902D02*
X12464249Y-17311378D01*
X12464249Y-17311378D02*
X12483297Y-17301854D01*
X12483297Y-17301854D02*
X12530916Y-17301854D01*
X12530916Y-17301854D02*
X12549964Y-17311378D01*
X12549964Y-17311378D02*
X12559487Y-17320902D01*
X12559487Y-17320902D02*
X12569011Y-17339950D01*
X12569011Y-17339950D02*
X12569011Y-17387569D01*
X12569011Y-17387569D02*
X12559487Y-17406616D01*
X12559487Y-17406616D02*
X12549964Y-17416140D01*
X12549964Y-17416140D02*
X12530916Y-17425664D01*
X12530916Y-17425664D02*
X12483297Y-17425664D01*
X12483297Y-17425664D02*
X12464249Y-17416140D01*
X12464249Y-17416140D02*
X12454726Y-17406616D01*
X12759487Y-17425664D02*
X12645202Y-17425664D01*
X12702345Y-17425664D02*
X12702345Y-17225664D01*
X12702345Y-17225664D02*
X12683297Y-17254235D01*
X12683297Y-17254235D02*
X12664249Y-17273283D01*
X12664249Y-17273283D02*
X12645202Y-17282807D01*
X12883297Y-17225664D02*
X12902345Y-17225664D01*
X12902345Y-17225664D02*
X12921392Y-17235188D01*
X12921392Y-17235188D02*
X12930916Y-17244711D01*
X12930916Y-17244711D02*
X12940440Y-17263759D01*
X12940440Y-17263759D02*
X12949964Y-17301854D01*
X12949964Y-17301854D02*
X12949964Y-17349473D01*
X12949964Y-17349473D02*
X12940440Y-17387569D01*
X12940440Y-17387569D02*
X12930916Y-17406616D01*
X12930916Y-17406616D02*
X12921392Y-17416140D01*
X12921392Y-17416140D02*
X12902345Y-17425664D01*
X12902345Y-17425664D02*
X12883297Y-17425664D01*
X12883297Y-17425664D02*
X12864249Y-17416140D01*
X12864249Y-17416140D02*
X12854726Y-17406616D01*
X12854726Y-17406616D02*
X12845202Y-17387569D01*
X12845202Y-17387569D02*
X12835678Y-17349473D01*
X12835678Y-17349473D02*
X12835678Y-17301854D01*
X12835678Y-17301854D02*
X12845202Y-17263759D01*
X12845202Y-17263759D02*
X12854726Y-17244711D01*
X12854726Y-17244711D02*
X12864249Y-17235188D01*
X12864249Y-17235188D02*
X12883297Y-17225664D01*
X13026154Y-17225664D02*
X13026154Y-17263759D01*
X13102345Y-17225664D02*
X13102345Y-17263759D01*
X13397583Y-17501854D02*
X13388059Y-17492330D01*
X13388059Y-17492330D02*
X13369011Y-17463759D01*
X13369011Y-17463759D02*
X13359488Y-17444711D01*
X13359488Y-17444711D02*
X13349964Y-17416140D01*
X13349964Y-17416140D02*
X13340440Y-17368521D01*
X13340440Y-17368521D02*
X13340440Y-17330426D01*
X13340440Y-17330426D02*
X13349964Y-17282807D01*
X13349964Y-17282807D02*
X13359488Y-17254235D01*
X13359488Y-17254235D02*
X13369011Y-17235188D01*
X13369011Y-17235188D02*
X13388059Y-17206616D01*
X13388059Y-17206616D02*
X13397583Y-17197092D01*
X13569011Y-17225664D02*
X13473773Y-17225664D01*
X13473773Y-17225664D02*
X13464249Y-17320902D01*
X13464249Y-17320902D02*
X13473773Y-17311378D01*
X13473773Y-17311378D02*
X13492821Y-17301854D01*
X13492821Y-17301854D02*
X13540440Y-17301854D01*
X13540440Y-17301854D02*
X13559488Y-17311378D01*
X13559488Y-17311378D02*
X13569011Y-17320902D01*
X13569011Y-17320902D02*
X13578535Y-17339950D01*
X13578535Y-17339950D02*
X13578535Y-17387569D01*
X13578535Y-17387569D02*
X13569011Y-17406616D01*
X13569011Y-17406616D02*
X13559488Y-17416140D01*
X13559488Y-17416140D02*
X13540440Y-17425664D01*
X13540440Y-17425664D02*
X13492821Y-17425664D01*
X13492821Y-17425664D02*
X13473773Y-17416140D01*
X13473773Y-17416140D02*
X13464249Y-17406616D01*
X13816630Y-17425664D02*
X13816630Y-17225664D01*
X13902345Y-17425664D02*
X13902345Y-17320902D01*
X13902345Y-17320902D02*
X13892821Y-17301854D01*
X13892821Y-17301854D02*
X13873773Y-17292330D01*
X13873773Y-17292330D02*
X13845202Y-17292330D01*
X13845202Y-17292330D02*
X13826154Y-17301854D01*
X13826154Y-17301854D02*
X13816630Y-17311378D01*
X14026154Y-17425664D02*
X14007107Y-17416140D01*
X14007107Y-17416140D02*
X13997583Y-17406616D01*
X13997583Y-17406616D02*
X13988059Y-17387569D01*
X13988059Y-17387569D02*
X13988059Y-17330426D01*
X13988059Y-17330426D02*
X13997583Y-17311378D01*
X13997583Y-17311378D02*
X14007107Y-17301854D01*
X14007107Y-17301854D02*
X14026154Y-17292330D01*
X14026154Y-17292330D02*
X14054726Y-17292330D01*
X14054726Y-17292330D02*
X14073773Y-17301854D01*
X14073773Y-17301854D02*
X14083297Y-17311378D01*
X14083297Y-17311378D02*
X14092821Y-17330426D01*
X14092821Y-17330426D02*
X14092821Y-17387569D01*
X14092821Y-17387569D02*
X14083297Y-17406616D01*
X14083297Y-17406616D02*
X14073773Y-17416140D01*
X14073773Y-17416140D02*
X14054726Y-17425664D01*
X14054726Y-17425664D02*
X14026154Y-17425664D01*
X14207107Y-17425664D02*
X14188059Y-17416140D01*
X14188059Y-17416140D02*
X14178535Y-17397092D01*
X14178535Y-17397092D02*
X14178535Y-17225664D01*
X14359488Y-17416140D02*
X14340440Y-17425664D01*
X14340440Y-17425664D02*
X14302345Y-17425664D01*
X14302345Y-17425664D02*
X14283297Y-17416140D01*
X14283297Y-17416140D02*
X14273773Y-17397092D01*
X14273773Y-17397092D02*
X14273773Y-17320902D01*
X14273773Y-17320902D02*
X14283297Y-17301854D01*
X14283297Y-17301854D02*
X14302345Y-17292330D01*
X14302345Y-17292330D02*
X14340440Y-17292330D01*
X14340440Y-17292330D02*
X14359488Y-17301854D01*
X14359488Y-17301854D02*
X14369011Y-17320902D01*
X14369011Y-17320902D02*
X14369011Y-17339950D01*
X14369011Y-17339950D02*
X14273773Y-17358997D01*
X14445202Y-17416140D02*
X14464250Y-17425664D01*
X14464250Y-17425664D02*
X14502345Y-17425664D01*
X14502345Y-17425664D02*
X14521392Y-17416140D01*
X14521392Y-17416140D02*
X14530916Y-17397092D01*
X14530916Y-17397092D02*
X14530916Y-17387569D01*
X14530916Y-17387569D02*
X14521392Y-17368521D01*
X14521392Y-17368521D02*
X14502345Y-17358997D01*
X14502345Y-17358997D02*
X14473773Y-17358997D01*
X14473773Y-17358997D02*
X14454726Y-17349473D01*
X14454726Y-17349473D02*
X14445202Y-17330426D01*
X14445202Y-17330426D02*
X14445202Y-17320902D01*
X14445202Y-17320902D02*
X14454726Y-17301854D01*
X14454726Y-17301854D02*
X14473773Y-17292330D01*
X14473773Y-17292330D02*
X14502345Y-17292330D01*
X14502345Y-17292330D02*
X14521392Y-17301854D01*
X14597583Y-17501854D02*
X14607107Y-17492330D01*
X14607107Y-17492330D02*
X14626154Y-17463759D01*
X14626154Y-17463759D02*
X14635678Y-17444711D01*
X14635678Y-17444711D02*
X14645202Y-17416140D01*
X14645202Y-17416140D02*
X14654726Y-17368521D01*
X14654726Y-17368521D02*
X14654726Y-17330426D01*
X14654726Y-17330426D02*
X14645202Y-17282807D01*
X14645202Y-17282807D02*
X14635678Y-17254235D01*
X14635678Y-17254235D02*
X14626154Y-17235188D01*
X14626154Y-17235188D02*
X14607107Y-17206616D01*
X14607107Y-17206616D02*
X14597583Y-17197092D01*
D10*
X9672520Y-17523180D02*
X9822520Y-17673180D01*
X9822520Y-17523180D02*
X9672520Y-17673180D01*
X9747520Y-17673180D02*
X9822520Y-17598180D01*
X9747520Y-17523180D01*
X9672520Y-17598180D01*
X9747520Y-17673180D01*
D11*
X10188059Y-17689664D02*
X10073773Y-17689664D01*
X10130916Y-17689664D02*
X10130916Y-17489664D01*
X10130916Y-17489664D02*
X10111868Y-17518235D01*
X10111868Y-17518235D02*
X10092821Y-17537283D01*
X10092821Y-17537283D02*
X10073773Y-17546807D01*
X10273773Y-17670616D02*
X10283297Y-17680140D01*
X10283297Y-17680140D02*
X10273773Y-17689664D01*
X10273773Y-17689664D02*
X10264249Y-17680140D01*
X10264249Y-17680140D02*
X10273773Y-17670616D01*
X10273773Y-17670616D02*
X10273773Y-17689664D01*
X10464249Y-17489664D02*
X10369011Y-17489664D01*
X10369011Y-17489664D02*
X10359487Y-17584902D01*
X10359487Y-17584902D02*
X10369011Y-17575378D01*
X10369011Y-17575378D02*
X10388059Y-17565854D01*
X10388059Y-17565854D02*
X10435678Y-17565854D01*
X10435678Y-17565854D02*
X10454725Y-17575378D01*
X10454725Y-17575378D02*
X10464249Y-17584902D01*
X10464249Y-17584902D02*
X10473773Y-17603950D01*
X10473773Y-17603950D02*
X10473773Y-17651569D01*
X10473773Y-17651569D02*
X10464249Y-17670616D01*
X10464249Y-17670616D02*
X10454725Y-17680140D01*
X10454725Y-17680140D02*
X10435678Y-17689664D01*
X10435678Y-17689664D02*
X10388059Y-17689664D01*
X10388059Y-17689664D02*
X10369011Y-17680140D01*
X10369011Y-17680140D02*
X10359487Y-17670616D01*
X10597583Y-17489664D02*
X10616630Y-17489664D01*
X10616630Y-17489664D02*
X10635678Y-17499188D01*
X10635678Y-17499188D02*
X10645202Y-17508711D01*
X10645202Y-17508711D02*
X10654725Y-17527759D01*
X10654725Y-17527759D02*
X10664249Y-17565854D01*
X10664249Y-17565854D02*
X10664249Y-17613473D01*
X10664249Y-17613473D02*
X10654725Y-17651569D01*
X10654725Y-17651569D02*
X10645202Y-17670616D01*
X10645202Y-17670616D02*
X10635678Y-17680140D01*
X10635678Y-17680140D02*
X10616630Y-17689664D01*
X10616630Y-17689664D02*
X10597583Y-17689664D01*
X10597583Y-17689664D02*
X10578535Y-17680140D01*
X10578535Y-17680140D02*
X10569011Y-17670616D01*
X10569011Y-17670616D02*
X10559487Y-17651569D01*
X10559487Y-17651569D02*
X10549964Y-17613473D01*
X10549964Y-17613473D02*
X10549964Y-17565854D01*
X10549964Y-17565854D02*
X10559487Y-17527759D01*
X10559487Y-17527759D02*
X10569011Y-17508711D01*
X10569011Y-17508711D02*
X10578535Y-17499188D01*
X10578535Y-17499188D02*
X10597583Y-17489664D01*
X10788059Y-17489664D02*
X10807106Y-17489664D01*
X10807106Y-17489664D02*
X10826154Y-17499188D01*
X10826154Y-17499188D02*
X10835678Y-17508711D01*
X10835678Y-17508711D02*
X10845202Y-17527759D01*
X10845202Y-17527759D02*
X10854725Y-17565854D01*
X10854725Y-17565854D02*
X10854725Y-17613473D01*
X10854725Y-17613473D02*
X10845202Y-17651569D01*
X10845202Y-17651569D02*
X10835678Y-17670616D01*
X10835678Y-17670616D02*
X10826154Y-17680140D01*
X10826154Y-17680140D02*
X10807106Y-17689664D01*
X10807106Y-17689664D02*
X10788059Y-17689664D01*
X10788059Y-17689664D02*
X10769011Y-17680140D01*
X10769011Y-17680140D02*
X10759487Y-17670616D01*
X10759487Y-17670616D02*
X10749964Y-17651569D01*
X10749964Y-17651569D02*
X10740440Y-17613473D01*
X10740440Y-17613473D02*
X10740440Y-17565854D01*
X10740440Y-17565854D02*
X10749964Y-17527759D01*
X10749964Y-17527759D02*
X10759487Y-17508711D01*
X10759487Y-17508711D02*
X10769011Y-17499188D01*
X10769011Y-17499188D02*
X10788059Y-17489664D01*
X10940440Y-17689664D02*
X10940440Y-17556330D01*
X10940440Y-17575378D02*
X10949964Y-17565854D01*
X10949964Y-17565854D02*
X10969011Y-17556330D01*
X10969011Y-17556330D02*
X10997583Y-17556330D01*
X10997583Y-17556330D02*
X11016630Y-17565854D01*
X11016630Y-17565854D02*
X11026154Y-17584902D01*
X11026154Y-17584902D02*
X11026154Y-17689664D01*
X11026154Y-17584902D02*
X11035678Y-17565854D01*
X11035678Y-17565854D02*
X11054725Y-17556330D01*
X11054725Y-17556330D02*
X11083297Y-17556330D01*
X11083297Y-17556330D02*
X11102345Y-17565854D01*
X11102345Y-17565854D02*
X11111868Y-17584902D01*
X11111868Y-17584902D02*
X11111868Y-17689664D01*
X11207106Y-17689664D02*
X11207106Y-17556330D01*
X11207106Y-17575378D02*
X11216630Y-17565854D01*
X11216630Y-17565854D02*
X11235678Y-17556330D01*
X11235678Y-17556330D02*
X11264249Y-17556330D01*
X11264249Y-17556330D02*
X11283297Y-17565854D01*
X11283297Y-17565854D02*
X11292821Y-17584902D01*
X11292821Y-17584902D02*
X11292821Y-17689664D01*
X11292821Y-17584902D02*
X11302344Y-17565854D01*
X11302344Y-17565854D02*
X11321392Y-17556330D01*
X11321392Y-17556330D02*
X11349963Y-17556330D01*
X11349963Y-17556330D02*
X11369011Y-17565854D01*
X11369011Y-17565854D02*
X11378535Y-17584902D01*
X11378535Y-17584902D02*
X11378535Y-17689664D01*
X11769011Y-17480140D02*
X11597583Y-17737283D01*
X12026154Y-17489664D02*
X12045202Y-17489664D01*
X12045202Y-17489664D02*
X12064249Y-17499188D01*
X12064249Y-17499188D02*
X12073773Y-17508711D01*
X12073773Y-17508711D02*
X12083297Y-17527759D01*
X12083297Y-17527759D02*
X12092821Y-17565854D01*
X12092821Y-17565854D02*
X12092821Y-17613473D01*
X12092821Y-17613473D02*
X12083297Y-17651569D01*
X12083297Y-17651569D02*
X12073773Y-17670616D01*
X12073773Y-17670616D02*
X12064249Y-17680140D01*
X12064249Y-17680140D02*
X12045202Y-17689664D01*
X12045202Y-17689664D02*
X12026154Y-17689664D01*
X12026154Y-17689664D02*
X12007106Y-17680140D01*
X12007106Y-17680140D02*
X11997583Y-17670616D01*
X11997583Y-17670616D02*
X11988059Y-17651569D01*
X11988059Y-17651569D02*
X11978535Y-17613473D01*
X11978535Y-17613473D02*
X11978535Y-17565854D01*
X11978535Y-17565854D02*
X11988059Y-17527759D01*
X11988059Y-17527759D02*
X11997583Y-17508711D01*
X11997583Y-17508711D02*
X12007106Y-17499188D01*
X12007106Y-17499188D02*
X12026154Y-17489664D01*
X12178535Y-17670616D02*
X12188059Y-17680140D01*
X12188059Y-17680140D02*
X12178535Y-17689664D01*
X12178535Y-17689664D02*
X12169011Y-17680140D01*
X12169011Y-17680140D02*
X12178535Y-17670616D01*
X12178535Y-17670616D02*
X12178535Y-17689664D01*
X12311868Y-17489664D02*
X12330916Y-17489664D01*
X12330916Y-17489664D02*
X12349964Y-17499188D01*
X12349964Y-17499188D02*
X12359487Y-17508711D01*
X12359487Y-17508711D02*
X12369011Y-17527759D01*
X12369011Y-17527759D02*
X12378535Y-17565854D01*
X12378535Y-17565854D02*
X12378535Y-17613473D01*
X12378535Y-17613473D02*
X12369011Y-17651569D01*
X12369011Y-17651569D02*
X12359487Y-17670616D01*
X12359487Y-17670616D02*
X12349964Y-17680140D01*
X12349964Y-17680140D02*
X12330916Y-17689664D01*
X12330916Y-17689664D02*
X12311868Y-17689664D01*
X12311868Y-17689664D02*
X12292821Y-17680140D01*
X12292821Y-17680140D02*
X12283297Y-17670616D01*
X12283297Y-17670616D02*
X12273773Y-17651569D01*
X12273773Y-17651569D02*
X12264249Y-17613473D01*
X12264249Y-17613473D02*
X12264249Y-17565854D01*
X12264249Y-17565854D02*
X12273773Y-17527759D01*
X12273773Y-17527759D02*
X12283297Y-17508711D01*
X12283297Y-17508711D02*
X12292821Y-17499188D01*
X12292821Y-17499188D02*
X12311868Y-17489664D01*
X12559487Y-17489664D02*
X12464249Y-17489664D01*
X12464249Y-17489664D02*
X12454726Y-17584902D01*
X12454726Y-17584902D02*
X12464249Y-17575378D01*
X12464249Y-17575378D02*
X12483297Y-17565854D01*
X12483297Y-17565854D02*
X12530916Y-17565854D01*
X12530916Y-17565854D02*
X12549964Y-17575378D01*
X12549964Y-17575378D02*
X12559487Y-17584902D01*
X12559487Y-17584902D02*
X12569011Y-17603950D01*
X12569011Y-17603950D02*
X12569011Y-17651569D01*
X12569011Y-17651569D02*
X12559487Y-17670616D01*
X12559487Y-17670616D02*
X12549964Y-17680140D01*
X12549964Y-17680140D02*
X12530916Y-17689664D01*
X12530916Y-17689664D02*
X12483297Y-17689664D01*
X12483297Y-17689664D02*
X12464249Y-17680140D01*
X12464249Y-17680140D02*
X12454726Y-17670616D01*
X12664249Y-17689664D02*
X12702345Y-17689664D01*
X12702345Y-17689664D02*
X12721392Y-17680140D01*
X12721392Y-17680140D02*
X12730916Y-17670616D01*
X12730916Y-17670616D02*
X12749964Y-17642045D01*
X12749964Y-17642045D02*
X12759487Y-17603950D01*
X12759487Y-17603950D02*
X12759487Y-17527759D01*
X12759487Y-17527759D02*
X12749964Y-17508711D01*
X12749964Y-17508711D02*
X12740440Y-17499188D01*
X12740440Y-17499188D02*
X12721392Y-17489664D01*
X12721392Y-17489664D02*
X12683297Y-17489664D01*
X12683297Y-17489664D02*
X12664249Y-17499188D01*
X12664249Y-17499188D02*
X12654726Y-17508711D01*
X12654726Y-17508711D02*
X12645202Y-17527759D01*
X12645202Y-17527759D02*
X12645202Y-17575378D01*
X12645202Y-17575378D02*
X12654726Y-17594426D01*
X12654726Y-17594426D02*
X12664249Y-17603950D01*
X12664249Y-17603950D02*
X12683297Y-17613473D01*
X12683297Y-17613473D02*
X12721392Y-17613473D01*
X12721392Y-17613473D02*
X12740440Y-17603950D01*
X12740440Y-17603950D02*
X12749964Y-17594426D01*
X12749964Y-17594426D02*
X12759487Y-17575378D01*
X12949964Y-17689664D02*
X12835678Y-17689664D01*
X12892821Y-17689664D02*
X12892821Y-17489664D01*
X12892821Y-17489664D02*
X12873773Y-17518235D01*
X12873773Y-17518235D02*
X12854726Y-17537283D01*
X12854726Y-17537283D02*
X12835678Y-17546807D01*
X13026154Y-17489664D02*
X13026154Y-17527759D01*
X13102345Y-17489664D02*
X13102345Y-17527759D01*
X13397583Y-17765854D02*
X13388059Y-17756330D01*
X13388059Y-17756330D02*
X13369011Y-17727759D01*
X13369011Y-17727759D02*
X13359488Y-17708711D01*
X13359488Y-17708711D02*
X13349964Y-17680140D01*
X13349964Y-17680140D02*
X13340440Y-17632521D01*
X13340440Y-17632521D02*
X13340440Y-17594426D01*
X13340440Y-17594426D02*
X13349964Y-17546807D01*
X13349964Y-17546807D02*
X13359488Y-17518235D01*
X13359488Y-17518235D02*
X13369011Y-17499188D01*
X13369011Y-17499188D02*
X13388059Y-17470616D01*
X13388059Y-17470616D02*
X13397583Y-17461092D01*
X13578535Y-17689664D02*
X13464249Y-17689664D01*
X13521392Y-17689664D02*
X13521392Y-17489664D01*
X13521392Y-17489664D02*
X13502345Y-17518235D01*
X13502345Y-17518235D02*
X13483297Y-17537283D01*
X13483297Y-17537283D02*
X13464249Y-17546807D01*
X13816630Y-17689664D02*
X13816630Y-17489664D01*
X13902345Y-17689664D02*
X13902345Y-17584902D01*
X13902345Y-17584902D02*
X13892821Y-17565854D01*
X13892821Y-17565854D02*
X13873773Y-17556330D01*
X13873773Y-17556330D02*
X13845202Y-17556330D01*
X13845202Y-17556330D02*
X13826154Y-17565854D01*
X13826154Y-17565854D02*
X13816630Y-17575378D01*
X14026154Y-17689664D02*
X14007107Y-17680140D01*
X14007107Y-17680140D02*
X13997583Y-17670616D01*
X13997583Y-17670616D02*
X13988059Y-17651569D01*
X13988059Y-17651569D02*
X13988059Y-17594426D01*
X13988059Y-17594426D02*
X13997583Y-17575378D01*
X13997583Y-17575378D02*
X14007107Y-17565854D01*
X14007107Y-17565854D02*
X14026154Y-17556330D01*
X14026154Y-17556330D02*
X14054726Y-17556330D01*
X14054726Y-17556330D02*
X14073773Y-17565854D01*
X14073773Y-17565854D02*
X14083297Y-17575378D01*
X14083297Y-17575378D02*
X14092821Y-17594426D01*
X14092821Y-17594426D02*
X14092821Y-17651569D01*
X14092821Y-17651569D02*
X14083297Y-17670616D01*
X14083297Y-17670616D02*
X14073773Y-17680140D01*
X14073773Y-17680140D02*
X14054726Y-17689664D01*
X14054726Y-17689664D02*
X14026154Y-17689664D01*
X14207107Y-17689664D02*
X14188059Y-17680140D01*
X14188059Y-17680140D02*
X14178535Y-17661092D01*
X14178535Y-17661092D02*
X14178535Y-17489664D01*
X14359488Y-17680140D02*
X14340440Y-17689664D01*
X14340440Y-17689664D02*
X14302345Y-17689664D01*
X14302345Y-17689664D02*
X14283297Y-17680140D01*
X14283297Y-17680140D02*
X14273773Y-17661092D01*
X14273773Y-17661092D02*
X14273773Y-17584902D01*
X14273773Y-17584902D02*
X14283297Y-17565854D01*
X14283297Y-17565854D02*
X14302345Y-17556330D01*
X14302345Y-17556330D02*
X14340440Y-17556330D01*
X14340440Y-17556330D02*
X14359488Y-17565854D01*
X14359488Y-17565854D02*
X14369011Y-17584902D01*
X14369011Y-17584902D02*
X14369011Y-17603950D01*
X14369011Y-17603950D02*
X14273773Y-17622997D01*
X14435678Y-17765854D02*
X14445202Y-17756330D01*
X14445202Y-17756330D02*
X14464250Y-17727759D01*
X14464250Y-17727759D02*
X14473773Y-17708711D01*
X14473773Y-17708711D02*
X14483297Y-17680140D01*
X14483297Y-17680140D02*
X14492821Y-17632521D01*
X14492821Y-17632521D02*
X14492821Y-17594426D01*
X14492821Y-17594426D02*
X14483297Y-17546807D01*
X14483297Y-17546807D02*
X14473773Y-17518235D01*
X14473773Y-17518235D02*
X14464250Y-17499188D01*
X14464250Y-17499188D02*
X14445202Y-17470616D01*
X14445202Y-17470616D02*
X14435678Y-17461092D01*
D15*
X9737520Y-17783180D02*
X9737520Y-17953180D01*
X9652520Y-17868180D02*
X9822520Y-17868180D01*
X9822520Y-17868180D02*
G75*
G03*
X9822520Y-17868180I-85000J0D01*
G01*
D11*
X10188059Y-17959664D02*
X10073773Y-17959664D01*
X10130916Y-17959664D02*
X10130916Y-17759664D01*
X10130916Y-17759664D02*
X10111868Y-17788235D01*
X10111868Y-17788235D02*
X10092821Y-17807283D01*
X10092821Y-17807283D02*
X10073773Y-17816807D01*
X10273773Y-17940616D02*
X10283297Y-17950140D01*
X10283297Y-17950140D02*
X10273773Y-17959664D01*
X10273773Y-17959664D02*
X10264249Y-17950140D01*
X10264249Y-17950140D02*
X10273773Y-17940616D01*
X10273773Y-17940616D02*
X10273773Y-17959664D01*
X10349964Y-17759664D02*
X10483297Y-17759664D01*
X10483297Y-17759664D02*
X10397583Y-17959664D01*
X10597583Y-17759664D02*
X10616630Y-17759664D01*
X10616630Y-17759664D02*
X10635678Y-17769188D01*
X10635678Y-17769188D02*
X10645202Y-17778711D01*
X10645202Y-17778711D02*
X10654725Y-17797759D01*
X10654725Y-17797759D02*
X10664249Y-17835854D01*
X10664249Y-17835854D02*
X10664249Y-17883473D01*
X10664249Y-17883473D02*
X10654725Y-17921569D01*
X10654725Y-17921569D02*
X10645202Y-17940616D01*
X10645202Y-17940616D02*
X10635678Y-17950140D01*
X10635678Y-17950140D02*
X10616630Y-17959664D01*
X10616630Y-17959664D02*
X10597583Y-17959664D01*
X10597583Y-17959664D02*
X10578535Y-17950140D01*
X10578535Y-17950140D02*
X10569011Y-17940616D01*
X10569011Y-17940616D02*
X10559487Y-17921569D01*
X10559487Y-17921569D02*
X10549964Y-17883473D01*
X10549964Y-17883473D02*
X10549964Y-17835854D01*
X10549964Y-17835854D02*
X10559487Y-17797759D01*
X10559487Y-17797759D02*
X10569011Y-17778711D01*
X10569011Y-17778711D02*
X10578535Y-17769188D01*
X10578535Y-17769188D02*
X10597583Y-17759664D01*
X10788059Y-17759664D02*
X10807106Y-17759664D01*
X10807106Y-17759664D02*
X10826154Y-17769188D01*
X10826154Y-17769188D02*
X10835678Y-17778711D01*
X10835678Y-17778711D02*
X10845202Y-17797759D01*
X10845202Y-17797759D02*
X10854725Y-17835854D01*
X10854725Y-17835854D02*
X10854725Y-17883473D01*
X10854725Y-17883473D02*
X10845202Y-17921569D01*
X10845202Y-17921569D02*
X10835678Y-17940616D01*
X10835678Y-17940616D02*
X10826154Y-17950140D01*
X10826154Y-17950140D02*
X10807106Y-17959664D01*
X10807106Y-17959664D02*
X10788059Y-17959664D01*
X10788059Y-17959664D02*
X10769011Y-17950140D01*
X10769011Y-17950140D02*
X10759487Y-17940616D01*
X10759487Y-17940616D02*
X10749964Y-17921569D01*
X10749964Y-17921569D02*
X10740440Y-17883473D01*
X10740440Y-17883473D02*
X10740440Y-17835854D01*
X10740440Y-17835854D02*
X10749964Y-17797759D01*
X10749964Y-17797759D02*
X10759487Y-17778711D01*
X10759487Y-17778711D02*
X10769011Y-17769188D01*
X10769011Y-17769188D02*
X10788059Y-17759664D01*
X10940440Y-17959664D02*
X10940440Y-17826330D01*
X10940440Y-17845378D02*
X10949964Y-17835854D01*
X10949964Y-17835854D02*
X10969011Y-17826330D01*
X10969011Y-17826330D02*
X10997583Y-17826330D01*
X10997583Y-17826330D02*
X11016630Y-17835854D01*
X11016630Y-17835854D02*
X11026154Y-17854902D01*
X11026154Y-17854902D02*
X11026154Y-17959664D01*
X11026154Y-17854902D02*
X11035678Y-17835854D01*
X11035678Y-17835854D02*
X11054725Y-17826330D01*
X11054725Y-17826330D02*
X11083297Y-17826330D01*
X11083297Y-17826330D02*
X11102345Y-17835854D01*
X11102345Y-17835854D02*
X11111868Y-17854902D01*
X11111868Y-17854902D02*
X11111868Y-17959664D01*
X11207106Y-17959664D02*
X11207106Y-17826330D01*
X11207106Y-17845378D02*
X11216630Y-17835854D01*
X11216630Y-17835854D02*
X11235678Y-17826330D01*
X11235678Y-17826330D02*
X11264249Y-17826330D01*
X11264249Y-17826330D02*
X11283297Y-17835854D01*
X11283297Y-17835854D02*
X11292821Y-17854902D01*
X11292821Y-17854902D02*
X11292821Y-17959664D01*
X11292821Y-17854902D02*
X11302344Y-17835854D01*
X11302344Y-17835854D02*
X11321392Y-17826330D01*
X11321392Y-17826330D02*
X11349963Y-17826330D01*
X11349963Y-17826330D02*
X11369011Y-17835854D01*
X11369011Y-17835854D02*
X11378535Y-17854902D01*
X11378535Y-17854902D02*
X11378535Y-17959664D01*
X11769011Y-17750140D02*
X11597583Y-18007283D01*
X12026154Y-17759664D02*
X12045202Y-17759664D01*
X12045202Y-17759664D02*
X12064249Y-17769188D01*
X12064249Y-17769188D02*
X12073773Y-17778711D01*
X12073773Y-17778711D02*
X12083297Y-17797759D01*
X12083297Y-17797759D02*
X12092821Y-17835854D01*
X12092821Y-17835854D02*
X12092821Y-17883473D01*
X12092821Y-17883473D02*
X12083297Y-17921569D01*
X12083297Y-17921569D02*
X12073773Y-17940616D01*
X12073773Y-17940616D02*
X12064249Y-17950140D01*
X12064249Y-17950140D02*
X12045202Y-17959664D01*
X12045202Y-17959664D02*
X12026154Y-17959664D01*
X12026154Y-17959664D02*
X12007106Y-17950140D01*
X12007106Y-17950140D02*
X11997583Y-17940616D01*
X11997583Y-17940616D02*
X11988059Y-17921569D01*
X11988059Y-17921569D02*
X11978535Y-17883473D01*
X11978535Y-17883473D02*
X11978535Y-17835854D01*
X11978535Y-17835854D02*
X11988059Y-17797759D01*
X11988059Y-17797759D02*
X11997583Y-17778711D01*
X11997583Y-17778711D02*
X12007106Y-17769188D01*
X12007106Y-17769188D02*
X12026154Y-17759664D01*
X12178535Y-17940616D02*
X12188059Y-17950140D01*
X12188059Y-17950140D02*
X12178535Y-17959664D01*
X12178535Y-17959664D02*
X12169011Y-17950140D01*
X12169011Y-17950140D02*
X12178535Y-17940616D01*
X12178535Y-17940616D02*
X12178535Y-17959664D01*
X12311868Y-17759664D02*
X12330916Y-17759664D01*
X12330916Y-17759664D02*
X12349964Y-17769188D01*
X12349964Y-17769188D02*
X12359487Y-17778711D01*
X12359487Y-17778711D02*
X12369011Y-17797759D01*
X12369011Y-17797759D02*
X12378535Y-17835854D01*
X12378535Y-17835854D02*
X12378535Y-17883473D01*
X12378535Y-17883473D02*
X12369011Y-17921569D01*
X12369011Y-17921569D02*
X12359487Y-17940616D01*
X12359487Y-17940616D02*
X12349964Y-17950140D01*
X12349964Y-17950140D02*
X12330916Y-17959664D01*
X12330916Y-17959664D02*
X12311868Y-17959664D01*
X12311868Y-17959664D02*
X12292821Y-17950140D01*
X12292821Y-17950140D02*
X12283297Y-17940616D01*
X12283297Y-17940616D02*
X12273773Y-17921569D01*
X12273773Y-17921569D02*
X12264249Y-17883473D01*
X12264249Y-17883473D02*
X12264249Y-17835854D01*
X12264249Y-17835854D02*
X12273773Y-17797759D01*
X12273773Y-17797759D02*
X12283297Y-17778711D01*
X12283297Y-17778711D02*
X12292821Y-17769188D01*
X12292821Y-17769188D02*
X12311868Y-17759664D01*
X12549964Y-17759664D02*
X12511868Y-17759664D01*
X12511868Y-17759664D02*
X12492821Y-17769188D01*
X12492821Y-17769188D02*
X12483297Y-17778711D01*
X12483297Y-17778711D02*
X12464249Y-17807283D01*
X12464249Y-17807283D02*
X12454726Y-17845378D01*
X12454726Y-17845378D02*
X12454726Y-17921569D01*
X12454726Y-17921569D02*
X12464249Y-17940616D01*
X12464249Y-17940616D02*
X12473773Y-17950140D01*
X12473773Y-17950140D02*
X12492821Y-17959664D01*
X12492821Y-17959664D02*
X12530916Y-17959664D01*
X12530916Y-17959664D02*
X12549964Y-17950140D01*
X12549964Y-17950140D02*
X12559487Y-17940616D01*
X12559487Y-17940616D02*
X12569011Y-17921569D01*
X12569011Y-17921569D02*
X12569011Y-17873950D01*
X12569011Y-17873950D02*
X12559487Y-17854902D01*
X12559487Y-17854902D02*
X12549964Y-17845378D01*
X12549964Y-17845378D02*
X12530916Y-17835854D01*
X12530916Y-17835854D02*
X12492821Y-17835854D01*
X12492821Y-17835854D02*
X12473773Y-17845378D01*
X12473773Y-17845378D02*
X12464249Y-17854902D01*
X12464249Y-17854902D02*
X12454726Y-17873950D01*
X12740440Y-17759664D02*
X12702345Y-17759664D01*
X12702345Y-17759664D02*
X12683297Y-17769188D01*
X12683297Y-17769188D02*
X12673773Y-17778711D01*
X12673773Y-17778711D02*
X12654726Y-17807283D01*
X12654726Y-17807283D02*
X12645202Y-17845378D01*
X12645202Y-17845378D02*
X12645202Y-17921569D01*
X12645202Y-17921569D02*
X12654726Y-17940616D01*
X12654726Y-17940616D02*
X12664249Y-17950140D01*
X12664249Y-17950140D02*
X12683297Y-17959664D01*
X12683297Y-17959664D02*
X12721392Y-17959664D01*
X12721392Y-17959664D02*
X12740440Y-17950140D01*
X12740440Y-17950140D02*
X12749964Y-17940616D01*
X12749964Y-17940616D02*
X12759487Y-17921569D01*
X12759487Y-17921569D02*
X12759487Y-17873950D01*
X12759487Y-17873950D02*
X12749964Y-17854902D01*
X12749964Y-17854902D02*
X12740440Y-17845378D01*
X12740440Y-17845378D02*
X12721392Y-17835854D01*
X12721392Y-17835854D02*
X12683297Y-17835854D01*
X12683297Y-17835854D02*
X12664249Y-17845378D01*
X12664249Y-17845378D02*
X12654726Y-17854902D01*
X12654726Y-17854902D02*
X12645202Y-17873950D01*
X12854726Y-17959664D02*
X12892821Y-17959664D01*
X12892821Y-17959664D02*
X12911868Y-17950140D01*
X12911868Y-17950140D02*
X12921392Y-17940616D01*
X12921392Y-17940616D02*
X12940440Y-17912045D01*
X12940440Y-17912045D02*
X12949964Y-17873950D01*
X12949964Y-17873950D02*
X12949964Y-17797759D01*
X12949964Y-17797759D02*
X12940440Y-17778711D01*
X12940440Y-17778711D02*
X12930916Y-17769188D01*
X12930916Y-17769188D02*
X12911868Y-17759664D01*
X12911868Y-17759664D02*
X12873773Y-17759664D01*
X12873773Y-17759664D02*
X12854726Y-17769188D01*
X12854726Y-17769188D02*
X12845202Y-17778711D01*
X12845202Y-17778711D02*
X12835678Y-17797759D01*
X12835678Y-17797759D02*
X12835678Y-17845378D01*
X12835678Y-17845378D02*
X12845202Y-17864426D01*
X12845202Y-17864426D02*
X12854726Y-17873950D01*
X12854726Y-17873950D02*
X12873773Y-17883473D01*
X12873773Y-17883473D02*
X12911868Y-17883473D01*
X12911868Y-17883473D02*
X12930916Y-17873950D01*
X12930916Y-17873950D02*
X12940440Y-17864426D01*
X12940440Y-17864426D02*
X12949964Y-17845378D01*
X13026154Y-17759664D02*
X13026154Y-17797759D01*
X13102345Y-17759664D02*
X13102345Y-17797759D01*
X13397583Y-18035854D02*
X13388059Y-18026330D01*
X13388059Y-18026330D02*
X13369011Y-17997759D01*
X13369011Y-17997759D02*
X13359488Y-17978711D01*
X13359488Y-17978711D02*
X13349964Y-17950140D01*
X13349964Y-17950140D02*
X13340440Y-17902521D01*
X13340440Y-17902521D02*
X13340440Y-17864426D01*
X13340440Y-17864426D02*
X13349964Y-17816807D01*
X13349964Y-17816807D02*
X13359488Y-17788235D01*
X13359488Y-17788235D02*
X13369011Y-17769188D01*
X13369011Y-17769188D02*
X13388059Y-17740616D01*
X13388059Y-17740616D02*
X13397583Y-17731092D01*
X13559488Y-17826330D02*
X13559488Y-17959664D01*
X13511868Y-17750140D02*
X13464249Y-17892997D01*
X13464249Y-17892997D02*
X13588059Y-17892997D01*
X13816630Y-17959664D02*
X13816630Y-17759664D01*
X13902345Y-17959664D02*
X13902345Y-17854902D01*
X13902345Y-17854902D02*
X13892821Y-17835854D01*
X13892821Y-17835854D02*
X13873773Y-17826330D01*
X13873773Y-17826330D02*
X13845202Y-17826330D01*
X13845202Y-17826330D02*
X13826154Y-17835854D01*
X13826154Y-17835854D02*
X13816630Y-17845378D01*
X14026154Y-17959664D02*
X14007107Y-17950140D01*
X14007107Y-17950140D02*
X13997583Y-17940616D01*
X13997583Y-17940616D02*
X13988059Y-17921569D01*
X13988059Y-17921569D02*
X13988059Y-17864426D01*
X13988059Y-17864426D02*
X13997583Y-17845378D01*
X13997583Y-17845378D02*
X14007107Y-17835854D01*
X14007107Y-17835854D02*
X14026154Y-17826330D01*
X14026154Y-17826330D02*
X14054726Y-17826330D01*
X14054726Y-17826330D02*
X14073773Y-17835854D01*
X14073773Y-17835854D02*
X14083297Y-17845378D01*
X14083297Y-17845378D02*
X14092821Y-17864426D01*
X14092821Y-17864426D02*
X14092821Y-17921569D01*
X14092821Y-17921569D02*
X14083297Y-17940616D01*
X14083297Y-17940616D02*
X14073773Y-17950140D01*
X14073773Y-17950140D02*
X14054726Y-17959664D01*
X14054726Y-17959664D02*
X14026154Y-17959664D01*
X14207107Y-17959664D02*
X14188059Y-17950140D01*
X14188059Y-17950140D02*
X14178535Y-17931092D01*
X14178535Y-17931092D02*
X14178535Y-17759664D01*
X14359488Y-17950140D02*
X14340440Y-17959664D01*
X14340440Y-17959664D02*
X14302345Y-17959664D01*
X14302345Y-17959664D02*
X14283297Y-17950140D01*
X14283297Y-17950140D02*
X14273773Y-17931092D01*
X14273773Y-17931092D02*
X14273773Y-17854902D01*
X14273773Y-17854902D02*
X14283297Y-17835854D01*
X14283297Y-17835854D02*
X14302345Y-17826330D01*
X14302345Y-17826330D02*
X14340440Y-17826330D01*
X14340440Y-17826330D02*
X14359488Y-17835854D01*
X14359488Y-17835854D02*
X14369011Y-17854902D01*
X14369011Y-17854902D02*
X14369011Y-17873950D01*
X14369011Y-17873950D02*
X14273773Y-17892997D01*
X14445202Y-17950140D02*
X14464250Y-17959664D01*
X14464250Y-17959664D02*
X14502345Y-17959664D01*
X14502345Y-17959664D02*
X14521392Y-17950140D01*
X14521392Y-17950140D02*
X14530916Y-17931092D01*
X14530916Y-17931092D02*
X14530916Y-17921569D01*
X14530916Y-17921569D02*
X14521392Y-17902521D01*
X14521392Y-17902521D02*
X14502345Y-17892997D01*
X14502345Y-17892997D02*
X14473773Y-17892997D01*
X14473773Y-17892997D02*
X14454726Y-17883473D01*
X14454726Y-17883473D02*
X14445202Y-17864426D01*
X14445202Y-17864426D02*
X14445202Y-17854902D01*
X14445202Y-17854902D02*
X14454726Y-17835854D01*
X14454726Y-17835854D02*
X14473773Y-17826330D01*
X14473773Y-17826330D02*
X14502345Y-17826330D01*
X14502345Y-17826330D02*
X14521392Y-17835854D01*
X14597583Y-18035854D02*
X14607107Y-18026330D01*
X14607107Y-18026330D02*
X14626154Y-17997759D01*
X14626154Y-17997759D02*
X14635678Y-17978711D01*
X14635678Y-17978711D02*
X14645202Y-17950140D01*
X14645202Y-17950140D02*
X14654726Y-17902521D01*
X14654726Y-17902521D02*
X14654726Y-17864426D01*
X14654726Y-17864426D02*
X14645202Y-17816807D01*
X14645202Y-17816807D02*
X14635678Y-17788235D01*
X14635678Y-17788235D02*
X14626154Y-17769188D01*
X14626154Y-17769188D02*
X14607107Y-17740616D01*
X14607107Y-17740616D02*
X14597583Y-17731092D01*
X9793231Y-18228891D02*
X9793231Y-18087469D01*
X9651809Y-18087469D01*
X9651809Y-18228891D01*
X9793231Y-18228891D01*
X9822520Y-18158180D02*
G75*
G03*
X9822520Y-18158180I-100000J0D01*
G01*
X10064249Y-18049664D02*
X10188059Y-18049664D01*
X10188059Y-18049664D02*
X10121392Y-18125854D01*
X10121392Y-18125854D02*
X10149964Y-18125854D01*
X10149964Y-18125854D02*
X10169011Y-18135378D01*
X10169011Y-18135378D02*
X10178535Y-18144902D01*
X10178535Y-18144902D02*
X10188059Y-18163950D01*
X10188059Y-18163950D02*
X10188059Y-18211569D01*
X10188059Y-18211569D02*
X10178535Y-18230616D01*
X10178535Y-18230616D02*
X10169011Y-18240140D01*
X10169011Y-18240140D02*
X10149964Y-18249664D01*
X10149964Y-18249664D02*
X10092821Y-18249664D01*
X10092821Y-18249664D02*
X10073773Y-18240140D01*
X10073773Y-18240140D02*
X10064249Y-18230616D01*
X10273773Y-18230616D02*
X10283297Y-18240140D01*
X10283297Y-18240140D02*
X10273773Y-18249664D01*
X10273773Y-18249664D02*
X10264249Y-18240140D01*
X10264249Y-18240140D02*
X10273773Y-18230616D01*
X10273773Y-18230616D02*
X10273773Y-18249664D01*
X10359487Y-18068711D02*
X10369011Y-18059188D01*
X10369011Y-18059188D02*
X10388059Y-18049664D01*
X10388059Y-18049664D02*
X10435678Y-18049664D01*
X10435678Y-18049664D02*
X10454725Y-18059188D01*
X10454725Y-18059188D02*
X10464249Y-18068711D01*
X10464249Y-18068711D02*
X10473773Y-18087759D01*
X10473773Y-18087759D02*
X10473773Y-18106807D01*
X10473773Y-18106807D02*
X10464249Y-18135378D01*
X10464249Y-18135378D02*
X10349964Y-18249664D01*
X10349964Y-18249664D02*
X10473773Y-18249664D01*
X10597583Y-18049664D02*
X10616630Y-18049664D01*
X10616630Y-18049664D02*
X10635678Y-18059188D01*
X10635678Y-18059188D02*
X10645202Y-18068711D01*
X10645202Y-18068711D02*
X10654725Y-18087759D01*
X10654725Y-18087759D02*
X10664249Y-18125854D01*
X10664249Y-18125854D02*
X10664249Y-18173473D01*
X10664249Y-18173473D02*
X10654725Y-18211569D01*
X10654725Y-18211569D02*
X10645202Y-18230616D01*
X10645202Y-18230616D02*
X10635678Y-18240140D01*
X10635678Y-18240140D02*
X10616630Y-18249664D01*
X10616630Y-18249664D02*
X10597583Y-18249664D01*
X10597583Y-18249664D02*
X10578535Y-18240140D01*
X10578535Y-18240140D02*
X10569011Y-18230616D01*
X10569011Y-18230616D02*
X10559487Y-18211569D01*
X10559487Y-18211569D02*
X10549964Y-18173473D01*
X10549964Y-18173473D02*
X10549964Y-18125854D01*
X10549964Y-18125854D02*
X10559487Y-18087759D01*
X10559487Y-18087759D02*
X10569011Y-18068711D01*
X10569011Y-18068711D02*
X10578535Y-18059188D01*
X10578535Y-18059188D02*
X10597583Y-18049664D01*
X10788059Y-18049664D02*
X10807106Y-18049664D01*
X10807106Y-18049664D02*
X10826154Y-18059188D01*
X10826154Y-18059188D02*
X10835678Y-18068711D01*
X10835678Y-18068711D02*
X10845202Y-18087759D01*
X10845202Y-18087759D02*
X10854725Y-18125854D01*
X10854725Y-18125854D02*
X10854725Y-18173473D01*
X10854725Y-18173473D02*
X10845202Y-18211569D01*
X10845202Y-18211569D02*
X10835678Y-18230616D01*
X10835678Y-18230616D02*
X10826154Y-18240140D01*
X10826154Y-18240140D02*
X10807106Y-18249664D01*
X10807106Y-18249664D02*
X10788059Y-18249664D01*
X10788059Y-18249664D02*
X10769011Y-18240140D01*
X10769011Y-18240140D02*
X10759487Y-18230616D01*
X10759487Y-18230616D02*
X10749964Y-18211569D01*
X10749964Y-18211569D02*
X10740440Y-18173473D01*
X10740440Y-18173473D02*
X10740440Y-18125854D01*
X10740440Y-18125854D02*
X10749964Y-18087759D01*
X10749964Y-18087759D02*
X10759487Y-18068711D01*
X10759487Y-18068711D02*
X10769011Y-18059188D01*
X10769011Y-18059188D02*
X10788059Y-18049664D01*
X10940440Y-18249664D02*
X10940440Y-18116330D01*
X10940440Y-18135378D02*
X10949964Y-18125854D01*
X10949964Y-18125854D02*
X10969011Y-18116330D01*
X10969011Y-18116330D02*
X10997583Y-18116330D01*
X10997583Y-18116330D02*
X11016630Y-18125854D01*
X11016630Y-18125854D02*
X11026154Y-18144902D01*
X11026154Y-18144902D02*
X11026154Y-18249664D01*
X11026154Y-18144902D02*
X11035678Y-18125854D01*
X11035678Y-18125854D02*
X11054725Y-18116330D01*
X11054725Y-18116330D02*
X11083297Y-18116330D01*
X11083297Y-18116330D02*
X11102345Y-18125854D01*
X11102345Y-18125854D02*
X11111868Y-18144902D01*
X11111868Y-18144902D02*
X11111868Y-18249664D01*
X11207106Y-18249664D02*
X11207106Y-18116330D01*
X11207106Y-18135378D02*
X11216630Y-18125854D01*
X11216630Y-18125854D02*
X11235678Y-18116330D01*
X11235678Y-18116330D02*
X11264249Y-18116330D01*
X11264249Y-18116330D02*
X11283297Y-18125854D01*
X11283297Y-18125854D02*
X11292821Y-18144902D01*
X11292821Y-18144902D02*
X11292821Y-18249664D01*
X11292821Y-18144902D02*
X11302344Y-18125854D01*
X11302344Y-18125854D02*
X11321392Y-18116330D01*
X11321392Y-18116330D02*
X11349963Y-18116330D01*
X11349963Y-18116330D02*
X11369011Y-18125854D01*
X11369011Y-18125854D02*
X11378535Y-18144902D01*
X11378535Y-18144902D02*
X11378535Y-18249664D01*
X11769011Y-18040140D02*
X11597583Y-18297283D01*
X12026154Y-18049664D02*
X12045202Y-18049664D01*
X12045202Y-18049664D02*
X12064249Y-18059188D01*
X12064249Y-18059188D02*
X12073773Y-18068711D01*
X12073773Y-18068711D02*
X12083297Y-18087759D01*
X12083297Y-18087759D02*
X12092821Y-18125854D01*
X12092821Y-18125854D02*
X12092821Y-18173473D01*
X12092821Y-18173473D02*
X12083297Y-18211569D01*
X12083297Y-18211569D02*
X12073773Y-18230616D01*
X12073773Y-18230616D02*
X12064249Y-18240140D01*
X12064249Y-18240140D02*
X12045202Y-18249664D01*
X12045202Y-18249664D02*
X12026154Y-18249664D01*
X12026154Y-18249664D02*
X12007106Y-18240140D01*
X12007106Y-18240140D02*
X11997583Y-18230616D01*
X11997583Y-18230616D02*
X11988059Y-18211569D01*
X11988059Y-18211569D02*
X11978535Y-18173473D01*
X11978535Y-18173473D02*
X11978535Y-18125854D01*
X11978535Y-18125854D02*
X11988059Y-18087759D01*
X11988059Y-18087759D02*
X11997583Y-18068711D01*
X11997583Y-18068711D02*
X12007106Y-18059188D01*
X12007106Y-18059188D02*
X12026154Y-18049664D01*
X12178535Y-18230616D02*
X12188059Y-18240140D01*
X12188059Y-18240140D02*
X12178535Y-18249664D01*
X12178535Y-18249664D02*
X12169011Y-18240140D01*
X12169011Y-18240140D02*
X12178535Y-18230616D01*
X12178535Y-18230616D02*
X12178535Y-18249664D01*
X12378535Y-18249664D02*
X12264249Y-18249664D01*
X12321392Y-18249664D02*
X12321392Y-18049664D01*
X12321392Y-18049664D02*
X12302345Y-18078235D01*
X12302345Y-18078235D02*
X12283297Y-18097283D01*
X12283297Y-18097283D02*
X12264249Y-18106807D01*
X12454726Y-18068711D02*
X12464249Y-18059188D01*
X12464249Y-18059188D02*
X12483297Y-18049664D01*
X12483297Y-18049664D02*
X12530916Y-18049664D01*
X12530916Y-18049664D02*
X12549964Y-18059188D01*
X12549964Y-18059188D02*
X12559487Y-18068711D01*
X12559487Y-18068711D02*
X12569011Y-18087759D01*
X12569011Y-18087759D02*
X12569011Y-18106807D01*
X12569011Y-18106807D02*
X12559487Y-18135378D01*
X12559487Y-18135378D02*
X12445202Y-18249664D01*
X12445202Y-18249664D02*
X12569011Y-18249664D01*
X12740440Y-18049664D02*
X12702345Y-18049664D01*
X12702345Y-18049664D02*
X12683297Y-18059188D01*
X12683297Y-18059188D02*
X12673773Y-18068711D01*
X12673773Y-18068711D02*
X12654726Y-18097283D01*
X12654726Y-18097283D02*
X12645202Y-18135378D01*
X12645202Y-18135378D02*
X12645202Y-18211569D01*
X12645202Y-18211569D02*
X12654726Y-18230616D01*
X12654726Y-18230616D02*
X12664249Y-18240140D01*
X12664249Y-18240140D02*
X12683297Y-18249664D01*
X12683297Y-18249664D02*
X12721392Y-18249664D01*
X12721392Y-18249664D02*
X12740440Y-18240140D01*
X12740440Y-18240140D02*
X12749964Y-18230616D01*
X12749964Y-18230616D02*
X12759487Y-18211569D01*
X12759487Y-18211569D02*
X12759487Y-18163950D01*
X12759487Y-18163950D02*
X12749964Y-18144902D01*
X12749964Y-18144902D02*
X12740440Y-18135378D01*
X12740440Y-18135378D02*
X12721392Y-18125854D01*
X12721392Y-18125854D02*
X12683297Y-18125854D01*
X12683297Y-18125854D02*
X12664249Y-18135378D01*
X12664249Y-18135378D02*
X12654726Y-18144902D01*
X12654726Y-18144902D02*
X12645202Y-18163950D01*
X12883297Y-18049664D02*
X12902345Y-18049664D01*
X12902345Y-18049664D02*
X12921392Y-18059188D01*
X12921392Y-18059188D02*
X12930916Y-18068711D01*
X12930916Y-18068711D02*
X12940440Y-18087759D01*
X12940440Y-18087759D02*
X12949964Y-18125854D01*
X12949964Y-18125854D02*
X12949964Y-18173473D01*
X12949964Y-18173473D02*
X12940440Y-18211569D01*
X12940440Y-18211569D02*
X12930916Y-18230616D01*
X12930916Y-18230616D02*
X12921392Y-18240140D01*
X12921392Y-18240140D02*
X12902345Y-18249664D01*
X12902345Y-18249664D02*
X12883297Y-18249664D01*
X12883297Y-18249664D02*
X12864249Y-18240140D01*
X12864249Y-18240140D02*
X12854726Y-18230616D01*
X12854726Y-18230616D02*
X12845202Y-18211569D01*
X12845202Y-18211569D02*
X12835678Y-18173473D01*
X12835678Y-18173473D02*
X12835678Y-18125854D01*
X12835678Y-18125854D02*
X12845202Y-18087759D01*
X12845202Y-18087759D02*
X12854726Y-18068711D01*
X12854726Y-18068711D02*
X12864249Y-18059188D01*
X12864249Y-18059188D02*
X12883297Y-18049664D01*
X13026154Y-18049664D02*
X13026154Y-18087759D01*
X13102345Y-18049664D02*
X13102345Y-18087759D01*
X13397583Y-18325854D02*
X13388059Y-18316330D01*
X13388059Y-18316330D02*
X13369011Y-18287759D01*
X13369011Y-18287759D02*
X13359488Y-18268711D01*
X13359488Y-18268711D02*
X13349964Y-18240140D01*
X13349964Y-18240140D02*
X13340440Y-18192521D01*
X13340440Y-18192521D02*
X13340440Y-18154426D01*
X13340440Y-18154426D02*
X13349964Y-18106807D01*
X13349964Y-18106807D02*
X13359488Y-18078235D01*
X13359488Y-18078235D02*
X13369011Y-18059188D01*
X13369011Y-18059188D02*
X13388059Y-18030616D01*
X13388059Y-18030616D02*
X13397583Y-18021092D01*
X13559488Y-18116330D02*
X13559488Y-18249664D01*
X13511868Y-18040140D02*
X13464249Y-18182997D01*
X13464249Y-18182997D02*
X13588059Y-18182997D01*
X13816630Y-18249664D02*
X13816630Y-18049664D01*
X13902345Y-18249664D02*
X13902345Y-18144902D01*
X13902345Y-18144902D02*
X13892821Y-18125854D01*
X13892821Y-18125854D02*
X13873773Y-18116330D01*
X13873773Y-18116330D02*
X13845202Y-18116330D01*
X13845202Y-18116330D02*
X13826154Y-18125854D01*
X13826154Y-18125854D02*
X13816630Y-18135378D01*
X14026154Y-18249664D02*
X14007107Y-18240140D01*
X14007107Y-18240140D02*
X13997583Y-18230616D01*
X13997583Y-18230616D02*
X13988059Y-18211569D01*
X13988059Y-18211569D02*
X13988059Y-18154426D01*
X13988059Y-18154426D02*
X13997583Y-18135378D01*
X13997583Y-18135378D02*
X14007107Y-18125854D01*
X14007107Y-18125854D02*
X14026154Y-18116330D01*
X14026154Y-18116330D02*
X14054726Y-18116330D01*
X14054726Y-18116330D02*
X14073773Y-18125854D01*
X14073773Y-18125854D02*
X14083297Y-18135378D01*
X14083297Y-18135378D02*
X14092821Y-18154426D01*
X14092821Y-18154426D02*
X14092821Y-18211569D01*
X14092821Y-18211569D02*
X14083297Y-18230616D01*
X14083297Y-18230616D02*
X14073773Y-18240140D01*
X14073773Y-18240140D02*
X14054726Y-18249664D01*
X14054726Y-18249664D02*
X14026154Y-18249664D01*
X14207107Y-18249664D02*
X14188059Y-18240140D01*
X14188059Y-18240140D02*
X14178535Y-18221092D01*
X14178535Y-18221092D02*
X14178535Y-18049664D01*
X14359488Y-18240140D02*
X14340440Y-18249664D01*
X14340440Y-18249664D02*
X14302345Y-18249664D01*
X14302345Y-18249664D02*
X14283297Y-18240140D01*
X14283297Y-18240140D02*
X14273773Y-18221092D01*
X14273773Y-18221092D02*
X14273773Y-18144902D01*
X14273773Y-18144902D02*
X14283297Y-18125854D01*
X14283297Y-18125854D02*
X14302345Y-18116330D01*
X14302345Y-18116330D02*
X14340440Y-18116330D01*
X14340440Y-18116330D02*
X14359488Y-18125854D01*
X14359488Y-18125854D02*
X14369011Y-18144902D01*
X14369011Y-18144902D02*
X14369011Y-18163950D01*
X14369011Y-18163950D02*
X14273773Y-18182997D01*
X14445202Y-18240140D02*
X14464250Y-18249664D01*
X14464250Y-18249664D02*
X14502345Y-18249664D01*
X14502345Y-18249664D02*
X14521392Y-18240140D01*
X14521392Y-18240140D02*
X14530916Y-18221092D01*
X14530916Y-18221092D02*
X14530916Y-18211569D01*
X14530916Y-18211569D02*
X14521392Y-18192521D01*
X14521392Y-18192521D02*
X14502345Y-18182997D01*
X14502345Y-18182997D02*
X14473773Y-18182997D01*
X14473773Y-18182997D02*
X14454726Y-18173473D01*
X14454726Y-18173473D02*
X14445202Y-18154426D01*
X14445202Y-18154426D02*
X14445202Y-18144902D01*
X14445202Y-18144902D02*
X14454726Y-18125854D01*
X14454726Y-18125854D02*
X14473773Y-18116330D01*
X14473773Y-18116330D02*
X14502345Y-18116330D01*
X14502345Y-18116330D02*
X14521392Y-18125854D01*
X14597583Y-18325854D02*
X14607107Y-18316330D01*
X14607107Y-18316330D02*
X14626154Y-18287759D01*
X14626154Y-18287759D02*
X14635678Y-18268711D01*
X14635678Y-18268711D02*
X14645202Y-18240140D01*
X14645202Y-18240140D02*
X14654726Y-18192521D01*
X14654726Y-18192521D02*
X14654726Y-18154426D01*
X14654726Y-18154426D02*
X14645202Y-18106807D01*
X14645202Y-18106807D02*
X14635678Y-18078235D01*
X14635678Y-18078235D02*
X14626154Y-18059188D01*
X14626154Y-18059188D02*
X14607107Y-18030616D01*
X14607107Y-18030616D02*
X14597583Y-18021092D01*
M02*
