M48
; DRILL file {KiCad 8.0.4} date 2024-08-06T12:26:18-0500
; FORMAT={-:-/ absolute / metric / decimal}
; #@! TF.CreationDate,2024-08-06T12:26:18-05:00
; #@! TF.GenerationSoftware,Kicad,Pcbnew,8.0.4
; #@! TF.FileFunction,Plated,1,4,PTH
FMAT,2
METRIC
; #@! TA.AperFunction,Plated,PTH,ViaDrill
T1C0.200
; #@! TA.AperFunction,Plated,PTH,ViaDrill
T2C0.300
; #@! TA.AperFunction,Plated,PTH,ViaDrill
T3C0.400
; #@! TA.AperFunction,Plated,PTH,ComponentDrill
T4C1.000
; #@! TA.AperFunction,Plated,PTH,ComponentDrill
T5C3.200
; #@! TA.AperFunction,Plated,PTH,ComponentDrill
T6C3.700
%
G90
G05
T1
X11.011Y-27.23
X21.767Y-32.129
X22.891Y-30.173
X31.751Y-18.372
X32.258Y-15.708
X32.748Y-43.668
X33.011Y-15.551
X33.031Y-18.203
X33.197Y-24.269
X33.208Y-34.63
X33.217Y-36.098
X33.243Y-27.308
X33.482Y-21.028
X33.555Y-17.453
X33.695Y-23.799
X33.73Y-17.95
X34.29Y-15.98
X34.322Y-37.593
X34.64Y-52.805
X34.715Y-36.525
X35.01Y-14.88
X35.075Y-40.387
X35.107Y-46.464
X35.108Y-49.42
X35.132Y-26.795
X35.138Y-21.723
X35.138Y-24.523
X35.138Y-25.211
X35.138Y-29.995
X35.138Y-31.876
X35.138Y-32.507
X35.24Y-56.684
X35.383Y-52.022
X35.4Y-18.36
X35.75Y-22.84
X35.845Y-17.84
X36.04Y-14.55
X36.197Y-36.115
X36.27Y-56.943
X36.435Y-56.438
X36.492Y-47.407
X36.67Y-23.3
X36.71Y-25.3
X36.776Y-27.842
X36.814Y-22.528
X37.06Y-15.75
X37.22Y-14.8
X37.465Y-36.525
X37.678Y-50.899
X37.678Y-59.93
X37.698Y-65.701
X38.035Y-51.777
X38.158Y-22.133
X38.158Y-22.796
X38.158Y-23.27
X38.158Y-27.303
X38.16Y-19.254
X38.16Y-21.195
X38.16Y-34.174
X38.16Y-35.386
X38.16Y-35.995
X38.251Y-17.995
X38.267Y-26.76
X38.285Y-65.741
X38.311Y-34.806
X38.604Y-23.034
X38.834Y-13.466
X39.121Y-17.299
X39.158Y-51.823
X39.16Y-53.828
X39.33Y-20.5
X39.626Y-24.752
X40.06Y-20.35
X40.262Y-15.574
X40.56Y-20.2
X40.641Y-27.244
X40.641Y-49.42
X40.641Y-53.828
X40.669Y-15.284
X41.539Y-54.245
X41.678Y-53.412
X41.759Y-51.854
X42.353Y-51.971
X42.41Y-58.09
X42.828Y-53.911
X43.744Y-72.935
X43.759Y-59.99
X43.82Y-57.65
X44.029Y-55.042
X44.08Y-58.967
X44.305Y-60.353
X44.451Y-59.49
X44.53Y-57.41
X44.555Y-56.561
X44.782Y-52.022
X45.086Y-56.866
X45.264Y-54.096
X45.37Y-52.023
X46.23Y-60.68
X46.437Y-54.042
X46.447Y-53.467
X46.636Y-55.041
X46.699Y-67.606
X46.881Y-67.16
X46.914Y-53.368
X47.529Y-56.842
X48.325Y-54.929
X48.89Y-56.657
X49.459Y-83.091
X49.768Y-64.831
X49.885Y-55.004
X50.55Y-51.905
X51.003Y-64.213
X51.042Y-51.807
X52.493Y-50.899
X52.637Y-52.022
X52.67Y-53.46
X52.907Y-56.484
X53.74Y-70.3
X53.791Y-56.983
X54.037Y-49.482
X54.544Y-56.66
X55.277Y-56.342
X55.456Y-27.244
X55.457Y-56.867
X55.553Y-52.645
X55.96Y-73.63
X57.474Y-32.887
X58.419Y-24.288
X61.18Y-61.85
X63.75Y-47.86
X64.038Y-48.248
X73.234Y-48.903
X76.197Y-49.17
X76.197Y-66.932
X77.679Y-49.17
X79.16Y-47.799
T2
X39.225Y-47.876
X43.133Y-55.0
X44.0Y-53.787
X48.049Y-50.899
X48.187Y-58.297
X49.609Y-53.901
X51.012Y-33.068
X53.975Y-53.856
T3
X11.176Y-11.43
X19.812Y-6.35
X23.622Y-5.842
X69.342Y-91.44
X75.438Y-80.264
X77.216Y-91.948
X81.534Y-82.804
T4
X6.64Y-17.84
X6.64Y-20.38
X6.64Y-22.92
X6.64Y-25.46
X6.64Y-28.0
X6.64Y-30.54
X6.64Y-33.08
X6.64Y-35.62
X6.64Y-38.16
X6.64Y-40.7
X6.64Y-43.24
X6.64Y-45.78
X6.64Y-48.32
X6.64Y-50.86
X6.64Y-53.4
X6.64Y-55.94
X6.64Y-58.48
X6.64Y-61.02
X6.64Y-63.56
X6.64Y-66.1
X6.64Y-68.64
X6.64Y-71.18
X6.64Y-73.72
X6.64Y-76.26
X6.64Y-78.8
X9.18Y-17.84
X9.18Y-20.38
X9.18Y-22.92
X9.18Y-25.46
X9.18Y-28.0
X9.18Y-30.54
X9.18Y-33.08
X9.18Y-35.62
X9.18Y-38.16
X9.18Y-40.7
X9.18Y-43.24
X9.18Y-45.78
X9.18Y-48.32
X9.18Y-50.86
X9.18Y-53.4
X9.18Y-55.94
X9.18Y-58.48
X9.18Y-61.02
X9.18Y-63.56
X9.18Y-66.1
X9.18Y-68.64
X9.18Y-71.18
X9.18Y-73.72
X9.18Y-76.26
X9.18Y-78.8
X14.7Y-10.84
X14.7Y-13.38
X15.02Y-84.0
X15.02Y-86.54
X17.24Y-10.84
X17.24Y-13.38
X17.56Y-84.0
X17.56Y-86.54
X19.78Y-10.84
X19.78Y-13.38
X20.1Y-84.0
X20.1Y-86.54
X22.32Y-10.84
X22.32Y-13.38
X22.64Y-84.0
X22.64Y-86.54
X24.86Y-10.84
X24.86Y-13.38
X25.18Y-84.0
X25.18Y-86.54
X27.4Y-10.84
X27.4Y-13.38
X27.72Y-84.0
X27.72Y-86.54
X29.94Y-10.84
X29.94Y-13.38
X30.26Y-84.0
X30.26Y-86.54
X32.48Y-10.84
X32.48Y-13.38
X32.8Y-84.0
X32.8Y-86.54
X35.02Y-10.84
X35.02Y-13.38
X35.34Y-84.0
X35.34Y-86.54
X37.56Y-10.84
X37.56Y-13.38
X37.88Y-84.0
X37.88Y-86.54
X40.1Y-10.84
X40.1Y-13.38
X40.42Y-84.0
X40.42Y-86.54
X42.64Y-10.84
X42.64Y-13.38
X42.96Y-84.0
X42.96Y-86.54
X45.18Y-10.84
X45.18Y-13.38
X45.5Y-84.0
X45.5Y-86.54
X47.72Y-10.84
X47.72Y-13.38
X48.04Y-84.0
X48.04Y-86.54
X50.26Y-10.84
X50.26Y-13.38
X50.58Y-84.0
X50.58Y-86.54
X52.8Y-10.84
X52.8Y-13.38
X53.12Y-84.0
X53.12Y-86.54
X55.34Y-10.84
X55.34Y-13.38
X55.66Y-84.0
X55.66Y-86.54
X57.88Y-10.84
X57.88Y-13.38
X58.2Y-84.0
X58.2Y-86.54
X60.42Y-10.84
X60.42Y-13.38
X60.74Y-84.0
X60.74Y-86.54
X62.96Y-10.84
X62.96Y-13.38
X63.28Y-84.0
X63.28Y-86.54
X65.5Y-10.84
X65.5Y-13.38
X65.82Y-84.0
X65.82Y-86.54
X68.04Y-10.84
X68.04Y-13.38
X68.36Y-84.0
X68.36Y-86.54
X70.58Y-10.84
X70.58Y-13.38
X70.9Y-84.0
X70.9Y-86.54
X73.12Y-10.84
X73.12Y-13.38
X73.44Y-84.0
X73.44Y-86.54
X75.66Y-10.84
X75.66Y-13.38
X75.98Y-84.0
X75.98Y-86.54
X81.06Y-17.96
X81.06Y-20.5
X81.06Y-23.04
X81.06Y-25.58
X81.06Y-28.12
X81.06Y-30.66
X81.06Y-33.2
X81.06Y-35.74
X81.06Y-38.28
X81.06Y-40.82
X81.06Y-43.36
X81.06Y-45.9
X81.06Y-48.44
X81.06Y-50.98
X81.06Y-53.52
X81.06Y-56.06
X81.06Y-58.6
X81.06Y-61.14
X81.06Y-63.68
X81.06Y-66.22
X81.06Y-68.76
X81.06Y-71.3
X81.06Y-73.84
X81.06Y-76.38
X81.06Y-78.92
X83.6Y-17.96
X83.6Y-20.5
X83.6Y-23.04
X83.6Y-25.58
X83.6Y-28.12
X83.6Y-30.66
X83.6Y-33.2
X83.6Y-35.74
X83.6Y-38.28
X83.6Y-40.82
X83.6Y-43.36
X83.6Y-45.9
X83.6Y-48.44
X83.6Y-50.98
X83.6Y-53.52
X83.6Y-56.06
X83.6Y-58.6
X83.6Y-61.14
X83.6Y-63.68
X83.6Y-66.22
X83.6Y-68.76
X83.6Y-71.3
X83.6Y-73.84
X83.6Y-76.38
X83.6Y-78.92
T5
X5.08Y-90.81
X8.89Y-5.08
X82.55Y-5.08
X85.09Y-90.81
T6
X33.51Y-5.795
X33.51Y-63.795
X56.51Y-5.795
X56.51Y-63.795
M30
