  0
SECTION
  2
HEADER
  9
$ANGBASE
  50
0.0
  9
$ANGDIR
  70
1
  9
$MEASUREMENT
  70
1
  0
ENDSEC
  0
SECTION
  2
TABLES
  0
TABLE
  2
LTYPE
  70
4
  0
LTYPE
  5
40F
  2
CONTINUOUS
  70
0
  3
Solid line
  72
65
  73
0
  40
0.0
  0
LTYPE
  5
410
  2
DASHDOT
 70
0
  3
Dash Dot ____ _ ____ _
 72
65
 73
4
 40
2.0
 49
1.25
 49
-0.25
 49
0.25
 49
-0.25
  0
LTYPE
  5
411
  2
DASHED
 70
0
  3
Dashed __ __ __ __ __
 72
65
 73
2
 40
0.75
 49
0.5
 49
-0.25
  0
LTYPE
  5
43B
  2
DOTTED
 70
0
  3
Dotted .  .  .  .
 72
65
 73
2
 40
0.2
 49
0.0
 49
-0.2
  0
ENDTAB
  0
TABLE
  2
STYLE
  70
4
  0
STYLE
  2
KICAD
  70
0
  40
0
  41
1
  42
1
  50
0
  71
0
  3
isocp.shx
  0
STYLE
  2
KICADB
  70
0
  40
0
  41
1
  42
1
  50
0
  71
0
  3
isocp.shx
  0
STYLE
  2
KICADI
  70
0
  40
0
  41
1
  42
1
  50
15
  71
0
  3
isocp.shx
  0
STYLE
  2
KICADBI
  70
0
  40
0
  41
1
  42
1
  50
15
  71
0
  3
isocp.shx
  0
ENDTAB
  0
TABLE
  2
LAYER
  70
1
  0
LAYER
  2
BLACK
  70
0
  62
7
  6
CONTINUOUS
  0
ENDTAB
  0
ENDSEC
  0
SECTION
  2
ENTITIES
0
LINE
8
BLACK
6
CONTINUOUS
10
0.
20
-85.8900000000000006
11
0.
21
-93.8900000000000006
0
LINE
8
BLACK
6
CONTINUOUS
10
2.
20
-83.3900000000000006
11
0.
21
-85.8900000000000006
0
LINE
8
BLACK
6
CONTINUOUS
10
2.
20
-12.5
11
0.
21
-10.
0
LINE
8
BLACK
6
CONTINUOUS
10
88.1700000000000017
20
-12.5
11
90.1700000000000017
21
-10.
0
LINE
8
BLACK
6
CONTINUOUS
10
2.
20
-83.3900000000000006
11
2.
21
-12.5
0
ARC
8
BLACK
10
1.9999989999999999
20
-1.9999989999999999
40
1.9999990000002499
50
-270.00002865
51
-179.99997135
0
LINE
8
BLACK
6
CONTINUOUS
10
14.6699989999999989
20
-2.
11
77.6700000000000017
21
-2.
0
LINE
8
BLACK
6
CONTINUOUS
10
90.1700000000000017
20
-10.
11
90.1700000000000017
21
-2.
0
LINE
8
BLACK
6
CONTINUOUS
10
88.1700000000000017
20
0.
11
80.1700000000000017
21
0.
0
LINE
8
BLACK
6
CONTINUOUS
10
90.1700000000000017
20
-93.8900000000000006
11
90.1700000000000017
21
-85.8900000000000006
0
LINE
8
BLACK
6
CONTINUOUS
10
0.
20
-2.
11
0.
21
-10.
0
LINE
8
BLACK
6
CONTINUOUS
10
75.5
20
-93.8900000000000006
11
78.
21
-95.8900000000000006
0
ARC
8
BLACK
10
88.1700000000000017
20
-2.
40
2.
50
0.00000000
51
90.00000000
0
LINE
8
BLACK
6
CONTINUOUS
10
77.6700000000000017
20
-2.
11
80.1700000000000017
21
0.
0
LINE
8
BLACK
6
CONTINUOUS
10
2.
20
-95.8900000000000006
11
10.
21
-95.8900000000000006
0
LINE
8
BLACK
6
CONTINUOUS
10
88.1700000000000017
20
-83.3900000000000006
11
90.1700000000000017
21
-85.8900000000000006
0
LINE
8
BLACK
6
CONTINUOUS
10
75.5
20
-93.8900000000000006
11
12.5
21
-93.8900000000000006
0
LINE
8
BLACK
6
CONTINUOUS
10
12.1699999999999999
20
0.
11
2.
21
0.
0
ARC
8
BLACK
10
2.
20
-93.8900000000000006
40
2.
50
-180.00000000
51
-90.00000000
0
LINE
8
BLACK
6
CONTINUOUS
10
12.5
20
-93.8900000000000006
11
10.
21
-95.8900000000000006
0
LINE
8
BLACK
6
CONTINUOUS
10
14.6699989999999989
20
-2.
11
12.1699999999999999
21
0.
0
LINE
8
BLACK
6
CONTINUOUS
10
78.
20
-95.8900000000000006
11
88.1700000000000017
21
-95.8900000000000006
0
LINE
8
BLACK
6
CONTINUOUS
10
88.1700000000000017
20
-12.5
11
88.1700000000000017
21
-83.3900000000000006
0
ARC
8
BLACK
10
88.1700000000000017
20
-93.8900000000000006
40
2.
50
-90.00000000
51
-0.00000000
0
LINE
8
BLACK
6
CONTINUOUS
10
2.5327679999999999
20
-99.0798379999999952
11
2.5327679999999999
21
-97.0798379999999952
0
LINE
8
BLACK
6
CONTINUOUS
10
2.5327679999999999
20
-97.0798379999999952
11
3.0089579999999998
21
-97.0798379999999952
0
LINE
8
BLACK
6
CONTINUOUS
10
3.0089579999999998
20
-97.0798379999999952
11
3.294673
21
-97.17507599999999
0
LINE
8
BLACK
6
CONTINUOUS
10
3.294673
20
-97.17507599999999
11
3.4851489999999998
21
-97.3655519999999939
0
LINE
8
BLACK
6
CONTINUOUS
10
3.4851489999999998
20
-97.3655519999999939
11
3.580387
21
-97.5560279999999977
0
LINE
8
BLACK
6
CONTINUOUS
10
3.580387
20
-97.5560279999999977
11
3.6756249999999997
21
-97.9369799999999913
0
LINE
8
BLACK
6
CONTINUOUS
10
3.6756249999999997
20
-97.9369799999999913
11
3.6756249999999997
21
-98.2226950000000016
0
LINE
8
BLACK
6
CONTINUOUS
10
3.6756249999999997
20
-98.2226950000000016
11
3.580387
21
-98.6036469999999952
0
LINE
8
BLACK
6
CONTINUOUS
10
3.580387
20
-98.6036469999999952
11
3.4851489999999998
21
-98.794122999999999
0
LINE
8
BLACK
6
CONTINUOUS
10
3.4851489999999998
20
-98.794122999999999
11
3.294673
21
-98.9846000000000004
0
LINE
8
BLACK
6
CONTINUOUS
10
3.294673
20
-98.9846000000000004
11
3.0089579999999998
21
-99.0798379999999952
0
LINE
8
BLACK
6
CONTINUOUS
10
3.0089579999999998
20
-99.0798379999999952
11
2.5327679999999999
21
-99.0798379999999952
0
LINE
8
BLACK
6
CONTINUOUS
10
4.5327679999999999
20
-99.0798379999999952
11
4.5327679999999999
21
-97.7465040000000016
0
LINE
8
BLACK
6
CONTINUOUS
10
4.5327679999999999
20
-98.1274569999999926
11
4.6280060000000001
21
-97.9369799999999913
0
LINE
8
BLACK
6
CONTINUOUS
10
4.6280060000000001
20
-97.9369799999999913
11
4.7232440000000002
21
-97.8417419999999964
0
LINE
8
BLACK
6
CONTINUOUS
10
4.7232440000000002
20
-97.8417419999999964
11
4.9137199999999996
21
-97.7465040000000016
0
LINE
8
BLACK
6
CONTINUOUS
10
4.9137199999999996
20
-97.7465040000000016
11
5.1041970000000001
21
-97.7465040000000016
0
LINE
8
BLACK
6
CONTINUOUS
10
5.7708629999999994
20
-99.0798379999999952
11
5.7708629999999994
21
-97.7465040000000016
0
LINE
8
BLACK
6
CONTINUOUS
10
5.7708629999999994
20
-97.0798379999999952
11
5.6756250000000001
21
-97.17507599999999
0
LINE
8
BLACK
6
CONTINUOUS
10
5.6756250000000001
20
-97.17507599999999
11
5.7708629999999994
21
-97.2703139999999991
0
LINE
8
BLACK
6
CONTINUOUS
10
5.7708629999999994
20
-97.2703139999999991
11
5.8661009999999996
21
-97.17507599999999
0
LINE
8
BLACK
6
CONTINUOUS
10
5.8661009999999996
20
-97.17507599999999
11
5.7708629999999994
21
-97.0798379999999952
0
LINE
8
BLACK
6
CONTINUOUS
10
5.7708629999999994
20
-97.0798379999999952
11
5.7708629999999994
21
-97.2703139999999991
0
LINE
8
BLACK
6
CONTINUOUS
10
7.0089579999999998
20
-99.0798379999999952
11
6.8184819999999995
21
-98.9846000000000004
0
LINE
8
BLACK
6
CONTINUOUS
10
6.8184819999999995
20
-98.9846000000000004
11
6.7232439999999993
21
-98.794122999999999
0
LINE
8
BLACK
6
CONTINUOUS
10
6.7232439999999993
20
-98.794122999999999
11
6.7232439999999993
21
-97.0798379999999952
0
LINE
8
BLACK
6
CONTINUOUS
10
8.056576999999999
20
-99.0798379999999952
11
7.8661009999999996
21
-98.9846000000000004
0
LINE
8
BLACK
6
CONTINUOUS
10
7.8661009999999996
20
-98.9846000000000004
11
7.7708629999999994
21
-98.794122999999999
0
LINE
8
BLACK
6
CONTINUOUS
10
7.7708629999999994
20
-98.794122999999999
11
7.7708629999999994
21
-97.0798379999999952
0
LINE
8
BLACK
6
CONTINUOUS
10
10.3422919999999987
20
-99.0798379999999952
11
10.3422919999999987
21
-97.0798379999999952
0
LINE
8
BLACK
6
CONTINUOUS
10
10.3422919999999987
20
-97.0798379999999952
11
11.0089589999999991
21
-98.5084090000000003
0
LINE
8
BLACK
6
CONTINUOUS
10
11.0089589999999991
20
-98.5084090000000003
11
11.6756250000000001
21
-97.0798379999999952
0
LINE
8
BLACK
6
CONTINUOUS
10
11.6756250000000001
20
-97.0798379999999952
11
11.6756250000000001
21
-99.0798379999999952
0
LINE
8
BLACK
6
CONTINUOUS
10
13.4851489999999998
20
-99.0798379999999952
11
13.4851489999999998
21
-98.0322189999999978
0
LINE
8
BLACK
6
CONTINUOUS
10
13.4851489999999998
20
-98.0322189999999978
11
13.3899109999999997
21
-97.8417419999999964
0
LINE
8
BLACK
6
CONTINUOUS
10
13.3899109999999997
20
-97.8417419999999964
11
13.1994349999999994
21
-97.7465040000000016
0
LINE
8
BLACK
6
CONTINUOUS
10
13.1994349999999994
20
-97.7465040000000016
11
12.8184819999999995
21
-97.7465040000000016
0
LINE
8
BLACK
6
CONTINUOUS
10
12.8184819999999995
20
-97.7465040000000016
11
12.6280059999999992
21
-97.8417419999999964
0
LINE
8
BLACK
6
CONTINUOUS
10
13.4851489999999998
20
-98.9846000000000004
11
13.2946729999999995
21
-99.0798379999999952
0
LINE
8
BLACK
6
CONTINUOUS
10
13.2946729999999995
20
-99.0798379999999952
11
12.8184819999999995
21
-99.0798379999999952
0
LINE
8
BLACK
6
CONTINUOUS
10
12.8184819999999995
20
-99.0798379999999952
11
12.6280059999999992
21
-98.9846000000000004
0
LINE
8
BLACK
6
CONTINUOUS
10
12.6280059999999992
20
-98.9846000000000004
11
12.532767999999999
21
-98.794122999999999
0
LINE
8
BLACK
6
CONTINUOUS
10
12.532767999999999
20
-98.794122999999999
11
12.532767999999999
21
-98.6036469999999952
0
LINE
8
BLACK
6
CONTINUOUS
10
12.532767999999999
20
-98.6036469999999952
11
12.6280059999999992
21
-98.4131709999999913
0
LINE
8
BLACK
6
CONTINUOUS
10
12.6280059999999992
20
-98.4131709999999913
11
12.8184819999999995
21
-98.3179329999999965
0
LINE
8
BLACK
6
CONTINUOUS
10
12.8184819999999995
20
-98.3179329999999965
11
13.2946729999999995
21
-98.3179329999999965
0
LINE
8
BLACK
6
CONTINUOUS
10
13.2946729999999995
20
-98.3179329999999965
11
13.4851489999999998
21
-98.2226950000000016
0
LINE
8
BLACK
6
CONTINUOUS
10
14.4375299999999989
20
-97.7465040000000016
11
14.4375299999999989
21
-99.7465040000000016
0
LINE
8
BLACK
6
CONTINUOUS
10
14.4375299999999989
20
-97.8417419999999964
11
14.6280059999999992
21
-97.7465040000000016
0
LINE
8
BLACK
6
CONTINUOUS
10
14.6280059999999992
20
-97.7465040000000016
11
15.0089589999999991
21
-97.7465040000000016
0
LINE
8
BLACK
6
CONTINUOUS
10
15.0089589999999991
20
-97.7465040000000016
11
15.1994349999999994
21
-97.8417419999999964
0
LINE
8
BLACK
6
CONTINUOUS
10
15.1994349999999994
20
-97.8417419999999964
11
15.2946729999999995
21
-97.9369799999999913
0
LINE
8
BLACK
6
CONTINUOUS
10
15.2946729999999995
20
-97.9369799999999913
11
15.3899109999999997
21
-98.1274569999999926
0
LINE
8
BLACK
6
CONTINUOUS
10
15.3899109999999997
20
-98.1274569999999926
11
15.3899109999999997
21
-98.69888499999999
0
LINE
8
BLACK
6
CONTINUOUS
10
15.3899109999999997
20
-98.69888499999999
11
15.2946729999999995
21
-98.8893609999999939
0
LINE
8
BLACK
6
CONTINUOUS
10
15.2946729999999995
20
-98.8893609999999939
11
15.1994349999999994
21
-98.9846000000000004
0
LINE
8
BLACK
6
CONTINUOUS
10
15.1994349999999994
20
-98.9846000000000004
11
15.0089589999999991
21
-99.0798379999999952
0
LINE
8
BLACK
6
CONTINUOUS
10
15.0089589999999991
20
-99.0798379999999952
11
14.6280059999999992
21
-99.0798379999999952
0
LINE
8
BLACK
6
CONTINUOUS
10
14.6280059999999992
20
-99.0798379999999952
11
14.4375299999999989
21
-98.9846000000000004
0
LINE
8
BLACK
6
CONTINUOUS
10
16.2470539999999986
20
-98.8893609999999939
11
16.3422920000000005
21
-98.9846000000000004
0
LINE
8
BLACK
6
CONTINUOUS
10
16.3422920000000005
20
-98.9846000000000004
11
16.2470539999999986
21
-99.0798379999999952
0
LINE
8
BLACK
6
CONTINUOUS
10
16.2470539999999986
20
-99.0798379999999952
11
16.1518160000000002
21
-98.9846000000000004
0
LINE
8
BLACK
6
CONTINUOUS
10
16.1518160000000002
20
-98.9846000000000004
11
16.2470539999999986
21
-98.8893609999999939
0
LINE
8
BLACK
6
CONTINUOUS
10
16.2470539999999986
20
-98.8893609999999939
11
16.2470539999999986
21
-99.0798379999999952
0
LINE
8
BLACK
6
CONTINUOUS
10
16.2470539999999986
20
-97.8417419999999964
11
16.3422920000000005
21
-97.9369799999999913
0
LINE
8
BLACK
6
CONTINUOUS
10
16.3422920000000005
20
-97.9369799999999913
11
16.2470539999999986
21
-98.0322189999999978
0
LINE
8
BLACK
6
CONTINUOUS
10
16.2470539999999986
20
-98.0322189999999978
11
16.1518160000000002
21
-97.9369799999999913
0
LINE
8
BLACK
6
CONTINUOUS
10
16.1518160000000002
20
-97.9369799999999913
11
16.2470539999999986
21
-97.8417419999999964
0
LINE
8
BLACK
6
CONTINUOUS
10
16.2470539999999986
20
-97.8417419999999964
11
16.2470539999999986
21
-98.0322189999999978
  0
ENDSEC
  0
EOF
