%TF.GenerationSoftware,KiCad,Pcbnew,8.0.8*%
%TF.CreationDate,2025-02-18T22:09:05-08:00*%
%TF.ProjectId,ZPlus_Panel,5a506c75-735f-4506-916e-656c2e6b6963,v1b*%
%TF.SameCoordinates,Original*%
%TF.FileFunction,Copper,L4,Bot*%
%TF.FilePolarity,Positive*%
%FSLAX46Y46*%
G04 Gerber Fmt 4.6, Leading zero omitted, Abs format (unit mm)*
G04 Created by KiCad (PCBNEW 8.0.8) date 2025-02-18 22:09:05*
%MOMM*%
%LPD*%
G01*
G04 APERTURE LIST*
G04 Aperture macros list*
%AMRoundRect*
0 Rectangle with rounded corners*
0 $1 Rounding radius*
0 $2 $3 $4 $5 $6 $7 $8 $9 X,Y pos of 4 corners*
0 Add a 4 corners polygon primitive as box body*
4,1,4,$2,$3,$4,$5,$6,$7,$8,$9,$2,$3,0*
0 Add four circle primitives for the rounded corners*
1,1,$1+$1,$2,$3*
1,1,$1+$1,$4,$5*
1,1,$1+$1,$6,$7*
1,1,$1+$1,$8,$9*
0 Add four rect primitives between the rounded corners*
20,1,$1+$1,$2,$3,$4,$5,0*
20,1,$1+$1,$4,$5,$6,$7,0*
20,1,$1+$1,$6,$7,$8,$9,0*
20,1,$1+$1,$8,$9,$2,$3,0*%
G04 Aperture macros list end*
%TA.AperFunction,ComponentPad*%
%ADD10C,3.000000*%
%TD*%
%TA.AperFunction,ComponentPad*%
%ADD11C,2.600000*%
%TD*%
%TA.AperFunction,ConnectorPad*%
%ADD12C,3.800000*%
%TD*%
%TA.AperFunction,SMDPad,CuDef*%
%ADD13R,1.100000X1.450000*%
%TD*%
%TA.AperFunction,SMDPad,CuDef*%
%ADD14R,1.350000X2.899999*%
%TD*%
%TA.AperFunction,SMDPad,CuDef*%
%ADD15R,1.700000X2.500000*%
%TD*%
%TA.AperFunction,SMDPad,CuDef*%
%ADD16RoundRect,0.225000X0.225000X0.250000X-0.225000X0.250000X-0.225000X-0.250000X0.225000X-0.250000X0*%
%TD*%
%TA.AperFunction,SMDPad,CuDef*%
%ADD17R,1.460500X0.533400*%
%TD*%
%TA.AperFunction,SMDPad,CuDef*%
%ADD18R,2.500000X1.700000*%
%TD*%
%TA.AperFunction,SMDPad,CuDef*%
%ADD19R,1.295400X0.838200*%
%TD*%
%TA.AperFunction,SMDPad,CuDef*%
%ADD20R,2.260600X1.397000*%
%TD*%
%TA.AperFunction,SMDPad,CuDef*%
%ADD21RoundRect,0.225000X-0.225000X-0.250000X0.225000X-0.250000X0.225000X0.250000X-0.225000X0.250000X0*%
%TD*%
%TA.AperFunction,SMDPad,CuDef*%
%ADD22RoundRect,0.175000X-0.825000X0.525000X-0.825000X-0.525000X0.825000X-0.525000X0.825000X0.525000X0*%
%TD*%
%TA.AperFunction,SMDPad,CuDef*%
%ADD23RoundRect,0.150000X-0.450000X0.550000X-0.450000X-0.550000X0.450000X-0.550000X0.450000X0.550000X0*%
%TD*%
%TA.AperFunction,SMDPad,CuDef*%
%ADD24RoundRect,0.200000X-0.200000X-0.275000X0.200000X-0.275000X0.200000X0.275000X-0.200000X0.275000X0*%
%TD*%
%TA.AperFunction,SMDPad,CuDef*%
%ADD25RoundRect,0.175000X-0.525000X-0.825000X0.525000X-0.825000X0.525000X0.825000X-0.525000X0.825000X0*%
%TD*%
%TA.AperFunction,SMDPad,CuDef*%
%ADD26RoundRect,0.150000X-0.550000X-0.450000X0.550000X-0.450000X0.550000X0.450000X-0.550000X0.450000X0*%
%TD*%
%TA.AperFunction,SMDPad,CuDef*%
%ADD27RoundRect,0.200000X0.200000X0.275000X-0.200000X0.275000X-0.200000X-0.275000X0.200000X-0.275000X0*%
%TD*%
%TA.AperFunction,ComponentPad*%
%ADD28C,2.050000*%
%TD*%
%TA.AperFunction,ComponentPad*%
%ADD29C,2.250000*%
%TD*%
%TA.AperFunction,ViaPad*%
%ADD30C,0.800000*%
%TD*%
%TA.AperFunction,Conductor*%
%ADD31C,0.342400*%
%TD*%
%TA.AperFunction,Conductor*%
%ADD32C,0.250000*%
%TD*%
G04 APERTURE END LIST*
D10*
X149900000Y-82700000D03*
X140900000Y-82700000D03*
D11*
X155182000Y-45965600D03*
D12*
X155182000Y-45965600D03*
D10*
X188600000Y-121500000D03*
X188600000Y-130500000D03*
D11*
X159500000Y-112400000D03*
D12*
X159500000Y-112400000D03*
D11*
X172000000Y-112400000D03*
D12*
X172000000Y-112400000D03*
D11*
X172000000Y-91600000D03*
D12*
X172000000Y-91600000D03*
D11*
X211856000Y-45965600D03*
D12*
X211856000Y-45965600D03*
D10*
X162625000Y-55925000D03*
X162625000Y-46925000D03*
X224300000Y-83200000D03*
X215300000Y-83200000D03*
X149900000Y-118000000D03*
X140900000Y-118000000D03*
D11*
X211856000Y-130965600D03*
D12*
X211856000Y-130965600D03*
D10*
X224300000Y-118600000D03*
X215300000Y-118600000D03*
D11*
X155182000Y-130965600D03*
D12*
X155182000Y-130965600D03*
D11*
X159500000Y-91600000D03*
D12*
X159500000Y-91600000D03*
D13*
X180350000Y-50800000D03*
X178349999Y-50800000D03*
X176350000Y-50800000D03*
X174349999Y-50800000D03*
D14*
X171455001Y-56774999D03*
X183244998Y-56774999D03*
D15*
X155500000Y-56725000D03*
X155500000Y-52725000D03*
D16*
X145425000Y-74625000D03*
X143875000Y-74625000D03*
D17*
X141276700Y-72310000D03*
X141276700Y-71040000D03*
X141276700Y-69770000D03*
X141276700Y-68500000D03*
X146725000Y-68500000D03*
X146725000Y-69770000D03*
X146725000Y-71040000D03*
X146725000Y-72310000D03*
D18*
X142350000Y-89825000D03*
X138350000Y-89825000D03*
D19*
X151123850Y-70910400D03*
X151123850Y-72160400D03*
X151123850Y-73410400D03*
X151123850Y-74660400D03*
D20*
X153418740Y-76560401D03*
X153418740Y-69010399D03*
D21*
X146750000Y-61625000D03*
X148300000Y-61625000D03*
D22*
X137275000Y-71675000D03*
D23*
X137275000Y-65575000D03*
D24*
X146700000Y-66700000D03*
X148350000Y-66700000D03*
D18*
X177350000Y-45400000D03*
X173350000Y-45400000D03*
D21*
X146750000Y-64125000D03*
X148300000Y-64125000D03*
D25*
X143600000Y-55275000D03*
D26*
X137500000Y-55275000D03*
D15*
X228850000Y-114075000D03*
X228850000Y-110075000D03*
X227125000Y-79825000D03*
X227125000Y-75825000D03*
D16*
X145425000Y-77050000D03*
X143875000Y-77050000D03*
D15*
X183775000Y-123525000D03*
X183775000Y-127525000D03*
D27*
X145500000Y-79450000D03*
X143850000Y-79450000D03*
D28*
X195800000Y-88400000D03*
D29*
X193260000Y-90940000D03*
X198340000Y-90940000D03*
X193260000Y-85860000D03*
X198340000Y-85860000D03*
D15*
X151575000Y-122275000D03*
X151575000Y-126275000D03*
D30*
X193725000Y-107475000D03*
X206475000Y-87500000D03*
X201200000Y-91800000D03*
X193000000Y-79000000D03*
X201200000Y-87000000D03*
X193200000Y-68800000D03*
X193725000Y-99475000D03*
X230200000Y-86025000D03*
X192100000Y-105025000D03*
X201200000Y-85200000D03*
X207552000Y-109416000D03*
X207552000Y-111416000D03*
X195000000Y-100600000D03*
X207552000Y-69856000D03*
X192100000Y-103025000D03*
X195000000Y-104600000D03*
X194800000Y-70400000D03*
X148725000Y-68550000D03*
X207552000Y-67856000D03*
X192100000Y-107025000D03*
X207552000Y-107416000D03*
X193200000Y-70800000D03*
X201200000Y-90000000D03*
X207552000Y-103416000D03*
X193725000Y-111475000D03*
X191850000Y-67900000D03*
X194800000Y-66400000D03*
X193200000Y-64800000D03*
X192100000Y-111025000D03*
X207900000Y-85500000D03*
X194800000Y-64800000D03*
X195000000Y-110000000D03*
X206475000Y-85500000D03*
X207900000Y-91500000D03*
X192100000Y-101025000D03*
X191675000Y-81475000D03*
X194800000Y-63400000D03*
X193000000Y-81000000D03*
X193000000Y-97600000D03*
X191850000Y-75900000D03*
X191850000Y-69900000D03*
X193000000Y-83400000D03*
X193725000Y-109475000D03*
X192100000Y-99025000D03*
X191925000Y-97100000D03*
X199074000Y-83476000D03*
X207552000Y-73856000D03*
X195000000Y-102600000D03*
X178675000Y-42975000D03*
X206475000Y-83500000D03*
X181875000Y-130150000D03*
X193000000Y-93600000D03*
X207552000Y-105416000D03*
X194800000Y-72400000D03*
X207552000Y-71856000D03*
X188050000Y-50050000D03*
X136475000Y-123675000D03*
X193000000Y-75000000D03*
X206475000Y-89500000D03*
X195000000Y-111800000D03*
X193000000Y-73000000D03*
X191675000Y-83475000D03*
X191775000Y-77800000D03*
X206475000Y-91500000D03*
X193000000Y-95600000D03*
X218150000Y-134700000D03*
X193200000Y-66800000D03*
X191925000Y-95100000D03*
X191775000Y-79800000D03*
X195000000Y-106600000D03*
X207552000Y-101416000D03*
X230200000Y-107650000D03*
X193725000Y-105475000D03*
X155500000Y-125100000D03*
X197074000Y-83476000D03*
X193200000Y-63400000D03*
X192100000Y-109025000D03*
X149100000Y-72925000D03*
X191850000Y-71900000D03*
X193125000Y-124675000D03*
X193625000Y-128225000D03*
X207552000Y-63856000D03*
X191850000Y-73900000D03*
X195000000Y-108600000D03*
X207552000Y-65856000D03*
X193725000Y-101475000D03*
X193725000Y-103475000D03*
X207900000Y-87500000D03*
X207900000Y-83500000D03*
X207900000Y-89500000D03*
X187725000Y-126150000D03*
X194800000Y-68400000D03*
X191525000Y-93650000D03*
X195074000Y-83476000D03*
X201074000Y-83476000D03*
X193000000Y-77000000D03*
X194800000Y-74400000D03*
X151750000Y-57600000D03*
X144550000Y-69775000D03*
X145200000Y-66625000D03*
D31*
X151123850Y-73410400D02*
X149585400Y-73410400D01*
X141276700Y-69770000D02*
X141276700Y-68500000D01*
X148675000Y-68500000D02*
X148725000Y-68550000D01*
X138351700Y-65575000D02*
X141276700Y-68500000D01*
X146725000Y-68500000D02*
X148675000Y-68500000D01*
X149585400Y-73410400D02*
X149100000Y-72925000D01*
X137500000Y-65350000D02*
X137275000Y-65575000D01*
X137500000Y-55275000D02*
X137500000Y-65350000D01*
X137275000Y-65575000D02*
X138351700Y-65575000D01*
D32*
X224300000Y-83200000D02*
X227125000Y-80375000D01*
X227125000Y-80375000D02*
X227125000Y-79825000D01*
X228725000Y-85525000D02*
X228850000Y-85650000D01*
X220025000Y-118600000D02*
X228550000Y-110075000D01*
X215300000Y-118600000D02*
X220025000Y-118600000D01*
X228550000Y-110075000D02*
X228850000Y-110075000D01*
X224300000Y-83200000D02*
X226550000Y-83200000D01*
X228725000Y-85375000D02*
X228725000Y-85525000D01*
X226550000Y-83200000D02*
X228725000Y-85375000D01*
X228850000Y-85650000D02*
X228850000Y-110075000D01*
X177350000Y-45400000D02*
X178349999Y-46399999D01*
X180350000Y-46475000D02*
X180350000Y-50800000D01*
X178349999Y-46399999D02*
X178349999Y-50800000D01*
X177350000Y-45400000D02*
X179275000Y-45400000D01*
X179275000Y-45400000D02*
X180350000Y-46475000D01*
X162625000Y-55925000D02*
X162425000Y-56125000D01*
X162425000Y-56125000D02*
X156350000Y-56125000D01*
X173350000Y-45400000D02*
X173150000Y-45400000D01*
X156350000Y-56125000D02*
X155325000Y-57150000D01*
X173150000Y-45400000D02*
X162625000Y-55925000D01*
X156600000Y-53150000D02*
X157600000Y-52150000D01*
X151750000Y-56475000D02*
X151750000Y-57600000D01*
X155500000Y-52725000D02*
X151750000Y-56475000D01*
X142775000Y-89825000D02*
X149900000Y-82700000D01*
X157600000Y-51950000D02*
X162625000Y-46925000D01*
X157600000Y-52150000D02*
X157600000Y-51950000D01*
X155325000Y-53150000D02*
X156600000Y-53150000D01*
X142350000Y-89825000D02*
X142775000Y-89825000D01*
X149900000Y-118000000D02*
X149900000Y-120600000D01*
X138350000Y-106450000D02*
X149900000Y-118000000D01*
X149900000Y-120600000D02*
X151575000Y-122275000D01*
X138350000Y-89825000D02*
X138350000Y-85250000D01*
X138350000Y-85250000D02*
X140900000Y-82700000D01*
X138350000Y-89825000D02*
X138350000Y-106450000D01*
X183775000Y-123525000D02*
X154325000Y-123525000D01*
X154325000Y-123525000D02*
X151575000Y-126275000D01*
X186575000Y-123525000D02*
X183775000Y-123525000D01*
X143300000Y-118000000D02*
X151575000Y-126275000D01*
X188600000Y-121500000D02*
X186575000Y-123525000D01*
X140900000Y-118000000D02*
X143300000Y-118000000D01*
X224300000Y-118600000D02*
X216425000Y-126475000D01*
X183775000Y-127525000D02*
X185625000Y-127525000D01*
X224300000Y-118600000D02*
X228825000Y-114075000D01*
X192625000Y-126475000D02*
X188600000Y-130500000D01*
X228825000Y-114075000D02*
X228850000Y-114075000D01*
X216425000Y-126475000D02*
X192625000Y-126475000D01*
X185625000Y-127525000D02*
X188600000Y-130500000D01*
X145425000Y-79375000D02*
X145500000Y-79450000D01*
X145425000Y-77050000D02*
X145425000Y-79375000D01*
X140641700Y-71675000D02*
X141276700Y-71040000D01*
X141840000Y-71040000D02*
X145425000Y-74625000D01*
X145675000Y-74875000D02*
X145675000Y-76800000D01*
X145425000Y-74625000D02*
X145675000Y-74875000D01*
X141276700Y-71040000D02*
X141840000Y-71040000D01*
X137275000Y-71675000D02*
X140641700Y-71675000D01*
X145675000Y-76800000D02*
X145425000Y-77050000D01*
X151123850Y-72160400D02*
X154135400Y-72160400D01*
X155875000Y-78325000D02*
X153950000Y-80250000D01*
X154135400Y-72160400D02*
X155875000Y-73900000D01*
X155875000Y-73900000D02*
X155875000Y-78325000D01*
X143875000Y-77050000D02*
X143875000Y-79425000D01*
X143875000Y-74625000D02*
X143875000Y-77050000D01*
X153950000Y-80250000D02*
X144650000Y-80250000D01*
X143875000Y-79425000D02*
X143850000Y-79450000D01*
X144650000Y-80250000D02*
X143850000Y-79450000D01*
X143591700Y-74625000D02*
X143875000Y-74625000D01*
X141276700Y-72310000D02*
X143591700Y-74625000D01*
X146725000Y-69770000D02*
X144555000Y-69770000D01*
X145200000Y-66625000D02*
X146625000Y-66625000D01*
X146700000Y-64325000D02*
X146700000Y-66700000D01*
X144555000Y-69770000D02*
X144550000Y-69775000D01*
X146750000Y-61625000D02*
X146750000Y-64125000D01*
X146750000Y-64125000D02*
X146750000Y-64275000D01*
X143600000Y-55275000D02*
X143600000Y-58475000D01*
X146625000Y-66625000D02*
X146700000Y-66700000D01*
X146750000Y-64275000D02*
X146700000Y-64325000D01*
X143600000Y-58475000D02*
X146750000Y-61625000D01*
X148350000Y-66700000D02*
X151123850Y-69473850D01*
X148300000Y-61625000D02*
X148300000Y-64125000D01*
X148300000Y-64125000D02*
X148300000Y-64225000D01*
X148300000Y-64225000D02*
X148350000Y-64275000D01*
X151123850Y-69473850D02*
X151123850Y-70910400D01*
X150994250Y-71040000D02*
X151123850Y-70910400D01*
X148350000Y-64275000D02*
X148350000Y-66700000D01*
X146725000Y-71040000D02*
X150994250Y-71040000D01*
X146725000Y-72310000D02*
X146725000Y-73550000D01*
X147835400Y-74660400D02*
X151123850Y-74660400D01*
X146725000Y-73550000D02*
X147835400Y-74660400D01*
%TA.AperFunction,Conductor*%
G36*
X149925810Y-71692885D02*
G01*
X149962682Y-71743635D01*
X149967650Y-71775000D01*
X149967650Y-72628138D01*
X149974161Y-72688701D01*
X149997264Y-72750647D01*
X149999949Y-72813320D01*
X149997264Y-72821583D01*
X149974654Y-72882205D01*
X149974653Y-72882210D01*
X149968151Y-72942692D01*
X149968150Y-72942719D01*
X149968150Y-73156400D01*
X152279550Y-73156400D01*
X152279550Y-72942719D01*
X152279549Y-72942708D01*
X152275630Y-72906249D01*
X152288527Y-72844858D01*
X152335046Y-72802773D01*
X152376549Y-72793900D01*
X153830954Y-72793900D01*
X153890614Y-72813285D01*
X153902725Y-72823629D01*
X155211771Y-74132675D01*
X155240250Y-74188568D01*
X155241500Y-74204446D01*
X155241500Y-75700796D01*
X155222115Y-75760456D01*
X155171365Y-75797328D01*
X155108635Y-75797328D01*
X155057885Y-75760456D01*
X155044900Y-75736267D01*
X155019621Y-75668493D01*
X154999929Y-75615697D01*
X154912301Y-75498640D01*
X154795244Y-75411012D01*
X154712726Y-75380234D01*
X154658244Y-75359913D01*
X154658243Y-75359912D01*
X154658241Y-75359912D01*
X154597678Y-75353401D01*
X152358297Y-75353401D01*
X152298637Y-75334016D01*
X152261765Y-75283266D01*
X152261765Y-75220536D01*
X152263196Y-75216431D01*
X152273539Y-75188701D01*
X152280050Y-75128138D01*
X152280050Y-74192662D01*
X152273539Y-74132099D01*
X152262890Y-74103548D01*
X152250435Y-74070154D01*
X152247748Y-74007482D01*
X152250435Y-73999213D01*
X152273043Y-73938597D01*
X152273046Y-73938586D01*
X152279548Y-73878107D01*
X152279550Y-73878080D01*
X152279550Y-73664400D01*
X149968150Y-73664400D01*
X149968150Y-73878091D01*
X149972070Y-73914551D01*
X149959173Y-73975942D01*
X149912654Y-74018027D01*
X149871151Y-74026900D01*
X148139847Y-74026900D01*
X148080187Y-74007515D01*
X148068076Y-73997171D01*
X147388229Y-73317324D01*
X147359750Y-73261431D01*
X147358500Y-73245553D01*
X147358500Y-73186700D01*
X147377885Y-73127040D01*
X147428635Y-73090168D01*
X147460000Y-73085200D01*
X147503878Y-73085200D01*
X147503888Y-73085200D01*
X147564451Y-73078689D01*
X147701454Y-73027589D01*
X147818511Y-72939961D01*
X147906139Y-72822904D01*
X147957239Y-72685901D01*
X147963750Y-72625338D01*
X147963750Y-71994662D01*
X147957239Y-71934099D01*
X147911128Y-71810471D01*
X147908441Y-71747798D01*
X147943106Y-71695515D01*
X148001881Y-71673593D01*
X148006228Y-71673500D01*
X149866150Y-71673500D01*
X149925810Y-71692885D01*
G37*
%TD.AperFunction*%
%TA.AperFunction,Conductor*%
G36*
X208241660Y-40126685D02*
G01*
X208278532Y-40177435D01*
X208283500Y-40208800D01*
X208283500Y-40846363D01*
X208303976Y-40922781D01*
X208303981Y-40922795D01*
X208336637Y-40979354D01*
X208343540Y-40991311D01*
X208343542Y-40991313D01*
X208343545Y-40991317D01*
X208399482Y-41047254D01*
X208399485Y-41047256D01*
X208399489Y-41047260D01*
X208427771Y-41063589D01*
X208468004Y-41086818D01*
X208468008Y-41086819D01*
X208468011Y-41086821D01*
X208468016Y-41086822D01*
X208468018Y-41086823D01*
X208544436Y-41107300D01*
X208544438Y-41107300D01*
X208623562Y-41107300D01*
X219456000Y-41107300D01*
X219515660Y-41126685D01*
X219552532Y-41177435D01*
X219557500Y-41208800D01*
X219557500Y-51361963D01*
X219577976Y-51438381D01*
X219577981Y-51438395D01*
X219610637Y-51494954D01*
X219617540Y-51506911D01*
X219617542Y-51506913D01*
X219617545Y-51506917D01*
X219673482Y-51562854D01*
X219673485Y-51562856D01*
X219673489Y-51562860D01*
X219701771Y-51579189D01*
X219742004Y-51602418D01*
X219742008Y-51602419D01*
X219742011Y-51602421D01*
X219742016Y-51602422D01*
X219742018Y-51602423D01*
X219818436Y-51622900D01*
X219818438Y-51622900D01*
X230729989Y-51622900D01*
X230789649Y-51642285D01*
X230826521Y-51693035D01*
X230831489Y-51724403D01*
X230830634Y-83491689D01*
X230829522Y-124823638D01*
X230829511Y-125218003D01*
X230810125Y-125277662D01*
X230759374Y-125314533D01*
X230728011Y-125319500D01*
X219816436Y-125319500D01*
X219740018Y-125339976D01*
X219740004Y-125339981D01*
X219671492Y-125379538D01*
X219671482Y-125379545D01*
X219615545Y-125435482D01*
X219615538Y-125435492D01*
X219575981Y-125504004D01*
X219575976Y-125504018D01*
X219555500Y-125580436D01*
X219555500Y-135733600D01*
X219536115Y-135793260D01*
X219485365Y-135830132D01*
X219454000Y-135835100D01*
X208542436Y-135835100D01*
X208466018Y-135855576D01*
X208466004Y-135855581D01*
X208397492Y-135895138D01*
X208397482Y-135895145D01*
X208341545Y-135951082D01*
X208341538Y-135951092D01*
X208301981Y-136019604D01*
X208301976Y-136019618D01*
X208281500Y-136096036D01*
X208281500Y-136733600D01*
X208262115Y-136793260D01*
X208211365Y-136830132D01*
X208180000Y-136835100D01*
X157112000Y-136835100D01*
X157052340Y-136815715D01*
X157015468Y-136764965D01*
X157010500Y-136733600D01*
X157010500Y-136096036D01*
X156990023Y-136019618D01*
X156990018Y-136019604D01*
X156966789Y-135979371D01*
X156950460Y-135951089D01*
X156950456Y-135951085D01*
X156950454Y-135951082D01*
X156894517Y-135895145D01*
X156894513Y-135895142D01*
X156894511Y-135895140D01*
X156882554Y-135888237D01*
X156825995Y-135855581D01*
X156825981Y-135855576D01*
X156749564Y-135835100D01*
X156749562Y-135835100D01*
X145838000Y-135835100D01*
X145778340Y-135815715D01*
X145741468Y-135764965D01*
X145736500Y-135733600D01*
X145736500Y-130965600D01*
X152769239Y-130965600D01*
X152788264Y-131268002D01*
X152788265Y-131268010D01*
X152845040Y-131565630D01*
X152845042Y-131565637D01*
X152938669Y-131853790D01*
X152938669Y-131853791D01*
X153067677Y-132127948D01*
X153067681Y-132127956D01*
X153230030Y-132383779D01*
X153309069Y-132479320D01*
X154243328Y-131545060D01*
X154342967Y-131682202D01*
X154465398Y-131804633D01*
X154602538Y-131904270D01*
X153666113Y-132840695D01*
X153889169Y-133002755D01*
X153889175Y-133002759D01*
X154154692Y-133148729D01*
X154436406Y-133260268D01*
X154436421Y-133260273D01*
X154729895Y-133335624D01*
X155030507Y-133373600D01*
X155333493Y-133373600D01*
X155634104Y-133335624D01*
X155927578Y-133260273D01*
X155927593Y-133260268D01*
X156209307Y-133148729D01*
X156474823Y-133002759D01*
X156697884Y-132840694D01*
X155761461Y-131904270D01*
X155898602Y-131804633D01*
X156021033Y-131682202D01*
X156120670Y-131545061D01*
X157054929Y-132479320D01*
X157054930Y-132479320D01*
X157133962Y-132383788D01*
X157133968Y-132383779D01*
X157296318Y-132127956D01*
X157296322Y-132127948D01*
X157425330Y-131853791D01*
X157425330Y-131853790D01*
X157518957Y-131565637D01*
X157518959Y-131565630D01*
X157575734Y-131268010D01*
X157575735Y-131268002D01*
X157594760Y-130965600D01*
X157575735Y-130663197D01*
X157575734Y-130663189D01*
X157518959Y-130365569D01*
X157518957Y-130365562D01*
X157425330Y-130077409D01*
X157425330Y-130077408D01*
X157296322Y-129803251D01*
X157296318Y-129803243D01*
X157133969Y-129547420D01*
X157054929Y-129451878D01*
X156120669Y-130386137D01*
X156021033Y-130248998D01*
X155898602Y-130126567D01*
X155761461Y-130026929D01*
X156697885Y-129090504D01*
X156697885Y-129090503D01*
X156474830Y-128928444D01*
X156474824Y-128928440D01*
X156209307Y-128782470D01*
X155927593Y-128670931D01*
X155927578Y-128670926D01*
X155634104Y-128595575D01*
X155333493Y-128557600D01*
X155030507Y-128557600D01*
X154729895Y-128595575D01*
X154436421Y-128670926D01*
X154436406Y-128670931D01*
X154154692Y-128782470D01*
X153889175Y-128928440D01*
X153889169Y-128928444D01*
X153666113Y-129090503D01*
X154602538Y-130026929D01*
X154465398Y-130126567D01*
X154342967Y-130248998D01*
X154243329Y-130386138D01*
X153309070Y-129451879D01*
X153309069Y-129451879D01*
X153230030Y-129547420D01*
X153067681Y-129803243D01*
X153067677Y-129803251D01*
X152938669Y-130077408D01*
X152938669Y-130077409D01*
X152845042Y-130365562D01*
X152845040Y-130365569D01*
X152788265Y-130663189D01*
X152788264Y-130663197D01*
X152769239Y-130965600D01*
X145736500Y-130965600D01*
X145736500Y-125580436D01*
X145716023Y-125504018D01*
X145716018Y-125504004D01*
X145692789Y-125463771D01*
X145676460Y-125435489D01*
X145676456Y-125435485D01*
X145676454Y-125435482D01*
X145620517Y-125379545D01*
X145620513Y-125379542D01*
X145620511Y-125379540D01*
X145608554Y-125372637D01*
X145551995Y-125339981D01*
X145551981Y-125339976D01*
X145475564Y-125319500D01*
X145475562Y-125319500D01*
X134564011Y-125319500D01*
X134504351Y-125300115D01*
X134467479Y-125249365D01*
X134462511Y-125217997D01*
X134462705Y-117999995D01*
X138886807Y-117999995D01*
X138886807Y-118000004D01*
X138905556Y-118274121D01*
X138905557Y-118274123D01*
X138905557Y-118274126D01*
X138905558Y-118274130D01*
X138923029Y-118358205D01*
X138961461Y-118543153D01*
X139053478Y-118802061D01*
X139053480Y-118802065D01*
X139166766Y-119020698D01*
X139179889Y-119046023D01*
X139338343Y-119270502D01*
X139525889Y-119471314D01*
X139525894Y-119471318D01*
X139525897Y-119471321D01*
X139687804Y-119603042D01*
X139739031Y-119644718D01*
X139973800Y-119787484D01*
X139973804Y-119787486D01*
X139973808Y-119787488D01*
X140053701Y-119822190D01*
X140225823Y-119896953D01*
X140225830Y-119896955D01*
X140225835Y-119896957D01*
X140490392Y-119971082D01*
X140490394Y-119971082D01*
X140490404Y-119971085D01*
X140762615Y-120008500D01*
X140762619Y-120008500D01*
X141037381Y-120008500D01*
X141037385Y-120008500D01*
X141309596Y-119971085D01*
X141309607Y-119971082D01*
X141574164Y-119896957D01*
X141574166Y-119896955D01*
X141574177Y-119896953D01*
X141826200Y-119787484D01*
X142060969Y-119644718D01*
X142274111Y-119471314D01*
X142461657Y-119270502D01*
X142620111Y-119046023D01*
X142746523Y-118802058D01*
X142782436Y-118701010D01*
X142820680Y-118651286D01*
X142878075Y-118633500D01*
X142995554Y-118633500D01*
X143055214Y-118652885D01*
X143067325Y-118663229D01*
X150186771Y-125782675D01*
X150215250Y-125838568D01*
X150216500Y-125854446D01*
X150216500Y-127573638D01*
X150223011Y-127634201D01*
X150274111Y-127771204D01*
X150361739Y-127888261D01*
X150478796Y-127975889D01*
X150615799Y-128026989D01*
X150676362Y-128033500D01*
X150676372Y-128033500D01*
X152473628Y-128033500D01*
X152473638Y-128033500D01*
X152534201Y-128026989D01*
X152671204Y-127975889D01*
X152788261Y-127888261D01*
X152875889Y-127771204D01*
X152926989Y-127634201D01*
X152933500Y-127573638D01*
X152933500Y-126226362D01*
X182416500Y-126226362D01*
X182416500Y-128823638D01*
X182423011Y-128884201D01*
X182474111Y-129021204D01*
X182561739Y-129138261D01*
X182678796Y-129225889D01*
X182815799Y-129276989D01*
X182876362Y-129283500D01*
X182876372Y-129283500D01*
X184673628Y-129283500D01*
X184673638Y-129283500D01*
X184734201Y-129276989D01*
X184871204Y-129225889D01*
X184988261Y-129138261D01*
X185075889Y-129021204D01*
X185126989Y-128884201D01*
X185133500Y-128823638D01*
X185133500Y-128260000D01*
X185152885Y-128200340D01*
X185203635Y-128163468D01*
X185235000Y-128158500D01*
X185320554Y-128158500D01*
X185380214Y-128177885D01*
X185392325Y-128188229D01*
X186751661Y-129547565D01*
X186780140Y-129603458D01*
X186770327Y-129665416D01*
X186770011Y-129666031D01*
X186753480Y-129697935D01*
X186753476Y-129697943D01*
X186661461Y-129956846D01*
X186605557Y-130225876D01*
X186605556Y-130225878D01*
X186586807Y-130499995D01*
X186586807Y-130500004D01*
X186605556Y-130774121D01*
X186605557Y-130774123D01*
X186661461Y-131043153D01*
X186753478Y-131302061D01*
X186753480Y-131302065D01*
X186765266Y-131324810D01*
X186879889Y-131546023D01*
X187038343Y-131770502D01*
X187225889Y-131971314D01*
X187225894Y-131971318D01*
X187225897Y-131971321D01*
X187308489Y-132038514D01*
X187439031Y-132144718D01*
X187673800Y-132287484D01*
X187673804Y-132287486D01*
X187673808Y-132287488D01*
X187753701Y-132322190D01*
X187925823Y-132396953D01*
X187925830Y-132396955D01*
X187925835Y-132396957D01*
X188190392Y-132471082D01*
X188190394Y-132471082D01*
X188190404Y-132471085D01*
X188462615Y-132508500D01*
X188462619Y-132508500D01*
X188737381Y-132508500D01*
X188737385Y-132508500D01*
X189009596Y-132471085D01*
X189009607Y-132471082D01*
X189274164Y-132396957D01*
X189274166Y-132396955D01*
X189274177Y-132396953D01*
X189526200Y-132287484D01*
X189760969Y-132144718D01*
X189974111Y-131971314D01*
X190161657Y-131770502D01*
X190320111Y-131546023D01*
X190446523Y-131302058D01*
X190538538Y-131043153D01*
X190554654Y-130965600D01*
X209443239Y-130965600D01*
X209462264Y-131268002D01*
X209462265Y-131268010D01*
X209519040Y-131565630D01*
X209519042Y-131565637D01*
X209612669Y-131853790D01*
X209612669Y-131853791D01*
X209741677Y-132127948D01*
X209741681Y-132127956D01*
X209904030Y-132383779D01*
X209983069Y-132479320D01*
X210917328Y-131545060D01*
X211016967Y-131682202D01*
X211139398Y-131804633D01*
X211276538Y-131904270D01*
X210340113Y-132840695D01*
X210563169Y-133002755D01*
X210563175Y-133002759D01*
X210828692Y-133148729D01*
X211110406Y-133260268D01*
X211110421Y-133260273D01*
X211403895Y-133335624D01*
X211704507Y-133373600D01*
X212007493Y-133373600D01*
X212308104Y-133335624D01*
X212601578Y-133260273D01*
X212601593Y-133260268D01*
X212883307Y-133148729D01*
X213148823Y-133002759D01*
X213371884Y-132840694D01*
X212435461Y-131904270D01*
X212572602Y-131804633D01*
X212695033Y-131682202D01*
X212794670Y-131545061D01*
X213728929Y-132479320D01*
X213728930Y-132479320D01*
X213807962Y-132383788D01*
X213807968Y-132383779D01*
X213970318Y-132127956D01*
X213970322Y-132127948D01*
X214099330Y-131853791D01*
X214099330Y-131853790D01*
X214192957Y-131565637D01*
X214192959Y-131565630D01*
X214249734Y-131268010D01*
X214249735Y-131268002D01*
X214268760Y-130965600D01*
X214249735Y-130663197D01*
X214249734Y-130663189D01*
X214192959Y-130365569D01*
X214192957Y-130365562D01*
X214099330Y-130077409D01*
X214099330Y-130077408D01*
X213970322Y-129803251D01*
X213970318Y-129803243D01*
X213807969Y-129547420D01*
X213728929Y-129451878D01*
X212794669Y-130386137D01*
X212695033Y-130248998D01*
X212572602Y-130126567D01*
X212435461Y-130026929D01*
X213371885Y-129090504D01*
X213371885Y-129090503D01*
X213148830Y-128928444D01*
X213148824Y-128928440D01*
X212883307Y-128782470D01*
X212601593Y-128670931D01*
X212601578Y-128670926D01*
X212308104Y-128595575D01*
X212007493Y-128557600D01*
X211704507Y-128557600D01*
X211403895Y-128595575D01*
X211110421Y-128670926D01*
X211110406Y-128670931D01*
X210828692Y-128782470D01*
X210563175Y-128928440D01*
X210563169Y-128928444D01*
X210340113Y-129090503D01*
X211276538Y-130026929D01*
X211139398Y-130126567D01*
X211016967Y-130248998D01*
X210917329Y-130386138D01*
X209983070Y-129451879D01*
X209983069Y-129451879D01*
X209904030Y-129547420D01*
X209741681Y-129803243D01*
X209741677Y-129803251D01*
X209612669Y-130077408D01*
X209612669Y-130077409D01*
X209519042Y-130365562D01*
X209519040Y-130365569D01*
X209462265Y-130663189D01*
X209462264Y-130663197D01*
X209443239Y-130965600D01*
X190554654Y-130965600D01*
X190594442Y-130774130D01*
X190598965Y-130708016D01*
X190613193Y-130500004D01*
X190613193Y-130499995D01*
X190594443Y-130225878D01*
X190594442Y-130225876D01*
X190594442Y-130225870D01*
X190538538Y-129956847D01*
X190534750Y-129946190D01*
X190446522Y-129697940D01*
X190445534Y-129696034D01*
X190429988Y-129666032D01*
X190419752Y-129604144D01*
X190447848Y-129548058D01*
X190448171Y-129547732D01*
X192857676Y-127138229D01*
X192913569Y-127109750D01*
X192929447Y-127108500D01*
X216487394Y-127108500D01*
X216609785Y-127084155D01*
X216725075Y-127036400D01*
X216828833Y-126967071D01*
X223349090Y-120446813D01*
X223404981Y-120418336D01*
X223461295Y-120425488D01*
X223625823Y-120496953D01*
X223625831Y-120496955D01*
X223625835Y-120496957D01*
X223890392Y-120571082D01*
X223890394Y-120571082D01*
X223890404Y-120571085D01*
X224162615Y-120608500D01*
X224162619Y-120608500D01*
X224437381Y-120608500D01*
X224437385Y-120608500D01*
X224709596Y-120571085D01*
X224709607Y-120571082D01*
X224974164Y-120496957D01*
X224974166Y-120496955D01*
X224974177Y-120496953D01*
X225226200Y-120387484D01*
X225460969Y-120244718D01*
X225674111Y-120071314D01*
X225861657Y-119870502D01*
X226020111Y-119646023D01*
X226146523Y-119402058D01*
X226238538Y-119143153D01*
X226294442Y-118874130D01*
X226299372Y-118802065D01*
X226313193Y-118600004D01*
X226313193Y-118599995D01*
X226294443Y-118325878D01*
X226294442Y-118325876D01*
X226294442Y-118325870D01*
X226238538Y-118056847D01*
X226146523Y-117797942D01*
X226129989Y-117766032D01*
X226119752Y-117704142D01*
X226147849Y-117648056D01*
X226148170Y-117647732D01*
X227932675Y-115863229D01*
X227988568Y-115834750D01*
X228004446Y-115833500D01*
X229748628Y-115833500D01*
X229748638Y-115833500D01*
X229809201Y-115826989D01*
X229946204Y-115775889D01*
X230063261Y-115688261D01*
X230150889Y-115571204D01*
X230201989Y-115434201D01*
X230208500Y-115373638D01*
X230208500Y-112776362D01*
X230201989Y-112715799D01*
X230150889Y-112578796D01*
X230063261Y-112461739D01*
X229946204Y-112374111D01*
X229809201Y-112323011D01*
X229748638Y-112316500D01*
X227951362Y-112316500D01*
X227951361Y-112316500D01*
X227890799Y-112323011D01*
X227890795Y-112323012D01*
X227753798Y-112374110D01*
X227753797Y-112374110D01*
X227753796Y-112374111D01*
X227636739Y-112461739D01*
X227549110Y-112578798D01*
X227498012Y-112715795D01*
X227498011Y-112715799D01*
X227491500Y-112776361D01*
X227491500Y-114470553D01*
X227472115Y-114530213D01*
X227461771Y-114542324D01*
X225250910Y-116753184D01*
X225195017Y-116781663D01*
X225138702Y-116774510D01*
X225035073Y-116729498D01*
X224974177Y-116703047D01*
X224974173Y-116703045D01*
X224974164Y-116703042D01*
X224709607Y-116628917D01*
X224709599Y-116628915D01*
X224709596Y-116628915D01*
X224497202Y-116599721D01*
X224437386Y-116591500D01*
X224437385Y-116591500D01*
X224162615Y-116591500D01*
X224162613Y-116591500D01*
X224064531Y-116604981D01*
X223890404Y-116628915D01*
X223890400Y-116628915D01*
X223890393Y-116628917D01*
X223890392Y-116628917D01*
X223625835Y-116703042D01*
X223625821Y-116703048D01*
X223373808Y-116812511D01*
X223373800Y-116812516D01*
X223139031Y-116955282D01*
X223139029Y-116955283D01*
X223139025Y-116955286D01*
X222925897Y-117128678D01*
X222925888Y-117128687D01*
X222738343Y-117329497D01*
X222738341Y-117329501D01*
X222579887Y-117553980D01*
X222453480Y-117797934D01*
X222453478Y-117797938D01*
X222361461Y-118056846D01*
X222305557Y-118325876D01*
X222305556Y-118325878D01*
X222286807Y-118599995D01*
X222286807Y-118600004D01*
X222305556Y-118874121D01*
X222305557Y-118874123D01*
X222361461Y-119143153D01*
X222453478Y-119402060D01*
X222470010Y-119433966D01*
X222480245Y-119495856D01*
X222452148Y-119551942D01*
X222451660Y-119552433D01*
X216192325Y-125811771D01*
X216136432Y-125840250D01*
X216120554Y-125841500D01*
X192562605Y-125841500D01*
X192440213Y-125865845D01*
X192440211Y-125865846D01*
X192427369Y-125871166D01*
X192427367Y-125871167D01*
X192324925Y-125913598D01*
X192221168Y-125982927D01*
X192221163Y-125982931D01*
X189550910Y-128653184D01*
X189495017Y-128681663D01*
X189438702Y-128674510D01*
X189371099Y-128645146D01*
X189274177Y-128603047D01*
X189274173Y-128603045D01*
X189274164Y-128603042D01*
X189009607Y-128528917D01*
X189009599Y-128528915D01*
X189009596Y-128528915D01*
X188797202Y-128499721D01*
X188737386Y-128491500D01*
X188737385Y-128491500D01*
X188462615Y-128491500D01*
X188462613Y-128491500D01*
X188364531Y-128504981D01*
X188190404Y-128528915D01*
X188190400Y-128528915D01*
X188190393Y-128528917D01*
X188190392Y-128528917D01*
X187925835Y-128603042D01*
X187925820Y-128603048D01*
X187761296Y-128674510D01*
X187698852Y-128680499D01*
X187649088Y-128653184D01*
X186028836Y-127032932D01*
X186028833Y-127032929D01*
X185925075Y-126963600D01*
X185925072Y-126963599D01*
X185925069Y-126963597D01*
X185809792Y-126915847D01*
X185809786Y-126915845D01*
X185687394Y-126891500D01*
X185235000Y-126891500D01*
X185175340Y-126872115D01*
X185138468Y-126821365D01*
X185133500Y-126790000D01*
X185133500Y-126226371D01*
X185133500Y-126226362D01*
X185126989Y-126165799D01*
X185075889Y-126028796D01*
X184988261Y-125911739D01*
X184871204Y-125824111D01*
X184734201Y-125773011D01*
X184673638Y-125766500D01*
X182876362Y-125766500D01*
X182876361Y-125766500D01*
X182815799Y-125773011D01*
X182815795Y-125773012D01*
X182678798Y-125824110D01*
X182678797Y-125824110D01*
X182678796Y-125824111D01*
X182561739Y-125911739D01*
X182474111Y-126028796D01*
X182423011Y-126165799D01*
X182416500Y-126226362D01*
X152933500Y-126226362D01*
X152933500Y-125854446D01*
X152952885Y-125794786D01*
X152963229Y-125782675D01*
X154557675Y-124188229D01*
X154613568Y-124159750D01*
X154629446Y-124158500D01*
X182315000Y-124158500D01*
X182374660Y-124177885D01*
X182411532Y-124228635D01*
X182416500Y-124260000D01*
X182416500Y-124823638D01*
X182423011Y-124884201D01*
X182474111Y-125021204D01*
X182561739Y-125138261D01*
X182678796Y-125225889D01*
X182815799Y-125276989D01*
X182876362Y-125283500D01*
X182876372Y-125283500D01*
X184673628Y-125283500D01*
X184673638Y-125283500D01*
X184734201Y-125276989D01*
X184871204Y-125225889D01*
X184988261Y-125138261D01*
X185075889Y-125021204D01*
X185126989Y-124884201D01*
X185133500Y-124823638D01*
X185133500Y-124260000D01*
X185152885Y-124200340D01*
X185203635Y-124163468D01*
X185235000Y-124158500D01*
X186637394Y-124158500D01*
X186759785Y-124134155D01*
X186875075Y-124086400D01*
X186978833Y-124017071D01*
X187649090Y-123346812D01*
X187704981Y-123318335D01*
X187761294Y-123325487D01*
X187925823Y-123396953D01*
X187925828Y-123396955D01*
X188190392Y-123471082D01*
X188190394Y-123471082D01*
X188190404Y-123471085D01*
X188462615Y-123508500D01*
X188462619Y-123508500D01*
X188737381Y-123508500D01*
X188737385Y-123508500D01*
X189009596Y-123471085D01*
X189009607Y-123471082D01*
X189274164Y-123396957D01*
X189274166Y-123396955D01*
X189274177Y-123396953D01*
X189526200Y-123287484D01*
X189760969Y-123144718D01*
X189974111Y-122971314D01*
X190161657Y-122770502D01*
X190320111Y-122546023D01*
X190446523Y-122302058D01*
X190538538Y-122043153D01*
X190594442Y-121774130D01*
X190594519Y-121773012D01*
X190613193Y-121500004D01*
X190613193Y-121499995D01*
X190594443Y-121225878D01*
X190594442Y-121225876D01*
X190594442Y-121225870D01*
X190538538Y-120956847D01*
X190446523Y-120697942D01*
X190320111Y-120453977D01*
X190161657Y-120229498D01*
X189974111Y-120028686D01*
X189974105Y-120028681D01*
X189974102Y-120028678D01*
X189760974Y-119855286D01*
X189760973Y-119855285D01*
X189760969Y-119855282D01*
X189526200Y-119712516D01*
X189526197Y-119712514D01*
X189526191Y-119712511D01*
X189360237Y-119640428D01*
X189274177Y-119603047D01*
X189274173Y-119603045D01*
X189274164Y-119603042D01*
X189009607Y-119528917D01*
X189009599Y-119528915D01*
X189009596Y-119528915D01*
X188769077Y-119495856D01*
X188737386Y-119491500D01*
X188737385Y-119491500D01*
X188462615Y-119491500D01*
X188462613Y-119491500D01*
X188364531Y-119504981D01*
X188190404Y-119528915D01*
X188190400Y-119528915D01*
X188190393Y-119528917D01*
X188190392Y-119528917D01*
X187925835Y-119603042D01*
X187925821Y-119603048D01*
X187673808Y-119712511D01*
X187673800Y-119712516D01*
X187439031Y-119855282D01*
X187439029Y-119855283D01*
X187439025Y-119855286D01*
X187225897Y-120028678D01*
X187225888Y-120028687D01*
X187038343Y-120229497D01*
X187038343Y-120229498D01*
X186884945Y-120446815D01*
X186879887Y-120453980D01*
X186753480Y-120697934D01*
X186753478Y-120697938D01*
X186661461Y-120956846D01*
X186605557Y-121225876D01*
X186605556Y-121225878D01*
X186586807Y-121499995D01*
X186586807Y-121500004D01*
X186605556Y-121774121D01*
X186605557Y-121774123D01*
X186605557Y-121774126D01*
X186605558Y-121774130D01*
X186622248Y-121854446D01*
X186661461Y-122043153D01*
X186753478Y-122302061D01*
X186753480Y-122302066D01*
X186770010Y-122333968D01*
X186780245Y-122395858D01*
X186752148Y-122451944D01*
X186751661Y-122452434D01*
X186342323Y-122861772D01*
X186286432Y-122890250D01*
X186270554Y-122891500D01*
X185235000Y-122891500D01*
X185175340Y-122872115D01*
X185138468Y-122821365D01*
X185133500Y-122790000D01*
X185133500Y-122226371D01*
X185133500Y-122226362D01*
X185126989Y-122165799D01*
X185075889Y-122028796D01*
X184988261Y-121911739D01*
X184871204Y-121824111D01*
X184737201Y-121774130D01*
X184734204Y-121773012D01*
X184734203Y-121773011D01*
X184734201Y-121773011D01*
X184673638Y-121766500D01*
X182876362Y-121766500D01*
X182876361Y-121766500D01*
X182815799Y-121773011D01*
X182815795Y-121773012D01*
X182678798Y-121824110D01*
X182678797Y-121824110D01*
X182678796Y-121824111D01*
X182561739Y-121911739D01*
X182474110Y-122028798D01*
X182423012Y-122165795D01*
X182423011Y-122165799D01*
X182416500Y-122226361D01*
X182416500Y-122790000D01*
X182397115Y-122849660D01*
X182346365Y-122886532D01*
X182315000Y-122891500D01*
X154262605Y-122891500D01*
X154140213Y-122915845D01*
X154140207Y-122915847D01*
X154024930Y-122963597D01*
X154024921Y-122963602D01*
X153921172Y-123032925D01*
X153921163Y-123032932D01*
X152965253Y-123988842D01*
X152913920Y-124014997D01*
X152914041Y-124023465D01*
X152888842Y-124065253D01*
X152467325Y-124486771D01*
X152411432Y-124515250D01*
X152395554Y-124516500D01*
X150754446Y-124516500D01*
X150694786Y-124497115D01*
X150682675Y-124486771D01*
X150261157Y-124065253D01*
X150235001Y-124013920D01*
X150226533Y-124014041D01*
X150184746Y-123988842D01*
X143703836Y-117507932D01*
X143703833Y-117507929D01*
X143600075Y-117438600D01*
X143600072Y-117438599D01*
X143600069Y-117438597D01*
X143484792Y-117390847D01*
X143484786Y-117390845D01*
X143362394Y-117366500D01*
X142878075Y-117366500D01*
X142818415Y-117347115D01*
X142782436Y-117298990D01*
X142746525Y-117197947D01*
X142746520Y-117197935D01*
X142620787Y-116955282D01*
X142620111Y-116953977D01*
X142461657Y-116729498D01*
X142274111Y-116528686D01*
X142274105Y-116528681D01*
X142274102Y-116528678D01*
X142060974Y-116355286D01*
X142060973Y-116355285D01*
X142060969Y-116355282D01*
X141826200Y-116212516D01*
X141826197Y-116212514D01*
X141826191Y-116212511D01*
X141660237Y-116140428D01*
X141574177Y-116103047D01*
X141574173Y-116103045D01*
X141574164Y-116103042D01*
X141309607Y-116028917D01*
X141309599Y-116028915D01*
X141309596Y-116028915D01*
X141097202Y-115999721D01*
X141037386Y-115991500D01*
X141037385Y-115991500D01*
X140762615Y-115991500D01*
X140762613Y-115991500D01*
X140664531Y-116004981D01*
X140490404Y-116028915D01*
X140490400Y-116028915D01*
X140490393Y-116028917D01*
X140490392Y-116028917D01*
X140225835Y-116103042D01*
X140225821Y-116103048D01*
X139973808Y-116212511D01*
X139973800Y-116212516D01*
X139739031Y-116355282D01*
X139739029Y-116355283D01*
X139739025Y-116355286D01*
X139525897Y-116528678D01*
X139525888Y-116528687D01*
X139338343Y-116729497D01*
X139338341Y-116729501D01*
X139179887Y-116953980D01*
X139053480Y-117197934D01*
X139053478Y-117197938D01*
X138961461Y-117456846D01*
X138905557Y-117725876D01*
X138905556Y-117725878D01*
X138886807Y-117999995D01*
X134462705Y-117999995D01*
X134463488Y-88926362D01*
X136591500Y-88926362D01*
X136591500Y-90723638D01*
X136598011Y-90784201D01*
X136649111Y-90921204D01*
X136736739Y-91038261D01*
X136853796Y-91125889D01*
X136990799Y-91176989D01*
X137051362Y-91183500D01*
X137615000Y-91183500D01*
X137674660Y-91202885D01*
X137711532Y-91253635D01*
X137716500Y-91285000D01*
X137716500Y-106512394D01*
X137740845Y-106634786D01*
X137740847Y-106634792D01*
X137788597Y-106750069D01*
X137788599Y-106750072D01*
X137788600Y-106750075D01*
X137857929Y-106853833D01*
X137857932Y-106853836D01*
X148051660Y-117047565D01*
X148080139Y-117103458D01*
X148070326Y-117165416D01*
X148070011Y-117166030D01*
X148053478Y-117197938D01*
X147961461Y-117456846D01*
X147905557Y-117725876D01*
X147905556Y-117725878D01*
X147886807Y-117999995D01*
X147886807Y-118000004D01*
X147905556Y-118274121D01*
X147905557Y-118274123D01*
X147905557Y-118274126D01*
X147905558Y-118274130D01*
X147923029Y-118358205D01*
X147961461Y-118543153D01*
X148053478Y-118802061D01*
X148053480Y-118802065D01*
X148166766Y-119020698D01*
X148179889Y-119046023D01*
X148338343Y-119270502D01*
X148525889Y-119471314D01*
X148525894Y-119471318D01*
X148525897Y-119471321D01*
X148687804Y-119603042D01*
X148739031Y-119644718D01*
X148973800Y-119787484D01*
X148973804Y-119787486D01*
X148973808Y-119787488D01*
X149048031Y-119819727D01*
X149205439Y-119888099D01*
X149252435Y-119929645D01*
X149266500Y-119981194D01*
X149266500Y-120662394D01*
X149290845Y-120784786D01*
X149290847Y-120784792D01*
X149338597Y-120900069D01*
X149338599Y-120900072D01*
X149338600Y-120900075D01*
X149407929Y-121003833D01*
X149407932Y-121003836D01*
X150186771Y-121782675D01*
X150215250Y-121838568D01*
X150216500Y-121854446D01*
X150216500Y-123573638D01*
X150223011Y-123634201D01*
X150274111Y-123771204D01*
X150337772Y-123856245D01*
X150350641Y-123894007D01*
X150393752Y-123912225D01*
X150478796Y-123975889D01*
X150615799Y-124026989D01*
X150676362Y-124033500D01*
X150676372Y-124033500D01*
X152473628Y-124033500D01*
X152473638Y-124033500D01*
X152534201Y-124026989D01*
X152671204Y-123975889D01*
X152756245Y-123912227D01*
X152794007Y-123899357D01*
X152812227Y-123856246D01*
X152875889Y-123771204D01*
X152926989Y-123634201D01*
X152933500Y-123573638D01*
X152933500Y-120976362D01*
X152926989Y-120915799D01*
X152875889Y-120778796D01*
X152788261Y-120661739D01*
X152671204Y-120574111D01*
X152534201Y-120523011D01*
X152473638Y-120516500D01*
X150754447Y-120516500D01*
X150694787Y-120497115D01*
X150682675Y-120486771D01*
X150563228Y-120367323D01*
X150534750Y-120311430D01*
X150533500Y-120295552D01*
X150533500Y-119981194D01*
X150552885Y-119921534D01*
X150594559Y-119888099D01*
X150826200Y-119787484D01*
X151060969Y-119644718D01*
X151274111Y-119471314D01*
X151461657Y-119270502D01*
X151620111Y-119046023D01*
X151746523Y-118802058D01*
X151818336Y-118599995D01*
X213286807Y-118599995D01*
X213286807Y-118600004D01*
X213305556Y-118874121D01*
X213305557Y-118874123D01*
X213361461Y-119143153D01*
X213453478Y-119402061D01*
X213453480Y-119402065D01*
X213519210Y-119528917D01*
X213579889Y-119646023D01*
X213738343Y-119870502D01*
X213925889Y-120071314D01*
X213925894Y-120071318D01*
X213925897Y-120071321D01*
X214097585Y-120210999D01*
X214139031Y-120244718D01*
X214373800Y-120387484D01*
X214373804Y-120387486D01*
X214373808Y-120387488D01*
X214444828Y-120418336D01*
X214625823Y-120496953D01*
X214625830Y-120496955D01*
X214625835Y-120496957D01*
X214890392Y-120571082D01*
X214890394Y-120571082D01*
X214890404Y-120571085D01*
X215162615Y-120608500D01*
X215162619Y-120608500D01*
X215437381Y-120608500D01*
X215437385Y-120608500D01*
X215709596Y-120571085D01*
X215709607Y-120571082D01*
X215974164Y-120496957D01*
X215974166Y-120496955D01*
X215974177Y-120496953D01*
X216226200Y-120387484D01*
X216460969Y-120244718D01*
X216674111Y-120071314D01*
X216861657Y-119870502D01*
X217020111Y-119646023D01*
X217146523Y-119402058D01*
X217182436Y-119301010D01*
X217220680Y-119251286D01*
X217278075Y-119233500D01*
X220087394Y-119233500D01*
X220209785Y-119209155D01*
X220325075Y-119161400D01*
X220428833Y-119092071D01*
X227701277Y-111819626D01*
X227757168Y-111791149D01*
X227808516Y-111796298D01*
X227890799Y-111826989D01*
X227951362Y-111833500D01*
X227951372Y-111833500D01*
X229748628Y-111833500D01*
X229748638Y-111833500D01*
X229809201Y-111826989D01*
X229946204Y-111775889D01*
X230063261Y-111688261D01*
X230150889Y-111571204D01*
X230201989Y-111434201D01*
X230208500Y-111373638D01*
X230208500Y-108776362D01*
X230201989Y-108715799D01*
X230150889Y-108578796D01*
X230063261Y-108461739D01*
X229946204Y-108374111D01*
X229809201Y-108323011D01*
X229748638Y-108316500D01*
X229585000Y-108316500D01*
X229525340Y-108297115D01*
X229488468Y-108246365D01*
X229483500Y-108215000D01*
X229483500Y-85587605D01*
X229465037Y-85494785D01*
X229459155Y-85465215D01*
X229445168Y-85431447D01*
X229411401Y-85349925D01*
X229357862Y-85269798D01*
X229342707Y-85233210D01*
X229334155Y-85190215D01*
X229333074Y-85187606D01*
X229286402Y-85074930D01*
X229286400Y-85074925D01*
X229217071Y-84971167D01*
X229128833Y-84882929D01*
X226953833Y-82707929D01*
X226850075Y-82638600D01*
X226850072Y-82638599D01*
X226850069Y-82638597D01*
X226734792Y-82590847D01*
X226734786Y-82590845D01*
X226612394Y-82566500D01*
X226278075Y-82566500D01*
X226218415Y-82547115D01*
X226182436Y-82498990D01*
X226146525Y-82397947D01*
X226146520Y-82397935D01*
X226129989Y-82366032D01*
X226119752Y-82304142D01*
X226147849Y-82248056D01*
X226148163Y-82247739D01*
X226782675Y-81613229D01*
X226838568Y-81584750D01*
X226854446Y-81583500D01*
X228023628Y-81583500D01*
X228023638Y-81583500D01*
X228084201Y-81576989D01*
X228221204Y-81525889D01*
X228338261Y-81438261D01*
X228425889Y-81321204D01*
X228476989Y-81184201D01*
X228483500Y-81123638D01*
X228483500Y-78526362D01*
X228476989Y-78465799D01*
X228425889Y-78328796D01*
X228338261Y-78211739D01*
X228221204Y-78124111D01*
X228084201Y-78073011D01*
X228023638Y-78066500D01*
X226226362Y-78066500D01*
X226226361Y-78066500D01*
X226165799Y-78073011D01*
X226165795Y-78073012D01*
X226028798Y-78124110D01*
X226028797Y-78124110D01*
X226028796Y-78124111D01*
X225911739Y-78211739D01*
X225873661Y-78262606D01*
X225824110Y-78328798D01*
X225773012Y-78465795D01*
X225773011Y-78465799D01*
X225766500Y-78526361D01*
X225766500Y-80795553D01*
X225747115Y-80855213D01*
X225736771Y-80867324D01*
X225250910Y-81353184D01*
X225195017Y-81381663D01*
X225138702Y-81374510D01*
X225039003Y-81331205D01*
X224974177Y-81303047D01*
X224974173Y-81303045D01*
X224974164Y-81303042D01*
X224709607Y-81228917D01*
X224709599Y-81228915D01*
X224709596Y-81228915D01*
X224497202Y-81199721D01*
X224437386Y-81191500D01*
X224437385Y-81191500D01*
X224162615Y-81191500D01*
X224162613Y-81191500D01*
X224064531Y-81204981D01*
X223890404Y-81228915D01*
X223890400Y-81228915D01*
X223890393Y-81228917D01*
X223890392Y-81228917D01*
X223625835Y-81303042D01*
X223625823Y-81303046D01*
X223625823Y-81303047D01*
X223605847Y-81311723D01*
X223373808Y-81412511D01*
X223373800Y-81412516D01*
X223139031Y-81555282D01*
X223139029Y-81555283D01*
X223139025Y-81555286D01*
X222925897Y-81728678D01*
X222925888Y-81728687D01*
X222738343Y-81929497D01*
X222738343Y-81929498D01*
X222709930Y-81969751D01*
X222579887Y-82153980D01*
X222453480Y-82397934D01*
X222453478Y-82397938D01*
X222361461Y-82656846D01*
X222305557Y-82925876D01*
X222305556Y-82925878D01*
X222286807Y-83199995D01*
X222286807Y-83200004D01*
X222305556Y-83474121D01*
X222305557Y-83474123D01*
X222361461Y-83743153D01*
X222453478Y-84002061D01*
X222453480Y-84002065D01*
X222541177Y-84171312D01*
X222579889Y-84246023D01*
X222738343Y-84470502D01*
X222925889Y-84671314D01*
X222925894Y-84671318D01*
X222925897Y-84671321D01*
X223032353Y-84757929D01*
X223139031Y-84844718D01*
X223373800Y-84987484D01*
X223373804Y-84987486D01*
X223373808Y-84987488D01*
X223425637Y-85010000D01*
X223625823Y-85096953D01*
X223625830Y-85096955D01*
X223625835Y-85096957D01*
X223890392Y-85171082D01*
X223890394Y-85171082D01*
X223890404Y-85171085D01*
X224162615Y-85208500D01*
X224162619Y-85208500D01*
X224437381Y-85208500D01*
X224437385Y-85208500D01*
X224709596Y-85171085D01*
X224709607Y-85171082D01*
X224974164Y-85096957D01*
X224974166Y-85096955D01*
X224974177Y-85096953D01*
X225226200Y-84987484D01*
X225460969Y-84844718D01*
X225674111Y-84671314D01*
X225861657Y-84470502D01*
X226020111Y-84246023D01*
X226146523Y-84002058D01*
X226173909Y-83925001D01*
X226212151Y-83875279D01*
X226272319Y-83857531D01*
X226331427Y-83878537D01*
X226341318Y-83887222D01*
X228082144Y-85628048D01*
X228109922Y-85680015D01*
X228115843Y-85709782D01*
X228115845Y-85709787D01*
X228163600Y-85825076D01*
X228199394Y-85878645D01*
X228216500Y-85935035D01*
X228216500Y-108215000D01*
X228197115Y-108274660D01*
X228146365Y-108311532D01*
X228115000Y-108316500D01*
X227951361Y-108316500D01*
X227890799Y-108323011D01*
X227890795Y-108323012D01*
X227753798Y-108374110D01*
X227753797Y-108374110D01*
X227753796Y-108374111D01*
X227636739Y-108461739D01*
X227549110Y-108578798D01*
X227498012Y-108715795D01*
X227498011Y-108715799D01*
X227491500Y-108776361D01*
X227491500Y-110195553D01*
X227472115Y-110255213D01*
X227461771Y-110267324D01*
X219792325Y-117936771D01*
X219736432Y-117965250D01*
X219720554Y-117966500D01*
X217278075Y-117966500D01*
X217218415Y-117947115D01*
X217182436Y-117898990D01*
X217146525Y-117797947D01*
X217146520Y-117797935D01*
X217068604Y-117647564D01*
X217020111Y-117553977D01*
X216861657Y-117329498D01*
X216674111Y-117128686D01*
X216674105Y-117128681D01*
X216674102Y-117128678D01*
X216460974Y-116955286D01*
X216460973Y-116955285D01*
X216460969Y-116955282D01*
X216226200Y-116812516D01*
X216226197Y-116812514D01*
X216226191Y-116812511D01*
X216035071Y-116729497D01*
X215974177Y-116703047D01*
X215974173Y-116703045D01*
X215974164Y-116703042D01*
X215709607Y-116628917D01*
X215709599Y-116628915D01*
X215709596Y-116628915D01*
X215497202Y-116599721D01*
X215437386Y-116591500D01*
X215437385Y-116591500D01*
X215162615Y-116591500D01*
X215162613Y-116591500D01*
X215064531Y-116604981D01*
X214890404Y-116628915D01*
X214890400Y-116628915D01*
X214890393Y-116628917D01*
X214890392Y-116628917D01*
X214625835Y-116703042D01*
X214625821Y-116703048D01*
X214373808Y-116812511D01*
X214373800Y-116812516D01*
X214139031Y-116955282D01*
X214139029Y-116955283D01*
X214139025Y-116955286D01*
X213925897Y-117128678D01*
X213925888Y-117128687D01*
X213738343Y-117329497D01*
X213738341Y-117329501D01*
X213579887Y-117553980D01*
X213453480Y-117797934D01*
X213453478Y-117797938D01*
X213361461Y-118056846D01*
X213305557Y-118325876D01*
X213305556Y-118325878D01*
X213286807Y-118599995D01*
X151818336Y-118599995D01*
X151838538Y-118543153D01*
X151894442Y-118274130D01*
X151913193Y-118000000D01*
X151906284Y-117898990D01*
X151894443Y-117725878D01*
X151894442Y-117725876D01*
X151894442Y-117725870D01*
X151838538Y-117456847D01*
X151746523Y-117197942D01*
X151729669Y-117165416D01*
X151710633Y-117128678D01*
X151620111Y-116953977D01*
X151461657Y-116729498D01*
X151274111Y-116528686D01*
X151274105Y-116528681D01*
X151274102Y-116528678D01*
X151060974Y-116355286D01*
X151060973Y-116355285D01*
X151060969Y-116355282D01*
X150826200Y-116212516D01*
X150826197Y-116212514D01*
X150826191Y-116212511D01*
X150660237Y-116140428D01*
X150574177Y-116103047D01*
X150574173Y-116103045D01*
X150574164Y-116103042D01*
X150309607Y-116028917D01*
X150309599Y-116028915D01*
X150309596Y-116028915D01*
X150097202Y-115999721D01*
X150037386Y-115991500D01*
X150037385Y-115991500D01*
X149762615Y-115991500D01*
X149762613Y-115991500D01*
X149664531Y-116004981D01*
X149490404Y-116028915D01*
X149490400Y-116028915D01*
X149490393Y-116028917D01*
X149490392Y-116028917D01*
X149225835Y-116103042D01*
X149225820Y-116103048D01*
X149061296Y-116174509D01*
X148998852Y-116180497D01*
X148949088Y-116153183D01*
X145195905Y-112400000D01*
X157087239Y-112400000D01*
X157106264Y-112702402D01*
X157106265Y-112702410D01*
X157163040Y-113000030D01*
X157163042Y-113000037D01*
X157256669Y-113288190D01*
X157256669Y-113288191D01*
X157385677Y-113562348D01*
X157385681Y-113562356D01*
X157548030Y-113818179D01*
X157627069Y-113913720D01*
X158561328Y-112979460D01*
X158660967Y-113116602D01*
X158783398Y-113239033D01*
X158920538Y-113338670D01*
X157984113Y-114275095D01*
X158207169Y-114437155D01*
X158207175Y-114437159D01*
X158472692Y-114583129D01*
X158754406Y-114694668D01*
X158754421Y-114694673D01*
X159047895Y-114770024D01*
X159348507Y-114808000D01*
X159651493Y-114808000D01*
X159952104Y-114770024D01*
X160245578Y-114694673D01*
X160245593Y-114694668D01*
X160527307Y-114583129D01*
X160792823Y-114437159D01*
X161015884Y-114275094D01*
X160079461Y-113338670D01*
X160216602Y-113239033D01*
X160339033Y-113116602D01*
X160438670Y-112979461D01*
X161372929Y-113913720D01*
X161372930Y-113913720D01*
X161451962Y-113818188D01*
X161451968Y-113818179D01*
X161614318Y-113562356D01*
X161614322Y-113562348D01*
X161743330Y-113288191D01*
X161743330Y-113288190D01*
X161836957Y-113000037D01*
X161836959Y-113000030D01*
X161893734Y-112702410D01*
X161893735Y-112702402D01*
X161912760Y-112400000D01*
X169587239Y-112400000D01*
X169606264Y-112702402D01*
X169606265Y-112702410D01*
X169663040Y-113000030D01*
X169663042Y-113000037D01*
X169756669Y-113288190D01*
X169756669Y-113288191D01*
X169885677Y-113562348D01*
X169885681Y-113562356D01*
X170048030Y-113818179D01*
X170127069Y-113913720D01*
X171061328Y-112979460D01*
X171160967Y-113116602D01*
X171283398Y-113239033D01*
X171420538Y-113338670D01*
X170484113Y-114275095D01*
X170707169Y-114437155D01*
X170707175Y-114437159D01*
X170972692Y-114583129D01*
X171254406Y-114694668D01*
X171254421Y-114694673D01*
X171547895Y-114770024D01*
X171848507Y-114808000D01*
X172151493Y-114808000D01*
X172452104Y-114770024D01*
X172745578Y-114694673D01*
X172745593Y-114694668D01*
X173027307Y-114583129D01*
X173292823Y-114437159D01*
X173515884Y-114275094D01*
X172579461Y-113338670D01*
X172716602Y-113239033D01*
X172839033Y-113116602D01*
X172938670Y-112979461D01*
X173872929Y-113913720D01*
X173872930Y-113913720D01*
X173951962Y-113818188D01*
X173951968Y-113818179D01*
X174114318Y-113562356D01*
X174114322Y-113562348D01*
X174243330Y-113288191D01*
X174243330Y-113288190D01*
X174336957Y-113000037D01*
X174336959Y-113000030D01*
X174393734Y-112702410D01*
X174393735Y-112702402D01*
X174412760Y-112400000D01*
X174393735Y-112097597D01*
X174393734Y-112097589D01*
X174336959Y-111799969D01*
X174336957Y-111799962D01*
X174243330Y-111511809D01*
X174243330Y-111511808D01*
X174114322Y-111237651D01*
X174114318Y-111237643D01*
X173951969Y-110981820D01*
X173872929Y-110886278D01*
X172938669Y-111820537D01*
X172839033Y-111683398D01*
X172716602Y-111560967D01*
X172579461Y-111461329D01*
X173515885Y-110524904D01*
X173515885Y-110524903D01*
X173292830Y-110362844D01*
X173292824Y-110362840D01*
X173027307Y-110216870D01*
X172745593Y-110105331D01*
X172745578Y-110105326D01*
X172452104Y-110029975D01*
X172151493Y-109992000D01*
X171848507Y-109992000D01*
X171547895Y-110029975D01*
X171254421Y-110105326D01*
X171254406Y-110105331D01*
X170972692Y-110216870D01*
X170707175Y-110362840D01*
X170707169Y-110362844D01*
X170484113Y-110524903D01*
X171420538Y-111461329D01*
X171283398Y-111560967D01*
X171160967Y-111683398D01*
X171061329Y-111820538D01*
X170127070Y-110886279D01*
X170127069Y-110886279D01*
X170048030Y-110981820D01*
X169885681Y-111237643D01*
X169885677Y-111237651D01*
X169756669Y-111511808D01*
X169756669Y-111511809D01*
X169663042Y-111799962D01*
X169663040Y-111799969D01*
X169606265Y-112097589D01*
X169606264Y-112097597D01*
X169587239Y-112400000D01*
X161912760Y-112400000D01*
X161893735Y-112097597D01*
X161893734Y-112097589D01*
X161836959Y-111799969D01*
X161836957Y-111799962D01*
X161743330Y-111511809D01*
X161743330Y-111511808D01*
X161614322Y-111237651D01*
X161614318Y-111237643D01*
X161451969Y-110981820D01*
X161372929Y-110886278D01*
X160438669Y-111820537D01*
X160339033Y-111683398D01*
X160216602Y-111560967D01*
X160079461Y-111461329D01*
X161015885Y-110524904D01*
X161015885Y-110524903D01*
X160792830Y-110362844D01*
X160792824Y-110362840D01*
X160527307Y-110216870D01*
X160245593Y-110105331D01*
X160245578Y-110105326D01*
X159952104Y-110029975D01*
X159651493Y-109992000D01*
X159348507Y-109992000D01*
X159047895Y-110029975D01*
X158754421Y-110105326D01*
X158754406Y-110105331D01*
X158472692Y-110216870D01*
X158207175Y-110362840D01*
X158207169Y-110362844D01*
X157984113Y-110524903D01*
X158920538Y-111461329D01*
X158783398Y-111560967D01*
X158660967Y-111683398D01*
X158561329Y-111820538D01*
X157627070Y-110886279D01*
X157627069Y-110886279D01*
X157548030Y-110981820D01*
X157385681Y-111237643D01*
X157385677Y-111237651D01*
X157256669Y-111511808D01*
X157256669Y-111511809D01*
X157163042Y-111799962D01*
X157163040Y-111799969D01*
X157106265Y-112097589D01*
X157106264Y-112097597D01*
X157087239Y-112400000D01*
X145195905Y-112400000D01*
X139013229Y-106217324D01*
X138984750Y-106161431D01*
X138983500Y-106145553D01*
X138983500Y-96010436D01*
X165699500Y-96010436D01*
X165699500Y-107989563D01*
X165719976Y-108065981D01*
X165719981Y-108065995D01*
X165752637Y-108122554D01*
X165759540Y-108134511D01*
X165759542Y-108134513D01*
X165759545Y-108134517D01*
X165815482Y-108190454D01*
X165815485Y-108190456D01*
X165815489Y-108190460D01*
X165843771Y-108206789D01*
X165884004Y-108230018D01*
X165884008Y-108230019D01*
X165884011Y-108230021D01*
X165884016Y-108230022D01*
X165884018Y-108230023D01*
X165960436Y-108250500D01*
X165960438Y-108250500D01*
X178039564Y-108250500D01*
X178099828Y-108234351D01*
X178115989Y-108230021D01*
X178115992Y-108230018D01*
X178115995Y-108230018D01*
X178142006Y-108215000D01*
X178184511Y-108190460D01*
X178240460Y-108134511D01*
X178280021Y-108065989D01*
X178300500Y-107989562D01*
X178300500Y-106584436D01*
X195643500Y-106584436D01*
X195643500Y-110473563D01*
X195663976Y-110549981D01*
X195663981Y-110549995D01*
X195696637Y-110606554D01*
X195703540Y-110618511D01*
X195703542Y-110618513D01*
X195703545Y-110618517D01*
X195759482Y-110674454D01*
X195759485Y-110674456D01*
X195759489Y-110674460D01*
X195787771Y-110690789D01*
X195828004Y-110714018D01*
X195828008Y-110714019D01*
X195828011Y-110714021D01*
X195828016Y-110714022D01*
X195828018Y-110714023D01*
X195904436Y-110734500D01*
X195904438Y-110734500D01*
X206143564Y-110734500D01*
X206203828Y-110718351D01*
X206219989Y-110714021D01*
X206219992Y-110714018D01*
X206219995Y-110714018D01*
X206237923Y-110703666D01*
X206288511Y-110674460D01*
X206344460Y-110618511D01*
X206384021Y-110549989D01*
X206404500Y-110473562D01*
X206404500Y-106691500D01*
X206423885Y-106631840D01*
X206474635Y-106594968D01*
X206503626Y-106590375D01*
X206503999Y-106590000D01*
X206504000Y-106590000D01*
X206454000Y-99850000D01*
X195786000Y-99850000D01*
X195785999Y-99850001D01*
X195796229Y-101229035D01*
X195777288Y-101288837D01*
X195766504Y-101301559D01*
X195708577Y-101359486D01*
X195708573Y-101359492D01*
X195669016Y-101428004D01*
X195669011Y-101428018D01*
X195648535Y-101504436D01*
X195648535Y-104123563D01*
X195669011Y-104199981D01*
X195669016Y-104199995D01*
X195701672Y-104256554D01*
X195708575Y-104268511D01*
X195708577Y-104268513D01*
X195708580Y-104268517D01*
X195764522Y-104324459D01*
X195764524Y-104324460D01*
X195769106Y-104327105D01*
X195811084Y-104373720D01*
X195819859Y-104414257D01*
X195833709Y-106281333D01*
X195814768Y-106341135D01*
X195782964Y-106369987D01*
X195759486Y-106383542D01*
X195759482Y-106383545D01*
X195703545Y-106439482D01*
X195703538Y-106439492D01*
X195663981Y-106508004D01*
X195663976Y-106508018D01*
X195643500Y-106584436D01*
X178300500Y-106584436D01*
X178300500Y-96010438D01*
X178300500Y-96010436D01*
X178289604Y-95969772D01*
X199769500Y-95969772D01*
X199769500Y-96190227D01*
X199803983Y-96407945D01*
X199803985Y-96407953D01*
X199872104Y-96617606D01*
X199872105Y-96617608D01*
X199972180Y-96814014D01*
X199972185Y-96814022D01*
X200101756Y-96992363D01*
X200101758Y-96992365D01*
X200257635Y-97148242D01*
X200435978Y-97277815D01*
X200435981Y-97277816D01*
X200435985Y-97277819D01*
X200632391Y-97377894D01*
X200632393Y-97377895D01*
X200826924Y-97441100D01*
X200842049Y-97446015D01*
X200842051Y-97446015D01*
X200842054Y-97446016D01*
X201017801Y-97473851D01*
X201059778Y-97480500D01*
X201059781Y-97480500D01*
X201280219Y-97480500D01*
X201280222Y-97480500D01*
X201497951Y-97446015D01*
X201707606Y-97377895D01*
X201904022Y-97277815D01*
X202082365Y-97148242D01*
X202238242Y-96992365D01*
X202367815Y-96814022D01*
X202467895Y-96617606D01*
X202536015Y-96407951D01*
X202570500Y-96190222D01*
X202570500Y-95969778D01*
X202545121Y-95809540D01*
X202536016Y-95752054D01*
X202536014Y-95752046D01*
X202467895Y-95542393D01*
X202467894Y-95542391D01*
X202367819Y-95345985D01*
X202367814Y-95345977D01*
X202238243Y-95167636D01*
X202082363Y-95011756D01*
X201904022Y-94882185D01*
X201904014Y-94882180D01*
X201707608Y-94782105D01*
X201707606Y-94782104D01*
X201497953Y-94713985D01*
X201497945Y-94713983D01*
X201280227Y-94679500D01*
X201280222Y-94679500D01*
X201059778Y-94679500D01*
X201059772Y-94679500D01*
X200842054Y-94713983D01*
X200842046Y-94713985D01*
X200632393Y-94782104D01*
X200632391Y-94782105D01*
X200435985Y-94882180D01*
X200435977Y-94882185D01*
X200257636Y-95011756D01*
X200101756Y-95167636D01*
X199972185Y-95345977D01*
X199972180Y-95345985D01*
X199872105Y-95542391D01*
X199872104Y-95542393D01*
X199803985Y-95752046D01*
X199803983Y-95752054D01*
X199769500Y-95969772D01*
X178289604Y-95969772D01*
X178280023Y-95934018D01*
X178280018Y-95934004D01*
X178256789Y-95893771D01*
X178240460Y-95865489D01*
X178240456Y-95865485D01*
X178240454Y-95865482D01*
X178184517Y-95809545D01*
X178184513Y-95809542D01*
X178184511Y-95809540D01*
X178172554Y-95802637D01*
X178115995Y-95769981D01*
X178115981Y-95769976D01*
X178039564Y-95749500D01*
X178039562Y-95749500D01*
X166039562Y-95749500D01*
X165960438Y-95749500D01*
X165960436Y-95749500D01*
X165884018Y-95769976D01*
X165884004Y-95769981D01*
X165815492Y-95809538D01*
X165815482Y-95809545D01*
X165759545Y-95865482D01*
X165759538Y-95865492D01*
X165719981Y-95934004D01*
X165719976Y-95934018D01*
X165699500Y-96010436D01*
X138983500Y-96010436D01*
X138983500Y-91600000D01*
X157087239Y-91600000D01*
X157106264Y-91902402D01*
X157106265Y-91902410D01*
X157163040Y-92200030D01*
X157163042Y-92200037D01*
X157256669Y-92488190D01*
X157256669Y-92488191D01*
X157385677Y-92762348D01*
X157385681Y-92762356D01*
X157548030Y-93018179D01*
X157627069Y-93113720D01*
X158561328Y-92179460D01*
X158660967Y-92316602D01*
X158783398Y-92439033D01*
X158920538Y-92538670D01*
X157984113Y-93475095D01*
X158207169Y-93637155D01*
X158207175Y-93637159D01*
X158472692Y-93783129D01*
X158754406Y-93894668D01*
X158754421Y-93894673D01*
X159047895Y-93970024D01*
X159348507Y-94008000D01*
X159651493Y-94008000D01*
X159952104Y-93970024D01*
X160245578Y-93894673D01*
X160245593Y-93894668D01*
X160527307Y-93783129D01*
X160792823Y-93637159D01*
X161015884Y-93475094D01*
X160079461Y-92538670D01*
X160216602Y-92439033D01*
X160339033Y-92316602D01*
X160438670Y-92179461D01*
X161372929Y-93113720D01*
X161372930Y-93113720D01*
X161451962Y-93018188D01*
X161451968Y-93018179D01*
X161614318Y-92762356D01*
X161614322Y-92762348D01*
X161743330Y-92488191D01*
X161743330Y-92488190D01*
X161836957Y-92200037D01*
X161836959Y-92200030D01*
X161893734Y-91902410D01*
X161893735Y-91902402D01*
X161912760Y-91600000D01*
X169587239Y-91600000D01*
X169606264Y-91902402D01*
X169606265Y-91902410D01*
X169663040Y-92200030D01*
X169663042Y-92200037D01*
X169756669Y-92488190D01*
X169756669Y-92488191D01*
X169885677Y-92762348D01*
X169885681Y-92762356D01*
X170048030Y-93018179D01*
X170127069Y-93113720D01*
X171061328Y-92179460D01*
X171160967Y-92316602D01*
X171283398Y-92439033D01*
X171420538Y-92538670D01*
X170484113Y-93475095D01*
X170707169Y-93637155D01*
X170707175Y-93637159D01*
X170972692Y-93783129D01*
X171254406Y-93894668D01*
X171254421Y-93894673D01*
X171547895Y-93970024D01*
X171848507Y-94008000D01*
X172151493Y-94008000D01*
X172452104Y-93970024D01*
X172745578Y-93894673D01*
X172745593Y-93894668D01*
X173027307Y-93783129D01*
X173292823Y-93637159D01*
X173515884Y-93475094D01*
X172579461Y-92538670D01*
X172716602Y-92439033D01*
X172839033Y-92316602D01*
X172938670Y-92179461D01*
X173872929Y-93113720D01*
X173872930Y-93113720D01*
X173951962Y-93018188D01*
X173951968Y-93018179D01*
X174114318Y-92762356D01*
X174114322Y-92762348D01*
X174243330Y-92488191D01*
X174243330Y-92488190D01*
X174336957Y-92200037D01*
X174336959Y-92200030D01*
X174393734Y-91902410D01*
X174393735Y-91902402D01*
X174412760Y-91600000D01*
X174393735Y-91297597D01*
X174393734Y-91297589D01*
X174336959Y-90999969D01*
X174336957Y-90999962D01*
X174317473Y-90939998D01*
X191621950Y-90939998D01*
X191621950Y-90940001D01*
X191642117Y-91196247D01*
X191702121Y-91446185D01*
X191800484Y-91683654D01*
X191800486Y-91683657D01*
X191934790Y-91902822D01*
X191936253Y-91904535D01*
X192504227Y-91336561D01*
X192506740Y-91342626D01*
X192599762Y-91481844D01*
X192718156Y-91600238D01*
X192857374Y-91693260D01*
X192863436Y-91695771D01*
X192295462Y-92263745D01*
X192297180Y-92265211D01*
X192516341Y-92399513D01*
X192516345Y-92399515D01*
X192753814Y-92497878D01*
X193003752Y-92557882D01*
X193003751Y-92557882D01*
X193259999Y-92578050D01*
X193260001Y-92578050D01*
X193516247Y-92557882D01*
X193766185Y-92497878D01*
X194003654Y-92399515D01*
X194003663Y-92399510D01*
X194222820Y-92265211D01*
X194224535Y-92263746D01*
X194224536Y-92263745D01*
X193656562Y-91695771D01*
X193662626Y-91693260D01*
X193801844Y-91600238D01*
X193920238Y-91481844D01*
X194013260Y-91342626D01*
X194015771Y-91336562D01*
X194583745Y-91904536D01*
X194583746Y-91904535D01*
X194585211Y-91902820D01*
X194719510Y-91683663D01*
X194719515Y-91683654D01*
X194817878Y-91446185D01*
X194877882Y-91196247D01*
X194898050Y-90940001D01*
X194898050Y-90939998D01*
X196701950Y-90939998D01*
X196701950Y-90940001D01*
X196722117Y-91196247D01*
X196782121Y-91446185D01*
X196880484Y-91683654D01*
X196880486Y-91683657D01*
X197014790Y-91902822D01*
X197016253Y-91904535D01*
X197584227Y-91336561D01*
X197586740Y-91342626D01*
X197679762Y-91481844D01*
X197798156Y-91600238D01*
X197937374Y-91693260D01*
X197943436Y-91695771D01*
X197375462Y-92263745D01*
X197377180Y-92265211D01*
X197596341Y-92399513D01*
X197596345Y-92399515D01*
X197833814Y-92497878D01*
X198083752Y-92557882D01*
X198083751Y-92557882D01*
X198339999Y-92578050D01*
X198340001Y-92578050D01*
X198596247Y-92557882D01*
X198846185Y-92497878D01*
X199083654Y-92399515D01*
X199083663Y-92399510D01*
X199302820Y-92265211D01*
X199304535Y-92263746D01*
X199304536Y-92263745D01*
X198736562Y-91695771D01*
X198742626Y-91693260D01*
X198881844Y-91600238D01*
X199000238Y-91481844D01*
X199093260Y-91342626D01*
X199095771Y-91336562D01*
X199663745Y-91904536D01*
X199663746Y-91904535D01*
X199665211Y-91902820D01*
X199799510Y-91683663D01*
X199799515Y-91683654D01*
X199897878Y-91446185D01*
X199957882Y-91196247D01*
X199978050Y-90940001D01*
X199978050Y-90939998D01*
X199957882Y-90683752D01*
X199897878Y-90433814D01*
X199799515Y-90196345D01*
X199799513Y-90196341D01*
X199665211Y-89977180D01*
X199663745Y-89975462D01*
X199095771Y-90543436D01*
X199093260Y-90537374D01*
X199000238Y-90398156D01*
X198881844Y-90279762D01*
X198742626Y-90186740D01*
X198736561Y-90184228D01*
X199304536Y-89616253D01*
X199302822Y-89614790D01*
X199083657Y-89480486D01*
X199083654Y-89480484D01*
X198846185Y-89382121D01*
X198596247Y-89322117D01*
X198596248Y-89322117D01*
X198340001Y-89301950D01*
X198339999Y-89301950D01*
X198083752Y-89322117D01*
X197833814Y-89382121D01*
X197596345Y-89480484D01*
X197596342Y-89480486D01*
X197377179Y-89614789D01*
X197377171Y-89614795D01*
X197375463Y-89616252D01*
X197375463Y-89616253D01*
X197943437Y-90184228D01*
X197937374Y-90186740D01*
X197798156Y-90279762D01*
X197679762Y-90398156D01*
X197586740Y-90537374D01*
X197584228Y-90543437D01*
X197016253Y-89975463D01*
X197016252Y-89975463D01*
X197014795Y-89977171D01*
X197014789Y-89977179D01*
X196880486Y-90196342D01*
X196880484Y-90196345D01*
X196782121Y-90433814D01*
X196722117Y-90683752D01*
X196701950Y-90939998D01*
X194898050Y-90939998D01*
X194877882Y-90683752D01*
X194817878Y-90433814D01*
X194719515Y-90196345D01*
X194719513Y-90196341D01*
X194585211Y-89977180D01*
X194583745Y-89975462D01*
X194015771Y-90543436D01*
X194013260Y-90537374D01*
X193920238Y-90398156D01*
X193801844Y-90279762D01*
X193662626Y-90186740D01*
X193656561Y-90184228D01*
X194224536Y-89616253D01*
X194222822Y-89614790D01*
X194003657Y-89480486D01*
X194003654Y-89480484D01*
X193766185Y-89382121D01*
X193516247Y-89322117D01*
X193516248Y-89322117D01*
X193260001Y-89301950D01*
X193259999Y-89301950D01*
X193003752Y-89322117D01*
X192753814Y-89382121D01*
X192516345Y-89480484D01*
X192516342Y-89480486D01*
X192297179Y-89614789D01*
X192297171Y-89614795D01*
X192295463Y-89616252D01*
X192295463Y-89616253D01*
X192863437Y-90184228D01*
X192857374Y-90186740D01*
X192718156Y-90279762D01*
X192599762Y-90398156D01*
X192506740Y-90537374D01*
X192504228Y-90543437D01*
X191936253Y-89975463D01*
X191936252Y-89975463D01*
X191934795Y-89977171D01*
X191934789Y-89977179D01*
X191800486Y-90196342D01*
X191800484Y-90196345D01*
X191702121Y-90433814D01*
X191642117Y-90683752D01*
X191621950Y-90939998D01*
X174317473Y-90939998D01*
X174243330Y-90711809D01*
X174243330Y-90711808D01*
X174114322Y-90437651D01*
X174114318Y-90437643D01*
X173951969Y-90181820D01*
X173872929Y-90086278D01*
X172938669Y-91020537D01*
X172839033Y-90883398D01*
X172716602Y-90760967D01*
X172579461Y-90661329D01*
X173515885Y-89724904D01*
X173515885Y-89724903D01*
X173292830Y-89562844D01*
X173292824Y-89562840D01*
X173027307Y-89416870D01*
X172745593Y-89305331D01*
X172745578Y-89305326D01*
X172452104Y-89229975D01*
X172151493Y-89192000D01*
X171848507Y-89192000D01*
X171547895Y-89229975D01*
X171254421Y-89305326D01*
X171254406Y-89305331D01*
X170972692Y-89416870D01*
X170707175Y-89562840D01*
X170707169Y-89562844D01*
X170484113Y-89724903D01*
X171420538Y-90661329D01*
X171283398Y-90760967D01*
X171160967Y-90883398D01*
X171061329Y-91020538D01*
X170127070Y-90086279D01*
X170127069Y-90086279D01*
X170048030Y-90181820D01*
X169885681Y-90437643D01*
X169885677Y-90437651D01*
X169756669Y-90711808D01*
X169756669Y-90711809D01*
X169663042Y-90999962D01*
X169663040Y-90999969D01*
X169606265Y-91297589D01*
X169606264Y-91297597D01*
X169587239Y-91600000D01*
X161912760Y-91600000D01*
X161893735Y-91297597D01*
X161893734Y-91297589D01*
X161836959Y-90999969D01*
X161836957Y-90999962D01*
X161743330Y-90711809D01*
X161743330Y-90711808D01*
X161614322Y-90437651D01*
X161614318Y-90437643D01*
X161451969Y-90181820D01*
X161372929Y-90086278D01*
X160438669Y-91020537D01*
X160339033Y-90883398D01*
X160216602Y-90760967D01*
X160079461Y-90661329D01*
X161015885Y-89724904D01*
X161015885Y-89724903D01*
X160792830Y-89562844D01*
X160792824Y-89562840D01*
X160527307Y-89416870D01*
X160245593Y-89305331D01*
X160245578Y-89305326D01*
X159952104Y-89229975D01*
X159651493Y-89192000D01*
X159348507Y-89192000D01*
X159047895Y-89229975D01*
X158754421Y-89305326D01*
X158754406Y-89305331D01*
X158472692Y-89416870D01*
X158207175Y-89562840D01*
X158207169Y-89562844D01*
X157984113Y-89724903D01*
X158920538Y-90661329D01*
X158783398Y-90760967D01*
X158660967Y-90883398D01*
X158561329Y-91020538D01*
X157627070Y-90086279D01*
X157627069Y-90086279D01*
X157548030Y-90181820D01*
X157385681Y-90437643D01*
X157385677Y-90437651D01*
X157256669Y-90711808D01*
X157256669Y-90711809D01*
X157163042Y-90999962D01*
X157163040Y-90999969D01*
X157106265Y-91297589D01*
X157106264Y-91297597D01*
X157087239Y-91600000D01*
X138983500Y-91600000D01*
X138983500Y-91285000D01*
X139002885Y-91225340D01*
X139053635Y-91188468D01*
X139085000Y-91183500D01*
X139648628Y-91183500D01*
X139648638Y-91183500D01*
X139709201Y-91176989D01*
X139846204Y-91125889D01*
X139963261Y-91038261D01*
X140050889Y-90921204D01*
X140101989Y-90784201D01*
X140108500Y-90723638D01*
X140108500Y-88926362D01*
X140101989Y-88865799D01*
X140050889Y-88728796D01*
X139963261Y-88611739D01*
X139846204Y-88524111D01*
X139709201Y-88473011D01*
X139648638Y-88466500D01*
X139085000Y-88466500D01*
X139025340Y-88447115D01*
X138988468Y-88396365D01*
X138983500Y-88365000D01*
X138983500Y-85554445D01*
X139002885Y-85494785D01*
X139013223Y-85482680D01*
X139949090Y-84546812D01*
X140004981Y-84518335D01*
X140061294Y-84525487D01*
X140225823Y-84596953D01*
X140225828Y-84596955D01*
X140490392Y-84671082D01*
X140490394Y-84671082D01*
X140490404Y-84671085D01*
X140762615Y-84708500D01*
X140762619Y-84708500D01*
X141037381Y-84708500D01*
X141037385Y-84708500D01*
X141309596Y-84671085D01*
X141309607Y-84671082D01*
X141574164Y-84596957D01*
X141574166Y-84596955D01*
X141574177Y-84596953D01*
X141826200Y-84487484D01*
X142060969Y-84344718D01*
X142274111Y-84171314D01*
X142461657Y-83970502D01*
X142620111Y-83746023D01*
X142746523Y-83502058D01*
X142838538Y-83243153D01*
X142894442Y-82974130D01*
X142912651Y-82707932D01*
X142913193Y-82700004D01*
X142913193Y-82699995D01*
X142894443Y-82425878D01*
X142894442Y-82425876D01*
X142894442Y-82425870D01*
X142838538Y-82156847D01*
X142746523Y-81897942D01*
X142620111Y-81653977D01*
X142461657Y-81429498D01*
X142274111Y-81228686D01*
X142274105Y-81228681D01*
X142274102Y-81228678D01*
X142060974Y-81055286D01*
X142060973Y-81055285D01*
X142060969Y-81055282D01*
X141826200Y-80912516D01*
X141826197Y-80912514D01*
X141826191Y-80912511D01*
X141653717Y-80837596D01*
X141574177Y-80803047D01*
X141574173Y-80803045D01*
X141574164Y-80803042D01*
X141309607Y-80728917D01*
X141309599Y-80728915D01*
X141309596Y-80728915D01*
X141097202Y-80699721D01*
X141037386Y-80691500D01*
X141037385Y-80691500D01*
X140762615Y-80691500D01*
X140762613Y-80691500D01*
X140664531Y-80704981D01*
X140490404Y-80728915D01*
X140490400Y-80728915D01*
X140490393Y-80728917D01*
X140490392Y-80728917D01*
X140225835Y-80803042D01*
X140225821Y-80803048D01*
X139973808Y-80912511D01*
X139914775Y-80948410D01*
X139739031Y-81055282D01*
X139739029Y-81055283D01*
X139739025Y-81055286D01*
X139525897Y-81228678D01*
X139525888Y-81228687D01*
X139338343Y-81429497D01*
X139338343Y-81429498D01*
X139249265Y-81555694D01*
X139179887Y-81653980D01*
X139053480Y-81897934D01*
X139053478Y-81897938D01*
X138961461Y-82156846D01*
X138905557Y-82425876D01*
X138905556Y-82425878D01*
X138886807Y-82699995D01*
X138886807Y-82700004D01*
X138905556Y-82974121D01*
X138905557Y-82974123D01*
X138961461Y-83243153D01*
X139032836Y-83443980D01*
X139043551Y-83474130D01*
X139053478Y-83502060D01*
X139070010Y-83533966D01*
X139080245Y-83595856D01*
X139052148Y-83651942D01*
X139051660Y-83652433D01*
X137946167Y-84757929D01*
X137857932Y-84846163D01*
X137857925Y-84846172D01*
X137788602Y-84949921D01*
X137788597Y-84949930D01*
X137740847Y-85065207D01*
X137740845Y-85065213D01*
X137716500Y-85187605D01*
X137716500Y-88365000D01*
X137697115Y-88424660D01*
X137646365Y-88461532D01*
X137615000Y-88466500D01*
X137051361Y-88466500D01*
X136990799Y-88473011D01*
X136990795Y-88473012D01*
X136853798Y-88524110D01*
X136853797Y-88524110D01*
X136853796Y-88524111D01*
X136736739Y-88611739D01*
X136649111Y-88728796D01*
X136598011Y-88865799D01*
X136591500Y-88926362D01*
X134463488Y-88926362D01*
X134463634Y-83491689D01*
X134463968Y-71094749D01*
X135766500Y-71094749D01*
X135766500Y-72255241D01*
X135772758Y-72324109D01*
X135822137Y-72482574D01*
X135822138Y-72482576D01*
X135908007Y-72624623D01*
X136025376Y-72741992D01*
X136167423Y-72827861D01*
X136167425Y-72827862D01*
X136285163Y-72864550D01*
X136325891Y-72877242D01*
X136394757Y-72883500D01*
X138155242Y-72883499D01*
X138224109Y-72877242D01*
X138382577Y-72827861D01*
X138524623Y-72741992D01*
X138641992Y-72624623D01*
X138727861Y-72482577D01*
X138759887Y-72379803D01*
X138796143Y-72328612D01*
X138855565Y-72308507D01*
X138856791Y-72308500D01*
X139936450Y-72308500D01*
X139996110Y-72327885D01*
X140032982Y-72378635D01*
X140037950Y-72410000D01*
X140037950Y-72625338D01*
X140044461Y-72685901D01*
X140095561Y-72822904D01*
X140183189Y-72939961D01*
X140300246Y-73027589D01*
X140437249Y-73078689D01*
X140497812Y-73085200D01*
X141113954Y-73085200D01*
X141173614Y-73104585D01*
X141185725Y-73114929D01*
X142886771Y-74815975D01*
X142915250Y-74871868D01*
X142916500Y-74887746D01*
X142916500Y-74923875D01*
X142926763Y-75024332D01*
X142926764Y-75024337D01*
X142980697Y-75187100D01*
X142980698Y-75187103D01*
X143070708Y-75333031D01*
X143070713Y-75333037D01*
X143070715Y-75333040D01*
X143191960Y-75454285D01*
X143193282Y-75455100D01*
X143193876Y-75455800D01*
X143196594Y-75457949D01*
X143196163Y-75458493D01*
X143233884Y-75502916D01*
X143241500Y-75541490D01*
X143241500Y-76133509D01*
X143222115Y-76193169D01*
X143196501Y-76216915D01*
X143196603Y-76217044D01*
X143194972Y-76218333D01*
X143193285Y-76219898D01*
X143191962Y-76220713D01*
X143191956Y-76220718D01*
X143070718Y-76341956D01*
X143070708Y-76341968D01*
X142980698Y-76487896D01*
X142980697Y-76487899D01*
X142926764Y-76650662D01*
X142926763Y-76650667D01*
X142916500Y-76751124D01*
X142916500Y-77348875D01*
X142926763Y-77449332D01*
X142926764Y-77449337D01*
X142980697Y-77612100D01*
X142980698Y-77612103D01*
X143070708Y-77758031D01*
X143070713Y-77758037D01*
X143070715Y-77758040D01*
X143191960Y-77879285D01*
X143193282Y-77880100D01*
X143193876Y-77880800D01*
X143196594Y-77882949D01*
X143196163Y-77883493D01*
X143233884Y-77927916D01*
X143241500Y-77966490D01*
X143241500Y-78539486D01*
X143222115Y-78599146D01*
X143211771Y-78611257D01*
X143088185Y-78734842D01*
X142999171Y-78882089D01*
X142947989Y-79046342D01*
X142947986Y-79046356D01*
X142941500Y-79117727D01*
X142941500Y-79782263D01*
X142947987Y-79853650D01*
X142999171Y-80017910D01*
X143088185Y-80165157D01*
X143209842Y-80286814D01*
X143209844Y-80286815D01*
X143209845Y-80286816D01*
X143340854Y-80366014D01*
X143357089Y-80375828D01*
X143465225Y-80409523D01*
X143521351Y-80427013D01*
X143592735Y-80433500D01*
X143895553Y-80433499D01*
X143955213Y-80452884D01*
X143967324Y-80463228D01*
X144246167Y-80742071D01*
X144349925Y-80811400D01*
X144349930Y-80811402D01*
X144465207Y-80859152D01*
X144465210Y-80859153D01*
X144465215Y-80859155D01*
X144587606Y-80883500D01*
X144712394Y-80883500D01*
X148664585Y-80883500D01*
X148724245Y-80902885D01*
X148761117Y-80953635D01*
X148761117Y-81016365D01*
X148728641Y-81063735D01*
X148525890Y-81228684D01*
X148525888Y-81228687D01*
X148338343Y-81429497D01*
X148338343Y-81429498D01*
X148249265Y-81555694D01*
X148179887Y-81653980D01*
X148053480Y-81897934D01*
X148053478Y-81897938D01*
X147961461Y-82156846D01*
X147905557Y-82425876D01*
X147905556Y-82425878D01*
X147886807Y-82699995D01*
X147886807Y-82700004D01*
X147905556Y-82974121D01*
X147905557Y-82974123D01*
X147961461Y-83243153D01*
X148032836Y-83443980D01*
X148043551Y-83474130D01*
X148053478Y-83502060D01*
X148070010Y-83533966D01*
X148080245Y-83595856D01*
X148052148Y-83651942D01*
X148051660Y-83652433D01*
X143267325Y-88436771D01*
X143211432Y-88465250D01*
X143195554Y-88466500D01*
X141051361Y-88466500D01*
X140990799Y-88473011D01*
X140990795Y-88473012D01*
X140853798Y-88524110D01*
X140853797Y-88524110D01*
X140853796Y-88524111D01*
X140736739Y-88611739D01*
X140649111Y-88728796D01*
X140598011Y-88865799D01*
X140591500Y-88926362D01*
X140591500Y-90723638D01*
X140598011Y-90784201D01*
X140649111Y-90921204D01*
X140736739Y-91038261D01*
X140853796Y-91125889D01*
X140990799Y-91176989D01*
X141051362Y-91183500D01*
X141051372Y-91183500D01*
X143648628Y-91183500D01*
X143648638Y-91183500D01*
X143709201Y-91176989D01*
X143846204Y-91125889D01*
X143963261Y-91038261D01*
X144050889Y-90921204D01*
X144101989Y-90784201D01*
X144108500Y-90723638D01*
X144108500Y-89429446D01*
X144127885Y-89369786D01*
X144138229Y-89357675D01*
X145095906Y-88399998D01*
X194261758Y-88399998D01*
X194261758Y-88400001D01*
X194280696Y-88640634D01*
X194337044Y-88875343D01*
X194429413Y-89098342D01*
X194429415Y-89098345D01*
X194555536Y-89304156D01*
X194555541Y-89304162D01*
X194712298Y-89487701D01*
X194861099Y-89614789D01*
X194895844Y-89644464D01*
X195101653Y-89770584D01*
X195101655Y-89770585D01*
X195101657Y-89770586D01*
X195324656Y-89862955D01*
X195381005Y-89876483D01*
X195559366Y-89919304D01*
X195779443Y-89936624D01*
X195799999Y-89938242D01*
X195800000Y-89938242D01*
X195800001Y-89938242D01*
X195817557Y-89936860D01*
X196040634Y-89919304D01*
X196275343Y-89862955D01*
X196498347Y-89770584D01*
X196704156Y-89644464D01*
X196887701Y-89487701D01*
X197044464Y-89304156D01*
X197170584Y-89098347D01*
X197262955Y-88875343D01*
X197319304Y-88640634D01*
X197338242Y-88400000D01*
X197319304Y-88159366D01*
X197262955Y-87924657D01*
X197170584Y-87701653D01*
X197044464Y-87495844D01*
X197029123Y-87477882D01*
X196887701Y-87312298D01*
X196704162Y-87155541D01*
X196704156Y-87155536D01*
X196498345Y-87029415D01*
X196498342Y-87029413D01*
X196275343Y-86937044D01*
X196040634Y-86880696D01*
X196040635Y-86880696D01*
X195800001Y-86861758D01*
X195799999Y-86861758D01*
X195559365Y-86880696D01*
X195324656Y-86937044D01*
X195101657Y-87029413D01*
X195101654Y-87029415D01*
X194895843Y-87155536D01*
X194895837Y-87155541D01*
X194712298Y-87312298D01*
X194555541Y-87495837D01*
X194555536Y-87495843D01*
X194429415Y-87701654D01*
X194429413Y-87701657D01*
X194337044Y-87924656D01*
X194280696Y-88159365D01*
X194261758Y-88399998D01*
X145095906Y-88399998D01*
X146466491Y-87029413D01*
X147635906Y-85859998D01*
X191621950Y-85859998D01*
X191621950Y-85860001D01*
X191642117Y-86116247D01*
X191702121Y-86366185D01*
X191800484Y-86603654D01*
X191800486Y-86603657D01*
X191934790Y-86822822D01*
X191936253Y-86824535D01*
X192504227Y-86256561D01*
X192506740Y-86262626D01*
X192599762Y-86401844D01*
X192718156Y-86520238D01*
X192857374Y-86613260D01*
X192863436Y-86615771D01*
X192295462Y-87183745D01*
X192297180Y-87185211D01*
X192516341Y-87319513D01*
X192516345Y-87319515D01*
X192753814Y-87417878D01*
X193003752Y-87477882D01*
X193003751Y-87477882D01*
X193259999Y-87498050D01*
X193260001Y-87498050D01*
X193516247Y-87477882D01*
X193766185Y-87417878D01*
X194003654Y-87319515D01*
X194003663Y-87319510D01*
X194222820Y-87185211D01*
X194224535Y-87183746D01*
X194224536Y-87183745D01*
X193656562Y-86615771D01*
X193662626Y-86613260D01*
X193801844Y-86520238D01*
X193920238Y-86401844D01*
X194013260Y-86262626D01*
X194015771Y-86256562D01*
X194583745Y-86824536D01*
X194583746Y-86824535D01*
X194585211Y-86822820D01*
X194719510Y-86603663D01*
X194719515Y-86603654D01*
X194817878Y-86366185D01*
X194877882Y-86116247D01*
X194898050Y-85860001D01*
X194898050Y-85859998D01*
X196701950Y-85859998D01*
X196701950Y-85860001D01*
X196722117Y-86116247D01*
X196782121Y-86366185D01*
X196880484Y-86603654D01*
X196880486Y-86603657D01*
X197014790Y-86822822D01*
X197016253Y-86824535D01*
X197584227Y-86256561D01*
X197586740Y-86262626D01*
X197679762Y-86401844D01*
X197798156Y-86520238D01*
X197937374Y-86613260D01*
X197943436Y-86615771D01*
X197375462Y-87183745D01*
X197377180Y-87185211D01*
X197596341Y-87319513D01*
X197596345Y-87319515D01*
X197833814Y-87417878D01*
X198083752Y-87477882D01*
X198083751Y-87477882D01*
X198339999Y-87498050D01*
X198340001Y-87498050D01*
X198596247Y-87477882D01*
X198846185Y-87417878D01*
X199083654Y-87319515D01*
X199083663Y-87319510D01*
X199302820Y-87185211D01*
X199304535Y-87183746D01*
X199304536Y-87183745D01*
X198736562Y-86615771D01*
X198742626Y-86613260D01*
X198881844Y-86520238D01*
X199000238Y-86401844D01*
X199093260Y-86262626D01*
X199095771Y-86256562D01*
X199663745Y-86824536D01*
X199663746Y-86824535D01*
X199665211Y-86822820D01*
X199799510Y-86603663D01*
X199799515Y-86603654D01*
X199897878Y-86366185D01*
X199957882Y-86116247D01*
X199978050Y-85860001D01*
X199978050Y-85859998D01*
X199957882Y-85603752D01*
X199897878Y-85353814D01*
X199799515Y-85116345D01*
X199799513Y-85116341D01*
X199665211Y-84897180D01*
X199663745Y-84895462D01*
X199095771Y-85463436D01*
X199093260Y-85457374D01*
X199000238Y-85318156D01*
X198881844Y-85199762D01*
X198742626Y-85106740D01*
X198736561Y-85104228D01*
X199304536Y-84536253D01*
X199302822Y-84534790D01*
X199083657Y-84400486D01*
X199083654Y-84400484D01*
X198846185Y-84302121D01*
X198596247Y-84242117D01*
X198596248Y-84242117D01*
X198340001Y-84221950D01*
X198339999Y-84221950D01*
X198083752Y-84242117D01*
X197833814Y-84302121D01*
X197596345Y-84400484D01*
X197596342Y-84400486D01*
X197377179Y-84534789D01*
X197377171Y-84534795D01*
X197375463Y-84536252D01*
X197375463Y-84536253D01*
X197943437Y-85104228D01*
X197937374Y-85106740D01*
X197798156Y-85199762D01*
X197679762Y-85318156D01*
X197586740Y-85457374D01*
X197584228Y-85463437D01*
X197016253Y-84895463D01*
X197016252Y-84895463D01*
X197014795Y-84897171D01*
X197014789Y-84897179D01*
X196880486Y-85116342D01*
X196880484Y-85116345D01*
X196782121Y-85353814D01*
X196722117Y-85603752D01*
X196701950Y-85859998D01*
X194898050Y-85859998D01*
X194877882Y-85603752D01*
X194817878Y-85353814D01*
X194719515Y-85116345D01*
X194719513Y-85116341D01*
X194585211Y-84897180D01*
X194583745Y-84895462D01*
X194015771Y-85463436D01*
X194013260Y-85457374D01*
X193920238Y-85318156D01*
X193801844Y-85199762D01*
X193662626Y-85106740D01*
X193656561Y-85104228D01*
X194224536Y-84536253D01*
X194222822Y-84534790D01*
X194003657Y-84400486D01*
X194003654Y-84400484D01*
X193766185Y-84302121D01*
X193516247Y-84242117D01*
X193516248Y-84242117D01*
X193260001Y-84221950D01*
X193259999Y-84221950D01*
X193003752Y-84242117D01*
X192753814Y-84302121D01*
X192516345Y-84400484D01*
X192516342Y-84400486D01*
X192297179Y-84534789D01*
X192297171Y-84534795D01*
X192295463Y-84536252D01*
X192295463Y-84536253D01*
X192863437Y-85104228D01*
X192857374Y-85106740D01*
X192718156Y-85199762D01*
X192599762Y-85318156D01*
X192506740Y-85457374D01*
X192504228Y-85463437D01*
X191936253Y-84895463D01*
X191936252Y-84895463D01*
X191934795Y-84897171D01*
X191934789Y-84897179D01*
X191800486Y-85116342D01*
X191800484Y-85116345D01*
X191702121Y-85353814D01*
X191642117Y-85603752D01*
X191621950Y-85859998D01*
X147635906Y-85859998D01*
X148949090Y-84546813D01*
X149004981Y-84518336D01*
X149061295Y-84525488D01*
X149225823Y-84596953D01*
X149225831Y-84596955D01*
X149225835Y-84596957D01*
X149490392Y-84671082D01*
X149490394Y-84671082D01*
X149490404Y-84671085D01*
X149762615Y-84708500D01*
X149762619Y-84708500D01*
X150037381Y-84708500D01*
X150037385Y-84708500D01*
X150309596Y-84671085D01*
X150309607Y-84671082D01*
X150574164Y-84596957D01*
X150574166Y-84596955D01*
X150574177Y-84596953D01*
X150826200Y-84487484D01*
X151060969Y-84344718D01*
X151274111Y-84171314D01*
X151461657Y-83970502D01*
X151620111Y-83746023D01*
X151746523Y-83502058D01*
X151838538Y-83243153D01*
X151847507Y-83199994D01*
X213287308Y-83199994D01*
X213287308Y-83200005D01*
X213306052Y-83474052D01*
X213306053Y-83474055D01*
X213361943Y-83743018D01*
X213453934Y-84001853D01*
X213453938Y-84001862D01*
X213580316Y-84245760D01*
X213580318Y-84245763D01*
X213710540Y-84430248D01*
X214435159Y-83705628D01*
X214523249Y-83837463D01*
X214662537Y-83976751D01*
X214794369Y-84064839D01*
X214070714Y-84788494D01*
X214070714Y-84788495D01*
X214139314Y-84844304D01*
X214374031Y-84987038D01*
X214625995Y-85096483D01*
X214890494Y-85170592D01*
X215162647Y-85207999D01*
X215162653Y-85208000D01*
X215437347Y-85208000D01*
X215437352Y-85207999D01*
X215709504Y-85170592D01*
X215709505Y-85170592D01*
X215974004Y-85096483D01*
X216225968Y-84987038D01*
X216460686Y-84844304D01*
X216529283Y-84788495D01*
X216529284Y-84788494D01*
X215805629Y-84064839D01*
X215937463Y-83976751D01*
X216076751Y-83837463D01*
X216164839Y-83705629D01*
X216889458Y-84430248D01*
X217019684Y-84245758D01*
X217146061Y-84001862D01*
X217146065Y-84001853D01*
X217238056Y-83743018D01*
X217293946Y-83474055D01*
X217293947Y-83474052D01*
X217312692Y-83200005D01*
X217312692Y-83199994D01*
X217293947Y-82925947D01*
X217293946Y-82925944D01*
X217238056Y-82656981D01*
X217146065Y-82398146D01*
X217146061Y-82398137D01*
X217019684Y-82154241D01*
X216889458Y-81969750D01*
X216164839Y-82694369D01*
X216076751Y-82562537D01*
X215937463Y-82423249D01*
X215805628Y-82335159D01*
X216529283Y-81611504D01*
X216460681Y-81555692D01*
X216225968Y-81412961D01*
X215974004Y-81303516D01*
X215709505Y-81229407D01*
X215437352Y-81192000D01*
X215162647Y-81192000D01*
X214890495Y-81229407D01*
X214890494Y-81229407D01*
X214625995Y-81303516D01*
X214374031Y-81412961D01*
X214139314Y-81555694D01*
X214139313Y-81555695D01*
X214070715Y-81611503D01*
X214070715Y-81611504D01*
X214794370Y-82335160D01*
X214662537Y-82423249D01*
X214523249Y-82562537D01*
X214435160Y-82694370D01*
X213710540Y-81969751D01*
X213580318Y-82154236D01*
X213580316Y-82154239D01*
X213453938Y-82398137D01*
X213453934Y-82398146D01*
X213361943Y-82656981D01*
X213306053Y-82925944D01*
X213306052Y-82925947D01*
X213287308Y-83199994D01*
X151847507Y-83199994D01*
X151894442Y-82974130D01*
X151912651Y-82707932D01*
X151913193Y-82700004D01*
X151913193Y-82699995D01*
X151894443Y-82425878D01*
X151894442Y-82425876D01*
X151894442Y-82425870D01*
X151838538Y-82156847D01*
X151746523Y-81897942D01*
X151620111Y-81653977D01*
X151461657Y-81429498D01*
X151274111Y-81228686D01*
X151274101Y-81228678D01*
X151071359Y-81063735D01*
X151037314Y-81011047D01*
X151040740Y-80948410D01*
X151080328Y-80899749D01*
X151135415Y-80883500D01*
X154012394Y-80883500D01*
X154134785Y-80859155D01*
X154250075Y-80811400D01*
X154353833Y-80742071D01*
X156367071Y-78728833D01*
X156436400Y-78625075D01*
X156484155Y-78509785D01*
X156508500Y-78387394D01*
X156508500Y-78262606D01*
X156508500Y-73837606D01*
X156484155Y-73715215D01*
X156482768Y-73711867D01*
X156437907Y-73603563D01*
X156436400Y-73599925D01*
X156367071Y-73496167D01*
X156278833Y-73407929D01*
X154539233Y-71668329D01*
X154435475Y-71599000D01*
X154435472Y-71598999D01*
X154435469Y-71598997D01*
X154320192Y-71551247D01*
X154320186Y-71551245D01*
X154197794Y-71526900D01*
X152377054Y-71526900D01*
X152317394Y-71507515D01*
X152280522Y-71456765D01*
X152276135Y-71414551D01*
X152280050Y-71378138D01*
X152280050Y-71310436D01*
X161999500Y-71310436D01*
X161999500Y-81689563D01*
X162019976Y-81765981D01*
X162019981Y-81765995D01*
X162052637Y-81822554D01*
X162059540Y-81834511D01*
X162059542Y-81834513D01*
X162059545Y-81834517D01*
X162115482Y-81890454D01*
X162115485Y-81890456D01*
X162115489Y-81890460D01*
X162143771Y-81906789D01*
X162184004Y-81930018D01*
X162184008Y-81930019D01*
X162184011Y-81930021D01*
X162184016Y-81930022D01*
X162184018Y-81930023D01*
X162260436Y-81950500D01*
X162260438Y-81950500D01*
X182074880Y-81950500D01*
X182300362Y-81950587D01*
X182300362Y-81950586D01*
X182300372Y-81950587D01*
X182300381Y-81950586D01*
X182300387Y-81950586D01*
X182572386Y-81928150D01*
X182749828Y-81913515D01*
X183194687Y-81839444D01*
X183631907Y-81728880D01*
X184058500Y-81582581D01*
X184471551Y-81401544D01*
X184868238Y-81187008D01*
X185245847Y-80940439D01*
X185601800Y-80663521D01*
X185836056Y-80447963D01*
X185933658Y-80358153D01*
X185933663Y-80358148D01*
X186239168Y-80026407D01*
X186516227Y-79670565D01*
X186762946Y-79293053D01*
X186977640Y-78896452D01*
X186980571Y-78889772D01*
X199769500Y-78889772D01*
X199769500Y-79110227D01*
X199803983Y-79327945D01*
X199803985Y-79327953D01*
X199872104Y-79537606D01*
X199872105Y-79537608D01*
X199972180Y-79734014D01*
X199972185Y-79734022D01*
X200101756Y-79912363D01*
X200101758Y-79912365D01*
X200257635Y-80068242D01*
X200435978Y-80197815D01*
X200435981Y-80197816D01*
X200435985Y-80197819D01*
X200632391Y-80297894D01*
X200632393Y-80297895D01*
X200817836Y-80358148D01*
X200842049Y-80366015D01*
X200842051Y-80366015D01*
X200842054Y-80366016D01*
X201017801Y-80393851D01*
X201059778Y-80400500D01*
X201059781Y-80400500D01*
X201280219Y-80400500D01*
X201280222Y-80400500D01*
X201497951Y-80366015D01*
X201707606Y-80297895D01*
X201904022Y-80197815D01*
X202082365Y-80068242D01*
X202238242Y-79912365D01*
X202367815Y-79734022D01*
X202467895Y-79537606D01*
X202536015Y-79327951D01*
X202570500Y-79110222D01*
X202570500Y-78889778D01*
X202545961Y-78734845D01*
X202536016Y-78672054D01*
X202536014Y-78672046D01*
X202467895Y-78462393D01*
X202467894Y-78462391D01*
X202367819Y-78265985D01*
X202367814Y-78265977D01*
X202238243Y-78087636D01*
X202082363Y-77931756D01*
X201904022Y-77802185D01*
X201904014Y-77802180D01*
X201707608Y-77702105D01*
X201707606Y-77702104D01*
X201497953Y-77633985D01*
X201497945Y-77633983D01*
X201280227Y-77599500D01*
X201280222Y-77599500D01*
X201059778Y-77599500D01*
X201059772Y-77599500D01*
X200842054Y-77633983D01*
X200842046Y-77633985D01*
X200632393Y-77702104D01*
X200632391Y-77702105D01*
X200435985Y-77802180D01*
X200435977Y-77802185D01*
X200257636Y-77931756D01*
X200101756Y-78087636D01*
X199972185Y-78265977D01*
X199972180Y-78265985D01*
X199872105Y-78462391D01*
X199872104Y-78462393D01*
X199803985Y-78672046D01*
X199803983Y-78672054D01*
X199769500Y-78889772D01*
X186980571Y-78889772D01*
X187158841Y-78483473D01*
X187305311Y-78056938D01*
X187416048Y-77619762D01*
X187490296Y-77174933D01*
X187494552Y-77123580D01*
X225767000Y-77123580D01*
X225767001Y-77123607D01*
X225773503Y-77184089D01*
X225773504Y-77184091D01*
X225824553Y-77320959D01*
X225824554Y-77320961D01*
X225912096Y-77437903D01*
X226029038Y-77525445D01*
X226029040Y-77525446D01*
X226165908Y-77576495D01*
X226165910Y-77576496D01*
X226226392Y-77582998D01*
X226226420Y-77583000D01*
X226871000Y-77583000D01*
X227379000Y-77583000D01*
X228023580Y-77583000D01*
X228023607Y-77582998D01*
X228084089Y-77576496D01*
X228084091Y-77576495D01*
X228220959Y-77525446D01*
X228220961Y-77525445D01*
X228337903Y-77437903D01*
X228425445Y-77320961D01*
X228425446Y-77320959D01*
X228476495Y-77184091D01*
X228476496Y-77184089D01*
X228482998Y-77123607D01*
X228483000Y-77123580D01*
X228483000Y-76079000D01*
X227379000Y-76079000D01*
X227379000Y-77583000D01*
X226871000Y-77583000D01*
X226871000Y-76079000D01*
X225767000Y-76079000D01*
X225767000Y-77123580D01*
X187494552Y-77123580D01*
X187527548Y-76725491D01*
X187527548Y-76274509D01*
X187490296Y-75825067D01*
X187416048Y-75380238D01*
X187305311Y-74943062D01*
X187158841Y-74516527D01*
X186977640Y-74103548D01*
X186977634Y-74103536D01*
X186977632Y-74103532D01*
X186806917Y-73788174D01*
X186762946Y-73706947D01*
X186516227Y-73329435D01*
X186358642Y-73127040D01*
X186239176Y-72973603D01*
X186239162Y-72973586D01*
X185933658Y-72641846D01*
X185601812Y-72336490D01*
X185601811Y-72336489D01*
X185601800Y-72336479D01*
X185601793Y-72336474D01*
X185601789Y-72336470D01*
X185245852Y-72059564D01*
X185245848Y-72059561D01*
X184868250Y-71812999D01*
X184868242Y-71812994D01*
X184868238Y-71812992D01*
X184471551Y-71598456D01*
X184058500Y-71417419D01*
X184058501Y-71417419D01*
X184058498Y-71417418D01*
X183631913Y-71271122D01*
X183631891Y-71271115D01*
X183194695Y-71160557D01*
X182971927Y-71123465D01*
X182749828Y-71086485D01*
X182749824Y-71086484D01*
X182749814Y-71086483D01*
X182300387Y-71049413D01*
X182300362Y-71049412D01*
X182074880Y-71049500D01*
X162260436Y-71049500D01*
X162184018Y-71069976D01*
X162184004Y-71069981D01*
X162115492Y-71109538D01*
X162115482Y-71109545D01*
X162059545Y-71165482D01*
X162059538Y-71165492D01*
X162019981Y-71234004D01*
X162019976Y-71234018D01*
X161999500Y-71310436D01*
X152280050Y-71310436D01*
X152280050Y-70442662D01*
X152273539Y-70382099D01*
X152263195Y-70354368D01*
X152260510Y-70291696D01*
X152295175Y-70239414D01*
X152353951Y-70217492D01*
X152358297Y-70217399D01*
X154597668Y-70217399D01*
X154597678Y-70217399D01*
X154658241Y-70210888D01*
X154795244Y-70159788D01*
X154912301Y-70072160D01*
X154999929Y-69955103D01*
X155051029Y-69818100D01*
X155057540Y-69757537D01*
X155057540Y-68464280D01*
X195835811Y-68464280D01*
X195853981Y-70949992D01*
X195850528Y-70976994D01*
X195848535Y-70984432D01*
X195848535Y-70984438D01*
X195848535Y-73524438D01*
X195848535Y-73603562D01*
X195858701Y-73641500D01*
X195870715Y-73686339D01*
X195874170Y-73711867D01*
X195885999Y-75329999D01*
X195886000Y-75330000D01*
X206554000Y-75330000D01*
X206548125Y-74526419D01*
X225767000Y-74526419D01*
X225767000Y-75571000D01*
X226871000Y-75571000D01*
X227379000Y-75571000D01*
X228483000Y-75571000D01*
X228483000Y-74526419D01*
X228482998Y-74526392D01*
X228476496Y-74465910D01*
X228476495Y-74465908D01*
X228425446Y-74329040D01*
X228425445Y-74329038D01*
X228337903Y-74212096D01*
X228220961Y-74124554D01*
X228220959Y-74124553D01*
X228084091Y-74073504D01*
X228084089Y-74073503D01*
X228023607Y-74067001D01*
X228023580Y-74067000D01*
X227379000Y-74067000D01*
X227379000Y-75571000D01*
X226871000Y-75571000D01*
X226871000Y-74067000D01*
X226226420Y-74067000D01*
X226226392Y-74067001D01*
X226165910Y-74073503D01*
X226165908Y-74073504D01*
X226029040Y-74124553D01*
X226029038Y-74124554D01*
X225912096Y-74212096D01*
X225824554Y-74329038D01*
X225824553Y-74329040D01*
X225773504Y-74465908D01*
X225773503Y-74465910D01*
X225767001Y-74526392D01*
X225767000Y-74526419D01*
X206548125Y-74526419D01*
X206542728Y-73788171D01*
X206556323Y-73736684D01*
X206589056Y-73679989D01*
X206604564Y-73622115D01*
X206609535Y-73603563D01*
X206609535Y-70984436D01*
X206589058Y-70908018D01*
X206589053Y-70908004D01*
X206555144Y-70849274D01*
X206549495Y-70839489D01*
X206549489Y-70839483D01*
X206545442Y-70834207D01*
X206546735Y-70833214D01*
X206521908Y-70784487D01*
X206520661Y-70769362D01*
X206505899Y-68749856D01*
X206524847Y-68690058D01*
X206535620Y-68677350D01*
X206544460Y-68668511D01*
X206584021Y-68599989D01*
X206604500Y-68523562D01*
X206604500Y-64634438D01*
X206604500Y-64634436D01*
X206584023Y-64558018D01*
X206584018Y-64558004D01*
X206560789Y-64517771D01*
X206544460Y-64489489D01*
X206544456Y-64489485D01*
X206544454Y-64489482D01*
X206488517Y-64433545D01*
X206488513Y-64433542D01*
X206488511Y-64433540D01*
X206471771Y-64423875D01*
X206419995Y-64393981D01*
X206419981Y-64393976D01*
X206343564Y-64373500D01*
X206343562Y-64373500D01*
X196183562Y-64373500D01*
X196104438Y-64373500D01*
X196104436Y-64373500D01*
X196028018Y-64393976D01*
X196028004Y-64393981D01*
X195959492Y-64433538D01*
X195959482Y-64433545D01*
X195903545Y-64489482D01*
X195903538Y-64489492D01*
X195863981Y-64558004D01*
X195863976Y-64558018D01*
X195843500Y-64634436D01*
X195843500Y-68440619D01*
X195835811Y-68464280D01*
X155057540Y-68464280D01*
X155057540Y-68263261D01*
X155051029Y-68202698D01*
X154999929Y-68065695D01*
X154912301Y-67948638D01*
X154795244Y-67861010D01*
X154658241Y-67809910D01*
X154597678Y-67803399D01*
X152239802Y-67803399D01*
X152239801Y-67803399D01*
X152179239Y-67809910D01*
X152179235Y-67809911D01*
X152042238Y-67861009D01*
X152042237Y-67861009D01*
X152042236Y-67861010D01*
X151925179Y-67948638D01*
X151896209Y-67987338D01*
X151837550Y-68065697D01*
X151786452Y-68202694D01*
X151786451Y-68202698D01*
X151779940Y-68263260D01*
X151779940Y-68988994D01*
X151760555Y-69048654D01*
X151709805Y-69085526D01*
X151647075Y-69085526D01*
X151606669Y-69060765D01*
X149288228Y-66742324D01*
X149259749Y-66686431D01*
X149258499Y-66670553D01*
X149258499Y-66367736D01*
X149252013Y-66296351D01*
X149200827Y-66132087D01*
X149111816Y-65984845D01*
X149111815Y-65984844D01*
X149111814Y-65984842D01*
X149013229Y-65886257D01*
X148984750Y-65830364D01*
X148983500Y-65814486D01*
X148983500Y-64995867D01*
X149002885Y-64936207D01*
X149013229Y-64924096D01*
X149031708Y-64905617D01*
X149104285Y-64833040D01*
X149194302Y-64687101D01*
X149248236Y-64524336D01*
X149257512Y-64433540D01*
X149258500Y-64423875D01*
X149258500Y-63826124D01*
X149248236Y-63725667D01*
X149248236Y-63725664D01*
X149194302Y-63562899D01*
X149194301Y-63562896D01*
X149104291Y-63416968D01*
X149104286Y-63416963D01*
X149104285Y-63416960D01*
X148983040Y-63295715D01*
X148981714Y-63294897D01*
X148981120Y-63294197D01*
X148978397Y-63292044D01*
X148978828Y-63291498D01*
X148941114Y-63247079D01*
X148933500Y-63208509D01*
X148933500Y-62541490D01*
X148952885Y-62481830D01*
X148978506Y-62458076D01*
X148978406Y-62457949D01*
X148980028Y-62456666D01*
X148981716Y-62455101D01*
X148983040Y-62454285D01*
X149104285Y-62333040D01*
X149194302Y-62187101D01*
X149248236Y-62024336D01*
X149258500Y-61923872D01*
X149258500Y-61326128D01*
X149248236Y-61225664D01*
X149194302Y-61062899D01*
X149194301Y-61062896D01*
X149104291Y-60916968D01*
X149104286Y-60916963D01*
X149104285Y-60916960D01*
X148983040Y-60795715D01*
X148983037Y-60795713D01*
X148983031Y-60795708D01*
X148837103Y-60705698D01*
X148837100Y-60705697D01*
X148674337Y-60651764D01*
X148674332Y-60651763D01*
X148573875Y-60641500D01*
X148573872Y-60641500D01*
X148026128Y-60641500D01*
X148026125Y-60641500D01*
X147925667Y-60651763D01*
X147925662Y-60651764D01*
X147762899Y-60705697D01*
X147762896Y-60705698D01*
X147616968Y-60795708D01*
X147616956Y-60795718D01*
X147596771Y-60815904D01*
X147540878Y-60844383D01*
X147478920Y-60834570D01*
X147453229Y-60815904D01*
X147433043Y-60795718D01*
X147433040Y-60795715D01*
X147433037Y-60795713D01*
X147433031Y-60795708D01*
X147287103Y-60705698D01*
X147287100Y-60705697D01*
X147124337Y-60651764D01*
X147124332Y-60651763D01*
X147023875Y-60641500D01*
X147023872Y-60641500D01*
X146704447Y-60641500D01*
X146644787Y-60622115D01*
X146632676Y-60611771D01*
X144263229Y-58242324D01*
X144234750Y-58186431D01*
X144233500Y-58170553D01*
X144233500Y-57599999D01*
X150836496Y-57599999D01*
X150836496Y-57600000D01*
X150856457Y-57789925D01*
X150856458Y-57789928D01*
X150915473Y-57971556D01*
X150999679Y-58117405D01*
X151010961Y-58136946D01*
X151138743Y-58278862D01*
X151138747Y-58278866D01*
X151293248Y-58391118D01*
X151467712Y-58468794D01*
X151607812Y-58498573D01*
X151654512Y-58508500D01*
X151654513Y-58508500D01*
X151845487Y-58508500D01*
X152032288Y-58468794D01*
X152206752Y-58391118D01*
X152361253Y-58278866D01*
X152489040Y-58136944D01*
X152584527Y-57971556D01*
X152643542Y-57789928D01*
X152663504Y-57600000D01*
X152643542Y-57410072D01*
X152584527Y-57228444D01*
X152489040Y-57063056D01*
X152409569Y-56974794D01*
X152384056Y-56917488D01*
X152383500Y-56906879D01*
X152383500Y-56779446D01*
X152402885Y-56719786D01*
X152413229Y-56707675D01*
X153195909Y-55924995D01*
X153694541Y-55426362D01*
X154141500Y-55426362D01*
X154141500Y-58023638D01*
X154148011Y-58084201D01*
X154199111Y-58221204D01*
X154286739Y-58338261D01*
X154403796Y-58425889D01*
X154540799Y-58476989D01*
X154601362Y-58483500D01*
X154601372Y-58483500D01*
X156398628Y-58483500D01*
X156398638Y-58483500D01*
X156459201Y-58476989D01*
X156596204Y-58425889D01*
X156713261Y-58338261D01*
X156761681Y-58273579D01*
X170272001Y-58273579D01*
X170272002Y-58273606D01*
X170278504Y-58334088D01*
X170278505Y-58334090D01*
X170329554Y-58470957D01*
X170329555Y-58470960D01*
X170417097Y-58587902D01*
X170534039Y-58675444D01*
X170534041Y-58675445D01*
X170670909Y-58726494D01*
X170670911Y-58726495D01*
X170731393Y-58732997D01*
X170731421Y-58732999D01*
X171201001Y-58732999D01*
X171709001Y-58732999D01*
X172178581Y-58732999D01*
X172178608Y-58732997D01*
X172239090Y-58726495D01*
X172239092Y-58726494D01*
X172375960Y-58675445D01*
X172375962Y-58675444D01*
X172492904Y-58587902D01*
X172580446Y-58470960D01*
X172580448Y-58470957D01*
X172631496Y-58334090D01*
X172631497Y-58334088D01*
X172637999Y-58273606D01*
X172638001Y-58273579D01*
X182061998Y-58273579D01*
X182061999Y-58273606D01*
X182068501Y-58334088D01*
X182068502Y-58334090D01*
X182119551Y-58470957D01*
X182119552Y-58470960D01*
X182207094Y-58587902D01*
X182324036Y-58675444D01*
X182324038Y-58675445D01*
X182460906Y-58726494D01*
X182460908Y-58726495D01*
X182521390Y-58732997D01*
X182521418Y-58732999D01*
X182990998Y-58732999D01*
X183498998Y-58732999D01*
X183968578Y-58732999D01*
X183968605Y-58732997D01*
X184029087Y-58726495D01*
X184029089Y-58726494D01*
X184165957Y-58675445D01*
X184165959Y-58675444D01*
X184282901Y-58587902D01*
X184370443Y-58470960D01*
X184370445Y-58470957D01*
X184421493Y-58334090D01*
X184421494Y-58334088D01*
X184427996Y-58273606D01*
X184427998Y-58273579D01*
X184427998Y-57028999D01*
X183498998Y-57028999D01*
X183498998Y-58732999D01*
X182990998Y-58732999D01*
X182990998Y-57028999D01*
X182061998Y-57028999D01*
X182061998Y-58273579D01*
X172638001Y-58273579D01*
X172638001Y-57028999D01*
X171709001Y-57028999D01*
X171709001Y-58732999D01*
X171201001Y-58732999D01*
X171201001Y-57028999D01*
X170272001Y-57028999D01*
X170272001Y-58273579D01*
X156761681Y-58273579D01*
X156800889Y-58221204D01*
X156851989Y-58084201D01*
X156858500Y-58023638D01*
X156858500Y-56860000D01*
X156877885Y-56800340D01*
X156928635Y-56763468D01*
X156960000Y-56758500D01*
X160733046Y-56758500D01*
X160792706Y-56777885D01*
X160823164Y-56813301D01*
X160904889Y-56971023D01*
X161063343Y-57195502D01*
X161250889Y-57396314D01*
X161250894Y-57396318D01*
X161250897Y-57396321D01*
X161267802Y-57410074D01*
X161464031Y-57569718D01*
X161698800Y-57712484D01*
X161698804Y-57712486D01*
X161698808Y-57712488D01*
X161778701Y-57747190D01*
X161950823Y-57821953D01*
X161950830Y-57821955D01*
X161950835Y-57821957D01*
X162215392Y-57896082D01*
X162215394Y-57896082D01*
X162215404Y-57896085D01*
X162487615Y-57933500D01*
X162487619Y-57933500D01*
X162762381Y-57933500D01*
X162762385Y-57933500D01*
X163034596Y-57896085D01*
X163034607Y-57896082D01*
X163299164Y-57821957D01*
X163299166Y-57821955D01*
X163299177Y-57821953D01*
X163551200Y-57712484D01*
X163785969Y-57569718D01*
X163999111Y-57396314D01*
X164186657Y-57195502D01*
X164345111Y-56971023D01*
X164471523Y-56727058D01*
X164563538Y-56468153D01*
X164619442Y-56199130D01*
X164621098Y-56174930D01*
X164638193Y-55925004D01*
X164638193Y-55924995D01*
X164619443Y-55650878D01*
X164619442Y-55650876D01*
X164619442Y-55650870D01*
X164563538Y-55381847D01*
X164557837Y-55365807D01*
X164526068Y-55276418D01*
X170272001Y-55276418D01*
X170272001Y-56520999D01*
X171201001Y-56520999D01*
X171709001Y-56520999D01*
X172638001Y-56520999D01*
X172638001Y-55276418D01*
X182061998Y-55276418D01*
X182061998Y-56520999D01*
X182990998Y-56520999D01*
X183498998Y-56520999D01*
X184427998Y-56520999D01*
X184427998Y-55276418D01*
X184427996Y-55276391D01*
X184421494Y-55215909D01*
X184421493Y-55215907D01*
X184370444Y-55079039D01*
X184370443Y-55079037D01*
X184282901Y-54962095D01*
X184165959Y-54874553D01*
X184165957Y-54874552D01*
X184029089Y-54823503D01*
X184029087Y-54823502D01*
X183968605Y-54817000D01*
X183968578Y-54816999D01*
X183498998Y-54816999D01*
X183498998Y-56520999D01*
X182990998Y-56520999D01*
X182990998Y-54816999D01*
X182521418Y-54816999D01*
X182521390Y-54817000D01*
X182460908Y-54823502D01*
X182460906Y-54823503D01*
X182324038Y-54874552D01*
X182324036Y-54874553D01*
X182207094Y-54962095D01*
X182119552Y-55079037D01*
X182119551Y-55079039D01*
X182068502Y-55215907D01*
X182068501Y-55215909D01*
X182061999Y-55276391D01*
X182061998Y-55276418D01*
X172638001Y-55276418D01*
X172637999Y-55276391D01*
X172631497Y-55215909D01*
X172631496Y-55215907D01*
X172580447Y-55079039D01*
X172580446Y-55079037D01*
X172492904Y-54962095D01*
X172375962Y-54874553D01*
X172375960Y-54874552D01*
X172239092Y-54823503D01*
X172239090Y-54823502D01*
X172178608Y-54817000D01*
X172178581Y-54816999D01*
X171709001Y-54816999D01*
X171709001Y-56520999D01*
X171201001Y-56520999D01*
X171201001Y-54816999D01*
X170731421Y-54816999D01*
X170731393Y-54817000D01*
X170670911Y-54823502D01*
X170670909Y-54823503D01*
X170534041Y-54874552D01*
X170534039Y-54874553D01*
X170417097Y-54962095D01*
X170329555Y-55079037D01*
X170329554Y-55079039D01*
X170278505Y-55215907D01*
X170278504Y-55215909D01*
X170272002Y-55276391D01*
X170272001Y-55276418D01*
X164526068Y-55276418D01*
X164509144Y-55228798D01*
X164471523Y-55122942D01*
X164454989Y-55091032D01*
X164444752Y-55029142D01*
X164472849Y-54973056D01*
X164473172Y-54972730D01*
X167872323Y-51573580D01*
X173291999Y-51573580D01*
X173292000Y-51573607D01*
X173298502Y-51634089D01*
X173298503Y-51634091D01*
X173349552Y-51770959D01*
X173349553Y-51770961D01*
X173437095Y-51887903D01*
X173554037Y-51975445D01*
X173554039Y-51975446D01*
X173690907Y-52026495D01*
X173690909Y-52026496D01*
X173751391Y-52032998D01*
X173751419Y-52033000D01*
X174095999Y-52033000D01*
X174603999Y-52033000D01*
X174948579Y-52033000D01*
X174948606Y-52032998D01*
X175009088Y-52026496D01*
X175009090Y-52026495D01*
X175145958Y-51975446D01*
X175145960Y-51975445D01*
X175262903Y-51887902D01*
X175268741Y-51880104D01*
X175320011Y-51843958D01*
X175382735Y-51844851D01*
X175431251Y-51880097D01*
X175437093Y-51887901D01*
X175554038Y-51975445D01*
X175554040Y-51975446D01*
X175690908Y-52026495D01*
X175690910Y-52026496D01*
X175751392Y-52032998D01*
X175751420Y-52033000D01*
X176096000Y-52033000D01*
X176096000Y-51054000D01*
X174603999Y-51054000D01*
X174603999Y-52033000D01*
X174095999Y-52033000D01*
X174095999Y-51054000D01*
X173291999Y-51054000D01*
X173291999Y-51573580D01*
X167872323Y-51573580D01*
X169419485Y-50026419D01*
X173291999Y-50026419D01*
X173291999Y-50546000D01*
X174095999Y-50546000D01*
X174603999Y-50546000D01*
X176096000Y-50546000D01*
X176096000Y-49567000D01*
X175751420Y-49567000D01*
X175751392Y-49567001D01*
X175690910Y-49573503D01*
X175690908Y-49573504D01*
X175554040Y-49624553D01*
X175554034Y-49624556D01*
X175437095Y-49712095D01*
X175431251Y-49719902D01*
X175379978Y-49756044D01*
X175317254Y-49755145D01*
X175268746Y-49719901D01*
X175262904Y-49712097D01*
X175145960Y-49624554D01*
X175145958Y-49624553D01*
X175009090Y-49573504D01*
X175009088Y-49573503D01*
X174948606Y-49567001D01*
X174948579Y-49567000D01*
X174603999Y-49567000D01*
X174603999Y-50546000D01*
X174095999Y-50546000D01*
X174095999Y-49567000D01*
X173751419Y-49567000D01*
X173751391Y-49567001D01*
X173690909Y-49573503D01*
X173690907Y-49573504D01*
X173554039Y-49624553D01*
X173554037Y-49624554D01*
X173437095Y-49712096D01*
X173349553Y-49829038D01*
X173349552Y-49829040D01*
X173298503Y-49965908D01*
X173298502Y-49965910D01*
X173292000Y-50026392D01*
X173291999Y-50026419D01*
X169419485Y-50026419D01*
X172657676Y-46788229D01*
X172713569Y-46759750D01*
X172729447Y-46758500D01*
X174648628Y-46758500D01*
X174648638Y-46758500D01*
X174709201Y-46751989D01*
X174846204Y-46700889D01*
X174963261Y-46613261D01*
X175050889Y-46496204D01*
X175101989Y-46359201D01*
X175108500Y-46298638D01*
X175108500Y-44501362D01*
X175591500Y-44501362D01*
X175591500Y-46298638D01*
X175598011Y-46359201D01*
X175649111Y-46496204D01*
X175736739Y-46613261D01*
X175853796Y-46700889D01*
X175990799Y-46751989D01*
X176051362Y-46758500D01*
X177614999Y-46758500D01*
X177674659Y-46777885D01*
X177711531Y-46828635D01*
X177716499Y-46860000D01*
X177716499Y-49492952D01*
X177697114Y-49552612D01*
X177650470Y-49588052D01*
X177553796Y-49624110D01*
X177553794Y-49624111D01*
X177436743Y-49711734D01*
X177436737Y-49711740D01*
X177430940Y-49719484D01*
X177379668Y-49755626D01*
X177316944Y-49754729D01*
X177268432Y-49719481D01*
X177262904Y-49712097D01*
X177145961Y-49624554D01*
X177145959Y-49624553D01*
X177009091Y-49573504D01*
X177009089Y-49573503D01*
X176948607Y-49567001D01*
X176948580Y-49567000D01*
X176604000Y-49567000D01*
X176604000Y-52033000D01*
X176948580Y-52033000D01*
X176948607Y-52032998D01*
X177009089Y-52026496D01*
X177009091Y-52026495D01*
X177145959Y-51975446D01*
X177145961Y-51975445D01*
X177262905Y-51887901D01*
X177262906Y-51887900D01*
X177268429Y-51880523D01*
X177319698Y-51844376D01*
X177382422Y-51845269D01*
X177430940Y-51880516D01*
X177436736Y-51888259D01*
X177436737Y-51888259D01*
X177436738Y-51888261D01*
X177553795Y-51975889D01*
X177690798Y-52026989D01*
X177751361Y-52033500D01*
X177751371Y-52033500D01*
X178948627Y-52033500D01*
X178948637Y-52033500D01*
X179009200Y-52026989D01*
X179146203Y-51975889D01*
X179263260Y-51888261D01*
X179268742Y-51880936D01*
X179320011Y-51844792D01*
X179382735Y-51845685D01*
X179431254Y-51880934D01*
X179436739Y-51888261D01*
X179553796Y-51975889D01*
X179690799Y-52026989D01*
X179751362Y-52033500D01*
X179751372Y-52033500D01*
X180948628Y-52033500D01*
X180948638Y-52033500D01*
X181009201Y-52026989D01*
X181146204Y-51975889D01*
X181263261Y-51888261D01*
X181350889Y-51771204D01*
X181401989Y-51634201D01*
X181408500Y-51573638D01*
X181408500Y-50026362D01*
X181401989Y-49965799D01*
X181350889Y-49828796D01*
X181263261Y-49711739D01*
X181146204Y-49624111D01*
X181132498Y-49618998D01*
X181049529Y-49588052D01*
X181000405Y-49549040D01*
X180983500Y-49492952D01*
X180983500Y-46412605D01*
X180972877Y-46359200D01*
X180959155Y-46290215D01*
X180949957Y-46268010D01*
X180945168Y-46256447D01*
X180911402Y-46174927D01*
X180911401Y-46174926D01*
X180911401Y-46174925D01*
X180842072Y-46071167D01*
X180736505Y-45965600D01*
X209443239Y-45965600D01*
X209462264Y-46268002D01*
X209462265Y-46268010D01*
X209519040Y-46565630D01*
X209519042Y-46565637D01*
X209612669Y-46853790D01*
X209612669Y-46853791D01*
X209741677Y-47127948D01*
X209741681Y-47127956D01*
X209904030Y-47383779D01*
X209983069Y-47479320D01*
X210917328Y-46545060D01*
X211016967Y-46682202D01*
X211139398Y-46804633D01*
X211276538Y-46904270D01*
X210340113Y-47840695D01*
X210563169Y-48002755D01*
X210563175Y-48002759D01*
X210828692Y-48148729D01*
X211110406Y-48260268D01*
X211110421Y-48260273D01*
X211403895Y-48335624D01*
X211704507Y-48373600D01*
X212007493Y-48373600D01*
X212308104Y-48335624D01*
X212601578Y-48260273D01*
X212601593Y-48260268D01*
X212883307Y-48148729D01*
X213148823Y-48002759D01*
X213371884Y-47840694D01*
X212435461Y-46904270D01*
X212572602Y-46804633D01*
X212695033Y-46682202D01*
X212794670Y-46545061D01*
X213728929Y-47479320D01*
X213728930Y-47479320D01*
X213807962Y-47383788D01*
X213807968Y-47383779D01*
X213970318Y-47127956D01*
X213970322Y-47127948D01*
X214099330Y-46853791D01*
X214099330Y-46853790D01*
X214192957Y-46565637D01*
X214192959Y-46565630D01*
X214249734Y-46268010D01*
X214249735Y-46268002D01*
X214268760Y-45965600D01*
X214249735Y-45663197D01*
X214249734Y-45663189D01*
X214192959Y-45365569D01*
X214192957Y-45365562D01*
X214099330Y-45077409D01*
X214099330Y-45077408D01*
X213970322Y-44803251D01*
X213970318Y-44803243D01*
X213807969Y-44547420D01*
X213728929Y-44451878D01*
X212794669Y-45386137D01*
X212695033Y-45248998D01*
X212572602Y-45126567D01*
X212435461Y-45026929D01*
X213371885Y-44090504D01*
X213371885Y-44090503D01*
X213148830Y-43928444D01*
X213148824Y-43928440D01*
X212883307Y-43782470D01*
X212601593Y-43670931D01*
X212601578Y-43670926D01*
X212308104Y-43595575D01*
X212007493Y-43557600D01*
X211704507Y-43557600D01*
X211403895Y-43595575D01*
X211110421Y-43670926D01*
X211110406Y-43670931D01*
X210828692Y-43782470D01*
X210563175Y-43928440D01*
X210563169Y-43928444D01*
X210340113Y-44090503D01*
X211276538Y-45026929D01*
X211139398Y-45126567D01*
X211016967Y-45248998D01*
X210917329Y-45386138D01*
X209983070Y-44451879D01*
X209983069Y-44451879D01*
X209904030Y-44547420D01*
X209741681Y-44803243D01*
X209741677Y-44803251D01*
X209612669Y-45077408D01*
X209612669Y-45077409D01*
X209519042Y-45365562D01*
X209519040Y-45365569D01*
X209462265Y-45663189D01*
X209462264Y-45663197D01*
X209443239Y-45965600D01*
X180736505Y-45965600D01*
X179678833Y-44907929D01*
X179575075Y-44838600D01*
X179575072Y-44838599D01*
X179575069Y-44838597D01*
X179459792Y-44790847D01*
X179459786Y-44790845D01*
X179337394Y-44766500D01*
X179210000Y-44766500D01*
X179150340Y-44747115D01*
X179113468Y-44696365D01*
X179108500Y-44665000D01*
X179108500Y-44501371D01*
X179108500Y-44501362D01*
X179101989Y-44440799D01*
X179050889Y-44303796D01*
X178963261Y-44186739D01*
X178846204Y-44099111D01*
X178709201Y-44048011D01*
X178648638Y-44041500D01*
X176051362Y-44041500D01*
X176051361Y-44041500D01*
X175990799Y-44048011D01*
X175990795Y-44048012D01*
X175853798Y-44099110D01*
X175853797Y-44099110D01*
X175853796Y-44099111D01*
X175736739Y-44186739D01*
X175649111Y-44303796D01*
X175598011Y-44440799D01*
X175591500Y-44501362D01*
X175108500Y-44501362D01*
X175101989Y-44440799D01*
X175050889Y-44303796D01*
X174963261Y-44186739D01*
X174846204Y-44099111D01*
X174709201Y-44048011D01*
X174648638Y-44041500D01*
X172051362Y-44041500D01*
X172051361Y-44041500D01*
X171990799Y-44048011D01*
X171990795Y-44048012D01*
X171853798Y-44099110D01*
X171853797Y-44099110D01*
X171853796Y-44099111D01*
X171736739Y-44186739D01*
X171649110Y-44303798D01*
X171598012Y-44440795D01*
X171598011Y-44440799D01*
X171591500Y-44501361D01*
X171591500Y-46020553D01*
X171572115Y-46080213D01*
X171561771Y-46092324D01*
X163575910Y-54078184D01*
X163520017Y-54106663D01*
X163463702Y-54099510D01*
X163396099Y-54070146D01*
X163299177Y-54028047D01*
X163299173Y-54028045D01*
X163299164Y-54028042D01*
X163034607Y-53953917D01*
X163034599Y-53953915D01*
X163034596Y-53953915D01*
X162822202Y-53924721D01*
X162762386Y-53916500D01*
X162762385Y-53916500D01*
X162487615Y-53916500D01*
X162487613Y-53916500D01*
X162389531Y-53929981D01*
X162215404Y-53953915D01*
X162215400Y-53953915D01*
X162215393Y-53953917D01*
X162215392Y-53953917D01*
X161950835Y-54028042D01*
X161950821Y-54028048D01*
X161698808Y-54137511D01*
X161698800Y-54137516D01*
X161464031Y-54280282D01*
X161464029Y-54280283D01*
X161464025Y-54280286D01*
X161250897Y-54453678D01*
X161250888Y-54453687D01*
X161063343Y-54654497D01*
X161063343Y-54654498D01*
X160908013Y-54874552D01*
X160904887Y-54878980D01*
X160778480Y-55122934D01*
X160778478Y-55122938D01*
X160686461Y-55381846D01*
X160680476Y-55410651D01*
X160649359Y-55465119D01*
X160592168Y-55490895D01*
X160581099Y-55491500D01*
X156956676Y-55491500D01*
X156897016Y-55472115D01*
X156860144Y-55421365D01*
X156855758Y-55400850D01*
X156851990Y-55365807D01*
X156851989Y-55365806D01*
X156851989Y-55365799D01*
X156800889Y-55228796D01*
X156713261Y-55111739D01*
X156596204Y-55024111D01*
X156459201Y-54973011D01*
X156398638Y-54966500D01*
X154601362Y-54966500D01*
X154601361Y-54966500D01*
X154540799Y-54973011D01*
X154540795Y-54973012D01*
X154403796Y-55024110D01*
X154403795Y-55024111D01*
X154318754Y-55087772D01*
X154280991Y-55100641D01*
X154262772Y-55143754D01*
X154199111Y-55228795D01*
X154199110Y-55228796D01*
X154148012Y-55365795D01*
X154148011Y-55365799D01*
X154141500Y-55426362D01*
X153694541Y-55426362D01*
X154109748Y-55011155D01*
X154161078Y-54985001D01*
X154160958Y-54976533D01*
X154186155Y-54934748D01*
X154607675Y-54513229D01*
X154663568Y-54484750D01*
X154679446Y-54483500D01*
X156398628Y-54483500D01*
X156398638Y-54483500D01*
X156459201Y-54476989D01*
X156596204Y-54425889D01*
X156713261Y-54338261D01*
X156800889Y-54221204D01*
X156851989Y-54084201D01*
X156858500Y-54023638D01*
X156858500Y-53793431D01*
X156877885Y-53733771D01*
X156903603Y-53709042D01*
X157003833Y-53642071D01*
X158092072Y-52553833D01*
X158161401Y-52450075D01*
X158209155Y-52334784D01*
X158227490Y-52242601D01*
X158255267Y-52190635D01*
X161674090Y-48771812D01*
X161729981Y-48743335D01*
X161786294Y-48750487D01*
X161950823Y-48821953D01*
X161950828Y-48821955D01*
X162215392Y-48896082D01*
X162215394Y-48896082D01*
X162215404Y-48896085D01*
X162487615Y-48933500D01*
X162487619Y-48933500D01*
X162762381Y-48933500D01*
X162762385Y-48933500D01*
X163034596Y-48896085D01*
X163034607Y-48896082D01*
X163299164Y-48821957D01*
X163299166Y-48821955D01*
X163299177Y-48821953D01*
X163551200Y-48712484D01*
X163785969Y-48569718D01*
X163999111Y-48396314D01*
X164186657Y-48195502D01*
X164345111Y-47971023D01*
X164471523Y-47727058D01*
X164563538Y-47468153D01*
X164619442Y-47199130D01*
X164624311Y-47127956D01*
X164638193Y-46925004D01*
X164638193Y-46924995D01*
X164619443Y-46650878D01*
X164619442Y-46650876D01*
X164619442Y-46650870D01*
X164563538Y-46381847D01*
X164555489Y-46359200D01*
X164507149Y-46223184D01*
X164471523Y-46122942D01*
X164345111Y-45878977D01*
X164186657Y-45654498D01*
X163999111Y-45453686D01*
X163999105Y-45453681D01*
X163999102Y-45453678D01*
X163785974Y-45280286D01*
X163785973Y-45280285D01*
X163785969Y-45280282D01*
X163551200Y-45137516D01*
X163551197Y-45137514D01*
X163551191Y-45137511D01*
X163385237Y-45065428D01*
X163299177Y-45028047D01*
X163299173Y-45028045D01*
X163299164Y-45028042D01*
X163034607Y-44953917D01*
X163034599Y-44953915D01*
X163034596Y-44953915D01*
X162822202Y-44924721D01*
X162762386Y-44916500D01*
X162762385Y-44916500D01*
X162487615Y-44916500D01*
X162487613Y-44916500D01*
X162389531Y-44929981D01*
X162215404Y-44953915D01*
X162215400Y-44953915D01*
X162215393Y-44953917D01*
X162215392Y-44953917D01*
X161950835Y-45028042D01*
X161950821Y-45028048D01*
X161698808Y-45137511D01*
X161698800Y-45137516D01*
X161464031Y-45280282D01*
X161464029Y-45280283D01*
X161464025Y-45280286D01*
X161250897Y-45453678D01*
X161250888Y-45453687D01*
X161063343Y-45654497D01*
X161063341Y-45654501D01*
X160904887Y-45878980D01*
X160778480Y-46122934D01*
X160778478Y-46122938D01*
X160686461Y-46381846D01*
X160630557Y-46650876D01*
X160630556Y-46650878D01*
X160611807Y-46924995D01*
X160611807Y-46925004D01*
X160630556Y-47199121D01*
X160630557Y-47199123D01*
X160686461Y-47468153D01*
X160778478Y-47727061D01*
X160778480Y-47727066D01*
X160795010Y-47758968D01*
X160805245Y-47820858D01*
X160777148Y-47876944D01*
X160776660Y-47877434D01*
X157196167Y-51457929D01*
X157107932Y-51546163D01*
X157107929Y-51546167D01*
X157049105Y-51634204D01*
X157044394Y-51641254D01*
X156995131Y-51680089D01*
X156932449Y-51682552D01*
X156880290Y-51647701D01*
X156858578Y-51588848D01*
X156858500Y-51584863D01*
X156858500Y-51426371D01*
X156858500Y-51426362D01*
X156851989Y-51365799D01*
X156800889Y-51228796D01*
X156713261Y-51111739D01*
X156596204Y-51024111D01*
X156459201Y-50973011D01*
X156398638Y-50966500D01*
X154601362Y-50966500D01*
X154601361Y-50966500D01*
X154540799Y-50973011D01*
X154540795Y-50973012D01*
X154403798Y-51024110D01*
X154403797Y-51024110D01*
X154403796Y-51024111D01*
X154286739Y-51111739D01*
X154215863Y-51206419D01*
X154199110Y-51228798D01*
X154148012Y-51365795D01*
X154148011Y-51365799D01*
X154141500Y-51426361D01*
X154141500Y-53145554D01*
X154122115Y-53205214D01*
X154111771Y-53217325D01*
X151257932Y-56071163D01*
X151257925Y-56071172D01*
X151188602Y-56174921D01*
X151188597Y-56174930D01*
X151140847Y-56290207D01*
X151140845Y-56290213D01*
X151116500Y-56412605D01*
X151116500Y-56906879D01*
X151097115Y-56966539D01*
X151090430Y-56974795D01*
X151010962Y-57063053D01*
X151010960Y-57063056D01*
X150915473Y-57228444D01*
X150915473Y-57228445D01*
X150856458Y-57410071D01*
X150856457Y-57410074D01*
X150836496Y-57599999D01*
X144233500Y-57599999D01*
X144233500Y-56856791D01*
X144252885Y-56797131D01*
X144303635Y-56760259D01*
X144304803Y-56759887D01*
X144407574Y-56727862D01*
X144407574Y-56727861D01*
X144407577Y-56727861D01*
X144549623Y-56641992D01*
X144666992Y-56524623D01*
X144752861Y-56382577D01*
X144753644Y-56380066D01*
X144802240Y-56224114D01*
X144802242Y-56224109D01*
X144808500Y-56155243D01*
X144808499Y-54394758D01*
X144802242Y-54325891D01*
X144753644Y-54169935D01*
X144752862Y-54167425D01*
X144752861Y-54167423D01*
X144666992Y-54025376D01*
X144549623Y-53908007D01*
X144407576Y-53822138D01*
X144407574Y-53822137D01*
X144249114Y-53772759D01*
X144249109Y-53772758D01*
X144249108Y-53772757D01*
X144249103Y-53772757D01*
X144180250Y-53766500D01*
X143019758Y-53766500D01*
X142950890Y-53772758D01*
X142792425Y-53822137D01*
X142792423Y-53822138D01*
X142650376Y-53908007D01*
X142533007Y-54025376D01*
X142447138Y-54167423D01*
X142447137Y-54167425D01*
X142397759Y-54325885D01*
X142397757Y-54325896D01*
X142391500Y-54394749D01*
X142391500Y-56155241D01*
X142397758Y-56224109D01*
X142447137Y-56382574D01*
X142447138Y-56382576D01*
X142533007Y-56524623D01*
X142650376Y-56641992D01*
X142792423Y-56727861D01*
X142792425Y-56727862D01*
X142895197Y-56759887D01*
X142946388Y-56796143D01*
X142966493Y-56855565D01*
X142966500Y-56856791D01*
X142966500Y-58537394D01*
X142990845Y-58659786D01*
X142990847Y-58659792D01*
X143038597Y-58775069D01*
X143038599Y-58775072D01*
X143038600Y-58775075D01*
X143107929Y-58878833D01*
X143107932Y-58878836D01*
X145761771Y-61532675D01*
X145790250Y-61588568D01*
X145791500Y-61604446D01*
X145791500Y-61923875D01*
X145801763Y-62024332D01*
X145801764Y-62024337D01*
X145855697Y-62187100D01*
X145855698Y-62187103D01*
X145945708Y-62333031D01*
X145945713Y-62333037D01*
X145945715Y-62333040D01*
X146066960Y-62454285D01*
X146068282Y-62455100D01*
X146068876Y-62455800D01*
X146071594Y-62457949D01*
X146071163Y-62458493D01*
X146108884Y-62502916D01*
X146116500Y-62541490D01*
X146116500Y-63208509D01*
X146097115Y-63268169D01*
X146071501Y-63291915D01*
X146071603Y-63292044D01*
X146069972Y-63293333D01*
X146068285Y-63294898D01*
X146066962Y-63295713D01*
X146066956Y-63295718D01*
X145945718Y-63416956D01*
X145945708Y-63416968D01*
X145855698Y-63562896D01*
X145855697Y-63562899D01*
X145801764Y-63725662D01*
X145801763Y-63725667D01*
X145791500Y-63826124D01*
X145791500Y-64423875D01*
X145801763Y-64524332D01*
X145801764Y-64524337D01*
X145855697Y-64687100D01*
X145855698Y-64687103D01*
X145945708Y-64833031D01*
X145945713Y-64833037D01*
X145945715Y-64833040D01*
X145945718Y-64833043D01*
X146036771Y-64924096D01*
X146065250Y-64979989D01*
X146066500Y-64995867D01*
X146066500Y-65814486D01*
X146047115Y-65874146D01*
X146036771Y-65886258D01*
X145965364Y-65957664D01*
X145909470Y-65986142D01*
X145847512Y-65976329D01*
X145818164Y-65953809D01*
X145811251Y-65946131D01*
X145656756Y-65833884D01*
X145648850Y-65830364D01*
X145482288Y-65756206D01*
X145482284Y-65756205D01*
X145295487Y-65716500D01*
X145104513Y-65716500D01*
X144917715Y-65756205D01*
X144917713Y-65756205D01*
X144917712Y-65756206D01*
X144830480Y-65795044D01*
X144743245Y-65833883D01*
X144588744Y-65946136D01*
X144588743Y-65946137D01*
X144460961Y-66088053D01*
X144435537Y-66132089D01*
X144365473Y-66253444D01*
X144365473Y-66253445D01*
X144306458Y-66435071D01*
X144306457Y-66435074D01*
X144286496Y-66624999D01*
X144286496Y-66625000D01*
X144306457Y-66814925D01*
X144306458Y-66814928D01*
X144365473Y-66996556D01*
X144449679Y-67142405D01*
X144460961Y-67161946D01*
X144588743Y-67303862D01*
X144588747Y-67303866D01*
X144714545Y-67395264D01*
X144741922Y-67415155D01*
X144743248Y-67416118D01*
X144917712Y-67493794D01*
X145057812Y-67523573D01*
X145104512Y-67533500D01*
X145104513Y-67533500D01*
X145295487Y-67533500D01*
X145482288Y-67493794D01*
X145656752Y-67416118D01*
X145763331Y-67338683D01*
X145822989Y-67319299D01*
X145882650Y-67338683D01*
X145909852Y-67368289D01*
X145938185Y-67415157D01*
X146059841Y-67536813D01*
X146059843Y-67536814D01*
X146059845Y-67536816D01*
X146060044Y-67536936D01*
X146060142Y-67537049D01*
X146064679Y-67540604D01*
X146063983Y-67541491D01*
X146101073Y-67584388D01*
X146106375Y-67646894D01*
X146073924Y-67700579D01*
X146016115Y-67724937D01*
X146007537Y-67725300D01*
X145946170Y-67725300D01*
X145946142Y-67725301D01*
X145885660Y-67731803D01*
X145885658Y-67731804D01*
X145748790Y-67782853D01*
X145748788Y-67782854D01*
X145631846Y-67870396D01*
X145544304Y-67987338D01*
X145544303Y-67987340D01*
X145493254Y-68124208D01*
X145493253Y-68124210D01*
X145486751Y-68184692D01*
X145486750Y-68184719D01*
X145486750Y-68246000D01*
X147963250Y-68246000D01*
X147963250Y-68184719D01*
X147963248Y-68184692D01*
X147956746Y-68124210D01*
X147956745Y-68124208D01*
X147905696Y-67987340D01*
X147905695Y-67987338D01*
X147818153Y-67870396D01*
X147701211Y-67782854D01*
X147701209Y-67782853D01*
X147564341Y-67731804D01*
X147564339Y-67731803D01*
X147503857Y-67725301D01*
X147503830Y-67725300D01*
X147392463Y-67725300D01*
X147332803Y-67705915D01*
X147295931Y-67655165D01*
X147295931Y-67592435D01*
X147332803Y-67541685D01*
X147339956Y-67536936D01*
X147340155Y-67536816D01*
X147383177Y-67493794D01*
X147453229Y-67423743D01*
X147509122Y-67395264D01*
X147571080Y-67405077D01*
X147596771Y-67423743D01*
X147709842Y-67536814D01*
X147709844Y-67536815D01*
X147709845Y-67536816D01*
X147717899Y-67541685D01*
X147857089Y-67625828D01*
X147924694Y-67646894D01*
X148021351Y-67677013D01*
X148092735Y-67683500D01*
X148395553Y-67683499D01*
X148455213Y-67702884D01*
X148467324Y-67713228D01*
X150460621Y-69706525D01*
X150489100Y-69762418D01*
X150490350Y-69778296D01*
X150490350Y-69884871D01*
X150470965Y-69944531D01*
X150420215Y-69981403D01*
X150399700Y-69985789D01*
X150366957Y-69989309D01*
X150366945Y-69989312D01*
X150229948Y-70040410D01*
X150229947Y-70040410D01*
X150229946Y-70040411D01*
X150112889Y-70128039D01*
X150045926Y-70217492D01*
X150025260Y-70245098D01*
X149989688Y-70340471D01*
X149950677Y-70389595D01*
X149894588Y-70406500D01*
X148006228Y-70406500D01*
X147946568Y-70387115D01*
X147909696Y-70336365D01*
X147909696Y-70273635D01*
X147911128Y-70269529D01*
X147923743Y-70235703D01*
X147957239Y-70145901D01*
X147963750Y-70085338D01*
X147963750Y-69454662D01*
X147957239Y-69394099D01*
X147906139Y-69257096D01*
X147859959Y-69195407D01*
X147839725Y-69136031D01*
X147858256Y-69076100D01*
X147859961Y-69073754D01*
X147905695Y-69012662D01*
X147905696Y-69012659D01*
X147956745Y-68875791D01*
X147956746Y-68875789D01*
X147963248Y-68815307D01*
X147963250Y-68815280D01*
X147963250Y-68754000D01*
X145486750Y-68754000D01*
X145486750Y-68815280D01*
X145486751Y-68815307D01*
X145493253Y-68875789D01*
X145493254Y-68875791D01*
X145539406Y-68999529D01*
X145542093Y-69062202D01*
X145507428Y-69114485D01*
X145448653Y-69136407D01*
X145444306Y-69136500D01*
X145242790Y-69136500D01*
X145183130Y-69117115D01*
X145167362Y-69102918D01*
X145161252Y-69096132D01*
X145161251Y-69096131D01*
X145006756Y-68983884D01*
X145006752Y-68983882D01*
X144832288Y-68906206D01*
X144832284Y-68906205D01*
X144645487Y-68866500D01*
X144454513Y-68866500D01*
X144267715Y-68906205D01*
X144267713Y-68906205D01*
X144267712Y-68906206D01*
X144180480Y-68945044D01*
X144093245Y-68983883D01*
X143938744Y-69096136D01*
X143938743Y-69096137D01*
X143810961Y-69238053D01*
X143799826Y-69257340D01*
X143715473Y-69403444D01*
X143698813Y-69454719D01*
X143656458Y-69585071D01*
X143656457Y-69585074D01*
X143636496Y-69774999D01*
X143636496Y-69775000D01*
X143656457Y-69964925D01*
X143656458Y-69964928D01*
X143715473Y-70146556D01*
X143788842Y-70273635D01*
X143810961Y-70311946D01*
X143928667Y-70442671D01*
X143938747Y-70453866D01*
X144093248Y-70566118D01*
X144267712Y-70643794D01*
X144407812Y-70673573D01*
X144454512Y-70683500D01*
X144454513Y-70683500D01*
X144645487Y-70683500D01*
X144832288Y-70643794D01*
X145006752Y-70566118D01*
X145060461Y-70527096D01*
X145161251Y-70453868D01*
X145161257Y-70453862D01*
X145176365Y-70437083D01*
X145230692Y-70405718D01*
X145251794Y-70403500D01*
X145443772Y-70403500D01*
X145503432Y-70422885D01*
X145540304Y-70473635D01*
X145540304Y-70536365D01*
X145538872Y-70540471D01*
X145492762Y-70664095D01*
X145492761Y-70664099D01*
X145486250Y-70724661D01*
X145486250Y-71355338D01*
X145492761Y-71415900D01*
X145492762Y-71415904D01*
X145543859Y-71552901D01*
X145589727Y-71614174D01*
X145609961Y-71673552D01*
X145591429Y-71733483D01*
X145589727Y-71735826D01*
X145543859Y-71797098D01*
X145492762Y-71934095D01*
X145492761Y-71934099D01*
X145486250Y-71994662D01*
X145486250Y-72625338D01*
X145492761Y-72685901D01*
X145543861Y-72822904D01*
X145631489Y-72939961D01*
X145748546Y-73027589D01*
X145885549Y-73078689D01*
X145946112Y-73085200D01*
X145990000Y-73085200D01*
X146049660Y-73104585D01*
X146086532Y-73155335D01*
X146091500Y-73186700D01*
X146091500Y-73608015D01*
X146072115Y-73667675D01*
X146021365Y-73704547D01*
X145958635Y-73704547D01*
X145958074Y-73704363D01*
X145799337Y-73651764D01*
X145799332Y-73651763D01*
X145698875Y-73641500D01*
X145698872Y-73641500D01*
X145379447Y-73641500D01*
X145319787Y-73622115D01*
X145307676Y-73611771D01*
X142545179Y-70849274D01*
X142516700Y-70793381D01*
X142515450Y-70777503D01*
X142515450Y-70724671D01*
X142515450Y-70724662D01*
X142508939Y-70664099D01*
X142457839Y-70527096D01*
X142411659Y-70465407D01*
X142391425Y-70406031D01*
X142409956Y-70346100D01*
X142411661Y-70343754D01*
X142457395Y-70282662D01*
X142457396Y-70282659D01*
X142508445Y-70145791D01*
X142508446Y-70145789D01*
X142514948Y-70085307D01*
X142514950Y-70085280D01*
X142514950Y-70024000D01*
X140038450Y-70024000D01*
X140038450Y-70085280D01*
X140038451Y-70085307D01*
X140044953Y-70145789D01*
X140044954Y-70145791D01*
X140096003Y-70282659D01*
X140096004Y-70282661D01*
X140141739Y-70343756D01*
X140161974Y-70403134D01*
X140143443Y-70463065D01*
X140141739Y-70465409D01*
X140095561Y-70527095D01*
X140095560Y-70527096D01*
X140044462Y-70664095D01*
X140044461Y-70664099D01*
X140037950Y-70724661D01*
X140037950Y-70940000D01*
X140018565Y-70999660D01*
X139967815Y-71036532D01*
X139936450Y-71041500D01*
X138856791Y-71041500D01*
X138797131Y-71022115D01*
X138760259Y-70971365D01*
X138759887Y-70970197D01*
X138727862Y-70867425D01*
X138727861Y-70867423D01*
X138641992Y-70725376D01*
X138524623Y-70608007D01*
X138382576Y-70522138D01*
X138382574Y-70522137D01*
X138224114Y-70472759D01*
X138224109Y-70472758D01*
X138224108Y-70472757D01*
X138224103Y-70472757D01*
X138155250Y-70466500D01*
X136394758Y-70466500D01*
X136325890Y-70472758D01*
X136167425Y-70522137D01*
X136167423Y-70522138D01*
X136025376Y-70608007D01*
X135908007Y-70725376D01*
X135822138Y-70867423D01*
X135822137Y-70867425D01*
X135772759Y-71025885D01*
X135772757Y-71025896D01*
X135766500Y-71094749D01*
X134463968Y-71094749D01*
X134464029Y-68815280D01*
X140038450Y-68815280D01*
X140038451Y-68815307D01*
X140044953Y-68875789D01*
X140044954Y-68875791D01*
X140096003Y-69012659D01*
X140096006Y-69012665D01*
X140142051Y-69074174D01*
X140162286Y-69133551D01*
X140143755Y-69193482D01*
X140142051Y-69195826D01*
X140096006Y-69257334D01*
X140096003Y-69257340D01*
X140044954Y-69394208D01*
X140044953Y-69394210D01*
X140038451Y-69454692D01*
X140038450Y-69454719D01*
X140038450Y-69516000D01*
X141022700Y-69516000D01*
X141530700Y-69516000D01*
X142514950Y-69516000D01*
X142514950Y-69454719D01*
X142514948Y-69454692D01*
X142508446Y-69394210D01*
X142508445Y-69394208D01*
X142457396Y-69257340D01*
X142457395Y-69257338D01*
X142411348Y-69195827D01*
X142391113Y-69136450D01*
X142409644Y-69076519D01*
X142411348Y-69074173D01*
X142457395Y-69012661D01*
X142457396Y-69012659D01*
X142508445Y-68875791D01*
X142508446Y-68875789D01*
X142514948Y-68815307D01*
X142514950Y-68815280D01*
X142514950Y-68754000D01*
X141530700Y-68754000D01*
X141530700Y-69516000D01*
X141022700Y-69516000D01*
X141022700Y-68754000D01*
X140038450Y-68754000D01*
X140038450Y-68815280D01*
X134464029Y-68815280D01*
X134464046Y-68184719D01*
X140038450Y-68184719D01*
X140038450Y-68246000D01*
X141022700Y-68246000D01*
X141530700Y-68246000D01*
X142514950Y-68246000D01*
X142514950Y-68184719D01*
X142514948Y-68184692D01*
X142508446Y-68124210D01*
X142508445Y-68124208D01*
X142457396Y-67987340D01*
X142457395Y-67987338D01*
X142369853Y-67870396D01*
X142252911Y-67782854D01*
X142252909Y-67782853D01*
X142116041Y-67731804D01*
X142116039Y-67731803D01*
X142055557Y-67725301D01*
X142055530Y-67725300D01*
X141530700Y-67725300D01*
X141530700Y-68246000D01*
X141022700Y-68246000D01*
X141022700Y-67725300D01*
X140497870Y-67725300D01*
X140497842Y-67725301D01*
X140437360Y-67731803D01*
X140437358Y-67731804D01*
X140300490Y-67782853D01*
X140300488Y-67782854D01*
X140183546Y-67870396D01*
X140096004Y-67987338D01*
X140096003Y-67987340D01*
X140044954Y-68124208D01*
X140044953Y-68124210D01*
X140038451Y-68184692D01*
X140038450Y-68184719D01*
X134464046Y-68184719D01*
X134464100Y-66191465D01*
X136167001Y-66191465D01*
X136169933Y-66228747D01*
X136216318Y-66388400D01*
X136300946Y-66531500D01*
X136418499Y-66649053D01*
X136561599Y-66733681D01*
X136721246Y-66780064D01*
X136758537Y-66782999D01*
X137021000Y-66782999D01*
X137529000Y-66782999D01*
X137791465Y-66782999D01*
X137828747Y-66780066D01*
X137988400Y-66733681D01*
X138131500Y-66649053D01*
X138249053Y-66531500D01*
X138333681Y-66388400D01*
X138380064Y-66228753D01*
X138383000Y-66191462D01*
X138383000Y-65829000D01*
X137529000Y-65829000D01*
X137529000Y-66782999D01*
X137021000Y-66782999D01*
X137021000Y-65829000D01*
X136167001Y-65829000D01*
X136167001Y-66191465D01*
X134464100Y-66191465D01*
X134464133Y-64958537D01*
X136167000Y-64958537D01*
X136167000Y-65321000D01*
X137021000Y-65321000D01*
X137529000Y-65321000D01*
X138382999Y-65321000D01*
X138382999Y-64958534D01*
X138380066Y-64921252D01*
X138333681Y-64761599D01*
X138249053Y-64618499D01*
X138131500Y-64500946D01*
X137988400Y-64416318D01*
X137828753Y-64369935D01*
X137791463Y-64367000D01*
X137529000Y-64367000D01*
X137529000Y-65321000D01*
X137021000Y-65321000D01*
X137021000Y-64367000D01*
X136758534Y-64367000D01*
X136758534Y-64367001D01*
X136721252Y-64369933D01*
X136561599Y-64416318D01*
X136418499Y-64500946D01*
X136300946Y-64618499D01*
X136216318Y-64761599D01*
X136169935Y-64921246D01*
X136167000Y-64958537D01*
X134464133Y-64958537D01*
X134464379Y-55791465D01*
X136292001Y-55791465D01*
X136294933Y-55828747D01*
X136341318Y-55988400D01*
X136425946Y-56131500D01*
X136543499Y-56249053D01*
X136686599Y-56333681D01*
X136846246Y-56380064D01*
X136883537Y-56382999D01*
X137246000Y-56382999D01*
X137754000Y-56382999D01*
X138116465Y-56382999D01*
X138153747Y-56380066D01*
X138313400Y-56333681D01*
X138456500Y-56249053D01*
X138574053Y-56131500D01*
X138658681Y-55988400D01*
X138705064Y-55828753D01*
X138708000Y-55791462D01*
X138708000Y-55529000D01*
X137754000Y-55529000D01*
X137754000Y-56382999D01*
X137246000Y-56382999D01*
X137246000Y-55529000D01*
X136292001Y-55529000D01*
X136292001Y-55791465D01*
X134464379Y-55791465D01*
X134464407Y-54758537D01*
X136292000Y-54758537D01*
X136292000Y-55021000D01*
X137246000Y-55021000D01*
X137754000Y-55021000D01*
X138707999Y-55021000D01*
X138707999Y-54758534D01*
X138705066Y-54721252D01*
X138658681Y-54561599D01*
X138574053Y-54418499D01*
X138456500Y-54300946D01*
X138313400Y-54216318D01*
X138153753Y-54169935D01*
X138116463Y-54167000D01*
X137754000Y-54167000D01*
X137754000Y-55021000D01*
X137246000Y-55021000D01*
X137246000Y-54167000D01*
X136883534Y-54167000D01*
X136883534Y-54167001D01*
X136846252Y-54169933D01*
X136686599Y-54216318D01*
X136543499Y-54300946D01*
X136425946Y-54418499D01*
X136341318Y-54561599D01*
X136294935Y-54721246D01*
X136292000Y-54758537D01*
X134464407Y-54758537D01*
X134464489Y-51724396D01*
X134483875Y-51664738D01*
X134534626Y-51627867D01*
X134565989Y-51622900D01*
X145477564Y-51622900D01*
X145537828Y-51606751D01*
X145553989Y-51602421D01*
X145553992Y-51602418D01*
X145553995Y-51602418D01*
X145584400Y-51584863D01*
X145622511Y-51562860D01*
X145678460Y-51506911D01*
X145718021Y-51438389D01*
X145738500Y-51361962D01*
X145738500Y-45965600D01*
X152769239Y-45965600D01*
X152788264Y-46268002D01*
X152788265Y-46268010D01*
X152845040Y-46565630D01*
X152845042Y-46565637D01*
X152938669Y-46853790D01*
X152938669Y-46853791D01*
X153067677Y-47127948D01*
X153067681Y-47127956D01*
X153230030Y-47383779D01*
X153309069Y-47479320D01*
X154243328Y-46545060D01*
X154342967Y-46682202D01*
X154465398Y-46804633D01*
X154602538Y-46904270D01*
X153666113Y-47840695D01*
X153889169Y-48002755D01*
X153889175Y-48002759D01*
X154154692Y-48148729D01*
X154436406Y-48260268D01*
X154436421Y-48260273D01*
X154729895Y-48335624D01*
X155030507Y-48373600D01*
X155333493Y-48373600D01*
X155634104Y-48335624D01*
X155927578Y-48260273D01*
X155927593Y-48260268D01*
X156209307Y-48148729D01*
X156474823Y-48002759D01*
X156697884Y-47840694D01*
X155761461Y-46904270D01*
X155898602Y-46804633D01*
X156021033Y-46682202D01*
X156120670Y-46545061D01*
X157054929Y-47479320D01*
X157054930Y-47479320D01*
X157133962Y-47383788D01*
X157133968Y-47383779D01*
X157296318Y-47127956D01*
X157296322Y-47127948D01*
X157425330Y-46853791D01*
X157425330Y-46853790D01*
X157518957Y-46565637D01*
X157518959Y-46565630D01*
X157575734Y-46268010D01*
X157575735Y-46268002D01*
X157594760Y-45965600D01*
X157575735Y-45663197D01*
X157575734Y-45663189D01*
X157518959Y-45365569D01*
X157518957Y-45365562D01*
X157425330Y-45077409D01*
X157425330Y-45077408D01*
X157296322Y-44803251D01*
X157296318Y-44803243D01*
X157133969Y-44547420D01*
X157054929Y-44451878D01*
X156120669Y-45386137D01*
X156021033Y-45248998D01*
X155898602Y-45126567D01*
X155761461Y-45026929D01*
X156697885Y-44090504D01*
X156697885Y-44090503D01*
X156474830Y-43928444D01*
X156474824Y-43928440D01*
X156209307Y-43782470D01*
X155927593Y-43670931D01*
X155927578Y-43670926D01*
X155634104Y-43595575D01*
X155333493Y-43557600D01*
X155030507Y-43557600D01*
X154729895Y-43595575D01*
X154436421Y-43670926D01*
X154436406Y-43670931D01*
X154154692Y-43782470D01*
X153889175Y-43928440D01*
X153889169Y-43928444D01*
X153666113Y-44090503D01*
X154602538Y-45026929D01*
X154465398Y-45126567D01*
X154342967Y-45248998D01*
X154243329Y-45386138D01*
X153309070Y-44451879D01*
X153309069Y-44451879D01*
X153230030Y-44547420D01*
X153067681Y-44803243D01*
X153067677Y-44803251D01*
X152938669Y-45077408D01*
X152938669Y-45077409D01*
X152845042Y-45365562D01*
X152845040Y-45365569D01*
X152788265Y-45663189D01*
X152788264Y-45663197D01*
X152769239Y-45965600D01*
X145738500Y-45965600D01*
X145738500Y-41208800D01*
X145757885Y-41149140D01*
X145808635Y-41112268D01*
X145840000Y-41107300D01*
X156751564Y-41107300D01*
X156811828Y-41091151D01*
X156827989Y-41086821D01*
X156827992Y-41086818D01*
X156827995Y-41086818D01*
X156845923Y-41076466D01*
X156896511Y-41047260D01*
X156952460Y-40991311D01*
X156992021Y-40922789D01*
X157012500Y-40846362D01*
X157012500Y-40208800D01*
X157031885Y-40149140D01*
X157082635Y-40112268D01*
X157114000Y-40107300D01*
X208182000Y-40107300D01*
X208241660Y-40126685D01*
G37*
%TD.AperFunction*%
M02*
