%TF.GenerationSoftware,KiCad,Pcbnew,8.0.4*%
%TF.CreationDate,2025-03-26T23:32:02-07:00*%
%TF.ProjectId,Stationary_X_Panel,53746174-696f-46e6-9172-795f585f5061,1.5*%
%TF.SameCoordinates,Original*%
%TF.FileFunction,Copper,L1,Top*%
%TF.FilePolarity,Positive*%
%FSLAX46Y46*%
G04 Gerber Fmt 4.6, Leading zero omitted, Abs format (unit mm)*
G04 Created by KiCad (PCBNEW 8.0.4) date 2025-03-26 23:32:02*
%MOMM*%
%LPD*%
G01*
G04 APERTURE LIST*
%TA.AperFunction,ComponentPad*%
%ADD10C,2.600000*%
%TD*%
%TA.AperFunction,ConnectorPad*%
%ADD11C,3.800000*%
%TD*%
%TA.AperFunction,ComponentPad*%
%ADD12C,3.000000*%
%TD*%
%TA.AperFunction,SMDPad,CuDef*%
%ADD13R,1.700000X2.500000*%
%TD*%
%TA.AperFunction,SMDPad,CuDef*%
%ADD14R,2.500000X1.700000*%
%TD*%
%TA.AperFunction,SMDPad,CuDef*%
%ADD15R,1.100000X1.450000*%
%TD*%
%TA.AperFunction,SMDPad,CuDef*%
%ADD16R,1.350000X2.900000*%
%TD*%
%TA.AperFunction,ViaPad*%
%ADD17C,0.800000*%
%TD*%
%TA.AperFunction,Conductor*%
%ADD18C,1.000000*%
%TD*%
%TA.AperFunction,Conductor*%
%ADD19C,0.635000*%
%TD*%
G04 APERTURE END LIST*
D10*
%TO.P,H12,1,1*%
%TO.N,GND*%
X109240000Y-127760000D03*
D11*
X109240000Y-127760000D03*
%TD*%
D12*
%TO.P,SC8,1,+*%
%TO.N,Net-(D7-A)*%
X98450000Y-95070000D03*
%TO.P,SC8,2,-*%
%TO.N,Net-(D8-A)*%
X89450000Y-95070000D03*
%TD*%
D13*
%TO.P,D14,1,K*%
%TO.N,VSOLAR*%
X59165000Y-95595000D03*
%TO.P,D14,2,A*%
%TO.N,SC1-6_+*%
X59165000Y-99595000D03*
%TD*%
%TO.P,D6,1,K*%
%TO.N,Net-(D5-A)*%
X66976000Y-221132000D03*
%TO.P,D6,2,A*%
%TO.N,GND*%
X66976000Y-217132000D03*
%TD*%
D12*
%TO.P,SC2,1,+*%
%TO.N,Net-(D1-A)*%
X51750000Y-85595000D03*
%TO.P,SC2,2,-*%
%TO.N,Net-(D2-A)*%
X42750000Y-85595000D03*
%TD*%
D14*
%TO.P,D4,1,K*%
%TO.N,Net-(D3-A)*%
X95415000Y-186095000D03*
%TO.P,D4,2,A*%
%TO.N,Net-(D4-A)*%
X91415000Y-186095000D03*
%TD*%
%TO.P,D2,1,K*%
%TO.N,Net-(D1-A)*%
X72715000Y-21670000D03*
%TO.P,D2,2,A*%
%TO.N,Net-(D2-A)*%
X68715000Y-21670000D03*
%TD*%
D10*
%TO.P,H8,1,1*%
%TO.N,GND*%
X32260000Y-231510000D03*
D11*
X32260000Y-231510000D03*
%TD*%
D12*
%TO.P,SC1,1,+*%
%TO.N,SC1-6_+*%
X66525000Y-59345000D03*
%TO.P,SC1,2,-*%
%TO.N,Net-(D1-A)*%
X75525000Y-59345000D03*
%TD*%
%TO.P,SC12,1,+*%
%TO.N,Net-(D11-A)*%
X74080000Y-206030000D03*
%TO.P,SC12,2,-*%
%TO.N,GND*%
X74080000Y-197030000D03*
%TD*%
%TO.P,SC11,1,+*%
%TO.N,Net-(D10-A)*%
X75240000Y-185520000D03*
%TO.P,SC11,2,-*%
%TO.N,Net-(D11-A)*%
X66240000Y-185520000D03*
%TD*%
D13*
%TO.P,D3,1,K*%
%TO.N,Net-(D2-A)*%
X60505000Y-117825000D03*
%TO.P,D3,2,A*%
%TO.N,Net-(D3-A)*%
X60505000Y-121825000D03*
%TD*%
D14*
%TO.P,D11,1,K*%
%TO.N,Net-(D10-A)*%
X90150000Y-178430000D03*
%TO.P,D11,2,A*%
%TO.N,Net-(D11-A)*%
X86150000Y-178430000D03*
%TD*%
%TO.P,D5,1,K*%
%TO.N,Net-(D4-A)*%
X59980000Y-202930000D03*
%TO.P,D5,2,A*%
%TO.N,Net-(D5-A)*%
X63980000Y-202930000D03*
%TD*%
D12*
%TO.P,SC9,1,+*%
%TO.N,Net-(D8-A)*%
X99970000Y-131590000D03*
%TO.P,SC9,2,-*%
%TO.N,Net-(D10-K)*%
X90970000Y-131590000D03*
%TD*%
D15*
%TO.P,J2,1,1*%
%TO.N,/RBF_DETECT*%
X41365000Y-24020000D03*
%TO.P,J2,2,2*%
%TO.N,/VBATT*%
X43365000Y-24020000D03*
%TO.P,J2,3,3*%
%TO.N,/VCHRG*%
X45365000Y-24020000D03*
%TO.P,J2,4,4*%
%TO.N,/VUSB_BAT*%
X47365000Y-24020000D03*
%TO.P,J2,5,5*%
%TO.N,/PYCUBED_GND*%
X49365000Y-24020000D03*
%TO.P,J2,6,6*%
%TO.N,/PYCUBED_GNDREF*%
X51365000Y-24020000D03*
D16*
%TO.P,J2,S1,SHIELD1*%
%TO.N,unconnected-(J2-SHIELD1-PadS1)*%
X38470000Y-29995000D03*
%TO.P,J2,S2,SHIELD2*%
%TO.N,unconnected-(J2-SHIELD2-PadS2)*%
X54260000Y-29995000D03*
%TD*%
D10*
%TO.P,H9,1,1*%
%TO.N,GND*%
X32240000Y-127750000D03*
D11*
X32240000Y-127750000D03*
%TD*%
D13*
%TO.P,D1,1,K*%
%TO.N,SC1-6_+*%
X80600000Y-32790000D03*
%TO.P,D1,2,A*%
%TO.N,Net-(D1-A)*%
X80600000Y-36790000D03*
%TD*%
D10*
%TO.P,H3,1,1*%
%TO.N,GND*%
X63000000Y-112500000D03*
D11*
X63000000Y-112500000D03*
%TD*%
D13*
%TO.P,D8,1,K*%
%TO.N,Net-(D7-A)*%
X82800000Y-109600000D03*
%TO.P,D8,2,A*%
%TO.N,Net-(D8-A)*%
X82800000Y-113600000D03*
%TD*%
D12*
%TO.P,SC7,1,+*%
%TO.N,SC7-12_+*%
X89665000Y-32845000D03*
%TO.P,SC7,2,-*%
%TO.N,Net-(D7-A)*%
X98665000Y-32845000D03*
%TD*%
D10*
%TO.P,H10,1,1*%
%TO.N,GND*%
X32250000Y-24010000D03*
D11*
X32250000Y-24010000D03*
%TD*%
D10*
%TO.P,H2,1,1*%
%TO.N,GND*%
X77200000Y-119400000D03*
D11*
X77200000Y-119400000D03*
%TD*%
D12*
%TO.P,SC6,1,+*%
%TO.N,Net-(D5-A)*%
X74080000Y-228670000D03*
%TO.P,SC6,2,-*%
%TO.N,GND*%
X74080000Y-219670000D03*
%TD*%
D10*
%TO.P,H5,1,1*%
%TO.N,GND*%
X63000000Y-96500000D03*
D11*
X63000000Y-96500000D03*
%TD*%
D12*
%TO.P,SC5,1,+*%
%TO.N,Net-(D4-A)*%
X51665000Y-193595000D03*
%TO.P,SC5,2,-*%
%TO.N,Net-(D5-A)*%
X42665000Y-193595000D03*
%TD*%
D10*
%TO.P,H7,1,1*%
%TO.N,GND*%
X109240000Y-231500000D03*
D11*
X109240000Y-231500000D03*
%TD*%
D10*
%TO.P,H4,1,1*%
%TO.N,GND*%
X79000000Y-112500000D03*
D11*
X79000000Y-112500000D03*
%TD*%
D14*
%TO.P,D13,1,K*%
%TO.N,VSOLAR*%
X92915000Y-24095000D03*
%TO.P,D13,2,A*%
%TO.N,SC7-12_+*%
X96915000Y-24095000D03*
%TD*%
D13*
%TO.P,D9,1,K*%
%TO.N,Net-(D8-A)*%
X82565000Y-117095000D03*
%TO.P,D9,2,A*%
%TO.N,Net-(D10-K)*%
X82565000Y-121095000D03*
%TD*%
%TO.P,D12,1,K*%
%TO.N,Net-(D11-A)*%
X63950000Y-198970000D03*
%TO.P,D12,2,A*%
%TO.N,GND*%
X63950000Y-194970000D03*
%TD*%
D10*
%TO.P,H11,1,1*%
%TO.N,GND*%
X109260000Y-24000000D03*
D11*
X109260000Y-24000000D03*
%TD*%
D12*
%TO.P,SC4,1,+*%
%TO.N,Net-(D3-A)*%
X50665000Y-157595000D03*
%TO.P,SC4,2,-*%
%TO.N,Net-(D4-A)*%
X41665000Y-157595000D03*
%TD*%
%TO.P,SC3,1,+*%
%TO.N,Net-(D2-A)*%
X50680000Y-121595000D03*
%TO.P,SC3,2,-*%
%TO.N,Net-(D3-A)*%
X41680000Y-121595000D03*
%TD*%
D14*
%TO.P,D10,1,K*%
%TO.N,Net-(D10-K)*%
X100060000Y-178520000D03*
%TO.P,D10,2,A*%
%TO.N,Net-(D10-A)*%
X96060000Y-178520000D03*
%TD*%
D12*
%TO.P,SC10,1,+*%
%TO.N,Net-(D10-K)*%
X100020000Y-167610000D03*
%TO.P,SC10,2,-*%
%TO.N,Net-(D10-A)*%
X91020000Y-167610000D03*
%TD*%
D10*
%TO.P,H6,1,1*%
%TO.N,GND*%
X79000000Y-96500000D03*
D11*
X79000000Y-96500000D03*
%TD*%
D10*
%TO.P,H1,1,1*%
%TO.N,BURN*%
X66100000Y-119400000D03*
D11*
X66100000Y-119400000D03*
%TD*%
D14*
%TO.P,D7,1,K*%
%TO.N,SC7-12_+*%
X100915000Y-23845000D03*
%TO.P,D7,2,A*%
%TO.N,Net-(D7-A)*%
X104915000Y-23845000D03*
%TD*%
D17*
%TO.N,VSOLAR*%
X73760000Y-90200000D03*
%TO.N,GND*%
X68900000Y-217160000D03*
X66980000Y-215120000D03*
X61730000Y-194950000D03*
X68480000Y-215630000D03*
X62160000Y-193290000D03*
X62440000Y-196420000D03*
%TO.N,SC1-6_+*%
X84590000Y-28695000D03*
%TO.N,BURN*%
X58823000Y-90937000D03*
%TO.N,SC7-12_+*%
X89560000Y-31050000D03*
%TO.N,/RBF_DETECT*%
X41310000Y-25970000D03*
%TO.N,/VUSB_BAT*%
X47310000Y-25910000D03*
%TO.N,/VCHRG*%
X45300000Y-25800000D03*
%TO.N,/VBATT*%
X43340000Y-25880000D03*
%TO.N,/PYCUBED_GND*%
X49340000Y-25880000D03*
%TO.N,/PYCUBED_GNDREF*%
X51290000Y-25780000D03*
%TD*%
D18*
%TO.N,VSOLAR*%
X73760000Y-90200000D02*
X73760000Y-83670000D01*
X86440000Y-33900000D02*
X88990000Y-36450000D01*
X86440000Y-30570000D02*
X86440000Y-33900000D01*
X59165000Y-95193428D02*
X59165000Y-96595000D01*
X88990000Y-65358428D02*
X72224214Y-82124214D01*
X88990000Y-36450000D02*
X88990000Y-65358428D01*
X72224214Y-82124214D02*
X72224214Y-82134214D01*
X92915000Y-24095000D02*
X86440000Y-30570000D01*
X73760000Y-83670000D02*
X72224214Y-82134214D01*
X72224214Y-82134214D02*
X59165000Y-95193428D01*
%TO.N,GND*%
X66978000Y-217132000D02*
X68480000Y-215630000D01*
X66976000Y-215124000D02*
X66980000Y-215120000D01*
X66976000Y-217132000D02*
X66976000Y-215124000D01*
X63950000Y-194970000D02*
X63840000Y-194970000D01*
X66976000Y-217132000D02*
X68872000Y-217132000D01*
X61750000Y-194970000D02*
X61730000Y-194950000D01*
X66976000Y-217132000D02*
X66978000Y-217132000D01*
X63840000Y-194970000D02*
X62160000Y-193290000D01*
X68872000Y-217132000D02*
X68900000Y-217160000D01*
X63950000Y-194970000D02*
X63890000Y-194970000D01*
X63890000Y-194970000D02*
X62440000Y-196420000D01*
X63950000Y-194970000D02*
X61750000Y-194970000D01*
%TO.N,SC1-6_+*%
X66525000Y-59345000D02*
X64345000Y-61525000D01*
X84590000Y-28695000D02*
X80600000Y-32685000D01*
X57165000Y-94095000D02*
X57615000Y-93645000D01*
X87240000Y-52250000D02*
X87240000Y-36800000D01*
X64345000Y-61525000D02*
X64085000Y-61785000D01*
X77945000Y-61545000D02*
X87240000Y-52250000D01*
X58295000Y-93645000D02*
X60200000Y-91740000D01*
X83230000Y-32790000D02*
X80600000Y-32790000D01*
X59165000Y-99595000D02*
X57165000Y-97595000D01*
X64085000Y-61785000D02*
X66930000Y-58940000D01*
X57615000Y-93645000D02*
X58295000Y-93645000D01*
X63275000Y-62595000D02*
X64345000Y-61525000D01*
X87240000Y-36800000D02*
X83230000Y-32790000D01*
X60200000Y-65670000D02*
X63275000Y-62595000D01*
X57165000Y-97595000D02*
X57165000Y-94095000D01*
X60200000Y-91740000D02*
X60200000Y-65670000D01*
X69535000Y-61545000D02*
X77945000Y-61545000D01*
X66930000Y-58940000D02*
X69535000Y-61545000D01*
X80600000Y-32685000D02*
X80600000Y-32790000D01*
%TO.N,Net-(D1-A)*%
X75560000Y-58920000D02*
X78190000Y-58920000D01*
X51750000Y-73850000D02*
X51750000Y-85595000D01*
X85330000Y-38400000D02*
X83720000Y-36790000D01*
X38245000Y-60345000D02*
X51750000Y-73850000D01*
X79150000Y-36790000D02*
X78150000Y-35790000D01*
X72440000Y-21670000D02*
X56440000Y-37670000D01*
X56440000Y-37670000D02*
X40410000Y-37670000D01*
X85330000Y-51780000D02*
X85330000Y-38400000D01*
X40410000Y-37670000D02*
X38245000Y-39835000D01*
X78190000Y-58920000D02*
X85330000Y-51780000D01*
X80600000Y-36790000D02*
X79150000Y-36790000D01*
X77120000Y-21670000D02*
X72440000Y-21670000D01*
X78150000Y-22700000D02*
X77120000Y-21670000D01*
X78150000Y-35790000D02*
X78150000Y-22700000D01*
X38245000Y-39835000D02*
X38245000Y-60345000D01*
X83720000Y-36790000D02*
X80600000Y-36790000D01*
%TO.N,Net-(D2-A)*%
X42750000Y-85595000D02*
X42750000Y-87595000D01*
X50680000Y-121595000D02*
X54450000Y-117825000D01*
X37045000Y-79890000D02*
X37045000Y-38715000D01*
X42750000Y-85595000D02*
X37045000Y-79890000D01*
X37045000Y-38715000D02*
X39665000Y-36095000D01*
X68715000Y-23045000D02*
X68715000Y-21670000D01*
X54450000Y-117825000D02*
X60505000Y-117825000D01*
X55665000Y-36095000D02*
X68715000Y-23045000D01*
X39665000Y-36095000D02*
X55665000Y-36095000D01*
X42750000Y-106125000D02*
X54450000Y-117825000D01*
X42750000Y-87595000D02*
X42750000Y-106125000D01*
%TO.N,Net-(D10-K)*%
X90970000Y-131590000D02*
X90970000Y-146120000D01*
X100020000Y-167610000D02*
X100020000Y-178480000D01*
X90970000Y-146120000D02*
X100020000Y-155170000D01*
X100020000Y-155170000D02*
X100020000Y-167610000D01*
X84065000Y-121095000D02*
X84115000Y-121045000D01*
X90970000Y-123444000D02*
X90970000Y-131590000D01*
X82565000Y-121095000D02*
X84065000Y-121095000D01*
X84115000Y-121045000D02*
X88571000Y-121045000D01*
X100020000Y-178480000D02*
X100060000Y-178520000D01*
X88571000Y-121045000D02*
X90970000Y-123444000D01*
%TO.N,Net-(D10-A)*%
X83060000Y-185520000D02*
X75240000Y-185520000D01*
X90150000Y-178430000D02*
X90150000Y-168480000D01*
X90240000Y-178520000D02*
X90150000Y-178430000D01*
X90150000Y-168480000D02*
X91020000Y-167610000D01*
X90150000Y-178430000D02*
X83060000Y-185520000D01*
X96060000Y-178520000D02*
X90240000Y-178520000D01*
%TO.N,Net-(D11-A)*%
X73330000Y-178430000D02*
X66240000Y-185520000D01*
X66240000Y-197670000D02*
X66240000Y-185520000D01*
X65410000Y-198970000D02*
X66240000Y-198140000D01*
X74080000Y-205510000D02*
X74080000Y-206030000D01*
X66240000Y-198140000D02*
X66710000Y-198140000D01*
X66710000Y-198140000D02*
X74080000Y-205510000D01*
X86150000Y-178430000D02*
X73330000Y-178430000D01*
X66710000Y-198140000D02*
X66240000Y-197670000D01*
X63950000Y-198970000D02*
X65410000Y-198970000D01*
%TO.N,Net-(D3-A)*%
X44680000Y-126595000D02*
X44680000Y-124595000D01*
X44922500Y-126352500D02*
X44922500Y-124837500D01*
X44680000Y-126595000D02*
X44922500Y-126352500D01*
X98010000Y-171488730D02*
X98010000Y-183180000D01*
X50665000Y-157595000D02*
X44680000Y-151610000D01*
X44680000Y-151610000D02*
X44680000Y-126595000D01*
X84116270Y-157595000D02*
X98010000Y-171488730D01*
X98010000Y-183180000D02*
X95505000Y-185685000D01*
X44680000Y-124595000D02*
X57735000Y-124595000D01*
X57735000Y-124595000D02*
X60505000Y-121825000D01*
X51665000Y-157595000D02*
X84116270Y-157595000D01*
X44922500Y-124837500D02*
X41680000Y-121595000D01*
%TO.N,Net-(D4-A)*%
X78665000Y-209595000D02*
X91415000Y-196845000D01*
X41665000Y-175725000D02*
X41665000Y-158595000D01*
X59980000Y-202930000D02*
X61990000Y-200920000D01*
X51730000Y-185790000D02*
X41665000Y-175725000D01*
X73915000Y-209595000D02*
X78665000Y-209595000D01*
X59980000Y-202660000D02*
X51730000Y-194410000D01*
X61990000Y-200920000D02*
X65240000Y-200920000D01*
X65240000Y-200920000D02*
X73915000Y-209595000D01*
X91415000Y-196845000D02*
X91415000Y-186095000D01*
X59980000Y-202930000D02*
X59980000Y-202660000D01*
X51730000Y-194410000D02*
X51730000Y-185790000D01*
%TO.N,Net-(D5-A)*%
X66976000Y-221132000D02*
X65692000Y-221132000D01*
X70350000Y-228670000D02*
X74080000Y-228670000D01*
X65165000Y-204115000D02*
X63980000Y-202930000D01*
X65165000Y-220605000D02*
X65165000Y-204115000D01*
X66976000Y-225296000D02*
X70350000Y-228670000D01*
X46730000Y-193000000D02*
X42730000Y-193000000D01*
X63980000Y-202930000D02*
X62190000Y-204720000D01*
X58450000Y-204720000D02*
X46730000Y-193000000D01*
X66976000Y-221132000D02*
X66976000Y-225296000D01*
X62190000Y-204720000D02*
X58450000Y-204720000D01*
X65692000Y-221132000D02*
X65165000Y-220605000D01*
%TO.N,Net-(D7-A)*%
X85415000Y-107235000D02*
X83050000Y-109600000D01*
X104915000Y-24525000D02*
X104915000Y-23845000D01*
X85415000Y-84595000D02*
X87975000Y-84595000D01*
X85415000Y-84595000D02*
X85415000Y-107235000D01*
X82805000Y-109595000D02*
X82915000Y-109595000D01*
X82800000Y-109600000D02*
X82805000Y-109595000D01*
X98560000Y-30880000D02*
X104915000Y-24525000D01*
X83050000Y-109600000D02*
X82800000Y-109600000D01*
X98560000Y-71450000D02*
X98560000Y-30880000D01*
X85415000Y-84595000D02*
X98560000Y-71450000D01*
X87975000Y-84595000D02*
X98450000Y-95070000D01*
%TO.N,Net-(D8-A)*%
X83170000Y-113600000D02*
X84800000Y-115230000D01*
X82800000Y-113600000D02*
X83170000Y-113600000D01*
X84800000Y-115230000D02*
X87373000Y-112657000D01*
X99970000Y-124050000D02*
X89500000Y-113580000D01*
X87373000Y-97147000D02*
X89450000Y-95070000D01*
X89500000Y-113580000D02*
X87373000Y-111453000D01*
X87373000Y-111453000D02*
X87373000Y-97147000D01*
X82565000Y-117465000D02*
X84800000Y-115230000D01*
X99970000Y-131590000D02*
X99970000Y-124050000D01*
X87373000Y-112657000D02*
X87373000Y-111453000D01*
%TO.N,BURN*%
X56823000Y-90937000D02*
X55165000Y-92595000D01*
X55165000Y-92595000D02*
X55165000Y-108765000D01*
X55165000Y-108765000D02*
X65800000Y-119400000D01*
X65800000Y-119400000D02*
X66100000Y-119400000D01*
X58823000Y-90937000D02*
X56823000Y-90937000D01*
%TO.N,SC7-12_+*%
X89560000Y-31050000D02*
X89665000Y-31155000D01*
X100665000Y-24095000D02*
X100915000Y-23845000D01*
X96915000Y-24095000D02*
X100665000Y-24095000D01*
X96515000Y-24095000D02*
X96915000Y-24095000D01*
X89560000Y-32800000D02*
X89560000Y-31050000D01*
X89560000Y-31050000D02*
X96515000Y-24095000D01*
X89665000Y-31155000D02*
X89665000Y-32845000D01*
%TO.N,/RBF_DETECT*%
X41315000Y-24305000D02*
X41315000Y-25965000D01*
D19*
X41315000Y-25965000D02*
X41310000Y-25970000D01*
%TO.N,/VUSB_BAT*%
X47315000Y-25905000D02*
X47310000Y-25910000D01*
D18*
X47315000Y-24305000D02*
X47315000Y-25905000D01*
D19*
%TO.N,/VCHRG*%
X45315000Y-25785000D02*
X45300000Y-25800000D01*
D18*
X45315000Y-24305000D02*
X45315000Y-25785000D01*
D19*
%TO.N,/VBATT*%
X43315000Y-25855000D02*
X43340000Y-25880000D01*
D18*
X43315000Y-24305000D02*
X43315000Y-25855000D01*
D19*
%TO.N,/PYCUBED_GND*%
X49315000Y-25855000D02*
X49340000Y-25880000D01*
D18*
X49315000Y-24305000D02*
X49315000Y-25855000D01*
D19*
%TO.N,/PYCUBED_GNDREF*%
X51315000Y-25755000D02*
X51290000Y-25780000D01*
D18*
X51315000Y-24305000D02*
X51315000Y-25755000D01*
%TD*%
M02*
