%TF.GenerationSoftware,KiCad,Pcbnew,8.0.6-8.0.6-0~ubuntu24.04.1*%
%TF.CreationDate,2025-01-16T22:58:50-08:00*%
%TF.ProjectId,reaction_wheel,72656163-7469-46f6-9e5f-776865656c2e,v1a*%
%TF.SameCoordinates,Original*%
%TF.FileFunction,Paste,Top*%
%TF.FilePolarity,Positive*%
%FSLAX46Y46*%
G04 Gerber Fmt 4.6, Leading zero omitted, Abs format (unit mm)*
G04 Created by KiCad (PCBNEW 8.0.6-8.0.6-0~ubuntu24.04.1) date 2025-01-16 22:58:50*
%MOMM*%
%LPD*%
G01*
G04 APERTURE LIST*
G04 Aperture macros list*
%AMRoundRect*
0 Rectangle with rounded corners*
0 $1 Rounding radius*
0 $2 $3 $4 $5 $6 $7 $8 $9 X,Y pos of 4 corners*
0 Add a 4 corners polygon primitive as box body*
4,1,4,$2,$3,$4,$5,$6,$7,$8,$9,$2,$3,0*
0 Add four circle primitives for the rounded corners*
1,1,$1+$1,$2,$3*
1,1,$1+$1,$4,$5*
1,1,$1+$1,$6,$7*
1,1,$1+$1,$8,$9*
0 Add four rect primitives between the rounded corners*
20,1,$1+$1,$2,$3,$4,$5,0*
20,1,$1+$1,$4,$5,$6,$7,0*
20,1,$1+$1,$6,$7,$8,$9,0*
20,1,$1+$1,$8,$9,$2,$3,0*%
G04 Aperture macros list end*
%ADD10RoundRect,0.225000X-0.250000X0.225000X-0.250000X-0.225000X0.250000X-0.225000X0.250000X0.225000X0*%
%ADD11R,0.000001X0.250001*%
%ADD12O,0.600000X0.200000*%
%ADD13O,0.200000X0.600000*%
%ADD14R,2.700000X3.700000*%
%ADD15RoundRect,0.225000X0.225000X0.250000X-0.225000X0.250000X-0.225000X-0.250000X0.225000X-0.250000X0*%
%ADD16RoundRect,0.200000X0.200000X0.275000X-0.200000X0.275000X-0.200000X-0.275000X0.200000X-0.275000X0*%
%ADD17RoundRect,0.225000X0.250000X-0.225000X0.250000X0.225000X-0.250000X0.225000X-0.250000X-0.225000X0*%
%ADD18RoundRect,0.200000X-0.275000X0.200000X-0.275000X-0.200000X0.275000X-0.200000X0.275000X0.200000X0*%
%ADD19RoundRect,0.225000X-0.225000X-0.250000X0.225000X-0.250000X0.225000X0.250000X-0.225000X0.250000X0*%
G04 APERTURE END LIST*
D10*
%TO.C,C3*%
X143897500Y-70522500D03*
X143897500Y-72072500D03*
%TD*%
D11*
%TO.C,U1*%
X136650000Y-76975000D03*
X136650000Y-77900000D03*
X136650000Y-78825000D03*
X136650000Y-79750000D03*
X137325000Y-76975000D03*
X137325000Y-77900000D03*
X137325000Y-78825000D03*
X137325000Y-79750000D03*
X138000000Y-76975000D03*
X138000000Y-77900000D03*
X138000000Y-78825000D03*
X138000000Y-79750000D03*
X138675000Y-76975000D03*
X138675000Y-77900000D03*
X138675000Y-78825000D03*
X138675000Y-79750000D03*
D12*
X135762500Y-76562500D03*
X135762500Y-76962500D03*
X135762500Y-77362500D03*
X135762500Y-77762500D03*
X135762500Y-78162500D03*
X135762500Y-78562500D03*
X135762500Y-78962500D03*
X135762500Y-79362500D03*
X135762500Y-79762500D03*
X135762500Y-80162500D03*
D13*
X136262500Y-80762500D03*
X136662500Y-80762500D03*
X137062500Y-80762500D03*
X137462500Y-80762500D03*
X137862500Y-80762500D03*
X138262500Y-80762500D03*
X138662500Y-80762500D03*
X139062500Y-80762500D03*
D12*
X139562500Y-80162500D03*
X139562500Y-79762500D03*
X139562500Y-79362500D03*
X139562500Y-78962500D03*
X139562500Y-78562500D03*
X139562500Y-78162500D03*
X139562500Y-77762500D03*
X139562500Y-77362500D03*
X139562500Y-76962500D03*
X139562500Y-76562500D03*
D13*
X139062500Y-75962500D03*
X138662500Y-75962500D03*
X138262500Y-75962500D03*
X137862500Y-75962500D03*
X137462500Y-75962500D03*
X137062500Y-75962500D03*
X136662500Y-75962500D03*
X136262500Y-75962500D03*
D14*
X137662500Y-78362500D03*
%TD*%
D10*
%TO.C,C2*%
X136662500Y-70287500D03*
X136662500Y-71837500D03*
%TD*%
D15*
%TO.C,C9*%
X143012500Y-74562500D03*
X141462500Y-74562500D03*
%TD*%
D10*
%TO.C,C4*%
X131662500Y-70987500D03*
X131662500Y-72537500D03*
%TD*%
%TO.C,C8*%
X134062500Y-68887500D03*
X134062500Y-70437500D03*
%TD*%
%TO.C,C10*%
X129862500Y-76887500D03*
X129862500Y-78437500D03*
%TD*%
D16*
%TO.C,R4*%
X138237500Y-67562500D03*
X136587500Y-67562500D03*
%TD*%
D10*
%TO.C,C7*%
X141262500Y-80187500D03*
X141262500Y-81737500D03*
%TD*%
D17*
%TO.C,C12*%
X131662500Y-81812500D03*
X131662500Y-80262500D03*
%TD*%
D18*
%TO.C,R5*%
X134062500Y-72837500D03*
X134062500Y-74487500D03*
%TD*%
D10*
%TO.C,C11*%
X131412500Y-76912500D03*
X131412500Y-78462500D03*
%TD*%
D16*
%TO.C,R1*%
X141722500Y-67562500D03*
X140072500Y-67562500D03*
%TD*%
D17*
%TO.C,C6*%
X129862500Y-81812500D03*
X129862500Y-80262500D03*
%TD*%
D10*
%TO.C,C1*%
X140122500Y-70522500D03*
X140122500Y-72072500D03*
%TD*%
D19*
%TO.C,C5*%
X130187500Y-74062500D03*
X131737500Y-74062500D03*
%TD*%
D16*
%TO.C,R2*%
X145662500Y-67562500D03*
X144012500Y-67562500D03*
%TD*%
M02*
