%TF.GenerationSoftware,KiCad,Pcbnew,9.0.1*%
%TF.CreationDate,2025-04-06T12:30:08-07:00*%
%TF.ProjectId,Groundstation_2400_Hat,47726f75-6e64-4737-9461-74696f6e5f32,1.1*%
%TF.SameCoordinates,Original*%
%TF.FileFunction,Copper,L3,Inr*%
%TF.FilePolarity,Positive*%
%FSLAX46Y46*%
G04 Gerber Fmt 4.6, Leading zero omitted, Abs format (unit mm)*
G04 Created by KiCad (PCBNEW 9.0.1) date 2025-04-06 12:30:08*
%MOMM*%
%LPD*%
G01*
G04 APERTURE LIST*
%TA.AperFunction,ComponentPad*%
%ADD10C,4.700000*%
%TD*%
%TA.AperFunction,ComponentPad*%
%ADD11R,1.700000X1.700000*%
%TD*%
%TA.AperFunction,ComponentPad*%
%ADD12O,1.700000X1.700000*%
%TD*%
%TA.AperFunction,ViaPad*%
%ADD13C,0.800000*%
%TD*%
G04 APERTURE END LIST*
D10*
%TO.N,unconnected-(H3-Pad1)*%
%TO.C,H3*%
X103500000Y-103500000D03*
%TD*%
%TO.N,unconnected-(H2-Pad1)*%
%TO.C,H2*%
X103500000Y-153000000D03*
%TD*%
%TO.N,unconnected-(H4-Pad1)*%
%TO.C,H4*%
X161500000Y-153000000D03*
%TD*%
%TO.N,unconnected-(H1-Pad1)*%
%TO.C,H1*%
X161500000Y-103500000D03*
%TD*%
D11*
%TO.N,+3.3V*%
%TO.C,J2*%
X108400000Y-105000000D03*
D12*
%TO.N,+5V*%
X108400000Y-102460000D03*
%TO.N,unconnected-(J2-Pin_3-Pad3)*%
X110940000Y-105000000D03*
%TO.N,+5V*%
X110940000Y-102460000D03*
%TO.N,unconnected-(J2-Pin_5-Pad5)*%
X113480000Y-105000000D03*
%TO.N,GND*%
X113480000Y-102460000D03*
%TO.N,unconnected-(J2-Pin_7-Pad7)*%
X116020000Y-105000000D03*
%TO.N,unconnected-(J2-Pin_8-Pad8)*%
X116020000Y-102460000D03*
%TO.N,GND*%
X118560000Y-105000000D03*
%TO.N,unconnected-(J2-Pin_10-Pad10)*%
X118560000Y-102460000D03*
%TO.N,unconnected-(J2-Pin_11-Pad11)*%
X121100000Y-105000000D03*
%TO.N,unconnected-(J2-Pin_12-Pad12)*%
X121100000Y-102460000D03*
%TO.N,unconnected-(J2-Pin_13-Pad13)*%
X123640000Y-105000000D03*
%TO.N,GND*%
X123640000Y-102460000D03*
%TO.N,RF_RST*%
X126180000Y-105000000D03*
%TO.N,RF_TX_EN*%
X126180000Y-102460000D03*
%TO.N,unconnected-(J2-Pin_17-Pad17)*%
X128720000Y-105000000D03*
%TO.N,RF_RX_EN*%
X128720000Y-102460000D03*
%TO.N,MOSI*%
X131260000Y-105000000D03*
%TO.N,GND*%
X131260000Y-102460000D03*
%TO.N,MISO*%
X133800000Y-105000000D03*
%TO.N,TCXO_EN*%
X133800000Y-102460000D03*
%TO.N,SCLK*%
X136340000Y-105000000D03*
%TO.N,unconnected-(J2-Pin_24-Pad24)*%
X136340000Y-102460000D03*
%TO.N,GND*%
X138880000Y-105000000D03*
%TO.N,unconnected-(J2-Pin_26-Pad26)*%
X138880000Y-102460000D03*
%TO.N,unconnected-(J2-Pin_27-Pad27)*%
X141420000Y-105000000D03*
%TO.N,unconnected-(J2-Pin_28-Pad28)*%
X141420000Y-102460000D03*
%TO.N,RF_CS*%
X143960000Y-105000000D03*
%TO.N,GND*%
X143960000Y-102460000D03*
%TO.N,unconnected-(J2-Pin_31-Pad31)*%
X146500000Y-105000000D03*
%TO.N,unconnected-(J2-Pin_32-Pad32)*%
X146500000Y-102460000D03*
%TO.N,unconnected-(J2-Pin_33-Pad33)*%
X149040000Y-105000000D03*
%TO.N,GND*%
X149040000Y-102460000D03*
%TO.N,RF_IO1*%
X151580000Y-105000000D03*
%TO.N,unconnected-(J2-Pin_36-Pad36)*%
X151580000Y-102460000D03*
%TO.N,RF_BUSY*%
X154120000Y-105000000D03*
%TO.N,RF_IO2*%
X154120000Y-102460000D03*
%TO.N,GND*%
X156660000Y-105000000D03*
%TO.N,RF_IO3*%
X156660000Y-102460000D03*
%TD*%
D13*
%TO.N,+5V*%
X155000000Y-127000000D03*
%TO.N,GND*%
X128000000Y-120000000D03*
X118000000Y-127250000D03*
X125000000Y-117000000D03*
X110500000Y-113430000D03*
X119250000Y-127250000D03*
X120500000Y-124000000D03*
X110500000Y-115930000D03*
X115500000Y-119500000D03*
X115500000Y-117500000D03*
X149500000Y-111500000D03*
X150000000Y-128500000D03*
X128000000Y-118500000D03*
X125000000Y-124000000D03*
X102000000Y-116500000D03*
X104500000Y-116500000D03*
X104000000Y-131000000D03*
X122000000Y-117000000D03*
X115500000Y-120500000D03*
X123500000Y-124000000D03*
X128000000Y-117000000D03*
X115500000Y-118500000D03*
X123500000Y-117000000D03*
X120500000Y-117000000D03*
X122000000Y-124000000D03*
X126500000Y-124000000D03*
X128000000Y-123000000D03*
X155000000Y-128500000D03*
X101750000Y-131000000D03*
X128000000Y-121500000D03*
X126500000Y-117000000D03*
X110500000Y-109000000D03*
%TO.N,RF_BUSY*%
X153750000Y-121500000D03*
%TO.N,RF_IO1*%
X151125000Y-121625000D03*
%TO.N,+3.3V*%
X139250000Y-125250000D03*
%TO.N,TCXO_EN*%
X147500000Y-125500000D03*
%TO.N,RF_TX_EN*%
X119500000Y-114500000D03*
%TO.N,RF_CS*%
X147500000Y-118000000D03*
%TD*%
%TA.AperFunction,Conductor*%
%TO.N,+5V*%
G36*
X110474075Y-102267007D02*
G01*
X110440000Y-102394174D01*
X110440000Y-102525826D01*
X110474075Y-102652993D01*
X110506988Y-102710000D01*
X108833012Y-102710000D01*
X108865925Y-102652993D01*
X108900000Y-102525826D01*
X108900000Y-102394174D01*
X108865925Y-102267007D01*
X108833012Y-102210000D01*
X110506988Y-102210000D01*
X110474075Y-102267007D01*
G37*
%TD.AperFunction*%
%TA.AperFunction,Conductor*%
G36*
X161503243Y-100300669D02*
G01*
X161827952Y-100317687D01*
X161840860Y-100319044D01*
X162158794Y-100369400D01*
X162171478Y-100372095D01*
X162482429Y-100455414D01*
X162494770Y-100459425D01*
X162795282Y-100574780D01*
X162807138Y-100580058D01*
X163093976Y-100726210D01*
X163105192Y-100732686D01*
X163375165Y-100908008D01*
X163385666Y-100915637D01*
X163635836Y-101118221D01*
X163645481Y-101126906D01*
X163873093Y-101354518D01*
X163881778Y-101364163D01*
X164084362Y-101614333D01*
X164091991Y-101624834D01*
X164267310Y-101894802D01*
X164273792Y-101906029D01*
X164319894Y-101996507D01*
X164419940Y-102192859D01*
X164425219Y-102204717D01*
X164540574Y-102505229D01*
X164544585Y-102517572D01*
X164627902Y-102828515D01*
X164630600Y-102841211D01*
X164680955Y-103159139D01*
X164682312Y-103172047D01*
X164699330Y-103496756D01*
X164699500Y-103503246D01*
X164699500Y-152996753D01*
X164699330Y-153003243D01*
X164682312Y-153327952D01*
X164680955Y-153340860D01*
X164630600Y-153658788D01*
X164627902Y-153671484D01*
X164544585Y-153982427D01*
X164540574Y-153994770D01*
X164425219Y-154295282D01*
X164419940Y-154307140D01*
X164273796Y-154593964D01*
X164267306Y-154605204D01*
X164091991Y-154875165D01*
X164084362Y-154885666D01*
X163881778Y-155135836D01*
X163873093Y-155145481D01*
X163645481Y-155373093D01*
X163635836Y-155381778D01*
X163385666Y-155584362D01*
X163375165Y-155591991D01*
X163105204Y-155767306D01*
X163093964Y-155773796D01*
X162807140Y-155919940D01*
X162795282Y-155925219D01*
X162494770Y-156040574D01*
X162482427Y-156044585D01*
X162171484Y-156127902D01*
X162158788Y-156130600D01*
X161840860Y-156180955D01*
X161827952Y-156182312D01*
X161503244Y-156199330D01*
X161496754Y-156199500D01*
X103503246Y-156199500D01*
X103496756Y-156199330D01*
X103172047Y-156182312D01*
X103159139Y-156180955D01*
X102841211Y-156130600D01*
X102828515Y-156127902D01*
X102517572Y-156044585D01*
X102505229Y-156040574D01*
X102204717Y-155925219D01*
X102192859Y-155919940D01*
X101995501Y-155819381D01*
X101906029Y-155773792D01*
X101894802Y-155767310D01*
X101624834Y-155591991D01*
X101614333Y-155584362D01*
X101364163Y-155381778D01*
X101354518Y-155373093D01*
X101126906Y-155145481D01*
X101118221Y-155135836D01*
X100915637Y-154885666D01*
X100908008Y-154875165D01*
X100826329Y-154749390D01*
X100732686Y-154605192D01*
X100726210Y-154593976D01*
X100580058Y-154307138D01*
X100574780Y-154295282D01*
X100459425Y-153994770D01*
X100455414Y-153982427D01*
X100372095Y-153671478D01*
X100369399Y-153658788D01*
X100365717Y-153635542D01*
X100319044Y-153340860D01*
X100317687Y-153327952D01*
X100300670Y-153003243D01*
X100300585Y-152999994D01*
X100944457Y-152999994D01*
X100944457Y-153000005D01*
X100964606Y-153320283D01*
X100964607Y-153320290D01*
X101024745Y-153635542D01*
X101123916Y-153940759D01*
X101123918Y-153940764D01*
X101260558Y-154231138D01*
X101260562Y-154231144D01*
X101432520Y-154502108D01*
X101432522Y-154502111D01*
X101637087Y-154749388D01*
X101637089Y-154749390D01*
X101857325Y-154956204D01*
X101871034Y-154969078D01*
X101871044Y-154969086D01*
X102130660Y-155157708D01*
X102130666Y-155157711D01*
X102130672Y-155157716D01*
X102411903Y-155312324D01*
X102710294Y-155430466D01*
X102710293Y-155430466D01*
X103021135Y-155510276D01*
X103021139Y-155510277D01*
X103087935Y-155518715D01*
X103339524Y-155550499D01*
X103339533Y-155550499D01*
X103339536Y-155550500D01*
X103339538Y-155550500D01*
X103660462Y-155550500D01*
X103660464Y-155550500D01*
X103660467Y-155550499D01*
X103660475Y-155550499D01*
X103850463Y-155526497D01*
X103978861Y-155510277D01*
X104289706Y-155430466D01*
X104588097Y-155312324D01*
X104869328Y-155157716D01*
X105128964Y-154969080D01*
X105362911Y-154749390D01*
X105567478Y-154502110D01*
X105739439Y-154231142D01*
X105876084Y-153940758D01*
X105975256Y-153635538D01*
X106035392Y-153320294D01*
X106055543Y-153000000D01*
X106055543Y-152999994D01*
X158944457Y-152999994D01*
X158944457Y-153000005D01*
X158964606Y-153320283D01*
X158964607Y-153320290D01*
X159024745Y-153635542D01*
X159123916Y-153940759D01*
X159123918Y-153940764D01*
X159260558Y-154231138D01*
X159260562Y-154231144D01*
X159432520Y-154502108D01*
X159432522Y-154502111D01*
X159637087Y-154749388D01*
X159637089Y-154749390D01*
X159857325Y-154956204D01*
X159871034Y-154969078D01*
X159871044Y-154969086D01*
X160130660Y-155157708D01*
X160130666Y-155157711D01*
X160130672Y-155157716D01*
X160411903Y-155312324D01*
X160710294Y-155430466D01*
X160710293Y-155430466D01*
X161021135Y-155510276D01*
X161021139Y-155510277D01*
X161087935Y-155518715D01*
X161339524Y-155550499D01*
X161339533Y-155550499D01*
X161339536Y-155550500D01*
X161339538Y-155550500D01*
X161660462Y-155550500D01*
X161660464Y-155550500D01*
X161660467Y-155550499D01*
X161660475Y-155550499D01*
X161850463Y-155526497D01*
X161978861Y-155510277D01*
X162289706Y-155430466D01*
X162588097Y-155312324D01*
X162869328Y-155157716D01*
X163128964Y-154969080D01*
X163362911Y-154749390D01*
X163567478Y-154502110D01*
X163739439Y-154231142D01*
X163876084Y-153940758D01*
X163975256Y-153635538D01*
X164035392Y-153320294D01*
X164055543Y-153000000D01*
X164035392Y-152679706D01*
X163975256Y-152364462D01*
X163876084Y-152059242D01*
X163876081Y-152059235D01*
X163739441Y-151768861D01*
X163739437Y-151768855D01*
X163567479Y-151497891D01*
X163567477Y-151497888D01*
X163362912Y-151250611D01*
X163128965Y-151030921D01*
X163128955Y-151030913D01*
X162869339Y-150842291D01*
X162869321Y-150842280D01*
X162588096Y-150687675D01*
X162588093Y-150687674D01*
X162289703Y-150569533D01*
X162289706Y-150569533D01*
X161978864Y-150489723D01*
X161978851Y-150489721D01*
X161660475Y-150449500D01*
X161660464Y-150449500D01*
X161339536Y-150449500D01*
X161339524Y-150449500D01*
X161021148Y-150489721D01*
X161021135Y-150489723D01*
X160710294Y-150569533D01*
X160411906Y-150687674D01*
X160411903Y-150687675D01*
X160130678Y-150842280D01*
X160130660Y-150842291D01*
X159871044Y-151030913D01*
X159871034Y-151030921D01*
X159637087Y-151250611D01*
X159432522Y-151497888D01*
X159432520Y-151497891D01*
X159260562Y-151768855D01*
X159260558Y-151768861D01*
X159123918Y-152059235D01*
X159123916Y-152059240D01*
X159024745Y-152364457D01*
X158964607Y-152679709D01*
X158964606Y-152679716D01*
X158944457Y-152999994D01*
X106055543Y-152999994D01*
X106035392Y-152679706D01*
X105975256Y-152364462D01*
X105876084Y-152059242D01*
X105876081Y-152059235D01*
X105739441Y-151768861D01*
X105739437Y-151768855D01*
X105567479Y-151497891D01*
X105567477Y-151497888D01*
X105362912Y-151250611D01*
X105128965Y-151030921D01*
X105128955Y-151030913D01*
X104869339Y-150842291D01*
X104869321Y-150842280D01*
X104588096Y-150687675D01*
X104588093Y-150687674D01*
X104289703Y-150569533D01*
X104289706Y-150569533D01*
X103978864Y-150489723D01*
X103978851Y-150489721D01*
X103660475Y-150449500D01*
X103660464Y-150449500D01*
X103339536Y-150449500D01*
X103339524Y-150449500D01*
X103021148Y-150489721D01*
X103021135Y-150489723D01*
X102710294Y-150569533D01*
X102411906Y-150687674D01*
X102411903Y-150687675D01*
X102130678Y-150842280D01*
X102130660Y-150842291D01*
X101871044Y-151030913D01*
X101871034Y-151030921D01*
X101637087Y-151250611D01*
X101432522Y-151497888D01*
X101432520Y-151497891D01*
X101260562Y-151768855D01*
X101260558Y-151768861D01*
X101123918Y-152059235D01*
X101123916Y-152059240D01*
X101024745Y-152364457D01*
X100964607Y-152679709D01*
X100964606Y-152679716D01*
X100944457Y-152999994D01*
X100300585Y-152999994D01*
X100300500Y-152996753D01*
X100300500Y-130999998D01*
X101144318Y-130999998D01*
X101144318Y-131000001D01*
X101164955Y-131156760D01*
X101164956Y-131156762D01*
X101225464Y-131302841D01*
X101321718Y-131428282D01*
X101447159Y-131524536D01*
X101593238Y-131585044D01*
X101671619Y-131595363D01*
X101749999Y-131605682D01*
X101750000Y-131605682D01*
X101750001Y-131605682D01*
X101802254Y-131598802D01*
X101906762Y-131585044D01*
X102052841Y-131524536D01*
X102178282Y-131428282D01*
X102274536Y-131302841D01*
X102335044Y-131156762D01*
X102355682Y-131000000D01*
X102355682Y-130999998D01*
X103394318Y-130999998D01*
X103394318Y-131000001D01*
X103414955Y-131156760D01*
X103414956Y-131156762D01*
X103475464Y-131302841D01*
X103571718Y-131428282D01*
X103697159Y-131524536D01*
X103843238Y-131585044D01*
X103921619Y-131595363D01*
X103999999Y-131605682D01*
X104000000Y-131605682D01*
X104000001Y-131605682D01*
X104052254Y-131598802D01*
X104156762Y-131585044D01*
X104302841Y-131524536D01*
X104428282Y-131428282D01*
X104524536Y-131302841D01*
X104585044Y-131156762D01*
X104605682Y-131000000D01*
X104585044Y-130843238D01*
X104524536Y-130697159D01*
X104428282Y-130571718D01*
X104302841Y-130475464D01*
X104156762Y-130414956D01*
X104156760Y-130414955D01*
X104000001Y-130394318D01*
X103999999Y-130394318D01*
X103843239Y-130414955D01*
X103843237Y-130414956D01*
X103697160Y-130475463D01*
X103571718Y-130571718D01*
X103475463Y-130697160D01*
X103414956Y-130843237D01*
X103414955Y-130843239D01*
X103394318Y-130999998D01*
X102355682Y-130999998D01*
X102335044Y-130843238D01*
X102274536Y-130697159D01*
X102178282Y-130571718D01*
X102052841Y-130475464D01*
X101906762Y-130414956D01*
X101906760Y-130414955D01*
X101750001Y-130394318D01*
X101749999Y-130394318D01*
X101593239Y-130414955D01*
X101593237Y-130414956D01*
X101447160Y-130475463D01*
X101321718Y-130571718D01*
X101225463Y-130697160D01*
X101164956Y-130843237D01*
X101164955Y-130843239D01*
X101144318Y-130999998D01*
X100300500Y-130999998D01*
X100300500Y-128499998D01*
X149394318Y-128499998D01*
X149394318Y-128500001D01*
X149414955Y-128656760D01*
X149414956Y-128656762D01*
X149475464Y-128802841D01*
X149571718Y-128928282D01*
X149697159Y-129024536D01*
X149843238Y-129085044D01*
X149921619Y-129095363D01*
X149999999Y-129105682D01*
X150000000Y-129105682D01*
X150000001Y-129105682D01*
X150052254Y-129098802D01*
X150156762Y-129085044D01*
X150302841Y-129024536D01*
X150428282Y-128928282D01*
X150524536Y-128802841D01*
X150585044Y-128656762D01*
X150605682Y-128500000D01*
X150605682Y-128499998D01*
X154394318Y-128499998D01*
X154394318Y-128500001D01*
X154414955Y-128656760D01*
X154414956Y-128656762D01*
X154475464Y-128802841D01*
X154571718Y-128928282D01*
X154697159Y-129024536D01*
X154843238Y-129085044D01*
X154921619Y-129095363D01*
X154999999Y-129105682D01*
X155000000Y-129105682D01*
X155000001Y-129105682D01*
X155052254Y-129098802D01*
X155156762Y-129085044D01*
X155302841Y-129024536D01*
X155428282Y-128928282D01*
X155524536Y-128802841D01*
X155585044Y-128656762D01*
X155605682Y-128500000D01*
X155585044Y-128343238D01*
X155524536Y-128197159D01*
X155428282Y-128071718D01*
X155302841Y-127975464D01*
X155156762Y-127914956D01*
X155156760Y-127914955D01*
X155000001Y-127894318D01*
X154999999Y-127894318D01*
X154843239Y-127914955D01*
X154843237Y-127914956D01*
X154697160Y-127975463D01*
X154571718Y-128071718D01*
X154475463Y-128197160D01*
X154414956Y-128343237D01*
X154414955Y-128343239D01*
X154394318Y-128499998D01*
X150605682Y-128499998D01*
X150585044Y-128343238D01*
X150524536Y-128197159D01*
X150428282Y-128071718D01*
X150302841Y-127975464D01*
X150156762Y-127914956D01*
X150156760Y-127914955D01*
X150000001Y-127894318D01*
X149999999Y-127894318D01*
X149843239Y-127914955D01*
X149843237Y-127914956D01*
X149697160Y-127975463D01*
X149571718Y-128071718D01*
X149475463Y-128197160D01*
X149414956Y-128343237D01*
X149414955Y-128343239D01*
X149394318Y-128499998D01*
X100300500Y-128499998D01*
X100300500Y-127249998D01*
X117394318Y-127249998D01*
X117394318Y-127250001D01*
X117414955Y-127406760D01*
X117414956Y-127406762D01*
X117475464Y-127552841D01*
X117571718Y-127678282D01*
X117697159Y-127774536D01*
X117843238Y-127835044D01*
X117921619Y-127845363D01*
X117999999Y-127855682D01*
X118000000Y-127855682D01*
X118000001Y-127855682D01*
X118052254Y-127848802D01*
X118156762Y-127835044D01*
X118302841Y-127774536D01*
X118428282Y-127678282D01*
X118524536Y-127552841D01*
X118524535Y-127552841D01*
X118526624Y-127550120D01*
X118583052Y-127508917D01*
X118652798Y-127504762D01*
X118713718Y-127538974D01*
X118723376Y-127550120D01*
X118725464Y-127552841D01*
X118821718Y-127678282D01*
X118947159Y-127774536D01*
X119093238Y-127835044D01*
X119171619Y-127845363D01*
X119249999Y-127855682D01*
X119250000Y-127855682D01*
X119250001Y-127855682D01*
X119302254Y-127848802D01*
X119406762Y-127835044D01*
X119552841Y-127774536D01*
X119678282Y-127678282D01*
X119774536Y-127552841D01*
X119835044Y-127406762D01*
X119855682Y-127250000D01*
X119835044Y-127093238D01*
X119774536Y-126947159D01*
X119678282Y-126821718D01*
X119552841Y-126725464D01*
X119406762Y-126664956D01*
X119406760Y-126664955D01*
X119250001Y-126644318D01*
X119249999Y-126644318D01*
X119093239Y-126664955D01*
X119093237Y-126664956D01*
X118947160Y-126725463D01*
X118821718Y-126821718D01*
X118723376Y-126949880D01*
X118666947Y-126991082D01*
X118597201Y-126995237D01*
X118536281Y-126961024D01*
X118526624Y-126949880D01*
X118516957Y-126937282D01*
X118428282Y-126821718D01*
X118302841Y-126725464D01*
X118156762Y-126664956D01*
X118156760Y-126664955D01*
X118000001Y-126644318D01*
X117999999Y-126644318D01*
X117843239Y-126664955D01*
X117843237Y-126664956D01*
X117697160Y-126725463D01*
X117571718Y-126821718D01*
X117475463Y-126947160D01*
X117414956Y-127093237D01*
X117414955Y-127093239D01*
X117394318Y-127249998D01*
X100300500Y-127249998D01*
X100300500Y-125249998D01*
X138644318Y-125249998D01*
X138644318Y-125250001D01*
X138664955Y-125406760D01*
X138664956Y-125406762D01*
X138703576Y-125500000D01*
X138725464Y-125552841D01*
X138821718Y-125678282D01*
X138947159Y-125774536D01*
X139093238Y-125835044D01*
X139171619Y-125845363D01*
X139249999Y-125855682D01*
X139250000Y-125855682D01*
X139250001Y-125855682D01*
X139302254Y-125848802D01*
X139406762Y-125835044D01*
X139552841Y-125774536D01*
X139678282Y-125678282D01*
X139774536Y-125552841D01*
X139796424Y-125499998D01*
X146894318Y-125499998D01*
X146894318Y-125500001D01*
X146914955Y-125656760D01*
X146914956Y-125656762D01*
X146975464Y-125802841D01*
X147071718Y-125928282D01*
X147197159Y-126024536D01*
X147343238Y-126085044D01*
X147421619Y-126095363D01*
X147499999Y-126105682D01*
X147500000Y-126105682D01*
X147500001Y-126105682D01*
X147552254Y-126098802D01*
X147656762Y-126085044D01*
X147802841Y-126024536D01*
X147928282Y-125928282D01*
X148024536Y-125802841D01*
X148085044Y-125656762D01*
X148105682Y-125500000D01*
X148085044Y-125343238D01*
X148024536Y-125197159D01*
X147928282Y-125071718D01*
X147802841Y-124975464D01*
X147656762Y-124914956D01*
X147656760Y-124914955D01*
X147500001Y-124894318D01*
X147499999Y-124894318D01*
X147343239Y-124914955D01*
X147343237Y-124914956D01*
X147197160Y-124975463D01*
X147071718Y-125071718D01*
X146975463Y-125197160D01*
X146914956Y-125343237D01*
X146914955Y-125343239D01*
X146894318Y-125499998D01*
X139796424Y-125499998D01*
X139835044Y-125406762D01*
X139855682Y-125250000D01*
X139848725Y-125197159D01*
X139835044Y-125093239D01*
X139835044Y-125093238D01*
X139774536Y-124947159D01*
X139678282Y-124821718D01*
X139552841Y-124725464D01*
X139406762Y-124664956D01*
X139406760Y-124664955D01*
X139250001Y-124644318D01*
X139249999Y-124644318D01*
X139093239Y-124664955D01*
X139093237Y-124664956D01*
X138947160Y-124725463D01*
X138821718Y-124821718D01*
X138725463Y-124947160D01*
X138664956Y-125093237D01*
X138664955Y-125093239D01*
X138644318Y-125249998D01*
X100300500Y-125249998D01*
X100300500Y-123999998D01*
X119894318Y-123999998D01*
X119894318Y-124000001D01*
X119914955Y-124156760D01*
X119914956Y-124156762D01*
X119975464Y-124302841D01*
X120071718Y-124428282D01*
X120197159Y-124524536D01*
X120343238Y-124585044D01*
X120421619Y-124595363D01*
X120499999Y-124605682D01*
X120500000Y-124605682D01*
X120500001Y-124605682D01*
X120552254Y-124598802D01*
X120656762Y-124585044D01*
X120802841Y-124524536D01*
X120928282Y-124428282D01*
X121024536Y-124302841D01*
X121085044Y-124156762D01*
X121105682Y-124000000D01*
X121105682Y-123999998D01*
X121394318Y-123999998D01*
X121394318Y-124000001D01*
X121414955Y-124156760D01*
X121414956Y-124156762D01*
X121475464Y-124302841D01*
X121571718Y-124428282D01*
X121697159Y-124524536D01*
X121843238Y-124585044D01*
X121921619Y-124595363D01*
X121999999Y-124605682D01*
X122000000Y-124605682D01*
X122000001Y-124605682D01*
X122052254Y-124598802D01*
X122156762Y-124585044D01*
X122302841Y-124524536D01*
X122428282Y-124428282D01*
X122524536Y-124302841D01*
X122585044Y-124156762D01*
X122605682Y-124000000D01*
X122605682Y-123999998D01*
X122894318Y-123999998D01*
X122894318Y-124000001D01*
X122914955Y-124156760D01*
X122914956Y-124156762D01*
X122975464Y-124302841D01*
X123071718Y-124428282D01*
X123197159Y-124524536D01*
X123343238Y-124585044D01*
X123421619Y-124595363D01*
X123499999Y-124605682D01*
X123500000Y-124605682D01*
X123500001Y-124605682D01*
X123552254Y-124598802D01*
X123656762Y-124585044D01*
X123802841Y-124524536D01*
X123928282Y-124428282D01*
X124024536Y-124302841D01*
X124085044Y-124156762D01*
X124105682Y-124000000D01*
X124105682Y-123999998D01*
X124394318Y-123999998D01*
X124394318Y-124000001D01*
X124414955Y-124156760D01*
X124414956Y-124156762D01*
X124475464Y-124302841D01*
X124571718Y-124428282D01*
X124697159Y-124524536D01*
X124843238Y-124585044D01*
X124921619Y-124595363D01*
X124999999Y-124605682D01*
X125000000Y-124605682D01*
X125000001Y-124605682D01*
X125052254Y-124598802D01*
X125156762Y-124585044D01*
X125302841Y-124524536D01*
X125428282Y-124428282D01*
X125524536Y-124302841D01*
X125585044Y-124156762D01*
X125605682Y-124000000D01*
X125605682Y-123999998D01*
X125894318Y-123999998D01*
X125894318Y-124000001D01*
X125914955Y-124156760D01*
X125914956Y-124156762D01*
X125975464Y-124302841D01*
X126071718Y-124428282D01*
X126197159Y-124524536D01*
X126343238Y-124585044D01*
X126421619Y-124595363D01*
X126499999Y-124605682D01*
X126500000Y-124605682D01*
X126500001Y-124605682D01*
X126552254Y-124598802D01*
X126656762Y-124585044D01*
X126802841Y-124524536D01*
X126928282Y-124428282D01*
X127024536Y-124302841D01*
X127085044Y-124156762D01*
X127105682Y-124000000D01*
X127085044Y-123843238D01*
X127024536Y-123697159D01*
X126928282Y-123571718D01*
X126802841Y-123475464D01*
X126656762Y-123414956D01*
X126656760Y-123414955D01*
X126500001Y-123394318D01*
X126499999Y-123394318D01*
X126343239Y-123414955D01*
X126343237Y-123414956D01*
X126197160Y-123475463D01*
X126071718Y-123571718D01*
X125975463Y-123697160D01*
X125914956Y-123843237D01*
X125914955Y-123843239D01*
X125894318Y-123999998D01*
X125605682Y-123999998D01*
X125585044Y-123843238D01*
X125524536Y-123697159D01*
X125428282Y-123571718D01*
X125302841Y-123475464D01*
X125156762Y-123414956D01*
X125156760Y-123414955D01*
X125000001Y-123394318D01*
X124999999Y-123394318D01*
X124843239Y-123414955D01*
X124843237Y-123414956D01*
X124697160Y-123475463D01*
X124571718Y-123571718D01*
X124475463Y-123697160D01*
X124414956Y-123843237D01*
X124414955Y-123843239D01*
X124394318Y-123999998D01*
X124105682Y-123999998D01*
X124085044Y-123843238D01*
X124024536Y-123697159D01*
X123928282Y-123571718D01*
X123802841Y-123475464D01*
X123656762Y-123414956D01*
X123656760Y-123414955D01*
X123500001Y-123394318D01*
X123499999Y-123394318D01*
X123343239Y-123414955D01*
X123343237Y-123414956D01*
X123197160Y-123475463D01*
X123071718Y-123571718D01*
X122975463Y-123697160D01*
X122914956Y-123843237D01*
X122914955Y-123843239D01*
X122894318Y-123999998D01*
X122605682Y-123999998D01*
X122585044Y-123843238D01*
X122524536Y-123697159D01*
X122428282Y-123571718D01*
X122302841Y-123475464D01*
X122156762Y-123414956D01*
X122156760Y-123414955D01*
X122000001Y-123394318D01*
X121999999Y-123394318D01*
X121843239Y-123414955D01*
X121843237Y-123414956D01*
X121697160Y-123475463D01*
X121571718Y-123571718D01*
X121475463Y-123697160D01*
X121414956Y-123843237D01*
X121414955Y-123843239D01*
X121394318Y-123999998D01*
X121105682Y-123999998D01*
X121085044Y-123843238D01*
X121024536Y-123697159D01*
X120928282Y-123571718D01*
X120802841Y-123475464D01*
X120656762Y-123414956D01*
X120656760Y-123414955D01*
X120500001Y-123394318D01*
X120499999Y-123394318D01*
X120343239Y-123414955D01*
X120343237Y-123414956D01*
X120197160Y-123475463D01*
X120071718Y-123571718D01*
X119975463Y-123697160D01*
X119914956Y-123843237D01*
X119914955Y-123843239D01*
X119894318Y-123999998D01*
X100300500Y-123999998D01*
X100300500Y-122999998D01*
X127394318Y-122999998D01*
X127394318Y-123000001D01*
X127414955Y-123156760D01*
X127414956Y-123156762D01*
X127475464Y-123302841D01*
X127571718Y-123428282D01*
X127697159Y-123524536D01*
X127843238Y-123585044D01*
X127921619Y-123595363D01*
X127999999Y-123605682D01*
X128000000Y-123605682D01*
X128000001Y-123605682D01*
X128052254Y-123598802D01*
X128156762Y-123585044D01*
X128302841Y-123524536D01*
X128428282Y-123428282D01*
X128524536Y-123302841D01*
X128585044Y-123156762D01*
X128605682Y-123000000D01*
X128585044Y-122843238D01*
X128524536Y-122697159D01*
X128428282Y-122571718D01*
X128302841Y-122475464D01*
X128156762Y-122414956D01*
X128156760Y-122414955D01*
X128000001Y-122394318D01*
X127999999Y-122394318D01*
X127843239Y-122414955D01*
X127843237Y-122414956D01*
X127697160Y-122475463D01*
X127571718Y-122571718D01*
X127475463Y-122697160D01*
X127414956Y-122843237D01*
X127414955Y-122843239D01*
X127394318Y-122999998D01*
X100300500Y-122999998D01*
X100300500Y-121499998D01*
X127394318Y-121499998D01*
X127394318Y-121500001D01*
X127414955Y-121656760D01*
X127414956Y-121656762D01*
X127475464Y-121802841D01*
X127571718Y-121928282D01*
X127697159Y-122024536D01*
X127843238Y-122085044D01*
X127921619Y-122095363D01*
X127999999Y-122105682D01*
X128000000Y-122105682D01*
X128000001Y-122105682D01*
X128052254Y-122098802D01*
X128156762Y-122085044D01*
X128302841Y-122024536D01*
X128428282Y-121928282D01*
X128524536Y-121802841D01*
X128585044Y-121656762D01*
X128589226Y-121624998D01*
X150519318Y-121624998D01*
X150519318Y-121625001D01*
X150539955Y-121781760D01*
X150539956Y-121781762D01*
X150600464Y-121927841D01*
X150696718Y-122053282D01*
X150822159Y-122149536D01*
X150968238Y-122210044D01*
X151046619Y-122220363D01*
X151124999Y-122230682D01*
X151125000Y-122230682D01*
X151125001Y-122230682D01*
X151177254Y-122223802D01*
X151281762Y-122210044D01*
X151427841Y-122149536D01*
X151553282Y-122053282D01*
X151649536Y-121927841D01*
X151710044Y-121781762D01*
X151723802Y-121677254D01*
X151730682Y-121625001D01*
X151730682Y-121624998D01*
X151714226Y-121500001D01*
X151714226Y-121499998D01*
X153144318Y-121499998D01*
X153144318Y-121500001D01*
X153164955Y-121656760D01*
X153164956Y-121656762D01*
X153225464Y-121802841D01*
X153321718Y-121928282D01*
X153447159Y-122024536D01*
X153593238Y-122085044D01*
X153671619Y-122095363D01*
X153749999Y-122105682D01*
X153750000Y-122105682D01*
X153750001Y-122105682D01*
X153802254Y-122098802D01*
X153906762Y-122085044D01*
X154052841Y-122024536D01*
X154178282Y-121928282D01*
X154274536Y-121802841D01*
X154335044Y-121656762D01*
X154355682Y-121500000D01*
X154351500Y-121468238D01*
X154335044Y-121343239D01*
X154335044Y-121343238D01*
X154274536Y-121197159D01*
X154178282Y-121071718D01*
X154052841Y-120975464D01*
X153906762Y-120914956D01*
X153906760Y-120914955D01*
X153750001Y-120894318D01*
X153749999Y-120894318D01*
X153593239Y-120914955D01*
X153593237Y-120914956D01*
X153447160Y-120975463D01*
X153321718Y-121071718D01*
X153225463Y-121197160D01*
X153164956Y-121343237D01*
X153164955Y-121343239D01*
X153144318Y-121499998D01*
X151714226Y-121499998D01*
X151710044Y-121468238D01*
X151649536Y-121322159D01*
X151553282Y-121196718D01*
X151427841Y-121100464D01*
X151390611Y-121085043D01*
X151281762Y-121039956D01*
X151281760Y-121039955D01*
X151125001Y-121019318D01*
X151124999Y-121019318D01*
X150968239Y-121039955D01*
X150968237Y-121039956D01*
X150822160Y-121100463D01*
X150696718Y-121196718D01*
X150600463Y-121322160D01*
X150539956Y-121468237D01*
X150539955Y-121468239D01*
X150519318Y-121624998D01*
X128589226Y-121624998D01*
X128605682Y-121500000D01*
X128601500Y-121468238D01*
X128585044Y-121343239D01*
X128585044Y-121343238D01*
X128524536Y-121197159D01*
X128428282Y-121071718D01*
X128302841Y-120975464D01*
X128156762Y-120914956D01*
X128156760Y-120914955D01*
X128000001Y-120894318D01*
X127999999Y-120894318D01*
X127843239Y-120914955D01*
X127843237Y-120914956D01*
X127697160Y-120975463D01*
X127571718Y-121071718D01*
X127475463Y-121197160D01*
X127414956Y-121343237D01*
X127414955Y-121343239D01*
X127394318Y-121499998D01*
X100300500Y-121499998D01*
X100300500Y-117499998D01*
X114894318Y-117499998D01*
X114894318Y-117500001D01*
X114914955Y-117656760D01*
X114914956Y-117656762D01*
X114975464Y-117802842D01*
X115068826Y-117924514D01*
X115094020Y-117989683D01*
X115079981Y-118058128D01*
X115068826Y-118075486D01*
X114975464Y-118197157D01*
X114914956Y-118343237D01*
X114914955Y-118343239D01*
X114894318Y-118499998D01*
X114894318Y-118500001D01*
X114914955Y-118656760D01*
X114914956Y-118656762D01*
X114975464Y-118802842D01*
X115068826Y-118924514D01*
X115094020Y-118989683D01*
X115079981Y-119058128D01*
X115068826Y-119075486D01*
X114975464Y-119197157D01*
X114914956Y-119343237D01*
X114914955Y-119343239D01*
X114894318Y-119499998D01*
X114894318Y-119500001D01*
X114914955Y-119656760D01*
X114914956Y-119656762D01*
X114975464Y-119802842D01*
X115068826Y-119924514D01*
X115094020Y-119989683D01*
X115079981Y-120058128D01*
X115068826Y-120075486D01*
X114975464Y-120197157D01*
X114914956Y-120343237D01*
X114914955Y-120343239D01*
X114894318Y-120499998D01*
X114894318Y-120500001D01*
X114914955Y-120656760D01*
X114914956Y-120656762D01*
X114975464Y-120802841D01*
X115071718Y-120928282D01*
X115197159Y-121024536D01*
X115343238Y-121085044D01*
X115421619Y-121095363D01*
X115499999Y-121105682D01*
X115500000Y-121105682D01*
X115500001Y-121105682D01*
X115552254Y-121098802D01*
X115656762Y-121085044D01*
X115802841Y-121024536D01*
X115928282Y-120928282D01*
X116024536Y-120802841D01*
X116085044Y-120656762D01*
X116105682Y-120500000D01*
X116085044Y-120343238D01*
X116024536Y-120197159D01*
X115931171Y-120075484D01*
X115905979Y-120010317D01*
X115908095Y-119999998D01*
X127394318Y-119999998D01*
X127394318Y-120000001D01*
X127414955Y-120156760D01*
X127414956Y-120156762D01*
X127475464Y-120302841D01*
X127571718Y-120428282D01*
X127697159Y-120524536D01*
X127843238Y-120585044D01*
X127921619Y-120595363D01*
X127999999Y-120605682D01*
X128000000Y-120605682D01*
X128000001Y-120605682D01*
X128052254Y-120598802D01*
X128156762Y-120585044D01*
X128302841Y-120524536D01*
X128428282Y-120428282D01*
X128524536Y-120302841D01*
X128585044Y-120156762D01*
X128605682Y-120000000D01*
X128598029Y-119941873D01*
X128585044Y-119843239D01*
X128585044Y-119843238D01*
X128524536Y-119697159D01*
X128428282Y-119571718D01*
X128302841Y-119475464D01*
X128156762Y-119414956D01*
X128156760Y-119414955D01*
X128000001Y-119394318D01*
X127999999Y-119394318D01*
X127843239Y-119414955D01*
X127843237Y-119414956D01*
X127697160Y-119475463D01*
X127571718Y-119571718D01*
X127475463Y-119697160D01*
X127414956Y-119843237D01*
X127414955Y-119843239D01*
X127394318Y-119999998D01*
X115908095Y-119999998D01*
X115920017Y-119941873D01*
X115931167Y-119924521D01*
X116024536Y-119802841D01*
X116085044Y-119656762D01*
X116105682Y-119500000D01*
X116085044Y-119343238D01*
X116024536Y-119197159D01*
X115931171Y-119075484D01*
X115905979Y-119010317D01*
X115920017Y-118941873D01*
X115931167Y-118924521D01*
X116024536Y-118802841D01*
X116085044Y-118656762D01*
X116105682Y-118500000D01*
X116105682Y-118499998D01*
X127394318Y-118499998D01*
X127394318Y-118500001D01*
X127414955Y-118656760D01*
X127414956Y-118656762D01*
X127475464Y-118802841D01*
X127571718Y-118928282D01*
X127697159Y-119024536D01*
X127843238Y-119085044D01*
X127921619Y-119095363D01*
X127999999Y-119105682D01*
X128000000Y-119105682D01*
X128000001Y-119105682D01*
X128052254Y-119098802D01*
X128156762Y-119085044D01*
X128302841Y-119024536D01*
X128428282Y-118928282D01*
X128524536Y-118802841D01*
X128585044Y-118656762D01*
X128605682Y-118500000D01*
X128585044Y-118343238D01*
X128524536Y-118197159D01*
X128428282Y-118071718D01*
X128334814Y-117999998D01*
X146894318Y-117999998D01*
X146894318Y-118000001D01*
X146914955Y-118156760D01*
X146914956Y-118156762D01*
X146975464Y-118302841D01*
X147071718Y-118428282D01*
X147197159Y-118524536D01*
X147343238Y-118585044D01*
X147421619Y-118595363D01*
X147499999Y-118605682D01*
X147500000Y-118605682D01*
X147500001Y-118605682D01*
X147552254Y-118598802D01*
X147656762Y-118585044D01*
X147802841Y-118524536D01*
X147928282Y-118428282D01*
X148024536Y-118302841D01*
X148085044Y-118156762D01*
X148105682Y-118000000D01*
X148098029Y-117941873D01*
X148085044Y-117843239D01*
X148085044Y-117843238D01*
X148024536Y-117697159D01*
X147928282Y-117571718D01*
X147802841Y-117475464D01*
X147656762Y-117414956D01*
X147656760Y-117414955D01*
X147500001Y-117394318D01*
X147499999Y-117394318D01*
X147343239Y-117414955D01*
X147343237Y-117414956D01*
X147197160Y-117475463D01*
X147071718Y-117571718D01*
X146975463Y-117697160D01*
X146914956Y-117843237D01*
X146914955Y-117843239D01*
X146894318Y-117999998D01*
X128334814Y-117999998D01*
X128302841Y-117975464D01*
X128156762Y-117914956D01*
X128156760Y-117914955D01*
X128000001Y-117894318D01*
X127999999Y-117894318D01*
X127843239Y-117914955D01*
X127843237Y-117914956D01*
X127697160Y-117975463D01*
X127571718Y-118071718D01*
X127475463Y-118197160D01*
X127414956Y-118343237D01*
X127414955Y-118343239D01*
X127394318Y-118499998D01*
X116105682Y-118499998D01*
X116085044Y-118343238D01*
X116024536Y-118197159D01*
X115931171Y-118075484D01*
X115905979Y-118010317D01*
X115920017Y-117941873D01*
X115931167Y-117924521D01*
X116024536Y-117802841D01*
X116085044Y-117656762D01*
X116105682Y-117500000D01*
X116085044Y-117343238D01*
X116024536Y-117197159D01*
X115928282Y-117071718D01*
X115834814Y-116999998D01*
X119894318Y-116999998D01*
X119894318Y-117000001D01*
X119914955Y-117156760D01*
X119914956Y-117156762D01*
X119975464Y-117302841D01*
X120071718Y-117428282D01*
X120197159Y-117524536D01*
X120343238Y-117585044D01*
X120421619Y-117595363D01*
X120499999Y-117605682D01*
X120500000Y-117605682D01*
X120500001Y-117605682D01*
X120552254Y-117598802D01*
X120656762Y-117585044D01*
X120802841Y-117524536D01*
X120928282Y-117428282D01*
X121024536Y-117302841D01*
X121085044Y-117156762D01*
X121105682Y-117000000D01*
X121105682Y-116999998D01*
X121394318Y-116999998D01*
X121394318Y-117000001D01*
X121414955Y-117156760D01*
X121414956Y-117156762D01*
X121475464Y-117302841D01*
X121571718Y-117428282D01*
X121697159Y-117524536D01*
X121843238Y-117585044D01*
X121921619Y-117595363D01*
X121999999Y-117605682D01*
X122000000Y-117605682D01*
X122000001Y-117605682D01*
X122052254Y-117598802D01*
X122156762Y-117585044D01*
X122302841Y-117524536D01*
X122428282Y-117428282D01*
X122524536Y-117302841D01*
X122585044Y-117156762D01*
X122605682Y-117000000D01*
X122605682Y-116999998D01*
X122894318Y-116999998D01*
X122894318Y-117000001D01*
X122914955Y-117156760D01*
X122914956Y-117156762D01*
X122975464Y-117302841D01*
X123071718Y-117428282D01*
X123197159Y-117524536D01*
X123343238Y-117585044D01*
X123421619Y-117595363D01*
X123499999Y-117605682D01*
X123500000Y-117605682D01*
X123500001Y-117605682D01*
X123552254Y-117598802D01*
X123656762Y-117585044D01*
X123802841Y-117524536D01*
X123928282Y-117428282D01*
X124024536Y-117302841D01*
X124085044Y-117156762D01*
X124105682Y-117000000D01*
X124105682Y-116999998D01*
X124394318Y-116999998D01*
X124394318Y-117000001D01*
X124414955Y-117156760D01*
X124414956Y-117156762D01*
X124475464Y-117302841D01*
X124571718Y-117428282D01*
X124697159Y-117524536D01*
X124843238Y-117585044D01*
X124921619Y-117595363D01*
X124999999Y-117605682D01*
X125000000Y-117605682D01*
X125000001Y-117605682D01*
X125052254Y-117598802D01*
X125156762Y-117585044D01*
X125302841Y-117524536D01*
X125428282Y-117428282D01*
X125524536Y-117302841D01*
X125585044Y-117156762D01*
X125605682Y-117000000D01*
X125605682Y-116999998D01*
X125894318Y-116999998D01*
X125894318Y-117000001D01*
X125914955Y-117156760D01*
X125914956Y-117156762D01*
X125975464Y-117302841D01*
X126071718Y-117428282D01*
X126197159Y-117524536D01*
X126343238Y-117585044D01*
X126421619Y-117595363D01*
X126499999Y-117605682D01*
X126500000Y-117605682D01*
X126500001Y-117605682D01*
X126552254Y-117598802D01*
X126656762Y-117585044D01*
X126802841Y-117524536D01*
X126928282Y-117428282D01*
X127024536Y-117302841D01*
X127085044Y-117156762D01*
X127105682Y-117000000D01*
X127105682Y-116999998D01*
X127394318Y-116999998D01*
X127394318Y-117000001D01*
X127414955Y-117156760D01*
X127414956Y-117156762D01*
X127475464Y-117302841D01*
X127571718Y-117428282D01*
X127697159Y-117524536D01*
X127843238Y-117585044D01*
X127921619Y-117595363D01*
X127999999Y-117605682D01*
X128000000Y-117605682D01*
X128000001Y-117605682D01*
X128052254Y-117598802D01*
X128156762Y-117585044D01*
X128302841Y-117524536D01*
X128428282Y-117428282D01*
X128524536Y-117302841D01*
X128585044Y-117156762D01*
X128605682Y-117000000D01*
X128585044Y-116843238D01*
X128524536Y-116697159D01*
X128428282Y-116571718D01*
X128302841Y-116475464D01*
X128252316Y-116454536D01*
X128156762Y-116414956D01*
X128156760Y-116414955D01*
X128000001Y-116394318D01*
X127999999Y-116394318D01*
X127843239Y-116414955D01*
X127843237Y-116414956D01*
X127697160Y-116475463D01*
X127571718Y-116571718D01*
X127475463Y-116697160D01*
X127414956Y-116843237D01*
X127414955Y-116843239D01*
X127394318Y-116999998D01*
X127105682Y-116999998D01*
X127085044Y-116843238D01*
X127024536Y-116697159D01*
X126928282Y-116571718D01*
X126802841Y-116475464D01*
X126752316Y-116454536D01*
X126656762Y-116414956D01*
X126656760Y-116414955D01*
X126500001Y-116394318D01*
X126499999Y-116394318D01*
X126343239Y-116414955D01*
X126343237Y-116414956D01*
X126197160Y-116475463D01*
X126071718Y-116571718D01*
X125975463Y-116697160D01*
X125914956Y-116843237D01*
X125914955Y-116843239D01*
X125894318Y-116999998D01*
X125605682Y-116999998D01*
X125585044Y-116843238D01*
X125524536Y-116697159D01*
X125428282Y-116571718D01*
X125302841Y-116475464D01*
X125252316Y-116454536D01*
X125156762Y-116414956D01*
X125156760Y-116414955D01*
X125000001Y-116394318D01*
X124999999Y-116394318D01*
X124843239Y-116414955D01*
X124843237Y-116414956D01*
X124697160Y-116475463D01*
X124571718Y-116571718D01*
X124475463Y-116697160D01*
X124414956Y-116843237D01*
X124414955Y-116843239D01*
X124394318Y-116999998D01*
X124105682Y-116999998D01*
X124085044Y-116843238D01*
X124024536Y-116697159D01*
X123928282Y-116571718D01*
X123802841Y-116475464D01*
X123752316Y-116454536D01*
X123656762Y-116414956D01*
X123656760Y-116414955D01*
X123500001Y-116394318D01*
X123499999Y-116394318D01*
X123343239Y-116414955D01*
X123343237Y-116414956D01*
X123197160Y-116475463D01*
X123071718Y-116571718D01*
X122975463Y-116697160D01*
X122914956Y-116843237D01*
X122914955Y-116843239D01*
X122894318Y-116999998D01*
X122605682Y-116999998D01*
X122585044Y-116843238D01*
X122524536Y-116697159D01*
X122428282Y-116571718D01*
X122302841Y-116475464D01*
X122252316Y-116454536D01*
X122156762Y-116414956D01*
X122156760Y-116414955D01*
X122000001Y-116394318D01*
X121999999Y-116394318D01*
X121843239Y-116414955D01*
X121843237Y-116414956D01*
X121697160Y-116475463D01*
X121571718Y-116571718D01*
X121475463Y-116697160D01*
X121414956Y-116843237D01*
X121414955Y-116843239D01*
X121394318Y-116999998D01*
X121105682Y-116999998D01*
X121085044Y-116843238D01*
X121024536Y-116697159D01*
X120928282Y-116571718D01*
X120802841Y-116475464D01*
X120752316Y-116454536D01*
X120656762Y-116414956D01*
X120656760Y-116414955D01*
X120500001Y-116394318D01*
X120499999Y-116394318D01*
X120343239Y-116414955D01*
X120343237Y-116414956D01*
X120197160Y-116475463D01*
X120071718Y-116571718D01*
X119975463Y-116697160D01*
X119914956Y-116843237D01*
X119914955Y-116843239D01*
X119894318Y-116999998D01*
X115834814Y-116999998D01*
X115802841Y-116975464D01*
X115656762Y-116914956D01*
X115656760Y-116914955D01*
X115500001Y-116894318D01*
X115499999Y-116894318D01*
X115343239Y-116914955D01*
X115343237Y-116914956D01*
X115197160Y-116975463D01*
X115071718Y-117071718D01*
X114975463Y-117197160D01*
X114914956Y-117343237D01*
X114914955Y-117343239D01*
X114894318Y-117499998D01*
X100300500Y-117499998D01*
X100300500Y-116499998D01*
X101394318Y-116499998D01*
X101394318Y-116500001D01*
X101414955Y-116656760D01*
X101414956Y-116656762D01*
X101475464Y-116802841D01*
X101571718Y-116928282D01*
X101697159Y-117024536D01*
X101843238Y-117085044D01*
X101921619Y-117095363D01*
X101999999Y-117105682D01*
X102000000Y-117105682D01*
X102000001Y-117105682D01*
X102052254Y-117098802D01*
X102156762Y-117085044D01*
X102302841Y-117024536D01*
X102428282Y-116928282D01*
X102524536Y-116802841D01*
X102585044Y-116656762D01*
X102600984Y-116535682D01*
X102605682Y-116500001D01*
X102605682Y-116499998D01*
X103894318Y-116499998D01*
X103894318Y-116500001D01*
X103914955Y-116656760D01*
X103914956Y-116656762D01*
X103975464Y-116802841D01*
X104071718Y-116928282D01*
X104197159Y-117024536D01*
X104343238Y-117085044D01*
X104421619Y-117095363D01*
X104499999Y-117105682D01*
X104500000Y-117105682D01*
X104500001Y-117105682D01*
X104552254Y-117098802D01*
X104656762Y-117085044D01*
X104802841Y-117024536D01*
X104928282Y-116928282D01*
X105024536Y-116802841D01*
X105085044Y-116656762D01*
X105100984Y-116535682D01*
X105105682Y-116500001D01*
X105105682Y-116499998D01*
X105091769Y-116394318D01*
X105085044Y-116343238D01*
X105024536Y-116197159D01*
X104928282Y-116071718D01*
X104802841Y-115975464D01*
X104693077Y-115929998D01*
X109894318Y-115929998D01*
X109894318Y-115930001D01*
X109914955Y-116086760D01*
X109914956Y-116086762D01*
X109975464Y-116232841D01*
X110071718Y-116358282D01*
X110197159Y-116454536D01*
X110343238Y-116515044D01*
X110421619Y-116525363D01*
X110499999Y-116535682D01*
X110500000Y-116535682D01*
X110500001Y-116535682D01*
X110552254Y-116528802D01*
X110656762Y-116515044D01*
X110802841Y-116454536D01*
X110928282Y-116358282D01*
X111024536Y-116232841D01*
X111085044Y-116086762D01*
X111105682Y-115930000D01*
X111103701Y-115914956D01*
X111085044Y-115773239D01*
X111085044Y-115773238D01*
X111024536Y-115627159D01*
X110928282Y-115501718D01*
X110802841Y-115405464D01*
X110656762Y-115344956D01*
X110656760Y-115344955D01*
X110500001Y-115324318D01*
X110499999Y-115324318D01*
X110343239Y-115344955D01*
X110343237Y-115344956D01*
X110197160Y-115405463D01*
X110071718Y-115501718D01*
X109975463Y-115627160D01*
X109914956Y-115773237D01*
X109914955Y-115773239D01*
X109894318Y-115929998D01*
X104693077Y-115929998D01*
X104656762Y-115914956D01*
X104656760Y-115914955D01*
X104500001Y-115894318D01*
X104499999Y-115894318D01*
X104343239Y-115914955D01*
X104343237Y-115914956D01*
X104197160Y-115975463D01*
X104071718Y-116071718D01*
X103975463Y-116197160D01*
X103914956Y-116343237D01*
X103914955Y-116343239D01*
X103894318Y-116499998D01*
X102605682Y-116499998D01*
X102591769Y-116394318D01*
X102585044Y-116343238D01*
X102524536Y-116197159D01*
X102428282Y-116071718D01*
X102302841Y-115975464D01*
X102156762Y-115914956D01*
X102156760Y-115914955D01*
X102000001Y-115894318D01*
X101999999Y-115894318D01*
X101843239Y-115914955D01*
X101843237Y-115914956D01*
X101697160Y-115975463D01*
X101571718Y-116071718D01*
X101475463Y-116197160D01*
X101414956Y-116343237D01*
X101414955Y-116343239D01*
X101394318Y-116499998D01*
X100300500Y-116499998D01*
X100300500Y-114499998D01*
X118894318Y-114499998D01*
X118894318Y-114500001D01*
X118914955Y-114656760D01*
X118914956Y-114656762D01*
X118975464Y-114802841D01*
X119071718Y-114928282D01*
X119197159Y-115024536D01*
X119343238Y-115085044D01*
X119421619Y-115095363D01*
X119499999Y-115105682D01*
X119500000Y-115105682D01*
X119500001Y-115105682D01*
X119552254Y-115098802D01*
X119656762Y-115085044D01*
X119802841Y-115024536D01*
X119928282Y-114928282D01*
X120024536Y-114802841D01*
X120085044Y-114656762D01*
X120105682Y-114500000D01*
X120085044Y-114343238D01*
X120024536Y-114197159D01*
X119928282Y-114071718D01*
X119802841Y-113975464D01*
X119752316Y-113954536D01*
X119656762Y-113914956D01*
X119656760Y-113914955D01*
X119500001Y-113894318D01*
X119499999Y-113894318D01*
X119343239Y-113914955D01*
X119343237Y-113914956D01*
X119197160Y-113975463D01*
X119071718Y-114071718D01*
X118975463Y-114197160D01*
X118914956Y-114343237D01*
X118914955Y-114343239D01*
X118894318Y-114499998D01*
X100300500Y-114499998D01*
X100300500Y-113429998D01*
X109894318Y-113429998D01*
X109894318Y-113430001D01*
X109914955Y-113586760D01*
X109914956Y-113586762D01*
X109975464Y-113732841D01*
X110071718Y-113858282D01*
X110197159Y-113954536D01*
X110343238Y-114015044D01*
X110421619Y-114025363D01*
X110499999Y-114035682D01*
X110500000Y-114035682D01*
X110500001Y-114035682D01*
X110552254Y-114028802D01*
X110656762Y-114015044D01*
X110802841Y-113954536D01*
X110928282Y-113858282D01*
X111024536Y-113732841D01*
X111085044Y-113586762D01*
X111105682Y-113430000D01*
X111085044Y-113273238D01*
X111024536Y-113127159D01*
X110928282Y-113001718D01*
X110802841Y-112905464D01*
X110656762Y-112844956D01*
X110656760Y-112844955D01*
X110500001Y-112824318D01*
X110499999Y-112824318D01*
X110343239Y-112844955D01*
X110343237Y-112844956D01*
X110197160Y-112905463D01*
X110071718Y-113001718D01*
X109975463Y-113127160D01*
X109914956Y-113273237D01*
X109914955Y-113273239D01*
X109894318Y-113429998D01*
X100300500Y-113429998D01*
X100300500Y-111499998D01*
X148894318Y-111499998D01*
X148894318Y-111500001D01*
X148914955Y-111656760D01*
X148914956Y-111656762D01*
X148975464Y-111802841D01*
X149071718Y-111928282D01*
X149197159Y-112024536D01*
X149343238Y-112085044D01*
X149421619Y-112095363D01*
X149499999Y-112105682D01*
X149500000Y-112105682D01*
X149500001Y-112105682D01*
X149552254Y-112098802D01*
X149656762Y-112085044D01*
X149802841Y-112024536D01*
X149928282Y-111928282D01*
X150024536Y-111802841D01*
X150085044Y-111656762D01*
X150105682Y-111500000D01*
X150085044Y-111343238D01*
X150024536Y-111197159D01*
X149928282Y-111071718D01*
X149802841Y-110975464D01*
X149656762Y-110914956D01*
X149656760Y-110914955D01*
X149500001Y-110894318D01*
X149499999Y-110894318D01*
X149343239Y-110914955D01*
X149343237Y-110914956D01*
X149197160Y-110975463D01*
X149071718Y-111071718D01*
X148975463Y-111197160D01*
X148914956Y-111343237D01*
X148914955Y-111343239D01*
X148894318Y-111499998D01*
X100300500Y-111499998D01*
X100300500Y-108999998D01*
X109894318Y-108999998D01*
X109894318Y-109000001D01*
X109914955Y-109156760D01*
X109914956Y-109156762D01*
X109975464Y-109302841D01*
X110071718Y-109428282D01*
X110197159Y-109524536D01*
X110343238Y-109585044D01*
X110421619Y-109595363D01*
X110499999Y-109605682D01*
X110500000Y-109605682D01*
X110500001Y-109605682D01*
X110552254Y-109598802D01*
X110656762Y-109585044D01*
X110802841Y-109524536D01*
X110928282Y-109428282D01*
X111024536Y-109302841D01*
X111085044Y-109156762D01*
X111105682Y-109000000D01*
X111085044Y-108843238D01*
X111024536Y-108697159D01*
X110928282Y-108571718D01*
X110802841Y-108475464D01*
X110656762Y-108414956D01*
X110656760Y-108414955D01*
X110500001Y-108394318D01*
X110499999Y-108394318D01*
X110343239Y-108414955D01*
X110343237Y-108414956D01*
X110197160Y-108475463D01*
X110071718Y-108571718D01*
X109975463Y-108697160D01*
X109914956Y-108843237D01*
X109914955Y-108843239D01*
X109894318Y-108999998D01*
X100300500Y-108999998D01*
X100300500Y-103503246D01*
X100300585Y-103499994D01*
X100944457Y-103499994D01*
X100944457Y-103500005D01*
X100964606Y-103820283D01*
X100964607Y-103820290D01*
X100985500Y-103929815D01*
X101012579Y-104071769D01*
X101024745Y-104135542D01*
X101123916Y-104440759D01*
X101123918Y-104440764D01*
X101260558Y-104731138D01*
X101260562Y-104731144D01*
X101432520Y-105002108D01*
X101432522Y-105002111D01*
X101637087Y-105249388D01*
X101871034Y-105469078D01*
X101871044Y-105469086D01*
X102130660Y-105657708D01*
X102130666Y-105657711D01*
X102130672Y-105657716D01*
X102411903Y-105812324D01*
X102710294Y-105930466D01*
X102710293Y-105930466D01*
X102884639Y-105975230D01*
X103021139Y-106010277D01*
X103087935Y-106018715D01*
X103339524Y-106050499D01*
X103339533Y-106050499D01*
X103339536Y-106050500D01*
X103339538Y-106050500D01*
X103660462Y-106050500D01*
X103660464Y-106050500D01*
X103660467Y-106050499D01*
X103660475Y-106050499D01*
X103850463Y-106026497D01*
X103978861Y-106010277D01*
X104289706Y-105930466D01*
X104588097Y-105812324D01*
X104869328Y-105657716D01*
X105128964Y-105469080D01*
X105362911Y-105249390D01*
X105567478Y-105002110D01*
X105739439Y-104731142D01*
X105876084Y-104440758D01*
X105975256Y-104135538D01*
X106035392Y-103820294D01*
X106039230Y-103759290D01*
X106055543Y-103500005D01*
X106055543Y-103499994D01*
X106035393Y-103179716D01*
X106035392Y-103179709D01*
X106035392Y-103179706D01*
X105975256Y-102864462D01*
X105876084Y-102559242D01*
X105860360Y-102525826D01*
X105739441Y-102268861D01*
X105739437Y-102268855D01*
X105702086Y-102209999D01*
X107069364Y-102209999D01*
X107069364Y-102210000D01*
X107966988Y-102210000D01*
X107934075Y-102267007D01*
X107900000Y-102394174D01*
X107900000Y-102525826D01*
X107934075Y-102652993D01*
X107966988Y-102710000D01*
X107069364Y-102710000D01*
X107126567Y-102923486D01*
X107126570Y-102923492D01*
X107226399Y-103137578D01*
X107361894Y-103331082D01*
X107528917Y-103498105D01*
X107722421Y-103633600D01*
X107892948Y-103713118D01*
X107945387Y-103759290D01*
X107964539Y-103826484D01*
X107944323Y-103893365D01*
X107891158Y-103938700D01*
X107840543Y-103949500D01*
X107530247Y-103949500D01*
X107471770Y-103961131D01*
X107471769Y-103961132D01*
X107405447Y-104005447D01*
X107361132Y-104071769D01*
X107361131Y-104071770D01*
X107349500Y-104130247D01*
X107349500Y-105869752D01*
X107361131Y-105928229D01*
X107361132Y-105928230D01*
X107405447Y-105994552D01*
X107471769Y-106038867D01*
X107471770Y-106038868D01*
X107530247Y-106050499D01*
X107530250Y-106050500D01*
X107530252Y-106050500D01*
X109269750Y-106050500D01*
X109269751Y-106050499D01*
X109284568Y-106047552D01*
X109328229Y-106038868D01*
X109328229Y-106038867D01*
X109328231Y-106038867D01*
X109394552Y-105994552D01*
X109438867Y-105928231D01*
X109438867Y-105928229D01*
X109438868Y-105928229D01*
X109450499Y-105869752D01*
X109450500Y-105869750D01*
X109450500Y-104130249D01*
X109450499Y-104130247D01*
X109438868Y-104071770D01*
X109438867Y-104071769D01*
X109394552Y-104005447D01*
X109328230Y-103961132D01*
X109328229Y-103961131D01*
X109269752Y-103949500D01*
X109269748Y-103949500D01*
X108959457Y-103949500D01*
X108892418Y-103929815D01*
X108846663Y-103877011D01*
X108836719Y-103807853D01*
X108865744Y-103744297D01*
X108907052Y-103713118D01*
X109077578Y-103633600D01*
X109271082Y-103498105D01*
X109438105Y-103331082D01*
X109568425Y-103144968D01*
X109623002Y-103101344D01*
X109692501Y-103094151D01*
X109754855Y-103125673D01*
X109771575Y-103144968D01*
X109901894Y-103331082D01*
X110068917Y-103498105D01*
X110262421Y-103633600D01*
X110476507Y-103733429D01*
X110476516Y-103733433D01*
X110598649Y-103766158D01*
X110658310Y-103802523D01*
X110688839Y-103865369D01*
X110680545Y-103934745D01*
X110636059Y-103988623D01*
X110602552Y-104004593D01*
X110536046Y-104024767D01*
X110448112Y-104071770D01*
X110353550Y-104122315D01*
X110353548Y-104122316D01*
X110353547Y-104122317D01*
X110193589Y-104253589D01*
X110062317Y-104413547D01*
X110062315Y-104413550D01*
X110047769Y-104440764D01*
X109964769Y-104596043D01*
X109904699Y-104794067D01*
X109884417Y-105000000D01*
X109904699Y-105205932D01*
X109904700Y-105205934D01*
X109964768Y-105403954D01*
X110062315Y-105586450D01*
X110062317Y-105586452D01*
X110193589Y-105746410D01*
X110273907Y-105812324D01*
X110353550Y-105877685D01*
X110536046Y-105975232D01*
X110734066Y-106035300D01*
X110734065Y-106035300D01*
X110752529Y-106037118D01*
X110940000Y-106055583D01*
X111145934Y-106035300D01*
X111343954Y-105975232D01*
X111526450Y-105877685D01*
X111686410Y-105746410D01*
X111817685Y-105586450D01*
X111915232Y-105403954D01*
X111975300Y-105205934D01*
X111995583Y-105000000D01*
X112424417Y-105000000D01*
X112444699Y-105205932D01*
X112444700Y-105205934D01*
X112504768Y-105403954D01*
X112602315Y-105586450D01*
X112602317Y-105586452D01*
X112733589Y-105746410D01*
X112813907Y-105812324D01*
X112893550Y-105877685D01*
X113076046Y-105975232D01*
X113274066Y-106035300D01*
X113274065Y-106035300D01*
X113292529Y-106037118D01*
X113480000Y-106055583D01*
X113685934Y-106035300D01*
X113883954Y-105975232D01*
X114066450Y-105877685D01*
X114226410Y-105746410D01*
X114357685Y-105586450D01*
X114455232Y-105403954D01*
X114515300Y-105205934D01*
X114535583Y-105000000D01*
X114964417Y-105000000D01*
X114984699Y-105205932D01*
X114984700Y-105205934D01*
X115044768Y-105403954D01*
X115142315Y-105586450D01*
X115142317Y-105586452D01*
X115273589Y-105746410D01*
X115353907Y-105812324D01*
X115433550Y-105877685D01*
X115616046Y-105975232D01*
X115814066Y-106035300D01*
X115814065Y-106035300D01*
X115832529Y-106037118D01*
X116020000Y-106055583D01*
X116225934Y-106035300D01*
X116423954Y-105975232D01*
X116606450Y-105877685D01*
X116766410Y-105746410D01*
X116897685Y-105586450D01*
X116995232Y-105403954D01*
X117055300Y-105205934D01*
X117075583Y-105000000D01*
X117504417Y-105000000D01*
X117524699Y-105205932D01*
X117524700Y-105205934D01*
X117584768Y-105403954D01*
X117682315Y-105586450D01*
X117682317Y-105586452D01*
X117813589Y-105746410D01*
X117893907Y-105812324D01*
X117973550Y-105877685D01*
X118156046Y-105975232D01*
X118354066Y-106035300D01*
X118354065Y-106035300D01*
X118372529Y-106037118D01*
X118560000Y-106055583D01*
X118765934Y-106035300D01*
X118963954Y-105975232D01*
X119146450Y-105877685D01*
X119306410Y-105746410D01*
X119437685Y-105586450D01*
X119535232Y-105403954D01*
X119595300Y-105205934D01*
X119615583Y-105000000D01*
X120044417Y-105000000D01*
X120064699Y-105205932D01*
X120064700Y-105205934D01*
X120124768Y-105403954D01*
X120222315Y-105586450D01*
X120222317Y-105586452D01*
X120353589Y-105746410D01*
X120433907Y-105812324D01*
X120513550Y-105877685D01*
X120696046Y-105975232D01*
X120894066Y-106035300D01*
X120894065Y-106035300D01*
X120912529Y-106037118D01*
X121100000Y-106055583D01*
X121305934Y-106035300D01*
X121503954Y-105975232D01*
X121686450Y-105877685D01*
X121846410Y-105746410D01*
X121977685Y-105586450D01*
X122075232Y-105403954D01*
X122135300Y-105205934D01*
X122155583Y-105000000D01*
X122584417Y-105000000D01*
X122604699Y-105205932D01*
X122604700Y-105205934D01*
X122664768Y-105403954D01*
X122762315Y-105586450D01*
X122762317Y-105586452D01*
X122893589Y-105746410D01*
X122973907Y-105812324D01*
X123053550Y-105877685D01*
X123236046Y-105975232D01*
X123434066Y-106035300D01*
X123434065Y-106035300D01*
X123452529Y-106037118D01*
X123640000Y-106055583D01*
X123845934Y-106035300D01*
X124043954Y-105975232D01*
X124226450Y-105877685D01*
X124386410Y-105746410D01*
X124517685Y-105586450D01*
X124615232Y-105403954D01*
X124675300Y-105205934D01*
X124695583Y-105000000D01*
X125124417Y-105000000D01*
X125144699Y-105205932D01*
X125144700Y-105205934D01*
X125204768Y-105403954D01*
X125302315Y-105586450D01*
X125302317Y-105586452D01*
X125433589Y-105746410D01*
X125513907Y-105812324D01*
X125593550Y-105877685D01*
X125776046Y-105975232D01*
X125974066Y-106035300D01*
X125974065Y-106035300D01*
X125992529Y-106037118D01*
X126180000Y-106055583D01*
X126385934Y-106035300D01*
X126583954Y-105975232D01*
X126766450Y-105877685D01*
X126926410Y-105746410D01*
X127057685Y-105586450D01*
X127155232Y-105403954D01*
X127215300Y-105205934D01*
X127235583Y-105000000D01*
X127664417Y-105000000D01*
X127684699Y-105205932D01*
X127684700Y-105205934D01*
X127744768Y-105403954D01*
X127842315Y-105586450D01*
X127842317Y-105586452D01*
X127973589Y-105746410D01*
X128053907Y-105812324D01*
X128133550Y-105877685D01*
X128316046Y-105975232D01*
X128514066Y-106035300D01*
X128514065Y-106035300D01*
X128532529Y-106037118D01*
X128720000Y-106055583D01*
X128925934Y-106035300D01*
X129123954Y-105975232D01*
X129306450Y-105877685D01*
X129466410Y-105746410D01*
X129597685Y-105586450D01*
X129695232Y-105403954D01*
X129755300Y-105205934D01*
X129775583Y-105000000D01*
X130204417Y-105000000D01*
X130224699Y-105205932D01*
X130224700Y-105205934D01*
X130284768Y-105403954D01*
X130382315Y-105586450D01*
X130382317Y-105586452D01*
X130513589Y-105746410D01*
X130593907Y-105812324D01*
X130673550Y-105877685D01*
X130856046Y-105975232D01*
X131054066Y-106035300D01*
X131054065Y-106035300D01*
X131072529Y-106037118D01*
X131260000Y-106055583D01*
X131465934Y-106035300D01*
X131663954Y-105975232D01*
X131846450Y-105877685D01*
X132006410Y-105746410D01*
X132137685Y-105586450D01*
X132235232Y-105403954D01*
X132295300Y-105205934D01*
X132315583Y-105000000D01*
X132744417Y-105000000D01*
X132764699Y-105205932D01*
X132764700Y-105205934D01*
X132824768Y-105403954D01*
X132922315Y-105586450D01*
X132922317Y-105586452D01*
X133053589Y-105746410D01*
X133133907Y-105812324D01*
X133213550Y-105877685D01*
X133396046Y-105975232D01*
X133594066Y-106035300D01*
X133594065Y-106035300D01*
X133612529Y-106037118D01*
X133800000Y-106055583D01*
X134005934Y-106035300D01*
X134203954Y-105975232D01*
X134386450Y-105877685D01*
X134546410Y-105746410D01*
X134677685Y-105586450D01*
X134775232Y-105403954D01*
X134835300Y-105205934D01*
X134855583Y-105000000D01*
X135284417Y-105000000D01*
X135304699Y-105205932D01*
X135304700Y-105205934D01*
X135364768Y-105403954D01*
X135462315Y-105586450D01*
X135462317Y-105586452D01*
X135593589Y-105746410D01*
X135673907Y-105812324D01*
X135753550Y-105877685D01*
X135936046Y-105975232D01*
X136134066Y-106035300D01*
X136134065Y-106035300D01*
X136152529Y-106037118D01*
X136340000Y-106055583D01*
X136545934Y-106035300D01*
X136743954Y-105975232D01*
X136926450Y-105877685D01*
X137086410Y-105746410D01*
X137217685Y-105586450D01*
X137315232Y-105403954D01*
X137375300Y-105205934D01*
X137395583Y-105000000D01*
X137824417Y-105000000D01*
X137844699Y-105205932D01*
X137844700Y-105205934D01*
X137904768Y-105403954D01*
X138002315Y-105586450D01*
X138002317Y-105586452D01*
X138133589Y-105746410D01*
X138213907Y-105812324D01*
X138293550Y-105877685D01*
X138476046Y-105975232D01*
X138674066Y-106035300D01*
X138674065Y-106035300D01*
X138692529Y-106037118D01*
X138880000Y-106055583D01*
X139085934Y-106035300D01*
X139283954Y-105975232D01*
X139466450Y-105877685D01*
X139626410Y-105746410D01*
X139757685Y-105586450D01*
X139855232Y-105403954D01*
X139915300Y-105205934D01*
X139935583Y-105000000D01*
X140364417Y-105000000D01*
X140384699Y-105205932D01*
X140384700Y-105205934D01*
X140444768Y-105403954D01*
X140542315Y-105586450D01*
X140542317Y-105586452D01*
X140673589Y-105746410D01*
X140753907Y-105812324D01*
X140833550Y-105877685D01*
X141016046Y-105975232D01*
X141214066Y-106035300D01*
X141214065Y-106035300D01*
X141232529Y-106037118D01*
X141420000Y-106055583D01*
X141625934Y-106035300D01*
X141823954Y-105975232D01*
X142006450Y-105877685D01*
X142166410Y-105746410D01*
X142297685Y-105586450D01*
X142395232Y-105403954D01*
X142455300Y-105205934D01*
X142475583Y-105000000D01*
X142904417Y-105000000D01*
X142924699Y-105205932D01*
X142924700Y-105205934D01*
X142984768Y-105403954D01*
X143082315Y-105586450D01*
X143082317Y-105586452D01*
X143213589Y-105746410D01*
X143293907Y-105812324D01*
X143373550Y-105877685D01*
X143556046Y-105975232D01*
X143754066Y-106035300D01*
X143754065Y-106035300D01*
X143772529Y-106037118D01*
X143960000Y-106055583D01*
X144165934Y-106035300D01*
X144363954Y-105975232D01*
X144546450Y-105877685D01*
X144706410Y-105746410D01*
X144837685Y-105586450D01*
X144935232Y-105403954D01*
X144995300Y-105205934D01*
X145015583Y-105000000D01*
X145444417Y-105000000D01*
X145464699Y-105205932D01*
X145464700Y-105205934D01*
X145524768Y-105403954D01*
X145622315Y-105586450D01*
X145622317Y-105586452D01*
X145753589Y-105746410D01*
X145833907Y-105812324D01*
X145913550Y-105877685D01*
X146096046Y-105975232D01*
X146294066Y-106035300D01*
X146294065Y-106035300D01*
X146312529Y-106037118D01*
X146500000Y-106055583D01*
X146705934Y-106035300D01*
X146903954Y-105975232D01*
X147086450Y-105877685D01*
X147246410Y-105746410D01*
X147377685Y-105586450D01*
X147475232Y-105403954D01*
X147535300Y-105205934D01*
X147555583Y-105000000D01*
X147984417Y-105000000D01*
X148004699Y-105205932D01*
X148004700Y-105205934D01*
X148064768Y-105403954D01*
X148162315Y-105586450D01*
X148162317Y-105586452D01*
X148293589Y-105746410D01*
X148373907Y-105812324D01*
X148453550Y-105877685D01*
X148636046Y-105975232D01*
X148834066Y-106035300D01*
X148834065Y-106035300D01*
X148852529Y-106037118D01*
X149040000Y-106055583D01*
X149245934Y-106035300D01*
X149443954Y-105975232D01*
X149626450Y-105877685D01*
X149786410Y-105746410D01*
X149917685Y-105586450D01*
X150015232Y-105403954D01*
X150075300Y-105205934D01*
X150095583Y-105000000D01*
X150524417Y-105000000D01*
X150544699Y-105205932D01*
X150544700Y-105205934D01*
X150604768Y-105403954D01*
X150702315Y-105586450D01*
X150702317Y-105586452D01*
X150833589Y-105746410D01*
X150913907Y-105812324D01*
X150993550Y-105877685D01*
X151176046Y-105975232D01*
X151374066Y-106035300D01*
X151374065Y-106035300D01*
X151392529Y-106037118D01*
X151580000Y-106055583D01*
X151785934Y-106035300D01*
X151983954Y-105975232D01*
X152166450Y-105877685D01*
X152326410Y-105746410D01*
X152457685Y-105586450D01*
X152555232Y-105403954D01*
X152615300Y-105205934D01*
X152635583Y-105000000D01*
X153064417Y-105000000D01*
X153084699Y-105205932D01*
X153084700Y-105205934D01*
X153144768Y-105403954D01*
X153242315Y-105586450D01*
X153242317Y-105586452D01*
X153373589Y-105746410D01*
X153453907Y-105812324D01*
X153533550Y-105877685D01*
X153716046Y-105975232D01*
X153914066Y-106035300D01*
X153914065Y-106035300D01*
X153932529Y-106037118D01*
X154120000Y-106055583D01*
X154325934Y-106035300D01*
X154523954Y-105975232D01*
X154706450Y-105877685D01*
X154866410Y-105746410D01*
X154997685Y-105586450D01*
X155095232Y-105403954D01*
X155155300Y-105205934D01*
X155175583Y-105000000D01*
X155604417Y-105000000D01*
X155624699Y-105205932D01*
X155624700Y-105205934D01*
X155684768Y-105403954D01*
X155782315Y-105586450D01*
X155782317Y-105586452D01*
X155913589Y-105746410D01*
X155993907Y-105812324D01*
X156073550Y-105877685D01*
X156256046Y-105975232D01*
X156454066Y-106035300D01*
X156454065Y-106035300D01*
X156472529Y-106037118D01*
X156660000Y-106055583D01*
X156865934Y-106035300D01*
X157063954Y-105975232D01*
X157246450Y-105877685D01*
X157406410Y-105746410D01*
X157537685Y-105586450D01*
X157635232Y-105403954D01*
X157695300Y-105205934D01*
X157715583Y-105000000D01*
X157695300Y-104794066D01*
X157635232Y-104596046D01*
X157537685Y-104413550D01*
X157485702Y-104350209D01*
X157406410Y-104253589D01*
X157256121Y-104130252D01*
X157246450Y-104122315D01*
X157063954Y-104024768D01*
X156865934Y-103964700D01*
X156865932Y-103964699D01*
X156865934Y-103964699D01*
X156660000Y-103944417D01*
X156454067Y-103964699D01*
X156319736Y-104005448D01*
X156256050Y-104024767D01*
X156256043Y-104024769D01*
X156168114Y-104071769D01*
X156073550Y-104122315D01*
X156073548Y-104122316D01*
X156073547Y-104122317D01*
X155913589Y-104253589D01*
X155782317Y-104413547D01*
X155782315Y-104413550D01*
X155767769Y-104440764D01*
X155684769Y-104596043D01*
X155624699Y-104794067D01*
X155604417Y-105000000D01*
X155175583Y-105000000D01*
X155155300Y-104794066D01*
X155095232Y-104596046D01*
X154997685Y-104413550D01*
X154945702Y-104350209D01*
X154866410Y-104253589D01*
X154716121Y-104130252D01*
X154706450Y-104122315D01*
X154523954Y-104024768D01*
X154325934Y-103964700D01*
X154325932Y-103964699D01*
X154325934Y-103964699D01*
X154120000Y-103944417D01*
X153914067Y-103964699D01*
X153779736Y-104005448D01*
X153716050Y-104024767D01*
X153716043Y-104024769D01*
X153628114Y-104071769D01*
X153533550Y-104122315D01*
X153533548Y-104122316D01*
X153533547Y-104122317D01*
X153373589Y-104253589D01*
X153242317Y-104413547D01*
X153242315Y-104413550D01*
X153227769Y-104440764D01*
X153144769Y-104596043D01*
X153084699Y-104794067D01*
X153064417Y-105000000D01*
X152635583Y-105000000D01*
X152615300Y-104794066D01*
X152555232Y-104596046D01*
X152457685Y-104413550D01*
X152405702Y-104350209D01*
X152326410Y-104253589D01*
X152176121Y-104130252D01*
X152166450Y-104122315D01*
X151983954Y-104024768D01*
X151785934Y-103964700D01*
X151785932Y-103964699D01*
X151785934Y-103964699D01*
X151580000Y-103944417D01*
X151374067Y-103964699D01*
X151239736Y-104005448D01*
X151176050Y-104024767D01*
X151176043Y-104024769D01*
X151088114Y-104071769D01*
X150993550Y-104122315D01*
X150993548Y-104122316D01*
X150993547Y-104122317D01*
X150833589Y-104253589D01*
X150702317Y-104413547D01*
X150702315Y-104413550D01*
X150687769Y-104440764D01*
X150604769Y-104596043D01*
X150544699Y-104794067D01*
X150524417Y-105000000D01*
X150095583Y-105000000D01*
X150075300Y-104794066D01*
X150015232Y-104596046D01*
X149917685Y-104413550D01*
X149865702Y-104350209D01*
X149786410Y-104253589D01*
X149636121Y-104130252D01*
X149626450Y-104122315D01*
X149443954Y-104024768D01*
X149245934Y-103964700D01*
X149245932Y-103964699D01*
X149245934Y-103964699D01*
X149040000Y-103944417D01*
X148834067Y-103964699D01*
X148699736Y-104005448D01*
X148636050Y-104024767D01*
X148636043Y-104024769D01*
X148548114Y-104071769D01*
X148453550Y-104122315D01*
X148453548Y-104122316D01*
X148453547Y-104122317D01*
X148293589Y-104253589D01*
X148162317Y-104413547D01*
X148162315Y-104413550D01*
X148147769Y-104440764D01*
X148064769Y-104596043D01*
X148004699Y-104794067D01*
X147984417Y-105000000D01*
X147555583Y-105000000D01*
X147535300Y-104794066D01*
X147475232Y-104596046D01*
X147377685Y-104413550D01*
X147325702Y-104350209D01*
X147246410Y-104253589D01*
X147096121Y-104130252D01*
X147086450Y-104122315D01*
X146903954Y-104024768D01*
X146705934Y-103964700D01*
X146705932Y-103964699D01*
X146705934Y-103964699D01*
X146500000Y-103944417D01*
X146294067Y-103964699D01*
X146159736Y-104005448D01*
X146096050Y-104024767D01*
X146096043Y-104024769D01*
X146008114Y-104071769D01*
X145913550Y-104122315D01*
X145913548Y-104122316D01*
X145913547Y-104122317D01*
X145753589Y-104253589D01*
X145622317Y-104413547D01*
X145622315Y-104413550D01*
X145607769Y-104440764D01*
X145524769Y-104596043D01*
X145464699Y-104794067D01*
X145444417Y-105000000D01*
X145015583Y-105000000D01*
X144995300Y-104794066D01*
X144935232Y-104596046D01*
X144837685Y-104413550D01*
X144785702Y-104350209D01*
X144706410Y-104253589D01*
X144556121Y-104130252D01*
X144546450Y-104122315D01*
X144363954Y-104024768D01*
X144165934Y-103964700D01*
X144165932Y-103964699D01*
X144165934Y-103964699D01*
X143960000Y-103944417D01*
X143754067Y-103964699D01*
X143619736Y-104005448D01*
X143556050Y-104024767D01*
X143556043Y-104024769D01*
X143468114Y-104071769D01*
X143373550Y-104122315D01*
X143373548Y-104122316D01*
X143373547Y-104122317D01*
X143213589Y-104253589D01*
X143082317Y-104413547D01*
X143082315Y-104413550D01*
X143067769Y-104440764D01*
X142984769Y-104596043D01*
X142924699Y-104794067D01*
X142904417Y-105000000D01*
X142475583Y-105000000D01*
X142455300Y-104794066D01*
X142395232Y-104596046D01*
X142297685Y-104413550D01*
X142245702Y-104350209D01*
X142166410Y-104253589D01*
X142016121Y-104130252D01*
X142006450Y-104122315D01*
X141823954Y-104024768D01*
X141625934Y-103964700D01*
X141625932Y-103964699D01*
X141625934Y-103964699D01*
X141420000Y-103944417D01*
X141214067Y-103964699D01*
X141079736Y-104005448D01*
X141016050Y-104024767D01*
X141016043Y-104024769D01*
X140928114Y-104071769D01*
X140833550Y-104122315D01*
X140833548Y-104122316D01*
X140833547Y-104122317D01*
X140673589Y-104253589D01*
X140542317Y-104413547D01*
X140542315Y-104413550D01*
X140527769Y-104440764D01*
X140444769Y-104596043D01*
X140384699Y-104794067D01*
X140364417Y-105000000D01*
X139935583Y-105000000D01*
X139915300Y-104794066D01*
X139855232Y-104596046D01*
X139757685Y-104413550D01*
X139705702Y-104350209D01*
X139626410Y-104253589D01*
X139476121Y-104130252D01*
X139466450Y-104122315D01*
X139283954Y-104024768D01*
X139085934Y-103964700D01*
X139085932Y-103964699D01*
X139085934Y-103964699D01*
X138880000Y-103944417D01*
X138674067Y-103964699D01*
X138539736Y-104005448D01*
X138476050Y-104024767D01*
X138476043Y-104024769D01*
X138388114Y-104071769D01*
X138293550Y-104122315D01*
X138293548Y-104122316D01*
X138293547Y-104122317D01*
X138133589Y-104253589D01*
X138002317Y-104413547D01*
X138002315Y-104413550D01*
X137987769Y-104440764D01*
X137904769Y-104596043D01*
X137844699Y-104794067D01*
X137824417Y-105000000D01*
X137395583Y-105000000D01*
X137375300Y-104794066D01*
X137315232Y-104596046D01*
X137217685Y-104413550D01*
X137165702Y-104350209D01*
X137086410Y-104253589D01*
X136936121Y-104130252D01*
X136926450Y-104122315D01*
X136743954Y-104024768D01*
X136545934Y-103964700D01*
X136545932Y-103964699D01*
X136545934Y-103964699D01*
X136340000Y-103944417D01*
X136134067Y-103964699D01*
X135999736Y-104005448D01*
X135936050Y-104024767D01*
X135936043Y-104024769D01*
X135848114Y-104071769D01*
X135753550Y-104122315D01*
X135753548Y-104122316D01*
X135753547Y-104122317D01*
X135593589Y-104253589D01*
X135462317Y-104413547D01*
X135462315Y-104413550D01*
X135447769Y-104440764D01*
X135364769Y-104596043D01*
X135304699Y-104794067D01*
X135284417Y-105000000D01*
X134855583Y-105000000D01*
X134835300Y-104794066D01*
X134775232Y-104596046D01*
X134677685Y-104413550D01*
X134625702Y-104350209D01*
X134546410Y-104253589D01*
X134396121Y-104130252D01*
X134386450Y-104122315D01*
X134203954Y-104024768D01*
X134005934Y-103964700D01*
X134005932Y-103964699D01*
X134005934Y-103964699D01*
X133800000Y-103944417D01*
X133594067Y-103964699D01*
X133459736Y-104005448D01*
X133396050Y-104024767D01*
X133396043Y-104024769D01*
X133308114Y-104071769D01*
X133213550Y-104122315D01*
X133213548Y-104122316D01*
X133213547Y-104122317D01*
X133053589Y-104253589D01*
X132922317Y-104413547D01*
X132922315Y-104413550D01*
X132907769Y-104440764D01*
X132824769Y-104596043D01*
X132764699Y-104794067D01*
X132744417Y-105000000D01*
X132315583Y-105000000D01*
X132295300Y-104794066D01*
X132235232Y-104596046D01*
X132137685Y-104413550D01*
X132085702Y-104350209D01*
X132006410Y-104253589D01*
X131856121Y-104130252D01*
X131846450Y-104122315D01*
X131663954Y-104024768D01*
X131465934Y-103964700D01*
X131465932Y-103964699D01*
X131465934Y-103964699D01*
X131260000Y-103944417D01*
X131054067Y-103964699D01*
X130919736Y-104005448D01*
X130856050Y-104024767D01*
X130856043Y-104024769D01*
X130768114Y-104071769D01*
X130673550Y-104122315D01*
X130673548Y-104122316D01*
X130673547Y-104122317D01*
X130513589Y-104253589D01*
X130382317Y-104413547D01*
X130382315Y-104413550D01*
X130367769Y-104440764D01*
X130284769Y-104596043D01*
X130224699Y-104794067D01*
X130204417Y-105000000D01*
X129775583Y-105000000D01*
X129755300Y-104794066D01*
X129695232Y-104596046D01*
X129597685Y-104413550D01*
X129545702Y-104350209D01*
X129466410Y-104253589D01*
X129316121Y-104130252D01*
X129306450Y-104122315D01*
X129123954Y-104024768D01*
X128925934Y-103964700D01*
X128925932Y-103964699D01*
X128925934Y-103964699D01*
X128720000Y-103944417D01*
X128514067Y-103964699D01*
X128379736Y-104005448D01*
X128316050Y-104024767D01*
X128316043Y-104024769D01*
X128228114Y-104071769D01*
X128133550Y-104122315D01*
X128133548Y-104122316D01*
X128133547Y-104122317D01*
X127973589Y-104253589D01*
X127842317Y-104413547D01*
X127842315Y-104413550D01*
X127827769Y-104440764D01*
X127744769Y-104596043D01*
X127684699Y-104794067D01*
X127664417Y-105000000D01*
X127235583Y-105000000D01*
X127215300Y-104794066D01*
X127155232Y-104596046D01*
X127057685Y-104413550D01*
X127005702Y-104350209D01*
X126926410Y-104253589D01*
X126776121Y-104130252D01*
X126766450Y-104122315D01*
X126583954Y-104024768D01*
X126385934Y-103964700D01*
X126385932Y-103964699D01*
X126385934Y-103964699D01*
X126180000Y-103944417D01*
X125974067Y-103964699D01*
X125839736Y-104005448D01*
X125776050Y-104024767D01*
X125776043Y-104024769D01*
X125688114Y-104071769D01*
X125593550Y-104122315D01*
X125593548Y-104122316D01*
X125593547Y-104122317D01*
X125433589Y-104253589D01*
X125302317Y-104413547D01*
X125302315Y-104413550D01*
X125287769Y-104440764D01*
X125204769Y-104596043D01*
X125144699Y-104794067D01*
X125124417Y-105000000D01*
X124695583Y-105000000D01*
X124675300Y-104794066D01*
X124615232Y-104596046D01*
X124517685Y-104413550D01*
X124465702Y-104350209D01*
X124386410Y-104253589D01*
X124236121Y-104130252D01*
X124226450Y-104122315D01*
X124043954Y-104024768D01*
X123845934Y-103964700D01*
X123845932Y-103964699D01*
X123845934Y-103964699D01*
X123640000Y-103944417D01*
X123434067Y-103964699D01*
X123299736Y-104005448D01*
X123236050Y-104024767D01*
X123236043Y-104024769D01*
X123148114Y-104071769D01*
X123053550Y-104122315D01*
X123053548Y-104122316D01*
X123053547Y-104122317D01*
X122893589Y-104253589D01*
X122762317Y-104413547D01*
X122762315Y-104413550D01*
X122747769Y-104440764D01*
X122664769Y-104596043D01*
X122604699Y-104794067D01*
X122584417Y-105000000D01*
X122155583Y-105000000D01*
X122135300Y-104794066D01*
X122075232Y-104596046D01*
X121977685Y-104413550D01*
X121925702Y-104350209D01*
X121846410Y-104253589D01*
X121696121Y-104130252D01*
X121686450Y-104122315D01*
X121503954Y-104024768D01*
X121305934Y-103964700D01*
X121305932Y-103964699D01*
X121305934Y-103964699D01*
X121100000Y-103944417D01*
X120894067Y-103964699D01*
X120759736Y-104005448D01*
X120696050Y-104024767D01*
X120696043Y-104024769D01*
X120608114Y-104071769D01*
X120513550Y-104122315D01*
X120513548Y-104122316D01*
X120513547Y-104122317D01*
X120353589Y-104253589D01*
X120222317Y-104413547D01*
X120222315Y-104413550D01*
X120207769Y-104440764D01*
X120124769Y-104596043D01*
X120064699Y-104794067D01*
X120044417Y-105000000D01*
X119615583Y-105000000D01*
X119595300Y-104794066D01*
X119535232Y-104596046D01*
X119437685Y-104413550D01*
X119385702Y-104350209D01*
X119306410Y-104253589D01*
X119156121Y-104130252D01*
X119146450Y-104122315D01*
X118963954Y-104024768D01*
X118765934Y-103964700D01*
X118765932Y-103964699D01*
X118765934Y-103964699D01*
X118560000Y-103944417D01*
X118354067Y-103964699D01*
X118219736Y-104005448D01*
X118156050Y-104024767D01*
X118156043Y-104024769D01*
X118068114Y-104071769D01*
X117973550Y-104122315D01*
X117973548Y-104122316D01*
X117973547Y-104122317D01*
X117813589Y-104253589D01*
X117682317Y-104413547D01*
X117682315Y-104413550D01*
X117667769Y-104440764D01*
X117584769Y-104596043D01*
X117524699Y-104794067D01*
X117504417Y-105000000D01*
X117075583Y-105000000D01*
X117055300Y-104794066D01*
X116995232Y-104596046D01*
X116897685Y-104413550D01*
X116845702Y-104350209D01*
X116766410Y-104253589D01*
X116616121Y-104130252D01*
X116606450Y-104122315D01*
X116423954Y-104024768D01*
X116225934Y-103964700D01*
X116225932Y-103964699D01*
X116225934Y-103964699D01*
X116020000Y-103944417D01*
X115814067Y-103964699D01*
X115679736Y-104005448D01*
X115616050Y-104024767D01*
X115616043Y-104024769D01*
X115528114Y-104071769D01*
X115433550Y-104122315D01*
X115433548Y-104122316D01*
X115433547Y-104122317D01*
X115273589Y-104253589D01*
X115142317Y-104413547D01*
X115142315Y-104413550D01*
X115127769Y-104440764D01*
X115044769Y-104596043D01*
X114984699Y-104794067D01*
X114964417Y-105000000D01*
X114535583Y-105000000D01*
X114515300Y-104794066D01*
X114455232Y-104596046D01*
X114357685Y-104413550D01*
X114305702Y-104350209D01*
X114226410Y-104253589D01*
X114076121Y-104130252D01*
X114066450Y-104122315D01*
X113883954Y-104024768D01*
X113685934Y-103964700D01*
X113685932Y-103964699D01*
X113685934Y-103964699D01*
X113480000Y-103944417D01*
X113274067Y-103964699D01*
X113139736Y-104005448D01*
X113076050Y-104024767D01*
X113076043Y-104024769D01*
X112988114Y-104071769D01*
X112893550Y-104122315D01*
X112893548Y-104122316D01*
X112893547Y-104122317D01*
X112733589Y-104253589D01*
X112602317Y-104413547D01*
X112602315Y-104413550D01*
X112587769Y-104440764D01*
X112504769Y-104596043D01*
X112444699Y-104794067D01*
X112424417Y-105000000D01*
X111995583Y-105000000D01*
X111975300Y-104794066D01*
X111915232Y-104596046D01*
X111817685Y-104413550D01*
X111765702Y-104350209D01*
X111686410Y-104253589D01*
X111536121Y-104130252D01*
X111526450Y-104122315D01*
X111343954Y-104024768D01*
X111277447Y-104004593D01*
X111219009Y-103966296D01*
X111190553Y-103902484D01*
X111201113Y-103833417D01*
X111247337Y-103781023D01*
X111281350Y-103766158D01*
X111403483Y-103733433D01*
X111403492Y-103733429D01*
X111617578Y-103633600D01*
X111811082Y-103498105D01*
X111978105Y-103331082D01*
X112113600Y-103137578D01*
X112213429Y-102923492D01*
X112213433Y-102923483D01*
X112246158Y-102801350D01*
X112282522Y-102741690D01*
X112345369Y-102711160D01*
X112414745Y-102719454D01*
X112468623Y-102763939D01*
X112484593Y-102797447D01*
X112495920Y-102834787D01*
X112504769Y-102863956D01*
X112511502Y-102876554D01*
X112602315Y-103046450D01*
X112602317Y-103046452D01*
X112733589Y-103206410D01*
X112830209Y-103285702D01*
X112893550Y-103337685D01*
X113076046Y-103435232D01*
X113274066Y-103495300D01*
X113274065Y-103495300D01*
X113288849Y-103496756D01*
X113480000Y-103515583D01*
X113685934Y-103495300D01*
X113883954Y-103435232D01*
X114066450Y-103337685D01*
X114226410Y-103206410D01*
X114357685Y-103046450D01*
X114455232Y-102863954D01*
X114515300Y-102665934D01*
X114535583Y-102460000D01*
X114964417Y-102460000D01*
X114984699Y-102665932D01*
X114984700Y-102665934D01*
X115035920Y-102834787D01*
X115044769Y-102863956D01*
X115051502Y-102876554D01*
X115142315Y-103046450D01*
X115142317Y-103046452D01*
X115273589Y-103206410D01*
X115370209Y-103285702D01*
X115433550Y-103337685D01*
X115616046Y-103435232D01*
X115814066Y-103495300D01*
X115814065Y-103495300D01*
X115828849Y-103496756D01*
X116020000Y-103515583D01*
X116225934Y-103495300D01*
X116423954Y-103435232D01*
X116606450Y-103337685D01*
X116766410Y-103206410D01*
X116897685Y-103046450D01*
X116995232Y-102863954D01*
X117055300Y-102665934D01*
X117075583Y-102460000D01*
X117504417Y-102460000D01*
X117524699Y-102665932D01*
X117524700Y-102665934D01*
X117575920Y-102834787D01*
X117584769Y-102863956D01*
X117591502Y-102876554D01*
X117682315Y-103046450D01*
X117682317Y-103046452D01*
X117813589Y-103206410D01*
X117910209Y-103285702D01*
X117973550Y-103337685D01*
X118156046Y-103435232D01*
X118354066Y-103495300D01*
X118354065Y-103495300D01*
X118368849Y-103496756D01*
X118560000Y-103515583D01*
X118765934Y-103495300D01*
X118963954Y-103435232D01*
X119146450Y-103337685D01*
X119306410Y-103206410D01*
X119437685Y-103046450D01*
X119535232Y-102863954D01*
X119595300Y-102665934D01*
X119615583Y-102460000D01*
X120044417Y-102460000D01*
X120064699Y-102665932D01*
X120064700Y-102665934D01*
X120115920Y-102834787D01*
X120124769Y-102863956D01*
X120131502Y-102876554D01*
X120222315Y-103046450D01*
X120222317Y-103046452D01*
X120353589Y-103206410D01*
X120450209Y-103285702D01*
X120513550Y-103337685D01*
X120696046Y-103435232D01*
X120894066Y-103495300D01*
X120894065Y-103495300D01*
X120908849Y-103496756D01*
X121100000Y-103515583D01*
X121305934Y-103495300D01*
X121503954Y-103435232D01*
X121686450Y-103337685D01*
X121846410Y-103206410D01*
X121977685Y-103046450D01*
X122075232Y-102863954D01*
X122135300Y-102665934D01*
X122155583Y-102460000D01*
X122584417Y-102460000D01*
X122604699Y-102665932D01*
X122604700Y-102665934D01*
X122655920Y-102834787D01*
X122664769Y-102863956D01*
X122671502Y-102876554D01*
X122762315Y-103046450D01*
X122762317Y-103046452D01*
X122893589Y-103206410D01*
X122990209Y-103285702D01*
X123053550Y-103337685D01*
X123236046Y-103435232D01*
X123434066Y-103495300D01*
X123434065Y-103495300D01*
X123448849Y-103496756D01*
X123640000Y-103515583D01*
X123845934Y-103495300D01*
X124043954Y-103435232D01*
X124226450Y-103337685D01*
X124386410Y-103206410D01*
X124517685Y-103046450D01*
X124615232Y-102863954D01*
X124675300Y-102665934D01*
X124695583Y-102460000D01*
X125124417Y-102460000D01*
X125144699Y-102665932D01*
X125144700Y-102665934D01*
X125195920Y-102834787D01*
X125204769Y-102863956D01*
X125211502Y-102876554D01*
X125302315Y-103046450D01*
X125302317Y-103046452D01*
X125433589Y-103206410D01*
X125530209Y-103285702D01*
X125593550Y-103337685D01*
X125776046Y-103435232D01*
X125974066Y-103495300D01*
X125974065Y-103495300D01*
X125988849Y-103496756D01*
X126180000Y-103515583D01*
X126385934Y-103495300D01*
X126583954Y-103435232D01*
X126766450Y-103337685D01*
X126926410Y-103206410D01*
X127057685Y-103046450D01*
X127155232Y-102863954D01*
X127215300Y-102665934D01*
X127235583Y-102460000D01*
X127664417Y-102460000D01*
X127684699Y-102665932D01*
X127684700Y-102665934D01*
X127735920Y-102834787D01*
X127744769Y-102863956D01*
X127751502Y-102876554D01*
X127842315Y-103046450D01*
X127842317Y-103046452D01*
X127973589Y-103206410D01*
X128070209Y-103285702D01*
X128133550Y-103337685D01*
X128316046Y-103435232D01*
X128514066Y-103495300D01*
X128514065Y-103495300D01*
X128528849Y-103496756D01*
X128720000Y-103515583D01*
X128925934Y-103495300D01*
X129123954Y-103435232D01*
X129306450Y-103337685D01*
X129466410Y-103206410D01*
X129597685Y-103046450D01*
X129695232Y-102863954D01*
X129755300Y-102665934D01*
X129775583Y-102460000D01*
X130204417Y-102460000D01*
X130224699Y-102665932D01*
X130224700Y-102665934D01*
X130275920Y-102834787D01*
X130284769Y-102863956D01*
X130291502Y-102876554D01*
X130382315Y-103046450D01*
X130382317Y-103046452D01*
X130513589Y-103206410D01*
X130610209Y-103285702D01*
X130673550Y-103337685D01*
X130856046Y-103435232D01*
X131054066Y-103495300D01*
X131054065Y-103495300D01*
X131068849Y-103496756D01*
X131260000Y-103515583D01*
X131465934Y-103495300D01*
X131663954Y-103435232D01*
X131846450Y-103337685D01*
X132006410Y-103206410D01*
X132137685Y-103046450D01*
X132235232Y-102863954D01*
X132295300Y-102665934D01*
X132315583Y-102460000D01*
X132744417Y-102460000D01*
X132764699Y-102665932D01*
X132764700Y-102665934D01*
X132815920Y-102834787D01*
X132824769Y-102863956D01*
X132831502Y-102876554D01*
X132922315Y-103046450D01*
X132922317Y-103046452D01*
X133053589Y-103206410D01*
X133150209Y-103285702D01*
X133213550Y-103337685D01*
X133396046Y-103435232D01*
X133594066Y-103495300D01*
X133594065Y-103495300D01*
X133608849Y-103496756D01*
X133800000Y-103515583D01*
X134005934Y-103495300D01*
X134203954Y-103435232D01*
X134386450Y-103337685D01*
X134546410Y-103206410D01*
X134677685Y-103046450D01*
X134775232Y-102863954D01*
X134835300Y-102665934D01*
X134855583Y-102460000D01*
X135284417Y-102460000D01*
X135304699Y-102665932D01*
X135304700Y-102665934D01*
X135355920Y-102834787D01*
X135364769Y-102863956D01*
X135371502Y-102876554D01*
X135462315Y-103046450D01*
X135462317Y-103046452D01*
X135593589Y-103206410D01*
X135690209Y-103285702D01*
X135753550Y-103337685D01*
X135936046Y-103435232D01*
X136134066Y-103495300D01*
X136134065Y-103495300D01*
X136148849Y-103496756D01*
X136340000Y-103515583D01*
X136545934Y-103495300D01*
X136743954Y-103435232D01*
X136926450Y-103337685D01*
X137086410Y-103206410D01*
X137217685Y-103046450D01*
X137315232Y-102863954D01*
X137375300Y-102665934D01*
X137395583Y-102460000D01*
X137824417Y-102460000D01*
X137844699Y-102665932D01*
X137844700Y-102665934D01*
X137895920Y-102834787D01*
X137904769Y-102863956D01*
X137911502Y-102876554D01*
X138002315Y-103046450D01*
X138002317Y-103046452D01*
X138133589Y-103206410D01*
X138230209Y-103285702D01*
X138293550Y-103337685D01*
X138476046Y-103435232D01*
X138674066Y-103495300D01*
X138674065Y-103495300D01*
X138688849Y-103496756D01*
X138880000Y-103515583D01*
X139085934Y-103495300D01*
X139283954Y-103435232D01*
X139466450Y-103337685D01*
X139626410Y-103206410D01*
X139757685Y-103046450D01*
X139855232Y-102863954D01*
X139915300Y-102665934D01*
X139935583Y-102460000D01*
X140364417Y-102460000D01*
X140384699Y-102665932D01*
X140384700Y-102665934D01*
X140435920Y-102834787D01*
X140444769Y-102863956D01*
X140451502Y-102876554D01*
X140542315Y-103046450D01*
X140542317Y-103046452D01*
X140673589Y-103206410D01*
X140770209Y-103285702D01*
X140833550Y-103337685D01*
X141016046Y-103435232D01*
X141214066Y-103495300D01*
X141214065Y-103495300D01*
X141228849Y-103496756D01*
X141420000Y-103515583D01*
X141625934Y-103495300D01*
X141823954Y-103435232D01*
X142006450Y-103337685D01*
X142166410Y-103206410D01*
X142297685Y-103046450D01*
X142395232Y-102863954D01*
X142455300Y-102665934D01*
X142475583Y-102460000D01*
X142904417Y-102460000D01*
X142924699Y-102665932D01*
X142924700Y-102665934D01*
X142975920Y-102834787D01*
X142984769Y-102863956D01*
X142991502Y-102876554D01*
X143082315Y-103046450D01*
X143082317Y-103046452D01*
X143213589Y-103206410D01*
X143310209Y-103285702D01*
X143373550Y-103337685D01*
X143556046Y-103435232D01*
X143754066Y-103495300D01*
X143754065Y-103495300D01*
X143768849Y-103496756D01*
X143960000Y-103515583D01*
X144165934Y-103495300D01*
X144363954Y-103435232D01*
X144546450Y-103337685D01*
X144706410Y-103206410D01*
X144837685Y-103046450D01*
X144935232Y-102863954D01*
X144995300Y-102665934D01*
X145015583Y-102460000D01*
X145444417Y-102460000D01*
X145464699Y-102665932D01*
X145464700Y-102665934D01*
X145515920Y-102834787D01*
X145524769Y-102863956D01*
X145531502Y-102876554D01*
X145622315Y-103046450D01*
X145622317Y-103046452D01*
X145753589Y-103206410D01*
X145850209Y-103285702D01*
X145913550Y-103337685D01*
X146096046Y-103435232D01*
X146294066Y-103495300D01*
X146294065Y-103495300D01*
X146308849Y-103496756D01*
X146500000Y-103515583D01*
X146705934Y-103495300D01*
X146903954Y-103435232D01*
X147086450Y-103337685D01*
X147246410Y-103206410D01*
X147377685Y-103046450D01*
X147475232Y-102863954D01*
X147535300Y-102665934D01*
X147555583Y-102460000D01*
X147984417Y-102460000D01*
X148004699Y-102665932D01*
X148004700Y-102665934D01*
X148055920Y-102834787D01*
X148064769Y-102863956D01*
X148071502Y-102876554D01*
X148162315Y-103046450D01*
X148162317Y-103046452D01*
X148293589Y-103206410D01*
X148390209Y-103285702D01*
X148453550Y-103337685D01*
X148636046Y-103435232D01*
X148834066Y-103495300D01*
X148834065Y-103495300D01*
X148848849Y-103496756D01*
X149040000Y-103515583D01*
X149245934Y-103495300D01*
X149443954Y-103435232D01*
X149626450Y-103337685D01*
X149786410Y-103206410D01*
X149917685Y-103046450D01*
X150015232Y-102863954D01*
X150075300Y-102665934D01*
X150095583Y-102460000D01*
X150524417Y-102460000D01*
X150544699Y-102665932D01*
X150544700Y-102665934D01*
X150595920Y-102834787D01*
X150604769Y-102863956D01*
X150611502Y-102876554D01*
X150702315Y-103046450D01*
X150702317Y-103046452D01*
X150833589Y-103206410D01*
X150930209Y-103285702D01*
X150993550Y-103337685D01*
X151176046Y-103435232D01*
X151374066Y-103495300D01*
X151374065Y-103495300D01*
X151388849Y-103496756D01*
X151580000Y-103515583D01*
X151785934Y-103495300D01*
X151983954Y-103435232D01*
X152166450Y-103337685D01*
X152326410Y-103206410D01*
X152457685Y-103046450D01*
X152555232Y-102863954D01*
X152615300Y-102665934D01*
X152635583Y-102460000D01*
X153064417Y-102460000D01*
X153084699Y-102665932D01*
X153084700Y-102665934D01*
X153135920Y-102834787D01*
X153144769Y-102863956D01*
X153151502Y-102876554D01*
X153242315Y-103046450D01*
X153242317Y-103046452D01*
X153373589Y-103206410D01*
X153470209Y-103285702D01*
X153533550Y-103337685D01*
X153716046Y-103435232D01*
X153914066Y-103495300D01*
X153914065Y-103495300D01*
X153928849Y-103496756D01*
X154120000Y-103515583D01*
X154325934Y-103495300D01*
X154523954Y-103435232D01*
X154706450Y-103337685D01*
X154866410Y-103206410D01*
X154997685Y-103046450D01*
X155095232Y-102863954D01*
X155155300Y-102665934D01*
X155175583Y-102460000D01*
X155604417Y-102460000D01*
X155624699Y-102665932D01*
X155624700Y-102665934D01*
X155675920Y-102834787D01*
X155684769Y-102863956D01*
X155691502Y-102876554D01*
X155782315Y-103046450D01*
X155782317Y-103046452D01*
X155913589Y-103206410D01*
X156010209Y-103285702D01*
X156073550Y-103337685D01*
X156256046Y-103435232D01*
X156454066Y-103495300D01*
X156454065Y-103495300D01*
X156468849Y-103496756D01*
X156660000Y-103515583D01*
X156818276Y-103499994D01*
X158944457Y-103499994D01*
X158944457Y-103500005D01*
X158964606Y-103820283D01*
X158964607Y-103820290D01*
X158985500Y-103929815D01*
X159012579Y-104071769D01*
X159024745Y-104135542D01*
X159123916Y-104440759D01*
X159123918Y-104440764D01*
X159260558Y-104731138D01*
X159260562Y-104731144D01*
X159432520Y-105002108D01*
X159432522Y-105002111D01*
X159637087Y-105249388D01*
X159871034Y-105469078D01*
X159871044Y-105469086D01*
X160130660Y-105657708D01*
X160130666Y-105657711D01*
X160130672Y-105657716D01*
X160411903Y-105812324D01*
X160710294Y-105930466D01*
X160710293Y-105930466D01*
X160884639Y-105975230D01*
X161021139Y-106010277D01*
X161087935Y-106018715D01*
X161339524Y-106050499D01*
X161339533Y-106050499D01*
X161339536Y-106050500D01*
X161339538Y-106050500D01*
X161660462Y-106050500D01*
X161660464Y-106050500D01*
X161660467Y-106050499D01*
X161660475Y-106050499D01*
X161850463Y-106026497D01*
X161978861Y-106010277D01*
X162289706Y-105930466D01*
X162588097Y-105812324D01*
X162869328Y-105657716D01*
X163128964Y-105469080D01*
X163362911Y-105249390D01*
X163567478Y-105002110D01*
X163739439Y-104731142D01*
X163876084Y-104440758D01*
X163975256Y-104135538D01*
X164035392Y-103820294D01*
X164039230Y-103759290D01*
X164055543Y-103500005D01*
X164055543Y-103499994D01*
X164035393Y-103179716D01*
X164035392Y-103179709D01*
X164035392Y-103179706D01*
X163975256Y-102864462D01*
X163876084Y-102559242D01*
X163860360Y-102525826D01*
X163739441Y-102268861D01*
X163739437Y-102268855D01*
X163567479Y-101997891D01*
X163567477Y-101997888D01*
X163362912Y-101750611D01*
X163323489Y-101713590D01*
X163128964Y-101530920D01*
X163128961Y-101530918D01*
X163128955Y-101530913D01*
X162869339Y-101342291D01*
X162869321Y-101342280D01*
X162588096Y-101187675D01*
X162588093Y-101187674D01*
X162289703Y-101069533D01*
X162289706Y-101069533D01*
X161978864Y-100989723D01*
X161978851Y-100989721D01*
X161660475Y-100949500D01*
X161660464Y-100949500D01*
X161339536Y-100949500D01*
X161339524Y-100949500D01*
X161021148Y-100989721D01*
X161021135Y-100989723D01*
X160710294Y-101069533D01*
X160411906Y-101187674D01*
X160411903Y-101187675D01*
X160130678Y-101342280D01*
X160130660Y-101342291D01*
X159871044Y-101530913D01*
X159871034Y-101530921D01*
X159637087Y-101750611D01*
X159432522Y-101997888D01*
X159432520Y-101997891D01*
X159260562Y-102268855D01*
X159260558Y-102268861D01*
X159123918Y-102559235D01*
X159123916Y-102559240D01*
X159024745Y-102864457D01*
X158964607Y-103179709D01*
X158964606Y-103179716D01*
X158944457Y-103499994D01*
X156818276Y-103499994D01*
X156865934Y-103495300D01*
X157063954Y-103435232D01*
X157246450Y-103337685D01*
X157406410Y-103206410D01*
X157537685Y-103046450D01*
X157635232Y-102863954D01*
X157695300Y-102665934D01*
X157715583Y-102460000D01*
X157695300Y-102254066D01*
X157635232Y-102056046D01*
X157537685Y-101873550D01*
X157456833Y-101775031D01*
X157406410Y-101713589D01*
X157285464Y-101614333D01*
X157246450Y-101582315D01*
X157063954Y-101484768D01*
X156865934Y-101424700D01*
X156865932Y-101424699D01*
X156865934Y-101424699D01*
X156660000Y-101404417D01*
X156454067Y-101424699D01*
X156256043Y-101484769D01*
X156145898Y-101543643D01*
X156073550Y-101582315D01*
X156073548Y-101582316D01*
X156073547Y-101582317D01*
X155913589Y-101713589D01*
X155782670Y-101873117D01*
X155782315Y-101873550D01*
X155764951Y-101906035D01*
X155684769Y-102056043D01*
X155624699Y-102254067D01*
X155604417Y-102460000D01*
X155175583Y-102460000D01*
X155155300Y-102254066D01*
X155095232Y-102056046D01*
X154997685Y-101873550D01*
X154916833Y-101775031D01*
X154866410Y-101713589D01*
X154745464Y-101614333D01*
X154706450Y-101582315D01*
X154523954Y-101484768D01*
X154325934Y-101424700D01*
X154325932Y-101424699D01*
X154325934Y-101424699D01*
X154120000Y-101404417D01*
X153914067Y-101424699D01*
X153716043Y-101484769D01*
X153605898Y-101543643D01*
X153533550Y-101582315D01*
X153533548Y-101582316D01*
X153533547Y-101582317D01*
X153373589Y-101713589D01*
X153242670Y-101873117D01*
X153242315Y-101873550D01*
X153224951Y-101906035D01*
X153144769Y-102056043D01*
X153084699Y-102254067D01*
X153064417Y-102460000D01*
X152635583Y-102460000D01*
X152615300Y-102254066D01*
X152555232Y-102056046D01*
X152457685Y-101873550D01*
X152376833Y-101775031D01*
X152326410Y-101713589D01*
X152205464Y-101614333D01*
X152166450Y-101582315D01*
X151983954Y-101484768D01*
X151785934Y-101424700D01*
X151785932Y-101424699D01*
X151785934Y-101424699D01*
X151580000Y-101404417D01*
X151374067Y-101424699D01*
X151176043Y-101484769D01*
X151065898Y-101543643D01*
X150993550Y-101582315D01*
X150993548Y-101582316D01*
X150993547Y-101582317D01*
X150833589Y-101713589D01*
X150702670Y-101873117D01*
X150702315Y-101873550D01*
X150684951Y-101906035D01*
X150604769Y-102056043D01*
X150544699Y-102254067D01*
X150524417Y-102460000D01*
X150095583Y-102460000D01*
X150075300Y-102254066D01*
X150015232Y-102056046D01*
X149917685Y-101873550D01*
X149836833Y-101775031D01*
X149786410Y-101713589D01*
X149665464Y-101614333D01*
X149626450Y-101582315D01*
X149443954Y-101484768D01*
X149245934Y-101424700D01*
X149245932Y-101424699D01*
X149245934Y-101424699D01*
X149040000Y-101404417D01*
X148834067Y-101424699D01*
X148636043Y-101484769D01*
X148525898Y-101543643D01*
X148453550Y-101582315D01*
X148453548Y-101582316D01*
X148453547Y-101582317D01*
X148293589Y-101713589D01*
X148162670Y-101873117D01*
X148162315Y-101873550D01*
X148144951Y-101906035D01*
X148064769Y-102056043D01*
X148004699Y-102254067D01*
X147984417Y-102460000D01*
X147555583Y-102460000D01*
X147535300Y-102254066D01*
X147475232Y-102056046D01*
X147377685Y-101873550D01*
X147296833Y-101775031D01*
X147246410Y-101713589D01*
X147125464Y-101614333D01*
X147086450Y-101582315D01*
X146903954Y-101484768D01*
X146705934Y-101424700D01*
X146705932Y-101424699D01*
X146705934Y-101424699D01*
X146500000Y-101404417D01*
X146294067Y-101424699D01*
X146096043Y-101484769D01*
X145985898Y-101543643D01*
X145913550Y-101582315D01*
X145913548Y-101582316D01*
X145913547Y-101582317D01*
X145753589Y-101713589D01*
X145622670Y-101873117D01*
X145622315Y-101873550D01*
X145604951Y-101906035D01*
X145524769Y-102056043D01*
X145464699Y-102254067D01*
X145444417Y-102460000D01*
X145015583Y-102460000D01*
X144995300Y-102254066D01*
X144935232Y-102056046D01*
X144837685Y-101873550D01*
X144756833Y-101775031D01*
X144706410Y-101713589D01*
X144585464Y-101614333D01*
X144546450Y-101582315D01*
X144363954Y-101484768D01*
X144165934Y-101424700D01*
X144165932Y-101424699D01*
X144165934Y-101424699D01*
X143960000Y-101404417D01*
X143754067Y-101424699D01*
X143556043Y-101484769D01*
X143445898Y-101543643D01*
X143373550Y-101582315D01*
X143373548Y-101582316D01*
X143373547Y-101582317D01*
X143213589Y-101713589D01*
X143082670Y-101873117D01*
X143082315Y-101873550D01*
X143064951Y-101906035D01*
X142984769Y-102056043D01*
X142924699Y-102254067D01*
X142904417Y-102460000D01*
X142475583Y-102460000D01*
X142455300Y-102254066D01*
X142395232Y-102056046D01*
X142297685Y-101873550D01*
X142216833Y-101775031D01*
X142166410Y-101713589D01*
X142045464Y-101614333D01*
X142006450Y-101582315D01*
X141823954Y-101484768D01*
X141625934Y-101424700D01*
X141625932Y-101424699D01*
X141625934Y-101424699D01*
X141420000Y-101404417D01*
X141214067Y-101424699D01*
X141016043Y-101484769D01*
X140905898Y-101543643D01*
X140833550Y-101582315D01*
X140833548Y-101582316D01*
X140833547Y-101582317D01*
X140673589Y-101713589D01*
X140542670Y-101873117D01*
X140542315Y-101873550D01*
X140524951Y-101906035D01*
X140444769Y-102056043D01*
X140384699Y-102254067D01*
X140364417Y-102460000D01*
X139935583Y-102460000D01*
X139915300Y-102254066D01*
X139855232Y-102056046D01*
X139757685Y-101873550D01*
X139676833Y-101775031D01*
X139626410Y-101713589D01*
X139505464Y-101614333D01*
X139466450Y-101582315D01*
X139283954Y-101484768D01*
X139085934Y-101424700D01*
X139085932Y-101424699D01*
X139085934Y-101424699D01*
X138880000Y-101404417D01*
X138674067Y-101424699D01*
X138476043Y-101484769D01*
X138365898Y-101543643D01*
X138293550Y-101582315D01*
X138293548Y-101582316D01*
X138293547Y-101582317D01*
X138133589Y-101713589D01*
X138002670Y-101873117D01*
X138002315Y-101873550D01*
X137984951Y-101906035D01*
X137904769Y-102056043D01*
X137844699Y-102254067D01*
X137824417Y-102460000D01*
X137395583Y-102460000D01*
X137375300Y-102254066D01*
X137315232Y-102056046D01*
X137217685Y-101873550D01*
X137136833Y-101775031D01*
X137086410Y-101713589D01*
X136965464Y-101614333D01*
X136926450Y-101582315D01*
X136743954Y-101484768D01*
X136545934Y-101424700D01*
X136545932Y-101424699D01*
X136545934Y-101424699D01*
X136340000Y-101404417D01*
X136134067Y-101424699D01*
X135936043Y-101484769D01*
X135825898Y-101543643D01*
X135753550Y-101582315D01*
X135753548Y-101582316D01*
X135753547Y-101582317D01*
X135593589Y-101713589D01*
X135462670Y-101873117D01*
X135462315Y-101873550D01*
X135444951Y-101906035D01*
X135364769Y-102056043D01*
X135304699Y-102254067D01*
X135284417Y-102460000D01*
X134855583Y-102460000D01*
X134835300Y-102254066D01*
X134775232Y-102056046D01*
X134677685Y-101873550D01*
X134596833Y-101775031D01*
X134546410Y-101713589D01*
X134425464Y-101614333D01*
X134386450Y-101582315D01*
X134203954Y-101484768D01*
X134005934Y-101424700D01*
X134005932Y-101424699D01*
X134005934Y-101424699D01*
X133800000Y-101404417D01*
X133594067Y-101424699D01*
X133396043Y-101484769D01*
X133285898Y-101543643D01*
X133213550Y-101582315D01*
X133213548Y-101582316D01*
X133213547Y-101582317D01*
X133053589Y-101713589D01*
X132922670Y-101873117D01*
X132922315Y-101873550D01*
X132904951Y-101906035D01*
X132824769Y-102056043D01*
X132764699Y-102254067D01*
X132744417Y-102460000D01*
X132315583Y-102460000D01*
X132295300Y-102254066D01*
X132235232Y-102056046D01*
X132137685Y-101873550D01*
X132056833Y-101775031D01*
X132006410Y-101713589D01*
X131885464Y-101614333D01*
X131846450Y-101582315D01*
X131663954Y-101484768D01*
X131465934Y-101424700D01*
X131465932Y-101424699D01*
X131465934Y-101424699D01*
X131260000Y-101404417D01*
X131054067Y-101424699D01*
X130856043Y-101484769D01*
X130745898Y-101543643D01*
X130673550Y-101582315D01*
X130673548Y-101582316D01*
X130673547Y-101582317D01*
X130513589Y-101713589D01*
X130382670Y-101873117D01*
X130382315Y-101873550D01*
X130364951Y-101906035D01*
X130284769Y-102056043D01*
X130224699Y-102254067D01*
X130204417Y-102460000D01*
X129775583Y-102460000D01*
X129755300Y-102254066D01*
X129695232Y-102056046D01*
X129597685Y-101873550D01*
X129516833Y-101775031D01*
X129466410Y-101713589D01*
X129345464Y-101614333D01*
X129306450Y-101582315D01*
X129123954Y-101484768D01*
X128925934Y-101424700D01*
X128925932Y-101424699D01*
X128925934Y-101424699D01*
X128720000Y-101404417D01*
X128514067Y-101424699D01*
X128316043Y-101484769D01*
X128205898Y-101543643D01*
X128133550Y-101582315D01*
X128133548Y-101582316D01*
X128133547Y-101582317D01*
X127973589Y-101713589D01*
X127842670Y-101873117D01*
X127842315Y-101873550D01*
X127824951Y-101906035D01*
X127744769Y-102056043D01*
X127684699Y-102254067D01*
X127664417Y-102460000D01*
X127235583Y-102460000D01*
X127215300Y-102254066D01*
X127155232Y-102056046D01*
X127057685Y-101873550D01*
X126976833Y-101775031D01*
X126926410Y-101713589D01*
X126805464Y-101614333D01*
X126766450Y-101582315D01*
X126583954Y-101484768D01*
X126385934Y-101424700D01*
X126385932Y-101424699D01*
X126385934Y-101424699D01*
X126180000Y-101404417D01*
X125974067Y-101424699D01*
X125776043Y-101484769D01*
X125665898Y-101543643D01*
X125593550Y-101582315D01*
X125593548Y-101582316D01*
X125593547Y-101582317D01*
X125433589Y-101713589D01*
X125302670Y-101873117D01*
X125302315Y-101873550D01*
X125284951Y-101906035D01*
X125204769Y-102056043D01*
X125144699Y-102254067D01*
X125124417Y-102460000D01*
X124695583Y-102460000D01*
X124675300Y-102254066D01*
X124615232Y-102056046D01*
X124517685Y-101873550D01*
X124436833Y-101775031D01*
X124386410Y-101713589D01*
X124265464Y-101614333D01*
X124226450Y-101582315D01*
X124043954Y-101484768D01*
X123845934Y-101424700D01*
X123845932Y-101424699D01*
X123845934Y-101424699D01*
X123640000Y-101404417D01*
X123434067Y-101424699D01*
X123236043Y-101484769D01*
X123125898Y-101543643D01*
X123053550Y-101582315D01*
X123053548Y-101582316D01*
X123053547Y-101582317D01*
X122893589Y-101713589D01*
X122762670Y-101873117D01*
X122762315Y-101873550D01*
X122744951Y-101906035D01*
X122664769Y-102056043D01*
X122604699Y-102254067D01*
X122584417Y-102460000D01*
X122155583Y-102460000D01*
X122135300Y-102254066D01*
X122075232Y-102056046D01*
X121977685Y-101873550D01*
X121896833Y-101775031D01*
X121846410Y-101713589D01*
X121725464Y-101614333D01*
X121686450Y-101582315D01*
X121503954Y-101484768D01*
X121305934Y-101424700D01*
X121305932Y-101424699D01*
X121305934Y-101424699D01*
X121100000Y-101404417D01*
X120894067Y-101424699D01*
X120696043Y-101484769D01*
X120585898Y-101543643D01*
X120513550Y-101582315D01*
X120513548Y-101582316D01*
X120513547Y-101582317D01*
X120353589Y-101713589D01*
X120222670Y-101873117D01*
X120222315Y-101873550D01*
X120204951Y-101906035D01*
X120124769Y-102056043D01*
X120064699Y-102254067D01*
X120044417Y-102460000D01*
X119615583Y-102460000D01*
X119595300Y-102254066D01*
X119535232Y-102056046D01*
X119437685Y-101873550D01*
X119356833Y-101775031D01*
X119306410Y-101713589D01*
X119185464Y-101614333D01*
X119146450Y-101582315D01*
X118963954Y-101484768D01*
X118765934Y-101424700D01*
X118765932Y-101424699D01*
X118765934Y-101424699D01*
X118560000Y-101404417D01*
X118354067Y-101424699D01*
X118156043Y-101484769D01*
X118045898Y-101543643D01*
X117973550Y-101582315D01*
X117973548Y-101582316D01*
X117973547Y-101582317D01*
X117813589Y-101713589D01*
X117682670Y-101873117D01*
X117682315Y-101873550D01*
X117664951Y-101906035D01*
X117584769Y-102056043D01*
X117524699Y-102254067D01*
X117504417Y-102460000D01*
X117075583Y-102460000D01*
X117055300Y-102254066D01*
X116995232Y-102056046D01*
X116897685Y-101873550D01*
X116816833Y-101775031D01*
X116766410Y-101713589D01*
X116645464Y-101614333D01*
X116606450Y-101582315D01*
X116423954Y-101484768D01*
X116225934Y-101424700D01*
X116225932Y-101424699D01*
X116225934Y-101424699D01*
X116020000Y-101404417D01*
X115814067Y-101424699D01*
X115616043Y-101484769D01*
X115505898Y-101543643D01*
X115433550Y-101582315D01*
X115433548Y-101582316D01*
X115433547Y-101582317D01*
X115273589Y-101713589D01*
X115142670Y-101873117D01*
X115142315Y-101873550D01*
X115124951Y-101906035D01*
X115044769Y-102056043D01*
X114984699Y-102254067D01*
X114964417Y-102460000D01*
X114535583Y-102460000D01*
X114515300Y-102254066D01*
X114455232Y-102056046D01*
X114357685Y-101873550D01*
X114276833Y-101775031D01*
X114226410Y-101713589D01*
X114105464Y-101614333D01*
X114066450Y-101582315D01*
X113883954Y-101484768D01*
X113685934Y-101424700D01*
X113685932Y-101424699D01*
X113685934Y-101424699D01*
X113480000Y-101404417D01*
X113274067Y-101424699D01*
X113076043Y-101484769D01*
X112965898Y-101543643D01*
X112893550Y-101582315D01*
X112893548Y-101582316D01*
X112893547Y-101582317D01*
X112733589Y-101713589D01*
X112602670Y-101873117D01*
X112602315Y-101873550D01*
X112584951Y-101906035D01*
X112504767Y-102056046D01*
X112484593Y-102122552D01*
X112446296Y-102180990D01*
X112382483Y-102209447D01*
X112313416Y-102198886D01*
X112261023Y-102152661D01*
X112246158Y-102118649D01*
X112213433Y-101996516D01*
X112213429Y-101996507D01*
X112113600Y-101782422D01*
X112113599Y-101782420D01*
X111978113Y-101588926D01*
X111978108Y-101588920D01*
X111811082Y-101421894D01*
X111617578Y-101286399D01*
X111403492Y-101186570D01*
X111403486Y-101186567D01*
X111190000Y-101129364D01*
X111190000Y-102026988D01*
X111132993Y-101994075D01*
X111005826Y-101960000D01*
X110874174Y-101960000D01*
X110747007Y-101994075D01*
X110690000Y-102026988D01*
X110690000Y-101129364D01*
X110689999Y-101129364D01*
X110476513Y-101186567D01*
X110476507Y-101186570D01*
X110262422Y-101286399D01*
X110262420Y-101286400D01*
X110068926Y-101421886D01*
X110068920Y-101421891D01*
X109901891Y-101588920D01*
X109901890Y-101588922D01*
X109771575Y-101775031D01*
X109716998Y-101818655D01*
X109647499Y-101825848D01*
X109585145Y-101794326D01*
X109568425Y-101775031D01*
X109438109Y-101588922D01*
X109438108Y-101588920D01*
X109271082Y-101421894D01*
X109077578Y-101286399D01*
X108863492Y-101186570D01*
X108863486Y-101186567D01*
X108650000Y-101129364D01*
X108650000Y-102026988D01*
X108592993Y-101994075D01*
X108465826Y-101960000D01*
X108334174Y-101960000D01*
X108207007Y-101994075D01*
X108150000Y-102026988D01*
X108150000Y-101129364D01*
X108149999Y-101129364D01*
X107936513Y-101186567D01*
X107936507Y-101186570D01*
X107722422Y-101286399D01*
X107722420Y-101286400D01*
X107528926Y-101421886D01*
X107528920Y-101421891D01*
X107361891Y-101588920D01*
X107361886Y-101588926D01*
X107226400Y-101782420D01*
X107226399Y-101782422D01*
X107126570Y-101996507D01*
X107126567Y-101996513D01*
X107069364Y-102209999D01*
X105702086Y-102209999D01*
X105567479Y-101997891D01*
X105567477Y-101997888D01*
X105362912Y-101750611D01*
X105323489Y-101713590D01*
X105128964Y-101530920D01*
X105128961Y-101530918D01*
X105128955Y-101530913D01*
X104869339Y-101342291D01*
X104869321Y-101342280D01*
X104588096Y-101187675D01*
X104588093Y-101187674D01*
X104289703Y-101069533D01*
X104289706Y-101069533D01*
X103978864Y-100989723D01*
X103978851Y-100989721D01*
X103660475Y-100949500D01*
X103660464Y-100949500D01*
X103339536Y-100949500D01*
X103339524Y-100949500D01*
X103021148Y-100989721D01*
X103021135Y-100989723D01*
X102710294Y-101069533D01*
X102411906Y-101187674D01*
X102411903Y-101187675D01*
X102130678Y-101342280D01*
X102130660Y-101342291D01*
X101871044Y-101530913D01*
X101871034Y-101530921D01*
X101637087Y-101750611D01*
X101432522Y-101997888D01*
X101432520Y-101997891D01*
X101260562Y-102268855D01*
X101260558Y-102268861D01*
X101123918Y-102559235D01*
X101123916Y-102559240D01*
X101024745Y-102864457D01*
X100964607Y-103179709D01*
X100964606Y-103179716D01*
X100944457Y-103499994D01*
X100300585Y-103499994D01*
X100300670Y-103496756D01*
X100309007Y-103337682D01*
X100317687Y-103172045D01*
X100319044Y-103159139D01*
X100369401Y-102841201D01*
X100372094Y-102828525D01*
X100455416Y-102517564D01*
X100459425Y-102505229D01*
X100550160Y-102268855D01*
X100574784Y-102204707D01*
X100580054Y-102192868D01*
X100726214Y-101906014D01*
X100732680Y-101894815D01*
X100908015Y-101624823D01*
X100915630Y-101614342D01*
X101118229Y-101364153D01*
X101126896Y-101354528D01*
X101354528Y-101126896D01*
X101364153Y-101118229D01*
X101614342Y-100915630D01*
X101624823Y-100908015D01*
X101894815Y-100732680D01*
X101906014Y-100726214D01*
X102192868Y-100580054D01*
X102204707Y-100574784D01*
X102505236Y-100459422D01*
X102517564Y-100455416D01*
X102828525Y-100372094D01*
X102841201Y-100369401D01*
X103159141Y-100319043D01*
X103172045Y-100317687D01*
X103496756Y-100300669D01*
X103503246Y-100300500D01*
X103547595Y-100300500D01*
X161452405Y-100300500D01*
X161496754Y-100300500D01*
X161503243Y-100300669D01*
G37*
%TD.AperFunction*%
%TD*%
M02*
