%TF.GenerationSoftware,KiCad,Pcbnew,9.0.1*%
%TF.CreationDate,2025-05-28T21:19:47-07:00*%
%TF.ProjectId,motor_board,6d6f746f-725f-4626-9f61-72642e6b6963,1.1*%
%TF.SameCoordinates,Original*%
%TF.FileFunction,Drillmap*%
%TF.FilePolarity,Positive*%
%FSLAX45Y45*%
G04 Gerber Fmt 4.5, Leading zero omitted, Abs format (unit mm)*
G04 Created by KiCad (PCBNEW 9.0.1) date 2025-05-28 21:19:47*
%MOMM*%
%LPD*%
G01*
G04 APERTURE LIST*
%ADD10C,0.150000*%
%ADD11C,0.200000*%
%ADD12C,0.100000*%
%ADD13C,0.320000*%
G04 APERTURE END LIST*
D10*
X9833610Y-5448910D02*
G75*
G02*
X10033610Y-5248910I200000J0D01*
G01*
X10033610Y-14837410D02*
G75*
G02*
X9833610Y-14637410I0J200000D01*
G01*
X18850610Y-14637410D02*
G75*
G02*
X18650610Y-14837410I-200000J0D01*
G01*
X11100160Y-5249020D02*
X10033610Y-5248910D01*
X18650610Y-5248910D02*
G75*
G02*
X18850610Y-5448910I0J-200000D01*
G01*
X9830020Y-13404840D02*
X9833610Y-14637410D01*
X11343640Y-14650720D02*
X11109960Y-14838680D01*
X18850610Y-5448910D02*
X18851880Y-6167120D01*
X18851880Y-13868400D02*
X18850610Y-14637410D01*
X18650610Y-14837410D02*
X17998440Y-14837410D01*
X11109960Y-14838680D02*
X10033610Y-14837410D01*
X14650000Y-5650000D02*
X15650000Y-5650000D01*
X10017980Y-13171160D02*
X10023000Y-6400800D01*
X17500000Y-5438980D02*
X17700000Y-5248910D01*
X14434997Y-5437986D02*
X14650000Y-5650000D01*
X17762830Y-14650720D02*
X11343640Y-14650720D01*
X9833610Y-5448910D02*
X9833020Y-6167120D01*
X10023000Y-6400800D02*
X9833020Y-6167120D01*
X15650000Y-5650000D02*
X15840001Y-5438442D01*
X18658840Y-13634720D02*
X18851880Y-13868400D01*
X18663920Y-6400800D02*
X18851880Y-6167120D01*
X11333840Y-5436980D02*
X14434997Y-5437986D01*
X10017980Y-13171160D02*
X9830020Y-13404840D01*
X11333840Y-5436980D02*
X11100160Y-5249020D01*
X18663920Y-6400800D02*
X18658840Y-13634720D01*
X17762830Y-14650720D02*
X17998440Y-14837410D01*
X18650610Y-5248910D02*
X17700000Y-5248910D01*
X15840001Y-5438442D02*
X17500000Y-5438980D01*
D11*
D12*
X11351664Y-10428336D02*
X11371664Y-10448336D01*
X11371664Y-10428336D02*
X11351664Y-10448336D01*
X11351664Y-10528336D02*
X11371664Y-10548336D01*
X11371664Y-10528336D02*
X11351664Y-10548336D01*
X11476664Y-10328336D02*
X11496664Y-10348336D01*
X11496664Y-10328336D02*
X11476664Y-10348336D01*
X11476664Y-10428336D02*
X11496664Y-10448336D01*
X11496664Y-10428336D02*
X11476664Y-10448336D01*
X11476664Y-10528336D02*
X11496664Y-10548336D01*
X11496664Y-10528336D02*
X11476664Y-10548336D01*
X11476664Y-10628336D02*
X11496664Y-10648336D01*
X11496664Y-10628336D02*
X11476664Y-10648336D01*
X11601664Y-10328336D02*
X11621664Y-10348336D01*
X11621664Y-10328336D02*
X11601664Y-10348336D01*
X11601664Y-10428336D02*
X11621664Y-10448336D01*
X11621664Y-10428336D02*
X11601664Y-10448336D01*
X11601664Y-10528336D02*
X11621664Y-10548336D01*
X11621664Y-10528336D02*
X11601664Y-10548336D01*
X11601664Y-10628336D02*
X11621664Y-10648336D01*
X11621664Y-10628336D02*
X11601664Y-10648336D01*
X11726664Y-10328336D02*
X11746664Y-10348336D01*
X11746664Y-10328336D02*
X11726664Y-10348336D01*
X11726664Y-10428336D02*
X11746664Y-10448336D01*
X11746664Y-10428336D02*
X11726664Y-10448336D01*
X11726664Y-10528336D02*
X11746664Y-10548336D01*
X11746664Y-10528336D02*
X11726664Y-10548336D01*
X11726664Y-10628336D02*
X11746664Y-10648336D01*
X11746664Y-10628336D02*
X11726664Y-10648336D01*
X11807213Y-7435193D02*
X11827213Y-7455193D01*
X11827213Y-7435193D02*
X11807213Y-7455193D01*
X11807213Y-7560193D02*
X11827213Y-7580193D01*
X11827213Y-7560193D02*
X11807213Y-7580193D01*
X11807213Y-7685193D02*
X11827213Y-7705193D01*
X11827213Y-7685193D02*
X11807213Y-7705193D01*
X11851664Y-10428336D02*
X11871664Y-10448336D01*
X11871664Y-10428336D02*
X11851664Y-10448336D01*
X11851664Y-10528336D02*
X11871664Y-10548336D01*
X11871664Y-10528336D02*
X11851664Y-10548336D01*
X11907213Y-7310193D02*
X11927213Y-7330193D01*
X11927213Y-7310193D02*
X11907213Y-7330193D01*
X11907213Y-7435193D02*
X11927213Y-7455193D01*
X11927213Y-7435193D02*
X11907213Y-7455193D01*
X11907213Y-7560193D02*
X11927213Y-7580193D01*
X11927213Y-7560193D02*
X11907213Y-7580193D01*
X11907213Y-7685193D02*
X11927213Y-7705193D01*
X11927213Y-7685193D02*
X11907213Y-7705193D01*
X11907213Y-7810193D02*
X11927213Y-7830193D01*
X11927213Y-7810193D02*
X11907213Y-7830193D01*
X12007213Y-7310193D02*
X12027213Y-7330193D01*
X12027213Y-7310193D02*
X12007213Y-7330193D01*
X12007213Y-7435193D02*
X12027213Y-7455193D01*
X12027213Y-7435193D02*
X12007213Y-7455193D01*
X12007213Y-7560193D02*
X12027213Y-7580193D01*
X12027213Y-7560193D02*
X12007213Y-7580193D01*
X12007213Y-7685193D02*
X12027213Y-7705193D01*
X12027213Y-7685193D02*
X12007213Y-7705193D01*
X12007213Y-7810193D02*
X12027213Y-7830193D01*
X12027213Y-7810193D02*
X12007213Y-7830193D01*
X12107213Y-7435193D02*
X12127213Y-7455193D01*
X12127213Y-7435193D02*
X12107213Y-7455193D01*
X12107213Y-7560193D02*
X12127213Y-7580193D01*
X12127213Y-7560193D02*
X12107213Y-7580193D01*
X12107213Y-7685193D02*
X12127213Y-7705193D01*
X12127213Y-7685193D02*
X12107213Y-7705193D01*
X14294713Y-7422693D02*
X14314713Y-7442693D01*
X14314713Y-7422693D02*
X14294713Y-7442693D01*
X14294713Y-7547693D02*
X14314713Y-7567693D01*
X14314713Y-7547693D02*
X14294713Y-7567693D01*
X14294713Y-7672693D02*
X14314713Y-7692693D01*
X14314713Y-7672693D02*
X14294713Y-7692693D01*
X14394713Y-7297693D02*
X14414713Y-7317693D01*
X14414713Y-7297693D02*
X14394713Y-7317693D01*
X14394713Y-7422693D02*
X14414713Y-7442693D01*
X14414713Y-7422693D02*
X14394713Y-7442693D01*
X14394713Y-7547693D02*
X14414713Y-7567693D01*
X14414713Y-7547693D02*
X14394713Y-7567693D01*
X14394713Y-7672693D02*
X14414713Y-7692693D01*
X14414713Y-7672693D02*
X14394713Y-7692693D01*
X14394713Y-7797693D02*
X14414713Y-7817693D01*
X14414713Y-7797693D02*
X14394713Y-7817693D01*
X14494713Y-7297693D02*
X14514713Y-7317693D01*
X14514713Y-7297693D02*
X14494713Y-7317693D01*
X14494713Y-7422693D02*
X14514713Y-7442693D01*
X14514713Y-7422693D02*
X14494713Y-7442693D01*
X14494713Y-7547693D02*
X14514713Y-7567693D01*
X14514713Y-7547693D02*
X14494713Y-7567693D01*
X14494713Y-7672693D02*
X14514713Y-7692693D01*
X14514713Y-7672693D02*
X14494713Y-7692693D01*
X14494713Y-7797693D02*
X14514713Y-7817693D01*
X14514713Y-7797693D02*
X14494713Y-7817693D01*
X14594713Y-7422693D02*
X14614713Y-7442693D01*
X14614713Y-7422693D02*
X14594713Y-7442693D01*
X14594713Y-7547693D02*
X14614713Y-7567693D01*
X14614713Y-7547693D02*
X14594713Y-7567693D01*
X14594713Y-7672693D02*
X14614713Y-7692693D01*
X14614713Y-7672693D02*
X14594713Y-7692693D01*
X16494713Y-7402693D02*
X16514713Y-7422693D01*
X16514713Y-7402693D02*
X16494713Y-7422693D01*
X16494713Y-7527693D02*
X16514713Y-7547693D01*
X16514713Y-7527693D02*
X16494713Y-7547693D01*
X16494713Y-7652693D02*
X16514713Y-7672693D01*
X16514713Y-7652693D02*
X16494713Y-7672693D01*
X16594713Y-7277693D02*
X16614713Y-7297693D01*
X16614713Y-7277693D02*
X16594713Y-7297693D01*
X16594713Y-7402693D02*
X16614713Y-7422693D01*
X16614713Y-7402693D02*
X16594713Y-7422693D01*
X16594713Y-7527693D02*
X16614713Y-7547693D01*
X16614713Y-7527693D02*
X16594713Y-7547693D01*
X16594713Y-7652693D02*
X16614713Y-7672693D01*
X16614713Y-7652693D02*
X16594713Y-7672693D01*
X16594713Y-7777693D02*
X16614713Y-7797693D01*
X16614713Y-7777693D02*
X16594713Y-7797693D01*
X16694713Y-7277693D02*
X16714713Y-7297693D01*
X16714713Y-7277693D02*
X16694713Y-7297693D01*
X16694713Y-7402693D02*
X16714713Y-7422693D01*
X16714713Y-7402693D02*
X16694713Y-7422693D01*
X16694713Y-7527693D02*
X16714713Y-7547693D01*
X16714713Y-7527693D02*
X16694713Y-7547693D01*
X16694713Y-7652693D02*
X16714713Y-7672693D01*
X16714713Y-7652693D02*
X16694713Y-7672693D01*
X16694713Y-7777693D02*
X16714713Y-7797693D01*
X16714713Y-7777693D02*
X16694713Y-7797693D01*
X16794713Y-7402693D02*
X16814713Y-7422693D01*
X16814713Y-7402693D02*
X16794713Y-7422693D01*
X16794713Y-7527693D02*
X16814713Y-7547693D01*
X16814713Y-7527693D02*
X16794713Y-7547693D01*
X16794713Y-7652693D02*
X16814713Y-7672693D01*
X16814713Y-7652693D02*
X16794713Y-7672693D01*
X14013577Y-10929057D02*
G75*
G02*
X13988577Y-10929057I-12500J0D01*
G01*
X13988577Y-10929057D02*
G75*
G02*
X14013577Y-10929057I12500J0D01*
G01*
X14013577Y-11042390D02*
G75*
G02*
X13988577Y-11042390I-12500J0D01*
G01*
X13988577Y-11042390D02*
G75*
G02*
X14013577Y-11042390I12500J0D01*
G01*
X14013577Y-11155723D02*
G75*
G02*
X13988577Y-11155723I-12500J0D01*
G01*
X13988577Y-11155723D02*
G75*
G02*
X14013577Y-11155723I12500J0D01*
G01*
X14126910Y-10929057D02*
G75*
G02*
X14101910Y-10929057I-12500J0D01*
G01*
X14101910Y-10929057D02*
G75*
G02*
X14126910Y-10929057I12500J0D01*
G01*
X14126910Y-11042390D02*
G75*
G02*
X14101910Y-11042390I-12500J0D01*
G01*
X14101910Y-11042390D02*
G75*
G02*
X14126910Y-11042390I12500J0D01*
G01*
X14126910Y-11155723D02*
G75*
G02*
X14101910Y-11155723I-12500J0D01*
G01*
X14101910Y-11155723D02*
G75*
G02*
X14126910Y-11155723I12500J0D01*
G01*
X14240243Y-10929057D02*
G75*
G02*
X14215243Y-10929057I-12500J0D01*
G01*
X14215243Y-10929057D02*
G75*
G02*
X14240243Y-10929057I12500J0D01*
G01*
X14240243Y-11042390D02*
G75*
G02*
X14215243Y-11042390I-12500J0D01*
G01*
X14215243Y-11042390D02*
G75*
G02*
X14240243Y-11042390I12500J0D01*
G01*
X14240243Y-11155723D02*
G75*
G02*
X14215243Y-11155723I-12500J0D01*
G01*
X14215243Y-11155723D02*
G75*
G02*
X14240243Y-11155723I12500J0D01*
G01*
X10632498Y-10977181D02*
X10632498Y-11015281D01*
X10613448Y-10996231D02*
X10651548Y-10996231D01*
X10656361Y-9309590D02*
X10656361Y-9347690D01*
X10637311Y-9328640D02*
X10675411Y-9328640D01*
X10752498Y-10977181D02*
X10752498Y-11015281D01*
X10733448Y-10996231D02*
X10771548Y-10996231D01*
X10756361Y-9319590D02*
X10756361Y-9357690D01*
X10737311Y-9338640D02*
X10775411Y-9338640D01*
X10933497Y-9507181D02*
X10933497Y-9545281D01*
X10914447Y-9526231D02*
X10952547Y-9526231D01*
X11020014Y-9582181D02*
X11020014Y-9620281D01*
X11000964Y-9601231D02*
X11039064Y-9601231D01*
X11098215Y-9711899D02*
X11098215Y-9749999D01*
X11079165Y-9730949D02*
X11117265Y-9730949D01*
X11142498Y-10187181D02*
X11142498Y-10225281D01*
X11123448Y-10206231D02*
X11161548Y-10206231D01*
X11142742Y-10391878D02*
X11142742Y-10429978D01*
X11123692Y-10410928D02*
X11161792Y-10410928D01*
X11144252Y-10541878D02*
X11144252Y-10579978D01*
X11125202Y-10560928D02*
X11163302Y-10560928D01*
X11252498Y-10107181D02*
X11252498Y-10145281D01*
X11233448Y-10126231D02*
X11271548Y-10126231D01*
X11315408Y-9584681D02*
X11315408Y-9622781D01*
X11296358Y-9603731D02*
X11334458Y-9603731D01*
X11369410Y-7728340D02*
X11369410Y-7766440D01*
X11350360Y-7747390D02*
X11388460Y-7747390D01*
X11396360Y-11109590D02*
X11396360Y-11147690D01*
X11377310Y-11128640D02*
X11415410Y-11128640D01*
X11452072Y-9282128D02*
X11452072Y-9320228D01*
X11433022Y-9301178D02*
X11471122Y-9301178D01*
X11452359Y-9397541D02*
X11452359Y-9435641D01*
X11433309Y-9416591D02*
X11471409Y-9416591D01*
X11470000Y-11080950D02*
X11470000Y-11119050D01*
X11450950Y-11100000D02*
X11489050Y-11100000D01*
X11479410Y-6658340D02*
X11479410Y-6696440D01*
X11460360Y-6677390D02*
X11498460Y-6677390D01*
X11484713Y-8153643D02*
X11484713Y-8191743D01*
X11465663Y-8172693D02*
X11503763Y-8172693D01*
X11489410Y-6398340D02*
X11489410Y-6436440D01*
X11470360Y-6417390D02*
X11508460Y-6417390D01*
X11490997Y-10812633D02*
X11490997Y-10850733D01*
X11471947Y-10831683D02*
X11510047Y-10831683D01*
X11504859Y-9167541D02*
X11504859Y-9205641D01*
X11485809Y-9186591D02*
X11523909Y-9186591D01*
X11513730Y-7621115D02*
X11513730Y-7659215D01*
X11494680Y-7640165D02*
X11532780Y-7640165D01*
X11513730Y-7714380D02*
X11513730Y-7752480D01*
X11494680Y-7733430D02*
X11532780Y-7733430D01*
X11513730Y-7806691D02*
X11513730Y-7844791D01*
X11494680Y-7825741D02*
X11532780Y-7825741D01*
X11522072Y-9362128D02*
X11522072Y-9400228D01*
X11503022Y-9381178D02*
X11541122Y-9381178D01*
X11568497Y-10820133D02*
X11568497Y-10858233D01*
X11549447Y-10839183D02*
X11587547Y-10839183D01*
X11572072Y-9139628D02*
X11572072Y-9177728D01*
X11553022Y-9158678D02*
X11591122Y-9158678D01*
X11574713Y-7503643D02*
X11574713Y-7541743D01*
X11555663Y-7522693D02*
X11593763Y-7522693D01*
X11597365Y-7733643D02*
X11597365Y-7771743D01*
X11578315Y-7752693D02*
X11616415Y-7752693D01*
X11606018Y-7625186D02*
X11606018Y-7663286D01*
X11586968Y-7644236D02*
X11625068Y-7644236D01*
X11607365Y-7873643D02*
X11607365Y-7911743D01*
X11588315Y-7892693D02*
X11626415Y-7892693D01*
X11632397Y-7435960D02*
X11632397Y-7474060D01*
X11613347Y-7455010D02*
X11651447Y-7455010D01*
X11647359Y-10875041D02*
X11647359Y-10913141D01*
X11628309Y-10894091D02*
X11666409Y-10894091D01*
X11680000Y-9310950D02*
X11680000Y-9349050D01*
X11660950Y-9330000D02*
X11699050Y-9330000D01*
X11687359Y-10810041D02*
X11687359Y-10848141D01*
X11668309Y-10829091D02*
X11706409Y-10829091D01*
X11713637Y-9438541D02*
X11713637Y-9476641D01*
X11694587Y-9457591D02*
X11732687Y-9457591D01*
X11720000Y-9159628D02*
X11720000Y-9197728D01*
X11700950Y-9178678D02*
X11739050Y-9178678D01*
X11735997Y-10872633D02*
X11735997Y-10910733D01*
X11716947Y-10891683D02*
X11755047Y-10891683D01*
X11774974Y-10102427D02*
X11774974Y-10140527D01*
X11755924Y-10121477D02*
X11794024Y-10121477D01*
X11784713Y-8683643D02*
X11784713Y-8721743D01*
X11765663Y-8702693D02*
X11803763Y-8702693D01*
X11789859Y-10815041D02*
X11789859Y-10853141D01*
X11770809Y-10834091D02*
X11808909Y-10834091D01*
X11807211Y-9554268D02*
X11807211Y-9592368D01*
X11788161Y-9573318D02*
X11826261Y-9573318D01*
X11836954Y-10879175D02*
X11836954Y-10917275D01*
X11817904Y-10898225D02*
X11856004Y-10898225D01*
X11892213Y-7078037D02*
X11892213Y-7116137D01*
X11873163Y-7097087D02*
X11911263Y-7097087D01*
X11908497Y-10810133D02*
X11908497Y-10848233D01*
X11889447Y-10829183D02*
X11927547Y-10829183D01*
X11913497Y-9917633D02*
X11913497Y-9955733D01*
X11894447Y-9936683D02*
X11932547Y-9936683D01*
X11922213Y-8791143D02*
X11922213Y-8829243D01*
X11903163Y-8810193D02*
X11941263Y-8810193D01*
X11932213Y-8096143D02*
X11932213Y-8134243D01*
X11913163Y-8115193D02*
X11951263Y-8115193D01*
X11965997Y-10177633D02*
X11965997Y-10215733D01*
X11946947Y-10196683D02*
X11985047Y-10196683D01*
X11999713Y-8846143D02*
X11999713Y-8884243D01*
X11980663Y-8865193D02*
X12018763Y-8865193D01*
X12037650Y-10212333D02*
X12037650Y-10250433D01*
X12018600Y-10231383D02*
X12056700Y-10231383D01*
X12042213Y-7078946D02*
X12042213Y-7117046D01*
X12023163Y-7097996D02*
X12061263Y-7097996D01*
X12047049Y-10371732D02*
X12047049Y-10409832D01*
X12027999Y-10390782D02*
X12066099Y-10390782D01*
X12054713Y-8906143D02*
X12054713Y-8944243D01*
X12035663Y-8925193D02*
X12073763Y-8925193D01*
X12059384Y-10286565D02*
X12059384Y-10324665D01*
X12040334Y-10305615D02*
X12078434Y-10305615D01*
X12059410Y-12368340D02*
X12059410Y-12406440D01*
X12040360Y-12387390D02*
X12078460Y-12387390D01*
X12092498Y-10427181D02*
X12092498Y-10465281D01*
X12073448Y-10446231D02*
X12111548Y-10446231D01*
X12112498Y-11227181D02*
X12112498Y-11265281D01*
X12093448Y-11246231D02*
X12131548Y-11246231D01*
X12119713Y-8961143D02*
X12119713Y-8999243D01*
X12100663Y-8980193D02*
X12138763Y-8980193D01*
X12162498Y-11007181D02*
X12162498Y-11045281D01*
X12143448Y-11026231D02*
X12181548Y-11026231D01*
X12194697Y-12271253D02*
X12194697Y-12309353D01*
X12175647Y-12290303D02*
X12213747Y-12290303D01*
X12219410Y-6588340D02*
X12219410Y-6626440D01*
X12200360Y-6607390D02*
X12238460Y-6607390D01*
X12232498Y-11037181D02*
X12232498Y-11075281D01*
X12213448Y-11056231D02*
X12251548Y-11056231D01*
X12234998Y-10954681D02*
X12234998Y-10992781D01*
X12215948Y-10973731D02*
X12254048Y-10973731D01*
X12269410Y-6948340D02*
X12269410Y-6986440D01*
X12250360Y-6967390D02*
X12288460Y-6967390D01*
X12292213Y-7105840D02*
X12292213Y-7143940D01*
X12273163Y-7124890D02*
X12311263Y-7124890D01*
X12294713Y-8691143D02*
X12294713Y-8729243D01*
X12275663Y-8710193D02*
X12313763Y-8710193D01*
X12302213Y-7886143D02*
X12302213Y-7924243D01*
X12283163Y-7905193D02*
X12321263Y-7905193D01*
X12310000Y-10637746D02*
X12310000Y-10675846D01*
X12290950Y-10656796D02*
X12329050Y-10656796D01*
X12310000Y-13095090D02*
X12310000Y-13133190D01*
X12290950Y-13114140D02*
X12329050Y-13114140D01*
X12334713Y-7701143D02*
X12334713Y-7739243D01*
X12315663Y-7720193D02*
X12353763Y-7720193D01*
X12370403Y-10685079D02*
X12370403Y-10723179D01*
X12351353Y-10704129D02*
X12389453Y-10704129D01*
X12412213Y-8078643D02*
X12412213Y-8116743D01*
X12393163Y-8097693D02*
X12431263Y-8097693D01*
X12426360Y-10745999D02*
X12426360Y-10784099D01*
X12407310Y-10765049D02*
X12445410Y-10765049D01*
X12511360Y-10832090D02*
X12511360Y-10870190D01*
X12492310Y-10851140D02*
X12530410Y-10851140D01*
X12521360Y-10089590D02*
X12521360Y-10127690D01*
X12502310Y-10108640D02*
X12540410Y-10108640D01*
X12526360Y-10749590D02*
X12526360Y-10787690D01*
X12507310Y-10768640D02*
X12545410Y-10768640D01*
X12552213Y-7863643D02*
X12552213Y-7901743D01*
X12533163Y-7882693D02*
X12571263Y-7882693D01*
X12593860Y-10174590D02*
X12593860Y-10212690D01*
X12574810Y-10193640D02*
X12612910Y-10193640D01*
X12649417Y-10682345D02*
X12649417Y-10720445D01*
X12630367Y-10701395D02*
X12668467Y-10701395D01*
X12674410Y-9588340D02*
X12674410Y-9626440D01*
X12655360Y-9607390D02*
X12693460Y-9607390D01*
X12680000Y-11270950D02*
X12680000Y-11309050D01*
X12660950Y-11290000D02*
X12699050Y-11290000D01*
X12689410Y-8188340D02*
X12689410Y-8226440D01*
X12670360Y-8207390D02*
X12708460Y-8207390D01*
X12693860Y-10299590D02*
X12693860Y-10337690D01*
X12674810Y-10318640D02*
X12712910Y-10318640D01*
X12738195Y-10491705D02*
X12738195Y-10529805D01*
X12719145Y-10510755D02*
X12757245Y-10510755D01*
X12751664Y-10849286D02*
X12751664Y-10887386D01*
X12732614Y-10868336D02*
X12770714Y-10868336D01*
X12779042Y-13662950D02*
X12779042Y-13701050D01*
X12759992Y-13682000D02*
X12798092Y-13682000D01*
X12819713Y-7261143D02*
X12819713Y-7299243D01*
X12800663Y-7280193D02*
X12838763Y-7280193D01*
X12820000Y-11359992D02*
X12820000Y-11398092D01*
X12800950Y-11379042D02*
X12839050Y-11379042D01*
X12824713Y-6936143D02*
X12824713Y-6974243D01*
X12805663Y-6955193D02*
X12843763Y-6955193D01*
X12854410Y-10560840D02*
X12854410Y-10598940D01*
X12835360Y-10579890D02*
X12873460Y-10579890D01*
X12859410Y-7968340D02*
X12859410Y-8006440D01*
X12840360Y-7987390D02*
X12878460Y-7987390D01*
X12862157Y-13094790D02*
X12862157Y-13132890D01*
X12843107Y-13113840D02*
X12881207Y-13113840D01*
X12895000Y-10391498D02*
X12895000Y-10429598D01*
X12875950Y-10410548D02*
X12914050Y-10410548D01*
X12949713Y-6852081D02*
X12949713Y-6890181D01*
X12930663Y-6871131D02*
X12968763Y-6871131D01*
X12950000Y-13660950D02*
X12950000Y-13699050D01*
X12930950Y-13680000D02*
X12969050Y-13680000D01*
X12969410Y-11648340D02*
X12969410Y-11686440D01*
X12950360Y-11667390D02*
X12988460Y-11667390D01*
X12970000Y-10920950D02*
X12970000Y-10959050D01*
X12950950Y-10940000D02*
X12989050Y-10940000D01*
X12981910Y-9303340D02*
X12981910Y-9341440D01*
X12962860Y-9322390D02*
X13000960Y-9322390D01*
X13022213Y-7608643D02*
X13022213Y-7646743D01*
X13003163Y-7627693D02*
X13041263Y-7627693D01*
X13027213Y-7403643D02*
X13027213Y-7441743D01*
X13008163Y-7422693D02*
X13046263Y-7422693D01*
X13060000Y-10530950D02*
X13060000Y-10569050D01*
X13040950Y-10550000D02*
X13079050Y-10550000D01*
X13107213Y-7728643D02*
X13107213Y-7766743D01*
X13088163Y-7747693D02*
X13126263Y-7747693D01*
X13109410Y-6428340D02*
X13109410Y-6466440D01*
X13090360Y-6447390D02*
X13128460Y-6447390D01*
X13119410Y-6578340D02*
X13119410Y-6616440D01*
X13100360Y-6597390D02*
X13138460Y-6597390D01*
X13134133Y-6765563D02*
X13134133Y-6803663D01*
X13115083Y-6784613D02*
X13153183Y-6784613D01*
X13151910Y-10545840D02*
X13151910Y-10583940D01*
X13132860Y-10564890D02*
X13170960Y-10564890D01*
X13177213Y-7438643D02*
X13177213Y-7476743D01*
X13158163Y-7457693D02*
X13196263Y-7457693D01*
X13177213Y-8753643D02*
X13177213Y-8791743D01*
X13158163Y-8772693D02*
X13196263Y-8772693D01*
X13197213Y-7613643D02*
X13197213Y-7651743D01*
X13178163Y-7632693D02*
X13216263Y-7632693D01*
X13241910Y-10293340D02*
X13241910Y-10331440D01*
X13222860Y-10312390D02*
X13260960Y-10312390D01*
X13254410Y-10065840D02*
X13254410Y-10103940D01*
X13235360Y-10084890D02*
X13273460Y-10084890D01*
X13295000Y-11410950D02*
X13295000Y-11449050D01*
X13275950Y-11430000D02*
X13314050Y-11430000D01*
X13297213Y-7428643D02*
X13297213Y-7466743D01*
X13278163Y-7447693D02*
X13316263Y-7447693D01*
X13297942Y-11731872D02*
X13297942Y-11769972D01*
X13278892Y-11750922D02*
X13316992Y-11750922D01*
X13302213Y-7713643D02*
X13302213Y-7751743D01*
X13283163Y-7732693D02*
X13321263Y-7732693D01*
X13327368Y-11478318D02*
X13327368Y-11516418D01*
X13308318Y-11497368D02*
X13346418Y-11497368D01*
X13340660Y-10937090D02*
X13340660Y-10975190D01*
X13321610Y-10956140D02*
X13359710Y-10956140D01*
X13355000Y-11340950D02*
X13355000Y-11379050D01*
X13335950Y-11360000D02*
X13374050Y-11360000D01*
X13379410Y-11148340D02*
X13379410Y-11186440D01*
X13360360Y-11167390D02*
X13398460Y-11167390D01*
X13385442Y-11644372D02*
X13385442Y-11682472D01*
X13366392Y-11663422D02*
X13404492Y-11663422D01*
X13411910Y-11553340D02*
X13411910Y-11591440D01*
X13392860Y-11572390D02*
X13430960Y-11572390D01*
X13459410Y-12108340D02*
X13459410Y-12146440D01*
X13440360Y-12127390D02*
X13478460Y-12127390D01*
X13475000Y-10725950D02*
X13475000Y-10764050D01*
X13455950Y-10745000D02*
X13494050Y-10745000D01*
X13589410Y-11948340D02*
X13589410Y-11986440D01*
X13570360Y-11967390D02*
X13608460Y-11967390D01*
X13663105Y-11574645D02*
X13663105Y-11612745D01*
X13644055Y-11593695D02*
X13682155Y-11593695D01*
X13685000Y-10640950D02*
X13685000Y-10679050D01*
X13665950Y-10660000D02*
X13704050Y-10660000D01*
X13701126Y-11783549D02*
X13701126Y-11821649D01*
X13682076Y-11802599D02*
X13720176Y-11802599D01*
X13709410Y-11038340D02*
X13709410Y-11076440D01*
X13690360Y-11057390D02*
X13728460Y-11057390D01*
X13710000Y-11112383D02*
X13710000Y-11150483D01*
X13690950Y-11131433D02*
X13729050Y-11131433D01*
X13711910Y-9130840D02*
X13711910Y-9168940D01*
X13692860Y-9149890D02*
X13730960Y-9149890D01*
X13731910Y-9575840D02*
X13731910Y-9613940D01*
X13712860Y-9594890D02*
X13750960Y-9594890D01*
X13752083Y-11715950D02*
X13752083Y-11754050D01*
X13733033Y-11735000D02*
X13771133Y-11735000D01*
X13759810Y-13682140D02*
X13759810Y-13720240D01*
X13740760Y-13701190D02*
X13778860Y-13701190D01*
X13761032Y-11169918D02*
X13761032Y-11208018D01*
X13741982Y-11188968D02*
X13780082Y-11188968D01*
X13779410Y-10228340D02*
X13779410Y-10266440D01*
X13760360Y-10247390D02*
X13798460Y-10247390D01*
X13790410Y-14387340D02*
X13790410Y-14425440D01*
X13771360Y-14406390D02*
X13809460Y-14406390D01*
X13799410Y-7688340D02*
X13799410Y-7726440D01*
X13780360Y-7707390D02*
X13818460Y-7707390D01*
X13801820Y-11230950D02*
X13801820Y-11269050D01*
X13782770Y-11250000D02*
X13820870Y-11250000D01*
X13849410Y-11988340D02*
X13849410Y-12026440D01*
X13830360Y-12007390D02*
X13868460Y-12007390D01*
X13858452Y-11888340D02*
X13858452Y-11926440D01*
X13839402Y-11907390D02*
X13877502Y-11907390D01*
X13874410Y-7708340D02*
X13874410Y-7746440D01*
X13855360Y-7727390D02*
X13893460Y-7727390D01*
X13879410Y-10018340D02*
X13879410Y-10056440D01*
X13860360Y-10037390D02*
X13898460Y-10037390D01*
X13909410Y-8388340D02*
X13909410Y-8426440D01*
X13890360Y-8407390D02*
X13928460Y-8407390D01*
X13921410Y-14526340D02*
X13921410Y-14564440D01*
X13902360Y-14545390D02*
X13940460Y-14545390D01*
X13949410Y-6458340D02*
X13949410Y-6496440D01*
X13930360Y-6477390D02*
X13968460Y-6477390D01*
X13949410Y-7760840D02*
X13949410Y-7798940D01*
X13930360Y-7779890D02*
X13968460Y-7779890D01*
X13959410Y-6678340D02*
X13959410Y-6716440D01*
X13940360Y-6697390D02*
X13978460Y-6697390D01*
X13975000Y-11425950D02*
X13975000Y-11464050D01*
X13955950Y-11445000D02*
X13994050Y-11445000D01*
X13976175Y-12199775D02*
X13976175Y-12237875D01*
X13957125Y-12218825D02*
X13995225Y-12218825D01*
X13981910Y-8713340D02*
X13981910Y-8751440D01*
X13962860Y-8732390D02*
X14000960Y-8732390D01*
X14020000Y-8323340D02*
X14020000Y-8361440D01*
X14000950Y-8342390D02*
X14039050Y-8342390D01*
X14029410Y-7803340D02*
X14029410Y-7841440D01*
X14010360Y-7822390D02*
X14048460Y-7822390D01*
X14031743Y-7510689D02*
X14031743Y-7548789D01*
X14012693Y-7529739D02*
X14050793Y-7529739D01*
X14074410Y-14115840D02*
X14074410Y-14153940D01*
X14055360Y-14134890D02*
X14093460Y-14134890D01*
X14077942Y-7439808D02*
X14077942Y-7477908D01*
X14058892Y-7458858D02*
X14096992Y-7458858D01*
X14079410Y-12048340D02*
X14079410Y-12086440D01*
X14060360Y-12067390D02*
X14098460Y-12067390D01*
X14083452Y-11652673D02*
X14083452Y-11690773D01*
X14064402Y-11671723D02*
X14102502Y-11671723D01*
X14089410Y-7603340D02*
X14089410Y-7641440D01*
X14070360Y-7622390D02*
X14108460Y-7622390D01*
X14089410Y-7723340D02*
X14089410Y-7761440D01*
X14070360Y-7742390D02*
X14108460Y-7742390D01*
X14094410Y-8272382D02*
X14094410Y-8310482D01*
X14075360Y-8291432D02*
X14113460Y-8291432D01*
X14099410Y-7863340D02*
X14099410Y-7901440D01*
X14080360Y-7882390D02*
X14118460Y-7882390D01*
X14129410Y-11418340D02*
X14129410Y-11456440D01*
X14110360Y-11437390D02*
X14148460Y-11437390D01*
X14139410Y-10628340D02*
X14139410Y-10666440D01*
X14120360Y-10647390D02*
X14158460Y-10647390D01*
X14169410Y-12058340D02*
X14169410Y-12096440D01*
X14150360Y-12077390D02*
X14188460Y-12077390D01*
X14174410Y-9493340D02*
X14174410Y-9531440D01*
X14155360Y-9512390D02*
X14193460Y-9512390D01*
X14179410Y-10023340D02*
X14179410Y-10061440D01*
X14160360Y-10042390D02*
X14198460Y-10042390D01*
X14259410Y-12788340D02*
X14259410Y-12826440D01*
X14240360Y-12807390D02*
X14278460Y-12807390D01*
X14282500Y-11600950D02*
X14282500Y-11639050D01*
X14263450Y-11620000D02*
X14301550Y-11620000D01*
X14339410Y-8598340D02*
X14339410Y-8636440D01*
X14320360Y-8617390D02*
X14358460Y-8617390D01*
X14340000Y-9900950D02*
X14340000Y-9939050D01*
X14320950Y-9920000D02*
X14359050Y-9920000D01*
X14366658Y-7017514D02*
X14366658Y-7055614D01*
X14347608Y-7036564D02*
X14385708Y-7036564D01*
X14409410Y-11968340D02*
X14409410Y-12006440D01*
X14390360Y-11987390D02*
X14428460Y-11987390D01*
X14429410Y-10018340D02*
X14429410Y-10056440D01*
X14410360Y-10037390D02*
X14448460Y-10037390D01*
X14455000Y-8820950D02*
X14455000Y-8859050D01*
X14435950Y-8840000D02*
X14474050Y-8840000D01*
X14464410Y-10958340D02*
X14464410Y-10996440D01*
X14445360Y-10977390D02*
X14483460Y-10977390D01*
X14489410Y-10238340D02*
X14489410Y-10276440D01*
X14470360Y-10257390D02*
X14508460Y-10257390D01*
X14489410Y-10883340D02*
X14489410Y-10921440D01*
X14470360Y-10902390D02*
X14508460Y-10902390D01*
X14511658Y-7017514D02*
X14511658Y-7055614D01*
X14492608Y-7036564D02*
X14530708Y-7036564D01*
X14519410Y-11108340D02*
X14519410Y-11146440D01*
X14500360Y-11127390D02*
X14538460Y-11127390D01*
X14519410Y-11228340D02*
X14519410Y-11266440D01*
X14500360Y-11247390D02*
X14538460Y-11247390D01*
X14519410Y-11308340D02*
X14519410Y-11346440D01*
X14500360Y-11327390D02*
X14538460Y-11327390D01*
X14525850Y-10807749D02*
X14525850Y-10845849D01*
X14506800Y-10826799D02*
X14544900Y-10826799D01*
X14529410Y-11618340D02*
X14529410Y-11656440D01*
X14510360Y-11637390D02*
X14548460Y-11637390D01*
X14539410Y-8098340D02*
X14539410Y-8136440D01*
X14520360Y-8117390D02*
X14558460Y-8117390D01*
X14539410Y-11833340D02*
X14539410Y-11871440D01*
X14520360Y-11852390D02*
X14558460Y-11852390D01*
X14646910Y-11970840D02*
X14646910Y-12008940D01*
X14627860Y-11989890D02*
X14665960Y-11989890D01*
X14658400Y-9384350D02*
X14658400Y-9422450D01*
X14639350Y-9403400D02*
X14677450Y-9403400D01*
X14685000Y-9750950D02*
X14685000Y-9789050D01*
X14665950Y-9770000D02*
X14704050Y-9770000D01*
X14689410Y-6628340D02*
X14689410Y-6666440D01*
X14670360Y-6647390D02*
X14708460Y-6647390D01*
X14695207Y-10872543D02*
X14695207Y-10910643D01*
X14676157Y-10891593D02*
X14714257Y-10891593D01*
X14696910Y-11515840D02*
X14696910Y-11553940D01*
X14677860Y-11534890D02*
X14715960Y-11534890D01*
X14698523Y-10563011D02*
X14698523Y-10601111D01*
X14679473Y-10582061D02*
X14717573Y-10582061D01*
X14699410Y-11048340D02*
X14699410Y-11086440D01*
X14680360Y-11067390D02*
X14718460Y-11067390D01*
X14720000Y-12550950D02*
X14720000Y-12589050D01*
X14700950Y-12570000D02*
X14739050Y-12570000D01*
X14729410Y-8678340D02*
X14729410Y-8716440D01*
X14710360Y-8697390D02*
X14748460Y-8697390D01*
X14752410Y-14119340D02*
X14752410Y-14157440D01*
X14733360Y-14138390D02*
X14771460Y-14138390D01*
X14769410Y-10928340D02*
X14769410Y-10966440D01*
X14750360Y-10947390D02*
X14788460Y-10947390D01*
X14779410Y-7863340D02*
X14779410Y-7901440D01*
X14760360Y-7882390D02*
X14798460Y-7882390D01*
X14789410Y-12118340D02*
X14789410Y-12156440D01*
X14770360Y-12137390D02*
X14808460Y-12137390D01*
X14795000Y-9715950D02*
X14795000Y-9754050D01*
X14775950Y-9735000D02*
X14814050Y-9735000D01*
X14801910Y-7100840D02*
X14801910Y-7138940D01*
X14782860Y-7119890D02*
X14820960Y-7119890D01*
X14804410Y-6935840D02*
X14804410Y-6973940D01*
X14785360Y-6954890D02*
X14823460Y-6954890D01*
X14806528Y-7686222D02*
X14806528Y-7724322D01*
X14787478Y-7705272D02*
X14825578Y-7705272D01*
X14808377Y-10453157D02*
X14808377Y-10491257D01*
X14789327Y-10472207D02*
X14827427Y-10472207D01*
X14839410Y-13938340D02*
X14839410Y-13976440D01*
X14820360Y-13957390D02*
X14858460Y-13957390D01*
X14914410Y-12743340D02*
X14914410Y-12781440D01*
X14895360Y-12762390D02*
X14933460Y-12762390D01*
X14926910Y-11850840D02*
X14926910Y-11888940D01*
X14907860Y-11869890D02*
X14945960Y-11869890D01*
X14934410Y-10543340D02*
X14934410Y-10581440D01*
X14915360Y-10562390D02*
X14953460Y-10562390D01*
X14956910Y-6985840D02*
X14956910Y-7023940D01*
X14937860Y-7004890D02*
X14975960Y-7004890D01*
X14964410Y-10303340D02*
X14964410Y-10341440D01*
X14945360Y-10322390D02*
X14983460Y-10322390D01*
X14984410Y-10153340D02*
X14984410Y-10191440D01*
X14965360Y-10172390D02*
X15003460Y-10172390D01*
X15004410Y-13978340D02*
X15004410Y-14016440D01*
X14985360Y-13997390D02*
X15023460Y-13997390D01*
X15009410Y-14158340D02*
X15009410Y-14196440D01*
X14990360Y-14177390D02*
X15028460Y-14177390D01*
X15049410Y-10998340D02*
X15049410Y-11036440D01*
X15030360Y-11017390D02*
X15068460Y-11017390D01*
X15059410Y-7818340D02*
X15059410Y-7856440D01*
X15040360Y-7837390D02*
X15078460Y-7837390D01*
X15069175Y-12257474D02*
X15069175Y-12295574D01*
X15050125Y-12276524D02*
X15088225Y-12276524D01*
X15069410Y-8718340D02*
X15069410Y-8756440D01*
X15050360Y-8737390D02*
X15088460Y-8737390D01*
X15071910Y-12325840D02*
X15071910Y-12363940D01*
X15052860Y-12344890D02*
X15090960Y-12344890D01*
X15079410Y-11708340D02*
X15079410Y-11746440D01*
X15060360Y-11727390D02*
X15098460Y-11727390D01*
X15084410Y-11938340D02*
X15084410Y-11976440D01*
X15065360Y-11957390D02*
X15103460Y-11957390D01*
X15094533Y-10648463D02*
X15094533Y-10686563D01*
X15075483Y-10667513D02*
X15113583Y-10667513D01*
X15109410Y-11568340D02*
X15109410Y-11606440D01*
X15090360Y-11587390D02*
X15128460Y-11587390D01*
X15120000Y-9325950D02*
X15120000Y-9364050D01*
X15100950Y-9345000D02*
X15139050Y-9345000D01*
X15129410Y-10773340D02*
X15129410Y-10811440D01*
X15110360Y-10792390D02*
X15148460Y-10792390D01*
X15149410Y-11808340D02*
X15149410Y-11846440D01*
X15130360Y-11827390D02*
X15168460Y-11827390D01*
X15156910Y-8180840D02*
X15156910Y-8218940D01*
X15137860Y-8199890D02*
X15175960Y-8199890D01*
X15194410Y-12628340D02*
X15194410Y-12666440D01*
X15175360Y-12647390D02*
X15213460Y-12647390D01*
X15199410Y-10683340D02*
X15199410Y-10721440D01*
X15180360Y-10702390D02*
X15218460Y-10702390D01*
X15214410Y-7233340D02*
X15214410Y-7271440D01*
X15195360Y-7252390D02*
X15233460Y-7252390D01*
X15214410Y-8063340D02*
X15214410Y-8101440D01*
X15195360Y-8082390D02*
X15233460Y-8082390D01*
X15221910Y-7965840D02*
X15221910Y-8003940D01*
X15202860Y-7984890D02*
X15240960Y-7984890D01*
X15234410Y-7005840D02*
X15234410Y-7043940D01*
X15215360Y-7024890D02*
X15253460Y-7024890D01*
X15246910Y-6923340D02*
X15246910Y-6961440D01*
X15227860Y-6942390D02*
X15265960Y-6942390D01*
X15269410Y-10978340D02*
X15269410Y-11016440D01*
X15250360Y-10997390D02*
X15288460Y-10997390D01*
X15296910Y-6850840D02*
X15296910Y-6888940D01*
X15277860Y-6869890D02*
X15315960Y-6869890D01*
X15404410Y-7618340D02*
X15404410Y-7656440D01*
X15385360Y-7637390D02*
X15423460Y-7637390D01*
X15414410Y-9658340D02*
X15414410Y-9696440D01*
X15395360Y-9677390D02*
X15433460Y-9677390D01*
X15434410Y-9793340D02*
X15434410Y-9831440D01*
X15415360Y-9812390D02*
X15453460Y-9812390D01*
X15474410Y-7443340D02*
X15474410Y-7481440D01*
X15455360Y-7462390D02*
X15493460Y-7462390D01*
X15479410Y-10298340D02*
X15479410Y-10336440D01*
X15460360Y-10317390D02*
X15498460Y-10317390D01*
X15504410Y-11788340D02*
X15504410Y-11826440D01*
X15485360Y-11807390D02*
X15523460Y-11807390D01*
X15554410Y-7713340D02*
X15554410Y-7751440D01*
X15535360Y-7732390D02*
X15573460Y-7732390D01*
X15559410Y-13748340D02*
X15559410Y-13786440D01*
X15540360Y-13767390D02*
X15578460Y-13767390D01*
X15569410Y-6618340D02*
X15569410Y-6656440D01*
X15550360Y-6637390D02*
X15588460Y-6637390D01*
X15599410Y-6448340D02*
X15599410Y-6486440D01*
X15580360Y-6467390D02*
X15618460Y-6467390D01*
X15609410Y-7423340D02*
X15609410Y-7461440D01*
X15590360Y-7442390D02*
X15628460Y-7442390D01*
X15619410Y-12288340D02*
X15619410Y-12326440D01*
X15600360Y-12307390D02*
X15638460Y-12307390D01*
X15719410Y-11808340D02*
X15719410Y-11846440D01*
X15700360Y-11827390D02*
X15738460Y-11827390D01*
X15724410Y-7618340D02*
X15724410Y-7656440D01*
X15705360Y-7637390D02*
X15743460Y-7637390D01*
X15729410Y-7783340D02*
X15729410Y-7821440D01*
X15710360Y-7802390D02*
X15748460Y-7802390D01*
X15749410Y-11978340D02*
X15749410Y-12016440D01*
X15730360Y-11997390D02*
X15768460Y-11997390D01*
X15774410Y-7453340D02*
X15774410Y-7491440D01*
X15755360Y-7472390D02*
X15793460Y-7472390D01*
X15834410Y-8568340D02*
X15834410Y-8606440D01*
X15815360Y-8587390D02*
X15853460Y-8587390D01*
X15839410Y-10178340D02*
X15839410Y-10216440D01*
X15820360Y-10197390D02*
X15858460Y-10197390D01*
X15899410Y-10958340D02*
X15899410Y-10996440D01*
X15880360Y-10977390D02*
X15918460Y-10977390D01*
X16029410Y-11078340D02*
X16029410Y-11116440D01*
X16010360Y-11097390D02*
X16048460Y-11097390D01*
X16054713Y-7643643D02*
X16054713Y-7681743D01*
X16035663Y-7662693D02*
X16073763Y-7662693D01*
X16119713Y-7943643D02*
X16119713Y-7981743D01*
X16100663Y-7962693D02*
X16138763Y-7962693D01*
X16145261Y-7621548D02*
X16145261Y-7659648D01*
X16126211Y-7640598D02*
X16164311Y-7640598D01*
X16149410Y-6428340D02*
X16149410Y-6466440D01*
X16130360Y-6447390D02*
X16168460Y-6447390D01*
X16149410Y-6598340D02*
X16149410Y-6636440D01*
X16130360Y-6617390D02*
X16168460Y-6617390D01*
X16178756Y-7708643D02*
X16178756Y-7746743D01*
X16159706Y-7727693D02*
X16197806Y-7727693D01*
X16189410Y-9878340D02*
X16189410Y-9916440D01*
X16170360Y-9897390D02*
X16208460Y-9897390D01*
X16189713Y-8368643D02*
X16189713Y-8406743D01*
X16170663Y-8387693D02*
X16208763Y-8387693D01*
X16209410Y-9468340D02*
X16209410Y-9506440D01*
X16190360Y-9487390D02*
X16228460Y-9487390D01*
X16239713Y-7768643D02*
X16239713Y-7806743D01*
X16220663Y-7787693D02*
X16258763Y-7787693D01*
X16259713Y-8288643D02*
X16259713Y-8326743D01*
X16240663Y-8307693D02*
X16278763Y-8307693D01*
X16269410Y-12848340D02*
X16269410Y-12886440D01*
X16250360Y-12867390D02*
X16288460Y-12867390D01*
X16289713Y-8508643D02*
X16289713Y-8546743D01*
X16270663Y-8527693D02*
X16308763Y-8527693D01*
X16294713Y-7578643D02*
X16294713Y-7616743D01*
X16275663Y-7597693D02*
X16313763Y-7597693D01*
X16294713Y-7698643D02*
X16294713Y-7736743D01*
X16275663Y-7717693D02*
X16313763Y-7717693D01*
X16296910Y-7388340D02*
X16296910Y-7426440D01*
X16277860Y-7407390D02*
X16315960Y-7407390D01*
X16297213Y-7472283D02*
X16297213Y-7510383D01*
X16278163Y-7491333D02*
X16316263Y-7491333D01*
X16304713Y-7838643D02*
X16304713Y-7876743D01*
X16285663Y-7857693D02*
X16323763Y-7857693D01*
X16324713Y-8238643D02*
X16324713Y-8276743D01*
X16305663Y-8257693D02*
X16343763Y-8257693D01*
X16379410Y-12788340D02*
X16379410Y-12826440D01*
X16360360Y-12807390D02*
X16398460Y-12807390D01*
X16384410Y-10398340D02*
X16384410Y-10436440D01*
X16365360Y-10417390D02*
X16403460Y-10417390D01*
X16404410Y-11853340D02*
X16404410Y-11891440D01*
X16385360Y-11872390D02*
X16423460Y-11872390D01*
X16439410Y-9633340D02*
X16439410Y-9671440D01*
X16420360Y-9652390D02*
X16458460Y-9652390D01*
X16439410Y-12918340D02*
X16439410Y-12956440D01*
X16420360Y-12937390D02*
X16458460Y-12937390D01*
X16459410Y-8938340D02*
X16459410Y-8976440D01*
X16440360Y-8957390D02*
X16478460Y-8957390D01*
X16471910Y-8798340D02*
X16471910Y-8836440D01*
X16452860Y-8817390D02*
X16490960Y-8817390D01*
X16479410Y-11928340D02*
X16479410Y-11966440D01*
X16460360Y-11947390D02*
X16498460Y-11947390D01*
X16499410Y-12395840D02*
X16499410Y-12433940D01*
X16480360Y-12414890D02*
X16518460Y-12414890D01*
X16534410Y-10263340D02*
X16534410Y-10301440D01*
X16515360Y-10282390D02*
X16553460Y-10282390D01*
X16559410Y-12798340D02*
X16559410Y-12836440D01*
X16540360Y-12817390D02*
X16578460Y-12817390D01*
X16582213Y-7036823D02*
X16582213Y-7074923D01*
X16563163Y-7055873D02*
X16601263Y-7055873D01*
X16589410Y-10968340D02*
X16589410Y-11006440D01*
X16570360Y-10987390D02*
X16608460Y-10987390D01*
X16629410Y-11878340D02*
X16629410Y-11916440D01*
X16610360Y-11897390D02*
X16648460Y-11897390D01*
X16634410Y-8863340D02*
X16634410Y-8901440D01*
X16615360Y-8882390D02*
X16653460Y-8882390D01*
X16639713Y-8523643D02*
X16639713Y-8561743D01*
X16620663Y-8542693D02*
X16658763Y-8542693D01*
X16679410Y-12908340D02*
X16679410Y-12946440D01*
X16660360Y-12927390D02*
X16698460Y-12927390D01*
X16729410Y-12778340D02*
X16729410Y-12816440D01*
X16710360Y-12797390D02*
X16748460Y-12797390D01*
X16729713Y-7036823D02*
X16729713Y-7074923D01*
X16710663Y-7055873D02*
X16748763Y-7055873D01*
X16730878Y-10329808D02*
X16730878Y-10367908D01*
X16711828Y-10348858D02*
X16749928Y-10348858D01*
X16741630Y-8021726D02*
X16741630Y-8059826D01*
X16722580Y-8040776D02*
X16760680Y-8040776D01*
X16759410Y-9368340D02*
X16759410Y-9406440D01*
X16740360Y-9387390D02*
X16778460Y-9387390D01*
X16759410Y-12118340D02*
X16759410Y-12156440D01*
X16740360Y-12137390D02*
X16778460Y-12137390D01*
X16769410Y-12378340D02*
X16769410Y-12416440D01*
X16750360Y-12397390D02*
X16788460Y-12397390D01*
X16779410Y-12238340D02*
X16779410Y-12276440D01*
X16760360Y-12257390D02*
X16798460Y-12257390D01*
X16809410Y-9778340D02*
X16809410Y-9816440D01*
X16790360Y-9797390D02*
X16828460Y-9797390D01*
X16834410Y-9963340D02*
X16834410Y-10001440D01*
X16815360Y-9982390D02*
X16853460Y-9982390D01*
X16909405Y-11942240D02*
X16909405Y-11980340D01*
X16890355Y-11961290D02*
X16928455Y-11961290D01*
X16909410Y-9413340D02*
X16909410Y-9451440D01*
X16890360Y-9432390D02*
X16928460Y-9432390D01*
X16934410Y-9988340D02*
X16934410Y-10026440D01*
X16915360Y-10007390D02*
X16953460Y-10007390D01*
X16957670Y-12501040D02*
X16957670Y-12539140D01*
X16938620Y-12520090D02*
X16976720Y-12520090D01*
X16959713Y-7106143D02*
X16959713Y-7144243D01*
X16940663Y-7125193D02*
X16978763Y-7125193D01*
X16979410Y-12178340D02*
X16979410Y-12216440D01*
X16960360Y-12197390D02*
X16998460Y-12197390D01*
X16999713Y-7808643D02*
X16999713Y-7846743D01*
X16980663Y-7827693D02*
X17018763Y-7827693D01*
X17001910Y-11313340D02*
X17001910Y-11351440D01*
X16982860Y-11332390D02*
X17020960Y-11332390D01*
X17009410Y-9413340D02*
X17009410Y-9451440D01*
X16990360Y-9432390D02*
X17028460Y-9432390D01*
X17044713Y-7693643D02*
X17044713Y-7731743D01*
X17025663Y-7712693D02*
X17063763Y-7712693D01*
X17052213Y-7191143D02*
X17052213Y-7229243D01*
X17033163Y-7210193D02*
X17071263Y-7210193D01*
X17053658Y-10384093D02*
X17053658Y-10422193D01*
X17034608Y-10403143D02*
X17072708Y-10403143D01*
X17083160Y-9652090D02*
X17083160Y-9690190D01*
X17064110Y-9671140D02*
X17102210Y-9671140D01*
X17092171Y-11724951D02*
X17092171Y-11763051D01*
X17073121Y-11744001D02*
X17111221Y-11744001D01*
X17121910Y-9500840D02*
X17121910Y-9538940D01*
X17102860Y-9519890D02*
X17140960Y-9519890D01*
X17130000Y-11450950D02*
X17130000Y-11489050D01*
X17110950Y-11470000D02*
X17149050Y-11470000D01*
X17160000Y-11070950D02*
X17160000Y-11109050D01*
X17140950Y-11090000D02*
X17179050Y-11090000D01*
X17176910Y-8248340D02*
X17176910Y-8286440D01*
X17157860Y-8267390D02*
X17195960Y-8267390D01*
X17209410Y-9738340D02*
X17209410Y-9776440D01*
X17190360Y-9757390D02*
X17228460Y-9757390D01*
X17209410Y-10163340D02*
X17209410Y-10201440D01*
X17190360Y-10182390D02*
X17228460Y-10182390D01*
X17254410Y-10323340D02*
X17254410Y-10361440D01*
X17235360Y-10342390D02*
X17273460Y-10342390D01*
X17256910Y-8575840D02*
X17256910Y-8613940D01*
X17237860Y-8594890D02*
X17275960Y-8594890D01*
X17270368Y-9443142D02*
X17270368Y-9481242D01*
X17251318Y-9462192D02*
X17289418Y-9462192D01*
X17279713Y-7808643D02*
X17279713Y-7846743D01*
X17260663Y-7827693D02*
X17298763Y-7827693D01*
X17299410Y-11548340D02*
X17299410Y-11586440D01*
X17280360Y-11567390D02*
X17318460Y-11567390D01*
X17299713Y-7913643D02*
X17299713Y-7951743D01*
X17280663Y-7932693D02*
X17318763Y-7932693D01*
X17309713Y-8148643D02*
X17309713Y-8186743D01*
X17290663Y-8167693D02*
X17328763Y-8167693D01*
X17379410Y-12608340D02*
X17379410Y-12646440D01*
X17360360Y-12627390D02*
X17398460Y-12627390D01*
X17439410Y-8850840D02*
X17439410Y-8888940D01*
X17420360Y-8869890D02*
X17458460Y-8869890D01*
X17457213Y-7198643D02*
X17457213Y-7236743D01*
X17438163Y-7217693D02*
X17476263Y-7217693D01*
X17494410Y-10423340D02*
X17494410Y-10461440D01*
X17475360Y-10442390D02*
X17513460Y-10442390D01*
X17519410Y-10548340D02*
X17519410Y-10586440D01*
X17500360Y-10567390D02*
X17538460Y-10567390D01*
X17537213Y-6983643D02*
X17537213Y-7021743D01*
X17518163Y-7002693D02*
X17556263Y-7002693D01*
X17550000Y-11740950D02*
X17550000Y-11779050D01*
X17530950Y-11760000D02*
X17569050Y-11760000D01*
X17562213Y-7213643D02*
X17562213Y-7251743D01*
X17543163Y-7232693D02*
X17581263Y-7232693D01*
X17564410Y-9003340D02*
X17564410Y-9041440D01*
X17545360Y-9022390D02*
X17583460Y-9022390D01*
X17569410Y-8388340D02*
X17569410Y-8426440D01*
X17550360Y-8407390D02*
X17588460Y-8407390D01*
X17570000Y-11555950D02*
X17570000Y-11594050D01*
X17550950Y-11575000D02*
X17589050Y-11575000D01*
X17577200Y-10951150D02*
X17577200Y-10989250D01*
X17558150Y-10970200D02*
X17596250Y-10970200D01*
X17577213Y-6913643D02*
X17577213Y-6951743D01*
X17558163Y-6932693D02*
X17596263Y-6932693D01*
X17584410Y-9413340D02*
X17584410Y-9451440D01*
X17565360Y-9432390D02*
X17603460Y-9432390D01*
X17634713Y-6856143D02*
X17634713Y-6894243D01*
X17615663Y-6875193D02*
X17653763Y-6875193D01*
X17654410Y-10258340D02*
X17654410Y-10296440D01*
X17635360Y-10277390D02*
X17673460Y-10277390D01*
X17679713Y-7513643D02*
X17679713Y-7551743D01*
X17660663Y-7532693D02*
X17698763Y-7532693D01*
X17689410Y-9958340D02*
X17689410Y-9996440D01*
X17670360Y-9977390D02*
X17708460Y-9977390D01*
X17704713Y-7348643D02*
X17704713Y-7386743D01*
X17685663Y-7367693D02*
X17723763Y-7367693D01*
X17714410Y-9173340D02*
X17714410Y-9211440D01*
X17695360Y-9192390D02*
X17733460Y-9192390D01*
X17743200Y-10637150D02*
X17743200Y-10675250D01*
X17724150Y-10656200D02*
X17762250Y-10656200D01*
X17769410Y-6548340D02*
X17769410Y-6586440D01*
X17750360Y-6567390D02*
X17788460Y-6567390D01*
X17779410Y-6428340D02*
X17779410Y-6466440D01*
X17760360Y-6447390D02*
X17798460Y-6447390D01*
X17794713Y-7668643D02*
X17794713Y-7706743D01*
X17775663Y-7687693D02*
X17813763Y-7687693D01*
X17810000Y-10870950D02*
X17810000Y-10909050D01*
X17790950Y-10890000D02*
X17829050Y-10890000D01*
X17839000Y-10771950D02*
X17839000Y-10810050D01*
X17819950Y-10791000D02*
X17858050Y-10791000D01*
X17874713Y-7503643D02*
X17874713Y-7541743D01*
X17855663Y-7522693D02*
X17893763Y-7522693D01*
X17889713Y-7323643D02*
X17889713Y-7361743D01*
X17870663Y-7342693D02*
X17908763Y-7342693D01*
X17909713Y-7688643D02*
X17909713Y-7726743D01*
X17890663Y-7707693D02*
X17928763Y-7707693D01*
X17969410Y-10378340D02*
X17969410Y-10416440D01*
X17950360Y-10397390D02*
X17988460Y-10397390D01*
X17999713Y-7483643D02*
X17999713Y-7521743D01*
X17980663Y-7502693D02*
X18018763Y-7502693D01*
X18004713Y-8398643D02*
X18004713Y-8436743D01*
X17985663Y-8417693D02*
X18023763Y-8417693D01*
X18009410Y-13098340D02*
X18009410Y-13136440D01*
X17990360Y-13117390D02*
X18028460Y-13117390D01*
X18019713Y-7783643D02*
X18019713Y-7821743D01*
X18000663Y-7802693D02*
X18038763Y-7802693D01*
X18028070Y-12787000D02*
X18028070Y-12825100D01*
X18009020Y-12806050D02*
X18047120Y-12806050D01*
X18034713Y-7643643D02*
X18034713Y-7681743D01*
X18015663Y-7662693D02*
X18053763Y-7662693D01*
X18061600Y-10894550D02*
X18061600Y-10932650D01*
X18042550Y-10913600D02*
X18080650Y-10913600D01*
X18099410Y-9348340D02*
X18099410Y-9386440D01*
X18080360Y-9367390D02*
X18118460Y-9367390D01*
X18099410Y-9768340D02*
X18099410Y-9806440D01*
X18080360Y-9787390D02*
X18118460Y-9787390D01*
X18109713Y-7348643D02*
X18109713Y-7386743D01*
X18090663Y-7367693D02*
X18128763Y-7367693D01*
X18139713Y-7758643D02*
X18139713Y-7796743D01*
X18120663Y-7777693D02*
X18158763Y-7777693D01*
X18154713Y-7578643D02*
X18154713Y-7616743D01*
X18135663Y-7597693D02*
X18173763Y-7597693D01*
X18175000Y-9290950D02*
X18175000Y-9329050D01*
X18155950Y-9310000D02*
X18194050Y-9310000D01*
X18239410Y-10248340D02*
X18239410Y-10286440D01*
X18220360Y-10267390D02*
X18258460Y-10267390D01*
X18259410Y-12678340D02*
X18259410Y-12716440D01*
X18240360Y-12697390D02*
X18278460Y-12697390D01*
X18359410Y-9028340D02*
X18359410Y-9066440D01*
X18340360Y-9047390D02*
X18378460Y-9047390D01*
X18374410Y-8888340D02*
X18374410Y-8926440D01*
X18355360Y-8907390D02*
X18393460Y-8907390D01*
X18434410Y-8968340D02*
X18434410Y-9006440D01*
X18415360Y-8987390D02*
X18453460Y-8987390D01*
X18489410Y-8873340D02*
X18489410Y-8911440D01*
X18470360Y-8892390D02*
X18508460Y-8892390D01*
X18489410Y-9038340D02*
X18489410Y-9076440D01*
X18470360Y-9057390D02*
X18508460Y-9057390D01*
X12500801Y-9318994D02*
X12500801Y-9290710D01*
X12472516Y-9290710D01*
X12472516Y-9318994D01*
X12500801Y-9318994D01*
X12500801Y-9457984D02*
X12500801Y-9429700D01*
X12472516Y-9429700D01*
X12472516Y-9457984D01*
X12500801Y-9457984D01*
X18023500Y-10583000D02*
X18053500Y-10553000D01*
X18023500Y-10523000D01*
X17993500Y-10553000D01*
X18023500Y-10583000D01*
X17968500Y-10583000D02*
X18078500Y-10583000D01*
X18078500Y-10523000D02*
G75*
G02*
X18078500Y-10583000I0J-30000D01*
G01*
X18078500Y-10523000D02*
X17968500Y-10523000D01*
X17968500Y-10523000D02*
G75*
G03*
X17968500Y-10583000I0J-30000D01*
G01*
X18023500Y-11447000D02*
X18053500Y-11417000D01*
X18023500Y-11387000D01*
X17993500Y-11417000D01*
X18023500Y-11447000D01*
X17968500Y-11447000D02*
X18078500Y-11447000D01*
X18078500Y-11387000D02*
G75*
G02*
X18078500Y-11447000I0J-30000D01*
G01*
X18078500Y-11387000D02*
X17968500Y-11387000D01*
X17968500Y-11387000D02*
G75*
G03*
X17968500Y-11447000I0J-30000D01*
G01*
X18437500Y-10583000D02*
X18467500Y-10553000D01*
X18437500Y-10523000D01*
X18407500Y-10553000D01*
X18437500Y-10583000D01*
X18407500Y-10583000D02*
X18467500Y-10583000D01*
X18467500Y-10523000D02*
G75*
G02*
X18467500Y-10583000I0J-30000D01*
G01*
X18467500Y-10523000D02*
X18407500Y-10523000D01*
X18407500Y-10523000D02*
G75*
G03*
X18407500Y-10583000I0J-30000D01*
G01*
X18437500Y-11447000D02*
X18467500Y-11417000D01*
X18437500Y-11387000D01*
X18407500Y-11417000D01*
X18437500Y-11447000D01*
X18407500Y-11447000D02*
X18467500Y-11447000D01*
X18467500Y-11387000D02*
G75*
G02*
X18467500Y-11447000I0J-30000D01*
G01*
X18467500Y-11387000D02*
X18407500Y-11387000D01*
X18407500Y-11387000D02*
G75*
G03*
X18407500Y-11447000I0J-30000D01*
G01*
X10725664Y-11798336D02*
X10825664Y-11898336D01*
X10825664Y-11798336D02*
X10725664Y-11898336D01*
X10825664Y-11848336D02*
G75*
G02*
X10725664Y-11848336I-50000J0D01*
G01*
X10725664Y-11848336D02*
G75*
G02*
X10825664Y-11848336I50000J0D01*
G01*
X10979664Y-11798336D02*
X11079664Y-11898336D01*
X11079664Y-11798336D02*
X10979664Y-11898336D01*
X11079664Y-11848336D02*
G75*
G02*
X10979664Y-11848336I-50000J0D01*
G01*
X10979664Y-11848336D02*
G75*
G02*
X11079664Y-11848336I50000J0D01*
G01*
X11233664Y-11798336D02*
X11333664Y-11898336D01*
X11333664Y-11798336D02*
X11233664Y-11898336D01*
X11333664Y-11848336D02*
G75*
G02*
X11233664Y-11848336I-50000J0D01*
G01*
X11233664Y-11848336D02*
G75*
G02*
X11333664Y-11848336I50000J0D01*
G01*
X11487664Y-11798336D02*
X11587664Y-11898336D01*
X11587664Y-11798336D02*
X11487664Y-11898336D01*
X11587664Y-11848336D02*
G75*
G02*
X11487664Y-11848336I-50000J0D01*
G01*
X11487664Y-11848336D02*
G75*
G02*
X11587664Y-11848336I50000J0D01*
G01*
X11741664Y-11798336D02*
X11841664Y-11898336D01*
X11841664Y-11798336D02*
X11741664Y-11898336D01*
X11841664Y-11848336D02*
G75*
G02*
X11741664Y-11848336I-50000J0D01*
G01*
X11741664Y-11848336D02*
G75*
G02*
X11841664Y-11848336I50000J0D01*
G01*
X11995664Y-11798336D02*
X12095664Y-11898336D01*
X12095664Y-11798336D02*
X11995664Y-11898336D01*
X12095664Y-11848336D02*
G75*
G02*
X11995664Y-11848336I-50000J0D01*
G01*
X11995664Y-11848336D02*
G75*
G02*
X12095664Y-11848336I50000J0D01*
G01*
X12249664Y-11798336D02*
X12349664Y-11898336D01*
X12349664Y-11798336D02*
X12249664Y-11898336D01*
X12349664Y-11848336D02*
G75*
G02*
X12249664Y-11848336I-50000J0D01*
G01*
X12249664Y-11848336D02*
G75*
G02*
X12349664Y-11848336I50000J0D01*
G01*
X13292200Y-13070000D02*
X13392200Y-13170000D01*
X13392200Y-13070000D02*
X13292200Y-13170000D01*
X13392200Y-13120000D02*
G75*
G02*
X13292200Y-13120000I-50000J0D01*
G01*
X13292200Y-13120000D02*
G75*
G02*
X13392200Y-13120000I50000J0D01*
G01*
X13546200Y-13070000D02*
X13646200Y-13170000D01*
X13646200Y-13070000D02*
X13546200Y-13170000D01*
X13646200Y-13120000D02*
G75*
G02*
X13546200Y-13120000I-50000J0D01*
G01*
X13546200Y-13120000D02*
G75*
G02*
X13646200Y-13120000I50000J0D01*
G01*
X13800200Y-13070000D02*
X13900200Y-13170000D01*
X13900200Y-13070000D02*
X13800200Y-13170000D01*
X13900200Y-13120000D02*
G75*
G02*
X13800200Y-13120000I-50000J0D01*
G01*
X13800200Y-13120000D02*
G75*
G02*
X13900200Y-13120000I50000J0D01*
G01*
X14054200Y-13070000D02*
X14154200Y-13170000D01*
X14154200Y-13070000D02*
X14054200Y-13170000D01*
X14154200Y-13120000D02*
G75*
G02*
X14054200Y-13120000I-50000J0D01*
G01*
X14054200Y-13120000D02*
G75*
G02*
X14154200Y-13120000I50000J0D01*
G01*
X14308200Y-13070000D02*
X14408200Y-13170000D01*
X14408200Y-13070000D02*
X14308200Y-13170000D01*
X14408200Y-13120000D02*
G75*
G02*
X14308200Y-13120000I-50000J0D01*
G01*
X14308200Y-13120000D02*
G75*
G02*
X14408200Y-13120000I50000J0D01*
G01*
X14562200Y-13070000D02*
X14662200Y-13170000D01*
X14662200Y-13070000D02*
X14562200Y-13170000D01*
X14662200Y-13120000D02*
G75*
G02*
X14562200Y-13120000I-50000J0D01*
G01*
X14562200Y-13120000D02*
G75*
G02*
X14662200Y-13120000I50000J0D01*
G01*
X14816200Y-13070000D02*
X14916200Y-13170000D01*
X14916200Y-13070000D02*
X14816200Y-13170000D01*
X14916200Y-13120000D02*
G75*
G02*
X14816200Y-13120000I-50000J0D01*
G01*
X14816200Y-13120000D02*
G75*
G02*
X14916200Y-13120000I50000J0D01*
G01*
X15070200Y-13070000D02*
X15170200Y-13170000D01*
X15170200Y-13070000D02*
X15070200Y-13170000D01*
X15170200Y-13120000D02*
G75*
G02*
X15070200Y-13120000I-50000J0D01*
G01*
X15070200Y-13120000D02*
G75*
G02*
X15170200Y-13120000I50000J0D01*
G01*
X15324200Y-13070000D02*
X15424200Y-13170000D01*
X15424200Y-13070000D02*
X15324200Y-13170000D01*
X15424200Y-13120000D02*
G75*
G02*
X15324200Y-13120000I-50000J0D01*
G01*
X15324200Y-13120000D02*
G75*
G02*
X15424200Y-13120000I50000J0D01*
G01*
X15578200Y-13070000D02*
X15678200Y-13170000D01*
X15678200Y-13070000D02*
X15578200Y-13170000D01*
X15678200Y-13120000D02*
G75*
G02*
X15578200Y-13120000I-50000J0D01*
G01*
X15578200Y-13120000D02*
G75*
G02*
X15678200Y-13120000I50000J0D01*
G01*
D13*
X10182600Y-14169400D02*
X10502600Y-14489400D01*
X10502600Y-14169400D02*
X10182600Y-14489400D01*
X10342600Y-14169400D02*
X10342600Y-14489400D01*
X10182600Y-14329400D02*
X10502600Y-14329400D01*
X10434600Y-5596410D02*
X10754600Y-5916410D01*
X10754600Y-5596410D02*
X10434600Y-5916410D01*
X10594600Y-5596410D02*
X10594600Y-5916410D01*
X10434600Y-5756410D02*
X10754600Y-5756410D01*
X17800600Y-5596400D02*
X18120600Y-5916400D01*
X18120600Y-5596400D02*
X17800600Y-5916400D01*
X17960600Y-5596400D02*
X17960600Y-5916400D01*
X17800600Y-5756400D02*
X18120600Y-5756400D01*
X18182610Y-14169410D02*
X18502610Y-14489410D01*
X18502610Y-14169410D02*
X18182610Y-14489410D01*
X18342610Y-14169410D02*
X18342610Y-14489410D01*
X18182610Y-14329410D02*
X18502610Y-14329410D01*
D11*
X10083297Y-15157664D02*
X10083297Y-14957664D01*
X10083297Y-14957664D02*
X10130916Y-14957664D01*
X10130916Y-14957664D02*
X10159487Y-14967188D01*
X10159487Y-14967188D02*
X10178535Y-14986235D01*
X10178535Y-14986235D02*
X10188059Y-15005283D01*
X10188059Y-15005283D02*
X10197583Y-15043378D01*
X10197583Y-15043378D02*
X10197583Y-15071949D01*
X10197583Y-15071949D02*
X10188059Y-15110045D01*
X10188059Y-15110045D02*
X10178535Y-15129092D01*
X10178535Y-15129092D02*
X10159487Y-15148140D01*
X10159487Y-15148140D02*
X10130916Y-15157664D01*
X10130916Y-15157664D02*
X10083297Y-15157664D01*
X10283297Y-15157664D02*
X10283297Y-15024330D01*
X10283297Y-15062426D02*
X10292821Y-15043378D01*
X10292821Y-15043378D02*
X10302344Y-15033854D01*
X10302344Y-15033854D02*
X10321392Y-15024330D01*
X10321392Y-15024330D02*
X10340440Y-15024330D01*
X10407106Y-15157664D02*
X10407106Y-15024330D01*
X10407106Y-14957664D02*
X10397583Y-14967188D01*
X10397583Y-14967188D02*
X10407106Y-14976711D01*
X10407106Y-14976711D02*
X10416630Y-14967188D01*
X10416630Y-14967188D02*
X10407106Y-14957664D01*
X10407106Y-14957664D02*
X10407106Y-14976711D01*
X10530916Y-15157664D02*
X10511868Y-15148140D01*
X10511868Y-15148140D02*
X10502344Y-15129092D01*
X10502344Y-15129092D02*
X10502344Y-14957664D01*
X10635678Y-15157664D02*
X10616630Y-15148140D01*
X10616630Y-15148140D02*
X10607106Y-15129092D01*
X10607106Y-15129092D02*
X10607106Y-14957664D01*
X10864249Y-15157664D02*
X10864249Y-14957664D01*
X10864249Y-14957664D02*
X10930916Y-15100521D01*
X10930916Y-15100521D02*
X10997583Y-14957664D01*
X10997583Y-14957664D02*
X10997583Y-15157664D01*
X11178535Y-15157664D02*
X11178535Y-15052902D01*
X11178535Y-15052902D02*
X11169011Y-15033854D01*
X11169011Y-15033854D02*
X11149964Y-15024330D01*
X11149964Y-15024330D02*
X11111868Y-15024330D01*
X11111868Y-15024330D02*
X11092821Y-15033854D01*
X11178535Y-15148140D02*
X11159487Y-15157664D01*
X11159487Y-15157664D02*
X11111868Y-15157664D01*
X11111868Y-15157664D02*
X11092821Y-15148140D01*
X11092821Y-15148140D02*
X11083297Y-15129092D01*
X11083297Y-15129092D02*
X11083297Y-15110045D01*
X11083297Y-15110045D02*
X11092821Y-15090997D01*
X11092821Y-15090997D02*
X11111868Y-15081473D01*
X11111868Y-15081473D02*
X11159487Y-15081473D01*
X11159487Y-15081473D02*
X11178535Y-15071949D01*
X11273773Y-15024330D02*
X11273773Y-15224330D01*
X11273773Y-15033854D02*
X11292821Y-15024330D01*
X11292821Y-15024330D02*
X11330916Y-15024330D01*
X11330916Y-15024330D02*
X11349963Y-15033854D01*
X11349963Y-15033854D02*
X11359487Y-15043378D01*
X11359487Y-15043378D02*
X11369011Y-15062426D01*
X11369011Y-15062426D02*
X11369011Y-15119568D01*
X11369011Y-15119568D02*
X11359487Y-15138616D01*
X11359487Y-15138616D02*
X11349963Y-15148140D01*
X11349963Y-15148140D02*
X11330916Y-15157664D01*
X11330916Y-15157664D02*
X11292821Y-15157664D01*
X11292821Y-15157664D02*
X11273773Y-15148140D01*
X11454725Y-15138616D02*
X11464249Y-15148140D01*
X11464249Y-15148140D02*
X11454725Y-15157664D01*
X11454725Y-15157664D02*
X11445202Y-15148140D01*
X11445202Y-15148140D02*
X11454725Y-15138616D01*
X11454725Y-15138616D02*
X11454725Y-15157664D01*
X11454725Y-15033854D02*
X11464249Y-15043378D01*
X11464249Y-15043378D02*
X11454725Y-15052902D01*
X11454725Y-15052902D02*
X11445202Y-15043378D01*
X11445202Y-15043378D02*
X11454725Y-15033854D01*
X11454725Y-15033854D02*
X11454725Y-15052902D01*
D12*
X9802520Y-15476180D02*
X9822520Y-15496180D01*
X9822520Y-15476180D02*
X9802520Y-15496180D01*
D11*
X10121392Y-15377664D02*
X10140440Y-15377664D01*
X10140440Y-15377664D02*
X10159487Y-15387188D01*
X10159487Y-15387188D02*
X10169011Y-15396711D01*
X10169011Y-15396711D02*
X10178535Y-15415759D01*
X10178535Y-15415759D02*
X10188059Y-15453854D01*
X10188059Y-15453854D02*
X10188059Y-15501473D01*
X10188059Y-15501473D02*
X10178535Y-15539568D01*
X10178535Y-15539568D02*
X10169011Y-15558616D01*
X10169011Y-15558616D02*
X10159487Y-15568140D01*
X10159487Y-15568140D02*
X10140440Y-15577664D01*
X10140440Y-15577664D02*
X10121392Y-15577664D01*
X10121392Y-15577664D02*
X10102344Y-15568140D01*
X10102344Y-15568140D02*
X10092821Y-15558616D01*
X10092821Y-15558616D02*
X10083297Y-15539568D01*
X10083297Y-15539568D02*
X10073773Y-15501473D01*
X10073773Y-15501473D02*
X10073773Y-15453854D01*
X10073773Y-15453854D02*
X10083297Y-15415759D01*
X10083297Y-15415759D02*
X10092821Y-15396711D01*
X10092821Y-15396711D02*
X10102344Y-15387188D01*
X10102344Y-15387188D02*
X10121392Y-15377664D01*
X10273773Y-15558616D02*
X10283297Y-15568140D01*
X10283297Y-15568140D02*
X10273773Y-15577664D01*
X10273773Y-15577664D02*
X10264249Y-15568140D01*
X10264249Y-15568140D02*
X10273773Y-15558616D01*
X10273773Y-15558616D02*
X10273773Y-15577664D01*
X10359487Y-15396711D02*
X10369011Y-15387188D01*
X10369011Y-15387188D02*
X10388059Y-15377664D01*
X10388059Y-15377664D02*
X10435678Y-15377664D01*
X10435678Y-15377664D02*
X10454725Y-15387188D01*
X10454725Y-15387188D02*
X10464249Y-15396711D01*
X10464249Y-15396711D02*
X10473773Y-15415759D01*
X10473773Y-15415759D02*
X10473773Y-15434807D01*
X10473773Y-15434807D02*
X10464249Y-15463378D01*
X10464249Y-15463378D02*
X10349964Y-15577664D01*
X10349964Y-15577664D02*
X10473773Y-15577664D01*
X10597583Y-15377664D02*
X10616630Y-15377664D01*
X10616630Y-15377664D02*
X10635678Y-15387188D01*
X10635678Y-15387188D02*
X10645202Y-15396711D01*
X10645202Y-15396711D02*
X10654725Y-15415759D01*
X10654725Y-15415759D02*
X10664249Y-15453854D01*
X10664249Y-15453854D02*
X10664249Y-15501473D01*
X10664249Y-15501473D02*
X10654725Y-15539568D01*
X10654725Y-15539568D02*
X10645202Y-15558616D01*
X10645202Y-15558616D02*
X10635678Y-15568140D01*
X10635678Y-15568140D02*
X10616630Y-15577664D01*
X10616630Y-15577664D02*
X10597583Y-15577664D01*
X10597583Y-15577664D02*
X10578535Y-15568140D01*
X10578535Y-15568140D02*
X10569011Y-15558616D01*
X10569011Y-15558616D02*
X10559487Y-15539568D01*
X10559487Y-15539568D02*
X10549964Y-15501473D01*
X10549964Y-15501473D02*
X10549964Y-15453854D01*
X10549964Y-15453854D02*
X10559487Y-15415759D01*
X10559487Y-15415759D02*
X10569011Y-15396711D01*
X10569011Y-15396711D02*
X10578535Y-15387188D01*
X10578535Y-15387188D02*
X10597583Y-15377664D01*
X10788059Y-15377664D02*
X10807106Y-15377664D01*
X10807106Y-15377664D02*
X10826154Y-15387188D01*
X10826154Y-15387188D02*
X10835678Y-15396711D01*
X10835678Y-15396711D02*
X10845202Y-15415759D01*
X10845202Y-15415759D02*
X10854725Y-15453854D01*
X10854725Y-15453854D02*
X10854725Y-15501473D01*
X10854725Y-15501473D02*
X10845202Y-15539568D01*
X10845202Y-15539568D02*
X10835678Y-15558616D01*
X10835678Y-15558616D02*
X10826154Y-15568140D01*
X10826154Y-15568140D02*
X10807106Y-15577664D01*
X10807106Y-15577664D02*
X10788059Y-15577664D01*
X10788059Y-15577664D02*
X10769011Y-15568140D01*
X10769011Y-15568140D02*
X10759487Y-15558616D01*
X10759487Y-15558616D02*
X10749964Y-15539568D01*
X10749964Y-15539568D02*
X10740440Y-15501473D01*
X10740440Y-15501473D02*
X10740440Y-15453854D01*
X10740440Y-15453854D02*
X10749964Y-15415759D01*
X10749964Y-15415759D02*
X10759487Y-15396711D01*
X10759487Y-15396711D02*
X10769011Y-15387188D01*
X10769011Y-15387188D02*
X10788059Y-15377664D01*
X10940440Y-15577664D02*
X10940440Y-15444330D01*
X10940440Y-15463378D02*
X10949964Y-15453854D01*
X10949964Y-15453854D02*
X10969011Y-15444330D01*
X10969011Y-15444330D02*
X10997583Y-15444330D01*
X10997583Y-15444330D02*
X11016630Y-15453854D01*
X11016630Y-15453854D02*
X11026154Y-15472902D01*
X11026154Y-15472902D02*
X11026154Y-15577664D01*
X11026154Y-15472902D02*
X11035678Y-15453854D01*
X11035678Y-15453854D02*
X11054725Y-15444330D01*
X11054725Y-15444330D02*
X11083297Y-15444330D01*
X11083297Y-15444330D02*
X11102345Y-15453854D01*
X11102345Y-15453854D02*
X11111868Y-15472902D01*
X11111868Y-15472902D02*
X11111868Y-15577664D01*
X11207106Y-15577664D02*
X11207106Y-15444330D01*
X11207106Y-15463378D02*
X11216630Y-15453854D01*
X11216630Y-15453854D02*
X11235678Y-15444330D01*
X11235678Y-15444330D02*
X11264249Y-15444330D01*
X11264249Y-15444330D02*
X11283297Y-15453854D01*
X11283297Y-15453854D02*
X11292821Y-15472902D01*
X11292821Y-15472902D02*
X11292821Y-15577664D01*
X11292821Y-15472902D02*
X11302344Y-15453854D01*
X11302344Y-15453854D02*
X11321392Y-15444330D01*
X11321392Y-15444330D02*
X11349963Y-15444330D01*
X11349963Y-15444330D02*
X11369011Y-15453854D01*
X11369011Y-15453854D02*
X11378535Y-15472902D01*
X11378535Y-15472902D02*
X11378535Y-15577664D01*
X11769011Y-15368140D02*
X11597583Y-15625283D01*
X12026154Y-15377664D02*
X12045202Y-15377664D01*
X12045202Y-15377664D02*
X12064249Y-15387188D01*
X12064249Y-15387188D02*
X12073773Y-15396711D01*
X12073773Y-15396711D02*
X12083297Y-15415759D01*
X12083297Y-15415759D02*
X12092821Y-15453854D01*
X12092821Y-15453854D02*
X12092821Y-15501473D01*
X12092821Y-15501473D02*
X12083297Y-15539568D01*
X12083297Y-15539568D02*
X12073773Y-15558616D01*
X12073773Y-15558616D02*
X12064249Y-15568140D01*
X12064249Y-15568140D02*
X12045202Y-15577664D01*
X12045202Y-15577664D02*
X12026154Y-15577664D01*
X12026154Y-15577664D02*
X12007106Y-15568140D01*
X12007106Y-15568140D02*
X11997583Y-15558616D01*
X11997583Y-15558616D02*
X11988059Y-15539568D01*
X11988059Y-15539568D02*
X11978535Y-15501473D01*
X11978535Y-15501473D02*
X11978535Y-15453854D01*
X11978535Y-15453854D02*
X11988059Y-15415759D01*
X11988059Y-15415759D02*
X11997583Y-15396711D01*
X11997583Y-15396711D02*
X12007106Y-15387188D01*
X12007106Y-15387188D02*
X12026154Y-15377664D01*
X12178535Y-15558616D02*
X12188059Y-15568140D01*
X12188059Y-15568140D02*
X12178535Y-15577664D01*
X12178535Y-15577664D02*
X12169011Y-15568140D01*
X12169011Y-15568140D02*
X12178535Y-15558616D01*
X12178535Y-15558616D02*
X12178535Y-15577664D01*
X12311868Y-15377664D02*
X12330916Y-15377664D01*
X12330916Y-15377664D02*
X12349964Y-15387188D01*
X12349964Y-15387188D02*
X12359487Y-15396711D01*
X12359487Y-15396711D02*
X12369011Y-15415759D01*
X12369011Y-15415759D02*
X12378535Y-15453854D01*
X12378535Y-15453854D02*
X12378535Y-15501473D01*
X12378535Y-15501473D02*
X12369011Y-15539568D01*
X12369011Y-15539568D02*
X12359487Y-15558616D01*
X12359487Y-15558616D02*
X12349964Y-15568140D01*
X12349964Y-15568140D02*
X12330916Y-15577664D01*
X12330916Y-15577664D02*
X12311868Y-15577664D01*
X12311868Y-15577664D02*
X12292821Y-15568140D01*
X12292821Y-15568140D02*
X12283297Y-15558616D01*
X12283297Y-15558616D02*
X12273773Y-15539568D01*
X12273773Y-15539568D02*
X12264249Y-15501473D01*
X12264249Y-15501473D02*
X12264249Y-15453854D01*
X12264249Y-15453854D02*
X12273773Y-15415759D01*
X12273773Y-15415759D02*
X12283297Y-15396711D01*
X12283297Y-15396711D02*
X12292821Y-15387188D01*
X12292821Y-15387188D02*
X12311868Y-15377664D01*
X12502345Y-15377664D02*
X12521392Y-15377664D01*
X12521392Y-15377664D02*
X12540440Y-15387188D01*
X12540440Y-15387188D02*
X12549964Y-15396711D01*
X12549964Y-15396711D02*
X12559487Y-15415759D01*
X12559487Y-15415759D02*
X12569011Y-15453854D01*
X12569011Y-15453854D02*
X12569011Y-15501473D01*
X12569011Y-15501473D02*
X12559487Y-15539568D01*
X12559487Y-15539568D02*
X12549964Y-15558616D01*
X12549964Y-15558616D02*
X12540440Y-15568140D01*
X12540440Y-15568140D02*
X12521392Y-15577664D01*
X12521392Y-15577664D02*
X12502345Y-15577664D01*
X12502345Y-15577664D02*
X12483297Y-15568140D01*
X12483297Y-15568140D02*
X12473773Y-15558616D01*
X12473773Y-15558616D02*
X12464249Y-15539568D01*
X12464249Y-15539568D02*
X12454726Y-15501473D01*
X12454726Y-15501473D02*
X12454726Y-15453854D01*
X12454726Y-15453854D02*
X12464249Y-15415759D01*
X12464249Y-15415759D02*
X12473773Y-15396711D01*
X12473773Y-15396711D02*
X12483297Y-15387188D01*
X12483297Y-15387188D02*
X12502345Y-15377664D01*
X12635678Y-15377664D02*
X12769011Y-15377664D01*
X12769011Y-15377664D02*
X12683297Y-15577664D01*
X12854726Y-15577664D02*
X12892821Y-15577664D01*
X12892821Y-15577664D02*
X12911868Y-15568140D01*
X12911868Y-15568140D02*
X12921392Y-15558616D01*
X12921392Y-15558616D02*
X12940440Y-15530045D01*
X12940440Y-15530045D02*
X12949964Y-15491949D01*
X12949964Y-15491949D02*
X12949964Y-15415759D01*
X12949964Y-15415759D02*
X12940440Y-15396711D01*
X12940440Y-15396711D02*
X12930916Y-15387188D01*
X12930916Y-15387188D02*
X12911868Y-15377664D01*
X12911868Y-15377664D02*
X12873773Y-15377664D01*
X12873773Y-15377664D02*
X12854726Y-15387188D01*
X12854726Y-15387188D02*
X12845202Y-15396711D01*
X12845202Y-15396711D02*
X12835678Y-15415759D01*
X12835678Y-15415759D02*
X12835678Y-15463378D01*
X12835678Y-15463378D02*
X12845202Y-15482426D01*
X12845202Y-15482426D02*
X12854726Y-15491949D01*
X12854726Y-15491949D02*
X12873773Y-15501473D01*
X12873773Y-15501473D02*
X12911868Y-15501473D01*
X12911868Y-15501473D02*
X12930916Y-15491949D01*
X12930916Y-15491949D02*
X12940440Y-15482426D01*
X12940440Y-15482426D02*
X12949964Y-15463378D01*
X13026154Y-15377664D02*
X13026154Y-15415759D01*
X13102345Y-15377664D02*
X13102345Y-15415759D01*
X13397583Y-15653854D02*
X13388059Y-15644330D01*
X13388059Y-15644330D02*
X13369011Y-15615759D01*
X13369011Y-15615759D02*
X13359488Y-15596711D01*
X13359488Y-15596711D02*
X13349964Y-15568140D01*
X13349964Y-15568140D02*
X13340440Y-15520521D01*
X13340440Y-15520521D02*
X13340440Y-15482426D01*
X13340440Y-15482426D02*
X13349964Y-15434807D01*
X13349964Y-15434807D02*
X13359488Y-15406235D01*
X13359488Y-15406235D02*
X13369011Y-15387188D01*
X13369011Y-15387188D02*
X13388059Y-15358616D01*
X13388059Y-15358616D02*
X13397583Y-15349092D01*
X13559488Y-15377664D02*
X13521392Y-15377664D01*
X13521392Y-15377664D02*
X13502345Y-15387188D01*
X13502345Y-15387188D02*
X13492821Y-15396711D01*
X13492821Y-15396711D02*
X13473773Y-15425283D01*
X13473773Y-15425283D02*
X13464249Y-15463378D01*
X13464249Y-15463378D02*
X13464249Y-15539568D01*
X13464249Y-15539568D02*
X13473773Y-15558616D01*
X13473773Y-15558616D02*
X13483297Y-15568140D01*
X13483297Y-15568140D02*
X13502345Y-15577664D01*
X13502345Y-15577664D02*
X13540440Y-15577664D01*
X13540440Y-15577664D02*
X13559488Y-15568140D01*
X13559488Y-15568140D02*
X13569011Y-15558616D01*
X13569011Y-15558616D02*
X13578535Y-15539568D01*
X13578535Y-15539568D02*
X13578535Y-15491949D01*
X13578535Y-15491949D02*
X13569011Y-15472902D01*
X13569011Y-15472902D02*
X13559488Y-15463378D01*
X13559488Y-15463378D02*
X13540440Y-15453854D01*
X13540440Y-15453854D02*
X13502345Y-15453854D01*
X13502345Y-15453854D02*
X13483297Y-15463378D01*
X13483297Y-15463378D02*
X13473773Y-15472902D01*
X13473773Y-15472902D02*
X13464249Y-15491949D01*
X13749964Y-15444330D02*
X13749964Y-15577664D01*
X13702345Y-15368140D02*
X13654726Y-15510997D01*
X13654726Y-15510997D02*
X13778535Y-15510997D01*
X14007107Y-15577664D02*
X14007107Y-15377664D01*
X14092821Y-15577664D02*
X14092821Y-15472902D01*
X14092821Y-15472902D02*
X14083297Y-15453854D01*
X14083297Y-15453854D02*
X14064250Y-15444330D01*
X14064250Y-15444330D02*
X14035678Y-15444330D01*
X14035678Y-15444330D02*
X14016630Y-15453854D01*
X14016630Y-15453854D02*
X14007107Y-15463378D01*
X14216630Y-15577664D02*
X14197583Y-15568140D01*
X14197583Y-15568140D02*
X14188059Y-15558616D01*
X14188059Y-15558616D02*
X14178535Y-15539568D01*
X14178535Y-15539568D02*
X14178535Y-15482426D01*
X14178535Y-15482426D02*
X14188059Y-15463378D01*
X14188059Y-15463378D02*
X14197583Y-15453854D01*
X14197583Y-15453854D02*
X14216630Y-15444330D01*
X14216630Y-15444330D02*
X14245202Y-15444330D01*
X14245202Y-15444330D02*
X14264250Y-15453854D01*
X14264250Y-15453854D02*
X14273773Y-15463378D01*
X14273773Y-15463378D02*
X14283297Y-15482426D01*
X14283297Y-15482426D02*
X14283297Y-15539568D01*
X14283297Y-15539568D02*
X14273773Y-15558616D01*
X14273773Y-15558616D02*
X14264250Y-15568140D01*
X14264250Y-15568140D02*
X14245202Y-15577664D01*
X14245202Y-15577664D02*
X14216630Y-15577664D01*
X14397583Y-15577664D02*
X14378535Y-15568140D01*
X14378535Y-15568140D02*
X14369011Y-15549092D01*
X14369011Y-15549092D02*
X14369011Y-15377664D01*
X14549964Y-15568140D02*
X14530916Y-15577664D01*
X14530916Y-15577664D02*
X14492821Y-15577664D01*
X14492821Y-15577664D02*
X14473773Y-15568140D01*
X14473773Y-15568140D02*
X14464250Y-15549092D01*
X14464250Y-15549092D02*
X14464250Y-15472902D01*
X14464250Y-15472902D02*
X14473773Y-15453854D01*
X14473773Y-15453854D02*
X14492821Y-15444330D01*
X14492821Y-15444330D02*
X14530916Y-15444330D01*
X14530916Y-15444330D02*
X14549964Y-15453854D01*
X14549964Y-15453854D02*
X14559488Y-15472902D01*
X14559488Y-15472902D02*
X14559488Y-15491949D01*
X14559488Y-15491949D02*
X14464250Y-15510997D01*
X14635678Y-15568140D02*
X14654726Y-15577664D01*
X14654726Y-15577664D02*
X14692821Y-15577664D01*
X14692821Y-15577664D02*
X14711869Y-15568140D01*
X14711869Y-15568140D02*
X14721392Y-15549092D01*
X14721392Y-15549092D02*
X14721392Y-15539568D01*
X14721392Y-15539568D02*
X14711869Y-15520521D01*
X14711869Y-15520521D02*
X14692821Y-15510997D01*
X14692821Y-15510997D02*
X14664250Y-15510997D01*
X14664250Y-15510997D02*
X14645202Y-15501473D01*
X14645202Y-15501473D02*
X14635678Y-15482426D01*
X14635678Y-15482426D02*
X14635678Y-15472902D01*
X14635678Y-15472902D02*
X14645202Y-15453854D01*
X14645202Y-15453854D02*
X14664250Y-15444330D01*
X14664250Y-15444330D02*
X14692821Y-15444330D01*
X14692821Y-15444330D02*
X14711869Y-15453854D01*
X14788059Y-15653854D02*
X14797583Y-15644330D01*
X14797583Y-15644330D02*
X14816631Y-15615759D01*
X14816631Y-15615759D02*
X14826154Y-15596711D01*
X14826154Y-15596711D02*
X14835678Y-15568140D01*
X14835678Y-15568140D02*
X14845202Y-15520521D01*
X14845202Y-15520521D02*
X14845202Y-15482426D01*
X14845202Y-15482426D02*
X14835678Y-15434807D01*
X14835678Y-15434807D02*
X14826154Y-15406235D01*
X14826154Y-15406235D02*
X14816631Y-15387188D01*
X14816631Y-15387188D02*
X14797583Y-15358616D01*
X14797583Y-15358616D02*
X14788059Y-15349092D01*
D12*
X9822520Y-15750180D02*
G75*
G02*
X9797520Y-15750180I-12500J0D01*
G01*
X9797520Y-15750180D02*
G75*
G02*
X9822520Y-15750180I12500J0D01*
G01*
D11*
X10121392Y-15641664D02*
X10140440Y-15641664D01*
X10140440Y-15641664D02*
X10159487Y-15651188D01*
X10159487Y-15651188D02*
X10169011Y-15660711D01*
X10169011Y-15660711D02*
X10178535Y-15679759D01*
X10178535Y-15679759D02*
X10188059Y-15717854D01*
X10188059Y-15717854D02*
X10188059Y-15765473D01*
X10188059Y-15765473D02*
X10178535Y-15803568D01*
X10178535Y-15803568D02*
X10169011Y-15822616D01*
X10169011Y-15822616D02*
X10159487Y-15832140D01*
X10159487Y-15832140D02*
X10140440Y-15841664D01*
X10140440Y-15841664D02*
X10121392Y-15841664D01*
X10121392Y-15841664D02*
X10102344Y-15832140D01*
X10102344Y-15832140D02*
X10092821Y-15822616D01*
X10092821Y-15822616D02*
X10083297Y-15803568D01*
X10083297Y-15803568D02*
X10073773Y-15765473D01*
X10073773Y-15765473D02*
X10073773Y-15717854D01*
X10073773Y-15717854D02*
X10083297Y-15679759D01*
X10083297Y-15679759D02*
X10092821Y-15660711D01*
X10092821Y-15660711D02*
X10102344Y-15651188D01*
X10102344Y-15651188D02*
X10121392Y-15641664D01*
X10273773Y-15822616D02*
X10283297Y-15832140D01*
X10283297Y-15832140D02*
X10273773Y-15841664D01*
X10273773Y-15841664D02*
X10264249Y-15832140D01*
X10264249Y-15832140D02*
X10273773Y-15822616D01*
X10273773Y-15822616D02*
X10273773Y-15841664D01*
X10359487Y-15660711D02*
X10369011Y-15651188D01*
X10369011Y-15651188D02*
X10388059Y-15641664D01*
X10388059Y-15641664D02*
X10435678Y-15641664D01*
X10435678Y-15641664D02*
X10454725Y-15651188D01*
X10454725Y-15651188D02*
X10464249Y-15660711D01*
X10464249Y-15660711D02*
X10473773Y-15679759D01*
X10473773Y-15679759D02*
X10473773Y-15698807D01*
X10473773Y-15698807D02*
X10464249Y-15727378D01*
X10464249Y-15727378D02*
X10349964Y-15841664D01*
X10349964Y-15841664D02*
X10473773Y-15841664D01*
X10654725Y-15641664D02*
X10559487Y-15641664D01*
X10559487Y-15641664D02*
X10549964Y-15736902D01*
X10549964Y-15736902D02*
X10559487Y-15727378D01*
X10559487Y-15727378D02*
X10578535Y-15717854D01*
X10578535Y-15717854D02*
X10626154Y-15717854D01*
X10626154Y-15717854D02*
X10645202Y-15727378D01*
X10645202Y-15727378D02*
X10654725Y-15736902D01*
X10654725Y-15736902D02*
X10664249Y-15755949D01*
X10664249Y-15755949D02*
X10664249Y-15803568D01*
X10664249Y-15803568D02*
X10654725Y-15822616D01*
X10654725Y-15822616D02*
X10645202Y-15832140D01*
X10645202Y-15832140D02*
X10626154Y-15841664D01*
X10626154Y-15841664D02*
X10578535Y-15841664D01*
X10578535Y-15841664D02*
X10559487Y-15832140D01*
X10559487Y-15832140D02*
X10549964Y-15822616D01*
X10788059Y-15641664D02*
X10807106Y-15641664D01*
X10807106Y-15641664D02*
X10826154Y-15651188D01*
X10826154Y-15651188D02*
X10835678Y-15660711D01*
X10835678Y-15660711D02*
X10845202Y-15679759D01*
X10845202Y-15679759D02*
X10854725Y-15717854D01*
X10854725Y-15717854D02*
X10854725Y-15765473D01*
X10854725Y-15765473D02*
X10845202Y-15803568D01*
X10845202Y-15803568D02*
X10835678Y-15822616D01*
X10835678Y-15822616D02*
X10826154Y-15832140D01*
X10826154Y-15832140D02*
X10807106Y-15841664D01*
X10807106Y-15841664D02*
X10788059Y-15841664D01*
X10788059Y-15841664D02*
X10769011Y-15832140D01*
X10769011Y-15832140D02*
X10759487Y-15822616D01*
X10759487Y-15822616D02*
X10749964Y-15803568D01*
X10749964Y-15803568D02*
X10740440Y-15765473D01*
X10740440Y-15765473D02*
X10740440Y-15717854D01*
X10740440Y-15717854D02*
X10749964Y-15679759D01*
X10749964Y-15679759D02*
X10759487Y-15660711D01*
X10759487Y-15660711D02*
X10769011Y-15651188D01*
X10769011Y-15651188D02*
X10788059Y-15641664D01*
X10940440Y-15841664D02*
X10940440Y-15708330D01*
X10940440Y-15727378D02*
X10949964Y-15717854D01*
X10949964Y-15717854D02*
X10969011Y-15708330D01*
X10969011Y-15708330D02*
X10997583Y-15708330D01*
X10997583Y-15708330D02*
X11016630Y-15717854D01*
X11016630Y-15717854D02*
X11026154Y-15736902D01*
X11026154Y-15736902D02*
X11026154Y-15841664D01*
X11026154Y-15736902D02*
X11035678Y-15717854D01*
X11035678Y-15717854D02*
X11054725Y-15708330D01*
X11054725Y-15708330D02*
X11083297Y-15708330D01*
X11083297Y-15708330D02*
X11102345Y-15717854D01*
X11102345Y-15717854D02*
X11111868Y-15736902D01*
X11111868Y-15736902D02*
X11111868Y-15841664D01*
X11207106Y-15841664D02*
X11207106Y-15708330D01*
X11207106Y-15727378D02*
X11216630Y-15717854D01*
X11216630Y-15717854D02*
X11235678Y-15708330D01*
X11235678Y-15708330D02*
X11264249Y-15708330D01*
X11264249Y-15708330D02*
X11283297Y-15717854D01*
X11283297Y-15717854D02*
X11292821Y-15736902D01*
X11292821Y-15736902D02*
X11292821Y-15841664D01*
X11292821Y-15736902D02*
X11302344Y-15717854D01*
X11302344Y-15717854D02*
X11321392Y-15708330D01*
X11321392Y-15708330D02*
X11349963Y-15708330D01*
X11349963Y-15708330D02*
X11369011Y-15717854D01*
X11369011Y-15717854D02*
X11378535Y-15736902D01*
X11378535Y-15736902D02*
X11378535Y-15841664D01*
X11769011Y-15632140D02*
X11597583Y-15889283D01*
X12026154Y-15641664D02*
X12045202Y-15641664D01*
X12045202Y-15641664D02*
X12064249Y-15651188D01*
X12064249Y-15651188D02*
X12073773Y-15660711D01*
X12073773Y-15660711D02*
X12083297Y-15679759D01*
X12083297Y-15679759D02*
X12092821Y-15717854D01*
X12092821Y-15717854D02*
X12092821Y-15765473D01*
X12092821Y-15765473D02*
X12083297Y-15803568D01*
X12083297Y-15803568D02*
X12073773Y-15822616D01*
X12073773Y-15822616D02*
X12064249Y-15832140D01*
X12064249Y-15832140D02*
X12045202Y-15841664D01*
X12045202Y-15841664D02*
X12026154Y-15841664D01*
X12026154Y-15841664D02*
X12007106Y-15832140D01*
X12007106Y-15832140D02*
X11997583Y-15822616D01*
X11997583Y-15822616D02*
X11988059Y-15803568D01*
X11988059Y-15803568D02*
X11978535Y-15765473D01*
X11978535Y-15765473D02*
X11978535Y-15717854D01*
X11978535Y-15717854D02*
X11988059Y-15679759D01*
X11988059Y-15679759D02*
X11997583Y-15660711D01*
X11997583Y-15660711D02*
X12007106Y-15651188D01*
X12007106Y-15651188D02*
X12026154Y-15641664D01*
X12178535Y-15822616D02*
X12188059Y-15832140D01*
X12188059Y-15832140D02*
X12178535Y-15841664D01*
X12178535Y-15841664D02*
X12169011Y-15832140D01*
X12169011Y-15832140D02*
X12178535Y-15822616D01*
X12178535Y-15822616D02*
X12178535Y-15841664D01*
X12311868Y-15641664D02*
X12330916Y-15641664D01*
X12330916Y-15641664D02*
X12349964Y-15651188D01*
X12349964Y-15651188D02*
X12359487Y-15660711D01*
X12359487Y-15660711D02*
X12369011Y-15679759D01*
X12369011Y-15679759D02*
X12378535Y-15717854D01*
X12378535Y-15717854D02*
X12378535Y-15765473D01*
X12378535Y-15765473D02*
X12369011Y-15803568D01*
X12369011Y-15803568D02*
X12359487Y-15822616D01*
X12359487Y-15822616D02*
X12349964Y-15832140D01*
X12349964Y-15832140D02*
X12330916Y-15841664D01*
X12330916Y-15841664D02*
X12311868Y-15841664D01*
X12311868Y-15841664D02*
X12292821Y-15832140D01*
X12292821Y-15832140D02*
X12283297Y-15822616D01*
X12283297Y-15822616D02*
X12273773Y-15803568D01*
X12273773Y-15803568D02*
X12264249Y-15765473D01*
X12264249Y-15765473D02*
X12264249Y-15717854D01*
X12264249Y-15717854D02*
X12273773Y-15679759D01*
X12273773Y-15679759D02*
X12283297Y-15660711D01*
X12283297Y-15660711D02*
X12292821Y-15651188D01*
X12292821Y-15651188D02*
X12311868Y-15641664D01*
X12502345Y-15641664D02*
X12521392Y-15641664D01*
X12521392Y-15641664D02*
X12540440Y-15651188D01*
X12540440Y-15651188D02*
X12549964Y-15660711D01*
X12549964Y-15660711D02*
X12559487Y-15679759D01*
X12559487Y-15679759D02*
X12569011Y-15717854D01*
X12569011Y-15717854D02*
X12569011Y-15765473D01*
X12569011Y-15765473D02*
X12559487Y-15803568D01*
X12559487Y-15803568D02*
X12549964Y-15822616D01*
X12549964Y-15822616D02*
X12540440Y-15832140D01*
X12540440Y-15832140D02*
X12521392Y-15841664D01*
X12521392Y-15841664D02*
X12502345Y-15841664D01*
X12502345Y-15841664D02*
X12483297Y-15832140D01*
X12483297Y-15832140D02*
X12473773Y-15822616D01*
X12473773Y-15822616D02*
X12464249Y-15803568D01*
X12464249Y-15803568D02*
X12454726Y-15765473D01*
X12454726Y-15765473D02*
X12454726Y-15717854D01*
X12454726Y-15717854D02*
X12464249Y-15679759D01*
X12464249Y-15679759D02*
X12473773Y-15660711D01*
X12473773Y-15660711D02*
X12483297Y-15651188D01*
X12483297Y-15651188D02*
X12502345Y-15641664D01*
X12664249Y-15841664D02*
X12702345Y-15841664D01*
X12702345Y-15841664D02*
X12721392Y-15832140D01*
X12721392Y-15832140D02*
X12730916Y-15822616D01*
X12730916Y-15822616D02*
X12749964Y-15794045D01*
X12749964Y-15794045D02*
X12759487Y-15755949D01*
X12759487Y-15755949D02*
X12759487Y-15679759D01*
X12759487Y-15679759D02*
X12749964Y-15660711D01*
X12749964Y-15660711D02*
X12740440Y-15651188D01*
X12740440Y-15651188D02*
X12721392Y-15641664D01*
X12721392Y-15641664D02*
X12683297Y-15641664D01*
X12683297Y-15641664D02*
X12664249Y-15651188D01*
X12664249Y-15651188D02*
X12654726Y-15660711D01*
X12654726Y-15660711D02*
X12645202Y-15679759D01*
X12645202Y-15679759D02*
X12645202Y-15727378D01*
X12645202Y-15727378D02*
X12654726Y-15746426D01*
X12654726Y-15746426D02*
X12664249Y-15755949D01*
X12664249Y-15755949D02*
X12683297Y-15765473D01*
X12683297Y-15765473D02*
X12721392Y-15765473D01*
X12721392Y-15765473D02*
X12740440Y-15755949D01*
X12740440Y-15755949D02*
X12749964Y-15746426D01*
X12749964Y-15746426D02*
X12759487Y-15727378D01*
X12873773Y-15727378D02*
X12854726Y-15717854D01*
X12854726Y-15717854D02*
X12845202Y-15708330D01*
X12845202Y-15708330D02*
X12835678Y-15689283D01*
X12835678Y-15689283D02*
X12835678Y-15679759D01*
X12835678Y-15679759D02*
X12845202Y-15660711D01*
X12845202Y-15660711D02*
X12854726Y-15651188D01*
X12854726Y-15651188D02*
X12873773Y-15641664D01*
X12873773Y-15641664D02*
X12911868Y-15641664D01*
X12911868Y-15641664D02*
X12930916Y-15651188D01*
X12930916Y-15651188D02*
X12940440Y-15660711D01*
X12940440Y-15660711D02*
X12949964Y-15679759D01*
X12949964Y-15679759D02*
X12949964Y-15689283D01*
X12949964Y-15689283D02*
X12940440Y-15708330D01*
X12940440Y-15708330D02*
X12930916Y-15717854D01*
X12930916Y-15717854D02*
X12911868Y-15727378D01*
X12911868Y-15727378D02*
X12873773Y-15727378D01*
X12873773Y-15727378D02*
X12854726Y-15736902D01*
X12854726Y-15736902D02*
X12845202Y-15746426D01*
X12845202Y-15746426D02*
X12835678Y-15765473D01*
X12835678Y-15765473D02*
X12835678Y-15803568D01*
X12835678Y-15803568D02*
X12845202Y-15822616D01*
X12845202Y-15822616D02*
X12854726Y-15832140D01*
X12854726Y-15832140D02*
X12873773Y-15841664D01*
X12873773Y-15841664D02*
X12911868Y-15841664D01*
X12911868Y-15841664D02*
X12930916Y-15832140D01*
X12930916Y-15832140D02*
X12940440Y-15822616D01*
X12940440Y-15822616D02*
X12949964Y-15803568D01*
X12949964Y-15803568D02*
X12949964Y-15765473D01*
X12949964Y-15765473D02*
X12940440Y-15746426D01*
X12940440Y-15746426D02*
X12930916Y-15736902D01*
X12930916Y-15736902D02*
X12911868Y-15727378D01*
X13026154Y-15641664D02*
X13026154Y-15679759D01*
X13102345Y-15641664D02*
X13102345Y-15679759D01*
X13397583Y-15917854D02*
X13388059Y-15908330D01*
X13388059Y-15908330D02*
X13369011Y-15879759D01*
X13369011Y-15879759D02*
X13359488Y-15860711D01*
X13359488Y-15860711D02*
X13349964Y-15832140D01*
X13349964Y-15832140D02*
X13340440Y-15784521D01*
X13340440Y-15784521D02*
X13340440Y-15746426D01*
X13340440Y-15746426D02*
X13349964Y-15698807D01*
X13349964Y-15698807D02*
X13359488Y-15670235D01*
X13359488Y-15670235D02*
X13369011Y-15651188D01*
X13369011Y-15651188D02*
X13388059Y-15622616D01*
X13388059Y-15622616D02*
X13397583Y-15613092D01*
X13483297Y-15841664D02*
X13521392Y-15841664D01*
X13521392Y-15841664D02*
X13540440Y-15832140D01*
X13540440Y-15832140D02*
X13549964Y-15822616D01*
X13549964Y-15822616D02*
X13569011Y-15794045D01*
X13569011Y-15794045D02*
X13578535Y-15755949D01*
X13578535Y-15755949D02*
X13578535Y-15679759D01*
X13578535Y-15679759D02*
X13569011Y-15660711D01*
X13569011Y-15660711D02*
X13559488Y-15651188D01*
X13559488Y-15651188D02*
X13540440Y-15641664D01*
X13540440Y-15641664D02*
X13502345Y-15641664D01*
X13502345Y-15641664D02*
X13483297Y-15651188D01*
X13483297Y-15651188D02*
X13473773Y-15660711D01*
X13473773Y-15660711D02*
X13464249Y-15679759D01*
X13464249Y-15679759D02*
X13464249Y-15727378D01*
X13464249Y-15727378D02*
X13473773Y-15746426D01*
X13473773Y-15746426D02*
X13483297Y-15755949D01*
X13483297Y-15755949D02*
X13502345Y-15765473D01*
X13502345Y-15765473D02*
X13540440Y-15765473D01*
X13540440Y-15765473D02*
X13559488Y-15755949D01*
X13559488Y-15755949D02*
X13569011Y-15746426D01*
X13569011Y-15746426D02*
X13578535Y-15727378D01*
X13816630Y-15841664D02*
X13816630Y-15641664D01*
X13902345Y-15841664D02*
X13902345Y-15736902D01*
X13902345Y-15736902D02*
X13892821Y-15717854D01*
X13892821Y-15717854D02*
X13873773Y-15708330D01*
X13873773Y-15708330D02*
X13845202Y-15708330D01*
X13845202Y-15708330D02*
X13826154Y-15717854D01*
X13826154Y-15717854D02*
X13816630Y-15727378D01*
X14026154Y-15841664D02*
X14007107Y-15832140D01*
X14007107Y-15832140D02*
X13997583Y-15822616D01*
X13997583Y-15822616D02*
X13988059Y-15803568D01*
X13988059Y-15803568D02*
X13988059Y-15746426D01*
X13988059Y-15746426D02*
X13997583Y-15727378D01*
X13997583Y-15727378D02*
X14007107Y-15717854D01*
X14007107Y-15717854D02*
X14026154Y-15708330D01*
X14026154Y-15708330D02*
X14054726Y-15708330D01*
X14054726Y-15708330D02*
X14073773Y-15717854D01*
X14073773Y-15717854D02*
X14083297Y-15727378D01*
X14083297Y-15727378D02*
X14092821Y-15746426D01*
X14092821Y-15746426D02*
X14092821Y-15803568D01*
X14092821Y-15803568D02*
X14083297Y-15822616D01*
X14083297Y-15822616D02*
X14073773Y-15832140D01*
X14073773Y-15832140D02*
X14054726Y-15841664D01*
X14054726Y-15841664D02*
X14026154Y-15841664D01*
X14207107Y-15841664D02*
X14188059Y-15832140D01*
X14188059Y-15832140D02*
X14178535Y-15813092D01*
X14178535Y-15813092D02*
X14178535Y-15641664D01*
X14359488Y-15832140D02*
X14340440Y-15841664D01*
X14340440Y-15841664D02*
X14302345Y-15841664D01*
X14302345Y-15841664D02*
X14283297Y-15832140D01*
X14283297Y-15832140D02*
X14273773Y-15813092D01*
X14273773Y-15813092D02*
X14273773Y-15736902D01*
X14273773Y-15736902D02*
X14283297Y-15717854D01*
X14283297Y-15717854D02*
X14302345Y-15708330D01*
X14302345Y-15708330D02*
X14340440Y-15708330D01*
X14340440Y-15708330D02*
X14359488Y-15717854D01*
X14359488Y-15717854D02*
X14369011Y-15736902D01*
X14369011Y-15736902D02*
X14369011Y-15755949D01*
X14369011Y-15755949D02*
X14273773Y-15774997D01*
X14445202Y-15832140D02*
X14464250Y-15841664D01*
X14464250Y-15841664D02*
X14502345Y-15841664D01*
X14502345Y-15841664D02*
X14521392Y-15832140D01*
X14521392Y-15832140D02*
X14530916Y-15813092D01*
X14530916Y-15813092D02*
X14530916Y-15803568D01*
X14530916Y-15803568D02*
X14521392Y-15784521D01*
X14521392Y-15784521D02*
X14502345Y-15774997D01*
X14502345Y-15774997D02*
X14473773Y-15774997D01*
X14473773Y-15774997D02*
X14454726Y-15765473D01*
X14454726Y-15765473D02*
X14445202Y-15746426D01*
X14445202Y-15746426D02*
X14445202Y-15736902D01*
X14445202Y-15736902D02*
X14454726Y-15717854D01*
X14454726Y-15717854D02*
X14473773Y-15708330D01*
X14473773Y-15708330D02*
X14502345Y-15708330D01*
X14502345Y-15708330D02*
X14521392Y-15717854D01*
X14597583Y-15917854D02*
X14607107Y-15908330D01*
X14607107Y-15908330D02*
X14626154Y-15879759D01*
X14626154Y-15879759D02*
X14635678Y-15860711D01*
X14635678Y-15860711D02*
X14645202Y-15832140D01*
X14645202Y-15832140D02*
X14654726Y-15784521D01*
X14654726Y-15784521D02*
X14654726Y-15746426D01*
X14654726Y-15746426D02*
X14645202Y-15698807D01*
X14645202Y-15698807D02*
X14635678Y-15670235D01*
X14635678Y-15670235D02*
X14626154Y-15651188D01*
X14626154Y-15651188D02*
X14607107Y-15622616D01*
X14607107Y-15622616D02*
X14597583Y-15613092D01*
D12*
X9803470Y-15995130D02*
X9803470Y-16033230D01*
X9784420Y-16014180D02*
X9822520Y-16014180D01*
D11*
X10121392Y-15905664D02*
X10140440Y-15905664D01*
X10140440Y-15905664D02*
X10159487Y-15915188D01*
X10159487Y-15915188D02*
X10169011Y-15924711D01*
X10169011Y-15924711D02*
X10178535Y-15943759D01*
X10178535Y-15943759D02*
X10188059Y-15981854D01*
X10188059Y-15981854D02*
X10188059Y-16029473D01*
X10188059Y-16029473D02*
X10178535Y-16067568D01*
X10178535Y-16067568D02*
X10169011Y-16086616D01*
X10169011Y-16086616D02*
X10159487Y-16096140D01*
X10159487Y-16096140D02*
X10140440Y-16105664D01*
X10140440Y-16105664D02*
X10121392Y-16105664D01*
X10121392Y-16105664D02*
X10102344Y-16096140D01*
X10102344Y-16096140D02*
X10092821Y-16086616D01*
X10092821Y-16086616D02*
X10083297Y-16067568D01*
X10083297Y-16067568D02*
X10073773Y-16029473D01*
X10073773Y-16029473D02*
X10073773Y-15981854D01*
X10073773Y-15981854D02*
X10083297Y-15943759D01*
X10083297Y-15943759D02*
X10092821Y-15924711D01*
X10092821Y-15924711D02*
X10102344Y-15915188D01*
X10102344Y-15915188D02*
X10121392Y-15905664D01*
X10273773Y-16086616D02*
X10283297Y-16096140D01*
X10283297Y-16096140D02*
X10273773Y-16105664D01*
X10273773Y-16105664D02*
X10264249Y-16096140D01*
X10264249Y-16096140D02*
X10273773Y-16086616D01*
X10273773Y-16086616D02*
X10273773Y-16105664D01*
X10349964Y-15905664D02*
X10473773Y-15905664D01*
X10473773Y-15905664D02*
X10407106Y-15981854D01*
X10407106Y-15981854D02*
X10435678Y-15981854D01*
X10435678Y-15981854D02*
X10454725Y-15991378D01*
X10454725Y-15991378D02*
X10464249Y-16000902D01*
X10464249Y-16000902D02*
X10473773Y-16019949D01*
X10473773Y-16019949D02*
X10473773Y-16067568D01*
X10473773Y-16067568D02*
X10464249Y-16086616D01*
X10464249Y-16086616D02*
X10454725Y-16096140D01*
X10454725Y-16096140D02*
X10435678Y-16105664D01*
X10435678Y-16105664D02*
X10378535Y-16105664D01*
X10378535Y-16105664D02*
X10359487Y-16096140D01*
X10359487Y-16096140D02*
X10349964Y-16086616D01*
X10588059Y-15991378D02*
X10569011Y-15981854D01*
X10569011Y-15981854D02*
X10559487Y-15972330D01*
X10559487Y-15972330D02*
X10549964Y-15953283D01*
X10549964Y-15953283D02*
X10549964Y-15943759D01*
X10549964Y-15943759D02*
X10559487Y-15924711D01*
X10559487Y-15924711D02*
X10569011Y-15915188D01*
X10569011Y-15915188D02*
X10588059Y-15905664D01*
X10588059Y-15905664D02*
X10626154Y-15905664D01*
X10626154Y-15905664D02*
X10645202Y-15915188D01*
X10645202Y-15915188D02*
X10654725Y-15924711D01*
X10654725Y-15924711D02*
X10664249Y-15943759D01*
X10664249Y-15943759D02*
X10664249Y-15953283D01*
X10664249Y-15953283D02*
X10654725Y-15972330D01*
X10654725Y-15972330D02*
X10645202Y-15981854D01*
X10645202Y-15981854D02*
X10626154Y-15991378D01*
X10626154Y-15991378D02*
X10588059Y-15991378D01*
X10588059Y-15991378D02*
X10569011Y-16000902D01*
X10569011Y-16000902D02*
X10559487Y-16010426D01*
X10559487Y-16010426D02*
X10549964Y-16029473D01*
X10549964Y-16029473D02*
X10549964Y-16067568D01*
X10549964Y-16067568D02*
X10559487Y-16086616D01*
X10559487Y-16086616D02*
X10569011Y-16096140D01*
X10569011Y-16096140D02*
X10588059Y-16105664D01*
X10588059Y-16105664D02*
X10626154Y-16105664D01*
X10626154Y-16105664D02*
X10645202Y-16096140D01*
X10645202Y-16096140D02*
X10654725Y-16086616D01*
X10654725Y-16086616D02*
X10664249Y-16067568D01*
X10664249Y-16067568D02*
X10664249Y-16029473D01*
X10664249Y-16029473D02*
X10654725Y-16010426D01*
X10654725Y-16010426D02*
X10645202Y-16000902D01*
X10645202Y-16000902D02*
X10626154Y-15991378D01*
X10854725Y-16105664D02*
X10740440Y-16105664D01*
X10797583Y-16105664D02*
X10797583Y-15905664D01*
X10797583Y-15905664D02*
X10778535Y-15934235D01*
X10778535Y-15934235D02*
X10759487Y-15953283D01*
X10759487Y-15953283D02*
X10740440Y-15962807D01*
X10940440Y-16105664D02*
X10940440Y-15972330D01*
X10940440Y-15991378D02*
X10949964Y-15981854D01*
X10949964Y-15981854D02*
X10969011Y-15972330D01*
X10969011Y-15972330D02*
X10997583Y-15972330D01*
X10997583Y-15972330D02*
X11016630Y-15981854D01*
X11016630Y-15981854D02*
X11026154Y-16000902D01*
X11026154Y-16000902D02*
X11026154Y-16105664D01*
X11026154Y-16000902D02*
X11035678Y-15981854D01*
X11035678Y-15981854D02*
X11054725Y-15972330D01*
X11054725Y-15972330D02*
X11083297Y-15972330D01*
X11083297Y-15972330D02*
X11102345Y-15981854D01*
X11102345Y-15981854D02*
X11111868Y-16000902D01*
X11111868Y-16000902D02*
X11111868Y-16105664D01*
X11207106Y-16105664D02*
X11207106Y-15972330D01*
X11207106Y-15991378D02*
X11216630Y-15981854D01*
X11216630Y-15981854D02*
X11235678Y-15972330D01*
X11235678Y-15972330D02*
X11264249Y-15972330D01*
X11264249Y-15972330D02*
X11283297Y-15981854D01*
X11283297Y-15981854D02*
X11292821Y-16000902D01*
X11292821Y-16000902D02*
X11292821Y-16105664D01*
X11292821Y-16000902D02*
X11302344Y-15981854D01*
X11302344Y-15981854D02*
X11321392Y-15972330D01*
X11321392Y-15972330D02*
X11349963Y-15972330D01*
X11349963Y-15972330D02*
X11369011Y-15981854D01*
X11369011Y-15981854D02*
X11378535Y-16000902D01*
X11378535Y-16000902D02*
X11378535Y-16105664D01*
X11769011Y-15896140D02*
X11597583Y-16153283D01*
X12026154Y-15905664D02*
X12045202Y-15905664D01*
X12045202Y-15905664D02*
X12064249Y-15915188D01*
X12064249Y-15915188D02*
X12073773Y-15924711D01*
X12073773Y-15924711D02*
X12083297Y-15943759D01*
X12083297Y-15943759D02*
X12092821Y-15981854D01*
X12092821Y-15981854D02*
X12092821Y-16029473D01*
X12092821Y-16029473D02*
X12083297Y-16067568D01*
X12083297Y-16067568D02*
X12073773Y-16086616D01*
X12073773Y-16086616D02*
X12064249Y-16096140D01*
X12064249Y-16096140D02*
X12045202Y-16105664D01*
X12045202Y-16105664D02*
X12026154Y-16105664D01*
X12026154Y-16105664D02*
X12007106Y-16096140D01*
X12007106Y-16096140D02*
X11997583Y-16086616D01*
X11997583Y-16086616D02*
X11988059Y-16067568D01*
X11988059Y-16067568D02*
X11978535Y-16029473D01*
X11978535Y-16029473D02*
X11978535Y-15981854D01*
X11978535Y-15981854D02*
X11988059Y-15943759D01*
X11988059Y-15943759D02*
X11997583Y-15924711D01*
X11997583Y-15924711D02*
X12007106Y-15915188D01*
X12007106Y-15915188D02*
X12026154Y-15905664D01*
X12178535Y-16086616D02*
X12188059Y-16096140D01*
X12188059Y-16096140D02*
X12178535Y-16105664D01*
X12178535Y-16105664D02*
X12169011Y-16096140D01*
X12169011Y-16096140D02*
X12178535Y-16086616D01*
X12178535Y-16086616D02*
X12178535Y-16105664D01*
X12311868Y-15905664D02*
X12330916Y-15905664D01*
X12330916Y-15905664D02*
X12349964Y-15915188D01*
X12349964Y-15915188D02*
X12359487Y-15924711D01*
X12359487Y-15924711D02*
X12369011Y-15943759D01*
X12369011Y-15943759D02*
X12378535Y-15981854D01*
X12378535Y-15981854D02*
X12378535Y-16029473D01*
X12378535Y-16029473D02*
X12369011Y-16067568D01*
X12369011Y-16067568D02*
X12359487Y-16086616D01*
X12359487Y-16086616D02*
X12349964Y-16096140D01*
X12349964Y-16096140D02*
X12330916Y-16105664D01*
X12330916Y-16105664D02*
X12311868Y-16105664D01*
X12311868Y-16105664D02*
X12292821Y-16096140D01*
X12292821Y-16096140D02*
X12283297Y-16086616D01*
X12283297Y-16086616D02*
X12273773Y-16067568D01*
X12273773Y-16067568D02*
X12264249Y-16029473D01*
X12264249Y-16029473D02*
X12264249Y-15981854D01*
X12264249Y-15981854D02*
X12273773Y-15943759D01*
X12273773Y-15943759D02*
X12283297Y-15924711D01*
X12283297Y-15924711D02*
X12292821Y-15915188D01*
X12292821Y-15915188D02*
X12311868Y-15905664D01*
X12569011Y-16105664D02*
X12454726Y-16105664D01*
X12511868Y-16105664D02*
X12511868Y-15905664D01*
X12511868Y-15905664D02*
X12492821Y-15934235D01*
X12492821Y-15934235D02*
X12473773Y-15953283D01*
X12473773Y-15953283D02*
X12454726Y-15962807D01*
X12749964Y-15905664D02*
X12654726Y-15905664D01*
X12654726Y-15905664D02*
X12645202Y-16000902D01*
X12645202Y-16000902D02*
X12654726Y-15991378D01*
X12654726Y-15991378D02*
X12673773Y-15981854D01*
X12673773Y-15981854D02*
X12721392Y-15981854D01*
X12721392Y-15981854D02*
X12740440Y-15991378D01*
X12740440Y-15991378D02*
X12749964Y-16000902D01*
X12749964Y-16000902D02*
X12759487Y-16019949D01*
X12759487Y-16019949D02*
X12759487Y-16067568D01*
X12759487Y-16067568D02*
X12749964Y-16086616D01*
X12749964Y-16086616D02*
X12740440Y-16096140D01*
X12740440Y-16096140D02*
X12721392Y-16105664D01*
X12721392Y-16105664D02*
X12673773Y-16105664D01*
X12673773Y-16105664D02*
X12654726Y-16096140D01*
X12654726Y-16096140D02*
X12645202Y-16086616D01*
X12883297Y-15905664D02*
X12902345Y-15905664D01*
X12902345Y-15905664D02*
X12921392Y-15915188D01*
X12921392Y-15915188D02*
X12930916Y-15924711D01*
X12930916Y-15924711D02*
X12940440Y-15943759D01*
X12940440Y-15943759D02*
X12949964Y-15981854D01*
X12949964Y-15981854D02*
X12949964Y-16029473D01*
X12949964Y-16029473D02*
X12940440Y-16067568D01*
X12940440Y-16067568D02*
X12930916Y-16086616D01*
X12930916Y-16086616D02*
X12921392Y-16096140D01*
X12921392Y-16096140D02*
X12902345Y-16105664D01*
X12902345Y-16105664D02*
X12883297Y-16105664D01*
X12883297Y-16105664D02*
X12864249Y-16096140D01*
X12864249Y-16096140D02*
X12854726Y-16086616D01*
X12854726Y-16086616D02*
X12845202Y-16067568D01*
X12845202Y-16067568D02*
X12835678Y-16029473D01*
X12835678Y-16029473D02*
X12835678Y-15981854D01*
X12835678Y-15981854D02*
X12845202Y-15943759D01*
X12845202Y-15943759D02*
X12854726Y-15924711D01*
X12854726Y-15924711D02*
X12864249Y-15915188D01*
X12864249Y-15915188D02*
X12883297Y-15905664D01*
X13026154Y-15905664D02*
X13026154Y-15943759D01*
X13102345Y-15905664D02*
X13102345Y-15943759D01*
X13397583Y-16181854D02*
X13388059Y-16172330D01*
X13388059Y-16172330D02*
X13369011Y-16143759D01*
X13369011Y-16143759D02*
X13359488Y-16124711D01*
X13359488Y-16124711D02*
X13349964Y-16096140D01*
X13349964Y-16096140D02*
X13340440Y-16048521D01*
X13340440Y-16048521D02*
X13340440Y-16010426D01*
X13340440Y-16010426D02*
X13349964Y-15962807D01*
X13349964Y-15962807D02*
X13359488Y-15934235D01*
X13359488Y-15934235D02*
X13369011Y-15915188D01*
X13369011Y-15915188D02*
X13388059Y-15886616D01*
X13388059Y-15886616D02*
X13397583Y-15877092D01*
X13454726Y-15905664D02*
X13578535Y-15905664D01*
X13578535Y-15905664D02*
X13511868Y-15981854D01*
X13511868Y-15981854D02*
X13540440Y-15981854D01*
X13540440Y-15981854D02*
X13559488Y-15991378D01*
X13559488Y-15991378D02*
X13569011Y-16000902D01*
X13569011Y-16000902D02*
X13578535Y-16019949D01*
X13578535Y-16019949D02*
X13578535Y-16067568D01*
X13578535Y-16067568D02*
X13569011Y-16086616D01*
X13569011Y-16086616D02*
X13559488Y-16096140D01*
X13559488Y-16096140D02*
X13540440Y-16105664D01*
X13540440Y-16105664D02*
X13483297Y-16105664D01*
X13483297Y-16105664D02*
X13464249Y-16096140D01*
X13464249Y-16096140D02*
X13454726Y-16086616D01*
X13692821Y-15991378D02*
X13673773Y-15981854D01*
X13673773Y-15981854D02*
X13664249Y-15972330D01*
X13664249Y-15972330D02*
X13654726Y-15953283D01*
X13654726Y-15953283D02*
X13654726Y-15943759D01*
X13654726Y-15943759D02*
X13664249Y-15924711D01*
X13664249Y-15924711D02*
X13673773Y-15915188D01*
X13673773Y-15915188D02*
X13692821Y-15905664D01*
X13692821Y-15905664D02*
X13730916Y-15905664D01*
X13730916Y-15905664D02*
X13749964Y-15915188D01*
X13749964Y-15915188D02*
X13759488Y-15924711D01*
X13759488Y-15924711D02*
X13769011Y-15943759D01*
X13769011Y-15943759D02*
X13769011Y-15953283D01*
X13769011Y-15953283D02*
X13759488Y-15972330D01*
X13759488Y-15972330D02*
X13749964Y-15981854D01*
X13749964Y-15981854D02*
X13730916Y-15991378D01*
X13730916Y-15991378D02*
X13692821Y-15991378D01*
X13692821Y-15991378D02*
X13673773Y-16000902D01*
X13673773Y-16000902D02*
X13664249Y-16010426D01*
X13664249Y-16010426D02*
X13654726Y-16029473D01*
X13654726Y-16029473D02*
X13654726Y-16067568D01*
X13654726Y-16067568D02*
X13664249Y-16086616D01*
X13664249Y-16086616D02*
X13673773Y-16096140D01*
X13673773Y-16096140D02*
X13692821Y-16105664D01*
X13692821Y-16105664D02*
X13730916Y-16105664D01*
X13730916Y-16105664D02*
X13749964Y-16096140D01*
X13749964Y-16096140D02*
X13759488Y-16086616D01*
X13759488Y-16086616D02*
X13769011Y-16067568D01*
X13769011Y-16067568D02*
X13769011Y-16029473D01*
X13769011Y-16029473D02*
X13759488Y-16010426D01*
X13759488Y-16010426D02*
X13749964Y-16000902D01*
X13749964Y-16000902D02*
X13730916Y-15991378D01*
X13959488Y-16105664D02*
X13845202Y-16105664D01*
X13902345Y-16105664D02*
X13902345Y-15905664D01*
X13902345Y-15905664D02*
X13883297Y-15934235D01*
X13883297Y-15934235D02*
X13864249Y-15953283D01*
X13864249Y-15953283D02*
X13845202Y-15962807D01*
X14197583Y-16105664D02*
X14197583Y-15905664D01*
X14283297Y-16105664D02*
X14283297Y-16000902D01*
X14283297Y-16000902D02*
X14273773Y-15981854D01*
X14273773Y-15981854D02*
X14254726Y-15972330D01*
X14254726Y-15972330D02*
X14226154Y-15972330D01*
X14226154Y-15972330D02*
X14207107Y-15981854D01*
X14207107Y-15981854D02*
X14197583Y-15991378D01*
X14407107Y-16105664D02*
X14388059Y-16096140D01*
X14388059Y-16096140D02*
X14378535Y-16086616D01*
X14378535Y-16086616D02*
X14369011Y-16067568D01*
X14369011Y-16067568D02*
X14369011Y-16010426D01*
X14369011Y-16010426D02*
X14378535Y-15991378D01*
X14378535Y-15991378D02*
X14388059Y-15981854D01*
X14388059Y-15981854D02*
X14407107Y-15972330D01*
X14407107Y-15972330D02*
X14435678Y-15972330D01*
X14435678Y-15972330D02*
X14454726Y-15981854D01*
X14454726Y-15981854D02*
X14464250Y-15991378D01*
X14464250Y-15991378D02*
X14473773Y-16010426D01*
X14473773Y-16010426D02*
X14473773Y-16067568D01*
X14473773Y-16067568D02*
X14464250Y-16086616D01*
X14464250Y-16086616D02*
X14454726Y-16096140D01*
X14454726Y-16096140D02*
X14435678Y-16105664D01*
X14435678Y-16105664D02*
X14407107Y-16105664D01*
X14588059Y-16105664D02*
X14569011Y-16096140D01*
X14569011Y-16096140D02*
X14559488Y-16077092D01*
X14559488Y-16077092D02*
X14559488Y-15905664D01*
X14740440Y-16096140D02*
X14721392Y-16105664D01*
X14721392Y-16105664D02*
X14683297Y-16105664D01*
X14683297Y-16105664D02*
X14664250Y-16096140D01*
X14664250Y-16096140D02*
X14654726Y-16077092D01*
X14654726Y-16077092D02*
X14654726Y-16000902D01*
X14654726Y-16000902D02*
X14664250Y-15981854D01*
X14664250Y-15981854D02*
X14683297Y-15972330D01*
X14683297Y-15972330D02*
X14721392Y-15972330D01*
X14721392Y-15972330D02*
X14740440Y-15981854D01*
X14740440Y-15981854D02*
X14749964Y-16000902D01*
X14749964Y-16000902D02*
X14749964Y-16019949D01*
X14749964Y-16019949D02*
X14654726Y-16038997D01*
X14826154Y-16096140D02*
X14845202Y-16105664D01*
X14845202Y-16105664D02*
X14883297Y-16105664D01*
X14883297Y-16105664D02*
X14902345Y-16096140D01*
X14902345Y-16096140D02*
X14911869Y-16077092D01*
X14911869Y-16077092D02*
X14911869Y-16067568D01*
X14911869Y-16067568D02*
X14902345Y-16048521D01*
X14902345Y-16048521D02*
X14883297Y-16038997D01*
X14883297Y-16038997D02*
X14854726Y-16038997D01*
X14854726Y-16038997D02*
X14835678Y-16029473D01*
X14835678Y-16029473D02*
X14826154Y-16010426D01*
X14826154Y-16010426D02*
X14826154Y-16000902D01*
X14826154Y-16000902D02*
X14835678Y-15981854D01*
X14835678Y-15981854D02*
X14854726Y-15972330D01*
X14854726Y-15972330D02*
X14883297Y-15972330D01*
X14883297Y-15972330D02*
X14902345Y-15981854D01*
X14978535Y-16181854D02*
X14988059Y-16172330D01*
X14988059Y-16172330D02*
X15007107Y-16143759D01*
X15007107Y-16143759D02*
X15016631Y-16124711D01*
X15016631Y-16124711D02*
X15026154Y-16096140D01*
X15026154Y-16096140D02*
X15035678Y-16048521D01*
X15035678Y-16048521D02*
X15035678Y-16010426D01*
X15035678Y-16010426D02*
X15026154Y-15962807D01*
X15026154Y-15962807D02*
X15016631Y-15934235D01*
X15016631Y-15934235D02*
X15007107Y-15915188D01*
X15007107Y-15915188D02*
X14988059Y-15886616D01*
X14988059Y-15886616D02*
X14978535Y-15877092D01*
D12*
X9816662Y-16292322D02*
X9816662Y-16264038D01*
X9788378Y-16264038D01*
X9788378Y-16292322D01*
X9816662Y-16292322D01*
D11*
X10121392Y-16169664D02*
X10140440Y-16169664D01*
X10140440Y-16169664D02*
X10159487Y-16179188D01*
X10159487Y-16179188D02*
X10169011Y-16188711D01*
X10169011Y-16188711D02*
X10178535Y-16207759D01*
X10178535Y-16207759D02*
X10188059Y-16245854D01*
X10188059Y-16245854D02*
X10188059Y-16293473D01*
X10188059Y-16293473D02*
X10178535Y-16331568D01*
X10178535Y-16331568D02*
X10169011Y-16350616D01*
X10169011Y-16350616D02*
X10159487Y-16360140D01*
X10159487Y-16360140D02*
X10140440Y-16369664D01*
X10140440Y-16369664D02*
X10121392Y-16369664D01*
X10121392Y-16369664D02*
X10102344Y-16360140D01*
X10102344Y-16360140D02*
X10092821Y-16350616D01*
X10092821Y-16350616D02*
X10083297Y-16331568D01*
X10083297Y-16331568D02*
X10073773Y-16293473D01*
X10073773Y-16293473D02*
X10073773Y-16245854D01*
X10073773Y-16245854D02*
X10083297Y-16207759D01*
X10083297Y-16207759D02*
X10092821Y-16188711D01*
X10092821Y-16188711D02*
X10102344Y-16179188D01*
X10102344Y-16179188D02*
X10121392Y-16169664D01*
X10273773Y-16350616D02*
X10283297Y-16360140D01*
X10283297Y-16360140D02*
X10273773Y-16369664D01*
X10273773Y-16369664D02*
X10264249Y-16360140D01*
X10264249Y-16360140D02*
X10273773Y-16350616D01*
X10273773Y-16350616D02*
X10273773Y-16369664D01*
X10454725Y-16236330D02*
X10454725Y-16369664D01*
X10407106Y-16160140D02*
X10359487Y-16302997D01*
X10359487Y-16302997D02*
X10483297Y-16302997D01*
X10597583Y-16169664D02*
X10616630Y-16169664D01*
X10616630Y-16169664D02*
X10635678Y-16179188D01*
X10635678Y-16179188D02*
X10645202Y-16188711D01*
X10645202Y-16188711D02*
X10654725Y-16207759D01*
X10654725Y-16207759D02*
X10664249Y-16245854D01*
X10664249Y-16245854D02*
X10664249Y-16293473D01*
X10664249Y-16293473D02*
X10654725Y-16331568D01*
X10654725Y-16331568D02*
X10645202Y-16350616D01*
X10645202Y-16350616D02*
X10635678Y-16360140D01*
X10635678Y-16360140D02*
X10616630Y-16369664D01*
X10616630Y-16369664D02*
X10597583Y-16369664D01*
X10597583Y-16369664D02*
X10578535Y-16360140D01*
X10578535Y-16360140D02*
X10569011Y-16350616D01*
X10569011Y-16350616D02*
X10559487Y-16331568D01*
X10559487Y-16331568D02*
X10549964Y-16293473D01*
X10549964Y-16293473D02*
X10549964Y-16245854D01*
X10549964Y-16245854D02*
X10559487Y-16207759D01*
X10559487Y-16207759D02*
X10569011Y-16188711D01*
X10569011Y-16188711D02*
X10578535Y-16179188D01*
X10578535Y-16179188D02*
X10597583Y-16169664D01*
X10788059Y-16169664D02*
X10807106Y-16169664D01*
X10807106Y-16169664D02*
X10826154Y-16179188D01*
X10826154Y-16179188D02*
X10835678Y-16188711D01*
X10835678Y-16188711D02*
X10845202Y-16207759D01*
X10845202Y-16207759D02*
X10854725Y-16245854D01*
X10854725Y-16245854D02*
X10854725Y-16293473D01*
X10854725Y-16293473D02*
X10845202Y-16331568D01*
X10845202Y-16331568D02*
X10835678Y-16350616D01*
X10835678Y-16350616D02*
X10826154Y-16360140D01*
X10826154Y-16360140D02*
X10807106Y-16369664D01*
X10807106Y-16369664D02*
X10788059Y-16369664D01*
X10788059Y-16369664D02*
X10769011Y-16360140D01*
X10769011Y-16360140D02*
X10759487Y-16350616D01*
X10759487Y-16350616D02*
X10749964Y-16331568D01*
X10749964Y-16331568D02*
X10740440Y-16293473D01*
X10740440Y-16293473D02*
X10740440Y-16245854D01*
X10740440Y-16245854D02*
X10749964Y-16207759D01*
X10749964Y-16207759D02*
X10759487Y-16188711D01*
X10759487Y-16188711D02*
X10769011Y-16179188D01*
X10769011Y-16179188D02*
X10788059Y-16169664D01*
X10940440Y-16369664D02*
X10940440Y-16236330D01*
X10940440Y-16255378D02*
X10949964Y-16245854D01*
X10949964Y-16245854D02*
X10969011Y-16236330D01*
X10969011Y-16236330D02*
X10997583Y-16236330D01*
X10997583Y-16236330D02*
X11016630Y-16245854D01*
X11016630Y-16245854D02*
X11026154Y-16264902D01*
X11026154Y-16264902D02*
X11026154Y-16369664D01*
X11026154Y-16264902D02*
X11035678Y-16245854D01*
X11035678Y-16245854D02*
X11054725Y-16236330D01*
X11054725Y-16236330D02*
X11083297Y-16236330D01*
X11083297Y-16236330D02*
X11102345Y-16245854D01*
X11102345Y-16245854D02*
X11111868Y-16264902D01*
X11111868Y-16264902D02*
X11111868Y-16369664D01*
X11207106Y-16369664D02*
X11207106Y-16236330D01*
X11207106Y-16255378D02*
X11216630Y-16245854D01*
X11216630Y-16245854D02*
X11235678Y-16236330D01*
X11235678Y-16236330D02*
X11264249Y-16236330D01*
X11264249Y-16236330D02*
X11283297Y-16245854D01*
X11283297Y-16245854D02*
X11292821Y-16264902D01*
X11292821Y-16264902D02*
X11292821Y-16369664D01*
X11292821Y-16264902D02*
X11302344Y-16245854D01*
X11302344Y-16245854D02*
X11321392Y-16236330D01*
X11321392Y-16236330D02*
X11349963Y-16236330D01*
X11349963Y-16236330D02*
X11369011Y-16245854D01*
X11369011Y-16245854D02*
X11378535Y-16264902D01*
X11378535Y-16264902D02*
X11378535Y-16369664D01*
X11769011Y-16160140D02*
X11597583Y-16417283D01*
X12026154Y-16169664D02*
X12045202Y-16169664D01*
X12045202Y-16169664D02*
X12064249Y-16179188D01*
X12064249Y-16179188D02*
X12073773Y-16188711D01*
X12073773Y-16188711D02*
X12083297Y-16207759D01*
X12083297Y-16207759D02*
X12092821Y-16245854D01*
X12092821Y-16245854D02*
X12092821Y-16293473D01*
X12092821Y-16293473D02*
X12083297Y-16331568D01*
X12083297Y-16331568D02*
X12073773Y-16350616D01*
X12073773Y-16350616D02*
X12064249Y-16360140D01*
X12064249Y-16360140D02*
X12045202Y-16369664D01*
X12045202Y-16369664D02*
X12026154Y-16369664D01*
X12026154Y-16369664D02*
X12007106Y-16360140D01*
X12007106Y-16360140D02*
X11997583Y-16350616D01*
X11997583Y-16350616D02*
X11988059Y-16331568D01*
X11988059Y-16331568D02*
X11978535Y-16293473D01*
X11978535Y-16293473D02*
X11978535Y-16245854D01*
X11978535Y-16245854D02*
X11988059Y-16207759D01*
X11988059Y-16207759D02*
X11997583Y-16188711D01*
X11997583Y-16188711D02*
X12007106Y-16179188D01*
X12007106Y-16179188D02*
X12026154Y-16169664D01*
X12178535Y-16350616D02*
X12188059Y-16360140D01*
X12188059Y-16360140D02*
X12178535Y-16369664D01*
X12178535Y-16369664D02*
X12169011Y-16360140D01*
X12169011Y-16360140D02*
X12178535Y-16350616D01*
X12178535Y-16350616D02*
X12178535Y-16369664D01*
X12311868Y-16169664D02*
X12330916Y-16169664D01*
X12330916Y-16169664D02*
X12349964Y-16179188D01*
X12349964Y-16179188D02*
X12359487Y-16188711D01*
X12359487Y-16188711D02*
X12369011Y-16207759D01*
X12369011Y-16207759D02*
X12378535Y-16245854D01*
X12378535Y-16245854D02*
X12378535Y-16293473D01*
X12378535Y-16293473D02*
X12369011Y-16331568D01*
X12369011Y-16331568D02*
X12359487Y-16350616D01*
X12359487Y-16350616D02*
X12349964Y-16360140D01*
X12349964Y-16360140D02*
X12330916Y-16369664D01*
X12330916Y-16369664D02*
X12311868Y-16369664D01*
X12311868Y-16369664D02*
X12292821Y-16360140D01*
X12292821Y-16360140D02*
X12283297Y-16350616D01*
X12283297Y-16350616D02*
X12273773Y-16331568D01*
X12273773Y-16331568D02*
X12264249Y-16293473D01*
X12264249Y-16293473D02*
X12264249Y-16245854D01*
X12264249Y-16245854D02*
X12273773Y-16207759D01*
X12273773Y-16207759D02*
X12283297Y-16188711D01*
X12283297Y-16188711D02*
X12292821Y-16179188D01*
X12292821Y-16179188D02*
X12311868Y-16169664D01*
X12569011Y-16369664D02*
X12454726Y-16369664D01*
X12511868Y-16369664D02*
X12511868Y-16169664D01*
X12511868Y-16169664D02*
X12492821Y-16198235D01*
X12492821Y-16198235D02*
X12473773Y-16217283D01*
X12473773Y-16217283D02*
X12454726Y-16226807D01*
X12749964Y-16169664D02*
X12654726Y-16169664D01*
X12654726Y-16169664D02*
X12645202Y-16264902D01*
X12645202Y-16264902D02*
X12654726Y-16255378D01*
X12654726Y-16255378D02*
X12673773Y-16245854D01*
X12673773Y-16245854D02*
X12721392Y-16245854D01*
X12721392Y-16245854D02*
X12740440Y-16255378D01*
X12740440Y-16255378D02*
X12749964Y-16264902D01*
X12749964Y-16264902D02*
X12759487Y-16283949D01*
X12759487Y-16283949D02*
X12759487Y-16331568D01*
X12759487Y-16331568D02*
X12749964Y-16350616D01*
X12749964Y-16350616D02*
X12740440Y-16360140D01*
X12740440Y-16360140D02*
X12721392Y-16369664D01*
X12721392Y-16369664D02*
X12673773Y-16369664D01*
X12673773Y-16369664D02*
X12654726Y-16360140D01*
X12654726Y-16360140D02*
X12645202Y-16350616D01*
X12826154Y-16169664D02*
X12959487Y-16169664D01*
X12959487Y-16169664D02*
X12873773Y-16369664D01*
X13026154Y-16169664D02*
X13026154Y-16207759D01*
X13102345Y-16169664D02*
X13102345Y-16207759D01*
X13397583Y-16445854D02*
X13388059Y-16436330D01*
X13388059Y-16436330D02*
X13369011Y-16407759D01*
X13369011Y-16407759D02*
X13359488Y-16388711D01*
X13359488Y-16388711D02*
X13349964Y-16360140D01*
X13349964Y-16360140D02*
X13340440Y-16312521D01*
X13340440Y-16312521D02*
X13340440Y-16274426D01*
X13340440Y-16274426D02*
X13349964Y-16226807D01*
X13349964Y-16226807D02*
X13359488Y-16198235D01*
X13359488Y-16198235D02*
X13369011Y-16179188D01*
X13369011Y-16179188D02*
X13388059Y-16150616D01*
X13388059Y-16150616D02*
X13397583Y-16141092D01*
X13464249Y-16188711D02*
X13473773Y-16179188D01*
X13473773Y-16179188D02*
X13492821Y-16169664D01*
X13492821Y-16169664D02*
X13540440Y-16169664D01*
X13540440Y-16169664D02*
X13559488Y-16179188D01*
X13559488Y-16179188D02*
X13569011Y-16188711D01*
X13569011Y-16188711D02*
X13578535Y-16207759D01*
X13578535Y-16207759D02*
X13578535Y-16226807D01*
X13578535Y-16226807D02*
X13569011Y-16255378D01*
X13569011Y-16255378D02*
X13454726Y-16369664D01*
X13454726Y-16369664D02*
X13578535Y-16369664D01*
X13816630Y-16369664D02*
X13816630Y-16169664D01*
X13902345Y-16369664D02*
X13902345Y-16264902D01*
X13902345Y-16264902D02*
X13892821Y-16245854D01*
X13892821Y-16245854D02*
X13873773Y-16236330D01*
X13873773Y-16236330D02*
X13845202Y-16236330D01*
X13845202Y-16236330D02*
X13826154Y-16245854D01*
X13826154Y-16245854D02*
X13816630Y-16255378D01*
X14026154Y-16369664D02*
X14007107Y-16360140D01*
X14007107Y-16360140D02*
X13997583Y-16350616D01*
X13997583Y-16350616D02*
X13988059Y-16331568D01*
X13988059Y-16331568D02*
X13988059Y-16274426D01*
X13988059Y-16274426D02*
X13997583Y-16255378D01*
X13997583Y-16255378D02*
X14007107Y-16245854D01*
X14007107Y-16245854D02*
X14026154Y-16236330D01*
X14026154Y-16236330D02*
X14054726Y-16236330D01*
X14054726Y-16236330D02*
X14073773Y-16245854D01*
X14073773Y-16245854D02*
X14083297Y-16255378D01*
X14083297Y-16255378D02*
X14092821Y-16274426D01*
X14092821Y-16274426D02*
X14092821Y-16331568D01*
X14092821Y-16331568D02*
X14083297Y-16350616D01*
X14083297Y-16350616D02*
X14073773Y-16360140D01*
X14073773Y-16360140D02*
X14054726Y-16369664D01*
X14054726Y-16369664D02*
X14026154Y-16369664D01*
X14207107Y-16369664D02*
X14188059Y-16360140D01*
X14188059Y-16360140D02*
X14178535Y-16341092D01*
X14178535Y-16341092D02*
X14178535Y-16169664D01*
X14359488Y-16360140D02*
X14340440Y-16369664D01*
X14340440Y-16369664D02*
X14302345Y-16369664D01*
X14302345Y-16369664D02*
X14283297Y-16360140D01*
X14283297Y-16360140D02*
X14273773Y-16341092D01*
X14273773Y-16341092D02*
X14273773Y-16264902D01*
X14273773Y-16264902D02*
X14283297Y-16245854D01*
X14283297Y-16245854D02*
X14302345Y-16236330D01*
X14302345Y-16236330D02*
X14340440Y-16236330D01*
X14340440Y-16236330D02*
X14359488Y-16245854D01*
X14359488Y-16245854D02*
X14369011Y-16264902D01*
X14369011Y-16264902D02*
X14369011Y-16283949D01*
X14369011Y-16283949D02*
X14273773Y-16302997D01*
X14445202Y-16360140D02*
X14464250Y-16369664D01*
X14464250Y-16369664D02*
X14502345Y-16369664D01*
X14502345Y-16369664D02*
X14521392Y-16360140D01*
X14521392Y-16360140D02*
X14530916Y-16341092D01*
X14530916Y-16341092D02*
X14530916Y-16331568D01*
X14530916Y-16331568D02*
X14521392Y-16312521D01*
X14521392Y-16312521D02*
X14502345Y-16302997D01*
X14502345Y-16302997D02*
X14473773Y-16302997D01*
X14473773Y-16302997D02*
X14454726Y-16293473D01*
X14454726Y-16293473D02*
X14445202Y-16274426D01*
X14445202Y-16274426D02*
X14445202Y-16264902D01*
X14445202Y-16264902D02*
X14454726Y-16245854D01*
X14454726Y-16245854D02*
X14473773Y-16236330D01*
X14473773Y-16236330D02*
X14502345Y-16236330D01*
X14502345Y-16236330D02*
X14521392Y-16245854D01*
X14597583Y-16445854D02*
X14607107Y-16436330D01*
X14607107Y-16436330D02*
X14626154Y-16407759D01*
X14626154Y-16407759D02*
X14635678Y-16388711D01*
X14635678Y-16388711D02*
X14645202Y-16360140D01*
X14645202Y-16360140D02*
X14654726Y-16312521D01*
X14654726Y-16312521D02*
X14654726Y-16274426D01*
X14654726Y-16274426D02*
X14645202Y-16226807D01*
X14645202Y-16226807D02*
X14635678Y-16198235D01*
X14635678Y-16198235D02*
X14626154Y-16179188D01*
X14626154Y-16179188D02*
X14607107Y-16150616D01*
X14607107Y-16150616D02*
X14597583Y-16141092D01*
D12*
X9792520Y-16572180D02*
X9822520Y-16542180D01*
X9792520Y-16512180D01*
X9762520Y-16542180D01*
X9792520Y-16572180D01*
D11*
X10121392Y-16433664D02*
X10140440Y-16433664D01*
X10140440Y-16433664D02*
X10159487Y-16443188D01*
X10159487Y-16443188D02*
X10169011Y-16452711D01*
X10169011Y-16452711D02*
X10178535Y-16471759D01*
X10178535Y-16471759D02*
X10188059Y-16509854D01*
X10188059Y-16509854D02*
X10188059Y-16557473D01*
X10188059Y-16557473D02*
X10178535Y-16595568D01*
X10178535Y-16595568D02*
X10169011Y-16614616D01*
X10169011Y-16614616D02*
X10159487Y-16624140D01*
X10159487Y-16624140D02*
X10140440Y-16633664D01*
X10140440Y-16633664D02*
X10121392Y-16633664D01*
X10121392Y-16633664D02*
X10102344Y-16624140D01*
X10102344Y-16624140D02*
X10092821Y-16614616D01*
X10092821Y-16614616D02*
X10083297Y-16595568D01*
X10083297Y-16595568D02*
X10073773Y-16557473D01*
X10073773Y-16557473D02*
X10073773Y-16509854D01*
X10073773Y-16509854D02*
X10083297Y-16471759D01*
X10083297Y-16471759D02*
X10092821Y-16452711D01*
X10092821Y-16452711D02*
X10102344Y-16443188D01*
X10102344Y-16443188D02*
X10121392Y-16433664D01*
X10273773Y-16614616D02*
X10283297Y-16624140D01*
X10283297Y-16624140D02*
X10273773Y-16633664D01*
X10273773Y-16633664D02*
X10264249Y-16624140D01*
X10264249Y-16624140D02*
X10273773Y-16614616D01*
X10273773Y-16614616D02*
X10273773Y-16633664D01*
X10454725Y-16433664D02*
X10416630Y-16433664D01*
X10416630Y-16433664D02*
X10397583Y-16443188D01*
X10397583Y-16443188D02*
X10388059Y-16452711D01*
X10388059Y-16452711D02*
X10369011Y-16481283D01*
X10369011Y-16481283D02*
X10359487Y-16519378D01*
X10359487Y-16519378D02*
X10359487Y-16595568D01*
X10359487Y-16595568D02*
X10369011Y-16614616D01*
X10369011Y-16614616D02*
X10378535Y-16624140D01*
X10378535Y-16624140D02*
X10397583Y-16633664D01*
X10397583Y-16633664D02*
X10435678Y-16633664D01*
X10435678Y-16633664D02*
X10454725Y-16624140D01*
X10454725Y-16624140D02*
X10464249Y-16614616D01*
X10464249Y-16614616D02*
X10473773Y-16595568D01*
X10473773Y-16595568D02*
X10473773Y-16547949D01*
X10473773Y-16547949D02*
X10464249Y-16528902D01*
X10464249Y-16528902D02*
X10454725Y-16519378D01*
X10454725Y-16519378D02*
X10435678Y-16509854D01*
X10435678Y-16509854D02*
X10397583Y-16509854D01*
X10397583Y-16509854D02*
X10378535Y-16519378D01*
X10378535Y-16519378D02*
X10369011Y-16528902D01*
X10369011Y-16528902D02*
X10359487Y-16547949D01*
X10597583Y-16433664D02*
X10616630Y-16433664D01*
X10616630Y-16433664D02*
X10635678Y-16443188D01*
X10635678Y-16443188D02*
X10645202Y-16452711D01*
X10645202Y-16452711D02*
X10654725Y-16471759D01*
X10654725Y-16471759D02*
X10664249Y-16509854D01*
X10664249Y-16509854D02*
X10664249Y-16557473D01*
X10664249Y-16557473D02*
X10654725Y-16595568D01*
X10654725Y-16595568D02*
X10645202Y-16614616D01*
X10645202Y-16614616D02*
X10635678Y-16624140D01*
X10635678Y-16624140D02*
X10616630Y-16633664D01*
X10616630Y-16633664D02*
X10597583Y-16633664D01*
X10597583Y-16633664D02*
X10578535Y-16624140D01*
X10578535Y-16624140D02*
X10569011Y-16614616D01*
X10569011Y-16614616D02*
X10559487Y-16595568D01*
X10559487Y-16595568D02*
X10549964Y-16557473D01*
X10549964Y-16557473D02*
X10549964Y-16509854D01*
X10549964Y-16509854D02*
X10559487Y-16471759D01*
X10559487Y-16471759D02*
X10569011Y-16452711D01*
X10569011Y-16452711D02*
X10578535Y-16443188D01*
X10578535Y-16443188D02*
X10597583Y-16433664D01*
X10788059Y-16433664D02*
X10807106Y-16433664D01*
X10807106Y-16433664D02*
X10826154Y-16443188D01*
X10826154Y-16443188D02*
X10835678Y-16452711D01*
X10835678Y-16452711D02*
X10845202Y-16471759D01*
X10845202Y-16471759D02*
X10854725Y-16509854D01*
X10854725Y-16509854D02*
X10854725Y-16557473D01*
X10854725Y-16557473D02*
X10845202Y-16595568D01*
X10845202Y-16595568D02*
X10835678Y-16614616D01*
X10835678Y-16614616D02*
X10826154Y-16624140D01*
X10826154Y-16624140D02*
X10807106Y-16633664D01*
X10807106Y-16633664D02*
X10788059Y-16633664D01*
X10788059Y-16633664D02*
X10769011Y-16624140D01*
X10769011Y-16624140D02*
X10759487Y-16614616D01*
X10759487Y-16614616D02*
X10749964Y-16595568D01*
X10749964Y-16595568D02*
X10740440Y-16557473D01*
X10740440Y-16557473D02*
X10740440Y-16509854D01*
X10740440Y-16509854D02*
X10749964Y-16471759D01*
X10749964Y-16471759D02*
X10759487Y-16452711D01*
X10759487Y-16452711D02*
X10769011Y-16443188D01*
X10769011Y-16443188D02*
X10788059Y-16433664D01*
X10940440Y-16633664D02*
X10940440Y-16500330D01*
X10940440Y-16519378D02*
X10949964Y-16509854D01*
X10949964Y-16509854D02*
X10969011Y-16500330D01*
X10969011Y-16500330D02*
X10997583Y-16500330D01*
X10997583Y-16500330D02*
X11016630Y-16509854D01*
X11016630Y-16509854D02*
X11026154Y-16528902D01*
X11026154Y-16528902D02*
X11026154Y-16633664D01*
X11026154Y-16528902D02*
X11035678Y-16509854D01*
X11035678Y-16509854D02*
X11054725Y-16500330D01*
X11054725Y-16500330D02*
X11083297Y-16500330D01*
X11083297Y-16500330D02*
X11102345Y-16509854D01*
X11102345Y-16509854D02*
X11111868Y-16528902D01*
X11111868Y-16528902D02*
X11111868Y-16633664D01*
X11207106Y-16633664D02*
X11207106Y-16500330D01*
X11207106Y-16519378D02*
X11216630Y-16509854D01*
X11216630Y-16509854D02*
X11235678Y-16500330D01*
X11235678Y-16500330D02*
X11264249Y-16500330D01*
X11264249Y-16500330D02*
X11283297Y-16509854D01*
X11283297Y-16509854D02*
X11292821Y-16528902D01*
X11292821Y-16528902D02*
X11292821Y-16633664D01*
X11292821Y-16528902D02*
X11302344Y-16509854D01*
X11302344Y-16509854D02*
X11321392Y-16500330D01*
X11321392Y-16500330D02*
X11349963Y-16500330D01*
X11349963Y-16500330D02*
X11369011Y-16509854D01*
X11369011Y-16509854D02*
X11378535Y-16528902D01*
X11378535Y-16528902D02*
X11378535Y-16633664D01*
X11769011Y-16424140D02*
X11597583Y-16681283D01*
X12026154Y-16433664D02*
X12045202Y-16433664D01*
X12045202Y-16433664D02*
X12064249Y-16443188D01*
X12064249Y-16443188D02*
X12073773Y-16452711D01*
X12073773Y-16452711D02*
X12083297Y-16471759D01*
X12083297Y-16471759D02*
X12092821Y-16509854D01*
X12092821Y-16509854D02*
X12092821Y-16557473D01*
X12092821Y-16557473D02*
X12083297Y-16595568D01*
X12083297Y-16595568D02*
X12073773Y-16614616D01*
X12073773Y-16614616D02*
X12064249Y-16624140D01*
X12064249Y-16624140D02*
X12045202Y-16633664D01*
X12045202Y-16633664D02*
X12026154Y-16633664D01*
X12026154Y-16633664D02*
X12007106Y-16624140D01*
X12007106Y-16624140D02*
X11997583Y-16614616D01*
X11997583Y-16614616D02*
X11988059Y-16595568D01*
X11988059Y-16595568D02*
X11978535Y-16557473D01*
X11978535Y-16557473D02*
X11978535Y-16509854D01*
X11978535Y-16509854D02*
X11988059Y-16471759D01*
X11988059Y-16471759D02*
X11997583Y-16452711D01*
X11997583Y-16452711D02*
X12007106Y-16443188D01*
X12007106Y-16443188D02*
X12026154Y-16433664D01*
X12178535Y-16614616D02*
X12188059Y-16624140D01*
X12188059Y-16624140D02*
X12178535Y-16633664D01*
X12178535Y-16633664D02*
X12169011Y-16624140D01*
X12169011Y-16624140D02*
X12178535Y-16614616D01*
X12178535Y-16614616D02*
X12178535Y-16633664D01*
X12311868Y-16433664D02*
X12330916Y-16433664D01*
X12330916Y-16433664D02*
X12349964Y-16443188D01*
X12349964Y-16443188D02*
X12359487Y-16452711D01*
X12359487Y-16452711D02*
X12369011Y-16471759D01*
X12369011Y-16471759D02*
X12378535Y-16509854D01*
X12378535Y-16509854D02*
X12378535Y-16557473D01*
X12378535Y-16557473D02*
X12369011Y-16595568D01*
X12369011Y-16595568D02*
X12359487Y-16614616D01*
X12359487Y-16614616D02*
X12349964Y-16624140D01*
X12349964Y-16624140D02*
X12330916Y-16633664D01*
X12330916Y-16633664D02*
X12311868Y-16633664D01*
X12311868Y-16633664D02*
X12292821Y-16624140D01*
X12292821Y-16624140D02*
X12283297Y-16614616D01*
X12283297Y-16614616D02*
X12273773Y-16595568D01*
X12273773Y-16595568D02*
X12264249Y-16557473D01*
X12264249Y-16557473D02*
X12264249Y-16509854D01*
X12264249Y-16509854D02*
X12273773Y-16471759D01*
X12273773Y-16471759D02*
X12283297Y-16452711D01*
X12283297Y-16452711D02*
X12292821Y-16443188D01*
X12292821Y-16443188D02*
X12311868Y-16433664D01*
X12454726Y-16452711D02*
X12464249Y-16443188D01*
X12464249Y-16443188D02*
X12483297Y-16433664D01*
X12483297Y-16433664D02*
X12530916Y-16433664D01*
X12530916Y-16433664D02*
X12549964Y-16443188D01*
X12549964Y-16443188D02*
X12559487Y-16452711D01*
X12559487Y-16452711D02*
X12569011Y-16471759D01*
X12569011Y-16471759D02*
X12569011Y-16490807D01*
X12569011Y-16490807D02*
X12559487Y-16519378D01*
X12559487Y-16519378D02*
X12445202Y-16633664D01*
X12445202Y-16633664D02*
X12569011Y-16633664D01*
X12635678Y-16433664D02*
X12759487Y-16433664D01*
X12759487Y-16433664D02*
X12692821Y-16509854D01*
X12692821Y-16509854D02*
X12721392Y-16509854D01*
X12721392Y-16509854D02*
X12740440Y-16519378D01*
X12740440Y-16519378D02*
X12749964Y-16528902D01*
X12749964Y-16528902D02*
X12759487Y-16547949D01*
X12759487Y-16547949D02*
X12759487Y-16595568D01*
X12759487Y-16595568D02*
X12749964Y-16614616D01*
X12749964Y-16614616D02*
X12740440Y-16624140D01*
X12740440Y-16624140D02*
X12721392Y-16633664D01*
X12721392Y-16633664D02*
X12664249Y-16633664D01*
X12664249Y-16633664D02*
X12645202Y-16624140D01*
X12645202Y-16624140D02*
X12635678Y-16614616D01*
X12930916Y-16433664D02*
X12892821Y-16433664D01*
X12892821Y-16433664D02*
X12873773Y-16443188D01*
X12873773Y-16443188D02*
X12864249Y-16452711D01*
X12864249Y-16452711D02*
X12845202Y-16481283D01*
X12845202Y-16481283D02*
X12835678Y-16519378D01*
X12835678Y-16519378D02*
X12835678Y-16595568D01*
X12835678Y-16595568D02*
X12845202Y-16614616D01*
X12845202Y-16614616D02*
X12854726Y-16624140D01*
X12854726Y-16624140D02*
X12873773Y-16633664D01*
X12873773Y-16633664D02*
X12911868Y-16633664D01*
X12911868Y-16633664D02*
X12930916Y-16624140D01*
X12930916Y-16624140D02*
X12940440Y-16614616D01*
X12940440Y-16614616D02*
X12949964Y-16595568D01*
X12949964Y-16595568D02*
X12949964Y-16547949D01*
X12949964Y-16547949D02*
X12940440Y-16528902D01*
X12940440Y-16528902D02*
X12930916Y-16519378D01*
X12930916Y-16519378D02*
X12911868Y-16509854D01*
X12911868Y-16509854D02*
X12873773Y-16509854D01*
X12873773Y-16509854D02*
X12854726Y-16519378D01*
X12854726Y-16519378D02*
X12845202Y-16528902D01*
X12845202Y-16528902D02*
X12835678Y-16547949D01*
X13026154Y-16433664D02*
X13026154Y-16471759D01*
X13102345Y-16433664D02*
X13102345Y-16471759D01*
X13397583Y-16709854D02*
X13388059Y-16700330D01*
X13388059Y-16700330D02*
X13369011Y-16671759D01*
X13369011Y-16671759D02*
X13359488Y-16652711D01*
X13359488Y-16652711D02*
X13349964Y-16624140D01*
X13349964Y-16624140D02*
X13340440Y-16576521D01*
X13340440Y-16576521D02*
X13340440Y-16538426D01*
X13340440Y-16538426D02*
X13349964Y-16490807D01*
X13349964Y-16490807D02*
X13359488Y-16462235D01*
X13359488Y-16462235D02*
X13369011Y-16443188D01*
X13369011Y-16443188D02*
X13388059Y-16414616D01*
X13388059Y-16414616D02*
X13397583Y-16405092D01*
X13511868Y-16433664D02*
X13530916Y-16433664D01*
X13530916Y-16433664D02*
X13549964Y-16443188D01*
X13549964Y-16443188D02*
X13559488Y-16452711D01*
X13559488Y-16452711D02*
X13569011Y-16471759D01*
X13569011Y-16471759D02*
X13578535Y-16509854D01*
X13578535Y-16509854D02*
X13578535Y-16557473D01*
X13578535Y-16557473D02*
X13569011Y-16595568D01*
X13569011Y-16595568D02*
X13559488Y-16614616D01*
X13559488Y-16614616D02*
X13549964Y-16624140D01*
X13549964Y-16624140D02*
X13530916Y-16633664D01*
X13530916Y-16633664D02*
X13511868Y-16633664D01*
X13511868Y-16633664D02*
X13492821Y-16624140D01*
X13492821Y-16624140D02*
X13483297Y-16614616D01*
X13483297Y-16614616D02*
X13473773Y-16595568D01*
X13473773Y-16595568D02*
X13464249Y-16557473D01*
X13464249Y-16557473D02*
X13464249Y-16509854D01*
X13464249Y-16509854D02*
X13473773Y-16471759D01*
X13473773Y-16471759D02*
X13483297Y-16452711D01*
X13483297Y-16452711D02*
X13492821Y-16443188D01*
X13492821Y-16443188D02*
X13511868Y-16433664D01*
X13816630Y-16633664D02*
X13816630Y-16433664D01*
X13902345Y-16633664D02*
X13902345Y-16528902D01*
X13902345Y-16528902D02*
X13892821Y-16509854D01*
X13892821Y-16509854D02*
X13873773Y-16500330D01*
X13873773Y-16500330D02*
X13845202Y-16500330D01*
X13845202Y-16500330D02*
X13826154Y-16509854D01*
X13826154Y-16509854D02*
X13816630Y-16519378D01*
X14026154Y-16633664D02*
X14007107Y-16624140D01*
X14007107Y-16624140D02*
X13997583Y-16614616D01*
X13997583Y-16614616D02*
X13988059Y-16595568D01*
X13988059Y-16595568D02*
X13988059Y-16538426D01*
X13988059Y-16538426D02*
X13997583Y-16519378D01*
X13997583Y-16519378D02*
X14007107Y-16509854D01*
X14007107Y-16509854D02*
X14026154Y-16500330D01*
X14026154Y-16500330D02*
X14054726Y-16500330D01*
X14054726Y-16500330D02*
X14073773Y-16509854D01*
X14073773Y-16509854D02*
X14083297Y-16519378D01*
X14083297Y-16519378D02*
X14092821Y-16538426D01*
X14092821Y-16538426D02*
X14092821Y-16595568D01*
X14092821Y-16595568D02*
X14083297Y-16614616D01*
X14083297Y-16614616D02*
X14073773Y-16624140D01*
X14073773Y-16624140D02*
X14054726Y-16633664D01*
X14054726Y-16633664D02*
X14026154Y-16633664D01*
X14207107Y-16633664D02*
X14188059Y-16624140D01*
X14188059Y-16624140D02*
X14178535Y-16605092D01*
X14178535Y-16605092D02*
X14178535Y-16433664D01*
X14359488Y-16624140D02*
X14340440Y-16633664D01*
X14340440Y-16633664D02*
X14302345Y-16633664D01*
X14302345Y-16633664D02*
X14283297Y-16624140D01*
X14283297Y-16624140D02*
X14273773Y-16605092D01*
X14273773Y-16605092D02*
X14273773Y-16528902D01*
X14273773Y-16528902D02*
X14283297Y-16509854D01*
X14283297Y-16509854D02*
X14302345Y-16500330D01*
X14302345Y-16500330D02*
X14340440Y-16500330D01*
X14340440Y-16500330D02*
X14359488Y-16509854D01*
X14359488Y-16509854D02*
X14369011Y-16528902D01*
X14369011Y-16528902D02*
X14369011Y-16547949D01*
X14369011Y-16547949D02*
X14273773Y-16566997D01*
X14445202Y-16624140D02*
X14464250Y-16633664D01*
X14464250Y-16633664D02*
X14502345Y-16633664D01*
X14502345Y-16633664D02*
X14521392Y-16624140D01*
X14521392Y-16624140D02*
X14530916Y-16605092D01*
X14530916Y-16605092D02*
X14530916Y-16595568D01*
X14530916Y-16595568D02*
X14521392Y-16576521D01*
X14521392Y-16576521D02*
X14502345Y-16566997D01*
X14502345Y-16566997D02*
X14473773Y-16566997D01*
X14473773Y-16566997D02*
X14454726Y-16557473D01*
X14454726Y-16557473D02*
X14445202Y-16538426D01*
X14445202Y-16538426D02*
X14445202Y-16528902D01*
X14445202Y-16528902D02*
X14454726Y-16509854D01*
X14454726Y-16509854D02*
X14473773Y-16500330D01*
X14473773Y-16500330D02*
X14502345Y-16500330D01*
X14502345Y-16500330D02*
X14521392Y-16509854D01*
X14769012Y-16557473D02*
X14921393Y-16557473D01*
X14845202Y-16633664D02*
X14845202Y-16481283D01*
X15254726Y-16500330D02*
X15254726Y-16633664D01*
X15207107Y-16424140D02*
X15159488Y-16566997D01*
X15159488Y-16566997D02*
X15283297Y-16566997D01*
X15502345Y-16624140D02*
X15521393Y-16633664D01*
X15521393Y-16633664D02*
X15559488Y-16633664D01*
X15559488Y-16633664D02*
X15578535Y-16624140D01*
X15578535Y-16624140D02*
X15588059Y-16605092D01*
X15588059Y-16605092D02*
X15588059Y-16595568D01*
X15588059Y-16595568D02*
X15578535Y-16576521D01*
X15578535Y-16576521D02*
X15559488Y-16566997D01*
X15559488Y-16566997D02*
X15530916Y-16566997D01*
X15530916Y-16566997D02*
X15511869Y-16557473D01*
X15511869Y-16557473D02*
X15502345Y-16538426D01*
X15502345Y-16538426D02*
X15502345Y-16528902D01*
X15502345Y-16528902D02*
X15511869Y-16509854D01*
X15511869Y-16509854D02*
X15530916Y-16500330D01*
X15530916Y-16500330D02*
X15559488Y-16500330D01*
X15559488Y-16500330D02*
X15578535Y-16509854D01*
X15702345Y-16633664D02*
X15683297Y-16624140D01*
X15683297Y-16624140D02*
X15673774Y-16605092D01*
X15673774Y-16605092D02*
X15673774Y-16433664D01*
X15807107Y-16633664D02*
X15788059Y-16624140D01*
X15788059Y-16624140D02*
X15778535Y-16614616D01*
X15778535Y-16614616D02*
X15769012Y-16595568D01*
X15769012Y-16595568D02*
X15769012Y-16538426D01*
X15769012Y-16538426D02*
X15778535Y-16519378D01*
X15778535Y-16519378D02*
X15788059Y-16509854D01*
X15788059Y-16509854D02*
X15807107Y-16500330D01*
X15807107Y-16500330D02*
X15835678Y-16500330D01*
X15835678Y-16500330D02*
X15854726Y-16509854D01*
X15854726Y-16509854D02*
X15864250Y-16519378D01*
X15864250Y-16519378D02*
X15873774Y-16538426D01*
X15873774Y-16538426D02*
X15873774Y-16595568D01*
X15873774Y-16595568D02*
X15864250Y-16614616D01*
X15864250Y-16614616D02*
X15854726Y-16624140D01*
X15854726Y-16624140D02*
X15835678Y-16633664D01*
X15835678Y-16633664D02*
X15807107Y-16633664D01*
X15930916Y-16500330D02*
X16007107Y-16500330D01*
X15959488Y-16433664D02*
X15959488Y-16605092D01*
X15959488Y-16605092D02*
X15969012Y-16624140D01*
X15969012Y-16624140D02*
X15988059Y-16633664D01*
X15988059Y-16633664D02*
X16007107Y-16633664D01*
X16064250Y-16624140D02*
X16083297Y-16633664D01*
X16083297Y-16633664D02*
X16121393Y-16633664D01*
X16121393Y-16633664D02*
X16140440Y-16624140D01*
X16140440Y-16624140D02*
X16149964Y-16605092D01*
X16149964Y-16605092D02*
X16149964Y-16595568D01*
X16149964Y-16595568D02*
X16140440Y-16576521D01*
X16140440Y-16576521D02*
X16121393Y-16566997D01*
X16121393Y-16566997D02*
X16092821Y-16566997D01*
X16092821Y-16566997D02*
X16073774Y-16557473D01*
X16073774Y-16557473D02*
X16064250Y-16538426D01*
X16064250Y-16538426D02*
X16064250Y-16528902D01*
X16064250Y-16528902D02*
X16073774Y-16509854D01*
X16073774Y-16509854D02*
X16092821Y-16500330D01*
X16092821Y-16500330D02*
X16121393Y-16500330D01*
X16121393Y-16500330D02*
X16140440Y-16509854D01*
X16216631Y-16709854D02*
X16226155Y-16700330D01*
X16226155Y-16700330D02*
X16245202Y-16671759D01*
X16245202Y-16671759D02*
X16254726Y-16652711D01*
X16254726Y-16652711D02*
X16264250Y-16624140D01*
X16264250Y-16624140D02*
X16273774Y-16576521D01*
X16273774Y-16576521D02*
X16273774Y-16538426D01*
X16273774Y-16538426D02*
X16264250Y-16490807D01*
X16264250Y-16490807D02*
X16254726Y-16462235D01*
X16254726Y-16462235D02*
X16245202Y-16443188D01*
X16245202Y-16443188D02*
X16226155Y-16414616D01*
X16226155Y-16414616D02*
X16216631Y-16405092D01*
D12*
X9722520Y-16756180D02*
X9822520Y-16856180D01*
X9822520Y-16756180D02*
X9722520Y-16856180D01*
X9822520Y-16806180D02*
G75*
G02*
X9722520Y-16806180I-50000J0D01*
G01*
X9722520Y-16806180D02*
G75*
G02*
X9822520Y-16806180I50000J0D01*
G01*
D11*
X10188059Y-16897664D02*
X10073773Y-16897664D01*
X10130916Y-16897664D02*
X10130916Y-16697664D01*
X10130916Y-16697664D02*
X10111868Y-16726235D01*
X10111868Y-16726235D02*
X10092821Y-16745283D01*
X10092821Y-16745283D02*
X10073773Y-16754807D01*
X10273773Y-16878616D02*
X10283297Y-16888140D01*
X10283297Y-16888140D02*
X10273773Y-16897664D01*
X10273773Y-16897664D02*
X10264249Y-16888140D01*
X10264249Y-16888140D02*
X10273773Y-16878616D01*
X10273773Y-16878616D02*
X10273773Y-16897664D01*
X10407106Y-16697664D02*
X10426154Y-16697664D01*
X10426154Y-16697664D02*
X10445202Y-16707188D01*
X10445202Y-16707188D02*
X10454725Y-16716711D01*
X10454725Y-16716711D02*
X10464249Y-16735759D01*
X10464249Y-16735759D02*
X10473773Y-16773854D01*
X10473773Y-16773854D02*
X10473773Y-16821473D01*
X10473773Y-16821473D02*
X10464249Y-16859569D01*
X10464249Y-16859569D02*
X10454725Y-16878616D01*
X10454725Y-16878616D02*
X10445202Y-16888140D01*
X10445202Y-16888140D02*
X10426154Y-16897664D01*
X10426154Y-16897664D02*
X10407106Y-16897664D01*
X10407106Y-16897664D02*
X10388059Y-16888140D01*
X10388059Y-16888140D02*
X10378535Y-16878616D01*
X10378535Y-16878616D02*
X10369011Y-16859569D01*
X10369011Y-16859569D02*
X10359487Y-16821473D01*
X10359487Y-16821473D02*
X10359487Y-16773854D01*
X10359487Y-16773854D02*
X10369011Y-16735759D01*
X10369011Y-16735759D02*
X10378535Y-16716711D01*
X10378535Y-16716711D02*
X10388059Y-16707188D01*
X10388059Y-16707188D02*
X10407106Y-16697664D01*
X10597583Y-16697664D02*
X10616630Y-16697664D01*
X10616630Y-16697664D02*
X10635678Y-16707188D01*
X10635678Y-16707188D02*
X10645202Y-16716711D01*
X10645202Y-16716711D02*
X10654725Y-16735759D01*
X10654725Y-16735759D02*
X10664249Y-16773854D01*
X10664249Y-16773854D02*
X10664249Y-16821473D01*
X10664249Y-16821473D02*
X10654725Y-16859569D01*
X10654725Y-16859569D02*
X10645202Y-16878616D01*
X10645202Y-16878616D02*
X10635678Y-16888140D01*
X10635678Y-16888140D02*
X10616630Y-16897664D01*
X10616630Y-16897664D02*
X10597583Y-16897664D01*
X10597583Y-16897664D02*
X10578535Y-16888140D01*
X10578535Y-16888140D02*
X10569011Y-16878616D01*
X10569011Y-16878616D02*
X10559487Y-16859569D01*
X10559487Y-16859569D02*
X10549964Y-16821473D01*
X10549964Y-16821473D02*
X10549964Y-16773854D01*
X10549964Y-16773854D02*
X10559487Y-16735759D01*
X10559487Y-16735759D02*
X10569011Y-16716711D01*
X10569011Y-16716711D02*
X10578535Y-16707188D01*
X10578535Y-16707188D02*
X10597583Y-16697664D01*
X10788059Y-16697664D02*
X10807106Y-16697664D01*
X10807106Y-16697664D02*
X10826154Y-16707188D01*
X10826154Y-16707188D02*
X10835678Y-16716711D01*
X10835678Y-16716711D02*
X10845202Y-16735759D01*
X10845202Y-16735759D02*
X10854725Y-16773854D01*
X10854725Y-16773854D02*
X10854725Y-16821473D01*
X10854725Y-16821473D02*
X10845202Y-16859569D01*
X10845202Y-16859569D02*
X10835678Y-16878616D01*
X10835678Y-16878616D02*
X10826154Y-16888140D01*
X10826154Y-16888140D02*
X10807106Y-16897664D01*
X10807106Y-16897664D02*
X10788059Y-16897664D01*
X10788059Y-16897664D02*
X10769011Y-16888140D01*
X10769011Y-16888140D02*
X10759487Y-16878616D01*
X10759487Y-16878616D02*
X10749964Y-16859569D01*
X10749964Y-16859569D02*
X10740440Y-16821473D01*
X10740440Y-16821473D02*
X10740440Y-16773854D01*
X10740440Y-16773854D02*
X10749964Y-16735759D01*
X10749964Y-16735759D02*
X10759487Y-16716711D01*
X10759487Y-16716711D02*
X10769011Y-16707188D01*
X10769011Y-16707188D02*
X10788059Y-16697664D01*
X10940440Y-16897664D02*
X10940440Y-16764330D01*
X10940440Y-16783378D02*
X10949964Y-16773854D01*
X10949964Y-16773854D02*
X10969011Y-16764330D01*
X10969011Y-16764330D02*
X10997583Y-16764330D01*
X10997583Y-16764330D02*
X11016630Y-16773854D01*
X11016630Y-16773854D02*
X11026154Y-16792902D01*
X11026154Y-16792902D02*
X11026154Y-16897664D01*
X11026154Y-16792902D02*
X11035678Y-16773854D01*
X11035678Y-16773854D02*
X11054725Y-16764330D01*
X11054725Y-16764330D02*
X11083297Y-16764330D01*
X11083297Y-16764330D02*
X11102345Y-16773854D01*
X11102345Y-16773854D02*
X11111868Y-16792902D01*
X11111868Y-16792902D02*
X11111868Y-16897664D01*
X11207106Y-16897664D02*
X11207106Y-16764330D01*
X11207106Y-16783378D02*
X11216630Y-16773854D01*
X11216630Y-16773854D02*
X11235678Y-16764330D01*
X11235678Y-16764330D02*
X11264249Y-16764330D01*
X11264249Y-16764330D02*
X11283297Y-16773854D01*
X11283297Y-16773854D02*
X11292821Y-16792902D01*
X11292821Y-16792902D02*
X11292821Y-16897664D01*
X11292821Y-16792902D02*
X11302344Y-16773854D01*
X11302344Y-16773854D02*
X11321392Y-16764330D01*
X11321392Y-16764330D02*
X11349963Y-16764330D01*
X11349963Y-16764330D02*
X11369011Y-16773854D01*
X11369011Y-16773854D02*
X11378535Y-16792902D01*
X11378535Y-16792902D02*
X11378535Y-16897664D01*
X11769011Y-16688140D02*
X11597583Y-16945283D01*
X12026154Y-16697664D02*
X12045202Y-16697664D01*
X12045202Y-16697664D02*
X12064249Y-16707188D01*
X12064249Y-16707188D02*
X12073773Y-16716711D01*
X12073773Y-16716711D02*
X12083297Y-16735759D01*
X12083297Y-16735759D02*
X12092821Y-16773854D01*
X12092821Y-16773854D02*
X12092821Y-16821473D01*
X12092821Y-16821473D02*
X12083297Y-16859569D01*
X12083297Y-16859569D02*
X12073773Y-16878616D01*
X12073773Y-16878616D02*
X12064249Y-16888140D01*
X12064249Y-16888140D02*
X12045202Y-16897664D01*
X12045202Y-16897664D02*
X12026154Y-16897664D01*
X12026154Y-16897664D02*
X12007106Y-16888140D01*
X12007106Y-16888140D02*
X11997583Y-16878616D01*
X11997583Y-16878616D02*
X11988059Y-16859569D01*
X11988059Y-16859569D02*
X11978535Y-16821473D01*
X11978535Y-16821473D02*
X11978535Y-16773854D01*
X11978535Y-16773854D02*
X11988059Y-16735759D01*
X11988059Y-16735759D02*
X11997583Y-16716711D01*
X11997583Y-16716711D02*
X12007106Y-16707188D01*
X12007106Y-16707188D02*
X12026154Y-16697664D01*
X12178535Y-16878616D02*
X12188059Y-16888140D01*
X12188059Y-16888140D02*
X12178535Y-16897664D01*
X12178535Y-16897664D02*
X12169011Y-16888140D01*
X12169011Y-16888140D02*
X12178535Y-16878616D01*
X12178535Y-16878616D02*
X12178535Y-16897664D01*
X12311868Y-16697664D02*
X12330916Y-16697664D01*
X12330916Y-16697664D02*
X12349964Y-16707188D01*
X12349964Y-16707188D02*
X12359487Y-16716711D01*
X12359487Y-16716711D02*
X12369011Y-16735759D01*
X12369011Y-16735759D02*
X12378535Y-16773854D01*
X12378535Y-16773854D02*
X12378535Y-16821473D01*
X12378535Y-16821473D02*
X12369011Y-16859569D01*
X12369011Y-16859569D02*
X12359487Y-16878616D01*
X12359487Y-16878616D02*
X12349964Y-16888140D01*
X12349964Y-16888140D02*
X12330916Y-16897664D01*
X12330916Y-16897664D02*
X12311868Y-16897664D01*
X12311868Y-16897664D02*
X12292821Y-16888140D01*
X12292821Y-16888140D02*
X12283297Y-16878616D01*
X12283297Y-16878616D02*
X12273773Y-16859569D01*
X12273773Y-16859569D02*
X12264249Y-16821473D01*
X12264249Y-16821473D02*
X12264249Y-16773854D01*
X12264249Y-16773854D02*
X12273773Y-16735759D01*
X12273773Y-16735759D02*
X12283297Y-16716711D01*
X12283297Y-16716711D02*
X12292821Y-16707188D01*
X12292821Y-16707188D02*
X12311868Y-16697664D01*
X12445202Y-16697664D02*
X12569011Y-16697664D01*
X12569011Y-16697664D02*
X12502345Y-16773854D01*
X12502345Y-16773854D02*
X12530916Y-16773854D01*
X12530916Y-16773854D02*
X12549964Y-16783378D01*
X12549964Y-16783378D02*
X12559487Y-16792902D01*
X12559487Y-16792902D02*
X12569011Y-16811950D01*
X12569011Y-16811950D02*
X12569011Y-16859569D01*
X12569011Y-16859569D02*
X12559487Y-16878616D01*
X12559487Y-16878616D02*
X12549964Y-16888140D01*
X12549964Y-16888140D02*
X12530916Y-16897664D01*
X12530916Y-16897664D02*
X12473773Y-16897664D01*
X12473773Y-16897664D02*
X12454726Y-16888140D01*
X12454726Y-16888140D02*
X12445202Y-16878616D01*
X12664249Y-16897664D02*
X12702345Y-16897664D01*
X12702345Y-16897664D02*
X12721392Y-16888140D01*
X12721392Y-16888140D02*
X12730916Y-16878616D01*
X12730916Y-16878616D02*
X12749964Y-16850045D01*
X12749964Y-16850045D02*
X12759487Y-16811950D01*
X12759487Y-16811950D02*
X12759487Y-16735759D01*
X12759487Y-16735759D02*
X12749964Y-16716711D01*
X12749964Y-16716711D02*
X12740440Y-16707188D01*
X12740440Y-16707188D02*
X12721392Y-16697664D01*
X12721392Y-16697664D02*
X12683297Y-16697664D01*
X12683297Y-16697664D02*
X12664249Y-16707188D01*
X12664249Y-16707188D02*
X12654726Y-16716711D01*
X12654726Y-16716711D02*
X12645202Y-16735759D01*
X12645202Y-16735759D02*
X12645202Y-16783378D01*
X12645202Y-16783378D02*
X12654726Y-16802426D01*
X12654726Y-16802426D02*
X12664249Y-16811950D01*
X12664249Y-16811950D02*
X12683297Y-16821473D01*
X12683297Y-16821473D02*
X12721392Y-16821473D01*
X12721392Y-16821473D02*
X12740440Y-16811950D01*
X12740440Y-16811950D02*
X12749964Y-16802426D01*
X12749964Y-16802426D02*
X12759487Y-16783378D01*
X12930916Y-16764330D02*
X12930916Y-16897664D01*
X12883297Y-16688140D02*
X12835678Y-16830997D01*
X12835678Y-16830997D02*
X12959487Y-16830997D01*
X13026154Y-16697664D02*
X13026154Y-16735759D01*
X13102345Y-16697664D02*
X13102345Y-16735759D01*
X13397583Y-16973854D02*
X13388059Y-16964330D01*
X13388059Y-16964330D02*
X13369011Y-16935759D01*
X13369011Y-16935759D02*
X13359488Y-16916711D01*
X13359488Y-16916711D02*
X13349964Y-16888140D01*
X13349964Y-16888140D02*
X13340440Y-16840521D01*
X13340440Y-16840521D02*
X13340440Y-16802426D01*
X13340440Y-16802426D02*
X13349964Y-16754807D01*
X13349964Y-16754807D02*
X13359488Y-16726235D01*
X13359488Y-16726235D02*
X13369011Y-16707188D01*
X13369011Y-16707188D02*
X13388059Y-16678616D01*
X13388059Y-16678616D02*
X13397583Y-16669092D01*
X13578535Y-16897664D02*
X13464249Y-16897664D01*
X13521392Y-16897664D02*
X13521392Y-16697664D01*
X13521392Y-16697664D02*
X13502345Y-16726235D01*
X13502345Y-16726235D02*
X13483297Y-16745283D01*
X13483297Y-16745283D02*
X13464249Y-16754807D01*
X13645202Y-16697664D02*
X13778535Y-16697664D01*
X13778535Y-16697664D02*
X13692821Y-16897664D01*
X14007107Y-16897664D02*
X14007107Y-16697664D01*
X14092821Y-16897664D02*
X14092821Y-16792902D01*
X14092821Y-16792902D02*
X14083297Y-16773854D01*
X14083297Y-16773854D02*
X14064250Y-16764330D01*
X14064250Y-16764330D02*
X14035678Y-16764330D01*
X14035678Y-16764330D02*
X14016630Y-16773854D01*
X14016630Y-16773854D02*
X14007107Y-16783378D01*
X14216630Y-16897664D02*
X14197583Y-16888140D01*
X14197583Y-16888140D02*
X14188059Y-16878616D01*
X14188059Y-16878616D02*
X14178535Y-16859569D01*
X14178535Y-16859569D02*
X14178535Y-16802426D01*
X14178535Y-16802426D02*
X14188059Y-16783378D01*
X14188059Y-16783378D02*
X14197583Y-16773854D01*
X14197583Y-16773854D02*
X14216630Y-16764330D01*
X14216630Y-16764330D02*
X14245202Y-16764330D01*
X14245202Y-16764330D02*
X14264250Y-16773854D01*
X14264250Y-16773854D02*
X14273773Y-16783378D01*
X14273773Y-16783378D02*
X14283297Y-16802426D01*
X14283297Y-16802426D02*
X14283297Y-16859569D01*
X14283297Y-16859569D02*
X14273773Y-16878616D01*
X14273773Y-16878616D02*
X14264250Y-16888140D01*
X14264250Y-16888140D02*
X14245202Y-16897664D01*
X14245202Y-16897664D02*
X14216630Y-16897664D01*
X14397583Y-16897664D02*
X14378535Y-16888140D01*
X14378535Y-16888140D02*
X14369011Y-16869092D01*
X14369011Y-16869092D02*
X14369011Y-16697664D01*
X14549964Y-16888140D02*
X14530916Y-16897664D01*
X14530916Y-16897664D02*
X14492821Y-16897664D01*
X14492821Y-16897664D02*
X14473773Y-16888140D01*
X14473773Y-16888140D02*
X14464250Y-16869092D01*
X14464250Y-16869092D02*
X14464250Y-16792902D01*
X14464250Y-16792902D02*
X14473773Y-16773854D01*
X14473773Y-16773854D02*
X14492821Y-16764330D01*
X14492821Y-16764330D02*
X14530916Y-16764330D01*
X14530916Y-16764330D02*
X14549964Y-16773854D01*
X14549964Y-16773854D02*
X14559488Y-16792902D01*
X14559488Y-16792902D02*
X14559488Y-16811950D01*
X14559488Y-16811950D02*
X14464250Y-16830997D01*
X14635678Y-16888140D02*
X14654726Y-16897664D01*
X14654726Y-16897664D02*
X14692821Y-16897664D01*
X14692821Y-16897664D02*
X14711869Y-16888140D01*
X14711869Y-16888140D02*
X14721392Y-16869092D01*
X14721392Y-16869092D02*
X14721392Y-16859569D01*
X14721392Y-16859569D02*
X14711869Y-16840521D01*
X14711869Y-16840521D02*
X14692821Y-16830997D01*
X14692821Y-16830997D02*
X14664250Y-16830997D01*
X14664250Y-16830997D02*
X14645202Y-16821473D01*
X14645202Y-16821473D02*
X14635678Y-16802426D01*
X14635678Y-16802426D02*
X14635678Y-16792902D01*
X14635678Y-16792902D02*
X14645202Y-16773854D01*
X14645202Y-16773854D02*
X14664250Y-16764330D01*
X14664250Y-16764330D02*
X14692821Y-16764330D01*
X14692821Y-16764330D02*
X14711869Y-16773854D01*
X14788059Y-16973854D02*
X14797583Y-16964330D01*
X14797583Y-16964330D02*
X14816631Y-16935759D01*
X14816631Y-16935759D02*
X14826154Y-16916711D01*
X14826154Y-16916711D02*
X14835678Y-16888140D01*
X14835678Y-16888140D02*
X14845202Y-16840521D01*
X14845202Y-16840521D02*
X14845202Y-16802426D01*
X14845202Y-16802426D02*
X14835678Y-16754807D01*
X14835678Y-16754807D02*
X14826154Y-16726235D01*
X14826154Y-16726235D02*
X14816631Y-16707188D01*
X14816631Y-16707188D02*
X14797583Y-16678616D01*
X14797583Y-16678616D02*
X14788059Y-16669092D01*
X9622520Y-16970180D02*
X9822520Y-17170180D01*
X9822520Y-16970180D02*
X9622520Y-17170180D01*
X9722520Y-16970180D02*
X9722520Y-17170180D01*
X9622520Y-17070180D02*
X9822520Y-17070180D01*
X10064249Y-16961664D02*
X10188059Y-16961664D01*
X10188059Y-16961664D02*
X10121392Y-17037854D01*
X10121392Y-17037854D02*
X10149964Y-17037854D01*
X10149964Y-17037854D02*
X10169011Y-17047378D01*
X10169011Y-17047378D02*
X10178535Y-17056902D01*
X10178535Y-17056902D02*
X10188059Y-17075950D01*
X10188059Y-17075950D02*
X10188059Y-17123569D01*
X10188059Y-17123569D02*
X10178535Y-17142616D01*
X10178535Y-17142616D02*
X10169011Y-17152140D01*
X10169011Y-17152140D02*
X10149964Y-17161664D01*
X10149964Y-17161664D02*
X10092821Y-17161664D01*
X10092821Y-17161664D02*
X10073773Y-17152140D01*
X10073773Y-17152140D02*
X10064249Y-17142616D01*
X10273773Y-17142616D02*
X10283297Y-17152140D01*
X10283297Y-17152140D02*
X10273773Y-17161664D01*
X10273773Y-17161664D02*
X10264249Y-17152140D01*
X10264249Y-17152140D02*
X10273773Y-17142616D01*
X10273773Y-17142616D02*
X10273773Y-17161664D01*
X10359487Y-16980711D02*
X10369011Y-16971188D01*
X10369011Y-16971188D02*
X10388059Y-16961664D01*
X10388059Y-16961664D02*
X10435678Y-16961664D01*
X10435678Y-16961664D02*
X10454725Y-16971188D01*
X10454725Y-16971188D02*
X10464249Y-16980711D01*
X10464249Y-16980711D02*
X10473773Y-16999759D01*
X10473773Y-16999759D02*
X10473773Y-17018807D01*
X10473773Y-17018807D02*
X10464249Y-17047378D01*
X10464249Y-17047378D02*
X10349964Y-17161664D01*
X10349964Y-17161664D02*
X10473773Y-17161664D01*
X10597583Y-16961664D02*
X10616630Y-16961664D01*
X10616630Y-16961664D02*
X10635678Y-16971188D01*
X10635678Y-16971188D02*
X10645202Y-16980711D01*
X10645202Y-16980711D02*
X10654725Y-16999759D01*
X10654725Y-16999759D02*
X10664249Y-17037854D01*
X10664249Y-17037854D02*
X10664249Y-17085473D01*
X10664249Y-17085473D02*
X10654725Y-17123569D01*
X10654725Y-17123569D02*
X10645202Y-17142616D01*
X10645202Y-17142616D02*
X10635678Y-17152140D01*
X10635678Y-17152140D02*
X10616630Y-17161664D01*
X10616630Y-17161664D02*
X10597583Y-17161664D01*
X10597583Y-17161664D02*
X10578535Y-17152140D01*
X10578535Y-17152140D02*
X10569011Y-17142616D01*
X10569011Y-17142616D02*
X10559487Y-17123569D01*
X10559487Y-17123569D02*
X10549964Y-17085473D01*
X10549964Y-17085473D02*
X10549964Y-17037854D01*
X10549964Y-17037854D02*
X10559487Y-16999759D01*
X10559487Y-16999759D02*
X10569011Y-16980711D01*
X10569011Y-16980711D02*
X10578535Y-16971188D01*
X10578535Y-16971188D02*
X10597583Y-16961664D01*
X10788059Y-16961664D02*
X10807106Y-16961664D01*
X10807106Y-16961664D02*
X10826154Y-16971188D01*
X10826154Y-16971188D02*
X10835678Y-16980711D01*
X10835678Y-16980711D02*
X10845202Y-16999759D01*
X10845202Y-16999759D02*
X10854725Y-17037854D01*
X10854725Y-17037854D02*
X10854725Y-17085473D01*
X10854725Y-17085473D02*
X10845202Y-17123569D01*
X10845202Y-17123569D02*
X10835678Y-17142616D01*
X10835678Y-17142616D02*
X10826154Y-17152140D01*
X10826154Y-17152140D02*
X10807106Y-17161664D01*
X10807106Y-17161664D02*
X10788059Y-17161664D01*
X10788059Y-17161664D02*
X10769011Y-17152140D01*
X10769011Y-17152140D02*
X10759487Y-17142616D01*
X10759487Y-17142616D02*
X10749964Y-17123569D01*
X10749964Y-17123569D02*
X10740440Y-17085473D01*
X10740440Y-17085473D02*
X10740440Y-17037854D01*
X10740440Y-17037854D02*
X10749964Y-16999759D01*
X10749964Y-16999759D02*
X10759487Y-16980711D01*
X10759487Y-16980711D02*
X10769011Y-16971188D01*
X10769011Y-16971188D02*
X10788059Y-16961664D01*
X10940440Y-17161664D02*
X10940440Y-17028330D01*
X10940440Y-17047378D02*
X10949964Y-17037854D01*
X10949964Y-17037854D02*
X10969011Y-17028330D01*
X10969011Y-17028330D02*
X10997583Y-17028330D01*
X10997583Y-17028330D02*
X11016630Y-17037854D01*
X11016630Y-17037854D02*
X11026154Y-17056902D01*
X11026154Y-17056902D02*
X11026154Y-17161664D01*
X11026154Y-17056902D02*
X11035678Y-17037854D01*
X11035678Y-17037854D02*
X11054725Y-17028330D01*
X11054725Y-17028330D02*
X11083297Y-17028330D01*
X11083297Y-17028330D02*
X11102345Y-17037854D01*
X11102345Y-17037854D02*
X11111868Y-17056902D01*
X11111868Y-17056902D02*
X11111868Y-17161664D01*
X11207106Y-17161664D02*
X11207106Y-17028330D01*
X11207106Y-17047378D02*
X11216630Y-17037854D01*
X11216630Y-17037854D02*
X11235678Y-17028330D01*
X11235678Y-17028330D02*
X11264249Y-17028330D01*
X11264249Y-17028330D02*
X11283297Y-17037854D01*
X11283297Y-17037854D02*
X11292821Y-17056902D01*
X11292821Y-17056902D02*
X11292821Y-17161664D01*
X11292821Y-17056902D02*
X11302344Y-17037854D01*
X11302344Y-17037854D02*
X11321392Y-17028330D01*
X11321392Y-17028330D02*
X11349963Y-17028330D01*
X11349963Y-17028330D02*
X11369011Y-17037854D01*
X11369011Y-17037854D02*
X11378535Y-17056902D01*
X11378535Y-17056902D02*
X11378535Y-17161664D01*
X11769011Y-16952140D02*
X11597583Y-17209283D01*
X12026154Y-16961664D02*
X12045202Y-16961664D01*
X12045202Y-16961664D02*
X12064249Y-16971188D01*
X12064249Y-16971188D02*
X12073773Y-16980711D01*
X12073773Y-16980711D02*
X12083297Y-16999759D01*
X12083297Y-16999759D02*
X12092821Y-17037854D01*
X12092821Y-17037854D02*
X12092821Y-17085473D01*
X12092821Y-17085473D02*
X12083297Y-17123569D01*
X12083297Y-17123569D02*
X12073773Y-17142616D01*
X12073773Y-17142616D02*
X12064249Y-17152140D01*
X12064249Y-17152140D02*
X12045202Y-17161664D01*
X12045202Y-17161664D02*
X12026154Y-17161664D01*
X12026154Y-17161664D02*
X12007106Y-17152140D01*
X12007106Y-17152140D02*
X11997583Y-17142616D01*
X11997583Y-17142616D02*
X11988059Y-17123569D01*
X11988059Y-17123569D02*
X11978535Y-17085473D01*
X11978535Y-17085473D02*
X11978535Y-17037854D01*
X11978535Y-17037854D02*
X11988059Y-16999759D01*
X11988059Y-16999759D02*
X11997583Y-16980711D01*
X11997583Y-16980711D02*
X12007106Y-16971188D01*
X12007106Y-16971188D02*
X12026154Y-16961664D01*
X12178535Y-17142616D02*
X12188059Y-17152140D01*
X12188059Y-17152140D02*
X12178535Y-17161664D01*
X12178535Y-17161664D02*
X12169011Y-17152140D01*
X12169011Y-17152140D02*
X12178535Y-17142616D01*
X12178535Y-17142616D02*
X12178535Y-17161664D01*
X12378535Y-17161664D02*
X12264249Y-17161664D01*
X12321392Y-17161664D02*
X12321392Y-16961664D01*
X12321392Y-16961664D02*
X12302345Y-16990235D01*
X12302345Y-16990235D02*
X12283297Y-17009283D01*
X12283297Y-17009283D02*
X12264249Y-17018807D01*
X12454726Y-16980711D02*
X12464249Y-16971188D01*
X12464249Y-16971188D02*
X12483297Y-16961664D01*
X12483297Y-16961664D02*
X12530916Y-16961664D01*
X12530916Y-16961664D02*
X12549964Y-16971188D01*
X12549964Y-16971188D02*
X12559487Y-16980711D01*
X12559487Y-16980711D02*
X12569011Y-16999759D01*
X12569011Y-16999759D02*
X12569011Y-17018807D01*
X12569011Y-17018807D02*
X12559487Y-17047378D01*
X12559487Y-17047378D02*
X12445202Y-17161664D01*
X12445202Y-17161664D02*
X12569011Y-17161664D01*
X12740440Y-16961664D02*
X12702345Y-16961664D01*
X12702345Y-16961664D02*
X12683297Y-16971188D01*
X12683297Y-16971188D02*
X12673773Y-16980711D01*
X12673773Y-16980711D02*
X12654726Y-17009283D01*
X12654726Y-17009283D02*
X12645202Y-17047378D01*
X12645202Y-17047378D02*
X12645202Y-17123569D01*
X12645202Y-17123569D02*
X12654726Y-17142616D01*
X12654726Y-17142616D02*
X12664249Y-17152140D01*
X12664249Y-17152140D02*
X12683297Y-17161664D01*
X12683297Y-17161664D02*
X12721392Y-17161664D01*
X12721392Y-17161664D02*
X12740440Y-17152140D01*
X12740440Y-17152140D02*
X12749964Y-17142616D01*
X12749964Y-17142616D02*
X12759487Y-17123569D01*
X12759487Y-17123569D02*
X12759487Y-17075950D01*
X12759487Y-17075950D02*
X12749964Y-17056902D01*
X12749964Y-17056902D02*
X12740440Y-17047378D01*
X12740440Y-17047378D02*
X12721392Y-17037854D01*
X12721392Y-17037854D02*
X12683297Y-17037854D01*
X12683297Y-17037854D02*
X12664249Y-17047378D01*
X12664249Y-17047378D02*
X12654726Y-17056902D01*
X12654726Y-17056902D02*
X12645202Y-17075950D01*
X12883297Y-16961664D02*
X12902345Y-16961664D01*
X12902345Y-16961664D02*
X12921392Y-16971188D01*
X12921392Y-16971188D02*
X12930916Y-16980711D01*
X12930916Y-16980711D02*
X12940440Y-16999759D01*
X12940440Y-16999759D02*
X12949964Y-17037854D01*
X12949964Y-17037854D02*
X12949964Y-17085473D01*
X12949964Y-17085473D02*
X12940440Y-17123569D01*
X12940440Y-17123569D02*
X12930916Y-17142616D01*
X12930916Y-17142616D02*
X12921392Y-17152140D01*
X12921392Y-17152140D02*
X12902345Y-17161664D01*
X12902345Y-17161664D02*
X12883297Y-17161664D01*
X12883297Y-17161664D02*
X12864249Y-17152140D01*
X12864249Y-17152140D02*
X12854726Y-17142616D01*
X12854726Y-17142616D02*
X12845202Y-17123569D01*
X12845202Y-17123569D02*
X12835678Y-17085473D01*
X12835678Y-17085473D02*
X12835678Y-17037854D01*
X12835678Y-17037854D02*
X12845202Y-16999759D01*
X12845202Y-16999759D02*
X12854726Y-16980711D01*
X12854726Y-16980711D02*
X12864249Y-16971188D01*
X12864249Y-16971188D02*
X12883297Y-16961664D01*
X13026154Y-16961664D02*
X13026154Y-16999759D01*
X13102345Y-16961664D02*
X13102345Y-16999759D01*
X13397583Y-17237854D02*
X13388059Y-17228330D01*
X13388059Y-17228330D02*
X13369011Y-17199759D01*
X13369011Y-17199759D02*
X13359488Y-17180711D01*
X13359488Y-17180711D02*
X13349964Y-17152140D01*
X13349964Y-17152140D02*
X13340440Y-17104521D01*
X13340440Y-17104521D02*
X13340440Y-17066426D01*
X13340440Y-17066426D02*
X13349964Y-17018807D01*
X13349964Y-17018807D02*
X13359488Y-16990235D01*
X13359488Y-16990235D02*
X13369011Y-16971188D01*
X13369011Y-16971188D02*
X13388059Y-16942616D01*
X13388059Y-16942616D02*
X13397583Y-16933092D01*
X13559488Y-17028330D02*
X13559488Y-17161664D01*
X13511868Y-16952140D02*
X13464249Y-17094997D01*
X13464249Y-17094997D02*
X13588059Y-17094997D01*
X13816630Y-17161664D02*
X13816630Y-16961664D01*
X13902345Y-17161664D02*
X13902345Y-17056902D01*
X13902345Y-17056902D02*
X13892821Y-17037854D01*
X13892821Y-17037854D02*
X13873773Y-17028330D01*
X13873773Y-17028330D02*
X13845202Y-17028330D01*
X13845202Y-17028330D02*
X13826154Y-17037854D01*
X13826154Y-17037854D02*
X13816630Y-17047378D01*
X14026154Y-17161664D02*
X14007107Y-17152140D01*
X14007107Y-17152140D02*
X13997583Y-17142616D01*
X13997583Y-17142616D02*
X13988059Y-17123569D01*
X13988059Y-17123569D02*
X13988059Y-17066426D01*
X13988059Y-17066426D02*
X13997583Y-17047378D01*
X13997583Y-17047378D02*
X14007107Y-17037854D01*
X14007107Y-17037854D02*
X14026154Y-17028330D01*
X14026154Y-17028330D02*
X14054726Y-17028330D01*
X14054726Y-17028330D02*
X14073773Y-17037854D01*
X14073773Y-17037854D02*
X14083297Y-17047378D01*
X14083297Y-17047378D02*
X14092821Y-17066426D01*
X14092821Y-17066426D02*
X14092821Y-17123569D01*
X14092821Y-17123569D02*
X14083297Y-17142616D01*
X14083297Y-17142616D02*
X14073773Y-17152140D01*
X14073773Y-17152140D02*
X14054726Y-17161664D01*
X14054726Y-17161664D02*
X14026154Y-17161664D01*
X14207107Y-17161664D02*
X14188059Y-17152140D01*
X14188059Y-17152140D02*
X14178535Y-17133092D01*
X14178535Y-17133092D02*
X14178535Y-16961664D01*
X14359488Y-17152140D02*
X14340440Y-17161664D01*
X14340440Y-17161664D02*
X14302345Y-17161664D01*
X14302345Y-17161664D02*
X14283297Y-17152140D01*
X14283297Y-17152140D02*
X14273773Y-17133092D01*
X14273773Y-17133092D02*
X14273773Y-17056902D01*
X14273773Y-17056902D02*
X14283297Y-17037854D01*
X14283297Y-17037854D02*
X14302345Y-17028330D01*
X14302345Y-17028330D02*
X14340440Y-17028330D01*
X14340440Y-17028330D02*
X14359488Y-17037854D01*
X14359488Y-17037854D02*
X14369011Y-17056902D01*
X14369011Y-17056902D02*
X14369011Y-17075950D01*
X14369011Y-17075950D02*
X14273773Y-17094997D01*
X14445202Y-17152140D02*
X14464250Y-17161664D01*
X14464250Y-17161664D02*
X14502345Y-17161664D01*
X14502345Y-17161664D02*
X14521392Y-17152140D01*
X14521392Y-17152140D02*
X14530916Y-17133092D01*
X14530916Y-17133092D02*
X14530916Y-17123569D01*
X14530916Y-17123569D02*
X14521392Y-17104521D01*
X14521392Y-17104521D02*
X14502345Y-17094997D01*
X14502345Y-17094997D02*
X14473773Y-17094997D01*
X14473773Y-17094997D02*
X14454726Y-17085473D01*
X14454726Y-17085473D02*
X14445202Y-17066426D01*
X14445202Y-17066426D02*
X14445202Y-17056902D01*
X14445202Y-17056902D02*
X14454726Y-17037854D01*
X14454726Y-17037854D02*
X14473773Y-17028330D01*
X14473773Y-17028330D02*
X14502345Y-17028330D01*
X14502345Y-17028330D02*
X14521392Y-17037854D01*
X14597583Y-17237854D02*
X14607107Y-17228330D01*
X14607107Y-17228330D02*
X14626154Y-17199759D01*
X14626154Y-17199759D02*
X14635678Y-17180711D01*
X14635678Y-17180711D02*
X14645202Y-17152140D01*
X14645202Y-17152140D02*
X14654726Y-17104521D01*
X14654726Y-17104521D02*
X14654726Y-17066426D01*
X14654726Y-17066426D02*
X14645202Y-17018807D01*
X14645202Y-17018807D02*
X14635678Y-16990235D01*
X14635678Y-16990235D02*
X14626154Y-16971188D01*
X14626154Y-16971188D02*
X14607107Y-16942616D01*
X14607107Y-16942616D02*
X14597583Y-16933092D01*
M02*
