%TF.GenerationSoftware,KiCad,Pcbnew,7.0.2-0*%
%TF.CreationDate,2024-05-08T20:56:18-07:00*%
%TF.ProjectId,RPi_interface,5250695f-696e-4746-9572-666163652e6b,1.1*%
%TF.SameCoordinates,Original*%
%TF.FileFunction,Drillmap*%
%TF.FilePolarity,Positive*%
%FSLAX45Y45*%
G04 Gerber Fmt 4.5, Leading zero omitted, Abs format (unit mm)*
G04 Created by KiCad (PCBNEW 7.0.2-0) date 2024-05-08 20:56:18*
%MOMM*%
%LPD*%
G01*
G04 APERTURE LIST*
%ADD10C,0.150000*%
%ADD11C,0.200000*%
%ADD12C,0.040000*%
%ADD13C,0.070000*%
%ADD14C,0.080000*%
%ADD15C,0.100000*%
%ADD16C,0.170000*%
%ADD17C,0.270000*%
G04 APERTURE END LIST*
D10*
X14300000Y-4800000D02*
X9300000Y-4800000D01*
X11050000Y-9400000D02*
X9300000Y-9400000D01*
X14300000Y-11300000D02*
X9300000Y-11300000D01*
X9300000Y-4800000D02*
G75*
G03*
X9000000Y-5100000I0J-300000D01*
G01*
X9300000Y-9400000D02*
G75*
G03*
X9000000Y-9700000I0J-300000D01*
G01*
X9000000Y-11000000D02*
G75*
G03*
X9300000Y-11300000I300000J0D01*
G01*
X14300000Y-11300000D02*
G75*
G03*
X14600000Y-11000000I0J300000D01*
G01*
X11050000Y-9100000D02*
X11050000Y-9400000D01*
X9000000Y-5100000D02*
X9000000Y-8800000D01*
X14600000Y-5100000D02*
G75*
G03*
X14300000Y-4800000I-300000J0D01*
G01*
X9000000Y-11000000D02*
X9000000Y-9700000D01*
X9000000Y-8800000D02*
G75*
G03*
X9300000Y-9100000I300000J0D01*
G01*
X14600000Y-11000000D02*
X14600000Y-5100000D01*
X9300000Y-9100000D02*
X11050000Y-9100000D01*
D11*
D12*
X9139800Y-10378000D02*
X9179800Y-10418000D01*
X9179800Y-10378000D02*
X9139800Y-10418000D01*
X9139800Y-10465500D02*
X9179800Y-10505500D01*
X9179800Y-10465500D02*
X9139800Y-10505500D01*
X9139800Y-10553000D02*
X9179800Y-10593000D01*
X9179800Y-10553000D02*
X9139800Y-10593000D01*
X9143000Y-9688000D02*
X9183000Y-9728000D01*
X9183000Y-9688000D02*
X9143000Y-9728000D01*
X9143000Y-9778000D02*
X9183000Y-9818000D01*
X9183000Y-9778000D02*
X9143000Y-9818000D01*
X9233000Y-9688000D02*
X9273000Y-9728000D01*
X9273000Y-9688000D02*
X9233000Y-9728000D01*
X9233000Y-9778000D02*
X9273000Y-9818000D01*
X9273000Y-9778000D02*
X9233000Y-9818000D01*
X9237300Y-10378000D02*
X9277300Y-10418000D01*
X9277300Y-10378000D02*
X9237300Y-10418000D01*
X9237300Y-10465500D02*
X9277300Y-10505500D01*
X9277300Y-10465500D02*
X9237300Y-10505500D01*
X9237300Y-10553000D02*
X9277300Y-10593000D01*
X9277300Y-10553000D02*
X9237300Y-10593000D01*
X9323000Y-9688000D02*
X9363000Y-9728000D01*
X9363000Y-9688000D02*
X9323000Y-9728000D01*
X9323000Y-9778000D02*
X9363000Y-9818000D01*
X9363000Y-9778000D02*
X9323000Y-9818000D01*
X9332300Y-10378000D02*
X9372300Y-10418000D01*
X9372300Y-10378000D02*
X9332300Y-10418000D01*
X9332300Y-10465500D02*
X9372300Y-10505500D01*
X9372300Y-10465500D02*
X9332300Y-10505500D01*
X9332300Y-10553000D02*
X9372300Y-10593000D01*
X9372300Y-10553000D02*
X9332300Y-10593000D01*
X9427300Y-10378000D02*
X9467300Y-10418000D01*
X9467300Y-10378000D02*
X9427300Y-10418000D01*
X9427300Y-10465500D02*
X9467300Y-10505500D01*
X9467300Y-10465500D02*
X9427300Y-10505500D01*
X9427300Y-10553000D02*
X9467300Y-10593000D01*
X9467300Y-10553000D02*
X9427300Y-10593000D01*
X9465000Y-9460000D02*
X9505000Y-9500000D01*
X9505000Y-9460000D02*
X9465000Y-9500000D01*
X9522300Y-10378000D02*
X9562300Y-10418000D01*
X9562300Y-10378000D02*
X9522300Y-10418000D01*
X9522300Y-10465500D02*
X9562300Y-10505500D01*
X9562300Y-10465500D02*
X9522300Y-10505500D01*
X9522300Y-10553000D02*
X9562300Y-10593000D01*
X9562300Y-10553000D02*
X9522300Y-10593000D01*
X9619800Y-10378000D02*
X9659800Y-10418000D01*
X9659800Y-10378000D02*
X9619800Y-10418000D01*
X9619800Y-10465500D02*
X9659800Y-10505500D01*
X9659800Y-10465500D02*
X9619800Y-10505500D01*
X9619800Y-10553000D02*
X9659800Y-10593000D01*
X9659800Y-10553000D02*
X9619800Y-10593000D01*
X9706000Y-9802000D02*
X9746000Y-9842000D01*
X9746000Y-9802000D02*
X9706000Y-9842000D01*
X9706000Y-9892000D02*
X9746000Y-9932000D01*
X9746000Y-9892000D02*
X9706000Y-9932000D01*
X9706000Y-9982000D02*
X9746000Y-10022000D01*
X9746000Y-9982000D02*
X9706000Y-10022000D01*
X9714800Y-10378000D02*
X9754800Y-10418000D01*
X9754800Y-10378000D02*
X9714800Y-10418000D01*
X9714800Y-10465500D02*
X9754800Y-10505500D01*
X9754800Y-10465500D02*
X9714800Y-10505500D01*
X9714800Y-10553000D02*
X9754800Y-10593000D01*
X9754800Y-10553000D02*
X9714800Y-10593000D01*
X9796000Y-9802000D02*
X9836000Y-9842000D01*
X9836000Y-9802000D02*
X9796000Y-9842000D01*
X9796000Y-9892000D02*
X9836000Y-9932000D01*
X9836000Y-9892000D02*
X9796000Y-9932000D01*
X9796000Y-9982000D02*
X9836000Y-10022000D01*
X9836000Y-9982000D02*
X9796000Y-10022000D01*
X9809800Y-10378000D02*
X9849800Y-10418000D01*
X9849800Y-10378000D02*
X9809800Y-10418000D01*
X9809800Y-10465500D02*
X9849800Y-10505500D01*
X9849800Y-10465500D02*
X9809800Y-10505500D01*
X9809800Y-10553000D02*
X9849800Y-10593000D01*
X9849800Y-10553000D02*
X9809800Y-10593000D01*
X9857500Y-8452500D02*
X9897500Y-8492500D01*
X9897500Y-8452500D02*
X9857500Y-8492500D01*
X9857500Y-8547500D02*
X9897500Y-8587500D01*
X9897500Y-8547500D02*
X9857500Y-8587500D01*
X9945000Y-8452500D02*
X9985000Y-8492500D01*
X9985000Y-8452500D02*
X9945000Y-8492500D01*
X9945000Y-8547500D02*
X9985000Y-8587500D01*
X9985000Y-8547500D02*
X9945000Y-8587500D01*
X9981134Y-8158866D02*
X10021134Y-8198866D01*
X10021134Y-8158866D02*
X9981134Y-8198866D01*
X10036134Y-8248866D02*
X10076134Y-8288866D01*
X10076134Y-8248866D02*
X10036134Y-8288866D01*
X10076134Y-8158866D02*
X10116134Y-8198866D01*
X10116134Y-8158866D02*
X10076134Y-8198866D01*
X10131134Y-8248866D02*
X10171134Y-8288866D01*
X10171134Y-8248866D02*
X10131134Y-8288866D01*
X10444250Y-6855750D02*
X10484250Y-6895750D01*
X10484250Y-6855750D02*
X10444250Y-6895750D01*
X10524250Y-6775750D02*
X10564250Y-6815750D01*
X10564250Y-6775750D02*
X10524250Y-6815750D01*
X10561134Y-7408866D02*
X10601134Y-7448866D01*
X10601134Y-7408866D02*
X10561134Y-7448866D01*
X10561134Y-7503866D02*
X10601134Y-7543866D01*
X10601134Y-7503866D02*
X10561134Y-7543866D01*
X10561134Y-7598866D02*
X10601134Y-7638866D01*
X10601134Y-7598866D02*
X10561134Y-7638866D01*
X10561134Y-7696366D02*
X10601134Y-7736366D01*
X10601134Y-7696366D02*
X10561134Y-7736366D01*
X10648634Y-7408866D02*
X10688634Y-7448866D01*
X10688634Y-7408866D02*
X10648634Y-7448866D01*
X10648634Y-7503866D02*
X10688634Y-7543866D01*
X10688634Y-7503866D02*
X10648634Y-7543866D01*
X10648634Y-7598866D02*
X10688634Y-7638866D01*
X10688634Y-7598866D02*
X10648634Y-7638866D01*
X10648634Y-7696366D02*
X10688634Y-7736366D01*
X10688634Y-7696366D02*
X10648634Y-7736366D01*
X10736134Y-7408866D02*
X10776134Y-7448866D01*
X10776134Y-7408866D02*
X10736134Y-7448866D01*
X10736134Y-7503866D02*
X10776134Y-7543866D01*
X10776134Y-7503866D02*
X10736134Y-7543866D01*
X10736134Y-7598866D02*
X10776134Y-7638866D01*
X10776134Y-7598866D02*
X10736134Y-7638866D01*
X10736134Y-7696366D02*
X10776134Y-7736366D01*
X10776134Y-7696366D02*
X10736134Y-7736366D01*
X10837500Y-7880000D02*
X10877500Y-7920000D01*
X10877500Y-7880000D02*
X10837500Y-7920000D01*
X10837500Y-7975000D02*
X10877500Y-8015000D01*
X10877500Y-7975000D02*
X10837500Y-8015000D01*
X10881000Y-8342500D02*
X10921000Y-8382500D01*
X10921000Y-8342500D02*
X10881000Y-8382500D01*
X10881000Y-8440000D02*
X10921000Y-8480000D01*
X10921000Y-8440000D02*
X10881000Y-8480000D01*
X10925000Y-7880000D02*
X10965000Y-7920000D01*
X10965000Y-7880000D02*
X10925000Y-7920000D01*
X10925000Y-7975000D02*
X10965000Y-8015000D01*
X10965000Y-7975000D02*
X10925000Y-8015000D01*
X10968500Y-8342500D02*
X11008500Y-8382500D01*
X11008500Y-8342500D02*
X10968500Y-8382500D01*
X10968500Y-8440000D02*
X11008500Y-8480000D01*
X11008500Y-8440000D02*
X10968500Y-8480000D01*
X11012500Y-7880000D02*
X11052500Y-7920000D01*
X11052500Y-7880000D02*
X11012500Y-7920000D01*
X11012500Y-7975000D02*
X11052500Y-8015000D01*
X11052500Y-7975000D02*
X11012500Y-8015000D01*
X11056000Y-8342500D02*
X11096000Y-8382500D01*
X11096000Y-8342500D02*
X11056000Y-8382500D01*
X11056000Y-8440000D02*
X11096000Y-8480000D01*
X11096000Y-8440000D02*
X11056000Y-8480000D01*
X11197954Y-7859000D02*
X11237954Y-7899000D01*
X11237954Y-7859000D02*
X11197954Y-7899000D01*
X11208634Y-8461366D02*
X11248634Y-8501366D01*
X11248634Y-8461366D02*
X11208634Y-8501366D01*
X11263000Y-6773000D02*
X11303000Y-6813000D01*
X11303000Y-6773000D02*
X11263000Y-6813000D01*
X11298634Y-8551366D02*
X11338634Y-8591366D01*
X11338634Y-8551366D02*
X11298634Y-8591366D01*
X11303634Y-8461366D02*
X11343634Y-8501366D01*
X11343634Y-8461366D02*
X11303634Y-8501366D01*
X11343000Y-6693000D02*
X11383000Y-6733000D01*
X11383000Y-6693000D02*
X11343000Y-6733000D01*
X11393634Y-8551366D02*
X11433634Y-8591366D01*
X11433634Y-8551366D02*
X11393634Y-8591366D01*
X11503634Y-8101366D02*
X11543634Y-8141366D01*
X11543634Y-8101366D02*
X11503634Y-8141366D01*
X11532500Y-9060000D02*
X11572500Y-9100000D01*
X11572500Y-9060000D02*
X11532500Y-9100000D01*
X11542500Y-5895000D02*
X11582500Y-5935000D01*
X11582500Y-5895000D02*
X11542500Y-5935000D01*
X11542500Y-5990000D02*
X11582500Y-6030000D01*
X11582500Y-5990000D02*
X11542500Y-6030000D01*
X11630000Y-5895000D02*
X11670000Y-5935000D01*
X11670000Y-5895000D02*
X11630000Y-5935000D01*
X11630000Y-5990000D02*
X11670000Y-6030000D01*
X11670000Y-5990000D02*
X11630000Y-6030000D01*
X11691230Y-8948730D02*
X11731230Y-8988730D01*
X11731230Y-8948730D02*
X11691230Y-8988730D01*
X11713634Y-7741366D02*
X11753634Y-7781366D01*
X11753634Y-7741366D02*
X11713634Y-7781366D01*
X11717500Y-5895000D02*
X11757500Y-5935000D01*
X11757500Y-5895000D02*
X11717500Y-5935000D01*
X11717500Y-5990000D02*
X11757500Y-6030000D01*
X11757500Y-5990000D02*
X11717500Y-6030000D01*
X11743634Y-7981366D02*
X11783634Y-8021366D01*
X11783634Y-7981366D02*
X11743634Y-8021366D01*
X11743634Y-8181366D02*
X11783634Y-8221366D01*
X11783634Y-8181366D02*
X11743634Y-8221366D01*
X11952500Y-6645000D02*
X11992500Y-6685000D01*
X11992500Y-6645000D02*
X11952500Y-6685000D01*
X11952500Y-6740000D02*
X11992500Y-6780000D01*
X11992500Y-6740000D02*
X11952500Y-6780000D01*
X12037948Y-7217416D02*
X12077948Y-7257416D01*
X12077948Y-7217416D02*
X12037948Y-7257416D01*
X12040000Y-6645000D02*
X12080000Y-6685000D01*
X12080000Y-6645000D02*
X12040000Y-6685000D01*
X12040000Y-6740000D02*
X12080000Y-6780000D01*
X12080000Y-6740000D02*
X12040000Y-6780000D01*
X12127500Y-6645000D02*
X12167500Y-6685000D01*
X12167500Y-6645000D02*
X12127500Y-6685000D01*
X12127500Y-6740000D02*
X12167500Y-6780000D01*
X12167500Y-6740000D02*
X12127500Y-6780000D01*
X12200000Y-7135000D02*
X12240000Y-7175000D01*
X12240000Y-7135000D02*
X12200000Y-7175000D01*
X12410000Y-9867500D02*
X12450000Y-9907500D01*
X12450000Y-9867500D02*
X12410000Y-9907500D01*
X12416000Y-7281000D02*
X12456000Y-7321000D01*
X12456000Y-7281000D02*
X12416000Y-7321000D01*
X12435000Y-5225000D02*
X12475000Y-5265000D01*
X12475000Y-5225000D02*
X12435000Y-5265000D01*
X12435000Y-5322500D02*
X12475000Y-5362500D01*
X12475000Y-5322500D02*
X12435000Y-5362500D01*
X12435000Y-5417500D02*
X12475000Y-5457500D01*
X12475000Y-5417500D02*
X12435000Y-5457500D01*
X12435000Y-5512500D02*
X12475000Y-5552500D01*
X12475000Y-5512500D02*
X12435000Y-5552500D01*
X12477500Y-5952500D02*
X12517500Y-5992500D01*
X12517500Y-5952500D02*
X12477500Y-5992500D01*
X12522500Y-5225000D02*
X12562500Y-5265000D01*
X12562500Y-5225000D02*
X12522500Y-5265000D01*
X12522500Y-5322500D02*
X12562500Y-5362500D01*
X12562500Y-5322500D02*
X12522500Y-5362500D01*
X12522500Y-5417500D02*
X12562500Y-5457500D01*
X12562500Y-5417500D02*
X12522500Y-5457500D01*
X12522500Y-5512500D02*
X12562500Y-5552500D01*
X12562500Y-5512500D02*
X12522500Y-5552500D01*
X12542500Y-7282500D02*
X12582500Y-7322500D01*
X12582500Y-7282500D02*
X12542500Y-7322500D01*
X12610000Y-5225000D02*
X12650000Y-5265000D01*
X12650000Y-5225000D02*
X12610000Y-5265000D01*
X12610000Y-5322500D02*
X12650000Y-5362500D01*
X12650000Y-5322500D02*
X12610000Y-5362500D01*
X12610000Y-5417500D02*
X12650000Y-5457500D01*
X12650000Y-5417500D02*
X12610000Y-5457500D01*
X12610000Y-5512500D02*
X12650000Y-5552500D01*
X12650000Y-5512500D02*
X12610000Y-5552500D01*
X12610000Y-9867500D02*
X12650000Y-9907500D01*
X12650000Y-9867500D02*
X12610000Y-9907500D01*
X12670000Y-7470000D02*
X12710000Y-7510000D01*
X12710000Y-7470000D02*
X12670000Y-7510000D01*
X12717500Y-6187500D02*
X12757500Y-6227500D01*
X12757500Y-6187500D02*
X12717500Y-6227500D01*
X12898500Y-8821000D02*
X12938500Y-8861000D01*
X12938500Y-8821000D02*
X12898500Y-8861000D01*
X12898500Y-8908500D02*
X12938500Y-8948500D01*
X12938500Y-8908500D02*
X12898500Y-8948500D01*
X12898500Y-8996000D02*
X12938500Y-9036000D01*
X12938500Y-8996000D02*
X12898500Y-9036000D01*
X12993500Y-8821000D02*
X13033500Y-8861000D01*
X13033500Y-8821000D02*
X12993500Y-8861000D01*
X12993500Y-8908500D02*
X13033500Y-8948500D01*
X13033500Y-8908500D02*
X12993500Y-8948500D01*
X12993500Y-8996000D02*
X13033500Y-9036000D01*
X13033500Y-8996000D02*
X12993500Y-9036000D01*
X13015000Y-5392500D02*
X13055000Y-5432500D01*
X13055000Y-5392500D02*
X13015000Y-5432500D01*
X13015000Y-5480000D02*
X13055000Y-5520000D01*
X13055000Y-5480000D02*
X13015000Y-5520000D01*
X13015000Y-5567500D02*
X13055000Y-5607500D01*
X13055000Y-5567500D02*
X13015000Y-5607500D01*
X13088500Y-8821000D02*
X13128500Y-8861000D01*
X13128500Y-8821000D02*
X13088500Y-8861000D01*
X13088500Y-8908500D02*
X13128500Y-8948500D01*
X13128500Y-8908500D02*
X13088500Y-8948500D01*
X13088500Y-8996000D02*
X13128500Y-9036000D01*
X13128500Y-8996000D02*
X13088500Y-9036000D01*
X13097500Y-6365000D02*
X13137500Y-6405000D01*
X13137500Y-6365000D02*
X13097500Y-6405000D01*
X13097500Y-6460000D02*
X13137500Y-6500000D01*
X13137500Y-6460000D02*
X13097500Y-6500000D01*
X13110000Y-5392500D02*
X13150000Y-5432500D01*
X13150000Y-5392500D02*
X13110000Y-5432500D01*
X13110000Y-5480000D02*
X13150000Y-5520000D01*
X13150000Y-5480000D02*
X13110000Y-5520000D01*
X13110000Y-5567500D02*
X13150000Y-5607500D01*
X13150000Y-5567500D02*
X13110000Y-5607500D01*
X13185000Y-6365000D02*
X13225000Y-6405000D01*
X13225000Y-6365000D02*
X13185000Y-6405000D01*
X13185000Y-6460000D02*
X13225000Y-6500000D01*
X13225000Y-6460000D02*
X13185000Y-6500000D01*
X13186000Y-8821000D02*
X13226000Y-8861000D01*
X13226000Y-8821000D02*
X13186000Y-8861000D01*
X13186000Y-8908500D02*
X13226000Y-8948500D01*
X13226000Y-8908500D02*
X13186000Y-8948500D01*
X13186000Y-8996000D02*
X13226000Y-9036000D01*
X13226000Y-8996000D02*
X13186000Y-9036000D01*
X13205000Y-5392500D02*
X13245000Y-5432500D01*
X13245000Y-5392500D02*
X13205000Y-5432500D01*
X13205000Y-5480000D02*
X13245000Y-5520000D01*
X13245000Y-5480000D02*
X13205000Y-5520000D01*
X13205000Y-5567500D02*
X13245000Y-5607500D01*
X13245000Y-5567500D02*
X13205000Y-5607500D01*
X13272500Y-6365000D02*
X13312500Y-6405000D01*
X13312500Y-6365000D02*
X13272500Y-6405000D01*
X13272500Y-6460000D02*
X13312500Y-6500000D01*
X13312500Y-6460000D02*
X13272500Y-6500000D01*
X13302500Y-5392500D02*
X13342500Y-5432500D01*
X13342500Y-5392500D02*
X13302500Y-5432500D01*
X13302500Y-5480000D02*
X13342500Y-5520000D01*
X13342500Y-5480000D02*
X13302500Y-5520000D01*
X13302500Y-5567500D02*
X13342500Y-5607500D01*
X13342500Y-5567500D02*
X13302500Y-5607500D01*
X13540050Y-8280000D02*
X13580050Y-8320000D01*
X13580050Y-8280000D02*
X13540050Y-8320000D01*
X13870000Y-6805000D02*
X13910000Y-6845000D01*
X13910000Y-6805000D02*
X13870000Y-6845000D01*
X13940000Y-8527500D02*
X13980000Y-8567500D01*
X13980000Y-8527500D02*
X13940000Y-8567500D01*
D13*
X12125000Y-8846000D02*
G75*
G03*
X12125000Y-8846000I-35000J0D01*
G01*
X12125000Y-9354000D02*
G75*
G03*
X12125000Y-9354000I-35000J0D01*
G01*
D14*
X9282500Y-10120000D02*
X9282500Y-10200000D01*
X9242500Y-10160000D02*
X9322500Y-10160000D01*
X9482500Y-10120000D02*
X9482500Y-10200000D01*
X9442500Y-10160000D02*
X9522500Y-10160000D01*
X9682500Y-10120000D02*
X9682500Y-10200000D01*
X9642500Y-10160000D02*
X9722500Y-10160000D01*
X9882500Y-10120000D02*
X9882500Y-10200000D01*
X9842500Y-10160000D02*
X9922500Y-10160000D01*
X10082500Y-10120000D02*
X10082500Y-10200000D01*
X10042500Y-10160000D02*
X10122500Y-10160000D01*
X10282500Y-10120000D02*
X10282500Y-10200000D01*
X10242500Y-10160000D02*
X10322500Y-10160000D01*
X10482500Y-10120000D02*
X10482500Y-10200000D01*
X10442500Y-10160000D02*
X10522500Y-10160000D01*
X10682500Y-10120000D02*
X10682500Y-10200000D01*
X10642500Y-10160000D02*
X10722500Y-10160000D01*
X10882500Y-10120000D02*
X10882500Y-10200000D01*
X10842500Y-10160000D02*
X10922500Y-10160000D01*
D15*
X11085356Y-5781356D02*
X11085356Y-5710644D01*
X11014644Y-5710644D01*
X11014644Y-5781356D01*
X11085356Y-5781356D01*
X11085356Y-6035356D02*
X11085356Y-5964644D01*
X11014644Y-5964644D01*
X11014644Y-6035356D01*
X11085356Y-6035356D01*
X11085356Y-6289356D02*
X11085356Y-6218644D01*
X11014644Y-6218644D01*
X11014644Y-6289356D01*
X11085356Y-6289356D01*
X14158356Y-5672356D02*
X14158356Y-5601644D01*
X14087644Y-5601644D01*
X14087644Y-5672356D01*
X14158356Y-5672356D01*
X14158356Y-5926356D02*
X14158356Y-5855644D01*
X14087644Y-5855644D01*
X14087644Y-5926356D01*
X14158356Y-5926356D01*
X14158356Y-6180356D02*
X14158356Y-6109644D01*
X14087644Y-6109644D01*
X14087644Y-6180356D01*
X14158356Y-6180356D01*
X14158356Y-6434356D02*
X14158356Y-6363644D01*
X14087644Y-6363644D01*
X14087644Y-6434356D01*
X14158356Y-6434356D01*
X14158356Y-6688356D02*
X14158356Y-6617644D01*
X14087644Y-6617644D01*
X14087644Y-6688356D01*
X14158356Y-6688356D01*
X14158356Y-6942356D02*
X14158356Y-6871644D01*
X14087644Y-6871644D01*
X14087644Y-6942356D01*
X14158356Y-6942356D01*
X14158356Y-7196356D02*
X14158356Y-7125644D01*
X14087644Y-7125644D01*
X14087644Y-7196356D01*
X14158356Y-7196356D01*
X14158356Y-7450356D02*
X14158356Y-7379644D01*
X14087644Y-7379644D01*
X14087644Y-7450356D01*
X14158356Y-7450356D01*
X14158356Y-7704356D02*
X14158356Y-7633644D01*
X14087644Y-7633644D01*
X14087644Y-7704356D01*
X14158356Y-7704356D01*
X14158356Y-7958356D02*
X14158356Y-7887644D01*
X14087644Y-7887644D01*
X14087644Y-7958356D01*
X14158356Y-7958356D01*
X14158356Y-8212356D02*
X14158356Y-8141644D01*
X14087644Y-8141644D01*
X14087644Y-8212356D01*
X14158356Y-8212356D01*
X14158356Y-8466356D02*
X14158356Y-8395644D01*
X14087644Y-8395644D01*
X14087644Y-8466356D01*
X14158356Y-8466356D01*
X14158356Y-8720356D02*
X14158356Y-8649644D01*
X14087644Y-8649644D01*
X14087644Y-8720356D01*
X14158356Y-8720356D01*
X14158356Y-8974356D02*
X14158356Y-8903644D01*
X14087644Y-8903644D01*
X14087644Y-8974356D01*
X14158356Y-8974356D01*
X14158356Y-9228356D02*
X14158356Y-9157644D01*
X14087644Y-9157644D01*
X14087644Y-9228356D01*
X14158356Y-9228356D01*
X14158356Y-9482356D02*
X14158356Y-9411644D01*
X14087644Y-9411644D01*
X14087644Y-9482356D01*
X14158356Y-9482356D01*
X14158356Y-9736356D02*
X14158356Y-9665644D01*
X14087644Y-9665644D01*
X14087644Y-9736356D01*
X14158356Y-9736356D01*
X14158356Y-9990356D02*
X14158356Y-9919644D01*
X14087644Y-9919644D01*
X14087644Y-9990356D01*
X14158356Y-9990356D01*
X14158356Y-10244356D02*
X14158356Y-10173644D01*
X14087644Y-10173644D01*
X14087644Y-10244356D01*
X14158356Y-10244356D01*
X14158356Y-10498356D02*
X14158356Y-10427644D01*
X14087644Y-10427644D01*
X14087644Y-10498356D01*
X14158356Y-10498356D01*
X14412356Y-5672356D02*
X14412356Y-5601644D01*
X14341644Y-5601644D01*
X14341644Y-5672356D01*
X14412356Y-5672356D01*
X14412356Y-5926356D02*
X14412356Y-5855644D01*
X14341644Y-5855644D01*
X14341644Y-5926356D01*
X14412356Y-5926356D01*
X14412356Y-6180356D02*
X14412356Y-6109644D01*
X14341644Y-6109644D01*
X14341644Y-6180356D01*
X14412356Y-6180356D01*
X14412356Y-6434356D02*
X14412356Y-6363644D01*
X14341644Y-6363644D01*
X14341644Y-6434356D01*
X14412356Y-6434356D01*
X14412356Y-6688356D02*
X14412356Y-6617644D01*
X14341644Y-6617644D01*
X14341644Y-6688356D01*
X14412356Y-6688356D01*
X14412356Y-6942356D02*
X14412356Y-6871644D01*
X14341644Y-6871644D01*
X14341644Y-6942356D01*
X14412356Y-6942356D01*
X14412356Y-7196356D02*
X14412356Y-7125644D01*
X14341644Y-7125644D01*
X14341644Y-7196356D01*
X14412356Y-7196356D01*
X14412356Y-7450356D02*
X14412356Y-7379644D01*
X14341644Y-7379644D01*
X14341644Y-7450356D01*
X14412356Y-7450356D01*
X14412356Y-7704356D02*
X14412356Y-7633644D01*
X14341644Y-7633644D01*
X14341644Y-7704356D01*
X14412356Y-7704356D01*
X14412356Y-7958356D02*
X14412356Y-7887644D01*
X14341644Y-7887644D01*
X14341644Y-7958356D01*
X14412356Y-7958356D01*
X14412356Y-8212356D02*
X14412356Y-8141644D01*
X14341644Y-8141644D01*
X14341644Y-8212356D01*
X14412356Y-8212356D01*
X14412356Y-8466356D02*
X14412356Y-8395644D01*
X14341644Y-8395644D01*
X14341644Y-8466356D01*
X14412356Y-8466356D01*
X14412356Y-8720356D02*
X14412356Y-8649644D01*
X14341644Y-8649644D01*
X14341644Y-8720356D01*
X14412356Y-8720356D01*
X14412356Y-8974356D02*
X14412356Y-8903644D01*
X14341644Y-8903644D01*
X14341644Y-8974356D01*
X14412356Y-8974356D01*
X14412356Y-9228356D02*
X14412356Y-9157644D01*
X14341644Y-9157644D01*
X14341644Y-9228356D01*
X14412356Y-9228356D01*
X14412356Y-9482356D02*
X14412356Y-9411644D01*
X14341644Y-9411644D01*
X14341644Y-9482356D01*
X14412356Y-9482356D01*
X14412356Y-9736356D02*
X14412356Y-9665644D01*
X14341644Y-9665644D01*
X14341644Y-9736356D01*
X14412356Y-9736356D01*
X14412356Y-9990356D02*
X14412356Y-9919644D01*
X14341644Y-9919644D01*
X14341644Y-9990356D01*
X14412356Y-9990356D01*
X14412356Y-10244356D02*
X14412356Y-10173644D01*
X14341644Y-10173644D01*
X14341644Y-10244356D01*
X14412356Y-10244356D01*
X14412356Y-10498356D02*
X14412356Y-10427644D01*
X14341644Y-10427644D01*
X14341644Y-10498356D01*
X14412356Y-10498356D01*
D10*
X13383000Y-10908500D02*
X13458000Y-10833500D01*
X13383000Y-10758500D01*
X13308000Y-10833500D01*
X13383000Y-10908500D01*
D16*
X13044000Y-10494500D02*
X13214000Y-10664500D01*
X13214000Y-10494500D02*
X13044000Y-10664500D01*
X13214000Y-10579500D02*
G75*
G03*
X13214000Y-10579500I-85000J0D01*
G01*
X13044000Y-11002500D02*
X13214000Y-11172500D01*
X13214000Y-11002500D02*
X13044000Y-11172500D01*
X13214000Y-11087500D02*
G75*
G03*
X13214000Y-11087500I-85000J0D01*
G01*
X13552000Y-10494500D02*
X13722000Y-10664500D01*
X13722000Y-10494500D02*
X13552000Y-10664500D01*
X13722000Y-10579500D02*
G75*
G03*
X13722000Y-10579500I-85000J0D01*
G01*
X13552000Y-11002500D02*
X13722000Y-11172500D01*
X13722000Y-11002500D02*
X13552000Y-11172500D01*
X13722000Y-11087500D02*
G75*
G03*
X13722000Y-11087500I-85000J0D01*
G01*
D17*
X9215000Y-5015000D02*
X9485000Y-5285000D01*
X9485000Y-5015000D02*
X9215000Y-5285000D01*
X9350000Y-5015000D02*
X9350000Y-5285000D01*
X9215000Y-5150000D02*
X9485000Y-5150000D01*
X9215000Y-8485000D02*
X9485000Y-8755000D01*
X9485000Y-8485000D02*
X9215000Y-8755000D01*
X9350000Y-8485000D02*
X9350000Y-8755000D01*
X9215000Y-8620000D02*
X9485000Y-8620000D01*
X9215000Y-10815000D02*
X9485000Y-11085000D01*
X9485000Y-10815000D02*
X9215000Y-11085000D01*
X9350000Y-10815000D02*
X9350000Y-11085000D01*
X9215000Y-10950000D02*
X9485000Y-10950000D01*
X14115000Y-5015000D02*
X14385000Y-5285000D01*
X14385000Y-5015000D02*
X14115000Y-5285000D01*
X14250000Y-5015000D02*
X14250000Y-5285000D01*
X14115000Y-5150000D02*
X14385000Y-5150000D01*
X14115000Y-10815000D02*
X14385000Y-11085000D01*
X14385000Y-10815000D02*
X14115000Y-11085000D01*
X14250000Y-10815000D02*
X14250000Y-11085000D01*
X14115000Y-10950000D02*
X14385000Y-10950000D01*
D11*
X9240119Y-11620024D02*
X9240119Y-11420024D01*
X9240119Y-11420024D02*
X9287738Y-11420024D01*
X9287738Y-11420024D02*
X9316310Y-11429548D01*
X9316310Y-11429548D02*
X9335357Y-11448595D01*
X9335357Y-11448595D02*
X9344881Y-11467643D01*
X9344881Y-11467643D02*
X9354405Y-11505738D01*
X9354405Y-11505738D02*
X9354405Y-11534309D01*
X9354405Y-11534309D02*
X9344881Y-11572405D01*
X9344881Y-11572405D02*
X9335357Y-11591452D01*
X9335357Y-11591452D02*
X9316310Y-11610500D01*
X9316310Y-11610500D02*
X9287738Y-11620024D01*
X9287738Y-11620024D02*
X9240119Y-11620024D01*
X9440119Y-11620024D02*
X9440119Y-11486690D01*
X9440119Y-11524786D02*
X9449643Y-11505738D01*
X9449643Y-11505738D02*
X9459167Y-11496214D01*
X9459167Y-11496214D02*
X9478214Y-11486690D01*
X9478214Y-11486690D02*
X9497262Y-11486690D01*
X9563929Y-11620024D02*
X9563929Y-11486690D01*
X9563929Y-11420024D02*
X9554405Y-11429548D01*
X9554405Y-11429548D02*
X9563929Y-11439071D01*
X9563929Y-11439071D02*
X9573452Y-11429548D01*
X9573452Y-11429548D02*
X9563929Y-11420024D01*
X9563929Y-11420024D02*
X9563929Y-11439071D01*
X9687738Y-11620024D02*
X9668690Y-11610500D01*
X9668690Y-11610500D02*
X9659167Y-11591452D01*
X9659167Y-11591452D02*
X9659167Y-11420024D01*
X9792500Y-11620024D02*
X9773452Y-11610500D01*
X9773452Y-11610500D02*
X9763929Y-11591452D01*
X9763929Y-11591452D02*
X9763929Y-11420024D01*
X10021071Y-11620024D02*
X10021071Y-11420024D01*
X10021071Y-11420024D02*
X10087738Y-11562881D01*
X10087738Y-11562881D02*
X10154405Y-11420024D01*
X10154405Y-11420024D02*
X10154405Y-11620024D01*
X10335357Y-11620024D02*
X10335357Y-11515262D01*
X10335357Y-11515262D02*
X10325833Y-11496214D01*
X10325833Y-11496214D02*
X10306786Y-11486690D01*
X10306786Y-11486690D02*
X10268690Y-11486690D01*
X10268690Y-11486690D02*
X10249643Y-11496214D01*
X10335357Y-11610500D02*
X10316310Y-11620024D01*
X10316310Y-11620024D02*
X10268690Y-11620024D01*
X10268690Y-11620024D02*
X10249643Y-11610500D01*
X10249643Y-11610500D02*
X10240119Y-11591452D01*
X10240119Y-11591452D02*
X10240119Y-11572405D01*
X10240119Y-11572405D02*
X10249643Y-11553357D01*
X10249643Y-11553357D02*
X10268690Y-11543833D01*
X10268690Y-11543833D02*
X10316310Y-11543833D01*
X10316310Y-11543833D02*
X10335357Y-11534309D01*
X10430595Y-11486690D02*
X10430595Y-11686690D01*
X10430595Y-11496214D02*
X10449643Y-11486690D01*
X10449643Y-11486690D02*
X10487738Y-11486690D01*
X10487738Y-11486690D02*
X10506786Y-11496214D01*
X10506786Y-11496214D02*
X10516310Y-11505738D01*
X10516310Y-11505738D02*
X10525833Y-11524786D01*
X10525833Y-11524786D02*
X10525833Y-11581928D01*
X10525833Y-11581928D02*
X10516310Y-11600976D01*
X10516310Y-11600976D02*
X10506786Y-11610500D01*
X10506786Y-11610500D02*
X10487738Y-11620024D01*
X10487738Y-11620024D02*
X10449643Y-11620024D01*
X10449643Y-11620024D02*
X10430595Y-11610500D01*
X10611548Y-11600976D02*
X10621071Y-11610500D01*
X10621071Y-11610500D02*
X10611548Y-11620024D01*
X10611548Y-11620024D02*
X10602024Y-11610500D01*
X10602024Y-11610500D02*
X10611548Y-11600976D01*
X10611548Y-11600976D02*
X10611548Y-11620024D01*
X10611548Y-11496214D02*
X10621071Y-11505738D01*
X10621071Y-11505738D02*
X10611548Y-11515262D01*
X10611548Y-11515262D02*
X10602024Y-11505738D01*
X10602024Y-11505738D02*
X10611548Y-11496214D01*
X10611548Y-11496214D02*
X10611548Y-11515262D01*
D12*
X8952500Y-11927500D02*
X8992500Y-11967500D01*
X8992500Y-11927500D02*
X8952500Y-11967500D01*
D11*
X9278214Y-11840024D02*
X9297262Y-11840024D01*
X9297262Y-11840024D02*
X9316310Y-11849548D01*
X9316310Y-11849548D02*
X9325833Y-11859071D01*
X9325833Y-11859071D02*
X9335357Y-11878119D01*
X9335357Y-11878119D02*
X9344881Y-11916214D01*
X9344881Y-11916214D02*
X9344881Y-11963833D01*
X9344881Y-11963833D02*
X9335357Y-12001928D01*
X9335357Y-12001928D02*
X9325833Y-12020976D01*
X9325833Y-12020976D02*
X9316310Y-12030500D01*
X9316310Y-12030500D02*
X9297262Y-12040024D01*
X9297262Y-12040024D02*
X9278214Y-12040024D01*
X9278214Y-12040024D02*
X9259167Y-12030500D01*
X9259167Y-12030500D02*
X9249643Y-12020976D01*
X9249643Y-12020976D02*
X9240119Y-12001928D01*
X9240119Y-12001928D02*
X9230595Y-11963833D01*
X9230595Y-11963833D02*
X9230595Y-11916214D01*
X9230595Y-11916214D02*
X9240119Y-11878119D01*
X9240119Y-11878119D02*
X9249643Y-11859071D01*
X9249643Y-11859071D02*
X9259167Y-11849548D01*
X9259167Y-11849548D02*
X9278214Y-11840024D01*
X9430595Y-12020976D02*
X9440119Y-12030500D01*
X9440119Y-12030500D02*
X9430595Y-12040024D01*
X9430595Y-12040024D02*
X9421071Y-12030500D01*
X9421071Y-12030500D02*
X9430595Y-12020976D01*
X9430595Y-12020976D02*
X9430595Y-12040024D01*
X9611548Y-11906690D02*
X9611548Y-12040024D01*
X9563929Y-11830500D02*
X9516310Y-11973357D01*
X9516310Y-11973357D02*
X9640119Y-11973357D01*
X9754405Y-11840024D02*
X9773452Y-11840024D01*
X9773452Y-11840024D02*
X9792500Y-11849548D01*
X9792500Y-11849548D02*
X9802024Y-11859071D01*
X9802024Y-11859071D02*
X9811548Y-11878119D01*
X9811548Y-11878119D02*
X9821071Y-11916214D01*
X9821071Y-11916214D02*
X9821071Y-11963833D01*
X9821071Y-11963833D02*
X9811548Y-12001928D01*
X9811548Y-12001928D02*
X9802024Y-12020976D01*
X9802024Y-12020976D02*
X9792500Y-12030500D01*
X9792500Y-12030500D02*
X9773452Y-12040024D01*
X9773452Y-12040024D02*
X9754405Y-12040024D01*
X9754405Y-12040024D02*
X9735357Y-12030500D01*
X9735357Y-12030500D02*
X9725833Y-12020976D01*
X9725833Y-12020976D02*
X9716310Y-12001928D01*
X9716310Y-12001928D02*
X9706786Y-11963833D01*
X9706786Y-11963833D02*
X9706786Y-11916214D01*
X9706786Y-11916214D02*
X9716310Y-11878119D01*
X9716310Y-11878119D02*
X9725833Y-11859071D01*
X9725833Y-11859071D02*
X9735357Y-11849548D01*
X9735357Y-11849548D02*
X9754405Y-11840024D01*
X9944881Y-11840024D02*
X9963929Y-11840024D01*
X9963929Y-11840024D02*
X9982976Y-11849548D01*
X9982976Y-11849548D02*
X9992500Y-11859071D01*
X9992500Y-11859071D02*
X10002024Y-11878119D01*
X10002024Y-11878119D02*
X10011548Y-11916214D01*
X10011548Y-11916214D02*
X10011548Y-11963833D01*
X10011548Y-11963833D02*
X10002024Y-12001928D01*
X10002024Y-12001928D02*
X9992500Y-12020976D01*
X9992500Y-12020976D02*
X9982976Y-12030500D01*
X9982976Y-12030500D02*
X9963929Y-12040024D01*
X9963929Y-12040024D02*
X9944881Y-12040024D01*
X9944881Y-12040024D02*
X9925833Y-12030500D01*
X9925833Y-12030500D02*
X9916310Y-12020976D01*
X9916310Y-12020976D02*
X9906786Y-12001928D01*
X9906786Y-12001928D02*
X9897262Y-11963833D01*
X9897262Y-11963833D02*
X9897262Y-11916214D01*
X9897262Y-11916214D02*
X9906786Y-11878119D01*
X9906786Y-11878119D02*
X9916310Y-11859071D01*
X9916310Y-11859071D02*
X9925833Y-11849548D01*
X9925833Y-11849548D02*
X9944881Y-11840024D01*
X10097262Y-12040024D02*
X10097262Y-11906690D01*
X10097262Y-11925738D02*
X10106786Y-11916214D01*
X10106786Y-11916214D02*
X10125833Y-11906690D01*
X10125833Y-11906690D02*
X10154405Y-11906690D01*
X10154405Y-11906690D02*
X10173452Y-11916214D01*
X10173452Y-11916214D02*
X10182976Y-11935262D01*
X10182976Y-11935262D02*
X10182976Y-12040024D01*
X10182976Y-11935262D02*
X10192500Y-11916214D01*
X10192500Y-11916214D02*
X10211548Y-11906690D01*
X10211548Y-11906690D02*
X10240119Y-11906690D01*
X10240119Y-11906690D02*
X10259167Y-11916214D01*
X10259167Y-11916214D02*
X10268691Y-11935262D01*
X10268691Y-11935262D02*
X10268691Y-12040024D01*
X10363929Y-12040024D02*
X10363929Y-11906690D01*
X10363929Y-11925738D02*
X10373452Y-11916214D01*
X10373452Y-11916214D02*
X10392500Y-11906690D01*
X10392500Y-11906690D02*
X10421072Y-11906690D01*
X10421072Y-11906690D02*
X10440119Y-11916214D01*
X10440119Y-11916214D02*
X10449643Y-11935262D01*
X10449643Y-11935262D02*
X10449643Y-12040024D01*
X10449643Y-11935262D02*
X10459167Y-11916214D01*
X10459167Y-11916214D02*
X10478214Y-11906690D01*
X10478214Y-11906690D02*
X10506786Y-11906690D01*
X10506786Y-11906690D02*
X10525833Y-11916214D01*
X10525833Y-11916214D02*
X10535357Y-11935262D01*
X10535357Y-11935262D02*
X10535357Y-12040024D01*
X10925833Y-11830500D02*
X10754405Y-12087643D01*
X11182976Y-11840024D02*
X11202024Y-11840024D01*
X11202024Y-11840024D02*
X11221072Y-11849548D01*
X11221072Y-11849548D02*
X11230595Y-11859071D01*
X11230595Y-11859071D02*
X11240119Y-11878119D01*
X11240119Y-11878119D02*
X11249643Y-11916214D01*
X11249643Y-11916214D02*
X11249643Y-11963833D01*
X11249643Y-11963833D02*
X11240119Y-12001928D01*
X11240119Y-12001928D02*
X11230595Y-12020976D01*
X11230595Y-12020976D02*
X11221072Y-12030500D01*
X11221072Y-12030500D02*
X11202024Y-12040024D01*
X11202024Y-12040024D02*
X11182976Y-12040024D01*
X11182976Y-12040024D02*
X11163929Y-12030500D01*
X11163929Y-12030500D02*
X11154405Y-12020976D01*
X11154405Y-12020976D02*
X11144881Y-12001928D01*
X11144881Y-12001928D02*
X11135357Y-11963833D01*
X11135357Y-11963833D02*
X11135357Y-11916214D01*
X11135357Y-11916214D02*
X11144881Y-11878119D01*
X11144881Y-11878119D02*
X11154405Y-11859071D01*
X11154405Y-11859071D02*
X11163929Y-11849548D01*
X11163929Y-11849548D02*
X11182976Y-11840024D01*
X11335357Y-12020976D02*
X11344881Y-12030500D01*
X11344881Y-12030500D02*
X11335357Y-12040024D01*
X11335357Y-12040024D02*
X11325833Y-12030500D01*
X11325833Y-12030500D02*
X11335357Y-12020976D01*
X11335357Y-12020976D02*
X11335357Y-12040024D01*
X11468691Y-11840024D02*
X11487738Y-11840024D01*
X11487738Y-11840024D02*
X11506786Y-11849548D01*
X11506786Y-11849548D02*
X11516310Y-11859071D01*
X11516310Y-11859071D02*
X11525833Y-11878119D01*
X11525833Y-11878119D02*
X11535357Y-11916214D01*
X11535357Y-11916214D02*
X11535357Y-11963833D01*
X11535357Y-11963833D02*
X11525833Y-12001928D01*
X11525833Y-12001928D02*
X11516310Y-12020976D01*
X11516310Y-12020976D02*
X11506786Y-12030500D01*
X11506786Y-12030500D02*
X11487738Y-12040024D01*
X11487738Y-12040024D02*
X11468691Y-12040024D01*
X11468691Y-12040024D02*
X11449643Y-12030500D01*
X11449643Y-12030500D02*
X11440119Y-12020976D01*
X11440119Y-12020976D02*
X11430595Y-12001928D01*
X11430595Y-12001928D02*
X11421072Y-11963833D01*
X11421072Y-11963833D02*
X11421072Y-11916214D01*
X11421072Y-11916214D02*
X11430595Y-11878119D01*
X11430595Y-11878119D02*
X11440119Y-11859071D01*
X11440119Y-11859071D02*
X11449643Y-11849548D01*
X11449643Y-11849548D02*
X11468691Y-11840024D01*
X11725833Y-12040024D02*
X11611548Y-12040024D01*
X11668691Y-12040024D02*
X11668691Y-11840024D01*
X11668691Y-11840024D02*
X11649643Y-11868595D01*
X11649643Y-11868595D02*
X11630595Y-11887643D01*
X11630595Y-11887643D02*
X11611548Y-11897167D01*
X11906786Y-11840024D02*
X11811548Y-11840024D01*
X11811548Y-11840024D02*
X11802024Y-11935262D01*
X11802024Y-11935262D02*
X11811548Y-11925738D01*
X11811548Y-11925738D02*
X11830595Y-11916214D01*
X11830595Y-11916214D02*
X11878214Y-11916214D01*
X11878214Y-11916214D02*
X11897262Y-11925738D01*
X11897262Y-11925738D02*
X11906786Y-11935262D01*
X11906786Y-11935262D02*
X11916310Y-11954309D01*
X11916310Y-11954309D02*
X11916310Y-12001928D01*
X11916310Y-12001928D02*
X11906786Y-12020976D01*
X11906786Y-12020976D02*
X11897262Y-12030500D01*
X11897262Y-12030500D02*
X11878214Y-12040024D01*
X11878214Y-12040024D02*
X11830595Y-12040024D01*
X11830595Y-12040024D02*
X11811548Y-12030500D01*
X11811548Y-12030500D02*
X11802024Y-12020976D01*
X11982976Y-11840024D02*
X12116310Y-11840024D01*
X12116310Y-11840024D02*
X12030595Y-12040024D01*
X12182976Y-11840024D02*
X12182976Y-11878119D01*
X12259167Y-11840024D02*
X12259167Y-11878119D01*
X12554405Y-12116214D02*
X12544881Y-12106690D01*
X12544881Y-12106690D02*
X12525834Y-12078119D01*
X12525834Y-12078119D02*
X12516310Y-12059071D01*
X12516310Y-12059071D02*
X12506786Y-12030500D01*
X12506786Y-12030500D02*
X12497262Y-11982881D01*
X12497262Y-11982881D02*
X12497262Y-11944786D01*
X12497262Y-11944786D02*
X12506786Y-11897167D01*
X12506786Y-11897167D02*
X12516310Y-11868595D01*
X12516310Y-11868595D02*
X12525834Y-11849548D01*
X12525834Y-11849548D02*
X12544881Y-11820976D01*
X12544881Y-11820976D02*
X12554405Y-11811452D01*
X12735357Y-12040024D02*
X12621072Y-12040024D01*
X12678214Y-12040024D02*
X12678214Y-11840024D01*
X12678214Y-11840024D02*
X12659167Y-11868595D01*
X12659167Y-11868595D02*
X12640119Y-11887643D01*
X12640119Y-11887643D02*
X12621072Y-11897167D01*
X12916310Y-11840024D02*
X12821072Y-11840024D01*
X12821072Y-11840024D02*
X12811548Y-11935262D01*
X12811548Y-11935262D02*
X12821072Y-11925738D01*
X12821072Y-11925738D02*
X12840119Y-11916214D01*
X12840119Y-11916214D02*
X12887738Y-11916214D01*
X12887738Y-11916214D02*
X12906786Y-11925738D01*
X12906786Y-11925738D02*
X12916310Y-11935262D01*
X12916310Y-11935262D02*
X12925834Y-11954309D01*
X12925834Y-11954309D02*
X12925834Y-12001928D01*
X12925834Y-12001928D02*
X12916310Y-12020976D01*
X12916310Y-12020976D02*
X12906786Y-12030500D01*
X12906786Y-12030500D02*
X12887738Y-12040024D01*
X12887738Y-12040024D02*
X12840119Y-12040024D01*
X12840119Y-12040024D02*
X12821072Y-12030500D01*
X12821072Y-12030500D02*
X12811548Y-12020976D01*
X13049643Y-11840024D02*
X13068691Y-11840024D01*
X13068691Y-11840024D02*
X13087738Y-11849548D01*
X13087738Y-11849548D02*
X13097262Y-11859071D01*
X13097262Y-11859071D02*
X13106786Y-11878119D01*
X13106786Y-11878119D02*
X13116310Y-11916214D01*
X13116310Y-11916214D02*
X13116310Y-11963833D01*
X13116310Y-11963833D02*
X13106786Y-12001928D01*
X13106786Y-12001928D02*
X13097262Y-12020976D01*
X13097262Y-12020976D02*
X13087738Y-12030500D01*
X13087738Y-12030500D02*
X13068691Y-12040024D01*
X13068691Y-12040024D02*
X13049643Y-12040024D01*
X13049643Y-12040024D02*
X13030595Y-12030500D01*
X13030595Y-12030500D02*
X13021072Y-12020976D01*
X13021072Y-12020976D02*
X13011548Y-12001928D01*
X13011548Y-12001928D02*
X13002024Y-11963833D01*
X13002024Y-11963833D02*
X13002024Y-11916214D01*
X13002024Y-11916214D02*
X13011548Y-11878119D01*
X13011548Y-11878119D02*
X13021072Y-11859071D01*
X13021072Y-11859071D02*
X13030595Y-11849548D01*
X13030595Y-11849548D02*
X13049643Y-11840024D01*
X13354405Y-12040024D02*
X13354405Y-11840024D01*
X13440119Y-12040024D02*
X13440119Y-11935262D01*
X13440119Y-11935262D02*
X13430596Y-11916214D01*
X13430596Y-11916214D02*
X13411548Y-11906690D01*
X13411548Y-11906690D02*
X13382976Y-11906690D01*
X13382976Y-11906690D02*
X13363929Y-11916214D01*
X13363929Y-11916214D02*
X13354405Y-11925738D01*
X13563929Y-12040024D02*
X13544881Y-12030500D01*
X13544881Y-12030500D02*
X13535357Y-12020976D01*
X13535357Y-12020976D02*
X13525834Y-12001928D01*
X13525834Y-12001928D02*
X13525834Y-11944786D01*
X13525834Y-11944786D02*
X13535357Y-11925738D01*
X13535357Y-11925738D02*
X13544881Y-11916214D01*
X13544881Y-11916214D02*
X13563929Y-11906690D01*
X13563929Y-11906690D02*
X13592500Y-11906690D01*
X13592500Y-11906690D02*
X13611548Y-11916214D01*
X13611548Y-11916214D02*
X13621072Y-11925738D01*
X13621072Y-11925738D02*
X13630596Y-11944786D01*
X13630596Y-11944786D02*
X13630596Y-12001928D01*
X13630596Y-12001928D02*
X13621072Y-12020976D01*
X13621072Y-12020976D02*
X13611548Y-12030500D01*
X13611548Y-12030500D02*
X13592500Y-12040024D01*
X13592500Y-12040024D02*
X13563929Y-12040024D01*
X13744881Y-12040024D02*
X13725834Y-12030500D01*
X13725834Y-12030500D02*
X13716310Y-12011452D01*
X13716310Y-12011452D02*
X13716310Y-11840024D01*
X13897262Y-12030500D02*
X13878215Y-12040024D01*
X13878215Y-12040024D02*
X13840119Y-12040024D01*
X13840119Y-12040024D02*
X13821072Y-12030500D01*
X13821072Y-12030500D02*
X13811548Y-12011452D01*
X13811548Y-12011452D02*
X13811548Y-11935262D01*
X13811548Y-11935262D02*
X13821072Y-11916214D01*
X13821072Y-11916214D02*
X13840119Y-11906690D01*
X13840119Y-11906690D02*
X13878215Y-11906690D01*
X13878215Y-11906690D02*
X13897262Y-11916214D01*
X13897262Y-11916214D02*
X13906786Y-11935262D01*
X13906786Y-11935262D02*
X13906786Y-11954309D01*
X13906786Y-11954309D02*
X13811548Y-11973357D01*
X13982977Y-12030500D02*
X14002024Y-12040024D01*
X14002024Y-12040024D02*
X14040119Y-12040024D01*
X14040119Y-12040024D02*
X14059167Y-12030500D01*
X14059167Y-12030500D02*
X14068691Y-12011452D01*
X14068691Y-12011452D02*
X14068691Y-12001928D01*
X14068691Y-12001928D02*
X14059167Y-11982881D01*
X14059167Y-11982881D02*
X14040119Y-11973357D01*
X14040119Y-11973357D02*
X14011548Y-11973357D01*
X14011548Y-11973357D02*
X13992500Y-11963833D01*
X13992500Y-11963833D02*
X13982977Y-11944786D01*
X13982977Y-11944786D02*
X13982977Y-11935262D01*
X13982977Y-11935262D02*
X13992500Y-11916214D01*
X13992500Y-11916214D02*
X14011548Y-11906690D01*
X14011548Y-11906690D02*
X14040119Y-11906690D01*
X14040119Y-11906690D02*
X14059167Y-11916214D01*
X14135358Y-12116214D02*
X14144881Y-12106690D01*
X14144881Y-12106690D02*
X14163929Y-12078119D01*
X14163929Y-12078119D02*
X14173453Y-12059071D01*
X14173453Y-12059071D02*
X14182977Y-12030500D01*
X14182977Y-12030500D02*
X14192500Y-11982881D01*
X14192500Y-11982881D02*
X14192500Y-11944786D01*
X14192500Y-11944786D02*
X14182977Y-11897167D01*
X14182977Y-11897167D02*
X14173453Y-11868595D01*
X14173453Y-11868595D02*
X14163929Y-11849548D01*
X14163929Y-11849548D02*
X14144881Y-11820976D01*
X14144881Y-11820976D02*
X14135358Y-11811452D01*
D13*
X8992500Y-12211500D02*
G75*
G03*
X8992500Y-12211500I-35000J0D01*
G01*
D11*
X9278214Y-12104024D02*
X9297262Y-12104024D01*
X9297262Y-12104024D02*
X9316310Y-12113548D01*
X9316310Y-12113548D02*
X9325833Y-12123071D01*
X9325833Y-12123071D02*
X9335357Y-12142119D01*
X9335357Y-12142119D02*
X9344881Y-12180214D01*
X9344881Y-12180214D02*
X9344881Y-12227833D01*
X9344881Y-12227833D02*
X9335357Y-12265928D01*
X9335357Y-12265928D02*
X9325833Y-12284976D01*
X9325833Y-12284976D02*
X9316310Y-12294500D01*
X9316310Y-12294500D02*
X9297262Y-12304024D01*
X9297262Y-12304024D02*
X9278214Y-12304024D01*
X9278214Y-12304024D02*
X9259167Y-12294500D01*
X9259167Y-12294500D02*
X9249643Y-12284976D01*
X9249643Y-12284976D02*
X9240119Y-12265928D01*
X9240119Y-12265928D02*
X9230595Y-12227833D01*
X9230595Y-12227833D02*
X9230595Y-12180214D01*
X9230595Y-12180214D02*
X9240119Y-12142119D01*
X9240119Y-12142119D02*
X9249643Y-12123071D01*
X9249643Y-12123071D02*
X9259167Y-12113548D01*
X9259167Y-12113548D02*
X9278214Y-12104024D01*
X9430595Y-12284976D02*
X9440119Y-12294500D01*
X9440119Y-12294500D02*
X9430595Y-12304024D01*
X9430595Y-12304024D02*
X9421071Y-12294500D01*
X9421071Y-12294500D02*
X9430595Y-12284976D01*
X9430595Y-12284976D02*
X9430595Y-12304024D01*
X9506786Y-12104024D02*
X9640119Y-12104024D01*
X9640119Y-12104024D02*
X9554405Y-12304024D01*
X9754405Y-12104024D02*
X9773452Y-12104024D01*
X9773452Y-12104024D02*
X9792500Y-12113548D01*
X9792500Y-12113548D02*
X9802024Y-12123071D01*
X9802024Y-12123071D02*
X9811548Y-12142119D01*
X9811548Y-12142119D02*
X9821071Y-12180214D01*
X9821071Y-12180214D02*
X9821071Y-12227833D01*
X9821071Y-12227833D02*
X9811548Y-12265928D01*
X9811548Y-12265928D02*
X9802024Y-12284976D01*
X9802024Y-12284976D02*
X9792500Y-12294500D01*
X9792500Y-12294500D02*
X9773452Y-12304024D01*
X9773452Y-12304024D02*
X9754405Y-12304024D01*
X9754405Y-12304024D02*
X9735357Y-12294500D01*
X9735357Y-12294500D02*
X9725833Y-12284976D01*
X9725833Y-12284976D02*
X9716310Y-12265928D01*
X9716310Y-12265928D02*
X9706786Y-12227833D01*
X9706786Y-12227833D02*
X9706786Y-12180214D01*
X9706786Y-12180214D02*
X9716310Y-12142119D01*
X9716310Y-12142119D02*
X9725833Y-12123071D01*
X9725833Y-12123071D02*
X9735357Y-12113548D01*
X9735357Y-12113548D02*
X9754405Y-12104024D01*
X9944881Y-12104024D02*
X9963929Y-12104024D01*
X9963929Y-12104024D02*
X9982976Y-12113548D01*
X9982976Y-12113548D02*
X9992500Y-12123071D01*
X9992500Y-12123071D02*
X10002024Y-12142119D01*
X10002024Y-12142119D02*
X10011548Y-12180214D01*
X10011548Y-12180214D02*
X10011548Y-12227833D01*
X10011548Y-12227833D02*
X10002024Y-12265928D01*
X10002024Y-12265928D02*
X9992500Y-12284976D01*
X9992500Y-12284976D02*
X9982976Y-12294500D01*
X9982976Y-12294500D02*
X9963929Y-12304024D01*
X9963929Y-12304024D02*
X9944881Y-12304024D01*
X9944881Y-12304024D02*
X9925833Y-12294500D01*
X9925833Y-12294500D02*
X9916310Y-12284976D01*
X9916310Y-12284976D02*
X9906786Y-12265928D01*
X9906786Y-12265928D02*
X9897262Y-12227833D01*
X9897262Y-12227833D02*
X9897262Y-12180214D01*
X9897262Y-12180214D02*
X9906786Y-12142119D01*
X9906786Y-12142119D02*
X9916310Y-12123071D01*
X9916310Y-12123071D02*
X9925833Y-12113548D01*
X9925833Y-12113548D02*
X9944881Y-12104024D01*
X10097262Y-12304024D02*
X10097262Y-12170690D01*
X10097262Y-12189738D02*
X10106786Y-12180214D01*
X10106786Y-12180214D02*
X10125833Y-12170690D01*
X10125833Y-12170690D02*
X10154405Y-12170690D01*
X10154405Y-12170690D02*
X10173452Y-12180214D01*
X10173452Y-12180214D02*
X10182976Y-12199262D01*
X10182976Y-12199262D02*
X10182976Y-12304024D01*
X10182976Y-12199262D02*
X10192500Y-12180214D01*
X10192500Y-12180214D02*
X10211548Y-12170690D01*
X10211548Y-12170690D02*
X10240119Y-12170690D01*
X10240119Y-12170690D02*
X10259167Y-12180214D01*
X10259167Y-12180214D02*
X10268691Y-12199262D01*
X10268691Y-12199262D02*
X10268691Y-12304024D01*
X10363929Y-12304024D02*
X10363929Y-12170690D01*
X10363929Y-12189738D02*
X10373452Y-12180214D01*
X10373452Y-12180214D02*
X10392500Y-12170690D01*
X10392500Y-12170690D02*
X10421072Y-12170690D01*
X10421072Y-12170690D02*
X10440119Y-12180214D01*
X10440119Y-12180214D02*
X10449643Y-12199262D01*
X10449643Y-12199262D02*
X10449643Y-12304024D01*
X10449643Y-12199262D02*
X10459167Y-12180214D01*
X10459167Y-12180214D02*
X10478214Y-12170690D01*
X10478214Y-12170690D02*
X10506786Y-12170690D01*
X10506786Y-12170690D02*
X10525833Y-12180214D01*
X10525833Y-12180214D02*
X10535357Y-12199262D01*
X10535357Y-12199262D02*
X10535357Y-12304024D01*
X10925833Y-12094500D02*
X10754405Y-12351643D01*
X11182976Y-12104024D02*
X11202024Y-12104024D01*
X11202024Y-12104024D02*
X11221072Y-12113548D01*
X11221072Y-12113548D02*
X11230595Y-12123071D01*
X11230595Y-12123071D02*
X11240119Y-12142119D01*
X11240119Y-12142119D02*
X11249643Y-12180214D01*
X11249643Y-12180214D02*
X11249643Y-12227833D01*
X11249643Y-12227833D02*
X11240119Y-12265928D01*
X11240119Y-12265928D02*
X11230595Y-12284976D01*
X11230595Y-12284976D02*
X11221072Y-12294500D01*
X11221072Y-12294500D02*
X11202024Y-12304024D01*
X11202024Y-12304024D02*
X11182976Y-12304024D01*
X11182976Y-12304024D02*
X11163929Y-12294500D01*
X11163929Y-12294500D02*
X11154405Y-12284976D01*
X11154405Y-12284976D02*
X11144881Y-12265928D01*
X11144881Y-12265928D02*
X11135357Y-12227833D01*
X11135357Y-12227833D02*
X11135357Y-12180214D01*
X11135357Y-12180214D02*
X11144881Y-12142119D01*
X11144881Y-12142119D02*
X11154405Y-12123071D01*
X11154405Y-12123071D02*
X11163929Y-12113548D01*
X11163929Y-12113548D02*
X11182976Y-12104024D01*
X11335357Y-12284976D02*
X11344881Y-12294500D01*
X11344881Y-12294500D02*
X11335357Y-12304024D01*
X11335357Y-12304024D02*
X11325833Y-12294500D01*
X11325833Y-12294500D02*
X11335357Y-12284976D01*
X11335357Y-12284976D02*
X11335357Y-12304024D01*
X11468691Y-12104024D02*
X11487738Y-12104024D01*
X11487738Y-12104024D02*
X11506786Y-12113548D01*
X11506786Y-12113548D02*
X11516310Y-12123071D01*
X11516310Y-12123071D02*
X11525833Y-12142119D01*
X11525833Y-12142119D02*
X11535357Y-12180214D01*
X11535357Y-12180214D02*
X11535357Y-12227833D01*
X11535357Y-12227833D02*
X11525833Y-12265928D01*
X11525833Y-12265928D02*
X11516310Y-12284976D01*
X11516310Y-12284976D02*
X11506786Y-12294500D01*
X11506786Y-12294500D02*
X11487738Y-12304024D01*
X11487738Y-12304024D02*
X11468691Y-12304024D01*
X11468691Y-12304024D02*
X11449643Y-12294500D01*
X11449643Y-12294500D02*
X11440119Y-12284976D01*
X11440119Y-12284976D02*
X11430595Y-12265928D01*
X11430595Y-12265928D02*
X11421072Y-12227833D01*
X11421072Y-12227833D02*
X11421072Y-12180214D01*
X11421072Y-12180214D02*
X11430595Y-12142119D01*
X11430595Y-12142119D02*
X11440119Y-12123071D01*
X11440119Y-12123071D02*
X11449643Y-12113548D01*
X11449643Y-12113548D02*
X11468691Y-12104024D01*
X11611548Y-12123071D02*
X11621072Y-12113548D01*
X11621072Y-12113548D02*
X11640119Y-12104024D01*
X11640119Y-12104024D02*
X11687738Y-12104024D01*
X11687738Y-12104024D02*
X11706786Y-12113548D01*
X11706786Y-12113548D02*
X11716310Y-12123071D01*
X11716310Y-12123071D02*
X11725833Y-12142119D01*
X11725833Y-12142119D02*
X11725833Y-12161167D01*
X11725833Y-12161167D02*
X11716310Y-12189738D01*
X11716310Y-12189738D02*
X11602024Y-12304024D01*
X11602024Y-12304024D02*
X11725833Y-12304024D01*
X11792500Y-12104024D02*
X11925833Y-12104024D01*
X11925833Y-12104024D02*
X11840119Y-12304024D01*
X12087738Y-12104024D02*
X12049643Y-12104024D01*
X12049643Y-12104024D02*
X12030595Y-12113548D01*
X12030595Y-12113548D02*
X12021072Y-12123071D01*
X12021072Y-12123071D02*
X12002024Y-12151643D01*
X12002024Y-12151643D02*
X11992500Y-12189738D01*
X11992500Y-12189738D02*
X11992500Y-12265928D01*
X11992500Y-12265928D02*
X12002024Y-12284976D01*
X12002024Y-12284976D02*
X12011548Y-12294500D01*
X12011548Y-12294500D02*
X12030595Y-12304024D01*
X12030595Y-12304024D02*
X12068691Y-12304024D01*
X12068691Y-12304024D02*
X12087738Y-12294500D01*
X12087738Y-12294500D02*
X12097262Y-12284976D01*
X12097262Y-12284976D02*
X12106786Y-12265928D01*
X12106786Y-12265928D02*
X12106786Y-12218309D01*
X12106786Y-12218309D02*
X12097262Y-12199262D01*
X12097262Y-12199262D02*
X12087738Y-12189738D01*
X12087738Y-12189738D02*
X12068691Y-12180214D01*
X12068691Y-12180214D02*
X12030595Y-12180214D01*
X12030595Y-12180214D02*
X12011548Y-12189738D01*
X12011548Y-12189738D02*
X12002024Y-12199262D01*
X12002024Y-12199262D02*
X11992500Y-12218309D01*
X12182976Y-12104024D02*
X12182976Y-12142119D01*
X12259167Y-12104024D02*
X12259167Y-12142119D01*
X12554405Y-12380214D02*
X12544881Y-12370690D01*
X12544881Y-12370690D02*
X12525834Y-12342119D01*
X12525834Y-12342119D02*
X12516310Y-12323071D01*
X12516310Y-12323071D02*
X12506786Y-12294500D01*
X12506786Y-12294500D02*
X12497262Y-12246881D01*
X12497262Y-12246881D02*
X12497262Y-12208786D01*
X12497262Y-12208786D02*
X12506786Y-12161167D01*
X12506786Y-12161167D02*
X12516310Y-12132595D01*
X12516310Y-12132595D02*
X12525834Y-12113548D01*
X12525834Y-12113548D02*
X12544881Y-12084976D01*
X12544881Y-12084976D02*
X12554405Y-12075452D01*
X12621072Y-12123071D02*
X12630595Y-12113548D01*
X12630595Y-12113548D02*
X12649643Y-12104024D01*
X12649643Y-12104024D02*
X12697262Y-12104024D01*
X12697262Y-12104024D02*
X12716310Y-12113548D01*
X12716310Y-12113548D02*
X12725834Y-12123071D01*
X12725834Y-12123071D02*
X12735357Y-12142119D01*
X12735357Y-12142119D02*
X12735357Y-12161167D01*
X12735357Y-12161167D02*
X12725834Y-12189738D01*
X12725834Y-12189738D02*
X12611548Y-12304024D01*
X12611548Y-12304024D02*
X12735357Y-12304024D01*
X12973453Y-12304024D02*
X12973453Y-12104024D01*
X13059167Y-12304024D02*
X13059167Y-12199262D01*
X13059167Y-12199262D02*
X13049643Y-12180214D01*
X13049643Y-12180214D02*
X13030596Y-12170690D01*
X13030596Y-12170690D02*
X13002024Y-12170690D01*
X13002024Y-12170690D02*
X12982976Y-12180214D01*
X12982976Y-12180214D02*
X12973453Y-12189738D01*
X13182976Y-12304024D02*
X13163929Y-12294500D01*
X13163929Y-12294500D02*
X13154405Y-12284976D01*
X13154405Y-12284976D02*
X13144881Y-12265928D01*
X13144881Y-12265928D02*
X13144881Y-12208786D01*
X13144881Y-12208786D02*
X13154405Y-12189738D01*
X13154405Y-12189738D02*
X13163929Y-12180214D01*
X13163929Y-12180214D02*
X13182976Y-12170690D01*
X13182976Y-12170690D02*
X13211548Y-12170690D01*
X13211548Y-12170690D02*
X13230596Y-12180214D01*
X13230596Y-12180214D02*
X13240119Y-12189738D01*
X13240119Y-12189738D02*
X13249643Y-12208786D01*
X13249643Y-12208786D02*
X13249643Y-12265928D01*
X13249643Y-12265928D02*
X13240119Y-12284976D01*
X13240119Y-12284976D02*
X13230596Y-12294500D01*
X13230596Y-12294500D02*
X13211548Y-12304024D01*
X13211548Y-12304024D02*
X13182976Y-12304024D01*
X13363929Y-12304024D02*
X13344881Y-12294500D01*
X13344881Y-12294500D02*
X13335357Y-12275452D01*
X13335357Y-12275452D02*
X13335357Y-12104024D01*
X13516310Y-12294500D02*
X13497262Y-12304024D01*
X13497262Y-12304024D02*
X13459167Y-12304024D01*
X13459167Y-12304024D02*
X13440119Y-12294500D01*
X13440119Y-12294500D02*
X13430596Y-12275452D01*
X13430596Y-12275452D02*
X13430596Y-12199262D01*
X13430596Y-12199262D02*
X13440119Y-12180214D01*
X13440119Y-12180214D02*
X13459167Y-12170690D01*
X13459167Y-12170690D02*
X13497262Y-12170690D01*
X13497262Y-12170690D02*
X13516310Y-12180214D01*
X13516310Y-12180214D02*
X13525834Y-12199262D01*
X13525834Y-12199262D02*
X13525834Y-12218309D01*
X13525834Y-12218309D02*
X13430596Y-12237357D01*
X13602024Y-12294500D02*
X13621072Y-12304024D01*
X13621072Y-12304024D02*
X13659167Y-12304024D01*
X13659167Y-12304024D02*
X13678215Y-12294500D01*
X13678215Y-12294500D02*
X13687738Y-12275452D01*
X13687738Y-12275452D02*
X13687738Y-12265928D01*
X13687738Y-12265928D02*
X13678215Y-12246881D01*
X13678215Y-12246881D02*
X13659167Y-12237357D01*
X13659167Y-12237357D02*
X13630596Y-12237357D01*
X13630596Y-12237357D02*
X13611548Y-12227833D01*
X13611548Y-12227833D02*
X13602024Y-12208786D01*
X13602024Y-12208786D02*
X13602024Y-12199262D01*
X13602024Y-12199262D02*
X13611548Y-12180214D01*
X13611548Y-12180214D02*
X13630596Y-12170690D01*
X13630596Y-12170690D02*
X13659167Y-12170690D01*
X13659167Y-12170690D02*
X13678215Y-12180214D01*
X13754405Y-12380214D02*
X13763929Y-12370690D01*
X13763929Y-12370690D02*
X13782977Y-12342119D01*
X13782977Y-12342119D02*
X13792500Y-12323071D01*
X13792500Y-12323071D02*
X13802024Y-12294500D01*
X13802024Y-12294500D02*
X13811548Y-12246881D01*
X13811548Y-12246881D02*
X13811548Y-12208786D01*
X13811548Y-12208786D02*
X13802024Y-12161167D01*
X13802024Y-12161167D02*
X13792500Y-12132595D01*
X13792500Y-12132595D02*
X13782977Y-12113548D01*
X13782977Y-12113548D02*
X13763929Y-12084976D01*
X13763929Y-12084976D02*
X13754405Y-12075452D01*
D14*
X8952500Y-12435500D02*
X8952500Y-12515500D01*
X8912500Y-12475500D02*
X8992500Y-12475500D01*
D11*
X9278214Y-12368024D02*
X9297262Y-12368024D01*
X9297262Y-12368024D02*
X9316310Y-12377548D01*
X9316310Y-12377548D02*
X9325833Y-12387071D01*
X9325833Y-12387071D02*
X9335357Y-12406119D01*
X9335357Y-12406119D02*
X9344881Y-12444214D01*
X9344881Y-12444214D02*
X9344881Y-12491833D01*
X9344881Y-12491833D02*
X9335357Y-12529928D01*
X9335357Y-12529928D02*
X9325833Y-12548976D01*
X9325833Y-12548976D02*
X9316310Y-12558500D01*
X9316310Y-12558500D02*
X9297262Y-12568024D01*
X9297262Y-12568024D02*
X9278214Y-12568024D01*
X9278214Y-12568024D02*
X9259167Y-12558500D01*
X9259167Y-12558500D02*
X9249643Y-12548976D01*
X9249643Y-12548976D02*
X9240119Y-12529928D01*
X9240119Y-12529928D02*
X9230595Y-12491833D01*
X9230595Y-12491833D02*
X9230595Y-12444214D01*
X9230595Y-12444214D02*
X9240119Y-12406119D01*
X9240119Y-12406119D02*
X9249643Y-12387071D01*
X9249643Y-12387071D02*
X9259167Y-12377548D01*
X9259167Y-12377548D02*
X9278214Y-12368024D01*
X9430595Y-12548976D02*
X9440119Y-12558500D01*
X9440119Y-12558500D02*
X9430595Y-12568024D01*
X9430595Y-12568024D02*
X9421071Y-12558500D01*
X9421071Y-12558500D02*
X9430595Y-12548976D01*
X9430595Y-12548976D02*
X9430595Y-12568024D01*
X9554405Y-12453738D02*
X9535357Y-12444214D01*
X9535357Y-12444214D02*
X9525833Y-12434690D01*
X9525833Y-12434690D02*
X9516310Y-12415643D01*
X9516310Y-12415643D02*
X9516310Y-12406119D01*
X9516310Y-12406119D02*
X9525833Y-12387071D01*
X9525833Y-12387071D02*
X9535357Y-12377548D01*
X9535357Y-12377548D02*
X9554405Y-12368024D01*
X9554405Y-12368024D02*
X9592500Y-12368024D01*
X9592500Y-12368024D02*
X9611548Y-12377548D01*
X9611548Y-12377548D02*
X9621071Y-12387071D01*
X9621071Y-12387071D02*
X9630595Y-12406119D01*
X9630595Y-12406119D02*
X9630595Y-12415643D01*
X9630595Y-12415643D02*
X9621071Y-12434690D01*
X9621071Y-12434690D02*
X9611548Y-12444214D01*
X9611548Y-12444214D02*
X9592500Y-12453738D01*
X9592500Y-12453738D02*
X9554405Y-12453738D01*
X9554405Y-12453738D02*
X9535357Y-12463262D01*
X9535357Y-12463262D02*
X9525833Y-12472786D01*
X9525833Y-12472786D02*
X9516310Y-12491833D01*
X9516310Y-12491833D02*
X9516310Y-12529928D01*
X9516310Y-12529928D02*
X9525833Y-12548976D01*
X9525833Y-12548976D02*
X9535357Y-12558500D01*
X9535357Y-12558500D02*
X9554405Y-12568024D01*
X9554405Y-12568024D02*
X9592500Y-12568024D01*
X9592500Y-12568024D02*
X9611548Y-12558500D01*
X9611548Y-12558500D02*
X9621071Y-12548976D01*
X9621071Y-12548976D02*
X9630595Y-12529928D01*
X9630595Y-12529928D02*
X9630595Y-12491833D01*
X9630595Y-12491833D02*
X9621071Y-12472786D01*
X9621071Y-12472786D02*
X9611548Y-12463262D01*
X9611548Y-12463262D02*
X9592500Y-12453738D01*
X9754405Y-12368024D02*
X9773452Y-12368024D01*
X9773452Y-12368024D02*
X9792500Y-12377548D01*
X9792500Y-12377548D02*
X9802024Y-12387071D01*
X9802024Y-12387071D02*
X9811548Y-12406119D01*
X9811548Y-12406119D02*
X9821071Y-12444214D01*
X9821071Y-12444214D02*
X9821071Y-12491833D01*
X9821071Y-12491833D02*
X9811548Y-12529928D01*
X9811548Y-12529928D02*
X9802024Y-12548976D01*
X9802024Y-12548976D02*
X9792500Y-12558500D01*
X9792500Y-12558500D02*
X9773452Y-12568024D01*
X9773452Y-12568024D02*
X9754405Y-12568024D01*
X9754405Y-12568024D02*
X9735357Y-12558500D01*
X9735357Y-12558500D02*
X9725833Y-12548976D01*
X9725833Y-12548976D02*
X9716310Y-12529928D01*
X9716310Y-12529928D02*
X9706786Y-12491833D01*
X9706786Y-12491833D02*
X9706786Y-12444214D01*
X9706786Y-12444214D02*
X9716310Y-12406119D01*
X9716310Y-12406119D02*
X9725833Y-12387071D01*
X9725833Y-12387071D02*
X9735357Y-12377548D01*
X9735357Y-12377548D02*
X9754405Y-12368024D01*
X9944881Y-12368024D02*
X9963929Y-12368024D01*
X9963929Y-12368024D02*
X9982976Y-12377548D01*
X9982976Y-12377548D02*
X9992500Y-12387071D01*
X9992500Y-12387071D02*
X10002024Y-12406119D01*
X10002024Y-12406119D02*
X10011548Y-12444214D01*
X10011548Y-12444214D02*
X10011548Y-12491833D01*
X10011548Y-12491833D02*
X10002024Y-12529928D01*
X10002024Y-12529928D02*
X9992500Y-12548976D01*
X9992500Y-12548976D02*
X9982976Y-12558500D01*
X9982976Y-12558500D02*
X9963929Y-12568024D01*
X9963929Y-12568024D02*
X9944881Y-12568024D01*
X9944881Y-12568024D02*
X9925833Y-12558500D01*
X9925833Y-12558500D02*
X9916310Y-12548976D01*
X9916310Y-12548976D02*
X9906786Y-12529928D01*
X9906786Y-12529928D02*
X9897262Y-12491833D01*
X9897262Y-12491833D02*
X9897262Y-12444214D01*
X9897262Y-12444214D02*
X9906786Y-12406119D01*
X9906786Y-12406119D02*
X9916310Y-12387071D01*
X9916310Y-12387071D02*
X9925833Y-12377548D01*
X9925833Y-12377548D02*
X9944881Y-12368024D01*
X10097262Y-12568024D02*
X10097262Y-12434690D01*
X10097262Y-12453738D02*
X10106786Y-12444214D01*
X10106786Y-12444214D02*
X10125833Y-12434690D01*
X10125833Y-12434690D02*
X10154405Y-12434690D01*
X10154405Y-12434690D02*
X10173452Y-12444214D01*
X10173452Y-12444214D02*
X10182976Y-12463262D01*
X10182976Y-12463262D02*
X10182976Y-12568024D01*
X10182976Y-12463262D02*
X10192500Y-12444214D01*
X10192500Y-12444214D02*
X10211548Y-12434690D01*
X10211548Y-12434690D02*
X10240119Y-12434690D01*
X10240119Y-12434690D02*
X10259167Y-12444214D01*
X10259167Y-12444214D02*
X10268691Y-12463262D01*
X10268691Y-12463262D02*
X10268691Y-12568024D01*
X10363929Y-12568024D02*
X10363929Y-12434690D01*
X10363929Y-12453738D02*
X10373452Y-12444214D01*
X10373452Y-12444214D02*
X10392500Y-12434690D01*
X10392500Y-12434690D02*
X10421072Y-12434690D01*
X10421072Y-12434690D02*
X10440119Y-12444214D01*
X10440119Y-12444214D02*
X10449643Y-12463262D01*
X10449643Y-12463262D02*
X10449643Y-12568024D01*
X10449643Y-12463262D02*
X10459167Y-12444214D01*
X10459167Y-12444214D02*
X10478214Y-12434690D01*
X10478214Y-12434690D02*
X10506786Y-12434690D01*
X10506786Y-12434690D02*
X10525833Y-12444214D01*
X10525833Y-12444214D02*
X10535357Y-12463262D01*
X10535357Y-12463262D02*
X10535357Y-12568024D01*
X10925833Y-12358500D02*
X10754405Y-12615643D01*
X11182976Y-12368024D02*
X11202024Y-12368024D01*
X11202024Y-12368024D02*
X11221072Y-12377548D01*
X11221072Y-12377548D02*
X11230595Y-12387071D01*
X11230595Y-12387071D02*
X11240119Y-12406119D01*
X11240119Y-12406119D02*
X11249643Y-12444214D01*
X11249643Y-12444214D02*
X11249643Y-12491833D01*
X11249643Y-12491833D02*
X11240119Y-12529928D01*
X11240119Y-12529928D02*
X11230595Y-12548976D01*
X11230595Y-12548976D02*
X11221072Y-12558500D01*
X11221072Y-12558500D02*
X11202024Y-12568024D01*
X11202024Y-12568024D02*
X11182976Y-12568024D01*
X11182976Y-12568024D02*
X11163929Y-12558500D01*
X11163929Y-12558500D02*
X11154405Y-12548976D01*
X11154405Y-12548976D02*
X11144881Y-12529928D01*
X11144881Y-12529928D02*
X11135357Y-12491833D01*
X11135357Y-12491833D02*
X11135357Y-12444214D01*
X11135357Y-12444214D02*
X11144881Y-12406119D01*
X11144881Y-12406119D02*
X11154405Y-12387071D01*
X11154405Y-12387071D02*
X11163929Y-12377548D01*
X11163929Y-12377548D02*
X11182976Y-12368024D01*
X11335357Y-12548976D02*
X11344881Y-12558500D01*
X11344881Y-12558500D02*
X11335357Y-12568024D01*
X11335357Y-12568024D02*
X11325833Y-12558500D01*
X11325833Y-12558500D02*
X11335357Y-12548976D01*
X11335357Y-12548976D02*
X11335357Y-12568024D01*
X11468691Y-12368024D02*
X11487738Y-12368024D01*
X11487738Y-12368024D02*
X11506786Y-12377548D01*
X11506786Y-12377548D02*
X11516310Y-12387071D01*
X11516310Y-12387071D02*
X11525833Y-12406119D01*
X11525833Y-12406119D02*
X11535357Y-12444214D01*
X11535357Y-12444214D02*
X11535357Y-12491833D01*
X11535357Y-12491833D02*
X11525833Y-12529928D01*
X11525833Y-12529928D02*
X11516310Y-12548976D01*
X11516310Y-12548976D02*
X11506786Y-12558500D01*
X11506786Y-12558500D02*
X11487738Y-12568024D01*
X11487738Y-12568024D02*
X11468691Y-12568024D01*
X11468691Y-12568024D02*
X11449643Y-12558500D01*
X11449643Y-12558500D02*
X11440119Y-12548976D01*
X11440119Y-12548976D02*
X11430595Y-12529928D01*
X11430595Y-12529928D02*
X11421072Y-12491833D01*
X11421072Y-12491833D02*
X11421072Y-12444214D01*
X11421072Y-12444214D02*
X11430595Y-12406119D01*
X11430595Y-12406119D02*
X11440119Y-12387071D01*
X11440119Y-12387071D02*
X11449643Y-12377548D01*
X11449643Y-12377548D02*
X11468691Y-12368024D01*
X11602024Y-12368024D02*
X11725833Y-12368024D01*
X11725833Y-12368024D02*
X11659167Y-12444214D01*
X11659167Y-12444214D02*
X11687738Y-12444214D01*
X11687738Y-12444214D02*
X11706786Y-12453738D01*
X11706786Y-12453738D02*
X11716310Y-12463262D01*
X11716310Y-12463262D02*
X11725833Y-12482309D01*
X11725833Y-12482309D02*
X11725833Y-12529928D01*
X11725833Y-12529928D02*
X11716310Y-12548976D01*
X11716310Y-12548976D02*
X11706786Y-12558500D01*
X11706786Y-12558500D02*
X11687738Y-12568024D01*
X11687738Y-12568024D02*
X11630595Y-12568024D01*
X11630595Y-12568024D02*
X11611548Y-12558500D01*
X11611548Y-12558500D02*
X11602024Y-12548976D01*
X11916310Y-12568024D02*
X11802024Y-12568024D01*
X11859167Y-12568024D02*
X11859167Y-12368024D01*
X11859167Y-12368024D02*
X11840119Y-12396595D01*
X11840119Y-12396595D02*
X11821072Y-12415643D01*
X11821072Y-12415643D02*
X11802024Y-12425167D01*
X12097262Y-12368024D02*
X12002024Y-12368024D01*
X12002024Y-12368024D02*
X11992500Y-12463262D01*
X11992500Y-12463262D02*
X12002024Y-12453738D01*
X12002024Y-12453738D02*
X12021072Y-12444214D01*
X12021072Y-12444214D02*
X12068691Y-12444214D01*
X12068691Y-12444214D02*
X12087738Y-12453738D01*
X12087738Y-12453738D02*
X12097262Y-12463262D01*
X12097262Y-12463262D02*
X12106786Y-12482309D01*
X12106786Y-12482309D02*
X12106786Y-12529928D01*
X12106786Y-12529928D02*
X12097262Y-12548976D01*
X12097262Y-12548976D02*
X12087738Y-12558500D01*
X12087738Y-12558500D02*
X12068691Y-12568024D01*
X12068691Y-12568024D02*
X12021072Y-12568024D01*
X12021072Y-12568024D02*
X12002024Y-12558500D01*
X12002024Y-12558500D02*
X11992500Y-12548976D01*
X12182976Y-12368024D02*
X12182976Y-12406119D01*
X12259167Y-12368024D02*
X12259167Y-12406119D01*
X12554405Y-12644214D02*
X12544881Y-12634690D01*
X12544881Y-12634690D02*
X12525834Y-12606119D01*
X12525834Y-12606119D02*
X12516310Y-12587071D01*
X12516310Y-12587071D02*
X12506786Y-12558500D01*
X12506786Y-12558500D02*
X12497262Y-12510881D01*
X12497262Y-12510881D02*
X12497262Y-12472786D01*
X12497262Y-12472786D02*
X12506786Y-12425167D01*
X12506786Y-12425167D02*
X12516310Y-12396595D01*
X12516310Y-12396595D02*
X12525834Y-12377548D01*
X12525834Y-12377548D02*
X12544881Y-12348976D01*
X12544881Y-12348976D02*
X12554405Y-12339452D01*
X12640119Y-12568024D02*
X12678214Y-12568024D01*
X12678214Y-12568024D02*
X12697262Y-12558500D01*
X12697262Y-12558500D02*
X12706786Y-12548976D01*
X12706786Y-12548976D02*
X12725834Y-12520405D01*
X12725834Y-12520405D02*
X12735357Y-12482309D01*
X12735357Y-12482309D02*
X12735357Y-12406119D01*
X12735357Y-12406119D02*
X12725834Y-12387071D01*
X12725834Y-12387071D02*
X12716310Y-12377548D01*
X12716310Y-12377548D02*
X12697262Y-12368024D01*
X12697262Y-12368024D02*
X12659167Y-12368024D01*
X12659167Y-12368024D02*
X12640119Y-12377548D01*
X12640119Y-12377548D02*
X12630595Y-12387071D01*
X12630595Y-12387071D02*
X12621072Y-12406119D01*
X12621072Y-12406119D02*
X12621072Y-12453738D01*
X12621072Y-12453738D02*
X12630595Y-12472786D01*
X12630595Y-12472786D02*
X12640119Y-12482309D01*
X12640119Y-12482309D02*
X12659167Y-12491833D01*
X12659167Y-12491833D02*
X12697262Y-12491833D01*
X12697262Y-12491833D02*
X12716310Y-12482309D01*
X12716310Y-12482309D02*
X12725834Y-12472786D01*
X12725834Y-12472786D02*
X12735357Y-12453738D01*
X12973453Y-12568024D02*
X12973453Y-12368024D01*
X13059167Y-12568024D02*
X13059167Y-12463262D01*
X13059167Y-12463262D02*
X13049643Y-12444214D01*
X13049643Y-12444214D02*
X13030596Y-12434690D01*
X13030596Y-12434690D02*
X13002024Y-12434690D01*
X13002024Y-12434690D02*
X12982976Y-12444214D01*
X12982976Y-12444214D02*
X12973453Y-12453738D01*
X13182976Y-12568024D02*
X13163929Y-12558500D01*
X13163929Y-12558500D02*
X13154405Y-12548976D01*
X13154405Y-12548976D02*
X13144881Y-12529928D01*
X13144881Y-12529928D02*
X13144881Y-12472786D01*
X13144881Y-12472786D02*
X13154405Y-12453738D01*
X13154405Y-12453738D02*
X13163929Y-12444214D01*
X13163929Y-12444214D02*
X13182976Y-12434690D01*
X13182976Y-12434690D02*
X13211548Y-12434690D01*
X13211548Y-12434690D02*
X13230596Y-12444214D01*
X13230596Y-12444214D02*
X13240119Y-12453738D01*
X13240119Y-12453738D02*
X13249643Y-12472786D01*
X13249643Y-12472786D02*
X13249643Y-12529928D01*
X13249643Y-12529928D02*
X13240119Y-12548976D01*
X13240119Y-12548976D02*
X13230596Y-12558500D01*
X13230596Y-12558500D02*
X13211548Y-12568024D01*
X13211548Y-12568024D02*
X13182976Y-12568024D01*
X13363929Y-12568024D02*
X13344881Y-12558500D01*
X13344881Y-12558500D02*
X13335357Y-12539452D01*
X13335357Y-12539452D02*
X13335357Y-12368024D01*
X13516310Y-12558500D02*
X13497262Y-12568024D01*
X13497262Y-12568024D02*
X13459167Y-12568024D01*
X13459167Y-12568024D02*
X13440119Y-12558500D01*
X13440119Y-12558500D02*
X13430596Y-12539452D01*
X13430596Y-12539452D02*
X13430596Y-12463262D01*
X13430596Y-12463262D02*
X13440119Y-12444214D01*
X13440119Y-12444214D02*
X13459167Y-12434690D01*
X13459167Y-12434690D02*
X13497262Y-12434690D01*
X13497262Y-12434690D02*
X13516310Y-12444214D01*
X13516310Y-12444214D02*
X13525834Y-12463262D01*
X13525834Y-12463262D02*
X13525834Y-12482309D01*
X13525834Y-12482309D02*
X13430596Y-12501357D01*
X13602024Y-12558500D02*
X13621072Y-12568024D01*
X13621072Y-12568024D02*
X13659167Y-12568024D01*
X13659167Y-12568024D02*
X13678215Y-12558500D01*
X13678215Y-12558500D02*
X13687738Y-12539452D01*
X13687738Y-12539452D02*
X13687738Y-12529928D01*
X13687738Y-12529928D02*
X13678215Y-12510881D01*
X13678215Y-12510881D02*
X13659167Y-12501357D01*
X13659167Y-12501357D02*
X13630596Y-12501357D01*
X13630596Y-12501357D02*
X13611548Y-12491833D01*
X13611548Y-12491833D02*
X13602024Y-12472786D01*
X13602024Y-12472786D02*
X13602024Y-12463262D01*
X13602024Y-12463262D02*
X13611548Y-12444214D01*
X13611548Y-12444214D02*
X13630596Y-12434690D01*
X13630596Y-12434690D02*
X13659167Y-12434690D01*
X13659167Y-12434690D02*
X13678215Y-12444214D01*
X13754405Y-12644214D02*
X13763929Y-12634690D01*
X13763929Y-12634690D02*
X13782977Y-12606119D01*
X13782977Y-12606119D02*
X13792500Y-12587071D01*
X13792500Y-12587071D02*
X13802024Y-12558500D01*
X13802024Y-12558500D02*
X13811548Y-12510881D01*
X13811548Y-12510881D02*
X13811548Y-12472786D01*
X13811548Y-12472786D02*
X13802024Y-12425167D01*
X13802024Y-12425167D02*
X13792500Y-12396595D01*
X13792500Y-12396595D02*
X13782977Y-12377548D01*
X13782977Y-12377548D02*
X13763929Y-12348976D01*
X13763929Y-12348976D02*
X13754405Y-12339452D01*
D15*
X8977856Y-12774856D02*
X8977856Y-12704144D01*
X8907144Y-12704144D01*
X8907144Y-12774856D01*
X8977856Y-12774856D01*
D11*
X9344881Y-12832024D02*
X9230595Y-12832024D01*
X9287738Y-12832024D02*
X9287738Y-12632024D01*
X9287738Y-12632024D02*
X9268690Y-12660595D01*
X9268690Y-12660595D02*
X9249643Y-12679643D01*
X9249643Y-12679643D02*
X9230595Y-12689167D01*
X9430595Y-12812976D02*
X9440119Y-12822500D01*
X9440119Y-12822500D02*
X9430595Y-12832024D01*
X9430595Y-12832024D02*
X9421071Y-12822500D01*
X9421071Y-12822500D02*
X9430595Y-12812976D01*
X9430595Y-12812976D02*
X9430595Y-12832024D01*
X9563929Y-12632024D02*
X9582976Y-12632024D01*
X9582976Y-12632024D02*
X9602024Y-12641548D01*
X9602024Y-12641548D02*
X9611548Y-12651071D01*
X9611548Y-12651071D02*
X9621071Y-12670119D01*
X9621071Y-12670119D02*
X9630595Y-12708214D01*
X9630595Y-12708214D02*
X9630595Y-12755833D01*
X9630595Y-12755833D02*
X9621071Y-12793928D01*
X9621071Y-12793928D02*
X9611548Y-12812976D01*
X9611548Y-12812976D02*
X9602024Y-12822500D01*
X9602024Y-12822500D02*
X9582976Y-12832024D01*
X9582976Y-12832024D02*
X9563929Y-12832024D01*
X9563929Y-12832024D02*
X9544881Y-12822500D01*
X9544881Y-12822500D02*
X9535357Y-12812976D01*
X9535357Y-12812976D02*
X9525833Y-12793928D01*
X9525833Y-12793928D02*
X9516310Y-12755833D01*
X9516310Y-12755833D02*
X9516310Y-12708214D01*
X9516310Y-12708214D02*
X9525833Y-12670119D01*
X9525833Y-12670119D02*
X9535357Y-12651071D01*
X9535357Y-12651071D02*
X9544881Y-12641548D01*
X9544881Y-12641548D02*
X9563929Y-12632024D01*
X9754405Y-12632024D02*
X9773452Y-12632024D01*
X9773452Y-12632024D02*
X9792500Y-12641548D01*
X9792500Y-12641548D02*
X9802024Y-12651071D01*
X9802024Y-12651071D02*
X9811548Y-12670119D01*
X9811548Y-12670119D02*
X9821071Y-12708214D01*
X9821071Y-12708214D02*
X9821071Y-12755833D01*
X9821071Y-12755833D02*
X9811548Y-12793928D01*
X9811548Y-12793928D02*
X9802024Y-12812976D01*
X9802024Y-12812976D02*
X9792500Y-12822500D01*
X9792500Y-12822500D02*
X9773452Y-12832024D01*
X9773452Y-12832024D02*
X9754405Y-12832024D01*
X9754405Y-12832024D02*
X9735357Y-12822500D01*
X9735357Y-12822500D02*
X9725833Y-12812976D01*
X9725833Y-12812976D02*
X9716310Y-12793928D01*
X9716310Y-12793928D02*
X9706786Y-12755833D01*
X9706786Y-12755833D02*
X9706786Y-12708214D01*
X9706786Y-12708214D02*
X9716310Y-12670119D01*
X9716310Y-12670119D02*
X9725833Y-12651071D01*
X9725833Y-12651071D02*
X9735357Y-12641548D01*
X9735357Y-12641548D02*
X9754405Y-12632024D01*
X9944881Y-12632024D02*
X9963929Y-12632024D01*
X9963929Y-12632024D02*
X9982976Y-12641548D01*
X9982976Y-12641548D02*
X9992500Y-12651071D01*
X9992500Y-12651071D02*
X10002024Y-12670119D01*
X10002024Y-12670119D02*
X10011548Y-12708214D01*
X10011548Y-12708214D02*
X10011548Y-12755833D01*
X10011548Y-12755833D02*
X10002024Y-12793928D01*
X10002024Y-12793928D02*
X9992500Y-12812976D01*
X9992500Y-12812976D02*
X9982976Y-12822500D01*
X9982976Y-12822500D02*
X9963929Y-12832024D01*
X9963929Y-12832024D02*
X9944881Y-12832024D01*
X9944881Y-12832024D02*
X9925833Y-12822500D01*
X9925833Y-12822500D02*
X9916310Y-12812976D01*
X9916310Y-12812976D02*
X9906786Y-12793928D01*
X9906786Y-12793928D02*
X9897262Y-12755833D01*
X9897262Y-12755833D02*
X9897262Y-12708214D01*
X9897262Y-12708214D02*
X9906786Y-12670119D01*
X9906786Y-12670119D02*
X9916310Y-12651071D01*
X9916310Y-12651071D02*
X9925833Y-12641548D01*
X9925833Y-12641548D02*
X9944881Y-12632024D01*
X10097262Y-12832024D02*
X10097262Y-12698690D01*
X10097262Y-12717738D02*
X10106786Y-12708214D01*
X10106786Y-12708214D02*
X10125833Y-12698690D01*
X10125833Y-12698690D02*
X10154405Y-12698690D01*
X10154405Y-12698690D02*
X10173452Y-12708214D01*
X10173452Y-12708214D02*
X10182976Y-12727262D01*
X10182976Y-12727262D02*
X10182976Y-12832024D01*
X10182976Y-12727262D02*
X10192500Y-12708214D01*
X10192500Y-12708214D02*
X10211548Y-12698690D01*
X10211548Y-12698690D02*
X10240119Y-12698690D01*
X10240119Y-12698690D02*
X10259167Y-12708214D01*
X10259167Y-12708214D02*
X10268691Y-12727262D01*
X10268691Y-12727262D02*
X10268691Y-12832024D01*
X10363929Y-12832024D02*
X10363929Y-12698690D01*
X10363929Y-12717738D02*
X10373452Y-12708214D01*
X10373452Y-12708214D02*
X10392500Y-12698690D01*
X10392500Y-12698690D02*
X10421072Y-12698690D01*
X10421072Y-12698690D02*
X10440119Y-12708214D01*
X10440119Y-12708214D02*
X10449643Y-12727262D01*
X10449643Y-12727262D02*
X10449643Y-12832024D01*
X10449643Y-12727262D02*
X10459167Y-12708214D01*
X10459167Y-12708214D02*
X10478214Y-12698690D01*
X10478214Y-12698690D02*
X10506786Y-12698690D01*
X10506786Y-12698690D02*
X10525833Y-12708214D01*
X10525833Y-12708214D02*
X10535357Y-12727262D01*
X10535357Y-12727262D02*
X10535357Y-12832024D01*
X10925833Y-12622500D02*
X10754405Y-12879643D01*
X11182976Y-12632024D02*
X11202024Y-12632024D01*
X11202024Y-12632024D02*
X11221072Y-12641548D01*
X11221072Y-12641548D02*
X11230595Y-12651071D01*
X11230595Y-12651071D02*
X11240119Y-12670119D01*
X11240119Y-12670119D02*
X11249643Y-12708214D01*
X11249643Y-12708214D02*
X11249643Y-12755833D01*
X11249643Y-12755833D02*
X11240119Y-12793928D01*
X11240119Y-12793928D02*
X11230595Y-12812976D01*
X11230595Y-12812976D02*
X11221072Y-12822500D01*
X11221072Y-12822500D02*
X11202024Y-12832024D01*
X11202024Y-12832024D02*
X11182976Y-12832024D01*
X11182976Y-12832024D02*
X11163929Y-12822500D01*
X11163929Y-12822500D02*
X11154405Y-12812976D01*
X11154405Y-12812976D02*
X11144881Y-12793928D01*
X11144881Y-12793928D02*
X11135357Y-12755833D01*
X11135357Y-12755833D02*
X11135357Y-12708214D01*
X11135357Y-12708214D02*
X11144881Y-12670119D01*
X11144881Y-12670119D02*
X11154405Y-12651071D01*
X11154405Y-12651071D02*
X11163929Y-12641548D01*
X11163929Y-12641548D02*
X11182976Y-12632024D01*
X11335357Y-12812976D02*
X11344881Y-12822500D01*
X11344881Y-12822500D02*
X11335357Y-12832024D01*
X11335357Y-12832024D02*
X11325833Y-12822500D01*
X11325833Y-12822500D02*
X11335357Y-12812976D01*
X11335357Y-12812976D02*
X11335357Y-12832024D01*
X11468691Y-12632024D02*
X11487738Y-12632024D01*
X11487738Y-12632024D02*
X11506786Y-12641548D01*
X11506786Y-12641548D02*
X11516310Y-12651071D01*
X11516310Y-12651071D02*
X11525833Y-12670119D01*
X11525833Y-12670119D02*
X11535357Y-12708214D01*
X11535357Y-12708214D02*
X11535357Y-12755833D01*
X11535357Y-12755833D02*
X11525833Y-12793928D01*
X11525833Y-12793928D02*
X11516310Y-12812976D01*
X11516310Y-12812976D02*
X11506786Y-12822500D01*
X11506786Y-12822500D02*
X11487738Y-12832024D01*
X11487738Y-12832024D02*
X11468691Y-12832024D01*
X11468691Y-12832024D02*
X11449643Y-12822500D01*
X11449643Y-12822500D02*
X11440119Y-12812976D01*
X11440119Y-12812976D02*
X11430595Y-12793928D01*
X11430595Y-12793928D02*
X11421072Y-12755833D01*
X11421072Y-12755833D02*
X11421072Y-12708214D01*
X11421072Y-12708214D02*
X11430595Y-12670119D01*
X11430595Y-12670119D02*
X11440119Y-12651071D01*
X11440119Y-12651071D02*
X11449643Y-12641548D01*
X11449643Y-12641548D02*
X11468691Y-12632024D01*
X11602024Y-12632024D02*
X11725833Y-12632024D01*
X11725833Y-12632024D02*
X11659167Y-12708214D01*
X11659167Y-12708214D02*
X11687738Y-12708214D01*
X11687738Y-12708214D02*
X11706786Y-12717738D01*
X11706786Y-12717738D02*
X11716310Y-12727262D01*
X11716310Y-12727262D02*
X11725833Y-12746309D01*
X11725833Y-12746309D02*
X11725833Y-12793928D01*
X11725833Y-12793928D02*
X11716310Y-12812976D01*
X11716310Y-12812976D02*
X11706786Y-12822500D01*
X11706786Y-12822500D02*
X11687738Y-12832024D01*
X11687738Y-12832024D02*
X11630595Y-12832024D01*
X11630595Y-12832024D02*
X11611548Y-12822500D01*
X11611548Y-12822500D02*
X11602024Y-12812976D01*
X11821072Y-12832024D02*
X11859167Y-12832024D01*
X11859167Y-12832024D02*
X11878214Y-12822500D01*
X11878214Y-12822500D02*
X11887738Y-12812976D01*
X11887738Y-12812976D02*
X11906786Y-12784405D01*
X11906786Y-12784405D02*
X11916310Y-12746309D01*
X11916310Y-12746309D02*
X11916310Y-12670119D01*
X11916310Y-12670119D02*
X11906786Y-12651071D01*
X11906786Y-12651071D02*
X11897262Y-12641548D01*
X11897262Y-12641548D02*
X11878214Y-12632024D01*
X11878214Y-12632024D02*
X11840119Y-12632024D01*
X11840119Y-12632024D02*
X11821072Y-12641548D01*
X11821072Y-12641548D02*
X11811548Y-12651071D01*
X11811548Y-12651071D02*
X11802024Y-12670119D01*
X11802024Y-12670119D02*
X11802024Y-12717738D01*
X11802024Y-12717738D02*
X11811548Y-12736786D01*
X11811548Y-12736786D02*
X11821072Y-12746309D01*
X11821072Y-12746309D02*
X11840119Y-12755833D01*
X11840119Y-12755833D02*
X11878214Y-12755833D01*
X11878214Y-12755833D02*
X11897262Y-12746309D01*
X11897262Y-12746309D02*
X11906786Y-12736786D01*
X11906786Y-12736786D02*
X11916310Y-12717738D01*
X12087738Y-12698690D02*
X12087738Y-12832024D01*
X12040119Y-12622500D02*
X11992500Y-12765357D01*
X11992500Y-12765357D02*
X12116310Y-12765357D01*
X12182976Y-12632024D02*
X12182976Y-12670119D01*
X12259167Y-12632024D02*
X12259167Y-12670119D01*
X12554405Y-12908214D02*
X12544881Y-12898690D01*
X12544881Y-12898690D02*
X12525834Y-12870119D01*
X12525834Y-12870119D02*
X12516310Y-12851071D01*
X12516310Y-12851071D02*
X12506786Y-12822500D01*
X12506786Y-12822500D02*
X12497262Y-12774881D01*
X12497262Y-12774881D02*
X12497262Y-12736786D01*
X12497262Y-12736786D02*
X12506786Y-12689167D01*
X12506786Y-12689167D02*
X12516310Y-12660595D01*
X12516310Y-12660595D02*
X12525834Y-12641548D01*
X12525834Y-12641548D02*
X12544881Y-12612976D01*
X12544881Y-12612976D02*
X12554405Y-12603452D01*
X12716310Y-12698690D02*
X12716310Y-12832024D01*
X12668691Y-12622500D02*
X12621072Y-12765357D01*
X12621072Y-12765357D02*
X12744881Y-12765357D01*
X12802024Y-12632024D02*
X12925834Y-12632024D01*
X12925834Y-12632024D02*
X12859167Y-12708214D01*
X12859167Y-12708214D02*
X12887738Y-12708214D01*
X12887738Y-12708214D02*
X12906786Y-12717738D01*
X12906786Y-12717738D02*
X12916310Y-12727262D01*
X12916310Y-12727262D02*
X12925834Y-12746309D01*
X12925834Y-12746309D02*
X12925834Y-12793928D01*
X12925834Y-12793928D02*
X12916310Y-12812976D01*
X12916310Y-12812976D02*
X12906786Y-12822500D01*
X12906786Y-12822500D02*
X12887738Y-12832024D01*
X12887738Y-12832024D02*
X12830595Y-12832024D01*
X12830595Y-12832024D02*
X12811548Y-12822500D01*
X12811548Y-12822500D02*
X12802024Y-12812976D01*
X13163929Y-12832024D02*
X13163929Y-12632024D01*
X13249643Y-12832024D02*
X13249643Y-12727262D01*
X13249643Y-12727262D02*
X13240119Y-12708214D01*
X13240119Y-12708214D02*
X13221072Y-12698690D01*
X13221072Y-12698690D02*
X13192500Y-12698690D01*
X13192500Y-12698690D02*
X13173453Y-12708214D01*
X13173453Y-12708214D02*
X13163929Y-12717738D01*
X13373453Y-12832024D02*
X13354405Y-12822500D01*
X13354405Y-12822500D02*
X13344881Y-12812976D01*
X13344881Y-12812976D02*
X13335357Y-12793928D01*
X13335357Y-12793928D02*
X13335357Y-12736786D01*
X13335357Y-12736786D02*
X13344881Y-12717738D01*
X13344881Y-12717738D02*
X13354405Y-12708214D01*
X13354405Y-12708214D02*
X13373453Y-12698690D01*
X13373453Y-12698690D02*
X13402024Y-12698690D01*
X13402024Y-12698690D02*
X13421072Y-12708214D01*
X13421072Y-12708214D02*
X13430596Y-12717738D01*
X13430596Y-12717738D02*
X13440119Y-12736786D01*
X13440119Y-12736786D02*
X13440119Y-12793928D01*
X13440119Y-12793928D02*
X13430596Y-12812976D01*
X13430596Y-12812976D02*
X13421072Y-12822500D01*
X13421072Y-12822500D02*
X13402024Y-12832024D01*
X13402024Y-12832024D02*
X13373453Y-12832024D01*
X13554405Y-12832024D02*
X13535357Y-12822500D01*
X13535357Y-12822500D02*
X13525834Y-12803452D01*
X13525834Y-12803452D02*
X13525834Y-12632024D01*
X13706786Y-12822500D02*
X13687738Y-12832024D01*
X13687738Y-12832024D02*
X13649643Y-12832024D01*
X13649643Y-12832024D02*
X13630596Y-12822500D01*
X13630596Y-12822500D02*
X13621072Y-12803452D01*
X13621072Y-12803452D02*
X13621072Y-12727262D01*
X13621072Y-12727262D02*
X13630596Y-12708214D01*
X13630596Y-12708214D02*
X13649643Y-12698690D01*
X13649643Y-12698690D02*
X13687738Y-12698690D01*
X13687738Y-12698690D02*
X13706786Y-12708214D01*
X13706786Y-12708214D02*
X13716310Y-12727262D01*
X13716310Y-12727262D02*
X13716310Y-12746309D01*
X13716310Y-12746309D02*
X13621072Y-12765357D01*
X13792500Y-12822500D02*
X13811548Y-12832024D01*
X13811548Y-12832024D02*
X13849643Y-12832024D01*
X13849643Y-12832024D02*
X13868691Y-12822500D01*
X13868691Y-12822500D02*
X13878215Y-12803452D01*
X13878215Y-12803452D02*
X13878215Y-12793928D01*
X13878215Y-12793928D02*
X13868691Y-12774881D01*
X13868691Y-12774881D02*
X13849643Y-12765357D01*
X13849643Y-12765357D02*
X13821072Y-12765357D01*
X13821072Y-12765357D02*
X13802024Y-12755833D01*
X13802024Y-12755833D02*
X13792500Y-12736786D01*
X13792500Y-12736786D02*
X13792500Y-12727262D01*
X13792500Y-12727262D02*
X13802024Y-12708214D01*
X13802024Y-12708214D02*
X13821072Y-12698690D01*
X13821072Y-12698690D02*
X13849643Y-12698690D01*
X13849643Y-12698690D02*
X13868691Y-12708214D01*
X13944881Y-12908214D02*
X13954405Y-12898690D01*
X13954405Y-12898690D02*
X13973453Y-12870119D01*
X13973453Y-12870119D02*
X13982977Y-12851071D01*
X13982977Y-12851071D02*
X13992500Y-12822500D01*
X13992500Y-12822500D02*
X14002024Y-12774881D01*
X14002024Y-12774881D02*
X14002024Y-12736786D01*
X14002024Y-12736786D02*
X13992500Y-12689167D01*
X13992500Y-12689167D02*
X13982977Y-12660595D01*
X13982977Y-12660595D02*
X13973453Y-12641548D01*
X13973453Y-12641548D02*
X13954405Y-12612976D01*
X13954405Y-12612976D02*
X13944881Y-12603452D01*
D10*
X8917500Y-13078500D02*
X8992500Y-13003500D01*
X8917500Y-12928500D01*
X8842500Y-13003500D01*
X8917500Y-13078500D01*
D11*
X9344881Y-13096024D02*
X9230595Y-13096024D01*
X9287738Y-13096024D02*
X9287738Y-12896024D01*
X9287738Y-12896024D02*
X9268690Y-12924595D01*
X9268690Y-12924595D02*
X9249643Y-12943643D01*
X9249643Y-12943643D02*
X9230595Y-12953167D01*
X9430595Y-13076976D02*
X9440119Y-13086500D01*
X9440119Y-13086500D02*
X9430595Y-13096024D01*
X9430595Y-13096024D02*
X9421071Y-13086500D01*
X9421071Y-13086500D02*
X9430595Y-13076976D01*
X9430595Y-13076976D02*
X9430595Y-13096024D01*
X9621071Y-12896024D02*
X9525833Y-12896024D01*
X9525833Y-12896024D02*
X9516310Y-12991262D01*
X9516310Y-12991262D02*
X9525833Y-12981738D01*
X9525833Y-12981738D02*
X9544881Y-12972214D01*
X9544881Y-12972214D02*
X9592500Y-12972214D01*
X9592500Y-12972214D02*
X9611548Y-12981738D01*
X9611548Y-12981738D02*
X9621071Y-12991262D01*
X9621071Y-12991262D02*
X9630595Y-13010309D01*
X9630595Y-13010309D02*
X9630595Y-13057928D01*
X9630595Y-13057928D02*
X9621071Y-13076976D01*
X9621071Y-13076976D02*
X9611548Y-13086500D01*
X9611548Y-13086500D02*
X9592500Y-13096024D01*
X9592500Y-13096024D02*
X9544881Y-13096024D01*
X9544881Y-13096024D02*
X9525833Y-13086500D01*
X9525833Y-13086500D02*
X9516310Y-13076976D01*
X9754405Y-12896024D02*
X9773452Y-12896024D01*
X9773452Y-12896024D02*
X9792500Y-12905548D01*
X9792500Y-12905548D02*
X9802024Y-12915071D01*
X9802024Y-12915071D02*
X9811548Y-12934119D01*
X9811548Y-12934119D02*
X9821071Y-12972214D01*
X9821071Y-12972214D02*
X9821071Y-13019833D01*
X9821071Y-13019833D02*
X9811548Y-13057928D01*
X9811548Y-13057928D02*
X9802024Y-13076976D01*
X9802024Y-13076976D02*
X9792500Y-13086500D01*
X9792500Y-13086500D02*
X9773452Y-13096024D01*
X9773452Y-13096024D02*
X9754405Y-13096024D01*
X9754405Y-13096024D02*
X9735357Y-13086500D01*
X9735357Y-13086500D02*
X9725833Y-13076976D01*
X9725833Y-13076976D02*
X9716310Y-13057928D01*
X9716310Y-13057928D02*
X9706786Y-13019833D01*
X9706786Y-13019833D02*
X9706786Y-12972214D01*
X9706786Y-12972214D02*
X9716310Y-12934119D01*
X9716310Y-12934119D02*
X9725833Y-12915071D01*
X9725833Y-12915071D02*
X9735357Y-12905548D01*
X9735357Y-12905548D02*
X9754405Y-12896024D01*
X9944881Y-12896024D02*
X9963929Y-12896024D01*
X9963929Y-12896024D02*
X9982976Y-12905548D01*
X9982976Y-12905548D02*
X9992500Y-12915071D01*
X9992500Y-12915071D02*
X10002024Y-12934119D01*
X10002024Y-12934119D02*
X10011548Y-12972214D01*
X10011548Y-12972214D02*
X10011548Y-13019833D01*
X10011548Y-13019833D02*
X10002024Y-13057928D01*
X10002024Y-13057928D02*
X9992500Y-13076976D01*
X9992500Y-13076976D02*
X9982976Y-13086500D01*
X9982976Y-13086500D02*
X9963929Y-13096024D01*
X9963929Y-13096024D02*
X9944881Y-13096024D01*
X9944881Y-13096024D02*
X9925833Y-13086500D01*
X9925833Y-13086500D02*
X9916310Y-13076976D01*
X9916310Y-13076976D02*
X9906786Y-13057928D01*
X9906786Y-13057928D02*
X9897262Y-13019833D01*
X9897262Y-13019833D02*
X9897262Y-12972214D01*
X9897262Y-12972214D02*
X9906786Y-12934119D01*
X9906786Y-12934119D02*
X9916310Y-12915071D01*
X9916310Y-12915071D02*
X9925833Y-12905548D01*
X9925833Y-12905548D02*
X9944881Y-12896024D01*
X10097262Y-13096024D02*
X10097262Y-12962690D01*
X10097262Y-12981738D02*
X10106786Y-12972214D01*
X10106786Y-12972214D02*
X10125833Y-12962690D01*
X10125833Y-12962690D02*
X10154405Y-12962690D01*
X10154405Y-12962690D02*
X10173452Y-12972214D01*
X10173452Y-12972214D02*
X10182976Y-12991262D01*
X10182976Y-12991262D02*
X10182976Y-13096024D01*
X10182976Y-12991262D02*
X10192500Y-12972214D01*
X10192500Y-12972214D02*
X10211548Y-12962690D01*
X10211548Y-12962690D02*
X10240119Y-12962690D01*
X10240119Y-12962690D02*
X10259167Y-12972214D01*
X10259167Y-12972214D02*
X10268691Y-12991262D01*
X10268691Y-12991262D02*
X10268691Y-13096024D01*
X10363929Y-13096024D02*
X10363929Y-12962690D01*
X10363929Y-12981738D02*
X10373452Y-12972214D01*
X10373452Y-12972214D02*
X10392500Y-12962690D01*
X10392500Y-12962690D02*
X10421072Y-12962690D01*
X10421072Y-12962690D02*
X10440119Y-12972214D01*
X10440119Y-12972214D02*
X10449643Y-12991262D01*
X10449643Y-12991262D02*
X10449643Y-13096024D01*
X10449643Y-12991262D02*
X10459167Y-12972214D01*
X10459167Y-12972214D02*
X10478214Y-12962690D01*
X10478214Y-12962690D02*
X10506786Y-12962690D01*
X10506786Y-12962690D02*
X10525833Y-12972214D01*
X10525833Y-12972214D02*
X10535357Y-12991262D01*
X10535357Y-12991262D02*
X10535357Y-13096024D01*
X10925833Y-12886500D02*
X10754405Y-13143643D01*
X11182976Y-12896024D02*
X11202024Y-12896024D01*
X11202024Y-12896024D02*
X11221072Y-12905548D01*
X11221072Y-12905548D02*
X11230595Y-12915071D01*
X11230595Y-12915071D02*
X11240119Y-12934119D01*
X11240119Y-12934119D02*
X11249643Y-12972214D01*
X11249643Y-12972214D02*
X11249643Y-13019833D01*
X11249643Y-13019833D02*
X11240119Y-13057928D01*
X11240119Y-13057928D02*
X11230595Y-13076976D01*
X11230595Y-13076976D02*
X11221072Y-13086500D01*
X11221072Y-13086500D02*
X11202024Y-13096024D01*
X11202024Y-13096024D02*
X11182976Y-13096024D01*
X11182976Y-13096024D02*
X11163929Y-13086500D01*
X11163929Y-13086500D02*
X11154405Y-13076976D01*
X11154405Y-13076976D02*
X11144881Y-13057928D01*
X11144881Y-13057928D02*
X11135357Y-13019833D01*
X11135357Y-13019833D02*
X11135357Y-12972214D01*
X11135357Y-12972214D02*
X11144881Y-12934119D01*
X11144881Y-12934119D02*
X11154405Y-12915071D01*
X11154405Y-12915071D02*
X11163929Y-12905548D01*
X11163929Y-12905548D02*
X11182976Y-12896024D01*
X11335357Y-13076976D02*
X11344881Y-13086500D01*
X11344881Y-13086500D02*
X11335357Y-13096024D01*
X11335357Y-13096024D02*
X11325833Y-13086500D01*
X11325833Y-13086500D02*
X11335357Y-13076976D01*
X11335357Y-13076976D02*
X11335357Y-13096024D01*
X11468691Y-12896024D02*
X11487738Y-12896024D01*
X11487738Y-12896024D02*
X11506786Y-12905548D01*
X11506786Y-12905548D02*
X11516310Y-12915071D01*
X11516310Y-12915071D02*
X11525833Y-12934119D01*
X11525833Y-12934119D02*
X11535357Y-12972214D01*
X11535357Y-12972214D02*
X11535357Y-13019833D01*
X11535357Y-13019833D02*
X11525833Y-13057928D01*
X11525833Y-13057928D02*
X11516310Y-13076976D01*
X11516310Y-13076976D02*
X11506786Y-13086500D01*
X11506786Y-13086500D02*
X11487738Y-13096024D01*
X11487738Y-13096024D02*
X11468691Y-13096024D01*
X11468691Y-13096024D02*
X11449643Y-13086500D01*
X11449643Y-13086500D02*
X11440119Y-13076976D01*
X11440119Y-13076976D02*
X11430595Y-13057928D01*
X11430595Y-13057928D02*
X11421072Y-13019833D01*
X11421072Y-13019833D02*
X11421072Y-12972214D01*
X11421072Y-12972214D02*
X11430595Y-12934119D01*
X11430595Y-12934119D02*
X11440119Y-12915071D01*
X11440119Y-12915071D02*
X11449643Y-12905548D01*
X11449643Y-12905548D02*
X11468691Y-12896024D01*
X11716310Y-12896024D02*
X11621072Y-12896024D01*
X11621072Y-12896024D02*
X11611548Y-12991262D01*
X11611548Y-12991262D02*
X11621072Y-12981738D01*
X11621072Y-12981738D02*
X11640119Y-12972214D01*
X11640119Y-12972214D02*
X11687738Y-12972214D01*
X11687738Y-12972214D02*
X11706786Y-12981738D01*
X11706786Y-12981738D02*
X11716310Y-12991262D01*
X11716310Y-12991262D02*
X11725833Y-13010309D01*
X11725833Y-13010309D02*
X11725833Y-13057928D01*
X11725833Y-13057928D02*
X11716310Y-13076976D01*
X11716310Y-13076976D02*
X11706786Y-13086500D01*
X11706786Y-13086500D02*
X11687738Y-13096024D01*
X11687738Y-13096024D02*
X11640119Y-13096024D01*
X11640119Y-13096024D02*
X11621072Y-13086500D01*
X11621072Y-13086500D02*
X11611548Y-13076976D01*
X11821072Y-13096024D02*
X11859167Y-13096024D01*
X11859167Y-13096024D02*
X11878214Y-13086500D01*
X11878214Y-13086500D02*
X11887738Y-13076976D01*
X11887738Y-13076976D02*
X11906786Y-13048405D01*
X11906786Y-13048405D02*
X11916310Y-13010309D01*
X11916310Y-13010309D02*
X11916310Y-12934119D01*
X11916310Y-12934119D02*
X11906786Y-12915071D01*
X11906786Y-12915071D02*
X11897262Y-12905548D01*
X11897262Y-12905548D02*
X11878214Y-12896024D01*
X11878214Y-12896024D02*
X11840119Y-12896024D01*
X11840119Y-12896024D02*
X11821072Y-12905548D01*
X11821072Y-12905548D02*
X11811548Y-12915071D01*
X11811548Y-12915071D02*
X11802024Y-12934119D01*
X11802024Y-12934119D02*
X11802024Y-12981738D01*
X11802024Y-12981738D02*
X11811548Y-13000786D01*
X11811548Y-13000786D02*
X11821072Y-13010309D01*
X11821072Y-13010309D02*
X11840119Y-13019833D01*
X11840119Y-13019833D02*
X11878214Y-13019833D01*
X11878214Y-13019833D02*
X11897262Y-13010309D01*
X11897262Y-13010309D02*
X11906786Y-13000786D01*
X11906786Y-13000786D02*
X11916310Y-12981738D01*
X12106786Y-13096024D02*
X11992500Y-13096024D01*
X12049643Y-13096024D02*
X12049643Y-12896024D01*
X12049643Y-12896024D02*
X12030595Y-12924595D01*
X12030595Y-12924595D02*
X12011548Y-12943643D01*
X12011548Y-12943643D02*
X11992500Y-12953167D01*
X12182976Y-12896024D02*
X12182976Y-12934119D01*
X12259167Y-12896024D02*
X12259167Y-12934119D01*
X12554405Y-13172214D02*
X12544881Y-13162690D01*
X12544881Y-13162690D02*
X12525834Y-13134119D01*
X12525834Y-13134119D02*
X12516310Y-13115071D01*
X12516310Y-13115071D02*
X12506786Y-13086500D01*
X12506786Y-13086500D02*
X12497262Y-13038881D01*
X12497262Y-13038881D02*
X12497262Y-13000786D01*
X12497262Y-13000786D02*
X12506786Y-12953167D01*
X12506786Y-12953167D02*
X12516310Y-12924595D01*
X12516310Y-12924595D02*
X12525834Y-12905548D01*
X12525834Y-12905548D02*
X12544881Y-12876976D01*
X12544881Y-12876976D02*
X12554405Y-12867452D01*
X12735357Y-13096024D02*
X12621072Y-13096024D01*
X12678214Y-13096024D02*
X12678214Y-12896024D01*
X12678214Y-12896024D02*
X12659167Y-12924595D01*
X12659167Y-12924595D02*
X12640119Y-12943643D01*
X12640119Y-12943643D02*
X12621072Y-12953167D01*
X12973453Y-13096024D02*
X12973453Y-12896024D01*
X13059167Y-13096024D02*
X13059167Y-12991262D01*
X13059167Y-12991262D02*
X13049643Y-12972214D01*
X13049643Y-12972214D02*
X13030596Y-12962690D01*
X13030596Y-12962690D02*
X13002024Y-12962690D01*
X13002024Y-12962690D02*
X12982976Y-12972214D01*
X12982976Y-12972214D02*
X12973453Y-12981738D01*
X13182976Y-13096024D02*
X13163929Y-13086500D01*
X13163929Y-13086500D02*
X13154405Y-13076976D01*
X13154405Y-13076976D02*
X13144881Y-13057928D01*
X13144881Y-13057928D02*
X13144881Y-13000786D01*
X13144881Y-13000786D02*
X13154405Y-12981738D01*
X13154405Y-12981738D02*
X13163929Y-12972214D01*
X13163929Y-12972214D02*
X13182976Y-12962690D01*
X13182976Y-12962690D02*
X13211548Y-12962690D01*
X13211548Y-12962690D02*
X13230596Y-12972214D01*
X13230596Y-12972214D02*
X13240119Y-12981738D01*
X13240119Y-12981738D02*
X13249643Y-13000786D01*
X13249643Y-13000786D02*
X13249643Y-13057928D01*
X13249643Y-13057928D02*
X13240119Y-13076976D01*
X13240119Y-13076976D02*
X13230596Y-13086500D01*
X13230596Y-13086500D02*
X13211548Y-13096024D01*
X13211548Y-13096024D02*
X13182976Y-13096024D01*
X13363929Y-13096024D02*
X13344881Y-13086500D01*
X13344881Y-13086500D02*
X13335357Y-13067452D01*
X13335357Y-13067452D02*
X13335357Y-12896024D01*
X13516310Y-13086500D02*
X13497262Y-13096024D01*
X13497262Y-13096024D02*
X13459167Y-13096024D01*
X13459167Y-13096024D02*
X13440119Y-13086500D01*
X13440119Y-13086500D02*
X13430596Y-13067452D01*
X13430596Y-13067452D02*
X13430596Y-12991262D01*
X13430596Y-12991262D02*
X13440119Y-12972214D01*
X13440119Y-12972214D02*
X13459167Y-12962690D01*
X13459167Y-12962690D02*
X13497262Y-12962690D01*
X13497262Y-12962690D02*
X13516310Y-12972214D01*
X13516310Y-12972214D02*
X13525834Y-12991262D01*
X13525834Y-12991262D02*
X13525834Y-13010309D01*
X13525834Y-13010309D02*
X13430596Y-13029357D01*
X13592500Y-13172214D02*
X13602024Y-13162690D01*
X13602024Y-13162690D02*
X13621072Y-13134119D01*
X13621072Y-13134119D02*
X13630596Y-13115071D01*
X13630596Y-13115071D02*
X13640119Y-13086500D01*
X13640119Y-13086500D02*
X13649643Y-13038881D01*
X13649643Y-13038881D02*
X13649643Y-13000786D01*
X13649643Y-13000786D02*
X13640119Y-12953167D01*
X13640119Y-12953167D02*
X13630596Y-12924595D01*
X13630596Y-12924595D02*
X13621072Y-12905548D01*
X13621072Y-12905548D02*
X13602024Y-12876976D01*
X13602024Y-12876976D02*
X13592500Y-12867452D01*
D16*
X8822500Y-13188500D02*
X8992500Y-13358500D01*
X8992500Y-13188500D02*
X8822500Y-13358500D01*
X8992500Y-13273500D02*
G75*
G03*
X8992500Y-13273500I-85000J0D01*
G01*
D11*
X9344881Y-13366024D02*
X9230595Y-13366024D01*
X9287738Y-13366024D02*
X9287738Y-13166024D01*
X9287738Y-13166024D02*
X9268690Y-13194595D01*
X9268690Y-13194595D02*
X9249643Y-13213643D01*
X9249643Y-13213643D02*
X9230595Y-13223167D01*
X9430595Y-13346976D02*
X9440119Y-13356500D01*
X9440119Y-13356500D02*
X9430595Y-13366024D01*
X9430595Y-13366024D02*
X9421071Y-13356500D01*
X9421071Y-13356500D02*
X9430595Y-13346976D01*
X9430595Y-13346976D02*
X9430595Y-13366024D01*
X9506786Y-13166024D02*
X9640119Y-13166024D01*
X9640119Y-13166024D02*
X9554405Y-13366024D01*
X9754405Y-13166024D02*
X9773452Y-13166024D01*
X9773452Y-13166024D02*
X9792500Y-13175548D01*
X9792500Y-13175548D02*
X9802024Y-13185071D01*
X9802024Y-13185071D02*
X9811548Y-13204119D01*
X9811548Y-13204119D02*
X9821071Y-13242214D01*
X9821071Y-13242214D02*
X9821071Y-13289833D01*
X9821071Y-13289833D02*
X9811548Y-13327928D01*
X9811548Y-13327928D02*
X9802024Y-13346976D01*
X9802024Y-13346976D02*
X9792500Y-13356500D01*
X9792500Y-13356500D02*
X9773452Y-13366024D01*
X9773452Y-13366024D02*
X9754405Y-13366024D01*
X9754405Y-13366024D02*
X9735357Y-13356500D01*
X9735357Y-13356500D02*
X9725833Y-13346976D01*
X9725833Y-13346976D02*
X9716310Y-13327928D01*
X9716310Y-13327928D02*
X9706786Y-13289833D01*
X9706786Y-13289833D02*
X9706786Y-13242214D01*
X9706786Y-13242214D02*
X9716310Y-13204119D01*
X9716310Y-13204119D02*
X9725833Y-13185071D01*
X9725833Y-13185071D02*
X9735357Y-13175548D01*
X9735357Y-13175548D02*
X9754405Y-13166024D01*
X9944881Y-13166024D02*
X9963929Y-13166024D01*
X9963929Y-13166024D02*
X9982976Y-13175548D01*
X9982976Y-13175548D02*
X9992500Y-13185071D01*
X9992500Y-13185071D02*
X10002024Y-13204119D01*
X10002024Y-13204119D02*
X10011548Y-13242214D01*
X10011548Y-13242214D02*
X10011548Y-13289833D01*
X10011548Y-13289833D02*
X10002024Y-13327928D01*
X10002024Y-13327928D02*
X9992500Y-13346976D01*
X9992500Y-13346976D02*
X9982976Y-13356500D01*
X9982976Y-13356500D02*
X9963929Y-13366024D01*
X9963929Y-13366024D02*
X9944881Y-13366024D01*
X9944881Y-13366024D02*
X9925833Y-13356500D01*
X9925833Y-13356500D02*
X9916310Y-13346976D01*
X9916310Y-13346976D02*
X9906786Y-13327928D01*
X9906786Y-13327928D02*
X9897262Y-13289833D01*
X9897262Y-13289833D02*
X9897262Y-13242214D01*
X9897262Y-13242214D02*
X9906786Y-13204119D01*
X9906786Y-13204119D02*
X9916310Y-13185071D01*
X9916310Y-13185071D02*
X9925833Y-13175548D01*
X9925833Y-13175548D02*
X9944881Y-13166024D01*
X10097262Y-13366024D02*
X10097262Y-13232690D01*
X10097262Y-13251738D02*
X10106786Y-13242214D01*
X10106786Y-13242214D02*
X10125833Y-13232690D01*
X10125833Y-13232690D02*
X10154405Y-13232690D01*
X10154405Y-13232690D02*
X10173452Y-13242214D01*
X10173452Y-13242214D02*
X10182976Y-13261262D01*
X10182976Y-13261262D02*
X10182976Y-13366024D01*
X10182976Y-13261262D02*
X10192500Y-13242214D01*
X10192500Y-13242214D02*
X10211548Y-13232690D01*
X10211548Y-13232690D02*
X10240119Y-13232690D01*
X10240119Y-13232690D02*
X10259167Y-13242214D01*
X10259167Y-13242214D02*
X10268691Y-13261262D01*
X10268691Y-13261262D02*
X10268691Y-13366024D01*
X10363929Y-13366024D02*
X10363929Y-13232690D01*
X10363929Y-13251738D02*
X10373452Y-13242214D01*
X10373452Y-13242214D02*
X10392500Y-13232690D01*
X10392500Y-13232690D02*
X10421072Y-13232690D01*
X10421072Y-13232690D02*
X10440119Y-13242214D01*
X10440119Y-13242214D02*
X10449643Y-13261262D01*
X10449643Y-13261262D02*
X10449643Y-13366024D01*
X10449643Y-13261262D02*
X10459167Y-13242214D01*
X10459167Y-13242214D02*
X10478214Y-13232690D01*
X10478214Y-13232690D02*
X10506786Y-13232690D01*
X10506786Y-13232690D02*
X10525833Y-13242214D01*
X10525833Y-13242214D02*
X10535357Y-13261262D01*
X10535357Y-13261262D02*
X10535357Y-13366024D01*
X10925833Y-13156500D02*
X10754405Y-13413643D01*
X11182976Y-13166024D02*
X11202024Y-13166024D01*
X11202024Y-13166024D02*
X11221072Y-13175548D01*
X11221072Y-13175548D02*
X11230595Y-13185071D01*
X11230595Y-13185071D02*
X11240119Y-13204119D01*
X11240119Y-13204119D02*
X11249643Y-13242214D01*
X11249643Y-13242214D02*
X11249643Y-13289833D01*
X11249643Y-13289833D02*
X11240119Y-13327928D01*
X11240119Y-13327928D02*
X11230595Y-13346976D01*
X11230595Y-13346976D02*
X11221072Y-13356500D01*
X11221072Y-13356500D02*
X11202024Y-13366024D01*
X11202024Y-13366024D02*
X11182976Y-13366024D01*
X11182976Y-13366024D02*
X11163929Y-13356500D01*
X11163929Y-13356500D02*
X11154405Y-13346976D01*
X11154405Y-13346976D02*
X11144881Y-13327928D01*
X11144881Y-13327928D02*
X11135357Y-13289833D01*
X11135357Y-13289833D02*
X11135357Y-13242214D01*
X11135357Y-13242214D02*
X11144881Y-13204119D01*
X11144881Y-13204119D02*
X11154405Y-13185071D01*
X11154405Y-13185071D02*
X11163929Y-13175548D01*
X11163929Y-13175548D02*
X11182976Y-13166024D01*
X11335357Y-13346976D02*
X11344881Y-13356500D01*
X11344881Y-13356500D02*
X11335357Y-13366024D01*
X11335357Y-13366024D02*
X11325833Y-13356500D01*
X11325833Y-13356500D02*
X11335357Y-13346976D01*
X11335357Y-13346976D02*
X11335357Y-13366024D01*
X11468691Y-13166024D02*
X11487738Y-13166024D01*
X11487738Y-13166024D02*
X11506786Y-13175548D01*
X11506786Y-13175548D02*
X11516310Y-13185071D01*
X11516310Y-13185071D02*
X11525833Y-13204119D01*
X11525833Y-13204119D02*
X11535357Y-13242214D01*
X11535357Y-13242214D02*
X11535357Y-13289833D01*
X11535357Y-13289833D02*
X11525833Y-13327928D01*
X11525833Y-13327928D02*
X11516310Y-13346976D01*
X11516310Y-13346976D02*
X11506786Y-13356500D01*
X11506786Y-13356500D02*
X11487738Y-13366024D01*
X11487738Y-13366024D02*
X11468691Y-13366024D01*
X11468691Y-13366024D02*
X11449643Y-13356500D01*
X11449643Y-13356500D02*
X11440119Y-13346976D01*
X11440119Y-13346976D02*
X11430595Y-13327928D01*
X11430595Y-13327928D02*
X11421072Y-13289833D01*
X11421072Y-13289833D02*
X11421072Y-13242214D01*
X11421072Y-13242214D02*
X11430595Y-13204119D01*
X11430595Y-13204119D02*
X11440119Y-13185071D01*
X11440119Y-13185071D02*
X11449643Y-13175548D01*
X11449643Y-13175548D02*
X11468691Y-13166024D01*
X11706786Y-13166024D02*
X11668691Y-13166024D01*
X11668691Y-13166024D02*
X11649643Y-13175548D01*
X11649643Y-13175548D02*
X11640119Y-13185071D01*
X11640119Y-13185071D02*
X11621072Y-13213643D01*
X11621072Y-13213643D02*
X11611548Y-13251738D01*
X11611548Y-13251738D02*
X11611548Y-13327928D01*
X11611548Y-13327928D02*
X11621072Y-13346976D01*
X11621072Y-13346976D02*
X11630595Y-13356500D01*
X11630595Y-13356500D02*
X11649643Y-13366024D01*
X11649643Y-13366024D02*
X11687738Y-13366024D01*
X11687738Y-13366024D02*
X11706786Y-13356500D01*
X11706786Y-13356500D02*
X11716310Y-13346976D01*
X11716310Y-13346976D02*
X11725833Y-13327928D01*
X11725833Y-13327928D02*
X11725833Y-13280309D01*
X11725833Y-13280309D02*
X11716310Y-13261262D01*
X11716310Y-13261262D02*
X11706786Y-13251738D01*
X11706786Y-13251738D02*
X11687738Y-13242214D01*
X11687738Y-13242214D02*
X11649643Y-13242214D01*
X11649643Y-13242214D02*
X11630595Y-13251738D01*
X11630595Y-13251738D02*
X11621072Y-13261262D01*
X11621072Y-13261262D02*
X11611548Y-13280309D01*
X11897262Y-13166024D02*
X11859167Y-13166024D01*
X11859167Y-13166024D02*
X11840119Y-13175548D01*
X11840119Y-13175548D02*
X11830595Y-13185071D01*
X11830595Y-13185071D02*
X11811548Y-13213643D01*
X11811548Y-13213643D02*
X11802024Y-13251738D01*
X11802024Y-13251738D02*
X11802024Y-13327928D01*
X11802024Y-13327928D02*
X11811548Y-13346976D01*
X11811548Y-13346976D02*
X11821072Y-13356500D01*
X11821072Y-13356500D02*
X11840119Y-13366024D01*
X11840119Y-13366024D02*
X11878214Y-13366024D01*
X11878214Y-13366024D02*
X11897262Y-13356500D01*
X11897262Y-13356500D02*
X11906786Y-13346976D01*
X11906786Y-13346976D02*
X11916310Y-13327928D01*
X11916310Y-13327928D02*
X11916310Y-13280309D01*
X11916310Y-13280309D02*
X11906786Y-13261262D01*
X11906786Y-13261262D02*
X11897262Y-13251738D01*
X11897262Y-13251738D02*
X11878214Y-13242214D01*
X11878214Y-13242214D02*
X11840119Y-13242214D01*
X11840119Y-13242214D02*
X11821072Y-13251738D01*
X11821072Y-13251738D02*
X11811548Y-13261262D01*
X11811548Y-13261262D02*
X11802024Y-13280309D01*
X12011548Y-13366024D02*
X12049643Y-13366024D01*
X12049643Y-13366024D02*
X12068691Y-13356500D01*
X12068691Y-13356500D02*
X12078214Y-13346976D01*
X12078214Y-13346976D02*
X12097262Y-13318405D01*
X12097262Y-13318405D02*
X12106786Y-13280309D01*
X12106786Y-13280309D02*
X12106786Y-13204119D01*
X12106786Y-13204119D02*
X12097262Y-13185071D01*
X12097262Y-13185071D02*
X12087738Y-13175548D01*
X12087738Y-13175548D02*
X12068691Y-13166024D01*
X12068691Y-13166024D02*
X12030595Y-13166024D01*
X12030595Y-13166024D02*
X12011548Y-13175548D01*
X12011548Y-13175548D02*
X12002024Y-13185071D01*
X12002024Y-13185071D02*
X11992500Y-13204119D01*
X11992500Y-13204119D02*
X11992500Y-13251738D01*
X11992500Y-13251738D02*
X12002024Y-13270786D01*
X12002024Y-13270786D02*
X12011548Y-13280309D01*
X12011548Y-13280309D02*
X12030595Y-13289833D01*
X12030595Y-13289833D02*
X12068691Y-13289833D01*
X12068691Y-13289833D02*
X12087738Y-13280309D01*
X12087738Y-13280309D02*
X12097262Y-13270786D01*
X12097262Y-13270786D02*
X12106786Y-13251738D01*
X12182976Y-13166024D02*
X12182976Y-13204119D01*
X12259167Y-13166024D02*
X12259167Y-13204119D01*
X12554405Y-13442214D02*
X12544881Y-13432690D01*
X12544881Y-13432690D02*
X12525834Y-13404119D01*
X12525834Y-13404119D02*
X12516310Y-13385071D01*
X12516310Y-13385071D02*
X12506786Y-13356500D01*
X12506786Y-13356500D02*
X12497262Y-13308881D01*
X12497262Y-13308881D02*
X12497262Y-13270786D01*
X12497262Y-13270786D02*
X12506786Y-13223167D01*
X12506786Y-13223167D02*
X12516310Y-13194595D01*
X12516310Y-13194595D02*
X12525834Y-13175548D01*
X12525834Y-13175548D02*
X12544881Y-13146976D01*
X12544881Y-13146976D02*
X12554405Y-13137452D01*
X12716310Y-13232690D02*
X12716310Y-13366024D01*
X12668691Y-13156500D02*
X12621072Y-13299357D01*
X12621072Y-13299357D02*
X12744881Y-13299357D01*
X12973453Y-13366024D02*
X12973453Y-13166024D01*
X13059167Y-13366024D02*
X13059167Y-13261262D01*
X13059167Y-13261262D02*
X13049643Y-13242214D01*
X13049643Y-13242214D02*
X13030596Y-13232690D01*
X13030596Y-13232690D02*
X13002024Y-13232690D01*
X13002024Y-13232690D02*
X12982976Y-13242214D01*
X12982976Y-13242214D02*
X12973453Y-13251738D01*
X13182976Y-13366024D02*
X13163929Y-13356500D01*
X13163929Y-13356500D02*
X13154405Y-13346976D01*
X13154405Y-13346976D02*
X13144881Y-13327928D01*
X13144881Y-13327928D02*
X13144881Y-13270786D01*
X13144881Y-13270786D02*
X13154405Y-13251738D01*
X13154405Y-13251738D02*
X13163929Y-13242214D01*
X13163929Y-13242214D02*
X13182976Y-13232690D01*
X13182976Y-13232690D02*
X13211548Y-13232690D01*
X13211548Y-13232690D02*
X13230596Y-13242214D01*
X13230596Y-13242214D02*
X13240119Y-13251738D01*
X13240119Y-13251738D02*
X13249643Y-13270786D01*
X13249643Y-13270786D02*
X13249643Y-13327928D01*
X13249643Y-13327928D02*
X13240119Y-13346976D01*
X13240119Y-13346976D02*
X13230596Y-13356500D01*
X13230596Y-13356500D02*
X13211548Y-13366024D01*
X13211548Y-13366024D02*
X13182976Y-13366024D01*
X13363929Y-13366024D02*
X13344881Y-13356500D01*
X13344881Y-13356500D02*
X13335357Y-13337452D01*
X13335357Y-13337452D02*
X13335357Y-13166024D01*
X13516310Y-13356500D02*
X13497262Y-13366024D01*
X13497262Y-13366024D02*
X13459167Y-13366024D01*
X13459167Y-13366024D02*
X13440119Y-13356500D01*
X13440119Y-13356500D02*
X13430596Y-13337452D01*
X13430596Y-13337452D02*
X13430596Y-13261262D01*
X13430596Y-13261262D02*
X13440119Y-13242214D01*
X13440119Y-13242214D02*
X13459167Y-13232690D01*
X13459167Y-13232690D02*
X13497262Y-13232690D01*
X13497262Y-13232690D02*
X13516310Y-13242214D01*
X13516310Y-13242214D02*
X13525834Y-13261262D01*
X13525834Y-13261262D02*
X13525834Y-13280309D01*
X13525834Y-13280309D02*
X13430596Y-13299357D01*
X13602024Y-13356500D02*
X13621072Y-13366024D01*
X13621072Y-13366024D02*
X13659167Y-13366024D01*
X13659167Y-13366024D02*
X13678215Y-13356500D01*
X13678215Y-13356500D02*
X13687738Y-13337452D01*
X13687738Y-13337452D02*
X13687738Y-13327928D01*
X13687738Y-13327928D02*
X13678215Y-13308881D01*
X13678215Y-13308881D02*
X13659167Y-13299357D01*
X13659167Y-13299357D02*
X13630596Y-13299357D01*
X13630596Y-13299357D02*
X13611548Y-13289833D01*
X13611548Y-13289833D02*
X13602024Y-13270786D01*
X13602024Y-13270786D02*
X13602024Y-13261262D01*
X13602024Y-13261262D02*
X13611548Y-13242214D01*
X13611548Y-13242214D02*
X13630596Y-13232690D01*
X13630596Y-13232690D02*
X13659167Y-13232690D01*
X13659167Y-13232690D02*
X13678215Y-13242214D01*
X13754405Y-13442214D02*
X13763929Y-13432690D01*
X13763929Y-13432690D02*
X13782977Y-13404119D01*
X13782977Y-13404119D02*
X13792500Y-13385071D01*
X13792500Y-13385071D02*
X13802024Y-13356500D01*
X13802024Y-13356500D02*
X13811548Y-13308881D01*
X13811548Y-13308881D02*
X13811548Y-13270786D01*
X13811548Y-13270786D02*
X13802024Y-13223167D01*
X13802024Y-13223167D02*
X13792500Y-13194595D01*
X13792500Y-13194595D02*
X13782977Y-13175548D01*
X13782977Y-13175548D02*
X13763929Y-13146976D01*
X13763929Y-13146976D02*
X13754405Y-13137452D01*
X8792500Y-13463500D02*
X8992500Y-13663500D01*
X8992500Y-13463500D02*
X8792500Y-13663500D01*
X8892500Y-13463500D02*
X8892500Y-13663500D01*
X8792500Y-13563500D02*
X8992500Y-13563500D01*
X9230595Y-13475071D02*
X9240119Y-13465548D01*
X9240119Y-13465548D02*
X9259167Y-13456024D01*
X9259167Y-13456024D02*
X9306786Y-13456024D01*
X9306786Y-13456024D02*
X9325833Y-13465548D01*
X9325833Y-13465548D02*
X9335357Y-13475071D01*
X9335357Y-13475071D02*
X9344881Y-13494119D01*
X9344881Y-13494119D02*
X9344881Y-13513167D01*
X9344881Y-13513167D02*
X9335357Y-13541738D01*
X9335357Y-13541738D02*
X9221071Y-13656024D01*
X9221071Y-13656024D02*
X9344881Y-13656024D01*
X9430595Y-13636976D02*
X9440119Y-13646500D01*
X9440119Y-13646500D02*
X9430595Y-13656024D01*
X9430595Y-13656024D02*
X9421071Y-13646500D01*
X9421071Y-13646500D02*
X9430595Y-13636976D01*
X9430595Y-13636976D02*
X9430595Y-13656024D01*
X9506786Y-13456024D02*
X9640119Y-13456024D01*
X9640119Y-13456024D02*
X9554405Y-13656024D01*
X9754405Y-13456024D02*
X9773452Y-13456024D01*
X9773452Y-13456024D02*
X9792500Y-13465548D01*
X9792500Y-13465548D02*
X9802024Y-13475071D01*
X9802024Y-13475071D02*
X9811548Y-13494119D01*
X9811548Y-13494119D02*
X9821071Y-13532214D01*
X9821071Y-13532214D02*
X9821071Y-13579833D01*
X9821071Y-13579833D02*
X9811548Y-13617928D01*
X9811548Y-13617928D02*
X9802024Y-13636976D01*
X9802024Y-13636976D02*
X9792500Y-13646500D01*
X9792500Y-13646500D02*
X9773452Y-13656024D01*
X9773452Y-13656024D02*
X9754405Y-13656024D01*
X9754405Y-13656024D02*
X9735357Y-13646500D01*
X9735357Y-13646500D02*
X9725833Y-13636976D01*
X9725833Y-13636976D02*
X9716310Y-13617928D01*
X9716310Y-13617928D02*
X9706786Y-13579833D01*
X9706786Y-13579833D02*
X9706786Y-13532214D01*
X9706786Y-13532214D02*
X9716310Y-13494119D01*
X9716310Y-13494119D02*
X9725833Y-13475071D01*
X9725833Y-13475071D02*
X9735357Y-13465548D01*
X9735357Y-13465548D02*
X9754405Y-13456024D01*
X9944881Y-13456024D02*
X9963929Y-13456024D01*
X9963929Y-13456024D02*
X9982976Y-13465548D01*
X9982976Y-13465548D02*
X9992500Y-13475071D01*
X9992500Y-13475071D02*
X10002024Y-13494119D01*
X10002024Y-13494119D02*
X10011548Y-13532214D01*
X10011548Y-13532214D02*
X10011548Y-13579833D01*
X10011548Y-13579833D02*
X10002024Y-13617928D01*
X10002024Y-13617928D02*
X9992500Y-13636976D01*
X9992500Y-13636976D02*
X9982976Y-13646500D01*
X9982976Y-13646500D02*
X9963929Y-13656024D01*
X9963929Y-13656024D02*
X9944881Y-13656024D01*
X9944881Y-13656024D02*
X9925833Y-13646500D01*
X9925833Y-13646500D02*
X9916310Y-13636976D01*
X9916310Y-13636976D02*
X9906786Y-13617928D01*
X9906786Y-13617928D02*
X9897262Y-13579833D01*
X9897262Y-13579833D02*
X9897262Y-13532214D01*
X9897262Y-13532214D02*
X9906786Y-13494119D01*
X9906786Y-13494119D02*
X9916310Y-13475071D01*
X9916310Y-13475071D02*
X9925833Y-13465548D01*
X9925833Y-13465548D02*
X9944881Y-13456024D01*
X10097262Y-13656024D02*
X10097262Y-13522690D01*
X10097262Y-13541738D02*
X10106786Y-13532214D01*
X10106786Y-13532214D02*
X10125833Y-13522690D01*
X10125833Y-13522690D02*
X10154405Y-13522690D01*
X10154405Y-13522690D02*
X10173452Y-13532214D01*
X10173452Y-13532214D02*
X10182976Y-13551262D01*
X10182976Y-13551262D02*
X10182976Y-13656024D01*
X10182976Y-13551262D02*
X10192500Y-13532214D01*
X10192500Y-13532214D02*
X10211548Y-13522690D01*
X10211548Y-13522690D02*
X10240119Y-13522690D01*
X10240119Y-13522690D02*
X10259167Y-13532214D01*
X10259167Y-13532214D02*
X10268691Y-13551262D01*
X10268691Y-13551262D02*
X10268691Y-13656024D01*
X10363929Y-13656024D02*
X10363929Y-13522690D01*
X10363929Y-13541738D02*
X10373452Y-13532214D01*
X10373452Y-13532214D02*
X10392500Y-13522690D01*
X10392500Y-13522690D02*
X10421072Y-13522690D01*
X10421072Y-13522690D02*
X10440119Y-13532214D01*
X10440119Y-13532214D02*
X10449643Y-13551262D01*
X10449643Y-13551262D02*
X10449643Y-13656024D01*
X10449643Y-13551262D02*
X10459167Y-13532214D01*
X10459167Y-13532214D02*
X10478214Y-13522690D01*
X10478214Y-13522690D02*
X10506786Y-13522690D01*
X10506786Y-13522690D02*
X10525833Y-13532214D01*
X10525833Y-13532214D02*
X10535357Y-13551262D01*
X10535357Y-13551262D02*
X10535357Y-13656024D01*
X10925833Y-13446500D02*
X10754405Y-13703643D01*
X11182976Y-13456024D02*
X11202024Y-13456024D01*
X11202024Y-13456024D02*
X11221072Y-13465548D01*
X11221072Y-13465548D02*
X11230595Y-13475071D01*
X11230595Y-13475071D02*
X11240119Y-13494119D01*
X11240119Y-13494119D02*
X11249643Y-13532214D01*
X11249643Y-13532214D02*
X11249643Y-13579833D01*
X11249643Y-13579833D02*
X11240119Y-13617928D01*
X11240119Y-13617928D02*
X11230595Y-13636976D01*
X11230595Y-13636976D02*
X11221072Y-13646500D01*
X11221072Y-13646500D02*
X11202024Y-13656024D01*
X11202024Y-13656024D02*
X11182976Y-13656024D01*
X11182976Y-13656024D02*
X11163929Y-13646500D01*
X11163929Y-13646500D02*
X11154405Y-13636976D01*
X11154405Y-13636976D02*
X11144881Y-13617928D01*
X11144881Y-13617928D02*
X11135357Y-13579833D01*
X11135357Y-13579833D02*
X11135357Y-13532214D01*
X11135357Y-13532214D02*
X11144881Y-13494119D01*
X11144881Y-13494119D02*
X11154405Y-13475071D01*
X11154405Y-13475071D02*
X11163929Y-13465548D01*
X11163929Y-13465548D02*
X11182976Y-13456024D01*
X11335357Y-13636976D02*
X11344881Y-13646500D01*
X11344881Y-13646500D02*
X11335357Y-13656024D01*
X11335357Y-13656024D02*
X11325833Y-13646500D01*
X11325833Y-13646500D02*
X11335357Y-13636976D01*
X11335357Y-13636976D02*
X11335357Y-13656024D01*
X11535357Y-13656024D02*
X11421072Y-13656024D01*
X11478214Y-13656024D02*
X11478214Y-13456024D01*
X11478214Y-13456024D02*
X11459167Y-13484595D01*
X11459167Y-13484595D02*
X11440119Y-13503643D01*
X11440119Y-13503643D02*
X11421072Y-13513167D01*
X11659167Y-13456024D02*
X11678214Y-13456024D01*
X11678214Y-13456024D02*
X11697262Y-13465548D01*
X11697262Y-13465548D02*
X11706786Y-13475071D01*
X11706786Y-13475071D02*
X11716310Y-13494119D01*
X11716310Y-13494119D02*
X11725833Y-13532214D01*
X11725833Y-13532214D02*
X11725833Y-13579833D01*
X11725833Y-13579833D02*
X11716310Y-13617928D01*
X11716310Y-13617928D02*
X11706786Y-13636976D01*
X11706786Y-13636976D02*
X11697262Y-13646500D01*
X11697262Y-13646500D02*
X11678214Y-13656024D01*
X11678214Y-13656024D02*
X11659167Y-13656024D01*
X11659167Y-13656024D02*
X11640119Y-13646500D01*
X11640119Y-13646500D02*
X11630595Y-13636976D01*
X11630595Y-13636976D02*
X11621072Y-13617928D01*
X11621072Y-13617928D02*
X11611548Y-13579833D01*
X11611548Y-13579833D02*
X11611548Y-13532214D01*
X11611548Y-13532214D02*
X11621072Y-13494119D01*
X11621072Y-13494119D02*
X11630595Y-13475071D01*
X11630595Y-13475071D02*
X11640119Y-13465548D01*
X11640119Y-13465548D02*
X11659167Y-13456024D01*
X11897262Y-13456024D02*
X11859167Y-13456024D01*
X11859167Y-13456024D02*
X11840119Y-13465548D01*
X11840119Y-13465548D02*
X11830595Y-13475071D01*
X11830595Y-13475071D02*
X11811548Y-13503643D01*
X11811548Y-13503643D02*
X11802024Y-13541738D01*
X11802024Y-13541738D02*
X11802024Y-13617928D01*
X11802024Y-13617928D02*
X11811548Y-13636976D01*
X11811548Y-13636976D02*
X11821072Y-13646500D01*
X11821072Y-13646500D02*
X11840119Y-13656024D01*
X11840119Y-13656024D02*
X11878214Y-13656024D01*
X11878214Y-13656024D02*
X11897262Y-13646500D01*
X11897262Y-13646500D02*
X11906786Y-13636976D01*
X11906786Y-13636976D02*
X11916310Y-13617928D01*
X11916310Y-13617928D02*
X11916310Y-13570309D01*
X11916310Y-13570309D02*
X11906786Y-13551262D01*
X11906786Y-13551262D02*
X11897262Y-13541738D01*
X11897262Y-13541738D02*
X11878214Y-13532214D01*
X11878214Y-13532214D02*
X11840119Y-13532214D01*
X11840119Y-13532214D02*
X11821072Y-13541738D01*
X11821072Y-13541738D02*
X11811548Y-13551262D01*
X11811548Y-13551262D02*
X11802024Y-13570309D01*
X11982976Y-13456024D02*
X12106786Y-13456024D01*
X12106786Y-13456024D02*
X12040119Y-13532214D01*
X12040119Y-13532214D02*
X12068691Y-13532214D01*
X12068691Y-13532214D02*
X12087738Y-13541738D01*
X12087738Y-13541738D02*
X12097262Y-13551262D01*
X12097262Y-13551262D02*
X12106786Y-13570309D01*
X12106786Y-13570309D02*
X12106786Y-13617928D01*
X12106786Y-13617928D02*
X12097262Y-13636976D01*
X12097262Y-13636976D02*
X12087738Y-13646500D01*
X12087738Y-13646500D02*
X12068691Y-13656024D01*
X12068691Y-13656024D02*
X12011548Y-13656024D01*
X12011548Y-13656024D02*
X11992500Y-13646500D01*
X11992500Y-13646500D02*
X11982976Y-13636976D01*
X12182976Y-13456024D02*
X12182976Y-13494119D01*
X12259167Y-13456024D02*
X12259167Y-13494119D01*
X12554405Y-13732214D02*
X12544881Y-13722690D01*
X12544881Y-13722690D02*
X12525834Y-13694119D01*
X12525834Y-13694119D02*
X12516310Y-13675071D01*
X12516310Y-13675071D02*
X12506786Y-13646500D01*
X12506786Y-13646500D02*
X12497262Y-13598881D01*
X12497262Y-13598881D02*
X12497262Y-13560786D01*
X12497262Y-13560786D02*
X12506786Y-13513167D01*
X12506786Y-13513167D02*
X12516310Y-13484595D01*
X12516310Y-13484595D02*
X12525834Y-13465548D01*
X12525834Y-13465548D02*
X12544881Y-13436976D01*
X12544881Y-13436976D02*
X12554405Y-13427452D01*
X12725834Y-13456024D02*
X12630595Y-13456024D01*
X12630595Y-13456024D02*
X12621072Y-13551262D01*
X12621072Y-13551262D02*
X12630595Y-13541738D01*
X12630595Y-13541738D02*
X12649643Y-13532214D01*
X12649643Y-13532214D02*
X12697262Y-13532214D01*
X12697262Y-13532214D02*
X12716310Y-13541738D01*
X12716310Y-13541738D02*
X12725834Y-13551262D01*
X12725834Y-13551262D02*
X12735357Y-13570309D01*
X12735357Y-13570309D02*
X12735357Y-13617928D01*
X12735357Y-13617928D02*
X12725834Y-13636976D01*
X12725834Y-13636976D02*
X12716310Y-13646500D01*
X12716310Y-13646500D02*
X12697262Y-13656024D01*
X12697262Y-13656024D02*
X12649643Y-13656024D01*
X12649643Y-13656024D02*
X12630595Y-13646500D01*
X12630595Y-13646500D02*
X12621072Y-13636976D01*
X12973453Y-13656024D02*
X12973453Y-13456024D01*
X13059167Y-13656024D02*
X13059167Y-13551262D01*
X13059167Y-13551262D02*
X13049643Y-13532214D01*
X13049643Y-13532214D02*
X13030596Y-13522690D01*
X13030596Y-13522690D02*
X13002024Y-13522690D01*
X13002024Y-13522690D02*
X12982976Y-13532214D01*
X12982976Y-13532214D02*
X12973453Y-13541738D01*
X13182976Y-13656024D02*
X13163929Y-13646500D01*
X13163929Y-13646500D02*
X13154405Y-13636976D01*
X13154405Y-13636976D02*
X13144881Y-13617928D01*
X13144881Y-13617928D02*
X13144881Y-13560786D01*
X13144881Y-13560786D02*
X13154405Y-13541738D01*
X13154405Y-13541738D02*
X13163929Y-13532214D01*
X13163929Y-13532214D02*
X13182976Y-13522690D01*
X13182976Y-13522690D02*
X13211548Y-13522690D01*
X13211548Y-13522690D02*
X13230596Y-13532214D01*
X13230596Y-13532214D02*
X13240119Y-13541738D01*
X13240119Y-13541738D02*
X13249643Y-13560786D01*
X13249643Y-13560786D02*
X13249643Y-13617928D01*
X13249643Y-13617928D02*
X13240119Y-13636976D01*
X13240119Y-13636976D02*
X13230596Y-13646500D01*
X13230596Y-13646500D02*
X13211548Y-13656024D01*
X13211548Y-13656024D02*
X13182976Y-13656024D01*
X13363929Y-13656024D02*
X13344881Y-13646500D01*
X13344881Y-13646500D02*
X13335357Y-13627452D01*
X13335357Y-13627452D02*
X13335357Y-13456024D01*
X13516310Y-13646500D02*
X13497262Y-13656024D01*
X13497262Y-13656024D02*
X13459167Y-13656024D01*
X13459167Y-13656024D02*
X13440119Y-13646500D01*
X13440119Y-13646500D02*
X13430596Y-13627452D01*
X13430596Y-13627452D02*
X13430596Y-13551262D01*
X13430596Y-13551262D02*
X13440119Y-13532214D01*
X13440119Y-13532214D02*
X13459167Y-13522690D01*
X13459167Y-13522690D02*
X13497262Y-13522690D01*
X13497262Y-13522690D02*
X13516310Y-13532214D01*
X13516310Y-13532214D02*
X13525834Y-13551262D01*
X13525834Y-13551262D02*
X13525834Y-13570309D01*
X13525834Y-13570309D02*
X13430596Y-13589357D01*
X13602024Y-13646500D02*
X13621072Y-13656024D01*
X13621072Y-13656024D02*
X13659167Y-13656024D01*
X13659167Y-13656024D02*
X13678215Y-13646500D01*
X13678215Y-13646500D02*
X13687738Y-13627452D01*
X13687738Y-13627452D02*
X13687738Y-13617928D01*
X13687738Y-13617928D02*
X13678215Y-13598881D01*
X13678215Y-13598881D02*
X13659167Y-13589357D01*
X13659167Y-13589357D02*
X13630596Y-13589357D01*
X13630596Y-13589357D02*
X13611548Y-13579833D01*
X13611548Y-13579833D02*
X13602024Y-13560786D01*
X13602024Y-13560786D02*
X13602024Y-13551262D01*
X13602024Y-13551262D02*
X13611548Y-13532214D01*
X13611548Y-13532214D02*
X13630596Y-13522690D01*
X13630596Y-13522690D02*
X13659167Y-13522690D01*
X13659167Y-13522690D02*
X13678215Y-13532214D01*
X13754405Y-13732214D02*
X13763929Y-13722690D01*
X13763929Y-13722690D02*
X13782977Y-13694119D01*
X13782977Y-13694119D02*
X13792500Y-13675071D01*
X13792500Y-13675071D02*
X13802024Y-13646500D01*
X13802024Y-13646500D02*
X13811548Y-13598881D01*
X13811548Y-13598881D02*
X13811548Y-13560786D01*
X13811548Y-13560786D02*
X13802024Y-13513167D01*
X13802024Y-13513167D02*
X13792500Y-13484595D01*
X13792500Y-13484595D02*
X13782977Y-13465548D01*
X13782977Y-13465548D02*
X13763929Y-13436976D01*
X13763929Y-13436976D02*
X13754405Y-13427452D01*
M02*
