%TF.GenerationSoftware,KiCad,Pcbnew,8.0.6-8.0.6-0~ubuntu24.04.1*%
%TF.CreationDate,2024-12-07T14:27:23-08:00*%
%TF.ProjectId,reaction_wheel,72656163-7469-46f6-9e5f-776865656c2e,v1a*%
%TF.SameCoordinates,Original*%
%TF.FileFunction,Soldermask,Top*%
%TF.FilePolarity,Negative*%
%FSLAX46Y46*%
G04 Gerber Fmt 4.6, Leading zero omitted, Abs format (unit mm)*
G04 Created by KiCad (PCBNEW 8.0.6-8.0.6-0~ubuntu24.04.1) date 2024-12-07 14:27:23*
%MOMM*%
%LPD*%
G01*
G04 APERTURE LIST*
G04 Aperture macros list*
%AMRoundRect*
0 Rectangle with rounded corners*
0 $1 Rounding radius*
0 $2 $3 $4 $5 $6 $7 $8 $9 X,Y pos of 4 corners*
0 Add a 4 corners polygon primitive as box body*
4,1,4,$2,$3,$4,$5,$6,$7,$8,$9,$2,$3,0*
0 Add four circle primitives for the rounded corners*
1,1,$1+$1,$2,$3*
1,1,$1+$1,$4,$5*
1,1,$1+$1,$6,$7*
1,1,$1+$1,$8,$9*
0 Add four rect primitives between the rounded corners*
20,1,$1+$1,$2,$3,$4,$5,0*
20,1,$1+$1,$4,$5,$6,$7,0*
20,1,$1+$1,$6,$7,$8,$9,0*
20,1,$1+$1,$8,$9,$2,$3,0*%
G04 Aperture macros list end*
%ADD10RoundRect,0.225000X-0.250000X0.225000X-0.250000X-0.225000X0.250000X-0.225000X0.250000X0.225000X0*%
%ADD11R,1.700000X1.700000*%
%ADD12O,1.700000X1.700000*%
%ADD13O,0.600000X0.200000*%
%ADD14O,0.200000X0.600000*%
%ADD15C,0.337500*%
%ADD16R,2.700000X3.700000*%
%ADD17RoundRect,0.225000X0.225000X0.250000X-0.225000X0.250000X-0.225000X-0.250000X0.225000X-0.250000X0*%
%ADD18RoundRect,0.200000X0.200000X0.275000X-0.200000X0.275000X-0.200000X-0.275000X0.200000X-0.275000X0*%
%ADD19RoundRect,0.063500X-1.016000X-1.016000X1.016000X-1.016000X1.016000X1.016000X-1.016000X1.016000X0*%
%ADD20C,2.159000*%
%ADD21RoundRect,0.225000X0.250000X-0.225000X0.250000X0.225000X-0.250000X0.225000X-0.250000X-0.225000X0*%
%ADD22RoundRect,0.200000X-0.275000X0.200000X-0.275000X-0.200000X0.275000X-0.200000X0.275000X0.200000X0*%
%ADD23RoundRect,0.225000X-0.225000X-0.250000X0.225000X-0.250000X0.225000X0.250000X-0.225000X0.250000X0*%
G04 APERTURE END LIST*
D10*
%TO.C,C3*%
X142697500Y-70522500D03*
X142697500Y-72072500D03*
%TD*%
D11*
%TO.C,J1*%
X147962500Y-70942500D03*
D12*
X147962500Y-73482500D03*
X147962500Y-76022500D03*
X147962500Y-78562500D03*
X147962500Y-81102500D03*
X147962500Y-83642500D03*
%TD*%
D13*
%TO.C,U1*%
X134562500Y-76562500D03*
X134562500Y-76962500D03*
X134562500Y-77362500D03*
X134562500Y-77762500D03*
X134562500Y-78162500D03*
X134562500Y-78562500D03*
X134562500Y-78962500D03*
X134562500Y-79362500D03*
X134562500Y-79762500D03*
X134562500Y-80162500D03*
D14*
X135062500Y-80762500D03*
X135462500Y-80762500D03*
X135862500Y-80762500D03*
X136262500Y-80762500D03*
X136662500Y-80762500D03*
X137062500Y-80762500D03*
X137462500Y-80762500D03*
X137862500Y-80762500D03*
D13*
X138362500Y-80162500D03*
X138362500Y-79762500D03*
X138362500Y-79362500D03*
X138362500Y-78962500D03*
X138362500Y-78562500D03*
X138362500Y-78162500D03*
X138362500Y-77762500D03*
X138362500Y-77362500D03*
X138362500Y-76962500D03*
X138362500Y-76562500D03*
D14*
X137862500Y-75962500D03*
X137462500Y-75962500D03*
X137062500Y-75962500D03*
X136662500Y-75962500D03*
X136262500Y-75962500D03*
X135862500Y-75962500D03*
X135462500Y-75962500D03*
X135062500Y-75962500D03*
D15*
X135787500Y-77437500D03*
X135787500Y-78362500D03*
X135787500Y-79287500D03*
X136462500Y-77437500D03*
X136462500Y-78362500D03*
D16*
X136462500Y-78362500D03*
D15*
X136462500Y-79287500D03*
X137137500Y-77437500D03*
X137137500Y-78362500D03*
X137137500Y-79287500D03*
%TD*%
D10*
%TO.C,C2*%
X135462500Y-70287500D03*
X135462500Y-71837500D03*
%TD*%
D17*
%TO.C,C9*%
X141812500Y-74562500D03*
X140262500Y-74562500D03*
%TD*%
D11*
%TO.C,J4*%
X125462500Y-84822500D03*
D12*
X125462500Y-82282500D03*
X125462500Y-79742500D03*
%TD*%
D10*
%TO.C,C4*%
X130462500Y-70987500D03*
X130462500Y-72537500D03*
%TD*%
%TO.C,C8*%
X132862500Y-68887500D03*
X132862500Y-70437500D03*
%TD*%
%TO.C,C10*%
X128662500Y-76887500D03*
X128662500Y-78437500D03*
%TD*%
D18*
%TO.C,R4*%
X137037500Y-67562500D03*
X135387500Y-67562500D03*
%TD*%
D11*
%TO.C,J2*%
X146652500Y-64762500D03*
D12*
X144112500Y-64762500D03*
X141572500Y-64762500D03*
X139032500Y-64762500D03*
X136492500Y-64762500D03*
%TD*%
D19*
%TO.C,J3*%
X136462500Y-88612500D03*
D20*
X139962500Y-88612500D03*
%TD*%
D10*
%TO.C,C7*%
X140062500Y-80187500D03*
X140062500Y-81737500D03*
%TD*%
D19*
%TO.C,J5*%
X129462500Y-88612500D03*
D20*
X132962500Y-88612500D03*
%TD*%
D21*
%TO.C,C12*%
X130462500Y-81812500D03*
X130462500Y-80262500D03*
%TD*%
D22*
%TO.C,R5*%
X132862500Y-72837500D03*
X132862500Y-74487500D03*
%TD*%
D10*
%TO.C,C11*%
X130212500Y-76912500D03*
X130212500Y-78462500D03*
%TD*%
D18*
%TO.C,R1*%
X140522500Y-67562500D03*
X138872500Y-67562500D03*
%TD*%
D21*
%TO.C,C6*%
X128662500Y-81812500D03*
X128662500Y-80262500D03*
%TD*%
D10*
%TO.C,C1*%
X138922500Y-70522500D03*
X138922500Y-72072500D03*
%TD*%
D23*
%TO.C,C5*%
X128987500Y-74062500D03*
X130537500Y-74062500D03*
%TD*%
D18*
%TO.C,R2*%
X144462500Y-67562500D03*
X142812500Y-67562500D03*
%TD*%
M02*
