%TF.GenerationSoftware,KiCad,Pcbnew,9.0.1*%
%TF.CreationDate,2025-04-06T17:44:16-07:00*%
%TF.ProjectId,Coil_Panel_XY,436f696c-5f50-4616-9e65-6c5f58592e6b,2.2*%
%TF.SameCoordinates,Original*%
%TF.FileFunction,Drillmap*%
%TF.FilePolarity,Positive*%
%FSLAX45Y45*%
G04 Gerber Fmt 4.5, Leading zero omitted, Abs format (unit mm)*
G04 Created by KiCad (PCBNEW 9.0.1) date 2025-04-06 17:44:16*
%MOMM*%
%LPD*%
G01*
G04 APERTURE LIST*
%ADD10C,0.200000*%
%ADD11C,0.100000*%
%ADD12C,0.130000*%
%ADD13C,0.220000*%
G04 APERTURE END LIST*
D10*
X3300000Y-13175000D02*
X3317500Y-13175000D01*
X3469229Y-21964624D02*
G75*
G02*
X3539605Y-19986073I1205774J947638D01*
G01*
D11*
X5800000Y-16650000D02*
X8450000Y-16650000D01*
D10*
X3317500Y-13175000D02*
G75*
G02*
X3617500Y-13475000I0J-300000D01*
G01*
X3617500Y-13475000D02*
X3617500Y-19800000D01*
X10532500Y-3100000D02*
G75*
G02*
X10832500Y-2800000I300000J0D01*
G01*
X8525000Y-22980000D02*
G75*
G02*
X8025000Y-22980000I-250000J0D01*
G01*
X8025000Y-22980000D02*
G75*
G02*
X8525000Y-22980000I250000J0D01*
G01*
X3300000Y-3000000D02*
G75*
G02*
X3000000Y-2700000I0J300000D01*
G01*
X8300000Y-4100000D02*
X8300000Y-5100000D01*
X10832500Y-2800000D02*
X10850000Y-2800000D01*
X4800000Y-5400000D02*
G75*
G02*
X4500000Y-5100000I0J300000D01*
G01*
X3300000Y-13175000D02*
G75*
G02*
X3000000Y-12875000I0J300000D01*
G01*
X10832500Y-12375000D02*
G75*
G02*
X10532500Y-12075000I0J300000D01*
G01*
X3617500Y-12075000D02*
G75*
G02*
X3317500Y-12375000I-300000J0D01*
G01*
X11150000Y-12875000D02*
X11150000Y-12675000D01*
X3000000Y-12675000D02*
X3000000Y-12875000D01*
X4500000Y-5100000D02*
X4500000Y-4100000D01*
X3317500Y-12375000D02*
X3300000Y-12375000D01*
X3317500Y-3000000D02*
G75*
G02*
X3617500Y-3300000I0J-300000D01*
G01*
X10850000Y-12375000D02*
G75*
G02*
X11150000Y-12675000I0J-300000D01*
G01*
X3000000Y-22750000D02*
X3000000Y-23250000D01*
X3000000Y-12675000D02*
G75*
G02*
X3300000Y-12375000I300000J0D01*
G01*
X11150000Y-12875000D02*
G75*
G02*
X10850000Y-13175000I-300000J0D01*
G01*
X10532500Y-12075000D02*
X10532500Y-5375000D01*
X10532500Y-13475000D02*
G75*
G02*
X10832500Y-13175000I300000J0D01*
G01*
X10432500Y-5275000D02*
X10075000Y-5275000D01*
X10075000Y-5275000D02*
G75*
G02*
X9975000Y-5175000I0J100000D01*
G01*
X8000000Y-3800000D02*
G75*
G02*
X8300000Y-4100000I0J-300000D01*
G01*
D11*
X8450000Y-7460000D02*
X5900000Y-7460000D01*
D10*
X3000000Y-2300000D02*
G75*
G02*
X3300000Y-2000000I300000J0D01*
G01*
X6365000Y-21943583D02*
X6365000Y-22528990D01*
X11150000Y-23250000D02*
G75*
G02*
X10850000Y-23550000I-300000J0D01*
G01*
D11*
X8450000Y-7460000D02*
X8450000Y-16650000D01*
D10*
X10832500Y-13175000D02*
X10850000Y-13175000D01*
X10850000Y-2000000D02*
G75*
G02*
X11150000Y-2300000I0J-300000D01*
G01*
X10432500Y-5275000D02*
G75*
G02*
X10532500Y-5375000I0J-100000D01*
G01*
X10075000Y-3275000D02*
X10432500Y-3275000D01*
X3617500Y-3300000D02*
X3617500Y-12075000D01*
X10380000Y-22570000D02*
G75*
G02*
X10595034Y-22662387I-1310J-299490D01*
G01*
X10532500Y-3175000D02*
X10532500Y-3100000D01*
X6931375Y-21659386D02*
G75*
G02*
X6964999Y-21800000I-265745J-137874D01*
G01*
X6365000Y-22528990D02*
G75*
G02*
X6244602Y-22769288I-300000J0D01*
G01*
X4544028Y-22715486D02*
G75*
G02*
X4283610Y-22564415I2J299996D01*
G01*
X6500000Y-20750000D02*
X6500000Y-19000000D01*
X10850000Y-22750000D02*
G75*
G02*
X11150000Y-23050000I0J-300000D01*
G01*
X4283606Y-22564417D02*
X3713209Y-21567021D01*
X10850000Y-12375000D02*
X10832500Y-12375000D01*
X6124638Y-22993448D02*
G75*
G02*
X5625521Y-22996130I-249638J13451D01*
G01*
X8300000Y-5100000D02*
G75*
G02*
X8000000Y-5400000I-300000J0D01*
G01*
X4800000Y-3800000D02*
X8000000Y-3800000D01*
X3300000Y-23550000D02*
G75*
G02*
X3000000Y-23250000I0J300000D01*
G01*
X11150000Y-2500000D02*
G75*
G02*
X10850000Y-2800000I-300000J0D01*
G01*
X5326146Y-22715486D02*
G75*
G02*
X5625520Y-22996130I4J-299994D01*
G01*
X10800000Y-22750000D02*
G75*
G02*
X10595034Y-22662387I8900J304380D01*
G01*
X6124638Y-22993448D02*
G75*
G02*
X6244600Y-22769285I299582J-16142D01*
G01*
X10380000Y-22570000D02*
X7265000Y-22570000D01*
X6965000Y-22270000D02*
X6965000Y-21800000D01*
X9975000Y-5175000D02*
X9975000Y-3375000D01*
D11*
X5900000Y-7460000D02*
X5900000Y-8100000D01*
X5800000Y-8200000D02*
X5800000Y-16650000D01*
D10*
X8525000Y-2570000D02*
G75*
G02*
X8025000Y-2570000I-250000J0D01*
G01*
X8025000Y-2570000D02*
G75*
G02*
X8525000Y-2570000I250000J0D01*
G01*
X3617500Y-19800000D02*
G75*
G02*
X3539606Y-19986074I-303260J17610D01*
G01*
X5326146Y-22715486D02*
X4544028Y-22715486D01*
X10850000Y-22750000D02*
X10800000Y-22750000D01*
X4500000Y-4100000D02*
G75*
G02*
X4800000Y-3800000I300000J0D01*
G01*
X5658777Y-20507316D02*
X6331375Y-21805581D01*
X7265000Y-22570000D02*
G75*
G02*
X6965000Y-22270000I0J300000D01*
G01*
X10850000Y-2000000D02*
X3300000Y-2000000D01*
X3000000Y-2300000D02*
X3000000Y-2700000D01*
X3713209Y-21567021D02*
G75*
G02*
X5658778Y-20507316I961792J550034D01*
G01*
X6700000Y-18800000D02*
X10232500Y-18800000D01*
X3300000Y-23550000D02*
X10850000Y-23550000D01*
X10532500Y-3175000D02*
G75*
G02*
X10432500Y-3275000I-100000J0D01*
G01*
X6931375Y-21659386D02*
X6533625Y-20891640D01*
X9975000Y-3375000D02*
G75*
G02*
X10075000Y-3275000I100000J0D01*
G01*
X3300000Y-3000000D02*
X3317500Y-3000000D01*
X6533625Y-20891640D02*
G75*
G02*
X6499998Y-20750000I266745J138140D01*
G01*
X3469229Y-21964624D02*
G75*
G02*
X3300000Y-22450000I-245330J-186654D01*
G01*
X3000000Y-22750000D02*
G75*
G02*
X3300000Y-22450000I300000J0D01*
G01*
X10532500Y-18500000D02*
X10532500Y-13475000D01*
D11*
X5900000Y-8100000D02*
X5800000Y-8200000D01*
D10*
X10532500Y-18500000D02*
G75*
G02*
X10232500Y-18800000I-300000J0D01*
G01*
X11150000Y-2500000D02*
X11150000Y-2300000D01*
X6125000Y-2570000D02*
G75*
G02*
X5625000Y-2570000I-250000J0D01*
G01*
X5625000Y-2570000D02*
G75*
G02*
X6125000Y-2570000I250000J0D01*
G01*
X11150000Y-23250000D02*
X11150000Y-23050000D01*
X6500000Y-19000000D02*
G75*
G02*
X6700000Y-18800000I200000J0D01*
G01*
X6331375Y-21805581D02*
G75*
G02*
X6365001Y-21943583I-266435J-138019D01*
G01*
X8000000Y-5400000D02*
X4800000Y-5400000D01*
D11*
X3690212Y-6809606D02*
X3720212Y-6839606D01*
X3720212Y-6809606D02*
X3690212Y-6839606D01*
X3690212Y-6911206D02*
X3720212Y-6941206D01*
X3720212Y-6911206D02*
X3690212Y-6941206D01*
X3690212Y-7003037D02*
X3720212Y-7033037D01*
X3720212Y-7003037D02*
X3690212Y-7033037D01*
X3690212Y-7104637D02*
X3720212Y-7134637D01*
X3720212Y-7104637D02*
X3690212Y-7134637D01*
X5792969Y-8079606D02*
X5822969Y-8109606D01*
X5822969Y-8079606D02*
X5792969Y-8109606D01*
X5795212Y-7673206D02*
X5825212Y-7703206D01*
X5825212Y-7673206D02*
X5795212Y-7703206D01*
X5795212Y-7774806D02*
X5825212Y-7804806D01*
X5825212Y-7774806D02*
X5795212Y-7804806D01*
X5795212Y-7876406D02*
X5825212Y-7906406D01*
X5825212Y-7876406D02*
X5795212Y-7906406D01*
X5795212Y-7978006D02*
X5825212Y-8008006D01*
X5825212Y-7978006D02*
X5795212Y-8008006D01*
D12*
X4335000Y-4198000D02*
G75*
G02*
X4205000Y-4198000I-65000J0D01*
G01*
X4205000Y-4198000D02*
G75*
G02*
X4335000Y-4198000I65000J0D01*
G01*
X4335000Y-4960000D02*
G75*
G02*
X4205000Y-4960000I-65000J0D01*
G01*
X4205000Y-4960000D02*
G75*
G02*
X4335000Y-4960000I65000J0D01*
G01*
D13*
X3225000Y-2290000D02*
X3225000Y-2510000D01*
X3115000Y-2400000D02*
X3335000Y-2400000D01*
X3225000Y-12665000D02*
X3225000Y-12885000D01*
X3115000Y-12775000D02*
X3335000Y-12775000D01*
X3225000Y-23040000D02*
X3225000Y-23260000D01*
X3115000Y-23150000D02*
X3335000Y-23150000D01*
X10925000Y-2290000D02*
X10925000Y-2510000D01*
X10815000Y-2400000D02*
X11035000Y-2400000D01*
X10925000Y-12665000D02*
X10925000Y-12885000D01*
X10815000Y-12775000D02*
X11035000Y-12775000D01*
X10925000Y-23040000D02*
X10925000Y-23260000D01*
X10815000Y-23150000D02*
X11035000Y-23150000D01*
D10*
X3250777Y-23871484D02*
X3250777Y-23671484D01*
X3250777Y-23671484D02*
X3298396Y-23671484D01*
X3298396Y-23671484D02*
X3326967Y-23681008D01*
X3326967Y-23681008D02*
X3346015Y-23700055D01*
X3346015Y-23700055D02*
X3355539Y-23719103D01*
X3355539Y-23719103D02*
X3365062Y-23757198D01*
X3365062Y-23757198D02*
X3365062Y-23785769D01*
X3365062Y-23785769D02*
X3355539Y-23823865D01*
X3355539Y-23823865D02*
X3346015Y-23842912D01*
X3346015Y-23842912D02*
X3326967Y-23861960D01*
X3326967Y-23861960D02*
X3298396Y-23871484D01*
X3298396Y-23871484D02*
X3250777Y-23871484D01*
X3450777Y-23871484D02*
X3450777Y-23738150D01*
X3450777Y-23776246D02*
X3460301Y-23757198D01*
X3460301Y-23757198D02*
X3469824Y-23747674D01*
X3469824Y-23747674D02*
X3488872Y-23738150D01*
X3488872Y-23738150D02*
X3507920Y-23738150D01*
X3574586Y-23871484D02*
X3574586Y-23738150D01*
X3574586Y-23671484D02*
X3565062Y-23681008D01*
X3565062Y-23681008D02*
X3574586Y-23690531D01*
X3574586Y-23690531D02*
X3584110Y-23681008D01*
X3584110Y-23681008D02*
X3574586Y-23671484D01*
X3574586Y-23671484D02*
X3574586Y-23690531D01*
X3698396Y-23871484D02*
X3679348Y-23861960D01*
X3679348Y-23861960D02*
X3669824Y-23842912D01*
X3669824Y-23842912D02*
X3669824Y-23671484D01*
X3803158Y-23871484D02*
X3784110Y-23861960D01*
X3784110Y-23861960D02*
X3774586Y-23842912D01*
X3774586Y-23842912D02*
X3774586Y-23671484D01*
X4031729Y-23871484D02*
X4031729Y-23671484D01*
X4031729Y-23671484D02*
X4098396Y-23814341D01*
X4098396Y-23814341D02*
X4165062Y-23671484D01*
X4165062Y-23671484D02*
X4165062Y-23871484D01*
X4346015Y-23871484D02*
X4346015Y-23766722D01*
X4346015Y-23766722D02*
X4336491Y-23747674D01*
X4336491Y-23747674D02*
X4317444Y-23738150D01*
X4317444Y-23738150D02*
X4279348Y-23738150D01*
X4279348Y-23738150D02*
X4260301Y-23747674D01*
X4346015Y-23861960D02*
X4326967Y-23871484D01*
X4326967Y-23871484D02*
X4279348Y-23871484D01*
X4279348Y-23871484D02*
X4260301Y-23861960D01*
X4260301Y-23861960D02*
X4250777Y-23842912D01*
X4250777Y-23842912D02*
X4250777Y-23823865D01*
X4250777Y-23823865D02*
X4260301Y-23804817D01*
X4260301Y-23804817D02*
X4279348Y-23795293D01*
X4279348Y-23795293D02*
X4326967Y-23795293D01*
X4326967Y-23795293D02*
X4346015Y-23785769D01*
X4441253Y-23738150D02*
X4441253Y-23938150D01*
X4441253Y-23747674D02*
X4460301Y-23738150D01*
X4460301Y-23738150D02*
X4498396Y-23738150D01*
X4498396Y-23738150D02*
X4517444Y-23747674D01*
X4517444Y-23747674D02*
X4526967Y-23757198D01*
X4526967Y-23757198D02*
X4536491Y-23776246D01*
X4536491Y-23776246D02*
X4536491Y-23833388D01*
X4536491Y-23833388D02*
X4526967Y-23852436D01*
X4526967Y-23852436D02*
X4517444Y-23861960D01*
X4517444Y-23861960D02*
X4498396Y-23871484D01*
X4498396Y-23871484D02*
X4460301Y-23871484D01*
X4460301Y-23871484D02*
X4441253Y-23861960D01*
X4622205Y-23852436D02*
X4631729Y-23861960D01*
X4631729Y-23861960D02*
X4622205Y-23871484D01*
X4622205Y-23871484D02*
X4612682Y-23861960D01*
X4612682Y-23861960D02*
X4622205Y-23852436D01*
X4622205Y-23852436D02*
X4622205Y-23871484D01*
X4622205Y-23747674D02*
X4631729Y-23757198D01*
X4631729Y-23757198D02*
X4622205Y-23766722D01*
X4622205Y-23766722D02*
X4612682Y-23757198D01*
X4612682Y-23757198D02*
X4622205Y-23747674D01*
X4622205Y-23747674D02*
X4622205Y-23766722D01*
D11*
X2960000Y-24185000D02*
X2990000Y-24215000D01*
X2990000Y-24185000D02*
X2960000Y-24215000D01*
D10*
X3288872Y-24091484D02*
X3307920Y-24091484D01*
X3307920Y-24091484D02*
X3326967Y-24101008D01*
X3326967Y-24101008D02*
X3336491Y-24110531D01*
X3336491Y-24110531D02*
X3346015Y-24129579D01*
X3346015Y-24129579D02*
X3355539Y-24167674D01*
X3355539Y-24167674D02*
X3355539Y-24215293D01*
X3355539Y-24215293D02*
X3346015Y-24253388D01*
X3346015Y-24253388D02*
X3336491Y-24272436D01*
X3336491Y-24272436D02*
X3326967Y-24281960D01*
X3326967Y-24281960D02*
X3307920Y-24291484D01*
X3307920Y-24291484D02*
X3288872Y-24291484D01*
X3288872Y-24291484D02*
X3269824Y-24281960D01*
X3269824Y-24281960D02*
X3260301Y-24272436D01*
X3260301Y-24272436D02*
X3250777Y-24253388D01*
X3250777Y-24253388D02*
X3241253Y-24215293D01*
X3241253Y-24215293D02*
X3241253Y-24167674D01*
X3241253Y-24167674D02*
X3250777Y-24129579D01*
X3250777Y-24129579D02*
X3260301Y-24110531D01*
X3260301Y-24110531D02*
X3269824Y-24101008D01*
X3269824Y-24101008D02*
X3288872Y-24091484D01*
X3441253Y-24272436D02*
X3450777Y-24281960D01*
X3450777Y-24281960D02*
X3441253Y-24291484D01*
X3441253Y-24291484D02*
X3431729Y-24281960D01*
X3431729Y-24281960D02*
X3441253Y-24272436D01*
X3441253Y-24272436D02*
X3441253Y-24291484D01*
X3517443Y-24091484D02*
X3641253Y-24091484D01*
X3641253Y-24091484D02*
X3574586Y-24167674D01*
X3574586Y-24167674D02*
X3603158Y-24167674D01*
X3603158Y-24167674D02*
X3622205Y-24177198D01*
X3622205Y-24177198D02*
X3631729Y-24186722D01*
X3631729Y-24186722D02*
X3641253Y-24205769D01*
X3641253Y-24205769D02*
X3641253Y-24253388D01*
X3641253Y-24253388D02*
X3631729Y-24272436D01*
X3631729Y-24272436D02*
X3622205Y-24281960D01*
X3622205Y-24281960D02*
X3603158Y-24291484D01*
X3603158Y-24291484D02*
X3546015Y-24291484D01*
X3546015Y-24291484D02*
X3526967Y-24281960D01*
X3526967Y-24281960D02*
X3517443Y-24272436D01*
X3765062Y-24091484D02*
X3784110Y-24091484D01*
X3784110Y-24091484D02*
X3803158Y-24101008D01*
X3803158Y-24101008D02*
X3812682Y-24110531D01*
X3812682Y-24110531D02*
X3822205Y-24129579D01*
X3822205Y-24129579D02*
X3831729Y-24167674D01*
X3831729Y-24167674D02*
X3831729Y-24215293D01*
X3831729Y-24215293D02*
X3822205Y-24253388D01*
X3822205Y-24253388D02*
X3812682Y-24272436D01*
X3812682Y-24272436D02*
X3803158Y-24281960D01*
X3803158Y-24281960D02*
X3784110Y-24291484D01*
X3784110Y-24291484D02*
X3765062Y-24291484D01*
X3765062Y-24291484D02*
X3746015Y-24281960D01*
X3746015Y-24281960D02*
X3736491Y-24272436D01*
X3736491Y-24272436D02*
X3726967Y-24253388D01*
X3726967Y-24253388D02*
X3717443Y-24215293D01*
X3717443Y-24215293D02*
X3717443Y-24167674D01*
X3717443Y-24167674D02*
X3726967Y-24129579D01*
X3726967Y-24129579D02*
X3736491Y-24110531D01*
X3736491Y-24110531D02*
X3746015Y-24101008D01*
X3746015Y-24101008D02*
X3765062Y-24091484D01*
X3955539Y-24091484D02*
X3974586Y-24091484D01*
X3974586Y-24091484D02*
X3993634Y-24101008D01*
X3993634Y-24101008D02*
X4003158Y-24110531D01*
X4003158Y-24110531D02*
X4012682Y-24129579D01*
X4012682Y-24129579D02*
X4022205Y-24167674D01*
X4022205Y-24167674D02*
X4022205Y-24215293D01*
X4022205Y-24215293D02*
X4012682Y-24253388D01*
X4012682Y-24253388D02*
X4003158Y-24272436D01*
X4003158Y-24272436D02*
X3993634Y-24281960D01*
X3993634Y-24281960D02*
X3974586Y-24291484D01*
X3974586Y-24291484D02*
X3955539Y-24291484D01*
X3955539Y-24291484D02*
X3936491Y-24281960D01*
X3936491Y-24281960D02*
X3926967Y-24272436D01*
X3926967Y-24272436D02*
X3917443Y-24253388D01*
X3917443Y-24253388D02*
X3907920Y-24215293D01*
X3907920Y-24215293D02*
X3907920Y-24167674D01*
X3907920Y-24167674D02*
X3917443Y-24129579D01*
X3917443Y-24129579D02*
X3926967Y-24110531D01*
X3926967Y-24110531D02*
X3936491Y-24101008D01*
X3936491Y-24101008D02*
X3955539Y-24091484D01*
X4107920Y-24291484D02*
X4107920Y-24158150D01*
X4107920Y-24177198D02*
X4117443Y-24167674D01*
X4117443Y-24167674D02*
X4136491Y-24158150D01*
X4136491Y-24158150D02*
X4165063Y-24158150D01*
X4165063Y-24158150D02*
X4184110Y-24167674D01*
X4184110Y-24167674D02*
X4193634Y-24186722D01*
X4193634Y-24186722D02*
X4193634Y-24291484D01*
X4193634Y-24186722D02*
X4203158Y-24167674D01*
X4203158Y-24167674D02*
X4222205Y-24158150D01*
X4222205Y-24158150D02*
X4250777Y-24158150D01*
X4250777Y-24158150D02*
X4269825Y-24167674D01*
X4269825Y-24167674D02*
X4279348Y-24186722D01*
X4279348Y-24186722D02*
X4279348Y-24291484D01*
X4374586Y-24291484D02*
X4374586Y-24158150D01*
X4374586Y-24177198D02*
X4384110Y-24167674D01*
X4384110Y-24167674D02*
X4403158Y-24158150D01*
X4403158Y-24158150D02*
X4431729Y-24158150D01*
X4431729Y-24158150D02*
X4450777Y-24167674D01*
X4450777Y-24167674D02*
X4460301Y-24186722D01*
X4460301Y-24186722D02*
X4460301Y-24291484D01*
X4460301Y-24186722D02*
X4469825Y-24167674D01*
X4469825Y-24167674D02*
X4488872Y-24158150D01*
X4488872Y-24158150D02*
X4517444Y-24158150D01*
X4517444Y-24158150D02*
X4536491Y-24167674D01*
X4536491Y-24167674D02*
X4546015Y-24186722D01*
X4546015Y-24186722D02*
X4546015Y-24291484D01*
X4936491Y-24081960D02*
X4765063Y-24339103D01*
X5193634Y-24091484D02*
X5212682Y-24091484D01*
X5212682Y-24091484D02*
X5231729Y-24101008D01*
X5231729Y-24101008D02*
X5241253Y-24110531D01*
X5241253Y-24110531D02*
X5250777Y-24129579D01*
X5250777Y-24129579D02*
X5260301Y-24167674D01*
X5260301Y-24167674D02*
X5260301Y-24215293D01*
X5260301Y-24215293D02*
X5250777Y-24253388D01*
X5250777Y-24253388D02*
X5241253Y-24272436D01*
X5241253Y-24272436D02*
X5231729Y-24281960D01*
X5231729Y-24281960D02*
X5212682Y-24291484D01*
X5212682Y-24291484D02*
X5193634Y-24291484D01*
X5193634Y-24291484D02*
X5174587Y-24281960D01*
X5174587Y-24281960D02*
X5165063Y-24272436D01*
X5165063Y-24272436D02*
X5155539Y-24253388D01*
X5155539Y-24253388D02*
X5146015Y-24215293D01*
X5146015Y-24215293D02*
X5146015Y-24167674D01*
X5146015Y-24167674D02*
X5155539Y-24129579D01*
X5155539Y-24129579D02*
X5165063Y-24110531D01*
X5165063Y-24110531D02*
X5174587Y-24101008D01*
X5174587Y-24101008D02*
X5193634Y-24091484D01*
X5346015Y-24272436D02*
X5355539Y-24281960D01*
X5355539Y-24281960D02*
X5346015Y-24291484D01*
X5346015Y-24291484D02*
X5336491Y-24281960D01*
X5336491Y-24281960D02*
X5346015Y-24272436D01*
X5346015Y-24272436D02*
X5346015Y-24291484D01*
X5479348Y-24091484D02*
X5498396Y-24091484D01*
X5498396Y-24091484D02*
X5517444Y-24101008D01*
X5517444Y-24101008D02*
X5526968Y-24110531D01*
X5526968Y-24110531D02*
X5536491Y-24129579D01*
X5536491Y-24129579D02*
X5546015Y-24167674D01*
X5546015Y-24167674D02*
X5546015Y-24215293D01*
X5546015Y-24215293D02*
X5536491Y-24253388D01*
X5536491Y-24253388D02*
X5526968Y-24272436D01*
X5526968Y-24272436D02*
X5517444Y-24281960D01*
X5517444Y-24281960D02*
X5498396Y-24291484D01*
X5498396Y-24291484D02*
X5479348Y-24291484D01*
X5479348Y-24291484D02*
X5460301Y-24281960D01*
X5460301Y-24281960D02*
X5450777Y-24272436D01*
X5450777Y-24272436D02*
X5441253Y-24253388D01*
X5441253Y-24253388D02*
X5431729Y-24215293D01*
X5431729Y-24215293D02*
X5431729Y-24167674D01*
X5431729Y-24167674D02*
X5441253Y-24129579D01*
X5441253Y-24129579D02*
X5450777Y-24110531D01*
X5450777Y-24110531D02*
X5460301Y-24101008D01*
X5460301Y-24101008D02*
X5479348Y-24091484D01*
X5736491Y-24291484D02*
X5622206Y-24291484D01*
X5679348Y-24291484D02*
X5679348Y-24091484D01*
X5679348Y-24091484D02*
X5660301Y-24120055D01*
X5660301Y-24120055D02*
X5641253Y-24139103D01*
X5641253Y-24139103D02*
X5622206Y-24148627D01*
X5926967Y-24291484D02*
X5812682Y-24291484D01*
X5869825Y-24291484D02*
X5869825Y-24091484D01*
X5869825Y-24091484D02*
X5850777Y-24120055D01*
X5850777Y-24120055D02*
X5831729Y-24139103D01*
X5831729Y-24139103D02*
X5812682Y-24148627D01*
X6041253Y-24177198D02*
X6022206Y-24167674D01*
X6022206Y-24167674D02*
X6012682Y-24158150D01*
X6012682Y-24158150D02*
X6003158Y-24139103D01*
X6003158Y-24139103D02*
X6003158Y-24129579D01*
X6003158Y-24129579D02*
X6012682Y-24110531D01*
X6012682Y-24110531D02*
X6022206Y-24101008D01*
X6022206Y-24101008D02*
X6041253Y-24091484D01*
X6041253Y-24091484D02*
X6079348Y-24091484D01*
X6079348Y-24091484D02*
X6098396Y-24101008D01*
X6098396Y-24101008D02*
X6107920Y-24110531D01*
X6107920Y-24110531D02*
X6117444Y-24129579D01*
X6117444Y-24129579D02*
X6117444Y-24139103D01*
X6117444Y-24139103D02*
X6107920Y-24158150D01*
X6107920Y-24158150D02*
X6098396Y-24167674D01*
X6098396Y-24167674D02*
X6079348Y-24177198D01*
X6079348Y-24177198D02*
X6041253Y-24177198D01*
X6041253Y-24177198D02*
X6022206Y-24186722D01*
X6022206Y-24186722D02*
X6012682Y-24196246D01*
X6012682Y-24196246D02*
X6003158Y-24215293D01*
X6003158Y-24215293D02*
X6003158Y-24253388D01*
X6003158Y-24253388D02*
X6012682Y-24272436D01*
X6012682Y-24272436D02*
X6022206Y-24281960D01*
X6022206Y-24281960D02*
X6041253Y-24291484D01*
X6041253Y-24291484D02*
X6079348Y-24291484D01*
X6079348Y-24291484D02*
X6098396Y-24281960D01*
X6098396Y-24281960D02*
X6107920Y-24272436D01*
X6107920Y-24272436D02*
X6117444Y-24253388D01*
X6117444Y-24253388D02*
X6117444Y-24215293D01*
X6117444Y-24215293D02*
X6107920Y-24196246D01*
X6107920Y-24196246D02*
X6098396Y-24186722D01*
X6098396Y-24186722D02*
X6079348Y-24177198D01*
X6193634Y-24091484D02*
X6193634Y-24129579D01*
X6269825Y-24091484D02*
X6269825Y-24129579D01*
X6565063Y-24367674D02*
X6555539Y-24358150D01*
X6555539Y-24358150D02*
X6536491Y-24329579D01*
X6536491Y-24329579D02*
X6526968Y-24310531D01*
X6526968Y-24310531D02*
X6517444Y-24281960D01*
X6517444Y-24281960D02*
X6507920Y-24234341D01*
X6507920Y-24234341D02*
X6507920Y-24196246D01*
X6507920Y-24196246D02*
X6517444Y-24148627D01*
X6517444Y-24148627D02*
X6526968Y-24120055D01*
X6526968Y-24120055D02*
X6536491Y-24101008D01*
X6536491Y-24101008D02*
X6555539Y-24072436D01*
X6555539Y-24072436D02*
X6565063Y-24062912D01*
X6650777Y-24291484D02*
X6688872Y-24291484D01*
X6688872Y-24291484D02*
X6707920Y-24281960D01*
X6707920Y-24281960D02*
X6717444Y-24272436D01*
X6717444Y-24272436D02*
X6736491Y-24243865D01*
X6736491Y-24243865D02*
X6746015Y-24205769D01*
X6746015Y-24205769D02*
X6746015Y-24129579D01*
X6746015Y-24129579D02*
X6736491Y-24110531D01*
X6736491Y-24110531D02*
X6726968Y-24101008D01*
X6726968Y-24101008D02*
X6707920Y-24091484D01*
X6707920Y-24091484D02*
X6669825Y-24091484D01*
X6669825Y-24091484D02*
X6650777Y-24101008D01*
X6650777Y-24101008D02*
X6641253Y-24110531D01*
X6641253Y-24110531D02*
X6631729Y-24129579D01*
X6631729Y-24129579D02*
X6631729Y-24177198D01*
X6631729Y-24177198D02*
X6641253Y-24196246D01*
X6641253Y-24196246D02*
X6650777Y-24205769D01*
X6650777Y-24205769D02*
X6669825Y-24215293D01*
X6669825Y-24215293D02*
X6707920Y-24215293D01*
X6707920Y-24215293D02*
X6726968Y-24205769D01*
X6726968Y-24205769D02*
X6736491Y-24196246D01*
X6736491Y-24196246D02*
X6746015Y-24177198D01*
X6984110Y-24291484D02*
X6984110Y-24091484D01*
X7069825Y-24291484D02*
X7069825Y-24186722D01*
X7069825Y-24186722D02*
X7060301Y-24167674D01*
X7060301Y-24167674D02*
X7041253Y-24158150D01*
X7041253Y-24158150D02*
X7012682Y-24158150D01*
X7012682Y-24158150D02*
X6993634Y-24167674D01*
X6993634Y-24167674D02*
X6984110Y-24177198D01*
X7193634Y-24291484D02*
X7174587Y-24281960D01*
X7174587Y-24281960D02*
X7165063Y-24272436D01*
X7165063Y-24272436D02*
X7155539Y-24253388D01*
X7155539Y-24253388D02*
X7155539Y-24196246D01*
X7155539Y-24196246D02*
X7165063Y-24177198D01*
X7165063Y-24177198D02*
X7174587Y-24167674D01*
X7174587Y-24167674D02*
X7193634Y-24158150D01*
X7193634Y-24158150D02*
X7222206Y-24158150D01*
X7222206Y-24158150D02*
X7241253Y-24167674D01*
X7241253Y-24167674D02*
X7250777Y-24177198D01*
X7250777Y-24177198D02*
X7260301Y-24196246D01*
X7260301Y-24196246D02*
X7260301Y-24253388D01*
X7260301Y-24253388D02*
X7250777Y-24272436D01*
X7250777Y-24272436D02*
X7241253Y-24281960D01*
X7241253Y-24281960D02*
X7222206Y-24291484D01*
X7222206Y-24291484D02*
X7193634Y-24291484D01*
X7374587Y-24291484D02*
X7355539Y-24281960D01*
X7355539Y-24281960D02*
X7346015Y-24262912D01*
X7346015Y-24262912D02*
X7346015Y-24091484D01*
X7526968Y-24281960D02*
X7507920Y-24291484D01*
X7507920Y-24291484D02*
X7469825Y-24291484D01*
X7469825Y-24291484D02*
X7450777Y-24281960D01*
X7450777Y-24281960D02*
X7441253Y-24262912D01*
X7441253Y-24262912D02*
X7441253Y-24186722D01*
X7441253Y-24186722D02*
X7450777Y-24167674D01*
X7450777Y-24167674D02*
X7469825Y-24158150D01*
X7469825Y-24158150D02*
X7507920Y-24158150D01*
X7507920Y-24158150D02*
X7526968Y-24167674D01*
X7526968Y-24167674D02*
X7536491Y-24186722D01*
X7536491Y-24186722D02*
X7536491Y-24205769D01*
X7536491Y-24205769D02*
X7441253Y-24224817D01*
X7612682Y-24281960D02*
X7631730Y-24291484D01*
X7631730Y-24291484D02*
X7669825Y-24291484D01*
X7669825Y-24291484D02*
X7688872Y-24281960D01*
X7688872Y-24281960D02*
X7698396Y-24262912D01*
X7698396Y-24262912D02*
X7698396Y-24253388D01*
X7698396Y-24253388D02*
X7688872Y-24234341D01*
X7688872Y-24234341D02*
X7669825Y-24224817D01*
X7669825Y-24224817D02*
X7641253Y-24224817D01*
X7641253Y-24224817D02*
X7622206Y-24215293D01*
X7622206Y-24215293D02*
X7612682Y-24196246D01*
X7612682Y-24196246D02*
X7612682Y-24186722D01*
X7612682Y-24186722D02*
X7622206Y-24167674D01*
X7622206Y-24167674D02*
X7641253Y-24158150D01*
X7641253Y-24158150D02*
X7669825Y-24158150D01*
X7669825Y-24158150D02*
X7688872Y-24167674D01*
X7765063Y-24367674D02*
X7774587Y-24358150D01*
X7774587Y-24358150D02*
X7793634Y-24329579D01*
X7793634Y-24329579D02*
X7803158Y-24310531D01*
X7803158Y-24310531D02*
X7812682Y-24281960D01*
X7812682Y-24281960D02*
X7822206Y-24234341D01*
X7822206Y-24234341D02*
X7822206Y-24196246D01*
X7822206Y-24196246D02*
X7812682Y-24148627D01*
X7812682Y-24148627D02*
X7803158Y-24120055D01*
X7803158Y-24120055D02*
X7793634Y-24101008D01*
X7793634Y-24101008D02*
X7774587Y-24072436D01*
X7774587Y-24072436D02*
X7765063Y-24062912D01*
D12*
X2990000Y-24464000D02*
G75*
G02*
X2860000Y-24464000I-65000J0D01*
G01*
X2860000Y-24464000D02*
G75*
G02*
X2990000Y-24464000I65000J0D01*
G01*
D10*
X3355539Y-24555484D02*
X3241253Y-24555484D01*
X3298396Y-24555484D02*
X3298396Y-24355484D01*
X3298396Y-24355484D02*
X3279348Y-24384055D01*
X3279348Y-24384055D02*
X3260301Y-24403103D01*
X3260301Y-24403103D02*
X3241253Y-24412627D01*
X3441253Y-24536436D02*
X3450777Y-24545960D01*
X3450777Y-24545960D02*
X3441253Y-24555484D01*
X3441253Y-24555484D02*
X3431729Y-24545960D01*
X3431729Y-24545960D02*
X3441253Y-24536436D01*
X3441253Y-24536436D02*
X3441253Y-24555484D01*
X3517443Y-24355484D02*
X3641253Y-24355484D01*
X3641253Y-24355484D02*
X3574586Y-24431674D01*
X3574586Y-24431674D02*
X3603158Y-24431674D01*
X3603158Y-24431674D02*
X3622205Y-24441198D01*
X3622205Y-24441198D02*
X3631729Y-24450722D01*
X3631729Y-24450722D02*
X3641253Y-24469769D01*
X3641253Y-24469769D02*
X3641253Y-24517388D01*
X3641253Y-24517388D02*
X3631729Y-24536436D01*
X3631729Y-24536436D02*
X3622205Y-24545960D01*
X3622205Y-24545960D02*
X3603158Y-24555484D01*
X3603158Y-24555484D02*
X3546015Y-24555484D01*
X3546015Y-24555484D02*
X3526967Y-24545960D01*
X3526967Y-24545960D02*
X3517443Y-24536436D01*
X3765062Y-24355484D02*
X3784110Y-24355484D01*
X3784110Y-24355484D02*
X3803158Y-24365008D01*
X3803158Y-24365008D02*
X3812682Y-24374531D01*
X3812682Y-24374531D02*
X3822205Y-24393579D01*
X3822205Y-24393579D02*
X3831729Y-24431674D01*
X3831729Y-24431674D02*
X3831729Y-24479293D01*
X3831729Y-24479293D02*
X3822205Y-24517388D01*
X3822205Y-24517388D02*
X3812682Y-24536436D01*
X3812682Y-24536436D02*
X3803158Y-24545960D01*
X3803158Y-24545960D02*
X3784110Y-24555484D01*
X3784110Y-24555484D02*
X3765062Y-24555484D01*
X3765062Y-24555484D02*
X3746015Y-24545960D01*
X3746015Y-24545960D02*
X3736491Y-24536436D01*
X3736491Y-24536436D02*
X3726967Y-24517388D01*
X3726967Y-24517388D02*
X3717443Y-24479293D01*
X3717443Y-24479293D02*
X3717443Y-24431674D01*
X3717443Y-24431674D02*
X3726967Y-24393579D01*
X3726967Y-24393579D02*
X3736491Y-24374531D01*
X3736491Y-24374531D02*
X3746015Y-24365008D01*
X3746015Y-24365008D02*
X3765062Y-24355484D01*
X3955539Y-24355484D02*
X3974586Y-24355484D01*
X3974586Y-24355484D02*
X3993634Y-24365008D01*
X3993634Y-24365008D02*
X4003158Y-24374531D01*
X4003158Y-24374531D02*
X4012682Y-24393579D01*
X4012682Y-24393579D02*
X4022205Y-24431674D01*
X4022205Y-24431674D02*
X4022205Y-24479293D01*
X4022205Y-24479293D02*
X4012682Y-24517388D01*
X4012682Y-24517388D02*
X4003158Y-24536436D01*
X4003158Y-24536436D02*
X3993634Y-24545960D01*
X3993634Y-24545960D02*
X3974586Y-24555484D01*
X3974586Y-24555484D02*
X3955539Y-24555484D01*
X3955539Y-24555484D02*
X3936491Y-24545960D01*
X3936491Y-24545960D02*
X3926967Y-24536436D01*
X3926967Y-24536436D02*
X3917443Y-24517388D01*
X3917443Y-24517388D02*
X3907920Y-24479293D01*
X3907920Y-24479293D02*
X3907920Y-24431674D01*
X3907920Y-24431674D02*
X3917443Y-24393579D01*
X3917443Y-24393579D02*
X3926967Y-24374531D01*
X3926967Y-24374531D02*
X3936491Y-24365008D01*
X3936491Y-24365008D02*
X3955539Y-24355484D01*
X4107920Y-24555484D02*
X4107920Y-24422150D01*
X4107920Y-24441198D02*
X4117443Y-24431674D01*
X4117443Y-24431674D02*
X4136491Y-24422150D01*
X4136491Y-24422150D02*
X4165063Y-24422150D01*
X4165063Y-24422150D02*
X4184110Y-24431674D01*
X4184110Y-24431674D02*
X4193634Y-24450722D01*
X4193634Y-24450722D02*
X4193634Y-24555484D01*
X4193634Y-24450722D02*
X4203158Y-24431674D01*
X4203158Y-24431674D02*
X4222205Y-24422150D01*
X4222205Y-24422150D02*
X4250777Y-24422150D01*
X4250777Y-24422150D02*
X4269825Y-24431674D01*
X4269825Y-24431674D02*
X4279348Y-24450722D01*
X4279348Y-24450722D02*
X4279348Y-24555484D01*
X4374586Y-24555484D02*
X4374586Y-24422150D01*
X4374586Y-24441198D02*
X4384110Y-24431674D01*
X4384110Y-24431674D02*
X4403158Y-24422150D01*
X4403158Y-24422150D02*
X4431729Y-24422150D01*
X4431729Y-24422150D02*
X4450777Y-24431674D01*
X4450777Y-24431674D02*
X4460301Y-24450722D01*
X4460301Y-24450722D02*
X4460301Y-24555484D01*
X4460301Y-24450722D02*
X4469825Y-24431674D01*
X4469825Y-24431674D02*
X4488872Y-24422150D01*
X4488872Y-24422150D02*
X4517444Y-24422150D01*
X4517444Y-24422150D02*
X4536491Y-24431674D01*
X4536491Y-24431674D02*
X4546015Y-24450722D01*
X4546015Y-24450722D02*
X4546015Y-24555484D01*
X4936491Y-24345960D02*
X4765063Y-24603103D01*
X5193634Y-24355484D02*
X5212682Y-24355484D01*
X5212682Y-24355484D02*
X5231729Y-24365008D01*
X5231729Y-24365008D02*
X5241253Y-24374531D01*
X5241253Y-24374531D02*
X5250777Y-24393579D01*
X5250777Y-24393579D02*
X5260301Y-24431674D01*
X5260301Y-24431674D02*
X5260301Y-24479293D01*
X5260301Y-24479293D02*
X5250777Y-24517388D01*
X5250777Y-24517388D02*
X5241253Y-24536436D01*
X5241253Y-24536436D02*
X5231729Y-24545960D01*
X5231729Y-24545960D02*
X5212682Y-24555484D01*
X5212682Y-24555484D02*
X5193634Y-24555484D01*
X5193634Y-24555484D02*
X5174587Y-24545960D01*
X5174587Y-24545960D02*
X5165063Y-24536436D01*
X5165063Y-24536436D02*
X5155539Y-24517388D01*
X5155539Y-24517388D02*
X5146015Y-24479293D01*
X5146015Y-24479293D02*
X5146015Y-24431674D01*
X5146015Y-24431674D02*
X5155539Y-24393579D01*
X5155539Y-24393579D02*
X5165063Y-24374531D01*
X5165063Y-24374531D02*
X5174587Y-24365008D01*
X5174587Y-24365008D02*
X5193634Y-24355484D01*
X5346015Y-24536436D02*
X5355539Y-24545960D01*
X5355539Y-24545960D02*
X5346015Y-24555484D01*
X5346015Y-24555484D02*
X5336491Y-24545960D01*
X5336491Y-24545960D02*
X5346015Y-24536436D01*
X5346015Y-24536436D02*
X5346015Y-24555484D01*
X5479348Y-24355484D02*
X5498396Y-24355484D01*
X5498396Y-24355484D02*
X5517444Y-24365008D01*
X5517444Y-24365008D02*
X5526968Y-24374531D01*
X5526968Y-24374531D02*
X5536491Y-24393579D01*
X5536491Y-24393579D02*
X5546015Y-24431674D01*
X5546015Y-24431674D02*
X5546015Y-24479293D01*
X5546015Y-24479293D02*
X5536491Y-24517388D01*
X5536491Y-24517388D02*
X5526968Y-24536436D01*
X5526968Y-24536436D02*
X5517444Y-24545960D01*
X5517444Y-24545960D02*
X5498396Y-24555484D01*
X5498396Y-24555484D02*
X5479348Y-24555484D01*
X5479348Y-24555484D02*
X5460301Y-24545960D01*
X5460301Y-24545960D02*
X5450777Y-24536436D01*
X5450777Y-24536436D02*
X5441253Y-24517388D01*
X5441253Y-24517388D02*
X5431729Y-24479293D01*
X5431729Y-24479293D02*
X5431729Y-24431674D01*
X5431729Y-24431674D02*
X5441253Y-24393579D01*
X5441253Y-24393579D02*
X5450777Y-24374531D01*
X5450777Y-24374531D02*
X5460301Y-24365008D01*
X5460301Y-24365008D02*
X5479348Y-24355484D01*
X5726967Y-24355484D02*
X5631729Y-24355484D01*
X5631729Y-24355484D02*
X5622206Y-24450722D01*
X5622206Y-24450722D02*
X5631729Y-24441198D01*
X5631729Y-24441198D02*
X5650777Y-24431674D01*
X5650777Y-24431674D02*
X5698396Y-24431674D01*
X5698396Y-24431674D02*
X5717444Y-24441198D01*
X5717444Y-24441198D02*
X5726967Y-24450722D01*
X5726967Y-24450722D02*
X5736491Y-24469769D01*
X5736491Y-24469769D02*
X5736491Y-24517388D01*
X5736491Y-24517388D02*
X5726967Y-24536436D01*
X5726967Y-24536436D02*
X5717444Y-24545960D01*
X5717444Y-24545960D02*
X5698396Y-24555484D01*
X5698396Y-24555484D02*
X5650777Y-24555484D01*
X5650777Y-24555484D02*
X5631729Y-24545960D01*
X5631729Y-24545960D02*
X5622206Y-24536436D01*
X5926967Y-24555484D02*
X5812682Y-24555484D01*
X5869825Y-24555484D02*
X5869825Y-24355484D01*
X5869825Y-24355484D02*
X5850777Y-24384055D01*
X5850777Y-24384055D02*
X5831729Y-24403103D01*
X5831729Y-24403103D02*
X5812682Y-24412627D01*
X6003158Y-24374531D02*
X6012682Y-24365008D01*
X6012682Y-24365008D02*
X6031729Y-24355484D01*
X6031729Y-24355484D02*
X6079348Y-24355484D01*
X6079348Y-24355484D02*
X6098396Y-24365008D01*
X6098396Y-24365008D02*
X6107920Y-24374531D01*
X6107920Y-24374531D02*
X6117444Y-24393579D01*
X6117444Y-24393579D02*
X6117444Y-24412627D01*
X6117444Y-24412627D02*
X6107920Y-24441198D01*
X6107920Y-24441198D02*
X5993634Y-24555484D01*
X5993634Y-24555484D02*
X6117444Y-24555484D01*
X6193634Y-24355484D02*
X6193634Y-24393579D01*
X6269825Y-24355484D02*
X6269825Y-24393579D01*
X6565063Y-24631674D02*
X6555539Y-24622150D01*
X6555539Y-24622150D02*
X6536491Y-24593579D01*
X6536491Y-24593579D02*
X6526968Y-24574531D01*
X6526968Y-24574531D02*
X6517444Y-24545960D01*
X6517444Y-24545960D02*
X6507920Y-24498341D01*
X6507920Y-24498341D02*
X6507920Y-24460246D01*
X6507920Y-24460246D02*
X6517444Y-24412627D01*
X6517444Y-24412627D02*
X6526968Y-24384055D01*
X6526968Y-24384055D02*
X6536491Y-24365008D01*
X6536491Y-24365008D02*
X6555539Y-24336436D01*
X6555539Y-24336436D02*
X6565063Y-24326912D01*
X6631729Y-24374531D02*
X6641253Y-24365008D01*
X6641253Y-24365008D02*
X6660301Y-24355484D01*
X6660301Y-24355484D02*
X6707920Y-24355484D01*
X6707920Y-24355484D02*
X6726968Y-24365008D01*
X6726968Y-24365008D02*
X6736491Y-24374531D01*
X6736491Y-24374531D02*
X6746015Y-24393579D01*
X6746015Y-24393579D02*
X6746015Y-24412627D01*
X6746015Y-24412627D02*
X6736491Y-24441198D01*
X6736491Y-24441198D02*
X6622206Y-24555484D01*
X6622206Y-24555484D02*
X6746015Y-24555484D01*
X6984110Y-24555484D02*
X6984110Y-24355484D01*
X7069825Y-24555484D02*
X7069825Y-24450722D01*
X7069825Y-24450722D02*
X7060301Y-24431674D01*
X7060301Y-24431674D02*
X7041253Y-24422150D01*
X7041253Y-24422150D02*
X7012682Y-24422150D01*
X7012682Y-24422150D02*
X6993634Y-24431674D01*
X6993634Y-24431674D02*
X6984110Y-24441198D01*
X7193634Y-24555484D02*
X7174587Y-24545960D01*
X7174587Y-24545960D02*
X7165063Y-24536436D01*
X7165063Y-24536436D02*
X7155539Y-24517388D01*
X7155539Y-24517388D02*
X7155539Y-24460246D01*
X7155539Y-24460246D02*
X7165063Y-24441198D01*
X7165063Y-24441198D02*
X7174587Y-24431674D01*
X7174587Y-24431674D02*
X7193634Y-24422150D01*
X7193634Y-24422150D02*
X7222206Y-24422150D01*
X7222206Y-24422150D02*
X7241253Y-24431674D01*
X7241253Y-24431674D02*
X7250777Y-24441198D01*
X7250777Y-24441198D02*
X7260301Y-24460246D01*
X7260301Y-24460246D02*
X7260301Y-24517388D01*
X7260301Y-24517388D02*
X7250777Y-24536436D01*
X7250777Y-24536436D02*
X7241253Y-24545960D01*
X7241253Y-24545960D02*
X7222206Y-24555484D01*
X7222206Y-24555484D02*
X7193634Y-24555484D01*
X7374587Y-24555484D02*
X7355539Y-24545960D01*
X7355539Y-24545960D02*
X7346015Y-24526912D01*
X7346015Y-24526912D02*
X7346015Y-24355484D01*
X7526968Y-24545960D02*
X7507920Y-24555484D01*
X7507920Y-24555484D02*
X7469825Y-24555484D01*
X7469825Y-24555484D02*
X7450777Y-24545960D01*
X7450777Y-24545960D02*
X7441253Y-24526912D01*
X7441253Y-24526912D02*
X7441253Y-24450722D01*
X7441253Y-24450722D02*
X7450777Y-24431674D01*
X7450777Y-24431674D02*
X7469825Y-24422150D01*
X7469825Y-24422150D02*
X7507920Y-24422150D01*
X7507920Y-24422150D02*
X7526968Y-24431674D01*
X7526968Y-24431674D02*
X7536491Y-24450722D01*
X7536491Y-24450722D02*
X7536491Y-24469769D01*
X7536491Y-24469769D02*
X7441253Y-24488817D01*
X7612682Y-24545960D02*
X7631730Y-24555484D01*
X7631730Y-24555484D02*
X7669825Y-24555484D01*
X7669825Y-24555484D02*
X7688872Y-24545960D01*
X7688872Y-24545960D02*
X7698396Y-24526912D01*
X7698396Y-24526912D02*
X7698396Y-24517388D01*
X7698396Y-24517388D02*
X7688872Y-24498341D01*
X7688872Y-24498341D02*
X7669825Y-24488817D01*
X7669825Y-24488817D02*
X7641253Y-24488817D01*
X7641253Y-24488817D02*
X7622206Y-24479293D01*
X7622206Y-24479293D02*
X7612682Y-24460246D01*
X7612682Y-24460246D02*
X7612682Y-24450722D01*
X7612682Y-24450722D02*
X7622206Y-24431674D01*
X7622206Y-24431674D02*
X7641253Y-24422150D01*
X7641253Y-24422150D02*
X7669825Y-24422150D01*
X7669825Y-24422150D02*
X7688872Y-24431674D01*
X7765063Y-24631674D02*
X7774587Y-24622150D01*
X7774587Y-24622150D02*
X7793634Y-24593579D01*
X7793634Y-24593579D02*
X7803158Y-24574531D01*
X7803158Y-24574531D02*
X7812682Y-24545960D01*
X7812682Y-24545960D02*
X7822206Y-24498341D01*
X7822206Y-24498341D02*
X7822206Y-24460246D01*
X7822206Y-24460246D02*
X7812682Y-24412627D01*
X7812682Y-24412627D02*
X7803158Y-24384055D01*
X7803158Y-24384055D02*
X7793634Y-24365008D01*
X7793634Y-24365008D02*
X7774587Y-24336436D01*
X7774587Y-24336436D02*
X7765063Y-24326912D01*
X2890000Y-24628000D02*
X2890000Y-24828000D01*
X2790000Y-24728000D02*
X2990000Y-24728000D01*
X3241253Y-24638531D02*
X3250777Y-24629008D01*
X3250777Y-24629008D02*
X3269824Y-24619484D01*
X3269824Y-24619484D02*
X3317443Y-24619484D01*
X3317443Y-24619484D02*
X3336491Y-24629008D01*
X3336491Y-24629008D02*
X3346015Y-24638531D01*
X3346015Y-24638531D02*
X3355539Y-24657579D01*
X3355539Y-24657579D02*
X3355539Y-24676627D01*
X3355539Y-24676627D02*
X3346015Y-24705198D01*
X3346015Y-24705198D02*
X3231729Y-24819484D01*
X3231729Y-24819484D02*
X3355539Y-24819484D01*
X3441253Y-24800436D02*
X3450777Y-24809960D01*
X3450777Y-24809960D02*
X3441253Y-24819484D01*
X3441253Y-24819484D02*
X3431729Y-24809960D01*
X3431729Y-24809960D02*
X3441253Y-24800436D01*
X3441253Y-24800436D02*
X3441253Y-24819484D01*
X3526967Y-24638531D02*
X3536491Y-24629008D01*
X3536491Y-24629008D02*
X3555539Y-24619484D01*
X3555539Y-24619484D02*
X3603158Y-24619484D01*
X3603158Y-24619484D02*
X3622205Y-24629008D01*
X3622205Y-24629008D02*
X3631729Y-24638531D01*
X3631729Y-24638531D02*
X3641253Y-24657579D01*
X3641253Y-24657579D02*
X3641253Y-24676627D01*
X3641253Y-24676627D02*
X3631729Y-24705198D01*
X3631729Y-24705198D02*
X3517443Y-24819484D01*
X3517443Y-24819484D02*
X3641253Y-24819484D01*
X3765062Y-24619484D02*
X3784110Y-24619484D01*
X3784110Y-24619484D02*
X3803158Y-24629008D01*
X3803158Y-24629008D02*
X3812682Y-24638531D01*
X3812682Y-24638531D02*
X3822205Y-24657579D01*
X3822205Y-24657579D02*
X3831729Y-24695674D01*
X3831729Y-24695674D02*
X3831729Y-24743293D01*
X3831729Y-24743293D02*
X3822205Y-24781388D01*
X3822205Y-24781388D02*
X3812682Y-24800436D01*
X3812682Y-24800436D02*
X3803158Y-24809960D01*
X3803158Y-24809960D02*
X3784110Y-24819484D01*
X3784110Y-24819484D02*
X3765062Y-24819484D01*
X3765062Y-24819484D02*
X3746015Y-24809960D01*
X3746015Y-24809960D02*
X3736491Y-24800436D01*
X3736491Y-24800436D02*
X3726967Y-24781388D01*
X3726967Y-24781388D02*
X3717443Y-24743293D01*
X3717443Y-24743293D02*
X3717443Y-24695674D01*
X3717443Y-24695674D02*
X3726967Y-24657579D01*
X3726967Y-24657579D02*
X3736491Y-24638531D01*
X3736491Y-24638531D02*
X3746015Y-24629008D01*
X3746015Y-24629008D02*
X3765062Y-24619484D01*
X3955539Y-24619484D02*
X3974586Y-24619484D01*
X3974586Y-24619484D02*
X3993634Y-24629008D01*
X3993634Y-24629008D02*
X4003158Y-24638531D01*
X4003158Y-24638531D02*
X4012682Y-24657579D01*
X4012682Y-24657579D02*
X4022205Y-24695674D01*
X4022205Y-24695674D02*
X4022205Y-24743293D01*
X4022205Y-24743293D02*
X4012682Y-24781388D01*
X4012682Y-24781388D02*
X4003158Y-24800436D01*
X4003158Y-24800436D02*
X3993634Y-24809960D01*
X3993634Y-24809960D02*
X3974586Y-24819484D01*
X3974586Y-24819484D02*
X3955539Y-24819484D01*
X3955539Y-24819484D02*
X3936491Y-24809960D01*
X3936491Y-24809960D02*
X3926967Y-24800436D01*
X3926967Y-24800436D02*
X3917443Y-24781388D01*
X3917443Y-24781388D02*
X3907920Y-24743293D01*
X3907920Y-24743293D02*
X3907920Y-24695674D01*
X3907920Y-24695674D02*
X3917443Y-24657579D01*
X3917443Y-24657579D02*
X3926967Y-24638531D01*
X3926967Y-24638531D02*
X3936491Y-24629008D01*
X3936491Y-24629008D02*
X3955539Y-24619484D01*
X4107920Y-24819484D02*
X4107920Y-24686150D01*
X4107920Y-24705198D02*
X4117443Y-24695674D01*
X4117443Y-24695674D02*
X4136491Y-24686150D01*
X4136491Y-24686150D02*
X4165063Y-24686150D01*
X4165063Y-24686150D02*
X4184110Y-24695674D01*
X4184110Y-24695674D02*
X4193634Y-24714722D01*
X4193634Y-24714722D02*
X4193634Y-24819484D01*
X4193634Y-24714722D02*
X4203158Y-24695674D01*
X4203158Y-24695674D02*
X4222205Y-24686150D01*
X4222205Y-24686150D02*
X4250777Y-24686150D01*
X4250777Y-24686150D02*
X4269825Y-24695674D01*
X4269825Y-24695674D02*
X4279348Y-24714722D01*
X4279348Y-24714722D02*
X4279348Y-24819484D01*
X4374586Y-24819484D02*
X4374586Y-24686150D01*
X4374586Y-24705198D02*
X4384110Y-24695674D01*
X4384110Y-24695674D02*
X4403158Y-24686150D01*
X4403158Y-24686150D02*
X4431729Y-24686150D01*
X4431729Y-24686150D02*
X4450777Y-24695674D01*
X4450777Y-24695674D02*
X4460301Y-24714722D01*
X4460301Y-24714722D02*
X4460301Y-24819484D01*
X4460301Y-24714722D02*
X4469825Y-24695674D01*
X4469825Y-24695674D02*
X4488872Y-24686150D01*
X4488872Y-24686150D02*
X4517444Y-24686150D01*
X4517444Y-24686150D02*
X4536491Y-24695674D01*
X4536491Y-24695674D02*
X4546015Y-24714722D01*
X4546015Y-24714722D02*
X4546015Y-24819484D01*
X4936491Y-24609960D02*
X4765063Y-24867103D01*
X5193634Y-24619484D02*
X5212682Y-24619484D01*
X5212682Y-24619484D02*
X5231729Y-24629008D01*
X5231729Y-24629008D02*
X5241253Y-24638531D01*
X5241253Y-24638531D02*
X5250777Y-24657579D01*
X5250777Y-24657579D02*
X5260301Y-24695674D01*
X5260301Y-24695674D02*
X5260301Y-24743293D01*
X5260301Y-24743293D02*
X5250777Y-24781388D01*
X5250777Y-24781388D02*
X5241253Y-24800436D01*
X5241253Y-24800436D02*
X5231729Y-24809960D01*
X5231729Y-24809960D02*
X5212682Y-24819484D01*
X5212682Y-24819484D02*
X5193634Y-24819484D01*
X5193634Y-24819484D02*
X5174587Y-24809960D01*
X5174587Y-24809960D02*
X5165063Y-24800436D01*
X5165063Y-24800436D02*
X5155539Y-24781388D01*
X5155539Y-24781388D02*
X5146015Y-24743293D01*
X5146015Y-24743293D02*
X5146015Y-24695674D01*
X5146015Y-24695674D02*
X5155539Y-24657579D01*
X5155539Y-24657579D02*
X5165063Y-24638531D01*
X5165063Y-24638531D02*
X5174587Y-24629008D01*
X5174587Y-24629008D02*
X5193634Y-24619484D01*
X5346015Y-24800436D02*
X5355539Y-24809960D01*
X5355539Y-24809960D02*
X5346015Y-24819484D01*
X5346015Y-24819484D02*
X5336491Y-24809960D01*
X5336491Y-24809960D02*
X5346015Y-24800436D01*
X5346015Y-24800436D02*
X5346015Y-24819484D01*
X5479348Y-24619484D02*
X5498396Y-24619484D01*
X5498396Y-24619484D02*
X5517444Y-24629008D01*
X5517444Y-24629008D02*
X5526968Y-24638531D01*
X5526968Y-24638531D02*
X5536491Y-24657579D01*
X5536491Y-24657579D02*
X5546015Y-24695674D01*
X5546015Y-24695674D02*
X5546015Y-24743293D01*
X5546015Y-24743293D02*
X5536491Y-24781388D01*
X5536491Y-24781388D02*
X5526968Y-24800436D01*
X5526968Y-24800436D02*
X5517444Y-24809960D01*
X5517444Y-24809960D02*
X5498396Y-24819484D01*
X5498396Y-24819484D02*
X5479348Y-24819484D01*
X5479348Y-24819484D02*
X5460301Y-24809960D01*
X5460301Y-24809960D02*
X5450777Y-24800436D01*
X5450777Y-24800436D02*
X5441253Y-24781388D01*
X5441253Y-24781388D02*
X5431729Y-24743293D01*
X5431729Y-24743293D02*
X5431729Y-24695674D01*
X5431729Y-24695674D02*
X5441253Y-24657579D01*
X5441253Y-24657579D02*
X5450777Y-24638531D01*
X5450777Y-24638531D02*
X5460301Y-24629008D01*
X5460301Y-24629008D02*
X5479348Y-24619484D01*
X5660301Y-24705198D02*
X5641253Y-24695674D01*
X5641253Y-24695674D02*
X5631729Y-24686150D01*
X5631729Y-24686150D02*
X5622206Y-24667103D01*
X5622206Y-24667103D02*
X5622206Y-24657579D01*
X5622206Y-24657579D02*
X5631729Y-24638531D01*
X5631729Y-24638531D02*
X5641253Y-24629008D01*
X5641253Y-24629008D02*
X5660301Y-24619484D01*
X5660301Y-24619484D02*
X5698396Y-24619484D01*
X5698396Y-24619484D02*
X5717444Y-24629008D01*
X5717444Y-24629008D02*
X5726967Y-24638531D01*
X5726967Y-24638531D02*
X5736491Y-24657579D01*
X5736491Y-24657579D02*
X5736491Y-24667103D01*
X5736491Y-24667103D02*
X5726967Y-24686150D01*
X5726967Y-24686150D02*
X5717444Y-24695674D01*
X5717444Y-24695674D02*
X5698396Y-24705198D01*
X5698396Y-24705198D02*
X5660301Y-24705198D01*
X5660301Y-24705198D02*
X5641253Y-24714722D01*
X5641253Y-24714722D02*
X5631729Y-24724246D01*
X5631729Y-24724246D02*
X5622206Y-24743293D01*
X5622206Y-24743293D02*
X5622206Y-24781388D01*
X5622206Y-24781388D02*
X5631729Y-24800436D01*
X5631729Y-24800436D02*
X5641253Y-24809960D01*
X5641253Y-24809960D02*
X5660301Y-24819484D01*
X5660301Y-24819484D02*
X5698396Y-24819484D01*
X5698396Y-24819484D02*
X5717444Y-24809960D01*
X5717444Y-24809960D02*
X5726967Y-24800436D01*
X5726967Y-24800436D02*
X5736491Y-24781388D01*
X5736491Y-24781388D02*
X5736491Y-24743293D01*
X5736491Y-24743293D02*
X5726967Y-24724246D01*
X5726967Y-24724246D02*
X5717444Y-24714722D01*
X5717444Y-24714722D02*
X5698396Y-24705198D01*
X5907920Y-24619484D02*
X5869825Y-24619484D01*
X5869825Y-24619484D02*
X5850777Y-24629008D01*
X5850777Y-24629008D02*
X5841253Y-24638531D01*
X5841253Y-24638531D02*
X5822206Y-24667103D01*
X5822206Y-24667103D02*
X5812682Y-24705198D01*
X5812682Y-24705198D02*
X5812682Y-24781388D01*
X5812682Y-24781388D02*
X5822206Y-24800436D01*
X5822206Y-24800436D02*
X5831729Y-24809960D01*
X5831729Y-24809960D02*
X5850777Y-24819484D01*
X5850777Y-24819484D02*
X5888872Y-24819484D01*
X5888872Y-24819484D02*
X5907920Y-24809960D01*
X5907920Y-24809960D02*
X5917444Y-24800436D01*
X5917444Y-24800436D02*
X5926967Y-24781388D01*
X5926967Y-24781388D02*
X5926967Y-24733769D01*
X5926967Y-24733769D02*
X5917444Y-24714722D01*
X5917444Y-24714722D02*
X5907920Y-24705198D01*
X5907920Y-24705198D02*
X5888872Y-24695674D01*
X5888872Y-24695674D02*
X5850777Y-24695674D01*
X5850777Y-24695674D02*
X5831729Y-24705198D01*
X5831729Y-24705198D02*
X5822206Y-24714722D01*
X5822206Y-24714722D02*
X5812682Y-24733769D01*
X6098396Y-24619484D02*
X6060301Y-24619484D01*
X6060301Y-24619484D02*
X6041253Y-24629008D01*
X6041253Y-24629008D02*
X6031729Y-24638531D01*
X6031729Y-24638531D02*
X6012682Y-24667103D01*
X6012682Y-24667103D02*
X6003158Y-24705198D01*
X6003158Y-24705198D02*
X6003158Y-24781388D01*
X6003158Y-24781388D02*
X6012682Y-24800436D01*
X6012682Y-24800436D02*
X6022206Y-24809960D01*
X6022206Y-24809960D02*
X6041253Y-24819484D01*
X6041253Y-24819484D02*
X6079348Y-24819484D01*
X6079348Y-24819484D02*
X6098396Y-24809960D01*
X6098396Y-24809960D02*
X6107920Y-24800436D01*
X6107920Y-24800436D02*
X6117444Y-24781388D01*
X6117444Y-24781388D02*
X6117444Y-24733769D01*
X6117444Y-24733769D02*
X6107920Y-24714722D01*
X6107920Y-24714722D02*
X6098396Y-24705198D01*
X6098396Y-24705198D02*
X6079348Y-24695674D01*
X6079348Y-24695674D02*
X6041253Y-24695674D01*
X6041253Y-24695674D02*
X6022206Y-24705198D01*
X6022206Y-24705198D02*
X6012682Y-24714722D01*
X6012682Y-24714722D02*
X6003158Y-24733769D01*
X6193634Y-24619484D02*
X6193634Y-24657579D01*
X6269825Y-24619484D02*
X6269825Y-24657579D01*
X6565063Y-24895674D02*
X6555539Y-24886150D01*
X6555539Y-24886150D02*
X6536491Y-24857579D01*
X6536491Y-24857579D02*
X6526968Y-24838531D01*
X6526968Y-24838531D02*
X6517444Y-24809960D01*
X6517444Y-24809960D02*
X6507920Y-24762341D01*
X6507920Y-24762341D02*
X6507920Y-24724246D01*
X6507920Y-24724246D02*
X6517444Y-24676627D01*
X6517444Y-24676627D02*
X6526968Y-24648055D01*
X6526968Y-24648055D02*
X6536491Y-24629008D01*
X6536491Y-24629008D02*
X6555539Y-24600436D01*
X6555539Y-24600436D02*
X6565063Y-24590912D01*
X6726968Y-24619484D02*
X6688872Y-24619484D01*
X6688872Y-24619484D02*
X6669825Y-24629008D01*
X6669825Y-24629008D02*
X6660301Y-24638531D01*
X6660301Y-24638531D02*
X6641253Y-24667103D01*
X6641253Y-24667103D02*
X6631729Y-24705198D01*
X6631729Y-24705198D02*
X6631729Y-24781388D01*
X6631729Y-24781388D02*
X6641253Y-24800436D01*
X6641253Y-24800436D02*
X6650777Y-24809960D01*
X6650777Y-24809960D02*
X6669825Y-24819484D01*
X6669825Y-24819484D02*
X6707920Y-24819484D01*
X6707920Y-24819484D02*
X6726968Y-24809960D01*
X6726968Y-24809960D02*
X6736491Y-24800436D01*
X6736491Y-24800436D02*
X6746015Y-24781388D01*
X6746015Y-24781388D02*
X6746015Y-24733769D01*
X6746015Y-24733769D02*
X6736491Y-24714722D01*
X6736491Y-24714722D02*
X6726968Y-24705198D01*
X6726968Y-24705198D02*
X6707920Y-24695674D01*
X6707920Y-24695674D02*
X6669825Y-24695674D01*
X6669825Y-24695674D02*
X6650777Y-24705198D01*
X6650777Y-24705198D02*
X6641253Y-24714722D01*
X6641253Y-24714722D02*
X6631729Y-24733769D01*
X6984110Y-24819484D02*
X6984110Y-24619484D01*
X7069825Y-24819484D02*
X7069825Y-24714722D01*
X7069825Y-24714722D02*
X7060301Y-24695674D01*
X7060301Y-24695674D02*
X7041253Y-24686150D01*
X7041253Y-24686150D02*
X7012682Y-24686150D01*
X7012682Y-24686150D02*
X6993634Y-24695674D01*
X6993634Y-24695674D02*
X6984110Y-24705198D01*
X7193634Y-24819484D02*
X7174587Y-24809960D01*
X7174587Y-24809960D02*
X7165063Y-24800436D01*
X7165063Y-24800436D02*
X7155539Y-24781388D01*
X7155539Y-24781388D02*
X7155539Y-24724246D01*
X7155539Y-24724246D02*
X7165063Y-24705198D01*
X7165063Y-24705198D02*
X7174587Y-24695674D01*
X7174587Y-24695674D02*
X7193634Y-24686150D01*
X7193634Y-24686150D02*
X7222206Y-24686150D01*
X7222206Y-24686150D02*
X7241253Y-24695674D01*
X7241253Y-24695674D02*
X7250777Y-24705198D01*
X7250777Y-24705198D02*
X7260301Y-24724246D01*
X7260301Y-24724246D02*
X7260301Y-24781388D01*
X7260301Y-24781388D02*
X7250777Y-24800436D01*
X7250777Y-24800436D02*
X7241253Y-24809960D01*
X7241253Y-24809960D02*
X7222206Y-24819484D01*
X7222206Y-24819484D02*
X7193634Y-24819484D01*
X7374587Y-24819484D02*
X7355539Y-24809960D01*
X7355539Y-24809960D02*
X7346015Y-24790912D01*
X7346015Y-24790912D02*
X7346015Y-24619484D01*
X7526968Y-24809960D02*
X7507920Y-24819484D01*
X7507920Y-24819484D02*
X7469825Y-24819484D01*
X7469825Y-24819484D02*
X7450777Y-24809960D01*
X7450777Y-24809960D02*
X7441253Y-24790912D01*
X7441253Y-24790912D02*
X7441253Y-24714722D01*
X7441253Y-24714722D02*
X7450777Y-24695674D01*
X7450777Y-24695674D02*
X7469825Y-24686150D01*
X7469825Y-24686150D02*
X7507920Y-24686150D01*
X7507920Y-24686150D02*
X7526968Y-24695674D01*
X7526968Y-24695674D02*
X7536491Y-24714722D01*
X7536491Y-24714722D02*
X7536491Y-24733769D01*
X7536491Y-24733769D02*
X7441253Y-24752817D01*
X7612682Y-24809960D02*
X7631730Y-24819484D01*
X7631730Y-24819484D02*
X7669825Y-24819484D01*
X7669825Y-24819484D02*
X7688872Y-24809960D01*
X7688872Y-24809960D02*
X7698396Y-24790912D01*
X7698396Y-24790912D02*
X7698396Y-24781388D01*
X7698396Y-24781388D02*
X7688872Y-24762341D01*
X7688872Y-24762341D02*
X7669825Y-24752817D01*
X7669825Y-24752817D02*
X7641253Y-24752817D01*
X7641253Y-24752817D02*
X7622206Y-24743293D01*
X7622206Y-24743293D02*
X7612682Y-24724246D01*
X7612682Y-24724246D02*
X7612682Y-24714722D01*
X7612682Y-24714722D02*
X7622206Y-24695674D01*
X7622206Y-24695674D02*
X7641253Y-24686150D01*
X7641253Y-24686150D02*
X7669825Y-24686150D01*
X7669825Y-24686150D02*
X7688872Y-24695674D01*
X7765063Y-24895674D02*
X7774587Y-24886150D01*
X7774587Y-24886150D02*
X7793634Y-24857579D01*
X7793634Y-24857579D02*
X7803158Y-24838531D01*
X7803158Y-24838531D02*
X7812682Y-24809960D01*
X7812682Y-24809960D02*
X7822206Y-24762341D01*
X7822206Y-24762341D02*
X7822206Y-24724246D01*
X7822206Y-24724246D02*
X7812682Y-24676627D01*
X7812682Y-24676627D02*
X7803158Y-24648055D01*
X7803158Y-24648055D02*
X7793634Y-24629008D01*
X7793634Y-24629008D02*
X7774587Y-24600436D01*
X7774587Y-24600436D02*
X7765063Y-24590912D01*
M02*
