%TF.GenerationSoftware,KiCad,Pcbnew,9.0.1*%
%TF.CreationDate,2025-04-07T13:35:56-07:00*%
%TF.ProjectId,Groundstation_433_Hat,47726f75-6e64-4737-9461-74696f6e5f34,1.3*%
%TF.SameCoordinates,Original*%
%TF.FileFunction,Copper,L4,Bot*%
%TF.FilePolarity,Positive*%
%FSLAX46Y46*%
G04 Gerber Fmt 4.6, Leading zero omitted, Abs format (unit mm)*
G04 Created by KiCad (PCBNEW 9.0.1) date 2025-04-07 13:35:56*
%MOMM*%
%LPD*%
G01*
G04 APERTURE LIST*
%TA.AperFunction,ComponentPad*%
%ADD10R,1.524000X1.524000*%
%TD*%
%TA.AperFunction,ComponentPad*%
%ADD11C,1.524000*%
%TD*%
%TA.AperFunction,ComponentPad*%
%ADD12C,3.812400*%
%TD*%
%TA.AperFunction,ComponentPad*%
%ADD13C,6.000000*%
%TD*%
%TA.AperFunction,ComponentPad*%
%ADD14R,1.700000X1.700000*%
%TD*%
%TA.AperFunction,ComponentPad*%
%ADD15C,1.700000*%
%TD*%
%TA.AperFunction,ViaPad*%
%ADD16C,0.800000*%
%TD*%
%TA.AperFunction,Conductor*%
%ADD17C,0.250000*%
%TD*%
G04 APERTURE END LIST*
D10*
%TO.P,U2,1,3V3*%
%TO.N,unconnected-(U2-3V3-Pad1)_1*%
X138370000Y-64770000D03*
D11*
%TO.P,U2,2,5V*%
%TO.N,+5V*%
X138370000Y-62230000D03*
%TO.P,U2,3,GPIO2/SDA1*%
%TO.N,unconnected-(U2-GPIO2{slash}SDA1-Pad3)*%
X140910000Y-64770000D03*
%TO.P,U2,4,5V*%
%TO.N,+5V*%
X140910000Y-62230000D03*
%TO.P,U2,5,GPIO3/SCL1*%
%TO.N,unconnected-(U2-GPIO3{slash}SCL1-Pad5)*%
X143450000Y-64770000D03*
%TO.P,U2,6,GND*%
%TO.N,GND*%
X143450000Y-62230000D03*
%TO.P,U2,7,GPIO4/GPIO_GCKL*%
%TO.N,unconnected-(U2-GPIO4{slash}GPIO_GCKL-Pad7)*%
X145990000Y-64770000D03*
%TO.P,U2,8,GPIO14/TXD0*%
%TO.N,unconnected-(U2-GPIO14{slash}TXD0-Pad8)*%
X145990000Y-62230000D03*
%TO.P,U2,9,GND*%
%TO.N,GND*%
X148530000Y-64770000D03*
%TO.P,U2,10,GPIO15/RXD0*%
%TO.N,unconnected-(U2-GPIO15{slash}RXD0-Pad10)*%
X148530000Y-62230000D03*
%TO.P,U2,11,GPIO17/GPIO_GEN0*%
%TO.N,/433_hat_board/DIO0*%
X151070000Y-64770000D03*
%TO.P,U2,12,GPIO18/GPIO_GEN1*%
%TO.N,/433_hat_board/DIO5*%
X151070000Y-62230000D03*
%TO.P,U2,13,GPIO27/GPIO_GEN2*%
%TO.N,/433_hat_board/PTT_OUT*%
X153610000Y-64770000D03*
%TO.P,U2,14,GND*%
%TO.N,GND*%
X153610000Y-62230000D03*
%TO.P,U2,15,GPIO22/GPIO_GEN3*%
%TO.N,/TX_CTRL*%
X156150000Y-64770000D03*
%TO.P,U2,16,GPIO23/GPIO_GEN4*%
%TO.N,/SDR_CTRL*%
X156150000Y-62230000D03*
%TO.P,U2,17,3V3*%
%TO.N,unconnected-(U2-3V3-Pad1)*%
X158690000Y-64770000D03*
%TO.P,U2,18,GPIO24/GPIO_GEN5*%
%TO.N,/LORA_CTRL*%
X158690000Y-62230000D03*
%TO.P,U2,19,GPIO10/SPI_MOSI*%
%TO.N,/433_hat_board/MOSI*%
X161230000Y-64770000D03*
%TO.P,U2,20,GND*%
%TO.N,GND*%
X161230000Y-62230000D03*
%TO.P,U2,21,GPIO9/SPI_MISO*%
%TO.N,/433_hat_board/MISO*%
X163770000Y-64770000D03*
%TO.P,U2,22,GPIO25/GPIO_GEN6*%
%TO.N,unconnected-(U2-GPIO25{slash}GPIO_GEN6-Pad22)*%
X163770000Y-62230000D03*
%TO.P,U2,23,GPIO11/SPI_SCLK*%
%TO.N,/433_hat_board/SCK*%
X166310000Y-64770000D03*
%TO.P,U2,24,GPIO8/~{SPI_CE0}*%
%TO.N,unconnected-(U2-GPIO8{slash}~{SPI_CE0}-Pad24)*%
X166310000Y-62230000D03*
%TO.P,U2,25,GND*%
%TO.N,GND*%
X168850000Y-64770000D03*
%TO.P,U2,26,GPIO7/~{SPI_CE1}*%
%TO.N,/433_hat_board/CS*%
X168850000Y-62230000D03*
%TO.P,U2,27,ID_SD*%
%TO.N,unconnected-(U2-ID_SD-Pad27)*%
X171390000Y-64770000D03*
%TO.P,U2,28,ID_SC*%
%TO.N,unconnected-(U2-ID_SC-Pad28)*%
X171390000Y-62230000D03*
%TO.P,U2,29,GPIO5*%
%TO.N,unconnected-(U2-GPIO5-Pad29)*%
X173930000Y-64770000D03*
%TO.P,U2,30,GND*%
%TO.N,GND*%
X173930000Y-62230000D03*
%TO.P,U2,31,GPIO6*%
%TO.N,/433_hat_board/RST*%
X176470000Y-64770000D03*
%TO.P,U2,32,GPIO12*%
%TO.N,/433_hat_board/DIO1*%
X176470000Y-62230000D03*
%TO.P,U2,33,GPIO13*%
%TO.N,/433_hat_board/DIO2*%
X179010000Y-64770000D03*
%TO.P,U2,34,GND*%
%TO.N,GND*%
X179010000Y-62230000D03*
%TO.P,U2,35,GPIO19*%
%TO.N,/433_hat_board/DIO4*%
X181550000Y-64770000D03*
%TO.P,U2,36,GPIO16*%
%TO.N,/433_hat_board/DIO3*%
X181550000Y-62230000D03*
%TO.P,U2,37,GPIO26*%
%TO.N,/RX_CTRL*%
X184090000Y-64770000D03*
%TO.P,U2,38,GPIO20*%
%TO.N,/433_hat_board/enable*%
X184090000Y-62230000D03*
%TO.P,U2,39,GND*%
%TO.N,GND*%
X186630000Y-64770000D03*
%TO.P,U2,40,GPIO21*%
%TO.N,unconnected-(U2-GPIO21-Pad40)*%
X186630000Y-62230000D03*
D12*
%TO.P,U2,S1,SHIELD*%
%TO.N,GND*%
X133500000Y-63500000D03*
%TO.P,U2,S2,SHIELD*%
X191500000Y-63500000D03*
%TO.P,U2,S3,SHIELD*%
X191500000Y-112500000D03*
%TO.P,U2,S4,SHIELD*%
X133500000Y-112500000D03*
%TD*%
D13*
%TO.P,U1,4,GND*%
%TO.N,GND*%
X124518408Y-106445774D03*
X160618408Y-106345774D03*
X124518408Y-69795774D03*
X160618408Y-69695774D03*
%TD*%
D11*
%TO.P,U3,1,Vin*%
%TO.N,+5V*%
X168307575Y-80064234D03*
%TO.P,U3,2,GND*%
%TO.N,GND*%
X168307575Y-82604234D03*
%TO.P,U3,3,EN*%
%TO.N,/433_hat_board/enable*%
X168307575Y-85144234D03*
%TO.P,U3,4,DIO0*%
%TO.N,/433_hat_board/DIO0*%
X168307575Y-87684234D03*
%TO.P,U3,5,SCK*%
%TO.N,/433_hat_board/SCK*%
X168307575Y-90224234D03*
%TO.P,U3,6,MISO*%
%TO.N,/433_hat_board/MISO*%
X168307575Y-92764234D03*
%TO.P,U3,7,MOSI*%
%TO.N,/433_hat_board/MOSI*%
X168307575Y-95304234D03*
%TO.P,U3,8,CS*%
%TO.N,/433_hat_board/CS*%
X168307575Y-97844234D03*
%TO.P,U3,9,RST*%
%TO.N,/433_hat_board/RST*%
X168307575Y-100384234D03*
%TO.P,U3,10,DIO1*%
%TO.N,/433_hat_board/DIO1*%
X193694899Y-80116567D03*
%TO.P,U3,11,DIO2*%
%TO.N,/433_hat_board/DIO2*%
X193694899Y-82656567D03*
%TO.P,U3,12,DIO3*%
%TO.N,/433_hat_board/DIO3*%
X193694899Y-85196567D03*
%TO.P,U3,13,DIO4*%
%TO.N,/433_hat_board/DIO4*%
X193694899Y-87736567D03*
%TO.P,U3,14,DIO5*%
%TO.N,/433_hat_board/DIO5*%
X193694899Y-90276567D03*
%TO.P,U3,15,Antenna*%
%TO.N,Net-(U3-Antenna)*%
X190418299Y-98607767D03*
%TD*%
D14*
%TO.P,J1,1,Pin_1*%
%TO.N,/TX_CTRL*%
X103313937Y-72440000D03*
D15*
%TO.P,J1,2,Pin_2*%
%TO.N,/RX_CTRL*%
X103313937Y-74980000D03*
%TO.P,J1,3,Pin_3*%
%TO.N,GND*%
X103313937Y-77520000D03*
%TO.P,J1,4,Pin_4*%
X103313937Y-80060000D03*
%TO.P,J1,5,Pin_5*%
%TO.N,+5V*%
X103313937Y-82600000D03*
%TO.P,J1,6,Pin_6*%
%TO.N,GND*%
X103313937Y-85140000D03*
%TO.P,J1,7,Pin_7*%
%TO.N,PA_PTT*%
X103313937Y-87680000D03*
%TO.P,J1,8,Pin_8*%
%TO.N,GND*%
X103313937Y-90220000D03*
%TO.P,J1,9,Pin_9*%
%TO.N,LNA_PTT*%
X103313937Y-92760000D03*
%TO.P,J1,10,Pin_10*%
%TO.N,GND*%
X103313937Y-95300000D03*
%TO.P,J1,11,Pin_11*%
X103313937Y-97840000D03*
%TO.P,J1,12,Pin_12*%
%TO.N,/SDR_CTRL*%
X103313937Y-100380000D03*
%TO.P,J1,13,Pin_13*%
%TO.N,/LORA_CTRL*%
X103313937Y-102920000D03*
%TD*%
D16*
%TO.N,GND*%
X167853937Y-66900000D03*
%TO.N,/RX_CTRL*%
X119823937Y-91440000D03*
%TO.N,/433_hat_board/DIO5*%
X150228937Y-77750000D03*
X179728937Y-90250000D03*
%TO.N,+5V*%
X170216522Y-74444646D03*
X180478937Y-70206188D03*
X123953937Y-64400000D03*
%TO.N,/433_hat_board/DIO4*%
X192478937Y-77125000D03*
%TD*%
D17*
%TO.N,/RX_CTRL*%
X119773937Y-91440000D02*
X119823937Y-91440000D01*
X103313937Y-74980000D02*
X119773937Y-91440000D01*
%TO.N,/433_hat_board/DIO5*%
X149983000Y-77504063D02*
X149983000Y-63317000D01*
X150228937Y-77750000D02*
X149983000Y-77504063D01*
X179755504Y-90276567D02*
X179728937Y-90250000D01*
X193694899Y-90276567D02*
X179755504Y-90276567D01*
X149983000Y-63317000D02*
X151070000Y-62230000D01*
%TO.N,/433_hat_board/MISO*%
X165453937Y-89910596D02*
X165453937Y-66453937D01*
X168307575Y-92764234D02*
X165453937Y-89910596D01*
X165453937Y-66453937D02*
X163770000Y-64770000D01*
%TO.N,/433_hat_board/DIO3*%
X193694899Y-85196567D02*
X177923000Y-69424668D01*
X180463000Y-63317000D02*
X181550000Y-62230000D01*
X177923000Y-63953749D02*
X178559749Y-63317000D01*
X178559749Y-63317000D02*
X180463000Y-63317000D01*
X177923000Y-69424668D02*
X177923000Y-63953749D01*
%TO.N,/433_hat_board/enable*%
X184090000Y-62230000D02*
X183003000Y-61143000D01*
X169300251Y-63683000D02*
X169953937Y-64336686D01*
X168010937Y-61143000D02*
X167753937Y-61400000D01*
X167753937Y-61400000D02*
X167753937Y-63037188D01*
X168399749Y-63683000D02*
X169300251Y-63683000D01*
X169491522Y-83960287D02*
X169491522Y-69392145D01*
X169953937Y-68929730D02*
X169556302Y-69327365D01*
X167753937Y-63037188D02*
X168399749Y-63683000D01*
X168307575Y-85144234D02*
X169491522Y-83960287D01*
X169953937Y-64336686D02*
X169953937Y-68929730D01*
X169491522Y-69392145D02*
X169556302Y-69327365D01*
X183003000Y-61143000D02*
X168010937Y-61143000D01*
%TO.N,/433_hat_board/RST*%
X168307575Y-100384234D02*
X176470000Y-92221809D01*
X176470000Y-92221809D02*
X176470000Y-64770000D01*
%TO.N,/433_hat_board/DIO4*%
X192478937Y-68888604D02*
X192478937Y-77125000D01*
X183180000Y-66400000D02*
X189990333Y-66400000D01*
X181550000Y-64770000D02*
X183180000Y-66400000D01*
X189990333Y-66400000D02*
X192478937Y-68888604D01*
%TO.N,/433_hat_board/SCK*%
X168307575Y-90224234D02*
X165903937Y-87820596D01*
X165903937Y-87820596D02*
X165903937Y-65176063D01*
X165903937Y-65176063D02*
X166310000Y-64770000D01*
%TO.N,/433_hat_board/MOSI*%
X165003937Y-92812138D02*
X165003937Y-68543937D01*
X168307575Y-95304234D02*
X167496033Y-95304234D01*
X167496033Y-95304234D02*
X165003937Y-92812138D01*
X165003937Y-68543937D02*
X161230000Y-64770000D01*
X161230000Y-64770000D02*
X160662828Y-64770000D01*
%TO.N,/433_hat_board/DIO0*%
X167397000Y-65220251D02*
X167397000Y-64243063D01*
X167397000Y-64243063D02*
X166753937Y-63600000D01*
X166753937Y-63600000D02*
X152240000Y-63600000D01*
X166431546Y-85808205D02*
X166431546Y-66185705D01*
X168307575Y-87684234D02*
X166431546Y-85808205D01*
X166431546Y-66185705D02*
X167397000Y-65220251D01*
X152240000Y-63600000D02*
X151070000Y-64770000D01*
%TO.N,/433_hat_board/DIO2*%
X192905870Y-82679080D02*
X191510870Y-81284080D01*
X181090000Y-66850000D02*
X179010000Y-64770000D01*
X191510870Y-68556933D02*
X189803937Y-66850000D01*
X189803937Y-66850000D02*
X181090000Y-66850000D01*
X191510870Y-81284080D02*
X191510870Y-68556933D01*
%TO.N,/433_hat_board/CS*%
X172477000Y-67043063D02*
X172477000Y-64319749D01*
X172103937Y-67416126D02*
X172477000Y-67043063D01*
X172477000Y-64319749D02*
X171474251Y-63317000D01*
X169394575Y-96757234D02*
X169394575Y-89334362D01*
X169394575Y-89334362D02*
X172103937Y-86625000D01*
X172103937Y-86625000D02*
X172103937Y-67416126D01*
X168307575Y-97844234D02*
X169394575Y-96757234D01*
X169937000Y-63317000D02*
X168850000Y-62230000D01*
X171474251Y-63317000D02*
X169937000Y-63317000D01*
%TD*%
%TA.AperFunction,Conductor*%
%TO.N,GND*%
G36*
X103563937Y-97406988D02*
G01*
X103506930Y-97374075D01*
X103379763Y-97340000D01*
X103248111Y-97340000D01*
X103120944Y-97374075D01*
X103063937Y-97406988D01*
X103063937Y-95733012D01*
X103120944Y-95765925D01*
X103248111Y-95800000D01*
X103379763Y-95800000D01*
X103506930Y-95765925D01*
X103563937Y-95733012D01*
X103563937Y-97406988D01*
G37*
%TD.AperFunction*%
%TA.AperFunction,Conductor*%
G36*
X103563937Y-79626988D02*
G01*
X103506930Y-79594075D01*
X103379763Y-79560000D01*
X103248111Y-79560000D01*
X103120944Y-79594075D01*
X103063937Y-79626988D01*
X103063937Y-77953012D01*
X103120944Y-77985925D01*
X103248111Y-78020000D01*
X103379763Y-78020000D01*
X103506930Y-77985925D01*
X103563937Y-77953012D01*
X103563937Y-79626988D01*
G37*
%TD.AperFunction*%
%TA.AperFunction,Conductor*%
G36*
X167854175Y-60320185D02*
G01*
X167899930Y-60372989D01*
X167909874Y-60442147D01*
X167880849Y-60505703D01*
X167833076Y-60536700D01*
X167834114Y-60539205D01*
X167806298Y-60550726D01*
X167781334Y-60561067D01*
X167759106Y-60570274D01*
X167714650Y-60588688D01*
X167704494Y-60595475D01*
X167704386Y-60595547D01*
X167612205Y-60657140D01*
X167568642Y-60700703D01*
X167525079Y-60744267D01*
X167525076Y-60744270D01*
X167355207Y-60914139D01*
X167355204Y-60914142D01*
X167311640Y-60957705D01*
X167268077Y-61001268D01*
X167242798Y-61039103D01*
X167242796Y-61039106D01*
X167199627Y-61103710D01*
X167199621Y-61103721D01*
X167191968Y-61122197D01*
X167148126Y-61176599D01*
X167081831Y-61198661D01*
X167014132Y-61181380D01*
X167006286Y-61176315D01*
X166943666Y-61132469D01*
X166943662Y-61132466D01*
X166866249Y-61096368D01*
X166743450Y-61039106D01*
X166743447Y-61039105D01*
X166743445Y-61039104D01*
X166530070Y-60981930D01*
X166530062Y-60981929D01*
X166310002Y-60962677D01*
X166309998Y-60962677D01*
X166089937Y-60981929D01*
X166089929Y-60981930D01*
X165876554Y-61039104D01*
X165876548Y-61039107D01*
X165676340Y-61132465D01*
X165676338Y-61132466D01*
X165495377Y-61259175D01*
X165339175Y-61415377D01*
X165212466Y-61596338D01*
X165212465Y-61596340D01*
X165152382Y-61725189D01*
X165106209Y-61777628D01*
X165039016Y-61796780D01*
X164972135Y-61776564D01*
X164927618Y-61725189D01*
X164867651Y-61596590D01*
X164867534Y-61596339D01*
X164740826Y-61415380D01*
X164584620Y-61259174D01*
X164584616Y-61259171D01*
X164584615Y-61259170D01*
X164403666Y-61132468D01*
X164403662Y-61132466D01*
X164326249Y-61096368D01*
X164203450Y-61039106D01*
X164203447Y-61039105D01*
X164203445Y-61039104D01*
X163990070Y-60981930D01*
X163990062Y-60981929D01*
X163770002Y-60962677D01*
X163769998Y-60962677D01*
X163549937Y-60981929D01*
X163549929Y-60981930D01*
X163336554Y-61039104D01*
X163336548Y-61039107D01*
X163136340Y-61132465D01*
X163136338Y-61132466D01*
X162955377Y-61259175D01*
X162799175Y-61415377D01*
X162672467Y-61596337D01*
X162612105Y-61725782D01*
X162565932Y-61778221D01*
X162498738Y-61797372D01*
X162431857Y-61777156D01*
X162387341Y-61725780D01*
X162327098Y-61596589D01*
X162327097Y-61596587D01*
X162281741Y-61531811D01*
X162281740Y-61531810D01*
X161719494Y-62094056D01*
X161703381Y-62033919D01*
X161636502Y-61918080D01*
X161541920Y-61823498D01*
X161426081Y-61756619D01*
X161365942Y-61740505D01*
X161928188Y-61178259D01*
X161928187Y-61178258D01*
X161863411Y-61132901D01*
X161863405Y-61132898D01*
X161663284Y-61039580D01*
X161663270Y-61039575D01*
X161449986Y-60982426D01*
X161449976Y-60982424D01*
X161230001Y-60963179D01*
X161229999Y-60963179D01*
X161010023Y-60982424D01*
X161010013Y-60982426D01*
X160796729Y-61039575D01*
X160796720Y-61039579D01*
X160596590Y-61132901D01*
X160531811Y-61178258D01*
X161094057Y-61740504D01*
X161033919Y-61756619D01*
X160918080Y-61823498D01*
X160823498Y-61918080D01*
X160756619Y-62033919D01*
X160740504Y-62094057D01*
X160178258Y-61531811D01*
X160132901Y-61596590D01*
X160072658Y-61725781D01*
X160026485Y-61778220D01*
X159959292Y-61797372D01*
X159892411Y-61777156D01*
X159847894Y-61725781D01*
X159787651Y-61596590D01*
X159787534Y-61596339D01*
X159660826Y-61415380D01*
X159504620Y-61259174D01*
X159504616Y-61259171D01*
X159504615Y-61259170D01*
X159323666Y-61132468D01*
X159323662Y-61132466D01*
X159246249Y-61096368D01*
X159123450Y-61039106D01*
X159123447Y-61039105D01*
X159123445Y-61039104D01*
X158910070Y-60981930D01*
X158910062Y-60981929D01*
X158690002Y-60962677D01*
X158689998Y-60962677D01*
X158469937Y-60981929D01*
X158469929Y-60981930D01*
X158256554Y-61039104D01*
X158256548Y-61039107D01*
X158056340Y-61132465D01*
X158056338Y-61132466D01*
X157875377Y-61259175D01*
X157719175Y-61415377D01*
X157592466Y-61596338D01*
X157592465Y-61596340D01*
X157532382Y-61725189D01*
X157486209Y-61777628D01*
X157419016Y-61796780D01*
X157352135Y-61776564D01*
X157307618Y-61725189D01*
X157247651Y-61596590D01*
X157247534Y-61596339D01*
X157120826Y-61415380D01*
X156964620Y-61259174D01*
X156964616Y-61259171D01*
X156964615Y-61259170D01*
X156783666Y-61132468D01*
X156783662Y-61132466D01*
X156706249Y-61096368D01*
X156583450Y-61039106D01*
X156583447Y-61039105D01*
X156583445Y-61039104D01*
X156370070Y-60981930D01*
X156370062Y-60981929D01*
X156150002Y-60962677D01*
X156149998Y-60962677D01*
X155929937Y-60981929D01*
X155929929Y-60981930D01*
X155716554Y-61039104D01*
X155716548Y-61039107D01*
X155516340Y-61132465D01*
X155516338Y-61132466D01*
X155335377Y-61259175D01*
X155179175Y-61415377D01*
X155052467Y-61596337D01*
X154992105Y-61725782D01*
X154945932Y-61778221D01*
X154878738Y-61797372D01*
X154811857Y-61777156D01*
X154767341Y-61725780D01*
X154707098Y-61596589D01*
X154707097Y-61596587D01*
X154661741Y-61531811D01*
X154661740Y-61531810D01*
X154099494Y-62094056D01*
X154083381Y-62033919D01*
X154016502Y-61918080D01*
X153921920Y-61823498D01*
X153806081Y-61756619D01*
X153745942Y-61740505D01*
X154308188Y-61178259D01*
X154308187Y-61178258D01*
X154243411Y-61132901D01*
X154243405Y-61132898D01*
X154043284Y-61039580D01*
X154043270Y-61039575D01*
X153829986Y-60982426D01*
X153829976Y-60982424D01*
X153610001Y-60963179D01*
X153609999Y-60963179D01*
X153390023Y-60982424D01*
X153390013Y-60982426D01*
X153176729Y-61039575D01*
X153176720Y-61039579D01*
X152976590Y-61132901D01*
X152911811Y-61178258D01*
X153474057Y-61740504D01*
X153413919Y-61756619D01*
X153298080Y-61823498D01*
X153203498Y-61918080D01*
X153136619Y-62033919D01*
X153120504Y-62094057D01*
X152558258Y-61531811D01*
X152512901Y-61596590D01*
X152452658Y-61725781D01*
X152406485Y-61778220D01*
X152339292Y-61797372D01*
X152272411Y-61777156D01*
X152227894Y-61725781D01*
X152167651Y-61596590D01*
X152167534Y-61596339D01*
X152040826Y-61415380D01*
X151884620Y-61259174D01*
X151884616Y-61259171D01*
X151884615Y-61259170D01*
X151703666Y-61132468D01*
X151703662Y-61132466D01*
X151626249Y-61096368D01*
X151503450Y-61039106D01*
X151503447Y-61039105D01*
X151503445Y-61039104D01*
X151290070Y-60981930D01*
X151290062Y-60981929D01*
X151070002Y-60962677D01*
X151069998Y-60962677D01*
X150849937Y-60981929D01*
X150849929Y-60981930D01*
X150636554Y-61039104D01*
X150636548Y-61039107D01*
X150436340Y-61132465D01*
X150436338Y-61132466D01*
X150255377Y-61259175D01*
X150099175Y-61415377D01*
X149972466Y-61596338D01*
X149972465Y-61596340D01*
X149912382Y-61725189D01*
X149866209Y-61777628D01*
X149799016Y-61796780D01*
X149732135Y-61776564D01*
X149687618Y-61725189D01*
X149627651Y-61596590D01*
X149627534Y-61596339D01*
X149500826Y-61415380D01*
X149344620Y-61259174D01*
X149344616Y-61259171D01*
X149344615Y-61259170D01*
X149163666Y-61132468D01*
X149163662Y-61132466D01*
X149086249Y-61096368D01*
X148963450Y-61039106D01*
X148963447Y-61039105D01*
X148963445Y-61039104D01*
X148750070Y-60981930D01*
X148750062Y-60981929D01*
X148530002Y-60962677D01*
X148529998Y-60962677D01*
X148309937Y-60981929D01*
X148309929Y-60981930D01*
X148096554Y-61039104D01*
X148096548Y-61039107D01*
X147896340Y-61132465D01*
X147896338Y-61132466D01*
X147715377Y-61259175D01*
X147559175Y-61415377D01*
X147432466Y-61596338D01*
X147432465Y-61596340D01*
X147372382Y-61725189D01*
X147326209Y-61777628D01*
X147259016Y-61796780D01*
X147192135Y-61776564D01*
X147147618Y-61725189D01*
X147087651Y-61596590D01*
X147087534Y-61596339D01*
X146960826Y-61415380D01*
X146804620Y-61259174D01*
X146804616Y-61259171D01*
X146804615Y-61259170D01*
X146623666Y-61132468D01*
X146623662Y-61132466D01*
X146546249Y-61096368D01*
X146423450Y-61039106D01*
X146423447Y-61039105D01*
X146423445Y-61039104D01*
X146210070Y-60981930D01*
X146210062Y-60981929D01*
X145990002Y-60962677D01*
X145989998Y-60962677D01*
X145769937Y-60981929D01*
X145769929Y-60981930D01*
X145556554Y-61039104D01*
X145556548Y-61039107D01*
X145356340Y-61132465D01*
X145356338Y-61132466D01*
X145175377Y-61259175D01*
X145019175Y-61415377D01*
X144892467Y-61596337D01*
X144832105Y-61725782D01*
X144785932Y-61778221D01*
X144718738Y-61797372D01*
X144651857Y-61777156D01*
X144607341Y-61725780D01*
X144547098Y-61596589D01*
X144547097Y-61596587D01*
X144501741Y-61531811D01*
X144501740Y-61531810D01*
X143939494Y-62094056D01*
X143923381Y-62033919D01*
X143856502Y-61918080D01*
X143761920Y-61823498D01*
X143646081Y-61756619D01*
X143585942Y-61740505D01*
X144148188Y-61178259D01*
X144148187Y-61178258D01*
X144083411Y-61132901D01*
X144083405Y-61132898D01*
X143883284Y-61039580D01*
X143883270Y-61039575D01*
X143669986Y-60982426D01*
X143669976Y-60982424D01*
X143450001Y-60963179D01*
X143449999Y-60963179D01*
X143230023Y-60982424D01*
X143230013Y-60982426D01*
X143016729Y-61039575D01*
X143016720Y-61039579D01*
X142816590Y-61132901D01*
X142751811Y-61178258D01*
X143314057Y-61740504D01*
X143253919Y-61756619D01*
X143138080Y-61823498D01*
X143043498Y-61918080D01*
X142976619Y-62033919D01*
X142960504Y-62094057D01*
X142398258Y-61531811D01*
X142352901Y-61596590D01*
X142292658Y-61725781D01*
X142246485Y-61778220D01*
X142179292Y-61797372D01*
X142112411Y-61777156D01*
X142067894Y-61725781D01*
X142007651Y-61596590D01*
X142007534Y-61596339D01*
X141880826Y-61415380D01*
X141724620Y-61259174D01*
X141724616Y-61259171D01*
X141724615Y-61259170D01*
X141543666Y-61132468D01*
X141543662Y-61132466D01*
X141466249Y-61096368D01*
X141343450Y-61039106D01*
X141343447Y-61039105D01*
X141343445Y-61039104D01*
X141130070Y-60981930D01*
X141130062Y-60981929D01*
X140910002Y-60962677D01*
X140909998Y-60962677D01*
X140689937Y-60981929D01*
X140689929Y-60981930D01*
X140476554Y-61039104D01*
X140476548Y-61039107D01*
X140276340Y-61132465D01*
X140276338Y-61132466D01*
X140095377Y-61259175D01*
X139939175Y-61415377D01*
X139812466Y-61596338D01*
X139812465Y-61596340D01*
X139752382Y-61725189D01*
X139706209Y-61777628D01*
X139639016Y-61796780D01*
X139572135Y-61776564D01*
X139527618Y-61725189D01*
X139467651Y-61596590D01*
X139467534Y-61596339D01*
X139340826Y-61415380D01*
X139184620Y-61259174D01*
X139184616Y-61259171D01*
X139184615Y-61259170D01*
X139003666Y-61132468D01*
X139003662Y-61132466D01*
X138926249Y-61096368D01*
X138803450Y-61039106D01*
X138803447Y-61039105D01*
X138803445Y-61039104D01*
X138590070Y-60981930D01*
X138590062Y-60981929D01*
X138370002Y-60962677D01*
X138369998Y-60962677D01*
X138149937Y-60981929D01*
X138149929Y-60981930D01*
X137936554Y-61039104D01*
X137936548Y-61039107D01*
X137736340Y-61132465D01*
X137736338Y-61132466D01*
X137555377Y-61259175D01*
X137399175Y-61415377D01*
X137272466Y-61596338D01*
X137272465Y-61596340D01*
X137179107Y-61796548D01*
X137179104Y-61796554D01*
X137121930Y-62009929D01*
X137121929Y-62009937D01*
X137102677Y-62229997D01*
X137102677Y-62230002D01*
X137121929Y-62450062D01*
X137121930Y-62450070D01*
X137179104Y-62663445D01*
X137179105Y-62663447D01*
X137179106Y-62663450D01*
X137255383Y-62827028D01*
X137272466Y-62863662D01*
X137272468Y-62863666D01*
X137370367Y-63003480D01*
X137399174Y-63044620D01*
X137555380Y-63200826D01*
X137670937Y-63281740D01*
X137671202Y-63281925D01*
X137714827Y-63336502D01*
X137722021Y-63406000D01*
X137690498Y-63468355D01*
X137630269Y-63503769D01*
X137600082Y-63507500D01*
X137560131Y-63507500D01*
X137560123Y-63507501D01*
X137500516Y-63513908D01*
X137365671Y-63564202D01*
X137365664Y-63564206D01*
X137250455Y-63650452D01*
X137250452Y-63650455D01*
X137164206Y-63765664D01*
X137164202Y-63765671D01*
X137113908Y-63900517D01*
X137108010Y-63955380D01*
X137107501Y-63960123D01*
X137107500Y-63960135D01*
X137107500Y-65579870D01*
X137107501Y-65579876D01*
X137113908Y-65639483D01*
X137164202Y-65774328D01*
X137164206Y-65774335D01*
X137250452Y-65889544D01*
X137250455Y-65889547D01*
X137365664Y-65975793D01*
X137365671Y-65975797D01*
X137500517Y-66026091D01*
X137500516Y-66026091D01*
X137507444Y-66026835D01*
X137560127Y-66032500D01*
X139179872Y-66032499D01*
X139239483Y-66026091D01*
X139374331Y-65975796D01*
X139489546Y-65889546D01*
X139575796Y-65774331D01*
X139626091Y-65639483D01*
X139632500Y-65579873D01*
X139632499Y-65539920D01*
X139652182Y-65472884D01*
X139704985Y-65427128D01*
X139774143Y-65417183D01*
X139837700Y-65446206D01*
X139858073Y-65468796D01*
X139939174Y-65584620D01*
X139939175Y-65584621D01*
X140095378Y-65740824D01*
X140095384Y-65740829D01*
X140276333Y-65867531D01*
X140276335Y-65867532D01*
X140276338Y-65867534D01*
X140476550Y-65960894D01*
X140689932Y-66018070D01*
X140822307Y-66029651D01*
X140909998Y-66037323D01*
X140910000Y-66037323D01*
X140910002Y-66037323D01*
X140982605Y-66030971D01*
X141130068Y-66018070D01*
X141343450Y-65960894D01*
X141543662Y-65867534D01*
X141724620Y-65740826D01*
X141880826Y-65584620D01*
X142007534Y-65403662D01*
X142067618Y-65274811D01*
X142113790Y-65222371D01*
X142180983Y-65203219D01*
X142247865Y-65223435D01*
X142292382Y-65274811D01*
X142352464Y-65403658D01*
X142352468Y-65403666D01*
X142479170Y-65584615D01*
X142479175Y-65584621D01*
X142635378Y-65740824D01*
X142635384Y-65740829D01*
X142816333Y-65867531D01*
X142816335Y-65867532D01*
X142816338Y-65867534D01*
X143016550Y-65960894D01*
X143229932Y-66018070D01*
X143362307Y-66029651D01*
X143449998Y-66037323D01*
X143450000Y-66037323D01*
X143450002Y-66037323D01*
X143522605Y-66030971D01*
X143670068Y-66018070D01*
X143883450Y-65960894D01*
X144083662Y-65867534D01*
X144264620Y-65740826D01*
X144420826Y-65584620D01*
X144547534Y-65403662D01*
X144607618Y-65274811D01*
X144653790Y-65222371D01*
X144720983Y-65203219D01*
X144787865Y-65223435D01*
X144832382Y-65274811D01*
X144892464Y-65403658D01*
X144892468Y-65403666D01*
X145019170Y-65584615D01*
X145019175Y-65584621D01*
X145175378Y-65740824D01*
X145175384Y-65740829D01*
X145356333Y-65867531D01*
X145356335Y-65867532D01*
X145356338Y-65867534D01*
X145556550Y-65960894D01*
X145769932Y-66018070D01*
X145902307Y-66029651D01*
X145989998Y-66037323D01*
X145990000Y-66037323D01*
X145990002Y-66037323D01*
X146062605Y-66030971D01*
X146210068Y-66018070D01*
X146423450Y-65960894D01*
X146623662Y-65867534D01*
X146804620Y-65740826D01*
X146960826Y-65584620D01*
X147087534Y-65403662D01*
X147147894Y-65274218D01*
X147194066Y-65221779D01*
X147261259Y-65202627D01*
X147328141Y-65222843D01*
X147372658Y-65274219D01*
X147432898Y-65403405D01*
X147432901Y-65403411D01*
X147478258Y-65468187D01*
X147478259Y-65468188D01*
X148040504Y-64905942D01*
X148056619Y-64966081D01*
X148123498Y-65081920D01*
X148218080Y-65176502D01*
X148333919Y-65243381D01*
X148394056Y-65259494D01*
X147831810Y-65821740D01*
X147896590Y-65867099D01*
X147896592Y-65867100D01*
X148096715Y-65960419D01*
X148096729Y-65960424D01*
X148310013Y-66017573D01*
X148310023Y-66017575D01*
X148529999Y-66036821D01*
X148530001Y-66036821D01*
X148749976Y-66017575D01*
X148749986Y-66017573D01*
X148963270Y-65960424D01*
X148963284Y-65960419D01*
X149163407Y-65867100D01*
X149168103Y-65864390D01*
X149168829Y-65865648D01*
X149228575Y-65845496D01*
X149296344Y-65862502D01*
X149344160Y-65913448D01*
X149357500Y-65969398D01*
X149357500Y-77498287D01*
X149351430Y-77536605D01*
X149343263Y-77561744D01*
X149323477Y-77750000D01*
X149343263Y-77938256D01*
X149343264Y-77938259D01*
X149401755Y-78118277D01*
X149401758Y-78118284D01*
X149496404Y-78282216D01*
X149594428Y-78391082D01*
X149623066Y-78422888D01*
X149776202Y-78534148D01*
X149776207Y-78534151D01*
X149949129Y-78611142D01*
X149949134Y-78611144D01*
X150134291Y-78650500D01*
X150134292Y-78650500D01*
X150323581Y-78650500D01*
X150323583Y-78650500D01*
X150508740Y-78611144D01*
X150681667Y-78534151D01*
X150834808Y-78422888D01*
X150961470Y-78282216D01*
X151056116Y-78118284D01*
X151114611Y-77938256D01*
X151134397Y-77750000D01*
X151114611Y-77561744D01*
X151056116Y-77381716D01*
X150961470Y-77217784D01*
X150834808Y-77077112D01*
X150806448Y-77056507D01*
X150681664Y-76965846D01*
X150676041Y-76962600D01*
X150676696Y-76961464D01*
X150628823Y-76920769D01*
X150608506Y-76853918D01*
X150608500Y-76852746D01*
X150608500Y-66114977D01*
X150628185Y-66047938D01*
X150680989Y-66002183D01*
X150750147Y-65992239D01*
X150764581Y-65995200D01*
X150849932Y-66018070D01*
X150982307Y-66029651D01*
X151069998Y-66037323D01*
X151070000Y-66037323D01*
X151070002Y-66037323D01*
X151142605Y-66030971D01*
X151290068Y-66018070D01*
X151503450Y-65960894D01*
X151703662Y-65867534D01*
X151884620Y-65740826D01*
X152040826Y-65584620D01*
X152167534Y-65403662D01*
X152227618Y-65274811D01*
X152273790Y-65222371D01*
X152340983Y-65203219D01*
X152407865Y-65223435D01*
X152452382Y-65274811D01*
X152512464Y-65403658D01*
X152512468Y-65403666D01*
X152639170Y-65584615D01*
X152639175Y-65584621D01*
X152795378Y-65740824D01*
X152795384Y-65740829D01*
X152976333Y-65867531D01*
X152976335Y-65867532D01*
X152976338Y-65867534D01*
X153176550Y-65960894D01*
X153389932Y-66018070D01*
X153522307Y-66029651D01*
X153609998Y-66037323D01*
X153610000Y-66037323D01*
X153610002Y-66037323D01*
X153682605Y-66030971D01*
X153830068Y-66018070D01*
X154043450Y-65960894D01*
X154243662Y-65867534D01*
X154424620Y-65740826D01*
X154580826Y-65584620D01*
X154707534Y-65403662D01*
X154767618Y-65274811D01*
X154813790Y-65222371D01*
X154880983Y-65203219D01*
X154947865Y-65223435D01*
X154992382Y-65274811D01*
X155052464Y-65403658D01*
X155052468Y-65403666D01*
X155179170Y-65584615D01*
X155179175Y-65584621D01*
X155335378Y-65740824D01*
X155335384Y-65740829D01*
X155516333Y-65867531D01*
X155516335Y-65867532D01*
X155516338Y-65867534D01*
X155716550Y-65960894D01*
X155929932Y-66018070D01*
X156062307Y-66029651D01*
X156149998Y-66037323D01*
X156150000Y-66037323D01*
X156150002Y-66037323D01*
X156222605Y-66030971D01*
X156370068Y-66018070D01*
X156583450Y-65960894D01*
X156783662Y-65867534D01*
X156964620Y-65740826D01*
X157120826Y-65584620D01*
X157247534Y-65403662D01*
X157307618Y-65274811D01*
X157353790Y-65222371D01*
X157420983Y-65203219D01*
X157487865Y-65223435D01*
X157532382Y-65274811D01*
X157592464Y-65403658D01*
X157592468Y-65403666D01*
X157719170Y-65584615D01*
X157719175Y-65584621D01*
X157875378Y-65740824D01*
X157875384Y-65740829D01*
X158056333Y-65867531D01*
X158056335Y-65867532D01*
X158056338Y-65867534D01*
X158256550Y-65960894D01*
X158469932Y-66018070D01*
X158602307Y-66029651D01*
X158689998Y-66037323D01*
X158690000Y-66037323D01*
X158690002Y-66037323D01*
X158762605Y-66030971D01*
X158910068Y-66018070D01*
X159123450Y-65960894D01*
X159323662Y-65867534D01*
X159504620Y-65740826D01*
X159660826Y-65584620D01*
X159787534Y-65403662D01*
X159847618Y-65274811D01*
X159893790Y-65222371D01*
X159960983Y-65203219D01*
X160027865Y-65223435D01*
X160072382Y-65274811D01*
X160132464Y-65403658D01*
X160132468Y-65403666D01*
X160259170Y-65584615D01*
X160259175Y-65584621D01*
X160415378Y-65740824D01*
X160415384Y-65740829D01*
X160596333Y-65867531D01*
X160596335Y-65867532D01*
X160596338Y-65867534D01*
X160795542Y-65960424D01*
X160796827Y-65961023D01*
X160849266Y-66007195D01*
X160868418Y-66074389D01*
X160848202Y-66141270D01*
X160795037Y-66186604D01*
X160737932Y-66197235D01*
X160618409Y-66190971D01*
X160618407Y-66190971D01*
X160252054Y-66210171D01*
X159889723Y-66267558D01*
X159889721Y-66267558D01*
X159535356Y-66362510D01*
X159192872Y-66493978D01*
X158866002Y-66660528D01*
X158558332Y-66860331D01*
X158325257Y-67049070D01*
X158325257Y-67049071D01*
X159036149Y-67759963D01*
X158949917Y-67828732D01*
X158751366Y-68027283D01*
X158682597Y-68113515D01*
X157971705Y-67402623D01*
X157971704Y-67402623D01*
X157782965Y-67635698D01*
X157583162Y-67943368D01*
X157416612Y-68270238D01*
X157285144Y-68612722D01*
X157190192Y-68967087D01*
X157190192Y-68967089D01*
X157132805Y-69329420D01*
X157113605Y-69695773D01*
X157113605Y-69695774D01*
X157132805Y-70062127D01*
X157190192Y-70424458D01*
X157190192Y-70424460D01*
X157285144Y-70778825D01*
X157416612Y-71121309D01*
X157583162Y-71448180D01*
X157782961Y-71755844D01*
X157971705Y-71988922D01*
X158682596Y-71278031D01*
X158751366Y-71364265D01*
X158949917Y-71562816D01*
X159036149Y-71631584D01*
X158325258Y-72342475D01*
X158558337Y-72531220D01*
X158866001Y-72731019D01*
X159192872Y-72897569D01*
X159535356Y-73029037D01*
X159889722Y-73123989D01*
X160252054Y-73181376D01*
X160618407Y-73200577D01*
X160618409Y-73200577D01*
X160984761Y-73181376D01*
X161347092Y-73123989D01*
X161347094Y-73123989D01*
X161701459Y-73029037D01*
X162043943Y-72897569D01*
X162370814Y-72731019D01*
X162678472Y-72531224D01*
X162911556Y-72342475D01*
X162200666Y-71631585D01*
X162286899Y-71562816D01*
X162485450Y-71364265D01*
X162554219Y-71278032D01*
X163265109Y-71988922D01*
X163453858Y-71755838D01*
X163653653Y-71448180D01*
X163820203Y-71121309D01*
X163951671Y-70778825D01*
X164046623Y-70424460D01*
X164046623Y-70424458D01*
X164104010Y-70062127D01*
X164123211Y-69695774D01*
X164123211Y-69695773D01*
X164104010Y-69329420D01*
X164046623Y-68967089D01*
X164046623Y-68967087D01*
X163984895Y-68736716D01*
X163986558Y-68666866D01*
X164025720Y-68609003D01*
X164089949Y-68581499D01*
X164158851Y-68593085D01*
X164192351Y-68616941D01*
X164342118Y-68766708D01*
X164375603Y-68828031D01*
X164378437Y-68854389D01*
X164378437Y-92873749D01*
X164402472Y-92994582D01*
X164402477Y-92994599D01*
X164449622Y-93108418D01*
X164449627Y-93108427D01*
X164483851Y-93159645D01*
X164483852Y-93159647D01*
X164518078Y-93210871D01*
X164609523Y-93302316D01*
X164609545Y-93302336D01*
X167007049Y-95699840D01*
X167007078Y-95699871D01*
X167097298Y-95790091D01*
X167105058Y-95795276D01*
X167132115Y-95813354D01*
X167175607Y-95864052D01*
X167210039Y-95937892D01*
X167210043Y-95937900D01*
X167336745Y-96118849D01*
X167336750Y-96118855D01*
X167492953Y-96275058D01*
X167492959Y-96275063D01*
X167673908Y-96401765D01*
X167673910Y-96401766D01*
X167673913Y-96401768D01*
X167793323Y-96457449D01*
X167802764Y-96461852D01*
X167855203Y-96508024D01*
X167874355Y-96575218D01*
X167854139Y-96642099D01*
X167802764Y-96686616D01*
X167673915Y-96746699D01*
X167673913Y-96746700D01*
X167492952Y-96873409D01*
X167336750Y-97029611D01*
X167210041Y-97210572D01*
X167210040Y-97210574D01*
X167116682Y-97410782D01*
X167116679Y-97410788D01*
X167059505Y-97624163D01*
X167059504Y-97624171D01*
X167040252Y-97844231D01*
X167040252Y-97844236D01*
X167059504Y-98064296D01*
X167059505Y-98064304D01*
X167116679Y-98277679D01*
X167116680Y-98277681D01*
X167116681Y-98277684D01*
X167167980Y-98387696D01*
X167210041Y-98477896D01*
X167210043Y-98477900D01*
X167336745Y-98658849D01*
X167336750Y-98658855D01*
X167492953Y-98815058D01*
X167492959Y-98815063D01*
X167673908Y-98941765D01*
X167673910Y-98941766D01*
X167673913Y-98941768D01*
X167793323Y-98997449D01*
X167802764Y-99001852D01*
X167855203Y-99048024D01*
X167874355Y-99115218D01*
X167854139Y-99182099D01*
X167802764Y-99226616D01*
X167673915Y-99286699D01*
X167673913Y-99286700D01*
X167492952Y-99413409D01*
X167336750Y-99569611D01*
X167210041Y-99750572D01*
X167210040Y-99750574D01*
X167116682Y-99950782D01*
X167116679Y-99950788D01*
X167059505Y-100164163D01*
X167059504Y-100164171D01*
X167040252Y-100384231D01*
X167040252Y-100384236D01*
X167059504Y-100604296D01*
X167059505Y-100604304D01*
X167116679Y-100817679D01*
X167116680Y-100817681D01*
X167116681Y-100817684D01*
X167128796Y-100843664D01*
X167210041Y-101017896D01*
X167210043Y-101017900D01*
X167336745Y-101198849D01*
X167336750Y-101198855D01*
X167492953Y-101355058D01*
X167492959Y-101355063D01*
X167673908Y-101481765D01*
X167673910Y-101481766D01*
X167673913Y-101481768D01*
X167874125Y-101575128D01*
X168087507Y-101632304D01*
X168244698Y-101646056D01*
X168307573Y-101651557D01*
X168307575Y-101651557D01*
X168307577Y-101651557D01*
X168362592Y-101646743D01*
X168527643Y-101632304D01*
X168741025Y-101575128D01*
X168941237Y-101481768D01*
X169122195Y-101355060D01*
X169278401Y-101198854D01*
X169405109Y-101017896D01*
X169498469Y-100817684D01*
X169555645Y-100604302D01*
X169574898Y-100384234D01*
X169574527Y-100379999D01*
X169555645Y-100164171D01*
X169555645Y-100164166D01*
X169543867Y-100120210D01*
X169545530Y-100050360D01*
X169575959Y-100000438D01*
X170968633Y-98607764D01*
X189150976Y-98607764D01*
X189150976Y-98607769D01*
X189170228Y-98827829D01*
X189170229Y-98827837D01*
X189227403Y-99041212D01*
X189227404Y-99041214D01*
X189227405Y-99041217D01*
X189281252Y-99156692D01*
X189320765Y-99241429D01*
X189320767Y-99241433D01*
X189447469Y-99422382D01*
X189447474Y-99422388D01*
X189603677Y-99578591D01*
X189603683Y-99578596D01*
X189784632Y-99705298D01*
X189784634Y-99705299D01*
X189784637Y-99705301D01*
X189984849Y-99798661D01*
X190198231Y-99855837D01*
X190355422Y-99869589D01*
X190418297Y-99875090D01*
X190418299Y-99875090D01*
X190418301Y-99875090D01*
X190473316Y-99870276D01*
X190638367Y-99855837D01*
X190851749Y-99798661D01*
X191051961Y-99705301D01*
X191232919Y-99578593D01*
X191389125Y-99422387D01*
X191515833Y-99241429D01*
X191609193Y-99041217D01*
X191666369Y-98827835D01*
X191685622Y-98607767D01*
X191666369Y-98387699D01*
X191609193Y-98174317D01*
X191515833Y-97974106D01*
X191389125Y-97793147D01*
X191232919Y-97636941D01*
X191232915Y-97636938D01*
X191232914Y-97636937D01*
X191051965Y-97510235D01*
X191051961Y-97510233D01*
X191051959Y-97510232D01*
X190851749Y-97416873D01*
X190851746Y-97416872D01*
X190851744Y-97416871D01*
X190638369Y-97359697D01*
X190638361Y-97359696D01*
X190418301Y-97340444D01*
X190418297Y-97340444D01*
X190198236Y-97359696D01*
X190198228Y-97359697D01*
X189984853Y-97416871D01*
X189984847Y-97416874D01*
X189784639Y-97510232D01*
X189784637Y-97510233D01*
X189603676Y-97636942D01*
X189447474Y-97793144D01*
X189320765Y-97974105D01*
X189320764Y-97974107D01*
X189227406Y-98174315D01*
X189227403Y-98174321D01*
X189170229Y-98387696D01*
X189170228Y-98387704D01*
X189150976Y-98607764D01*
X170968633Y-98607764D01*
X176868729Y-92707669D01*
X176868733Y-92707667D01*
X176955858Y-92620542D01*
X177006891Y-92544166D01*
X177024312Y-92518095D01*
X177071463Y-92404260D01*
X177095500Y-92283416D01*
X177095500Y-92160202D01*
X177095500Y-69684808D01*
X177115185Y-69617769D01*
X177167989Y-69572014D01*
X177237147Y-69562070D01*
X177300703Y-69591095D01*
X177334059Y-69637352D01*
X177368688Y-69720954D01*
X177368689Y-69720955D01*
X177402914Y-69772175D01*
X177402915Y-69772177D01*
X177437140Y-69823399D01*
X177437141Y-69823400D01*
X177437142Y-69823401D01*
X177524267Y-69910526D01*
X192426512Y-84812771D01*
X192459997Y-84874094D01*
X192458606Y-84932544D01*
X192446830Y-84976493D01*
X192446829Y-84976500D01*
X192427576Y-85196564D01*
X192427576Y-85196569D01*
X192446828Y-85416629D01*
X192446829Y-85416637D01*
X192504003Y-85630012D01*
X192504004Y-85630014D01*
X192504005Y-85630017D01*
X192572962Y-85777896D01*
X192597365Y-85830229D01*
X192597367Y-85830233D01*
X192724069Y-86011182D01*
X192724074Y-86011188D01*
X192880277Y-86167391D01*
X192880283Y-86167396D01*
X193061232Y-86294098D01*
X193061234Y-86294099D01*
X193061237Y-86294101D01*
X193149220Y-86335128D01*
X193190088Y-86354185D01*
X193242527Y-86400357D01*
X193261679Y-86467551D01*
X193241463Y-86534432D01*
X193190088Y-86578949D01*
X193061239Y-86639032D01*
X193061237Y-86639033D01*
X192880276Y-86765742D01*
X192724074Y-86921944D01*
X192597365Y-87102905D01*
X192597364Y-87102907D01*
X192504006Y-87303115D01*
X192504003Y-87303121D01*
X192446829Y-87516496D01*
X192446828Y-87516504D01*
X192427576Y-87736564D01*
X192427576Y-87736569D01*
X192446828Y-87956629D01*
X192446829Y-87956637D01*
X192504003Y-88170012D01*
X192504004Y-88170014D01*
X192504005Y-88170017D01*
X192506745Y-88175892D01*
X192597365Y-88370229D01*
X192597367Y-88370233D01*
X192724069Y-88551182D01*
X192724074Y-88551188D01*
X192880277Y-88707391D01*
X192880283Y-88707396D01*
X193061232Y-88834098D01*
X193061234Y-88834099D01*
X193061237Y-88834101D01*
X193149220Y-88875128D01*
X193190088Y-88894185D01*
X193242527Y-88940357D01*
X193261679Y-89007551D01*
X193241463Y-89074432D01*
X193190088Y-89118949D01*
X193061239Y-89179032D01*
X193061237Y-89179033D01*
X192880276Y-89305742D01*
X192724074Y-89461944D01*
X192628675Y-89598190D01*
X192574098Y-89641815D01*
X192527100Y-89651067D01*
X180456606Y-89651067D01*
X180389567Y-89631382D01*
X180364457Y-89610040D01*
X180334808Y-89577112D01*
X180334801Y-89577106D01*
X180181671Y-89465851D01*
X180181666Y-89465848D01*
X180008744Y-89388857D01*
X180008739Y-89388855D01*
X179862938Y-89357865D01*
X179823583Y-89349500D01*
X179634291Y-89349500D01*
X179601834Y-89356398D01*
X179449134Y-89388855D01*
X179449129Y-89388857D01*
X179276207Y-89465848D01*
X179276202Y-89465851D01*
X179123066Y-89577111D01*
X178996403Y-89717785D01*
X178901758Y-89881715D01*
X178901755Y-89881722D01*
X178843264Y-90061740D01*
X178843263Y-90061744D01*
X178823477Y-90250000D01*
X178843263Y-90438256D01*
X178843264Y-90438259D01*
X178901755Y-90618277D01*
X178901758Y-90618284D01*
X178996404Y-90782216D01*
X179100277Y-90897578D01*
X179123066Y-90922888D01*
X179276202Y-91034148D01*
X179276207Y-91034151D01*
X179449129Y-91111142D01*
X179449134Y-91111144D01*
X179634291Y-91150500D01*
X179634292Y-91150500D01*
X179823581Y-91150500D01*
X179823583Y-91150500D01*
X180008740Y-91111144D01*
X180181667Y-91034151D01*
X180330870Y-90925748D01*
X180396676Y-90902269D01*
X180403755Y-90902067D01*
X192527099Y-90902067D01*
X192594138Y-90921752D01*
X192628674Y-90954943D01*
X192724073Y-91091187D01*
X192724074Y-91091188D01*
X192880277Y-91247391D01*
X192880283Y-91247396D01*
X193061232Y-91374098D01*
X193061234Y-91374099D01*
X193061237Y-91374101D01*
X193261449Y-91467461D01*
X193474831Y-91524637D01*
X193612624Y-91536692D01*
X193694897Y-91543890D01*
X193694899Y-91543890D01*
X193694901Y-91543890D01*
X193749916Y-91539076D01*
X193914967Y-91524637D01*
X194128349Y-91467461D01*
X194328561Y-91374101D01*
X194504379Y-91250991D01*
X194570582Y-91228666D01*
X194638350Y-91245676D01*
X194686163Y-91296624D01*
X194699500Y-91352568D01*
X194699500Y-112996519D01*
X194699305Y-113003472D01*
X194682916Y-113295296D01*
X194681359Y-113309114D01*
X194632984Y-113593827D01*
X194629890Y-113607384D01*
X194549939Y-113884899D01*
X194545346Y-113898024D01*
X194434830Y-114164834D01*
X194428797Y-114177362D01*
X194289100Y-114430125D01*
X194281702Y-114441899D01*
X194114584Y-114677430D01*
X194105914Y-114688302D01*
X193913475Y-114903642D01*
X193903642Y-114913475D01*
X193688302Y-115105914D01*
X193677430Y-115114584D01*
X193441899Y-115281702D01*
X193430125Y-115289100D01*
X193177362Y-115428797D01*
X193164834Y-115434830D01*
X192898024Y-115545346D01*
X192884899Y-115549939D01*
X192607384Y-115629890D01*
X192593827Y-115632984D01*
X192309114Y-115681359D01*
X192295296Y-115682916D01*
X192003472Y-115699305D01*
X191996519Y-115699500D01*
X102507427Y-115699500D01*
X102500472Y-115699305D01*
X102476999Y-115697986D01*
X102208648Y-115682910D01*
X102194831Y-115681353D01*
X101910106Y-115632972D01*
X101896550Y-115629877D01*
X101619052Y-115549928D01*
X101605927Y-115545336D01*
X101339102Y-115434811D01*
X101326574Y-115428777D01*
X101073820Y-115289083D01*
X101062047Y-115281686D01*
X100931875Y-115189325D01*
X100826504Y-115114561D01*
X100815646Y-115105901D01*
X100600296Y-114913455D01*
X100590465Y-114903624D01*
X100497903Y-114800048D01*
X100398020Y-114688280D01*
X100389353Y-114677412D01*
X100263789Y-114500452D01*
X100222231Y-114441883D01*
X100214840Y-114430121D01*
X100075127Y-114177339D01*
X100069102Y-114164827D01*
X99958577Y-113898010D01*
X99953984Y-113884886D01*
X99922111Y-113774263D01*
X99874022Y-113607357D01*
X99870935Y-113593827D01*
X99822548Y-113309097D01*
X99820993Y-113295296D01*
X99804632Y-113004118D01*
X99804437Y-112997162D01*
X99804437Y-112499994D01*
X131089043Y-112499994D01*
X131089043Y-112500005D01*
X131108052Y-112802165D01*
X131164790Y-113099586D01*
X131258348Y-113387529D01*
X131387265Y-113661492D01*
X131549491Y-113917120D01*
X131630908Y-114015536D01*
X132366829Y-113279615D01*
X132451209Y-113395753D01*
X132604247Y-113548791D01*
X132720383Y-113633168D01*
X131982126Y-114371425D01*
X132208141Y-114535635D01*
X132208145Y-114535637D01*
X132473471Y-114681502D01*
X132473472Y-114681503D01*
X132754969Y-114792955D01*
X132754972Y-114792956D01*
X133048235Y-114868252D01*
X133348605Y-114906199D01*
X133348617Y-114906200D01*
X133651383Y-114906200D01*
X133651394Y-114906199D01*
X133951764Y-114868252D01*
X134245027Y-114792956D01*
X134245030Y-114792955D01*
X134526527Y-114681503D01*
X134526535Y-114681499D01*
X134791845Y-114535644D01*
X135017871Y-114371425D01*
X135017872Y-114371425D01*
X134279616Y-113633169D01*
X134395753Y-113548791D01*
X134548791Y-113395753D01*
X134633169Y-113279616D01*
X135369090Y-114015537D01*
X135450511Y-113917115D01*
X135612734Y-113661492D01*
X135741651Y-113387529D01*
X135835209Y-113099586D01*
X135891947Y-112802165D01*
X135910957Y-112500005D01*
X135910957Y-112499994D01*
X189089043Y-112499994D01*
X189089043Y-112500005D01*
X189108052Y-112802165D01*
X189164790Y-113099586D01*
X189258348Y-113387529D01*
X189387265Y-113661492D01*
X189549491Y-113917120D01*
X189630908Y-114015536D01*
X190366829Y-113279615D01*
X190451209Y-113395753D01*
X190604247Y-113548791D01*
X190720383Y-113633168D01*
X189982126Y-114371425D01*
X190208141Y-114535635D01*
X190208145Y-114535637D01*
X190473471Y-114681502D01*
X190473472Y-114681503D01*
X190754969Y-114792955D01*
X190754972Y-114792956D01*
X191048235Y-114868252D01*
X191348605Y-114906199D01*
X191348617Y-114906200D01*
X191651383Y-114906200D01*
X191651394Y-114906199D01*
X191951764Y-114868252D01*
X192245027Y-114792956D01*
X192245030Y-114792955D01*
X192526527Y-114681503D01*
X192526535Y-114681499D01*
X192791845Y-114535644D01*
X193017871Y-114371425D01*
X193017872Y-114371425D01*
X192279616Y-113633169D01*
X192395753Y-113548791D01*
X192548791Y-113395753D01*
X192633169Y-113279616D01*
X193369090Y-114015537D01*
X193450511Y-113917115D01*
X193612734Y-113661492D01*
X193741651Y-113387529D01*
X193835209Y-113099586D01*
X193891947Y-112802165D01*
X193910957Y-112500005D01*
X193910957Y-112499994D01*
X193891947Y-112197834D01*
X193835209Y-111900413D01*
X193741651Y-111612470D01*
X193612734Y-111338507D01*
X193450508Y-111082879D01*
X193369089Y-110984461D01*
X192633168Y-111720382D01*
X192548791Y-111604247D01*
X192395753Y-111451209D01*
X192279615Y-111366830D01*
X193017872Y-110628573D01*
X192791858Y-110464364D01*
X192791854Y-110464362D01*
X192526528Y-110318497D01*
X192526527Y-110318496D01*
X192245030Y-110207044D01*
X192245027Y-110207043D01*
X191951764Y-110131747D01*
X191651394Y-110093800D01*
X191348605Y-110093800D01*
X191048235Y-110131747D01*
X190754972Y-110207043D01*
X190754969Y-110207044D01*
X190473472Y-110318496D01*
X190473471Y-110318497D01*
X190208145Y-110464362D01*
X190208133Y-110464369D01*
X189982127Y-110628571D01*
X189982126Y-110628573D01*
X190720383Y-111366830D01*
X190604247Y-111451209D01*
X190451209Y-111604247D01*
X190366830Y-111720383D01*
X189630908Y-110984461D01*
X189549491Y-111082879D01*
X189387265Y-111338507D01*
X189258348Y-111612470D01*
X189164790Y-111900413D01*
X189108052Y-112197834D01*
X189089043Y-112499994D01*
X135910957Y-112499994D01*
X135891947Y-112197834D01*
X135835209Y-111900413D01*
X135741651Y-111612470D01*
X135612734Y-111338507D01*
X135450508Y-111082879D01*
X135369089Y-110984461D01*
X134633168Y-111720382D01*
X134548791Y-111604247D01*
X134395753Y-111451209D01*
X134279615Y-111366830D01*
X135017872Y-110628573D01*
X134791858Y-110464364D01*
X134791854Y-110464362D01*
X134526528Y-110318497D01*
X134526527Y-110318496D01*
X134245030Y-110207044D01*
X134245027Y-110207043D01*
X133951764Y-110131747D01*
X133651394Y-110093800D01*
X133348605Y-110093800D01*
X133048235Y-110131747D01*
X132754972Y-110207043D01*
X132754969Y-110207044D01*
X132473472Y-110318496D01*
X132473471Y-110318497D01*
X132208145Y-110464362D01*
X132208133Y-110464369D01*
X131982127Y-110628571D01*
X131982126Y-110628573D01*
X132720383Y-111366830D01*
X132604247Y-111451209D01*
X132451209Y-111604247D01*
X132366830Y-111720383D01*
X131630908Y-110984461D01*
X131549491Y-111082879D01*
X131387265Y-111338507D01*
X131258348Y-111612470D01*
X131164790Y-111900413D01*
X131108052Y-112197834D01*
X131089043Y-112499994D01*
X99804437Y-112499994D01*
X99804437Y-106445773D01*
X121013605Y-106445773D01*
X121013605Y-106445774D01*
X121032805Y-106812127D01*
X121090192Y-107174458D01*
X121090192Y-107174460D01*
X121185144Y-107528825D01*
X121316612Y-107871309D01*
X121483162Y-108198180D01*
X121682961Y-108505844D01*
X121871705Y-108738922D01*
X122582596Y-108028031D01*
X122651366Y-108114265D01*
X122849917Y-108312816D01*
X122936149Y-108381584D01*
X122225258Y-109092475D01*
X122458337Y-109281220D01*
X122766001Y-109481019D01*
X123092872Y-109647569D01*
X123435356Y-109779037D01*
X123789722Y-109873989D01*
X124152054Y-109931376D01*
X124518407Y-109950577D01*
X124518409Y-109950577D01*
X124884761Y-109931376D01*
X125247092Y-109873989D01*
X125247094Y-109873989D01*
X125601459Y-109779037D01*
X125943943Y-109647569D01*
X126270814Y-109481019D01*
X126578472Y-109281224D01*
X126811556Y-109092475D01*
X126100666Y-108381585D01*
X126186899Y-108312816D01*
X126385450Y-108114265D01*
X126454219Y-108028032D01*
X127165109Y-108738922D01*
X127353858Y-108505838D01*
X127553653Y-108198180D01*
X127720203Y-107871309D01*
X127851671Y-107528825D01*
X127946623Y-107174460D01*
X127946623Y-107174458D01*
X128004010Y-106812127D01*
X128023211Y-106445774D01*
X128023211Y-106445773D01*
X128017970Y-106345773D01*
X157113605Y-106345773D01*
X157113605Y-106345774D01*
X157132805Y-106712127D01*
X157190192Y-107074458D01*
X157190192Y-107074460D01*
X157285144Y-107428825D01*
X157416612Y-107771309D01*
X157583162Y-108098180D01*
X157782961Y-108405844D01*
X157971705Y-108638922D01*
X158682596Y-107928031D01*
X158751366Y-108014265D01*
X158949917Y-108212816D01*
X159036149Y-108281584D01*
X158325258Y-108992475D01*
X158558337Y-109181220D01*
X158866001Y-109381019D01*
X159192872Y-109547569D01*
X159535356Y-109679037D01*
X159889722Y-109773989D01*
X160252054Y-109831376D01*
X160618407Y-109850577D01*
X160618409Y-109850577D01*
X160984761Y-109831376D01*
X161347092Y-109773989D01*
X161347094Y-109773989D01*
X161701459Y-109679037D01*
X162043943Y-109547569D01*
X162370814Y-109381019D01*
X162678472Y-109181224D01*
X162911556Y-108992475D01*
X162200666Y-108281585D01*
X162286899Y-108212816D01*
X162485450Y-108014265D01*
X162554219Y-107928032D01*
X163265109Y-108638922D01*
X163453858Y-108405838D01*
X163653653Y-108098180D01*
X163820203Y-107771309D01*
X163951671Y-107428825D01*
X164046623Y-107074460D01*
X164046623Y-107074458D01*
X164104010Y-106712127D01*
X164123211Y-106345774D01*
X164123211Y-106345773D01*
X164104010Y-105979420D01*
X164046623Y-105617089D01*
X164046623Y-105617087D01*
X163951671Y-105262722D01*
X163820203Y-104920238D01*
X163653653Y-104593368D01*
X163453854Y-104285703D01*
X163265109Y-104052624D01*
X162554218Y-104763515D01*
X162485450Y-104677283D01*
X162286899Y-104478732D01*
X162200665Y-104409962D01*
X162911557Y-103699071D01*
X162678478Y-103510327D01*
X162370814Y-103310528D01*
X162043943Y-103143978D01*
X161701459Y-103012510D01*
X161347093Y-102917558D01*
X160984761Y-102860171D01*
X160618409Y-102840971D01*
X160618407Y-102840971D01*
X160252054Y-102860171D01*
X159889723Y-102917558D01*
X159889721Y-102917558D01*
X159535356Y-103012510D01*
X159192872Y-103143978D01*
X158866002Y-103310528D01*
X158558332Y-103510331D01*
X158325257Y-103699070D01*
X158325257Y-103699071D01*
X159036149Y-104409963D01*
X158949917Y-104478732D01*
X158751366Y-104677283D01*
X158682597Y-104763515D01*
X157971705Y-104052623D01*
X157971704Y-104052623D01*
X157782965Y-104285698D01*
X157583162Y-104593368D01*
X157416612Y-104920238D01*
X157285144Y-105262722D01*
X157190192Y-105617087D01*
X157190192Y-105617089D01*
X157132805Y-105979420D01*
X157113605Y-106345773D01*
X128017970Y-106345773D01*
X128004010Y-106079420D01*
X127946623Y-105717089D01*
X127946623Y-105717087D01*
X127851671Y-105362722D01*
X127720203Y-105020238D01*
X127553653Y-104693368D01*
X127353854Y-104385703D01*
X127165109Y-104152624D01*
X126454218Y-104863515D01*
X126385450Y-104777283D01*
X126186899Y-104578732D01*
X126100665Y-104509962D01*
X126811557Y-103799071D01*
X126578478Y-103610327D01*
X126270814Y-103410528D01*
X125943943Y-103243978D01*
X125601459Y-103112510D01*
X125247093Y-103017558D01*
X124884761Y-102960171D01*
X124518409Y-102940971D01*
X124518407Y-102940971D01*
X124152054Y-102960171D01*
X123789723Y-103017558D01*
X123789721Y-103017558D01*
X123435356Y-103112510D01*
X123092872Y-103243978D01*
X122766002Y-103410528D01*
X122458332Y-103610331D01*
X122225257Y-103799070D01*
X122225257Y-103799071D01*
X122936149Y-104509963D01*
X122849917Y-104578732D01*
X122651366Y-104777283D01*
X122582597Y-104863515D01*
X121871705Y-104152623D01*
X121871704Y-104152623D01*
X121682965Y-104385698D01*
X121483162Y-104693368D01*
X121316612Y-105020238D01*
X121185144Y-105362722D01*
X121090192Y-105717087D01*
X121090192Y-105717089D01*
X121032805Y-106079420D01*
X121013605Y-106445773D01*
X99804437Y-106445773D01*
X99804437Y-74979999D01*
X101958278Y-74979999D01*
X101958278Y-74980000D01*
X101978873Y-75215403D01*
X101978875Y-75215413D01*
X102040031Y-75443655D01*
X102040033Y-75443659D01*
X102040034Y-75443663D01*
X102051917Y-75469146D01*
X102139902Y-75657830D01*
X102139904Y-75657834D01*
X102275438Y-75851395D01*
X102275443Y-75851402D01*
X102442534Y-76018493D01*
X102442540Y-76018498D01*
X102628531Y-76148730D01*
X102672156Y-76203307D01*
X102679350Y-76272805D01*
X102647827Y-76335160D01*
X102628532Y-76351880D01*
X102442859Y-76481890D01*
X102442857Y-76481891D01*
X102275828Y-76648920D01*
X102275823Y-76648926D01*
X102140337Y-76842420D01*
X102140336Y-76842422D01*
X102040507Y-77056507D01*
X102040504Y-77056513D01*
X101983301Y-77269999D01*
X101983301Y-77270000D01*
X102880925Y-77270000D01*
X102848012Y-77327007D01*
X102813937Y-77454174D01*
X102813937Y-77585826D01*
X102848012Y-77712993D01*
X102880925Y-77770000D01*
X101983301Y-77770000D01*
X102040504Y-77983486D01*
X102040507Y-77983492D01*
X102140336Y-78197578D01*
X102275831Y-78391082D01*
X102442854Y-78558105D01*
X102628968Y-78688425D01*
X102672593Y-78743003D01*
X102679785Y-78812501D01*
X102648263Y-78874856D01*
X102628968Y-78891575D01*
X102442859Y-79021890D01*
X102442857Y-79021891D01*
X102275828Y-79188920D01*
X102275823Y-79188926D01*
X102140337Y-79382420D01*
X102140336Y-79382422D01*
X102040507Y-79596507D01*
X102040504Y-79596513D01*
X101983301Y-79809999D01*
X101983301Y-79810000D01*
X102880925Y-79810000D01*
X102848012Y-79867007D01*
X102813937Y-79994174D01*
X102813937Y-80125826D01*
X102848012Y-80252993D01*
X102880925Y-80310000D01*
X101983301Y-80310000D01*
X102040504Y-80523486D01*
X102040507Y-80523492D01*
X102140336Y-80737578D01*
X102275831Y-80931082D01*
X102442854Y-81098105D01*
X102628532Y-81228119D01*
X102672156Y-81282696D01*
X102679349Y-81352195D01*
X102647827Y-81414549D01*
X102628532Y-81431269D01*
X102442531Y-81561508D01*
X102275442Y-81728597D01*
X102139902Y-81922169D01*
X102139901Y-81922171D01*
X102040035Y-82136335D01*
X102040031Y-82136344D01*
X101978875Y-82364586D01*
X101978873Y-82364596D01*
X101958278Y-82599999D01*
X101958278Y-82600000D01*
X101978873Y-82835403D01*
X101978875Y-82835413D01*
X102040031Y-83063655D01*
X102040033Y-83063659D01*
X102040034Y-83063663D01*
X102139902Y-83277830D01*
X102139904Y-83277834D01*
X102275438Y-83471395D01*
X102275443Y-83471402D01*
X102442534Y-83638493D01*
X102442540Y-83638498D01*
X102496990Y-83676624D01*
X102607638Y-83754101D01*
X102628531Y-83768730D01*
X102672156Y-83823307D01*
X102679350Y-83892805D01*
X102647827Y-83955160D01*
X102628532Y-83971880D01*
X102442859Y-84101890D01*
X102442857Y-84101891D01*
X102275828Y-84268920D01*
X102275823Y-84268926D01*
X102140337Y-84462420D01*
X102140336Y-84462422D01*
X102040507Y-84676507D01*
X102040504Y-84676513D01*
X101983301Y-84889999D01*
X101983301Y-84890000D01*
X102880925Y-84890000D01*
X102848012Y-84947007D01*
X102813937Y-85074174D01*
X102813937Y-85205826D01*
X102848012Y-85332993D01*
X102880925Y-85390000D01*
X101983301Y-85390000D01*
X102040504Y-85603486D01*
X102040507Y-85603492D01*
X102140336Y-85817578D01*
X102275831Y-86011082D01*
X102442854Y-86178105D01*
X102628532Y-86308119D01*
X102672156Y-86362696D01*
X102679349Y-86432195D01*
X102647827Y-86494549D01*
X102628532Y-86511269D01*
X102442531Y-86641508D01*
X102275442Y-86808597D01*
X102139902Y-87002169D01*
X102139901Y-87002171D01*
X102040035Y-87216335D01*
X102040031Y-87216344D01*
X101978875Y-87444586D01*
X101978873Y-87444596D01*
X101958278Y-87679999D01*
X101958278Y-87680000D01*
X101978873Y-87915403D01*
X101978875Y-87915413D01*
X102040031Y-88143655D01*
X102040033Y-88143659D01*
X102040034Y-88143663D01*
X102139902Y-88357830D01*
X102139904Y-88357834D01*
X102238648Y-88498854D01*
X102275442Y-88551401D01*
X102442536Y-88718495D01*
X102607638Y-88834101D01*
X102628531Y-88848730D01*
X102672156Y-88903307D01*
X102679350Y-88972805D01*
X102647827Y-89035160D01*
X102628532Y-89051880D01*
X102442859Y-89181890D01*
X102442857Y-89181891D01*
X102275828Y-89348920D01*
X102275823Y-89348926D01*
X102140337Y-89542420D01*
X102140336Y-89542422D01*
X102040507Y-89756507D01*
X102040504Y-89756513D01*
X101983301Y-89969999D01*
X101983301Y-89970000D01*
X102880925Y-89970000D01*
X102848012Y-90027007D01*
X102813937Y-90154174D01*
X102813937Y-90285826D01*
X102848012Y-90412993D01*
X102880925Y-90470000D01*
X101983301Y-90470000D01*
X102040504Y-90683486D01*
X102040507Y-90683492D01*
X102140336Y-90897578D01*
X102275831Y-91091082D01*
X102442854Y-91258105D01*
X102628532Y-91388119D01*
X102672156Y-91442696D01*
X102679349Y-91512195D01*
X102647827Y-91574549D01*
X102628532Y-91591269D01*
X102442531Y-91721508D01*
X102275442Y-91888597D01*
X102139902Y-92082169D01*
X102139901Y-92082171D01*
X102040035Y-92296335D01*
X102040031Y-92296344D01*
X101978875Y-92524586D01*
X101978873Y-92524596D01*
X101958278Y-92759999D01*
X101958278Y-92760000D01*
X101978873Y-92995403D01*
X101978875Y-92995413D01*
X102040031Y-93223655D01*
X102040033Y-93223659D01*
X102040034Y-93223663D01*
X102121282Y-93397900D01*
X102139902Y-93437830D01*
X102139904Y-93437834D01*
X102275438Y-93631395D01*
X102275443Y-93631402D01*
X102442534Y-93798493D01*
X102442540Y-93798498D01*
X102628531Y-93928730D01*
X102672156Y-93983307D01*
X102679350Y-94052805D01*
X102647827Y-94115160D01*
X102628532Y-94131880D01*
X102442859Y-94261890D01*
X102442857Y-94261891D01*
X102275828Y-94428920D01*
X102275823Y-94428926D01*
X102140337Y-94622420D01*
X102140336Y-94622422D01*
X102040507Y-94836507D01*
X102040504Y-94836513D01*
X101983301Y-95049999D01*
X101983301Y-95050000D01*
X102880925Y-95050000D01*
X102848012Y-95107007D01*
X102813937Y-95234174D01*
X102813937Y-95365826D01*
X102848012Y-95492993D01*
X102880925Y-95550000D01*
X101983301Y-95550000D01*
X102040504Y-95763486D01*
X102040507Y-95763492D01*
X102140336Y-95977578D01*
X102275831Y-96171082D01*
X102442854Y-96338105D01*
X102628968Y-96468425D01*
X102672593Y-96523003D01*
X102679785Y-96592501D01*
X102648263Y-96654856D01*
X102628968Y-96671575D01*
X102442859Y-96801890D01*
X102442857Y-96801891D01*
X102275828Y-96968920D01*
X102275823Y-96968926D01*
X102140337Y-97162420D01*
X102140336Y-97162422D01*
X102040507Y-97376507D01*
X102040504Y-97376513D01*
X101983301Y-97589999D01*
X101983301Y-97590000D01*
X102880925Y-97590000D01*
X102848012Y-97647007D01*
X102813937Y-97774174D01*
X102813937Y-97905826D01*
X102848012Y-98032993D01*
X102880925Y-98090000D01*
X101983301Y-98090000D01*
X102040504Y-98303486D01*
X102040507Y-98303492D01*
X102140336Y-98517578D01*
X102275831Y-98711082D01*
X102442854Y-98878105D01*
X102628532Y-99008119D01*
X102672156Y-99062696D01*
X102679349Y-99132195D01*
X102647827Y-99194549D01*
X102628532Y-99211269D01*
X102442531Y-99341508D01*
X102275442Y-99508597D01*
X102139902Y-99702169D01*
X102139901Y-99702171D01*
X102040035Y-99916335D01*
X102040031Y-99916344D01*
X101978875Y-100144586D01*
X101978873Y-100144596D01*
X101958278Y-100379999D01*
X101958278Y-100380000D01*
X101978873Y-100615403D01*
X101978875Y-100615413D01*
X102040031Y-100843655D01*
X102040033Y-100843659D01*
X102040034Y-100843663D01*
X102121282Y-101017900D01*
X102139902Y-101057830D01*
X102139904Y-101057834D01*
X102275438Y-101251395D01*
X102275443Y-101251402D01*
X102442534Y-101418493D01*
X102442540Y-101418498D01*
X102628095Y-101548425D01*
X102671720Y-101603002D01*
X102678914Y-101672500D01*
X102647391Y-101734855D01*
X102628095Y-101751575D01*
X102442534Y-101881505D01*
X102275442Y-102048597D01*
X102139902Y-102242169D01*
X102139901Y-102242171D01*
X102040035Y-102456335D01*
X102040031Y-102456344D01*
X101978875Y-102684586D01*
X101978873Y-102684596D01*
X101958278Y-102919999D01*
X101958278Y-102920000D01*
X101978873Y-103155403D01*
X101978875Y-103155413D01*
X102040031Y-103383655D01*
X102040033Y-103383659D01*
X102040034Y-103383663D01*
X102139902Y-103597830D01*
X102139904Y-103597834D01*
X102148655Y-103610331D01*
X102275442Y-103791401D01*
X102442536Y-103958495D01*
X102539321Y-104026265D01*
X102636102Y-104094032D01*
X102636104Y-104094033D01*
X102636107Y-104094035D01*
X102850274Y-104193903D01*
X103078529Y-104255063D01*
X103266855Y-104271539D01*
X103313936Y-104275659D01*
X103313937Y-104275659D01*
X103313938Y-104275659D01*
X103353171Y-104272226D01*
X103549345Y-104255063D01*
X103777600Y-104193903D01*
X103991767Y-104094035D01*
X104185338Y-103958495D01*
X104352432Y-103791401D01*
X104487972Y-103597830D01*
X104587840Y-103383663D01*
X104649000Y-103155408D01*
X104669596Y-102920000D01*
X104649000Y-102684592D01*
X104587840Y-102456337D01*
X104487972Y-102242171D01*
X104352432Y-102048599D01*
X104352431Y-102048597D01*
X104185339Y-101881506D01*
X104185333Y-101881501D01*
X103999779Y-101751575D01*
X103956154Y-101696998D01*
X103948960Y-101627500D01*
X103980483Y-101565145D01*
X103999779Y-101548425D01*
X104094979Y-101481765D01*
X104185338Y-101418495D01*
X104352432Y-101251401D01*
X104487972Y-101057830D01*
X104587840Y-100843663D01*
X104649000Y-100615408D01*
X104669596Y-100380000D01*
X104649000Y-100144592D01*
X104587840Y-99916337D01*
X104487972Y-99702171D01*
X104401445Y-99578596D01*
X104352431Y-99508597D01*
X104185339Y-99341506D01*
X104185338Y-99341505D01*
X103999342Y-99211269D01*
X103955718Y-99156692D01*
X103948525Y-99087193D01*
X103980047Y-99024839D01*
X103999342Y-99008119D01*
X104185019Y-98878105D01*
X104352042Y-98711082D01*
X104487537Y-98517578D01*
X104587366Y-98303492D01*
X104587369Y-98303486D01*
X104644573Y-98090000D01*
X103746949Y-98090000D01*
X103779862Y-98032993D01*
X103813937Y-97905826D01*
X103813937Y-97774174D01*
X103779862Y-97647007D01*
X103746949Y-97590000D01*
X104644573Y-97590000D01*
X104644572Y-97589999D01*
X104587369Y-97376513D01*
X104587366Y-97376507D01*
X104487537Y-97162422D01*
X104487536Y-97162420D01*
X104352050Y-96968926D01*
X104352045Y-96968920D01*
X104185019Y-96801894D01*
X103998905Y-96671575D01*
X103955281Y-96616998D01*
X103948088Y-96547499D01*
X103979610Y-96485145D01*
X103998905Y-96468425D01*
X104185019Y-96338105D01*
X104352042Y-96171082D01*
X104487537Y-95977578D01*
X104587366Y-95763492D01*
X104587369Y-95763486D01*
X104644573Y-95550000D01*
X103746949Y-95550000D01*
X103779862Y-95492993D01*
X103813937Y-95365826D01*
X103813937Y-95234174D01*
X103779862Y-95107007D01*
X103746949Y-95050000D01*
X104644573Y-95050000D01*
X104644572Y-95049999D01*
X104587369Y-94836513D01*
X104587366Y-94836507D01*
X104487537Y-94622422D01*
X104487536Y-94622420D01*
X104352050Y-94428926D01*
X104352045Y-94428920D01*
X104185015Y-94261890D01*
X103999342Y-94131879D01*
X103955717Y-94077302D01*
X103948525Y-94007804D01*
X103980047Y-93945449D01*
X103999343Y-93928730D01*
X104009166Y-93921852D01*
X104185338Y-93798495D01*
X104352432Y-93631401D01*
X104487972Y-93437830D01*
X104587840Y-93223663D01*
X104649000Y-92995408D01*
X104669596Y-92760000D01*
X104649000Y-92524592D01*
X104589128Y-92301144D01*
X104587842Y-92296344D01*
X104587841Y-92296343D01*
X104587840Y-92296337D01*
X104487972Y-92082171D01*
X104429762Y-91999037D01*
X104352431Y-91888597D01*
X104185339Y-91721506D01*
X104185338Y-91721505D01*
X103999342Y-91591269D01*
X103955718Y-91536692D01*
X103948525Y-91467193D01*
X103980047Y-91404839D01*
X103999342Y-91388119D01*
X104185019Y-91258105D01*
X104352042Y-91091082D01*
X104487537Y-90897578D01*
X104587366Y-90683492D01*
X104587369Y-90683486D01*
X104644573Y-90470000D01*
X103746949Y-90470000D01*
X103779862Y-90412993D01*
X103813937Y-90285826D01*
X103813937Y-90154174D01*
X103779862Y-90027007D01*
X103746949Y-89970000D01*
X104644573Y-89970000D01*
X104644572Y-89969999D01*
X104587369Y-89756513D01*
X104587366Y-89756507D01*
X104487537Y-89542422D01*
X104487536Y-89542420D01*
X104352050Y-89348926D01*
X104352045Y-89348920D01*
X104185015Y-89181890D01*
X103999342Y-89051879D01*
X103955717Y-88997302D01*
X103948525Y-88927804D01*
X103980047Y-88865449D01*
X103999343Y-88848730D01*
X104020234Y-88834102D01*
X104185338Y-88718495D01*
X104352432Y-88551401D01*
X104487972Y-88357830D01*
X104587840Y-88143663D01*
X104649000Y-87915408D01*
X104669596Y-87680000D01*
X104649000Y-87444592D01*
X104587840Y-87216337D01*
X104487972Y-87002171D01*
X104463563Y-86967310D01*
X104352431Y-86808597D01*
X104185339Y-86641506D01*
X104185338Y-86641505D01*
X103999342Y-86511269D01*
X103955718Y-86456692D01*
X103948525Y-86387193D01*
X103980047Y-86324839D01*
X103999342Y-86308119D01*
X104185019Y-86178105D01*
X104352042Y-86011082D01*
X104487537Y-85817578D01*
X104587366Y-85603492D01*
X104587369Y-85603486D01*
X104644573Y-85390000D01*
X103746949Y-85390000D01*
X103779862Y-85332993D01*
X103813937Y-85205826D01*
X103813937Y-85074174D01*
X103779862Y-84947007D01*
X103746949Y-84890000D01*
X104644573Y-84890000D01*
X104644572Y-84889999D01*
X104587369Y-84676513D01*
X104587366Y-84676507D01*
X104487537Y-84462422D01*
X104487536Y-84462420D01*
X104352050Y-84268926D01*
X104352045Y-84268920D01*
X104185015Y-84101890D01*
X103999342Y-83971879D01*
X103955717Y-83917302D01*
X103948525Y-83847804D01*
X103980047Y-83785449D01*
X103999343Y-83768730D01*
X104020234Y-83754102D01*
X104185338Y-83638495D01*
X104352432Y-83471401D01*
X104487972Y-83277830D01*
X104587840Y-83063663D01*
X104649000Y-82835408D01*
X104669596Y-82600000D01*
X104649000Y-82364592D01*
X104587840Y-82136337D01*
X104487972Y-81922171D01*
X104463404Y-81887083D01*
X104352431Y-81728597D01*
X104185339Y-81561506D01*
X104185338Y-81561505D01*
X103999342Y-81431269D01*
X103955718Y-81376692D01*
X103948525Y-81307193D01*
X103980047Y-81244839D01*
X103999342Y-81228119D01*
X104185019Y-81098105D01*
X104352042Y-80931082D01*
X104487537Y-80737578D01*
X104587366Y-80523492D01*
X104587369Y-80523486D01*
X104644573Y-80310000D01*
X103746949Y-80310000D01*
X103779862Y-80252993D01*
X103813937Y-80125826D01*
X103813937Y-79994174D01*
X103779862Y-79867007D01*
X103746949Y-79810000D01*
X104644573Y-79810000D01*
X104644572Y-79809999D01*
X104587369Y-79596513D01*
X104587366Y-79596507D01*
X104487537Y-79382422D01*
X104487536Y-79382420D01*
X104352050Y-79188926D01*
X104352045Y-79188920D01*
X104185019Y-79021894D01*
X103998905Y-78891575D01*
X103955281Y-78836998D01*
X103948088Y-78767499D01*
X103979610Y-78705145D01*
X103998905Y-78688425D01*
X104185019Y-78558105D01*
X104352042Y-78391082D01*
X104487537Y-78197578D01*
X104587366Y-77983492D01*
X104587369Y-77983486D01*
X104644573Y-77770000D01*
X103746949Y-77770000D01*
X103779862Y-77712993D01*
X103813937Y-77585826D01*
X103813937Y-77454174D01*
X103779862Y-77327007D01*
X103746949Y-77270000D01*
X104667985Y-77270000D01*
X104735024Y-77289685D01*
X104755666Y-77306319D01*
X118890848Y-91441501D01*
X118924333Y-91502824D01*
X118926487Y-91516215D01*
X118938263Y-91628256D01*
X118938264Y-91628259D01*
X118996755Y-91808277D01*
X118996758Y-91808284D01*
X119091404Y-91972216D01*
X119190408Y-92082171D01*
X119218066Y-92112888D01*
X119371202Y-92224148D01*
X119371207Y-92224151D01*
X119544129Y-92301142D01*
X119544134Y-92301144D01*
X119729291Y-92340500D01*
X119729292Y-92340500D01*
X119918581Y-92340500D01*
X119918583Y-92340500D01*
X120103740Y-92301144D01*
X120276667Y-92224151D01*
X120429808Y-92112888D01*
X120556470Y-91972216D01*
X120651116Y-91808284D01*
X120709611Y-91628256D01*
X120729397Y-91440000D01*
X120709611Y-91251744D01*
X120651116Y-91071716D01*
X120556470Y-90907784D01*
X120429808Y-90767112D01*
X120364964Y-90720000D01*
X120276671Y-90655851D01*
X120276666Y-90655848D01*
X120103744Y-90578857D01*
X120103739Y-90578855D01*
X119957938Y-90547865D01*
X119918583Y-90539500D01*
X119918582Y-90539500D01*
X119809389Y-90539500D01*
X119742350Y-90519815D01*
X119721708Y-90503181D01*
X104654174Y-75435647D01*
X104620689Y-75374324D01*
X104622080Y-75315872D01*
X104649000Y-75215408D01*
X104669596Y-74980000D01*
X104669321Y-74976862D01*
X104649000Y-74744596D01*
X104649000Y-74744592D01*
X104587840Y-74516337D01*
X104487972Y-74302171D01*
X104455913Y-74256386D01*
X104352433Y-74108600D01*
X104320194Y-74076361D01*
X104230504Y-73986671D01*
X104197021Y-73925351D01*
X104202005Y-73855659D01*
X104243876Y-73799725D01*
X104274852Y-73782810D01*
X104406268Y-73733796D01*
X104521483Y-73647546D01*
X104607733Y-73532331D01*
X104658028Y-73397483D01*
X104664437Y-73337873D01*
X104664436Y-71542128D01*
X104658028Y-71482517D01*
X104651220Y-71464265D01*
X104607734Y-71347671D01*
X104607730Y-71347664D01*
X104521484Y-71232455D01*
X104521481Y-71232452D01*
X104406272Y-71146206D01*
X104406265Y-71146202D01*
X104271419Y-71095908D01*
X104271420Y-71095908D01*
X104211820Y-71089501D01*
X104211818Y-71089500D01*
X104211810Y-71089500D01*
X104211801Y-71089500D01*
X102416066Y-71089500D01*
X102416060Y-71089501D01*
X102356453Y-71095908D01*
X102221608Y-71146202D01*
X102221601Y-71146206D01*
X102106392Y-71232452D01*
X102106389Y-71232455D01*
X102020143Y-71347664D01*
X102020139Y-71347671D01*
X101969845Y-71482517D01*
X101963438Y-71542116D01*
X101963438Y-71542123D01*
X101963437Y-71542135D01*
X101963437Y-73337870D01*
X101963438Y-73337876D01*
X101969845Y-73397483D01*
X102020139Y-73532328D01*
X102020143Y-73532335D01*
X102106389Y-73647544D01*
X102106392Y-73647547D01*
X102221601Y-73733793D01*
X102221608Y-73733797D01*
X102353018Y-73782810D01*
X102408952Y-73824681D01*
X102433369Y-73890145D01*
X102418517Y-73958418D01*
X102397367Y-73986673D01*
X102275440Y-74108600D01*
X102139902Y-74302169D01*
X102139901Y-74302171D01*
X102040035Y-74516335D01*
X102040031Y-74516344D01*
X101978875Y-74744586D01*
X101978873Y-74744596D01*
X101958278Y-74979999D01*
X99804437Y-74979999D01*
X99804437Y-69795773D01*
X121013605Y-69795773D01*
X121013605Y-69795774D01*
X121032805Y-70162127D01*
X121090192Y-70524458D01*
X121090192Y-70524460D01*
X121185144Y-70878825D01*
X121316612Y-71221309D01*
X121483162Y-71548180D01*
X121682961Y-71855844D01*
X121871705Y-72088922D01*
X122582596Y-71378031D01*
X122651366Y-71464265D01*
X122849917Y-71662816D01*
X122936149Y-71731584D01*
X122225258Y-72442475D01*
X122458337Y-72631220D01*
X122766001Y-72831019D01*
X123092872Y-72997569D01*
X123435356Y-73129037D01*
X123789722Y-73223989D01*
X124152054Y-73281376D01*
X124518407Y-73300577D01*
X124518409Y-73300577D01*
X124884761Y-73281376D01*
X125247092Y-73223989D01*
X125247094Y-73223989D01*
X125601459Y-73129037D01*
X125943943Y-72997569D01*
X126270814Y-72831019D01*
X126578472Y-72631224D01*
X126811556Y-72442475D01*
X126100666Y-71731585D01*
X126186899Y-71662816D01*
X126385450Y-71464265D01*
X126454219Y-71378032D01*
X127165109Y-72088922D01*
X127353858Y-71855838D01*
X127553653Y-71548180D01*
X127720203Y-71221309D01*
X127851671Y-70878825D01*
X127946623Y-70524460D01*
X127946623Y-70524458D01*
X128004010Y-70162127D01*
X128023211Y-69795774D01*
X128023211Y-69795773D01*
X128004010Y-69429420D01*
X127946623Y-69067089D01*
X127946623Y-69067087D01*
X127851671Y-68712722D01*
X127720203Y-68370238D01*
X127553653Y-68043368D01*
X127353854Y-67735703D01*
X127165109Y-67502624D01*
X126454218Y-68213515D01*
X126385450Y-68127283D01*
X126186899Y-67928732D01*
X126100665Y-67859962D01*
X126811557Y-67149071D01*
X126578478Y-66960327D01*
X126270814Y-66760528D01*
X125943943Y-66593978D01*
X125601459Y-66462510D01*
X125247093Y-66367558D01*
X124884761Y-66310171D01*
X124518409Y-66290971D01*
X124518407Y-66290971D01*
X124152054Y-66310171D01*
X123789723Y-66367558D01*
X123789721Y-66367558D01*
X123435356Y-66462510D01*
X123092872Y-66593978D01*
X122766002Y-66760528D01*
X122458332Y-66960331D01*
X122225257Y-67149070D01*
X122225257Y-67149071D01*
X122936149Y-67859963D01*
X122849917Y-67928732D01*
X122651366Y-68127283D01*
X122582597Y-68213515D01*
X121871705Y-67502623D01*
X121871704Y-67502623D01*
X121682965Y-67735698D01*
X121483162Y-68043368D01*
X121316612Y-68370238D01*
X121185144Y-68712722D01*
X121090192Y-69067087D01*
X121090192Y-69067089D01*
X121032805Y-69429420D01*
X121013605Y-69795773D01*
X99804437Y-69795773D01*
X99804437Y-64400000D01*
X123048477Y-64400000D01*
X123068263Y-64588256D01*
X123068264Y-64588259D01*
X123126755Y-64768277D01*
X123126758Y-64768284D01*
X123221404Y-64932216D01*
X123296426Y-65015536D01*
X123348066Y-65072888D01*
X123501202Y-65184148D01*
X123501207Y-65184151D01*
X123674129Y-65261142D01*
X123674134Y-65261144D01*
X123859291Y-65300500D01*
X123859292Y-65300500D01*
X124048581Y-65300500D01*
X124048583Y-65300500D01*
X124233740Y-65261144D01*
X124406667Y-65184151D01*
X124559808Y-65072888D01*
X124686470Y-64932216D01*
X124781116Y-64768284D01*
X124839611Y-64588256D01*
X124859397Y-64400000D01*
X124839611Y-64211744D01*
X124781116Y-64031716D01*
X124686470Y-63867784D01*
X124559808Y-63727112D01*
X124559807Y-63727111D01*
X124406671Y-63615851D01*
X124406666Y-63615848D01*
X124233744Y-63538857D01*
X124233739Y-63538855D01*
X124068667Y-63503769D01*
X124050907Y-63499994D01*
X131089043Y-63499994D01*
X131089043Y-63500005D01*
X131108052Y-63802165D01*
X131164790Y-64099586D01*
X131258348Y-64387529D01*
X131387265Y-64661492D01*
X131549491Y-64917120D01*
X131630908Y-65015536D01*
X132366829Y-64279615D01*
X132451209Y-64395753D01*
X132604247Y-64548791D01*
X132720383Y-64633168D01*
X131982126Y-65371425D01*
X132208141Y-65535635D01*
X132208145Y-65535637D01*
X132473471Y-65681502D01*
X132473472Y-65681503D01*
X132754969Y-65792955D01*
X132754972Y-65792956D01*
X133048235Y-65868252D01*
X133348605Y-65906199D01*
X133348617Y-65906200D01*
X133651383Y-65906200D01*
X133651394Y-65906199D01*
X133951764Y-65868252D01*
X134245027Y-65792956D01*
X134245030Y-65792955D01*
X134526527Y-65681503D01*
X134526535Y-65681499D01*
X134791845Y-65535644D01*
X135017871Y-65371425D01*
X135017872Y-65371425D01*
X134279616Y-64633169D01*
X134395753Y-64548791D01*
X134548791Y-64395753D01*
X134633169Y-64279616D01*
X135369090Y-65015537D01*
X135450511Y-64917115D01*
X135612734Y-64661492D01*
X135741651Y-64387529D01*
X135835209Y-64099586D01*
X135891947Y-63802165D01*
X135910957Y-63500005D01*
X135910957Y-63499994D01*
X135891947Y-63197834D01*
X135835209Y-62900413D01*
X135741651Y-62612470D01*
X135612734Y-62338507D01*
X135450508Y-62082879D01*
X135369089Y-61984461D01*
X134633168Y-62720382D01*
X134548791Y-62604247D01*
X134395753Y-62451209D01*
X134279615Y-62366830D01*
X135017872Y-61628573D01*
X134791858Y-61464364D01*
X134791854Y-61464362D01*
X134526528Y-61318497D01*
X134526527Y-61318496D01*
X134245030Y-61207044D01*
X134245027Y-61207043D01*
X133951764Y-61131747D01*
X133651394Y-61093800D01*
X133348605Y-61093800D01*
X133048235Y-61131747D01*
X132754972Y-61207043D01*
X132754969Y-61207044D01*
X132473472Y-61318496D01*
X132473471Y-61318497D01*
X132208145Y-61464362D01*
X132208133Y-61464369D01*
X131982127Y-61628571D01*
X131982126Y-61628573D01*
X132720383Y-62366830D01*
X132604247Y-62451209D01*
X132451209Y-62604247D01*
X132366830Y-62720383D01*
X131630908Y-61984461D01*
X131549491Y-62082879D01*
X131387265Y-62338507D01*
X131258348Y-62612470D01*
X131164790Y-62900413D01*
X131108052Y-63197834D01*
X131089043Y-63499994D01*
X124050907Y-63499994D01*
X124048583Y-63499500D01*
X123859291Y-63499500D01*
X123839207Y-63503769D01*
X123674134Y-63538855D01*
X123674129Y-63538857D01*
X123501207Y-63615848D01*
X123501202Y-63615851D01*
X123348066Y-63727111D01*
X123221403Y-63867785D01*
X123126758Y-64031715D01*
X123126755Y-64031722D01*
X123068264Y-64211740D01*
X123068263Y-64211744D01*
X123048477Y-64400000D01*
X99804437Y-64400000D01*
X99804437Y-63003480D01*
X99804632Y-62996527D01*
X99812093Y-62863666D01*
X99821021Y-62704695D01*
X99822575Y-62690898D01*
X99870953Y-62406172D01*
X99874046Y-62392620D01*
X99901628Y-62296880D01*
X99954001Y-62115091D01*
X99958581Y-62102000D01*
X100069115Y-61835151D01*
X100075132Y-61822658D01*
X100214847Y-61569865D01*
X100222222Y-61558128D01*
X100389360Y-61322572D01*
X100398015Y-61311718D01*
X100590472Y-61096361D01*
X100600293Y-61086541D01*
X100815641Y-60894097D01*
X100826490Y-60885444D01*
X101062058Y-60718302D01*
X101073797Y-60710927D01*
X101326580Y-60571222D01*
X101339094Y-60565196D01*
X101605925Y-60454673D01*
X101619027Y-60450089D01*
X101896563Y-60370135D01*
X101910090Y-60367048D01*
X102194831Y-60318671D01*
X102208627Y-60317117D01*
X102501123Y-60300694D01*
X102508063Y-60300500D01*
X102551528Y-60300501D01*
X102551531Y-60300500D01*
X167787136Y-60300500D01*
X167854175Y-60320185D01*
G37*
%TD.AperFunction*%
%TA.AperFunction,Conductor*%
G36*
X167926575Y-82654394D02*
G01*
X167952539Y-82751295D01*
X168002699Y-82838174D01*
X168073635Y-82909110D01*
X168160514Y-82959270D01*
X168257415Y-82985234D01*
X168280126Y-82985234D01*
X167609385Y-83655974D01*
X167674164Y-83701332D01*
X167803356Y-83761576D01*
X167855795Y-83807748D01*
X167874947Y-83874942D01*
X167854731Y-83941823D01*
X167803356Y-83986340D01*
X167673915Y-84046699D01*
X167673913Y-84046700D01*
X167492952Y-84173409D01*
X167336750Y-84329611D01*
X167282621Y-84406917D01*
X167228044Y-84450542D01*
X167158546Y-84457736D01*
X167096191Y-84426213D01*
X167060777Y-84365984D01*
X167057046Y-84335794D01*
X167057046Y-83411802D01*
X167076731Y-83344763D01*
X167129535Y-83299008D01*
X167198693Y-83289064D01*
X167221333Y-83299403D01*
X167255834Y-83302422D01*
X167926575Y-82631681D01*
X167926575Y-82654394D01*
G37*
%TD.AperFunction*%
%TA.AperFunction,Conductor*%
G36*
X167262249Y-80778961D02*
G01*
X167282621Y-80801551D01*
X167336745Y-80878849D01*
X167336750Y-80878855D01*
X167492953Y-81035058D01*
X167492959Y-81035063D01*
X167673908Y-81161765D01*
X167673910Y-81161766D01*
X167673913Y-81161768D01*
X167749128Y-81196841D01*
X167803356Y-81222128D01*
X167855795Y-81268300D01*
X167874947Y-81335494D01*
X167854731Y-81402375D01*
X167803356Y-81446892D01*
X167674165Y-81507135D01*
X167609386Y-81552492D01*
X168280128Y-82223234D01*
X168257415Y-82223234D01*
X168160514Y-82249198D01*
X168073635Y-82299358D01*
X168002699Y-82370294D01*
X167952539Y-82457173D01*
X167926575Y-82554074D01*
X167926575Y-82576787D01*
X167255832Y-81906044D01*
X167232167Y-81908115D01*
X167228045Y-81911411D01*
X167158546Y-81918605D01*
X167096191Y-81887083D01*
X167060777Y-81826853D01*
X167057046Y-81796663D01*
X167057046Y-80872674D01*
X167076731Y-80805635D01*
X167129535Y-80759880D01*
X167198693Y-80749936D01*
X167262249Y-80778961D01*
G37*
%TD.AperFunction*%
%TA.AperFunction,Conductor*%
G36*
X192003472Y-60300695D02*
G01*
X192295306Y-60317084D01*
X192309103Y-60318638D01*
X192593827Y-60367015D01*
X192607382Y-60370108D01*
X192746141Y-60410084D01*
X192884899Y-60450060D01*
X192898024Y-60454653D01*
X192945322Y-60474244D01*
X193164841Y-60565172D01*
X193177355Y-60571198D01*
X193377541Y-60681836D01*
X193430125Y-60710899D01*
X193441899Y-60718297D01*
X193677430Y-60885415D01*
X193688302Y-60894085D01*
X193903642Y-61086524D01*
X193913473Y-61096355D01*
X193946130Y-61132898D01*
X194105914Y-61311697D01*
X194114584Y-61322569D01*
X194281702Y-61558100D01*
X194289100Y-61569874D01*
X194428797Y-61822637D01*
X194434830Y-61835165D01*
X194545346Y-62101975D01*
X194549939Y-62115100D01*
X194629890Y-62392615D01*
X194632984Y-62406172D01*
X194681359Y-62690885D01*
X194682916Y-62704703D01*
X194699305Y-62996527D01*
X194699500Y-63003480D01*
X194699500Y-79040565D01*
X194679815Y-79107604D01*
X194627011Y-79153359D01*
X194557853Y-79163303D01*
X194504377Y-79142140D01*
X194328565Y-79019035D01*
X194328561Y-79019033D01*
X194328559Y-79019032D01*
X194128349Y-78925673D01*
X194128346Y-78925672D01*
X194128344Y-78925671D01*
X193914969Y-78868497D01*
X193914961Y-78868496D01*
X193694901Y-78849244D01*
X193694897Y-78849244D01*
X193474836Y-78868496D01*
X193474828Y-78868497D01*
X193261453Y-78925671D01*
X193261447Y-78925674D01*
X193061239Y-79019032D01*
X193061237Y-79019033D01*
X192880276Y-79145742D01*
X192724074Y-79301944D01*
X192597365Y-79482905D01*
X192597364Y-79482907D01*
X192504006Y-79683115D01*
X192504003Y-79683121D01*
X192446829Y-79896496D01*
X192446828Y-79896504D01*
X192427576Y-80116564D01*
X192427576Y-80116569D01*
X192446828Y-80336629D01*
X192446829Y-80336637D01*
X192504003Y-80550012D01*
X192504004Y-80550014D01*
X192504005Y-80550017D01*
X192572962Y-80697896D01*
X192597365Y-80750229D01*
X192597367Y-80750233D01*
X192724069Y-80931182D01*
X192724074Y-80931188D01*
X192880277Y-81087391D01*
X192880283Y-81087396D01*
X193061232Y-81214098D01*
X193061234Y-81214099D01*
X193061237Y-81214101D01*
X193149220Y-81255128D01*
X193190088Y-81274185D01*
X193242527Y-81320357D01*
X193261679Y-81387551D01*
X193241463Y-81454432D01*
X193190088Y-81498949D01*
X193061239Y-81559032D01*
X193061237Y-81559033D01*
X192916599Y-81660309D01*
X192850392Y-81682636D01*
X192782625Y-81665625D01*
X192757795Y-81646415D01*
X192172689Y-81061309D01*
X192139204Y-80999986D01*
X192136370Y-80973628D01*
X192136370Y-78125929D01*
X192156055Y-78058890D01*
X192208859Y-78013135D01*
X192278017Y-78003191D01*
X192286120Y-78004633D01*
X192384291Y-78025500D01*
X192384293Y-78025500D01*
X192573581Y-78025500D01*
X192573583Y-78025500D01*
X192758740Y-77986144D01*
X192931667Y-77909151D01*
X193084808Y-77797888D01*
X193211470Y-77657216D01*
X193306116Y-77493284D01*
X193364611Y-77313256D01*
X193384397Y-77125000D01*
X193364611Y-76936744D01*
X193306116Y-76756716D01*
X193211470Y-76592784D01*
X193136287Y-76509284D01*
X193106057Y-76446292D01*
X193104437Y-76426312D01*
X193104437Y-68956345D01*
X193104438Y-68956324D01*
X193104438Y-68826995D01*
X193081707Y-68712722D01*
X193080400Y-68706153D01*
X193033249Y-68592319D01*
X192964795Y-68489871D01*
X192964792Y-68489867D01*
X190483261Y-66008338D01*
X190483258Y-66008334D01*
X190483258Y-66008335D01*
X190476192Y-66001269D01*
X190476191Y-66001267D01*
X190389066Y-65914142D01*
X190389062Y-65914139D01*
X190389061Y-65914138D01*
X190380560Y-65908457D01*
X190335757Y-65854843D01*
X190327053Y-65785518D01*
X190357210Y-65722492D01*
X190416654Y-65685775D01*
X190486513Y-65687025D01*
X190495103Y-65690066D01*
X190754975Y-65792956D01*
X190754972Y-65792956D01*
X191048235Y-65868252D01*
X191348605Y-65906199D01*
X191348617Y-65906200D01*
X191651383Y-65906200D01*
X191651394Y-65906199D01*
X191951764Y-65868252D01*
X192245027Y-65792956D01*
X192245030Y-65792955D01*
X192526527Y-65681503D01*
X192526535Y-65681499D01*
X192791845Y-65535644D01*
X193017871Y-65371425D01*
X193017872Y-65371425D01*
X192279616Y-64633169D01*
X192395753Y-64548791D01*
X192548791Y-64395753D01*
X192633169Y-64279616D01*
X193369090Y-65015537D01*
X193450511Y-64917115D01*
X193612734Y-64661492D01*
X193741651Y-64387529D01*
X193835209Y-64099586D01*
X193891947Y-63802165D01*
X193910957Y-63500005D01*
X193910957Y-63499994D01*
X193891947Y-63197834D01*
X193835209Y-62900413D01*
X193741651Y-62612470D01*
X193612734Y-62338507D01*
X193450508Y-62082879D01*
X193369089Y-61984461D01*
X192633168Y-62720382D01*
X192548791Y-62604247D01*
X192395753Y-62451209D01*
X192279615Y-62366830D01*
X193017872Y-61628573D01*
X192791858Y-61464364D01*
X192791854Y-61464362D01*
X192526528Y-61318497D01*
X192526527Y-61318496D01*
X192245030Y-61207044D01*
X192245027Y-61207043D01*
X191951764Y-61131747D01*
X191651394Y-61093800D01*
X191348605Y-61093800D01*
X191048235Y-61131747D01*
X190754972Y-61207043D01*
X190754969Y-61207044D01*
X190473472Y-61318496D01*
X190473471Y-61318497D01*
X190208145Y-61464362D01*
X190208133Y-61464369D01*
X189982127Y-61628571D01*
X189982126Y-61628573D01*
X190720383Y-62366830D01*
X190604247Y-62451209D01*
X190451209Y-62604247D01*
X190366830Y-62720383D01*
X189630908Y-61984461D01*
X189549491Y-62082879D01*
X189387265Y-62338507D01*
X189258348Y-62612470D01*
X189164790Y-62900413D01*
X189108052Y-63197834D01*
X189089043Y-63499994D01*
X189089043Y-63500005D01*
X189108052Y-63802165D01*
X189164790Y-64099586D01*
X189258348Y-64387529D01*
X189387265Y-64661492D01*
X189549491Y-64917120D01*
X189630908Y-65015536D01*
X190366829Y-64279615D01*
X190451209Y-64395753D01*
X190604247Y-64548791D01*
X190720383Y-64633168D01*
X189982126Y-65371425D01*
X190208141Y-65535635D01*
X190208151Y-65535641D01*
X190281350Y-65575883D01*
X190330614Y-65625429D01*
X190345271Y-65693744D01*
X190320668Y-65759138D01*
X190264615Y-65800850D01*
X190194909Y-65805635D01*
X190174159Y-65799106D01*
X190172785Y-65798537D01*
X190172787Y-65798537D01*
X190152736Y-65794549D01*
X190112362Y-65786518D01*
X190051943Y-65774500D01*
X190051940Y-65774500D01*
X190051939Y-65774500D01*
X187705460Y-65774500D01*
X187638421Y-65754815D01*
X187592666Y-65702011D01*
X187582722Y-65632853D01*
X187603886Y-65579376D01*
X187727094Y-65403417D01*
X187727100Y-65403407D01*
X187820419Y-65203284D01*
X187820424Y-65203270D01*
X187877573Y-64989986D01*
X187877575Y-64989976D01*
X187896821Y-64770000D01*
X187896821Y-64769999D01*
X187877575Y-64550023D01*
X187877573Y-64550013D01*
X187820424Y-64336729D01*
X187820420Y-64336720D01*
X187727096Y-64136586D01*
X187681741Y-64071811D01*
X187681740Y-64071810D01*
X187119494Y-64634056D01*
X187103381Y-64573919D01*
X187036502Y-64458080D01*
X186941920Y-64363498D01*
X186826081Y-64296619D01*
X186765942Y-64280505D01*
X187328188Y-63718259D01*
X187328187Y-63718258D01*
X187263411Y-63672901D01*
X187263405Y-63672898D01*
X187134219Y-63612658D01*
X187081779Y-63566486D01*
X187062627Y-63499293D01*
X187082843Y-63432411D01*
X187134219Y-63387894D01*
X187181486Y-63365853D01*
X187263662Y-63327534D01*
X187444620Y-63200826D01*
X187600826Y-63044620D01*
X187727534Y-62863662D01*
X187820894Y-62663450D01*
X187878070Y-62450068D01*
X187897323Y-62230000D01*
X187878070Y-62009932D01*
X187820894Y-61796550D01*
X187727534Y-61596339D01*
X187600826Y-61415380D01*
X187444620Y-61259174D01*
X187444616Y-61259171D01*
X187444615Y-61259170D01*
X187263666Y-61132468D01*
X187263662Y-61132466D01*
X187186249Y-61096368D01*
X187063450Y-61039106D01*
X187063447Y-61039105D01*
X187063445Y-61039104D01*
X186850070Y-60981930D01*
X186850062Y-60981929D01*
X186630002Y-60962677D01*
X186629998Y-60962677D01*
X186409937Y-60981929D01*
X186409929Y-60981930D01*
X186196554Y-61039104D01*
X186196548Y-61039107D01*
X185996340Y-61132465D01*
X185996338Y-61132466D01*
X185815377Y-61259175D01*
X185659175Y-61415377D01*
X185532466Y-61596338D01*
X185532465Y-61596340D01*
X185472382Y-61725189D01*
X185426209Y-61777628D01*
X185359016Y-61796780D01*
X185292135Y-61776564D01*
X185247618Y-61725189D01*
X185187651Y-61596590D01*
X185187534Y-61596339D01*
X185060826Y-61415380D01*
X184904620Y-61259174D01*
X184904616Y-61259171D01*
X184904615Y-61259170D01*
X184723666Y-61132468D01*
X184723662Y-61132466D01*
X184646249Y-61096368D01*
X184523450Y-61039106D01*
X184523447Y-61039105D01*
X184523445Y-61039104D01*
X184310070Y-60981930D01*
X184310062Y-60981929D01*
X184090002Y-60962677D01*
X184089998Y-60962677D01*
X183943288Y-60975512D01*
X183869932Y-60981930D01*
X183869930Y-60981930D01*
X183869926Y-60981931D01*
X183825976Y-60993707D01*
X183756126Y-60992043D01*
X183706203Y-60961613D01*
X183493198Y-60748608D01*
X183493178Y-60748586D01*
X183401733Y-60657141D01*
X183350509Y-60622915D01*
X183299287Y-60588689D01*
X183299286Y-60588688D01*
X183299283Y-60588686D01*
X183299280Y-60588685D01*
X183218792Y-60555347D01*
X183179824Y-60539206D01*
X183180879Y-60536657D01*
X183132365Y-60504863D01*
X183103909Y-60441051D01*
X183114469Y-60371984D01*
X183160693Y-60319590D01*
X183226799Y-60300500D01*
X191952405Y-60300500D01*
X191996519Y-60300500D01*
X192003472Y-60300695D01*
G37*
%TD.AperFunction*%
%TA.AperFunction,Conductor*%
G36*
X168376619Y-64966081D02*
G01*
X168443498Y-65081920D01*
X168538080Y-65176502D01*
X168653919Y-65243381D01*
X168714056Y-65259494D01*
X168151810Y-65821740D01*
X168216590Y-65867099D01*
X168216592Y-65867100D01*
X168416715Y-65960419D01*
X168416729Y-65960424D01*
X168630013Y-66017573D01*
X168630023Y-66017575D01*
X168849999Y-66036821D01*
X168850001Y-66036821D01*
X169069976Y-66017575D01*
X169069982Y-66017574D01*
X169172343Y-65990146D01*
X169242192Y-65991809D01*
X169300055Y-66030971D01*
X169327560Y-66095199D01*
X169328437Y-66109921D01*
X169328437Y-68619278D01*
X169308752Y-68686317D01*
X169292122Y-68706954D01*
X169157569Y-68841508D01*
X169092792Y-68906284D01*
X169092789Y-68906287D01*
X169049226Y-68949849D01*
X169005664Y-68993411D01*
X168980495Y-69031080D01*
X168980494Y-69031081D01*
X168937212Y-69095853D01*
X168937210Y-69095858D01*
X168916689Y-69145399D01*
X168916690Y-69145400D01*
X168890058Y-69209694D01*
X168890057Y-69209700D01*
X168866022Y-69330534D01*
X168866022Y-78745232D01*
X168846337Y-78812271D01*
X168793533Y-78858026D01*
X168724375Y-78867970D01*
X168709929Y-78865007D01*
X168527648Y-78816165D01*
X168527644Y-78816164D01*
X168527643Y-78816164D01*
X168527642Y-78816163D01*
X168527637Y-78816163D01*
X168307577Y-78796911D01*
X168307573Y-78796911D01*
X168087512Y-78816163D01*
X168087504Y-78816164D01*
X167874129Y-78873338D01*
X167874123Y-78873341D01*
X167673915Y-78966699D01*
X167673913Y-78966700D01*
X167492952Y-79093409D01*
X167336750Y-79249611D01*
X167282621Y-79326917D01*
X167228044Y-79370542D01*
X167158546Y-79377736D01*
X167096191Y-79346213D01*
X167060777Y-79285984D01*
X167057046Y-79255794D01*
X167057046Y-66496156D01*
X167076731Y-66429117D01*
X167093361Y-66408479D01*
X167795729Y-65706111D01*
X167795733Y-65706109D01*
X167882858Y-65618984D01*
X167922133Y-65560205D01*
X167951312Y-65516537D01*
X167994247Y-65412881D01*
X167998463Y-65402703D01*
X168010481Y-65342280D01*
X168022500Y-65281858D01*
X168022500Y-65281857D01*
X168023689Y-65275881D01*
X168025417Y-65276224D01*
X168048448Y-65219178D01*
X168058015Y-65208431D01*
X168360504Y-64905941D01*
X168376619Y-64966081D01*
G37*
%TD.AperFunction*%
%TA.AperFunction,Conductor*%
G36*
X147327865Y-62683435D02*
G01*
X147372382Y-62734811D01*
X147432464Y-62863658D01*
X147432468Y-62863666D01*
X147559170Y-63044615D01*
X147559175Y-63044621D01*
X147715378Y-63200824D01*
X147715384Y-63200829D01*
X147896333Y-63327531D01*
X147896335Y-63327532D01*
X147896338Y-63327534D01*
X147978514Y-63365853D01*
X148025781Y-63387894D01*
X148078220Y-63434066D01*
X148097372Y-63501260D01*
X148077156Y-63568141D01*
X148025781Y-63612658D01*
X147896590Y-63672901D01*
X147831811Y-63718258D01*
X148394057Y-64280504D01*
X148333919Y-64296619D01*
X148218080Y-64363498D01*
X148123498Y-64458080D01*
X148056619Y-64573919D01*
X148040504Y-64634057D01*
X147478258Y-64071811D01*
X147432901Y-64136590D01*
X147372658Y-64265781D01*
X147326485Y-64318220D01*
X147259292Y-64337372D01*
X147192411Y-64317156D01*
X147147894Y-64265781D01*
X147117902Y-64201463D01*
X147087534Y-64136339D01*
X146992125Y-64000080D01*
X146960827Y-63955381D01*
X146887605Y-63882159D01*
X146804620Y-63799174D01*
X146804616Y-63799171D01*
X146804615Y-63799170D01*
X146623666Y-63672468D01*
X146623658Y-63672464D01*
X146494811Y-63612382D01*
X146442371Y-63566210D01*
X146423219Y-63499017D01*
X146443435Y-63432135D01*
X146494811Y-63387618D01*
X146541486Y-63365853D01*
X146623662Y-63327534D01*
X146804620Y-63200826D01*
X146960826Y-63044620D01*
X147087534Y-62863662D01*
X147147618Y-62734811D01*
X147193790Y-62682371D01*
X147260983Y-62663219D01*
X147327865Y-62683435D01*
G37*
%TD.AperFunction*%
%TA.AperFunction,Conductor*%
G36*
X185427865Y-62683435D02*
G01*
X185472382Y-62734811D01*
X185532464Y-62863658D01*
X185532468Y-62863666D01*
X185659170Y-63044615D01*
X185659175Y-63044621D01*
X185815378Y-63200824D01*
X185815384Y-63200829D01*
X185996333Y-63327531D01*
X185996335Y-63327532D01*
X185996338Y-63327534D01*
X186078514Y-63365853D01*
X186125781Y-63387894D01*
X186178220Y-63434066D01*
X186197372Y-63501260D01*
X186177156Y-63568141D01*
X186125781Y-63612658D01*
X185996590Y-63672901D01*
X185931811Y-63718258D01*
X186494057Y-64280504D01*
X186433919Y-64296619D01*
X186318080Y-64363498D01*
X186223498Y-64458080D01*
X186156619Y-64573919D01*
X186140504Y-64634057D01*
X185578258Y-64071811D01*
X185532901Y-64136590D01*
X185472658Y-64265781D01*
X185426485Y-64318220D01*
X185359292Y-64337372D01*
X185292411Y-64317156D01*
X185247894Y-64265781D01*
X185217902Y-64201463D01*
X185187534Y-64136339D01*
X185092125Y-64000080D01*
X185060827Y-63955381D01*
X184987605Y-63882159D01*
X184904620Y-63799174D01*
X184904616Y-63799171D01*
X184904615Y-63799170D01*
X184723666Y-63672468D01*
X184723658Y-63672464D01*
X184594811Y-63612382D01*
X184542371Y-63566210D01*
X184523219Y-63499017D01*
X184543435Y-63432135D01*
X184594811Y-63387618D01*
X184641486Y-63365853D01*
X184723662Y-63327534D01*
X184904620Y-63200826D01*
X185060826Y-63044620D01*
X185187534Y-62863662D01*
X185247618Y-62734811D01*
X185293790Y-62682371D01*
X185360983Y-62663219D01*
X185427865Y-62683435D01*
G37*
%TD.AperFunction*%
%TA.AperFunction,Conductor*%
G36*
X142976619Y-62426081D02*
G01*
X143043498Y-62541920D01*
X143138080Y-62636502D01*
X143253919Y-62703381D01*
X143314057Y-62719494D01*
X142751810Y-63281740D01*
X142816589Y-63327098D01*
X142945781Y-63387342D01*
X142998220Y-63433514D01*
X143017372Y-63500708D01*
X142997156Y-63567589D01*
X142945781Y-63612106D01*
X142816340Y-63672465D01*
X142816338Y-63672466D01*
X142635377Y-63799175D01*
X142479175Y-63955377D01*
X142352466Y-64136338D01*
X142352465Y-64136340D01*
X142292382Y-64265189D01*
X142246209Y-64317628D01*
X142179016Y-64336780D01*
X142112135Y-64316564D01*
X142067618Y-64265189D01*
X142007534Y-64136340D01*
X142007533Y-64136338D01*
X141880827Y-63955381D01*
X141807605Y-63882159D01*
X141724620Y-63799174D01*
X141724616Y-63799171D01*
X141724615Y-63799170D01*
X141543666Y-63672468D01*
X141543658Y-63672464D01*
X141414811Y-63612382D01*
X141362371Y-63566210D01*
X141343219Y-63499017D01*
X141363435Y-63432135D01*
X141414811Y-63387618D01*
X141461486Y-63365853D01*
X141543662Y-63327534D01*
X141724620Y-63200826D01*
X141880826Y-63044620D01*
X142007534Y-62863662D01*
X142067894Y-62734218D01*
X142114066Y-62681779D01*
X142181259Y-62662627D01*
X142248141Y-62682843D01*
X142292658Y-62734219D01*
X142352898Y-62863405D01*
X142352901Y-62863411D01*
X142398258Y-62928187D01*
X142398259Y-62928188D01*
X142960504Y-62365942D01*
X142976619Y-62426081D01*
G37*
%TD.AperFunction*%
%TA.AperFunction,Conductor*%
G36*
X144501741Y-62928188D02*
G01*
X144547094Y-62863417D01*
X144547095Y-62863416D01*
X144607340Y-62734219D01*
X144653512Y-62681780D01*
X144720706Y-62662627D01*
X144787587Y-62682842D01*
X144832105Y-62734218D01*
X144892466Y-62863662D01*
X144892468Y-62863666D01*
X145019170Y-63044615D01*
X145019175Y-63044621D01*
X145175378Y-63200824D01*
X145175384Y-63200829D01*
X145356333Y-63327531D01*
X145356335Y-63327532D01*
X145356338Y-63327534D01*
X145438514Y-63365853D01*
X145485189Y-63387618D01*
X145537628Y-63433790D01*
X145556780Y-63500984D01*
X145536564Y-63567865D01*
X145485189Y-63612382D01*
X145356340Y-63672465D01*
X145356338Y-63672466D01*
X145175377Y-63799175D01*
X145019175Y-63955377D01*
X144892466Y-64136338D01*
X144892465Y-64136340D01*
X144832382Y-64265189D01*
X144786209Y-64317628D01*
X144719016Y-64336780D01*
X144652135Y-64316564D01*
X144607618Y-64265189D01*
X144547534Y-64136340D01*
X144547533Y-64136338D01*
X144420827Y-63955381D01*
X144347605Y-63882159D01*
X144264620Y-63799174D01*
X144264616Y-63799171D01*
X144264615Y-63799170D01*
X144083666Y-63672468D01*
X144083662Y-63672466D01*
X143954218Y-63612105D01*
X143901779Y-63565932D01*
X143882627Y-63498739D01*
X143902843Y-63431858D01*
X143954219Y-63387340D01*
X144083416Y-63327095D01*
X144083417Y-63327094D01*
X144148188Y-63281741D01*
X143585942Y-62719494D01*
X143646081Y-62703381D01*
X143761920Y-62636502D01*
X143856502Y-62541920D01*
X143923381Y-62426081D01*
X143939495Y-62365942D01*
X144501741Y-62928188D01*
G37*
%TD.AperFunction*%
%TA.AperFunction,Conductor*%
G36*
X174981741Y-62928188D02*
G01*
X175027094Y-62863417D01*
X175027095Y-62863416D01*
X175087340Y-62734219D01*
X175133512Y-62681780D01*
X175200706Y-62662627D01*
X175267587Y-62682842D01*
X175312105Y-62734218D01*
X175372466Y-62863662D01*
X175372468Y-62863666D01*
X175499170Y-63044615D01*
X175499175Y-63044621D01*
X175655378Y-63200824D01*
X175655384Y-63200829D01*
X175836333Y-63327531D01*
X175836335Y-63327532D01*
X175836338Y-63327534D01*
X175918514Y-63365853D01*
X175965189Y-63387618D01*
X176017628Y-63433790D01*
X176036780Y-63500984D01*
X176016564Y-63567865D01*
X175965189Y-63612382D01*
X175836340Y-63672465D01*
X175836338Y-63672466D01*
X175655377Y-63799175D01*
X175499175Y-63955377D01*
X175372466Y-64136338D01*
X175372465Y-64136340D01*
X175312382Y-64265189D01*
X175266209Y-64317628D01*
X175199016Y-64336780D01*
X175132135Y-64316564D01*
X175087618Y-64265189D01*
X175027534Y-64136340D01*
X175027533Y-64136338D01*
X174900827Y-63955381D01*
X174827605Y-63882159D01*
X174744620Y-63799174D01*
X174744616Y-63799171D01*
X174744615Y-63799170D01*
X174563666Y-63672468D01*
X174563662Y-63672466D01*
X174434218Y-63612105D01*
X174381779Y-63565932D01*
X174362627Y-63498739D01*
X174382843Y-63431858D01*
X174434219Y-63387340D01*
X174563416Y-63327095D01*
X174563417Y-63327094D01*
X174628188Y-63281741D01*
X174065942Y-62719494D01*
X174126081Y-62703381D01*
X174241920Y-62636502D01*
X174336502Y-62541920D01*
X174403381Y-62426081D01*
X174419495Y-62365942D01*
X174981741Y-62928188D01*
G37*
%TD.AperFunction*%
%TA.AperFunction,Conductor*%
G36*
X173456619Y-62426081D02*
G01*
X173523498Y-62541920D01*
X173618080Y-62636502D01*
X173733919Y-62703381D01*
X173794057Y-62719494D01*
X173231810Y-63281740D01*
X173296589Y-63327098D01*
X173425781Y-63387342D01*
X173478220Y-63433514D01*
X173497372Y-63500708D01*
X173477156Y-63567589D01*
X173425781Y-63612106D01*
X173296340Y-63672465D01*
X173296338Y-63672466D01*
X173115380Y-63799173D01*
X173065877Y-63848675D01*
X173004553Y-63882159D01*
X172934861Y-63877173D01*
X172890516Y-63848673D01*
X172872637Y-63830794D01*
X172872606Y-63830765D01*
X172311324Y-63269483D01*
X172277839Y-63208160D01*
X172282823Y-63138468D01*
X172311323Y-63094121D01*
X172360826Y-63044620D01*
X172487534Y-62863662D01*
X172547894Y-62734218D01*
X172594066Y-62681779D01*
X172661259Y-62662627D01*
X172728141Y-62682843D01*
X172772658Y-62734219D01*
X172832898Y-62863405D01*
X172832901Y-62863411D01*
X172878258Y-62928187D01*
X172878258Y-62928188D01*
X173440504Y-62365941D01*
X173456619Y-62426081D01*
G37*
%TD.AperFunction*%
%TD*%
M02*
