%TF.GenerationSoftware,KiCad,Pcbnew,9.0.1*%
%TF.CreationDate,2025-04-07T13:35:56-07:00*%
%TF.ProjectId,Groundstation_433_Hat,47726f75-6e64-4737-9461-74696f6e5f34,1.3*%
%TF.SameCoordinates,Original*%
%TF.FileFunction,Drillmap*%
%TF.FilePolarity,Positive*%
%FSLAX45Y45*%
G04 Gerber Fmt 4.5, Leading zero omitted, Abs format (unit mm)*
G04 Created by KiCad (PCBNEW 9.0.1) date 2025-04-07 13:35:56*
%MOMM*%
%LPD*%
G01*
G04 APERTURE LIST*
%ADD10C,0.100000*%
%ADD11C,0.200000*%
G04 APERTURE END LIST*
D10*
X10250394Y-11600000D02*
G75*
G02*
X9950390Y-11300000I6J300010D01*
G01*
X9950394Y-11300000D02*
X9950394Y-6300000D01*
X19200000Y-6000000D02*
X10250394Y-6000000D01*
X19500000Y-11300000D02*
G75*
G02*
X19200000Y-11600000I-300000J0D01*
G01*
X19500000Y-6300000D02*
X19500000Y-11300000D01*
X9950394Y-6300000D02*
G75*
G02*
X10250394Y-6000004I299996J0D01*
G01*
X19200000Y-6000000D02*
G75*
G02*
X19500000Y-6300000I0J-300000D01*
G01*
X19200000Y-11600000D02*
X10250394Y-11600000D01*
D11*
X10206171Y-11916484D02*
X10206171Y-11716484D01*
X10206171Y-11716484D02*
X10253790Y-11716484D01*
X10253790Y-11716484D02*
X10282361Y-11726008D01*
X10282361Y-11726008D02*
X10301409Y-11745055D01*
X10301409Y-11745055D02*
X10310932Y-11764103D01*
X10310932Y-11764103D02*
X10320456Y-11802198D01*
X10320456Y-11802198D02*
X10320456Y-11830769D01*
X10320456Y-11830769D02*
X10310932Y-11868865D01*
X10310932Y-11868865D02*
X10301409Y-11887912D01*
X10301409Y-11887912D02*
X10282361Y-11906960D01*
X10282361Y-11906960D02*
X10253790Y-11916484D01*
X10253790Y-11916484D02*
X10206171Y-11916484D01*
X10406171Y-11916484D02*
X10406171Y-11783150D01*
X10406171Y-11821246D02*
X10415694Y-11802198D01*
X10415694Y-11802198D02*
X10425218Y-11792674D01*
X10425218Y-11792674D02*
X10444266Y-11783150D01*
X10444266Y-11783150D02*
X10463313Y-11783150D01*
X10529980Y-11916484D02*
X10529980Y-11783150D01*
X10529980Y-11716484D02*
X10520456Y-11726008D01*
X10520456Y-11726008D02*
X10529980Y-11735531D01*
X10529980Y-11735531D02*
X10539504Y-11726008D01*
X10539504Y-11726008D02*
X10529980Y-11716484D01*
X10529980Y-11716484D02*
X10529980Y-11735531D01*
X10653790Y-11916484D02*
X10634742Y-11906960D01*
X10634742Y-11906960D02*
X10625218Y-11887912D01*
X10625218Y-11887912D02*
X10625218Y-11716484D01*
X10758551Y-11916484D02*
X10739504Y-11906960D01*
X10739504Y-11906960D02*
X10729980Y-11887912D01*
X10729980Y-11887912D02*
X10729980Y-11716484D01*
X10987123Y-11916484D02*
X10987123Y-11716484D01*
X10987123Y-11716484D02*
X11053790Y-11859341D01*
X11053790Y-11859341D02*
X11120456Y-11716484D01*
X11120456Y-11716484D02*
X11120456Y-11916484D01*
X11301409Y-11916484D02*
X11301409Y-11811722D01*
X11301409Y-11811722D02*
X11291885Y-11792674D01*
X11291885Y-11792674D02*
X11272837Y-11783150D01*
X11272837Y-11783150D02*
X11234742Y-11783150D01*
X11234742Y-11783150D02*
X11215694Y-11792674D01*
X11301409Y-11906960D02*
X11282361Y-11916484D01*
X11282361Y-11916484D02*
X11234742Y-11916484D01*
X11234742Y-11916484D02*
X11215694Y-11906960D01*
X11215694Y-11906960D02*
X11206170Y-11887912D01*
X11206170Y-11887912D02*
X11206170Y-11868865D01*
X11206170Y-11868865D02*
X11215694Y-11849817D01*
X11215694Y-11849817D02*
X11234742Y-11840293D01*
X11234742Y-11840293D02*
X11282361Y-11840293D01*
X11282361Y-11840293D02*
X11301409Y-11830769D01*
X11396647Y-11783150D02*
X11396647Y-11983150D01*
X11396647Y-11792674D02*
X11415694Y-11783150D01*
X11415694Y-11783150D02*
X11453790Y-11783150D01*
X11453790Y-11783150D02*
X11472837Y-11792674D01*
X11472837Y-11792674D02*
X11482361Y-11802198D01*
X11482361Y-11802198D02*
X11491885Y-11821246D01*
X11491885Y-11821246D02*
X11491885Y-11878388D01*
X11491885Y-11878388D02*
X11482361Y-11897436D01*
X11482361Y-11897436D02*
X11472837Y-11906960D01*
X11472837Y-11906960D02*
X11453790Y-11916484D01*
X11453790Y-11916484D02*
X11415694Y-11916484D01*
X11415694Y-11916484D02*
X11396647Y-11906960D01*
X11577599Y-11897436D02*
X11587123Y-11906960D01*
X11587123Y-11906960D02*
X11577599Y-11916484D01*
X11577599Y-11916484D02*
X11568075Y-11906960D01*
X11568075Y-11906960D02*
X11577599Y-11897436D01*
X11577599Y-11897436D02*
X11577599Y-11916484D01*
X11577599Y-11792674D02*
X11587123Y-11802198D01*
X11587123Y-11802198D02*
X11577599Y-11811722D01*
X11577599Y-11811722D02*
X11568075Y-11802198D01*
X11568075Y-11802198D02*
X11577599Y-11792674D01*
X11577599Y-11792674D02*
X11577599Y-11811722D01*
M02*
