%TF.GenerationSoftware,KiCad,Pcbnew,9.0.1*%
%TF.CreationDate,2025-04-22T22:29:05-07:00*%
%TF.ProjectId,Stationary_X_Panel,53746174-696f-46e6-9172-795f585f5061,1.6*%
%TF.SameCoordinates,Original*%
%TF.FileFunction,Legend,Bot*%
%TF.FilePolarity,Positive*%
%FSLAX46Y46*%
G04 Gerber Fmt 4.6, Leading zero omitted, Abs format (unit mm)*
G04 Created by KiCad (PCBNEW 9.0.1) date 2025-04-22 22:29:05*
%MOMM*%
%LPD*%
G01*
G04 APERTURE LIST*
%ADD10C,0.300000*%
%ADD11C,0.175000*%
%ADD12C,0.200000*%
%ADD13C,0.250000*%
%ADD14C,0.150000*%
%ADD15C,0.127000*%
%ADD16C,0.120000*%
%ADD17C,0.010000*%
%ADD18C,2.600000*%
%ADD19C,3.800000*%
%ADD20C,3.000000*%
%ADD21C,2.500000*%
G04 APERTURE END LIST*
D10*
X79641190Y-179159400D02*
X79355476Y-179254638D01*
X79355476Y-179254638D02*
X78879285Y-179254638D01*
X78879285Y-179254638D02*
X78688809Y-179159400D01*
X78688809Y-179159400D02*
X78593571Y-179064161D01*
X78593571Y-179064161D02*
X78498333Y-178873685D01*
X78498333Y-178873685D02*
X78498333Y-178683209D01*
X78498333Y-178683209D02*
X78593571Y-178492733D01*
X78593571Y-178492733D02*
X78688809Y-178397495D01*
X78688809Y-178397495D02*
X78879285Y-178302257D01*
X78879285Y-178302257D02*
X79260238Y-178207019D01*
X79260238Y-178207019D02*
X79450714Y-178111780D01*
X79450714Y-178111780D02*
X79545952Y-178016542D01*
X79545952Y-178016542D02*
X79641190Y-177826066D01*
X79641190Y-177826066D02*
X79641190Y-177635590D01*
X79641190Y-177635590D02*
X79545952Y-177445114D01*
X79545952Y-177445114D02*
X79450714Y-177349876D01*
X79450714Y-177349876D02*
X79260238Y-177254638D01*
X79260238Y-177254638D02*
X78784047Y-177254638D01*
X78784047Y-177254638D02*
X78498333Y-177349876D01*
X76498333Y-179064161D02*
X76593571Y-179159400D01*
X76593571Y-179159400D02*
X76879285Y-179254638D01*
X76879285Y-179254638D02*
X77069761Y-179254638D01*
X77069761Y-179254638D02*
X77355476Y-179159400D01*
X77355476Y-179159400D02*
X77545952Y-178968923D01*
X77545952Y-178968923D02*
X77641190Y-178778447D01*
X77641190Y-178778447D02*
X77736428Y-178397495D01*
X77736428Y-178397495D02*
X77736428Y-178111780D01*
X77736428Y-178111780D02*
X77641190Y-177730828D01*
X77641190Y-177730828D02*
X77545952Y-177540352D01*
X77545952Y-177540352D02*
X77355476Y-177349876D01*
X77355476Y-177349876D02*
X77069761Y-177254638D01*
X77069761Y-177254638D02*
X76879285Y-177254638D01*
X76879285Y-177254638D02*
X76593571Y-177349876D01*
X76593571Y-177349876D02*
X76498333Y-177445114D01*
X74593571Y-179254638D02*
X75736428Y-179254638D01*
X75165000Y-179254638D02*
X75165000Y-177254638D01*
X75165000Y-177254638D02*
X75355476Y-177540352D01*
X75355476Y-177540352D02*
X75545952Y-177730828D01*
X75545952Y-177730828D02*
X75736428Y-177826066D01*
X72688809Y-179254638D02*
X73831666Y-179254638D01*
X73260238Y-179254638D02*
X73260238Y-177254638D01*
X73260238Y-177254638D02*
X73450714Y-177540352D01*
X73450714Y-177540352D02*
X73641190Y-177730828D01*
X73641190Y-177730828D02*
X73831666Y-177826066D01*
X53557857Y-189324400D02*
X51272143Y-189324400D01*
X52415000Y-190467257D02*
X52415000Y-188181542D01*
X52557857Y-117574400D02*
X50272143Y-117574400D01*
X51415000Y-118717257D02*
X51415000Y-116431542D01*
X79307857Y-229574400D02*
X77022143Y-229574400D01*
X78165000Y-230717257D02*
X78165000Y-228431542D01*
X106056917Y-229444568D02*
X105842632Y-229515996D01*
X105842632Y-229515996D02*
X105485489Y-229515996D01*
X105485489Y-229515996D02*
X105342632Y-229444568D01*
X105342632Y-229444568D02*
X105271203Y-229373139D01*
X105271203Y-229373139D02*
X105199774Y-229230282D01*
X105199774Y-229230282D02*
X105199774Y-229087425D01*
X105199774Y-229087425D02*
X105271203Y-228944568D01*
X105271203Y-228944568D02*
X105342632Y-228873139D01*
X105342632Y-228873139D02*
X105485489Y-228801710D01*
X105485489Y-228801710D02*
X105771203Y-228730282D01*
X105771203Y-228730282D02*
X105914060Y-228658853D01*
X105914060Y-228658853D02*
X105985489Y-228587425D01*
X105985489Y-228587425D02*
X106056917Y-228444568D01*
X106056917Y-228444568D02*
X106056917Y-228301710D01*
X106056917Y-228301710D02*
X105985489Y-228158853D01*
X105985489Y-228158853D02*
X105914060Y-228087425D01*
X105914060Y-228087425D02*
X105771203Y-228015996D01*
X105771203Y-228015996D02*
X105414060Y-228015996D01*
X105414060Y-228015996D02*
X105199774Y-228087425D01*
X104771203Y-228515996D02*
X104199775Y-228515996D01*
X104556918Y-228015996D02*
X104556918Y-229301710D01*
X104556918Y-229301710D02*
X104485489Y-229444568D01*
X104485489Y-229444568D02*
X104342632Y-229515996D01*
X104342632Y-229515996D02*
X104199775Y-229515996D01*
X103056918Y-229515996D02*
X103056918Y-228730282D01*
X103056918Y-228730282D02*
X103128346Y-228587425D01*
X103128346Y-228587425D02*
X103271203Y-228515996D01*
X103271203Y-228515996D02*
X103556918Y-228515996D01*
X103556918Y-228515996D02*
X103699775Y-228587425D01*
X103056918Y-229444568D02*
X103199775Y-229515996D01*
X103199775Y-229515996D02*
X103556918Y-229515996D01*
X103556918Y-229515996D02*
X103699775Y-229444568D01*
X103699775Y-229444568D02*
X103771203Y-229301710D01*
X103771203Y-229301710D02*
X103771203Y-229158853D01*
X103771203Y-229158853D02*
X103699775Y-229015996D01*
X103699775Y-229015996D02*
X103556918Y-228944568D01*
X103556918Y-228944568D02*
X103199775Y-228944568D01*
X103199775Y-228944568D02*
X103056918Y-228873139D01*
X102556917Y-228515996D02*
X101985489Y-228515996D01*
X102342632Y-228015996D02*
X102342632Y-229301710D01*
X102342632Y-229301710D02*
X102271203Y-229444568D01*
X102271203Y-229444568D02*
X102128346Y-229515996D01*
X102128346Y-229515996D02*
X101985489Y-229515996D01*
X101485489Y-229515996D02*
X101485489Y-228515996D01*
X101485489Y-228015996D02*
X101556917Y-228087425D01*
X101556917Y-228087425D02*
X101485489Y-228158853D01*
X101485489Y-228158853D02*
X101414060Y-228087425D01*
X101414060Y-228087425D02*
X101485489Y-228015996D01*
X101485489Y-228015996D02*
X101485489Y-228158853D01*
X100556917Y-229515996D02*
X100699774Y-229444568D01*
X100699774Y-229444568D02*
X100771203Y-229373139D01*
X100771203Y-229373139D02*
X100842631Y-229230282D01*
X100842631Y-229230282D02*
X100842631Y-228801710D01*
X100842631Y-228801710D02*
X100771203Y-228658853D01*
X100771203Y-228658853D02*
X100699774Y-228587425D01*
X100699774Y-228587425D02*
X100556917Y-228515996D01*
X100556917Y-228515996D02*
X100342631Y-228515996D01*
X100342631Y-228515996D02*
X100199774Y-228587425D01*
X100199774Y-228587425D02*
X100128346Y-228658853D01*
X100128346Y-228658853D02*
X100056917Y-228801710D01*
X100056917Y-228801710D02*
X100056917Y-229230282D01*
X100056917Y-229230282D02*
X100128346Y-229373139D01*
X100128346Y-229373139D02*
X100199774Y-229444568D01*
X100199774Y-229444568D02*
X100342631Y-229515996D01*
X100342631Y-229515996D02*
X100556917Y-229515996D01*
X99414060Y-228515996D02*
X99414060Y-229515996D01*
X99414060Y-228658853D02*
X99342631Y-228587425D01*
X99342631Y-228587425D02*
X99199774Y-228515996D01*
X99199774Y-228515996D02*
X98985488Y-228515996D01*
X98985488Y-228515996D02*
X98842631Y-228587425D01*
X98842631Y-228587425D02*
X98771203Y-228730282D01*
X98771203Y-228730282D02*
X98771203Y-229515996D01*
X97414060Y-229515996D02*
X97414060Y-228730282D01*
X97414060Y-228730282D02*
X97485488Y-228587425D01*
X97485488Y-228587425D02*
X97628345Y-228515996D01*
X97628345Y-228515996D02*
X97914060Y-228515996D01*
X97914060Y-228515996D02*
X98056917Y-228587425D01*
X97414060Y-229444568D02*
X97556917Y-229515996D01*
X97556917Y-229515996D02*
X97914060Y-229515996D01*
X97914060Y-229515996D02*
X98056917Y-229444568D01*
X98056917Y-229444568D02*
X98128345Y-229301710D01*
X98128345Y-229301710D02*
X98128345Y-229158853D01*
X98128345Y-229158853D02*
X98056917Y-229015996D01*
X98056917Y-229015996D02*
X97914060Y-228944568D01*
X97914060Y-228944568D02*
X97556917Y-228944568D01*
X97556917Y-228944568D02*
X97414060Y-228873139D01*
X96699774Y-229515996D02*
X96699774Y-228515996D01*
X96699774Y-228801710D02*
X96628345Y-228658853D01*
X96628345Y-228658853D02*
X96556917Y-228587425D01*
X96556917Y-228587425D02*
X96414059Y-228515996D01*
X96414059Y-228515996D02*
X96271202Y-228515996D01*
X95914060Y-228515996D02*
X95556917Y-229515996D01*
X95199774Y-228515996D02*
X95556917Y-229515996D01*
X95556917Y-229515996D02*
X95699774Y-229873139D01*
X95699774Y-229873139D02*
X95771203Y-229944568D01*
X95771203Y-229944568D02*
X95914060Y-230015996D01*
X93628346Y-228015996D02*
X92628346Y-229515996D01*
X92628346Y-228015996D02*
X93628346Y-229515996D01*
X90914061Y-229515996D02*
X90914061Y-228015996D01*
X90914061Y-228015996D02*
X90342632Y-228015996D01*
X90342632Y-228015996D02*
X90199775Y-228087425D01*
X90199775Y-228087425D02*
X90128346Y-228158853D01*
X90128346Y-228158853D02*
X90056918Y-228301710D01*
X90056918Y-228301710D02*
X90056918Y-228515996D01*
X90056918Y-228515996D02*
X90128346Y-228658853D01*
X90128346Y-228658853D02*
X90199775Y-228730282D01*
X90199775Y-228730282D02*
X90342632Y-228801710D01*
X90342632Y-228801710D02*
X90914061Y-228801710D01*
X88771204Y-229515996D02*
X88771204Y-228730282D01*
X88771204Y-228730282D02*
X88842632Y-228587425D01*
X88842632Y-228587425D02*
X88985489Y-228515996D01*
X88985489Y-228515996D02*
X89271204Y-228515996D01*
X89271204Y-228515996D02*
X89414061Y-228587425D01*
X88771204Y-229444568D02*
X88914061Y-229515996D01*
X88914061Y-229515996D02*
X89271204Y-229515996D01*
X89271204Y-229515996D02*
X89414061Y-229444568D01*
X89414061Y-229444568D02*
X89485489Y-229301710D01*
X89485489Y-229301710D02*
X89485489Y-229158853D01*
X89485489Y-229158853D02*
X89414061Y-229015996D01*
X89414061Y-229015996D02*
X89271204Y-228944568D01*
X89271204Y-228944568D02*
X88914061Y-228944568D01*
X88914061Y-228944568D02*
X88771204Y-228873139D01*
X88056918Y-228515996D02*
X88056918Y-229515996D01*
X88056918Y-228658853D02*
X87985489Y-228587425D01*
X87985489Y-228587425D02*
X87842632Y-228515996D01*
X87842632Y-228515996D02*
X87628346Y-228515996D01*
X87628346Y-228515996D02*
X87485489Y-228587425D01*
X87485489Y-228587425D02*
X87414061Y-228730282D01*
X87414061Y-228730282D02*
X87414061Y-229515996D01*
X86128346Y-229444568D02*
X86271203Y-229515996D01*
X86271203Y-229515996D02*
X86556918Y-229515996D01*
X86556918Y-229515996D02*
X86699775Y-229444568D01*
X86699775Y-229444568D02*
X86771203Y-229301710D01*
X86771203Y-229301710D02*
X86771203Y-228730282D01*
X86771203Y-228730282D02*
X86699775Y-228587425D01*
X86699775Y-228587425D02*
X86556918Y-228515996D01*
X86556918Y-228515996D02*
X86271203Y-228515996D01*
X86271203Y-228515996D02*
X86128346Y-228587425D01*
X86128346Y-228587425D02*
X86056918Y-228730282D01*
X86056918Y-228730282D02*
X86056918Y-228873139D01*
X86056918Y-228873139D02*
X86771203Y-229015996D01*
X85199775Y-229515996D02*
X85342632Y-229444568D01*
X85342632Y-229444568D02*
X85414061Y-229301710D01*
X85414061Y-229301710D02*
X85414061Y-228015996D01*
X106199774Y-230430912D02*
X105699774Y-231930912D01*
X105699774Y-231930912D02*
X105199774Y-230430912D01*
X104128346Y-231859484D02*
X104271203Y-231930912D01*
X104271203Y-231930912D02*
X104556918Y-231930912D01*
X104556918Y-231930912D02*
X104699775Y-231859484D01*
X104699775Y-231859484D02*
X104771203Y-231716626D01*
X104771203Y-231716626D02*
X104771203Y-231145198D01*
X104771203Y-231145198D02*
X104699775Y-231002341D01*
X104699775Y-231002341D02*
X104556918Y-230930912D01*
X104556918Y-230930912D02*
X104271203Y-230930912D01*
X104271203Y-230930912D02*
X104128346Y-231002341D01*
X104128346Y-231002341D02*
X104056918Y-231145198D01*
X104056918Y-231145198D02*
X104056918Y-231288055D01*
X104056918Y-231288055D02*
X104771203Y-231430912D01*
X103414061Y-231930912D02*
X103414061Y-230930912D01*
X103414061Y-231216626D02*
X103342632Y-231073769D01*
X103342632Y-231073769D02*
X103271204Y-231002341D01*
X103271204Y-231002341D02*
X103128346Y-230930912D01*
X103128346Y-230930912D02*
X102985489Y-230930912D01*
X100556918Y-231930912D02*
X101414061Y-231930912D01*
X100985490Y-231930912D02*
X100985490Y-230430912D01*
X100985490Y-230430912D02*
X101128347Y-230645198D01*
X101128347Y-230645198D02*
X101271204Y-230788055D01*
X101271204Y-230788055D02*
X101414061Y-230859484D01*
X99914062Y-231788055D02*
X99842633Y-231859484D01*
X99842633Y-231859484D02*
X99914062Y-231930912D01*
X99914062Y-231930912D02*
X99985490Y-231859484D01*
X99985490Y-231859484D02*
X99914062Y-231788055D01*
X99914062Y-231788055D02*
X99914062Y-231930912D01*
X98556919Y-230430912D02*
X98842633Y-230430912D01*
X98842633Y-230430912D02*
X98985490Y-230502341D01*
X98985490Y-230502341D02*
X99056919Y-230573769D01*
X99056919Y-230573769D02*
X99199776Y-230788055D01*
X99199776Y-230788055D02*
X99271204Y-231073769D01*
X99271204Y-231073769D02*
X99271204Y-231645198D01*
X99271204Y-231645198D02*
X99199776Y-231788055D01*
X99199776Y-231788055D02*
X99128347Y-231859484D01*
X99128347Y-231859484D02*
X98985490Y-231930912D01*
X98985490Y-231930912D02*
X98699776Y-231930912D01*
X98699776Y-231930912D02*
X98556919Y-231859484D01*
X98556919Y-231859484D02*
X98485490Y-231788055D01*
X98485490Y-231788055D02*
X98414061Y-231645198D01*
X98414061Y-231645198D02*
X98414061Y-231288055D01*
X98414061Y-231288055D02*
X98485490Y-231145198D01*
X98485490Y-231145198D02*
X98556919Y-231073769D01*
X98556919Y-231073769D02*
X98699776Y-231002341D01*
X98699776Y-231002341D02*
X98985490Y-231002341D01*
X98985490Y-231002341D02*
X99128347Y-231073769D01*
X99128347Y-231073769D02*
X99199776Y-231145198D01*
X99199776Y-231145198D02*
X99271204Y-231288055D01*
X105985489Y-234345828D02*
X105985489Y-232845828D01*
X105985489Y-232845828D02*
X105485489Y-233917257D01*
X105485489Y-233917257D02*
X104985489Y-232845828D01*
X104985489Y-232845828D02*
X104985489Y-234345828D01*
X103628346Y-234345828D02*
X103628346Y-233560114D01*
X103628346Y-233560114D02*
X103699774Y-233417257D01*
X103699774Y-233417257D02*
X103842631Y-233345828D01*
X103842631Y-233345828D02*
X104128346Y-233345828D01*
X104128346Y-233345828D02*
X104271203Y-233417257D01*
X103628346Y-234274400D02*
X103771203Y-234345828D01*
X103771203Y-234345828D02*
X104128346Y-234345828D01*
X104128346Y-234345828D02*
X104271203Y-234274400D01*
X104271203Y-234274400D02*
X104342631Y-234131542D01*
X104342631Y-234131542D02*
X104342631Y-233988685D01*
X104342631Y-233988685D02*
X104271203Y-233845828D01*
X104271203Y-233845828D02*
X104128346Y-233774400D01*
X104128346Y-233774400D02*
X103771203Y-233774400D01*
X103771203Y-233774400D02*
X103628346Y-233702971D01*
X103056917Y-233345828D02*
X102699774Y-234345828D01*
X102342631Y-233345828D02*
X102699774Y-234345828D01*
X102699774Y-234345828D02*
X102842631Y-234702971D01*
X102842631Y-234702971D02*
X102914060Y-234774400D01*
X102914060Y-234774400D02*
X103056917Y-234845828D01*
X101128346Y-234345828D02*
X101128346Y-233560114D01*
X101128346Y-233560114D02*
X101199774Y-233417257D01*
X101199774Y-233417257D02*
X101342631Y-233345828D01*
X101342631Y-233345828D02*
X101628346Y-233345828D01*
X101628346Y-233345828D02*
X101771203Y-233417257D01*
X101128346Y-234274400D02*
X101271203Y-234345828D01*
X101271203Y-234345828D02*
X101628346Y-234345828D01*
X101628346Y-234345828D02*
X101771203Y-234274400D01*
X101771203Y-234274400D02*
X101842631Y-234131542D01*
X101842631Y-234131542D02*
X101842631Y-233988685D01*
X101842631Y-233988685D02*
X101771203Y-233845828D01*
X101771203Y-233845828D02*
X101628346Y-233774400D01*
X101628346Y-233774400D02*
X101271203Y-233774400D01*
X101271203Y-233774400D02*
X101128346Y-233702971D01*
X98771203Y-233560114D02*
X98556917Y-233631542D01*
X98556917Y-233631542D02*
X98485488Y-233702971D01*
X98485488Y-233702971D02*
X98414060Y-233845828D01*
X98414060Y-233845828D02*
X98414060Y-234060114D01*
X98414060Y-234060114D02*
X98485488Y-234202971D01*
X98485488Y-234202971D02*
X98556917Y-234274400D01*
X98556917Y-234274400D02*
X98699774Y-234345828D01*
X98699774Y-234345828D02*
X99271203Y-234345828D01*
X99271203Y-234345828D02*
X99271203Y-232845828D01*
X99271203Y-232845828D02*
X98771203Y-232845828D01*
X98771203Y-232845828D02*
X98628346Y-232917257D01*
X98628346Y-232917257D02*
X98556917Y-232988685D01*
X98556917Y-232988685D02*
X98485488Y-233131542D01*
X98485488Y-233131542D02*
X98485488Y-233274400D01*
X98485488Y-233274400D02*
X98556917Y-233417257D01*
X98556917Y-233417257D02*
X98628346Y-233488685D01*
X98628346Y-233488685D02*
X98771203Y-233560114D01*
X98771203Y-233560114D02*
X99271203Y-233560114D01*
X97771203Y-234345828D02*
X97771203Y-233345828D01*
X97771203Y-233631542D02*
X97699774Y-233488685D01*
X97699774Y-233488685D02*
X97628346Y-233417257D01*
X97628346Y-233417257D02*
X97485488Y-233345828D01*
X97485488Y-233345828D02*
X97342631Y-233345828D01*
X96842632Y-234345828D02*
X96842632Y-233345828D01*
X96842632Y-232845828D02*
X96914060Y-232917257D01*
X96914060Y-232917257D02*
X96842632Y-232988685D01*
X96842632Y-232988685D02*
X96771203Y-232917257D01*
X96771203Y-232917257D02*
X96842632Y-232845828D01*
X96842632Y-232845828D02*
X96842632Y-232988685D01*
X95485489Y-234345828D02*
X95485489Y-232845828D01*
X95485489Y-234274400D02*
X95628346Y-234345828D01*
X95628346Y-234345828D02*
X95914060Y-234345828D01*
X95914060Y-234345828D02*
X96056917Y-234274400D01*
X96056917Y-234274400D02*
X96128346Y-234202971D01*
X96128346Y-234202971D02*
X96199774Y-234060114D01*
X96199774Y-234060114D02*
X96199774Y-233631542D01*
X96199774Y-233631542D02*
X96128346Y-233488685D01*
X96128346Y-233488685D02*
X96056917Y-233417257D01*
X96056917Y-233417257D02*
X95914060Y-233345828D01*
X95914060Y-233345828D02*
X95628346Y-233345828D01*
X95628346Y-233345828D02*
X95485489Y-233417257D01*
X94128346Y-233345828D02*
X94128346Y-234560114D01*
X94128346Y-234560114D02*
X94199774Y-234702971D01*
X94199774Y-234702971D02*
X94271203Y-234774400D01*
X94271203Y-234774400D02*
X94414060Y-234845828D01*
X94414060Y-234845828D02*
X94628346Y-234845828D01*
X94628346Y-234845828D02*
X94771203Y-234774400D01*
X94128346Y-234274400D02*
X94271203Y-234345828D01*
X94271203Y-234345828D02*
X94556917Y-234345828D01*
X94556917Y-234345828D02*
X94699774Y-234274400D01*
X94699774Y-234274400D02*
X94771203Y-234202971D01*
X94771203Y-234202971D02*
X94842631Y-234060114D01*
X94842631Y-234060114D02*
X94842631Y-233631542D01*
X94842631Y-233631542D02*
X94771203Y-233488685D01*
X94771203Y-233488685D02*
X94699774Y-233417257D01*
X94699774Y-233417257D02*
X94556917Y-233345828D01*
X94556917Y-233345828D02*
X94271203Y-233345828D01*
X94271203Y-233345828D02*
X94128346Y-233417257D01*
X93414060Y-234345828D02*
X93414060Y-233345828D01*
X93414060Y-233488685D02*
X93342631Y-233417257D01*
X93342631Y-233417257D02*
X93199774Y-233345828D01*
X93199774Y-233345828D02*
X92985488Y-233345828D01*
X92985488Y-233345828D02*
X92842631Y-233417257D01*
X92842631Y-233417257D02*
X92771203Y-233560114D01*
X92771203Y-233560114D02*
X92771203Y-234345828D01*
X92771203Y-233560114D02*
X92699774Y-233417257D01*
X92699774Y-233417257D02*
X92556917Y-233345828D01*
X92556917Y-233345828D02*
X92342631Y-233345828D01*
X92342631Y-233345828D02*
X92199774Y-233417257D01*
X92199774Y-233417257D02*
X92128345Y-233560114D01*
X92128345Y-233560114D02*
X92128345Y-234345828D01*
X90771203Y-234345828D02*
X90771203Y-233560114D01*
X90771203Y-233560114D02*
X90842631Y-233417257D01*
X90842631Y-233417257D02*
X90985488Y-233345828D01*
X90985488Y-233345828D02*
X91271203Y-233345828D01*
X91271203Y-233345828D02*
X91414060Y-233417257D01*
X90771203Y-234274400D02*
X90914060Y-234345828D01*
X90914060Y-234345828D02*
X91271203Y-234345828D01*
X91271203Y-234345828D02*
X91414060Y-234274400D01*
X91414060Y-234274400D02*
X91485488Y-234131542D01*
X91485488Y-234131542D02*
X91485488Y-233988685D01*
X91485488Y-233988685D02*
X91414060Y-233845828D01*
X91414060Y-233845828D02*
X91271203Y-233774400D01*
X91271203Y-233774400D02*
X90914060Y-233774400D01*
X90914060Y-233774400D02*
X90771203Y-233702971D01*
X90056917Y-233345828D02*
X90056917Y-234345828D01*
X90056917Y-233488685D02*
X89985488Y-233417257D01*
X89985488Y-233417257D02*
X89842631Y-233345828D01*
X89842631Y-233345828D02*
X89628345Y-233345828D01*
X89628345Y-233345828D02*
X89485488Y-233417257D01*
X89485488Y-233417257D02*
X89414060Y-233560114D01*
X89414060Y-233560114D02*
X89414060Y-234345828D01*
X64522142Y-181615600D02*
X66807857Y-181615600D01*
D11*
X71554733Y-167281797D02*
X72121400Y-167281797D01*
X72121400Y-167281797D02*
X72188066Y-167315131D01*
X72188066Y-167315131D02*
X72221400Y-167348464D01*
X72221400Y-167348464D02*
X72254733Y-167415131D01*
X72254733Y-167415131D02*
X72254733Y-167548464D01*
X72254733Y-167548464D02*
X72221400Y-167615131D01*
X72221400Y-167615131D02*
X72188066Y-167648464D01*
X72188066Y-167648464D02*
X72121400Y-167681797D01*
X72121400Y-167681797D02*
X71554733Y-167681797D01*
X72221400Y-167981797D02*
X72254733Y-168081797D01*
X72254733Y-168081797D02*
X72254733Y-168248464D01*
X72254733Y-168248464D02*
X72221400Y-168315130D01*
X72221400Y-168315130D02*
X72188066Y-168348464D01*
X72188066Y-168348464D02*
X72121400Y-168381797D01*
X72121400Y-168381797D02*
X72054733Y-168381797D01*
X72054733Y-168381797D02*
X71988066Y-168348464D01*
X71988066Y-168348464D02*
X71954733Y-168315130D01*
X71954733Y-168315130D02*
X71921400Y-168248464D01*
X71921400Y-168248464D02*
X71888066Y-168115130D01*
X71888066Y-168115130D02*
X71854733Y-168048464D01*
X71854733Y-168048464D02*
X71821400Y-168015130D01*
X71821400Y-168015130D02*
X71754733Y-167981797D01*
X71754733Y-167981797D02*
X71688066Y-167981797D01*
X71688066Y-167981797D02*
X71621400Y-168015130D01*
X71621400Y-168015130D02*
X71588066Y-168048464D01*
X71588066Y-168048464D02*
X71554733Y-168115130D01*
X71554733Y-168115130D02*
X71554733Y-168281797D01*
X71554733Y-168281797D02*
X71588066Y-168381797D01*
X71888066Y-168915131D02*
X71921400Y-169015131D01*
X71921400Y-169015131D02*
X71954733Y-169048464D01*
X71954733Y-169048464D02*
X72021400Y-169081797D01*
X72021400Y-169081797D02*
X72121400Y-169081797D01*
X72121400Y-169081797D02*
X72188066Y-169048464D01*
X72188066Y-169048464D02*
X72221400Y-169015131D01*
X72221400Y-169015131D02*
X72254733Y-168948464D01*
X72254733Y-168948464D02*
X72254733Y-168681797D01*
X72254733Y-168681797D02*
X71554733Y-168681797D01*
X71554733Y-168681797D02*
X71554733Y-168915131D01*
X71554733Y-168915131D02*
X71588066Y-168981797D01*
X71588066Y-168981797D02*
X71621400Y-169015131D01*
X71621400Y-169015131D02*
X71688066Y-169048464D01*
X71688066Y-169048464D02*
X71754733Y-169048464D01*
X71754733Y-169048464D02*
X71821400Y-169015131D01*
X71821400Y-169015131D02*
X71854733Y-168981797D01*
X71854733Y-168981797D02*
X71888066Y-168915131D01*
X71888066Y-168915131D02*
X71888066Y-168681797D01*
X72321400Y-169215131D02*
X72321400Y-169748464D01*
X72188066Y-170315130D02*
X72221400Y-170281797D01*
X72221400Y-170281797D02*
X72254733Y-170181797D01*
X72254733Y-170181797D02*
X72254733Y-170115130D01*
X72254733Y-170115130D02*
X72221400Y-170015130D01*
X72221400Y-170015130D02*
X72154733Y-169948464D01*
X72154733Y-169948464D02*
X72088066Y-169915130D01*
X72088066Y-169915130D02*
X71954733Y-169881797D01*
X71954733Y-169881797D02*
X71854733Y-169881797D01*
X71854733Y-169881797D02*
X71721400Y-169915130D01*
X71721400Y-169915130D02*
X71654733Y-169948464D01*
X71654733Y-169948464D02*
X71588066Y-170015130D01*
X71588066Y-170015130D02*
X71554733Y-170115130D01*
X71554733Y-170115130D02*
X71554733Y-170181797D01*
X71554733Y-170181797D02*
X71588066Y-170281797D01*
X71588066Y-170281797D02*
X71621400Y-170315130D01*
X72254733Y-170615130D02*
X71554733Y-170615130D01*
X71888066Y-170615130D02*
X71888066Y-171015130D01*
X72254733Y-171015130D02*
X71554733Y-171015130D01*
X72254733Y-171748463D02*
X71921400Y-171515130D01*
X72254733Y-171348463D02*
X71554733Y-171348463D01*
X71554733Y-171348463D02*
X71554733Y-171615130D01*
X71554733Y-171615130D02*
X71588066Y-171681797D01*
X71588066Y-171681797D02*
X71621400Y-171715130D01*
X71621400Y-171715130D02*
X71688066Y-171748463D01*
X71688066Y-171748463D02*
X71788066Y-171748463D01*
X71788066Y-171748463D02*
X71854733Y-171715130D01*
X71854733Y-171715130D02*
X71888066Y-171681797D01*
X71888066Y-171681797D02*
X71921400Y-171615130D01*
X71921400Y-171615130D02*
X71921400Y-171348463D01*
X71588066Y-172415130D02*
X71554733Y-172348463D01*
X71554733Y-172348463D02*
X71554733Y-172248463D01*
X71554733Y-172248463D02*
X71588066Y-172148463D01*
X71588066Y-172148463D02*
X71654733Y-172081797D01*
X71654733Y-172081797D02*
X71721400Y-172048463D01*
X71721400Y-172048463D02*
X71854733Y-172015130D01*
X71854733Y-172015130D02*
X71954733Y-172015130D01*
X71954733Y-172015130D02*
X72088066Y-172048463D01*
X72088066Y-172048463D02*
X72154733Y-172081797D01*
X72154733Y-172081797D02*
X72221400Y-172148463D01*
X72221400Y-172148463D02*
X72254733Y-172248463D01*
X72254733Y-172248463D02*
X72254733Y-172315130D01*
X72254733Y-172315130D02*
X72221400Y-172415130D01*
X72221400Y-172415130D02*
X72188066Y-172448463D01*
X72188066Y-172448463D02*
X71954733Y-172448463D01*
X71954733Y-172448463D02*
X71954733Y-172315130D01*
D10*
X77307857Y-181324400D02*
X75022143Y-181324400D01*
X76165000Y-182467257D02*
X76165000Y-180181542D01*
X68610489Y-229565996D02*
X68610489Y-228565996D01*
X68610489Y-228708853D02*
X68539060Y-228637425D01*
X68539060Y-228637425D02*
X68396203Y-228565996D01*
X68396203Y-228565996D02*
X68181917Y-228565996D01*
X68181917Y-228565996D02*
X68039060Y-228637425D01*
X68039060Y-228637425D02*
X67967632Y-228780282D01*
X67967632Y-228780282D02*
X67967632Y-229565996D01*
X67967632Y-228780282D02*
X67896203Y-228637425D01*
X67896203Y-228637425D02*
X67753346Y-228565996D01*
X67753346Y-228565996D02*
X67539060Y-228565996D01*
X67539060Y-228565996D02*
X67396203Y-228637425D01*
X67396203Y-228637425D02*
X67324774Y-228780282D01*
X67324774Y-228780282D02*
X67324774Y-229565996D01*
X66039060Y-229494568D02*
X66181917Y-229565996D01*
X66181917Y-229565996D02*
X66467632Y-229565996D01*
X66467632Y-229565996D02*
X66610489Y-229494568D01*
X66610489Y-229494568D02*
X66681917Y-229351710D01*
X66681917Y-229351710D02*
X66681917Y-228780282D01*
X66681917Y-228780282D02*
X66610489Y-228637425D01*
X66610489Y-228637425D02*
X66467632Y-228565996D01*
X66467632Y-228565996D02*
X66181917Y-228565996D01*
X66181917Y-228565996D02*
X66039060Y-228637425D01*
X66039060Y-228637425D02*
X65967632Y-228780282D01*
X65967632Y-228780282D02*
X65967632Y-228923139D01*
X65967632Y-228923139D02*
X66681917Y-229065996D01*
X65110489Y-229565996D02*
X65253346Y-229494568D01*
X65253346Y-229494568D02*
X65324775Y-229423139D01*
X65324775Y-229423139D02*
X65396203Y-229280282D01*
X65396203Y-229280282D02*
X65396203Y-228851710D01*
X65396203Y-228851710D02*
X65324775Y-228708853D01*
X65324775Y-228708853D02*
X65253346Y-228637425D01*
X65253346Y-228637425D02*
X65110489Y-228565996D01*
X65110489Y-228565996D02*
X64896203Y-228565996D01*
X64896203Y-228565996D02*
X64753346Y-228637425D01*
X64753346Y-228637425D02*
X64681918Y-228708853D01*
X64681918Y-228708853D02*
X64610489Y-228851710D01*
X64610489Y-228851710D02*
X64610489Y-229280282D01*
X64610489Y-229280282D02*
X64681918Y-229423139D01*
X64681918Y-229423139D02*
X64753346Y-229494568D01*
X64753346Y-229494568D02*
X64896203Y-229565996D01*
X64896203Y-229565996D02*
X65110489Y-229565996D01*
X64110489Y-228565996D02*
X63824775Y-229565996D01*
X63824775Y-229565996D02*
X63539060Y-228851710D01*
X63539060Y-228851710D02*
X63253346Y-229565996D01*
X63253346Y-229565996D02*
X62967632Y-228565996D01*
X68610489Y-231980912D02*
X68610489Y-230980912D01*
X68610489Y-231123769D02*
X68539060Y-231052341D01*
X68539060Y-231052341D02*
X68396203Y-230980912D01*
X68396203Y-230980912D02*
X68181917Y-230980912D01*
X68181917Y-230980912D02*
X68039060Y-231052341D01*
X68039060Y-231052341D02*
X67967632Y-231195198D01*
X67967632Y-231195198D02*
X67967632Y-231980912D01*
X67967632Y-231195198D02*
X67896203Y-231052341D01*
X67896203Y-231052341D02*
X67753346Y-230980912D01*
X67753346Y-230980912D02*
X67539060Y-230980912D01*
X67539060Y-230980912D02*
X67396203Y-231052341D01*
X67396203Y-231052341D02*
X67324774Y-231195198D01*
X67324774Y-231195198D02*
X67324774Y-231980912D01*
X66039060Y-231909484D02*
X66181917Y-231980912D01*
X66181917Y-231980912D02*
X66467632Y-231980912D01*
X66467632Y-231980912D02*
X66610489Y-231909484D01*
X66610489Y-231909484D02*
X66681917Y-231766626D01*
X66681917Y-231766626D02*
X66681917Y-231195198D01*
X66681917Y-231195198D02*
X66610489Y-231052341D01*
X66610489Y-231052341D02*
X66467632Y-230980912D01*
X66467632Y-230980912D02*
X66181917Y-230980912D01*
X66181917Y-230980912D02*
X66039060Y-231052341D01*
X66039060Y-231052341D02*
X65967632Y-231195198D01*
X65967632Y-231195198D02*
X65967632Y-231338055D01*
X65967632Y-231338055D02*
X66681917Y-231480912D01*
X65110489Y-231980912D02*
X65253346Y-231909484D01*
X65253346Y-231909484D02*
X65324775Y-231838055D01*
X65324775Y-231838055D02*
X65396203Y-231695198D01*
X65396203Y-231695198D02*
X65396203Y-231266626D01*
X65396203Y-231266626D02*
X65324775Y-231123769D01*
X65324775Y-231123769D02*
X65253346Y-231052341D01*
X65253346Y-231052341D02*
X65110489Y-230980912D01*
X65110489Y-230980912D02*
X64896203Y-230980912D01*
X64896203Y-230980912D02*
X64753346Y-231052341D01*
X64753346Y-231052341D02*
X64681918Y-231123769D01*
X64681918Y-231123769D02*
X64610489Y-231266626D01*
X64610489Y-231266626D02*
X64610489Y-231695198D01*
X64610489Y-231695198D02*
X64681918Y-231838055D01*
X64681918Y-231838055D02*
X64753346Y-231909484D01*
X64753346Y-231909484D02*
X64896203Y-231980912D01*
X64896203Y-231980912D02*
X65110489Y-231980912D01*
X64110489Y-230980912D02*
X63824775Y-231980912D01*
X63824775Y-231980912D02*
X63539060Y-231266626D01*
X63539060Y-231266626D02*
X63253346Y-231980912D01*
X63253346Y-231980912D02*
X62967632Y-230980912D01*
X68610489Y-234395828D02*
X68610489Y-233395828D01*
X68610489Y-233538685D02*
X68539060Y-233467257D01*
X68539060Y-233467257D02*
X68396203Y-233395828D01*
X68396203Y-233395828D02*
X68181917Y-233395828D01*
X68181917Y-233395828D02*
X68039060Y-233467257D01*
X68039060Y-233467257D02*
X67967632Y-233610114D01*
X67967632Y-233610114D02*
X67967632Y-234395828D01*
X67967632Y-233610114D02*
X67896203Y-233467257D01*
X67896203Y-233467257D02*
X67753346Y-233395828D01*
X67753346Y-233395828D02*
X67539060Y-233395828D01*
X67539060Y-233395828D02*
X67396203Y-233467257D01*
X67396203Y-233467257D02*
X67324774Y-233610114D01*
X67324774Y-233610114D02*
X67324774Y-234395828D01*
X66039060Y-234324400D02*
X66181917Y-234395828D01*
X66181917Y-234395828D02*
X66467632Y-234395828D01*
X66467632Y-234395828D02*
X66610489Y-234324400D01*
X66610489Y-234324400D02*
X66681917Y-234181542D01*
X66681917Y-234181542D02*
X66681917Y-233610114D01*
X66681917Y-233610114D02*
X66610489Y-233467257D01*
X66610489Y-233467257D02*
X66467632Y-233395828D01*
X66467632Y-233395828D02*
X66181917Y-233395828D01*
X66181917Y-233395828D02*
X66039060Y-233467257D01*
X66039060Y-233467257D02*
X65967632Y-233610114D01*
X65967632Y-233610114D02*
X65967632Y-233752971D01*
X65967632Y-233752971D02*
X66681917Y-233895828D01*
X65110489Y-234395828D02*
X65253346Y-234324400D01*
X65253346Y-234324400D02*
X65324775Y-234252971D01*
X65324775Y-234252971D02*
X65396203Y-234110114D01*
X65396203Y-234110114D02*
X65396203Y-233681542D01*
X65396203Y-233681542D02*
X65324775Y-233538685D01*
X65324775Y-233538685D02*
X65253346Y-233467257D01*
X65253346Y-233467257D02*
X65110489Y-233395828D01*
X65110489Y-233395828D02*
X64896203Y-233395828D01*
X64896203Y-233395828D02*
X64753346Y-233467257D01*
X64753346Y-233467257D02*
X64681918Y-233538685D01*
X64681918Y-233538685D02*
X64610489Y-233681542D01*
X64610489Y-233681542D02*
X64610489Y-234110114D01*
X64610489Y-234110114D02*
X64681918Y-234252971D01*
X64681918Y-234252971D02*
X64753346Y-234324400D01*
X64753346Y-234324400D02*
X64896203Y-234395828D01*
X64896203Y-234395828D02*
X65110489Y-234395828D01*
X64110489Y-233395828D02*
X63824775Y-234395828D01*
X63824775Y-234395828D02*
X63539060Y-233681542D01*
X63539060Y-233681542D02*
X63253346Y-234395828D01*
X63253346Y-234395828D02*
X62967632Y-233395828D01*
X61253346Y-234395828D02*
X61253346Y-233395828D01*
X61253346Y-233538685D02*
X61181917Y-233467257D01*
X61181917Y-233467257D02*
X61039060Y-233395828D01*
X61039060Y-233395828D02*
X60824774Y-233395828D01*
X60824774Y-233395828D02*
X60681917Y-233467257D01*
X60681917Y-233467257D02*
X60610489Y-233610114D01*
X60610489Y-233610114D02*
X60610489Y-234395828D01*
X60610489Y-233610114D02*
X60539060Y-233467257D01*
X60539060Y-233467257D02*
X60396203Y-233395828D01*
X60396203Y-233395828D02*
X60181917Y-233395828D01*
X60181917Y-233395828D02*
X60039060Y-233467257D01*
X60039060Y-233467257D02*
X59967631Y-233610114D01*
X59967631Y-233610114D02*
X59967631Y-234395828D01*
X58681917Y-234324400D02*
X58824774Y-234395828D01*
X58824774Y-234395828D02*
X59110489Y-234395828D01*
X59110489Y-234395828D02*
X59253346Y-234324400D01*
X59253346Y-234324400D02*
X59324774Y-234181542D01*
X59324774Y-234181542D02*
X59324774Y-233610114D01*
X59324774Y-233610114D02*
X59253346Y-233467257D01*
X59253346Y-233467257D02*
X59110489Y-233395828D01*
X59110489Y-233395828D02*
X58824774Y-233395828D01*
X58824774Y-233395828D02*
X58681917Y-233467257D01*
X58681917Y-233467257D02*
X58610489Y-233610114D01*
X58610489Y-233610114D02*
X58610489Y-233752971D01*
X58610489Y-233752971D02*
X59324774Y-233895828D01*
X57753346Y-234395828D02*
X57896203Y-234324400D01*
X57896203Y-234324400D02*
X57967632Y-234252971D01*
X57967632Y-234252971D02*
X58039060Y-234110114D01*
X58039060Y-234110114D02*
X58039060Y-233681542D01*
X58039060Y-233681542D02*
X57967632Y-233538685D01*
X57967632Y-233538685D02*
X57896203Y-233467257D01*
X57896203Y-233467257D02*
X57753346Y-233395828D01*
X57753346Y-233395828D02*
X57539060Y-233395828D01*
X57539060Y-233395828D02*
X57396203Y-233467257D01*
X57396203Y-233467257D02*
X57324775Y-233538685D01*
X57324775Y-233538685D02*
X57253346Y-233681542D01*
X57253346Y-233681542D02*
X57253346Y-234110114D01*
X57253346Y-234110114D02*
X57324775Y-234252971D01*
X57324775Y-234252971D02*
X57396203Y-234324400D01*
X57396203Y-234324400D02*
X57539060Y-234395828D01*
X57539060Y-234395828D02*
X57753346Y-234395828D01*
X56753346Y-233395828D02*
X56467632Y-234395828D01*
X56467632Y-234395828D02*
X56181917Y-233681542D01*
X56181917Y-233681542D02*
X55896203Y-234395828D01*
X55896203Y-234395828D02*
X55610489Y-233395828D01*
X101807857Y-127574400D02*
X99522143Y-127574400D01*
X100665000Y-128717257D02*
X100665000Y-126431542D01*
X67914400Y-77459510D02*
X67914400Y-78602368D01*
X67914400Y-79316653D02*
X67914400Y-80459511D01*
X67914400Y-81173796D02*
X67914400Y-82316654D01*
X67914400Y-83030939D02*
X67914400Y-84173797D01*
D12*
X70815400Y-171961279D02*
X70815400Y-170818422D01*
X70815400Y-170104136D02*
X70815400Y-168961279D01*
X70815400Y-168246993D02*
X70815400Y-167104136D01*
D10*
X68688809Y-67409400D02*
X68403095Y-67504638D01*
X68403095Y-67504638D02*
X67926904Y-67504638D01*
X67926904Y-67504638D02*
X67736428Y-67409400D01*
X67736428Y-67409400D02*
X67641190Y-67314161D01*
X67641190Y-67314161D02*
X67545952Y-67123685D01*
X67545952Y-67123685D02*
X67545952Y-66933209D01*
X67545952Y-66933209D02*
X67641190Y-66742733D01*
X67641190Y-66742733D02*
X67736428Y-66647495D01*
X67736428Y-66647495D02*
X67926904Y-66552257D01*
X67926904Y-66552257D02*
X68307857Y-66457019D01*
X68307857Y-66457019D02*
X68498333Y-66361780D01*
X68498333Y-66361780D02*
X68593571Y-66266542D01*
X68593571Y-66266542D02*
X68688809Y-66076066D01*
X68688809Y-66076066D02*
X68688809Y-65885590D01*
X68688809Y-65885590D02*
X68593571Y-65695114D01*
X68593571Y-65695114D02*
X68498333Y-65599876D01*
X68498333Y-65599876D02*
X68307857Y-65504638D01*
X68307857Y-65504638D02*
X67831666Y-65504638D01*
X67831666Y-65504638D02*
X67545952Y-65599876D01*
X65545952Y-67314161D02*
X65641190Y-67409400D01*
X65641190Y-67409400D02*
X65926904Y-67504638D01*
X65926904Y-67504638D02*
X66117380Y-67504638D01*
X66117380Y-67504638D02*
X66403095Y-67409400D01*
X66403095Y-67409400D02*
X66593571Y-67218923D01*
X66593571Y-67218923D02*
X66688809Y-67028447D01*
X66688809Y-67028447D02*
X66784047Y-66647495D01*
X66784047Y-66647495D02*
X66784047Y-66361780D01*
X66784047Y-66361780D02*
X66688809Y-65980828D01*
X66688809Y-65980828D02*
X66593571Y-65790352D01*
X66593571Y-65790352D02*
X66403095Y-65599876D01*
X66403095Y-65599876D02*
X66117380Y-65504638D01*
X66117380Y-65504638D02*
X65926904Y-65504638D01*
X65926904Y-65504638D02*
X65641190Y-65599876D01*
X65641190Y-65599876D02*
X65545952Y-65695114D01*
X63641190Y-67504638D02*
X64784047Y-67504638D01*
X64212619Y-67504638D02*
X64212619Y-65504638D01*
X64212619Y-65504638D02*
X64403095Y-65790352D01*
X64403095Y-65790352D02*
X64593571Y-65980828D01*
X64593571Y-65980828D02*
X64784047Y-66076066D01*
X67307857Y-63324400D02*
X65022143Y-63324400D01*
X66165000Y-64467257D02*
X66165000Y-62181542D01*
X41022142Y-189615600D02*
X43307857Y-189615600D01*
D12*
X72915400Y-171961279D02*
X72915400Y-170818422D01*
X72915400Y-170104136D02*
X72915400Y-168961279D01*
X72915400Y-168246993D02*
X72915400Y-167104136D01*
D10*
X52557857Y-153574400D02*
X50272143Y-153574400D01*
X51415000Y-154717257D02*
X51415000Y-152431542D01*
X100307857Y-90824400D02*
X98022143Y-90824400D01*
X99165000Y-91967257D02*
X99165000Y-89681542D01*
D13*
X66565809Y-79460901D02*
X66613428Y-79603758D01*
X66613428Y-79603758D02*
X66661047Y-79651377D01*
X66661047Y-79651377D02*
X66756285Y-79698996D01*
X66756285Y-79698996D02*
X66899142Y-79698996D01*
X66899142Y-79698996D02*
X66994380Y-79651377D01*
X66994380Y-79651377D02*
X67042000Y-79603758D01*
X67042000Y-79603758D02*
X67089619Y-79508520D01*
X67089619Y-79508520D02*
X67089619Y-79127568D01*
X67089619Y-79127568D02*
X66089619Y-79127568D01*
X66089619Y-79127568D02*
X66089619Y-79460901D01*
X66089619Y-79460901D02*
X66137238Y-79556139D01*
X66137238Y-79556139D02*
X66184857Y-79603758D01*
X66184857Y-79603758D02*
X66280095Y-79651377D01*
X66280095Y-79651377D02*
X66375333Y-79651377D01*
X66375333Y-79651377D02*
X66470571Y-79603758D01*
X66470571Y-79603758D02*
X66518190Y-79556139D01*
X66518190Y-79556139D02*
X66565809Y-79460901D01*
X66565809Y-79460901D02*
X66565809Y-79127568D01*
X66089619Y-80127568D02*
X66899142Y-80127568D01*
X66899142Y-80127568D02*
X66994380Y-80175187D01*
X66994380Y-80175187D02*
X67042000Y-80222806D01*
X67042000Y-80222806D02*
X67089619Y-80318044D01*
X67089619Y-80318044D02*
X67089619Y-80508520D01*
X67089619Y-80508520D02*
X67042000Y-80603758D01*
X67042000Y-80603758D02*
X66994380Y-80651377D01*
X66994380Y-80651377D02*
X66899142Y-80698996D01*
X66899142Y-80698996D02*
X66089619Y-80698996D01*
X67089619Y-81746615D02*
X66613428Y-81413282D01*
X67089619Y-81175187D02*
X66089619Y-81175187D01*
X66089619Y-81175187D02*
X66089619Y-81556139D01*
X66089619Y-81556139D02*
X66137238Y-81651377D01*
X66137238Y-81651377D02*
X66184857Y-81698996D01*
X66184857Y-81698996D02*
X66280095Y-81746615D01*
X66280095Y-81746615D02*
X66422952Y-81746615D01*
X66422952Y-81746615D02*
X66518190Y-81698996D01*
X66518190Y-81698996D02*
X66565809Y-81651377D01*
X66565809Y-81651377D02*
X66613428Y-81556139D01*
X66613428Y-81556139D02*
X66613428Y-81175187D01*
X67089619Y-82175187D02*
X66089619Y-82175187D01*
X66089619Y-82175187D02*
X67089619Y-82746615D01*
X67089619Y-82746615D02*
X66089619Y-82746615D01*
D10*
X54438809Y-115159400D02*
X54153095Y-115254638D01*
X54153095Y-115254638D02*
X53676904Y-115254638D01*
X53676904Y-115254638D02*
X53486428Y-115159400D01*
X53486428Y-115159400D02*
X53391190Y-115064161D01*
X53391190Y-115064161D02*
X53295952Y-114873685D01*
X53295952Y-114873685D02*
X53295952Y-114683209D01*
X53295952Y-114683209D02*
X53391190Y-114492733D01*
X53391190Y-114492733D02*
X53486428Y-114397495D01*
X53486428Y-114397495D02*
X53676904Y-114302257D01*
X53676904Y-114302257D02*
X54057857Y-114207019D01*
X54057857Y-114207019D02*
X54248333Y-114111780D01*
X54248333Y-114111780D02*
X54343571Y-114016542D01*
X54343571Y-114016542D02*
X54438809Y-113826066D01*
X54438809Y-113826066D02*
X54438809Y-113635590D01*
X54438809Y-113635590D02*
X54343571Y-113445114D01*
X54343571Y-113445114D02*
X54248333Y-113349876D01*
X54248333Y-113349876D02*
X54057857Y-113254638D01*
X54057857Y-113254638D02*
X53581666Y-113254638D01*
X53581666Y-113254638D02*
X53295952Y-113349876D01*
X51295952Y-115064161D02*
X51391190Y-115159400D01*
X51391190Y-115159400D02*
X51676904Y-115254638D01*
X51676904Y-115254638D02*
X51867380Y-115254638D01*
X51867380Y-115254638D02*
X52153095Y-115159400D01*
X52153095Y-115159400D02*
X52343571Y-114968923D01*
X52343571Y-114968923D02*
X52438809Y-114778447D01*
X52438809Y-114778447D02*
X52534047Y-114397495D01*
X52534047Y-114397495D02*
X52534047Y-114111780D01*
X52534047Y-114111780D02*
X52438809Y-113730828D01*
X52438809Y-113730828D02*
X52343571Y-113540352D01*
X52343571Y-113540352D02*
X52153095Y-113349876D01*
X52153095Y-113349876D02*
X51867380Y-113254638D01*
X51867380Y-113254638D02*
X51676904Y-113254638D01*
X51676904Y-113254638D02*
X51391190Y-113349876D01*
X51391190Y-113349876D02*
X51295952Y-113445114D01*
X50629285Y-113254638D02*
X49391190Y-113254638D01*
X49391190Y-113254638D02*
X50057857Y-114016542D01*
X50057857Y-114016542D02*
X49772142Y-114016542D01*
X49772142Y-114016542D02*
X49581666Y-114111780D01*
X49581666Y-114111780D02*
X49486428Y-114207019D01*
X49486428Y-114207019D02*
X49391190Y-114397495D01*
X49391190Y-114397495D02*
X49391190Y-114873685D01*
X49391190Y-114873685D02*
X49486428Y-115064161D01*
X49486428Y-115064161D02*
X49581666Y-115159400D01*
X49581666Y-115159400D02*
X49772142Y-115254638D01*
X49772142Y-115254638D02*
X50343571Y-115254638D01*
X50343571Y-115254638D02*
X50534047Y-115159400D01*
X50534047Y-115159400D02*
X50629285Y-115064161D01*
D14*
X83746077Y-150143152D02*
X83365125Y-150143152D01*
X83603220Y-150809819D02*
X83603220Y-149952676D01*
X83603220Y-149952676D02*
X83555601Y-149857438D01*
X83555601Y-149857438D02*
X83460363Y-149809819D01*
X83460363Y-149809819D02*
X83365125Y-149809819D01*
X83031791Y-150809819D02*
X83031791Y-150143152D01*
X83031791Y-149809819D02*
X83079410Y-149857438D01*
X83079410Y-149857438D02*
X83031791Y-149905057D01*
X83031791Y-149905057D02*
X82984172Y-149857438D01*
X82984172Y-149857438D02*
X83031791Y-149809819D01*
X83031791Y-149809819D02*
X83031791Y-149905057D01*
X82555601Y-150143152D02*
X82555601Y-150809819D01*
X82555601Y-150238390D02*
X82507982Y-150190771D01*
X82507982Y-150190771D02*
X82412744Y-150143152D01*
X82412744Y-150143152D02*
X82269887Y-150143152D01*
X82269887Y-150143152D02*
X82174649Y-150190771D01*
X82174649Y-150190771D02*
X82127030Y-150286009D01*
X82127030Y-150286009D02*
X82127030Y-150809819D01*
X81650839Y-150143152D02*
X81650839Y-150809819D01*
X81650839Y-150238390D02*
X81603220Y-150190771D01*
X81603220Y-150190771D02*
X81507982Y-150143152D01*
X81507982Y-150143152D02*
X81365125Y-150143152D01*
X81365125Y-150143152D02*
X81269887Y-150190771D01*
X81269887Y-150190771D02*
X81222268Y-150286009D01*
X81222268Y-150286009D02*
X81222268Y-150809819D01*
D10*
X53807857Y-81574400D02*
X51522143Y-81574400D01*
X52665000Y-82717257D02*
X52665000Y-80431542D01*
X78394400Y-195202142D02*
X78394400Y-197487857D01*
X90807857Y-36824400D02*
X88522143Y-36824400D01*
X89665000Y-37967257D02*
X89665000Y-35681542D01*
D14*
X97060839Y-24072200D02*
X96917982Y-24119819D01*
X96917982Y-24119819D02*
X96679887Y-24119819D01*
X96679887Y-24119819D02*
X96584649Y-24072200D01*
X96584649Y-24072200D02*
X96537030Y-24024580D01*
X96537030Y-24024580D02*
X96489411Y-23929342D01*
X96489411Y-23929342D02*
X96489411Y-23834104D01*
X96489411Y-23834104D02*
X96537030Y-23738866D01*
X96537030Y-23738866D02*
X96584649Y-23691247D01*
X96584649Y-23691247D02*
X96679887Y-23643628D01*
X96679887Y-23643628D02*
X96870363Y-23596009D01*
X96870363Y-23596009D02*
X96965601Y-23548390D01*
X96965601Y-23548390D02*
X97013220Y-23500771D01*
X97013220Y-23500771D02*
X97060839Y-23405533D01*
X97060839Y-23405533D02*
X97060839Y-23310295D01*
X97060839Y-23310295D02*
X97013220Y-23215057D01*
X97013220Y-23215057D02*
X96965601Y-23167438D01*
X96965601Y-23167438D02*
X96870363Y-23119819D01*
X96870363Y-23119819D02*
X96632268Y-23119819D01*
X96632268Y-23119819D02*
X96489411Y-23167438D01*
X95489411Y-24024580D02*
X95537030Y-24072200D01*
X95537030Y-24072200D02*
X95679887Y-24119819D01*
X95679887Y-24119819D02*
X95775125Y-24119819D01*
X95775125Y-24119819D02*
X95917982Y-24072200D01*
X95917982Y-24072200D02*
X96013220Y-23976961D01*
X96013220Y-23976961D02*
X96060839Y-23881723D01*
X96060839Y-23881723D02*
X96108458Y-23691247D01*
X96108458Y-23691247D02*
X96108458Y-23548390D01*
X96108458Y-23548390D02*
X96060839Y-23357914D01*
X96060839Y-23357914D02*
X96013220Y-23262676D01*
X96013220Y-23262676D02*
X95917982Y-23167438D01*
X95917982Y-23167438D02*
X95775125Y-23119819D01*
X95775125Y-23119819D02*
X95679887Y-23119819D01*
X95679887Y-23119819D02*
X95537030Y-23167438D01*
X95537030Y-23167438D02*
X95489411Y-23215057D01*
X94537030Y-24119819D02*
X95108458Y-24119819D01*
X94822744Y-24119819D02*
X94822744Y-23119819D01*
X94822744Y-23119819D02*
X94917982Y-23262676D01*
X94917982Y-23262676D02*
X95013220Y-23357914D01*
X95013220Y-23357914D02*
X95108458Y-23405533D01*
X94108458Y-23738866D02*
X93346554Y-23738866D01*
X92441792Y-23119819D02*
X92632268Y-23119819D01*
X92632268Y-23119819D02*
X92727506Y-23167438D01*
X92727506Y-23167438D02*
X92775125Y-23215057D01*
X92775125Y-23215057D02*
X92870363Y-23357914D01*
X92870363Y-23357914D02*
X92917982Y-23548390D01*
X92917982Y-23548390D02*
X92917982Y-23929342D01*
X92917982Y-23929342D02*
X92870363Y-24024580D01*
X92870363Y-24024580D02*
X92822744Y-24072200D01*
X92822744Y-24072200D02*
X92727506Y-24119819D01*
X92727506Y-24119819D02*
X92537030Y-24119819D01*
X92537030Y-24119819D02*
X92441792Y-24072200D01*
X92441792Y-24072200D02*
X92394173Y-24024580D01*
X92394173Y-24024580D02*
X92346554Y-23929342D01*
X92346554Y-23929342D02*
X92346554Y-23691247D01*
X92346554Y-23691247D02*
X92394173Y-23596009D01*
X92394173Y-23596009D02*
X92441792Y-23548390D01*
X92441792Y-23548390D02*
X92537030Y-23500771D01*
X92537030Y-23500771D02*
X92727506Y-23500771D01*
X92727506Y-23500771D02*
X92822744Y-23548390D01*
X92822744Y-23548390D02*
X92870363Y-23596009D01*
X92870363Y-23596009D02*
X92917982Y-23691247D01*
X92156078Y-24215057D02*
X91394173Y-24215057D01*
X91156077Y-23738866D02*
X90394173Y-23738866D01*
X90775125Y-24119819D02*
X90775125Y-23357914D01*
D10*
X102057857Y-163574400D02*
X99772143Y-163574400D01*
X100915000Y-164717257D02*
X100915000Y-162431542D01*
D12*
X68865400Y-171961279D02*
X68865400Y-170818422D01*
X68865400Y-170104136D02*
X68865400Y-168961279D01*
X68865400Y-168246993D02*
X68865400Y-167104136D01*
D10*
X104391190Y-160159400D02*
X104105476Y-160254638D01*
X104105476Y-160254638D02*
X103629285Y-160254638D01*
X103629285Y-160254638D02*
X103438809Y-160159400D01*
X103438809Y-160159400D02*
X103343571Y-160064161D01*
X103343571Y-160064161D02*
X103248333Y-159873685D01*
X103248333Y-159873685D02*
X103248333Y-159683209D01*
X103248333Y-159683209D02*
X103343571Y-159492733D01*
X103343571Y-159492733D02*
X103438809Y-159397495D01*
X103438809Y-159397495D02*
X103629285Y-159302257D01*
X103629285Y-159302257D02*
X104010238Y-159207019D01*
X104010238Y-159207019D02*
X104200714Y-159111780D01*
X104200714Y-159111780D02*
X104295952Y-159016542D01*
X104295952Y-159016542D02*
X104391190Y-158826066D01*
X104391190Y-158826066D02*
X104391190Y-158635590D01*
X104391190Y-158635590D02*
X104295952Y-158445114D01*
X104295952Y-158445114D02*
X104200714Y-158349876D01*
X104200714Y-158349876D02*
X104010238Y-158254638D01*
X104010238Y-158254638D02*
X103534047Y-158254638D01*
X103534047Y-158254638D02*
X103248333Y-158349876D01*
X101248333Y-160064161D02*
X101343571Y-160159400D01*
X101343571Y-160159400D02*
X101629285Y-160254638D01*
X101629285Y-160254638D02*
X101819761Y-160254638D01*
X101819761Y-160254638D02*
X102105476Y-160159400D01*
X102105476Y-160159400D02*
X102295952Y-159968923D01*
X102295952Y-159968923D02*
X102391190Y-159778447D01*
X102391190Y-159778447D02*
X102486428Y-159397495D01*
X102486428Y-159397495D02*
X102486428Y-159111780D01*
X102486428Y-159111780D02*
X102391190Y-158730828D01*
X102391190Y-158730828D02*
X102295952Y-158540352D01*
X102295952Y-158540352D02*
X102105476Y-158349876D01*
X102105476Y-158349876D02*
X101819761Y-158254638D01*
X101819761Y-158254638D02*
X101629285Y-158254638D01*
X101629285Y-158254638D02*
X101343571Y-158349876D01*
X101343571Y-158349876D02*
X101248333Y-158445114D01*
X99343571Y-160254638D02*
X100486428Y-160254638D01*
X99915000Y-160254638D02*
X99915000Y-158254638D01*
X99915000Y-158254638D02*
X100105476Y-158540352D01*
X100105476Y-158540352D02*
X100295952Y-158730828D01*
X100295952Y-158730828D02*
X100486428Y-158826066D01*
X98105476Y-158254638D02*
X97914999Y-158254638D01*
X97914999Y-158254638D02*
X97724523Y-158349876D01*
X97724523Y-158349876D02*
X97629285Y-158445114D01*
X97629285Y-158445114D02*
X97534047Y-158635590D01*
X97534047Y-158635590D02*
X97438809Y-159016542D01*
X97438809Y-159016542D02*
X97438809Y-159492733D01*
X97438809Y-159492733D02*
X97534047Y-159873685D01*
X97534047Y-159873685D02*
X97629285Y-160064161D01*
X97629285Y-160064161D02*
X97724523Y-160159400D01*
X97724523Y-160159400D02*
X97914999Y-160254638D01*
X97914999Y-160254638D02*
X98105476Y-160254638D01*
X98105476Y-160254638D02*
X98295952Y-160159400D01*
X98295952Y-160159400D02*
X98391190Y-160064161D01*
X98391190Y-160064161D02*
X98486428Y-159873685D01*
X98486428Y-159873685D02*
X98581666Y-159492733D01*
X98581666Y-159492733D02*
X98581666Y-159016542D01*
X98581666Y-159016542D02*
X98486428Y-158635590D01*
X98486428Y-158635590D02*
X98391190Y-158445114D01*
X98391190Y-158445114D02*
X98295952Y-158349876D01*
X98295952Y-158349876D02*
X98105476Y-158254638D01*
D11*
X65078272Y-167751797D02*
X64744939Y-167518464D01*
X65078272Y-167351797D02*
X64378272Y-167351797D01*
X64378272Y-167351797D02*
X64378272Y-167618464D01*
X64378272Y-167618464D02*
X64411605Y-167685131D01*
X64411605Y-167685131D02*
X64444939Y-167718464D01*
X64444939Y-167718464D02*
X64511605Y-167751797D01*
X64511605Y-167751797D02*
X64611605Y-167751797D01*
X64611605Y-167751797D02*
X64678272Y-167718464D01*
X64678272Y-167718464D02*
X64711605Y-167685131D01*
X64711605Y-167685131D02*
X64744939Y-167618464D01*
X64744939Y-167618464D02*
X64744939Y-167351797D01*
X64711605Y-168051797D02*
X64711605Y-168285131D01*
X65078272Y-168385131D02*
X65078272Y-168051797D01*
X65078272Y-168051797D02*
X64378272Y-168051797D01*
X64378272Y-168051797D02*
X64378272Y-168385131D01*
X64711605Y-168918464D02*
X64711605Y-168685130D01*
X65078272Y-168685130D02*
X64378272Y-168685130D01*
X64378272Y-168685130D02*
X64378272Y-169018464D01*
X65144939Y-169118464D02*
X65144939Y-169651797D01*
X66205233Y-167351797D02*
X65505233Y-167351797D01*
X65505233Y-167351797D02*
X65505233Y-167518464D01*
X65505233Y-167518464D02*
X65538566Y-167618464D01*
X65538566Y-167618464D02*
X65605233Y-167685131D01*
X65605233Y-167685131D02*
X65671900Y-167718464D01*
X65671900Y-167718464D02*
X65805233Y-167751797D01*
X65805233Y-167751797D02*
X65905233Y-167751797D01*
X65905233Y-167751797D02*
X66038566Y-167718464D01*
X66038566Y-167718464D02*
X66105233Y-167685131D01*
X66105233Y-167685131D02*
X66171900Y-167618464D01*
X66171900Y-167618464D02*
X66205233Y-167518464D01*
X66205233Y-167518464D02*
X66205233Y-167351797D01*
X65838566Y-168051797D02*
X65838566Y-168285131D01*
X66205233Y-168385131D02*
X66205233Y-168051797D01*
X66205233Y-168051797D02*
X65505233Y-168051797D01*
X65505233Y-168051797D02*
X65505233Y-168385131D01*
X65505233Y-168585130D02*
X65505233Y-168985130D01*
X66205233Y-168785130D02*
X65505233Y-168785130D01*
X65838566Y-169218463D02*
X65838566Y-169451797D01*
X66205233Y-169551797D02*
X66205233Y-169218463D01*
X66205233Y-169218463D02*
X65505233Y-169218463D01*
X65505233Y-169218463D02*
X65505233Y-169551797D01*
X66138566Y-170251796D02*
X66171900Y-170218463D01*
X66171900Y-170218463D02*
X66205233Y-170118463D01*
X66205233Y-170118463D02*
X66205233Y-170051796D01*
X66205233Y-170051796D02*
X66171900Y-169951796D01*
X66171900Y-169951796D02*
X66105233Y-169885130D01*
X66105233Y-169885130D02*
X66038566Y-169851796D01*
X66038566Y-169851796D02*
X65905233Y-169818463D01*
X65905233Y-169818463D02*
X65805233Y-169818463D01*
X65805233Y-169818463D02*
X65671900Y-169851796D01*
X65671900Y-169851796D02*
X65605233Y-169885130D01*
X65605233Y-169885130D02*
X65538566Y-169951796D01*
X65538566Y-169951796D02*
X65505233Y-170051796D01*
X65505233Y-170051796D02*
X65505233Y-170118463D01*
X65505233Y-170118463D02*
X65538566Y-170218463D01*
X65538566Y-170218463D02*
X65571900Y-170251796D01*
X65505233Y-170451796D02*
X65505233Y-170851796D01*
X66205233Y-170651796D02*
X65505233Y-170651796D01*
X75588566Y-167648464D02*
X75555233Y-167581797D01*
X75555233Y-167581797D02*
X75555233Y-167481797D01*
X75555233Y-167481797D02*
X75588566Y-167381797D01*
X75588566Y-167381797D02*
X75655233Y-167315131D01*
X75655233Y-167315131D02*
X75721900Y-167281797D01*
X75721900Y-167281797D02*
X75855233Y-167248464D01*
X75855233Y-167248464D02*
X75955233Y-167248464D01*
X75955233Y-167248464D02*
X76088566Y-167281797D01*
X76088566Y-167281797D02*
X76155233Y-167315131D01*
X76155233Y-167315131D02*
X76221900Y-167381797D01*
X76221900Y-167381797D02*
X76255233Y-167481797D01*
X76255233Y-167481797D02*
X76255233Y-167548464D01*
X76255233Y-167548464D02*
X76221900Y-167648464D01*
X76221900Y-167648464D02*
X76188566Y-167681797D01*
X76188566Y-167681797D02*
X75955233Y-167681797D01*
X75955233Y-167681797D02*
X75955233Y-167548464D01*
X76255233Y-167981797D02*
X75555233Y-167981797D01*
X75555233Y-167981797D02*
X76255233Y-168381797D01*
X76255233Y-168381797D02*
X75555233Y-168381797D01*
X76255233Y-168715130D02*
X75555233Y-168715130D01*
X75555233Y-168715130D02*
X75555233Y-168881797D01*
X75555233Y-168881797D02*
X75588566Y-168981797D01*
X75588566Y-168981797D02*
X75655233Y-169048464D01*
X75655233Y-169048464D02*
X75721900Y-169081797D01*
X75721900Y-169081797D02*
X75855233Y-169115130D01*
X75855233Y-169115130D02*
X75955233Y-169115130D01*
X75955233Y-169115130D02*
X76088566Y-169081797D01*
X76088566Y-169081797D02*
X76155233Y-169048464D01*
X76155233Y-169048464D02*
X76221900Y-168981797D01*
X76221900Y-168981797D02*
X76255233Y-168881797D01*
X76255233Y-168881797D02*
X76255233Y-168715130D01*
X76255233Y-169815130D02*
X75921900Y-169581797D01*
X76255233Y-169415130D02*
X75555233Y-169415130D01*
X75555233Y-169415130D02*
X75555233Y-169681797D01*
X75555233Y-169681797D02*
X75588566Y-169748464D01*
X75588566Y-169748464D02*
X75621900Y-169781797D01*
X75621900Y-169781797D02*
X75688566Y-169815130D01*
X75688566Y-169815130D02*
X75788566Y-169815130D01*
X75788566Y-169815130D02*
X75855233Y-169781797D01*
X75855233Y-169781797D02*
X75888566Y-169748464D01*
X75888566Y-169748464D02*
X75921900Y-169681797D01*
X75921900Y-169681797D02*
X75921900Y-169415130D01*
X75888566Y-170115130D02*
X75888566Y-170348464D01*
X76255233Y-170448464D02*
X76255233Y-170115130D01*
X76255233Y-170115130D02*
X75555233Y-170115130D01*
X75555233Y-170115130D02*
X75555233Y-170448464D01*
X75888566Y-170981797D02*
X75888566Y-170748463D01*
X76255233Y-170748463D02*
X75555233Y-170748463D01*
X75555233Y-170748463D02*
X75555233Y-171081797D01*
D14*
X74639411Y-23567438D02*
X74734649Y-23519819D01*
X74734649Y-23519819D02*
X74877506Y-23519819D01*
X74877506Y-23519819D02*
X75020363Y-23567438D01*
X75020363Y-23567438D02*
X75115601Y-23662676D01*
X75115601Y-23662676D02*
X75163220Y-23757914D01*
X75163220Y-23757914D02*
X75210839Y-23948390D01*
X75210839Y-23948390D02*
X75210839Y-24091247D01*
X75210839Y-24091247D02*
X75163220Y-24281723D01*
X75163220Y-24281723D02*
X75115601Y-24376961D01*
X75115601Y-24376961D02*
X75020363Y-24472200D01*
X75020363Y-24472200D02*
X74877506Y-24519819D01*
X74877506Y-24519819D02*
X74782268Y-24519819D01*
X74782268Y-24519819D02*
X74639411Y-24472200D01*
X74639411Y-24472200D02*
X74591792Y-24424580D01*
X74591792Y-24424580D02*
X74591792Y-24091247D01*
X74591792Y-24091247D02*
X74782268Y-24091247D01*
X74163220Y-24519819D02*
X74163220Y-23519819D01*
X74163220Y-23519819D02*
X73591792Y-24519819D01*
X73591792Y-24519819D02*
X73591792Y-23519819D01*
X73115601Y-24519819D02*
X73115601Y-23519819D01*
X73115601Y-23519819D02*
X72877506Y-23519819D01*
X72877506Y-23519819D02*
X72734649Y-23567438D01*
X72734649Y-23567438D02*
X72639411Y-23662676D01*
X72639411Y-23662676D02*
X72591792Y-23757914D01*
X72591792Y-23757914D02*
X72544173Y-23948390D01*
X72544173Y-23948390D02*
X72544173Y-24091247D01*
X72544173Y-24091247D02*
X72591792Y-24281723D01*
X72591792Y-24281723D02*
X72639411Y-24376961D01*
X72639411Y-24376961D02*
X72734649Y-24472200D01*
X72734649Y-24472200D02*
X72877506Y-24519819D01*
X72877506Y-24519819D02*
X73115601Y-24519819D01*
D10*
X78144400Y-218452142D02*
X78144400Y-220737857D01*
D12*
X75015400Y-171961279D02*
X75015400Y-170818422D01*
X75015400Y-170104136D02*
X75015400Y-168961279D01*
X75015400Y-168246993D02*
X75015400Y-167104136D01*
D10*
X92188809Y-40659400D02*
X91903095Y-40754638D01*
X91903095Y-40754638D02*
X91426904Y-40754638D01*
X91426904Y-40754638D02*
X91236428Y-40659400D01*
X91236428Y-40659400D02*
X91141190Y-40564161D01*
X91141190Y-40564161D02*
X91045952Y-40373685D01*
X91045952Y-40373685D02*
X91045952Y-40183209D01*
X91045952Y-40183209D02*
X91141190Y-39992733D01*
X91141190Y-39992733D02*
X91236428Y-39897495D01*
X91236428Y-39897495D02*
X91426904Y-39802257D01*
X91426904Y-39802257D02*
X91807857Y-39707019D01*
X91807857Y-39707019D02*
X91998333Y-39611780D01*
X91998333Y-39611780D02*
X92093571Y-39516542D01*
X92093571Y-39516542D02*
X92188809Y-39326066D01*
X92188809Y-39326066D02*
X92188809Y-39135590D01*
X92188809Y-39135590D02*
X92093571Y-38945114D01*
X92093571Y-38945114D02*
X91998333Y-38849876D01*
X91998333Y-38849876D02*
X91807857Y-38754638D01*
X91807857Y-38754638D02*
X91331666Y-38754638D01*
X91331666Y-38754638D02*
X91045952Y-38849876D01*
X89045952Y-40564161D02*
X89141190Y-40659400D01*
X89141190Y-40659400D02*
X89426904Y-40754638D01*
X89426904Y-40754638D02*
X89617380Y-40754638D01*
X89617380Y-40754638D02*
X89903095Y-40659400D01*
X89903095Y-40659400D02*
X90093571Y-40468923D01*
X90093571Y-40468923D02*
X90188809Y-40278447D01*
X90188809Y-40278447D02*
X90284047Y-39897495D01*
X90284047Y-39897495D02*
X90284047Y-39611780D01*
X90284047Y-39611780D02*
X90188809Y-39230828D01*
X90188809Y-39230828D02*
X90093571Y-39040352D01*
X90093571Y-39040352D02*
X89903095Y-38849876D01*
X89903095Y-38849876D02*
X89617380Y-38754638D01*
X89617380Y-38754638D02*
X89426904Y-38754638D01*
X89426904Y-38754638D02*
X89141190Y-38849876D01*
X89141190Y-38849876D02*
X89045952Y-38945114D01*
X88379285Y-38754638D02*
X87045952Y-38754638D01*
X87045952Y-38754638D02*
X87903095Y-40754638D01*
D11*
G36*
X74262733Y-168867597D02*
G01*
X74240421Y-168934531D01*
X74198401Y-168976551D01*
X74153022Y-168999240D01*
X74039459Y-169027630D01*
X73961006Y-169027630D01*
X73847439Y-168999238D01*
X73802063Y-168976550D01*
X73760044Y-168934531D01*
X73737733Y-168867597D01*
X73737733Y-168802630D01*
X74262733Y-168802630D01*
X74262733Y-168867597D01*
G37*
G36*
X74525233Y-169290130D02*
G01*
X73475233Y-169290130D01*
X73475233Y-168715130D01*
X73562733Y-168715130D01*
X73562733Y-168881797D01*
X73563583Y-168890436D01*
X73563420Y-168892741D01*
X73564109Y-168895772D01*
X73564414Y-168898867D01*
X73565298Y-168901001D01*
X73567223Y-168909467D01*
X73600556Y-169009467D01*
X73607549Y-169025129D01*
X73609607Y-169027502D01*
X73610812Y-169030410D01*
X73621694Y-169043669D01*
X73688361Y-169110336D01*
X73695071Y-169115843D01*
X73696586Y-169117589D01*
X73699218Y-169119246D01*
X73701620Y-169121217D01*
X73703752Y-169122100D01*
X73711102Y-169126727D01*
X73777770Y-169160060D01*
X73779017Y-169160537D01*
X73779526Y-169160914D01*
X73786698Y-169163476D01*
X73793789Y-169166190D01*
X73794417Y-169166234D01*
X73795678Y-169166685D01*
X73929011Y-169200017D01*
X73931969Y-169200454D01*
X73933163Y-169200949D01*
X73939590Y-169201581D01*
X73945979Y-169202527D01*
X73947256Y-169202336D01*
X73950233Y-169202630D01*
X74050233Y-169202630D01*
X74053209Y-169202336D01*
X74054487Y-169202527D01*
X74060883Y-169201581D01*
X74067303Y-169200949D01*
X74068493Y-169200455D01*
X74071455Y-169200018D01*
X74204787Y-169166685D01*
X74206047Y-169166234D01*
X74206677Y-169166190D01*
X74213779Y-169163472D01*
X74220940Y-169160914D01*
X74221447Y-169160538D01*
X74222697Y-169160060D01*
X74289364Y-169126727D01*
X74296709Y-169122103D01*
X74298846Y-169121218D01*
X74301251Y-169119243D01*
X74303880Y-169117589D01*
X74305392Y-169115845D01*
X74312105Y-169110336D01*
X74378772Y-169043669D01*
X74389653Y-169030410D01*
X74390856Y-169027505D01*
X74392917Y-169025129D01*
X74399910Y-169009467D01*
X74433243Y-168909467D01*
X74435167Y-168901001D01*
X74436052Y-168898867D01*
X74436356Y-168895772D01*
X74437046Y-168892741D01*
X74436882Y-168890436D01*
X74437733Y-168881797D01*
X74437733Y-168715130D01*
X74436052Y-168698060D01*
X74422987Y-168666518D01*
X74398845Y-168642376D01*
X74367303Y-168629311D01*
X74350233Y-168627630D01*
X73650233Y-168627630D01*
X73633163Y-168629311D01*
X73601621Y-168642376D01*
X73577479Y-168666518D01*
X73564414Y-168698060D01*
X73562733Y-168715130D01*
X73475233Y-168715130D01*
X73475233Y-167987908D01*
X73562947Y-167987908D01*
X73564414Y-167993287D01*
X73564414Y-167998867D01*
X73568868Y-168009621D01*
X73571930Y-168020847D01*
X73575344Y-168025256D01*
X73577479Y-168030409D01*
X73585706Y-168038636D01*
X73592834Y-168047840D01*
X73599987Y-168052917D01*
X73601621Y-168054551D01*
X73603224Y-168055215D01*
X73606821Y-168057768D01*
X74020747Y-168294297D01*
X73650233Y-168294297D01*
X73633163Y-168295978D01*
X73601621Y-168309043D01*
X73577479Y-168333185D01*
X73564414Y-168364727D01*
X73564414Y-168398867D01*
X73577479Y-168430409D01*
X73601621Y-168454551D01*
X73633163Y-168467616D01*
X73650233Y-168469297D01*
X74350233Y-168469297D01*
X74354620Y-168468864D01*
X74356344Y-168469084D01*
X74358574Y-168468475D01*
X74367303Y-168467616D01*
X74378055Y-168463162D01*
X74389283Y-168460100D01*
X74393692Y-168456685D01*
X74398845Y-168454551D01*
X74407072Y-168446323D01*
X74416276Y-168439196D01*
X74419043Y-168434352D01*
X74422987Y-168430409D01*
X74427439Y-168419659D01*
X74433214Y-168409554D01*
X74433917Y-168404019D01*
X74436052Y-168398867D01*
X74436052Y-168387232D01*
X74437520Y-168375686D01*
X74436052Y-168370303D01*
X74436052Y-168364727D01*
X74431598Y-168353974D01*
X74428536Y-168342747D01*
X74425121Y-168338337D01*
X74422987Y-168333185D01*
X74414759Y-168324957D01*
X74407632Y-168315754D01*
X74400478Y-168310676D01*
X74398845Y-168309043D01*
X74397241Y-168308378D01*
X74393645Y-168305826D01*
X73979719Y-168069297D01*
X74350233Y-168069297D01*
X74367303Y-168067616D01*
X74398845Y-168054551D01*
X74422987Y-168030409D01*
X74436052Y-167998867D01*
X74436052Y-167964727D01*
X74422987Y-167933185D01*
X74398845Y-167909043D01*
X74367303Y-167895978D01*
X74350233Y-167894297D01*
X73650233Y-167894297D01*
X73645841Y-167894729D01*
X73644122Y-167894511D01*
X73641896Y-167895117D01*
X73633163Y-167895978D01*
X73622408Y-167900432D01*
X73611183Y-167903494D01*
X73606773Y-167906908D01*
X73601621Y-167909043D01*
X73593393Y-167917270D01*
X73584190Y-167924398D01*
X73581422Y-167929241D01*
X73577479Y-167933185D01*
X73573026Y-167943934D01*
X73567252Y-167954040D01*
X73566548Y-167959573D01*
X73564414Y-167964727D01*
X73564414Y-167976366D01*
X73562947Y-167987908D01*
X73475233Y-167987908D01*
X73475233Y-167481797D01*
X73562733Y-167481797D01*
X73562733Y-167581797D01*
X73564414Y-167598867D01*
X73565617Y-167601771D01*
X73565840Y-167604908D01*
X73571970Y-167620928D01*
X73605303Y-167687595D01*
X73614441Y-167702111D01*
X73640232Y-167724480D01*
X73672622Y-167735277D01*
X73706677Y-167732857D01*
X73737213Y-167717589D01*
X73759582Y-167691798D01*
X73770379Y-167659408D01*
X73767959Y-167625353D01*
X73761829Y-167609334D01*
X73737733Y-167561140D01*
X73737733Y-167495996D01*
X73760044Y-167429062D01*
X73802064Y-167387042D01*
X73847436Y-167364356D01*
X73961006Y-167335964D01*
X74039459Y-167335964D01*
X74153024Y-167364354D01*
X74198402Y-167387043D01*
X74240421Y-167429062D01*
X74262733Y-167495996D01*
X74262733Y-167534264D01*
X74242722Y-167594297D01*
X74137733Y-167594297D01*
X74137733Y-167548464D01*
X74136052Y-167531394D01*
X74122987Y-167499852D01*
X74098845Y-167475710D01*
X74067303Y-167462645D01*
X74033163Y-167462645D01*
X74001621Y-167475710D01*
X73977479Y-167499852D01*
X73964414Y-167531394D01*
X73962733Y-167548464D01*
X73962733Y-167681797D01*
X73964414Y-167698867D01*
X73977479Y-167730409D01*
X74001621Y-167754551D01*
X74033163Y-167767616D01*
X74050233Y-167769297D01*
X74283566Y-167769297D01*
X74300636Y-167767616D01*
X74332178Y-167754551D01*
X74332179Y-167754550D01*
X74345437Y-167743670D01*
X74378771Y-167710337D01*
X74389653Y-167697078D01*
X74390857Y-167694170D01*
X74392917Y-167691796D01*
X74399910Y-167676134D01*
X74433243Y-167576134D01*
X74435167Y-167567668D01*
X74436052Y-167565534D01*
X74436356Y-167562439D01*
X74437046Y-167559408D01*
X74436882Y-167557103D01*
X74437733Y-167548464D01*
X74437733Y-167481797D01*
X74436882Y-167473157D01*
X74437046Y-167470853D01*
X74436356Y-167467821D01*
X74436052Y-167464727D01*
X74435167Y-167462592D01*
X74433243Y-167454127D01*
X74399910Y-167354127D01*
X74392917Y-167338465D01*
X74390856Y-167336089D01*
X74389653Y-167333184D01*
X74378772Y-167319925D01*
X74312104Y-167253259D01*
X74305398Y-167247755D01*
X74303881Y-167246006D01*
X74301245Y-167244347D01*
X74298845Y-167242377D01*
X74296710Y-167241492D01*
X74289364Y-167236869D01*
X74222698Y-167203535D01*
X74221448Y-167203056D01*
X74220940Y-167202680D01*
X74213777Y-167200121D01*
X74206678Y-167197404D01*
X74206046Y-167197359D01*
X74204787Y-167196909D01*
X74071455Y-167163576D01*
X74068493Y-167163138D01*
X74067303Y-167162645D01*
X74060883Y-167162012D01*
X74054487Y-167161067D01*
X74053209Y-167161257D01*
X74050233Y-167160964D01*
X73950233Y-167160964D01*
X73947256Y-167161257D01*
X73945979Y-167161067D01*
X73939590Y-167162012D01*
X73933163Y-167162645D01*
X73931969Y-167163139D01*
X73929011Y-167163577D01*
X73795678Y-167196909D01*
X73794417Y-167197359D01*
X73793788Y-167197404D01*
X73786694Y-167200118D01*
X73779526Y-167202680D01*
X73779017Y-167203056D01*
X73777768Y-167203535D01*
X73711101Y-167236869D01*
X73703754Y-167241493D01*
X73701621Y-167242377D01*
X73699219Y-167244347D01*
X73696585Y-167246006D01*
X73695069Y-167247753D01*
X73688362Y-167253258D01*
X73621695Y-167319925D01*
X73610813Y-167333184D01*
X73609609Y-167336089D01*
X73607549Y-167338465D01*
X73600556Y-167354127D01*
X73567223Y-167454127D01*
X73565298Y-167462592D01*
X73564414Y-167464727D01*
X73564109Y-167467821D01*
X73563420Y-167470853D01*
X73563583Y-167473157D01*
X73562733Y-167481797D01*
X73475233Y-167481797D01*
X73475233Y-167073464D01*
X74525233Y-167073464D01*
X74525233Y-169290130D01*
G37*
D10*
X55188809Y-78909400D02*
X54903095Y-79004638D01*
X54903095Y-79004638D02*
X54426904Y-79004638D01*
X54426904Y-79004638D02*
X54236428Y-78909400D01*
X54236428Y-78909400D02*
X54141190Y-78814161D01*
X54141190Y-78814161D02*
X54045952Y-78623685D01*
X54045952Y-78623685D02*
X54045952Y-78433209D01*
X54045952Y-78433209D02*
X54141190Y-78242733D01*
X54141190Y-78242733D02*
X54236428Y-78147495D01*
X54236428Y-78147495D02*
X54426904Y-78052257D01*
X54426904Y-78052257D02*
X54807857Y-77957019D01*
X54807857Y-77957019D02*
X54998333Y-77861780D01*
X54998333Y-77861780D02*
X55093571Y-77766542D01*
X55093571Y-77766542D02*
X55188809Y-77576066D01*
X55188809Y-77576066D02*
X55188809Y-77385590D01*
X55188809Y-77385590D02*
X55093571Y-77195114D01*
X55093571Y-77195114D02*
X54998333Y-77099876D01*
X54998333Y-77099876D02*
X54807857Y-77004638D01*
X54807857Y-77004638D02*
X54331666Y-77004638D01*
X54331666Y-77004638D02*
X54045952Y-77099876D01*
X52045952Y-78814161D02*
X52141190Y-78909400D01*
X52141190Y-78909400D02*
X52426904Y-79004638D01*
X52426904Y-79004638D02*
X52617380Y-79004638D01*
X52617380Y-79004638D02*
X52903095Y-78909400D01*
X52903095Y-78909400D02*
X53093571Y-78718923D01*
X53093571Y-78718923D02*
X53188809Y-78528447D01*
X53188809Y-78528447D02*
X53284047Y-78147495D01*
X53284047Y-78147495D02*
X53284047Y-77861780D01*
X53284047Y-77861780D02*
X53188809Y-77480828D01*
X53188809Y-77480828D02*
X53093571Y-77290352D01*
X53093571Y-77290352D02*
X52903095Y-77099876D01*
X52903095Y-77099876D02*
X52617380Y-77004638D01*
X52617380Y-77004638D02*
X52426904Y-77004638D01*
X52426904Y-77004638D02*
X52141190Y-77099876D01*
X52141190Y-77099876D02*
X52045952Y-77195114D01*
X51284047Y-77195114D02*
X51188809Y-77099876D01*
X51188809Y-77099876D02*
X50998333Y-77004638D01*
X50998333Y-77004638D02*
X50522142Y-77004638D01*
X50522142Y-77004638D02*
X50331666Y-77099876D01*
X50331666Y-77099876D02*
X50236428Y-77195114D01*
X50236428Y-77195114D02*
X50141190Y-77385590D01*
X50141190Y-77385590D02*
X50141190Y-77576066D01*
X50141190Y-77576066D02*
X50236428Y-77861780D01*
X50236428Y-77861780D02*
X51379285Y-79004638D01*
X51379285Y-79004638D02*
X50141190Y-79004638D01*
D11*
X69522733Y-167164297D02*
X70222733Y-167397631D01*
X70222733Y-167397631D02*
X69522733Y-167630964D01*
X70156066Y-168264297D02*
X70189400Y-168230964D01*
X70189400Y-168230964D02*
X70222733Y-168130964D01*
X70222733Y-168130964D02*
X70222733Y-168064297D01*
X70222733Y-168064297D02*
X70189400Y-167964297D01*
X70189400Y-167964297D02*
X70122733Y-167897631D01*
X70122733Y-167897631D02*
X70056066Y-167864297D01*
X70056066Y-167864297D02*
X69922733Y-167830964D01*
X69922733Y-167830964D02*
X69822733Y-167830964D01*
X69822733Y-167830964D02*
X69689400Y-167864297D01*
X69689400Y-167864297D02*
X69622733Y-167897631D01*
X69622733Y-167897631D02*
X69556066Y-167964297D01*
X69556066Y-167964297D02*
X69522733Y-168064297D01*
X69522733Y-168064297D02*
X69522733Y-168130964D01*
X69522733Y-168130964D02*
X69556066Y-168230964D01*
X69556066Y-168230964D02*
X69589400Y-168264297D01*
X70222733Y-168564297D02*
X69522733Y-168564297D01*
X69856066Y-168564297D02*
X69856066Y-168964297D01*
X70222733Y-168964297D02*
X69522733Y-168964297D01*
X70222733Y-169697630D02*
X69889400Y-169464297D01*
X70222733Y-169297630D02*
X69522733Y-169297630D01*
X69522733Y-169297630D02*
X69522733Y-169564297D01*
X69522733Y-169564297D02*
X69556066Y-169630964D01*
X69556066Y-169630964D02*
X69589400Y-169664297D01*
X69589400Y-169664297D02*
X69656066Y-169697630D01*
X69656066Y-169697630D02*
X69756066Y-169697630D01*
X69756066Y-169697630D02*
X69822733Y-169664297D01*
X69822733Y-169664297D02*
X69856066Y-169630964D01*
X69856066Y-169630964D02*
X69889400Y-169564297D01*
X69889400Y-169564297D02*
X69889400Y-169297630D01*
X69556066Y-170364297D02*
X69522733Y-170297630D01*
X69522733Y-170297630D02*
X69522733Y-170197630D01*
X69522733Y-170197630D02*
X69556066Y-170097630D01*
X69556066Y-170097630D02*
X69622733Y-170030964D01*
X69622733Y-170030964D02*
X69689400Y-169997630D01*
X69689400Y-169997630D02*
X69822733Y-169964297D01*
X69822733Y-169964297D02*
X69922733Y-169964297D01*
X69922733Y-169964297D02*
X70056066Y-169997630D01*
X70056066Y-169997630D02*
X70122733Y-170030964D01*
X70122733Y-170030964D02*
X70189400Y-170097630D01*
X70189400Y-170097630D02*
X70222733Y-170197630D01*
X70222733Y-170197630D02*
X70222733Y-170264297D01*
X70222733Y-170264297D02*
X70189400Y-170364297D01*
X70189400Y-170364297D02*
X70156066Y-170397630D01*
X70156066Y-170397630D02*
X69922733Y-170397630D01*
X69922733Y-170397630D02*
X69922733Y-170264297D01*
D10*
X41022142Y-81865600D02*
X43307857Y-81865600D01*
X71614400Y-77509510D02*
X71614400Y-78652368D01*
X71614400Y-79366653D02*
X71614400Y-80509511D01*
X71614400Y-81223796D02*
X71614400Y-82366654D01*
X71614400Y-83080939D02*
X71614400Y-84223797D01*
X40022142Y-117865600D02*
X42307857Y-117865600D01*
X54217632Y-228230912D02*
X54217632Y-229230912D01*
X54860489Y-228230912D02*
X54860489Y-229016626D01*
X54860489Y-229016626D02*
X54789060Y-229159484D01*
X54789060Y-229159484D02*
X54646203Y-229230912D01*
X54646203Y-229230912D02*
X54431917Y-229230912D01*
X54431917Y-229230912D02*
X54289060Y-229159484D01*
X54289060Y-229159484D02*
X54217632Y-229088055D01*
X53503346Y-229230912D02*
X53503346Y-228230912D01*
X53503346Y-228516626D02*
X53431917Y-228373769D01*
X53431917Y-228373769D02*
X53360489Y-228302341D01*
X53360489Y-228302341D02*
X53217631Y-228230912D01*
X53217631Y-228230912D02*
X53074774Y-228230912D01*
X51431918Y-229230912D02*
X51431918Y-228230912D01*
X51431918Y-228373769D02*
X51360489Y-228302341D01*
X51360489Y-228302341D02*
X51217632Y-228230912D01*
X51217632Y-228230912D02*
X51003346Y-228230912D01*
X51003346Y-228230912D02*
X50860489Y-228302341D01*
X50860489Y-228302341D02*
X50789061Y-228445198D01*
X50789061Y-228445198D02*
X50789061Y-229230912D01*
X50789061Y-228445198D02*
X50717632Y-228302341D01*
X50717632Y-228302341D02*
X50574775Y-228230912D01*
X50574775Y-228230912D02*
X50360489Y-228230912D01*
X50360489Y-228230912D02*
X50217632Y-228302341D01*
X50217632Y-228302341D02*
X50146203Y-228445198D01*
X50146203Y-228445198D02*
X50146203Y-229230912D01*
X49217632Y-229230912D02*
X49360489Y-229159484D01*
X49360489Y-229159484D02*
X49431918Y-229088055D01*
X49431918Y-229088055D02*
X49503346Y-228945198D01*
X49503346Y-228945198D02*
X49503346Y-228516626D01*
X49503346Y-228516626D02*
X49431918Y-228373769D01*
X49431918Y-228373769D02*
X49360489Y-228302341D01*
X49360489Y-228302341D02*
X49217632Y-228230912D01*
X49217632Y-228230912D02*
X49003346Y-228230912D01*
X49003346Y-228230912D02*
X48860489Y-228302341D01*
X48860489Y-228302341D02*
X48789061Y-228373769D01*
X48789061Y-228373769D02*
X48717632Y-228516626D01*
X48717632Y-228516626D02*
X48717632Y-228945198D01*
X48717632Y-228945198D02*
X48789061Y-229088055D01*
X48789061Y-229088055D02*
X48860489Y-229159484D01*
X48860489Y-229159484D02*
X49003346Y-229230912D01*
X49003346Y-229230912D02*
X49217632Y-229230912D01*
X48074775Y-229230912D02*
X48074775Y-228230912D01*
X48074775Y-228373769D02*
X48003346Y-228302341D01*
X48003346Y-228302341D02*
X47860489Y-228230912D01*
X47860489Y-228230912D02*
X47646203Y-228230912D01*
X47646203Y-228230912D02*
X47503346Y-228302341D01*
X47503346Y-228302341D02*
X47431918Y-228445198D01*
X47431918Y-228445198D02*
X47431918Y-229230912D01*
X47431918Y-228445198D02*
X47360489Y-228302341D01*
X47360489Y-228302341D02*
X47217632Y-228230912D01*
X47217632Y-228230912D02*
X47003346Y-228230912D01*
X47003346Y-228230912D02*
X46860489Y-228302341D01*
X46860489Y-228302341D02*
X46789060Y-228445198D01*
X46789060Y-228445198D02*
X46789060Y-229230912D01*
X44503346Y-229802341D02*
X44574775Y-229730912D01*
X44574775Y-229730912D02*
X44717632Y-229516626D01*
X44717632Y-229516626D02*
X44789061Y-229373769D01*
X44789061Y-229373769D02*
X44860489Y-229159484D01*
X44860489Y-229159484D02*
X44931918Y-228802341D01*
X44931918Y-228802341D02*
X44931918Y-228516626D01*
X44931918Y-228516626D02*
X44860489Y-228159484D01*
X44860489Y-228159484D02*
X44789061Y-227945198D01*
X44789061Y-227945198D02*
X44717632Y-227802341D01*
X44717632Y-227802341D02*
X44574775Y-227588055D01*
X44574775Y-227588055D02*
X44503346Y-227516626D01*
X43931918Y-228659484D02*
X42789061Y-228659484D01*
X41074775Y-229588055D02*
X41146203Y-229659484D01*
X41146203Y-229659484D02*
X41360489Y-229802341D01*
X41360489Y-229802341D02*
X41503346Y-229873769D01*
X41503346Y-229873769D02*
X41717632Y-229945198D01*
X41717632Y-229945198D02*
X42074775Y-230016626D01*
X42074775Y-230016626D02*
X42360489Y-230016626D01*
X42360489Y-230016626D02*
X42717632Y-229945198D01*
X42717632Y-229945198D02*
X42931918Y-229873769D01*
X42931918Y-229873769D02*
X43074775Y-229802341D01*
X43074775Y-229802341D02*
X43289060Y-229659484D01*
X43289060Y-229659484D02*
X43360489Y-229588055D01*
X41217632Y-228516626D02*
X41074775Y-228445198D01*
X41074775Y-228445198D02*
X40931918Y-228516626D01*
X40931918Y-228516626D02*
X40860489Y-228659484D01*
X40860489Y-228659484D02*
X40931918Y-228802341D01*
X40931918Y-228802341D02*
X41074775Y-228873769D01*
X41074775Y-228873769D02*
X41217632Y-228802341D01*
X41217632Y-228802341D02*
X41289061Y-228659484D01*
X41289061Y-228659484D02*
X41217632Y-228516626D01*
X38646204Y-228230912D02*
X39789061Y-228659484D01*
X39789061Y-228659484D02*
X38646204Y-229088055D01*
X38074775Y-227730912D02*
X37146203Y-227730912D01*
X37146203Y-227730912D02*
X37646203Y-228302341D01*
X37646203Y-228302341D02*
X37431918Y-228302341D01*
X37431918Y-228302341D02*
X37289061Y-228373769D01*
X37289061Y-228373769D02*
X37217632Y-228445198D01*
X37217632Y-228445198D02*
X37146203Y-228588055D01*
X37146203Y-228588055D02*
X37146203Y-228945198D01*
X37146203Y-228945198D02*
X37217632Y-229088055D01*
X37217632Y-229088055D02*
X37289061Y-229159484D01*
X37289061Y-229159484D02*
X37431918Y-229230912D01*
X37431918Y-229230912D02*
X37860489Y-229230912D01*
X37860489Y-229230912D02*
X38003346Y-229159484D01*
X38003346Y-229159484D02*
X38074775Y-229088055D01*
X36646204Y-229802341D02*
X36574775Y-229730912D01*
X36574775Y-229730912D02*
X36431918Y-229516626D01*
X36431918Y-229516626D02*
X36360490Y-229373769D01*
X36360490Y-229373769D02*
X36289061Y-229159484D01*
X36289061Y-229159484D02*
X36217632Y-228802341D01*
X36217632Y-228802341D02*
X36217632Y-228516626D01*
X36217632Y-228516626D02*
X36289061Y-228159484D01*
X36289061Y-228159484D02*
X36360490Y-227945198D01*
X36360490Y-227945198D02*
X36431918Y-227802341D01*
X36431918Y-227802341D02*
X36574775Y-227588055D01*
X36574775Y-227588055D02*
X36646204Y-227516626D01*
X54431917Y-231145828D02*
X54431917Y-231431542D01*
X54789060Y-230645828D02*
X54860489Y-230717257D01*
X54860489Y-230717257D02*
X54931917Y-230860114D01*
X54931917Y-230860114D02*
X54931917Y-231431542D01*
X54931917Y-231431542D02*
X54860489Y-231574400D01*
X54860489Y-231574400D02*
X54717632Y-231645828D01*
X54717632Y-231645828D02*
X54646203Y-231645828D01*
X54646203Y-231645828D02*
X54503346Y-231574400D01*
X54503346Y-231574400D02*
X54431917Y-231431542D01*
X54431917Y-231431542D02*
X54360489Y-231574400D01*
X54360489Y-231574400D02*
X54217632Y-231645828D01*
X54217632Y-231645828D02*
X54146203Y-231645828D01*
X54146203Y-231645828D02*
X54003346Y-231574400D01*
X54003346Y-231574400D02*
X53931917Y-231431542D01*
X53931917Y-231431542D02*
X53931917Y-230860114D01*
X53931917Y-230860114D02*
X54003346Y-230717257D01*
X54003346Y-230717257D02*
X54074774Y-230645828D01*
X54503346Y-230288685D02*
X54431917Y-230288685D01*
X54431917Y-230288685D02*
X54360489Y-230217257D01*
X54360489Y-230217257D02*
X54360489Y-230074400D01*
X54789060Y-229788685D02*
X54717632Y-229717257D01*
X54717632Y-229717257D02*
X54574774Y-229645828D01*
X54574774Y-229645828D02*
X54289060Y-229788685D01*
X54289060Y-229788685D02*
X54146203Y-229717257D01*
X54146203Y-229717257D02*
X54074774Y-229645828D01*
X51931917Y-230645828D02*
X52289060Y-231645828D01*
X52289060Y-230145828D02*
X52146203Y-230145828D01*
X52146203Y-230145828D02*
X52074774Y-230217257D01*
X52074774Y-230217257D02*
X51931917Y-230645828D01*
X51931917Y-230645828D02*
X51574774Y-231645828D01*
X50146203Y-230645828D02*
X50360489Y-231360114D01*
X50360489Y-231360114D02*
X50431917Y-231502971D01*
X50431917Y-231502971D02*
X50503346Y-231574400D01*
X50503346Y-231574400D02*
X50646203Y-231645828D01*
X50646203Y-231645828D02*
X50789060Y-231645828D01*
X50789060Y-231645828D02*
X50931917Y-231574400D01*
X50931917Y-231574400D02*
X51003346Y-231502971D01*
X51003346Y-231502971D02*
X51074774Y-231288685D01*
X51074774Y-231288685D02*
X51074774Y-231002971D01*
X51074774Y-231002971D02*
X51003346Y-230788685D01*
X51003346Y-230788685D02*
X50931917Y-230717257D01*
X50931917Y-230717257D02*
X50789060Y-230645828D01*
X50789060Y-230645828D02*
X50646203Y-230645828D01*
X50646203Y-230645828D02*
X50503346Y-230717257D01*
X50503346Y-230717257D02*
X50431917Y-230788685D01*
X50431917Y-230788685D02*
X50360489Y-230931542D01*
X50360489Y-230931542D02*
X50289060Y-231431542D01*
X50289060Y-231431542D02*
X50217631Y-231574400D01*
X50217631Y-231574400D02*
X50074774Y-231645828D01*
X49503346Y-230645828D02*
X49503346Y-232145828D01*
X48789060Y-231431542D02*
X48717631Y-231574400D01*
X48717631Y-231574400D02*
X48574774Y-231645828D01*
X49503346Y-231431542D02*
X49431917Y-231574400D01*
X49431917Y-231574400D02*
X49289060Y-231645828D01*
X49289060Y-231645828D02*
X49003346Y-231645828D01*
X49003346Y-231645828D02*
X48860489Y-231574400D01*
X48860489Y-231574400D02*
X48789060Y-231431542D01*
X48789060Y-231431542D02*
X48789060Y-230645828D01*
X47146202Y-230645828D02*
X47146202Y-231645828D01*
X47646202Y-230645828D02*
X47646202Y-231431542D01*
X47646202Y-231431542D02*
X47717631Y-231574400D01*
X47717631Y-231574400D02*
X47860488Y-231645828D01*
X46860488Y-230645828D02*
X47789060Y-230645828D01*
X47789060Y-230645828D02*
X47931917Y-230717257D01*
X47931917Y-230717257D02*
X48003345Y-230860114D01*
X46289060Y-232145828D02*
X46289060Y-230931542D01*
X46289060Y-230931542D02*
X46217631Y-230788685D01*
X46217631Y-230788685D02*
X46146203Y-230717257D01*
X46146203Y-230717257D02*
X46003345Y-230645828D01*
X46003345Y-230645828D02*
X45789060Y-230645828D01*
X45789060Y-230645828D02*
X45646203Y-230717257D01*
X45646203Y-230717257D02*
X45574774Y-230788685D01*
X45574774Y-230788685D02*
X45503345Y-230931542D01*
X45503345Y-230931542D02*
X45503345Y-231360114D01*
X45503345Y-231360114D02*
X45574774Y-231502971D01*
X45574774Y-231502971D02*
X45646203Y-231574400D01*
X45646203Y-231574400D02*
X45789060Y-231645828D01*
X45789060Y-231645828D02*
X46003345Y-231645828D01*
X46003345Y-231645828D02*
X46146203Y-231574400D01*
X46146203Y-231574400D02*
X46289060Y-231431542D01*
X44646203Y-231645828D02*
X44789060Y-231574400D01*
X44789060Y-231574400D02*
X44860489Y-231502971D01*
X44860489Y-231502971D02*
X44931917Y-231360114D01*
X44931917Y-231360114D02*
X44931917Y-230931542D01*
X44931917Y-230931542D02*
X44860489Y-230788685D01*
X44860489Y-230788685D02*
X44789060Y-230717257D01*
X44789060Y-230717257D02*
X44646203Y-230645828D01*
X44646203Y-230645828D02*
X44431917Y-230645828D01*
X44431917Y-230645828D02*
X44289060Y-230717257D01*
X44289060Y-230717257D02*
X44217632Y-230788685D01*
X44217632Y-230788685D02*
X44146203Y-230931542D01*
X44146203Y-230931542D02*
X44146203Y-231360114D01*
X44146203Y-231360114D02*
X44217632Y-231502971D01*
X44217632Y-231502971D02*
X44289060Y-231574400D01*
X44289060Y-231574400D02*
X44431917Y-231645828D01*
X44431917Y-231645828D02*
X44646203Y-231645828D01*
X44360489Y-230074400D02*
X44574774Y-230288685D01*
X42860489Y-230717257D02*
X43003346Y-230645828D01*
X43003346Y-230645828D02*
X43289060Y-230645828D01*
X43289060Y-230645828D02*
X43431917Y-230717257D01*
X43431917Y-230717257D02*
X43503346Y-230788685D01*
X43503346Y-230788685D02*
X43574774Y-230931542D01*
X43574774Y-230931542D02*
X43574774Y-231360114D01*
X43574774Y-231360114D02*
X43503346Y-231502971D01*
X43503346Y-231502971D02*
X43431917Y-231574400D01*
X43431917Y-231574400D02*
X43289060Y-231645828D01*
X43289060Y-231645828D02*
X43074774Y-231645828D01*
X43074774Y-231645828D02*
X42931917Y-231717257D01*
X42931917Y-231717257D02*
X42860489Y-231860114D01*
X42860489Y-231860114D02*
X42860489Y-231931542D01*
X42860489Y-231931542D02*
X42931917Y-232074400D01*
X42931917Y-232074400D02*
X43074774Y-232145828D01*
X41217632Y-230645828D02*
X40860489Y-231645828D01*
X40860489Y-231645828D02*
X40503346Y-230860114D01*
X40503346Y-230860114D02*
X40503346Y-230788685D01*
X40503346Y-230788685D02*
X40574775Y-230645828D01*
X39646203Y-231645828D02*
X39789060Y-231574400D01*
X39789060Y-231574400D02*
X39860489Y-231502971D01*
X39860489Y-231502971D02*
X39931917Y-231360114D01*
X39931917Y-231360114D02*
X39931917Y-230931542D01*
X39931917Y-230931542D02*
X39860489Y-230788685D01*
X39860489Y-230788685D02*
X39789060Y-230717257D01*
X39789060Y-230717257D02*
X39646203Y-230645828D01*
X39646203Y-230645828D02*
X39431917Y-230645828D01*
X39431917Y-230645828D02*
X39289060Y-230717257D01*
X39289060Y-230717257D02*
X39217632Y-230788685D01*
X39217632Y-230788685D02*
X39146203Y-230931542D01*
X39146203Y-230931542D02*
X39146203Y-231360114D01*
X39146203Y-231360114D02*
X39217632Y-231502971D01*
X39217632Y-231502971D02*
X39289060Y-231574400D01*
X39289060Y-231574400D02*
X39431917Y-231645828D01*
X39431917Y-231645828D02*
X39646203Y-231645828D01*
X39360489Y-230074400D02*
X39574774Y-230288685D01*
X38289060Y-230645828D02*
X38646203Y-231645828D01*
X38646203Y-230145828D02*
X38503346Y-230145828D01*
X38503346Y-230145828D02*
X38431917Y-230217257D01*
X38431917Y-230217257D02*
X38289060Y-230645828D01*
X38289060Y-230645828D02*
X37931917Y-231645828D01*
X36503346Y-230645828D02*
X36717632Y-231360114D01*
X36717632Y-231360114D02*
X36789060Y-231502971D01*
X36789060Y-231502971D02*
X36860489Y-231574400D01*
X36860489Y-231574400D02*
X37003346Y-231645828D01*
X37003346Y-231645828D02*
X37146203Y-231645828D01*
X37146203Y-231645828D02*
X37289060Y-231574400D01*
X37289060Y-231574400D02*
X37360489Y-231502971D01*
X37360489Y-231502971D02*
X37431917Y-231288685D01*
X37431917Y-231288685D02*
X37431917Y-231002971D01*
X37431917Y-231002971D02*
X37360489Y-230788685D01*
X37360489Y-230788685D02*
X37289060Y-230717257D01*
X37289060Y-230717257D02*
X37146203Y-230645828D01*
X37146203Y-230645828D02*
X37003346Y-230645828D01*
X37003346Y-230645828D02*
X36860489Y-230717257D01*
X36860489Y-230717257D02*
X36789060Y-230788685D01*
X36789060Y-230788685D02*
X36717632Y-230931542D01*
X36717632Y-230931542D02*
X36646203Y-231431542D01*
X36646203Y-231431542D02*
X36574774Y-231574400D01*
X36574774Y-231574400D02*
X36431917Y-231645828D01*
X35217632Y-230717257D02*
X35360489Y-230645828D01*
X35360489Y-230645828D02*
X35646203Y-230645828D01*
X35646203Y-230645828D02*
X35789060Y-230717257D01*
X35789060Y-230717257D02*
X35860489Y-230788685D01*
X35860489Y-230788685D02*
X35931917Y-230931542D01*
X35931917Y-230931542D02*
X35931917Y-231360114D01*
X35931917Y-231360114D02*
X35860489Y-231502971D01*
X35860489Y-231502971D02*
X35789060Y-231574400D01*
X35789060Y-231574400D02*
X35646203Y-231645828D01*
X35646203Y-231645828D02*
X35431917Y-231645828D01*
X35431917Y-231645828D02*
X35289060Y-231717257D01*
X35289060Y-231717257D02*
X35217632Y-231860114D01*
X35217632Y-231860114D02*
X35217632Y-231931542D01*
X35217632Y-231931542D02*
X35289060Y-232074400D01*
X35289060Y-232074400D02*
X35431917Y-232145828D01*
X98522142Y-37115600D02*
X100807857Y-37115600D01*
D13*
X69412238Y-80226377D02*
X69364619Y-80131139D01*
X69364619Y-80131139D02*
X69364619Y-79988282D01*
X69364619Y-79988282D02*
X69412238Y-79845425D01*
X69412238Y-79845425D02*
X69507476Y-79750187D01*
X69507476Y-79750187D02*
X69602714Y-79702568D01*
X69602714Y-79702568D02*
X69793190Y-79654949D01*
X69793190Y-79654949D02*
X69936047Y-79654949D01*
X69936047Y-79654949D02*
X70126523Y-79702568D01*
X70126523Y-79702568D02*
X70221761Y-79750187D01*
X70221761Y-79750187D02*
X70317000Y-79845425D01*
X70317000Y-79845425D02*
X70364619Y-79988282D01*
X70364619Y-79988282D02*
X70364619Y-80083520D01*
X70364619Y-80083520D02*
X70317000Y-80226377D01*
X70317000Y-80226377D02*
X70269380Y-80273996D01*
X70269380Y-80273996D02*
X69936047Y-80273996D01*
X69936047Y-80273996D02*
X69936047Y-80083520D01*
X70364619Y-80702568D02*
X69364619Y-80702568D01*
X69364619Y-80702568D02*
X70364619Y-81273996D01*
X70364619Y-81273996D02*
X69364619Y-81273996D01*
X70364619Y-81750187D02*
X69364619Y-81750187D01*
X69364619Y-81750187D02*
X69364619Y-81988282D01*
X69364619Y-81988282D02*
X69412238Y-82131139D01*
X69412238Y-82131139D02*
X69507476Y-82226377D01*
X69507476Y-82226377D02*
X69602714Y-82273996D01*
X69602714Y-82273996D02*
X69793190Y-82321615D01*
X69793190Y-82321615D02*
X69936047Y-82321615D01*
X69936047Y-82321615D02*
X70126523Y-82273996D01*
X70126523Y-82273996D02*
X70221761Y-82226377D01*
X70221761Y-82226377D02*
X70317000Y-82131139D01*
X70317000Y-82131139D02*
X70364619Y-81988282D01*
X70364619Y-81988282D02*
X70364619Y-81750187D01*
D10*
X89272142Y-127615600D02*
X91557857Y-127615600D01*
X75022142Y-63615600D02*
X77307857Y-63615600D01*
D12*
X66965400Y-171961279D02*
X66965400Y-170818422D01*
X66965400Y-170104136D02*
X66965400Y-168961279D01*
X66965400Y-168246993D02*
X66965400Y-167104136D01*
D10*
X87772142Y-91365600D02*
X90057857Y-91365600D01*
X39772142Y-153615600D02*
X42057857Y-153615600D01*
X103438809Y-125159400D02*
X103153095Y-125254638D01*
X103153095Y-125254638D02*
X102676904Y-125254638D01*
X102676904Y-125254638D02*
X102486428Y-125159400D01*
X102486428Y-125159400D02*
X102391190Y-125064161D01*
X102391190Y-125064161D02*
X102295952Y-124873685D01*
X102295952Y-124873685D02*
X102295952Y-124683209D01*
X102295952Y-124683209D02*
X102391190Y-124492733D01*
X102391190Y-124492733D02*
X102486428Y-124397495D01*
X102486428Y-124397495D02*
X102676904Y-124302257D01*
X102676904Y-124302257D02*
X103057857Y-124207019D01*
X103057857Y-124207019D02*
X103248333Y-124111780D01*
X103248333Y-124111780D02*
X103343571Y-124016542D01*
X103343571Y-124016542D02*
X103438809Y-123826066D01*
X103438809Y-123826066D02*
X103438809Y-123635590D01*
X103438809Y-123635590D02*
X103343571Y-123445114D01*
X103343571Y-123445114D02*
X103248333Y-123349876D01*
X103248333Y-123349876D02*
X103057857Y-123254638D01*
X103057857Y-123254638D02*
X102581666Y-123254638D01*
X102581666Y-123254638D02*
X102295952Y-123349876D01*
X100295952Y-125064161D02*
X100391190Y-125159400D01*
X100391190Y-125159400D02*
X100676904Y-125254638D01*
X100676904Y-125254638D02*
X100867380Y-125254638D01*
X100867380Y-125254638D02*
X101153095Y-125159400D01*
X101153095Y-125159400D02*
X101343571Y-124968923D01*
X101343571Y-124968923D02*
X101438809Y-124778447D01*
X101438809Y-124778447D02*
X101534047Y-124397495D01*
X101534047Y-124397495D02*
X101534047Y-124111780D01*
X101534047Y-124111780D02*
X101438809Y-123730828D01*
X101438809Y-123730828D02*
X101343571Y-123540352D01*
X101343571Y-123540352D02*
X101153095Y-123349876D01*
X101153095Y-123349876D02*
X100867380Y-123254638D01*
X100867380Y-123254638D02*
X100676904Y-123254638D01*
X100676904Y-123254638D02*
X100391190Y-123349876D01*
X100391190Y-123349876D02*
X100295952Y-123445114D01*
X99343571Y-125254638D02*
X98962619Y-125254638D01*
X98962619Y-125254638D02*
X98772142Y-125159400D01*
X98772142Y-125159400D02*
X98676904Y-125064161D01*
X98676904Y-125064161D02*
X98486428Y-124778447D01*
X98486428Y-124778447D02*
X98391190Y-124397495D01*
X98391190Y-124397495D02*
X98391190Y-123635590D01*
X98391190Y-123635590D02*
X98486428Y-123445114D01*
X98486428Y-123445114D02*
X98581666Y-123349876D01*
X98581666Y-123349876D02*
X98772142Y-123254638D01*
X98772142Y-123254638D02*
X99153095Y-123254638D01*
X99153095Y-123254638D02*
X99343571Y-123349876D01*
X99343571Y-123349876D02*
X99438809Y-123445114D01*
X99438809Y-123445114D02*
X99534047Y-123635590D01*
X99534047Y-123635590D02*
X99534047Y-124111780D01*
X99534047Y-124111780D02*
X99438809Y-124302257D01*
X99438809Y-124302257D02*
X99343571Y-124397495D01*
X99343571Y-124397495D02*
X99153095Y-124492733D01*
X99153095Y-124492733D02*
X98772142Y-124492733D01*
X98772142Y-124492733D02*
X98581666Y-124397495D01*
X98581666Y-124397495D02*
X98486428Y-124302257D01*
X98486428Y-124302257D02*
X98391190Y-124111780D01*
X53938809Y-150659400D02*
X53653095Y-150754638D01*
X53653095Y-150754638D02*
X53176904Y-150754638D01*
X53176904Y-150754638D02*
X52986428Y-150659400D01*
X52986428Y-150659400D02*
X52891190Y-150564161D01*
X52891190Y-150564161D02*
X52795952Y-150373685D01*
X52795952Y-150373685D02*
X52795952Y-150183209D01*
X52795952Y-150183209D02*
X52891190Y-149992733D01*
X52891190Y-149992733D02*
X52986428Y-149897495D01*
X52986428Y-149897495D02*
X53176904Y-149802257D01*
X53176904Y-149802257D02*
X53557857Y-149707019D01*
X53557857Y-149707019D02*
X53748333Y-149611780D01*
X53748333Y-149611780D02*
X53843571Y-149516542D01*
X53843571Y-149516542D02*
X53938809Y-149326066D01*
X53938809Y-149326066D02*
X53938809Y-149135590D01*
X53938809Y-149135590D02*
X53843571Y-148945114D01*
X53843571Y-148945114D02*
X53748333Y-148849876D01*
X53748333Y-148849876D02*
X53557857Y-148754638D01*
X53557857Y-148754638D02*
X53081666Y-148754638D01*
X53081666Y-148754638D02*
X52795952Y-148849876D01*
X50795952Y-150564161D02*
X50891190Y-150659400D01*
X50891190Y-150659400D02*
X51176904Y-150754638D01*
X51176904Y-150754638D02*
X51367380Y-150754638D01*
X51367380Y-150754638D02*
X51653095Y-150659400D01*
X51653095Y-150659400D02*
X51843571Y-150468923D01*
X51843571Y-150468923D02*
X51938809Y-150278447D01*
X51938809Y-150278447D02*
X52034047Y-149897495D01*
X52034047Y-149897495D02*
X52034047Y-149611780D01*
X52034047Y-149611780D02*
X51938809Y-149230828D01*
X51938809Y-149230828D02*
X51843571Y-149040352D01*
X51843571Y-149040352D02*
X51653095Y-148849876D01*
X51653095Y-148849876D02*
X51367380Y-148754638D01*
X51367380Y-148754638D02*
X51176904Y-148754638D01*
X51176904Y-148754638D02*
X50891190Y-148849876D01*
X50891190Y-148849876D02*
X50795952Y-148945114D01*
X49081666Y-149421304D02*
X49081666Y-150754638D01*
X49557857Y-148659400D02*
X50034047Y-150087971D01*
X50034047Y-150087971D02*
X48795952Y-150087971D01*
D14*
X74055839Y-76312200D02*
X73912982Y-76359819D01*
X73912982Y-76359819D02*
X73674887Y-76359819D01*
X73674887Y-76359819D02*
X73579649Y-76312200D01*
X73579649Y-76312200D02*
X73532030Y-76264580D01*
X73532030Y-76264580D02*
X73484411Y-76169342D01*
X73484411Y-76169342D02*
X73484411Y-76074104D01*
X73484411Y-76074104D02*
X73532030Y-75978866D01*
X73532030Y-75978866D02*
X73579649Y-75931247D01*
X73579649Y-75931247D02*
X73674887Y-75883628D01*
X73674887Y-75883628D02*
X73865363Y-75836009D01*
X73865363Y-75836009D02*
X73960601Y-75788390D01*
X73960601Y-75788390D02*
X74008220Y-75740771D01*
X74008220Y-75740771D02*
X74055839Y-75645533D01*
X74055839Y-75645533D02*
X74055839Y-75550295D01*
X74055839Y-75550295D02*
X74008220Y-75455057D01*
X74008220Y-75455057D02*
X73960601Y-75407438D01*
X73960601Y-75407438D02*
X73865363Y-75359819D01*
X73865363Y-75359819D02*
X73627268Y-75359819D01*
X73627268Y-75359819D02*
X73484411Y-75407438D01*
X72912982Y-76359819D02*
X73008220Y-76312200D01*
X73008220Y-76312200D02*
X73055839Y-76264580D01*
X73055839Y-76264580D02*
X73103458Y-76169342D01*
X73103458Y-76169342D02*
X73103458Y-75883628D01*
X73103458Y-75883628D02*
X73055839Y-75788390D01*
X73055839Y-75788390D02*
X73008220Y-75740771D01*
X73008220Y-75740771D02*
X72912982Y-75693152D01*
X72912982Y-75693152D02*
X72770125Y-75693152D01*
X72770125Y-75693152D02*
X72674887Y-75740771D01*
X72674887Y-75740771D02*
X72627268Y-75788390D01*
X72627268Y-75788390D02*
X72579649Y-75883628D01*
X72579649Y-75883628D02*
X72579649Y-76169342D01*
X72579649Y-76169342D02*
X72627268Y-76264580D01*
X72627268Y-76264580D02*
X72674887Y-76312200D01*
X72674887Y-76312200D02*
X72770125Y-76359819D01*
X72770125Y-76359819D02*
X72912982Y-76359819D01*
X72008220Y-76359819D02*
X72103458Y-76312200D01*
X72103458Y-76312200D02*
X72151077Y-76216961D01*
X72151077Y-76216961D02*
X72151077Y-75359819D01*
X71198696Y-76359819D02*
X71198696Y-75836009D01*
X71198696Y-75836009D02*
X71246315Y-75740771D01*
X71246315Y-75740771D02*
X71341553Y-75693152D01*
X71341553Y-75693152D02*
X71532029Y-75693152D01*
X71532029Y-75693152D02*
X71627267Y-75740771D01*
X71198696Y-76312200D02*
X71293934Y-76359819D01*
X71293934Y-76359819D02*
X71532029Y-76359819D01*
X71532029Y-76359819D02*
X71627267Y-76312200D01*
X71627267Y-76312200D02*
X71674886Y-76216961D01*
X71674886Y-76216961D02*
X71674886Y-76121723D01*
X71674886Y-76121723D02*
X71627267Y-76026485D01*
X71627267Y-76026485D02*
X71532029Y-75978866D01*
X71532029Y-75978866D02*
X71293934Y-75978866D01*
X71293934Y-75978866D02*
X71198696Y-75931247D01*
X70722505Y-76359819D02*
X70722505Y-75693152D01*
X70722505Y-75883628D02*
X70674886Y-75788390D01*
X70674886Y-75788390D02*
X70627267Y-75740771D01*
X70627267Y-75740771D02*
X70532029Y-75693152D01*
X70532029Y-75693152D02*
X70436791Y-75693152D01*
X69389172Y-75312200D02*
X70246314Y-76597914D01*
X68722505Y-75836009D02*
X68579648Y-75883628D01*
X68579648Y-75883628D02*
X68532029Y-75931247D01*
X68532029Y-75931247D02*
X68484410Y-76026485D01*
X68484410Y-76026485D02*
X68484410Y-76169342D01*
X68484410Y-76169342D02*
X68532029Y-76264580D01*
X68532029Y-76264580D02*
X68579648Y-76312200D01*
X68579648Y-76312200D02*
X68674886Y-76359819D01*
X68674886Y-76359819D02*
X69055838Y-76359819D01*
X69055838Y-76359819D02*
X69055838Y-75359819D01*
X69055838Y-75359819D02*
X68722505Y-75359819D01*
X68722505Y-75359819D02*
X68627267Y-75407438D01*
X68627267Y-75407438D02*
X68579648Y-75455057D01*
X68579648Y-75455057D02*
X68532029Y-75550295D01*
X68532029Y-75550295D02*
X68532029Y-75645533D01*
X68532029Y-75645533D02*
X68579648Y-75740771D01*
X68579648Y-75740771D02*
X68627267Y-75788390D01*
X68627267Y-75788390D02*
X68722505Y-75836009D01*
X68722505Y-75836009D02*
X69055838Y-75836009D01*
X67627267Y-75693152D02*
X67627267Y-76359819D01*
X68055838Y-75693152D02*
X68055838Y-76216961D01*
X68055838Y-76216961D02*
X68008219Y-76312200D01*
X68008219Y-76312200D02*
X67912981Y-76359819D01*
X67912981Y-76359819D02*
X67770124Y-76359819D01*
X67770124Y-76359819D02*
X67674886Y-76312200D01*
X67674886Y-76312200D02*
X67627267Y-76264580D01*
X67151076Y-76359819D02*
X67151076Y-75693152D01*
X67151076Y-75883628D02*
X67103457Y-75788390D01*
X67103457Y-75788390D02*
X67055838Y-75740771D01*
X67055838Y-75740771D02*
X66960600Y-75693152D01*
X66960600Y-75693152D02*
X66865362Y-75693152D01*
X66532028Y-75693152D02*
X66532028Y-76359819D01*
X66532028Y-75788390D02*
X66484409Y-75740771D01*
X66484409Y-75740771D02*
X66389171Y-75693152D01*
X66389171Y-75693152D02*
X66246314Y-75693152D01*
X66246314Y-75693152D02*
X66151076Y-75740771D01*
X66151076Y-75740771D02*
X66103457Y-75836009D01*
X66103457Y-75836009D02*
X66103457Y-76359819D01*
D10*
X82263809Y-225234400D02*
X81978095Y-225329638D01*
X81978095Y-225329638D02*
X81501904Y-225329638D01*
X81501904Y-225329638D02*
X81311428Y-225234400D01*
X81311428Y-225234400D02*
X81216190Y-225139161D01*
X81216190Y-225139161D02*
X81120952Y-224948685D01*
X81120952Y-224948685D02*
X81120952Y-224758209D01*
X81120952Y-224758209D02*
X81216190Y-224567733D01*
X81216190Y-224567733D02*
X81311428Y-224472495D01*
X81311428Y-224472495D02*
X81501904Y-224377257D01*
X81501904Y-224377257D02*
X81882857Y-224282019D01*
X81882857Y-224282019D02*
X82073333Y-224186780D01*
X82073333Y-224186780D02*
X82168571Y-224091542D01*
X82168571Y-224091542D02*
X82263809Y-223901066D01*
X82263809Y-223901066D02*
X82263809Y-223710590D01*
X82263809Y-223710590D02*
X82168571Y-223520114D01*
X82168571Y-223520114D02*
X82073333Y-223424876D01*
X82073333Y-223424876D02*
X81882857Y-223329638D01*
X81882857Y-223329638D02*
X81406666Y-223329638D01*
X81406666Y-223329638D02*
X81120952Y-223424876D01*
X79120952Y-225139161D02*
X79216190Y-225234400D01*
X79216190Y-225234400D02*
X79501904Y-225329638D01*
X79501904Y-225329638D02*
X79692380Y-225329638D01*
X79692380Y-225329638D02*
X79978095Y-225234400D01*
X79978095Y-225234400D02*
X80168571Y-225043923D01*
X80168571Y-225043923D02*
X80263809Y-224853447D01*
X80263809Y-224853447D02*
X80359047Y-224472495D01*
X80359047Y-224472495D02*
X80359047Y-224186780D01*
X80359047Y-224186780D02*
X80263809Y-223805828D01*
X80263809Y-223805828D02*
X80168571Y-223615352D01*
X80168571Y-223615352D02*
X79978095Y-223424876D01*
X79978095Y-223424876D02*
X79692380Y-223329638D01*
X79692380Y-223329638D02*
X79501904Y-223329638D01*
X79501904Y-223329638D02*
X79216190Y-223424876D01*
X79216190Y-223424876D02*
X79120952Y-223520114D01*
X77406666Y-223329638D02*
X77787619Y-223329638D01*
X77787619Y-223329638D02*
X77978095Y-223424876D01*
X77978095Y-223424876D02*
X78073333Y-223520114D01*
X78073333Y-223520114D02*
X78263809Y-223805828D01*
X78263809Y-223805828D02*
X78359047Y-224186780D01*
X78359047Y-224186780D02*
X78359047Y-224948685D01*
X78359047Y-224948685D02*
X78263809Y-225139161D01*
X78263809Y-225139161D02*
X78168571Y-225234400D01*
X78168571Y-225234400D02*
X77978095Y-225329638D01*
X77978095Y-225329638D02*
X77597142Y-225329638D01*
X77597142Y-225329638D02*
X77406666Y-225234400D01*
X77406666Y-225234400D02*
X77311428Y-225139161D01*
X77311428Y-225139161D02*
X77216190Y-224948685D01*
X77216190Y-224948685D02*
X77216190Y-224472495D01*
X77216190Y-224472495D02*
X77311428Y-224282019D01*
X77311428Y-224282019D02*
X77406666Y-224186780D01*
X77406666Y-224186780D02*
X77597142Y-224091542D01*
X77597142Y-224091542D02*
X77978095Y-224091542D01*
X77978095Y-224091542D02*
X78168571Y-224186780D01*
X78168571Y-224186780D02*
X78263809Y-224282019D01*
X78263809Y-224282019D02*
X78359047Y-224472495D01*
X55438809Y-187159400D02*
X55153095Y-187254638D01*
X55153095Y-187254638D02*
X54676904Y-187254638D01*
X54676904Y-187254638D02*
X54486428Y-187159400D01*
X54486428Y-187159400D02*
X54391190Y-187064161D01*
X54391190Y-187064161D02*
X54295952Y-186873685D01*
X54295952Y-186873685D02*
X54295952Y-186683209D01*
X54295952Y-186683209D02*
X54391190Y-186492733D01*
X54391190Y-186492733D02*
X54486428Y-186397495D01*
X54486428Y-186397495D02*
X54676904Y-186302257D01*
X54676904Y-186302257D02*
X55057857Y-186207019D01*
X55057857Y-186207019D02*
X55248333Y-186111780D01*
X55248333Y-186111780D02*
X55343571Y-186016542D01*
X55343571Y-186016542D02*
X55438809Y-185826066D01*
X55438809Y-185826066D02*
X55438809Y-185635590D01*
X55438809Y-185635590D02*
X55343571Y-185445114D01*
X55343571Y-185445114D02*
X55248333Y-185349876D01*
X55248333Y-185349876D02*
X55057857Y-185254638D01*
X55057857Y-185254638D02*
X54581666Y-185254638D01*
X54581666Y-185254638D02*
X54295952Y-185349876D01*
X52295952Y-187064161D02*
X52391190Y-187159400D01*
X52391190Y-187159400D02*
X52676904Y-187254638D01*
X52676904Y-187254638D02*
X52867380Y-187254638D01*
X52867380Y-187254638D02*
X53153095Y-187159400D01*
X53153095Y-187159400D02*
X53343571Y-186968923D01*
X53343571Y-186968923D02*
X53438809Y-186778447D01*
X53438809Y-186778447D02*
X53534047Y-186397495D01*
X53534047Y-186397495D02*
X53534047Y-186111780D01*
X53534047Y-186111780D02*
X53438809Y-185730828D01*
X53438809Y-185730828D02*
X53343571Y-185540352D01*
X53343571Y-185540352D02*
X53153095Y-185349876D01*
X53153095Y-185349876D02*
X52867380Y-185254638D01*
X52867380Y-185254638D02*
X52676904Y-185254638D01*
X52676904Y-185254638D02*
X52391190Y-185349876D01*
X52391190Y-185349876D02*
X52295952Y-185445114D01*
X50486428Y-185254638D02*
X51438809Y-185254638D01*
X51438809Y-185254638D02*
X51534047Y-186207019D01*
X51534047Y-186207019D02*
X51438809Y-186111780D01*
X51438809Y-186111780D02*
X51248333Y-186016542D01*
X51248333Y-186016542D02*
X50772142Y-186016542D01*
X50772142Y-186016542D02*
X50581666Y-186111780D01*
X50581666Y-186111780D02*
X50486428Y-186207019D01*
X50486428Y-186207019D02*
X50391190Y-186397495D01*
X50391190Y-186397495D02*
X50391190Y-186873685D01*
X50391190Y-186873685D02*
X50486428Y-187064161D01*
X50486428Y-187064161D02*
X50581666Y-187159400D01*
X50581666Y-187159400D02*
X50772142Y-187254638D01*
X50772142Y-187254638D02*
X51248333Y-187254638D01*
X51248333Y-187254638D02*
X51438809Y-187159400D01*
X51438809Y-187159400D02*
X51534047Y-187064161D01*
X79307857Y-206824400D02*
X77022143Y-206824400D01*
X78165000Y-207967257D02*
X78165000Y-205681542D01*
D13*
X73189619Y-78334711D02*
X74189619Y-78668044D01*
X74189619Y-78668044D02*
X73189619Y-79001377D01*
X74142000Y-79287092D02*
X74189619Y-79429949D01*
X74189619Y-79429949D02*
X74189619Y-79668044D01*
X74189619Y-79668044D02*
X74142000Y-79763282D01*
X74142000Y-79763282D02*
X74094380Y-79810901D01*
X74094380Y-79810901D02*
X73999142Y-79858520D01*
X73999142Y-79858520D02*
X73903904Y-79858520D01*
X73903904Y-79858520D02*
X73808666Y-79810901D01*
X73808666Y-79810901D02*
X73761047Y-79763282D01*
X73761047Y-79763282D02*
X73713428Y-79668044D01*
X73713428Y-79668044D02*
X73665809Y-79477568D01*
X73665809Y-79477568D02*
X73618190Y-79382330D01*
X73618190Y-79382330D02*
X73570571Y-79334711D01*
X73570571Y-79334711D02*
X73475333Y-79287092D01*
X73475333Y-79287092D02*
X73380095Y-79287092D01*
X73380095Y-79287092D02*
X73284857Y-79334711D01*
X73284857Y-79334711D02*
X73237238Y-79382330D01*
X73237238Y-79382330D02*
X73189619Y-79477568D01*
X73189619Y-79477568D02*
X73189619Y-79715663D01*
X73189619Y-79715663D02*
X73237238Y-79858520D01*
X73189619Y-80477568D02*
X73189619Y-80668044D01*
X73189619Y-80668044D02*
X73237238Y-80763282D01*
X73237238Y-80763282D02*
X73332476Y-80858520D01*
X73332476Y-80858520D02*
X73522952Y-80906139D01*
X73522952Y-80906139D02*
X73856285Y-80906139D01*
X73856285Y-80906139D02*
X74046761Y-80858520D01*
X74046761Y-80858520D02*
X74142000Y-80763282D01*
X74142000Y-80763282D02*
X74189619Y-80668044D01*
X74189619Y-80668044D02*
X74189619Y-80477568D01*
X74189619Y-80477568D02*
X74142000Y-80382330D01*
X74142000Y-80382330D02*
X74046761Y-80287092D01*
X74046761Y-80287092D02*
X73856285Y-80239473D01*
X73856285Y-80239473D02*
X73522952Y-80239473D01*
X73522952Y-80239473D02*
X73332476Y-80287092D01*
X73332476Y-80287092D02*
X73237238Y-80382330D01*
X73237238Y-80382330D02*
X73189619Y-80477568D01*
X74189619Y-81810901D02*
X74189619Y-81334711D01*
X74189619Y-81334711D02*
X73189619Y-81334711D01*
X73903904Y-82096616D02*
X73903904Y-82572806D01*
X74189619Y-82001378D02*
X73189619Y-82334711D01*
X73189619Y-82334711D02*
X74189619Y-82668044D01*
X74189619Y-83572806D02*
X73713428Y-83239473D01*
X74189619Y-83001378D02*
X73189619Y-83001378D01*
X73189619Y-83001378D02*
X73189619Y-83382330D01*
X73189619Y-83382330D02*
X73237238Y-83477568D01*
X73237238Y-83477568D02*
X73284857Y-83525187D01*
X73284857Y-83525187D02*
X73380095Y-83572806D01*
X73380095Y-83572806D02*
X73522952Y-83572806D01*
X73522952Y-83572806D02*
X73618190Y-83525187D01*
X73618190Y-83525187D02*
X73665809Y-83477568D01*
X73665809Y-83477568D02*
X73713428Y-83382330D01*
X73713428Y-83382330D02*
X73713428Y-83001378D01*
D10*
X89272142Y-163615600D02*
X91557857Y-163615600D01*
D14*
X97660839Y-29422200D02*
X97517982Y-29469819D01*
X97517982Y-29469819D02*
X97279887Y-29469819D01*
X97279887Y-29469819D02*
X97184649Y-29422200D01*
X97184649Y-29422200D02*
X97137030Y-29374580D01*
X97137030Y-29374580D02*
X97089411Y-29279342D01*
X97089411Y-29279342D02*
X97089411Y-29184104D01*
X97089411Y-29184104D02*
X97137030Y-29088866D01*
X97137030Y-29088866D02*
X97184649Y-29041247D01*
X97184649Y-29041247D02*
X97279887Y-28993628D01*
X97279887Y-28993628D02*
X97470363Y-28946009D01*
X97470363Y-28946009D02*
X97565601Y-28898390D01*
X97565601Y-28898390D02*
X97613220Y-28850771D01*
X97613220Y-28850771D02*
X97660839Y-28755533D01*
X97660839Y-28755533D02*
X97660839Y-28660295D01*
X97660839Y-28660295D02*
X97613220Y-28565057D01*
X97613220Y-28565057D02*
X97565601Y-28517438D01*
X97565601Y-28517438D02*
X97470363Y-28469819D01*
X97470363Y-28469819D02*
X97232268Y-28469819D01*
X97232268Y-28469819D02*
X97089411Y-28517438D01*
X96089411Y-29374580D02*
X96137030Y-29422200D01*
X96137030Y-29422200D02*
X96279887Y-29469819D01*
X96279887Y-29469819D02*
X96375125Y-29469819D01*
X96375125Y-29469819D02*
X96517982Y-29422200D01*
X96517982Y-29422200D02*
X96613220Y-29326961D01*
X96613220Y-29326961D02*
X96660839Y-29231723D01*
X96660839Y-29231723D02*
X96708458Y-29041247D01*
X96708458Y-29041247D02*
X96708458Y-28898390D01*
X96708458Y-28898390D02*
X96660839Y-28707914D01*
X96660839Y-28707914D02*
X96613220Y-28612676D01*
X96613220Y-28612676D02*
X96517982Y-28517438D01*
X96517982Y-28517438D02*
X96375125Y-28469819D01*
X96375125Y-28469819D02*
X96279887Y-28469819D01*
X96279887Y-28469819D02*
X96137030Y-28517438D01*
X96137030Y-28517438D02*
X96089411Y-28565057D01*
X95756077Y-28469819D02*
X95089411Y-28469819D01*
X95089411Y-28469819D02*
X95517982Y-29469819D01*
X94708458Y-29088866D02*
X93946554Y-29088866D01*
X92946554Y-29469819D02*
X93517982Y-29469819D01*
X93232268Y-29469819D02*
X93232268Y-28469819D01*
X93232268Y-28469819D02*
X93327506Y-28612676D01*
X93327506Y-28612676D02*
X93422744Y-28707914D01*
X93422744Y-28707914D02*
X93517982Y-28755533D01*
X92565601Y-28565057D02*
X92517982Y-28517438D01*
X92517982Y-28517438D02*
X92422744Y-28469819D01*
X92422744Y-28469819D02*
X92184649Y-28469819D01*
X92184649Y-28469819D02*
X92089411Y-28517438D01*
X92089411Y-28517438D02*
X92041792Y-28565057D01*
X92041792Y-28565057D02*
X91994173Y-28660295D01*
X91994173Y-28660295D02*
X91994173Y-28755533D01*
X91994173Y-28755533D02*
X92041792Y-28898390D01*
X92041792Y-28898390D02*
X92613220Y-29469819D01*
X92613220Y-29469819D02*
X91994173Y-29469819D01*
X91803697Y-29565057D02*
X91041792Y-29565057D01*
X90803696Y-29088866D02*
X90041792Y-29088866D01*
X90422744Y-29469819D02*
X90422744Y-28707914D01*
D10*
X87641190Y-207909400D02*
X87355476Y-208004638D01*
X87355476Y-208004638D02*
X86879285Y-208004638D01*
X86879285Y-208004638D02*
X86688809Y-207909400D01*
X86688809Y-207909400D02*
X86593571Y-207814161D01*
X86593571Y-207814161D02*
X86498333Y-207623685D01*
X86498333Y-207623685D02*
X86498333Y-207433209D01*
X86498333Y-207433209D02*
X86593571Y-207242733D01*
X86593571Y-207242733D02*
X86688809Y-207147495D01*
X86688809Y-207147495D02*
X86879285Y-207052257D01*
X86879285Y-207052257D02*
X87260238Y-206957019D01*
X87260238Y-206957019D02*
X87450714Y-206861780D01*
X87450714Y-206861780D02*
X87545952Y-206766542D01*
X87545952Y-206766542D02*
X87641190Y-206576066D01*
X87641190Y-206576066D02*
X87641190Y-206385590D01*
X87641190Y-206385590D02*
X87545952Y-206195114D01*
X87545952Y-206195114D02*
X87450714Y-206099876D01*
X87450714Y-206099876D02*
X87260238Y-206004638D01*
X87260238Y-206004638D02*
X86784047Y-206004638D01*
X86784047Y-206004638D02*
X86498333Y-206099876D01*
X84498333Y-207814161D02*
X84593571Y-207909400D01*
X84593571Y-207909400D02*
X84879285Y-208004638D01*
X84879285Y-208004638D02*
X85069761Y-208004638D01*
X85069761Y-208004638D02*
X85355476Y-207909400D01*
X85355476Y-207909400D02*
X85545952Y-207718923D01*
X85545952Y-207718923D02*
X85641190Y-207528447D01*
X85641190Y-207528447D02*
X85736428Y-207147495D01*
X85736428Y-207147495D02*
X85736428Y-206861780D01*
X85736428Y-206861780D02*
X85641190Y-206480828D01*
X85641190Y-206480828D02*
X85545952Y-206290352D01*
X85545952Y-206290352D02*
X85355476Y-206099876D01*
X85355476Y-206099876D02*
X85069761Y-206004638D01*
X85069761Y-206004638D02*
X84879285Y-206004638D01*
X84879285Y-206004638D02*
X84593571Y-206099876D01*
X84593571Y-206099876D02*
X84498333Y-206195114D01*
X82593571Y-208004638D02*
X83736428Y-208004638D01*
X83165000Y-208004638D02*
X83165000Y-206004638D01*
X83165000Y-206004638D02*
X83355476Y-206290352D01*
X83355476Y-206290352D02*
X83545952Y-206480828D01*
X83545952Y-206480828D02*
X83736428Y-206576066D01*
X81831666Y-206195114D02*
X81736428Y-206099876D01*
X81736428Y-206099876D02*
X81545952Y-206004638D01*
X81545952Y-206004638D02*
X81069761Y-206004638D01*
X81069761Y-206004638D02*
X80879285Y-206099876D01*
X80879285Y-206099876D02*
X80784047Y-206195114D01*
X80784047Y-206195114D02*
X80688809Y-206385590D01*
X80688809Y-206385590D02*
X80688809Y-206576066D01*
X80688809Y-206576066D02*
X80784047Y-206861780D01*
X80784047Y-206861780D02*
X81926904Y-208004638D01*
X81926904Y-208004638D02*
X80688809Y-208004638D01*
D14*
X75691792Y-152639987D02*
X76025125Y-152163796D01*
X76263220Y-152639987D02*
X76263220Y-151639987D01*
X76263220Y-151639987D02*
X75882268Y-151639987D01*
X75882268Y-151639987D02*
X75787030Y-151687606D01*
X75787030Y-151687606D02*
X75739411Y-151735225D01*
X75739411Y-151735225D02*
X75691792Y-151830463D01*
X75691792Y-151830463D02*
X75691792Y-151973320D01*
X75691792Y-151973320D02*
X75739411Y-152068558D01*
X75739411Y-152068558D02*
X75787030Y-152116177D01*
X75787030Y-152116177D02*
X75882268Y-152163796D01*
X75882268Y-152163796D02*
X76263220Y-152163796D01*
X74929887Y-152116177D02*
X74787030Y-152163796D01*
X74787030Y-152163796D02*
X74739411Y-152211415D01*
X74739411Y-152211415D02*
X74691792Y-152306653D01*
X74691792Y-152306653D02*
X74691792Y-152449510D01*
X74691792Y-152449510D02*
X74739411Y-152544748D01*
X74739411Y-152544748D02*
X74787030Y-152592368D01*
X74787030Y-152592368D02*
X74882268Y-152639987D01*
X74882268Y-152639987D02*
X75263220Y-152639987D01*
X75263220Y-152639987D02*
X75263220Y-151639987D01*
X75263220Y-151639987D02*
X74929887Y-151639987D01*
X74929887Y-151639987D02*
X74834649Y-151687606D01*
X74834649Y-151687606D02*
X74787030Y-151735225D01*
X74787030Y-151735225D02*
X74739411Y-151830463D01*
X74739411Y-151830463D02*
X74739411Y-151925701D01*
X74739411Y-151925701D02*
X74787030Y-152020939D01*
X74787030Y-152020939D02*
X74834649Y-152068558D01*
X74834649Y-152068558D02*
X74929887Y-152116177D01*
X74929887Y-152116177D02*
X75263220Y-152116177D01*
X73929887Y-152116177D02*
X74263220Y-152116177D01*
X74263220Y-152639987D02*
X74263220Y-151639987D01*
X74263220Y-151639987D02*
X73787030Y-151639987D01*
X72644172Y-152639987D02*
X72644172Y-151639987D01*
X72644172Y-152116177D02*
X72072744Y-152116177D01*
X72072744Y-152639987D02*
X72072744Y-151639987D01*
X71215601Y-152592368D02*
X71310839Y-152639987D01*
X71310839Y-152639987D02*
X71501315Y-152639987D01*
X71501315Y-152639987D02*
X71596553Y-152592368D01*
X71596553Y-152592368D02*
X71644172Y-152497129D01*
X71644172Y-152497129D02*
X71644172Y-152116177D01*
X71644172Y-152116177D02*
X71596553Y-152020939D01*
X71596553Y-152020939D02*
X71501315Y-151973320D01*
X71501315Y-151973320D02*
X71310839Y-151973320D01*
X71310839Y-151973320D02*
X71215601Y-152020939D01*
X71215601Y-152020939D02*
X71167982Y-152116177D01*
X71167982Y-152116177D02*
X71167982Y-152211415D01*
X71167982Y-152211415D02*
X71644172Y-152306653D01*
X70310839Y-152639987D02*
X70310839Y-152116177D01*
X70310839Y-152116177D02*
X70358458Y-152020939D01*
X70358458Y-152020939D02*
X70453696Y-151973320D01*
X70453696Y-151973320D02*
X70644172Y-151973320D01*
X70644172Y-151973320D02*
X70739410Y-152020939D01*
X70310839Y-152592368D02*
X70406077Y-152639987D01*
X70406077Y-152639987D02*
X70644172Y-152639987D01*
X70644172Y-152639987D02*
X70739410Y-152592368D01*
X70739410Y-152592368D02*
X70787029Y-152497129D01*
X70787029Y-152497129D02*
X70787029Y-152401891D01*
X70787029Y-152401891D02*
X70739410Y-152306653D01*
X70739410Y-152306653D02*
X70644172Y-152259034D01*
X70644172Y-152259034D02*
X70406077Y-152259034D01*
X70406077Y-152259034D02*
X70310839Y-152211415D01*
X69406077Y-152639987D02*
X69406077Y-151639987D01*
X69406077Y-152592368D02*
X69501315Y-152639987D01*
X69501315Y-152639987D02*
X69691791Y-152639987D01*
X69691791Y-152639987D02*
X69787029Y-152592368D01*
X69787029Y-152592368D02*
X69834648Y-152544748D01*
X69834648Y-152544748D02*
X69882267Y-152449510D01*
X69882267Y-152449510D02*
X69882267Y-152163796D01*
X69882267Y-152163796D02*
X69834648Y-152068558D01*
X69834648Y-152068558D02*
X69787029Y-152020939D01*
X69787029Y-152020939D02*
X69691791Y-151973320D01*
X69691791Y-151973320D02*
X69501315Y-151973320D01*
X69501315Y-151973320D02*
X69406077Y-152020939D01*
X68548934Y-152592368D02*
X68644172Y-152639987D01*
X68644172Y-152639987D02*
X68834648Y-152639987D01*
X68834648Y-152639987D02*
X68929886Y-152592368D01*
X68929886Y-152592368D02*
X68977505Y-152497129D01*
X68977505Y-152497129D02*
X68977505Y-152116177D01*
X68977505Y-152116177D02*
X68929886Y-152020939D01*
X68929886Y-152020939D02*
X68834648Y-151973320D01*
X68834648Y-151973320D02*
X68644172Y-151973320D01*
X68644172Y-151973320D02*
X68548934Y-152020939D01*
X68548934Y-152020939D02*
X68501315Y-152116177D01*
X68501315Y-152116177D02*
X68501315Y-152211415D01*
X68501315Y-152211415D02*
X68977505Y-152306653D01*
X68072743Y-152639987D02*
X68072743Y-151973320D01*
X68072743Y-152163796D02*
X68025124Y-152068558D01*
X68025124Y-152068558D02*
X67977505Y-152020939D01*
X67977505Y-152020939D02*
X67882267Y-151973320D01*
X67882267Y-151973320D02*
X67787029Y-151973320D01*
X66834647Y-151639987D02*
X66263219Y-151639987D01*
X66548933Y-152639987D02*
X66548933Y-151639987D01*
X65787028Y-152639987D02*
X65882266Y-152592368D01*
X65882266Y-152592368D02*
X65929885Y-152544748D01*
X65929885Y-152544748D02*
X65977504Y-152449510D01*
X65977504Y-152449510D02*
X65977504Y-152163796D01*
X65977504Y-152163796D02*
X65929885Y-152068558D01*
X65929885Y-152068558D02*
X65882266Y-152020939D01*
X65882266Y-152020939D02*
X65787028Y-151973320D01*
X65787028Y-151973320D02*
X65644171Y-151973320D01*
X65644171Y-151973320D02*
X65548933Y-152020939D01*
X65548933Y-152020939D02*
X65501314Y-152068558D01*
X65501314Y-152068558D02*
X65453695Y-152163796D01*
X65453695Y-152163796D02*
X65453695Y-152449510D01*
X65453695Y-152449510D02*
X65501314Y-152544748D01*
X65501314Y-152544748D02*
X65548933Y-152592368D01*
X65548933Y-152592368D02*
X65644171Y-152639987D01*
X65644171Y-152639987D02*
X65787028Y-152639987D01*
X64263218Y-152639987D02*
X64263218Y-151639987D01*
X64263218Y-151639987D02*
X63882266Y-151639987D01*
X63882266Y-151639987D02*
X63787028Y-151687606D01*
X63787028Y-151687606D02*
X63739409Y-151735225D01*
X63739409Y-151735225D02*
X63691790Y-151830463D01*
X63691790Y-151830463D02*
X63691790Y-151973320D01*
X63691790Y-151973320D02*
X63739409Y-152068558D01*
X63739409Y-152068558D02*
X63787028Y-152116177D01*
X63787028Y-152116177D02*
X63882266Y-152163796D01*
X63882266Y-152163796D02*
X64263218Y-152163796D01*
X63263218Y-152639987D02*
X63263218Y-151973320D01*
X63263218Y-151639987D02*
X63310837Y-151687606D01*
X63310837Y-151687606D02*
X63263218Y-151735225D01*
X63263218Y-151735225D02*
X63215599Y-151687606D01*
X63215599Y-151687606D02*
X63263218Y-151639987D01*
X63263218Y-151639987D02*
X63263218Y-151735225D01*
X62215600Y-152544748D02*
X62263219Y-152592368D01*
X62263219Y-152592368D02*
X62406076Y-152639987D01*
X62406076Y-152639987D02*
X62501314Y-152639987D01*
X62501314Y-152639987D02*
X62644171Y-152592368D01*
X62644171Y-152592368D02*
X62739409Y-152497129D01*
X62739409Y-152497129D02*
X62787028Y-152401891D01*
X62787028Y-152401891D02*
X62834647Y-152211415D01*
X62834647Y-152211415D02*
X62834647Y-152068558D01*
X62834647Y-152068558D02*
X62787028Y-151878082D01*
X62787028Y-151878082D02*
X62739409Y-151782844D01*
X62739409Y-151782844D02*
X62644171Y-151687606D01*
X62644171Y-151687606D02*
X62501314Y-151639987D01*
X62501314Y-151639987D02*
X62406076Y-151639987D01*
X62406076Y-151639987D02*
X62263219Y-151687606D01*
X62263219Y-151687606D02*
X62215600Y-151735225D01*
X61358457Y-151973320D02*
X61358457Y-152639987D01*
X61787028Y-151973320D02*
X61787028Y-152497129D01*
X61787028Y-152497129D02*
X61739409Y-152592368D01*
X61739409Y-152592368D02*
X61644171Y-152639987D01*
X61644171Y-152639987D02*
X61501314Y-152639987D01*
X61501314Y-152639987D02*
X61406076Y-152592368D01*
X61406076Y-152592368D02*
X61358457Y-152544748D01*
X60882266Y-152639987D02*
X60882266Y-151639987D01*
X60882266Y-152020939D02*
X60787028Y-151973320D01*
X60787028Y-151973320D02*
X60596552Y-151973320D01*
X60596552Y-151973320D02*
X60501314Y-152020939D01*
X60501314Y-152020939D02*
X60453695Y-152068558D01*
X60453695Y-152068558D02*
X60406076Y-152163796D01*
X60406076Y-152163796D02*
X60406076Y-152449510D01*
X60406076Y-152449510D02*
X60453695Y-152544748D01*
X60453695Y-152544748D02*
X60501314Y-152592368D01*
X60501314Y-152592368D02*
X60596552Y-152639987D01*
X60596552Y-152639987D02*
X60787028Y-152639987D01*
X60787028Y-152639987D02*
X60882266Y-152592368D01*
X59596552Y-152592368D02*
X59691790Y-152639987D01*
X59691790Y-152639987D02*
X59882266Y-152639987D01*
X59882266Y-152639987D02*
X59977504Y-152592368D01*
X59977504Y-152592368D02*
X60025123Y-152497129D01*
X60025123Y-152497129D02*
X60025123Y-152116177D01*
X60025123Y-152116177D02*
X59977504Y-152020939D01*
X59977504Y-152020939D02*
X59882266Y-151973320D01*
X59882266Y-151973320D02*
X59691790Y-151973320D01*
X59691790Y-151973320D02*
X59596552Y-152020939D01*
X59596552Y-152020939D02*
X59548933Y-152116177D01*
X59548933Y-152116177D02*
X59548933Y-152211415D01*
X59548933Y-152211415D02*
X60025123Y-152306653D01*
X58691790Y-152639987D02*
X58691790Y-151639987D01*
X58691790Y-152592368D02*
X58787028Y-152639987D01*
X58787028Y-152639987D02*
X58977504Y-152639987D01*
X58977504Y-152639987D02*
X59072742Y-152592368D01*
X59072742Y-152592368D02*
X59120361Y-152544748D01*
X59120361Y-152544748D02*
X59167980Y-152449510D01*
X59167980Y-152449510D02*
X59167980Y-152163796D01*
X59167980Y-152163796D02*
X59120361Y-152068558D01*
X59120361Y-152068558D02*
X59072742Y-152020939D01*
X59072742Y-152020939D02*
X58977504Y-151973320D01*
X58977504Y-151973320D02*
X58787028Y-151973320D01*
X58787028Y-151973320D02*
X58691790Y-152020939D01*
X76358458Y-153249931D02*
X75691792Y-154249931D01*
X75691792Y-153249931D02*
X76358458Y-154249931D01*
X75310839Y-153868978D02*
X74548935Y-153868978D01*
X74929887Y-154249931D02*
X74929887Y-153488026D01*
X73120363Y-153249931D02*
X72929887Y-153249931D01*
X72929887Y-153249931D02*
X72834649Y-153297550D01*
X72834649Y-153297550D02*
X72739411Y-153392788D01*
X72739411Y-153392788D02*
X72691792Y-153583264D01*
X72691792Y-153583264D02*
X72691792Y-153916597D01*
X72691792Y-153916597D02*
X72739411Y-154107073D01*
X72739411Y-154107073D02*
X72834649Y-154202312D01*
X72834649Y-154202312D02*
X72929887Y-154249931D01*
X72929887Y-154249931D02*
X73120363Y-154249931D01*
X73120363Y-154249931D02*
X73215601Y-154202312D01*
X73215601Y-154202312D02*
X73310839Y-154107073D01*
X73310839Y-154107073D02*
X73358458Y-153916597D01*
X73358458Y-153916597D02*
X73358458Y-153583264D01*
X73358458Y-153583264D02*
X73310839Y-153392788D01*
X73310839Y-153392788D02*
X73215601Y-153297550D01*
X73215601Y-153297550D02*
X73120363Y-153249931D01*
X72263220Y-153583264D02*
X72263220Y-154249931D01*
X72263220Y-153678502D02*
X72215601Y-153630883D01*
X72215601Y-153630883D02*
X72120363Y-153583264D01*
X72120363Y-153583264D02*
X71977506Y-153583264D01*
X71977506Y-153583264D02*
X71882268Y-153630883D01*
X71882268Y-153630883D02*
X71834649Y-153726121D01*
X71834649Y-153726121D02*
X71834649Y-154249931D01*
X71215601Y-154249931D02*
X71310839Y-154202312D01*
X71310839Y-154202312D02*
X71358458Y-154107073D01*
X71358458Y-154107073D02*
X71358458Y-153249931D01*
X70929886Y-153583264D02*
X70691791Y-154249931D01*
X70453696Y-153583264D02*
X70691791Y-154249931D01*
X70691791Y-154249931D02*
X70787029Y-154488026D01*
X70787029Y-154488026D02*
X70834648Y-154535645D01*
X70834648Y-154535645D02*
X70929886Y-154583264D01*
X76310839Y-155812256D02*
X76167982Y-155859875D01*
X76167982Y-155859875D02*
X75929887Y-155859875D01*
X75929887Y-155859875D02*
X75834649Y-155812256D01*
X75834649Y-155812256D02*
X75787030Y-155764636D01*
X75787030Y-155764636D02*
X75739411Y-155669398D01*
X75739411Y-155669398D02*
X75739411Y-155574160D01*
X75739411Y-155574160D02*
X75787030Y-155478922D01*
X75787030Y-155478922D02*
X75834649Y-155431303D01*
X75834649Y-155431303D02*
X75929887Y-155383684D01*
X75929887Y-155383684D02*
X76120363Y-155336065D01*
X76120363Y-155336065D02*
X76215601Y-155288446D01*
X76215601Y-155288446D02*
X76263220Y-155240827D01*
X76263220Y-155240827D02*
X76310839Y-155145589D01*
X76310839Y-155145589D02*
X76310839Y-155050351D01*
X76310839Y-155050351D02*
X76263220Y-154955113D01*
X76263220Y-154955113D02*
X76215601Y-154907494D01*
X76215601Y-154907494D02*
X76120363Y-154859875D01*
X76120363Y-154859875D02*
X75882268Y-154859875D01*
X75882268Y-154859875D02*
X75739411Y-154907494D01*
X75310839Y-155336065D02*
X74977506Y-155336065D01*
X74834649Y-155859875D02*
X75310839Y-155859875D01*
X75310839Y-155859875D02*
X75310839Y-154859875D01*
X75310839Y-154859875D02*
X74834649Y-154859875D01*
X73834649Y-155764636D02*
X73882268Y-155812256D01*
X73882268Y-155812256D02*
X74025125Y-155859875D01*
X74025125Y-155859875D02*
X74120363Y-155859875D01*
X74120363Y-155859875D02*
X74263220Y-155812256D01*
X74263220Y-155812256D02*
X74358458Y-155717017D01*
X74358458Y-155717017D02*
X74406077Y-155621779D01*
X74406077Y-155621779D02*
X74453696Y-155431303D01*
X74453696Y-155431303D02*
X74453696Y-155288446D01*
X74453696Y-155288446D02*
X74406077Y-155097970D01*
X74406077Y-155097970D02*
X74358458Y-155002732D01*
X74358458Y-155002732D02*
X74263220Y-154907494D01*
X74263220Y-154907494D02*
X74120363Y-154859875D01*
X74120363Y-154859875D02*
X74025125Y-154859875D01*
X74025125Y-154859875D02*
X73882268Y-154907494D01*
X73882268Y-154907494D02*
X73834649Y-154955113D01*
X73406077Y-154859875D02*
X73406077Y-155669398D01*
X73406077Y-155669398D02*
X73358458Y-155764636D01*
X73358458Y-155764636D02*
X73310839Y-155812256D01*
X73310839Y-155812256D02*
X73215601Y-155859875D01*
X73215601Y-155859875D02*
X73025125Y-155859875D01*
X73025125Y-155859875D02*
X72929887Y-155812256D01*
X72929887Y-155812256D02*
X72882268Y-155764636D01*
X72882268Y-155764636D02*
X72834649Y-155669398D01*
X72834649Y-155669398D02*
X72834649Y-154859875D01*
X71787030Y-155859875D02*
X72120363Y-155383684D01*
X72358458Y-155859875D02*
X72358458Y-154859875D01*
X72358458Y-154859875D02*
X71977506Y-154859875D01*
X71977506Y-154859875D02*
X71882268Y-154907494D01*
X71882268Y-154907494D02*
X71834649Y-154955113D01*
X71834649Y-154955113D02*
X71787030Y-155050351D01*
X71787030Y-155050351D02*
X71787030Y-155193208D01*
X71787030Y-155193208D02*
X71834649Y-155288446D01*
X71834649Y-155288446D02*
X71882268Y-155336065D01*
X71882268Y-155336065D02*
X71977506Y-155383684D01*
X71977506Y-155383684D02*
X72358458Y-155383684D01*
X71358458Y-155336065D02*
X71025125Y-155336065D01*
X70882268Y-155859875D02*
X71358458Y-155859875D01*
X71358458Y-155859875D02*
X71358458Y-154859875D01*
X71358458Y-154859875D02*
X70882268Y-154859875D01*
X69691791Y-155859875D02*
X69691791Y-154859875D01*
X69691791Y-155336065D02*
X69120363Y-155336065D01*
X69120363Y-155859875D02*
X69120363Y-154859875D01*
X68691791Y-155574160D02*
X68215601Y-155574160D01*
X68787029Y-155859875D02*
X68453696Y-154859875D01*
X68453696Y-154859875D02*
X68120363Y-155859875D01*
X67215601Y-155859875D02*
X67548934Y-155383684D01*
X67787029Y-155859875D02*
X67787029Y-154859875D01*
X67787029Y-154859875D02*
X67406077Y-154859875D01*
X67406077Y-154859875D02*
X67310839Y-154907494D01*
X67310839Y-154907494D02*
X67263220Y-154955113D01*
X67263220Y-154955113D02*
X67215601Y-155050351D01*
X67215601Y-155050351D02*
X67215601Y-155193208D01*
X67215601Y-155193208D02*
X67263220Y-155288446D01*
X67263220Y-155288446D02*
X67310839Y-155336065D01*
X67310839Y-155336065D02*
X67406077Y-155383684D01*
X67406077Y-155383684D02*
X67787029Y-155383684D01*
X66787029Y-155859875D02*
X66787029Y-154859875D01*
X66787029Y-154859875D02*
X66215601Y-155859875D01*
X66215601Y-155859875D02*
X66215601Y-154859875D01*
X65739410Y-155336065D02*
X65406077Y-155336065D01*
X65263220Y-155859875D02*
X65739410Y-155859875D01*
X65739410Y-155859875D02*
X65739410Y-154859875D01*
X65739410Y-154859875D02*
X65263220Y-154859875D01*
X64882267Y-155812256D02*
X64739410Y-155859875D01*
X64739410Y-155859875D02*
X64501315Y-155859875D01*
X64501315Y-155859875D02*
X64406077Y-155812256D01*
X64406077Y-155812256D02*
X64358458Y-155764636D01*
X64358458Y-155764636D02*
X64310839Y-155669398D01*
X64310839Y-155669398D02*
X64310839Y-155574160D01*
X64310839Y-155574160D02*
X64358458Y-155478922D01*
X64358458Y-155478922D02*
X64406077Y-155431303D01*
X64406077Y-155431303D02*
X64501315Y-155383684D01*
X64501315Y-155383684D02*
X64691791Y-155336065D01*
X64691791Y-155336065D02*
X64787029Y-155288446D01*
X64787029Y-155288446D02*
X64834648Y-155240827D01*
X64834648Y-155240827D02*
X64882267Y-155145589D01*
X64882267Y-155145589D02*
X64882267Y-155050351D01*
X64882267Y-155050351D02*
X64834648Y-154955113D01*
X64834648Y-154955113D02*
X64787029Y-154907494D01*
X64787029Y-154907494D02*
X64691791Y-154859875D01*
X64691791Y-154859875D02*
X64453696Y-154859875D01*
X64453696Y-154859875D02*
X64310839Y-154907494D01*
X63929886Y-155812256D02*
X63787029Y-155859875D01*
X63787029Y-155859875D02*
X63548934Y-155859875D01*
X63548934Y-155859875D02*
X63453696Y-155812256D01*
X63453696Y-155812256D02*
X63406077Y-155764636D01*
X63406077Y-155764636D02*
X63358458Y-155669398D01*
X63358458Y-155669398D02*
X63358458Y-155574160D01*
X63358458Y-155574160D02*
X63406077Y-155478922D01*
X63406077Y-155478922D02*
X63453696Y-155431303D01*
X63453696Y-155431303D02*
X63548934Y-155383684D01*
X63548934Y-155383684D02*
X63739410Y-155336065D01*
X63739410Y-155336065D02*
X63834648Y-155288446D01*
X63834648Y-155288446D02*
X63882267Y-155240827D01*
X63882267Y-155240827D02*
X63929886Y-155145589D01*
X63929886Y-155145589D02*
X63929886Y-155050351D01*
X63929886Y-155050351D02*
X63882267Y-154955113D01*
X63882267Y-154955113D02*
X63834648Y-154907494D01*
X63834648Y-154907494D02*
X63739410Y-154859875D01*
X63739410Y-154859875D02*
X63501315Y-154859875D01*
X63501315Y-154859875D02*
X63358458Y-154907494D01*
X75929887Y-156946009D02*
X75787030Y-156993628D01*
X75787030Y-156993628D02*
X75739411Y-157041247D01*
X75739411Y-157041247D02*
X75691792Y-157136485D01*
X75691792Y-157136485D02*
X75691792Y-157279342D01*
X75691792Y-157279342D02*
X75739411Y-157374580D01*
X75739411Y-157374580D02*
X75787030Y-157422200D01*
X75787030Y-157422200D02*
X75882268Y-157469819D01*
X75882268Y-157469819D02*
X76263220Y-157469819D01*
X76263220Y-157469819D02*
X76263220Y-156469819D01*
X76263220Y-156469819D02*
X75929887Y-156469819D01*
X75929887Y-156469819D02*
X75834649Y-156517438D01*
X75834649Y-156517438D02*
X75787030Y-156565057D01*
X75787030Y-156565057D02*
X75739411Y-156660295D01*
X75739411Y-156660295D02*
X75739411Y-156755533D01*
X75739411Y-156755533D02*
X75787030Y-156850771D01*
X75787030Y-156850771D02*
X75834649Y-156898390D01*
X75834649Y-156898390D02*
X75929887Y-156946009D01*
X75929887Y-156946009D02*
X76263220Y-156946009D01*
X75263220Y-156946009D02*
X74929887Y-156946009D01*
X74787030Y-157469819D02*
X75263220Y-157469819D01*
X75263220Y-157469819D02*
X75263220Y-156469819D01*
X75263220Y-156469819D02*
X74787030Y-156469819D01*
X74025125Y-156946009D02*
X74358458Y-156946009D01*
X74358458Y-157469819D02*
X74358458Y-156469819D01*
X74358458Y-156469819D02*
X73882268Y-156469819D01*
X73310839Y-156469819D02*
X73120363Y-156469819D01*
X73120363Y-156469819D02*
X73025125Y-156517438D01*
X73025125Y-156517438D02*
X72929887Y-156612676D01*
X72929887Y-156612676D02*
X72882268Y-156803152D01*
X72882268Y-156803152D02*
X72882268Y-157136485D01*
X72882268Y-157136485D02*
X72929887Y-157326961D01*
X72929887Y-157326961D02*
X73025125Y-157422200D01*
X73025125Y-157422200D02*
X73120363Y-157469819D01*
X73120363Y-157469819D02*
X73310839Y-157469819D01*
X73310839Y-157469819D02*
X73406077Y-157422200D01*
X73406077Y-157422200D02*
X73501315Y-157326961D01*
X73501315Y-157326961D02*
X73548934Y-157136485D01*
X73548934Y-157136485D02*
X73548934Y-156803152D01*
X73548934Y-156803152D02*
X73501315Y-156612676D01*
X73501315Y-156612676D02*
X73406077Y-156517438D01*
X73406077Y-156517438D02*
X73310839Y-156469819D01*
X71882268Y-157469819D02*
X72215601Y-156993628D01*
X72453696Y-157469819D02*
X72453696Y-156469819D01*
X72453696Y-156469819D02*
X72072744Y-156469819D01*
X72072744Y-156469819D02*
X71977506Y-156517438D01*
X71977506Y-156517438D02*
X71929887Y-156565057D01*
X71929887Y-156565057D02*
X71882268Y-156660295D01*
X71882268Y-156660295D02*
X71882268Y-156803152D01*
X71882268Y-156803152D02*
X71929887Y-156898390D01*
X71929887Y-156898390D02*
X71977506Y-156946009D01*
X71977506Y-156946009D02*
X72072744Y-156993628D01*
X72072744Y-156993628D02*
X72453696Y-156993628D01*
X71453696Y-156946009D02*
X71120363Y-156946009D01*
X70977506Y-157469819D02*
X71453696Y-157469819D01*
X71453696Y-157469819D02*
X71453696Y-156469819D01*
X71453696Y-156469819D02*
X70977506Y-156469819D01*
X69263220Y-156517438D02*
X69358458Y-156469819D01*
X69358458Y-156469819D02*
X69501315Y-156469819D01*
X69501315Y-156469819D02*
X69644172Y-156517438D01*
X69644172Y-156517438D02*
X69739410Y-156612676D01*
X69739410Y-156612676D02*
X69787029Y-156707914D01*
X69787029Y-156707914D02*
X69834648Y-156898390D01*
X69834648Y-156898390D02*
X69834648Y-157041247D01*
X69834648Y-157041247D02*
X69787029Y-157231723D01*
X69787029Y-157231723D02*
X69739410Y-157326961D01*
X69739410Y-157326961D02*
X69644172Y-157422200D01*
X69644172Y-157422200D02*
X69501315Y-157469819D01*
X69501315Y-157469819D02*
X69406077Y-157469819D01*
X69406077Y-157469819D02*
X69263220Y-157422200D01*
X69263220Y-157422200D02*
X69215601Y-157374580D01*
X69215601Y-157374580D02*
X69215601Y-157041247D01*
X69215601Y-157041247D02*
X69406077Y-157041247D01*
X68787029Y-157469819D02*
X68787029Y-156469819D01*
X68787029Y-156469819D02*
X68406077Y-156469819D01*
X68406077Y-156469819D02*
X68310839Y-156517438D01*
X68310839Y-156517438D02*
X68263220Y-156565057D01*
X68263220Y-156565057D02*
X68215601Y-156660295D01*
X68215601Y-156660295D02*
X68215601Y-156803152D01*
X68215601Y-156803152D02*
X68263220Y-156898390D01*
X68263220Y-156898390D02*
X68310839Y-156946009D01*
X68310839Y-156946009D02*
X68406077Y-156993628D01*
X68406077Y-156993628D02*
X68787029Y-156993628D01*
X67834648Y-157422200D02*
X67691791Y-157469819D01*
X67691791Y-157469819D02*
X67453696Y-157469819D01*
X67453696Y-157469819D02*
X67358458Y-157422200D01*
X67358458Y-157422200D02*
X67310839Y-157374580D01*
X67310839Y-157374580D02*
X67263220Y-157279342D01*
X67263220Y-157279342D02*
X67263220Y-157184104D01*
X67263220Y-157184104D02*
X67310839Y-157088866D01*
X67310839Y-157088866D02*
X67358458Y-157041247D01*
X67358458Y-157041247D02*
X67453696Y-156993628D01*
X67453696Y-156993628D02*
X67644172Y-156946009D01*
X67644172Y-156946009D02*
X67739410Y-156898390D01*
X67739410Y-156898390D02*
X67787029Y-156850771D01*
X67787029Y-156850771D02*
X67834648Y-156755533D01*
X67834648Y-156755533D02*
X67834648Y-156660295D01*
X67834648Y-156660295D02*
X67787029Y-156565057D01*
X67787029Y-156565057D02*
X67739410Y-156517438D01*
X67739410Y-156517438D02*
X67644172Y-156469819D01*
X67644172Y-156469819D02*
X67406077Y-156469819D01*
X67406077Y-156469819D02*
X67263220Y-156517438D01*
D10*
X101938809Y-87909400D02*
X101653095Y-88004638D01*
X101653095Y-88004638D02*
X101176904Y-88004638D01*
X101176904Y-88004638D02*
X100986428Y-87909400D01*
X100986428Y-87909400D02*
X100891190Y-87814161D01*
X100891190Y-87814161D02*
X100795952Y-87623685D01*
X100795952Y-87623685D02*
X100795952Y-87433209D01*
X100795952Y-87433209D02*
X100891190Y-87242733D01*
X100891190Y-87242733D02*
X100986428Y-87147495D01*
X100986428Y-87147495D02*
X101176904Y-87052257D01*
X101176904Y-87052257D02*
X101557857Y-86957019D01*
X101557857Y-86957019D02*
X101748333Y-86861780D01*
X101748333Y-86861780D02*
X101843571Y-86766542D01*
X101843571Y-86766542D02*
X101938809Y-86576066D01*
X101938809Y-86576066D02*
X101938809Y-86385590D01*
X101938809Y-86385590D02*
X101843571Y-86195114D01*
X101843571Y-86195114D02*
X101748333Y-86099876D01*
X101748333Y-86099876D02*
X101557857Y-86004638D01*
X101557857Y-86004638D02*
X101081666Y-86004638D01*
X101081666Y-86004638D02*
X100795952Y-86099876D01*
X98795952Y-87814161D02*
X98891190Y-87909400D01*
X98891190Y-87909400D02*
X99176904Y-88004638D01*
X99176904Y-88004638D02*
X99367380Y-88004638D01*
X99367380Y-88004638D02*
X99653095Y-87909400D01*
X99653095Y-87909400D02*
X99843571Y-87718923D01*
X99843571Y-87718923D02*
X99938809Y-87528447D01*
X99938809Y-87528447D02*
X100034047Y-87147495D01*
X100034047Y-87147495D02*
X100034047Y-86861780D01*
X100034047Y-86861780D02*
X99938809Y-86480828D01*
X99938809Y-86480828D02*
X99843571Y-86290352D01*
X99843571Y-86290352D02*
X99653095Y-86099876D01*
X99653095Y-86099876D02*
X99367380Y-86004638D01*
X99367380Y-86004638D02*
X99176904Y-86004638D01*
X99176904Y-86004638D02*
X98891190Y-86099876D01*
X98891190Y-86099876D02*
X98795952Y-86195114D01*
X97653095Y-86861780D02*
X97843571Y-86766542D01*
X97843571Y-86766542D02*
X97938809Y-86671304D01*
X97938809Y-86671304D02*
X98034047Y-86480828D01*
X98034047Y-86480828D02*
X98034047Y-86385590D01*
X98034047Y-86385590D02*
X97938809Y-86195114D01*
X97938809Y-86195114D02*
X97843571Y-86099876D01*
X97843571Y-86099876D02*
X97653095Y-86004638D01*
X97653095Y-86004638D02*
X97272142Y-86004638D01*
X97272142Y-86004638D02*
X97081666Y-86099876D01*
X97081666Y-86099876D02*
X96986428Y-86195114D01*
X96986428Y-86195114D02*
X96891190Y-86385590D01*
X96891190Y-86385590D02*
X96891190Y-86480828D01*
X96891190Y-86480828D02*
X96986428Y-86671304D01*
X96986428Y-86671304D02*
X97081666Y-86766542D01*
X97081666Y-86766542D02*
X97272142Y-86861780D01*
X97272142Y-86861780D02*
X97653095Y-86861780D01*
X97653095Y-86861780D02*
X97843571Y-86957019D01*
X97843571Y-86957019D02*
X97938809Y-87052257D01*
X97938809Y-87052257D02*
X98034047Y-87242733D01*
X98034047Y-87242733D02*
X98034047Y-87623685D01*
X98034047Y-87623685D02*
X97938809Y-87814161D01*
X97938809Y-87814161D02*
X97843571Y-87909400D01*
X97843571Y-87909400D02*
X97653095Y-88004638D01*
X97653095Y-88004638D02*
X97272142Y-88004638D01*
X97272142Y-88004638D02*
X97081666Y-87909400D01*
X97081666Y-87909400D02*
X96986428Y-87814161D01*
X96986428Y-87814161D02*
X96891190Y-87623685D01*
X96891190Y-87623685D02*
X96891190Y-87242733D01*
X96891190Y-87242733D02*
X96986428Y-87052257D01*
X96986428Y-87052257D02*
X97081666Y-86957019D01*
X97081666Y-86957019D02*
X97272142Y-86861780D01*
D11*
X67617733Y-167181797D02*
X68317733Y-167415131D01*
X68317733Y-167415131D02*
X67617733Y-167648464D01*
X67951066Y-168115131D02*
X67984400Y-168215131D01*
X67984400Y-168215131D02*
X68017733Y-168248464D01*
X68017733Y-168248464D02*
X68084400Y-168281797D01*
X68084400Y-168281797D02*
X68184400Y-168281797D01*
X68184400Y-168281797D02*
X68251066Y-168248464D01*
X68251066Y-168248464D02*
X68284400Y-168215131D01*
X68284400Y-168215131D02*
X68317733Y-168148464D01*
X68317733Y-168148464D02*
X68317733Y-167881797D01*
X68317733Y-167881797D02*
X67617733Y-167881797D01*
X67617733Y-167881797D02*
X67617733Y-168115131D01*
X67617733Y-168115131D02*
X67651066Y-168181797D01*
X67651066Y-168181797D02*
X67684400Y-168215131D01*
X67684400Y-168215131D02*
X67751066Y-168248464D01*
X67751066Y-168248464D02*
X67817733Y-168248464D01*
X67817733Y-168248464D02*
X67884400Y-168215131D01*
X67884400Y-168215131D02*
X67917733Y-168181797D01*
X67917733Y-168181797D02*
X67951066Y-168115131D01*
X67951066Y-168115131D02*
X67951066Y-167881797D01*
X68117733Y-168548464D02*
X68117733Y-168881797D01*
X68317733Y-168481797D02*
X67617733Y-168715131D01*
X67617733Y-168715131D02*
X68317733Y-168948464D01*
X67617733Y-169081797D02*
X67617733Y-169481797D01*
X68317733Y-169281797D02*
X67617733Y-169281797D01*
X67617733Y-169615130D02*
X67617733Y-170015130D01*
X68317733Y-169815130D02*
X67617733Y-169815130D01*
D14*
X78033333Y-83154819D02*
X78033333Y-83869104D01*
X78033333Y-83869104D02*
X78080952Y-84011961D01*
X78080952Y-84011961D02*
X78176190Y-84107200D01*
X78176190Y-84107200D02*
X78319047Y-84154819D01*
X78319047Y-84154819D02*
X78414285Y-84154819D01*
X77652380Y-83154819D02*
X77033333Y-83154819D01*
X77033333Y-83154819D02*
X77366666Y-83535771D01*
X77366666Y-83535771D02*
X77223809Y-83535771D01*
X77223809Y-83535771D02*
X77128571Y-83583390D01*
X77128571Y-83583390D02*
X77080952Y-83631009D01*
X77080952Y-83631009D02*
X77033333Y-83726247D01*
X77033333Y-83726247D02*
X77033333Y-83964342D01*
X77033333Y-83964342D02*
X77080952Y-84059580D01*
X77080952Y-84059580D02*
X77128571Y-84107200D01*
X77128571Y-84107200D02*
X77223809Y-84154819D01*
X77223809Y-84154819D02*
X77509523Y-84154819D01*
X77509523Y-84154819D02*
X77604761Y-84107200D01*
X77604761Y-84107200D02*
X77652380Y-84059580D01*
X93011904Y-21554819D02*
X92440476Y-21554819D01*
X92726190Y-22554819D02*
X92726190Y-21554819D01*
X92107142Y-22554819D02*
X92107142Y-21554819D01*
X92107142Y-21554819D02*
X91726190Y-21554819D01*
X91726190Y-21554819D02*
X91630952Y-21602438D01*
X91630952Y-21602438D02*
X91583333Y-21650057D01*
X91583333Y-21650057D02*
X91535714Y-21745295D01*
X91535714Y-21745295D02*
X91535714Y-21888152D01*
X91535714Y-21888152D02*
X91583333Y-21983390D01*
X91583333Y-21983390D02*
X91630952Y-22031009D01*
X91630952Y-22031009D02*
X91726190Y-22078628D01*
X91726190Y-22078628D02*
X92107142Y-22078628D01*
X90583333Y-22554819D02*
X91154761Y-22554819D01*
X90869047Y-22554819D02*
X90869047Y-21554819D01*
X90869047Y-21554819D02*
X90964285Y-21697676D01*
X90964285Y-21697676D02*
X91059523Y-21792914D01*
X91059523Y-21792914D02*
X91154761Y-21840533D01*
X75411904Y-22254819D02*
X74840476Y-22254819D01*
X75126190Y-23254819D02*
X75126190Y-22254819D01*
X74507142Y-23254819D02*
X74507142Y-22254819D01*
X74507142Y-22254819D02*
X74126190Y-22254819D01*
X74126190Y-22254819D02*
X74030952Y-22302438D01*
X74030952Y-22302438D02*
X73983333Y-22350057D01*
X73983333Y-22350057D02*
X73935714Y-22445295D01*
X73935714Y-22445295D02*
X73935714Y-22588152D01*
X73935714Y-22588152D02*
X73983333Y-22683390D01*
X73983333Y-22683390D02*
X74030952Y-22731009D01*
X74030952Y-22731009D02*
X74126190Y-22778628D01*
X74126190Y-22778628D02*
X74507142Y-22778628D01*
X73602380Y-22254819D02*
X72983333Y-22254819D01*
X72983333Y-22254819D02*
X73316666Y-22635771D01*
X73316666Y-22635771D02*
X73173809Y-22635771D01*
X73173809Y-22635771D02*
X73078571Y-22683390D01*
X73078571Y-22683390D02*
X73030952Y-22731009D01*
X73030952Y-22731009D02*
X72983333Y-22826247D01*
X72983333Y-22826247D02*
X72983333Y-23064342D01*
X72983333Y-23064342D02*
X73030952Y-23159580D01*
X73030952Y-23159580D02*
X73078571Y-23207200D01*
X73078571Y-23207200D02*
X73173809Y-23254819D01*
X73173809Y-23254819D02*
X73459523Y-23254819D01*
X73459523Y-23254819D02*
X73554761Y-23207200D01*
X73554761Y-23207200D02*
X73602380Y-23159580D01*
X92711904Y-27054819D02*
X92140476Y-27054819D01*
X92426190Y-28054819D02*
X92426190Y-27054819D01*
X91807142Y-28054819D02*
X91807142Y-27054819D01*
X91807142Y-27054819D02*
X91426190Y-27054819D01*
X91426190Y-27054819D02*
X91330952Y-27102438D01*
X91330952Y-27102438D02*
X91283333Y-27150057D01*
X91283333Y-27150057D02*
X91235714Y-27245295D01*
X91235714Y-27245295D02*
X91235714Y-27388152D01*
X91235714Y-27388152D02*
X91283333Y-27483390D01*
X91283333Y-27483390D02*
X91330952Y-27531009D01*
X91330952Y-27531009D02*
X91426190Y-27578628D01*
X91426190Y-27578628D02*
X91807142Y-27578628D01*
X90854761Y-27150057D02*
X90807142Y-27102438D01*
X90807142Y-27102438D02*
X90711904Y-27054819D01*
X90711904Y-27054819D02*
X90473809Y-27054819D01*
X90473809Y-27054819D02*
X90378571Y-27102438D01*
X90378571Y-27102438D02*
X90330952Y-27150057D01*
X90330952Y-27150057D02*
X90283333Y-27245295D01*
X90283333Y-27245295D02*
X90283333Y-27340533D01*
X90283333Y-27340533D02*
X90330952Y-27483390D01*
X90330952Y-27483390D02*
X90902380Y-28054819D01*
X90902380Y-28054819D02*
X90283333Y-28054819D01*
X79283333Y-156804819D02*
X79283333Y-157519104D01*
X79283333Y-157519104D02*
X79330952Y-157661961D01*
X79330952Y-157661961D02*
X79426190Y-157757200D01*
X79426190Y-157757200D02*
X79569047Y-157804819D01*
X79569047Y-157804819D02*
X79664285Y-157804819D01*
X78283333Y-157804819D02*
X78854761Y-157804819D01*
X78569047Y-157804819D02*
X78569047Y-156804819D01*
X78569047Y-156804819D02*
X78664285Y-156947676D01*
X78664285Y-156947676D02*
X78759523Y-157042914D01*
X78759523Y-157042914D02*
X78854761Y-157090533D01*
D15*
%TO.C,J3*%
X63325000Y-89250000D02*
X63325000Y-93875000D01*
X63325000Y-93875000D02*
X65800000Y-93875000D01*
X64900000Y-85925000D02*
X76500000Y-85925000D01*
X66400000Y-95010000D02*
X67000000Y-95010000D01*
X66700000Y-94510000D02*
X66400000Y-95010000D01*
X67000000Y-95010000D02*
X66700000Y-94510000D01*
X75600000Y-93875000D02*
X78075000Y-93875000D01*
X78075000Y-93875000D02*
X78075000Y-89250000D01*
D16*
%TO.C,TP1*%
X89615000Y-23595000D02*
G75*
G02*
X86715000Y-23595000I-1450000J0D01*
G01*
X86715000Y-23595000D02*
G75*
G02*
X89615000Y-23595000I1450000J0D01*
G01*
%TO.C,TP3*%
X78815000Y-23695000D02*
G75*
G02*
X75915000Y-23695000I-1450000J0D01*
G01*
X75915000Y-23695000D02*
G75*
G02*
X78815000Y-23695000I1450000J0D01*
G01*
%TO.C,TP2*%
X89615000Y-28345000D02*
G75*
G02*
X86715000Y-28345000I-1450000J0D01*
G01*
X86715000Y-28345000D02*
G75*
G02*
X89615000Y-28345000I1450000J0D01*
G01*
D15*
%TO.C,J1*%
X62625000Y-161300000D02*
X62625000Y-165925000D01*
X62625000Y-165925000D02*
X65100000Y-165925000D01*
X64200000Y-157975000D02*
X77800000Y-157975000D01*
X65700000Y-167070000D02*
X66300000Y-167070000D01*
X66000000Y-166570000D02*
X65700000Y-167070000D01*
X66300000Y-167070000D02*
X66000000Y-166570000D01*
X76900000Y-165925000D02*
X79375000Y-165925000D01*
X79375000Y-165925000D02*
X79375000Y-161300000D01*
%TD*%
%LPC*%
D17*
%TO.C,J3*%
X64556200Y-89001200D02*
X63053800Y-89001200D01*
X63053800Y-85948800D01*
X64556200Y-85948800D01*
X64556200Y-89001200D01*
G36*
X64556200Y-89001200D02*
G01*
X63053800Y-89001200D01*
X63053800Y-85948800D01*
X64556200Y-85948800D01*
X64556200Y-89001200D01*
G37*
X67326200Y-94251200D02*
X66073800Y-94251200D01*
X66073800Y-92648800D01*
X67326200Y-92648800D01*
X67326200Y-94251200D01*
G36*
X67326200Y-94251200D02*
G01*
X66073800Y-94251200D01*
X66073800Y-92648800D01*
X67326200Y-92648800D01*
X67326200Y-94251200D01*
G37*
X69326200Y-94251200D02*
X68073800Y-94251200D01*
X68073800Y-92648800D01*
X69326200Y-92648800D01*
X69326200Y-94251200D01*
G36*
X69326200Y-94251200D02*
G01*
X68073800Y-94251200D01*
X68073800Y-92648800D01*
X69326200Y-92648800D01*
X69326200Y-94251200D01*
G37*
X71326200Y-94251200D02*
X70073800Y-94251200D01*
X70073800Y-92648800D01*
X71326200Y-92648800D01*
X71326200Y-94251200D01*
G36*
X71326200Y-94251200D02*
G01*
X70073800Y-94251200D01*
X70073800Y-92648800D01*
X71326200Y-92648800D01*
X71326200Y-94251200D01*
G37*
X73326200Y-94251200D02*
X72073800Y-94251200D01*
X72073800Y-92648800D01*
X73326200Y-92648800D01*
X73326200Y-94251200D01*
G36*
X73326200Y-94251200D02*
G01*
X72073800Y-94251200D01*
X72073800Y-92648800D01*
X73326200Y-92648800D01*
X73326200Y-94251200D01*
G37*
X75326200Y-94251200D02*
X74073800Y-94251200D01*
X74073800Y-92648800D01*
X75326200Y-92648800D01*
X75326200Y-94251200D01*
G36*
X75326200Y-94251200D02*
G01*
X74073800Y-94251200D01*
X74073800Y-92648800D01*
X75326200Y-92648800D01*
X75326200Y-94251200D01*
G37*
X78346200Y-89001200D02*
X76843800Y-89001200D01*
X76843800Y-85948800D01*
X78346200Y-85948800D01*
X78346200Y-89001200D01*
G36*
X78346200Y-89001200D02*
G01*
X76843800Y-89001200D01*
X76843800Y-85948800D01*
X78346200Y-85948800D01*
X78346200Y-89001200D01*
G37*
%TO.C,J1*%
X63856200Y-161051200D02*
X62353800Y-161051200D01*
X62353800Y-157998800D01*
X63856200Y-157998800D01*
X63856200Y-161051200D01*
G36*
X63856200Y-161051200D02*
G01*
X62353800Y-161051200D01*
X62353800Y-157998800D01*
X63856200Y-157998800D01*
X63856200Y-161051200D01*
G37*
X66626200Y-166301200D02*
X65373800Y-166301200D01*
X65373800Y-164698800D01*
X66626200Y-164698800D01*
X66626200Y-166301200D01*
G36*
X66626200Y-166301200D02*
G01*
X65373800Y-166301200D01*
X65373800Y-164698800D01*
X66626200Y-164698800D01*
X66626200Y-166301200D01*
G37*
X68626200Y-166301200D02*
X67373800Y-166301200D01*
X67373800Y-164698800D01*
X68626200Y-164698800D01*
X68626200Y-166301200D01*
G36*
X68626200Y-166301200D02*
G01*
X67373800Y-166301200D01*
X67373800Y-164698800D01*
X68626200Y-164698800D01*
X68626200Y-166301200D01*
G37*
X70626200Y-166301200D02*
X69373800Y-166301200D01*
X69373800Y-164698800D01*
X70626200Y-164698800D01*
X70626200Y-166301200D01*
G36*
X70626200Y-166301200D02*
G01*
X69373800Y-166301200D01*
X69373800Y-164698800D01*
X70626200Y-164698800D01*
X70626200Y-166301200D01*
G37*
X72626200Y-166301200D02*
X71373800Y-166301200D01*
X71373800Y-164698800D01*
X72626200Y-164698800D01*
X72626200Y-166301200D01*
G36*
X72626200Y-166301200D02*
G01*
X71373800Y-166301200D01*
X71373800Y-164698800D01*
X72626200Y-164698800D01*
X72626200Y-166301200D01*
G37*
X74626200Y-166301200D02*
X73373800Y-166301200D01*
X73373800Y-164698800D01*
X74626200Y-164698800D01*
X74626200Y-166301200D01*
G36*
X74626200Y-166301200D02*
G01*
X73373800Y-166301200D01*
X73373800Y-164698800D01*
X74626200Y-164698800D01*
X74626200Y-166301200D01*
G37*
X76626200Y-166301200D02*
X75373800Y-166301200D01*
X75373800Y-164698800D01*
X76626200Y-164698800D01*
X76626200Y-166301200D01*
G36*
X76626200Y-166301200D02*
G01*
X75373800Y-166301200D01*
X75373800Y-164698800D01*
X76626200Y-164698800D01*
X76626200Y-166301200D01*
G37*
X79646200Y-161051200D02*
X78143800Y-161051200D01*
X78143800Y-157998800D01*
X79646200Y-157998800D01*
X79646200Y-161051200D01*
G36*
X79646200Y-161051200D02*
G01*
X78143800Y-161051200D01*
X78143800Y-157998800D01*
X79646200Y-157998800D01*
X79646200Y-161051200D01*
G37*
%TD*%
D18*
%TO.C,H12*%
X109240000Y-127760000D03*
D19*
X109240000Y-127760000D03*
%TD*%
D20*
%TO.C,SC8*%
X98450000Y-95070000D03*
X89450000Y-95070000D03*
%TD*%
%TO.C,SC2*%
X51750000Y-85595000D03*
X42750000Y-85595000D03*
%TD*%
D18*
%TO.C,H8*%
X32260000Y-231510000D03*
D19*
X32260000Y-231510000D03*
%TD*%
D20*
%TO.C,SC1*%
X66525000Y-59345000D03*
X75525000Y-59345000D03*
%TD*%
%TO.C,SC12*%
X74080000Y-206030000D03*
X74080000Y-197030000D03*
%TD*%
%TO.C,SC11*%
X75240000Y-185520000D03*
X66240000Y-185520000D03*
%TD*%
%TO.C,SC9*%
X99970000Y-131590000D03*
X90970000Y-131590000D03*
%TD*%
D18*
%TO.C,H9*%
X32240000Y-127750000D03*
D19*
X32240000Y-127750000D03*
%TD*%
D18*
%TO.C,H3*%
X63000000Y-117500000D03*
D19*
X63000000Y-117500000D03*
%TD*%
D20*
%TO.C,SC7*%
X89500000Y-33500000D03*
X98500000Y-33500000D03*
%TD*%
D18*
%TO.C,H10*%
X32250000Y-24010000D03*
D19*
X32250000Y-24010000D03*
%TD*%
D18*
%TO.C,H2*%
X76265000Y-124425000D03*
D19*
X76265000Y-124425000D03*
%TD*%
D20*
%TO.C,SC6*%
X74080000Y-228670000D03*
X74080000Y-219670000D03*
%TD*%
D18*
%TO.C,H5*%
X63000000Y-101500000D03*
D19*
X63000000Y-101500000D03*
%TD*%
D20*
%TO.C,SC5*%
X51665000Y-193595000D03*
X42665000Y-193595000D03*
%TD*%
D18*
%TO.C,H7*%
X109240000Y-231500000D03*
D19*
X109240000Y-231500000D03*
%TD*%
D18*
%TO.C,H4*%
X79000000Y-117500000D03*
D19*
X79000000Y-117500000D03*
%TD*%
D18*
%TO.C,H11*%
X109260000Y-24000000D03*
D19*
X109260000Y-24000000D03*
%TD*%
D20*
%TO.C,SC4*%
X50665000Y-157595000D03*
X41665000Y-157595000D03*
%TD*%
%TO.C,SC3*%
X50680000Y-121595000D03*
X41680000Y-121595000D03*
%TD*%
%TO.C,SC10*%
X100020000Y-167610000D03*
X91020000Y-167610000D03*
%TD*%
D18*
%TO.C,H6*%
X79000000Y-101500000D03*
D19*
X79000000Y-101500000D03*
%TD*%
D18*
%TO.C,H1*%
X65165000Y-124425000D03*
D19*
X65165000Y-124425000D03*
%TD*%
D21*
%TO.C,TP1*%
X88165000Y-23595000D03*
%TD*%
%TO.C,TP3*%
X77365000Y-23695000D03*
%TD*%
%TO.C,TP2*%
X88165000Y-28345000D03*
%TD*%
%LPD*%
M02*
