%TF.GenerationSoftware,KiCad,Pcbnew,9.0.1*%
%TF.CreationDate,2025-04-05T23:32:22-07:00*%
%TF.ProjectId,LT8491-mezzanine,4c543834-3931-42d6-9d65-7a7a616e696e,1.1*%
%TF.SameCoordinates,Original*%
%TF.FileFunction,Copper,L6,Bot*%
%TF.FilePolarity,Positive*%
%FSLAX46Y46*%
G04 Gerber Fmt 4.6, Leading zero omitted, Abs format (unit mm)*
G04 Created by KiCad (PCBNEW 9.0.1) date 2025-04-05 23:32:22*
%MOMM*%
%LPD*%
G01*
G04 APERTURE LIST*
%TA.AperFunction,ComponentPad*%
%ADD10C,1.400000*%
%TD*%
%TA.AperFunction,SMDPad,CuDef*%
%ADD11R,1.400000X1.400000*%
%TD*%
%TA.AperFunction,ViaPad*%
%ADD12C,0.584200*%
%TD*%
%TA.AperFunction,ViaPad*%
%ADD13C,1.000000*%
%TD*%
%TA.AperFunction,ViaPad*%
%ADD14C,0.800000*%
%TD*%
G04 APERTURE END LIST*
D10*
%TO.P,J2,1,Pin_1*%
%TO.N,GND*%
X129250000Y-86910000D03*
D11*
X129950000Y-86910000D03*
D10*
X130650000Y-86910000D03*
%TD*%
%TO.P,J12,1,Pin_1*%
%TO.N,GND*%
X165099997Y-79290012D03*
D11*
X165799997Y-79290012D03*
D10*
X166499997Y-79290012D03*
%TD*%
%TO.P,J10,1,Pin_1*%
%TO.N,REG_{FAULT}*%
X165100000Y-114850000D03*
D11*
X165800000Y-114850000D03*
D10*
X166500000Y-114850000D03*
%TD*%
%TO.P,J3,1,Pin_1*%
%TO.N,VSOLAR*%
X129250000Y-89450000D03*
D11*
X129950000Y-89450000D03*
D10*
X130650000Y-89450000D03*
%TD*%
%TO.P,J1,1,Pin_1*%
%TO.N,GND*%
X129250000Y-84370000D03*
D11*
X129950000Y-84370000D03*
D10*
X130650000Y-84370000D03*
%TD*%
%TO.P,J7,1,Pin_1*%
%TO.N,VBATT*%
X165100000Y-89450000D03*
D11*
X165800000Y-89450000D03*
D10*
X166500000Y-89450000D03*
%TD*%
%TO.P,J9,1,Pin_1*%
%TO.N,unconnected-(J9-Pin_1-Pad1)_2*%
X129250000Y-117390000D03*
D11*
%TO.N,unconnected-(J9-Pin_1-Pad1)*%
X129950000Y-117390000D03*
D10*
%TO.N,unconnected-(J9-Pin_1-Pad1)_3*%
X130650000Y-117390000D03*
%TD*%
%TO.P,J24,1,Pin_1*%
%TO.N,unconnected-(J24-Pin_1-Pad1)_2*%
X129250000Y-114850000D03*
D11*
%TO.N,unconnected-(J24-Pin_1-Pad1)_3*%
X129950000Y-114850000D03*
D10*
%TO.N,unconnected-(J24-Pin_1-Pad1)*%
X130650000Y-114850000D03*
%TD*%
%TO.P,J14,1,Pin_1*%
%TO.N,GND*%
X129250000Y-107230000D03*
D11*
X129950000Y-107230000D03*
D10*
X130650000Y-107230000D03*
%TD*%
%TO.P,J19,1,Pin_1*%
%TO.N,GND*%
X135750000Y-77150000D03*
D11*
X135750000Y-76450000D03*
D10*
X135750000Y-75750000D03*
%TD*%
%TO.P,J4,1,Pin_1*%
%TO.N,VSOLAR*%
X129250000Y-91990000D03*
D11*
X129950000Y-91990000D03*
D10*
X130650000Y-91990000D03*
%TD*%
%TO.P,J11,1,Pin_1*%
%TO.N,GND*%
X129250000Y-79290000D03*
D11*
X129950000Y-79290000D03*
D10*
X130650000Y-79290000D03*
%TD*%
%TO.P,J8,1,Pin_1*%
%TO.N,VBATT*%
X165100000Y-91990000D03*
D11*
X165800000Y-91990000D03*
D10*
X166500000Y-91990000D03*
%TD*%
%TO.P,J16,1,Pin_1*%
%TO.N,/SYNC*%
X165100000Y-102150000D03*
D11*
X165800000Y-102150000D03*
D10*
X166500000Y-102150000D03*
%TD*%
%TO.P,J13,1,Pin_1*%
%TO.N,unconnected-(J13-Pin_1-Pad1)_1*%
X129250000Y-102150000D03*
D11*
%TO.N,unconnected-(J13-Pin_1-Pad1)_3*%
X129950000Y-102150000D03*
D10*
%TO.N,unconnected-(J13-Pin_1-Pad1)*%
X130650000Y-102150000D03*
%TD*%
%TO.P,J6,1,Pin_1*%
%TO.N,GND*%
X165100000Y-86910000D03*
D11*
X165800000Y-86910000D03*
D10*
X166500000Y-86910000D03*
%TD*%
%TO.P,J20,1,Pin_1*%
%TO.N,unconnected-(J20-Pin_1-Pad1)_2*%
X147875000Y-77150000D03*
D11*
%TO.N,unconnected-(J20-Pin_1-Pad1)_3*%
X147875000Y-76450000D03*
D10*
%TO.N,unconnected-(J20-Pin_1-Pad1)_1*%
X147875000Y-75750000D03*
%TD*%
%TO.P,J5,1,Pin_1*%
%TO.N,GND*%
X165099997Y-84370012D03*
D11*
X165799997Y-84370012D03*
D10*
X166499997Y-84370012D03*
%TD*%
%TO.P,J23,1,Pin_1*%
%TO.N,/SCL*%
X165100000Y-117390000D03*
D11*
X165800000Y-117390000D03*
D10*
X166500000Y-117390000D03*
%TD*%
%TO.P,J25,1,Pin_1*%
%TO.N,REG_{STATUS}*%
X129250000Y-119930000D03*
D11*
X129950000Y-119930000D03*
D10*
X130650000Y-119930000D03*
%TD*%
%TO.P,J15,1,Pin_1*%
%TO.N,V_{DD}*%
X129250000Y-112310000D03*
D11*
X129950000Y-112310000D03*
D10*
X130650000Y-112310000D03*
%TD*%
%TO.P,J22,1,Pin_1*%
%TO.N,/SDA*%
X165100000Y-119930000D03*
D11*
X165800000Y-119930000D03*
D10*
X166500000Y-119930000D03*
%TD*%
%TO.P,J21,1,Pin_1*%
%TO.N,GND*%
X160000000Y-77150000D03*
D11*
X160000000Y-76450000D03*
D10*
X160000000Y-75750000D03*
%TD*%
%TO.P,J17,1,Pin_1*%
%TO.N,/~{SHDN}*%
X165100000Y-107230000D03*
D11*
X165800000Y-107230000D03*
D10*
X166500000Y-107230000D03*
%TD*%
%TO.P,J18,1,Pin_1*%
%TO.N,GND*%
X165100000Y-112310000D03*
D11*
X165800000Y-112310000D03*
D10*
X166500000Y-112310000D03*
%TD*%
D12*
%TO.N,GND*%
X147200000Y-99950000D03*
X155000000Y-104600000D03*
X145400000Y-109100000D03*
D13*
X159999998Y-85750000D03*
X159999998Y-81750000D03*
D12*
X132000000Y-114991424D03*
D13*
X133249998Y-85750000D03*
D12*
X145400000Y-111800000D03*
D13*
X161250000Y-85750000D03*
D12*
X144000000Y-110900000D03*
X163200000Y-109000000D03*
X155000000Y-106150000D03*
X134900000Y-104700000D03*
X150050000Y-99600000D03*
D13*
X135750000Y-85750000D03*
D12*
X132800000Y-118400000D03*
X133310000Y-111790000D03*
X144000000Y-106400000D03*
X155000000Y-113800000D03*
D13*
X146900000Y-107850000D03*
D12*
X144000000Y-110000000D03*
D13*
X134500000Y-81750000D03*
D12*
X144000000Y-112700000D03*
X156100000Y-99800000D03*
X145400000Y-112700000D03*
X131875000Y-116591424D03*
X135550000Y-109250000D03*
X145250000Y-99900000D03*
X159460000Y-118100000D03*
X145400000Y-110900000D03*
X131350000Y-99450000D03*
X151150000Y-99600000D03*
X145400000Y-106400000D03*
X159400000Y-110500000D03*
X131630000Y-109750000D03*
X133372219Y-113027781D03*
X145520000Y-121160000D03*
X131650000Y-96100000D03*
X158080000Y-109680000D03*
X141600000Y-99150000D03*
X163950000Y-96200000D03*
D13*
X146900000Y-109100002D03*
X161250000Y-81750000D03*
D12*
X146126145Y-117943855D03*
X144000000Y-113600000D03*
X152800000Y-117000000D03*
D13*
X134500000Y-85750000D03*
D12*
X145400000Y-107300000D03*
X154550000Y-99650000D03*
D13*
X133249998Y-81750000D03*
D12*
X162350000Y-114225000D03*
D13*
X162500000Y-85750000D03*
D12*
X145400000Y-108200000D03*
X159985537Y-107025537D03*
X159450000Y-113425000D03*
X155050000Y-111500000D03*
X144000000Y-108200000D03*
X156850000Y-102300000D03*
X165100000Y-105700000D03*
X137110000Y-107000000D03*
X144000000Y-109100000D03*
X147580000Y-117890000D03*
D13*
X146900000Y-106600000D03*
D12*
X145400000Y-113600000D03*
D13*
X162500000Y-81750000D03*
D12*
X144000000Y-107300000D03*
X144000000Y-111800000D03*
X142820000Y-121180000D03*
X145400000Y-110000000D03*
X159200000Y-114300000D03*
D13*
X135750000Y-81750000D03*
%TO.N,VBATT*%
X159999998Y-88250000D03*
X161250000Y-88250000D03*
X162500000Y-88250000D03*
%TO.N,VSOLAR*%
X135750000Y-88250000D03*
X133249998Y-88250000D03*
X134500000Y-88250000D03*
D12*
%TO.N,Net-(U4-TEMPSENSE)*%
X150400000Y-116360000D03*
X159900000Y-115900000D03*
%TO.N,GATEV_{CC}*%
X134600000Y-103600000D03*
X150780000Y-103080000D03*
X145325000Y-102275000D03*
X151750000Y-113750000D03*
%TO.N,Net-(U4-IMON_OUT)*%
X149440000Y-119720000D03*
X151031453Y-105080553D03*
X135346529Y-118210000D03*
%TO.N,Net-(U4-CLKDET)*%
X149300000Y-101500000D03*
X143069824Y-117325935D03*
%TO.N,/EXTV_{CC}*%
X142690000Y-109670000D03*
X159460000Y-101030000D03*
X140300000Y-107000000D03*
%TO.N,/V_{OUT}*%
X156490000Y-97170670D03*
X156100000Y-103900000D03*
X159300000Y-102800000D03*
%TO.N,V_{DD}*%
X143140000Y-118400000D03*
X150390000Y-115000000D03*
%TO.N,/AVDD*%
X144559567Y-120116600D03*
X162000000Y-117700000D03*
%TO.N,Net-(Q5B-G1)*%
X159576201Y-103560498D03*
X159600000Y-109016424D03*
%TO.N,SWENO*%
X139500000Y-114810000D03*
X156220000Y-110530000D03*
X150494039Y-112186484D03*
%TO.N,Net-(U4-FBIN)*%
X155900000Y-116900000D03*
X135358576Y-116591424D03*
X151390000Y-107090000D03*
D14*
%TO.N,ECON*%
X163425000Y-111850000D03*
D12*
X138600000Y-119980000D03*
X140210000Y-113780000D03*
%TO.N,REG_{FAULT}*%
X149627121Y-116907121D03*
X163000000Y-116250000D03*
%TO.N,Net-(U4-VINR)*%
X135350000Y-115000000D03*
X141750000Y-117360000D03*
%TO.N,Net-(U4-IIR)*%
X141657329Y-116083400D03*
X151716370Y-112766370D03*
%TO.N,REG_{STATUS}*%
X140608814Y-115563191D03*
X136900000Y-120200000D03*
%TO.N,Net-(U4-LDO33)*%
X140680000Y-119763400D03*
X150050000Y-109040000D03*
%TO.N,Net-(U4-FBOR)*%
X144811849Y-118140157D03*
X153900000Y-117900000D03*
X156319854Y-106198813D03*
X151750000Y-106220000D03*
%TO.N,/V_{SW1}*%
X140100000Y-102400000D03*
D14*
X140500000Y-93250000D03*
D12*
%TO.N,/V_{SW2}*%
X143400000Y-104200000D03*
D14*
X150600000Y-92559292D03*
%TO.N,/TG1*%
X136700000Y-93325000D03*
D12*
X138600000Y-102400000D03*
D14*
%TO.N,/BG1*%
X146250000Y-96500000D03*
D12*
X147130000Y-104140000D03*
D14*
%TO.N,/BG2*%
X152580000Y-96590000D03*
D12*
X145056167Y-98891389D03*
D14*
%TO.N,/TG2*%
X155389622Y-93170827D03*
D12*
X144247971Y-104209976D03*
%TO.N,/CSPIN*%
X134500000Y-98100000D03*
X137150000Y-111610000D03*
%TO.N,/CSNIN*%
X137200005Y-98100007D03*
X133969100Y-106795000D03*
%TO.N,/CSPOUT*%
X137140000Y-110000000D03*
X158637500Y-98071064D03*
%TO.N,/CSNOUT*%
X161578511Y-98100000D03*
X137150000Y-108500000D03*
%TO.N,/CSNIN_0*%
X133969100Y-108445000D03*
X140542879Y-111357121D03*
%TO.N,/FBIN*%
X159509100Y-111799643D03*
X137975000Y-114000000D03*
X140990000Y-112730000D03*
X133750000Y-90500000D03*
%TO.N,/FBOUT*%
X162000000Y-90500000D03*
X161080000Y-106420000D03*
X162943400Y-99820000D03*
%TO.N,/FBOUT_0*%
X159500000Y-99700000D03*
X159500000Y-104500000D03*
%TO.N,Net-(NT1-Pad2)*%
X155060000Y-109680000D03*
X148300000Y-98962500D03*
%TO.N,/~{SHDN}*%
X151680000Y-111490000D03*
X156189600Y-112638394D03*
%TO.N,/SYNC*%
X148550000Y-103500000D03*
%TO.N,/SDA*%
X160375000Y-120590000D03*
X146850000Y-120780000D03*
%TO.N,/SCL*%
X158625000Y-120590000D03*
X148649998Y-120750000D03*
%TO.N,/RS+*%
X148100009Y-96037502D03*
X155070000Y-107483400D03*
%TD*%
%TA.AperFunction,Conductor*%
%TO.N,GND*%
G36*
X146902194Y-76149806D02*
G01*
X146920500Y-76194000D01*
X146920500Y-77100033D01*
X146920199Y-77106158D01*
X146915882Y-77149999D01*
X146915882Y-77150001D01*
X146934310Y-77337113D01*
X146988892Y-77517042D01*
X147077519Y-77682851D01*
X147077521Y-77682855D01*
X147077523Y-77682857D01*
X147196801Y-77828199D01*
X147342143Y-77947477D01*
X147342146Y-77947478D01*
X147342148Y-77947480D01*
X147507957Y-78036107D01*
X147507961Y-78036109D01*
X147687885Y-78090689D01*
X147875000Y-78109118D01*
X148062115Y-78090689D01*
X148242039Y-78036109D01*
X148407857Y-77947477D01*
X148553199Y-77828199D01*
X148672477Y-77682857D01*
X148761109Y-77517039D01*
X148815689Y-77337115D01*
X148834118Y-77150000D01*
X148829800Y-77106166D01*
X148829499Y-77100039D01*
X148829499Y-76194000D01*
X148847805Y-76149806D01*
X148891999Y-76131500D01*
X166056000Y-76131500D01*
X166100194Y-76149806D01*
X166118500Y-76194000D01*
X166118500Y-88433000D01*
X166100194Y-88477194D01*
X166056000Y-88495500D01*
X165149965Y-88495500D01*
X165143840Y-88495199D01*
X165100002Y-88490882D01*
X165099999Y-88490882D01*
X164912886Y-88509310D01*
X164732957Y-88563892D01*
X164567148Y-88652519D01*
X164567137Y-88652527D01*
X164421802Y-88771799D01*
X164421799Y-88771802D01*
X164302527Y-88917137D01*
X164302519Y-88917148D01*
X164213892Y-89082957D01*
X164159310Y-89262886D01*
X164140882Y-89449999D01*
X164140882Y-89450000D01*
X164159310Y-89637113D01*
X164213892Y-89817042D01*
X164302519Y-89982851D01*
X164302521Y-89982855D01*
X164302523Y-89982857D01*
X164421801Y-90128199D01*
X164567143Y-90247477D01*
X164567146Y-90247478D01*
X164567148Y-90247480D01*
X164718499Y-90328379D01*
X164732961Y-90336109D01*
X164912885Y-90390689D01*
X165100000Y-90409118D01*
X165143833Y-90404799D01*
X165149959Y-90404499D01*
X166056000Y-90404499D01*
X166100194Y-90422805D01*
X166118500Y-90466999D01*
X166118500Y-90973000D01*
X166100194Y-91017194D01*
X166056000Y-91035500D01*
X165149965Y-91035500D01*
X165143840Y-91035199D01*
X165100002Y-91030882D01*
X165099999Y-91030882D01*
X164912886Y-91049310D01*
X164732957Y-91103892D01*
X164567148Y-91192519D01*
X164567137Y-91192527D01*
X164421802Y-91311799D01*
X164421799Y-91311802D01*
X164302527Y-91457137D01*
X164302519Y-91457148D01*
X164213892Y-91622957D01*
X164159310Y-91802886D01*
X164140882Y-91989999D01*
X164140882Y-91990000D01*
X164159310Y-92177113D01*
X164213892Y-92357042D01*
X164302519Y-92522851D01*
X164302527Y-92522862D01*
X164421799Y-92668197D01*
X164421802Y-92668200D01*
X164501522Y-92733624D01*
X164567143Y-92787477D01*
X164567146Y-92787478D01*
X164567148Y-92787480D01*
X164711115Y-92864432D01*
X164732961Y-92876109D01*
X164912885Y-92930689D01*
X165100000Y-92949118D01*
X165143833Y-92944799D01*
X165149959Y-92944499D01*
X166056000Y-92944499D01*
X166100194Y-92962805D01*
X166118500Y-93006999D01*
X166118500Y-101133000D01*
X166100194Y-101177194D01*
X166056000Y-101195500D01*
X165149965Y-101195500D01*
X165143840Y-101195199D01*
X165100002Y-101190882D01*
X165099999Y-101190882D01*
X164912886Y-101209310D01*
X164732957Y-101263892D01*
X164567148Y-101352519D01*
X164567137Y-101352527D01*
X164421802Y-101471799D01*
X164421799Y-101471802D01*
X164302527Y-101617137D01*
X164302519Y-101617148D01*
X164213892Y-101782957D01*
X164159310Y-101962886D01*
X164140882Y-102149999D01*
X164140882Y-102150000D01*
X164159310Y-102337113D01*
X164213892Y-102517042D01*
X164302519Y-102682851D01*
X164302527Y-102682862D01*
X164404838Y-102807530D01*
X164421801Y-102828199D01*
X164567143Y-102947477D01*
X164567146Y-102947478D01*
X164567148Y-102947480D01*
X164718499Y-103028379D01*
X164732961Y-103036109D01*
X164912885Y-103090689D01*
X165100000Y-103109118D01*
X165143833Y-103104799D01*
X165149959Y-103104499D01*
X166056000Y-103104499D01*
X166100194Y-103122805D01*
X166118500Y-103166999D01*
X166118500Y-106213000D01*
X166100194Y-106257194D01*
X166056000Y-106275500D01*
X165149965Y-106275500D01*
X165143840Y-106275199D01*
X165100002Y-106270882D01*
X165099999Y-106270882D01*
X164912886Y-106289310D01*
X164732957Y-106343892D01*
X164567148Y-106432519D01*
X164567137Y-106432527D01*
X164421802Y-106551799D01*
X164421799Y-106551802D01*
X164302527Y-106697137D01*
X164302519Y-106697148D01*
X164213892Y-106862957D01*
X164159310Y-107042886D01*
X164140882Y-107229999D01*
X164140882Y-107230000D01*
X164159310Y-107417113D01*
X164213892Y-107597042D01*
X164302519Y-107762851D01*
X164302527Y-107762862D01*
X164421799Y-107908197D01*
X164421802Y-107908200D01*
X164427004Y-107912469D01*
X164567143Y-108027477D01*
X164567146Y-108027478D01*
X164567148Y-108027480D01*
X164721829Y-108110159D01*
X164732961Y-108116109D01*
X164912885Y-108170689D01*
X165100000Y-108189118D01*
X165143833Y-108184799D01*
X165149959Y-108184499D01*
X166056000Y-108184499D01*
X166100194Y-108202805D01*
X166118500Y-108246999D01*
X166118500Y-113833000D01*
X166100194Y-113877194D01*
X166056000Y-113895500D01*
X165149965Y-113895500D01*
X165143840Y-113895199D01*
X165100002Y-113890882D01*
X165099999Y-113890882D01*
X164912886Y-113909310D01*
X164732957Y-113963892D01*
X164567148Y-114052519D01*
X164567137Y-114052527D01*
X164421802Y-114171799D01*
X164421799Y-114171802D01*
X164302527Y-114317137D01*
X164302519Y-114317148D01*
X164213892Y-114482957D01*
X164159310Y-114662886D01*
X164140882Y-114849999D01*
X164140882Y-114850000D01*
X164159310Y-115037113D01*
X164213892Y-115217042D01*
X164302519Y-115382851D01*
X164302527Y-115382862D01*
X164421799Y-115528197D01*
X164421802Y-115528200D01*
X164464439Y-115563191D01*
X164567143Y-115647477D01*
X164567146Y-115647478D01*
X164567148Y-115647480D01*
X164718499Y-115728379D01*
X164732961Y-115736109D01*
X164912885Y-115790689D01*
X165100000Y-115809118D01*
X165143833Y-115804799D01*
X165149959Y-115804499D01*
X166056000Y-115804499D01*
X166100194Y-115822805D01*
X166118500Y-115866999D01*
X166118500Y-116373000D01*
X166100194Y-116417194D01*
X166056000Y-116435500D01*
X165149965Y-116435500D01*
X165143840Y-116435199D01*
X165100002Y-116430882D01*
X165099999Y-116430882D01*
X164912886Y-116449310D01*
X164732957Y-116503892D01*
X164567148Y-116592519D01*
X164567137Y-116592527D01*
X164421802Y-116711799D01*
X164421799Y-116711802D01*
X164302527Y-116857137D01*
X164302519Y-116857148D01*
X164213892Y-117022957D01*
X164159310Y-117202886D01*
X164140882Y-117389999D01*
X164140882Y-117390000D01*
X164159310Y-117577113D01*
X164213892Y-117757042D01*
X164302519Y-117922851D01*
X164302527Y-117922862D01*
X164421799Y-118068197D01*
X164421802Y-118068200D01*
X164448171Y-118089840D01*
X164567143Y-118187477D01*
X164567146Y-118187478D01*
X164567148Y-118187480D01*
X164697789Y-118257309D01*
X164732961Y-118276109D01*
X164912885Y-118330689D01*
X165100000Y-118349118D01*
X165143833Y-118344799D01*
X165149959Y-118344499D01*
X166056000Y-118344499D01*
X166100194Y-118362805D01*
X166118500Y-118406999D01*
X166118500Y-118913000D01*
X166100194Y-118957194D01*
X166056000Y-118975500D01*
X165149965Y-118975500D01*
X165143840Y-118975199D01*
X165100002Y-118970882D01*
X165099999Y-118970882D01*
X164912886Y-118989310D01*
X164732957Y-119043892D01*
X164567148Y-119132519D01*
X164567137Y-119132527D01*
X164421802Y-119251799D01*
X164421799Y-119251802D01*
X164302527Y-119397137D01*
X164302519Y-119397148D01*
X164213892Y-119562957D01*
X164159310Y-119742886D01*
X164140882Y-119929999D01*
X164140882Y-119930000D01*
X164159310Y-120117113D01*
X164213892Y-120297042D01*
X164302519Y-120462851D01*
X164302527Y-120462862D01*
X164421075Y-120607315D01*
X164421801Y-120608199D01*
X164567143Y-120727477D01*
X164567146Y-120727478D01*
X164567148Y-120727480D01*
X164718499Y-120808379D01*
X164732961Y-120816109D01*
X164912885Y-120870689D01*
X165100000Y-120889118D01*
X165143833Y-120884799D01*
X165149959Y-120884499D01*
X166056000Y-120884499D01*
X166100194Y-120902805D01*
X166118500Y-120946999D01*
X166118500Y-121306000D01*
X166100194Y-121350194D01*
X166056000Y-121368500D01*
X148899352Y-121368500D01*
X148855158Y-121350194D01*
X148836852Y-121306000D01*
X148855158Y-121261806D01*
X148875435Y-121248257D01*
X148925657Y-121227455D01*
X149039838Y-121139840D01*
X149127453Y-121025659D01*
X149182529Y-120892691D01*
X149186088Y-120865657D01*
X149201315Y-120750002D01*
X149201315Y-120749997D01*
X149182530Y-120607315D01*
X149182529Y-120607313D01*
X149182529Y-120607309D01*
X149175358Y-120589997D01*
X158073683Y-120589997D01*
X158073683Y-120590002D01*
X158092467Y-120732684D01*
X158092468Y-120732689D01*
X158092469Y-120732691D01*
X158147545Y-120865659D01*
X158235160Y-120979840D01*
X158349341Y-121067455D01*
X158482309Y-121122531D01*
X158482313Y-121122531D01*
X158482315Y-121122532D01*
X158624997Y-121141317D01*
X158625000Y-121141317D01*
X158625003Y-121141317D01*
X158767684Y-121122532D01*
X158767684Y-121122531D01*
X158767691Y-121122531D01*
X158900659Y-121067455D01*
X159014840Y-120979840D01*
X159102455Y-120865659D01*
X159157531Y-120732691D01*
X159158217Y-120727480D01*
X159176317Y-120590002D01*
X159176317Y-120589997D01*
X159823683Y-120589997D01*
X159823683Y-120590002D01*
X159842467Y-120732684D01*
X159842468Y-120732689D01*
X159842469Y-120732691D01*
X159897545Y-120865659D01*
X159985160Y-120979840D01*
X160099341Y-121067455D01*
X160232309Y-121122531D01*
X160232313Y-121122531D01*
X160232315Y-121122532D01*
X160374997Y-121141317D01*
X160375000Y-121141317D01*
X160375003Y-121141317D01*
X160517684Y-121122532D01*
X160517684Y-121122531D01*
X160517691Y-121122531D01*
X160650659Y-121067455D01*
X160764840Y-120979840D01*
X160852455Y-120865659D01*
X160907531Y-120732691D01*
X160908217Y-120727480D01*
X160926317Y-120590002D01*
X160926317Y-120589997D01*
X160907532Y-120447315D01*
X160907531Y-120447313D01*
X160907531Y-120447309D01*
X160852455Y-120314342D01*
X160764840Y-120200160D01*
X160764838Y-120200159D01*
X160764838Y-120200158D01*
X160663872Y-120122684D01*
X160650659Y-120112545D01*
X160644128Y-120109840D01*
X160611708Y-120096411D01*
X160517691Y-120057469D01*
X160517689Y-120057468D01*
X160517684Y-120057467D01*
X160375003Y-120038683D01*
X160374997Y-120038683D01*
X160232315Y-120057467D01*
X160232309Y-120057469D01*
X160099341Y-120112545D01*
X159985159Y-120200159D01*
X159897545Y-120314341D01*
X159842469Y-120447309D01*
X159842467Y-120447315D01*
X159823683Y-120589997D01*
X159176317Y-120589997D01*
X159157532Y-120447315D01*
X159157531Y-120447313D01*
X159157531Y-120447309D01*
X159102455Y-120314342D01*
X159014840Y-120200160D01*
X159014838Y-120200159D01*
X159014838Y-120200158D01*
X158913872Y-120122684D01*
X158900659Y-120112545D01*
X158894128Y-120109840D01*
X158861708Y-120096411D01*
X158767691Y-120057469D01*
X158767689Y-120057468D01*
X158767684Y-120057467D01*
X158625003Y-120038683D01*
X158624997Y-120038683D01*
X158482315Y-120057467D01*
X158482309Y-120057469D01*
X158349341Y-120112545D01*
X158235159Y-120200159D01*
X158147545Y-120314341D01*
X158092469Y-120447309D01*
X158092467Y-120447315D01*
X158073683Y-120589997D01*
X149175358Y-120589997D01*
X149127453Y-120474342D01*
X149039838Y-120360160D01*
X149039836Y-120360159D01*
X149039836Y-120360158D01*
X148964752Y-120302544D01*
X148925657Y-120272545D01*
X148922692Y-120271317D01*
X148877338Y-120252531D01*
X148792689Y-120217469D01*
X148792687Y-120217468D01*
X148792682Y-120217467D01*
X148650001Y-120198683D01*
X148649995Y-120198683D01*
X148507313Y-120217467D01*
X148507307Y-120217469D01*
X148374339Y-120272545D01*
X148260157Y-120360159D01*
X148172543Y-120474341D01*
X148117467Y-120607309D01*
X148117465Y-120607315D01*
X148098681Y-120749997D01*
X148098681Y-120750002D01*
X148117465Y-120892684D01*
X148117466Y-120892689D01*
X148117467Y-120892691D01*
X148172543Y-121025659D01*
X148260158Y-121139840D01*
X148374339Y-121227455D01*
X148424561Y-121248257D01*
X148458386Y-121282082D01*
X148458387Y-121329917D01*
X148424562Y-121363742D01*
X148400644Y-121368500D01*
X147165061Y-121368500D01*
X147120867Y-121350194D01*
X147102561Y-121306000D01*
X147120867Y-121261806D01*
X147127003Y-121256423D01*
X147239840Y-121169840D01*
X147327455Y-121055659D01*
X147382531Y-120922691D01*
X147396563Y-120816109D01*
X147401317Y-120780002D01*
X147401317Y-120779997D01*
X147382532Y-120637315D01*
X147382531Y-120637313D01*
X147382531Y-120637309D01*
X147327455Y-120504342D01*
X147239840Y-120390160D01*
X147239838Y-120390159D01*
X147239838Y-120390158D01*
X147177969Y-120342684D01*
X147125659Y-120302545D01*
X147112373Y-120297042D01*
X147053231Y-120272545D01*
X146992691Y-120247469D01*
X146992689Y-120247468D01*
X146992684Y-120247467D01*
X146850003Y-120228683D01*
X146849997Y-120228683D01*
X146707315Y-120247467D01*
X146707309Y-120247469D01*
X146574341Y-120302545D01*
X146460159Y-120390159D01*
X146372545Y-120504341D01*
X146317469Y-120637309D01*
X146317467Y-120637315D01*
X146298683Y-120779997D01*
X146298683Y-120780002D01*
X146317467Y-120922684D01*
X146317468Y-120922689D01*
X146317469Y-120922691D01*
X146372545Y-121055659D01*
X146460160Y-121169840D01*
X146572988Y-121256416D01*
X146596904Y-121297842D01*
X146584524Y-121344048D01*
X146543097Y-121367965D01*
X146534939Y-121368500D01*
X129694000Y-121368500D01*
X129649806Y-121350194D01*
X129631500Y-121306000D01*
X129631500Y-120946999D01*
X129649806Y-120902805D01*
X129694000Y-120884499D01*
X130600032Y-120884499D01*
X130606158Y-120884800D01*
X130649999Y-120889118D01*
X130649999Y-120889117D01*
X130650000Y-120889118D01*
X130837115Y-120870689D01*
X131017039Y-120816109D01*
X131182857Y-120727477D01*
X131328199Y-120608199D01*
X131447477Y-120462857D01*
X131536109Y-120297039D01*
X131565547Y-120199997D01*
X136348683Y-120199997D01*
X136348683Y-120200002D01*
X136367467Y-120342684D01*
X136367468Y-120342689D01*
X136367469Y-120342691D01*
X136422545Y-120475659D01*
X136510160Y-120589840D01*
X136624341Y-120677455D01*
X136757309Y-120732531D01*
X136757313Y-120732531D01*
X136757315Y-120732532D01*
X136899997Y-120751317D01*
X136900000Y-120751317D01*
X136900003Y-120751317D01*
X137042684Y-120732532D01*
X137042684Y-120732531D01*
X137042691Y-120732531D01*
X137175659Y-120677455D01*
X137289840Y-120589840D01*
X137377455Y-120475659D01*
X137432531Y-120342691D01*
X137436263Y-120314342D01*
X137451317Y-120200002D01*
X137451317Y-120199997D01*
X137432532Y-120057315D01*
X137432531Y-120057313D01*
X137432531Y-120057309D01*
X137400508Y-119979997D01*
X138048683Y-119979997D01*
X138048683Y-119980002D01*
X138067467Y-120122684D01*
X138067468Y-120122689D01*
X138067469Y-120122691D01*
X138122545Y-120255659D01*
X138210160Y-120369840D01*
X138324341Y-120457455D01*
X138457309Y-120512531D01*
X138457313Y-120512531D01*
X138457315Y-120512532D01*
X138599997Y-120531317D01*
X138600000Y-120531317D01*
X138600003Y-120531317D01*
X138742684Y-120512532D01*
X138742684Y-120512531D01*
X138742691Y-120512531D01*
X138875659Y-120457455D01*
X138989840Y-120369840D01*
X139077455Y-120255659D01*
X139132531Y-120122691D01*
X139143591Y-120038683D01*
X139151317Y-119980002D01*
X139151317Y-119979997D01*
X139132532Y-119837315D01*
X139132531Y-119837313D01*
X139132531Y-119837309D01*
X139101916Y-119763397D01*
X140128683Y-119763397D01*
X140128683Y-119763402D01*
X140147467Y-119906084D01*
X140147468Y-119906089D01*
X140147469Y-119906091D01*
X140202545Y-120039059D01*
X140290160Y-120153240D01*
X140404341Y-120240855D01*
X140537309Y-120295931D01*
X140537313Y-120295931D01*
X140537315Y-120295932D01*
X140679997Y-120314717D01*
X140680000Y-120314717D01*
X140680003Y-120314717D01*
X140822684Y-120295932D01*
X140822684Y-120295931D01*
X140822691Y-120295931D01*
X140955659Y-120240855D01*
X141069840Y-120153240D01*
X141097957Y-120116597D01*
X144008250Y-120116597D01*
X144008250Y-120116602D01*
X144027034Y-120259284D01*
X144027035Y-120259289D01*
X144027036Y-120259291D01*
X144049839Y-120314343D01*
X144081242Y-120390160D01*
X144082112Y-120392259D01*
X144169727Y-120506440D01*
X144283908Y-120594055D01*
X144416876Y-120649131D01*
X144416880Y-120649131D01*
X144416882Y-120649132D01*
X144559564Y-120667917D01*
X144559567Y-120667917D01*
X144559570Y-120667917D01*
X144702251Y-120649132D01*
X144702251Y-120649131D01*
X144702258Y-120649131D01*
X144835226Y-120594055D01*
X144949407Y-120506440D01*
X145037022Y-120392259D01*
X145092098Y-120259291D01*
X145092576Y-120255659D01*
X145110884Y-120116602D01*
X145110884Y-120116597D01*
X145092099Y-119973915D01*
X145092098Y-119973913D01*
X145092098Y-119973909D01*
X145037022Y-119840942D01*
X144949407Y-119726760D01*
X144949405Y-119726759D01*
X144949405Y-119726758D01*
X144940594Y-119719997D01*
X148888683Y-119719997D01*
X148888683Y-119720002D01*
X148907467Y-119862684D01*
X148907468Y-119862689D01*
X148907469Y-119862691D01*
X148933005Y-119924341D01*
X148953538Y-119973915D01*
X148962545Y-119995659D01*
X149050160Y-120109840D01*
X149164341Y-120197455D01*
X149297309Y-120252531D01*
X149297313Y-120252531D01*
X149297315Y-120252532D01*
X149439997Y-120271317D01*
X149440000Y-120271317D01*
X149440003Y-120271317D01*
X149582684Y-120252532D01*
X149582684Y-120252531D01*
X149582691Y-120252531D01*
X149715659Y-120197455D01*
X149829840Y-120109840D01*
X149917455Y-119995659D01*
X149972531Y-119862691D01*
X149975394Y-119840942D01*
X149991317Y-119720002D01*
X149991317Y-119719997D01*
X149972532Y-119577315D01*
X149972531Y-119577313D01*
X149972531Y-119577309D01*
X149917455Y-119444342D01*
X149829840Y-119330160D01*
X149829838Y-119330159D01*
X149829838Y-119330158D01*
X149772217Y-119285944D01*
X149715659Y-119242545D01*
X149582691Y-119187469D01*
X149582689Y-119187468D01*
X149582684Y-119187467D01*
X149440003Y-119168683D01*
X149439997Y-119168683D01*
X149297315Y-119187467D01*
X149297309Y-119187469D01*
X149164341Y-119242545D01*
X149050159Y-119330159D01*
X148962545Y-119444341D01*
X148907469Y-119577309D01*
X148907467Y-119577315D01*
X148888683Y-119719997D01*
X144940594Y-119719997D01*
X144872138Y-119667469D01*
X144835226Y-119639145D01*
X144702258Y-119584069D01*
X144702256Y-119584068D01*
X144702251Y-119584067D01*
X144559570Y-119565283D01*
X144559564Y-119565283D01*
X144416882Y-119584067D01*
X144416876Y-119584069D01*
X144283908Y-119639145D01*
X144169726Y-119726759D01*
X144082112Y-119840941D01*
X144027036Y-119973909D01*
X144027034Y-119973915D01*
X144008250Y-120116597D01*
X141097957Y-120116597D01*
X141157455Y-120039059D01*
X141212531Y-119906091D01*
X141231317Y-119763400D01*
X141228616Y-119742886D01*
X141212532Y-119620715D01*
X141212531Y-119620713D01*
X141212531Y-119620709D01*
X141157455Y-119487742D01*
X141069840Y-119373560D01*
X141069838Y-119373559D01*
X141069838Y-119373558D01*
X141013278Y-119330158D01*
X140955659Y-119285945D01*
X140822691Y-119230869D01*
X140822689Y-119230868D01*
X140822684Y-119230867D01*
X140680003Y-119212083D01*
X140679997Y-119212083D01*
X140537315Y-119230867D01*
X140537309Y-119230869D01*
X140404341Y-119285945D01*
X140290159Y-119373559D01*
X140202545Y-119487741D01*
X140147469Y-119620709D01*
X140147467Y-119620715D01*
X140128683Y-119763397D01*
X139101916Y-119763397D01*
X139077455Y-119704342D01*
X138989840Y-119590160D01*
X138989838Y-119590159D01*
X138989838Y-119590158D01*
X138936706Y-119549388D01*
X138875659Y-119502545D01*
X138742691Y-119447469D01*
X138742689Y-119447468D01*
X138742684Y-119447467D01*
X138600003Y-119428683D01*
X138599997Y-119428683D01*
X138457315Y-119447467D01*
X138457309Y-119447469D01*
X138324341Y-119502545D01*
X138210159Y-119590159D01*
X138122545Y-119704341D01*
X138067469Y-119837309D01*
X138067467Y-119837315D01*
X138048683Y-119979997D01*
X137400508Y-119979997D01*
X137377455Y-119924342D01*
X137289840Y-119810160D01*
X137289838Y-119810159D01*
X137289838Y-119810158D01*
X137228898Y-119763397D01*
X137175659Y-119722545D01*
X137169507Y-119719997D01*
X137131710Y-119704341D01*
X137042691Y-119667469D01*
X137042689Y-119667468D01*
X137042684Y-119667467D01*
X136900003Y-119648683D01*
X136899997Y-119648683D01*
X136757315Y-119667467D01*
X136757309Y-119667469D01*
X136624341Y-119722545D01*
X136510159Y-119810159D01*
X136422545Y-119924341D01*
X136367469Y-120057309D01*
X136367467Y-120057315D01*
X136348683Y-120199997D01*
X131565547Y-120199997D01*
X131590689Y-120117115D01*
X131609118Y-119930000D01*
X131590689Y-119742885D01*
X131536109Y-119562961D01*
X131495904Y-119487743D01*
X131447480Y-119397148D01*
X131447478Y-119397146D01*
X131447477Y-119397143D01*
X131328199Y-119251801D01*
X131316920Y-119242545D01*
X131182862Y-119132527D01*
X131182860Y-119132526D01*
X131182857Y-119132523D01*
X131182855Y-119132521D01*
X131182851Y-119132519D01*
X131017042Y-119043892D01*
X130837113Y-118989310D01*
X130650000Y-118970882D01*
X130606167Y-118975199D01*
X130600041Y-118975500D01*
X129694000Y-118975500D01*
X129649806Y-118957194D01*
X129631500Y-118913000D01*
X129631500Y-118406999D01*
X129649806Y-118362805D01*
X129694000Y-118344499D01*
X130600032Y-118344499D01*
X130606158Y-118344800D01*
X130649999Y-118349118D01*
X130649999Y-118349117D01*
X130650000Y-118349118D01*
X130837115Y-118330689D01*
X131017039Y-118276109D01*
X131140725Y-118209997D01*
X134795212Y-118209997D01*
X134795212Y-118210002D01*
X134813996Y-118352684D01*
X134813997Y-118352689D01*
X134813998Y-118352691D01*
X134869074Y-118485659D01*
X134956689Y-118599840D01*
X135070870Y-118687455D01*
X135203838Y-118742531D01*
X135203842Y-118742531D01*
X135203844Y-118742532D01*
X135346526Y-118761317D01*
X135346529Y-118761317D01*
X135346532Y-118761317D01*
X135489213Y-118742532D01*
X135489213Y-118742531D01*
X135489220Y-118742531D01*
X135622188Y-118687455D01*
X135736369Y-118599840D01*
X135823984Y-118485659D01*
X135879060Y-118352691D01*
X135888256Y-118282841D01*
X135897846Y-118210002D01*
X135897846Y-118209997D01*
X135879061Y-118067315D01*
X135879060Y-118067313D01*
X135879060Y-118067309D01*
X135823984Y-117934342D01*
X135736369Y-117820160D01*
X135736367Y-117820159D01*
X135736367Y-117820158D01*
X135683235Y-117779388D01*
X135622188Y-117732545D01*
X135489220Y-117677469D01*
X135489218Y-117677468D01*
X135489213Y-117677467D01*
X135346532Y-117658683D01*
X135346526Y-117658683D01*
X135203844Y-117677467D01*
X135203838Y-117677469D01*
X135070870Y-117732545D01*
X134956688Y-117820159D01*
X134869074Y-117934341D01*
X134813998Y-118067309D01*
X134813996Y-118067315D01*
X134795212Y-118209997D01*
X131140725Y-118209997D01*
X131182857Y-118187477D01*
X131328199Y-118068199D01*
X131447477Y-117922857D01*
X131536109Y-117757039D01*
X131590689Y-117577115D01*
X131609118Y-117390000D01*
X131607882Y-117377455D01*
X131606163Y-117359997D01*
X141198683Y-117359997D01*
X141198683Y-117360002D01*
X141217467Y-117502684D01*
X141217468Y-117502689D01*
X141217469Y-117502691D01*
X141272545Y-117635659D01*
X141360160Y-117749840D01*
X141474341Y-117837455D01*
X141607309Y-117892531D01*
X141607313Y-117892531D01*
X141607315Y-117892532D01*
X141749997Y-117911317D01*
X141750000Y-117911317D01*
X141750003Y-117911317D01*
X141892684Y-117892532D01*
X141892684Y-117892531D01*
X141892691Y-117892531D01*
X142025659Y-117837455D01*
X142139840Y-117749840D01*
X142227455Y-117635659D01*
X142282531Y-117502691D01*
X142290830Y-117439653D01*
X142301317Y-117360002D01*
X142301317Y-117359997D01*
X142296832Y-117325932D01*
X142518507Y-117325932D01*
X142518507Y-117325937D01*
X142537291Y-117468619D01*
X142537292Y-117468624D01*
X142537293Y-117468626D01*
X142592369Y-117601594D01*
X142679984Y-117715775D01*
X142794165Y-117803390D01*
X142840573Y-117822612D01*
X142874398Y-117856437D01*
X142874399Y-117904272D01*
X142854704Y-117929939D01*
X142750160Y-118010159D01*
X142662545Y-118124341D01*
X142607469Y-118257309D01*
X142607467Y-118257315D01*
X142588683Y-118399997D01*
X142588683Y-118400002D01*
X142607467Y-118542684D01*
X142607468Y-118542689D01*
X142607469Y-118542691D01*
X142662545Y-118675659D01*
X142750160Y-118789840D01*
X142864341Y-118877455D01*
X142997309Y-118932531D01*
X142997313Y-118932531D01*
X142997315Y-118932532D01*
X143139997Y-118951317D01*
X143140000Y-118951317D01*
X143140003Y-118951317D01*
X143282684Y-118932532D01*
X143282684Y-118932531D01*
X143282691Y-118932531D01*
X143415659Y-118877455D01*
X143529840Y-118789840D01*
X143617455Y-118675659D01*
X143672531Y-118542691D01*
X143691317Y-118400000D01*
X143685088Y-118352690D01*
X143672532Y-118257315D01*
X143672531Y-118257313D01*
X143672531Y-118257309D01*
X143624004Y-118140154D01*
X144260532Y-118140154D01*
X144260532Y-118140159D01*
X144279316Y-118282841D01*
X144279317Y-118282846D01*
X144279318Y-118282848D01*
X144334394Y-118415816D01*
X144422009Y-118529997D01*
X144536190Y-118617612D01*
X144669158Y-118672688D01*
X144669162Y-118672688D01*
X144669164Y-118672689D01*
X144811846Y-118691474D01*
X144811849Y-118691474D01*
X144811852Y-118691474D01*
X144954533Y-118672689D01*
X144954533Y-118672688D01*
X144954540Y-118672688D01*
X145087508Y-118617612D01*
X145201689Y-118529997D01*
X145289304Y-118415816D01*
X145344380Y-118282848D01*
X145345267Y-118276109D01*
X145363166Y-118140159D01*
X145363166Y-118140154D01*
X145344381Y-117997472D01*
X145344380Y-117997470D01*
X145344380Y-117997466D01*
X145304008Y-117899997D01*
X153348683Y-117899997D01*
X153348683Y-117900002D01*
X153367467Y-118042684D01*
X153367468Y-118042689D01*
X153367469Y-118042691D01*
X153422545Y-118175659D01*
X153510160Y-118289840D01*
X153624341Y-118377455D01*
X153757309Y-118432531D01*
X153757313Y-118432531D01*
X153757315Y-118432532D01*
X153899997Y-118451317D01*
X153900000Y-118451317D01*
X153900003Y-118451317D01*
X154042684Y-118432532D01*
X154042684Y-118432531D01*
X154042691Y-118432531D01*
X154175659Y-118377455D01*
X154289840Y-118289840D01*
X154377455Y-118175659D01*
X154432531Y-118042691D01*
X154441356Y-117975659D01*
X154451317Y-117900002D01*
X154451317Y-117899997D01*
X154432532Y-117757315D01*
X154432531Y-117757313D01*
X154432531Y-117757309D01*
X154408792Y-117699997D01*
X161448683Y-117699997D01*
X161448683Y-117700002D01*
X161467467Y-117842684D01*
X161467468Y-117842689D01*
X161467469Y-117842691D01*
X161522545Y-117975659D01*
X161610160Y-118089840D01*
X161724341Y-118177455D01*
X161857309Y-118232531D01*
X161857313Y-118232531D01*
X161857315Y-118232532D01*
X161999997Y-118251317D01*
X162000000Y-118251317D01*
X162000003Y-118251317D01*
X162142684Y-118232532D01*
X162142684Y-118232531D01*
X162142691Y-118232531D01*
X162275659Y-118177455D01*
X162389840Y-118089840D01*
X162477455Y-117975659D01*
X162532531Y-117842691D01*
X162535497Y-117820160D01*
X162551317Y-117700002D01*
X162551317Y-117699997D01*
X162532532Y-117557315D01*
X162532531Y-117557313D01*
X162532531Y-117557309D01*
X162477455Y-117424342D01*
X162389840Y-117310160D01*
X162389838Y-117310159D01*
X162389838Y-117310158D01*
X162336706Y-117269388D01*
X162275659Y-117222545D01*
X162263032Y-117217315D01*
X162228197Y-117202886D01*
X162142691Y-117167469D01*
X162142689Y-117167468D01*
X162142684Y-117167467D01*
X162000003Y-117148683D01*
X161999997Y-117148683D01*
X161857315Y-117167467D01*
X161857309Y-117167469D01*
X161724341Y-117222545D01*
X161610159Y-117310159D01*
X161522545Y-117424341D01*
X161467469Y-117557309D01*
X161467467Y-117557315D01*
X161448683Y-117699997D01*
X154408792Y-117699997D01*
X154377455Y-117624342D01*
X154289840Y-117510160D01*
X154289838Y-117510159D01*
X154289838Y-117510158D01*
X154197953Y-117439652D01*
X154175659Y-117422545D01*
X154042691Y-117367469D01*
X154042689Y-117367468D01*
X154042684Y-117367467D01*
X153900003Y-117348683D01*
X153899997Y-117348683D01*
X153757315Y-117367467D01*
X153757309Y-117367469D01*
X153624341Y-117422545D01*
X153510159Y-117510159D01*
X153422545Y-117624341D01*
X153367469Y-117757309D01*
X153367467Y-117757315D01*
X153348683Y-117899997D01*
X145304008Y-117899997D01*
X145289304Y-117864499D01*
X145201689Y-117750317D01*
X145201687Y-117750316D01*
X145201687Y-117750315D01*
X145136111Y-117699997D01*
X145087508Y-117662702D01*
X144954540Y-117607626D01*
X144954538Y-117607625D01*
X144954533Y-117607624D01*
X144811852Y-117588840D01*
X144811846Y-117588840D01*
X144669164Y-117607624D01*
X144669158Y-117607626D01*
X144536190Y-117662702D01*
X144422008Y-117750316D01*
X144334394Y-117864498D01*
X144279318Y-117997466D01*
X144279316Y-117997472D01*
X144260532Y-118140154D01*
X143624004Y-118140154D01*
X143617455Y-118124342D01*
X143529840Y-118010160D01*
X143529838Y-118010159D01*
X143529838Y-118010158D01*
X143484875Y-117975657D01*
X143415659Y-117922545D01*
X143415655Y-117922543D01*
X143369249Y-117903321D01*
X143335425Y-117869497D01*
X143335425Y-117821661D01*
X143355117Y-117795996D01*
X143459664Y-117715775D01*
X143547279Y-117601594D01*
X143602355Y-117468626D01*
X143604634Y-117451317D01*
X143621141Y-117325937D01*
X143621141Y-117325932D01*
X143602356Y-117183250D01*
X143602355Y-117183248D01*
X143602355Y-117183244D01*
X143547279Y-117050277D01*
X143459664Y-116936095D01*
X143459662Y-116936094D01*
X143459662Y-116936093D01*
X143421901Y-116907118D01*
X149075804Y-116907118D01*
X149075804Y-116907123D01*
X149094588Y-117049805D01*
X149094589Y-117049810D01*
X149094590Y-117049812D01*
X149108893Y-117084343D01*
X149146715Y-117175657D01*
X149149666Y-117182780D01*
X149237281Y-117296961D01*
X149351462Y-117384576D01*
X149484430Y-117439652D01*
X149484434Y-117439652D01*
X149484436Y-117439653D01*
X149627118Y-117458438D01*
X149627121Y-117458438D01*
X149627124Y-117458438D01*
X149769805Y-117439653D01*
X149769805Y-117439652D01*
X149769812Y-117439652D01*
X149902780Y-117384576D01*
X150016961Y-117296961D01*
X150104576Y-117182780D01*
X150159652Y-117049812D01*
X150173706Y-116943058D01*
X150197623Y-116901633D01*
X150243828Y-116889252D01*
X150253271Y-116891783D01*
X150253355Y-116891471D01*
X150257304Y-116892529D01*
X150257309Y-116892531D01*
X150257313Y-116892531D01*
X150257315Y-116892532D01*
X150399997Y-116911317D01*
X150400000Y-116911317D01*
X150400003Y-116911317D01*
X150485984Y-116899997D01*
X155348683Y-116899997D01*
X155348683Y-116900002D01*
X155367467Y-117042684D01*
X155367468Y-117042689D01*
X155367469Y-117042691D01*
X155422545Y-117175659D01*
X155510160Y-117289840D01*
X155624341Y-117377455D01*
X155757309Y-117432531D01*
X155757313Y-117432531D01*
X155757315Y-117432532D01*
X155899997Y-117451317D01*
X155900000Y-117451317D01*
X155900003Y-117451317D01*
X156042684Y-117432532D01*
X156042684Y-117432531D01*
X156042691Y-117432531D01*
X156175659Y-117377455D01*
X156289840Y-117289840D01*
X156377455Y-117175659D01*
X156432531Y-117042691D01*
X156442080Y-116970159D01*
X156451317Y-116900002D01*
X156451317Y-116899997D01*
X156432532Y-116757315D01*
X156432531Y-116757313D01*
X156432531Y-116757309D01*
X156377455Y-116624342D01*
X156289840Y-116510160D01*
X156289838Y-116510159D01*
X156289838Y-116510158D01*
X156213155Y-116451317D01*
X156175659Y-116422545D01*
X156162740Y-116417194D01*
X156136708Y-116406411D01*
X156042691Y-116367469D01*
X156042689Y-116367468D01*
X156042684Y-116367467D01*
X155900003Y-116348683D01*
X155899997Y-116348683D01*
X155757315Y-116367467D01*
X155757309Y-116367469D01*
X155624341Y-116422545D01*
X155510159Y-116510159D01*
X155422545Y-116624341D01*
X155367469Y-116757309D01*
X155367467Y-116757315D01*
X155348683Y-116899997D01*
X150485984Y-116899997D01*
X150542684Y-116892532D01*
X150542684Y-116892531D01*
X150542691Y-116892531D01*
X150675659Y-116837455D01*
X150789840Y-116749840D01*
X150877455Y-116635659D01*
X150932531Y-116502691D01*
X150943787Y-116417194D01*
X150951317Y-116360002D01*
X150951317Y-116359997D01*
X150932532Y-116217315D01*
X150932531Y-116217313D01*
X150932531Y-116217309D01*
X150877455Y-116084342D01*
X150789840Y-115970160D01*
X150789838Y-115970159D01*
X150789838Y-115970158D01*
X150698409Y-115900002D01*
X150698402Y-115899997D01*
X159348683Y-115899997D01*
X159348683Y-115900002D01*
X159367467Y-116042684D01*
X159367468Y-116042689D01*
X159367469Y-116042691D01*
X159422545Y-116175659D01*
X159510160Y-116289840D01*
X159624341Y-116377455D01*
X159757309Y-116432531D01*
X159757313Y-116432531D01*
X159757315Y-116432532D01*
X159899997Y-116451317D01*
X159900000Y-116451317D01*
X159900003Y-116451317D01*
X160042684Y-116432532D01*
X160042684Y-116432531D01*
X160042691Y-116432531D01*
X160175659Y-116377455D01*
X160289840Y-116289840D01*
X160320413Y-116249997D01*
X162448683Y-116249997D01*
X162448683Y-116250002D01*
X162467467Y-116392684D01*
X162467468Y-116392689D01*
X162467469Y-116392691D01*
X162490921Y-116449310D01*
X162513031Y-116502691D01*
X162522545Y-116525659D01*
X162610160Y-116639840D01*
X162724341Y-116727455D01*
X162857309Y-116782531D01*
X162857313Y-116782531D01*
X162857315Y-116782532D01*
X162999997Y-116801317D01*
X163000000Y-116801317D01*
X163000003Y-116801317D01*
X163142684Y-116782532D01*
X163142684Y-116782531D01*
X163142691Y-116782531D01*
X163275659Y-116727455D01*
X163389840Y-116639840D01*
X163477455Y-116525659D01*
X163532531Y-116392691D01*
X163534914Y-116374588D01*
X163551317Y-116250002D01*
X163551317Y-116249997D01*
X163532532Y-116107315D01*
X163532531Y-116107313D01*
X163532531Y-116107309D01*
X163477455Y-115974342D01*
X163389840Y-115860160D01*
X163389838Y-115860159D01*
X163389838Y-115860158D01*
X163323320Y-115809117D01*
X163275659Y-115772545D01*
X163142691Y-115717469D01*
X163142689Y-115717468D01*
X163142684Y-115717467D01*
X163000003Y-115698683D01*
X162999997Y-115698683D01*
X162857315Y-115717467D01*
X162857309Y-115717469D01*
X162724341Y-115772545D01*
X162610159Y-115860159D01*
X162522545Y-115974341D01*
X162467469Y-116107309D01*
X162467467Y-116107315D01*
X162448683Y-116249997D01*
X160320413Y-116249997D01*
X160377455Y-116175659D01*
X160432531Y-116042691D01*
X160439679Y-115988401D01*
X160451317Y-115900002D01*
X160451317Y-115899997D01*
X160432532Y-115757315D01*
X160432531Y-115757313D01*
X160432531Y-115757309D01*
X160377455Y-115624342D01*
X160289840Y-115510160D01*
X160289838Y-115510159D01*
X160289838Y-115510158D01*
X160236706Y-115469388D01*
X160175659Y-115422545D01*
X160170736Y-115420506D01*
X160096698Y-115389839D01*
X160042691Y-115367469D01*
X160042689Y-115367468D01*
X160042684Y-115367467D01*
X159900003Y-115348683D01*
X159899997Y-115348683D01*
X159757315Y-115367467D01*
X159757309Y-115367469D01*
X159624341Y-115422545D01*
X159510159Y-115510159D01*
X159422545Y-115624341D01*
X159367469Y-115757309D01*
X159367467Y-115757315D01*
X159348683Y-115899997D01*
X150698402Y-115899997D01*
X150675659Y-115882545D01*
X150542691Y-115827469D01*
X150542689Y-115827468D01*
X150542684Y-115827467D01*
X150400003Y-115808683D01*
X150399997Y-115808683D01*
X150257315Y-115827467D01*
X150257309Y-115827469D01*
X150124341Y-115882545D01*
X150010159Y-115970159D01*
X149922545Y-116084341D01*
X149867469Y-116217309D01*
X149867467Y-116217315D01*
X149853414Y-116324061D01*
X149829497Y-116365488D01*
X149783291Y-116377868D01*
X149773849Y-116375338D01*
X149773766Y-116375650D01*
X149769805Y-116374588D01*
X149627124Y-116355804D01*
X149627118Y-116355804D01*
X149484436Y-116374588D01*
X149484430Y-116374590D01*
X149351462Y-116429666D01*
X149237280Y-116517280D01*
X149149666Y-116631462D01*
X149094590Y-116764430D01*
X149094588Y-116764436D01*
X149075804Y-116907118D01*
X143421901Y-116907118D01*
X143402891Y-116892531D01*
X143345483Y-116848480D01*
X143212515Y-116793404D01*
X143212513Y-116793403D01*
X143212508Y-116793402D01*
X143069827Y-116774618D01*
X143069821Y-116774618D01*
X142927139Y-116793402D01*
X142927133Y-116793404D01*
X142794165Y-116848480D01*
X142679983Y-116936094D01*
X142592369Y-117050276D01*
X142537293Y-117183244D01*
X142537291Y-117183250D01*
X142518507Y-117325932D01*
X142296832Y-117325932D01*
X142282532Y-117217315D01*
X142282531Y-117217313D01*
X142282531Y-117217309D01*
X142227455Y-117084342D01*
X142139840Y-116970160D01*
X142139838Y-116970159D01*
X142139838Y-116970158D01*
X142057689Y-116907123D01*
X142025659Y-116882545D01*
X141892691Y-116827469D01*
X141892689Y-116827468D01*
X141892684Y-116827467D01*
X141750003Y-116808683D01*
X141749997Y-116808683D01*
X141607315Y-116827467D01*
X141607309Y-116827469D01*
X141474341Y-116882545D01*
X141360159Y-116970159D01*
X141272545Y-117084341D01*
X141217469Y-117217309D01*
X141217467Y-117217315D01*
X141198683Y-117359997D01*
X131606163Y-117359997D01*
X131590689Y-117202886D01*
X131590689Y-117202885D01*
X131536109Y-117022961D01*
X131536107Y-117022957D01*
X131447480Y-116857148D01*
X131447478Y-116857146D01*
X131447477Y-116857143D01*
X131359416Y-116749839D01*
X131328200Y-116711802D01*
X131328197Y-116711799D01*
X131182862Y-116592527D01*
X131182860Y-116592526D01*
X131182857Y-116592523D01*
X131182855Y-116592521D01*
X131182851Y-116592519D01*
X131180797Y-116591421D01*
X134807259Y-116591421D01*
X134807259Y-116591426D01*
X134826043Y-116734108D01*
X134826044Y-116734113D01*
X134826045Y-116734115D01*
X134864712Y-116827467D01*
X134873415Y-116848480D01*
X134881121Y-116867083D01*
X134968736Y-116981264D01*
X135082917Y-117068879D01*
X135215885Y-117123955D01*
X135215889Y-117123955D01*
X135215891Y-117123956D01*
X135358573Y-117142741D01*
X135358576Y-117142741D01*
X135358579Y-117142741D01*
X135501260Y-117123956D01*
X135501260Y-117123955D01*
X135501267Y-117123955D01*
X135634235Y-117068879D01*
X135748416Y-116981264D01*
X135836031Y-116867083D01*
X135891107Y-116734115D01*
X135904069Y-116635659D01*
X135909893Y-116591426D01*
X135909893Y-116591421D01*
X135891108Y-116448739D01*
X135891107Y-116448737D01*
X135891107Y-116448733D01*
X135836031Y-116315766D01*
X135748416Y-116201584D01*
X135748414Y-116201583D01*
X135748414Y-116201582D01*
X135634937Y-116114508D01*
X135634235Y-116113969D01*
X135618170Y-116107315D01*
X135590182Y-116095722D01*
X135501267Y-116058893D01*
X135501265Y-116058892D01*
X135501260Y-116058891D01*
X135358579Y-116040107D01*
X135358573Y-116040107D01*
X135215891Y-116058891D01*
X135215885Y-116058893D01*
X135082917Y-116113969D01*
X134968735Y-116201583D01*
X134881121Y-116315765D01*
X134826045Y-116448733D01*
X134826043Y-116448739D01*
X134807259Y-116591421D01*
X131180797Y-116591421D01*
X131017042Y-116503892D01*
X130837113Y-116449310D01*
X130650000Y-116430882D01*
X130606167Y-116435199D01*
X130600041Y-116435500D01*
X129694000Y-116435500D01*
X129649806Y-116417194D01*
X129631500Y-116373000D01*
X129631500Y-115866999D01*
X129649806Y-115822805D01*
X129694000Y-115804499D01*
X130600032Y-115804499D01*
X130606158Y-115804800D01*
X130649999Y-115809118D01*
X130649999Y-115809117D01*
X130650000Y-115809118D01*
X130837115Y-115790689D01*
X131017039Y-115736109D01*
X131182857Y-115647477D01*
X131285564Y-115563188D01*
X140057497Y-115563188D01*
X140057497Y-115563193D01*
X140076281Y-115705875D01*
X140076282Y-115705880D01*
X140076283Y-115705882D01*
X140131359Y-115838850D01*
X140218974Y-115953031D01*
X140333155Y-116040646D01*
X140466123Y-116095722D01*
X140466127Y-116095722D01*
X140466129Y-116095723D01*
X140608811Y-116114508D01*
X140608814Y-116114508D01*
X140608817Y-116114508D01*
X140751498Y-116095723D01*
X140751498Y-116095722D01*
X140751505Y-116095722D01*
X140884473Y-116040646D01*
X140998654Y-115953031D01*
X141006967Y-115942196D01*
X141048394Y-115918278D01*
X141094599Y-115930657D01*
X141118518Y-115972084D01*
X141118518Y-115988401D01*
X141106012Y-116083397D01*
X141106012Y-116083402D01*
X141124796Y-116226084D01*
X141124797Y-116226089D01*
X141124798Y-116226091D01*
X141179874Y-116359059D01*
X141267489Y-116473240D01*
X141381670Y-116560855D01*
X141514638Y-116615931D01*
X141514642Y-116615931D01*
X141514644Y-116615932D01*
X141657326Y-116634717D01*
X141657329Y-116634717D01*
X141657332Y-116634717D01*
X141800013Y-116615932D01*
X141800013Y-116615931D01*
X141800020Y-116615931D01*
X141932988Y-116560855D01*
X142047169Y-116473240D01*
X142134784Y-116359059D01*
X142189860Y-116226091D01*
X142191016Y-116217309D01*
X142208646Y-116083402D01*
X142208646Y-116083397D01*
X142189861Y-115940715D01*
X142189860Y-115940713D01*
X142189860Y-115940709D01*
X142134784Y-115807742D01*
X142047169Y-115693560D01*
X142047167Y-115693559D01*
X142047167Y-115693558D01*
X141987113Y-115647477D01*
X141932988Y-115605945D01*
X141800020Y-115550869D01*
X141800018Y-115550868D01*
X141800013Y-115550867D01*
X141657332Y-115532083D01*
X141657326Y-115532083D01*
X141514644Y-115550867D01*
X141514638Y-115550869D01*
X141381670Y-115605945D01*
X141267489Y-115693558D01*
X141259173Y-115704397D01*
X141217746Y-115728313D01*
X141171540Y-115715932D01*
X141147624Y-115674505D01*
X141147624Y-115658190D01*
X141160131Y-115563193D01*
X141160131Y-115563188D01*
X141141346Y-115420506D01*
X141141345Y-115420504D01*
X141141345Y-115420500D01*
X141086269Y-115287533D01*
X140998654Y-115173351D01*
X140998652Y-115173350D01*
X140998652Y-115173349D01*
X140945520Y-115132579D01*
X140884473Y-115085736D01*
X140884287Y-115085659D01*
X140845522Y-115069602D01*
X140751505Y-115030660D01*
X140751503Y-115030659D01*
X140751498Y-115030658D01*
X140608817Y-115011874D01*
X140608811Y-115011874D01*
X140466129Y-115030658D01*
X140466123Y-115030660D01*
X140333155Y-115085736D01*
X140218973Y-115173350D01*
X140131359Y-115287532D01*
X140076283Y-115420500D01*
X140076281Y-115420506D01*
X140057497Y-115563188D01*
X131285564Y-115563188D01*
X131328199Y-115528199D01*
X131447477Y-115382857D01*
X131536109Y-115217039D01*
X131590689Y-115037115D01*
X131594345Y-114999997D01*
X134798683Y-114999997D01*
X134798683Y-115000002D01*
X134817467Y-115142684D01*
X134817468Y-115142689D01*
X134817469Y-115142691D01*
X134872545Y-115275659D01*
X134960160Y-115389840D01*
X135074341Y-115477455D01*
X135207309Y-115532531D01*
X135207313Y-115532531D01*
X135207315Y-115532532D01*
X135349997Y-115551317D01*
X135350000Y-115551317D01*
X135350003Y-115551317D01*
X135492684Y-115532532D01*
X135492684Y-115532531D01*
X135492691Y-115532531D01*
X135625659Y-115477455D01*
X135739840Y-115389840D01*
X135827455Y-115275659D01*
X135882531Y-115142691D01*
X135882532Y-115142684D01*
X135901317Y-115000002D01*
X135901317Y-114999997D01*
X135882532Y-114857315D01*
X135882531Y-114857313D01*
X135882531Y-114857309D01*
X135862934Y-114809997D01*
X138948683Y-114809997D01*
X138948683Y-114810002D01*
X138967467Y-114952684D01*
X138967468Y-114952689D01*
X138967469Y-114952691D01*
X139022545Y-115085659D01*
X139110160Y-115199840D01*
X139224341Y-115287455D01*
X139357309Y-115342531D01*
X139357313Y-115342531D01*
X139357315Y-115342532D01*
X139499997Y-115361317D01*
X139500000Y-115361317D01*
X139500003Y-115361317D01*
X139642684Y-115342532D01*
X139642684Y-115342531D01*
X139642691Y-115342531D01*
X139775659Y-115287455D01*
X139889840Y-115199840D01*
X139977455Y-115085659D01*
X140012937Y-114999997D01*
X149838683Y-114999997D01*
X149838683Y-115000002D01*
X149857467Y-115142684D01*
X149857468Y-115142689D01*
X149857469Y-115142691D01*
X149912545Y-115275659D01*
X150000160Y-115389840D01*
X150114341Y-115477455D01*
X150247309Y-115532531D01*
X150247313Y-115532531D01*
X150247315Y-115532532D01*
X150389997Y-115551317D01*
X150390000Y-115551317D01*
X150390003Y-115551317D01*
X150532684Y-115532532D01*
X150532684Y-115532531D01*
X150532691Y-115532531D01*
X150665659Y-115477455D01*
X150779840Y-115389840D01*
X150867455Y-115275659D01*
X150922531Y-115142691D01*
X150922532Y-115142684D01*
X150941317Y-115000002D01*
X150941317Y-114999997D01*
X150922532Y-114857315D01*
X150922531Y-114857313D01*
X150922531Y-114857309D01*
X150867455Y-114724342D01*
X150779840Y-114610160D01*
X150779838Y-114610159D01*
X150779838Y-114610158D01*
X150681034Y-114534343D01*
X150665659Y-114522545D01*
X150532691Y-114467469D01*
X150532689Y-114467468D01*
X150532684Y-114467467D01*
X150390003Y-114448683D01*
X150389997Y-114448683D01*
X150247315Y-114467467D01*
X150247309Y-114467469D01*
X150114341Y-114522545D01*
X150000159Y-114610159D01*
X149912545Y-114724341D01*
X149857469Y-114857309D01*
X149857467Y-114857315D01*
X149838683Y-114999997D01*
X140012937Y-114999997D01*
X140032531Y-114952691D01*
X140051317Y-114810000D01*
X140032531Y-114667309D01*
X139977455Y-114534342D01*
X139889840Y-114420160D01*
X139889838Y-114420159D01*
X139889838Y-114420158D01*
X139836706Y-114379388D01*
X139775659Y-114332545D01*
X139772694Y-114331317D01*
X139727340Y-114312531D01*
X139642691Y-114277469D01*
X139642689Y-114277468D01*
X139642684Y-114277467D01*
X139500003Y-114258683D01*
X139499997Y-114258683D01*
X139357315Y-114277467D01*
X139357309Y-114277469D01*
X139224341Y-114332545D01*
X139110159Y-114420159D01*
X139022545Y-114534341D01*
X138967469Y-114667309D01*
X138967467Y-114667315D01*
X138948683Y-114809997D01*
X135862934Y-114809997D01*
X135827455Y-114724342D01*
X135739840Y-114610160D01*
X135739838Y-114610159D01*
X135739838Y-114610158D01*
X135641034Y-114534343D01*
X135625659Y-114522545D01*
X135492691Y-114467469D01*
X135492689Y-114467468D01*
X135492684Y-114467467D01*
X135350003Y-114448683D01*
X135349997Y-114448683D01*
X135207315Y-114467467D01*
X135207309Y-114467469D01*
X135074341Y-114522545D01*
X134960159Y-114610159D01*
X134872545Y-114724341D01*
X134817469Y-114857309D01*
X134817467Y-114857315D01*
X134798683Y-114999997D01*
X131594345Y-114999997D01*
X131609118Y-114850000D01*
X131590689Y-114662885D01*
X131536109Y-114482961D01*
X131502541Y-114420160D01*
X131447480Y-114317148D01*
X131447478Y-114317146D01*
X131447477Y-114317143D01*
X131328199Y-114171801D01*
X131325809Y-114169840D01*
X131182862Y-114052527D01*
X131182860Y-114052526D01*
X131182857Y-114052523D01*
X131182855Y-114052521D01*
X131182851Y-114052519D01*
X131084590Y-113999997D01*
X137423683Y-113999997D01*
X137423683Y-114000002D01*
X137442467Y-114142684D01*
X137442468Y-114142689D01*
X137442469Y-114142691D01*
X137497545Y-114275659D01*
X137585160Y-114389840D01*
X137699341Y-114477455D01*
X137832309Y-114532531D01*
X137832313Y-114532531D01*
X137832315Y-114532532D01*
X137974997Y-114551317D01*
X137975000Y-114551317D01*
X137975003Y-114551317D01*
X138117684Y-114532532D01*
X138117684Y-114532531D01*
X138117691Y-114532531D01*
X138250659Y-114477455D01*
X138364840Y-114389840D01*
X138452455Y-114275659D01*
X138507531Y-114142691D01*
X138507906Y-114139840D01*
X138526317Y-114000002D01*
X138526317Y-113999997D01*
X138507532Y-113857315D01*
X138507531Y-113857313D01*
X138507531Y-113857309D01*
X138475508Y-113779997D01*
X139658683Y-113779997D01*
X139658683Y-113780002D01*
X139677467Y-113922684D01*
X139677468Y-113922689D01*
X139677469Y-113922691D01*
X139732545Y-114055659D01*
X139820160Y-114169840D01*
X139934341Y-114257455D01*
X140067309Y-114312531D01*
X140067313Y-114312531D01*
X140067315Y-114312532D01*
X140209997Y-114331317D01*
X140210000Y-114331317D01*
X140210003Y-114331317D01*
X140352684Y-114312532D01*
X140352684Y-114312531D01*
X140352691Y-114312531D01*
X140485659Y-114257455D01*
X140599840Y-114169840D01*
X140687455Y-114055659D01*
X140742531Y-113922691D01*
X140746111Y-113895500D01*
X140761317Y-113780002D01*
X140761317Y-113779997D01*
X140742532Y-113637315D01*
X140742531Y-113637313D01*
X140742531Y-113637309D01*
X140687455Y-113504342D01*
X140599840Y-113390160D01*
X140599838Y-113390159D01*
X140599838Y-113390158D01*
X140546706Y-113349388D01*
X140485659Y-113302545D01*
X140352691Y-113247469D01*
X140352689Y-113247468D01*
X140352684Y-113247467D01*
X140210003Y-113228683D01*
X140209997Y-113228683D01*
X140067315Y-113247467D01*
X140067309Y-113247469D01*
X139934341Y-113302545D01*
X139820159Y-113390159D01*
X139732545Y-113504341D01*
X139677469Y-113637309D01*
X139677467Y-113637315D01*
X139658683Y-113779997D01*
X138475508Y-113779997D01*
X138452455Y-113724342D01*
X138364840Y-113610160D01*
X138364838Y-113610159D01*
X138364838Y-113610158D01*
X138311706Y-113569388D01*
X138250659Y-113522545D01*
X138117691Y-113467469D01*
X138117689Y-113467468D01*
X138117684Y-113467467D01*
X137975003Y-113448683D01*
X137974997Y-113448683D01*
X137832315Y-113467467D01*
X137832309Y-113467469D01*
X137699341Y-113522545D01*
X137585159Y-113610159D01*
X137497545Y-113724341D01*
X137442469Y-113857309D01*
X137442467Y-113857315D01*
X137423683Y-113999997D01*
X131084590Y-113999997D01*
X131017042Y-113963892D01*
X130837113Y-113909310D01*
X130650000Y-113890882D01*
X130606167Y-113895199D01*
X130600041Y-113895500D01*
X129694000Y-113895500D01*
X129649806Y-113877194D01*
X129631500Y-113833000D01*
X129631500Y-113326999D01*
X129649806Y-113282805D01*
X129694000Y-113264499D01*
X130600032Y-113264499D01*
X130606158Y-113264800D01*
X130649999Y-113269118D01*
X130649999Y-113269117D01*
X130650000Y-113269118D01*
X130837115Y-113250689D01*
X131017039Y-113196109D01*
X131182857Y-113107477D01*
X131328199Y-112988199D01*
X131447477Y-112842857D01*
X131507802Y-112729997D01*
X140438683Y-112729997D01*
X140438683Y-112730002D01*
X140457467Y-112872684D01*
X140457468Y-112872689D01*
X140457469Y-112872691D01*
X140512545Y-113005659D01*
X140600160Y-113119840D01*
X140714341Y-113207455D01*
X140847309Y-113262531D01*
X140847313Y-113262531D01*
X140847315Y-113262532D01*
X140989997Y-113281317D01*
X140990000Y-113281317D01*
X140990003Y-113281317D01*
X141132684Y-113262532D01*
X141132684Y-113262531D01*
X141132691Y-113262531D01*
X141265659Y-113207455D01*
X141379840Y-113119840D01*
X141467455Y-113005659D01*
X141522531Y-112872691D01*
X141526460Y-112842851D01*
X141536529Y-112766367D01*
X151165053Y-112766367D01*
X151165053Y-112766372D01*
X151183837Y-112909054D01*
X151183838Y-112909059D01*
X151183839Y-112909061D01*
X151238915Y-113042029D01*
X151326530Y-113156210D01*
X151411620Y-113221502D01*
X151435538Y-113262929D01*
X151423158Y-113309134D01*
X151411621Y-113320671D01*
X151360160Y-113360158D01*
X151272545Y-113474341D01*
X151217469Y-113607309D01*
X151217467Y-113607315D01*
X151198683Y-113749997D01*
X151198683Y-113750002D01*
X151217467Y-113892684D01*
X151217468Y-113892689D01*
X151217469Y-113892691D01*
X151272545Y-114025659D01*
X151360160Y-114139840D01*
X151474341Y-114227455D01*
X151607309Y-114282531D01*
X151607313Y-114282531D01*
X151607315Y-114282532D01*
X151749997Y-114301317D01*
X151750000Y-114301317D01*
X151750003Y-114301317D01*
X151892684Y-114282532D01*
X151892684Y-114282531D01*
X151892691Y-114282531D01*
X152025659Y-114227455D01*
X152139840Y-114139840D01*
X152227455Y-114025659D01*
X152282531Y-113892691D01*
X152284571Y-113877194D01*
X152301317Y-113750002D01*
X152301317Y-113749997D01*
X152282532Y-113607315D01*
X152282531Y-113607313D01*
X152282531Y-113607309D01*
X152227455Y-113474342D01*
X152139840Y-113360160D01*
X152139838Y-113360159D01*
X152139838Y-113360158D01*
X152088377Y-113320671D01*
X152054746Y-113294865D01*
X152030831Y-113253440D01*
X152043211Y-113207234D01*
X152054745Y-113195700D01*
X152106210Y-113156210D01*
X152193825Y-113042029D01*
X152248901Y-112909061D01*
X152253689Y-112872691D01*
X152267687Y-112766372D01*
X152267687Y-112766367D01*
X152250838Y-112638391D01*
X155638283Y-112638391D01*
X155638283Y-112638396D01*
X155657067Y-112781078D01*
X155657068Y-112781083D01*
X155657069Y-112781085D01*
X155712145Y-112914053D01*
X155799760Y-113028234D01*
X155913941Y-113115849D01*
X156046909Y-113170925D01*
X156046913Y-113170925D01*
X156046915Y-113170926D01*
X156189597Y-113189711D01*
X156189600Y-113189711D01*
X156189603Y-113189711D01*
X156332284Y-113170926D01*
X156332284Y-113170925D01*
X156332291Y-113170925D01*
X156465259Y-113115849D01*
X156579440Y-113028234D01*
X156667055Y-112914053D01*
X156722131Y-112781085D01*
X156740917Y-112638394D01*
X156738980Y-112623685D01*
X156722132Y-112495709D01*
X156722131Y-112495707D01*
X156722131Y-112495703D01*
X156667055Y-112362736D01*
X156579440Y-112248554D01*
X156579438Y-112248553D01*
X156579438Y-112248552D01*
X156502458Y-112189483D01*
X156465259Y-112160939D01*
X156332291Y-112105863D01*
X156332289Y-112105862D01*
X156332284Y-112105861D01*
X156189603Y-112087077D01*
X156189597Y-112087077D01*
X156046915Y-112105861D01*
X156046909Y-112105863D01*
X155913941Y-112160939D01*
X155799759Y-112248553D01*
X155712145Y-112362735D01*
X155657069Y-112495703D01*
X155657067Y-112495709D01*
X155638283Y-112638391D01*
X152250838Y-112638391D01*
X152248902Y-112623685D01*
X152248901Y-112623683D01*
X152248901Y-112623679D01*
X152193825Y-112490712D01*
X152106210Y-112376530D01*
X152106208Y-112376529D01*
X152106208Y-112376528D01*
X152019506Y-112309999D01*
X151992029Y-112288915D01*
X151987893Y-112287202D01*
X151904222Y-112252545D01*
X151859061Y-112233839D01*
X151859059Y-112233838D01*
X151859054Y-112233837D01*
X151716373Y-112215053D01*
X151716367Y-112215053D01*
X151573685Y-112233837D01*
X151573679Y-112233839D01*
X151440711Y-112288915D01*
X151326529Y-112376529D01*
X151238915Y-112490711D01*
X151183839Y-112623679D01*
X151183837Y-112623685D01*
X151165053Y-112766367D01*
X141536529Y-112766367D01*
X141541317Y-112730002D01*
X141541317Y-112729997D01*
X141522532Y-112587315D01*
X141522531Y-112587313D01*
X141522531Y-112587309D01*
X141467455Y-112454342D01*
X141379840Y-112340160D01*
X141379838Y-112340159D01*
X141379838Y-112340158D01*
X141313057Y-112288915D01*
X141265659Y-112252545D01*
X141256021Y-112248553D01*
X141175143Y-112215053D01*
X141132691Y-112197469D01*
X141132689Y-112197468D01*
X141132684Y-112197467D01*
X141049236Y-112186481D01*
X149942722Y-112186481D01*
X149942722Y-112186486D01*
X149961506Y-112329168D01*
X149961507Y-112329173D01*
X149961508Y-112329175D01*
X150016584Y-112462143D01*
X150104199Y-112576324D01*
X150218380Y-112663939D01*
X150351348Y-112719015D01*
X150351352Y-112719015D01*
X150351354Y-112719016D01*
X150494036Y-112737801D01*
X150494039Y-112737801D01*
X150494042Y-112737801D01*
X150636723Y-112719016D01*
X150636723Y-112719015D01*
X150636730Y-112719015D01*
X150769698Y-112663939D01*
X150883879Y-112576324D01*
X150971494Y-112462143D01*
X151026570Y-112329175D01*
X151026571Y-112329168D01*
X151045356Y-112186486D01*
X151045356Y-112186481D01*
X151026571Y-112043799D01*
X151026570Y-112043797D01*
X151026570Y-112043793D01*
X150971494Y-111910826D01*
X150883879Y-111796644D01*
X150883877Y-111796643D01*
X150883877Y-111796642D01*
X150819130Y-111746960D01*
X150769698Y-111709029D01*
X150636730Y-111653953D01*
X150636728Y-111653952D01*
X150636723Y-111653951D01*
X150494042Y-111635167D01*
X150494036Y-111635167D01*
X150351354Y-111653951D01*
X150351348Y-111653953D01*
X150218380Y-111709029D01*
X150104198Y-111796643D01*
X150016584Y-111910825D01*
X149961508Y-112043793D01*
X149961506Y-112043799D01*
X149942722Y-112186481D01*
X141049236Y-112186481D01*
X140990003Y-112178683D01*
X140989997Y-112178683D01*
X140847315Y-112197467D01*
X140847309Y-112197469D01*
X140714341Y-112252545D01*
X140600159Y-112340159D01*
X140512545Y-112454341D01*
X140457469Y-112587309D01*
X140457467Y-112587315D01*
X140438683Y-112729997D01*
X131507802Y-112729997D01*
X131536109Y-112677039D01*
X131590689Y-112497115D01*
X131609118Y-112310000D01*
X131605877Y-112277098D01*
X131590689Y-112122886D01*
X131585525Y-112105863D01*
X131536109Y-111942961D01*
X131518933Y-111910827D01*
X131447480Y-111777148D01*
X131447478Y-111777146D01*
X131447477Y-111777143D01*
X131377787Y-111692225D01*
X131328200Y-111631802D01*
X131328197Y-111631799D01*
X131301631Y-111609997D01*
X136598683Y-111609997D01*
X136598683Y-111610002D01*
X136617467Y-111752684D01*
X136617468Y-111752689D01*
X136617469Y-111752691D01*
X136672545Y-111885659D01*
X136760160Y-111999840D01*
X136874341Y-112087455D01*
X137007309Y-112142531D01*
X137007313Y-112142531D01*
X137007315Y-112142532D01*
X137149997Y-112161317D01*
X137150000Y-112161317D01*
X137150003Y-112161317D01*
X137292684Y-112142532D01*
X137292684Y-112142531D01*
X137292691Y-112142531D01*
X137425659Y-112087455D01*
X137539840Y-111999840D01*
X137627455Y-111885659D01*
X137682531Y-111752691D01*
X137688279Y-111709029D01*
X137701317Y-111610002D01*
X137701317Y-111609997D01*
X137682532Y-111467315D01*
X137682531Y-111467313D01*
X137682531Y-111467309D01*
X137636889Y-111357118D01*
X139991562Y-111357118D01*
X139991562Y-111357123D01*
X140010346Y-111499805D01*
X140010347Y-111499810D01*
X140010348Y-111499812D01*
X140015613Y-111512523D01*
X140065017Y-111631799D01*
X140065424Y-111632780D01*
X140153039Y-111746961D01*
X140267220Y-111834576D01*
X140400188Y-111889652D01*
X140400192Y-111889652D01*
X140400194Y-111889653D01*
X140542876Y-111908438D01*
X140542879Y-111908438D01*
X140542882Y-111908438D01*
X140685563Y-111889653D01*
X140685563Y-111889652D01*
X140685570Y-111889652D01*
X140818538Y-111834576D01*
X140932719Y-111746961D01*
X141020334Y-111632780D01*
X141075410Y-111499812D01*
X141076702Y-111489997D01*
X151128683Y-111489997D01*
X151128683Y-111490002D01*
X151147467Y-111632684D01*
X151147468Y-111632689D01*
X151147469Y-111632691D01*
X151172128Y-111692225D01*
X151197173Y-111752691D01*
X151202545Y-111765659D01*
X151290160Y-111879840D01*
X151404341Y-111967455D01*
X151537309Y-112022531D01*
X151537313Y-112022531D01*
X151537315Y-112022532D01*
X151679997Y-112041317D01*
X151680000Y-112041317D01*
X151680003Y-112041317D01*
X151822684Y-112022532D01*
X151822684Y-112022531D01*
X151822691Y-112022531D01*
X151955659Y-111967455D01*
X152069840Y-111879840D01*
X152131380Y-111799640D01*
X158957783Y-111799640D01*
X158957783Y-111799645D01*
X158976567Y-111942327D01*
X158976568Y-111942332D01*
X158976569Y-111942334D01*
X159031645Y-112075302D01*
X159119260Y-112189483D01*
X159233441Y-112277098D01*
X159366409Y-112332174D01*
X159366413Y-112332174D01*
X159366415Y-112332175D01*
X159509097Y-112350960D01*
X159509100Y-112350960D01*
X159509103Y-112350960D01*
X159651784Y-112332175D01*
X159651784Y-112332174D01*
X159651791Y-112332174D01*
X159784759Y-112277098D01*
X159898940Y-112189483D01*
X159986555Y-112075302D01*
X160041631Y-111942334D01*
X160053788Y-111849996D01*
X162765693Y-111849996D01*
X162765693Y-111850003D01*
X162784849Y-112007774D01*
X162784851Y-112007785D01*
X162841212Y-112156394D01*
X162931499Y-112287198D01*
X162931503Y-112287202D01*
X163050468Y-112392597D01*
X163050470Y-112392599D01*
X163168110Y-112454341D01*
X163191207Y-112466463D01*
X163345529Y-112504500D01*
X163504471Y-112504500D01*
X163658793Y-112466463D01*
X163799529Y-112392599D01*
X163918498Y-112287201D01*
X164008787Y-112156395D01*
X164065149Y-112007782D01*
X164073097Y-111942327D01*
X164084307Y-111850003D01*
X164084307Y-111849996D01*
X164065150Y-111692225D01*
X164065148Y-111692214D01*
X164008787Y-111543605D01*
X163918500Y-111412801D01*
X163918496Y-111412797D01*
X163799531Y-111307402D01*
X163799529Y-111307400D01*
X163658794Y-111233537D01*
X163504474Y-111195500D01*
X163504471Y-111195500D01*
X163345529Y-111195500D01*
X163345525Y-111195500D01*
X163191205Y-111233537D01*
X163050470Y-111307400D01*
X163050468Y-111307402D01*
X162931503Y-111412797D01*
X162931499Y-111412801D01*
X162841212Y-111543605D01*
X162784851Y-111692214D01*
X162784849Y-111692225D01*
X162765693Y-111849996D01*
X160053788Y-111849996D01*
X160060417Y-111799643D01*
X160060022Y-111796644D01*
X160041632Y-111656958D01*
X160041631Y-111656956D01*
X160041631Y-111656952D01*
X159986555Y-111523985D01*
X159898940Y-111409803D01*
X159898938Y-111409802D01*
X159898938Y-111409801D01*
X159830280Y-111357118D01*
X159784759Y-111322188D01*
X159651791Y-111267112D01*
X159651789Y-111267111D01*
X159651784Y-111267110D01*
X159509103Y-111248326D01*
X159509097Y-111248326D01*
X159366415Y-111267110D01*
X159366409Y-111267112D01*
X159233441Y-111322188D01*
X159119259Y-111409802D01*
X159031645Y-111523984D01*
X159023518Y-111543605D01*
X158976569Y-111656952D01*
X158976568Y-111656953D01*
X158976567Y-111656958D01*
X158957783Y-111799640D01*
X152131380Y-111799640D01*
X152157455Y-111765659D01*
X152212531Y-111632691D01*
X152212648Y-111631801D01*
X152231317Y-111490002D01*
X152231317Y-111489997D01*
X152212532Y-111347315D01*
X152212531Y-111347313D01*
X152212531Y-111347309D01*
X152157455Y-111214342D01*
X152069840Y-111100160D01*
X152069838Y-111100159D01*
X152069838Y-111100158D01*
X152015787Y-111058683D01*
X151955659Y-111012545D01*
X151943370Y-111007455D01*
X151916708Y-110996411D01*
X151822691Y-110957469D01*
X151822689Y-110957468D01*
X151822684Y-110957467D01*
X151680003Y-110938683D01*
X151679997Y-110938683D01*
X151537315Y-110957467D01*
X151537309Y-110957469D01*
X151404341Y-111012545D01*
X151290159Y-111100159D01*
X151202545Y-111214341D01*
X151147469Y-111347309D01*
X151147467Y-111347315D01*
X151128683Y-111489997D01*
X141076702Y-111489997D01*
X141094196Y-111357123D01*
X141094196Y-111357118D01*
X141075411Y-111214436D01*
X141075410Y-111214434D01*
X141075410Y-111214430D01*
X141020334Y-111081463D01*
X140932719Y-110967281D01*
X140932717Y-110967280D01*
X140932717Y-110967279D01*
X140870892Y-110919839D01*
X140818538Y-110879666D01*
X140685570Y-110824590D01*
X140685568Y-110824589D01*
X140685563Y-110824588D01*
X140542882Y-110805804D01*
X140542876Y-110805804D01*
X140400194Y-110824588D01*
X140400188Y-110824590D01*
X140267220Y-110879666D01*
X140153038Y-110967280D01*
X140065424Y-111081462D01*
X140010348Y-111214430D01*
X140010346Y-111214436D01*
X139991562Y-111357118D01*
X137636889Y-111357118D01*
X137627455Y-111334342D01*
X137539840Y-111220160D01*
X137539838Y-111220159D01*
X137539838Y-111220158D01*
X137486706Y-111179388D01*
X137425659Y-111132545D01*
X137292691Y-111077469D01*
X137292689Y-111077468D01*
X137292684Y-111077467D01*
X137150003Y-111058683D01*
X137149997Y-111058683D01*
X137007315Y-111077467D01*
X137007309Y-111077469D01*
X136874341Y-111132545D01*
X136760159Y-111220159D01*
X136672545Y-111334341D01*
X136617469Y-111467309D01*
X136617467Y-111467315D01*
X136598683Y-111609997D01*
X131301631Y-111609997D01*
X131182862Y-111512527D01*
X131182860Y-111512526D01*
X131182857Y-111512523D01*
X131182855Y-111512521D01*
X131182851Y-111512519D01*
X131017042Y-111423892D01*
X130837113Y-111369310D01*
X130650000Y-111350882D01*
X130606167Y-111355199D01*
X130600041Y-111355500D01*
X129694000Y-111355500D01*
X129649806Y-111337194D01*
X129631500Y-111293000D01*
X129631500Y-109999997D01*
X136588683Y-109999997D01*
X136588683Y-110000002D01*
X136607467Y-110142684D01*
X136607468Y-110142689D01*
X136607469Y-110142691D01*
X136662545Y-110275659D01*
X136750160Y-110389840D01*
X136864341Y-110477455D01*
X136997309Y-110532531D01*
X136997313Y-110532531D01*
X136997315Y-110532532D01*
X137139997Y-110551317D01*
X137140000Y-110551317D01*
X137140003Y-110551317D01*
X137282684Y-110532532D01*
X137282684Y-110532531D01*
X137282691Y-110532531D01*
X137288809Y-110529997D01*
X155668683Y-110529997D01*
X155668683Y-110530002D01*
X155687467Y-110672684D01*
X155687468Y-110672689D01*
X155687469Y-110672691D01*
X155742545Y-110805659D01*
X155830160Y-110919840D01*
X155944341Y-111007455D01*
X156077309Y-111062531D01*
X156077313Y-111062531D01*
X156077315Y-111062532D01*
X156219997Y-111081317D01*
X156220000Y-111081317D01*
X156220003Y-111081317D01*
X156362684Y-111062532D01*
X156362684Y-111062531D01*
X156362691Y-111062531D01*
X156495659Y-111007455D01*
X156609840Y-110919840D01*
X156697455Y-110805659D01*
X156752531Y-110672691D01*
X156771317Y-110530000D01*
X156764399Y-110477455D01*
X156752532Y-110387315D01*
X156752531Y-110387313D01*
X156752531Y-110387309D01*
X156697455Y-110254342D01*
X156609840Y-110140160D01*
X156609838Y-110140159D01*
X156609838Y-110140158D01*
X156518198Y-110069840D01*
X156495659Y-110052545D01*
X156362691Y-109997469D01*
X156362689Y-109997468D01*
X156362684Y-109997467D01*
X156220003Y-109978683D01*
X156219997Y-109978683D01*
X156077315Y-109997467D01*
X156077309Y-109997469D01*
X155944341Y-110052545D01*
X155830159Y-110140159D01*
X155742545Y-110254341D01*
X155687469Y-110387309D01*
X155687467Y-110387315D01*
X155668683Y-110529997D01*
X137288809Y-110529997D01*
X137415659Y-110477455D01*
X137529840Y-110389840D01*
X137617455Y-110275659D01*
X137672531Y-110142691D01*
X137672864Y-110140159D01*
X137691317Y-110000002D01*
X137691317Y-109999997D01*
X137672532Y-109857315D01*
X137672531Y-109857313D01*
X137672531Y-109857309D01*
X137617455Y-109724342D01*
X137575755Y-109669997D01*
X142138683Y-109669997D01*
X142138683Y-109670002D01*
X142157467Y-109812684D01*
X142157468Y-109812689D01*
X142157469Y-109812691D01*
X142212545Y-109945659D01*
X142300160Y-110059840D01*
X142414341Y-110147455D01*
X142547309Y-110202531D01*
X142547313Y-110202531D01*
X142547315Y-110202532D01*
X142689997Y-110221317D01*
X142690000Y-110221317D01*
X142690003Y-110221317D01*
X142832684Y-110202532D01*
X142832684Y-110202531D01*
X142832691Y-110202531D01*
X142965659Y-110147455D01*
X143079840Y-110059840D01*
X143167455Y-109945659D01*
X143222531Y-109812691D01*
X143222532Y-109812684D01*
X143240001Y-109679997D01*
X154508683Y-109679997D01*
X154508683Y-109680002D01*
X154527467Y-109822684D01*
X154527468Y-109822689D01*
X154527469Y-109822691D01*
X154582545Y-109955659D01*
X154670160Y-110069840D01*
X154784341Y-110157455D01*
X154917309Y-110212531D01*
X154917313Y-110212531D01*
X154917315Y-110212532D01*
X155059997Y-110231317D01*
X155060000Y-110231317D01*
X155060003Y-110231317D01*
X155202684Y-110212532D01*
X155202684Y-110212531D01*
X155202691Y-110212531D01*
X155335659Y-110157455D01*
X155449840Y-110069840D01*
X155537455Y-109955659D01*
X155592531Y-109822691D01*
X155593848Y-109812690D01*
X155611317Y-109680002D01*
X155611317Y-109679997D01*
X155592532Y-109537315D01*
X155592531Y-109537313D01*
X155592531Y-109537309D01*
X155537455Y-109404342D01*
X155449840Y-109290160D01*
X155449838Y-109290159D01*
X155449838Y-109290158D01*
X155396706Y-109249388D01*
X155335659Y-109202545D01*
X155311516Y-109192545D01*
X155287709Y-109182684D01*
X155202691Y-109147469D01*
X155202689Y-109147468D01*
X155202684Y-109147467D01*
X155060003Y-109128683D01*
X155059997Y-109128683D01*
X154917315Y-109147467D01*
X154917309Y-109147469D01*
X154784341Y-109202545D01*
X154670159Y-109290159D01*
X154582545Y-109404341D01*
X154527469Y-109537309D01*
X154527467Y-109537315D01*
X154508683Y-109679997D01*
X143240001Y-109679997D01*
X143241317Y-109670002D01*
X143241317Y-109669997D01*
X143222532Y-109527315D01*
X143222531Y-109527313D01*
X143222531Y-109527309D01*
X143167455Y-109394342D01*
X143079840Y-109280160D01*
X143079838Y-109280159D01*
X143079838Y-109280158D01*
X142978691Y-109202545D01*
X142965659Y-109192545D01*
X142941866Y-109182690D01*
X142884950Y-109159115D01*
X142832691Y-109137469D01*
X142832689Y-109137468D01*
X142832684Y-109137467D01*
X142690003Y-109118683D01*
X142689997Y-109118683D01*
X142547315Y-109137467D01*
X142547309Y-109137469D01*
X142414341Y-109192545D01*
X142300159Y-109280159D01*
X142212545Y-109394341D01*
X142157469Y-109527309D01*
X142157467Y-109527315D01*
X142138683Y-109669997D01*
X137575755Y-109669997D01*
X137529840Y-109610160D01*
X137529838Y-109610159D01*
X137529838Y-109610158D01*
X137450077Y-109548955D01*
X137415659Y-109522545D01*
X137403370Y-109517455D01*
X137376708Y-109506411D01*
X137282691Y-109467469D01*
X137282689Y-109467468D01*
X137282684Y-109467467D01*
X137140003Y-109448683D01*
X137139997Y-109448683D01*
X136997315Y-109467467D01*
X136997309Y-109467469D01*
X136864341Y-109522545D01*
X136750159Y-109610159D01*
X136662545Y-109724341D01*
X136607469Y-109857309D01*
X136607467Y-109857315D01*
X136588683Y-109999997D01*
X129631500Y-109999997D01*
X129631500Y-108444997D01*
X133417783Y-108444997D01*
X133417783Y-108445002D01*
X133436567Y-108587684D01*
X133436568Y-108587689D01*
X133436569Y-108587691D01*
X133491645Y-108720659D01*
X133579260Y-108834840D01*
X133693441Y-108922455D01*
X133826409Y-108977531D01*
X133826413Y-108977531D01*
X133826415Y-108977532D01*
X133969097Y-108996317D01*
X133969100Y-108996317D01*
X133969103Y-108996317D01*
X134111784Y-108977532D01*
X134111784Y-108977531D01*
X134111791Y-108977531D01*
X134244759Y-108922455D01*
X134358940Y-108834840D01*
X134446555Y-108720659D01*
X134501631Y-108587691D01*
X134513176Y-108500000D01*
X134513176Y-108499997D01*
X136598683Y-108499997D01*
X136598683Y-108500002D01*
X136617467Y-108642684D01*
X136617468Y-108642689D01*
X136617469Y-108642691D01*
X136672545Y-108775659D01*
X136760160Y-108889840D01*
X136874341Y-108977455D01*
X137007309Y-109032531D01*
X137007313Y-109032531D01*
X137007315Y-109032532D01*
X137149997Y-109051317D01*
X137150000Y-109051317D01*
X137150003Y-109051317D01*
X137235984Y-109039997D01*
X149498683Y-109039997D01*
X149498683Y-109040002D01*
X149517467Y-109182684D01*
X149517468Y-109182689D01*
X149517469Y-109182691D01*
X149572545Y-109315659D01*
X149660160Y-109429840D01*
X149774341Y-109517455D01*
X149907309Y-109572531D01*
X149907313Y-109572531D01*
X149907315Y-109572532D01*
X150049997Y-109591317D01*
X150050000Y-109591317D01*
X150050003Y-109591317D01*
X150192684Y-109572532D01*
X150192684Y-109572531D01*
X150192691Y-109572531D01*
X150325659Y-109517455D01*
X150439840Y-109429840D01*
X150527455Y-109315659D01*
X150582531Y-109182691D01*
X150587168Y-109147469D01*
X150601317Y-109040002D01*
X150601317Y-109039997D01*
X150598213Y-109016421D01*
X159048683Y-109016421D01*
X159048683Y-109016426D01*
X159067467Y-109159108D01*
X159067468Y-109159113D01*
X159067469Y-109159115D01*
X159081316Y-109192545D01*
X159121747Y-109290158D01*
X159122545Y-109292083D01*
X159210160Y-109406264D01*
X159324341Y-109493879D01*
X159457309Y-109548955D01*
X159457313Y-109548955D01*
X159457315Y-109548956D01*
X159599997Y-109567741D01*
X159600000Y-109567741D01*
X159600003Y-109567741D01*
X159742684Y-109548956D01*
X159742684Y-109548955D01*
X159742691Y-109548955D01*
X159875659Y-109493879D01*
X159989840Y-109406264D01*
X160077455Y-109292083D01*
X160132531Y-109159115D01*
X160148213Y-109040000D01*
X160151317Y-109016426D01*
X160151317Y-109016421D01*
X160132532Y-108873739D01*
X160132531Y-108873737D01*
X160132531Y-108873733D01*
X160077455Y-108740766D01*
X159989840Y-108626584D01*
X159989838Y-108626583D01*
X159989838Y-108626582D01*
X159936706Y-108585812D01*
X159875659Y-108538969D01*
X159742691Y-108483893D01*
X159742689Y-108483892D01*
X159742684Y-108483891D01*
X159600003Y-108465107D01*
X159599997Y-108465107D01*
X159457315Y-108483891D01*
X159457309Y-108483893D01*
X159324341Y-108538969D01*
X159210159Y-108626583D01*
X159122545Y-108740765D01*
X159067469Y-108873733D01*
X159067467Y-108873739D01*
X159048683Y-109016421D01*
X150598213Y-109016421D01*
X150582532Y-108897315D01*
X150582531Y-108897313D01*
X150582531Y-108897309D01*
X150527455Y-108764342D01*
X150439840Y-108650160D01*
X150439838Y-108650159D01*
X150439838Y-108650158D01*
X150386706Y-108609388D01*
X150325659Y-108562545D01*
X150192691Y-108507469D01*
X150192689Y-108507468D01*
X150192684Y-108507467D01*
X150050003Y-108488683D01*
X150049997Y-108488683D01*
X149907315Y-108507467D01*
X149907309Y-108507469D01*
X149774341Y-108562545D01*
X149660159Y-108650159D01*
X149572545Y-108764341D01*
X149517469Y-108897309D01*
X149517467Y-108897315D01*
X149498683Y-109039997D01*
X137235984Y-109039997D01*
X137292684Y-109032532D01*
X137292684Y-109032531D01*
X137292691Y-109032531D01*
X137425659Y-108977455D01*
X137539840Y-108889840D01*
X137627455Y-108775659D01*
X137682531Y-108642691D01*
X137701317Y-108500000D01*
X137699196Y-108483893D01*
X137682532Y-108357315D01*
X137682531Y-108357313D01*
X137682531Y-108357309D01*
X137627455Y-108224342D01*
X137539840Y-108110160D01*
X137539838Y-108110159D01*
X137539838Y-108110158D01*
X137468162Y-108055159D01*
X137425659Y-108022545D01*
X137409693Y-108015932D01*
X137386708Y-108006411D01*
X137292691Y-107967469D01*
X137292689Y-107967468D01*
X137292684Y-107967467D01*
X137150003Y-107948683D01*
X137149997Y-107948683D01*
X137007315Y-107967467D01*
X137007309Y-107967469D01*
X136874341Y-108022545D01*
X136760159Y-108110159D01*
X136672545Y-108224341D01*
X136617469Y-108357309D01*
X136617467Y-108357315D01*
X136598683Y-108499997D01*
X134513176Y-108499997D01*
X134520417Y-108445002D01*
X134520417Y-108444997D01*
X134501632Y-108302315D01*
X134501631Y-108302313D01*
X134501631Y-108302309D01*
X134446555Y-108169342D01*
X134358940Y-108055160D01*
X134358938Y-108055159D01*
X134358938Y-108055158D01*
X134305806Y-108014388D01*
X134244759Y-107967545D01*
X134111791Y-107912469D01*
X134111789Y-107912468D01*
X134111784Y-107912467D01*
X133969103Y-107893683D01*
X133969097Y-107893683D01*
X133826415Y-107912467D01*
X133826409Y-107912469D01*
X133693441Y-107967545D01*
X133579259Y-108055159D01*
X133491645Y-108169341D01*
X133436569Y-108302309D01*
X133436567Y-108302315D01*
X133417783Y-108444997D01*
X129631500Y-108444997D01*
X129631500Y-106794997D01*
X133417783Y-106794997D01*
X133417783Y-106795002D01*
X133436567Y-106937684D01*
X133436568Y-106937689D01*
X133436569Y-106937691D01*
X133491645Y-107070659D01*
X133579260Y-107184840D01*
X133693441Y-107272455D01*
X133826409Y-107327531D01*
X133826413Y-107327531D01*
X133826415Y-107327532D01*
X133969097Y-107346317D01*
X133969100Y-107346317D01*
X133969103Y-107346317D01*
X134111784Y-107327532D01*
X134111784Y-107327531D01*
X134111791Y-107327531D01*
X134244759Y-107272455D01*
X134358940Y-107184840D01*
X134446555Y-107070659D01*
X134475824Y-106999997D01*
X139748683Y-106999997D01*
X139748683Y-107000002D01*
X139767467Y-107142684D01*
X139767468Y-107142689D01*
X139767469Y-107142691D01*
X139822545Y-107275659D01*
X139910160Y-107389840D01*
X140024341Y-107477455D01*
X140157309Y-107532531D01*
X140157313Y-107532531D01*
X140157315Y-107532532D01*
X140299997Y-107551317D01*
X140300000Y-107551317D01*
X140300003Y-107551317D01*
X140442684Y-107532532D01*
X140442684Y-107532531D01*
X140442691Y-107532531D01*
X140575659Y-107477455D01*
X140689840Y-107389840D01*
X140777455Y-107275659D01*
X140832531Y-107142691D01*
X140838999Y-107093560D01*
X140839468Y-107089997D01*
X150838683Y-107089997D01*
X150838683Y-107090002D01*
X150857467Y-107232684D01*
X150857468Y-107232689D01*
X150857469Y-107232691D01*
X150912545Y-107365659D01*
X151000160Y-107479840D01*
X151114341Y-107567455D01*
X151247309Y-107622531D01*
X151247313Y-107622531D01*
X151247315Y-107622532D01*
X151389997Y-107641317D01*
X151390000Y-107641317D01*
X151390003Y-107641317D01*
X151532684Y-107622532D01*
X151532684Y-107622531D01*
X151532691Y-107622531D01*
X151665659Y-107567455D01*
X151775204Y-107483397D01*
X154518683Y-107483397D01*
X154518683Y-107483402D01*
X154537467Y-107626084D01*
X154537468Y-107626089D01*
X154537469Y-107626091D01*
X154592545Y-107759059D01*
X154680160Y-107873240D01*
X154794341Y-107960855D01*
X154927309Y-108015931D01*
X154927313Y-108015931D01*
X154927315Y-108015932D01*
X155069997Y-108034717D01*
X155070000Y-108034717D01*
X155070003Y-108034717D01*
X155212684Y-108015932D01*
X155212684Y-108015931D01*
X155212691Y-108015931D01*
X155345659Y-107960855D01*
X155459840Y-107873240D01*
X155547455Y-107759059D01*
X155602531Y-107626091D01*
X155603000Y-107622530D01*
X155621317Y-107483402D01*
X155621317Y-107483397D01*
X155602532Y-107340715D01*
X155602531Y-107340713D01*
X155602531Y-107340709D01*
X155547455Y-107207742D01*
X155459840Y-107093560D01*
X155459838Y-107093559D01*
X155459838Y-107093558D01*
X155393800Y-107042885D01*
X155345659Y-107005945D01*
X155212691Y-106950869D01*
X155212689Y-106950868D01*
X155212684Y-106950867D01*
X155070003Y-106932083D01*
X155069997Y-106932083D01*
X154927315Y-106950867D01*
X154927309Y-106950869D01*
X154794341Y-107005945D01*
X154680159Y-107093559D01*
X154592545Y-107207741D01*
X154537469Y-107340709D01*
X154537467Y-107340715D01*
X154518683Y-107483397D01*
X151775204Y-107483397D01*
X151779840Y-107479840D01*
X151867455Y-107365659D01*
X151922531Y-107232691D01*
X151934381Y-107142684D01*
X151941317Y-107090002D01*
X151941317Y-107089997D01*
X151922532Y-106947315D01*
X151922531Y-106947312D01*
X151922531Y-106947309D01*
X151873214Y-106828245D01*
X151873215Y-106780412D01*
X151907037Y-106746588D01*
X152025659Y-106697455D01*
X152139840Y-106609840D01*
X152227455Y-106495659D01*
X152282531Y-106362691D01*
X152301317Y-106220000D01*
X152300395Y-106213000D01*
X152298527Y-106198810D01*
X155768537Y-106198810D01*
X155768537Y-106198815D01*
X155787321Y-106341497D01*
X155787322Y-106341502D01*
X155787323Y-106341504D01*
X155842399Y-106474472D01*
X155930014Y-106588653D01*
X156044195Y-106676268D01*
X156177163Y-106731344D01*
X156177167Y-106731344D01*
X156177169Y-106731345D01*
X156319851Y-106750130D01*
X156319854Y-106750130D01*
X156319857Y-106750130D01*
X156462538Y-106731345D01*
X156462538Y-106731344D01*
X156462545Y-106731344D01*
X156595513Y-106676268D01*
X156709694Y-106588653D01*
X156797309Y-106474472D01*
X156819873Y-106419997D01*
X160528683Y-106419997D01*
X160528683Y-106420002D01*
X160547467Y-106562684D01*
X160547468Y-106562689D01*
X160547469Y-106562691D01*
X160602545Y-106695659D01*
X160690160Y-106809840D01*
X160804341Y-106897455D01*
X160937309Y-106952531D01*
X160937313Y-106952531D01*
X160937315Y-106952532D01*
X161079997Y-106971317D01*
X161080000Y-106971317D01*
X161080003Y-106971317D01*
X161222684Y-106952532D01*
X161222684Y-106952531D01*
X161222691Y-106952531D01*
X161355659Y-106897455D01*
X161469840Y-106809840D01*
X161557455Y-106695659D01*
X161612531Y-106562691D01*
X161613965Y-106551799D01*
X161631317Y-106420002D01*
X161631317Y-106419997D01*
X161612532Y-106277315D01*
X161612531Y-106277313D01*
X161612531Y-106277309D01*
X161557455Y-106144342D01*
X161469840Y-106030160D01*
X161469838Y-106030159D01*
X161469838Y-106030158D01*
X161358002Y-105944343D01*
X161355659Y-105942545D01*
X161222691Y-105887469D01*
X161222689Y-105887468D01*
X161222684Y-105887467D01*
X161080003Y-105868683D01*
X161079997Y-105868683D01*
X160937315Y-105887467D01*
X160937309Y-105887469D01*
X160804341Y-105942545D01*
X160690159Y-106030159D01*
X160602545Y-106144341D01*
X160547469Y-106277309D01*
X160547467Y-106277315D01*
X160528683Y-106419997D01*
X156819873Y-106419997D01*
X156852385Y-106341504D01*
X156855539Y-106317545D01*
X156871171Y-106198815D01*
X156871171Y-106198810D01*
X156852386Y-106056128D01*
X156852385Y-106056126D01*
X156852385Y-106056122D01*
X156797309Y-105923155D01*
X156709694Y-105808973D01*
X156709692Y-105808972D01*
X156709692Y-105808971D01*
X156623124Y-105742545D01*
X156595513Y-105721358D01*
X156462545Y-105666282D01*
X156462543Y-105666281D01*
X156462538Y-105666280D01*
X156319857Y-105647496D01*
X156319851Y-105647496D01*
X156177169Y-105666280D01*
X156177163Y-105666282D01*
X156044195Y-105721358D01*
X155930013Y-105808972D01*
X155842399Y-105923154D01*
X155787323Y-106056122D01*
X155787321Y-106056128D01*
X155768537Y-106198810D01*
X152298527Y-106198810D01*
X152282532Y-106077315D01*
X152282531Y-106077313D01*
X152282531Y-106077309D01*
X152227455Y-105944342D01*
X152139840Y-105830160D01*
X152139838Y-105830159D01*
X152139838Y-105830158D01*
X152086706Y-105789388D01*
X152025659Y-105742545D01*
X151892691Y-105687469D01*
X151892689Y-105687468D01*
X151892684Y-105687467D01*
X151750003Y-105668683D01*
X151749997Y-105668683D01*
X151607315Y-105687467D01*
X151607309Y-105687469D01*
X151474341Y-105742545D01*
X151360159Y-105830159D01*
X151272545Y-105944341D01*
X151217469Y-106077309D01*
X151217467Y-106077315D01*
X151198683Y-106219997D01*
X151198683Y-106220002D01*
X151217467Y-106362684D01*
X151217468Y-106362689D01*
X151217469Y-106362691D01*
X151253087Y-106448683D01*
X151266785Y-106481753D01*
X151266784Y-106529588D01*
X151232959Y-106563413D01*
X151114341Y-106612545D01*
X151000159Y-106700159D01*
X150912545Y-106814341D01*
X150857469Y-106947309D01*
X150857467Y-106947315D01*
X150838683Y-107089997D01*
X140839468Y-107089997D01*
X140851317Y-107000002D01*
X140851317Y-106999997D01*
X140832532Y-106857315D01*
X140832531Y-106857313D01*
X140832531Y-106857309D01*
X140777455Y-106724342D01*
X140689840Y-106610160D01*
X140689838Y-106610159D01*
X140689838Y-106610158D01*
X140613783Y-106551799D01*
X140575659Y-106522545D01*
X140442691Y-106467469D01*
X140442689Y-106467468D01*
X140442684Y-106467467D01*
X140300003Y-106448683D01*
X140299997Y-106448683D01*
X140157315Y-106467467D01*
X140157309Y-106467469D01*
X140024341Y-106522545D01*
X139910159Y-106610159D01*
X139822545Y-106724341D01*
X139767469Y-106857309D01*
X139767467Y-106857315D01*
X139748683Y-106999997D01*
X134475824Y-106999997D01*
X134501631Y-106937691D01*
X134518463Y-106809840D01*
X134520417Y-106795002D01*
X134520417Y-106794997D01*
X134501632Y-106652315D01*
X134501631Y-106652313D01*
X134501631Y-106652309D01*
X134446555Y-106519342D01*
X134358940Y-106405160D01*
X134358938Y-106405159D01*
X134358938Y-106405158D01*
X134289166Y-106351620D01*
X134244759Y-106317545D01*
X134111791Y-106262469D01*
X134111789Y-106262468D01*
X134111784Y-106262467D01*
X133969103Y-106243683D01*
X133969097Y-106243683D01*
X133826415Y-106262467D01*
X133826409Y-106262469D01*
X133693441Y-106317545D01*
X133579259Y-106405159D01*
X133491645Y-106519341D01*
X133436569Y-106652309D01*
X133436567Y-106652315D01*
X133417783Y-106794997D01*
X129631500Y-106794997D01*
X129631500Y-105080550D01*
X150480136Y-105080550D01*
X150480136Y-105080555D01*
X150498920Y-105223237D01*
X150498921Y-105223242D01*
X150498922Y-105223244D01*
X150553998Y-105356212D01*
X150641613Y-105470393D01*
X150755794Y-105558008D01*
X150888762Y-105613084D01*
X150888766Y-105613084D01*
X150888768Y-105613085D01*
X151031450Y-105631870D01*
X151031453Y-105631870D01*
X151031456Y-105631870D01*
X151174137Y-105613085D01*
X151174137Y-105613084D01*
X151174144Y-105613084D01*
X151307112Y-105558008D01*
X151421293Y-105470393D01*
X151508908Y-105356212D01*
X151563984Y-105223244D01*
X151582770Y-105080553D01*
X151563984Y-104937862D01*
X151508908Y-104804895D01*
X151421293Y-104690713D01*
X151421291Y-104690712D01*
X151421291Y-104690711D01*
X151325822Y-104617455D01*
X151307112Y-104603098D01*
X151299188Y-104599816D01*
X151264486Y-104585442D01*
X151174144Y-104548022D01*
X151174142Y-104548021D01*
X151174137Y-104548020D01*
X151031456Y-104529236D01*
X151031450Y-104529236D01*
X150888768Y-104548020D01*
X150888762Y-104548022D01*
X150755794Y-104603098D01*
X150641612Y-104690712D01*
X150553998Y-104804894D01*
X150498922Y-104937862D01*
X150498920Y-104937868D01*
X150480136Y-105080550D01*
X129631500Y-105080550D01*
X129631500Y-104199997D01*
X142848683Y-104199997D01*
X142848683Y-104200002D01*
X142867467Y-104342684D01*
X142867468Y-104342689D01*
X142867469Y-104342691D01*
X142922545Y-104475659D01*
X143010160Y-104589840D01*
X143124341Y-104677455D01*
X143257309Y-104732531D01*
X143257313Y-104732531D01*
X143257315Y-104732532D01*
X143399997Y-104751317D01*
X143400000Y-104751317D01*
X143400003Y-104751317D01*
X143542684Y-104732532D01*
X143542684Y-104732531D01*
X143542691Y-104732531D01*
X143675659Y-104677455D01*
X143675660Y-104677454D01*
X143682075Y-104672532D01*
X143772562Y-104603098D01*
X143779437Y-104597823D01*
X143825643Y-104585442D01*
X143855533Y-104597823D01*
X143972310Y-104687430D01*
X143972311Y-104687430D01*
X143972312Y-104687431D01*
X144105280Y-104742507D01*
X144105284Y-104742507D01*
X144105286Y-104742508D01*
X144247968Y-104761293D01*
X144247971Y-104761293D01*
X144247974Y-104761293D01*
X144390655Y-104742508D01*
X144390655Y-104742507D01*
X144390662Y-104742507D01*
X144523630Y-104687431D01*
X144637811Y-104599816D01*
X144725426Y-104485635D01*
X144780502Y-104352667D01*
X144781816Y-104342684D01*
X144799288Y-104209978D01*
X144799288Y-104209973D01*
X144790075Y-104139997D01*
X146578683Y-104139997D01*
X146578683Y-104140002D01*
X146597467Y-104282684D01*
X146597468Y-104282689D01*
X146597469Y-104282691D01*
X146652545Y-104415659D01*
X146740160Y-104529840D01*
X146854341Y-104617455D01*
X146987309Y-104672531D01*
X146987313Y-104672531D01*
X146987315Y-104672532D01*
X147129997Y-104691317D01*
X147130000Y-104691317D01*
X147130003Y-104691317D01*
X147272684Y-104672532D01*
X147272684Y-104672531D01*
X147272691Y-104672531D01*
X147405659Y-104617455D01*
X147519840Y-104529840D01*
X147607455Y-104415659D01*
X147662531Y-104282691D01*
X147672105Y-104209973D01*
X147681317Y-104140002D01*
X147681317Y-104139997D01*
X147662532Y-103997315D01*
X147662531Y-103997313D01*
X147662531Y-103997309D01*
X147607455Y-103864342D01*
X147519840Y-103750160D01*
X147519838Y-103750159D01*
X147519838Y-103750158D01*
X147458618Y-103703182D01*
X147405659Y-103662545D01*
X147372192Y-103648683D01*
X147313429Y-103624343D01*
X147272691Y-103607469D01*
X147272689Y-103607468D01*
X147272684Y-103607467D01*
X147130003Y-103588683D01*
X147129997Y-103588683D01*
X146987315Y-103607467D01*
X146987309Y-103607469D01*
X146854341Y-103662545D01*
X146740159Y-103750159D01*
X146652545Y-103864341D01*
X146597469Y-103997309D01*
X146597467Y-103997315D01*
X146578683Y-104139997D01*
X144790075Y-104139997D01*
X144780503Y-104067291D01*
X144780502Y-104067289D01*
X144780502Y-104067285D01*
X144725426Y-103934318D01*
X144637811Y-103820136D01*
X144637809Y-103820135D01*
X144637809Y-103820134D01*
X144546616Y-103750159D01*
X144523630Y-103732521D01*
X144390662Y-103677445D01*
X144390660Y-103677444D01*
X144390655Y-103677443D01*
X144247974Y-103658659D01*
X144247968Y-103658659D01*
X144105286Y-103677443D01*
X144105280Y-103677445D01*
X143972314Y-103732520D01*
X143959059Y-103742691D01*
X143868532Y-103812154D01*
X143822328Y-103824534D01*
X143792438Y-103812153D01*
X143675660Y-103722545D01*
X143609175Y-103695007D01*
X143542691Y-103667469D01*
X143542689Y-103667468D01*
X143542684Y-103667467D01*
X143400003Y-103648683D01*
X143399997Y-103648683D01*
X143257315Y-103667467D01*
X143257309Y-103667469D01*
X143124341Y-103722545D01*
X143010159Y-103810159D01*
X142922545Y-103924341D01*
X142867469Y-104057309D01*
X142867467Y-104057315D01*
X142848683Y-104199997D01*
X129631500Y-104199997D01*
X129631500Y-103599997D01*
X134048683Y-103599997D01*
X134048683Y-103600002D01*
X134067467Y-103742684D01*
X134067468Y-103742689D01*
X134067469Y-103742691D01*
X134122545Y-103875659D01*
X134210160Y-103989840D01*
X134324341Y-104077455D01*
X134457309Y-104132531D01*
X134457313Y-104132531D01*
X134457315Y-104132532D01*
X134599997Y-104151317D01*
X134600000Y-104151317D01*
X134600003Y-104151317D01*
X134742684Y-104132532D01*
X134742684Y-104132531D01*
X134742691Y-104132531D01*
X134875659Y-104077455D01*
X134989840Y-103989840D01*
X135077455Y-103875659D01*
X135132531Y-103742691D01*
X135141121Y-103677443D01*
X135151317Y-103600002D01*
X135151317Y-103599997D01*
X135138151Y-103499997D01*
X147998683Y-103499997D01*
X147998683Y-103500002D01*
X148017467Y-103642684D01*
X148017468Y-103642689D01*
X148017469Y-103642691D01*
X148072545Y-103775659D01*
X148160160Y-103889840D01*
X148274341Y-103977455D01*
X148407309Y-104032531D01*
X148407313Y-104032531D01*
X148407315Y-104032532D01*
X148549997Y-104051317D01*
X148550000Y-104051317D01*
X148550003Y-104051317D01*
X148692684Y-104032532D01*
X148692684Y-104032531D01*
X148692691Y-104032531D01*
X148825659Y-103977455D01*
X148926603Y-103899997D01*
X155548683Y-103899997D01*
X155548683Y-103900002D01*
X155567467Y-104042684D01*
X155567468Y-104042689D01*
X155567469Y-104042691D01*
X155622545Y-104175659D01*
X155710160Y-104289840D01*
X155824341Y-104377455D01*
X155957309Y-104432531D01*
X155957313Y-104432531D01*
X155957315Y-104432532D01*
X156099997Y-104451317D01*
X156100000Y-104451317D01*
X156100003Y-104451317D01*
X156242684Y-104432532D01*
X156242684Y-104432531D01*
X156242691Y-104432531D01*
X156375659Y-104377455D01*
X156489840Y-104289840D01*
X156577455Y-104175659D01*
X156632531Y-104042691D01*
X156633155Y-104037953D01*
X156651317Y-103900002D01*
X156651317Y-103899997D01*
X156632532Y-103757315D01*
X156632531Y-103757313D01*
X156632531Y-103757309D01*
X156577455Y-103624342D01*
X156489840Y-103510160D01*
X156489838Y-103510159D01*
X156489838Y-103510158D01*
X156420964Y-103457309D01*
X156375659Y-103422545D01*
X156364220Y-103417807D01*
X156336708Y-103406411D01*
X156242691Y-103367469D01*
X156242689Y-103367468D01*
X156242684Y-103367467D01*
X156100003Y-103348683D01*
X156099997Y-103348683D01*
X155957315Y-103367467D01*
X155957309Y-103367469D01*
X155824341Y-103422545D01*
X155710159Y-103510159D01*
X155622545Y-103624341D01*
X155567469Y-103757309D01*
X155567467Y-103757315D01*
X155548683Y-103899997D01*
X148926603Y-103899997D01*
X148939840Y-103889840D01*
X149027455Y-103775659D01*
X149082531Y-103642691D01*
X149082532Y-103642684D01*
X149101317Y-103500002D01*
X149101317Y-103499997D01*
X149082532Y-103357315D01*
X149082531Y-103357313D01*
X149082531Y-103357309D01*
X149027455Y-103224342D01*
X148939840Y-103110160D01*
X148939838Y-103110159D01*
X148939838Y-103110158D01*
X148900531Y-103079997D01*
X150228683Y-103079997D01*
X150228683Y-103080002D01*
X150247467Y-103222684D01*
X150247468Y-103222689D01*
X150247469Y-103222691D01*
X150273212Y-103284841D01*
X150299655Y-103348683D01*
X150302545Y-103355659D01*
X150390160Y-103469840D01*
X150504341Y-103557455D01*
X150637309Y-103612531D01*
X150637313Y-103612531D01*
X150637315Y-103612532D01*
X150779997Y-103631317D01*
X150780000Y-103631317D01*
X150780003Y-103631317D01*
X150922684Y-103612532D01*
X150922684Y-103612531D01*
X150922691Y-103612531D01*
X151055659Y-103557455D01*
X151169840Y-103469840D01*
X151257455Y-103355659D01*
X151312531Y-103222691D01*
X151316856Y-103189839D01*
X151331317Y-103080002D01*
X151331317Y-103079997D01*
X151312532Y-102937315D01*
X151312531Y-102937313D01*
X151312531Y-102937309D01*
X151257455Y-102804342D01*
X151254121Y-102799997D01*
X158748683Y-102799997D01*
X158748683Y-102800002D01*
X158767467Y-102942684D01*
X158767468Y-102942687D01*
X158767469Y-102942691D01*
X158822545Y-103075659D01*
X158910160Y-103189840D01*
X159024341Y-103277455D01*
X159032717Y-103280924D01*
X159066542Y-103314748D01*
X159066543Y-103362583D01*
X159043671Y-103417804D01*
X159043668Y-103417813D01*
X159024884Y-103560495D01*
X159024884Y-103560500D01*
X159043668Y-103703182D01*
X159043669Y-103703187D01*
X159043670Y-103703189D01*
X159082612Y-103797206D01*
X159087977Y-103810159D01*
X159098746Y-103836157D01*
X159166413Y-103924341D01*
X159186361Y-103950338D01*
X159187780Y-103951427D01*
X159188232Y-103952210D01*
X159189257Y-103953235D01*
X159188982Y-103953509D01*
X159211699Y-103992854D01*
X159199320Y-104039059D01*
X159187782Y-104050597D01*
X159110160Y-104110159D01*
X159022545Y-104224341D01*
X158967469Y-104357309D01*
X158967467Y-104357315D01*
X158948683Y-104499997D01*
X158948683Y-104500002D01*
X158967467Y-104642684D01*
X158967468Y-104642689D01*
X158967469Y-104642691D01*
X158986000Y-104687430D01*
X159016594Y-104761293D01*
X159022545Y-104775659D01*
X159110160Y-104889840D01*
X159224341Y-104977455D01*
X159357309Y-105032531D01*
X159357313Y-105032531D01*
X159357315Y-105032532D01*
X159499997Y-105051317D01*
X159500000Y-105051317D01*
X159500003Y-105051317D01*
X159642684Y-105032532D01*
X159642684Y-105032531D01*
X159642691Y-105032531D01*
X159775659Y-104977455D01*
X159889840Y-104889840D01*
X159977455Y-104775659D01*
X160032531Y-104642691D01*
X160032532Y-104642684D01*
X160051317Y-104500002D01*
X160051317Y-104499997D01*
X160032532Y-104357315D01*
X160032531Y-104357313D01*
X160032531Y-104357309D01*
X159977455Y-104224342D01*
X159907006Y-104132531D01*
X159889839Y-104110158D01*
X159888418Y-104109068D01*
X159887965Y-104108284D01*
X159886944Y-104107263D01*
X159887217Y-104106989D01*
X159864501Y-104067641D01*
X159876882Y-104021436D01*
X159888414Y-104009903D01*
X159966041Y-103950338D01*
X160053656Y-103836157D01*
X160108732Y-103703189D01*
X160118194Y-103631317D01*
X160127518Y-103560500D01*
X160127518Y-103560495D01*
X160108733Y-103417813D01*
X160108732Y-103417811D01*
X160108732Y-103417807D01*
X160053656Y-103284840D01*
X159966041Y-103170658D01*
X159966039Y-103170657D01*
X159966039Y-103170656D01*
X159851857Y-103083041D01*
X159843483Y-103079573D01*
X159809658Y-103045748D01*
X159809657Y-102997913D01*
X159832531Y-102942691D01*
X159833240Y-102937309D01*
X159851317Y-102800002D01*
X159851317Y-102799997D01*
X159832532Y-102657315D01*
X159832531Y-102657313D01*
X159832531Y-102657309D01*
X159777455Y-102524342D01*
X159689840Y-102410160D01*
X159689838Y-102410159D01*
X159689838Y-102410158D01*
X159636706Y-102369388D01*
X159575659Y-102322545D01*
X159442691Y-102267469D01*
X159442689Y-102267468D01*
X159442684Y-102267467D01*
X159300003Y-102248683D01*
X159299997Y-102248683D01*
X159157315Y-102267467D01*
X159157309Y-102267469D01*
X159024341Y-102322545D01*
X158910159Y-102410159D01*
X158822545Y-102524341D01*
X158767469Y-102657309D01*
X158767467Y-102657315D01*
X158748683Y-102799997D01*
X151254121Y-102799997D01*
X151169840Y-102690160D01*
X151169838Y-102690159D01*
X151169838Y-102690158D01*
X151116706Y-102649388D01*
X151055659Y-102602545D01*
X150922691Y-102547469D01*
X150922689Y-102547468D01*
X150922684Y-102547467D01*
X150780003Y-102528683D01*
X150779997Y-102528683D01*
X150637315Y-102547467D01*
X150637309Y-102547469D01*
X150504341Y-102602545D01*
X150390159Y-102690159D01*
X150302545Y-102804341D01*
X150247469Y-102937309D01*
X150247467Y-102937315D01*
X150228683Y-103079997D01*
X148900531Y-103079997D01*
X148855897Y-103045748D01*
X148825659Y-103022545D01*
X148692691Y-102967469D01*
X148692689Y-102967468D01*
X148692684Y-102967467D01*
X148550003Y-102948683D01*
X148549997Y-102948683D01*
X148407315Y-102967467D01*
X148407309Y-102967469D01*
X148274341Y-103022545D01*
X148160159Y-103110159D01*
X148072545Y-103224341D01*
X148017469Y-103357309D01*
X148017467Y-103357315D01*
X147998683Y-103499997D01*
X135138151Y-103499997D01*
X135132532Y-103457315D01*
X135132531Y-103457313D01*
X135132531Y-103457309D01*
X135077455Y-103324342D01*
X134989840Y-103210160D01*
X134989838Y-103210159D01*
X134989838Y-103210158D01*
X134933592Y-103166999D01*
X134875659Y-103122545D01*
X134742691Y-103067469D01*
X134742689Y-103067468D01*
X134742684Y-103067467D01*
X134600003Y-103048683D01*
X134599997Y-103048683D01*
X134457315Y-103067467D01*
X134457309Y-103067469D01*
X134324341Y-103122545D01*
X134210159Y-103210159D01*
X134122545Y-103324341D01*
X134067469Y-103457309D01*
X134067467Y-103457315D01*
X134048683Y-103599997D01*
X129631500Y-103599997D01*
X129631500Y-103166999D01*
X129649806Y-103122805D01*
X129694000Y-103104499D01*
X130600032Y-103104499D01*
X130606158Y-103104800D01*
X130649999Y-103109118D01*
X130649999Y-103109117D01*
X130650000Y-103109118D01*
X130837115Y-103090689D01*
X131017039Y-103036109D01*
X131182857Y-102947477D01*
X131328199Y-102828199D01*
X131447477Y-102682857D01*
X131536109Y-102517039D01*
X131571614Y-102399997D01*
X138048683Y-102399997D01*
X138048683Y-102400002D01*
X138067467Y-102542684D01*
X138067468Y-102542689D01*
X138067469Y-102542691D01*
X138122545Y-102675659D01*
X138210160Y-102789840D01*
X138324341Y-102877455D01*
X138457309Y-102932531D01*
X138457313Y-102932531D01*
X138457315Y-102932532D01*
X138599997Y-102951317D01*
X138600000Y-102951317D01*
X138600003Y-102951317D01*
X138742684Y-102932532D01*
X138742684Y-102932531D01*
X138742691Y-102932531D01*
X138875659Y-102877455D01*
X138989840Y-102789840D01*
X139077455Y-102675659D01*
X139132531Y-102542691D01*
X139148989Y-102417684D01*
X139151317Y-102400002D01*
X139151317Y-102399997D01*
X139548683Y-102399997D01*
X139548683Y-102400002D01*
X139567467Y-102542684D01*
X139567468Y-102542689D01*
X139567469Y-102542691D01*
X139622545Y-102675659D01*
X139710160Y-102789840D01*
X139824341Y-102877455D01*
X139957309Y-102932531D01*
X139957313Y-102932531D01*
X139957315Y-102932532D01*
X140099997Y-102951317D01*
X140100000Y-102951317D01*
X140100003Y-102951317D01*
X140242684Y-102932532D01*
X140242684Y-102932531D01*
X140242691Y-102932531D01*
X140375659Y-102877455D01*
X140489840Y-102789840D01*
X140577455Y-102675659D01*
X140632531Y-102542691D01*
X140648989Y-102417684D01*
X140651317Y-102400002D01*
X140651317Y-102399997D01*
X140634860Y-102274997D01*
X144773683Y-102274997D01*
X144773683Y-102275002D01*
X144792467Y-102417684D01*
X144792469Y-102417690D01*
X144844244Y-102542691D01*
X144847545Y-102550659D01*
X144935160Y-102664840D01*
X145049341Y-102752455D01*
X145182309Y-102807531D01*
X145182313Y-102807531D01*
X145182315Y-102807532D01*
X145324997Y-102826317D01*
X145325000Y-102826317D01*
X145325003Y-102826317D01*
X145467684Y-102807532D01*
X145467684Y-102807531D01*
X145467691Y-102807531D01*
X145600659Y-102752455D01*
X145714840Y-102664840D01*
X145802455Y-102550659D01*
X145857531Y-102417691D01*
X145857532Y-102417684D01*
X145876317Y-102275002D01*
X145876317Y-102274997D01*
X145857532Y-102132315D01*
X145857531Y-102132313D01*
X145857531Y-102132309D01*
X145802455Y-101999342D01*
X145714840Y-101885160D01*
X145714838Y-101885159D01*
X145714838Y-101885158D01*
X145661706Y-101844388D01*
X145600659Y-101797545D01*
X145467691Y-101742469D01*
X145467689Y-101742468D01*
X145467684Y-101742467D01*
X145325003Y-101723683D01*
X145324997Y-101723683D01*
X145182315Y-101742467D01*
X145182309Y-101742469D01*
X145049341Y-101797545D01*
X144935159Y-101885159D01*
X144847545Y-101999341D01*
X144792469Y-102132309D01*
X144792467Y-102132315D01*
X144773683Y-102274997D01*
X140634860Y-102274997D01*
X140632532Y-102257315D01*
X140632531Y-102257313D01*
X140632531Y-102257309D01*
X140577455Y-102124342D01*
X140489840Y-102010160D01*
X140489838Y-102010159D01*
X140489838Y-102010158D01*
X140428231Y-101962885D01*
X140375659Y-101922545D01*
X140242691Y-101867469D01*
X140242689Y-101867468D01*
X140242684Y-101867467D01*
X140100003Y-101848683D01*
X140099997Y-101848683D01*
X139957315Y-101867467D01*
X139957309Y-101867469D01*
X139824341Y-101922545D01*
X139710159Y-102010159D01*
X139622545Y-102124341D01*
X139567469Y-102257309D01*
X139567467Y-102257315D01*
X139548683Y-102399997D01*
X139151317Y-102399997D01*
X139132532Y-102257315D01*
X139132531Y-102257313D01*
X139132531Y-102257309D01*
X139077455Y-102124342D01*
X138989840Y-102010160D01*
X138989838Y-102010159D01*
X138989838Y-102010158D01*
X138928231Y-101962885D01*
X138875659Y-101922545D01*
X138742691Y-101867469D01*
X138742689Y-101867468D01*
X138742684Y-101867467D01*
X138600003Y-101848683D01*
X138599997Y-101848683D01*
X138457315Y-101867467D01*
X138457309Y-101867469D01*
X138324341Y-101922545D01*
X138210159Y-102010159D01*
X138122545Y-102124341D01*
X138067469Y-102257309D01*
X138067467Y-102257315D01*
X138048683Y-102399997D01*
X131571614Y-102399997D01*
X131590689Y-102337115D01*
X131609118Y-102150000D01*
X131590689Y-101962885D01*
X131536109Y-101782961D01*
X131532205Y-101775657D01*
X131447480Y-101617148D01*
X131447478Y-101617146D01*
X131447477Y-101617143D01*
X131351339Y-101499997D01*
X148748683Y-101499997D01*
X148748683Y-101500002D01*
X148767467Y-101642684D01*
X148767468Y-101642689D01*
X148767469Y-101642691D01*
X148822545Y-101775659D01*
X148910160Y-101889840D01*
X149024341Y-101977455D01*
X149157309Y-102032531D01*
X149157313Y-102032531D01*
X149157315Y-102032532D01*
X149299997Y-102051317D01*
X149300000Y-102051317D01*
X149300003Y-102051317D01*
X149442684Y-102032532D01*
X149442684Y-102032531D01*
X149442691Y-102032531D01*
X149575659Y-101977455D01*
X149689840Y-101889840D01*
X149777455Y-101775659D01*
X149832531Y-101642691D01*
X149840611Y-101581317D01*
X149851317Y-101500002D01*
X149851317Y-101499997D01*
X149832532Y-101357315D01*
X149832531Y-101357313D01*
X149832531Y-101357309D01*
X149777455Y-101224342D01*
X149689840Y-101110160D01*
X149689838Y-101110159D01*
X149689838Y-101110158D01*
X149636706Y-101069388D01*
X149585371Y-101029997D01*
X158908683Y-101029997D01*
X158908683Y-101030002D01*
X158927467Y-101172684D01*
X158927468Y-101172689D01*
X158927469Y-101172691D01*
X158982545Y-101305659D01*
X159070160Y-101419840D01*
X159184341Y-101507455D01*
X159317309Y-101562531D01*
X159317313Y-101562531D01*
X159317315Y-101562532D01*
X159459997Y-101581317D01*
X159460000Y-101581317D01*
X159460003Y-101581317D01*
X159602684Y-101562532D01*
X159602684Y-101562531D01*
X159602691Y-101562531D01*
X159735659Y-101507455D01*
X159849840Y-101419840D01*
X159937455Y-101305659D01*
X159992531Y-101172691D01*
X160011317Y-101030000D01*
X160010335Y-101022544D01*
X159992532Y-100887315D01*
X159992531Y-100887313D01*
X159992531Y-100887309D01*
X159937455Y-100754342D01*
X159849840Y-100640160D01*
X159849838Y-100640159D01*
X159849838Y-100640158D01*
X159796706Y-100599388D01*
X159735659Y-100552545D01*
X159602691Y-100497469D01*
X159602689Y-100497468D01*
X159602684Y-100497467D01*
X159460003Y-100478683D01*
X159459997Y-100478683D01*
X159317315Y-100497467D01*
X159317309Y-100497469D01*
X159184341Y-100552545D01*
X159070159Y-100640159D01*
X158982545Y-100754341D01*
X158927469Y-100887309D01*
X158927467Y-100887315D01*
X158908683Y-101029997D01*
X149585371Y-101029997D01*
X149575659Y-101022545D01*
X149442691Y-100967469D01*
X149442689Y-100967468D01*
X149442684Y-100967467D01*
X149300003Y-100948683D01*
X149299997Y-100948683D01*
X149157315Y-100967467D01*
X149157309Y-100967469D01*
X149024341Y-101022545D01*
X148910159Y-101110159D01*
X148822545Y-101224341D01*
X148767469Y-101357309D01*
X148767467Y-101357315D01*
X148748683Y-101499997D01*
X131351339Y-101499997D01*
X131328199Y-101471801D01*
X131182857Y-101352523D01*
X131182855Y-101352521D01*
X131182851Y-101352519D01*
X131017042Y-101263892D01*
X130837113Y-101209310D01*
X130650000Y-101190882D01*
X130606167Y-101195199D01*
X130600041Y-101195500D01*
X129694000Y-101195500D01*
X129649806Y-101177194D01*
X129631500Y-101133000D01*
X129631500Y-99699997D01*
X158948683Y-99699997D01*
X158948683Y-99700002D01*
X158967467Y-99842684D01*
X158967469Y-99842690D01*
X159017173Y-99962691D01*
X159022545Y-99975659D01*
X159110160Y-100089840D01*
X159224341Y-100177455D01*
X159357309Y-100232531D01*
X159357313Y-100232531D01*
X159357315Y-100232532D01*
X159499997Y-100251317D01*
X159500000Y-100251317D01*
X159500003Y-100251317D01*
X159642684Y-100232532D01*
X159642684Y-100232531D01*
X159642691Y-100232531D01*
X159775659Y-100177455D01*
X159889840Y-100089840D01*
X159977455Y-99975659D01*
X160032531Y-99842691D01*
X160035519Y-99819997D01*
X162392083Y-99819997D01*
X162392083Y-99820002D01*
X162410867Y-99962684D01*
X162410868Y-99962689D01*
X162410869Y-99962691D01*
X162465945Y-100095659D01*
X162553560Y-100209840D01*
X162667741Y-100297455D01*
X162800709Y-100352531D01*
X162800713Y-100352531D01*
X162800715Y-100352532D01*
X162943397Y-100371317D01*
X162943400Y-100371317D01*
X162943403Y-100371317D01*
X163086084Y-100352532D01*
X163086084Y-100352531D01*
X163086091Y-100352531D01*
X163219059Y-100297455D01*
X163333240Y-100209840D01*
X163420855Y-100095659D01*
X163475931Y-99962691D01*
X163494717Y-99820000D01*
X163478918Y-99700000D01*
X163475932Y-99677315D01*
X163475931Y-99677313D01*
X163475931Y-99677309D01*
X163420855Y-99544342D01*
X163333240Y-99430160D01*
X163333238Y-99430159D01*
X163333238Y-99430158D01*
X163253332Y-99368844D01*
X163219059Y-99342545D01*
X163086091Y-99287469D01*
X163086089Y-99287468D01*
X163086084Y-99287467D01*
X162943403Y-99268683D01*
X162943397Y-99268683D01*
X162800715Y-99287467D01*
X162800709Y-99287469D01*
X162667741Y-99342545D01*
X162553559Y-99430159D01*
X162465945Y-99544341D01*
X162410869Y-99677309D01*
X162410867Y-99677315D01*
X162392083Y-99819997D01*
X160035519Y-99819997D01*
X160051317Y-99700000D01*
X160048330Y-99677315D01*
X160032532Y-99557315D01*
X160032531Y-99557313D01*
X160032531Y-99557309D01*
X159977455Y-99424342D01*
X159889840Y-99310160D01*
X159889838Y-99310159D01*
X159889838Y-99310158D01*
X159796007Y-99238159D01*
X159775659Y-99222545D01*
X159642691Y-99167469D01*
X159642689Y-99167468D01*
X159642684Y-99167467D01*
X159500003Y-99148683D01*
X159499997Y-99148683D01*
X159357315Y-99167467D01*
X159357309Y-99167469D01*
X159224341Y-99222545D01*
X159110159Y-99310159D01*
X159022545Y-99424341D01*
X158967469Y-99557309D01*
X158967467Y-99557315D01*
X158948683Y-99699997D01*
X129631500Y-99699997D01*
X129631500Y-98891386D01*
X144504850Y-98891386D01*
X144504850Y-98891391D01*
X144523634Y-99034073D01*
X144523635Y-99034078D01*
X144523636Y-99034080D01*
X144578712Y-99167048D01*
X144666327Y-99281229D01*
X144780508Y-99368844D01*
X144913476Y-99423920D01*
X144913480Y-99423920D01*
X144913482Y-99423921D01*
X145056164Y-99442706D01*
X145056167Y-99442706D01*
X145056170Y-99442706D01*
X145198851Y-99423921D01*
X145198851Y-99423920D01*
X145198858Y-99423920D01*
X145331826Y-99368844D01*
X145446007Y-99281229D01*
X145533622Y-99167048D01*
X145588698Y-99034080D01*
X145598122Y-98962497D01*
X147748683Y-98962497D01*
X147748683Y-98962502D01*
X147767467Y-99105184D01*
X147767468Y-99105189D01*
X147767469Y-99105191D01*
X147822545Y-99238159D01*
X147910160Y-99352340D01*
X148024341Y-99439955D01*
X148157309Y-99495031D01*
X148157313Y-99495031D01*
X148157315Y-99495032D01*
X148299997Y-99513817D01*
X148300000Y-99513817D01*
X148300003Y-99513817D01*
X148442684Y-99495032D01*
X148442684Y-99495031D01*
X148442691Y-99495031D01*
X148575659Y-99439955D01*
X148689840Y-99352340D01*
X148777455Y-99238159D01*
X148832531Y-99105191D01*
X148851317Y-98962500D01*
X148841954Y-98891386D01*
X148832532Y-98819815D01*
X148832531Y-98819813D01*
X148832531Y-98819809D01*
X148777455Y-98686842D01*
X148689840Y-98572660D01*
X148689838Y-98572659D01*
X148689838Y-98572658D01*
X148597167Y-98501549D01*
X148575659Y-98485045D01*
X148442691Y-98429969D01*
X148442689Y-98429968D01*
X148442684Y-98429967D01*
X148300003Y-98411183D01*
X148299997Y-98411183D01*
X148157315Y-98429967D01*
X148157309Y-98429969D01*
X148024341Y-98485045D01*
X147910159Y-98572659D01*
X147822545Y-98686841D01*
X147767469Y-98819809D01*
X147767467Y-98819815D01*
X147748683Y-98962497D01*
X145598122Y-98962497D01*
X145607484Y-98891389D01*
X145588698Y-98748698D01*
X145533622Y-98615731D01*
X145446007Y-98501549D01*
X145446005Y-98501548D01*
X145446005Y-98501547D01*
X145352720Y-98429967D01*
X145331826Y-98413934D01*
X145325184Y-98411183D01*
X145292875Y-98397800D01*
X145198858Y-98358858D01*
X145198856Y-98358857D01*
X145198851Y-98358856D01*
X145056170Y-98340072D01*
X145056164Y-98340072D01*
X144913482Y-98358856D01*
X144913476Y-98358858D01*
X144780508Y-98413934D01*
X144666326Y-98501548D01*
X144578712Y-98615730D01*
X144523636Y-98748698D01*
X144523634Y-98748704D01*
X144504850Y-98891386D01*
X129631500Y-98891386D01*
X129631500Y-98099997D01*
X133948683Y-98099997D01*
X133948683Y-98100002D01*
X133967467Y-98242684D01*
X133967468Y-98242689D01*
X133967469Y-98242691D01*
X134022545Y-98375659D01*
X134110160Y-98489840D01*
X134224341Y-98577455D01*
X134357309Y-98632531D01*
X134357313Y-98632531D01*
X134357315Y-98632532D01*
X134499997Y-98651317D01*
X134500000Y-98651317D01*
X134500003Y-98651317D01*
X134642684Y-98632532D01*
X134642684Y-98632531D01*
X134642691Y-98632531D01*
X134775659Y-98577455D01*
X134889840Y-98489840D01*
X134977455Y-98375659D01*
X135032531Y-98242691D01*
X135036341Y-98213754D01*
X135051317Y-98100004D01*
X136648688Y-98100004D01*
X136648688Y-98100009D01*
X136667472Y-98242691D01*
X136667473Y-98242696D01*
X136667474Y-98242698D01*
X136722550Y-98375666D01*
X136810165Y-98489847D01*
X136924346Y-98577462D01*
X137057314Y-98632538D01*
X137057318Y-98632538D01*
X137057320Y-98632539D01*
X137200002Y-98651324D01*
X137200005Y-98651324D01*
X137200008Y-98651324D01*
X137342689Y-98632539D01*
X137342689Y-98632538D01*
X137342696Y-98632538D01*
X137475664Y-98577462D01*
X137589845Y-98489847D01*
X137677460Y-98375666D01*
X137732536Y-98242698D01*
X137732538Y-98242684D01*
X137751322Y-98100009D01*
X137751322Y-98100004D01*
X137747511Y-98071061D01*
X158086183Y-98071061D01*
X158086183Y-98071066D01*
X158104967Y-98213748D01*
X158104968Y-98213753D01*
X158104969Y-98213755D01*
X158160045Y-98346723D01*
X158247660Y-98460904D01*
X158361841Y-98548519D01*
X158494809Y-98603595D01*
X158494813Y-98603595D01*
X158494815Y-98603596D01*
X158637497Y-98622381D01*
X158637500Y-98622381D01*
X158637503Y-98622381D01*
X158780184Y-98603596D01*
X158780184Y-98603595D01*
X158780191Y-98603595D01*
X158913159Y-98548519D01*
X159027340Y-98460904D01*
X159114955Y-98346723D01*
X159170031Y-98213755D01*
X159185007Y-98100002D01*
X159185008Y-98099997D01*
X161027194Y-98099997D01*
X161027194Y-98100002D01*
X161045978Y-98242684D01*
X161045979Y-98242689D01*
X161045980Y-98242691D01*
X161101056Y-98375659D01*
X161188671Y-98489840D01*
X161302852Y-98577455D01*
X161435820Y-98632531D01*
X161435824Y-98632531D01*
X161435826Y-98632532D01*
X161578508Y-98651317D01*
X161578511Y-98651317D01*
X161578514Y-98651317D01*
X161721195Y-98632532D01*
X161721195Y-98632531D01*
X161721202Y-98632531D01*
X161854170Y-98577455D01*
X161968351Y-98489840D01*
X162055966Y-98375659D01*
X162111042Y-98242691D01*
X162114852Y-98213754D01*
X162129828Y-98100002D01*
X162129828Y-98099997D01*
X162111043Y-97957315D01*
X162111042Y-97957313D01*
X162111042Y-97957309D01*
X162055966Y-97824342D01*
X161968351Y-97710160D01*
X161968349Y-97710159D01*
X161968349Y-97710158D01*
X161887506Y-97648125D01*
X161854170Y-97622545D01*
X161721202Y-97567469D01*
X161721200Y-97567468D01*
X161721195Y-97567467D01*
X161578514Y-97548683D01*
X161578508Y-97548683D01*
X161435826Y-97567467D01*
X161435820Y-97567469D01*
X161302852Y-97622545D01*
X161188670Y-97710159D01*
X161101056Y-97824341D01*
X161045980Y-97957309D01*
X161045978Y-97957315D01*
X161027194Y-98099997D01*
X159185008Y-98099997D01*
X159188817Y-98071066D01*
X159188817Y-98071061D01*
X159170032Y-97928379D01*
X159170031Y-97928377D01*
X159170031Y-97928373D01*
X159114955Y-97795406D01*
X159027340Y-97681224D01*
X159027338Y-97681223D01*
X159027338Y-97681222D01*
X158950878Y-97622552D01*
X158913159Y-97593609D01*
X158780191Y-97538533D01*
X158780189Y-97538532D01*
X158780184Y-97538531D01*
X158637503Y-97519747D01*
X158637497Y-97519747D01*
X158494815Y-97538531D01*
X158494809Y-97538533D01*
X158361841Y-97593609D01*
X158247659Y-97681223D01*
X158160045Y-97795405D01*
X158104969Y-97928373D01*
X158104967Y-97928379D01*
X158086183Y-98071061D01*
X137747511Y-98071061D01*
X137732537Y-97957322D01*
X137732536Y-97957320D01*
X137732536Y-97957316D01*
X137677460Y-97824349D01*
X137589845Y-97710167D01*
X137589843Y-97710166D01*
X137589843Y-97710165D01*
X137508991Y-97648125D01*
X137475664Y-97622552D01*
X137475647Y-97622545D01*
X137405788Y-97593609D01*
X137342696Y-97567476D01*
X137342694Y-97567475D01*
X137342689Y-97567474D01*
X137200008Y-97548690D01*
X137200002Y-97548690D01*
X137057320Y-97567474D01*
X137057314Y-97567476D01*
X136924346Y-97622552D01*
X136810164Y-97710166D01*
X136722550Y-97824348D01*
X136667474Y-97957316D01*
X136667472Y-97957322D01*
X136648688Y-98100004D01*
X135051317Y-98100004D01*
X135051317Y-98100002D01*
X135051317Y-98099997D01*
X135032532Y-97957315D01*
X135032531Y-97957313D01*
X135032531Y-97957309D01*
X134977455Y-97824342D01*
X134889840Y-97710160D01*
X134889838Y-97710159D01*
X134889838Y-97710158D01*
X134808995Y-97648125D01*
X134775659Y-97622545D01*
X134642691Y-97567469D01*
X134642689Y-97567468D01*
X134642684Y-97567467D01*
X134500003Y-97548683D01*
X134499997Y-97548683D01*
X134357315Y-97567467D01*
X134357309Y-97567469D01*
X134224341Y-97622545D01*
X134110159Y-97710159D01*
X134022545Y-97824341D01*
X133967469Y-97957309D01*
X133967467Y-97957315D01*
X133948683Y-98099997D01*
X129631500Y-98099997D01*
X129631500Y-96499996D01*
X145590693Y-96499996D01*
X145590693Y-96500003D01*
X145609849Y-96657774D01*
X145609851Y-96657785D01*
X145666212Y-96806394D01*
X145756499Y-96937198D01*
X145756503Y-96937202D01*
X145875468Y-97042597D01*
X145875470Y-97042599D01*
X146016205Y-97116462D01*
X146016207Y-97116463D01*
X146170529Y-97154500D01*
X146329471Y-97154500D01*
X146483793Y-97116463D01*
X146624529Y-97042599D01*
X146743498Y-96937201D01*
X146833787Y-96806395D01*
X146890149Y-96657782D01*
X146898380Y-96589996D01*
X151920693Y-96589996D01*
X151920693Y-96590003D01*
X151939849Y-96747774D01*
X151939851Y-96747785D01*
X151996212Y-96896394D01*
X152086499Y-97027198D01*
X152086503Y-97027202D01*
X152205468Y-97132597D01*
X152205470Y-97132599D01*
X152346205Y-97206462D01*
X152346207Y-97206463D01*
X152500529Y-97244500D01*
X152659471Y-97244500D01*
X152813793Y-97206463D01*
X152881997Y-97170667D01*
X155938683Y-97170667D01*
X155938683Y-97170672D01*
X155957467Y-97313354D01*
X155957468Y-97313359D01*
X155957469Y-97313361D01*
X156012545Y-97446329D01*
X156100160Y-97560510D01*
X156214341Y-97648125D01*
X156347309Y-97703201D01*
X156347313Y-97703201D01*
X156347315Y-97703202D01*
X156489997Y-97721987D01*
X156490000Y-97721987D01*
X156490003Y-97721987D01*
X156632684Y-97703202D01*
X156632684Y-97703201D01*
X156632691Y-97703201D01*
X156765659Y-97648125D01*
X156879840Y-97560510D01*
X156967455Y-97446329D01*
X157022531Y-97313361D01*
X157041317Y-97170670D01*
X157039188Y-97154500D01*
X157022532Y-97027985D01*
X157022531Y-97027983D01*
X157022531Y-97027979D01*
X156967455Y-96895012D01*
X156879840Y-96780830D01*
X156879838Y-96780829D01*
X156879838Y-96780828D01*
X156826706Y-96740058D01*
X156765659Y-96693215D01*
X156632691Y-96638139D01*
X156632689Y-96638138D01*
X156632684Y-96638137D01*
X156490003Y-96619353D01*
X156489997Y-96619353D01*
X156347315Y-96638137D01*
X156347309Y-96638139D01*
X156214341Y-96693215D01*
X156100159Y-96780829D01*
X156012545Y-96895011D01*
X155957469Y-97027979D01*
X155957467Y-97027985D01*
X155938683Y-97170667D01*
X152881997Y-97170667D01*
X152954529Y-97132599D01*
X153073498Y-97027201D01*
X153163787Y-96896395D01*
X153220149Y-96747782D01*
X153226775Y-96693214D01*
X153239307Y-96590003D01*
X153239307Y-96589996D01*
X153220150Y-96432225D01*
X153220148Y-96432214D01*
X153163787Y-96283605D01*
X153073500Y-96152801D01*
X153073496Y-96152797D01*
X152954531Y-96047402D01*
X152954529Y-96047400D01*
X152813794Y-95973537D01*
X152659474Y-95935500D01*
X152659471Y-95935500D01*
X152500529Y-95935500D01*
X152500525Y-95935500D01*
X152346205Y-95973537D01*
X152205470Y-96047400D01*
X152205468Y-96047402D01*
X152086503Y-96152797D01*
X152086499Y-96152801D01*
X151996212Y-96283605D01*
X151939851Y-96432214D01*
X151939849Y-96432225D01*
X151920693Y-96589996D01*
X146898380Y-96589996D01*
X146898523Y-96588819D01*
X146909307Y-96500003D01*
X146909307Y-96499996D01*
X146890150Y-96342225D01*
X146890148Y-96342214D01*
X146833787Y-96193605D01*
X146743500Y-96062801D01*
X146743496Y-96062797D01*
X146714941Y-96037499D01*
X147548692Y-96037499D01*
X147548692Y-96037504D01*
X147567476Y-96180186D01*
X147567477Y-96180191D01*
X147567478Y-96180193D01*
X147622554Y-96313161D01*
X147710169Y-96427342D01*
X147824350Y-96514957D01*
X147957318Y-96570033D01*
X147957322Y-96570033D01*
X147957324Y-96570034D01*
X148100006Y-96588819D01*
X148100009Y-96588819D01*
X148100012Y-96588819D01*
X148242693Y-96570034D01*
X148242693Y-96570033D01*
X148242700Y-96570033D01*
X148375668Y-96514957D01*
X148489849Y-96427342D01*
X148577464Y-96313161D01*
X148632540Y-96180193D01*
X148651326Y-96037502D01*
X148640780Y-95957402D01*
X148632541Y-95894817D01*
X148632540Y-95894815D01*
X148632540Y-95894811D01*
X148577464Y-95761844D01*
X148489849Y-95647662D01*
X148489847Y-95647661D01*
X148489847Y-95647660D01*
X148436715Y-95606890D01*
X148375668Y-95560047D01*
X148242700Y-95504971D01*
X148242698Y-95504970D01*
X148242693Y-95504969D01*
X148100012Y-95486185D01*
X148100006Y-95486185D01*
X147957324Y-95504969D01*
X147957318Y-95504971D01*
X147824350Y-95560047D01*
X147710168Y-95647661D01*
X147622554Y-95761843D01*
X147567478Y-95894811D01*
X147567476Y-95894817D01*
X147548692Y-96037499D01*
X146714941Y-96037499D01*
X146624531Y-95957402D01*
X146624529Y-95957400D01*
X146483794Y-95883537D01*
X146329474Y-95845500D01*
X146329471Y-95845500D01*
X146170529Y-95845500D01*
X146170525Y-95845500D01*
X146016205Y-95883537D01*
X145875470Y-95957400D01*
X145875468Y-95957402D01*
X145756503Y-96062797D01*
X145756499Y-96062801D01*
X145666212Y-96193605D01*
X145609851Y-96342214D01*
X145609849Y-96342225D01*
X145590693Y-96499996D01*
X129631500Y-96499996D01*
X129631500Y-93324996D01*
X136040693Y-93324996D01*
X136040693Y-93325003D01*
X136059849Y-93482774D01*
X136059851Y-93482785D01*
X136116212Y-93631394D01*
X136206499Y-93762198D01*
X136206503Y-93762202D01*
X136325468Y-93867597D01*
X136325470Y-93867599D01*
X136466205Y-93941462D01*
X136466207Y-93941463D01*
X136620529Y-93979500D01*
X136779471Y-93979500D01*
X136933793Y-93941463D01*
X137074529Y-93867599D01*
X137193498Y-93762201D01*
X137283787Y-93631395D01*
X137340149Y-93482782D01*
X137349257Y-93407774D01*
X137359307Y-93325003D01*
X137359307Y-93324996D01*
X137350200Y-93249996D01*
X139840693Y-93249996D01*
X139840693Y-93250003D01*
X139859849Y-93407774D01*
X139859851Y-93407785D01*
X139916212Y-93556394D01*
X140006499Y-93687198D01*
X140006503Y-93687202D01*
X140125468Y-93792597D01*
X140125470Y-93792599D01*
X140266205Y-93866462D01*
X140266207Y-93866463D01*
X140420529Y-93904500D01*
X140579471Y-93904500D01*
X140733793Y-93866463D01*
X140874529Y-93792599D01*
X140993498Y-93687201D01*
X141083787Y-93556395D01*
X141140149Y-93407782D01*
X141150200Y-93325003D01*
X141159307Y-93250003D01*
X141159307Y-93249996D01*
X141140150Y-93092225D01*
X141140148Y-93092214D01*
X141083787Y-92943605D01*
X140993500Y-92812801D01*
X140993496Y-92812797D01*
X140874531Y-92707402D01*
X140874529Y-92707400D01*
X140733794Y-92633537D01*
X140579474Y-92595500D01*
X140579471Y-92595500D01*
X140420529Y-92595500D01*
X140420525Y-92595500D01*
X140266205Y-92633537D01*
X140125470Y-92707400D01*
X140125468Y-92707402D01*
X140006503Y-92812797D01*
X140006499Y-92812801D01*
X139916212Y-92943605D01*
X139859851Y-93092214D01*
X139859849Y-93092225D01*
X139840693Y-93249996D01*
X137350200Y-93249996D01*
X137340150Y-93167225D01*
X137340148Y-93167214D01*
X137283787Y-93018605D01*
X137193500Y-92887801D01*
X137193496Y-92887797D01*
X137074531Y-92782402D01*
X137074529Y-92782400D01*
X136933794Y-92708537D01*
X136779474Y-92670500D01*
X136779471Y-92670500D01*
X136620529Y-92670500D01*
X136620525Y-92670500D01*
X136466205Y-92708537D01*
X136325470Y-92782400D01*
X136325468Y-92782402D01*
X136206503Y-92887797D01*
X136206499Y-92887801D01*
X136116212Y-93018605D01*
X136059851Y-93167214D01*
X136059849Y-93167225D01*
X136040693Y-93324996D01*
X129631500Y-93324996D01*
X129631500Y-93006999D01*
X129649806Y-92962805D01*
X129694000Y-92944499D01*
X130600032Y-92944499D01*
X130606158Y-92944800D01*
X130649999Y-92949118D01*
X130649999Y-92949117D01*
X130650000Y-92949118D01*
X130837115Y-92930689D01*
X131017039Y-92876109D01*
X131182857Y-92787477D01*
X131328199Y-92668199D01*
X131417579Y-92559288D01*
X149940693Y-92559288D01*
X149940693Y-92559295D01*
X149959849Y-92717066D01*
X149959851Y-92717077D01*
X150016212Y-92865686D01*
X150106499Y-92996490D01*
X150106503Y-92996494D01*
X150225468Y-93101889D01*
X150225470Y-93101891D01*
X150349933Y-93167214D01*
X150366207Y-93175755D01*
X150520529Y-93213792D01*
X150679471Y-93213792D01*
X150833793Y-93175755D01*
X150843190Y-93170823D01*
X154730315Y-93170823D01*
X154730315Y-93170830D01*
X154749471Y-93328601D01*
X154749473Y-93328612D01*
X154805834Y-93477221D01*
X154896121Y-93608025D01*
X154896125Y-93608029D01*
X155015090Y-93713424D01*
X155015092Y-93713426D01*
X155155827Y-93787289D01*
X155155829Y-93787290D01*
X155310151Y-93825327D01*
X155469093Y-93825327D01*
X155623415Y-93787290D01*
X155764151Y-93713426D01*
X155883120Y-93608028D01*
X155973409Y-93477222D01*
X156029771Y-93328609D01*
X156030210Y-93324996D01*
X156048929Y-93170830D01*
X156048929Y-93170823D01*
X156029772Y-93013052D01*
X156029770Y-93013041D01*
X155973409Y-92864432D01*
X155883122Y-92733628D01*
X155883118Y-92733624D01*
X155764153Y-92628229D01*
X155764151Y-92628227D01*
X155623416Y-92554364D01*
X155469096Y-92516327D01*
X155469093Y-92516327D01*
X155310151Y-92516327D01*
X155310147Y-92516327D01*
X155155827Y-92554364D01*
X155015092Y-92628227D01*
X155015090Y-92628229D01*
X154896125Y-92733624D01*
X154896121Y-92733628D01*
X154805834Y-92864432D01*
X154749473Y-93013041D01*
X154749471Y-93013052D01*
X154730315Y-93170823D01*
X150843190Y-93170823D01*
X150974529Y-93101891D01*
X151093498Y-92996493D01*
X151183787Y-92865687D01*
X151240149Y-92717074D01*
X151246083Y-92668200D01*
X151259307Y-92559295D01*
X151259307Y-92559288D01*
X151240150Y-92401517D01*
X151240148Y-92401506D01*
X151183787Y-92252897D01*
X151093500Y-92122093D01*
X151093496Y-92122089D01*
X150974531Y-92016694D01*
X150974529Y-92016692D01*
X150833794Y-91942829D01*
X150679474Y-91904792D01*
X150679471Y-91904792D01*
X150520529Y-91904792D01*
X150520525Y-91904792D01*
X150366205Y-91942829D01*
X150225470Y-92016692D01*
X150225468Y-92016694D01*
X150106503Y-92122089D01*
X150106499Y-92122093D01*
X150016212Y-92252897D01*
X149959851Y-92401506D01*
X149959849Y-92401517D01*
X149940693Y-92559288D01*
X131417579Y-92559288D01*
X131447477Y-92522857D01*
X131536109Y-92357039D01*
X131590689Y-92177115D01*
X131609118Y-91990000D01*
X131590689Y-91802885D01*
X131536109Y-91622961D01*
X131447477Y-91457143D01*
X131328199Y-91311801D01*
X131182857Y-91192523D01*
X131182855Y-91192521D01*
X131182851Y-91192519D01*
X131017042Y-91103892D01*
X130837113Y-91049310D01*
X130650000Y-91030882D01*
X130606167Y-91035199D01*
X130600041Y-91035500D01*
X129694000Y-91035500D01*
X129649806Y-91017194D01*
X129631500Y-90973000D01*
X129631500Y-90499997D01*
X133198683Y-90499997D01*
X133198683Y-90500002D01*
X133217467Y-90642684D01*
X133217468Y-90642689D01*
X133217469Y-90642691D01*
X133272545Y-90775659D01*
X133360160Y-90889840D01*
X133474341Y-90977455D01*
X133607309Y-91032531D01*
X133607313Y-91032531D01*
X133607315Y-91032532D01*
X133749997Y-91051317D01*
X133750000Y-91051317D01*
X133750003Y-91051317D01*
X133892684Y-91032532D01*
X133892684Y-91032531D01*
X133892691Y-91032531D01*
X134025659Y-90977455D01*
X134139840Y-90889840D01*
X134227455Y-90775659D01*
X134282531Y-90642691D01*
X134301317Y-90500000D01*
X134301317Y-90499997D01*
X161448683Y-90499997D01*
X161448683Y-90500002D01*
X161467467Y-90642684D01*
X161467468Y-90642689D01*
X161467469Y-90642691D01*
X161522545Y-90775659D01*
X161610160Y-90889840D01*
X161724341Y-90977455D01*
X161857309Y-91032531D01*
X161857313Y-91032531D01*
X161857315Y-91032532D01*
X161999997Y-91051317D01*
X162000000Y-91051317D01*
X162000003Y-91051317D01*
X162142684Y-91032532D01*
X162142684Y-91032531D01*
X162142691Y-91032531D01*
X162275659Y-90977455D01*
X162389840Y-90889840D01*
X162477455Y-90775659D01*
X162532531Y-90642691D01*
X162551317Y-90500000D01*
X162546972Y-90466999D01*
X162532532Y-90357315D01*
X162532531Y-90357313D01*
X162532531Y-90357309D01*
X162477455Y-90224342D01*
X162389840Y-90110160D01*
X162389838Y-90110159D01*
X162389838Y-90110158D01*
X162336706Y-90069388D01*
X162275659Y-90022545D01*
X162142691Y-89967469D01*
X162142689Y-89967468D01*
X162142684Y-89967467D01*
X162000003Y-89948683D01*
X161999997Y-89948683D01*
X161857315Y-89967467D01*
X161857309Y-89967469D01*
X161724341Y-90022545D01*
X161610159Y-90110159D01*
X161522545Y-90224341D01*
X161467469Y-90357309D01*
X161467467Y-90357315D01*
X161448683Y-90499997D01*
X134301317Y-90499997D01*
X134296972Y-90466999D01*
X134282532Y-90357315D01*
X134282531Y-90357313D01*
X134282531Y-90357309D01*
X134227455Y-90224342D01*
X134139840Y-90110160D01*
X134139838Y-90110159D01*
X134139838Y-90110158D01*
X134086706Y-90069388D01*
X134025659Y-90022545D01*
X133892691Y-89967469D01*
X133892689Y-89967468D01*
X133892684Y-89967467D01*
X133750003Y-89948683D01*
X133749997Y-89948683D01*
X133607315Y-89967467D01*
X133607309Y-89967469D01*
X133474341Y-90022545D01*
X133360159Y-90110159D01*
X133272545Y-90224341D01*
X133217469Y-90357309D01*
X133217467Y-90357315D01*
X133198683Y-90499997D01*
X129631500Y-90499997D01*
X129631500Y-90466999D01*
X129649806Y-90422805D01*
X129694000Y-90404499D01*
X130600032Y-90404499D01*
X130606158Y-90404800D01*
X130649999Y-90409118D01*
X130649999Y-90409117D01*
X130650000Y-90409118D01*
X130837115Y-90390689D01*
X131017039Y-90336109D01*
X131182857Y-90247477D01*
X131328199Y-90128199D01*
X131447477Y-89982857D01*
X131536109Y-89817039D01*
X131590689Y-89637115D01*
X131609118Y-89450000D01*
X131590689Y-89262885D01*
X131536109Y-89082961D01*
X131536107Y-89082957D01*
X131447480Y-88917148D01*
X131447478Y-88917146D01*
X131447477Y-88917143D01*
X131328199Y-88771801D01*
X131284839Y-88736217D01*
X131182862Y-88652527D01*
X131182860Y-88652526D01*
X131182857Y-88652523D01*
X131182855Y-88652521D01*
X131182851Y-88652519D01*
X131017042Y-88563892D01*
X130837113Y-88509310D01*
X130650000Y-88490882D01*
X130606167Y-88495199D01*
X130600041Y-88495500D01*
X129694000Y-88495500D01*
X129649806Y-88477194D01*
X129631500Y-88433000D01*
X129631500Y-88250000D01*
X132490724Y-88250000D01*
X132509760Y-88418950D01*
X132509761Y-88418954D01*
X132560476Y-88563891D01*
X132565917Y-88579439D01*
X132565919Y-88579443D01*
X132656372Y-88723398D01*
X132776599Y-88843625D01*
X132920554Y-88934078D01*
X132920557Y-88934079D01*
X132920561Y-88934082D01*
X133081044Y-88990237D01*
X133249998Y-89009274D01*
X133418952Y-88990237D01*
X133579435Y-88934082D01*
X133723398Y-88843624D01*
X133830805Y-88736217D01*
X133874999Y-88717911D01*
X133919193Y-88736217D01*
X134026601Y-88843625D01*
X134170556Y-88934078D01*
X134170559Y-88934079D01*
X134170563Y-88934082D01*
X134331046Y-88990237D01*
X134500000Y-89009274D01*
X134668954Y-88990237D01*
X134829437Y-88934082D01*
X134973400Y-88843624D01*
X135080806Y-88736218D01*
X135125000Y-88717912D01*
X135169194Y-88736218D01*
X135276601Y-88843625D01*
X135420556Y-88934078D01*
X135420559Y-88934079D01*
X135420563Y-88934082D01*
X135581046Y-88990237D01*
X135750000Y-89009274D01*
X135918954Y-88990237D01*
X136079437Y-88934082D01*
X136223400Y-88843624D01*
X136343624Y-88723400D01*
X136434082Y-88579437D01*
X136490237Y-88418954D01*
X136509274Y-88250000D01*
X159240724Y-88250000D01*
X159259760Y-88418950D01*
X159259761Y-88418954D01*
X159310476Y-88563891D01*
X159315917Y-88579439D01*
X159315919Y-88579443D01*
X159406372Y-88723398D01*
X159526599Y-88843625D01*
X159670554Y-88934078D01*
X159670557Y-88934079D01*
X159670561Y-88934082D01*
X159831044Y-88990237D01*
X159999998Y-89009274D01*
X160168952Y-88990237D01*
X160329435Y-88934082D01*
X160473398Y-88843624D01*
X160580805Y-88736217D01*
X160624999Y-88717911D01*
X160669193Y-88736217D01*
X160776601Y-88843625D01*
X160920556Y-88934078D01*
X160920559Y-88934079D01*
X160920563Y-88934082D01*
X161081046Y-88990237D01*
X161250000Y-89009274D01*
X161418954Y-88990237D01*
X161579437Y-88934082D01*
X161723400Y-88843624D01*
X161830806Y-88736218D01*
X161875000Y-88717912D01*
X161919194Y-88736218D01*
X162026601Y-88843625D01*
X162170556Y-88934078D01*
X162170559Y-88934079D01*
X162170563Y-88934082D01*
X162331046Y-88990237D01*
X162500000Y-89009274D01*
X162668954Y-88990237D01*
X162829437Y-88934082D01*
X162973400Y-88843624D01*
X163093624Y-88723400D01*
X163184082Y-88579437D01*
X163240237Y-88418954D01*
X163259274Y-88250000D01*
X163240237Y-88081046D01*
X163184082Y-87920563D01*
X163097072Y-87782088D01*
X163093625Y-87776601D01*
X162973398Y-87656374D01*
X162829443Y-87565921D01*
X162829439Y-87565919D01*
X162829438Y-87565918D01*
X162829437Y-87565918D01*
X162668954Y-87509763D01*
X162668950Y-87509762D01*
X162500000Y-87490726D01*
X162331049Y-87509762D01*
X162331045Y-87509763D01*
X162170560Y-87565919D01*
X162170556Y-87565921D01*
X162026601Y-87656374D01*
X162026600Y-87656375D01*
X161919194Y-87763782D01*
X161875000Y-87782088D01*
X161830806Y-87763782D01*
X161723398Y-87656374D01*
X161579443Y-87565921D01*
X161579439Y-87565919D01*
X161579438Y-87565918D01*
X161579437Y-87565918D01*
X161418954Y-87509763D01*
X161418950Y-87509762D01*
X161250000Y-87490726D01*
X161081049Y-87509762D01*
X161081045Y-87509763D01*
X160920560Y-87565919D01*
X160920556Y-87565921D01*
X160776601Y-87656374D01*
X160776600Y-87656375D01*
X160669193Y-87763783D01*
X160624999Y-87782089D01*
X160580805Y-87763783D01*
X160473396Y-87656374D01*
X160329441Y-87565921D01*
X160329437Y-87565919D01*
X160329436Y-87565918D01*
X160329435Y-87565918D01*
X160168952Y-87509763D01*
X160168948Y-87509762D01*
X159999998Y-87490726D01*
X159831047Y-87509762D01*
X159831043Y-87509763D01*
X159670558Y-87565919D01*
X159670554Y-87565921D01*
X159526599Y-87656374D01*
X159406372Y-87776601D01*
X159315919Y-87920556D01*
X159315917Y-87920560D01*
X159259761Y-88081045D01*
X159259760Y-88081049D01*
X159240724Y-88250000D01*
X136509274Y-88250000D01*
X136490237Y-88081046D01*
X136434082Y-87920563D01*
X136347072Y-87782088D01*
X136343625Y-87776601D01*
X136223398Y-87656374D01*
X136079443Y-87565921D01*
X136079439Y-87565919D01*
X136079438Y-87565918D01*
X136079437Y-87565918D01*
X135918954Y-87509763D01*
X135918950Y-87509762D01*
X135750000Y-87490726D01*
X135581049Y-87509762D01*
X135581045Y-87509763D01*
X135420560Y-87565919D01*
X135420556Y-87565921D01*
X135276601Y-87656374D01*
X135276600Y-87656375D01*
X135169194Y-87763782D01*
X135125000Y-87782088D01*
X135080806Y-87763782D01*
X134973398Y-87656374D01*
X134829443Y-87565921D01*
X134829439Y-87565919D01*
X134829438Y-87565918D01*
X134829437Y-87565918D01*
X134668954Y-87509763D01*
X134668950Y-87509762D01*
X134500000Y-87490726D01*
X134331049Y-87509762D01*
X134331045Y-87509763D01*
X134170560Y-87565919D01*
X134170556Y-87565921D01*
X134026601Y-87656374D01*
X134026600Y-87656375D01*
X133919193Y-87763783D01*
X133874999Y-87782089D01*
X133830805Y-87763783D01*
X133723396Y-87656374D01*
X133579441Y-87565921D01*
X133579437Y-87565919D01*
X133579436Y-87565918D01*
X133579435Y-87565918D01*
X133418952Y-87509763D01*
X133418948Y-87509762D01*
X133249998Y-87490726D01*
X133081047Y-87509762D01*
X133081043Y-87509763D01*
X132920558Y-87565919D01*
X132920554Y-87565921D01*
X132776599Y-87656374D01*
X132656372Y-87776601D01*
X132565919Y-87920556D01*
X132565917Y-87920560D01*
X132509761Y-88081045D01*
X132509760Y-88081049D01*
X132490724Y-88250000D01*
X129631500Y-88250000D01*
X129631500Y-76194000D01*
X129649806Y-76149806D01*
X129694000Y-76131500D01*
X146858000Y-76131500D01*
X146902194Y-76149806D01*
G37*
%TD.AperFunction*%
%TD*%
M02*
