  0
SECTION
  2
HEADER
  9
$ANGBASE
  50
0.0
  9
$ANGDIR
  70
1
  9
$MEASUREMENT
  70
1
  0
ENDSEC
  0
SECTION
  2
TABLES
  0
TABLE
  2
LTYPE
  70
4
  0
LTYPE
  5
40F
  2
CONTINUOUS
  70
0
  3
Solid line
  72
65
  73
0
  40
0.0
  0
LTYPE
  5
410
  2
DASHDOT
 70
0
  3
Dash Dot ____ _ ____ _
 72
65
 73
4
 40
2.0
 49
1.25
 49
-0.25
 49
0.25
 49
-0.25
  0
LTYPE
  5
411
  2
DASHED
 70
0
  3
Dashed __ __ __ __ __
 72
65
 73
2
 40
0.75
 49
0.5
 49
-0.25
  0
LTYPE
  5
43B
  2
DOTTED
 70
0
  3
Dotted .  .  .  .
 72
65
 73
2
 40
0.2
 49
0.0
 49
-0.2
  0
ENDTAB
  0
TABLE
  2
STYLE
  70
4
  0
STYLE
  2
KICAD
  70
0
  40
0
  41
1
  42
1
  50
0
  71
0
  3
isocp.shx
  0
STYLE
  2
KICADB
  70
0
  40
0
  41
1
  42
1
  50
0
  71
0
  3
isocp.shx
  0
STYLE
  2
KICADI
  70
0
  40
0
  41
1
  42
1
  50
15
  71
0
  3
isocp.shx
  0
STYLE
  2
KICADBI
  70
0
  40
0
  41
1
  42
1
  50
15
  71
0
  3
isocp.shx
  0
ENDTAB
  0
TABLE
  2
LAYER
  70
1
  0
LAYER
  2
BLACK
  70
0
  62
7
  6
CONTINUOUS
  0
ENDTAB
  0
ENDSEC
  0
SECTION
  2
ENTITIES
0
LINE
8
BLACK
6
CONTINUOUS
10
0
20
-2
11
0
21
-58.0058
0
LINE
8
BLACK
6
CONTINUOUS
10
36.565
20
0
11
35.275
21
-0.898996
0
LINE
8
BLACK
6
CONTINUOUS
10
1.99421
20
-60.0058
11
57.9958
21
-60
0
ARC
8
BLACK
10
57.9958
20
-58
40
1.99999
50
-90.0004
51
-0
0
ARC
8
BLACK
10
57.9958
20
-1.9942
40
1.99999
50
-0.000401073
51
90.0004
0
ARC
8
BLACK
10
1.99998
20
-1.99998
40
1.99998
50
-270.001
51
-179.999
0
LINE
8
BLACK
6
CONTINUOUS
10
59.9958
20
-1.99421
11
59.9958
21
-58
0
LINE
8
BLACK
6
CONTINUOUS
10
35.275
20
-0.898996
11
24.48
21
-0.898996
0
ARC
8
BLACK
10
1.9942
20
-58.0058
40
1.99999
50
-180
51
-89.9997
0
LINE
8
BLACK
6
CONTINUOUS
10
24.48
20
-0.898996
11
23.2
21
0
0
LINE
8
BLACK
6
CONTINUOUS
10
23.2
20
0
11
2
21
0
0
LINE
8
BLACK
6
CONTINUOUS
10
57.9958
20
0.005786
11
36.565
21
0
0
LINE
8
BLACK
6
CONTINUOUS
10
26.6725
20
-6.119
11
27.3225
21
-6.769
0
LINE
8
BLACK
6
CONTINUOUS
10
27.3225
20
-6.119
11
26.6725
21
-6.769
0
LINE
8
BLACK
6
CONTINUOUS
10
32.4525
20
-6.119
11
33.1025
21
-6.769
0
LINE
8
BLACK
6
CONTINUOUS
10
33.1025
20
-6.119
11
32.4525
21
-6.769
0
LINE
8
BLACK
6
CONTINUOUS
10
2.55198
20
-63.1706
11
2.55198
21
-61.1706
0
LINE
8
BLACK
6
CONTINUOUS
10
2.55198
20
-61.1706
11
3.02817
21
-61.1706
0
LINE
8
BLACK
6
CONTINUOUS
10
3.02817
20
-61.1706
11
3.31389
21
-61.2659
0
LINE
8
BLACK
6
CONTINUOUS
10
3.31389
20
-61.2659
11
3.50436
21
-61.4563
0
LINE
8
BLACK
6
CONTINUOUS
10
3.50436
20
-61.4563
11
3.5996
21
-61.6468
0
LINE
8
BLACK
6
CONTINUOUS
10
3.5996
20
-61.6468
11
3.69484
21
-62.0278
0
LINE
8
BLACK
6
CONTINUOUS
10
3.69484
20
-62.0278
11
3.69484
21
-62.3135
0
LINE
8
BLACK
6
CONTINUOUS
10
3.69484
20
-62.3135
11
3.5996
21
-62.6944
0
LINE
8
BLACK
6
CONTINUOUS
10
3.5996
20
-62.6944
11
3.50436
21
-62.8849
0
LINE
8
BLACK
6
CONTINUOUS
10
3.50436
20
-62.8849
11
3.31389
21
-63.0754
0
LINE
8
BLACK
6
CONTINUOUS
10
3.31389
20
-63.0754
11
3.02817
21
-63.1706
0
LINE
8
BLACK
6
CONTINUOUS
10
3.02817
20
-63.1706
11
2.55198
21
-63.1706
0
LINE
8
BLACK
6
CONTINUOUS
10
4.55198
20
-63.1706
11
4.55198
21
-61.8373
0
LINE
8
BLACK
6
CONTINUOUS
10
4.55198
20
-62.2182
11
4.64722
21
-62.0278
0
LINE
8
BLACK
6
CONTINUOUS
10
4.64722
20
-62.0278
11
4.74246
21
-61.9325
0
LINE
8
BLACK
6
CONTINUOUS
10
4.74246
20
-61.9325
11
4.93293
21
-61.8373
0
LINE
8
BLACK
6
CONTINUOUS
10
4.93293
20
-61.8373
11
5.12341
21
-61.8373
0
LINE
8
BLACK
6
CONTINUOUS
10
5.79008
20
-63.1706
11
5.79008
21
-61.8373
0
LINE
8
BLACK
6
CONTINUOUS
10
5.79008
20
-61.1706
11
5.69484
21
-61.2659
0
LINE
8
BLACK
6
CONTINUOUS
10
5.69484
20
-61.2659
11
5.79008
21
-61.3611
0
LINE
8
BLACK
6
CONTINUOUS
10
5.79008
20
-61.3611
11
5.88531
21
-61.2659
0
LINE
8
BLACK
6
CONTINUOUS
10
5.88531
20
-61.2659
11
5.79008
21
-61.1706
0
LINE
8
BLACK
6
CONTINUOUS
10
5.79008
20
-61.1706
11
5.79008
21
-61.3611
0
LINE
8
BLACK
6
CONTINUOUS
10
7.02817
20
-63.1706
11
6.8377
21
-63.0754
0
LINE
8
BLACK
6
CONTINUOUS
10
6.8377
20
-63.0754
11
6.74246
21
-62.8849
0
LINE
8
BLACK
6
CONTINUOUS
10
6.74246
20
-62.8849
11
6.74246
21
-61.1706
0
LINE
8
BLACK
6
CONTINUOUS
10
8.07579
20
-63.1706
11
7.88531
21
-63.0754
0
LINE
8
BLACK
6
CONTINUOUS
10
7.88531
20
-63.0754
11
7.79008
21
-62.8849
0
LINE
8
BLACK
6
CONTINUOUS
10
7.79008
20
-62.8849
11
7.79008
21
-61.1706
0
LINE
8
BLACK
6
CONTINUOUS
10
10.3615
20
-63.1706
11
10.3615
21
-61.1706
0
LINE
8
BLACK
6
CONTINUOUS
10
10.3615
20
-61.1706
11
11.0282
21
-62.5992
0
LINE
8
BLACK
6
CONTINUOUS
10
11.0282
20
-62.5992
11
11.6948
21
-61.1706
0
LINE
8
BLACK
6
CONTINUOUS
10
11.6948
20
-61.1706
11
11.6948
21
-63.1706
0
LINE
8
BLACK
6
CONTINUOUS
10
13.5044
20
-63.1706
11
13.5044
21
-62.123
0
LINE
8
BLACK
6
CONTINUOUS
10
13.5044
20
-62.123
11
13.4091
21
-61.9325
0
LINE
8
BLACK
6
CONTINUOUS
10
13.4091
20
-61.9325
11
13.2186
21
-61.8373
0
LINE
8
BLACK
6
CONTINUOUS
10
13.2186
20
-61.8373
11
12.8377
21
-61.8373
0
LINE
8
BLACK
6
CONTINUOUS
10
12.8377
20
-61.8373
11
12.6472
21
-61.9325
0
LINE
8
BLACK
6
CONTINUOUS
10
13.5044
20
-63.0754
11
13.3139
21
-63.1706
0
LINE
8
BLACK
6
CONTINUOUS
10
13.3139
20
-63.1706
11
12.8377
21
-63.1706
0
LINE
8
BLACK
6
CONTINUOUS
10
12.8377
20
-63.1706
11
12.6472
21
-63.0754
0
LINE
8
BLACK
6
CONTINUOUS
10
12.6472
20
-63.0754
11
12.552
21
-62.8849
0
LINE
8
BLACK
6
CONTINUOUS
10
12.552
20
-62.8849
11
12.552
21
-62.6944
0
LINE
8
BLACK
6
CONTINUOUS
10
12.552
20
-62.6944
11
12.6472
21
-62.504
0
LINE
8
BLACK
6
CONTINUOUS
10
12.6472
20
-62.504
11
12.8377
21
-62.4087
0
LINE
8
BLACK
6
CONTINUOUS
10
12.8377
20
-62.4087
11
13.3139
21
-62.4087
0
LINE
8
BLACK
6
CONTINUOUS
10
13.3139
20
-62.4087
11
13.5044
21
-62.3135
0
LINE
8
BLACK
6
CONTINUOUS
10
14.4567
20
-61.8373
11
14.4567
21
-63.8373
0
LINE
8
BLACK
6
CONTINUOUS
10
14.4567
20
-61.9325
11
14.6472
21
-61.8373
0
LINE
8
BLACK
6
CONTINUOUS
10
14.6472
20
-61.8373
11
15.0282
21
-61.8373
0
LINE
8
BLACK
6
CONTINUOUS
10
15.0282
20
-61.8373
11
15.2186
21
-61.9325
0
LINE
8
BLACK
6
CONTINUOUS
10
15.2186
20
-61.9325
11
15.3139
21
-62.0278
0
LINE
8
BLACK
6
CONTINUOUS
10
15.3139
20
-62.0278
11
15.4091
21
-62.2182
0
LINE
8
BLACK
6
CONTINUOUS
10
15.4091
20
-62.2182
11
15.4091
21
-62.7897
0
LINE
8
BLACK
6
CONTINUOUS
10
15.4091
20
-62.7897
11
15.3139
21
-62.9801
0
LINE
8
BLACK
6
CONTINUOUS
10
15.3139
20
-62.9801
11
15.2186
21
-63.0754
0
LINE
8
BLACK
6
CONTINUOUS
10
15.2186
20
-63.0754
11
15.0282
21
-63.1706
0
LINE
8
BLACK
6
CONTINUOUS
10
15.0282
20
-63.1706
11
14.6472
21
-63.1706
0
LINE
8
BLACK
6
CONTINUOUS
10
14.6472
20
-63.1706
11
14.4567
21
-63.0754
0
LINE
8
BLACK
6
CONTINUOUS
10
16.2663
20
-62.9801
11
16.3615
21
-63.0754
0
LINE
8
BLACK
6
CONTINUOUS
10
16.3615
20
-63.0754
11
16.2663
21
-63.1706
0
LINE
8
BLACK
6
CONTINUOUS
10
16.2663
20
-63.1706
11
16.171
21
-63.0754
0
LINE
8
BLACK
6
CONTINUOUS
10
16.171
20
-63.0754
11
16.2663
21
-62.9801
0
LINE
8
BLACK
6
CONTINUOUS
10
16.2663
20
-62.9801
11
16.2663
21
-63.1706
0
LINE
8
BLACK
6
CONTINUOUS
10
16.2663
20
-61.9325
11
16.3615
21
-62.0278
0
LINE
8
BLACK
6
CONTINUOUS
10
16.3615
20
-62.0278
11
16.2663
21
-62.123
0
LINE
8
BLACK
6
CONTINUOUS
10
16.2663
20
-62.123
11
16.171
21
-62.0278
0
LINE
8
BLACK
6
CONTINUOUS
10
16.171
20
-62.0278
11
16.2663
21
-61.9325
0
LINE
8
BLACK
6
CONTINUOUS
10
16.2663
20
-61.9325
11
16.2663
21
-62.123
0
LINE
8
BLACK
6
CONTINUOUS
10
-0.705786
20
-66.1308
11
-0.055786
21
-66.7808
0
LINE
8
BLACK
6
CONTINUOUS
10
-0.055786
20
-66.1308
11
-0.705786
21
-66.7808
0
LINE
8
BLACK
6
CONTINUOUS
10
2.93293
20
-65.3706
11
3.12341
21
-65.3706
0
LINE
8
BLACK
6
CONTINUOUS
10
3.12341
20
-65.3706
11
3.31389
21
-65.4659
0
LINE
8
BLACK
6
CONTINUOUS
10
3.31389
20
-65.4659
11
3.40912
21
-65.5611
0
LINE
8
BLACK
6
CONTINUOUS
10
3.40912
20
-65.5611
11
3.50436
21
-65.7516
0
LINE
8
BLACK
6
CONTINUOUS
10
3.50436
20
-65.7516
11
3.5996
21
-66.1325
0
LINE
8
BLACK
6
CONTINUOUS
10
3.5996
20
-66.1325
11
3.5996
21
-66.6087
0
LINE
8
BLACK
6
CONTINUOUS
10
3.5996
20
-66.6087
11
3.50436
21
-66.9897
0
LINE
8
BLACK
6
CONTINUOUS
10
3.50436
20
-66.9897
11
3.40912
21
-67.1801
0
LINE
8
BLACK
6
CONTINUOUS
10
3.40912
20
-67.1801
11
3.31389
21
-67.2754
0
LINE
8
BLACK
6
CONTINUOUS
10
3.31389
20
-67.2754
11
3.12341
21
-67.3706
0
LINE
8
BLACK
6
CONTINUOUS
10
3.12341
20
-67.3706
11
2.93293
21
-67.3706
0
LINE
8
BLACK
6
CONTINUOUS
10
2.93293
20
-67.3706
11
2.74246
21
-67.2754
0
LINE
8
BLACK
6
CONTINUOUS
10
2.74246
20
-67.2754
11
2.64722
21
-67.1801
0
LINE
8
BLACK
6
CONTINUOUS
10
2.64722
20
-67.1801
11
2.55198
21
-66.9897
0
LINE
8
BLACK
6
CONTINUOUS
10
2.55198
20
-66.9897
11
2.45674
21
-66.6087
0
LINE
8
BLACK
6
CONTINUOUS
10
2.45674
20
-66.6087
11
2.45674
21
-66.1325
0
LINE
8
BLACK
6
CONTINUOUS
10
2.45674
20
-66.1325
11
2.55198
21
-65.7516
0
LINE
8
BLACK
6
CONTINUOUS
10
2.55198
20
-65.7516
11
2.64722
21
-65.5611
0
LINE
8
BLACK
6
CONTINUOUS
10
2.64722
20
-65.5611
11
2.74246
21
-65.4659
0
LINE
8
BLACK
6
CONTINUOUS
10
2.74246
20
-65.4659
11
2.93293
21
-65.3706
0
LINE
8
BLACK
6
CONTINUOUS
10
4.45674
20
-67.1801
11
4.55198
21
-67.2754
0
LINE
8
BLACK
6
CONTINUOUS
10
4.55198
20
-67.2754
11
4.45674
21
-67.3706
0
LINE
8
BLACK
6
CONTINUOUS
10
4.45674
20
-67.3706
11
4.36151
21
-67.2754
0
LINE
8
BLACK
6
CONTINUOUS
10
4.36151
20
-67.2754
11
4.45674
21
-67.1801
0
LINE
8
BLACK
6
CONTINUOUS
10
4.45674
20
-67.1801
11
4.45674
21
-67.3706
0
LINE
8
BLACK
6
CONTINUOUS
10
6.26627
20
-65.3706
11
5.88531
21
-65.3706
0
LINE
8
BLACK
6
CONTINUOUS
10
5.88531
20
-65.3706
11
5.69484
21
-65.4659
0
LINE
8
BLACK
6
CONTINUOUS
10
5.69484
20
-65.4659
11
5.5996
21
-65.5611
0
LINE
8
BLACK
6
CONTINUOUS
10
5.5996
20
-65.5611
11
5.40912
21
-65.8468
0
LINE
8
BLACK
6
CONTINUOUS
10
5.40912
20
-65.8468
11
5.31389
21
-66.2278
0
LINE
8
BLACK
6
CONTINUOUS
10
5.31389
20
-66.2278
11
5.31389
21
-66.9897
0
LINE
8
BLACK
6
CONTINUOUS
10
5.31389
20
-66.9897
11
5.40912
21
-67.1801
0
LINE
8
BLACK
6
CONTINUOUS
10
5.40912
20
-67.1801
11
5.50436
21
-67.2754
0
LINE
8
BLACK
6
CONTINUOUS
10
5.50436
20
-67.2754
11
5.69484
21
-67.3706
0
LINE
8
BLACK
6
CONTINUOUS
10
5.69484
20
-67.3706
11
6.07579
21
-67.3706
0
LINE
8
BLACK
6
CONTINUOUS
10
6.07579
20
-67.3706
11
6.26627
21
-67.2754
0
LINE
8
BLACK
6
CONTINUOUS
10
6.26627
20
-67.2754
11
6.36151
21
-67.1801
0
LINE
8
BLACK
6
CONTINUOUS
10
6.36151
20
-67.1801
11
6.45674
21
-66.9897
0
LINE
8
BLACK
6
CONTINUOUS
10
6.45674
20
-66.9897
11
6.45674
21
-66.5135
0
LINE
8
BLACK
6
CONTINUOUS
10
6.45674
20
-66.5135
11
6.36151
21
-66.323
0
LINE
8
BLACK
6
CONTINUOUS
10
6.36151
20
-66.323
11
6.26627
21
-66.2278
0
LINE
8
BLACK
6
CONTINUOUS
10
6.26627
20
-66.2278
11
6.07579
21
-66.1325
0
LINE
8
BLACK
6
CONTINUOUS
10
6.07579
20
-66.1325
11
5.69484
21
-66.1325
0
LINE
8
BLACK
6
CONTINUOUS
10
5.69484
20
-66.1325
11
5.50436
21
-66.2278
0
LINE
8
BLACK
6
CONTINUOUS
10
5.50436
20
-66.2278
11
5.40912
21
-66.323
0
LINE
8
BLACK
6
CONTINUOUS
10
5.40912
20
-66.323
11
5.31389
21
-66.5135
0
LINE
8
BLACK
6
CONTINUOUS
10
8.26627
20
-65.3706
11
7.31389
21
-65.3706
0
LINE
8
BLACK
6
CONTINUOUS
10
7.31389
20
-65.3706
11
7.21865
21
-66.323
0
LINE
8
BLACK
6
CONTINUOUS
10
7.21865
20
-66.323
11
7.31389
21
-66.2278
0
LINE
8
BLACK
6
CONTINUOUS
10
7.31389
20
-66.2278
11
7.50436
21
-66.1325
0
LINE
8
BLACK
6
CONTINUOUS
10
7.50436
20
-66.1325
11
7.98055
21
-66.1325
0
LINE
8
BLACK
6
CONTINUOUS
10
7.98055
20
-66.1325
11
8.17103
21
-66.2278
0
LINE
8
BLACK
6
CONTINUOUS
10
8.17103
20
-66.2278
11
8.26627
21
-66.323
0
LINE
8
BLACK
6
CONTINUOUS
10
8.26627
20
-66.323
11
8.36151
21
-66.5135
0
LINE
8
BLACK
6
CONTINUOUS
10
8.36151
20
-66.5135
11
8.36151
21
-66.9897
0
LINE
8
BLACK
6
CONTINUOUS
10
8.36151
20
-66.9897
11
8.26627
21
-67.1801
0
LINE
8
BLACK
6
CONTINUOUS
10
8.26627
20
-67.1801
11
8.17103
21
-67.2754
0
LINE
8
BLACK
6
CONTINUOUS
10
8.17103
20
-67.2754
11
7.98055
21
-67.3706
0
LINE
8
BLACK
6
CONTINUOUS
10
7.98055
20
-67.3706
11
7.50436
21
-67.3706
0
LINE
8
BLACK
6
CONTINUOUS
10
7.50436
20
-67.3706
11
7.31389
21
-67.2754
0
LINE
8
BLACK
6
CONTINUOUS
10
7.31389
20
-67.2754
11
7.21865
21
-67.1801
0
LINE
8
BLACK
6
CONTINUOUS
10
9.5996
20
-65.3706
11
9.79008
21
-65.3706
0
LINE
8
BLACK
6
CONTINUOUS
10
9.79008
20
-65.3706
11
9.98055
21
-65.4659
0
LINE
8
BLACK
6
CONTINUOUS
10
9.98055
20
-65.4659
11
10.0758
21
-65.5611
0
LINE
8
BLACK
6
CONTINUOUS
10
10.0758
20
-65.5611
11
10.171
21
-65.7516
0
LINE
8
BLACK
6
CONTINUOUS
10
10.171
20
-65.7516
11
10.2663
21
-66.1325
0
LINE
8
BLACK
6
CONTINUOUS
10
10.2663
20
-66.1325
11
10.2663
21
-66.6087
0
LINE
8
BLACK
6
CONTINUOUS
10
10.2663
20
-66.6087
11
10.171
21
-66.9897
0
LINE
8
BLACK
6
CONTINUOUS
10
10.171
20
-66.9897
11
10.0758
21
-67.1801
0
LINE
8
BLACK
6
CONTINUOUS
10
10.0758
20
-67.1801
11
9.98055
21
-67.2754
0
LINE
8
BLACK
6
CONTINUOUS
10
9.98055
20
-67.2754
11
9.79008
21
-67.3706
0
LINE
8
BLACK
6
CONTINUOUS
10
9.79008
20
-67.3706
11
9.5996
21
-67.3706
0
LINE
8
BLACK
6
CONTINUOUS
10
9.5996
20
-67.3706
11
9.40912
21
-67.2754
0
LINE
8
BLACK
6
CONTINUOUS
10
9.40912
20
-67.2754
11
9.31389
21
-67.1801
0
LINE
8
BLACK
6
CONTINUOUS
10
9.31389
20
-67.1801
11
9.21865
21
-66.9897
0
LINE
8
BLACK
6
CONTINUOUS
10
9.21865
20
-66.9897
11
9.12341
21
-66.6087
0
LINE
8
BLACK
6
CONTINUOUS
10
9.12341
20
-66.6087
11
9.12341
21
-66.1325
0
LINE
8
BLACK
6
CONTINUOUS
10
9.12341
20
-66.1325
11
9.21865
21
-65.7516
0
LINE
8
BLACK
6
CONTINUOUS
10
9.21865
20
-65.7516
11
9.31389
21
-65.5611
0
LINE
8
BLACK
6
CONTINUOUS
10
9.31389
20
-65.5611
11
9.40912
21
-65.4659
0
LINE
8
BLACK
6
CONTINUOUS
10
9.40912
20
-65.4659
11
9.5996
21
-65.3706
0
LINE
8
BLACK
6
CONTINUOUS
10
11.1234
20
-67.3706
11
11.1234
21
-66.0373
0
LINE
8
BLACK
6
CONTINUOUS
10
11.1234
20
-66.2278
11
11.2186
21
-66.1325
0
LINE
8
BLACK
6
CONTINUOUS
10
11.2186
20
-66.1325
11
11.4091
21
-66.0373
0
LINE
8
BLACK
6
CONTINUOUS
10
11.4091
20
-66.0373
11
11.6948
21
-66.0373
0
LINE
8
BLACK
6
CONTINUOUS
10
11.6948
20
-66.0373
11
11.8853
21
-66.1325
0
LINE
8
BLACK
6
CONTINUOUS
10
11.8853
20
-66.1325
11
11.9806
21
-66.323
0
LINE
8
BLACK
6
CONTINUOUS
10
11.9806
20
-66.323
11
11.9806
21
-67.3706
0
LINE
8
BLACK
6
CONTINUOUS
10
11.9806
20
-66.323
11
12.0758
21
-66.1325
0
LINE
8
BLACK
6
CONTINUOUS
10
12.0758
20
-66.1325
11
12.2663
21
-66.0373
0
LINE
8
BLACK
6
CONTINUOUS
10
12.2663
20
-66.0373
11
12.552
21
-66.0373
0
LINE
8
BLACK
6
CONTINUOUS
10
12.552
20
-66.0373
11
12.7425
21
-66.1325
0
LINE
8
BLACK
6
CONTINUOUS
10
12.7425
20
-66.1325
11
12.8377
21
-66.323
0
LINE
8
BLACK
6
CONTINUOUS
10
12.8377
20
-66.323
11
12.8377
21
-67.3706
0
LINE
8
BLACK
6
CONTINUOUS
10
13.7901
20
-67.3706
11
13.7901
21
-66.0373
0
LINE
8
BLACK
6
CONTINUOUS
10
13.7901
20
-66.2278
11
13.8853
21
-66.1325
0
LINE
8
BLACK
6
CONTINUOUS
10
13.8853
20
-66.1325
11
14.0758
21
-66.0373
0
LINE
8
BLACK
6
CONTINUOUS
10
14.0758
20
-66.0373
11
14.3615
21
-66.0373
0
LINE
8
BLACK
6
CONTINUOUS
10
14.3615
20
-66.0373
11
14.552
21
-66.1325
0
LINE
8
BLACK
6
CONTINUOUS
10
14.552
20
-66.1325
11
14.6472
21
-66.323
0
LINE
8
BLACK
6
CONTINUOUS
10
14.6472
20
-66.323
11
14.6472
21
-67.3706
0
LINE
8
BLACK
6
CONTINUOUS
10
14.6472
20
-66.323
11
14.7425
21
-66.1325
0
LINE
8
BLACK
6
CONTINUOUS
10
14.7425
20
-66.1325
11
14.9329
21
-66.0373
0
LINE
8
BLACK
6
CONTINUOUS
10
14.9329
20
-66.0373
11
15.2186
21
-66.0373
0
LINE
8
BLACK
6
CONTINUOUS
10
15.2186
20
-66.0373
11
15.4091
21
-66.1325
0
LINE
8
BLACK
6
CONTINUOUS
10
15.4091
20
-66.1325
11
15.5044
21
-66.323
0
LINE
8
BLACK
6
CONTINUOUS
10
15.5044
20
-66.323
11
15.5044
21
-67.3706
0
LINE
8
BLACK
6
CONTINUOUS
10
19.4091
20
-65.2754
11
17.6948
21
-67.8468
0
LINE
8
BLACK
6
CONTINUOUS
10
21.9806
20
-65.3706
11
22.171
21
-65.3706
0
LINE
8
BLACK
6
CONTINUOUS
10
22.171
20
-65.3706
11
22.3615
21
-65.4659
0
LINE
8
BLACK
6
CONTINUOUS
10
22.3615
20
-65.4659
11
22.4567
21
-65.5611
0
LINE
8
BLACK
6
CONTINUOUS
10
22.4567
20
-65.5611
11
22.552
21
-65.7516
0
LINE
8
BLACK
6
CONTINUOUS
10
22.552
20
-65.7516
11
22.6472
21
-66.1325
0
LINE
8
BLACK
6
CONTINUOUS
10
22.6472
20
-66.1325
11
22.6472
21
-66.6087
0
LINE
8
BLACK
6
CONTINUOUS
10
22.6472
20
-66.6087
11
22.552
21
-66.9897
0
LINE
8
BLACK
6
CONTINUOUS
10
22.552
20
-66.9897
11
22.4567
21
-67.1801
0
LINE
8
BLACK
6
CONTINUOUS
10
22.4567
20
-67.1801
11
22.3615
21
-67.2754
0
LINE
8
BLACK
6
CONTINUOUS
10
22.3615
20
-67.2754
11
22.171
21
-67.3706
0
LINE
8
BLACK
6
CONTINUOUS
10
22.171
20
-67.3706
11
21.9806
21
-67.3706
0
LINE
8
BLACK
6
CONTINUOUS
10
21.9806
20
-67.3706
11
21.7901
21
-67.2754
0
LINE
8
BLACK
6
CONTINUOUS
10
21.7901
20
-67.2754
11
21.6948
21
-67.1801
0
LINE
8
BLACK
6
CONTINUOUS
10
21.6948
20
-67.1801
11
21.5996
21
-66.9897
0
LINE
8
BLACK
6
CONTINUOUS
10
21.5996
20
-66.9897
11
21.5044
21
-66.6087
0
LINE
8
BLACK
6
CONTINUOUS
10
21.5044
20
-66.6087
11
21.5044
21
-66.1325
0
LINE
8
BLACK
6
CONTINUOUS
10
21.5044
20
-66.1325
11
21.5996
21
-65.7516
0
LINE
8
BLACK
6
CONTINUOUS
10
21.5996
20
-65.7516
11
21.6948
21
-65.5611
0
LINE
8
BLACK
6
CONTINUOUS
10
21.6948
20
-65.5611
11
21.7901
21
-65.4659
0
LINE
8
BLACK
6
CONTINUOUS
10
21.7901
20
-65.4659
11
21.9806
21
-65.3706
0
LINE
8
BLACK
6
CONTINUOUS
10
23.5044
20
-67.1801
11
23.5996
21
-67.2754
0
LINE
8
BLACK
6
CONTINUOUS
10
23.5996
20
-67.2754
11
23.5044
21
-67.3706
0
LINE
8
BLACK
6
CONTINUOUS
10
23.5044
20
-67.3706
11
23.4091
21
-67.2754
0
LINE
8
BLACK
6
CONTINUOUS
10
23.4091
20
-67.2754
11
23.5044
21
-67.1801
0
LINE
8
BLACK
6
CONTINUOUS
10
23.5044
20
-67.1801
11
23.5044
21
-67.3706
0
LINE
8
BLACK
6
CONTINUOUS
10
24.8377
20
-65.3706
11
25.0282
21
-65.3706
0
LINE
8
BLACK
6
CONTINUOUS
10
25.0282
20
-65.3706
11
25.2187
21
-65.4659
0
LINE
8
BLACK
6
CONTINUOUS
10
25.2187
20
-65.4659
11
25.3139
21
-65.5611
0
LINE
8
BLACK
6
CONTINUOUS
10
25.3139
20
-65.5611
11
25.4091
21
-65.7516
0
LINE
8
BLACK
6
CONTINUOUS
10
25.4091
20
-65.7516
11
25.5044
21
-66.1325
0
LINE
8
BLACK
6
CONTINUOUS
10
25.5044
20
-66.1325
11
25.5044
21
-66.6087
0
LINE
8
BLACK
6
CONTINUOUS
10
25.5044
20
-66.6087
11
25.4091
21
-66.9897
0
LINE
8
BLACK
6
CONTINUOUS
10
25.4091
20
-66.9897
11
25.3139
21
-67.1801
0
LINE
8
BLACK
6
CONTINUOUS
10
25.3139
20
-67.1801
11
25.2187
21
-67.2754
0
LINE
8
BLACK
6
CONTINUOUS
10
25.2187
20
-67.2754
11
25.0282
21
-67.3706
0
LINE
8
BLACK
6
CONTINUOUS
10
25.0282
20
-67.3706
11
24.8377
21
-67.3706
0
LINE
8
BLACK
6
CONTINUOUS
10
24.8377
20
-67.3706
11
24.6472
21
-67.2754
0
LINE
8
BLACK
6
CONTINUOUS
10
24.6472
20
-67.2754
11
24.552
21
-67.1801
0
LINE
8
BLACK
6
CONTINUOUS
10
24.552
20
-67.1801
11
24.4567
21
-66.9897
0
LINE
8
BLACK
6
CONTINUOUS
10
24.4567
20
-66.9897
11
24.3615
21
-66.6087
0
LINE
8
BLACK
6
CONTINUOUS
10
24.3615
20
-66.6087
11
24.3615
21
-66.1325
0
LINE
8
BLACK
6
CONTINUOUS
10
24.3615
20
-66.1325
11
24.4567
21
-65.7516
0
LINE
8
BLACK
6
CONTINUOUS
10
24.4567
20
-65.7516
11
24.552
21
-65.5611
0
LINE
8
BLACK
6
CONTINUOUS
10
24.552
20
-65.5611
11
24.6472
21
-65.4659
0
LINE
8
BLACK
6
CONTINUOUS
10
24.6472
20
-65.4659
11
24.8377
21
-65.3706
0
LINE
8
BLACK
6
CONTINUOUS
10
26.2663
20
-65.5611
11
26.3615
21
-65.4659
0
LINE
8
BLACK
6
CONTINUOUS
10
26.3615
20
-65.4659
11
26.552
21
-65.3706
0
LINE
8
BLACK
6
CONTINUOUS
10
26.552
20
-65.3706
11
27.0282
21
-65.3706
0
LINE
8
BLACK
6
CONTINUOUS
10
27.0282
20
-65.3706
11
27.2187
21
-65.4659
0
LINE
8
BLACK
6
CONTINUOUS
10
27.2187
20
-65.4659
11
27.3139
21
-65.5611
0
LINE
8
BLACK
6
CONTINUOUS
10
27.3139
20
-65.5611
11
27.4091
21
-65.7516
0
LINE
8
BLACK
6
CONTINUOUS
10
27.4091
20
-65.7516
11
27.4091
21
-65.942
0
LINE
8
BLACK
6
CONTINUOUS
10
27.4091
20
-65.942
11
27.3139
21
-66.2278
0
LINE
8
BLACK
6
CONTINUOUS
10
27.3139
20
-66.2278
11
26.171
21
-67.3706
0
LINE
8
BLACK
6
CONTINUOUS
10
26.171
20
-67.3706
11
27.4091
21
-67.3706
0
LINE
8
BLACK
6
CONTINUOUS
10
29.2187
20
-65.3706
11
28.2663
21
-65.3706
0
LINE
8
BLACK
6
CONTINUOUS
10
28.2663
20
-65.3706
11
28.171
21
-66.323
0
LINE
8
BLACK
6
CONTINUOUS
10
28.171
20
-66.323
11
28.2663
21
-66.2278
0
LINE
8
BLACK
6
CONTINUOUS
10
28.2663
20
-66.2278
11
28.4567
21
-66.1325
0
LINE
8
BLACK
6
CONTINUOUS
10
28.4567
20
-66.1325
11
28.9329
21
-66.1325
0
LINE
8
BLACK
6
CONTINUOUS
10
28.9329
20
-66.1325
11
29.1234
21
-66.2278
0
LINE
8
BLACK
6
CONTINUOUS
10
29.1234
20
-66.2278
11
29.2187
21
-66.323
0
LINE
8
BLACK
6
CONTINUOUS
10
29.2187
20
-66.323
11
29.3139
21
-66.5135
0
LINE
8
BLACK
6
CONTINUOUS
10
29.3139
20
-66.5135
11
29.3139
21
-66.9897
0
LINE
8
BLACK
6
CONTINUOUS
10
29.3139
20
-66.9897
11
29.2187
21
-67.1801
0
LINE
8
BLACK
6
CONTINUOUS
10
29.2187
20
-67.1801
11
29.1234
21
-67.2754
0
LINE
8
BLACK
6
CONTINUOUS
10
29.1234
20
-67.2754
11
28.9329
21
-67.3706
0
LINE
8
BLACK
6
CONTINUOUS
10
28.9329
20
-67.3706
11
28.4567
21
-67.3706
0
LINE
8
BLACK
6
CONTINUOUS
10
28.4567
20
-67.3706
11
28.2663
21
-67.2754
0
LINE
8
BLACK
6
CONTINUOUS
10
28.2663
20
-67.2754
11
28.171
21
-67.1801
0
LINE
8
BLACK
6
CONTINUOUS
10
31.0282
20
-65.3706
11
30.6472
21
-65.3706
0
LINE
8
BLACK
6
CONTINUOUS
10
30.6472
20
-65.3706
11
30.4567
21
-65.4659
0
LINE
8
BLACK
6
CONTINUOUS
10
30.4567
20
-65.4659
11
30.3615
21
-65.5611
0
LINE
8
BLACK
6
CONTINUOUS
10
30.3615
20
-65.5611
11
30.171
21
-65.8468
0
LINE
8
BLACK
6
CONTINUOUS
10
30.171
20
-65.8468
11
30.0758
21
-66.2278
0
LINE
8
BLACK
6
CONTINUOUS
10
30.0758
20
-66.2278
11
30.0758
21
-66.9897
0
LINE
8
BLACK
6
CONTINUOUS
10
30.0758
20
-66.9897
11
30.171
21
-67.1801
0
LINE
8
BLACK
6
CONTINUOUS
10
30.171
20
-67.1801
11
30.2663
21
-67.2754
0
LINE
8
BLACK
6
CONTINUOUS
10
30.2663
20
-67.2754
11
30.4567
21
-67.3706
0
LINE
8
BLACK
6
CONTINUOUS
10
30.4567
20
-67.3706
11
30.8377
21
-67.3706
0
LINE
8
BLACK
6
CONTINUOUS
10
30.8377
20
-67.3706
11
31.0282
21
-67.2754
0
LINE
8
BLACK
6
CONTINUOUS
10
31.0282
20
-67.2754
11
31.1234
21
-67.1801
0
LINE
8
BLACK
6
CONTINUOUS
10
31.1234
20
-67.1801
11
31.2187
21
-66.9897
0
LINE
8
BLACK
6
CONTINUOUS
10
31.2187
20
-66.9897
11
31.2187
21
-66.5135
0
LINE
8
BLACK
6
CONTINUOUS
10
31.2187
20
-66.5135
11
31.1234
21
-66.323
0
LINE
8
BLACK
6
CONTINUOUS
10
31.1234
20
-66.323
11
31.0282
21
-66.2278
0
LINE
8
BLACK
6
CONTINUOUS
10
31.0282
20
-66.2278
11
30.8377
21
-66.1325
0
LINE
8
BLACK
6
CONTINUOUS
10
30.8377
20
-66.1325
11
30.4567
21
-66.1325
0
LINE
8
BLACK
6
CONTINUOUS
10
30.4567
20
-66.1325
11
30.2663
21
-66.2278
0
LINE
8
BLACK
6
CONTINUOUS
10
30.2663
20
-66.2278
11
30.171
21
-66.323
0
LINE
8
BLACK
6
CONTINUOUS
10
30.171
20
-66.323
11
30.0758
21
-66.5135
0
LINE
8
BLACK
6
CONTINUOUS
10
31.9806
20
-65.3706
11
31.9806
21
-65.7516
0
LINE
8
BLACK
6
CONTINUOUS
10
32.7425
20
-65.3706
11
32.7425
21
-65.7516
0
LINE
8
BLACK
6
CONTINUOUS
10
35.6948
20
-68.1325
11
35.5996
21
-68.0373
0
LINE
8
BLACK
6
CONTINUOUS
10
35.5996
20
-68.0373
11
35.4091
21
-67.7516
0
LINE
8
BLACK
6
CONTINUOUS
10
35.4091
20
-67.7516
11
35.3139
21
-67.5611
0
LINE
8
BLACK
6
CONTINUOUS
10
35.3139
20
-67.5611
11
35.2187
21
-67.2754
0
LINE
8
BLACK
6
CONTINUOUS
10
35.2187
20
-67.2754
11
35.1234
21
-66.7992
0
LINE
8
BLACK
6
CONTINUOUS
10
35.1234
20
-66.7992
11
35.1234
21
-66.4182
0
LINE
8
BLACK
6
CONTINUOUS
10
35.1234
20
-66.4182
11
35.2187
21
-65.942
0
LINE
8
BLACK
6
CONTINUOUS
10
35.2187
20
-65.942
11
35.3139
21
-65.6563
0
LINE
8
BLACK
6
CONTINUOUS
10
35.3139
20
-65.6563
11
35.4091
21
-65.4659
0
LINE
8
BLACK
6
CONTINUOUS
10
35.4091
20
-65.4659
11
35.5996
21
-65.1801
0
LINE
8
BLACK
6
CONTINUOUS
10
35.5996
20
-65.1801
11
35.6948
21
-65.0849
0
LINE
8
BLACK
6
CONTINUOUS
10
36.3615
20
-65.5611
11
36.4567
21
-65.4659
0
LINE
8
BLACK
6
CONTINUOUS
10
36.4567
20
-65.4659
11
36.6472
21
-65.3706
0
LINE
8
BLACK
6
CONTINUOUS
10
36.6472
20
-65.3706
11
37.1234
21
-65.3706
0
LINE
8
BLACK
6
CONTINUOUS
10
37.1234
20
-65.3706
11
37.3139
21
-65.4659
0
LINE
8
BLACK
6
CONTINUOUS
10
37.3139
20
-65.4659
11
37.4091
21
-65.5611
0
LINE
8
BLACK
6
CONTINUOUS
10
37.4091
20
-65.5611
11
37.5044
21
-65.7516
0
LINE
8
BLACK
6
CONTINUOUS
10
37.5044
20
-65.7516
11
37.5044
21
-65.942
0
LINE
8
BLACK
6
CONTINUOUS
10
37.5044
20
-65.942
11
37.4091
21
-66.2278
0
LINE
8
BLACK
6
CONTINUOUS
10
37.4091
20
-66.2278
11
36.2663
21
-67.3706
0
LINE
8
BLACK
6
CONTINUOUS
10
36.2663
20
-67.3706
11
37.5044
21
-67.3706
0
LINE
8
BLACK
6
CONTINUOUS
10
39.8853
20
-67.3706
11
39.8853
21
-65.3706
0
LINE
8
BLACK
6
CONTINUOUS
10
40.7425
20
-67.3706
11
40.7425
21
-66.323
0
LINE
8
BLACK
6
CONTINUOUS
10
40.7425
20
-66.323
11
40.6472
21
-66.1325
0
LINE
8
BLACK
6
CONTINUOUS
10
40.6472
20
-66.1325
11
40.4567
21
-66.0373
0
LINE
8
BLACK
6
CONTINUOUS
10
40.4567
20
-66.0373
11
40.171
21
-66.0373
0
LINE
8
BLACK
6
CONTINUOUS
10
40.171
20
-66.0373
11
39.9806
21
-66.1325
0
LINE
8
BLACK
6
CONTINUOUS
10
39.9806
20
-66.1325
11
39.8853
21
-66.2278
0
LINE
8
BLACK
6
CONTINUOUS
10
41.9806
20
-67.3706
11
41.7901
21
-67.2754
0
LINE
8
BLACK
6
CONTINUOUS
10
41.7901
20
-67.2754
11
41.6948
21
-67.1801
0
LINE
8
BLACK
6
CONTINUOUS
10
41.6948
20
-67.1801
11
41.5996
21
-66.9897
0
LINE
8
BLACK
6
CONTINUOUS
10
41.5996
20
-66.9897
11
41.5996
21
-66.4182
0
LINE
8
BLACK
6
CONTINUOUS
10
41.5996
20
-66.4182
11
41.6948
21
-66.2278
0
LINE
8
BLACK
6
CONTINUOUS
10
41.6948
20
-66.2278
11
41.7901
21
-66.1325
0
LINE
8
BLACK
6
CONTINUOUS
10
41.7901
20
-66.1325
11
41.9806
21
-66.0373
0
LINE
8
BLACK
6
CONTINUOUS
10
41.9806
20
-66.0373
11
42.2663
21
-66.0373
0
LINE
8
BLACK
6
CONTINUOUS
10
42.2663
20
-66.0373
11
42.4567
21
-66.1325
0
LINE
8
BLACK
6
CONTINUOUS
10
42.4567
20
-66.1325
11
42.552
21
-66.2278
0
LINE
8
BLACK
6
CONTINUOUS
10
42.552
20
-66.2278
11
42.6472
21
-66.4182
0
LINE
8
BLACK
6
CONTINUOUS
10
42.6472
20
-66.4182
11
42.6472
21
-66.9897
0
LINE
8
BLACK
6
CONTINUOUS
10
42.6472
20
-66.9897
11
42.552
21
-67.1801
0
LINE
8
BLACK
6
CONTINUOUS
10
42.552
20
-67.1801
11
42.4567
21
-67.2754
0
LINE
8
BLACK
6
CONTINUOUS
10
42.4567
20
-67.2754
11
42.2663
21
-67.3706
0
LINE
8
BLACK
6
CONTINUOUS
10
42.2663
20
-67.3706
11
41.9806
21
-67.3706
0
LINE
8
BLACK
6
CONTINUOUS
10
43.7901
20
-67.3706
11
43.5996
21
-67.2754
0
LINE
8
BLACK
6
CONTINUOUS
10
43.5996
20
-67.2754
11
43.5044
21
-67.0849
0
LINE
8
BLACK
6
CONTINUOUS
10
43.5044
20
-67.0849
11
43.5044
21
-65.3706
0
LINE
8
BLACK
6
CONTINUOUS
10
45.3139
20
-67.2754
11
45.1234
21
-67.3706
0
LINE
8
BLACK
6
CONTINUOUS
10
45.1234
20
-67.3706
11
44.7425
21
-67.3706
0
LINE
8
BLACK
6
CONTINUOUS
10
44.7425
20
-67.3706
11
44.552
21
-67.2754
0
LINE
8
BLACK
6
CONTINUOUS
10
44.552
20
-67.2754
11
44.4567
21
-67.0849
0
LINE
8
BLACK
6
CONTINUOUS
10
44.4567
20
-67.0849
11
44.4567
21
-66.323
0
LINE
8
BLACK
6
CONTINUOUS
10
44.4567
20
-66.323
11
44.552
21
-66.1325
0
LINE
8
BLACK
6
CONTINUOUS
10
44.552
20
-66.1325
11
44.7425
21
-66.0373
0
LINE
8
BLACK
6
CONTINUOUS
10
44.7425
20
-66.0373
11
45.1234
21
-66.0373
0
LINE
8
BLACK
6
CONTINUOUS
10
45.1234
20
-66.0373
11
45.3139
21
-66.1325
0
LINE
8
BLACK
6
CONTINUOUS
10
45.3139
20
-66.1325
11
45.4091
21
-66.323
0
LINE
8
BLACK
6
CONTINUOUS
10
45.4091
20
-66.323
11
45.4091
21
-66.5135
0
LINE
8
BLACK
6
CONTINUOUS
10
45.4091
20
-66.5135
11
44.4567
21
-66.704
0
LINE
8
BLACK
6
CONTINUOUS
10
46.171
20
-67.2754
11
46.3615
21
-67.3706
0
LINE
8
BLACK
6
CONTINUOUS
10
46.3615
20
-67.3706
11
46.7425
21
-67.3706
0
LINE
8
BLACK
6
CONTINUOUS
10
46.7425
20
-67.3706
11
46.9329
21
-67.2754
0
LINE
8
BLACK
6
CONTINUOUS
10
46.9329
20
-67.2754
11
47.0282
21
-67.0849
0
LINE
8
BLACK
6
CONTINUOUS
10
47.0282
20
-67.0849
11
47.0282
21
-66.9897
0
LINE
8
BLACK
6
CONTINUOUS
10
47.0282
20
-66.9897
11
46.9329
21
-66.7992
0
LINE
8
BLACK
6
CONTINUOUS
10
46.9329
20
-66.7992
11
46.7425
21
-66.704
0
LINE
8
BLACK
6
CONTINUOUS
10
46.7425
20
-66.704
11
46.4567
21
-66.704
0
LINE
8
BLACK
6
CONTINUOUS
10
46.4567
20
-66.704
11
46.2663
21
-66.6087
0
LINE
8
BLACK
6
CONTINUOUS
10
46.2663
20
-66.6087
11
46.171
21
-66.4182
0
LINE
8
BLACK
6
CONTINUOUS
10
46.171
20
-66.4182
11
46.171
21
-66.323
0
LINE
8
BLACK
6
CONTINUOUS
10
46.171
20
-66.323
11
46.2663
21
-66.1325
0
LINE
8
BLACK
6
CONTINUOUS
10
46.2663
20
-66.1325
11
46.4567
21
-66.0373
0
LINE
8
BLACK
6
CONTINUOUS
10
46.4567
20
-66.0373
11
46.7425
21
-66.0373
0
LINE
8
BLACK
6
CONTINUOUS
10
46.7425
20
-66.0373
11
46.9329
21
-66.1325
0
LINE
8
BLACK
6
CONTINUOUS
10
47.6948
20
-68.1325
11
47.7901
21
-68.0373
0
LINE
8
BLACK
6
CONTINUOUS
10
47.7901
20
-68.0373
11
47.9806
21
-67.7516
0
LINE
8
BLACK
6
CONTINUOUS
10
47.9806
20
-67.7516
11
48.0758
21
-67.5611
0
LINE
8
BLACK
6
CONTINUOUS
10
48.0758
20
-67.5611
11
48.171
21
-67.2754
0
LINE
8
BLACK
6
CONTINUOUS
10
48.171
20
-67.2754
11
48.2663
21
-66.7992
0
LINE
8
BLACK
6
CONTINUOUS
10
48.2663
20
-66.7992
11
48.2663
21
-66.4182
0
LINE
8
BLACK
6
CONTINUOUS
10
48.2663
20
-66.4182
11
48.171
21
-65.942
0
LINE
8
BLACK
6
CONTINUOUS
10
48.171
20
-65.942
11
48.0758
21
-65.6563
0
LINE
8
BLACK
6
CONTINUOUS
10
48.0758
20
-65.6563
11
47.9806
21
-65.4659
0
LINE
8
BLACK
6
CONTINUOUS
10
47.9806
20
-65.4659
11
47.7901
21
-65.1801
0
LINE
8
BLACK
6
CONTINUOUS
10
47.7901
20
-65.1801
11
47.6948
21
-65.0849
0
LINE
8
BLACK
6
CONTINUOUS
10
51.3139
20
-68.1325
11
51.2187
21
-68.0373
0
LINE
8
BLACK
6
CONTINUOUS
10
51.2187
20
-68.0373
11
51.0282
21
-67.7516
0
LINE
8
BLACK
6
CONTINUOUS
10
51.0282
20
-67.7516
11
50.9329
21
-67.5611
0
LINE
8
BLACK
6
CONTINUOUS
10
50.9329
20
-67.5611
11
50.8377
21
-67.2754
0
LINE
8
BLACK
6
CONTINUOUS
10
50.8377
20
-67.2754
11
50.7425
21
-66.7992
0
LINE
8
BLACK
6
CONTINUOUS
10
50.7425
20
-66.7992
11
50.7425
21
-66.4182
0
LINE
8
BLACK
6
CONTINUOUS
10
50.7425
20
-66.4182
11
50.8377
21
-65.942
0
LINE
8
BLACK
6
CONTINUOUS
10
50.8377
20
-65.942
11
50.9329
21
-65.6563
0
LINE
8
BLACK
6
CONTINUOUS
10
50.9329
20
-65.6563
11
51.0282
21
-65.4659
0
LINE
8
BLACK
6
CONTINUOUS
10
51.0282
20
-65.4659
11
51.2187
21
-65.1801
0
LINE
8
BLACK
6
CONTINUOUS
10
51.2187
20
-65.1801
11
51.3139
21
-65.0849
0
LINE
8
BLACK
6
CONTINUOUS
10
52.0758
20
-66.0373
11
52.0758
21
-67.3706
0
LINE
8
BLACK
6
CONTINUOUS
10
52.0758
20
-66.2278
11
52.171
21
-66.1325
0
LINE
8
BLACK
6
CONTINUOUS
10
52.171
20
-66.1325
11
52.3615
21
-66.0373
0
LINE
8
BLACK
6
CONTINUOUS
10
52.3615
20
-66.0373
11
52.6472
21
-66.0373
0
LINE
8
BLACK
6
CONTINUOUS
10
52.6472
20
-66.0373
11
52.8377
21
-66.1325
0
LINE
8
BLACK
6
CONTINUOUS
10
52.8377
20
-66.1325
11
52.9329
21
-66.323
0
LINE
8
BLACK
6
CONTINUOUS
10
52.9329
20
-66.323
11
52.9329
21
-67.3706
0
LINE
8
BLACK
6
CONTINUOUS
10
54.171
20
-67.3706
11
53.9806
21
-67.2754
0
LINE
8
BLACK
6
CONTINUOUS
10
53.9806
20
-67.2754
11
53.8853
21
-67.1801
0
LINE
8
BLACK
6
CONTINUOUS
10
53.8853
20
-67.1801
11
53.7901
21
-66.9897
0
LINE
8
BLACK
6
CONTINUOUS
10
53.7901
20
-66.9897
11
53.7901
21
-66.4182
0
LINE
8
BLACK
6
CONTINUOUS
10
53.7901
20
-66.4182
11
53.8853
21
-66.2278
0
LINE
8
BLACK
6
CONTINUOUS
10
53.8853
20
-66.2278
11
53.9806
21
-66.1325
0
LINE
8
BLACK
6
CONTINUOUS
10
53.9806
20
-66.1325
11
54.171
21
-66.0373
0
LINE
8
BLACK
6
CONTINUOUS
10
54.171
20
-66.0373
11
54.4567
21
-66.0373
0
LINE
8
BLACK
6
CONTINUOUS
10
54.4567
20
-66.0373
11
54.6472
21
-66.1325
0
LINE
8
BLACK
6
CONTINUOUS
10
54.6472
20
-66.1325
11
54.7425
21
-66.2278
0
LINE
8
BLACK
6
CONTINUOUS
10
54.7425
20
-66.2278
11
54.8377
21
-66.4182
0
LINE
8
BLACK
6
CONTINUOUS
10
54.8377
20
-66.4182
11
54.8377
21
-66.9897
0
LINE
8
BLACK
6
CONTINUOUS
10
54.8377
20
-66.9897
11
54.7425
21
-67.1801
0
LINE
8
BLACK
6
CONTINUOUS
10
54.7425
20
-67.1801
11
54.6472
21
-67.2754
0
LINE
8
BLACK
6
CONTINUOUS
10
54.6472
20
-67.2754
11
54.4567
21
-67.3706
0
LINE
8
BLACK
6
CONTINUOUS
10
54.4567
20
-67.3706
11
54.171
21
-67.3706
0
LINE
8
BLACK
6
CONTINUOUS
10
55.4091
20
-66.0373
11
56.171
21
-66.0373
0
LINE
8
BLACK
6
CONTINUOUS
10
55.6948
20
-65.3706
11
55.6948
21
-67.0849
0
LINE
8
BLACK
6
CONTINUOUS
10
55.6948
20
-67.0849
11
55.7901
21
-67.2754
0
LINE
8
BLACK
6
CONTINUOUS
10
55.7901
20
-67.2754
11
55.9806
21
-67.3706
0
LINE
8
BLACK
6
CONTINUOUS
10
55.9806
20
-67.3706
11
56.171
21
-67.3706
0
LINE
8
BLACK
6
CONTINUOUS
10
58.3615
20
-66.0373
11
58.3615
21
-68.0373
0
LINE
8
BLACK
6
CONTINUOUS
10
58.3615
20
-66.1325
11
58.552
21
-66.0373
0
LINE
8
BLACK
6
CONTINUOUS
10
58.552
20
-66.0373
11
58.9329
21
-66.0373
0
LINE
8
BLACK
6
CONTINUOUS
10
58.9329
20
-66.0373
11
59.1234
21
-66.1325
0
LINE
8
BLACK
6
CONTINUOUS
10
59.1234
20
-66.1325
11
59.2187
21
-66.2278
0
LINE
8
BLACK
6
CONTINUOUS
10
59.2187
20
-66.2278
11
59.3139
21
-66.4182
0
LINE
8
BLACK
6
CONTINUOUS
10
59.3139
20
-66.4182
11
59.3139
21
-66.9897
0
LINE
8
BLACK
6
CONTINUOUS
10
59.3139
20
-66.9897
11
59.2187
21
-67.1801
0
LINE
8
BLACK
6
CONTINUOUS
10
59.2187
20
-67.1801
11
59.1234
21
-67.2754
0
LINE
8
BLACK
6
CONTINUOUS
10
59.1234
20
-67.2754
11
58.9329
21
-67.3706
0
LINE
8
BLACK
6
CONTINUOUS
10
58.9329
20
-67.3706
11
58.552
21
-67.3706
0
LINE
8
BLACK
6
CONTINUOUS
10
58.552
20
-67.3706
11
58.3615
21
-67.2754
0
LINE
8
BLACK
6
CONTINUOUS
10
60.4567
20
-67.3706
11
60.2663
21
-67.2754
0
LINE
8
BLACK
6
CONTINUOUS
10
60.2663
20
-67.2754
11
60.171
21
-67.0849
0
LINE
8
BLACK
6
CONTINUOUS
10
60.171
20
-67.0849
11
60.171
21
-65.3706
0
LINE
8
BLACK
6
CONTINUOUS
10
62.0758
20
-67.3706
11
62.0758
21
-66.323
0
LINE
8
BLACK
6
CONTINUOUS
10
62.0758
20
-66.323
11
61.9806
21
-66.1325
0
LINE
8
BLACK
6
CONTINUOUS
10
61.9806
20
-66.1325
11
61.7901
21
-66.0373
0
LINE
8
BLACK
6
CONTINUOUS
10
61.7901
20
-66.0373
11
61.4091
21
-66.0373
0
LINE
8
BLACK
6
CONTINUOUS
10
61.4091
20
-66.0373
11
61.2187
21
-66.1325
0
LINE
8
BLACK
6
CONTINUOUS
10
62.0758
20
-67.2754
11
61.8853
21
-67.3706
0
LINE
8
BLACK
6
CONTINUOUS
10
61.8853
20
-67.3706
11
61.4091
21
-67.3706
0
LINE
8
BLACK
6
CONTINUOUS
10
61.4091
20
-67.3706
11
61.2187
21
-67.2754
0
LINE
8
BLACK
6
CONTINUOUS
10
61.2187
20
-67.2754
11
61.1234
21
-67.0849
0
LINE
8
BLACK
6
CONTINUOUS
10
61.1234
20
-67.0849
11
61.1234
21
-66.8944
0
LINE
8
BLACK
6
CONTINUOUS
10
61.1234
20
-66.8944
11
61.2187
21
-66.704
0
LINE
8
BLACK
6
CONTINUOUS
10
61.2187
20
-66.704
11
61.4091
21
-66.6087
0
LINE
8
BLACK
6
CONTINUOUS
10
61.4091
20
-66.6087
11
61.8853
21
-66.6087
0
LINE
8
BLACK
6
CONTINUOUS
10
61.8853
20
-66.6087
11
62.0758
21
-66.5135
0
LINE
8
BLACK
6
CONTINUOUS
10
62.7425
20
-66.0373
11
63.5044
21
-66.0373
0
LINE
8
BLACK
6
CONTINUOUS
10
63.0282
20
-65.3706
11
63.0282
21
-67.0849
0
LINE
8
BLACK
6
CONTINUOUS
10
63.0282
20
-67.0849
11
63.1234
21
-67.2754
0
LINE
8
BLACK
6
CONTINUOUS
10
63.1234
20
-67.2754
11
63.3139
21
-67.3706
0
LINE
8
BLACK
6
CONTINUOUS
10
63.3139
20
-67.3706
11
63.5044
21
-67.3706
0
LINE
8
BLACK
6
CONTINUOUS
10
64.9329
20
-67.2754
11
64.7425
21
-67.3706
0
LINE
8
BLACK
6
CONTINUOUS
10
64.7425
20
-67.3706
11
64.3615
21
-67.3706
0
LINE
8
BLACK
6
CONTINUOUS
10
64.3615
20
-67.3706
11
64.171
21
-67.2754
0
LINE
8
BLACK
6
CONTINUOUS
10
64.171
20
-67.2754
11
64.0758
21
-67.0849
0
LINE
8
BLACK
6
CONTINUOUS
10
64.0758
20
-67.0849
11
64.0758
21
-66.323
0
LINE
8
BLACK
6
CONTINUOUS
10
64.0758
20
-66.323
11
64.171
21
-66.1325
0
LINE
8
BLACK
6
CONTINUOUS
10
64.171
20
-66.1325
11
64.3615
21
-66.0373
0
LINE
8
BLACK
6
CONTINUOUS
10
64.3615
20
-66.0373
11
64.7425
21
-66.0373
0
LINE
8
BLACK
6
CONTINUOUS
10
64.7425
20
-66.0373
11
64.9329
21
-66.1325
0
LINE
8
BLACK
6
CONTINUOUS
10
64.9329
20
-66.1325
11
65.0282
21
-66.323
0
LINE
8
BLACK
6
CONTINUOUS
10
65.0282
20
-66.323
11
65.0282
21
-66.5135
0
LINE
8
BLACK
6
CONTINUOUS
10
65.0282
20
-66.5135
11
64.0758
21
-66.704
0
LINE
8
BLACK
6
CONTINUOUS
10
66.7425
20
-67.3706
11
66.7425
21
-65.3706
0
LINE
8
BLACK
6
CONTINUOUS
10
66.7425
20
-67.2754
11
66.552
21
-67.3706
0
LINE
8
BLACK
6
CONTINUOUS
10
66.552
20
-67.3706
11
66.171
21
-67.3706
0
LINE
8
BLACK
6
CONTINUOUS
10
66.171
20
-67.3706
11
65.9806
21
-67.2754
0
LINE
8
BLACK
6
CONTINUOUS
10
65.9806
20
-67.2754
11
65.8853
21
-67.1801
0
LINE
8
BLACK
6
CONTINUOUS
10
65.8853
20
-67.1801
11
65.7901
21
-66.9897
0
LINE
8
BLACK
6
CONTINUOUS
10
65.7901
20
-66.9897
11
65.7901
21
-66.4182
0
LINE
8
BLACK
6
CONTINUOUS
10
65.7901
20
-66.4182
11
65.8853
21
-66.2278
0
LINE
8
BLACK
6
CONTINUOUS
10
65.8853
20
-66.2278
11
65.9806
21
-66.1325
0
LINE
8
BLACK
6
CONTINUOUS
10
65.9806
20
-66.1325
11
66.171
21
-66.0373
0
LINE
8
BLACK
6
CONTINUOUS
10
66.171
20
-66.0373
11
66.552
21
-66.0373
0
LINE
8
BLACK
6
CONTINUOUS
10
66.552
20
-66.0373
11
66.7425
21
-66.1325
0
LINE
8
BLACK
6
CONTINUOUS
10
67.5044
20
-68.1325
11
67.5996
21
-68.0373
0
LINE
8
BLACK
6
CONTINUOUS
10
67.5996
20
-68.0373
11
67.7901
21
-67.7516
0
LINE
8
BLACK
6
CONTINUOUS
10
67.7901
20
-67.7516
11
67.8853
21
-67.5611
0
LINE
8
BLACK
6
CONTINUOUS
10
67.8853
20
-67.5611
11
67.9806
21
-67.2754
0
LINE
8
BLACK
6
CONTINUOUS
10
67.9806
20
-67.2754
11
68.0758
21
-66.7992
0
LINE
8
BLACK
6
CONTINUOUS
10
68.0758
20
-66.7992
11
68.0758
21
-66.4182
0
LINE
8
BLACK
6
CONTINUOUS
10
68.0758
20
-66.4182
11
67.9806
21
-65.942
0
LINE
8
BLACK
6
CONTINUOUS
10
67.9806
20
-65.942
11
67.8853
21
-65.6563
0
LINE
8
BLACK
6
CONTINUOUS
10
67.8853
20
-65.6563
11
67.7901
21
-65.4659
0
LINE
8
BLACK
6
CONTINUOUS
10
67.7901
20
-65.4659
11
67.5996
21
-65.1801
0
LINE
8
BLACK
6
CONTINUOUS
10
67.5996
20
-65.1801
11
67.5044
21
-65.0849
  0
ENDSEC
  0
EOF
