%TF.GenerationSoftware,KiCad,Pcbnew,(6.0.5)*%
%TF.CreationDate,2022-07-09T16:00:03-07:00*%
%TF.ProjectId,solar-panel-side-Z-plus,736f6c61-722d-4706-916e-656c2d736964,rev?*%
%TF.SameCoordinates,Original*%
%TF.FileFunction,Legend,Top*%
%TF.FilePolarity,Positive*%
%FSLAX46Y46*%
G04 Gerber Fmt 4.6, Leading zero omitted, Abs format (unit mm)*
G04 Created by KiCad (PCBNEW (6.0.5)) date 2022-07-09 16:00:03*
%MOMM*%
%LPD*%
G01*
G04 APERTURE LIST*
G04 Aperture macros list*
%AMRoundRect*
0 Rectangle with rounded corners*
0 $1 Rounding radius*
0 $2 $3 $4 $5 $6 $7 $8 $9 X,Y pos of 4 corners*
0 Add a 4 corners polygon primitive as box body*
4,1,4,$2,$3,$4,$5,$6,$7,$8,$9,$2,$3,0*
0 Add four circle primitives for the rounded corners*
1,1,$1+$1,$2,$3*
1,1,$1+$1,$4,$5*
1,1,$1+$1,$6,$7*
1,1,$1+$1,$8,$9*
0 Add four rect primitives between the rounded corners*
20,1,$1+$1,$2,$3,$4,$5,0*
20,1,$1+$1,$4,$5,$6,$7,0*
20,1,$1+$1,$6,$7,$8,$9,0*
20,1,$1+$1,$8,$9,$2,$3,0*%
G04 Aperture macros list end*
%ADD10C,0.120000*%
%ADD11C,0.500000*%
%ADD12C,0.150000*%
%ADD13C,0.100000*%
%ADD14C,0.300000*%
%ADD15C,0.127000*%
%ADD16C,0.200000*%
%ADD17R,1.700000X2.500000*%
%ADD18C,3.000000*%
%ADD19R,1.700000X1.700000*%
%ADD20O,1.700000X1.700000*%
%ADD21RoundRect,0.225000X0.250000X-0.225000X0.250000X0.225000X-0.250000X0.225000X-0.250000X-0.225000X0*%
%ADD22R,0.270000X0.740000*%
%ADD23R,1.350000X0.650000*%
%ADD24C,3.800000*%
%ADD25C,2.600000*%
%ADD26RoundRect,0.200000X0.275000X-0.200000X0.275000X0.200000X-0.275000X0.200000X-0.275000X-0.200000X0*%
%ADD27RoundRect,0.200000X-0.275000X0.200000X-0.275000X-0.200000X0.275000X-0.200000X0.275000X0.200000X0*%
%ADD28R,0.400000X0.650000*%
%ADD29RoundRect,0.225000X-0.250000X0.225000X-0.250000X-0.225000X0.250000X-0.225000X0.250000X0.225000X0*%
%ADD30R,0.400000X0.600000*%
G04 APERTURE END LIST*
D10*
X191220000Y-96164000D02*
G75*
G03*
X191220000Y-96164000I-42000000J0D01*
G01*
D11*
X114389257Y-132723142D02*
X116389257Y-132723142D01*
X114389257Y-135723142D01*
X116389257Y-135723142D01*
X117532114Y-134580285D02*
X119817828Y-134580285D01*
X118674971Y-135723142D02*
X118674971Y-133437428D01*
D12*
X133548380Y-89796785D02*
X132881714Y-89272976D01*
X132881714Y-89796785D02*
X133548380Y-89272976D01*
X132881714Y-88463452D02*
X133548380Y-88463452D01*
X132500761Y-88701547D02*
X133215047Y-88939642D01*
X133215047Y-88320595D01*
X132548380Y-87463452D02*
X132548380Y-87939642D01*
X133024571Y-87987261D01*
X132976952Y-87939642D01*
X132929333Y-87844404D01*
X132929333Y-87606309D01*
X132976952Y-87511071D01*
X133024571Y-87463452D01*
X133119809Y-87415833D01*
X133357904Y-87415833D01*
X133453142Y-87463452D01*
X133500761Y-87511071D01*
X133548380Y-87606309D01*
X133548380Y-87844404D01*
X133500761Y-87939642D01*
X133453142Y-87987261D01*
D13*
X173998000Y-52649238D02*
X173950380Y-52744476D01*
X173950380Y-52887333D01*
X173998000Y-53030190D01*
X174093238Y-53125428D01*
X174188476Y-53173047D01*
X174378952Y-53220666D01*
X174521809Y-53220666D01*
X174712285Y-53173047D01*
X174807523Y-53125428D01*
X174902761Y-53030190D01*
X174950380Y-52887333D01*
X174950380Y-52792095D01*
X174902761Y-52649238D01*
X174855142Y-52601619D01*
X174521809Y-52601619D01*
X174521809Y-52792095D01*
X174950380Y-51601619D02*
X174474190Y-51934952D01*
X174950380Y-52173047D02*
X173950380Y-52173047D01*
X173950380Y-51792095D01*
X173998000Y-51696857D01*
X174045619Y-51649238D01*
X174140857Y-51601619D01*
X174283714Y-51601619D01*
X174378952Y-51649238D01*
X174426571Y-51696857D01*
X174474190Y-51792095D01*
X174474190Y-52173047D01*
X174569428Y-51173047D02*
X174569428Y-50411142D01*
X174950380Y-50792095D02*
X174188476Y-50792095D01*
X174950380Y-49934952D02*
X173950380Y-49934952D01*
X174426571Y-49125428D02*
X174474190Y-48982571D01*
X174521809Y-48934952D01*
X174617047Y-48887333D01*
X174759904Y-48887333D01*
X174855142Y-48934952D01*
X174902761Y-48982571D01*
X174950380Y-49077809D01*
X174950380Y-49458761D01*
X173950380Y-49458761D01*
X173950380Y-49125428D01*
X173998000Y-49030190D01*
X174045619Y-48982571D01*
X174140857Y-48934952D01*
X174236095Y-48934952D01*
X174331333Y-48982571D01*
X174378952Y-49030190D01*
X174426571Y-49125428D01*
X174426571Y-49458761D01*
D12*
X152852380Y-117578095D02*
X151852380Y-117578095D01*
X151852380Y-117340000D01*
X151900000Y-117197142D01*
X151995238Y-117101904D01*
X152090476Y-117054285D01*
X152280952Y-117006666D01*
X152423809Y-117006666D01*
X152614285Y-117054285D01*
X152709523Y-117101904D01*
X152804761Y-117197142D01*
X152852380Y-117340000D01*
X152852380Y-117578095D01*
X151947619Y-116625714D02*
X151900000Y-116578095D01*
X151852380Y-116482857D01*
X151852380Y-116244761D01*
X151900000Y-116149523D01*
X151947619Y-116101904D01*
X152042857Y-116054285D01*
X152138095Y-116054285D01*
X152280952Y-116101904D01*
X152852380Y-116673333D01*
X152852380Y-116054285D01*
X168092380Y-117578095D02*
X167092380Y-117578095D01*
X167092380Y-117340000D01*
X167140000Y-117197142D01*
X167235238Y-117101904D01*
X167330476Y-117054285D01*
X167520952Y-117006666D01*
X167663809Y-117006666D01*
X167854285Y-117054285D01*
X167949523Y-117101904D01*
X168044761Y-117197142D01*
X168092380Y-117340000D01*
X168092380Y-117578095D01*
X167092380Y-116673333D02*
X167092380Y-116054285D01*
X167473333Y-116387619D01*
X167473333Y-116244761D01*
X167520952Y-116149523D01*
X167568571Y-116101904D01*
X167663809Y-116054285D01*
X167901904Y-116054285D01*
X167997142Y-116101904D01*
X168044761Y-116149523D01*
X168092380Y-116244761D01*
X168092380Y-116530476D01*
X168044761Y-116625714D01*
X167997142Y-116673333D01*
X152852380Y-75668095D02*
X151852380Y-75668095D01*
X151852380Y-75430000D01*
X151900000Y-75287142D01*
X151995238Y-75191904D01*
X152090476Y-75144285D01*
X152280952Y-75096666D01*
X152423809Y-75096666D01*
X152614285Y-75144285D01*
X152709523Y-75191904D01*
X152804761Y-75287142D01*
X152852380Y-75430000D01*
X152852380Y-75668095D01*
X151852380Y-74191904D02*
X151852380Y-74668095D01*
X152328571Y-74715714D01*
X152280952Y-74668095D01*
X152233333Y-74572857D01*
X152233333Y-74334761D01*
X152280952Y-74239523D01*
X152328571Y-74191904D01*
X152423809Y-74144285D01*
X152661904Y-74144285D01*
X152757142Y-74191904D01*
X152804761Y-74239523D01*
X152852380Y-74334761D01*
X152852380Y-74572857D01*
X152804761Y-74668095D01*
X152757142Y-74715714D01*
X142692380Y-75668095D02*
X141692380Y-75668095D01*
X141692380Y-75430000D01*
X141740000Y-75287142D01*
X141835238Y-75191904D01*
X141930476Y-75144285D01*
X142120952Y-75096666D01*
X142263809Y-75096666D01*
X142454285Y-75144285D01*
X142549523Y-75191904D01*
X142644761Y-75287142D01*
X142692380Y-75430000D01*
X142692380Y-75668095D01*
X141692380Y-74239523D02*
X141692380Y-74430000D01*
X141740000Y-74525238D01*
X141787619Y-74572857D01*
X141930476Y-74668095D01*
X142120952Y-74715714D01*
X142501904Y-74715714D01*
X142597142Y-74668095D01*
X142644761Y-74620476D01*
X142692380Y-74525238D01*
X142692380Y-74334761D01*
X142644761Y-74239523D01*
X142597142Y-74191904D01*
X142501904Y-74144285D01*
X142263809Y-74144285D01*
X142168571Y-74191904D01*
X142120952Y-74239523D01*
X142073333Y-74334761D01*
X142073333Y-74525238D01*
X142120952Y-74620476D01*
X142168571Y-74668095D01*
X142263809Y-74715714D01*
X154313095Y-58959761D02*
X154455952Y-59007380D01*
X154694047Y-59007380D01*
X154789285Y-58959761D01*
X154836904Y-58912142D01*
X154884523Y-58816904D01*
X154884523Y-58721666D01*
X154836904Y-58626428D01*
X154789285Y-58578809D01*
X154694047Y-58531190D01*
X154503571Y-58483571D01*
X154408333Y-58435952D01*
X154360714Y-58388333D01*
X154313095Y-58293095D01*
X154313095Y-58197857D01*
X154360714Y-58102619D01*
X154408333Y-58055000D01*
X154503571Y-58007380D01*
X154741666Y-58007380D01*
X154884523Y-58055000D01*
X155884523Y-58912142D02*
X155836904Y-58959761D01*
X155694047Y-59007380D01*
X155598809Y-59007380D01*
X155455952Y-58959761D01*
X155360714Y-58864523D01*
X155313095Y-58769285D01*
X155265476Y-58578809D01*
X155265476Y-58435952D01*
X155313095Y-58245476D01*
X155360714Y-58150238D01*
X155455952Y-58055000D01*
X155598809Y-58007380D01*
X155694047Y-58007380D01*
X155836904Y-58055000D01*
X155884523Y-58102619D01*
X156789285Y-58007380D02*
X156313095Y-58007380D01*
X156265476Y-58483571D01*
X156313095Y-58435952D01*
X156408333Y-58388333D01*
X156646428Y-58388333D01*
X156741666Y-58435952D01*
X156789285Y-58483571D01*
X156836904Y-58578809D01*
X156836904Y-58816904D01*
X156789285Y-58912142D01*
X156741666Y-58959761D01*
X156646428Y-59007380D01*
X156408333Y-59007380D01*
X156313095Y-58959761D01*
X156265476Y-58912142D01*
D14*
X145542142Y-64349285D02*
X147827857Y-64349285D01*
X146685000Y-65492142D02*
X146685000Y-63206428D01*
X146899285Y-55117857D02*
X146899285Y-52832142D01*
D12*
X117483095Y-71389761D02*
X117625952Y-71437380D01*
X117864047Y-71437380D01*
X117959285Y-71389761D01*
X118006904Y-71342142D01*
X118054523Y-71246904D01*
X118054523Y-71151666D01*
X118006904Y-71056428D01*
X117959285Y-71008809D01*
X117864047Y-70961190D01*
X117673571Y-70913571D01*
X117578333Y-70865952D01*
X117530714Y-70818333D01*
X117483095Y-70723095D01*
X117483095Y-70627857D01*
X117530714Y-70532619D01*
X117578333Y-70485000D01*
X117673571Y-70437380D01*
X117911666Y-70437380D01*
X118054523Y-70485000D01*
X119054523Y-71342142D02*
X119006904Y-71389761D01*
X118864047Y-71437380D01*
X118768809Y-71437380D01*
X118625952Y-71389761D01*
X118530714Y-71294523D01*
X118483095Y-71199285D01*
X118435476Y-71008809D01*
X118435476Y-70865952D01*
X118483095Y-70675476D01*
X118530714Y-70580238D01*
X118625952Y-70485000D01*
X118768809Y-70437380D01*
X118864047Y-70437380D01*
X119006904Y-70485000D01*
X119054523Y-70532619D01*
X119911666Y-70437380D02*
X119721190Y-70437380D01*
X119625952Y-70485000D01*
X119578333Y-70532619D01*
X119483095Y-70675476D01*
X119435476Y-70865952D01*
X119435476Y-71246904D01*
X119483095Y-71342142D01*
X119530714Y-71389761D01*
X119625952Y-71437380D01*
X119816428Y-71437380D01*
X119911666Y-71389761D01*
X119959285Y-71342142D01*
X120006904Y-71246904D01*
X120006904Y-71008809D01*
X119959285Y-70913571D01*
X119911666Y-70865952D01*
X119816428Y-70818333D01*
X119625952Y-70818333D01*
X119530714Y-70865952D01*
X119483095Y-70913571D01*
X119435476Y-71008809D01*
D14*
X126492142Y-65619285D02*
X128777857Y-65619285D01*
X127635000Y-66762142D02*
X127635000Y-64476428D01*
X127849285Y-76707857D02*
X127849285Y-74422142D01*
D12*
X114387380Y-94948333D02*
X115101666Y-94948333D01*
X115244523Y-94995952D01*
X115339761Y-95091190D01*
X115387380Y-95234047D01*
X115387380Y-95329285D01*
X114387380Y-94567380D02*
X114387380Y-93948333D01*
X114768333Y-94281666D01*
X114768333Y-94138809D01*
X114815952Y-94043571D01*
X114863571Y-93995952D01*
X114958809Y-93948333D01*
X115196904Y-93948333D01*
X115292142Y-93995952D01*
X115339761Y-94043571D01*
X115387380Y-94138809D01*
X115387380Y-94424523D01*
X115339761Y-94519761D01*
X115292142Y-94567380D01*
X124968095Y-96655000D02*
X124872857Y-96607380D01*
X124730000Y-96607380D01*
X124587142Y-96655000D01*
X124491904Y-96750238D01*
X124444285Y-96845476D01*
X124396666Y-97035952D01*
X124396666Y-97178809D01*
X124444285Y-97369285D01*
X124491904Y-97464523D01*
X124587142Y-97559761D01*
X124730000Y-97607380D01*
X124825238Y-97607380D01*
X124968095Y-97559761D01*
X125015714Y-97512142D01*
X125015714Y-97178809D01*
X124825238Y-97178809D01*
X125444285Y-97607380D02*
X125444285Y-96607380D01*
X126015714Y-97607380D01*
X126015714Y-96607380D01*
X126491904Y-97607380D02*
X126491904Y-96607380D01*
X126730000Y-96607380D01*
X126872857Y-96655000D01*
X126968095Y-96750238D01*
X127015714Y-96845476D01*
X127063333Y-97035952D01*
X127063333Y-97178809D01*
X127015714Y-97369285D01*
X126968095Y-97464523D01*
X126872857Y-97559761D01*
X126730000Y-97607380D01*
X126491904Y-97607380D01*
X124888809Y-92003571D02*
X125031666Y-92051190D01*
X125079285Y-92098809D01*
X125126904Y-92194047D01*
X125126904Y-92336904D01*
X125079285Y-92432142D01*
X125031666Y-92479761D01*
X124936428Y-92527380D01*
X124555476Y-92527380D01*
X124555476Y-91527380D01*
X124888809Y-91527380D01*
X124984047Y-91575000D01*
X125031666Y-91622619D01*
X125079285Y-91717857D01*
X125079285Y-91813095D01*
X125031666Y-91908333D01*
X124984047Y-91955952D01*
X124888809Y-92003571D01*
X124555476Y-92003571D01*
X125555476Y-91527380D02*
X125555476Y-92336904D01*
X125603095Y-92432142D01*
X125650714Y-92479761D01*
X125745952Y-92527380D01*
X125936428Y-92527380D01*
X126031666Y-92479761D01*
X126079285Y-92432142D01*
X126126904Y-92336904D01*
X126126904Y-91527380D01*
X127174523Y-92527380D02*
X126841190Y-92051190D01*
X126603095Y-92527380D02*
X126603095Y-91527380D01*
X126984047Y-91527380D01*
X127079285Y-91575000D01*
X127126904Y-91622619D01*
X127174523Y-91717857D01*
X127174523Y-91860714D01*
X127126904Y-91955952D01*
X127079285Y-92003571D01*
X126984047Y-92051190D01*
X126603095Y-92051190D01*
X127603095Y-92527380D02*
X127603095Y-91527380D01*
X128174523Y-92527380D01*
X128174523Y-91527380D01*
X134055142Y-84558166D02*
X134102761Y-84605785D01*
X134150380Y-84748642D01*
X134150380Y-84843880D01*
X134102761Y-84986738D01*
X134007523Y-85081976D01*
X133912285Y-85129595D01*
X133721809Y-85177214D01*
X133578952Y-85177214D01*
X133388476Y-85129595D01*
X133293238Y-85081976D01*
X133198000Y-84986738D01*
X133150380Y-84843880D01*
X133150380Y-84748642D01*
X133198000Y-84605785D01*
X133245619Y-84558166D01*
X134150380Y-83605785D02*
X134150380Y-84177214D01*
X134150380Y-83891500D02*
X133150380Y-83891500D01*
X133293238Y-83986738D01*
X133388476Y-84081976D01*
X133436095Y-84177214D01*
X142692380Y-117578095D02*
X141692380Y-117578095D01*
X141692380Y-117340000D01*
X141740000Y-117197142D01*
X141835238Y-117101904D01*
X141930476Y-117054285D01*
X142120952Y-117006666D01*
X142263809Y-117006666D01*
X142454285Y-117054285D01*
X142549523Y-117101904D01*
X142644761Y-117197142D01*
X142692380Y-117340000D01*
X142692380Y-117578095D01*
X142692380Y-116054285D02*
X142692380Y-116625714D01*
X142692380Y-116340000D02*
X141692380Y-116340000D01*
X141835238Y-116435238D01*
X141930476Y-116530476D01*
X141978095Y-116625714D01*
X168092380Y-75573095D02*
X167092380Y-75573095D01*
X167092380Y-75335000D01*
X167140000Y-75192142D01*
X167235238Y-75096904D01*
X167330476Y-75049285D01*
X167520952Y-75001666D01*
X167663809Y-75001666D01*
X167854285Y-75049285D01*
X167949523Y-75096904D01*
X168044761Y-75192142D01*
X168092380Y-75335000D01*
X168092380Y-75573095D01*
X167425714Y-74144523D02*
X168092380Y-74144523D01*
X167044761Y-74382619D02*
X167759047Y-74620714D01*
X167759047Y-74001666D01*
X157932380Y-75668095D02*
X156932380Y-75668095D01*
X156932380Y-75430000D01*
X156980000Y-75287142D01*
X157075238Y-75191904D01*
X157170476Y-75144285D01*
X157360952Y-75096666D01*
X157503809Y-75096666D01*
X157694285Y-75144285D01*
X157789523Y-75191904D01*
X157884761Y-75287142D01*
X157932380Y-75430000D01*
X157932380Y-75668095D01*
X157932380Y-74620476D02*
X157932380Y-74430000D01*
X157884761Y-74334761D01*
X157837142Y-74287142D01*
X157694285Y-74191904D01*
X157503809Y-74144285D01*
X157122857Y-74144285D01*
X157027619Y-74191904D01*
X156980000Y-74239523D01*
X156932380Y-74334761D01*
X156932380Y-74525238D01*
X156980000Y-74620476D01*
X157027619Y-74668095D01*
X157122857Y-74715714D01*
X157360952Y-74715714D01*
X157456190Y-74668095D01*
X157503809Y-74620476D01*
X157551428Y-74525238D01*
X157551428Y-74334761D01*
X157503809Y-74239523D01*
X157456190Y-74191904D01*
X157360952Y-74144285D01*
X117483095Y-119649761D02*
X117625952Y-119697380D01*
X117864047Y-119697380D01*
X117959285Y-119649761D01*
X118006904Y-119602142D01*
X118054523Y-119506904D01*
X118054523Y-119411666D01*
X118006904Y-119316428D01*
X117959285Y-119268809D01*
X117864047Y-119221190D01*
X117673571Y-119173571D01*
X117578333Y-119125952D01*
X117530714Y-119078333D01*
X117483095Y-118983095D01*
X117483095Y-118887857D01*
X117530714Y-118792619D01*
X117578333Y-118745000D01*
X117673571Y-118697380D01*
X117911666Y-118697380D01*
X118054523Y-118745000D01*
X119054523Y-119602142D02*
X119006904Y-119649761D01*
X118864047Y-119697380D01*
X118768809Y-119697380D01*
X118625952Y-119649761D01*
X118530714Y-119554523D01*
X118483095Y-119459285D01*
X118435476Y-119268809D01*
X118435476Y-119125952D01*
X118483095Y-118935476D01*
X118530714Y-118840238D01*
X118625952Y-118745000D01*
X118768809Y-118697380D01*
X118864047Y-118697380D01*
X119006904Y-118745000D01*
X119054523Y-118792619D01*
X120006904Y-119697380D02*
X119435476Y-119697380D01*
X119721190Y-119697380D02*
X119721190Y-118697380D01*
X119625952Y-118840238D01*
X119530714Y-118935476D01*
X119435476Y-118983095D01*
D14*
X127849285Y-124967857D02*
X127849285Y-122682142D01*
X126492142Y-113879285D02*
X128777857Y-113879285D01*
X127635000Y-115022142D02*
X127635000Y-112736428D01*
D12*
X154313095Y-132619761D02*
X154455952Y-132667380D01*
X154694047Y-132667380D01*
X154789285Y-132619761D01*
X154836904Y-132572142D01*
X154884523Y-132476904D01*
X154884523Y-132381666D01*
X154836904Y-132286428D01*
X154789285Y-132238809D01*
X154694047Y-132191190D01*
X154503571Y-132143571D01*
X154408333Y-132095952D01*
X154360714Y-132048333D01*
X154313095Y-131953095D01*
X154313095Y-131857857D01*
X154360714Y-131762619D01*
X154408333Y-131715000D01*
X154503571Y-131667380D01*
X154741666Y-131667380D01*
X154884523Y-131715000D01*
X155884523Y-132572142D02*
X155836904Y-132619761D01*
X155694047Y-132667380D01*
X155598809Y-132667380D01*
X155455952Y-132619761D01*
X155360714Y-132524523D01*
X155313095Y-132429285D01*
X155265476Y-132238809D01*
X155265476Y-132095952D01*
X155313095Y-131905476D01*
X155360714Y-131810238D01*
X155455952Y-131715000D01*
X155598809Y-131667380D01*
X155694047Y-131667380D01*
X155836904Y-131715000D01*
X155884523Y-131762619D01*
X156265476Y-131762619D02*
X156313095Y-131715000D01*
X156408333Y-131667380D01*
X156646428Y-131667380D01*
X156741666Y-131715000D01*
X156789285Y-131762619D01*
X156836904Y-131857857D01*
X156836904Y-131953095D01*
X156789285Y-132095952D01*
X156217857Y-132667380D01*
X156836904Y-132667380D01*
D14*
X145542142Y-138009285D02*
X147827857Y-138009285D01*
X146685000Y-139152142D02*
X146685000Y-136866428D01*
X146899285Y-128777857D02*
X146899285Y-126492142D01*
D12*
X185689761Y-113656904D02*
X185737380Y-113514047D01*
X185737380Y-113275952D01*
X185689761Y-113180714D01*
X185642142Y-113133095D01*
X185546904Y-113085476D01*
X185451666Y-113085476D01*
X185356428Y-113133095D01*
X185308809Y-113180714D01*
X185261190Y-113275952D01*
X185213571Y-113466428D01*
X185165952Y-113561666D01*
X185118333Y-113609285D01*
X185023095Y-113656904D01*
X184927857Y-113656904D01*
X184832619Y-113609285D01*
X184785000Y-113561666D01*
X184737380Y-113466428D01*
X184737380Y-113228333D01*
X184785000Y-113085476D01*
X185642142Y-112085476D02*
X185689761Y-112133095D01*
X185737380Y-112275952D01*
X185737380Y-112371190D01*
X185689761Y-112514047D01*
X185594523Y-112609285D01*
X185499285Y-112656904D01*
X185308809Y-112704523D01*
X185165952Y-112704523D01*
X184975476Y-112656904D01*
X184880238Y-112609285D01*
X184785000Y-112514047D01*
X184737380Y-112371190D01*
X184737380Y-112275952D01*
X184785000Y-112133095D01*
X184832619Y-112085476D01*
X184737380Y-111752142D02*
X184737380Y-111133095D01*
X185118333Y-111466428D01*
X185118333Y-111323571D01*
X185165952Y-111228333D01*
X185213571Y-111180714D01*
X185308809Y-111133095D01*
X185546904Y-111133095D01*
X185642142Y-111180714D01*
X185689761Y-111228333D01*
X185737380Y-111323571D01*
X185737380Y-111609285D01*
X185689761Y-111704523D01*
X185642142Y-111752142D01*
D14*
X188722142Y-103719285D02*
X191007857Y-103719285D01*
X179919285Y-104647857D02*
X179919285Y-102362142D01*
X181062142Y-103505000D02*
X178776428Y-103505000D01*
D12*
X184689761Y-78096904D02*
X184737380Y-77954047D01*
X184737380Y-77715952D01*
X184689761Y-77620714D01*
X184642142Y-77573095D01*
X184546904Y-77525476D01*
X184451666Y-77525476D01*
X184356428Y-77573095D01*
X184308809Y-77620714D01*
X184261190Y-77715952D01*
X184213571Y-77906428D01*
X184165952Y-78001666D01*
X184118333Y-78049285D01*
X184023095Y-78096904D01*
X183927857Y-78096904D01*
X183832619Y-78049285D01*
X183785000Y-78001666D01*
X183737380Y-77906428D01*
X183737380Y-77668333D01*
X183785000Y-77525476D01*
X184642142Y-76525476D02*
X184689761Y-76573095D01*
X184737380Y-76715952D01*
X184737380Y-76811190D01*
X184689761Y-76954047D01*
X184594523Y-77049285D01*
X184499285Y-77096904D01*
X184308809Y-77144523D01*
X184165952Y-77144523D01*
X183975476Y-77096904D01*
X183880238Y-77049285D01*
X183785000Y-76954047D01*
X183737380Y-76811190D01*
X183737380Y-76715952D01*
X183785000Y-76573095D01*
X183832619Y-76525476D01*
X184070714Y-75668333D02*
X184737380Y-75668333D01*
X183689761Y-75906428D02*
X184404047Y-76144523D01*
X184404047Y-75525476D01*
D14*
X178562142Y-85939285D02*
X180847857Y-85939285D01*
X190079285Y-86867857D02*
X190079285Y-84582142D01*
X191222142Y-85725000D02*
X188936428Y-85725000D01*
D12*
X136697904Y-89414523D02*
X137345523Y-89414523D01*
X137421714Y-89376428D01*
X137459809Y-89338333D01*
X137497904Y-89262142D01*
X137497904Y-89109761D01*
X137459809Y-89033571D01*
X137421714Y-88995476D01*
X137345523Y-88957380D01*
X136697904Y-88957380D01*
X137497904Y-88157380D02*
X137497904Y-88614523D01*
X137497904Y-88385952D02*
X136697904Y-88385952D01*
X136812190Y-88462142D01*
X136888380Y-88538333D01*
X136926476Y-88614523D01*
X136542428Y-93794214D02*
X136256714Y-93994214D01*
X136542428Y-94137071D02*
X135942428Y-94137071D01*
X135942428Y-93908500D01*
X135971000Y-93851357D01*
X135999571Y-93822785D01*
X136056714Y-93794214D01*
X136142428Y-93794214D01*
X136199571Y-93822785D01*
X136228142Y-93851357D01*
X136256714Y-93908500D01*
X136256714Y-94137071D01*
X135942428Y-93594214D02*
X135942428Y-93194214D01*
X136542428Y-93451357D01*
X136542428Y-92651357D02*
X136542428Y-92994214D01*
X136542428Y-92822785D02*
X135942428Y-92822785D01*
X136028142Y-92879928D01*
X136085285Y-92937071D01*
X136113857Y-92994214D01*
X131462428Y-104081214D02*
X131176714Y-104281214D01*
X131462428Y-104424071D02*
X130862428Y-104424071D01*
X130862428Y-104195500D01*
X130891000Y-104138357D01*
X130919571Y-104109785D01*
X130976714Y-104081214D01*
X131062428Y-104081214D01*
X131119571Y-104109785D01*
X131148142Y-104138357D01*
X131176714Y-104195500D01*
X131176714Y-104424071D01*
X130862428Y-103881214D02*
X130862428Y-103481214D01*
X131462428Y-103738357D01*
X130862428Y-102966928D02*
X130862428Y-103252642D01*
X131148142Y-103281214D01*
X131119571Y-103252642D01*
X131091000Y-103195500D01*
X131091000Y-103052642D01*
X131119571Y-102995500D01*
X131148142Y-102966928D01*
X131205285Y-102938357D01*
X131348142Y-102938357D01*
X131405285Y-102966928D01*
X131433857Y-102995500D01*
X131462428Y-103052642D01*
X131462428Y-103195500D01*
X131433857Y-103252642D01*
X131405285Y-103281214D01*
X133240428Y-93794214D02*
X132954714Y-93994214D01*
X133240428Y-94137071D02*
X132640428Y-94137071D01*
X132640428Y-93908500D01*
X132669000Y-93851357D01*
X132697571Y-93822785D01*
X132754714Y-93794214D01*
X132840428Y-93794214D01*
X132897571Y-93822785D01*
X132926142Y-93851357D01*
X132954714Y-93908500D01*
X132954714Y-94137071D01*
X132640428Y-93594214D02*
X132640428Y-93194214D01*
X133240428Y-93451357D01*
X132640428Y-93022785D02*
X132640428Y-92651357D01*
X132869000Y-92851357D01*
X132869000Y-92765642D01*
X132897571Y-92708500D01*
X132926142Y-92679928D01*
X132983285Y-92651357D01*
X133126142Y-92651357D01*
X133183285Y-92679928D01*
X133211857Y-92708500D01*
X133240428Y-92765642D01*
X133240428Y-92937071D01*
X133211857Y-92994214D01*
X133183285Y-93022785D01*
X140479428Y-100144214D02*
X140193714Y-100344214D01*
X140479428Y-100487071D02*
X139879428Y-100487071D01*
X139879428Y-100258500D01*
X139908000Y-100201357D01*
X139936571Y-100172785D01*
X139993714Y-100144214D01*
X140079428Y-100144214D01*
X140136571Y-100172785D01*
X140165142Y-100201357D01*
X140193714Y-100258500D01*
X140193714Y-100487071D01*
X140479428Y-99858500D02*
X140479428Y-99744214D01*
X140450857Y-99687071D01*
X140422285Y-99658500D01*
X140336571Y-99601357D01*
X140222285Y-99572785D01*
X139993714Y-99572785D01*
X139936571Y-99601357D01*
X139908000Y-99629928D01*
X139879428Y-99687071D01*
X139879428Y-99801357D01*
X139908000Y-99858500D01*
X139936571Y-99887071D01*
X139993714Y-99915642D01*
X140136571Y-99915642D01*
X140193714Y-99887071D01*
X140222285Y-99858500D01*
X140250857Y-99801357D01*
X140250857Y-99687071D01*
X140222285Y-99629928D01*
X140193714Y-99601357D01*
X140136571Y-99572785D01*
X139879428Y-99372785D02*
X139879428Y-98972785D01*
X140479428Y-99229928D01*
X131589428Y-93794214D02*
X131303714Y-93994214D01*
X131589428Y-94137071D02*
X130989428Y-94137071D01*
X130989428Y-93908500D01*
X131018000Y-93851357D01*
X131046571Y-93822785D01*
X131103714Y-93794214D01*
X131189428Y-93794214D01*
X131246571Y-93822785D01*
X131275142Y-93851357D01*
X131303714Y-93908500D01*
X131303714Y-94137071D01*
X130989428Y-93279928D02*
X130989428Y-93394214D01*
X131018000Y-93451357D01*
X131046571Y-93479928D01*
X131132285Y-93537071D01*
X131246571Y-93565642D01*
X131475142Y-93565642D01*
X131532285Y-93537071D01*
X131560857Y-93508500D01*
X131589428Y-93451357D01*
X131589428Y-93337071D01*
X131560857Y-93279928D01*
X131532285Y-93251357D01*
X131475142Y-93222785D01*
X131332285Y-93222785D01*
X131275142Y-93251357D01*
X131246571Y-93279928D01*
X131218000Y-93337071D01*
X131218000Y-93451357D01*
X131246571Y-93508500D01*
X131275142Y-93537071D01*
X131332285Y-93565642D01*
X130989428Y-92708500D02*
X130989428Y-92822785D01*
X131018000Y-92879928D01*
X131046571Y-92908500D01*
X131132285Y-92965642D01*
X131246571Y-92994214D01*
X131475142Y-92994214D01*
X131532285Y-92965642D01*
X131560857Y-92937071D01*
X131589428Y-92879928D01*
X131589428Y-92765642D01*
X131560857Y-92708500D01*
X131532285Y-92679928D01*
X131475142Y-92651357D01*
X131332285Y-92651357D01*
X131275142Y-92679928D01*
X131246571Y-92708500D01*
X131218000Y-92765642D01*
X131218000Y-92879928D01*
X131246571Y-92937071D01*
X131275142Y-92965642D01*
X131332285Y-92994214D01*
X135018428Y-93794214D02*
X134732714Y-93994214D01*
X135018428Y-94137071D02*
X134418428Y-94137071D01*
X134418428Y-93908500D01*
X134447000Y-93851357D01*
X134475571Y-93822785D01*
X134532714Y-93794214D01*
X134618428Y-93794214D01*
X134675571Y-93822785D01*
X134704142Y-93851357D01*
X134732714Y-93908500D01*
X134732714Y-94137071D01*
X134418428Y-93279928D02*
X134418428Y-93394214D01*
X134447000Y-93451357D01*
X134475571Y-93479928D01*
X134561285Y-93537071D01*
X134675571Y-93565642D01*
X134904142Y-93565642D01*
X134961285Y-93537071D01*
X134989857Y-93508500D01*
X135018428Y-93451357D01*
X135018428Y-93337071D01*
X134989857Y-93279928D01*
X134961285Y-93251357D01*
X134904142Y-93222785D01*
X134761285Y-93222785D01*
X134704142Y-93251357D01*
X134675571Y-93279928D01*
X134647000Y-93337071D01*
X134647000Y-93451357D01*
X134675571Y-93508500D01*
X134704142Y-93537071D01*
X134761285Y-93565642D01*
X135018428Y-92651357D02*
X135018428Y-92994214D01*
X135018428Y-92822785D02*
X134418428Y-92822785D01*
X134504142Y-92879928D01*
X134561285Y-92937071D01*
X134589857Y-92994214D01*
X138178333Y-97285166D02*
X138145000Y-97351833D01*
X138078333Y-97418500D01*
X137978333Y-97518500D01*
X137945000Y-97585166D01*
X137945000Y-97651833D01*
X138111666Y-97618500D02*
X138078333Y-97685166D01*
X138011666Y-97751833D01*
X137878333Y-97785166D01*
X137645000Y-97785166D01*
X137511666Y-97751833D01*
X137445000Y-97685166D01*
X137411666Y-97618500D01*
X137411666Y-97485166D01*
X137445000Y-97418500D01*
X137511666Y-97351833D01*
X137645000Y-97318500D01*
X137878333Y-97318500D01*
X138011666Y-97351833D01*
X138078333Y-97418500D01*
X138111666Y-97485166D01*
X138111666Y-97618500D01*
X137411666Y-97085166D02*
X137411666Y-96618500D01*
X138111666Y-96918500D01*
X136264285Y-103795500D02*
X136292857Y-103824071D01*
X136321428Y-103909785D01*
X136321428Y-103966928D01*
X136292857Y-104052642D01*
X136235714Y-104109785D01*
X136178571Y-104138357D01*
X136064285Y-104166928D01*
X135978571Y-104166928D01*
X135864285Y-104138357D01*
X135807142Y-104109785D01*
X135750000Y-104052642D01*
X135721428Y-103966928D01*
X135721428Y-103909785D01*
X135750000Y-103824071D01*
X135778571Y-103795500D01*
X135978571Y-103452642D02*
X135950000Y-103509785D01*
X135921428Y-103538357D01*
X135864285Y-103566928D01*
X135835714Y-103566928D01*
X135778571Y-103538357D01*
X135750000Y-103509785D01*
X135721428Y-103452642D01*
X135721428Y-103338357D01*
X135750000Y-103281214D01*
X135778571Y-103252642D01*
X135835714Y-103224071D01*
X135864285Y-103224071D01*
X135921428Y-103252642D01*
X135950000Y-103281214D01*
X135978571Y-103338357D01*
X135978571Y-103452642D01*
X136007142Y-103509785D01*
X136035714Y-103538357D01*
X136092857Y-103566928D01*
X136207142Y-103566928D01*
X136264285Y-103538357D01*
X136292857Y-103509785D01*
X136321428Y-103452642D01*
X136321428Y-103338357D01*
X136292857Y-103281214D01*
X136264285Y-103252642D01*
X136207142Y-103224071D01*
X136092857Y-103224071D01*
X136035714Y-103252642D01*
X136007142Y-103281214D01*
X135978571Y-103338357D01*
D15*
X131447333Y-100158500D02*
X131414000Y-100225166D01*
X131347333Y-100291833D01*
X131247333Y-100391833D01*
X131214000Y-100458500D01*
X131214000Y-100525166D01*
X131380666Y-100491833D02*
X131347333Y-100558500D01*
X131280666Y-100625166D01*
X131147333Y-100658500D01*
X130914000Y-100658500D01*
X130780666Y-100625166D01*
X130714000Y-100558500D01*
X130680666Y-100491833D01*
X130680666Y-100358500D01*
X130714000Y-100291833D01*
X130780666Y-100225166D01*
X130914000Y-100191833D01*
X131147333Y-100191833D01*
X131280666Y-100225166D01*
X131347333Y-100291833D01*
X131380666Y-100358500D01*
X131380666Y-100491833D01*
X131380666Y-99525166D02*
X131380666Y-99925166D01*
X131380666Y-99725166D02*
X130680666Y-99725166D01*
X130780666Y-99791833D01*
X130847333Y-99858500D01*
X130880666Y-99925166D01*
X130747333Y-99258500D02*
X130714000Y-99225166D01*
X130680666Y-99158500D01*
X130680666Y-98991833D01*
X130714000Y-98925166D01*
X130747333Y-98891833D01*
X130814000Y-98858500D01*
X130880666Y-98858500D01*
X130980666Y-98891833D01*
X131380666Y-99291833D01*
X131380666Y-98858500D01*
D10*
X155752800Y-116408200D02*
X154203400Y-116408200D01*
X153490000Y-119215000D02*
X156390000Y-119215000D01*
X153490000Y-114465000D02*
X156390000Y-114465000D01*
X156390000Y-114465000D02*
X156390000Y-119215000D01*
X153490000Y-114465000D02*
X153490000Y-119215000D01*
G36*
X155575000Y-117348000D02*
G01*
X154228800Y-117348000D01*
X154965400Y-116535200D01*
X155575000Y-117348000D01*
G37*
D13*
X155575000Y-117348000D02*
X154228800Y-117348000D01*
X154965400Y-116535200D01*
X155575000Y-117348000D01*
D10*
X170992800Y-116408200D02*
X169443400Y-116408200D01*
X171630000Y-114465000D02*
X171630000Y-119215000D01*
X168730000Y-114465000D02*
X171630000Y-114465000D01*
X168730000Y-119215000D02*
X171630000Y-119215000D01*
X168730000Y-114465000D02*
X168730000Y-119215000D01*
G36*
X170815000Y-117348000D02*
G01*
X169468800Y-117348000D01*
X170205400Y-116535200D01*
X170815000Y-117348000D01*
G37*
D13*
X170815000Y-117348000D02*
X169468800Y-117348000D01*
X170205400Y-116535200D01*
X170815000Y-117348000D01*
D10*
X150672800Y-74498200D02*
X149123400Y-74498200D01*
X148410000Y-77305000D02*
X151310000Y-77305000D01*
X148410000Y-72555000D02*
X151310000Y-72555000D01*
X151310000Y-72555000D02*
X151310000Y-77305000D01*
X148410000Y-72555000D02*
X148410000Y-77305000D01*
G36*
X150495000Y-75438000D02*
G01*
X149148800Y-75438000D01*
X149885400Y-74625200D01*
X150495000Y-75438000D01*
G37*
D13*
X150495000Y-75438000D02*
X149148800Y-75438000D01*
X149885400Y-74625200D01*
X150495000Y-75438000D01*
D10*
X138250000Y-72555000D02*
X141150000Y-72555000D01*
X140512800Y-74498200D02*
X138963400Y-74498200D01*
X138250000Y-77305000D02*
X141150000Y-77305000D01*
X141150000Y-72555000D02*
X141150000Y-77305000D01*
X138250000Y-72555000D02*
X138250000Y-77305000D01*
G36*
X140335000Y-75438000D02*
G01*
X138988800Y-75438000D01*
X139725400Y-74625200D01*
X140335000Y-75438000D01*
G37*
D13*
X140335000Y-75438000D02*
X138988800Y-75438000D01*
X139725400Y-74625200D01*
X140335000Y-75438000D01*
D14*
X138075000Y-70055000D02*
X138075000Y-48055000D01*
X173075000Y-48055000D02*
X173075000Y-70055000D01*
X138075000Y-48055000D02*
X173075000Y-48055000D01*
X173075000Y-70055000D02*
X138075000Y-70055000D01*
X136245000Y-81485000D02*
X101245000Y-81485000D01*
X101245000Y-59485000D02*
X136245000Y-59485000D01*
X101245000Y-81485000D02*
X101245000Y-59485000D01*
X136245000Y-59485000D02*
X136245000Y-81485000D01*
D10*
X124115000Y-97155000D02*
X124115000Y-98425000D01*
X124115000Y-98425000D02*
X122845000Y-98425000D01*
X135638000Y-84532080D02*
X135638000Y-84250920D01*
X134618000Y-84532080D02*
X134618000Y-84250920D01*
X138250000Y-114465000D02*
X138250000Y-119215000D01*
X138250000Y-114465000D02*
X141150000Y-114465000D01*
X138250000Y-119215000D02*
X141150000Y-119215000D01*
X140512800Y-116408200D02*
X138963400Y-116408200D01*
X141150000Y-114465000D02*
X141150000Y-119215000D01*
G36*
X140335000Y-117348000D02*
G01*
X138988800Y-117348000D01*
X139725400Y-116535200D01*
X140335000Y-117348000D01*
G37*
D13*
X140335000Y-117348000D02*
X138988800Y-117348000D01*
X139725400Y-116535200D01*
X140335000Y-117348000D01*
D10*
X168730000Y-72460000D02*
X171630000Y-72460000D01*
X170992800Y-74403200D02*
X169443400Y-74403200D01*
X171630000Y-72460000D02*
X171630000Y-77210000D01*
X168730000Y-77210000D02*
X171630000Y-77210000D01*
X168730000Y-72460000D02*
X168730000Y-77210000D01*
G36*
X170815000Y-75343000D02*
G01*
X169468800Y-75343000D01*
X170205400Y-74530200D01*
X170815000Y-75343000D01*
G37*
D13*
X170815000Y-75343000D02*
X169468800Y-75343000D01*
X170205400Y-74530200D01*
X170815000Y-75343000D01*
D10*
X158570000Y-72555000D02*
X158570000Y-77305000D01*
X158570000Y-72555000D02*
X161470000Y-72555000D01*
X160832800Y-74498200D02*
X159283400Y-74498200D01*
X158570000Y-77305000D02*
X161470000Y-77305000D01*
X161470000Y-72555000D02*
X161470000Y-77305000D01*
G36*
X160655000Y-75438000D02*
G01*
X159308800Y-75438000D01*
X160045400Y-74625200D01*
X160655000Y-75438000D01*
G37*
D13*
X160655000Y-75438000D02*
X159308800Y-75438000D01*
X160045400Y-74625200D01*
X160655000Y-75438000D01*
D14*
X101245000Y-107745000D02*
X136245000Y-107745000D01*
X136245000Y-107745000D02*
X136245000Y-129745000D01*
X136245000Y-129745000D02*
X101245000Y-129745000D01*
X101245000Y-129745000D02*
X101245000Y-107745000D01*
X173075000Y-143715000D02*
X138075000Y-143715000D01*
X173075000Y-121715000D02*
X173075000Y-143715000D01*
X138075000Y-121715000D02*
X173075000Y-121715000D01*
X138075000Y-143715000D02*
X138075000Y-121715000D01*
X173785000Y-94895000D02*
X195785000Y-94895000D01*
X195785000Y-129895000D02*
X173785000Y-129895000D01*
X195785000Y-94895000D02*
X195785000Y-129895000D01*
X173785000Y-129895000D02*
X173785000Y-94895000D01*
X195785000Y-94335000D02*
X173785000Y-94335000D01*
X195785000Y-59335000D02*
X195785000Y-94335000D01*
X173785000Y-59335000D02*
X195785000Y-59335000D01*
X173785000Y-94335000D02*
X173785000Y-59335000D01*
D15*
X136227000Y-87265000D02*
X136227000Y-89265000D01*
X134029000Y-87265000D02*
X134029000Y-89265000D01*
D16*
X135878000Y-86330000D02*
G75*
G03*
X135878000Y-86330000I-100000J0D01*
G01*
D10*
X136793500Y-96058758D02*
X136793500Y-95584242D01*
X135748500Y-96058758D02*
X135748500Y-95584242D01*
X132192500Y-103932758D02*
X132192500Y-103458242D01*
X133237500Y-103932758D02*
X133237500Y-103458242D01*
X133491500Y-95584242D02*
X133491500Y-96058758D01*
X132446500Y-95584242D02*
X132446500Y-96058758D01*
X138415500Y-99995758D02*
X138415500Y-99521242D01*
X139460500Y-99995758D02*
X139460500Y-99521242D01*
X130795500Y-95584242D02*
X130795500Y-96058758D01*
X131840500Y-95584242D02*
X131840500Y-96058758D01*
X134097500Y-95584242D02*
X134097500Y-96058758D01*
X135142500Y-95584242D02*
X135142500Y-96058758D01*
X137685000Y-100458500D02*
X137685000Y-98558500D01*
X135365000Y-99058500D02*
X135365000Y-100458500D01*
X135130000Y-103554920D02*
X135130000Y-103836080D01*
X134110000Y-103554920D02*
X134110000Y-103836080D01*
D16*
X134169000Y-98518500D02*
X134169000Y-99258500D01*
D14*
X143964000Y-107613500D02*
X168964000Y-107613500D01*
X143964000Y-107613500D02*
X143964000Y-82613500D01*
X143964000Y-82613500D02*
X168964000Y-82613500D01*
X168964000Y-107613500D02*
X168964000Y-82613500D01*
%LPC*%
D17*
X154940000Y-114840000D03*
X154940000Y-118840000D03*
X170180000Y-114840000D03*
X170180000Y-118840000D03*
X149860000Y-72930000D03*
X149860000Y-76930000D03*
X139700000Y-72930000D03*
X139700000Y-76930000D03*
D18*
X142575000Y-63555000D03*
X142575000Y-54555000D03*
X131745000Y-65985000D03*
X131745000Y-74985000D03*
D19*
X121285000Y-99695000D03*
X117475000Y-97155000D03*
X118745000Y-99695000D03*
X122845000Y-97155000D03*
D20*
X117475000Y-92075000D03*
D19*
X118745000Y-89535000D03*
X121285000Y-89535000D03*
D20*
X122845000Y-92075000D03*
D21*
X135128000Y-85166500D03*
X135128000Y-83616500D03*
D17*
X139700000Y-114840000D03*
X139700000Y-118840000D03*
X170180000Y-72835000D03*
X170180000Y-76835000D03*
X160020000Y-72930000D03*
X160020000Y-76930000D03*
D18*
X131745000Y-114245000D03*
X131745000Y-123245000D03*
X142575000Y-137215000D03*
X142575000Y-128215000D03*
X180285000Y-99395000D03*
X189285000Y-99395000D03*
X189285000Y-89835000D03*
X180285000Y-89835000D03*
D22*
X135778000Y-87270000D03*
X135128000Y-87270000D03*
X134478000Y-87270000D03*
X134478000Y-89260000D03*
X135128000Y-89260000D03*
X135778000Y-89260000D03*
D23*
X135128000Y-88265000D03*
D24*
X121760000Y-138340000D03*
D25*
X121760000Y-138340000D03*
X178434000Y-53340000D03*
D24*
X178434000Y-53340000D03*
X178434000Y-138340000D03*
D25*
X178434000Y-138340000D03*
X121760000Y-53340000D03*
D24*
X121760000Y-53340000D03*
D26*
X136271000Y-96646500D03*
X136271000Y-94996500D03*
X132715000Y-104520500D03*
X132715000Y-102870500D03*
D27*
X132969000Y-94996500D03*
X132969000Y-96646500D03*
D26*
X138938000Y-98933500D03*
X138938000Y-100583500D03*
D27*
X131318000Y-94996500D03*
X131318000Y-96646500D03*
X134620000Y-94996500D03*
X134620000Y-96646500D03*
D28*
X137175000Y-98808500D03*
X136525000Y-98808500D03*
X135875000Y-98808500D03*
X135875000Y-100708500D03*
X136525000Y-100708500D03*
X137175000Y-100708500D03*
D29*
X134620000Y-102920500D03*
X134620000Y-104470500D03*
D30*
X133619000Y-98808500D03*
X132969000Y-98808500D03*
X132319000Y-98808500D03*
X132319000Y-100708500D03*
X132969000Y-100708500D03*
X133619000Y-100708500D03*
M02*
