M48
; DRILL file {KiCad 7.0.7} date Tue Apr 30 19:36:00 2024
; FORMAT={-:-/ absolute / inch / decimal}
; #@! TF.CreationDate,2024-04-30T19:36:00-07:00
; #@! TF.GenerationSoftware,Kicad,Pcbnew,7.0.7
; #@! TF.FileFunction,Plated,1,2,PTH
FMAT,2
INCH
; #@! TA.AperFunction,Plated,PTH,ViaDrill
T1C0.0157
; #@! TA.AperFunction,Plated,PTH,ComponentDrill
T2C0.0787
; #@! TA.AperFunction,Plated,PTH,ComponentDrill
T3C0.0866
%
G90
G05
T1
X7.5835Y-8.228
X7.6004Y-8.1626
X7.6114Y-8.2858
X7.7244Y-4.2677
X7.7902Y-9.022
X7.8492Y-9.0421
X7.8657Y-9.1024
X8.1043Y-4.2512
T2
X6.7909Y-6.6232
X6.7941Y-5.2169
X6.8354Y-8.1512
X6.8362Y-3.8154
X7.1453Y-6.6232
X7.1484Y-5.2169
X7.1898Y-8.1512
X7.1906Y-3.8154
X7.761Y-7.8567
X7.7736Y-2.7917
X8.0697Y-8.3098
X8.0697Y-8.6642
X8.0697Y-9.2012
X8.0697Y-9.5555
X8.1154Y-7.8567
X8.128Y-2.7917
X8.6748Y-4.2957
X8.6791Y-1.8441
X8.7346Y-5.7335
X8.7366Y-7.1516
X9.0291Y-4.2957
X9.0335Y-1.8441
X9.089Y-5.7335
X9.0909Y-7.1516
T3
X6.4224Y-5.5823
X6.4228Y-1.498
X6.4232Y-9.6673
X7.6268Y-4.39
X7.6268Y-5.008
X7.7614Y-5.3354
X8.0732Y-5.3417
X8.2448Y-4.39
X8.2448Y-5.008
X9.4539Y-5.5827
X9.4539Y-9.6669
X9.4547Y-1.4976
T0
M30
