%TF.GenerationSoftware,KiCad,Pcbnew,7.0.7*%
%TF.CreationDate,2024-04-30T19:36:10-07:00*%
%TF.ProjectId,new_X_Y_Panels,6e65775f-585f-4595-9f50-616e656c732e,rev?*%
%TF.SameCoordinates,Original*%
%TF.FileFunction,Soldermask,Bot*%
%TF.FilePolarity,Negative*%
%FSLAX46Y46*%
G04 Gerber Fmt 4.6, Leading zero omitted, Abs format (unit mm)*
G04 Created by KiCad (PCBNEW 7.0.7) date 2024-04-30 19:36:10*
%MOMM*%
%LPD*%
G01*
G04 APERTURE LIST*
%ADD10C,0.010000*%
%ADD11C,2.600000*%
%ADD12C,3.800000*%
%ADD13C,3.000000*%
G04 APERTURE END LIST*
%TO.C,J3*%
D10*
X210236200Y-101141200D02*
X208733800Y-101141200D01*
X208733800Y-98088800D01*
X210236200Y-98088800D01*
X210236200Y-101141200D01*
G36*
X210236200Y-101141200D02*
G01*
X208733800Y-101141200D01*
X208733800Y-98088800D01*
X210236200Y-98088800D01*
X210236200Y-101141200D01*
G37*
X207216200Y-106391200D02*
X205963800Y-106391200D01*
X205963800Y-104788800D01*
X207216200Y-104788800D01*
X207216200Y-106391200D01*
G36*
X207216200Y-106391200D02*
G01*
X205963800Y-106391200D01*
X205963800Y-104788800D01*
X207216200Y-104788800D01*
X207216200Y-106391200D01*
G37*
X205216200Y-106391200D02*
X203963800Y-106391200D01*
X203963800Y-104788800D01*
X205216200Y-104788800D01*
X205216200Y-106391200D01*
G36*
X205216200Y-106391200D02*
G01*
X203963800Y-106391200D01*
X203963800Y-104788800D01*
X205216200Y-104788800D01*
X205216200Y-106391200D01*
G37*
X203216200Y-106391200D02*
X201963800Y-106391200D01*
X201963800Y-104788800D01*
X203216200Y-104788800D01*
X203216200Y-106391200D01*
G36*
X203216200Y-106391200D02*
G01*
X201963800Y-106391200D01*
X201963800Y-104788800D01*
X203216200Y-104788800D01*
X203216200Y-106391200D01*
G37*
X201216200Y-106391200D02*
X199963800Y-106391200D01*
X199963800Y-104788800D01*
X201216200Y-104788800D01*
X201216200Y-106391200D01*
G36*
X201216200Y-106391200D02*
G01*
X199963800Y-106391200D01*
X199963800Y-104788800D01*
X201216200Y-104788800D01*
X201216200Y-106391200D01*
G37*
X199216200Y-106391200D02*
X197963800Y-106391200D01*
X197963800Y-104788800D01*
X199216200Y-104788800D01*
X199216200Y-106391200D01*
G36*
X199216200Y-106391200D02*
G01*
X197963800Y-106391200D01*
X197963800Y-104788800D01*
X199216200Y-104788800D01*
X199216200Y-106391200D01*
G37*
X197216200Y-106391200D02*
X195963800Y-106391200D01*
X195963800Y-104788800D01*
X197216200Y-104788800D01*
X197216200Y-106391200D01*
G36*
X197216200Y-106391200D02*
G01*
X195963800Y-106391200D01*
X195963800Y-104788800D01*
X197216200Y-104788800D01*
X197216200Y-106391200D01*
G37*
X194446200Y-101141200D02*
X192943800Y-101141200D01*
X192943800Y-98088800D01*
X194446200Y-98088800D01*
X194446200Y-101141200D01*
G36*
X194446200Y-101141200D02*
G01*
X192943800Y-101141200D01*
X192943800Y-98088800D01*
X194446200Y-98088800D01*
X194446200Y-101141200D01*
G37*
%TD*%
D11*
%TO.C,H12*%
X240130000Y-141800000D03*
D12*
X240130000Y-141800000D03*
%TD*%
D13*
%TO.C,SC2*%
X182640000Y-96910000D03*
X173640000Y-96910000D03*
%TD*%
D11*
%TO.C,H8*%
X163150000Y-245550000D03*
D12*
X163150000Y-245550000D03*
%TD*%
D13*
%TO.C,SC1*%
X197450000Y-70910000D03*
X206450000Y-70910000D03*
%TD*%
%TO.C,SC12*%
X204970000Y-220070000D03*
X204970000Y-211070000D03*
%TD*%
%TO.C,SC11*%
X206130000Y-199560000D03*
X197130000Y-199560000D03*
%TD*%
D11*
%TO.C,H2*%
X209418885Y-127203250D03*
D12*
X209418885Y-127203250D03*
%TD*%
D13*
%TO.C,SC9*%
X230860000Y-145630000D03*
X221860000Y-145630000D03*
%TD*%
D11*
%TO.C,H9*%
X163130000Y-141790000D03*
D12*
X163130000Y-141790000D03*
%TD*%
D13*
%TO.C,SC7*%
X220450000Y-46840000D03*
X229450000Y-46840000D03*
%TD*%
D11*
%TO.C,H10*%
X163140000Y-38050000D03*
D12*
X163140000Y-38050000D03*
%TD*%
D11*
%TO.C,H1*%
X193721115Y-127203250D03*
D12*
X193721115Y-127203250D03*
%TD*%
D11*
%TO.C,H2*%
X205060000Y-135680000D03*
D12*
X205060000Y-135680000D03*
%TD*%
D13*
%TO.C,SC6*%
X204970000Y-242710000D03*
X204970000Y-233710000D03*
%TD*%
%TO.C,SC5*%
X182620000Y-207040000D03*
X173620000Y-207040000D03*
%TD*%
D11*
%TO.C,H7*%
X240130000Y-245540000D03*
D12*
X240130000Y-245540000D03*
%TD*%
D11*
%TO.C,H3*%
X209418885Y-111505480D03*
D12*
X209418885Y-111505480D03*
%TD*%
D11*
%TO.C,H11*%
X240150000Y-38040000D03*
D12*
X240150000Y-38040000D03*
%TD*%
D11*
%TO.C,H4*%
X193721115Y-111505480D03*
D12*
X193721115Y-111505480D03*
%TD*%
D13*
%TO.C,SC4*%
X181490000Y-168230000D03*
X172490000Y-168230000D03*
%TD*%
%TO.C,SC3*%
X181570000Y-132510000D03*
X172570000Y-132510000D03*
%TD*%
%TO.C,SC10*%
X230910000Y-181650000D03*
X221910000Y-181650000D03*
%TD*%
D11*
%TO.C,H1*%
X197140000Y-135520000D03*
D12*
X197140000Y-135520000D03*
%TD*%
D13*
%TO.C,SC8*%
X220340000Y-109110000D03*
X229340000Y-109110000D03*
%TD*%
M02*
