%TF.GenerationSoftware,KiCad,Pcbnew,7.0.8*%
%TF.CreationDate,2024-02-17T17:07:24-08:00*%
%TF.ProjectId,new_X_Y_Panels,6e65775f-585f-4595-9f50-616e656c732e,rev?*%
%TF.SameCoordinates,Original*%
%TF.FileFunction,Legend,Top*%
%TF.FilePolarity,Positive*%
%FSLAX46Y46*%
G04 Gerber Fmt 4.6, Leading zero omitted, Abs format (unit mm)*
G04 Created by KiCad (PCBNEW 7.0.8) date 2024-02-17 17:07:24*
%MOMM*%
%LPD*%
G01*
G04 APERTURE LIST*
%ADD10C,0.150000*%
%ADD11C,0.300000*%
%ADD12C,0.120000*%
%ADD13C,0.100000*%
G04 APERTURE END LIST*
D10*
X223128095Y-96347200D02*
X223270952Y-96394819D01*
X223270952Y-96394819D02*
X223509047Y-96394819D01*
X223509047Y-96394819D02*
X223604285Y-96347200D01*
X223604285Y-96347200D02*
X223651904Y-96299580D01*
X223651904Y-96299580D02*
X223699523Y-96204342D01*
X223699523Y-96204342D02*
X223699523Y-96109104D01*
X223699523Y-96109104D02*
X223651904Y-96013866D01*
X223651904Y-96013866D02*
X223604285Y-95966247D01*
X223604285Y-95966247D02*
X223509047Y-95918628D01*
X223509047Y-95918628D02*
X223318571Y-95871009D01*
X223318571Y-95871009D02*
X223223333Y-95823390D01*
X223223333Y-95823390D02*
X223175714Y-95775771D01*
X223175714Y-95775771D02*
X223128095Y-95680533D01*
X223128095Y-95680533D02*
X223128095Y-95585295D01*
X223128095Y-95585295D02*
X223175714Y-95490057D01*
X223175714Y-95490057D02*
X223223333Y-95442438D01*
X223223333Y-95442438D02*
X223318571Y-95394819D01*
X223318571Y-95394819D02*
X223556666Y-95394819D01*
X223556666Y-95394819D02*
X223699523Y-95442438D01*
X224699523Y-96299580D02*
X224651904Y-96347200D01*
X224651904Y-96347200D02*
X224509047Y-96394819D01*
X224509047Y-96394819D02*
X224413809Y-96394819D01*
X224413809Y-96394819D02*
X224270952Y-96347200D01*
X224270952Y-96347200D02*
X224175714Y-96251961D01*
X224175714Y-96251961D02*
X224128095Y-96156723D01*
X224128095Y-96156723D02*
X224080476Y-95966247D01*
X224080476Y-95966247D02*
X224080476Y-95823390D01*
X224080476Y-95823390D02*
X224128095Y-95632914D01*
X224128095Y-95632914D02*
X224175714Y-95537676D01*
X224175714Y-95537676D02*
X224270952Y-95442438D01*
X224270952Y-95442438D02*
X224413809Y-95394819D01*
X224413809Y-95394819D02*
X224509047Y-95394819D01*
X224509047Y-95394819D02*
X224651904Y-95442438D01*
X224651904Y-95442438D02*
X224699523Y-95490057D01*
X225270952Y-95823390D02*
X225175714Y-95775771D01*
X225175714Y-95775771D02*
X225128095Y-95728152D01*
X225128095Y-95728152D02*
X225080476Y-95632914D01*
X225080476Y-95632914D02*
X225080476Y-95585295D01*
X225080476Y-95585295D02*
X225128095Y-95490057D01*
X225128095Y-95490057D02*
X225175714Y-95442438D01*
X225175714Y-95442438D02*
X225270952Y-95394819D01*
X225270952Y-95394819D02*
X225461428Y-95394819D01*
X225461428Y-95394819D02*
X225556666Y-95442438D01*
X225556666Y-95442438D02*
X225604285Y-95490057D01*
X225604285Y-95490057D02*
X225651904Y-95585295D01*
X225651904Y-95585295D02*
X225651904Y-95632914D01*
X225651904Y-95632914D02*
X225604285Y-95728152D01*
X225604285Y-95728152D02*
X225556666Y-95775771D01*
X225556666Y-95775771D02*
X225461428Y-95823390D01*
X225461428Y-95823390D02*
X225270952Y-95823390D01*
X225270952Y-95823390D02*
X225175714Y-95871009D01*
X225175714Y-95871009D02*
X225128095Y-95918628D01*
X225128095Y-95918628D02*
X225080476Y-96013866D01*
X225080476Y-96013866D02*
X225080476Y-96204342D01*
X225080476Y-96204342D02*
X225128095Y-96299580D01*
X225128095Y-96299580D02*
X225175714Y-96347200D01*
X225175714Y-96347200D02*
X225270952Y-96394819D01*
X225270952Y-96394819D02*
X225461428Y-96394819D01*
X225461428Y-96394819D02*
X225556666Y-96347200D01*
X225556666Y-96347200D02*
X225604285Y-96299580D01*
X225604285Y-96299580D02*
X225651904Y-96204342D01*
X225651904Y-96204342D02*
X225651904Y-96013866D01*
X225651904Y-96013866D02*
X225604285Y-95918628D01*
X225604285Y-95918628D02*
X225556666Y-95871009D01*
X225556666Y-95871009D02*
X225461428Y-95823390D01*
X193919764Y-107772975D02*
X194626871Y-107065869D01*
X194626871Y-107065869D02*
X194795230Y-107234227D01*
X194795230Y-107234227D02*
X194862573Y-107368914D01*
X194862573Y-107368914D02*
X194862573Y-107503601D01*
X194862573Y-107503601D02*
X194828901Y-107604617D01*
X194828901Y-107604617D02*
X194727886Y-107772975D01*
X194727886Y-107772975D02*
X194626871Y-107873991D01*
X194626871Y-107873991D02*
X194458512Y-107975006D01*
X194458512Y-107975006D02*
X194357497Y-108008678D01*
X194357497Y-108008678D02*
X194222810Y-108008678D01*
X194222810Y-108008678D02*
X194088123Y-107941334D01*
X194088123Y-107941334D02*
X193919764Y-107772975D01*
X194997260Y-108850471D02*
X194593199Y-108446410D01*
X194795230Y-108648441D02*
X195502336Y-107941334D01*
X195502336Y-107941334D02*
X195333978Y-107975006D01*
X195333978Y-107975006D02*
X195199291Y-107975006D01*
X195199291Y-107975006D02*
X195098275Y-107941334D01*
X195940069Y-108379067D02*
X196411474Y-108850472D01*
X196411474Y-108850472D02*
X195401321Y-109254533D01*
X195451905Y-229954819D02*
X195451905Y-228954819D01*
X195451905Y-228954819D02*
X195690000Y-228954819D01*
X195690000Y-228954819D02*
X195832857Y-229002438D01*
X195832857Y-229002438D02*
X195928095Y-229097676D01*
X195928095Y-229097676D02*
X195975714Y-229192914D01*
X195975714Y-229192914D02*
X196023333Y-229383390D01*
X196023333Y-229383390D02*
X196023333Y-229526247D01*
X196023333Y-229526247D02*
X195975714Y-229716723D01*
X195975714Y-229716723D02*
X195928095Y-229811961D01*
X195928095Y-229811961D02*
X195832857Y-229907200D01*
X195832857Y-229907200D02*
X195690000Y-229954819D01*
X195690000Y-229954819D02*
X195451905Y-229954819D01*
X196880476Y-228954819D02*
X196690000Y-228954819D01*
X196690000Y-228954819D02*
X196594762Y-229002438D01*
X196594762Y-229002438D02*
X196547143Y-229050057D01*
X196547143Y-229050057D02*
X196451905Y-229192914D01*
X196451905Y-229192914D02*
X196404286Y-229383390D01*
X196404286Y-229383390D02*
X196404286Y-229764342D01*
X196404286Y-229764342D02*
X196451905Y-229859580D01*
X196451905Y-229859580D02*
X196499524Y-229907200D01*
X196499524Y-229907200D02*
X196594762Y-229954819D01*
X196594762Y-229954819D02*
X196785238Y-229954819D01*
X196785238Y-229954819D02*
X196880476Y-229907200D01*
X196880476Y-229907200D02*
X196928095Y-229859580D01*
X196928095Y-229859580D02*
X196975714Y-229764342D01*
X196975714Y-229764342D02*
X196975714Y-229526247D01*
X196975714Y-229526247D02*
X196928095Y-229431009D01*
X196928095Y-229431009D02*
X196880476Y-229383390D01*
X196880476Y-229383390D02*
X196785238Y-229335771D01*
X196785238Y-229335771D02*
X196594762Y-229335771D01*
X196594762Y-229335771D02*
X196499524Y-229383390D01*
X196499524Y-229383390D02*
X196451905Y-229431009D01*
X196451905Y-229431009D02*
X196404286Y-229526247D01*
X176378095Y-84317200D02*
X176520952Y-84364819D01*
X176520952Y-84364819D02*
X176759047Y-84364819D01*
X176759047Y-84364819D02*
X176854285Y-84317200D01*
X176854285Y-84317200D02*
X176901904Y-84269580D01*
X176901904Y-84269580D02*
X176949523Y-84174342D01*
X176949523Y-84174342D02*
X176949523Y-84079104D01*
X176949523Y-84079104D02*
X176901904Y-83983866D01*
X176901904Y-83983866D02*
X176854285Y-83936247D01*
X176854285Y-83936247D02*
X176759047Y-83888628D01*
X176759047Y-83888628D02*
X176568571Y-83841009D01*
X176568571Y-83841009D02*
X176473333Y-83793390D01*
X176473333Y-83793390D02*
X176425714Y-83745771D01*
X176425714Y-83745771D02*
X176378095Y-83650533D01*
X176378095Y-83650533D02*
X176378095Y-83555295D01*
X176378095Y-83555295D02*
X176425714Y-83460057D01*
X176425714Y-83460057D02*
X176473333Y-83412438D01*
X176473333Y-83412438D02*
X176568571Y-83364819D01*
X176568571Y-83364819D02*
X176806666Y-83364819D01*
X176806666Y-83364819D02*
X176949523Y-83412438D01*
X177949523Y-84269580D02*
X177901904Y-84317200D01*
X177901904Y-84317200D02*
X177759047Y-84364819D01*
X177759047Y-84364819D02*
X177663809Y-84364819D01*
X177663809Y-84364819D02*
X177520952Y-84317200D01*
X177520952Y-84317200D02*
X177425714Y-84221961D01*
X177425714Y-84221961D02*
X177378095Y-84126723D01*
X177378095Y-84126723D02*
X177330476Y-83936247D01*
X177330476Y-83936247D02*
X177330476Y-83793390D01*
X177330476Y-83793390D02*
X177378095Y-83602914D01*
X177378095Y-83602914D02*
X177425714Y-83507676D01*
X177425714Y-83507676D02*
X177520952Y-83412438D01*
X177520952Y-83412438D02*
X177663809Y-83364819D01*
X177663809Y-83364819D02*
X177759047Y-83364819D01*
X177759047Y-83364819D02*
X177901904Y-83412438D01*
X177901904Y-83412438D02*
X177949523Y-83460057D01*
X178330476Y-83460057D02*
X178378095Y-83412438D01*
X178378095Y-83412438D02*
X178473333Y-83364819D01*
X178473333Y-83364819D02*
X178711428Y-83364819D01*
X178711428Y-83364819D02*
X178806666Y-83412438D01*
X178806666Y-83412438D02*
X178854285Y-83460057D01*
X178854285Y-83460057D02*
X178901904Y-83555295D01*
X178901904Y-83555295D02*
X178901904Y-83650533D01*
X178901904Y-83650533D02*
X178854285Y-83793390D01*
X178854285Y-83793390D02*
X178282857Y-84364819D01*
X178282857Y-84364819D02*
X178901904Y-84364819D01*
X173451905Y-175004819D02*
X173451905Y-174004819D01*
X173451905Y-174004819D02*
X173690000Y-174004819D01*
X173690000Y-174004819D02*
X173832857Y-174052438D01*
X173832857Y-174052438D02*
X173928095Y-174147676D01*
X173928095Y-174147676D02*
X173975714Y-174242914D01*
X173975714Y-174242914D02*
X174023333Y-174433390D01*
X174023333Y-174433390D02*
X174023333Y-174576247D01*
X174023333Y-174576247D02*
X173975714Y-174766723D01*
X173975714Y-174766723D02*
X173928095Y-174861961D01*
X173928095Y-174861961D02*
X173832857Y-174957200D01*
X173832857Y-174957200D02*
X173690000Y-175004819D01*
X173690000Y-175004819D02*
X173451905Y-175004819D01*
X174880476Y-174338152D02*
X174880476Y-175004819D01*
X174642381Y-173957200D02*
X174404286Y-174671485D01*
X174404286Y-174671485D02*
X175023333Y-174671485D01*
X171011905Y-48044819D02*
X171011905Y-47044819D01*
X171011905Y-47044819D02*
X171250000Y-47044819D01*
X171250000Y-47044819D02*
X171392857Y-47092438D01*
X171392857Y-47092438D02*
X171488095Y-47187676D01*
X171488095Y-47187676D02*
X171535714Y-47282914D01*
X171535714Y-47282914D02*
X171583333Y-47473390D01*
X171583333Y-47473390D02*
X171583333Y-47616247D01*
X171583333Y-47616247D02*
X171535714Y-47806723D01*
X171535714Y-47806723D02*
X171488095Y-47901961D01*
X171488095Y-47901961D02*
X171392857Y-47997200D01*
X171392857Y-47997200D02*
X171250000Y-48044819D01*
X171250000Y-48044819D02*
X171011905Y-48044819D01*
X171964286Y-47140057D02*
X172011905Y-47092438D01*
X172011905Y-47092438D02*
X172107143Y-47044819D01*
X172107143Y-47044819D02*
X172345238Y-47044819D01*
X172345238Y-47044819D02*
X172440476Y-47092438D01*
X172440476Y-47092438D02*
X172488095Y-47140057D01*
X172488095Y-47140057D02*
X172535714Y-47235295D01*
X172535714Y-47235295D02*
X172535714Y-47330533D01*
X172535714Y-47330533D02*
X172488095Y-47473390D01*
X172488095Y-47473390D02*
X171916667Y-48044819D01*
X171916667Y-48044819D02*
X172535714Y-48044819D01*
X201188095Y-84317200D02*
X201330952Y-84364819D01*
X201330952Y-84364819D02*
X201569047Y-84364819D01*
X201569047Y-84364819D02*
X201664285Y-84317200D01*
X201664285Y-84317200D02*
X201711904Y-84269580D01*
X201711904Y-84269580D02*
X201759523Y-84174342D01*
X201759523Y-84174342D02*
X201759523Y-84079104D01*
X201759523Y-84079104D02*
X201711904Y-83983866D01*
X201711904Y-83983866D02*
X201664285Y-83936247D01*
X201664285Y-83936247D02*
X201569047Y-83888628D01*
X201569047Y-83888628D02*
X201378571Y-83841009D01*
X201378571Y-83841009D02*
X201283333Y-83793390D01*
X201283333Y-83793390D02*
X201235714Y-83745771D01*
X201235714Y-83745771D02*
X201188095Y-83650533D01*
X201188095Y-83650533D02*
X201188095Y-83555295D01*
X201188095Y-83555295D02*
X201235714Y-83460057D01*
X201235714Y-83460057D02*
X201283333Y-83412438D01*
X201283333Y-83412438D02*
X201378571Y-83364819D01*
X201378571Y-83364819D02*
X201616666Y-83364819D01*
X201616666Y-83364819D02*
X201759523Y-83412438D01*
X202759523Y-84269580D02*
X202711904Y-84317200D01*
X202711904Y-84317200D02*
X202569047Y-84364819D01*
X202569047Y-84364819D02*
X202473809Y-84364819D01*
X202473809Y-84364819D02*
X202330952Y-84317200D01*
X202330952Y-84317200D02*
X202235714Y-84221961D01*
X202235714Y-84221961D02*
X202188095Y-84126723D01*
X202188095Y-84126723D02*
X202140476Y-83936247D01*
X202140476Y-83936247D02*
X202140476Y-83793390D01*
X202140476Y-83793390D02*
X202188095Y-83602914D01*
X202188095Y-83602914D02*
X202235714Y-83507676D01*
X202235714Y-83507676D02*
X202330952Y-83412438D01*
X202330952Y-83412438D02*
X202473809Y-83364819D01*
X202473809Y-83364819D02*
X202569047Y-83364819D01*
X202569047Y-83364819D02*
X202711904Y-83412438D01*
X202711904Y-83412438D02*
X202759523Y-83460057D01*
X203711904Y-84364819D02*
X203140476Y-84364819D01*
X203426190Y-84364819D02*
X203426190Y-83364819D01*
X203426190Y-83364819D02*
X203330952Y-83507676D01*
X203330952Y-83507676D02*
X203235714Y-83602914D01*
X203235714Y-83602914D02*
X203140476Y-83650533D01*
X216231905Y-215477200D02*
X216374762Y-215524819D01*
X216374762Y-215524819D02*
X216612857Y-215524819D01*
X216612857Y-215524819D02*
X216708095Y-215477200D01*
X216708095Y-215477200D02*
X216755714Y-215429580D01*
X216755714Y-215429580D02*
X216803333Y-215334342D01*
X216803333Y-215334342D02*
X216803333Y-215239104D01*
X216803333Y-215239104D02*
X216755714Y-215143866D01*
X216755714Y-215143866D02*
X216708095Y-215096247D01*
X216708095Y-215096247D02*
X216612857Y-215048628D01*
X216612857Y-215048628D02*
X216422381Y-215001009D01*
X216422381Y-215001009D02*
X216327143Y-214953390D01*
X216327143Y-214953390D02*
X216279524Y-214905771D01*
X216279524Y-214905771D02*
X216231905Y-214810533D01*
X216231905Y-214810533D02*
X216231905Y-214715295D01*
X216231905Y-214715295D02*
X216279524Y-214620057D01*
X216279524Y-214620057D02*
X216327143Y-214572438D01*
X216327143Y-214572438D02*
X216422381Y-214524819D01*
X216422381Y-214524819D02*
X216660476Y-214524819D01*
X216660476Y-214524819D02*
X216803333Y-214572438D01*
X217803333Y-215429580D02*
X217755714Y-215477200D01*
X217755714Y-215477200D02*
X217612857Y-215524819D01*
X217612857Y-215524819D02*
X217517619Y-215524819D01*
X217517619Y-215524819D02*
X217374762Y-215477200D01*
X217374762Y-215477200D02*
X217279524Y-215381961D01*
X217279524Y-215381961D02*
X217231905Y-215286723D01*
X217231905Y-215286723D02*
X217184286Y-215096247D01*
X217184286Y-215096247D02*
X217184286Y-214953390D01*
X217184286Y-214953390D02*
X217231905Y-214762914D01*
X217231905Y-214762914D02*
X217279524Y-214667676D01*
X217279524Y-214667676D02*
X217374762Y-214572438D01*
X217374762Y-214572438D02*
X217517619Y-214524819D01*
X217517619Y-214524819D02*
X217612857Y-214524819D01*
X217612857Y-214524819D02*
X217755714Y-214572438D01*
X217755714Y-214572438D02*
X217803333Y-214620057D01*
X218755714Y-215524819D02*
X218184286Y-215524819D01*
X218470000Y-215524819D02*
X218470000Y-214524819D01*
X218470000Y-214524819D02*
X218374762Y-214667676D01*
X218374762Y-214667676D02*
X218279524Y-214762914D01*
X218279524Y-214762914D02*
X218184286Y-214810533D01*
X219136667Y-214620057D02*
X219184286Y-214572438D01*
X219184286Y-214572438D02*
X219279524Y-214524819D01*
X219279524Y-214524819D02*
X219517619Y-214524819D01*
X219517619Y-214524819D02*
X219612857Y-214572438D01*
X219612857Y-214572438D02*
X219660476Y-214620057D01*
X219660476Y-214620057D02*
X219708095Y-214715295D01*
X219708095Y-214715295D02*
X219708095Y-214810533D01*
X219708095Y-214810533D02*
X219660476Y-214953390D01*
X219660476Y-214953390D02*
X219089048Y-215524819D01*
X219089048Y-215524819D02*
X219708095Y-215524819D01*
X199391905Y-186967200D02*
X199534762Y-187014819D01*
X199534762Y-187014819D02*
X199772857Y-187014819D01*
X199772857Y-187014819D02*
X199868095Y-186967200D01*
X199868095Y-186967200D02*
X199915714Y-186919580D01*
X199915714Y-186919580D02*
X199963333Y-186824342D01*
X199963333Y-186824342D02*
X199963333Y-186729104D01*
X199963333Y-186729104D02*
X199915714Y-186633866D01*
X199915714Y-186633866D02*
X199868095Y-186586247D01*
X199868095Y-186586247D02*
X199772857Y-186538628D01*
X199772857Y-186538628D02*
X199582381Y-186491009D01*
X199582381Y-186491009D02*
X199487143Y-186443390D01*
X199487143Y-186443390D02*
X199439524Y-186395771D01*
X199439524Y-186395771D02*
X199391905Y-186300533D01*
X199391905Y-186300533D02*
X199391905Y-186205295D01*
X199391905Y-186205295D02*
X199439524Y-186110057D01*
X199439524Y-186110057D02*
X199487143Y-186062438D01*
X199487143Y-186062438D02*
X199582381Y-186014819D01*
X199582381Y-186014819D02*
X199820476Y-186014819D01*
X199820476Y-186014819D02*
X199963333Y-186062438D01*
X200963333Y-186919580D02*
X200915714Y-186967200D01*
X200915714Y-186967200D02*
X200772857Y-187014819D01*
X200772857Y-187014819D02*
X200677619Y-187014819D01*
X200677619Y-187014819D02*
X200534762Y-186967200D01*
X200534762Y-186967200D02*
X200439524Y-186871961D01*
X200439524Y-186871961D02*
X200391905Y-186776723D01*
X200391905Y-186776723D02*
X200344286Y-186586247D01*
X200344286Y-186586247D02*
X200344286Y-186443390D01*
X200344286Y-186443390D02*
X200391905Y-186252914D01*
X200391905Y-186252914D02*
X200439524Y-186157676D01*
X200439524Y-186157676D02*
X200534762Y-186062438D01*
X200534762Y-186062438D02*
X200677619Y-186014819D01*
X200677619Y-186014819D02*
X200772857Y-186014819D01*
X200772857Y-186014819D02*
X200915714Y-186062438D01*
X200915714Y-186062438D02*
X200963333Y-186110057D01*
X201915714Y-187014819D02*
X201344286Y-187014819D01*
X201630000Y-187014819D02*
X201630000Y-186014819D01*
X201630000Y-186014819D02*
X201534762Y-186157676D01*
X201534762Y-186157676D02*
X201439524Y-186252914D01*
X201439524Y-186252914D02*
X201344286Y-186300533D01*
X202868095Y-187014819D02*
X202296667Y-187014819D01*
X202582381Y-187014819D02*
X202582381Y-186014819D01*
X202582381Y-186014819D02*
X202487143Y-186157676D01*
X202487143Y-186157676D02*
X202391905Y-186252914D01*
X202391905Y-186252914D02*
X202296667Y-186300533D01*
X200631905Y-135554819D02*
X200631905Y-134554819D01*
X200631905Y-134554819D02*
X200870000Y-134554819D01*
X200870000Y-134554819D02*
X201012857Y-134602438D01*
X201012857Y-134602438D02*
X201108095Y-134697676D01*
X201108095Y-134697676D02*
X201155714Y-134792914D01*
X201155714Y-134792914D02*
X201203333Y-134983390D01*
X201203333Y-134983390D02*
X201203333Y-135126247D01*
X201203333Y-135126247D02*
X201155714Y-135316723D01*
X201155714Y-135316723D02*
X201108095Y-135411961D01*
X201108095Y-135411961D02*
X201012857Y-135507200D01*
X201012857Y-135507200D02*
X200870000Y-135554819D01*
X200870000Y-135554819D02*
X200631905Y-135554819D01*
X201536667Y-134554819D02*
X202155714Y-134554819D01*
X202155714Y-134554819D02*
X201822381Y-134935771D01*
X201822381Y-134935771D02*
X201965238Y-134935771D01*
X201965238Y-134935771D02*
X202060476Y-134983390D01*
X202060476Y-134983390D02*
X202108095Y-135031009D01*
X202108095Y-135031009D02*
X202155714Y-135126247D01*
X202155714Y-135126247D02*
X202155714Y-135364342D01*
X202155714Y-135364342D02*
X202108095Y-135459580D01*
X202108095Y-135459580D02*
X202060476Y-135507200D01*
X202060476Y-135507200D02*
X201965238Y-135554819D01*
X201965238Y-135554819D02*
X201679524Y-135554819D01*
X201679524Y-135554819D02*
X201584286Y-135507200D01*
X201584286Y-135507200D02*
X201536667Y-135459580D01*
X217825714Y-190384819D02*
X217825714Y-189384819D01*
X217825714Y-189384819D02*
X218063809Y-189384819D01*
X218063809Y-189384819D02*
X218206666Y-189432438D01*
X218206666Y-189432438D02*
X218301904Y-189527676D01*
X218301904Y-189527676D02*
X218349523Y-189622914D01*
X218349523Y-189622914D02*
X218397142Y-189813390D01*
X218397142Y-189813390D02*
X218397142Y-189956247D01*
X218397142Y-189956247D02*
X218349523Y-190146723D01*
X218349523Y-190146723D02*
X218301904Y-190241961D01*
X218301904Y-190241961D02*
X218206666Y-190337200D01*
X218206666Y-190337200D02*
X218063809Y-190384819D01*
X218063809Y-190384819D02*
X217825714Y-190384819D01*
X219349523Y-190384819D02*
X218778095Y-190384819D01*
X219063809Y-190384819D02*
X219063809Y-189384819D01*
X219063809Y-189384819D02*
X218968571Y-189527676D01*
X218968571Y-189527676D02*
X218873333Y-189622914D01*
X218873333Y-189622914D02*
X218778095Y-189670533D01*
X220301904Y-190384819D02*
X219730476Y-190384819D01*
X220016190Y-190384819D02*
X220016190Y-189384819D01*
X220016190Y-189384819D02*
X219920952Y-189527676D01*
X219920952Y-189527676D02*
X219825714Y-189622914D01*
X219825714Y-189622914D02*
X219730476Y-189670533D01*
X192091905Y-215214819D02*
X192091905Y-214214819D01*
X192091905Y-214214819D02*
X192330000Y-214214819D01*
X192330000Y-214214819D02*
X192472857Y-214262438D01*
X192472857Y-214262438D02*
X192568095Y-214357676D01*
X192568095Y-214357676D02*
X192615714Y-214452914D01*
X192615714Y-214452914D02*
X192663333Y-214643390D01*
X192663333Y-214643390D02*
X192663333Y-214786247D01*
X192663333Y-214786247D02*
X192615714Y-214976723D01*
X192615714Y-214976723D02*
X192568095Y-215071961D01*
X192568095Y-215071961D02*
X192472857Y-215167200D01*
X192472857Y-215167200D02*
X192330000Y-215214819D01*
X192330000Y-215214819D02*
X192091905Y-215214819D01*
X193568095Y-214214819D02*
X193091905Y-214214819D01*
X193091905Y-214214819D02*
X193044286Y-214691009D01*
X193044286Y-214691009D02*
X193091905Y-214643390D01*
X193091905Y-214643390D02*
X193187143Y-214595771D01*
X193187143Y-214595771D02*
X193425238Y-214595771D01*
X193425238Y-214595771D02*
X193520476Y-214643390D01*
X193520476Y-214643390D02*
X193568095Y-214691009D01*
X193568095Y-214691009D02*
X193615714Y-214786247D01*
X193615714Y-214786247D02*
X193615714Y-215024342D01*
X193615714Y-215024342D02*
X193568095Y-215119580D01*
X193568095Y-215119580D02*
X193520476Y-215167200D01*
X193520476Y-215167200D02*
X193425238Y-215214819D01*
X193425238Y-215214819D02*
X193187143Y-215214819D01*
X193187143Y-215214819D02*
X193091905Y-215167200D01*
X193091905Y-215167200D02*
X193044286Y-215119580D01*
X224598095Y-133037200D02*
X224740952Y-133084819D01*
X224740952Y-133084819D02*
X224979047Y-133084819D01*
X224979047Y-133084819D02*
X225074285Y-133037200D01*
X225074285Y-133037200D02*
X225121904Y-132989580D01*
X225121904Y-132989580D02*
X225169523Y-132894342D01*
X225169523Y-132894342D02*
X225169523Y-132799104D01*
X225169523Y-132799104D02*
X225121904Y-132703866D01*
X225121904Y-132703866D02*
X225074285Y-132656247D01*
X225074285Y-132656247D02*
X224979047Y-132608628D01*
X224979047Y-132608628D02*
X224788571Y-132561009D01*
X224788571Y-132561009D02*
X224693333Y-132513390D01*
X224693333Y-132513390D02*
X224645714Y-132465771D01*
X224645714Y-132465771D02*
X224598095Y-132370533D01*
X224598095Y-132370533D02*
X224598095Y-132275295D01*
X224598095Y-132275295D02*
X224645714Y-132180057D01*
X224645714Y-132180057D02*
X224693333Y-132132438D01*
X224693333Y-132132438D02*
X224788571Y-132084819D01*
X224788571Y-132084819D02*
X225026666Y-132084819D01*
X225026666Y-132084819D02*
X225169523Y-132132438D01*
X226169523Y-132989580D02*
X226121904Y-133037200D01*
X226121904Y-133037200D02*
X225979047Y-133084819D01*
X225979047Y-133084819D02*
X225883809Y-133084819D01*
X225883809Y-133084819D02*
X225740952Y-133037200D01*
X225740952Y-133037200D02*
X225645714Y-132941961D01*
X225645714Y-132941961D02*
X225598095Y-132846723D01*
X225598095Y-132846723D02*
X225550476Y-132656247D01*
X225550476Y-132656247D02*
X225550476Y-132513390D01*
X225550476Y-132513390D02*
X225598095Y-132322914D01*
X225598095Y-132322914D02*
X225645714Y-132227676D01*
X225645714Y-132227676D02*
X225740952Y-132132438D01*
X225740952Y-132132438D02*
X225883809Y-132084819D01*
X225883809Y-132084819D02*
X225979047Y-132084819D01*
X225979047Y-132084819D02*
X226121904Y-132132438D01*
X226121904Y-132132438D02*
X226169523Y-132180057D01*
X226645714Y-133084819D02*
X226836190Y-133084819D01*
X226836190Y-133084819D02*
X226931428Y-133037200D01*
X226931428Y-133037200D02*
X226979047Y-132989580D01*
X226979047Y-132989580D02*
X227074285Y-132846723D01*
X227074285Y-132846723D02*
X227121904Y-132656247D01*
X227121904Y-132656247D02*
X227121904Y-132275295D01*
X227121904Y-132275295D02*
X227074285Y-132180057D01*
X227074285Y-132180057D02*
X227026666Y-132132438D01*
X227026666Y-132132438D02*
X226931428Y-132084819D01*
X226931428Y-132084819D02*
X226740952Y-132084819D01*
X226740952Y-132084819D02*
X226645714Y-132132438D01*
X226645714Y-132132438D02*
X226598095Y-132180057D01*
X226598095Y-132180057D02*
X226550476Y-132275295D01*
X226550476Y-132275295D02*
X226550476Y-132513390D01*
X226550476Y-132513390D02*
X226598095Y-132608628D01*
X226598095Y-132608628D02*
X226645714Y-132656247D01*
X226645714Y-132656247D02*
X226740952Y-132703866D01*
X226740952Y-132703866D02*
X226931428Y-132703866D01*
X226931428Y-132703866D02*
X227026666Y-132656247D01*
X227026666Y-132656247D02*
X227074285Y-132608628D01*
X227074285Y-132608628D02*
X227121904Y-132513390D01*
X210721905Y-45104819D02*
X210721905Y-44104819D01*
X210721905Y-44104819D02*
X210960000Y-44104819D01*
X210960000Y-44104819D02*
X211102857Y-44152438D01*
X211102857Y-44152438D02*
X211198095Y-44247676D01*
X211198095Y-44247676D02*
X211245714Y-44342914D01*
X211245714Y-44342914D02*
X211293333Y-44533390D01*
X211293333Y-44533390D02*
X211293333Y-44676247D01*
X211293333Y-44676247D02*
X211245714Y-44866723D01*
X211245714Y-44866723D02*
X211198095Y-44961961D01*
X211198095Y-44961961D02*
X211102857Y-45057200D01*
X211102857Y-45057200D02*
X210960000Y-45104819D01*
X210960000Y-45104819D02*
X210721905Y-45104819D01*
X212245714Y-45104819D02*
X211674286Y-45104819D01*
X211960000Y-45104819D02*
X211960000Y-44104819D01*
X211960000Y-44104819D02*
X211864762Y-44247676D01*
X211864762Y-44247676D02*
X211769524Y-44342914D01*
X211769524Y-44342914D02*
X211674286Y-44390533D01*
X210991905Y-109914819D02*
X210991905Y-108914819D01*
X210991905Y-108914819D02*
X211230000Y-108914819D01*
X211230000Y-108914819D02*
X211372857Y-108962438D01*
X211372857Y-108962438D02*
X211468095Y-109057676D01*
X211468095Y-109057676D02*
X211515714Y-109152914D01*
X211515714Y-109152914D02*
X211563333Y-109343390D01*
X211563333Y-109343390D02*
X211563333Y-109486247D01*
X211563333Y-109486247D02*
X211515714Y-109676723D01*
X211515714Y-109676723D02*
X211468095Y-109771961D01*
X211468095Y-109771961D02*
X211372857Y-109867200D01*
X211372857Y-109867200D02*
X211230000Y-109914819D01*
X211230000Y-109914819D02*
X210991905Y-109914819D01*
X212134762Y-109343390D02*
X212039524Y-109295771D01*
X212039524Y-109295771D02*
X211991905Y-109248152D01*
X211991905Y-109248152D02*
X211944286Y-109152914D01*
X211944286Y-109152914D02*
X211944286Y-109105295D01*
X211944286Y-109105295D02*
X211991905Y-109010057D01*
X211991905Y-109010057D02*
X212039524Y-108962438D01*
X212039524Y-108962438D02*
X212134762Y-108914819D01*
X212134762Y-108914819D02*
X212325238Y-108914819D01*
X212325238Y-108914819D02*
X212420476Y-108962438D01*
X212420476Y-108962438D02*
X212468095Y-109010057D01*
X212468095Y-109010057D02*
X212515714Y-109105295D01*
X212515714Y-109105295D02*
X212515714Y-109152914D01*
X212515714Y-109152914D02*
X212468095Y-109248152D01*
X212468095Y-109248152D02*
X212420476Y-109295771D01*
X212420476Y-109295771D02*
X212325238Y-109343390D01*
X212325238Y-109343390D02*
X212134762Y-109343390D01*
X212134762Y-109343390D02*
X212039524Y-109391009D01*
X212039524Y-109391009D02*
X211991905Y-109438628D01*
X211991905Y-109438628D02*
X211944286Y-109533866D01*
X211944286Y-109533866D02*
X211944286Y-109724342D01*
X211944286Y-109724342D02*
X211991905Y-109819580D01*
X211991905Y-109819580D02*
X212039524Y-109867200D01*
X212039524Y-109867200D02*
X212134762Y-109914819D01*
X212134762Y-109914819D02*
X212325238Y-109914819D01*
X212325238Y-109914819D02*
X212420476Y-109867200D01*
X212420476Y-109867200D02*
X212468095Y-109819580D01*
X212468095Y-109819580D02*
X212515714Y-109724342D01*
X212515714Y-109724342D02*
X212515714Y-109533866D01*
X212515714Y-109533866D02*
X212468095Y-109438628D01*
X212468095Y-109438628D02*
X212420476Y-109391009D01*
X212420476Y-109391009D02*
X212325238Y-109343390D01*
X224188095Y-60247200D02*
X224330952Y-60294819D01*
X224330952Y-60294819D02*
X224569047Y-60294819D01*
X224569047Y-60294819D02*
X224664285Y-60247200D01*
X224664285Y-60247200D02*
X224711904Y-60199580D01*
X224711904Y-60199580D02*
X224759523Y-60104342D01*
X224759523Y-60104342D02*
X224759523Y-60009104D01*
X224759523Y-60009104D02*
X224711904Y-59913866D01*
X224711904Y-59913866D02*
X224664285Y-59866247D01*
X224664285Y-59866247D02*
X224569047Y-59818628D01*
X224569047Y-59818628D02*
X224378571Y-59771009D01*
X224378571Y-59771009D02*
X224283333Y-59723390D01*
X224283333Y-59723390D02*
X224235714Y-59675771D01*
X224235714Y-59675771D02*
X224188095Y-59580533D01*
X224188095Y-59580533D02*
X224188095Y-59485295D01*
X224188095Y-59485295D02*
X224235714Y-59390057D01*
X224235714Y-59390057D02*
X224283333Y-59342438D01*
X224283333Y-59342438D02*
X224378571Y-59294819D01*
X224378571Y-59294819D02*
X224616666Y-59294819D01*
X224616666Y-59294819D02*
X224759523Y-59342438D01*
X225759523Y-60199580D02*
X225711904Y-60247200D01*
X225711904Y-60247200D02*
X225569047Y-60294819D01*
X225569047Y-60294819D02*
X225473809Y-60294819D01*
X225473809Y-60294819D02*
X225330952Y-60247200D01*
X225330952Y-60247200D02*
X225235714Y-60151961D01*
X225235714Y-60151961D02*
X225188095Y-60056723D01*
X225188095Y-60056723D02*
X225140476Y-59866247D01*
X225140476Y-59866247D02*
X225140476Y-59723390D01*
X225140476Y-59723390D02*
X225188095Y-59532914D01*
X225188095Y-59532914D02*
X225235714Y-59437676D01*
X225235714Y-59437676D02*
X225330952Y-59342438D01*
X225330952Y-59342438D02*
X225473809Y-59294819D01*
X225473809Y-59294819D02*
X225569047Y-59294819D01*
X225569047Y-59294819D02*
X225711904Y-59342438D01*
X225711904Y-59342438D02*
X225759523Y-59390057D01*
X226092857Y-59294819D02*
X226759523Y-59294819D01*
X226759523Y-59294819D02*
X226330952Y-60294819D01*
X216708095Y-238117200D02*
X216850952Y-238164819D01*
X216850952Y-238164819D02*
X217089047Y-238164819D01*
X217089047Y-238164819D02*
X217184285Y-238117200D01*
X217184285Y-238117200D02*
X217231904Y-238069580D01*
X217231904Y-238069580D02*
X217279523Y-237974342D01*
X217279523Y-237974342D02*
X217279523Y-237879104D01*
X217279523Y-237879104D02*
X217231904Y-237783866D01*
X217231904Y-237783866D02*
X217184285Y-237736247D01*
X217184285Y-237736247D02*
X217089047Y-237688628D01*
X217089047Y-237688628D02*
X216898571Y-237641009D01*
X216898571Y-237641009D02*
X216803333Y-237593390D01*
X216803333Y-237593390D02*
X216755714Y-237545771D01*
X216755714Y-237545771D02*
X216708095Y-237450533D01*
X216708095Y-237450533D02*
X216708095Y-237355295D01*
X216708095Y-237355295D02*
X216755714Y-237260057D01*
X216755714Y-237260057D02*
X216803333Y-237212438D01*
X216803333Y-237212438D02*
X216898571Y-237164819D01*
X216898571Y-237164819D02*
X217136666Y-237164819D01*
X217136666Y-237164819D02*
X217279523Y-237212438D01*
X218279523Y-238069580D02*
X218231904Y-238117200D01*
X218231904Y-238117200D02*
X218089047Y-238164819D01*
X218089047Y-238164819D02*
X217993809Y-238164819D01*
X217993809Y-238164819D02*
X217850952Y-238117200D01*
X217850952Y-238117200D02*
X217755714Y-238021961D01*
X217755714Y-238021961D02*
X217708095Y-237926723D01*
X217708095Y-237926723D02*
X217660476Y-237736247D01*
X217660476Y-237736247D02*
X217660476Y-237593390D01*
X217660476Y-237593390D02*
X217708095Y-237402914D01*
X217708095Y-237402914D02*
X217755714Y-237307676D01*
X217755714Y-237307676D02*
X217850952Y-237212438D01*
X217850952Y-237212438D02*
X217993809Y-237164819D01*
X217993809Y-237164819D02*
X218089047Y-237164819D01*
X218089047Y-237164819D02*
X218231904Y-237212438D01*
X218231904Y-237212438D02*
X218279523Y-237260057D01*
X219136666Y-237164819D02*
X218946190Y-237164819D01*
X218946190Y-237164819D02*
X218850952Y-237212438D01*
X218850952Y-237212438D02*
X218803333Y-237260057D01*
X218803333Y-237260057D02*
X218708095Y-237402914D01*
X218708095Y-237402914D02*
X218660476Y-237593390D01*
X218660476Y-237593390D02*
X218660476Y-237974342D01*
X218660476Y-237974342D02*
X218708095Y-238069580D01*
X218708095Y-238069580D02*
X218755714Y-238117200D01*
X218755714Y-238117200D02*
X218850952Y-238164819D01*
X218850952Y-238164819D02*
X219041428Y-238164819D01*
X219041428Y-238164819D02*
X219136666Y-238117200D01*
X219136666Y-238117200D02*
X219184285Y-238069580D01*
X219184285Y-238069580D02*
X219231904Y-237974342D01*
X219231904Y-237974342D02*
X219231904Y-237736247D01*
X219231904Y-237736247D02*
X219184285Y-237641009D01*
X219184285Y-237641009D02*
X219136666Y-237593390D01*
X219136666Y-237593390D02*
X219041428Y-237545771D01*
X219041428Y-237545771D02*
X218850952Y-237545771D01*
X218850952Y-237545771D02*
X218755714Y-237593390D01*
X218755714Y-237593390D02*
X218708095Y-237641009D01*
X218708095Y-237641009D02*
X218660476Y-237736247D01*
X176358095Y-194447200D02*
X176500952Y-194494819D01*
X176500952Y-194494819D02*
X176739047Y-194494819D01*
X176739047Y-194494819D02*
X176834285Y-194447200D01*
X176834285Y-194447200D02*
X176881904Y-194399580D01*
X176881904Y-194399580D02*
X176929523Y-194304342D01*
X176929523Y-194304342D02*
X176929523Y-194209104D01*
X176929523Y-194209104D02*
X176881904Y-194113866D01*
X176881904Y-194113866D02*
X176834285Y-194066247D01*
X176834285Y-194066247D02*
X176739047Y-194018628D01*
X176739047Y-194018628D02*
X176548571Y-193971009D01*
X176548571Y-193971009D02*
X176453333Y-193923390D01*
X176453333Y-193923390D02*
X176405714Y-193875771D01*
X176405714Y-193875771D02*
X176358095Y-193780533D01*
X176358095Y-193780533D02*
X176358095Y-193685295D01*
X176358095Y-193685295D02*
X176405714Y-193590057D01*
X176405714Y-193590057D02*
X176453333Y-193542438D01*
X176453333Y-193542438D02*
X176548571Y-193494819D01*
X176548571Y-193494819D02*
X176786666Y-193494819D01*
X176786666Y-193494819D02*
X176929523Y-193542438D01*
X177929523Y-194399580D02*
X177881904Y-194447200D01*
X177881904Y-194447200D02*
X177739047Y-194494819D01*
X177739047Y-194494819D02*
X177643809Y-194494819D01*
X177643809Y-194494819D02*
X177500952Y-194447200D01*
X177500952Y-194447200D02*
X177405714Y-194351961D01*
X177405714Y-194351961D02*
X177358095Y-194256723D01*
X177358095Y-194256723D02*
X177310476Y-194066247D01*
X177310476Y-194066247D02*
X177310476Y-193923390D01*
X177310476Y-193923390D02*
X177358095Y-193732914D01*
X177358095Y-193732914D02*
X177405714Y-193637676D01*
X177405714Y-193637676D02*
X177500952Y-193542438D01*
X177500952Y-193542438D02*
X177643809Y-193494819D01*
X177643809Y-193494819D02*
X177739047Y-193494819D01*
X177739047Y-193494819D02*
X177881904Y-193542438D01*
X177881904Y-193542438D02*
X177929523Y-193590057D01*
X178834285Y-193494819D02*
X178358095Y-193494819D01*
X178358095Y-193494819D02*
X178310476Y-193971009D01*
X178310476Y-193971009D02*
X178358095Y-193923390D01*
X178358095Y-193923390D02*
X178453333Y-193875771D01*
X178453333Y-193875771D02*
X178691428Y-193875771D01*
X178691428Y-193875771D02*
X178786666Y-193923390D01*
X178786666Y-193923390D02*
X178834285Y-193971009D01*
X178834285Y-193971009D02*
X178881904Y-194066247D01*
X178881904Y-194066247D02*
X178881904Y-194304342D01*
X178881904Y-194304342D02*
X178834285Y-194399580D01*
X178834285Y-194399580D02*
X178786666Y-194447200D01*
X178786666Y-194447200D02*
X178691428Y-194494819D01*
X178691428Y-194494819D02*
X178453333Y-194494819D01*
X178453333Y-194494819D02*
X178358095Y-194447200D01*
X178358095Y-194447200D02*
X178310476Y-194399580D01*
X220665714Y-38144819D02*
X220665714Y-37144819D01*
X220665714Y-37144819D02*
X220903809Y-37144819D01*
X220903809Y-37144819D02*
X221046666Y-37192438D01*
X221046666Y-37192438D02*
X221141904Y-37287676D01*
X221141904Y-37287676D02*
X221189523Y-37382914D01*
X221189523Y-37382914D02*
X221237142Y-37573390D01*
X221237142Y-37573390D02*
X221237142Y-37716247D01*
X221237142Y-37716247D02*
X221189523Y-37906723D01*
X221189523Y-37906723D02*
X221141904Y-38001961D01*
X221141904Y-38001961D02*
X221046666Y-38097200D01*
X221046666Y-38097200D02*
X220903809Y-38144819D01*
X220903809Y-38144819D02*
X220665714Y-38144819D01*
X222189523Y-38144819D02*
X221618095Y-38144819D01*
X221903809Y-38144819D02*
X221903809Y-37144819D01*
X221903809Y-37144819D02*
X221808571Y-37287676D01*
X221808571Y-37287676D02*
X221713333Y-37382914D01*
X221713333Y-37382914D02*
X221618095Y-37430533D01*
X222522857Y-37144819D02*
X223141904Y-37144819D01*
X223141904Y-37144819D02*
X222808571Y-37525771D01*
X222808571Y-37525771D02*
X222951428Y-37525771D01*
X222951428Y-37525771D02*
X223046666Y-37573390D01*
X223046666Y-37573390D02*
X223094285Y-37621009D01*
X223094285Y-37621009D02*
X223141904Y-37716247D01*
X223141904Y-37716247D02*
X223141904Y-37954342D01*
X223141904Y-37954342D02*
X223094285Y-38049580D01*
X223094285Y-38049580D02*
X223046666Y-38097200D01*
X223046666Y-38097200D02*
X222951428Y-38144819D01*
X222951428Y-38144819D02*
X222665714Y-38144819D01*
X222665714Y-38144819D02*
X222570476Y-38097200D01*
X222570476Y-38097200D02*
X222522857Y-38049580D01*
X212611905Y-128944819D02*
X212611905Y-127944819D01*
X212611905Y-127944819D02*
X212850000Y-127944819D01*
X212850000Y-127944819D02*
X212992857Y-127992438D01*
X212992857Y-127992438D02*
X213088095Y-128087676D01*
X213088095Y-128087676D02*
X213135714Y-128182914D01*
X213135714Y-128182914D02*
X213183333Y-128373390D01*
X213183333Y-128373390D02*
X213183333Y-128516247D01*
X213183333Y-128516247D02*
X213135714Y-128706723D01*
X213135714Y-128706723D02*
X213088095Y-128801961D01*
X213088095Y-128801961D02*
X212992857Y-128897200D01*
X212992857Y-128897200D02*
X212850000Y-128944819D01*
X212850000Y-128944819D02*
X212611905Y-128944819D01*
X213659524Y-128944819D02*
X213850000Y-128944819D01*
X213850000Y-128944819D02*
X213945238Y-128897200D01*
X213945238Y-128897200D02*
X213992857Y-128849580D01*
X213992857Y-128849580D02*
X214088095Y-128706723D01*
X214088095Y-128706723D02*
X214135714Y-128516247D01*
X214135714Y-128516247D02*
X214135714Y-128135295D01*
X214135714Y-128135295D02*
X214088095Y-128040057D01*
X214088095Y-128040057D02*
X214040476Y-127992438D01*
X214040476Y-127992438D02*
X213945238Y-127944819D01*
X213945238Y-127944819D02*
X213754762Y-127944819D01*
X213754762Y-127944819D02*
X213659524Y-127992438D01*
X213659524Y-127992438D02*
X213611905Y-128040057D01*
X213611905Y-128040057D02*
X213564286Y-128135295D01*
X213564286Y-128135295D02*
X213564286Y-128373390D01*
X213564286Y-128373390D02*
X213611905Y-128468628D01*
X213611905Y-128468628D02*
X213659524Y-128516247D01*
X213659524Y-128516247D02*
X213754762Y-128563866D01*
X213754762Y-128563866D02*
X213945238Y-128563866D01*
X213945238Y-128563866D02*
X214040476Y-128516247D01*
X214040476Y-128516247D02*
X214088095Y-128468628D01*
X214088095Y-128468628D02*
X214135714Y-128373390D01*
X193605714Y-207284819D02*
X193605714Y-206284819D01*
X193605714Y-206284819D02*
X193843809Y-206284819D01*
X193843809Y-206284819D02*
X193986666Y-206332438D01*
X193986666Y-206332438D02*
X194081904Y-206427676D01*
X194081904Y-206427676D02*
X194129523Y-206522914D01*
X194129523Y-206522914D02*
X194177142Y-206713390D01*
X194177142Y-206713390D02*
X194177142Y-206856247D01*
X194177142Y-206856247D02*
X194129523Y-207046723D01*
X194129523Y-207046723D02*
X194081904Y-207141961D01*
X194081904Y-207141961D02*
X193986666Y-207237200D01*
X193986666Y-207237200D02*
X193843809Y-207284819D01*
X193843809Y-207284819D02*
X193605714Y-207284819D01*
X195129523Y-207284819D02*
X194558095Y-207284819D01*
X194843809Y-207284819D02*
X194843809Y-206284819D01*
X194843809Y-206284819D02*
X194748571Y-206427676D01*
X194748571Y-206427676D02*
X194653333Y-206522914D01*
X194653333Y-206522914D02*
X194558095Y-206570533D01*
X195510476Y-206380057D02*
X195558095Y-206332438D01*
X195558095Y-206332438D02*
X195653333Y-206284819D01*
X195653333Y-206284819D02*
X195891428Y-206284819D01*
X195891428Y-206284819D02*
X195986666Y-206332438D01*
X195986666Y-206332438D02*
X196034285Y-206380057D01*
X196034285Y-206380057D02*
X196081904Y-206475295D01*
X196081904Y-206475295D02*
X196081904Y-206570533D01*
X196081904Y-206570533D02*
X196034285Y-206713390D01*
X196034285Y-206713390D02*
X195462857Y-207284819D01*
X195462857Y-207284819D02*
X196081904Y-207284819D01*
X175228095Y-155637200D02*
X175370952Y-155684819D01*
X175370952Y-155684819D02*
X175609047Y-155684819D01*
X175609047Y-155684819D02*
X175704285Y-155637200D01*
X175704285Y-155637200D02*
X175751904Y-155589580D01*
X175751904Y-155589580D02*
X175799523Y-155494342D01*
X175799523Y-155494342D02*
X175799523Y-155399104D01*
X175799523Y-155399104D02*
X175751904Y-155303866D01*
X175751904Y-155303866D02*
X175704285Y-155256247D01*
X175704285Y-155256247D02*
X175609047Y-155208628D01*
X175609047Y-155208628D02*
X175418571Y-155161009D01*
X175418571Y-155161009D02*
X175323333Y-155113390D01*
X175323333Y-155113390D02*
X175275714Y-155065771D01*
X175275714Y-155065771D02*
X175228095Y-154970533D01*
X175228095Y-154970533D02*
X175228095Y-154875295D01*
X175228095Y-154875295D02*
X175275714Y-154780057D01*
X175275714Y-154780057D02*
X175323333Y-154732438D01*
X175323333Y-154732438D02*
X175418571Y-154684819D01*
X175418571Y-154684819D02*
X175656666Y-154684819D01*
X175656666Y-154684819D02*
X175799523Y-154732438D01*
X176799523Y-155589580D02*
X176751904Y-155637200D01*
X176751904Y-155637200D02*
X176609047Y-155684819D01*
X176609047Y-155684819D02*
X176513809Y-155684819D01*
X176513809Y-155684819D02*
X176370952Y-155637200D01*
X176370952Y-155637200D02*
X176275714Y-155541961D01*
X176275714Y-155541961D02*
X176228095Y-155446723D01*
X176228095Y-155446723D02*
X176180476Y-155256247D01*
X176180476Y-155256247D02*
X176180476Y-155113390D01*
X176180476Y-155113390D02*
X176228095Y-154922914D01*
X176228095Y-154922914D02*
X176275714Y-154827676D01*
X176275714Y-154827676D02*
X176370952Y-154732438D01*
X176370952Y-154732438D02*
X176513809Y-154684819D01*
X176513809Y-154684819D02*
X176609047Y-154684819D01*
X176609047Y-154684819D02*
X176751904Y-154732438D01*
X176751904Y-154732438D02*
X176799523Y-154780057D01*
X177656666Y-155018152D02*
X177656666Y-155684819D01*
X177418571Y-154637200D02*
X177180476Y-155351485D01*
X177180476Y-155351485D02*
X177799523Y-155351485D01*
X175308095Y-119917200D02*
X175450952Y-119964819D01*
X175450952Y-119964819D02*
X175689047Y-119964819D01*
X175689047Y-119964819D02*
X175784285Y-119917200D01*
X175784285Y-119917200D02*
X175831904Y-119869580D01*
X175831904Y-119869580D02*
X175879523Y-119774342D01*
X175879523Y-119774342D02*
X175879523Y-119679104D01*
X175879523Y-119679104D02*
X175831904Y-119583866D01*
X175831904Y-119583866D02*
X175784285Y-119536247D01*
X175784285Y-119536247D02*
X175689047Y-119488628D01*
X175689047Y-119488628D02*
X175498571Y-119441009D01*
X175498571Y-119441009D02*
X175403333Y-119393390D01*
X175403333Y-119393390D02*
X175355714Y-119345771D01*
X175355714Y-119345771D02*
X175308095Y-119250533D01*
X175308095Y-119250533D02*
X175308095Y-119155295D01*
X175308095Y-119155295D02*
X175355714Y-119060057D01*
X175355714Y-119060057D02*
X175403333Y-119012438D01*
X175403333Y-119012438D02*
X175498571Y-118964819D01*
X175498571Y-118964819D02*
X175736666Y-118964819D01*
X175736666Y-118964819D02*
X175879523Y-119012438D01*
X176879523Y-119869580D02*
X176831904Y-119917200D01*
X176831904Y-119917200D02*
X176689047Y-119964819D01*
X176689047Y-119964819D02*
X176593809Y-119964819D01*
X176593809Y-119964819D02*
X176450952Y-119917200D01*
X176450952Y-119917200D02*
X176355714Y-119821961D01*
X176355714Y-119821961D02*
X176308095Y-119726723D01*
X176308095Y-119726723D02*
X176260476Y-119536247D01*
X176260476Y-119536247D02*
X176260476Y-119393390D01*
X176260476Y-119393390D02*
X176308095Y-119202914D01*
X176308095Y-119202914D02*
X176355714Y-119107676D01*
X176355714Y-119107676D02*
X176450952Y-119012438D01*
X176450952Y-119012438D02*
X176593809Y-118964819D01*
X176593809Y-118964819D02*
X176689047Y-118964819D01*
X176689047Y-118964819D02*
X176831904Y-119012438D01*
X176831904Y-119012438D02*
X176879523Y-119060057D01*
X177212857Y-118964819D02*
X177831904Y-118964819D01*
X177831904Y-118964819D02*
X177498571Y-119345771D01*
X177498571Y-119345771D02*
X177641428Y-119345771D01*
X177641428Y-119345771D02*
X177736666Y-119393390D01*
X177736666Y-119393390D02*
X177784285Y-119441009D01*
X177784285Y-119441009D02*
X177831904Y-119536247D01*
X177831904Y-119536247D02*
X177831904Y-119774342D01*
X177831904Y-119774342D02*
X177784285Y-119869580D01*
X177784285Y-119869580D02*
X177736666Y-119917200D01*
X177736666Y-119917200D02*
X177641428Y-119964819D01*
X177641428Y-119964819D02*
X177355714Y-119964819D01*
X177355714Y-119964819D02*
X177260476Y-119917200D01*
X177260476Y-119917200D02*
X177212857Y-119869580D01*
X227735714Y-190474819D02*
X227735714Y-189474819D01*
X227735714Y-189474819D02*
X227973809Y-189474819D01*
X227973809Y-189474819D02*
X228116666Y-189522438D01*
X228116666Y-189522438D02*
X228211904Y-189617676D01*
X228211904Y-189617676D02*
X228259523Y-189712914D01*
X228259523Y-189712914D02*
X228307142Y-189903390D01*
X228307142Y-189903390D02*
X228307142Y-190046247D01*
X228307142Y-190046247D02*
X228259523Y-190236723D01*
X228259523Y-190236723D02*
X228211904Y-190331961D01*
X228211904Y-190331961D02*
X228116666Y-190427200D01*
X228116666Y-190427200D02*
X227973809Y-190474819D01*
X227973809Y-190474819D02*
X227735714Y-190474819D01*
X229259523Y-190474819D02*
X228688095Y-190474819D01*
X228973809Y-190474819D02*
X228973809Y-189474819D01*
X228973809Y-189474819D02*
X228878571Y-189617676D01*
X228878571Y-189617676D02*
X228783333Y-189712914D01*
X228783333Y-189712914D02*
X228688095Y-189760533D01*
X229878571Y-189474819D02*
X229973809Y-189474819D01*
X229973809Y-189474819D02*
X230069047Y-189522438D01*
X230069047Y-189522438D02*
X230116666Y-189570057D01*
X230116666Y-189570057D02*
X230164285Y-189665295D01*
X230164285Y-189665295D02*
X230211904Y-189855771D01*
X230211904Y-189855771D02*
X230211904Y-190093866D01*
X230211904Y-190093866D02*
X230164285Y-190284342D01*
X230164285Y-190284342D02*
X230116666Y-190379580D01*
X230116666Y-190379580D02*
X230069047Y-190427200D01*
X230069047Y-190427200D02*
X229973809Y-190474819D01*
X229973809Y-190474819D02*
X229878571Y-190474819D01*
X229878571Y-190474819D02*
X229783333Y-190427200D01*
X229783333Y-190427200D02*
X229735714Y-190379580D01*
X229735714Y-190379580D02*
X229688095Y-190284342D01*
X229688095Y-190284342D02*
X229640476Y-190093866D01*
X229640476Y-190093866D02*
X229640476Y-189855771D01*
X229640476Y-189855771D02*
X229688095Y-189665295D01*
X229688095Y-189665295D02*
X229735714Y-189570057D01*
X229735714Y-189570057D02*
X229783333Y-189522438D01*
X229783333Y-189522438D02*
X229878571Y-189474819D01*
X224171905Y-169057200D02*
X224314762Y-169104819D01*
X224314762Y-169104819D02*
X224552857Y-169104819D01*
X224552857Y-169104819D02*
X224648095Y-169057200D01*
X224648095Y-169057200D02*
X224695714Y-169009580D01*
X224695714Y-169009580D02*
X224743333Y-168914342D01*
X224743333Y-168914342D02*
X224743333Y-168819104D01*
X224743333Y-168819104D02*
X224695714Y-168723866D01*
X224695714Y-168723866D02*
X224648095Y-168676247D01*
X224648095Y-168676247D02*
X224552857Y-168628628D01*
X224552857Y-168628628D02*
X224362381Y-168581009D01*
X224362381Y-168581009D02*
X224267143Y-168533390D01*
X224267143Y-168533390D02*
X224219524Y-168485771D01*
X224219524Y-168485771D02*
X224171905Y-168390533D01*
X224171905Y-168390533D02*
X224171905Y-168295295D01*
X224171905Y-168295295D02*
X224219524Y-168200057D01*
X224219524Y-168200057D02*
X224267143Y-168152438D01*
X224267143Y-168152438D02*
X224362381Y-168104819D01*
X224362381Y-168104819D02*
X224600476Y-168104819D01*
X224600476Y-168104819D02*
X224743333Y-168152438D01*
X225743333Y-169009580D02*
X225695714Y-169057200D01*
X225695714Y-169057200D02*
X225552857Y-169104819D01*
X225552857Y-169104819D02*
X225457619Y-169104819D01*
X225457619Y-169104819D02*
X225314762Y-169057200D01*
X225314762Y-169057200D02*
X225219524Y-168961961D01*
X225219524Y-168961961D02*
X225171905Y-168866723D01*
X225171905Y-168866723D02*
X225124286Y-168676247D01*
X225124286Y-168676247D02*
X225124286Y-168533390D01*
X225124286Y-168533390D02*
X225171905Y-168342914D01*
X225171905Y-168342914D02*
X225219524Y-168247676D01*
X225219524Y-168247676D02*
X225314762Y-168152438D01*
X225314762Y-168152438D02*
X225457619Y-168104819D01*
X225457619Y-168104819D02*
X225552857Y-168104819D01*
X225552857Y-168104819D02*
X225695714Y-168152438D01*
X225695714Y-168152438D02*
X225743333Y-168200057D01*
X226695714Y-169104819D02*
X226124286Y-169104819D01*
X226410000Y-169104819D02*
X226410000Y-168104819D01*
X226410000Y-168104819D02*
X226314762Y-168247676D01*
X226314762Y-168247676D02*
X226219524Y-168342914D01*
X226219524Y-168342914D02*
X226124286Y-168390533D01*
X227314762Y-168104819D02*
X227410000Y-168104819D01*
X227410000Y-168104819D02*
X227505238Y-168152438D01*
X227505238Y-168152438D02*
X227552857Y-168200057D01*
X227552857Y-168200057D02*
X227600476Y-168295295D01*
X227600476Y-168295295D02*
X227648095Y-168485771D01*
X227648095Y-168485771D02*
X227648095Y-168723866D01*
X227648095Y-168723866D02*
X227600476Y-168914342D01*
X227600476Y-168914342D02*
X227552857Y-169009580D01*
X227552857Y-169009580D02*
X227505238Y-169057200D01*
X227505238Y-169057200D02*
X227410000Y-169104819D01*
X227410000Y-169104819D02*
X227314762Y-169104819D01*
X227314762Y-169104819D02*
X227219524Y-169057200D01*
X227219524Y-169057200D02*
X227171905Y-169009580D01*
X227171905Y-169009580D02*
X227124286Y-168914342D01*
X227124286Y-168914342D02*
X227076667Y-168723866D01*
X227076667Y-168723866D02*
X227076667Y-168485771D01*
X227076667Y-168485771D02*
X227124286Y-168295295D01*
X227124286Y-168295295D02*
X227171905Y-168200057D01*
X227171905Y-168200057D02*
X227219524Y-168152438D01*
X227219524Y-168152438D02*
X227314762Y-168104819D01*
X230151905Y-38224819D02*
X230151905Y-37224819D01*
X230151905Y-37224819D02*
X230390000Y-37224819D01*
X230390000Y-37224819D02*
X230532857Y-37272438D01*
X230532857Y-37272438D02*
X230628095Y-37367676D01*
X230628095Y-37367676D02*
X230675714Y-37462914D01*
X230675714Y-37462914D02*
X230723333Y-37653390D01*
X230723333Y-37653390D02*
X230723333Y-37796247D01*
X230723333Y-37796247D02*
X230675714Y-37986723D01*
X230675714Y-37986723D02*
X230628095Y-38081961D01*
X230628095Y-38081961D02*
X230532857Y-38177200D01*
X230532857Y-38177200D02*
X230390000Y-38224819D01*
X230390000Y-38224819D02*
X230151905Y-38224819D01*
X231056667Y-37224819D02*
X231723333Y-37224819D01*
X231723333Y-37224819D02*
X231294762Y-38224819D01*
D11*
X235890000Y-78440000D02*
X235890000Y-113440000D01*
X213890000Y-78440000D02*
X235890000Y-78440000D01*
X235890000Y-113440000D02*
X213890000Y-113440000D01*
X213890000Y-113440000D02*
X213890000Y-78440000D01*
D12*
X192404074Y-107404683D02*
X189045317Y-104045926D01*
X194454683Y-105354074D02*
X192404074Y-107404683D01*
X194454683Y-105354074D02*
X191095926Y-101995317D01*
X191480592Y-105580065D02*
X192576184Y-104484474D01*
X191095926Y-101995317D02*
X189045317Y-104045926D01*
D13*
X191947566Y-104933487D02*
X190941777Y-104789803D01*
X191893684Y-103837895D01*
X191947566Y-104933487D01*
G36*
X191947566Y-104933487D02*
G01*
X190941777Y-104789803D01*
X191893684Y-103837895D01*
X191947566Y-104933487D01*
G37*
D12*
X196416000Y-235547000D02*
X196416000Y-230797000D01*
X199316000Y-235547000D02*
X196416000Y-235547000D01*
X199316000Y-235547000D02*
X199316000Y-230797000D01*
X197053200Y-233603800D02*
X198602600Y-233603800D01*
X199316000Y-230797000D02*
X196416000Y-230797000D01*
D13*
X197840600Y-233476800D02*
X197231000Y-232664000D01*
X198577200Y-232664000D01*
X197840600Y-233476800D01*
G36*
X197840600Y-233476800D02*
G01*
X197231000Y-232664000D01*
X198577200Y-232664000D01*
X197840600Y-233476800D01*
G37*
D11*
X189140000Y-66410000D02*
X189140000Y-101410000D01*
X167140000Y-66410000D02*
X189140000Y-66410000D01*
X189140000Y-101410000D02*
X167140000Y-101410000D01*
X167140000Y-101410000D02*
X167140000Y-66410000D01*
D12*
X181065000Y-176080000D02*
X176315000Y-176080000D01*
X181065000Y-173180000D02*
X181065000Y-176080000D01*
X181065000Y-173180000D02*
X176315000Y-173180000D01*
X179121800Y-175442800D02*
X179121800Y-173893400D01*
X176315000Y-173180000D02*
X176315000Y-176080000D01*
D13*
X178994800Y-174655400D02*
X178182000Y-175265000D01*
X178182000Y-173918800D01*
X178994800Y-174655400D01*
G36*
X178994800Y-174655400D02*
G01*
X178182000Y-175265000D01*
X178182000Y-173918800D01*
X178994800Y-174655400D01*
G37*
D12*
X174125000Y-51580000D02*
X169375000Y-51580000D01*
X174125000Y-48680000D02*
X174125000Y-51580000D01*
X174125000Y-48680000D02*
X169375000Y-48680000D01*
X172181800Y-50942800D02*
X172181800Y-49393400D01*
X169375000Y-48680000D02*
X169375000Y-51580000D01*
D13*
X172054800Y-50155400D02*
X171242000Y-50765000D01*
X171242000Y-49418800D01*
X172054800Y-50155400D01*
G36*
X172054800Y-50155400D02*
G01*
X171242000Y-50765000D01*
X171242000Y-49418800D01*
X172054800Y-50155400D01*
G37*
D11*
X190950000Y-101410000D02*
X190950000Y-66410000D01*
X212950000Y-101410000D02*
X190950000Y-101410000D01*
X190950000Y-66410000D02*
X212950000Y-66410000D01*
X212950000Y-66410000D02*
X212950000Y-101410000D01*
X235470000Y-226570000D02*
X200470000Y-226570000D01*
X235470000Y-204570000D02*
X235470000Y-226570000D01*
X200470000Y-226570000D02*
X200470000Y-204570000D01*
X200470000Y-204570000D02*
X235470000Y-204570000D01*
X212630000Y-169060000D02*
X212630000Y-204060000D01*
X190630000Y-169060000D02*
X212630000Y-169060000D01*
X212630000Y-204060000D02*
X190630000Y-204060000D01*
X190630000Y-204060000D02*
X190630000Y-169060000D01*
D12*
X203745000Y-139090000D02*
X198995000Y-139090000D01*
X203745000Y-136190000D02*
X203745000Y-139090000D01*
X203745000Y-136190000D02*
X198995000Y-136190000D01*
X201801800Y-138452800D02*
X201801800Y-136903400D01*
X198995000Y-136190000D02*
X198995000Y-139090000D01*
D13*
X201674800Y-137665400D02*
X200862000Y-138275000D01*
X200862000Y-136928800D01*
X201674800Y-137665400D01*
G36*
X201674800Y-137665400D02*
G01*
X200862000Y-138275000D01*
X200862000Y-136928800D01*
X201674800Y-137665400D01*
G37*
D12*
X221415000Y-193920000D02*
X216665000Y-193920000D01*
X221415000Y-191020000D02*
X221415000Y-193920000D01*
X221415000Y-191020000D02*
X216665000Y-191020000D01*
X219471800Y-193282800D02*
X219471800Y-191733400D01*
X216665000Y-191020000D02*
X216665000Y-193920000D01*
D13*
X219344800Y-192495400D02*
X218532000Y-193105000D01*
X218532000Y-191758800D01*
X219344800Y-192495400D01*
G36*
X219344800Y-192495400D02*
G01*
X218532000Y-193105000D01*
X218532000Y-191758800D01*
X219344800Y-192495400D01*
G37*
D12*
X190495000Y-215520000D02*
X195245000Y-215520000D01*
X190495000Y-218420000D02*
X190495000Y-215520000D01*
X190495000Y-218420000D02*
X195245000Y-218420000D01*
X192438200Y-216157200D02*
X192438200Y-217706600D01*
X195245000Y-218420000D02*
X195245000Y-215520000D01*
D13*
X193378000Y-217681200D02*
X192565200Y-216944600D01*
X193378000Y-216335000D01*
X193378000Y-217681200D01*
G36*
X193378000Y-217681200D02*
G01*
X192565200Y-216944600D01*
X193378000Y-216335000D01*
X193378000Y-217681200D01*
G37*
D11*
X237360000Y-115130000D02*
X237360000Y-150130000D01*
X215360000Y-115130000D02*
X237360000Y-115130000D01*
X237360000Y-150130000D02*
X215360000Y-150130000D01*
X215360000Y-150130000D02*
X215360000Y-115130000D01*
D12*
X212940000Y-46455000D02*
X212940000Y-51205000D01*
X210040000Y-46455000D02*
X212940000Y-46455000D01*
X210040000Y-46455000D02*
X210040000Y-51205000D01*
X212302800Y-48398200D02*
X210753400Y-48398200D01*
X210040000Y-51205000D02*
X212940000Y-51205000D01*
D13*
X212125000Y-49338000D02*
X210778800Y-49338000D01*
X211515400Y-48525200D01*
X212125000Y-49338000D01*
G36*
X212125000Y-49338000D02*
G01*
X210778800Y-49338000D01*
X211515400Y-48525200D01*
X212125000Y-49338000D01*
G37*
D12*
X213190000Y-102825000D02*
X213190000Y-107575000D01*
X210290000Y-102825000D02*
X213190000Y-102825000D01*
X210290000Y-102825000D02*
X210290000Y-107575000D01*
X212552800Y-104768200D02*
X211003400Y-104768200D01*
X210290000Y-107575000D02*
X213190000Y-107575000D01*
D13*
X212375000Y-105708000D02*
X211028800Y-105708000D01*
X211765400Y-104895200D01*
X212375000Y-105708000D01*
G36*
X212375000Y-105708000D02*
G01*
X211028800Y-105708000D01*
X211765400Y-104895200D01*
X212375000Y-105708000D01*
G37*
D11*
X213950000Y-77340000D02*
X213950000Y-42340000D01*
X235950000Y-77340000D02*
X213950000Y-77340000D01*
X213950000Y-42340000D02*
X235950000Y-42340000D01*
X235950000Y-42340000D02*
X235950000Y-77340000D01*
X235470000Y-249210000D02*
X200470000Y-249210000D01*
X235470000Y-227210000D02*
X235470000Y-249210000D01*
X200470000Y-249210000D02*
X200470000Y-227210000D01*
X200470000Y-227210000D02*
X235470000Y-227210000D01*
X189120000Y-176540000D02*
X189120000Y-211540000D01*
X167120000Y-176540000D02*
X189120000Y-176540000D01*
X189120000Y-211540000D02*
X167120000Y-211540000D01*
X167120000Y-211540000D02*
X167120000Y-176540000D01*
D12*
X219505000Y-38600000D02*
X224255000Y-38600000D01*
X219505000Y-41500000D02*
X219505000Y-38600000D01*
X219505000Y-41500000D02*
X224255000Y-41500000D01*
X221448200Y-39237200D02*
X221448200Y-40786600D01*
X224255000Y-41500000D02*
X224255000Y-38600000D01*
D13*
X222388000Y-40761200D02*
X221575200Y-40024600D01*
X222388000Y-39415000D01*
X222388000Y-40761200D01*
G36*
X222388000Y-40761200D02*
G01*
X221575200Y-40024600D01*
X222388000Y-39415000D01*
X222388000Y-40761200D01*
G37*
D12*
X214770000Y-130285000D02*
X214770000Y-135035000D01*
X211870000Y-130285000D02*
X214770000Y-130285000D01*
X211870000Y-130285000D02*
X211870000Y-135035000D01*
X214132800Y-132228200D02*
X212583400Y-132228200D01*
X211870000Y-135035000D02*
X214770000Y-135035000D01*
D13*
X213955000Y-133168000D02*
X212608800Y-133168000D01*
X213345400Y-132355200D01*
X213955000Y-133168000D01*
G36*
X213955000Y-133168000D02*
G01*
X212608800Y-133168000D01*
X213345400Y-132355200D01*
X213955000Y-133168000D01*
G37*
D12*
X193390000Y-213385000D02*
X193390000Y-208635000D01*
X196290000Y-213385000D02*
X193390000Y-213385000D01*
X196290000Y-213385000D02*
X196290000Y-208635000D01*
X194027200Y-211441800D02*
X195576600Y-211441800D01*
X196290000Y-208635000D02*
X193390000Y-208635000D01*
D13*
X194814600Y-211314800D02*
X194205000Y-210502000D01*
X195551200Y-210502000D01*
X194814600Y-211314800D01*
G36*
X194814600Y-211314800D02*
G01*
X194205000Y-210502000D01*
X195551200Y-210502000D01*
X194814600Y-211314800D01*
G37*
D11*
X187990000Y-137730000D02*
X187990000Y-172730000D01*
X165990000Y-137730000D02*
X187990000Y-137730000D01*
X187990000Y-172730000D02*
X165990000Y-172730000D01*
X165990000Y-172730000D02*
X165990000Y-137730000D01*
D12*
X196070000Y-139650000D02*
X194800000Y-139650000D01*
X196070000Y-138380000D02*
X196070000Y-139650000D01*
D11*
X188070000Y-102010000D02*
X188070000Y-137010000D01*
X166070000Y-102010000D02*
X188070000Y-102010000D01*
X188070000Y-137010000D02*
X166070000Y-137010000D01*
X166070000Y-137010000D02*
X166070000Y-102010000D01*
D12*
X231325000Y-194010000D02*
X226575000Y-194010000D01*
X231325000Y-191110000D02*
X231325000Y-194010000D01*
X231325000Y-191110000D02*
X226575000Y-191110000D01*
X229381800Y-193372800D02*
X229381800Y-191823400D01*
X226575000Y-191110000D02*
X226575000Y-194010000D01*
D13*
X229254800Y-192585400D02*
X228442000Y-193195000D01*
X228442000Y-191848800D01*
X229254800Y-192585400D01*
G36*
X229254800Y-192585400D02*
G01*
X228442000Y-193195000D01*
X228442000Y-191848800D01*
X229254800Y-192585400D01*
G37*
D11*
X237410000Y-151150000D02*
X237410000Y-186150000D01*
X215410000Y-151150000D02*
X237410000Y-151150000D01*
X237410000Y-186150000D02*
X215410000Y-186150000D01*
X215410000Y-186150000D02*
X215410000Y-151150000D01*
D12*
X228515000Y-38510000D02*
X233265000Y-38510000D01*
X228515000Y-41410000D02*
X228515000Y-38510000D01*
X228515000Y-41410000D02*
X233265000Y-41410000D01*
X230458200Y-39147200D02*
X230458200Y-40696600D01*
X233265000Y-41410000D02*
X233265000Y-38510000D01*
D13*
X231398000Y-40671200D02*
X230585200Y-39934600D01*
X231398000Y-39325000D01*
X231398000Y-40671200D01*
G36*
X231398000Y-40671200D02*
G01*
X230585200Y-39934600D01*
X231398000Y-39325000D01*
X231398000Y-40671200D01*
G37*
M02*
