%TF.GenerationSoftware,KiCad,Pcbnew,7.0.8*%
%TF.CreationDate,2024-02-17T17:07:35-08:00*%
%TF.ProjectId,new_X_Y_Panels,6e65775f-585f-4595-9f50-616e656c732e,rev?*%
%TF.SameCoordinates,Original*%
%TF.FileFunction,Drillmap*%
%TF.FilePolarity,Positive*%
%FSLAX45Y45*%
G04 Gerber Fmt 4.5, Leading zero omitted, Abs format (unit mm)*
G04 Created by KiCad (PCBNEW 7.0.8) date 2024-02-17 17:07:35*
%MOMM*%
%LPD*%
G01*
G04 APERTURE LIST*
%ADD10C,0.200000*%
%ADD11C,0.100000*%
%ADD12C,0.040000*%
%ADD13C,0.220000*%
G04 APERTURE END LIST*
D10*
X21614000Y-3974000D02*
G75*
G03*
X21614000Y-3974000I-250000J0D01*
G01*
X23621500Y-23854000D02*
X23621500Y-14879000D01*
X24239000Y-14079000D02*
G75*
G03*
X23939000Y-13779000I-300000J0D01*
G01*
X17372606Y-23968417D02*
X16802209Y-22971020D01*
X21123610Y-6632800D02*
G75*
G03*
X21423610Y-6332800I0J300000D01*
G01*
X16389000Y-4204000D02*
X16406500Y-4204000D01*
X19454000Y-23347583D02*
X19454000Y-23932990D01*
X24239000Y-24654000D02*
X24239000Y-24454000D01*
X16706500Y-23531659D02*
X16706500Y-23854000D01*
D11*
X19117000Y-16511000D02*
X21167000Y-16512000D01*
X19628000Y-14463000D02*
X19117000Y-14462799D01*
D10*
X23939000Y-14579000D02*
G75*
G03*
X24239000Y-14279000I0J300000D01*
G01*
X16389000Y-24154000D02*
G75*
G03*
X16089000Y-24454000I0J-300000D01*
G01*
X19333604Y-24173291D02*
G75*
G03*
X19213638Y-24397448I179616J-240309D01*
G01*
X23921500Y-4204000D02*
G75*
G03*
X23621500Y-4504000I0J-300000D01*
G01*
X16406500Y-24154000D02*
G75*
G03*
X16706500Y-23854000I0J300000D01*
G01*
X16089000Y-24654000D02*
G75*
G03*
X16389000Y-24954000I300000J0D01*
G01*
X23921500Y-14579000D02*
G75*
G03*
X23621500Y-14879000I0J-300000D01*
G01*
X24239000Y-3904000D02*
X24239000Y-3704000D01*
X24239000Y-3704000D02*
G75*
G03*
X23939000Y-3404000I-300000J0D01*
G01*
X16089000Y-3904000D02*
G75*
G03*
X16389000Y-4204000I300000J0D01*
G01*
D11*
X21167000Y-16257000D02*
X21167000Y-16512000D01*
D10*
X24239000Y-24454000D02*
G75*
G03*
X23939000Y-24154000I-300000J0D01*
G01*
X23939000Y-13779000D02*
X23921500Y-13779000D01*
X16089000Y-14079000D02*
X16089000Y-14279000D01*
D11*
X19117000Y-16256000D02*
X19117000Y-14462799D01*
D10*
X16406500Y-13779000D02*
X16389000Y-13779000D01*
X17292600Y-6632800D02*
X21123610Y-6632800D01*
X23621500Y-23854000D02*
G75*
G03*
X23921500Y-24154000I300000J0D01*
G01*
X16389000Y-3404000D02*
G75*
G03*
X16089000Y-3704000I0J-300000D01*
G01*
D11*
X20658000Y-14463000D02*
X21167000Y-14462799D01*
D10*
X23921500Y-14579000D02*
X23939000Y-14579000D01*
X23621500Y-13479000D02*
G75*
G03*
X23921500Y-13779000I300000J0D01*
G01*
X23921500Y-4204000D02*
X23939000Y-4204000D01*
X16089000Y-14279000D02*
G75*
G03*
X16389000Y-14579000I300000J0D01*
G01*
X19333602Y-24173288D02*
G75*
G03*
X19454000Y-23932990I-179602J240298D01*
G01*
X18714521Y-24400130D02*
G75*
G03*
X19213638Y-24397448I249479J16130D01*
G01*
X16992600Y-6332800D02*
G75*
G03*
X17292600Y-6632800I300000J0D01*
G01*
D11*
X21167000Y-14462799D02*
X21167000Y-16257000D01*
D10*
X16406500Y-13779000D02*
G75*
G03*
X16706500Y-13479000I0J300000D01*
G01*
X23939000Y-24154000D02*
X23921500Y-24154000D01*
X16706500Y-4504000D02*
X16706500Y-13479000D01*
X24239000Y-14279000D02*
X24239000Y-14079000D01*
X16706500Y-14879000D02*
G75*
G03*
X16406500Y-14579000I-300000J0D01*
G01*
X17292600Y-5280320D02*
G75*
G03*
X16992600Y-5580320I0J-300000D01*
G01*
X21423610Y-5580320D02*
G75*
G03*
X21123610Y-5280320I-300000J0D01*
G01*
D11*
X20658000Y-14463000D02*
G75*
G03*
X19628000Y-14463000I-515000J205D01*
G01*
D10*
X16406500Y-24154000D02*
X16389000Y-24154000D01*
X16089000Y-3704000D02*
X16089000Y-3904000D01*
X23621500Y-13479000D02*
X23621500Y-4504000D01*
X18714529Y-24400129D02*
G75*
G03*
X18415146Y-24119486I-299379J-19361D01*
G01*
X23939000Y-4204000D02*
G75*
G03*
X24239000Y-3904000I0J300000D01*
G01*
X19214000Y-3974000D02*
G75*
G03*
X19214000Y-3974000I-250000J0D01*
G01*
X18415146Y-24119486D02*
X17633028Y-24119486D01*
X16992600Y-6332800D02*
X16992600Y-5580320D01*
X17372605Y-23968418D02*
G75*
G03*
X17633028Y-24119486I260425J148938D01*
G01*
X21358773Y-11935128D02*
X20156691Y-13137209D01*
X18954610Y-11935128D01*
X20156691Y-10733046D01*
X21358773Y-11935128D01*
X21423610Y-5580320D02*
X21423610Y-6332800D01*
X18747777Y-21911316D02*
X19420375Y-23209581D01*
X19454001Y-23347583D02*
G75*
G03*
X19420375Y-23209581I-300021J-7D01*
G01*
D11*
X19117000Y-16256000D02*
X19117000Y-16511000D01*
D10*
X16089000Y-24454000D02*
X16089000Y-24654000D01*
X16706500Y-4504000D02*
G75*
G03*
X16406500Y-4204000I-300000J0D01*
G01*
X23939000Y-3404000D02*
X16389000Y-3404000D01*
X18747777Y-21911316D02*
G75*
G03*
X16802209Y-22971020I-983777J-509670D01*
G01*
X17292600Y-5280320D02*
X21123610Y-5280320D01*
X23939000Y-24954000D02*
G75*
G03*
X24239000Y-24654000I0J300000D01*
G01*
X16389000Y-14579000D02*
X16406500Y-14579000D01*
X16706500Y-21310312D02*
G75*
G03*
X16706500Y-23531659I1057500J-1110674D01*
G01*
X16389000Y-24954000D02*
X23939000Y-24954000D01*
X16706500Y-14879000D02*
X16706500Y-21310312D01*
X16389000Y-13779000D02*
G75*
G03*
X16089000Y-14079000I0J-300000D01*
G01*
D12*
X19242000Y-20879000D02*
X19282000Y-20919000D01*
X19282000Y-20879000D02*
X19242000Y-20919000D01*
X19285000Y-20713000D02*
X19325000Y-20753000D01*
X19325000Y-20713000D02*
X19285000Y-20753000D01*
X19313000Y-21026000D02*
X19353000Y-21066000D01*
X19353000Y-21026000D02*
X19313000Y-21066000D01*
X19709000Y-10711000D02*
X19749000Y-10751000D01*
X19749000Y-10711000D02*
X19709000Y-10751000D01*
X19767000Y-22896000D02*
X19807000Y-22936000D01*
X19807000Y-22896000D02*
X19767000Y-22936000D01*
X19917000Y-22947000D02*
X19957000Y-22987000D01*
X19957000Y-22947000D02*
X19917000Y-22987000D01*
X19959000Y-23100000D02*
X19999000Y-23140000D01*
X19999000Y-23100000D02*
X19959000Y-23140000D01*
X20315000Y-10667000D02*
X20355000Y-10707000D01*
X20355000Y-10667000D02*
X20315000Y-10707000D01*
X20519000Y-10701000D02*
X20559000Y-10741000D01*
X20559000Y-10701000D02*
X20519000Y-10741000D01*
X20721000Y-10671000D02*
X20761000Y-10711000D01*
X20761000Y-10671000D02*
X20721000Y-10711000D01*
D11*
X18993000Y-13330000D02*
G75*
G03*
X18993000Y-13330000I-50000J0D01*
G01*
X18993000Y-13838000D02*
G75*
G03*
X18993000Y-13838000I-50000J0D01*
G01*
X19120000Y-13076000D02*
G75*
G03*
X19120000Y-13076000I-50000J0D01*
G01*
X19120000Y-14092000D02*
G75*
G03*
X19120000Y-14092000I-50000J0D01*
G01*
X19374000Y-13076000D02*
G75*
G03*
X19374000Y-13076000I-50000J0D01*
G01*
X19374000Y-14092000D02*
G75*
G03*
X19374000Y-14092000I-50000J0D01*
G01*
X19530000Y-13330000D02*
G75*
G03*
X19530000Y-13330000I-50000J0D01*
G01*
X19530000Y-13838000D02*
G75*
G03*
X19530000Y-13838000I-50000J0D01*
G01*
D10*
X17249000Y-16723000D02*
X17249000Y-16923000D01*
X17149000Y-16823000D02*
X17349000Y-16823000D01*
X17257000Y-13151000D02*
X17257000Y-13351000D01*
X17157000Y-13251000D02*
X17357000Y-13251000D01*
X17362000Y-20604000D02*
X17362000Y-20804000D01*
X17262000Y-20704000D02*
X17462000Y-20704000D01*
X17364000Y-9591000D02*
X17364000Y-9791000D01*
X17264000Y-9691000D02*
X17464000Y-9691000D01*
X18149000Y-16723000D02*
X18149000Y-16923000D01*
X18049000Y-16823000D02*
X18249000Y-16823000D01*
X18157000Y-13151000D02*
X18157000Y-13351000D01*
X18057000Y-13251000D02*
X18257000Y-13251000D01*
X18262000Y-20604000D02*
X18262000Y-20804000D01*
X18162000Y-20704000D02*
X18362000Y-20704000D01*
X18264000Y-9591000D02*
X18264000Y-9791000D01*
X18164000Y-9691000D02*
X18364000Y-9691000D01*
X19713000Y-19856000D02*
X19713000Y-20056000D01*
X19613000Y-19956000D02*
X19813000Y-19956000D01*
X19745000Y-6991000D02*
X19745000Y-7191000D01*
X19645000Y-7091000D02*
X19845000Y-7091000D01*
X20497000Y-21007000D02*
X20497000Y-21207000D01*
X20397000Y-21107000D02*
X20597000Y-21107000D01*
X20497000Y-21907000D02*
X20497000Y-22107000D01*
X20397000Y-22007000D02*
X20597000Y-22007000D01*
X20497000Y-23271000D02*
X20497000Y-23471000D01*
X20397000Y-23371000D02*
X20597000Y-23371000D01*
X20497000Y-24171000D02*
X20497000Y-24371000D01*
X20397000Y-24271000D02*
X20597000Y-24271000D01*
X20613000Y-19856000D02*
X20613000Y-20056000D01*
X20513000Y-19956000D02*
X20713000Y-19956000D01*
X20645000Y-6991000D02*
X20645000Y-7191000D01*
X20545000Y-7091000D02*
X20745000Y-7091000D01*
X22039000Y-10794000D02*
X22039000Y-10994000D01*
X21939000Y-10894000D02*
X22139000Y-10894000D01*
X22045000Y-4584000D02*
X22045000Y-4784000D01*
X21945000Y-4684000D02*
X22145000Y-4684000D01*
X22186000Y-14463000D02*
X22186000Y-14663000D01*
X22086000Y-14563000D02*
X22286000Y-14563000D01*
X22191000Y-18065000D02*
X22191000Y-18265000D01*
X22091000Y-18165000D02*
X22291000Y-18165000D01*
X22939000Y-10794000D02*
X22939000Y-10994000D01*
X22839000Y-10894000D02*
X23039000Y-10894000D01*
X22945000Y-4584000D02*
X22945000Y-4784000D01*
X22845000Y-4684000D02*
X23045000Y-4684000D01*
X23086000Y-14463000D02*
X23086000Y-14663000D01*
X22986000Y-14563000D02*
X23186000Y-14563000D01*
X23091000Y-18065000D02*
X23091000Y-18265000D01*
X22991000Y-18165000D02*
X23191000Y-18165000D01*
D13*
X16390782Y-14256782D02*
X16390782Y-14101217D01*
X16235217Y-14101217D01*
X16235217Y-14256782D01*
X16390782Y-14256782D01*
X16391782Y-3882782D02*
X16391782Y-3727217D01*
X16236217Y-3727217D01*
X16236217Y-3882782D01*
X16391782Y-3882782D01*
X16392782Y-24632782D02*
X16392782Y-24477217D01*
X16237217Y-24477217D01*
X16237217Y-24632782D01*
X16392782Y-24632782D01*
X19449894Y-11228330D02*
X19449894Y-11072766D01*
X19294329Y-11072766D01*
X19294329Y-11228330D01*
X19449894Y-11228330D01*
X19449894Y-12798107D02*
X19449894Y-12642542D01*
X19294329Y-12642542D01*
X19294329Y-12798107D01*
X19449894Y-12798107D01*
X20561783Y-13421782D02*
X20561783Y-13266217D01*
X20406218Y-13266217D01*
X20406218Y-13421782D01*
X20561783Y-13421782D01*
X21019671Y-11228330D02*
X21019671Y-11072766D01*
X20864106Y-11072766D01*
X20864106Y-11228330D01*
X21019671Y-11228330D01*
X21019671Y-12798107D02*
X21019671Y-12642542D01*
X20864106Y-12642542D01*
X20864106Y-12798107D01*
X21019671Y-12798107D01*
X21035783Y-13421782D02*
X21035783Y-13266217D01*
X20880218Y-13266217D01*
X20880218Y-13421782D01*
X21035783Y-13421782D01*
X24090782Y-14257782D02*
X24090782Y-14102217D01*
X23935217Y-14102217D01*
X23935217Y-14257782D01*
X24090782Y-14257782D01*
X24090782Y-24631782D02*
X24090782Y-24476217D01*
X23935217Y-24476217D01*
X23935217Y-24631782D01*
X24090782Y-24631782D01*
X24092782Y-3881782D02*
X24092782Y-3726217D01*
X23937217Y-3726217D01*
X23937217Y-3881782D01*
X24092782Y-3881782D01*
D10*
X16339777Y-25275484D02*
X16339777Y-25075484D01*
X16339777Y-25075484D02*
X16387396Y-25075484D01*
X16387396Y-25075484D02*
X16415967Y-25085008D01*
X16415967Y-25085008D02*
X16435015Y-25104055D01*
X16435015Y-25104055D02*
X16444539Y-25123103D01*
X16444539Y-25123103D02*
X16454062Y-25161198D01*
X16454062Y-25161198D02*
X16454062Y-25189769D01*
X16454062Y-25189769D02*
X16444539Y-25227865D01*
X16444539Y-25227865D02*
X16435015Y-25246912D01*
X16435015Y-25246912D02*
X16415967Y-25265960D01*
X16415967Y-25265960D02*
X16387396Y-25275484D01*
X16387396Y-25275484D02*
X16339777Y-25275484D01*
X16539777Y-25275484D02*
X16539777Y-25142150D01*
X16539777Y-25180246D02*
X16549301Y-25161198D01*
X16549301Y-25161198D02*
X16558824Y-25151674D01*
X16558824Y-25151674D02*
X16577872Y-25142150D01*
X16577872Y-25142150D02*
X16596920Y-25142150D01*
X16663586Y-25275484D02*
X16663586Y-25142150D01*
X16663586Y-25075484D02*
X16654062Y-25085008D01*
X16654062Y-25085008D02*
X16663586Y-25094531D01*
X16663586Y-25094531D02*
X16673110Y-25085008D01*
X16673110Y-25085008D02*
X16663586Y-25075484D01*
X16663586Y-25075484D02*
X16663586Y-25094531D01*
X16787396Y-25275484D02*
X16768348Y-25265960D01*
X16768348Y-25265960D02*
X16758824Y-25246912D01*
X16758824Y-25246912D02*
X16758824Y-25075484D01*
X16892158Y-25275484D02*
X16873110Y-25265960D01*
X16873110Y-25265960D02*
X16863586Y-25246912D01*
X16863586Y-25246912D02*
X16863586Y-25075484D01*
X17120729Y-25275484D02*
X17120729Y-25075484D01*
X17120729Y-25075484D02*
X17187396Y-25218341D01*
X17187396Y-25218341D02*
X17254063Y-25075484D01*
X17254063Y-25075484D02*
X17254063Y-25275484D01*
X17435015Y-25275484D02*
X17435015Y-25170722D01*
X17435015Y-25170722D02*
X17425491Y-25151674D01*
X17425491Y-25151674D02*
X17406444Y-25142150D01*
X17406444Y-25142150D02*
X17368348Y-25142150D01*
X17368348Y-25142150D02*
X17349301Y-25151674D01*
X17435015Y-25265960D02*
X17415967Y-25275484D01*
X17415967Y-25275484D02*
X17368348Y-25275484D01*
X17368348Y-25275484D02*
X17349301Y-25265960D01*
X17349301Y-25265960D02*
X17339777Y-25246912D01*
X17339777Y-25246912D02*
X17339777Y-25227865D01*
X17339777Y-25227865D02*
X17349301Y-25208817D01*
X17349301Y-25208817D02*
X17368348Y-25199293D01*
X17368348Y-25199293D02*
X17415967Y-25199293D01*
X17415967Y-25199293D02*
X17435015Y-25189769D01*
X17530253Y-25142150D02*
X17530253Y-25342150D01*
X17530253Y-25151674D02*
X17549301Y-25142150D01*
X17549301Y-25142150D02*
X17587396Y-25142150D01*
X17587396Y-25142150D02*
X17606444Y-25151674D01*
X17606444Y-25151674D02*
X17615967Y-25161198D01*
X17615967Y-25161198D02*
X17625491Y-25180246D01*
X17625491Y-25180246D02*
X17625491Y-25237388D01*
X17625491Y-25237388D02*
X17615967Y-25256436D01*
X17615967Y-25256436D02*
X17606444Y-25265960D01*
X17606444Y-25265960D02*
X17587396Y-25275484D01*
X17587396Y-25275484D02*
X17549301Y-25275484D01*
X17549301Y-25275484D02*
X17530253Y-25265960D01*
X17711205Y-25256436D02*
X17720729Y-25265960D01*
X17720729Y-25265960D02*
X17711205Y-25275484D01*
X17711205Y-25275484D02*
X17701682Y-25265960D01*
X17701682Y-25265960D02*
X17711205Y-25256436D01*
X17711205Y-25256436D02*
X17711205Y-25275484D01*
X17711205Y-25151674D02*
X17720729Y-25161198D01*
X17720729Y-25161198D02*
X17711205Y-25170722D01*
X17711205Y-25170722D02*
X17701682Y-25161198D01*
X17701682Y-25161198D02*
X17711205Y-25151674D01*
X17711205Y-25151674D02*
X17711205Y-25170722D01*
D12*
X16039000Y-25584000D02*
X16079000Y-25624000D01*
X16079000Y-25584000D02*
X16039000Y-25624000D01*
D10*
X16377872Y-25495484D02*
X16396920Y-25495484D01*
X16396920Y-25495484D02*
X16415967Y-25505008D01*
X16415967Y-25505008D02*
X16425491Y-25514531D01*
X16425491Y-25514531D02*
X16435015Y-25533579D01*
X16435015Y-25533579D02*
X16444539Y-25571674D01*
X16444539Y-25571674D02*
X16444539Y-25619293D01*
X16444539Y-25619293D02*
X16435015Y-25657388D01*
X16435015Y-25657388D02*
X16425491Y-25676436D01*
X16425491Y-25676436D02*
X16415967Y-25685960D01*
X16415967Y-25685960D02*
X16396920Y-25695484D01*
X16396920Y-25695484D02*
X16377872Y-25695484D01*
X16377872Y-25695484D02*
X16358824Y-25685960D01*
X16358824Y-25685960D02*
X16349301Y-25676436D01*
X16349301Y-25676436D02*
X16339777Y-25657388D01*
X16339777Y-25657388D02*
X16330253Y-25619293D01*
X16330253Y-25619293D02*
X16330253Y-25571674D01*
X16330253Y-25571674D02*
X16339777Y-25533579D01*
X16339777Y-25533579D02*
X16349301Y-25514531D01*
X16349301Y-25514531D02*
X16358824Y-25505008D01*
X16358824Y-25505008D02*
X16377872Y-25495484D01*
X16530253Y-25676436D02*
X16539777Y-25685960D01*
X16539777Y-25685960D02*
X16530253Y-25695484D01*
X16530253Y-25695484D02*
X16520729Y-25685960D01*
X16520729Y-25685960D02*
X16530253Y-25676436D01*
X16530253Y-25676436D02*
X16530253Y-25695484D01*
X16711205Y-25562150D02*
X16711205Y-25695484D01*
X16663586Y-25485960D02*
X16615967Y-25628817D01*
X16615967Y-25628817D02*
X16739777Y-25628817D01*
X16854063Y-25495484D02*
X16873110Y-25495484D01*
X16873110Y-25495484D02*
X16892158Y-25505008D01*
X16892158Y-25505008D02*
X16901682Y-25514531D01*
X16901682Y-25514531D02*
X16911205Y-25533579D01*
X16911205Y-25533579D02*
X16920729Y-25571674D01*
X16920729Y-25571674D02*
X16920729Y-25619293D01*
X16920729Y-25619293D02*
X16911205Y-25657388D01*
X16911205Y-25657388D02*
X16901682Y-25676436D01*
X16901682Y-25676436D02*
X16892158Y-25685960D01*
X16892158Y-25685960D02*
X16873110Y-25695484D01*
X16873110Y-25695484D02*
X16854063Y-25695484D01*
X16854063Y-25695484D02*
X16835015Y-25685960D01*
X16835015Y-25685960D02*
X16825491Y-25676436D01*
X16825491Y-25676436D02*
X16815967Y-25657388D01*
X16815967Y-25657388D02*
X16806444Y-25619293D01*
X16806444Y-25619293D02*
X16806444Y-25571674D01*
X16806444Y-25571674D02*
X16815967Y-25533579D01*
X16815967Y-25533579D02*
X16825491Y-25514531D01*
X16825491Y-25514531D02*
X16835015Y-25505008D01*
X16835015Y-25505008D02*
X16854063Y-25495484D01*
X17044539Y-25495484D02*
X17063586Y-25495484D01*
X17063586Y-25495484D02*
X17082634Y-25505008D01*
X17082634Y-25505008D02*
X17092158Y-25514531D01*
X17092158Y-25514531D02*
X17101682Y-25533579D01*
X17101682Y-25533579D02*
X17111205Y-25571674D01*
X17111205Y-25571674D02*
X17111205Y-25619293D01*
X17111205Y-25619293D02*
X17101682Y-25657388D01*
X17101682Y-25657388D02*
X17092158Y-25676436D01*
X17092158Y-25676436D02*
X17082634Y-25685960D01*
X17082634Y-25685960D02*
X17063586Y-25695484D01*
X17063586Y-25695484D02*
X17044539Y-25695484D01*
X17044539Y-25695484D02*
X17025491Y-25685960D01*
X17025491Y-25685960D02*
X17015967Y-25676436D01*
X17015967Y-25676436D02*
X17006444Y-25657388D01*
X17006444Y-25657388D02*
X16996920Y-25619293D01*
X16996920Y-25619293D02*
X16996920Y-25571674D01*
X16996920Y-25571674D02*
X17006444Y-25533579D01*
X17006444Y-25533579D02*
X17015967Y-25514531D01*
X17015967Y-25514531D02*
X17025491Y-25505008D01*
X17025491Y-25505008D02*
X17044539Y-25495484D01*
X17196920Y-25695484D02*
X17196920Y-25562150D01*
X17196920Y-25581198D02*
X17206444Y-25571674D01*
X17206444Y-25571674D02*
X17225491Y-25562150D01*
X17225491Y-25562150D02*
X17254063Y-25562150D01*
X17254063Y-25562150D02*
X17273110Y-25571674D01*
X17273110Y-25571674D02*
X17282634Y-25590722D01*
X17282634Y-25590722D02*
X17282634Y-25695484D01*
X17282634Y-25590722D02*
X17292158Y-25571674D01*
X17292158Y-25571674D02*
X17311205Y-25562150D01*
X17311205Y-25562150D02*
X17339777Y-25562150D01*
X17339777Y-25562150D02*
X17358825Y-25571674D01*
X17358825Y-25571674D02*
X17368348Y-25590722D01*
X17368348Y-25590722D02*
X17368348Y-25695484D01*
X17463586Y-25695484D02*
X17463586Y-25562150D01*
X17463586Y-25581198D02*
X17473110Y-25571674D01*
X17473110Y-25571674D02*
X17492158Y-25562150D01*
X17492158Y-25562150D02*
X17520729Y-25562150D01*
X17520729Y-25562150D02*
X17539777Y-25571674D01*
X17539777Y-25571674D02*
X17549301Y-25590722D01*
X17549301Y-25590722D02*
X17549301Y-25695484D01*
X17549301Y-25590722D02*
X17558825Y-25571674D01*
X17558825Y-25571674D02*
X17577872Y-25562150D01*
X17577872Y-25562150D02*
X17606444Y-25562150D01*
X17606444Y-25562150D02*
X17625491Y-25571674D01*
X17625491Y-25571674D02*
X17635015Y-25590722D01*
X17635015Y-25590722D02*
X17635015Y-25695484D01*
X18025491Y-25485960D02*
X17854063Y-25743103D01*
X18282634Y-25495484D02*
X18301682Y-25495484D01*
X18301682Y-25495484D02*
X18320729Y-25505008D01*
X18320729Y-25505008D02*
X18330253Y-25514531D01*
X18330253Y-25514531D02*
X18339777Y-25533579D01*
X18339777Y-25533579D02*
X18349301Y-25571674D01*
X18349301Y-25571674D02*
X18349301Y-25619293D01*
X18349301Y-25619293D02*
X18339777Y-25657388D01*
X18339777Y-25657388D02*
X18330253Y-25676436D01*
X18330253Y-25676436D02*
X18320729Y-25685960D01*
X18320729Y-25685960D02*
X18301682Y-25695484D01*
X18301682Y-25695484D02*
X18282634Y-25695484D01*
X18282634Y-25695484D02*
X18263587Y-25685960D01*
X18263587Y-25685960D02*
X18254063Y-25676436D01*
X18254063Y-25676436D02*
X18244539Y-25657388D01*
X18244539Y-25657388D02*
X18235015Y-25619293D01*
X18235015Y-25619293D02*
X18235015Y-25571674D01*
X18235015Y-25571674D02*
X18244539Y-25533579D01*
X18244539Y-25533579D02*
X18254063Y-25514531D01*
X18254063Y-25514531D02*
X18263587Y-25505008D01*
X18263587Y-25505008D02*
X18282634Y-25495484D01*
X18435015Y-25676436D02*
X18444539Y-25685960D01*
X18444539Y-25685960D02*
X18435015Y-25695484D01*
X18435015Y-25695484D02*
X18425491Y-25685960D01*
X18425491Y-25685960D02*
X18435015Y-25676436D01*
X18435015Y-25676436D02*
X18435015Y-25695484D01*
X18568348Y-25495484D02*
X18587396Y-25495484D01*
X18587396Y-25495484D02*
X18606444Y-25505008D01*
X18606444Y-25505008D02*
X18615968Y-25514531D01*
X18615968Y-25514531D02*
X18625491Y-25533579D01*
X18625491Y-25533579D02*
X18635015Y-25571674D01*
X18635015Y-25571674D02*
X18635015Y-25619293D01*
X18635015Y-25619293D02*
X18625491Y-25657388D01*
X18625491Y-25657388D02*
X18615968Y-25676436D01*
X18615968Y-25676436D02*
X18606444Y-25685960D01*
X18606444Y-25685960D02*
X18587396Y-25695484D01*
X18587396Y-25695484D02*
X18568348Y-25695484D01*
X18568348Y-25695484D02*
X18549301Y-25685960D01*
X18549301Y-25685960D02*
X18539777Y-25676436D01*
X18539777Y-25676436D02*
X18530253Y-25657388D01*
X18530253Y-25657388D02*
X18520729Y-25619293D01*
X18520729Y-25619293D02*
X18520729Y-25571674D01*
X18520729Y-25571674D02*
X18530253Y-25533579D01*
X18530253Y-25533579D02*
X18539777Y-25514531D01*
X18539777Y-25514531D02*
X18549301Y-25505008D01*
X18549301Y-25505008D02*
X18568348Y-25495484D01*
X18825491Y-25695484D02*
X18711206Y-25695484D01*
X18768348Y-25695484D02*
X18768348Y-25495484D01*
X18768348Y-25495484D02*
X18749301Y-25524055D01*
X18749301Y-25524055D02*
X18730253Y-25543103D01*
X18730253Y-25543103D02*
X18711206Y-25552627D01*
X19006444Y-25495484D02*
X18911206Y-25495484D01*
X18911206Y-25495484D02*
X18901682Y-25590722D01*
X18901682Y-25590722D02*
X18911206Y-25581198D01*
X18911206Y-25581198D02*
X18930253Y-25571674D01*
X18930253Y-25571674D02*
X18977872Y-25571674D01*
X18977872Y-25571674D02*
X18996920Y-25581198D01*
X18996920Y-25581198D02*
X19006444Y-25590722D01*
X19006444Y-25590722D02*
X19015968Y-25609769D01*
X19015968Y-25609769D02*
X19015968Y-25657388D01*
X19015968Y-25657388D02*
X19006444Y-25676436D01*
X19006444Y-25676436D02*
X18996920Y-25685960D01*
X18996920Y-25685960D02*
X18977872Y-25695484D01*
X18977872Y-25695484D02*
X18930253Y-25695484D01*
X18930253Y-25695484D02*
X18911206Y-25685960D01*
X18911206Y-25685960D02*
X18901682Y-25676436D01*
X19082634Y-25495484D02*
X19215968Y-25495484D01*
X19215968Y-25495484D02*
X19130253Y-25695484D01*
X19282634Y-25495484D02*
X19282634Y-25533579D01*
X19358825Y-25495484D02*
X19358825Y-25533579D01*
X19654063Y-25771674D02*
X19644539Y-25762150D01*
X19644539Y-25762150D02*
X19625491Y-25733579D01*
X19625491Y-25733579D02*
X19615968Y-25714531D01*
X19615968Y-25714531D02*
X19606444Y-25685960D01*
X19606444Y-25685960D02*
X19596920Y-25638341D01*
X19596920Y-25638341D02*
X19596920Y-25600246D01*
X19596920Y-25600246D02*
X19606444Y-25552627D01*
X19606444Y-25552627D02*
X19615968Y-25524055D01*
X19615968Y-25524055D02*
X19625491Y-25505008D01*
X19625491Y-25505008D02*
X19644539Y-25476436D01*
X19644539Y-25476436D02*
X19654063Y-25466912D01*
X19835015Y-25695484D02*
X19720730Y-25695484D01*
X19777872Y-25695484D02*
X19777872Y-25495484D01*
X19777872Y-25495484D02*
X19758825Y-25524055D01*
X19758825Y-25524055D02*
X19739777Y-25543103D01*
X19739777Y-25543103D02*
X19720730Y-25552627D01*
X19958825Y-25495484D02*
X19977872Y-25495484D01*
X19977872Y-25495484D02*
X19996920Y-25505008D01*
X19996920Y-25505008D02*
X20006444Y-25514531D01*
X20006444Y-25514531D02*
X20015968Y-25533579D01*
X20015968Y-25533579D02*
X20025491Y-25571674D01*
X20025491Y-25571674D02*
X20025491Y-25619293D01*
X20025491Y-25619293D02*
X20015968Y-25657388D01*
X20015968Y-25657388D02*
X20006444Y-25676436D01*
X20006444Y-25676436D02*
X19996920Y-25685960D01*
X19996920Y-25685960D02*
X19977872Y-25695484D01*
X19977872Y-25695484D02*
X19958825Y-25695484D01*
X19958825Y-25695484D02*
X19939777Y-25685960D01*
X19939777Y-25685960D02*
X19930253Y-25676436D01*
X19930253Y-25676436D02*
X19920730Y-25657388D01*
X19920730Y-25657388D02*
X19911206Y-25619293D01*
X19911206Y-25619293D02*
X19911206Y-25571674D01*
X19911206Y-25571674D02*
X19920730Y-25533579D01*
X19920730Y-25533579D02*
X19930253Y-25514531D01*
X19930253Y-25514531D02*
X19939777Y-25505008D01*
X19939777Y-25505008D02*
X19958825Y-25495484D01*
X20263587Y-25695484D02*
X20263587Y-25495484D01*
X20349301Y-25695484D02*
X20349301Y-25590722D01*
X20349301Y-25590722D02*
X20339777Y-25571674D01*
X20339777Y-25571674D02*
X20320730Y-25562150D01*
X20320730Y-25562150D02*
X20292158Y-25562150D01*
X20292158Y-25562150D02*
X20273111Y-25571674D01*
X20273111Y-25571674D02*
X20263587Y-25581198D01*
X20473111Y-25695484D02*
X20454063Y-25685960D01*
X20454063Y-25685960D02*
X20444539Y-25676436D01*
X20444539Y-25676436D02*
X20435015Y-25657388D01*
X20435015Y-25657388D02*
X20435015Y-25600246D01*
X20435015Y-25600246D02*
X20444539Y-25581198D01*
X20444539Y-25581198D02*
X20454063Y-25571674D01*
X20454063Y-25571674D02*
X20473111Y-25562150D01*
X20473111Y-25562150D02*
X20501682Y-25562150D01*
X20501682Y-25562150D02*
X20520730Y-25571674D01*
X20520730Y-25571674D02*
X20530253Y-25581198D01*
X20530253Y-25581198D02*
X20539777Y-25600246D01*
X20539777Y-25600246D02*
X20539777Y-25657388D01*
X20539777Y-25657388D02*
X20530253Y-25676436D01*
X20530253Y-25676436D02*
X20520730Y-25685960D01*
X20520730Y-25685960D02*
X20501682Y-25695484D01*
X20501682Y-25695484D02*
X20473111Y-25695484D01*
X20654063Y-25695484D02*
X20635015Y-25685960D01*
X20635015Y-25685960D02*
X20625492Y-25666912D01*
X20625492Y-25666912D02*
X20625492Y-25495484D01*
X20806444Y-25685960D02*
X20787396Y-25695484D01*
X20787396Y-25695484D02*
X20749301Y-25695484D01*
X20749301Y-25695484D02*
X20730253Y-25685960D01*
X20730253Y-25685960D02*
X20720730Y-25666912D01*
X20720730Y-25666912D02*
X20720730Y-25590722D01*
X20720730Y-25590722D02*
X20730253Y-25571674D01*
X20730253Y-25571674D02*
X20749301Y-25562150D01*
X20749301Y-25562150D02*
X20787396Y-25562150D01*
X20787396Y-25562150D02*
X20806444Y-25571674D01*
X20806444Y-25571674D02*
X20815968Y-25590722D01*
X20815968Y-25590722D02*
X20815968Y-25609769D01*
X20815968Y-25609769D02*
X20720730Y-25628817D01*
X20892158Y-25685960D02*
X20911206Y-25695484D01*
X20911206Y-25695484D02*
X20949301Y-25695484D01*
X20949301Y-25695484D02*
X20968349Y-25685960D01*
X20968349Y-25685960D02*
X20977873Y-25666912D01*
X20977873Y-25666912D02*
X20977873Y-25657388D01*
X20977873Y-25657388D02*
X20968349Y-25638341D01*
X20968349Y-25638341D02*
X20949301Y-25628817D01*
X20949301Y-25628817D02*
X20920730Y-25628817D01*
X20920730Y-25628817D02*
X20901682Y-25619293D01*
X20901682Y-25619293D02*
X20892158Y-25600246D01*
X20892158Y-25600246D02*
X20892158Y-25590722D01*
X20892158Y-25590722D02*
X20901682Y-25571674D01*
X20901682Y-25571674D02*
X20920730Y-25562150D01*
X20920730Y-25562150D02*
X20949301Y-25562150D01*
X20949301Y-25562150D02*
X20968349Y-25571674D01*
X21044539Y-25771674D02*
X21054063Y-25762150D01*
X21054063Y-25762150D02*
X21073111Y-25733579D01*
X21073111Y-25733579D02*
X21082634Y-25714531D01*
X21082634Y-25714531D02*
X21092158Y-25685960D01*
X21092158Y-25685960D02*
X21101682Y-25638341D01*
X21101682Y-25638341D02*
X21101682Y-25600246D01*
X21101682Y-25600246D02*
X21092158Y-25552627D01*
X21092158Y-25552627D02*
X21082634Y-25524055D01*
X21082634Y-25524055D02*
X21073111Y-25505008D01*
X21073111Y-25505008D02*
X21054063Y-25476436D01*
X21054063Y-25476436D02*
X21044539Y-25466912D01*
D11*
X16079000Y-25868000D02*
G75*
G03*
X16079000Y-25868000I-50000J0D01*
G01*
D10*
X16444539Y-25959484D02*
X16330253Y-25959484D01*
X16387396Y-25959484D02*
X16387396Y-25759484D01*
X16387396Y-25759484D02*
X16368348Y-25788055D01*
X16368348Y-25788055D02*
X16349301Y-25807103D01*
X16349301Y-25807103D02*
X16330253Y-25816627D01*
X16530253Y-25940436D02*
X16539777Y-25949960D01*
X16539777Y-25949960D02*
X16530253Y-25959484D01*
X16530253Y-25959484D02*
X16520729Y-25949960D01*
X16520729Y-25949960D02*
X16530253Y-25940436D01*
X16530253Y-25940436D02*
X16530253Y-25959484D01*
X16663586Y-25759484D02*
X16682634Y-25759484D01*
X16682634Y-25759484D02*
X16701682Y-25769008D01*
X16701682Y-25769008D02*
X16711205Y-25778531D01*
X16711205Y-25778531D02*
X16720729Y-25797579D01*
X16720729Y-25797579D02*
X16730253Y-25835674D01*
X16730253Y-25835674D02*
X16730253Y-25883293D01*
X16730253Y-25883293D02*
X16720729Y-25921388D01*
X16720729Y-25921388D02*
X16711205Y-25940436D01*
X16711205Y-25940436D02*
X16701682Y-25949960D01*
X16701682Y-25949960D02*
X16682634Y-25959484D01*
X16682634Y-25959484D02*
X16663586Y-25959484D01*
X16663586Y-25959484D02*
X16644539Y-25949960D01*
X16644539Y-25949960D02*
X16635015Y-25940436D01*
X16635015Y-25940436D02*
X16625491Y-25921388D01*
X16625491Y-25921388D02*
X16615967Y-25883293D01*
X16615967Y-25883293D02*
X16615967Y-25835674D01*
X16615967Y-25835674D02*
X16625491Y-25797579D01*
X16625491Y-25797579D02*
X16635015Y-25778531D01*
X16635015Y-25778531D02*
X16644539Y-25769008D01*
X16644539Y-25769008D02*
X16663586Y-25759484D01*
X16854063Y-25759484D02*
X16873110Y-25759484D01*
X16873110Y-25759484D02*
X16892158Y-25769008D01*
X16892158Y-25769008D02*
X16901682Y-25778531D01*
X16901682Y-25778531D02*
X16911205Y-25797579D01*
X16911205Y-25797579D02*
X16920729Y-25835674D01*
X16920729Y-25835674D02*
X16920729Y-25883293D01*
X16920729Y-25883293D02*
X16911205Y-25921388D01*
X16911205Y-25921388D02*
X16901682Y-25940436D01*
X16901682Y-25940436D02*
X16892158Y-25949960D01*
X16892158Y-25949960D02*
X16873110Y-25959484D01*
X16873110Y-25959484D02*
X16854063Y-25959484D01*
X16854063Y-25959484D02*
X16835015Y-25949960D01*
X16835015Y-25949960D02*
X16825491Y-25940436D01*
X16825491Y-25940436D02*
X16815967Y-25921388D01*
X16815967Y-25921388D02*
X16806444Y-25883293D01*
X16806444Y-25883293D02*
X16806444Y-25835674D01*
X16806444Y-25835674D02*
X16815967Y-25797579D01*
X16815967Y-25797579D02*
X16825491Y-25778531D01*
X16825491Y-25778531D02*
X16835015Y-25769008D01*
X16835015Y-25769008D02*
X16854063Y-25759484D01*
X17044539Y-25759484D02*
X17063586Y-25759484D01*
X17063586Y-25759484D02*
X17082634Y-25769008D01*
X17082634Y-25769008D02*
X17092158Y-25778531D01*
X17092158Y-25778531D02*
X17101682Y-25797579D01*
X17101682Y-25797579D02*
X17111205Y-25835674D01*
X17111205Y-25835674D02*
X17111205Y-25883293D01*
X17111205Y-25883293D02*
X17101682Y-25921388D01*
X17101682Y-25921388D02*
X17092158Y-25940436D01*
X17092158Y-25940436D02*
X17082634Y-25949960D01*
X17082634Y-25949960D02*
X17063586Y-25959484D01*
X17063586Y-25959484D02*
X17044539Y-25959484D01*
X17044539Y-25959484D02*
X17025491Y-25949960D01*
X17025491Y-25949960D02*
X17015967Y-25940436D01*
X17015967Y-25940436D02*
X17006444Y-25921388D01*
X17006444Y-25921388D02*
X16996920Y-25883293D01*
X16996920Y-25883293D02*
X16996920Y-25835674D01*
X16996920Y-25835674D02*
X17006444Y-25797579D01*
X17006444Y-25797579D02*
X17015967Y-25778531D01*
X17015967Y-25778531D02*
X17025491Y-25769008D01*
X17025491Y-25769008D02*
X17044539Y-25759484D01*
X17196920Y-25959484D02*
X17196920Y-25826150D01*
X17196920Y-25845198D02*
X17206444Y-25835674D01*
X17206444Y-25835674D02*
X17225491Y-25826150D01*
X17225491Y-25826150D02*
X17254063Y-25826150D01*
X17254063Y-25826150D02*
X17273110Y-25835674D01*
X17273110Y-25835674D02*
X17282634Y-25854722D01*
X17282634Y-25854722D02*
X17282634Y-25959484D01*
X17282634Y-25854722D02*
X17292158Y-25835674D01*
X17292158Y-25835674D02*
X17311205Y-25826150D01*
X17311205Y-25826150D02*
X17339777Y-25826150D01*
X17339777Y-25826150D02*
X17358825Y-25835674D01*
X17358825Y-25835674D02*
X17368348Y-25854722D01*
X17368348Y-25854722D02*
X17368348Y-25959484D01*
X17463586Y-25959484D02*
X17463586Y-25826150D01*
X17463586Y-25845198D02*
X17473110Y-25835674D01*
X17473110Y-25835674D02*
X17492158Y-25826150D01*
X17492158Y-25826150D02*
X17520729Y-25826150D01*
X17520729Y-25826150D02*
X17539777Y-25835674D01*
X17539777Y-25835674D02*
X17549301Y-25854722D01*
X17549301Y-25854722D02*
X17549301Y-25959484D01*
X17549301Y-25854722D02*
X17558825Y-25835674D01*
X17558825Y-25835674D02*
X17577872Y-25826150D01*
X17577872Y-25826150D02*
X17606444Y-25826150D01*
X17606444Y-25826150D02*
X17625491Y-25835674D01*
X17625491Y-25835674D02*
X17635015Y-25854722D01*
X17635015Y-25854722D02*
X17635015Y-25959484D01*
X18025491Y-25749960D02*
X17854063Y-26007103D01*
X18282634Y-25759484D02*
X18301682Y-25759484D01*
X18301682Y-25759484D02*
X18320729Y-25769008D01*
X18320729Y-25769008D02*
X18330253Y-25778531D01*
X18330253Y-25778531D02*
X18339777Y-25797579D01*
X18339777Y-25797579D02*
X18349301Y-25835674D01*
X18349301Y-25835674D02*
X18349301Y-25883293D01*
X18349301Y-25883293D02*
X18339777Y-25921388D01*
X18339777Y-25921388D02*
X18330253Y-25940436D01*
X18330253Y-25940436D02*
X18320729Y-25949960D01*
X18320729Y-25949960D02*
X18301682Y-25959484D01*
X18301682Y-25959484D02*
X18282634Y-25959484D01*
X18282634Y-25959484D02*
X18263587Y-25949960D01*
X18263587Y-25949960D02*
X18254063Y-25940436D01*
X18254063Y-25940436D02*
X18244539Y-25921388D01*
X18244539Y-25921388D02*
X18235015Y-25883293D01*
X18235015Y-25883293D02*
X18235015Y-25835674D01*
X18235015Y-25835674D02*
X18244539Y-25797579D01*
X18244539Y-25797579D02*
X18254063Y-25778531D01*
X18254063Y-25778531D02*
X18263587Y-25769008D01*
X18263587Y-25769008D02*
X18282634Y-25759484D01*
X18435015Y-25940436D02*
X18444539Y-25949960D01*
X18444539Y-25949960D02*
X18435015Y-25959484D01*
X18435015Y-25959484D02*
X18425491Y-25949960D01*
X18425491Y-25949960D02*
X18435015Y-25940436D01*
X18435015Y-25940436D02*
X18435015Y-25959484D01*
X18568348Y-25759484D02*
X18587396Y-25759484D01*
X18587396Y-25759484D02*
X18606444Y-25769008D01*
X18606444Y-25769008D02*
X18615968Y-25778531D01*
X18615968Y-25778531D02*
X18625491Y-25797579D01*
X18625491Y-25797579D02*
X18635015Y-25835674D01*
X18635015Y-25835674D02*
X18635015Y-25883293D01*
X18635015Y-25883293D02*
X18625491Y-25921388D01*
X18625491Y-25921388D02*
X18615968Y-25940436D01*
X18615968Y-25940436D02*
X18606444Y-25949960D01*
X18606444Y-25949960D02*
X18587396Y-25959484D01*
X18587396Y-25959484D02*
X18568348Y-25959484D01*
X18568348Y-25959484D02*
X18549301Y-25949960D01*
X18549301Y-25949960D02*
X18539777Y-25940436D01*
X18539777Y-25940436D02*
X18530253Y-25921388D01*
X18530253Y-25921388D02*
X18520729Y-25883293D01*
X18520729Y-25883293D02*
X18520729Y-25835674D01*
X18520729Y-25835674D02*
X18530253Y-25797579D01*
X18530253Y-25797579D02*
X18539777Y-25778531D01*
X18539777Y-25778531D02*
X18549301Y-25769008D01*
X18549301Y-25769008D02*
X18568348Y-25759484D01*
X18701682Y-25759484D02*
X18825491Y-25759484D01*
X18825491Y-25759484D02*
X18758825Y-25835674D01*
X18758825Y-25835674D02*
X18787396Y-25835674D01*
X18787396Y-25835674D02*
X18806444Y-25845198D01*
X18806444Y-25845198D02*
X18815968Y-25854722D01*
X18815968Y-25854722D02*
X18825491Y-25873769D01*
X18825491Y-25873769D02*
X18825491Y-25921388D01*
X18825491Y-25921388D02*
X18815968Y-25940436D01*
X18815968Y-25940436D02*
X18806444Y-25949960D01*
X18806444Y-25949960D02*
X18787396Y-25959484D01*
X18787396Y-25959484D02*
X18730253Y-25959484D01*
X18730253Y-25959484D02*
X18711206Y-25949960D01*
X18711206Y-25949960D02*
X18701682Y-25940436D01*
X18920729Y-25959484D02*
X18958825Y-25959484D01*
X18958825Y-25959484D02*
X18977872Y-25949960D01*
X18977872Y-25949960D02*
X18987396Y-25940436D01*
X18987396Y-25940436D02*
X19006444Y-25911865D01*
X19006444Y-25911865D02*
X19015968Y-25873769D01*
X19015968Y-25873769D02*
X19015968Y-25797579D01*
X19015968Y-25797579D02*
X19006444Y-25778531D01*
X19006444Y-25778531D02*
X18996920Y-25769008D01*
X18996920Y-25769008D02*
X18977872Y-25759484D01*
X18977872Y-25759484D02*
X18939777Y-25759484D01*
X18939777Y-25759484D02*
X18920729Y-25769008D01*
X18920729Y-25769008D02*
X18911206Y-25778531D01*
X18911206Y-25778531D02*
X18901682Y-25797579D01*
X18901682Y-25797579D02*
X18901682Y-25845198D01*
X18901682Y-25845198D02*
X18911206Y-25864246D01*
X18911206Y-25864246D02*
X18920729Y-25873769D01*
X18920729Y-25873769D02*
X18939777Y-25883293D01*
X18939777Y-25883293D02*
X18977872Y-25883293D01*
X18977872Y-25883293D02*
X18996920Y-25873769D01*
X18996920Y-25873769D02*
X19006444Y-25864246D01*
X19006444Y-25864246D02*
X19015968Y-25845198D01*
X19187396Y-25826150D02*
X19187396Y-25959484D01*
X19139777Y-25749960D02*
X19092158Y-25892817D01*
X19092158Y-25892817D02*
X19215968Y-25892817D01*
X19282634Y-25759484D02*
X19282634Y-25797579D01*
X19358825Y-25759484D02*
X19358825Y-25797579D01*
X19654063Y-26035674D02*
X19644539Y-26026150D01*
X19644539Y-26026150D02*
X19625491Y-25997579D01*
X19625491Y-25997579D02*
X19615968Y-25978531D01*
X19615968Y-25978531D02*
X19606444Y-25949960D01*
X19606444Y-25949960D02*
X19596920Y-25902341D01*
X19596920Y-25902341D02*
X19596920Y-25864246D01*
X19596920Y-25864246D02*
X19606444Y-25816627D01*
X19606444Y-25816627D02*
X19615968Y-25788055D01*
X19615968Y-25788055D02*
X19625491Y-25769008D01*
X19625491Y-25769008D02*
X19644539Y-25740436D01*
X19644539Y-25740436D02*
X19654063Y-25730912D01*
X19758825Y-25845198D02*
X19739777Y-25835674D01*
X19739777Y-25835674D02*
X19730253Y-25826150D01*
X19730253Y-25826150D02*
X19720730Y-25807103D01*
X19720730Y-25807103D02*
X19720730Y-25797579D01*
X19720730Y-25797579D02*
X19730253Y-25778531D01*
X19730253Y-25778531D02*
X19739777Y-25769008D01*
X19739777Y-25769008D02*
X19758825Y-25759484D01*
X19758825Y-25759484D02*
X19796920Y-25759484D01*
X19796920Y-25759484D02*
X19815968Y-25769008D01*
X19815968Y-25769008D02*
X19825491Y-25778531D01*
X19825491Y-25778531D02*
X19835015Y-25797579D01*
X19835015Y-25797579D02*
X19835015Y-25807103D01*
X19835015Y-25807103D02*
X19825491Y-25826150D01*
X19825491Y-25826150D02*
X19815968Y-25835674D01*
X19815968Y-25835674D02*
X19796920Y-25845198D01*
X19796920Y-25845198D02*
X19758825Y-25845198D01*
X19758825Y-25845198D02*
X19739777Y-25854722D01*
X19739777Y-25854722D02*
X19730253Y-25864246D01*
X19730253Y-25864246D02*
X19720730Y-25883293D01*
X19720730Y-25883293D02*
X19720730Y-25921388D01*
X19720730Y-25921388D02*
X19730253Y-25940436D01*
X19730253Y-25940436D02*
X19739777Y-25949960D01*
X19739777Y-25949960D02*
X19758825Y-25959484D01*
X19758825Y-25959484D02*
X19796920Y-25959484D01*
X19796920Y-25959484D02*
X19815968Y-25949960D01*
X19815968Y-25949960D02*
X19825491Y-25940436D01*
X19825491Y-25940436D02*
X19835015Y-25921388D01*
X19835015Y-25921388D02*
X19835015Y-25883293D01*
X19835015Y-25883293D02*
X19825491Y-25864246D01*
X19825491Y-25864246D02*
X19815968Y-25854722D01*
X19815968Y-25854722D02*
X19796920Y-25845198D01*
X20073111Y-25959484D02*
X20073111Y-25759484D01*
X20158825Y-25959484D02*
X20158825Y-25854722D01*
X20158825Y-25854722D02*
X20149301Y-25835674D01*
X20149301Y-25835674D02*
X20130253Y-25826150D01*
X20130253Y-25826150D02*
X20101682Y-25826150D01*
X20101682Y-25826150D02*
X20082634Y-25835674D01*
X20082634Y-25835674D02*
X20073111Y-25845198D01*
X20282634Y-25959484D02*
X20263587Y-25949960D01*
X20263587Y-25949960D02*
X20254063Y-25940436D01*
X20254063Y-25940436D02*
X20244539Y-25921388D01*
X20244539Y-25921388D02*
X20244539Y-25864246D01*
X20244539Y-25864246D02*
X20254063Y-25845198D01*
X20254063Y-25845198D02*
X20263587Y-25835674D01*
X20263587Y-25835674D02*
X20282634Y-25826150D01*
X20282634Y-25826150D02*
X20311206Y-25826150D01*
X20311206Y-25826150D02*
X20330253Y-25835674D01*
X20330253Y-25835674D02*
X20339777Y-25845198D01*
X20339777Y-25845198D02*
X20349301Y-25864246D01*
X20349301Y-25864246D02*
X20349301Y-25921388D01*
X20349301Y-25921388D02*
X20339777Y-25940436D01*
X20339777Y-25940436D02*
X20330253Y-25949960D01*
X20330253Y-25949960D02*
X20311206Y-25959484D01*
X20311206Y-25959484D02*
X20282634Y-25959484D01*
X20463587Y-25959484D02*
X20444539Y-25949960D01*
X20444539Y-25949960D02*
X20435015Y-25930912D01*
X20435015Y-25930912D02*
X20435015Y-25759484D01*
X20615968Y-25949960D02*
X20596920Y-25959484D01*
X20596920Y-25959484D02*
X20558825Y-25959484D01*
X20558825Y-25959484D02*
X20539777Y-25949960D01*
X20539777Y-25949960D02*
X20530253Y-25930912D01*
X20530253Y-25930912D02*
X20530253Y-25854722D01*
X20530253Y-25854722D02*
X20539777Y-25835674D01*
X20539777Y-25835674D02*
X20558825Y-25826150D01*
X20558825Y-25826150D02*
X20596920Y-25826150D01*
X20596920Y-25826150D02*
X20615968Y-25835674D01*
X20615968Y-25835674D02*
X20625492Y-25854722D01*
X20625492Y-25854722D02*
X20625492Y-25873769D01*
X20625492Y-25873769D02*
X20530253Y-25892817D01*
X20701682Y-25949960D02*
X20720730Y-25959484D01*
X20720730Y-25959484D02*
X20758825Y-25959484D01*
X20758825Y-25959484D02*
X20777873Y-25949960D01*
X20777873Y-25949960D02*
X20787396Y-25930912D01*
X20787396Y-25930912D02*
X20787396Y-25921388D01*
X20787396Y-25921388D02*
X20777873Y-25902341D01*
X20777873Y-25902341D02*
X20758825Y-25892817D01*
X20758825Y-25892817D02*
X20730253Y-25892817D01*
X20730253Y-25892817D02*
X20711206Y-25883293D01*
X20711206Y-25883293D02*
X20701682Y-25864246D01*
X20701682Y-25864246D02*
X20701682Y-25854722D01*
X20701682Y-25854722D02*
X20711206Y-25835674D01*
X20711206Y-25835674D02*
X20730253Y-25826150D01*
X20730253Y-25826150D02*
X20758825Y-25826150D01*
X20758825Y-25826150D02*
X20777873Y-25835674D01*
X20854063Y-26035674D02*
X20863587Y-26026150D01*
X20863587Y-26026150D02*
X20882634Y-25997579D01*
X20882634Y-25997579D02*
X20892158Y-25978531D01*
X20892158Y-25978531D02*
X20901682Y-25949960D01*
X20901682Y-25949960D02*
X20911206Y-25902341D01*
X20911206Y-25902341D02*
X20911206Y-25864246D01*
X20911206Y-25864246D02*
X20901682Y-25816627D01*
X20901682Y-25816627D02*
X20892158Y-25788055D01*
X20892158Y-25788055D02*
X20882634Y-25769008D01*
X20882634Y-25769008D02*
X20863587Y-25740436D01*
X20863587Y-25740436D02*
X20854063Y-25730912D01*
X15979000Y-26032000D02*
X15979000Y-26232000D01*
X15879000Y-26132000D02*
X16079000Y-26132000D01*
X16330253Y-26042531D02*
X16339777Y-26033008D01*
X16339777Y-26033008D02*
X16358824Y-26023484D01*
X16358824Y-26023484D02*
X16406443Y-26023484D01*
X16406443Y-26023484D02*
X16425491Y-26033008D01*
X16425491Y-26033008D02*
X16435015Y-26042531D01*
X16435015Y-26042531D02*
X16444539Y-26061579D01*
X16444539Y-26061579D02*
X16444539Y-26080627D01*
X16444539Y-26080627D02*
X16435015Y-26109198D01*
X16435015Y-26109198D02*
X16320729Y-26223484D01*
X16320729Y-26223484D02*
X16444539Y-26223484D01*
X16530253Y-26204436D02*
X16539777Y-26213960D01*
X16539777Y-26213960D02*
X16530253Y-26223484D01*
X16530253Y-26223484D02*
X16520729Y-26213960D01*
X16520729Y-26213960D02*
X16530253Y-26204436D01*
X16530253Y-26204436D02*
X16530253Y-26223484D01*
X16663586Y-26023484D02*
X16682634Y-26023484D01*
X16682634Y-26023484D02*
X16701682Y-26033008D01*
X16701682Y-26033008D02*
X16711205Y-26042531D01*
X16711205Y-26042531D02*
X16720729Y-26061579D01*
X16720729Y-26061579D02*
X16730253Y-26099674D01*
X16730253Y-26099674D02*
X16730253Y-26147293D01*
X16730253Y-26147293D02*
X16720729Y-26185388D01*
X16720729Y-26185388D02*
X16711205Y-26204436D01*
X16711205Y-26204436D02*
X16701682Y-26213960D01*
X16701682Y-26213960D02*
X16682634Y-26223484D01*
X16682634Y-26223484D02*
X16663586Y-26223484D01*
X16663586Y-26223484D02*
X16644539Y-26213960D01*
X16644539Y-26213960D02*
X16635015Y-26204436D01*
X16635015Y-26204436D02*
X16625491Y-26185388D01*
X16625491Y-26185388D02*
X16615967Y-26147293D01*
X16615967Y-26147293D02*
X16615967Y-26099674D01*
X16615967Y-26099674D02*
X16625491Y-26061579D01*
X16625491Y-26061579D02*
X16635015Y-26042531D01*
X16635015Y-26042531D02*
X16644539Y-26033008D01*
X16644539Y-26033008D02*
X16663586Y-26023484D01*
X16854063Y-26023484D02*
X16873110Y-26023484D01*
X16873110Y-26023484D02*
X16892158Y-26033008D01*
X16892158Y-26033008D02*
X16901682Y-26042531D01*
X16901682Y-26042531D02*
X16911205Y-26061579D01*
X16911205Y-26061579D02*
X16920729Y-26099674D01*
X16920729Y-26099674D02*
X16920729Y-26147293D01*
X16920729Y-26147293D02*
X16911205Y-26185388D01*
X16911205Y-26185388D02*
X16901682Y-26204436D01*
X16901682Y-26204436D02*
X16892158Y-26213960D01*
X16892158Y-26213960D02*
X16873110Y-26223484D01*
X16873110Y-26223484D02*
X16854063Y-26223484D01*
X16854063Y-26223484D02*
X16835015Y-26213960D01*
X16835015Y-26213960D02*
X16825491Y-26204436D01*
X16825491Y-26204436D02*
X16815967Y-26185388D01*
X16815967Y-26185388D02*
X16806444Y-26147293D01*
X16806444Y-26147293D02*
X16806444Y-26099674D01*
X16806444Y-26099674D02*
X16815967Y-26061579D01*
X16815967Y-26061579D02*
X16825491Y-26042531D01*
X16825491Y-26042531D02*
X16835015Y-26033008D01*
X16835015Y-26033008D02*
X16854063Y-26023484D01*
X17044539Y-26023484D02*
X17063586Y-26023484D01*
X17063586Y-26023484D02*
X17082634Y-26033008D01*
X17082634Y-26033008D02*
X17092158Y-26042531D01*
X17092158Y-26042531D02*
X17101682Y-26061579D01*
X17101682Y-26061579D02*
X17111205Y-26099674D01*
X17111205Y-26099674D02*
X17111205Y-26147293D01*
X17111205Y-26147293D02*
X17101682Y-26185388D01*
X17101682Y-26185388D02*
X17092158Y-26204436D01*
X17092158Y-26204436D02*
X17082634Y-26213960D01*
X17082634Y-26213960D02*
X17063586Y-26223484D01*
X17063586Y-26223484D02*
X17044539Y-26223484D01*
X17044539Y-26223484D02*
X17025491Y-26213960D01*
X17025491Y-26213960D02*
X17015967Y-26204436D01*
X17015967Y-26204436D02*
X17006444Y-26185388D01*
X17006444Y-26185388D02*
X16996920Y-26147293D01*
X16996920Y-26147293D02*
X16996920Y-26099674D01*
X16996920Y-26099674D02*
X17006444Y-26061579D01*
X17006444Y-26061579D02*
X17015967Y-26042531D01*
X17015967Y-26042531D02*
X17025491Y-26033008D01*
X17025491Y-26033008D02*
X17044539Y-26023484D01*
X17196920Y-26223484D02*
X17196920Y-26090150D01*
X17196920Y-26109198D02*
X17206444Y-26099674D01*
X17206444Y-26099674D02*
X17225491Y-26090150D01*
X17225491Y-26090150D02*
X17254063Y-26090150D01*
X17254063Y-26090150D02*
X17273110Y-26099674D01*
X17273110Y-26099674D02*
X17282634Y-26118722D01*
X17282634Y-26118722D02*
X17282634Y-26223484D01*
X17282634Y-26118722D02*
X17292158Y-26099674D01*
X17292158Y-26099674D02*
X17311205Y-26090150D01*
X17311205Y-26090150D02*
X17339777Y-26090150D01*
X17339777Y-26090150D02*
X17358825Y-26099674D01*
X17358825Y-26099674D02*
X17368348Y-26118722D01*
X17368348Y-26118722D02*
X17368348Y-26223484D01*
X17463586Y-26223484D02*
X17463586Y-26090150D01*
X17463586Y-26109198D02*
X17473110Y-26099674D01*
X17473110Y-26099674D02*
X17492158Y-26090150D01*
X17492158Y-26090150D02*
X17520729Y-26090150D01*
X17520729Y-26090150D02*
X17539777Y-26099674D01*
X17539777Y-26099674D02*
X17549301Y-26118722D01*
X17549301Y-26118722D02*
X17549301Y-26223484D01*
X17549301Y-26118722D02*
X17558825Y-26099674D01*
X17558825Y-26099674D02*
X17577872Y-26090150D01*
X17577872Y-26090150D02*
X17606444Y-26090150D01*
X17606444Y-26090150D02*
X17625491Y-26099674D01*
X17625491Y-26099674D02*
X17635015Y-26118722D01*
X17635015Y-26118722D02*
X17635015Y-26223484D01*
X18025491Y-26013960D02*
X17854063Y-26271103D01*
X18282634Y-26023484D02*
X18301682Y-26023484D01*
X18301682Y-26023484D02*
X18320729Y-26033008D01*
X18320729Y-26033008D02*
X18330253Y-26042531D01*
X18330253Y-26042531D02*
X18339777Y-26061579D01*
X18339777Y-26061579D02*
X18349301Y-26099674D01*
X18349301Y-26099674D02*
X18349301Y-26147293D01*
X18349301Y-26147293D02*
X18339777Y-26185388D01*
X18339777Y-26185388D02*
X18330253Y-26204436D01*
X18330253Y-26204436D02*
X18320729Y-26213960D01*
X18320729Y-26213960D02*
X18301682Y-26223484D01*
X18301682Y-26223484D02*
X18282634Y-26223484D01*
X18282634Y-26223484D02*
X18263587Y-26213960D01*
X18263587Y-26213960D02*
X18254063Y-26204436D01*
X18254063Y-26204436D02*
X18244539Y-26185388D01*
X18244539Y-26185388D02*
X18235015Y-26147293D01*
X18235015Y-26147293D02*
X18235015Y-26099674D01*
X18235015Y-26099674D02*
X18244539Y-26061579D01*
X18244539Y-26061579D02*
X18254063Y-26042531D01*
X18254063Y-26042531D02*
X18263587Y-26033008D01*
X18263587Y-26033008D02*
X18282634Y-26023484D01*
X18435015Y-26204436D02*
X18444539Y-26213960D01*
X18444539Y-26213960D02*
X18435015Y-26223484D01*
X18435015Y-26223484D02*
X18425491Y-26213960D01*
X18425491Y-26213960D02*
X18435015Y-26204436D01*
X18435015Y-26204436D02*
X18435015Y-26223484D01*
X18568348Y-26023484D02*
X18587396Y-26023484D01*
X18587396Y-26023484D02*
X18606444Y-26033008D01*
X18606444Y-26033008D02*
X18615968Y-26042531D01*
X18615968Y-26042531D02*
X18625491Y-26061579D01*
X18625491Y-26061579D02*
X18635015Y-26099674D01*
X18635015Y-26099674D02*
X18635015Y-26147293D01*
X18635015Y-26147293D02*
X18625491Y-26185388D01*
X18625491Y-26185388D02*
X18615968Y-26204436D01*
X18615968Y-26204436D02*
X18606444Y-26213960D01*
X18606444Y-26213960D02*
X18587396Y-26223484D01*
X18587396Y-26223484D02*
X18568348Y-26223484D01*
X18568348Y-26223484D02*
X18549301Y-26213960D01*
X18549301Y-26213960D02*
X18539777Y-26204436D01*
X18539777Y-26204436D02*
X18530253Y-26185388D01*
X18530253Y-26185388D02*
X18520729Y-26147293D01*
X18520729Y-26147293D02*
X18520729Y-26099674D01*
X18520729Y-26099674D02*
X18530253Y-26061579D01*
X18530253Y-26061579D02*
X18539777Y-26042531D01*
X18539777Y-26042531D02*
X18549301Y-26033008D01*
X18549301Y-26033008D02*
X18568348Y-26023484D01*
X18701682Y-26023484D02*
X18835015Y-26023484D01*
X18835015Y-26023484D02*
X18749301Y-26223484D01*
X18939777Y-26109198D02*
X18920729Y-26099674D01*
X18920729Y-26099674D02*
X18911206Y-26090150D01*
X18911206Y-26090150D02*
X18901682Y-26071103D01*
X18901682Y-26071103D02*
X18901682Y-26061579D01*
X18901682Y-26061579D02*
X18911206Y-26042531D01*
X18911206Y-26042531D02*
X18920729Y-26033008D01*
X18920729Y-26033008D02*
X18939777Y-26023484D01*
X18939777Y-26023484D02*
X18977872Y-26023484D01*
X18977872Y-26023484D02*
X18996920Y-26033008D01*
X18996920Y-26033008D02*
X19006444Y-26042531D01*
X19006444Y-26042531D02*
X19015968Y-26061579D01*
X19015968Y-26061579D02*
X19015968Y-26071103D01*
X19015968Y-26071103D02*
X19006444Y-26090150D01*
X19006444Y-26090150D02*
X18996920Y-26099674D01*
X18996920Y-26099674D02*
X18977872Y-26109198D01*
X18977872Y-26109198D02*
X18939777Y-26109198D01*
X18939777Y-26109198D02*
X18920729Y-26118722D01*
X18920729Y-26118722D02*
X18911206Y-26128246D01*
X18911206Y-26128246D02*
X18901682Y-26147293D01*
X18901682Y-26147293D02*
X18901682Y-26185388D01*
X18901682Y-26185388D02*
X18911206Y-26204436D01*
X18911206Y-26204436D02*
X18920729Y-26213960D01*
X18920729Y-26213960D02*
X18939777Y-26223484D01*
X18939777Y-26223484D02*
X18977872Y-26223484D01*
X18977872Y-26223484D02*
X18996920Y-26213960D01*
X18996920Y-26213960D02*
X19006444Y-26204436D01*
X19006444Y-26204436D02*
X19015968Y-26185388D01*
X19015968Y-26185388D02*
X19015968Y-26147293D01*
X19015968Y-26147293D02*
X19006444Y-26128246D01*
X19006444Y-26128246D02*
X18996920Y-26118722D01*
X18996920Y-26118722D02*
X18977872Y-26109198D01*
X19082634Y-26023484D02*
X19215968Y-26023484D01*
X19215968Y-26023484D02*
X19130253Y-26223484D01*
X19282634Y-26023484D02*
X19282634Y-26061579D01*
X19358825Y-26023484D02*
X19358825Y-26061579D01*
X19654063Y-26299674D02*
X19644539Y-26290150D01*
X19644539Y-26290150D02*
X19625491Y-26261579D01*
X19625491Y-26261579D02*
X19615968Y-26242531D01*
X19615968Y-26242531D02*
X19606444Y-26213960D01*
X19606444Y-26213960D02*
X19596920Y-26166341D01*
X19596920Y-26166341D02*
X19596920Y-26128246D01*
X19596920Y-26128246D02*
X19606444Y-26080627D01*
X19606444Y-26080627D02*
X19615968Y-26052055D01*
X19615968Y-26052055D02*
X19625491Y-26033008D01*
X19625491Y-26033008D02*
X19644539Y-26004436D01*
X19644539Y-26004436D02*
X19654063Y-25994912D01*
X19720730Y-26042531D02*
X19730253Y-26033008D01*
X19730253Y-26033008D02*
X19749301Y-26023484D01*
X19749301Y-26023484D02*
X19796920Y-26023484D01*
X19796920Y-26023484D02*
X19815968Y-26033008D01*
X19815968Y-26033008D02*
X19825491Y-26042531D01*
X19825491Y-26042531D02*
X19835015Y-26061579D01*
X19835015Y-26061579D02*
X19835015Y-26080627D01*
X19835015Y-26080627D02*
X19825491Y-26109198D01*
X19825491Y-26109198D02*
X19711206Y-26223484D01*
X19711206Y-26223484D02*
X19835015Y-26223484D01*
X20006444Y-26090150D02*
X20006444Y-26223484D01*
X19958825Y-26013960D02*
X19911206Y-26156817D01*
X19911206Y-26156817D02*
X20035015Y-26156817D01*
X20263587Y-26223484D02*
X20263587Y-26023484D01*
X20349301Y-26223484D02*
X20349301Y-26118722D01*
X20349301Y-26118722D02*
X20339777Y-26099674D01*
X20339777Y-26099674D02*
X20320730Y-26090150D01*
X20320730Y-26090150D02*
X20292158Y-26090150D01*
X20292158Y-26090150D02*
X20273111Y-26099674D01*
X20273111Y-26099674D02*
X20263587Y-26109198D01*
X20473111Y-26223484D02*
X20454063Y-26213960D01*
X20454063Y-26213960D02*
X20444539Y-26204436D01*
X20444539Y-26204436D02*
X20435015Y-26185388D01*
X20435015Y-26185388D02*
X20435015Y-26128246D01*
X20435015Y-26128246D02*
X20444539Y-26109198D01*
X20444539Y-26109198D02*
X20454063Y-26099674D01*
X20454063Y-26099674D02*
X20473111Y-26090150D01*
X20473111Y-26090150D02*
X20501682Y-26090150D01*
X20501682Y-26090150D02*
X20520730Y-26099674D01*
X20520730Y-26099674D02*
X20530253Y-26109198D01*
X20530253Y-26109198D02*
X20539777Y-26128246D01*
X20539777Y-26128246D02*
X20539777Y-26185388D01*
X20539777Y-26185388D02*
X20530253Y-26204436D01*
X20530253Y-26204436D02*
X20520730Y-26213960D01*
X20520730Y-26213960D02*
X20501682Y-26223484D01*
X20501682Y-26223484D02*
X20473111Y-26223484D01*
X20654063Y-26223484D02*
X20635015Y-26213960D01*
X20635015Y-26213960D02*
X20625492Y-26194912D01*
X20625492Y-26194912D02*
X20625492Y-26023484D01*
X20806444Y-26213960D02*
X20787396Y-26223484D01*
X20787396Y-26223484D02*
X20749301Y-26223484D01*
X20749301Y-26223484D02*
X20730253Y-26213960D01*
X20730253Y-26213960D02*
X20720730Y-26194912D01*
X20720730Y-26194912D02*
X20720730Y-26118722D01*
X20720730Y-26118722D02*
X20730253Y-26099674D01*
X20730253Y-26099674D02*
X20749301Y-26090150D01*
X20749301Y-26090150D02*
X20787396Y-26090150D01*
X20787396Y-26090150D02*
X20806444Y-26099674D01*
X20806444Y-26099674D02*
X20815968Y-26118722D01*
X20815968Y-26118722D02*
X20815968Y-26137769D01*
X20815968Y-26137769D02*
X20720730Y-26156817D01*
X20892158Y-26213960D02*
X20911206Y-26223484D01*
X20911206Y-26223484D02*
X20949301Y-26223484D01*
X20949301Y-26223484D02*
X20968349Y-26213960D01*
X20968349Y-26213960D02*
X20977873Y-26194912D01*
X20977873Y-26194912D02*
X20977873Y-26185388D01*
X20977873Y-26185388D02*
X20968349Y-26166341D01*
X20968349Y-26166341D02*
X20949301Y-26156817D01*
X20949301Y-26156817D02*
X20920730Y-26156817D01*
X20920730Y-26156817D02*
X20901682Y-26147293D01*
X20901682Y-26147293D02*
X20892158Y-26128246D01*
X20892158Y-26128246D02*
X20892158Y-26118722D01*
X20892158Y-26118722D02*
X20901682Y-26099674D01*
X20901682Y-26099674D02*
X20920730Y-26090150D01*
X20920730Y-26090150D02*
X20949301Y-26090150D01*
X20949301Y-26090150D02*
X20968349Y-26099674D01*
X21044539Y-26299674D02*
X21054063Y-26290150D01*
X21054063Y-26290150D02*
X21073111Y-26261579D01*
X21073111Y-26261579D02*
X21082634Y-26242531D01*
X21082634Y-26242531D02*
X21092158Y-26213960D01*
X21092158Y-26213960D02*
X21101682Y-26166341D01*
X21101682Y-26166341D02*
X21101682Y-26128246D01*
X21101682Y-26128246D02*
X21092158Y-26080627D01*
X21092158Y-26080627D02*
X21082634Y-26052055D01*
X21082634Y-26052055D02*
X21073111Y-26033008D01*
X21073111Y-26033008D02*
X21054063Y-26004436D01*
X21054063Y-26004436D02*
X21044539Y-25994912D01*
X16049711Y-26522711D02*
X16049711Y-26381289D01*
X15908289Y-26381289D01*
X15908289Y-26522711D01*
X16049711Y-26522711D01*
X16330253Y-26362531D02*
X16339777Y-26353008D01*
X16339777Y-26353008D02*
X16358824Y-26343484D01*
X16358824Y-26343484D02*
X16406443Y-26343484D01*
X16406443Y-26343484D02*
X16425491Y-26353008D01*
X16425491Y-26353008D02*
X16435015Y-26362531D01*
X16435015Y-26362531D02*
X16444539Y-26381579D01*
X16444539Y-26381579D02*
X16444539Y-26400627D01*
X16444539Y-26400627D02*
X16435015Y-26429198D01*
X16435015Y-26429198D02*
X16320729Y-26543484D01*
X16320729Y-26543484D02*
X16444539Y-26543484D01*
X16530253Y-26524436D02*
X16539777Y-26533960D01*
X16539777Y-26533960D02*
X16530253Y-26543484D01*
X16530253Y-26543484D02*
X16520729Y-26533960D01*
X16520729Y-26533960D02*
X16530253Y-26524436D01*
X16530253Y-26524436D02*
X16530253Y-26543484D01*
X16615967Y-26362531D02*
X16625491Y-26353008D01*
X16625491Y-26353008D02*
X16644539Y-26343484D01*
X16644539Y-26343484D02*
X16692158Y-26343484D01*
X16692158Y-26343484D02*
X16711205Y-26353008D01*
X16711205Y-26353008D02*
X16720729Y-26362531D01*
X16720729Y-26362531D02*
X16730253Y-26381579D01*
X16730253Y-26381579D02*
X16730253Y-26400627D01*
X16730253Y-26400627D02*
X16720729Y-26429198D01*
X16720729Y-26429198D02*
X16606443Y-26543484D01*
X16606443Y-26543484D02*
X16730253Y-26543484D01*
X16854063Y-26343484D02*
X16873110Y-26343484D01*
X16873110Y-26343484D02*
X16892158Y-26353008D01*
X16892158Y-26353008D02*
X16901682Y-26362531D01*
X16901682Y-26362531D02*
X16911205Y-26381579D01*
X16911205Y-26381579D02*
X16920729Y-26419674D01*
X16920729Y-26419674D02*
X16920729Y-26467293D01*
X16920729Y-26467293D02*
X16911205Y-26505388D01*
X16911205Y-26505388D02*
X16901682Y-26524436D01*
X16901682Y-26524436D02*
X16892158Y-26533960D01*
X16892158Y-26533960D02*
X16873110Y-26543484D01*
X16873110Y-26543484D02*
X16854063Y-26543484D01*
X16854063Y-26543484D02*
X16835015Y-26533960D01*
X16835015Y-26533960D02*
X16825491Y-26524436D01*
X16825491Y-26524436D02*
X16815967Y-26505388D01*
X16815967Y-26505388D02*
X16806444Y-26467293D01*
X16806444Y-26467293D02*
X16806444Y-26419674D01*
X16806444Y-26419674D02*
X16815967Y-26381579D01*
X16815967Y-26381579D02*
X16825491Y-26362531D01*
X16825491Y-26362531D02*
X16835015Y-26353008D01*
X16835015Y-26353008D02*
X16854063Y-26343484D01*
X17044539Y-26343484D02*
X17063586Y-26343484D01*
X17063586Y-26343484D02*
X17082634Y-26353008D01*
X17082634Y-26353008D02*
X17092158Y-26362531D01*
X17092158Y-26362531D02*
X17101682Y-26381579D01*
X17101682Y-26381579D02*
X17111205Y-26419674D01*
X17111205Y-26419674D02*
X17111205Y-26467293D01*
X17111205Y-26467293D02*
X17101682Y-26505388D01*
X17101682Y-26505388D02*
X17092158Y-26524436D01*
X17092158Y-26524436D02*
X17082634Y-26533960D01*
X17082634Y-26533960D02*
X17063586Y-26543484D01*
X17063586Y-26543484D02*
X17044539Y-26543484D01*
X17044539Y-26543484D02*
X17025491Y-26533960D01*
X17025491Y-26533960D02*
X17015967Y-26524436D01*
X17015967Y-26524436D02*
X17006444Y-26505388D01*
X17006444Y-26505388D02*
X16996920Y-26467293D01*
X16996920Y-26467293D02*
X16996920Y-26419674D01*
X16996920Y-26419674D02*
X17006444Y-26381579D01*
X17006444Y-26381579D02*
X17015967Y-26362531D01*
X17015967Y-26362531D02*
X17025491Y-26353008D01*
X17025491Y-26353008D02*
X17044539Y-26343484D01*
X17196920Y-26543484D02*
X17196920Y-26410150D01*
X17196920Y-26429198D02*
X17206444Y-26419674D01*
X17206444Y-26419674D02*
X17225491Y-26410150D01*
X17225491Y-26410150D02*
X17254063Y-26410150D01*
X17254063Y-26410150D02*
X17273110Y-26419674D01*
X17273110Y-26419674D02*
X17282634Y-26438722D01*
X17282634Y-26438722D02*
X17282634Y-26543484D01*
X17282634Y-26438722D02*
X17292158Y-26419674D01*
X17292158Y-26419674D02*
X17311205Y-26410150D01*
X17311205Y-26410150D02*
X17339777Y-26410150D01*
X17339777Y-26410150D02*
X17358825Y-26419674D01*
X17358825Y-26419674D02*
X17368348Y-26438722D01*
X17368348Y-26438722D02*
X17368348Y-26543484D01*
X17463586Y-26543484D02*
X17463586Y-26410150D01*
X17463586Y-26429198D02*
X17473110Y-26419674D01*
X17473110Y-26419674D02*
X17492158Y-26410150D01*
X17492158Y-26410150D02*
X17520729Y-26410150D01*
X17520729Y-26410150D02*
X17539777Y-26419674D01*
X17539777Y-26419674D02*
X17549301Y-26438722D01*
X17549301Y-26438722D02*
X17549301Y-26543484D01*
X17549301Y-26438722D02*
X17558825Y-26419674D01*
X17558825Y-26419674D02*
X17577872Y-26410150D01*
X17577872Y-26410150D02*
X17606444Y-26410150D01*
X17606444Y-26410150D02*
X17625491Y-26419674D01*
X17625491Y-26419674D02*
X17635015Y-26438722D01*
X17635015Y-26438722D02*
X17635015Y-26543484D01*
X18025491Y-26333960D02*
X17854063Y-26591103D01*
X18282634Y-26343484D02*
X18301682Y-26343484D01*
X18301682Y-26343484D02*
X18320729Y-26353008D01*
X18320729Y-26353008D02*
X18330253Y-26362531D01*
X18330253Y-26362531D02*
X18339777Y-26381579D01*
X18339777Y-26381579D02*
X18349301Y-26419674D01*
X18349301Y-26419674D02*
X18349301Y-26467293D01*
X18349301Y-26467293D02*
X18339777Y-26505388D01*
X18339777Y-26505388D02*
X18330253Y-26524436D01*
X18330253Y-26524436D02*
X18320729Y-26533960D01*
X18320729Y-26533960D02*
X18301682Y-26543484D01*
X18301682Y-26543484D02*
X18282634Y-26543484D01*
X18282634Y-26543484D02*
X18263587Y-26533960D01*
X18263587Y-26533960D02*
X18254063Y-26524436D01*
X18254063Y-26524436D02*
X18244539Y-26505388D01*
X18244539Y-26505388D02*
X18235015Y-26467293D01*
X18235015Y-26467293D02*
X18235015Y-26419674D01*
X18235015Y-26419674D02*
X18244539Y-26381579D01*
X18244539Y-26381579D02*
X18254063Y-26362531D01*
X18254063Y-26362531D02*
X18263587Y-26353008D01*
X18263587Y-26353008D02*
X18282634Y-26343484D01*
X18435015Y-26524436D02*
X18444539Y-26533960D01*
X18444539Y-26533960D02*
X18435015Y-26543484D01*
X18435015Y-26543484D02*
X18425491Y-26533960D01*
X18425491Y-26533960D02*
X18435015Y-26524436D01*
X18435015Y-26524436D02*
X18435015Y-26543484D01*
X18568348Y-26343484D02*
X18587396Y-26343484D01*
X18587396Y-26343484D02*
X18606444Y-26353008D01*
X18606444Y-26353008D02*
X18615968Y-26362531D01*
X18615968Y-26362531D02*
X18625491Y-26381579D01*
X18625491Y-26381579D02*
X18635015Y-26419674D01*
X18635015Y-26419674D02*
X18635015Y-26467293D01*
X18635015Y-26467293D02*
X18625491Y-26505388D01*
X18625491Y-26505388D02*
X18615968Y-26524436D01*
X18615968Y-26524436D02*
X18606444Y-26533960D01*
X18606444Y-26533960D02*
X18587396Y-26543484D01*
X18587396Y-26543484D02*
X18568348Y-26543484D01*
X18568348Y-26543484D02*
X18549301Y-26533960D01*
X18549301Y-26533960D02*
X18539777Y-26524436D01*
X18539777Y-26524436D02*
X18530253Y-26505388D01*
X18530253Y-26505388D02*
X18520729Y-26467293D01*
X18520729Y-26467293D02*
X18520729Y-26419674D01*
X18520729Y-26419674D02*
X18530253Y-26381579D01*
X18530253Y-26381579D02*
X18539777Y-26362531D01*
X18539777Y-26362531D02*
X18549301Y-26353008D01*
X18549301Y-26353008D02*
X18568348Y-26343484D01*
X18749301Y-26429198D02*
X18730253Y-26419674D01*
X18730253Y-26419674D02*
X18720729Y-26410150D01*
X18720729Y-26410150D02*
X18711206Y-26391103D01*
X18711206Y-26391103D02*
X18711206Y-26381579D01*
X18711206Y-26381579D02*
X18720729Y-26362531D01*
X18720729Y-26362531D02*
X18730253Y-26353008D01*
X18730253Y-26353008D02*
X18749301Y-26343484D01*
X18749301Y-26343484D02*
X18787396Y-26343484D01*
X18787396Y-26343484D02*
X18806444Y-26353008D01*
X18806444Y-26353008D02*
X18815968Y-26362531D01*
X18815968Y-26362531D02*
X18825491Y-26381579D01*
X18825491Y-26381579D02*
X18825491Y-26391103D01*
X18825491Y-26391103D02*
X18815968Y-26410150D01*
X18815968Y-26410150D02*
X18806444Y-26419674D01*
X18806444Y-26419674D02*
X18787396Y-26429198D01*
X18787396Y-26429198D02*
X18749301Y-26429198D01*
X18749301Y-26429198D02*
X18730253Y-26438722D01*
X18730253Y-26438722D02*
X18720729Y-26448246D01*
X18720729Y-26448246D02*
X18711206Y-26467293D01*
X18711206Y-26467293D02*
X18711206Y-26505388D01*
X18711206Y-26505388D02*
X18720729Y-26524436D01*
X18720729Y-26524436D02*
X18730253Y-26533960D01*
X18730253Y-26533960D02*
X18749301Y-26543484D01*
X18749301Y-26543484D02*
X18787396Y-26543484D01*
X18787396Y-26543484D02*
X18806444Y-26533960D01*
X18806444Y-26533960D02*
X18815968Y-26524436D01*
X18815968Y-26524436D02*
X18825491Y-26505388D01*
X18825491Y-26505388D02*
X18825491Y-26467293D01*
X18825491Y-26467293D02*
X18815968Y-26448246D01*
X18815968Y-26448246D02*
X18806444Y-26438722D01*
X18806444Y-26438722D02*
X18787396Y-26429198D01*
X18996920Y-26343484D02*
X18958825Y-26343484D01*
X18958825Y-26343484D02*
X18939777Y-26353008D01*
X18939777Y-26353008D02*
X18930253Y-26362531D01*
X18930253Y-26362531D02*
X18911206Y-26391103D01*
X18911206Y-26391103D02*
X18901682Y-26429198D01*
X18901682Y-26429198D02*
X18901682Y-26505388D01*
X18901682Y-26505388D02*
X18911206Y-26524436D01*
X18911206Y-26524436D02*
X18920729Y-26533960D01*
X18920729Y-26533960D02*
X18939777Y-26543484D01*
X18939777Y-26543484D02*
X18977872Y-26543484D01*
X18977872Y-26543484D02*
X18996920Y-26533960D01*
X18996920Y-26533960D02*
X19006444Y-26524436D01*
X19006444Y-26524436D02*
X19015968Y-26505388D01*
X19015968Y-26505388D02*
X19015968Y-26457769D01*
X19015968Y-26457769D02*
X19006444Y-26438722D01*
X19006444Y-26438722D02*
X18996920Y-26429198D01*
X18996920Y-26429198D02*
X18977872Y-26419674D01*
X18977872Y-26419674D02*
X18939777Y-26419674D01*
X18939777Y-26419674D02*
X18920729Y-26429198D01*
X18920729Y-26429198D02*
X18911206Y-26438722D01*
X18911206Y-26438722D02*
X18901682Y-26457769D01*
X19187396Y-26343484D02*
X19149301Y-26343484D01*
X19149301Y-26343484D02*
X19130253Y-26353008D01*
X19130253Y-26353008D02*
X19120729Y-26362531D01*
X19120729Y-26362531D02*
X19101682Y-26391103D01*
X19101682Y-26391103D02*
X19092158Y-26429198D01*
X19092158Y-26429198D02*
X19092158Y-26505388D01*
X19092158Y-26505388D02*
X19101682Y-26524436D01*
X19101682Y-26524436D02*
X19111206Y-26533960D01*
X19111206Y-26533960D02*
X19130253Y-26543484D01*
X19130253Y-26543484D02*
X19168349Y-26543484D01*
X19168349Y-26543484D02*
X19187396Y-26533960D01*
X19187396Y-26533960D02*
X19196920Y-26524436D01*
X19196920Y-26524436D02*
X19206444Y-26505388D01*
X19206444Y-26505388D02*
X19206444Y-26457769D01*
X19206444Y-26457769D02*
X19196920Y-26438722D01*
X19196920Y-26438722D02*
X19187396Y-26429198D01*
X19187396Y-26429198D02*
X19168349Y-26419674D01*
X19168349Y-26419674D02*
X19130253Y-26419674D01*
X19130253Y-26419674D02*
X19111206Y-26429198D01*
X19111206Y-26429198D02*
X19101682Y-26438722D01*
X19101682Y-26438722D02*
X19092158Y-26457769D01*
X19282634Y-26343484D02*
X19282634Y-26381579D01*
X19358825Y-26343484D02*
X19358825Y-26381579D01*
X19654063Y-26619674D02*
X19644539Y-26610150D01*
X19644539Y-26610150D02*
X19625491Y-26581579D01*
X19625491Y-26581579D02*
X19615968Y-26562531D01*
X19615968Y-26562531D02*
X19606444Y-26533960D01*
X19606444Y-26533960D02*
X19596920Y-26486341D01*
X19596920Y-26486341D02*
X19596920Y-26448246D01*
X19596920Y-26448246D02*
X19606444Y-26400627D01*
X19606444Y-26400627D02*
X19615968Y-26372055D01*
X19615968Y-26372055D02*
X19625491Y-26353008D01*
X19625491Y-26353008D02*
X19644539Y-26324436D01*
X19644539Y-26324436D02*
X19654063Y-26314912D01*
X19835015Y-26543484D02*
X19720730Y-26543484D01*
X19777872Y-26543484D02*
X19777872Y-26343484D01*
X19777872Y-26343484D02*
X19758825Y-26372055D01*
X19758825Y-26372055D02*
X19739777Y-26391103D01*
X19739777Y-26391103D02*
X19720730Y-26400627D01*
X19911206Y-26362531D02*
X19920730Y-26353008D01*
X19920730Y-26353008D02*
X19939777Y-26343484D01*
X19939777Y-26343484D02*
X19987396Y-26343484D01*
X19987396Y-26343484D02*
X20006444Y-26353008D01*
X20006444Y-26353008D02*
X20015968Y-26362531D01*
X20015968Y-26362531D02*
X20025491Y-26381579D01*
X20025491Y-26381579D02*
X20025491Y-26400627D01*
X20025491Y-26400627D02*
X20015968Y-26429198D01*
X20015968Y-26429198D02*
X19901682Y-26543484D01*
X19901682Y-26543484D02*
X20025491Y-26543484D01*
X20263587Y-26543484D02*
X20263587Y-26343484D01*
X20349301Y-26543484D02*
X20349301Y-26438722D01*
X20349301Y-26438722D02*
X20339777Y-26419674D01*
X20339777Y-26419674D02*
X20320730Y-26410150D01*
X20320730Y-26410150D02*
X20292158Y-26410150D01*
X20292158Y-26410150D02*
X20273111Y-26419674D01*
X20273111Y-26419674D02*
X20263587Y-26429198D01*
X20473111Y-26543484D02*
X20454063Y-26533960D01*
X20454063Y-26533960D02*
X20444539Y-26524436D01*
X20444539Y-26524436D02*
X20435015Y-26505388D01*
X20435015Y-26505388D02*
X20435015Y-26448246D01*
X20435015Y-26448246D02*
X20444539Y-26429198D01*
X20444539Y-26429198D02*
X20454063Y-26419674D01*
X20454063Y-26419674D02*
X20473111Y-26410150D01*
X20473111Y-26410150D02*
X20501682Y-26410150D01*
X20501682Y-26410150D02*
X20520730Y-26419674D01*
X20520730Y-26419674D02*
X20530253Y-26429198D01*
X20530253Y-26429198D02*
X20539777Y-26448246D01*
X20539777Y-26448246D02*
X20539777Y-26505388D01*
X20539777Y-26505388D02*
X20530253Y-26524436D01*
X20530253Y-26524436D02*
X20520730Y-26533960D01*
X20520730Y-26533960D02*
X20501682Y-26543484D01*
X20501682Y-26543484D02*
X20473111Y-26543484D01*
X20654063Y-26543484D02*
X20635015Y-26533960D01*
X20635015Y-26533960D02*
X20625492Y-26514912D01*
X20625492Y-26514912D02*
X20625492Y-26343484D01*
X20806444Y-26533960D02*
X20787396Y-26543484D01*
X20787396Y-26543484D02*
X20749301Y-26543484D01*
X20749301Y-26543484D02*
X20730253Y-26533960D01*
X20730253Y-26533960D02*
X20720730Y-26514912D01*
X20720730Y-26514912D02*
X20720730Y-26438722D01*
X20720730Y-26438722D02*
X20730253Y-26419674D01*
X20730253Y-26419674D02*
X20749301Y-26410150D01*
X20749301Y-26410150D02*
X20787396Y-26410150D01*
X20787396Y-26410150D02*
X20806444Y-26419674D01*
X20806444Y-26419674D02*
X20815968Y-26438722D01*
X20815968Y-26438722D02*
X20815968Y-26457769D01*
X20815968Y-26457769D02*
X20720730Y-26476817D01*
X20892158Y-26533960D02*
X20911206Y-26543484D01*
X20911206Y-26543484D02*
X20949301Y-26543484D01*
X20949301Y-26543484D02*
X20968349Y-26533960D01*
X20968349Y-26533960D02*
X20977873Y-26514912D01*
X20977873Y-26514912D02*
X20977873Y-26505388D01*
X20977873Y-26505388D02*
X20968349Y-26486341D01*
X20968349Y-26486341D02*
X20949301Y-26476817D01*
X20949301Y-26476817D02*
X20920730Y-26476817D01*
X20920730Y-26476817D02*
X20901682Y-26467293D01*
X20901682Y-26467293D02*
X20892158Y-26448246D01*
X20892158Y-26448246D02*
X20892158Y-26438722D01*
X20892158Y-26438722D02*
X20901682Y-26419674D01*
X20901682Y-26419674D02*
X20920730Y-26410150D01*
X20920730Y-26410150D02*
X20949301Y-26410150D01*
X20949301Y-26410150D02*
X20968349Y-26419674D01*
X21044539Y-26619674D02*
X21054063Y-26610150D01*
X21054063Y-26610150D02*
X21073111Y-26581579D01*
X21073111Y-26581579D02*
X21082634Y-26562531D01*
X21082634Y-26562531D02*
X21092158Y-26533960D01*
X21092158Y-26533960D02*
X21101682Y-26486341D01*
X21101682Y-26486341D02*
X21101682Y-26448246D01*
X21101682Y-26448246D02*
X21092158Y-26400627D01*
X21092158Y-26400627D02*
X21082634Y-26372055D01*
X21082634Y-26372055D02*
X21073111Y-26353008D01*
X21073111Y-26353008D02*
X21054063Y-26324436D01*
X21054063Y-26324436D02*
X21044539Y-26314912D01*
M02*
