%TF.GenerationSoftware,KiCad,Pcbnew,7.0.8*%
%TF.CreationDate,2024-02-17T17:07:24-08:00*%
%TF.ProjectId,new_X_Y_Panels,6e65775f-585f-4595-9f50-616e656c732e,rev?*%
%TF.SameCoordinates,Original*%
%TF.FileFunction,Copper,L1,Top*%
%TF.FilePolarity,Positive*%
%FSLAX46Y46*%
G04 Gerber Fmt 4.6, Leading zero omitted, Abs format (unit mm)*
G04 Created by KiCad (PCBNEW 7.0.8) date 2024-02-17 17:07:24*
%MOMM*%
%LPD*%
G01*
G04 APERTURE LIST*
G04 Aperture macros list*
%AMRotRect*
0 Rectangle, with rotation*
0 The origin of the aperture is its center*
0 $1 length*
0 $2 width*
0 $3 Rotation angle, in degrees counterclockwise*
0 Add horizontal line*
21,1,$1,$2,0,0,$3*%
G04 Aperture macros list end*
%TA.AperFunction,ComponentPad*%
%ADD10C,2.600000*%
%TD*%
%TA.AperFunction,ConnectorPad*%
%ADD11C,3.800000*%
%TD*%
%TA.AperFunction,ComponentPad*%
%ADD12C,3.000000*%
%TD*%
%TA.AperFunction,SMDPad,CuDef*%
%ADD13RotRect,2.500000X1.700000X135.000000*%
%TD*%
%TA.AperFunction,SMDPad,CuDef*%
%ADD14R,1.700000X2.500000*%
%TD*%
%TA.AperFunction,SMDPad,CuDef*%
%ADD15R,2.500000X1.700000*%
%TD*%
%TA.AperFunction,ComponentPad*%
%ADD16R,1.700000X1.700000*%
%TD*%
%TA.AperFunction,ComponentPad*%
%ADD17O,1.700000X1.700000*%
%TD*%
%TA.AperFunction,ViaPad*%
%ADD18C,0.800000*%
%TD*%
%TA.AperFunction,Conductor*%
%ADD19C,1.000000*%
%TD*%
G04 APERTURE END LIST*
D10*
X240130000Y-141800000D03*
D11*
X240130000Y-141800000D03*
D12*
X229390000Y-108940000D03*
X220390000Y-108940000D03*
D13*
X193164214Y-106114214D03*
X190335786Y-103285786D03*
D14*
X197866000Y-235172000D03*
X197866000Y-231172000D03*
D12*
X182640000Y-96910000D03*
X173640000Y-96910000D03*
D15*
X180690000Y-174630000D03*
X176690000Y-174630000D03*
X173750000Y-50130000D03*
X169750000Y-50130000D03*
D10*
X163150000Y-245550000D03*
D11*
X163150000Y-245550000D03*
D12*
X197450000Y-70910000D03*
X206450000Y-70910000D03*
X204970000Y-220070000D03*
X204970000Y-211070000D03*
X206130000Y-199560000D03*
X197130000Y-199560000D03*
D15*
X203370000Y-137640000D03*
X199370000Y-137640000D03*
X221040000Y-192470000D03*
X217040000Y-192470000D03*
D10*
X209418885Y-127203250D03*
D11*
X209418885Y-127203250D03*
D15*
X190870000Y-216970000D03*
X194870000Y-216970000D03*
D12*
X230860000Y-145630000D03*
X221860000Y-145630000D03*
D10*
X163130000Y-141790000D03*
D11*
X163130000Y-141790000D03*
D14*
X211490000Y-46830000D03*
X211490000Y-50830000D03*
X211740000Y-103200000D03*
X211740000Y-107200000D03*
D12*
X220450000Y-46840000D03*
X229450000Y-46840000D03*
D10*
X163140000Y-38050000D03*
D11*
X163140000Y-38050000D03*
D10*
X193721115Y-127203250D03*
D11*
X193721115Y-127203250D03*
D10*
X209580000Y-133440000D03*
D11*
X209580000Y-133440000D03*
D12*
X204970000Y-242710000D03*
X204970000Y-233710000D03*
X182620000Y-207040000D03*
X173620000Y-207040000D03*
D10*
X240130000Y-245540000D03*
D11*
X240130000Y-245540000D03*
D15*
X219880000Y-40050000D03*
X223880000Y-40050000D03*
D10*
X209418885Y-111505480D03*
D11*
X209418885Y-111505480D03*
D14*
X213320000Y-130660000D03*
X213320000Y-134660000D03*
X194840000Y-213010000D03*
X194840000Y-209010000D03*
D10*
X240150000Y-38040000D03*
D11*
X240150000Y-38040000D03*
D10*
X193721115Y-111505480D03*
D11*
X193721115Y-111505480D03*
D12*
X181490000Y-168230000D03*
X172490000Y-168230000D03*
D16*
X194800000Y-138380000D03*
X193240000Y-140920000D03*
X190700000Y-140920000D03*
X189430000Y-138380000D03*
D17*
X194800000Y-133300000D03*
D16*
X193240000Y-130760000D03*
X190700000Y-130760000D03*
D17*
X189430000Y-133300000D03*
D12*
X181570000Y-132510000D03*
X172570000Y-132510000D03*
D15*
X230950000Y-192560000D03*
X226950000Y-192560000D03*
D12*
X230910000Y-181650000D03*
X221910000Y-181650000D03*
D10*
X204840000Y-133440000D03*
D11*
X204840000Y-133440000D03*
D15*
X228890000Y-39960000D03*
X232890000Y-39960000D03*
D18*
X207410000Y-106910000D03*
X205390000Y-107210000D03*
X203350000Y-106870000D03*
X199790000Y-231200000D03*
X197870000Y-229160000D03*
X192620000Y-208990000D03*
X199370000Y-229670000D03*
X193050000Y-207330000D03*
X193330000Y-210460000D03*
D19*
X194800000Y-133300000D02*
X204700000Y-133300000D01*
X204700000Y-133300000D02*
X204840000Y-133440000D01*
X205390000Y-104850000D02*
X203370000Y-106870000D01*
X201619214Y-97659214D02*
X205390000Y-101430000D01*
X219880000Y-79398428D02*
X201619214Y-97659214D01*
X201619214Y-97659214D02*
X193164214Y-106114214D01*
X205390000Y-101430000D02*
X205390000Y-104850000D01*
X219880000Y-40050000D02*
X218280000Y-40050000D01*
X203370000Y-106870000D02*
X203350000Y-106870000D01*
X205390000Y-104850000D02*
X205390000Y-107210000D01*
X207410000Y-106870000D02*
X207410000Y-106910000D01*
X217330000Y-47940000D02*
X219880000Y-50490000D01*
X218280000Y-40050000D02*
X217330000Y-41000000D01*
X219880000Y-50490000D02*
X219880000Y-79398428D01*
X217330000Y-41000000D02*
X217330000Y-47940000D01*
X205390000Y-104850000D02*
X207410000Y-106870000D01*
X197868000Y-231172000D02*
X199370000Y-229670000D01*
X197866000Y-229164000D02*
X197870000Y-229160000D01*
X197866000Y-231172000D02*
X197866000Y-229164000D01*
X194840000Y-209010000D02*
X194730000Y-209010000D01*
X197866000Y-231172000D02*
X199762000Y-231172000D01*
X192640000Y-209010000D02*
X192620000Y-208990000D01*
X197866000Y-231172000D02*
X197868000Y-231172000D01*
X194730000Y-209010000D02*
X193050000Y-207330000D01*
X199762000Y-231172000D02*
X199790000Y-231200000D01*
X194840000Y-209010000D02*
X194780000Y-209010000D01*
X194780000Y-209010000D02*
X193330000Y-210460000D01*
X194840000Y-209010000D02*
X192640000Y-209010000D01*
X191090000Y-98290000D02*
X191090000Y-80520000D01*
X210260000Y-74160000D02*
X218130000Y-66290000D01*
X197450000Y-74160000D02*
X197450000Y-70910000D01*
X190335786Y-99044214D02*
X191090000Y-98290000D01*
X197450000Y-74160000D02*
X210260000Y-74160000D01*
X191090000Y-80520000D02*
X197450000Y-74160000D01*
X214120000Y-46830000D02*
X211490000Y-46830000D01*
X218130000Y-66290000D02*
X218130000Y-50840000D01*
X211500000Y-46840000D02*
X211490000Y-46830000D01*
X218130000Y-50840000D02*
X214120000Y-46830000D01*
X190335786Y-103285786D02*
X190335786Y-99044214D01*
X211130000Y-70910000D02*
X216220000Y-65820000D01*
X216220000Y-52440000D02*
X214610000Y-50830000D01*
X216220000Y-65820000D02*
X216220000Y-52440000D01*
X211490000Y-50830000D02*
X199630000Y-50830000D01*
X169120000Y-54240000D02*
X173230000Y-50130000D01*
X169120000Y-70822000D02*
X169120000Y-54240000D01*
X182640000Y-84342000D02*
X169120000Y-70822000D01*
X198930000Y-50130000D02*
X173750000Y-50130000D01*
X206450000Y-70910000D02*
X211130000Y-70910000D01*
X173230000Y-50130000D02*
X173750000Y-50130000D01*
X214610000Y-50830000D02*
X211490000Y-50830000D01*
X199630000Y-50830000D02*
X198930000Y-50130000D01*
X182640000Y-96910000D02*
X182640000Y-84342000D01*
X173640000Y-96910000D02*
X173640000Y-82708000D01*
X167850000Y-76918000D02*
X167850000Y-52030000D01*
X181570000Y-132510000D02*
X184640000Y-135580000D01*
X203370000Y-136630000D02*
X203370000Y-137640000D01*
X173640000Y-96910000D02*
X173640000Y-109040000D01*
X181570000Y-116970000D02*
X181570000Y-132510000D01*
X173640000Y-109040000D02*
X181570000Y-116970000D01*
X167850000Y-52030000D02*
X169750000Y-50130000D01*
X173640000Y-82708000D02*
X167850000Y-76918000D01*
X184640000Y-135580000D02*
X202320000Y-135580000D01*
X202320000Y-135580000D02*
X203370000Y-136630000D01*
X218790000Y-134660000D02*
X221860000Y-137730000D01*
X221860000Y-145630000D02*
X221860000Y-160160000D01*
X230910000Y-181650000D02*
X230910000Y-192520000D01*
X221860000Y-160160000D02*
X230910000Y-169210000D01*
X230910000Y-169210000D02*
X230910000Y-181650000D01*
X213320000Y-134660000D02*
X218790000Y-134660000D01*
X230910000Y-192520000D02*
X230950000Y-192560000D01*
X221860000Y-145630000D02*
X221860000Y-137730000D01*
X213950000Y-199560000D02*
X206130000Y-199560000D01*
X221040000Y-192470000D02*
X221040000Y-182520000D01*
X221130000Y-192560000D02*
X221040000Y-192470000D01*
X221040000Y-182520000D02*
X221910000Y-181650000D01*
X221040000Y-192470000D02*
X213950000Y-199560000D01*
X226950000Y-192560000D02*
X221130000Y-192560000D01*
X204220000Y-192470000D02*
X197130000Y-199560000D01*
X196300000Y-213010000D02*
X197130000Y-212180000D01*
X217040000Y-192470000D02*
X204220000Y-192470000D01*
X197130000Y-212180000D02*
X204970000Y-220020000D01*
X204970000Y-220020000D02*
X204970000Y-220070000D01*
X197130000Y-210720000D02*
X197130000Y-212180000D01*
X194840000Y-213010000D02*
X196300000Y-213010000D01*
X197130000Y-210720000D02*
X197130000Y-199560000D01*
X194870000Y-213040000D02*
X194840000Y-213010000D01*
X180690000Y-171700000D02*
X181490000Y-170900000D01*
X181490000Y-170900000D02*
X181490000Y-168230000D01*
X181490000Y-156310000D02*
X172570000Y-147390000D01*
X188270000Y-143530000D02*
X193480000Y-143530000D01*
X180690000Y-174630000D02*
X180690000Y-171700000D01*
X181490000Y-168230000D02*
X181490000Y-156310000D01*
X172570000Y-147390000D02*
X172570000Y-132510000D01*
X172570000Y-132510000D02*
X177250000Y-132510000D01*
X193480000Y-143530000D02*
X199370000Y-137640000D01*
X177250000Y-132510000D02*
X188270000Y-143530000D01*
X182620000Y-199830000D02*
X176690000Y-193900000D01*
X176690000Y-174630000D02*
X176690000Y-172430000D01*
X190870000Y-215290000D02*
X187955000Y-212375000D01*
X187955000Y-212375000D02*
X182620000Y-207040000D01*
X176690000Y-172430000D02*
X172490000Y-168230000D01*
X190870000Y-216970000D02*
X190870000Y-215290000D01*
X176690000Y-193900000D02*
X176690000Y-174630000D01*
X182620000Y-207040000D02*
X182620000Y-199830000D01*
X195047425Y-220220000D02*
X195047425Y-217147425D01*
X201240000Y-242710000D02*
X204970000Y-242710000D01*
X177576000Y-207040000D02*
X173620000Y-207040000D01*
X190756000Y-220220000D02*
X177576000Y-207040000D01*
X197866000Y-239336000D02*
X201240000Y-242710000D01*
X195047425Y-217147425D02*
X194870000Y-216970000D01*
X197866000Y-235172000D02*
X197866000Y-239336000D01*
X197866000Y-235172000D02*
X196582000Y-235172000D01*
X196582000Y-235172000D02*
X195834000Y-234424000D01*
X195047425Y-220220000D02*
X190756000Y-220220000D01*
X195834000Y-221006575D02*
X195047425Y-220220000D01*
X195834000Y-234424000D02*
X195834000Y-221006575D01*
X194870000Y-216970000D02*
X194470000Y-216970000D01*
X211740000Y-103200000D02*
X229450000Y-85490000D01*
X232890000Y-41480000D02*
X232890000Y-39960000D01*
X211740000Y-103200000D02*
X223650000Y-103200000D01*
X223650000Y-103200000D02*
X229390000Y-108940000D01*
X229450000Y-44920000D02*
X232890000Y-41480000D01*
X229450000Y-85490000D02*
X229450000Y-46840000D01*
X229450000Y-46840000D02*
X229450000Y-44920000D01*
X213320000Y-130660000D02*
X217350000Y-130660000D01*
X220390000Y-127620000D02*
X220390000Y-108940000D01*
X230860000Y-138090000D02*
X230860000Y-145630000D01*
X217530000Y-108940000D02*
X215790000Y-107200000D01*
X217350000Y-130660000D02*
X220390000Y-127620000D01*
X215790000Y-107200000D02*
X211740000Y-107200000D01*
X220390000Y-127620000D02*
X230860000Y-138090000D01*
X220390000Y-108940000D02*
X217530000Y-108940000D01*
X188880000Y-110580000D02*
X188880000Y-126060000D01*
X188880000Y-126060000D02*
X190700000Y-127880000D01*
X194800000Y-132320000D02*
X193240000Y-130760000D01*
X189430000Y-133300000D02*
X194800000Y-133300000D01*
X189430000Y-132030000D02*
X190700000Y-130760000D01*
X191060000Y-108400000D02*
X188880000Y-110580000D01*
X190700000Y-127880000D02*
X190700000Y-130760000D01*
X193240000Y-130760000D02*
X190700000Y-130760000D01*
X191060000Y-108400000D02*
X196200000Y-108400000D01*
X189430000Y-133300000D02*
X189430000Y-132030000D01*
X196200000Y-108400000D02*
X197290000Y-107310000D01*
X194800000Y-133300000D02*
X194800000Y-132320000D01*
X220450000Y-46840000D02*
X220450000Y-45090000D01*
X220450000Y-45090000D02*
X223880000Y-41660000D01*
X228890000Y-39960000D02*
X223970000Y-39960000D01*
X223970000Y-39960000D02*
X223880000Y-40050000D01*
X223880000Y-41660000D02*
X223880000Y-40050000D01*
M02*
