%TF.GenerationSoftware,KiCad,Pcbnew,8.0.8*%
%TF.CreationDate,2025-03-18T15:11:00-07:00*%
%TF.ProjectId,ZPlus_Panel,5a506c75-735f-4506-916e-656c2e6b6963,v1b*%
%TF.SameCoordinates,Original*%
%TF.FileFunction,Legend,Bot*%
%TF.FilePolarity,Positive*%
%FSLAX46Y46*%
G04 Gerber Fmt 4.6, Leading zero omitted, Abs format (unit mm)*
G04 Created by KiCad (PCBNEW 8.0.8) date 2025-03-18 15:11:00*
%MOMM*%
%LPD*%
G01*
G04 APERTURE LIST*
G04 Aperture macros list*
%AMRoundRect*
0 Rectangle with rounded corners*
0 $1 Rounding radius*
0 $2 $3 $4 $5 $6 $7 $8 $9 X,Y pos of 4 corners*
0 Add a 4 corners polygon primitive as box body*
4,1,4,$2,$3,$4,$5,$6,$7,$8,$9,$2,$3,0*
0 Add four circle primitives for the rounded corners*
1,1,$1+$1,$2,$3*
1,1,$1+$1,$4,$5*
1,1,$1+$1,$6,$7*
1,1,$1+$1,$8,$9*
0 Add four rect primitives between the rounded corners*
20,1,$1+$1,$2,$3,$4,$5,0*
20,1,$1+$1,$4,$5,$6,$7,0*
20,1,$1+$1,$6,$7,$8,$9,0*
20,1,$1+$1,$8,$9,$2,$3,0*%
G04 Aperture macros list end*
%ADD10C,0.150000*%
%ADD11C,0.120000*%
%ADD12C,0.100000*%
%ADD13C,0.152400*%
%ADD14C,0.000000*%
%ADD15C,0.508000*%
%ADD16C,3.000000*%
%ADD17C,2.600000*%
%ADD18C,3.800000*%
%ADD19R,2.500000X1.700000*%
%ADD20RoundRect,0.225000X-0.250000X0.225000X-0.250000X-0.225000X0.250000X-0.225000X0.250000X0.225000X0*%
%ADD21R,0.533400X1.460500*%
%ADD22RoundRect,0.225000X0.225000X0.250000X-0.225000X0.250000X-0.225000X-0.250000X0.225000X-0.250000X0*%
%ADD23RoundRect,0.200000X0.200000X0.275000X-0.200000X0.275000X-0.200000X-0.275000X0.200000X-0.275000X0*%
%ADD24R,1.295400X0.838200*%
%ADD25R,2.260600X1.397000*%
%ADD26R,1.450000X1.100000*%
%ADD27R,2.899999X1.350000*%
%ADD28RoundRect,0.200000X-0.275000X0.200000X-0.275000X-0.200000X0.275000X-0.200000X0.275000X0.200000X0*%
%ADD29C,2.050000*%
%ADD30C,2.250000*%
G04 APERTURE END LIST*
D10*
X172832143Y-125735300D02*
X173046429Y-125663871D01*
X173046429Y-125663871D02*
X173403571Y-125663871D01*
X173403571Y-125663871D02*
X173546429Y-125735300D01*
X173546429Y-125735300D02*
X173617857Y-125806728D01*
X173617857Y-125806728D02*
X173689286Y-125949585D01*
X173689286Y-125949585D02*
X173689286Y-126092442D01*
X173689286Y-126092442D02*
X173617857Y-126235300D01*
X173617857Y-126235300D02*
X173546429Y-126306728D01*
X173546429Y-126306728D02*
X173403571Y-126378157D01*
X173403571Y-126378157D02*
X173117857Y-126449585D01*
X173117857Y-126449585D02*
X172975000Y-126521014D01*
X172975000Y-126521014D02*
X172903571Y-126592442D01*
X172903571Y-126592442D02*
X172832143Y-126735300D01*
X172832143Y-126735300D02*
X172832143Y-126878157D01*
X172832143Y-126878157D02*
X172903571Y-127021014D01*
X172903571Y-127021014D02*
X172975000Y-127092442D01*
X172975000Y-127092442D02*
X173117857Y-127163871D01*
X173117857Y-127163871D02*
X173475000Y-127163871D01*
X173475000Y-127163871D02*
X173689286Y-127092442D01*
X175189285Y-125806728D02*
X175117857Y-125735300D01*
X175117857Y-125735300D02*
X174903571Y-125663871D01*
X174903571Y-125663871D02*
X174760714Y-125663871D01*
X174760714Y-125663871D02*
X174546428Y-125735300D01*
X174546428Y-125735300D02*
X174403571Y-125878157D01*
X174403571Y-125878157D02*
X174332142Y-126021014D01*
X174332142Y-126021014D02*
X174260714Y-126306728D01*
X174260714Y-126306728D02*
X174260714Y-126521014D01*
X174260714Y-126521014D02*
X174332142Y-126806728D01*
X174332142Y-126806728D02*
X174403571Y-126949585D01*
X174403571Y-126949585D02*
X174546428Y-127092442D01*
X174546428Y-127092442D02*
X174760714Y-127163871D01*
X174760714Y-127163871D02*
X174903571Y-127163871D01*
X174903571Y-127163871D02*
X175117857Y-127092442D01*
X175117857Y-127092442D02*
X175189285Y-127021014D01*
X176475000Y-126663871D02*
X176475000Y-125663871D01*
X176117857Y-127235300D02*
X175760714Y-126163871D01*
X175760714Y-126163871D02*
X176689285Y-126163871D01*
X149801316Y-101300414D02*
X149801316Y-101907557D01*
X149801316Y-101907557D02*
X149837030Y-101978985D01*
X149837030Y-101978985D02*
X149872744Y-102014700D01*
X149872744Y-102014700D02*
X149944173Y-102050414D01*
X149944173Y-102050414D02*
X150051316Y-102050414D01*
X150051316Y-102050414D02*
X150122744Y-102014700D01*
X149801316Y-101764700D02*
X149872744Y-101800414D01*
X149872744Y-101800414D02*
X150015601Y-101800414D01*
X150015601Y-101800414D02*
X150087030Y-101764700D01*
X150087030Y-101764700D02*
X150122744Y-101728985D01*
X150122744Y-101728985D02*
X150158458Y-101657557D01*
X150158458Y-101657557D02*
X150158458Y-101443271D01*
X150158458Y-101443271D02*
X150122744Y-101371842D01*
X150122744Y-101371842D02*
X150087030Y-101336128D01*
X150087030Y-101336128D02*
X150015601Y-101300414D01*
X150015601Y-101300414D02*
X149872744Y-101300414D01*
X149872744Y-101300414D02*
X149801316Y-101336128D01*
X149444173Y-101300414D02*
X149444173Y-101800414D01*
X149444173Y-101371842D02*
X149408459Y-101336128D01*
X149408459Y-101336128D02*
X149337030Y-101300414D01*
X149337030Y-101300414D02*
X149229887Y-101300414D01*
X149229887Y-101300414D02*
X149158459Y-101336128D01*
X149158459Y-101336128D02*
X149122745Y-101407557D01*
X149122745Y-101407557D02*
X149122745Y-101800414D01*
X148444174Y-101800414D02*
X148444174Y-101050414D01*
X148444174Y-101764700D02*
X148515602Y-101800414D01*
X148515602Y-101800414D02*
X148658459Y-101800414D01*
X148658459Y-101800414D02*
X148729888Y-101764700D01*
X148729888Y-101764700D02*
X148765602Y-101728985D01*
X148765602Y-101728985D02*
X148801316Y-101657557D01*
X148801316Y-101657557D02*
X148801316Y-101443271D01*
X148801316Y-101443271D02*
X148765602Y-101371842D01*
X148765602Y-101371842D02*
X148729888Y-101336128D01*
X148729888Y-101336128D02*
X148658459Y-101300414D01*
X148658459Y-101300414D02*
X148515602Y-101300414D01*
X148515602Y-101300414D02*
X148444174Y-101336128D01*
X150194173Y-102500414D02*
X149729887Y-102500414D01*
X149729887Y-102500414D02*
X149979887Y-102786128D01*
X149979887Y-102786128D02*
X149872744Y-102786128D01*
X149872744Y-102786128D02*
X149801316Y-102821842D01*
X149801316Y-102821842D02*
X149765601Y-102857557D01*
X149765601Y-102857557D02*
X149729887Y-102928985D01*
X149729887Y-102928985D02*
X149729887Y-103107557D01*
X149729887Y-103107557D02*
X149765601Y-103178985D01*
X149765601Y-103178985D02*
X149801316Y-103214700D01*
X149801316Y-103214700D02*
X149872744Y-103250414D01*
X149872744Y-103250414D02*
X150087030Y-103250414D01*
X150087030Y-103250414D02*
X150158458Y-103214700D01*
X150158458Y-103214700D02*
X150194173Y-103178985D01*
X149479887Y-102750414D02*
X149301315Y-103250414D01*
X149301315Y-103250414D02*
X149122744Y-102750414D01*
X148908458Y-102500414D02*
X148444172Y-102500414D01*
X148444172Y-102500414D02*
X148694172Y-102786128D01*
X148694172Y-102786128D02*
X148587029Y-102786128D01*
X148587029Y-102786128D02*
X148515601Y-102821842D01*
X148515601Y-102821842D02*
X148479886Y-102857557D01*
X148479886Y-102857557D02*
X148444172Y-102928985D01*
X148444172Y-102928985D02*
X148444172Y-103107557D01*
X148444172Y-103107557D02*
X148479886Y-103178985D01*
X148479886Y-103178985D02*
X148515601Y-103214700D01*
X148515601Y-103214700D02*
X148587029Y-103250414D01*
X148587029Y-103250414D02*
X148801315Y-103250414D01*
X148801315Y-103250414D02*
X148872743Y-103214700D01*
X148872743Y-103214700D02*
X148908458Y-103178985D01*
X147608458Y-79453152D02*
X147370363Y-80119819D01*
X147370363Y-80119819D02*
X147132268Y-79453152D01*
X146798934Y-80072200D02*
X146703696Y-80119819D01*
X146703696Y-80119819D02*
X146513220Y-80119819D01*
X146513220Y-80119819D02*
X146417982Y-80072200D01*
X146417982Y-80072200D02*
X146370363Y-79976961D01*
X146370363Y-79976961D02*
X146370363Y-79929342D01*
X146370363Y-79929342D02*
X146417982Y-79834104D01*
X146417982Y-79834104D02*
X146513220Y-79786485D01*
X146513220Y-79786485D02*
X146656077Y-79786485D01*
X146656077Y-79786485D02*
X146751315Y-79738866D01*
X146751315Y-79738866D02*
X146798934Y-79643628D01*
X146798934Y-79643628D02*
X146798934Y-79596009D01*
X146798934Y-79596009D02*
X146751315Y-79500771D01*
X146751315Y-79500771D02*
X146656077Y-79453152D01*
X146656077Y-79453152D02*
X146513220Y-79453152D01*
X146513220Y-79453152D02*
X146417982Y-79500771D01*
X145798934Y-80119819D02*
X145894172Y-80072200D01*
X145894172Y-80072200D02*
X145941791Y-80024580D01*
X145941791Y-80024580D02*
X145989410Y-79929342D01*
X145989410Y-79929342D02*
X145989410Y-79643628D01*
X145989410Y-79643628D02*
X145941791Y-79548390D01*
X145941791Y-79548390D02*
X145894172Y-79500771D01*
X145894172Y-79500771D02*
X145798934Y-79453152D01*
X145798934Y-79453152D02*
X145656077Y-79453152D01*
X145656077Y-79453152D02*
X145560839Y-79500771D01*
X145560839Y-79500771D02*
X145513220Y-79548390D01*
X145513220Y-79548390D02*
X145465601Y-79643628D01*
X145465601Y-79643628D02*
X145465601Y-79929342D01*
X145465601Y-79929342D02*
X145513220Y-80024580D01*
X145513220Y-80024580D02*
X145560839Y-80072200D01*
X145560839Y-80072200D02*
X145656077Y-80119819D01*
X145656077Y-80119819D02*
X145798934Y-80119819D01*
X144894172Y-80119819D02*
X144989410Y-80072200D01*
X144989410Y-80072200D02*
X145037029Y-79976961D01*
X145037029Y-79976961D02*
X145037029Y-79119819D01*
X144084648Y-80119819D02*
X144084648Y-79596009D01*
X144084648Y-79596009D02*
X144132267Y-79500771D01*
X144132267Y-79500771D02*
X144227505Y-79453152D01*
X144227505Y-79453152D02*
X144417981Y-79453152D01*
X144417981Y-79453152D02*
X144513219Y-79500771D01*
X144084648Y-80072200D02*
X144179886Y-80119819D01*
X144179886Y-80119819D02*
X144417981Y-80119819D01*
X144417981Y-80119819D02*
X144513219Y-80072200D01*
X144513219Y-80072200D02*
X144560838Y-79976961D01*
X144560838Y-79976961D02*
X144560838Y-79881723D01*
X144560838Y-79881723D02*
X144513219Y-79786485D01*
X144513219Y-79786485D02*
X144417981Y-79738866D01*
X144417981Y-79738866D02*
X144179886Y-79738866D01*
X144179886Y-79738866D02*
X144084648Y-79691247D01*
X143608457Y-80119819D02*
X143608457Y-79453152D01*
X143608457Y-79643628D02*
X143560838Y-79548390D01*
X143560838Y-79548390D02*
X143513219Y-79500771D01*
X143513219Y-79500771D02*
X143417981Y-79453152D01*
X143417981Y-79453152D02*
X143322743Y-79453152D01*
X221210300Y-71092856D02*
X221138871Y-70878571D01*
X221138871Y-70878571D02*
X221138871Y-70521428D01*
X221138871Y-70521428D02*
X221210300Y-70378571D01*
X221210300Y-70378571D02*
X221281728Y-70307142D01*
X221281728Y-70307142D02*
X221424585Y-70235713D01*
X221424585Y-70235713D02*
X221567442Y-70235713D01*
X221567442Y-70235713D02*
X221710300Y-70307142D01*
X221710300Y-70307142D02*
X221781728Y-70378571D01*
X221781728Y-70378571D02*
X221853157Y-70521428D01*
X221853157Y-70521428D02*
X221924585Y-70807142D01*
X221924585Y-70807142D02*
X221996014Y-70949999D01*
X221996014Y-70949999D02*
X222067442Y-71021428D01*
X222067442Y-71021428D02*
X222210300Y-71092856D01*
X222210300Y-71092856D02*
X222353157Y-71092856D01*
X222353157Y-71092856D02*
X222496014Y-71021428D01*
X222496014Y-71021428D02*
X222567442Y-70949999D01*
X222567442Y-70949999D02*
X222638871Y-70807142D01*
X222638871Y-70807142D02*
X222638871Y-70449999D01*
X222638871Y-70449999D02*
X222567442Y-70235713D01*
X221281728Y-68735714D02*
X221210300Y-68807142D01*
X221210300Y-68807142D02*
X221138871Y-69021428D01*
X221138871Y-69021428D02*
X221138871Y-69164285D01*
X221138871Y-69164285D02*
X221210300Y-69378571D01*
X221210300Y-69378571D02*
X221353157Y-69521428D01*
X221353157Y-69521428D02*
X221496014Y-69592857D01*
X221496014Y-69592857D02*
X221781728Y-69664285D01*
X221781728Y-69664285D02*
X221996014Y-69664285D01*
X221996014Y-69664285D02*
X222281728Y-69592857D01*
X222281728Y-69592857D02*
X222424585Y-69521428D01*
X222424585Y-69521428D02*
X222567442Y-69378571D01*
X222567442Y-69378571D02*
X222638871Y-69164285D01*
X222638871Y-69164285D02*
X222638871Y-69021428D01*
X222638871Y-69021428D02*
X222567442Y-68807142D01*
X222567442Y-68807142D02*
X222496014Y-68735714D01*
X222638871Y-67450000D02*
X222638871Y-67735714D01*
X222638871Y-67735714D02*
X222567442Y-67878571D01*
X222567442Y-67878571D02*
X222496014Y-67950000D01*
X222496014Y-67950000D02*
X222281728Y-68092857D01*
X222281728Y-68092857D02*
X221996014Y-68164285D01*
X221996014Y-68164285D02*
X221424585Y-68164285D01*
X221424585Y-68164285D02*
X221281728Y-68092857D01*
X221281728Y-68092857D02*
X221210300Y-68021428D01*
X221210300Y-68021428D02*
X221138871Y-67878571D01*
X221138871Y-67878571D02*
X221138871Y-67592857D01*
X221138871Y-67592857D02*
X221210300Y-67450000D01*
X221210300Y-67450000D02*
X221281728Y-67378571D01*
X221281728Y-67378571D02*
X221424585Y-67307142D01*
X221424585Y-67307142D02*
X221781728Y-67307142D01*
X221781728Y-67307142D02*
X221924585Y-67378571D01*
X221924585Y-67378571D02*
X221996014Y-67450000D01*
X221996014Y-67450000D02*
X222067442Y-67592857D01*
X222067442Y-67592857D02*
X222067442Y-67878571D01*
X222067442Y-67878571D02*
X221996014Y-68021428D01*
X221996014Y-68021428D02*
X221924585Y-68092857D01*
X221924585Y-68092857D02*
X221781728Y-68164285D01*
X221160300Y-104067856D02*
X221088871Y-103853571D01*
X221088871Y-103853571D02*
X221088871Y-103496428D01*
X221088871Y-103496428D02*
X221160300Y-103353571D01*
X221160300Y-103353571D02*
X221231728Y-103282142D01*
X221231728Y-103282142D02*
X221374585Y-103210713D01*
X221374585Y-103210713D02*
X221517442Y-103210713D01*
X221517442Y-103210713D02*
X221660300Y-103282142D01*
X221660300Y-103282142D02*
X221731728Y-103353571D01*
X221731728Y-103353571D02*
X221803157Y-103496428D01*
X221803157Y-103496428D02*
X221874585Y-103782142D01*
X221874585Y-103782142D02*
X221946014Y-103924999D01*
X221946014Y-103924999D02*
X222017442Y-103996428D01*
X222017442Y-103996428D02*
X222160300Y-104067856D01*
X222160300Y-104067856D02*
X222303157Y-104067856D01*
X222303157Y-104067856D02*
X222446014Y-103996428D01*
X222446014Y-103996428D02*
X222517442Y-103924999D01*
X222517442Y-103924999D02*
X222588871Y-103782142D01*
X222588871Y-103782142D02*
X222588871Y-103424999D01*
X222588871Y-103424999D02*
X222517442Y-103210713D01*
X221231728Y-101710714D02*
X221160300Y-101782142D01*
X221160300Y-101782142D02*
X221088871Y-101996428D01*
X221088871Y-101996428D02*
X221088871Y-102139285D01*
X221088871Y-102139285D02*
X221160300Y-102353571D01*
X221160300Y-102353571D02*
X221303157Y-102496428D01*
X221303157Y-102496428D02*
X221446014Y-102567857D01*
X221446014Y-102567857D02*
X221731728Y-102639285D01*
X221731728Y-102639285D02*
X221946014Y-102639285D01*
X221946014Y-102639285D02*
X222231728Y-102567857D01*
X222231728Y-102567857D02*
X222374585Y-102496428D01*
X222374585Y-102496428D02*
X222517442Y-102353571D01*
X222517442Y-102353571D02*
X222588871Y-102139285D01*
X222588871Y-102139285D02*
X222588871Y-101996428D01*
X222588871Y-101996428D02*
X222517442Y-101782142D01*
X222517442Y-101782142D02*
X222446014Y-101710714D01*
X222588871Y-100353571D02*
X222588871Y-101067857D01*
X222588871Y-101067857D02*
X221874585Y-101139285D01*
X221874585Y-101139285D02*
X221946014Y-101067857D01*
X221946014Y-101067857D02*
X222017442Y-100925000D01*
X222017442Y-100925000D02*
X222017442Y-100567857D01*
X222017442Y-100567857D02*
X221946014Y-100425000D01*
X221946014Y-100425000D02*
X221874585Y-100353571D01*
X221874585Y-100353571D02*
X221731728Y-100282142D01*
X221731728Y-100282142D02*
X221374585Y-100282142D01*
X221374585Y-100282142D02*
X221231728Y-100353571D01*
X221231728Y-100353571D02*
X221160300Y-100425000D01*
X221160300Y-100425000D02*
X221088871Y-100567857D01*
X221088871Y-100567857D02*
X221088871Y-100925000D01*
X221088871Y-100925000D02*
X221160300Y-101067857D01*
X221160300Y-101067857D02*
X221231728Y-101139285D01*
X194524585Y-57322744D02*
X195274585Y-57322744D01*
X194524585Y-56894173D02*
X194953157Y-57215601D01*
X195274585Y-56894173D02*
X194846014Y-57322744D01*
X194524585Y-56251316D02*
X194917442Y-56251316D01*
X194917442Y-56251316D02*
X194988871Y-56287030D01*
X194988871Y-56287030D02*
X195024585Y-56358458D01*
X195024585Y-56358458D02*
X195024585Y-56501316D01*
X195024585Y-56501316D02*
X194988871Y-56572744D01*
X194560300Y-56251316D02*
X194524585Y-56322744D01*
X194524585Y-56322744D02*
X194524585Y-56501316D01*
X194524585Y-56501316D02*
X194560300Y-56572744D01*
X194560300Y-56572744D02*
X194631728Y-56608458D01*
X194631728Y-56608458D02*
X194703157Y-56608458D01*
X194703157Y-56608458D02*
X194774585Y-56572744D01*
X194774585Y-56572744D02*
X194810300Y-56501316D01*
X194810300Y-56501316D02*
X194810300Y-56322744D01*
X194810300Y-56322744D02*
X194846014Y-56251316D01*
X194524585Y-55894173D02*
X195024585Y-55894173D01*
X195274585Y-55894173D02*
X195238871Y-55929887D01*
X195238871Y-55929887D02*
X195203157Y-55894173D01*
X195203157Y-55894173D02*
X195238871Y-55858459D01*
X195238871Y-55858459D02*
X195274585Y-55894173D01*
X195274585Y-55894173D02*
X195203157Y-55894173D01*
X195024585Y-55644173D02*
X195024585Y-55358459D01*
X195274585Y-55537030D02*
X194631728Y-55537030D01*
X194631728Y-55537030D02*
X194560300Y-55501316D01*
X194560300Y-55501316D02*
X194524585Y-55429887D01*
X194524585Y-55429887D02*
X194524585Y-55358459D01*
X194524585Y-55001316D02*
X194560300Y-55072745D01*
X194560300Y-55072745D02*
X194631728Y-55108459D01*
X194631728Y-55108459D02*
X195274585Y-55108459D01*
X195024585Y-54787031D02*
X194524585Y-54608459D01*
X195024585Y-54429888D02*
X194524585Y-54608459D01*
X194524585Y-54608459D02*
X194346014Y-54679888D01*
X194346014Y-54679888D02*
X194310300Y-54715602D01*
X194310300Y-54715602D02*
X194274585Y-54787031D01*
X195024585Y-54144173D02*
X194524585Y-54144173D01*
X194953157Y-54144173D02*
X194988871Y-54108459D01*
X194988871Y-54108459D02*
X195024585Y-54037030D01*
X195024585Y-54037030D02*
X195024585Y-53929887D01*
X195024585Y-53929887D02*
X194988871Y-53858459D01*
X194988871Y-53858459D02*
X194917442Y-53822745D01*
X194917442Y-53822745D02*
X194524585Y-53822745D01*
X147608458Y-77578152D02*
X147370363Y-78244819D01*
X147370363Y-78244819D02*
X147132268Y-77578152D01*
X146798934Y-78197200D02*
X146703696Y-78244819D01*
X146703696Y-78244819D02*
X146513220Y-78244819D01*
X146513220Y-78244819D02*
X146417982Y-78197200D01*
X146417982Y-78197200D02*
X146370363Y-78101961D01*
X146370363Y-78101961D02*
X146370363Y-78054342D01*
X146370363Y-78054342D02*
X146417982Y-77959104D01*
X146417982Y-77959104D02*
X146513220Y-77911485D01*
X146513220Y-77911485D02*
X146656077Y-77911485D01*
X146656077Y-77911485D02*
X146751315Y-77863866D01*
X146751315Y-77863866D02*
X146798934Y-77768628D01*
X146798934Y-77768628D02*
X146798934Y-77721009D01*
X146798934Y-77721009D02*
X146751315Y-77625771D01*
X146751315Y-77625771D02*
X146656077Y-77578152D01*
X146656077Y-77578152D02*
X146513220Y-77578152D01*
X146513220Y-77578152D02*
X146417982Y-77625771D01*
X145798934Y-78244819D02*
X145894172Y-78197200D01*
X145894172Y-78197200D02*
X145941791Y-78149580D01*
X145941791Y-78149580D02*
X145989410Y-78054342D01*
X145989410Y-78054342D02*
X145989410Y-77768628D01*
X145989410Y-77768628D02*
X145941791Y-77673390D01*
X145941791Y-77673390D02*
X145894172Y-77625771D01*
X145894172Y-77625771D02*
X145798934Y-77578152D01*
X145798934Y-77578152D02*
X145656077Y-77578152D01*
X145656077Y-77578152D02*
X145560839Y-77625771D01*
X145560839Y-77625771D02*
X145513220Y-77673390D01*
X145513220Y-77673390D02*
X145465601Y-77768628D01*
X145465601Y-77768628D02*
X145465601Y-78054342D01*
X145465601Y-78054342D02*
X145513220Y-78149580D01*
X145513220Y-78149580D02*
X145560839Y-78197200D01*
X145560839Y-78197200D02*
X145656077Y-78244819D01*
X145656077Y-78244819D02*
X145798934Y-78244819D01*
X144894172Y-78244819D02*
X144989410Y-78197200D01*
X144989410Y-78197200D02*
X145037029Y-78101961D01*
X145037029Y-78101961D02*
X145037029Y-77244819D01*
X144084648Y-78244819D02*
X144084648Y-77721009D01*
X144084648Y-77721009D02*
X144132267Y-77625771D01*
X144132267Y-77625771D02*
X144227505Y-77578152D01*
X144227505Y-77578152D02*
X144417981Y-77578152D01*
X144417981Y-77578152D02*
X144513219Y-77625771D01*
X144084648Y-78197200D02*
X144179886Y-78244819D01*
X144179886Y-78244819D02*
X144417981Y-78244819D01*
X144417981Y-78244819D02*
X144513219Y-78197200D01*
X144513219Y-78197200D02*
X144560838Y-78101961D01*
X144560838Y-78101961D02*
X144560838Y-78006723D01*
X144560838Y-78006723D02*
X144513219Y-77911485D01*
X144513219Y-77911485D02*
X144417981Y-77863866D01*
X144417981Y-77863866D02*
X144179886Y-77863866D01*
X144179886Y-77863866D02*
X144084648Y-77816247D01*
X143608457Y-78244819D02*
X143608457Y-77578152D01*
X143608457Y-77768628D02*
X143560838Y-77673390D01*
X143560838Y-77673390D02*
X143513219Y-77625771D01*
X143513219Y-77625771D02*
X143417981Y-77578152D01*
X143417981Y-77578152D02*
X143322743Y-77578152D01*
X147084649Y-81428152D02*
X147084649Y-82237676D01*
X147084649Y-82237676D02*
X147132268Y-82332914D01*
X147132268Y-82332914D02*
X147179887Y-82380533D01*
X147179887Y-82380533D02*
X147275125Y-82428152D01*
X147275125Y-82428152D02*
X147417982Y-82428152D01*
X147417982Y-82428152D02*
X147513220Y-82380533D01*
X147084649Y-82047200D02*
X147179887Y-82094819D01*
X147179887Y-82094819D02*
X147370363Y-82094819D01*
X147370363Y-82094819D02*
X147465601Y-82047200D01*
X147465601Y-82047200D02*
X147513220Y-81999580D01*
X147513220Y-81999580D02*
X147560839Y-81904342D01*
X147560839Y-81904342D02*
X147560839Y-81618628D01*
X147560839Y-81618628D02*
X147513220Y-81523390D01*
X147513220Y-81523390D02*
X147465601Y-81475771D01*
X147465601Y-81475771D02*
X147370363Y-81428152D01*
X147370363Y-81428152D02*
X147179887Y-81428152D01*
X147179887Y-81428152D02*
X147084649Y-81475771D01*
X146608458Y-81428152D02*
X146608458Y-82094819D01*
X146608458Y-81523390D02*
X146560839Y-81475771D01*
X146560839Y-81475771D02*
X146465601Y-81428152D01*
X146465601Y-81428152D02*
X146322744Y-81428152D01*
X146322744Y-81428152D02*
X146227506Y-81475771D01*
X146227506Y-81475771D02*
X146179887Y-81571009D01*
X146179887Y-81571009D02*
X146179887Y-82094819D01*
X145275125Y-82094819D02*
X145275125Y-81094819D01*
X145275125Y-82047200D02*
X145370363Y-82094819D01*
X145370363Y-82094819D02*
X145560839Y-82094819D01*
X145560839Y-82094819D02*
X145656077Y-82047200D01*
X145656077Y-82047200D02*
X145703696Y-81999580D01*
X145703696Y-81999580D02*
X145751315Y-81904342D01*
X145751315Y-81904342D02*
X145751315Y-81618628D01*
X145751315Y-81618628D02*
X145703696Y-81523390D01*
X145703696Y-81523390D02*
X145656077Y-81475771D01*
X145656077Y-81475771D02*
X145560839Y-81428152D01*
X145560839Y-81428152D02*
X145370363Y-81428152D01*
X145370363Y-81428152D02*
X145275125Y-81475771D01*
X194624585Y-120547744D02*
X195374585Y-120547744D01*
X195374585Y-120547744D02*
X194838871Y-120297744D01*
X194838871Y-120297744D02*
X195374585Y-120047744D01*
X195374585Y-120047744D02*
X194624585Y-120047744D01*
X194624585Y-119369173D02*
X195017442Y-119369173D01*
X195017442Y-119369173D02*
X195088871Y-119404887D01*
X195088871Y-119404887D02*
X195124585Y-119476315D01*
X195124585Y-119476315D02*
X195124585Y-119619173D01*
X195124585Y-119619173D02*
X195088871Y-119690601D01*
X194660300Y-119369173D02*
X194624585Y-119440601D01*
X194624585Y-119440601D02*
X194624585Y-119619173D01*
X194624585Y-119619173D02*
X194660300Y-119690601D01*
X194660300Y-119690601D02*
X194731728Y-119726315D01*
X194731728Y-119726315D02*
X194803157Y-119726315D01*
X194803157Y-119726315D02*
X194874585Y-119690601D01*
X194874585Y-119690601D02*
X194910300Y-119619173D01*
X194910300Y-119619173D02*
X194910300Y-119440601D01*
X194910300Y-119440601D02*
X194946014Y-119369173D01*
X195124585Y-119083459D02*
X194624585Y-118904887D01*
X195124585Y-118726316D02*
X194624585Y-118904887D01*
X194624585Y-118904887D02*
X194446014Y-118976316D01*
X194446014Y-118976316D02*
X194410300Y-119012030D01*
X194410300Y-119012030D02*
X194374585Y-119083459D01*
X194624585Y-118119173D02*
X195017442Y-118119173D01*
X195017442Y-118119173D02*
X195088871Y-118154887D01*
X195088871Y-118154887D02*
X195124585Y-118226315D01*
X195124585Y-118226315D02*
X195124585Y-118369173D01*
X195124585Y-118369173D02*
X195088871Y-118440601D01*
X194660300Y-118119173D02*
X194624585Y-118190601D01*
X194624585Y-118190601D02*
X194624585Y-118369173D01*
X194624585Y-118369173D02*
X194660300Y-118440601D01*
X194660300Y-118440601D02*
X194731728Y-118476315D01*
X194731728Y-118476315D02*
X194803157Y-118476315D01*
X194803157Y-118476315D02*
X194874585Y-118440601D01*
X194874585Y-118440601D02*
X194910300Y-118369173D01*
X194910300Y-118369173D02*
X194910300Y-118190601D01*
X194910300Y-118190601D02*
X194946014Y-118119173D01*
X139314700Y-66157143D02*
X139386128Y-66371429D01*
X139386128Y-66371429D02*
X139386128Y-66728571D01*
X139386128Y-66728571D02*
X139314700Y-66871429D01*
X139314700Y-66871429D02*
X139243271Y-66942857D01*
X139243271Y-66942857D02*
X139100414Y-67014286D01*
X139100414Y-67014286D02*
X138957557Y-67014286D01*
X138957557Y-67014286D02*
X138814700Y-66942857D01*
X138814700Y-66942857D02*
X138743271Y-66871429D01*
X138743271Y-66871429D02*
X138671842Y-66728571D01*
X138671842Y-66728571D02*
X138600414Y-66442857D01*
X138600414Y-66442857D02*
X138528985Y-66300000D01*
X138528985Y-66300000D02*
X138457557Y-66228571D01*
X138457557Y-66228571D02*
X138314700Y-66157143D01*
X138314700Y-66157143D02*
X138171842Y-66157143D01*
X138171842Y-66157143D02*
X138028985Y-66228571D01*
X138028985Y-66228571D02*
X137957557Y-66300000D01*
X137957557Y-66300000D02*
X137886128Y-66442857D01*
X137886128Y-66442857D02*
X137886128Y-66800000D01*
X137886128Y-66800000D02*
X137957557Y-67014286D01*
X139243271Y-68514285D02*
X139314700Y-68442857D01*
X139314700Y-68442857D02*
X139386128Y-68228571D01*
X139386128Y-68228571D02*
X139386128Y-68085714D01*
X139386128Y-68085714D02*
X139314700Y-67871428D01*
X139314700Y-67871428D02*
X139171842Y-67728571D01*
X139171842Y-67728571D02*
X139028985Y-67657142D01*
X139028985Y-67657142D02*
X138743271Y-67585714D01*
X138743271Y-67585714D02*
X138528985Y-67585714D01*
X138528985Y-67585714D02*
X138243271Y-67657142D01*
X138243271Y-67657142D02*
X138100414Y-67728571D01*
X138100414Y-67728571D02*
X137957557Y-67871428D01*
X137957557Y-67871428D02*
X137886128Y-68085714D01*
X137886128Y-68085714D02*
X137886128Y-68228571D01*
X137886128Y-68228571D02*
X137957557Y-68442857D01*
X137957557Y-68442857D02*
X138028985Y-68514285D01*
X138028985Y-69085714D02*
X137957557Y-69157142D01*
X137957557Y-69157142D02*
X137886128Y-69300000D01*
X137886128Y-69300000D02*
X137886128Y-69657142D01*
X137886128Y-69657142D02*
X137957557Y-69800000D01*
X137957557Y-69800000D02*
X138028985Y-69871428D01*
X138028985Y-69871428D02*
X138171842Y-69942857D01*
X138171842Y-69942857D02*
X138314700Y-69942857D01*
X138314700Y-69942857D02*
X138528985Y-69871428D01*
X138528985Y-69871428D02*
X139386128Y-69014285D01*
X139386128Y-69014285D02*
X139386128Y-69942857D01*
X147059649Y-83453152D02*
X147059649Y-84262676D01*
X147059649Y-84262676D02*
X147107268Y-84357914D01*
X147107268Y-84357914D02*
X147154887Y-84405533D01*
X147154887Y-84405533D02*
X147250125Y-84453152D01*
X147250125Y-84453152D02*
X147392982Y-84453152D01*
X147392982Y-84453152D02*
X147488220Y-84405533D01*
X147059649Y-84072200D02*
X147154887Y-84119819D01*
X147154887Y-84119819D02*
X147345363Y-84119819D01*
X147345363Y-84119819D02*
X147440601Y-84072200D01*
X147440601Y-84072200D02*
X147488220Y-84024580D01*
X147488220Y-84024580D02*
X147535839Y-83929342D01*
X147535839Y-83929342D02*
X147535839Y-83643628D01*
X147535839Y-83643628D02*
X147488220Y-83548390D01*
X147488220Y-83548390D02*
X147440601Y-83500771D01*
X147440601Y-83500771D02*
X147345363Y-83453152D01*
X147345363Y-83453152D02*
X147154887Y-83453152D01*
X147154887Y-83453152D02*
X147059649Y-83500771D01*
X146583458Y-83453152D02*
X146583458Y-84119819D01*
X146583458Y-83548390D02*
X146535839Y-83500771D01*
X146535839Y-83500771D02*
X146440601Y-83453152D01*
X146440601Y-83453152D02*
X146297744Y-83453152D01*
X146297744Y-83453152D02*
X146202506Y-83500771D01*
X146202506Y-83500771D02*
X146154887Y-83596009D01*
X146154887Y-83596009D02*
X146154887Y-84119819D01*
X145250125Y-84119819D02*
X145250125Y-83119819D01*
X145250125Y-84072200D02*
X145345363Y-84119819D01*
X145345363Y-84119819D02*
X145535839Y-84119819D01*
X145535839Y-84119819D02*
X145631077Y-84072200D01*
X145631077Y-84072200D02*
X145678696Y-84024580D01*
X145678696Y-84024580D02*
X145726315Y-83929342D01*
X145726315Y-83929342D02*
X145726315Y-83643628D01*
X145726315Y-83643628D02*
X145678696Y-83548390D01*
X145678696Y-83548390D02*
X145631077Y-83500771D01*
X145631077Y-83500771D02*
X145535839Y-83453152D01*
X145535839Y-83453152D02*
X145345363Y-83453152D01*
X145345363Y-83453152D02*
X145250125Y-83500771D01*
X142094819Y-77686779D02*
X141094819Y-77686779D01*
X141094819Y-77686779D02*
X141094819Y-78067731D01*
X141094819Y-78067731D02*
X141142438Y-78162969D01*
X141142438Y-78162969D02*
X141190057Y-78210588D01*
X141190057Y-78210588D02*
X141285295Y-78258207D01*
X141285295Y-78258207D02*
X141428152Y-78258207D01*
X141428152Y-78258207D02*
X141523390Y-78210588D01*
X141523390Y-78210588D02*
X141571009Y-78162969D01*
X141571009Y-78162969D02*
X141618628Y-78067731D01*
X141618628Y-78067731D02*
X141618628Y-77686779D01*
X142094819Y-78686779D02*
X141428152Y-78686779D01*
X141094819Y-78686779D02*
X141142438Y-78639160D01*
X141142438Y-78639160D02*
X141190057Y-78686779D01*
X141190057Y-78686779D02*
X141142438Y-78734398D01*
X141142438Y-78734398D02*
X141094819Y-78686779D01*
X141094819Y-78686779D02*
X141190057Y-78686779D01*
X141999580Y-79734397D02*
X142047200Y-79686778D01*
X142047200Y-79686778D02*
X142094819Y-79543921D01*
X142094819Y-79543921D02*
X142094819Y-79448683D01*
X142094819Y-79448683D02*
X142047200Y-79305826D01*
X142047200Y-79305826D02*
X141951961Y-79210588D01*
X141951961Y-79210588D02*
X141856723Y-79162969D01*
X141856723Y-79162969D02*
X141666247Y-79115350D01*
X141666247Y-79115350D02*
X141523390Y-79115350D01*
X141523390Y-79115350D02*
X141332914Y-79162969D01*
X141332914Y-79162969D02*
X141237676Y-79210588D01*
X141237676Y-79210588D02*
X141142438Y-79305826D01*
X141142438Y-79305826D02*
X141094819Y-79448683D01*
X141094819Y-79448683D02*
X141094819Y-79543921D01*
X141094819Y-79543921D02*
X141142438Y-79686778D01*
X141142438Y-79686778D02*
X141190057Y-79734397D01*
X141428152Y-80591540D02*
X142094819Y-80591540D01*
X141428152Y-80162969D02*
X141951961Y-80162969D01*
X141951961Y-80162969D02*
X142047200Y-80210588D01*
X142047200Y-80210588D02*
X142094819Y-80305826D01*
X142094819Y-80305826D02*
X142094819Y-80448683D01*
X142094819Y-80448683D02*
X142047200Y-80543921D01*
X142047200Y-80543921D02*
X141999580Y-80591540D01*
X142094819Y-81067731D02*
X141094819Y-81067731D01*
X141475771Y-81067731D02*
X141428152Y-81162969D01*
X141428152Y-81162969D02*
X141428152Y-81353445D01*
X141428152Y-81353445D02*
X141475771Y-81448683D01*
X141475771Y-81448683D02*
X141523390Y-81496302D01*
X141523390Y-81496302D02*
X141618628Y-81543921D01*
X141618628Y-81543921D02*
X141904342Y-81543921D01*
X141904342Y-81543921D02*
X141999580Y-81496302D01*
X141999580Y-81496302D02*
X142047200Y-81448683D01*
X142047200Y-81448683D02*
X142094819Y-81353445D01*
X142094819Y-81353445D02*
X142094819Y-81162969D01*
X142094819Y-81162969D02*
X142047200Y-81067731D01*
X142047200Y-82353445D02*
X142094819Y-82258207D01*
X142094819Y-82258207D02*
X142094819Y-82067731D01*
X142094819Y-82067731D02*
X142047200Y-81972493D01*
X142047200Y-81972493D02*
X141951961Y-81924874D01*
X141951961Y-81924874D02*
X141571009Y-81924874D01*
X141571009Y-81924874D02*
X141475771Y-81972493D01*
X141475771Y-81972493D02*
X141428152Y-82067731D01*
X141428152Y-82067731D02*
X141428152Y-82258207D01*
X141428152Y-82258207D02*
X141475771Y-82353445D01*
X141475771Y-82353445D02*
X141571009Y-82401064D01*
X141571009Y-82401064D02*
X141666247Y-82401064D01*
X141666247Y-82401064D02*
X141761485Y-81924874D01*
X142094819Y-83258207D02*
X141094819Y-83258207D01*
X142047200Y-83258207D02*
X142094819Y-83162969D01*
X142094819Y-83162969D02*
X142094819Y-82972493D01*
X142094819Y-82972493D02*
X142047200Y-82877255D01*
X142047200Y-82877255D02*
X141999580Y-82829636D01*
X141999580Y-82829636D02*
X141904342Y-82782017D01*
X141904342Y-82782017D02*
X141618628Y-82782017D01*
X141618628Y-82782017D02*
X141523390Y-82829636D01*
X141523390Y-82829636D02*
X141475771Y-82877255D01*
X141475771Y-82877255D02*
X141428152Y-82972493D01*
X141428152Y-82972493D02*
X141428152Y-83162969D01*
X141428152Y-83162969D02*
X141475771Y-83258207D01*
X189017856Y-45814700D02*
X188803571Y-45886128D01*
X188803571Y-45886128D02*
X188446428Y-45886128D01*
X188446428Y-45886128D02*
X188303571Y-45814700D01*
X188303571Y-45814700D02*
X188232142Y-45743271D01*
X188232142Y-45743271D02*
X188160713Y-45600414D01*
X188160713Y-45600414D02*
X188160713Y-45457557D01*
X188160713Y-45457557D02*
X188232142Y-45314700D01*
X188232142Y-45314700D02*
X188303571Y-45243271D01*
X188303571Y-45243271D02*
X188446428Y-45171842D01*
X188446428Y-45171842D02*
X188732142Y-45100414D01*
X188732142Y-45100414D02*
X188874999Y-45028985D01*
X188874999Y-45028985D02*
X188946428Y-44957557D01*
X188946428Y-44957557D02*
X189017856Y-44814700D01*
X189017856Y-44814700D02*
X189017856Y-44671842D01*
X189017856Y-44671842D02*
X188946428Y-44528985D01*
X188946428Y-44528985D02*
X188874999Y-44457557D01*
X188874999Y-44457557D02*
X188732142Y-44386128D01*
X188732142Y-44386128D02*
X188374999Y-44386128D01*
X188374999Y-44386128D02*
X188160713Y-44457557D01*
X186660714Y-45743271D02*
X186732142Y-45814700D01*
X186732142Y-45814700D02*
X186946428Y-45886128D01*
X186946428Y-45886128D02*
X187089285Y-45886128D01*
X187089285Y-45886128D02*
X187303571Y-45814700D01*
X187303571Y-45814700D02*
X187446428Y-45671842D01*
X187446428Y-45671842D02*
X187517857Y-45528985D01*
X187517857Y-45528985D02*
X187589285Y-45243271D01*
X187589285Y-45243271D02*
X187589285Y-45028985D01*
X187589285Y-45028985D02*
X187517857Y-44743271D01*
X187517857Y-44743271D02*
X187446428Y-44600414D01*
X187446428Y-44600414D02*
X187303571Y-44457557D01*
X187303571Y-44457557D02*
X187089285Y-44386128D01*
X187089285Y-44386128D02*
X186946428Y-44386128D01*
X186946428Y-44386128D02*
X186732142Y-44457557D01*
X186732142Y-44457557D02*
X186660714Y-44528985D01*
X185232142Y-45886128D02*
X186089285Y-45886128D01*
X185660714Y-45886128D02*
X185660714Y-44386128D01*
X185660714Y-44386128D02*
X185803571Y-44600414D01*
X185803571Y-44600414D02*
X185946428Y-44743271D01*
X185946428Y-44743271D02*
X186089285Y-44814700D01*
X150115601Y-99250414D02*
X150187030Y-99214700D01*
X150187030Y-99214700D02*
X150222744Y-99178985D01*
X150222744Y-99178985D02*
X150258458Y-99107557D01*
X150258458Y-99107557D02*
X150258458Y-98893271D01*
X150258458Y-98893271D02*
X150222744Y-98821842D01*
X150222744Y-98821842D02*
X150187030Y-98786128D01*
X150187030Y-98786128D02*
X150115601Y-98750414D01*
X150115601Y-98750414D02*
X150008458Y-98750414D01*
X150008458Y-98750414D02*
X149937030Y-98786128D01*
X149937030Y-98786128D02*
X149901316Y-98821842D01*
X149901316Y-98821842D02*
X149865601Y-98893271D01*
X149865601Y-98893271D02*
X149865601Y-99107557D01*
X149865601Y-99107557D02*
X149901316Y-99178985D01*
X149901316Y-99178985D02*
X149937030Y-99214700D01*
X149937030Y-99214700D02*
X150008458Y-99250414D01*
X150008458Y-99250414D02*
X150115601Y-99250414D01*
X149222745Y-98750414D02*
X149222745Y-99250414D01*
X149544173Y-98750414D02*
X149544173Y-99143271D01*
X149544173Y-99143271D02*
X149508459Y-99214700D01*
X149508459Y-99214700D02*
X149437030Y-99250414D01*
X149437030Y-99250414D02*
X149329887Y-99250414D01*
X149329887Y-99250414D02*
X149258459Y-99214700D01*
X149258459Y-99214700D02*
X149222745Y-99178985D01*
X148972745Y-98750414D02*
X148687031Y-98750414D01*
X148865602Y-98500414D02*
X148865602Y-99143271D01*
X148865602Y-99143271D02*
X148829888Y-99214700D01*
X148829888Y-99214700D02*
X148758459Y-99250414D01*
X148758459Y-99250414D02*
X148687031Y-99250414D01*
X148472745Y-98571842D02*
X148437031Y-98536128D01*
X148437031Y-98536128D02*
X148365603Y-98500414D01*
X148365603Y-98500414D02*
X148187031Y-98500414D01*
X148187031Y-98500414D02*
X148115603Y-98536128D01*
X148115603Y-98536128D02*
X148079888Y-98571842D01*
X148079888Y-98571842D02*
X148044174Y-98643271D01*
X148044174Y-98643271D02*
X148044174Y-98714700D01*
X148044174Y-98714700D02*
X148079888Y-98821842D01*
X148079888Y-98821842D02*
X148508460Y-99250414D01*
X148508460Y-99250414D02*
X148044174Y-99250414D01*
X150065601Y-100575414D02*
X150137030Y-100539700D01*
X150137030Y-100539700D02*
X150172744Y-100503985D01*
X150172744Y-100503985D02*
X150208458Y-100432557D01*
X150208458Y-100432557D02*
X150208458Y-100218271D01*
X150208458Y-100218271D02*
X150172744Y-100146842D01*
X150172744Y-100146842D02*
X150137030Y-100111128D01*
X150137030Y-100111128D02*
X150065601Y-100075414D01*
X150065601Y-100075414D02*
X149958458Y-100075414D01*
X149958458Y-100075414D02*
X149887030Y-100111128D01*
X149887030Y-100111128D02*
X149851316Y-100146842D01*
X149851316Y-100146842D02*
X149815601Y-100218271D01*
X149815601Y-100218271D02*
X149815601Y-100432557D01*
X149815601Y-100432557D02*
X149851316Y-100503985D01*
X149851316Y-100503985D02*
X149887030Y-100539700D01*
X149887030Y-100539700D02*
X149958458Y-100575414D01*
X149958458Y-100575414D02*
X150065601Y-100575414D01*
X149172745Y-100075414D02*
X149172745Y-100575414D01*
X149494173Y-100075414D02*
X149494173Y-100468271D01*
X149494173Y-100468271D02*
X149458459Y-100539700D01*
X149458459Y-100539700D02*
X149387030Y-100575414D01*
X149387030Y-100575414D02*
X149279887Y-100575414D01*
X149279887Y-100575414D02*
X149208459Y-100539700D01*
X149208459Y-100539700D02*
X149172745Y-100503985D01*
X148922745Y-100075414D02*
X148637031Y-100075414D01*
X148815602Y-99825414D02*
X148815602Y-100468271D01*
X148815602Y-100468271D02*
X148779888Y-100539700D01*
X148779888Y-100539700D02*
X148708459Y-100575414D01*
X148708459Y-100575414D02*
X148637031Y-100575414D01*
X147994174Y-100575414D02*
X148422745Y-100575414D01*
X148208460Y-100575414D02*
X148208460Y-99825414D01*
X148208460Y-99825414D02*
X148279888Y-99932557D01*
X148279888Y-99932557D02*
X148351317Y-100003985D01*
X148351317Y-100003985D02*
X148422745Y-100039700D01*
X146359104Y-99239160D02*
X146359104Y-99715350D01*
X146644819Y-99143922D02*
X145644819Y-99477255D01*
X145644819Y-99477255D02*
X146644819Y-99810588D01*
X146644819Y-100143922D02*
X145644819Y-100143922D01*
X145644819Y-100143922D02*
X145644819Y-100382017D01*
X145644819Y-100382017D02*
X145692438Y-100524874D01*
X145692438Y-100524874D02*
X145787676Y-100620112D01*
X145787676Y-100620112D02*
X145882914Y-100667731D01*
X145882914Y-100667731D02*
X146073390Y-100715350D01*
X146073390Y-100715350D02*
X146216247Y-100715350D01*
X146216247Y-100715350D02*
X146406723Y-100667731D01*
X146406723Y-100667731D02*
X146501961Y-100620112D01*
X146501961Y-100620112D02*
X146597200Y-100524874D01*
X146597200Y-100524874D02*
X146644819Y-100382017D01*
X146644819Y-100382017D02*
X146644819Y-100143922D01*
X146549580Y-101715350D02*
X146597200Y-101667731D01*
X146597200Y-101667731D02*
X146644819Y-101524874D01*
X146644819Y-101524874D02*
X146644819Y-101429636D01*
X146644819Y-101429636D02*
X146597200Y-101286779D01*
X146597200Y-101286779D02*
X146501961Y-101191541D01*
X146501961Y-101191541D02*
X146406723Y-101143922D01*
X146406723Y-101143922D02*
X146216247Y-101096303D01*
X146216247Y-101096303D02*
X146073390Y-101096303D01*
X146073390Y-101096303D02*
X145882914Y-101143922D01*
X145882914Y-101143922D02*
X145787676Y-101191541D01*
X145787676Y-101191541D02*
X145692438Y-101286779D01*
X145692438Y-101286779D02*
X145644819Y-101429636D01*
X145644819Y-101429636D02*
X145644819Y-101524874D01*
X145644819Y-101524874D02*
X145692438Y-101667731D01*
X145692438Y-101667731D02*
X145740057Y-101715350D01*
X146597200Y-102096303D02*
X146644819Y-102239160D01*
X146644819Y-102239160D02*
X146644819Y-102477255D01*
X146644819Y-102477255D02*
X146597200Y-102572493D01*
X146597200Y-102572493D02*
X146549580Y-102620112D01*
X146549580Y-102620112D02*
X146454342Y-102667731D01*
X146454342Y-102667731D02*
X146359104Y-102667731D01*
X146359104Y-102667731D02*
X146263866Y-102620112D01*
X146263866Y-102620112D02*
X146216247Y-102572493D01*
X146216247Y-102572493D02*
X146168628Y-102477255D01*
X146168628Y-102477255D02*
X146121009Y-102286779D01*
X146121009Y-102286779D02*
X146073390Y-102191541D01*
X146073390Y-102191541D02*
X146025771Y-102143922D01*
X146025771Y-102143922D02*
X145930533Y-102096303D01*
X145930533Y-102096303D02*
X145835295Y-102096303D01*
X145835295Y-102096303D02*
X145740057Y-102143922D01*
X145740057Y-102143922D02*
X145692438Y-102191541D01*
X145692438Y-102191541D02*
X145644819Y-102286779D01*
X145644819Y-102286779D02*
X145644819Y-102524874D01*
X145644819Y-102524874D02*
X145692438Y-102667731D01*
X138839700Y-102607143D02*
X138911128Y-102821429D01*
X138911128Y-102821429D02*
X138911128Y-103178571D01*
X138911128Y-103178571D02*
X138839700Y-103321429D01*
X138839700Y-103321429D02*
X138768271Y-103392857D01*
X138768271Y-103392857D02*
X138625414Y-103464286D01*
X138625414Y-103464286D02*
X138482557Y-103464286D01*
X138482557Y-103464286D02*
X138339700Y-103392857D01*
X138339700Y-103392857D02*
X138268271Y-103321429D01*
X138268271Y-103321429D02*
X138196842Y-103178571D01*
X138196842Y-103178571D02*
X138125414Y-102892857D01*
X138125414Y-102892857D02*
X138053985Y-102750000D01*
X138053985Y-102750000D02*
X137982557Y-102678571D01*
X137982557Y-102678571D02*
X137839700Y-102607143D01*
X137839700Y-102607143D02*
X137696842Y-102607143D01*
X137696842Y-102607143D02*
X137553985Y-102678571D01*
X137553985Y-102678571D02*
X137482557Y-102750000D01*
X137482557Y-102750000D02*
X137411128Y-102892857D01*
X137411128Y-102892857D02*
X137411128Y-103250000D01*
X137411128Y-103250000D02*
X137482557Y-103464286D01*
X138768271Y-104964285D02*
X138839700Y-104892857D01*
X138839700Y-104892857D02*
X138911128Y-104678571D01*
X138911128Y-104678571D02*
X138911128Y-104535714D01*
X138911128Y-104535714D02*
X138839700Y-104321428D01*
X138839700Y-104321428D02*
X138696842Y-104178571D01*
X138696842Y-104178571D02*
X138553985Y-104107142D01*
X138553985Y-104107142D02*
X138268271Y-104035714D01*
X138268271Y-104035714D02*
X138053985Y-104035714D01*
X138053985Y-104035714D02*
X137768271Y-104107142D01*
X137768271Y-104107142D02*
X137625414Y-104178571D01*
X137625414Y-104178571D02*
X137482557Y-104321428D01*
X137482557Y-104321428D02*
X137411128Y-104535714D01*
X137411128Y-104535714D02*
X137411128Y-104678571D01*
X137411128Y-104678571D02*
X137482557Y-104892857D01*
X137482557Y-104892857D02*
X137553985Y-104964285D01*
X137411128Y-105464285D02*
X137411128Y-106392857D01*
X137411128Y-106392857D02*
X137982557Y-105892857D01*
X137982557Y-105892857D02*
X137982557Y-106107142D01*
X137982557Y-106107142D02*
X138053985Y-106250000D01*
X138053985Y-106250000D02*
X138125414Y-106321428D01*
X138125414Y-106321428D02*
X138268271Y-106392857D01*
X138268271Y-106392857D02*
X138625414Y-106392857D01*
X138625414Y-106392857D02*
X138768271Y-106321428D01*
X138768271Y-106321428D02*
X138839700Y-106250000D01*
X138839700Y-106250000D02*
X138911128Y-106107142D01*
X138911128Y-106107142D02*
X138911128Y-105678571D01*
X138911128Y-105678571D02*
X138839700Y-105535714D01*
X138839700Y-105535714D02*
X138768271Y-105464285D01*
X149788094Y-65879819D02*
X149788094Y-64879819D01*
X149788094Y-64879819D02*
X149549999Y-64879819D01*
X149549999Y-64879819D02*
X149407142Y-64927438D01*
X149407142Y-64927438D02*
X149311904Y-65022676D01*
X149311904Y-65022676D02*
X149264285Y-65117914D01*
X149264285Y-65117914D02*
X149216666Y-65308390D01*
X149216666Y-65308390D02*
X149216666Y-65451247D01*
X149216666Y-65451247D02*
X149264285Y-65641723D01*
X149264285Y-65641723D02*
X149311904Y-65736961D01*
X149311904Y-65736961D02*
X149407142Y-65832200D01*
X149407142Y-65832200D02*
X149549999Y-65879819D01*
X149549999Y-65879819D02*
X149788094Y-65879819D01*
X148835713Y-64975057D02*
X148788094Y-64927438D01*
X148788094Y-64927438D02*
X148692856Y-64879819D01*
X148692856Y-64879819D02*
X148454761Y-64879819D01*
X148454761Y-64879819D02*
X148359523Y-64927438D01*
X148359523Y-64927438D02*
X148311904Y-64975057D01*
X148311904Y-64975057D02*
X148264285Y-65070295D01*
X148264285Y-65070295D02*
X148264285Y-65165533D01*
X148264285Y-65165533D02*
X148311904Y-65308390D01*
X148311904Y-65308390D02*
X148883332Y-65879819D01*
X148883332Y-65879819D02*
X148264285Y-65879819D01*
X159359580Y-100258333D02*
X159407200Y-100210714D01*
X159407200Y-100210714D02*
X159454819Y-100067857D01*
X159454819Y-100067857D02*
X159454819Y-99972619D01*
X159454819Y-99972619D02*
X159407200Y-99829762D01*
X159407200Y-99829762D02*
X159311961Y-99734524D01*
X159311961Y-99734524D02*
X159216723Y-99686905D01*
X159216723Y-99686905D02*
X159026247Y-99639286D01*
X159026247Y-99639286D02*
X158883390Y-99639286D01*
X158883390Y-99639286D02*
X158692914Y-99686905D01*
X158692914Y-99686905D02*
X158597676Y-99734524D01*
X158597676Y-99734524D02*
X158502438Y-99829762D01*
X158502438Y-99829762D02*
X158454819Y-99972619D01*
X158454819Y-99972619D02*
X158454819Y-100067857D01*
X158454819Y-100067857D02*
X158502438Y-100210714D01*
X158502438Y-100210714D02*
X158550057Y-100258333D01*
X159454819Y-101210714D02*
X159454819Y-100639286D01*
X159454819Y-100925000D02*
X158454819Y-100925000D01*
X158454819Y-100925000D02*
X158597676Y-100829762D01*
X158597676Y-100829762D02*
X158692914Y-100734524D01*
X158692914Y-100734524D02*
X158740533Y-100639286D01*
X149004819Y-110038095D02*
X149814342Y-110038095D01*
X149814342Y-110038095D02*
X149909580Y-110085714D01*
X149909580Y-110085714D02*
X149957200Y-110133333D01*
X149957200Y-110133333D02*
X150004819Y-110228571D01*
X150004819Y-110228571D02*
X150004819Y-110419047D01*
X150004819Y-110419047D02*
X149957200Y-110514285D01*
X149957200Y-110514285D02*
X149909580Y-110561904D01*
X149909580Y-110561904D02*
X149814342Y-110609523D01*
X149814342Y-110609523D02*
X149004819Y-110609523D01*
X150004819Y-111609523D02*
X150004819Y-111038095D01*
X150004819Y-111323809D02*
X149004819Y-111323809D01*
X149004819Y-111323809D02*
X149147676Y-111228571D01*
X149147676Y-111228571D02*
X149242914Y-111133333D01*
X149242914Y-111133333D02*
X149290533Y-111038095D01*
X149254819Y-107925000D02*
X149492914Y-107925000D01*
X149397676Y-107686905D02*
X149492914Y-107925000D01*
X149492914Y-107925000D02*
X149397676Y-108163095D01*
X149683390Y-107782143D02*
X149492914Y-107925000D01*
X149492914Y-107925000D02*
X149683390Y-108067857D01*
X149713094Y-92954819D02*
X149713094Y-91954819D01*
X149713094Y-91954819D02*
X149474999Y-91954819D01*
X149474999Y-91954819D02*
X149332142Y-92002438D01*
X149332142Y-92002438D02*
X149236904Y-92097676D01*
X149236904Y-92097676D02*
X149189285Y-92192914D01*
X149189285Y-92192914D02*
X149141666Y-92383390D01*
X149141666Y-92383390D02*
X149141666Y-92526247D01*
X149141666Y-92526247D02*
X149189285Y-92716723D01*
X149189285Y-92716723D02*
X149236904Y-92811961D01*
X149236904Y-92811961D02*
X149332142Y-92907200D01*
X149332142Y-92907200D02*
X149474999Y-92954819D01*
X149474999Y-92954819D02*
X149713094Y-92954819D01*
X148808332Y-91954819D02*
X148189285Y-91954819D01*
X148189285Y-91954819D02*
X148522618Y-92335771D01*
X148522618Y-92335771D02*
X148379761Y-92335771D01*
X148379761Y-92335771D02*
X148284523Y-92383390D01*
X148284523Y-92383390D02*
X148236904Y-92431009D01*
X148236904Y-92431009D02*
X148189285Y-92526247D01*
X148189285Y-92526247D02*
X148189285Y-92764342D01*
X148189285Y-92764342D02*
X148236904Y-92859580D01*
X148236904Y-92859580D02*
X148284523Y-92907200D01*
X148284523Y-92907200D02*
X148379761Y-92954819D01*
X148379761Y-92954819D02*
X148665475Y-92954819D01*
X148665475Y-92954819D02*
X148760713Y-92907200D01*
X148760713Y-92907200D02*
X148808332Y-92859580D01*
X159341666Y-112719580D02*
X159389285Y-112767200D01*
X159389285Y-112767200D02*
X159532142Y-112814819D01*
X159532142Y-112814819D02*
X159627380Y-112814819D01*
X159627380Y-112814819D02*
X159770237Y-112767200D01*
X159770237Y-112767200D02*
X159865475Y-112671961D01*
X159865475Y-112671961D02*
X159913094Y-112576723D01*
X159913094Y-112576723D02*
X159960713Y-112386247D01*
X159960713Y-112386247D02*
X159960713Y-112243390D01*
X159960713Y-112243390D02*
X159913094Y-112052914D01*
X159913094Y-112052914D02*
X159865475Y-111957676D01*
X159865475Y-111957676D02*
X159770237Y-111862438D01*
X159770237Y-111862438D02*
X159627380Y-111814819D01*
X159627380Y-111814819D02*
X159532142Y-111814819D01*
X159532142Y-111814819D02*
X159389285Y-111862438D01*
X159389285Y-111862438D02*
X159341666Y-111910057D01*
X159008332Y-111814819D02*
X158389285Y-111814819D01*
X158389285Y-111814819D02*
X158722618Y-112195771D01*
X158722618Y-112195771D02*
X158579761Y-112195771D01*
X158579761Y-112195771D02*
X158484523Y-112243390D01*
X158484523Y-112243390D02*
X158436904Y-112291009D01*
X158436904Y-112291009D02*
X158389285Y-112386247D01*
X158389285Y-112386247D02*
X158389285Y-112624342D01*
X158389285Y-112624342D02*
X158436904Y-112719580D01*
X158436904Y-112719580D02*
X158484523Y-112767200D01*
X158484523Y-112767200D02*
X158579761Y-112814819D01*
X158579761Y-112814819D02*
X158865475Y-112814819D01*
X158865475Y-112814819D02*
X158960713Y-112767200D01*
X158960713Y-112767200D02*
X159008332Y-112719580D01*
X159341666Y-108744819D02*
X159674999Y-108268628D01*
X159913094Y-108744819D02*
X159913094Y-107744819D01*
X159913094Y-107744819D02*
X159532142Y-107744819D01*
X159532142Y-107744819D02*
X159436904Y-107792438D01*
X159436904Y-107792438D02*
X159389285Y-107840057D01*
X159389285Y-107840057D02*
X159341666Y-107935295D01*
X159341666Y-107935295D02*
X159341666Y-108078152D01*
X159341666Y-108078152D02*
X159389285Y-108173390D01*
X159389285Y-108173390D02*
X159436904Y-108221009D01*
X159436904Y-108221009D02*
X159532142Y-108268628D01*
X159532142Y-108268628D02*
X159913094Y-108268628D01*
X158960713Y-107840057D02*
X158913094Y-107792438D01*
X158913094Y-107792438D02*
X158817856Y-107744819D01*
X158817856Y-107744819D02*
X158579761Y-107744819D01*
X158579761Y-107744819D02*
X158484523Y-107792438D01*
X158484523Y-107792438D02*
X158436904Y-107840057D01*
X158436904Y-107840057D02*
X158389285Y-107935295D01*
X158389285Y-107935295D02*
X158389285Y-108030533D01*
X158389285Y-108030533D02*
X158436904Y-108173390D01*
X158436904Y-108173390D02*
X159008332Y-108744819D01*
X159008332Y-108744819D02*
X158389285Y-108744819D01*
X152195180Y-101283333D02*
X151480895Y-101283333D01*
X151480895Y-101283333D02*
X151338038Y-101330952D01*
X151338038Y-101330952D02*
X151242800Y-101426190D01*
X151242800Y-101426190D02*
X151195180Y-101569047D01*
X151195180Y-101569047D02*
X151195180Y-101664285D01*
X152099942Y-100854761D02*
X152147561Y-100807142D01*
X152147561Y-100807142D02*
X152195180Y-100711904D01*
X152195180Y-100711904D02*
X152195180Y-100473809D01*
X152195180Y-100473809D02*
X152147561Y-100378571D01*
X152147561Y-100378571D02*
X152099942Y-100330952D01*
X152099942Y-100330952D02*
X152004704Y-100283333D01*
X152004704Y-100283333D02*
X151909466Y-100283333D01*
X151909466Y-100283333D02*
X151766609Y-100330952D01*
X151766609Y-100330952D02*
X151195180Y-100902380D01*
X151195180Y-100902380D02*
X151195180Y-100283333D01*
X149788094Y-70429819D02*
X149788094Y-69429819D01*
X149788094Y-69429819D02*
X149549999Y-69429819D01*
X149549999Y-69429819D02*
X149407142Y-69477438D01*
X149407142Y-69477438D02*
X149311904Y-69572676D01*
X149311904Y-69572676D02*
X149264285Y-69667914D01*
X149264285Y-69667914D02*
X149216666Y-69858390D01*
X149216666Y-69858390D02*
X149216666Y-70001247D01*
X149216666Y-70001247D02*
X149264285Y-70191723D01*
X149264285Y-70191723D02*
X149311904Y-70286961D01*
X149311904Y-70286961D02*
X149407142Y-70382200D01*
X149407142Y-70382200D02*
X149549999Y-70429819D01*
X149549999Y-70429819D02*
X149788094Y-70429819D01*
X148264285Y-70429819D02*
X148835713Y-70429819D01*
X148549999Y-70429819D02*
X148549999Y-69429819D01*
X148549999Y-69429819D02*
X148645237Y-69572676D01*
X148645237Y-69572676D02*
X148740475Y-69667914D01*
X148740475Y-69667914D02*
X148835713Y-69715533D01*
X159341666Y-110784580D02*
X159389285Y-110832200D01*
X159389285Y-110832200D02*
X159532142Y-110879819D01*
X159532142Y-110879819D02*
X159627380Y-110879819D01*
X159627380Y-110879819D02*
X159770237Y-110832200D01*
X159770237Y-110832200D02*
X159865475Y-110736961D01*
X159865475Y-110736961D02*
X159913094Y-110641723D01*
X159913094Y-110641723D02*
X159960713Y-110451247D01*
X159960713Y-110451247D02*
X159960713Y-110308390D01*
X159960713Y-110308390D02*
X159913094Y-110117914D01*
X159913094Y-110117914D02*
X159865475Y-110022676D01*
X159865475Y-110022676D02*
X159770237Y-109927438D01*
X159770237Y-109927438D02*
X159627380Y-109879819D01*
X159627380Y-109879819D02*
X159532142Y-109879819D01*
X159532142Y-109879819D02*
X159389285Y-109927438D01*
X159389285Y-109927438D02*
X159341666Y-109975057D01*
X158484523Y-110213152D02*
X158484523Y-110879819D01*
X158722618Y-109832200D02*
X158960713Y-110546485D01*
X158960713Y-110546485D02*
X158341666Y-110546485D01*
X161159580Y-100208333D02*
X161207200Y-100160714D01*
X161207200Y-100160714D02*
X161254819Y-100017857D01*
X161254819Y-100017857D02*
X161254819Y-99922619D01*
X161254819Y-99922619D02*
X161207200Y-99779762D01*
X161207200Y-99779762D02*
X161111961Y-99684524D01*
X161111961Y-99684524D02*
X161016723Y-99636905D01*
X161016723Y-99636905D02*
X160826247Y-99589286D01*
X160826247Y-99589286D02*
X160683390Y-99589286D01*
X160683390Y-99589286D02*
X160492914Y-99636905D01*
X160492914Y-99636905D02*
X160397676Y-99684524D01*
X160397676Y-99684524D02*
X160302438Y-99779762D01*
X160302438Y-99779762D02*
X160254819Y-99922619D01*
X160254819Y-99922619D02*
X160254819Y-100017857D01*
X160254819Y-100017857D02*
X160302438Y-100160714D01*
X160302438Y-100160714D02*
X160350057Y-100208333D01*
X160350057Y-100589286D02*
X160302438Y-100636905D01*
X160302438Y-100636905D02*
X160254819Y-100732143D01*
X160254819Y-100732143D02*
X160254819Y-100970238D01*
X160254819Y-100970238D02*
X160302438Y-101065476D01*
X160302438Y-101065476D02*
X160350057Y-101113095D01*
X160350057Y-101113095D02*
X160445295Y-101160714D01*
X160445295Y-101160714D02*
X160540533Y-101160714D01*
X160540533Y-101160714D02*
X160683390Y-101113095D01*
X160683390Y-101113095D02*
X161254819Y-100541667D01*
X161254819Y-100541667D02*
X161254819Y-101160714D01*
X218613094Y-111804819D02*
X218613094Y-110804819D01*
X218613094Y-110804819D02*
X218374999Y-110804819D01*
X218374999Y-110804819D02*
X218232142Y-110852438D01*
X218232142Y-110852438D02*
X218136904Y-110947676D01*
X218136904Y-110947676D02*
X218089285Y-111042914D01*
X218089285Y-111042914D02*
X218041666Y-111233390D01*
X218041666Y-111233390D02*
X218041666Y-111376247D01*
X218041666Y-111376247D02*
X218089285Y-111566723D01*
X218089285Y-111566723D02*
X218136904Y-111661961D01*
X218136904Y-111661961D02*
X218232142Y-111757200D01*
X218232142Y-111757200D02*
X218374999Y-111804819D01*
X218374999Y-111804819D02*
X218613094Y-111804819D01*
X217136904Y-110804819D02*
X217613094Y-110804819D01*
X217613094Y-110804819D02*
X217660713Y-111281009D01*
X217660713Y-111281009D02*
X217613094Y-111233390D01*
X217613094Y-111233390D02*
X217517856Y-111185771D01*
X217517856Y-111185771D02*
X217279761Y-111185771D01*
X217279761Y-111185771D02*
X217184523Y-111233390D01*
X217184523Y-111233390D02*
X217136904Y-111281009D01*
X217136904Y-111281009D02*
X217089285Y-111376247D01*
X217089285Y-111376247D02*
X217089285Y-111614342D01*
X217089285Y-111614342D02*
X217136904Y-111709580D01*
X217136904Y-111709580D02*
X217184523Y-111757200D01*
X217184523Y-111757200D02*
X217279761Y-111804819D01*
X217279761Y-111804819D02*
X217517856Y-111804819D01*
X217517856Y-111804819D02*
X217613094Y-111757200D01*
X217613094Y-111757200D02*
X217660713Y-111709580D01*
X152604819Y-80241666D02*
X153319104Y-80241666D01*
X153319104Y-80241666D02*
X153461961Y-80194047D01*
X153461961Y-80194047D02*
X153557200Y-80098809D01*
X153557200Y-80098809D02*
X153604819Y-79955952D01*
X153604819Y-79955952D02*
X153604819Y-79860714D01*
X152938152Y-81146428D02*
X153604819Y-81146428D01*
X152557200Y-80908333D02*
X153271485Y-80670238D01*
X153271485Y-80670238D02*
X153271485Y-81289285D01*
X163204819Y-100258333D02*
X162728628Y-99925000D01*
X163204819Y-99686905D02*
X162204819Y-99686905D01*
X162204819Y-99686905D02*
X162204819Y-100067857D01*
X162204819Y-100067857D02*
X162252438Y-100163095D01*
X162252438Y-100163095D02*
X162300057Y-100210714D01*
X162300057Y-100210714D02*
X162395295Y-100258333D01*
X162395295Y-100258333D02*
X162538152Y-100258333D01*
X162538152Y-100258333D02*
X162633390Y-100210714D01*
X162633390Y-100210714D02*
X162681009Y-100163095D01*
X162681009Y-100163095D02*
X162728628Y-100067857D01*
X162728628Y-100067857D02*
X162728628Y-99686905D01*
X163204819Y-101210714D02*
X163204819Y-100639286D01*
X163204819Y-100925000D02*
X162204819Y-100925000D01*
X162204819Y-100925000D02*
X162347676Y-100829762D01*
X162347676Y-100829762D02*
X162442914Y-100734524D01*
X162442914Y-100734524D02*
X162490533Y-100639286D01*
X200334819Y-88066666D02*
X201049104Y-88066666D01*
X201049104Y-88066666D02*
X201191961Y-88019047D01*
X201191961Y-88019047D02*
X201287200Y-87923809D01*
X201287200Y-87923809D02*
X201334819Y-87780952D01*
X201334819Y-87780952D02*
X201334819Y-87685714D01*
X201334819Y-89066666D02*
X201334819Y-88495238D01*
X201334819Y-88780952D02*
X200334819Y-88780952D01*
X200334819Y-88780952D02*
X200477676Y-88685714D01*
X200477676Y-88685714D02*
X200572914Y-88590476D01*
X200572914Y-88590476D02*
X200620533Y-88495238D01*
D11*
X151775000Y-63825000D02*
X151775000Y-64175000D01*
X151800000Y-63825000D02*
X156550000Y-63825000D01*
X151800000Y-66375000D02*
X151800000Y-66725000D01*
X151800000Y-66725000D02*
X156550000Y-66725000D01*
X154606800Y-66011600D02*
X154606800Y-64462200D01*
X156550000Y-66375000D02*
X156550000Y-66725000D01*
X156575000Y-63825000D02*
X156575000Y-64175000D01*
D12*
X154479800Y-65249600D02*
X153667000Y-65986200D01*
X153667000Y-64640000D01*
X154479800Y-65249600D01*
G36*
X154479800Y-65249600D02*
G01*
X153667000Y-65986200D01*
X153667000Y-64640000D01*
X154479800Y-65249600D01*
G37*
D11*
X158440000Y-103140580D02*
X158440000Y-102859420D01*
X159460000Y-103140580D02*
X159460000Y-102859420D01*
D13*
X150571100Y-108529100D02*
X150571100Y-112770900D01*
X155828900Y-112770900D02*
X155828900Y-108529100D01*
D11*
X151600000Y-90875000D02*
X151600000Y-91225000D01*
X151625000Y-90875000D02*
X156375000Y-90875000D01*
X151625000Y-93425000D02*
X151625000Y-93775000D01*
X151625000Y-93775000D02*
X156375000Y-93775000D01*
X154431800Y-93061600D02*
X154431800Y-91512200D01*
X156375000Y-93425000D02*
X156375000Y-93775000D01*
X156400000Y-90875000D02*
X156400000Y-91225000D01*
D12*
X154304800Y-92299600D02*
X153492000Y-93036200D01*
X153492000Y-91690000D01*
X154304800Y-92299600D01*
G36*
X154304800Y-92299600D02*
G01*
X153492000Y-93036200D01*
X153492000Y-91690000D01*
X154304800Y-92299600D01*
G37*
D11*
X161759420Y-111840000D02*
X162040580Y-111840000D01*
X161759420Y-112860000D02*
X162040580Y-112860000D01*
X161662742Y-107777500D02*
X162137258Y-107777500D01*
X161662742Y-108822500D02*
X162137258Y-108822500D01*
D14*
G36*
X202697429Y-119222972D02*
G01*
X202750309Y-119250653D01*
X202785903Y-119295944D01*
X202801203Y-119351383D01*
X202793202Y-119409507D01*
X202758891Y-119462853D01*
X202716443Y-119492629D01*
X202655872Y-119506669D01*
X202595378Y-119496208D01*
X202543497Y-119463080D01*
X202508766Y-119409119D01*
X202506280Y-119402158D01*
X202499983Y-119375156D01*
X202504062Y-119347904D01*
X202520094Y-119306055D01*
X202546889Y-119260419D01*
X202593597Y-119227632D01*
X202660176Y-119217929D01*
X202697429Y-119222972D01*
G37*
G36*
X202691028Y-122245717D02*
G01*
X202745874Y-122273394D01*
X202783074Y-122319372D01*
X202799929Y-122375438D01*
X202793736Y-122433385D01*
X202761795Y-122485003D01*
X202716833Y-122515017D01*
X202656190Y-122526561D01*
X202595340Y-122514634D01*
X202543220Y-122481235D01*
X202508766Y-122428364D01*
X202506279Y-122421475D01*
X202499989Y-122397250D01*
X202502614Y-122373271D01*
X202515191Y-122334414D01*
X202521124Y-122320210D01*
X202560376Y-122272609D01*
X202617084Y-122245561D01*
X202682443Y-122243834D01*
X202691028Y-122245717D01*
G37*
G36*
X201091947Y-122771801D02*
G01*
X201150547Y-122794883D01*
X201192774Y-122819527D01*
X201254800Y-122881252D01*
X201297849Y-122959406D01*
X201318027Y-123045815D01*
X201311437Y-123132309D01*
X201306527Y-123149143D01*
X201275365Y-123205367D01*
X201229266Y-123234347D01*
X201213739Y-123234456D01*
X201170056Y-123234761D01*
X201145300Y-123226268D01*
X201089396Y-123190284D01*
X201034293Y-123136494D01*
X200987795Y-123073206D01*
X200957708Y-123008728D01*
X200956441Y-123004571D01*
X200941905Y-122923145D01*
X200980225Y-122923145D01*
X200987709Y-122971912D01*
X201017913Y-123042271D01*
X201064951Y-123107961D01*
X201121976Y-123159959D01*
X201182143Y-123189245D01*
X201213739Y-123191735D01*
X201247375Y-123175317D01*
X201267041Y-123140029D01*
X201273489Y-123091332D01*
X201267470Y-123034684D01*
X201249736Y-122975547D01*
X201221038Y-122919381D01*
X201182129Y-122871646D01*
X201133759Y-122837802D01*
X201112317Y-122828125D01*
X201064856Y-122813887D01*
X201031695Y-122820069D01*
X201004742Y-122847265D01*
X200989248Y-122878450D01*
X200980225Y-122923145D01*
X200941905Y-122923145D01*
X200941379Y-122920198D01*
X200952444Y-122852593D01*
X200989941Y-122799780D01*
X201015498Y-122779561D01*
X201050206Y-122766594D01*
X201091947Y-122771801D01*
G37*
G36*
X201243940Y-118538300D02*
G01*
X201287853Y-118566861D01*
X201316304Y-118623250D01*
X201325243Y-118676877D01*
X201315250Y-118759823D01*
X201280266Y-118839467D01*
X201223785Y-118908753D01*
X201149297Y-118960625D01*
X201117568Y-118975857D01*
X201082217Y-118988692D01*
X201063349Y-118988400D01*
X201056665Y-118988296D01*
X201029740Y-118976117D01*
X200997722Y-118951206D01*
X200968359Y-118913416D01*
X200956667Y-118887185D01*
X200951219Y-118859717D01*
X200999096Y-118859717D01*
X201020717Y-118910345D01*
X201031710Y-118924078D01*
X201063349Y-118942985D01*
X201103633Y-118937177D01*
X201158168Y-118906496D01*
X201175142Y-118893706D01*
X201219643Y-118845866D01*
X201252905Y-118789014D01*
X201273900Y-118729116D01*
X201281600Y-118672141D01*
X201274977Y-118624056D01*
X201253005Y-118590829D01*
X201214655Y-118578427D01*
X201170909Y-118589089D01*
X201117070Y-118622096D01*
X201066917Y-118670370D01*
X201029507Y-118726660D01*
X201029407Y-118726866D01*
X201001902Y-118800435D01*
X200999096Y-118859717D01*
X200951219Y-118859717D01*
X200949595Y-118851528D01*
X200954992Y-118809443D01*
X200973193Y-118749582D01*
X200980493Y-118730760D01*
X201018199Y-118665352D01*
X201069135Y-118605952D01*
X201125451Y-118560638D01*
X201179300Y-118537485D01*
X201183292Y-118536773D01*
X201243940Y-118538300D01*
G37*
G36*
X201114487Y-120520480D02*
G01*
X201124506Y-120533738D01*
X201127545Y-120566503D01*
X201104774Y-120595890D01*
X201060076Y-120615148D01*
X201017410Y-120634368D01*
X200979166Y-120667673D01*
X200978284Y-120668806D01*
X200955471Y-120719452D01*
X200961080Y-120769409D01*
X200991917Y-120814006D01*
X201044790Y-120848578D01*
X201116506Y-120868456D01*
X201146575Y-120872130D01*
X201183197Y-120871261D01*
X201210996Y-120856585D01*
X201244409Y-120822969D01*
X201252932Y-120813890D01*
X201296345Y-120778006D01*
X201335747Y-120768437D01*
X201379016Y-120782833D01*
X201401645Y-120804175D01*
X201424962Y-120851003D01*
X201437903Y-120908360D01*
X201436662Y-120964264D01*
X201420912Y-121017494D01*
X201387950Y-121065499D01*
X201344753Y-121085746D01*
X201295021Y-121076842D01*
X201242454Y-121037393D01*
X201233720Y-121028391D01*
X201202896Y-121002645D01*
X201171830Y-120994475D01*
X201125107Y-120998814D01*
X201079104Y-121006780D01*
X201020489Y-121023623D01*
X200984008Y-121046887D01*
X200963448Y-121079678D01*
X200957272Y-121101751D01*
X200962645Y-121153944D01*
X200997338Y-121197594D01*
X201059748Y-121230197D01*
X201109119Y-121254490D01*
X201136208Y-121284766D01*
X201135849Y-121315623D01*
X201106286Y-121342817D01*
X201095950Y-121347420D01*
X201043704Y-121351624D01*
X200985643Y-121333277D01*
X200929306Y-121296951D01*
X200882235Y-121247217D01*
X200851971Y-121188648D01*
X200842522Y-121135803D01*
X200853335Y-121055261D01*
X200892945Y-120979998D01*
X200935342Y-120924413D01*
X200902760Y-120889628D01*
X200878180Y-120859861D01*
X200844549Y-120788993D01*
X200841817Y-120712277D01*
X200869734Y-120627717D01*
X200874010Y-120619346D01*
X200914409Y-120564946D01*
X200965791Y-120524733D01*
X201021022Y-120501833D01*
X201072966Y-120499374D01*
X201114487Y-120520480D01*
G37*
G36*
X202041580Y-118820514D02*
G01*
X202042588Y-118861664D01*
X202021471Y-118922213D01*
X201988034Y-118991035D01*
X202023091Y-119014312D01*
X202043629Y-119025354D01*
X202062337Y-119023906D01*
X202086354Y-119005798D01*
X202123558Y-118967347D01*
X202147538Y-118942303D01*
X202178703Y-118915289D01*
X202202628Y-118906391D01*
X202227409Y-118911235D01*
X202243646Y-118919392D01*
X202267550Y-118948495D01*
X202267852Y-118982028D01*
X202242856Y-119009229D01*
X202214699Y-119030708D01*
X202183995Y-119066439D01*
X202174653Y-119081491D01*
X202167356Y-119104102D01*
X202175008Y-119129172D01*
X202199389Y-119168493D01*
X202200570Y-119170285D01*
X202260569Y-119288068D01*
X202295200Y-119416171D01*
X202301828Y-119544905D01*
X202295534Y-119601012D01*
X202260540Y-119723845D01*
X202197986Y-119830980D01*
X202108675Y-119921251D01*
X201993406Y-119993492D01*
X201959353Y-120008236D01*
X201906025Y-120022884D01*
X201857283Y-120036273D01*
X201745515Y-120048660D01*
X201636074Y-120044605D01*
X201571776Y-120030209D01*
X201540986Y-120023316D01*
X201451187Y-119982055D01*
X201348132Y-119906949D01*
X201266562Y-119812069D01*
X201210588Y-119701416D01*
X201201561Y-119668578D01*
X201191251Y-119590280D01*
X201189426Y-119500341D01*
X201196068Y-119411230D01*
X201199523Y-119393872D01*
X201516269Y-119393872D01*
X201538130Y-119416325D01*
X201546958Y-119423953D01*
X201571776Y-119436233D01*
X201594606Y-119425343D01*
X201597286Y-119422986D01*
X201616124Y-119390733D01*
X201614836Y-119356782D01*
X201593575Y-119334511D01*
X201569598Y-119335413D01*
X201560480Y-119341186D01*
X201537099Y-119355989D01*
X201517666Y-119377164D01*
X201516269Y-119393872D01*
X201199523Y-119393872D01*
X201211157Y-119335415D01*
X201229795Y-119281676D01*
X201290077Y-119170707D01*
X201298669Y-119161509D01*
X201459119Y-119161509D01*
X201461333Y-119174520D01*
X201483698Y-119209286D01*
X201520680Y-119237645D01*
X201560480Y-119249371D01*
X201588622Y-119243357D01*
X201606291Y-119231893D01*
X201720488Y-119231893D01*
X201732505Y-119307477D01*
X201769579Y-119365962D01*
X201828492Y-119403715D01*
X201906025Y-119417107D01*
X201915957Y-119416961D01*
X201986059Y-119403783D01*
X202037713Y-119366734D01*
X202076155Y-119302282D01*
X202087239Y-119265575D01*
X202085852Y-119201574D01*
X202061044Y-119144943D01*
X202018308Y-119099373D01*
X201963133Y-119068561D01*
X201901010Y-119056199D01*
X201837429Y-119065982D01*
X201777882Y-119101603D01*
X201739529Y-119148125D01*
X201721913Y-119209434D01*
X201720488Y-119231893D01*
X201606291Y-119231893D01*
X201624379Y-119220157D01*
X201633974Y-119208062D01*
X201649557Y-119164926D01*
X201641219Y-119125201D01*
X201615080Y-119094145D01*
X201577261Y-119077018D01*
X201533884Y-119079083D01*
X201491069Y-119105597D01*
X201469694Y-119133162D01*
X201459119Y-119161509D01*
X201298669Y-119161509D01*
X201372742Y-119082213D01*
X201477082Y-119016694D01*
X201602389Y-118974649D01*
X201747955Y-118956579D01*
X201874687Y-118951755D01*
X201922149Y-118876915D01*
X201953726Y-118835317D01*
X201992358Y-118805156D01*
X202023240Y-118800950D01*
X202041580Y-118820514D01*
G37*
G36*
X201770629Y-121713202D02*
G01*
X201867257Y-121723286D01*
X201989739Y-121757472D01*
X202092344Y-121815804D01*
X202176893Y-121899418D01*
X202245209Y-122009453D01*
X202264578Y-122050129D01*
X202282496Y-122095824D01*
X202292467Y-122139996D01*
X202296748Y-122193796D01*
X202297594Y-122268374D01*
X202297509Y-122282945D01*
X202291720Y-122380382D01*
X202274435Y-122458923D01*
X202242251Y-122529301D01*
X202191766Y-122602248D01*
X202170414Y-122633994D01*
X202165249Y-122662388D01*
X202180490Y-122693523D01*
X202217924Y-122736583D01*
X202251040Y-122773459D01*
X202269654Y-122802507D01*
X202268785Y-122823320D01*
X202250641Y-122843074D01*
X202213645Y-122854753D01*
X202167037Y-122836047D01*
X202110976Y-122786850D01*
X202110697Y-122786554D01*
X202076461Y-122751358D01*
X202054968Y-122736320D01*
X202037065Y-122738411D01*
X202013598Y-122754597D01*
X202000449Y-122765895D01*
X201994144Y-122781576D01*
X202000890Y-122806926D01*
X202021449Y-122851326D01*
X202039762Y-122890165D01*
X202048770Y-122917629D01*
X202044600Y-122933878D01*
X202027877Y-122948315D01*
X202018151Y-122954506D01*
X201982065Y-122959496D01*
X201947943Y-122933738D01*
X201914840Y-122876631D01*
X201895843Y-122834503D01*
X201885588Y-122811761D01*
X201764209Y-122811672D01*
X201754339Y-122811640D01*
X201661989Y-122807576D01*
X201587623Y-122794454D01*
X201565532Y-122786291D01*
X201518900Y-122769060D01*
X201443479Y-122728184D01*
X201432743Y-122721521D01*
X201344426Y-122649166D01*
X201269148Y-122557188D01*
X201216057Y-122456514D01*
X201208660Y-122434594D01*
X201191953Y-122344687D01*
X201188748Y-122242174D01*
X201195166Y-122177082D01*
X201510592Y-122177082D01*
X201537884Y-122204123D01*
X201565532Y-122211778D01*
X201594509Y-122194843D01*
X201608426Y-122177507D01*
X201611664Y-122147125D01*
X201583312Y-122118923D01*
X201563779Y-122111483D01*
X201546095Y-122118373D01*
X201532345Y-122123731D01*
X201513885Y-122144839D01*
X201510592Y-122177082D01*
X201195166Y-122177082D01*
X201198858Y-122139642D01*
X201222095Y-122049679D01*
X201228161Y-122038130D01*
X201718372Y-122038130D01*
X201740510Y-122097479D01*
X201780791Y-122145155D01*
X201834230Y-122177249D01*
X201895843Y-122189850D01*
X201960644Y-122179049D01*
X202023650Y-122140937D01*
X202025152Y-122139608D01*
X202073131Y-122079569D01*
X202090197Y-122013387D01*
X202075886Y-121942821D01*
X202070698Y-121931327D01*
X202027255Y-121871775D01*
X201969978Y-121834426D01*
X201905672Y-121819796D01*
X201841137Y-121828396D01*
X201783175Y-121860742D01*
X201738588Y-121917346D01*
X201719362Y-121971018D01*
X201718372Y-122038130D01*
X201228161Y-122038130D01*
X201270857Y-121956843D01*
X201272573Y-121954772D01*
X201462712Y-121954772D01*
X201483987Y-121993489D01*
X201502653Y-122012955D01*
X201546095Y-122029477D01*
X201591912Y-122020745D01*
X201629530Y-121987216D01*
X201643280Y-121963959D01*
X201647916Y-121936733D01*
X201633394Y-121903348D01*
X201609191Y-121874840D01*
X201566175Y-121855654D01*
X201521070Y-121859627D01*
X201484616Y-121887877D01*
X201464572Y-121922242D01*
X201462712Y-121954772D01*
X201272573Y-121954772D01*
X201344618Y-121867844D01*
X201434113Y-121793683D01*
X201531124Y-121742529D01*
X201584399Y-121724649D01*
X201634924Y-121714444D01*
X201692969Y-121711122D01*
X201770629Y-121713202D01*
G37*
G36*
X204277432Y-113930068D02*
G01*
X204280709Y-113933626D01*
X204325711Y-113990768D01*
X204372156Y-114061900D01*
X204410487Y-114132484D01*
X204415024Y-114142071D01*
X204439665Y-114197187D01*
X204455819Y-114243614D01*
X204465684Y-114291511D01*
X204471455Y-114351039D01*
X204475330Y-114432355D01*
X204476068Y-114452928D01*
X204477291Y-114538464D01*
X204473741Y-114606107D01*
X204464378Y-114667381D01*
X204448165Y-114733810D01*
X204426940Y-114803076D01*
X204348888Y-114986357D01*
X204243085Y-115160538D01*
X204112343Y-115322414D01*
X203959474Y-115468781D01*
X203819826Y-115572311D01*
X203787290Y-115596432D01*
X203598604Y-115702162D01*
X203516623Y-115738814D01*
X203372784Y-115789609D01*
X203227360Y-115822139D01*
X203075194Y-115836765D01*
X203002823Y-115835477D01*
X202911126Y-115833845D01*
X202729997Y-115813739D01*
X202700068Y-115808303D01*
X202526649Y-115776805D01*
X202526374Y-115776747D01*
X202363795Y-115745394D01*
X202220022Y-115724707D01*
X202091017Y-115715976D01*
X201972747Y-115720496D01*
X201861175Y-115739559D01*
X201752267Y-115774456D01*
X201641988Y-115826481D01*
X201526302Y-115896927D01*
X201501265Y-115914967D01*
X201401174Y-115987085D01*
X201262570Y-116098248D01*
X201223922Y-116131287D01*
X201106453Y-116231709D01*
X201056788Y-116275019D01*
X200977699Y-116343762D01*
X200913578Y-116399495D01*
X200790976Y-116505284D01*
X200686554Y-116594385D01*
X200597883Y-116668796D01*
X200522533Y-116730515D01*
X200458076Y-116781541D01*
X200402083Y-116823872D01*
X200352124Y-116859507D01*
X200305771Y-116890444D01*
X200166826Y-116980055D01*
X200220822Y-117096923D01*
X200299102Y-117294905D01*
X200362965Y-117517977D01*
X200409882Y-117756340D01*
X200438835Y-118003458D01*
X200448809Y-118252797D01*
X200438785Y-118497822D01*
X200438155Y-118505331D01*
X200432430Y-118580545D01*
X200428714Y-118642819D01*
X200427320Y-118685862D01*
X200428560Y-118703381D01*
X200433321Y-118702321D01*
X200456983Y-118685255D01*
X200495702Y-118652228D01*
X200544714Y-118607814D01*
X200599256Y-118556584D01*
X200654564Y-118503110D01*
X200705873Y-118451965D01*
X200748421Y-118407720D01*
X200777443Y-118374949D01*
X200788176Y-118358224D01*
X200788173Y-118358062D01*
X200780206Y-118335984D01*
X200759009Y-118292807D01*
X200727772Y-118234697D01*
X200689683Y-118167819D01*
X200667769Y-118129927D01*
X200632189Y-118064983D01*
X200611541Y-118020194D01*
X200603953Y-117991132D01*
X200607556Y-117973367D01*
X200631525Y-117950473D01*
X200663401Y-117952478D01*
X200702834Y-117983166D01*
X200751332Y-118043270D01*
X200787609Y-118097190D01*
X200828719Y-118164494D01*
X200860014Y-118222350D01*
X200900333Y-118305581D01*
X200956129Y-118272660D01*
X200967165Y-118265962D01*
X201002483Y-118241764D01*
X201021446Y-118224335D01*
X201021926Y-118222899D01*
X201018872Y-118198386D01*
X201006900Y-118151020D01*
X200987706Y-118086953D01*
X200962986Y-118012337D01*
X200940976Y-117946820D01*
X200918148Y-117869535D01*
X200907947Y-117816111D01*
X200910223Y-117783306D01*
X200924826Y-117767878D01*
X200951606Y-117766584D01*
X200985633Y-117785703D01*
X201022200Y-117836982D01*
X201059379Y-117920179D01*
X201097164Y-118035283D01*
X201105391Y-118063485D01*
X201123800Y-118120587D01*
X201141029Y-118152576D01*
X201162799Y-118163501D01*
X201194832Y-118157408D01*
X201242848Y-118138345D01*
X201299371Y-118114728D01*
X201299371Y-117976124D01*
X201299308Y-117964639D01*
X201296197Y-117884960D01*
X201289330Y-117806154D01*
X201280003Y-117743750D01*
X201273927Y-117712905D01*
X201268413Y-117671381D01*
X201271668Y-117648235D01*
X201283996Y-117635202D01*
X201298293Y-117627676D01*
X201331673Y-117625626D01*
X201359255Y-117650383D01*
X201381648Y-117703188D01*
X201399465Y-117785283D01*
X201413317Y-117897909D01*
X201417904Y-117944228D01*
X201424632Y-118004116D01*
X201430390Y-118046294D01*
X201434287Y-118063700D01*
X201434590Y-118063878D01*
X201453994Y-118063195D01*
X201498125Y-118057830D01*
X201560767Y-118048627D01*
X201635703Y-118036425D01*
X201674334Y-118030079D01*
X201946409Y-117998473D01*
X202213251Y-117991770D01*
X202483117Y-118010096D01*
X202764264Y-118053577D01*
X202943183Y-118088243D01*
X203109580Y-118021966D01*
X203214799Y-117981385D01*
X203388393Y-117921994D01*
X203551102Y-117877933D01*
X203712636Y-117847133D01*
X203882701Y-117827525D01*
X204071006Y-117817039D01*
X204144634Y-117815308D01*
X204337758Y-117817943D01*
X204513211Y-117831117D01*
X204668351Y-117854360D01*
X204800535Y-117887202D01*
X204907121Y-117929172D01*
X204985467Y-117979800D01*
X205045471Y-118031710D01*
X205043911Y-118221201D01*
X205040919Y-118305481D01*
X205018093Y-118507021D01*
X204974455Y-118721570D01*
X204911830Y-118943121D01*
X204832042Y-119165670D01*
X204736915Y-119383209D01*
X204628274Y-119589733D01*
X204555598Y-119715731D01*
X204604558Y-119866981D01*
X204624429Y-119929734D01*
X204656598Y-120040947D01*
X204681420Y-120144827D01*
X204699759Y-120247910D01*
X204712476Y-120356729D01*
X204720436Y-120477820D01*
X204724501Y-120617717D01*
X204725535Y-120782956D01*
X204724560Y-120939273D01*
X204721463Y-121070367D01*
X204715435Y-121182508D01*
X204705669Y-121282185D01*
X204691355Y-121375887D01*
X204671686Y-121470104D01*
X204645854Y-121571323D01*
X204613050Y-121686035D01*
X204556209Y-121878234D01*
X204713890Y-122189243D01*
X204808137Y-122383722D01*
X204890245Y-122575341D01*
X204953602Y-122752979D01*
X204999743Y-122921543D01*
X205030206Y-123085937D01*
X205046528Y-123251069D01*
X205049649Y-123311229D01*
X205050545Y-123367565D01*
X205047036Y-123406179D01*
X205038242Y-123435055D01*
X205023285Y-123462175D01*
X205021764Y-123464511D01*
X204975057Y-123511472D01*
X204900334Y-123557200D01*
X204801342Y-123600278D01*
X204681827Y-123639288D01*
X204545536Y-123672813D01*
X204396216Y-123699434D01*
X204373655Y-123702640D01*
X204295749Y-123711757D01*
X204215555Y-123717553D01*
X204125679Y-123720292D01*
X204018724Y-123720240D01*
X203892983Y-123717774D01*
X203887295Y-123717662D01*
X203860025Y-123716920D01*
X203706368Y-123710596D01*
X203574685Y-123700383D01*
X203456454Y-123684946D01*
X203343151Y-123662949D01*
X203226254Y-123633059D01*
X203097240Y-123593941D01*
X202950780Y-123547025D01*
X202760075Y-123603729D01*
X202670608Y-123629942D01*
X202548742Y-123663579D01*
X202444476Y-123688781D01*
X202350149Y-123706943D01*
X202258100Y-123719464D01*
X202160667Y-123727739D01*
X202050188Y-123733167D01*
X202013840Y-123734425D01*
X201905216Y-123736342D01*
X201900480Y-123736426D01*
X201805478Y-123734168D01*
X201718376Y-123727202D01*
X201628716Y-123715080D01*
X201569935Y-123705556D01*
X201505182Y-123694339D01*
X201457050Y-123685151D01*
X201433024Y-123679361D01*
X201431549Y-123678850D01*
X201419306Y-123682982D01*
X201412989Y-123708478D01*
X201411195Y-123760555D01*
X201411195Y-123850125D01*
X201355283Y-123850125D01*
X201299371Y-123850125D01*
X201299371Y-123746614D01*
X201299371Y-123643102D01*
X201236108Y-123610828D01*
X201219439Y-123602677D01*
X201178115Y-123585426D01*
X201151539Y-123578553D01*
X201148064Y-123579710D01*
X201131247Y-123601950D01*
X201109731Y-123648552D01*
X201086012Y-123714339D01*
X201041792Y-123850125D01*
X200978883Y-123850125D01*
X200965497Y-123850012D01*
X200930151Y-123848304D01*
X200915975Y-123845196D01*
X200916936Y-123841579D01*
X200925961Y-123814828D01*
X200942451Y-123768244D01*
X200963899Y-123708950D01*
X200977042Y-123672372D01*
X200999345Y-123603149D01*
X201008699Y-123554574D01*
X201004937Y-123520542D01*
X200987891Y-123494946D01*
X200957395Y-123471678D01*
X200903362Y-123436690D01*
X200845343Y-123530689D01*
X200813881Y-123580389D01*
X200752078Y-123669521D01*
X200698814Y-123734087D01*
X200655479Y-123772506D01*
X200623464Y-123783195D01*
X200615847Y-123781803D01*
X200592517Y-123769089D01*
X200586784Y-123743559D01*
X200599419Y-123702330D01*
X200631195Y-123642517D01*
X200682884Y-123561237D01*
X200722670Y-123499755D01*
X200756692Y-123443705D01*
X200779712Y-123401730D01*
X200788176Y-123379951D01*
X200778379Y-123360602D01*
X200749632Y-123327646D01*
X200708568Y-123289681D01*
X200587749Y-123172514D01*
X200464011Y-123018904D01*
X200346621Y-122837670D01*
X200236805Y-122630918D01*
X200135787Y-122400751D01*
X200044792Y-122149273D01*
X200021001Y-122075731D01*
X199995655Y-121995210D01*
X199975535Y-121928803D01*
X199962268Y-121881907D01*
X199957484Y-121859921D01*
X199957517Y-121856059D01*
X199956608Y-121846178D01*
X199950141Y-121840624D01*
X199932912Y-121839499D01*
X199899717Y-121842907D01*
X199845349Y-121850949D01*
X199764606Y-121863728D01*
X199676455Y-121875021D01*
X199534444Y-121885699D01*
X199377599Y-121890698D01*
X199326478Y-121890509D01*
X199215186Y-121890099D01*
X199056477Y-121883978D01*
X198910738Y-121872415D01*
X198787240Y-121855486D01*
X198649766Y-121828412D01*
X198389483Y-121765819D01*
X198117008Y-121687284D01*
X198107958Y-121684283D01*
X197840384Y-121595552D01*
X197567653Y-121493362D01*
X197306857Y-121383459D01*
X197066037Y-121268584D01*
X196957362Y-121211714D01*
X196854864Y-121153743D01*
X196774370Y-121101868D01*
X196711705Y-121053116D01*
X196662695Y-121004514D01*
X196623166Y-120953087D01*
X196617201Y-120944012D01*
X196562858Y-120830956D01*
X196538345Y-120709340D01*
X196539899Y-120674225D01*
X196746758Y-120674225D01*
X196754643Y-120748469D01*
X196776425Y-120806918D01*
X196781921Y-120815566D01*
X196809254Y-120852180D01*
X196843457Y-120885818D01*
X196890008Y-120920688D01*
X196954388Y-120961000D01*
X197042075Y-121010963D01*
X197109466Y-121047662D01*
X197191538Y-121089978D01*
X197276913Y-121130954D01*
X197370960Y-121172973D01*
X197479047Y-121218420D01*
X197606545Y-121269676D01*
X197758822Y-121329126D01*
X197763712Y-121331016D01*
X197855636Y-121366553D01*
X197938974Y-121398781D01*
X198008422Y-121425647D01*
X198058677Y-121445100D01*
X198084434Y-121455088D01*
X198107958Y-121461112D01*
X198120377Y-121456311D01*
X198117887Y-121450011D01*
X198100487Y-121421870D01*
X198070118Y-121378053D01*
X198031097Y-121324914D01*
X198004232Y-121287872D01*
X197917783Y-121149932D01*
X197831735Y-120983536D01*
X197745168Y-120786953D01*
X197742203Y-120779737D01*
X197714482Y-120714260D01*
X197693480Y-120671993D01*
X197674807Y-120646884D01*
X197654070Y-120632881D01*
X197626877Y-120623930D01*
X197605578Y-120618469D01*
X197539277Y-120602709D01*
X197456536Y-120584251D01*
X197362652Y-120564152D01*
X197262919Y-120543470D01*
X197162631Y-120523262D01*
X197067082Y-120504588D01*
X196981569Y-120488504D01*
X196911384Y-120476067D01*
X196861824Y-120468337D01*
X196838181Y-120466370D01*
X196805364Y-120484305D01*
X196774521Y-120527358D01*
X196773033Y-120530413D01*
X196752858Y-120597201D01*
X196746758Y-120674225D01*
X196539899Y-120674225D01*
X196543956Y-120582555D01*
X196579984Y-120453996D01*
X196621100Y-120351222D01*
X196568711Y-120285076D01*
X196553334Y-120263966D01*
X196515722Y-120200622D01*
X196487222Y-120137515D01*
X196479707Y-120114459D01*
X196460613Y-119999936D01*
X196461126Y-119990520D01*
X196670426Y-119990520D01*
X196690569Y-120072075D01*
X196693359Y-120079558D01*
X196738113Y-120151455D01*
X196808021Y-120209054D01*
X196898302Y-120248299D01*
X196902499Y-120249482D01*
X196941391Y-120259522D01*
X197006734Y-120275602D01*
X197094615Y-120296791D01*
X197201118Y-120322153D01*
X197322328Y-120350756D01*
X197454330Y-120381667D01*
X197593207Y-120413953D01*
X197766211Y-120454217D01*
X197916380Y-120489746D01*
X198040488Y-120520011D01*
X198141143Y-120545839D01*
X198220953Y-120568053D01*
X198282527Y-120587479D01*
X198328473Y-120604941D01*
X198361399Y-120621264D01*
X198383913Y-120637273D01*
X198398623Y-120653792D01*
X198408137Y-120671646D01*
X198413219Y-120684651D01*
X198419596Y-120718236D01*
X198407912Y-120743033D01*
X198390030Y-120756783D01*
X198360820Y-120764150D01*
X198316794Y-120764222D01*
X198253952Y-120756712D01*
X198168295Y-120741335D01*
X198055823Y-120717802D01*
X198021935Y-120710522D01*
X197945402Y-120694875D01*
X197882878Y-120683207D01*
X197840078Y-120676545D01*
X197822721Y-120675916D01*
X197825847Y-120692321D01*
X197839846Y-120731937D01*
X197862468Y-120788781D01*
X197891449Y-120856887D01*
X197910419Y-120898906D01*
X197985365Y-121044713D01*
X198068902Y-121180277D01*
X198157776Y-121301444D01*
X198248735Y-121404059D01*
X198338527Y-121483969D01*
X198423899Y-121537017D01*
X198465933Y-121555100D01*
X198598408Y-121598384D01*
X198755452Y-121633276D01*
X198932314Y-121659023D01*
X199124240Y-121674872D01*
X199326478Y-121680069D01*
X199399969Y-121678849D01*
X199492715Y-121675004D01*
X199587986Y-121669059D01*
X199680041Y-121661548D01*
X199763137Y-121653007D01*
X199831530Y-121643970D01*
X199879478Y-121634972D01*
X199901239Y-121626548D01*
X199901302Y-121626446D01*
X199900439Y-121608610D01*
X199895374Y-121565735D01*
X199886916Y-121504089D01*
X199875872Y-121429937D01*
X199847297Y-121212189D01*
X199828839Y-120938430D01*
X200041558Y-120938430D01*
X200043094Y-121013265D01*
X200046716Y-121062515D01*
X200048530Y-121076348D01*
X200054443Y-121124675D01*
X200062106Y-121189990D01*
X200070327Y-121262201D01*
X200081915Y-121352912D01*
X200125347Y-121596500D01*
X200186196Y-121847518D01*
X200261635Y-122096268D01*
X200348840Y-122333053D01*
X200444986Y-122548176D01*
X200520352Y-122688750D01*
X200652066Y-122888925D01*
X200799009Y-123061177D01*
X200961677Y-123205864D01*
X201140566Y-123323346D01*
X201336170Y-123413983D01*
X201548986Y-123478134D01*
X201779510Y-123516159D01*
X201905216Y-123524280D01*
X202120064Y-123518607D01*
X202345807Y-123491292D01*
X202576333Y-123443933D01*
X202796129Y-123380829D01*
X203152453Y-123380829D01*
X203158253Y-123386086D01*
X203189395Y-123398645D01*
X203242243Y-123414890D01*
X203310855Y-123433262D01*
X203389284Y-123452203D01*
X203471589Y-123470153D01*
X203551824Y-123485554D01*
X203572346Y-123488805D01*
X203660313Y-123497899D01*
X203769729Y-123503866D01*
X203892983Y-123506774D01*
X204022462Y-123506688D01*
X204150553Y-123503674D01*
X204269643Y-123497800D01*
X204372119Y-123489130D01*
X204450370Y-123477732D01*
X204512518Y-123464749D01*
X204633355Y-123435383D01*
X204724692Y-123406541D01*
X204785722Y-123378500D01*
X204815637Y-123351540D01*
X204821460Y-123337309D01*
X204829346Y-123279237D01*
X204825461Y-123197741D01*
X204810675Y-123097084D01*
X204785859Y-122981530D01*
X204751882Y-122855341D01*
X204709613Y-122722781D01*
X204659922Y-122588113D01*
X204629726Y-122515954D01*
X204592596Y-122434318D01*
X204552382Y-122351246D01*
X204511768Y-122271841D01*
X204473443Y-122201202D01*
X204440092Y-122144431D01*
X204414403Y-122106627D01*
X204399063Y-122092893D01*
X204392865Y-122098608D01*
X204372594Y-122126815D01*
X204342220Y-122173595D01*
X204305081Y-122233337D01*
X204264519Y-122300427D01*
X204223873Y-122369253D01*
X204186484Y-122434200D01*
X204155692Y-122489656D01*
X204134837Y-122530009D01*
X204127259Y-122549644D01*
X204132113Y-122558309D01*
X204156745Y-122582239D01*
X204195152Y-122611958D01*
X204289055Y-122685166D01*
X204380723Y-122769726D01*
X204464673Y-122859805D01*
X204537909Y-122951319D01*
X204597432Y-123040187D01*
X204640245Y-123122325D01*
X204663350Y-123193652D01*
X204663749Y-123250085D01*
X204654772Y-123272284D01*
X204626475Y-123301173D01*
X204577679Y-123323355D01*
X204504593Y-123340339D01*
X204403424Y-123353633D01*
X204345851Y-123358606D01*
X204229946Y-123360020D01*
X204171707Y-123360730D01*
X204001934Y-123341368D01*
X203828564Y-123299255D01*
X203643624Y-123233128D01*
X203503789Y-123176324D01*
X203328121Y-123275062D01*
X203319799Y-123279747D01*
X203254504Y-123317091D01*
X203201328Y-123348505D01*
X203165551Y-123370810D01*
X203152453Y-123380829D01*
X202796129Y-123380829D01*
X202805530Y-123378130D01*
X203027286Y-123295482D01*
X203235488Y-123197586D01*
X203401389Y-123099433D01*
X203617240Y-123099433D01*
X203682703Y-123132829D01*
X203694245Y-123138438D01*
X203769340Y-123167304D01*
X203865127Y-123195199D01*
X203972237Y-123219911D01*
X204081301Y-123239229D01*
X204182950Y-123250940D01*
X204229946Y-123253352D01*
X204311553Y-123253185D01*
X204391404Y-123248487D01*
X204461962Y-123240014D01*
X204515685Y-123228517D01*
X204545034Y-123214752D01*
X204545190Y-123214593D01*
X204548610Y-123189409D01*
X204531953Y-123146741D01*
X204498573Y-123090741D01*
X204451825Y-123025560D01*
X204395065Y-122955351D01*
X204331646Y-122884266D01*
X204264925Y-122816457D01*
X204198254Y-122756075D01*
X204134991Y-122707273D01*
X204045081Y-122645350D01*
X204003789Y-122700599D01*
X203995976Y-122710428D01*
X203962377Y-122748633D01*
X203913294Y-122801319D01*
X203854025Y-122862863D01*
X203789868Y-122927641D01*
X203617240Y-123099433D01*
X203401389Y-123099433D01*
X203424025Y-123086041D01*
X203432542Y-123080285D01*
X203523059Y-123011976D01*
X203623771Y-122925405D01*
X203727336Y-122827757D01*
X203826414Y-122726215D01*
X203913665Y-122627964D01*
X203981747Y-122540188D01*
X204022819Y-122479990D01*
X204074881Y-122398826D01*
X204117432Y-122326646D01*
X204148159Y-122267667D01*
X204164750Y-122226110D01*
X204164889Y-122206192D01*
X204147772Y-122200076D01*
X204120141Y-122193905D01*
X204104727Y-122190463D01*
X204043142Y-122179245D01*
X203969953Y-122167789D01*
X203908887Y-122157631D01*
X203775788Y-122123445D01*
X203671354Y-122076515D01*
X203594945Y-122016393D01*
X203545917Y-121942626D01*
X203523628Y-121854765D01*
X203521612Y-121816173D01*
X203632232Y-121816173D01*
X203640070Y-121878533D01*
X203679453Y-121936180D01*
X203750431Y-121989269D01*
X203786492Y-122007412D01*
X203861634Y-122034366D01*
X203947718Y-122055708D01*
X204036602Y-122070239D01*
X204120141Y-122076764D01*
X204190195Y-122074086D01*
X204238620Y-122061008D01*
X204252622Y-122048221D01*
X204277084Y-122010746D01*
X204299660Y-121961166D01*
X204299813Y-121960755D01*
X204321598Y-121898938D01*
X204345608Y-121825342D01*
X204370116Y-121745989D01*
X204393393Y-121666904D01*
X204413707Y-121594109D01*
X204429332Y-121533629D01*
X204438538Y-121491486D01*
X204439595Y-121473704D01*
X204427886Y-121471757D01*
X204389755Y-121472355D01*
X204332236Y-121476203D01*
X204262327Y-121482937D01*
X204202153Y-121490618D01*
X204056320Y-121519138D01*
X203925903Y-121559016D01*
X203814952Y-121608570D01*
X203727515Y-121666117D01*
X203667641Y-121729975D01*
X203655889Y-121748942D01*
X203632232Y-121816173D01*
X203521612Y-121816173D01*
X203520500Y-121794896D01*
X203528802Y-121733132D01*
X203555109Y-121678759D01*
X203603698Y-121619200D01*
X203664825Y-121563478D01*
X203777888Y-121493895D01*
X203919174Y-121438054D01*
X204088236Y-121396117D01*
X204284631Y-121368250D01*
X204468372Y-121350063D01*
X204482267Y-121296393D01*
X204483682Y-121290691D01*
X204489684Y-121253776D01*
X204487451Y-121234013D01*
X204476657Y-121232740D01*
X204439696Y-121235588D01*
X204383424Y-121242990D01*
X204314811Y-121254133D01*
X204156561Y-121275504D01*
X203995225Y-121283161D01*
X203985939Y-121282656D01*
X203847964Y-121275155D01*
X203719520Y-121251764D01*
X203614633Y-121213265D01*
X203562833Y-121180217D01*
X203502412Y-121122906D01*
X203456400Y-121057739D01*
X203432601Y-120994112D01*
X203430320Y-120977900D01*
X203433139Y-120925147D01*
X203539391Y-120925147D01*
X203541793Y-120956681D01*
X203559236Y-121001589D01*
X203573218Y-121026047D01*
X203622848Y-121076572D01*
X203692884Y-121120154D01*
X203775471Y-121151355D01*
X203814331Y-121159193D01*
X203892559Y-121166636D01*
X203985939Y-121168611D01*
X204087750Y-121165645D01*
X204191268Y-121158269D01*
X204289773Y-121147012D01*
X204376542Y-121132403D01*
X204444854Y-121114971D01*
X204487986Y-121095246D01*
X204490879Y-121092932D01*
X204501657Y-121078174D01*
X204509502Y-121052315D01*
X204515182Y-121010144D01*
X204519461Y-120946448D01*
X204523103Y-120856016D01*
X204523297Y-120850221D01*
X204525454Y-120751870D01*
X204524330Y-120682318D01*
X204519789Y-120638711D01*
X204511694Y-120618197D01*
X204498929Y-120612266D01*
X204456998Y-120605664D01*
X204394172Y-120602265D01*
X204317094Y-120601932D01*
X204232406Y-120604532D01*
X204146753Y-120609931D01*
X204066776Y-120617993D01*
X203999119Y-120628584D01*
X203947501Y-120640195D01*
X203821814Y-120680721D01*
X203713362Y-120733848D01*
X203626937Y-120796926D01*
X203567330Y-120867307D01*
X203552951Y-120891701D01*
X203539391Y-120925147D01*
X203433139Y-120925147D01*
X203435225Y-120886121D01*
X203469957Y-120799882D01*
X203532876Y-120720855D01*
X203622344Y-120650711D01*
X203736721Y-120591122D01*
X203874367Y-120543758D01*
X203972830Y-120521488D01*
X204089029Y-120503229D01*
X204208243Y-120491085D01*
X204319298Y-120486182D01*
X204411021Y-120489648D01*
X204513931Y-120500191D01*
X204502968Y-120429907D01*
X204499753Y-120409417D01*
X204489991Y-120358201D01*
X204476348Y-120323939D01*
X204453210Y-120303193D01*
X204414963Y-120292525D01*
X204406545Y-120291950D01*
X204355995Y-120288499D01*
X204270692Y-120287676D01*
X204157609Y-120282172D01*
X204007675Y-120257550D01*
X203874097Y-120214495D01*
X203760975Y-120154439D01*
X203672405Y-120078811D01*
X203664808Y-120070161D01*
X203610288Y-119984693D01*
X203586249Y-119894363D01*
X203588455Y-119862080D01*
X203698804Y-119862080D01*
X203701327Y-119899525D01*
X203718256Y-119945517D01*
X203729019Y-119966202D01*
X203780806Y-120026649D01*
X203857759Y-120081375D01*
X203954790Y-120126488D01*
X203963951Y-120129810D01*
X204019939Y-120146654D01*
X204081978Y-120158421D01*
X204158693Y-120166398D01*
X204258710Y-120171875D01*
X204270892Y-120172352D01*
X204345706Y-120174461D01*
X204406545Y-120174794D01*
X204447432Y-120173395D01*
X204462390Y-120170311D01*
X204462389Y-120170197D01*
X204458041Y-120148319D01*
X204446531Y-120102658D01*
X204429748Y-120039963D01*
X204421400Y-120009756D01*
X204409579Y-119966982D01*
X204387912Y-119890462D01*
X204366635Y-119817151D01*
X204347636Y-119753798D01*
X204332803Y-119707150D01*
X204324965Y-119683943D01*
X204303111Y-119625526D01*
X204281628Y-119590689D01*
X204253120Y-119574247D01*
X204210191Y-119571016D01*
X204145445Y-119575810D01*
X204097538Y-119581177D01*
X203967253Y-119608501D01*
X203861235Y-119651808D01*
X203781017Y-119710335D01*
X203728132Y-119783320D01*
X203711512Y-119819621D01*
X203698804Y-119862080D01*
X203588455Y-119862080D01*
X203592505Y-119802818D01*
X203628870Y-119713708D01*
X203695159Y-119630682D01*
X203748722Y-119585628D01*
X203840828Y-119532869D01*
X203953249Y-119494365D01*
X204090975Y-119468065D01*
X204113122Y-119464841D01*
X204169121Y-119454831D01*
X204208127Y-119445045D01*
X204222767Y-119437210D01*
X204221469Y-119431575D01*
X204208967Y-119401150D01*
X204185980Y-119352274D01*
X204155949Y-119291691D01*
X204122312Y-119226149D01*
X204088508Y-119162393D01*
X204067636Y-119124640D01*
X204057978Y-119107171D01*
X204034158Y-119067228D01*
X204004246Y-119021740D01*
X203862026Y-118831764D01*
X203710641Y-118670637D01*
X203550916Y-118539157D01*
X203427878Y-118464825D01*
X203648050Y-118464825D01*
X203652555Y-118471530D01*
X203676390Y-118493381D01*
X203713791Y-118522515D01*
X203720882Y-118527860D01*
X203774564Y-118574245D01*
X203838693Y-118637091D01*
X203905806Y-118708503D01*
X203968439Y-118780587D01*
X204019128Y-118845450D01*
X204067636Y-118912787D01*
X204114397Y-118879490D01*
X204164456Y-118841296D01*
X204271990Y-118743387D01*
X204373606Y-118630937D01*
X204461501Y-118513017D01*
X204527872Y-118398703D01*
X204538861Y-118375196D01*
X204551881Y-118338449D01*
X204550398Y-118312990D01*
X204530927Y-118296792D01*
X204489983Y-118287829D01*
X204424081Y-118284074D01*
X204329734Y-118283502D01*
X204237518Y-118285785D01*
X204122148Y-118296689D01*
X204012337Y-118318670D01*
X203897430Y-118354029D01*
X203766768Y-118405066D01*
X203749534Y-118412405D01*
X203697677Y-118435926D01*
X203661525Y-118454569D01*
X203648050Y-118464825D01*
X203427878Y-118464825D01*
X203383674Y-118438120D01*
X203320406Y-118409433D01*
X203205885Y-118366698D01*
X203073093Y-118325528D01*
X202930113Y-118288359D01*
X202785031Y-118257629D01*
X202780255Y-118256749D01*
X202654504Y-118238506D01*
X202516630Y-118225718D01*
X203200377Y-118225718D01*
X203211580Y-118235150D01*
X203245453Y-118254791D01*
X203295058Y-118280818D01*
X203353332Y-118309802D01*
X203413216Y-118338314D01*
X203467648Y-118362925D01*
X203509568Y-118380207D01*
X203531915Y-118386729D01*
X203543950Y-118383292D01*
X203580632Y-118368570D01*
X203634382Y-118344923D01*
X203698411Y-118315264D01*
X203848725Y-118251759D01*
X204002135Y-118206102D01*
X204160136Y-118180570D01*
X204334591Y-118172503D01*
X204446859Y-118174799D01*
X204537925Y-118183745D01*
X204602472Y-118201184D01*
X204643100Y-118228945D01*
X204662406Y-118268854D01*
X204662991Y-118322739D01*
X204647454Y-118392425D01*
X204639099Y-118418104D01*
X204590262Y-118521623D01*
X204515776Y-118633851D01*
X204418303Y-118751126D01*
X204300508Y-118869780D01*
X204139598Y-119019362D01*
X204270810Y-119262655D01*
X204274096Y-119268743D01*
X204324595Y-119360526D01*
X204362959Y-119426092D01*
X204390804Y-119467878D01*
X204409745Y-119488324D01*
X204421400Y-119489867D01*
X204427179Y-119483824D01*
X204450300Y-119449545D01*
X204481740Y-119394059D01*
X204518512Y-119323400D01*
X204557627Y-119243604D01*
X204596096Y-119160707D01*
X204630931Y-119080743D01*
X204659143Y-119009748D01*
X204684896Y-118937628D01*
X204737876Y-118764937D01*
X204779750Y-118585806D01*
X204813642Y-118387667D01*
X204821816Y-118328924D01*
X204830674Y-118246183D01*
X204831848Y-118186909D01*
X204824832Y-118146154D01*
X204809117Y-118118974D01*
X204784198Y-118100419D01*
X204769309Y-118093556D01*
X204706325Y-118075067D01*
X204619019Y-118059301D01*
X204513015Y-118046549D01*
X204393941Y-118037101D01*
X204267423Y-118031247D01*
X204139087Y-118029279D01*
X204014560Y-118031485D01*
X203899466Y-118038158D01*
X203799434Y-118049587D01*
X203762766Y-118055622D01*
X203642641Y-118079702D01*
X203515569Y-118110460D01*
X203394462Y-118144604D01*
X203292232Y-118178845D01*
X203249851Y-118196153D01*
X203214112Y-118214055D01*
X203200377Y-118225718D01*
X202516630Y-118225718D01*
X202507865Y-118224905D01*
X202349054Y-118216149D01*
X202186786Y-118212443D01*
X202029778Y-118213994D01*
X201886743Y-118221005D01*
X201766399Y-118233681D01*
X201655137Y-118252248D01*
X201434404Y-118304966D01*
X201236009Y-118376509D01*
X201056491Y-118468520D01*
X200892392Y-118582638D01*
X200740251Y-118720507D01*
X200726415Y-118734760D01*
X200567841Y-118920705D01*
X200430030Y-119127449D01*
X200312494Y-119356066D01*
X200214748Y-119607630D01*
X200136304Y-119883217D01*
X200125900Y-119935679D01*
X200076674Y-120183899D01*
X200071193Y-120226091D01*
X200064132Y-120304065D01*
X200057657Y-120400441D01*
X200051981Y-120508936D01*
X200047319Y-120623266D01*
X200043885Y-120737147D01*
X200041893Y-120844297D01*
X200041558Y-120938430D01*
X199828839Y-120938430D01*
X199822546Y-120845093D01*
X199828556Y-120485586D01*
X199865398Y-120132760D01*
X199933145Y-119785706D01*
X200031866Y-119443516D01*
X200041338Y-119415155D01*
X200065211Y-119342028D01*
X200083802Y-119282636D01*
X200095421Y-119242476D01*
X200098379Y-119227046D01*
X200097487Y-119226652D01*
X200076122Y-119219585D01*
X200031105Y-119205499D01*
X199968304Y-119186214D01*
X199893585Y-119163549D01*
X199831636Y-119144526D01*
X199721802Y-119108212D01*
X199635447Y-119074976D01*
X199567295Y-119042437D01*
X199512069Y-119008213D01*
X199464493Y-118969924D01*
X199458706Y-118964593D01*
X199402107Y-118893975D01*
X199376587Y-118817106D01*
X199379231Y-118773241D01*
X199489227Y-118773241D01*
X199495669Y-118829509D01*
X199502696Y-118843602D01*
X199542907Y-118886207D01*
X199610280Y-118930787D01*
X199701480Y-118975628D01*
X199813175Y-119019013D01*
X199942029Y-119059227D01*
X200008168Y-119077097D01*
X200067533Y-119091899D01*
X200108890Y-119100780D01*
X200125900Y-119102255D01*
X200129329Y-119094234D01*
X200137976Y-119060723D01*
X200149019Y-119009117D01*
X200160949Y-118947641D01*
X200172256Y-118884518D01*
X200181430Y-118827971D01*
X200186963Y-118786225D01*
X200187344Y-118767502D01*
X200173457Y-118760945D01*
X200134084Y-118748501D01*
X200075846Y-118732520D01*
X200005258Y-118714885D01*
X199959652Y-118704652D01*
X199848135Y-118685131D01*
X199744171Y-118674307D01*
X199653490Y-118672407D01*
X199581821Y-118679656D01*
X199534896Y-118696282D01*
X199508354Y-118722338D01*
X199489227Y-118773241D01*
X199379231Y-118773241D01*
X199381678Y-118732638D01*
X199396157Y-118688729D01*
X199438787Y-118628099D01*
X199504438Y-118586117D01*
X199593793Y-118562641D01*
X199707536Y-118557527D01*
X199846351Y-118570635D01*
X200010922Y-118601822D01*
X200014058Y-118602530D01*
X200086845Y-118618469D01*
X200147056Y-118630738D01*
X200188512Y-118638140D01*
X200205035Y-118639475D01*
X200206203Y-118636917D01*
X200210880Y-118611892D01*
X200215496Y-118570440D01*
X200221069Y-118506541D01*
X200031312Y-118503129D01*
X200021799Y-118502940D01*
X199824740Y-118490061D01*
X199647440Y-118460866D01*
X199492173Y-118416003D01*
X199361212Y-118356123D01*
X199256832Y-118281874D01*
X199208791Y-118234424D01*
X199166200Y-118174093D01*
X199146607Y-118111143D01*
X199146281Y-118052052D01*
X199253611Y-118052052D01*
X199266165Y-118112515D01*
X199310314Y-118176744D01*
X199361679Y-118222314D01*
X199455284Y-118276565D01*
X199573468Y-118321596D01*
X199712485Y-118356307D01*
X199868591Y-118379600D01*
X200038039Y-118390374D01*
X200221069Y-118394717D01*
X200221069Y-118173620D01*
X200221073Y-118152386D01*
X200220280Y-118060447D01*
X200215194Y-117994256D01*
X200201812Y-117948622D01*
X200176129Y-117918353D01*
X200134142Y-117898258D01*
X200071847Y-117883145D01*
X199985241Y-117867823D01*
X199955163Y-117862998D01*
X199817446Y-117849013D01*
X199684308Y-117847950D01*
X199560937Y-117859118D01*
X199452520Y-117881825D01*
X199364244Y-117915377D01*
X199301297Y-117959084D01*
X199272621Y-117994593D01*
X199253611Y-118052052D01*
X199146281Y-118052052D01*
X199146199Y-118037139D01*
X199153884Y-117992462D01*
X199189285Y-117913074D01*
X199251990Y-117847416D01*
X199342835Y-117794738D01*
X199462658Y-117754294D01*
X199501682Y-117746638D01*
X199586394Y-117738189D01*
X199688299Y-117734866D01*
X199798484Y-117736464D01*
X199908036Y-117742778D01*
X200008041Y-117753602D01*
X200089585Y-117768731D01*
X200131372Y-117777902D01*
X200170163Y-117783424D01*
X200187269Y-117781654D01*
X200188102Y-117775526D01*
X200184524Y-117745056D01*
X200174979Y-117700507D01*
X200157170Y-117629317D01*
X200119078Y-117620652D01*
X199932768Y-117578270D01*
X199833414Y-117554995D01*
X199743909Y-117531705D01*
X199673182Y-117509542D01*
X199614487Y-117486093D01*
X199561079Y-117458946D01*
X199506210Y-117425686D01*
X199502714Y-117423424D01*
X199421207Y-117356131D01*
X199368465Y-117280365D01*
X199345527Y-117198260D01*
X199347441Y-117177361D01*
X199462772Y-117177361D01*
X199463400Y-117194635D01*
X199475454Y-117239869D01*
X199505958Y-117280375D01*
X199559035Y-117320540D01*
X199638805Y-117364752D01*
X199659546Y-117374648D01*
X199723461Y-117400574D01*
X199797566Y-117425846D01*
X199876093Y-117449059D01*
X199953275Y-117468809D01*
X200023344Y-117483692D01*
X200080535Y-117492305D01*
X200119078Y-117493243D01*
X200133207Y-117485103D01*
X200131339Y-117474050D01*
X200119161Y-117435109D01*
X200098156Y-117378347D01*
X200071270Y-117311038D01*
X200057623Y-117278738D01*
X200041449Y-117240458D01*
X200011638Y-117173879D01*
X199984784Y-117118577D01*
X199919741Y-116992625D01*
X199754709Y-117001048D01*
X199699286Y-117004620D01*
X199618978Y-117014657D01*
X199560442Y-117031054D01*
X199517193Y-117055971D01*
X199482740Y-117091567D01*
X199480403Y-117095022D01*
X199468068Y-117130628D01*
X199462772Y-117177361D01*
X199347441Y-117177361D01*
X199353433Y-117111949D01*
X199358407Y-117095655D01*
X199401292Y-117018640D01*
X199471796Y-116957184D01*
X199569533Y-116911545D01*
X199694119Y-116881983D01*
X199814784Y-116863224D01*
X199734088Y-116781512D01*
X199646935Y-116704316D01*
X199531765Y-116628793D01*
X199396718Y-116565502D01*
X199238033Y-116512718D01*
X199198690Y-116503415D01*
X199750317Y-116503415D01*
X199759915Y-116515164D01*
X199788659Y-116543701D01*
X199831439Y-116584088D01*
X199883081Y-116631569D01*
X199938408Y-116681390D01*
X199992245Y-116728795D01*
X200039416Y-116769028D01*
X200042763Y-116771568D01*
X200057623Y-116776597D01*
X200079025Y-116772158D01*
X200111833Y-116755974D01*
X200160908Y-116725768D01*
X200231114Y-116679261D01*
X200273015Y-116650157D01*
X200364903Y-116581934D01*
X200466546Y-116501989D01*
X200570742Y-116416306D01*
X200670286Y-116330869D01*
X200757975Y-116251659D01*
X200826606Y-116184661D01*
X200888998Y-116119849D01*
X200843164Y-116059170D01*
X200808785Y-116015883D01*
X200726686Y-115923337D01*
X200634246Y-115830094D01*
X200542273Y-115747357D01*
X200448132Y-115668581D01*
X200377118Y-115793599D01*
X200357643Y-115827557D01*
X200255998Y-115993091D01*
X200157597Y-116131968D01*
X200059270Y-116247998D01*
X199957848Y-116344988D01*
X199850160Y-116426749D01*
X199841714Y-116432476D01*
X199795524Y-116465127D01*
X199762853Y-116490467D01*
X199750317Y-116503415D01*
X199198690Y-116503415D01*
X199051948Y-116468717D01*
X198940552Y-116450804D01*
X198795866Y-116435929D01*
X198639106Y-116426723D01*
X198480529Y-116423568D01*
X198330395Y-116426845D01*
X198198963Y-116436937D01*
X198069049Y-116454505D01*
X197873260Y-116490561D01*
X197681140Y-116536811D01*
X197496220Y-116591832D01*
X197322032Y-116654201D01*
X197162110Y-116722494D01*
X197019986Y-116795289D01*
X196899192Y-116871162D01*
X196803261Y-116948691D01*
X196735725Y-117026452D01*
X196710129Y-117073804D01*
X196687983Y-117162556D01*
X196692573Y-117254078D01*
X196723035Y-117340525D01*
X196778501Y-117414049D01*
X196784462Y-117419581D01*
X196808129Y-117438566D01*
X196837887Y-117456962D01*
X196877796Y-117476481D01*
X196931916Y-117498830D01*
X197004306Y-117525720D01*
X197099029Y-117558858D01*
X197220143Y-117599954D01*
X197293257Y-117624558D01*
X197473700Y-117685387D01*
X197626815Y-117737325D01*
X197754775Y-117781293D01*
X197859753Y-117818214D01*
X197943923Y-117849010D01*
X198009457Y-117874603D01*
X198058530Y-117895914D01*
X198093313Y-117913865D01*
X198115980Y-117929379D01*
X198128705Y-117943378D01*
X198133660Y-117956782D01*
X198133019Y-117970515D01*
X198128955Y-117985498D01*
X198110286Y-118020105D01*
X198077306Y-118038615D01*
X198025568Y-118040627D01*
X197950139Y-118027294D01*
X197897781Y-118017005D01*
X197851806Y-118012544D01*
X197828971Y-118016776D01*
X197827032Y-118019470D01*
X197815960Y-118048293D01*
X197800883Y-118101347D01*
X197783131Y-118172834D01*
X197764034Y-118256953D01*
X197744921Y-118347903D01*
X197727122Y-118439885D01*
X197711967Y-118527099D01*
X197707701Y-118555917D01*
X197699079Y-118627645D01*
X197690774Y-118712539D01*
X197683133Y-118804979D01*
X197676499Y-118899344D01*
X197671217Y-118990013D01*
X197667631Y-119071365D01*
X197666088Y-119137778D01*
X197666930Y-119183633D01*
X197670503Y-119203306D01*
X197674540Y-119204823D01*
X197703952Y-119206273D01*
X197754064Y-119204087D01*
X197816855Y-119198529D01*
X197823117Y-119197872D01*
X197910996Y-119192006D01*
X197996334Y-119191809D01*
X198071836Y-119196819D01*
X198130206Y-119206572D01*
X198164150Y-119220604D01*
X198176155Y-119236876D01*
X198184009Y-119275958D01*
X198177071Y-119316369D01*
X198156320Y-119342816D01*
X198155377Y-119343265D01*
X198128847Y-119350715D01*
X198076602Y-119361964D01*
X198004009Y-119375973D01*
X197916435Y-119391703D01*
X197819248Y-119408112D01*
X197771700Y-119416013D01*
X197541108Y-119458282D01*
X197340914Y-119502339D01*
X197169835Y-119548674D01*
X197026587Y-119597774D01*
X196909888Y-119650128D01*
X196818452Y-119706224D01*
X196750996Y-119766550D01*
X196706238Y-119831595D01*
X196702342Y-119839513D01*
X196674064Y-119917391D01*
X196670426Y-119990520D01*
X196461126Y-119990520D01*
X196467081Y-119881250D01*
X196497291Y-119765989D01*
X196549428Y-119661746D01*
X196621672Y-119576108D01*
X196626832Y-119571544D01*
X196700863Y-119518650D01*
X196800411Y-119464569D01*
X196919795Y-119411832D01*
X197053331Y-119362971D01*
X197195339Y-119320519D01*
X197214841Y-119315347D01*
X197310255Y-119290245D01*
X197379859Y-119270825D01*
X197427688Y-119253940D01*
X197457775Y-119236445D01*
X197474154Y-119215194D01*
X197480860Y-119187042D01*
X197481925Y-119148843D01*
X197481383Y-119097451D01*
X197481332Y-119082597D01*
X197478840Y-119012504D01*
X197472329Y-118970979D01*
X197461415Y-118955301D01*
X197456595Y-118954228D01*
X197448583Y-118952444D01*
X197407729Y-118944167D01*
X197345218Y-118931884D01*
X197266708Y-118916705D01*
X197177861Y-118899737D01*
X197026427Y-118867574D01*
X196901299Y-118832476D01*
X196801160Y-118792791D01*
X196722509Y-118746450D01*
X196661845Y-118691383D01*
X196615667Y-118625524D01*
X196580473Y-118546803D01*
X196575480Y-118531575D01*
X196559185Y-118439999D01*
X196558661Y-118375632D01*
X196762893Y-118375632D01*
X196771468Y-118450148D01*
X196793156Y-118508670D01*
X196821349Y-118547818D01*
X196863020Y-118584519D01*
X196920655Y-118614761D01*
X197002138Y-118643636D01*
X197013650Y-118647047D01*
X197064755Y-118660177D01*
X197130928Y-118675211D01*
X197205564Y-118690880D01*
X197282055Y-118705914D01*
X197353795Y-118719047D01*
X197414177Y-118729007D01*
X197456595Y-118734528D01*
X197474440Y-118734339D01*
X197475047Y-118732523D01*
X197480361Y-118707924D01*
X197490038Y-118658810D01*
X197503098Y-118590485D01*
X197518563Y-118508249D01*
X197535456Y-118417408D01*
X197552798Y-118323262D01*
X197569610Y-118231116D01*
X197584915Y-118146271D01*
X197597735Y-118074031D01*
X197607091Y-118019698D01*
X197612005Y-117988575D01*
X197612794Y-117973201D01*
X197604655Y-117954363D01*
X197579049Y-117938222D01*
X197529308Y-117919182D01*
X197524746Y-117917605D01*
X197468565Y-117901779D01*
X197415731Y-117896093D01*
X197360049Y-117901728D01*
X197295323Y-117919865D01*
X197215359Y-117951684D01*
X197113962Y-117998368D01*
X197074205Y-118017580D01*
X196974135Y-118069093D01*
X196899036Y-118114012D01*
X196844982Y-118155187D01*
X196808047Y-118195467D01*
X196784306Y-118237703D01*
X196767867Y-118298458D01*
X196762893Y-118375632D01*
X196558661Y-118375632D01*
X196558339Y-118336097D01*
X196572313Y-118232610D01*
X196600476Y-118142282D01*
X196637802Y-118077367D01*
X196709909Y-117994010D01*
X196803571Y-117916345D01*
X196913054Y-117849739D01*
X196934731Y-117838438D01*
X196985465Y-117810427D01*
X197020763Y-117788615D01*
X197034019Y-117776975D01*
X197026656Y-117770176D01*
X196996223Y-117755646D01*
X196950220Y-117738809D01*
X196911709Y-117725022D01*
X196841113Y-117696196D01*
X196775188Y-117665757D01*
X196686019Y-117613912D01*
X196595065Y-117536122D01*
X196531988Y-117444912D01*
X196495244Y-117337888D01*
X196483291Y-117212653D01*
X196483601Y-117187608D01*
X196497387Y-117061299D01*
X196533384Y-116950684D01*
X196594022Y-116851593D01*
X196681732Y-116759858D01*
X196798946Y-116671308D01*
X196806181Y-116666535D01*
X196929340Y-116594406D01*
X197076320Y-116522310D01*
X197239646Y-116453208D01*
X197411843Y-116390059D01*
X197585438Y-116335823D01*
X197752956Y-116293462D01*
X198017048Y-116245764D01*
X198306669Y-116216123D01*
X198591395Y-116210264D01*
X198866999Y-116228081D01*
X199129255Y-116269466D01*
X199373937Y-116334315D01*
X199499205Y-116375206D01*
X199582976Y-116334221D01*
X199671289Y-116283416D01*
X199774546Y-116208779D01*
X199872318Y-116123745D01*
X199953285Y-116037384D01*
X199955858Y-116034203D01*
X199989557Y-115988478D01*
X200034948Y-115921753D01*
X200088093Y-115840065D01*
X200145056Y-115749453D01*
X200201902Y-115655957D01*
X200247087Y-115580894D01*
X200252221Y-115572640D01*
X200516603Y-115572640D01*
X200524684Y-115584130D01*
X200552328Y-115609975D01*
X200592831Y-115642698D01*
X200600595Y-115648740D01*
X200659143Y-115699290D01*
X200728756Y-115765745D01*
X200801757Y-115840303D01*
X200870468Y-115915161D01*
X200927210Y-115982515D01*
X200977699Y-116046415D01*
X201050673Y-115975196D01*
X201085434Y-115939946D01*
X201113059Y-115909047D01*
X201123648Y-115893076D01*
X201117730Y-115880323D01*
X201097321Y-115845533D01*
X201065785Y-115794986D01*
X201026715Y-115734556D01*
X201000085Y-115696204D01*
X200952187Y-115633538D01*
X200897575Y-115567351D01*
X200840628Y-115502441D01*
X200785724Y-115443604D01*
X200737242Y-115395638D01*
X200699563Y-115363341D01*
X200677064Y-115351509D01*
X200674596Y-115352395D01*
X200655636Y-115370509D01*
X200625583Y-115407192D01*
X200589725Y-115456111D01*
X200580382Y-115469574D01*
X200547915Y-115518078D01*
X200525173Y-115554796D01*
X200516603Y-115572640D01*
X200252221Y-115572640D01*
X200330687Y-115446500D01*
X200406059Y-115332823D01*
X200459675Y-115258700D01*
X200742442Y-115258700D01*
X200743461Y-115259986D01*
X200760374Y-115277600D01*
X200794754Y-115312201D01*
X200842366Y-115359550D01*
X200898977Y-115415409D01*
X200947406Y-115464904D01*
X201021357Y-115546963D01*
X201087902Y-115628097D01*
X201138622Y-115698366D01*
X201223922Y-115829562D01*
X201295561Y-115778240D01*
X201324128Y-115756734D01*
X201358073Y-115727694D01*
X201374179Y-115708913D01*
X201375569Y-115689758D01*
X201364118Y-115642306D01*
X201338720Y-115576942D01*
X201302022Y-115498627D01*
X201256673Y-115412318D01*
X201205319Y-115322974D01*
X201150610Y-115235554D01*
X201095192Y-115155015D01*
X201041713Y-115086316D01*
X200986386Y-115020809D01*
X200863319Y-115137281D01*
X200823501Y-115175346D01*
X200780965Y-115217066D01*
X200752378Y-115246424D01*
X200742442Y-115258700D01*
X200459675Y-115258700D01*
X200477156Y-115234532D01*
X200547932Y-115146296D01*
X200622343Y-115062786D01*
X200704342Y-114978672D01*
X200735909Y-114950488D01*
X201076372Y-114950488D01*
X201078923Y-114956107D01*
X201096846Y-114980943D01*
X201126136Y-115016037D01*
X201177819Y-115080791D01*
X201243498Y-115175609D01*
X201309694Y-115282441D01*
X201370524Y-115391726D01*
X201420105Y-115493899D01*
X201442325Y-115542402D01*
X201468910Y-115594937D01*
X201489624Y-115629531D01*
X201501265Y-115640405D01*
X201518405Y-115632214D01*
X201649866Y-115575765D01*
X201771891Y-115537139D01*
X201897123Y-115513035D01*
X202038207Y-115500149D01*
X202095596Y-115496350D01*
X202154775Y-115490719D01*
X202195061Y-115484782D01*
X202209937Y-115479328D01*
X202207264Y-115466237D01*
X202197305Y-115427533D01*
X202181702Y-115370404D01*
X202162285Y-115301671D01*
X202146332Y-115248408D01*
X202115346Y-115153652D01*
X202079867Y-115053229D01*
X202041743Y-114951629D01*
X202002819Y-114853342D01*
X201964943Y-114762858D01*
X201929960Y-114684667D01*
X201899718Y-114623257D01*
X201876062Y-114583119D01*
X201860840Y-114568742D01*
X201852867Y-114570130D01*
X201818696Y-114579329D01*
X201765832Y-114595248D01*
X201701844Y-114615653D01*
X201530617Y-114681306D01*
X201352099Y-114768245D01*
X201185662Y-114867746D01*
X201168201Y-114879485D01*
X201121125Y-114912599D01*
X201088438Y-114937840D01*
X201076372Y-114950488D01*
X200735909Y-114950488D01*
X200889287Y-114813547D01*
X201113326Y-114653409D01*
X201306660Y-114546094D01*
X201990375Y-114546094D01*
X201994575Y-114564360D01*
X202007828Y-114597775D01*
X202031601Y-114650948D01*
X202067360Y-114728490D01*
X202090622Y-114780890D01*
X202132946Y-114884887D01*
X202176440Y-115000818D01*
X202218269Y-115120459D01*
X202255600Y-115235586D01*
X202285599Y-115337975D01*
X202305433Y-115419402D01*
X202314127Y-115460075D01*
X202323213Y-115497015D01*
X202328461Y-115511258D01*
X202343251Y-115514163D01*
X202383297Y-115522701D01*
X202442211Y-115535515D01*
X202513658Y-115551239D01*
X202581544Y-115565752D01*
X202641566Y-115577555D01*
X202683199Y-115584552D01*
X202700068Y-115585571D01*
X202701539Y-115580398D01*
X202700389Y-115549448D01*
X202694050Y-115497380D01*
X202683666Y-115431157D01*
X202670378Y-115357747D01*
X202655330Y-115284115D01*
X202639663Y-115217228D01*
X202628706Y-115176737D01*
X202600112Y-115084047D01*
X202565151Y-114982894D01*
X202526106Y-114878840D01*
X202485257Y-114777446D01*
X202444887Y-114684276D01*
X202407276Y-114604891D01*
X202374706Y-114544854D01*
X202349460Y-114509726D01*
X202349068Y-114509342D01*
X202332440Y-114500954D01*
X202302342Y-114498709D01*
X202252837Y-114502725D01*
X202177987Y-114513120D01*
X202139871Y-114518836D01*
X202077204Y-114527832D01*
X202029979Y-114534088D01*
X202006258Y-114536506D01*
X202003262Y-114536567D01*
X201993760Y-114538366D01*
X201990375Y-114546094D01*
X201306660Y-114546094D01*
X201353740Y-114519961D01*
X201432517Y-114487304D01*
X202482604Y-114487304D01*
X202487879Y-114502175D01*
X202503475Y-114540976D01*
X202526836Y-114597200D01*
X202555394Y-114664591D01*
X202584867Y-114735228D01*
X202643318Y-114886137D01*
X202694595Y-115033346D01*
X202736752Y-115170723D01*
X202767843Y-115292135D01*
X202785924Y-115391446D01*
X202793330Y-115450091D01*
X202802388Y-115517365D01*
X202810525Y-115561618D01*
X202819881Y-115588069D01*
X202832596Y-115601935D01*
X202850808Y-115608436D01*
X202876657Y-115612791D01*
X203002823Y-115621825D01*
X203146660Y-115610606D01*
X203294751Y-115580627D01*
X203438414Y-115534183D01*
X203568964Y-115473568D01*
X203677719Y-115401078D01*
X203731727Y-115356908D01*
X203401110Y-114815058D01*
X203377641Y-114776684D01*
X203306034Y-114660731D01*
X203239645Y-114554885D01*
X203180348Y-114462027D01*
X203130018Y-114385034D01*
X203090529Y-114326786D01*
X203063754Y-114290162D01*
X203051567Y-114278041D01*
X203033252Y-114283962D01*
X202989280Y-114298989D01*
X202925159Y-114321249D01*
X202846040Y-114348954D01*
X202757075Y-114380314D01*
X202672523Y-114410694D01*
X202596221Y-114439079D01*
X202535995Y-114462532D01*
X202496554Y-114479219D01*
X202482604Y-114487304D01*
X201432517Y-114487304D01*
X201608222Y-114414466D01*
X201874465Y-114338187D01*
X201881938Y-114336542D01*
X201941705Y-114324854D01*
X202021924Y-114310818D01*
X202113016Y-114296055D01*
X202205403Y-114282185D01*
X202257468Y-114274656D01*
X202360576Y-114259037D01*
X202441986Y-114245145D01*
X202508722Y-114231446D01*
X202567812Y-114216407D01*
X202603692Y-114205414D01*
X203169853Y-114205414D01*
X203169946Y-114205925D01*
X203179699Y-114225888D01*
X203204148Y-114269682D01*
X203241451Y-114334173D01*
X203289764Y-114416231D01*
X203347244Y-114512722D01*
X203412049Y-114620515D01*
X203482335Y-114736478D01*
X203487733Y-114745349D01*
X203558171Y-114861142D01*
X203623560Y-114968688D01*
X203681971Y-115064814D01*
X203731478Y-115146345D01*
X203770153Y-115210109D01*
X203796069Y-115252930D01*
X203807299Y-115271635D01*
X203819826Y-115283146D01*
X203839121Y-115276059D01*
X203872360Y-115247673D01*
X203885101Y-115235366D01*
X203943054Y-115172731D01*
X204006228Y-115096175D01*
X204067662Y-115014819D01*
X204120394Y-114937781D01*
X204157462Y-114874182D01*
X204215847Y-114734952D01*
X204252233Y-114592276D01*
X204263355Y-114456934D01*
X204250080Y-114331527D01*
X204213272Y-114218654D01*
X204153797Y-114120914D01*
X204072520Y-114040907D01*
X203970306Y-113981234D01*
X203848021Y-113944494D01*
X203740410Y-113938628D01*
X203619307Y-113956660D01*
X203491029Y-113996843D01*
X203361419Y-114057347D01*
X203236320Y-114136338D01*
X203211197Y-114156052D01*
X203181025Y-114185497D01*
X203169853Y-114205414D01*
X202603692Y-114205414D01*
X202626282Y-114198493D01*
X202691157Y-114176172D01*
X202732519Y-114160789D01*
X202858855Y-114104433D01*
X202986659Y-114032129D01*
X203124755Y-113939050D01*
X203248819Y-113849874D01*
X203725620Y-113849874D01*
X204202420Y-113849874D01*
X204277432Y-113930068D01*
G37*
D13*
X151461400Y-96695500D02*
X151461400Y-98323160D01*
X151461400Y-103576840D02*
X151461400Y-105204500D01*
X151461400Y-105204500D02*
X152481850Y-105204500D01*
X152481850Y-96695500D02*
X151461400Y-96695500D01*
X155627000Y-105204500D02*
X155627000Y-96695500D01*
D15*
X152031000Y-96060500D02*
G75*
G02*
X151269000Y-96060500I-381000J0D01*
G01*
X151269000Y-96060500D02*
G75*
G02*
X152031000Y-96060500I381000J0D01*
G01*
D11*
X151875000Y-68425000D02*
X151875000Y-68775000D01*
X151900000Y-68425000D02*
X156650000Y-68425000D01*
X151900000Y-70975000D02*
X151900000Y-71325000D01*
X151900000Y-71325000D02*
X156650000Y-71325000D01*
X154706800Y-70611600D02*
X154706800Y-69062200D01*
X156650000Y-70975000D02*
X156650000Y-71325000D01*
X156675000Y-68425000D02*
X156675000Y-68775000D01*
D12*
X154579800Y-69849600D02*
X153767000Y-70586200D01*
X153767000Y-69240000D01*
X154579800Y-69849600D01*
G36*
X154579800Y-69849600D02*
G01*
X153767000Y-70586200D01*
X153767000Y-69240000D01*
X154579800Y-69849600D01*
G37*
D14*
G36*
X202222429Y-56047972D02*
G01*
X202275309Y-56075653D01*
X202310903Y-56120944D01*
X202326203Y-56176383D01*
X202318202Y-56234507D01*
X202283891Y-56287853D01*
X202241443Y-56317629D01*
X202180872Y-56331669D01*
X202120378Y-56321208D01*
X202068497Y-56288080D01*
X202033766Y-56234119D01*
X202031280Y-56227158D01*
X202024983Y-56200156D01*
X202029062Y-56172904D01*
X202045094Y-56131055D01*
X202071889Y-56085419D01*
X202118597Y-56052632D01*
X202185176Y-56042929D01*
X202222429Y-56047972D01*
G37*
G36*
X202216028Y-59070717D02*
G01*
X202270874Y-59098394D01*
X202308074Y-59144372D01*
X202324929Y-59200438D01*
X202318736Y-59258385D01*
X202286795Y-59310003D01*
X202241833Y-59340017D01*
X202181190Y-59351561D01*
X202120340Y-59339634D01*
X202068220Y-59306235D01*
X202033766Y-59253364D01*
X202031279Y-59246475D01*
X202024989Y-59222250D01*
X202027614Y-59198271D01*
X202040191Y-59159414D01*
X202046124Y-59145210D01*
X202085376Y-59097609D01*
X202142084Y-59070561D01*
X202207443Y-59068834D01*
X202216028Y-59070717D01*
G37*
G36*
X200616947Y-59596801D02*
G01*
X200675547Y-59619883D01*
X200717774Y-59644527D01*
X200779800Y-59706252D01*
X200822849Y-59784406D01*
X200843027Y-59870815D01*
X200836437Y-59957309D01*
X200831527Y-59974143D01*
X200800365Y-60030367D01*
X200754266Y-60059347D01*
X200738739Y-60059456D01*
X200695056Y-60059761D01*
X200670300Y-60051268D01*
X200614396Y-60015284D01*
X200559293Y-59961494D01*
X200512795Y-59898206D01*
X200482708Y-59833728D01*
X200481441Y-59829571D01*
X200466905Y-59748145D01*
X200505225Y-59748145D01*
X200512709Y-59796912D01*
X200542913Y-59867271D01*
X200589951Y-59932961D01*
X200646976Y-59984959D01*
X200707143Y-60014245D01*
X200738739Y-60016735D01*
X200772375Y-60000317D01*
X200792041Y-59965029D01*
X200798489Y-59916332D01*
X200792470Y-59859684D01*
X200774736Y-59800547D01*
X200746038Y-59744381D01*
X200707129Y-59696646D01*
X200658759Y-59662802D01*
X200637317Y-59653125D01*
X200589856Y-59638887D01*
X200556695Y-59645069D01*
X200529742Y-59672265D01*
X200514248Y-59703450D01*
X200505225Y-59748145D01*
X200466905Y-59748145D01*
X200466379Y-59745198D01*
X200477444Y-59677593D01*
X200514941Y-59624780D01*
X200540498Y-59604561D01*
X200575206Y-59591594D01*
X200616947Y-59596801D01*
G37*
G36*
X200768940Y-55363300D02*
G01*
X200812853Y-55391861D01*
X200841304Y-55448250D01*
X200850243Y-55501877D01*
X200840250Y-55584823D01*
X200805266Y-55664467D01*
X200748785Y-55733753D01*
X200674297Y-55785625D01*
X200642568Y-55800857D01*
X200607217Y-55813692D01*
X200588349Y-55813400D01*
X200581665Y-55813296D01*
X200554740Y-55801117D01*
X200522722Y-55776206D01*
X200493359Y-55738416D01*
X200481667Y-55712185D01*
X200476219Y-55684717D01*
X200524096Y-55684717D01*
X200545717Y-55735345D01*
X200556710Y-55749078D01*
X200588349Y-55767985D01*
X200628633Y-55762177D01*
X200683168Y-55731496D01*
X200700142Y-55718706D01*
X200744643Y-55670866D01*
X200777905Y-55614014D01*
X200798900Y-55554116D01*
X200806600Y-55497141D01*
X200799977Y-55449056D01*
X200778005Y-55415829D01*
X200739655Y-55403427D01*
X200695909Y-55414089D01*
X200642070Y-55447096D01*
X200591917Y-55495370D01*
X200554507Y-55551660D01*
X200554407Y-55551866D01*
X200526902Y-55625435D01*
X200524096Y-55684717D01*
X200476219Y-55684717D01*
X200474595Y-55676528D01*
X200479992Y-55634443D01*
X200498193Y-55574582D01*
X200505493Y-55555760D01*
X200543199Y-55490352D01*
X200594135Y-55430952D01*
X200650451Y-55385638D01*
X200704300Y-55362485D01*
X200708292Y-55361773D01*
X200768940Y-55363300D01*
G37*
G36*
X200639487Y-57345480D02*
G01*
X200649506Y-57358738D01*
X200652545Y-57391503D01*
X200629774Y-57420890D01*
X200585076Y-57440148D01*
X200542410Y-57459368D01*
X200504166Y-57492673D01*
X200503284Y-57493806D01*
X200480471Y-57544452D01*
X200486080Y-57594409D01*
X200516917Y-57639006D01*
X200569790Y-57673578D01*
X200641506Y-57693456D01*
X200671575Y-57697130D01*
X200708197Y-57696261D01*
X200735996Y-57681585D01*
X200769409Y-57647969D01*
X200777932Y-57638890D01*
X200821345Y-57603006D01*
X200860747Y-57593437D01*
X200904016Y-57607833D01*
X200926645Y-57629175D01*
X200949962Y-57676003D01*
X200962903Y-57733360D01*
X200961662Y-57789264D01*
X200945912Y-57842494D01*
X200912950Y-57890499D01*
X200869753Y-57910746D01*
X200820021Y-57901842D01*
X200767454Y-57862393D01*
X200758720Y-57853391D01*
X200727896Y-57827645D01*
X200696830Y-57819475D01*
X200650107Y-57823814D01*
X200604104Y-57831780D01*
X200545489Y-57848623D01*
X200509008Y-57871887D01*
X200488448Y-57904678D01*
X200482272Y-57926751D01*
X200487645Y-57978944D01*
X200522338Y-58022594D01*
X200584748Y-58055197D01*
X200634119Y-58079490D01*
X200661208Y-58109766D01*
X200660849Y-58140623D01*
X200631286Y-58167817D01*
X200620950Y-58172420D01*
X200568704Y-58176624D01*
X200510643Y-58158277D01*
X200454306Y-58121951D01*
X200407235Y-58072217D01*
X200376971Y-58013648D01*
X200367522Y-57960803D01*
X200378335Y-57880261D01*
X200417945Y-57804998D01*
X200460342Y-57749413D01*
X200427760Y-57714628D01*
X200403180Y-57684861D01*
X200369549Y-57613993D01*
X200366817Y-57537277D01*
X200394734Y-57452717D01*
X200399010Y-57444346D01*
X200439409Y-57389946D01*
X200490791Y-57349733D01*
X200546022Y-57326833D01*
X200597966Y-57324374D01*
X200639487Y-57345480D01*
G37*
G36*
X201566580Y-55645514D02*
G01*
X201567588Y-55686664D01*
X201546471Y-55747213D01*
X201513034Y-55816035D01*
X201548091Y-55839312D01*
X201568629Y-55850354D01*
X201587337Y-55848906D01*
X201611354Y-55830798D01*
X201648558Y-55792347D01*
X201672538Y-55767303D01*
X201703703Y-55740289D01*
X201727628Y-55731391D01*
X201752409Y-55736235D01*
X201768646Y-55744392D01*
X201792550Y-55773495D01*
X201792852Y-55807028D01*
X201767856Y-55834229D01*
X201739699Y-55855708D01*
X201708995Y-55891439D01*
X201699653Y-55906491D01*
X201692356Y-55929102D01*
X201700008Y-55954172D01*
X201724389Y-55993493D01*
X201725570Y-55995285D01*
X201785569Y-56113068D01*
X201820200Y-56241171D01*
X201826828Y-56369905D01*
X201820534Y-56426012D01*
X201785540Y-56548845D01*
X201722986Y-56655980D01*
X201633675Y-56746251D01*
X201518406Y-56818492D01*
X201484353Y-56833236D01*
X201431025Y-56847884D01*
X201382283Y-56861273D01*
X201270515Y-56873660D01*
X201161074Y-56869605D01*
X201096776Y-56855209D01*
X201065986Y-56848316D01*
X200976187Y-56807055D01*
X200873132Y-56731949D01*
X200791562Y-56637069D01*
X200735588Y-56526416D01*
X200726561Y-56493578D01*
X200716251Y-56415280D01*
X200714426Y-56325341D01*
X200721068Y-56236230D01*
X200724523Y-56218872D01*
X201041269Y-56218872D01*
X201063130Y-56241325D01*
X201071958Y-56248953D01*
X201096776Y-56261233D01*
X201119606Y-56250343D01*
X201122286Y-56247986D01*
X201141124Y-56215733D01*
X201139836Y-56181782D01*
X201118575Y-56159511D01*
X201094598Y-56160413D01*
X201085480Y-56166186D01*
X201062099Y-56180989D01*
X201042666Y-56202164D01*
X201041269Y-56218872D01*
X200724523Y-56218872D01*
X200736157Y-56160415D01*
X200754795Y-56106676D01*
X200815077Y-55995707D01*
X200823669Y-55986509D01*
X200984119Y-55986509D01*
X200986333Y-55999520D01*
X201008698Y-56034286D01*
X201045680Y-56062645D01*
X201085480Y-56074371D01*
X201113622Y-56068357D01*
X201131291Y-56056893D01*
X201245488Y-56056893D01*
X201257505Y-56132477D01*
X201294579Y-56190962D01*
X201353492Y-56228715D01*
X201431025Y-56242107D01*
X201440957Y-56241961D01*
X201511059Y-56228783D01*
X201562713Y-56191734D01*
X201601155Y-56127282D01*
X201612239Y-56090575D01*
X201610852Y-56026574D01*
X201586044Y-55969943D01*
X201543308Y-55924373D01*
X201488133Y-55893561D01*
X201426010Y-55881199D01*
X201362429Y-55890982D01*
X201302882Y-55926603D01*
X201264529Y-55973125D01*
X201246913Y-56034434D01*
X201245488Y-56056893D01*
X201131291Y-56056893D01*
X201149379Y-56045157D01*
X201158974Y-56033062D01*
X201174557Y-55989926D01*
X201166219Y-55950201D01*
X201140080Y-55919145D01*
X201102261Y-55902018D01*
X201058884Y-55904083D01*
X201016069Y-55930597D01*
X200994694Y-55958162D01*
X200984119Y-55986509D01*
X200823669Y-55986509D01*
X200897742Y-55907213D01*
X201002082Y-55841694D01*
X201127389Y-55799649D01*
X201272955Y-55781579D01*
X201399687Y-55776755D01*
X201447149Y-55701915D01*
X201478726Y-55660317D01*
X201517358Y-55630156D01*
X201548240Y-55625950D01*
X201566580Y-55645514D01*
G37*
G36*
X201295629Y-58538202D02*
G01*
X201392257Y-58548286D01*
X201514739Y-58582472D01*
X201617344Y-58640804D01*
X201701893Y-58724418D01*
X201770209Y-58834453D01*
X201789578Y-58875129D01*
X201807496Y-58920824D01*
X201817467Y-58964996D01*
X201821748Y-59018796D01*
X201822594Y-59093374D01*
X201822509Y-59107945D01*
X201816720Y-59205382D01*
X201799435Y-59283923D01*
X201767251Y-59354301D01*
X201716766Y-59427248D01*
X201695414Y-59458994D01*
X201690249Y-59487388D01*
X201705490Y-59518523D01*
X201742924Y-59561583D01*
X201776040Y-59598459D01*
X201794654Y-59627507D01*
X201793785Y-59648320D01*
X201775641Y-59668074D01*
X201738645Y-59679753D01*
X201692037Y-59661047D01*
X201635976Y-59611850D01*
X201635697Y-59611554D01*
X201601461Y-59576358D01*
X201579968Y-59561320D01*
X201562065Y-59563411D01*
X201538598Y-59579597D01*
X201525449Y-59590895D01*
X201519144Y-59606576D01*
X201525890Y-59631926D01*
X201546449Y-59676326D01*
X201564762Y-59715165D01*
X201573770Y-59742629D01*
X201569600Y-59758878D01*
X201552877Y-59773315D01*
X201543151Y-59779506D01*
X201507065Y-59784496D01*
X201472943Y-59758738D01*
X201439840Y-59701631D01*
X201420843Y-59659503D01*
X201410588Y-59636761D01*
X201289209Y-59636672D01*
X201279339Y-59636640D01*
X201186989Y-59632576D01*
X201112623Y-59619454D01*
X201090532Y-59611291D01*
X201043900Y-59594060D01*
X200968479Y-59553184D01*
X200957743Y-59546521D01*
X200869426Y-59474166D01*
X200794148Y-59382188D01*
X200741057Y-59281514D01*
X200733660Y-59259594D01*
X200716953Y-59169687D01*
X200713748Y-59067174D01*
X200720166Y-59002082D01*
X201035592Y-59002082D01*
X201062884Y-59029123D01*
X201090532Y-59036778D01*
X201119509Y-59019843D01*
X201133426Y-59002507D01*
X201136664Y-58972125D01*
X201108312Y-58943923D01*
X201088779Y-58936483D01*
X201071095Y-58943373D01*
X201057345Y-58948731D01*
X201038885Y-58969839D01*
X201035592Y-59002082D01*
X200720166Y-59002082D01*
X200723858Y-58964642D01*
X200747095Y-58874679D01*
X200753161Y-58863130D01*
X201243372Y-58863130D01*
X201265510Y-58922479D01*
X201305791Y-58970155D01*
X201359230Y-59002249D01*
X201420843Y-59014850D01*
X201485644Y-59004049D01*
X201548650Y-58965937D01*
X201550152Y-58964608D01*
X201598131Y-58904569D01*
X201615197Y-58838387D01*
X201600886Y-58767821D01*
X201595698Y-58756327D01*
X201552255Y-58696775D01*
X201494978Y-58659426D01*
X201430672Y-58644796D01*
X201366137Y-58653396D01*
X201308175Y-58685742D01*
X201263588Y-58742346D01*
X201244362Y-58796018D01*
X201243372Y-58863130D01*
X200753161Y-58863130D01*
X200795857Y-58781843D01*
X200797573Y-58779772D01*
X200987712Y-58779772D01*
X201008987Y-58818489D01*
X201027653Y-58837955D01*
X201071095Y-58854477D01*
X201116912Y-58845745D01*
X201154530Y-58812216D01*
X201168280Y-58788959D01*
X201172916Y-58761733D01*
X201158394Y-58728348D01*
X201134191Y-58699840D01*
X201091175Y-58680654D01*
X201046070Y-58684627D01*
X201009616Y-58712877D01*
X200989572Y-58747242D01*
X200987712Y-58779772D01*
X200797573Y-58779772D01*
X200869618Y-58692844D01*
X200959113Y-58618683D01*
X201056124Y-58567529D01*
X201109399Y-58549649D01*
X201159924Y-58539444D01*
X201217969Y-58536122D01*
X201295629Y-58538202D01*
G37*
G36*
X203802432Y-50755068D02*
G01*
X203805709Y-50758626D01*
X203850711Y-50815768D01*
X203897156Y-50886900D01*
X203935487Y-50957484D01*
X203940024Y-50967071D01*
X203964665Y-51022187D01*
X203980819Y-51068614D01*
X203990684Y-51116511D01*
X203996455Y-51176039D01*
X204000330Y-51257355D01*
X204001068Y-51277928D01*
X204002291Y-51363464D01*
X203998741Y-51431107D01*
X203989378Y-51492381D01*
X203973165Y-51558810D01*
X203951940Y-51628076D01*
X203873888Y-51811357D01*
X203768085Y-51985538D01*
X203637343Y-52147414D01*
X203484474Y-52293781D01*
X203344826Y-52397311D01*
X203312290Y-52421432D01*
X203123604Y-52527162D01*
X203041623Y-52563814D01*
X202897784Y-52614609D01*
X202752360Y-52647139D01*
X202600194Y-52661765D01*
X202527823Y-52660477D01*
X202436126Y-52658845D01*
X202254997Y-52638739D01*
X202225068Y-52633303D01*
X202051649Y-52601805D01*
X202051374Y-52601747D01*
X201888795Y-52570394D01*
X201745022Y-52549707D01*
X201616017Y-52540976D01*
X201497747Y-52545496D01*
X201386175Y-52564559D01*
X201277267Y-52599456D01*
X201166988Y-52651481D01*
X201051302Y-52721927D01*
X201026265Y-52739967D01*
X200926174Y-52812085D01*
X200787570Y-52923248D01*
X200748922Y-52956287D01*
X200631453Y-53056709D01*
X200581788Y-53100019D01*
X200502699Y-53168762D01*
X200438578Y-53224495D01*
X200315976Y-53330284D01*
X200211554Y-53419385D01*
X200122883Y-53493796D01*
X200047533Y-53555515D01*
X199983076Y-53606541D01*
X199927083Y-53648872D01*
X199877124Y-53684507D01*
X199830771Y-53715444D01*
X199691826Y-53805055D01*
X199745822Y-53921923D01*
X199824102Y-54119905D01*
X199887965Y-54342977D01*
X199934882Y-54581340D01*
X199963835Y-54828458D01*
X199973809Y-55077797D01*
X199963785Y-55322822D01*
X199963155Y-55330331D01*
X199957430Y-55405545D01*
X199953714Y-55467819D01*
X199952320Y-55510862D01*
X199953560Y-55528381D01*
X199958321Y-55527321D01*
X199981983Y-55510255D01*
X200020702Y-55477228D01*
X200069714Y-55432814D01*
X200124256Y-55381584D01*
X200179564Y-55328110D01*
X200230873Y-55276965D01*
X200273421Y-55232720D01*
X200302443Y-55199949D01*
X200313176Y-55183224D01*
X200313173Y-55183062D01*
X200305206Y-55160984D01*
X200284009Y-55117807D01*
X200252772Y-55059697D01*
X200214683Y-54992819D01*
X200192769Y-54954927D01*
X200157189Y-54889983D01*
X200136541Y-54845194D01*
X200128953Y-54816132D01*
X200132556Y-54798367D01*
X200156525Y-54775473D01*
X200188401Y-54777478D01*
X200227834Y-54808166D01*
X200276332Y-54868270D01*
X200312609Y-54922190D01*
X200353719Y-54989494D01*
X200385014Y-55047350D01*
X200425333Y-55130581D01*
X200481129Y-55097660D01*
X200492165Y-55090962D01*
X200527483Y-55066764D01*
X200546446Y-55049335D01*
X200546926Y-55047899D01*
X200543872Y-55023386D01*
X200531900Y-54976020D01*
X200512706Y-54911953D01*
X200487986Y-54837337D01*
X200465976Y-54771820D01*
X200443148Y-54694535D01*
X200432947Y-54641111D01*
X200435223Y-54608306D01*
X200449826Y-54592878D01*
X200476606Y-54591584D01*
X200510633Y-54610703D01*
X200547200Y-54661982D01*
X200584379Y-54745179D01*
X200622164Y-54860283D01*
X200630391Y-54888485D01*
X200648800Y-54945587D01*
X200666029Y-54977576D01*
X200687799Y-54988501D01*
X200719832Y-54982408D01*
X200767848Y-54963345D01*
X200824371Y-54939728D01*
X200824371Y-54801124D01*
X200824308Y-54789639D01*
X200821197Y-54709960D01*
X200814330Y-54631154D01*
X200805003Y-54568750D01*
X200798927Y-54537905D01*
X200793413Y-54496381D01*
X200796668Y-54473235D01*
X200808996Y-54460202D01*
X200823293Y-54452676D01*
X200856673Y-54450626D01*
X200884255Y-54475383D01*
X200906648Y-54528188D01*
X200924465Y-54610283D01*
X200938317Y-54722909D01*
X200942904Y-54769228D01*
X200949632Y-54829116D01*
X200955390Y-54871294D01*
X200959287Y-54888700D01*
X200959590Y-54888878D01*
X200978994Y-54888195D01*
X201023125Y-54882830D01*
X201085767Y-54873627D01*
X201160703Y-54861425D01*
X201199334Y-54855079D01*
X201471409Y-54823473D01*
X201738251Y-54816770D01*
X202008117Y-54835096D01*
X202289264Y-54878577D01*
X202468183Y-54913243D01*
X202634580Y-54846966D01*
X202739799Y-54806385D01*
X202913393Y-54746994D01*
X203076102Y-54702933D01*
X203237636Y-54672133D01*
X203407701Y-54652525D01*
X203596006Y-54642039D01*
X203669634Y-54640308D01*
X203862758Y-54642943D01*
X204038211Y-54656117D01*
X204193351Y-54679360D01*
X204325535Y-54712202D01*
X204432121Y-54754172D01*
X204510467Y-54804800D01*
X204570471Y-54856710D01*
X204568911Y-55046201D01*
X204565919Y-55130481D01*
X204543093Y-55332021D01*
X204499455Y-55546570D01*
X204436830Y-55768121D01*
X204357042Y-55990670D01*
X204261915Y-56208209D01*
X204153274Y-56414733D01*
X204080598Y-56540731D01*
X204129558Y-56691981D01*
X204149429Y-56754734D01*
X204181598Y-56865947D01*
X204206420Y-56969827D01*
X204224759Y-57072910D01*
X204237476Y-57181729D01*
X204245436Y-57302820D01*
X204249501Y-57442717D01*
X204250535Y-57607956D01*
X204249560Y-57764273D01*
X204246463Y-57895367D01*
X204240435Y-58007508D01*
X204230669Y-58107185D01*
X204216355Y-58200887D01*
X204196686Y-58295104D01*
X204170854Y-58396323D01*
X204138050Y-58511035D01*
X204081209Y-58703234D01*
X204238890Y-59014243D01*
X204333137Y-59208722D01*
X204415245Y-59400341D01*
X204478602Y-59577979D01*
X204524743Y-59746543D01*
X204555206Y-59910937D01*
X204571528Y-60076069D01*
X204574649Y-60136229D01*
X204575545Y-60192565D01*
X204572036Y-60231179D01*
X204563242Y-60260055D01*
X204548285Y-60287175D01*
X204546764Y-60289511D01*
X204500057Y-60336472D01*
X204425334Y-60382200D01*
X204326342Y-60425278D01*
X204206827Y-60464288D01*
X204070536Y-60497813D01*
X203921216Y-60524434D01*
X203898655Y-60527640D01*
X203820749Y-60536757D01*
X203740555Y-60542553D01*
X203650679Y-60545292D01*
X203543724Y-60545240D01*
X203417983Y-60542774D01*
X203412295Y-60542662D01*
X203385025Y-60541920D01*
X203231368Y-60535596D01*
X203099685Y-60525383D01*
X202981454Y-60509946D01*
X202868151Y-60487949D01*
X202751254Y-60458059D01*
X202622240Y-60418941D01*
X202475780Y-60372025D01*
X202285075Y-60428729D01*
X202195608Y-60454942D01*
X202073742Y-60488579D01*
X201969476Y-60513781D01*
X201875149Y-60531943D01*
X201783100Y-60544464D01*
X201685667Y-60552739D01*
X201575188Y-60558167D01*
X201538840Y-60559425D01*
X201430216Y-60561342D01*
X201425480Y-60561426D01*
X201330478Y-60559168D01*
X201243376Y-60552202D01*
X201153716Y-60540080D01*
X201094935Y-60530556D01*
X201030182Y-60519339D01*
X200982050Y-60510151D01*
X200958024Y-60504361D01*
X200956549Y-60503850D01*
X200944306Y-60507982D01*
X200937989Y-60533478D01*
X200936195Y-60585555D01*
X200936195Y-60675125D01*
X200880283Y-60675125D01*
X200824371Y-60675125D01*
X200824371Y-60571614D01*
X200824371Y-60468102D01*
X200761108Y-60435828D01*
X200744439Y-60427677D01*
X200703115Y-60410426D01*
X200676539Y-60403553D01*
X200673064Y-60404710D01*
X200656247Y-60426950D01*
X200634731Y-60473552D01*
X200611012Y-60539339D01*
X200566792Y-60675125D01*
X200503883Y-60675125D01*
X200490497Y-60675012D01*
X200455151Y-60673304D01*
X200440975Y-60670196D01*
X200441936Y-60666579D01*
X200450961Y-60639828D01*
X200467451Y-60593244D01*
X200488899Y-60533950D01*
X200502042Y-60497372D01*
X200524345Y-60428149D01*
X200533699Y-60379574D01*
X200529937Y-60345542D01*
X200512891Y-60319946D01*
X200482395Y-60296678D01*
X200428362Y-60261690D01*
X200370343Y-60355689D01*
X200338881Y-60405389D01*
X200277078Y-60494521D01*
X200223814Y-60559087D01*
X200180479Y-60597506D01*
X200148464Y-60608195D01*
X200140847Y-60606803D01*
X200117517Y-60594089D01*
X200111784Y-60568559D01*
X200124419Y-60527330D01*
X200156195Y-60467517D01*
X200207884Y-60386237D01*
X200247670Y-60324755D01*
X200281692Y-60268705D01*
X200304712Y-60226730D01*
X200313176Y-60204951D01*
X200303379Y-60185602D01*
X200274632Y-60152646D01*
X200233568Y-60114681D01*
X200112749Y-59997514D01*
X199989011Y-59843904D01*
X199871621Y-59662670D01*
X199761805Y-59455918D01*
X199660787Y-59225751D01*
X199569792Y-58974273D01*
X199546001Y-58900731D01*
X199520655Y-58820210D01*
X199500535Y-58753803D01*
X199487268Y-58706907D01*
X199482484Y-58684921D01*
X199482517Y-58681059D01*
X199481608Y-58671178D01*
X199475141Y-58665624D01*
X199457912Y-58664499D01*
X199424717Y-58667907D01*
X199370349Y-58675949D01*
X199289606Y-58688728D01*
X199201455Y-58700021D01*
X199059444Y-58710699D01*
X198902599Y-58715698D01*
X198851478Y-58715509D01*
X198740186Y-58715099D01*
X198581477Y-58708978D01*
X198435738Y-58697415D01*
X198312240Y-58680486D01*
X198174766Y-58653412D01*
X197914483Y-58590819D01*
X197642008Y-58512284D01*
X197632958Y-58509283D01*
X197365384Y-58420552D01*
X197092653Y-58318362D01*
X196831857Y-58208459D01*
X196591037Y-58093584D01*
X196482362Y-58036714D01*
X196379864Y-57978743D01*
X196299370Y-57926868D01*
X196236705Y-57878116D01*
X196187695Y-57829514D01*
X196148166Y-57778087D01*
X196142201Y-57769012D01*
X196087858Y-57655956D01*
X196063345Y-57534340D01*
X196064899Y-57499225D01*
X196271758Y-57499225D01*
X196279643Y-57573469D01*
X196301425Y-57631918D01*
X196306921Y-57640566D01*
X196334254Y-57677180D01*
X196368457Y-57710818D01*
X196415008Y-57745688D01*
X196479388Y-57786000D01*
X196567075Y-57835963D01*
X196634466Y-57872662D01*
X196716538Y-57914978D01*
X196801913Y-57955954D01*
X196895960Y-57997973D01*
X197004047Y-58043420D01*
X197131545Y-58094676D01*
X197283822Y-58154126D01*
X197288712Y-58156016D01*
X197380636Y-58191553D01*
X197463974Y-58223781D01*
X197533422Y-58250647D01*
X197583677Y-58270100D01*
X197609434Y-58280088D01*
X197632958Y-58286112D01*
X197645377Y-58281311D01*
X197642887Y-58275011D01*
X197625487Y-58246870D01*
X197595118Y-58203053D01*
X197556097Y-58149914D01*
X197529232Y-58112872D01*
X197442783Y-57974932D01*
X197356735Y-57808536D01*
X197270168Y-57611953D01*
X197267203Y-57604737D01*
X197239482Y-57539260D01*
X197218480Y-57496993D01*
X197199807Y-57471884D01*
X197179070Y-57457881D01*
X197151877Y-57448930D01*
X197130578Y-57443469D01*
X197064277Y-57427709D01*
X196981536Y-57409251D01*
X196887652Y-57389152D01*
X196787919Y-57368470D01*
X196687631Y-57348262D01*
X196592082Y-57329588D01*
X196506569Y-57313504D01*
X196436384Y-57301067D01*
X196386824Y-57293337D01*
X196363181Y-57291370D01*
X196330364Y-57309305D01*
X196299521Y-57352358D01*
X196298033Y-57355413D01*
X196277858Y-57422201D01*
X196271758Y-57499225D01*
X196064899Y-57499225D01*
X196068956Y-57407555D01*
X196104984Y-57278996D01*
X196146100Y-57176222D01*
X196093711Y-57110076D01*
X196078334Y-57088966D01*
X196040722Y-57025622D01*
X196012222Y-56962515D01*
X196004707Y-56939459D01*
X195985613Y-56824936D01*
X195986126Y-56815520D01*
X196195426Y-56815520D01*
X196215569Y-56897075D01*
X196218359Y-56904558D01*
X196263113Y-56976455D01*
X196333021Y-57034054D01*
X196423302Y-57073299D01*
X196427499Y-57074482D01*
X196466391Y-57084522D01*
X196531734Y-57100602D01*
X196619615Y-57121791D01*
X196726118Y-57147153D01*
X196847328Y-57175756D01*
X196979330Y-57206667D01*
X197118207Y-57238953D01*
X197291211Y-57279217D01*
X197441380Y-57314746D01*
X197565488Y-57345011D01*
X197666143Y-57370839D01*
X197745953Y-57393053D01*
X197807527Y-57412479D01*
X197853473Y-57429941D01*
X197886399Y-57446264D01*
X197908913Y-57462273D01*
X197923623Y-57478792D01*
X197933137Y-57496646D01*
X197938219Y-57509651D01*
X197944596Y-57543236D01*
X197932912Y-57568033D01*
X197915030Y-57581783D01*
X197885820Y-57589150D01*
X197841794Y-57589222D01*
X197778952Y-57581712D01*
X197693295Y-57566335D01*
X197580823Y-57542802D01*
X197546935Y-57535522D01*
X197470402Y-57519875D01*
X197407878Y-57508207D01*
X197365078Y-57501545D01*
X197347721Y-57500916D01*
X197350847Y-57517321D01*
X197364846Y-57556937D01*
X197387468Y-57613781D01*
X197416449Y-57681887D01*
X197435419Y-57723906D01*
X197510365Y-57869713D01*
X197593902Y-58005277D01*
X197682776Y-58126444D01*
X197773735Y-58229059D01*
X197863527Y-58308969D01*
X197948899Y-58362017D01*
X197990933Y-58380100D01*
X198123408Y-58423384D01*
X198280452Y-58458276D01*
X198457314Y-58484023D01*
X198649240Y-58499872D01*
X198851478Y-58505069D01*
X198924969Y-58503849D01*
X199017715Y-58500004D01*
X199112986Y-58494059D01*
X199205041Y-58486548D01*
X199288137Y-58478007D01*
X199356530Y-58468970D01*
X199404478Y-58459972D01*
X199426239Y-58451548D01*
X199426302Y-58451446D01*
X199425439Y-58433610D01*
X199420374Y-58390735D01*
X199411916Y-58329089D01*
X199400872Y-58254937D01*
X199372297Y-58037189D01*
X199353839Y-57763430D01*
X199566558Y-57763430D01*
X199568094Y-57838265D01*
X199571716Y-57887515D01*
X199573530Y-57901348D01*
X199579443Y-57949675D01*
X199587106Y-58014990D01*
X199595327Y-58087201D01*
X199606915Y-58177912D01*
X199650347Y-58421500D01*
X199711196Y-58672518D01*
X199786635Y-58921268D01*
X199873840Y-59158053D01*
X199969986Y-59373176D01*
X200045352Y-59513750D01*
X200177066Y-59713925D01*
X200324009Y-59886177D01*
X200486677Y-60030864D01*
X200665566Y-60148346D01*
X200861170Y-60238983D01*
X201073986Y-60303134D01*
X201304510Y-60341159D01*
X201430216Y-60349280D01*
X201645064Y-60343607D01*
X201870807Y-60316292D01*
X202101333Y-60268933D01*
X202321129Y-60205829D01*
X202677453Y-60205829D01*
X202683253Y-60211086D01*
X202714395Y-60223645D01*
X202767243Y-60239890D01*
X202835855Y-60258262D01*
X202914284Y-60277203D01*
X202996589Y-60295153D01*
X203076824Y-60310554D01*
X203097346Y-60313805D01*
X203185313Y-60322899D01*
X203294729Y-60328866D01*
X203417983Y-60331774D01*
X203547462Y-60331688D01*
X203675553Y-60328674D01*
X203794643Y-60322800D01*
X203897119Y-60314130D01*
X203975370Y-60302732D01*
X204037518Y-60289749D01*
X204158355Y-60260383D01*
X204249692Y-60231541D01*
X204310722Y-60203500D01*
X204340637Y-60176540D01*
X204346460Y-60162309D01*
X204354346Y-60104237D01*
X204350461Y-60022741D01*
X204335675Y-59922084D01*
X204310859Y-59806530D01*
X204276882Y-59680341D01*
X204234613Y-59547781D01*
X204184922Y-59413113D01*
X204154726Y-59340954D01*
X204117596Y-59259318D01*
X204077382Y-59176246D01*
X204036768Y-59096841D01*
X203998443Y-59026202D01*
X203965092Y-58969431D01*
X203939403Y-58931627D01*
X203924063Y-58917893D01*
X203917865Y-58923608D01*
X203897594Y-58951815D01*
X203867220Y-58998595D01*
X203830081Y-59058337D01*
X203789519Y-59125427D01*
X203748873Y-59194253D01*
X203711484Y-59259200D01*
X203680692Y-59314656D01*
X203659837Y-59355009D01*
X203652259Y-59374644D01*
X203657113Y-59383309D01*
X203681745Y-59407239D01*
X203720152Y-59436958D01*
X203814055Y-59510166D01*
X203905723Y-59594726D01*
X203989673Y-59684805D01*
X204062909Y-59776319D01*
X204122432Y-59865187D01*
X204165245Y-59947325D01*
X204188350Y-60018652D01*
X204188749Y-60075085D01*
X204179772Y-60097284D01*
X204151475Y-60126173D01*
X204102679Y-60148355D01*
X204029593Y-60165339D01*
X203928424Y-60178633D01*
X203870851Y-60183606D01*
X203754946Y-60185020D01*
X203696707Y-60185730D01*
X203526934Y-60166368D01*
X203353564Y-60124255D01*
X203168624Y-60058128D01*
X203028789Y-60001324D01*
X202853121Y-60100062D01*
X202844799Y-60104747D01*
X202779504Y-60142091D01*
X202726328Y-60173505D01*
X202690551Y-60195810D01*
X202677453Y-60205829D01*
X202321129Y-60205829D01*
X202330530Y-60203130D01*
X202552286Y-60120482D01*
X202760488Y-60022586D01*
X202926389Y-59924433D01*
X203142240Y-59924433D01*
X203207703Y-59957829D01*
X203219245Y-59963438D01*
X203294340Y-59992304D01*
X203390127Y-60020199D01*
X203497237Y-60044911D01*
X203606301Y-60064229D01*
X203707950Y-60075940D01*
X203754946Y-60078352D01*
X203836553Y-60078185D01*
X203916404Y-60073487D01*
X203986962Y-60065014D01*
X204040685Y-60053517D01*
X204070034Y-60039752D01*
X204070190Y-60039593D01*
X204073610Y-60014409D01*
X204056953Y-59971741D01*
X204023573Y-59915741D01*
X203976825Y-59850560D01*
X203920065Y-59780351D01*
X203856646Y-59709266D01*
X203789925Y-59641457D01*
X203723254Y-59581075D01*
X203659991Y-59532273D01*
X203570081Y-59470350D01*
X203528789Y-59525599D01*
X203520976Y-59535428D01*
X203487377Y-59573633D01*
X203438294Y-59626319D01*
X203379025Y-59687863D01*
X203314868Y-59752641D01*
X203142240Y-59924433D01*
X202926389Y-59924433D01*
X202949025Y-59911041D01*
X202957542Y-59905285D01*
X203048059Y-59836976D01*
X203148771Y-59750405D01*
X203252336Y-59652757D01*
X203351414Y-59551215D01*
X203438665Y-59452964D01*
X203506747Y-59365188D01*
X203547819Y-59304990D01*
X203599881Y-59223826D01*
X203642432Y-59151646D01*
X203673159Y-59092667D01*
X203689750Y-59051110D01*
X203689889Y-59031192D01*
X203672772Y-59025076D01*
X203645141Y-59018905D01*
X203629727Y-59015463D01*
X203568142Y-59004245D01*
X203494953Y-58992789D01*
X203433887Y-58982631D01*
X203300788Y-58948445D01*
X203196354Y-58901515D01*
X203119945Y-58841393D01*
X203070917Y-58767626D01*
X203048628Y-58679765D01*
X203046612Y-58641173D01*
X203157232Y-58641173D01*
X203165070Y-58703533D01*
X203204453Y-58761180D01*
X203275431Y-58814269D01*
X203311492Y-58832412D01*
X203386634Y-58859366D01*
X203472718Y-58880708D01*
X203561602Y-58895239D01*
X203645141Y-58901764D01*
X203715195Y-58899086D01*
X203763620Y-58886008D01*
X203777622Y-58873221D01*
X203802084Y-58835746D01*
X203824660Y-58786166D01*
X203824813Y-58785755D01*
X203846598Y-58723938D01*
X203870608Y-58650342D01*
X203895116Y-58570989D01*
X203918393Y-58491904D01*
X203938707Y-58419109D01*
X203954332Y-58358629D01*
X203963538Y-58316486D01*
X203964595Y-58298704D01*
X203952886Y-58296757D01*
X203914755Y-58297355D01*
X203857236Y-58301203D01*
X203787327Y-58307937D01*
X203727153Y-58315618D01*
X203581320Y-58344138D01*
X203450903Y-58384016D01*
X203339952Y-58433570D01*
X203252515Y-58491117D01*
X203192641Y-58554975D01*
X203180889Y-58573942D01*
X203157232Y-58641173D01*
X203046612Y-58641173D01*
X203045500Y-58619896D01*
X203053802Y-58558132D01*
X203080109Y-58503759D01*
X203128698Y-58444200D01*
X203189825Y-58388478D01*
X203302888Y-58318895D01*
X203444174Y-58263054D01*
X203613236Y-58221117D01*
X203809631Y-58193250D01*
X203993372Y-58175063D01*
X204007267Y-58121393D01*
X204008682Y-58115691D01*
X204014684Y-58078776D01*
X204012451Y-58059013D01*
X204001657Y-58057740D01*
X203964696Y-58060588D01*
X203908424Y-58067990D01*
X203839811Y-58079133D01*
X203681561Y-58100504D01*
X203520225Y-58108161D01*
X203510939Y-58107656D01*
X203372964Y-58100155D01*
X203244520Y-58076764D01*
X203139633Y-58038265D01*
X203087833Y-58005217D01*
X203027412Y-57947906D01*
X202981400Y-57882739D01*
X202957601Y-57819112D01*
X202955320Y-57802900D01*
X202958139Y-57750147D01*
X203064391Y-57750147D01*
X203066793Y-57781681D01*
X203084236Y-57826589D01*
X203098218Y-57851047D01*
X203147848Y-57901572D01*
X203217884Y-57945154D01*
X203300471Y-57976355D01*
X203339331Y-57984193D01*
X203417559Y-57991636D01*
X203510939Y-57993611D01*
X203612750Y-57990645D01*
X203716268Y-57983269D01*
X203814773Y-57972012D01*
X203901542Y-57957403D01*
X203969854Y-57939971D01*
X204012986Y-57920246D01*
X204015879Y-57917932D01*
X204026657Y-57903174D01*
X204034502Y-57877315D01*
X204040182Y-57835144D01*
X204044461Y-57771448D01*
X204048103Y-57681016D01*
X204048297Y-57675221D01*
X204050454Y-57576870D01*
X204049330Y-57507318D01*
X204044789Y-57463711D01*
X204036694Y-57443197D01*
X204023929Y-57437266D01*
X203981998Y-57430664D01*
X203919172Y-57427265D01*
X203842094Y-57426932D01*
X203757406Y-57429532D01*
X203671753Y-57434931D01*
X203591776Y-57442993D01*
X203524119Y-57453584D01*
X203472501Y-57465195D01*
X203346814Y-57505721D01*
X203238362Y-57558848D01*
X203151937Y-57621926D01*
X203092330Y-57692307D01*
X203077951Y-57716701D01*
X203064391Y-57750147D01*
X202958139Y-57750147D01*
X202960225Y-57711121D01*
X202994957Y-57624882D01*
X203057876Y-57545855D01*
X203147344Y-57475711D01*
X203261721Y-57416122D01*
X203399367Y-57368758D01*
X203497830Y-57346488D01*
X203614029Y-57328229D01*
X203733243Y-57316085D01*
X203844298Y-57311182D01*
X203936021Y-57314648D01*
X204038931Y-57325191D01*
X204027968Y-57254907D01*
X204024753Y-57234417D01*
X204014991Y-57183201D01*
X204001348Y-57148939D01*
X203978210Y-57128193D01*
X203939963Y-57117525D01*
X203931545Y-57116950D01*
X203880995Y-57113499D01*
X203795692Y-57112676D01*
X203682609Y-57107172D01*
X203532675Y-57082550D01*
X203399097Y-57039495D01*
X203285975Y-56979439D01*
X203197405Y-56903811D01*
X203189808Y-56895161D01*
X203135288Y-56809693D01*
X203111249Y-56719363D01*
X203113455Y-56687080D01*
X203223804Y-56687080D01*
X203226327Y-56724525D01*
X203243256Y-56770517D01*
X203254019Y-56791202D01*
X203305806Y-56851649D01*
X203382759Y-56906375D01*
X203479790Y-56951488D01*
X203488951Y-56954810D01*
X203544939Y-56971654D01*
X203606978Y-56983421D01*
X203683693Y-56991398D01*
X203783710Y-56996875D01*
X203795892Y-56997352D01*
X203870706Y-56999461D01*
X203931545Y-56999794D01*
X203972432Y-56998395D01*
X203987390Y-56995311D01*
X203987389Y-56995197D01*
X203983041Y-56973319D01*
X203971531Y-56927658D01*
X203954748Y-56864963D01*
X203946400Y-56834756D01*
X203934579Y-56791982D01*
X203912912Y-56715462D01*
X203891635Y-56642151D01*
X203872636Y-56578798D01*
X203857803Y-56532150D01*
X203849965Y-56508943D01*
X203828111Y-56450526D01*
X203806628Y-56415689D01*
X203778120Y-56399247D01*
X203735191Y-56396016D01*
X203670445Y-56400810D01*
X203622538Y-56406177D01*
X203492253Y-56433501D01*
X203386235Y-56476808D01*
X203306017Y-56535335D01*
X203253132Y-56608320D01*
X203236512Y-56644621D01*
X203223804Y-56687080D01*
X203113455Y-56687080D01*
X203117505Y-56627818D01*
X203153870Y-56538708D01*
X203220159Y-56455682D01*
X203273722Y-56410628D01*
X203365828Y-56357869D01*
X203478249Y-56319365D01*
X203615975Y-56293065D01*
X203638122Y-56289841D01*
X203694121Y-56279831D01*
X203733127Y-56270045D01*
X203747767Y-56262210D01*
X203746469Y-56256575D01*
X203733967Y-56226150D01*
X203710980Y-56177274D01*
X203680949Y-56116691D01*
X203647312Y-56051149D01*
X203613508Y-55987393D01*
X203592636Y-55949640D01*
X203582978Y-55932171D01*
X203559158Y-55892228D01*
X203529246Y-55846740D01*
X203387026Y-55656764D01*
X203235641Y-55495637D01*
X203075916Y-55364157D01*
X202952878Y-55289825D01*
X203173050Y-55289825D01*
X203177555Y-55296530D01*
X203201390Y-55318381D01*
X203238791Y-55347515D01*
X203245882Y-55352860D01*
X203299564Y-55399245D01*
X203363693Y-55462091D01*
X203430806Y-55533503D01*
X203493439Y-55605587D01*
X203544128Y-55670450D01*
X203592636Y-55737787D01*
X203639397Y-55704490D01*
X203689456Y-55666296D01*
X203796990Y-55568387D01*
X203898606Y-55455937D01*
X203986501Y-55338017D01*
X204052872Y-55223703D01*
X204063861Y-55200196D01*
X204076881Y-55163449D01*
X204075398Y-55137990D01*
X204055927Y-55121792D01*
X204014983Y-55112829D01*
X203949081Y-55109074D01*
X203854734Y-55108502D01*
X203762518Y-55110785D01*
X203647148Y-55121689D01*
X203537337Y-55143670D01*
X203422430Y-55179029D01*
X203291768Y-55230066D01*
X203274534Y-55237405D01*
X203222677Y-55260926D01*
X203186525Y-55279569D01*
X203173050Y-55289825D01*
X202952878Y-55289825D01*
X202908674Y-55263120D01*
X202845406Y-55234433D01*
X202730885Y-55191698D01*
X202598093Y-55150528D01*
X202455113Y-55113359D01*
X202310031Y-55082629D01*
X202305255Y-55081749D01*
X202179504Y-55063506D01*
X202041630Y-55050718D01*
X202725377Y-55050718D01*
X202736580Y-55060150D01*
X202770453Y-55079791D01*
X202820058Y-55105818D01*
X202878332Y-55134802D01*
X202938216Y-55163314D01*
X202992648Y-55187925D01*
X203034568Y-55205207D01*
X203056915Y-55211729D01*
X203068950Y-55208292D01*
X203105632Y-55193570D01*
X203159382Y-55169923D01*
X203223411Y-55140264D01*
X203373725Y-55076759D01*
X203527135Y-55031102D01*
X203685136Y-55005570D01*
X203859591Y-54997503D01*
X203971859Y-54999799D01*
X204062925Y-55008745D01*
X204127472Y-55026184D01*
X204168100Y-55053945D01*
X204187406Y-55093854D01*
X204187991Y-55147739D01*
X204172454Y-55217425D01*
X204164099Y-55243104D01*
X204115262Y-55346623D01*
X204040776Y-55458851D01*
X203943303Y-55576126D01*
X203825508Y-55694780D01*
X203664598Y-55844362D01*
X203795810Y-56087655D01*
X203799096Y-56093743D01*
X203849595Y-56185526D01*
X203887959Y-56251092D01*
X203915804Y-56292878D01*
X203934745Y-56313324D01*
X203946400Y-56314867D01*
X203952179Y-56308824D01*
X203975300Y-56274545D01*
X204006740Y-56219059D01*
X204043512Y-56148400D01*
X204082627Y-56068604D01*
X204121096Y-55985707D01*
X204155931Y-55905743D01*
X204184143Y-55834748D01*
X204209896Y-55762628D01*
X204262876Y-55589937D01*
X204304750Y-55410806D01*
X204338642Y-55212667D01*
X204346816Y-55153924D01*
X204355674Y-55071183D01*
X204356848Y-55011909D01*
X204349832Y-54971154D01*
X204334117Y-54943974D01*
X204309198Y-54925419D01*
X204294309Y-54918556D01*
X204231325Y-54900067D01*
X204144019Y-54884301D01*
X204038015Y-54871549D01*
X203918941Y-54862101D01*
X203792423Y-54856247D01*
X203664087Y-54854279D01*
X203539560Y-54856485D01*
X203424466Y-54863158D01*
X203324434Y-54874587D01*
X203287766Y-54880622D01*
X203167641Y-54904702D01*
X203040569Y-54935460D01*
X202919462Y-54969604D01*
X202817232Y-55003845D01*
X202774851Y-55021153D01*
X202739112Y-55039055D01*
X202725377Y-55050718D01*
X202041630Y-55050718D01*
X202032865Y-55049905D01*
X201874054Y-55041149D01*
X201711786Y-55037443D01*
X201554778Y-55038994D01*
X201411743Y-55046005D01*
X201291399Y-55058681D01*
X201180137Y-55077248D01*
X200959404Y-55129966D01*
X200761009Y-55201509D01*
X200581491Y-55293520D01*
X200417392Y-55407638D01*
X200265251Y-55545507D01*
X200251415Y-55559760D01*
X200092841Y-55745705D01*
X199955030Y-55952449D01*
X199837494Y-56181066D01*
X199739748Y-56432630D01*
X199661304Y-56708217D01*
X199650900Y-56760679D01*
X199601674Y-57008899D01*
X199596193Y-57051091D01*
X199589132Y-57129065D01*
X199582657Y-57225441D01*
X199576981Y-57333936D01*
X199572319Y-57448266D01*
X199568885Y-57562147D01*
X199566893Y-57669297D01*
X199566558Y-57763430D01*
X199353839Y-57763430D01*
X199347546Y-57670093D01*
X199353556Y-57310586D01*
X199390398Y-56957760D01*
X199458145Y-56610706D01*
X199556866Y-56268516D01*
X199566338Y-56240155D01*
X199590211Y-56167028D01*
X199608802Y-56107636D01*
X199620421Y-56067476D01*
X199623379Y-56052046D01*
X199622487Y-56051652D01*
X199601122Y-56044585D01*
X199556105Y-56030499D01*
X199493304Y-56011214D01*
X199418585Y-55988549D01*
X199356636Y-55969526D01*
X199246802Y-55933212D01*
X199160447Y-55899976D01*
X199092295Y-55867437D01*
X199037069Y-55833213D01*
X198989493Y-55794924D01*
X198983706Y-55789593D01*
X198927107Y-55718975D01*
X198901587Y-55642106D01*
X198904231Y-55598241D01*
X199014227Y-55598241D01*
X199020669Y-55654509D01*
X199027696Y-55668602D01*
X199067907Y-55711207D01*
X199135280Y-55755787D01*
X199226480Y-55800628D01*
X199338175Y-55844013D01*
X199467029Y-55884227D01*
X199533168Y-55902097D01*
X199592533Y-55916899D01*
X199633890Y-55925780D01*
X199650900Y-55927255D01*
X199654329Y-55919234D01*
X199662976Y-55885723D01*
X199674019Y-55834117D01*
X199685949Y-55772641D01*
X199697256Y-55709518D01*
X199706430Y-55652971D01*
X199711963Y-55611225D01*
X199712344Y-55592502D01*
X199698457Y-55585945D01*
X199659084Y-55573501D01*
X199600846Y-55557520D01*
X199530258Y-55539885D01*
X199484652Y-55529652D01*
X199373135Y-55510131D01*
X199269171Y-55499307D01*
X199178490Y-55497407D01*
X199106821Y-55504656D01*
X199059896Y-55521282D01*
X199033354Y-55547338D01*
X199014227Y-55598241D01*
X198904231Y-55598241D01*
X198906678Y-55557638D01*
X198921157Y-55513729D01*
X198963787Y-55453099D01*
X199029438Y-55411117D01*
X199118793Y-55387641D01*
X199232536Y-55382527D01*
X199371351Y-55395635D01*
X199535922Y-55426822D01*
X199539058Y-55427530D01*
X199611845Y-55443469D01*
X199672056Y-55455738D01*
X199713512Y-55463140D01*
X199730035Y-55464475D01*
X199731203Y-55461917D01*
X199735880Y-55436892D01*
X199740496Y-55395440D01*
X199746069Y-55331541D01*
X199556312Y-55328129D01*
X199546799Y-55327940D01*
X199349740Y-55315061D01*
X199172440Y-55285866D01*
X199017173Y-55241003D01*
X198886212Y-55181123D01*
X198781832Y-55106874D01*
X198733791Y-55059424D01*
X198691200Y-54999093D01*
X198671607Y-54936143D01*
X198671281Y-54877052D01*
X198778611Y-54877052D01*
X198791165Y-54937515D01*
X198835314Y-55001744D01*
X198886679Y-55047314D01*
X198980284Y-55101565D01*
X199098468Y-55146596D01*
X199237485Y-55181307D01*
X199393591Y-55204600D01*
X199563039Y-55215374D01*
X199746069Y-55219717D01*
X199746069Y-54998620D01*
X199746073Y-54977386D01*
X199745280Y-54885447D01*
X199740194Y-54819256D01*
X199726812Y-54773622D01*
X199701129Y-54743353D01*
X199659142Y-54723258D01*
X199596847Y-54708145D01*
X199510241Y-54692823D01*
X199480163Y-54687998D01*
X199342446Y-54674013D01*
X199209308Y-54672950D01*
X199085937Y-54684118D01*
X198977520Y-54706825D01*
X198889244Y-54740377D01*
X198826297Y-54784084D01*
X198797621Y-54819593D01*
X198778611Y-54877052D01*
X198671281Y-54877052D01*
X198671199Y-54862139D01*
X198678884Y-54817462D01*
X198714285Y-54738074D01*
X198776990Y-54672416D01*
X198867835Y-54619738D01*
X198987658Y-54579294D01*
X199026682Y-54571638D01*
X199111394Y-54563189D01*
X199213299Y-54559866D01*
X199323484Y-54561464D01*
X199433036Y-54567778D01*
X199533041Y-54578602D01*
X199614585Y-54593731D01*
X199656372Y-54602902D01*
X199695163Y-54608424D01*
X199712269Y-54606654D01*
X199713102Y-54600526D01*
X199709524Y-54570056D01*
X199699979Y-54525507D01*
X199682170Y-54454317D01*
X199644078Y-54445652D01*
X199457768Y-54403270D01*
X199358414Y-54379995D01*
X199268909Y-54356705D01*
X199198182Y-54334542D01*
X199139487Y-54311093D01*
X199086079Y-54283946D01*
X199031210Y-54250686D01*
X199027714Y-54248424D01*
X198946207Y-54181131D01*
X198893465Y-54105365D01*
X198870527Y-54023260D01*
X198872441Y-54002361D01*
X198987772Y-54002361D01*
X198988400Y-54019635D01*
X199000454Y-54064869D01*
X199030958Y-54105375D01*
X199084035Y-54145540D01*
X199163805Y-54189752D01*
X199184546Y-54199648D01*
X199248461Y-54225574D01*
X199322566Y-54250846D01*
X199401093Y-54274059D01*
X199478275Y-54293809D01*
X199548344Y-54308692D01*
X199605535Y-54317305D01*
X199644078Y-54318243D01*
X199658207Y-54310103D01*
X199656339Y-54299050D01*
X199644161Y-54260109D01*
X199623156Y-54203347D01*
X199596270Y-54136038D01*
X199582623Y-54103738D01*
X199566449Y-54065458D01*
X199536638Y-53998879D01*
X199509784Y-53943577D01*
X199444741Y-53817625D01*
X199279709Y-53826048D01*
X199224286Y-53829620D01*
X199143978Y-53839657D01*
X199085442Y-53856054D01*
X199042193Y-53880971D01*
X199007740Y-53916567D01*
X199005403Y-53920022D01*
X198993068Y-53955628D01*
X198987772Y-54002361D01*
X198872441Y-54002361D01*
X198878433Y-53936949D01*
X198883407Y-53920655D01*
X198926292Y-53843640D01*
X198996796Y-53782184D01*
X199094533Y-53736545D01*
X199219119Y-53706983D01*
X199339784Y-53688224D01*
X199259088Y-53606512D01*
X199171935Y-53529316D01*
X199056765Y-53453793D01*
X198921718Y-53390502D01*
X198763033Y-53337718D01*
X198723690Y-53328415D01*
X199275317Y-53328415D01*
X199284915Y-53340164D01*
X199313659Y-53368701D01*
X199356439Y-53409088D01*
X199408081Y-53456569D01*
X199463408Y-53506390D01*
X199517245Y-53553795D01*
X199564416Y-53594028D01*
X199567763Y-53596568D01*
X199582623Y-53601597D01*
X199604025Y-53597158D01*
X199636833Y-53580974D01*
X199685908Y-53550768D01*
X199756114Y-53504261D01*
X199798015Y-53475157D01*
X199889903Y-53406934D01*
X199991546Y-53326989D01*
X200095742Y-53241306D01*
X200195286Y-53155869D01*
X200282975Y-53076659D01*
X200351606Y-53009661D01*
X200413998Y-52944849D01*
X200368164Y-52884170D01*
X200333785Y-52840883D01*
X200251686Y-52748337D01*
X200159246Y-52655094D01*
X200067273Y-52572357D01*
X199973132Y-52493581D01*
X199902118Y-52618599D01*
X199882643Y-52652557D01*
X199780998Y-52818091D01*
X199682597Y-52956968D01*
X199584270Y-53072998D01*
X199482848Y-53169988D01*
X199375160Y-53251749D01*
X199366714Y-53257476D01*
X199320524Y-53290127D01*
X199287853Y-53315467D01*
X199275317Y-53328415D01*
X198723690Y-53328415D01*
X198576948Y-53293717D01*
X198465552Y-53275804D01*
X198320866Y-53260929D01*
X198164106Y-53251723D01*
X198005529Y-53248568D01*
X197855395Y-53251845D01*
X197723963Y-53261937D01*
X197594049Y-53279505D01*
X197398260Y-53315561D01*
X197206140Y-53361811D01*
X197021220Y-53416832D01*
X196847032Y-53479201D01*
X196687110Y-53547494D01*
X196544986Y-53620289D01*
X196424192Y-53696162D01*
X196328261Y-53773691D01*
X196260725Y-53851452D01*
X196235129Y-53898804D01*
X196212983Y-53987556D01*
X196217573Y-54079078D01*
X196248035Y-54165525D01*
X196303501Y-54239049D01*
X196309462Y-54244581D01*
X196333129Y-54263566D01*
X196362887Y-54281962D01*
X196402796Y-54301481D01*
X196456916Y-54323830D01*
X196529306Y-54350720D01*
X196624029Y-54383858D01*
X196745143Y-54424954D01*
X196818257Y-54449558D01*
X196998700Y-54510387D01*
X197151815Y-54562325D01*
X197279775Y-54606293D01*
X197384753Y-54643214D01*
X197468923Y-54674010D01*
X197534457Y-54699603D01*
X197583530Y-54720914D01*
X197618313Y-54738865D01*
X197640980Y-54754379D01*
X197653705Y-54768378D01*
X197658660Y-54781782D01*
X197658019Y-54795515D01*
X197653955Y-54810498D01*
X197635286Y-54845105D01*
X197602306Y-54863615D01*
X197550568Y-54865627D01*
X197475139Y-54852294D01*
X197422781Y-54842005D01*
X197376806Y-54837544D01*
X197353971Y-54841776D01*
X197352032Y-54844470D01*
X197340960Y-54873293D01*
X197325883Y-54926347D01*
X197308131Y-54997834D01*
X197289034Y-55081953D01*
X197269921Y-55172903D01*
X197252122Y-55264885D01*
X197236967Y-55352099D01*
X197232701Y-55380917D01*
X197224079Y-55452645D01*
X197215774Y-55537539D01*
X197208133Y-55629979D01*
X197201499Y-55724344D01*
X197196217Y-55815013D01*
X197192631Y-55896365D01*
X197191088Y-55962778D01*
X197191930Y-56008633D01*
X197195503Y-56028306D01*
X197199540Y-56029823D01*
X197228952Y-56031273D01*
X197279064Y-56029087D01*
X197341855Y-56023529D01*
X197348117Y-56022872D01*
X197435996Y-56017006D01*
X197521334Y-56016809D01*
X197596836Y-56021819D01*
X197655206Y-56031572D01*
X197689150Y-56045604D01*
X197701155Y-56061876D01*
X197709009Y-56100958D01*
X197702071Y-56141369D01*
X197681320Y-56167816D01*
X197680377Y-56168265D01*
X197653847Y-56175715D01*
X197601602Y-56186964D01*
X197529009Y-56200973D01*
X197441435Y-56216703D01*
X197344248Y-56233112D01*
X197296700Y-56241013D01*
X197066108Y-56283282D01*
X196865914Y-56327339D01*
X196694835Y-56373674D01*
X196551587Y-56422774D01*
X196434888Y-56475128D01*
X196343452Y-56531224D01*
X196275996Y-56591550D01*
X196231238Y-56656595D01*
X196227342Y-56664513D01*
X196199064Y-56742391D01*
X196195426Y-56815520D01*
X195986126Y-56815520D01*
X195992081Y-56706250D01*
X196022291Y-56590989D01*
X196074428Y-56486746D01*
X196146672Y-56401108D01*
X196151832Y-56396544D01*
X196225863Y-56343650D01*
X196325411Y-56289569D01*
X196444795Y-56236832D01*
X196578331Y-56187971D01*
X196720339Y-56145519D01*
X196739841Y-56140347D01*
X196835255Y-56115245D01*
X196904859Y-56095825D01*
X196952688Y-56078940D01*
X196982775Y-56061445D01*
X196999154Y-56040194D01*
X197005860Y-56012042D01*
X197006925Y-55973843D01*
X197006383Y-55922451D01*
X197006332Y-55907597D01*
X197003840Y-55837504D01*
X196997329Y-55795979D01*
X196986415Y-55780301D01*
X196981595Y-55779228D01*
X196973583Y-55777444D01*
X196932729Y-55769167D01*
X196870218Y-55756884D01*
X196791708Y-55741705D01*
X196702861Y-55724737D01*
X196551427Y-55692574D01*
X196426299Y-55657476D01*
X196326160Y-55617791D01*
X196247509Y-55571450D01*
X196186845Y-55516383D01*
X196140667Y-55450524D01*
X196105473Y-55371803D01*
X196100480Y-55356575D01*
X196084185Y-55264999D01*
X196083661Y-55200632D01*
X196287893Y-55200632D01*
X196296468Y-55275148D01*
X196318156Y-55333670D01*
X196346349Y-55372818D01*
X196388020Y-55409519D01*
X196445655Y-55439761D01*
X196527138Y-55468636D01*
X196538650Y-55472047D01*
X196589755Y-55485177D01*
X196655928Y-55500211D01*
X196730564Y-55515880D01*
X196807055Y-55530914D01*
X196878795Y-55544047D01*
X196939177Y-55554007D01*
X196981595Y-55559528D01*
X196999440Y-55559339D01*
X197000047Y-55557523D01*
X197005361Y-55532924D01*
X197015038Y-55483810D01*
X197028098Y-55415485D01*
X197043563Y-55333249D01*
X197060456Y-55242408D01*
X197077798Y-55148262D01*
X197094610Y-55056116D01*
X197109915Y-54971271D01*
X197122735Y-54899031D01*
X197132091Y-54844698D01*
X197137005Y-54813575D01*
X197137794Y-54798201D01*
X197129655Y-54779363D01*
X197104049Y-54763222D01*
X197054308Y-54744182D01*
X197049746Y-54742605D01*
X196993565Y-54726779D01*
X196940731Y-54721093D01*
X196885049Y-54726728D01*
X196820323Y-54744865D01*
X196740359Y-54776684D01*
X196638962Y-54823368D01*
X196599205Y-54842580D01*
X196499135Y-54894093D01*
X196424036Y-54939012D01*
X196369982Y-54980187D01*
X196333047Y-55020467D01*
X196309306Y-55062703D01*
X196292867Y-55123458D01*
X196287893Y-55200632D01*
X196083661Y-55200632D01*
X196083339Y-55161097D01*
X196097313Y-55057610D01*
X196125476Y-54967282D01*
X196162802Y-54902367D01*
X196234909Y-54819010D01*
X196328571Y-54741345D01*
X196438054Y-54674739D01*
X196459731Y-54663438D01*
X196510465Y-54635427D01*
X196545763Y-54613615D01*
X196559019Y-54601975D01*
X196551656Y-54595176D01*
X196521223Y-54580646D01*
X196475220Y-54563809D01*
X196436709Y-54550022D01*
X196366113Y-54521196D01*
X196300188Y-54490757D01*
X196211019Y-54438912D01*
X196120065Y-54361122D01*
X196056988Y-54269912D01*
X196020244Y-54162888D01*
X196008291Y-54037653D01*
X196008601Y-54012608D01*
X196022387Y-53886299D01*
X196058384Y-53775684D01*
X196119022Y-53676593D01*
X196206732Y-53584858D01*
X196323946Y-53496308D01*
X196331181Y-53491535D01*
X196454340Y-53419406D01*
X196601320Y-53347310D01*
X196764646Y-53278208D01*
X196936843Y-53215059D01*
X197110438Y-53160823D01*
X197277956Y-53118462D01*
X197542048Y-53070764D01*
X197831669Y-53041123D01*
X198116395Y-53035264D01*
X198391999Y-53053081D01*
X198654255Y-53094466D01*
X198898937Y-53159315D01*
X199024205Y-53200206D01*
X199107976Y-53159221D01*
X199196289Y-53108416D01*
X199299546Y-53033779D01*
X199397318Y-52948745D01*
X199478285Y-52862384D01*
X199480858Y-52859203D01*
X199514557Y-52813478D01*
X199559948Y-52746753D01*
X199613093Y-52665065D01*
X199670056Y-52574453D01*
X199726902Y-52480957D01*
X199772087Y-52405894D01*
X199777221Y-52397640D01*
X200041603Y-52397640D01*
X200049684Y-52409130D01*
X200077328Y-52434975D01*
X200117831Y-52467698D01*
X200125595Y-52473740D01*
X200184143Y-52524290D01*
X200253756Y-52590745D01*
X200326757Y-52665303D01*
X200395468Y-52740161D01*
X200452210Y-52807515D01*
X200502699Y-52871415D01*
X200575673Y-52800196D01*
X200610434Y-52764946D01*
X200638059Y-52734047D01*
X200648648Y-52718076D01*
X200642730Y-52705323D01*
X200622321Y-52670533D01*
X200590785Y-52619986D01*
X200551715Y-52559556D01*
X200525085Y-52521204D01*
X200477187Y-52458538D01*
X200422575Y-52392351D01*
X200365628Y-52327441D01*
X200310724Y-52268604D01*
X200262242Y-52220638D01*
X200224563Y-52188341D01*
X200202064Y-52176509D01*
X200199596Y-52177395D01*
X200180636Y-52195509D01*
X200150583Y-52232192D01*
X200114725Y-52281111D01*
X200105382Y-52294574D01*
X200072915Y-52343078D01*
X200050173Y-52379796D01*
X200041603Y-52397640D01*
X199777221Y-52397640D01*
X199855687Y-52271500D01*
X199931059Y-52157823D01*
X199984675Y-52083700D01*
X200267442Y-52083700D01*
X200268461Y-52084986D01*
X200285374Y-52102600D01*
X200319754Y-52137201D01*
X200367366Y-52184550D01*
X200423977Y-52240409D01*
X200472406Y-52289904D01*
X200546357Y-52371963D01*
X200612902Y-52453097D01*
X200663622Y-52523366D01*
X200748922Y-52654562D01*
X200820561Y-52603240D01*
X200849128Y-52581734D01*
X200883073Y-52552694D01*
X200899179Y-52533913D01*
X200900569Y-52514758D01*
X200889118Y-52467306D01*
X200863720Y-52401942D01*
X200827022Y-52323627D01*
X200781673Y-52237318D01*
X200730319Y-52147974D01*
X200675610Y-52060554D01*
X200620192Y-51980015D01*
X200566713Y-51911316D01*
X200511386Y-51845809D01*
X200388319Y-51962281D01*
X200348501Y-52000346D01*
X200305965Y-52042066D01*
X200277378Y-52071424D01*
X200267442Y-52083700D01*
X199984675Y-52083700D01*
X200002156Y-52059532D01*
X200072932Y-51971296D01*
X200147343Y-51887786D01*
X200229342Y-51803672D01*
X200260909Y-51775488D01*
X200601372Y-51775488D01*
X200603923Y-51781107D01*
X200621846Y-51805943D01*
X200651136Y-51841037D01*
X200702819Y-51905791D01*
X200768498Y-52000609D01*
X200834694Y-52107441D01*
X200895524Y-52216726D01*
X200945105Y-52318899D01*
X200967325Y-52367402D01*
X200993910Y-52419937D01*
X201014624Y-52454531D01*
X201026265Y-52465405D01*
X201043405Y-52457214D01*
X201174866Y-52400765D01*
X201296891Y-52362139D01*
X201422123Y-52338035D01*
X201563207Y-52325149D01*
X201620596Y-52321350D01*
X201679775Y-52315719D01*
X201720061Y-52309782D01*
X201734937Y-52304328D01*
X201732264Y-52291237D01*
X201722305Y-52252533D01*
X201706702Y-52195404D01*
X201687285Y-52126671D01*
X201671332Y-52073408D01*
X201640346Y-51978652D01*
X201604867Y-51878229D01*
X201566743Y-51776629D01*
X201527819Y-51678342D01*
X201489943Y-51587858D01*
X201454960Y-51509667D01*
X201424718Y-51448257D01*
X201401062Y-51408119D01*
X201385840Y-51393742D01*
X201377867Y-51395130D01*
X201343696Y-51404329D01*
X201290832Y-51420248D01*
X201226844Y-51440653D01*
X201055617Y-51506306D01*
X200877099Y-51593245D01*
X200710662Y-51692746D01*
X200693201Y-51704485D01*
X200646125Y-51737599D01*
X200613438Y-51762840D01*
X200601372Y-51775488D01*
X200260909Y-51775488D01*
X200414287Y-51638547D01*
X200638326Y-51478409D01*
X200831660Y-51371094D01*
X201515375Y-51371094D01*
X201519575Y-51389360D01*
X201532828Y-51422775D01*
X201556601Y-51475948D01*
X201592360Y-51553490D01*
X201615622Y-51605890D01*
X201657946Y-51709887D01*
X201701440Y-51825818D01*
X201743269Y-51945459D01*
X201780600Y-52060586D01*
X201810599Y-52162975D01*
X201830433Y-52244402D01*
X201839127Y-52285075D01*
X201848213Y-52322015D01*
X201853461Y-52336258D01*
X201868251Y-52339163D01*
X201908297Y-52347701D01*
X201967211Y-52360515D01*
X202038658Y-52376239D01*
X202106544Y-52390752D01*
X202166566Y-52402555D01*
X202208199Y-52409552D01*
X202225068Y-52410571D01*
X202226539Y-52405398D01*
X202225389Y-52374448D01*
X202219050Y-52322380D01*
X202208666Y-52256157D01*
X202195378Y-52182747D01*
X202180330Y-52109115D01*
X202164663Y-52042228D01*
X202153706Y-52001737D01*
X202125112Y-51909047D01*
X202090151Y-51807894D01*
X202051106Y-51703840D01*
X202010257Y-51602446D01*
X201969887Y-51509276D01*
X201932276Y-51429891D01*
X201899706Y-51369854D01*
X201874460Y-51334726D01*
X201874068Y-51334342D01*
X201857440Y-51325954D01*
X201827342Y-51323709D01*
X201777837Y-51327725D01*
X201702987Y-51338120D01*
X201664871Y-51343836D01*
X201602204Y-51352832D01*
X201554979Y-51359088D01*
X201531258Y-51361506D01*
X201528262Y-51361567D01*
X201518760Y-51363366D01*
X201515375Y-51371094D01*
X200831660Y-51371094D01*
X200878740Y-51344961D01*
X200957517Y-51312304D01*
X202007604Y-51312304D01*
X202012879Y-51327175D01*
X202028475Y-51365976D01*
X202051836Y-51422200D01*
X202080394Y-51489591D01*
X202109867Y-51560228D01*
X202168318Y-51711137D01*
X202219595Y-51858346D01*
X202261752Y-51995723D01*
X202292843Y-52117135D01*
X202310924Y-52216446D01*
X202318330Y-52275091D01*
X202327388Y-52342365D01*
X202335525Y-52386618D01*
X202344881Y-52413069D01*
X202357596Y-52426935D01*
X202375808Y-52433436D01*
X202401657Y-52437791D01*
X202527823Y-52446825D01*
X202671660Y-52435606D01*
X202819751Y-52405627D01*
X202963414Y-52359183D01*
X203093964Y-52298568D01*
X203202719Y-52226078D01*
X203256727Y-52181908D01*
X202926110Y-51640058D01*
X202902641Y-51601684D01*
X202831034Y-51485731D01*
X202764645Y-51379885D01*
X202705348Y-51287027D01*
X202655018Y-51210034D01*
X202615529Y-51151786D01*
X202588754Y-51115162D01*
X202576567Y-51103041D01*
X202558252Y-51108962D01*
X202514280Y-51123989D01*
X202450159Y-51146249D01*
X202371040Y-51173954D01*
X202282075Y-51205314D01*
X202197523Y-51235694D01*
X202121221Y-51264079D01*
X202060995Y-51287532D01*
X202021554Y-51304219D01*
X202007604Y-51312304D01*
X200957517Y-51312304D01*
X201133222Y-51239466D01*
X201399465Y-51163187D01*
X201406938Y-51161542D01*
X201466705Y-51149854D01*
X201546924Y-51135818D01*
X201638016Y-51121055D01*
X201730403Y-51107185D01*
X201782468Y-51099656D01*
X201885576Y-51084037D01*
X201966986Y-51070145D01*
X202033722Y-51056446D01*
X202092812Y-51041407D01*
X202128692Y-51030414D01*
X202694853Y-51030414D01*
X202694946Y-51030925D01*
X202704699Y-51050888D01*
X202729148Y-51094682D01*
X202766451Y-51159173D01*
X202814764Y-51241231D01*
X202872244Y-51337722D01*
X202937049Y-51445515D01*
X203007335Y-51561478D01*
X203012733Y-51570349D01*
X203083171Y-51686142D01*
X203148560Y-51793688D01*
X203206971Y-51889814D01*
X203256478Y-51971345D01*
X203295153Y-52035109D01*
X203321069Y-52077930D01*
X203332299Y-52096635D01*
X203344826Y-52108146D01*
X203364121Y-52101059D01*
X203397360Y-52072673D01*
X203410101Y-52060366D01*
X203468054Y-51997731D01*
X203531228Y-51921175D01*
X203592662Y-51839819D01*
X203645394Y-51762781D01*
X203682462Y-51699182D01*
X203740847Y-51559952D01*
X203777233Y-51417276D01*
X203788355Y-51281934D01*
X203775080Y-51156527D01*
X203738272Y-51043654D01*
X203678797Y-50945914D01*
X203597520Y-50865907D01*
X203495306Y-50806234D01*
X203373021Y-50769494D01*
X203265410Y-50763628D01*
X203144307Y-50781660D01*
X203016029Y-50821843D01*
X202886419Y-50882347D01*
X202761320Y-50961338D01*
X202736197Y-50981052D01*
X202706025Y-51010497D01*
X202694853Y-51030414D01*
X202128692Y-51030414D01*
X202151282Y-51023493D01*
X202216157Y-51001172D01*
X202257519Y-50985789D01*
X202383855Y-50929433D01*
X202511659Y-50857129D01*
X202649755Y-50764050D01*
X202773819Y-50674874D01*
X203250620Y-50674874D01*
X203727420Y-50674874D01*
X203802432Y-50755068D01*
G37*
D11*
X161759420Y-109815000D02*
X162040580Y-109815000D01*
X161759420Y-110835000D02*
X162040580Y-110835000D01*
X160365000Y-103140580D02*
X160365000Y-102859420D01*
X161385000Y-103140580D02*
X161385000Y-102859420D01*
X210725000Y-109850000D02*
X210725000Y-110200000D01*
X210750000Y-109850000D02*
X215500000Y-109850000D01*
X210750000Y-112400000D02*
X210750000Y-112750000D01*
X210750000Y-112750000D02*
X215500000Y-112750000D01*
X213556800Y-112036600D02*
X213556800Y-110487200D01*
X215500000Y-112400000D02*
X215500000Y-112750000D01*
X215525000Y-109850000D02*
X215525000Y-110200000D01*
D12*
X213429800Y-111274600D02*
X212617000Y-112011200D01*
X212617000Y-110665000D01*
X213429800Y-111274600D01*
G36*
X213429800Y-111274600D02*
G01*
X212617000Y-112011200D01*
X212617000Y-110665000D01*
X213429800Y-111274600D01*
G37*
D13*
X148965001Y-72682363D02*
X150235001Y-72682363D01*
X149175001Y-74460363D02*
X149175001Y-76965310D01*
X149175001Y-78705390D02*
X149175001Y-78965311D01*
X149175001Y-80705391D02*
X149175001Y-80965310D01*
X149175001Y-82705390D02*
X149175001Y-82965311D01*
X149175001Y-84705391D02*
X149175001Y-87210337D01*
X149175001Y-87210337D02*
X153804961Y-87210337D01*
X149600001Y-74206363D02*
X148965001Y-72682363D01*
X150235001Y-72682363D02*
X149600001Y-74206363D01*
X153804961Y-74460363D02*
X149175001Y-74460363D01*
X157125001Y-85751333D02*
X157125001Y-75919368D01*
D11*
X162252500Y-103237258D02*
X162252500Y-102762742D01*
X163297500Y-103237258D02*
X163297500Y-102762742D01*
X192445000Y-86950000D02*
X192445000Y-89850000D01*
X194350000Y-85045000D02*
X197250000Y-85045000D01*
X194350000Y-91755000D02*
X197250000Y-91755000D01*
X199155000Y-86950000D02*
X199155000Y-89850000D01*
%LPC*%
D16*
X140900000Y-56700000D03*
X149900000Y-56700000D03*
D17*
X155182000Y-45965600D03*
D18*
X155182000Y-45965600D03*
D16*
X188600000Y-121500000D03*
X188600000Y-130500000D03*
D17*
X166325000Y-112100000D03*
D18*
X166325000Y-112100000D03*
D17*
X178825000Y-112100000D03*
D18*
X178825000Y-112100000D03*
D17*
X178825000Y-91300000D03*
D18*
X178825000Y-91300000D03*
D17*
X211856000Y-45965600D03*
D18*
X211856000Y-45965600D03*
D16*
X162625000Y-55925000D03*
X162625000Y-46925000D03*
X215300000Y-57200000D03*
X224300000Y-57200000D03*
X149900000Y-118000000D03*
X140900000Y-118000000D03*
D17*
X211856000Y-130965600D03*
D18*
X211856000Y-130965600D03*
D16*
X224300000Y-118600000D03*
X215300000Y-118600000D03*
D17*
X155182000Y-130965600D03*
D18*
X155182000Y-130965600D03*
D17*
X166325000Y-91300000D03*
D18*
X166325000Y-91300000D03*
D19*
X156175000Y-65275000D03*
X152175000Y-65275000D03*
D20*
X158950000Y-102225000D03*
X158950000Y-103775000D03*
D21*
X151295000Y-107925850D03*
X152565000Y-107925850D03*
X153835000Y-107925850D03*
X155105000Y-107925850D03*
X155105000Y-113374150D03*
X153835000Y-113374150D03*
X152565000Y-113374150D03*
X151295000Y-113374150D03*
D19*
X156000000Y-92325000D03*
X152000000Y-92325000D03*
D22*
X162675000Y-112350000D03*
X161125000Y-112350000D03*
D23*
X162725000Y-108300000D03*
X161075000Y-108300000D03*
D24*
X151650000Y-99075000D03*
X151650000Y-100325000D03*
X151650000Y-101575000D03*
X151650000Y-102825000D03*
D25*
X153944890Y-104725001D03*
X153944890Y-97174999D03*
D19*
X156275000Y-69875000D03*
X152275000Y-69875000D03*
D22*
X162675000Y-110325000D03*
X161125000Y-110325000D03*
D20*
X160875000Y-102225000D03*
X160875000Y-103775000D03*
D19*
X215125000Y-111300000D03*
X211125000Y-111300000D03*
D26*
X149600001Y-77835350D03*
X149600001Y-79835351D03*
X149600001Y-81835350D03*
X149600001Y-83835351D03*
D27*
X155575000Y-86730349D03*
X155575000Y-74940352D03*
D28*
X162775000Y-102175000D03*
X162775000Y-103825000D03*
D29*
X195800000Y-88400000D03*
D30*
X193260000Y-90940000D03*
X198340000Y-90940000D03*
X193260000Y-85860000D03*
X198340000Y-85860000D03*
%LPD*%
M02*
