  0
SECTION
  2
HEADER
  9
$ANGBASE
  50
0.0
  9
$ANGDIR
  70
1
  9
$MEASUREMENT
  70
1
  0
ENDSEC
  0
SECTION
  2
TABLES
  0
TABLE
  2
LTYPE
  70
4
  0
LTYPE
  5
40F
  2
CONTINUOUS
  70
0
  3
Solid line
  72
65
  73
0
  40
0.0
  0
LTYPE
  5
410
  2
DASHDOT
 70
0
  3
Dash Dot ____ _ ____ _
 72
65
 73
4
 40
2.0
 49
1.25
 49
-0.25
 49
0.25
 49
-0.25
  0
LTYPE
  5
411
  2
DASHED
 70
0
  3
Dashed __ __ __ __ __
 72
65
 73
2
 40
0.75
 49
0.5
 49
-0.25
  0
LTYPE
  5
43B
  2
DOTTED
 70
0
  3
Dotted .  .  .  .
 72
65
 73
2
 40
0.2
 49
0.0
 49
-0.2
  0
ENDTAB
  0
TABLE
  2
STYLE
  70
4
  0
STYLE
  2
KICAD
  70
0
  40
0
  41
1
  42
1
  50
0
  71
0
  3
isocp.shx
  0
STYLE
  2
KICADB
  70
0
  40
0
  41
1
  42
1
  50
0
  71
0
  3
isocp.shx
  0
STYLE
  2
KICADI
  70
0
  40
0
  41
1
  42
1
  50
15
  71
0
  3
isocp.shx
  0
STYLE
  2
KICADBI
  70
0
  40
0
  41
1
  42
1
  50
15
  71
0
  3
isocp.shx
  0
ENDTAB
  0
TABLE
  2
LAYER
  70
1
  0
LAYER
  2
BLACK
  70
0
  62
7
  6
CONTINUOUS
  0
ENDTAB
  0
ENDSEC
  0
SECTION
  2
ENTITIES
0
LINE
8
BLACK
6
CONTINUOUS
10
112.95
20
-107.55
11
112.95
21
-108.15
0
LINE
8
BLACK
6
CONTINUOUS
10
86.35
20
-102.25
11
91.25
21
-102.25
0
LINE
8
BLACK
6
CONTINUOUS
10
106.05
20
-114.45
11
104.75
21
-115.75
0
ARC
8
BLACK
10
92.15
20
-94.05
40
2.6
50
45
51
90
0
LINE
8
BLACK
6
CONTINUOUS
10
104.75
20
-88.25
11
106.92
21
-86.08
0
LINE
8
BLACK
6
CONTINUOUS
10
92.15
20
-107.55
11
91.25
21
-106.65
0
LINE
8
BLACK
6
CONTINUOUS
10
106.92
20
-86.08
11
106.92
21
-82.08
0
LINE
8
BLACK
6
CONTINUOUS
10
114.788
20
-113.688
11
111.683
21
-116.786
0
LINE
8
BLACK
6
CONTINUOUS
10
108.85
20
-94.45
11
106.05
21
-94.45
0
ARC
8
BLACK
10
95.1359
20
-114.802
40
2.65
50
-90.0002
51
-45.0005
0
LINE
8
BLACK
6
CONTINUOUS
10
120.92
20
-100.08
11
118.75
21
-102.25
0
LINE
8
BLACK
6
CONTINUOUS
10
92.55
20
-98.15
11
92.55
21
-100.95
0
LINE
8
BLACK
6
CONTINUOUS
10
86.35
20
-102.25
11
84.18
21
-100.08
0
LINE
8
BLACK
6
CONTINUOUS
10
106.92
20
-126.82
11
98.18
21
-126.82
0
LINE
8
BLACK
6
CONTINUOUS
10
92.55
20
-100.95
11
91.25
21
-102.25
0
LINE
8
BLACK
6
CONTINUOUS
10
100.35
20
-120.65
11
98.18
21
-122.82
0
LINE
8
BLACK
6
CONTINUOUS
10
114.788
20
-110.012
11
112.95
21
-108.15
0
LINE
8
BLACK
6
CONTINUOUS
10
106.05
20
-94.45
11
104.75
21
-93.15
0
LINE
8
BLACK
6
CONTINUOUS
10
108.006
20
-116.786
11
107.95
21
-116.75
0
LINE
8
BLACK
6
CONTINUOUS
10
84.18
20
-108.82
11
80.18
21
-108.82
0
ARC
8
BLACK
10
92.15
20
-94.05
40
2.6
50
-180
51
-135
0
LINE
8
BLACK
6
CONTINUOUS
10
99.05
20
-114.45
11
97.55
21
-114.45
0
LINE
8
BLACK
6
CONTINUOUS
10
120.92
20
-100.08
11
124.92
21
-100.08
0
LINE
8
BLACK
6
CONTINUOUS
10
93.9885
20
-92.2115
11
96.25
21
-94.45
0
LINE
8
BLACK
6
CONTINUOUS
10
90.3115
20
-95.8885
11
92.55
21
-98.15
0
LINE
8
BLACK
6
CONTINUOUS
10
98.18
20
-122.82
11
98.18
21
-126.82
0
LINE
8
BLACK
6
CONTINUOUS
10
106.92
20
-122.82
11
106.92
21
-126.82
0
LINE
8
BLACK
6
CONTINUOUS
10
107.95
20
-114.9
11
107.95
21
-116.75
0
LINE
8
BLACK
6
CONTINUOUS
10
90.3262
20
-113.724
11
93.2974
21
-116.69
0
LINE
8
BLACK
6
CONTINUOUS
10
97.1
20
-116.6
11
97.0097
21
-116.676
0
LINE
8
BLACK
6
CONTINUOUS
10
84.18
20
-100.08
11
80.18
21
-100.08
0
ARC
8
BLACK
10
92.2
20
-111.85
40
2.65
50
-180
51
-135
0
LINE
8
BLACK
6
CONTINUOUS
10
118.75
20
-106.65
11
113.85
21
-106.65
0
LINE
8
BLACK
6
CONTINUOUS
10
113.85
20
-102.25
11
118.75
21
-102.25
0
ARC
8
BLACK
10
92.15
20
-94.05
40
2.6
50
90
51
180
0
LINE
8
BLACK
6
CONTINUOUS
10
106.05
20
-114.45
11
107.5
21
-114.45
0
LINE
8
BLACK
6
CONTINUOUS
10
99.05
20
-94.45
11
100.35
21
-93.15
0
LINE
8
BLACK
6
CONTINUOUS
10
104.75
20
-115.75
11
104.75
21
-120.65
0
LINE
8
BLACK
6
CONTINUOUS
10
114.788
20
-95.8885
11
112.55
21
-98.1
0
LINE
8
BLACK
6
CONTINUOUS
10
124.92
20
-100.08
11
124.92
21
-108.82
0
ARC
8
BLACK
10
92.15
20
-111.85
40
2.6
50
135
51
180
0
LINE
8
BLACK
6
CONTINUOUS
10
112.55
20
-100.95
11
113.85
21
-102.25
0
ARC
8
BLACK
10
112.95
20
-94.05
40
2.6
50
-45
51
-0
0
ARC
8
BLACK
10
112.95
20
-111.85
40
2.6
50
-45
51
-0
0
LINE
8
BLACK
6
CONTINUOUS
10
98.18
20
-86.08
11
100.35
21
-88.25
0
ARC
8
BLACK
10
95.1359
20
-114.852
40
2.60002
50
-135
51
-90.0002
0
LINE
8
BLACK
6
CONTINUOUS
10
97.1
20
-114.9
11
97.1
21
-116.6
0
LINE
8
BLACK
6
CONTINUOUS
10
112.55
20
-98.1
11
112.55
21
-100.95
0
ARC
8
BLACK
10
112.95
20
-94.05
40
2.6
50
-0
51
90
0
LINE
8
BLACK
6
CONTINUOUS
10
107.5
20
-114.45
11
107.95
21
-114.9
0
ARC
8
BLACK
10
109.845
20
-114.948
40
2.60001
50
-135
51
-90.0005
0
LINE
8
BLACK
6
CONTINUOUS
10
100.35
20
-93.15
11
100.35
21
-88.25
0
ARC
8
BLACK
10
109.845
20
-114.948
40
2.59999
50
-90.0005
51
-45.0006
0
LINE
8
BLACK
6
CONTINUOUS
10
98.18
20
-86.08
11
98.18
21
-82.08
0
LINE
8
BLACK
6
CONTINUOUS
10
98.18
20
-82.08
11
106.92
21
-82.08
0
LINE
8
BLACK
6
CONTINUOUS
10
97.55
20
-114.45
11
97.1
21
-114.9
0
LINE
8
BLACK
6
CONTINUOUS
10
99.05
20
-114.45
11
100.35
21
-115.75
0
LINE
8
BLACK
6
CONTINUOUS
10
84.18
20
-108.82
11
86.35
21
-106.65
0
LINE
8
BLACK
6
CONTINUOUS
10
90.3115
20
-110.012
11
92.15
21
-108.15
0
ARC
8
BLACK
10
112.95
20
-94.05
40
2.6
50
90
51
135
0
ARC
8
BLACK
10
112.95
20
-111.85
40
2.6
50
-0
51
45
0
LINE
8
BLACK
6
CONTINUOUS
10
118.75
20
-106.65
11
120.92
21
-108.82
0
LINE
8
BLACK
6
CONTINUOUS
10
104.75
20
-88.25
11
104.75
21
-93.15
0
LINE
8
BLACK
6
CONTINUOUS
10
91.25
20
-106.65
11
86.35
21
-106.65
0
LINE
8
BLACK
6
CONTINUOUS
10
80.18
20
-108.82
11
80.18
21
-100.08
0
LINE
8
BLACK
6
CONTINUOUS
10
92.15
20
-107.55
11
92.15
21
-108.15
0
LINE
8
BLACK
6
CONTINUOUS
10
120.92
20
-108.82
11
124.92
21
-108.82
0
LINE
8
BLACK
6
CONTINUOUS
10
111.112
20
-92.2115
11
108.85
21
-94.45
0
LINE
8
BLACK
6
CONTINUOUS
10
96.25
20
-94.45
11
99.05
21
-94.45
0
LINE
8
BLACK
6
CONTINUOUS
10
100.35
20
-120.65
11
100.35
21
-115.75
0
LINE
8
BLACK
6
CONTINUOUS
10
106.92
20
-122.82
11
104.75
21
-120.65
0
LINE
8
BLACK
6
CONTINUOUS
10
112.95
20
-107.55
11
113.85
21
-106.65
0
LINE
8
BLACK
6
CONTINUOUS
10
82.7378
20
-129.985
11
82.7378
21
-127.985
0
LINE
8
BLACK
6
CONTINUOUS
10
82.7378
20
-127.985
11
83.214
21
-127.985
0
LINE
8
BLACK
6
CONTINUOUS
10
83.214
20
-127.985
11
83.4997
21
-128.08
0
LINE
8
BLACK
6
CONTINUOUS
10
83.4997
20
-128.08
11
83.6901
21
-128.271
0
LINE
8
BLACK
6
CONTINUOUS
10
83.6901
20
-128.271
11
83.7854
21
-128.461
0
LINE
8
BLACK
6
CONTINUOUS
10
83.7854
20
-128.461
11
83.8806
21
-128.842
0
LINE
8
BLACK
6
CONTINUOUS
10
83.8806
20
-128.842
11
83.8806
21
-129.128
0
LINE
8
BLACK
6
CONTINUOUS
10
83.8806
20
-129.128
11
83.7854
21
-129.509
0
LINE
8
BLACK
6
CONTINUOUS
10
83.7854
20
-129.509
11
83.6901
21
-129.699
0
LINE
8
BLACK
6
CONTINUOUS
10
83.6901
20
-129.699
11
83.4997
21
-129.89
0
LINE
8
BLACK
6
CONTINUOUS
10
83.4997
20
-129.89
11
83.214
21
-129.985
0
LINE
8
BLACK
6
CONTINUOUS
10
83.214
20
-129.985
11
82.7378
21
-129.985
0
LINE
8
BLACK
6
CONTINUOUS
10
84.7378
20
-129.985
11
84.7378
21
-128.652
0
LINE
8
BLACK
6
CONTINUOUS
10
84.7378
20
-129.032
11
84.833
21
-128.842
0
LINE
8
BLACK
6
CONTINUOUS
10
84.833
20
-128.842
11
84.9282
21
-128.747
0
LINE
8
BLACK
6
CONTINUOUS
10
84.9282
20
-128.747
11
85.1187
21
-128.652
0
LINE
8
BLACK
6
CONTINUOUS
10
85.1187
20
-128.652
11
85.3092
21
-128.652
0
LINE
8
BLACK
6
CONTINUOUS
10
85.9759
20
-129.985
11
85.9759
21
-128.652
0
LINE
8
BLACK
6
CONTINUOUS
10
85.9759
20
-127.985
11
85.8806
21
-128.08
0
LINE
8
BLACK
6
CONTINUOUS
10
85.8806
20
-128.08
11
85.9759
21
-128.175
0
LINE
8
BLACK
6
CONTINUOUS
10
85.9759
20
-128.175
11
86.0711
21
-128.08
0
LINE
8
BLACK
6
CONTINUOUS
10
86.0711
20
-128.08
11
85.9759
21
-127.985
0
LINE
8
BLACK
6
CONTINUOUS
10
85.9759
20
-127.985
11
85.9759
21
-128.175
0
LINE
8
BLACK
6
CONTINUOUS
10
87.214
20
-129.985
11
87.0235
21
-129.89
0
LINE
8
BLACK
6
CONTINUOUS
10
87.0235
20
-129.89
11
86.9282
21
-129.699
0
LINE
8
BLACK
6
CONTINUOUS
10
86.9282
20
-129.699
11
86.9282
21
-127.985
0
LINE
8
BLACK
6
CONTINUOUS
10
88.2616
20
-129.985
11
88.0711
21
-129.89
0
LINE
8
BLACK
6
CONTINUOUS
10
88.0711
20
-129.89
11
87.9759
21
-129.699
0
LINE
8
BLACK
6
CONTINUOUS
10
87.9759
20
-129.699
11
87.9759
21
-127.985
0
LINE
8
BLACK
6
CONTINUOUS
10
90.5473
20
-129.985
11
90.5473
21
-127.985
0
LINE
8
BLACK
6
CONTINUOUS
10
90.5473
20
-127.985
11
91.214
21
-129.413
0
LINE
8
BLACK
6
CONTINUOUS
10
91.214
20
-129.413
11
91.8806
21
-127.985
0
LINE
8
BLACK
6
CONTINUOUS
10
91.8806
20
-127.985
11
91.8806
21
-129.985
0
LINE
8
BLACK
6
CONTINUOUS
10
93.6901
20
-129.985
11
93.6901
21
-128.937
0
LINE
8
BLACK
6
CONTINUOUS
10
93.6901
20
-128.937
11
93.5949
21
-128.747
0
LINE
8
BLACK
6
CONTINUOUS
10
93.5949
20
-128.747
11
93.4044
21
-128.652
0
LINE
8
BLACK
6
CONTINUOUS
10
93.4044
20
-128.652
11
93.0235
21
-128.652
0
LINE
8
BLACK
6
CONTINUOUS
10
93.0235
20
-128.652
11
92.833
21
-128.747
0
LINE
8
BLACK
6
CONTINUOUS
10
93.6901
20
-129.89
11
93.4997
21
-129.985
0
LINE
8
BLACK
6
CONTINUOUS
10
93.4997
20
-129.985
11
93.0235
21
-129.985
0
LINE
8
BLACK
6
CONTINUOUS
10
93.0235
20
-129.985
11
92.833
21
-129.89
0
LINE
8
BLACK
6
CONTINUOUS
10
92.833
20
-129.89
11
92.7378
21
-129.699
0
LINE
8
BLACK
6
CONTINUOUS
10
92.7378
20
-129.699
11
92.7378
21
-129.509
0
LINE
8
BLACK
6
CONTINUOUS
10
92.7378
20
-129.509
11
92.833
21
-129.318
0
LINE
8
BLACK
6
CONTINUOUS
10
92.833
20
-129.318
11
93.0235
21
-129.223
0
LINE
8
BLACK
6
CONTINUOUS
10
93.0235
20
-129.223
11
93.4997
21
-129.223
0
LINE
8
BLACK
6
CONTINUOUS
10
93.4997
20
-129.223
11
93.6901
21
-129.128
0
LINE
8
BLACK
6
CONTINUOUS
10
94.6425
20
-128.652
11
94.6425
21
-130.652
0
LINE
8
BLACK
6
CONTINUOUS
10
94.6425
20
-128.747
11
94.833
21
-128.652
0
LINE
8
BLACK
6
CONTINUOUS
10
94.833
20
-128.652
11
95.214
21
-128.652
0
LINE
8
BLACK
6
CONTINUOUS
10
95.214
20
-128.652
11
95.4044
21
-128.747
0
LINE
8
BLACK
6
CONTINUOUS
10
95.4044
20
-128.747
11
95.4997
21
-128.842
0
LINE
8
BLACK
6
CONTINUOUS
10
95.4997
20
-128.842
11
95.5949
21
-129.032
0
LINE
8
BLACK
6
CONTINUOUS
10
95.5949
20
-129.032
11
95.5949
21
-129.604
0
LINE
8
BLACK
6
CONTINUOUS
10
95.5949
20
-129.604
11
95.4997
21
-129.794
0
LINE
8
BLACK
6
CONTINUOUS
10
95.4997
20
-129.794
11
95.4044
21
-129.89
0
LINE
8
BLACK
6
CONTINUOUS
10
95.4044
20
-129.89
11
95.214
21
-129.985
0
LINE
8
BLACK
6
CONTINUOUS
10
95.214
20
-129.985
11
94.833
21
-129.985
0
LINE
8
BLACK
6
CONTINUOUS
10
94.833
20
-129.985
11
94.6425
21
-129.89
0
LINE
8
BLACK
6
CONTINUOUS
10
96.4521
20
-129.794
11
96.5473
21
-129.89
0
LINE
8
BLACK
6
CONTINUOUS
10
96.5473
20
-129.89
11
96.4521
21
-129.985
0
LINE
8
BLACK
6
CONTINUOUS
10
96.4521
20
-129.985
11
96.3568
21
-129.89
0
LINE
8
BLACK
6
CONTINUOUS
10
96.3568
20
-129.89
11
96.4521
21
-129.794
0
LINE
8
BLACK
6
CONTINUOUS
10
96.4521
20
-129.794
11
96.4521
21
-129.985
0
LINE
8
BLACK
6
CONTINUOUS
10
96.4521
20
-128.747
11
96.5473
21
-128.842
0
LINE
8
BLACK
6
CONTINUOUS
10
96.5473
20
-128.842
11
96.4521
21
-128.937
0
LINE
8
BLACK
6
CONTINUOUS
10
96.4521
20
-128.937
11
96.3568
21
-128.842
0
LINE
8
BLACK
6
CONTINUOUS
10
96.3568
20
-128.842
11
96.4521
21
-128.747
0
LINE
8
BLACK
6
CONTINUOUS
10
96.4521
20
-128.747
11
96.4521
21
-128.937
  0
ENDSEC
  0
EOF
