0
SECTION
2
HEADER
9
$INSUNITS
70
4
9
$ACADVER
1
AC1014
9
$HANDSEED
5
FFFF
0
ENDSEC
0
SECTION
2
TABLES
0
TABLE
2
VPORT
5
8
100
AcDbSymbolTable
0
ENDTAB
0
TABLE
2
LTYPE
5
5
100
AcDbSymbolTable
0
LTYPE
5
14
100
AcDbSymbolTableRecord
100
AcDbLinetypeTableRecord
2
BYBLOCK
70
0
0
LTYPE
5
15
100
AcDbSymbolTableRecord
100
AcDbLinetypeTableRecord
2
BYLAYER
70
0
0
ENDTAB
0
TABLE
2
LAYER
5
2
100
AcDbSymbolTable
70
2
0
LAYER
5
50
100
AcDbSymbolTableRecord
100
AcDbLayerTableRecord
2
0
70
0
6
CONTINUOUS
0
ENDTAB
0
TABLE
2
STYLE
5
3
100
AcDbSymbolTable
70
1
0
STYLE
5
11
100
AcDbSymbolTableRecord
100
AcDbTextStyleTableRecord
2
STANDARD
70
0
0
ENDTAB
0
TABLE
2
VIEW
5
6
100
AcDbSymbolTable
70
0
0
ENDTAB
0
TABLE
2
UCS
5
7
100
AcDbSymbolTable
70
0
0
ENDTAB
0
TABLE
2
APPID
5
9
100
AcDbSymbolTable
70
2
0
APPID
5
12
100
AcDbSymbolTableRecord
100
AcDbRegAppTableRecord
2
ACAD
70
0
0
ENDTAB
0
TABLE
2
DIMSTYLE
5
A
100
AcDbSymbolTable
70
1
0
ENDTAB
0
TABLE
2
BLOCK_RECORD
5
1
100
AcDbSymbolTable
70
1
0
BLOCK_RECORD
5
1F
100
AcDbSymbolTableRecord
100
AcDbBlockTableRecord
2
*MODEL_SPACE
0
BLOCK_RECORD
5
1B
100
AcDbSymbolTableRecord
100
AcDbBlockTableRecord
2
*PAPER_SPACE
0
ENDTAB
0
ENDSEC
0
SECTION
2
BLOCKS
0
BLOCK
5
20
100
AcDbEntity
100
AcDbBlockBegin
2
*MODEL_SPACE
0
ENDBLK
5
21
100
AcDbEntity
100
AcDbBlockEnd
0
BLOCK
5
1C
100
AcDbEntity
100
AcDbBlockBegin
2
*PAPER_SPACE
0
ENDBLK
5
1D
100
AcDbEntity
100
AcDbBlockEnd
0
ENDSEC
0
SECTION
2
ENTITIES
0
CIRCLE
5
100
100
AcDbEntity
8
0
100
AcDbCircle
10
-92.15000000000002
20
111.85000000000001
30
0
40
1.0999999999999943
210
0
220
0
230
1
0
CIRCLE
5
101
100
AcDbEntity
8
0
100
AcDbCircle
10
-112.95000000000002
20
94.049999999999997
30
0
40
1.0999999999999943
210
0
220
0
230
1
0
CIRCLE
5
102
100
AcDbEntity
8
0
100
AcDbCircle
10
-112.95000000000002
20
111.85000000000001
30
0
40
1.0999999999999943
210
0
220
0
230
1
0
CIRCLE
5
103
100
AcDbEntity
8
0
100
AcDbCircle
10
-92.15000000000002
20
94.049999999999997
30
0
40
1.0999999999999943
210
0
220
0
230
1
0
LWPOLYLINE
5
104
100
AcDbEntity
8
0
100
AcDbPolyline
90
132
70
1
43
0.0
10
-99.050000000000011
20
114.45
10
-100.34999999999999
20
115.75000000000001
10
-104.75000000000001
20
115.75000000000001
10
-106.05000000000001
20
114.45
10
-107.5
20
114.45
10
-107.95000000000002
20
114.90000000000002
10
-107.95000000000002
20
116.75
10
-108.00649900000002
20
116.78639099999999
10
-108.26219700000001
20
117.01063300000001
10
-108.54497600000002
20
117.19958200000001
10
-108.849999
20
117.350005
10
-109.17204700000001
20
117.459328
10
-109.505608
20
117.52567999999999
10
-109.844977
20
117.54791300000001
10
-110.184347
20
117.52567300000001
10
-110.51791000000001
20
117.45932600000002
10
-110.83996
20
117.35000800000002
10
-111.14498500000002
20
117.19959000000001
10
-111.427768
20
117.010644
10
-111.68345500000001
20
116.78639099999999
10
-114.788478
20
113.688478
10
-115.012719
20
113.43277999999999
10
-115.20166700000001
20
113.15000000000001
10
-115.352087
20
112.84497700000001
10
-115.46140800000002
20
112.52293000000002
10
-115.52775699999999
20
112.18936800000002
10
-115.55
20
111.85000000000001
10
-115.52775699999999
20
111.51063200000002
10
-115.46140700000001
20
111.17707000000001
10
-115.352087
20
110.85502300000002
10
-115.20166600000002
20
110.55
10
-115.012719
20
110.26721999999999
10
-114.788478
20
110.011522
10
-112.95000000000002
20
108.15000000000001
10
-112.95000000000002
20
107.55000000000001
10
-113.84999999999999
20
106.65000000000001
10
-113.84999999999999
20
102.25000000000001
10
-112.55000000000001
20
100.95
10
-112.55000000000001
20
98.100000000000009
10
-114.788478
20
95.888478000000021
10
-115.012719
20
95.632779999999997
10
-115.20166700000001
20
95.349999999999994
10
-115.352087
20
95.044977000000003
10
-115.46140800000002
20
94.722930000000005
10
-115.52775699999999
20
94.389368000000005
10
-115.55
20
94.049999999999997
10
-115.53104300000001
20
93.736604999999997
10
-115.47444900000002
20
93.427779000000001
10
-115.38104199999999
20
93.128027000000003
10
-115.25218600000001
20
92.841719999999995
10
-115.08975800000002
20
92.573032000000012
10
-114.89612800000002
20
92.325880999999995
10
-114.67411900000002
20
92.103871999999996
10
-114.426968
20
91.910241999999997
10
-114.15828000000002
20
91.747814000000005
10
-113.871973
20
91.618958000000021
10
-113.57222100000001
20
91.525550999999993
10
-113.26339500000002
20
91.468957000000003
10
-112.95000000000002
20
91.450000000000017
10
-112.61063200000001
20
91.47224300000002
10
-112.27707000000001
20
91.538593000000006
10
-111.95502300000001
20
91.647913000000017
10
-111.65000000000001
20
91.798333999999997
10
-111.36722
20
91.987280999999996
10
-111.11152199999999
20
92.211522000000002
10
-108.84999999999999
20
94.450000000000003
10
-106.05000000000001
20
94.450000000000003
10
-104.75000000000001
20
93.150000000000006
10
-100.34999999999999
20
93.150000000000006
10
-99.050000000000011
20
94.450000000000003
10
-96.25
20
94.450000000000003
10
-93.988478000000001
20
92.211522000000002
10
-93.732780000000005
20
91.987280999999996
10
-93.450000000000003
20
91.798333
10
-93.144977000000011
20
91.647913000000017
10
-92.822930000000014
20
91.538591999999994
10
-92.489368000000013
20
91.47224300000002
10
-92.15000000000002
20
91.450000000000017
10
-91.836605000000006
20
91.468957000000003
10
-91.52777900000001
20
91.525550999999993
10
-91.228026999999997
20
91.618958000000021
10
-90.941720000000004
20
91.747814000000005
10
-90.673032000000006
20
91.910241999999997
10
-90.425881000000018
20
92.103871999999996
10
-90.203872000000004
20
92.325880999999995
10
-90.010242000000019
20
92.573032000000012
10
-89.847814000000014
20
92.841719999999995
10
-89.718958000000001
20
93.128027000000003
10
-89.625551000000016
20
93.427779000000001
10
-89.568957000000012
20
93.736604999999997
10
-89.549999999999997
20
94.049999999999997
10
-89.572243
20
94.389368000000005
10
-89.638593000000014
20
94.722930000000005
10
-89.747912999999997
20
95.044977000000003
10
-89.898334000000006
20
95.349999999999994
10
-90.087281000000004
20
95.632779999999997
10
-90.311521999999997
20
95.888478000000021
10
-92.550000000000011
20
98.150000000000006
10
-92.550000000000011
20
100.95
10
-91.25
20
102.25000000000001
10
-91.25
20
106.65000000000001
10
-92.15000000000002
20
107.55000000000001
10
-92.15000000000002
20
108.15000000000001
10
-90.311521999999997
20
110.011522
10
-90.087281000000004
20
110.26721999999999
10
-89.898332999999994
20
110.55
10
-89.747912999999997
20
110.85502300000002
10
-89.638592000000003
20
111.17707000000001
10
-89.572243
20
111.51063200000002
10
-89.549999999999997
20
111.85000000000001
10
-89.572671000000014
20
112.19589400000001
10
-89.640297000000004
20
112.53587000000002
10
-89.751718999999994
20
112.86411100000001
10
-89.905033000000003
20
113.17500000000001
10
-90.097614000000007
20
113.463218
10
-90.326166999999998
20
113.72383300000001
10
-93.297410999999997
20
116.690197
10
-93.553109000000006
20
116.91443800000002
10
-93.835888999999995
20
117.103385
10
-94.140912
20
117.25380600000001
10
-94.46296000000001
20
117.36312700000001
10
-94.796521000000013
20
117.42947700000002
10
-95.135889000000006
20
117.45171900000001
10
-95.481784000000005
20
117.42904900000001
10
-95.821760999999995
20
117.36142600000001
10
-96.150002999999998
20
117.250004
10
-96.46089400000001
20
117.09669300000002
10
-96.749114000000006
20
116.90411300000001
10
-97.009722000000011
20
116.67555200000001
10
-97.100000000000009
20
116.59999999999999
10
-97.100000000000009
20
114.90000000000002
10
-97.550000000000011
20
114.45
0
LWPOLYLINE
5
105
100
AcDbEntity
8
0
100
AcDbPolyline
90
4
70
1
43
0.0
10
-89.472657152899387
20
91.307685970956612
10
-115.59167180389457
20
91.307685970956612
10
-115.59167180389457
20
119.58953080732243
10
-89.472657152899387
20
119.58953080732243
0
ENDSEC
0
SECTION
2
OBJECTS
0
DICTIONARY
5
C
100
AcDbDictionary
3
ACAD_GROUP
350
D
3
ACAD_MLINESTYLE
350
17
0
DICTIONARY
5
D
100
AcDbDictionary
0
DICTIONARY
5
1A
330
C
100
AcDbDictionary
0
DICTIONARY
5
17
100
AcDbDictionary
0
ENDSEC
0
EOF
