M48
; DRILL file {KiCad 8.0.8} date 2025-03-15T17:23:23-0700
; FORMAT={-:-/ absolute / metric / decimal}
; #@! TF.CreationDate,2025-03-15T17:23:23-07:00
; #@! TF.GenerationSoftware,Kicad,Pcbnew,8.0.8
; #@! TF.FileFunction,Plated,1,2,PTH
FMAT,2
METRIC
; #@! TA.AperFunction,Plated,PTH,ViaDrill
T1C0.400
; #@! TA.AperFunction,Plated,PTH,ComponentDrill
T2C2.000
; #@! TA.AperFunction,Plated,PTH,ComponentDrill
T3C2.200
%
G90
G05
T1
X40.145Y-27.375
X42.175Y-27.285
X44.135Y-27.205
X46.145Y-27.315
X48.175Y-27.285
X50.125Y-27.185
X57.658Y-92.342
X60.565Y-196.355
X60.995Y-194.695
X61.275Y-197.825
X65.815Y-216.525
X67.315Y-217.035
X67.735Y-218.565
X72.595Y-92.456
X83.425Y-30.1
X88.395Y-32.455
T2
X40.5Y-159.0
X40.515Y-123.0
X41.5Y-195.0
X41.585Y-87.0
X49.5Y-159.0
X49.515Y-123.0
X50.5Y-195.0
X50.585Y-87.0
X65.075Y-186.925
X65.36Y-60.75
X72.915Y-198.435
X72.915Y-207.435
X72.915Y-221.075
X72.915Y-230.075
X74.075Y-186.925
X74.36Y-60.75
X88.285Y-96.475
X88.5Y-34.25
X89.805Y-132.995
X89.855Y-169.015
X97.285Y-96.475
X97.5Y-34.25
X98.805Y-132.995
X98.855Y-169.015
T3
X31.075Y-129.155
X31.085Y-25.415
X31.095Y-232.915
X62.0Y-98.0
X62.0Y-114.0
X65.1Y-120.315
X76.045Y-120.315
X78.0Y-98.0
X78.0Y-114.0
X108.075Y-129.165
X108.075Y-232.905
X108.095Y-25.405
M30
