%TF.GenerationSoftware,KiCad,Pcbnew,7.0.2-0*%
%TF.CreationDate,2024-05-08T20:31:55-07:00*%
%TF.ProjectId,new_X_Y_Panels,6e65775f-585f-4595-9f50-616e656c732e,1b*%
%TF.SameCoordinates,Original*%
%TF.FileFunction,Soldermask,Top*%
%TF.FilePolarity,Negative*%
%FSLAX46Y46*%
G04 Gerber Fmt 4.6, Leading zero omitted, Abs format (unit mm)*
G04 Created by KiCad (PCBNEW 7.0.2-0) date 2024-05-08 20:31:55*
%MOMM*%
%LPD*%
G01*
G04 APERTURE LIST*
%ADD10C,0.150000*%
%ADD11C,0.010000*%
%ADD12C,2.600000*%
%ADD13C,3.800000*%
%ADD14C,3.000000*%
%ADD15R,2.500000X1.700000*%
%ADD16R,1.700000X2.500000*%
G04 APERTURE END LIST*
D10*
X82679761Y-151555952D02*
X82298809Y-151555952D01*
X82536904Y-152222619D02*
X82536904Y-151365476D01*
X82536904Y-151365476D02*
X82489285Y-151270238D01*
X82489285Y-151270238D02*
X82394047Y-151222619D01*
X82394047Y-151222619D02*
X82298809Y-151222619D01*
X81965475Y-152222619D02*
X81965475Y-151555952D01*
X81965475Y-151222619D02*
X82013094Y-151270238D01*
X82013094Y-151270238D02*
X81965475Y-151317857D01*
X81965475Y-151317857D02*
X81917856Y-151270238D01*
X81917856Y-151270238D02*
X81965475Y-151222619D01*
X81965475Y-151222619D02*
X81965475Y-151317857D01*
X81489285Y-151555952D02*
X81489285Y-152222619D01*
X81489285Y-151651190D02*
X81441666Y-151603571D01*
X81441666Y-151603571D02*
X81346428Y-151555952D01*
X81346428Y-151555952D02*
X81203571Y-151555952D01*
X81203571Y-151555952D02*
X81108333Y-151603571D01*
X81108333Y-151603571D02*
X81060714Y-151698809D01*
X81060714Y-151698809D02*
X81060714Y-152222619D01*
X80584523Y-151555952D02*
X80584523Y-152222619D01*
X80584523Y-151651190D02*
X80536904Y-151603571D01*
X80536904Y-151603571D02*
X80441666Y-151555952D01*
X80441666Y-151555952D02*
X80298809Y-151555952D01*
X80298809Y-151555952D02*
X80203571Y-151603571D01*
X80203571Y-151603571D02*
X80155952Y-151698809D01*
X80155952Y-151698809D02*
X80155952Y-152222619D01*
%TO.C,J2*%
D11*
X53796200Y-33211200D02*
X52293800Y-33211200D01*
X52293800Y-30158800D01*
X53796200Y-30158800D01*
X53796200Y-33211200D01*
G36*
X53796200Y-33211200D02*
G01*
X52293800Y-33211200D01*
X52293800Y-30158800D01*
X53796200Y-30158800D01*
X53796200Y-33211200D01*
G37*
X50776200Y-26511200D02*
X49523800Y-26511200D01*
X49523800Y-24908800D01*
X50776200Y-24908800D01*
X50776200Y-26511200D01*
G36*
X50776200Y-26511200D02*
G01*
X49523800Y-26511200D01*
X49523800Y-24908800D01*
X50776200Y-24908800D01*
X50776200Y-26511200D01*
G37*
X48776200Y-26511200D02*
X47523800Y-26511200D01*
X47523800Y-24908800D01*
X48776200Y-24908800D01*
X48776200Y-26511200D01*
G36*
X48776200Y-26511200D02*
G01*
X47523800Y-26511200D01*
X47523800Y-24908800D01*
X48776200Y-24908800D01*
X48776200Y-26511200D01*
G37*
X46776200Y-26511200D02*
X45523800Y-26511200D01*
X45523800Y-24908800D01*
X46776200Y-24908800D01*
X46776200Y-26511200D01*
G36*
X46776200Y-26511200D02*
G01*
X45523800Y-26511200D01*
X45523800Y-24908800D01*
X46776200Y-24908800D01*
X46776200Y-26511200D01*
G37*
X44776200Y-26511200D02*
X43523800Y-26511200D01*
X43523800Y-24908800D01*
X44776200Y-24908800D01*
X44776200Y-26511200D01*
G36*
X44776200Y-26511200D02*
G01*
X43523800Y-26511200D01*
X43523800Y-24908800D01*
X44776200Y-24908800D01*
X44776200Y-26511200D01*
G37*
X42776200Y-26511200D02*
X41523800Y-26511200D01*
X41523800Y-24908800D01*
X42776200Y-24908800D01*
X42776200Y-26511200D01*
G36*
X42776200Y-26511200D02*
G01*
X41523800Y-26511200D01*
X41523800Y-24908800D01*
X42776200Y-24908800D01*
X42776200Y-26511200D01*
G37*
X40776200Y-26511200D02*
X39523800Y-26511200D01*
X39523800Y-24908800D01*
X40776200Y-24908800D01*
X40776200Y-26511200D01*
G36*
X40776200Y-26511200D02*
G01*
X39523800Y-26511200D01*
X39523800Y-24908800D01*
X40776200Y-24908800D01*
X40776200Y-26511200D01*
G37*
X38006200Y-33211200D02*
X36503800Y-33211200D01*
X36503800Y-30158800D01*
X38006200Y-30158800D01*
X38006200Y-33211200D01*
G36*
X38006200Y-33211200D02*
G01*
X36503800Y-33211200D01*
X36503800Y-30158800D01*
X38006200Y-30158800D01*
X38006200Y-33211200D01*
G37*
%TD*%
D12*
%TO.C,H12*%
X108075000Y-129165000D03*
D13*
X108075000Y-129165000D03*
%TD*%
D14*
%TO.C,SC8*%
X97285000Y-96475000D03*
X88285000Y-96475000D03*
%TD*%
D15*
%TO.C,D14*%
X62198000Y-91694000D03*
X58198000Y-91694000D03*
%TD*%
D16*
%TO.C,D6*%
X65811000Y-222537000D03*
X65811000Y-218537000D03*
%TD*%
D14*
%TO.C,SC2*%
X50585000Y-84275000D03*
X41585000Y-84275000D03*
%TD*%
D15*
%TO.C,D4*%
X48635000Y-161995000D03*
X44635000Y-161995000D03*
%TD*%
%TO.C,D2*%
X71545000Y-22805000D03*
X67545000Y-22805000D03*
%TD*%
D12*
%TO.C,H8*%
X31095000Y-232915000D03*
D13*
X31095000Y-232915000D03*
%TD*%
D14*
%TO.C,SC1*%
X65395000Y-58275000D03*
X74395000Y-58275000D03*
%TD*%
%TO.C,SC12*%
X72915000Y-207435000D03*
X72915000Y-198435000D03*
%TD*%
%TO.C,SC11*%
X74075000Y-186925000D03*
X65075000Y-186925000D03*
%TD*%
D16*
%TO.C,D3*%
X59690000Y-118396000D03*
X59690000Y-122396000D03*
%TD*%
D15*
%TO.C,D11*%
X88985000Y-179835000D03*
X84985000Y-179835000D03*
%TD*%
%TO.C,D5*%
X58815000Y-204335000D03*
X62815000Y-204335000D03*
%TD*%
D14*
%TO.C,SC9*%
X98805000Y-132995000D03*
X89805000Y-132995000D03*
%TD*%
D12*
%TO.C,H9*%
X31075000Y-129155000D03*
D13*
X31075000Y-129155000D03*
%TD*%
D16*
%TO.C,D1*%
X79435000Y-34195000D03*
X79435000Y-38195000D03*
%TD*%
D12*
%TO.C,H3*%
X61666115Y-112421156D03*
D13*
X61666115Y-112421156D03*
%TD*%
D15*
%TO.C,D8*%
X75978000Y-92202000D03*
X79978000Y-92202000D03*
%TD*%
D14*
%TO.C,SC7*%
X88395000Y-34205000D03*
X97395000Y-34205000D03*
%TD*%
D12*
%TO.C,H10*%
X31085000Y-25415000D03*
D13*
X31085000Y-25415000D03*
%TD*%
D12*
%TO.C,H2*%
X76045000Y-120315000D03*
D13*
X76045000Y-120315000D03*
%TD*%
D14*
%TO.C,SC6*%
X72915000Y-230075000D03*
X72915000Y-221075000D03*
%TD*%
D12*
%TO.C,H5*%
X61666115Y-96723386D03*
D13*
X61666115Y-96723386D03*
%TD*%
D14*
%TO.C,SC5*%
X50565000Y-194405000D03*
X41565000Y-194405000D03*
%TD*%
D12*
%TO.C,H7*%
X108075000Y-232905000D03*
D13*
X108075000Y-232905000D03*
%TD*%
D12*
%TO.C,H4*%
X77363885Y-112421156D03*
D13*
X77363885Y-112421156D03*
%TD*%
D15*
%TO.C,D13*%
X87825000Y-27415000D03*
X91825000Y-27415000D03*
%TD*%
D16*
%TO.C,D9*%
X81265000Y-113025000D03*
X81265000Y-117025000D03*
%TD*%
%TO.C,D12*%
X62785000Y-200375000D03*
X62785000Y-196375000D03*
%TD*%
D12*
%TO.C,H11*%
X108095000Y-25405000D03*
D13*
X108095000Y-25405000D03*
%TD*%
D14*
%TO.C,SC4*%
X49435000Y-155595000D03*
X40435000Y-155595000D03*
%TD*%
%TO.C,SC3*%
X49515000Y-119875000D03*
X40515000Y-119875000D03*
%TD*%
D15*
%TO.C,D10*%
X98895000Y-179925000D03*
X94895000Y-179925000D03*
%TD*%
D14*
%TO.C,SC10*%
X98855000Y-169015000D03*
X89855000Y-169015000D03*
%TD*%
D12*
%TO.C,H6*%
X77363885Y-96723386D03*
D13*
X77363885Y-96723386D03*
%TD*%
D12*
%TO.C,H1*%
X65100000Y-120315000D03*
D13*
X65100000Y-120315000D03*
%TD*%
D15*
%TO.C,D7*%
X96835000Y-27325000D03*
X100835000Y-27325000D03*
%TD*%
M02*
