%TF.GenerationSoftware,KiCad,Pcbnew,8.0.8*%
%TF.CreationDate,2025-03-29T21:42:45-04:00*%
%TF.ProjectId,ADCS_board,41444353-5f62-46f6-9172-642e6b696361,v1.2*%
%TF.SameCoordinates,Original*%
%TF.FileFunction,Soldermask,Top*%
%TF.FilePolarity,Negative*%
%FSLAX46Y46*%
G04 Gerber Fmt 4.6, Leading zero omitted, Abs format (unit mm)*
G04 Created by KiCad (PCBNEW 8.0.8) date 2025-03-29 21:42:45*
%MOMM*%
%LPD*%
G01*
G04 APERTURE LIST*
G04 Aperture macros list*
%AMRoundRect*
0 Rectangle with rounded corners*
0 $1 Rounding radius*
0 $2 $3 $4 $5 $6 $7 $8 $9 X,Y pos of 4 corners*
0 Add a 4 corners polygon primitive as box body*
4,1,4,$2,$3,$4,$5,$6,$7,$8,$9,$2,$3,0*
0 Add four circle primitives for the rounded corners*
1,1,$1+$1,$2,$3*
1,1,$1+$1,$4,$5*
1,1,$1+$1,$6,$7*
1,1,$1+$1,$8,$9*
0 Add four rect primitives between the rounded corners*
20,1,$1+$1,$2,$3,$4,$5,0*
20,1,$1+$1,$4,$5,$6,$7,0*
20,1,$1+$1,$6,$7,$8,$9,0*
20,1,$1+$1,$8,$9,$2,$3,0*%
%AMFreePoly0*
4,1,35,0.535921,0.785921,0.550800,0.750000,0.550800,-0.750000,0.535921,-0.785921,0.500000,-0.800800,0.000000,-0.800800,-0.012286,-0.795711,-0.071157,-0.795711,-0.085469,-0.793653,-0.222020,-0.753558,-0.235173,-0.747552,-0.354895,-0.670611,-0.365822,-0.661142,-0.459019,-0.553587,-0.466836,-0.541423,-0.525955,-0.411969,-0.530029,-0.398096,-0.550283,-0.257230,-0.550800,-0.250000,-0.550800,0.250000,
-0.550283,0.257230,-0.530029,0.398096,-0.525955,0.411969,-0.466836,0.541423,-0.459019,0.553587,-0.365822,0.661142,-0.354895,0.670611,-0.235173,0.747552,-0.222020,0.753558,-0.085469,0.793653,-0.071157,0.795711,-0.012286,0.795711,0.000000,0.800800,0.500000,0.800800,0.535921,0.785921,0.535921,0.785921,$1*%
%AMFreePoly1*
4,1,35,0.012286,0.795711,0.071157,0.795711,0.085469,0.793653,0.222020,0.753558,0.235173,0.747552,0.354895,0.670611,0.365822,0.661142,0.459019,0.553587,0.466836,0.541423,0.525955,0.411969,0.530029,0.398096,0.550283,0.257230,0.550800,0.250000,0.550800,-0.250000,0.550283,-0.257230,0.530029,-0.398096,0.525955,-0.411969,0.466836,-0.541423,0.459019,-0.553587,0.365822,-0.661142,
0.354895,-0.670611,0.235173,-0.747552,0.222020,-0.753558,0.085469,-0.793653,0.071157,-0.795711,0.012286,-0.795711,0.000000,-0.800800,-0.500000,-0.800800,-0.535921,-0.785921,-0.550800,-0.750000,-0.550800,0.750000,-0.535921,0.785921,-0.500000,0.800800,0.000000,0.800800,0.012286,0.795711,0.012286,0.795711,$1*%
G04 Aperture macros list end*
%ADD10RoundRect,0.063500X-0.152400X0.800100X-0.152400X-0.800100X0.152400X-0.800100X0.152400X0.800100X0*%
%ADD11RoundRect,0.063500X-1.230000X1.155000X-1.230000X-1.155000X1.230000X-1.155000X1.230000X1.155000X0*%
%ADD12RoundRect,0.250400X-0.275400X0.250400X-0.275400X-0.250400X0.275400X-0.250400X0.275400X0.250400X0*%
%ADD13RoundRect,0.250400X0.275400X-0.250400X0.275400X0.250400X-0.275400X0.250400X-0.275400X-0.250400X0*%
%ADD14RoundRect,0.225400X0.225400X0.300400X-0.225400X0.300400X-0.225400X-0.300400X0.225400X-0.300400X0*%
%ADD15RoundRect,0.250400X0.250400X0.275400X-0.250400X0.275400X-0.250400X-0.275400X0.250400X-0.275400X0*%
%ADD16C,5.701600*%
%ADD17C,2.000000*%
%ADD18RoundRect,0.225400X0.371797X0.053033X0.053033X0.371797X-0.371797X-0.053033X-0.053033X-0.371797X0*%
%ADD19RoundRect,0.225400X-0.300400X0.225400X-0.300400X-0.225400X0.300400X-0.225400X0.300400X0.225400X0*%
%ADD20RoundRect,0.225400X-0.225400X-0.300400X0.225400X-0.300400X0.225400X0.300400X-0.225400X0.300400X0*%
%ADD21RoundRect,0.225400X0.300400X-0.225400X0.300400X0.225400X-0.300400X0.225400X-0.300400X-0.225400X0*%
%ADD22RoundRect,0.270735X-0.392565X-1.455065X0.392565X-1.455065X0.392565X1.455065X-0.392565X1.455065X0*%
%ADD23RoundRect,0.355555X-1.795245X0.445245X-1.795245X-0.445245X1.795245X-0.445245X1.795245X0.445245X0*%
%ADD24RoundRect,0.050800X0.889000X0.165100X-0.889000X0.165100X-0.889000X-0.165100X0.889000X-0.165100X0*%
%ADD25RoundRect,0.250400X-0.250400X-0.275400X0.250400X-0.275400X0.250400X0.275400X-0.250400X0.275400X0*%
%ADD26C,0.701600*%
%ADD27RoundRect,0.050800X0.300000X0.575000X-0.300000X0.575000X-0.300000X-0.575000X0.300000X-0.575000X0*%
%ADD28RoundRect,0.050800X0.150000X0.575000X-0.150000X0.575000X-0.150000X-0.575000X0.150000X-0.575000X0*%
%ADD29O,1.101600X2.201600*%
%ADD30O,1.101600X1.701600*%
%ADD31RoundRect,0.525400X-1.025400X-0.525400X1.025400X-0.525400X1.025400X0.525400X-1.025400X0.525400X0*%
%ADD32RoundRect,0.250400X-0.017678X0.371797X-0.371797X0.017678X0.017678X-0.371797X0.371797X-0.017678X0*%
%ADD33RoundRect,0.050800X0.725000X-0.550000X0.725000X0.550000X-0.725000X0.550000X-0.725000X-0.550000X0*%
%ADD34RoundRect,0.050800X1.449999X-0.675000X1.449999X0.675000X-1.449999X0.675000X-1.449999X-0.675000X0*%
%ADD35C,1.101600*%
%ADD36RoundRect,0.063500X0.152400X-0.381000X0.152400X0.381000X-0.152400X0.381000X-0.152400X-0.381000X0*%
%ADD37RoundRect,0.063500X0.381000X0.152400X-0.381000X0.152400X-0.381000X-0.152400X0.381000X-0.152400X0*%
%ADD38RoundRect,0.063500X-0.152400X0.381000X-0.152400X-0.381000X0.152400X-0.381000X0.152400X0.381000X0*%
%ADD39RoundRect,0.063500X-0.381000X-0.152400X0.381000X-0.152400X0.381000X0.152400X-0.381000X0.152400X0*%
%ADD40RoundRect,0.063500X1.397000X-1.397000X1.397000X1.397000X-1.397000X1.397000X-1.397000X-1.397000X0*%
%ADD41RoundRect,0.125400X0.125400X-0.662900X0.125400X0.662900X-0.125400X0.662900X-0.125400X-0.662900X0*%
%ADD42RoundRect,0.050800X-0.647700X0.419100X-0.647700X-0.419100X0.647700X-0.419100X0.647700X0.419100X0*%
%ADD43RoundRect,0.050800X-1.130300X0.698500X-1.130300X-0.698500X1.130300X-0.698500X1.130300X0.698500X0*%
%ADD44RoundRect,0.050800X0.419100X0.647700X-0.419100X0.647700X-0.419100X-0.647700X0.419100X-0.647700X0*%
%ADD45RoundRect,0.050800X0.698500X1.130300X-0.698500X1.130300X-0.698500X-1.130300X0.698500X-1.130300X0*%
%ADD46RoundRect,0.050800X-0.450000X0.750000X-0.450000X-0.750000X0.450000X-0.750000X0.450000X0.750000X0*%
%ADD47RoundRect,0.050800X-0.100000X0.650000X-0.100000X-0.650000X0.100000X-0.650000X0.100000X0.650000X0*%
%ADD48RoundRect,0.050800X-0.400000X-0.125000X0.400000X-0.125000X0.400000X0.125000X-0.400000X0.125000X0*%
%ADD49RoundRect,0.272087X-0.353713X-0.478713X0.353713X-0.478713X0.353713X0.478713X-0.353713X0.478713X0*%
%ADD50RoundRect,0.080400X0.360400X-0.080400X0.360400X0.080400X-0.360400X0.080400X-0.360400X-0.080400X0*%
%ADD51RoundRect,0.080400X-0.080400X-0.360400X0.080400X-0.360400X0.080400X0.360400X-0.080400X0.360400X0*%
%ADD52RoundRect,0.050800X-0.566666X-0.566666X0.566666X-0.566666X0.566666X0.566666X-0.566666X0.566666X0*%
%ADD53RoundRect,0.175400X-0.175400X0.612900X-0.175400X-0.612900X0.175400X-0.612900X0.175400X0.612900X0*%
%ADD54RoundRect,0.102000X-0.237500X-0.125000X0.237500X-0.125000X0.237500X0.125000X-0.237500X0.125000X0*%
%ADD55RoundRect,0.102000X0.125000X-0.237500X0.125000X0.237500X-0.125000X0.237500X-0.125000X-0.237500X0*%
%ADD56FreePoly0,0.000000*%
%ADD57FreePoly1,0.000000*%
%ADD58RoundRect,0.102000X-0.370000X-1.395000X0.370000X-1.395000X0.370000X1.395000X-0.370000X1.395000X0*%
%ADD59RoundRect,0.050800X-0.700000X-0.600000X0.700000X-0.600000X0.700000X0.600000X-0.700000X0.600000X0*%
%ADD60RoundRect,0.125400X-0.662900X-0.125400X0.662900X-0.125400X0.662900X0.125400X-0.662900X0.125400X0*%
%ADD61RoundRect,0.050800X0.304800X1.104900X-0.304800X1.104900X-0.304800X-1.104900X0.304800X-1.104900X0*%
%ADD62RoundRect,0.050800X0.450000X0.450000X-0.450000X0.450000X-0.450000X-0.450000X0.450000X-0.450000X0*%
%ADD63RoundRect,0.050800X-1.104900X0.304800X-1.104900X-0.304800X1.104900X-0.304800X1.104900X0.304800X0*%
%ADD64RoundRect,0.050800X1.104900X-0.304800X1.104900X0.304800X-1.104900X0.304800X-1.104900X-0.304800X0*%
%ADD65RoundRect,0.175400X0.650400X-0.175400X0.650400X0.175400X-0.650400X0.175400X-0.650400X-0.175400X0*%
%ADD66RoundRect,0.271166X0.679634X-0.379634X0.679634X0.379634X-0.679634X0.379634X-0.679634X-0.379634X0*%
%ADD67RoundRect,0.050800X0.850000X0.850000X-0.850000X0.850000X-0.850000X-0.850000X0.850000X-0.850000X0*%
%ADD68O,1.801600X1.801600*%
%ADD69RoundRect,0.063500X0.406400X0.812800X-0.406400X0.812800X-0.406400X-0.812800X0.406400X-0.812800X0*%
%ADD70RoundRect,0.050800X0.850000X-0.850000X0.850000X0.850000X-0.850000X0.850000X-0.850000X-0.850000X0*%
%ADD71RoundRect,0.225400X-0.371797X-0.053033X-0.053033X-0.371797X0.371797X0.053033X0.053033X0.371797X0*%
%ADD72RoundRect,0.125400X0.662900X0.125400X-0.662900X0.125400X-0.662900X-0.125400X0.662900X-0.125400X0*%
%ADD73RoundRect,0.063500X-0.525000X-0.225000X0.525000X-0.225000X0.525000X0.225000X-0.525000X0.225000X0*%
%ADD74RoundRect,0.063500X1.050000X-1.050000X1.050000X1.050000X-1.050000X1.050000X-1.050000X-1.050000X0*%
%ADD75RoundRect,0.250400X0.371797X0.017678X0.017678X0.371797X-0.371797X-0.017678X-0.017678X-0.371797X0*%
%ADD76RoundRect,0.050800X-0.450000X0.450000X-0.450000X-0.450000X0.450000X-0.450000X0.450000X0.450000X0*%
%ADD77RoundRect,0.250400X-0.371797X-0.017678X-0.017678X-0.371797X0.371797X0.017678X0.017678X0.371797X0*%
%ADD78RoundRect,0.050800X-0.850000X-1.175000X0.850000X-1.175000X0.850000X1.175000X-0.850000X1.175000X0*%
%ADD79RoundRect,0.250400X-0.400400X0.250400X-0.400400X-0.250400X0.400400X-0.250400X0.400400X0.250400X0*%
%ADD80C,2.151600*%
%ADD81C,2.351600*%
%ADD82RoundRect,0.050800X-0.575000X0.575000X-0.575000X-0.575000X0.575000X-0.575000X0.575000X0.575000X0*%
%ADD83C,1.251600*%
G04 APERTURE END LIST*
D10*
X158766134Y-77289496D03*
X158116121Y-77289496D03*
X157466112Y-77289496D03*
X156816100Y-77289496D03*
X156166088Y-77289496D03*
X155516079Y-77289496D03*
X154866066Y-77289496D03*
X154866066Y-82826696D03*
X155516079Y-82826696D03*
X156166088Y-82826696D03*
X156816100Y-82826696D03*
X157466112Y-82826696D03*
X158116121Y-82826696D03*
X158766134Y-82826696D03*
D11*
X156816100Y-80058096D03*
D12*
X151100000Y-86250000D03*
X151100000Y-87800000D03*
D13*
X158050000Y-92975000D03*
X158050000Y-91425000D03*
X158200000Y-86690500D03*
X158200000Y-85140500D03*
D14*
X153606000Y-76517500D03*
X151956000Y-76517500D03*
D15*
X156286500Y-75057000D03*
X154736500Y-75057000D03*
D16*
X107236100Y-57564100D03*
X103426100Y-143294100D03*
X183426100Y-143294100D03*
X180896100Y-57564100D03*
D17*
X100330000Y-146558000D03*
D18*
X148583363Y-63183363D03*
X147416637Y-62016637D03*
D13*
X151600000Y-61200000D03*
X151600000Y-59650000D03*
D19*
X159194500Y-73724000D03*
X159194500Y-75374000D03*
D20*
X142075000Y-61800000D03*
X143725000Y-61800000D03*
D15*
X157493000Y-73279000D03*
X155943000Y-73279000D03*
D19*
X151750000Y-78425000D03*
X151750000Y-80075000D03*
D21*
X160909000Y-75374000D03*
X160909000Y-73724000D03*
D22*
X163637500Y-87300000D03*
X169562500Y-87300000D03*
D23*
X154813000Y-85830000D03*
X154813000Y-89430000D03*
D13*
X160750000Y-81875000D03*
X160750000Y-80325000D03*
X163785950Y-81875000D03*
X163785950Y-80325000D03*
D21*
X169800000Y-92925000D03*
X169800000Y-91275000D03*
D24*
X167944700Y-93400001D03*
X167944700Y-92899999D03*
X167944700Y-92400000D03*
X167944700Y-91900001D03*
X167944700Y-91399999D03*
X163855300Y-91399999D03*
X163855300Y-91900001D03*
X163855300Y-92400000D03*
X163855300Y-92899999D03*
X163855300Y-93400001D03*
D25*
X166375000Y-90000000D03*
X167925000Y-90000000D03*
D26*
X148437000Y-59053000D03*
X142667000Y-59053000D03*
D27*
X148752000Y-60128000D03*
X147952000Y-60128000D03*
D28*
X146802000Y-60128000D03*
X145802000Y-60128000D03*
X145302000Y-60128000D03*
X144302000Y-60128000D03*
D27*
X143152000Y-60128000D03*
X142352000Y-60128000D03*
D28*
X143802000Y-60128000D03*
X144802000Y-60128000D03*
X146302000Y-60128000D03*
X147302000Y-60128000D03*
D29*
X149872000Y-59553000D03*
D30*
X149872000Y-55413000D03*
D29*
X141232000Y-59553000D03*
D30*
X141232000Y-55413000D03*
D31*
X109100000Y-135180000D03*
X109100000Y-137720000D03*
X109100000Y-140260000D03*
X109100000Y-142800000D03*
X124100000Y-135180000D03*
X124100000Y-137720000D03*
X124100000Y-140260000D03*
X124100000Y-142800000D03*
D32*
X147750000Y-111551992D03*
X146653984Y-112648008D03*
D25*
X158525000Y-105100000D03*
X160075000Y-105100000D03*
X150425000Y-120950000D03*
X151975000Y-120950000D03*
D33*
X110750000Y-76671501D03*
X110750000Y-78671502D03*
D34*
X104775001Y-73776503D03*
X104775001Y-81566498D03*
D20*
X141025000Y-83850000D03*
X142675000Y-83850000D03*
D25*
X169132125Y-124544624D03*
X170682125Y-124544624D03*
D13*
X117330000Y-95375000D03*
X117330000Y-93825000D03*
D17*
X186436000Y-54356000D03*
D15*
X143275000Y-103600000D03*
X141725000Y-103600000D03*
D12*
X119300000Y-126175000D03*
X119300000Y-127725000D03*
D14*
X109225000Y-129300000D03*
X107575000Y-129300000D03*
D21*
X164204500Y-77947000D03*
X164204500Y-76297000D03*
D19*
X122920000Y-81975000D03*
X122920000Y-83625000D03*
D35*
X118750000Y-74150000D03*
D25*
X128425000Y-111250000D03*
X129975000Y-111250000D03*
D33*
X110750000Y-110571500D03*
X110750000Y-112571501D03*
D34*
X104775001Y-107676502D03*
X104775001Y-115466497D03*
D14*
X172240000Y-80917000D03*
X170590000Y-80917000D03*
D21*
X148300000Y-93225000D03*
X148300000Y-91575000D03*
D19*
X139700000Y-98175000D03*
X139700000Y-99825000D03*
D36*
X123400000Y-63110000D03*
X123900000Y-63110000D03*
X124400000Y-63110000D03*
X124900000Y-63110000D03*
X125400000Y-63110000D03*
X125900000Y-63110000D03*
X126400000Y-63110000D03*
X126900000Y-63110000D03*
D37*
X127650000Y-62360000D03*
X127650000Y-61860000D03*
X127650000Y-61360000D03*
X127650000Y-60860000D03*
X127650000Y-60360000D03*
X127650000Y-59860000D03*
X127650000Y-59360000D03*
X127650000Y-58860000D03*
D38*
X126900000Y-58110000D03*
X126400000Y-58110000D03*
X125900000Y-58110000D03*
X125400000Y-58110000D03*
X124900000Y-58110000D03*
X124400000Y-58110000D03*
X123900000Y-58110000D03*
X123400000Y-58110000D03*
D39*
X122650000Y-58860000D03*
X122650000Y-59360000D03*
X122650000Y-59860000D03*
X122650000Y-60360000D03*
X122650000Y-60860000D03*
X122650000Y-61360000D03*
X122650000Y-61860000D03*
X122650000Y-62360000D03*
D40*
X125150000Y-60610000D03*
D12*
X119115000Y-90345000D03*
X119115000Y-91895000D03*
D19*
X115000000Y-103075000D03*
X115000000Y-104725000D03*
X121350000Y-101775000D03*
X121350000Y-103425000D03*
D20*
X168377000Y-72877000D03*
X170027000Y-72877000D03*
X171377000Y-72877000D03*
X173027000Y-72877000D03*
D19*
X179250000Y-88925000D03*
X179250000Y-90575000D03*
D12*
X148650000Y-114725000D03*
X148650000Y-116275000D03*
D33*
X110750000Y-121871501D03*
X110750000Y-123871502D03*
D34*
X104775001Y-118976503D03*
X104775001Y-126766498D03*
D20*
X174375000Y-76400000D03*
X176025000Y-76400000D03*
D35*
X166450000Y-103750000D03*
X115000000Y-68500000D03*
D13*
X106300000Y-135725000D03*
X106300000Y-134175000D03*
D20*
X174377000Y-72877000D03*
X176027000Y-72877000D03*
D15*
X172977000Y-69877000D03*
X171427000Y-69877000D03*
D21*
X136700000Y-91675000D03*
X136700000Y-90025000D03*
D15*
X143275000Y-102000000D03*
X141725000Y-102000000D03*
D25*
X153225000Y-96250000D03*
X154775000Y-96250000D03*
D32*
X141248008Y-107851992D03*
X140151992Y-108948008D03*
D19*
X168402000Y-69802000D03*
X168402000Y-71452000D03*
D41*
X164432125Y-132107124D03*
X165082125Y-132107124D03*
X165732125Y-132107124D03*
X166382125Y-132107124D03*
X167032125Y-132107124D03*
X167682125Y-132107124D03*
X168332125Y-132107124D03*
X168982125Y-132107124D03*
X168982125Y-126382124D03*
X168332125Y-126382124D03*
X167682125Y-126382124D03*
X167032125Y-126382124D03*
X166382125Y-126382124D03*
X165732125Y-126382124D03*
X165082125Y-126382124D03*
X164432125Y-126382124D03*
D19*
X174200000Y-82266999D03*
X174200000Y-83916999D03*
D13*
X113800000Y-83375000D03*
X113800000Y-81825000D03*
D21*
X164450000Y-100425000D03*
X164450000Y-98775000D03*
D12*
X157000000Y-108625000D03*
X157000000Y-110175000D03*
D13*
X141000000Y-80375000D03*
X141000000Y-78825000D03*
X114200000Y-95375000D03*
X114200000Y-93825000D03*
D19*
X133400000Y-114275000D03*
X133400000Y-115925000D03*
D15*
X172345000Y-82490000D03*
X170795000Y-82490000D03*
D42*
X176405800Y-132175000D03*
X176405800Y-130925000D03*
X176405800Y-129675000D03*
X176405800Y-128425000D03*
D43*
X178700690Y-126524999D03*
X178700690Y-134075001D03*
D25*
X151400000Y-112600000D03*
X152950000Y-112600000D03*
D44*
X165982125Y-135150424D03*
X167232125Y-135150424D03*
X168482125Y-135150424D03*
X169732125Y-135150424D03*
X170982125Y-135150424D03*
X172232125Y-135150424D03*
D45*
X174132126Y-137445314D03*
X164082124Y-137445314D03*
D13*
X156300000Y-97775000D03*
X156300000Y-96225000D03*
D15*
X134375000Y-95600000D03*
X132825000Y-95600000D03*
D46*
X146600000Y-75100000D03*
X143300000Y-75100000D03*
X143300000Y-80000000D03*
X146600000Y-80000000D03*
D25*
X167795000Y-82490000D03*
X169345000Y-82490000D03*
D47*
X118090126Y-86770188D03*
X117590000Y-86770188D03*
X117089874Y-86770188D03*
D48*
X116190000Y-86920000D03*
X116190000Y-87420126D03*
X116190000Y-87920252D03*
X116190000Y-88420378D03*
D47*
X117089874Y-88570190D03*
X117590000Y-88570190D03*
X118090126Y-88570190D03*
D48*
X118990000Y-88420378D03*
X118990000Y-87920252D03*
X118990000Y-87420126D03*
X118990000Y-86920000D03*
D15*
X179175000Y-76400000D03*
X177625000Y-76400000D03*
X171775000Y-101600000D03*
X170225000Y-101600000D03*
D49*
X153197303Y-94217303D03*
X155247303Y-94217303D03*
D42*
X176405800Y-100675000D03*
X176405800Y-99425000D03*
X176405800Y-98175000D03*
X176405800Y-96925000D03*
D43*
X178700690Y-95024999D03*
X178700690Y-102575001D03*
D14*
X179076001Y-82281999D03*
X177426001Y-82281999D03*
D13*
X104700000Y-135725000D03*
X104700000Y-134175000D03*
D19*
X124100000Y-125775000D03*
X124100000Y-127425000D03*
X114390000Y-89445000D03*
X114390000Y-91095000D03*
D50*
X145563500Y-100343333D03*
X145563500Y-100743333D03*
X145563500Y-101143333D03*
X145563500Y-101543333D03*
X145563500Y-101943333D03*
X145563500Y-102343333D03*
X145563500Y-102743333D03*
X145563500Y-103143333D03*
X145563500Y-103543333D03*
X145563500Y-103943333D03*
X145563500Y-104343333D03*
X145563500Y-104743333D03*
X145563500Y-105143333D03*
X145563500Y-105543333D03*
X145563500Y-105943333D03*
X145563500Y-106343333D03*
X145563500Y-106743333D03*
X145563500Y-107143333D03*
X145563500Y-107543333D03*
X145563500Y-107943333D03*
D51*
X146660000Y-109039833D03*
X147060000Y-109039833D03*
X147460000Y-109039833D03*
X147860000Y-109039833D03*
X148260000Y-109039833D03*
X148660000Y-109039833D03*
X149060000Y-109039833D03*
X149460000Y-109039833D03*
X149860000Y-109039833D03*
X150260000Y-109039833D03*
X150660000Y-109039833D03*
X151060000Y-109039833D03*
X151460000Y-109039833D03*
X151860000Y-109039833D03*
X152260000Y-109039833D03*
X152660000Y-109039833D03*
X153060000Y-109039833D03*
X153460000Y-109039833D03*
X153860000Y-109039833D03*
X154260000Y-109039833D03*
D50*
X155356500Y-107943333D03*
X155356500Y-107543333D03*
X155356500Y-107143333D03*
X155356500Y-106743333D03*
X155356500Y-106343333D03*
X155356500Y-105943333D03*
X155356500Y-105543333D03*
X155356500Y-105143333D03*
X155356500Y-104743333D03*
X155356500Y-104343333D03*
X155356500Y-103943333D03*
X155356500Y-103543333D03*
X155356500Y-103143333D03*
X155356500Y-102743333D03*
X155356500Y-102343333D03*
X155356500Y-101943333D03*
X155356500Y-101543333D03*
X155356500Y-101143333D03*
X155356500Y-100743333D03*
X155356500Y-100343333D03*
D51*
X154260000Y-99246833D03*
X153860000Y-99246833D03*
X153460000Y-99246833D03*
X153060000Y-99246833D03*
X152660000Y-99246833D03*
X152260000Y-99246833D03*
X151860000Y-99246833D03*
X151460000Y-99246833D03*
X151060000Y-99246833D03*
X150660000Y-99246833D03*
X150260000Y-99246833D03*
X149860000Y-99246833D03*
X149460000Y-99246833D03*
X149060000Y-99246833D03*
X148660000Y-99246833D03*
X148260000Y-99246833D03*
X147860000Y-99246833D03*
X147460000Y-99246833D03*
X147060000Y-99246833D03*
X146660000Y-99246833D03*
D26*
X149326667Y-103010000D03*
D52*
X149326667Y-103010000D03*
D26*
X149326667Y-104143333D03*
D52*
X149326667Y-104143333D03*
D26*
X149326667Y-105276666D03*
D52*
X149326667Y-105276666D03*
D26*
X150460000Y-103010000D03*
D52*
X150460000Y-103010000D03*
D26*
X150460000Y-104143333D03*
D52*
X150460000Y-104143333D03*
D26*
X150460000Y-105276666D03*
D52*
X150460000Y-105276666D03*
D26*
X151593333Y-103010000D03*
D52*
X151593333Y-103010000D03*
D26*
X151593333Y-104143333D03*
D52*
X151593333Y-104143333D03*
D26*
X151593333Y-105276666D03*
D52*
X151593333Y-105276666D03*
D15*
X175926001Y-80700000D03*
X174376001Y-80700000D03*
D53*
X152950000Y-71962500D03*
X151050000Y-71962500D03*
X152000000Y-73837500D03*
D47*
X118065000Y-98220000D03*
X117564874Y-98220000D03*
X117064748Y-98220000D03*
D48*
X116164874Y-98369812D03*
X116164874Y-98869938D03*
X116164874Y-99370064D03*
X116164874Y-99870190D03*
D47*
X117064748Y-100020002D03*
X117564874Y-100020002D03*
X118065000Y-100020002D03*
D48*
X118964874Y-99870190D03*
X118964874Y-99370064D03*
X118964874Y-98869938D03*
X118964874Y-98369812D03*
D14*
X179225000Y-78000000D03*
X177575000Y-78000000D03*
D54*
X126075000Y-106600000D03*
X126075000Y-107100000D03*
X126075000Y-107600000D03*
X126075000Y-108100000D03*
D55*
X126737500Y-108262500D03*
X127237500Y-108262500D03*
X127737500Y-108262500D03*
D54*
X128400000Y-108100000D03*
X128400000Y-107600000D03*
X128400000Y-107100000D03*
X128400000Y-106600000D03*
D55*
X127737500Y-106437500D03*
X127237500Y-106437500D03*
X126737500Y-106437500D03*
D20*
X107575000Y-130900000D03*
X109225000Y-130900000D03*
D56*
X127900000Y-120550000D03*
D57*
X129200000Y-120550000D03*
D58*
X141795000Y-125800000D03*
X141795000Y-121730000D03*
X143065000Y-125800000D03*
X143065000Y-121730000D03*
X144335000Y-125800000D03*
X144335000Y-121730000D03*
X145605000Y-121730000D03*
X146875000Y-125800000D03*
X146875000Y-121730000D03*
D59*
X151300000Y-119250000D03*
X153500000Y-119250000D03*
X153500000Y-117550000D03*
X151300000Y-117550000D03*
D25*
X128425000Y-112800000D03*
X129975000Y-112800000D03*
D13*
X115400000Y-83375000D03*
X115400000Y-81825000D03*
D60*
X128700000Y-97000000D03*
X128700000Y-97650000D03*
X128700000Y-98300000D03*
X128700000Y-98950000D03*
X128700000Y-99600000D03*
X128700000Y-100250000D03*
X128700000Y-100900000D03*
X128700000Y-101550000D03*
X134425000Y-101550000D03*
X134425000Y-100900000D03*
X134425000Y-100250000D03*
X134425000Y-99600000D03*
X134425000Y-98950000D03*
X134425000Y-98300000D03*
X134425000Y-97650000D03*
X134425000Y-97000000D03*
D19*
X121900000Y-89675000D03*
X121900000Y-91325000D03*
D61*
X103305000Y-131883800D03*
X102035000Y-131883800D03*
X100765000Y-131883800D03*
X99495000Y-131883800D03*
X99495000Y-137116200D03*
X100765000Y-137116200D03*
X102035000Y-137116200D03*
X103305000Y-137116200D03*
D42*
X176405800Y-111175000D03*
X176405800Y-109925000D03*
X176405800Y-108675000D03*
X176405800Y-107425000D03*
D43*
X178700690Y-105524999D03*
X178700690Y-113075001D03*
D62*
X139750000Y-95200000D03*
X143850000Y-95200000D03*
X139750000Y-93600000D03*
X143850000Y-93600000D03*
D63*
X166583800Y-96406900D03*
X166583800Y-97676900D03*
X166583800Y-98946900D03*
X166583800Y-100216900D03*
X171816200Y-100216900D03*
X171816200Y-98946900D03*
X171816200Y-97676900D03*
X171816200Y-96406900D03*
D64*
X129382400Y-118105000D03*
X129382400Y-116835000D03*
X129382400Y-115565000D03*
X129382400Y-114295000D03*
X124150000Y-114295000D03*
X124150000Y-115565000D03*
X124150000Y-116835000D03*
X124150000Y-118105000D03*
D65*
X121425000Y-112000000D03*
X121425000Y-111000000D03*
X121425000Y-110000000D03*
X121425000Y-109000000D03*
D66*
X118900000Y-113300000D03*
X118900000Y-107700000D03*
D35*
X135300000Y-112900000D03*
D21*
X175901001Y-83916999D03*
X175901001Y-82266999D03*
D13*
X115780000Y-95375000D03*
X115780000Y-93825000D03*
D14*
X176025000Y-78000000D03*
X174375000Y-78000000D03*
D67*
X159800000Y-126220000D03*
D68*
X159800000Y-123680000D03*
X159800000Y-121140000D03*
X159800000Y-118600000D03*
D20*
X128325000Y-64650000D03*
X129975000Y-64650000D03*
D15*
X175926001Y-85341999D03*
X174376001Y-85341999D03*
D21*
X114000000Y-87865000D03*
X114000000Y-86215000D03*
D17*
X100838000Y-54864000D03*
D20*
X172877000Y-71377000D03*
X174527000Y-71377000D03*
D13*
X117600000Y-120175000D03*
X117600000Y-118625000D03*
D69*
X137800000Y-66600000D03*
X136700000Y-66600000D03*
X135600000Y-66600000D03*
X134500000Y-66600000D03*
X133400000Y-66600000D03*
X132300000Y-66600000D03*
X131200000Y-66600000D03*
X128200000Y-66600000D03*
X127100000Y-66600000D03*
X126000000Y-66600000D03*
X124900000Y-66600000D03*
X123800000Y-66600000D03*
X123800000Y-78800000D03*
X124900000Y-78800000D03*
X126000000Y-78800000D03*
X127100000Y-78800000D03*
X128200000Y-78800000D03*
X131200000Y-78800000D03*
X132300000Y-78800000D03*
X133400000Y-78800000D03*
X134500000Y-78800000D03*
X135600000Y-78800000D03*
X136700000Y-78800000D03*
X137800000Y-78800000D03*
D42*
X176405800Y-121675000D03*
X176405800Y-120425000D03*
X176405800Y-119175000D03*
X176405800Y-117925000D03*
D43*
X178700690Y-116024999D03*
X178700690Y-123575001D03*
D21*
X146650000Y-118675000D03*
X146650000Y-117025000D03*
D35*
X160600000Y-111200000D03*
D70*
X130560000Y-131200000D03*
D68*
X133100000Y-131200000D03*
X135640000Y-131200000D03*
X138180000Y-131200000D03*
X140720000Y-131200000D03*
X143260000Y-131200000D03*
X145800000Y-131200000D03*
X148340000Y-131200000D03*
X150880000Y-131200000D03*
X153420000Y-131200000D03*
D71*
X165623762Y-123161261D03*
X166790488Y-124327987D03*
D33*
X110750000Y-87971500D03*
X110750000Y-89971501D03*
D34*
X104775001Y-85076502D03*
X104775001Y-92866497D03*
D64*
X136816200Y-86105000D03*
X136816200Y-84835000D03*
X136816200Y-83565000D03*
X136816200Y-82295000D03*
X131583800Y-82295000D03*
X131583800Y-83565000D03*
X131583800Y-84835000D03*
X131583800Y-86105000D03*
D19*
X138900000Y-82275000D03*
X138900000Y-83925000D03*
D25*
X133025000Y-102900000D03*
X134575000Y-102900000D03*
D19*
X168402000Y-66802000D03*
X168402000Y-68452000D03*
D21*
X165615000Y-73445000D03*
X165615000Y-71795000D03*
D13*
X119200000Y-120175000D03*
X119200000Y-118625000D03*
X147550000Y-96800000D03*
X147550000Y-95250000D03*
D35*
X119000000Y-68450000D03*
X160700000Y-107100000D03*
D19*
X114200000Y-124675000D03*
X114200000Y-126325000D03*
D12*
X122900000Y-101825000D03*
X122900000Y-103375000D03*
D72*
X171885000Y-79170000D03*
X171885000Y-78520000D03*
X171885000Y-77870000D03*
X171885000Y-77220000D03*
X171885000Y-76570000D03*
X171885000Y-75920000D03*
X171885000Y-75270000D03*
X166160000Y-75270000D03*
X166160000Y-75920000D03*
X166160000Y-76570000D03*
X166160000Y-77220000D03*
X166160000Y-77870000D03*
X166160000Y-78520000D03*
X166160000Y-79170000D03*
D64*
X177116200Y-92605000D03*
X177116200Y-91335000D03*
X177116200Y-90065000D03*
X177116200Y-88795000D03*
X171883800Y-88795000D03*
X171883800Y-90065000D03*
X171883800Y-91335000D03*
X171883800Y-92605000D03*
D25*
X158525000Y-103550000D03*
X160075000Y-103550000D03*
D73*
X140160000Y-87295000D03*
X140160000Y-88565000D03*
X140160000Y-89835000D03*
X140160000Y-91105000D03*
X145860000Y-91105000D03*
X145860000Y-89835000D03*
X145860000Y-88565000D03*
X145860000Y-87295000D03*
D74*
X143010000Y-89200000D03*
D15*
X146625000Y-73160000D03*
X145075000Y-73160000D03*
D13*
X116000000Y-119775000D03*
X116000000Y-118225000D03*
D75*
X150748008Y-97298008D03*
X149651992Y-96201992D03*
D76*
X150200000Y-126650000D03*
X150200000Y-122550000D03*
X148600000Y-126650000D03*
X148600000Y-122550000D03*
D12*
X155400000Y-117625000D03*
X155400000Y-119175000D03*
D19*
X124750000Y-81975000D03*
X124750000Y-83625000D03*
D35*
X164700000Y-116000000D03*
D21*
X113800000Y-99625000D03*
X113800000Y-97975000D03*
D20*
X177025000Y-87350000D03*
X178675000Y-87350000D03*
D77*
X166759117Y-122096616D03*
X167855133Y-123192632D03*
D78*
X160900000Y-85500000D03*
X160900000Y-89800000D03*
D44*
X153557124Y-135149734D03*
X154807124Y-135149734D03*
X156057124Y-135149734D03*
X157307124Y-135149734D03*
X158557124Y-135149734D03*
X159807124Y-135149734D03*
D45*
X161707125Y-137444624D03*
X151657123Y-137444624D03*
D19*
X131650000Y-114275000D03*
X131650000Y-115925000D03*
D20*
X169877000Y-71377000D03*
X171527000Y-71377000D03*
D14*
X117325000Y-126025000D03*
X115675000Y-126025000D03*
D33*
X110750000Y-65371500D03*
X110750000Y-67371501D03*
D34*
X104775001Y-62476502D03*
X104775001Y-70266497D03*
D47*
X118200126Y-122050062D03*
X117700000Y-122050062D03*
X117199874Y-122050062D03*
D48*
X116300000Y-122199874D03*
X116300000Y-122700000D03*
X116300000Y-123200126D03*
X116300000Y-123700252D03*
D47*
X117199874Y-123850064D03*
X117700000Y-123850064D03*
X118200126Y-123850064D03*
D48*
X119100000Y-123700252D03*
X119100000Y-123200126D03*
X119100000Y-122700000D03*
X119100000Y-122199874D03*
D15*
X118225000Y-105400000D03*
X116675000Y-105400000D03*
D19*
X115990000Y-90270000D03*
X115990000Y-91920000D03*
D13*
X174200000Y-96375000D03*
X174200000Y-94825000D03*
D25*
X177516001Y-83861999D03*
X179066001Y-83861999D03*
D33*
X110750000Y-99271501D03*
X110750000Y-101271502D03*
D34*
X104775001Y-96376503D03*
X104775001Y-104166498D03*
D20*
X168275000Y-65000000D03*
X169925000Y-65000000D03*
D35*
X164800000Y-111250000D03*
D14*
X167565000Y-80900000D03*
X165915000Y-80900000D03*
D19*
X169902000Y-68302000D03*
X169902000Y-69952000D03*
D21*
X150100000Y-93225000D03*
X150100000Y-91575000D03*
D13*
X159512000Y-97816000D03*
X159512000Y-96266000D03*
D19*
X114200000Y-127875000D03*
X114200000Y-129525000D03*
D14*
X164425000Y-102000000D03*
X162775000Y-102000000D03*
D19*
X135100000Y-90025000D03*
X135100000Y-91675000D03*
D79*
X163600000Y-71300000D03*
X163600000Y-74600000D03*
D19*
X136400000Y-95575000D03*
X136400000Y-97225000D03*
D13*
X171900000Y-87325000D03*
X171900000Y-85775000D03*
D14*
X152925000Y-115150000D03*
X151275000Y-115150000D03*
D19*
X157800000Y-96175000D03*
X157800000Y-97825000D03*
D13*
X145800000Y-86075000D03*
X145800000Y-84525000D03*
D19*
X163107125Y-124919624D03*
X163107125Y-126569624D03*
D25*
X128425000Y-109700000D03*
X129975000Y-109700000D03*
D12*
X122470000Y-125825000D03*
X122470000Y-127375000D03*
D13*
X139450000Y-80375000D03*
X139450000Y-78825000D03*
D19*
X120900000Y-125800000D03*
X120900000Y-127450000D03*
D25*
X173900000Y-87350000D03*
X175450000Y-87350000D03*
D19*
X119770000Y-101765000D03*
X119770000Y-103415000D03*
D21*
X144900000Y-118675000D03*
X144900000Y-117025000D03*
D25*
X153225000Y-97750000D03*
X154775000Y-97750000D03*
D13*
X117000000Y-83375000D03*
X117000000Y-81825000D03*
D14*
X118280000Y-103840000D03*
X116630000Y-103840000D03*
D15*
X120665000Y-83330000D03*
X119115000Y-83330000D03*
D80*
X132450000Y-59350000D03*
D81*
X129910000Y-56810000D03*
X129910000Y-61890000D03*
X134990000Y-56810000D03*
X134990000Y-61890000D03*
D82*
X183050000Y-88569999D03*
D83*
X183050000Y-86569998D03*
X183050000Y-84569999D03*
X183050000Y-82569998D03*
X183050000Y-80570000D03*
X183050000Y-78569999D03*
X183050000Y-76570000D03*
X183050000Y-74569999D03*
X183050000Y-72569998D03*
X183050000Y-70569999D03*
X183050000Y-68569999D03*
X183050000Y-66569999D03*
D80*
X117650000Y-59350000D03*
D81*
X120190000Y-56810000D03*
X115110000Y-56810000D03*
X120190000Y-61890000D03*
X115110000Y-61890000D03*
M02*
