  0
SECTION
  2
HEADER
  9
$ANGBASE
  50
0.0
  9
$ANGDIR
  70
1
  9
$MEASUREMENT
  70
1
  0
ENDSEC
  0
SECTION
  2
TABLES
  0
TABLE
  2
LTYPE
  70
4
  0
LTYPE
  5
40F
  2
CONTINUOUS
  70
0
  3
Solid line
  72
65
  73
0
  40
0.0
  0
LTYPE
  5
410
  2
DASHDOT
 70
0
  3
Dash Dot ____ _ ____ _
 72
65
 73
4
 40
2.0
 49
1.25
 49
-0.25
 49
0.25
 49
-0.25
  0
LTYPE
  5
411
  2
DASHED
 70
0
  3
Dashed __ __ __ __ __
 72
65
 73
2
 40
0.75
 49
0.5
 49
-0.25
  0
LTYPE
  5
43B
  2
DOTTED
 70
0
  3
Dotted .  .  .  .
 72
65
 73
2
 40
0.2
 49
0.0
 49
-0.2
  0
ENDTAB
  0
TABLE
  2
STYLE
  70
4
  0
STYLE
  2
KICAD
  70
0
  40
0
  41
1
  42
1
  50
0
  71
0
  3
isocp.shx
  0
STYLE
  2
KICADB
  70
0
  40
0
  41
1
  42
1
  50
0
  71
0
  3
isocp.shx
  0
STYLE
  2
KICADI
  70
0
  40
0
  41
1
  42
1
  50
15
  71
0
  3
isocp.shx
  0
STYLE
  2
KICADBI
  70
0
  40
0
  41
1
  42
1
  50
15
  71
0
  3
isocp.shx
  0
ENDTAB
  0
TABLE
  2
LAYER
  70
1
  0
LAYER
  2
BLACK
  70
0
  62
7
  6
CONTINUOUS
  0
ENDTAB
  0
ENDSEC
  0
SECTION
  2
ENTITIES
0
LINE
8
BLACK
6
CONTINUOUS
10
66.5800139999999914
20
-103.7439819999999884
11
66.5800139999999914
21
-30.0324139999999993
0
LINE
8
BLACK
6
CONTINUOUS
10
72.9300139999999999
20
-36.3824139999999971
11
133.9315859999999816
21
-36.3824139999999971
0
LINE
8
BLACK
6
CONTINUOUS
10
73.4358000000000004
20
-38.8881999999999977
11
73.4300139999999999
21
-94.8939819999999941
0
LINE
8
BLACK
6
CONTINUOUS
10
110.0007999999999981
20
-36.8881999999999977
11
108.7107969999999995
21
-37.7871960000000016
0
LINE
8
BLACK
6
CONTINUOUS
10
140.2815860000000043
20
-103.7439819999999884
11
66.5800139999999914
21
-103.7439819999999884
0
LINE
8
BLACK
6
CONTINUOUS
10
75.4300139999999999
20
-96.8939819999999941
11
131.4315859999999816
21
-96.8881999999999977
0
LINE
8
BLACK
6
CONTINUOUS
10
140.2815860000000043
20
-30.0324139999999993
11
140.2815860000000043
21
-103.7439819999999884
0
ARC
8
BLACK
10
131.4316000000000031
20
-94.8881999999999977
40
1.9999859999999998
50
-90.00040107
51
-0.00000000
0
ARC
8
BLACK
10
131.4316000000000031
20
-38.882399999999997
40
1.9999860000490002
50
-0.00040107
51
90.00040107
0
LINE
8
BLACK
6
CONTINUOUS
10
133.9315859999999816
20
-36.3824139999999971
11
133.9315859999999816
21
-97.3939819999999941
0
ARC
8
BLACK
10
75.4358000000000004
20
-38.8881999999999977
40
2.
50
90.00000000
51
180.00000000
0
LINE
8
BLACK
6
CONTINUOUS
10
133.4315859999999816
20
-38.8824139999999971
11
133.4315859999999816
21
-94.8881999999999977
0
LINE
8
BLACK
6
CONTINUOUS
10
108.7107969999999995
20
-37.7871960000000016
11
97.9157969999999978
21
-37.7871960000000016
0
ARC
8
BLACK
10
75.4299999999999926
20
-94.8939999999999912
40
1.9999820000490003
50
-180.00051567
51
-89.99959893
0
LINE
8
BLACK
6
CONTINUOUS
10
97.9157969999999978
20
-37.7871960000000016
11
96.635799999999989
21
-36.8881999999999977
0
LINE
8
BLACK
6
CONTINUOUS
10
66.5800139999999914
20
-30.0324139999999993
11
140.2815860000000043
21
-30.0324139999999993
0
LINE
8
BLACK
6
CONTINUOUS
10
96.635799999999989
20
-36.8881999999999977
11
75.4358000000000004
21
-36.8881999999999977
0
LINE
8
BLACK
6
CONTINUOUS
10
131.4315859999999816
20
-36.8824139999999971
11
110.0007999999999981
21
-36.8881999999999977
0
LINE
8
BLACK
6
CONTINUOUS
10
72.9300139999999999
20
-97.3939819999999941
11
72.9300139999999999
21
-36.3824139999999971
0
LINE
8
BLACK
6
CONTINUOUS
10
133.9315859999999816
20
-97.3939819999999941
11
72.9300139999999999
21
-97.3939819999999941
0
LINE
8
BLACK
6
CONTINUOUS
10
100.1082999999999998
20
-43.0071999999999974
11
100.7582999999999913
21
-43.657199999999996
0
LINE
8
BLACK
6
CONTINUOUS
10
100.7582999999999913
20
-43.0071999999999974
11
100.1082999999999998
21
-43.657199999999996
0
LINE
8
BLACK
6
CONTINUOUS
10
105.888300000000001
20
-43.0071999999999974
11
106.5382999999999925
21
-43.657199999999996
0
LINE
8
BLACK
6
CONTINUOUS
10
106.5382999999999925
20
-43.0071999999999974
11
105.888300000000001
21
-43.657199999999996
0
LINE
8
BLACK
6
CONTINUOUS
10
69.1377820000000014
20
-106.9088199999999915
11
69.1377820000000014
21
-104.9088199999999915
0
LINE
8
BLACK
6
CONTINUOUS
10
69.1377820000000014
20
-104.9088199999999915
11
69.6139719999999897
21
-104.9088199999999915
0
LINE
8
BLACK
6
CONTINUOUS
10
69.6139719999999897
20
-104.9088199999999915
11
69.8996870000000001
21
-105.0040580000000006
0
LINE
8
BLACK
6
CONTINUOUS
10
69.8996870000000001
20
-105.0040580000000006
11
70.0901629999999898
21
-105.1945339999999902
0
LINE
8
BLACK
6
CONTINUOUS
10
70.0901629999999898
20
-105.1945339999999902
11
70.1854009999999988
21
-105.3850099999999941
0
LINE
8
BLACK
6
CONTINUOUS
10
70.1854009999999988
20
-105.3850099999999941
11
70.2806389999999936
21
-105.7659620000000018
0
LINE
8
BLACK
6
CONTINUOUS
10
70.2806389999999936
20
-105.7659620000000018
11
70.2806389999999936
21
-106.051676999999998
0
LINE
8
BLACK
6
CONTINUOUS
10
70.2806389999999936
20
-106.051676999999998
11
70.1854009999999988
21
-106.4326289999999915
0
LINE
8
BLACK
6
CONTINUOUS
10
70.1854009999999988
20
-106.4326289999999915
11
70.0901629999999898
21
-106.6231049999999954
0
LINE
8
BLACK
6
CONTINUOUS
10
70.0901629999999898
20
-106.6231049999999954
11
69.8996870000000001
21
-106.8135819999999967
0
LINE
8
BLACK
6
CONTINUOUS
10
69.8996870000000001
20
-106.8135819999999967
11
69.6139719999999897
21
-106.9088199999999915
0
LINE
8
BLACK
6
CONTINUOUS
10
69.6139719999999897
20
-106.9088199999999915
11
69.1377820000000014
21
-106.9088199999999915
0
LINE
8
BLACK
6
CONTINUOUS
10
71.1377820000000014
20
-106.9088199999999915
11
71.1377820000000014
21
-105.5754859999999979
0
LINE
8
BLACK
6
CONTINUOUS
10
71.1377820000000014
20
-105.9564389999999889
11
71.2330199999999962
21
-105.7659620000000018
0
LINE
8
BLACK
6
CONTINUOUS
10
71.2330199999999962
20
-105.7659620000000018
11
71.3282579999999911
21
-105.6707239999999928
0
LINE
8
BLACK
6
CONTINUOUS
10
71.3282579999999911
20
-105.6707239999999928
11
71.5187339999999949
21
-105.5754859999999979
0
LINE
8
BLACK
6
CONTINUOUS
10
71.5187339999999949
20
-105.5754859999999979
11
71.7092109999999963
21
-105.5754859999999979
0
LINE
8
BLACK
6
CONTINUOUS
10
72.3758770000000027
20
-106.9088199999999915
11
72.3758770000000027
21
-105.5754859999999979
0
LINE
8
BLACK
6
CONTINUOUS
10
72.3758770000000027
20
-104.9088199999999915
11
72.2806389999999936
21
-105.0040580000000006
0
LINE
8
BLACK
6
CONTINUOUS
10
72.2806389999999936
20
-105.0040580000000006
11
72.3758770000000027
21
-105.0992959999999954
0
LINE
8
BLACK
6
CONTINUOUS
10
72.3758770000000027
20
-105.0992959999999954
11
72.4711149999999975
21
-105.0040580000000006
0
LINE
8
BLACK
6
CONTINUOUS
10
72.4711149999999975
20
-105.0040580000000006
11
72.3758770000000027
21
-104.9088199999999915
0
LINE
8
BLACK
6
CONTINUOUS
10
72.3758770000000027
20
-104.9088199999999915
11
72.3758770000000027
21
-105.0992959999999954
0
LINE
8
BLACK
6
CONTINUOUS
10
73.6139719999999897
20
-106.9088199999999915
11
73.4234960000000001
21
-106.8135819999999967
0
LINE
8
BLACK
6
CONTINUOUS
10
73.4234960000000001
20
-106.8135819999999967
11
73.3282579999999911
21
-106.6231049999999954
0
LINE
8
BLACK
6
CONTINUOUS
10
73.3282579999999911
20
-106.6231049999999954
11
73.3282579999999911
21
-104.9088199999999915
0
LINE
8
BLACK
6
CONTINUOUS
10
74.6615910000000014
20
-106.9088199999999915
11
74.4711149999999975
21
-106.8135819999999967
0
LINE
8
BLACK
6
CONTINUOUS
10
74.4711149999999975
20
-106.8135819999999967
11
74.3758770000000027
21
-106.6231049999999954
0
LINE
8
BLACK
6
CONTINUOUS
10
74.3758770000000027
20
-106.6231049999999954
11
74.3758770000000027
21
-104.9088199999999915
0
LINE
8
BLACK
6
CONTINUOUS
10
76.9473059999999975
20
-106.9088199999999915
11
76.9473059999999975
21
-104.9088199999999915
0
LINE
8
BLACK
6
CONTINUOUS
10
76.9473059999999975
20
-104.9088199999999915
11
77.6139730000000014
21
-106.3373909999999967
0
LINE
8
BLACK
6
CONTINUOUS
10
77.6139730000000014
20
-106.3373909999999967
11
78.2806389999999936
21
-104.9088199999999915
0
LINE
8
BLACK
6
CONTINUOUS
10
78.2806389999999936
20
-104.9088199999999915
11
78.2806389999999936
21
-106.9088199999999915
0
LINE
8
BLACK
6
CONTINUOUS
10
80.0901629999999898
20
-106.9088199999999915
11
80.0901629999999898
21
-105.8612009999999941
0
LINE
8
BLACK
6
CONTINUOUS
10
80.0901629999999898
20
-105.8612009999999941
11
79.994924999999995
21
-105.6707239999999928
0
LINE
8
BLACK
6
CONTINUOUS
10
79.994924999999995
20
-105.6707239999999928
11
79.8044489999999911
21
-105.5754859999999979
0
LINE
8
BLACK
6
CONTINUOUS
10
79.8044489999999911
20
-105.5754859999999979
11
79.4234960000000001
21
-105.5754859999999979
0
LINE
8
BLACK
6
CONTINUOUS
10
79.4234960000000001
20
-105.5754859999999979
11
79.2330199999999962
21
-105.6707239999999928
0
LINE
8
BLACK
6
CONTINUOUS
10
80.0901629999999898
20
-106.8135819999999967
11
79.8996870000000001
21
-106.9088199999999915
0
LINE
8
BLACK
6
CONTINUOUS
10
79.8996870000000001
20
-106.9088199999999915
11
79.4234960000000001
21
-106.9088199999999915
0
LINE
8
BLACK
6
CONTINUOUS
10
79.4234960000000001
20
-106.9088199999999915
11
79.2330199999999962
21
-106.8135819999999967
0
LINE
8
BLACK
6
CONTINUOUS
10
79.2330199999999962
20
-106.8135819999999967
11
79.1377820000000014
21
-106.6231049999999954
0
LINE
8
BLACK
6
CONTINUOUS
10
79.1377820000000014
20
-106.6231049999999954
11
79.1377820000000014
21
-106.4326289999999915
0
LINE
8
BLACK
6
CONTINUOUS
10
79.1377820000000014
20
-106.4326289999999915
11
79.2330199999999962
21
-106.2421530000000018
0
LINE
8
BLACK
6
CONTINUOUS
10
79.2330199999999962
20
-106.2421530000000018
11
79.4234960000000001
21
-106.1469149999999928
0
LINE
8
BLACK
6
CONTINUOUS
10
79.4234960000000001
20
-106.1469149999999928
11
79.8996870000000001
21
-106.1469149999999928
0
LINE
8
BLACK
6
CONTINUOUS
10
79.8996870000000001
20
-106.1469149999999928
11
80.0901629999999898
21
-106.051676999999998
0
LINE
8
BLACK
6
CONTINUOUS
10
81.0425439999999924
20
-105.5754859999999979
11
81.0425439999999924
21
-107.5754859999999979
0
LINE
8
BLACK
6
CONTINUOUS
10
81.0425439999999924
20
-105.6707239999999928
11
81.2330199999999962
21
-105.5754859999999979
0
LINE
8
BLACK
6
CONTINUOUS
10
81.2330199999999962
20
-105.5754859999999979
11
81.6139730000000014
21
-105.5754859999999979
0
LINE
8
BLACK
6
CONTINUOUS
10
81.6139730000000014
20
-105.5754859999999979
11
81.8044489999999911
21
-105.6707239999999928
0
LINE
8
BLACK
6
CONTINUOUS
10
81.8044489999999911
20
-105.6707239999999928
11
81.8996870000000001
21
-105.7659620000000018
0
LINE
8
BLACK
6
CONTINUOUS
10
81.8996870000000001
20
-105.7659620000000018
11
81.994924999999995
21
-105.9564389999999889
0
LINE
8
BLACK
6
CONTINUOUS
10
81.994924999999995
20
-105.9564389999999889
11
81.994924999999995
21
-106.5278670000000005
0
LINE
8
BLACK
6
CONTINUOUS
10
81.994924999999995
20
-106.5278670000000005
11
81.8996870000000001
21
-106.7183429999999902
0
LINE
8
BLACK
6
CONTINUOUS
10
81.8996870000000001
20
-106.7183429999999902
11
81.8044489999999911
21
-106.8135819999999967
0
LINE
8
BLACK
6
CONTINUOUS
10
81.8044489999999911
20
-106.8135819999999967
11
81.6139730000000014
21
-106.9088199999999915
0
LINE
8
BLACK
6
CONTINUOUS
10
81.6139730000000014
20
-106.9088199999999915
11
81.2330199999999962
21
-106.9088199999999915
0
LINE
8
BLACK
6
CONTINUOUS
10
81.2330199999999962
20
-106.9088199999999915
11
81.0425439999999924
21
-106.8135819999999967
0
LINE
8
BLACK
6
CONTINUOUS
10
82.8520680000000027
20
-106.7183429999999902
11
82.9473059999999975
21
-106.8135819999999967
0
LINE
8
BLACK
6
CONTINUOUS
10
82.9473059999999975
20
-106.8135819999999967
11
82.8520680000000027
21
-106.9088199999999915
0
LINE
8
BLACK
6
CONTINUOUS
10
82.8520680000000027
20
-106.9088199999999915
11
82.7568299999999937
21
-106.8135819999999967
0
LINE
8
BLACK
6
CONTINUOUS
10
82.7568299999999937
20
-106.8135819999999967
11
82.8520680000000027
21
-106.7183429999999902
0
LINE
8
BLACK
6
CONTINUOUS
10
82.8520680000000027
20
-106.7183429999999902
11
82.8520680000000027
21
-106.9088199999999915
0
LINE
8
BLACK
6
CONTINUOUS
10
82.8520680000000027
20
-105.6707239999999928
11
82.9473059999999975
21
-105.7659620000000018
0
LINE
8
BLACK
6
CONTINUOUS
10
82.9473059999999975
20
-105.7659620000000018
11
82.8520680000000027
21
-105.8612009999999941
0
LINE
8
BLACK
6
CONTINUOUS
10
82.8520680000000027
20
-105.8612009999999941
11
82.7568299999999937
21
-105.7659620000000018
0
LINE
8
BLACK
6
CONTINUOUS
10
82.7568299999999937
20
-105.7659620000000018
11
82.8520680000000027
21
-105.6707239999999928
0
LINE
8
BLACK
6
CONTINUOUS
10
82.8520680000000027
20
-105.6707239999999928
11
82.8520680000000027
21
-105.8612009999999941
0
LINE
8
BLACK
6
CONTINUOUS
10
65.8800140000000027
20
-109.8689819999999884
11
66.5300139999999942
21
-110.5189819999999941
0
LINE
8
BLACK
6
CONTINUOUS
10
66.5300139999999942
20
-109.8689819999999884
11
65.8800140000000027
21
-110.5189819999999941
0
LINE
8
BLACK
6
CONTINUOUS
10
69.5187339999999949
20
-109.1088199999999944
11
69.7092109999999963
21
-109.1088199999999944
0
LINE
8
BLACK
6
CONTINUOUS
10
69.7092109999999963
20
-109.1088199999999944
11
69.8996870000000001
21
-109.2040579999999892
0
LINE
8
BLACK
6
CONTINUOUS
10
69.8996870000000001
20
-109.2040579999999892
11
69.994924999999995
21
-109.2992959999999982
0
LINE
8
BLACK
6
CONTINUOUS
10
69.994924999999995
20
-109.2992959999999982
11
70.0901629999999898
21
-109.4897720000000021
0
LINE
8
BLACK
6
CONTINUOUS
10
70.0901629999999898
20
-109.4897720000000021
11
70.1854009999999988
21
-109.8707239999999956
0
LINE
8
BLACK
6
CONTINUOUS
10
70.1854009999999988
20
-109.8707239999999956
11
70.1854009999999988
21
-110.3469149999999956
0
LINE
8
BLACK
6
CONTINUOUS
10
70.1854009999999988
20
-110.3469149999999956
11
70.0901629999999898
21
-110.7278669999999892
0
LINE
8
BLACK
6
CONTINUOUS
10
70.0901629999999898
20
-110.7278669999999892
11
69.994924999999995
21
-110.918342999999993
0
LINE
8
BLACK
6
CONTINUOUS
10
69.994924999999995
20
-110.918342999999993
11
69.8996870000000001
21
-111.0135819999999995
0
LINE
8
BLACK
6
CONTINUOUS
10
69.8996870000000001
20
-111.0135819999999995
11
69.7092109999999963
21
-111.1088199999999944
0
LINE
8
BLACK
6
CONTINUOUS
10
69.7092109999999963
20
-111.1088199999999944
11
69.5187339999999949
21
-111.1088199999999944
0
LINE
8
BLACK
6
CONTINUOUS
10
69.5187339999999949
20
-111.1088199999999944
11
69.3282579999999911
21
-111.0135819999999995
0
LINE
8
BLACK
6
CONTINUOUS
10
69.3282579999999911
20
-111.0135819999999995
11
69.2330199999999962
21
-110.918342999999993
0
LINE
8
BLACK
6
CONTINUOUS
10
69.2330199999999962
20
-110.918342999999993
11
69.1377820000000014
21
-110.7278669999999892
0
LINE
8
BLACK
6
CONTINUOUS
10
69.1377820000000014
20
-110.7278669999999892
11
69.0425439999999924
21
-110.3469149999999956
0
LINE
8
BLACK
6
CONTINUOUS
10
69.0425439999999924
20
-110.3469149999999956
11
69.0425439999999924
21
-109.8707239999999956
0
LINE
8
BLACK
6
CONTINUOUS
10
69.0425439999999924
20
-109.8707239999999956
11
69.1377820000000014
21
-109.4897720000000021
0
LINE
8
BLACK
6
CONTINUOUS
10
69.1377820000000014
20
-109.4897720000000021
11
69.2330199999999962
21
-109.2992959999999982
0
LINE
8
BLACK
6
CONTINUOUS
10
69.2330199999999962
20
-109.2992959999999982
11
69.3282579999999911
21
-109.2040579999999892
0
LINE
8
BLACK
6
CONTINUOUS
10
69.3282579999999911
20
-109.2040579999999892
11
69.5187339999999949
21
-109.1088199999999944
0
LINE
8
BLACK
6
CONTINUOUS
10
71.0425439999999924
20
-110.918342999999993
11
71.1377820000000014
21
-111.0135819999999995
0
LINE
8
BLACK
6
CONTINUOUS
10
71.1377820000000014
20
-111.0135819999999995
11
71.0425439999999924
21
-111.1088199999999944
0
LINE
8
BLACK
6
CONTINUOUS
10
71.0425439999999924
20
-111.1088199999999944
11
70.9473059999999975
21
-111.0135819999999995
0
LINE
8
BLACK
6
CONTINUOUS
10
70.9473059999999975
20
-111.0135819999999995
11
71.0425439999999924
21
-110.918342999999993
0
LINE
8
BLACK
6
CONTINUOUS
10
71.0425439999999924
20
-110.918342999999993
11
71.0425439999999924
21
-111.1088199999999944
0
LINE
8
BLACK
6
CONTINUOUS
10
72.8520680000000027
20
-109.1088199999999944
11
72.4711149999999975
21
-109.1088199999999944
0
LINE
8
BLACK
6
CONTINUOUS
10
72.4711149999999975
20
-109.1088199999999944
11
72.2806389999999936
21
-109.2040579999999892
0
LINE
8
BLACK
6
CONTINUOUS
10
72.2806389999999936
20
-109.2040579999999892
11
72.1854009999999988
21
-109.2992959999999982
0
LINE
8
BLACK
6
CONTINUOUS
10
72.1854009999999988
20
-109.2992959999999982
11
71.994924999999995
21
-109.5850099999999969
0
LINE
8
BLACK
6
CONTINUOUS
10
71.994924999999995
20
-109.5850099999999969
11
71.8996870000000001
21
-109.9659619999999904
0
LINE
8
BLACK
6
CONTINUOUS
10
71.8996870000000001
20
-109.9659619999999904
11
71.8996870000000001
21
-110.7278669999999892
0
LINE
8
BLACK
6
CONTINUOUS
10
71.8996870000000001
20
-110.7278669999999892
11
71.994924999999995
21
-110.918342999999993
0
LINE
8
BLACK
6
CONTINUOUS
10
71.994924999999995
20
-110.918342999999993
11
72.0901629999999898
21
-111.0135819999999995
0
LINE
8
BLACK
6
CONTINUOUS
10
72.0901629999999898
20
-111.0135819999999995
11
72.2806389999999936
21
-111.1088199999999944
0
LINE
8
BLACK
6
CONTINUOUS
10
72.2806389999999936
20
-111.1088199999999944
11
72.6615919999999988
21
-111.1088199999999944
0
LINE
8
BLACK
6
CONTINUOUS
10
72.6615919999999988
20
-111.1088199999999944
11
72.8520680000000027
21
-111.0135819999999995
0
LINE
8
BLACK
6
CONTINUOUS
10
72.8520680000000027
20
-111.0135819999999995
11
72.9473059999999975
21
-110.918342999999993
0
LINE
8
BLACK
6
CONTINUOUS
10
72.9473059999999975
20
-110.918342999999993
11
73.0425439999999924
21
-110.7278669999999892
0
LINE
8
BLACK
6
CONTINUOUS
10
73.0425439999999924
20
-110.7278669999999892
11
73.0425439999999924
21
-110.2516770000000008
0
LINE
8
BLACK
6
CONTINUOUS
10
73.0425439999999924
20
-110.2516770000000008
11
72.9473059999999975
21
-110.061200999999997
0
LINE
8
BLACK
6
CONTINUOUS
10
72.9473059999999975
20
-110.061200999999997
11
72.8520680000000027
21
-109.9659619999999904
0
LINE
8
BLACK
6
CONTINUOUS
10
72.8520680000000027
20
-109.9659619999999904
11
72.6615919999999988
21
-109.8707239999999956
0
LINE
8
BLACK
6
CONTINUOUS
10
72.6615919999999988
20
-109.8707239999999956
11
72.2806389999999936
21
-109.8707239999999956
0
LINE
8
BLACK
6
CONTINUOUS
10
72.2806389999999936
20
-109.8707239999999956
11
72.0901629999999898
21
-109.9659619999999904
0
LINE
8
BLACK
6
CONTINUOUS
10
72.0901629999999898
20
-109.9659619999999904
11
71.994924999999995
21
-110.061200999999997
0
LINE
8
BLACK
6
CONTINUOUS
10
71.994924999999995
20
-110.061200999999997
11
71.8996870000000001
21
-110.2516770000000008
0
LINE
8
BLACK
6
CONTINUOUS
10
74.8520680000000027
20
-109.1088199999999944
11
73.8996870000000001
21
-109.1088199999999944
0
LINE
8
BLACK
6
CONTINUOUS
10
73.8996870000000001
20
-109.1088199999999944
11
73.8044489999999911
21
-110.061200999999997
0
LINE
8
BLACK
6
CONTINUOUS
10
73.8044489999999911
20
-110.061200999999997
11
73.8996870000000001
21
-109.9659619999999904
0
LINE
8
BLACK
6
CONTINUOUS
10
73.8996870000000001
20
-109.9659619999999904
11
74.0901629999999898
21
-109.8707239999999956
0
LINE
8
BLACK
6
CONTINUOUS
10
74.0901629999999898
20
-109.8707239999999956
11
74.5663539999999898
21
-109.8707239999999956
0
LINE
8
BLACK
6
CONTINUOUS
10
74.5663539999999898
20
-109.8707239999999956
11
74.7568299999999937
21
-109.9659619999999904
0
LINE
8
BLACK
6
CONTINUOUS
10
74.7568299999999937
20
-109.9659619999999904
11
74.8520680000000027
21
-110.061200999999997
0
LINE
8
BLACK
6
CONTINUOUS
10
74.8520680000000027
20
-110.061200999999997
11
74.9473059999999975
21
-110.2516770000000008
0
LINE
8
BLACK
6
CONTINUOUS
10
74.9473059999999975
20
-110.2516770000000008
11
74.9473059999999975
21
-110.7278669999999892
0
LINE
8
BLACK
6
CONTINUOUS
10
74.9473059999999975
20
-110.7278669999999892
11
74.8520680000000027
21
-110.918342999999993
0
LINE
8
BLACK
6
CONTINUOUS
10
74.8520680000000027
20
-110.918342999999993
11
74.7568299999999937
21
-111.0135819999999995
0
LINE
8
BLACK
6
CONTINUOUS
10
74.7568299999999937
20
-111.0135819999999995
11
74.5663539999999898
21
-111.1088199999999944
0
LINE
8
BLACK
6
CONTINUOUS
10
74.5663539999999898
20
-111.1088199999999944
11
74.0901629999999898
21
-111.1088199999999944
0
LINE
8
BLACK
6
CONTINUOUS
10
74.0901629999999898
20
-111.1088199999999944
11
73.8996870000000001
21
-111.0135819999999995
0
LINE
8
BLACK
6
CONTINUOUS
10
73.8996870000000001
20
-111.0135819999999995
11
73.8044489999999911
21
-110.918342999999993
0
LINE
8
BLACK
6
CONTINUOUS
10
76.1854009999999988
20
-109.1088199999999944
11
76.3758780000000002
21
-109.1088199999999944
0
LINE
8
BLACK
6
CONTINUOUS
10
76.3758780000000002
20
-109.1088199999999944
11
76.5663539999999898
21
-109.2040579999999892
0
LINE
8
BLACK
6
CONTINUOUS
10
76.5663539999999898
20
-109.2040579999999892
11
76.6615919999999988
21
-109.2992959999999982
0
LINE
8
BLACK
6
CONTINUOUS
10
76.6615919999999988
20
-109.2992959999999982
11
76.7568299999999937
21
-109.4897720000000021
0
LINE
8
BLACK
6
CONTINUOUS
10
76.7568299999999937
20
-109.4897720000000021
11
76.8520680000000027
21
-109.8707239999999956
0
LINE
8
BLACK
6
CONTINUOUS
10
76.8520680000000027
20
-109.8707239999999956
11
76.8520680000000027
21
-110.3469149999999956
0
LINE
8
BLACK
6
CONTINUOUS
10
76.8520680000000027
20
-110.3469149999999956
11
76.7568299999999937
21
-110.7278669999999892
0
LINE
8
BLACK
6
CONTINUOUS
10
76.7568299999999937
20
-110.7278669999999892
11
76.6615919999999988
21
-110.918342999999993
0
LINE
8
BLACK
6
CONTINUOUS
10
76.6615919999999988
20
-110.918342999999993
11
76.5663539999999898
21
-111.0135819999999995
0
LINE
8
BLACK
6
CONTINUOUS
10
76.5663539999999898
20
-111.0135819999999995
11
76.3758780000000002
21
-111.1088199999999944
0
LINE
8
BLACK
6
CONTINUOUS
10
76.3758780000000002
20
-111.1088199999999944
11
76.1854009999999988
21
-111.1088199999999944
0
LINE
8
BLACK
6
CONTINUOUS
10
76.1854009999999988
20
-111.1088199999999944
11
75.994924999999995
21
-111.0135819999999995
0
LINE
8
BLACK
6
CONTINUOUS
10
75.994924999999995
20
-111.0135819999999995
11
75.8996870000000001
21
-110.918342999999993
0
LINE
8
BLACK
6
CONTINUOUS
10
75.8996870000000001
20
-110.918342999999993
11
75.8044489999999911
21
-110.7278669999999892
0
LINE
8
BLACK
6
CONTINUOUS
10
75.8044489999999911
20
-110.7278669999999892
11
75.7092109999999963
21
-110.3469149999999956
0
LINE
8
BLACK
6
CONTINUOUS
10
75.7092109999999963
20
-110.3469149999999956
11
75.7092109999999963
21
-109.8707239999999956
0
LINE
8
BLACK
6
CONTINUOUS
10
75.7092109999999963
20
-109.8707239999999956
11
75.8044489999999911
21
-109.4897720000000021
0
LINE
8
BLACK
6
CONTINUOUS
10
75.8044489999999911
20
-109.4897720000000021
11
75.8996870000000001
21
-109.2992959999999982
0
LINE
8
BLACK
6
CONTINUOUS
10
75.8996870000000001
20
-109.2992959999999982
11
75.994924999999995
21
-109.2040579999999892
0
LINE
8
BLACK
6
CONTINUOUS
10
75.994924999999995
20
-109.2040579999999892
11
76.1854009999999988
21
-109.1088199999999944
0
LINE
8
BLACK
6
CONTINUOUS
10
77.7092109999999963
20
-111.1088199999999944
11
77.7092109999999963
21
-109.7754860000000008
0
LINE
8
BLACK
6
CONTINUOUS
10
77.7092109999999963
20
-109.9659619999999904
11
77.8044489999999911
21
-109.8707239999999956
0
LINE
8
BLACK
6
CONTINUOUS
10
77.8044489999999911
20
-109.8707239999999956
11
77.994924999999995
21
-109.7754860000000008
0
LINE
8
BLACK
6
CONTINUOUS
10
77.994924999999995
20
-109.7754860000000008
11
78.2806399999999911
21
-109.7754860000000008
0
LINE
8
BLACK
6
CONTINUOUS
10
78.2806399999999911
20
-109.7754860000000008
11
78.471115999999995
21
-109.8707239999999956
0
LINE
8
BLACK
6
CONTINUOUS
10
78.471115999999995
20
-109.8707239999999956
11
78.5663539999999898
21
-110.061200999999997
0
LINE
8
BLACK
6
CONTINUOUS
10
78.5663539999999898
20
-110.061200999999997
11
78.5663539999999898
21
-111.1088199999999944
0
LINE
8
BLACK
6
CONTINUOUS
10
78.5663539999999898
20
-110.061200999999997
11
78.6615919999999988
21
-109.8707239999999956
0
LINE
8
BLACK
6
CONTINUOUS
10
78.6615919999999988
20
-109.8707239999999956
11
78.8520680000000027
21
-109.7754860000000008
0
LINE
8
BLACK
6
CONTINUOUS
10
78.8520680000000027
20
-109.7754860000000008
11
79.1377820000000014
21
-109.7754860000000008
0
LINE
8
BLACK
6
CONTINUOUS
10
79.1377820000000014
20
-109.7754860000000008
11
79.3282590000000027
21
-109.8707239999999956
0
LINE
8
BLACK
6
CONTINUOUS
10
79.3282590000000027
20
-109.8707239999999956
11
79.4234969999999976
21
-110.061200999999997
0
LINE
8
BLACK
6
CONTINUOUS
10
79.4234969999999976
20
-110.061200999999997
11
79.4234969999999976
21
-111.1088199999999944
0
LINE
8
BLACK
6
CONTINUOUS
10
80.3758780000000002
20
-111.1088199999999944
11
80.3758780000000002
21
-109.7754860000000008
0
LINE
8
BLACK
6
CONTINUOUS
10
80.3758780000000002
20
-109.9659619999999904
11
80.471115999999995
21
-109.8707239999999956
0
LINE
8
BLACK
6
CONTINUOUS
10
80.471115999999995
20
-109.8707239999999956
11
80.6615919999999988
21
-109.7754860000000008
0
LINE
8
BLACK
6
CONTINUOUS
10
80.6615919999999988
20
-109.7754860000000008
11
80.947306999999995
21
-109.7754860000000008
0
LINE
8
BLACK
6
CONTINUOUS
10
80.947306999999995
20
-109.7754860000000008
11
81.1377829999999989
21
-109.8707239999999956
0
LINE
8
BLACK
6
CONTINUOUS
10
81.1377829999999989
20
-109.8707239999999956
11
81.2330209999999937
21
-110.061200999999997
0
LINE
8
BLACK
6
CONTINUOUS
10
81.2330209999999937
20
-110.061200999999997
11
81.2330209999999937
21
-111.1088199999999944
0
LINE
8
BLACK
6
CONTINUOUS
10
81.2330209999999937
20
-110.061200999999997
11
81.3282590000000027
21
-109.8707239999999956
0
LINE
8
BLACK
6
CONTINUOUS
10
81.3282590000000027
20
-109.8707239999999956
11
81.5187349999999924
21
-109.7754860000000008
0
LINE
8
BLACK
6
CONTINUOUS
10
81.5187349999999924
20
-109.7754860000000008
11
81.8044489999999911
21
-109.7754860000000008
0
LINE
8
BLACK
6
CONTINUOUS
10
81.8044489999999911
20
-109.7754860000000008
11
81.9949259999999924
21
-109.8707239999999956
0
LINE
8
BLACK
6
CONTINUOUS
10
81.9949259999999924
20
-109.8707239999999956
11
82.0901640000000015
21
-110.061200999999997
0
LINE
8
BLACK
6
CONTINUOUS
10
82.0901640000000015
20
-110.061200999999997
11
82.0901640000000015
21
-111.1088199999999944
0
LINE
8
BLACK
6
CONTINUOUS
10
85.9949259999999924
20
-109.0135819999999995
11
84.2806410000000028
21
-111.5850099999999969
0
LINE
8
BLACK
6
CONTINUOUS
10
88.5663550000000015
20
-109.1088199999999944
11
88.7568320000000028
21
-109.1088199999999944
0
LINE
8
BLACK
6
CONTINUOUS
10
88.7568320000000028
20
-109.1088199999999944
11
88.9473079999999925
21
-109.2040579999999892
0
LINE
8
BLACK
6
CONTINUOUS
10
88.9473079999999925
20
-109.2040579999999892
11
89.0425460000000015
21
-109.2992959999999982
0
LINE
8
BLACK
6
CONTINUOUS
10
89.0425460000000015
20
-109.2992959999999982
11
89.1377839999999964
21
-109.4897720000000021
0
LINE
8
BLACK
6
CONTINUOUS
10
89.1377839999999964
20
-109.4897720000000021
11
89.2330219999999912
21
-109.8707239999999956
0
LINE
8
BLACK
6
CONTINUOUS
10
89.2330219999999912
20
-109.8707239999999956
11
89.2330219999999912
21
-110.3469149999999956
0
LINE
8
BLACK
6
CONTINUOUS
10
89.2330219999999912
20
-110.3469149999999956
11
89.1377839999999964
21
-110.7278669999999892
0
LINE
8
BLACK
6
CONTINUOUS
10
89.1377839999999964
20
-110.7278669999999892
11
89.0425460000000015
21
-110.918342999999993
0
LINE
8
BLACK
6
CONTINUOUS
10
89.0425460000000015
20
-110.918342999999993
11
88.9473079999999925
21
-111.0135819999999995
0
LINE
8
BLACK
6
CONTINUOUS
10
88.9473079999999925
20
-111.0135819999999995
11
88.7568320000000028
21
-111.1088199999999944
0
LINE
8
BLACK
6
CONTINUOUS
10
88.7568320000000028
20
-111.1088199999999944
11
88.5663550000000015
21
-111.1088199999999944
0
LINE
8
BLACK
6
CONTINUOUS
10
88.5663550000000015
20
-111.1088199999999944
11
88.3758789999999976
21
-111.0135819999999995
0
LINE
8
BLACK
6
CONTINUOUS
10
88.3758789999999976
20
-111.0135819999999995
11
88.2806410000000028
21
-110.918342999999993
0
LINE
8
BLACK
6
CONTINUOUS
10
88.2806410000000028
20
-110.918342999999993
11
88.1854029999999938
21
-110.7278669999999892
0
LINE
8
BLACK
6
CONTINUOUS
10
88.1854029999999938
20
-110.7278669999999892
11
88.0901649999999989
21
-110.3469149999999956
0
LINE
8
BLACK
6
CONTINUOUS
10
88.0901649999999989
20
-110.3469149999999956
11
88.0901649999999989
21
-109.8707239999999956
0
LINE
8
BLACK
6
CONTINUOUS
10
88.0901649999999989
20
-109.8707239999999956
11
88.1854029999999938
21
-109.4897720000000021
0
LINE
8
BLACK
6
CONTINUOUS
10
88.1854029999999938
20
-109.4897720000000021
11
88.2806410000000028
21
-109.2992959999999982
0
LINE
8
BLACK
6
CONTINUOUS
10
88.2806410000000028
20
-109.2992959999999982
11
88.3758789999999976
21
-109.2040579999999892
0
LINE
8
BLACK
6
CONTINUOUS
10
88.3758789999999976
20
-109.2040579999999892
11
88.5663550000000015
21
-109.1088199999999944
0
LINE
8
BLACK
6
CONTINUOUS
10
90.0901649999999989
20
-110.918342999999993
11
90.1854029999999938
21
-111.0135819999999995
0
LINE
8
BLACK
6
CONTINUOUS
10
90.1854029999999938
20
-111.0135819999999995
11
90.0901649999999989
21
-111.1088199999999944
0
LINE
8
BLACK
6
CONTINUOUS
10
90.0901649999999989
20
-111.1088199999999944
11
89.9949269999999899
21
-111.0135819999999995
0
LINE
8
BLACK
6
CONTINUOUS
10
89.9949269999999899
20
-111.0135819999999995
11
90.0901649999999989
21
-110.918342999999993
0
LINE
8
BLACK
6
CONTINUOUS
10
90.0901649999999989
20
-110.918342999999993
11
90.0901649999999989
21
-111.1088199999999944
0
LINE
8
BLACK
6
CONTINUOUS
10
91.423497999999995
20
-109.1088199999999944
11
91.6139749999999964
21
-109.1088199999999944
0
LINE
8
BLACK
6
CONTINUOUS
10
91.6139749999999964
20
-109.1088199999999944
11
91.8044510000000002
21
-109.2040579999999892
0
LINE
8
BLACK
6
CONTINUOUS
10
91.8044510000000002
20
-109.2040579999999892
11
91.8996889999999951
21
-109.2992959999999982
0
LINE
8
BLACK
6
CONTINUOUS
10
91.8996889999999951
20
-109.2992959999999982
11
91.9949269999999899
21
-109.4897720000000021
0
LINE
8
BLACK
6
CONTINUOUS
10
91.9949269999999899
20
-109.4897720000000021
11
92.0901649999999989
21
-109.8707239999999956
0
LINE
8
BLACK
6
CONTINUOUS
10
92.0901649999999989
20
-109.8707239999999956
11
92.0901649999999989
21
-110.3469149999999956
0
LINE
8
BLACK
6
CONTINUOUS
10
92.0901649999999989
20
-110.3469149999999956
11
91.9949269999999899
21
-110.7278669999999892
0
LINE
8
BLACK
6
CONTINUOUS
10
91.9949269999999899
20
-110.7278669999999892
11
91.8996889999999951
21
-110.918342999999993
0
LINE
8
BLACK
6
CONTINUOUS
10
91.8996889999999951
20
-110.918342999999993
11
91.8044510000000002
21
-111.0135819999999995
0
LINE
8
BLACK
6
CONTINUOUS
10
91.8044510000000002
20
-111.0135819999999995
11
91.6139749999999964
21
-111.1088199999999944
0
LINE
8
BLACK
6
CONTINUOUS
10
91.6139749999999964
20
-111.1088199999999944
11
91.423497999999995
21
-111.1088199999999944
0
LINE
8
BLACK
6
CONTINUOUS
10
91.423497999999995
20
-111.1088199999999944
11
91.2330219999999912
21
-111.0135819999999995
0
LINE
8
BLACK
6
CONTINUOUS
10
91.2330219999999912
20
-111.0135819999999995
11
91.1377839999999964
21
-110.918342999999993
0
LINE
8
BLACK
6
CONTINUOUS
10
91.1377839999999964
20
-110.918342999999993
11
91.0425460000000015
21
-110.7278669999999892
0
LINE
8
BLACK
6
CONTINUOUS
10
91.0425460000000015
20
-110.7278669999999892
11
90.9473079999999925
21
-110.3469149999999956
0
LINE
8
BLACK
6
CONTINUOUS
10
90.9473079999999925
20
-110.3469149999999956
11
90.9473079999999925
21
-109.8707239999999956
0
LINE
8
BLACK
6
CONTINUOUS
10
90.9473079999999925
20
-109.8707239999999956
11
91.0425460000000015
21
-109.4897720000000021
0
LINE
8
BLACK
6
CONTINUOUS
10
91.0425460000000015
20
-109.4897720000000021
11
91.1377839999999964
21
-109.2992959999999982
0
LINE
8
BLACK
6
CONTINUOUS
10
91.1377839999999964
20
-109.2992959999999982
11
91.2330219999999912
21
-109.2040579999999892
0
LINE
8
BLACK
6
CONTINUOUS
10
91.2330219999999912
20
-109.2040579999999892
11
91.423497999999995
21
-109.1088199999999944
0
LINE
8
BLACK
6
CONTINUOUS
10
92.8520699999999977
20
-109.2992959999999982
11
92.9473079999999925
21
-109.2040579999999892
0
LINE
8
BLACK
6
CONTINUOUS
10
92.9473079999999925
20
-109.2040579999999892
11
93.1377839999999964
21
-109.1088199999999944
0
LINE
8
BLACK
6
CONTINUOUS
10
93.1377839999999964
20
-109.1088199999999944
11
93.6139749999999964
21
-109.1088199999999944
0
LINE
8
BLACK
6
CONTINUOUS
10
93.6139749999999964
20
-109.1088199999999944
11
93.8044510000000002
21
-109.2040579999999892
0
LINE
8
BLACK
6
CONTINUOUS
10
93.8044510000000002
20
-109.2040579999999892
11
93.8996889999999951
21
-109.2992959999999982
0
LINE
8
BLACK
6
CONTINUOUS
10
93.8996889999999951
20
-109.2992959999999982
11
93.9949269999999899
21
-109.4897720000000021
0
LINE
8
BLACK
6
CONTINUOUS
10
93.9949269999999899
20
-109.4897720000000021
11
93.9949269999999899
21
-109.6802479999999917
0
LINE
8
BLACK
6
CONTINUOUS
10
93.9949269999999899
20
-109.6802479999999917
11
93.8996889999999951
21
-109.9659619999999904
0
LINE
8
BLACK
6
CONTINUOUS
10
93.8996889999999951
20
-109.9659619999999904
11
92.7568320000000028
21
-111.1088199999999944
0
LINE
8
BLACK
6
CONTINUOUS
10
92.7568320000000028
20
-111.1088199999999944
11
93.9949269999999899
21
-111.1088199999999944
0
LINE
8
BLACK
6
CONTINUOUS
10
95.8044510000000002
20
-109.1088199999999944
11
94.8520699999999977
21
-109.1088199999999944
0
LINE
8
BLACK
6
CONTINUOUS
10
94.8520699999999977
20
-109.1088199999999944
11
94.7568319999999886
21
-110.061200999999997
0
LINE
8
BLACK
6
CONTINUOUS
10
94.7568319999999886
20
-110.061200999999997
11
94.8520699999999977
21
-109.9659619999999904
0
LINE
8
BLACK
6
CONTINUOUS
10
94.8520699999999977
20
-109.9659619999999904
11
95.0425460000000015
21
-109.8707239999999956
0
LINE
8
BLACK
6
CONTINUOUS
10
95.0425460000000015
20
-109.8707239999999956
11
95.5187370000000016
21
-109.8707239999999956
0
LINE
8
BLACK
6
CONTINUOUS
10
95.5187370000000016
20
-109.8707239999999956
11
95.7092129999999912
21
-109.9659619999999904
0
LINE
8
BLACK
6
CONTINUOUS
10
95.7092129999999912
20
-109.9659619999999904
11
95.8044510000000002
21
-110.061200999999997
0
LINE
8
BLACK
6
CONTINUOUS
10
95.8044510000000002
20
-110.061200999999997
11
95.8996889999999951
21
-110.2516770000000008
0
LINE
8
BLACK
6
CONTINUOUS
10
95.8996889999999951
20
-110.2516770000000008
11
95.8996889999999951
21
-110.7278669999999892
0
LINE
8
BLACK
6
CONTINUOUS
10
95.8996889999999951
20
-110.7278669999999892
11
95.8044510000000002
21
-110.918342999999993
0
LINE
8
BLACK
6
CONTINUOUS
10
95.8044510000000002
20
-110.918342999999993
11
95.7092129999999912
21
-111.0135819999999995
0
LINE
8
BLACK
6
CONTINUOUS
10
95.7092129999999912
20
-111.0135819999999995
11
95.5187370000000016
21
-111.1088199999999944
0
LINE
8
BLACK
6
CONTINUOUS
10
95.5187370000000016
20
-111.1088199999999944
11
95.0425460000000015
21
-111.1088199999999944
0
LINE
8
BLACK
6
CONTINUOUS
10
95.0425460000000015
20
-111.1088199999999944
11
94.8520699999999977
21
-111.0135819999999995
0
LINE
8
BLACK
6
CONTINUOUS
10
94.8520699999999977
20
-111.0135819999999995
11
94.7568319999999886
21
-110.918342999999993
0
LINE
8
BLACK
6
CONTINUOUS
10
97.6139749999999964
20
-109.1088199999999944
11
97.2330219999999912
21
-109.1088199999999944
0
LINE
8
BLACK
6
CONTINUOUS
10
97.2330219999999912
20
-109.1088199999999944
11
97.0425460000000015
21
-109.2040579999999892
0
LINE
8
BLACK
6
CONTINUOUS
10
97.0425460000000015
20
-109.2040579999999892
11
96.9473079999999925
21
-109.2992959999999982
0
LINE
8
BLACK
6
CONTINUOUS
10
96.9473079999999925
20
-109.2992959999999982
11
96.7568319999999886
21
-109.5850099999999969
0
LINE
8
BLACK
6
CONTINUOUS
10
96.7568319999999886
20
-109.5850099999999969
11
96.6615939999999938
21
-109.9659619999999904
0
LINE
8
BLACK
6
CONTINUOUS
10
96.6615939999999938
20
-109.9659619999999904
11
96.6615939999999938
21
-110.7278669999999892
0
LINE
8
BLACK
6
CONTINUOUS
10
96.6615939999999938
20
-110.7278669999999892
11
96.7568319999999886
21
-110.918342999999993
0
LINE
8
BLACK
6
CONTINUOUS
10
96.7568319999999886
20
-110.918342999999993
11
96.8520699999999977
21
-111.0135819999999995
0
LINE
8
BLACK
6
CONTINUOUS
10
96.8520699999999977
20
-111.0135819999999995
11
97.0425460000000015
21
-111.1088199999999944
0
LINE
8
BLACK
6
CONTINUOUS
10
97.0425460000000015
20
-111.1088199999999944
11
97.4234989999999925
21
-111.1088199999999944
0
LINE
8
BLACK
6
CONTINUOUS
10
97.4234989999999925
20
-111.1088199999999944
11
97.6139749999999964
21
-111.0135819999999995
0
LINE
8
BLACK
6
CONTINUOUS
10
97.6139749999999964
20
-111.0135819999999995
11
97.7092129999999912
21
-110.918342999999993
0
LINE
8
BLACK
6
CONTINUOUS
10
97.7092129999999912
20
-110.918342999999993
11
97.8044510000000002
21
-110.7278669999999892
0
LINE
8
BLACK
6
CONTINUOUS
10
97.8044510000000002
20
-110.7278669999999892
11
97.8044510000000002
21
-110.2516770000000008
0
LINE
8
BLACK
6
CONTINUOUS
10
97.8044510000000002
20
-110.2516770000000008
11
97.7092129999999912
21
-110.061200999999997
0
LINE
8
BLACK
6
CONTINUOUS
10
97.7092129999999912
20
-110.061200999999997
11
97.6139749999999964
21
-109.9659619999999904
0
LINE
8
BLACK
6
CONTINUOUS
10
97.6139749999999964
20
-109.9659619999999904
11
97.4234989999999925
21
-109.8707239999999956
0
LINE
8
BLACK
6
CONTINUOUS
10
97.4234989999999925
20
-109.8707239999999956
11
97.0425460000000015
21
-109.8707239999999956
0
LINE
8
BLACK
6
CONTINUOUS
10
97.0425460000000015
20
-109.8707239999999956
11
96.8520699999999977
21
-109.9659619999999904
0
LINE
8
BLACK
6
CONTINUOUS
10
96.8520699999999977
20
-109.9659619999999904
11
96.7568319999999886
21
-110.061200999999997
0
LINE
8
BLACK
6
CONTINUOUS
10
96.7568319999999886
20
-110.061200999999997
11
96.6615939999999938
21
-110.2516770000000008
0
LINE
8
BLACK
6
CONTINUOUS
10
98.566355999999999
20
-109.1088199999999944
11
98.566355999999999
21
-109.4897720000000021
0
LINE
8
BLACK
6
CONTINUOUS
10
99.3282609999999977
20
-109.1088199999999944
11
99.3282609999999977
21
-109.4897720000000021
0
LINE
8
BLACK
6
CONTINUOUS
10
102.2806429999999978
20
-111.8707239999999956
11
102.1854039999999912
21
-111.7754860000000008
0
LINE
8
BLACK
6
CONTINUOUS
10
102.1854039999999912
20
-111.7754860000000008
11
101.9949280000000016
21
-111.4897719999999879
0
LINE
8
BLACK
6
CONTINUOUS
10
101.9949280000000016
20
-111.4897719999999879
11
101.8996899999999926
21
-111.2992959999999982
0
LINE
8
BLACK
6
CONTINUOUS
10
101.8996899999999926
20
-111.2992959999999982
11
101.8044519999999977
21
-111.0135819999999995
0
LINE
8
BLACK
6
CONTINUOUS
10
101.8044519999999977
20
-111.0135819999999995
11
101.7092139999999887
21
-110.5373909999999995
0
LINE
8
BLACK
6
CONTINUOUS
10
101.7092139999999887
20
-110.5373909999999995
11
101.7092139999999887
21
-110.1564389999999918
0
LINE
8
BLACK
6
CONTINUOUS
10
101.7092139999999887
20
-110.1564389999999918
11
101.8044519999999977
21
-109.6802479999999917
0
LINE
8
BLACK
6
CONTINUOUS
10
101.8044519999999977
20
-109.6802479999999917
11
101.8996899999999926
21
-109.3945339999999931
0
LINE
8
BLACK
6
CONTINUOUS
10
101.8996899999999926
20
-109.3945339999999931
11
101.9949280000000016
21
-109.2040579999999892
0
LINE
8
BLACK
6
CONTINUOUS
10
101.9949280000000016
20
-109.2040579999999892
11
102.1854039999999912
21
-108.918342999999993
0
LINE
8
BLACK
6
CONTINUOUS
10
102.1854039999999912
20
-108.918342999999993
11
102.2806429999999978
21
-108.8231049999999982
0
LINE
8
BLACK
6
CONTINUOUS
10
102.94730899999999
20
-109.2992959999999982
11
103.042546999999999
21
-109.2040579999999892
0
LINE
8
BLACK
6
CONTINUOUS
10
103.042546999999999
20
-109.2040579999999892
11
103.2330229999999887
21
-109.1088199999999944
0
LINE
8
BLACK
6
CONTINUOUS
10
103.2330229999999887
20
-109.1088199999999944
11
103.7092139999999887
21
-109.1088199999999944
0
LINE
8
BLACK
6
CONTINUOUS
10
103.7092139999999887
20
-109.1088199999999944
11
103.8996899999999926
21
-109.2040579999999892
0
LINE
8
BLACK
6
CONTINUOUS
10
103.8996899999999926
20
-109.2040579999999892
11
103.9949280000000016
21
-109.2992959999999982
0
LINE
8
BLACK
6
CONTINUOUS
10
103.9949280000000016
20
-109.2992959999999982
11
104.0901659999999964
21
-109.4897720000000021
0
LINE
8
BLACK
6
CONTINUOUS
10
104.0901659999999964
20
-109.4897720000000021
11
104.0901659999999964
21
-109.6802479999999917
0
LINE
8
BLACK
6
CONTINUOUS
10
104.0901659999999964
20
-109.6802479999999917
11
103.9949280000000016
21
-109.9659619999999904
0
LINE
8
BLACK
6
CONTINUOUS
10
103.9949280000000016
20
-109.9659619999999904
11
102.8520709999999951
21
-111.1088199999999944
0
LINE
8
BLACK
6
CONTINUOUS
10
102.8520709999999951
20
-111.1088199999999944
11
104.0901659999999964
21
-111.1088199999999944
0
LINE
8
BLACK
6
CONTINUOUS
10
106.4711190000000016
20
-111.1088199999999944
11
106.4711190000000016
21
-109.1088199999999944
0
LINE
8
BLACK
6
CONTINUOUS
10
107.3282619999999952
20
-111.1088199999999944
11
107.3282619999999952
21
-110.061200999999997
0
LINE
8
BLACK
6
CONTINUOUS
10
107.3282619999999952
20
-110.061200999999997
11
107.2330240000000003
21
-109.8707239999999956
0
LINE
8
BLACK
6
CONTINUOUS
10
107.2330240000000003
20
-109.8707239999999956
11
107.0425479999999965
21
-109.7754860000000008
0
LINE
8
BLACK
6
CONTINUOUS
10
107.0425479999999965
20
-109.7754860000000008
11
106.7568330000000003
21
-109.7754860000000008
0
LINE
8
BLACK
6
CONTINUOUS
10
106.7568330000000003
20
-109.7754860000000008
11
106.5663569999999964
21
-109.8707239999999956
0
LINE
8
BLACK
6
CONTINUOUS
10
106.5663569999999964
20
-109.8707239999999956
11
106.4711190000000016
21
-109.9659619999999904
0
LINE
8
BLACK
6
CONTINUOUS
10
108.5663569999999964
20
-111.1088199999999944
11
108.3758809999999926
21
-111.0135819999999995
0
LINE
8
BLACK
6
CONTINUOUS
10
108.3758809999999926
20
-111.0135819999999995
11
108.2806429999999978
21
-110.918342999999993
0
LINE
8
BLACK
6
CONTINUOUS
10
108.2806429999999978
20
-110.918342999999993
11
108.1854049999999887
21
-110.7278669999999892
0
LINE
8
BLACK
6
CONTINUOUS
10
108.1854049999999887
20
-110.7278669999999892
11
108.1854049999999887
21
-110.1564389999999918
0
LINE
8
BLACK
6
CONTINUOUS
10
108.1854049999999887
20
-110.1564389999999918
11
108.2806429999999978
21
-109.9659619999999904
0
LINE
8
BLACK
6
CONTINUOUS
10
108.2806429999999978
20
-109.9659619999999904
11
108.3758809999999926
21
-109.8707239999999956
0
LINE
8
BLACK
6
CONTINUOUS
10
108.3758809999999926
20
-109.8707239999999956
11
108.5663569999999964
21
-109.7754860000000008
0
LINE
8
BLACK
6
CONTINUOUS
10
108.5663569999999964
20
-109.7754860000000008
11
108.8520719999999926
21
-109.7754860000000008
0
LINE
8
BLACK
6
CONTINUOUS
10
108.8520719999999926
20
-109.7754860000000008
11
109.0425479999999965
21
-109.8707239999999956
0
LINE
8
BLACK
6
CONTINUOUS
10
109.0425479999999965
20
-109.8707239999999956
11
109.1377859999999913
21
-109.9659619999999904
0
LINE
8
BLACK
6
CONTINUOUS
10
109.1377859999999913
20
-109.9659619999999904
11
109.2330240000000003
21
-110.1564389999999918
0
LINE
8
BLACK
6
CONTINUOUS
10
109.2330240000000003
20
-110.1564389999999918
11
109.2330240000000003
21
-110.7278669999999892
0
LINE
8
BLACK
6
CONTINUOUS
10
109.2330240000000003
20
-110.7278669999999892
11
109.1377859999999913
21
-110.918342999999993
0
LINE
8
BLACK
6
CONTINUOUS
10
109.1377859999999913
20
-110.918342999999993
11
109.0425479999999965
21
-111.0135819999999995
0
LINE
8
BLACK
6
CONTINUOUS
10
109.0425479999999965
20
-111.0135819999999995
11
108.8520719999999926
21
-111.1088199999999944
0
LINE
8
BLACK
6
CONTINUOUS
10
108.8520719999999926
20
-111.1088199999999944
11
108.5663569999999964
21
-111.1088199999999944
0
LINE
8
BLACK
6
CONTINUOUS
10
110.3758809999999926
20
-111.1088199999999944
11
110.1854049999999887
21
-111.0135819999999995
0
LINE
8
BLACK
6
CONTINUOUS
10
110.1854049999999887
20
-111.0135819999999995
11
110.0901669999999939
21
-110.8231049999999982
0
LINE
8
BLACK
6
CONTINUOUS
10
110.0901669999999939
20
-110.8231049999999982
11
110.0901669999999939
21
-109.1088199999999944
0
LINE
8
BLACK
6
CONTINUOUS
10
111.89969099999999
20
-111.0135819999999995
11
111.7092150000000004
21
-111.1088199999999944
0
LINE
8
BLACK
6
CONTINUOUS
10
111.7092150000000004
20
-111.1088199999999944
11
111.3282619999999952
21
-111.1088199999999944
0
LINE
8
BLACK
6
CONTINUOUS
10
111.3282619999999952
20
-111.1088199999999944
11
111.1377859999999913
21
-111.0135819999999995
0
LINE
8
BLACK
6
CONTINUOUS
10
111.1377859999999913
20
-111.0135819999999995
11
111.0425479999999965
21
-110.8231049999999982
0
LINE
8
BLACK
6
CONTINUOUS
10
111.0425479999999965
20
-110.8231049999999982
11
111.0425479999999965
21
-110.061200999999997
0
LINE
8
BLACK
6
CONTINUOUS
10
111.0425479999999965
20
-110.061200999999997
11
111.1377859999999913
21
-109.8707239999999956
0
LINE
8
BLACK
6
CONTINUOUS
10
111.1377859999999913
20
-109.8707239999999956
11
111.3282619999999952
21
-109.7754860000000008
0
LINE
8
BLACK
6
CONTINUOUS
10
111.3282619999999952
20
-109.7754860000000008
11
111.7092150000000004
21
-109.7754860000000008
0
LINE
8
BLACK
6
CONTINUOUS
10
111.7092150000000004
20
-109.7754860000000008
11
111.89969099999999
21
-109.8707239999999956
0
LINE
8
BLACK
6
CONTINUOUS
10
111.89969099999999
20
-109.8707239999999956
11
111.9949289999999991
21
-110.061200999999997
0
LINE
8
BLACK
6
CONTINUOUS
10
111.9949289999999991
20
-110.061200999999997
11
111.9949289999999991
21
-110.2516770000000008
0
LINE
8
BLACK
6
CONTINUOUS
10
111.9949289999999991
20
-110.2516770000000008
11
111.0425479999999965
21
-110.4421529999999905
0
LINE
8
BLACK
6
CONTINUOUS
10
112.7568339999999978
20
-111.0135819999999995
11
112.9473100000000017
21
-111.1088199999999944
0
LINE
8
BLACK
6
CONTINUOUS
10
112.9473100000000017
20
-111.1088199999999944
11
113.3282619999999952
21
-111.1088199999999944
0
LINE
8
BLACK
6
CONTINUOUS
10
113.3282619999999952
20
-111.1088199999999944
11
113.5187389999999965
21
-111.0135819999999995
0
LINE
8
BLACK
6
CONTINUOUS
10
113.5187389999999965
20
-111.0135819999999995
11
113.6139769999999913
21
-110.8231049999999982
0
LINE
8
BLACK
6
CONTINUOUS
10
113.6139769999999913
20
-110.8231049999999982
11
113.6139769999999913
21
-110.7278669999999892
0
LINE
8
BLACK
6
CONTINUOUS
10
113.6139769999999913
20
-110.7278669999999892
11
113.5187389999999965
21
-110.5373909999999995
0
LINE
8
BLACK
6
CONTINUOUS
10
113.5187389999999965
20
-110.5373909999999995
11
113.3282619999999952
21
-110.4421529999999905
0
LINE
8
BLACK
6
CONTINUOUS
10
113.3282619999999952
20
-110.4421529999999905
11
113.0425479999999965
21
-110.4421529999999905
0
LINE
8
BLACK
6
CONTINUOUS
10
113.0425479999999965
20
-110.4421529999999905
11
112.8520719999999926
21
-110.3469149999999956
0
LINE
8
BLACK
6
CONTINUOUS
10
112.8520719999999926
20
-110.3469149999999956
11
112.7568339999999978
21
-110.1564389999999918
0
LINE
8
BLACK
6
CONTINUOUS
10
112.7568339999999978
20
-110.1564389999999918
11
112.7568339999999978
21
-110.061200999999997
0
LINE
8
BLACK
6
CONTINUOUS
10
112.7568339999999978
20
-110.061200999999997
11
112.8520719999999926
21
-109.8707239999999956
0
LINE
8
BLACK
6
CONTINUOUS
10
112.8520719999999926
20
-109.8707239999999956
11
113.0425479999999965
21
-109.7754860000000008
0
LINE
8
BLACK
6
CONTINUOUS
10
113.0425479999999965
20
-109.7754860000000008
11
113.3282619999999952
21
-109.7754860000000008
0
LINE
8
BLACK
6
CONTINUOUS
10
113.3282619999999952
20
-109.7754860000000008
11
113.5187389999999965
21
-109.8707239999999956
0
LINE
8
BLACK
6
CONTINUOUS
10
114.2806439999999952
20
-111.8707239999999956
11
114.3758819999999901
21
-111.7754860000000008
0
LINE
8
BLACK
6
CONTINUOUS
10
114.3758819999999901
20
-111.7754860000000008
11
114.5663579999999939
21
-111.4897719999999879
0
LINE
8
BLACK
6
CONTINUOUS
10
114.5663579999999939
20
-111.4897719999999879
11
114.6615959999999887
21
-111.2992959999999982
0
LINE
8
BLACK
6
CONTINUOUS
10
114.6615959999999887
20
-111.2992959999999982
11
114.7568339999999978
21
-111.0135819999999995
0
LINE
8
BLACK
6
CONTINUOUS
10
114.7568339999999978
20
-111.0135819999999995
11
114.8520719999999926
21
-110.5373909999999995
0
LINE
8
BLACK
6
CONTINUOUS
10
114.8520719999999926
20
-110.5373909999999995
11
114.8520719999999926
21
-110.1564389999999918
0
LINE
8
BLACK
6
CONTINUOUS
10
114.8520719999999926
20
-110.1564389999999918
11
114.7568339999999978
21
-109.6802479999999917
0
LINE
8
BLACK
6
CONTINUOUS
10
114.7568339999999978
20
-109.6802479999999917
11
114.6615959999999887
21
-109.3945339999999931
0
LINE
8
BLACK
6
CONTINUOUS
10
114.6615959999999887
20
-109.3945339999999931
11
114.5663579999999939
21
-109.2040579999999892
0
LINE
8
BLACK
6
CONTINUOUS
10
114.5663579999999939
20
-109.2040579999999892
11
114.3758819999999901
21
-108.918342999999993
0
LINE
8
BLACK
6
CONTINUOUS
10
114.3758819999999901
20
-108.918342999999993
11
114.2806439999999952
21
-108.8231049999999982
0
LINE
8
BLACK
6
CONTINUOUS
10
117.8996920000000017
20
-111.8707239999999956
11
117.8044529999999952
21
-111.7754860000000008
0
LINE
8
BLACK
6
CONTINUOUS
10
117.8044529999999952
20
-111.7754860000000008
11
117.6139769999999913
21
-111.4897719999999879
0
LINE
8
BLACK
6
CONTINUOUS
10
117.6139769999999913
20
-111.4897719999999879
11
117.5187389999999965
21
-111.2992959999999982
0
LINE
8
BLACK
6
CONTINUOUS
10
117.5187389999999965
20
-111.2992959999999982
11
117.4235010000000017
21
-111.0135819999999995
0
LINE
8
BLACK
6
CONTINUOUS
10
117.4235010000000017
20
-111.0135819999999995
11
117.3282629999999926
21
-110.5373909999999995
0
LINE
8
BLACK
6
CONTINUOUS
10
117.3282629999999926
20
-110.5373909999999995
11
117.3282629999999926
21
-110.1564389999999918
0
LINE
8
BLACK
6
CONTINUOUS
10
117.3282629999999926
20
-110.1564389999999918
11
117.4235010000000017
21
-109.6802479999999917
0
LINE
8
BLACK
6
CONTINUOUS
10
117.4235010000000017
20
-109.6802479999999917
11
117.5187389999999965
21
-109.3945339999999931
0
LINE
8
BLACK
6
CONTINUOUS
10
117.5187389999999965
20
-109.3945339999999931
11
117.6139769999999913
21
-109.2040579999999892
0
LINE
8
BLACK
6
CONTINUOUS
10
117.6139769999999913
20
-109.2040579999999892
11
117.8044529999999952
21
-108.918342999999993
0
LINE
8
BLACK
6
CONTINUOUS
10
117.8044529999999952
20
-108.918342999999993
11
117.8996920000000017
21
-108.8231049999999982
0
LINE
8
BLACK
6
CONTINUOUS
10
118.6615959999999887
20
-109.7754860000000008
11
118.6615959999999887
21
-111.1088199999999944
0
LINE
8
BLACK
6
CONTINUOUS
10
118.6615959999999887
20
-109.9659619999999904
11
118.7568339999999978
21
-109.8707239999999956
0
LINE
8
BLACK
6
CONTINUOUS
10
118.7568339999999978
20
-109.8707239999999956
11
118.9473100000000017
21
-109.7754860000000008
0
LINE
8
BLACK
6
CONTINUOUS
10
118.9473100000000017
20
-109.7754860000000008
11
119.2330249999999978
21
-109.7754860000000008
0
LINE
8
BLACK
6
CONTINUOUS
10
119.2330249999999978
20
-109.7754860000000008
11
119.4235010000000017
21
-109.8707239999999956
0
LINE
8
BLACK
6
CONTINUOUS
10
119.4235010000000017
20
-109.8707239999999956
11
119.5187389999999965
21
-110.061200999999997
0
LINE
8
BLACK
6
CONTINUOUS
10
119.5187389999999965
20
-110.061200999999997
11
119.5187389999999965
21
-111.1088199999999944
0
LINE
8
BLACK
6
CONTINUOUS
10
120.7568339999999978
20
-111.1088199999999944
11
120.5663579999999939
21
-111.0135819999999995
0
LINE
8
BLACK
6
CONTINUOUS
10
120.5663579999999939
20
-111.0135819999999995
11
120.4711199999999991
21
-110.918342999999993
0
LINE
8
BLACK
6
CONTINUOUS
10
120.4711199999999991
20
-110.918342999999993
11
120.3758819999999901
21
-110.7278669999999892
0
LINE
8
BLACK
6
CONTINUOUS
10
120.3758819999999901
20
-110.7278669999999892
11
120.3758819999999901
21
-110.1564389999999918
0
LINE
8
BLACK
6
CONTINUOUS
10
120.3758819999999901
20
-110.1564389999999918
11
120.4711199999999991
21
-109.9659619999999904
0
LINE
8
BLACK
6
CONTINUOUS
10
120.4711199999999991
20
-109.9659619999999904
11
120.5663579999999939
21
-109.8707239999999956
0
LINE
8
BLACK
6
CONTINUOUS
10
120.5663579999999939
20
-109.8707239999999956
11
120.7568339999999978
21
-109.7754860000000008
0
LINE
8
BLACK
6
CONTINUOUS
10
120.7568339999999978
20
-109.7754860000000008
11
121.042548999999994
21
-109.7754860000000008
0
LINE
8
BLACK
6
CONTINUOUS
10
121.042548999999994
20
-109.7754860000000008
11
121.2330249999999978
21
-109.8707239999999956
0
LINE
8
BLACK
6
CONTINUOUS
10
121.2330249999999978
20
-109.8707239999999956
11
121.3282629999999926
21
-109.9659619999999904
0
LINE
8
BLACK
6
CONTINUOUS
10
121.3282629999999926
20
-109.9659619999999904
11
121.4235009999999875
21
-110.1564389999999918
0
LINE
8
BLACK
6
CONTINUOUS
10
121.4235009999999875
20
-110.1564389999999918
11
121.4235009999999875
21
-110.7278669999999892
0
LINE
8
BLACK
6
CONTINUOUS
10
121.4235009999999875
20
-110.7278669999999892
11
121.3282629999999926
21
-110.918342999999993
0
LINE
8
BLACK
6
CONTINUOUS
10
121.3282629999999926
20
-110.918342999999993
11
121.2330249999999978
21
-111.0135819999999995
0
LINE
8
BLACK
6
CONTINUOUS
10
121.2330249999999978
20
-111.0135819999999995
11
121.042548999999994
21
-111.1088199999999944
0
LINE
8
BLACK
6
CONTINUOUS
10
121.042548999999994
20
-111.1088199999999944
11
120.7568339999999978
21
-111.1088199999999944
0
LINE
8
BLACK
6
CONTINUOUS
10
121.9949299999999965
20
-109.7754860000000008
11
122.7568339999999978
21
-109.7754860000000008
0
LINE
8
BLACK
6
CONTINUOUS
10
122.2806439999999952
20
-109.1088199999999944
11
122.2806439999999952
21
-110.8231049999999982
0
LINE
8
BLACK
6
CONTINUOUS
10
122.2806439999999952
20
-110.8231049999999982
11
122.3758819999999901
21
-111.0135819999999995
0
LINE
8
BLACK
6
CONTINUOUS
10
122.3758819999999901
20
-111.0135819999999995
11
122.5663579999999939
21
-111.1088199999999944
0
LINE
8
BLACK
6
CONTINUOUS
10
122.5663579999999939
20
-111.1088199999999944
11
122.7568339999999978
21
-111.1088199999999944
0
LINE
8
BLACK
6
CONTINUOUS
10
124.9473109999999991
20
-109.7754860000000008
11
124.9473109999999991
21
-111.7754860000000008
0
LINE
8
BLACK
6
CONTINUOUS
10
124.9473109999999991
20
-109.8707239999999956
11
125.1377869999999888
21
-109.7754860000000008
0
LINE
8
BLACK
6
CONTINUOUS
10
125.1377869999999888
20
-109.7754860000000008
11
125.518739999999994
21
-109.7754860000000008
0
LINE
8
BLACK
6
CONTINUOUS
10
125.518739999999994
20
-109.7754860000000008
11
125.7092159999999978
21
-109.8707239999999956
0
LINE
8
BLACK
6
CONTINUOUS
10
125.7092159999999978
20
-109.8707239999999956
11
125.8044539999999927
21
-109.9659619999999904
0
LINE
8
BLACK
6
CONTINUOUS
10
125.8044539999999927
20
-109.9659619999999904
11
125.8996919999999875
21
-110.1564389999999918
0
LINE
8
BLACK
6
CONTINUOUS
10
125.8996919999999875
20
-110.1564389999999918
11
125.8996919999999875
21
-110.7278669999999892
0
LINE
8
BLACK
6
CONTINUOUS
10
125.8996919999999875
20
-110.7278669999999892
11
125.8044539999999927
21
-110.918342999999993
0
LINE
8
BLACK
6
CONTINUOUS
10
125.8044539999999927
20
-110.918342999999993
11
125.7092159999999978
21
-111.0135819999999995
0
LINE
8
BLACK
6
CONTINUOUS
10
125.7092159999999978
20
-111.0135819999999995
11
125.518739999999994
21
-111.1088199999999944
0
LINE
8
BLACK
6
CONTINUOUS
10
125.518739999999994
20
-111.1088199999999944
11
125.1377869999999888
21
-111.1088199999999944
0
LINE
8
BLACK
6
CONTINUOUS
10
125.1377869999999888
20
-111.1088199999999944
11
124.9473109999999991
21
-111.0135819999999995
0
LINE
8
BLACK
6
CONTINUOUS
10
127.042548999999994
20
-111.1088199999999944
11
126.8520729999999901
21
-111.0135819999999995
0
LINE
8
BLACK
6
CONTINUOUS
10
126.8520729999999901
20
-111.0135819999999995
11
126.7568349999999953
21
-110.8231049999999982
0
LINE
8
BLACK
6
CONTINUOUS
10
126.7568349999999953
20
-110.8231049999999982
11
126.7568349999999953
21
-109.1088199999999944
0
LINE
8
BLACK
6
CONTINUOUS
10
128.6615970000000004
20
-111.1088199999999944
11
128.6615970000000004
21
-110.061200999999997
0
LINE
8
BLACK
6
CONTINUOUS
10
128.6615970000000004
20
-110.061200999999997
11
128.5663590000000056
21
-109.8707239999999956
0
LINE
8
BLACK
6
CONTINUOUS
10
128.5663590000000056
20
-109.8707239999999956
11
128.3758829999999875
21
-109.7754860000000008
0
LINE
8
BLACK
6
CONTINUOUS
10
128.3758829999999875
20
-109.7754860000000008
11
127.9949299999999965
21
-109.7754860000000008
0
LINE
8
BLACK
6
CONTINUOUS
10
127.9949299999999965
20
-109.7754860000000008
11
127.8044539999999927
21
-109.8707239999999956
0
LINE
8
BLACK
6
CONTINUOUS
10
128.6615970000000004
20
-111.0135819999999995
11
128.4711209999999824
21
-111.1088199999999944
0
LINE
8
BLACK
6
CONTINUOUS
10
128.4711209999999824
20
-111.1088199999999944
11
127.9949299999999965
21
-111.1088199999999944
0
LINE
8
BLACK
6
CONTINUOUS
10
127.9949299999999965
20
-111.1088199999999944
11
127.8044539999999927
21
-111.0135819999999995
0
LINE
8
BLACK
6
CONTINUOUS
10
127.8044539999999927
20
-111.0135819999999995
11
127.7092159999999978
21
-110.8231049999999982
0
LINE
8
BLACK
6
CONTINUOUS
10
127.7092159999999978
20
-110.8231049999999982
11
127.7092159999999978
21
-110.6326289999999943
0
LINE
8
BLACK
6
CONTINUOUS
10
127.7092159999999978
20
-110.6326289999999943
11
127.8044539999999927
21
-110.4421529999999905
0
LINE
8
BLACK
6
CONTINUOUS
10
127.8044539999999927
20
-110.4421529999999905
11
127.9949299999999965
21
-110.3469149999999956
0
LINE
8
BLACK
6
CONTINUOUS
10
127.9949299999999965
20
-110.3469149999999956
11
128.4711209999999824
21
-110.3469149999999956
0
LINE
8
BLACK
6
CONTINUOUS
10
128.4711209999999824
20
-110.3469149999999956
11
128.6615970000000004
21
-110.2516770000000008
0
LINE
8
BLACK
6
CONTINUOUS
10
129.3282639999999901
20
-109.7754860000000008
11
130.0901680000000056
21
-109.7754860000000008
0
LINE
8
BLACK
6
CONTINUOUS
10
129.613978000000003
20
-109.1088199999999944
11
129.613978000000003
21
-110.8231049999999982
0
LINE
8
BLACK
6
CONTINUOUS
10
129.613978000000003
20
-110.8231049999999982
11
129.7092159999999978
21
-111.0135819999999995
0
LINE
8
BLACK
6
CONTINUOUS
10
129.7092159999999978
20
-111.0135819999999995
11
129.8996919999999875
21
-111.1088199999999944
0
LINE
8
BLACK
6
CONTINUOUS
10
129.8996919999999875
20
-111.1088199999999944
11
130.0901680000000056
21
-111.1088199999999944
0
LINE
8
BLACK
6
CONTINUOUS
10
131.5187400000000082
20
-111.0135819999999995
11
131.3282639999999901
21
-111.1088199999999944
0
LINE
8
BLACK
6
CONTINUOUS
10
131.3282639999999901
20
-111.1088199999999944
11
130.9473109999999849
21
-111.1088199999999944
0
LINE
8
BLACK
6
CONTINUOUS
10
130.9473109999999849
20
-111.1088199999999944
11
130.7568349999999953
21
-111.0135819999999995
0
LINE
8
BLACK
6
CONTINUOUS
10
130.7568349999999953
20
-111.0135819999999995
11
130.6615970000000004
21
-110.8231049999999982
0
LINE
8
BLACK
6
CONTINUOUS
10
130.6615970000000004
20
-110.8231049999999982
11
130.6615970000000004
21
-110.061200999999997
0
LINE
8
BLACK
6
CONTINUOUS
10
130.6615970000000004
20
-110.061200999999997
11
130.7568349999999953
21
-109.8707239999999956
0
LINE
8
BLACK
6
CONTINUOUS
10
130.7568349999999953
20
-109.8707239999999956
11
130.9473109999999849
21
-109.7754860000000008
0
LINE
8
BLACK
6
CONTINUOUS
10
130.9473109999999849
20
-109.7754860000000008
11
131.3282639999999901
21
-109.7754860000000008
0
LINE
8
BLACK
6
CONTINUOUS
10
131.3282639999999901
20
-109.7754860000000008
11
131.5187400000000082
21
-109.8707239999999956
0
LINE
8
BLACK
6
CONTINUOUS
10
131.5187400000000082
20
-109.8707239999999956
11
131.613978000000003
21
-110.061200999999997
0
LINE
8
BLACK
6
CONTINUOUS
10
131.613978000000003
20
-110.061200999999997
11
131.613978000000003
21
-110.2516770000000008
0
LINE
8
BLACK
6
CONTINUOUS
10
131.613978000000003
20
-110.2516770000000008
11
130.6615970000000004
21
-110.4421529999999905
0
LINE
8
BLACK
6
CONTINUOUS
10
133.3282639999999901
20
-111.1088199999999944
11
133.3282639999999901
21
-109.1088199999999944
0
LINE
8
BLACK
6
CONTINUOUS
10
133.3282639999999901
20
-111.0135819999999995
11
133.1377880000000005
21
-111.1088199999999944
0
LINE
8
BLACK
6
CONTINUOUS
10
133.1377880000000005
20
-111.1088199999999944
11
132.7568349999999953
21
-111.1088199999999944
0
LINE
8
BLACK
6
CONTINUOUS
10
132.7568349999999953
20
-111.1088199999999944
11
132.5663590000000056
21
-111.0135819999999995
0
LINE
8
BLACK
6
CONTINUOUS
10
132.5663590000000056
20
-111.0135819999999995
11
132.4711209999999824
21
-110.918342999999993
0
LINE
8
BLACK
6
CONTINUOUS
10
132.4711209999999824
20
-110.918342999999993
11
132.3758829999999875
21
-110.7278669999999892
0
LINE
8
BLACK
6
CONTINUOUS
10
132.3758829999999875
20
-110.7278669999999892
11
132.3758829999999875
21
-110.1564389999999918
0
LINE
8
BLACK
6
CONTINUOUS
10
132.3758829999999875
20
-110.1564389999999918
11
132.4711209999999824
21
-109.9659619999999904
0
LINE
8
BLACK
6
CONTINUOUS
10
132.4711209999999824
20
-109.9659619999999904
11
132.5663590000000056
21
-109.8707239999999956
0
LINE
8
BLACK
6
CONTINUOUS
10
132.5663590000000056
20
-109.8707239999999956
11
132.7568349999999953
21
-109.7754860000000008
0
LINE
8
BLACK
6
CONTINUOUS
10
132.7568349999999953
20
-109.7754860000000008
11
133.1377880000000005
21
-109.7754860000000008
0
LINE
8
BLACK
6
CONTINUOUS
10
133.1377880000000005
20
-109.7754860000000008
11
133.3282639999999901
21
-109.8707239999999956
0
LINE
8
BLACK
6
CONTINUOUS
10
134.0901690000000031
20
-111.8707239999999956
11
134.1854069999999979
21
-111.7754860000000008
0
LINE
8
BLACK
6
CONTINUOUS
10
134.1854069999999979
20
-111.7754860000000008
11
134.3758829999999875
21
-111.4897719999999879
0
LINE
8
BLACK
6
CONTINUOUS
10
134.3758829999999875
20
-111.4897719999999879
11
134.4711209999999824
21
-111.2992959999999982
0
LINE
8
BLACK
6
CONTINUOUS
10
134.4711209999999824
20
-111.2992959999999982
11
134.5663590000000056
21
-111.0135819999999995
0
LINE
8
BLACK
6
CONTINUOUS
10
134.5663590000000056
20
-111.0135819999999995
11
134.6615970000000004
21
-110.5373909999999995
0
LINE
8
BLACK
6
CONTINUOUS
10
134.6615970000000004
20
-110.5373909999999995
11
134.6615970000000004
21
-110.1564389999999918
0
LINE
8
BLACK
6
CONTINUOUS
10
134.6615970000000004
20
-110.1564389999999918
11
134.5663590000000056
21
-109.6802479999999917
0
LINE
8
BLACK
6
CONTINUOUS
10
134.5663590000000056
20
-109.6802479999999917
11
134.4711209999999824
21
-109.3945339999999931
0
LINE
8
BLACK
6
CONTINUOUS
10
134.4711209999999824
20
-109.3945339999999931
11
134.3758829999999875
21
-109.2040579999999892
0
LINE
8
BLACK
6
CONTINUOUS
10
134.3758829999999875
20
-109.2040579999999892
11
134.1854069999999979
21
-108.918342999999993
0
LINE
8
BLACK
6
CONTINUOUS
10
134.1854069999999979
20
-108.918342999999993
11
134.0901690000000031
21
-108.8231049999999982
  0
ENDSEC
  0
EOF
