%TF.GenerationSoftware,KiCad,Pcbnew,8.0.4*%
%TF.CreationDate,2024-07-26T00:04:39-07:00*%
%TF.ProjectId,Soldermander_panelized_panelized,536f6c64-6572-46d6-916e-6465725f7061,1.0*%
%TF.SameCoordinates,Original*%
%TF.FileFunction,Soldermask,Top*%
%TF.FilePolarity,Negative*%
%FSLAX46Y46*%
G04 Gerber Fmt 4.6, Leading zero omitted, Abs format (unit mm)*
G04 Created by KiCad (PCBNEW 8.0.4) date 2024-07-26 00:04:39*
%MOMM*%
%LPD*%
G01*
G04 APERTURE LIST*
G04 Aperture macros list*
%AMRoundRect*
0 Rectangle with rounded corners*
0 $1 Rounding radius*
0 $2 $3 $4 $5 $6 $7 $8 $9 X,Y pos of 4 corners*
0 Add a 4 corners polygon primitive as box body*
4,1,4,$2,$3,$4,$5,$6,$7,$8,$9,$2,$3,0*
0 Add four circle primitives for the rounded corners*
1,1,$1+$1,$2,$3*
1,1,$1+$1,$4,$5*
1,1,$1+$1,$6,$7*
1,1,$1+$1,$8,$9*
0 Add four rect primitives between the rounded corners*
20,1,$1+$1,$2,$3,$4,$5,0*
20,1,$1+$1,$4,$5,$6,$7,0*
20,1,$1+$1,$6,$7,$8,$9,0*
20,1,$1+$1,$8,$9,$2,$3,0*%
G04 Aperture macros list end*
%ADD10C,0.100000*%
%ADD11C,0.150000*%
%ADD12C,0.300000*%
%ADD13C,0.400000*%
%ADD14RoundRect,0.140000X-0.140000X-0.170000X0.140000X-0.170000X0.140000X0.170000X-0.140000X0.170000X0*%
%ADD15RoundRect,0.135000X0.185000X-0.135000X0.185000X0.135000X-0.185000X0.135000X-0.185000X-0.135000X0*%
%ADD16RoundRect,0.135000X-0.135000X-0.185000X0.135000X-0.185000X0.135000X0.185000X-0.135000X0.185000X0*%
%ADD17RoundRect,0.140000X-0.170000X0.140000X-0.170000X-0.140000X0.170000X-0.140000X0.170000X0.140000X0*%
%ADD18RoundRect,0.135000X-0.185000X0.135000X-0.185000X-0.135000X0.185000X-0.135000X0.185000X0.135000X0*%
%ADD19RoundRect,0.225000X-0.225000X-0.250000X0.225000X-0.250000X0.225000X0.250000X-0.225000X0.250000X0*%
%ADD20RoundRect,0.135000X0.135000X0.185000X-0.135000X0.185000X-0.135000X-0.185000X0.135000X-0.185000X0*%
%ADD21R,1.409700X0.355600*%
%ADD22R,2.971800X2.971800*%
%ADD23RoundRect,0.140000X0.140000X0.170000X-0.140000X0.170000X-0.140000X-0.170000X0.140000X-0.170000X0*%
%ADD24RoundRect,0.250000X-1.100000X0.325000X-1.100000X-0.325000X1.100000X-0.325000X1.100000X0.325000X0*%
%ADD25RoundRect,0.225000X0.250000X-0.225000X0.250000X0.225000X-0.250000X0.225000X-0.250000X-0.225000X0*%
%ADD26C,3.000000*%
%ADD27R,1.000000X1.000000*%
%ADD28RoundRect,0.063500X-0.800100X-0.152400X0.800100X-0.152400X0.800100X0.152400X-0.800100X0.152400X0*%
%ADD29RoundRect,0.063500X-1.155000X-1.230000X1.155000X-1.230000X1.155000X1.230000X-1.155000X1.230000X0*%
%ADD30R,0.762000X1.500000*%
%ADD31R,0.558800X0.977900*%
%ADD32R,1.000000X1.800000*%
%ADD33C,0.355600*%
%ADD34RoundRect,0.147500X0.172500X-0.147500X0.172500X0.147500X-0.172500X0.147500X-0.172500X-0.147500X0*%
%ADD35C,4.700000*%
%ADD36R,1.219200X0.457200*%
%ADD37O,1.219200X0.457200*%
%ADD38RoundRect,0.250000X-1.075000X0.375000X-1.075000X-0.375000X1.075000X-0.375000X1.075000X0.375000X0*%
%ADD39R,1.100000X3.700000*%
%ADD40R,0.900000X0.800000*%
%ADD41RoundRect,0.102000X-1.175000X2.550000X-1.175000X-2.550000X1.175000X-2.550000X1.175000X2.550000X0*%
%ADD42R,0.558800X2.159000*%
%ADD43R,0.950000X0.450000*%
%ADD44RoundRect,0.063500X-0.152400X0.800100X-0.152400X-0.800100X0.152400X-0.800100X0.152400X0.800100X0*%
%ADD45RoundRect,0.063500X-1.230000X1.155000X-1.230000X-1.155000X1.230000X-1.155000X1.230000X1.155000X0*%
%ADD46R,1.308000X1.308000*%
%ADD47C,1.308000*%
%ADD48C,0.457200*%
%ADD49O,0.560000X1.840000*%
%ADD50RoundRect,0.250000X0.325000X1.100000X-0.325000X1.100000X-0.325000X-1.100000X0.325000X-1.100000X0*%
%ADD51RoundRect,0.140000X0.170000X-0.140000X0.170000X0.140000X-0.170000X0.140000X-0.170000X-0.140000X0*%
%ADD52C,0.650000*%
%ADD53R,0.600000X1.150000*%
%ADD54R,0.300000X1.150000*%
%ADD55O,1.000000X2.100000*%
%ADD56O,1.000000X1.600000*%
%ADD57R,0.740000X2.400000*%
%ADD58RoundRect,0.250000X1.425000X-0.362500X1.425000X0.362500X-1.425000X0.362500X-1.425000X-0.362500X0*%
%ADD59R,1.700000X1.700000*%
%ADD60O,1.700000X1.700000*%
%ADD61RoundRect,0.050800X-0.450000X-0.450000X0.450000X-0.450000X0.450000X0.450000X-0.450000X0.450000X0*%
%ADD62R,4.750000X4.650000*%
%ADD63R,0.406400X0.914400*%
G04 APERTURE END LIST*
D10*
D11*
X90007200Y-104005800D02*
X198007200Y-104005800D01*
X198007200Y-136005800D01*
X90007200Y-136005800D01*
X90007200Y-104005800D01*
D10*
D11*
X10000000Y-10000000D02*
X200007200Y-10000000D01*
X200007200Y-138005800D01*
X10000000Y-138005800D01*
X10000000Y-10000000D01*
D10*
D11*
X12000000Y-12000000D02*
X198007200Y-12000000D01*
X198007200Y-136005800D01*
X12000000Y-136005800D01*
X12000000Y-12000000D01*
D10*
D11*
X60000000Y-12000000D02*
X60000000Y-10000000D01*
D10*
D11*
X110000000Y-12000000D02*
X110000000Y-10000000D01*
D10*
D11*
X160000000Y-12000000D02*
X160000000Y-10000000D01*
D10*
D11*
X36089160Y-11593604D02*
X35346303Y-11593604D01*
X35717731Y-11593604D02*
X35717731Y-10293604D01*
X35717731Y-10293604D02*
X35593922Y-10479319D01*
X35593922Y-10479319D02*
X35470112Y-10603128D01*
X35470112Y-10603128D02*
X35346303Y-10665033D01*
D10*
D11*
X85346303Y-10417414D02*
X85408207Y-10355509D01*
X85408207Y-10355509D02*
X85532017Y-10293604D01*
X85532017Y-10293604D02*
X85841541Y-10293604D01*
X85841541Y-10293604D02*
X85965350Y-10355509D01*
X85965350Y-10355509D02*
X86027255Y-10417414D01*
X86027255Y-10417414D02*
X86089160Y-10541223D01*
X86089160Y-10541223D02*
X86089160Y-10665033D01*
X86089160Y-10665033D02*
X86027255Y-10850747D01*
X86027255Y-10850747D02*
X85284398Y-11593604D01*
X85284398Y-11593604D02*
X86089160Y-11593604D01*
D10*
D11*
X135284398Y-10293604D02*
X136089160Y-10293604D01*
X136089160Y-10293604D02*
X135655826Y-10788842D01*
X135655826Y-10788842D02*
X135841541Y-10788842D01*
X135841541Y-10788842D02*
X135965350Y-10850747D01*
X135965350Y-10850747D02*
X136027255Y-10912652D01*
X136027255Y-10912652D02*
X136089160Y-11036461D01*
X136089160Y-11036461D02*
X136089160Y-11345985D01*
X136089160Y-11345985D02*
X136027255Y-11469795D01*
X136027255Y-11469795D02*
X135965350Y-11531700D01*
X135965350Y-11531700D02*
X135841541Y-11593604D01*
X135841541Y-11593604D02*
X135470112Y-11593604D01*
X135470112Y-11593604D02*
X135346303Y-11531700D01*
X135346303Y-11531700D02*
X135284398Y-11469795D01*
D10*
D11*
X185965350Y-10726938D02*
X185965350Y-11593604D01*
X185655826Y-10231700D02*
X185346303Y-11160271D01*
X185346303Y-11160271D02*
X186151064Y-11160271D01*
D10*
D11*
X60000000Y-136005800D02*
X60000000Y-138005800D01*
D10*
D11*
X110000000Y-136005800D02*
X110000000Y-138005800D01*
D10*
D11*
X160000000Y-136005800D02*
X160000000Y-138005800D01*
D10*
D11*
X36089160Y-137599404D02*
X35346303Y-137599404D01*
X35717731Y-137599404D02*
X35717731Y-136299404D01*
X35717731Y-136299404D02*
X35593922Y-136485119D01*
X35593922Y-136485119D02*
X35470112Y-136608928D01*
X35470112Y-136608928D02*
X35346303Y-136670833D01*
D10*
D11*
X85346303Y-136423214D02*
X85408207Y-136361309D01*
X85408207Y-136361309D02*
X85532017Y-136299404D01*
X85532017Y-136299404D02*
X85841541Y-136299404D01*
X85841541Y-136299404D02*
X85965350Y-136361309D01*
X85965350Y-136361309D02*
X86027255Y-136423214D01*
X86027255Y-136423214D02*
X86089160Y-136547023D01*
X86089160Y-136547023D02*
X86089160Y-136670833D01*
X86089160Y-136670833D02*
X86027255Y-136856547D01*
X86027255Y-136856547D02*
X85284398Y-137599404D01*
X85284398Y-137599404D02*
X86089160Y-137599404D01*
D10*
D11*
X135284398Y-136299404D02*
X136089160Y-136299404D01*
X136089160Y-136299404D02*
X135655826Y-136794642D01*
X135655826Y-136794642D02*
X135841541Y-136794642D01*
X135841541Y-136794642D02*
X135965350Y-136856547D01*
X135965350Y-136856547D02*
X136027255Y-136918452D01*
X136027255Y-136918452D02*
X136089160Y-137042261D01*
X136089160Y-137042261D02*
X136089160Y-137351785D01*
X136089160Y-137351785D02*
X136027255Y-137475595D01*
X136027255Y-137475595D02*
X135965350Y-137537500D01*
X135965350Y-137537500D02*
X135841541Y-137599404D01*
X135841541Y-137599404D02*
X135470112Y-137599404D01*
X135470112Y-137599404D02*
X135346303Y-137537500D01*
X135346303Y-137537500D02*
X135284398Y-137475595D01*
D10*
D11*
X185965350Y-136732738D02*
X185965350Y-137599404D01*
X185655826Y-136237500D02*
X185346303Y-137166071D01*
X185346303Y-137166071D02*
X186151064Y-137166071D01*
D10*
D11*
X10000000Y-60000000D02*
X12000000Y-60000000D01*
D10*
D11*
X10000000Y-110000000D02*
X12000000Y-110000000D01*
D10*
D11*
X10690476Y-35222176D02*
X11309523Y-35222176D01*
X10566666Y-35593604D02*
X10999999Y-34293604D01*
X10999999Y-34293604D02*
X11433333Y-35593604D01*
D10*
D11*
X11092857Y-84912652D02*
X11278571Y-84974557D01*
X11278571Y-84974557D02*
X11340476Y-85036461D01*
X11340476Y-85036461D02*
X11402380Y-85160271D01*
X11402380Y-85160271D02*
X11402380Y-85345985D01*
X11402380Y-85345985D02*
X11340476Y-85469795D01*
X11340476Y-85469795D02*
X11278571Y-85531700D01*
X11278571Y-85531700D02*
X11154761Y-85593604D01*
X11154761Y-85593604D02*
X10659523Y-85593604D01*
X10659523Y-85593604D02*
X10659523Y-84293604D01*
X10659523Y-84293604D02*
X11092857Y-84293604D01*
X11092857Y-84293604D02*
X11216666Y-84355509D01*
X11216666Y-84355509D02*
X11278571Y-84417414D01*
X11278571Y-84417414D02*
X11340476Y-84541223D01*
X11340476Y-84541223D02*
X11340476Y-84665033D01*
X11340476Y-84665033D02*
X11278571Y-84788842D01*
X11278571Y-84788842D02*
X11216666Y-84850747D01*
X11216666Y-84850747D02*
X11092857Y-84912652D01*
X11092857Y-84912652D02*
X10659523Y-84912652D01*
D10*
D11*
X11402380Y-135469795D02*
X11340476Y-135531700D01*
X11340476Y-135531700D02*
X11154761Y-135593604D01*
X11154761Y-135593604D02*
X11030952Y-135593604D01*
X11030952Y-135593604D02*
X10845238Y-135531700D01*
X10845238Y-135531700D02*
X10721428Y-135407890D01*
X10721428Y-135407890D02*
X10659523Y-135284080D01*
X10659523Y-135284080D02*
X10597619Y-135036461D01*
X10597619Y-135036461D02*
X10597619Y-134850747D01*
X10597619Y-134850747D02*
X10659523Y-134603128D01*
X10659523Y-134603128D02*
X10721428Y-134479319D01*
X10721428Y-134479319D02*
X10845238Y-134355509D01*
X10845238Y-134355509D02*
X11030952Y-134293604D01*
X11030952Y-134293604D02*
X11154761Y-134293604D01*
X11154761Y-134293604D02*
X11340476Y-134355509D01*
X11340476Y-134355509D02*
X11402380Y-134417414D01*
D10*
D11*
X200007200Y-60000000D02*
X198007200Y-60000000D01*
D10*
D11*
X200007200Y-110000000D02*
X198007200Y-110000000D01*
D10*
D11*
X198697676Y-35222176D02*
X199316723Y-35222176D01*
X198573866Y-35593604D02*
X199007199Y-34293604D01*
X199007199Y-34293604D02*
X199440533Y-35593604D01*
D10*
D11*
X199100057Y-84912652D02*
X199285771Y-84974557D01*
X199285771Y-84974557D02*
X199347676Y-85036461D01*
X199347676Y-85036461D02*
X199409580Y-85160271D01*
X199409580Y-85160271D02*
X199409580Y-85345985D01*
X199409580Y-85345985D02*
X199347676Y-85469795D01*
X199347676Y-85469795D02*
X199285771Y-85531700D01*
X199285771Y-85531700D02*
X199161961Y-85593604D01*
X199161961Y-85593604D02*
X198666723Y-85593604D01*
X198666723Y-85593604D02*
X198666723Y-84293604D01*
X198666723Y-84293604D02*
X199100057Y-84293604D01*
X199100057Y-84293604D02*
X199223866Y-84355509D01*
X199223866Y-84355509D02*
X199285771Y-84417414D01*
X199285771Y-84417414D02*
X199347676Y-84541223D01*
X199347676Y-84541223D02*
X199347676Y-84665033D01*
X199347676Y-84665033D02*
X199285771Y-84788842D01*
X199285771Y-84788842D02*
X199223866Y-84850747D01*
X199223866Y-84850747D02*
X199100057Y-84912652D01*
X199100057Y-84912652D02*
X198666723Y-84912652D01*
D10*
D11*
X199409580Y-135469795D02*
X199347676Y-135531700D01*
X199347676Y-135531700D02*
X199161961Y-135593604D01*
X199161961Y-135593604D02*
X199038152Y-135593604D01*
X199038152Y-135593604D02*
X198852438Y-135531700D01*
X198852438Y-135531700D02*
X198728628Y-135407890D01*
X198728628Y-135407890D02*
X198666723Y-135284080D01*
X198666723Y-135284080D02*
X198604819Y-135036461D01*
X198604819Y-135036461D02*
X198604819Y-134850747D01*
X198604819Y-134850747D02*
X198666723Y-134603128D01*
X198666723Y-134603128D02*
X198728628Y-134479319D01*
X198728628Y-134479319D02*
X198852438Y-134355509D01*
X198852438Y-134355509D02*
X199038152Y-134293604D01*
X199038152Y-134293604D02*
X199161961Y-134293604D01*
X199161961Y-134293604D02*
X199347676Y-134355509D01*
X199347676Y-134355509D02*
X199409580Y-134417414D01*
D10*
D11*
X113463026Y-131791928D02*
X113463026Y-130291928D01*
X113463026Y-130291928D02*
X113820169Y-130291928D01*
X113820169Y-130291928D02*
X114034455Y-130363357D01*
X114034455Y-130363357D02*
X114177312Y-130506214D01*
X114177312Y-130506214D02*
X114248741Y-130649071D01*
X114248741Y-130649071D02*
X114320169Y-130934785D01*
X114320169Y-130934785D02*
X114320169Y-131149071D01*
X114320169Y-131149071D02*
X114248741Y-131434785D01*
X114248741Y-131434785D02*
X114177312Y-131577642D01*
X114177312Y-131577642D02*
X114034455Y-131720500D01*
X114034455Y-131720500D02*
X113820169Y-131791928D01*
X113820169Y-131791928D02*
X113463026Y-131791928D01*
X115605884Y-131791928D02*
X115605884Y-131006214D01*
X115605884Y-131006214D02*
X115534455Y-130863357D01*
X115534455Y-130863357D02*
X115391598Y-130791928D01*
X115391598Y-130791928D02*
X115105884Y-130791928D01*
X115105884Y-130791928D02*
X114963026Y-130863357D01*
X115605884Y-131720500D02*
X115463026Y-131791928D01*
X115463026Y-131791928D02*
X115105884Y-131791928D01*
X115105884Y-131791928D02*
X114963026Y-131720500D01*
X114963026Y-131720500D02*
X114891598Y-131577642D01*
X114891598Y-131577642D02*
X114891598Y-131434785D01*
X114891598Y-131434785D02*
X114963026Y-131291928D01*
X114963026Y-131291928D02*
X115105884Y-131220500D01*
X115105884Y-131220500D02*
X115463026Y-131220500D01*
X115463026Y-131220500D02*
X115605884Y-131149071D01*
X116105884Y-130791928D02*
X116677312Y-130791928D01*
X116320169Y-130291928D02*
X116320169Y-131577642D01*
X116320169Y-131577642D02*
X116391598Y-131720500D01*
X116391598Y-131720500D02*
X116534455Y-131791928D01*
X116534455Y-131791928D02*
X116677312Y-131791928D01*
X117748741Y-131720500D02*
X117605884Y-131791928D01*
X117605884Y-131791928D02*
X117320170Y-131791928D01*
X117320170Y-131791928D02*
X117177312Y-131720500D01*
X117177312Y-131720500D02*
X117105884Y-131577642D01*
X117105884Y-131577642D02*
X117105884Y-131006214D01*
X117105884Y-131006214D02*
X117177312Y-130863357D01*
X117177312Y-130863357D02*
X117320170Y-130791928D01*
X117320170Y-130791928D02*
X117605884Y-130791928D01*
X117605884Y-130791928D02*
X117748741Y-130863357D01*
X117748741Y-130863357D02*
X117820170Y-131006214D01*
X117820170Y-131006214D02*
X117820170Y-131149071D01*
X117820170Y-131149071D02*
X117105884Y-131291928D01*
X118463026Y-131649071D02*
X118534455Y-131720500D01*
X118534455Y-131720500D02*
X118463026Y-131791928D01*
X118463026Y-131791928D02*
X118391598Y-131720500D01*
X118391598Y-131720500D02*
X118463026Y-131649071D01*
X118463026Y-131649071D02*
X118463026Y-131791928D01*
X118463026Y-130863357D02*
X118534455Y-130934785D01*
X118534455Y-130934785D02*
X118463026Y-131006214D01*
X118463026Y-131006214D02*
X118391598Y-130934785D01*
X118391598Y-130934785D02*
X118463026Y-130863357D01*
X118463026Y-130863357D02*
X118463026Y-131006214D01*
X120248741Y-130434785D02*
X120320169Y-130363357D01*
X120320169Y-130363357D02*
X120463027Y-130291928D01*
X120463027Y-130291928D02*
X120820169Y-130291928D01*
X120820169Y-130291928D02*
X120963027Y-130363357D01*
X120963027Y-130363357D02*
X121034455Y-130434785D01*
X121034455Y-130434785D02*
X121105884Y-130577642D01*
X121105884Y-130577642D02*
X121105884Y-130720500D01*
X121105884Y-130720500D02*
X121034455Y-130934785D01*
X121034455Y-130934785D02*
X120177312Y-131791928D01*
X120177312Y-131791928D02*
X121105884Y-131791928D01*
X122034455Y-130291928D02*
X122177312Y-130291928D01*
X122177312Y-130291928D02*
X122320169Y-130363357D01*
X122320169Y-130363357D02*
X122391598Y-130434785D01*
X122391598Y-130434785D02*
X122463026Y-130577642D01*
X122463026Y-130577642D02*
X122534455Y-130863357D01*
X122534455Y-130863357D02*
X122534455Y-131220500D01*
X122534455Y-131220500D02*
X122463026Y-131506214D01*
X122463026Y-131506214D02*
X122391598Y-131649071D01*
X122391598Y-131649071D02*
X122320169Y-131720500D01*
X122320169Y-131720500D02*
X122177312Y-131791928D01*
X122177312Y-131791928D02*
X122034455Y-131791928D01*
X122034455Y-131791928D02*
X121891598Y-131720500D01*
X121891598Y-131720500D02*
X121820169Y-131649071D01*
X121820169Y-131649071D02*
X121748740Y-131506214D01*
X121748740Y-131506214D02*
X121677312Y-131220500D01*
X121677312Y-131220500D02*
X121677312Y-130863357D01*
X121677312Y-130863357D02*
X121748740Y-130577642D01*
X121748740Y-130577642D02*
X121820169Y-130434785D01*
X121820169Y-130434785D02*
X121891598Y-130363357D01*
X121891598Y-130363357D02*
X122034455Y-130291928D01*
X123105883Y-130434785D02*
X123177311Y-130363357D01*
X123177311Y-130363357D02*
X123320169Y-130291928D01*
X123320169Y-130291928D02*
X123677311Y-130291928D01*
X123677311Y-130291928D02*
X123820169Y-130363357D01*
X123820169Y-130363357D02*
X123891597Y-130434785D01*
X123891597Y-130434785D02*
X123963026Y-130577642D01*
X123963026Y-130577642D02*
X123963026Y-130720500D01*
X123963026Y-130720500D02*
X123891597Y-130934785D01*
X123891597Y-130934785D02*
X123034454Y-131791928D01*
X123034454Y-131791928D02*
X123963026Y-131791928D01*
X125248740Y-130791928D02*
X125248740Y-131791928D01*
X124891597Y-130220500D02*
X124534454Y-131291928D01*
X124534454Y-131291928D02*
X125463025Y-131291928D01*
X126034453Y-131220500D02*
X127177311Y-131220500D01*
X128177311Y-130291928D02*
X128320168Y-130291928D01*
X128320168Y-130291928D02*
X128463025Y-130363357D01*
X128463025Y-130363357D02*
X128534454Y-130434785D01*
X128534454Y-130434785D02*
X128605882Y-130577642D01*
X128605882Y-130577642D02*
X128677311Y-130863357D01*
X128677311Y-130863357D02*
X128677311Y-131220500D01*
X128677311Y-131220500D02*
X128605882Y-131506214D01*
X128605882Y-131506214D02*
X128534454Y-131649071D01*
X128534454Y-131649071D02*
X128463025Y-131720500D01*
X128463025Y-131720500D02*
X128320168Y-131791928D01*
X128320168Y-131791928D02*
X128177311Y-131791928D01*
X128177311Y-131791928D02*
X128034454Y-131720500D01*
X128034454Y-131720500D02*
X127963025Y-131649071D01*
X127963025Y-131649071D02*
X127891596Y-131506214D01*
X127891596Y-131506214D02*
X127820168Y-131220500D01*
X127820168Y-131220500D02*
X127820168Y-130863357D01*
X127820168Y-130863357D02*
X127891596Y-130577642D01*
X127891596Y-130577642D02*
X127963025Y-130434785D01*
X127963025Y-130434785D02*
X128034454Y-130363357D01*
X128034454Y-130363357D02*
X128177311Y-130291928D01*
X129248739Y-130434785D02*
X129320167Y-130363357D01*
X129320167Y-130363357D02*
X129463025Y-130291928D01*
X129463025Y-130291928D02*
X129820167Y-130291928D01*
X129820167Y-130291928D02*
X129963025Y-130363357D01*
X129963025Y-130363357D02*
X130034453Y-130434785D01*
X130034453Y-130434785D02*
X130105882Y-130577642D01*
X130105882Y-130577642D02*
X130105882Y-130720500D01*
X130105882Y-130720500D02*
X130034453Y-130934785D01*
X130034453Y-130934785D02*
X129177310Y-131791928D01*
X129177310Y-131791928D02*
X130105882Y-131791928D01*
X130748738Y-131220500D02*
X131891596Y-131220500D01*
X132534453Y-130434785D02*
X132605881Y-130363357D01*
X132605881Y-130363357D02*
X132748739Y-130291928D01*
X132748739Y-130291928D02*
X133105881Y-130291928D01*
X133105881Y-130291928D02*
X133248739Y-130363357D01*
X133248739Y-130363357D02*
X133320167Y-130434785D01*
X133320167Y-130434785D02*
X133391596Y-130577642D01*
X133391596Y-130577642D02*
X133391596Y-130720500D01*
X133391596Y-130720500D02*
X133320167Y-130934785D01*
X133320167Y-130934785D02*
X132463024Y-131791928D01*
X132463024Y-131791928D02*
X133391596Y-131791928D01*
X133891595Y-130291928D02*
X134891595Y-130291928D01*
X134891595Y-130291928D02*
X134248738Y-131791928D01*
D10*
D11*
X90007200Y-132505800D02*
X198007200Y-132505800D01*
D10*
D11*
X91463026Y-134591928D02*
X91463026Y-133091928D01*
X92320169Y-134591928D02*
X91677312Y-133734785D01*
X92320169Y-133091928D02*
X91463026Y-133949071D01*
X92963026Y-134591928D02*
X92963026Y-133591928D01*
X92963026Y-133091928D02*
X92891598Y-133163357D01*
X92891598Y-133163357D02*
X92963026Y-133234785D01*
X92963026Y-133234785D02*
X93034455Y-133163357D01*
X93034455Y-133163357D02*
X92963026Y-133091928D01*
X92963026Y-133091928D02*
X92963026Y-133234785D01*
X94534455Y-134449071D02*
X94463027Y-134520500D01*
X94463027Y-134520500D02*
X94248741Y-134591928D01*
X94248741Y-134591928D02*
X94105884Y-134591928D01*
X94105884Y-134591928D02*
X93891598Y-134520500D01*
X93891598Y-134520500D02*
X93748741Y-134377642D01*
X93748741Y-134377642D02*
X93677312Y-134234785D01*
X93677312Y-134234785D02*
X93605884Y-133949071D01*
X93605884Y-133949071D02*
X93605884Y-133734785D01*
X93605884Y-133734785D02*
X93677312Y-133449071D01*
X93677312Y-133449071D02*
X93748741Y-133306214D01*
X93748741Y-133306214D02*
X93891598Y-133163357D01*
X93891598Y-133163357D02*
X94105884Y-133091928D01*
X94105884Y-133091928D02*
X94248741Y-133091928D01*
X94248741Y-133091928D02*
X94463027Y-133163357D01*
X94463027Y-133163357D02*
X94534455Y-133234785D01*
X95820170Y-134591928D02*
X95820170Y-133806214D01*
X95820170Y-133806214D02*
X95748741Y-133663357D01*
X95748741Y-133663357D02*
X95605884Y-133591928D01*
X95605884Y-133591928D02*
X95320170Y-133591928D01*
X95320170Y-133591928D02*
X95177312Y-133663357D01*
X95820170Y-134520500D02*
X95677312Y-134591928D01*
X95677312Y-134591928D02*
X95320170Y-134591928D01*
X95320170Y-134591928D02*
X95177312Y-134520500D01*
X95177312Y-134520500D02*
X95105884Y-134377642D01*
X95105884Y-134377642D02*
X95105884Y-134234785D01*
X95105884Y-134234785D02*
X95177312Y-134091928D01*
X95177312Y-134091928D02*
X95320170Y-134020500D01*
X95320170Y-134020500D02*
X95677312Y-134020500D01*
X95677312Y-134020500D02*
X95820170Y-133949071D01*
X97177313Y-134591928D02*
X97177313Y-133091928D01*
X97177313Y-134520500D02*
X97034455Y-134591928D01*
X97034455Y-134591928D02*
X96748741Y-134591928D01*
X96748741Y-134591928D02*
X96605884Y-134520500D01*
X96605884Y-134520500D02*
X96534455Y-134449071D01*
X96534455Y-134449071D02*
X96463027Y-134306214D01*
X96463027Y-134306214D02*
X96463027Y-133877642D01*
X96463027Y-133877642D02*
X96534455Y-133734785D01*
X96534455Y-133734785D02*
X96605884Y-133663357D01*
X96605884Y-133663357D02*
X96748741Y-133591928D01*
X96748741Y-133591928D02*
X97034455Y-133591928D01*
X97034455Y-133591928D02*
X97177313Y-133663357D01*
X99034455Y-133806214D02*
X99534455Y-133806214D01*
X99748741Y-134591928D02*
X99034455Y-134591928D01*
X99034455Y-134591928D02*
X99034455Y-133091928D01*
X99034455Y-133091928D02*
X99748741Y-133091928D01*
X100391598Y-134449071D02*
X100463027Y-134520500D01*
X100463027Y-134520500D02*
X100391598Y-134591928D01*
X100391598Y-134591928D02*
X100320170Y-134520500D01*
X100320170Y-134520500D02*
X100391598Y-134449071D01*
X100391598Y-134449071D02*
X100391598Y-134591928D01*
X101105884Y-134591928D02*
X101105884Y-133091928D01*
X101105884Y-133091928D02*
X101463027Y-133091928D01*
X101463027Y-133091928D02*
X101677313Y-133163357D01*
X101677313Y-133163357D02*
X101820170Y-133306214D01*
X101820170Y-133306214D02*
X101891599Y-133449071D01*
X101891599Y-133449071D02*
X101963027Y-133734785D01*
X101963027Y-133734785D02*
X101963027Y-133949071D01*
X101963027Y-133949071D02*
X101891599Y-134234785D01*
X101891599Y-134234785D02*
X101820170Y-134377642D01*
X101820170Y-134377642D02*
X101677313Y-134520500D01*
X101677313Y-134520500D02*
X101463027Y-134591928D01*
X101463027Y-134591928D02*
X101105884Y-134591928D01*
X102605884Y-134449071D02*
X102677313Y-134520500D01*
X102677313Y-134520500D02*
X102605884Y-134591928D01*
X102605884Y-134591928D02*
X102534456Y-134520500D01*
X102534456Y-134520500D02*
X102605884Y-134449071D01*
X102605884Y-134449071D02*
X102605884Y-134591928D01*
X103248742Y-134163357D02*
X103963028Y-134163357D01*
X103105885Y-134591928D02*
X103605885Y-133091928D01*
X103605885Y-133091928D02*
X104105885Y-134591928D01*
X104605884Y-134449071D02*
X104677313Y-134520500D01*
X104677313Y-134520500D02*
X104605884Y-134591928D01*
X104605884Y-134591928D02*
X104534456Y-134520500D01*
X104534456Y-134520500D02*
X104605884Y-134449071D01*
X104605884Y-134449071D02*
X104605884Y-134591928D01*
X106677313Y-133734785D02*
X106534456Y-133663357D01*
X106534456Y-133663357D02*
X106463027Y-133591928D01*
X106463027Y-133591928D02*
X106391599Y-133449071D01*
X106391599Y-133449071D02*
X106391599Y-133377642D01*
X106391599Y-133377642D02*
X106463027Y-133234785D01*
X106463027Y-133234785D02*
X106534456Y-133163357D01*
X106534456Y-133163357D02*
X106677313Y-133091928D01*
X106677313Y-133091928D02*
X106963027Y-133091928D01*
X106963027Y-133091928D02*
X107105885Y-133163357D01*
X107105885Y-133163357D02*
X107177313Y-133234785D01*
X107177313Y-133234785D02*
X107248742Y-133377642D01*
X107248742Y-133377642D02*
X107248742Y-133449071D01*
X107248742Y-133449071D02*
X107177313Y-133591928D01*
X107177313Y-133591928D02*
X107105885Y-133663357D01*
X107105885Y-133663357D02*
X106963027Y-133734785D01*
X106963027Y-133734785D02*
X106677313Y-133734785D01*
X106677313Y-133734785D02*
X106534456Y-133806214D01*
X106534456Y-133806214D02*
X106463027Y-133877642D01*
X106463027Y-133877642D02*
X106391599Y-134020500D01*
X106391599Y-134020500D02*
X106391599Y-134306214D01*
X106391599Y-134306214D02*
X106463027Y-134449071D01*
X106463027Y-134449071D02*
X106534456Y-134520500D01*
X106534456Y-134520500D02*
X106677313Y-134591928D01*
X106677313Y-134591928D02*
X106963027Y-134591928D01*
X106963027Y-134591928D02*
X107105885Y-134520500D01*
X107105885Y-134520500D02*
X107177313Y-134449071D01*
X107177313Y-134449071D02*
X107248742Y-134306214D01*
X107248742Y-134306214D02*
X107248742Y-134020500D01*
X107248742Y-134020500D02*
X107177313Y-133877642D01*
X107177313Y-133877642D02*
X107105885Y-133806214D01*
X107105885Y-133806214D02*
X106963027Y-133734785D01*
X107891598Y-134449071D02*
X107963027Y-134520500D01*
X107963027Y-134520500D02*
X107891598Y-134591928D01*
X107891598Y-134591928D02*
X107820170Y-134520500D01*
X107820170Y-134520500D02*
X107891598Y-134449071D01*
X107891598Y-134449071D02*
X107891598Y-134591928D01*
X108891599Y-133091928D02*
X109034456Y-133091928D01*
X109034456Y-133091928D02*
X109177313Y-133163357D01*
X109177313Y-133163357D02*
X109248742Y-133234785D01*
X109248742Y-133234785D02*
X109320170Y-133377642D01*
X109320170Y-133377642D02*
X109391599Y-133663357D01*
X109391599Y-133663357D02*
X109391599Y-134020500D01*
X109391599Y-134020500D02*
X109320170Y-134306214D01*
X109320170Y-134306214D02*
X109248742Y-134449071D01*
X109248742Y-134449071D02*
X109177313Y-134520500D01*
X109177313Y-134520500D02*
X109034456Y-134591928D01*
X109034456Y-134591928D02*
X108891599Y-134591928D01*
X108891599Y-134591928D02*
X108748742Y-134520500D01*
X108748742Y-134520500D02*
X108677313Y-134449071D01*
X108677313Y-134449071D02*
X108605884Y-134306214D01*
X108605884Y-134306214D02*
X108534456Y-134020500D01*
X108534456Y-134020500D02*
X108534456Y-133663357D01*
X108534456Y-133663357D02*
X108605884Y-133377642D01*
X108605884Y-133377642D02*
X108677313Y-133234785D01*
X108677313Y-133234785D02*
X108748742Y-133163357D01*
X108748742Y-133163357D02*
X108891599Y-133091928D01*
X110034455Y-134449071D02*
X110105884Y-134520500D01*
X110105884Y-134520500D02*
X110034455Y-134591928D01*
X110034455Y-134591928D02*
X109963027Y-134520500D01*
X109963027Y-134520500D02*
X110034455Y-134449071D01*
X110034455Y-134449071D02*
X110034455Y-134591928D01*
X111391599Y-133591928D02*
X111391599Y-134591928D01*
X111034456Y-133020500D02*
X110677313Y-134091928D01*
X110677313Y-134091928D02*
X111605884Y-134091928D01*
D10*
D11*
X90007200Y-129505800D02*
X198007200Y-129505800D01*
D10*
D12*
X177418853Y-131784128D02*
X176918853Y-131069842D01*
X176561710Y-131784128D02*
X176561710Y-130284128D01*
X176561710Y-130284128D02*
X177133139Y-130284128D01*
X177133139Y-130284128D02*
X177275996Y-130355557D01*
X177275996Y-130355557D02*
X177347425Y-130426985D01*
X177347425Y-130426985D02*
X177418853Y-130569842D01*
X177418853Y-130569842D02*
X177418853Y-130784128D01*
X177418853Y-130784128D02*
X177347425Y-130926985D01*
X177347425Y-130926985D02*
X177275996Y-130998414D01*
X177275996Y-130998414D02*
X177133139Y-131069842D01*
X177133139Y-131069842D02*
X176561710Y-131069842D01*
X178633139Y-131712700D02*
X178490282Y-131784128D01*
X178490282Y-131784128D02*
X178204568Y-131784128D01*
X178204568Y-131784128D02*
X178061710Y-131712700D01*
X178061710Y-131712700D02*
X177990282Y-131569842D01*
X177990282Y-131569842D02*
X177990282Y-130998414D01*
X177990282Y-130998414D02*
X178061710Y-130855557D01*
X178061710Y-130855557D02*
X178204568Y-130784128D01*
X178204568Y-130784128D02*
X178490282Y-130784128D01*
X178490282Y-130784128D02*
X178633139Y-130855557D01*
X178633139Y-130855557D02*
X178704568Y-130998414D01*
X178704568Y-130998414D02*
X178704568Y-131141271D01*
X178704568Y-131141271D02*
X177990282Y-131284128D01*
X179204567Y-130784128D02*
X179561710Y-131784128D01*
X179561710Y-131784128D02*
X179918853Y-130784128D01*
X180490281Y-131641271D02*
X180561710Y-131712700D01*
X180561710Y-131712700D02*
X180490281Y-131784128D01*
X180490281Y-131784128D02*
X180418853Y-131712700D01*
X180418853Y-131712700D02*
X180490281Y-131641271D01*
X180490281Y-131641271D02*
X180490281Y-131784128D01*
X180490281Y-130855557D02*
X180561710Y-130926985D01*
X180561710Y-130926985D02*
X180490281Y-130998414D01*
X180490281Y-130998414D02*
X180418853Y-130926985D01*
X180418853Y-130926985D02*
X180490281Y-130855557D01*
X180490281Y-130855557D02*
X180490281Y-130998414D01*
X183133139Y-131784128D02*
X182275996Y-131784128D01*
X182704567Y-131784128D02*
X182704567Y-130284128D01*
X182704567Y-130284128D02*
X182561710Y-130498414D01*
X182561710Y-130498414D02*
X182418853Y-130641271D01*
X182418853Y-130641271D02*
X182275996Y-130712700D01*
X183775995Y-131641271D02*
X183847424Y-131712700D01*
X183847424Y-131712700D02*
X183775995Y-131784128D01*
X183775995Y-131784128D02*
X183704567Y-131712700D01*
X183704567Y-131712700D02*
X183775995Y-131641271D01*
X183775995Y-131641271D02*
X183775995Y-131784128D01*
X184775996Y-130284128D02*
X184918853Y-130284128D01*
X184918853Y-130284128D02*
X185061710Y-130355557D01*
X185061710Y-130355557D02*
X185133139Y-130426985D01*
X185133139Y-130426985D02*
X185204567Y-130569842D01*
X185204567Y-130569842D02*
X185275996Y-130855557D01*
X185275996Y-130855557D02*
X185275996Y-131212700D01*
X185275996Y-131212700D02*
X185204567Y-131498414D01*
X185204567Y-131498414D02*
X185133139Y-131641271D01*
X185133139Y-131641271D02*
X185061710Y-131712700D01*
X185061710Y-131712700D02*
X184918853Y-131784128D01*
X184918853Y-131784128D02*
X184775996Y-131784128D01*
X184775996Y-131784128D02*
X184633139Y-131712700D01*
X184633139Y-131712700D02*
X184561710Y-131641271D01*
X184561710Y-131641271D02*
X184490281Y-131498414D01*
X184490281Y-131498414D02*
X184418853Y-131212700D01*
X184418853Y-131212700D02*
X184418853Y-130855557D01*
X184418853Y-130855557D02*
X184490281Y-130569842D01*
X184490281Y-130569842D02*
X184561710Y-130426985D01*
X184561710Y-130426985D02*
X184633139Y-130355557D01*
X184633139Y-130355557D02*
X184775996Y-130284128D01*
D10*
D11*
X91391598Y-131720500D02*
X91605884Y-131791928D01*
X91605884Y-131791928D02*
X91963026Y-131791928D01*
X91963026Y-131791928D02*
X92105884Y-131720500D01*
X92105884Y-131720500D02*
X92177312Y-131649071D01*
X92177312Y-131649071D02*
X92248741Y-131506214D01*
X92248741Y-131506214D02*
X92248741Y-131363357D01*
X92248741Y-131363357D02*
X92177312Y-131220500D01*
X92177312Y-131220500D02*
X92105884Y-131149071D01*
X92105884Y-131149071D02*
X91963026Y-131077642D01*
X91963026Y-131077642D02*
X91677312Y-131006214D01*
X91677312Y-131006214D02*
X91534455Y-130934785D01*
X91534455Y-130934785D02*
X91463026Y-130863357D01*
X91463026Y-130863357D02*
X91391598Y-130720500D01*
X91391598Y-130720500D02*
X91391598Y-130577642D01*
X91391598Y-130577642D02*
X91463026Y-130434785D01*
X91463026Y-130434785D02*
X91534455Y-130363357D01*
X91534455Y-130363357D02*
X91677312Y-130291928D01*
X91677312Y-130291928D02*
X92034455Y-130291928D01*
X92034455Y-130291928D02*
X92248741Y-130363357D01*
X92891597Y-131791928D02*
X92891597Y-130791928D01*
X92891597Y-130291928D02*
X92820169Y-130363357D01*
X92820169Y-130363357D02*
X92891597Y-130434785D01*
X92891597Y-130434785D02*
X92963026Y-130363357D01*
X92963026Y-130363357D02*
X92891597Y-130291928D01*
X92891597Y-130291928D02*
X92891597Y-130434785D01*
X93463026Y-130791928D02*
X94248741Y-130791928D01*
X94248741Y-130791928D02*
X93463026Y-131791928D01*
X93463026Y-131791928D02*
X94248741Y-131791928D01*
X95391598Y-131720500D02*
X95248741Y-131791928D01*
X95248741Y-131791928D02*
X94963027Y-131791928D01*
X94963027Y-131791928D02*
X94820169Y-131720500D01*
X94820169Y-131720500D02*
X94748741Y-131577642D01*
X94748741Y-131577642D02*
X94748741Y-131006214D01*
X94748741Y-131006214D02*
X94820169Y-130863357D01*
X94820169Y-130863357D02*
X94963027Y-130791928D01*
X94963027Y-130791928D02*
X95248741Y-130791928D01*
X95248741Y-130791928D02*
X95391598Y-130863357D01*
X95391598Y-130863357D02*
X95463027Y-131006214D01*
X95463027Y-131006214D02*
X95463027Y-131149071D01*
X95463027Y-131149071D02*
X94748741Y-131291928D01*
X96105883Y-131649071D02*
X96177312Y-131720500D01*
X96177312Y-131720500D02*
X96105883Y-131791928D01*
X96105883Y-131791928D02*
X96034455Y-131720500D01*
X96034455Y-131720500D02*
X96105883Y-131649071D01*
X96105883Y-131649071D02*
X96105883Y-131791928D01*
X96105883Y-130863357D02*
X96177312Y-130934785D01*
X96177312Y-130934785D02*
X96105883Y-131006214D01*
X96105883Y-131006214D02*
X96034455Y-130934785D01*
X96034455Y-130934785D02*
X96105883Y-130863357D01*
X96105883Y-130863357D02*
X96105883Y-131006214D01*
X97891598Y-131363357D02*
X98605884Y-131363357D01*
X97748741Y-131791928D02*
X98248741Y-130291928D01*
X98248741Y-130291928D02*
X98748741Y-131791928D01*
X99963026Y-130291928D02*
X99248740Y-130291928D01*
X99248740Y-130291928D02*
X99177312Y-131006214D01*
X99177312Y-131006214D02*
X99248740Y-130934785D01*
X99248740Y-130934785D02*
X99391598Y-130863357D01*
X99391598Y-130863357D02*
X99748740Y-130863357D01*
X99748740Y-130863357D02*
X99891598Y-130934785D01*
X99891598Y-130934785D02*
X99963026Y-131006214D01*
X99963026Y-131006214D02*
X100034455Y-131149071D01*
X100034455Y-131149071D02*
X100034455Y-131506214D01*
X100034455Y-131506214D02*
X99963026Y-131649071D01*
X99963026Y-131649071D02*
X99891598Y-131720500D01*
X99891598Y-131720500D02*
X99748740Y-131791928D01*
X99748740Y-131791928D02*
X99391598Y-131791928D01*
X99391598Y-131791928D02*
X99248740Y-131720500D01*
X99248740Y-131720500D02*
X99177312Y-131649071D01*
D10*
D11*
X176463026Y-134591928D02*
X176463026Y-133091928D01*
X177820170Y-134591928D02*
X177820170Y-133091928D01*
X177820170Y-134520500D02*
X177677312Y-134591928D01*
X177677312Y-134591928D02*
X177391598Y-134591928D01*
X177391598Y-134591928D02*
X177248741Y-134520500D01*
X177248741Y-134520500D02*
X177177312Y-134449071D01*
X177177312Y-134449071D02*
X177105884Y-134306214D01*
X177105884Y-134306214D02*
X177105884Y-133877642D01*
X177105884Y-133877642D02*
X177177312Y-133734785D01*
X177177312Y-133734785D02*
X177248741Y-133663357D01*
X177248741Y-133663357D02*
X177391598Y-133591928D01*
X177391598Y-133591928D02*
X177677312Y-133591928D01*
X177677312Y-133591928D02*
X177820170Y-133663357D01*
X178534455Y-134449071D02*
X178605884Y-134520500D01*
X178605884Y-134520500D02*
X178534455Y-134591928D01*
X178534455Y-134591928D02*
X178463027Y-134520500D01*
X178463027Y-134520500D02*
X178534455Y-134449071D01*
X178534455Y-134449071D02*
X178534455Y-134591928D01*
X178534455Y-133663357D02*
X178605884Y-133734785D01*
X178605884Y-133734785D02*
X178534455Y-133806214D01*
X178534455Y-133806214D02*
X178463027Y-133734785D01*
X178463027Y-133734785D02*
X178534455Y-133663357D01*
X178534455Y-133663357D02*
X178534455Y-133806214D01*
X181177313Y-134591928D02*
X180320170Y-134591928D01*
X180748741Y-134591928D02*
X180748741Y-133091928D01*
X180748741Y-133091928D02*
X180605884Y-133306214D01*
X180605884Y-133306214D02*
X180463027Y-133449071D01*
X180463027Y-133449071D02*
X180320170Y-133520500D01*
X182891598Y-133020500D02*
X181605884Y-134949071D01*
X184177313Y-134591928D02*
X183320170Y-134591928D01*
X183748741Y-134591928D02*
X183748741Y-133091928D01*
X183748741Y-133091928D02*
X183605884Y-133306214D01*
X183605884Y-133306214D02*
X183463027Y-133449071D01*
X183463027Y-133449071D02*
X183320170Y-133520500D01*
D10*
D11*
X90007200Y-125505800D02*
X198007200Y-125505800D01*
D10*
D13*
X91698928Y-126210238D02*
X92841785Y-126210238D01*
X92020357Y-128210238D02*
X92270357Y-126210238D01*
X93258452Y-128210238D02*
X93425119Y-126876904D01*
X93508452Y-126210238D02*
X93401309Y-126305476D01*
X93401309Y-126305476D02*
X93484643Y-126400714D01*
X93484643Y-126400714D02*
X93591786Y-126305476D01*
X93591786Y-126305476D02*
X93508452Y-126210238D01*
X93508452Y-126210238D02*
X93484643Y-126400714D01*
X94091786Y-126876904D02*
X94853690Y-126876904D01*
X94460833Y-126210238D02*
X94246548Y-127924523D01*
X94246548Y-127924523D02*
X94317976Y-128115000D01*
X94317976Y-128115000D02*
X94496548Y-128210238D01*
X94496548Y-128210238D02*
X94687024Y-128210238D01*
X95639405Y-128210238D02*
X95460833Y-128115000D01*
X95460833Y-128115000D02*
X95389405Y-127924523D01*
X95389405Y-127924523D02*
X95603690Y-126210238D01*
X97175119Y-128115000D02*
X96972738Y-128210238D01*
X96972738Y-128210238D02*
X96591785Y-128210238D01*
X96591785Y-128210238D02*
X96413214Y-128115000D01*
X96413214Y-128115000D02*
X96341785Y-127924523D01*
X96341785Y-127924523D02*
X96437024Y-127162619D01*
X96437024Y-127162619D02*
X96556071Y-126972142D01*
X96556071Y-126972142D02*
X96758452Y-126876904D01*
X96758452Y-126876904D02*
X97139404Y-126876904D01*
X97139404Y-126876904D02*
X97317976Y-126972142D01*
X97317976Y-126972142D02*
X97389404Y-127162619D01*
X97389404Y-127162619D02*
X97365595Y-127353095D01*
X97365595Y-127353095D02*
X96389404Y-127543571D01*
X98139405Y-128019761D02*
X98222738Y-128115000D01*
X98222738Y-128115000D02*
X98115595Y-128210238D01*
X98115595Y-128210238D02*
X98032262Y-128115000D01*
X98032262Y-128115000D02*
X98139405Y-128019761D01*
X98139405Y-128019761D02*
X98115595Y-128210238D01*
X98270357Y-126972142D02*
X98353690Y-127067380D01*
X98353690Y-127067380D02*
X98246548Y-127162619D01*
X98246548Y-127162619D02*
X98163214Y-127067380D01*
X98163214Y-127067380D02*
X98270357Y-126972142D01*
X98270357Y-126972142D02*
X98246548Y-127162619D01*
X100508453Y-128115000D02*
X100782262Y-128210238D01*
X100782262Y-128210238D02*
X101258453Y-128210238D01*
X101258453Y-128210238D02*
X101460834Y-128115000D01*
X101460834Y-128115000D02*
X101567977Y-128019761D01*
X101567977Y-128019761D02*
X101687024Y-127829285D01*
X101687024Y-127829285D02*
X101710834Y-127638809D01*
X101710834Y-127638809D02*
X101639405Y-127448333D01*
X101639405Y-127448333D02*
X101556072Y-127353095D01*
X101556072Y-127353095D02*
X101377501Y-127257857D01*
X101377501Y-127257857D02*
X101008453Y-127162619D01*
X101008453Y-127162619D02*
X100829881Y-127067380D01*
X100829881Y-127067380D02*
X100746548Y-126972142D01*
X100746548Y-126972142D02*
X100675120Y-126781666D01*
X100675120Y-126781666D02*
X100698929Y-126591190D01*
X100698929Y-126591190D02*
X100817977Y-126400714D01*
X100817977Y-126400714D02*
X100925120Y-126305476D01*
X100925120Y-126305476D02*
X101127501Y-126210238D01*
X101127501Y-126210238D02*
X101603691Y-126210238D01*
X101603691Y-126210238D02*
X101877501Y-126305476D01*
X102782263Y-128210238D02*
X102603691Y-128115000D01*
X102603691Y-128115000D02*
X102520358Y-128019761D01*
X102520358Y-128019761D02*
X102448929Y-127829285D01*
X102448929Y-127829285D02*
X102520358Y-127257857D01*
X102520358Y-127257857D02*
X102639405Y-127067380D01*
X102639405Y-127067380D02*
X102746548Y-126972142D01*
X102746548Y-126972142D02*
X102948929Y-126876904D01*
X102948929Y-126876904D02*
X103234643Y-126876904D01*
X103234643Y-126876904D02*
X103413215Y-126972142D01*
X103413215Y-126972142D02*
X103496548Y-127067380D01*
X103496548Y-127067380D02*
X103567977Y-127257857D01*
X103567977Y-127257857D02*
X103496548Y-127829285D01*
X103496548Y-127829285D02*
X103377501Y-128019761D01*
X103377501Y-128019761D02*
X103270358Y-128115000D01*
X103270358Y-128115000D02*
X103067977Y-128210238D01*
X103067977Y-128210238D02*
X102782263Y-128210238D01*
X104591787Y-128210238D02*
X104413215Y-128115000D01*
X104413215Y-128115000D02*
X104341787Y-127924523D01*
X104341787Y-127924523D02*
X104556072Y-126210238D01*
X106210834Y-128210238D02*
X106460834Y-126210238D01*
X106222739Y-128115000D02*
X106020358Y-128210238D01*
X106020358Y-128210238D02*
X105639406Y-128210238D01*
X105639406Y-128210238D02*
X105460834Y-128115000D01*
X105460834Y-128115000D02*
X105377501Y-128019761D01*
X105377501Y-128019761D02*
X105306072Y-127829285D01*
X105306072Y-127829285D02*
X105377501Y-127257857D01*
X105377501Y-127257857D02*
X105496548Y-127067380D01*
X105496548Y-127067380D02*
X105603691Y-126972142D01*
X105603691Y-126972142D02*
X105806072Y-126876904D01*
X105806072Y-126876904D02*
X106187025Y-126876904D01*
X106187025Y-126876904D02*
X106365596Y-126972142D01*
X107937025Y-128115000D02*
X107734644Y-128210238D01*
X107734644Y-128210238D02*
X107353691Y-128210238D01*
X107353691Y-128210238D02*
X107175120Y-128115000D01*
X107175120Y-128115000D02*
X107103691Y-127924523D01*
X107103691Y-127924523D02*
X107198930Y-127162619D01*
X107198930Y-127162619D02*
X107317977Y-126972142D01*
X107317977Y-126972142D02*
X107520358Y-126876904D01*
X107520358Y-126876904D02*
X107901310Y-126876904D01*
X107901310Y-126876904D02*
X108079882Y-126972142D01*
X108079882Y-126972142D02*
X108151310Y-127162619D01*
X108151310Y-127162619D02*
X108127501Y-127353095D01*
X108127501Y-127353095D02*
X107151310Y-127543571D01*
X108877501Y-128210238D02*
X109044168Y-126876904D01*
X108996549Y-127257857D02*
X109115596Y-127067380D01*
X109115596Y-127067380D02*
X109222739Y-126972142D01*
X109222739Y-126972142D02*
X109425120Y-126876904D01*
X109425120Y-126876904D02*
X109615596Y-126876904D01*
X110115596Y-128210238D02*
X110282263Y-126876904D01*
X110258453Y-127067380D02*
X110365596Y-126972142D01*
X110365596Y-126972142D02*
X110567977Y-126876904D01*
X110567977Y-126876904D02*
X110853691Y-126876904D01*
X110853691Y-126876904D02*
X111032263Y-126972142D01*
X111032263Y-126972142D02*
X111103691Y-127162619D01*
X111103691Y-127162619D02*
X110972739Y-128210238D01*
X111103691Y-127162619D02*
X111222739Y-126972142D01*
X111222739Y-126972142D02*
X111425120Y-126876904D01*
X111425120Y-126876904D02*
X111710834Y-126876904D01*
X111710834Y-126876904D02*
X111889406Y-126972142D01*
X111889406Y-126972142D02*
X111960834Y-127162619D01*
X111960834Y-127162619D02*
X111829882Y-128210238D01*
X113639406Y-128210238D02*
X113770358Y-127162619D01*
X113770358Y-127162619D02*
X113698930Y-126972142D01*
X113698930Y-126972142D02*
X113520358Y-126876904D01*
X113520358Y-126876904D02*
X113139406Y-126876904D01*
X113139406Y-126876904D02*
X112937025Y-126972142D01*
X113651311Y-128115000D02*
X113448930Y-128210238D01*
X113448930Y-128210238D02*
X112972739Y-128210238D01*
X112972739Y-128210238D02*
X112794168Y-128115000D01*
X112794168Y-128115000D02*
X112722739Y-127924523D01*
X112722739Y-127924523D02*
X112746549Y-127734047D01*
X112746549Y-127734047D02*
X112865597Y-127543571D01*
X112865597Y-127543571D02*
X113067978Y-127448333D01*
X113067978Y-127448333D02*
X113544168Y-127448333D01*
X113544168Y-127448333D02*
X113746549Y-127353095D01*
X114758454Y-126876904D02*
X114591787Y-128210238D01*
X114734644Y-127067380D02*
X114841787Y-126972142D01*
X114841787Y-126972142D02*
X115044168Y-126876904D01*
X115044168Y-126876904D02*
X115329882Y-126876904D01*
X115329882Y-126876904D02*
X115508454Y-126972142D01*
X115508454Y-126972142D02*
X115579882Y-127162619D01*
X115579882Y-127162619D02*
X115448930Y-128210238D01*
X117258454Y-128210238D02*
X117508454Y-126210238D01*
X117270359Y-128115000D02*
X117067978Y-128210238D01*
X117067978Y-128210238D02*
X116687026Y-128210238D01*
X116687026Y-128210238D02*
X116508454Y-128115000D01*
X116508454Y-128115000D02*
X116425121Y-128019761D01*
X116425121Y-128019761D02*
X116353692Y-127829285D01*
X116353692Y-127829285D02*
X116425121Y-127257857D01*
X116425121Y-127257857D02*
X116544168Y-127067380D01*
X116544168Y-127067380D02*
X116651311Y-126972142D01*
X116651311Y-126972142D02*
X116853692Y-126876904D01*
X116853692Y-126876904D02*
X117234645Y-126876904D01*
X117234645Y-126876904D02*
X117413216Y-126972142D01*
X118984645Y-128115000D02*
X118782264Y-128210238D01*
X118782264Y-128210238D02*
X118401311Y-128210238D01*
X118401311Y-128210238D02*
X118222740Y-128115000D01*
X118222740Y-128115000D02*
X118151311Y-127924523D01*
X118151311Y-127924523D02*
X118246550Y-127162619D01*
X118246550Y-127162619D02*
X118365597Y-126972142D01*
X118365597Y-126972142D02*
X118567978Y-126876904D01*
X118567978Y-126876904D02*
X118948930Y-126876904D01*
X118948930Y-126876904D02*
X119127502Y-126972142D01*
X119127502Y-126972142D02*
X119198930Y-127162619D01*
X119198930Y-127162619D02*
X119175121Y-127353095D01*
X119175121Y-127353095D02*
X118198930Y-127543571D01*
X119925121Y-128210238D02*
X120091788Y-126876904D01*
X120044169Y-127257857D02*
X120163216Y-127067380D01*
X120163216Y-127067380D02*
X120270359Y-126972142D01*
X120270359Y-126972142D02*
X120472740Y-126876904D01*
X120472740Y-126876904D02*
X120663216Y-126876904D01*
D10*
D11*
X91963026Y-123606214D02*
X91463026Y-123606214D01*
X91463026Y-124391928D02*
X91463026Y-122891928D01*
X91463026Y-122891928D02*
X92177312Y-122891928D01*
X92748740Y-124391928D02*
X92748740Y-123391928D01*
X92748740Y-122891928D02*
X92677312Y-122963357D01*
X92677312Y-122963357D02*
X92748740Y-123034785D01*
X92748740Y-123034785D02*
X92820169Y-122963357D01*
X92820169Y-122963357D02*
X92748740Y-122891928D01*
X92748740Y-122891928D02*
X92748740Y-123034785D01*
X93677312Y-124391928D02*
X93534455Y-124320500D01*
X93534455Y-124320500D02*
X93463026Y-124177642D01*
X93463026Y-124177642D02*
X93463026Y-122891928D01*
X94820169Y-124320500D02*
X94677312Y-124391928D01*
X94677312Y-124391928D02*
X94391598Y-124391928D01*
X94391598Y-124391928D02*
X94248740Y-124320500D01*
X94248740Y-124320500D02*
X94177312Y-124177642D01*
X94177312Y-124177642D02*
X94177312Y-123606214D01*
X94177312Y-123606214D02*
X94248740Y-123463357D01*
X94248740Y-123463357D02*
X94391598Y-123391928D01*
X94391598Y-123391928D02*
X94677312Y-123391928D01*
X94677312Y-123391928D02*
X94820169Y-123463357D01*
X94820169Y-123463357D02*
X94891598Y-123606214D01*
X94891598Y-123606214D02*
X94891598Y-123749071D01*
X94891598Y-123749071D02*
X94177312Y-123891928D01*
X95534454Y-124249071D02*
X95605883Y-124320500D01*
X95605883Y-124320500D02*
X95534454Y-124391928D01*
X95534454Y-124391928D02*
X95463026Y-124320500D01*
X95463026Y-124320500D02*
X95534454Y-124249071D01*
X95534454Y-124249071D02*
X95534454Y-124391928D01*
X95534454Y-123463357D02*
X95605883Y-123534785D01*
X95605883Y-123534785D02*
X95534454Y-123606214D01*
X95534454Y-123606214D02*
X95463026Y-123534785D01*
X95463026Y-123534785D02*
X95534454Y-123463357D01*
X95534454Y-123463357D02*
X95534454Y-123606214D01*
X97320169Y-124320500D02*
X97534455Y-124391928D01*
X97534455Y-124391928D02*
X97891597Y-124391928D01*
X97891597Y-124391928D02*
X98034455Y-124320500D01*
X98034455Y-124320500D02*
X98105883Y-124249071D01*
X98105883Y-124249071D02*
X98177312Y-124106214D01*
X98177312Y-124106214D02*
X98177312Y-123963357D01*
X98177312Y-123963357D02*
X98105883Y-123820500D01*
X98105883Y-123820500D02*
X98034455Y-123749071D01*
X98034455Y-123749071D02*
X97891597Y-123677642D01*
X97891597Y-123677642D02*
X97605883Y-123606214D01*
X97605883Y-123606214D02*
X97463026Y-123534785D01*
X97463026Y-123534785D02*
X97391597Y-123463357D01*
X97391597Y-123463357D02*
X97320169Y-123320500D01*
X97320169Y-123320500D02*
X97320169Y-123177642D01*
X97320169Y-123177642D02*
X97391597Y-123034785D01*
X97391597Y-123034785D02*
X97463026Y-122963357D01*
X97463026Y-122963357D02*
X97605883Y-122891928D01*
X97605883Y-122891928D02*
X97963026Y-122891928D01*
X97963026Y-122891928D02*
X98177312Y-122963357D01*
X99034454Y-124391928D02*
X98891597Y-124320500D01*
X98891597Y-124320500D02*
X98820168Y-124249071D01*
X98820168Y-124249071D02*
X98748740Y-124106214D01*
X98748740Y-124106214D02*
X98748740Y-123677642D01*
X98748740Y-123677642D02*
X98820168Y-123534785D01*
X98820168Y-123534785D02*
X98891597Y-123463357D01*
X98891597Y-123463357D02*
X99034454Y-123391928D01*
X99034454Y-123391928D02*
X99248740Y-123391928D01*
X99248740Y-123391928D02*
X99391597Y-123463357D01*
X99391597Y-123463357D02*
X99463026Y-123534785D01*
X99463026Y-123534785D02*
X99534454Y-123677642D01*
X99534454Y-123677642D02*
X99534454Y-124106214D01*
X99534454Y-124106214D02*
X99463026Y-124249071D01*
X99463026Y-124249071D02*
X99391597Y-124320500D01*
X99391597Y-124320500D02*
X99248740Y-124391928D01*
X99248740Y-124391928D02*
X99034454Y-124391928D01*
X100391597Y-124391928D02*
X100248740Y-124320500D01*
X100248740Y-124320500D02*
X100177311Y-124177642D01*
X100177311Y-124177642D02*
X100177311Y-122891928D01*
X101605883Y-124391928D02*
X101605883Y-122891928D01*
X101605883Y-124320500D02*
X101463025Y-124391928D01*
X101463025Y-124391928D02*
X101177311Y-124391928D01*
X101177311Y-124391928D02*
X101034454Y-124320500D01*
X101034454Y-124320500D02*
X100963025Y-124249071D01*
X100963025Y-124249071D02*
X100891597Y-124106214D01*
X100891597Y-124106214D02*
X100891597Y-123677642D01*
X100891597Y-123677642D02*
X100963025Y-123534785D01*
X100963025Y-123534785D02*
X101034454Y-123463357D01*
X101034454Y-123463357D02*
X101177311Y-123391928D01*
X101177311Y-123391928D02*
X101463025Y-123391928D01*
X101463025Y-123391928D02*
X101605883Y-123463357D01*
X102891597Y-124320500D02*
X102748740Y-124391928D01*
X102748740Y-124391928D02*
X102463026Y-124391928D01*
X102463026Y-124391928D02*
X102320168Y-124320500D01*
X102320168Y-124320500D02*
X102248740Y-124177642D01*
X102248740Y-124177642D02*
X102248740Y-123606214D01*
X102248740Y-123606214D02*
X102320168Y-123463357D01*
X102320168Y-123463357D02*
X102463026Y-123391928D01*
X102463026Y-123391928D02*
X102748740Y-123391928D01*
X102748740Y-123391928D02*
X102891597Y-123463357D01*
X102891597Y-123463357D02*
X102963026Y-123606214D01*
X102963026Y-123606214D02*
X102963026Y-123749071D01*
X102963026Y-123749071D02*
X102248740Y-123891928D01*
X103605882Y-124391928D02*
X103605882Y-123391928D01*
X103605882Y-123677642D02*
X103677311Y-123534785D01*
X103677311Y-123534785D02*
X103748740Y-123463357D01*
X103748740Y-123463357D02*
X103891597Y-123391928D01*
X103891597Y-123391928D02*
X104034454Y-123391928D01*
X104534453Y-124391928D02*
X104534453Y-123391928D01*
X104534453Y-123534785D02*
X104605882Y-123463357D01*
X104605882Y-123463357D02*
X104748739Y-123391928D01*
X104748739Y-123391928D02*
X104963025Y-123391928D01*
X104963025Y-123391928D02*
X105105882Y-123463357D01*
X105105882Y-123463357D02*
X105177311Y-123606214D01*
X105177311Y-123606214D02*
X105177311Y-124391928D01*
X105177311Y-123606214D02*
X105248739Y-123463357D01*
X105248739Y-123463357D02*
X105391596Y-123391928D01*
X105391596Y-123391928D02*
X105605882Y-123391928D01*
X105605882Y-123391928D02*
X105748739Y-123463357D01*
X105748739Y-123463357D02*
X105820168Y-123606214D01*
X105820168Y-123606214D02*
X105820168Y-124391928D01*
X107177311Y-124391928D02*
X107177311Y-123606214D01*
X107177311Y-123606214D02*
X107105882Y-123463357D01*
X107105882Y-123463357D02*
X106963025Y-123391928D01*
X106963025Y-123391928D02*
X106677311Y-123391928D01*
X106677311Y-123391928D02*
X106534453Y-123463357D01*
X107177311Y-124320500D02*
X107034453Y-124391928D01*
X107034453Y-124391928D02*
X106677311Y-124391928D01*
X106677311Y-124391928D02*
X106534453Y-124320500D01*
X106534453Y-124320500D02*
X106463025Y-124177642D01*
X106463025Y-124177642D02*
X106463025Y-124034785D01*
X106463025Y-124034785D02*
X106534453Y-123891928D01*
X106534453Y-123891928D02*
X106677311Y-123820500D01*
X106677311Y-123820500D02*
X107034453Y-123820500D01*
X107034453Y-123820500D02*
X107177311Y-123749071D01*
X107891596Y-123391928D02*
X107891596Y-124391928D01*
X107891596Y-123534785D02*
X107963025Y-123463357D01*
X107963025Y-123463357D02*
X108105882Y-123391928D01*
X108105882Y-123391928D02*
X108320168Y-123391928D01*
X108320168Y-123391928D02*
X108463025Y-123463357D01*
X108463025Y-123463357D02*
X108534454Y-123606214D01*
X108534454Y-123606214D02*
X108534454Y-124391928D01*
X109891597Y-124391928D02*
X109891597Y-122891928D01*
X109891597Y-124320500D02*
X109748739Y-124391928D01*
X109748739Y-124391928D02*
X109463025Y-124391928D01*
X109463025Y-124391928D02*
X109320168Y-124320500D01*
X109320168Y-124320500D02*
X109248739Y-124249071D01*
X109248739Y-124249071D02*
X109177311Y-124106214D01*
X109177311Y-124106214D02*
X109177311Y-123677642D01*
X109177311Y-123677642D02*
X109248739Y-123534785D01*
X109248739Y-123534785D02*
X109320168Y-123463357D01*
X109320168Y-123463357D02*
X109463025Y-123391928D01*
X109463025Y-123391928D02*
X109748739Y-123391928D01*
X109748739Y-123391928D02*
X109891597Y-123463357D01*
X111177311Y-124320500D02*
X111034454Y-124391928D01*
X111034454Y-124391928D02*
X110748740Y-124391928D01*
X110748740Y-124391928D02*
X110605882Y-124320500D01*
X110605882Y-124320500D02*
X110534454Y-124177642D01*
X110534454Y-124177642D02*
X110534454Y-123606214D01*
X110534454Y-123606214D02*
X110605882Y-123463357D01*
X110605882Y-123463357D02*
X110748740Y-123391928D01*
X110748740Y-123391928D02*
X111034454Y-123391928D01*
X111034454Y-123391928D02*
X111177311Y-123463357D01*
X111177311Y-123463357D02*
X111248740Y-123606214D01*
X111248740Y-123606214D02*
X111248740Y-123749071D01*
X111248740Y-123749071D02*
X110534454Y-123891928D01*
X111891596Y-124391928D02*
X111891596Y-123391928D01*
X111891596Y-123677642D02*
X111963025Y-123534785D01*
X111963025Y-123534785D02*
X112034454Y-123463357D01*
X112034454Y-123463357D02*
X112177311Y-123391928D01*
X112177311Y-123391928D02*
X112320168Y-123391928D01*
X112463025Y-124534785D02*
X113605882Y-124534785D01*
X113963024Y-123391928D02*
X113963024Y-124891928D01*
X113963024Y-123463357D02*
X114105882Y-123391928D01*
X114105882Y-123391928D02*
X114391596Y-123391928D01*
X114391596Y-123391928D02*
X114534453Y-123463357D01*
X114534453Y-123463357D02*
X114605882Y-123534785D01*
X114605882Y-123534785D02*
X114677310Y-123677642D01*
X114677310Y-123677642D02*
X114677310Y-124106214D01*
X114677310Y-124106214D02*
X114605882Y-124249071D01*
X114605882Y-124249071D02*
X114534453Y-124320500D01*
X114534453Y-124320500D02*
X114391596Y-124391928D01*
X114391596Y-124391928D02*
X114105882Y-124391928D01*
X114105882Y-124391928D02*
X113963024Y-124320500D01*
X115963025Y-124391928D02*
X115963025Y-123606214D01*
X115963025Y-123606214D02*
X115891596Y-123463357D01*
X115891596Y-123463357D02*
X115748739Y-123391928D01*
X115748739Y-123391928D02*
X115463025Y-123391928D01*
X115463025Y-123391928D02*
X115320167Y-123463357D01*
X115963025Y-124320500D02*
X115820167Y-124391928D01*
X115820167Y-124391928D02*
X115463025Y-124391928D01*
X115463025Y-124391928D02*
X115320167Y-124320500D01*
X115320167Y-124320500D02*
X115248739Y-124177642D01*
X115248739Y-124177642D02*
X115248739Y-124034785D01*
X115248739Y-124034785D02*
X115320167Y-123891928D01*
X115320167Y-123891928D02*
X115463025Y-123820500D01*
X115463025Y-123820500D02*
X115820167Y-123820500D01*
X115820167Y-123820500D02*
X115963025Y-123749071D01*
X116677310Y-123391928D02*
X116677310Y-124391928D01*
X116677310Y-123534785D02*
X116748739Y-123463357D01*
X116748739Y-123463357D02*
X116891596Y-123391928D01*
X116891596Y-123391928D02*
X117105882Y-123391928D01*
X117105882Y-123391928D02*
X117248739Y-123463357D01*
X117248739Y-123463357D02*
X117320168Y-123606214D01*
X117320168Y-123606214D02*
X117320168Y-124391928D01*
X118605882Y-124320500D02*
X118463025Y-124391928D01*
X118463025Y-124391928D02*
X118177311Y-124391928D01*
X118177311Y-124391928D02*
X118034453Y-124320500D01*
X118034453Y-124320500D02*
X117963025Y-124177642D01*
X117963025Y-124177642D02*
X117963025Y-123606214D01*
X117963025Y-123606214D02*
X118034453Y-123463357D01*
X118034453Y-123463357D02*
X118177311Y-123391928D01*
X118177311Y-123391928D02*
X118463025Y-123391928D01*
X118463025Y-123391928D02*
X118605882Y-123463357D01*
X118605882Y-123463357D02*
X118677311Y-123606214D01*
X118677311Y-123606214D02*
X118677311Y-123749071D01*
X118677311Y-123749071D02*
X117963025Y-123891928D01*
X119534453Y-124391928D02*
X119391596Y-124320500D01*
X119391596Y-124320500D02*
X119320167Y-124177642D01*
X119320167Y-124177642D02*
X119320167Y-122891928D01*
X120105881Y-124391928D02*
X120105881Y-123391928D01*
X120105881Y-122891928D02*
X120034453Y-122963357D01*
X120034453Y-122963357D02*
X120105881Y-123034785D01*
X120105881Y-123034785D02*
X120177310Y-122963357D01*
X120177310Y-122963357D02*
X120105881Y-122891928D01*
X120105881Y-122891928D02*
X120105881Y-123034785D01*
X120677310Y-123391928D02*
X121463025Y-123391928D01*
X121463025Y-123391928D02*
X120677310Y-124391928D01*
X120677310Y-124391928D02*
X121463025Y-124391928D01*
X122605882Y-124320500D02*
X122463025Y-124391928D01*
X122463025Y-124391928D02*
X122177311Y-124391928D01*
X122177311Y-124391928D02*
X122034453Y-124320500D01*
X122034453Y-124320500D02*
X121963025Y-124177642D01*
X121963025Y-124177642D02*
X121963025Y-123606214D01*
X121963025Y-123606214D02*
X122034453Y-123463357D01*
X122034453Y-123463357D02*
X122177311Y-123391928D01*
X122177311Y-123391928D02*
X122463025Y-123391928D01*
X122463025Y-123391928D02*
X122605882Y-123463357D01*
X122605882Y-123463357D02*
X122677311Y-123606214D01*
X122677311Y-123606214D02*
X122677311Y-123749071D01*
X122677311Y-123749071D02*
X121963025Y-123891928D01*
X123963025Y-124391928D02*
X123963025Y-122891928D01*
X123963025Y-124320500D02*
X123820167Y-124391928D01*
X123820167Y-124391928D02*
X123534453Y-124391928D01*
X123534453Y-124391928D02*
X123391596Y-124320500D01*
X123391596Y-124320500D02*
X123320167Y-124249071D01*
X123320167Y-124249071D02*
X123248739Y-124106214D01*
X123248739Y-124106214D02*
X123248739Y-123677642D01*
X123248739Y-123677642D02*
X123320167Y-123534785D01*
X123320167Y-123534785D02*
X123391596Y-123463357D01*
X123391596Y-123463357D02*
X123534453Y-123391928D01*
X123534453Y-123391928D02*
X123820167Y-123391928D01*
X123820167Y-123391928D02*
X123963025Y-123463357D01*
X124320168Y-124534785D02*
X125463025Y-124534785D01*
X125820167Y-123391928D02*
X125820167Y-124891928D01*
X125820167Y-123463357D02*
X125963025Y-123391928D01*
X125963025Y-123391928D02*
X126248739Y-123391928D01*
X126248739Y-123391928D02*
X126391596Y-123463357D01*
X126391596Y-123463357D02*
X126463025Y-123534785D01*
X126463025Y-123534785D02*
X126534453Y-123677642D01*
X126534453Y-123677642D02*
X126534453Y-124106214D01*
X126534453Y-124106214D02*
X126463025Y-124249071D01*
X126463025Y-124249071D02*
X126391596Y-124320500D01*
X126391596Y-124320500D02*
X126248739Y-124391928D01*
X126248739Y-124391928D02*
X125963025Y-124391928D01*
X125963025Y-124391928D02*
X125820167Y-124320500D01*
X127820168Y-124391928D02*
X127820168Y-123606214D01*
X127820168Y-123606214D02*
X127748739Y-123463357D01*
X127748739Y-123463357D02*
X127605882Y-123391928D01*
X127605882Y-123391928D02*
X127320168Y-123391928D01*
X127320168Y-123391928D02*
X127177310Y-123463357D01*
X127820168Y-124320500D02*
X127677310Y-124391928D01*
X127677310Y-124391928D02*
X127320168Y-124391928D01*
X127320168Y-124391928D02*
X127177310Y-124320500D01*
X127177310Y-124320500D02*
X127105882Y-124177642D01*
X127105882Y-124177642D02*
X127105882Y-124034785D01*
X127105882Y-124034785D02*
X127177310Y-123891928D01*
X127177310Y-123891928D02*
X127320168Y-123820500D01*
X127320168Y-123820500D02*
X127677310Y-123820500D01*
X127677310Y-123820500D02*
X127820168Y-123749071D01*
X128534453Y-123391928D02*
X128534453Y-124391928D01*
X128534453Y-123534785D02*
X128605882Y-123463357D01*
X128605882Y-123463357D02*
X128748739Y-123391928D01*
X128748739Y-123391928D02*
X128963025Y-123391928D01*
X128963025Y-123391928D02*
X129105882Y-123463357D01*
X129105882Y-123463357D02*
X129177311Y-123606214D01*
X129177311Y-123606214D02*
X129177311Y-124391928D01*
X130463025Y-124320500D02*
X130320168Y-124391928D01*
X130320168Y-124391928D02*
X130034454Y-124391928D01*
X130034454Y-124391928D02*
X129891596Y-124320500D01*
X129891596Y-124320500D02*
X129820168Y-124177642D01*
X129820168Y-124177642D02*
X129820168Y-123606214D01*
X129820168Y-123606214D02*
X129891596Y-123463357D01*
X129891596Y-123463357D02*
X130034454Y-123391928D01*
X130034454Y-123391928D02*
X130320168Y-123391928D01*
X130320168Y-123391928D02*
X130463025Y-123463357D01*
X130463025Y-123463357D02*
X130534454Y-123606214D01*
X130534454Y-123606214D02*
X130534454Y-123749071D01*
X130534454Y-123749071D02*
X129820168Y-123891928D01*
X131391596Y-124391928D02*
X131248739Y-124320500D01*
X131248739Y-124320500D02*
X131177310Y-124177642D01*
X131177310Y-124177642D02*
X131177310Y-122891928D01*
X131963024Y-124391928D02*
X131963024Y-123391928D01*
X131963024Y-122891928D02*
X131891596Y-122963357D01*
X131891596Y-122963357D02*
X131963024Y-123034785D01*
X131963024Y-123034785D02*
X132034453Y-122963357D01*
X132034453Y-122963357D02*
X131963024Y-122891928D01*
X131963024Y-122891928D02*
X131963024Y-123034785D01*
X132534453Y-123391928D02*
X133320168Y-123391928D01*
X133320168Y-123391928D02*
X132534453Y-124391928D01*
X132534453Y-124391928D02*
X133320168Y-124391928D01*
X134463025Y-124320500D02*
X134320168Y-124391928D01*
X134320168Y-124391928D02*
X134034454Y-124391928D01*
X134034454Y-124391928D02*
X133891596Y-124320500D01*
X133891596Y-124320500D02*
X133820168Y-124177642D01*
X133820168Y-124177642D02*
X133820168Y-123606214D01*
X133820168Y-123606214D02*
X133891596Y-123463357D01*
X133891596Y-123463357D02*
X134034454Y-123391928D01*
X134034454Y-123391928D02*
X134320168Y-123391928D01*
X134320168Y-123391928D02*
X134463025Y-123463357D01*
X134463025Y-123463357D02*
X134534454Y-123606214D01*
X134534454Y-123606214D02*
X134534454Y-123749071D01*
X134534454Y-123749071D02*
X133820168Y-123891928D01*
X135820168Y-124391928D02*
X135820168Y-122891928D01*
X135820168Y-124320500D02*
X135677310Y-124391928D01*
X135677310Y-124391928D02*
X135391596Y-124391928D01*
X135391596Y-124391928D02*
X135248739Y-124320500D01*
X135248739Y-124320500D02*
X135177310Y-124249071D01*
X135177310Y-124249071D02*
X135105882Y-124106214D01*
X135105882Y-124106214D02*
X135105882Y-123677642D01*
X135105882Y-123677642D02*
X135177310Y-123534785D01*
X135177310Y-123534785D02*
X135248739Y-123463357D01*
X135248739Y-123463357D02*
X135391596Y-123391928D01*
X135391596Y-123391928D02*
X135677310Y-123391928D01*
X135677310Y-123391928D02*
X135820168Y-123463357D01*
X136534453Y-124249071D02*
X136605882Y-124320500D01*
X136605882Y-124320500D02*
X136534453Y-124391928D01*
X136534453Y-124391928D02*
X136463025Y-124320500D01*
X136463025Y-124320500D02*
X136534453Y-124249071D01*
X136534453Y-124249071D02*
X136534453Y-124391928D01*
X137248739Y-124391928D02*
X137248739Y-122891928D01*
X137391597Y-123820500D02*
X137820168Y-124391928D01*
X137820168Y-123391928D02*
X137248739Y-123963357D01*
X138463025Y-124391928D02*
X138463025Y-123391928D01*
X138463025Y-122891928D02*
X138391597Y-122963357D01*
X138391597Y-122963357D02*
X138463025Y-123034785D01*
X138463025Y-123034785D02*
X138534454Y-122963357D01*
X138534454Y-122963357D02*
X138463025Y-122891928D01*
X138463025Y-122891928D02*
X138463025Y-123034785D01*
X139820169Y-124320500D02*
X139677311Y-124391928D01*
X139677311Y-124391928D02*
X139391597Y-124391928D01*
X139391597Y-124391928D02*
X139248740Y-124320500D01*
X139248740Y-124320500D02*
X139177311Y-124249071D01*
X139177311Y-124249071D02*
X139105883Y-124106214D01*
X139105883Y-124106214D02*
X139105883Y-123677642D01*
X139105883Y-123677642D02*
X139177311Y-123534785D01*
X139177311Y-123534785D02*
X139248740Y-123463357D01*
X139248740Y-123463357D02*
X139391597Y-123391928D01*
X139391597Y-123391928D02*
X139677311Y-123391928D01*
X139677311Y-123391928D02*
X139820169Y-123463357D01*
X141105883Y-124391928D02*
X141105883Y-123606214D01*
X141105883Y-123606214D02*
X141034454Y-123463357D01*
X141034454Y-123463357D02*
X140891597Y-123391928D01*
X140891597Y-123391928D02*
X140605883Y-123391928D01*
X140605883Y-123391928D02*
X140463025Y-123463357D01*
X141105883Y-124320500D02*
X140963025Y-124391928D01*
X140963025Y-124391928D02*
X140605883Y-124391928D01*
X140605883Y-124391928D02*
X140463025Y-124320500D01*
X140463025Y-124320500D02*
X140391597Y-124177642D01*
X140391597Y-124177642D02*
X140391597Y-124034785D01*
X140391597Y-124034785D02*
X140463025Y-123891928D01*
X140463025Y-123891928D02*
X140605883Y-123820500D01*
X140605883Y-123820500D02*
X140963025Y-123820500D01*
X140963025Y-123820500D02*
X141105883Y-123749071D01*
X142463026Y-124391928D02*
X142463026Y-122891928D01*
X142463026Y-124320500D02*
X142320168Y-124391928D01*
X142320168Y-124391928D02*
X142034454Y-124391928D01*
X142034454Y-124391928D02*
X141891597Y-124320500D01*
X141891597Y-124320500D02*
X141820168Y-124249071D01*
X141820168Y-124249071D02*
X141748740Y-124106214D01*
X141748740Y-124106214D02*
X141748740Y-123677642D01*
X141748740Y-123677642D02*
X141820168Y-123534785D01*
X141820168Y-123534785D02*
X141891597Y-123463357D01*
X141891597Y-123463357D02*
X142034454Y-123391928D01*
X142034454Y-123391928D02*
X142320168Y-123391928D01*
X142320168Y-123391928D02*
X142463026Y-123463357D01*
X142820169Y-124534785D02*
X143963026Y-124534785D01*
X144320168Y-123391928D02*
X144320168Y-124891928D01*
X144320168Y-123463357D02*
X144463026Y-123391928D01*
X144463026Y-123391928D02*
X144748740Y-123391928D01*
X144748740Y-123391928D02*
X144891597Y-123463357D01*
X144891597Y-123463357D02*
X144963026Y-123534785D01*
X144963026Y-123534785D02*
X145034454Y-123677642D01*
X145034454Y-123677642D02*
X145034454Y-124106214D01*
X145034454Y-124106214D02*
X144963026Y-124249071D01*
X144963026Y-124249071D02*
X144891597Y-124320500D01*
X144891597Y-124320500D02*
X144748740Y-124391928D01*
X144748740Y-124391928D02*
X144463026Y-124391928D01*
X144463026Y-124391928D02*
X144320168Y-124320500D01*
X146320169Y-124320500D02*
X146177311Y-124391928D01*
X146177311Y-124391928D02*
X145891597Y-124391928D01*
X145891597Y-124391928D02*
X145748740Y-124320500D01*
X145748740Y-124320500D02*
X145677311Y-124249071D01*
X145677311Y-124249071D02*
X145605883Y-124106214D01*
X145605883Y-124106214D02*
X145605883Y-123677642D01*
X145605883Y-123677642D02*
X145677311Y-123534785D01*
X145677311Y-123534785D02*
X145748740Y-123463357D01*
X145748740Y-123463357D02*
X145891597Y-123391928D01*
X145891597Y-123391928D02*
X146177311Y-123391928D01*
X146177311Y-123391928D02*
X146320169Y-123463357D01*
X146963025Y-124391928D02*
X146963025Y-122891928D01*
X146963025Y-123463357D02*
X147105883Y-123391928D01*
X147105883Y-123391928D02*
X147391597Y-123391928D01*
X147391597Y-123391928D02*
X147534454Y-123463357D01*
X147534454Y-123463357D02*
X147605883Y-123534785D01*
X147605883Y-123534785D02*
X147677311Y-123677642D01*
X147677311Y-123677642D02*
X147677311Y-124106214D01*
X147677311Y-124106214D02*
X147605883Y-124249071D01*
X147605883Y-124249071D02*
X147534454Y-124320500D01*
X147534454Y-124320500D02*
X147391597Y-124391928D01*
X147391597Y-124391928D02*
X147105883Y-124391928D01*
X147105883Y-124391928D02*
X146963025Y-124320500D01*
D10*
D11*
X90007200Y-119505800D02*
X198007200Y-119505800D01*
D10*
D11*
X91391598Y-121620500D02*
X91605884Y-121691928D01*
X91605884Y-121691928D02*
X91963026Y-121691928D01*
X91963026Y-121691928D02*
X92105884Y-121620500D01*
X92105884Y-121620500D02*
X92177312Y-121549071D01*
X92177312Y-121549071D02*
X92248741Y-121406214D01*
X92248741Y-121406214D02*
X92248741Y-121263357D01*
X92248741Y-121263357D02*
X92177312Y-121120500D01*
X92177312Y-121120500D02*
X92105884Y-121049071D01*
X92105884Y-121049071D02*
X91963026Y-120977642D01*
X91963026Y-120977642D02*
X91677312Y-120906214D01*
X91677312Y-120906214D02*
X91534455Y-120834785D01*
X91534455Y-120834785D02*
X91463026Y-120763357D01*
X91463026Y-120763357D02*
X91391598Y-120620500D01*
X91391598Y-120620500D02*
X91391598Y-120477642D01*
X91391598Y-120477642D02*
X91463026Y-120334785D01*
X91463026Y-120334785D02*
X91534455Y-120263357D01*
X91534455Y-120263357D02*
X91677312Y-120191928D01*
X91677312Y-120191928D02*
X92034455Y-120191928D01*
X92034455Y-120191928D02*
X92248741Y-120263357D01*
X92891597Y-121691928D02*
X92891597Y-120191928D01*
X93534455Y-121691928D02*
X93534455Y-120906214D01*
X93534455Y-120906214D02*
X93463026Y-120763357D01*
X93463026Y-120763357D02*
X93320169Y-120691928D01*
X93320169Y-120691928D02*
X93105883Y-120691928D01*
X93105883Y-120691928D02*
X92963026Y-120763357D01*
X92963026Y-120763357D02*
X92891597Y-120834785D01*
X94820169Y-121620500D02*
X94677312Y-121691928D01*
X94677312Y-121691928D02*
X94391598Y-121691928D01*
X94391598Y-121691928D02*
X94248740Y-121620500D01*
X94248740Y-121620500D02*
X94177312Y-121477642D01*
X94177312Y-121477642D02*
X94177312Y-120906214D01*
X94177312Y-120906214D02*
X94248740Y-120763357D01*
X94248740Y-120763357D02*
X94391598Y-120691928D01*
X94391598Y-120691928D02*
X94677312Y-120691928D01*
X94677312Y-120691928D02*
X94820169Y-120763357D01*
X94820169Y-120763357D02*
X94891598Y-120906214D01*
X94891598Y-120906214D02*
X94891598Y-121049071D01*
X94891598Y-121049071D02*
X94177312Y-121191928D01*
X96105883Y-121620500D02*
X95963026Y-121691928D01*
X95963026Y-121691928D02*
X95677312Y-121691928D01*
X95677312Y-121691928D02*
X95534454Y-121620500D01*
X95534454Y-121620500D02*
X95463026Y-121477642D01*
X95463026Y-121477642D02*
X95463026Y-120906214D01*
X95463026Y-120906214D02*
X95534454Y-120763357D01*
X95534454Y-120763357D02*
X95677312Y-120691928D01*
X95677312Y-120691928D02*
X95963026Y-120691928D01*
X95963026Y-120691928D02*
X96105883Y-120763357D01*
X96105883Y-120763357D02*
X96177312Y-120906214D01*
X96177312Y-120906214D02*
X96177312Y-121049071D01*
X96177312Y-121049071D02*
X95463026Y-121191928D01*
X96605883Y-120691928D02*
X97177311Y-120691928D01*
X96820168Y-120191928D02*
X96820168Y-121477642D01*
X96820168Y-121477642D02*
X96891597Y-121620500D01*
X96891597Y-121620500D02*
X97034454Y-121691928D01*
X97034454Y-121691928D02*
X97177311Y-121691928D01*
X97677311Y-121549071D02*
X97748740Y-121620500D01*
X97748740Y-121620500D02*
X97677311Y-121691928D01*
X97677311Y-121691928D02*
X97605883Y-121620500D01*
X97605883Y-121620500D02*
X97677311Y-121549071D01*
X97677311Y-121549071D02*
X97677311Y-121691928D01*
X97677311Y-120763357D02*
X97748740Y-120834785D01*
X97748740Y-120834785D02*
X97677311Y-120906214D01*
X97677311Y-120906214D02*
X97605883Y-120834785D01*
X97605883Y-120834785D02*
X97677311Y-120763357D01*
X97677311Y-120763357D02*
X97677311Y-120906214D01*
D10*
D12*
X92418853Y-118684128D02*
X91918853Y-117969842D01*
X91561710Y-118684128D02*
X91561710Y-117184128D01*
X91561710Y-117184128D02*
X92133139Y-117184128D01*
X92133139Y-117184128D02*
X92275996Y-117255557D01*
X92275996Y-117255557D02*
X92347425Y-117326985D01*
X92347425Y-117326985D02*
X92418853Y-117469842D01*
X92418853Y-117469842D02*
X92418853Y-117684128D01*
X92418853Y-117684128D02*
X92347425Y-117826985D01*
X92347425Y-117826985D02*
X92275996Y-117898414D01*
X92275996Y-117898414D02*
X92133139Y-117969842D01*
X92133139Y-117969842D02*
X91561710Y-117969842D01*
X93061710Y-117898414D02*
X93561710Y-117898414D01*
X93775996Y-118684128D02*
X93061710Y-118684128D01*
X93061710Y-118684128D02*
X93061710Y-117184128D01*
X93061710Y-117184128D02*
X93775996Y-117184128D01*
X94418853Y-118541271D02*
X94490282Y-118612700D01*
X94490282Y-118612700D02*
X94418853Y-118684128D01*
X94418853Y-118684128D02*
X94347425Y-118612700D01*
X94347425Y-118612700D02*
X94418853Y-118541271D01*
X94418853Y-118541271D02*
X94418853Y-118684128D01*
X94418853Y-117755557D02*
X94490282Y-117826985D01*
X94490282Y-117826985D02*
X94418853Y-117898414D01*
X94418853Y-117898414D02*
X94347425Y-117826985D01*
X94347425Y-117826985D02*
X94418853Y-117755557D01*
X94418853Y-117755557D02*
X94418853Y-117898414D01*
X96775996Y-117898414D02*
X96275996Y-117898414D01*
X96275996Y-118684128D02*
X96275996Y-117184128D01*
X96275996Y-117184128D02*
X96990282Y-117184128D01*
X97775996Y-118684128D02*
X97633139Y-118612700D01*
X97633139Y-118612700D02*
X97561710Y-118469842D01*
X97561710Y-118469842D02*
X97561710Y-117184128D01*
X98204567Y-117684128D02*
X98561710Y-118684128D01*
X98918853Y-117684128D02*
X98561710Y-118684128D01*
X98561710Y-118684128D02*
X98418853Y-119041271D01*
X98418853Y-119041271D02*
X98347424Y-119112700D01*
X98347424Y-119112700D02*
X98204567Y-119184128D01*
X99490281Y-117684128D02*
X99490281Y-118684128D01*
X99490281Y-117826985D02*
X99561710Y-117755557D01*
X99561710Y-117755557D02*
X99704567Y-117684128D01*
X99704567Y-117684128D02*
X99918853Y-117684128D01*
X99918853Y-117684128D02*
X100061710Y-117755557D01*
X100061710Y-117755557D02*
X100133139Y-117898414D01*
X100133139Y-117898414D02*
X100133139Y-118684128D01*
X100847424Y-117684128D02*
X100847424Y-118684128D01*
X100847424Y-117826985D02*
X100918853Y-117755557D01*
X100918853Y-117755557D02*
X101061710Y-117684128D01*
X101061710Y-117684128D02*
X101275996Y-117684128D01*
X101275996Y-117684128D02*
X101418853Y-117755557D01*
X101418853Y-117755557D02*
X101490282Y-117898414D01*
X101490282Y-117898414D02*
X101490282Y-118684128D01*
X103347424Y-118684128D02*
X103347424Y-117184128D01*
X103347424Y-117184128D02*
X103704567Y-117184128D01*
X103704567Y-117184128D02*
X103918853Y-117255557D01*
X103918853Y-117255557D02*
X104061710Y-117398414D01*
X104061710Y-117398414D02*
X104133139Y-117541271D01*
X104133139Y-117541271D02*
X104204567Y-117826985D01*
X104204567Y-117826985D02*
X104204567Y-118041271D01*
X104204567Y-118041271D02*
X104133139Y-118326985D01*
X104133139Y-118326985D02*
X104061710Y-118469842D01*
X104061710Y-118469842D02*
X103918853Y-118612700D01*
X103918853Y-118612700D02*
X103704567Y-118684128D01*
X103704567Y-118684128D02*
X103347424Y-118684128D01*
X104847424Y-118684128D02*
X104847424Y-117684128D01*
X104847424Y-117969842D02*
X104918853Y-117826985D01*
X104918853Y-117826985D02*
X104990282Y-117755557D01*
X104990282Y-117755557D02*
X105133139Y-117684128D01*
X105133139Y-117684128D02*
X105275996Y-117684128D01*
X106347424Y-118612700D02*
X106204567Y-118684128D01*
X106204567Y-118684128D02*
X105918853Y-118684128D01*
X105918853Y-118684128D02*
X105775995Y-118612700D01*
X105775995Y-118612700D02*
X105704567Y-118469842D01*
X105704567Y-118469842D02*
X105704567Y-117898414D01*
X105704567Y-117898414D02*
X105775995Y-117755557D01*
X105775995Y-117755557D02*
X105918853Y-117684128D01*
X105918853Y-117684128D02*
X106204567Y-117684128D01*
X106204567Y-117684128D02*
X106347424Y-117755557D01*
X106347424Y-117755557D02*
X106418853Y-117898414D01*
X106418853Y-117898414D02*
X106418853Y-118041271D01*
X106418853Y-118041271D02*
X105704567Y-118184128D01*
X107061709Y-118684128D02*
X107061709Y-117684128D01*
X107061709Y-117184128D02*
X106990281Y-117255557D01*
X106990281Y-117255557D02*
X107061709Y-117326985D01*
X107061709Y-117326985D02*
X107133138Y-117255557D01*
X107133138Y-117255557D02*
X107061709Y-117184128D01*
X107061709Y-117184128D02*
X107061709Y-117326985D01*
X107990281Y-118684128D02*
X107847424Y-118612700D01*
X107847424Y-118612700D02*
X107775995Y-118469842D01*
X107775995Y-118469842D02*
X107775995Y-117184128D01*
X108561709Y-118684128D02*
X108561709Y-117684128D01*
X108561709Y-117184128D02*
X108490281Y-117255557D01*
X108490281Y-117255557D02*
X108561709Y-117326985D01*
X108561709Y-117326985D02*
X108633138Y-117255557D01*
X108633138Y-117255557D02*
X108561709Y-117184128D01*
X108561709Y-117184128D02*
X108561709Y-117326985D01*
X109275995Y-117684128D02*
X109275995Y-118684128D01*
X109275995Y-117826985D02*
X109347424Y-117755557D01*
X109347424Y-117755557D02*
X109490281Y-117684128D01*
X109490281Y-117684128D02*
X109704567Y-117684128D01*
X109704567Y-117684128D02*
X109847424Y-117755557D01*
X109847424Y-117755557D02*
X109918853Y-117898414D01*
X109918853Y-117898414D02*
X109918853Y-118684128D01*
X111275996Y-117684128D02*
X111275996Y-118898414D01*
X111275996Y-118898414D02*
X111204567Y-119041271D01*
X111204567Y-119041271D02*
X111133138Y-119112700D01*
X111133138Y-119112700D02*
X110990281Y-119184128D01*
X110990281Y-119184128D02*
X110775996Y-119184128D01*
X110775996Y-119184128D02*
X110633138Y-119112700D01*
X111275996Y-118612700D02*
X111133138Y-118684128D01*
X111133138Y-118684128D02*
X110847424Y-118684128D01*
X110847424Y-118684128D02*
X110704567Y-118612700D01*
X110704567Y-118612700D02*
X110633138Y-118541271D01*
X110633138Y-118541271D02*
X110561710Y-118398414D01*
X110561710Y-118398414D02*
X110561710Y-117969842D01*
X110561710Y-117969842D02*
X110633138Y-117826985D01*
X110633138Y-117826985D02*
X110704567Y-117755557D01*
X110704567Y-117755557D02*
X110847424Y-117684128D01*
X110847424Y-117684128D02*
X111133138Y-117684128D01*
X111133138Y-117684128D02*
X111275996Y-117755557D01*
X112561710Y-118612700D02*
X112418853Y-118684128D01*
X112418853Y-118684128D02*
X112133139Y-118684128D01*
X112133139Y-118684128D02*
X111990281Y-118612700D01*
X111990281Y-118612700D02*
X111918853Y-118469842D01*
X111918853Y-118469842D02*
X111918853Y-117898414D01*
X111918853Y-117898414D02*
X111990281Y-117755557D01*
X111990281Y-117755557D02*
X112133139Y-117684128D01*
X112133139Y-117684128D02*
X112418853Y-117684128D01*
X112418853Y-117684128D02*
X112561710Y-117755557D01*
X112561710Y-117755557D02*
X112633139Y-117898414D01*
X112633139Y-117898414D02*
X112633139Y-118041271D01*
X112633139Y-118041271D02*
X111918853Y-118184128D01*
X113275995Y-118684128D02*
X113275995Y-117684128D01*
X113275995Y-117969842D02*
X113347424Y-117826985D01*
X113347424Y-117826985D02*
X113418853Y-117755557D01*
X113418853Y-117755557D02*
X113561710Y-117684128D01*
X113561710Y-117684128D02*
X113704567Y-117684128D01*
D10*
D11*
X110007200Y-129505800D02*
X110007200Y-132505800D01*
D10*
D11*
X174007200Y-129505800D02*
X174007200Y-136005800D01*
D14*
%TO.C,C31*%
X110880800Y-83088200D03*
X111840800Y-83088200D03*
%TD*%
D15*
%TO.C,R33*%
X79835800Y-43798200D03*
X79835800Y-42778200D03*
%TD*%
D16*
%TO.C,R18*%
X111875800Y-62723200D03*
X112895800Y-62723200D03*
%TD*%
D17*
%TO.C,C1*%
X120935800Y-86208200D03*
X120935800Y-87168200D03*
%TD*%
D18*
%TO.C,R14*%
X125035800Y-41678200D03*
X125035800Y-42698200D03*
%TD*%
D19*
%TO.C,C78*%
X118640800Y-78088200D03*
X120190800Y-78088200D03*
%TD*%
D18*
%TO.C,R55*%
X81208000Y-60768200D03*
X81208000Y-61788200D03*
%TD*%
D20*
%TO.C,R16*%
X124735800Y-62823200D03*
X123715800Y-62823200D03*
%TD*%
D16*
%TO.C,R2*%
X114025800Y-38738200D03*
X115045800Y-38738200D03*
%TD*%
D21*
%TO.C,U1*%
X123088550Y-43813137D03*
X123088550Y-43163151D03*
X123088550Y-42513165D03*
X123088550Y-41863179D03*
X123088550Y-41213193D03*
X123088550Y-40563207D03*
X123088550Y-39913221D03*
X123088550Y-39263235D03*
X123088550Y-38613249D03*
X123088550Y-37963263D03*
X117183050Y-37963263D03*
X117183050Y-38613249D03*
X117183050Y-39263235D03*
X117183050Y-39913221D03*
X117183050Y-40563207D03*
X117183050Y-41213193D03*
X117183050Y-41863179D03*
X117183050Y-42513165D03*
X117183050Y-43163151D03*
X117183050Y-43813137D03*
D22*
X120135800Y-40888200D03*
%TD*%
D18*
%TO.C,R29*%
X131568400Y-64905000D03*
X131568400Y-65925000D03*
%TD*%
D20*
%TO.C,R32*%
X110035800Y-56328200D03*
X109015800Y-56328200D03*
%TD*%
D16*
%TO.C,R17*%
X121285800Y-73713200D03*
X122305800Y-73713200D03*
%TD*%
D23*
%TO.C,C63*%
X112915800Y-71333200D03*
X111955800Y-71333200D03*
%TD*%
D24*
%TO.C,C79*%
X128095800Y-75348200D03*
X128095800Y-78298200D03*
%TD*%
D15*
%TO.C,R48*%
X99180800Y-51558200D03*
X99180800Y-50538200D03*
%TD*%
D14*
%TO.C,C88*%
X127745800Y-63728200D03*
X128705800Y-63728200D03*
%TD*%
D15*
%TO.C,R37*%
X76115800Y-58488200D03*
X76115800Y-57468200D03*
%TD*%
D18*
%TO.C,R64*%
X98035800Y-53578200D03*
X98035800Y-54598200D03*
%TD*%
D25*
%TO.C,C77*%
X114555800Y-58253200D03*
X114555800Y-56703200D03*
%TD*%
D20*
%TO.C,R30*%
X109900800Y-48168200D03*
X108880800Y-48168200D03*
%TD*%
D16*
%TO.C,R28*%
X108880800Y-49378200D03*
X109900800Y-49378200D03*
%TD*%
D26*
%TO.C,*%
X75430014Y-100568982D03*
%TD*%
D15*
%TO.C,R45*%
X86293600Y-58488200D03*
X86293600Y-57468200D03*
%TD*%
D23*
%TO.C,C86*%
X126595800Y-63728200D03*
X125635800Y-63728200D03*
%TD*%
D15*
%TO.C,R42*%
X82476900Y-58488200D03*
X82476900Y-57468200D03*
%TD*%
D18*
%TO.C,R60*%
X87585800Y-60768200D03*
X87585800Y-61788200D03*
%TD*%
D17*
%TO.C,C87*%
X109115800Y-53578200D03*
X109115800Y-54538200D03*
%TD*%
D18*
%TO.C,R58*%
X85034700Y-60768200D03*
X85034700Y-61788200D03*
%TD*%
D15*
%TO.C,R43*%
X83749100Y-58488200D03*
X83749100Y-57468200D03*
%TD*%
D27*
%TO.C,TP3*%
X114535800Y-80188200D03*
%TD*%
D15*
%TO.C,R39*%
X78660200Y-58488200D03*
X78660200Y-57468200D03*
%TD*%
D16*
%TO.C,R35*%
X114025800Y-37788200D03*
X115045800Y-37788200D03*
%TD*%
D28*
%TO.C,U8*%
X111152200Y-51379566D03*
X111152200Y-52029579D03*
X111152200Y-52679588D03*
X111152200Y-53329600D03*
X111152200Y-53979612D03*
X111152200Y-54629621D03*
X111152200Y-55279634D03*
X116689400Y-55279634D03*
X116689400Y-54629621D03*
X116689400Y-53979612D03*
X116689400Y-53329600D03*
X116689400Y-52679588D03*
X116689400Y-52029579D03*
X116689400Y-51379566D03*
D29*
X113920800Y-53329600D03*
%TD*%
D30*
%TO.C,SW3*%
X90840800Y-54958200D03*
X92110800Y-54958200D03*
X93380800Y-54958200D03*
X94650800Y-54958200D03*
X94650800Y-47338200D03*
X93380800Y-47338200D03*
X92110800Y-47338200D03*
X90840800Y-47338200D03*
%TD*%
D31*
%TO.C,U5*%
X104291601Y-50479050D03*
X103341600Y-50479050D03*
X102391599Y-50479050D03*
X102391599Y-53209550D03*
X103341600Y-53209550D03*
X104291601Y-53209550D03*
%TD*%
D14*
%TO.C,C66*%
X105775800Y-46668200D03*
X106735800Y-46668200D03*
%TD*%
D18*
%TO.C,R54*%
X79932500Y-60768200D03*
X79932500Y-61788200D03*
%TD*%
D27*
%TO.C,TP8*%
X102405800Y-58258200D03*
%TD*%
D32*
%TO.C,Y3*%
X107485800Y-76188200D03*
X104985800Y-76188200D03*
%TD*%
D33*
%TO.C,U2*%
X97035801Y-60486600D03*
X97835801Y-60486600D03*
X98635800Y-60486600D03*
X99435800Y-60486600D03*
X100235800Y-60486600D03*
X101035800Y-60486600D03*
X101835800Y-60486600D03*
X102635800Y-60486600D03*
X103435800Y-60486600D03*
X104235800Y-60486600D03*
X105035800Y-60486600D03*
X105835800Y-60486600D03*
X106635800Y-60486600D03*
X107435799Y-60486600D03*
X108235799Y-60486600D03*
X109035799Y-60486600D03*
X109835799Y-60486600D03*
X97035801Y-61286700D03*
X97835801Y-61286700D03*
X98635800Y-61286700D03*
X99435800Y-61286700D03*
X100235800Y-61286700D03*
X101035800Y-61286700D03*
X101835800Y-61286700D03*
X102635800Y-61286700D03*
X103435800Y-61286700D03*
X104235800Y-61286700D03*
X105035800Y-61286700D03*
X105835800Y-61286700D03*
X106635800Y-61286700D03*
X107435799Y-61286700D03*
X108235799Y-61286700D03*
X109035799Y-61286700D03*
X109835799Y-61286700D03*
X97035801Y-62086800D03*
X97835801Y-62086800D03*
X98635800Y-62086800D03*
X99435800Y-62086800D03*
X100235800Y-62086800D03*
X101035800Y-62086800D03*
X101835800Y-62086800D03*
X102635800Y-62086800D03*
X103435800Y-62086800D03*
X104235800Y-62086800D03*
X105035800Y-62086800D03*
X105835800Y-62086800D03*
X106635800Y-62086800D03*
X107435799Y-62086800D03*
X108235799Y-62086800D03*
X109035799Y-62086800D03*
X109835799Y-62086800D03*
X97035801Y-62886900D03*
X97835801Y-62886900D03*
X98635800Y-62886900D03*
X99435800Y-62886900D03*
X100235800Y-62886900D03*
X101035800Y-62886900D03*
X101835800Y-62886900D03*
X102635800Y-62886900D03*
X103435800Y-62886900D03*
X104235800Y-62886900D03*
X105035800Y-62886900D03*
X105835800Y-62886900D03*
X106635800Y-62886900D03*
X107435799Y-62886900D03*
X108235799Y-62886900D03*
X109035799Y-62886900D03*
X109835799Y-62886900D03*
X97035801Y-63687000D03*
X97835801Y-63687000D03*
X98635800Y-63687000D03*
X99435800Y-63687000D03*
X100235800Y-63687000D03*
X101035800Y-63687000D03*
X101835800Y-63687000D03*
X102635800Y-63687000D03*
X103435800Y-63687000D03*
X104235800Y-63687000D03*
X105035800Y-63687000D03*
X105835800Y-63687000D03*
X106635800Y-63687000D03*
X107435799Y-63687000D03*
X108235799Y-63687000D03*
X109035799Y-63687000D03*
X109835799Y-63687000D03*
X97035801Y-64487100D03*
X97835801Y-64487100D03*
X98635800Y-64487100D03*
X99435800Y-64487100D03*
X100235800Y-64487100D03*
X101035800Y-64487100D03*
X101835800Y-64487100D03*
X102635800Y-64487100D03*
X103435800Y-64487100D03*
X104235800Y-64487100D03*
X105035800Y-64487100D03*
X105835800Y-64487100D03*
X106635800Y-64487100D03*
X107435799Y-64487100D03*
X108235799Y-64487100D03*
X109035799Y-64487100D03*
X109835799Y-64487100D03*
X97035801Y-65287200D03*
X97835801Y-65287200D03*
X98635800Y-65287200D03*
X99435800Y-65287200D03*
X100235800Y-65287200D03*
X101035800Y-65287200D03*
X101835800Y-65287200D03*
X102635800Y-65287200D03*
X103435800Y-65287200D03*
X104235800Y-65287200D03*
X105035800Y-65287200D03*
X105835800Y-65287200D03*
X106635800Y-65287200D03*
X107435799Y-65287200D03*
X108235799Y-65287200D03*
X109035799Y-65287200D03*
X109835799Y-65287200D03*
X97035801Y-66087300D03*
X97835801Y-66087300D03*
X98635800Y-66087300D03*
X99435800Y-66087300D03*
X100235800Y-66087300D03*
X101035800Y-66087300D03*
X101835800Y-66087300D03*
X102635800Y-66087300D03*
X103435800Y-66087300D03*
X104235800Y-66087300D03*
X105035800Y-66087300D03*
X105835800Y-66087300D03*
X106635800Y-66087300D03*
X107435799Y-66087300D03*
X108235799Y-66087300D03*
X109035799Y-66087300D03*
X109835799Y-66087300D03*
X97035801Y-66887400D03*
X97835801Y-66887400D03*
X98635800Y-66887400D03*
X99435800Y-66887400D03*
X100235800Y-66887400D03*
X101035800Y-66887400D03*
X101835800Y-66887400D03*
X102635800Y-66887400D03*
X103435800Y-66887400D03*
X104235800Y-66887400D03*
X105035800Y-66887400D03*
X105835800Y-66887400D03*
X106635800Y-66887400D03*
X107435799Y-66887400D03*
X108235799Y-66887400D03*
X109035799Y-66887400D03*
X109835799Y-66887400D03*
X97035801Y-67687500D03*
X97835801Y-67687500D03*
X98635800Y-67687500D03*
X99435800Y-67687500D03*
X100235800Y-67687500D03*
X101035800Y-67687500D03*
X101835800Y-67687500D03*
X102635800Y-67687500D03*
X103435800Y-67687500D03*
X104235800Y-67687500D03*
X105035800Y-67687500D03*
X105835800Y-67687500D03*
X106635800Y-67687500D03*
X107435799Y-67687500D03*
X108235799Y-67687500D03*
X109035799Y-67687500D03*
X109835799Y-67687500D03*
X97035801Y-68487600D03*
X97835801Y-68487600D03*
X98635800Y-68487600D03*
X99435800Y-68487600D03*
X100235800Y-68487600D03*
X101035800Y-68487600D03*
X101835800Y-68487600D03*
X102635800Y-68487600D03*
X103435800Y-68487600D03*
X104235800Y-68487600D03*
X105035800Y-68487600D03*
X105835800Y-68487600D03*
X106635800Y-68487600D03*
X107435799Y-68487600D03*
X108235799Y-68487600D03*
X109035799Y-68487600D03*
X109835799Y-68487600D03*
X97035801Y-69287700D03*
X97835801Y-69287700D03*
X98635800Y-69287700D03*
X99435800Y-69287700D03*
X100235800Y-69287700D03*
X101035800Y-69287700D03*
X101835800Y-69287700D03*
X102635800Y-69287700D03*
X103435800Y-69287700D03*
X104235800Y-69287700D03*
X105035800Y-69287700D03*
X105835800Y-69287700D03*
X106635800Y-69287700D03*
X107435799Y-69287700D03*
X108235799Y-69287700D03*
X109035799Y-69287700D03*
X109835799Y-69287700D03*
X97035801Y-70087800D03*
X97835801Y-70087800D03*
X98635800Y-70087800D03*
X99435800Y-70087800D03*
X100235800Y-70087800D03*
X101035800Y-70087800D03*
X101835800Y-70087800D03*
X102635800Y-70087800D03*
X103435800Y-70087800D03*
X104235800Y-70087800D03*
X105035800Y-70087800D03*
X105835800Y-70087800D03*
X106635800Y-70087800D03*
X107435799Y-70087800D03*
X108235799Y-70087800D03*
X109035799Y-70087800D03*
X109835799Y-70087800D03*
X97035801Y-70887900D03*
X97835801Y-70887900D03*
X98635800Y-70887900D03*
X99435800Y-70887900D03*
X100235800Y-70887900D03*
X101035800Y-70887900D03*
X101835800Y-70887900D03*
X102635800Y-70887900D03*
X103435800Y-70887900D03*
X104235800Y-70887900D03*
X105035800Y-70887900D03*
X105835800Y-70887900D03*
X106635800Y-70887900D03*
X107435799Y-70887900D03*
X108235799Y-70887900D03*
X109035799Y-70887900D03*
X109835799Y-70887900D03*
X97035801Y-71688000D03*
X97835801Y-71688000D03*
X98635800Y-71688000D03*
X99435800Y-71688000D03*
X100235800Y-71688000D03*
X101035800Y-71688000D03*
X101835800Y-71688000D03*
X102635800Y-71688000D03*
X103435800Y-71688000D03*
X104235800Y-71688000D03*
X105035800Y-71688000D03*
X105835800Y-71688000D03*
X106635800Y-71688000D03*
X107435799Y-71688000D03*
X108235799Y-71688000D03*
X109035799Y-71688000D03*
X109835799Y-71688000D03*
X97035801Y-72488100D03*
X97835801Y-72488100D03*
X98635800Y-72488100D03*
X99435800Y-72488100D03*
X100235800Y-72488100D03*
X101035800Y-72488100D03*
X101835800Y-72488100D03*
X102635800Y-72488100D03*
X103435800Y-72488100D03*
X104235800Y-72488100D03*
X105035800Y-72488100D03*
X105835800Y-72488100D03*
X106635800Y-72488100D03*
X107435799Y-72488100D03*
X108235799Y-72488100D03*
X109035799Y-72488100D03*
X109835799Y-72488100D03*
X97035801Y-73288200D03*
X97835801Y-73288200D03*
X98635800Y-73288200D03*
X99435800Y-73288200D03*
X100235800Y-73288200D03*
X101035800Y-73288200D03*
X101835800Y-73288200D03*
X102635800Y-73288200D03*
X103435800Y-73288200D03*
X104235800Y-73288200D03*
X105035800Y-73288200D03*
X105835800Y-73288200D03*
X106635800Y-73288200D03*
X107435799Y-73288200D03*
X108235799Y-73288200D03*
X109035799Y-73288200D03*
X109835799Y-73288200D03*
%TD*%
D34*
%TO.C,FB6*%
X85215800Y-81053200D03*
X85215800Y-80083200D03*
%TD*%
D23*
%TO.C,C85*%
X119515800Y-51188200D03*
X118555800Y-51188200D03*
%TD*%
D15*
%TO.C,R40*%
X79932500Y-58488200D03*
X79932500Y-57468200D03*
%TD*%
D35*
%TO.C,H2*%
X76435800Y-39888200D03*
%TD*%
D18*
%TO.C,R53*%
X78656900Y-60768200D03*
X78656900Y-61788200D03*
%TD*%
D36*
%TO.C,U9*%
X119365800Y-87108201D03*
D37*
X119365800Y-86158200D03*
X119365800Y-85208199D03*
X116745800Y-85208199D03*
X116745800Y-87108201D03*
%TD*%
D19*
%TO.C,C76*%
X118660800Y-76488200D03*
X120210800Y-76488200D03*
%TD*%
D38*
%TO.C,L3*%
X123665800Y-76058200D03*
X123665800Y-78858200D03*
%TD*%
D18*
%TO.C,R25*%
X82025800Y-68888200D03*
X82025800Y-69908200D03*
%TD*%
D39*
%TO.C,L5*%
X97510000Y-76900000D03*
X100510000Y-76900000D03*
%TD*%
D40*
%TO.C,Y2*%
X111485800Y-76818200D03*
X110085800Y-76818200D03*
X110085800Y-77918200D03*
X111485800Y-77918200D03*
%TD*%
D18*
%TO.C,R62*%
X99195800Y-53578200D03*
X99195800Y-54598200D03*
%TD*%
D16*
%TO.C,R6*%
X114015800Y-84168200D03*
X115035800Y-84168200D03*
%TD*%
D41*
%TO.C,L1*%
X125610800Y-48488200D03*
X121460800Y-48488200D03*
%TD*%
D15*
%TO.C,R44*%
X85021400Y-58488200D03*
X85021400Y-57468200D03*
%TD*%
D18*
%TO.C,R52*%
X77381400Y-60768200D03*
X77381400Y-61788200D03*
%TD*%
%TO.C,R59*%
X86310200Y-60768200D03*
X86310200Y-61788200D03*
%TD*%
%TO.C,R63*%
X96875800Y-53578200D03*
X96875800Y-54598200D03*
%TD*%
D42*
%TO.C,U10*%
X131480800Y-82310000D03*
X130210800Y-82310000D03*
X128940800Y-82310000D03*
X127670800Y-82310000D03*
X126400800Y-82310000D03*
X125130800Y-82310000D03*
X123860800Y-82310000D03*
X122590800Y-82310000D03*
X122590800Y-89066400D03*
X123860800Y-89066400D03*
X125130800Y-89066400D03*
X126400800Y-89066400D03*
X127670800Y-89066400D03*
X128940800Y-89066400D03*
X130210800Y-89066400D03*
X131480800Y-89066400D03*
%TD*%
D43*
%TO.C,U4*%
X122260800Y-64128200D03*
X122260800Y-62858200D03*
X122260800Y-61588200D03*
X122260800Y-60318200D03*
X114510800Y-60318200D03*
X114510800Y-61588200D03*
X114510800Y-62858200D03*
X114510800Y-64128200D03*
%TD*%
D38*
%TO.C,L4*%
X120655800Y-53488200D03*
X120655800Y-56288200D03*
%TD*%
D44*
%TO.C,U7*%
X128688534Y-65715000D03*
X128038521Y-65715000D03*
X127388512Y-65715000D03*
X126738500Y-65715000D03*
X126088488Y-65715000D03*
X125438479Y-65715000D03*
X124788466Y-65715000D03*
X124788466Y-71252200D03*
X125438479Y-71252200D03*
X126088488Y-71252200D03*
X126738500Y-71252200D03*
X127388512Y-71252200D03*
X128038521Y-71252200D03*
X128688534Y-71252200D03*
D45*
X126738500Y-68483600D03*
%TD*%
D46*
%TO.C,J4*%
X77375800Y-75433700D03*
D47*
X77375800Y-77433700D03*
X77375800Y-79433700D03*
X77375800Y-81433700D03*
X77375800Y-83433700D03*
X77375800Y-85433700D03*
%TD*%
D16*
%TO.C,R7*%
X110875800Y-81888200D03*
X111895800Y-81888200D03*
%TD*%
D26*
%TO.C,*%
X75430014Y-33207414D03*
%TD*%
D48*
%TO.C,U6*%
X90510800Y-74813200D03*
X89710800Y-74813200D03*
X88910800Y-74813200D03*
X85710800Y-74813200D03*
X84910800Y-74813200D03*
X84110800Y-74813200D03*
X90510800Y-74013200D03*
X89710800Y-74013200D03*
X88910800Y-74013200D03*
X85710800Y-74013200D03*
X84910800Y-74013200D03*
X84110800Y-74013200D03*
X90510800Y-73213200D03*
X89710800Y-73213200D03*
X88910800Y-73213200D03*
X85710800Y-73213200D03*
X84910800Y-73213200D03*
X84110800Y-73213200D03*
X90510800Y-72413200D03*
X89710800Y-72413200D03*
X88910800Y-72413200D03*
X85710800Y-72413200D03*
X84910800Y-72413200D03*
X84110800Y-72413200D03*
X90510800Y-71613200D03*
X89710800Y-71613200D03*
X88910800Y-71613200D03*
X85710800Y-71613200D03*
X84910800Y-71613200D03*
X84110800Y-71613200D03*
X90510800Y-70813200D03*
X89710800Y-70813200D03*
X88910800Y-70813200D03*
X85710800Y-70813200D03*
X84910800Y-70813200D03*
X84110800Y-70813200D03*
X90510800Y-70013200D03*
X89710800Y-70013200D03*
X88910800Y-70013200D03*
X85710800Y-70013200D03*
X84910800Y-70013200D03*
X84110800Y-70013200D03*
X90510800Y-69213200D03*
X89710800Y-69213200D03*
X88910800Y-69213200D03*
X85710800Y-69213200D03*
X84910800Y-69213200D03*
X84110800Y-69213200D03*
X90510800Y-68413200D03*
X89710800Y-68413200D03*
X88910800Y-68413200D03*
X85710800Y-68413200D03*
X84910800Y-68413200D03*
X84110800Y-68413200D03*
%TD*%
D18*
%TO.C,R19*%
X125035800Y-37878200D03*
X125035800Y-38898200D03*
%TD*%
D15*
%TO.C,R50*%
X97995800Y-51558200D03*
X97995800Y-50538200D03*
%TD*%
D27*
%TO.C,TP9*%
X105235800Y-56778200D03*
%TD*%
D49*
%TO.C,SW2*%
X76115800Y-54948200D03*
X77385800Y-54948200D03*
X78655800Y-54948200D03*
X79925800Y-54948200D03*
X81195800Y-54948200D03*
X82465800Y-54948200D03*
X83735800Y-54948200D03*
X85005800Y-54948200D03*
X86275800Y-54948200D03*
X87545800Y-54948200D03*
X87545800Y-47258200D03*
X86275800Y-47258200D03*
X85005800Y-47258200D03*
X83735800Y-47258200D03*
X82465800Y-47258200D03*
X81195800Y-47258200D03*
X79925800Y-47258200D03*
X78655800Y-47258200D03*
X77385800Y-47258200D03*
X76115800Y-47258200D03*
%TD*%
D25*
%TO.C,C80*%
X116035800Y-58247300D03*
X116035800Y-56697300D03*
%TD*%
D20*
%TO.C,R20*%
X124755800Y-61623200D03*
X123735800Y-61623200D03*
%TD*%
D50*
%TO.C,C81*%
X115100800Y-48693200D03*
X112150800Y-48693200D03*
%TD*%
D15*
%TO.C,R4*%
X112635800Y-86698200D03*
X112635800Y-85678200D03*
%TD*%
D23*
%TO.C,C18*%
X109965800Y-75538200D03*
X109005800Y-75538200D03*
%TD*%
D15*
%TO.C,R27*%
X130378400Y-65925000D03*
X130378400Y-64905000D03*
%TD*%
D18*
%TO.C,R15*%
X125035800Y-39778200D03*
X125035800Y-40798200D03*
%TD*%
D51*
%TO.C,C89*%
X109115800Y-52558200D03*
X109115800Y-51598200D03*
%TD*%
%TO.C,C84*%
X123725800Y-73718200D03*
X123725800Y-72758200D03*
%TD*%
D52*
%TO.C,J1*%
X106213300Y-43332200D03*
X100433300Y-43332200D03*
D53*
X106523300Y-44307200D03*
X105723300Y-44307200D03*
D54*
X104573300Y-44307200D03*
X103573300Y-44307200D03*
X103073300Y-44307200D03*
X102073300Y-44307200D03*
D53*
X100923300Y-44307200D03*
X100123300Y-44307200D03*
D54*
X101573300Y-44307200D03*
X102573300Y-44307200D03*
X104073300Y-44307200D03*
X105073300Y-44307200D03*
D55*
X107643300Y-43832200D03*
D56*
X107643300Y-39682200D03*
D55*
X99003300Y-43832200D03*
D56*
X99003300Y-39682200D03*
%TD*%
D16*
%TO.C,R22*%
X100845800Y-47228200D03*
X101865800Y-47228200D03*
%TD*%
D20*
%TO.C,R23*%
X105585800Y-47988200D03*
X104565800Y-47988200D03*
%TD*%
D15*
%TO.C,R47*%
X100365800Y-51558200D03*
X100365800Y-50538200D03*
%TD*%
%TO.C,R49*%
X96810800Y-51558200D03*
X96810800Y-50538200D03*
%TD*%
D35*
%TO.C,H1*%
X130435800Y-39888200D03*
%TD*%
D18*
%TO.C,R51*%
X76105800Y-60768200D03*
X76105800Y-61788200D03*
%TD*%
D24*
%TO.C,C82*%
X131365800Y-75353200D03*
X131365800Y-78303200D03*
%TD*%
D16*
%TO.C,R34*%
X114025800Y-39988200D03*
X115045800Y-39988200D03*
%TD*%
D14*
%TO.C,C19*%
X111605800Y-75588200D03*
X112565800Y-75588200D03*
%TD*%
D35*
%TO.C,H3*%
X76435800Y-93888200D03*
%TD*%
D18*
%TO.C,R57*%
X83759100Y-60768200D03*
X83759100Y-61788200D03*
%TD*%
D35*
%TO.C,H4*%
X130435800Y-93888200D03*
%TD*%
D57*
%TO.C,J3*%
X101510000Y-82450000D03*
X101510000Y-86350000D03*
X100240000Y-82450000D03*
X100240000Y-86350000D03*
X98970000Y-82450000D03*
X98970000Y-86350000D03*
X97700000Y-82450000D03*
X97700000Y-86350000D03*
X96430000Y-82450000D03*
X96430000Y-86350000D03*
%TD*%
D15*
%TO.C,R46*%
X87565800Y-58488200D03*
X87565800Y-57468200D03*
%TD*%
D19*
%TO.C,C27*%
X125160800Y-43888200D03*
X126710800Y-43888200D03*
%TD*%
D16*
%TO.C,R31*%
X126695800Y-62468200D03*
X127715800Y-62468200D03*
%TD*%
D17*
%TO.C,C21*%
X107505800Y-77808200D03*
X107505800Y-78768200D03*
%TD*%
D26*
%TO.C,*%
X131431586Y-33207414D03*
%TD*%
D18*
%TO.C,R61*%
X100355800Y-53578200D03*
X100355800Y-54598200D03*
%TD*%
D58*
%TO.C,R1*%
X125235800Y-58688200D03*
X125235800Y-52763200D03*
%TD*%
D50*
%TO.C,C83*%
X115100800Y-45373200D03*
X112150800Y-45373200D03*
%TD*%
D17*
%TO.C,C2*%
X113965800Y-85278200D03*
X113965800Y-86238200D03*
%TD*%
D59*
%TO.C,J5*%
X81975800Y-40878200D03*
D60*
X84515800Y-40878200D03*
X87055800Y-40878200D03*
X89595800Y-40878200D03*
X92135800Y-40878200D03*
X94675800Y-40878200D03*
%TD*%
D46*
%TO.C,J2*%
X130115800Y-57158200D03*
D47*
X130115800Y-55158200D03*
X130115800Y-53158200D03*
X130115800Y-51158200D03*
X130115800Y-49158200D03*
X130115800Y-47158200D03*
%TD*%
D15*
%TO.C,R41*%
X81204700Y-58488200D03*
X81204700Y-57468200D03*
%TD*%
%TO.C,R38*%
X77388000Y-58488200D03*
X77388000Y-57468200D03*
%TD*%
D61*
%TO.C,SW1*%
X109085800Y-81888200D03*
X104985800Y-81888200D03*
X109085800Y-83488200D03*
X104985800Y-83488200D03*
%TD*%
D43*
%TO.C,U3*%
X122285800Y-71343200D03*
X122285800Y-70073200D03*
X122285800Y-68803200D03*
X122285800Y-67533200D03*
X114485800Y-67533200D03*
X114485800Y-68803200D03*
X114485800Y-70073200D03*
X114485800Y-71343200D03*
D62*
X118385800Y-69438200D03*
%TD*%
D18*
%TO.C,R5*%
X115025800Y-85258200D03*
X115025800Y-86278200D03*
%TD*%
D17*
%TO.C,C20*%
X105005800Y-77808200D03*
X105005800Y-78768200D03*
%TD*%
D18*
%TO.C,R21*%
X113935800Y-40978200D03*
X113935800Y-41998200D03*
%TD*%
D63*
%TO.C,L2*%
X102925750Y-55078320D03*
X102925750Y-56778090D03*
X103725850Y-56778090D03*
X103725850Y-55078320D03*
%TD*%
D18*
%TO.C,R56*%
X82483600Y-60768200D03*
X82483600Y-61788200D03*
%TD*%
G36*
X140282586Y-30032000D02*
G01*
X140282586Y-103744396D01*
X140282000Y-103744982D01*
X66579600Y-103744982D01*
X66579014Y-103744396D01*
X66579014Y-97392982D01*
X72931014Y-97392982D01*
X133930586Y-97392982D01*
X133930586Y-36383414D01*
X72931014Y-36383414D01*
X72931014Y-97392982D01*
X66579014Y-97392982D01*
X66579014Y-30032000D01*
X66579600Y-30031414D01*
X140282000Y-30031414D01*
X140282586Y-30032000D01*
G37*
G36*
X131574503Y-36883842D02*
G01*
X131574566Y-36883847D01*
X131857464Y-36924519D01*
X131857533Y-36924534D01*
X132131767Y-37005056D01*
X132131834Y-37005081D01*
X132391817Y-37123809D01*
X132391880Y-37123843D01*
X132632319Y-37278364D01*
X132632376Y-37278407D01*
X132848377Y-37465573D01*
X132848427Y-37465623D01*
X133035593Y-37681624D01*
X133035636Y-37681681D01*
X133190157Y-37922120D01*
X133190191Y-37922183D01*
X133308919Y-38182166D01*
X133308944Y-38182233D01*
X133389466Y-38456467D01*
X133389481Y-38456536D01*
X133430153Y-38739434D01*
X133430158Y-38739497D01*
X133432586Y-38882406D01*
X133432586Y-94888208D01*
X133430157Y-95031117D01*
X133430152Y-95031180D01*
X133389479Y-95314076D01*
X133389464Y-95314145D01*
X133308941Y-95588377D01*
X133308916Y-95588444D01*
X133190186Y-95848425D01*
X133190152Y-95848488D01*
X133035631Y-96088926D01*
X133035588Y-96088983D01*
X132848422Y-96304982D01*
X132848372Y-96305032D01*
X132632371Y-96492197D01*
X132632314Y-96492240D01*
X132391876Y-96646759D01*
X132391813Y-96646793D01*
X132131831Y-96765520D01*
X132131764Y-96765545D01*
X131857531Y-96846066D01*
X131857462Y-96846081D01*
X131574566Y-96886753D01*
X131574504Y-96886758D01*
X131431595Y-96889200D01*
X75430006Y-96894982D01*
X75287097Y-96892554D01*
X75287034Y-96892549D01*
X75004136Y-96851877D01*
X75004067Y-96851862D01*
X74729833Y-96771340D01*
X74729766Y-96771315D01*
X74469784Y-96652587D01*
X74469721Y-96652553D01*
X74229282Y-96498032D01*
X74229225Y-96497989D01*
X74013224Y-96310823D01*
X74013174Y-96310773D01*
X73826009Y-96094772D01*
X73825966Y-96094715D01*
X73671445Y-95854275D01*
X73671411Y-95854212D01*
X73552683Y-95594230D01*
X73552658Y-95594163D01*
X73472137Y-95319929D01*
X73472122Y-95319860D01*
X73431450Y-95036962D01*
X73431445Y-95036899D01*
X73429014Y-94893990D01*
X73434800Y-38888191D01*
X73437349Y-38745290D01*
X73437354Y-38745228D01*
X73478025Y-38462348D01*
X73478040Y-38462279D01*
X73558558Y-38188063D01*
X73558583Y-38187996D01*
X73677305Y-37928030D01*
X73677339Y-37927967D01*
X73831851Y-37687543D01*
X73831894Y-37687486D01*
X74019048Y-37471498D01*
X74019098Y-37471448D01*
X74235086Y-37284294D01*
X74235143Y-37284251D01*
X74475567Y-37129739D01*
X74475630Y-37129705D01*
X74735596Y-37010983D01*
X74735663Y-37010958D01*
X75009879Y-36930440D01*
X75009948Y-36930425D01*
X75292828Y-36889754D01*
X75292890Y-36889749D01*
X75435791Y-36887200D01*
X96635954Y-36887200D01*
X96636248Y-36887293D01*
X97916113Y-37786196D01*
X108710483Y-37786196D01*
X110000354Y-36887292D01*
X110000646Y-36887200D01*
X131431594Y-36881414D01*
X131574503Y-36883842D01*
G37*
M02*
