M48
; DRILL file {KiCad 8.0.4} date 2024-07-26T00:04:45-0700
; FORMAT={-:-/ absolute / metric / decimal}
; #@! TF.CreationDate,2024-07-26T00:04:45-07:00
; #@! TF.GenerationSoftware,Kicad,Pcbnew,8.0.4
; #@! TF.FileFunction,Plated,1,6,PTH
FMAT,2
METRIC
; #@! TA.AperFunction,Plated,PTH,ViaDrill
T1C0.200
; #@! TA.AperFunction,Plated,PTH,ViaDrill
T2C0.203
; #@! TA.AperFunction,Plated,PTH,ViaDrill
T3C0.250
; #@! TA.AperFunction,Plated,PTH,ViaDrill
T4C0.300
; #@! TA.AperFunction,Plated,PTH,ViaDrill
T5C0.400
; #@! TA.AperFunction,Plated,PTH,ComponentDrill
T6C0.600
; #@! TA.AperFunction,Plated,PTH,ComponentDrill
T7C0.800
; #@! TA.AperFunction,Plated,PTH,ComponentDrill
T8C1.000
; #@! TA.AperFunction,Plated,PTH,ComponentDrill
T9C2.700
%
G90
G05
T1
X76.136Y-63.188
X76.78Y-58.49
X77.381Y-63.588
X78.05Y-58.51
X79.3Y-58.5
X79.336Y-75.588
X79.936Y-62.588
X80.59Y-58.48
X81.208Y-61.778
X81.86Y-58.49
X82.484Y-61.778
X83.12Y-58.48
X83.417Y-73.251
X83.644Y-70.278
X83.77Y-72.088
X83.86Y-72.905
X83.94Y-63.74
X84.247Y-93.248
X84.247Y-67.86
X84.4Y-58.5
X84.477Y-74.447
X84.486Y-61.238
X84.486Y-83.247
X84.533Y-68.781
X84.821Y-93.395
X85.03Y-64.02
X85.219Y-71.854
X85.27Y-74.293
X85.334Y-90.045
X85.336Y-67.958
X85.624Y-86.251
X85.66Y-58.49
X85.811Y-93.083
X86.113Y-87.481
X86.16Y-72.44
X86.352Y-90.046
X86.465Y-64.105
X86.569Y-65.554
X86.59Y-70.533
X86.679Y-66.38
X86.774Y-66.997
X86.96Y-58.49
X86.983Y-60.225
X87.302Y-67.189
X87.416Y-66.266
X87.447Y-92.333
X87.509Y-72.395
X87.576Y-72.998
X87.598Y-73.973
X87.703Y-62.658
X87.818Y-90.143
X87.86Y-67.225
X87.92Y-71.52
X87.937Y-70.965
X88.4Y-90.17
X88.434Y-77.534
X88.445Y-67.181
X88.476Y-71.27
X88.49Y-92.96
X88.736Y-59.533
X88.87Y-89.865
X88.9Y-74.81
X88.91Y-71.61
X88.91Y-73.21
X89.14Y-92.27
X89.173Y-63.7
X89.32Y-72.073
X89.338Y-73.626
X89.378Y-74.415
X89.4Y-67.698
X89.44Y-94.95
X90.07Y-65.352
X90.08Y-89.97
X90.121Y-71.219
X90.271Y-95.049
X90.46Y-67.88
X90.51Y-74.81
X90.618Y-92.974
X90.832Y-67.485
X90.934Y-71.219
X91.071Y-93.604
X91.236Y-94.243
X91.442Y-68.222
X91.571Y-61.38
X91.628Y-89.987
X91.701Y-59.836
X91.737Y-95.102
X91.82Y-92.163
X92.094Y-93.377
X92.17Y-61.277
X92.212Y-92.7
X93.627Y-75.522
X94.134Y-69.517
X94.414Y-70.406
X94.774Y-93.271
X94.926Y-89.507
X95.7Y-68.9
X95.764Y-87.389
X95.78Y-71.93
X95.836Y-65.25
X96.217Y-64.488
X96.34Y-72.86
X96.446Y-66.495
X96.475Y-68.199
X96.528Y-73.864
X96.81Y-70.5
X96.82Y-51.54
X97.03Y-70.08
X97.03Y-71.68
X97.03Y-72.48
X97.04Y-60.49
X97.04Y-67.68
X97.04Y-73.29
X97.208Y-92.226
X97.23Y-55.235
X97.38Y-71.232
X97.418Y-72.166
X97.622Y-93.361
X97.756Y-84.018
X97.76Y-84.66
X97.83Y-71.68
X97.84Y-73.3
X97.99Y-51.56
X98.04Y-55.52
X98.101Y-70.515
X98.249Y-72.784
X98.468Y-92.763
X98.633Y-66.085
X98.636Y-60.48
X98.636Y-61.287
X98.636Y-62.088
X98.636Y-62.888
X98.636Y-63.688
X98.636Y-65.287
X98.636Y-66.888
X98.64Y-68.49
X98.97Y-84.4
X99.19Y-51.56
X99.2Y-55.58
X99.43Y-60.49
X99.43Y-67.68
X99.433Y-65.285
X99.436Y-61.287
X99.436Y-62.088
X99.436Y-63.688
X99.436Y-64.488
X99.436Y-66.088
X99.436Y-66.888
X99.44Y-62.89
X99.44Y-70.89
X99.963Y-92.226
X100.086Y-74.684
X100.23Y-60.48
X100.23Y-70.86
X100.236Y-62.088
X100.236Y-62.888
X100.236Y-63.688
X100.236Y-64.488
X100.236Y-65.288
X100.24Y-61.28
X100.24Y-67.68
X100.24Y-68.49
X100.26Y-84.46
X100.37Y-51.56
X100.556Y-60.153
X101.03Y-66.09
X101.03Y-71.68
X101.036Y-63.688
X101.036Y-64.488
X101.036Y-67.688
X101.036Y-68.488
X101.036Y-73.288
X101.04Y-60.49
X101.04Y-62.88
X101.04Y-70.89
X101.05Y-61.29
X101.83Y-60.48
X101.836Y-62.887
X101.836Y-64.488
X101.836Y-65.288
X101.836Y-66.088
X101.836Y-70.888
X101.836Y-71.688
X101.84Y-61.29
X101.84Y-63.69
X101.84Y-70.08
X101.84Y-72.48
X102.63Y-71.68
X102.636Y-66.088
X102.636Y-66.888
X102.64Y-62.09
X102.64Y-63.68
X102.64Y-64.48
X102.64Y-65.29
X102.64Y-70.08
X102.64Y-70.89
X102.64Y-72.49
X102.865Y-74.158
X103.035Y-71.287
X103.078Y-64.936
X103.34Y-50.49
X103.43Y-62.88
X103.43Y-69.29
X103.43Y-71.68
X103.436Y-65.288
X103.436Y-66.088
X103.436Y-66.888
X103.44Y-62.09
X103.44Y-63.68
X103.44Y-64.49
X103.44Y-70.89
X103.44Y-72.49
X103.44Y-73.29
X103.45Y-70.09
X103.54Y-80.02
X103.76Y-91.46
X103.871Y-85.643
X104.23Y-72.49
X104.236Y-62.888
X104.236Y-64.487
X104.236Y-66.088
X104.236Y-66.888
X104.236Y-67.688
X104.238Y-74.893
X104.24Y-62.09
X104.24Y-63.69
X104.24Y-65.28
X104.24Y-70.07
X104.24Y-71.68
X104.24Y-73.29
X104.25Y-69.29
X104.68Y-91.35
X105.03Y-62.09
X105.03Y-62.89
X105.03Y-63.69
X105.03Y-71.69
X105.036Y-66.088
X105.036Y-68.488
X105.036Y-69.288
X105.036Y-70.888
X105.036Y-73.288
X105.04Y-64.48
X105.04Y-65.28
X105.236Y-79.388
X105.255Y-79.915
X105.456Y-70.43
X105.836Y-62.088
X105.836Y-62.863
X105.836Y-63.688
X105.836Y-64.488
X105.836Y-65.287
X105.836Y-66.088
X105.836Y-69.288
X105.836Y-72.488
X105.836Y-73.288
X105.84Y-66.88
X105.84Y-70.08
X105.84Y-71.68
X106.631Y-84.511
X106.636Y-62.088
X106.636Y-64.488
X106.636Y-65.288
X106.636Y-66.888
X106.636Y-70.888
X106.64Y-62.88
X106.64Y-63.68
X106.64Y-71.68
X106.643Y-95.152
X106.65Y-70.09
X106.792Y-87.114
X106.89Y-71.29
X107.43Y-63.69
X107.43Y-64.49
X107.436Y-60.488
X107.436Y-61.288
X107.436Y-62.088
X107.436Y-62.888
X107.436Y-70.888
X107.436Y-72.488
X107.436Y-73.288
X107.44Y-70.08
X108.23Y-63.69
X108.236Y-60.488
X108.236Y-62.088
X108.236Y-64.488
X108.236Y-65.288
X108.236Y-66.087
X108.236Y-67.688
X108.236Y-68.488
X108.236Y-69.288
X108.236Y-70.888
X108.236Y-71.688
X108.236Y-72.488
X108.236Y-73.288
X108.24Y-61.28
X108.24Y-62.88
X108.24Y-70.1
X108.55Y-93.57
X108.706Y-92.226
X109.03Y-67.68
X109.03Y-68.49
X109.03Y-69.28
X109.036Y-62.888
X109.036Y-65.288
X109.036Y-70.888
X109.036Y-71.688
X109.04Y-60.48
X109.04Y-61.28
X109.04Y-66.08
X109.04Y-70.09
X109.05Y-66.89
X109.435Y-71.099
X109.605Y-92.776
X109.812Y-90.045
X109.83Y-61.29
X109.83Y-66.89
X109.83Y-67.68
X109.83Y-69.29
X109.836Y-62.888
X109.836Y-70.888
X109.836Y-71.688
X109.836Y-72.488
X109.84Y-60.48
X109.84Y-65.29
X109.84Y-66.09
X109.84Y-68.49
X109.84Y-70.08
X110.786Y-76.47
X111.087Y-70.98
X111.138Y-93.542
X111.94Y-64.39
X112.236Y-93.573
X112.478Y-67.439
X112.62Y-64.4
X112.729Y-93.654
X113.167Y-93.414
X113.635Y-93.382
X113.64Y-65.85
X113.996Y-60.978
X114.102Y-72.631
X114.121Y-75.699
X114.418Y-93.143
X114.486Y-67.533
X114.486Y-70.073
X114.51Y-66.06
X114.511Y-60.318
X114.511Y-62.858
X114.53Y-80.18
X115.097Y-90.124
X115.366Y-64.488
X115.396Y-93.27
X115.43Y-66.14
X116.239Y-93.625
X116.552Y-95.145
X116.636Y-87.672
X116.648Y-93.252
X117.183Y-41.213
X117.2Y-39.27
X117.588Y-77.168
X118.036Y-94.243
X118.543Y-90.213
X118.963Y-93.495
X119.136Y-87.688
X119.303Y-92.12
X119.336Y-87.088
X119.423Y-93.593
X119.546Y-66.672
X119.585Y-95.145
X119.804Y-87.76
X119.825Y-93.033
X119.954Y-90.255
X119.972Y-88.876
X120.143Y-82.798
X120.41Y-65.03
X120.645Y-93.053
X121.016Y-92.278
X121.17Y-94.967
X121.23Y-91.68
X121.407Y-90.12
X121.969Y-95.049
X122.234Y-93.611
X122.236Y-70.088
X122.261Y-64.128
X122.43Y-91.4
X122.541Y-63.529
X122.571Y-72.35
X122.83Y-91.76
X123.089Y-37.963
X123.23Y-91.37
X124.8Y-71.25
X125.45Y-71.25
X125.766Y-88.085
X125.766Y-88.917
X128.49Y-62.57
X128.73Y-63.73
X128.941Y-82.31
T2
X84.111Y-74.813
X85.711Y-74.813
X86.159Y-71.575
X86.184Y-73.231
X88.408Y-74.022
X88.494Y-72.388
T3
X111.128Y-63.948
T4
X110.9Y-66.9
X111.841Y-66.908
X125.438Y-65.715
T5
X76.116Y-59.698
X76.126Y-56.518
X76.796Y-46.068
X77.376Y-59.708
X77.386Y-56.528
X78.646Y-59.718
X78.656Y-56.538
X78.896Y-45.478
X79.906Y-59.678
X79.916Y-56.498
X81.086Y-45.538
X81.196Y-59.718
X81.206Y-56.538
X82.436Y-59.738
X82.446Y-56.558
X82.856Y-67.858
X82.856Y-70.768
X83.706Y-59.738
X83.716Y-56.558
X84.296Y-82.318
X84.366Y-78.598
X84.986Y-59.728
X84.996Y-56.548
X85.226Y-78.598
X85.246Y-82.278
X86.076Y-78.588
X86.156Y-82.288
X86.276Y-59.718
X86.286Y-56.538
X87.546Y-59.718
X87.556Y-56.538
X89.096Y-79.508
X89.106Y-78.248
X89.156Y-76.968
X91.086Y-47.568
X93.175Y-52.178
X93.296Y-53.238
X97.756Y-52.838
X99.036Y-89.649
X99.036Y-95.488
X99.156Y-52.698
X100.056Y-47.248
X100.613Y-93.258
X100.896Y-45.718
X102.26Y-78.94
X103.03Y-75.91
X103.336Y-52.048
X104.14Y-86.44
X105.696Y-45.658
X106.346Y-48.058
X107.496Y-47.198
X108.57Y-79.88
X111.152Y-50.63
X112.21Y-56.64
X112.948Y-70.961
X113.746Y-56.548
X114.236Y-87.088
X114.511Y-64.128
X115.116Y-50.778
X115.136Y-87.888
X116.476Y-47.398
X117.226Y-49.908
X118.486Y-46.008
X118.616Y-49.148
X120.012Y-75.518
X120.09Y-38.08
X120.156Y-79.368
X120.656Y-56.288
X120.936Y-88.088
X120.936Y-89.088
X121.036Y-43.488
X121.036Y-44.588
X122.661Y-79.74
X123.227Y-46.968
X123.236Y-49.388
X124.014Y-79.036
X124.136Y-57.488
X124.136Y-58.688
X124.4Y-93.03
X124.636Y-63.658
X124.896Y-66.998
X125.286Y-57.488
X125.286Y-58.688
X125.806Y-62.468
X125.846Y-61.108
X126.436Y-57.488
X126.436Y-58.688
X127.236Y-75.388
X127.67Y-91.76
X127.69Y-82.26
X128.236Y-73.288
X128.536Y-71.288
X128.536Y-75.388
X128.836Y-86.388
X129.836Y-71.288
X129.836Y-73.288
X129.836Y-75.388
X130.036Y-85.488
X130.97Y-86.31
X131.036Y-73.258
X131.136Y-71.288
X131.136Y-75.288
X131.836Y-85.188
X132.336Y-73.288
X132.336Y-75.388
X132.346Y-71.288
T7
X77.376Y-75.434
X77.376Y-77.434
X77.376Y-79.434
X77.376Y-81.434
X77.376Y-83.434
X77.376Y-85.434
X130.116Y-47.158
X130.116Y-49.158
X130.116Y-51.158
X130.116Y-53.158
X130.116Y-55.158
X130.116Y-57.158
T8
X81.976Y-40.878
X84.516Y-40.878
X87.056Y-40.878
X89.596Y-40.878
X92.136Y-40.878
X94.676Y-40.878
T9
X76.436Y-39.888
X76.436Y-93.888
X130.436Y-39.888
X130.436Y-93.888
T6
X99.003Y-39.982G85X99.003Y-39.382
G05
X99.003Y-44.382G85X99.003Y-43.282
G05
X107.643Y-39.982G85X107.643Y-39.382
G05
X107.643Y-44.382G85X107.643Y-43.282
G05
M30
