%TF.GenerationSoftware,KiCad,Pcbnew,7.0.8*%
%TF.CreationDate,2024-03-08T21:51:04-08:00*%
%TF.ProjectId,New_Coil_Panel_Y,4e65775f-436f-4696-9c5f-50616e656c5f,rev?*%
%TF.SameCoordinates,Original*%
%TF.FileFunction,Legend,Top*%
%TF.FilePolarity,Positive*%
%FSLAX46Y46*%
G04 Gerber Fmt 4.6, Leading zero omitted, Abs format (unit mm)*
G04 Created by KiCad (PCBNEW 7.0.8) date 2024-03-08 21:51:04*
%MOMM*%
%LPD*%
G01*
G04 APERTURE LIST*
%ADD10C,0.300000*%
%ADD11C,0.150000*%
%ADD12C,0.120000*%
%ADD13C,2.600000*%
%ADD14C,3.800000*%
G04 APERTURE END LIST*
D10*
X270411114Y-119999489D02*
X270411114Y-119499489D01*
X271196828Y-119285203D02*
X271196828Y-119999489D01*
X271196828Y-119999489D02*
X269696828Y-119999489D01*
X269696828Y-119999489D02*
X269696828Y-119285203D01*
X271196828Y-118642346D02*
X270196828Y-118642346D01*
X270482542Y-118642346D02*
X270339685Y-118570917D01*
X270339685Y-118570917D02*
X270268257Y-118499489D01*
X270268257Y-118499489D02*
X270196828Y-118356631D01*
X270196828Y-118356631D02*
X270196828Y-118213774D01*
X271196828Y-117713775D02*
X270196828Y-117713775D01*
X269696828Y-117713775D02*
X269768257Y-117785203D01*
X269768257Y-117785203D02*
X269839685Y-117713775D01*
X269839685Y-117713775D02*
X269768257Y-117642346D01*
X269768257Y-117642346D02*
X269696828Y-117713775D01*
X269696828Y-117713775D02*
X269839685Y-117713775D01*
X271125400Y-116356632D02*
X271196828Y-116499489D01*
X271196828Y-116499489D02*
X271196828Y-116785203D01*
X271196828Y-116785203D02*
X271125400Y-116928060D01*
X271125400Y-116928060D02*
X271053971Y-116999489D01*
X271053971Y-116999489D02*
X270911114Y-117070917D01*
X270911114Y-117070917D02*
X270482542Y-117070917D01*
X270482542Y-117070917D02*
X270339685Y-116999489D01*
X270339685Y-116999489D02*
X270268257Y-116928060D01*
X270268257Y-116928060D02*
X270196828Y-116785203D01*
X270196828Y-116785203D02*
X270196828Y-116499489D01*
X270196828Y-116499489D02*
X270268257Y-116356632D01*
X271196828Y-113856632D02*
X271196828Y-114570918D01*
X271196828Y-114570918D02*
X269696828Y-114570918D01*
X271196828Y-113356632D02*
X270196828Y-113356632D01*
X269696828Y-113356632D02*
X269768257Y-113428060D01*
X269768257Y-113428060D02*
X269839685Y-113356632D01*
X269839685Y-113356632D02*
X269768257Y-113285203D01*
X269768257Y-113285203D02*
X269696828Y-113356632D01*
X269696828Y-113356632D02*
X269839685Y-113356632D01*
X270196828Y-111999489D02*
X271196828Y-111999489D01*
X270196828Y-112642346D02*
X270982542Y-112642346D01*
X270982542Y-112642346D02*
X271125400Y-112570917D01*
X271125400Y-112570917D02*
X271196828Y-112428060D01*
X271196828Y-112428060D02*
X271196828Y-112213774D01*
X271196828Y-112213774D02*
X271125400Y-112070917D01*
X271125400Y-112070917D02*
X271053971Y-111999489D01*
D11*
X60388095Y-49382819D02*
X60388095Y-48382819D01*
X60388095Y-48859009D02*
X60959523Y-48859009D01*
X60959523Y-49382819D02*
X60959523Y-48382819D01*
X61388095Y-48478057D02*
X61435714Y-48430438D01*
X61435714Y-48430438D02*
X61530952Y-48382819D01*
X61530952Y-48382819D02*
X61769047Y-48382819D01*
X61769047Y-48382819D02*
X61864285Y-48430438D01*
X61864285Y-48430438D02*
X61911904Y-48478057D01*
X61911904Y-48478057D02*
X61959523Y-48573295D01*
X61959523Y-48573295D02*
X61959523Y-48668533D01*
X61959523Y-48668533D02*
X61911904Y-48811390D01*
X61911904Y-48811390D02*
X61340476Y-49382819D01*
X61340476Y-49382819D02*
X61959523Y-49382819D01*
X104646095Y-89624819D02*
X105217523Y-89624819D01*
X104931809Y-90624819D02*
X104931809Y-89624819D01*
X105550857Y-90624819D02*
X105550857Y-89624819D01*
X105550857Y-89624819D02*
X105931809Y-89624819D01*
X105931809Y-89624819D02*
X106027047Y-89672438D01*
X106027047Y-89672438D02*
X106074666Y-89720057D01*
X106074666Y-89720057D02*
X106122285Y-89815295D01*
X106122285Y-89815295D02*
X106122285Y-89958152D01*
X106122285Y-89958152D02*
X106074666Y-90053390D01*
X106074666Y-90053390D02*
X106027047Y-90101009D01*
X106027047Y-90101009D02*
X105931809Y-90148628D01*
X105931809Y-90148628D02*
X105550857Y-90148628D01*
X107074666Y-90624819D02*
X106503238Y-90624819D01*
X106788952Y-90624819D02*
X106788952Y-89624819D01*
X106788952Y-89624819D02*
X106693714Y-89767676D01*
X106693714Y-89767676D02*
X106598476Y-89862914D01*
X106598476Y-89862914D02*
X106503238Y-89910533D01*
X164138095Y-49382819D02*
X164138095Y-48382819D01*
X164138095Y-48859009D02*
X164709523Y-48859009D01*
X164709523Y-49382819D02*
X164709523Y-48382819D01*
X165090476Y-48382819D02*
X165709523Y-48382819D01*
X165709523Y-48382819D02*
X165376190Y-48763771D01*
X165376190Y-48763771D02*
X165519047Y-48763771D01*
X165519047Y-48763771D02*
X165614285Y-48811390D01*
X165614285Y-48811390D02*
X165661904Y-48859009D01*
X165661904Y-48859009D02*
X165709523Y-48954247D01*
X165709523Y-48954247D02*
X165709523Y-49192342D01*
X165709523Y-49192342D02*
X165661904Y-49287580D01*
X165661904Y-49287580D02*
X165614285Y-49335200D01*
X165614285Y-49335200D02*
X165519047Y-49382819D01*
X165519047Y-49382819D02*
X165233333Y-49382819D01*
X165233333Y-49382819D02*
X165138095Y-49335200D01*
X165138095Y-49335200D02*
X165090476Y-49287580D01*
X267888095Y-126382819D02*
X267888095Y-125382819D01*
X267888095Y-125859009D02*
X268459523Y-125859009D01*
X268459523Y-126382819D02*
X268459523Y-125382819D01*
X269364285Y-125382819D02*
X269173809Y-125382819D01*
X269173809Y-125382819D02*
X269078571Y-125430438D01*
X269078571Y-125430438D02*
X269030952Y-125478057D01*
X269030952Y-125478057D02*
X268935714Y-125620914D01*
X268935714Y-125620914D02*
X268888095Y-125811390D01*
X268888095Y-125811390D02*
X268888095Y-126192342D01*
X268888095Y-126192342D02*
X268935714Y-126287580D01*
X268935714Y-126287580D02*
X268983333Y-126335200D01*
X268983333Y-126335200D02*
X269078571Y-126382819D01*
X269078571Y-126382819D02*
X269269047Y-126382819D01*
X269269047Y-126382819D02*
X269364285Y-126335200D01*
X269364285Y-126335200D02*
X269411904Y-126287580D01*
X269411904Y-126287580D02*
X269459523Y-126192342D01*
X269459523Y-126192342D02*
X269459523Y-125954247D01*
X269459523Y-125954247D02*
X269411904Y-125859009D01*
X269411904Y-125859009D02*
X269364285Y-125811390D01*
X269364285Y-125811390D02*
X269269047Y-125763771D01*
X269269047Y-125763771D02*
X269078571Y-125763771D01*
X269078571Y-125763771D02*
X268983333Y-125811390D01*
X268983333Y-125811390D02*
X268935714Y-125859009D01*
X268935714Y-125859009D02*
X268888095Y-125954247D01*
X164138095Y-126382819D02*
X164138095Y-125382819D01*
X164138095Y-125859009D02*
X164709523Y-125859009D01*
X164709523Y-126382819D02*
X164709523Y-125382819D01*
X165661904Y-125382819D02*
X165185714Y-125382819D01*
X165185714Y-125382819D02*
X165138095Y-125859009D01*
X165138095Y-125859009D02*
X165185714Y-125811390D01*
X165185714Y-125811390D02*
X165280952Y-125763771D01*
X165280952Y-125763771D02*
X165519047Y-125763771D01*
X165519047Y-125763771D02*
X165614285Y-125811390D01*
X165614285Y-125811390D02*
X165661904Y-125859009D01*
X165661904Y-125859009D02*
X165709523Y-125954247D01*
X165709523Y-125954247D02*
X165709523Y-126192342D01*
X165709523Y-126192342D02*
X165661904Y-126287580D01*
X165661904Y-126287580D02*
X165614285Y-126335200D01*
X165614285Y-126335200D02*
X165519047Y-126382819D01*
X165519047Y-126382819D02*
X165280952Y-126382819D01*
X165280952Y-126382819D02*
X165185714Y-126335200D01*
X165185714Y-126335200D02*
X165138095Y-126287580D01*
X60388095Y-126382819D02*
X60388095Y-125382819D01*
X60388095Y-125859009D02*
X60959523Y-125859009D01*
X60959523Y-126382819D02*
X60959523Y-125382819D01*
X61959523Y-126382819D02*
X61388095Y-126382819D01*
X61673809Y-126382819D02*
X61673809Y-125382819D01*
X61673809Y-125382819D02*
X61578571Y-125525676D01*
X61578571Y-125525676D02*
X61483333Y-125620914D01*
X61483333Y-125620914D02*
X61388095Y-125668533D01*
X267888095Y-49382819D02*
X267888095Y-48382819D01*
X267888095Y-48859009D02*
X268459523Y-48859009D01*
X268459523Y-49382819D02*
X268459523Y-48382819D01*
X269364285Y-48716152D02*
X269364285Y-49382819D01*
X269126190Y-48335200D02*
X268888095Y-49049485D01*
X268888095Y-49049485D02*
X269507142Y-49049485D01*
D12*
X100488000Y-88570000D02*
X111388000Y-88570000D01*
X100488000Y-91770000D02*
X100488000Y-88570000D01*
X111388000Y-88570000D02*
X111388000Y-91770000D01*
X111388000Y-91770000D02*
X100488000Y-91770000D01*
%LPC*%
D13*
X61150000Y-51828000D03*
D14*
X61150000Y-51828000D03*
D13*
X102088000Y-90170000D03*
X109708000Y-90170000D03*
X164900000Y-51828000D03*
D14*
X164900000Y-51828000D03*
D13*
X268650000Y-128828000D03*
D14*
X268650000Y-128828000D03*
D13*
X164900000Y-128828000D03*
D14*
X164900000Y-128828000D03*
D13*
X61150000Y-128828000D03*
D14*
X61150000Y-128828000D03*
D13*
X268650000Y-51828000D03*
D14*
X268650000Y-51828000D03*
%LPD*%
M02*
