%TF.GenerationSoftware,KiCad,Pcbnew,8.0.5*%
%TF.CreationDate,2024-12-03T18:17:28-08:00*%
%TF.ProjectId,Stationary_X_Panel,53746174-696f-46e6-9172-795f585f5061,1b*%
%TF.SameCoordinates,Original*%
%TF.FileFunction,Copper,L1,Top*%
%TF.FilePolarity,Positive*%
%FSLAX46Y46*%
G04 Gerber Fmt 4.6, Leading zero omitted, Abs format (unit mm)*
G04 Created by KiCad (PCBNEW 8.0.5) date 2024-12-03 18:17:28*
%MOMM*%
%LPD*%
G01*
G04 APERTURE LIST*
%TA.AperFunction,ComponentPad*%
%ADD10C,2.600000*%
%TD*%
%TA.AperFunction,ConnectorPad*%
%ADD11C,3.800000*%
%TD*%
%TA.AperFunction,ComponentPad*%
%ADD12C,3.000000*%
%TD*%
%TA.AperFunction,SMDPad,CuDef*%
%ADD13R,2.500000X1.700000*%
%TD*%
%TA.AperFunction,SMDPad,CuDef*%
%ADD14R,1.700000X2.500000*%
%TD*%
%TA.AperFunction,SMDPad,CuDef*%
%ADD15R,1.100000X1.450000*%
%TD*%
%TA.AperFunction,SMDPad,CuDef*%
%ADD16R,1.350000X2.900000*%
%TD*%
%TA.AperFunction,ViaPad*%
%ADD17C,0.800000*%
%TD*%
%TA.AperFunction,Conductor*%
%ADD18C,1.000000*%
%TD*%
%TA.AperFunction,Conductor*%
%ADD19C,0.635000*%
%TD*%
G04 APERTURE END LIST*
D10*
%TO.P,H12,1,1*%
%TO.N,GND*%
X108075000Y-129165000D03*
D11*
X108075000Y-129165000D03*
%TD*%
D12*
%TO.P,SC8,1,+*%
%TO.N,Net-(D7-A)*%
X97285000Y-96475000D03*
%TO.P,SC8,2,-*%
%TO.N,Net-(D8-A)*%
X88285000Y-96475000D03*
%TD*%
D13*
%TO.P,D14,1,K*%
%TO.N,VSOLAR*%
X62198000Y-91694000D03*
%TO.P,D14,2,A*%
%TO.N,Net-(D1-K)*%
X58198000Y-91694000D03*
%TD*%
D14*
%TO.P,D6,1,K*%
%TO.N,Net-(D5-A)*%
X65811000Y-222537000D03*
%TO.P,D6,2,A*%
%TO.N,GND*%
X65811000Y-218537000D03*
%TD*%
D12*
%TO.P,SC2,1,+*%
%TO.N,Net-(D1-A)*%
X50585000Y-84275000D03*
%TO.P,SC2,2,-*%
%TO.N,Net-(D2-A)*%
X41585000Y-84275000D03*
%TD*%
D13*
%TO.P,D4,1,K*%
%TO.N,Net-(D3-A)*%
X48635000Y-161995000D03*
%TO.P,D4,2,A*%
%TO.N,Net-(D4-A)*%
X44635000Y-161995000D03*
%TD*%
%TO.P,D2,1,K*%
%TO.N,Net-(D1-A)*%
X71550000Y-23075000D03*
%TO.P,D2,2,A*%
%TO.N,Net-(D2-A)*%
X67550000Y-23075000D03*
%TD*%
D10*
%TO.P,H8,1,1*%
%TO.N,GND*%
X31095000Y-232915000D03*
D11*
X31095000Y-232915000D03*
%TD*%
D12*
%TO.P,SC1,1,+*%
%TO.N,Net-(D1-K)*%
X65395000Y-58275000D03*
%TO.P,SC1,2,-*%
%TO.N,Net-(D1-A)*%
X74395000Y-58275000D03*
%TD*%
%TO.P,SC12,1,+*%
%TO.N,Net-(D11-A)*%
X72915000Y-207435000D03*
%TO.P,SC12,2,-*%
%TO.N,GND*%
X72915000Y-198435000D03*
%TD*%
%TO.P,SC11,1,+*%
%TO.N,Net-(D10-A)*%
X74075000Y-186925000D03*
%TO.P,SC11,2,-*%
%TO.N,Net-(D11-A)*%
X65075000Y-186925000D03*
%TD*%
D14*
%TO.P,D3,1,K*%
%TO.N,Net-(D2-A)*%
X59690000Y-118396000D03*
%TO.P,D3,2,A*%
%TO.N,Net-(D3-A)*%
X59690000Y-122396000D03*
%TD*%
D13*
%TO.P,D11,1,K*%
%TO.N,Net-(D10-A)*%
X88985000Y-179835000D03*
%TO.P,D11,2,A*%
%TO.N,Net-(D11-A)*%
X84985000Y-179835000D03*
%TD*%
%TO.P,D5,1,K*%
%TO.N,Net-(D4-A)*%
X58815000Y-204335000D03*
%TO.P,D5,2,A*%
%TO.N,Net-(D5-A)*%
X62815000Y-204335000D03*
%TD*%
D12*
%TO.P,SC9,1,+*%
%TO.N,Net-(D8-A)*%
X98805000Y-132995000D03*
%TO.P,SC9,2,-*%
%TO.N,Net-(D10-K)*%
X89805000Y-132995000D03*
%TD*%
D15*
%TO.P,J2,1,1*%
%TO.N,/VUSB_OUT*%
X40200000Y-25425000D03*
%TO.P,J2,2,2*%
%TO.N,/VUSB_BATT*%
X42200000Y-25425000D03*
%TO.P,J2,3,3*%
%TO.N,/VCHRG*%
X44200000Y-25425000D03*
%TO.P,J2,4,4*%
%TO.N,/VBATT*%
X46200000Y-25425000D03*
%TO.P,J2,5,5*%
%TO.N,/PYCUBED_GND*%
X48200000Y-25425000D03*
%TO.P,J2,6,6*%
%TO.N,/PYCUBED_GNDREF*%
X50200000Y-25425000D03*
D16*
%TO.P,J2,S1,SHIELD1*%
%TO.N,unconnected-(J2-SHIELD1-PadS1)*%
X37305000Y-31400000D03*
%TO.P,J2,S2,SHIELD2*%
%TO.N,unconnected-(J2-SHIELD2-PadS2)*%
X53095000Y-31400000D03*
%TD*%
D10*
%TO.P,H9,1,1*%
%TO.N,GND*%
X31075000Y-129155000D03*
D11*
X31075000Y-129155000D03*
%TD*%
D14*
%TO.P,D1,1,K*%
%TO.N,Net-(D1-K)*%
X79435000Y-34195000D03*
%TO.P,D1,2,A*%
%TO.N,Net-(D1-A)*%
X79435000Y-38195000D03*
%TD*%
D10*
%TO.P,H3,1,1*%
%TO.N,GND*%
X61666115Y-112421156D03*
D11*
X61666115Y-112421156D03*
%TD*%
D13*
%TO.P,D8,1,K*%
%TO.N,Net-(D7-A)*%
X75978000Y-92202000D03*
%TO.P,D8,2,A*%
%TO.N,Net-(D8-A)*%
X79978000Y-92202000D03*
%TD*%
D12*
%TO.P,SC7,1,+*%
%TO.N,Net-(D13-A)*%
X88395000Y-34205000D03*
%TO.P,SC7,2,-*%
%TO.N,Net-(D7-A)*%
X97395000Y-34205000D03*
%TD*%
D10*
%TO.P,H10,1,1*%
%TO.N,GND*%
X31085000Y-25415000D03*
D11*
X31085000Y-25415000D03*
%TD*%
D10*
%TO.P,H2,1,1*%
%TO.N,GND*%
X76045000Y-120315000D03*
D11*
X76045000Y-120315000D03*
%TD*%
D12*
%TO.P,SC6,1,+*%
%TO.N,Net-(D5-A)*%
X72915000Y-230075000D03*
%TO.P,SC6,2,-*%
%TO.N,GND*%
X72915000Y-221075000D03*
%TD*%
D10*
%TO.P,H5,1,1*%
%TO.N,GND*%
X61666115Y-96723386D03*
D11*
X61666115Y-96723386D03*
%TD*%
D12*
%TO.P,SC5,1,+*%
%TO.N,Net-(D4-A)*%
X50565000Y-194405000D03*
%TO.P,SC5,2,-*%
%TO.N,Net-(D5-A)*%
X41565000Y-194405000D03*
%TD*%
D10*
%TO.P,H7,1,1*%
%TO.N,GND*%
X108075000Y-232905000D03*
D11*
X108075000Y-232905000D03*
%TD*%
D10*
%TO.P,H4,1,1*%
%TO.N,GND*%
X77363885Y-112421156D03*
D11*
X77363885Y-112421156D03*
%TD*%
D13*
%TO.P,D13,1,K*%
%TO.N,VSOLAR*%
X87825000Y-27415000D03*
%TO.P,D13,2,A*%
%TO.N,Net-(D13-A)*%
X91825000Y-27415000D03*
%TD*%
D14*
%TO.P,D9,1,K*%
%TO.N,Net-(D8-A)*%
X81265000Y-113025000D03*
%TO.P,D9,2,A*%
%TO.N,Net-(D10-K)*%
X81265000Y-117025000D03*
%TD*%
%TO.P,D12,1,K*%
%TO.N,Net-(D11-A)*%
X62785000Y-200375000D03*
%TO.P,D12,2,A*%
%TO.N,GND*%
X62785000Y-196375000D03*
%TD*%
D10*
%TO.P,H11,1,1*%
%TO.N,GND*%
X108095000Y-25405000D03*
D11*
X108095000Y-25405000D03*
%TD*%
D12*
%TO.P,SC4,1,+*%
%TO.N,Net-(D3-A)*%
X49435000Y-155595000D03*
%TO.P,SC4,2,-*%
%TO.N,Net-(D4-A)*%
X40435000Y-155595000D03*
%TD*%
%TO.P,SC3,1,+*%
%TO.N,Net-(D2-A)*%
X49515000Y-119875000D03*
%TO.P,SC3,2,-*%
%TO.N,Net-(D3-A)*%
X40515000Y-119875000D03*
%TD*%
D13*
%TO.P,D10,1,K*%
%TO.N,Net-(D10-K)*%
X98895000Y-179925000D03*
%TO.P,D10,2,A*%
%TO.N,Net-(D10-A)*%
X94895000Y-179925000D03*
%TD*%
D12*
%TO.P,SC10,1,+*%
%TO.N,Net-(D10-K)*%
X98855000Y-169015000D03*
%TO.P,SC10,2,-*%
%TO.N,Net-(D10-A)*%
X89855000Y-169015000D03*
%TD*%
D10*
%TO.P,H6,1,1*%
%TO.N,GND*%
X77363885Y-96723386D03*
D11*
X77363885Y-96723386D03*
%TD*%
D10*
%TO.P,H1,1,1*%
%TO.N,BURN*%
X65100000Y-120315000D03*
D11*
X65100000Y-120315000D03*
%TD*%
D13*
%TO.P,D7,1,K*%
%TO.N,Net-(D13-A)*%
X96835000Y-27325000D03*
%TO.P,D7,2,A*%
%TO.N,Net-(D7-A)*%
X100835000Y-27325000D03*
%TD*%
D17*
%TO.N,VSOLAR*%
X72595000Y-92456000D03*
%TO.N,GND*%
X67735000Y-218565000D03*
X65815000Y-216525000D03*
X60565000Y-196355000D03*
X67315000Y-217035000D03*
X60995000Y-194695000D03*
X61275000Y-197825000D03*
%TO.N,BURN*%
X57658000Y-93980000D03*
%TO.N,/VUSB_OUT*%
X40145000Y-27375000D03*
%TO.N,/VUSB_BATT*%
X42175000Y-27285000D03*
%TO.N,/VCHRG*%
X44135000Y-27205000D03*
%TO.N,/VBATT*%
X46145000Y-27315000D03*
%TO.N,/PYCUBED_GND*%
X48175000Y-27285000D03*
%TO.N,/PYCUBED_GNDREF*%
X50125000Y-27185000D03*
%TD*%
D18*
%TO.N,VSOLAR*%
X72595000Y-92456000D02*
X72595000Y-85075000D01*
X70352786Y-83539214D02*
X62198000Y-91694000D01*
X87825000Y-66763428D02*
X71059214Y-83529214D01*
X87825000Y-27415000D02*
X86225000Y-27415000D01*
X71059214Y-83539214D02*
X70352786Y-83539214D01*
X72595000Y-85075000D02*
X71059214Y-83539214D01*
X85275000Y-35305000D02*
X87825000Y-37855000D01*
X86225000Y-27415000D02*
X85275000Y-28365000D01*
X87825000Y-37855000D02*
X87825000Y-66763428D01*
X71059214Y-83539214D02*
X71059214Y-83529214D01*
X85275000Y-28365000D02*
X85275000Y-35305000D01*
%TO.N,GND*%
X65813000Y-218537000D02*
X67315000Y-217035000D01*
X65811000Y-216529000D02*
X65815000Y-216525000D01*
X65811000Y-218537000D02*
X65811000Y-216529000D01*
X62785000Y-196375000D02*
X62675000Y-196375000D01*
X65811000Y-218537000D02*
X67707000Y-218537000D01*
X60585000Y-196375000D02*
X60565000Y-196355000D01*
X65811000Y-218537000D02*
X65813000Y-218537000D01*
X62675000Y-196375000D02*
X60995000Y-194695000D01*
X67707000Y-218537000D02*
X67735000Y-218565000D01*
X62785000Y-196375000D02*
X62725000Y-196375000D01*
X62725000Y-196375000D02*
X61275000Y-197825000D01*
X62785000Y-196375000D02*
X60585000Y-196375000D01*
%TO.N,Net-(D1-K)*%
X78205000Y-61525000D02*
X86075000Y-53655000D01*
X59035000Y-90857000D02*
X58198000Y-91694000D01*
X65395000Y-61525000D02*
X65395000Y-58275000D01*
X65395000Y-61525000D02*
X78205000Y-61525000D01*
X82065000Y-34195000D02*
X79435000Y-34195000D01*
X86075000Y-53655000D02*
X86075000Y-38205000D01*
X59035000Y-67885000D02*
X59035000Y-90857000D01*
X65395000Y-61525000D02*
X59035000Y-67885000D01*
X86075000Y-38205000D02*
X82065000Y-34195000D01*
%TO.N,Net-(D1-A)*%
X37080000Y-61750000D02*
X37080000Y-41240000D01*
X37080000Y-41240000D02*
X39245000Y-39075000D01*
X77985000Y-38195000D02*
X79435000Y-38195000D01*
X79075000Y-58275000D02*
X84165000Y-53185000D01*
X84165000Y-39805000D02*
X82555000Y-38195000D01*
X50585000Y-84275000D02*
X50585000Y-75255000D01*
X84165000Y-53185000D02*
X84165000Y-39805000D01*
X71275000Y-23075000D02*
X75955000Y-23075000D01*
X39245000Y-39075000D02*
X55275000Y-39075000D01*
X50585000Y-75255000D02*
X37080000Y-61750000D01*
X55275000Y-39075000D02*
X71275000Y-23075000D01*
X74395000Y-58275000D02*
X79075000Y-58275000D01*
X75955000Y-23075000D02*
X76985000Y-24105000D01*
X76985000Y-37195000D02*
X77985000Y-38195000D01*
X76985000Y-24105000D02*
X76985000Y-37195000D01*
X82555000Y-38195000D02*
X79435000Y-38195000D01*
%TO.N,Net-(D2-A)*%
X41585000Y-71635000D02*
X35880000Y-65930000D01*
X37895000Y-23025000D02*
X67325000Y-23025000D01*
X55035000Y-119875000D02*
X49515000Y-119875000D01*
X35880000Y-25040000D02*
X37895000Y-23025000D01*
X59690000Y-118396000D02*
X56514000Y-118396000D01*
X56514000Y-118396000D02*
X55035000Y-119875000D01*
X41585000Y-84275000D02*
X41585000Y-96405000D01*
X49515000Y-104335000D02*
X49515000Y-119875000D01*
X35880000Y-65930000D02*
X35880000Y-25040000D01*
X41585000Y-96405000D02*
X49515000Y-104335000D01*
X41585000Y-84275000D02*
X41585000Y-71635000D01*
%TO.N,Net-(D10-K)*%
X81981000Y-117025000D02*
X89805000Y-124849000D01*
X89805000Y-132995000D02*
X89805000Y-147525000D01*
X98855000Y-169015000D02*
X98855000Y-179885000D01*
X81265000Y-117025000D02*
X81981000Y-117025000D01*
X89805000Y-147525000D02*
X98855000Y-156575000D01*
X98855000Y-156575000D02*
X98855000Y-169015000D01*
X89805000Y-124849000D02*
X89805000Y-132995000D01*
X98855000Y-179885000D02*
X98895000Y-179925000D01*
%TO.N,Net-(D10-A)*%
X81895000Y-186925000D02*
X74075000Y-186925000D01*
X88985000Y-179835000D02*
X88985000Y-169885000D01*
X89075000Y-179925000D02*
X88985000Y-179835000D01*
X88985000Y-169885000D02*
X89855000Y-169015000D01*
X88985000Y-179835000D02*
X81895000Y-186925000D01*
X94895000Y-179925000D02*
X89075000Y-179925000D01*
%TO.N,Net-(D11-A)*%
X72165000Y-179835000D02*
X65075000Y-186925000D01*
X64245000Y-200375000D02*
X65075000Y-199545000D01*
X84985000Y-179835000D02*
X72165000Y-179835000D01*
X65075000Y-199545000D02*
X72915000Y-207385000D01*
X72915000Y-207385000D02*
X72915000Y-207435000D01*
X65075000Y-198085000D02*
X65075000Y-199545000D01*
X62785000Y-200375000D02*
X64245000Y-200375000D01*
X65075000Y-198085000D02*
X65075000Y-186925000D01*
%TO.N,Net-(D3-A)*%
X59690000Y-122396000D02*
X59658000Y-122428000D01*
X48635000Y-159065000D02*
X49435000Y-158265000D01*
X49435000Y-158265000D02*
X49435000Y-155595000D01*
X49435000Y-143675000D02*
X40515000Y-134755000D01*
X48635000Y-161995000D02*
X48635000Y-159065000D01*
X59658000Y-122428000D02*
X47748000Y-122428000D01*
X49435000Y-155595000D02*
X49435000Y-143675000D01*
X40515000Y-134755000D02*
X40515000Y-119875000D01*
X47748000Y-122428000D02*
X45195000Y-119875000D01*
X45195000Y-119875000D02*
X40515000Y-119875000D01*
%TO.N,Net-(D4-A)*%
X50565000Y-187195000D02*
X44635000Y-181265000D01*
X44635000Y-161995000D02*
X44635000Y-159795000D01*
X58815000Y-202655000D02*
X55900000Y-199740000D01*
X55900000Y-199740000D02*
X50565000Y-194405000D01*
X44635000Y-159795000D02*
X40435000Y-155595000D01*
X58815000Y-204335000D02*
X58815000Y-202655000D01*
X44635000Y-181265000D02*
X44635000Y-161995000D01*
X50565000Y-194405000D02*
X50565000Y-187195000D01*
%TO.N,Net-(D5-A)*%
X62992425Y-207585000D02*
X58745000Y-207585000D01*
X62992425Y-207585000D02*
X62992425Y-204512425D01*
X69185000Y-230075000D02*
X72915000Y-230075000D01*
X45565000Y-194405000D02*
X41565000Y-194405000D01*
X65811000Y-226701000D02*
X69185000Y-230075000D01*
X64527000Y-222537000D02*
X63575000Y-221585000D01*
X58745000Y-207585000D02*
X45565000Y-194405000D01*
X62992425Y-204512425D02*
X62815000Y-204335000D01*
X65811000Y-222537000D02*
X64527000Y-222537000D01*
X65811000Y-222537000D02*
X65811000Y-226701000D01*
X63575000Y-208167575D02*
X62992425Y-207585000D01*
X63575000Y-221585000D02*
X63575000Y-208167575D01*
%TO.N,Net-(D7-A)*%
X100835000Y-28845000D02*
X100835000Y-27325000D01*
X83820000Y-86430000D02*
X83820000Y-86614000D01*
X81750000Y-86430000D02*
X75978000Y-92202000D01*
X91375000Y-90565000D02*
X97285000Y-96475000D01*
X97395000Y-32285000D02*
X100835000Y-28845000D01*
X87771000Y-90565000D02*
X91375000Y-90565000D01*
X97395000Y-34205000D02*
X97395000Y-72855000D01*
X97395000Y-34205000D02*
X97395000Y-32285000D01*
X97395000Y-72855000D02*
X83820000Y-86430000D01*
X83820000Y-86614000D02*
X87771000Y-90565000D01*
X83820000Y-86430000D02*
X81750000Y-86430000D01*
%TO.N,Net-(D8-A)*%
X98805000Y-125455000D02*
X98805000Y-132995000D01*
X86360000Y-101346000D02*
X83566000Y-98552000D01*
X86375000Y-113025000D02*
X88335000Y-114985000D01*
X83566000Y-98552000D02*
X86208000Y-98552000D01*
X79978000Y-94964000D02*
X79978000Y-92202000D01*
X86208000Y-101194000D02*
X86360000Y-101346000D01*
X83566000Y-98552000D02*
X79978000Y-94964000D01*
X86208000Y-98552000D02*
X86208000Y-101194000D01*
X88335000Y-103321000D02*
X86360000Y-101346000D01*
X87132000Y-112268000D02*
X88335000Y-112268000D01*
X86375000Y-113025000D02*
X87132000Y-112268000D01*
X88335000Y-114985000D02*
X98805000Y-125455000D01*
X88335000Y-112268000D02*
X88335000Y-103321000D01*
X81265000Y-113025000D02*
X86375000Y-113025000D01*
X88335000Y-114985000D02*
X88335000Y-112268000D01*
X86208000Y-98552000D02*
X88285000Y-96475000D01*
%TO.N,BURN*%
X65100000Y-119964000D02*
X65100000Y-120315000D01*
X55995000Y-110859000D02*
X65100000Y-119964000D01*
X55995000Y-95643000D02*
X55995000Y-110859000D01*
X57658000Y-93980000D02*
X55995000Y-95643000D01*
%TO.N,Net-(D13-A)*%
X88395000Y-34205000D02*
X88395000Y-32455000D01*
X88395000Y-32455000D02*
X91825000Y-29025000D01*
X96835000Y-27325000D02*
X91915000Y-27325000D01*
X91915000Y-27325000D02*
X91825000Y-27415000D01*
X91825000Y-29025000D02*
X91825000Y-27415000D01*
%TO.N,/VUSB_OUT*%
X40150000Y-25710000D02*
X40150000Y-27370000D01*
D19*
X40150000Y-27370000D02*
X40145000Y-27375000D01*
%TO.N,/VUSB_BATT*%
X42150000Y-27260000D02*
X42175000Y-27285000D01*
D18*
X42150000Y-25710000D02*
X42150000Y-27260000D01*
D19*
%TO.N,/VCHRG*%
X44150000Y-27190000D02*
X44135000Y-27205000D01*
D18*
X44150000Y-25710000D02*
X44150000Y-27190000D01*
D19*
%TO.N,/VBATT*%
X46150000Y-27310000D02*
X46145000Y-27315000D01*
D18*
X46150000Y-25710000D02*
X46150000Y-27310000D01*
D19*
%TO.N,/PYCUBED_GND*%
X48150000Y-27260000D02*
X48175000Y-27285000D01*
D18*
X48150000Y-25710000D02*
X48150000Y-27260000D01*
D19*
%TO.N,/PYCUBED_GNDREF*%
X50150000Y-27160000D02*
X50125000Y-27185000D01*
D18*
X50150000Y-25710000D02*
X50150000Y-27160000D01*
%TD*%
M02*
