%TF.GenerationSoftware,KiCad,Pcbnew,8.0.6-8.0.6-0~ubuntu24.04.1*%
%TF.CreationDate,2025-01-16T22:58:46-08:00*%
%TF.ProjectId,reaction_wheel,72656163-7469-46f6-9e5f-776865656c2e,v1a*%
%TF.SameCoordinates,Original*%
%TF.FileFunction,Copper,L1,Top*%
%TF.FilePolarity,Positive*%
%FSLAX46Y46*%
G04 Gerber Fmt 4.6, Leading zero omitted, Abs format (unit mm)*
G04 Created by KiCad (PCBNEW 8.0.6-8.0.6-0~ubuntu24.04.1) date 2025-01-16 22:58:46*
%MOMM*%
%LPD*%
G01*
G04 APERTURE LIST*
G04 Aperture macros list*
%AMRoundRect*
0 Rectangle with rounded corners*
0 $1 Rounding radius*
0 $2 $3 $4 $5 $6 $7 $8 $9 X,Y pos of 4 corners*
0 Add a 4 corners polygon primitive as box body*
4,1,4,$2,$3,$4,$5,$6,$7,$8,$9,$2,$3,0*
0 Add four circle primitives for the rounded corners*
1,1,$1+$1,$2,$3*
1,1,$1+$1,$4,$5*
1,1,$1+$1,$6,$7*
1,1,$1+$1,$8,$9*
0 Add four rect primitives between the rounded corners*
20,1,$1+$1,$2,$3,$4,$5,0*
20,1,$1+$1,$4,$5,$6,$7,0*
20,1,$1+$1,$6,$7,$8,$9,0*
20,1,$1+$1,$8,$9,$2,$3,0*%
G04 Aperture macros list end*
%TA.AperFunction,SMDPad,CuDef*%
%ADD10RoundRect,0.225000X-0.250000X0.225000X-0.250000X-0.225000X0.250000X-0.225000X0.250000X0.225000X0*%
%TD*%
%TA.AperFunction,ComponentPad*%
%ADD11R,1.700000X1.700000*%
%TD*%
%TA.AperFunction,ComponentPad*%
%ADD12O,1.700000X1.700000*%
%TD*%
%TA.AperFunction,SMDPad,CuDef*%
%ADD13O,0.600000X0.200000*%
%TD*%
%TA.AperFunction,SMDPad,CuDef*%
%ADD14O,0.200000X0.600000*%
%TD*%
%TA.AperFunction,HeatsinkPad*%
%ADD15C,0.337500*%
%TD*%
%TA.AperFunction,SMDPad,CuDef*%
%ADD16R,2.700000X3.700000*%
%TD*%
%TA.AperFunction,SMDPad,CuDef*%
%ADD17RoundRect,0.225000X0.225000X0.250000X-0.225000X0.250000X-0.225000X-0.250000X0.225000X-0.250000X0*%
%TD*%
%TA.AperFunction,SMDPad,CuDef*%
%ADD18RoundRect,0.200000X0.200000X0.275000X-0.200000X0.275000X-0.200000X-0.275000X0.200000X-0.275000X0*%
%TD*%
%TA.AperFunction,ComponentPad*%
%ADD19R,2.032000X2.032000*%
%TD*%
%TA.AperFunction,ComponentPad*%
%ADD20C,2.032000*%
%TD*%
%TA.AperFunction,SMDPad,CuDef*%
%ADD21RoundRect,0.225000X0.250000X-0.225000X0.250000X0.225000X-0.250000X0.225000X-0.250000X-0.225000X0*%
%TD*%
%TA.AperFunction,SMDPad,CuDef*%
%ADD22RoundRect,0.200000X-0.275000X0.200000X-0.275000X-0.200000X0.275000X-0.200000X0.275000X0.200000X0*%
%TD*%
%TA.AperFunction,SMDPad,CuDef*%
%ADD23RoundRect,0.225000X-0.225000X-0.250000X0.225000X-0.250000X0.225000X0.250000X-0.225000X0.250000X0*%
%TD*%
%TA.AperFunction,ViaPad*%
%ADD24C,0.600000*%
%TD*%
%TA.AperFunction,Conductor*%
%ADD25C,0.160000*%
%TD*%
%TA.AperFunction,Conductor*%
%ADD26C,0.200000*%
%TD*%
%TA.AperFunction,Conductor*%
%ADD27C,0.800000*%
%TD*%
%TA.AperFunction,Conductor*%
%ADD28C,0.300000*%
%TD*%
%TA.AperFunction,Conductor*%
%ADD29C,0.500000*%
%TD*%
G04 APERTURE END LIST*
D10*
%TO.P,C3,1*%
%TO.N,/ADC_C*%
X143897500Y-70522500D03*
%TO.P,C3,2*%
%TO.N,GND*%
X143897500Y-72072500D03*
%TD*%
D11*
%TO.P,J1,1,Pin_1*%
%TO.N,/PWM_L_C*%
X149162500Y-70942500D03*
D12*
%TO.P,J1,2,Pin_2*%
%TO.N,/PWM_H_C*%
X149162500Y-73482500D03*
%TO.P,J1,3,Pin_3*%
%TO.N,/PWM_L_B*%
X149162500Y-76022500D03*
%TO.P,J1,4,Pin_4*%
%TO.N,/PWM_H_B*%
X149162500Y-78562500D03*
%TO.P,J1,5,Pin_5*%
%TO.N,/PWM_L_A*%
X149162500Y-81102500D03*
%TO.P,J1,6,Pin_6*%
%TO.N,/PWM_H_A*%
X149162500Y-83642500D03*
%TD*%
D13*
%TO.P,U1,1,NSLEEP*%
%TO.N,/sleep*%
X135762500Y-76562500D03*
%TO.P,U1,2,NFAULT*%
%TO.N,/fault*%
X135762500Y-76962500D03*
%TO.P,U1,3,NC*%
%TO.N,unconnected-(U1-NC-Pad3)*%
X135762500Y-77362500D03*
%TO.P,U1,4,CPL*%
%TO.N,Net-(U1-CPL)*%
X135762500Y-77762500D03*
%TO.P,U1,5,CPH*%
%TO.N,Net-(U1-CPH)*%
X135762500Y-78162500D03*
%TO.P,U1,6,CP*%
%TO.N,Net-(U1-CP)*%
X135762500Y-78562500D03*
%TO.P,U1,7,VIN_AVDD*%
%TO.N,+12V*%
X135762500Y-78962500D03*
%TO.P,U1,8,VM*%
X135762500Y-79362500D03*
%TO.P,U1,9,VM*%
X135762500Y-79762500D03*
%TO.P,U1,10,PGND*%
%TO.N,GND*%
X135762500Y-80162500D03*
D14*
%TO.P,U1,11,OUTA*%
%TO.N,/OUT_A*%
X136262500Y-80762500D03*
%TO.P,U1,12,OUTA*%
X136662500Y-80762500D03*
%TO.P,U1,13,PGND*%
%TO.N,GND*%
X137062500Y-80762500D03*
%TO.P,U1,14,OUTB*%
%TO.N,/OUT_B*%
X137462500Y-80762500D03*
%TO.P,U1,15,OUTB*%
X137862500Y-80762500D03*
%TO.P,U1,16,PGND*%
%TO.N,GND*%
X138262500Y-80762500D03*
%TO.P,U1,17,OUTC*%
%TO.N,/OUT_C*%
X138662500Y-80762500D03*
%TO.P,U1,18,OUTC*%
X139062500Y-80762500D03*
D13*
%TO.P,U1,19,PGND*%
%TO.N,GND*%
X139562500Y-80162500D03*
%TO.P,U1,20,VM*%
%TO.N,unconnected-(U1-VM-Pad20)*%
X139562500Y-79762500D03*
%TO.P,U1,21,AGND*%
%TO.N,GND*%
X139562500Y-79362500D03*
%TO.P,U1,22,AVDD*%
%TO.N,+3.3V*%
X139562500Y-78962500D03*
%TO.P,U1,23,INHA*%
%TO.N,/PWM_H_A*%
X139562500Y-78562500D03*
%TO.P,U1,24,INLA*%
%TO.N,/PWM_L_A*%
X139562500Y-78162500D03*
%TO.P,U1,25,INHB*%
%TO.N,/PWM_H_B*%
X139562500Y-77762500D03*
%TO.P,U1,26,INLB*%
%TO.N,/PWM_L_B*%
X139562500Y-77362500D03*
%TO.P,U1,27,INHC*%
%TO.N,/PWM_H_C*%
X139562500Y-76962500D03*
%TO.P,U1,28,INLC*%
%TO.N,/PWM_L_C*%
X139562500Y-76562500D03*
D14*
%TO.P,U1,29,GAIN*%
%TO.N,Net-(U1-GAIN)*%
X139062500Y-75962500D03*
%TO.P,U1,30,SLEW*%
%TO.N,unconnected-(U1-SLEW-Pad30)*%
X138662500Y-75962500D03*
%TO.P,U1,31,MODE*%
%TO.N,Net-(U1-MODE)*%
X138262500Y-75962500D03*
%TO.P,U1,32,NC*%
%TO.N,unconnected-(U1-NC-Pad32)*%
X137862500Y-75962500D03*
%TO.P,U1,33,CSAREF*%
%TO.N,+3.3V*%
X137462500Y-75962500D03*
%TO.P,U1,34,SOC*%
%TO.N,Net-(U1-SOC)*%
X137062500Y-75962500D03*
%TO.P,U1,35,SOB*%
%TO.N,Net-(U1-SOB)*%
X136662500Y-75962500D03*
%TO.P,U1,36,SOA*%
%TO.N,Net-(U1-SOA)*%
X136262500Y-75962500D03*
D15*
%TO.P,U1,37,EPAD*%
%TO.N,GND*%
X136987500Y-77437500D03*
X136987500Y-78362500D03*
X136987500Y-79287500D03*
X137662500Y-77437500D03*
X137662500Y-78362500D03*
D16*
X137662500Y-78362500D03*
D15*
X137662500Y-79287500D03*
X138337500Y-77437500D03*
X138337500Y-78362500D03*
X138337500Y-79287500D03*
%TD*%
D10*
%TO.P,C2,1*%
%TO.N,/ADC_A*%
X136662500Y-70287500D03*
%TO.P,C2,2*%
%TO.N,GND*%
X136662500Y-71837500D03*
%TD*%
D17*
%TO.P,C9,1*%
%TO.N,GND*%
X143012500Y-74562500D03*
%TO.P,C9,2*%
%TO.N,+3.3V*%
X141462500Y-74562500D03*
%TD*%
D11*
%TO.P,J4,1,Pin_1*%
%TO.N,GND*%
X126500000Y-84580000D03*
D12*
%TO.P,J4,2,Pin_2*%
%TO.N,+3.3V*%
X126500000Y-82040000D03*
%TO.P,J4,3,Pin_3*%
%TO.N,+12V*%
X126500000Y-79500000D03*
%TO.P,J4,4,Pin_4*%
%TO.N,/sleep*%
X126500000Y-76960000D03*
%TO.P,J4,5,Pin_5*%
%TO.N,/fault*%
X126500000Y-74420000D03*
%TD*%
D10*
%TO.P,C4,1*%
%TO.N,Net-(U1-CPL)*%
X131662500Y-70987500D03*
%TO.P,C4,2*%
%TO.N,Net-(U1-CPH)*%
X131662500Y-72537500D03*
%TD*%
%TO.P,C8,1*%
%TO.N,GND*%
X134062500Y-68887500D03*
%TO.P,C8,2*%
%TO.N,+3.3V*%
X134062500Y-70437500D03*
%TD*%
%TO.P,C10,1*%
%TO.N,GND*%
X129862500Y-76887500D03*
%TO.P,C10,2*%
%TO.N,+12V*%
X129862500Y-78437500D03*
%TD*%
D18*
%TO.P,R4,1*%
%TO.N,Net-(U1-SOA)*%
X138237500Y-67562500D03*
%TO.P,R4,2*%
%TO.N,/ADC_A*%
X136587500Y-67562500D03*
%TD*%
D11*
%TO.P,J2,1,Pin_1*%
%TO.N,GND*%
X147852500Y-64762500D03*
D12*
%TO.P,J2,2,Pin_2*%
%TO.N,+3.3V*%
X145312500Y-64762500D03*
%TO.P,J2,3,Pin_3*%
%TO.N,/ADC_C*%
X142772500Y-64762500D03*
%TO.P,J2,4,Pin_4*%
%TO.N,/ADC_B*%
X140232500Y-64762500D03*
%TO.P,J2,5,Pin_5*%
%TO.N,/ADC_A*%
X137692500Y-64762500D03*
%TD*%
D19*
%TO.P,J3,1,Pin_1*%
%TO.N,/OUT_B*%
X137662500Y-88612500D03*
D20*
%TO.P,J3,2,Pin_2*%
%TO.N,/OUT_C*%
X141162500Y-88612500D03*
%TD*%
D10*
%TO.P,C7,1*%
%TO.N,+3.3V*%
X141262500Y-80187500D03*
%TO.P,C7,2*%
%TO.N,GND*%
X141262500Y-81737500D03*
%TD*%
D19*
%TO.P,J5,1,Pin_1*%
%TO.N,GND*%
X130662500Y-88612500D03*
D20*
%TO.P,J5,2,Pin_2*%
%TO.N,/OUT_A*%
X134162500Y-88612500D03*
%TD*%
D21*
%TO.P,C12,1*%
%TO.N,GND*%
X131662500Y-81812500D03*
%TO.P,C12,2*%
%TO.N,+12V*%
X131662500Y-80262500D03*
%TD*%
D22*
%TO.P,R5,1*%
%TO.N,+3.3V*%
X134062500Y-72837500D03*
%TO.P,R5,2*%
%TO.N,/fault*%
X134062500Y-74487500D03*
%TD*%
D10*
%TO.P,C11,1*%
%TO.N,GND*%
X131412500Y-76912500D03*
%TO.P,C11,2*%
%TO.N,+12V*%
X131412500Y-78462500D03*
%TD*%
D18*
%TO.P,R1,1*%
%TO.N,Net-(U1-SOB)*%
X141722500Y-67562500D03*
%TO.P,R1,2*%
%TO.N,/ADC_B*%
X140072500Y-67562500D03*
%TD*%
D21*
%TO.P,C6,1*%
%TO.N,GND*%
X129862500Y-81812500D03*
%TO.P,C6,2*%
%TO.N,+12V*%
X129862500Y-80262500D03*
%TD*%
D10*
%TO.P,C1,1*%
%TO.N,/ADC_B*%
X140122500Y-70522500D03*
%TO.P,C1,2*%
%TO.N,GND*%
X140122500Y-72072500D03*
%TD*%
D23*
%TO.P,C5,1*%
%TO.N,+12V*%
X130187500Y-74062500D03*
%TO.P,C5,2*%
%TO.N,Net-(U1-CP)*%
X131737500Y-74062500D03*
%TD*%
D18*
%TO.P,R2,1*%
%TO.N,Net-(U1-SOC)*%
X145662500Y-67562500D03*
%TO.P,R2,2*%
%TO.N,/ADC_C*%
X144012500Y-67562500D03*
%TD*%
D24*
%TO.N,GND*%
X136700000Y-73000000D03*
X133825000Y-81125000D03*
X134100000Y-67700000D03*
X135675000Y-83975000D03*
X131312500Y-75862500D03*
X141325000Y-82875000D03*
X132500000Y-69000000D03*
X143200000Y-81250000D03*
X147762500Y-66462500D03*
X129962500Y-75862500D03*
X145200000Y-72125000D03*
X137950000Y-71750000D03*
X144162500Y-74562500D03*
X138325000Y-83125000D03*
X129962500Y-82862500D03*
X131662500Y-82862500D03*
X136662501Y-82262500D03*
X149762500Y-64812500D03*
X141065000Y-72135000D03*
%TO.N,+3.3V*%
X141012500Y-79212500D03*
X140162500Y-74122500D03*
X134062500Y-71762500D03*
%TO.N,Net-(U1-GAIN)*%
X140562500Y-75911400D03*
%TO.N,Net-(U1-MODE)*%
X138500000Y-75000000D03*
%TD*%
D25*
%TO.N,/sleep*%
X135762500Y-76562500D02*
X135762500Y-67553384D01*
X125370000Y-75830000D02*
X126500000Y-76960000D01*
X135762500Y-67553384D02*
X134049116Y-65840000D01*
X134049116Y-65840000D02*
X133481938Y-65840000D01*
X133481938Y-65840000D02*
X125370000Y-73951938D01*
X125370000Y-73951938D02*
X125370000Y-75830000D01*
%TO.N,/fault*%
X134817500Y-67117500D02*
X133900000Y-66200000D01*
X134817500Y-73732500D02*
X134817500Y-67117500D01*
X133900000Y-66200000D02*
X126500000Y-73600000D01*
X126500000Y-73600000D02*
X126500000Y-74420000D01*
D26*
X134062500Y-74487500D02*
X134817500Y-73732500D01*
D25*
%TO.N,GND*%
X145147500Y-72072500D02*
X143897500Y-72072500D01*
X138325000Y-83125000D02*
X138325000Y-82304239D01*
D26*
X137662500Y-78762500D02*
X137662500Y-78362500D01*
X140362500Y-80162500D02*
X140412500Y-80212500D01*
X129862500Y-75962500D02*
X129862500Y-76887500D01*
D25*
X138949200Y-80114100D02*
X138949200Y-79410900D01*
D26*
X135762500Y-80162500D02*
X136262500Y-80162500D01*
X131312500Y-75862500D02*
X131312500Y-76812500D01*
D25*
X136062500Y-83587500D02*
X136062500Y-82862501D01*
D26*
X140412500Y-80887500D02*
X141262500Y-81737500D01*
X139928185Y-79362500D02*
X140412500Y-79846815D01*
X136262500Y-80162500D02*
X137662500Y-78762500D01*
D25*
X135675000Y-83250001D02*
X136662501Y-82262500D01*
D26*
X143012500Y-74562500D02*
X144162500Y-74562500D01*
D25*
X135675000Y-83975000D02*
X135675000Y-83250001D01*
X135675000Y-83975000D02*
X136062500Y-83587500D01*
D26*
X133312500Y-80162500D02*
X131662500Y-81812500D01*
X139562500Y-80162500D02*
X140362500Y-80162500D01*
D25*
X145200000Y-72125000D02*
X145147500Y-72072500D01*
D26*
X141262500Y-82812500D02*
X141262500Y-81737500D01*
X141325000Y-82875000D02*
X141262500Y-82812500D01*
D25*
X141002500Y-72072500D02*
X140122500Y-72072500D01*
D26*
X131312500Y-75862500D02*
X129962500Y-75862500D01*
D25*
X141065000Y-72135000D02*
X141002500Y-72072500D01*
D26*
X140412500Y-79846815D02*
X140412500Y-80212500D01*
X135762500Y-80162500D02*
X133312500Y-80162500D01*
X131312500Y-76812500D02*
X131412500Y-76912500D01*
D25*
X138325000Y-82304239D02*
X138262499Y-82241738D01*
D26*
X129962500Y-75862500D02*
X129862500Y-75962500D01*
X140412500Y-80212500D02*
X140412500Y-80887500D01*
D25*
X137062501Y-81862500D02*
X136662501Y-82262500D01*
X137062501Y-80813600D02*
X137062501Y-81862500D01*
X138262499Y-82241738D02*
X138262499Y-80813600D01*
D26*
X139562500Y-79362500D02*
X139928185Y-79362500D01*
D25*
%TO.N,/ADC_B*%
X140072500Y-64922500D02*
X140232500Y-64762500D01*
X140122500Y-70522500D02*
X140122500Y-67612500D01*
X140072500Y-67562500D02*
X140072500Y-64922500D01*
X140122500Y-67612500D02*
X140072500Y-67562500D01*
%TO.N,/ADC_A*%
X136662500Y-67637500D02*
X136587500Y-67562500D01*
X136587500Y-67562500D02*
X136587500Y-65867500D01*
X136587500Y-65867500D02*
X137692500Y-64762500D01*
X136662500Y-70287500D02*
X136662500Y-67637500D01*
X136622500Y-67527500D02*
X136587500Y-67562500D01*
%TO.N,/ADC_C*%
X144012500Y-70407500D02*
X143897500Y-70522500D01*
X144012500Y-67562500D02*
X144012500Y-66002500D01*
X144012500Y-66002500D02*
X142772500Y-64762500D01*
X144012500Y-67562500D02*
X144012500Y-70407500D01*
%TO.N,Net-(U1-CPH)*%
X132812500Y-75899901D02*
X132812500Y-73687500D01*
X135075099Y-78162500D02*
X132812500Y-75899901D01*
X135719400Y-78162500D02*
X135075099Y-78162500D01*
X132812500Y-73687500D02*
X131662500Y-72537500D01*
%TO.N,Net-(U1-CPL)*%
X131662500Y-70987500D02*
X133287500Y-72612500D01*
X133287500Y-75837500D02*
X135212500Y-77762500D01*
X133287500Y-72612500D02*
X133287500Y-75837500D01*
D26*
X135762500Y-77762500D02*
X135212500Y-77762500D01*
D25*
%TO.N,Net-(U1-CP)*%
X132412500Y-76212500D02*
X134762500Y-78562500D01*
X131737500Y-74062500D02*
X132412500Y-74737500D01*
X134762500Y-78562500D02*
X135719400Y-78562500D01*
X132412500Y-74737500D02*
X132412500Y-76212500D01*
D27*
%TO.N,+12V*%
X129862500Y-78437500D02*
X129377500Y-78437500D01*
X131662500Y-78412500D02*
X131662500Y-78462500D01*
X126662500Y-79742500D02*
X129342500Y-79742500D01*
X129342500Y-79742500D02*
X129862500Y-80262500D01*
X129377500Y-78437500D02*
X128787500Y-77847500D01*
X128787500Y-75462500D02*
X130187500Y-74062500D01*
X129862500Y-78437500D02*
X129862500Y-80262500D01*
X129862500Y-78437500D02*
X129862500Y-78462500D01*
X132660900Y-79264100D02*
X134404100Y-79264100D01*
X131662500Y-80262500D02*
X132660900Y-79264100D01*
X134404100Y-79264100D02*
X134502501Y-79362501D01*
X129887500Y-78412500D02*
X129862500Y-78437500D01*
X129862500Y-80262500D02*
X131662500Y-80262500D01*
X128787500Y-77847500D02*
X128787500Y-75462500D01*
X129862500Y-78462500D02*
X131662500Y-80262500D01*
X131662500Y-78462500D02*
X129862500Y-80262500D01*
X131662500Y-80262500D02*
X131662500Y-78412500D01*
X131662500Y-78412500D02*
X129887500Y-78412500D01*
X134502501Y-79362501D02*
X135665500Y-79362501D01*
X131662500Y-78412500D02*
X132612501Y-79362501D01*
D28*
%TO.N,+3.3V*%
X134062500Y-71762500D02*
X134062500Y-70437500D01*
X140602500Y-74562500D02*
X140162500Y-74122500D01*
X141262500Y-80187500D02*
X141262500Y-79462500D01*
D25*
X140989336Y-79762500D02*
X141125918Y-79899082D01*
D26*
X139562500Y-78962500D02*
X140762500Y-78962500D01*
D28*
X134062500Y-70437500D02*
X134062500Y-72837500D01*
D25*
X134062500Y-71762500D02*
X134062500Y-72837500D01*
X141012500Y-79785664D02*
X141125918Y-79899082D01*
D26*
X140762500Y-78962500D02*
X141012500Y-79212500D01*
X138380786Y-74122500D02*
X137462500Y-75040786D01*
X137462500Y-75040786D02*
X137462500Y-75962500D01*
X140162500Y-74122500D02*
X138380786Y-74122500D01*
D28*
X141262500Y-79462500D02*
X141012500Y-79212500D01*
X141462500Y-74562500D02*
X140602500Y-74562500D01*
D25*
%TO.N,/PWM_L_B*%
X147822501Y-77362499D02*
X139605600Y-77362499D01*
X149162500Y-76022500D02*
X147822501Y-77362499D01*
%TO.N,/PWM_H_C*%
X145682500Y-76962500D02*
X139605600Y-76962500D01*
X149162500Y-73482500D02*
X145682500Y-76962500D01*
%TO.N,/PWM_L_C*%
X143542499Y-76562501D02*
X139605600Y-76562501D01*
X149162500Y-70942500D02*
X143542499Y-76562501D01*
%TO.N,/PWM_L_A*%
X146222500Y-78162500D02*
X139605600Y-78162500D01*
X149162500Y-81102500D02*
X146222500Y-78162500D01*
%TO.N,/PWM_H_A*%
X149162500Y-83642500D02*
X144082500Y-78562500D01*
X144082500Y-78562500D02*
X139605600Y-78562500D01*
%TO.N,/PWM_H_B*%
X147362501Y-77762501D02*
X139605600Y-77762501D01*
X149162500Y-78562500D02*
X148162500Y-78562500D01*
X148162500Y-78562500D02*
X147362501Y-77762501D01*
D27*
%TO.N,/OUT_A*%
X134806401Y-82668599D02*
X134162500Y-83312500D01*
X134162500Y-83312500D02*
X134162500Y-88612500D01*
X134807500Y-82668599D02*
X134806401Y-82668599D01*
X136360901Y-81115198D02*
X134807500Y-82668599D01*
%TO.N,/OUT_C*%
X139062500Y-82122500D02*
X139062500Y-80867500D01*
X141162500Y-85872500D02*
X139887500Y-84597500D01*
X141162500Y-88612500D02*
X141162500Y-85872500D01*
X139887500Y-84597500D02*
X139887500Y-82947500D01*
X139887500Y-82947500D02*
X139062500Y-82122500D01*
D26*
%TO.N,/OUT_B*%
X137462500Y-80762500D02*
X137687500Y-80762500D01*
D27*
X137662500Y-84212500D02*
X137662500Y-88612500D01*
D29*
X137687500Y-82387500D02*
X137287500Y-82787500D01*
X137287500Y-83837500D02*
X137662500Y-84212500D01*
D26*
X137687500Y-80762500D02*
X137862500Y-80762500D01*
D29*
X137687500Y-80762500D02*
X137687500Y-82387500D01*
D27*
X137662500Y-88612500D02*
X137560899Y-88510899D01*
D29*
X137287500Y-82787500D02*
X137287500Y-83837500D01*
D25*
%TO.N,Net-(U1-SOB)*%
X141652744Y-73062500D02*
X142662500Y-72052744D01*
X136662499Y-75272501D02*
X136662499Y-75911400D01*
X142662500Y-67812500D02*
X142412500Y-67562500D01*
X138394266Y-73062500D02*
X141652744Y-73062500D01*
X136662499Y-75312500D02*
X136662499Y-74794267D01*
X136662499Y-74794267D02*
X138394266Y-73062500D01*
X136662499Y-75279137D02*
X136662499Y-75312500D01*
X142412500Y-67562500D02*
X141722500Y-67562500D01*
X142662500Y-72052744D02*
X142662500Y-67812500D01*
X136662499Y-75312500D02*
X136662499Y-75911400D01*
%TO.N,Net-(U1-SOC)*%
X145662500Y-67562500D02*
X146087500Y-67987500D01*
X145377744Y-73542500D02*
X138423384Y-73542500D01*
X138423384Y-73542500D02*
X137062501Y-74903383D01*
X146087500Y-67987500D02*
X146087500Y-72832744D01*
X137062501Y-74903383D02*
X137062501Y-75911400D01*
X146087500Y-72832744D02*
X145377744Y-73542500D01*
%TO.N,Net-(U1-GAIN)*%
X140562500Y-75911400D02*
X139062500Y-75911400D01*
%TO.N,Net-(U1-SOA)*%
X138487500Y-67812500D02*
X138237500Y-67562500D01*
X138543382Y-72702500D02*
X138912500Y-72333382D01*
X136262500Y-74685150D02*
X137274916Y-73672733D01*
X138245149Y-72702500D02*
X138543382Y-72702500D01*
X136262500Y-75911400D02*
X136262500Y-74685150D01*
X138912500Y-72333382D02*
X138912500Y-67812500D01*
X137274916Y-73672733D02*
X138245149Y-72702500D01*
X138912500Y-67812500D02*
X138487500Y-67812500D01*
%TO.N,/fault*%
X135719400Y-76962500D02*
X135111399Y-76962500D01*
X134062500Y-75913601D02*
X134062500Y-74487500D01*
X135111399Y-76962500D02*
X134062500Y-75913601D01*
%TO.N,Net-(U1-MODE)*%
X138262500Y-75237500D02*
X138262500Y-75962500D01*
X138500000Y-75000000D02*
X138262500Y-75237500D01*
%TD*%
%TA.AperFunction,Conductor*%
%TO.N,/OUT_A*%
G36*
X136696632Y-80503368D02*
G01*
X136700000Y-80511500D01*
X136700000Y-81238500D01*
X136696632Y-81246632D01*
X136688500Y-81250000D01*
X136211500Y-81250000D01*
X136203368Y-81246632D01*
X136200000Y-81238500D01*
X136200000Y-80511500D01*
X136203368Y-80503368D01*
X136211500Y-80500000D01*
X136688500Y-80500000D01*
X136696632Y-80503368D01*
G37*
%TD.AperFunction*%
%TD*%
%TA.AperFunction,Conductor*%
%TO.N,GND*%
G36*
X137030833Y-77258030D02*
G01*
X137075180Y-77286531D01*
X137325000Y-77536351D01*
X137440634Y-77420717D01*
X137578125Y-77420717D01*
X137578125Y-77454283D01*
X137590970Y-77485295D01*
X137614705Y-77509030D01*
X137645717Y-77521875D01*
X137679283Y-77521875D01*
X137710295Y-77509030D01*
X137734030Y-77485295D01*
X137746875Y-77454283D01*
X137746875Y-77420717D01*
X137734030Y-77389705D01*
X137710295Y-77365970D01*
X137679283Y-77353125D01*
X137645717Y-77353125D01*
X137614705Y-77365970D01*
X137590970Y-77389705D01*
X137578125Y-77420717D01*
X137440634Y-77420717D01*
X137574819Y-77286532D01*
X137636142Y-77253047D01*
X137705834Y-77258031D01*
X137750181Y-77286532D01*
X138000000Y-77536351D01*
X138115634Y-77420717D01*
X138253125Y-77420717D01*
X138253125Y-77454283D01*
X138265970Y-77485295D01*
X138289705Y-77509030D01*
X138320717Y-77521875D01*
X138354283Y-77521875D01*
X138385295Y-77509030D01*
X138409030Y-77485295D01*
X138421875Y-77454283D01*
X138421875Y-77420717D01*
X138409030Y-77389705D01*
X138385295Y-77365970D01*
X138354283Y-77353125D01*
X138320717Y-77353125D01*
X138289705Y-77365970D01*
X138265970Y-77389705D01*
X138253125Y-77420717D01*
X138115634Y-77420717D01*
X138249819Y-77286532D01*
X138311142Y-77253047D01*
X138380834Y-77258031D01*
X138425181Y-77286532D01*
X138725751Y-77587102D01*
X138759236Y-77648425D01*
X138760361Y-77675316D01*
X138762000Y-77675316D01*
X138762000Y-77801287D01*
X138742315Y-77868326D01*
X138732362Y-77876950D01*
X138762304Y-77899364D01*
X138786721Y-77964829D01*
X138782812Y-78005767D01*
X138762000Y-78083441D01*
X138762000Y-78125287D01*
X138742315Y-78192326D01*
X138725681Y-78212968D01*
X138576149Y-78362500D01*
X138725681Y-78512032D01*
X138759166Y-78573355D01*
X138762000Y-78599713D01*
X138762000Y-78641558D01*
X138782812Y-78719232D01*
X138781149Y-78789082D01*
X138741985Y-78846944D01*
X138736894Y-78849123D01*
X138737267Y-78849403D01*
X138761684Y-78914867D01*
X138762000Y-78923713D01*
X138762000Y-79049684D01*
X138758569Y-79049684D01*
X138750240Y-79103074D01*
X138725751Y-79137897D01*
X138425180Y-79438467D01*
X138363857Y-79471952D01*
X138294165Y-79466968D01*
X138249818Y-79438467D01*
X138082068Y-79270717D01*
X138253125Y-79270717D01*
X138253125Y-79304283D01*
X138265970Y-79335295D01*
X138289705Y-79359030D01*
X138320717Y-79371875D01*
X138354283Y-79371875D01*
X138385295Y-79359030D01*
X138409030Y-79335295D01*
X138421875Y-79304283D01*
X138421875Y-79270717D01*
X138409030Y-79239705D01*
X138385295Y-79215970D01*
X138354283Y-79203125D01*
X138320717Y-79203125D01*
X138289705Y-79215970D01*
X138265970Y-79239705D01*
X138253125Y-79270717D01*
X138082068Y-79270717D01*
X138000000Y-79188649D01*
X137750181Y-79438468D01*
X137688858Y-79471953D01*
X137619166Y-79466969D01*
X137574819Y-79438468D01*
X137407068Y-79270717D01*
X137578125Y-79270717D01*
X137578125Y-79304283D01*
X137590970Y-79335295D01*
X137614705Y-79359030D01*
X137645717Y-79371875D01*
X137679283Y-79371875D01*
X137710295Y-79359030D01*
X137734030Y-79335295D01*
X137746875Y-79304283D01*
X137746875Y-79270717D01*
X137734030Y-79239705D01*
X137710295Y-79215970D01*
X137679283Y-79203125D01*
X137645717Y-79203125D01*
X137614705Y-79215970D01*
X137590970Y-79239705D01*
X137578125Y-79270717D01*
X137407068Y-79270717D01*
X137325000Y-79188649D01*
X137075181Y-79438468D01*
X137013858Y-79471953D01*
X136944166Y-79466969D01*
X136899819Y-79438468D01*
X136732068Y-79270717D01*
X136903125Y-79270717D01*
X136903125Y-79304283D01*
X136915970Y-79335295D01*
X136939705Y-79359030D01*
X136970717Y-79371875D01*
X137004283Y-79371875D01*
X137035295Y-79359030D01*
X137059030Y-79335295D01*
X137071875Y-79304283D01*
X137071875Y-79270717D01*
X137059030Y-79239705D01*
X137035295Y-79215970D01*
X137004283Y-79203125D01*
X136970717Y-79203125D01*
X136939705Y-79215970D01*
X136915970Y-79239705D01*
X136903125Y-79270717D01*
X136732068Y-79270717D01*
X136599248Y-79137897D01*
X136565763Y-79076574D01*
X136564670Y-79049685D01*
X136563000Y-79049685D01*
X136563000Y-78923713D01*
X136582685Y-78856674D01*
X136592636Y-78848050D01*
X136564523Y-78827004D01*
X136761643Y-78827004D01*
X136768203Y-78830000D01*
X136774681Y-78836032D01*
X136987500Y-79048851D01*
X137086351Y-78950000D01*
X137086351Y-78908444D01*
X137106036Y-78841405D01*
X137118433Y-78826020D01*
X137118433Y-78823978D01*
X137531566Y-78823978D01*
X137531566Y-78828521D01*
X137560815Y-78882085D01*
X137563649Y-78908445D01*
X137563649Y-78950000D01*
X137662500Y-79048851D01*
X137761351Y-78950000D01*
X137761351Y-78908444D01*
X137781036Y-78841405D01*
X137793433Y-78826020D01*
X137793433Y-78823978D01*
X138206566Y-78823978D01*
X138206566Y-78828521D01*
X138235815Y-78882085D01*
X138238649Y-78908445D01*
X138238649Y-78950000D01*
X138337500Y-79048851D01*
X138550319Y-78836032D01*
X138564590Y-78828239D01*
X138337500Y-78601149D01*
X138238649Y-78700000D01*
X138238649Y-78741554D01*
X138218964Y-78808593D01*
X138206566Y-78823978D01*
X137793433Y-78823978D01*
X137793433Y-78821477D01*
X137764185Y-78767914D01*
X137761351Y-78741556D01*
X137761351Y-78700000D01*
X137662500Y-78601149D01*
X137563649Y-78700000D01*
X137563649Y-78741554D01*
X137543964Y-78808593D01*
X137531566Y-78823978D01*
X137118433Y-78823978D01*
X137118433Y-78821477D01*
X137089185Y-78767914D01*
X137086351Y-78741556D01*
X137086351Y-78700000D01*
X136987500Y-78601149D01*
X136761643Y-78827004D01*
X136564523Y-78827004D01*
X136562694Y-78825635D01*
X136538277Y-78760171D01*
X136542185Y-78719237D01*
X136563000Y-78641557D01*
X136563000Y-78599713D01*
X136582685Y-78532674D01*
X136599319Y-78512032D01*
X136748851Y-78362500D01*
X136732068Y-78345717D01*
X136903125Y-78345717D01*
X136903125Y-78379283D01*
X136915970Y-78410295D01*
X136939705Y-78434030D01*
X136970717Y-78446875D01*
X137004283Y-78446875D01*
X137035295Y-78434030D01*
X137059030Y-78410295D01*
X137071875Y-78379283D01*
X137071875Y-78362500D01*
X137226149Y-78362500D01*
X137325000Y-78461351D01*
X137423851Y-78362500D01*
X137407068Y-78345717D01*
X137578125Y-78345717D01*
X137578125Y-78379283D01*
X137590970Y-78410295D01*
X137614705Y-78434030D01*
X137645717Y-78446875D01*
X137679283Y-78446875D01*
X137710295Y-78434030D01*
X137734030Y-78410295D01*
X137746875Y-78379283D01*
X137746875Y-78362500D01*
X137901149Y-78362500D01*
X138000000Y-78461351D01*
X138098851Y-78362500D01*
X138082068Y-78345717D01*
X138253125Y-78345717D01*
X138253125Y-78379283D01*
X138265970Y-78410295D01*
X138289705Y-78434030D01*
X138320717Y-78446875D01*
X138354283Y-78446875D01*
X138385295Y-78434030D01*
X138409030Y-78410295D01*
X138421875Y-78379283D01*
X138421875Y-78345717D01*
X138409030Y-78314705D01*
X138385295Y-78290970D01*
X138354283Y-78278125D01*
X138320717Y-78278125D01*
X138289705Y-78290970D01*
X138265970Y-78314705D01*
X138253125Y-78345717D01*
X138082068Y-78345717D01*
X138000000Y-78263649D01*
X137901149Y-78362500D01*
X137746875Y-78362500D01*
X137746875Y-78345717D01*
X137734030Y-78314705D01*
X137710295Y-78290970D01*
X137679283Y-78278125D01*
X137645717Y-78278125D01*
X137614705Y-78290970D01*
X137590970Y-78314705D01*
X137578125Y-78345717D01*
X137407068Y-78345717D01*
X137325000Y-78263649D01*
X137226149Y-78362500D01*
X137071875Y-78362500D01*
X137071875Y-78345717D01*
X137059030Y-78314705D01*
X137035295Y-78290970D01*
X137004283Y-78278125D01*
X136970717Y-78278125D01*
X136939705Y-78290970D01*
X136915970Y-78314705D01*
X136903125Y-78345717D01*
X136732068Y-78345717D01*
X136599319Y-78212968D01*
X136565834Y-78151645D01*
X136563000Y-78125287D01*
X136563000Y-78083445D01*
X136563000Y-78083443D01*
X136542186Y-78005765D01*
X136543849Y-77935918D01*
X136570351Y-77896760D01*
X136760409Y-77896760D01*
X136987500Y-78123851D01*
X137086351Y-78025000D01*
X137086351Y-77983444D01*
X137106036Y-77916405D01*
X137118433Y-77901020D01*
X137118433Y-77898978D01*
X137531566Y-77898978D01*
X137531566Y-77903521D01*
X137560815Y-77957085D01*
X137563649Y-77983445D01*
X137563649Y-78025000D01*
X137662500Y-78123851D01*
X137761351Y-78025000D01*
X137761351Y-77983444D01*
X137781036Y-77916405D01*
X137793433Y-77901020D01*
X137793433Y-77898978D01*
X138206566Y-77898978D01*
X138206566Y-77903521D01*
X138235815Y-77957085D01*
X138238649Y-77983445D01*
X138238649Y-78025000D01*
X138337499Y-78123850D01*
X138563355Y-77897994D01*
X138556797Y-77895000D01*
X138550319Y-77888968D01*
X138337500Y-77676149D01*
X138238649Y-77775000D01*
X138238649Y-77816554D01*
X138218964Y-77883593D01*
X138206566Y-77898978D01*
X137793433Y-77898978D01*
X137793433Y-77896477D01*
X137764185Y-77842914D01*
X137761351Y-77816556D01*
X137761351Y-77775000D01*
X137662500Y-77676149D01*
X137563649Y-77775000D01*
X137563649Y-77816554D01*
X137543964Y-77883593D01*
X137531566Y-77898978D01*
X137118433Y-77898978D01*
X137118433Y-77896477D01*
X137089185Y-77842914D01*
X137086351Y-77816556D01*
X137086351Y-77775000D01*
X136987500Y-77676149D01*
X136774681Y-77888968D01*
X136760409Y-77896760D01*
X136570351Y-77896760D01*
X136583011Y-77878055D01*
X136588103Y-77875874D01*
X136587733Y-77875597D01*
X136563316Y-77810133D01*
X136563000Y-77801287D01*
X136563000Y-77675315D01*
X136566460Y-77675315D01*
X136574675Y-77622104D01*
X136599248Y-77587101D01*
X136765632Y-77420717D01*
X136903125Y-77420717D01*
X136903125Y-77454283D01*
X136915970Y-77485295D01*
X136939705Y-77509030D01*
X136970717Y-77521875D01*
X137004283Y-77521875D01*
X137035295Y-77509030D01*
X137059030Y-77485295D01*
X137071875Y-77454283D01*
X137071875Y-77420717D01*
X137059030Y-77389705D01*
X137035295Y-77365970D01*
X137004283Y-77353125D01*
X136970717Y-77353125D01*
X136939705Y-77365970D01*
X136915970Y-77389705D01*
X136903125Y-77420717D01*
X136765632Y-77420717D01*
X136899818Y-77286531D01*
X136961141Y-77253046D01*
X137030833Y-77258030D01*
G37*
%TD.AperFunction*%
%TA.AperFunction,Conductor*%
G36*
X131005834Y-74847692D02*
G01*
X131050181Y-74876193D01*
X131059455Y-74885467D01*
X131059459Y-74885470D01*
X131203794Y-74974498D01*
X131203797Y-74974499D01*
X131203803Y-74974503D01*
X131364792Y-75027849D01*
X131464155Y-75038000D01*
X131708000Y-75037999D01*
X131775039Y-75057683D01*
X131820794Y-75110487D01*
X131832000Y-75161999D01*
X131832000Y-75838500D01*
X131812315Y-75905539D01*
X131759511Y-75951294D01*
X131708000Y-75962500D01*
X131662500Y-75962500D01*
X131662500Y-77038500D01*
X131642815Y-77105539D01*
X131590011Y-77151294D01*
X131538500Y-77162500D01*
X130470862Y-77162500D01*
X130403823Y-77142815D01*
X130397227Y-77137500D01*
X129812000Y-77137500D01*
X129744961Y-77117815D01*
X129699206Y-77065011D01*
X129688000Y-77013500D01*
X129688000Y-76637500D01*
X130112500Y-76637500D01*
X130804138Y-76637500D01*
X130871177Y-76657185D01*
X130877773Y-76662500D01*
X131162500Y-76662500D01*
X131162500Y-75962500D01*
X131162499Y-75962499D01*
X131114193Y-75962500D01*
X131114175Y-75962501D01*
X131014892Y-75972644D01*
X130854018Y-76025952D01*
X130854007Y-76025957D01*
X130719283Y-76109057D01*
X130651891Y-76127498D01*
X130585227Y-76106576D01*
X130566505Y-76091200D01*
X130565232Y-76089927D01*
X130565228Y-76089924D01*
X130420992Y-76000957D01*
X130420981Y-76000952D01*
X130260106Y-75947644D01*
X130160822Y-75937500D01*
X130112500Y-75937500D01*
X130112500Y-76637500D01*
X129688000Y-76637500D01*
X129688000Y-75886861D01*
X129707685Y-75819822D01*
X129724315Y-75799184D01*
X130457113Y-75066385D01*
X130518434Y-75032902D01*
X130532188Y-75030710D01*
X130560208Y-75027849D01*
X130721197Y-74974503D01*
X130865544Y-74885468D01*
X130874819Y-74876193D01*
X130936142Y-74842708D01*
X131005834Y-74847692D01*
G37*
%TD.AperFunction*%
%TA.AperFunction,Conductor*%
G36*
X144928726Y-74142685D02*
G01*
X144974481Y-74195489D01*
X144984425Y-74264647D01*
X144955400Y-74328203D01*
X144949368Y-74334681D01*
X144138160Y-75145888D01*
X144076837Y-75179373D01*
X144007145Y-75174389D01*
X143951212Y-75132517D01*
X143926795Y-75067053D01*
X143932773Y-75019202D01*
X143952356Y-74960105D01*
X143962499Y-74860822D01*
X143962500Y-74860809D01*
X143962500Y-74812500D01*
X143262500Y-74812500D01*
X143262500Y-75537499D01*
X143285808Y-75537499D01*
X143285822Y-75537498D01*
X143385105Y-75527356D01*
X143444202Y-75507773D01*
X143514031Y-75505371D01*
X143574073Y-75541102D01*
X143605266Y-75603623D01*
X143597706Y-75673082D01*
X143570888Y-75713160D01*
X143338367Y-75945682D01*
X143277044Y-75979167D01*
X143250686Y-75982001D01*
X141486833Y-75982001D01*
X141419794Y-75962316D01*
X141374039Y-75909512D01*
X141363613Y-75871884D01*
X141347869Y-75732150D01*
X141347867Y-75732142D01*
X141337654Y-75702953D01*
X141334093Y-75633174D01*
X141368822Y-75572547D01*
X141430816Y-75540320D01*
X141454696Y-75537999D01*
X141735838Y-75537999D01*
X141735844Y-75537999D01*
X141735852Y-75537998D01*
X141735855Y-75537998D01*
X141790260Y-75532440D01*
X141835208Y-75527849D01*
X141996197Y-75474503D01*
X142140544Y-75385468D01*
X142150168Y-75375843D01*
X142211487Y-75342356D01*
X142281179Y-75347335D01*
X142325534Y-75375839D01*
X142334767Y-75385072D01*
X142334771Y-75385075D01*
X142479007Y-75474042D01*
X142479018Y-75474047D01*
X142639893Y-75527355D01*
X142739183Y-75537499D01*
X142762500Y-75537498D01*
X142762500Y-74436500D01*
X142782185Y-74369461D01*
X142834989Y-74323706D01*
X142886500Y-74312500D01*
X143962499Y-74312500D01*
X143962499Y-74264192D01*
X143962497Y-74264170D01*
X143962031Y-74259599D01*
X143974802Y-74190907D01*
X144022683Y-74140023D01*
X144085389Y-74123000D01*
X144861687Y-74123000D01*
X144928726Y-74142685D01*
G37*
%TD.AperFunction*%
%TA.AperFunction,Conductor*%
G36*
X137455831Y-68262337D02*
G01*
X137500180Y-68290838D01*
X137602311Y-68392969D01*
X137602313Y-68392970D01*
X137602315Y-68392972D01*
X137747894Y-68480978D01*
X137910304Y-68531586D01*
X137980884Y-68538000D01*
X138208000Y-68538000D01*
X138275039Y-68557685D01*
X138320794Y-68610489D01*
X138332000Y-68662000D01*
X138332000Y-71998000D01*
X138312315Y-72065039D01*
X138259511Y-72110794D01*
X138208000Y-72122000D01*
X138168724Y-72122000D01*
X138094903Y-72141779D01*
X138094904Y-72141780D01*
X138021082Y-72161560D01*
X137979610Y-72185505D01*
X137939614Y-72208597D01*
X137914164Y-72223290D01*
X137888715Y-72237983D01*
X137888712Y-72237985D01*
X137840907Y-72285790D01*
X137779584Y-72319274D01*
X137709892Y-72314289D01*
X137653959Y-72272418D01*
X137629543Y-72206953D01*
X137629869Y-72185505D01*
X137637499Y-72110821D01*
X137637500Y-72110809D01*
X137637500Y-72087500D01*
X136912500Y-72087500D01*
X136912500Y-72787499D01*
X136960808Y-72787499D01*
X136960820Y-72787498D01*
X137035506Y-72779868D01*
X137104199Y-72792637D01*
X137155084Y-72840517D01*
X137172005Y-72908307D01*
X137149590Y-72974484D01*
X137135790Y-72990907D01*
X136918480Y-73208218D01*
X136554681Y-73572017D01*
X136493358Y-73605502D01*
X136423666Y-73600518D01*
X136367733Y-73558646D01*
X136343316Y-73493182D01*
X136343000Y-73484336D01*
X136343000Y-72908361D01*
X136362685Y-72841322D01*
X136379319Y-72820680D01*
X136412500Y-72787499D01*
X136412500Y-71711500D01*
X136432185Y-71644461D01*
X136484989Y-71598706D01*
X136536500Y-71587500D01*
X137637499Y-71587500D01*
X137637499Y-71564192D01*
X137637498Y-71564177D01*
X137627355Y-71464892D01*
X137574047Y-71304018D01*
X137574042Y-71304007D01*
X137485075Y-71159771D01*
X137485072Y-71159767D01*
X137475839Y-71150534D01*
X137442354Y-71089211D01*
X137447338Y-71019519D01*
X137475843Y-70975168D01*
X137485468Y-70965544D01*
X137574503Y-70821197D01*
X137627849Y-70660208D01*
X137638000Y-70560845D01*
X137637999Y-70014156D01*
X137635409Y-69988805D01*
X137627849Y-69914792D01*
X137627848Y-69914789D01*
X137606435Y-69850169D01*
X137574503Y-69753803D01*
X137574499Y-69753797D01*
X137574498Y-69753794D01*
X137485470Y-69609459D01*
X137485467Y-69609455D01*
X137365543Y-69489531D01*
X137301902Y-69450276D01*
X137255178Y-69398327D01*
X137243000Y-69344738D01*
X137243000Y-68424019D01*
X137262685Y-68356980D01*
X137279318Y-68336339D01*
X137324819Y-68290837D01*
X137386140Y-68257353D01*
X137455831Y-68262337D01*
G37*
%TD.AperFunction*%
%TA.AperFunction,Conductor*%
G36*
X144880832Y-68262337D02*
G01*
X144925180Y-68290838D01*
X145027311Y-68392969D01*
X145027313Y-68392970D01*
X145027315Y-68392972D01*
X145172894Y-68480978D01*
X145335304Y-68531586D01*
X145394223Y-68536940D01*
X145459204Y-68562609D01*
X145499993Y-68619336D01*
X145507000Y-68660430D01*
X145507000Y-72540931D01*
X145487315Y-72607970D01*
X145470681Y-72628612D01*
X145173612Y-72925681D01*
X145112289Y-72959166D01*
X145085931Y-72962000D01*
X144807667Y-72962000D01*
X144740628Y-72942315D01*
X144694873Y-72889511D01*
X144684929Y-72820353D01*
X144713954Y-72756797D01*
X144719986Y-72750319D01*
X144720072Y-72750232D01*
X144720075Y-72750228D01*
X144809042Y-72605992D01*
X144809047Y-72605981D01*
X144862355Y-72445106D01*
X144872499Y-72345822D01*
X144872500Y-72345809D01*
X144872500Y-72322500D01*
X143771500Y-72322500D01*
X143704461Y-72302815D01*
X143658706Y-72250011D01*
X143647500Y-72198500D01*
X143647500Y-71946500D01*
X143667185Y-71879461D01*
X143719989Y-71833706D01*
X143771500Y-71822500D01*
X144872499Y-71822500D01*
X144872499Y-71799192D01*
X144872498Y-71799177D01*
X144862355Y-71699892D01*
X144809047Y-71539018D01*
X144809042Y-71539007D01*
X144720075Y-71394771D01*
X144720072Y-71394767D01*
X144710839Y-71385534D01*
X144677354Y-71324211D01*
X144682338Y-71254519D01*
X144710843Y-71210168D01*
X144720468Y-71200544D01*
X144809503Y-71056197D01*
X144862849Y-70895208D01*
X144873000Y-70795845D01*
X144872999Y-70249156D01*
X144866908Y-70189532D01*
X144862849Y-70149792D01*
X144862848Y-70149789D01*
X144828837Y-70047150D01*
X144809503Y-69988803D01*
X144809499Y-69988797D01*
X144809498Y-69988794D01*
X144720470Y-69844459D01*
X144720467Y-69844455D01*
X144629319Y-69753307D01*
X144595834Y-69691984D01*
X144593000Y-69665626D01*
X144593000Y-68495967D01*
X144612685Y-68428928D01*
X144643120Y-68399317D01*
X144641776Y-68397602D01*
X144647679Y-68392976D01*
X144647679Y-68392975D01*
X144647685Y-68392972D01*
X144749821Y-68290835D01*
X144811140Y-68257353D01*
X144880832Y-68262337D01*
G37*
%TD.AperFunction*%
%TA.AperFunction,Conductor*%
G36*
X140940834Y-68262338D02*
G01*
X140985181Y-68290839D01*
X141087311Y-68392969D01*
X141087313Y-68392970D01*
X141087315Y-68392972D01*
X141232894Y-68480978D01*
X141395304Y-68531586D01*
X141465884Y-68538000D01*
X141465887Y-68538000D01*
X141958000Y-68538000D01*
X142025039Y-68557685D01*
X142070794Y-68610489D01*
X142082000Y-68662000D01*
X142082000Y-71760931D01*
X142062315Y-71827970D01*
X142045681Y-71848612D01*
X141448612Y-72445681D01*
X141387289Y-72479166D01*
X141360931Y-72482000D01*
X141220901Y-72482000D01*
X141153862Y-72462315D01*
X141108107Y-72409511D01*
X141098136Y-72349012D01*
X141097339Y-72348972D01*
X141097500Y-72345809D01*
X141097500Y-72322500D01*
X139996500Y-72322500D01*
X139929461Y-72302815D01*
X139883706Y-72250011D01*
X139872500Y-72198500D01*
X139872500Y-71946500D01*
X139892185Y-71879461D01*
X139944989Y-71833706D01*
X139996500Y-71822500D01*
X141097499Y-71822500D01*
X141097499Y-71799192D01*
X141097498Y-71799177D01*
X141087355Y-71699892D01*
X141034047Y-71539018D01*
X141034042Y-71539007D01*
X140945075Y-71394771D01*
X140945072Y-71394767D01*
X140935839Y-71385534D01*
X140902354Y-71324211D01*
X140907338Y-71254519D01*
X140935843Y-71210168D01*
X140945468Y-71200544D01*
X141034503Y-71056197D01*
X141087849Y-70895208D01*
X141098000Y-70795845D01*
X141097999Y-70249156D01*
X141091908Y-70189532D01*
X141087849Y-70149792D01*
X141087848Y-70149789D01*
X141053837Y-70047150D01*
X141034503Y-69988803D01*
X141034499Y-69988797D01*
X141034498Y-69988794D01*
X140945470Y-69844459D01*
X140945467Y-69844455D01*
X140825543Y-69724531D01*
X140761902Y-69685276D01*
X140715178Y-69633327D01*
X140703000Y-69579738D01*
X140703000Y-68449020D01*
X140722685Y-68381981D01*
X140739319Y-68361339D01*
X140809819Y-68290839D01*
X140871142Y-68257354D01*
X140940834Y-68262338D01*
G37*
%TD.AperFunction*%
%TA.AperFunction,Conductor*%
G36*
X133943333Y-67080130D02*
G01*
X133987680Y-67108631D01*
X134200681Y-67321632D01*
X134234166Y-67382955D01*
X134237000Y-67409313D01*
X134237000Y-69013500D01*
X134217315Y-69080539D01*
X134164511Y-69126294D01*
X134113000Y-69137500D01*
X133087501Y-69137500D01*
X133087501Y-69160822D01*
X133097644Y-69260107D01*
X133150952Y-69420981D01*
X133150957Y-69420992D01*
X133239924Y-69565228D01*
X133239927Y-69565232D01*
X133249160Y-69574465D01*
X133282645Y-69635788D01*
X133277661Y-69705480D01*
X133249163Y-69749824D01*
X133239533Y-69759453D01*
X133239529Y-69759459D01*
X133150501Y-69903794D01*
X133150496Y-69903805D01*
X133097151Y-70064790D01*
X133087000Y-70164147D01*
X133087000Y-70710837D01*
X133087001Y-70710855D01*
X133097150Y-70810207D01*
X133097151Y-70810210D01*
X133150496Y-70971194D01*
X133150501Y-70971205D01*
X133239529Y-71115540D01*
X133239532Y-71115544D01*
X133344061Y-71220073D01*
X133377546Y-71281396D01*
X133372562Y-71351088D01*
X133361374Y-71373725D01*
X133336713Y-71412972D01*
X133336709Y-71412981D01*
X133291002Y-71543603D01*
X133250280Y-71600379D01*
X133185328Y-71626126D01*
X133116766Y-71612670D01*
X133086280Y-71590329D01*
X132674318Y-71178367D01*
X132640833Y-71117044D01*
X132637999Y-71090686D01*
X132637999Y-70714162D01*
X132637998Y-70714144D01*
X132627849Y-70614792D01*
X132627848Y-70614789D01*
X132609973Y-70560845D01*
X132574503Y-70453803D01*
X132574499Y-70453797D01*
X132574498Y-70453794D01*
X132485470Y-70309459D01*
X132485467Y-70309455D01*
X132365544Y-70189532D01*
X132365540Y-70189529D01*
X132221205Y-70100501D01*
X132221199Y-70100498D01*
X132221197Y-70100497D01*
X132221194Y-70100496D01*
X132060209Y-70047151D01*
X131960846Y-70037000D01*
X131364162Y-70037000D01*
X131364144Y-70037001D01*
X131264792Y-70047150D01*
X131264789Y-70047151D01*
X131176671Y-70076351D01*
X131106842Y-70078753D01*
X131046801Y-70043021D01*
X131015608Y-69980500D01*
X131023169Y-69911041D01*
X131049984Y-69870965D01*
X132306772Y-68614177D01*
X133087500Y-68614177D01*
X133087500Y-68637500D01*
X133812500Y-68637500D01*
X133812500Y-67937500D01*
X133812499Y-67937499D01*
X133764193Y-67937500D01*
X133764175Y-67937501D01*
X133664892Y-67947644D01*
X133504018Y-68000952D01*
X133504007Y-68000957D01*
X133359771Y-68089924D01*
X133359767Y-68089927D01*
X133239927Y-68209767D01*
X133239924Y-68209771D01*
X133150957Y-68354007D01*
X133150952Y-68354018D01*
X133097644Y-68514893D01*
X133087500Y-68614177D01*
X132306772Y-68614177D01*
X133812322Y-67108628D01*
X133873641Y-67075146D01*
X133943333Y-67080130D01*
G37*
%TD.AperFunction*%
%TA.AperFunction,Conductor*%
G36*
X153004418Y-60300816D02*
G01*
X153233020Y-60317165D01*
X153250529Y-60319683D01*
X153470144Y-60367458D01*
X153487103Y-60372437D01*
X153697694Y-60450983D01*
X153713777Y-60458327D01*
X153911036Y-60566040D01*
X153925919Y-60575605D01*
X154105836Y-60710289D01*
X154119207Y-60721875D01*
X154278124Y-60880792D01*
X154289710Y-60894163D01*
X154424394Y-61074080D01*
X154433959Y-61088963D01*
X154541669Y-61286217D01*
X154549019Y-61302311D01*
X154627559Y-61512887D01*
X154632543Y-61529862D01*
X154680316Y-61749470D01*
X154682834Y-61766982D01*
X154699184Y-61995581D01*
X154699500Y-62004427D01*
X154699500Y-92995572D01*
X154699184Y-93004418D01*
X154682834Y-93233017D01*
X154680316Y-93250529D01*
X154632543Y-93470137D01*
X154627559Y-93487112D01*
X154549019Y-93697688D01*
X154541669Y-93713782D01*
X154433959Y-93911036D01*
X154424394Y-93925919D01*
X154289710Y-94105836D01*
X154278124Y-94119207D01*
X154119207Y-94278124D01*
X154105836Y-94289710D01*
X153925919Y-94424394D01*
X153911036Y-94433959D01*
X153713782Y-94541669D01*
X153697688Y-94549019D01*
X153487112Y-94627559D01*
X153470137Y-94632543D01*
X153250529Y-94680316D01*
X153233017Y-94682834D01*
X153004418Y-94699184D01*
X152995572Y-94699500D01*
X122004428Y-94699500D01*
X121995582Y-94699184D01*
X121766982Y-94682834D01*
X121749470Y-94680316D01*
X121529862Y-94632543D01*
X121512887Y-94627559D01*
X121302311Y-94549019D01*
X121286217Y-94541669D01*
X121088963Y-94433959D01*
X121074080Y-94424394D01*
X120894163Y-94289710D01*
X120880792Y-94278124D01*
X120721875Y-94119207D01*
X120710289Y-94105836D01*
X120575605Y-93925919D01*
X120566040Y-93911036D01*
X120458330Y-93713782D01*
X120450983Y-93697694D01*
X120372437Y-93487103D01*
X120367458Y-93470144D01*
X120319683Y-93250529D01*
X120317165Y-93233017D01*
X120300816Y-93004418D01*
X120300500Y-92995572D01*
X120300500Y-87548655D01*
X129146500Y-87548655D01*
X129146500Y-88362500D01*
X130114018Y-88362500D01*
X130103389Y-88380909D01*
X130062500Y-88533509D01*
X130062500Y-88691491D01*
X130103389Y-88844091D01*
X130114018Y-88862500D01*
X129146500Y-88862500D01*
X129146500Y-89676344D01*
X129152901Y-89735872D01*
X129152903Y-89735879D01*
X129203145Y-89870586D01*
X129203149Y-89870593D01*
X129289309Y-89985687D01*
X129289312Y-89985690D01*
X129404406Y-90071850D01*
X129404413Y-90071854D01*
X129539120Y-90122096D01*
X129539127Y-90122098D01*
X129598655Y-90128499D01*
X129598672Y-90128500D01*
X130412500Y-90128500D01*
X130412500Y-89160982D01*
X130430909Y-89171611D01*
X130583509Y-89212500D01*
X130741491Y-89212500D01*
X130894091Y-89171611D01*
X130912500Y-89160982D01*
X130912500Y-90128500D01*
X131726328Y-90128500D01*
X131726344Y-90128499D01*
X131785872Y-90122098D01*
X131785879Y-90122096D01*
X131920586Y-90071854D01*
X131920593Y-90071850D01*
X132035687Y-89985690D01*
X132035690Y-89985687D01*
X132121850Y-89870593D01*
X132121854Y-89870586D01*
X132172096Y-89735879D01*
X132172098Y-89735872D01*
X132178499Y-89676344D01*
X132178500Y-89676327D01*
X132178500Y-88862500D01*
X131210982Y-88862500D01*
X131221611Y-88844091D01*
X131262500Y-88691491D01*
X131262500Y-88533509D01*
X131221611Y-88380909D01*
X131210982Y-88362500D01*
X132178500Y-88362500D01*
X132178500Y-87548672D01*
X132178499Y-87548655D01*
X132172098Y-87489127D01*
X132172096Y-87489120D01*
X132121854Y-87354413D01*
X132121850Y-87354406D01*
X132035690Y-87239312D01*
X132035687Y-87239309D01*
X131920593Y-87153149D01*
X131920586Y-87153145D01*
X131785879Y-87102903D01*
X131785872Y-87102901D01*
X131726344Y-87096500D01*
X130912500Y-87096500D01*
X130912500Y-88064017D01*
X130894091Y-88053389D01*
X130741491Y-88012500D01*
X130583509Y-88012500D01*
X130430909Y-88053389D01*
X130412500Y-88064017D01*
X130412500Y-87096500D01*
X129598655Y-87096500D01*
X129539127Y-87102901D01*
X129539120Y-87102903D01*
X129404413Y-87153145D01*
X129404406Y-87153149D01*
X129289312Y-87239309D01*
X129289309Y-87239312D01*
X129203149Y-87354406D01*
X129203145Y-87354413D01*
X129152903Y-87489120D01*
X129152901Y-87489127D01*
X129146500Y-87548655D01*
X120300500Y-87548655D01*
X120300500Y-73875515D01*
X124789500Y-73875515D01*
X124789500Y-75906426D01*
X124804390Y-75961999D01*
X124804391Y-75961999D01*
X124804391Y-75962000D01*
X124829060Y-76054065D01*
X124891356Y-76161964D01*
X124905485Y-76186436D01*
X124905487Y-76186438D01*
X125173210Y-76454161D01*
X125206695Y-76515484D01*
X125205304Y-76573934D01*
X125164939Y-76724583D01*
X125164936Y-76724596D01*
X125144341Y-76959999D01*
X125144341Y-76960000D01*
X125164936Y-77195403D01*
X125164938Y-77195413D01*
X125226094Y-77423655D01*
X125226096Y-77423659D01*
X125226097Y-77423663D01*
X125283426Y-77546605D01*
X125325965Y-77637830D01*
X125325967Y-77637834D01*
X125434281Y-77792521D01*
X125461501Y-77831396D01*
X125461506Y-77831402D01*
X125628597Y-77998493D01*
X125628603Y-77998498D01*
X125814158Y-78128425D01*
X125857783Y-78183002D01*
X125864977Y-78252500D01*
X125833454Y-78314855D01*
X125814158Y-78331575D01*
X125628597Y-78461505D01*
X125461505Y-78628597D01*
X125325965Y-78822169D01*
X125325964Y-78822171D01*
X125226098Y-79036335D01*
X125226094Y-79036344D01*
X125164938Y-79264586D01*
X125164936Y-79264596D01*
X125144341Y-79499999D01*
X125144341Y-79500000D01*
X125164936Y-79735403D01*
X125164938Y-79735413D01*
X125226094Y-79963655D01*
X125226096Y-79963659D01*
X125226097Y-79963663D01*
X125319796Y-80164600D01*
X125325965Y-80177830D01*
X125325967Y-80177834D01*
X125461501Y-80371395D01*
X125461506Y-80371402D01*
X125628597Y-80538493D01*
X125628603Y-80538498D01*
X125814158Y-80668425D01*
X125857783Y-80723002D01*
X125864977Y-80792500D01*
X125833454Y-80854855D01*
X125814158Y-80871575D01*
X125628597Y-81001505D01*
X125461505Y-81168597D01*
X125325965Y-81362169D01*
X125325964Y-81362171D01*
X125226098Y-81576335D01*
X125226094Y-81576344D01*
X125164938Y-81804586D01*
X125164936Y-81804596D01*
X125144341Y-82039999D01*
X125144341Y-82040000D01*
X125164936Y-82275403D01*
X125164938Y-82275413D01*
X125226094Y-82503655D01*
X125226096Y-82503659D01*
X125226097Y-82503663D01*
X125275718Y-82610075D01*
X125325965Y-82717830D01*
X125325967Y-82717834D01*
X125398880Y-82821964D01*
X125461501Y-82911396D01*
X125461506Y-82911402D01*
X125583818Y-83033714D01*
X125617303Y-83095037D01*
X125612319Y-83164729D01*
X125570447Y-83220662D01*
X125539471Y-83237577D01*
X125407912Y-83286646D01*
X125407906Y-83286649D01*
X125292812Y-83372809D01*
X125292809Y-83372812D01*
X125206649Y-83487906D01*
X125206645Y-83487913D01*
X125156403Y-83622620D01*
X125156401Y-83622627D01*
X125150000Y-83682155D01*
X125150000Y-84330000D01*
X126066988Y-84330000D01*
X126034075Y-84387007D01*
X126000000Y-84514174D01*
X126000000Y-84645826D01*
X126034075Y-84772993D01*
X126066988Y-84830000D01*
X125150000Y-84830000D01*
X125150000Y-85477844D01*
X125156401Y-85537372D01*
X125156403Y-85537379D01*
X125206645Y-85672086D01*
X125206649Y-85672093D01*
X125292809Y-85787187D01*
X125292812Y-85787190D01*
X125407906Y-85873350D01*
X125407913Y-85873354D01*
X125542620Y-85923596D01*
X125542627Y-85923598D01*
X125602155Y-85929999D01*
X125602172Y-85930000D01*
X126250000Y-85930000D01*
X126250000Y-85013012D01*
X126307007Y-85045925D01*
X126434174Y-85080000D01*
X126565826Y-85080000D01*
X126692993Y-85045925D01*
X126750000Y-85013012D01*
X126750000Y-85930000D01*
X127397828Y-85930000D01*
X127397844Y-85929999D01*
X127457372Y-85923598D01*
X127457379Y-85923596D01*
X127592086Y-85873354D01*
X127592093Y-85873350D01*
X127707187Y-85787190D01*
X127707190Y-85787187D01*
X127793350Y-85672093D01*
X127793354Y-85672086D01*
X127843596Y-85537379D01*
X127843598Y-85537372D01*
X127849999Y-85477844D01*
X127850000Y-85477827D01*
X127850000Y-84830000D01*
X126933012Y-84830000D01*
X126965925Y-84772993D01*
X127000000Y-84645826D01*
X127000000Y-84514174D01*
X126965925Y-84387007D01*
X126933012Y-84330000D01*
X127850000Y-84330000D01*
X127850000Y-83682172D01*
X127849999Y-83682155D01*
X127843598Y-83622627D01*
X127843596Y-83622620D01*
X127793354Y-83487913D01*
X127793350Y-83487906D01*
X127707190Y-83372812D01*
X127707187Y-83372809D01*
X127592093Y-83286649D01*
X127592088Y-83286646D01*
X127460528Y-83237577D01*
X127404595Y-83195705D01*
X127380178Y-83130241D01*
X127395030Y-83061968D01*
X127416175Y-83033720D01*
X127538495Y-82911401D01*
X127674035Y-82717830D01*
X127773903Y-82503663D01*
X127835063Y-82275408D01*
X127851650Y-82085822D01*
X128887501Y-82085822D01*
X128897644Y-82185107D01*
X128950952Y-82345981D01*
X128950957Y-82345992D01*
X129039924Y-82490228D01*
X129039927Y-82490232D01*
X129159767Y-82610072D01*
X129159771Y-82610075D01*
X129304007Y-82699042D01*
X129304018Y-82699047D01*
X129464893Y-82752355D01*
X129564183Y-82762499D01*
X130112500Y-82762499D01*
X130160808Y-82762499D01*
X130160822Y-82762498D01*
X130260107Y-82752355D01*
X130420981Y-82699047D01*
X130420992Y-82699042D01*
X130565228Y-82610075D01*
X130565232Y-82610072D01*
X130674819Y-82500486D01*
X130736142Y-82467001D01*
X130805834Y-82471985D01*
X130850181Y-82500486D01*
X130959767Y-82610072D01*
X130959771Y-82610075D01*
X131104007Y-82699042D01*
X131104018Y-82699047D01*
X131264893Y-82752355D01*
X131364183Y-82762499D01*
X131912500Y-82762499D01*
X131960808Y-82762499D01*
X131960822Y-82762498D01*
X132060107Y-82752355D01*
X132220981Y-82699047D01*
X132220992Y-82699042D01*
X132365228Y-82610075D01*
X132365232Y-82610072D01*
X132485072Y-82490232D01*
X132485075Y-82490228D01*
X132574042Y-82345992D01*
X132574047Y-82345981D01*
X132627355Y-82185106D01*
X132637499Y-82085822D01*
X132637500Y-82085809D01*
X132637500Y-82062500D01*
X131912500Y-82062500D01*
X131912500Y-82762499D01*
X131364183Y-82762499D01*
X131412499Y-82762498D01*
X131412500Y-82762498D01*
X131412500Y-82062500D01*
X130112500Y-82062500D01*
X130112500Y-82762499D01*
X129564183Y-82762499D01*
X129612499Y-82762498D01*
X129612500Y-82762498D01*
X129612500Y-82062500D01*
X128887501Y-82062500D01*
X128887501Y-82085822D01*
X127851650Y-82085822D01*
X127855659Y-82040000D01*
X127835063Y-81804592D01*
X127773903Y-81576337D01*
X127674035Y-81362171D01*
X127657050Y-81337913D01*
X127538494Y-81168597D01*
X127371402Y-81001506D01*
X127371401Y-81001505D01*
X127254313Y-80919519D01*
X127185839Y-80871573D01*
X127142216Y-80816997D01*
X127135023Y-80747498D01*
X127166545Y-80685144D01*
X127185855Y-80668415D01*
X127190148Y-80665410D01*
X127256359Y-80643096D01*
X127261249Y-80643000D01*
X128810192Y-80643000D01*
X128877231Y-80662685D01*
X128922986Y-80715489D01*
X128927895Y-80727989D01*
X128934360Y-80747498D01*
X128950496Y-80796194D01*
X128950501Y-80796205D01*
X129039529Y-80940540D01*
X129039532Y-80940544D01*
X129049160Y-80950172D01*
X129082645Y-81011495D01*
X129077661Y-81081187D01*
X129049163Y-81125531D01*
X129039928Y-81134765D01*
X129039924Y-81134771D01*
X128950957Y-81279007D01*
X128950952Y-81279018D01*
X128897644Y-81439893D01*
X128887500Y-81539177D01*
X128887500Y-81562500D01*
X132637499Y-81562500D01*
X132637499Y-81539192D01*
X132637498Y-81539177D01*
X132627355Y-81439892D01*
X132574047Y-81279018D01*
X132574042Y-81279007D01*
X132485075Y-81134771D01*
X132485072Y-81134767D01*
X132475839Y-81125534D01*
X132442354Y-81064211D01*
X132447338Y-80994519D01*
X132475843Y-80950168D01*
X132485468Y-80940544D01*
X132574503Y-80796197D01*
X132627849Y-80635208D01*
X132630710Y-80607191D01*
X132657103Y-80542501D01*
X132666369Y-80532129D01*
X132997583Y-80200916D01*
X133058904Y-80167434D01*
X133085262Y-80164600D01*
X134061155Y-80164600D01*
X134108607Y-80174039D01*
X134156274Y-80193783D01*
X134156275Y-80193784D01*
X134190887Y-80208120D01*
X134239835Y-80228396D01*
X134413804Y-80263000D01*
X134413808Y-80263001D01*
X134413809Y-80263001D01*
X134413810Y-80263001D01*
X134873115Y-80263001D01*
X134940154Y-80282686D01*
X134985909Y-80335490D01*
X134992890Y-80354907D01*
X135003390Y-80394092D01*
X135082381Y-80530907D01*
X135082383Y-80530910D01*
X135194089Y-80642616D01*
X135194095Y-80642620D01*
X135286105Y-80695743D01*
X135334321Y-80746310D01*
X135347543Y-80814917D01*
X135321575Y-80879782D01*
X135311786Y-80890811D01*
X134242793Y-81959804D01*
X134233797Y-81967960D01*
X134232366Y-81969134D01*
X133463038Y-82738460D01*
X133463037Y-82738461D01*
X133423564Y-82797539D01*
X133423563Y-82797540D01*
X133364490Y-82885947D01*
X133364483Y-82885959D01*
X133331881Y-82964670D01*
X133331881Y-82964671D01*
X133303283Y-83033713D01*
X133296605Y-83049834D01*
X133264714Y-83210166D01*
X133262626Y-83220662D01*
X133262000Y-83223810D01*
X133262000Y-87330105D01*
X133242315Y-87397144D01*
X133218532Y-87424395D01*
X133086857Y-87536857D01*
X132931832Y-87718367D01*
X132807108Y-87921899D01*
X132715761Y-88142431D01*
X132660038Y-88374536D01*
X132641311Y-88612500D01*
X132660038Y-88850463D01*
X132715761Y-89082568D01*
X132807108Y-89303100D01*
X132807110Y-89303104D01*
X132807111Y-89303105D01*
X132931832Y-89506632D01*
X133086857Y-89688143D01*
X133268368Y-89843168D01*
X133471895Y-89967889D01*
X133471897Y-89967889D01*
X133471899Y-89967891D01*
X133515732Y-89986047D01*
X133692427Y-90059237D01*
X133924534Y-90114961D01*
X134162500Y-90133689D01*
X134400466Y-90114961D01*
X134632573Y-90059237D01*
X134853105Y-89967889D01*
X135056632Y-89843168D01*
X135238143Y-89688143D01*
X135393168Y-89506632D01*
X135517889Y-89303105D01*
X135609237Y-89082573D01*
X135664961Y-88850466D01*
X135683689Y-88612500D01*
X135664961Y-88374534D01*
X135609237Y-88142427D01*
X135517889Y-87921895D01*
X135393168Y-87718368D01*
X135238143Y-87536857D01*
X135106468Y-87424395D01*
X135068275Y-87365888D01*
X135063000Y-87330105D01*
X135063000Y-83736860D01*
X135082685Y-83669821D01*
X135099315Y-83649183D01*
X135371098Y-83377399D01*
X135380120Y-83369224D01*
X135381525Y-83368069D01*
X135381536Y-83368063D01*
X136397155Y-82352442D01*
X136458478Y-82318958D01*
X136528170Y-82323942D01*
X136584103Y-82365814D01*
X136608520Y-82431278D01*
X136599397Y-82487576D01*
X136565843Y-82568582D01*
X136565840Y-82568592D01*
X136537000Y-82713579D01*
X136537000Y-82713582D01*
X136537000Y-83911418D01*
X136537000Y-83911420D01*
X136536999Y-83911420D01*
X136565840Y-84056407D01*
X136565843Y-84056417D01*
X136622413Y-84192990D01*
X136622414Y-84192991D01*
X136622416Y-84192995D01*
X136626760Y-84199496D01*
X136635782Y-84212998D01*
X136635783Y-84213001D01*
X136704544Y-84315911D01*
X136704545Y-84315912D01*
X136704548Y-84315916D01*
X136725681Y-84337049D01*
X136759166Y-84398369D01*
X136762000Y-84424729D01*
X136762000Y-86972000D01*
X136742315Y-87039039D01*
X136689511Y-87084794D01*
X136638003Y-87096000D01*
X136598631Y-87096000D01*
X136598623Y-87096001D01*
X136539016Y-87102408D01*
X136404171Y-87152702D01*
X136404164Y-87152706D01*
X136288955Y-87238952D01*
X136288952Y-87238955D01*
X136202706Y-87354164D01*
X136202702Y-87354171D01*
X136152408Y-87489017D01*
X136147265Y-87536857D01*
X136146001Y-87548623D01*
X136146000Y-87548635D01*
X136146000Y-89676370D01*
X136146001Y-89676376D01*
X136152408Y-89735983D01*
X136202702Y-89870828D01*
X136202706Y-89870835D01*
X136288952Y-89986044D01*
X136288955Y-89986047D01*
X136404164Y-90072293D01*
X136404171Y-90072297D01*
X136539017Y-90122591D01*
X136539016Y-90122591D01*
X136545944Y-90123335D01*
X136598627Y-90129000D01*
X138726372Y-90128999D01*
X138785983Y-90122591D01*
X138920831Y-90072296D01*
X139036046Y-89986046D01*
X139122296Y-89870831D01*
X139172591Y-89735983D01*
X139179000Y-89676373D01*
X139178999Y-87548628D01*
X139172591Y-87489017D01*
X139122384Y-87354406D01*
X139122297Y-87354171D01*
X139122293Y-87354164D01*
X139036047Y-87238955D01*
X139036044Y-87238952D01*
X138920835Y-87152706D01*
X138920828Y-87152702D01*
X138785982Y-87102408D01*
X138785983Y-87102408D01*
X138726383Y-87096001D01*
X138726381Y-87096000D01*
X138726373Y-87096000D01*
X138726365Y-87096000D01*
X138687000Y-87096000D01*
X138619961Y-87076315D01*
X138574206Y-87023511D01*
X138563000Y-86972000D01*
X138563000Y-84123806D01*
X138562999Y-84123804D01*
X138528396Y-83949841D01*
X138528393Y-83949832D01*
X138460516Y-83785959D01*
X138460509Y-83785946D01*
X138361964Y-83638465D01*
X138361961Y-83638461D01*
X138236538Y-83513038D01*
X138236534Y-83513035D01*
X138093109Y-83417201D01*
X138048304Y-83363589D01*
X138038000Y-83314099D01*
X138038000Y-83149729D01*
X138057685Y-83082690D01*
X138074319Y-83062048D01*
X138270448Y-82865919D01*
X138270451Y-82865916D01*
X138291435Y-82834510D01*
X138345046Y-82789705D01*
X138414371Y-82780996D01*
X138477399Y-82811150D01*
X138482219Y-82815719D01*
X138950681Y-83284181D01*
X138984166Y-83345504D01*
X138987000Y-83371862D01*
X138987000Y-84686196D01*
X139021603Y-84860159D01*
X139021604Y-84860163D01*
X139021605Y-84860166D01*
X139044900Y-84916403D01*
X139089484Y-85024042D01*
X139089485Y-85024044D01*
X139148563Y-85112460D01*
X139188037Y-85171538D01*
X139188040Y-85171541D01*
X140225681Y-86209180D01*
X140259166Y-86270503D01*
X140262000Y-86296861D01*
X140262000Y-87330105D01*
X140242315Y-87397144D01*
X140218532Y-87424395D01*
X140086857Y-87536857D01*
X139931832Y-87718367D01*
X139807108Y-87921899D01*
X139715761Y-88142431D01*
X139660038Y-88374536D01*
X139641311Y-88612500D01*
X139660038Y-88850463D01*
X139715761Y-89082568D01*
X139807108Y-89303100D01*
X139807110Y-89303104D01*
X139807111Y-89303105D01*
X139931832Y-89506632D01*
X140086857Y-89688143D01*
X140268368Y-89843168D01*
X140471895Y-89967889D01*
X140471897Y-89967889D01*
X140471899Y-89967891D01*
X140515732Y-89986047D01*
X140692427Y-90059237D01*
X140924534Y-90114961D01*
X141162500Y-90133689D01*
X141400466Y-90114961D01*
X141632573Y-90059237D01*
X141853105Y-89967889D01*
X142056632Y-89843168D01*
X142238143Y-89688143D01*
X142393168Y-89506632D01*
X142517889Y-89303105D01*
X142609237Y-89082573D01*
X142664961Y-88850466D01*
X142683689Y-88612500D01*
X142664961Y-88374534D01*
X142609237Y-88142427D01*
X142517889Y-87921895D01*
X142393168Y-87718368D01*
X142238143Y-87536857D01*
X142106468Y-87424395D01*
X142068275Y-87365888D01*
X142063000Y-87330105D01*
X142063000Y-85783806D01*
X142062999Y-85783804D01*
X142028396Y-85609841D01*
X142028393Y-85609832D01*
X141960516Y-85445959D01*
X141960509Y-85445946D01*
X141861965Y-85298466D01*
X141861964Y-85298465D01*
X141736535Y-85173036D01*
X140824319Y-84260819D01*
X140790834Y-84199496D01*
X140788000Y-84173138D01*
X140788000Y-82858809D01*
X140782305Y-82830179D01*
X140788531Y-82760590D01*
X140831393Y-82705412D01*
X140897282Y-82682166D01*
X140916527Y-82682630D01*
X140964185Y-82687499D01*
X141512500Y-82687499D01*
X141560808Y-82687499D01*
X141560822Y-82687498D01*
X141660107Y-82677355D01*
X141820981Y-82624047D01*
X141820992Y-82624042D01*
X141965228Y-82535075D01*
X141965232Y-82535072D01*
X142085072Y-82415232D01*
X142085075Y-82415228D01*
X142174042Y-82270992D01*
X142174047Y-82270981D01*
X142227355Y-82110106D01*
X142237499Y-82010822D01*
X142237500Y-82010809D01*
X142237500Y-81987500D01*
X141512500Y-81987500D01*
X141512500Y-82687499D01*
X140964185Y-82687499D01*
X141012499Y-82687498D01*
X141012500Y-82687498D01*
X141012500Y-81987500D01*
X140252362Y-81987500D01*
X140185323Y-81967815D01*
X140164681Y-81951181D01*
X139999319Y-81785819D01*
X139965834Y-81724496D01*
X139963000Y-81698138D01*
X139963000Y-80811152D01*
X139982685Y-80744113D01*
X140025000Y-80703765D01*
X140130904Y-80642620D01*
X140130908Y-80642618D01*
X140134128Y-80639398D01*
X140195449Y-80605909D01*
X140265141Y-80610890D01*
X140321077Y-80652758D01*
X140339518Y-80688066D01*
X140344721Y-80703765D01*
X140350497Y-80721196D01*
X140350501Y-80721205D01*
X140439529Y-80865540D01*
X140439532Y-80865544D01*
X140449160Y-80875172D01*
X140482645Y-80936495D01*
X140477661Y-81006187D01*
X140449163Y-81050531D01*
X140439928Y-81059765D01*
X140439924Y-81059771D01*
X140350957Y-81204007D01*
X140350952Y-81204018D01*
X140297644Y-81364893D01*
X140287500Y-81464177D01*
X140287500Y-81487500D01*
X142237499Y-81487500D01*
X142237499Y-81464192D01*
X142237498Y-81464177D01*
X142227355Y-81364892D01*
X142174047Y-81204018D01*
X142174042Y-81204007D01*
X142085075Y-81059771D01*
X142085072Y-81059767D01*
X142075839Y-81050534D01*
X142042354Y-80989211D01*
X142047338Y-80919519D01*
X142075843Y-80875168D01*
X142085468Y-80865544D01*
X142174503Y-80721197D01*
X142227849Y-80560208D01*
X142238000Y-80460845D01*
X142237999Y-79914156D01*
X142227849Y-79814792D01*
X142174503Y-79653803D01*
X142174499Y-79653797D01*
X142174498Y-79653794D01*
X142085470Y-79509459D01*
X142085467Y-79509455D01*
X141965544Y-79389532D01*
X141965540Y-79389529D01*
X141949613Y-79379705D01*
X141902888Y-79327757D01*
X141893091Y-79298348D01*
X141891666Y-79291181D01*
X141897899Y-79221590D01*
X141940766Y-79166416D01*
X142006658Y-79143177D01*
X142013285Y-79143000D01*
X143790687Y-79143000D01*
X143857726Y-79162685D01*
X143878368Y-79179319D01*
X145862049Y-81163000D01*
X147835710Y-83136660D01*
X147869195Y-83197983D01*
X147867804Y-83256433D01*
X147827439Y-83407083D01*
X147827436Y-83407096D01*
X147806841Y-83642499D01*
X147806841Y-83642500D01*
X147827436Y-83877903D01*
X147827438Y-83877913D01*
X147888594Y-84106155D01*
X147888596Y-84106159D01*
X147888597Y-84106163D01*
X147966391Y-84272993D01*
X147988465Y-84320330D01*
X147988467Y-84320334D01*
X148061566Y-84424729D01*
X148124005Y-84513901D01*
X148291099Y-84680995D01*
X148298527Y-84686196D01*
X148484665Y-84816532D01*
X148484667Y-84816533D01*
X148484670Y-84816535D01*
X148698837Y-84916403D01*
X148927092Y-84977563D01*
X149115418Y-84994039D01*
X149162499Y-84998159D01*
X149162500Y-84998159D01*
X149162501Y-84998159D01*
X149201734Y-84994726D01*
X149397908Y-84977563D01*
X149626163Y-84916403D01*
X149840330Y-84816535D01*
X150033901Y-84680995D01*
X150200995Y-84513901D01*
X150336535Y-84320330D01*
X150436403Y-84106163D01*
X150497563Y-83877908D01*
X150518159Y-83642500D01*
X150497563Y-83407092D01*
X150444798Y-83210169D01*
X150436405Y-83178844D01*
X150436404Y-83178843D01*
X150436403Y-83178837D01*
X150336535Y-82964671D01*
X150336535Y-82964670D01*
X150336534Y-82964669D01*
X150200994Y-82771097D01*
X150033902Y-82604006D01*
X150033896Y-82604001D01*
X149848342Y-82474075D01*
X149804717Y-82419498D01*
X149797523Y-82350000D01*
X149829046Y-82287645D01*
X149848342Y-82270925D01*
X149870526Y-82255391D01*
X150033901Y-82140995D01*
X150200995Y-81973901D01*
X150336535Y-81780330D01*
X150436403Y-81566163D01*
X150497563Y-81337908D01*
X150518159Y-81102500D01*
X150497563Y-80867092D01*
X150437544Y-80643096D01*
X150436405Y-80638844D01*
X150436404Y-80638843D01*
X150436403Y-80638837D01*
X150336535Y-80424671D01*
X150315124Y-80394092D01*
X150200994Y-80231097D01*
X150033902Y-80064006D01*
X150033896Y-80064001D01*
X149848342Y-79934075D01*
X149804717Y-79879498D01*
X149797523Y-79810000D01*
X149829046Y-79747645D01*
X149848342Y-79730925D01*
X149916153Y-79683443D01*
X150033901Y-79600995D01*
X150200995Y-79433901D01*
X150336535Y-79240330D01*
X150436403Y-79026163D01*
X150497563Y-78797908D01*
X150518159Y-78562500D01*
X150497563Y-78327092D01*
X150439439Y-78110166D01*
X150436405Y-78098844D01*
X150436404Y-78098843D01*
X150436403Y-78098837D01*
X150336535Y-77884671D01*
X150335781Y-77883593D01*
X150200994Y-77691097D01*
X150033902Y-77524006D01*
X150033896Y-77524001D01*
X149848342Y-77394075D01*
X149804717Y-77339498D01*
X149797523Y-77270000D01*
X149829046Y-77207645D01*
X149848342Y-77190925D01*
X149917050Y-77142815D01*
X150033901Y-77060995D01*
X150200995Y-76893901D01*
X150336535Y-76700330D01*
X150436403Y-76486163D01*
X150497563Y-76257908D01*
X150518159Y-76022500D01*
X150516231Y-76000469D01*
X150509323Y-75921505D01*
X150497563Y-75787092D01*
X150436403Y-75558837D01*
X150336535Y-75344671D01*
X150326893Y-75330900D01*
X150200994Y-75151097D01*
X150033902Y-74984006D01*
X150033896Y-74984001D01*
X149848342Y-74854075D01*
X149804717Y-74799498D01*
X149797523Y-74730000D01*
X149829046Y-74667645D01*
X149848342Y-74650925D01*
X149870526Y-74635391D01*
X150033901Y-74520995D01*
X150200995Y-74353901D01*
X150336535Y-74160330D01*
X150436403Y-73946163D01*
X150497563Y-73717908D01*
X150518159Y-73482500D01*
X150497563Y-73247092D01*
X150436403Y-73018837D01*
X150336535Y-72804671D01*
X150324510Y-72787498D01*
X150200996Y-72611100D01*
X150182189Y-72592293D01*
X150079067Y-72489171D01*
X150045584Y-72427851D01*
X150050568Y-72358159D01*
X150092439Y-72302225D01*
X150123415Y-72285310D01*
X150254831Y-72236296D01*
X150370046Y-72150046D01*
X150456296Y-72034831D01*
X150506591Y-71899983D01*
X150513000Y-71840373D01*
X150512999Y-70044628D01*
X150506591Y-69985017D01*
X150504906Y-69980500D01*
X150456297Y-69850171D01*
X150456293Y-69850164D01*
X150370047Y-69734955D01*
X150370044Y-69734952D01*
X150254835Y-69648706D01*
X150254828Y-69648702D01*
X150119982Y-69598408D01*
X150119983Y-69598408D01*
X150060383Y-69592001D01*
X150060381Y-69592000D01*
X150060373Y-69592000D01*
X150060364Y-69592000D01*
X148264629Y-69592000D01*
X148264623Y-69592001D01*
X148205016Y-69598408D01*
X148070171Y-69648702D01*
X148070164Y-69648706D01*
X147954955Y-69734952D01*
X147954952Y-69734955D01*
X147868706Y-69850164D01*
X147868702Y-69850171D01*
X147818408Y-69985017D01*
X147812001Y-70044616D01*
X147812001Y-70044623D01*
X147812000Y-70044635D01*
X147812000Y-71420686D01*
X147792315Y-71487725D01*
X147775681Y-71508367D01*
X146879681Y-72404367D01*
X146818358Y-72437852D01*
X146748666Y-72432868D01*
X146692733Y-72390996D01*
X146668316Y-72325532D01*
X146668000Y-72316686D01*
X146668000Y-67911078D01*
X146668000Y-67911076D01*
X146667663Y-67909820D01*
X146648035Y-67836565D01*
X146628440Y-67763435D01*
X146628436Y-67763428D01*
X146579613Y-67678862D01*
X146563000Y-67616863D01*
X146563000Y-67230886D01*
X146557147Y-67166482D01*
X146556586Y-67160304D01*
X146505978Y-66997894D01*
X146417972Y-66852315D01*
X146417970Y-66852313D01*
X146417969Y-66852311D01*
X146297688Y-66732030D01*
X146152106Y-66644022D01*
X145989696Y-66593414D01*
X145989694Y-66593413D01*
X145989692Y-66593413D01*
X145940278Y-66588923D01*
X145919116Y-66587000D01*
X145405884Y-66587000D01*
X145386645Y-66588748D01*
X145335307Y-66593413D01*
X145172893Y-66644022D01*
X145027311Y-66732030D01*
X145027310Y-66732031D01*
X144925181Y-66834161D01*
X144863858Y-66867646D01*
X144794166Y-66862662D01*
X144749819Y-66834161D01*
X144647688Y-66732030D01*
X144641782Y-66727403D01*
X144643611Y-66725067D01*
X144605652Y-66683601D01*
X144593000Y-66629033D01*
X144593000Y-66111745D01*
X144612685Y-66044706D01*
X144665489Y-65998951D01*
X144734647Y-65989007D01*
X144769404Y-65999362D01*
X144848837Y-66036403D01*
X144848843Y-66036404D01*
X144848844Y-66036405D01*
X144891999Y-66047968D01*
X145077092Y-66097563D01*
X145247819Y-66112500D01*
X145312499Y-66118159D01*
X145312500Y-66118159D01*
X145312501Y-66118159D01*
X145377181Y-66112500D01*
X145547908Y-66097563D01*
X145776163Y-66036403D01*
X145990330Y-65936535D01*
X146183901Y-65800995D01*
X146306217Y-65678678D01*
X146367536Y-65645196D01*
X146437228Y-65650180D01*
X146493162Y-65692051D01*
X146510077Y-65723028D01*
X146559146Y-65854588D01*
X146559149Y-65854593D01*
X146645309Y-65969687D01*
X146645312Y-65969690D01*
X146760406Y-66055850D01*
X146760413Y-66055854D01*
X146895120Y-66106096D01*
X146895127Y-66106098D01*
X146954655Y-66112499D01*
X146954672Y-66112500D01*
X147602500Y-66112500D01*
X147602500Y-65195512D01*
X147659507Y-65228425D01*
X147786674Y-65262500D01*
X147918326Y-65262500D01*
X148045493Y-65228425D01*
X148102500Y-65195512D01*
X148102500Y-66112500D01*
X148750328Y-66112500D01*
X148750344Y-66112499D01*
X148809872Y-66106098D01*
X148809879Y-66106096D01*
X148944586Y-66055854D01*
X148944593Y-66055850D01*
X149059687Y-65969690D01*
X149059690Y-65969687D01*
X149145850Y-65854593D01*
X149145854Y-65854586D01*
X149196096Y-65719879D01*
X149196098Y-65719872D01*
X149202499Y-65660344D01*
X149202500Y-65660327D01*
X149202500Y-65012500D01*
X148285512Y-65012500D01*
X148318425Y-64955493D01*
X148352500Y-64828326D01*
X148352500Y-64696674D01*
X148318425Y-64569507D01*
X148285512Y-64512500D01*
X149202500Y-64512500D01*
X149202500Y-63864672D01*
X149202499Y-63864655D01*
X149196098Y-63805127D01*
X149196096Y-63805120D01*
X149145854Y-63670413D01*
X149145850Y-63670406D01*
X149059690Y-63555312D01*
X149059687Y-63555309D01*
X148944593Y-63469149D01*
X148944586Y-63469145D01*
X148809879Y-63418903D01*
X148809872Y-63418901D01*
X148750344Y-63412500D01*
X148102500Y-63412500D01*
X148102500Y-64329488D01*
X148045493Y-64296575D01*
X147918326Y-64262500D01*
X147786674Y-64262500D01*
X147659507Y-64296575D01*
X147602500Y-64329488D01*
X147602500Y-63412500D01*
X146954655Y-63412500D01*
X146895127Y-63418901D01*
X146895120Y-63418903D01*
X146760413Y-63469145D01*
X146760406Y-63469149D01*
X146645312Y-63555309D01*
X146645309Y-63555312D01*
X146559149Y-63670406D01*
X146559145Y-63670413D01*
X146510078Y-63801970D01*
X146468207Y-63857904D01*
X146402742Y-63882321D01*
X146334469Y-63867469D01*
X146306215Y-63846319D01*
X146261866Y-63801970D01*
X146183901Y-63724005D01*
X146183897Y-63724002D01*
X146183896Y-63724001D01*
X145990334Y-63588467D01*
X145990330Y-63588465D01*
X145919227Y-63555309D01*
X145776163Y-63488597D01*
X145776159Y-63488596D01*
X145776155Y-63488594D01*
X145547913Y-63427438D01*
X145547903Y-63427436D01*
X145312501Y-63406841D01*
X145312499Y-63406841D01*
X145077096Y-63427436D01*
X145077086Y-63427438D01*
X144848844Y-63488594D01*
X144848835Y-63488598D01*
X144634671Y-63588464D01*
X144634669Y-63588465D01*
X144441097Y-63724005D01*
X144274005Y-63891097D01*
X144144075Y-64076658D01*
X144089498Y-64120283D01*
X144020000Y-64127477D01*
X143957645Y-64095954D01*
X143940925Y-64076658D01*
X143810994Y-63891097D01*
X143643902Y-63724006D01*
X143643895Y-63724001D01*
X143450334Y-63588467D01*
X143450330Y-63588465D01*
X143379227Y-63555309D01*
X143236163Y-63488597D01*
X143236159Y-63488596D01*
X143236155Y-63488594D01*
X143007913Y-63427438D01*
X143007903Y-63427436D01*
X142772501Y-63406841D01*
X142772499Y-63406841D01*
X142537096Y-63427436D01*
X142537086Y-63427438D01*
X142308844Y-63488594D01*
X142308835Y-63488598D01*
X142094671Y-63588464D01*
X142094669Y-63588465D01*
X141901097Y-63724005D01*
X141734005Y-63891097D01*
X141604075Y-64076658D01*
X141549498Y-64120283D01*
X141480000Y-64127477D01*
X141417645Y-64095954D01*
X141400925Y-64076658D01*
X141270994Y-63891097D01*
X141103902Y-63724006D01*
X141103895Y-63724001D01*
X140910334Y-63588467D01*
X140910330Y-63588465D01*
X140839227Y-63555309D01*
X140696163Y-63488597D01*
X140696159Y-63488596D01*
X140696155Y-63488594D01*
X140467913Y-63427438D01*
X140467903Y-63427436D01*
X140232501Y-63406841D01*
X140232499Y-63406841D01*
X139997096Y-63427436D01*
X139997086Y-63427438D01*
X139768844Y-63488594D01*
X139768835Y-63488598D01*
X139554671Y-63588464D01*
X139554669Y-63588465D01*
X139361097Y-63724005D01*
X139194005Y-63891097D01*
X139064075Y-64076658D01*
X139009498Y-64120283D01*
X138940000Y-64127477D01*
X138877645Y-64095954D01*
X138860925Y-64076658D01*
X138730994Y-63891097D01*
X138563902Y-63724006D01*
X138563895Y-63724001D01*
X138370334Y-63588467D01*
X138370330Y-63588465D01*
X138299227Y-63555309D01*
X138156163Y-63488597D01*
X138156159Y-63488596D01*
X138156155Y-63488594D01*
X137927913Y-63427438D01*
X137927903Y-63427436D01*
X137692501Y-63406841D01*
X137692499Y-63406841D01*
X137457096Y-63427436D01*
X137457086Y-63427438D01*
X137228844Y-63488594D01*
X137228835Y-63488598D01*
X137014671Y-63588464D01*
X137014669Y-63588465D01*
X136821097Y-63724005D01*
X136654005Y-63891097D01*
X136518465Y-64084669D01*
X136518464Y-64084671D01*
X136418598Y-64298835D01*
X136418594Y-64298844D01*
X136357438Y-64527086D01*
X136357436Y-64527096D01*
X136336841Y-64762499D01*
X136336841Y-64762500D01*
X136357436Y-64997903D01*
X136357438Y-64997913D01*
X136397804Y-65148563D01*
X136396141Y-65218413D01*
X136365710Y-65268337D01*
X136231065Y-65402984D01*
X136122986Y-65511062D01*
X136122981Y-65511068D01*
X136046561Y-65643431D01*
X136026780Y-65717252D01*
X136026780Y-65717255D01*
X136014369Y-65763576D01*
X136014369Y-65763577D01*
X136007000Y-65791075D01*
X136007000Y-66629033D01*
X135987315Y-66696072D01*
X135956882Y-66725697D01*
X135958219Y-66727403D01*
X135952315Y-66732028D01*
X135944882Y-66739461D01*
X135883557Y-66772943D01*
X135813866Y-66767956D01*
X135769523Y-66739457D01*
X135127629Y-66097563D01*
X134405552Y-65375485D01*
X134405551Y-65375484D01*
X134405549Y-65375483D01*
X134405547Y-65375481D01*
X134273184Y-65299061D01*
X134273185Y-65299061D01*
X134257313Y-65294808D01*
X134198077Y-65278936D01*
X134198074Y-65278935D01*
X134158521Y-65268337D01*
X134125541Y-65259500D01*
X134125540Y-65259500D01*
X133558363Y-65259500D01*
X133405513Y-65259500D01*
X133332976Y-65278935D01*
X133332977Y-65278936D01*
X133257868Y-65299061D01*
X133257867Y-65299062D01*
X133210243Y-65326559D01*
X133210242Y-65326560D01*
X133125501Y-65375485D01*
X124905486Y-73595500D01*
X124905481Y-73595506D01*
X124829061Y-73727869D01*
X124829059Y-73727874D01*
X124825935Y-73739531D01*
X124825936Y-73739532D01*
X124793803Y-73859456D01*
X124791363Y-73868563D01*
X124789500Y-73875515D01*
X120300500Y-73875515D01*
X120300500Y-62004427D01*
X120300816Y-61995581D01*
X120317165Y-61766982D01*
X120319683Y-61749470D01*
X120367459Y-61529851D01*
X120372436Y-61512900D01*
X120450985Y-61302299D01*
X120458325Y-61286227D01*
X120566044Y-61088956D01*
X120575600Y-61074086D01*
X120710294Y-60894156D01*
X120721868Y-60880799D01*
X120880799Y-60721868D01*
X120894156Y-60710294D01*
X121074086Y-60575600D01*
X121088956Y-60566044D01*
X121286227Y-60458325D01*
X121302299Y-60450985D01*
X121512900Y-60372436D01*
X121529851Y-60367459D01*
X121749472Y-60319682D01*
X121766977Y-60317165D01*
X121995582Y-60300816D01*
X122004428Y-60300500D01*
X122047595Y-60300500D01*
X152952405Y-60300500D01*
X152995572Y-60300500D01*
X153004418Y-60300816D01*
G37*
%TD.AperFunction*%
%TD*%
%TA.AperFunction,Conductor*%
%TO.N,+12V*%
G36*
X130871177Y-78207185D02*
G01*
X130877773Y-78212500D01*
X131538500Y-78212500D01*
X131605539Y-78232185D01*
X131651294Y-78284989D01*
X131662500Y-78336500D01*
X131662500Y-78588500D01*
X131642815Y-78655539D01*
X131590011Y-78701294D01*
X131538500Y-78712500D01*
X130470862Y-78712500D01*
X130403823Y-78692815D01*
X130397227Y-78687500D01*
X130112500Y-78687500D01*
X130112500Y-80012500D01*
X131788500Y-80012500D01*
X131855539Y-80032185D01*
X131901294Y-80084989D01*
X131912500Y-80136500D01*
X131912500Y-80388500D01*
X131892815Y-80455539D01*
X131840011Y-80501294D01*
X131788500Y-80512500D01*
X129736500Y-80512500D01*
X129669461Y-80492815D01*
X129623706Y-80440011D01*
X129612500Y-80388500D01*
X129612500Y-78311500D01*
X129632185Y-78244461D01*
X129684989Y-78198706D01*
X129736500Y-78187500D01*
X130804138Y-78187500D01*
X130871177Y-78207185D01*
G37*
%TD.AperFunction*%
%TA.AperFunction,Conductor*%
G36*
X132572847Y-78750939D02*
G01*
X132598125Y-78769167D01*
X132729002Y-78828938D01*
X132796041Y-78848623D01*
X132796045Y-78848624D01*
X132938461Y-78869100D01*
X132938464Y-78869100D01*
X133443306Y-78869100D01*
X133461288Y-78868779D01*
X133461298Y-78868778D01*
X133461333Y-78868778D01*
X133470179Y-78868462D01*
X133488196Y-78867496D01*
X133628788Y-78836912D01*
X133694252Y-78812495D01*
X133694257Y-78812491D01*
X133694327Y-78812466D01*
X133764019Y-78807480D01*
X133807681Y-78826308D01*
X134208522Y-79100568D01*
X134252733Y-79154668D01*
X134262500Y-79202904D01*
X134262500Y-79438000D01*
X134242815Y-79505039D01*
X134190011Y-79550794D01*
X134138500Y-79562000D01*
X133233440Y-79562000D01*
X133192519Y-79572964D01*
X133192519Y-79572965D01*
X133155251Y-79582951D01*
X133080714Y-79602923D01*
X133080711Y-79602925D01*
X132978754Y-79661788D01*
X132956953Y-79670783D01*
X132957167Y-79671357D01*
X132951464Y-79673483D01*
X132951463Y-79673484D01*
X132875912Y-79701661D01*
X132816656Y-79723761D01*
X132757288Y-79756176D01*
X132755807Y-79756950D01*
X132755323Y-79757248D01*
X132751839Y-79759857D01*
X132686374Y-79784272D01*
X132618101Y-79769419D01*
X132571993Y-79725685D01*
X132485075Y-79584771D01*
X132485072Y-79584767D01*
X132365231Y-79464926D01*
X132217378Y-79373728D01*
X132170654Y-79321780D01*
X132159433Y-79252817D01*
X132187277Y-79188735D01*
X132194796Y-79180508D01*
X132235073Y-79140231D01*
X132235075Y-79140228D01*
X132324042Y-78995992D01*
X132324047Y-78995981D01*
X132377356Y-78835105D01*
X132378773Y-78828488D01*
X132381031Y-78828971D01*
X132403341Y-78774252D01*
X132460510Y-78734085D01*
X132530320Y-78731202D01*
X132572847Y-78750939D01*
G37*
%TD.AperFunction*%
%TD*%
M02*
