%TF.GenerationSoftware,KiCad,Pcbnew,8.0.8*%
%TF.CreationDate,2025-03-29T22:03:17-04:00*%
%TF.ProjectId,ZPlus_Panel,5a506c75-735f-4506-916e-656c2e6b6963,v1b*%
%TF.SameCoordinates,Original*%
%TF.FileFunction,Copper,L2,Inr*%
%TF.FilePolarity,Positive*%
%FSLAX46Y46*%
G04 Gerber Fmt 4.6, Leading zero omitted, Abs format (unit mm)*
G04 Created by KiCad (PCBNEW 8.0.8) date 2025-03-29 22:03:17*
%MOMM*%
%LPD*%
G01*
G04 APERTURE LIST*
%TA.AperFunction,ComponentPad*%
%ADD10C,3.000000*%
%TD*%
%TA.AperFunction,ComponentPad*%
%ADD11C,2.600000*%
%TD*%
%TA.AperFunction,ComponentPad*%
%ADD12C,2.050000*%
%TD*%
%TA.AperFunction,ComponentPad*%
%ADD13C,2.250000*%
%TD*%
%TA.AperFunction,ViaPad*%
%ADD14C,0.800000*%
%TD*%
G04 APERTURE END LIST*
D10*
X140900000Y-56700000D03*
X149900000Y-56700000D03*
D11*
X155182000Y-45965600D03*
D10*
X188600000Y-121500000D03*
X188600000Y-130500000D03*
D11*
X166325000Y-112100000D03*
X178825000Y-112100000D03*
X178825000Y-91300000D03*
X211856000Y-45965600D03*
D10*
X162625000Y-55925000D03*
X162625000Y-46925000D03*
X215300000Y-57200000D03*
X224300000Y-57200000D03*
X149900000Y-118000000D03*
X140900000Y-118000000D03*
D11*
X211856000Y-130965600D03*
D10*
X224300000Y-118600000D03*
X215300000Y-118600000D03*
D11*
X155182000Y-130965600D03*
X166325000Y-91300000D03*
D12*
X195800000Y-88400000D03*
D13*
X193260000Y-90940000D03*
X198340000Y-90940000D03*
X193260000Y-85860000D03*
X198340000Y-85860000D03*
D14*
X193725000Y-107475000D03*
X206475000Y-87500000D03*
X201200000Y-91800000D03*
X193000000Y-79000000D03*
X201200000Y-87000000D03*
X193200000Y-68800000D03*
X193725000Y-99475000D03*
X230200000Y-86025000D03*
X192100000Y-105025000D03*
X201200000Y-85200000D03*
X207552000Y-109416000D03*
X207552000Y-111416000D03*
X153900000Y-109550000D03*
X195000000Y-100600000D03*
X207552000Y-69856000D03*
X192100000Y-103025000D03*
X195000000Y-104600000D03*
X194800000Y-70400000D03*
X207552000Y-67856000D03*
X192100000Y-107025000D03*
X207552000Y-107416000D03*
X193200000Y-70800000D03*
X201200000Y-90000000D03*
X207552000Y-103416000D03*
X193725000Y-111475000D03*
X191850000Y-67900000D03*
X194800000Y-66400000D03*
X193200000Y-64800000D03*
X192100000Y-111025000D03*
X207900000Y-85500000D03*
X194800000Y-64800000D03*
X195000000Y-110000000D03*
X206475000Y-85500000D03*
X207900000Y-91500000D03*
X192100000Y-101025000D03*
X191675000Y-81475000D03*
X194800000Y-63400000D03*
X193000000Y-81000000D03*
X193000000Y-97600000D03*
X191850000Y-75900000D03*
X191850000Y-69900000D03*
X193000000Y-83400000D03*
X193725000Y-109475000D03*
X192100000Y-99025000D03*
X191925000Y-97100000D03*
X199074000Y-83476000D03*
X207552000Y-73856000D03*
X195000000Y-102600000D03*
X178675000Y-42975000D03*
X206475000Y-83500000D03*
X181875000Y-130150000D03*
X193000000Y-93600000D03*
X207552000Y-105416000D03*
X194800000Y-72400000D03*
X207552000Y-71856000D03*
X188050000Y-50050000D03*
X136475000Y-123675000D03*
X193000000Y-75000000D03*
X206475000Y-89500000D03*
X195000000Y-111800000D03*
X193000000Y-73000000D03*
X191675000Y-83475000D03*
X191775000Y-77800000D03*
X206475000Y-91500000D03*
X193000000Y-95600000D03*
X193200000Y-66800000D03*
X191925000Y-95100000D03*
X191775000Y-79800000D03*
X195000000Y-106600000D03*
X207552000Y-101416000D03*
X193725000Y-105475000D03*
X155500000Y-125100000D03*
X197074000Y-83476000D03*
X193200000Y-63400000D03*
X192100000Y-109025000D03*
X191850000Y-71900000D03*
X206925000Y-135900000D03*
X193575000Y-132875000D03*
X207552000Y-63856000D03*
X191850000Y-73900000D03*
X195000000Y-108600000D03*
X207552000Y-65856000D03*
X157100000Y-113625000D03*
X193725000Y-101475000D03*
X193725000Y-103475000D03*
X207900000Y-87500000D03*
X207900000Y-83500000D03*
X207900000Y-89500000D03*
X187725000Y-126150000D03*
X194800000Y-68400000D03*
X191525000Y-93650000D03*
X195074000Y-83476000D03*
X201074000Y-83476000D03*
X193000000Y-77000000D03*
X194800000Y-74400000D03*
X145425000Y-70800000D03*
X155025000Y-94950000D03*
X155900000Y-90500000D03*
X152250000Y-67600000D03*
X157600000Y-102175000D03*
X158200000Y-105650000D03*
X162700000Y-107075000D03*
X159675000Y-108200000D03*
X154925000Y-99900000D03*
X151850000Y-115525000D03*
%TA.AperFunction,Conductor*%
G36*
X208241660Y-40126685D02*
G01*
X208278532Y-40177435D01*
X208283500Y-40208800D01*
X208283500Y-40846363D01*
X208303976Y-40922781D01*
X208303981Y-40922795D01*
X208336637Y-40979354D01*
X208343540Y-40991311D01*
X208343542Y-40991313D01*
X208343545Y-40991317D01*
X208399482Y-41047254D01*
X208399485Y-41047256D01*
X208399489Y-41047260D01*
X208427771Y-41063589D01*
X208468004Y-41086818D01*
X208468008Y-41086819D01*
X208468011Y-41086821D01*
X208468016Y-41086822D01*
X208468018Y-41086823D01*
X208544436Y-41107300D01*
X208544438Y-41107300D01*
X208623562Y-41107300D01*
X219456000Y-41107300D01*
X219515660Y-41126685D01*
X219552532Y-41177435D01*
X219557500Y-41208800D01*
X219557500Y-51361963D01*
X219577976Y-51438381D01*
X219577981Y-51438395D01*
X219610637Y-51494954D01*
X219617540Y-51506911D01*
X219617542Y-51506913D01*
X219617545Y-51506917D01*
X219673482Y-51562854D01*
X219673485Y-51562856D01*
X219673489Y-51562860D01*
X219701771Y-51579189D01*
X219742004Y-51602418D01*
X219742008Y-51602419D01*
X219742011Y-51602421D01*
X219742016Y-51602422D01*
X219742018Y-51602423D01*
X219818436Y-51622900D01*
X219818438Y-51622900D01*
X230729989Y-51622900D01*
X230789649Y-51642285D01*
X230826521Y-51693035D01*
X230831489Y-51724403D01*
X230830740Y-79540623D01*
X230829604Y-121774130D01*
X230829511Y-125218003D01*
X230810125Y-125277662D01*
X230759374Y-125314533D01*
X230728011Y-125319500D01*
X219816436Y-125319500D01*
X219740018Y-125339976D01*
X219740004Y-125339981D01*
X219671492Y-125379538D01*
X219671482Y-125379545D01*
X219615545Y-125435482D01*
X219615538Y-125435492D01*
X219575981Y-125504004D01*
X219575976Y-125504018D01*
X219555500Y-125580436D01*
X219555500Y-135733600D01*
X219536115Y-135793260D01*
X219485365Y-135830132D01*
X219454000Y-135835100D01*
X208542436Y-135835100D01*
X208466018Y-135855576D01*
X208466004Y-135855581D01*
X208397492Y-135895138D01*
X208397482Y-135895145D01*
X208341545Y-135951082D01*
X208341538Y-135951092D01*
X208301981Y-136019604D01*
X208301976Y-136019618D01*
X208281500Y-136096036D01*
X208281500Y-136733600D01*
X208262115Y-136793260D01*
X208211365Y-136830132D01*
X208180000Y-136835100D01*
X157112000Y-136835100D01*
X157052340Y-136815715D01*
X157015468Y-136764965D01*
X157010500Y-136733600D01*
X157010500Y-136096036D01*
X156990023Y-136019618D01*
X156990018Y-136019604D01*
X156966789Y-135979371D01*
X156950460Y-135951089D01*
X156950456Y-135951085D01*
X156950454Y-135951082D01*
X156894517Y-135895145D01*
X156894513Y-135895142D01*
X156894511Y-135895140D01*
X156882554Y-135888237D01*
X156825995Y-135855581D01*
X156825981Y-135855576D01*
X156749564Y-135835100D01*
X156749562Y-135835100D01*
X145838000Y-135835100D01*
X145778340Y-135815715D01*
X145741468Y-135764965D01*
X145736500Y-135733600D01*
X145736500Y-130965597D01*
X153368930Y-130965597D01*
X153368930Y-130965602D01*
X153389179Y-131235816D01*
X153389181Y-131235831D01*
X153449479Y-131500008D01*
X153548482Y-131752265D01*
X153683970Y-131986938D01*
X153683974Y-131986943D01*
X153736092Y-132052297D01*
X154243328Y-131545060D01*
X154342967Y-131682202D01*
X154465398Y-131804633D01*
X154602537Y-131904270D01*
X154094454Y-132412353D01*
X154094455Y-132412354D01*
X154275461Y-132535763D01*
X154519612Y-132653339D01*
X154778557Y-132733213D01*
X155046502Y-132773599D01*
X155046515Y-132773600D01*
X155317485Y-132773600D01*
X155317497Y-132773599D01*
X155585442Y-132733213D01*
X155844387Y-132653339D01*
X156088531Y-132535766D01*
X156088534Y-132535764D01*
X156269543Y-132412354D01*
X156269543Y-132412353D01*
X155761461Y-131904270D01*
X155898602Y-131804633D01*
X156021033Y-131682202D01*
X156120670Y-131545061D01*
X156627906Y-132052297D01*
X156680025Y-131986944D01*
X156680029Y-131986938D01*
X156815517Y-131752265D01*
X156914520Y-131500008D01*
X156914521Y-131500008D01*
X156974818Y-131235831D01*
X156974820Y-131235816D01*
X156995070Y-130965602D01*
X156995070Y-130965597D01*
X156974820Y-130695383D01*
X156974818Y-130695368D01*
X156930224Y-130499995D01*
X186586807Y-130499995D01*
X186586807Y-130500004D01*
X186605556Y-130774121D01*
X186605557Y-130774123D01*
X186661461Y-131043153D01*
X186753478Y-131302061D01*
X186753480Y-131302065D01*
X186765266Y-131324810D01*
X186879889Y-131546023D01*
X187038343Y-131770502D01*
X187225889Y-131971314D01*
X187225894Y-131971318D01*
X187225897Y-131971321D01*
X187308489Y-132038514D01*
X187439031Y-132144718D01*
X187673800Y-132287484D01*
X187673804Y-132287486D01*
X187673808Y-132287488D01*
X187753701Y-132322190D01*
X187925823Y-132396953D01*
X187925830Y-132396955D01*
X187925835Y-132396957D01*
X188190392Y-132471082D01*
X188190394Y-132471082D01*
X188190404Y-132471085D01*
X188462615Y-132508500D01*
X188462619Y-132508500D01*
X188737381Y-132508500D01*
X188737385Y-132508500D01*
X189009596Y-132471085D01*
X189009607Y-132471082D01*
X189274164Y-132396957D01*
X189274166Y-132396955D01*
X189274177Y-132396953D01*
X189526200Y-132287484D01*
X189760969Y-132144718D01*
X189974111Y-131971314D01*
X190161657Y-131770502D01*
X190320111Y-131546023D01*
X190446523Y-131302058D01*
X190538538Y-131043153D01*
X190554654Y-130965597D01*
X210042930Y-130965597D01*
X210042930Y-130965602D01*
X210063179Y-131235816D01*
X210063181Y-131235831D01*
X210123479Y-131500008D01*
X210222482Y-131752265D01*
X210357970Y-131986938D01*
X210357974Y-131986943D01*
X210410092Y-132052297D01*
X210917328Y-131545060D01*
X211016967Y-131682202D01*
X211139398Y-131804633D01*
X211276537Y-131904270D01*
X210768454Y-132412353D01*
X210768455Y-132412354D01*
X210949461Y-132535763D01*
X211193612Y-132653339D01*
X211452557Y-132733213D01*
X211720502Y-132773599D01*
X211720515Y-132773600D01*
X211991485Y-132773600D01*
X211991497Y-132773599D01*
X212259442Y-132733213D01*
X212518387Y-132653339D01*
X212762531Y-132535766D01*
X212762534Y-132535764D01*
X212943543Y-132412354D01*
X212943543Y-132412353D01*
X212435461Y-131904270D01*
X212572602Y-131804633D01*
X212695033Y-131682202D01*
X212794670Y-131545061D01*
X213301906Y-132052297D01*
X213354025Y-131986944D01*
X213354029Y-131986938D01*
X213489517Y-131752265D01*
X213588520Y-131500008D01*
X213588521Y-131500008D01*
X213648818Y-131235831D01*
X213648820Y-131235816D01*
X213669070Y-130965602D01*
X213669070Y-130965597D01*
X213648820Y-130695383D01*
X213648818Y-130695368D01*
X213588520Y-130431191D01*
X213489517Y-130178934D01*
X213354029Y-129944261D01*
X213354025Y-129944256D01*
X213301906Y-129878901D01*
X212794669Y-130386137D01*
X212695033Y-130248998D01*
X212572602Y-130126567D01*
X212435460Y-130026929D01*
X212943544Y-129518845D01*
X212943543Y-129518844D01*
X212762538Y-129395436D01*
X212518387Y-129277860D01*
X212259442Y-129197986D01*
X211991497Y-129157600D01*
X211720502Y-129157600D01*
X211452557Y-129197986D01*
X211193612Y-129277860D01*
X210949461Y-129395436D01*
X210768455Y-129518844D01*
X210768454Y-129518845D01*
X211276538Y-130026929D01*
X211139398Y-130126567D01*
X211016967Y-130248998D01*
X210917329Y-130386138D01*
X210410092Y-129878901D01*
X210410092Y-129878902D01*
X210357969Y-129944263D01*
X210222482Y-130178934D01*
X210123479Y-130431191D01*
X210123478Y-130431191D01*
X210063181Y-130695368D01*
X210063179Y-130695383D01*
X210042930Y-130965597D01*
X190554654Y-130965597D01*
X190594442Y-130774130D01*
X190598965Y-130708016D01*
X190613193Y-130500004D01*
X190613193Y-130499995D01*
X190594443Y-130225878D01*
X190594442Y-130225876D01*
X190594442Y-130225870D01*
X190538538Y-129956847D01*
X190534750Y-129946190D01*
X190503516Y-129858306D01*
X190446523Y-129697942D01*
X190320111Y-129453977D01*
X190161657Y-129229498D01*
X189974111Y-129028686D01*
X189974105Y-129028681D01*
X189974102Y-129028678D01*
X189760974Y-128855286D01*
X189760973Y-128855285D01*
X189760969Y-128855282D01*
X189526200Y-128712516D01*
X189526197Y-128712514D01*
X189526191Y-128712511D01*
X189360237Y-128640428D01*
X189274177Y-128603047D01*
X189274173Y-128603045D01*
X189274164Y-128603042D01*
X189009607Y-128528917D01*
X189009599Y-128528915D01*
X189009596Y-128528915D01*
X188797202Y-128499721D01*
X188737386Y-128491500D01*
X188737385Y-128491500D01*
X188462615Y-128491500D01*
X188462613Y-128491500D01*
X188364531Y-128504981D01*
X188190404Y-128528915D01*
X188190400Y-128528915D01*
X188190393Y-128528917D01*
X188190392Y-128528917D01*
X187925835Y-128603042D01*
X187925821Y-128603048D01*
X187673808Y-128712511D01*
X187673800Y-128712516D01*
X187439031Y-128855282D01*
X187439029Y-128855283D01*
X187439025Y-128855286D01*
X187225897Y-129028678D01*
X187225888Y-129028687D01*
X187038343Y-129229497D01*
X187038343Y-129229498D01*
X187004206Y-129277860D01*
X186879887Y-129453980D01*
X186753480Y-129697934D01*
X186753478Y-129697938D01*
X186661461Y-129956846D01*
X186605557Y-130225876D01*
X186605556Y-130225878D01*
X186586807Y-130499995D01*
X156930224Y-130499995D01*
X156914520Y-130431191D01*
X156815517Y-130178934D01*
X156680029Y-129944261D01*
X156680025Y-129944256D01*
X156627906Y-129878901D01*
X156120669Y-130386137D01*
X156021033Y-130248998D01*
X155898602Y-130126567D01*
X155761460Y-130026929D01*
X156269544Y-129518845D01*
X156269543Y-129518844D01*
X156088538Y-129395436D01*
X155844387Y-129277860D01*
X155585442Y-129197986D01*
X155317497Y-129157600D01*
X155046502Y-129157600D01*
X154778557Y-129197986D01*
X154519612Y-129277860D01*
X154275461Y-129395436D01*
X154094455Y-129518844D01*
X154094454Y-129518845D01*
X154602538Y-130026929D01*
X154465398Y-130126567D01*
X154342967Y-130248998D01*
X154243329Y-130386138D01*
X153736092Y-129878901D01*
X153736092Y-129878902D01*
X153683969Y-129944263D01*
X153548482Y-130178934D01*
X153449479Y-130431191D01*
X153449478Y-130431191D01*
X153389181Y-130695368D01*
X153389179Y-130695383D01*
X153368930Y-130965597D01*
X145736500Y-130965597D01*
X145736500Y-125580436D01*
X145716023Y-125504018D01*
X145716018Y-125504004D01*
X145692789Y-125463771D01*
X145676460Y-125435489D01*
X145676456Y-125435485D01*
X145676454Y-125435482D01*
X145620517Y-125379545D01*
X145620513Y-125379542D01*
X145620511Y-125379540D01*
X145608554Y-125372637D01*
X145551995Y-125339981D01*
X145551981Y-125339976D01*
X145475564Y-125319500D01*
X145475562Y-125319500D01*
X134564011Y-125319500D01*
X134504351Y-125300115D01*
X134467479Y-125249365D01*
X134462511Y-125217997D01*
X134462611Y-121499995D01*
X186586807Y-121499995D01*
X186586807Y-121500004D01*
X186605556Y-121774121D01*
X186605557Y-121774123D01*
X186661461Y-122043153D01*
X186753478Y-122302061D01*
X186753480Y-122302065D01*
X186866766Y-122520698D01*
X186879889Y-122546023D01*
X187038343Y-122770502D01*
X187225889Y-122971314D01*
X187225894Y-122971318D01*
X187225897Y-122971321D01*
X187397585Y-123110999D01*
X187439031Y-123144718D01*
X187673800Y-123287484D01*
X187673804Y-123287486D01*
X187673808Y-123287488D01*
X187753701Y-123322190D01*
X187925823Y-123396953D01*
X187925830Y-123396955D01*
X187925835Y-123396957D01*
X188190392Y-123471082D01*
X188190394Y-123471082D01*
X188190404Y-123471085D01*
X188462615Y-123508500D01*
X188462619Y-123508500D01*
X188737381Y-123508500D01*
X188737385Y-123508500D01*
X189009596Y-123471085D01*
X189009607Y-123471082D01*
X189274164Y-123396957D01*
X189274166Y-123396955D01*
X189274177Y-123396953D01*
X189526200Y-123287484D01*
X189760969Y-123144718D01*
X189974111Y-122971314D01*
X190161657Y-122770502D01*
X190320111Y-122546023D01*
X190446523Y-122302058D01*
X190538538Y-122043153D01*
X190594442Y-121774130D01*
X190613193Y-121500000D01*
X190594442Y-121225870D01*
X190538538Y-120956847D01*
X190446523Y-120697942D01*
X190320111Y-120453977D01*
X190161657Y-120229498D01*
X189974111Y-120028686D01*
X189974105Y-120028681D01*
X189974102Y-120028678D01*
X189760974Y-119855286D01*
X189760973Y-119855285D01*
X189760969Y-119855282D01*
X189526200Y-119712516D01*
X189526197Y-119712514D01*
X189526191Y-119712511D01*
X189360237Y-119640428D01*
X189274177Y-119603047D01*
X189274173Y-119603045D01*
X189274164Y-119603042D01*
X189009607Y-119528917D01*
X189009599Y-119528915D01*
X189009596Y-119528915D01*
X188797202Y-119499721D01*
X188737386Y-119491500D01*
X188737385Y-119491500D01*
X188462615Y-119491500D01*
X188462613Y-119491500D01*
X188364531Y-119504981D01*
X188190404Y-119528915D01*
X188190400Y-119528915D01*
X188190393Y-119528917D01*
X188190392Y-119528917D01*
X187925835Y-119603042D01*
X187925821Y-119603048D01*
X187673808Y-119712511D01*
X187673800Y-119712516D01*
X187439031Y-119855282D01*
X187439029Y-119855283D01*
X187439025Y-119855286D01*
X187225897Y-120028678D01*
X187225888Y-120028687D01*
X187038343Y-120229497D01*
X187038341Y-120229501D01*
X186879887Y-120453980D01*
X186753480Y-120697934D01*
X186753478Y-120697938D01*
X186661461Y-120956846D01*
X186605557Y-121225876D01*
X186605556Y-121225878D01*
X186586807Y-121499995D01*
X134462611Y-121499995D01*
X134462705Y-117999995D01*
X138886807Y-117999995D01*
X138886807Y-118000004D01*
X138905556Y-118274121D01*
X138905557Y-118274123D01*
X138905557Y-118274126D01*
X138905558Y-118274130D01*
X138923029Y-118358205D01*
X138961461Y-118543153D01*
X139053478Y-118802061D01*
X139053480Y-118802065D01*
X139166766Y-119020698D01*
X139179889Y-119046023D01*
X139338343Y-119270502D01*
X139525889Y-119471314D01*
X139525894Y-119471318D01*
X139525897Y-119471321D01*
X139687804Y-119603042D01*
X139739031Y-119644718D01*
X139973800Y-119787484D01*
X139973804Y-119787486D01*
X139973808Y-119787488D01*
X140053701Y-119822190D01*
X140225823Y-119896953D01*
X140225830Y-119896955D01*
X140225835Y-119896957D01*
X140490392Y-119971082D01*
X140490394Y-119971082D01*
X140490404Y-119971085D01*
X140762615Y-120008500D01*
X140762619Y-120008500D01*
X141037381Y-120008500D01*
X141037385Y-120008500D01*
X141309596Y-119971085D01*
X141309607Y-119971082D01*
X141574164Y-119896957D01*
X141574166Y-119896955D01*
X141574177Y-119896953D01*
X141826200Y-119787484D01*
X142060969Y-119644718D01*
X142274111Y-119471314D01*
X142461657Y-119270502D01*
X142620111Y-119046023D01*
X142746523Y-118802058D01*
X142838538Y-118543153D01*
X142894442Y-118274130D01*
X142913193Y-118000000D01*
X142913193Y-117999995D01*
X147886807Y-117999995D01*
X147886807Y-118000004D01*
X147905556Y-118274121D01*
X147905557Y-118274123D01*
X147905557Y-118274126D01*
X147905558Y-118274130D01*
X147923029Y-118358205D01*
X147961461Y-118543153D01*
X148053478Y-118802061D01*
X148053480Y-118802065D01*
X148166766Y-119020698D01*
X148179889Y-119046023D01*
X148338343Y-119270502D01*
X148525889Y-119471314D01*
X148525894Y-119471318D01*
X148525897Y-119471321D01*
X148687804Y-119603042D01*
X148739031Y-119644718D01*
X148973800Y-119787484D01*
X148973804Y-119787486D01*
X148973808Y-119787488D01*
X149053701Y-119822190D01*
X149225823Y-119896953D01*
X149225830Y-119896955D01*
X149225835Y-119896957D01*
X149490392Y-119971082D01*
X149490394Y-119971082D01*
X149490404Y-119971085D01*
X149762615Y-120008500D01*
X149762619Y-120008500D01*
X150037381Y-120008500D01*
X150037385Y-120008500D01*
X150309596Y-119971085D01*
X150309607Y-119971082D01*
X150574164Y-119896957D01*
X150574166Y-119896955D01*
X150574177Y-119896953D01*
X150826200Y-119787484D01*
X151060969Y-119644718D01*
X151274111Y-119471314D01*
X151461657Y-119270502D01*
X151620111Y-119046023D01*
X151746523Y-118802058D01*
X151818336Y-118599995D01*
X213286807Y-118599995D01*
X213286807Y-118600004D01*
X213305556Y-118874121D01*
X213305557Y-118874123D01*
X213361461Y-119143153D01*
X213453478Y-119402061D01*
X213453480Y-119402065D01*
X213519210Y-119528917D01*
X213579889Y-119646023D01*
X213738343Y-119870502D01*
X213925889Y-120071314D01*
X213925894Y-120071318D01*
X213925897Y-120071321D01*
X214097585Y-120210999D01*
X214139031Y-120244718D01*
X214373800Y-120387484D01*
X214373804Y-120387486D01*
X214373808Y-120387488D01*
X214453701Y-120422190D01*
X214625823Y-120496953D01*
X214625830Y-120496955D01*
X214625835Y-120496957D01*
X214890392Y-120571082D01*
X214890394Y-120571082D01*
X214890404Y-120571085D01*
X215162615Y-120608500D01*
X215162619Y-120608500D01*
X215437381Y-120608500D01*
X215437385Y-120608500D01*
X215709596Y-120571085D01*
X215709607Y-120571082D01*
X215974164Y-120496957D01*
X215974166Y-120496955D01*
X215974177Y-120496953D01*
X216226200Y-120387484D01*
X216460969Y-120244718D01*
X216674111Y-120071314D01*
X216861657Y-119870502D01*
X217020111Y-119646023D01*
X217146523Y-119402058D01*
X217238538Y-119143153D01*
X217294442Y-118874130D01*
X217299372Y-118802065D01*
X217313193Y-118600004D01*
X217313193Y-118599995D01*
X222286807Y-118599995D01*
X222286807Y-118600004D01*
X222305556Y-118874121D01*
X222305557Y-118874123D01*
X222361461Y-119143153D01*
X222453478Y-119402061D01*
X222453480Y-119402065D01*
X222519210Y-119528917D01*
X222579889Y-119646023D01*
X222738343Y-119870502D01*
X222925889Y-120071314D01*
X222925894Y-120071318D01*
X222925897Y-120071321D01*
X223097585Y-120210999D01*
X223139031Y-120244718D01*
X223373800Y-120387484D01*
X223373804Y-120387486D01*
X223373808Y-120387488D01*
X223453701Y-120422190D01*
X223625823Y-120496953D01*
X223625830Y-120496955D01*
X223625835Y-120496957D01*
X223890392Y-120571082D01*
X223890394Y-120571082D01*
X223890404Y-120571085D01*
X224162615Y-120608500D01*
X224162619Y-120608500D01*
X224437381Y-120608500D01*
X224437385Y-120608500D01*
X224709596Y-120571085D01*
X224709607Y-120571082D01*
X224974164Y-120496957D01*
X224974166Y-120496955D01*
X224974177Y-120496953D01*
X225226200Y-120387484D01*
X225460969Y-120244718D01*
X225674111Y-120071314D01*
X225861657Y-119870502D01*
X226020111Y-119646023D01*
X226146523Y-119402058D01*
X226238538Y-119143153D01*
X226294442Y-118874130D01*
X226299372Y-118802065D01*
X226313193Y-118600004D01*
X226313193Y-118599995D01*
X226294443Y-118325878D01*
X226294442Y-118325876D01*
X226294442Y-118325870D01*
X226238538Y-118056847D01*
X226146523Y-117797942D01*
X226020111Y-117553977D01*
X225861657Y-117329498D01*
X225674111Y-117128686D01*
X225674105Y-117128681D01*
X225674102Y-117128678D01*
X225460974Y-116955286D01*
X225460973Y-116955285D01*
X225460969Y-116955282D01*
X225226200Y-116812516D01*
X225226197Y-116812514D01*
X225226191Y-116812511D01*
X225035071Y-116729497D01*
X224974177Y-116703047D01*
X224974173Y-116703045D01*
X224974164Y-116703042D01*
X224709607Y-116628917D01*
X224709599Y-116628915D01*
X224709596Y-116628915D01*
X224497202Y-116599721D01*
X224437386Y-116591500D01*
X224437385Y-116591500D01*
X224162615Y-116591500D01*
X224162613Y-116591500D01*
X224064531Y-116604981D01*
X223890404Y-116628915D01*
X223890400Y-116628915D01*
X223890393Y-116628917D01*
X223890392Y-116628917D01*
X223625835Y-116703042D01*
X223625821Y-116703048D01*
X223373808Y-116812511D01*
X223373800Y-116812516D01*
X223139031Y-116955282D01*
X223139029Y-116955283D01*
X223139025Y-116955286D01*
X222925897Y-117128678D01*
X222925888Y-117128687D01*
X222738343Y-117329497D01*
X222738341Y-117329501D01*
X222579887Y-117553980D01*
X222453480Y-117797934D01*
X222453478Y-117797938D01*
X222361461Y-118056846D01*
X222305557Y-118325876D01*
X222305556Y-118325878D01*
X222286807Y-118599995D01*
X217313193Y-118599995D01*
X217294443Y-118325878D01*
X217294442Y-118325876D01*
X217294442Y-118325870D01*
X217238538Y-118056847D01*
X217146523Y-117797942D01*
X217020111Y-117553977D01*
X216861657Y-117329498D01*
X216674111Y-117128686D01*
X216674105Y-117128681D01*
X216674102Y-117128678D01*
X216460974Y-116955286D01*
X216460973Y-116955285D01*
X216460969Y-116955282D01*
X216226200Y-116812516D01*
X216226197Y-116812514D01*
X216226191Y-116812511D01*
X216035071Y-116729497D01*
X215974177Y-116703047D01*
X215974173Y-116703045D01*
X215974164Y-116703042D01*
X215709607Y-116628917D01*
X215709599Y-116628915D01*
X215709596Y-116628915D01*
X215497202Y-116599721D01*
X215437386Y-116591500D01*
X215437385Y-116591500D01*
X215162615Y-116591500D01*
X215162613Y-116591500D01*
X215064531Y-116604981D01*
X214890404Y-116628915D01*
X214890400Y-116628915D01*
X214890393Y-116628917D01*
X214890392Y-116628917D01*
X214625835Y-116703042D01*
X214625821Y-116703048D01*
X214373808Y-116812511D01*
X214373800Y-116812516D01*
X214139031Y-116955282D01*
X214139029Y-116955283D01*
X214139025Y-116955286D01*
X213925897Y-117128678D01*
X213925888Y-117128687D01*
X213738343Y-117329497D01*
X213738341Y-117329501D01*
X213579887Y-117553980D01*
X213453480Y-117797934D01*
X213453478Y-117797938D01*
X213361461Y-118056846D01*
X213305557Y-118325876D01*
X213305556Y-118325878D01*
X213286807Y-118599995D01*
X151818336Y-118599995D01*
X151838538Y-118543153D01*
X151894442Y-118274130D01*
X151913193Y-118000000D01*
X151899372Y-117797938D01*
X151894443Y-117725878D01*
X151894442Y-117725876D01*
X151894442Y-117725870D01*
X151838538Y-117456847D01*
X151746523Y-117197942D01*
X151620111Y-116953977D01*
X151461657Y-116729498D01*
X151274111Y-116528686D01*
X151274105Y-116528681D01*
X151274102Y-116528678D01*
X151060974Y-116355286D01*
X151060973Y-116355285D01*
X151060969Y-116355282D01*
X150826200Y-116212516D01*
X150826197Y-116212514D01*
X150826191Y-116212511D01*
X150660237Y-116140428D01*
X150574177Y-116103047D01*
X150574173Y-116103045D01*
X150574164Y-116103042D01*
X150309607Y-116028917D01*
X150309599Y-116028915D01*
X150309596Y-116028915D01*
X150097202Y-115999721D01*
X150037386Y-115991500D01*
X150037385Y-115991500D01*
X149762615Y-115991500D01*
X149762613Y-115991500D01*
X149664531Y-116004981D01*
X149490404Y-116028915D01*
X149490400Y-116028915D01*
X149490393Y-116028917D01*
X149490392Y-116028917D01*
X149225835Y-116103042D01*
X149225821Y-116103048D01*
X148973808Y-116212511D01*
X148973800Y-116212516D01*
X148739031Y-116355282D01*
X148739029Y-116355283D01*
X148739025Y-116355286D01*
X148525897Y-116528678D01*
X148525888Y-116528687D01*
X148338343Y-116729497D01*
X148338341Y-116729501D01*
X148179887Y-116953980D01*
X148053480Y-117197934D01*
X148053478Y-117197938D01*
X147961461Y-117456846D01*
X147905557Y-117725876D01*
X147905556Y-117725878D01*
X147886807Y-117999995D01*
X142913193Y-117999995D01*
X142899372Y-117797938D01*
X142894443Y-117725878D01*
X142894442Y-117725876D01*
X142894442Y-117725870D01*
X142838538Y-117456847D01*
X142746523Y-117197942D01*
X142620111Y-116953977D01*
X142461657Y-116729498D01*
X142274111Y-116528686D01*
X142274105Y-116528681D01*
X142274102Y-116528678D01*
X142060974Y-116355286D01*
X142060973Y-116355285D01*
X142060969Y-116355282D01*
X141826200Y-116212516D01*
X141826197Y-116212514D01*
X141826191Y-116212511D01*
X141660237Y-116140428D01*
X141574177Y-116103047D01*
X141574173Y-116103045D01*
X141574164Y-116103042D01*
X141309607Y-116028917D01*
X141309599Y-116028915D01*
X141309596Y-116028915D01*
X141097202Y-115999721D01*
X141037386Y-115991500D01*
X141037385Y-115991500D01*
X140762615Y-115991500D01*
X140762613Y-115991500D01*
X140664531Y-116004981D01*
X140490404Y-116028915D01*
X140490400Y-116028915D01*
X140490393Y-116028917D01*
X140490392Y-116028917D01*
X140225835Y-116103042D01*
X140225821Y-116103048D01*
X139973808Y-116212511D01*
X139973800Y-116212516D01*
X139739031Y-116355282D01*
X139739029Y-116355283D01*
X139739025Y-116355286D01*
X139525897Y-116528678D01*
X139525888Y-116528687D01*
X139338343Y-116729497D01*
X139338341Y-116729501D01*
X139179887Y-116953980D01*
X139053480Y-117197934D01*
X139053478Y-117197938D01*
X138961461Y-117456846D01*
X138905557Y-117725876D01*
X138905556Y-117725878D01*
X138886807Y-117999995D01*
X134462705Y-117999995D01*
X134462772Y-115524999D01*
X150936496Y-115524999D01*
X150936496Y-115525000D01*
X150956457Y-115714925D01*
X150956458Y-115714928D01*
X151015473Y-115896556D01*
X151070289Y-115991500D01*
X151110961Y-116061946D01*
X151238743Y-116203862D01*
X151238747Y-116203866D01*
X151393248Y-116316118D01*
X151567712Y-116393794D01*
X151707812Y-116423573D01*
X151754512Y-116433500D01*
X151754513Y-116433500D01*
X151945487Y-116433500D01*
X152132288Y-116393794D01*
X152306752Y-116316118D01*
X152461253Y-116203866D01*
X152589040Y-116061944D01*
X152684527Y-115896556D01*
X152743542Y-115714928D01*
X152763504Y-115525000D01*
X152743542Y-115335072D01*
X152684527Y-115153444D01*
X152589040Y-114988056D01*
X152589039Y-114988055D01*
X152589038Y-114988053D01*
X152461256Y-114846137D01*
X152461255Y-114846136D01*
X152461254Y-114846135D01*
X152461253Y-114846134D01*
X152376757Y-114784743D01*
X152306754Y-114733883D01*
X152306752Y-114733882D01*
X152132288Y-114656206D01*
X152132284Y-114656205D01*
X151945487Y-114616500D01*
X151754513Y-114616500D01*
X151567715Y-114656205D01*
X151567713Y-114656205D01*
X151567712Y-114656206D01*
X151480480Y-114695044D01*
X151393245Y-114733883D01*
X151238744Y-114846136D01*
X151238743Y-114846137D01*
X151110961Y-114988053D01*
X151057576Y-115080519D01*
X151015473Y-115153444D01*
X151015473Y-115153445D01*
X150956458Y-115335071D01*
X150956457Y-115335074D01*
X150936496Y-115524999D01*
X134462772Y-115524999D01*
X134462864Y-112099997D01*
X164511930Y-112099997D01*
X164511930Y-112100002D01*
X164532179Y-112370216D01*
X164532181Y-112370231D01*
X164592479Y-112634408D01*
X164691482Y-112886665D01*
X164826970Y-113121338D01*
X164826974Y-113121343D01*
X164879092Y-113186697D01*
X165386328Y-112679460D01*
X165485967Y-112816602D01*
X165608398Y-112939033D01*
X165745537Y-113038670D01*
X165237454Y-113546753D01*
X165237455Y-113546754D01*
X165418461Y-113670163D01*
X165662612Y-113787739D01*
X165921557Y-113867613D01*
X166189502Y-113907999D01*
X166189515Y-113908000D01*
X166460485Y-113908000D01*
X166460497Y-113907999D01*
X166728442Y-113867613D01*
X166987387Y-113787739D01*
X167231531Y-113670166D01*
X167231534Y-113670164D01*
X167412543Y-113546754D01*
X167412543Y-113546753D01*
X166904461Y-113038670D01*
X167041602Y-112939033D01*
X167164033Y-112816602D01*
X167263670Y-112679461D01*
X167770906Y-113186697D01*
X167823025Y-113121344D01*
X167823029Y-113121338D01*
X167958517Y-112886665D01*
X168057520Y-112634408D01*
X168057521Y-112634408D01*
X168117818Y-112370231D01*
X168117820Y-112370216D01*
X168138070Y-112100002D01*
X168138070Y-112099997D01*
X177011930Y-112099997D01*
X177011930Y-112100002D01*
X177032179Y-112370216D01*
X177032181Y-112370231D01*
X177092479Y-112634408D01*
X177191482Y-112886665D01*
X177326970Y-113121338D01*
X177326974Y-113121343D01*
X177379092Y-113186697D01*
X177886328Y-112679460D01*
X177985967Y-112816602D01*
X178108398Y-112939033D01*
X178245537Y-113038670D01*
X177737454Y-113546753D01*
X177737455Y-113546754D01*
X177918461Y-113670163D01*
X178162612Y-113787739D01*
X178421557Y-113867613D01*
X178689502Y-113907999D01*
X178689515Y-113908000D01*
X178960485Y-113908000D01*
X178960497Y-113907999D01*
X179228442Y-113867613D01*
X179487387Y-113787739D01*
X179731531Y-113670166D01*
X179731534Y-113670164D01*
X179912543Y-113546754D01*
X179912543Y-113546753D01*
X179404461Y-113038670D01*
X179541602Y-112939033D01*
X179664033Y-112816602D01*
X179763670Y-112679461D01*
X180270906Y-113186697D01*
X180323025Y-113121344D01*
X180323029Y-113121338D01*
X180458517Y-112886665D01*
X180557520Y-112634408D01*
X180557521Y-112634408D01*
X180617818Y-112370231D01*
X180617820Y-112370216D01*
X180638070Y-112100002D01*
X180638070Y-112099997D01*
X180617820Y-111829783D01*
X180617818Y-111829768D01*
X180557520Y-111565591D01*
X180458517Y-111313334D01*
X180323029Y-111078661D01*
X180323025Y-111078656D01*
X180270906Y-111013301D01*
X179763669Y-111520537D01*
X179664033Y-111383398D01*
X179541602Y-111260967D01*
X179404460Y-111161329D01*
X179912544Y-110653245D01*
X179912543Y-110653244D01*
X179731538Y-110529836D01*
X179487387Y-110412260D01*
X179228442Y-110332386D01*
X178960497Y-110292000D01*
X178689502Y-110292000D01*
X178421557Y-110332386D01*
X178162612Y-110412260D01*
X177918461Y-110529836D01*
X177737455Y-110653244D01*
X177737454Y-110653245D01*
X178245538Y-111161329D01*
X178108398Y-111260967D01*
X177985967Y-111383398D01*
X177886329Y-111520538D01*
X177379092Y-111013301D01*
X177379092Y-111013302D01*
X177326969Y-111078663D01*
X177191482Y-111313334D01*
X177092479Y-111565591D01*
X177092478Y-111565591D01*
X177032181Y-111829768D01*
X177032179Y-111829783D01*
X177011930Y-112099997D01*
X168138070Y-112099997D01*
X168117820Y-111829783D01*
X168117818Y-111829768D01*
X168057520Y-111565591D01*
X167958517Y-111313334D01*
X167823029Y-111078661D01*
X167823025Y-111078656D01*
X167770906Y-111013301D01*
X167263669Y-111520537D01*
X167164033Y-111383398D01*
X167041602Y-111260967D01*
X166904460Y-111161329D01*
X167412544Y-110653245D01*
X167412543Y-110653244D01*
X167231538Y-110529836D01*
X166987387Y-110412260D01*
X166728442Y-110332386D01*
X166460497Y-110292000D01*
X166189502Y-110292000D01*
X165921557Y-110332386D01*
X165662612Y-110412260D01*
X165418461Y-110529836D01*
X165237455Y-110653244D01*
X165237454Y-110653245D01*
X165745538Y-111161329D01*
X165608398Y-111260967D01*
X165485967Y-111383398D01*
X165386329Y-111520538D01*
X164879092Y-111013301D01*
X164879092Y-111013302D01*
X164826969Y-111078663D01*
X164691482Y-111313334D01*
X164592479Y-111565591D01*
X164592478Y-111565591D01*
X164532181Y-111829768D01*
X164532179Y-111829783D01*
X164511930Y-112099997D01*
X134462864Y-112099997D01*
X134462969Y-108199999D01*
X158761496Y-108199999D01*
X158761496Y-108200000D01*
X158781457Y-108389925D01*
X158781458Y-108389928D01*
X158840473Y-108571556D01*
X158924679Y-108717405D01*
X158935961Y-108736946D01*
X159063743Y-108878862D01*
X159063747Y-108878866D01*
X159218248Y-108991118D01*
X159392712Y-109068794D01*
X159532812Y-109098573D01*
X159579512Y-109108500D01*
X159579513Y-109108500D01*
X159770487Y-109108500D01*
X159957288Y-109068794D01*
X160131752Y-108991118D01*
X160286253Y-108878866D01*
X160414040Y-108736944D01*
X160509527Y-108571556D01*
X160568542Y-108389928D01*
X160588504Y-108200000D01*
X160568542Y-108010072D01*
X160509527Y-107828444D01*
X160414040Y-107663056D01*
X160414039Y-107663055D01*
X160414038Y-107663053D01*
X160286256Y-107521137D01*
X160286255Y-107521136D01*
X160286254Y-107521135D01*
X160286253Y-107521134D01*
X160183603Y-107446554D01*
X160131754Y-107408883D01*
X160131752Y-107408882D01*
X159957288Y-107331206D01*
X159957284Y-107331205D01*
X159770487Y-107291500D01*
X159579513Y-107291500D01*
X159392715Y-107331205D01*
X159392713Y-107331205D01*
X159392712Y-107331206D01*
X159351623Y-107349500D01*
X159218245Y-107408883D01*
X159063744Y-107521136D01*
X159063743Y-107521137D01*
X158935961Y-107663053D01*
X158920656Y-107689563D01*
X158840473Y-107828444D01*
X158840473Y-107828445D01*
X158781458Y-108010071D01*
X158781457Y-108010074D01*
X158761496Y-108199999D01*
X134462969Y-108199999D01*
X134462999Y-107074999D01*
X161786496Y-107074999D01*
X161786496Y-107075000D01*
X161806457Y-107264925D01*
X161806458Y-107264928D01*
X161865473Y-107446556D01*
X161949679Y-107592405D01*
X161960961Y-107611946D01*
X162006981Y-107663056D01*
X162088747Y-107753866D01*
X162243248Y-107866118D01*
X162417712Y-107943794D01*
X162557812Y-107973573D01*
X162604512Y-107983500D01*
X162604513Y-107983500D01*
X162795487Y-107983500D01*
X162982288Y-107943794D01*
X163156752Y-107866118D01*
X163311253Y-107753866D01*
X163439040Y-107611944D01*
X163534527Y-107446556D01*
X163593542Y-107264928D01*
X163613504Y-107075000D01*
X163593542Y-106885072D01*
X163534527Y-106703444D01*
X163439040Y-106538056D01*
X163439039Y-106538055D01*
X163439038Y-106538053D01*
X163311256Y-106396137D01*
X163311255Y-106396136D01*
X163311254Y-106396135D01*
X163311253Y-106396134D01*
X163211281Y-106323500D01*
X163156754Y-106283883D01*
X163156752Y-106283882D01*
X162982288Y-106206206D01*
X162982284Y-106206205D01*
X162795487Y-106166500D01*
X162604513Y-106166500D01*
X162417715Y-106206205D01*
X162417713Y-106206205D01*
X162417712Y-106206206D01*
X162330480Y-106245044D01*
X162243245Y-106283883D01*
X162088744Y-106396136D01*
X162088743Y-106396137D01*
X161960961Y-106538053D01*
X161934182Y-106584436D01*
X161865473Y-106703444D01*
X161865473Y-106703445D01*
X161806458Y-106885071D01*
X161806457Y-106885074D01*
X161786496Y-107074999D01*
X134462999Y-107074999D01*
X134463038Y-105649999D01*
X157286496Y-105649999D01*
X157286496Y-105650000D01*
X157306457Y-105839925D01*
X157306458Y-105839928D01*
X157365473Y-106021556D01*
X157449157Y-106166500D01*
X157460961Y-106186946D01*
X157548243Y-106283882D01*
X157588747Y-106328866D01*
X157743248Y-106441118D01*
X157917712Y-106518794D01*
X158057812Y-106548573D01*
X158104512Y-106558500D01*
X158104513Y-106558500D01*
X158295487Y-106558500D01*
X158482288Y-106518794D01*
X158656752Y-106441118D01*
X158811253Y-106328866D01*
X158939040Y-106186944D01*
X159034527Y-106021556D01*
X159093542Y-105839928D01*
X159113504Y-105650000D01*
X159093542Y-105460072D01*
X159034527Y-105278444D01*
X158939040Y-105113056D01*
X158939039Y-105113055D01*
X158939038Y-105113053D01*
X158811256Y-104971137D01*
X158811255Y-104971136D01*
X158811254Y-104971135D01*
X158811253Y-104971134D01*
X158726757Y-104909743D01*
X158656754Y-104858883D01*
X158656752Y-104858882D01*
X158482288Y-104781206D01*
X158482284Y-104781205D01*
X158295487Y-104741500D01*
X158104513Y-104741500D01*
X157917715Y-104781205D01*
X157917713Y-104781205D01*
X157917712Y-104781206D01*
X157830480Y-104820044D01*
X157743245Y-104858883D01*
X157588744Y-104971136D01*
X157588743Y-104971137D01*
X157460961Y-105113053D01*
X157407576Y-105205519D01*
X157365473Y-105278444D01*
X157365473Y-105278445D01*
X157306458Y-105460071D01*
X157306457Y-105460074D01*
X157286496Y-105649999D01*
X134463038Y-105649999D01*
X134463131Y-102174999D01*
X156686496Y-102174999D01*
X156686496Y-102175000D01*
X156706457Y-102364925D01*
X156706458Y-102364928D01*
X156765473Y-102546556D01*
X156849679Y-102692405D01*
X156860961Y-102711946D01*
X156988743Y-102853862D01*
X156988747Y-102853866D01*
X157143248Y-102966118D01*
X157317712Y-103043794D01*
X157457812Y-103073573D01*
X157504512Y-103083500D01*
X157504513Y-103083500D01*
X157695487Y-103083500D01*
X157882288Y-103043794D01*
X158056752Y-102966118D01*
X158211253Y-102853866D01*
X158339040Y-102711944D01*
X158434527Y-102546556D01*
X158493542Y-102364928D01*
X158513504Y-102175000D01*
X158493542Y-101985072D01*
X158434527Y-101803444D01*
X158339040Y-101638056D01*
X158339039Y-101638055D01*
X158339038Y-101638053D01*
X158211256Y-101496137D01*
X158211255Y-101496136D01*
X158211254Y-101496135D01*
X158211253Y-101496134D01*
X158117490Y-101428011D01*
X158056754Y-101383883D01*
X158056752Y-101383882D01*
X157882288Y-101306206D01*
X157882284Y-101306205D01*
X157695487Y-101266500D01*
X157504513Y-101266500D01*
X157317715Y-101306205D01*
X157317713Y-101306205D01*
X157317712Y-101306206D01*
X157230480Y-101345044D01*
X157143245Y-101383883D01*
X156988744Y-101496136D01*
X156988743Y-101496137D01*
X156860961Y-101638053D01*
X156807576Y-101730519D01*
X156765473Y-101803444D01*
X156765473Y-101803445D01*
X156706458Y-101985071D01*
X156706457Y-101985074D01*
X156686496Y-102174999D01*
X134463131Y-102174999D01*
X134463192Y-99899999D01*
X154011496Y-99899999D01*
X154011496Y-99900000D01*
X154031457Y-100089925D01*
X154031458Y-100089928D01*
X154090473Y-100271556D01*
X154174679Y-100417405D01*
X154185961Y-100436946D01*
X154313743Y-100578862D01*
X154313747Y-100578866D01*
X154468248Y-100691118D01*
X154642712Y-100768794D01*
X154782812Y-100798573D01*
X154829512Y-100808500D01*
X154829513Y-100808500D01*
X155020487Y-100808500D01*
X155207288Y-100768794D01*
X155381752Y-100691118D01*
X155536253Y-100578866D01*
X155664040Y-100436944D01*
X155759527Y-100271556D01*
X155818542Y-100089928D01*
X155838504Y-99900000D01*
X155818542Y-99710072D01*
X155759527Y-99528444D01*
X155664040Y-99363056D01*
X155664039Y-99363055D01*
X155664038Y-99363053D01*
X155536256Y-99221137D01*
X155536255Y-99221136D01*
X155536254Y-99221135D01*
X155536253Y-99221134D01*
X155451757Y-99159743D01*
X155381754Y-99108883D01*
X155381752Y-99108882D01*
X155207288Y-99031206D01*
X155207284Y-99031205D01*
X155020487Y-98991500D01*
X154829513Y-98991500D01*
X154642715Y-99031205D01*
X154642713Y-99031205D01*
X154642712Y-99031206D01*
X154555480Y-99070044D01*
X154468245Y-99108883D01*
X154313744Y-99221136D01*
X154313743Y-99221137D01*
X154185961Y-99363053D01*
X154132576Y-99455519D01*
X154090473Y-99528444D01*
X154090473Y-99528445D01*
X154031458Y-99710071D01*
X154031457Y-99710074D01*
X154011496Y-99899999D01*
X134463192Y-99899999D01*
X134463325Y-94949999D01*
X154111496Y-94949999D01*
X154111496Y-94950000D01*
X154131457Y-95139925D01*
X154131458Y-95139928D01*
X154190473Y-95321556D01*
X154264342Y-95449500D01*
X154285961Y-95486946D01*
X154413743Y-95628862D01*
X154413747Y-95628866D01*
X154568248Y-95741118D01*
X154742712Y-95818794D01*
X154882812Y-95848573D01*
X154929512Y-95858500D01*
X154929513Y-95858500D01*
X155120487Y-95858500D01*
X155307288Y-95818794D01*
X155481752Y-95741118D01*
X155523982Y-95710436D01*
X165999500Y-95710436D01*
X165999500Y-107689563D01*
X166019976Y-107765981D01*
X166019981Y-107765995D01*
X166052637Y-107822554D01*
X166059540Y-107834511D01*
X166059542Y-107834513D01*
X166059545Y-107834517D01*
X166115482Y-107890454D01*
X166115485Y-107890456D01*
X166115489Y-107890460D01*
X166143771Y-107906789D01*
X166184004Y-107930018D01*
X166184008Y-107930019D01*
X166184011Y-107930021D01*
X166184016Y-107930022D01*
X166184018Y-107930023D01*
X166260436Y-107950500D01*
X166260438Y-107950500D01*
X184864564Y-107950500D01*
X184924828Y-107934351D01*
X184940989Y-107930021D01*
X184940992Y-107930018D01*
X184940995Y-107930018D01*
X184958923Y-107919666D01*
X185009511Y-107890460D01*
X185065460Y-107834511D01*
X185105021Y-107765989D01*
X185125500Y-107689562D01*
X185125500Y-106584436D01*
X195643500Y-106584436D01*
X195643500Y-110473563D01*
X195663976Y-110549981D01*
X195663981Y-110549995D01*
X195696637Y-110606554D01*
X195703540Y-110618511D01*
X195703542Y-110618513D01*
X195703545Y-110618517D01*
X195759482Y-110674454D01*
X195759485Y-110674456D01*
X195759489Y-110674460D01*
X195787771Y-110690789D01*
X195828004Y-110714018D01*
X195828008Y-110714019D01*
X195828011Y-110714021D01*
X195828016Y-110714022D01*
X195828018Y-110714023D01*
X195904436Y-110734500D01*
X195904438Y-110734500D01*
X206143564Y-110734500D01*
X206203828Y-110718351D01*
X206219989Y-110714021D01*
X206219992Y-110714018D01*
X206219995Y-110714018D01*
X206237923Y-110703666D01*
X206288511Y-110674460D01*
X206344460Y-110618511D01*
X206384021Y-110549989D01*
X206404500Y-110473562D01*
X206404500Y-106584438D01*
X206404500Y-106584436D01*
X206384023Y-106508018D01*
X206384018Y-106508004D01*
X206345399Y-106441116D01*
X206344460Y-106439489D01*
X206344456Y-106439485D01*
X206344454Y-106439482D01*
X206288517Y-106383545D01*
X206288513Y-106383542D01*
X206288511Y-106383540D01*
X206276554Y-106376637D01*
X206219995Y-106343981D01*
X206219981Y-106343976D01*
X206143564Y-106323500D01*
X206143562Y-106323500D01*
X195983562Y-106323500D01*
X195904438Y-106323500D01*
X195904436Y-106323500D01*
X195828018Y-106343976D01*
X195828004Y-106343981D01*
X195759492Y-106383538D01*
X195759482Y-106383545D01*
X195703545Y-106439482D01*
X195703538Y-106439492D01*
X195663981Y-106508004D01*
X195663976Y-106508018D01*
X195643500Y-106584436D01*
X185125500Y-106584436D01*
X185125500Y-101504436D01*
X195648535Y-101504436D01*
X195648535Y-104123563D01*
X195669011Y-104199981D01*
X195669016Y-104199995D01*
X195701672Y-104256554D01*
X195708575Y-104268511D01*
X195708577Y-104268513D01*
X195708580Y-104268517D01*
X195764517Y-104324454D01*
X195764520Y-104324456D01*
X195764524Y-104324460D01*
X195792806Y-104340789D01*
X195833039Y-104364018D01*
X195833043Y-104364019D01*
X195833046Y-104364021D01*
X195833051Y-104364022D01*
X195833053Y-104364023D01*
X195909471Y-104384500D01*
X195909473Y-104384500D01*
X206148599Y-104384500D01*
X206208863Y-104368351D01*
X206225024Y-104364021D01*
X206225027Y-104364018D01*
X206225030Y-104364018D01*
X206242958Y-104353666D01*
X206293546Y-104324460D01*
X206349495Y-104268511D01*
X206389056Y-104199989D01*
X206409535Y-104123562D01*
X206409535Y-101504438D01*
X206409535Y-101504436D01*
X206389058Y-101428018D01*
X206389053Y-101428004D01*
X206363578Y-101383882D01*
X206349495Y-101359489D01*
X206349491Y-101359485D01*
X206349489Y-101359482D01*
X206293552Y-101303545D01*
X206293548Y-101303542D01*
X206293546Y-101303540D01*
X206281589Y-101296637D01*
X206225030Y-101263981D01*
X206225016Y-101263976D01*
X206148599Y-101243500D01*
X206148597Y-101243500D01*
X195988597Y-101243500D01*
X195909473Y-101243500D01*
X195909471Y-101243500D01*
X195833053Y-101263976D01*
X195833039Y-101263981D01*
X195764527Y-101303538D01*
X195764517Y-101303545D01*
X195708580Y-101359482D01*
X195708573Y-101359492D01*
X195669016Y-101428004D01*
X195669011Y-101428018D01*
X195648535Y-101504436D01*
X185125500Y-101504436D01*
X185125500Y-95969772D01*
X199769500Y-95969772D01*
X199769500Y-96190227D01*
X199803983Y-96407945D01*
X199803985Y-96407953D01*
X199872104Y-96617606D01*
X199872105Y-96617608D01*
X199972180Y-96814014D01*
X199972185Y-96814022D01*
X200101756Y-96992363D01*
X200101758Y-96992365D01*
X200257635Y-97148242D01*
X200435978Y-97277815D01*
X200435981Y-97277816D01*
X200435985Y-97277819D01*
X200632391Y-97377894D01*
X200632393Y-97377895D01*
X200826924Y-97441100D01*
X200842049Y-97446015D01*
X200842051Y-97446015D01*
X200842054Y-97446016D01*
X201017801Y-97473851D01*
X201059778Y-97480500D01*
X201059781Y-97480500D01*
X201280219Y-97480500D01*
X201280222Y-97480500D01*
X201497951Y-97446015D01*
X201707606Y-97377895D01*
X201904022Y-97277815D01*
X202082365Y-97148242D01*
X202238242Y-96992365D01*
X202367815Y-96814022D01*
X202467895Y-96617606D01*
X202536015Y-96407951D01*
X202570500Y-96190222D01*
X202570500Y-95969778D01*
X202552875Y-95858500D01*
X202536016Y-95752054D01*
X202536014Y-95752046D01*
X202467895Y-95542393D01*
X202467894Y-95542391D01*
X202367819Y-95345985D01*
X202367814Y-95345977D01*
X202238243Y-95167636D01*
X202082363Y-95011756D01*
X201904022Y-94882185D01*
X201904014Y-94882180D01*
X201707608Y-94782105D01*
X201707606Y-94782104D01*
X201497953Y-94713985D01*
X201497945Y-94713983D01*
X201280227Y-94679500D01*
X201280222Y-94679500D01*
X201059778Y-94679500D01*
X201059772Y-94679500D01*
X200842054Y-94713983D01*
X200842046Y-94713985D01*
X200632393Y-94782104D01*
X200632391Y-94782105D01*
X200435985Y-94882180D01*
X200435977Y-94882185D01*
X200257636Y-95011756D01*
X200101756Y-95167636D01*
X199972185Y-95345977D01*
X199972180Y-95345985D01*
X199872105Y-95542391D01*
X199872104Y-95542393D01*
X199803985Y-95752046D01*
X199803983Y-95752054D01*
X199769500Y-95969772D01*
X185125500Y-95969772D01*
X185125500Y-95710438D01*
X185125500Y-95710436D01*
X185105023Y-95634018D01*
X185105018Y-95634004D01*
X185081789Y-95593771D01*
X185065460Y-95565489D01*
X185065456Y-95565485D01*
X185065454Y-95565482D01*
X185009517Y-95509545D01*
X185009513Y-95509542D01*
X185009511Y-95509540D01*
X184997554Y-95502637D01*
X184940995Y-95469981D01*
X184940981Y-95469976D01*
X184864564Y-95449500D01*
X184864562Y-95449500D01*
X166339562Y-95449500D01*
X166260438Y-95449500D01*
X166260436Y-95449500D01*
X166184018Y-95469976D01*
X166184004Y-95469981D01*
X166115492Y-95509538D01*
X166115482Y-95509545D01*
X166059545Y-95565482D01*
X166059538Y-95565492D01*
X166019981Y-95634004D01*
X166019976Y-95634018D01*
X165999500Y-95710436D01*
X155523982Y-95710436D01*
X155636253Y-95628866D01*
X155764040Y-95486944D01*
X155859527Y-95321556D01*
X155918542Y-95139928D01*
X155938504Y-94950000D01*
X155918542Y-94760072D01*
X155859527Y-94578444D01*
X155764040Y-94413056D01*
X155764039Y-94413055D01*
X155764038Y-94413053D01*
X155636256Y-94271137D01*
X155636255Y-94271136D01*
X155636254Y-94271135D01*
X155636253Y-94271134D01*
X155551757Y-94209743D01*
X155481754Y-94158883D01*
X155481752Y-94158882D01*
X155307288Y-94081206D01*
X155307284Y-94081205D01*
X155120487Y-94041500D01*
X154929513Y-94041500D01*
X154742715Y-94081205D01*
X154742713Y-94081205D01*
X154742712Y-94081206D01*
X154655480Y-94120044D01*
X154568245Y-94158883D01*
X154413744Y-94271136D01*
X154413743Y-94271137D01*
X154285961Y-94413053D01*
X154232576Y-94505519D01*
X154190473Y-94578444D01*
X154190473Y-94578445D01*
X154131458Y-94760071D01*
X154131457Y-94760074D01*
X154111496Y-94949999D01*
X134463325Y-94949999D01*
X134463445Y-90499999D01*
X154986496Y-90499999D01*
X154986496Y-90500000D01*
X155006457Y-90689925D01*
X155006458Y-90689928D01*
X155065473Y-90871556D01*
X155149679Y-91017405D01*
X155160961Y-91036946D01*
X155288743Y-91178862D01*
X155288747Y-91178866D01*
X155443248Y-91291118D01*
X155617712Y-91368794D01*
X155757812Y-91398573D01*
X155804512Y-91408500D01*
X155804513Y-91408500D01*
X155995487Y-91408500D01*
X156182288Y-91368794D01*
X156336809Y-91299997D01*
X164511930Y-91299997D01*
X164511930Y-91300002D01*
X164532179Y-91570216D01*
X164532181Y-91570231D01*
X164592479Y-91834408D01*
X164691482Y-92086665D01*
X164826970Y-92321338D01*
X164826974Y-92321343D01*
X164879092Y-92386697D01*
X165386328Y-91879460D01*
X165485967Y-92016602D01*
X165608398Y-92139033D01*
X165745537Y-92238670D01*
X165237454Y-92746753D01*
X165237455Y-92746754D01*
X165418461Y-92870163D01*
X165662612Y-92987739D01*
X165921557Y-93067613D01*
X166189502Y-93107999D01*
X166189515Y-93108000D01*
X166460485Y-93108000D01*
X166460497Y-93107999D01*
X166728442Y-93067613D01*
X166987387Y-92987739D01*
X167231531Y-92870166D01*
X167231534Y-92870164D01*
X167412543Y-92746754D01*
X167412543Y-92746753D01*
X166904461Y-92238670D01*
X167041602Y-92139033D01*
X167164033Y-92016602D01*
X167263670Y-91879461D01*
X167770906Y-92386697D01*
X167823025Y-92321344D01*
X167823029Y-92321338D01*
X167958517Y-92086665D01*
X168057520Y-91834408D01*
X168057521Y-91834408D01*
X168117818Y-91570231D01*
X168117820Y-91570216D01*
X168138070Y-91300002D01*
X168138070Y-91299997D01*
X177011930Y-91299997D01*
X177011930Y-91300002D01*
X177032179Y-91570216D01*
X177032181Y-91570231D01*
X177092479Y-91834408D01*
X177191482Y-92086665D01*
X177326970Y-92321338D01*
X177326974Y-92321343D01*
X177379092Y-92386697D01*
X177886328Y-91879460D01*
X177985967Y-92016602D01*
X178108398Y-92139033D01*
X178245537Y-92238670D01*
X177737454Y-92746753D01*
X177737455Y-92746754D01*
X177918461Y-92870163D01*
X178162612Y-92987739D01*
X178421557Y-93067613D01*
X178689502Y-93107999D01*
X178689515Y-93108000D01*
X178960485Y-93108000D01*
X178960497Y-93107999D01*
X179228442Y-93067613D01*
X179487387Y-92987739D01*
X179731531Y-92870166D01*
X179731534Y-92870164D01*
X179912543Y-92746754D01*
X179912543Y-92746753D01*
X179404461Y-92238670D01*
X179541602Y-92139033D01*
X179664033Y-92016602D01*
X179763670Y-91879461D01*
X180270906Y-92386697D01*
X180323025Y-92321344D01*
X180323029Y-92321338D01*
X180458517Y-92086665D01*
X180557520Y-91834408D01*
X180557521Y-91834408D01*
X180617818Y-91570231D01*
X180617820Y-91570216D01*
X180638070Y-91300002D01*
X180638070Y-91299997D01*
X180617820Y-91029783D01*
X180617818Y-91029768D01*
X180597328Y-90939998D01*
X191621950Y-90939998D01*
X191621950Y-90940001D01*
X191642117Y-91196247D01*
X191702121Y-91446185D01*
X191800484Y-91683654D01*
X191800486Y-91683657D01*
X191934790Y-91902822D01*
X191936253Y-91904535D01*
X192504227Y-91336561D01*
X192506740Y-91342626D01*
X192599762Y-91481844D01*
X192718156Y-91600238D01*
X192857374Y-91693260D01*
X192863436Y-91695771D01*
X192295462Y-92263745D01*
X192297180Y-92265211D01*
X192516341Y-92399513D01*
X192516345Y-92399515D01*
X192753814Y-92497878D01*
X193003752Y-92557882D01*
X193003751Y-92557882D01*
X193259999Y-92578050D01*
X193260001Y-92578050D01*
X193516247Y-92557882D01*
X193766185Y-92497878D01*
X194003654Y-92399515D01*
X194003663Y-92399510D01*
X194222820Y-92265211D01*
X194224535Y-92263746D01*
X194224536Y-92263745D01*
X193656562Y-91695771D01*
X193662626Y-91693260D01*
X193801844Y-91600238D01*
X193920238Y-91481844D01*
X194013260Y-91342626D01*
X194015771Y-91336562D01*
X194583745Y-91904536D01*
X194583746Y-91904535D01*
X194585211Y-91902820D01*
X194719510Y-91683663D01*
X194719515Y-91683654D01*
X194817878Y-91446185D01*
X194877882Y-91196247D01*
X194898050Y-90940001D01*
X194898050Y-90939998D01*
X196701950Y-90939998D01*
X196701950Y-90940001D01*
X196722117Y-91196247D01*
X196782121Y-91446185D01*
X196880484Y-91683654D01*
X196880486Y-91683657D01*
X197014790Y-91902822D01*
X197016253Y-91904535D01*
X197584227Y-91336561D01*
X197586740Y-91342626D01*
X197679762Y-91481844D01*
X197798156Y-91600238D01*
X197937374Y-91693260D01*
X197943436Y-91695771D01*
X197375462Y-92263745D01*
X197377180Y-92265211D01*
X197596341Y-92399513D01*
X197596345Y-92399515D01*
X197833814Y-92497878D01*
X198083752Y-92557882D01*
X198083751Y-92557882D01*
X198339999Y-92578050D01*
X198340001Y-92578050D01*
X198596247Y-92557882D01*
X198846185Y-92497878D01*
X199083654Y-92399515D01*
X199083663Y-92399510D01*
X199302820Y-92265211D01*
X199304535Y-92263746D01*
X199304536Y-92263745D01*
X198736562Y-91695771D01*
X198742626Y-91693260D01*
X198881844Y-91600238D01*
X199000238Y-91481844D01*
X199093260Y-91342626D01*
X199095771Y-91336562D01*
X199663745Y-91904536D01*
X199663746Y-91904535D01*
X199665211Y-91902820D01*
X199799510Y-91683663D01*
X199799515Y-91683654D01*
X199897878Y-91446185D01*
X199957882Y-91196247D01*
X199978050Y-90940001D01*
X199978050Y-90939998D01*
X199957882Y-90683752D01*
X199897878Y-90433814D01*
X199799515Y-90196345D01*
X199799513Y-90196341D01*
X199665211Y-89977180D01*
X199663745Y-89975462D01*
X199095771Y-90543436D01*
X199093260Y-90537374D01*
X199000238Y-90398156D01*
X198881844Y-90279762D01*
X198742626Y-90186740D01*
X198736561Y-90184228D01*
X199304535Y-89616253D01*
X199302822Y-89614790D01*
X199083657Y-89480486D01*
X199083654Y-89480484D01*
X198846185Y-89382121D01*
X198596247Y-89322117D01*
X198596248Y-89322117D01*
X198340001Y-89301950D01*
X198339999Y-89301950D01*
X198083752Y-89322117D01*
X197833814Y-89382121D01*
X197596345Y-89480484D01*
X197596342Y-89480486D01*
X197377179Y-89614789D01*
X197377171Y-89614795D01*
X197375463Y-89616252D01*
X197375463Y-89616253D01*
X197943437Y-90184228D01*
X197937374Y-90186740D01*
X197798156Y-90279762D01*
X197679762Y-90398156D01*
X197586740Y-90537374D01*
X197584228Y-90543437D01*
X197016253Y-89975463D01*
X197016252Y-89975463D01*
X197014795Y-89977171D01*
X197014789Y-89977179D01*
X196880486Y-90196342D01*
X196880484Y-90196345D01*
X196782121Y-90433814D01*
X196722117Y-90683752D01*
X196701950Y-90939998D01*
X194898050Y-90939998D01*
X194877882Y-90683752D01*
X194817878Y-90433814D01*
X194719515Y-90196345D01*
X194719513Y-90196341D01*
X194585211Y-89977180D01*
X194583745Y-89975462D01*
X194015771Y-90543436D01*
X194013260Y-90537374D01*
X193920238Y-90398156D01*
X193801844Y-90279762D01*
X193662626Y-90186740D01*
X193656561Y-90184228D01*
X194224536Y-89616253D01*
X194222822Y-89614790D01*
X194003657Y-89480486D01*
X194003654Y-89480484D01*
X193766185Y-89382121D01*
X193516247Y-89322117D01*
X193516248Y-89322117D01*
X193260001Y-89301950D01*
X193259999Y-89301950D01*
X193003752Y-89322117D01*
X192753814Y-89382121D01*
X192516345Y-89480484D01*
X192516342Y-89480486D01*
X192297179Y-89614789D01*
X192297171Y-89614795D01*
X192295463Y-89616252D01*
X192295463Y-89616253D01*
X192863437Y-90184228D01*
X192857374Y-90186740D01*
X192718156Y-90279762D01*
X192599762Y-90398156D01*
X192506740Y-90537374D01*
X192504228Y-90543437D01*
X191936253Y-89975463D01*
X191936252Y-89975463D01*
X191934795Y-89977171D01*
X191934789Y-89977179D01*
X191800486Y-90196342D01*
X191800484Y-90196345D01*
X191702121Y-90433814D01*
X191642117Y-90683752D01*
X191621950Y-90939998D01*
X180597328Y-90939998D01*
X180557520Y-90765591D01*
X180458517Y-90513334D01*
X180323029Y-90278661D01*
X180323025Y-90278656D01*
X180270906Y-90213301D01*
X179763669Y-90720537D01*
X179664033Y-90583398D01*
X179541602Y-90460967D01*
X179404460Y-90361329D01*
X179912544Y-89853245D01*
X179912543Y-89853244D01*
X179731538Y-89729836D01*
X179487387Y-89612260D01*
X179228442Y-89532386D01*
X178960497Y-89492000D01*
X178689502Y-89492000D01*
X178421557Y-89532386D01*
X178162612Y-89612260D01*
X177918461Y-89729836D01*
X177737455Y-89853244D01*
X177737454Y-89853245D01*
X178245538Y-90361329D01*
X178108398Y-90460967D01*
X177985967Y-90583398D01*
X177886329Y-90720538D01*
X177379092Y-90213301D01*
X177379092Y-90213302D01*
X177326969Y-90278663D01*
X177191482Y-90513334D01*
X177092479Y-90765591D01*
X177092478Y-90765591D01*
X177032181Y-91029768D01*
X177032179Y-91029783D01*
X177011930Y-91299997D01*
X168138070Y-91299997D01*
X168117820Y-91029783D01*
X168117818Y-91029768D01*
X168057520Y-90765591D01*
X167958517Y-90513334D01*
X167823029Y-90278661D01*
X167823025Y-90278656D01*
X167770906Y-90213301D01*
X167263669Y-90720537D01*
X167164033Y-90583398D01*
X167041602Y-90460967D01*
X166904460Y-90361329D01*
X167412544Y-89853245D01*
X167412543Y-89853244D01*
X167231538Y-89729836D01*
X166987387Y-89612260D01*
X166728442Y-89532386D01*
X166460497Y-89492000D01*
X166189502Y-89492000D01*
X165921557Y-89532386D01*
X165662612Y-89612260D01*
X165418461Y-89729836D01*
X165237455Y-89853244D01*
X165237454Y-89853245D01*
X165745538Y-90361329D01*
X165608398Y-90460967D01*
X165485967Y-90583398D01*
X165386329Y-90720538D01*
X164879092Y-90213301D01*
X164879092Y-90213302D01*
X164826969Y-90278663D01*
X164691482Y-90513334D01*
X164592479Y-90765591D01*
X164592478Y-90765591D01*
X164532181Y-91029768D01*
X164532179Y-91029783D01*
X164511930Y-91299997D01*
X156336809Y-91299997D01*
X156356752Y-91291118D01*
X156511253Y-91178866D01*
X156639040Y-91036944D01*
X156734527Y-90871556D01*
X156793542Y-90689928D01*
X156813504Y-90500000D01*
X156793542Y-90310072D01*
X156734527Y-90128444D01*
X156639040Y-89963056D01*
X156639039Y-89963055D01*
X156639038Y-89963053D01*
X156511256Y-89821137D01*
X156511255Y-89821136D01*
X156511254Y-89821135D01*
X156511253Y-89821134D01*
X156385593Y-89729836D01*
X156356754Y-89708883D01*
X156356752Y-89708882D01*
X156182288Y-89631206D01*
X156182284Y-89631205D01*
X155995487Y-89591500D01*
X155804513Y-89591500D01*
X155617715Y-89631205D01*
X155617713Y-89631205D01*
X155617712Y-89631206D01*
X155587934Y-89644464D01*
X155443245Y-89708883D01*
X155288744Y-89821136D01*
X155288743Y-89821137D01*
X155160961Y-89963053D01*
X155152805Y-89977180D01*
X155065473Y-90128444D01*
X155042223Y-90200000D01*
X155006458Y-90310071D01*
X155006457Y-90310074D01*
X154986496Y-90499999D01*
X134463445Y-90499999D01*
X134463502Y-88399998D01*
X194261758Y-88399998D01*
X194261758Y-88400001D01*
X194280696Y-88640634D01*
X194337044Y-88875343D01*
X194429413Y-89098342D01*
X194429415Y-89098345D01*
X194555536Y-89304156D01*
X194555541Y-89304162D01*
X194712298Y-89487701D01*
X194833831Y-89591500D01*
X194895844Y-89644464D01*
X195101653Y-89770584D01*
X195101655Y-89770585D01*
X195101657Y-89770586D01*
X195324656Y-89862955D01*
X195381005Y-89876483D01*
X195559366Y-89919304D01*
X195779443Y-89936624D01*
X195799999Y-89938242D01*
X195800000Y-89938242D01*
X195800001Y-89938242D01*
X195817557Y-89936860D01*
X196040634Y-89919304D01*
X196275343Y-89862955D01*
X196498347Y-89770584D01*
X196704156Y-89644464D01*
X196887701Y-89487701D01*
X197044464Y-89304156D01*
X197170584Y-89098347D01*
X197262955Y-88875343D01*
X197319304Y-88640634D01*
X197338242Y-88400000D01*
X197319304Y-88159366D01*
X197262955Y-87924657D01*
X197170584Y-87701653D01*
X197044464Y-87495844D01*
X197029123Y-87477882D01*
X196887701Y-87312298D01*
X196704162Y-87155541D01*
X196704156Y-87155536D01*
X196498345Y-87029415D01*
X196498342Y-87029413D01*
X196275343Y-86937044D01*
X196040634Y-86880696D01*
X196040635Y-86880696D01*
X195800001Y-86861758D01*
X195799999Y-86861758D01*
X195559365Y-86880696D01*
X195324656Y-86937044D01*
X195101657Y-87029413D01*
X195101654Y-87029415D01*
X194895843Y-87155536D01*
X194895837Y-87155541D01*
X194712298Y-87312298D01*
X194555541Y-87495837D01*
X194555536Y-87495843D01*
X194429415Y-87701654D01*
X194429413Y-87701657D01*
X194337044Y-87924656D01*
X194280696Y-88159365D01*
X194261758Y-88399998D01*
X134463502Y-88399998D01*
X134463570Y-85859998D01*
X191621950Y-85859998D01*
X191621950Y-85860001D01*
X191642117Y-86116247D01*
X191702121Y-86366185D01*
X191800484Y-86603654D01*
X191800486Y-86603657D01*
X191934790Y-86822822D01*
X191936253Y-86824535D01*
X192504227Y-86256561D01*
X192506740Y-86262626D01*
X192599762Y-86401844D01*
X192718156Y-86520238D01*
X192857374Y-86613260D01*
X192863436Y-86615771D01*
X192295462Y-87183745D01*
X192297180Y-87185211D01*
X192516341Y-87319513D01*
X192516345Y-87319515D01*
X192753814Y-87417878D01*
X193003752Y-87477882D01*
X193003751Y-87477882D01*
X193259999Y-87498050D01*
X193260001Y-87498050D01*
X193516247Y-87477882D01*
X193766185Y-87417878D01*
X194003654Y-87319515D01*
X194003663Y-87319510D01*
X194222820Y-87185211D01*
X194224535Y-87183746D01*
X194224536Y-87183745D01*
X193656562Y-86615771D01*
X193662626Y-86613260D01*
X193801844Y-86520238D01*
X193920238Y-86401844D01*
X194013260Y-86262626D01*
X194015771Y-86256562D01*
X194583745Y-86824536D01*
X194583746Y-86824535D01*
X194585211Y-86822820D01*
X194719510Y-86603663D01*
X194719515Y-86603654D01*
X194817878Y-86366185D01*
X194877882Y-86116247D01*
X194898050Y-85860001D01*
X194898050Y-85859998D01*
X196701950Y-85859998D01*
X196701950Y-85860001D01*
X196722117Y-86116247D01*
X196782121Y-86366185D01*
X196880484Y-86603654D01*
X196880486Y-86603657D01*
X197014790Y-86822822D01*
X197016253Y-86824535D01*
X197584227Y-86256561D01*
X197586740Y-86262626D01*
X197679762Y-86401844D01*
X197798156Y-86520238D01*
X197937374Y-86613260D01*
X197943436Y-86615771D01*
X197375462Y-87183745D01*
X197377180Y-87185211D01*
X197596341Y-87319513D01*
X197596345Y-87319515D01*
X197833814Y-87417878D01*
X198083752Y-87477882D01*
X198083751Y-87477882D01*
X198339999Y-87498050D01*
X198340001Y-87498050D01*
X198596247Y-87477882D01*
X198846185Y-87417878D01*
X199083654Y-87319515D01*
X199083663Y-87319510D01*
X199302820Y-87185211D01*
X199304535Y-87183746D01*
X199304536Y-87183745D01*
X198736562Y-86615771D01*
X198742626Y-86613260D01*
X198881844Y-86520238D01*
X199000238Y-86401844D01*
X199093260Y-86262626D01*
X199095771Y-86256562D01*
X199663745Y-86824536D01*
X199663746Y-86824535D01*
X199665211Y-86822820D01*
X199799510Y-86603663D01*
X199799515Y-86603654D01*
X199897878Y-86366185D01*
X199957882Y-86116247D01*
X199978050Y-85860001D01*
X199978050Y-85859998D01*
X199957882Y-85603752D01*
X199897878Y-85353814D01*
X199799515Y-85116345D01*
X199799513Y-85116341D01*
X199665211Y-84897180D01*
X199663745Y-84895462D01*
X199095771Y-85463436D01*
X199093260Y-85457374D01*
X199000238Y-85318156D01*
X198881844Y-85199762D01*
X198742626Y-85106740D01*
X198736561Y-85104228D01*
X199304535Y-84536253D01*
X199302822Y-84534790D01*
X199083657Y-84400486D01*
X199083654Y-84400484D01*
X198846185Y-84302121D01*
X198596247Y-84242117D01*
X198596248Y-84242117D01*
X198340001Y-84221950D01*
X198339999Y-84221950D01*
X198083752Y-84242117D01*
X197833814Y-84302121D01*
X197596345Y-84400484D01*
X197596342Y-84400486D01*
X197377179Y-84534789D01*
X197377171Y-84534795D01*
X197375463Y-84536252D01*
X197375463Y-84536253D01*
X197943437Y-85104228D01*
X197937374Y-85106740D01*
X197798156Y-85199762D01*
X197679762Y-85318156D01*
X197586740Y-85457374D01*
X197584228Y-85463437D01*
X197016253Y-84895463D01*
X197016252Y-84895463D01*
X197014795Y-84897171D01*
X197014789Y-84897179D01*
X196880486Y-85116342D01*
X196880484Y-85116345D01*
X196782121Y-85353814D01*
X196722117Y-85603752D01*
X196701950Y-85859998D01*
X194898050Y-85859998D01*
X194877882Y-85603752D01*
X194817878Y-85353814D01*
X194719515Y-85116345D01*
X194719513Y-85116341D01*
X194585211Y-84897180D01*
X194583745Y-84895462D01*
X194015771Y-85463436D01*
X194013260Y-85457374D01*
X193920238Y-85318156D01*
X193801844Y-85199762D01*
X193662626Y-85106740D01*
X193656561Y-85104228D01*
X194224536Y-84536253D01*
X194222822Y-84534790D01*
X194003657Y-84400486D01*
X194003654Y-84400484D01*
X193766185Y-84302121D01*
X193516247Y-84242117D01*
X193516248Y-84242117D01*
X193260001Y-84221950D01*
X193259999Y-84221950D01*
X193003752Y-84242117D01*
X192753814Y-84302121D01*
X192516345Y-84400484D01*
X192516342Y-84400486D01*
X192297179Y-84534789D01*
X192297171Y-84534795D01*
X192295463Y-84536252D01*
X192295463Y-84536253D01*
X192863437Y-85104228D01*
X192857374Y-85106740D01*
X192718156Y-85199762D01*
X192599762Y-85318156D01*
X192506740Y-85457374D01*
X192504228Y-85463437D01*
X191936253Y-84895463D01*
X191936252Y-84895463D01*
X191934795Y-84897171D01*
X191934789Y-84897179D01*
X191800486Y-85116342D01*
X191800484Y-85116345D01*
X191702121Y-85353814D01*
X191642117Y-85603752D01*
X191621950Y-85859998D01*
X134463570Y-85859998D01*
X134463740Y-79540623D01*
X134463975Y-70799999D01*
X144511496Y-70799999D01*
X144511496Y-70800000D01*
X144531457Y-70989925D01*
X144531458Y-70989928D01*
X144590473Y-71171556D01*
X144674679Y-71317405D01*
X144685961Y-71336946D01*
X144813743Y-71478862D01*
X144813747Y-71478866D01*
X144968248Y-71591118D01*
X145142712Y-71668794D01*
X145282812Y-71698573D01*
X145329512Y-71708500D01*
X145329513Y-71708500D01*
X145520487Y-71708500D01*
X145707288Y-71668794D01*
X145881752Y-71591118D01*
X146036253Y-71478866D01*
X146164040Y-71336944D01*
X146259527Y-71171556D01*
X146318542Y-70989928D01*
X146338504Y-70800000D01*
X146321208Y-70635436D01*
X162409946Y-70635436D01*
X162409946Y-81014563D01*
X162430422Y-81090981D01*
X162430427Y-81090995D01*
X162463083Y-81147554D01*
X162469986Y-81159511D01*
X162469988Y-81159513D01*
X162469991Y-81159517D01*
X162525928Y-81215454D01*
X162525931Y-81215456D01*
X162525935Y-81215460D01*
X162554217Y-81231789D01*
X162594450Y-81255018D01*
X162594454Y-81255019D01*
X162594457Y-81255021D01*
X162594462Y-81255022D01*
X162594464Y-81255023D01*
X162670882Y-81275500D01*
X162670884Y-81275500D01*
X182485326Y-81275500D01*
X182710808Y-81275587D01*
X182710808Y-81275586D01*
X182710818Y-81275587D01*
X182710827Y-81275586D01*
X182710833Y-81275586D01*
X182982832Y-81253150D01*
X183160274Y-81238515D01*
X183605133Y-81164444D01*
X183895611Y-81090989D01*
X184042343Y-81053884D01*
X184042346Y-81053882D01*
X184042354Y-81053881D01*
X184468947Y-80907582D01*
X184881999Y-80726545D01*
X185278685Y-80512009D01*
X185656295Y-80265440D01*
X185909775Y-80068243D01*
X186012232Y-79988536D01*
X186012236Y-79988531D01*
X186012248Y-79988523D01*
X186344111Y-79683150D01*
X186649617Y-79351408D01*
X186926676Y-78995566D01*
X186995817Y-78889772D01*
X199769500Y-78889772D01*
X199769500Y-79110227D01*
X199803983Y-79327945D01*
X199803985Y-79327953D01*
X199872104Y-79537606D01*
X199872105Y-79537608D01*
X199972180Y-79734014D01*
X199972185Y-79734022D01*
X200101756Y-79912363D01*
X200101758Y-79912365D01*
X200257635Y-80068242D01*
X200435978Y-80197815D01*
X200435981Y-80197816D01*
X200435985Y-80197819D01*
X200632391Y-80297894D01*
X200632393Y-80297895D01*
X200826924Y-80361100D01*
X200842049Y-80366015D01*
X200842051Y-80366015D01*
X200842054Y-80366016D01*
X201017801Y-80393851D01*
X201059778Y-80400500D01*
X201059781Y-80400500D01*
X201280219Y-80400500D01*
X201280222Y-80400500D01*
X201497951Y-80366015D01*
X201707606Y-80297895D01*
X201904022Y-80197815D01*
X202082365Y-80068242D01*
X202238242Y-79912365D01*
X202367815Y-79734022D01*
X202467895Y-79537606D01*
X202536015Y-79327951D01*
X202570500Y-79110222D01*
X202570500Y-78889778D01*
X202536015Y-78672049D01*
X202518467Y-78618041D01*
X202467895Y-78462393D01*
X202467894Y-78462391D01*
X202367819Y-78265985D01*
X202367814Y-78265977D01*
X202238243Y-78087636D01*
X202082363Y-77931756D01*
X201904022Y-77802185D01*
X201904014Y-77802180D01*
X201707608Y-77702105D01*
X201707606Y-77702104D01*
X201497953Y-77633985D01*
X201497945Y-77633983D01*
X201280227Y-77599500D01*
X201280222Y-77599500D01*
X201059778Y-77599500D01*
X201059772Y-77599500D01*
X200842054Y-77633983D01*
X200842046Y-77633985D01*
X200632393Y-77702104D01*
X200632391Y-77702105D01*
X200435985Y-77802180D01*
X200435977Y-77802185D01*
X200257636Y-77931756D01*
X200101756Y-78087636D01*
X199972185Y-78265977D01*
X199972180Y-78265985D01*
X199872105Y-78462391D01*
X199872104Y-78462393D01*
X199803985Y-78672046D01*
X199803983Y-78672054D01*
X199769500Y-78889772D01*
X186995817Y-78889772D01*
X187173396Y-78618054D01*
X187388090Y-78221453D01*
X187569291Y-77808474D01*
X187715761Y-77381939D01*
X187826498Y-76944763D01*
X187900746Y-76499934D01*
X187937998Y-76050492D01*
X187937998Y-75599508D01*
X187900746Y-75150066D01*
X187826498Y-74705237D01*
X187715761Y-74268061D01*
X187569291Y-73841526D01*
X187388090Y-73428547D01*
X187388084Y-73428535D01*
X187388082Y-73428531D01*
X187173402Y-73031958D01*
X187173396Y-73031946D01*
X186926676Y-72654434D01*
X186649617Y-72298592D01*
X186649611Y-72298585D01*
X186344106Y-71966844D01*
X186012251Y-71661480D01*
X186012232Y-71661463D01*
X185656300Y-71384563D01*
X185656296Y-71384560D01*
X185278697Y-71137998D01*
X185278689Y-71137993D01*
X185278685Y-71137991D01*
X184994755Y-70984436D01*
X195848535Y-70984436D01*
X195848535Y-73603563D01*
X195869011Y-73679981D01*
X195869016Y-73679995D01*
X195901672Y-73736554D01*
X195908575Y-73748511D01*
X195908577Y-73748513D01*
X195908580Y-73748517D01*
X195964517Y-73804454D01*
X195964520Y-73804456D01*
X195964524Y-73804460D01*
X195992806Y-73820789D01*
X196033039Y-73844018D01*
X196033043Y-73844019D01*
X196033046Y-73844021D01*
X196033051Y-73844022D01*
X196033053Y-73844023D01*
X196109471Y-73864500D01*
X196109473Y-73864500D01*
X206348599Y-73864500D01*
X206408863Y-73848351D01*
X206425024Y-73844021D01*
X206425027Y-73844018D01*
X206425030Y-73844018D01*
X206442958Y-73833666D01*
X206493546Y-73804460D01*
X206549495Y-73748511D01*
X206589056Y-73679989D01*
X206609535Y-73603562D01*
X206609535Y-70984438D01*
X206609535Y-70984436D01*
X206589058Y-70908018D01*
X206589053Y-70908004D01*
X206565824Y-70867771D01*
X206549495Y-70839489D01*
X206549491Y-70839485D01*
X206549489Y-70839482D01*
X206493552Y-70783545D01*
X206493548Y-70783542D01*
X206493546Y-70783540D01*
X206481589Y-70776637D01*
X206425030Y-70743981D01*
X206425016Y-70743976D01*
X206348599Y-70723500D01*
X206348597Y-70723500D01*
X196188597Y-70723500D01*
X196109473Y-70723500D01*
X196109471Y-70723500D01*
X196033053Y-70743976D01*
X196033039Y-70743981D01*
X195964527Y-70783538D01*
X195964517Y-70783545D01*
X195908580Y-70839482D01*
X195908573Y-70839492D01*
X195869016Y-70908004D01*
X195869011Y-70908018D01*
X195848535Y-70984436D01*
X184994755Y-70984436D01*
X184881999Y-70923455D01*
X184675473Y-70832936D01*
X184468945Y-70742417D01*
X184042362Y-70596121D01*
X184042343Y-70596115D01*
X183605141Y-70485557D01*
X183382373Y-70448465D01*
X183160274Y-70411485D01*
X183160270Y-70411484D01*
X183160260Y-70411483D01*
X182710833Y-70374413D01*
X182710808Y-70374412D01*
X182485326Y-70374500D01*
X162670882Y-70374500D01*
X162594464Y-70394976D01*
X162594450Y-70394981D01*
X162525938Y-70434538D01*
X162525928Y-70434545D01*
X162469991Y-70490482D01*
X162469984Y-70490492D01*
X162430427Y-70559004D01*
X162430422Y-70559018D01*
X162409946Y-70635436D01*
X146321208Y-70635436D01*
X146318542Y-70610072D01*
X146259527Y-70428444D01*
X146164040Y-70263056D01*
X146164039Y-70263055D01*
X146164038Y-70263053D01*
X146036256Y-70121137D01*
X146036255Y-70121136D01*
X146036254Y-70121135D01*
X146036253Y-70121134D01*
X145951757Y-70059743D01*
X145881754Y-70008883D01*
X145881752Y-70008882D01*
X145707288Y-69931206D01*
X145707284Y-69931205D01*
X145520487Y-69891500D01*
X145329513Y-69891500D01*
X145142715Y-69931205D01*
X145142713Y-69931205D01*
X145142712Y-69931206D01*
X145055480Y-69970044D01*
X144968245Y-70008883D01*
X144813744Y-70121136D01*
X144813743Y-70121137D01*
X144685961Y-70263053D01*
X144632576Y-70355519D01*
X144590473Y-70428444D01*
X144570313Y-70490489D01*
X144531458Y-70610071D01*
X144531457Y-70610074D01*
X144511496Y-70799999D01*
X134463975Y-70799999D01*
X134464061Y-67599999D01*
X151336496Y-67599999D01*
X151336496Y-67600000D01*
X151356457Y-67789925D01*
X151356458Y-67789928D01*
X151415473Y-67971556D01*
X151499679Y-68117405D01*
X151510961Y-68136946D01*
X151638743Y-68278862D01*
X151638747Y-68278866D01*
X151793248Y-68391118D01*
X151967712Y-68468794D01*
X152107812Y-68498573D01*
X152154512Y-68508500D01*
X152154513Y-68508500D01*
X152345487Y-68508500D01*
X152532288Y-68468794D01*
X152706752Y-68391118D01*
X152861253Y-68278866D01*
X152989040Y-68136944D01*
X153084527Y-67971556D01*
X153143542Y-67789928D01*
X153163504Y-67600000D01*
X153143542Y-67410072D01*
X153084527Y-67228444D01*
X152989040Y-67063056D01*
X152989039Y-67063055D01*
X152989038Y-67063053D01*
X152861256Y-66921137D01*
X152861255Y-66921136D01*
X152861254Y-66921135D01*
X152861253Y-66921134D01*
X152776757Y-66859743D01*
X152706754Y-66808883D01*
X152706752Y-66808882D01*
X152532288Y-66731206D01*
X152532284Y-66731205D01*
X152345487Y-66691500D01*
X152154513Y-66691500D01*
X151967715Y-66731205D01*
X151967713Y-66731205D01*
X151967712Y-66731206D01*
X151880480Y-66770044D01*
X151793245Y-66808883D01*
X151638744Y-66921136D01*
X151638743Y-66921137D01*
X151510961Y-67063053D01*
X151457576Y-67155519D01*
X151415473Y-67228444D01*
X151415473Y-67228445D01*
X151356458Y-67410071D01*
X151356457Y-67410074D01*
X151336496Y-67599999D01*
X134464061Y-67599999D01*
X134464141Y-64634436D01*
X195843500Y-64634436D01*
X195843500Y-68523563D01*
X195863976Y-68599981D01*
X195863981Y-68599995D01*
X195896637Y-68656554D01*
X195903540Y-68668511D01*
X195903542Y-68668513D01*
X195903545Y-68668517D01*
X195959482Y-68724454D01*
X195959485Y-68724456D01*
X195959489Y-68724460D01*
X195987771Y-68740789D01*
X196028004Y-68764018D01*
X196028008Y-68764019D01*
X196028011Y-68764021D01*
X196028016Y-68764022D01*
X196028018Y-68764023D01*
X196104436Y-68784500D01*
X196104438Y-68784500D01*
X206343564Y-68784500D01*
X206403828Y-68768351D01*
X206419989Y-68764021D01*
X206419992Y-68764018D01*
X206419995Y-68764018D01*
X206437923Y-68753666D01*
X206488511Y-68724460D01*
X206544460Y-68668511D01*
X206584021Y-68599989D01*
X206604500Y-68523562D01*
X206604500Y-64634438D01*
X206604500Y-64634436D01*
X206584023Y-64558018D01*
X206584018Y-64558004D01*
X206560789Y-64517771D01*
X206544460Y-64489489D01*
X206544456Y-64489485D01*
X206544454Y-64489482D01*
X206488517Y-64433545D01*
X206488513Y-64433542D01*
X206488511Y-64433540D01*
X206476554Y-64426637D01*
X206419995Y-64393981D01*
X206419981Y-64393976D01*
X206343564Y-64373500D01*
X206343562Y-64373500D01*
X196183562Y-64373500D01*
X196104438Y-64373500D01*
X196104436Y-64373500D01*
X196028018Y-64393976D01*
X196028004Y-64393981D01*
X195959492Y-64433538D01*
X195959482Y-64433545D01*
X195903545Y-64489482D01*
X195903538Y-64489492D01*
X195863981Y-64558004D01*
X195863976Y-64558018D01*
X195843500Y-64634436D01*
X134464141Y-64634436D01*
X134464355Y-56699995D01*
X138886807Y-56699995D01*
X138886807Y-56700004D01*
X138905556Y-56974121D01*
X138905557Y-56974123D01*
X138961461Y-57243153D01*
X139053478Y-57502061D01*
X139053480Y-57502065D01*
X139088535Y-57569718D01*
X139179889Y-57746023D01*
X139338343Y-57970502D01*
X139525889Y-58171314D01*
X139525894Y-58171318D01*
X139525897Y-58171321D01*
X139697585Y-58310999D01*
X139739031Y-58344718D01*
X139973800Y-58487484D01*
X139973804Y-58487486D01*
X139973808Y-58487488D01*
X140053701Y-58522190D01*
X140225823Y-58596953D01*
X140225830Y-58596955D01*
X140225835Y-58596957D01*
X140490392Y-58671082D01*
X140490394Y-58671082D01*
X140490404Y-58671085D01*
X140762615Y-58708500D01*
X140762619Y-58708500D01*
X141037381Y-58708500D01*
X141037385Y-58708500D01*
X141309596Y-58671085D01*
X141309607Y-58671082D01*
X141574164Y-58596957D01*
X141574166Y-58596955D01*
X141574177Y-58596953D01*
X141826200Y-58487484D01*
X142060969Y-58344718D01*
X142274111Y-58171314D01*
X142461657Y-57970502D01*
X142620111Y-57746023D01*
X142746523Y-57502058D01*
X142838538Y-57243153D01*
X142894442Y-56974130D01*
X142913193Y-56700000D01*
X142913193Y-56699995D01*
X147886807Y-56699995D01*
X147886807Y-56700004D01*
X147905556Y-56974121D01*
X147905557Y-56974123D01*
X147961461Y-57243153D01*
X148053478Y-57502061D01*
X148053480Y-57502065D01*
X148088535Y-57569718D01*
X148179889Y-57746023D01*
X148338343Y-57970502D01*
X148525889Y-58171314D01*
X148525894Y-58171318D01*
X148525897Y-58171321D01*
X148697585Y-58310999D01*
X148739031Y-58344718D01*
X148973800Y-58487484D01*
X148973804Y-58487486D01*
X148973808Y-58487488D01*
X149053701Y-58522190D01*
X149225823Y-58596953D01*
X149225830Y-58596955D01*
X149225835Y-58596957D01*
X149490392Y-58671082D01*
X149490394Y-58671082D01*
X149490404Y-58671085D01*
X149762615Y-58708500D01*
X149762619Y-58708500D01*
X150037381Y-58708500D01*
X150037385Y-58708500D01*
X150309596Y-58671085D01*
X150309607Y-58671082D01*
X150574164Y-58596957D01*
X150574166Y-58596955D01*
X150574177Y-58596953D01*
X150826200Y-58487484D01*
X151060969Y-58344718D01*
X151274111Y-58171314D01*
X151461657Y-57970502D01*
X151620111Y-57746023D01*
X151746523Y-57502058D01*
X151838538Y-57243153D01*
X151894442Y-56974130D01*
X151913193Y-56700000D01*
X151913193Y-56699995D01*
X151894443Y-56425878D01*
X151894442Y-56425876D01*
X151894442Y-56425870D01*
X151838538Y-56156847D01*
X151756138Y-55924995D01*
X160611807Y-55924995D01*
X160611807Y-55925004D01*
X160630556Y-56199121D01*
X160630557Y-56199123D01*
X160630557Y-56199126D01*
X160630558Y-56199130D01*
X160648029Y-56283205D01*
X160686461Y-56468153D01*
X160778478Y-56727061D01*
X160778480Y-56727065D01*
X160837407Y-56840789D01*
X160904889Y-56971023D01*
X161063343Y-57195502D01*
X161250889Y-57396314D01*
X161250894Y-57396318D01*
X161250897Y-57396321D01*
X161380866Y-57502058D01*
X161464031Y-57569718D01*
X161698800Y-57712484D01*
X161698804Y-57712486D01*
X161698808Y-57712488D01*
X161769096Y-57743018D01*
X161950823Y-57821953D01*
X161950830Y-57821955D01*
X161950835Y-57821957D01*
X162215392Y-57896082D01*
X162215394Y-57896082D01*
X162215404Y-57896085D01*
X162487615Y-57933500D01*
X162487619Y-57933500D01*
X162762381Y-57933500D01*
X162762385Y-57933500D01*
X163034596Y-57896085D01*
X163034607Y-57896082D01*
X163299164Y-57821957D01*
X163299166Y-57821955D01*
X163299177Y-57821953D01*
X163551200Y-57712484D01*
X163785969Y-57569718D01*
X163999111Y-57396314D01*
X164182461Y-57199995D01*
X213286807Y-57199995D01*
X213286807Y-57200004D01*
X213305556Y-57474121D01*
X213305557Y-57474123D01*
X213361461Y-57743153D01*
X213453478Y-58002061D01*
X213453480Y-58002065D01*
X213541177Y-58171312D01*
X213579889Y-58246023D01*
X213738343Y-58470502D01*
X213925889Y-58671314D01*
X213925894Y-58671318D01*
X213925897Y-58671321D01*
X214069922Y-58788494D01*
X214139031Y-58844718D01*
X214373800Y-58987484D01*
X214373804Y-58987486D01*
X214373808Y-58987488D01*
X214453701Y-59022190D01*
X214625823Y-59096953D01*
X214625830Y-59096955D01*
X214625835Y-59096957D01*
X214890392Y-59171082D01*
X214890394Y-59171082D01*
X214890404Y-59171085D01*
X215162615Y-59208500D01*
X215162619Y-59208500D01*
X215437381Y-59208500D01*
X215437385Y-59208500D01*
X215709596Y-59171085D01*
X215709607Y-59171082D01*
X215974164Y-59096957D01*
X215974166Y-59096955D01*
X215974177Y-59096953D01*
X216226200Y-58987484D01*
X216460969Y-58844718D01*
X216674111Y-58671314D01*
X216861657Y-58470502D01*
X217020111Y-58246023D01*
X217146523Y-58002058D01*
X217238538Y-57743153D01*
X217294442Y-57474130D01*
X217294448Y-57474055D01*
X217313193Y-57200004D01*
X217313193Y-57199995D01*
X217313193Y-57199994D01*
X222287308Y-57199994D01*
X222287308Y-57200005D01*
X222306052Y-57474052D01*
X222306053Y-57474055D01*
X222361943Y-57743018D01*
X222453934Y-58001853D01*
X222453938Y-58001862D01*
X222580316Y-58245760D01*
X222580318Y-58245763D01*
X222710540Y-58430248D01*
X223435159Y-57705628D01*
X223523249Y-57837463D01*
X223662537Y-57976751D01*
X223794369Y-58064839D01*
X223070714Y-58788494D01*
X223070714Y-58788495D01*
X223139314Y-58844304D01*
X223374031Y-58987038D01*
X223625995Y-59096483D01*
X223890494Y-59170592D01*
X224162647Y-59207999D01*
X224162653Y-59208000D01*
X224437347Y-59208000D01*
X224437352Y-59207999D01*
X224709504Y-59170592D01*
X224709505Y-59170592D01*
X224974004Y-59096483D01*
X225225968Y-58987038D01*
X225460686Y-58844304D01*
X225529283Y-58788495D01*
X225529284Y-58788494D01*
X224805629Y-58064839D01*
X224937463Y-57976751D01*
X225076751Y-57837463D01*
X225164839Y-57705629D01*
X225889458Y-58430248D01*
X226019684Y-58245758D01*
X226146061Y-58001862D01*
X226146065Y-58001853D01*
X226238056Y-57743018D01*
X226293946Y-57474055D01*
X226293947Y-57474052D01*
X226312692Y-57200005D01*
X226312692Y-57199994D01*
X226293947Y-56925947D01*
X226293946Y-56925944D01*
X226238056Y-56656981D01*
X226146065Y-56398146D01*
X226146061Y-56398137D01*
X226019684Y-56154241D01*
X225889458Y-55969750D01*
X225164839Y-56694369D01*
X225076751Y-56562537D01*
X224937463Y-56423249D01*
X224805628Y-56335159D01*
X225529283Y-55611504D01*
X225460681Y-55555692D01*
X225225968Y-55412961D01*
X224974004Y-55303516D01*
X224709505Y-55229407D01*
X224437352Y-55192000D01*
X224162647Y-55192000D01*
X223890495Y-55229407D01*
X223890494Y-55229407D01*
X223625995Y-55303516D01*
X223374031Y-55412961D01*
X223139314Y-55555694D01*
X223139313Y-55555695D01*
X223070715Y-55611503D01*
X223070715Y-55611504D01*
X223794370Y-56335160D01*
X223662537Y-56423249D01*
X223523249Y-56562537D01*
X223435160Y-56694370D01*
X222710540Y-55969751D01*
X222580318Y-56154236D01*
X222580316Y-56154239D01*
X222453938Y-56398137D01*
X222453934Y-56398146D01*
X222361943Y-56656981D01*
X222306053Y-56925944D01*
X222306052Y-56925947D01*
X222287308Y-57199994D01*
X217313193Y-57199994D01*
X217294443Y-56925878D01*
X217294442Y-56925876D01*
X217294442Y-56925870D01*
X217238538Y-56656847D01*
X217146523Y-56397942D01*
X217020111Y-56153977D01*
X216861657Y-55929498D01*
X216674111Y-55728686D01*
X216674105Y-55728681D01*
X216674102Y-55728678D01*
X216460974Y-55555286D01*
X216460973Y-55555285D01*
X216460969Y-55555282D01*
X216226200Y-55412516D01*
X216226197Y-55412514D01*
X216226191Y-55412511D01*
X216060237Y-55340428D01*
X215974177Y-55303047D01*
X215974173Y-55303045D01*
X215974164Y-55303042D01*
X215709607Y-55228917D01*
X215709599Y-55228915D01*
X215709596Y-55228915D01*
X215497202Y-55199721D01*
X215437386Y-55191500D01*
X215437385Y-55191500D01*
X215162615Y-55191500D01*
X215162613Y-55191500D01*
X215064531Y-55204981D01*
X214890404Y-55228915D01*
X214890400Y-55228915D01*
X214890393Y-55228917D01*
X214890392Y-55228917D01*
X214625835Y-55303042D01*
X214625823Y-55303046D01*
X214625823Y-55303047D01*
X214605847Y-55311723D01*
X214373808Y-55412511D01*
X214373800Y-55412516D01*
X214139031Y-55555282D01*
X214139029Y-55555283D01*
X214139025Y-55555286D01*
X213925897Y-55728678D01*
X213925888Y-55728687D01*
X213738343Y-55929497D01*
X213738343Y-55929498D01*
X213709930Y-55969751D01*
X213579887Y-56153980D01*
X213453480Y-56397934D01*
X213453478Y-56397938D01*
X213361461Y-56656846D01*
X213305557Y-56925876D01*
X213305556Y-56925878D01*
X213286807Y-57199995D01*
X164182461Y-57199995D01*
X164186657Y-57195502D01*
X164345111Y-56971023D01*
X164471523Y-56727058D01*
X164563538Y-56468153D01*
X164619442Y-56199130D01*
X164622335Y-56156847D01*
X164638193Y-55925004D01*
X164638193Y-55924995D01*
X164619443Y-55650878D01*
X164619442Y-55650876D01*
X164619442Y-55650870D01*
X164563538Y-55381847D01*
X164535532Y-55303047D01*
X164509361Y-55229407D01*
X164471523Y-55122942D01*
X164345111Y-54878977D01*
X164186657Y-54654498D01*
X163999111Y-54453686D01*
X163999105Y-54453681D01*
X163999102Y-54453678D01*
X163785974Y-54280286D01*
X163785973Y-54280285D01*
X163785969Y-54280282D01*
X163551200Y-54137516D01*
X163551197Y-54137514D01*
X163551191Y-54137511D01*
X163385237Y-54065428D01*
X163299177Y-54028047D01*
X163299173Y-54028045D01*
X163299164Y-54028042D01*
X163034607Y-53953917D01*
X163034599Y-53953915D01*
X163034596Y-53953915D01*
X162822202Y-53924721D01*
X162762386Y-53916500D01*
X162762385Y-53916500D01*
X162487615Y-53916500D01*
X162487613Y-53916500D01*
X162389531Y-53929981D01*
X162215404Y-53953915D01*
X162215400Y-53953915D01*
X162215393Y-53953917D01*
X162215392Y-53953917D01*
X161950835Y-54028042D01*
X161950821Y-54028048D01*
X161698808Y-54137511D01*
X161698800Y-54137516D01*
X161464031Y-54280282D01*
X161464029Y-54280283D01*
X161464025Y-54280286D01*
X161250897Y-54453678D01*
X161250888Y-54453687D01*
X161063343Y-54654497D01*
X161063341Y-54654501D01*
X160904887Y-54878980D01*
X160778480Y-55122934D01*
X160778478Y-55122938D01*
X160686461Y-55381846D01*
X160630557Y-55650876D01*
X160630556Y-55650878D01*
X160611807Y-55924995D01*
X151756138Y-55924995D01*
X151746523Y-55897942D01*
X151620111Y-55653977D01*
X151461657Y-55429498D01*
X151274111Y-55228686D01*
X151274105Y-55228681D01*
X151274102Y-55228678D01*
X151060974Y-55055286D01*
X151060973Y-55055285D01*
X151060969Y-55055282D01*
X150826200Y-54912516D01*
X150826197Y-54912514D01*
X150826191Y-54912511D01*
X150660237Y-54840428D01*
X150574177Y-54803047D01*
X150574173Y-54803045D01*
X150574164Y-54803042D01*
X150309607Y-54728917D01*
X150309599Y-54728915D01*
X150309596Y-54728915D01*
X150097202Y-54699721D01*
X150037386Y-54691500D01*
X150037385Y-54691500D01*
X149762615Y-54691500D01*
X149762613Y-54691500D01*
X149664531Y-54704981D01*
X149490404Y-54728915D01*
X149490400Y-54728915D01*
X149490393Y-54728917D01*
X149490392Y-54728917D01*
X149225835Y-54803042D01*
X149225821Y-54803048D01*
X148973808Y-54912511D01*
X148973800Y-54912516D01*
X148739031Y-55055282D01*
X148739029Y-55055283D01*
X148739025Y-55055286D01*
X148525897Y-55228678D01*
X148525888Y-55228687D01*
X148338343Y-55429497D01*
X148338343Y-55429498D01*
X148249265Y-55555694D01*
X148179887Y-55653980D01*
X148053480Y-55897934D01*
X148053478Y-55897938D01*
X147961461Y-56156846D01*
X147905557Y-56425876D01*
X147905556Y-56425878D01*
X147886807Y-56699995D01*
X142913193Y-56699995D01*
X142894443Y-56425878D01*
X142894442Y-56425876D01*
X142894442Y-56425870D01*
X142838538Y-56156847D01*
X142746523Y-55897942D01*
X142620111Y-55653977D01*
X142461657Y-55429498D01*
X142274111Y-55228686D01*
X142274105Y-55228681D01*
X142274102Y-55228678D01*
X142060974Y-55055286D01*
X142060973Y-55055285D01*
X142060969Y-55055282D01*
X141826200Y-54912516D01*
X141826197Y-54912514D01*
X141826191Y-54912511D01*
X141660237Y-54840428D01*
X141574177Y-54803047D01*
X141574173Y-54803045D01*
X141574164Y-54803042D01*
X141309607Y-54728917D01*
X141309599Y-54728915D01*
X141309596Y-54728915D01*
X141097202Y-54699721D01*
X141037386Y-54691500D01*
X141037385Y-54691500D01*
X140762615Y-54691500D01*
X140762613Y-54691500D01*
X140664531Y-54704981D01*
X140490404Y-54728915D01*
X140490400Y-54728915D01*
X140490393Y-54728917D01*
X140490392Y-54728917D01*
X140225835Y-54803042D01*
X140225821Y-54803048D01*
X139973808Y-54912511D01*
X139973800Y-54912516D01*
X139739031Y-55055282D01*
X139739029Y-55055283D01*
X139739025Y-55055286D01*
X139525897Y-55228678D01*
X139525888Y-55228687D01*
X139338343Y-55429497D01*
X139338343Y-55429498D01*
X139249265Y-55555694D01*
X139179887Y-55653980D01*
X139053480Y-55897934D01*
X139053478Y-55897938D01*
X138961461Y-56156846D01*
X138905557Y-56425876D01*
X138905556Y-56425878D01*
X138886807Y-56699995D01*
X134464355Y-56699995D01*
X134464489Y-51724396D01*
X134483875Y-51664738D01*
X134534626Y-51627867D01*
X134565989Y-51622900D01*
X145477564Y-51622900D01*
X145537828Y-51606751D01*
X145553989Y-51602421D01*
X145553992Y-51602418D01*
X145553995Y-51602418D01*
X145571923Y-51592066D01*
X145622511Y-51562860D01*
X145678460Y-51506911D01*
X145718021Y-51438389D01*
X145738500Y-51361962D01*
X145738500Y-45965597D01*
X153368930Y-45965597D01*
X153368930Y-45965602D01*
X153389179Y-46235816D01*
X153389181Y-46235831D01*
X153449479Y-46500008D01*
X153548482Y-46752265D01*
X153683970Y-46986938D01*
X153683974Y-46986943D01*
X153736092Y-47052297D01*
X154243328Y-46545060D01*
X154342967Y-46682202D01*
X154465398Y-46804633D01*
X154602537Y-46904270D01*
X154094454Y-47412353D01*
X154094455Y-47412354D01*
X154275461Y-47535763D01*
X154519612Y-47653339D01*
X154778557Y-47733213D01*
X155046502Y-47773599D01*
X155046515Y-47773600D01*
X155317485Y-47773600D01*
X155317497Y-47773599D01*
X155585442Y-47733213D01*
X155844387Y-47653339D01*
X156088531Y-47535766D01*
X156088534Y-47535764D01*
X156269543Y-47412354D01*
X156269543Y-47412353D01*
X155761461Y-46904270D01*
X155898602Y-46804633D01*
X156021033Y-46682202D01*
X156120670Y-46545061D01*
X156627906Y-47052297D01*
X156680025Y-46986944D01*
X156680029Y-46986938D01*
X156715792Y-46924995D01*
X160611807Y-46924995D01*
X160611807Y-46925004D01*
X160630556Y-47199121D01*
X160630557Y-47199123D01*
X160686461Y-47468153D01*
X160778478Y-47727061D01*
X160778480Y-47727065D01*
X160802593Y-47773600D01*
X160904889Y-47971023D01*
X161063343Y-48195502D01*
X161250889Y-48396314D01*
X161250894Y-48396318D01*
X161250897Y-48396321D01*
X161422585Y-48535999D01*
X161464031Y-48569718D01*
X161698800Y-48712484D01*
X161698804Y-48712486D01*
X161698808Y-48712488D01*
X161778701Y-48747190D01*
X161950823Y-48821953D01*
X161950830Y-48821955D01*
X161950835Y-48821957D01*
X162215392Y-48896082D01*
X162215394Y-48896082D01*
X162215404Y-48896085D01*
X162487615Y-48933500D01*
X162487619Y-48933500D01*
X162762381Y-48933500D01*
X162762385Y-48933500D01*
X163034596Y-48896085D01*
X163034607Y-48896082D01*
X163299164Y-48821957D01*
X163299166Y-48821955D01*
X163299177Y-48821953D01*
X163551200Y-48712484D01*
X163785969Y-48569718D01*
X163999111Y-48396314D01*
X164186657Y-48195502D01*
X164345111Y-47971023D01*
X164471523Y-47727058D01*
X164563538Y-47468153D01*
X164619442Y-47199130D01*
X164630429Y-47038514D01*
X164638193Y-46925004D01*
X164638193Y-46924995D01*
X164619443Y-46650878D01*
X164619442Y-46650876D01*
X164619442Y-46650870D01*
X164563538Y-46381847D01*
X164471523Y-46122942D01*
X164389994Y-45965597D01*
X210042930Y-45965597D01*
X210042930Y-45965602D01*
X210063179Y-46235816D01*
X210063181Y-46235831D01*
X210123479Y-46500008D01*
X210222482Y-46752265D01*
X210357970Y-46986938D01*
X210357974Y-46986943D01*
X210410092Y-47052297D01*
X210917328Y-46545060D01*
X211016967Y-46682202D01*
X211139398Y-46804633D01*
X211276537Y-46904270D01*
X210768454Y-47412353D01*
X210768455Y-47412354D01*
X210949461Y-47535763D01*
X211193612Y-47653339D01*
X211452557Y-47733213D01*
X211720502Y-47773599D01*
X211720515Y-47773600D01*
X211991485Y-47773600D01*
X211991497Y-47773599D01*
X212259442Y-47733213D01*
X212518387Y-47653339D01*
X212762531Y-47535766D01*
X212762534Y-47535764D01*
X212943543Y-47412354D01*
X212943543Y-47412353D01*
X212435461Y-46904270D01*
X212572602Y-46804633D01*
X212695033Y-46682202D01*
X212794670Y-46545061D01*
X213301906Y-47052297D01*
X213354025Y-46986944D01*
X213354029Y-46986938D01*
X213489517Y-46752265D01*
X213588520Y-46500008D01*
X213588521Y-46500008D01*
X213648818Y-46235831D01*
X213648820Y-46235816D01*
X213669070Y-45965602D01*
X213669070Y-45965597D01*
X213648820Y-45695383D01*
X213648818Y-45695368D01*
X213588520Y-45431191D01*
X213489517Y-45178934D01*
X213354029Y-44944261D01*
X213354025Y-44944256D01*
X213301906Y-44878901D01*
X212794669Y-45386137D01*
X212695033Y-45248998D01*
X212572602Y-45126567D01*
X212435460Y-45026929D01*
X212943544Y-44518845D01*
X212943543Y-44518844D01*
X212762538Y-44395436D01*
X212518387Y-44277860D01*
X212259442Y-44197986D01*
X211991497Y-44157600D01*
X211720502Y-44157600D01*
X211452557Y-44197986D01*
X211193612Y-44277860D01*
X210949461Y-44395436D01*
X210768455Y-44518844D01*
X210768454Y-44518845D01*
X211276538Y-45026929D01*
X211139398Y-45126567D01*
X211016967Y-45248998D01*
X210917329Y-45386138D01*
X210410092Y-44878901D01*
X210410092Y-44878902D01*
X210357969Y-44944263D01*
X210222482Y-45178934D01*
X210123479Y-45431191D01*
X210123478Y-45431191D01*
X210063181Y-45695368D01*
X210063179Y-45695383D01*
X210042930Y-45965597D01*
X164389994Y-45965597D01*
X164345111Y-45878977D01*
X164186657Y-45654498D01*
X163999111Y-45453686D01*
X163999105Y-45453681D01*
X163999102Y-45453678D01*
X163785974Y-45280286D01*
X163785973Y-45280285D01*
X163785969Y-45280282D01*
X163551200Y-45137516D01*
X163551197Y-45137514D01*
X163551191Y-45137511D01*
X163385237Y-45065428D01*
X163299177Y-45028047D01*
X163299173Y-45028045D01*
X163299164Y-45028042D01*
X163034607Y-44953917D01*
X163034599Y-44953915D01*
X163034596Y-44953915D01*
X162822202Y-44924721D01*
X162762386Y-44916500D01*
X162762385Y-44916500D01*
X162487615Y-44916500D01*
X162487613Y-44916500D01*
X162389531Y-44929981D01*
X162215404Y-44953915D01*
X162215400Y-44953915D01*
X162215393Y-44953917D01*
X162215392Y-44953917D01*
X161950835Y-45028042D01*
X161950821Y-45028048D01*
X161698808Y-45137511D01*
X161698800Y-45137516D01*
X161464031Y-45280282D01*
X161464029Y-45280283D01*
X161464025Y-45280286D01*
X161250897Y-45453678D01*
X161250888Y-45453687D01*
X161063343Y-45654497D01*
X161063341Y-45654501D01*
X160904887Y-45878980D01*
X160778480Y-46122934D01*
X160778478Y-46122938D01*
X160686461Y-46381846D01*
X160630557Y-46650876D01*
X160630556Y-46650878D01*
X160611807Y-46924995D01*
X156715792Y-46924995D01*
X156815517Y-46752265D01*
X156914520Y-46500008D01*
X156914521Y-46500008D01*
X156974818Y-46235831D01*
X156974820Y-46235816D01*
X156995070Y-45965602D01*
X156995070Y-45965597D01*
X156974820Y-45695383D01*
X156974818Y-45695368D01*
X156914520Y-45431191D01*
X156815517Y-45178934D01*
X156680029Y-44944261D01*
X156680025Y-44944256D01*
X156627906Y-44878901D01*
X156120669Y-45386137D01*
X156021033Y-45248998D01*
X155898602Y-45126567D01*
X155761460Y-45026929D01*
X156269544Y-44518845D01*
X156269543Y-44518844D01*
X156088538Y-44395436D01*
X155844387Y-44277860D01*
X155585442Y-44197986D01*
X155317497Y-44157600D01*
X155046502Y-44157600D01*
X154778557Y-44197986D01*
X154519612Y-44277860D01*
X154275461Y-44395436D01*
X154094455Y-44518844D01*
X154094454Y-44518845D01*
X154602538Y-45026929D01*
X154465398Y-45126567D01*
X154342967Y-45248998D01*
X154243329Y-45386138D01*
X153736092Y-44878901D01*
X153736092Y-44878902D01*
X153683969Y-44944263D01*
X153548482Y-45178934D01*
X153449479Y-45431191D01*
X153449478Y-45431191D01*
X153389181Y-45695368D01*
X153389179Y-45695383D01*
X153368930Y-45965597D01*
X145738500Y-45965597D01*
X145738500Y-41208800D01*
X145757885Y-41149140D01*
X145808635Y-41112268D01*
X145840000Y-41107300D01*
X156751564Y-41107300D01*
X156811828Y-41091151D01*
X156827989Y-41086821D01*
X156827992Y-41086818D01*
X156827995Y-41086818D01*
X156845923Y-41076466D01*
X156896511Y-41047260D01*
X156952460Y-40991311D01*
X156992021Y-40922789D01*
X157012500Y-40846362D01*
X157012500Y-40208800D01*
X157031885Y-40149140D01*
X157082635Y-40112268D01*
X157114000Y-40107300D01*
X208182000Y-40107300D01*
X208241660Y-40126685D01*
G37*
%TD.AperFunction*%
M02*
