%TF.GenerationSoftware,KiCad,Pcbnew,8.0.8*%
%TF.CreationDate,2025-03-18T16:59:42-07:00*%
%TF.ProjectId,RPi_interface,5250695f-696e-4746-9572-666163652e6b,1.2*%
%TF.SameCoordinates,Original*%
%TF.FileFunction,Soldermask,Top*%
%TF.FilePolarity,Negative*%
%FSLAX46Y46*%
G04 Gerber Fmt 4.6, Leading zero omitted, Abs format (unit mm)*
G04 Created by KiCad (PCBNEW 8.0.8) date 2025-03-18 16:59:42*
%MOMM*%
%LPD*%
G01*
G04 APERTURE LIST*
G04 Aperture macros list*
%AMRoundRect*
0 Rectangle with rounded corners*
0 $1 Rounding radius*
0 $2 $3 $4 $5 $6 $7 $8 $9 X,Y pos of 4 corners*
0 Add a 4 corners polygon primitive as box body*
4,1,4,$2,$3,$4,$5,$6,$7,$8,$9,$2,$3,0*
0 Add four circle primitives for the rounded corners*
1,1,$1+$1,$2,$3*
1,1,$1+$1,$4,$5*
1,1,$1+$1,$6,$7*
1,1,$1+$1,$8,$9*
0 Add four rect primitives between the rounded corners*
20,1,$1+$1,$2,$3,$4,$5,0*
20,1,$1+$1,$4,$5,$6,$7,0*
20,1,$1+$1,$6,$7,$8,$9,0*
20,1,$1+$1,$8,$9,$2,$3,0*%
G04 Aperture macros list end*
%ADD10RoundRect,0.200000X0.275000X-0.200000X0.275000X0.200000X-0.275000X0.200000X-0.275000X-0.200000X0*%
%ADD11RoundRect,0.063500X-0.660400X0.279400X-0.660400X-0.279400X0.660400X-0.279400X0.660400X0.279400X0*%
%ADD12C,4.700000*%
%ADD13RoundRect,0.225000X-0.225000X-0.250000X0.225000X-0.250000X0.225000X0.250000X-0.225000X0.250000X0*%
%ADD14R,0.650000X2.000000*%
%ADD15R,3.200000X2.000000*%
%ADD16RoundRect,0.250000X-0.325000X-1.100000X0.325000X-1.100000X0.325000X1.100000X-0.325000X1.100000X0*%
%ADD17R,1.150000X1.150000*%
%ADD18C,1.150000*%
%ADD19RoundRect,0.333000X0.417000X1.767000X-0.417000X1.767000X-0.417000X-1.767000X0.417000X-1.767000X0*%
%ADD20RoundRect,0.200000X-0.275000X0.200000X-0.275000X-0.200000X0.275000X-0.200000X0.275000X0.200000X0*%
%ADD21RoundRect,0.218750X0.218750X0.256250X-0.218750X0.256250X-0.218750X-0.256250X0.218750X-0.256250X0*%
%ADD22RoundRect,0.200000X-0.200000X-0.275000X0.200000X-0.275000X0.200000X0.275000X-0.200000X0.275000X0*%
%ADD23RoundRect,0.063500X-0.487500X0.750000X-0.487500X-0.750000X0.487500X-0.750000X0.487500X0.750000X0*%
%ADD24RoundRect,0.063500X-0.650000X1.000000X-0.650000X-1.000000X0.650000X-1.000000X0.650000X1.000000X0*%
%ADD25RoundRect,0.063500X-2.550000X3.650000X-2.550000X-3.650000X2.550000X-3.650000X2.550000X3.650000X0*%
%ADD26RoundRect,0.063500X0.800100X0.152400X-0.800100X0.152400X-0.800100X-0.152400X0.800100X-0.152400X0*%
%ADD27RoundRect,0.063500X1.155000X1.230000X-1.155000X1.230000X-1.155000X-1.230000X1.155000X-1.230000X0*%
%ADD28RoundRect,0.225000X0.250000X-0.225000X0.250000X0.225000X-0.250000X0.225000X-0.250000X-0.225000X0*%
%ADD29RoundRect,0.250000X0.325000X1.100000X-0.325000X1.100000X-0.325000X-1.100000X0.325000X-1.100000X0*%
%ADD30RoundRect,0.063500X0.279400X0.660400X-0.279400X0.660400X-0.279400X-0.660400X0.279400X-0.660400X0*%
%ADD31RoundRect,0.250000X1.100000X-0.325000X1.100000X0.325000X-1.100000X0.325000X-1.100000X-0.325000X0*%
%ADD32O,1.400000X1.400000*%
%ADD33C,1.400000*%
%ADD34RoundRect,0.200000X0.200000X0.275000X-0.200000X0.275000X-0.200000X-0.275000X0.200000X-0.275000X0*%
%ADD35C,2.050000*%
%ADD36C,2.250000*%
%ADD37R,1.700000X1.700000*%
%ADD38O,1.700000X1.700000*%
G04 APERTURE END LIST*
D10*
%TO.C,R6*%
X137050000Y-60900000D03*
X137050000Y-59250000D03*
%TD*%
D11*
%TO.C,Q2*%
X126135200Y-106922500D03*
X126135200Y-108827500D03*
X128014800Y-107875000D03*
%TD*%
D12*
%TO.C,H5*%
X93500000Y-86200000D03*
%TD*%
D10*
%TO.C,R7*%
X137050000Y-57225000D03*
X137050000Y-55575000D03*
%TD*%
D13*
%TO.C,C8*%
X131675000Y-60900000D03*
X133225000Y-60900000D03*
%TD*%
D14*
%TO.C,U3*%
X129410000Y-58200000D03*
X130680000Y-58200000D03*
X131950000Y-58200000D03*
X133220000Y-58200000D03*
X134490000Y-58200000D03*
D15*
X131950000Y-52200000D03*
%TD*%
D10*
%TO.C,R11*%
X127150000Y-58815000D03*
X127150000Y-57165000D03*
%TD*%
D16*
%TO.C,C3*%
X107961341Y-86913659D03*
X110911341Y-86913659D03*
%TD*%
D17*
%TO.C,J2*%
X108825000Y-103200000D03*
D18*
X106824999Y-103200000D03*
X104825000Y-103200000D03*
X102824999Y-103200000D03*
X100825001Y-103200000D03*
X98825000Y-103200000D03*
X96825001Y-103200000D03*
X94825000Y-103200000D03*
X92824999Y-103200000D03*
%TD*%
D19*
%TO.C,L1*%
X103836341Y-79213659D03*
X100236341Y-79213659D03*
%TD*%
D20*
%TO.C,R12*%
X124100000Y-57150000D03*
X124100000Y-58800000D03*
%TD*%
D12*
%TO.C,H2*%
X142500000Y-51500000D03*
%TD*%
D21*
%TO.C,D1*%
X126300000Y-111750000D03*
X124725000Y-111750000D03*
%TD*%
D20*
%TO.C,R4*%
X119123841Y-79988659D03*
X119123841Y-81638659D03*
%TD*%
D13*
%TO.C,C10*%
X137050000Y-66950000D03*
X138600000Y-66950000D03*
%TD*%
D22*
%TO.C,R8*%
X110525000Y-75300000D03*
X112175000Y-75300000D03*
%TD*%
D23*
%TO.C,U2*%
X137060000Y-68910000D03*
X135790000Y-68910000D03*
X134520000Y-68910000D03*
X133250000Y-68910000D03*
X131980000Y-68910000D03*
X130710000Y-68910000D03*
X129440000Y-68910000D03*
X128170000Y-68910000D03*
X126900000Y-68910000D03*
X125630000Y-68910000D03*
X124360000Y-68910000D03*
X123090000Y-68910000D03*
D24*
X124310000Y-100450000D03*
X126310000Y-100450000D03*
X128310000Y-100450000D03*
X130310000Y-100450000D03*
X133830000Y-100450000D03*
X135830000Y-100450000D03*
D25*
X130560000Y-94550000D03*
%TD*%
D26*
%TO.C,U1*%
X112179541Y-83736363D03*
X112179541Y-83086350D03*
X112179541Y-82436341D03*
X112179541Y-81786329D03*
X112179541Y-81136317D03*
X112179541Y-80486308D03*
X112179541Y-79836295D03*
X106642341Y-79836295D03*
X106642341Y-80486308D03*
X106642341Y-81136317D03*
X106642341Y-81786329D03*
X106642341Y-82436341D03*
X106642341Y-83086350D03*
X106642341Y-83736363D03*
D27*
X109410941Y-81786329D03*
%TD*%
D28*
%TO.C,C2*%
X104161341Y-74788659D03*
X104161341Y-73238659D03*
%TD*%
D29*
%TO.C,C4*%
X105361341Y-86913659D03*
X102411341Y-86913659D03*
%TD*%
D13*
%TO.C,C5*%
X102761341Y-83313659D03*
X104311341Y-83313659D03*
%TD*%
D20*
%TO.C,R1*%
X115150000Y-89800000D03*
X115150000Y-91450000D03*
%TD*%
D13*
%TO.C,C7*%
X114748841Y-82413659D03*
X116298841Y-82413659D03*
%TD*%
%TO.C,C6*%
X114748841Y-79988659D03*
X116298841Y-79988659D03*
%TD*%
D30*
%TO.C,Q1*%
X112462500Y-71220400D03*
X110557500Y-71220400D03*
X111510000Y-73100000D03*
%TD*%
D31*
%TO.C,C14*%
X128800000Y-63835000D03*
X128800000Y-60885000D03*
%TD*%
D12*
%TO.C,H4*%
X142500000Y-109500000D03*
%TD*%
%TO.C,H1*%
X93500000Y-51500000D03*
%TD*%
D28*
%TO.C,C12*%
X136375000Y-50800000D03*
X136375000Y-49250000D03*
%TD*%
D22*
%TO.C,R9*%
X114698841Y-75300000D03*
X116348841Y-75300000D03*
%TD*%
D10*
%TO.C,R10*%
X123850000Y-108625000D03*
X123850000Y-106975000D03*
%TD*%
D13*
%TO.C,C11*%
X114748841Y-87413659D03*
X116298841Y-87413659D03*
%TD*%
D28*
%TO.C,C1*%
X101821341Y-74788659D03*
X101821341Y-73238659D03*
%TD*%
D13*
%TO.C,C9*%
X137050000Y-64850000D03*
X138600000Y-64850000D03*
%TD*%
D32*
%TO.C,TH1*%
X120900000Y-93540000D03*
D33*
X120900000Y-88460000D03*
%TD*%
D12*
%TO.C,H3*%
X93500000Y-109500000D03*
%TD*%
D34*
%TO.C,R3*%
X116348841Y-84913659D03*
X114698841Y-84913659D03*
%TD*%
D28*
%TO.C,C13*%
X138520000Y-50845000D03*
X138520000Y-49295000D03*
%TD*%
D22*
%TO.C,R2*%
X110511341Y-77613659D03*
X112161341Y-77613659D03*
%TD*%
D35*
%TO.C,J4*%
X133830000Y-108335000D03*
D36*
X131290000Y-105795000D03*
X131290000Y-110875000D03*
X136370000Y-105795000D03*
X136370000Y-110875000D03*
%TD*%
D22*
%TO.C,R5*%
X114698841Y-77613659D03*
X116348841Y-77613659D03*
%TD*%
D37*
%TO.C,J3*%
X110500000Y-62540000D03*
D38*
X110500000Y-60000000D03*
X110500000Y-57460000D03*
%TD*%
D37*
%TO.C,J1*%
X141230000Y-56370000D03*
D38*
X143770000Y-56370000D03*
X141230000Y-58910000D03*
X143770000Y-58910000D03*
X141230000Y-61450000D03*
X143770000Y-61450000D03*
X141230000Y-63990000D03*
X143770000Y-63990000D03*
X141230000Y-66530000D03*
X143770000Y-66530000D03*
X141230000Y-69070000D03*
X143770000Y-69070000D03*
X141230000Y-71610000D03*
X143770000Y-71610000D03*
X141230000Y-74150000D03*
X143770000Y-74150000D03*
X141230000Y-76690000D03*
X143770000Y-76690000D03*
X141230000Y-79230000D03*
X143770000Y-79230000D03*
X141230000Y-81770000D03*
X143770000Y-81770000D03*
X141230000Y-84310000D03*
X143770000Y-84310000D03*
X141230000Y-86850000D03*
X143770000Y-86850000D03*
X141230000Y-89390000D03*
X143770000Y-89390000D03*
X141230000Y-91930000D03*
X143770000Y-91930000D03*
X141230000Y-94470000D03*
X143770000Y-94470000D03*
X141230000Y-97010000D03*
X143770000Y-97010000D03*
X141230000Y-99550000D03*
X143770000Y-99550000D03*
X141230000Y-102090000D03*
X143770000Y-102090000D03*
X141230000Y-104630000D03*
X143770000Y-104630000D03*
%TD*%
M02*
