%TF.GenerationSoftware,KiCad,Pcbnew,7.0.2-0*%
%TF.CreationDate,2024-05-06T23:59:26-07:00*%
%TF.ProjectId,FlexDeploySidePanels,466c6578-4465-4706-9c6f-795369646550,rev?*%
%TF.SameCoordinates,Original*%
%TF.FileFunction,Copper,L1,Top*%
%TF.FilePolarity,Positive*%
%FSLAX46Y46*%
G04 Gerber Fmt 4.6, Leading zero omitted, Abs format (unit mm)*
G04 Created by KiCad (PCBNEW 7.0.2-0) date 2024-05-06 23:59:26*
%MOMM*%
%LPD*%
G01*
G04 APERTURE LIST*
%TA.AperFunction,SMDPad,CuDef*%
%ADD10R,0.850000X1.200000*%
%TD*%
%TA.AperFunction,ComponentPad*%
%ADD11C,3.000000*%
%TD*%
%TA.AperFunction,ComponentPad*%
%ADD12R,1.150000X1.150000*%
%TD*%
%TA.AperFunction,ComponentPad*%
%ADD13C,1.150000*%
%TD*%
%TA.AperFunction,ComponentPad*%
%ADD14C,2.600000*%
%TD*%
%TA.AperFunction,ConnectorPad*%
%ADD15C,3.800000*%
%TD*%
%TA.AperFunction,SMDPad,CuDef*%
%ADD16R,1.200000X0.850000*%
%TD*%
%TA.AperFunction,SMDPad,CuDef*%
%ADD17C,2.100000*%
%TD*%
%TA.AperFunction,ViaPad*%
%ADD18C,1.200000*%
%TD*%
%TA.AperFunction,Conductor*%
%ADD19C,1.000000*%
%TD*%
G04 APERTURE END LIST*
D10*
%TO.P,D15,1,C*%
%TO.N,Net-(D14-A)*%
X403625000Y-259375716D03*
%TO.P,D15,2,A*%
%TO.N,Net-(D15-A)*%
X400575000Y-259375716D03*
%TD*%
%TO.P,D7,1,C*%
%TO.N,Net-(D7-C)*%
X443025000Y-261574797D03*
%TO.P,D7,2,A*%
%TO.N,Net-(D6-C)*%
X446075000Y-261574797D03*
%TD*%
D11*
%TO.P,SC1,0,-*%
%TO.N,GND*%
X471950000Y-308454797D03*
%TO.P,SC1,1,+*%
%TO.N,Net-(D1-C)*%
X471950000Y-269454797D03*
%TD*%
%TO.P,SC21,0,-*%
%TO.N,Net-(D21-A)*%
X306400000Y-141450000D03*
%TO.P,SC21,1,+*%
%TO.N,Net-(D21-C)*%
X306400000Y-102450000D03*
%TD*%
%TO.P,SC38,0,-*%
%TO.N,Net-(D38-A)*%
X147000000Y-141999000D03*
%TO.P,SC38,1,+*%
%TO.N,Net-(D37-A)*%
X147000000Y-102999000D03*
%TD*%
D10*
%TO.P,D10,1,C*%
%TO.N,Net-(D10-C)*%
X348675000Y-251650000D03*
%TO.P,D10,2,A*%
%TO.N,Net-(D10-A)*%
X351725000Y-251650000D03*
%TD*%
D12*
%TO.P,J1,1,Pin_1*%
%TO.N,DEP SENSE*%
X128925000Y-172475001D03*
D13*
%TO.P,J1,2,Pin_2*%
%TO.N,VSOLAR*%
X128925000Y-174475002D03*
%TO.P,J1,3,Pin_3*%
X128925000Y-176475001D03*
%TO.P,J1,4,Pin_4*%
%TO.N,GND*%
X128925000Y-178475002D03*
%TO.P,J1,5,Pin_5*%
X128925000Y-180475000D03*
%TD*%
D11*
%TO.P,SC18,0,-*%
%TO.N,Net-(D18-A)*%
X277450000Y-194650000D03*
%TO.P,SC18,1,+*%
%TO.N,Net-(D17-A)*%
X277450000Y-233650000D03*
%TD*%
D10*
%TO.P,D45,1,C*%
%TO.N,VSOLAR*%
X430845000Y-261574797D03*
%TO.P,D45,2,A*%
%TO.N,Net-(D45-A)*%
X433895000Y-261574797D03*
%TD*%
%TO.P,D9,1,C*%
%TO.N,Net-(D43-A)*%
X348675000Y-257358571D03*
%TO.P,D9,2,A*%
%TO.N,Net-(D10-C)*%
X351725000Y-257358571D03*
%TD*%
D11*
%TO.P,SC13,0,-*%
%TO.N,Net-(D13-A)*%
X390600000Y-141500000D03*
%TO.P,SC13,1,+*%
%TO.N,Net-(D13-C)*%
X390600000Y-102500000D03*
%TD*%
D14*
%TO.P,H18,1,1*%
%TO.N,GND*%
X169450000Y-103250000D03*
D15*
X169450000Y-103250000D03*
%TD*%
D11*
%TO.P,SC17,0,-*%
%TO.N,Net-(D17-A)*%
X272650000Y-251300000D03*
%TO.P,SC17,1,+*%
%TO.N,Net-(D17-C)*%
X311650000Y-251300000D03*
%TD*%
D16*
%TO.P,D35,1,C*%
%TO.N,Net-(D34-A)*%
X126850000Y-219725000D03*
%TO.P,D35,2,A*%
%TO.N,Net-(D35-A)*%
X126850000Y-216675000D03*
%TD*%
%TO.P,D37,1,C*%
%TO.N,Net-(D37-C)*%
X126875000Y-124400000D03*
%TO.P,D37,2,A*%
%TO.N,Net-(D37-A)*%
X126875000Y-121350000D03*
%TD*%
D11*
%TO.P,SC11,0,-*%
%TO.N,Net-(D11-A)*%
X361500000Y-148500000D03*
%TO.P,SC11,1,+*%
%TO.N,Net-(D10-A)*%
X361500000Y-187500000D03*
%TD*%
%TO.P,SC25,0,-*%
%TO.N,Net-(D25-A)*%
X197000000Y-269000000D03*
%TO.P,SC25,1,+*%
%TO.N,Net-(D25-C)*%
X197000000Y-308000000D03*
%TD*%
D10*
%TO.P,D49,1,C*%
%TO.N,VSOLAR*%
X215600000Y-153300000D03*
%TO.P,D49,2,A*%
%TO.N,Net-(D29-C)*%
X218650000Y-153300000D03*
%TD*%
%TO.P,D13,1,C*%
%TO.N,Net-(D13-C)*%
X403550000Y-248758572D03*
%TO.P,D13,2,A*%
%TO.N,Net-(D13-A)*%
X400500000Y-248758572D03*
%TD*%
D14*
%TO.P,H21,1,1*%
%TO.N,GND*%
X92450000Y-310750000D03*
D15*
X92450000Y-310750000D03*
%TD*%
D11*
%TO.P,SC34,0,-*%
%TO.N,Net-(D34-A)*%
X98500000Y-252000000D03*
%TO.P,SC34,1,+*%
%TO.N,Net-(D33-A)*%
X137500000Y-252000000D03*
%TD*%
D14*
%TO.P,H8,1,1*%
%TO.N,GND*%
X340400000Y-311750000D03*
D15*
X340400000Y-311750000D03*
%TD*%
D11*
%TO.P,SC20,0,-*%
%TO.N,GND*%
X277400000Y-102450000D03*
%TO.P,SC20,1,+*%
%TO.N,Net-(D19-A)*%
X277400000Y-141450000D03*
%TD*%
%TO.P,SC6,0,-*%
%TO.N,Net-(D5-C)*%
X441450000Y-160454797D03*
%TO.P,SC6,1,+*%
%TO.N,Net-(D6-C)*%
X441450000Y-199454797D03*
%TD*%
D10*
%TO.P,D43,1,C*%
%TO.N,VSOLAR*%
X348725000Y-263108571D03*
%TO.P,D43,2,A*%
%TO.N,Net-(D43-A)*%
X351775000Y-263108571D03*
%TD*%
D11*
%TO.P,SC10,0,-*%
%TO.N,Net-(D10-A)*%
X361500000Y-194500000D03*
%TO.P,SC10,1,+*%
%TO.N,Net-(D10-C)*%
X361500000Y-233500000D03*
%TD*%
D10*
%TO.P,D41,1,C*%
%TO.N,VSOLAR*%
X185650000Y-261620000D03*
%TO.P,D41,2,A*%
%TO.N,Net-(D25-C)*%
X188700000Y-261620000D03*
%TD*%
%TO.P,D24,1,C*%
%TO.N,Net-(D23-A)*%
X316360000Y-264430000D03*
%TO.P,D24,2,A*%
%TO.N,GND*%
X319410000Y-264430000D03*
%TD*%
D16*
%TO.P,D36,1,C*%
%TO.N,Net-(D35-A)*%
X126875000Y-161750000D03*
%TO.P,D36,2,A*%
%TO.N,GND*%
X126875000Y-158700000D03*
%TD*%
D14*
%TO.P,H1,1,1*%
%TO.N,GND*%
X493200000Y-311750000D03*
D15*
X493200000Y-311750000D03*
%TD*%
D11*
%TO.P,SC30,0,-*%
%TO.N,Net-(D30-A)*%
X227500000Y-199666666D03*
%TO.P,SC30,1,+*%
%TO.N,Net-(D29-A)*%
X227500000Y-160666666D03*
%TD*%
D10*
%TO.P,D11,1,C*%
%TO.N,Net-(D10-A)*%
X348675000Y-245941429D03*
%TO.P,D11,2,A*%
%TO.N,Net-(D11-A)*%
X351725000Y-245941429D03*
%TD*%
D14*
%TO.P,H9,1,1*%
%TO.N,GND*%
X327500000Y-311750000D03*
D15*
X327500000Y-311750000D03*
%TD*%
D14*
%TO.P,H5,1,1*%
%TO.N,GND*%
X412200000Y-311750000D03*
D15*
X412200000Y-311750000D03*
%TD*%
D14*
%TO.P,H7,1,1*%
%TO.N,GND*%
X340400000Y-102250000D03*
D15*
X340400000Y-102250000D03*
%TD*%
D10*
%TO.P,D27,2,A*%
%TO.N,Net-(D27-A)*%
X200361000Y-207250000D03*
%TO.P,D27,1,C*%
%TO.N,Net-(D26-A)*%
X197311000Y-207250000D03*
%TD*%
D14*
%TO.P,H24,1,1*%
%TO.N,GND*%
X342400000Y-247100000D03*
D15*
X342400000Y-247100000D03*
%TD*%
D10*
%TO.P,D28,1,C*%
%TO.N,Net-(D27-A)*%
X197311000Y-152750000D03*
%TO.P,D28,2,A*%
%TO.N,GND*%
X200361000Y-152750000D03*
%TD*%
D11*
%TO.P,SC16,0,-*%
%TO.N,GND*%
X391000000Y-309510000D03*
%TO.P,SC16,1,+*%
%TO.N,Net-(D15-A)*%
X391000000Y-270510000D03*
%TD*%
D14*
%TO.P,H16,1,1*%
%TO.N,GND*%
X175200000Y-311750000D03*
D15*
X175200000Y-311750000D03*
%TD*%
D11*
%TO.P,SC9,0,-*%
%TO.N,Net-(D10-C)*%
X395750000Y-251460000D03*
%TO.P,SC9,1,+*%
%TO.N,Net-(D43-A)*%
X356750000Y-251460000D03*
%TD*%
D14*
%TO.P,H14,1,1*%
%TO.N,GND*%
X249200000Y-102250000D03*
D15*
X249200000Y-102250000D03*
%TD*%
D10*
%TO.P,D12,1,C*%
%TO.N,Net-(D11-A)*%
X348675000Y-240232858D03*
%TO.P,D12,2,A*%
%TO.N,GND*%
X351725000Y-240232858D03*
%TD*%
%TO.P,D5,1,C*%
%TO.N,Net-(D5-C)*%
X442275000Y-152704797D03*
%TO.P,D5,2,A*%
%TO.N,GND*%
X445325000Y-152704797D03*
%TD*%
%TO.P,D47,1,C*%
%TO.N,VSOLAR*%
X316360000Y-240010000D03*
%TO.P,D47,2,A*%
%TO.N,Net-(D21-C)*%
X319410000Y-240010000D03*
%TD*%
D16*
%TO.P,D40,1,C*%
%TO.N,Net-(D39-A)*%
X130600000Y-216675000D03*
%TO.P,D40,2,A*%
%TO.N,GND*%
X130600000Y-219725000D03*
%TD*%
D10*
%TO.P,D26,1,C*%
%TO.N,Net-(D25-A)*%
X198400000Y-261600000D03*
%TO.P,D26,2,A*%
%TO.N,Net-(D26-A)*%
X201450000Y-261600000D03*
%TD*%
D11*
%TO.P,SC26,0,-*%
%TO.N,Net-(D26-A)*%
X196850000Y-214833332D03*
%TO.P,SC26,1,+*%
%TO.N,Net-(D25-A)*%
X196850000Y-253833332D03*
%TD*%
D14*
%TO.P,H6,1,1*%
%TO.N,GND*%
X412200000Y-102250000D03*
D15*
X412200000Y-102250000D03*
%TD*%
D14*
%TO.P,H22,1,1*%
%TO.N,GND*%
X342400000Y-143100000D03*
D15*
X342400000Y-143100000D03*
%TD*%
D10*
%TO.P,D44,1,C*%
%TO.N,VSOLAR*%
X264680000Y-264580000D03*
%TO.P,D44,2,A*%
%TO.N,Net-(D17-C)*%
X267730000Y-264580000D03*
%TD*%
D14*
%TO.P,H13,1,1*%
%TO.N,GND*%
X249200000Y-311750000D03*
D15*
X249200000Y-311750000D03*
%TD*%
D14*
%TO.P,H19,1,1*%
%TO.N,GND*%
X92456000Y-103251000D03*
D15*
X92456000Y-103251000D03*
%TD*%
D10*
%TO.P,D21,1,C*%
%TO.N,Net-(D21-C)*%
X319410000Y-246115000D03*
%TO.P,D21,2,A*%
%TO.N,Net-(D21-A)*%
X316360000Y-246115000D03*
%TD*%
D11*
%TO.P,SC7,0,-*%
%TO.N,Net-(D6-C)*%
X441450000Y-214954797D03*
%TO.P,SC7,1,+*%
%TO.N,Net-(D7-C)*%
X441450000Y-253954797D03*
%TD*%
D10*
%TO.P,D46,1,C*%
%TO.N,VSOLAR*%
X460550000Y-152700000D03*
%TO.P,D46,2,A*%
%TO.N,Net-(D4-C)*%
X463600000Y-152700000D03*
%TD*%
%TO.P,D19,1,C*%
%TO.N,Net-(D18-A)*%
X264680000Y-245995000D03*
%TO.P,D19,2,A*%
%TO.N,Net-(D19-A)*%
X267730000Y-245995000D03*
%TD*%
D14*
%TO.P,H25,1,1*%
%TO.N,GND*%
X325500000Y-247100000D03*
D15*
X325500000Y-247100000D03*
%TD*%
D11*
%TO.P,SC14,0,-*%
%TO.N,Net-(D14-A)*%
X390500000Y-187500000D03*
%TO.P,SC14,1,+*%
%TO.N,Net-(D13-A)*%
X390500000Y-148500000D03*
%TD*%
D16*
%TO.P,D33,1,C*%
%TO.N,Net-(D33-C)*%
X142250000Y-263025000D03*
%TO.P,D33,2,A*%
%TO.N,Net-(D33-A)*%
X142250000Y-259975000D03*
%TD*%
D14*
%TO.P,H4,1,1*%
%TO.N,GND*%
X419220000Y-311750000D03*
D15*
X419220000Y-311750000D03*
%TD*%
D11*
%TO.P,SC37,0,-*%
%TO.N,Net-(D37-A)*%
X110500000Y-103000000D03*
%TO.P,SC37,1,+*%
%TO.N,Net-(D37-C)*%
X110500000Y-142000000D03*
%TD*%
%TO.P,SC39,0,-*%
%TO.N,Net-(D39-A)*%
X147000000Y-188000000D03*
%TO.P,SC39,1,+*%
%TO.N,Net-(D38-A)*%
X147000000Y-149000000D03*
%TD*%
D10*
%TO.P,D32,1,C*%
%TO.N,Net-(D31-A)*%
X227791000Y-261620000D03*
%TO.P,D32,2,A*%
%TO.N,GND*%
X230841000Y-261620000D03*
%TD*%
D11*
%TO.P,SC35,0,-*%
%TO.N,Net-(D35-A)*%
X110500000Y-195000000D03*
%TO.P,SC35,1,+*%
%TO.N,Net-(D34-A)*%
X110500000Y-234000000D03*
%TD*%
D14*
%TO.P,H23,1,1*%
%TO.N,GND*%
X325500000Y-143100000D03*
D15*
X325500000Y-143100000D03*
%TD*%
D11*
%TO.P,SC15,0,-*%
%TO.N,Net-(D15-A)*%
X390500000Y-233500000D03*
%TO.P,SC15,1,+*%
%TO.N,Net-(D14-A)*%
X390500000Y-194500000D03*
%TD*%
%TO.P,SC28,0,-*%
%TO.N,GND*%
X197000000Y-106500000D03*
%TO.P,SC28,1,+*%
%TO.N,Net-(D27-A)*%
X197000000Y-145500000D03*
%TD*%
D16*
%TO.P,D38,1,C*%
%TO.N,Net-(D37-A)*%
X130650000Y-121350000D03*
%TO.P,D38,2,A*%
%TO.N,Net-(D38-A)*%
X130650000Y-124400000D03*
%TD*%
D11*
%TO.P,SC3,0,-*%
%TO.N,Net-(D2-C)*%
X471950000Y-199454797D03*
%TO.P,SC3,1,+*%
%TO.N,Net-(D3-C)*%
X471950000Y-160454797D03*
%TD*%
%TO.P,SC32,0,-*%
%TO.N,GND*%
X227500000Y-308000000D03*
%TO.P,SC32,1,+*%
%TO.N,Net-(D31-A)*%
X227500000Y-269000000D03*
%TD*%
D14*
%TO.P,H15,1,1*%
%TO.N,GND*%
X175200000Y-102250000D03*
D15*
X175200000Y-102250000D03*
%TD*%
D10*
%TO.P,D3,1,C*%
%TO.N,Net-(D3-C)*%
X472755000Y-152704797D03*
%TO.P,D3,2,A*%
%TO.N,Net-(D2-C)*%
X475805000Y-152704797D03*
%TD*%
D11*
%TO.P,SC31,0,-*%
%TO.N,Net-(D31-A)*%
X227500000Y-253833332D03*
%TO.P,SC31,1,+*%
%TO.N,Net-(D30-A)*%
X227500000Y-214833332D03*
%TD*%
%TO.P,SC5,0,-*%
%TO.N,GND*%
X441450000Y-105954797D03*
%TO.P,SC5,1,+*%
%TO.N,Net-(D5-C)*%
X441450000Y-144954797D03*
%TD*%
D10*
%TO.P,D23,1,C*%
%TO.N,Net-(D22-A)*%
X319410000Y-258325000D03*
%TO.P,D23,2,A*%
%TO.N,Net-(D23-A)*%
X316360000Y-258325000D03*
%TD*%
%TO.P,D1,1,C*%
%TO.N,Net-(D1-C)*%
X472775000Y-261704797D03*
%TO.P,D1,2,A*%
%TO.N,GND*%
X475825000Y-261704797D03*
%TD*%
D17*
%TO.P,J3,1*%
%TO.N,DEP SENSE*%
X92450000Y-306750000D03*
%TD*%
D14*
%TO.P,H12,1,1*%
%TO.N,GND*%
X255700000Y-311750000D03*
D15*
X255700000Y-311750000D03*
%TD*%
D11*
%TO.P,SC19,0,-*%
%TO.N,Net-(D19-A)*%
X277450000Y-148550000D03*
%TO.P,SC19,1,+*%
%TO.N,Net-(D18-A)*%
X277450000Y-187550000D03*
%TD*%
D10*
%TO.P,D50,1,C*%
%TO.N,VSOLAR*%
X127350000Y-131300000D03*
%TO.P,D50,2,A*%
%TO.N,Net-(D37-C)*%
X130400000Y-131300000D03*
%TD*%
%TO.P,D29,1,C*%
%TO.N,Net-(D29-C)*%
X221675000Y-153300000D03*
%TO.P,D29,2,A*%
%TO.N,Net-(D29-A)*%
X224725000Y-153300000D03*
%TD*%
D11*
%TO.P,SC22,0,-*%
%TO.N,Net-(D22-A)*%
X306450000Y-187550000D03*
%TO.P,SC22,1,+*%
%TO.N,Net-(D21-A)*%
X306450000Y-148550000D03*
%TD*%
D14*
%TO.P,H17,1,1*%
%TO.N,GND*%
X169450000Y-310769000D03*
D15*
X169450000Y-310769000D03*
%TD*%
D11*
%TO.P,SC12,0,-*%
%TO.N,GND*%
X361500000Y-102500000D03*
%TO.P,SC12,1,+*%
%TO.N,Net-(D11-A)*%
X361500000Y-141500000D03*
%TD*%
D14*
%TO.P,H3,1,1*%
%TO.N,GND*%
X419200000Y-102250000D03*
D15*
X419200000Y-102250000D03*
%TD*%
D11*
%TO.P,SC8,0,-*%
%TO.N,Net-(D7-C)*%
X441450000Y-269454797D03*
%TO.P,SC8,1,+*%
%TO.N,Net-(D45-A)*%
X441450000Y-308454797D03*
%TD*%
D10*
%TO.P,D42,1,C*%
%TO.N,VSOLAR*%
X129090000Y-311250000D03*
%TO.P,D42,2,A*%
%TO.N,Net-(D33-C)*%
X126040000Y-311250000D03*
%TD*%
%TO.P,D30,1,C*%
%TO.N,Net-(D29-A)*%
X227766000Y-153300000D03*
%TO.P,D30,2,A*%
%TO.N,Net-(D30-A)*%
X230816000Y-153300000D03*
%TD*%
%TO.P,D2,1,C*%
%TO.N,Net-(D2-C)*%
X472735000Y-207204797D03*
%TO.P,D2,2,A*%
%TO.N,Net-(D1-C)*%
X475785000Y-207204797D03*
%TD*%
%TO.P,D25,1,C*%
%TO.N,Net-(D25-C)*%
X192050000Y-261600000D03*
%TO.P,D25,2,A*%
%TO.N,Net-(D25-A)*%
X195100000Y-261600000D03*
%TD*%
D17*
%TO.P,J2,1*%
%TO.N,DEP SENSE*%
X92450000Y-107200000D03*
%TD*%
D14*
%TO.P,H2,1,1*%
%TO.N,GND*%
X493200000Y-102250000D03*
D15*
X493200000Y-102250000D03*
%TD*%
D11*
%TO.P,SC33,0,-*%
%TO.N,Net-(D33-A)*%
X110000000Y-270000000D03*
%TO.P,SC33,1,+*%
%TO.N,Net-(D33-C)*%
X110000000Y-309000000D03*
%TD*%
D10*
%TO.P,D20,1,C*%
%TO.N,Net-(D19-A)*%
X264680000Y-239800000D03*
%TO.P,D20,2,A*%
%TO.N,GND*%
X267730000Y-239800000D03*
%TD*%
D11*
%TO.P,SC24,0,-*%
%TO.N,GND*%
X277600000Y-309400000D03*
%TO.P,SC24,1,+*%
%TO.N,Net-(D23-A)*%
X277600000Y-270400000D03*
%TD*%
%TO.P,SC4,0,-*%
%TO.N,Net-(D3-C)*%
X471950000Y-144954797D03*
%TO.P,SC4,1,+*%
%TO.N,Net-(D4-C)*%
X471950000Y-105954797D03*
%TD*%
%TO.P,SC36,0,-*%
%TO.N,GND*%
X110500000Y-149000000D03*
%TO.P,SC36,1,+*%
%TO.N,Net-(D35-A)*%
X110500000Y-188000000D03*
%TD*%
D14*
%TO.P,H11,1,1*%
%TO.N,GND*%
X255700000Y-102250000D03*
D15*
X255700000Y-102250000D03*
%TD*%
D10*
%TO.P,D48,1,C*%
%TO.N,VSOLAR*%
X400525000Y-243450000D03*
%TO.P,D48,2,A*%
%TO.N,Net-(D13-C)*%
X403575000Y-243450000D03*
%TD*%
D14*
%TO.P,H10,1,1*%
%TO.N,GND*%
X327500000Y-102250000D03*
D15*
X327500000Y-102250000D03*
%TD*%
D11*
%TO.P,SC23,0,-*%
%TO.N,Net-(D23-A)*%
X306450000Y-233650000D03*
%TO.P,SC23,1,+*%
%TO.N,Net-(D22-A)*%
X306450000Y-194650000D03*
%TD*%
%TO.P,SC2,0,-*%
%TO.N,Net-(D1-C)*%
X471950000Y-253954797D03*
%TO.P,SC2,1,+*%
%TO.N,Net-(D2-C)*%
X471950000Y-214954797D03*
%TD*%
D10*
%TO.P,D17,1,C*%
%TO.N,Net-(D17-C)*%
X264680000Y-258385000D03*
%TO.P,D17,2,A*%
%TO.N,Net-(D17-A)*%
X267730000Y-258385000D03*
%TD*%
%TO.P,D16,1,C*%
%TO.N,Net-(D15-A)*%
X400585000Y-264684288D03*
%TO.P,D16,2,A*%
%TO.N,GND*%
X403635000Y-264684288D03*
%TD*%
%TO.P,D6,1,C*%
%TO.N,Net-(D6-C)*%
X442275000Y-207204797D03*
%TO.P,D6,2,A*%
%TO.N,Net-(D5-C)*%
X445325000Y-207204797D03*
%TD*%
%TO.P,D14,1,C*%
%TO.N,Net-(D13-A)*%
X403550000Y-254067144D03*
%TO.P,D14,2,A*%
%TO.N,Net-(D14-A)*%
X400500000Y-254067144D03*
%TD*%
D11*
%TO.P,SC40,0,-*%
%TO.N,GND*%
X147000000Y-234000000D03*
%TO.P,SC40,1,+*%
%TO.N,Net-(D39-A)*%
X147000000Y-195000000D03*
%TD*%
D10*
%TO.P,D4,1,C*%
%TO.N,Net-(D4-C)*%
X466650000Y-152700000D03*
%TO.P,D4,2,A*%
%TO.N,Net-(D3-C)*%
X469700000Y-152700000D03*
%TD*%
%TO.P,D34,1,C*%
%TO.N,Net-(D33-A)*%
X129750000Y-235425000D03*
%TO.P,D34,2,A*%
%TO.N,Net-(D34-A)*%
X126700000Y-235425000D03*
%TD*%
%TO.P,D18,1,C*%
%TO.N,Net-(D17-A)*%
X264680000Y-252190000D03*
%TO.P,D18,2,A*%
%TO.N,Net-(D18-A)*%
X267730000Y-252190000D03*
%TD*%
%TO.P,D31,1,C*%
%TO.N,Net-(D30-A)*%
X227791000Y-207250000D03*
%TO.P,D31,2,A*%
%TO.N,Net-(D31-A)*%
X230841000Y-207250000D03*
%TD*%
D11*
%TO.P,SC27,0,-*%
%TO.N,Net-(D27-A)*%
X197000000Y-160666666D03*
%TO.P,SC27,1,+*%
%TO.N,Net-(D26-A)*%
X197000000Y-199666666D03*
%TD*%
D14*
%TO.P,H20,1,1*%
%TO.N,GND*%
X92450000Y-207000000D03*
D15*
X92450000Y-207000000D03*
%TD*%
D16*
%TO.P,D39,1,C*%
%TO.N,Net-(D38-A)*%
X130650000Y-158700000D03*
%TO.P,D39,2,A*%
%TO.N,Net-(D39-A)*%
X130650000Y-161750000D03*
%TD*%
D10*
%TO.P,D22,1,C*%
%TO.N,Net-(D21-A)*%
X319390000Y-252220000D03*
%TO.P,D22,2,A*%
%TO.N,Net-(D22-A)*%
X316340000Y-252220000D03*
%TD*%
D11*
%TO.P,SC29,0,-*%
%TO.N,Net-(D29-A)*%
X227500000Y-145500000D03*
%TO.P,SC29,1,+*%
%TO.N,Net-(D29-C)*%
X227500000Y-106500000D03*
%TD*%
D10*
%TO.P,D8,1,C*%
%TO.N,Net-(D45-A)*%
X436950000Y-261574797D03*
%TO.P,D8,2,A*%
%TO.N,Net-(D7-C)*%
X440000000Y-261574797D03*
%TD*%
D18*
%TO.N,GND*%
X352660000Y-237550000D03*
X319380000Y-261070000D03*
X268380000Y-242540000D03*
%TO.N,VSOLAR*%
X350300000Y-265150000D03*
X183750000Y-258450000D03*
X130900000Y-311250000D03*
X315530000Y-237490000D03*
X458000000Y-152650000D03*
X127375000Y-135225000D03*
X213150000Y-153300000D03*
X264700000Y-261300000D03*
X428250000Y-261550000D03*
X400525000Y-240775000D03*
%TO.N,DEP SENSE*%
X103400000Y-259000000D03*
X104300000Y-178000000D03*
%TD*%
D19*
%TO.N,GND*%
X445325000Y-109829797D02*
X441450000Y-105954797D01*
X391000000Y-309510000D02*
X403635000Y-296875000D01*
X267730000Y-239800000D02*
X267730000Y-241890000D01*
X144875000Y-234000000D02*
X130600000Y-219725000D01*
X412200000Y-102250000D02*
X412200000Y-105550000D01*
X408800000Y-308350000D02*
X407250000Y-308350000D01*
X410150000Y-102250000D02*
X406750000Y-105650000D01*
X475825000Y-261704797D02*
X475825000Y-304579797D01*
X475825000Y-304579797D02*
X471950000Y-308454797D01*
X200361000Y-109861000D02*
X200361000Y-152750000D01*
X227500000Y-308000000D02*
X230841000Y-304659000D01*
X319410000Y-264430000D02*
X319410000Y-261100000D01*
X197000000Y-106500000D02*
X200361000Y-109861000D01*
X412200000Y-102250000D02*
X410150000Y-102250000D01*
X126875000Y-158700000D02*
X120200000Y-158700000D01*
X319410000Y-261100000D02*
X319380000Y-261070000D01*
X120200000Y-158700000D02*
X110500000Y-149000000D01*
X230841000Y-304659000D02*
X230841000Y-261620000D01*
X351725000Y-240232858D02*
X351725000Y-238485000D01*
X412200000Y-311750000D02*
X412200000Y-308950000D01*
X351725000Y-238485000D02*
X352660000Y-237550000D01*
X412200000Y-311750000D02*
X408800000Y-308350000D01*
X147000000Y-234000000D02*
X144875000Y-234000000D01*
X267730000Y-241890000D02*
X268380000Y-242540000D01*
X445325000Y-152704797D02*
X445325000Y-109829797D01*
X403635000Y-296875000D02*
X403635000Y-264684288D01*
%TO.N,VSOLAR*%
X458050000Y-152700000D02*
X458000000Y-152650000D01*
X183750000Y-258450000D02*
X183750000Y-259720000D01*
X129090000Y-311250000D02*
X130900000Y-311250000D01*
X430845000Y-261574797D02*
X428274797Y-261574797D01*
X264680000Y-261320000D02*
X264700000Y-261300000D01*
X127350000Y-131300000D02*
X127350000Y-135200000D01*
X316360000Y-240010000D02*
X316360000Y-238320000D01*
X428274797Y-261574797D02*
X428250000Y-261550000D01*
X215600000Y-153300000D02*
X213150000Y-153300000D01*
X460550000Y-152700000D02*
X458050000Y-152700000D01*
X400525000Y-243450000D02*
X400525000Y-240775000D01*
X348725000Y-263108571D02*
X348725000Y-263575000D01*
X127350000Y-135200000D02*
X127375000Y-135225000D01*
X316360000Y-238320000D02*
X315530000Y-237490000D01*
X264680000Y-264580000D02*
X264680000Y-261320000D01*
X348725000Y-263575000D02*
X350300000Y-265150000D01*
X183750000Y-259720000D02*
X185650000Y-261620000D01*
%TO.N,Net-(D1-C)*%
X471950000Y-253954797D02*
X475785000Y-250119797D01*
X472775000Y-261704797D02*
X472775000Y-254779797D01*
X471950000Y-269454797D02*
X471950000Y-262529797D01*
X475785000Y-250119797D02*
X475785000Y-207204797D01*
X472775000Y-254779797D02*
X471950000Y-253954797D01*
X471950000Y-262529797D02*
X472775000Y-261704797D01*
%TO.N,Net-(D2-C)*%
X471950000Y-207989797D02*
X472735000Y-207204797D01*
X471950000Y-214954797D02*
X471950000Y-207989797D01*
X471950000Y-199454797D02*
X475805000Y-195599797D01*
X475805000Y-195599797D02*
X475805000Y-152704797D01*
X472735000Y-200239797D02*
X471950000Y-199454797D01*
X472735000Y-207204797D02*
X472735000Y-200239797D01*
%TO.N,Net-(D3-C)*%
X471950000Y-153509797D02*
X472755000Y-152704797D01*
X469704797Y-152704797D02*
X469700000Y-152700000D01*
X471950000Y-160454797D02*
X471950000Y-153509797D01*
X472755000Y-152704797D02*
X469704797Y-152704797D01*
X472755000Y-145759797D02*
X471950000Y-144954797D01*
X472755000Y-152704797D02*
X472755000Y-145759797D01*
%TO.N,Net-(D4-C)*%
X466650000Y-152700000D02*
X466650000Y-111254797D01*
X466650000Y-152700000D02*
X463600000Y-152700000D01*
X466650000Y-111254797D02*
X471950000Y-105954797D01*
%TO.N,Net-(D5-C)*%
X441450000Y-160454797D02*
X445325000Y-164329797D01*
X442275000Y-159629797D02*
X441450000Y-160454797D01*
X445325000Y-164329797D02*
X445325000Y-207204797D01*
X442275000Y-152704797D02*
X442275000Y-159629797D01*
X441450000Y-151879797D02*
X442275000Y-152704797D01*
X441450000Y-144954797D02*
X441450000Y-151879797D01*
%TO.N,Net-(D6-C)*%
X446075000Y-261574797D02*
X446075000Y-219579797D01*
X441450000Y-206379797D02*
X442275000Y-207204797D01*
X442275000Y-207204797D02*
X442275000Y-214129797D01*
X441450000Y-199454797D02*
X441450000Y-206379797D01*
X442275000Y-214129797D02*
X441450000Y-214954797D01*
X446075000Y-219579797D02*
X441450000Y-214954797D01*
%TO.N,Net-(D7-C)*%
X441450000Y-253954797D02*
X441450000Y-260124797D01*
X441450000Y-260124797D02*
X441575000Y-260124797D01*
X441450000Y-269454797D02*
X441450000Y-263149797D01*
X441450000Y-263149797D02*
X443025000Y-261574797D01*
X441575000Y-260124797D02*
X443025000Y-261574797D01*
X441450000Y-260124797D02*
X440000000Y-261574797D01*
%TO.N,Net-(D45-A)*%
X436950000Y-261574797D02*
X433895000Y-261574797D01*
X436950000Y-303954797D02*
X441450000Y-308454797D01*
X436950000Y-261574797D02*
X436950000Y-303954797D01*
%TO.N,Net-(D10-C)*%
X353850000Y-255233571D02*
X353850000Y-249675000D01*
X361500000Y-242025000D02*
X361500000Y-233500000D01*
X395750000Y-251460000D02*
X379460000Y-251460000D01*
X353850000Y-249675000D02*
X361500000Y-242025000D01*
X348675000Y-254308571D02*
X351725000Y-257358571D01*
X379460000Y-251460000D02*
X361500000Y-233500000D01*
X351725000Y-257358571D02*
X353850000Y-255233571D01*
X348675000Y-251650000D02*
X348675000Y-254308571D01*
%TO.N,Net-(D43-A)*%
X351775000Y-263108571D02*
X351775000Y-260458571D01*
X356750000Y-255483571D02*
X356750000Y-251460000D01*
X351775000Y-260458571D02*
X348675000Y-257358571D01*
X351775000Y-260458571D02*
X356750000Y-255483571D01*
%TO.N,Net-(D10-A)*%
X351725000Y-249100000D02*
X357400000Y-243425000D01*
X348675000Y-245941429D02*
X348675000Y-248600000D01*
X348675000Y-248600000D02*
X351725000Y-251650000D01*
X357400000Y-198600000D02*
X361500000Y-194500000D01*
X361500000Y-194500000D02*
X361500000Y-187500000D01*
X357400000Y-243425000D02*
X357400000Y-198600000D01*
X351725000Y-251650000D02*
X351725000Y-249100000D01*
%TO.N,Net-(D11-A)*%
X354910000Y-155090000D02*
X361500000Y-148500000D01*
X361500000Y-148500000D02*
X361500000Y-141500000D01*
X348675000Y-242891429D02*
X351725000Y-245941429D01*
X354910000Y-242756429D02*
X354910000Y-155090000D01*
X351725000Y-245941429D02*
X354910000Y-242756429D01*
X348675000Y-240232858D02*
X348675000Y-242891429D01*
%TO.N,Net-(D13-A)*%
X390500000Y-148500000D02*
X390500000Y-141600000D01*
X403550000Y-251808572D02*
X400500000Y-248758572D01*
X398450000Y-156400000D02*
X390550000Y-148500000D01*
X398450000Y-246708572D02*
X398450000Y-156400000D01*
X390500000Y-141600000D02*
X390600000Y-141500000D01*
X400500000Y-248758572D02*
X398450000Y-246708572D01*
X390550000Y-148500000D02*
X390500000Y-148500000D01*
X403550000Y-254067144D02*
X403550000Y-251808572D01*
%TO.N,Net-(D14-A)*%
X396664582Y-247089582D02*
X400500000Y-250925000D01*
X400500000Y-250925000D02*
X400500000Y-254067144D01*
X403625000Y-259375716D02*
X403625000Y-257192144D01*
X390500000Y-194500000D02*
X396664582Y-200664582D01*
X403625000Y-257192144D02*
X400500000Y-254067144D01*
X390500000Y-187500000D02*
X390500000Y-194500000D01*
X396664582Y-200664582D02*
X396664582Y-247089582D01*
%TO.N,Net-(D15-A)*%
X393900000Y-246225000D02*
X393900000Y-236900000D01*
X398550000Y-250875000D02*
X393900000Y-246225000D01*
X400575000Y-259375716D02*
X398550000Y-257350716D01*
X400575000Y-259375716D02*
X400575000Y-264674288D01*
X400575000Y-264674288D02*
X400585000Y-264684288D01*
X391000000Y-270510000D02*
X394759288Y-270510000D01*
X398550000Y-257350716D02*
X398550000Y-250875000D01*
X393900000Y-236900000D02*
X390500000Y-233500000D01*
X394759288Y-270510000D02*
X400585000Y-264684288D01*
%TO.N,Net-(D17-A)*%
X277450000Y-233650000D02*
X277540000Y-233740000D01*
X272650000Y-251300000D02*
X272650000Y-253465000D01*
X272650000Y-253465000D02*
X267730000Y-258385000D01*
X277540000Y-233740000D02*
X277540000Y-246410000D01*
X277540000Y-246410000D02*
X272650000Y-251300000D01*
X267730000Y-258385000D02*
X267730000Y-255240000D01*
X267730000Y-255240000D02*
X264680000Y-252190000D01*
%TO.N,Net-(D17-C)*%
X264680000Y-258385000D02*
X267730000Y-261435000D01*
X267730000Y-261435000D02*
X267730000Y-264580000D01*
X283900000Y-258200000D02*
X294420000Y-258200000D01*
X267730000Y-264580000D02*
X277520000Y-264580000D01*
X277520000Y-264580000D02*
X283900000Y-258200000D01*
X294420000Y-258200000D02*
X301320000Y-251300000D01*
X301320000Y-251300000D02*
X311650000Y-251300000D01*
%TO.N,Net-(D18-A)*%
X277450000Y-194650000D02*
X277450000Y-187550000D01*
X267730000Y-249045000D02*
X264680000Y-245995000D01*
X272980000Y-246940000D02*
X272980000Y-199120000D01*
X267730000Y-252190000D02*
X272980000Y-246940000D01*
X272980000Y-199120000D02*
X277450000Y-194650000D01*
X267730000Y-252190000D02*
X267730000Y-249045000D01*
%TO.N,Net-(D19-A)*%
X277400000Y-141450000D02*
X277400000Y-148500000D01*
X267730000Y-244660000D02*
X264680000Y-241610000D01*
X270720000Y-155280000D02*
X277450000Y-148550000D01*
X277400000Y-148500000D02*
X277450000Y-148550000D01*
X267730000Y-245995000D02*
X267730000Y-244660000D01*
X268355000Y-245995000D02*
X270720000Y-243630000D01*
X270720000Y-243630000D02*
X270720000Y-155280000D01*
X267730000Y-245995000D02*
X268355000Y-245995000D01*
X264680000Y-241610000D02*
X264680000Y-239800000D01*
%TO.N,Net-(D21-A)*%
X319390000Y-249145000D02*
X316360000Y-246115000D01*
X306450000Y-148550000D02*
X306450000Y-141500000D01*
X319390000Y-252220000D02*
X319390000Y-249145000D01*
X314230000Y-156330000D02*
X306450000Y-148550000D01*
X306450000Y-141500000D02*
X306400000Y-141450000D01*
X314230000Y-243985000D02*
X314230000Y-156330000D01*
X316360000Y-246115000D02*
X314230000Y-243985000D01*
%TO.N,Net-(D22-A)*%
X319410000Y-255290000D02*
X316340000Y-252220000D01*
X306450000Y-187550000D02*
X306450000Y-194650000D01*
X319410000Y-258325000D02*
X319410000Y-255290000D01*
X310990000Y-199190000D02*
X306450000Y-194650000D01*
X316340000Y-252220000D02*
X316340000Y-248990000D01*
X316340000Y-248990000D02*
X310990000Y-243640000D01*
X310990000Y-243640000D02*
X310990000Y-199190000D01*
%TO.N,Net-(D23-A)*%
X314660000Y-256625000D02*
X314660000Y-249740000D01*
X277600000Y-270400000D02*
X283570000Y-264430000D01*
X306450000Y-241530000D02*
X306450000Y-233650000D01*
X316360000Y-264430000D02*
X316360000Y-258325000D01*
X283570000Y-264430000D02*
X316360000Y-264430000D01*
X314660000Y-249740000D02*
X306450000Y-241530000D01*
X316360000Y-258325000D02*
X314660000Y-256625000D01*
%TO.N,Net-(D25-A)*%
X198400000Y-267600000D02*
X197000000Y-269000000D01*
X198400000Y-261600000D02*
X198400000Y-255383332D01*
X198400000Y-261600000D02*
X198400000Y-267600000D01*
X195100000Y-261600000D02*
X198400000Y-261600000D01*
X198400000Y-255383332D02*
X196850000Y-253833332D01*
%TO.N,Net-(D25-C)*%
X188700000Y-261620000D02*
X192030000Y-261620000D01*
X192030000Y-261620000D02*
X192050000Y-261600000D01*
X197000000Y-308000000D02*
X192050000Y-303050000D01*
X192050000Y-303050000D02*
X192050000Y-261600000D01*
%TO.N,Net-(D26-A)*%
X201450000Y-261600000D02*
X201450000Y-219433332D01*
X201450000Y-219433332D02*
X196850000Y-214833332D01*
X197000000Y-199666666D02*
X197000000Y-206939000D01*
X197311000Y-214372332D02*
X196850000Y-214833332D01*
X197311000Y-207250000D02*
X197311000Y-214372332D01*
X197000000Y-206939000D02*
X197311000Y-207250000D01*
%TO.N,Net-(D27-A)*%
X197000000Y-145500000D02*
X197000000Y-152439000D01*
X197000000Y-160666666D02*
X200361000Y-164027666D01*
X197311000Y-160355666D02*
X197000000Y-160666666D01*
X197000000Y-152439000D02*
X197311000Y-152750000D01*
X200361000Y-164027666D02*
X200361000Y-207250000D01*
X197311000Y-152750000D02*
X197311000Y-160355666D01*
%TO.N,Net-(D29-A)*%
X227316000Y-153300000D02*
X227766000Y-152850000D01*
X227500000Y-160666666D02*
X227500000Y-153566000D01*
X224725000Y-153300000D02*
X227316000Y-153300000D01*
X227500000Y-153566000D02*
X227766000Y-153300000D01*
X227766000Y-153300000D02*
X227766000Y-152850000D01*
X227766000Y-152850000D02*
X227766000Y-145766000D01*
X227766000Y-145766000D02*
X227500000Y-145500000D01*
%TO.N,Net-(D30-A)*%
X227500000Y-207541000D02*
X227791000Y-207250000D01*
X227791000Y-199957666D02*
X227500000Y-199666666D01*
X227791000Y-207250000D02*
X227791000Y-199957666D01*
X227500000Y-199666666D02*
X230816000Y-196350666D01*
X230816000Y-196350666D02*
X230816000Y-153300000D01*
X227500000Y-214833332D02*
X227500000Y-207541000D01*
%TO.N,Net-(D31-A)*%
X227791000Y-254124332D02*
X227500000Y-253833332D01*
X227500000Y-261911000D02*
X227791000Y-261620000D01*
X227500000Y-269000000D02*
X227500000Y-261911000D01*
X227500000Y-253833332D02*
X230841000Y-250492332D01*
X227791000Y-261620000D02*
X227791000Y-254124332D01*
X230841000Y-250492332D02*
X230841000Y-207250000D01*
%TO.N,Net-(D33-A)*%
X127650000Y-252000000D02*
X137500000Y-252000000D01*
X137500000Y-255225000D02*
X142250000Y-259975000D01*
X129750000Y-244250000D02*
X137500000Y-252000000D01*
X137500000Y-252000000D02*
X137500000Y-255225000D01*
X110000000Y-269650000D02*
X127650000Y-252000000D01*
X129750000Y-235425000D02*
X129750000Y-244250000D01*
X110000000Y-270000000D02*
X110000000Y-269650000D01*
%TO.N,Net-(D33-C)*%
X116925000Y-272500000D02*
X126400000Y-263025000D01*
X126040000Y-311250000D02*
X112250000Y-311250000D01*
X126400000Y-263025000D02*
X142250000Y-263025000D01*
X112250000Y-311250000D02*
X110000000Y-309000000D01*
X126040000Y-311250000D02*
X116925000Y-302135000D01*
X116925000Y-302135000D02*
X116925000Y-272500000D01*
%TO.N,Net-(D34-A)*%
X126850000Y-219725000D02*
X126850000Y-235275000D01*
X126850000Y-235275000D02*
X126700000Y-235425000D01*
X125275000Y-234000000D02*
X126700000Y-235425000D01*
X110500000Y-240000000D02*
X110500000Y-234000000D01*
X110500000Y-234000000D02*
X125275000Y-234000000D01*
X98500000Y-252000000D02*
X110500000Y-240000000D01*
%TO.N,Net-(D35-A)*%
X112250000Y-166575000D02*
X112275000Y-166575000D01*
X110500000Y-195000000D02*
X126850000Y-211350000D01*
X110500000Y-188000000D02*
X110500000Y-195000000D01*
X126850000Y-211350000D02*
X126850000Y-216675000D01*
X110500000Y-168325000D02*
X112250000Y-166575000D01*
X110500000Y-188000000D02*
X110500000Y-168325000D01*
X112275000Y-166575000D02*
X117100000Y-161750000D01*
X117100000Y-161750000D02*
X126875000Y-161750000D01*
%TO.N,Net-(D37-A)*%
X126875000Y-121350000D02*
X130650000Y-121350000D01*
X130650000Y-121350000D02*
X130650000Y-119349000D01*
X126875000Y-121350000D02*
X126875000Y-119375000D01*
X130650000Y-119349000D02*
X147000000Y-102999000D01*
X126875000Y-119375000D02*
X110500000Y-103000000D01*
%TO.N,Net-(D38-A)*%
X147000000Y-149000000D02*
X147000000Y-141999000D01*
X130650000Y-158700000D02*
X137300000Y-158700000D01*
X130650000Y-125649000D02*
X130650000Y-124400000D01*
X147000000Y-141999000D02*
X130650000Y-125649000D01*
X137300000Y-158700000D02*
X147000000Y-149000000D01*
%TO.N,Net-(D39-A)*%
X147000000Y-195000000D02*
X147000000Y-188000000D01*
X147000000Y-188000000D02*
X147000000Y-171875000D01*
X130600000Y-216675000D02*
X130600000Y-211400000D01*
X147000000Y-171875000D02*
X136875000Y-161750000D01*
X130600000Y-211400000D02*
X147000000Y-195000000D01*
X136875000Y-161750000D02*
X130650000Y-161750000D01*
%TO.N,Net-(D13-C)*%
X403575000Y-241425000D02*
X400350000Y-238200000D01*
X400350000Y-238200000D02*
X400350000Y-112250000D01*
X403575000Y-243450000D02*
X403575000Y-241425000D01*
X403550000Y-248758572D02*
X403550000Y-243475000D01*
X400350000Y-112250000D02*
X390600000Y-102500000D01*
X403550000Y-243475000D02*
X403575000Y-243450000D01*
%TO.N,Net-(D21-C)*%
X319410000Y-240010000D02*
X317560000Y-238160000D01*
X317560000Y-237822944D02*
X317130000Y-237392944D01*
X317560000Y-238160000D02*
X317560000Y-237822944D01*
X319410000Y-246115000D02*
X319410000Y-240010000D01*
X317130000Y-113180000D02*
X306400000Y-102450000D01*
X317130000Y-237392944D02*
X317130000Y-113180000D01*
%TO.N,Net-(D29-C)*%
X221675000Y-112325000D02*
X227500000Y-106500000D01*
X221675000Y-153300000D02*
X221675000Y-112325000D01*
X221675000Y-153300000D02*
X218650000Y-153300000D01*
%TO.N,Net-(D37-C)*%
X126875000Y-125625000D02*
X126875000Y-124400000D01*
X126875000Y-124400000D02*
X126875000Y-127775000D01*
X110500000Y-142000000D02*
X126875000Y-125625000D01*
X126875000Y-127775000D02*
X130400000Y-131300000D01*
%TO.N,DEP SENSE*%
X103400000Y-296850000D02*
X103400000Y-259000000D01*
X92450000Y-306750000D02*
X93500000Y-306750000D01*
X93500000Y-306750000D02*
X103400000Y-296850000D01*
X93500000Y-107200000D02*
X104300000Y-118000000D01*
X92450000Y-107200000D02*
X93500000Y-107200000D01*
X104300000Y-118000000D02*
X104300000Y-178000000D01*
%TD*%
%TA.AperFunction,Conductor*%
%TO.N,GND*%
G36*
X407021257Y-303403602D02*
G01*
X407266449Y-303464037D01*
X407566748Y-303500500D01*
X407682201Y-303500500D01*
X413152108Y-303500500D01*
X413213572Y-303500500D01*
X413222418Y-303500816D01*
X413422561Y-303515130D01*
X413440063Y-303517647D01*
X413631797Y-303559355D01*
X413648755Y-303564334D01*
X413832609Y-303632909D01*
X413848701Y-303640259D01*
X414020904Y-303734288D01*
X414035784Y-303743849D01*
X414192867Y-303861441D01*
X414206237Y-303873027D01*
X414344972Y-304011762D01*
X414356558Y-304025132D01*
X414474146Y-304182210D01*
X414483711Y-304197095D01*
X414577740Y-304369298D01*
X414585090Y-304385390D01*
X414653662Y-304569236D01*
X414658646Y-304586212D01*
X414700351Y-304777931D01*
X414702869Y-304795442D01*
X414717184Y-304995580D01*
X414717500Y-305004427D01*
X414717500Y-308976000D01*
X414697815Y-309043039D01*
X414645011Y-309088794D01*
X414593500Y-309100000D01*
X406224000Y-309100000D01*
X406156961Y-309080315D01*
X406111206Y-309027511D01*
X406100000Y-308976000D01*
X406100000Y-303524000D01*
X406119685Y-303456961D01*
X406172489Y-303411206D01*
X406224000Y-303400000D01*
X406991583Y-303400000D01*
X407021257Y-303403602D01*
G37*
%TD.AperFunction*%
%TD*%
%TA.AperFunction,Conductor*%
%TO.N,GND*%
G36*
X414660539Y-104819685D02*
G01*
X414706294Y-104872489D01*
X414717500Y-104924000D01*
X414717500Y-108995572D01*
X414717184Y-109004419D01*
X414702869Y-109204557D01*
X414700351Y-109222068D01*
X414658646Y-109413787D01*
X414653662Y-109430763D01*
X414585090Y-109614609D01*
X414577740Y-109630701D01*
X414483711Y-109802904D01*
X414474146Y-109817789D01*
X414356558Y-109974867D01*
X414344972Y-109988237D01*
X414206237Y-110126972D01*
X414192867Y-110138558D01*
X414035789Y-110256146D01*
X414020904Y-110265711D01*
X413848701Y-110359740D01*
X413832609Y-110367090D01*
X413648763Y-110435662D01*
X413631787Y-110440646D01*
X413440068Y-110482351D01*
X413422557Y-110484869D01*
X413241779Y-110497799D01*
X413222417Y-110499184D01*
X413213572Y-110499500D01*
X407783892Y-110499500D01*
X407718000Y-110499500D01*
X407566748Y-110499500D01*
X407563040Y-110499950D01*
X407563027Y-110499951D01*
X407270168Y-110535511D01*
X407270161Y-110535512D01*
X407266449Y-110535963D01*
X407262824Y-110536856D01*
X407262810Y-110536859D01*
X406976371Y-110607460D01*
X406976362Y-110607462D01*
X406972734Y-110608357D01*
X406969233Y-110609684D01*
X406969229Y-110609686D01*
X406693388Y-110714299D01*
X406693384Y-110714300D01*
X406689887Y-110715627D01*
X406686589Y-110717357D01*
X406686571Y-110717366D01*
X406571397Y-110777814D01*
X406515382Y-110792007D01*
X406025610Y-110798368D01*
X405958321Y-110779555D01*
X405911884Y-110727350D01*
X405900000Y-110674378D01*
X405900000Y-104924000D01*
X405919685Y-104856961D01*
X405972489Y-104811206D01*
X406024000Y-104800000D01*
X414593500Y-104800000D01*
X414660539Y-104819685D01*
G37*
%TD.AperFunction*%
%TD*%
M02*
