%TF.GenerationSoftware,KiCad,Pcbnew,7.0.2-0*%
%TF.CreationDate,2023-11-14T22:29:05-08:00*%
%TF.ProjectId,RPi_interface,5250695f-696e-4746-9572-666163652e6b,1.0*%
%TF.SameCoordinates,Original*%
%TF.FileFunction,Copper,L4,Bot*%
%TF.FilePolarity,Positive*%
%FSLAX46Y46*%
G04 Gerber Fmt 4.6, Leading zero omitted, Abs format (unit mm)*
G04 Created by KiCad (PCBNEW 7.0.2-0) date 2023-11-14 22:29:05*
%MOMM*%
%LPD*%
G01*
G04 APERTURE LIST*
%TA.AperFunction,ComponentPad*%
%ADD10C,4.700000*%
%TD*%
%TA.AperFunction,ComponentPad*%
%ADD11C,1.400000*%
%TD*%
%TA.AperFunction,ComponentPad*%
%ADD12O,1.400000X1.400000*%
%TD*%
%TA.AperFunction,ComponentPad*%
%ADD13C,2.050000*%
%TD*%
%TA.AperFunction,ComponentPad*%
%ADD14C,2.250000*%
%TD*%
%TA.AperFunction,ComponentPad*%
%ADD15R,1.700000X1.700000*%
%TD*%
%TA.AperFunction,ComponentPad*%
%ADD16O,1.700000X1.700000*%
%TD*%
%TA.AperFunction,ComponentPad*%
%ADD17R,1.308000X1.308000*%
%TD*%
%TA.AperFunction,ComponentPad*%
%ADD18C,1.308000*%
%TD*%
%TA.AperFunction,ViaPad*%
%ADD19C,0.800000*%
%TD*%
%TA.AperFunction,Conductor*%
%ADD20C,1.000000*%
%TD*%
%TA.AperFunction,Conductor*%
%ADD21C,2.000000*%
%TD*%
%TA.AperFunction,Conductor*%
%ADD22C,0.250000*%
%TD*%
G04 APERTURE END LIST*
D10*
%TO.P,H5,1,1*%
%TO.N,GND*%
X102500000Y-86200000D03*
%TD*%
%TO.P,H2,1,1*%
%TO.N,GND*%
X151500000Y-51500000D03*
%TD*%
%TO.P,H4,1,1*%
%TO.N,GND*%
X151500000Y-109500000D03*
%TD*%
%TO.P,H1,1,1*%
%TO.N,GND*%
X102500000Y-51500000D03*
%TD*%
D11*
%TO.P,TH1,1*%
%TO.N,PyCubed_AIN?*%
X127550000Y-88460000D03*
D12*
%TO.P,TH1,2*%
%TO.N,GND*%
X127550000Y-93540000D03*
%TD*%
D10*
%TO.P,H3,1,1*%
%TO.N,GND*%
X102500000Y-109500000D03*
%TD*%
D13*
%TO.P,J4,1,In*%
%TO.N,Net-(J4-In)*%
X135000000Y-108000000D03*
D14*
%TO.P,J4,2,Ext*%
%TO.N,GND*%
X132460000Y-105460000D03*
X132460000Y-110540000D03*
X137540000Y-105460000D03*
X137540000Y-110540000D03*
%TD*%
D15*
%TO.P,J3,1,Pin_1*%
%TO.N,Net-(J3-Pin_1)*%
X119500000Y-62540000D03*
D16*
%TO.P,J3,2,Pin_2*%
%TO.N,GND*%
X119500000Y-60000000D03*
%TO.P,J3,3,Pin_3*%
%TO.N,unconnected-(J3-Pin_3-Pad3)*%
X119500000Y-57460000D03*
%TD*%
D17*
%TO.P,J2,1,1*%
%TO.N,VBATT*%
X93300000Y-65000000D03*
D18*
%TO.P,J2,2,2*%
%TO.N,TX*%
X93300000Y-67000001D03*
%TO.P,J2,3,3*%
%TO.N,RX*%
X93300000Y-69000000D03*
%TO.P,J2,4,4*%
%TO.N,GND*%
X93300000Y-71000001D03*
%TO.P,J2,5,5*%
%TO.N,RPI_RST*%
X93300000Y-72999999D03*
%TO.P,J2,6,6*%
%TO.N,PyCubed_AIN?*%
X93300000Y-75000000D03*
%TO.P,J2,7,7*%
%TO.N,ENAB_RPI*%
X93300000Y-76999999D03*
%TO.P,J2,8,8*%
%TO.N,GND*%
X93300000Y-79000000D03*
%TD*%
D15*
%TO.P,J1,1,Pin_1*%
%TO.N,unconnected-(J1-Pin_1-Pad1)*%
X150230000Y-56370000D03*
D16*
%TO.P,J1,2,Pin_2*%
%TO.N,5V*%
X152770000Y-56370000D03*
%TO.P,J1,3,Pin_3*%
%TO.N,unconnected-(J1-Pin_3-Pad3)*%
X150230000Y-58910000D03*
%TO.P,J1,4,Pin_4*%
%TO.N,5V*%
X152770000Y-58910000D03*
%TO.P,J1,5,Pin_5*%
%TO.N,unconnected-(J1-Pin_5-Pad5)*%
X150230000Y-61450000D03*
%TO.P,J1,6,Pin_6*%
%TO.N,GND*%
X152770000Y-61450000D03*
%TO.P,J1,7,Pin_7*%
%TO.N,unconnected-(J1-Pin_7-Pad7)*%
X150230000Y-63990000D03*
%TO.P,J1,8,Pin_8*%
%TO.N,TX*%
X152770000Y-63990000D03*
%TO.P,J1,9,Pin_9*%
%TO.N,GND*%
X150230000Y-66530000D03*
%TO.P,J1,10,Pin_10*%
%TO.N,RX*%
X152770000Y-66530000D03*
%TO.P,J1,11,Pin_11*%
%TO.N,unconnected-(J1-Pin_11-Pad11)*%
X150230000Y-69070000D03*
%TO.P,J1,12,Pin_12*%
%TO.N,unconnected-(J1-Pin_12-Pad12)*%
X152770000Y-69070000D03*
%TO.P,J1,13,Pin_13*%
%TO.N,ENAB_RF*%
X150230000Y-71610000D03*
%TO.P,J1,14,Pin_14*%
%TO.N,GND*%
X152770000Y-71610000D03*
%TO.P,J1,15,Pin_15*%
%TO.N,RF_RST*%
X150230000Y-74150000D03*
%TO.P,J1,16,Pin_16*%
%TO.N,RF_TX_EN*%
X152770000Y-74150000D03*
%TO.P,J1,17,Pin_17*%
%TO.N,unconnected-(J1-Pin_17-Pad17)*%
X150230000Y-76690000D03*
%TO.P,J1,18,Pin_18*%
%TO.N,RF_RX_EN*%
X152770000Y-76690000D03*
%TO.P,J1,19,Pin_19*%
%TO.N,MOSI*%
X150230000Y-79230000D03*
%TO.P,J1,20,Pin_20*%
%TO.N,GND*%
X152770000Y-79230000D03*
%TO.P,J1,21,Pin_21*%
%TO.N,MISO*%
X150230000Y-81770000D03*
%TO.P,J1,22,Pin_22*%
%TO.N,TCXO_EN*%
X152770000Y-81770000D03*
%TO.P,J1,23,Pin_23*%
%TO.N,SCLK*%
X150230000Y-84310000D03*
%TO.P,J1,24,Pin_24*%
%TO.N,unconnected-(J1-Pin_24-Pad24)*%
X152770000Y-84310000D03*
%TO.P,J1,25,Pin_25*%
%TO.N,GND*%
X150230000Y-86850000D03*
%TO.P,J1,26,Pin_26*%
%TO.N,unconnected-(J1-Pin_26-Pad26)*%
X152770000Y-86850000D03*
%TO.P,J1,27,Pin_27*%
%TO.N,unconnected-(J1-Pin_27-Pad27)*%
X150230000Y-89390000D03*
%TO.P,J1,28,Pin_28*%
%TO.N,unconnected-(J1-Pin_28-Pad28)*%
X152770000Y-89390000D03*
%TO.P,J1,29,Pin_29*%
%TO.N,RF_CS*%
X150230000Y-91930000D03*
%TO.P,J1,30,Pin_30*%
%TO.N,GND*%
X152770000Y-91930000D03*
%TO.P,J1,31,Pin_31*%
%TO.N,unconnected-(J1-Pin_31-Pad31)*%
X150230000Y-94470000D03*
%TO.P,J1,32,Pin_32*%
%TO.N,unconnected-(J1-Pin_32-Pad32)*%
X152770000Y-94470000D03*
%TO.P,J1,33,Pin_33*%
%TO.N,unconnected-(J1-Pin_33-Pad33)*%
X150230000Y-97010000D03*
%TO.P,J1,34,Pin_34*%
%TO.N,GND*%
X152770000Y-97010000D03*
%TO.P,J1,35,Pin_35*%
%TO.N,RF_IO1*%
X150230000Y-99550000D03*
%TO.P,J1,36,Pin_36*%
%TO.N,unconnected-(J1-Pin_36-Pad36)*%
X152770000Y-99550000D03*
%TO.P,J1,37,Pin_37*%
%TO.N,RF_BUSY*%
X150230000Y-102090000D03*
%TO.P,J1,38,Pin_38*%
%TO.N,RF_IO2*%
X152770000Y-102090000D03*
%TO.P,J1,39,Pin_39*%
%TO.N,GND*%
X150230000Y-104630000D03*
%TO.P,J1,40,Pin_40*%
%TO.N,RF_IO3*%
X152770000Y-104630000D03*
%TD*%
D19*
%TO.N,GND*%
X106875000Y-64125000D03*
X157200000Y-54050000D03*
X129100000Y-59300000D03*
X90725000Y-70425000D03*
X139125000Y-92525000D03*
X139125000Y-91575000D03*
X91900000Y-82925000D03*
X99375000Y-69675000D03*
X138250000Y-91575000D03*
X113475000Y-60025000D03*
X90725000Y-69525000D03*
X93825000Y-81175000D03*
X116350000Y-60900000D03*
X129100000Y-60175000D03*
X157200000Y-59150000D03*
X138250000Y-93475000D03*
X93825000Y-82925000D03*
X106875000Y-65000000D03*
X130050000Y-59300000D03*
X138575000Y-54575000D03*
X115400000Y-60900000D03*
X98475000Y-69675000D03*
X116350000Y-59150000D03*
X157200000Y-56550000D03*
X106800000Y-73300000D03*
X92875000Y-81175000D03*
X145550000Y-70350000D03*
X99375000Y-67875000D03*
X99375000Y-66975000D03*
X108775000Y-65875000D03*
X99375000Y-68775000D03*
X116350000Y-60025000D03*
X94775000Y-81175000D03*
X90725000Y-71325000D03*
X92875000Y-82925000D03*
X130050000Y-61050000D03*
X91625000Y-70425000D03*
X130050000Y-60175000D03*
X138575000Y-55525000D03*
X137700000Y-56475000D03*
X138250000Y-92525000D03*
X139125000Y-93475000D03*
X107825000Y-65000000D03*
X137375000Y-91575000D03*
X136825000Y-57450000D03*
X107825000Y-65875000D03*
X107825000Y-64125000D03*
X136825000Y-56475000D03*
X91625000Y-69525000D03*
X113475000Y-59150000D03*
X98475000Y-66975000D03*
X138500000Y-97100000D03*
X113475000Y-60900000D03*
X92875000Y-82050000D03*
X136825000Y-54575000D03*
X137375000Y-93475000D03*
X90725000Y-72225000D03*
X98475000Y-67875000D03*
X137700000Y-54575000D03*
X98475000Y-68775000D03*
X91900000Y-81175000D03*
X114450000Y-60900000D03*
X106875000Y-65875000D03*
X105900000Y-64125000D03*
X105900000Y-65875000D03*
X137375000Y-92525000D03*
X136825000Y-55525000D03*
X115400000Y-59150000D03*
X108775000Y-65000000D03*
X91625000Y-72225000D03*
X105900000Y-65000000D03*
X115400000Y-60025000D03*
X138575000Y-57450000D03*
X108775000Y-64125000D03*
X94775000Y-82925000D03*
X93825000Y-82050000D03*
X94775000Y-82050000D03*
X129100000Y-61050000D03*
X132975000Y-97025000D03*
X114450000Y-59150000D03*
X91900000Y-82050000D03*
X137700000Y-55525000D03*
X114450000Y-60025000D03*
X137375000Y-94450000D03*
X139125000Y-94450000D03*
X91625000Y-71325000D03*
X138250000Y-94450000D03*
X138575000Y-56475000D03*
X137700000Y-57450000D03*
X108800000Y-73300000D03*
%TO.N,5V*%
X107025000Y-56625000D03*
X104000000Y-68900000D03*
X103100000Y-69800000D03*
X106125000Y-57175000D03*
X104000000Y-67950000D03*
X107025000Y-55675000D03*
X106125000Y-56225000D03*
X103100000Y-68850000D03*
%TO.N,VBATT*%
X98800000Y-61000000D03*
X99700000Y-61900000D03*
X99700000Y-61000000D03*
X99700000Y-62800000D03*
X98800000Y-63700000D03*
X130975000Y-49325000D03*
X98800000Y-61900000D03*
X99700000Y-63700000D03*
X130250000Y-48650000D03*
X98800000Y-62800000D03*
%TO.N,Net-(U1-VREG5)*%
X107600000Y-70900000D03*
X111200000Y-73000000D03*
%TO.N,TX*%
X123450000Y-45625000D03*
X143675000Y-48050000D03*
%TO.N,RX*%
X122475000Y-46425000D03*
X142850000Y-48625000D03*
%TO.N,RF_TX_EN*%
X154525000Y-94450000D03*
X144561750Y-96895000D03*
%TO.N,RF_RX_EN*%
X142531750Y-96895000D03*
X154500000Y-92625000D03*
%TO.N,PyCubed_AIN?*%
X99750000Y-78775000D03*
%TO.N,ENAB_RPI*%
X109900000Y-67800000D03*
%TD*%
D20*
%TO.N,GND*%
X152770000Y-71610000D02*
X155110000Y-71610000D01*
X152770000Y-91930000D02*
X154050000Y-90650000D01*
X152770000Y-97010000D02*
X155185000Y-99425000D01*
X152770000Y-61450000D02*
X154500000Y-61450000D01*
X150230000Y-66530000D02*
X147870000Y-66530000D01*
X154050000Y-90650000D02*
X155700000Y-90650000D01*
X150230000Y-86850000D02*
X147825000Y-86850000D01*
X154500000Y-61450000D02*
X155375000Y-62325000D01*
X152770000Y-79230000D02*
X154745000Y-79230000D01*
D21*
%TO.N,5V*%
X106700000Y-56150000D02*
X104000000Y-58850000D01*
X104000000Y-58850000D02*
X104000000Y-68900000D01*
X103450000Y-69450000D02*
X103100000Y-69450000D01*
X104000000Y-68900000D02*
X103450000Y-69450000D01*
X106750000Y-56150000D02*
X106700000Y-56150000D01*
D20*
%TO.N,VBATT*%
X129300000Y-47700000D02*
X130250000Y-48650000D01*
X93300000Y-54875000D02*
X93300000Y-65000000D01*
X100475000Y-47700000D02*
X93300000Y-54875000D01*
X130250000Y-48650000D02*
X130300000Y-48650000D01*
X130300000Y-48650000D02*
X130975000Y-49325000D01*
X100475000Y-47700000D02*
X129300000Y-47700000D01*
D22*
%TO.N,Net-(U1-VREG5)*%
X111200000Y-73000000D02*
X109700000Y-73000000D01*
X109700000Y-73000000D02*
X107600000Y-70900000D01*
%TO.N,TX*%
X123450000Y-45625000D02*
X141200000Y-45625000D01*
X141200000Y-45625000D02*
X143625000Y-48050000D01*
X143625000Y-48050000D02*
X143675000Y-48050000D01*
%TO.N,RX*%
X122475000Y-46425000D02*
X140650000Y-46425000D01*
X140650000Y-46425000D02*
X142850000Y-48625000D01*
%TO.N,RF_TX_EN*%
X145621750Y-95835000D02*
X153115000Y-95835000D01*
X144561750Y-96895000D02*
X145621750Y-95835000D01*
X153115000Y-95835000D02*
X154500000Y-94450000D01*
%TO.N,RF_RX_EN*%
X153805000Y-93295000D02*
X154475000Y-92625000D01*
X142531750Y-96895000D02*
X146131750Y-93295000D01*
X146131750Y-93295000D02*
X153805000Y-93295000D01*
%TO.N,PyCubed_AIN?*%
X109250000Y-78775000D02*
X99750000Y-78775000D01*
X118935000Y-88460000D02*
X127550000Y-88460000D01*
X109250000Y-78775000D02*
X118935000Y-88460000D01*
%TO.N,ENAB_RPI*%
X97600000Y-70775000D02*
X94700000Y-73675000D01*
X97600000Y-70775000D02*
X104375000Y-70775000D01*
X109900000Y-67800000D02*
X107350000Y-67800000D01*
X107350000Y-67800000D02*
X104375000Y-70775000D01*
X94700000Y-73675000D02*
X94700000Y-75599999D01*
X94700000Y-75599999D02*
X93300000Y-76999999D01*
%TD*%
%TA.AperFunction,Conductor*%
%TO.N,GND*%
G36*
X122623012Y-45020185D02*
G01*
X122668767Y-45072989D01*
X122678711Y-45142147D01*
X122663360Y-45186500D01*
X122622820Y-45256715D01*
X122563652Y-45438818D01*
X122524215Y-45496494D01*
X122459856Y-45523692D01*
X122445721Y-45524500D01*
X122380352Y-45524500D01*
X122195197Y-45563855D01*
X122022269Y-45640848D01*
X121869129Y-45752110D01*
X121742466Y-45892783D01*
X121647820Y-46056715D01*
X121589326Y-46236742D01*
X121569540Y-46425000D01*
X121583996Y-46562539D01*
X121571426Y-46631268D01*
X121523694Y-46682292D01*
X121460675Y-46699500D01*
X100489238Y-46699500D01*
X100486096Y-46699460D01*
X100398635Y-46697243D01*
X100340581Y-46707648D01*
X100331253Y-46708957D01*
X100272561Y-46714926D01*
X100243527Y-46724035D01*
X100228288Y-46727775D01*
X100198345Y-46733142D01*
X100143568Y-46755021D01*
X100134698Y-46758179D01*
X100078410Y-46775841D01*
X100051809Y-46790605D01*
X100037639Y-46797335D01*
X100009385Y-46808622D01*
X99960121Y-46841087D01*
X99952070Y-46845964D01*
X99900498Y-46874590D01*
X99877414Y-46894407D01*
X99864887Y-46903853D01*
X99839481Y-46920598D01*
X99797775Y-46962303D01*
X99790868Y-46968704D01*
X99746103Y-47007135D01*
X99727480Y-47031193D01*
X99717108Y-47042969D01*
X92602646Y-54157432D01*
X92600399Y-54159623D01*
X92536948Y-54219939D01*
X92503244Y-54268362D01*
X92497573Y-54275882D01*
X92460301Y-54321593D01*
X92446210Y-54348566D01*
X92438082Y-54361983D01*
X92420705Y-54386950D01*
X92397439Y-54441165D01*
X92393399Y-54449671D01*
X92366090Y-54501952D01*
X92357720Y-54531201D01*
X92352459Y-54545978D01*
X92340460Y-54573942D01*
X92328587Y-54631713D01*
X92326342Y-54640860D01*
X92310113Y-54697580D01*
X92307802Y-54727925D01*
X92305622Y-54743466D01*
X92299500Y-54773258D01*
X92299500Y-54832241D01*
X92299142Y-54841655D01*
X92294663Y-54900477D01*
X92298506Y-54930651D01*
X92299500Y-54946317D01*
X92299500Y-59670500D01*
X92279815Y-59737539D01*
X92227011Y-59783294D01*
X92175500Y-59794500D01*
X91719573Y-59794500D01*
X91716552Y-59794796D01*
X91716552Y-59794797D01*
X91624148Y-59803882D01*
X91624144Y-59803882D01*
X91621119Y-59804180D01*
X91618143Y-59804770D01*
X91618129Y-59804773D01*
X91576729Y-59812994D01*
X91576719Y-59812996D01*
X91573740Y-59813588D01*
X91570843Y-59814465D01*
X91570816Y-59814472D01*
X91479049Y-59842262D01*
X91355258Y-59915603D01*
X91300824Y-59959411D01*
X91202727Y-60064637D01*
X91138236Y-60193263D01*
X91116856Y-60257359D01*
X91116173Y-60259287D01*
X91090487Y-60401128D01*
X90899568Y-65651409D01*
X90899568Y-65651423D01*
X90899442Y-65654897D01*
X90899706Y-65658356D01*
X90899707Y-65658372D01*
X90907850Y-65764796D01*
X90907851Y-65764807D01*
X90908117Y-65768277D01*
X90908771Y-65771695D01*
X90908773Y-65771709D01*
X90917877Y-65819281D01*
X90918536Y-65822723D01*
X90919573Y-65826054D01*
X90919576Y-65826066D01*
X90952336Y-65931300D01*
X91028436Y-66053408D01*
X91073454Y-66106844D01*
X91163236Y-66186850D01*
X91180869Y-66202563D01*
X91310905Y-66264146D01*
X91310907Y-66264146D01*
X91310910Y-66264148D01*
X91380981Y-66285784D01*
X91387281Y-66286279D01*
X91519784Y-66307212D01*
X92152345Y-66315997D01*
X92219105Y-66336611D01*
X92264122Y-66390045D01*
X92273104Y-66459335D01*
X92261624Y-66495256D01*
X92218847Y-66581164D01*
X92160295Y-66786950D01*
X92140554Y-67000000D01*
X92160295Y-67213051D01*
X92218848Y-67418841D01*
X92314216Y-67610368D01*
X92443159Y-67781116D01*
X92582743Y-67908363D01*
X92619025Y-67968074D01*
X92617264Y-68037922D01*
X92582744Y-68091637D01*
X92443157Y-68218887D01*
X92314216Y-68389632D01*
X92218848Y-68581159D01*
X92160295Y-68786949D01*
X92140554Y-69000000D01*
X92160295Y-69213050D01*
X92218848Y-69418840D01*
X92314216Y-69610367D01*
X92443159Y-69781115D01*
X92601273Y-69925254D01*
X92601274Y-69925255D01*
X92601278Y-69925258D01*
X92618791Y-69936102D01*
X92665426Y-69988126D01*
X92670165Y-70016614D01*
X93255599Y-70602047D01*
X93174852Y-70614836D01*
X93061955Y-70672360D01*
X92972359Y-70761956D01*
X92914835Y-70874853D01*
X92902046Y-70955599D01*
X92323980Y-70377533D01*
X92314646Y-70389896D01*
X92219315Y-70581344D01*
X92160789Y-70787043D01*
X92141056Y-71000001D01*
X92160789Y-71212958D01*
X92219315Y-71418657D01*
X92314646Y-71610106D01*
X92323980Y-71622467D01*
X92902046Y-71044401D01*
X92914835Y-71125149D01*
X92972359Y-71238046D01*
X93061955Y-71327642D01*
X93174852Y-71385166D01*
X93255599Y-71397954D01*
X92669909Y-71983642D01*
X92664860Y-72013040D01*
X92618795Y-72063894D01*
X92601277Y-72074741D01*
X92443159Y-72218883D01*
X92314216Y-72389631D01*
X92218848Y-72581158D01*
X92160295Y-72786948D01*
X92140554Y-72999998D01*
X92160295Y-73213049D01*
X92218848Y-73418839D01*
X92314216Y-73610366D01*
X92443159Y-73781114D01*
X92582745Y-73908362D01*
X92619027Y-73968073D01*
X92617266Y-74037920D01*
X92582745Y-74091636D01*
X92443159Y-74218884D01*
X92314216Y-74389632D01*
X92218848Y-74581159D01*
X92160295Y-74786949D01*
X92140554Y-74999999D01*
X92160295Y-75213050D01*
X92218848Y-75418840D01*
X92314216Y-75610367D01*
X92443159Y-75781115D01*
X92582743Y-75908362D01*
X92619025Y-75968073D01*
X92617264Y-76037921D01*
X92582744Y-76091636D01*
X92443157Y-76218886D01*
X92314216Y-76389631D01*
X92218848Y-76581158D01*
X92160295Y-76786948D01*
X92140554Y-76999999D01*
X92160295Y-77213049D01*
X92218848Y-77418839D01*
X92314216Y-77610366D01*
X92443159Y-77781114D01*
X92601273Y-77925253D01*
X92601274Y-77925254D01*
X92601278Y-77925257D01*
X92618791Y-77936101D01*
X92665426Y-77988125D01*
X92670165Y-78016613D01*
X93255599Y-78602046D01*
X93174852Y-78614835D01*
X93061955Y-78672359D01*
X92972359Y-78761955D01*
X92914835Y-78874852D01*
X92902046Y-78955599D01*
X92323980Y-78377532D01*
X92314646Y-78389895D01*
X92219315Y-78581343D01*
X92160789Y-78787042D01*
X92141056Y-78999999D01*
X92160789Y-79212957D01*
X92219315Y-79418656D01*
X92314646Y-79610105D01*
X92323980Y-79622466D01*
X92902046Y-79044399D01*
X92914835Y-79125148D01*
X92972359Y-79238045D01*
X93061955Y-79327641D01*
X93174852Y-79385165D01*
X93255599Y-79397953D01*
X92680085Y-79973465D01*
X92783413Y-80037443D01*
X92982840Y-80114701D01*
X93193068Y-80154000D01*
X93406932Y-80154000D01*
X93617159Y-80114701D01*
X93816586Y-80037443D01*
X93919913Y-79973465D01*
X93344401Y-79397953D01*
X93425148Y-79385165D01*
X93538045Y-79327641D01*
X93627641Y-79238045D01*
X93685165Y-79125148D01*
X93697953Y-79044400D01*
X94276018Y-79622465D01*
X94285355Y-79610102D01*
X94380684Y-79418656D01*
X94439210Y-79212957D01*
X94458943Y-79000000D01*
X94439210Y-78787042D01*
X94435784Y-78775000D01*
X98844540Y-78775000D01*
X98864326Y-78963257D01*
X98922820Y-79143284D01*
X99017466Y-79307216D01*
X99144129Y-79447889D01*
X99297269Y-79559151D01*
X99470197Y-79636144D01*
X99655352Y-79675500D01*
X99655354Y-79675500D01*
X99844648Y-79675500D01*
X99968083Y-79649262D01*
X100029803Y-79636144D01*
X100202730Y-79559151D01*
X100355871Y-79447888D01*
X100361598Y-79441527D01*
X100421084Y-79404879D01*
X100453747Y-79400500D01*
X108939548Y-79400500D01*
X109006587Y-79420185D01*
X109027229Y-79436819D01*
X118434196Y-88843787D01*
X118447096Y-88859888D01*
X118498223Y-88907900D01*
X118501020Y-88910611D01*
X118520529Y-88930120D01*
X118523709Y-88932587D01*
X118532571Y-88940155D01*
X118564418Y-88970062D01*
X118581970Y-88979711D01*
X118598238Y-88990397D01*
X118614064Y-89002673D01*
X118654146Y-89020017D01*
X118664633Y-89025155D01*
X118702907Y-89046197D01*
X118711410Y-89048379D01*
X118722308Y-89051178D01*
X118740713Y-89057478D01*
X118759104Y-89065437D01*
X118802250Y-89072270D01*
X118813668Y-89074635D01*
X118855981Y-89085500D01*
X118876016Y-89085500D01*
X118895415Y-89087027D01*
X118915196Y-89090160D01*
X118958674Y-89086050D01*
X118970344Y-89085500D01*
X126456258Y-89085500D01*
X126523297Y-89105185D01*
X126555212Y-89134773D01*
X126659019Y-89272237D01*
X126823437Y-89422124D01*
X127012595Y-89539245D01*
X127012597Y-89539245D01*
X127012599Y-89539247D01*
X127220060Y-89619618D01*
X127438757Y-89660500D01*
X127438759Y-89660500D01*
X127661241Y-89660500D01*
X127661243Y-89660500D01*
X127879940Y-89619618D01*
X128087401Y-89539247D01*
X128276562Y-89422124D01*
X128440981Y-89272236D01*
X128575058Y-89094689D01*
X128674229Y-88895528D01*
X128684370Y-88859888D01*
X128714219Y-88754978D01*
X128735115Y-88681536D01*
X128755643Y-88460000D01*
X128735115Y-88238464D01*
X128700299Y-88116097D01*
X128674230Y-88024473D01*
X128575058Y-87825311D01*
X128440980Y-87647762D01*
X128276562Y-87497875D01*
X128087404Y-87380754D01*
X128026174Y-87357033D01*
X127879940Y-87300382D01*
X127661243Y-87259500D01*
X127438757Y-87259500D01*
X127220060Y-87300382D01*
X127012595Y-87380754D01*
X126823437Y-87497875D01*
X126659019Y-87647762D01*
X126555212Y-87785227D01*
X126499103Y-87826863D01*
X126456258Y-87834500D01*
X119245453Y-87834500D01*
X119178414Y-87814815D01*
X119157772Y-87798181D01*
X109750802Y-78391211D01*
X109737906Y-78375113D01*
X109686775Y-78327098D01*
X109683978Y-78324387D01*
X109667227Y-78307636D01*
X109664471Y-78304880D01*
X109661290Y-78302412D01*
X109652422Y-78294837D01*
X109620582Y-78264938D01*
X109603024Y-78255285D01*
X109586764Y-78244604D01*
X109570936Y-78232327D01*
X109530851Y-78214980D01*
X109520361Y-78209841D01*
X109482091Y-78188802D01*
X109462691Y-78183821D01*
X109444284Y-78177519D01*
X109425897Y-78169562D01*
X109382758Y-78162729D01*
X109371324Y-78160361D01*
X109329019Y-78149500D01*
X109308984Y-78149500D01*
X109289586Y-78147973D01*
X109282162Y-78146797D01*
X109269805Y-78144840D01*
X109269804Y-78144840D01*
X109236751Y-78147964D01*
X109226325Y-78148950D01*
X109214656Y-78149500D01*
X100453747Y-78149500D01*
X100386708Y-78129815D01*
X100361599Y-78108473D01*
X100355871Y-78102112D01*
X100202730Y-77990849D01*
X100202729Y-77990848D01*
X100202727Y-77990847D01*
X100029802Y-77913855D01*
X99844648Y-77874500D01*
X99844646Y-77874500D01*
X99655354Y-77874500D01*
X99655352Y-77874500D01*
X99470197Y-77913855D01*
X99297269Y-77990848D01*
X99144129Y-78102110D01*
X99017466Y-78242783D01*
X98922820Y-78406715D01*
X98864326Y-78586742D01*
X98844540Y-78775000D01*
X94435784Y-78775000D01*
X94380684Y-78581343D01*
X94285353Y-78389893D01*
X94276019Y-78377533D01*
X93697953Y-78955598D01*
X93685165Y-78874852D01*
X93627641Y-78761955D01*
X93538045Y-78672359D01*
X93425148Y-78614835D01*
X93344400Y-78602046D01*
X93930087Y-78016359D01*
X93935137Y-77986958D01*
X93981206Y-77936102D01*
X93998722Y-77925257D01*
X94156841Y-77781113D01*
X94285781Y-77610369D01*
X94285781Y-77610367D01*
X94285783Y-77610366D01*
X94381151Y-77418839D01*
X94439704Y-77213049D01*
X94445207Y-77153662D01*
X94459446Y-76999999D01*
X94441507Y-76806412D01*
X94454922Y-76737844D01*
X94477294Y-76707294D01*
X95083789Y-76100799D01*
X95099885Y-76087905D01*
X95101873Y-76085786D01*
X95101877Y-76085785D01*
X95147949Y-76036722D01*
X95150534Y-76034054D01*
X95170120Y-76014470D01*
X95172585Y-76011291D01*
X95180167Y-76002415D01*
X95182436Y-75999999D01*
X95210062Y-75970581D01*
X95219712Y-75953026D01*
X95230400Y-75936756D01*
X95242673Y-75920935D01*
X95260026Y-75880831D01*
X95265157Y-75870361D01*
X95286197Y-75832091D01*
X95291175Y-75812698D01*
X95297481Y-75794281D01*
X95303179Y-75781114D01*
X95305438Y-75775895D01*
X95312272Y-75732744D01*
X95314635Y-75721330D01*
X95325500Y-75679018D01*
X95325500Y-75658982D01*
X95327027Y-75639583D01*
X95330160Y-75619803D01*
X95326050Y-75576323D01*
X95325500Y-75564654D01*
X95325500Y-73985452D01*
X95345185Y-73918413D01*
X95361819Y-73897771D01*
X97822772Y-71436819D01*
X97884095Y-71403334D01*
X97910453Y-71400500D01*
X104292256Y-71400500D01*
X104312762Y-71402764D01*
X104315665Y-71402672D01*
X104315667Y-71402673D01*
X104382872Y-71400561D01*
X104386768Y-71400500D01*
X104410448Y-71400500D01*
X104414350Y-71400500D01*
X104418313Y-71399999D01*
X104429962Y-71399080D01*
X104473627Y-71397709D01*
X104492859Y-71392120D01*
X104511918Y-71388174D01*
X104518196Y-71387381D01*
X104531792Y-71385664D01*
X104572407Y-71369582D01*
X104583444Y-71365803D01*
X104625390Y-71353618D01*
X104642629Y-71343422D01*
X104660102Y-71334862D01*
X104678732Y-71327486D01*
X104714064Y-71301814D01*
X104723830Y-71295400D01*
X104761418Y-71273171D01*
X104761417Y-71273171D01*
X104761420Y-71273170D01*
X104775585Y-71259004D01*
X104790373Y-71246373D01*
X104806587Y-71234594D01*
X104834438Y-71200926D01*
X104842279Y-71192309D01*
X105134588Y-70900000D01*
X106694540Y-70900000D01*
X106714326Y-71088257D01*
X106772820Y-71268284D01*
X106867466Y-71432216D01*
X106994129Y-71572889D01*
X107147269Y-71684151D01*
X107320197Y-71761144D01*
X107505352Y-71800500D01*
X107505354Y-71800500D01*
X107564548Y-71800500D01*
X107631587Y-71820185D01*
X107652229Y-71836819D01*
X109199196Y-73383787D01*
X109212096Y-73399888D01*
X109214213Y-73401876D01*
X109214214Y-73401877D01*
X109263223Y-73447900D01*
X109266020Y-73450611D01*
X109285529Y-73470120D01*
X109288709Y-73472587D01*
X109297571Y-73480155D01*
X109326992Y-73507784D01*
X109329418Y-73510062D01*
X109346970Y-73519711D01*
X109363238Y-73530397D01*
X109379064Y-73542673D01*
X109419146Y-73560017D01*
X109429633Y-73565155D01*
X109467907Y-73586197D01*
X109476410Y-73588379D01*
X109487308Y-73591178D01*
X109505713Y-73597478D01*
X109524104Y-73605437D01*
X109567250Y-73612270D01*
X109578668Y-73614635D01*
X109620981Y-73625500D01*
X109641016Y-73625500D01*
X109660415Y-73627027D01*
X109680196Y-73630160D01*
X109723674Y-73626050D01*
X109735344Y-73625500D01*
X110496253Y-73625500D01*
X110563292Y-73645185D01*
X110588400Y-73666526D01*
X110594129Y-73672888D01*
X110747270Y-73784151D01*
X110747271Y-73784151D01*
X110747272Y-73784152D01*
X110920197Y-73861144D01*
X111105352Y-73900500D01*
X111105354Y-73900500D01*
X111294648Y-73900500D01*
X111418083Y-73874262D01*
X111479803Y-73861144D01*
X111652730Y-73784151D01*
X111787360Y-73686337D01*
X111805870Y-73672889D01*
X111811598Y-73666528D01*
X111932533Y-73532216D01*
X112027179Y-73368284D01*
X112085674Y-73188256D01*
X112105460Y-73000000D01*
X112085674Y-72811744D01*
X112032630Y-72648491D01*
X112027179Y-72631715D01*
X111932533Y-72467783D01*
X111805870Y-72327110D01*
X111652730Y-72215848D01*
X111479802Y-72138855D01*
X111294648Y-72099500D01*
X111294646Y-72099500D01*
X111105354Y-72099500D01*
X111105352Y-72099500D01*
X110920197Y-72138855D01*
X110747272Y-72215847D01*
X110697815Y-72251780D01*
X110594129Y-72327112D01*
X110588401Y-72333472D01*
X110528916Y-72370121D01*
X110496253Y-72374500D01*
X110010453Y-72374500D01*
X109943414Y-72354815D01*
X109922772Y-72338181D01*
X108538960Y-70954369D01*
X108505475Y-70893046D01*
X108503323Y-70879668D01*
X108485674Y-70711744D01*
X108455332Y-70618363D01*
X108427179Y-70531715D01*
X108332533Y-70367783D01*
X108205870Y-70227110D01*
X108052730Y-70115848D01*
X107879802Y-70038855D01*
X107694648Y-69999500D01*
X107694646Y-69999500D01*
X107505354Y-69999500D01*
X107505352Y-69999500D01*
X107320197Y-70038855D01*
X107147269Y-70115848D01*
X106994129Y-70227110D01*
X106867466Y-70367783D01*
X106772820Y-70531715D01*
X106714326Y-70711742D01*
X106694540Y-70900000D01*
X105134588Y-70900000D01*
X107572771Y-68461819D01*
X107634095Y-68428334D01*
X107660453Y-68425500D01*
X109196253Y-68425500D01*
X109263292Y-68445185D01*
X109288400Y-68466526D01*
X109294129Y-68472888D01*
X109447270Y-68584151D01*
X109447271Y-68584151D01*
X109447272Y-68584152D01*
X109620197Y-68661144D01*
X109805352Y-68700500D01*
X109805354Y-68700500D01*
X109994648Y-68700500D01*
X110118084Y-68674262D01*
X110179803Y-68661144D01*
X110352730Y-68584151D01*
X110356848Y-68581159D01*
X110505870Y-68472889D01*
X110511598Y-68466528D01*
X110632533Y-68332216D01*
X110727179Y-68168284D01*
X110785674Y-67988256D01*
X110805460Y-67800000D01*
X110785674Y-67611744D01*
X110727179Y-67431716D01*
X110727179Y-67431715D01*
X110632533Y-67267783D01*
X110505870Y-67127110D01*
X110352730Y-67015848D01*
X110179802Y-66938855D01*
X109994648Y-66899500D01*
X109994646Y-66899500D01*
X109805354Y-66899500D01*
X109805352Y-66899500D01*
X109620197Y-66938855D01*
X109447272Y-67015847D01*
X109345175Y-67090024D01*
X109294129Y-67127112D01*
X109288401Y-67133472D01*
X109228916Y-67170121D01*
X109196253Y-67174500D01*
X107432740Y-67174500D01*
X107412236Y-67172236D01*
X107342144Y-67174439D01*
X107338250Y-67174500D01*
X107310650Y-67174500D01*
X107306799Y-67174986D01*
X107306768Y-67174988D01*
X107306640Y-67175005D01*
X107295028Y-67175918D01*
X107251372Y-67177290D01*
X107232135Y-67182879D01*
X107213094Y-67186822D01*
X107193208Y-67189335D01*
X107152582Y-67205419D01*
X107141537Y-67209200D01*
X107099613Y-67221381D01*
X107082365Y-67231581D01*
X107064903Y-67240135D01*
X107052915Y-67244881D01*
X107046265Y-67247515D01*
X107010926Y-67273189D01*
X107001168Y-67279599D01*
X106963579Y-67301829D01*
X106949410Y-67315998D01*
X106934622Y-67328628D01*
X106918413Y-67340405D01*
X106890572Y-67374058D01*
X106882711Y-67382696D01*
X105712181Y-68553227D01*
X105650858Y-68586712D01*
X105581166Y-68581728D01*
X105525233Y-68539856D01*
X105500816Y-68474392D01*
X105500500Y-68465546D01*
X105500500Y-59522889D01*
X105520185Y-59455850D01*
X105536819Y-59435208D01*
X106534060Y-58437967D01*
X107512027Y-57459999D01*
X118144340Y-57459999D01*
X118164936Y-57695407D01*
X118195888Y-57810921D01*
X118226097Y-57923663D01*
X118325965Y-58137830D01*
X118461505Y-58331401D01*
X118628599Y-58498495D01*
X118814596Y-58628732D01*
X118858219Y-58683307D01*
X118865412Y-58752806D01*
X118833890Y-58815160D01*
X118814595Y-58831880D01*
X118628919Y-58961892D01*
X118461890Y-59128921D01*
X118326400Y-59322421D01*
X118226569Y-59536507D01*
X118169364Y-59749999D01*
X118169364Y-59750000D01*
X119066314Y-59750000D01*
X119040507Y-59790156D01*
X119000000Y-59928111D01*
X119000000Y-60071889D01*
X119040507Y-60209844D01*
X119066314Y-60250000D01*
X118169364Y-60250000D01*
X118226569Y-60463492D01*
X118326399Y-60677576D01*
X118461893Y-60871081D01*
X118583946Y-60993134D01*
X118617431Y-61054457D01*
X118612447Y-61124149D01*
X118570575Y-61180082D01*
X118539599Y-61196997D01*
X118407669Y-61246204D01*
X118292454Y-61332454D01*
X118206204Y-61447668D01*
X118155910Y-61582515D01*
X118155909Y-61582517D01*
X118149500Y-61642127D01*
X118149500Y-61645448D01*
X118149500Y-61645449D01*
X118149500Y-63434560D01*
X118149500Y-63434578D01*
X118149501Y-63437872D01*
X118155909Y-63497483D01*
X118206204Y-63632331D01*
X118292454Y-63747546D01*
X118407669Y-63833796D01*
X118542517Y-63884091D01*
X118602127Y-63890500D01*
X120397872Y-63890499D01*
X120457483Y-63884091D01*
X120592331Y-63833796D01*
X120707546Y-63747546D01*
X120793796Y-63632331D01*
X120844091Y-63497483D01*
X120850500Y-63437873D01*
X120850499Y-61642128D01*
X120844091Y-61582517D01*
X120793796Y-61447669D01*
X120707546Y-61332454D01*
X120592331Y-61246204D01*
X120460399Y-61196996D01*
X120404467Y-61155125D01*
X120380050Y-61089661D01*
X120394902Y-61021388D01*
X120416053Y-60993133D01*
X120538109Y-60871077D01*
X120673600Y-60677576D01*
X120773430Y-60463492D01*
X120830636Y-60250000D01*
X119933686Y-60250000D01*
X119959493Y-60209844D01*
X120000000Y-60071889D01*
X120000000Y-59928111D01*
X119959493Y-59790156D01*
X119933686Y-59750000D01*
X120830636Y-59750000D01*
X120830635Y-59749999D01*
X120773430Y-59536507D01*
X120673599Y-59322421D01*
X120538109Y-59128921D01*
X120371081Y-58961893D01*
X120185404Y-58831880D01*
X120141780Y-58777303D01*
X120134587Y-58707804D01*
X120166109Y-58645450D01*
X120185399Y-58628734D01*
X120371401Y-58498495D01*
X120538495Y-58331401D01*
X120674035Y-58137830D01*
X120773903Y-57923663D01*
X120835063Y-57695408D01*
X120855659Y-57460000D01*
X120852542Y-57424379D01*
X120835063Y-57224592D01*
X120820367Y-57169744D01*
X120773903Y-56996337D01*
X120674035Y-56782171D01*
X120538495Y-56588599D01*
X120371401Y-56421505D01*
X120177830Y-56285965D01*
X119963663Y-56186097D01*
X119902501Y-56169709D01*
X119735407Y-56124936D01*
X119500000Y-56104340D01*
X119264592Y-56124936D01*
X119036336Y-56186097D01*
X118822170Y-56285965D01*
X118628598Y-56421505D01*
X118461505Y-56588598D01*
X118325965Y-56782170D01*
X118226097Y-56996336D01*
X118164936Y-57224592D01*
X118144340Y-57459999D01*
X107512027Y-57459999D01*
X107547652Y-57424374D01*
X107567501Y-57408255D01*
X107674785Y-57338164D01*
X107857738Y-57169744D01*
X108010474Y-56973509D01*
X108128828Y-56754810D01*
X108209571Y-56519614D01*
X108250500Y-56274335D01*
X108250500Y-56025665D01*
X108209571Y-55780386D01*
X108128828Y-55545190D01*
X108010474Y-55326491D01*
X108010471Y-55326487D01*
X108010470Y-55326485D01*
X107857740Y-55130259D01*
X107857738Y-55130256D01*
X107674785Y-54961836D01*
X107466607Y-54825827D01*
X107466604Y-54825825D01*
X107341523Y-54770960D01*
X107238881Y-54725937D01*
X107058867Y-54680351D01*
X106997822Y-54664892D01*
X106963854Y-54662077D01*
X106812067Y-54649500D01*
X106809497Y-54649500D01*
X106800865Y-54649500D01*
X106785527Y-54648548D01*
X106762219Y-54645642D01*
X106675160Y-54649243D01*
X106671526Y-54649394D01*
X106666404Y-54649500D01*
X106637933Y-54649500D01*
X106635406Y-54649709D01*
X106635390Y-54649710D01*
X106609551Y-54651851D01*
X106604440Y-54652168D01*
X106513763Y-54655919D01*
X106490776Y-54660738D01*
X106475579Y-54662952D01*
X106452180Y-54664891D01*
X106364215Y-54687166D01*
X106359225Y-54688320D01*
X106270385Y-54706949D01*
X106248501Y-54715488D01*
X106233874Y-54720174D01*
X106211116Y-54725937D01*
X106128023Y-54762385D01*
X106123291Y-54764346D01*
X106038723Y-54797345D01*
X106018547Y-54809367D01*
X106004895Y-54816394D01*
X105983396Y-54825825D01*
X105907410Y-54875468D01*
X105903065Y-54878180D01*
X105825104Y-54924635D01*
X105807183Y-54939813D01*
X105794868Y-54948995D01*
X105775218Y-54961833D01*
X105708448Y-55023298D01*
X105704613Y-55026685D01*
X105684826Y-55043445D01*
X105684819Y-55043451D01*
X105682875Y-55045098D01*
X105681069Y-55046902D01*
X105681071Y-55046902D01*
X105662750Y-55065222D01*
X105659057Y-55068764D01*
X105592261Y-55130255D01*
X105577832Y-55148793D01*
X105567663Y-55160308D01*
X103010306Y-57717664D01*
X102998793Y-57727832D01*
X102980254Y-57742262D01*
X102918775Y-57809045D01*
X102915233Y-57812738D01*
X102895098Y-57832874D01*
X102893437Y-57834834D01*
X102893437Y-57834835D01*
X102876689Y-57854609D01*
X102873299Y-57858447D01*
X102811835Y-57925215D01*
X102798995Y-57944868D01*
X102789813Y-57957183D01*
X102774636Y-57975102D01*
X102728174Y-58053074D01*
X102725462Y-58057417D01*
X102675826Y-58133392D01*
X102666396Y-58154891D01*
X102659368Y-58168545D01*
X102647343Y-58188726D01*
X102614346Y-58273288D01*
X102612386Y-58278020D01*
X102575936Y-58361120D01*
X102570169Y-58383890D01*
X102565484Y-58398515D01*
X102556951Y-58420385D01*
X102538324Y-58509211D01*
X102537170Y-58514200D01*
X102514891Y-58602180D01*
X102512952Y-58625578D01*
X102510738Y-58640777D01*
X102505919Y-58663762D01*
X102502168Y-58754440D01*
X102501851Y-58759551D01*
X102499710Y-58785390D01*
X102499709Y-58785406D01*
X102499500Y-58787933D01*
X102499500Y-58790486D01*
X102499500Y-58816402D01*
X102499394Y-58821527D01*
X102495642Y-58912223D01*
X102498547Y-58935529D01*
X102499499Y-58950864D01*
X102499500Y-67993884D01*
X102479815Y-68060923D01*
X102427011Y-68106678D01*
X102425312Y-68107439D01*
X102383393Y-68125826D01*
X102175216Y-68261835D01*
X102175214Y-68261836D01*
X102175215Y-68261836D01*
X101994948Y-68427784D01*
X101992259Y-68430259D01*
X101839529Y-68626485D01*
X101839526Y-68626491D01*
X101752691Y-68786949D01*
X101721170Y-68845194D01*
X101640429Y-69080384D01*
X101599500Y-69325665D01*
X101599500Y-69574334D01*
X101640429Y-69819615D01*
X101697287Y-69985237D01*
X101700437Y-70055036D01*
X101665351Y-70115457D01*
X101603168Y-70147318D01*
X101580006Y-70149500D01*
X97682740Y-70149500D01*
X97662236Y-70147236D01*
X97592144Y-70149439D01*
X97588250Y-70149500D01*
X97560650Y-70149500D01*
X97556799Y-70149986D01*
X97556768Y-70149988D01*
X97556640Y-70150005D01*
X97545028Y-70150918D01*
X97501372Y-70152290D01*
X97482135Y-70157879D01*
X97463094Y-70161822D01*
X97443208Y-70164335D01*
X97402582Y-70180419D01*
X97391537Y-70184200D01*
X97349613Y-70196381D01*
X97332365Y-70206581D01*
X97314903Y-70215135D01*
X97302915Y-70219881D01*
X97296265Y-70222515D01*
X97260926Y-70248189D01*
X97251168Y-70254599D01*
X97213579Y-70276829D01*
X97199410Y-70290998D01*
X97184622Y-70303628D01*
X97168413Y-70315405D01*
X97140572Y-70349058D01*
X97132711Y-70357696D01*
X94647329Y-72843078D01*
X94586006Y-72876563D01*
X94516314Y-72871579D01*
X94460381Y-72829707D01*
X94440382Y-72789331D01*
X94381151Y-72581158D01*
X94285783Y-72389631D01*
X94156840Y-72218883D01*
X93998722Y-72074741D01*
X93981207Y-72063896D01*
X93934571Y-72011869D01*
X93929833Y-71983386D01*
X93344401Y-71397954D01*
X93425148Y-71385166D01*
X93538045Y-71327642D01*
X93627641Y-71238046D01*
X93685165Y-71125149D01*
X93697953Y-71044401D01*
X94276018Y-71622466D01*
X94285355Y-71610103D01*
X94380684Y-71418657D01*
X94439210Y-71212958D01*
X94458943Y-71000001D01*
X94439210Y-70787043D01*
X94380684Y-70581344D01*
X94285353Y-70389894D01*
X94276019Y-70377534D01*
X93697953Y-70955599D01*
X93685165Y-70874853D01*
X93627641Y-70761956D01*
X93538045Y-70672360D01*
X93425148Y-70614836D01*
X93344401Y-70602047D01*
X93930087Y-70016359D01*
X93935137Y-69986959D01*
X93981206Y-69936103D01*
X93998722Y-69925258D01*
X94156841Y-69781114D01*
X94285781Y-69610370D01*
X94285781Y-69610368D01*
X94285783Y-69610367D01*
X94381151Y-69418840D01*
X94439704Y-69213050D01*
X94452959Y-69070000D01*
X94459446Y-69000000D01*
X94439704Y-68786952D01*
X94439704Y-68786949D01*
X94381151Y-68581159D01*
X94285783Y-68389632D01*
X94156840Y-68218884D01*
X94017256Y-68091637D01*
X93980974Y-68031926D01*
X93982735Y-67962078D01*
X94017256Y-67908363D01*
X94156840Y-67781116D01*
X94215049Y-67704035D01*
X94285781Y-67610371D01*
X94285781Y-67610369D01*
X94285783Y-67610368D01*
X94381151Y-67418841D01*
X94439704Y-67213051D01*
X94447667Y-67127110D01*
X94459446Y-67000001D01*
X94439704Y-66786953D01*
X94439704Y-66786950D01*
X94381151Y-66581160D01*
X94354384Y-66527404D01*
X94342123Y-66458619D01*
X94368996Y-66394124D01*
X94426472Y-66354397D01*
X94467100Y-66348145D01*
X98552947Y-66404894D01*
X98566455Y-66404901D01*
X98566458Y-66404900D01*
X98566546Y-66404901D01*
X98573246Y-66404814D01*
X98586555Y-66404464D01*
X98586559Y-66404463D01*
X98586563Y-66404463D01*
X98728058Y-66378376D01*
X98794267Y-66356058D01*
X98794269Y-66356057D01*
X98922683Y-66291162D01*
X100836994Y-64951145D01*
X100911550Y-64887327D01*
X100944756Y-64852781D01*
X101005567Y-64775774D01*
X101065338Y-64644897D01*
X101085023Y-64577858D01*
X101085024Y-64577854D01*
X101105500Y-64435438D01*
X101105500Y-60424000D01*
X101093947Y-60316544D01*
X101082741Y-60265033D01*
X101080915Y-60259547D01*
X101048614Y-60162496D01*
X100970826Y-60041458D01*
X100966004Y-60035894D01*
X100925070Y-59988653D01*
X100816336Y-59894433D01*
X100816335Y-59894432D01*
X100685460Y-59834662D01*
X100620113Y-59815474D01*
X100620111Y-59815473D01*
X100618420Y-59814977D01*
X100618416Y-59814976D01*
X100615290Y-59814526D01*
X100615277Y-59814524D01*
X100476000Y-59794500D01*
X94424500Y-59794500D01*
X94357461Y-59774815D01*
X94311706Y-59722011D01*
X94300500Y-59670500D01*
X94300500Y-55340782D01*
X94320185Y-55273743D01*
X94336814Y-55253106D01*
X100853102Y-48736818D01*
X100914425Y-48703334D01*
X100940783Y-48700500D01*
X101200788Y-48700500D01*
X101267827Y-48720185D01*
X101313582Y-48772989D01*
X101323526Y-48842147D01*
X101294501Y-48905703D01*
X101256439Y-48935310D01*
X101075814Y-49026023D01*
X101069565Y-49029630D01*
X100798241Y-49208083D01*
X100792440Y-49212402D01*
X100669289Y-49315736D01*
X101738626Y-50385073D01*
X101628922Y-50461890D01*
X101461890Y-50628922D01*
X101385073Y-50738626D01*
X100312357Y-49665910D01*
X100116983Y-49928344D01*
X100113016Y-49934376D01*
X99950635Y-50215629D01*
X99947402Y-50222065D01*
X99818761Y-50520287D01*
X99816305Y-50527036D01*
X99723156Y-50838175D01*
X99721494Y-50845188D01*
X99665101Y-51165008D01*
X99664262Y-51172187D01*
X99645380Y-51496394D01*
X99645380Y-51503605D01*
X99664262Y-51827812D01*
X99665101Y-51834991D01*
X99721494Y-52154811D01*
X99723156Y-52161824D01*
X99816305Y-52472963D01*
X99818761Y-52479712D01*
X99947402Y-52777934D01*
X99950635Y-52784370D01*
X100113016Y-53065623D01*
X100116982Y-53071654D01*
X100312358Y-53334088D01*
X101385073Y-52261372D01*
X101461890Y-52371078D01*
X101628922Y-52538110D01*
X101738626Y-52614925D01*
X100669289Y-53684261D01*
X100669290Y-53684262D01*
X100792441Y-53787598D01*
X100798239Y-53791915D01*
X101069565Y-53970369D01*
X101075814Y-53973976D01*
X101366022Y-54119725D01*
X101372661Y-54122588D01*
X101677838Y-54233664D01*
X101684728Y-54235727D01*
X102000768Y-54310630D01*
X102007834Y-54311876D01*
X102330435Y-54349582D01*
X102337605Y-54350000D01*
X102662395Y-54350000D01*
X102669564Y-54349582D01*
X102992165Y-54311876D01*
X102999231Y-54310630D01*
X103315271Y-54235727D01*
X103322161Y-54233664D01*
X103627338Y-54122588D01*
X103633977Y-54119725D01*
X103924185Y-53973976D01*
X103930434Y-53970369D01*
X104201760Y-53791915D01*
X104207558Y-53787598D01*
X104330708Y-53684262D01*
X104330709Y-53684261D01*
X103261373Y-52614925D01*
X103371078Y-52538110D01*
X103538110Y-52371078D01*
X103614926Y-52261373D01*
X104687640Y-53334088D01*
X104883017Y-53071654D01*
X104886983Y-53065623D01*
X105049364Y-52784370D01*
X105052597Y-52777934D01*
X105181238Y-52479712D01*
X105183694Y-52472963D01*
X105276843Y-52161824D01*
X105278505Y-52154811D01*
X105334898Y-51834991D01*
X105335737Y-51827812D01*
X105354620Y-51503605D01*
X148645380Y-51503605D01*
X148664262Y-51827812D01*
X148665101Y-51834991D01*
X148721494Y-52154811D01*
X148723156Y-52161824D01*
X148816305Y-52472963D01*
X148818761Y-52479712D01*
X148947402Y-52777934D01*
X148950635Y-52784370D01*
X149113016Y-53065623D01*
X149116982Y-53071654D01*
X149312358Y-53334088D01*
X150385073Y-52261372D01*
X150461890Y-52371078D01*
X150628922Y-52538110D01*
X150738626Y-52614925D01*
X149669289Y-53684261D01*
X149669290Y-53684262D01*
X149792441Y-53787598D01*
X149798239Y-53791915D01*
X150069565Y-53970369D01*
X150075814Y-53973976D01*
X150366022Y-54119725D01*
X150372661Y-54122588D01*
X150677838Y-54233664D01*
X150684728Y-54235727D01*
X151000768Y-54310630D01*
X151007834Y-54311876D01*
X151330435Y-54349582D01*
X151337605Y-54350000D01*
X151662395Y-54350000D01*
X151669564Y-54349582D01*
X151992165Y-54311876D01*
X151999231Y-54310630D01*
X152315271Y-54235727D01*
X152322161Y-54233664D01*
X152627338Y-54122588D01*
X152633977Y-54119725D01*
X152924185Y-53973976D01*
X152930434Y-53970369D01*
X153201760Y-53791915D01*
X153207558Y-53787598D01*
X153330708Y-53684262D01*
X153330709Y-53684261D01*
X152261373Y-52614925D01*
X152371078Y-52538110D01*
X152538110Y-52371078D01*
X152614926Y-52261373D01*
X153687640Y-53334088D01*
X153883017Y-53071654D01*
X153886983Y-53065623D01*
X154049364Y-52784370D01*
X154052597Y-52777934D01*
X154181238Y-52479712D01*
X154183694Y-52472963D01*
X154276843Y-52161824D01*
X154278505Y-52154811D01*
X154334898Y-51834991D01*
X154335737Y-51827812D01*
X154354620Y-51503605D01*
X154354620Y-51496394D01*
X154335737Y-51172187D01*
X154334898Y-51165008D01*
X154278505Y-50845188D01*
X154276843Y-50838175D01*
X154183694Y-50527036D01*
X154181238Y-50520287D01*
X154052597Y-50222065D01*
X154049364Y-50215629D01*
X153886983Y-49934376D01*
X153883017Y-49928345D01*
X153687640Y-49665910D01*
X152614925Y-50738625D01*
X152538110Y-50628922D01*
X152371078Y-50461890D01*
X152261372Y-50385073D01*
X153330709Y-49315737D01*
X153330708Y-49315736D01*
X153207558Y-49212401D01*
X153201760Y-49208084D01*
X152930434Y-49029630D01*
X152924185Y-49026023D01*
X152633977Y-48880274D01*
X152627338Y-48877411D01*
X152322161Y-48766335D01*
X152315271Y-48764272D01*
X151999231Y-48689369D01*
X151992165Y-48688123D01*
X151669564Y-48650417D01*
X151662395Y-48650000D01*
X151337605Y-48650000D01*
X151330435Y-48650417D01*
X151007834Y-48688123D01*
X151000768Y-48689369D01*
X150684728Y-48764272D01*
X150677838Y-48766335D01*
X150372661Y-48877411D01*
X150366022Y-48880274D01*
X150075814Y-49026023D01*
X150069565Y-49029630D01*
X149798241Y-49208083D01*
X149792440Y-49212402D01*
X149669289Y-49315736D01*
X149669289Y-49315737D01*
X150738625Y-50385074D01*
X150628922Y-50461890D01*
X150461890Y-50628922D01*
X150385073Y-50738626D01*
X149312357Y-49665910D01*
X149116983Y-49928344D01*
X149113016Y-49934376D01*
X148950635Y-50215629D01*
X148947402Y-50222065D01*
X148818761Y-50520287D01*
X148816305Y-50527036D01*
X148723156Y-50838175D01*
X148721494Y-50845188D01*
X148665101Y-51165008D01*
X148664262Y-51172187D01*
X148645380Y-51496394D01*
X148645380Y-51503605D01*
X105354620Y-51503605D01*
X105354620Y-51496394D01*
X105335737Y-51172187D01*
X105334898Y-51165008D01*
X105278505Y-50845188D01*
X105276843Y-50838175D01*
X105183694Y-50527036D01*
X105181238Y-50520287D01*
X105052597Y-50222065D01*
X105049364Y-50215629D01*
X104886983Y-49934376D01*
X104883017Y-49928345D01*
X104687640Y-49665910D01*
X103614925Y-50738625D01*
X103538110Y-50628922D01*
X103371078Y-50461890D01*
X103261373Y-50385073D01*
X104330709Y-49315737D01*
X104330708Y-49315736D01*
X104207558Y-49212401D01*
X104201760Y-49208084D01*
X103930434Y-49029630D01*
X103924185Y-49026023D01*
X103743561Y-48935310D01*
X103692487Y-48887632D01*
X103675297Y-48819910D01*
X103697449Y-48753645D01*
X103751911Y-48709876D01*
X103799212Y-48700500D01*
X128834217Y-48700500D01*
X128901256Y-48720185D01*
X128921898Y-48736819D01*
X129532432Y-49347352D01*
X129534625Y-49349601D01*
X129594942Y-49413054D01*
X129643362Y-49446755D01*
X129650871Y-49452416D01*
X129696593Y-49489698D01*
X129723562Y-49503785D01*
X129736982Y-49511916D01*
X129760879Y-49528549D01*
X129777722Y-49542641D01*
X130303420Y-50068340D01*
X130421593Y-50164698D01*
X130601951Y-50258909D01*
X130797582Y-50314886D01*
X131000476Y-50330337D01*
X131202328Y-50304630D01*
X131394872Y-50238816D01*
X131570227Y-50135590D01*
X131721213Y-49999179D01*
X131841649Y-49835167D01*
X131926605Y-49650268D01*
X131972602Y-49452054D01*
X131977757Y-49248637D01*
X131941858Y-49048347D01*
X131903856Y-48953210D01*
X131866378Y-48859383D01*
X131785600Y-48736819D01*
X131754402Y-48689481D01*
X131017566Y-47952646D01*
X131015374Y-47950398D01*
X130955059Y-47886946D01*
X130906642Y-47853247D01*
X130899119Y-47847575D01*
X130853405Y-47810300D01*
X130826440Y-47796215D01*
X130813019Y-47788084D01*
X130789124Y-47771453D01*
X130772281Y-47757360D01*
X130532704Y-47517783D01*
X130277100Y-47262180D01*
X130243616Y-47200858D01*
X130248600Y-47131167D01*
X130290471Y-47075233D01*
X130355936Y-47050816D01*
X130364782Y-47050500D01*
X140339548Y-47050500D01*
X140406587Y-47070185D01*
X140427229Y-47086819D01*
X141911038Y-48570629D01*
X141944523Y-48631952D01*
X141946678Y-48645348D01*
X141964326Y-48813257D01*
X142022820Y-48993284D01*
X142117466Y-49157216D01*
X142244129Y-49297889D01*
X142397269Y-49409151D01*
X142570197Y-49486144D01*
X142755352Y-49525500D01*
X142755354Y-49525500D01*
X142944648Y-49525500D01*
X143068083Y-49499262D01*
X143129803Y-49486144D01*
X143302730Y-49409151D01*
X143384694Y-49349601D01*
X143455870Y-49297889D01*
X143582533Y-49157216D01*
X143666085Y-49012500D01*
X143716652Y-48964285D01*
X143757162Y-48954456D01*
X143756898Y-48953210D01*
X143880295Y-48926980D01*
X143954803Y-48911144D01*
X144127730Y-48834151D01*
X144223911Y-48764272D01*
X144280870Y-48722889D01*
X144298478Y-48703334D01*
X144407533Y-48582216D01*
X144502179Y-48418284D01*
X144560674Y-48238256D01*
X144580460Y-48050000D01*
X144560674Y-47861744D01*
X144502179Y-47681716D01*
X144502179Y-47681715D01*
X144407533Y-47517783D01*
X144280870Y-47377110D01*
X144127730Y-47265848D01*
X143954802Y-47188855D01*
X143769648Y-47149500D01*
X143769646Y-47149500D01*
X143660452Y-47149500D01*
X143593413Y-47129815D01*
X143572771Y-47113181D01*
X142644160Y-46184570D01*
X141700802Y-45241211D01*
X141687906Y-45225114D01*
X141677021Y-45214892D01*
X141641626Y-45154651D01*
X141644419Y-45084837D01*
X141684513Y-45027616D01*
X141749178Y-45001155D01*
X141761905Y-45000500D01*
X154996755Y-45000500D01*
X155003243Y-45000669D01*
X155133628Y-45007503D01*
X155313910Y-45017628D01*
X155326309Y-45018955D01*
X155475647Y-45042608D01*
X155635321Y-45069737D01*
X155646619Y-45072205D01*
X155796693Y-45112418D01*
X155949188Y-45156351D01*
X155959253Y-45159726D01*
X156104710Y-45215562D01*
X156107599Y-45216714D01*
X156251768Y-45276430D01*
X156260594Y-45280500D01*
X156400064Y-45351565D01*
X156403748Y-45353521D01*
X156493848Y-45403316D01*
X156539548Y-45428574D01*
X156547061Y-45433081D01*
X156678754Y-45518604D01*
X156682947Y-45521452D01*
X156809147Y-45610996D01*
X156815426Y-45615757D01*
X156846411Y-45640849D01*
X156937567Y-45714665D01*
X156942158Y-45718571D01*
X157057424Y-45821579D01*
X157062478Y-45826358D01*
X157173640Y-45937520D01*
X157178419Y-45942574D01*
X157281427Y-46057840D01*
X157285333Y-46062431D01*
X157384239Y-46184570D01*
X157389002Y-46190851D01*
X157478546Y-46317051D01*
X157481409Y-46321266D01*
X157566907Y-46452921D01*
X157571430Y-46460460D01*
X157646477Y-46596250D01*
X157648433Y-46599934D01*
X157719498Y-46739404D01*
X157723575Y-46748247D01*
X157783259Y-46892337D01*
X157784462Y-46895353D01*
X157840265Y-47040727D01*
X157843655Y-47050836D01*
X157887579Y-47203297D01*
X157927793Y-47353379D01*
X157930262Y-47364685D01*
X157957394Y-47524369D01*
X157981040Y-47673670D01*
X157982371Y-47686108D01*
X157992509Y-47866617D01*
X157999330Y-47996756D01*
X157999500Y-48003246D01*
X157999500Y-109996753D01*
X157999330Y-110003243D01*
X157992509Y-110133382D01*
X157982372Y-110313887D01*
X157981040Y-110326331D01*
X157957394Y-110475629D01*
X157930263Y-110635308D01*
X157927791Y-110646624D01*
X157887579Y-110796701D01*
X157843653Y-110949170D01*
X157840268Y-110959263D01*
X157784462Y-111104645D01*
X157783259Y-111107661D01*
X157723575Y-111251751D01*
X157719498Y-111260594D01*
X157648433Y-111400064D01*
X157646477Y-111403748D01*
X157571430Y-111539538D01*
X157566897Y-111547094D01*
X157481412Y-111678728D01*
X157478546Y-111682947D01*
X157389002Y-111809147D01*
X157384239Y-111815428D01*
X157285333Y-111937567D01*
X157281427Y-111942158D01*
X157178419Y-112057424D01*
X157173640Y-112062478D01*
X157062478Y-112173640D01*
X157057424Y-112178419D01*
X156942158Y-112281427D01*
X156937567Y-112285333D01*
X156815428Y-112384239D01*
X156809147Y-112389002D01*
X156682947Y-112478546D01*
X156678728Y-112481412D01*
X156547094Y-112566897D01*
X156539538Y-112571430D01*
X156403748Y-112646477D01*
X156400064Y-112648433D01*
X156260594Y-112719498D01*
X156251751Y-112723575D01*
X156107661Y-112783259D01*
X156104645Y-112784462D01*
X155959271Y-112840265D01*
X155949162Y-112843655D01*
X155796702Y-112887579D01*
X155646619Y-112927793D01*
X155635313Y-112930262D01*
X155475630Y-112957394D01*
X155326328Y-112981040D01*
X155313890Y-112982371D01*
X155133382Y-112992509D01*
X155003244Y-112999330D01*
X154996754Y-112999500D01*
X93003247Y-112999500D01*
X92996757Y-112999330D01*
X92866617Y-112992509D01*
X92686111Y-112982372D01*
X92673666Y-112981040D01*
X92524369Y-112957394D01*
X92364690Y-112930263D01*
X92353374Y-112927791D01*
X92203298Y-112887579D01*
X92050828Y-112843653D01*
X92040735Y-112840268D01*
X91895353Y-112784462D01*
X91892337Y-112783259D01*
X91748247Y-112723575D01*
X91739404Y-112719498D01*
X91599934Y-112648433D01*
X91596250Y-112646477D01*
X91460460Y-112571430D01*
X91452921Y-112566907D01*
X91321266Y-112481409D01*
X91317051Y-112478546D01*
X91190851Y-112389002D01*
X91184570Y-112384239D01*
X91062431Y-112285333D01*
X91057840Y-112281427D01*
X90942574Y-112178419D01*
X90937520Y-112173640D01*
X90826358Y-112062478D01*
X90821579Y-112057424D01*
X90718571Y-111942158D01*
X90714665Y-111937567D01*
X90650814Y-111858718D01*
X90615757Y-111815426D01*
X90610996Y-111809147D01*
X90521452Y-111682947D01*
X90518604Y-111678754D01*
X90433081Y-111547061D01*
X90428568Y-111539538D01*
X90353521Y-111403748D01*
X90351565Y-111400064D01*
X90280500Y-111260594D01*
X90276430Y-111251768D01*
X90216714Y-111107599D01*
X90215562Y-111104710D01*
X90159729Y-110959260D01*
X90156346Y-110949170D01*
X90112414Y-110796679D01*
X90072202Y-110646605D01*
X90069738Y-110635323D01*
X90042601Y-110475606D01*
X90018956Y-110326316D01*
X90017627Y-110313890D01*
X90010470Y-110186446D01*
X90007490Y-110133382D01*
X90001469Y-110018506D01*
X90001302Y-110012062D01*
X90001307Y-110000000D01*
X90001495Y-109503605D01*
X99645380Y-109503605D01*
X99664262Y-109827812D01*
X99665101Y-109834991D01*
X99721494Y-110154811D01*
X99723156Y-110161824D01*
X99816305Y-110472963D01*
X99818761Y-110479712D01*
X99947402Y-110777934D01*
X99950635Y-110784370D01*
X100113016Y-111065623D01*
X100116982Y-111071654D01*
X100312358Y-111334088D01*
X101385073Y-110261372D01*
X101461890Y-110371078D01*
X101628922Y-110538110D01*
X101738626Y-110614925D01*
X100669289Y-111684261D01*
X100669290Y-111684262D01*
X100792441Y-111787598D01*
X100798239Y-111791915D01*
X101069565Y-111970369D01*
X101075814Y-111973976D01*
X101366022Y-112119725D01*
X101372661Y-112122588D01*
X101677838Y-112233664D01*
X101684728Y-112235727D01*
X102000768Y-112310630D01*
X102007834Y-112311876D01*
X102330435Y-112349582D01*
X102337605Y-112350000D01*
X102662395Y-112350000D01*
X102669564Y-112349582D01*
X102992165Y-112311876D01*
X102999231Y-112310630D01*
X103315271Y-112235727D01*
X103322161Y-112233664D01*
X103627338Y-112122588D01*
X103633977Y-112119725D01*
X103924185Y-111973976D01*
X103930434Y-111970369D01*
X104201760Y-111791915D01*
X104207558Y-111787598D01*
X104330708Y-111684262D01*
X104330709Y-111684261D01*
X103261373Y-110614925D01*
X103371078Y-110538110D01*
X103538110Y-110371078D01*
X103614926Y-110261373D01*
X104687640Y-111334088D01*
X104883017Y-111071654D01*
X104886983Y-111065623D01*
X105049364Y-110784370D01*
X105052597Y-110777934D01*
X105155233Y-110539999D01*
X130829975Y-110539999D01*
X130850043Y-110794993D01*
X130909753Y-111043705D01*
X131007636Y-111280012D01*
X131141284Y-111498108D01*
X131144533Y-111501911D01*
X131144535Y-111501911D01*
X131708766Y-110937679D01*
X131752316Y-111019822D01*
X131872009Y-111160735D01*
X132019195Y-111272623D01*
X132061402Y-111292150D01*
X131498087Y-111855464D01*
X131498087Y-111855465D01*
X131501895Y-111858718D01*
X131719982Y-111992361D01*
X131956294Y-112090246D01*
X132205006Y-112149956D01*
X132459999Y-112170024D01*
X132714993Y-112149956D01*
X132963705Y-112090246D01*
X133200012Y-111992363D01*
X133418108Y-111858715D01*
X133421911Y-111855465D01*
X133421912Y-111855464D01*
X132858609Y-111292161D01*
X132977431Y-111220669D01*
X133111658Y-111093523D01*
X133214861Y-110941308D01*
X133775464Y-111501912D01*
X133775465Y-111501911D01*
X133778715Y-111498108D01*
X133912363Y-111280012D01*
X134010246Y-111043705D01*
X134069956Y-110794993D01*
X134090024Y-110539999D01*
X135909975Y-110539999D01*
X135930043Y-110794993D01*
X135989753Y-111043705D01*
X136087636Y-111280012D01*
X136221284Y-111498108D01*
X136224533Y-111501911D01*
X136224535Y-111501911D01*
X136788766Y-110937679D01*
X136832316Y-111019822D01*
X136952009Y-111160735D01*
X137099195Y-111272623D01*
X137141402Y-111292150D01*
X136578087Y-111855464D01*
X136578087Y-111855465D01*
X136581895Y-111858718D01*
X136799982Y-111992361D01*
X137036294Y-112090246D01*
X137285006Y-112149956D01*
X137540000Y-112170024D01*
X137794993Y-112149956D01*
X138043705Y-112090246D01*
X138280012Y-111992363D01*
X138498108Y-111858715D01*
X138501911Y-111855465D01*
X138501912Y-111855464D01*
X137938609Y-111292161D01*
X138057431Y-111220669D01*
X138191658Y-111093523D01*
X138294861Y-110941309D01*
X138855464Y-111501912D01*
X138855465Y-111501911D01*
X138858715Y-111498108D01*
X138992363Y-111280012D01*
X139090246Y-111043705D01*
X139149956Y-110794993D01*
X139170024Y-110539999D01*
X139149956Y-110285006D01*
X139090246Y-110036294D01*
X138992361Y-109799982D01*
X138858718Y-109581895D01*
X138855465Y-109578087D01*
X138855464Y-109578087D01*
X138291232Y-110142319D01*
X138247684Y-110060178D01*
X138127991Y-109919265D01*
X137980805Y-109807377D01*
X137938597Y-109787849D01*
X138222841Y-109503605D01*
X148645380Y-109503605D01*
X148664262Y-109827812D01*
X148665101Y-109834991D01*
X148721494Y-110154811D01*
X148723156Y-110161824D01*
X148816305Y-110472963D01*
X148818761Y-110479712D01*
X148947402Y-110777934D01*
X148950635Y-110784370D01*
X149113016Y-111065623D01*
X149116982Y-111071654D01*
X149312358Y-111334088D01*
X150385073Y-110261372D01*
X150461890Y-110371078D01*
X150628922Y-110538110D01*
X150738626Y-110614925D01*
X149669289Y-111684261D01*
X149669290Y-111684262D01*
X149792441Y-111787598D01*
X149798239Y-111791915D01*
X150069565Y-111970369D01*
X150075814Y-111973976D01*
X150366022Y-112119725D01*
X150372661Y-112122588D01*
X150677838Y-112233664D01*
X150684728Y-112235727D01*
X151000768Y-112310630D01*
X151007834Y-112311876D01*
X151330435Y-112349582D01*
X151337605Y-112350000D01*
X151662395Y-112350000D01*
X151669564Y-112349582D01*
X151992165Y-112311876D01*
X151999231Y-112310630D01*
X152315271Y-112235727D01*
X152322161Y-112233664D01*
X152627338Y-112122588D01*
X152633977Y-112119725D01*
X152924185Y-111973976D01*
X152930434Y-111970369D01*
X153201760Y-111791915D01*
X153207558Y-111787598D01*
X153330708Y-111684262D01*
X153330709Y-111684261D01*
X152261373Y-110614925D01*
X152371078Y-110538110D01*
X152538110Y-110371078D01*
X152614926Y-110261373D01*
X153687640Y-111334088D01*
X153883017Y-111071654D01*
X153886983Y-111065623D01*
X154049364Y-110784370D01*
X154052597Y-110777934D01*
X154181238Y-110479712D01*
X154183694Y-110472963D01*
X154276843Y-110161824D01*
X154278505Y-110154811D01*
X154334898Y-109834991D01*
X154335737Y-109827812D01*
X154354620Y-109503605D01*
X154354620Y-109496394D01*
X154335737Y-109172187D01*
X154334898Y-109165008D01*
X154278505Y-108845188D01*
X154276843Y-108838175D01*
X154183694Y-108527036D01*
X154181238Y-108520287D01*
X154052597Y-108222065D01*
X154049364Y-108215629D01*
X153886983Y-107934376D01*
X153883017Y-107928345D01*
X153687640Y-107665910D01*
X152614925Y-108738625D01*
X152538110Y-108628922D01*
X152371078Y-108461890D01*
X152261372Y-108385073D01*
X153330709Y-107315737D01*
X153330708Y-107315736D01*
X153207558Y-107212401D01*
X153201760Y-107208084D01*
X152930434Y-107029630D01*
X152924185Y-107026023D01*
X152633977Y-106880274D01*
X152627338Y-106877411D01*
X152322161Y-106766335D01*
X152315271Y-106764272D01*
X151999231Y-106689369D01*
X151992165Y-106688123D01*
X151669564Y-106650417D01*
X151662395Y-106650000D01*
X151337605Y-106650000D01*
X151330435Y-106650417D01*
X151007834Y-106688123D01*
X151000768Y-106689369D01*
X150684728Y-106764272D01*
X150677838Y-106766335D01*
X150372661Y-106877411D01*
X150366022Y-106880274D01*
X150075814Y-107026023D01*
X150069565Y-107029630D01*
X149798241Y-107208083D01*
X149792440Y-107212402D01*
X149669289Y-107315736D01*
X149669289Y-107315737D01*
X150738625Y-108385074D01*
X150628922Y-108461890D01*
X150461890Y-108628922D01*
X150385074Y-108738625D01*
X149312357Y-107665910D01*
X149116983Y-107928344D01*
X149113016Y-107934376D01*
X148950635Y-108215629D01*
X148947402Y-108222065D01*
X148818761Y-108520287D01*
X148816305Y-108527036D01*
X148723156Y-108838175D01*
X148721494Y-108845188D01*
X148665101Y-109165008D01*
X148664262Y-109172187D01*
X148645380Y-109496394D01*
X148645380Y-109503605D01*
X138222841Y-109503605D01*
X138501911Y-109224535D01*
X138501911Y-109224533D01*
X138498108Y-109221284D01*
X138280012Y-109087636D01*
X138043705Y-108989753D01*
X137794993Y-108930043D01*
X137539999Y-108909975D01*
X137285006Y-108930043D01*
X137036294Y-108989753D01*
X136799982Y-109087638D01*
X136581895Y-109221281D01*
X136578087Y-109224533D01*
X136578087Y-109224534D01*
X137141390Y-109787837D01*
X137022569Y-109859331D01*
X136888342Y-109986477D01*
X136785138Y-110138691D01*
X136224534Y-109578087D01*
X136224533Y-109578087D01*
X136221281Y-109581895D01*
X136087638Y-109799982D01*
X135989753Y-110036294D01*
X135930043Y-110285006D01*
X135909975Y-110539999D01*
X134090024Y-110539999D01*
X134069956Y-110285006D01*
X134010246Y-110036294D01*
X133912361Y-109799982D01*
X133778718Y-109581895D01*
X133775465Y-109578087D01*
X133775464Y-109578087D01*
X133211232Y-110142318D01*
X133167684Y-110060178D01*
X133047991Y-109919265D01*
X132900805Y-109807377D01*
X132858596Y-109787849D01*
X133421911Y-109224535D01*
X133421911Y-109224533D01*
X133418108Y-109221284D01*
X133200012Y-109087636D01*
X132963705Y-108989753D01*
X132714993Y-108930043D01*
X132459999Y-108909975D01*
X132205006Y-108930043D01*
X131956294Y-108989753D01*
X131719982Y-109087638D01*
X131501895Y-109221281D01*
X131498087Y-109224533D01*
X132061391Y-109787837D01*
X131942569Y-109859331D01*
X131808342Y-109986477D01*
X131705138Y-110138691D01*
X131144534Y-109578087D01*
X131144533Y-109578087D01*
X131141281Y-109581895D01*
X131007638Y-109799982D01*
X130909753Y-110036294D01*
X130850043Y-110285006D01*
X130829975Y-110539999D01*
X105155233Y-110539999D01*
X105181238Y-110479712D01*
X105183694Y-110472963D01*
X105276843Y-110161824D01*
X105278505Y-110154811D01*
X105334898Y-109834991D01*
X105335737Y-109827812D01*
X105354620Y-109503605D01*
X105354620Y-109496394D01*
X105335737Y-109172187D01*
X105334898Y-109165008D01*
X105278505Y-108845188D01*
X105276843Y-108838175D01*
X105183694Y-108527036D01*
X105181238Y-108520287D01*
X105052597Y-108222065D01*
X105049364Y-108215629D01*
X104924870Y-107999999D01*
X133469783Y-107999999D01*
X133488623Y-108239380D01*
X133544676Y-108472863D01*
X133567116Y-108527036D01*
X133636567Y-108694704D01*
X133762028Y-108899439D01*
X133917973Y-109082027D01*
X134100561Y-109237972D01*
X134305296Y-109363433D01*
X134462160Y-109428408D01*
X134527136Y-109455323D01*
X134600898Y-109473031D01*
X134760621Y-109511377D01*
X135000000Y-109530217D01*
X135239379Y-109511377D01*
X135472863Y-109455323D01*
X135694704Y-109363433D01*
X135899439Y-109237972D01*
X136082027Y-109082027D01*
X136237972Y-108899439D01*
X136363433Y-108694704D01*
X136455323Y-108472863D01*
X136511377Y-108239379D01*
X136530217Y-108000000D01*
X136511377Y-107760621D01*
X136455323Y-107527137D01*
X136363433Y-107305296D01*
X136237972Y-107100561D01*
X136082027Y-106917973D01*
X135899439Y-106762028D01*
X135694704Y-106636567D01*
X135629727Y-106609652D01*
X135472863Y-106544676D01*
X135239380Y-106488623D01*
X135000000Y-106469783D01*
X134760619Y-106488623D01*
X134527136Y-106544676D01*
X134305296Y-106636567D01*
X134100560Y-106762028D01*
X133917973Y-106917973D01*
X133762028Y-107100560D01*
X133636567Y-107305296D01*
X133544676Y-107527136D01*
X133488623Y-107760619D01*
X133469783Y-107999999D01*
X104924870Y-107999999D01*
X104886983Y-107934376D01*
X104883017Y-107928345D01*
X104687640Y-107665910D01*
X103614925Y-108738625D01*
X103538110Y-108628922D01*
X103371078Y-108461890D01*
X103261372Y-108385073D01*
X104330709Y-107315737D01*
X104330708Y-107315736D01*
X104207558Y-107212401D01*
X104201760Y-107208084D01*
X103930434Y-107029630D01*
X103924185Y-107026023D01*
X103633977Y-106880274D01*
X103627338Y-106877411D01*
X103322161Y-106766335D01*
X103315271Y-106764272D01*
X102999231Y-106689369D01*
X102992165Y-106688123D01*
X102669564Y-106650417D01*
X102662395Y-106650000D01*
X102337605Y-106650000D01*
X102330435Y-106650417D01*
X102007834Y-106688123D01*
X102000768Y-106689369D01*
X101684728Y-106764272D01*
X101677838Y-106766335D01*
X101372661Y-106877411D01*
X101366022Y-106880274D01*
X101075814Y-107026023D01*
X101069565Y-107029630D01*
X100798241Y-107208083D01*
X100792440Y-107212402D01*
X100669289Y-107315736D01*
X100669289Y-107315737D01*
X101738625Y-108385074D01*
X101628922Y-108461890D01*
X101461890Y-108628922D01*
X101385074Y-108738625D01*
X100312357Y-107665910D01*
X100116983Y-107928344D01*
X100113016Y-107934376D01*
X99950635Y-108215629D01*
X99947402Y-108222065D01*
X99818761Y-108520287D01*
X99816305Y-108527036D01*
X99723156Y-108838175D01*
X99721494Y-108845188D01*
X99665101Y-109165008D01*
X99664262Y-109172187D01*
X99645380Y-109496394D01*
X99645380Y-109503605D01*
X90001495Y-109503605D01*
X90003027Y-105460000D01*
X130829975Y-105460000D01*
X130850043Y-105714993D01*
X130909753Y-105963705D01*
X131007636Y-106200012D01*
X131141284Y-106418108D01*
X131144533Y-106421911D01*
X131144535Y-106421911D01*
X131708766Y-105857679D01*
X131752316Y-105939822D01*
X131872009Y-106080735D01*
X132019195Y-106192623D01*
X132061402Y-106212150D01*
X131498087Y-106775464D01*
X131498087Y-106775465D01*
X131501895Y-106778718D01*
X131719982Y-106912361D01*
X131956294Y-107010246D01*
X132205006Y-107069956D01*
X132459999Y-107090024D01*
X132714993Y-107069956D01*
X132963705Y-107010246D01*
X133200012Y-106912363D01*
X133418108Y-106778715D01*
X133421911Y-106775465D01*
X133421912Y-106775464D01*
X132858609Y-106212161D01*
X132977431Y-106140669D01*
X133111658Y-106013523D01*
X133214861Y-105861309D01*
X133775464Y-106421912D01*
X133775465Y-106421911D01*
X133778715Y-106418108D01*
X133912363Y-106200012D01*
X134010246Y-105963705D01*
X134069956Y-105714993D01*
X134090024Y-105460000D01*
X135909975Y-105460000D01*
X135930043Y-105714993D01*
X135989753Y-105963705D01*
X136087636Y-106200012D01*
X136221284Y-106418108D01*
X136224533Y-106421911D01*
X136224535Y-106421911D01*
X136788766Y-105857679D01*
X136832316Y-105939822D01*
X136952009Y-106080735D01*
X137099195Y-106192623D01*
X137141402Y-106212150D01*
X136578087Y-106775464D01*
X136578087Y-106775465D01*
X136581895Y-106778718D01*
X136799982Y-106912361D01*
X137036294Y-107010246D01*
X137285006Y-107069956D01*
X137539999Y-107090024D01*
X137794993Y-107069956D01*
X138043705Y-107010246D01*
X138280012Y-106912363D01*
X138498108Y-106778715D01*
X138501911Y-106775465D01*
X138501912Y-106775464D01*
X137938609Y-106212161D01*
X138057431Y-106140669D01*
X138191658Y-106013523D01*
X138294861Y-105861309D01*
X138855464Y-106421912D01*
X138855465Y-106421911D01*
X138858715Y-106418108D01*
X138992363Y-106200012D01*
X139090246Y-105963705D01*
X139149956Y-105714993D01*
X139170024Y-105460000D01*
X139149956Y-105205006D01*
X139090246Y-104956294D01*
X138992361Y-104719982D01*
X138858718Y-104501895D01*
X138855465Y-104498087D01*
X138855464Y-104498087D01*
X138291232Y-105062319D01*
X138247684Y-104980178D01*
X138127991Y-104839265D01*
X137980805Y-104727377D01*
X137938597Y-104707849D01*
X138501911Y-104144535D01*
X138501911Y-104144533D01*
X138498108Y-104141284D01*
X138280012Y-104007636D01*
X138043705Y-103909753D01*
X137794993Y-103850043D01*
X137539999Y-103829975D01*
X137285006Y-103850043D01*
X137036294Y-103909753D01*
X136799982Y-104007638D01*
X136581895Y-104141281D01*
X136578087Y-104144533D01*
X136578087Y-104144534D01*
X137141390Y-104707837D01*
X137022569Y-104779331D01*
X136888342Y-104906477D01*
X136785138Y-105058691D01*
X136224534Y-104498087D01*
X136224533Y-104498087D01*
X136221281Y-104501895D01*
X136087638Y-104719982D01*
X135989753Y-104956294D01*
X135930043Y-105205006D01*
X135909975Y-105460000D01*
X134090024Y-105460000D01*
X134069956Y-105205006D01*
X134010246Y-104956294D01*
X133912361Y-104719982D01*
X133778718Y-104501895D01*
X133775465Y-104498087D01*
X133775464Y-104498087D01*
X133211232Y-105062319D01*
X133167684Y-104980178D01*
X133047991Y-104839265D01*
X132900805Y-104727377D01*
X132858596Y-104707849D01*
X133421911Y-104144535D01*
X133421911Y-104144533D01*
X133418108Y-104141284D01*
X133200012Y-104007636D01*
X132963705Y-103909753D01*
X132714993Y-103850043D01*
X132459999Y-103829975D01*
X132205006Y-103850043D01*
X131956294Y-103909753D01*
X131719982Y-104007638D01*
X131501895Y-104141281D01*
X131498087Y-104144533D01*
X131498087Y-104144534D01*
X132061390Y-104707838D01*
X131942569Y-104779331D01*
X131808342Y-104906477D01*
X131705138Y-105058691D01*
X131144534Y-104498087D01*
X131144533Y-104498087D01*
X131141281Y-104501895D01*
X131007638Y-104719982D01*
X130909753Y-104956294D01*
X130850043Y-105205006D01*
X130829975Y-105460000D01*
X90003027Y-105460000D01*
X90006052Y-97475889D01*
X96999416Y-97475889D01*
X96999459Y-97500000D01*
X96999501Y-97500101D01*
X96999616Y-97500382D01*
X96999618Y-97500384D01*
X96999808Y-97500462D01*
X97000000Y-97500541D01*
X97000002Y-97500539D01*
X97024616Y-97500524D01*
X97024616Y-97500528D01*
X97024760Y-97500500D01*
X123975240Y-97500500D01*
X123975383Y-97500528D01*
X123975384Y-97500524D01*
X123999997Y-97500539D01*
X124000000Y-97500541D01*
X124000383Y-97500383D01*
X124000500Y-97500099D01*
X124000541Y-97500000D01*
X124000540Y-97499997D01*
X124000583Y-97475889D01*
X124000500Y-97475467D01*
X124000500Y-96894999D01*
X141626290Y-96894999D01*
X141646076Y-97083257D01*
X141704570Y-97263284D01*
X141799216Y-97427216D01*
X141925879Y-97567889D01*
X142079019Y-97679151D01*
X142251947Y-97756144D01*
X142437102Y-97795500D01*
X142437104Y-97795500D01*
X142626398Y-97795500D01*
X142749833Y-97769262D01*
X142811553Y-97756144D01*
X142984480Y-97679151D01*
X143137621Y-97567888D01*
X143264283Y-97427216D01*
X143358929Y-97263284D01*
X143417424Y-97083256D01*
X143423429Y-97026113D01*
X143450013Y-96961500D01*
X143507311Y-96921515D01*
X143577130Y-96918855D01*
X143637303Y-96954364D01*
X143668727Y-97016769D01*
X143670068Y-97026099D01*
X143675191Y-97074840D01*
X143676076Y-97083257D01*
X143734570Y-97263284D01*
X143829216Y-97427216D01*
X143955879Y-97567889D01*
X144109019Y-97679151D01*
X144281947Y-97756144D01*
X144467102Y-97795500D01*
X144467104Y-97795500D01*
X144656398Y-97795500D01*
X144779834Y-97769262D01*
X144841553Y-97756144D01*
X145014480Y-97679151D01*
X145167621Y-97567888D01*
X145294283Y-97427216D01*
X145388929Y-97263284D01*
X145447424Y-97083256D01*
X145465071Y-96915344D01*
X145491654Y-96850734D01*
X145500700Y-96840639D01*
X145844521Y-96496819D01*
X145905845Y-96463334D01*
X145932203Y-96460500D01*
X148817497Y-96460500D01*
X148884536Y-96480185D01*
X148930291Y-96532989D01*
X148940235Y-96602147D01*
X148937272Y-96616593D01*
X148894936Y-96774592D01*
X148874340Y-97009999D01*
X148894936Y-97245407D01*
X148920496Y-97340798D01*
X148956097Y-97473663D01*
X149055965Y-97687830D01*
X149191505Y-97881401D01*
X149358599Y-98048495D01*
X149544160Y-98178426D01*
X149587783Y-98233002D01*
X149594976Y-98302501D01*
X149563454Y-98364855D01*
X149544159Y-98381575D01*
X149358595Y-98511508D01*
X149191505Y-98678598D01*
X149055965Y-98872170D01*
X148956097Y-99086336D01*
X148894936Y-99314592D01*
X148874340Y-99550000D01*
X148894936Y-99785407D01*
X148939709Y-99952501D01*
X148956097Y-100013663D01*
X149055965Y-100227830D01*
X149191505Y-100421401D01*
X149358599Y-100588495D01*
X149544160Y-100718426D01*
X149587783Y-100773002D01*
X149594976Y-100842501D01*
X149563454Y-100904855D01*
X149544159Y-100921575D01*
X149358595Y-101051508D01*
X149191505Y-101218598D01*
X149055965Y-101412170D01*
X148956097Y-101626336D01*
X148894936Y-101854592D01*
X148874340Y-102089999D01*
X148894936Y-102325407D01*
X148939709Y-102492501D01*
X148956097Y-102553663D01*
X149055965Y-102767830D01*
X149191505Y-102961401D01*
X149358599Y-103128495D01*
X149544596Y-103258732D01*
X149588219Y-103313307D01*
X149595412Y-103382806D01*
X149563890Y-103445160D01*
X149544595Y-103461880D01*
X149358919Y-103591892D01*
X149191890Y-103758921D01*
X149056400Y-103952421D01*
X148956569Y-104166507D01*
X148899364Y-104379999D01*
X148899364Y-104380000D01*
X149796314Y-104380000D01*
X149770507Y-104420156D01*
X149730000Y-104558111D01*
X149730000Y-104701889D01*
X149770507Y-104839844D01*
X149796314Y-104880000D01*
X148899364Y-104880000D01*
X148956569Y-105093492D01*
X149056399Y-105307576D01*
X149191893Y-105501081D01*
X149358918Y-105668106D01*
X149552423Y-105803600D01*
X149766509Y-105903430D01*
X149980000Y-105960634D01*
X149980000Y-105065501D01*
X150087685Y-105114680D01*
X150194237Y-105130000D01*
X150265763Y-105130000D01*
X150372315Y-105114680D01*
X150480000Y-105065501D01*
X150480000Y-105960633D01*
X150693490Y-105903430D01*
X150907576Y-105803600D01*
X151101081Y-105668106D01*
X151268109Y-105501078D01*
X151398119Y-105315405D01*
X151452696Y-105271780D01*
X151522194Y-105264586D01*
X151584549Y-105296109D01*
X151601265Y-105315400D01*
X151731505Y-105501401D01*
X151898599Y-105668495D01*
X152092170Y-105804035D01*
X152306337Y-105903903D01*
X152534592Y-105965063D01*
X152770000Y-105985659D01*
X153005408Y-105965063D01*
X153233663Y-105903903D01*
X153447830Y-105804035D01*
X153641401Y-105668495D01*
X153808495Y-105501401D01*
X153944035Y-105307830D01*
X154043903Y-105093663D01*
X154105063Y-104865408D01*
X154125659Y-104630000D01*
X154105063Y-104394592D01*
X154043903Y-104166337D01*
X153944035Y-103952171D01*
X153808495Y-103758599D01*
X153641401Y-103591505D01*
X153455839Y-103461573D01*
X153412216Y-103406998D01*
X153405022Y-103337500D01*
X153436545Y-103275145D01*
X153455837Y-103258428D01*
X153641401Y-103128495D01*
X153808495Y-102961401D01*
X153944035Y-102767830D01*
X154043903Y-102553663D01*
X154105063Y-102325408D01*
X154125659Y-102090000D01*
X154105063Y-101854592D01*
X154043903Y-101626337D01*
X153944035Y-101412171D01*
X153808495Y-101218599D01*
X153641401Y-101051505D01*
X153455839Y-100921573D01*
X153412216Y-100866998D01*
X153405022Y-100797500D01*
X153436545Y-100735145D01*
X153455837Y-100718428D01*
X153641401Y-100588495D01*
X153808495Y-100421401D01*
X153944035Y-100227830D01*
X154043903Y-100013663D01*
X154105063Y-99785408D01*
X154125659Y-99550000D01*
X154105063Y-99314592D01*
X154043903Y-99086337D01*
X153944035Y-98872171D01*
X153808495Y-98678599D01*
X153641401Y-98511505D01*
X153455402Y-98381267D01*
X153411780Y-98326692D01*
X153404587Y-98257193D01*
X153436109Y-98194839D01*
X153455405Y-98178119D01*
X153641078Y-98048109D01*
X153808106Y-97881081D01*
X153943600Y-97687576D01*
X154043430Y-97473492D01*
X154100636Y-97260000D01*
X153203686Y-97260000D01*
X153229493Y-97219844D01*
X153270000Y-97081889D01*
X153270000Y-96938111D01*
X153229493Y-96800156D01*
X153203686Y-96760000D01*
X154100636Y-96760000D01*
X154100635Y-96759999D01*
X154043430Y-96546507D01*
X153943600Y-96332424D01*
X153821480Y-96158018D01*
X153799153Y-96091811D01*
X153816163Y-96024044D01*
X153835366Y-95999223D01*
X154447770Y-95386819D01*
X154509094Y-95353334D01*
X154535452Y-95350500D01*
X154619648Y-95350500D01*
X154743084Y-95324262D01*
X154804803Y-95311144D01*
X154977730Y-95234151D01*
X155009708Y-95210918D01*
X155130870Y-95122889D01*
X155257533Y-94982216D01*
X155352179Y-94818284D01*
X155386046Y-94714052D01*
X155410674Y-94638256D01*
X155430460Y-94450000D01*
X155410674Y-94261744D01*
X155352179Y-94081716D01*
X155352179Y-94081715D01*
X155257533Y-93917783D01*
X155130870Y-93777110D01*
X154977730Y-93665848D01*
X154931384Y-93645213D01*
X154878147Y-93599963D01*
X154857826Y-93533114D01*
X154876872Y-93465890D01*
X154929238Y-93419635D01*
X154931333Y-93418677D01*
X154952730Y-93409151D01*
X155039759Y-93345921D01*
X155105870Y-93297889D01*
X155232533Y-93157216D01*
X155327179Y-92993284D01*
X155355677Y-92905577D01*
X155385674Y-92813256D01*
X155405460Y-92625000D01*
X155385674Y-92436744D01*
X155355332Y-92343363D01*
X155327179Y-92256715D01*
X155232533Y-92092783D01*
X155105870Y-91952110D01*
X154952730Y-91840848D01*
X154779802Y-91763855D01*
X154594648Y-91724500D01*
X154594646Y-91724500D01*
X154405354Y-91724500D01*
X154405351Y-91724500D01*
X154243436Y-91758915D01*
X154173769Y-91753599D01*
X154118036Y-91711461D01*
X154097881Y-91669719D01*
X154043430Y-91466507D01*
X153943599Y-91252421D01*
X153808109Y-91058921D01*
X153641081Y-90891893D01*
X153455404Y-90761880D01*
X153411780Y-90707303D01*
X153404587Y-90637804D01*
X153436109Y-90575450D01*
X153455399Y-90558734D01*
X153641401Y-90428495D01*
X153808495Y-90261401D01*
X153944035Y-90067830D01*
X154043903Y-89853663D01*
X154105063Y-89625408D01*
X154125659Y-89390000D01*
X154105063Y-89154592D01*
X154043903Y-88926337D01*
X153944035Y-88712171D01*
X153808495Y-88518599D01*
X153641401Y-88351505D01*
X153455839Y-88221573D01*
X153412216Y-88166998D01*
X153405022Y-88097500D01*
X153436545Y-88035145D01*
X153455837Y-88018428D01*
X153641401Y-87888495D01*
X153808495Y-87721401D01*
X153944035Y-87527830D01*
X154043903Y-87313663D01*
X154105063Y-87085408D01*
X154125659Y-86850000D01*
X154105063Y-86614592D01*
X154043903Y-86386337D01*
X153944035Y-86172171D01*
X153808495Y-85978599D01*
X153641401Y-85811505D01*
X153455839Y-85681573D01*
X153412216Y-85626998D01*
X153405022Y-85557500D01*
X153436545Y-85495145D01*
X153455837Y-85478428D01*
X153641401Y-85348495D01*
X153808495Y-85181401D01*
X153944035Y-84987830D01*
X154043903Y-84773663D01*
X154105063Y-84545408D01*
X154125659Y-84310000D01*
X154105063Y-84074592D01*
X154043903Y-83846337D01*
X153944035Y-83632171D01*
X153808495Y-83438599D01*
X153641401Y-83271505D01*
X153455839Y-83141573D01*
X153412216Y-83086998D01*
X153405022Y-83017500D01*
X153436545Y-82955145D01*
X153455837Y-82938428D01*
X153641401Y-82808495D01*
X153808495Y-82641401D01*
X153944035Y-82447830D01*
X154043903Y-82233663D01*
X154105063Y-82005408D01*
X154125659Y-81770000D01*
X154105063Y-81534592D01*
X154043903Y-81306337D01*
X153944035Y-81092171D01*
X153808495Y-80898599D01*
X153641401Y-80731505D01*
X153455402Y-80601267D01*
X153411780Y-80546692D01*
X153404587Y-80477193D01*
X153436109Y-80414839D01*
X153455405Y-80398119D01*
X153641078Y-80268109D01*
X153808106Y-80101081D01*
X153943600Y-79907576D01*
X154043430Y-79693492D01*
X154100636Y-79480000D01*
X153203686Y-79480000D01*
X153229493Y-79439844D01*
X153270000Y-79301889D01*
X153270000Y-79158111D01*
X153229493Y-79020156D01*
X153203686Y-78980000D01*
X154100636Y-78980000D01*
X154100635Y-78979999D01*
X154043430Y-78766507D01*
X153943599Y-78552421D01*
X153808109Y-78358921D01*
X153641081Y-78191893D01*
X153455404Y-78061880D01*
X153411780Y-78007303D01*
X153404587Y-77937804D01*
X153436109Y-77875450D01*
X153455399Y-77858734D01*
X153641401Y-77728495D01*
X153808495Y-77561401D01*
X153944035Y-77367830D01*
X154043903Y-77153663D01*
X154105063Y-76925408D01*
X154125659Y-76690000D01*
X154105063Y-76454592D01*
X154043903Y-76226337D01*
X153944035Y-76012171D01*
X153808495Y-75818599D01*
X153641401Y-75651505D01*
X153455839Y-75521573D01*
X153412216Y-75466998D01*
X153405022Y-75397500D01*
X153436545Y-75335145D01*
X153455837Y-75318428D01*
X153641401Y-75188495D01*
X153808495Y-75021401D01*
X153944035Y-74827830D01*
X154043903Y-74613663D01*
X154105063Y-74385408D01*
X154125659Y-74150000D01*
X154125118Y-74143822D01*
X154105063Y-73914592D01*
X154090742Y-73861144D01*
X154043903Y-73686337D01*
X153944035Y-73472171D01*
X153808495Y-73278599D01*
X153641401Y-73111505D01*
X153455402Y-72981267D01*
X153411780Y-72926692D01*
X153404587Y-72857193D01*
X153436109Y-72794839D01*
X153455405Y-72778119D01*
X153641078Y-72648109D01*
X153808106Y-72481081D01*
X153943600Y-72287576D01*
X154043430Y-72073492D01*
X154100636Y-71860000D01*
X153203686Y-71860000D01*
X153229493Y-71819844D01*
X153270000Y-71681889D01*
X153270000Y-71538111D01*
X153229493Y-71400156D01*
X153203686Y-71360000D01*
X154100636Y-71360000D01*
X154100635Y-71359999D01*
X154043430Y-71146507D01*
X153943599Y-70932421D01*
X153808109Y-70738921D01*
X153641081Y-70571893D01*
X153455404Y-70441880D01*
X153411780Y-70387303D01*
X153404587Y-70317804D01*
X153436109Y-70255450D01*
X153455399Y-70238734D01*
X153641401Y-70108495D01*
X153808495Y-69941401D01*
X153944035Y-69747830D01*
X154043903Y-69533663D01*
X154105063Y-69305408D01*
X154125659Y-69070000D01*
X154105063Y-68834592D01*
X154043903Y-68606337D01*
X153944035Y-68392171D01*
X153808495Y-68198599D01*
X153641401Y-68031505D01*
X153455839Y-67901573D01*
X153412215Y-67846997D01*
X153405023Y-67777498D01*
X153436545Y-67715144D01*
X153455831Y-67698432D01*
X153641401Y-67568495D01*
X153808495Y-67401401D01*
X153944035Y-67207830D01*
X154043903Y-66993663D01*
X154105063Y-66765408D01*
X154125659Y-66530000D01*
X154105063Y-66294592D01*
X154043903Y-66066337D01*
X153944035Y-65852171D01*
X153808495Y-65658599D01*
X153641401Y-65491505D01*
X153455839Y-65361573D01*
X153412217Y-65306998D01*
X153405024Y-65237499D01*
X153436546Y-65175145D01*
X153455837Y-65158428D01*
X153641401Y-65028495D01*
X153808495Y-64861401D01*
X153944035Y-64667830D01*
X154043903Y-64453663D01*
X154105063Y-64225408D01*
X154125659Y-63990000D01*
X154105063Y-63754592D01*
X154043903Y-63526337D01*
X153944035Y-63312171D01*
X153808495Y-63118599D01*
X153641401Y-62951505D01*
X153455402Y-62821267D01*
X153411780Y-62766692D01*
X153404587Y-62697193D01*
X153436109Y-62634839D01*
X153455405Y-62618119D01*
X153641078Y-62488109D01*
X153808106Y-62321081D01*
X153943600Y-62127576D01*
X154043430Y-61913492D01*
X154100636Y-61700000D01*
X153203686Y-61700000D01*
X153229493Y-61659844D01*
X153270000Y-61521889D01*
X153270000Y-61378111D01*
X153229493Y-61240156D01*
X153203686Y-61200000D01*
X154100636Y-61200000D01*
X154100635Y-61199999D01*
X154043430Y-60986507D01*
X153943599Y-60772421D01*
X153808109Y-60578921D01*
X153641081Y-60411893D01*
X153455404Y-60281880D01*
X153411780Y-60227303D01*
X153404587Y-60157804D01*
X153436109Y-60095450D01*
X153455399Y-60078734D01*
X153641401Y-59948495D01*
X153808495Y-59781401D01*
X153944035Y-59587830D01*
X154043903Y-59373663D01*
X154105063Y-59145408D01*
X154125659Y-58910000D01*
X154105063Y-58674592D01*
X154043903Y-58446337D01*
X153944035Y-58232171D01*
X153808495Y-58038599D01*
X153641401Y-57871505D01*
X153455839Y-57741573D01*
X153412215Y-57686997D01*
X153405023Y-57617498D01*
X153436545Y-57555144D01*
X153455831Y-57538432D01*
X153641401Y-57408495D01*
X153808495Y-57241401D01*
X153944035Y-57047830D01*
X154043903Y-56833663D01*
X154105063Y-56605408D01*
X154125659Y-56370000D01*
X154105063Y-56134592D01*
X154043903Y-55906337D01*
X153944035Y-55692171D01*
X153808495Y-55498599D01*
X153641401Y-55331505D01*
X153447830Y-55195965D01*
X153233663Y-55096097D01*
X153172501Y-55079709D01*
X153005407Y-55034936D01*
X152770000Y-55014340D01*
X152534592Y-55034936D01*
X152306336Y-55096097D01*
X152092170Y-55195965D01*
X151898601Y-55331503D01*
X151776673Y-55453431D01*
X151715350Y-55486915D01*
X151645658Y-55481931D01*
X151589725Y-55440059D01*
X151572810Y-55409082D01*
X151565658Y-55389907D01*
X151523796Y-55277669D01*
X151437546Y-55162454D01*
X151322331Y-55076204D01*
X151187483Y-55025909D01*
X151127873Y-55019500D01*
X151124550Y-55019500D01*
X149335439Y-55019500D01*
X149335420Y-55019500D01*
X149332128Y-55019501D01*
X149328848Y-55019853D01*
X149328840Y-55019854D01*
X149272515Y-55025909D01*
X149137669Y-55076204D01*
X149022454Y-55162454D01*
X148936204Y-55277668D01*
X148917995Y-55326491D01*
X148885909Y-55412517D01*
X148879500Y-55472127D01*
X148879500Y-55475448D01*
X148879500Y-55475449D01*
X148879500Y-57264560D01*
X148879500Y-57264578D01*
X148879501Y-57267872D01*
X148879853Y-57271152D01*
X148879854Y-57271159D01*
X148885909Y-57327484D01*
X148911056Y-57394907D01*
X148936204Y-57462331D01*
X149022454Y-57577546D01*
X149137669Y-57663796D01*
X149249907Y-57705658D01*
X149269082Y-57712810D01*
X149325016Y-57754681D01*
X149349433Y-57820146D01*
X149334581Y-57888419D01*
X149313431Y-57916673D01*
X149191503Y-58038601D01*
X149055965Y-58232170D01*
X148956097Y-58446336D01*
X148894936Y-58674592D01*
X148874340Y-58909999D01*
X148894936Y-59145407D01*
X148939709Y-59312501D01*
X148956097Y-59373663D01*
X149055965Y-59587830D01*
X149191505Y-59781401D01*
X149358599Y-59948495D01*
X149544160Y-60078426D01*
X149587783Y-60133002D01*
X149594976Y-60202501D01*
X149563454Y-60264855D01*
X149544159Y-60281575D01*
X149358595Y-60411508D01*
X149191505Y-60578598D01*
X149055965Y-60772170D01*
X148956097Y-60986336D01*
X148894936Y-61214592D01*
X148874340Y-61450000D01*
X148894936Y-61685407D01*
X148920496Y-61780798D01*
X148956097Y-61913663D01*
X149055965Y-62127830D01*
X149191505Y-62321401D01*
X149358599Y-62488495D01*
X149544160Y-62618426D01*
X149587783Y-62673002D01*
X149594976Y-62742501D01*
X149563454Y-62804855D01*
X149544159Y-62821575D01*
X149358595Y-62951508D01*
X149191505Y-63118598D01*
X149055965Y-63312170D01*
X148956097Y-63526336D01*
X148894936Y-63754592D01*
X148874340Y-63989999D01*
X148894936Y-64225407D01*
X148939709Y-64392502D01*
X148956097Y-64453663D01*
X149055965Y-64667830D01*
X149191505Y-64861401D01*
X149358599Y-65028495D01*
X149544596Y-65158732D01*
X149588219Y-65213307D01*
X149595412Y-65282806D01*
X149563890Y-65345160D01*
X149544595Y-65361880D01*
X149358919Y-65491892D01*
X149191890Y-65658921D01*
X149056400Y-65852421D01*
X148956569Y-66066507D01*
X148899364Y-66279999D01*
X148899364Y-66280000D01*
X149796314Y-66280000D01*
X149770507Y-66320156D01*
X149730000Y-66458111D01*
X149730000Y-66601889D01*
X149770507Y-66739844D01*
X149796314Y-66780000D01*
X148899364Y-66780000D01*
X148956569Y-66993492D01*
X149056399Y-67207576D01*
X149191893Y-67401081D01*
X149358918Y-67568106D01*
X149544595Y-67698119D01*
X149588219Y-67752696D01*
X149595412Y-67822195D01*
X149563890Y-67884549D01*
X149544595Y-67901269D01*
X149358595Y-68031508D01*
X149191505Y-68198598D01*
X149055965Y-68392170D01*
X148956097Y-68606336D01*
X148894936Y-68834592D01*
X148874340Y-69069999D01*
X148894936Y-69305407D01*
X148939709Y-69472501D01*
X148956097Y-69533663D01*
X149055965Y-69747830D01*
X149191505Y-69941401D01*
X149358599Y-70108495D01*
X149544160Y-70238426D01*
X149587783Y-70293002D01*
X149594976Y-70362501D01*
X149563454Y-70424855D01*
X149544159Y-70441575D01*
X149358595Y-70571508D01*
X149191505Y-70738598D01*
X149055965Y-70932170D01*
X148956097Y-71146336D01*
X148894936Y-71374592D01*
X148874340Y-71609999D01*
X148894936Y-71845407D01*
X148920496Y-71940798D01*
X148956097Y-72073663D01*
X149055965Y-72287830D01*
X149191505Y-72481401D01*
X149358599Y-72648495D01*
X149544160Y-72778426D01*
X149587783Y-72833002D01*
X149594976Y-72902501D01*
X149563454Y-72964855D01*
X149544159Y-72981575D01*
X149358595Y-73111508D01*
X149191505Y-73278598D01*
X149055965Y-73472170D01*
X148956097Y-73686336D01*
X148894936Y-73914592D01*
X148874340Y-74150000D01*
X148894936Y-74385407D01*
X148939709Y-74552502D01*
X148956097Y-74613663D01*
X149055965Y-74827830D01*
X149191505Y-75021401D01*
X149358599Y-75188495D01*
X149544160Y-75318426D01*
X149587783Y-75373002D01*
X149594976Y-75442501D01*
X149563454Y-75504855D01*
X149544158Y-75521575D01*
X149375626Y-75639583D01*
X149358595Y-75651508D01*
X149191505Y-75818598D01*
X149055965Y-76012170D01*
X148956097Y-76226336D01*
X148894936Y-76454592D01*
X148874340Y-76689999D01*
X148894936Y-76925407D01*
X148914923Y-76999999D01*
X148956097Y-77153663D01*
X149055965Y-77367830D01*
X149191505Y-77561401D01*
X149358599Y-77728495D01*
X149544160Y-77858426D01*
X149587783Y-77913002D01*
X149594976Y-77982501D01*
X149563454Y-78044855D01*
X149544158Y-78061575D01*
X149362460Y-78188802D01*
X149358595Y-78191508D01*
X149191505Y-78358598D01*
X149055965Y-78552170D01*
X148956097Y-78766336D01*
X148894936Y-78994592D01*
X148874340Y-79230000D01*
X148894936Y-79465407D01*
X148920055Y-79559151D01*
X148956097Y-79693663D01*
X149055965Y-79907830D01*
X149191505Y-80101401D01*
X149358599Y-80268495D01*
X149544160Y-80398426D01*
X149587783Y-80453002D01*
X149594976Y-80522501D01*
X149563454Y-80584855D01*
X149544159Y-80601575D01*
X149358595Y-80731508D01*
X149191505Y-80898598D01*
X149055965Y-81092170D01*
X148956097Y-81306336D01*
X148894936Y-81534592D01*
X148874340Y-81770000D01*
X148894936Y-82005407D01*
X148939709Y-82172501D01*
X148956097Y-82233663D01*
X149055965Y-82447830D01*
X149191505Y-82641401D01*
X149358599Y-82808495D01*
X149544160Y-82938426D01*
X149587783Y-82993002D01*
X149594976Y-83062501D01*
X149563454Y-83124855D01*
X149544159Y-83141575D01*
X149358595Y-83271508D01*
X149191505Y-83438598D01*
X149055965Y-83632170D01*
X148956097Y-83846336D01*
X148894936Y-84074592D01*
X148874340Y-84309999D01*
X148894936Y-84545407D01*
X148939709Y-84712502D01*
X148956097Y-84773663D01*
X149055965Y-84987830D01*
X149191505Y-85181401D01*
X149358599Y-85348495D01*
X149544596Y-85478732D01*
X149588219Y-85533307D01*
X149595412Y-85602806D01*
X149563890Y-85665160D01*
X149544595Y-85681880D01*
X149358919Y-85811892D01*
X149191890Y-85978921D01*
X149056400Y-86172421D01*
X148956569Y-86386507D01*
X148899364Y-86599999D01*
X148899364Y-86600000D01*
X149796314Y-86600000D01*
X149770507Y-86640156D01*
X149730000Y-86778111D01*
X149730000Y-86921889D01*
X149770507Y-87059844D01*
X149796314Y-87100000D01*
X148899364Y-87100000D01*
X148956569Y-87313492D01*
X149056399Y-87527576D01*
X149191893Y-87721081D01*
X149358918Y-87888106D01*
X149544595Y-88018119D01*
X149588219Y-88072696D01*
X149595412Y-88142195D01*
X149563890Y-88204549D01*
X149544595Y-88221269D01*
X149358595Y-88351508D01*
X149191505Y-88518598D01*
X149055965Y-88712170D01*
X148956097Y-88926336D01*
X148894936Y-89154592D01*
X148874340Y-89389999D01*
X148894936Y-89625407D01*
X148939709Y-89792502D01*
X148956097Y-89853663D01*
X149055965Y-90067830D01*
X149191505Y-90261401D01*
X149358599Y-90428495D01*
X149544160Y-90558426D01*
X149587783Y-90613002D01*
X149594976Y-90682501D01*
X149563454Y-90744855D01*
X149544159Y-90761575D01*
X149358595Y-90891508D01*
X149191505Y-91058598D01*
X149055965Y-91252170D01*
X148956097Y-91466336D01*
X148894936Y-91694592D01*
X148874340Y-91930000D01*
X148894936Y-92165407D01*
X148920496Y-92260798D01*
X148956097Y-92393663D01*
X148976185Y-92436742D01*
X149002463Y-92493095D01*
X149012955Y-92562173D01*
X148984435Y-92625957D01*
X148925959Y-92664196D01*
X148890081Y-92669500D01*
X146214494Y-92669500D01*
X146193987Y-92667235D01*
X146123877Y-92669439D01*
X146119982Y-92669500D01*
X146092400Y-92669500D01*
X146088555Y-92669985D01*
X146088530Y-92669987D01*
X146088403Y-92670004D01*
X146076783Y-92670918D01*
X146033119Y-92672290D01*
X146013879Y-92677880D01*
X145994831Y-92681825D01*
X145974959Y-92684335D01*
X145934349Y-92700413D01*
X145923304Y-92704194D01*
X145881360Y-92716381D01*
X145864115Y-92726579D01*
X145846654Y-92735133D01*
X145828017Y-92742512D01*
X145792681Y-92768185D01*
X145782924Y-92774595D01*
X145745330Y-92796829D01*
X145731163Y-92810996D01*
X145716374Y-92823626D01*
X145700163Y-92835404D01*
X145672322Y-92869058D01*
X145664461Y-92877697D01*
X142583978Y-95958181D01*
X142522655Y-95991666D01*
X142496297Y-95994500D01*
X142437102Y-95994500D01*
X142251947Y-96033855D01*
X142079019Y-96110848D01*
X141925879Y-96222110D01*
X141799216Y-96362783D01*
X141704570Y-96526715D01*
X141646076Y-96706742D01*
X141626290Y-96894999D01*
X124000500Y-96894999D01*
X124000500Y-93790000D01*
X126373505Y-93790000D01*
X126426240Y-93975351D01*
X126525365Y-94174422D01*
X126659390Y-94351899D01*
X126823737Y-94501721D01*
X127012821Y-94618797D01*
X127220199Y-94699135D01*
X127300000Y-94714052D01*
X127799999Y-94714052D01*
X127879800Y-94699135D01*
X128087178Y-94618797D01*
X128276262Y-94501721D01*
X128440609Y-94351899D01*
X128574634Y-94174422D01*
X128673759Y-93975351D01*
X128726495Y-93790000D01*
X127800000Y-93790000D01*
X127799999Y-94714052D01*
X127300000Y-94714052D01*
X127300000Y-93790000D01*
X126373505Y-93790000D01*
X124000500Y-93790000D01*
X124000500Y-93569302D01*
X127196372Y-93569302D01*
X127225047Y-93682538D01*
X127288936Y-93780327D01*
X127381115Y-93852072D01*
X127491595Y-93890000D01*
X127579005Y-93890000D01*
X127665216Y-93875614D01*
X127767947Y-93820019D01*
X127847060Y-93734079D01*
X127893982Y-93627108D01*
X127903628Y-93510698D01*
X127874953Y-93397462D01*
X127811064Y-93299673D01*
X127718885Y-93227928D01*
X127608405Y-93190000D01*
X127520995Y-93190000D01*
X127434784Y-93204386D01*
X127332053Y-93259981D01*
X127252940Y-93345921D01*
X127206018Y-93452892D01*
X127196372Y-93569302D01*
X124000500Y-93569302D01*
X124000500Y-93290000D01*
X126373505Y-93290000D01*
X127299999Y-93290000D01*
X127300000Y-92365946D01*
X127800000Y-92365946D01*
X127800000Y-93290000D01*
X128726495Y-93290000D01*
X128673759Y-93104648D01*
X128574634Y-92905577D01*
X128440609Y-92728100D01*
X128276262Y-92578278D01*
X128087178Y-92461202D01*
X127879802Y-92380864D01*
X127800000Y-92365946D01*
X127300000Y-92365946D01*
X127220197Y-92380864D01*
X127012821Y-92461202D01*
X126823737Y-92578278D01*
X126659390Y-92728100D01*
X126525365Y-92905577D01*
X126426240Y-93104648D01*
X126373505Y-93290000D01*
X124000500Y-93290000D01*
X124000500Y-91524759D01*
X124000528Y-91524616D01*
X124000524Y-91524616D01*
X124000539Y-91500002D01*
X124000541Y-91500000D01*
X124000462Y-91499808D01*
X124000384Y-91499618D01*
X124000383Y-91499617D01*
X124000379Y-91499615D01*
X124000097Y-91499499D01*
X124000000Y-91499459D01*
X123975446Y-91499459D01*
X123975240Y-91499500D01*
X97024760Y-91499500D01*
X97024554Y-91499459D01*
X96999999Y-91499459D01*
X96999900Y-91499500D01*
X96999618Y-91499615D01*
X96999615Y-91499618D01*
X96999459Y-91499999D01*
X96999476Y-91524616D01*
X96999471Y-91524616D01*
X96999500Y-91524759D01*
X96999500Y-97475467D01*
X96999416Y-97475889D01*
X90006052Y-97475889D01*
X90010322Y-86203605D01*
X99645380Y-86203605D01*
X99664262Y-86527812D01*
X99665101Y-86534991D01*
X99721494Y-86854811D01*
X99723156Y-86861824D01*
X99816305Y-87172963D01*
X99818761Y-87179712D01*
X99947402Y-87477934D01*
X99950635Y-87484370D01*
X100113016Y-87765623D01*
X100116982Y-87771654D01*
X100312358Y-88034088D01*
X101385073Y-86961372D01*
X101461890Y-87071078D01*
X101628922Y-87238110D01*
X101738626Y-87314925D01*
X100669289Y-88384261D01*
X100669290Y-88384262D01*
X100792441Y-88487598D01*
X100798239Y-88491915D01*
X101069565Y-88670369D01*
X101075814Y-88673976D01*
X101366022Y-88819725D01*
X101372661Y-88822588D01*
X101677838Y-88933664D01*
X101684728Y-88935727D01*
X102000768Y-89010630D01*
X102007834Y-89011876D01*
X102330435Y-89049582D01*
X102337605Y-89050000D01*
X102662395Y-89050000D01*
X102669564Y-89049582D01*
X102992165Y-89011876D01*
X102999231Y-89010630D01*
X103315271Y-88935727D01*
X103322161Y-88933664D01*
X103627338Y-88822588D01*
X103633977Y-88819725D01*
X103924185Y-88673976D01*
X103930434Y-88670369D01*
X104201760Y-88491915D01*
X104207558Y-88487598D01*
X104330708Y-88384262D01*
X104330709Y-88384261D01*
X103261373Y-87314925D01*
X103371078Y-87238110D01*
X103538110Y-87071078D01*
X103614926Y-86961373D01*
X104687640Y-88034088D01*
X104883017Y-87771654D01*
X104886983Y-87765623D01*
X105049364Y-87484370D01*
X105052597Y-87477934D01*
X105181238Y-87179712D01*
X105183694Y-87172963D01*
X105276843Y-86861824D01*
X105278505Y-86854811D01*
X105334898Y-86534991D01*
X105335737Y-86527812D01*
X105354620Y-86203605D01*
X105354620Y-86196394D01*
X105335737Y-85872187D01*
X105334898Y-85865008D01*
X105278505Y-85545188D01*
X105276843Y-85538175D01*
X105183694Y-85227036D01*
X105181238Y-85220287D01*
X105052597Y-84922065D01*
X105049364Y-84915629D01*
X104886983Y-84634376D01*
X104883017Y-84628345D01*
X104687640Y-84365910D01*
X103614925Y-85438625D01*
X103538110Y-85328922D01*
X103371078Y-85161890D01*
X103261373Y-85085073D01*
X104330709Y-84015737D01*
X104330708Y-84015736D01*
X104207558Y-83912401D01*
X104201760Y-83908084D01*
X103930434Y-83729630D01*
X103924185Y-83726023D01*
X103633977Y-83580274D01*
X103627338Y-83577411D01*
X103322161Y-83466335D01*
X103315271Y-83464272D01*
X102999231Y-83389369D01*
X102992165Y-83388123D01*
X102669564Y-83350417D01*
X102662395Y-83350000D01*
X102337605Y-83350000D01*
X102330435Y-83350417D01*
X102007834Y-83388123D01*
X102000768Y-83389369D01*
X101684728Y-83464272D01*
X101677838Y-83466335D01*
X101372661Y-83577411D01*
X101366022Y-83580274D01*
X101075814Y-83726023D01*
X101069565Y-83729630D01*
X100798241Y-83908083D01*
X100792440Y-83912402D01*
X100669289Y-84015736D01*
X101738626Y-85085073D01*
X101628922Y-85161890D01*
X101461890Y-85328922D01*
X101385073Y-85438626D01*
X100312357Y-84365910D01*
X100116983Y-84628344D01*
X100113016Y-84634376D01*
X99950635Y-84915629D01*
X99947402Y-84922065D01*
X99818761Y-85220287D01*
X99816305Y-85227036D01*
X99723156Y-85538175D01*
X99721494Y-85545188D01*
X99665101Y-85865008D01*
X99664262Y-85872187D01*
X99645380Y-86196394D01*
X99645380Y-86203605D01*
X90010322Y-86203605D01*
X90024929Y-47645680D01*
X90026456Y-47626336D01*
X90042610Y-47524341D01*
X90051739Y-47470608D01*
X90069738Y-47364671D01*
X90072206Y-47353379D01*
X90112425Y-47203279D01*
X90156353Y-47050803D01*
X90159721Y-47040759D01*
X90215583Y-46895233D01*
X90216692Y-46892452D01*
X90276439Y-46748212D01*
X90280488Y-46739429D01*
X90351569Y-46599925D01*
X90353521Y-46596250D01*
X90428588Y-46460426D01*
X90433065Y-46452962D01*
X90518633Y-46321199D01*
X90521434Y-46317077D01*
X90611010Y-46190832D01*
X90615733Y-46184603D01*
X90714702Y-46062386D01*
X90718532Y-46057885D01*
X90821613Y-45942537D01*
X90826323Y-45937556D01*
X90937556Y-45826323D01*
X90942537Y-45821613D01*
X91057885Y-45718532D01*
X91062386Y-45714702D01*
X91184603Y-45615733D01*
X91190832Y-45611010D01*
X91317077Y-45521434D01*
X91321199Y-45518633D01*
X91452962Y-45433065D01*
X91460426Y-45428588D01*
X91596255Y-45353517D01*
X91599934Y-45351565D01*
X91739429Y-45280488D01*
X91748212Y-45276439D01*
X91892452Y-45216692D01*
X91895233Y-45215583D01*
X92040753Y-45159724D01*
X92050818Y-45156349D01*
X92203292Y-45112422D01*
X92353407Y-45072198D01*
X92364672Y-45069739D01*
X92524337Y-45042610D01*
X92673688Y-45018955D01*
X92686098Y-45017627D01*
X92866566Y-45007493D01*
X92996756Y-45000669D01*
X93003245Y-45000500D01*
X122555973Y-45000500D01*
X122623012Y-45020185D01*
G37*
%TD.AperFunction*%
%TD*%
%TA.AperFunction,Conductor*%
%TO.N,VBATT*%
G36*
X100543039Y-60319685D02*
G01*
X100588794Y-60372489D01*
X100600000Y-60424000D01*
X100600000Y-64435438D01*
X100580315Y-64502477D01*
X100547109Y-64537023D01*
X98632798Y-65877040D01*
X98566589Y-65899358D01*
X98559967Y-65899443D01*
X91526804Y-65801761D01*
X91460044Y-65781147D01*
X91415027Y-65727713D01*
X91404608Y-65673267D01*
X91447183Y-64502477D01*
X91595654Y-60419494D01*
X91617763Y-60353214D01*
X91672194Y-60309408D01*
X91719573Y-60300000D01*
X100476000Y-60300000D01*
X100543039Y-60319685D01*
G37*
%TD.AperFunction*%
%TD*%
M02*
