M48
; DRILL file {KiCad 7.0.2-0} date 2023 December 02, Saturday 21:39:18
; FORMAT={-:-/ absolute / metric / decimal}
; #@! TF.CreationDate,2023-12-02T21:39:18-08:00
; #@! TF.GenerationSoftware,Kicad,Pcbnew,7.0.2-0
; #@! TF.FileFunction,Plated,1,4,PTH
FMAT,2
METRIC
; #@! TA.AperFunction,Plated,PTH,ViaDrill
T1C0.400
; #@! TA.AperFunction,Plated,PTH,ComponentDrill
T2C0.700
; #@! TA.AperFunction,Plated,PTH,ComponentDrill
T3C0.800
; #@! TA.AperFunction,Plated,PTH,ComponentDrill
T4C1.000
; #@! TA.AperFunction,Plated,PTH,ComponentDrill
T5C1.500
; #@! TA.AperFunction,Plated,PTH,ComponentDrill
T6C1.700
; #@! TA.AperFunction,Plated,PTH,ComponentDrill
T7C2.700
%
G90
G05
T1
X90.725Y-69.525
X90.725Y-70.425
X90.725Y-71.325
X90.725Y-72.225
X91.625Y-69.525
X91.625Y-70.425
X91.625Y-71.325
X91.625Y-72.225
X91.9Y-81.175
X91.9Y-82.05
X91.9Y-82.925
X92.875Y-81.175
X92.875Y-82.05
X92.875Y-82.925
X93.825Y-81.175
X93.825Y-82.05
X93.825Y-82.925
X94.775Y-81.175
X94.775Y-82.05
X94.775Y-82.925
X98.475Y-66.975
X98.475Y-67.875
X98.475Y-68.775
X98.475Y-69.675
X98.8Y-61.0
X98.8Y-61.9
X98.8Y-62.8
X98.8Y-63.7
X99.375Y-66.975
X99.375Y-67.875
X99.375Y-68.775
X99.375Y-69.675
X99.7Y-61.0
X99.7Y-61.9
X99.7Y-62.8
X99.7Y-63.7
X99.75Y-78.775
X103.1Y-68.85
X103.1Y-69.8
X104.0Y-67.95
X104.0Y-68.9
X105.9Y-64.125
X105.9Y-65.0
X105.9Y-65.875
X106.125Y-56.225
X106.125Y-57.175
X106.8Y-73.3
X106.875Y-64.125
X106.875Y-65.0
X106.875Y-65.875
X107.025Y-55.675
X107.025Y-56.625
X107.6Y-70.9
X107.825Y-64.125
X107.825Y-65.0
X107.825Y-65.875
X108.775Y-64.125
X108.775Y-65.0
X108.775Y-65.875
X108.8Y-73.3
X109.9Y-67.8
X111.2Y-73.0
X113.475Y-59.15
X113.475Y-60.025
X113.475Y-60.9
X114.45Y-59.15
X114.45Y-60.025
X114.45Y-60.9
X115.4Y-59.15
X115.4Y-60.025
X115.4Y-60.9
X116.35Y-59.15
X116.35Y-60.025
X116.35Y-60.9
X122.475Y-46.425
X123.45Y-45.625
X130.3Y-48.7
X131.1Y-49.5
X133.3Y-97.425
X133.325Y-69.025
X134.625Y-69.05
X135.3Y-97.425
X135.9Y-69.075
X136.85Y-56.75
X137.175Y-69.125
X138.75Y-91.625
X138.75Y-92.575
X138.75Y-93.525
X138.75Y-94.5
X139.35Y-52.675
X139.35Y-53.55
X139.35Y-54.425
X139.625Y-91.625
X139.625Y-92.575
X139.625Y-93.525
X139.625Y-94.5
X140.175Y-62.4
X140.175Y-63.35
X140.3Y-52.675
X140.3Y-53.55
X140.3Y-54.425
X140.5Y-91.625
X140.5Y-92.575
X140.5Y-93.525
X140.5Y-94.5
X141.05Y-62.4
X141.05Y-63.35
X141.25Y-52.675
X141.25Y-53.55
X141.25Y-54.425
X141.925Y-62.4
X141.925Y-63.35
X142.225Y-52.675
X142.225Y-53.55
X142.225Y-54.425
X147.875Y-66.525
X148.625Y-75.575
X153.95Y-85.55
X154.025Y-88.1
X157.2Y-54.05
X157.2Y-56.55
X157.2Y-59.15
T2
X127.55Y-88.46
X127.55Y-93.54
T3
X93.3Y-65.0
X93.3Y-67.0
X93.3Y-69.0
X93.3Y-71.0
X93.3Y-73.0
X93.3Y-75.0
X93.3Y-77.0
X93.3Y-79.0
T4
X119.5Y-57.46
X119.5Y-60.0
X119.5Y-62.54
X150.23Y-56.37
X150.23Y-58.91
X150.23Y-61.45
X150.23Y-63.99
X150.23Y-66.53
X150.23Y-69.07
X150.23Y-71.61
X150.23Y-74.15
X150.23Y-76.69
X150.23Y-79.23
X150.23Y-81.77
X150.23Y-84.31
X150.23Y-86.85
X150.23Y-89.39
X150.23Y-91.93
X150.23Y-94.47
X150.23Y-97.01
X150.23Y-99.55
X150.23Y-102.09
X150.23Y-104.63
X152.77Y-56.37
X152.77Y-58.91
X152.77Y-61.45
X152.77Y-63.99
X152.77Y-66.53
X152.77Y-69.07
X152.77Y-71.61
X152.77Y-74.15
X152.77Y-76.69
X152.77Y-79.23
X152.77Y-81.77
X152.77Y-84.31
X152.77Y-86.85
X152.77Y-89.39
X152.77Y-91.93
X152.77Y-94.47
X152.77Y-97.01
X152.77Y-99.55
X152.77Y-102.09
X152.77Y-104.63
T5
X142.83Y-107.96
T6
X140.29Y-105.42
X140.29Y-110.5
X145.37Y-105.42
X145.37Y-110.5
T7
X102.5Y-51.5
X102.5Y-86.2
X102.5Y-109.5
X151.5Y-51.5
X151.5Y-109.5
T0
M30
