%TF.GenerationSoftware,KiCad,Pcbnew,7.0.2-0*%
%TF.CreationDate,2023-12-02T21:38:18-08:00*%
%TF.ProjectId,RPi_interface,5250695f-696e-4746-9572-666163652e6b,1.0*%
%TF.SameCoordinates,Original*%
%TF.FileFunction,Soldermask,Top*%
%TF.FilePolarity,Negative*%
%FSLAX46Y46*%
G04 Gerber Fmt 4.6, Leading zero omitted, Abs format (unit mm)*
G04 Created by KiCad (PCBNEW 7.0.2-0) date 2023-12-02 21:38:18*
%MOMM*%
%LPD*%
G01*
G04 APERTURE LIST*
G04 Aperture macros list*
%AMRoundRect*
0 Rectangle with rounded corners*
0 $1 Rounding radius*
0 $2 $3 $4 $5 $6 $7 $8 $9 X,Y pos of 4 corners*
0 Add a 4 corners polygon primitive as box body*
4,1,4,$2,$3,$4,$5,$6,$7,$8,$9,$2,$3,0*
0 Add four circle primitives for the rounded corners*
1,1,$1+$1,$2,$3*
1,1,$1+$1,$4,$5*
1,1,$1+$1,$6,$7*
1,1,$1+$1,$8,$9*
0 Add four rect primitives between the rounded corners*
20,1,$1+$1,$2,$3,$4,$5,0*
20,1,$1+$1,$4,$5,$6,$7,0*
20,1,$1+$1,$6,$7,$8,$9,0*
20,1,$1+$1,$8,$9,$2,$3,0*%
G04 Aperture macros list end*
%ADD10RoundRect,0.063500X-2.550000X3.650000X-2.550000X-3.650000X2.550000X-3.650000X2.550000X3.650000X0*%
%ADD11RoundRect,0.063500X-0.650000X1.000000X-0.650000X-1.000000X0.650000X-1.000000X0.650000X1.000000X0*%
%ADD12RoundRect,0.063500X-0.487500X0.750000X-0.487500X-0.750000X0.487500X-0.750000X0.487500X0.750000X0*%
%ADD13RoundRect,0.200000X0.275000X-0.200000X0.275000X0.200000X-0.275000X0.200000X-0.275000X-0.200000X0*%
%ADD14RoundRect,0.063500X-0.660400X0.279400X-0.660400X-0.279400X0.660400X-0.279400X0.660400X0.279400X0*%
%ADD15RoundRect,0.225000X-0.225000X-0.250000X0.225000X-0.250000X0.225000X0.250000X-0.225000X0.250000X0*%
%ADD16C,4.700000*%
%ADD17R,3.200000X2.000000*%
%ADD18R,0.650000X2.000000*%
%ADD19RoundRect,0.250000X-1.100000X0.325000X-1.100000X-0.325000X1.100000X-0.325000X1.100000X0.325000X0*%
%ADD20RoundRect,0.333000X1.767000X-0.417000X1.767000X0.417000X-1.767000X0.417000X-1.767000X-0.417000X0*%
%ADD21RoundRect,0.218750X-0.218750X-0.256250X0.218750X-0.256250X0.218750X0.256250X-0.218750X0.256250X0*%
%ADD22RoundRect,0.200000X0.200000X0.275000X-0.200000X0.275000X-0.200000X-0.275000X0.200000X-0.275000X0*%
%ADD23RoundRect,0.200000X-0.200000X-0.275000X0.200000X-0.275000X0.200000X0.275000X-0.200000X0.275000X0*%
%ADD24RoundRect,0.063500X0.152400X-0.800100X0.152400X0.800100X-0.152400X0.800100X-0.152400X-0.800100X0*%
%ADD25RoundRect,0.063500X1.230000X-1.155000X1.230000X1.155000X-1.230000X1.155000X-1.230000X-1.155000X0*%
%ADD26RoundRect,0.225000X0.250000X-0.225000X0.250000X0.225000X-0.250000X0.225000X-0.250000X-0.225000X0*%
%ADD27RoundRect,0.250000X1.100000X-0.325000X1.100000X0.325000X-1.100000X0.325000X-1.100000X-0.325000X0*%
%ADD28RoundRect,0.225000X-0.250000X0.225000X-0.250000X-0.225000X0.250000X-0.225000X0.250000X0.225000X0*%
%ADD29RoundRect,0.250000X-0.625000X0.312500X-0.625000X-0.312500X0.625000X-0.312500X0.625000X0.312500X0*%
%ADD30RoundRect,0.063500X-0.279400X-0.660400X0.279400X-0.660400X0.279400X0.660400X-0.279400X0.660400X0*%
%ADD31C,1.400000*%
%ADD32O,1.400000X1.400000*%
%ADD33RoundRect,0.200000X-0.275000X0.200000X-0.275000X-0.200000X0.275000X-0.200000X0.275000X0.200000X0*%
%ADD34C,2.050000*%
%ADD35C,2.250000*%
%ADD36R,1.700000X1.700000*%
%ADD37O,1.700000X1.700000*%
%ADD38R,1.308000X1.308000*%
%ADD39C,1.308000*%
G04 APERTURE END LIST*
D10*
%TO.C,U2*%
X139560000Y-93100000D03*
D11*
X144830000Y-99000000D03*
X142830000Y-99000000D03*
X139310000Y-99000000D03*
X137310000Y-99000000D03*
X135310000Y-99000000D03*
X133310000Y-99000000D03*
D12*
X132090000Y-67460000D03*
X133360000Y-67460000D03*
X134630000Y-67460000D03*
X135900000Y-67460000D03*
X137170000Y-67460000D03*
X138440000Y-67460000D03*
X139710000Y-67460000D03*
X140980000Y-67460000D03*
X142250000Y-67460000D03*
X143520000Y-67460000D03*
X144790000Y-67460000D03*
X146060000Y-67460000D03*
%TD*%
D13*
%TO.C,R6*%
X146050000Y-57800000D03*
X146050000Y-59450000D03*
%TD*%
D14*
%TO.C,Q2*%
X136177300Y-104950000D03*
X134297700Y-105902500D03*
X134297700Y-103997500D03*
%TD*%
D15*
%TO.C,C12*%
X155575000Y-55400000D03*
X157125000Y-55400000D03*
%TD*%
D16*
%TO.C,H5*%
X102500000Y-86200000D03*
%TD*%
D13*
%TO.C,R7*%
X146050000Y-54125000D03*
X146050000Y-55775000D03*
%TD*%
D15*
%TO.C,C8*%
X140675000Y-59450000D03*
X142225000Y-59450000D03*
%TD*%
D17*
%TO.C,U3*%
X140950000Y-50750000D03*
D18*
X143490000Y-56750000D03*
X142220000Y-56750000D03*
X140950000Y-56750000D03*
X139680000Y-56750000D03*
X138410000Y-56750000D03*
%TD*%
D19*
%TO.C,C3*%
X101900000Y-63625000D03*
X101900000Y-66575000D03*
%TD*%
D20*
%TO.C,L1*%
X109600000Y-59500000D03*
X109600000Y-55900000D03*
%TD*%
D16*
%TO.C,H2*%
X151500000Y-51500000D03*
%TD*%
D21*
%TO.C,D1*%
X135500000Y-108900000D03*
X133925000Y-108900000D03*
%TD*%
D22*
%TO.C,R4*%
X108825000Y-74787500D03*
X107175000Y-74787500D03*
%TD*%
D15*
%TO.C,C10*%
X147600000Y-65500000D03*
X146050000Y-65500000D03*
%TD*%
D23*
%TO.C,R8*%
X101275000Y-74875000D03*
X102925000Y-74875000D03*
%TD*%
D24*
%TO.C,U1*%
X105077296Y-67843200D03*
X105727309Y-67843200D03*
X106377318Y-67843200D03*
X107027330Y-67843200D03*
X107677342Y-67843200D03*
X108327351Y-67843200D03*
X108977364Y-67843200D03*
X108977364Y-62306000D03*
X108327351Y-62306000D03*
X107677342Y-62306000D03*
X107027330Y-62306000D03*
X106377318Y-62306000D03*
X105727309Y-62306000D03*
X105077296Y-62306000D03*
D25*
X107027330Y-65074600D03*
%TD*%
D26*
%TO.C,C2*%
X116100000Y-56975000D03*
X116100000Y-55425000D03*
%TD*%
D27*
%TO.C,C4*%
X101900000Y-61025000D03*
X101900000Y-58075000D03*
%TD*%
D28*
%TO.C,C5*%
X105500000Y-58425000D03*
X105500000Y-59975000D03*
%TD*%
D29*
%TO.C,R1*%
X135150000Y-59512500D03*
X135150000Y-62437500D03*
%TD*%
D28*
%TO.C,C7*%
X106400000Y-70412500D03*
X106400000Y-71962500D03*
%TD*%
%TO.C,C6*%
X108825000Y-70412500D03*
X108825000Y-71962500D03*
%TD*%
D30*
%TO.C,Q1*%
X104447500Y-77564800D03*
X106352500Y-77564800D03*
X105400000Y-75685200D03*
%TD*%
D26*
%TO.C,C14*%
X138400000Y-59425000D03*
X138400000Y-60975000D03*
%TD*%
D16*
%TO.C,H4*%
X151500000Y-109500000D03*
%TD*%
%TO.C,H1*%
X102500000Y-51500000D03*
%TD*%
D23*
%TO.C,R9*%
X101250000Y-77100000D03*
X102900000Y-77100000D03*
%TD*%
D13*
%TO.C,R10*%
X132012500Y-104050000D03*
X132012500Y-105700000D03*
%TD*%
D28*
%TO.C,C11*%
X101400000Y-70412500D03*
X101400000Y-71962500D03*
%TD*%
D26*
%TO.C,C1*%
X113760000Y-56975000D03*
X113760000Y-55425000D03*
%TD*%
D15*
%TO.C,C9*%
X147600000Y-63400000D03*
X146050000Y-63400000D03*
%TD*%
D31*
%TO.C,TH1*%
X127550000Y-88460000D03*
D32*
X127550000Y-93540000D03*
%TD*%
D16*
%TO.C,H3*%
X102500000Y-109500000D03*
%TD*%
D13*
%TO.C,R3*%
X103900000Y-72012500D03*
X103900000Y-70362500D03*
%TD*%
D15*
%TO.C,C13*%
X155575000Y-57750000D03*
X157125000Y-57750000D03*
%TD*%
D33*
%TO.C,R2*%
X111200000Y-66175000D03*
X111200000Y-67825000D03*
%TD*%
D34*
%TO.C,J4*%
X142830000Y-107960000D03*
D35*
X140290000Y-105420000D03*
X140290000Y-110500000D03*
X145370000Y-105420000D03*
X145370000Y-110500000D03*
%TD*%
D33*
%TO.C,R5*%
X111200000Y-70362500D03*
X111200000Y-72012500D03*
%TD*%
D36*
%TO.C,J3*%
X119500000Y-62540000D03*
D37*
X119500000Y-60000000D03*
X119500000Y-57460000D03*
%TD*%
D38*
%TO.C,J2*%
X93300000Y-65000000D03*
D39*
X93300000Y-67000001D03*
X93300000Y-69000000D03*
X93300000Y-71000001D03*
X93300000Y-72999999D03*
X93300000Y-75000000D03*
X93300000Y-76999999D03*
X93300000Y-79000000D03*
%TD*%
D36*
%TO.C,J1*%
X150230000Y-56370000D03*
D37*
X152770000Y-56370000D03*
X150230000Y-58910000D03*
X152770000Y-58910000D03*
X150230000Y-61450000D03*
X152770000Y-61450000D03*
X150230000Y-63990000D03*
X152770000Y-63990000D03*
X150230000Y-66530000D03*
X152770000Y-66530000D03*
X150230000Y-69070000D03*
X152770000Y-69070000D03*
X150230000Y-71610000D03*
X152770000Y-71610000D03*
X150230000Y-74150000D03*
X152770000Y-74150000D03*
X150230000Y-76690000D03*
X152770000Y-76690000D03*
X150230000Y-79230000D03*
X152770000Y-79230000D03*
X150230000Y-81770000D03*
X152770000Y-81770000D03*
X150230000Y-84310000D03*
X152770000Y-84310000D03*
X150230000Y-86850000D03*
X152770000Y-86850000D03*
X150230000Y-89390000D03*
X152770000Y-89390000D03*
X150230000Y-91930000D03*
X152770000Y-91930000D03*
X150230000Y-94470000D03*
X152770000Y-94470000D03*
X150230000Y-97010000D03*
X152770000Y-97010000D03*
X150230000Y-99550000D03*
X152770000Y-99550000D03*
X150230000Y-102090000D03*
X152770000Y-102090000D03*
X150230000Y-104630000D03*
X152770000Y-104630000D03*
%TD*%
M02*
