%TF.GenerationSoftware,KiCad,Pcbnew,7.0.2-0*%
%TF.CreationDate,2023-11-14T22:29:05-08:00*%
%TF.ProjectId,RPi_interface,5250695f-696e-4746-9572-666163652e6b,1.0*%
%TF.SameCoordinates,Original*%
%TF.FileFunction,Copper,L2,Inr*%
%TF.FilePolarity,Positive*%
%FSLAX46Y46*%
G04 Gerber Fmt 4.6, Leading zero omitted, Abs format (unit mm)*
G04 Created by KiCad (PCBNEW 7.0.2-0) date 2023-11-14 22:29:05*
%MOMM*%
%LPD*%
G01*
G04 APERTURE LIST*
%TA.AperFunction,ComponentPad*%
%ADD10C,4.700000*%
%TD*%
%TA.AperFunction,ComponentPad*%
%ADD11C,1.400000*%
%TD*%
%TA.AperFunction,ComponentPad*%
%ADD12O,1.400000X1.400000*%
%TD*%
%TA.AperFunction,ComponentPad*%
%ADD13C,2.050000*%
%TD*%
%TA.AperFunction,ComponentPad*%
%ADD14C,2.250000*%
%TD*%
%TA.AperFunction,ComponentPad*%
%ADD15R,1.700000X1.700000*%
%TD*%
%TA.AperFunction,ComponentPad*%
%ADD16O,1.700000X1.700000*%
%TD*%
%TA.AperFunction,ComponentPad*%
%ADD17R,1.308000X1.308000*%
%TD*%
%TA.AperFunction,ComponentPad*%
%ADD18C,1.308000*%
%TD*%
%TA.AperFunction,ViaPad*%
%ADD19C,0.800000*%
%TD*%
G04 APERTURE END LIST*
D10*
%TO.N,GND*%
%TO.C,H5*%
X102500000Y-86200000D03*
%TD*%
%TO.N,GND*%
%TO.C,H2*%
X151500000Y-51500000D03*
%TD*%
%TO.N,GND*%
%TO.C,H4*%
X151500000Y-109500000D03*
%TD*%
%TO.N,GND*%
%TO.C,H1*%
X102500000Y-51500000D03*
%TD*%
D11*
%TO.N,PyCubed_AIN?*%
%TO.C,TH1*%
X127550000Y-88460000D03*
D12*
%TO.N,GND*%
X127550000Y-93540000D03*
%TD*%
D10*
%TO.N,GND*%
%TO.C,H3*%
X102500000Y-109500000D03*
%TD*%
D13*
%TO.N,Net-(J4-In)*%
%TO.C,J4*%
X135000000Y-108000000D03*
D14*
%TO.N,GND*%
X132460000Y-105460000D03*
X132460000Y-110540000D03*
X137540000Y-105460000D03*
X137540000Y-110540000D03*
%TD*%
D15*
%TO.N,Net-(J3-Pin_1)*%
%TO.C,J3*%
X119500000Y-62540000D03*
D16*
%TO.N,GND*%
X119500000Y-60000000D03*
%TO.N,unconnected-(J3-Pin_3-Pad3)*%
X119500000Y-57460000D03*
%TD*%
D17*
%TO.N,VBATT*%
%TO.C,J2*%
X93300000Y-65000000D03*
D18*
%TO.N,TX*%
X93300000Y-67000001D03*
%TO.N,RX*%
X93300000Y-69000000D03*
%TO.N,GND*%
X93300000Y-71000001D03*
%TO.N,RPI_RST*%
X93300000Y-72999999D03*
%TO.N,PyCubed_AIN?*%
X93300000Y-75000000D03*
%TO.N,ENAB_RPI*%
X93300000Y-76999999D03*
%TO.N,GND*%
X93300000Y-79000000D03*
%TD*%
D15*
%TO.N,unconnected-(J1-Pin_1-Pad1)*%
%TO.C,J1*%
X150230000Y-56370000D03*
D16*
%TO.N,5V*%
X152770000Y-56370000D03*
%TO.N,unconnected-(J1-Pin_3-Pad3)*%
X150230000Y-58910000D03*
%TO.N,5V*%
X152770000Y-58910000D03*
%TO.N,unconnected-(J1-Pin_5-Pad5)*%
X150230000Y-61450000D03*
%TO.N,GND*%
X152770000Y-61450000D03*
%TO.N,unconnected-(J1-Pin_7-Pad7)*%
X150230000Y-63990000D03*
%TO.N,TX*%
X152770000Y-63990000D03*
%TO.N,GND*%
X150230000Y-66530000D03*
%TO.N,RX*%
X152770000Y-66530000D03*
%TO.N,unconnected-(J1-Pin_11-Pad11)*%
X150230000Y-69070000D03*
%TO.N,unconnected-(J1-Pin_12-Pad12)*%
X152770000Y-69070000D03*
%TO.N,ENAB_RF*%
X150230000Y-71610000D03*
%TO.N,GND*%
X152770000Y-71610000D03*
%TO.N,RF_RST*%
X150230000Y-74150000D03*
%TO.N,RF_TX_EN*%
X152770000Y-74150000D03*
%TO.N,unconnected-(J1-Pin_17-Pad17)*%
X150230000Y-76690000D03*
%TO.N,RF_RX_EN*%
X152770000Y-76690000D03*
%TO.N,MOSI*%
X150230000Y-79230000D03*
%TO.N,GND*%
X152770000Y-79230000D03*
%TO.N,MISO*%
X150230000Y-81770000D03*
%TO.N,TCXO_EN*%
X152770000Y-81770000D03*
%TO.N,SCLK*%
X150230000Y-84310000D03*
%TO.N,unconnected-(J1-Pin_24-Pad24)*%
X152770000Y-84310000D03*
%TO.N,GND*%
X150230000Y-86850000D03*
%TO.N,unconnected-(J1-Pin_26-Pad26)*%
X152770000Y-86850000D03*
%TO.N,unconnected-(J1-Pin_27-Pad27)*%
X150230000Y-89390000D03*
%TO.N,unconnected-(J1-Pin_28-Pad28)*%
X152770000Y-89390000D03*
%TO.N,RF_CS*%
X150230000Y-91930000D03*
%TO.N,GND*%
X152770000Y-91930000D03*
%TO.N,unconnected-(J1-Pin_31-Pad31)*%
X150230000Y-94470000D03*
%TO.N,unconnected-(J1-Pin_32-Pad32)*%
X152770000Y-94470000D03*
%TO.N,unconnected-(J1-Pin_33-Pad33)*%
X150230000Y-97010000D03*
%TO.N,GND*%
X152770000Y-97010000D03*
%TO.N,RF_IO1*%
X150230000Y-99550000D03*
%TO.N,unconnected-(J1-Pin_36-Pad36)*%
X152770000Y-99550000D03*
%TO.N,RF_BUSY*%
X150230000Y-102090000D03*
%TO.N,RF_IO2*%
X152770000Y-102090000D03*
%TO.N,GND*%
X150230000Y-104630000D03*
%TO.N,RF_IO3*%
X152770000Y-104630000D03*
%TD*%
D19*
%TO.N,GND*%
X106875000Y-64125000D03*
X157200000Y-54050000D03*
X129100000Y-59300000D03*
X90725000Y-70425000D03*
X139125000Y-92525000D03*
X139125000Y-91575000D03*
X91900000Y-82925000D03*
X99375000Y-69675000D03*
X138250000Y-91575000D03*
X113475000Y-60025000D03*
X90725000Y-69525000D03*
X93825000Y-81175000D03*
X116350000Y-60900000D03*
X129100000Y-60175000D03*
X157200000Y-59150000D03*
X138250000Y-93475000D03*
X93825000Y-82925000D03*
X106875000Y-65000000D03*
X130050000Y-59300000D03*
X138575000Y-54575000D03*
X115400000Y-60900000D03*
X98475000Y-69675000D03*
X116350000Y-59150000D03*
X157200000Y-56550000D03*
X106800000Y-73300000D03*
X92875000Y-81175000D03*
X145550000Y-70350000D03*
X99375000Y-67875000D03*
X99375000Y-66975000D03*
X108775000Y-65875000D03*
X99375000Y-68775000D03*
X116350000Y-60025000D03*
X94775000Y-81175000D03*
X90725000Y-71325000D03*
X92875000Y-82925000D03*
X130050000Y-61050000D03*
X91625000Y-70425000D03*
X130050000Y-60175000D03*
X138575000Y-55525000D03*
X137700000Y-56475000D03*
X138250000Y-92525000D03*
X139125000Y-93475000D03*
X107825000Y-65000000D03*
X137375000Y-91575000D03*
X136825000Y-57450000D03*
X107825000Y-65875000D03*
X107825000Y-64125000D03*
X136825000Y-56475000D03*
X91625000Y-69525000D03*
X113475000Y-59150000D03*
X98475000Y-66975000D03*
X138500000Y-97100000D03*
X113475000Y-60900000D03*
X92875000Y-82050000D03*
X136825000Y-54575000D03*
X137375000Y-93475000D03*
X90725000Y-72225000D03*
X98475000Y-67875000D03*
X137700000Y-54575000D03*
X98475000Y-68775000D03*
X91900000Y-81175000D03*
X114450000Y-60900000D03*
X106875000Y-65875000D03*
X105900000Y-64125000D03*
X105900000Y-65875000D03*
X137375000Y-92525000D03*
X136825000Y-55525000D03*
X115400000Y-59150000D03*
X108775000Y-65000000D03*
X91625000Y-72225000D03*
X105900000Y-65000000D03*
X115400000Y-60025000D03*
X138575000Y-57450000D03*
X108775000Y-64125000D03*
X94775000Y-82925000D03*
X93825000Y-82050000D03*
X94775000Y-82050000D03*
X129100000Y-61050000D03*
X132975000Y-97025000D03*
X114450000Y-59150000D03*
X91900000Y-82050000D03*
X137700000Y-55525000D03*
X114450000Y-60025000D03*
X137375000Y-94450000D03*
X139125000Y-94450000D03*
X91625000Y-71325000D03*
X138250000Y-94450000D03*
X138575000Y-56475000D03*
X137700000Y-57450000D03*
X108800000Y-73300000D03*
%TO.N,5V*%
X107025000Y-56625000D03*
X104000000Y-68900000D03*
X103100000Y-69800000D03*
X106125000Y-57175000D03*
X104000000Y-67950000D03*
X107025000Y-55675000D03*
X106125000Y-56225000D03*
X103100000Y-68850000D03*
%TO.N,VBATT*%
X98800000Y-61000000D03*
X99700000Y-61900000D03*
X99700000Y-61000000D03*
X99700000Y-62800000D03*
X98800000Y-63700000D03*
X130975000Y-49325000D03*
X98800000Y-61900000D03*
X99700000Y-63700000D03*
X130250000Y-48650000D03*
X98800000Y-62800000D03*
%TO.N,Net-(U1-VREG5)*%
X107600000Y-70900000D03*
X111200000Y-73000000D03*
%TO.N,TX*%
X123450000Y-45625000D03*
X143675000Y-48050000D03*
%TO.N,RX*%
X122475000Y-46425000D03*
X142850000Y-48625000D03*
%TO.N,RF_TX_EN*%
X154525000Y-94450000D03*
X144561750Y-96895000D03*
%TO.N,RF_RX_EN*%
X142531750Y-96895000D03*
X154500000Y-92625000D03*
%TO.N,PyCubed_AIN?*%
X99750000Y-78775000D03*
%TO.N,ENAB_RPI*%
X109900000Y-67800000D03*
%TD*%
%TA.AperFunction,Conductor*%
%TO.N,GND*%
G36*
X122623012Y-45020185D02*
G01*
X122668767Y-45072989D01*
X122678711Y-45142147D01*
X122663360Y-45186500D01*
X122622820Y-45256715D01*
X122563652Y-45438818D01*
X122524215Y-45496494D01*
X122459856Y-45523692D01*
X122445721Y-45524500D01*
X122380352Y-45524500D01*
X122195197Y-45563855D01*
X122022269Y-45640848D01*
X121869129Y-45752110D01*
X121742466Y-45892783D01*
X121647820Y-46056715D01*
X121589326Y-46236742D01*
X121569540Y-46424999D01*
X121589326Y-46613257D01*
X121647820Y-46793284D01*
X121742466Y-46957216D01*
X121869129Y-47097889D01*
X122022269Y-47209151D01*
X122195197Y-47286144D01*
X122380352Y-47325500D01*
X122380354Y-47325500D01*
X122569648Y-47325500D01*
X122693084Y-47299262D01*
X122754803Y-47286144D01*
X122927730Y-47209151D01*
X123080871Y-47097888D01*
X123207533Y-46957216D01*
X123302179Y-46793284D01*
X123306498Y-46779993D01*
X123361348Y-46611182D01*
X123400785Y-46553506D01*
X123465144Y-46526308D01*
X123479279Y-46525500D01*
X123544648Y-46525500D01*
X123668084Y-46499262D01*
X123729803Y-46486144D01*
X123902730Y-46409151D01*
X123965470Y-46363568D01*
X124055870Y-46297889D01*
X124182533Y-46157216D01*
X124277179Y-45993284D01*
X124295298Y-45937520D01*
X124335674Y-45813256D01*
X124355460Y-45625000D01*
X124335674Y-45436744D01*
X124284907Y-45280500D01*
X124277179Y-45256715D01*
X124236640Y-45186500D01*
X124220167Y-45118600D01*
X124243019Y-45052573D01*
X124297941Y-45009382D01*
X124344027Y-45000500D01*
X154996755Y-45000500D01*
X155003243Y-45000669D01*
X155133628Y-45007503D01*
X155313910Y-45017628D01*
X155326309Y-45018955D01*
X155475647Y-45042608D01*
X155635321Y-45069737D01*
X155646619Y-45072205D01*
X155796693Y-45112418D01*
X155949188Y-45156351D01*
X155959253Y-45159726D01*
X156104710Y-45215562D01*
X156107599Y-45216714D01*
X156251768Y-45276430D01*
X156260594Y-45280500D01*
X156400064Y-45351565D01*
X156403748Y-45353521D01*
X156493848Y-45403316D01*
X156539548Y-45428574D01*
X156547061Y-45433081D01*
X156678754Y-45518604D01*
X156682947Y-45521452D01*
X156809147Y-45610996D01*
X156815426Y-45615757D01*
X156846411Y-45640849D01*
X156937567Y-45714665D01*
X156942158Y-45718571D01*
X157057424Y-45821579D01*
X157062478Y-45826358D01*
X157173640Y-45937520D01*
X157178419Y-45942574D01*
X157281427Y-46057840D01*
X157285333Y-46062431D01*
X157384239Y-46184570D01*
X157389002Y-46190851D01*
X157478546Y-46317051D01*
X157481409Y-46321266D01*
X157566907Y-46452921D01*
X157571430Y-46460460D01*
X157646477Y-46596250D01*
X157648433Y-46599934D01*
X157719498Y-46739404D01*
X157723575Y-46748247D01*
X157783259Y-46892337D01*
X157784462Y-46895353D01*
X157840265Y-47040727D01*
X157843655Y-47050836D01*
X157887579Y-47203297D01*
X157927793Y-47353379D01*
X157930262Y-47364685D01*
X157957394Y-47524369D01*
X157981040Y-47673670D01*
X157982371Y-47686108D01*
X157992509Y-47866617D01*
X157999330Y-47996756D01*
X157999500Y-48003246D01*
X157999500Y-109996753D01*
X157999330Y-110003243D01*
X157992509Y-110133382D01*
X157982372Y-110313887D01*
X157981040Y-110326331D01*
X157957394Y-110475629D01*
X157930263Y-110635308D01*
X157927791Y-110646624D01*
X157887579Y-110796701D01*
X157843653Y-110949170D01*
X157840268Y-110959263D01*
X157784462Y-111104645D01*
X157783259Y-111107661D01*
X157723575Y-111251751D01*
X157719498Y-111260594D01*
X157648433Y-111400064D01*
X157646477Y-111403748D01*
X157571430Y-111539538D01*
X157566897Y-111547094D01*
X157481412Y-111678728D01*
X157478546Y-111682947D01*
X157389002Y-111809147D01*
X157384239Y-111815428D01*
X157285333Y-111937567D01*
X157281427Y-111942158D01*
X157178419Y-112057424D01*
X157173640Y-112062478D01*
X157062478Y-112173640D01*
X157057424Y-112178419D01*
X156942158Y-112281427D01*
X156937567Y-112285333D01*
X156815428Y-112384239D01*
X156809147Y-112389002D01*
X156682947Y-112478546D01*
X156678728Y-112481412D01*
X156547094Y-112566897D01*
X156539538Y-112571430D01*
X156403748Y-112646477D01*
X156400064Y-112648433D01*
X156260594Y-112719498D01*
X156251751Y-112723575D01*
X156107661Y-112783259D01*
X156104645Y-112784462D01*
X155959271Y-112840265D01*
X155949162Y-112843655D01*
X155796702Y-112887579D01*
X155646619Y-112927793D01*
X155635313Y-112930262D01*
X155475630Y-112957394D01*
X155326328Y-112981040D01*
X155313890Y-112982371D01*
X155133382Y-112992509D01*
X155003244Y-112999330D01*
X154996754Y-112999500D01*
X93003247Y-112999500D01*
X92996757Y-112999330D01*
X92866617Y-112992509D01*
X92686111Y-112982372D01*
X92673666Y-112981040D01*
X92524369Y-112957394D01*
X92364690Y-112930263D01*
X92353374Y-112927791D01*
X92203298Y-112887579D01*
X92050828Y-112843653D01*
X92040735Y-112840268D01*
X91895353Y-112784462D01*
X91892337Y-112783259D01*
X91748247Y-112723575D01*
X91739404Y-112719498D01*
X91599934Y-112648433D01*
X91596250Y-112646477D01*
X91460460Y-112571430D01*
X91452921Y-112566907D01*
X91321266Y-112481409D01*
X91317051Y-112478546D01*
X91190851Y-112389002D01*
X91184570Y-112384239D01*
X91062431Y-112285333D01*
X91057840Y-112281427D01*
X90942574Y-112178419D01*
X90937520Y-112173640D01*
X90826358Y-112062478D01*
X90821579Y-112057424D01*
X90718571Y-111942158D01*
X90714665Y-111937567D01*
X90650814Y-111858718D01*
X90615757Y-111815426D01*
X90610996Y-111809147D01*
X90521452Y-111682947D01*
X90518604Y-111678754D01*
X90433081Y-111547061D01*
X90428568Y-111539538D01*
X90353521Y-111403748D01*
X90351565Y-111400064D01*
X90280500Y-111260594D01*
X90276430Y-111251768D01*
X90216714Y-111107599D01*
X90215562Y-111104710D01*
X90159729Y-110959260D01*
X90156346Y-110949170D01*
X90112414Y-110796679D01*
X90072202Y-110646605D01*
X90069738Y-110635323D01*
X90042601Y-110475606D01*
X90018956Y-110326316D01*
X90017627Y-110313890D01*
X90010470Y-110186446D01*
X90007490Y-110133382D01*
X90001469Y-110018506D01*
X90001302Y-110012062D01*
X90001307Y-110000000D01*
X90001495Y-109503605D01*
X99645380Y-109503605D01*
X99664262Y-109827812D01*
X99665101Y-109834991D01*
X99721494Y-110154811D01*
X99723156Y-110161824D01*
X99816305Y-110472963D01*
X99818761Y-110479712D01*
X99947402Y-110777934D01*
X99950635Y-110784370D01*
X100113016Y-111065623D01*
X100116982Y-111071654D01*
X100312358Y-111334088D01*
X101385073Y-110261372D01*
X101461890Y-110371078D01*
X101628922Y-110538110D01*
X101738626Y-110614925D01*
X100669289Y-111684261D01*
X100669290Y-111684262D01*
X100792441Y-111787598D01*
X100798239Y-111791915D01*
X101069565Y-111970369D01*
X101075814Y-111973976D01*
X101366022Y-112119725D01*
X101372661Y-112122588D01*
X101677838Y-112233664D01*
X101684728Y-112235727D01*
X102000768Y-112310630D01*
X102007834Y-112311876D01*
X102330435Y-112349582D01*
X102337605Y-112350000D01*
X102662395Y-112350000D01*
X102669564Y-112349582D01*
X102992165Y-112311876D01*
X102999231Y-112310630D01*
X103315271Y-112235727D01*
X103322161Y-112233664D01*
X103627338Y-112122588D01*
X103633977Y-112119725D01*
X103924185Y-111973976D01*
X103930434Y-111970369D01*
X104201760Y-111791915D01*
X104207558Y-111787598D01*
X104330708Y-111684262D01*
X104330709Y-111684261D01*
X103261373Y-110614925D01*
X103371078Y-110538110D01*
X103538110Y-110371078D01*
X103614926Y-110261373D01*
X104687640Y-111334088D01*
X104883017Y-111071654D01*
X104886983Y-111065623D01*
X105049364Y-110784370D01*
X105052597Y-110777934D01*
X105155233Y-110539999D01*
X130829975Y-110539999D01*
X130850043Y-110794993D01*
X130909753Y-111043705D01*
X131007636Y-111280012D01*
X131141284Y-111498108D01*
X131144533Y-111501911D01*
X131144535Y-111501911D01*
X131708766Y-110937679D01*
X131752316Y-111019822D01*
X131872009Y-111160735D01*
X132019195Y-111272623D01*
X132061402Y-111292150D01*
X131498087Y-111855464D01*
X131498087Y-111855465D01*
X131501895Y-111858718D01*
X131719982Y-111992361D01*
X131956294Y-112090246D01*
X132205006Y-112149956D01*
X132459999Y-112170024D01*
X132714993Y-112149956D01*
X132963705Y-112090246D01*
X133200012Y-111992363D01*
X133418108Y-111858715D01*
X133421911Y-111855465D01*
X133421912Y-111855464D01*
X132858609Y-111292161D01*
X132977431Y-111220669D01*
X133111658Y-111093523D01*
X133214861Y-110941308D01*
X133775464Y-111501912D01*
X133775465Y-111501911D01*
X133778715Y-111498108D01*
X133912363Y-111280012D01*
X134010246Y-111043705D01*
X134069956Y-110794993D01*
X134090024Y-110539999D01*
X135909975Y-110539999D01*
X135930043Y-110794993D01*
X135989753Y-111043705D01*
X136087636Y-111280012D01*
X136221284Y-111498108D01*
X136224533Y-111501911D01*
X136224535Y-111501911D01*
X136788766Y-110937679D01*
X136832316Y-111019822D01*
X136952009Y-111160735D01*
X137099195Y-111272623D01*
X137141402Y-111292150D01*
X136578087Y-111855464D01*
X136578087Y-111855465D01*
X136581895Y-111858718D01*
X136799982Y-111992361D01*
X137036294Y-112090246D01*
X137285006Y-112149956D01*
X137540000Y-112170024D01*
X137794993Y-112149956D01*
X138043705Y-112090246D01*
X138280012Y-111992363D01*
X138498108Y-111858715D01*
X138501911Y-111855465D01*
X138501912Y-111855464D01*
X137938609Y-111292161D01*
X138057431Y-111220669D01*
X138191658Y-111093523D01*
X138294861Y-110941309D01*
X138855464Y-111501912D01*
X138855465Y-111501911D01*
X138858715Y-111498108D01*
X138992363Y-111280012D01*
X139090246Y-111043705D01*
X139149956Y-110794993D01*
X139170024Y-110539999D01*
X139149956Y-110285006D01*
X139090246Y-110036294D01*
X138992361Y-109799982D01*
X138858718Y-109581895D01*
X138855465Y-109578087D01*
X138855464Y-109578087D01*
X138291232Y-110142319D01*
X138247684Y-110060178D01*
X138127991Y-109919265D01*
X137980805Y-109807377D01*
X137938597Y-109787849D01*
X138222841Y-109503605D01*
X148645380Y-109503605D01*
X148664262Y-109827812D01*
X148665101Y-109834991D01*
X148721494Y-110154811D01*
X148723156Y-110161824D01*
X148816305Y-110472963D01*
X148818761Y-110479712D01*
X148947402Y-110777934D01*
X148950635Y-110784370D01*
X149113016Y-111065623D01*
X149116982Y-111071654D01*
X149312358Y-111334088D01*
X150385073Y-110261372D01*
X150461890Y-110371078D01*
X150628922Y-110538110D01*
X150738626Y-110614925D01*
X149669289Y-111684261D01*
X149669290Y-111684262D01*
X149792441Y-111787598D01*
X149798239Y-111791915D01*
X150069565Y-111970369D01*
X150075814Y-111973976D01*
X150366022Y-112119725D01*
X150372661Y-112122588D01*
X150677838Y-112233664D01*
X150684728Y-112235727D01*
X151000768Y-112310630D01*
X151007834Y-112311876D01*
X151330435Y-112349582D01*
X151337605Y-112350000D01*
X151662395Y-112350000D01*
X151669564Y-112349582D01*
X151992165Y-112311876D01*
X151999231Y-112310630D01*
X152315271Y-112235727D01*
X152322161Y-112233664D01*
X152627338Y-112122588D01*
X152633977Y-112119725D01*
X152924185Y-111973976D01*
X152930434Y-111970369D01*
X153201760Y-111791915D01*
X153207558Y-111787598D01*
X153330708Y-111684262D01*
X153330709Y-111684261D01*
X152261373Y-110614925D01*
X152371078Y-110538110D01*
X152538110Y-110371078D01*
X152614926Y-110261373D01*
X153687640Y-111334088D01*
X153883017Y-111071654D01*
X153886983Y-111065623D01*
X154049364Y-110784370D01*
X154052597Y-110777934D01*
X154181238Y-110479712D01*
X154183694Y-110472963D01*
X154276843Y-110161824D01*
X154278505Y-110154811D01*
X154334898Y-109834991D01*
X154335737Y-109827812D01*
X154354620Y-109503605D01*
X154354620Y-109496394D01*
X154335737Y-109172187D01*
X154334898Y-109165008D01*
X154278505Y-108845188D01*
X154276843Y-108838175D01*
X154183694Y-108527036D01*
X154181238Y-108520287D01*
X154052597Y-108222065D01*
X154049364Y-108215629D01*
X153886983Y-107934376D01*
X153883017Y-107928345D01*
X153687640Y-107665910D01*
X152614925Y-108738625D01*
X152538110Y-108628922D01*
X152371078Y-108461890D01*
X152261372Y-108385073D01*
X153330709Y-107315737D01*
X153330708Y-107315736D01*
X153207558Y-107212401D01*
X153201760Y-107208084D01*
X152930434Y-107029630D01*
X152924185Y-107026023D01*
X152633977Y-106880274D01*
X152627338Y-106877411D01*
X152322161Y-106766335D01*
X152315271Y-106764272D01*
X151999231Y-106689369D01*
X151992165Y-106688123D01*
X151669564Y-106650417D01*
X151662395Y-106650000D01*
X151337605Y-106650000D01*
X151330435Y-106650417D01*
X151007834Y-106688123D01*
X151000768Y-106689369D01*
X150684728Y-106764272D01*
X150677838Y-106766335D01*
X150372661Y-106877411D01*
X150366022Y-106880274D01*
X150075814Y-107026023D01*
X150069565Y-107029630D01*
X149798241Y-107208083D01*
X149792440Y-107212402D01*
X149669289Y-107315736D01*
X149669289Y-107315737D01*
X150738625Y-108385074D01*
X150628922Y-108461890D01*
X150461890Y-108628922D01*
X150385074Y-108738625D01*
X149312357Y-107665910D01*
X149116983Y-107928344D01*
X149113016Y-107934376D01*
X148950635Y-108215629D01*
X148947402Y-108222065D01*
X148818761Y-108520287D01*
X148816305Y-108527036D01*
X148723156Y-108838175D01*
X148721494Y-108845188D01*
X148665101Y-109165008D01*
X148664262Y-109172187D01*
X148645380Y-109496394D01*
X148645380Y-109503605D01*
X138222841Y-109503605D01*
X138501911Y-109224535D01*
X138501911Y-109224533D01*
X138498108Y-109221284D01*
X138280012Y-109087636D01*
X138043705Y-108989753D01*
X137794993Y-108930043D01*
X137539999Y-108909975D01*
X137285006Y-108930043D01*
X137036294Y-108989753D01*
X136799982Y-109087638D01*
X136581895Y-109221281D01*
X136578087Y-109224533D01*
X136578087Y-109224534D01*
X137141390Y-109787837D01*
X137022569Y-109859331D01*
X136888342Y-109986477D01*
X136785138Y-110138691D01*
X136224534Y-109578087D01*
X136224533Y-109578087D01*
X136221281Y-109581895D01*
X136087638Y-109799982D01*
X135989753Y-110036294D01*
X135930043Y-110285006D01*
X135909975Y-110539999D01*
X134090024Y-110539999D01*
X134069956Y-110285006D01*
X134010246Y-110036294D01*
X133912361Y-109799982D01*
X133778718Y-109581895D01*
X133775465Y-109578087D01*
X133775464Y-109578087D01*
X133211232Y-110142318D01*
X133167684Y-110060178D01*
X133047991Y-109919265D01*
X132900805Y-109807377D01*
X132858596Y-109787849D01*
X133421911Y-109224535D01*
X133421911Y-109224533D01*
X133418108Y-109221284D01*
X133200012Y-109087636D01*
X132963705Y-108989753D01*
X132714993Y-108930043D01*
X132459999Y-108909975D01*
X132205006Y-108930043D01*
X131956294Y-108989753D01*
X131719982Y-109087638D01*
X131501895Y-109221281D01*
X131498087Y-109224533D01*
X132061391Y-109787837D01*
X131942569Y-109859331D01*
X131808342Y-109986477D01*
X131705138Y-110138691D01*
X131144534Y-109578087D01*
X131144533Y-109578087D01*
X131141281Y-109581895D01*
X131007638Y-109799982D01*
X130909753Y-110036294D01*
X130850043Y-110285006D01*
X130829975Y-110539999D01*
X105155233Y-110539999D01*
X105181238Y-110479712D01*
X105183694Y-110472963D01*
X105276843Y-110161824D01*
X105278505Y-110154811D01*
X105334898Y-109834991D01*
X105335737Y-109827812D01*
X105354620Y-109503605D01*
X105354620Y-109496394D01*
X105335737Y-109172187D01*
X105334898Y-109165008D01*
X105278505Y-108845188D01*
X105276843Y-108838175D01*
X105183694Y-108527036D01*
X105181238Y-108520287D01*
X105052597Y-108222065D01*
X105049364Y-108215629D01*
X104924870Y-107999999D01*
X133469783Y-107999999D01*
X133488623Y-108239380D01*
X133544676Y-108472863D01*
X133567116Y-108527036D01*
X133636567Y-108694704D01*
X133762028Y-108899439D01*
X133917973Y-109082027D01*
X134100561Y-109237972D01*
X134305296Y-109363433D01*
X134462160Y-109428408D01*
X134527136Y-109455323D01*
X134600898Y-109473031D01*
X134760621Y-109511377D01*
X135000000Y-109530217D01*
X135239379Y-109511377D01*
X135472863Y-109455323D01*
X135694704Y-109363433D01*
X135899439Y-109237972D01*
X136082027Y-109082027D01*
X136237972Y-108899439D01*
X136363433Y-108694704D01*
X136455323Y-108472863D01*
X136511377Y-108239379D01*
X136530217Y-108000000D01*
X136511377Y-107760621D01*
X136455323Y-107527137D01*
X136363433Y-107305296D01*
X136237972Y-107100561D01*
X136082027Y-106917973D01*
X135899439Y-106762028D01*
X135694704Y-106636567D01*
X135629727Y-106609652D01*
X135472863Y-106544676D01*
X135239380Y-106488623D01*
X135000000Y-106469783D01*
X134760619Y-106488623D01*
X134527136Y-106544676D01*
X134305296Y-106636567D01*
X134100560Y-106762028D01*
X133917973Y-106917973D01*
X133762028Y-107100560D01*
X133636567Y-107305296D01*
X133544676Y-107527136D01*
X133488623Y-107760619D01*
X133469783Y-107999999D01*
X104924870Y-107999999D01*
X104886983Y-107934376D01*
X104883017Y-107928345D01*
X104687640Y-107665910D01*
X103614925Y-108738625D01*
X103538110Y-108628922D01*
X103371078Y-108461890D01*
X103261372Y-108385073D01*
X104330709Y-107315737D01*
X104330708Y-107315736D01*
X104207558Y-107212401D01*
X104201760Y-107208084D01*
X103930434Y-107029630D01*
X103924185Y-107026023D01*
X103633977Y-106880274D01*
X103627338Y-106877411D01*
X103322161Y-106766335D01*
X103315271Y-106764272D01*
X102999231Y-106689369D01*
X102992165Y-106688123D01*
X102669564Y-106650417D01*
X102662395Y-106650000D01*
X102337605Y-106650000D01*
X102330435Y-106650417D01*
X102007834Y-106688123D01*
X102000768Y-106689369D01*
X101684728Y-106764272D01*
X101677838Y-106766335D01*
X101372661Y-106877411D01*
X101366022Y-106880274D01*
X101075814Y-107026023D01*
X101069565Y-107029630D01*
X100798241Y-107208083D01*
X100792440Y-107212402D01*
X100669289Y-107315736D01*
X100669289Y-107315737D01*
X101738625Y-108385074D01*
X101628922Y-108461890D01*
X101461890Y-108628922D01*
X101385074Y-108738625D01*
X100312357Y-107665910D01*
X100116983Y-107928344D01*
X100113016Y-107934376D01*
X99950635Y-108215629D01*
X99947402Y-108222065D01*
X99818761Y-108520287D01*
X99816305Y-108527036D01*
X99723156Y-108838175D01*
X99721494Y-108845188D01*
X99665101Y-109165008D01*
X99664262Y-109172187D01*
X99645380Y-109496394D01*
X99645380Y-109503605D01*
X90001495Y-109503605D01*
X90003027Y-105460000D01*
X130829975Y-105460000D01*
X130850043Y-105714993D01*
X130909753Y-105963705D01*
X131007636Y-106200012D01*
X131141284Y-106418108D01*
X131144533Y-106421911D01*
X131144535Y-106421911D01*
X131708766Y-105857679D01*
X131752316Y-105939822D01*
X131872009Y-106080735D01*
X132019195Y-106192623D01*
X132061402Y-106212150D01*
X131498087Y-106775464D01*
X131498087Y-106775465D01*
X131501895Y-106778718D01*
X131719982Y-106912361D01*
X131956294Y-107010246D01*
X132205006Y-107069956D01*
X132459999Y-107090024D01*
X132714993Y-107069956D01*
X132963705Y-107010246D01*
X133200012Y-106912363D01*
X133418108Y-106778715D01*
X133421911Y-106775465D01*
X133421912Y-106775464D01*
X132858609Y-106212161D01*
X132977431Y-106140669D01*
X133111658Y-106013523D01*
X133214861Y-105861309D01*
X133775464Y-106421912D01*
X133775465Y-106421911D01*
X133778715Y-106418108D01*
X133912363Y-106200012D01*
X134010246Y-105963705D01*
X134069956Y-105714993D01*
X134090024Y-105460000D01*
X135909975Y-105460000D01*
X135930043Y-105714993D01*
X135989753Y-105963705D01*
X136087636Y-106200012D01*
X136221284Y-106418108D01*
X136224533Y-106421911D01*
X136224535Y-106421911D01*
X136788766Y-105857679D01*
X136832316Y-105939822D01*
X136952009Y-106080735D01*
X137099195Y-106192623D01*
X137141402Y-106212150D01*
X136578087Y-106775464D01*
X136578087Y-106775465D01*
X136581895Y-106778718D01*
X136799982Y-106912361D01*
X137036294Y-107010246D01*
X137285006Y-107069956D01*
X137539999Y-107090024D01*
X137794993Y-107069956D01*
X138043705Y-107010246D01*
X138280012Y-106912363D01*
X138498108Y-106778715D01*
X138501911Y-106775465D01*
X138501912Y-106775464D01*
X137938609Y-106212161D01*
X138057431Y-106140669D01*
X138191658Y-106013523D01*
X138294861Y-105861309D01*
X138855464Y-106421912D01*
X138855465Y-106421911D01*
X138858715Y-106418108D01*
X138992363Y-106200012D01*
X139090246Y-105963705D01*
X139149956Y-105714993D01*
X139170024Y-105460000D01*
X139149956Y-105205006D01*
X139090246Y-104956294D01*
X138992361Y-104719982D01*
X138858718Y-104501895D01*
X138855465Y-104498087D01*
X138855464Y-104498087D01*
X138291232Y-105062319D01*
X138247684Y-104980178D01*
X138127991Y-104839265D01*
X137980805Y-104727377D01*
X137938597Y-104707849D01*
X138501911Y-104144535D01*
X138501911Y-104144533D01*
X138498108Y-104141284D01*
X138280012Y-104007636D01*
X138043705Y-103909753D01*
X137794993Y-103850043D01*
X137539999Y-103829975D01*
X137285006Y-103850043D01*
X137036294Y-103909753D01*
X136799982Y-104007638D01*
X136581895Y-104141281D01*
X136578087Y-104144533D01*
X136578087Y-104144534D01*
X137141390Y-104707837D01*
X137022569Y-104779331D01*
X136888342Y-104906477D01*
X136785138Y-105058691D01*
X136224534Y-104498087D01*
X136224533Y-104498087D01*
X136221281Y-104501895D01*
X136087638Y-104719982D01*
X135989753Y-104956294D01*
X135930043Y-105205006D01*
X135909975Y-105460000D01*
X134090024Y-105460000D01*
X134069956Y-105205006D01*
X134010246Y-104956294D01*
X133912361Y-104719982D01*
X133778718Y-104501895D01*
X133775465Y-104498087D01*
X133775464Y-104498087D01*
X133211232Y-105062319D01*
X133167684Y-104980178D01*
X133047991Y-104839265D01*
X132900805Y-104727377D01*
X132858596Y-104707849D01*
X133421911Y-104144535D01*
X133421911Y-104144533D01*
X133418108Y-104141284D01*
X133200012Y-104007636D01*
X132963705Y-103909753D01*
X132714993Y-103850043D01*
X132459999Y-103829975D01*
X132205006Y-103850043D01*
X131956294Y-103909753D01*
X131719982Y-104007638D01*
X131501895Y-104141281D01*
X131498087Y-104144533D01*
X131498087Y-104144534D01*
X132061390Y-104707838D01*
X131942569Y-104779331D01*
X131808342Y-104906477D01*
X131705138Y-105058691D01*
X131144534Y-104498087D01*
X131144533Y-104498087D01*
X131141281Y-104501895D01*
X131007638Y-104719982D01*
X130909753Y-104956294D01*
X130850043Y-105205006D01*
X130829975Y-105460000D01*
X90003027Y-105460000D01*
X90004304Y-102089999D01*
X148874340Y-102089999D01*
X148894936Y-102325407D01*
X148939709Y-102492501D01*
X148956097Y-102553663D01*
X149055965Y-102767830D01*
X149191505Y-102961401D01*
X149358599Y-103128495D01*
X149544596Y-103258732D01*
X149588219Y-103313307D01*
X149595412Y-103382806D01*
X149563890Y-103445160D01*
X149544595Y-103461880D01*
X149358919Y-103591892D01*
X149191890Y-103758921D01*
X149056400Y-103952421D01*
X148956569Y-104166507D01*
X148899364Y-104379999D01*
X148899364Y-104380000D01*
X149796314Y-104380000D01*
X149770507Y-104420156D01*
X149730000Y-104558111D01*
X149730000Y-104701889D01*
X149770507Y-104839844D01*
X149796314Y-104880000D01*
X148899364Y-104880000D01*
X148956569Y-105093492D01*
X149056399Y-105307576D01*
X149191893Y-105501081D01*
X149358918Y-105668106D01*
X149552423Y-105803600D01*
X149766509Y-105903430D01*
X149980000Y-105960634D01*
X149980000Y-105065501D01*
X150087685Y-105114680D01*
X150194237Y-105130000D01*
X150265763Y-105130000D01*
X150372315Y-105114680D01*
X150480000Y-105065501D01*
X150480000Y-105960633D01*
X150693490Y-105903430D01*
X150907576Y-105803600D01*
X151101081Y-105668106D01*
X151268109Y-105501078D01*
X151398119Y-105315405D01*
X151452696Y-105271780D01*
X151522194Y-105264586D01*
X151584549Y-105296109D01*
X151601265Y-105315400D01*
X151731505Y-105501401D01*
X151898599Y-105668495D01*
X152092170Y-105804035D01*
X152306337Y-105903903D01*
X152534592Y-105965063D01*
X152770000Y-105985659D01*
X153005408Y-105965063D01*
X153233663Y-105903903D01*
X153447830Y-105804035D01*
X153641401Y-105668495D01*
X153808495Y-105501401D01*
X153944035Y-105307830D01*
X154043903Y-105093663D01*
X154105063Y-104865408D01*
X154125659Y-104630000D01*
X154105063Y-104394592D01*
X154043903Y-104166337D01*
X153944035Y-103952171D01*
X153808495Y-103758599D01*
X153641401Y-103591505D01*
X153455839Y-103461573D01*
X153412216Y-103406998D01*
X153405022Y-103337500D01*
X153436545Y-103275145D01*
X153455837Y-103258428D01*
X153641401Y-103128495D01*
X153808495Y-102961401D01*
X153944035Y-102767830D01*
X154043903Y-102553663D01*
X154105063Y-102325408D01*
X154125659Y-102090000D01*
X154105063Y-101854592D01*
X154043903Y-101626337D01*
X153944035Y-101412171D01*
X153808495Y-101218599D01*
X153641401Y-101051505D01*
X153455839Y-100921573D01*
X153412216Y-100866998D01*
X153405022Y-100797500D01*
X153436545Y-100735145D01*
X153455837Y-100718428D01*
X153641401Y-100588495D01*
X153808495Y-100421401D01*
X153944035Y-100227830D01*
X154043903Y-100013663D01*
X154105063Y-99785408D01*
X154125659Y-99550000D01*
X154105063Y-99314592D01*
X154043903Y-99086337D01*
X153944035Y-98872171D01*
X153808495Y-98678599D01*
X153641401Y-98511505D01*
X153455402Y-98381267D01*
X153411780Y-98326692D01*
X153404587Y-98257193D01*
X153436109Y-98194839D01*
X153455405Y-98178119D01*
X153641078Y-98048109D01*
X153808106Y-97881081D01*
X153943600Y-97687576D01*
X154043430Y-97473492D01*
X154100636Y-97260000D01*
X153203686Y-97260000D01*
X153229493Y-97219844D01*
X153270000Y-97081889D01*
X153270000Y-96938111D01*
X153229493Y-96800156D01*
X153203686Y-96760000D01*
X154100636Y-96760000D01*
X154100635Y-96759999D01*
X154043430Y-96546507D01*
X153943599Y-96332421D01*
X153808109Y-96138921D01*
X153641081Y-95971893D01*
X153455404Y-95841880D01*
X153411780Y-95787303D01*
X153404587Y-95717804D01*
X153436109Y-95655450D01*
X153455399Y-95638734D01*
X153641401Y-95508495D01*
X153808495Y-95341401D01*
X153874838Y-95246653D01*
X153929413Y-95203030D01*
X153998911Y-95195836D01*
X154049297Y-95217461D01*
X154072269Y-95234151D01*
X154245197Y-95311144D01*
X154430352Y-95350500D01*
X154430354Y-95350500D01*
X154619648Y-95350500D01*
X154743084Y-95324262D01*
X154804803Y-95311144D01*
X154977730Y-95234151D01*
X155085515Y-95155841D01*
X155130870Y-95122889D01*
X155257533Y-94982216D01*
X155352179Y-94818284D01*
X155386046Y-94714052D01*
X155410674Y-94638256D01*
X155430460Y-94450000D01*
X155410674Y-94261744D01*
X155352179Y-94081716D01*
X155352179Y-94081715D01*
X155257533Y-93917783D01*
X155130870Y-93777110D01*
X154977730Y-93665848D01*
X154931384Y-93645213D01*
X154878147Y-93599963D01*
X154857826Y-93533114D01*
X154876872Y-93465890D01*
X154929238Y-93419635D01*
X154931333Y-93418677D01*
X154952730Y-93409151D01*
X155039759Y-93345921D01*
X155105870Y-93297889D01*
X155117882Y-93284549D01*
X155232533Y-93157216D01*
X155327179Y-92993284D01*
X155385674Y-92813256D01*
X155405460Y-92625000D01*
X155385674Y-92436744D01*
X155355332Y-92343363D01*
X155327179Y-92256715D01*
X155232533Y-92092783D01*
X155105870Y-91952110D01*
X154952730Y-91840848D01*
X154779802Y-91763855D01*
X154594648Y-91724500D01*
X154594646Y-91724500D01*
X154405354Y-91724500D01*
X154405351Y-91724500D01*
X154243436Y-91758915D01*
X154173769Y-91753599D01*
X154118036Y-91711461D01*
X154097881Y-91669719D01*
X154043430Y-91466507D01*
X153943599Y-91252421D01*
X153808109Y-91058921D01*
X153641081Y-90891893D01*
X153455404Y-90761880D01*
X153411780Y-90707303D01*
X153404587Y-90637804D01*
X153436109Y-90575450D01*
X153455399Y-90558734D01*
X153641401Y-90428495D01*
X153808495Y-90261401D01*
X153944035Y-90067830D01*
X154043903Y-89853663D01*
X154105063Y-89625408D01*
X154125659Y-89390000D01*
X154105063Y-89154592D01*
X154043903Y-88926337D01*
X153944035Y-88712171D01*
X153808495Y-88518599D01*
X153641401Y-88351505D01*
X153455839Y-88221573D01*
X153412216Y-88166998D01*
X153405022Y-88097500D01*
X153436545Y-88035145D01*
X153455837Y-88018428D01*
X153641401Y-87888495D01*
X153808495Y-87721401D01*
X153944035Y-87527830D01*
X154043903Y-87313663D01*
X154105063Y-87085408D01*
X154125659Y-86850000D01*
X154105063Y-86614592D01*
X154043903Y-86386337D01*
X153944035Y-86172171D01*
X153808495Y-85978599D01*
X153641401Y-85811505D01*
X153455839Y-85681573D01*
X153412216Y-85626998D01*
X153405022Y-85557500D01*
X153436545Y-85495145D01*
X153455837Y-85478428D01*
X153641401Y-85348495D01*
X153808495Y-85181401D01*
X153944035Y-84987830D01*
X154043903Y-84773663D01*
X154105063Y-84545408D01*
X154125659Y-84310000D01*
X154105063Y-84074592D01*
X154043903Y-83846337D01*
X153944035Y-83632171D01*
X153808495Y-83438599D01*
X153641401Y-83271505D01*
X153455839Y-83141573D01*
X153412216Y-83086998D01*
X153405022Y-83017500D01*
X153436545Y-82955145D01*
X153455837Y-82938428D01*
X153641401Y-82808495D01*
X153808495Y-82641401D01*
X153944035Y-82447830D01*
X154043903Y-82233663D01*
X154105063Y-82005408D01*
X154125659Y-81770000D01*
X154105063Y-81534592D01*
X154043903Y-81306337D01*
X153944035Y-81092171D01*
X153808495Y-80898599D01*
X153641401Y-80731505D01*
X153455402Y-80601267D01*
X153411780Y-80546692D01*
X153404587Y-80477193D01*
X153436109Y-80414839D01*
X153455405Y-80398119D01*
X153641078Y-80268109D01*
X153808106Y-80101081D01*
X153943600Y-79907576D01*
X154043430Y-79693492D01*
X154100636Y-79480000D01*
X153203686Y-79480000D01*
X153229493Y-79439844D01*
X153270000Y-79301889D01*
X153270000Y-79158111D01*
X153229493Y-79020156D01*
X153203686Y-78980000D01*
X154100636Y-78980000D01*
X154100635Y-78979999D01*
X154043430Y-78766507D01*
X153943599Y-78552421D01*
X153808109Y-78358921D01*
X153641081Y-78191893D01*
X153455404Y-78061880D01*
X153411780Y-78007303D01*
X153404587Y-77937804D01*
X153436109Y-77875450D01*
X153455399Y-77858734D01*
X153641401Y-77728495D01*
X153808495Y-77561401D01*
X153944035Y-77367830D01*
X154043903Y-77153663D01*
X154105063Y-76925408D01*
X154125659Y-76690000D01*
X154105063Y-76454592D01*
X154043903Y-76226337D01*
X153944035Y-76012171D01*
X153808495Y-75818599D01*
X153641401Y-75651505D01*
X153455839Y-75521573D01*
X153412216Y-75466998D01*
X153405022Y-75397500D01*
X153436545Y-75335145D01*
X153455837Y-75318428D01*
X153641401Y-75188495D01*
X153808495Y-75021401D01*
X153944035Y-74827830D01*
X154043903Y-74613663D01*
X154105063Y-74385408D01*
X154125659Y-74150000D01*
X154105063Y-73914592D01*
X154043903Y-73686337D01*
X153944035Y-73472171D01*
X153808495Y-73278599D01*
X153641401Y-73111505D01*
X153455402Y-72981267D01*
X153411780Y-72926692D01*
X153404587Y-72857193D01*
X153436109Y-72794839D01*
X153455405Y-72778119D01*
X153641078Y-72648109D01*
X153808106Y-72481081D01*
X153943600Y-72287576D01*
X154043430Y-72073492D01*
X154100636Y-71860000D01*
X153203686Y-71860000D01*
X153229493Y-71819844D01*
X153270000Y-71681889D01*
X153270000Y-71538111D01*
X153229493Y-71400156D01*
X153203686Y-71360000D01*
X154100636Y-71360000D01*
X154100635Y-71359999D01*
X154043430Y-71146507D01*
X153943599Y-70932421D01*
X153808109Y-70738921D01*
X153641081Y-70571893D01*
X153455404Y-70441880D01*
X153411780Y-70387303D01*
X153404587Y-70317804D01*
X153436109Y-70255450D01*
X153455399Y-70238734D01*
X153641401Y-70108495D01*
X153808495Y-69941401D01*
X153944035Y-69747830D01*
X154043903Y-69533663D01*
X154105063Y-69305408D01*
X154125659Y-69070000D01*
X154105063Y-68834592D01*
X154043903Y-68606337D01*
X153944035Y-68392171D01*
X153808495Y-68198599D01*
X153641401Y-68031505D01*
X153455839Y-67901573D01*
X153412215Y-67846997D01*
X153405023Y-67777498D01*
X153436545Y-67715144D01*
X153455831Y-67698432D01*
X153641401Y-67568495D01*
X153808495Y-67401401D01*
X153944035Y-67207830D01*
X154043903Y-66993663D01*
X154105063Y-66765408D01*
X154125659Y-66530000D01*
X154105063Y-66294592D01*
X154043903Y-66066337D01*
X153944035Y-65852171D01*
X153808495Y-65658599D01*
X153641401Y-65491505D01*
X153455839Y-65361573D01*
X153412217Y-65306998D01*
X153405024Y-65237499D01*
X153436546Y-65175145D01*
X153455837Y-65158428D01*
X153641401Y-65028495D01*
X153808495Y-64861401D01*
X153944035Y-64667830D01*
X154043903Y-64453663D01*
X154105063Y-64225408D01*
X154125659Y-63990000D01*
X154105063Y-63754592D01*
X154043903Y-63526337D01*
X153944035Y-63312171D01*
X153808495Y-63118599D01*
X153641401Y-62951505D01*
X153455402Y-62821267D01*
X153411780Y-62766692D01*
X153404587Y-62697193D01*
X153436109Y-62634839D01*
X153455405Y-62618119D01*
X153641078Y-62488109D01*
X153808106Y-62321081D01*
X153943600Y-62127576D01*
X154043430Y-61913492D01*
X154100636Y-61700000D01*
X153203686Y-61700000D01*
X153229493Y-61659844D01*
X153270000Y-61521889D01*
X153270000Y-61378111D01*
X153229493Y-61240156D01*
X153203686Y-61200000D01*
X154100636Y-61200000D01*
X154100635Y-61199999D01*
X154043430Y-60986507D01*
X153943599Y-60772421D01*
X153808109Y-60578921D01*
X153641081Y-60411893D01*
X153455404Y-60281880D01*
X153411780Y-60227303D01*
X153404587Y-60157804D01*
X153436109Y-60095450D01*
X153455399Y-60078734D01*
X153641401Y-59948495D01*
X153808495Y-59781401D01*
X153944035Y-59587830D01*
X154043903Y-59373663D01*
X154105063Y-59145408D01*
X154125659Y-58910000D01*
X154105063Y-58674592D01*
X154043903Y-58446337D01*
X153944035Y-58232171D01*
X153808495Y-58038599D01*
X153641401Y-57871505D01*
X153455839Y-57741573D01*
X153412215Y-57686997D01*
X153405023Y-57617498D01*
X153436545Y-57555144D01*
X153455831Y-57538432D01*
X153641401Y-57408495D01*
X153808495Y-57241401D01*
X153944035Y-57047830D01*
X154043903Y-56833663D01*
X154105063Y-56605408D01*
X154125659Y-56370000D01*
X154105063Y-56134592D01*
X154043903Y-55906337D01*
X153944035Y-55692171D01*
X153808495Y-55498599D01*
X153641401Y-55331505D01*
X153447830Y-55195965D01*
X153233663Y-55096097D01*
X153172501Y-55079709D01*
X153005407Y-55034936D01*
X152770000Y-55014340D01*
X152534592Y-55034936D01*
X152306336Y-55096097D01*
X152092170Y-55195965D01*
X151898601Y-55331503D01*
X151776673Y-55453431D01*
X151715350Y-55486915D01*
X151645658Y-55481931D01*
X151589725Y-55440059D01*
X151572810Y-55409082D01*
X151565658Y-55389907D01*
X151523796Y-55277669D01*
X151437546Y-55162454D01*
X151322331Y-55076204D01*
X151187483Y-55025909D01*
X151127873Y-55019500D01*
X151124550Y-55019500D01*
X149335439Y-55019500D01*
X149335420Y-55019500D01*
X149332128Y-55019501D01*
X149328848Y-55019853D01*
X149328840Y-55019854D01*
X149272515Y-55025909D01*
X149137669Y-55076204D01*
X149022454Y-55162454D01*
X148936204Y-55277668D01*
X148904059Y-55363855D01*
X148885909Y-55412517D01*
X148879500Y-55472127D01*
X148879500Y-55475448D01*
X148879500Y-55475449D01*
X148879500Y-57264560D01*
X148879500Y-57264578D01*
X148879501Y-57267872D01*
X148879853Y-57271152D01*
X148879854Y-57271159D01*
X148885909Y-57327484D01*
X148899251Y-57363256D01*
X148936204Y-57462331D01*
X149022454Y-57577546D01*
X149137669Y-57663796D01*
X149249907Y-57705658D01*
X149269082Y-57712810D01*
X149325016Y-57754681D01*
X149349433Y-57820146D01*
X149334581Y-57888419D01*
X149313431Y-57916673D01*
X149191503Y-58038601D01*
X149055965Y-58232170D01*
X148956097Y-58446336D01*
X148894936Y-58674592D01*
X148874340Y-58909999D01*
X148894936Y-59145407D01*
X148939709Y-59312501D01*
X148956097Y-59373663D01*
X149055965Y-59587830D01*
X149191505Y-59781401D01*
X149358599Y-59948495D01*
X149544160Y-60078426D01*
X149587783Y-60133002D01*
X149594976Y-60202501D01*
X149563454Y-60264855D01*
X149544159Y-60281575D01*
X149358595Y-60411508D01*
X149191505Y-60578598D01*
X149055965Y-60772170D01*
X148956097Y-60986336D01*
X148894936Y-61214592D01*
X148874340Y-61450000D01*
X148894936Y-61685407D01*
X148920496Y-61780798D01*
X148956097Y-61913663D01*
X149055965Y-62127830D01*
X149191505Y-62321401D01*
X149358599Y-62488495D01*
X149544160Y-62618426D01*
X149587783Y-62673002D01*
X149594976Y-62742501D01*
X149563454Y-62804855D01*
X149544159Y-62821575D01*
X149358595Y-62951508D01*
X149191505Y-63118598D01*
X149055965Y-63312170D01*
X148956097Y-63526336D01*
X148894936Y-63754592D01*
X148874340Y-63989999D01*
X148894936Y-64225407D01*
X148934454Y-64372888D01*
X148956097Y-64453663D01*
X149055965Y-64667830D01*
X149191505Y-64861401D01*
X149358599Y-65028495D01*
X149544596Y-65158732D01*
X149588219Y-65213307D01*
X149595412Y-65282806D01*
X149563890Y-65345160D01*
X149544595Y-65361880D01*
X149358919Y-65491892D01*
X149191890Y-65658921D01*
X149056400Y-65852421D01*
X148956569Y-66066507D01*
X148899364Y-66279999D01*
X148899364Y-66280000D01*
X149796314Y-66280000D01*
X149770507Y-66320156D01*
X149730000Y-66458111D01*
X149730000Y-66601889D01*
X149770507Y-66739844D01*
X149796314Y-66780000D01*
X148899364Y-66780000D01*
X148956569Y-66993492D01*
X149056399Y-67207576D01*
X149191893Y-67401081D01*
X149358918Y-67568106D01*
X149544595Y-67698119D01*
X149588219Y-67752696D01*
X149595412Y-67822195D01*
X149563890Y-67884549D01*
X149544595Y-67901269D01*
X149358595Y-68031508D01*
X149191505Y-68198598D01*
X149055965Y-68392170D01*
X148956097Y-68606336D01*
X148894936Y-68834592D01*
X148874340Y-69069999D01*
X148894936Y-69305407D01*
X148928780Y-69431715D01*
X148956097Y-69533663D01*
X149055965Y-69747830D01*
X149191505Y-69941401D01*
X149358599Y-70108495D01*
X149544160Y-70238426D01*
X149587783Y-70293002D01*
X149594976Y-70362501D01*
X149563454Y-70424855D01*
X149544159Y-70441575D01*
X149358595Y-70571508D01*
X149191505Y-70738598D01*
X149055965Y-70932170D01*
X148956097Y-71146336D01*
X148894936Y-71374592D01*
X148874340Y-71609999D01*
X148894936Y-71845407D01*
X148920496Y-71940798D01*
X148956097Y-72073663D01*
X149055965Y-72287830D01*
X149191505Y-72481401D01*
X149358599Y-72648495D01*
X149544160Y-72778426D01*
X149587783Y-72833002D01*
X149594976Y-72902501D01*
X149563454Y-72964855D01*
X149544159Y-72981575D01*
X149358595Y-73111508D01*
X149191505Y-73278598D01*
X149055965Y-73472170D01*
X148956097Y-73686336D01*
X148894936Y-73914592D01*
X148874340Y-74150000D01*
X148894936Y-74385407D01*
X148939709Y-74552502D01*
X148956097Y-74613663D01*
X149055965Y-74827830D01*
X149191505Y-75021401D01*
X149358599Y-75188495D01*
X149544160Y-75318426D01*
X149587783Y-75373002D01*
X149594976Y-75442501D01*
X149563454Y-75504855D01*
X149544158Y-75521575D01*
X149417351Y-75610367D01*
X149358595Y-75651508D01*
X149191505Y-75818598D01*
X149055965Y-76012170D01*
X148956097Y-76226336D01*
X148894936Y-76454592D01*
X148874340Y-76689999D01*
X148894936Y-76925407D01*
X148914923Y-76999999D01*
X148956097Y-77153663D01*
X149055965Y-77367830D01*
X149191505Y-77561401D01*
X149358599Y-77728495D01*
X149544160Y-77858426D01*
X149587783Y-77913002D01*
X149594976Y-77982501D01*
X149563454Y-78044855D01*
X149544159Y-78061575D01*
X149358595Y-78191508D01*
X149191505Y-78358598D01*
X149055965Y-78552170D01*
X148956097Y-78766336D01*
X148894936Y-78994592D01*
X148874340Y-79230000D01*
X148894936Y-79465407D01*
X148920055Y-79559151D01*
X148956097Y-79693663D01*
X149055965Y-79907830D01*
X149191505Y-80101401D01*
X149358599Y-80268495D01*
X149544160Y-80398426D01*
X149587783Y-80453002D01*
X149594976Y-80522501D01*
X149563454Y-80584855D01*
X149544159Y-80601575D01*
X149358595Y-80731508D01*
X149191505Y-80898598D01*
X149055965Y-81092170D01*
X148956097Y-81306336D01*
X148894936Y-81534592D01*
X148874340Y-81770000D01*
X148894936Y-82005407D01*
X148939709Y-82172501D01*
X148956097Y-82233663D01*
X149055965Y-82447830D01*
X149191505Y-82641401D01*
X149358599Y-82808495D01*
X149544160Y-82938426D01*
X149587783Y-82993002D01*
X149594976Y-83062501D01*
X149563454Y-83124855D01*
X149544159Y-83141575D01*
X149358595Y-83271508D01*
X149191505Y-83438598D01*
X149055965Y-83632170D01*
X148956097Y-83846336D01*
X148894936Y-84074592D01*
X148874340Y-84309999D01*
X148894936Y-84545407D01*
X148939709Y-84712502D01*
X148956097Y-84773663D01*
X149055965Y-84987830D01*
X149191505Y-85181401D01*
X149358599Y-85348495D01*
X149544596Y-85478732D01*
X149588219Y-85533307D01*
X149595412Y-85602806D01*
X149563890Y-85665160D01*
X149544595Y-85681880D01*
X149358919Y-85811892D01*
X149191890Y-85978921D01*
X149056400Y-86172421D01*
X148956569Y-86386507D01*
X148899364Y-86599999D01*
X148899364Y-86600000D01*
X149796314Y-86600000D01*
X149770507Y-86640156D01*
X149730000Y-86778111D01*
X149730000Y-86921889D01*
X149770507Y-87059844D01*
X149796314Y-87100000D01*
X148899364Y-87100000D01*
X148956569Y-87313492D01*
X149056399Y-87527576D01*
X149191893Y-87721081D01*
X149358918Y-87888106D01*
X149544595Y-88018119D01*
X149588219Y-88072696D01*
X149595412Y-88142195D01*
X149563890Y-88204549D01*
X149544595Y-88221269D01*
X149358595Y-88351508D01*
X149191505Y-88518598D01*
X149055965Y-88712170D01*
X148956097Y-88926336D01*
X148894936Y-89154592D01*
X148874340Y-89389999D01*
X148894936Y-89625407D01*
X148939709Y-89792502D01*
X148956097Y-89853663D01*
X149055965Y-90067830D01*
X149191505Y-90261401D01*
X149358599Y-90428495D01*
X149544160Y-90558426D01*
X149587783Y-90613002D01*
X149594976Y-90682501D01*
X149563454Y-90744855D01*
X149544159Y-90761575D01*
X149358595Y-90891508D01*
X149191505Y-91058598D01*
X149055965Y-91252170D01*
X148956097Y-91466336D01*
X148894936Y-91694592D01*
X148874340Y-91930000D01*
X148894936Y-92165407D01*
X148920496Y-92260798D01*
X148956097Y-92393663D01*
X149055965Y-92607830D01*
X149191505Y-92801401D01*
X149358599Y-92968495D01*
X149544160Y-93098426D01*
X149587783Y-93153002D01*
X149594976Y-93222501D01*
X149563454Y-93284855D01*
X149544158Y-93301575D01*
X149361056Y-93429785D01*
X149358595Y-93431508D01*
X149191505Y-93598598D01*
X149055965Y-93792170D01*
X148956097Y-94006336D01*
X148894936Y-94234592D01*
X148874340Y-94470000D01*
X148894936Y-94705407D01*
X148939709Y-94872501D01*
X148956097Y-94933663D01*
X149055965Y-95147830D01*
X149191505Y-95341401D01*
X149358599Y-95508495D01*
X149544160Y-95638426D01*
X149587783Y-95693002D01*
X149594976Y-95762501D01*
X149563454Y-95824855D01*
X149544159Y-95841575D01*
X149358595Y-95971508D01*
X149191505Y-96138598D01*
X149055965Y-96332170D01*
X148956097Y-96546336D01*
X148894936Y-96774592D01*
X148874340Y-97009999D01*
X148894936Y-97245407D01*
X148920496Y-97340798D01*
X148956097Y-97473663D01*
X149055965Y-97687830D01*
X149191505Y-97881401D01*
X149358599Y-98048495D01*
X149544160Y-98178426D01*
X149587783Y-98233002D01*
X149594976Y-98302501D01*
X149563454Y-98364855D01*
X149544159Y-98381575D01*
X149358595Y-98511508D01*
X149191505Y-98678598D01*
X149055965Y-98872170D01*
X148956097Y-99086336D01*
X148894936Y-99314592D01*
X148874340Y-99550000D01*
X148894936Y-99785407D01*
X148939709Y-99952501D01*
X148956097Y-100013663D01*
X149055965Y-100227830D01*
X149191505Y-100421401D01*
X149358599Y-100588495D01*
X149544160Y-100718426D01*
X149587783Y-100773002D01*
X149594976Y-100842501D01*
X149563454Y-100904855D01*
X149544159Y-100921575D01*
X149358595Y-101051508D01*
X149191505Y-101218598D01*
X149055965Y-101412170D01*
X148956097Y-101626336D01*
X148894936Y-101854592D01*
X148874340Y-102089999D01*
X90004304Y-102089999D01*
X90006052Y-97475889D01*
X96999416Y-97475889D01*
X96999459Y-97500000D01*
X96999501Y-97500101D01*
X96999616Y-97500382D01*
X96999618Y-97500384D01*
X96999808Y-97500462D01*
X97000000Y-97500541D01*
X97000002Y-97500539D01*
X97024616Y-97500524D01*
X97024616Y-97500528D01*
X97024760Y-97500500D01*
X123975240Y-97500500D01*
X123975383Y-97500528D01*
X123975384Y-97500524D01*
X123999997Y-97500539D01*
X124000000Y-97500541D01*
X124000383Y-97500383D01*
X124000500Y-97500099D01*
X124000541Y-97500000D01*
X124000540Y-97499997D01*
X124000583Y-97475889D01*
X124000500Y-97475467D01*
X124000500Y-96894999D01*
X141626290Y-96894999D01*
X141646076Y-97083257D01*
X141704570Y-97263284D01*
X141799216Y-97427216D01*
X141925879Y-97567889D01*
X142079019Y-97679151D01*
X142251947Y-97756144D01*
X142437102Y-97795500D01*
X142437104Y-97795500D01*
X142626398Y-97795500D01*
X142749833Y-97769262D01*
X142811553Y-97756144D01*
X142984480Y-97679151D01*
X143137621Y-97567888D01*
X143264283Y-97427216D01*
X143358929Y-97263284D01*
X143417424Y-97083256D01*
X143423429Y-97026113D01*
X143450013Y-96961500D01*
X143507311Y-96921515D01*
X143577130Y-96918855D01*
X143637303Y-96954364D01*
X143668727Y-97016769D01*
X143670068Y-97026099D01*
X143675191Y-97074840D01*
X143676076Y-97083257D01*
X143734570Y-97263284D01*
X143829216Y-97427216D01*
X143955879Y-97567889D01*
X144109019Y-97679151D01*
X144281947Y-97756144D01*
X144467102Y-97795500D01*
X144467104Y-97795500D01*
X144656398Y-97795500D01*
X144779834Y-97769262D01*
X144841553Y-97756144D01*
X145014480Y-97679151D01*
X145167621Y-97567888D01*
X145294283Y-97427216D01*
X145388929Y-97263284D01*
X145447424Y-97083256D01*
X145467210Y-96895000D01*
X145447424Y-96706744D01*
X145395360Y-96546507D01*
X145388929Y-96526715D01*
X145294283Y-96362783D01*
X145167620Y-96222110D01*
X145014480Y-96110848D01*
X144841552Y-96033855D01*
X144656398Y-95994500D01*
X144656396Y-95994500D01*
X144467104Y-95994500D01*
X144467102Y-95994500D01*
X144281947Y-96033855D01*
X144109019Y-96110848D01*
X143955879Y-96222110D01*
X143829216Y-96362783D01*
X143734570Y-96526715D01*
X143676076Y-96706742D01*
X143676075Y-96706744D01*
X143676076Y-96706744D01*
X143670070Y-96763885D01*
X143643486Y-96828499D01*
X143586189Y-96868484D01*
X143516370Y-96871144D01*
X143456196Y-96835635D01*
X143424773Y-96773230D01*
X143423430Y-96763897D01*
X143417424Y-96706744D01*
X143365360Y-96546507D01*
X143358929Y-96526715D01*
X143264283Y-96362783D01*
X143137620Y-96222110D01*
X142984480Y-96110848D01*
X142811552Y-96033855D01*
X142626398Y-95994500D01*
X142626396Y-95994500D01*
X142437104Y-95994500D01*
X142437102Y-95994500D01*
X142251947Y-96033855D01*
X142079019Y-96110848D01*
X141925879Y-96222110D01*
X141799216Y-96362783D01*
X141704570Y-96526715D01*
X141646076Y-96706742D01*
X141626290Y-96894999D01*
X124000500Y-96894999D01*
X124000500Y-93790000D01*
X126373505Y-93790000D01*
X126426240Y-93975351D01*
X126525365Y-94174422D01*
X126659390Y-94351899D01*
X126823737Y-94501721D01*
X127012821Y-94618797D01*
X127220199Y-94699135D01*
X127300000Y-94714052D01*
X127799999Y-94714052D01*
X127879800Y-94699135D01*
X128087178Y-94618797D01*
X128276262Y-94501721D01*
X128440609Y-94351899D01*
X128574634Y-94174422D01*
X128673759Y-93975351D01*
X128726495Y-93790000D01*
X127800000Y-93790000D01*
X127799999Y-94714052D01*
X127300000Y-94714052D01*
X127300000Y-93790000D01*
X126373505Y-93790000D01*
X124000500Y-93790000D01*
X124000500Y-93569302D01*
X127196372Y-93569302D01*
X127225047Y-93682538D01*
X127288936Y-93780327D01*
X127381115Y-93852072D01*
X127491595Y-93890000D01*
X127579005Y-93890000D01*
X127665216Y-93875614D01*
X127767947Y-93820019D01*
X127847060Y-93734079D01*
X127893982Y-93627108D01*
X127903628Y-93510698D01*
X127874953Y-93397462D01*
X127811064Y-93299673D01*
X127718885Y-93227928D01*
X127608405Y-93190000D01*
X127520995Y-93190000D01*
X127434784Y-93204386D01*
X127332053Y-93259981D01*
X127252940Y-93345921D01*
X127206018Y-93452892D01*
X127196372Y-93569302D01*
X124000500Y-93569302D01*
X124000500Y-93290000D01*
X126373505Y-93290000D01*
X127299999Y-93290000D01*
X127300000Y-92365946D01*
X127800000Y-92365946D01*
X127800000Y-93290000D01*
X128726495Y-93290000D01*
X128673759Y-93104648D01*
X128574634Y-92905577D01*
X128440609Y-92728100D01*
X128276262Y-92578278D01*
X128087178Y-92461202D01*
X127879802Y-92380864D01*
X127800000Y-92365946D01*
X127300000Y-92365946D01*
X127220197Y-92380864D01*
X127012821Y-92461202D01*
X126823737Y-92578278D01*
X126659390Y-92728100D01*
X126525365Y-92905577D01*
X126426240Y-93104648D01*
X126373505Y-93290000D01*
X124000500Y-93290000D01*
X124000500Y-91524759D01*
X124000528Y-91524616D01*
X124000524Y-91524616D01*
X124000539Y-91500002D01*
X124000541Y-91500000D01*
X124000462Y-91499808D01*
X124000384Y-91499618D01*
X124000383Y-91499617D01*
X124000379Y-91499615D01*
X124000097Y-91499499D01*
X124000000Y-91499459D01*
X123975446Y-91499459D01*
X123975240Y-91499500D01*
X97024760Y-91499500D01*
X97024554Y-91499459D01*
X96999999Y-91499459D01*
X96999900Y-91499500D01*
X96999618Y-91499615D01*
X96999615Y-91499618D01*
X96999459Y-91499999D01*
X96999476Y-91524616D01*
X96999471Y-91524616D01*
X96999500Y-91524759D01*
X96999500Y-97475467D01*
X96999416Y-97475889D01*
X90006052Y-97475889D01*
X90010322Y-86203605D01*
X99645380Y-86203605D01*
X99664262Y-86527812D01*
X99665101Y-86534991D01*
X99721494Y-86854811D01*
X99723156Y-86861824D01*
X99816305Y-87172963D01*
X99818761Y-87179712D01*
X99947402Y-87477934D01*
X99950635Y-87484370D01*
X100113016Y-87765623D01*
X100116982Y-87771654D01*
X100312358Y-88034088D01*
X101385073Y-86961372D01*
X101461890Y-87071078D01*
X101628922Y-87238110D01*
X101738626Y-87314925D01*
X100669289Y-88384261D01*
X100669290Y-88384262D01*
X100792441Y-88487598D01*
X100798239Y-88491915D01*
X101069565Y-88670369D01*
X101075814Y-88673976D01*
X101366022Y-88819725D01*
X101372661Y-88822588D01*
X101677838Y-88933664D01*
X101684728Y-88935727D01*
X102000768Y-89010630D01*
X102007834Y-89011876D01*
X102330435Y-89049582D01*
X102337605Y-89050000D01*
X102662395Y-89050000D01*
X102669564Y-89049582D01*
X102992165Y-89011876D01*
X102999231Y-89010630D01*
X103315271Y-88935727D01*
X103322161Y-88933664D01*
X103627338Y-88822588D01*
X103633977Y-88819725D01*
X103924185Y-88673976D01*
X103930434Y-88670369D01*
X104201760Y-88491915D01*
X104207558Y-88487598D01*
X104240448Y-88460000D01*
X126344357Y-88460000D01*
X126364885Y-88681537D01*
X126425769Y-88895526D01*
X126524941Y-89094688D01*
X126659019Y-89272237D01*
X126823437Y-89422124D01*
X127012595Y-89539245D01*
X127012597Y-89539245D01*
X127012599Y-89539247D01*
X127220060Y-89619618D01*
X127438757Y-89660500D01*
X127438759Y-89660500D01*
X127661241Y-89660500D01*
X127661243Y-89660500D01*
X127879940Y-89619618D01*
X128087401Y-89539247D01*
X128276562Y-89422124D01*
X128440981Y-89272236D01*
X128575058Y-89094689D01*
X128674229Y-88895528D01*
X128735115Y-88681536D01*
X128755643Y-88460000D01*
X128735115Y-88238464D01*
X128700299Y-88116097D01*
X128674230Y-88024473D01*
X128575058Y-87825311D01*
X128440980Y-87647762D01*
X128276562Y-87497875D01*
X128087404Y-87380754D01*
X128026174Y-87357033D01*
X127879940Y-87300382D01*
X127661243Y-87259500D01*
X127438757Y-87259500D01*
X127220060Y-87300382D01*
X127012595Y-87380754D01*
X126823437Y-87497875D01*
X126659019Y-87647762D01*
X126524941Y-87825311D01*
X126425769Y-88024473D01*
X126364885Y-88238462D01*
X126344357Y-88460000D01*
X104240448Y-88460000D01*
X104330708Y-88384262D01*
X104330709Y-88384261D01*
X103261373Y-87314925D01*
X103371078Y-87238110D01*
X103538110Y-87071078D01*
X103614926Y-86961373D01*
X104687640Y-88034088D01*
X104883017Y-87771654D01*
X104886983Y-87765623D01*
X105049364Y-87484370D01*
X105052597Y-87477934D01*
X105181238Y-87179712D01*
X105183694Y-87172963D01*
X105276843Y-86861824D01*
X105278505Y-86854811D01*
X105334898Y-86534991D01*
X105335737Y-86527812D01*
X105354620Y-86203605D01*
X105354620Y-86196394D01*
X105335737Y-85872187D01*
X105334898Y-85865008D01*
X105278505Y-85545188D01*
X105276843Y-85538175D01*
X105183694Y-85227036D01*
X105181238Y-85220287D01*
X105052597Y-84922065D01*
X105049364Y-84915629D01*
X104886983Y-84634376D01*
X104883017Y-84628345D01*
X104687640Y-84365910D01*
X103614925Y-85438625D01*
X103538110Y-85328922D01*
X103371078Y-85161890D01*
X103261373Y-85085073D01*
X104330709Y-84015737D01*
X104330708Y-84015736D01*
X104207558Y-83912401D01*
X104201760Y-83908084D01*
X103930434Y-83729630D01*
X103924185Y-83726023D01*
X103633977Y-83580274D01*
X103627338Y-83577411D01*
X103322161Y-83466335D01*
X103315271Y-83464272D01*
X102999231Y-83389369D01*
X102992165Y-83388123D01*
X102669564Y-83350417D01*
X102662395Y-83350000D01*
X102337605Y-83350000D01*
X102330435Y-83350417D01*
X102007834Y-83388123D01*
X102000768Y-83389369D01*
X101684728Y-83464272D01*
X101677838Y-83466335D01*
X101372661Y-83577411D01*
X101366022Y-83580274D01*
X101075814Y-83726023D01*
X101069565Y-83729630D01*
X100798241Y-83908083D01*
X100792440Y-83912402D01*
X100669289Y-84015736D01*
X101738626Y-85085073D01*
X101628922Y-85161890D01*
X101461890Y-85328922D01*
X101385073Y-85438626D01*
X100312357Y-84365910D01*
X100116983Y-84628344D01*
X100113016Y-84634376D01*
X99950635Y-84915629D01*
X99947402Y-84922065D01*
X99818761Y-85220287D01*
X99816305Y-85227036D01*
X99723156Y-85538175D01*
X99721494Y-85545188D01*
X99665101Y-85865008D01*
X99664262Y-85872187D01*
X99645380Y-86196394D01*
X99645380Y-86203605D01*
X90010322Y-86203605D01*
X90013809Y-76999999D01*
X92140554Y-76999999D01*
X92160295Y-77213049D01*
X92218848Y-77418839D01*
X92314216Y-77610366D01*
X92443159Y-77781114D01*
X92601273Y-77925253D01*
X92601274Y-77925254D01*
X92601278Y-77925257D01*
X92618791Y-77936101D01*
X92665426Y-77988125D01*
X92670165Y-78016613D01*
X93255599Y-78602046D01*
X93174852Y-78614835D01*
X93061955Y-78672359D01*
X92972359Y-78761955D01*
X92914835Y-78874852D01*
X92902046Y-78955599D01*
X92323980Y-78377532D01*
X92314646Y-78389895D01*
X92219315Y-78581343D01*
X92160789Y-78787042D01*
X92141056Y-78999999D01*
X92160789Y-79212957D01*
X92219315Y-79418656D01*
X92314646Y-79610105D01*
X92323980Y-79622466D01*
X92902046Y-79044399D01*
X92914835Y-79125148D01*
X92972359Y-79238045D01*
X93061955Y-79327641D01*
X93174852Y-79385165D01*
X93255599Y-79397953D01*
X92680085Y-79973465D01*
X92783413Y-80037443D01*
X92982840Y-80114701D01*
X93193068Y-80154000D01*
X93406932Y-80154000D01*
X93617159Y-80114701D01*
X93816586Y-80037443D01*
X93919913Y-79973465D01*
X93344401Y-79397953D01*
X93425148Y-79385165D01*
X93538045Y-79327641D01*
X93627641Y-79238045D01*
X93685165Y-79125148D01*
X93697953Y-79044400D01*
X94276018Y-79622465D01*
X94285355Y-79610102D01*
X94380684Y-79418656D01*
X94439210Y-79212957D01*
X94458943Y-79000000D01*
X94439210Y-78787042D01*
X94435784Y-78775000D01*
X98844540Y-78775000D01*
X98864326Y-78963257D01*
X98922820Y-79143284D01*
X99017466Y-79307216D01*
X99144129Y-79447889D01*
X99297269Y-79559151D01*
X99470197Y-79636144D01*
X99655352Y-79675500D01*
X99655354Y-79675500D01*
X99844648Y-79675500D01*
X99968083Y-79649262D01*
X100029803Y-79636144D01*
X100202730Y-79559151D01*
X100202729Y-79559151D01*
X100355870Y-79447889D01*
X100482533Y-79307216D01*
X100577179Y-79143284D01*
X100589943Y-79104000D01*
X100635674Y-78963256D01*
X100655460Y-78775000D01*
X100635674Y-78586744D01*
X100577179Y-78406716D01*
X100577179Y-78406715D01*
X100482533Y-78242783D01*
X100355870Y-78102110D01*
X100202730Y-77990848D01*
X100029802Y-77913855D01*
X99844648Y-77874500D01*
X99844646Y-77874500D01*
X99655354Y-77874500D01*
X99655352Y-77874500D01*
X99470197Y-77913855D01*
X99297269Y-77990848D01*
X99144129Y-78102110D01*
X99017466Y-78242783D01*
X98922820Y-78406715D01*
X98864326Y-78586742D01*
X98844540Y-78775000D01*
X94435784Y-78775000D01*
X94380684Y-78581343D01*
X94285353Y-78389893D01*
X94276019Y-78377533D01*
X93697953Y-78955598D01*
X93685165Y-78874852D01*
X93627641Y-78761955D01*
X93538045Y-78672359D01*
X93425148Y-78614835D01*
X93344400Y-78602046D01*
X93930087Y-78016359D01*
X93935137Y-77986958D01*
X93981206Y-77936102D01*
X93998722Y-77925257D01*
X94156841Y-77781113D01*
X94285781Y-77610369D01*
X94285781Y-77610367D01*
X94285783Y-77610366D01*
X94381151Y-77418839D01*
X94439704Y-77213049D01*
X94445207Y-77153662D01*
X94459446Y-76999999D01*
X94439704Y-76786951D01*
X94439704Y-76786948D01*
X94381151Y-76581158D01*
X94285783Y-76389631D01*
X94156840Y-76218883D01*
X94017256Y-76091636D01*
X93980974Y-76031925D01*
X93982735Y-75962077D01*
X94017256Y-75908362D01*
X94156840Y-75781115D01*
X94285783Y-75610367D01*
X94381151Y-75418840D01*
X94439704Y-75213050D01*
X94442566Y-75182154D01*
X94459446Y-75000000D01*
X94439704Y-74786952D01*
X94439704Y-74786949D01*
X94381151Y-74581159D01*
X94285783Y-74389632D01*
X94156840Y-74218884D01*
X94017254Y-74091636D01*
X93980972Y-74031925D01*
X93982733Y-73962078D01*
X94017251Y-73908365D01*
X94156841Y-73781113D01*
X94285781Y-73610369D01*
X94285781Y-73610367D01*
X94285783Y-73610366D01*
X94381151Y-73418839D01*
X94439704Y-73213049D01*
X94449113Y-73111505D01*
X94459446Y-72999999D01*
X110294540Y-72999999D01*
X110314326Y-73188257D01*
X110372820Y-73368284D01*
X110467466Y-73532216D01*
X110594129Y-73672889D01*
X110747269Y-73784151D01*
X110920197Y-73861144D01*
X111105352Y-73900500D01*
X111105354Y-73900500D01*
X111294648Y-73900500D01*
X111418083Y-73874262D01*
X111479803Y-73861144D01*
X111652730Y-73784151D01*
X111787360Y-73686337D01*
X111805870Y-73672889D01*
X111862164Y-73610369D01*
X111932533Y-73532216D01*
X112027179Y-73368284D01*
X112085674Y-73188256D01*
X112105460Y-73000000D01*
X112085674Y-72811744D01*
X112032630Y-72648491D01*
X112027179Y-72631715D01*
X111932533Y-72467783D01*
X111805870Y-72327110D01*
X111652730Y-72215848D01*
X111479802Y-72138855D01*
X111294648Y-72099500D01*
X111294646Y-72099500D01*
X111105354Y-72099500D01*
X111105352Y-72099500D01*
X110920197Y-72138855D01*
X110747269Y-72215848D01*
X110594129Y-72327110D01*
X110467466Y-72467783D01*
X110372820Y-72631715D01*
X110314326Y-72811742D01*
X110294540Y-72999999D01*
X94459446Y-72999999D01*
X94442297Y-72814937D01*
X94439704Y-72786948D01*
X94381151Y-72581158D01*
X94285783Y-72389631D01*
X94156840Y-72218883D01*
X93998722Y-72074741D01*
X93981207Y-72063896D01*
X93934571Y-72011869D01*
X93929833Y-71983386D01*
X93344401Y-71397954D01*
X93425148Y-71385166D01*
X93538045Y-71327642D01*
X93627641Y-71238046D01*
X93685165Y-71125149D01*
X93697953Y-71044401D01*
X94276018Y-71622466D01*
X94285355Y-71610103D01*
X94380684Y-71418657D01*
X94439210Y-71212958D01*
X94458943Y-71000001D01*
X94449677Y-70900000D01*
X106694540Y-70900000D01*
X106714326Y-71088257D01*
X106772820Y-71268284D01*
X106867466Y-71432216D01*
X106994129Y-71572889D01*
X107147269Y-71684151D01*
X107320197Y-71761144D01*
X107505352Y-71800500D01*
X107505354Y-71800500D01*
X107694648Y-71800500D01*
X107818083Y-71774262D01*
X107879803Y-71761144D01*
X108052730Y-71684151D01*
X108137631Y-71622467D01*
X108205870Y-71572889D01*
X108332533Y-71432216D01*
X108427179Y-71268284D01*
X108437004Y-71238046D01*
X108485674Y-71088256D01*
X108505460Y-70900000D01*
X108485674Y-70711744D01*
X108455332Y-70618363D01*
X108427179Y-70531715D01*
X108332533Y-70367783D01*
X108205870Y-70227110D01*
X108052730Y-70115848D01*
X107879802Y-70038855D01*
X107694648Y-69999500D01*
X107694646Y-69999500D01*
X107505354Y-69999500D01*
X107505352Y-69999500D01*
X107320197Y-70038855D01*
X107147269Y-70115848D01*
X106994129Y-70227110D01*
X106867466Y-70367783D01*
X106772820Y-70531715D01*
X106714326Y-70711742D01*
X106694540Y-70900000D01*
X94449677Y-70900000D01*
X94439210Y-70787043D01*
X94380684Y-70581344D01*
X94285353Y-70389894D01*
X94276019Y-70377534D01*
X93697953Y-70955599D01*
X93685165Y-70874853D01*
X93627641Y-70761956D01*
X93538045Y-70672360D01*
X93425148Y-70614836D01*
X93344401Y-70602047D01*
X93930087Y-70016359D01*
X93935137Y-69986959D01*
X93981206Y-69936103D01*
X93998722Y-69925258D01*
X94136125Y-69799999D01*
X102194540Y-69799999D01*
X102214326Y-69988257D01*
X102272820Y-70168284D01*
X102367466Y-70332216D01*
X102494129Y-70472889D01*
X102647269Y-70584151D01*
X102820197Y-70661144D01*
X103005352Y-70700500D01*
X103005354Y-70700500D01*
X103194648Y-70700500D01*
X103327035Y-70672360D01*
X103379803Y-70661144D01*
X103552730Y-70584151D01*
X103705871Y-70472888D01*
X103832533Y-70332216D01*
X103927179Y-70168284D01*
X103985674Y-69988256D01*
X103993951Y-69909497D01*
X104020534Y-69844886D01*
X104077831Y-69804901D01*
X104091490Y-69801171D01*
X104279803Y-69761144D01*
X104452730Y-69684151D01*
X104605870Y-69572889D01*
X104732533Y-69432216D01*
X104827179Y-69268284D01*
X104845126Y-69213048D01*
X104885674Y-69088256D01*
X104905460Y-68900000D01*
X104885674Y-68711744D01*
X104827179Y-68531716D01*
X104801359Y-68486996D01*
X104784888Y-68419101D01*
X104801359Y-68363004D01*
X104827179Y-68318284D01*
X104885674Y-68138256D01*
X104905460Y-67950000D01*
X104889695Y-67800000D01*
X108994540Y-67800000D01*
X109003426Y-67884549D01*
X109014326Y-67988257D01*
X109072820Y-68168284D01*
X109167466Y-68332216D01*
X109294129Y-68472889D01*
X109447269Y-68584151D01*
X109620197Y-68661144D01*
X109805352Y-68700500D01*
X109805354Y-68700500D01*
X109994648Y-68700500D01*
X110118084Y-68674262D01*
X110179803Y-68661144D01*
X110352730Y-68584151D01*
X110486446Y-68487001D01*
X110505870Y-68472889D01*
X110632533Y-68332216D01*
X110727179Y-68168284D01*
X110752083Y-68091637D01*
X110785674Y-67988256D01*
X110805460Y-67800000D01*
X110785674Y-67611744D01*
X110727179Y-67431716D01*
X110727179Y-67431715D01*
X110632533Y-67267783D01*
X110505870Y-67127110D01*
X110352730Y-67015848D01*
X110179802Y-66938855D01*
X109994648Y-66899500D01*
X109994646Y-66899500D01*
X109805354Y-66899500D01*
X109805352Y-66899500D01*
X109620197Y-66938855D01*
X109447269Y-67015848D01*
X109294129Y-67127110D01*
X109167466Y-67267783D01*
X109072820Y-67431715D01*
X109014326Y-67611742D01*
X108998561Y-67761742D01*
X108994540Y-67800000D01*
X104889695Y-67800000D01*
X104885674Y-67761744D01*
X104827179Y-67581716D01*
X104827179Y-67581715D01*
X104732533Y-67417783D01*
X104605870Y-67277110D01*
X104452730Y-67165848D01*
X104279802Y-67088855D01*
X104094648Y-67049500D01*
X104094646Y-67049500D01*
X103905354Y-67049500D01*
X103905352Y-67049500D01*
X103720197Y-67088855D01*
X103547269Y-67165848D01*
X103394129Y-67277110D01*
X103267466Y-67417783D01*
X103172820Y-67581715D01*
X103114326Y-67761742D01*
X103110305Y-67799999D01*
X103107941Y-67822501D01*
X103106049Y-67840500D01*
X103079464Y-67905114D01*
X103022167Y-67945099D01*
X103008509Y-67948828D01*
X102820197Y-67988855D01*
X102647269Y-68065848D01*
X102494129Y-68177110D01*
X102367466Y-68317783D01*
X102272820Y-68481715D01*
X102214326Y-68661742D01*
X102194540Y-68850000D01*
X102214326Y-69038257D01*
X102272820Y-69218284D01*
X102298637Y-69263000D01*
X102315110Y-69330901D01*
X102298637Y-69387000D01*
X102272820Y-69431715D01*
X102214326Y-69611742D01*
X102194540Y-69799999D01*
X94136125Y-69799999D01*
X94156841Y-69781114D01*
X94285781Y-69610370D01*
X94285781Y-69610368D01*
X94285783Y-69610367D01*
X94381151Y-69418840D01*
X94439704Y-69213050D01*
X94442790Y-69179739D01*
X94459446Y-69000000D01*
X94439704Y-68786952D01*
X94439704Y-68786949D01*
X94381151Y-68581159D01*
X94285783Y-68389632D01*
X94156840Y-68218884D01*
X94017256Y-68091637D01*
X93980974Y-68031926D01*
X93982735Y-67962078D01*
X94017256Y-67908363D01*
X94156840Y-67781116D01*
X94215049Y-67704035D01*
X94285781Y-67610371D01*
X94285781Y-67610369D01*
X94285783Y-67610368D01*
X94381151Y-67418841D01*
X94439704Y-67213051D01*
X94451212Y-67088855D01*
X94459446Y-67000001D01*
X94439704Y-66786953D01*
X94439704Y-66786950D01*
X94381151Y-66581160D01*
X94285783Y-66389633D01*
X94187725Y-66259784D01*
X94163033Y-66194423D01*
X94177598Y-66126088D01*
X94212366Y-66085791D01*
X94311546Y-66011546D01*
X94397796Y-65896331D01*
X94448091Y-65761483D01*
X94454500Y-65701873D01*
X94454499Y-64298128D01*
X94448091Y-64238517D01*
X94397796Y-64103669D01*
X94311546Y-63988454D01*
X94196331Y-63902204D01*
X94061483Y-63851909D01*
X94001873Y-63845500D01*
X93998550Y-63845500D01*
X92601439Y-63845500D01*
X92601420Y-63845500D01*
X92598128Y-63845501D01*
X92594848Y-63845853D01*
X92594840Y-63845854D01*
X92538515Y-63851909D01*
X92403669Y-63902204D01*
X92288454Y-63988454D01*
X92202204Y-64103668D01*
X92151910Y-64238515D01*
X92151909Y-64238517D01*
X92145500Y-64298127D01*
X92145500Y-64301448D01*
X92145500Y-64301449D01*
X92145500Y-65698560D01*
X92145500Y-65698578D01*
X92145501Y-65701872D01*
X92151909Y-65761483D01*
X92202204Y-65896331D01*
X92288454Y-66011546D01*
X92387632Y-66085791D01*
X92429502Y-66141723D01*
X92434486Y-66211414D01*
X92412275Y-66259782D01*
X92314216Y-66389634D01*
X92218848Y-66581160D01*
X92160295Y-66786950D01*
X92140554Y-67000000D01*
X92160295Y-67213051D01*
X92218848Y-67418841D01*
X92314216Y-67610368D01*
X92443159Y-67781116D01*
X92582743Y-67908363D01*
X92619025Y-67968074D01*
X92617264Y-68037922D01*
X92582744Y-68091637D01*
X92443157Y-68218887D01*
X92314216Y-68389632D01*
X92218848Y-68581159D01*
X92160295Y-68786949D01*
X92140554Y-69000000D01*
X92160295Y-69213050D01*
X92218848Y-69418840D01*
X92314216Y-69610367D01*
X92443159Y-69781115D01*
X92601273Y-69925254D01*
X92601274Y-69925255D01*
X92601278Y-69925258D01*
X92618791Y-69936102D01*
X92665426Y-69988126D01*
X92670165Y-70016614D01*
X93255599Y-70602047D01*
X93174852Y-70614836D01*
X93061955Y-70672360D01*
X92972359Y-70761956D01*
X92914835Y-70874853D01*
X92902046Y-70955599D01*
X92323980Y-70377533D01*
X92314646Y-70389896D01*
X92219315Y-70581344D01*
X92160789Y-70787043D01*
X92141056Y-71000001D01*
X92160789Y-71212958D01*
X92219315Y-71418657D01*
X92314646Y-71610106D01*
X92323980Y-71622467D01*
X92902046Y-71044401D01*
X92914835Y-71125149D01*
X92972359Y-71238046D01*
X93061955Y-71327642D01*
X93174852Y-71385166D01*
X93255599Y-71397954D01*
X92669909Y-71983642D01*
X92664860Y-72013040D01*
X92618795Y-72063894D01*
X92601277Y-72074741D01*
X92443159Y-72218883D01*
X92314216Y-72389631D01*
X92218848Y-72581158D01*
X92160295Y-72786948D01*
X92140554Y-72999998D01*
X92160295Y-73213049D01*
X92218848Y-73418839D01*
X92314216Y-73610366D01*
X92443159Y-73781114D01*
X92582745Y-73908362D01*
X92619027Y-73968073D01*
X92617266Y-74037920D01*
X92582745Y-74091636D01*
X92443159Y-74218884D01*
X92314216Y-74389632D01*
X92218848Y-74581159D01*
X92160295Y-74786949D01*
X92140554Y-74999999D01*
X92160295Y-75213050D01*
X92218848Y-75418840D01*
X92314216Y-75610367D01*
X92443159Y-75781115D01*
X92582743Y-75908362D01*
X92619025Y-75968073D01*
X92617264Y-76037921D01*
X92582744Y-76091636D01*
X92443157Y-76218886D01*
X92314216Y-76389631D01*
X92218848Y-76581158D01*
X92160295Y-76786948D01*
X92140554Y-76999999D01*
X90013809Y-76999999D01*
X90018847Y-63700000D01*
X97894540Y-63700000D01*
X97914326Y-63888257D01*
X97972820Y-64068284D01*
X98067466Y-64232216D01*
X98194129Y-64372889D01*
X98347269Y-64484151D01*
X98520197Y-64561144D01*
X98705352Y-64600500D01*
X98705354Y-64600500D01*
X98894648Y-64600500D01*
X99079800Y-64561145D01*
X99079801Y-64561144D01*
X99079803Y-64561144D01*
X99199564Y-64507821D01*
X99268813Y-64498537D01*
X99300434Y-64507821D01*
X99395336Y-64550075D01*
X99420199Y-64561145D01*
X99605352Y-64600500D01*
X99605354Y-64600500D01*
X99794648Y-64600500D01*
X99918084Y-64574262D01*
X99979803Y-64561144D01*
X100152730Y-64484151D01*
X100305871Y-64372888D01*
X100432533Y-64232216D01*
X100527179Y-64068284D01*
X100585674Y-63888256D01*
X100605460Y-63700000D01*
X100585674Y-63511744D01*
X100556426Y-63421729D01*
X100527180Y-63331718D01*
X100522409Y-63323455D01*
X100515795Y-63311998D01*
X100499323Y-63244101D01*
X100515796Y-63187999D01*
X100527178Y-63168285D01*
X100527179Y-63168284D01*
X100585674Y-62988256D01*
X100605460Y-62800000D01*
X100585674Y-62611744D01*
X100545628Y-62488495D01*
X100527180Y-62431718D01*
X100515796Y-62412001D01*
X100499323Y-62344101D01*
X100515796Y-62287999D01*
X100527179Y-62268284D01*
X100585674Y-62088256D01*
X100605460Y-61900000D01*
X100585674Y-61711744D01*
X100527179Y-61531716D01*
X100515795Y-61511998D01*
X100499323Y-61444101D01*
X100515796Y-61387999D01*
X100527178Y-61368285D01*
X100527179Y-61368284D01*
X100585674Y-61188256D01*
X100605460Y-61000000D01*
X100585674Y-60811744D01*
X100527179Y-60631716D01*
X100527179Y-60631715D01*
X100432533Y-60467783D01*
X100305870Y-60327110D01*
X100152730Y-60215848D01*
X99979802Y-60138855D01*
X99794648Y-60099500D01*
X99794646Y-60099500D01*
X99605354Y-60099500D01*
X99605352Y-60099500D01*
X99420199Y-60138854D01*
X99300435Y-60192177D01*
X99231185Y-60201461D01*
X99199565Y-60192177D01*
X99079800Y-60138854D01*
X98894648Y-60099500D01*
X98894646Y-60099500D01*
X98705354Y-60099500D01*
X98705352Y-60099500D01*
X98520197Y-60138855D01*
X98347269Y-60215848D01*
X98194129Y-60327110D01*
X98067466Y-60467783D01*
X97972820Y-60631715D01*
X97914326Y-60811742D01*
X97894540Y-61000000D01*
X97914326Y-61188257D01*
X97972821Y-61368285D01*
X97984204Y-61388002D01*
X98000675Y-61455902D01*
X97984204Y-61511998D01*
X97972821Y-61531714D01*
X97914326Y-61711742D01*
X97894540Y-61899999D01*
X97914326Y-62088257D01*
X97972820Y-62268284D01*
X97984203Y-62287999D01*
X98000676Y-62355899D01*
X97984205Y-62411996D01*
X97972820Y-62431715D01*
X97914326Y-62611742D01*
X97894540Y-62799999D01*
X97914326Y-62988257D01*
X97972821Y-63168285D01*
X97984204Y-63188002D01*
X98000675Y-63255902D01*
X97984204Y-63311998D01*
X97972821Y-63331714D01*
X97914326Y-63511742D01*
X97894540Y-63700000D01*
X90018847Y-63700000D01*
X90021319Y-57175000D01*
X105219540Y-57175000D01*
X105239326Y-57363257D01*
X105297820Y-57543284D01*
X105392466Y-57707216D01*
X105519129Y-57847889D01*
X105672269Y-57959151D01*
X105845197Y-58036144D01*
X106030352Y-58075500D01*
X106030354Y-58075500D01*
X106219648Y-58075500D01*
X106343084Y-58049262D01*
X106404803Y-58036144D01*
X106577730Y-57959151D01*
X106698365Y-57871505D01*
X106730870Y-57847889D01*
X106857533Y-57707216D01*
X106926651Y-57587500D01*
X106977218Y-57539285D01*
X107034038Y-57525500D01*
X107119648Y-57525500D01*
X107243084Y-57499262D01*
X107304803Y-57486144D01*
X107363525Y-57459999D01*
X118144340Y-57459999D01*
X118164936Y-57695407D01*
X118189119Y-57785658D01*
X118226097Y-57923663D01*
X118325965Y-58137830D01*
X118461505Y-58331401D01*
X118628599Y-58498495D01*
X118814596Y-58628732D01*
X118858219Y-58683307D01*
X118865412Y-58752806D01*
X118833890Y-58815160D01*
X118814595Y-58831880D01*
X118628919Y-58961892D01*
X118461890Y-59128921D01*
X118326400Y-59322421D01*
X118226569Y-59536507D01*
X118169364Y-59749999D01*
X118169364Y-59750000D01*
X119066314Y-59750000D01*
X119040507Y-59790156D01*
X119000000Y-59928111D01*
X119000000Y-60071889D01*
X119040507Y-60209844D01*
X119066314Y-60250000D01*
X118169364Y-60250000D01*
X118226569Y-60463492D01*
X118326399Y-60677576D01*
X118461893Y-60871081D01*
X118583946Y-60993134D01*
X118617431Y-61054457D01*
X118612447Y-61124149D01*
X118570575Y-61180082D01*
X118539599Y-61196997D01*
X118407669Y-61246204D01*
X118292454Y-61332454D01*
X118206204Y-61447668D01*
X118155910Y-61582515D01*
X118155909Y-61582517D01*
X118149500Y-61642127D01*
X118149500Y-61645448D01*
X118149500Y-61645449D01*
X118149500Y-63434560D01*
X118149500Y-63434578D01*
X118149501Y-63437872D01*
X118155909Y-63497483D01*
X118206204Y-63632331D01*
X118292454Y-63747546D01*
X118407669Y-63833796D01*
X118542517Y-63884091D01*
X118602127Y-63890500D01*
X120397872Y-63890499D01*
X120457483Y-63884091D01*
X120592331Y-63833796D01*
X120707546Y-63747546D01*
X120793796Y-63632331D01*
X120844091Y-63497483D01*
X120850500Y-63437873D01*
X120850499Y-61642128D01*
X120844091Y-61582517D01*
X120793796Y-61447669D01*
X120707546Y-61332454D01*
X120592331Y-61246204D01*
X120460399Y-61196996D01*
X120404467Y-61155125D01*
X120380050Y-61089661D01*
X120394902Y-61021388D01*
X120416053Y-60993133D01*
X120538109Y-60871077D01*
X120673600Y-60677576D01*
X120773430Y-60463492D01*
X120830636Y-60250000D01*
X119933686Y-60250000D01*
X119959493Y-60209844D01*
X120000000Y-60071889D01*
X120000000Y-59928111D01*
X119959493Y-59790156D01*
X119933686Y-59750000D01*
X120830636Y-59750000D01*
X120830635Y-59749999D01*
X120773430Y-59536507D01*
X120673599Y-59322421D01*
X120538109Y-59128921D01*
X120371081Y-58961893D01*
X120185404Y-58831880D01*
X120141780Y-58777303D01*
X120134587Y-58707804D01*
X120166109Y-58645450D01*
X120185399Y-58628734D01*
X120371401Y-58498495D01*
X120538495Y-58331401D01*
X120674035Y-58137830D01*
X120773903Y-57923663D01*
X120835063Y-57695408D01*
X120855659Y-57460000D01*
X120851152Y-57408491D01*
X120835063Y-57224592D01*
X120787700Y-57047830D01*
X120773903Y-56996337D01*
X120674035Y-56782171D01*
X120538495Y-56588599D01*
X120371401Y-56421505D01*
X120177830Y-56285965D01*
X119963663Y-56186097D01*
X119902501Y-56169709D01*
X119735407Y-56124936D01*
X119500000Y-56104340D01*
X119264592Y-56124936D01*
X119036336Y-56186097D01*
X118822170Y-56285965D01*
X118628598Y-56421505D01*
X118461505Y-56588598D01*
X118325965Y-56782170D01*
X118226097Y-56996336D01*
X118164936Y-57224592D01*
X118144340Y-57459999D01*
X107363525Y-57459999D01*
X107477730Y-57409151D01*
X107540899Y-57363256D01*
X107630870Y-57297889D01*
X107757533Y-57157216D01*
X107852179Y-56993284D01*
X107904043Y-56833663D01*
X107910674Y-56813256D01*
X107930460Y-56625000D01*
X107910674Y-56436744D01*
X107852179Y-56256716D01*
X107826360Y-56211997D01*
X107809888Y-56144099D01*
X107826360Y-56088003D01*
X107852179Y-56043284D01*
X107910674Y-55863256D01*
X107930460Y-55675000D01*
X107910674Y-55486744D01*
X107870745Y-55363855D01*
X107852179Y-55306715D01*
X107757533Y-55142783D01*
X107630870Y-55002110D01*
X107477730Y-54890848D01*
X107304802Y-54813855D01*
X107119648Y-54774500D01*
X107119646Y-54774500D01*
X106930354Y-54774500D01*
X106930352Y-54774500D01*
X106745197Y-54813855D01*
X106572269Y-54890848D01*
X106419129Y-55002110D01*
X106292466Y-55142783D01*
X106223349Y-55262500D01*
X106172782Y-55310715D01*
X106115962Y-55324500D01*
X106030352Y-55324500D01*
X105845197Y-55363855D01*
X105672269Y-55440848D01*
X105519129Y-55552110D01*
X105392466Y-55692783D01*
X105297820Y-55856715D01*
X105239326Y-56036742D01*
X105219540Y-56225000D01*
X105239326Y-56413257D01*
X105297820Y-56593284D01*
X105323637Y-56638000D01*
X105340110Y-56705901D01*
X105323637Y-56762000D01*
X105297820Y-56806715D01*
X105239326Y-56986742D01*
X105219540Y-57175000D01*
X90021319Y-57175000D01*
X90023467Y-51503605D01*
X99645380Y-51503605D01*
X99664262Y-51827812D01*
X99665101Y-51834991D01*
X99721494Y-52154811D01*
X99723156Y-52161824D01*
X99816305Y-52472963D01*
X99818761Y-52479712D01*
X99947402Y-52777934D01*
X99950635Y-52784370D01*
X100113016Y-53065623D01*
X100116982Y-53071654D01*
X100312358Y-53334088D01*
X101385073Y-52261372D01*
X101461890Y-52371078D01*
X101628922Y-52538110D01*
X101738626Y-52614925D01*
X100669289Y-53684261D01*
X100669290Y-53684262D01*
X100792441Y-53787598D01*
X100798239Y-53791915D01*
X101069565Y-53970369D01*
X101075814Y-53973976D01*
X101366022Y-54119725D01*
X101372661Y-54122588D01*
X101677838Y-54233664D01*
X101684728Y-54235727D01*
X102000768Y-54310630D01*
X102007834Y-54311876D01*
X102330435Y-54349582D01*
X102337605Y-54350000D01*
X102662395Y-54350000D01*
X102669564Y-54349582D01*
X102992165Y-54311876D01*
X102999231Y-54310630D01*
X103315271Y-54235727D01*
X103322161Y-54233664D01*
X103627338Y-54122588D01*
X103633977Y-54119725D01*
X103924185Y-53973976D01*
X103930434Y-53970369D01*
X104201760Y-53791915D01*
X104207558Y-53787598D01*
X104330708Y-53684262D01*
X104330709Y-53684261D01*
X103261373Y-52614925D01*
X103371078Y-52538110D01*
X103538110Y-52371078D01*
X103614926Y-52261373D01*
X104687640Y-53334088D01*
X104883017Y-53071654D01*
X104886983Y-53065623D01*
X105049364Y-52784370D01*
X105052597Y-52777934D01*
X105181238Y-52479712D01*
X105183694Y-52472963D01*
X105276843Y-52161824D01*
X105278505Y-52154811D01*
X105334898Y-51834991D01*
X105335737Y-51827812D01*
X105354620Y-51503605D01*
X148645380Y-51503605D01*
X148664262Y-51827812D01*
X148665101Y-51834991D01*
X148721494Y-52154811D01*
X148723156Y-52161824D01*
X148816305Y-52472963D01*
X148818761Y-52479712D01*
X148947402Y-52777934D01*
X148950635Y-52784370D01*
X149113016Y-53065623D01*
X149116982Y-53071654D01*
X149312358Y-53334088D01*
X150385073Y-52261372D01*
X150461890Y-52371078D01*
X150628922Y-52538110D01*
X150738626Y-52614925D01*
X149669289Y-53684261D01*
X149669290Y-53684262D01*
X149792441Y-53787598D01*
X149798239Y-53791915D01*
X150069565Y-53970369D01*
X150075814Y-53973976D01*
X150366022Y-54119725D01*
X150372661Y-54122588D01*
X150677838Y-54233664D01*
X150684728Y-54235727D01*
X151000768Y-54310630D01*
X151007834Y-54311876D01*
X151330435Y-54349582D01*
X151337605Y-54350000D01*
X151662395Y-54350000D01*
X151669564Y-54349582D01*
X151992165Y-54311876D01*
X151999231Y-54310630D01*
X152315271Y-54235727D01*
X152322161Y-54233664D01*
X152627338Y-54122588D01*
X152633977Y-54119725D01*
X152924185Y-53973976D01*
X152930434Y-53970369D01*
X153201760Y-53791915D01*
X153207558Y-53787598D01*
X153330708Y-53684262D01*
X153330709Y-53684261D01*
X152261373Y-52614925D01*
X152371078Y-52538110D01*
X152538110Y-52371078D01*
X152614926Y-52261373D01*
X153687640Y-53334088D01*
X153883017Y-53071654D01*
X153886983Y-53065623D01*
X154049364Y-52784370D01*
X154052597Y-52777934D01*
X154181238Y-52479712D01*
X154183694Y-52472963D01*
X154276843Y-52161824D01*
X154278505Y-52154811D01*
X154334898Y-51834991D01*
X154335737Y-51827812D01*
X154354620Y-51503605D01*
X154354620Y-51496394D01*
X154335737Y-51172187D01*
X154334898Y-51165008D01*
X154278505Y-50845188D01*
X154276843Y-50838175D01*
X154183694Y-50527036D01*
X154181238Y-50520287D01*
X154052597Y-50222065D01*
X154049364Y-50215629D01*
X153886983Y-49934376D01*
X153883017Y-49928345D01*
X153687640Y-49665910D01*
X152614925Y-50738625D01*
X152538110Y-50628922D01*
X152371078Y-50461890D01*
X152261372Y-50385073D01*
X153330709Y-49315737D01*
X153330708Y-49315736D01*
X153207558Y-49212401D01*
X153201760Y-49208084D01*
X152930434Y-49029630D01*
X152924185Y-49026023D01*
X152633977Y-48880274D01*
X152627338Y-48877411D01*
X152322161Y-48766335D01*
X152315271Y-48764272D01*
X151999231Y-48689369D01*
X151992165Y-48688123D01*
X151669564Y-48650417D01*
X151662395Y-48650000D01*
X151337605Y-48650000D01*
X151330435Y-48650417D01*
X151007834Y-48688123D01*
X151000768Y-48689369D01*
X150684728Y-48764272D01*
X150677838Y-48766335D01*
X150372661Y-48877411D01*
X150366022Y-48880274D01*
X150075814Y-49026023D01*
X150069565Y-49029630D01*
X149798241Y-49208083D01*
X149792440Y-49212402D01*
X149669289Y-49315736D01*
X149669289Y-49315737D01*
X150738625Y-50385074D01*
X150628922Y-50461890D01*
X150461890Y-50628922D01*
X150385073Y-50738626D01*
X149312357Y-49665910D01*
X149116983Y-49928344D01*
X149113016Y-49934376D01*
X148950635Y-50215629D01*
X148947402Y-50222065D01*
X148818761Y-50520287D01*
X148816305Y-50527036D01*
X148723156Y-50838175D01*
X148721494Y-50845188D01*
X148665101Y-51165008D01*
X148664262Y-51172187D01*
X148645380Y-51496394D01*
X148645380Y-51503605D01*
X105354620Y-51503605D01*
X105354620Y-51496394D01*
X105335737Y-51172187D01*
X105334898Y-51165008D01*
X105278505Y-50845188D01*
X105276843Y-50838175D01*
X105183694Y-50527036D01*
X105181238Y-50520287D01*
X105052597Y-50222065D01*
X105049364Y-50215629D01*
X104886983Y-49934376D01*
X104883017Y-49928345D01*
X104687640Y-49665910D01*
X103614925Y-50738625D01*
X103538110Y-50628922D01*
X103371078Y-50461890D01*
X103261373Y-50385073D01*
X104330709Y-49315737D01*
X104330708Y-49315736D01*
X104207558Y-49212401D01*
X104201760Y-49208084D01*
X103930434Y-49029630D01*
X103924185Y-49026023D01*
X103633977Y-48880274D01*
X103627338Y-48877411D01*
X103322161Y-48766335D01*
X103315271Y-48764272D01*
X102999231Y-48689369D01*
X102992165Y-48688123D01*
X102669564Y-48650417D01*
X102662395Y-48650000D01*
X129344540Y-48650000D01*
X129364326Y-48838257D01*
X129422820Y-49018284D01*
X129517466Y-49182216D01*
X129644129Y-49322889D01*
X129797269Y-49434151D01*
X129970193Y-49511143D01*
X129970196Y-49511143D01*
X129970197Y-49511144D01*
X130027400Y-49523302D01*
X130088879Y-49556493D01*
X130119548Y-49606270D01*
X130147821Y-49693284D01*
X130147822Y-49693286D01*
X130147823Y-49693288D01*
X130242465Y-49857214D01*
X130369129Y-49997889D01*
X130522269Y-50109151D01*
X130695197Y-50186144D01*
X130880352Y-50225500D01*
X130880354Y-50225500D01*
X131069648Y-50225500D01*
X131193083Y-50199262D01*
X131254803Y-50186144D01*
X131427730Y-50109151D01*
X131580871Y-49997888D01*
X131707533Y-49857216D01*
X131802179Y-49693284D01*
X131860674Y-49513256D01*
X131880460Y-49325000D01*
X131860674Y-49136744D01*
X131822184Y-49018284D01*
X131802179Y-48956715D01*
X131707533Y-48792783D01*
X131580870Y-48652110D01*
X131543555Y-48624999D01*
X141944540Y-48624999D01*
X141964326Y-48813257D01*
X142022820Y-48993284D01*
X142117466Y-49157216D01*
X142244129Y-49297889D01*
X142397269Y-49409151D01*
X142570197Y-49486144D01*
X142755352Y-49525500D01*
X142755354Y-49525500D01*
X142944648Y-49525500D01*
X143068083Y-49499262D01*
X143129803Y-49486144D01*
X143302730Y-49409151D01*
X143455870Y-49297889D01*
X143582533Y-49157216D01*
X143666085Y-49012500D01*
X143716652Y-48964285D01*
X143757162Y-48954456D01*
X143756898Y-48953210D01*
X143880295Y-48926980D01*
X143954803Y-48911144D01*
X144127730Y-48834151D01*
X144184667Y-48792784D01*
X144280870Y-48722889D01*
X144407533Y-48582216D01*
X144502179Y-48418284D01*
X144518282Y-48368725D01*
X144560674Y-48238256D01*
X144580460Y-48050000D01*
X144560674Y-47861744D01*
X144528868Y-47763855D01*
X144502179Y-47681715D01*
X144407533Y-47517783D01*
X144280870Y-47377110D01*
X144127730Y-47265848D01*
X143954802Y-47188855D01*
X143769648Y-47149500D01*
X143769646Y-47149500D01*
X143580354Y-47149500D01*
X143580352Y-47149500D01*
X143395197Y-47188855D01*
X143222269Y-47265848D01*
X143069129Y-47377110D01*
X142942466Y-47517783D01*
X142858915Y-47662500D01*
X142808348Y-47710715D01*
X142767837Y-47720543D01*
X142768102Y-47721790D01*
X142570197Y-47763855D01*
X142397269Y-47840848D01*
X142244129Y-47952110D01*
X142117466Y-48092783D01*
X142022820Y-48256715D01*
X141964326Y-48436742D01*
X141944540Y-48624999D01*
X131543555Y-48624999D01*
X131427732Y-48540849D01*
X131254801Y-48463855D01*
X131197600Y-48451697D01*
X131136118Y-48418504D01*
X131105450Y-48368725D01*
X131077179Y-48281715D01*
X130982533Y-48117783D01*
X130855870Y-47977110D01*
X130702730Y-47865848D01*
X130529802Y-47788855D01*
X130344648Y-47749500D01*
X130344646Y-47749500D01*
X130155354Y-47749500D01*
X130155352Y-47749500D01*
X129970197Y-47788855D01*
X129797269Y-47865848D01*
X129644129Y-47977110D01*
X129517466Y-48117783D01*
X129422820Y-48281715D01*
X129364326Y-48461742D01*
X129344540Y-48650000D01*
X102662395Y-48650000D01*
X102337605Y-48650000D01*
X102330435Y-48650417D01*
X102007834Y-48688123D01*
X102000768Y-48689369D01*
X101684728Y-48764272D01*
X101677838Y-48766335D01*
X101372661Y-48877411D01*
X101366022Y-48880274D01*
X101075814Y-49026023D01*
X101069565Y-49029630D01*
X100798241Y-49208083D01*
X100792440Y-49212402D01*
X100669289Y-49315736D01*
X101738626Y-50385073D01*
X101628922Y-50461890D01*
X101461890Y-50628922D01*
X101385073Y-50738626D01*
X100312357Y-49665910D01*
X100116983Y-49928344D01*
X100113016Y-49934376D01*
X99950635Y-50215629D01*
X99947402Y-50222065D01*
X99818761Y-50520287D01*
X99816305Y-50527036D01*
X99723156Y-50838175D01*
X99721494Y-50845188D01*
X99665101Y-51165008D01*
X99664262Y-51172187D01*
X99645380Y-51496394D01*
X99645380Y-51503605D01*
X90023467Y-51503605D01*
X90024929Y-47645680D01*
X90026456Y-47626336D01*
X90042610Y-47524341D01*
X90051739Y-47470608D01*
X90069738Y-47364671D01*
X90072206Y-47353379D01*
X90112425Y-47203279D01*
X90156353Y-47050803D01*
X90159721Y-47040759D01*
X90215583Y-46895233D01*
X90216692Y-46892452D01*
X90276439Y-46748212D01*
X90280488Y-46739429D01*
X90351569Y-46599925D01*
X90353521Y-46596250D01*
X90428588Y-46460426D01*
X90433065Y-46452962D01*
X90518633Y-46321199D01*
X90521434Y-46317077D01*
X90611010Y-46190832D01*
X90615733Y-46184603D01*
X90714702Y-46062386D01*
X90718532Y-46057885D01*
X90821613Y-45942537D01*
X90826323Y-45937556D01*
X90937556Y-45826323D01*
X90942537Y-45821613D01*
X91057885Y-45718532D01*
X91062386Y-45714702D01*
X91184603Y-45615733D01*
X91190832Y-45611010D01*
X91317077Y-45521434D01*
X91321199Y-45518633D01*
X91452962Y-45433065D01*
X91460426Y-45428588D01*
X91596255Y-45353517D01*
X91599934Y-45351565D01*
X91739429Y-45280488D01*
X91748212Y-45276439D01*
X91892452Y-45216692D01*
X91895233Y-45215583D01*
X92040753Y-45159724D01*
X92050818Y-45156349D01*
X92203292Y-45112422D01*
X92353407Y-45072198D01*
X92364672Y-45069739D01*
X92524337Y-45042610D01*
X92673688Y-45018955D01*
X92686098Y-45017627D01*
X92866566Y-45007493D01*
X92996756Y-45000669D01*
X93003245Y-45000500D01*
X122555973Y-45000500D01*
X122623012Y-45020185D01*
G37*
%TD.AperFunction*%
%TD*%
M02*
