%TF.GenerationSoftware,KiCad,Pcbnew,9.0.0*%
%TF.CreationDate,2025-03-21T19:29:39-07:00*%
%TF.ProjectId,Coil_Panel_Z,436f696c-5f50-4616-9e65-6c5f5a2e6b69,1.1*%
%TF.SameCoordinates,Original*%
%TF.FileFunction,Copper,L6,Bot*%
%TF.FilePolarity,Positive*%
%FSLAX46Y46*%
G04 Gerber Fmt 4.6, Leading zero omitted, Abs format (unit mm)*
G04 Created by KiCad (PCBNEW 9.0.0) date 2025-03-21 19:29:39*
%MOMM*%
%LPD*%
G01*
G04 APERTURE LIST*
%TA.AperFunction,EtchedComponent*%
%ADD10C,0.000000*%
%TD*%
%TA.AperFunction,SMDPad,CuDef*%
%ADD11C,0.180000*%
%TD*%
%TA.AperFunction,ComponentPad*%
%ADD12C,2.600000*%
%TD*%
%TA.AperFunction,ConnectorPad*%
%ADD13C,3.800000*%
%TD*%
%TA.AperFunction,SMDPad,CuDef*%
%ADD14R,1.100000X1.450000*%
%TD*%
%TA.AperFunction,SMDPad,CuDef*%
%ADD15R,1.350000X2.899999*%
%TD*%
%TA.AperFunction,ViaPad*%
%ADD16C,0.650000*%
%TD*%
%TA.AperFunction,Conductor*%
%ADD17C,0.180000*%
%TD*%
%TA.AperFunction,Conductor*%
%ADD18C,0.250000*%
%TD*%
G04 APERTURE END LIST*
D10*
%TA.AperFunction,EtchedComponent*%
G36*
X100079000Y-147789000D02*
G01*
X99079000Y-147789000D01*
X99079000Y-147609000D01*
X100079000Y-147609000D01*
X100079000Y-147789000D01*
G37*
%TD.AperFunction*%
D11*
X100079000Y-147699000D03*
X99079000Y-147699000D03*
D12*
X91151143Y-148603288D03*
D13*
X91151143Y-148603288D03*
D12*
X147825143Y-63603288D03*
D13*
X147825143Y-63603288D03*
D12*
X147825143Y-148603288D03*
D13*
X147825143Y-148603288D03*
D12*
X91151143Y-63603288D03*
D13*
X91151143Y-63603288D03*
D12*
X102684000Y-147684000D03*
X110304000Y-147684000D03*
D14*
X105304000Y-141374000D03*
X107304001Y-141374000D03*
D15*
X102409002Y-135399001D03*
X110198997Y-135399001D03*
D16*
X81394000Y-132364000D03*
X83014000Y-132364000D03*
X84844000Y-142624000D03*
X82204000Y-132364000D03*
X83824000Y-132364000D03*
X83174000Y-142624000D03*
X80584000Y-132364000D03*
X85654000Y-142624000D03*
X83984000Y-142624000D03*
D17*
X100079000Y-147699000D02*
X102669000Y-147699000D01*
X102669000Y-147699000D02*
X102684000Y-147684000D01*
D18*
X102684000Y-147684000D02*
X105304000Y-145064000D01*
X105304000Y-145064000D02*
X105304000Y-141374000D01*
D17*
X99079000Y-147699000D02*
X83824000Y-132444000D01*
X83174000Y-142624000D02*
X80584000Y-132364000D01*
D18*
X83824000Y-132444000D02*
X83824000Y-132364000D01*
D17*
X85604000Y-142624000D02*
X83014000Y-132364000D01*
D18*
X107304001Y-144684001D02*
X107304001Y-141374000D01*
D17*
X83984000Y-142624000D02*
X81394000Y-132364000D01*
D18*
X110304000Y-147684000D02*
X107304001Y-144684001D01*
D17*
X84844000Y-142624000D02*
X82254000Y-132364000D01*
M02*
