%TF.GenerationSoftware,KiCad,Pcbnew,8.0.5*%
%TF.CreationDate,2024-12-07T17:39:48-08:00*%
%TF.ProjectId,Groundstation_433_Hat,47726f75-6e64-4737-9461-74696f6e5f34,1.2*%
%TF.SameCoordinates,Original*%
%TF.FileFunction,Legend,Top*%
%TF.FilePolarity,Positive*%
%FSLAX46Y46*%
G04 Gerber Fmt 4.6, Leading zero omitted, Abs format (unit mm)*
G04 Created by KiCad (PCBNEW 8.0.5) date 2024-12-07 17:39:48*
%MOMM*%
%LPD*%
G01*
G04 APERTURE LIST*
G04 Aperture macros list*
%AMRoundRect*
0 Rectangle with rounded corners*
0 $1 Rounding radius*
0 $2 $3 $4 $5 $6 $7 $8 $9 X,Y pos of 4 corners*
0 Add a 4 corners polygon primitive as box body*
4,1,4,$2,$3,$4,$5,$6,$7,$8,$9,$2,$3,0*
0 Add four circle primitives for the rounded corners*
1,1,$1+$1,$2,$3*
1,1,$1+$1,$4,$5*
1,1,$1+$1,$6,$7*
1,1,$1+$1,$8,$9*
0 Add four rect primitives between the rounded corners*
20,1,$1+$1,$2,$3,$4,$5,0*
20,1,$1+$1,$4,$5,$6,$7,0*
20,1,$1+$1,$6,$7,$8,$9,0*
20,1,$1+$1,$8,$9,$2,$3,0*%
G04 Aperture macros list end*
%ADD10C,0.150000*%
%ADD11C,0.300000*%
%ADD12C,0.100000*%
%ADD13C,0.120000*%
%ADD14C,0.127000*%
%ADD15C,0.200000*%
%ADD16RoundRect,0.225000X-0.225000X-0.250000X0.225000X-0.250000X0.225000X0.250000X-0.225000X0.250000X0*%
%ADD17RoundRect,0.150000X-0.150000X0.587500X-0.150000X-0.587500X0.150000X-0.587500X0.150000X0.587500X0*%
%ADD18RoundRect,0.200000X0.275000X-0.200000X0.275000X0.200000X-0.275000X0.200000X-0.275000X-0.200000X0*%
%ADD19RoundRect,0.102000X-0.762000X-0.762000X0.762000X-0.762000X0.762000X0.762000X-0.762000X0.762000X0*%
%ADD20C,1.728000*%
%ADD21C,4.016400*%
%ADD22RoundRect,0.200000X-0.275000X0.200000X-0.275000X-0.200000X0.275000X-0.200000X0.275000X0.200000X0*%
%ADD23C,6.000000*%
%ADD24RoundRect,0.225000X0.225000X0.250000X-0.225000X0.250000X-0.225000X-0.250000X0.225000X-0.250000X0*%
%ADD25C,1.524000*%
%ADD26RoundRect,0.150000X-0.587500X-0.150000X0.587500X-0.150000X0.587500X0.150000X-0.587500X0.150000X0*%
%ADD27RoundRect,0.190740X0.676260X-1.016260X0.676260X1.016260X-0.676260X1.016260X-0.676260X-1.016260X0*%
%ADD28R,1.700000X1.700000*%
%ADD29O,1.700000X1.700000*%
G04 APERTURE END LIST*
D10*
X180090716Y-104420099D02*
X180090716Y-103420099D01*
X180090716Y-103420099D02*
X180471668Y-103420099D01*
X180471668Y-103420099D02*
X180566906Y-103467718D01*
X180566906Y-103467718D02*
X180614525Y-103515337D01*
X180614525Y-103515337D02*
X180662144Y-103610575D01*
X180662144Y-103610575D02*
X180662144Y-103753432D01*
X180662144Y-103753432D02*
X180614525Y-103848670D01*
X180614525Y-103848670D02*
X180566906Y-103896289D01*
X180566906Y-103896289D02*
X180471668Y-103943908D01*
X180471668Y-103943908D02*
X180090716Y-103943908D01*
X180947859Y-103420099D02*
X181519287Y-103420099D01*
X181233573Y-104420099D02*
X181233573Y-103420099D01*
X181709764Y-103420099D02*
X182281192Y-103420099D01*
X181995478Y-104420099D02*
X181995478Y-103420099D01*
X183328811Y-103372480D02*
X182471669Y-104658194D01*
X184233573Y-104420099D02*
X183900240Y-103943908D01*
X183662145Y-104420099D02*
X183662145Y-103420099D01*
X183662145Y-103420099D02*
X184043097Y-103420099D01*
X184043097Y-103420099D02*
X184138335Y-103467718D01*
X184138335Y-103467718D02*
X184185954Y-103515337D01*
X184185954Y-103515337D02*
X184233573Y-103610575D01*
X184233573Y-103610575D02*
X184233573Y-103753432D01*
X184233573Y-103753432D02*
X184185954Y-103848670D01*
X184185954Y-103848670D02*
X184138335Y-103896289D01*
X184138335Y-103896289D02*
X184043097Y-103943908D01*
X184043097Y-103943908D02*
X183662145Y-103943908D01*
X185043097Y-104372480D02*
X184947859Y-104420099D01*
X184947859Y-104420099D02*
X184757383Y-104420099D01*
X184757383Y-104420099D02*
X184662145Y-104372480D01*
X184662145Y-104372480D02*
X184614526Y-104277241D01*
X184614526Y-104277241D02*
X184614526Y-103896289D01*
X184614526Y-103896289D02*
X184662145Y-103801051D01*
X184662145Y-103801051D02*
X184757383Y-103753432D01*
X184757383Y-103753432D02*
X184947859Y-103753432D01*
X184947859Y-103753432D02*
X185043097Y-103801051D01*
X185043097Y-103801051D02*
X185090716Y-103896289D01*
X185090716Y-103896289D02*
X185090716Y-103991527D01*
X185090716Y-103991527D02*
X184614526Y-104086765D01*
X185662145Y-104420099D02*
X185566907Y-104372480D01*
X185566907Y-104372480D02*
X185519288Y-104277241D01*
X185519288Y-104277241D02*
X185519288Y-103420099D01*
X186471669Y-104420099D02*
X186471669Y-103896289D01*
X186471669Y-103896289D02*
X186424050Y-103801051D01*
X186424050Y-103801051D02*
X186328812Y-103753432D01*
X186328812Y-103753432D02*
X186138336Y-103753432D01*
X186138336Y-103753432D02*
X186043098Y-103801051D01*
X186471669Y-104372480D02*
X186376431Y-104420099D01*
X186376431Y-104420099D02*
X186138336Y-104420099D01*
X186138336Y-104420099D02*
X186043098Y-104372480D01*
X186043098Y-104372480D02*
X185995479Y-104277241D01*
X185995479Y-104277241D02*
X185995479Y-104182003D01*
X185995479Y-104182003D02*
X186043098Y-104086765D01*
X186043098Y-104086765D02*
X186138336Y-104039146D01*
X186138336Y-104039146D02*
X186376431Y-104039146D01*
X186376431Y-104039146D02*
X186471669Y-103991527D01*
X186852622Y-103753432D02*
X187090717Y-104420099D01*
X187328812Y-103753432D02*
X187090717Y-104420099D01*
X187090717Y-104420099D02*
X186995479Y-104658194D01*
X186995479Y-104658194D02*
X186947860Y-104705813D01*
X186947860Y-104705813D02*
X186852622Y-104753432D01*
X188995479Y-103467718D02*
X188900241Y-103420099D01*
X188900241Y-103420099D02*
X188757384Y-103420099D01*
X188757384Y-103420099D02*
X188614527Y-103467718D01*
X188614527Y-103467718D02*
X188519289Y-103562956D01*
X188519289Y-103562956D02*
X188471670Y-103658194D01*
X188471670Y-103658194D02*
X188424051Y-103848670D01*
X188424051Y-103848670D02*
X188424051Y-103991527D01*
X188424051Y-103991527D02*
X188471670Y-104182003D01*
X188471670Y-104182003D02*
X188519289Y-104277241D01*
X188519289Y-104277241D02*
X188614527Y-104372480D01*
X188614527Y-104372480D02*
X188757384Y-104420099D01*
X188757384Y-104420099D02*
X188852622Y-104420099D01*
X188852622Y-104420099D02*
X188995479Y-104372480D01*
X188995479Y-104372480D02*
X189043098Y-104324860D01*
X189043098Y-104324860D02*
X189043098Y-103991527D01*
X189043098Y-103991527D02*
X188852622Y-103991527D01*
X189471670Y-104420099D02*
X189471670Y-103420099D01*
X189471670Y-103420099D02*
X189852622Y-103420099D01*
X189852622Y-103420099D02*
X189947860Y-103467718D01*
X189947860Y-103467718D02*
X189995479Y-103515337D01*
X189995479Y-103515337D02*
X190043098Y-103610575D01*
X190043098Y-103610575D02*
X190043098Y-103753432D01*
X190043098Y-103753432D02*
X189995479Y-103848670D01*
X189995479Y-103848670D02*
X189947860Y-103896289D01*
X189947860Y-103896289D02*
X189852622Y-103943908D01*
X189852622Y-103943908D02*
X189471670Y-103943908D01*
X190471670Y-104420099D02*
X190471670Y-103420099D01*
X191138336Y-103420099D02*
X191328812Y-103420099D01*
X191328812Y-103420099D02*
X191424050Y-103467718D01*
X191424050Y-103467718D02*
X191519288Y-103562956D01*
X191519288Y-103562956D02*
X191566907Y-103753432D01*
X191566907Y-103753432D02*
X191566907Y-104086765D01*
X191566907Y-104086765D02*
X191519288Y-104277241D01*
X191519288Y-104277241D02*
X191424050Y-104372480D01*
X191424050Y-104372480D02*
X191328812Y-104420099D01*
X191328812Y-104420099D02*
X191138336Y-104420099D01*
X191138336Y-104420099D02*
X191043098Y-104372480D01*
X191043098Y-104372480D02*
X190947860Y-104277241D01*
X190947860Y-104277241D02*
X190900241Y-104086765D01*
X190900241Y-104086765D02*
X190900241Y-103753432D01*
X190900241Y-103753432D02*
X190947860Y-103562956D01*
X190947860Y-103562956D02*
X191043098Y-103467718D01*
X191043098Y-103467718D02*
X191138336Y-103420099D01*
X191947860Y-104372480D02*
X192043098Y-104420099D01*
X192043098Y-104420099D02*
X192233574Y-104420099D01*
X192233574Y-104420099D02*
X192328812Y-104372480D01*
X192328812Y-104372480D02*
X192376431Y-104277241D01*
X192376431Y-104277241D02*
X192376431Y-104229622D01*
X192376431Y-104229622D02*
X192328812Y-104134384D01*
X192328812Y-104134384D02*
X192233574Y-104086765D01*
X192233574Y-104086765D02*
X192090717Y-104086765D01*
X192090717Y-104086765D02*
X191995479Y-104039146D01*
X191995479Y-104039146D02*
X191947860Y-103943908D01*
X191947860Y-103943908D02*
X191947860Y-103896289D01*
X191947860Y-103896289D02*
X191995479Y-103801051D01*
X191995479Y-103801051D02*
X192090717Y-103753432D01*
X192090717Y-103753432D02*
X192233574Y-103753432D01*
X192233574Y-103753432D02*
X192328812Y-103801051D01*
X180090716Y-106030043D02*
X180090716Y-105030043D01*
X180090716Y-105030043D02*
X180471668Y-105030043D01*
X180471668Y-105030043D02*
X180566906Y-105077662D01*
X180566906Y-105077662D02*
X180614525Y-105125281D01*
X180614525Y-105125281D02*
X180662144Y-105220519D01*
X180662144Y-105220519D02*
X180662144Y-105363376D01*
X180662144Y-105363376D02*
X180614525Y-105458614D01*
X180614525Y-105458614D02*
X180566906Y-105506233D01*
X180566906Y-105506233D02*
X180471668Y-105553852D01*
X180471668Y-105553852D02*
X180090716Y-105553852D01*
X180947859Y-105030043D02*
X181519287Y-105030043D01*
X181233573Y-106030043D02*
X181233573Y-105030043D01*
X181709764Y-105030043D02*
X182281192Y-105030043D01*
X181995478Y-106030043D02*
X181995478Y-105030043D01*
X182376431Y-106125281D02*
X183138335Y-106125281D01*
X183566907Y-105030043D02*
X183757383Y-105030043D01*
X183757383Y-105030043D02*
X183852621Y-105077662D01*
X183852621Y-105077662D02*
X183947859Y-105172900D01*
X183947859Y-105172900D02*
X183995478Y-105363376D01*
X183995478Y-105363376D02*
X183995478Y-105696709D01*
X183995478Y-105696709D02*
X183947859Y-105887185D01*
X183947859Y-105887185D02*
X183852621Y-105982424D01*
X183852621Y-105982424D02*
X183757383Y-106030043D01*
X183757383Y-106030043D02*
X183566907Y-106030043D01*
X183566907Y-106030043D02*
X183471669Y-105982424D01*
X183471669Y-105982424D02*
X183376431Y-105887185D01*
X183376431Y-105887185D02*
X183328812Y-105696709D01*
X183328812Y-105696709D02*
X183328812Y-105363376D01*
X183328812Y-105363376D02*
X183376431Y-105172900D01*
X183376431Y-105172900D02*
X183471669Y-105077662D01*
X183471669Y-105077662D02*
X183566907Y-105030043D01*
X184424050Y-105030043D02*
X184424050Y-105839566D01*
X184424050Y-105839566D02*
X184471669Y-105934804D01*
X184471669Y-105934804D02*
X184519288Y-105982424D01*
X184519288Y-105982424D02*
X184614526Y-106030043D01*
X184614526Y-106030043D02*
X184805002Y-106030043D01*
X184805002Y-106030043D02*
X184900240Y-105982424D01*
X184900240Y-105982424D02*
X184947859Y-105934804D01*
X184947859Y-105934804D02*
X184995478Y-105839566D01*
X184995478Y-105839566D02*
X184995478Y-105030043D01*
X185328812Y-105030043D02*
X185900240Y-105030043D01*
X185614526Y-106030043D02*
X185614526Y-105030043D01*
X186233574Y-105934804D02*
X186281193Y-105982424D01*
X186281193Y-105982424D02*
X186233574Y-106030043D01*
X186233574Y-106030043D02*
X186185955Y-105982424D01*
X186185955Y-105982424D02*
X186233574Y-105934804D01*
X186233574Y-105934804D02*
X186233574Y-106030043D01*
X186233574Y-105410995D02*
X186281193Y-105458614D01*
X186281193Y-105458614D02*
X186233574Y-105506233D01*
X186233574Y-105506233D02*
X186185955Y-105458614D01*
X186185955Y-105458614D02*
X186233574Y-105410995D01*
X186233574Y-105410995D02*
X186233574Y-105506233D01*
X187424050Y-105125281D02*
X187471669Y-105077662D01*
X187471669Y-105077662D02*
X187566907Y-105030043D01*
X187566907Y-105030043D02*
X187805002Y-105030043D01*
X187805002Y-105030043D02*
X187900240Y-105077662D01*
X187900240Y-105077662D02*
X187947859Y-105125281D01*
X187947859Y-105125281D02*
X187995478Y-105220519D01*
X187995478Y-105220519D02*
X187995478Y-105315757D01*
X187995478Y-105315757D02*
X187947859Y-105458614D01*
X187947859Y-105458614D02*
X187376431Y-106030043D01*
X187376431Y-106030043D02*
X187995478Y-106030043D01*
X188328812Y-105030043D02*
X188995478Y-105030043D01*
X188995478Y-105030043D02*
X188566907Y-106030043D01*
X180043097Y-107592368D02*
X180185954Y-107639987D01*
X180185954Y-107639987D02*
X180424049Y-107639987D01*
X180424049Y-107639987D02*
X180519287Y-107592368D01*
X180519287Y-107592368D02*
X180566906Y-107544748D01*
X180566906Y-107544748D02*
X180614525Y-107449510D01*
X180614525Y-107449510D02*
X180614525Y-107354272D01*
X180614525Y-107354272D02*
X180566906Y-107259034D01*
X180566906Y-107259034D02*
X180519287Y-107211415D01*
X180519287Y-107211415D02*
X180424049Y-107163796D01*
X180424049Y-107163796D02*
X180233573Y-107116177D01*
X180233573Y-107116177D02*
X180138335Y-107068558D01*
X180138335Y-107068558D02*
X180090716Y-107020939D01*
X180090716Y-107020939D02*
X180043097Y-106925701D01*
X180043097Y-106925701D02*
X180043097Y-106830463D01*
X180043097Y-106830463D02*
X180090716Y-106735225D01*
X180090716Y-106735225D02*
X180138335Y-106687606D01*
X180138335Y-106687606D02*
X180233573Y-106639987D01*
X180233573Y-106639987D02*
X180471668Y-106639987D01*
X180471668Y-106639987D02*
X180614525Y-106687606D01*
X181043097Y-107639987D02*
X181043097Y-106639987D01*
X181043097Y-106639987D02*
X181281192Y-106639987D01*
X181281192Y-106639987D02*
X181424049Y-106687606D01*
X181424049Y-106687606D02*
X181519287Y-106782844D01*
X181519287Y-106782844D02*
X181566906Y-106878082D01*
X181566906Y-106878082D02*
X181614525Y-107068558D01*
X181614525Y-107068558D02*
X181614525Y-107211415D01*
X181614525Y-107211415D02*
X181566906Y-107401891D01*
X181566906Y-107401891D02*
X181519287Y-107497129D01*
X181519287Y-107497129D02*
X181424049Y-107592368D01*
X181424049Y-107592368D02*
X181281192Y-107639987D01*
X181281192Y-107639987D02*
X181043097Y-107639987D01*
X182614525Y-107639987D02*
X182281192Y-107163796D01*
X182043097Y-107639987D02*
X182043097Y-106639987D01*
X182043097Y-106639987D02*
X182424049Y-106639987D01*
X182424049Y-106639987D02*
X182519287Y-106687606D01*
X182519287Y-106687606D02*
X182566906Y-106735225D01*
X182566906Y-106735225D02*
X182614525Y-106830463D01*
X182614525Y-106830463D02*
X182614525Y-106973320D01*
X182614525Y-106973320D02*
X182566906Y-107068558D01*
X182566906Y-107068558D02*
X182519287Y-107116177D01*
X182519287Y-107116177D02*
X182424049Y-107163796D01*
X182424049Y-107163796D02*
X182043097Y-107163796D01*
X182805002Y-107735225D02*
X183566906Y-107735225D01*
X184376430Y-107544748D02*
X184328811Y-107592368D01*
X184328811Y-107592368D02*
X184185954Y-107639987D01*
X184185954Y-107639987D02*
X184090716Y-107639987D01*
X184090716Y-107639987D02*
X183947859Y-107592368D01*
X183947859Y-107592368D02*
X183852621Y-107497129D01*
X183852621Y-107497129D02*
X183805002Y-107401891D01*
X183805002Y-107401891D02*
X183757383Y-107211415D01*
X183757383Y-107211415D02*
X183757383Y-107068558D01*
X183757383Y-107068558D02*
X183805002Y-106878082D01*
X183805002Y-106878082D02*
X183852621Y-106782844D01*
X183852621Y-106782844D02*
X183947859Y-106687606D01*
X183947859Y-106687606D02*
X184090716Y-106639987D01*
X184090716Y-106639987D02*
X184185954Y-106639987D01*
X184185954Y-106639987D02*
X184328811Y-106687606D01*
X184328811Y-106687606D02*
X184376430Y-106735225D01*
X184662145Y-106639987D02*
X185233573Y-106639987D01*
X184947859Y-107639987D02*
X184947859Y-106639987D01*
X186138335Y-107639987D02*
X185805002Y-107163796D01*
X185566907Y-107639987D02*
X185566907Y-106639987D01*
X185566907Y-106639987D02*
X185947859Y-106639987D01*
X185947859Y-106639987D02*
X186043097Y-106687606D01*
X186043097Y-106687606D02*
X186090716Y-106735225D01*
X186090716Y-106735225D02*
X186138335Y-106830463D01*
X186138335Y-106830463D02*
X186138335Y-106973320D01*
X186138335Y-106973320D02*
X186090716Y-107068558D01*
X186090716Y-107068558D02*
X186043097Y-107116177D01*
X186043097Y-107116177D02*
X185947859Y-107163796D01*
X185947859Y-107163796D02*
X185566907Y-107163796D01*
X187043097Y-107639987D02*
X186566907Y-107639987D01*
X186566907Y-107639987D02*
X186566907Y-106639987D01*
X187376431Y-107544748D02*
X187424050Y-107592368D01*
X187424050Y-107592368D02*
X187376431Y-107639987D01*
X187376431Y-107639987D02*
X187328812Y-107592368D01*
X187328812Y-107592368D02*
X187376431Y-107544748D01*
X187376431Y-107544748D02*
X187376431Y-107639987D01*
X187376431Y-107020939D02*
X187424050Y-107068558D01*
X187424050Y-107068558D02*
X187376431Y-107116177D01*
X187376431Y-107116177D02*
X187328812Y-107068558D01*
X187328812Y-107068558D02*
X187376431Y-107020939D01*
X187376431Y-107020939D02*
X187376431Y-107116177D01*
X188566907Y-106735225D02*
X188614526Y-106687606D01*
X188614526Y-106687606D02*
X188709764Y-106639987D01*
X188709764Y-106639987D02*
X188947859Y-106639987D01*
X188947859Y-106639987D02*
X189043097Y-106687606D01*
X189043097Y-106687606D02*
X189090716Y-106735225D01*
X189090716Y-106735225D02*
X189138335Y-106830463D01*
X189138335Y-106830463D02*
X189138335Y-106925701D01*
X189138335Y-106925701D02*
X189090716Y-107068558D01*
X189090716Y-107068558D02*
X188519288Y-107639987D01*
X188519288Y-107639987D02*
X189138335Y-107639987D01*
X189471669Y-106639987D02*
X190090716Y-106639987D01*
X190090716Y-106639987D02*
X189757383Y-107020939D01*
X189757383Y-107020939D02*
X189900240Y-107020939D01*
X189900240Y-107020939D02*
X189995478Y-107068558D01*
X189995478Y-107068558D02*
X190043097Y-107116177D01*
X190043097Y-107116177D02*
X190090716Y-107211415D01*
X190090716Y-107211415D02*
X190090716Y-107449510D01*
X190090716Y-107449510D02*
X190043097Y-107544748D01*
X190043097Y-107544748D02*
X189995478Y-107592368D01*
X189995478Y-107592368D02*
X189900240Y-107639987D01*
X189900240Y-107639987D02*
X189614526Y-107639987D01*
X189614526Y-107639987D02*
X189519288Y-107592368D01*
X189519288Y-107592368D02*
X189471669Y-107544748D01*
X180566906Y-109249931D02*
X180090716Y-109249931D01*
X180090716Y-109249931D02*
X180090716Y-108249931D01*
X181090716Y-108249931D02*
X181281192Y-108249931D01*
X181281192Y-108249931D02*
X181376430Y-108297550D01*
X181376430Y-108297550D02*
X181471668Y-108392788D01*
X181471668Y-108392788D02*
X181519287Y-108583264D01*
X181519287Y-108583264D02*
X181519287Y-108916597D01*
X181519287Y-108916597D02*
X181471668Y-109107073D01*
X181471668Y-109107073D02*
X181376430Y-109202312D01*
X181376430Y-109202312D02*
X181281192Y-109249931D01*
X181281192Y-109249931D02*
X181090716Y-109249931D01*
X181090716Y-109249931D02*
X180995478Y-109202312D01*
X180995478Y-109202312D02*
X180900240Y-109107073D01*
X180900240Y-109107073D02*
X180852621Y-108916597D01*
X180852621Y-108916597D02*
X180852621Y-108583264D01*
X180852621Y-108583264D02*
X180900240Y-108392788D01*
X180900240Y-108392788D02*
X180995478Y-108297550D01*
X180995478Y-108297550D02*
X181090716Y-108249931D01*
X182519287Y-109249931D02*
X182185954Y-108773740D01*
X181947859Y-109249931D02*
X181947859Y-108249931D01*
X181947859Y-108249931D02*
X182328811Y-108249931D01*
X182328811Y-108249931D02*
X182424049Y-108297550D01*
X182424049Y-108297550D02*
X182471668Y-108345169D01*
X182471668Y-108345169D02*
X182519287Y-108440407D01*
X182519287Y-108440407D02*
X182519287Y-108583264D01*
X182519287Y-108583264D02*
X182471668Y-108678502D01*
X182471668Y-108678502D02*
X182424049Y-108726121D01*
X182424049Y-108726121D02*
X182328811Y-108773740D01*
X182328811Y-108773740D02*
X181947859Y-108773740D01*
X182900240Y-108964216D02*
X183376430Y-108964216D01*
X182805002Y-109249931D02*
X183138335Y-108249931D01*
X183138335Y-108249931D02*
X183471668Y-109249931D01*
X183566907Y-109345169D02*
X184328811Y-109345169D01*
X185138335Y-109154692D02*
X185090716Y-109202312D01*
X185090716Y-109202312D02*
X184947859Y-109249931D01*
X184947859Y-109249931D02*
X184852621Y-109249931D01*
X184852621Y-109249931D02*
X184709764Y-109202312D01*
X184709764Y-109202312D02*
X184614526Y-109107073D01*
X184614526Y-109107073D02*
X184566907Y-109011835D01*
X184566907Y-109011835D02*
X184519288Y-108821359D01*
X184519288Y-108821359D02*
X184519288Y-108678502D01*
X184519288Y-108678502D02*
X184566907Y-108488026D01*
X184566907Y-108488026D02*
X184614526Y-108392788D01*
X184614526Y-108392788D02*
X184709764Y-108297550D01*
X184709764Y-108297550D02*
X184852621Y-108249931D01*
X184852621Y-108249931D02*
X184947859Y-108249931D01*
X184947859Y-108249931D02*
X185090716Y-108297550D01*
X185090716Y-108297550D02*
X185138335Y-108345169D01*
X185424050Y-108249931D02*
X185995478Y-108249931D01*
X185709764Y-109249931D02*
X185709764Y-108249931D01*
X186900240Y-109249931D02*
X186566907Y-108773740D01*
X186328812Y-109249931D02*
X186328812Y-108249931D01*
X186328812Y-108249931D02*
X186709764Y-108249931D01*
X186709764Y-108249931D02*
X186805002Y-108297550D01*
X186805002Y-108297550D02*
X186852621Y-108345169D01*
X186852621Y-108345169D02*
X186900240Y-108440407D01*
X186900240Y-108440407D02*
X186900240Y-108583264D01*
X186900240Y-108583264D02*
X186852621Y-108678502D01*
X186852621Y-108678502D02*
X186805002Y-108726121D01*
X186805002Y-108726121D02*
X186709764Y-108773740D01*
X186709764Y-108773740D02*
X186328812Y-108773740D01*
X187805002Y-109249931D02*
X187328812Y-109249931D01*
X187328812Y-109249931D02*
X187328812Y-108249931D01*
X188138336Y-109154692D02*
X188185955Y-109202312D01*
X188185955Y-109202312D02*
X188138336Y-109249931D01*
X188138336Y-109249931D02*
X188090717Y-109202312D01*
X188090717Y-109202312D02*
X188138336Y-109154692D01*
X188138336Y-109154692D02*
X188138336Y-109249931D01*
X188138336Y-108630883D02*
X188185955Y-108678502D01*
X188185955Y-108678502D02*
X188138336Y-108726121D01*
X188138336Y-108726121D02*
X188090717Y-108678502D01*
X188090717Y-108678502D02*
X188138336Y-108630883D01*
X188138336Y-108630883D02*
X188138336Y-108726121D01*
X189328812Y-108345169D02*
X189376431Y-108297550D01*
X189376431Y-108297550D02*
X189471669Y-108249931D01*
X189471669Y-108249931D02*
X189709764Y-108249931D01*
X189709764Y-108249931D02*
X189805002Y-108297550D01*
X189805002Y-108297550D02*
X189852621Y-108345169D01*
X189852621Y-108345169D02*
X189900240Y-108440407D01*
X189900240Y-108440407D02*
X189900240Y-108535645D01*
X189900240Y-108535645D02*
X189852621Y-108678502D01*
X189852621Y-108678502D02*
X189281193Y-109249931D01*
X189281193Y-109249931D02*
X189900240Y-109249931D01*
X190757383Y-108583264D02*
X190757383Y-109249931D01*
X190519288Y-108202312D02*
X190281193Y-108916597D01*
X190281193Y-108916597D02*
X190900240Y-108916597D01*
X179947859Y-109859875D02*
X180519287Y-109859875D01*
X180233573Y-110859875D02*
X180233573Y-109859875D01*
X180757383Y-109859875D02*
X181424049Y-110859875D01*
X181424049Y-109859875D02*
X180757383Y-110859875D01*
X181566907Y-110955113D02*
X182328811Y-110955113D01*
X183138335Y-110764636D02*
X183090716Y-110812256D01*
X183090716Y-110812256D02*
X182947859Y-110859875D01*
X182947859Y-110859875D02*
X182852621Y-110859875D01*
X182852621Y-110859875D02*
X182709764Y-110812256D01*
X182709764Y-110812256D02*
X182614526Y-110717017D01*
X182614526Y-110717017D02*
X182566907Y-110621779D01*
X182566907Y-110621779D02*
X182519288Y-110431303D01*
X182519288Y-110431303D02*
X182519288Y-110288446D01*
X182519288Y-110288446D02*
X182566907Y-110097970D01*
X182566907Y-110097970D02*
X182614526Y-110002732D01*
X182614526Y-110002732D02*
X182709764Y-109907494D01*
X182709764Y-109907494D02*
X182852621Y-109859875D01*
X182852621Y-109859875D02*
X182947859Y-109859875D01*
X182947859Y-109859875D02*
X183090716Y-109907494D01*
X183090716Y-109907494D02*
X183138335Y-109955113D01*
X183424050Y-109859875D02*
X183995478Y-109859875D01*
X183709764Y-110859875D02*
X183709764Y-109859875D01*
X184900240Y-110859875D02*
X184566907Y-110383684D01*
X184328812Y-110859875D02*
X184328812Y-109859875D01*
X184328812Y-109859875D02*
X184709764Y-109859875D01*
X184709764Y-109859875D02*
X184805002Y-109907494D01*
X184805002Y-109907494D02*
X184852621Y-109955113D01*
X184852621Y-109955113D02*
X184900240Y-110050351D01*
X184900240Y-110050351D02*
X184900240Y-110193208D01*
X184900240Y-110193208D02*
X184852621Y-110288446D01*
X184852621Y-110288446D02*
X184805002Y-110336065D01*
X184805002Y-110336065D02*
X184709764Y-110383684D01*
X184709764Y-110383684D02*
X184328812Y-110383684D01*
X185805002Y-110859875D02*
X185328812Y-110859875D01*
X185328812Y-110859875D02*
X185328812Y-109859875D01*
X186138336Y-110764636D02*
X186185955Y-110812256D01*
X186185955Y-110812256D02*
X186138336Y-110859875D01*
X186138336Y-110859875D02*
X186090717Y-110812256D01*
X186090717Y-110812256D02*
X186138336Y-110764636D01*
X186138336Y-110764636D02*
X186138336Y-110859875D01*
X186138336Y-110240827D02*
X186185955Y-110288446D01*
X186185955Y-110288446D02*
X186138336Y-110336065D01*
X186138336Y-110336065D02*
X186090717Y-110288446D01*
X186090717Y-110288446D02*
X186138336Y-110240827D01*
X186138336Y-110240827D02*
X186138336Y-110336065D01*
X187328812Y-109955113D02*
X187376431Y-109907494D01*
X187376431Y-109907494D02*
X187471669Y-109859875D01*
X187471669Y-109859875D02*
X187709764Y-109859875D01*
X187709764Y-109859875D02*
X187805002Y-109907494D01*
X187805002Y-109907494D02*
X187852621Y-109955113D01*
X187852621Y-109955113D02*
X187900240Y-110050351D01*
X187900240Y-110050351D02*
X187900240Y-110145589D01*
X187900240Y-110145589D02*
X187852621Y-110288446D01*
X187852621Y-110288446D02*
X187281193Y-110859875D01*
X187281193Y-110859875D02*
X187900240Y-110859875D01*
X188281193Y-109955113D02*
X188328812Y-109907494D01*
X188328812Y-109907494D02*
X188424050Y-109859875D01*
X188424050Y-109859875D02*
X188662145Y-109859875D01*
X188662145Y-109859875D02*
X188757383Y-109907494D01*
X188757383Y-109907494D02*
X188805002Y-109955113D01*
X188805002Y-109955113D02*
X188852621Y-110050351D01*
X188852621Y-110050351D02*
X188852621Y-110145589D01*
X188852621Y-110145589D02*
X188805002Y-110288446D01*
X188805002Y-110288446D02*
X188233574Y-110859875D01*
X188233574Y-110859875D02*
X188852621Y-110859875D01*
X180662144Y-112469819D02*
X180328811Y-111993628D01*
X180090716Y-112469819D02*
X180090716Y-111469819D01*
X180090716Y-111469819D02*
X180471668Y-111469819D01*
X180471668Y-111469819D02*
X180566906Y-111517438D01*
X180566906Y-111517438D02*
X180614525Y-111565057D01*
X180614525Y-111565057D02*
X180662144Y-111660295D01*
X180662144Y-111660295D02*
X180662144Y-111803152D01*
X180662144Y-111803152D02*
X180614525Y-111898390D01*
X180614525Y-111898390D02*
X180566906Y-111946009D01*
X180566906Y-111946009D02*
X180471668Y-111993628D01*
X180471668Y-111993628D02*
X180090716Y-111993628D01*
X180995478Y-111469819D02*
X181662144Y-112469819D01*
X181662144Y-111469819D02*
X180995478Y-112469819D01*
X181805002Y-112565057D02*
X182566906Y-112565057D01*
X183376430Y-112374580D02*
X183328811Y-112422200D01*
X183328811Y-112422200D02*
X183185954Y-112469819D01*
X183185954Y-112469819D02*
X183090716Y-112469819D01*
X183090716Y-112469819D02*
X182947859Y-112422200D01*
X182947859Y-112422200D02*
X182852621Y-112326961D01*
X182852621Y-112326961D02*
X182805002Y-112231723D01*
X182805002Y-112231723D02*
X182757383Y-112041247D01*
X182757383Y-112041247D02*
X182757383Y-111898390D01*
X182757383Y-111898390D02*
X182805002Y-111707914D01*
X182805002Y-111707914D02*
X182852621Y-111612676D01*
X182852621Y-111612676D02*
X182947859Y-111517438D01*
X182947859Y-111517438D02*
X183090716Y-111469819D01*
X183090716Y-111469819D02*
X183185954Y-111469819D01*
X183185954Y-111469819D02*
X183328811Y-111517438D01*
X183328811Y-111517438D02*
X183376430Y-111565057D01*
X183662145Y-111469819D02*
X184233573Y-111469819D01*
X183947859Y-112469819D02*
X183947859Y-111469819D01*
X185138335Y-112469819D02*
X184805002Y-111993628D01*
X184566907Y-112469819D02*
X184566907Y-111469819D01*
X184566907Y-111469819D02*
X184947859Y-111469819D01*
X184947859Y-111469819D02*
X185043097Y-111517438D01*
X185043097Y-111517438D02*
X185090716Y-111565057D01*
X185090716Y-111565057D02*
X185138335Y-111660295D01*
X185138335Y-111660295D02*
X185138335Y-111803152D01*
X185138335Y-111803152D02*
X185090716Y-111898390D01*
X185090716Y-111898390D02*
X185043097Y-111946009D01*
X185043097Y-111946009D02*
X184947859Y-111993628D01*
X184947859Y-111993628D02*
X184566907Y-111993628D01*
X186043097Y-112469819D02*
X185566907Y-112469819D01*
X185566907Y-112469819D02*
X185566907Y-111469819D01*
X186376431Y-112374580D02*
X186424050Y-112422200D01*
X186424050Y-112422200D02*
X186376431Y-112469819D01*
X186376431Y-112469819D02*
X186328812Y-112422200D01*
X186328812Y-112422200D02*
X186376431Y-112374580D01*
X186376431Y-112374580D02*
X186376431Y-112469819D01*
X186376431Y-111850771D02*
X186424050Y-111898390D01*
X186424050Y-111898390D02*
X186376431Y-111946009D01*
X186376431Y-111946009D02*
X186328812Y-111898390D01*
X186328812Y-111898390D02*
X186376431Y-111850771D01*
X186376431Y-111850771D02*
X186376431Y-111946009D01*
X187566907Y-111565057D02*
X187614526Y-111517438D01*
X187614526Y-111517438D02*
X187709764Y-111469819D01*
X187709764Y-111469819D02*
X187947859Y-111469819D01*
X187947859Y-111469819D02*
X188043097Y-111517438D01*
X188043097Y-111517438D02*
X188090716Y-111565057D01*
X188090716Y-111565057D02*
X188138335Y-111660295D01*
X188138335Y-111660295D02*
X188138335Y-111755533D01*
X188138335Y-111755533D02*
X188090716Y-111898390D01*
X188090716Y-111898390D02*
X187519288Y-112469819D01*
X187519288Y-112469819D02*
X188138335Y-112469819D01*
X188995478Y-111469819D02*
X188805002Y-111469819D01*
X188805002Y-111469819D02*
X188709764Y-111517438D01*
X188709764Y-111517438D02*
X188662145Y-111565057D01*
X188662145Y-111565057D02*
X188566907Y-111707914D01*
X188566907Y-111707914D02*
X188519288Y-111898390D01*
X188519288Y-111898390D02*
X188519288Y-112279342D01*
X188519288Y-112279342D02*
X188566907Y-112374580D01*
X188566907Y-112374580D02*
X188614526Y-112422200D01*
X188614526Y-112422200D02*
X188709764Y-112469819D01*
X188709764Y-112469819D02*
X188900240Y-112469819D01*
X188900240Y-112469819D02*
X188995478Y-112422200D01*
X188995478Y-112422200D02*
X189043097Y-112374580D01*
X189043097Y-112374580D02*
X189090716Y-112279342D01*
X189090716Y-112279342D02*
X189090716Y-112041247D01*
X189090716Y-112041247D02*
X189043097Y-111946009D01*
X189043097Y-111946009D02*
X188995478Y-111898390D01*
X188995478Y-111898390D02*
X188900240Y-111850771D01*
X188900240Y-111850771D02*
X188709764Y-111850771D01*
X188709764Y-111850771D02*
X188614526Y-111898390D01*
X188614526Y-111898390D02*
X188566907Y-111946009D01*
X188566907Y-111946009D02*
X188519288Y-112041247D01*
X113879047Y-84722289D02*
X113783809Y-84674670D01*
X113783809Y-84674670D02*
X113640952Y-84674670D01*
X113640952Y-84674670D02*
X113498095Y-84722289D01*
X113498095Y-84722289D02*
X113402857Y-84817527D01*
X113402857Y-84817527D02*
X113355238Y-84912765D01*
X113355238Y-84912765D02*
X113307619Y-85103241D01*
X113307619Y-85103241D02*
X113307619Y-85246098D01*
X113307619Y-85246098D02*
X113355238Y-85436574D01*
X113355238Y-85436574D02*
X113402857Y-85531812D01*
X113402857Y-85531812D02*
X113498095Y-85627051D01*
X113498095Y-85627051D02*
X113640952Y-85674670D01*
X113640952Y-85674670D02*
X113736190Y-85674670D01*
X113736190Y-85674670D02*
X113879047Y-85627051D01*
X113879047Y-85627051D02*
X113926666Y-85579431D01*
X113926666Y-85579431D02*
X113926666Y-85246098D01*
X113926666Y-85246098D02*
X113736190Y-85246098D01*
X114355238Y-85674670D02*
X114355238Y-84674670D01*
X114355238Y-84674670D02*
X114926666Y-85674670D01*
X114926666Y-85674670D02*
X114926666Y-84674670D01*
X115402857Y-85674670D02*
X115402857Y-84674670D01*
X115402857Y-84674670D02*
X115640952Y-84674670D01*
X115640952Y-84674670D02*
X115783809Y-84722289D01*
X115783809Y-84722289D02*
X115879047Y-84817527D01*
X115879047Y-84817527D02*
X115926666Y-84912765D01*
X115926666Y-84912765D02*
X115974285Y-85103241D01*
X115974285Y-85103241D02*
X115974285Y-85246098D01*
X115974285Y-85246098D02*
X115926666Y-85436574D01*
X115926666Y-85436574D02*
X115879047Y-85531812D01*
X115879047Y-85531812D02*
X115783809Y-85627051D01*
X115783809Y-85627051D02*
X115640952Y-85674670D01*
X115640952Y-85674670D02*
X115402857Y-85674670D01*
X113196177Y-103350237D02*
X112719987Y-103350237D01*
X112719987Y-103350237D02*
X112719987Y-102350237D01*
X113719987Y-102350237D02*
X113910463Y-102350237D01*
X113910463Y-102350237D02*
X114005701Y-102397856D01*
X114005701Y-102397856D02*
X114100939Y-102493094D01*
X114100939Y-102493094D02*
X114148558Y-102683570D01*
X114148558Y-102683570D02*
X114148558Y-103016903D01*
X114148558Y-103016903D02*
X114100939Y-103207379D01*
X114100939Y-103207379D02*
X114005701Y-103302618D01*
X114005701Y-103302618D02*
X113910463Y-103350237D01*
X113910463Y-103350237D02*
X113719987Y-103350237D01*
X113719987Y-103350237D02*
X113624749Y-103302618D01*
X113624749Y-103302618D02*
X113529511Y-103207379D01*
X113529511Y-103207379D02*
X113481892Y-103016903D01*
X113481892Y-103016903D02*
X113481892Y-102683570D01*
X113481892Y-102683570D02*
X113529511Y-102493094D01*
X113529511Y-102493094D02*
X113624749Y-102397856D01*
X113624749Y-102397856D02*
X113719987Y-102350237D01*
X115148558Y-103350237D02*
X114815225Y-102874046D01*
X114577130Y-103350237D02*
X114577130Y-102350237D01*
X114577130Y-102350237D02*
X114958082Y-102350237D01*
X114958082Y-102350237D02*
X115053320Y-102397856D01*
X115053320Y-102397856D02*
X115100939Y-102445475D01*
X115100939Y-102445475D02*
X115148558Y-102540713D01*
X115148558Y-102540713D02*
X115148558Y-102683570D01*
X115148558Y-102683570D02*
X115100939Y-102778808D01*
X115100939Y-102778808D02*
X115053320Y-102826427D01*
X115053320Y-102826427D02*
X114958082Y-102874046D01*
X114958082Y-102874046D02*
X114577130Y-102874046D01*
X115529511Y-103064522D02*
X116005701Y-103064522D01*
X115434273Y-103350237D02*
X115767606Y-102350237D01*
X115767606Y-102350237D02*
X116100939Y-103350237D01*
X113888033Y-97348406D02*
X113792795Y-97300787D01*
X113792795Y-97300787D02*
X113649938Y-97300787D01*
X113649938Y-97300787D02*
X113507081Y-97348406D01*
X113507081Y-97348406D02*
X113411843Y-97443644D01*
X113411843Y-97443644D02*
X113364224Y-97538882D01*
X113364224Y-97538882D02*
X113316605Y-97729358D01*
X113316605Y-97729358D02*
X113316605Y-97872215D01*
X113316605Y-97872215D02*
X113364224Y-98062691D01*
X113364224Y-98062691D02*
X113411843Y-98157929D01*
X113411843Y-98157929D02*
X113507081Y-98253168D01*
X113507081Y-98253168D02*
X113649938Y-98300787D01*
X113649938Y-98300787D02*
X113745176Y-98300787D01*
X113745176Y-98300787D02*
X113888033Y-98253168D01*
X113888033Y-98253168D02*
X113935652Y-98205548D01*
X113935652Y-98205548D02*
X113935652Y-97872215D01*
X113935652Y-97872215D02*
X113745176Y-97872215D01*
X114364224Y-98300787D02*
X114364224Y-97300787D01*
X114364224Y-97300787D02*
X114935652Y-98300787D01*
X114935652Y-98300787D02*
X114935652Y-97300787D01*
X115411843Y-98300787D02*
X115411843Y-97300787D01*
X115411843Y-97300787D02*
X115649938Y-97300787D01*
X115649938Y-97300787D02*
X115792795Y-97348406D01*
X115792795Y-97348406D02*
X115888033Y-97443644D01*
X115888033Y-97443644D02*
X115935652Y-97538882D01*
X115935652Y-97538882D02*
X115983271Y-97729358D01*
X115983271Y-97729358D02*
X115983271Y-97872215D01*
X115983271Y-97872215D02*
X115935652Y-98062691D01*
X115935652Y-98062691D02*
X115888033Y-98157929D01*
X115888033Y-98157929D02*
X115792795Y-98253168D01*
X115792795Y-98253168D02*
X115649938Y-98300787D01*
X115649938Y-98300787D02*
X115411843Y-98300787D01*
X113959115Y-75323471D02*
X113625782Y-74847280D01*
X113387687Y-75323471D02*
X113387687Y-74323471D01*
X113387687Y-74323471D02*
X113768639Y-74323471D01*
X113768639Y-74323471D02*
X113863877Y-74371090D01*
X113863877Y-74371090D02*
X113911496Y-74418709D01*
X113911496Y-74418709D02*
X113959115Y-74513947D01*
X113959115Y-74513947D02*
X113959115Y-74656804D01*
X113959115Y-74656804D02*
X113911496Y-74752042D01*
X113911496Y-74752042D02*
X113863877Y-74799661D01*
X113863877Y-74799661D02*
X113768639Y-74847280D01*
X113768639Y-74847280D02*
X113387687Y-74847280D01*
X114292449Y-74323471D02*
X114959115Y-75323471D01*
X114959115Y-74323471D02*
X114292449Y-75323471D01*
X113840414Y-82069773D02*
X113364224Y-82069773D01*
X113364224Y-82069773D02*
X113316605Y-82545963D01*
X113316605Y-82545963D02*
X113364224Y-82498344D01*
X113364224Y-82498344D02*
X113459462Y-82450725D01*
X113459462Y-82450725D02*
X113697557Y-82450725D01*
X113697557Y-82450725D02*
X113792795Y-82498344D01*
X113792795Y-82498344D02*
X113840414Y-82545963D01*
X113840414Y-82545963D02*
X113888033Y-82641201D01*
X113888033Y-82641201D02*
X113888033Y-82879296D01*
X113888033Y-82879296D02*
X113840414Y-82974534D01*
X113840414Y-82974534D02*
X113792795Y-83022154D01*
X113792795Y-83022154D02*
X113697557Y-83069773D01*
X113697557Y-83069773D02*
X113459462Y-83069773D01*
X113459462Y-83069773D02*
X113364224Y-83022154D01*
X113364224Y-83022154D02*
X113316605Y-82974534D01*
X114173748Y-82069773D02*
X114507081Y-83069773D01*
X114507081Y-83069773D02*
X114840414Y-82069773D01*
X113244830Y-71792457D02*
X113816258Y-71792457D01*
X113530544Y-72792457D02*
X113530544Y-71792457D01*
X114054354Y-71792457D02*
X114721020Y-72792457D01*
X114721020Y-71792457D02*
X114054354Y-72792457D01*
D11*
X172170352Y-90039638D02*
X171503685Y-89087257D01*
X171027495Y-90039638D02*
X171027495Y-88039638D01*
X171027495Y-88039638D02*
X171789400Y-88039638D01*
X171789400Y-88039638D02*
X171979876Y-88134876D01*
X171979876Y-88134876D02*
X172075114Y-88230114D01*
X172075114Y-88230114D02*
X172170352Y-88420590D01*
X172170352Y-88420590D02*
X172170352Y-88706304D01*
X172170352Y-88706304D02*
X172075114Y-88896780D01*
X172075114Y-88896780D02*
X171979876Y-88992019D01*
X171979876Y-88992019D02*
X171789400Y-89087257D01*
X171789400Y-89087257D02*
X171027495Y-89087257D01*
X173694162Y-88992019D02*
X173027495Y-88992019D01*
X173027495Y-90039638D02*
X173027495Y-88039638D01*
X173027495Y-88039638D02*
X173979876Y-88039638D01*
X174741781Y-90039638D02*
X174741781Y-88039638D01*
X174741781Y-88039638D02*
X175408448Y-89468209D01*
X175408448Y-89468209D02*
X176075114Y-88039638D01*
X176075114Y-88039638D02*
X176075114Y-90039638D01*
X177122733Y-90039638D02*
X177503685Y-90039638D01*
X177503685Y-90039638D02*
X177694162Y-89944400D01*
X177694162Y-89944400D02*
X177789400Y-89849161D01*
X177789400Y-89849161D02*
X177979876Y-89563447D01*
X177979876Y-89563447D02*
X178075114Y-89182495D01*
X178075114Y-89182495D02*
X178075114Y-88420590D01*
X178075114Y-88420590D02*
X177979876Y-88230114D01*
X177979876Y-88230114D02*
X177884638Y-88134876D01*
X177884638Y-88134876D02*
X177694162Y-88039638D01*
X177694162Y-88039638D02*
X177313209Y-88039638D01*
X177313209Y-88039638D02*
X177122733Y-88134876D01*
X177122733Y-88134876D02*
X177027495Y-88230114D01*
X177027495Y-88230114D02*
X176932257Y-88420590D01*
X176932257Y-88420590D02*
X176932257Y-88896780D01*
X176932257Y-88896780D02*
X177027495Y-89087257D01*
X177027495Y-89087257D02*
X177122733Y-89182495D01*
X177122733Y-89182495D02*
X177313209Y-89277733D01*
X177313209Y-89277733D02*
X177694162Y-89277733D01*
X177694162Y-89277733D02*
X177884638Y-89182495D01*
X177884638Y-89182495D02*
X177979876Y-89087257D01*
X177979876Y-89087257D02*
X178075114Y-88896780D01*
X179789400Y-88039638D02*
X179408447Y-88039638D01*
X179408447Y-88039638D02*
X179217971Y-88134876D01*
X179217971Y-88134876D02*
X179122733Y-88230114D01*
X179122733Y-88230114D02*
X178932257Y-88515828D01*
X178932257Y-88515828D02*
X178837019Y-88896780D01*
X178837019Y-88896780D02*
X178837019Y-89658685D01*
X178837019Y-89658685D02*
X178932257Y-89849161D01*
X178932257Y-89849161D02*
X179027495Y-89944400D01*
X179027495Y-89944400D02*
X179217971Y-90039638D01*
X179217971Y-90039638D02*
X179598924Y-90039638D01*
X179598924Y-90039638D02*
X179789400Y-89944400D01*
X179789400Y-89944400D02*
X179884638Y-89849161D01*
X179884638Y-89849161D02*
X179979876Y-89658685D01*
X179979876Y-89658685D02*
X179979876Y-89182495D01*
X179979876Y-89182495D02*
X179884638Y-88992019D01*
X179884638Y-88992019D02*
X179789400Y-88896780D01*
X179789400Y-88896780D02*
X179598924Y-88801542D01*
X179598924Y-88801542D02*
X179217971Y-88801542D01*
X179217971Y-88801542D02*
X179027495Y-88896780D01*
X179027495Y-88896780D02*
X178932257Y-88992019D01*
X178932257Y-88992019D02*
X178837019Y-89182495D01*
X183503686Y-90039638D02*
X182837019Y-89087257D01*
X182360829Y-90039638D02*
X182360829Y-88039638D01*
X182360829Y-88039638D02*
X183122734Y-88039638D01*
X183122734Y-88039638D02*
X183313210Y-88134876D01*
X183313210Y-88134876D02*
X183408448Y-88230114D01*
X183408448Y-88230114D02*
X183503686Y-88420590D01*
X183503686Y-88420590D02*
X183503686Y-88706304D01*
X183503686Y-88706304D02*
X183408448Y-88896780D01*
X183408448Y-88896780D02*
X183313210Y-88992019D01*
X183313210Y-88992019D02*
X183122734Y-89087257D01*
X183122734Y-89087257D02*
X182360829Y-89087257D01*
X185217972Y-90039638D02*
X185217972Y-88992019D01*
X185217972Y-88992019D02*
X185122734Y-88801542D01*
X185122734Y-88801542D02*
X184932258Y-88706304D01*
X184932258Y-88706304D02*
X184551305Y-88706304D01*
X184551305Y-88706304D02*
X184360829Y-88801542D01*
X185217972Y-89944400D02*
X185027496Y-90039638D01*
X185027496Y-90039638D02*
X184551305Y-90039638D01*
X184551305Y-90039638D02*
X184360829Y-89944400D01*
X184360829Y-89944400D02*
X184265591Y-89753923D01*
X184265591Y-89753923D02*
X184265591Y-89563447D01*
X184265591Y-89563447D02*
X184360829Y-89372971D01*
X184360829Y-89372971D02*
X184551305Y-89277733D01*
X184551305Y-89277733D02*
X185027496Y-89277733D01*
X185027496Y-89277733D02*
X185217972Y-89182495D01*
X187027496Y-90039638D02*
X187027496Y-88039638D01*
X187027496Y-89944400D02*
X186837020Y-90039638D01*
X186837020Y-90039638D02*
X186456067Y-90039638D01*
X186456067Y-90039638D02*
X186265591Y-89944400D01*
X186265591Y-89944400D02*
X186170353Y-89849161D01*
X186170353Y-89849161D02*
X186075115Y-89658685D01*
X186075115Y-89658685D02*
X186075115Y-89087257D01*
X186075115Y-89087257D02*
X186170353Y-88896780D01*
X186170353Y-88896780D02*
X186265591Y-88801542D01*
X186265591Y-88801542D02*
X186456067Y-88706304D01*
X186456067Y-88706304D02*
X186837020Y-88706304D01*
X186837020Y-88706304D02*
X187027496Y-88801542D01*
X187979877Y-90039638D02*
X187979877Y-88706304D01*
X187979877Y-88039638D02*
X187884639Y-88134876D01*
X187884639Y-88134876D02*
X187979877Y-88230114D01*
X187979877Y-88230114D02*
X188075115Y-88134876D01*
X188075115Y-88134876D02*
X187979877Y-88039638D01*
X187979877Y-88039638D02*
X187979877Y-88230114D01*
X189217972Y-90039638D02*
X189027496Y-89944400D01*
X189027496Y-89944400D02*
X188932258Y-89849161D01*
X188932258Y-89849161D02*
X188837020Y-89658685D01*
X188837020Y-89658685D02*
X188837020Y-89087257D01*
X188837020Y-89087257D02*
X188932258Y-88896780D01*
X188932258Y-88896780D02*
X189027496Y-88801542D01*
X189027496Y-88801542D02*
X189217972Y-88706304D01*
X189217972Y-88706304D02*
X189503687Y-88706304D01*
X189503687Y-88706304D02*
X189694163Y-88801542D01*
X189694163Y-88801542D02*
X189789401Y-88896780D01*
X189789401Y-88896780D02*
X189884639Y-89087257D01*
X189884639Y-89087257D02*
X189884639Y-89658685D01*
X189884639Y-89658685D02*
X189789401Y-89849161D01*
X189789401Y-89849161D02*
X189694163Y-89944400D01*
X189694163Y-89944400D02*
X189503687Y-90039638D01*
X189503687Y-90039638D02*
X189217972Y-90039638D01*
D10*
X112843097Y-109354272D02*
X113319287Y-109354272D01*
X112747859Y-109639987D02*
X113081192Y-108639987D01*
X113081192Y-108639987D02*
X113414525Y-109639987D01*
X114176430Y-109639987D02*
X114176430Y-108639987D01*
X114176430Y-109592368D02*
X114081192Y-109639987D01*
X114081192Y-109639987D02*
X113890716Y-109639987D01*
X113890716Y-109639987D02*
X113795478Y-109592368D01*
X113795478Y-109592368D02*
X113747859Y-109544748D01*
X113747859Y-109544748D02*
X113700240Y-109449510D01*
X113700240Y-109449510D02*
X113700240Y-109163796D01*
X113700240Y-109163796D02*
X113747859Y-109068558D01*
X113747859Y-109068558D02*
X113795478Y-109020939D01*
X113795478Y-109020939D02*
X113890716Y-108973320D01*
X113890716Y-108973320D02*
X114081192Y-108973320D01*
X114081192Y-108973320D02*
X114176430Y-109020939D01*
X114652621Y-109639987D02*
X114652621Y-108973320D01*
X114652621Y-108639987D02*
X114605002Y-108687606D01*
X114605002Y-108687606D02*
X114652621Y-108735225D01*
X114652621Y-108735225D02*
X114700240Y-108687606D01*
X114700240Y-108687606D02*
X114652621Y-108639987D01*
X114652621Y-108639987D02*
X114652621Y-108735225D01*
X114985954Y-108973320D02*
X115366906Y-108973320D01*
X115128811Y-108639987D02*
X115128811Y-109497129D01*
X115128811Y-109497129D02*
X115176430Y-109592368D01*
X115176430Y-109592368D02*
X115271668Y-109639987D01*
X115271668Y-109639987D02*
X115366906Y-109639987D01*
X115700240Y-109639987D02*
X115700240Y-108973320D01*
X115700240Y-109163796D02*
X115747859Y-109068558D01*
X115747859Y-109068558D02*
X115795478Y-109020939D01*
X115795478Y-109020939D02*
X115890716Y-108973320D01*
X115890716Y-108973320D02*
X115985954Y-108973320D01*
X116319288Y-109639987D02*
X116319288Y-108973320D01*
X116319288Y-108639987D02*
X116271669Y-108687606D01*
X116271669Y-108687606D02*
X116319288Y-108735225D01*
X116319288Y-108735225D02*
X116366907Y-108687606D01*
X116366907Y-108687606D02*
X116319288Y-108639987D01*
X116319288Y-108639987D02*
X116319288Y-108735225D01*
X117557383Y-109639987D02*
X117557383Y-108639987D01*
X117557383Y-108639987D02*
X117938335Y-108639987D01*
X117938335Y-108639987D02*
X118033573Y-108687606D01*
X118033573Y-108687606D02*
X118081192Y-108735225D01*
X118081192Y-108735225D02*
X118128811Y-108830463D01*
X118128811Y-108830463D02*
X118128811Y-108973320D01*
X118128811Y-108973320D02*
X118081192Y-109068558D01*
X118081192Y-109068558D02*
X118033573Y-109116177D01*
X118033573Y-109116177D02*
X117938335Y-109163796D01*
X117938335Y-109163796D02*
X117557383Y-109163796D01*
X118985954Y-109639987D02*
X118985954Y-109116177D01*
X118985954Y-109116177D02*
X118938335Y-109020939D01*
X118938335Y-109020939D02*
X118843097Y-108973320D01*
X118843097Y-108973320D02*
X118652621Y-108973320D01*
X118652621Y-108973320D02*
X118557383Y-109020939D01*
X118985954Y-109592368D02*
X118890716Y-109639987D01*
X118890716Y-109639987D02*
X118652621Y-109639987D01*
X118652621Y-109639987D02*
X118557383Y-109592368D01*
X118557383Y-109592368D02*
X118509764Y-109497129D01*
X118509764Y-109497129D02*
X118509764Y-109401891D01*
X118509764Y-109401891D02*
X118557383Y-109306653D01*
X118557383Y-109306653D02*
X118652621Y-109259034D01*
X118652621Y-109259034D02*
X118890716Y-109259034D01*
X118890716Y-109259034D02*
X118985954Y-109211415D01*
X119319288Y-108973320D02*
X119700240Y-108973320D01*
X119462145Y-108639987D02*
X119462145Y-109497129D01*
X119462145Y-109497129D02*
X119509764Y-109592368D01*
X119509764Y-109592368D02*
X119605002Y-109639987D01*
X119605002Y-109639987D02*
X119700240Y-109639987D01*
X120033574Y-109639987D02*
X120033574Y-108973320D01*
X120033574Y-108639987D02*
X119985955Y-108687606D01*
X119985955Y-108687606D02*
X120033574Y-108735225D01*
X120033574Y-108735225D02*
X120081193Y-108687606D01*
X120081193Y-108687606D02*
X120033574Y-108639987D01*
X120033574Y-108639987D02*
X120033574Y-108735225D01*
X120652621Y-109639987D02*
X120557383Y-109592368D01*
X120557383Y-109592368D02*
X120509764Y-109497129D01*
X120509764Y-109497129D02*
X120509764Y-108639987D01*
X112747859Y-110249931D02*
X113081192Y-111249931D01*
X113081192Y-111249931D02*
X113414525Y-110249931D01*
X113747859Y-111249931D02*
X113747859Y-110583264D01*
X113747859Y-110249931D02*
X113700240Y-110297550D01*
X113700240Y-110297550D02*
X113747859Y-110345169D01*
X113747859Y-110345169D02*
X113795478Y-110297550D01*
X113795478Y-110297550D02*
X113747859Y-110249931D01*
X113747859Y-110249931D02*
X113747859Y-110345169D01*
X114652620Y-111202312D02*
X114557382Y-111249931D01*
X114557382Y-111249931D02*
X114366906Y-111249931D01*
X114366906Y-111249931D02*
X114271668Y-111202312D01*
X114271668Y-111202312D02*
X114224049Y-111154692D01*
X114224049Y-111154692D02*
X114176430Y-111059454D01*
X114176430Y-111059454D02*
X114176430Y-110773740D01*
X114176430Y-110773740D02*
X114224049Y-110678502D01*
X114224049Y-110678502D02*
X114271668Y-110630883D01*
X114271668Y-110630883D02*
X114366906Y-110583264D01*
X114366906Y-110583264D02*
X114557382Y-110583264D01*
X114557382Y-110583264D02*
X114652620Y-110630883D01*
X114938335Y-110583264D02*
X115319287Y-110583264D01*
X115081192Y-110249931D02*
X115081192Y-111107073D01*
X115081192Y-111107073D02*
X115128811Y-111202312D01*
X115128811Y-111202312D02*
X115224049Y-111249931D01*
X115224049Y-111249931D02*
X115319287Y-111249931D01*
X115795478Y-111249931D02*
X115700240Y-111202312D01*
X115700240Y-111202312D02*
X115652621Y-111154692D01*
X115652621Y-111154692D02*
X115605002Y-111059454D01*
X115605002Y-111059454D02*
X115605002Y-110773740D01*
X115605002Y-110773740D02*
X115652621Y-110678502D01*
X115652621Y-110678502D02*
X115700240Y-110630883D01*
X115700240Y-110630883D02*
X115795478Y-110583264D01*
X115795478Y-110583264D02*
X115938335Y-110583264D01*
X115938335Y-110583264D02*
X116033573Y-110630883D01*
X116033573Y-110630883D02*
X116081192Y-110678502D01*
X116081192Y-110678502D02*
X116128811Y-110773740D01*
X116128811Y-110773740D02*
X116128811Y-111059454D01*
X116128811Y-111059454D02*
X116081192Y-111154692D01*
X116081192Y-111154692D02*
X116033573Y-111202312D01*
X116033573Y-111202312D02*
X115938335Y-111249931D01*
X115938335Y-111249931D02*
X115795478Y-111249931D01*
X116557383Y-111249931D02*
X116557383Y-110583264D01*
X116557383Y-110773740D02*
X116605002Y-110678502D01*
X116605002Y-110678502D02*
X116652621Y-110630883D01*
X116652621Y-110630883D02*
X116747859Y-110583264D01*
X116747859Y-110583264D02*
X116843097Y-110583264D01*
X117938336Y-111249931D02*
X117938336Y-110249931D01*
X117938336Y-110726121D02*
X118509764Y-110726121D01*
X118509764Y-111249931D02*
X118509764Y-110249931D01*
X119414526Y-110583264D02*
X119414526Y-111249931D01*
X118985955Y-110583264D02*
X118985955Y-111107073D01*
X118985955Y-111107073D02*
X119033574Y-111202312D01*
X119033574Y-111202312D02*
X119128812Y-111249931D01*
X119128812Y-111249931D02*
X119271669Y-111249931D01*
X119271669Y-111249931D02*
X119366907Y-111202312D01*
X119366907Y-111202312D02*
X119414526Y-111154692D01*
X119795479Y-110583264D02*
X120033574Y-111249931D01*
X120271669Y-110583264D02*
X120033574Y-111249931D01*
X120033574Y-111249931D02*
X119938336Y-111488026D01*
X119938336Y-111488026D02*
X119890717Y-111535645D01*
X119890717Y-111535645D02*
X119795479Y-111583264D01*
X120652622Y-110583264D02*
X120652622Y-111249931D01*
X120652622Y-110678502D02*
X120700241Y-110630883D01*
X120700241Y-110630883D02*
X120795479Y-110583264D01*
X120795479Y-110583264D02*
X120938336Y-110583264D01*
X120938336Y-110583264D02*
X121033574Y-110630883D01*
X121033574Y-110630883D02*
X121081193Y-110726121D01*
X121081193Y-110726121D02*
X121081193Y-111249931D01*
X121557384Y-111249931D02*
X121557384Y-110249931D01*
X121985955Y-111249931D02*
X121985955Y-110726121D01*
X121985955Y-110726121D02*
X121938336Y-110630883D01*
X121938336Y-110630883D02*
X121843098Y-110583264D01*
X121843098Y-110583264D02*
X121700241Y-110583264D01*
X121700241Y-110583264D02*
X121605003Y-110630883D01*
X121605003Y-110630883D02*
X121557384Y-110678502D01*
X112890716Y-112859875D02*
X112890716Y-111859875D01*
X112890716Y-112336065D02*
X113462144Y-112336065D01*
X113462144Y-112859875D02*
X113462144Y-111859875D01*
X114366906Y-112193208D02*
X114366906Y-112859875D01*
X113938335Y-112193208D02*
X113938335Y-112717017D01*
X113938335Y-112717017D02*
X113985954Y-112812256D01*
X113985954Y-112812256D02*
X114081192Y-112859875D01*
X114081192Y-112859875D02*
X114224049Y-112859875D01*
X114224049Y-112859875D02*
X114319287Y-112812256D01*
X114319287Y-112812256D02*
X114366906Y-112764636D01*
X114843097Y-112193208D02*
X114843097Y-112859875D01*
X114843097Y-112288446D02*
X114890716Y-112240827D01*
X114890716Y-112240827D02*
X114985954Y-112193208D01*
X114985954Y-112193208D02*
X115128811Y-112193208D01*
X115128811Y-112193208D02*
X115224049Y-112240827D01*
X115224049Y-112240827D02*
X115271668Y-112336065D01*
X115271668Y-112336065D02*
X115271668Y-112859875D01*
X115605002Y-112193208D02*
X115985954Y-112193208D01*
X115747859Y-111859875D02*
X115747859Y-112717017D01*
X115747859Y-112717017D02*
X115795478Y-112812256D01*
X115795478Y-112812256D02*
X115890716Y-112859875D01*
X115890716Y-112859875D02*
X115985954Y-112859875D01*
X116700240Y-112812256D02*
X116605002Y-112859875D01*
X116605002Y-112859875D02*
X116414526Y-112859875D01*
X116414526Y-112859875D02*
X116319288Y-112812256D01*
X116319288Y-112812256D02*
X116271669Y-112717017D01*
X116271669Y-112717017D02*
X116271669Y-112336065D01*
X116271669Y-112336065D02*
X116319288Y-112240827D01*
X116319288Y-112240827D02*
X116414526Y-112193208D01*
X116414526Y-112193208D02*
X116605002Y-112193208D01*
X116605002Y-112193208D02*
X116700240Y-112240827D01*
X116700240Y-112240827D02*
X116747859Y-112336065D01*
X116747859Y-112336065D02*
X116747859Y-112431303D01*
X116747859Y-112431303D02*
X116271669Y-112526541D01*
X117176431Y-112859875D02*
X117176431Y-112193208D01*
X117176431Y-112383684D02*
X117224050Y-112288446D01*
X117224050Y-112288446D02*
X117271669Y-112240827D01*
X117271669Y-112240827D02*
X117366907Y-112193208D01*
X117366907Y-112193208D02*
X117462145Y-112193208D01*
X119033574Y-112859875D02*
X118557384Y-112859875D01*
X118557384Y-112859875D02*
X118557384Y-111859875D01*
X119366908Y-112859875D02*
X119366908Y-112193208D01*
X119366908Y-111859875D02*
X119319289Y-111907494D01*
X119319289Y-111907494D02*
X119366908Y-111955113D01*
X119366908Y-111955113D02*
X119414527Y-111907494D01*
X119414527Y-111907494D02*
X119366908Y-111859875D01*
X119366908Y-111859875D02*
X119366908Y-111955113D01*
X120271669Y-112193208D02*
X120271669Y-112859875D01*
X119843098Y-112193208D02*
X119843098Y-112717017D01*
X119843098Y-112717017D02*
X119890717Y-112812256D01*
X119890717Y-112812256D02*
X119985955Y-112859875D01*
X119985955Y-112859875D02*
X120128812Y-112859875D01*
X120128812Y-112859875D02*
X120224050Y-112812256D01*
X120224050Y-112812256D02*
X120271669Y-112764636D01*
X113319287Y-113803152D02*
X113319287Y-114469819D01*
X113081192Y-113422200D02*
X112843097Y-114136485D01*
X112843097Y-114136485D02*
X113462144Y-114136485D01*
X113747859Y-113469819D02*
X114366906Y-113469819D01*
X114366906Y-113469819D02*
X114033573Y-113850771D01*
X114033573Y-113850771D02*
X114176430Y-113850771D01*
X114176430Y-113850771D02*
X114271668Y-113898390D01*
X114271668Y-113898390D02*
X114319287Y-113946009D01*
X114319287Y-113946009D02*
X114366906Y-114041247D01*
X114366906Y-114041247D02*
X114366906Y-114279342D01*
X114366906Y-114279342D02*
X114319287Y-114374580D01*
X114319287Y-114374580D02*
X114271668Y-114422200D01*
X114271668Y-114422200D02*
X114176430Y-114469819D01*
X114176430Y-114469819D02*
X113890716Y-114469819D01*
X113890716Y-114469819D02*
X113795478Y-114422200D01*
X113795478Y-114422200D02*
X113747859Y-114374580D01*
X114700240Y-113469819D02*
X115319287Y-113469819D01*
X115319287Y-113469819D02*
X114985954Y-113850771D01*
X114985954Y-113850771D02*
X115128811Y-113850771D01*
X115128811Y-113850771D02*
X115224049Y-113898390D01*
X115224049Y-113898390D02*
X115271668Y-113946009D01*
X115271668Y-113946009D02*
X115319287Y-114041247D01*
X115319287Y-114041247D02*
X115319287Y-114279342D01*
X115319287Y-114279342D02*
X115271668Y-114374580D01*
X115271668Y-114374580D02*
X115224049Y-114422200D01*
X115224049Y-114422200D02*
X115128811Y-114469819D01*
X115128811Y-114469819D02*
X114843097Y-114469819D01*
X114843097Y-114469819D02*
X114747859Y-114422200D01*
X114747859Y-114422200D02*
X114700240Y-114374580D01*
X116509764Y-114469819D02*
X116509764Y-113469819D01*
X116509764Y-113469819D02*
X116843097Y-114184104D01*
X116843097Y-114184104D02*
X117176430Y-113469819D01*
X117176430Y-113469819D02*
X117176430Y-114469819D01*
X117652621Y-114469819D02*
X117652621Y-113469819D01*
X117652621Y-113946009D02*
X118224049Y-113946009D01*
X118224049Y-114469819D02*
X118224049Y-113469819D01*
X118605002Y-113803152D02*
X119128811Y-113803152D01*
X119128811Y-113803152D02*
X118605002Y-114469819D01*
X118605002Y-114469819D02*
X119128811Y-114469819D01*
X120795478Y-113517438D02*
X120700240Y-113469819D01*
X120700240Y-113469819D02*
X120557383Y-113469819D01*
X120557383Y-113469819D02*
X120414526Y-113517438D01*
X120414526Y-113517438D02*
X120319288Y-113612676D01*
X120319288Y-113612676D02*
X120271669Y-113707914D01*
X120271669Y-113707914D02*
X120224050Y-113898390D01*
X120224050Y-113898390D02*
X120224050Y-114041247D01*
X120224050Y-114041247D02*
X120271669Y-114231723D01*
X120271669Y-114231723D02*
X120319288Y-114326961D01*
X120319288Y-114326961D02*
X120414526Y-114422200D01*
X120414526Y-114422200D02*
X120557383Y-114469819D01*
X120557383Y-114469819D02*
X120652621Y-114469819D01*
X120652621Y-114469819D02*
X120795478Y-114422200D01*
X120795478Y-114422200D02*
X120843097Y-114374580D01*
X120843097Y-114374580D02*
X120843097Y-114041247D01*
X120843097Y-114041247D02*
X120652621Y-114041247D01*
X121271669Y-114469819D02*
X121271669Y-113803152D01*
X121271669Y-113993628D02*
X121319288Y-113898390D01*
X121319288Y-113898390D02*
X121366907Y-113850771D01*
X121366907Y-113850771D02*
X121462145Y-113803152D01*
X121462145Y-113803152D02*
X121557383Y-113803152D01*
X122033574Y-114469819D02*
X121938336Y-114422200D01*
X121938336Y-114422200D02*
X121890717Y-114374580D01*
X121890717Y-114374580D02*
X121843098Y-114279342D01*
X121843098Y-114279342D02*
X121843098Y-113993628D01*
X121843098Y-113993628D02*
X121890717Y-113898390D01*
X121890717Y-113898390D02*
X121938336Y-113850771D01*
X121938336Y-113850771D02*
X122033574Y-113803152D01*
X122033574Y-113803152D02*
X122176431Y-113803152D01*
X122176431Y-113803152D02*
X122271669Y-113850771D01*
X122271669Y-113850771D02*
X122319288Y-113898390D01*
X122319288Y-113898390D02*
X122366907Y-113993628D01*
X122366907Y-113993628D02*
X122366907Y-114279342D01*
X122366907Y-114279342D02*
X122319288Y-114374580D01*
X122319288Y-114374580D02*
X122271669Y-114422200D01*
X122271669Y-114422200D02*
X122176431Y-114469819D01*
X122176431Y-114469819D02*
X122033574Y-114469819D01*
X123224050Y-113803152D02*
X123224050Y-114469819D01*
X122795479Y-113803152D02*
X122795479Y-114326961D01*
X122795479Y-114326961D02*
X122843098Y-114422200D01*
X122843098Y-114422200D02*
X122938336Y-114469819D01*
X122938336Y-114469819D02*
X123081193Y-114469819D01*
X123081193Y-114469819D02*
X123176431Y-114422200D01*
X123176431Y-114422200D02*
X123224050Y-114374580D01*
X123700241Y-113803152D02*
X123700241Y-114469819D01*
X123700241Y-113898390D02*
X123747860Y-113850771D01*
X123747860Y-113850771D02*
X123843098Y-113803152D01*
X123843098Y-113803152D02*
X123985955Y-113803152D01*
X123985955Y-113803152D02*
X124081193Y-113850771D01*
X124081193Y-113850771D02*
X124128812Y-113946009D01*
X124128812Y-113946009D02*
X124128812Y-114469819D01*
X125033574Y-114469819D02*
X125033574Y-113469819D01*
X125033574Y-114422200D02*
X124938336Y-114469819D01*
X124938336Y-114469819D02*
X124747860Y-114469819D01*
X124747860Y-114469819D02*
X124652622Y-114422200D01*
X124652622Y-114422200D02*
X124605003Y-114374580D01*
X124605003Y-114374580D02*
X124557384Y-114279342D01*
X124557384Y-114279342D02*
X124557384Y-113993628D01*
X124557384Y-113993628D02*
X124605003Y-113898390D01*
X124605003Y-113898390D02*
X124652622Y-113850771D01*
X124652622Y-113850771D02*
X124747860Y-113803152D01*
X124747860Y-113803152D02*
X124938336Y-113803152D01*
X124938336Y-113803152D02*
X125033574Y-113850771D01*
X125462146Y-114422200D02*
X125557384Y-114469819D01*
X125557384Y-114469819D02*
X125747860Y-114469819D01*
X125747860Y-114469819D02*
X125843098Y-114422200D01*
X125843098Y-114422200D02*
X125890717Y-114326961D01*
X125890717Y-114326961D02*
X125890717Y-114279342D01*
X125890717Y-114279342D02*
X125843098Y-114184104D01*
X125843098Y-114184104D02*
X125747860Y-114136485D01*
X125747860Y-114136485D02*
X125605003Y-114136485D01*
X125605003Y-114136485D02*
X125509765Y-114088866D01*
X125509765Y-114088866D02*
X125462146Y-113993628D01*
X125462146Y-113993628D02*
X125462146Y-113946009D01*
X125462146Y-113946009D02*
X125509765Y-113850771D01*
X125509765Y-113850771D02*
X125605003Y-113803152D01*
X125605003Y-113803152D02*
X125747860Y-113803152D01*
X125747860Y-113803152D02*
X125843098Y-113850771D01*
X126176432Y-113803152D02*
X126557384Y-113803152D01*
X126319289Y-113469819D02*
X126319289Y-114326961D01*
X126319289Y-114326961D02*
X126366908Y-114422200D01*
X126366908Y-114422200D02*
X126462146Y-114469819D01*
X126462146Y-114469819D02*
X126557384Y-114469819D01*
X127319289Y-114469819D02*
X127319289Y-113946009D01*
X127319289Y-113946009D02*
X127271670Y-113850771D01*
X127271670Y-113850771D02*
X127176432Y-113803152D01*
X127176432Y-113803152D02*
X126985956Y-113803152D01*
X126985956Y-113803152D02*
X126890718Y-113850771D01*
X127319289Y-114422200D02*
X127224051Y-114469819D01*
X127224051Y-114469819D02*
X126985956Y-114469819D01*
X126985956Y-114469819D02*
X126890718Y-114422200D01*
X126890718Y-114422200D02*
X126843099Y-114326961D01*
X126843099Y-114326961D02*
X126843099Y-114231723D01*
X126843099Y-114231723D02*
X126890718Y-114136485D01*
X126890718Y-114136485D02*
X126985956Y-114088866D01*
X126985956Y-114088866D02*
X127224051Y-114088866D01*
X127224051Y-114088866D02*
X127319289Y-114041247D01*
X127652623Y-113803152D02*
X128033575Y-113803152D01*
X127795480Y-113469819D02*
X127795480Y-114326961D01*
X127795480Y-114326961D02*
X127843099Y-114422200D01*
X127843099Y-114422200D02*
X127938337Y-114469819D01*
X127938337Y-114469819D02*
X128033575Y-114469819D01*
X128366909Y-114469819D02*
X128366909Y-113803152D01*
X128366909Y-113469819D02*
X128319290Y-113517438D01*
X128319290Y-113517438D02*
X128366909Y-113565057D01*
X128366909Y-113565057D02*
X128414528Y-113517438D01*
X128414528Y-113517438D02*
X128366909Y-113469819D01*
X128366909Y-113469819D02*
X128366909Y-113565057D01*
X128985956Y-114469819D02*
X128890718Y-114422200D01*
X128890718Y-114422200D02*
X128843099Y-114374580D01*
X128843099Y-114374580D02*
X128795480Y-114279342D01*
X128795480Y-114279342D02*
X128795480Y-113993628D01*
X128795480Y-113993628D02*
X128843099Y-113898390D01*
X128843099Y-113898390D02*
X128890718Y-113850771D01*
X128890718Y-113850771D02*
X128985956Y-113803152D01*
X128985956Y-113803152D02*
X129128813Y-113803152D01*
X129128813Y-113803152D02*
X129224051Y-113850771D01*
X129224051Y-113850771D02*
X129271670Y-113898390D01*
X129271670Y-113898390D02*
X129319289Y-113993628D01*
X129319289Y-113993628D02*
X129319289Y-114279342D01*
X129319289Y-114279342D02*
X129271670Y-114374580D01*
X129271670Y-114374580D02*
X129224051Y-114422200D01*
X129224051Y-114422200D02*
X129128813Y-114469819D01*
X129128813Y-114469819D02*
X128985956Y-114469819D01*
X129747861Y-113803152D02*
X129747861Y-114469819D01*
X129747861Y-113898390D02*
X129795480Y-113850771D01*
X129795480Y-113850771D02*
X129890718Y-113803152D01*
X129890718Y-113803152D02*
X130033575Y-113803152D01*
X130033575Y-113803152D02*
X130128813Y-113850771D01*
X130128813Y-113850771D02*
X130176432Y-113946009D01*
X130176432Y-113946009D02*
X130176432Y-114469819D01*
X113814150Y-77064349D02*
X113718912Y-77016730D01*
X113718912Y-77016730D02*
X113576055Y-77016730D01*
X113576055Y-77016730D02*
X113433198Y-77064349D01*
X113433198Y-77064349D02*
X113337960Y-77159587D01*
X113337960Y-77159587D02*
X113290341Y-77254825D01*
X113290341Y-77254825D02*
X113242722Y-77445301D01*
X113242722Y-77445301D02*
X113242722Y-77588158D01*
X113242722Y-77588158D02*
X113290341Y-77778634D01*
X113290341Y-77778634D02*
X113337960Y-77873872D01*
X113337960Y-77873872D02*
X113433198Y-77969111D01*
X113433198Y-77969111D02*
X113576055Y-78016730D01*
X113576055Y-78016730D02*
X113671293Y-78016730D01*
X113671293Y-78016730D02*
X113814150Y-77969111D01*
X113814150Y-77969111D02*
X113861769Y-77921491D01*
X113861769Y-77921491D02*
X113861769Y-77588158D01*
X113861769Y-77588158D02*
X113671293Y-77588158D01*
X114290341Y-78016730D02*
X114290341Y-77016730D01*
X114290341Y-77016730D02*
X114861769Y-78016730D01*
X114861769Y-78016730D02*
X114861769Y-77016730D01*
X115337960Y-78016730D02*
X115337960Y-77016730D01*
X115337960Y-77016730D02*
X115576055Y-77016730D01*
X115576055Y-77016730D02*
X115718912Y-77064349D01*
X115718912Y-77064349D02*
X115814150Y-77159587D01*
X115814150Y-77159587D02*
X115861769Y-77254825D01*
X115861769Y-77254825D02*
X115909388Y-77445301D01*
X115909388Y-77445301D02*
X115909388Y-77588158D01*
X115909388Y-77588158D02*
X115861769Y-77778634D01*
X115861769Y-77778634D02*
X115814150Y-77873872D01*
X115814150Y-77873872D02*
X115718912Y-77969111D01*
X115718912Y-77969111D02*
X115576055Y-78016730D01*
X115576055Y-78016730D02*
X115337960Y-78016730D01*
D11*
X136327495Y-86039638D02*
X136327495Y-84039638D01*
X136327495Y-84992019D02*
X137470352Y-84992019D01*
X137470352Y-86039638D02*
X137470352Y-84039638D01*
X138422733Y-85277733D02*
X139946543Y-85277733D01*
X141565590Y-84992019D02*
X141851304Y-85087257D01*
X141851304Y-85087257D02*
X141946542Y-85182495D01*
X141946542Y-85182495D02*
X142041780Y-85372971D01*
X142041780Y-85372971D02*
X142041780Y-85658685D01*
X142041780Y-85658685D02*
X141946542Y-85849161D01*
X141946542Y-85849161D02*
X141851304Y-85944400D01*
X141851304Y-85944400D02*
X141660828Y-86039638D01*
X141660828Y-86039638D02*
X140898923Y-86039638D01*
X140898923Y-86039638D02*
X140898923Y-84039638D01*
X140898923Y-84039638D02*
X141565590Y-84039638D01*
X141565590Y-84039638D02*
X141756066Y-84134876D01*
X141756066Y-84134876D02*
X141851304Y-84230114D01*
X141851304Y-84230114D02*
X141946542Y-84420590D01*
X141946542Y-84420590D02*
X141946542Y-84611066D01*
X141946542Y-84611066D02*
X141851304Y-84801542D01*
X141851304Y-84801542D02*
X141756066Y-84896780D01*
X141756066Y-84896780D02*
X141565590Y-84992019D01*
X141565590Y-84992019D02*
X140898923Y-84992019D01*
X142898923Y-86039638D02*
X142898923Y-84706304D01*
X142898923Y-85087257D02*
X142994161Y-84896780D01*
X142994161Y-84896780D02*
X143089399Y-84801542D01*
X143089399Y-84801542D02*
X143279875Y-84706304D01*
X143279875Y-84706304D02*
X143470352Y-84706304D01*
X144137018Y-86039638D02*
X144137018Y-84706304D01*
X144137018Y-84039638D02*
X144041780Y-84134876D01*
X144041780Y-84134876D02*
X144137018Y-84230114D01*
X144137018Y-84230114D02*
X144232256Y-84134876D01*
X144232256Y-84134876D02*
X144137018Y-84039638D01*
X144137018Y-84039638D02*
X144137018Y-84230114D01*
X145946542Y-86039638D02*
X145946542Y-84039638D01*
X145946542Y-85944400D02*
X145756066Y-86039638D01*
X145756066Y-86039638D02*
X145375113Y-86039638D01*
X145375113Y-86039638D02*
X145184637Y-85944400D01*
X145184637Y-85944400D02*
X145089399Y-85849161D01*
X145089399Y-85849161D02*
X144994161Y-85658685D01*
X144994161Y-85658685D02*
X144994161Y-85087257D01*
X144994161Y-85087257D02*
X145089399Y-84896780D01*
X145089399Y-84896780D02*
X145184637Y-84801542D01*
X145184637Y-84801542D02*
X145375113Y-84706304D01*
X145375113Y-84706304D02*
X145756066Y-84706304D01*
X145756066Y-84706304D02*
X145946542Y-84801542D01*
X147756066Y-84706304D02*
X147756066Y-86325352D01*
X147756066Y-86325352D02*
X147660828Y-86515828D01*
X147660828Y-86515828D02*
X147565590Y-86611066D01*
X147565590Y-86611066D02*
X147375113Y-86706304D01*
X147375113Y-86706304D02*
X147089399Y-86706304D01*
X147089399Y-86706304D02*
X146898923Y-86611066D01*
X147756066Y-85944400D02*
X147565590Y-86039638D01*
X147565590Y-86039638D02*
X147184637Y-86039638D01*
X147184637Y-86039638D02*
X146994161Y-85944400D01*
X146994161Y-85944400D02*
X146898923Y-85849161D01*
X146898923Y-85849161D02*
X146803685Y-85658685D01*
X146803685Y-85658685D02*
X146803685Y-85087257D01*
X146803685Y-85087257D02*
X146898923Y-84896780D01*
X146898923Y-84896780D02*
X146994161Y-84801542D01*
X146994161Y-84801542D02*
X147184637Y-84706304D01*
X147184637Y-84706304D02*
X147565590Y-84706304D01*
X147565590Y-84706304D02*
X147756066Y-84801542D01*
X149470352Y-85944400D02*
X149279876Y-86039638D01*
X149279876Y-86039638D02*
X148898923Y-86039638D01*
X148898923Y-86039638D02*
X148708447Y-85944400D01*
X148708447Y-85944400D02*
X148613209Y-85753923D01*
X148613209Y-85753923D02*
X148613209Y-84992019D01*
X148613209Y-84992019D02*
X148708447Y-84801542D01*
X148708447Y-84801542D02*
X148898923Y-84706304D01*
X148898923Y-84706304D02*
X149279876Y-84706304D01*
X149279876Y-84706304D02*
X149470352Y-84801542D01*
X149470352Y-84801542D02*
X149565590Y-84992019D01*
X149565590Y-84992019D02*
X149565590Y-85182495D01*
X149565590Y-85182495D02*
X148613209Y-85372971D01*
D10*
X113872863Y-93244250D02*
X113396673Y-93244250D01*
X113396673Y-93244250D02*
X113396673Y-92244250D01*
X114206197Y-93244250D02*
X114206197Y-92244250D01*
X114206197Y-92244250D02*
X114777625Y-93244250D01*
X114777625Y-93244250D02*
X114777625Y-92244250D01*
X115206197Y-92958535D02*
X115682387Y-92958535D01*
X115110959Y-93244250D02*
X115444292Y-92244250D01*
X115444292Y-92244250D02*
X115777625Y-93244250D01*
X113358040Y-100621937D02*
X113500897Y-100669556D01*
X113500897Y-100669556D02*
X113738992Y-100669556D01*
X113738992Y-100669556D02*
X113834230Y-100621937D01*
X113834230Y-100621937D02*
X113881849Y-100574317D01*
X113881849Y-100574317D02*
X113929468Y-100479079D01*
X113929468Y-100479079D02*
X113929468Y-100383841D01*
X113929468Y-100383841D02*
X113881849Y-100288603D01*
X113881849Y-100288603D02*
X113834230Y-100240984D01*
X113834230Y-100240984D02*
X113738992Y-100193365D01*
X113738992Y-100193365D02*
X113548516Y-100145746D01*
X113548516Y-100145746D02*
X113453278Y-100098127D01*
X113453278Y-100098127D02*
X113405659Y-100050508D01*
X113405659Y-100050508D02*
X113358040Y-99955270D01*
X113358040Y-99955270D02*
X113358040Y-99860032D01*
X113358040Y-99860032D02*
X113405659Y-99764794D01*
X113405659Y-99764794D02*
X113453278Y-99717175D01*
X113453278Y-99717175D02*
X113548516Y-99669556D01*
X113548516Y-99669556D02*
X113786611Y-99669556D01*
X113786611Y-99669556D02*
X113929468Y-99717175D01*
X114358040Y-100669556D02*
X114358040Y-99669556D01*
X114358040Y-99669556D02*
X114596135Y-99669556D01*
X114596135Y-99669556D02*
X114738992Y-99717175D01*
X114738992Y-99717175D02*
X114834230Y-99812413D01*
X114834230Y-99812413D02*
X114881849Y-99907651D01*
X114881849Y-99907651D02*
X114929468Y-100098127D01*
X114929468Y-100098127D02*
X114929468Y-100240984D01*
X114929468Y-100240984D02*
X114881849Y-100431460D01*
X114881849Y-100431460D02*
X114834230Y-100526698D01*
X114834230Y-100526698D02*
X114738992Y-100621937D01*
X114738992Y-100621937D02*
X114596135Y-100669556D01*
X114596135Y-100669556D02*
X114358040Y-100669556D01*
X115929468Y-100669556D02*
X115596135Y-100193365D01*
X115358040Y-100669556D02*
X115358040Y-99669556D01*
X115358040Y-99669556D02*
X115738992Y-99669556D01*
X115738992Y-99669556D02*
X115834230Y-99717175D01*
X115834230Y-99717175D02*
X115881849Y-99764794D01*
X115881849Y-99764794D02*
X115929468Y-99860032D01*
X115929468Y-99860032D02*
X115929468Y-100002889D01*
X115929468Y-100002889D02*
X115881849Y-100098127D01*
X115881849Y-100098127D02*
X115834230Y-100145746D01*
X115834230Y-100145746D02*
X115738992Y-100193365D01*
X115738992Y-100193365D02*
X115358040Y-100193365D01*
X113364224Y-88117324D02*
X113364224Y-87117324D01*
X113364224Y-87117324D02*
X113745176Y-87117324D01*
X113745176Y-87117324D02*
X113840414Y-87164943D01*
X113840414Y-87164943D02*
X113888033Y-87212562D01*
X113888033Y-87212562D02*
X113935652Y-87307800D01*
X113935652Y-87307800D02*
X113935652Y-87450657D01*
X113935652Y-87450657D02*
X113888033Y-87545895D01*
X113888033Y-87545895D02*
X113840414Y-87593514D01*
X113840414Y-87593514D02*
X113745176Y-87641133D01*
X113745176Y-87641133D02*
X113364224Y-87641133D01*
X114316605Y-87831609D02*
X114792795Y-87831609D01*
X114221367Y-88117324D02*
X114554700Y-87117324D01*
X114554700Y-87117324D02*
X114888033Y-88117324D01*
X165712144Y-104410155D02*
X165378811Y-103933964D01*
X165140716Y-104410155D02*
X165140716Y-103410155D01*
X165140716Y-103410155D02*
X165521668Y-103410155D01*
X165521668Y-103410155D02*
X165616906Y-103457774D01*
X165616906Y-103457774D02*
X165664525Y-103505393D01*
X165664525Y-103505393D02*
X165712144Y-103600631D01*
X165712144Y-103600631D02*
X165712144Y-103743488D01*
X165712144Y-103743488D02*
X165664525Y-103838726D01*
X165664525Y-103838726D02*
X165616906Y-103886345D01*
X165616906Y-103886345D02*
X165521668Y-103933964D01*
X165521668Y-103933964D02*
X165140716Y-103933964D01*
X166569287Y-104410155D02*
X166569287Y-103886345D01*
X166569287Y-103886345D02*
X166521668Y-103791107D01*
X166521668Y-103791107D02*
X166426430Y-103743488D01*
X166426430Y-103743488D02*
X166235954Y-103743488D01*
X166235954Y-103743488D02*
X166140716Y-103791107D01*
X166569287Y-104362536D02*
X166474049Y-104410155D01*
X166474049Y-104410155D02*
X166235954Y-104410155D01*
X166235954Y-104410155D02*
X166140716Y-104362536D01*
X166140716Y-104362536D02*
X166093097Y-104267297D01*
X166093097Y-104267297D02*
X166093097Y-104172059D01*
X166093097Y-104172059D02*
X166140716Y-104076821D01*
X166140716Y-104076821D02*
X166235954Y-104029202D01*
X166235954Y-104029202D02*
X166474049Y-104029202D01*
X166474049Y-104029202D02*
X166569287Y-103981583D01*
X167474049Y-104410155D02*
X167474049Y-103410155D01*
X167474049Y-104362536D02*
X167378811Y-104410155D01*
X167378811Y-104410155D02*
X167188335Y-104410155D01*
X167188335Y-104410155D02*
X167093097Y-104362536D01*
X167093097Y-104362536D02*
X167045478Y-104314916D01*
X167045478Y-104314916D02*
X166997859Y-104219678D01*
X166997859Y-104219678D02*
X166997859Y-103933964D01*
X166997859Y-103933964D02*
X167045478Y-103838726D01*
X167045478Y-103838726D02*
X167093097Y-103791107D01*
X167093097Y-103791107D02*
X167188335Y-103743488D01*
X167188335Y-103743488D02*
X167378811Y-103743488D01*
X167378811Y-103743488D02*
X167474049Y-103791107D01*
X167950240Y-104410155D02*
X167950240Y-103743488D01*
X167950240Y-103410155D02*
X167902621Y-103457774D01*
X167902621Y-103457774D02*
X167950240Y-103505393D01*
X167950240Y-103505393D02*
X167997859Y-103457774D01*
X167997859Y-103457774D02*
X167950240Y-103410155D01*
X167950240Y-103410155D02*
X167950240Y-103505393D01*
X168569287Y-104410155D02*
X168474049Y-104362536D01*
X168474049Y-104362536D02*
X168426430Y-104314916D01*
X168426430Y-104314916D02*
X168378811Y-104219678D01*
X168378811Y-104219678D02*
X168378811Y-103933964D01*
X168378811Y-103933964D02*
X168426430Y-103838726D01*
X168426430Y-103838726D02*
X168474049Y-103791107D01*
X168474049Y-103791107D02*
X168569287Y-103743488D01*
X168569287Y-103743488D02*
X168712144Y-103743488D01*
X168712144Y-103743488D02*
X168807382Y-103791107D01*
X168807382Y-103791107D02*
X168855001Y-103838726D01*
X168855001Y-103838726D02*
X168902620Y-103933964D01*
X168902620Y-103933964D02*
X168902620Y-104219678D01*
X168902620Y-104219678D02*
X168855001Y-104314916D01*
X168855001Y-104314916D02*
X168807382Y-104362536D01*
X168807382Y-104362536D02*
X168712144Y-104410155D01*
X168712144Y-104410155D02*
X168569287Y-104410155D01*
X170616906Y-103457774D02*
X170521668Y-103410155D01*
X170521668Y-103410155D02*
X170378811Y-103410155D01*
X170378811Y-103410155D02*
X170235954Y-103457774D01*
X170235954Y-103457774D02*
X170140716Y-103553012D01*
X170140716Y-103553012D02*
X170093097Y-103648250D01*
X170093097Y-103648250D02*
X170045478Y-103838726D01*
X170045478Y-103838726D02*
X170045478Y-103981583D01*
X170045478Y-103981583D02*
X170093097Y-104172059D01*
X170093097Y-104172059D02*
X170140716Y-104267297D01*
X170140716Y-104267297D02*
X170235954Y-104362536D01*
X170235954Y-104362536D02*
X170378811Y-104410155D01*
X170378811Y-104410155D02*
X170474049Y-104410155D01*
X170474049Y-104410155D02*
X170616906Y-104362536D01*
X170616906Y-104362536D02*
X170664525Y-104314916D01*
X170664525Y-104314916D02*
X170664525Y-103981583D01*
X170664525Y-103981583D02*
X170474049Y-103981583D01*
X171093097Y-104410155D02*
X171093097Y-103410155D01*
X171093097Y-103410155D02*
X171474049Y-103410155D01*
X171474049Y-103410155D02*
X171569287Y-103457774D01*
X171569287Y-103457774D02*
X171616906Y-103505393D01*
X171616906Y-103505393D02*
X171664525Y-103600631D01*
X171664525Y-103600631D02*
X171664525Y-103743488D01*
X171664525Y-103743488D02*
X171616906Y-103838726D01*
X171616906Y-103838726D02*
X171569287Y-103886345D01*
X171569287Y-103886345D02*
X171474049Y-103933964D01*
X171474049Y-103933964D02*
X171093097Y-103933964D01*
X172093097Y-104410155D02*
X172093097Y-103410155D01*
X172759763Y-103410155D02*
X172950239Y-103410155D01*
X172950239Y-103410155D02*
X173045477Y-103457774D01*
X173045477Y-103457774D02*
X173140715Y-103553012D01*
X173140715Y-103553012D02*
X173188334Y-103743488D01*
X173188334Y-103743488D02*
X173188334Y-104076821D01*
X173188334Y-104076821D02*
X173140715Y-104267297D01*
X173140715Y-104267297D02*
X173045477Y-104362536D01*
X173045477Y-104362536D02*
X172950239Y-104410155D01*
X172950239Y-104410155D02*
X172759763Y-104410155D01*
X172759763Y-104410155D02*
X172664525Y-104362536D01*
X172664525Y-104362536D02*
X172569287Y-104267297D01*
X172569287Y-104267297D02*
X172521668Y-104076821D01*
X172521668Y-104076821D02*
X172521668Y-103743488D01*
X172521668Y-103743488D02*
X172569287Y-103553012D01*
X172569287Y-103553012D02*
X172664525Y-103457774D01*
X172664525Y-103457774D02*
X172759763Y-103410155D01*
X173569287Y-104362536D02*
X173664525Y-104410155D01*
X173664525Y-104410155D02*
X173855001Y-104410155D01*
X173855001Y-104410155D02*
X173950239Y-104362536D01*
X173950239Y-104362536D02*
X173997858Y-104267297D01*
X173997858Y-104267297D02*
X173997858Y-104219678D01*
X173997858Y-104219678D02*
X173950239Y-104124440D01*
X173950239Y-104124440D02*
X173855001Y-104076821D01*
X173855001Y-104076821D02*
X173712144Y-104076821D01*
X173712144Y-104076821D02*
X173616906Y-104029202D01*
X173616906Y-104029202D02*
X173569287Y-103933964D01*
X173569287Y-103933964D02*
X173569287Y-103886345D01*
X173569287Y-103886345D02*
X173616906Y-103791107D01*
X173616906Y-103791107D02*
X173712144Y-103743488D01*
X173712144Y-103743488D02*
X173855001Y-103743488D01*
X173855001Y-103743488D02*
X173950239Y-103791107D01*
X165712144Y-106020099D02*
X165378811Y-105543908D01*
X165140716Y-106020099D02*
X165140716Y-105020099D01*
X165140716Y-105020099D02*
X165521668Y-105020099D01*
X165521668Y-105020099D02*
X165616906Y-105067718D01*
X165616906Y-105067718D02*
X165664525Y-105115337D01*
X165664525Y-105115337D02*
X165712144Y-105210575D01*
X165712144Y-105210575D02*
X165712144Y-105353432D01*
X165712144Y-105353432D02*
X165664525Y-105448670D01*
X165664525Y-105448670D02*
X165616906Y-105496289D01*
X165616906Y-105496289D02*
X165521668Y-105543908D01*
X165521668Y-105543908D02*
X165140716Y-105543908D01*
X166474049Y-105496289D02*
X166140716Y-105496289D01*
X166140716Y-106020099D02*
X166140716Y-105020099D01*
X166140716Y-105020099D02*
X166616906Y-105020099D01*
X166759764Y-106115337D02*
X167521668Y-106115337D01*
X167759764Y-105496289D02*
X168093097Y-105496289D01*
X168235954Y-106020099D02*
X167759764Y-106020099D01*
X167759764Y-106020099D02*
X167759764Y-105020099D01*
X167759764Y-105020099D02*
X168235954Y-105020099D01*
X168664526Y-106020099D02*
X168664526Y-105020099D01*
X168664526Y-105020099D02*
X169235954Y-106020099D01*
X169235954Y-106020099D02*
X169235954Y-105020099D01*
X169712145Y-105924860D02*
X169759764Y-105972480D01*
X169759764Y-105972480D02*
X169712145Y-106020099D01*
X169712145Y-106020099D02*
X169664526Y-105972480D01*
X169664526Y-105972480D02*
X169712145Y-105924860D01*
X169712145Y-105924860D02*
X169712145Y-106020099D01*
X169712145Y-105401051D02*
X169759764Y-105448670D01*
X169759764Y-105448670D02*
X169712145Y-105496289D01*
X169712145Y-105496289D02*
X169664526Y-105448670D01*
X169664526Y-105448670D02*
X169712145Y-105401051D01*
X169712145Y-105401051D02*
X169712145Y-105496289D01*
X170902621Y-105115337D02*
X170950240Y-105067718D01*
X170950240Y-105067718D02*
X171045478Y-105020099D01*
X171045478Y-105020099D02*
X171283573Y-105020099D01*
X171283573Y-105020099D02*
X171378811Y-105067718D01*
X171378811Y-105067718D02*
X171426430Y-105115337D01*
X171426430Y-105115337D02*
X171474049Y-105210575D01*
X171474049Y-105210575D02*
X171474049Y-105305813D01*
X171474049Y-105305813D02*
X171426430Y-105448670D01*
X171426430Y-105448670D02*
X170855002Y-106020099D01*
X170855002Y-106020099D02*
X171474049Y-106020099D01*
X172093097Y-105020099D02*
X172188335Y-105020099D01*
X172188335Y-105020099D02*
X172283573Y-105067718D01*
X172283573Y-105067718D02*
X172331192Y-105115337D01*
X172331192Y-105115337D02*
X172378811Y-105210575D01*
X172378811Y-105210575D02*
X172426430Y-105401051D01*
X172426430Y-105401051D02*
X172426430Y-105639146D01*
X172426430Y-105639146D02*
X172378811Y-105829622D01*
X172378811Y-105829622D02*
X172331192Y-105924860D01*
X172331192Y-105924860D02*
X172283573Y-105972480D01*
X172283573Y-105972480D02*
X172188335Y-106020099D01*
X172188335Y-106020099D02*
X172093097Y-106020099D01*
X172093097Y-106020099D02*
X171997859Y-105972480D01*
X171997859Y-105972480D02*
X171950240Y-105924860D01*
X171950240Y-105924860D02*
X171902621Y-105829622D01*
X171902621Y-105829622D02*
X171855002Y-105639146D01*
X171855002Y-105639146D02*
X171855002Y-105401051D01*
X171855002Y-105401051D02*
X171902621Y-105210575D01*
X171902621Y-105210575D02*
X171950240Y-105115337D01*
X171950240Y-105115337D02*
X171997859Y-105067718D01*
X171997859Y-105067718D02*
X172093097Y-105020099D01*
X165712144Y-107630043D02*
X165378811Y-107153852D01*
X165140716Y-107630043D02*
X165140716Y-106630043D01*
X165140716Y-106630043D02*
X165521668Y-106630043D01*
X165521668Y-106630043D02*
X165616906Y-106677662D01*
X165616906Y-106677662D02*
X165664525Y-106725281D01*
X165664525Y-106725281D02*
X165712144Y-106820519D01*
X165712144Y-106820519D02*
X165712144Y-106963376D01*
X165712144Y-106963376D02*
X165664525Y-107058614D01*
X165664525Y-107058614D02*
X165616906Y-107106233D01*
X165616906Y-107106233D02*
X165521668Y-107153852D01*
X165521668Y-107153852D02*
X165140716Y-107153852D01*
X166474049Y-107106233D02*
X166140716Y-107106233D01*
X166140716Y-107630043D02*
X166140716Y-106630043D01*
X166140716Y-106630043D02*
X166616906Y-106630043D01*
X166759764Y-107725281D02*
X167521668Y-107725281D01*
X168331192Y-107630043D02*
X167997859Y-107153852D01*
X167759764Y-107630043D02*
X167759764Y-106630043D01*
X167759764Y-106630043D02*
X168140716Y-106630043D01*
X168140716Y-106630043D02*
X168235954Y-106677662D01*
X168235954Y-106677662D02*
X168283573Y-106725281D01*
X168283573Y-106725281D02*
X168331192Y-106820519D01*
X168331192Y-106820519D02*
X168331192Y-106963376D01*
X168331192Y-106963376D02*
X168283573Y-107058614D01*
X168283573Y-107058614D02*
X168235954Y-107106233D01*
X168235954Y-107106233D02*
X168140716Y-107153852D01*
X168140716Y-107153852D02*
X167759764Y-107153852D01*
X168712145Y-107582424D02*
X168855002Y-107630043D01*
X168855002Y-107630043D02*
X169093097Y-107630043D01*
X169093097Y-107630043D02*
X169188335Y-107582424D01*
X169188335Y-107582424D02*
X169235954Y-107534804D01*
X169235954Y-107534804D02*
X169283573Y-107439566D01*
X169283573Y-107439566D02*
X169283573Y-107344328D01*
X169283573Y-107344328D02*
X169235954Y-107249090D01*
X169235954Y-107249090D02*
X169188335Y-107201471D01*
X169188335Y-107201471D02*
X169093097Y-107153852D01*
X169093097Y-107153852D02*
X168902621Y-107106233D01*
X168902621Y-107106233D02*
X168807383Y-107058614D01*
X168807383Y-107058614D02*
X168759764Y-107010995D01*
X168759764Y-107010995D02*
X168712145Y-106915757D01*
X168712145Y-106915757D02*
X168712145Y-106820519D01*
X168712145Y-106820519D02*
X168759764Y-106725281D01*
X168759764Y-106725281D02*
X168807383Y-106677662D01*
X168807383Y-106677662D02*
X168902621Y-106630043D01*
X168902621Y-106630043D02*
X169140716Y-106630043D01*
X169140716Y-106630043D02*
X169283573Y-106677662D01*
X169569288Y-106630043D02*
X170140716Y-106630043D01*
X169855002Y-107630043D02*
X169855002Y-106630043D01*
X170474050Y-107534804D02*
X170521669Y-107582424D01*
X170521669Y-107582424D02*
X170474050Y-107630043D01*
X170474050Y-107630043D02*
X170426431Y-107582424D01*
X170426431Y-107582424D02*
X170474050Y-107534804D01*
X170474050Y-107534804D02*
X170474050Y-107630043D01*
X170474050Y-107010995D02*
X170521669Y-107058614D01*
X170521669Y-107058614D02*
X170474050Y-107106233D01*
X170474050Y-107106233D02*
X170426431Y-107058614D01*
X170426431Y-107058614D02*
X170474050Y-107010995D01*
X170474050Y-107010995D02*
X170474050Y-107106233D01*
X172140716Y-106630043D02*
X171950240Y-106630043D01*
X171950240Y-106630043D02*
X171855002Y-106677662D01*
X171855002Y-106677662D02*
X171807383Y-106725281D01*
X171807383Y-106725281D02*
X171712145Y-106868138D01*
X171712145Y-106868138D02*
X171664526Y-107058614D01*
X171664526Y-107058614D02*
X171664526Y-107439566D01*
X171664526Y-107439566D02*
X171712145Y-107534804D01*
X171712145Y-107534804D02*
X171759764Y-107582424D01*
X171759764Y-107582424D02*
X171855002Y-107630043D01*
X171855002Y-107630043D02*
X172045478Y-107630043D01*
X172045478Y-107630043D02*
X172140716Y-107582424D01*
X172140716Y-107582424D02*
X172188335Y-107534804D01*
X172188335Y-107534804D02*
X172235954Y-107439566D01*
X172235954Y-107439566D02*
X172235954Y-107201471D01*
X172235954Y-107201471D02*
X172188335Y-107106233D01*
X172188335Y-107106233D02*
X172140716Y-107058614D01*
X172140716Y-107058614D02*
X172045478Y-107010995D01*
X172045478Y-107010995D02*
X171855002Y-107010995D01*
X171855002Y-107010995D02*
X171759764Y-107058614D01*
X171759764Y-107058614D02*
X171712145Y-107106233D01*
X171712145Y-107106233D02*
X171664526Y-107201471D01*
X165140716Y-109239987D02*
X165140716Y-108239987D01*
X165140716Y-108239987D02*
X165474049Y-108954272D01*
X165474049Y-108954272D02*
X165807382Y-108239987D01*
X165807382Y-108239987D02*
X165807382Y-109239987D01*
X166283573Y-109239987D02*
X166283573Y-108239987D01*
X166712144Y-109192368D02*
X166855001Y-109239987D01*
X166855001Y-109239987D02*
X167093096Y-109239987D01*
X167093096Y-109239987D02*
X167188334Y-109192368D01*
X167188334Y-109192368D02*
X167235953Y-109144748D01*
X167235953Y-109144748D02*
X167283572Y-109049510D01*
X167283572Y-109049510D02*
X167283572Y-108954272D01*
X167283572Y-108954272D02*
X167235953Y-108859034D01*
X167235953Y-108859034D02*
X167188334Y-108811415D01*
X167188334Y-108811415D02*
X167093096Y-108763796D01*
X167093096Y-108763796D02*
X166902620Y-108716177D01*
X166902620Y-108716177D02*
X166807382Y-108668558D01*
X166807382Y-108668558D02*
X166759763Y-108620939D01*
X166759763Y-108620939D02*
X166712144Y-108525701D01*
X166712144Y-108525701D02*
X166712144Y-108430463D01*
X166712144Y-108430463D02*
X166759763Y-108335225D01*
X166759763Y-108335225D02*
X166807382Y-108287606D01*
X166807382Y-108287606D02*
X166902620Y-108239987D01*
X166902620Y-108239987D02*
X167140715Y-108239987D01*
X167140715Y-108239987D02*
X167283572Y-108287606D01*
X167902620Y-108239987D02*
X168093096Y-108239987D01*
X168093096Y-108239987D02*
X168188334Y-108287606D01*
X168188334Y-108287606D02*
X168283572Y-108382844D01*
X168283572Y-108382844D02*
X168331191Y-108573320D01*
X168331191Y-108573320D02*
X168331191Y-108906653D01*
X168331191Y-108906653D02*
X168283572Y-109097129D01*
X168283572Y-109097129D02*
X168188334Y-109192368D01*
X168188334Y-109192368D02*
X168093096Y-109239987D01*
X168093096Y-109239987D02*
X167902620Y-109239987D01*
X167902620Y-109239987D02*
X167807382Y-109192368D01*
X167807382Y-109192368D02*
X167712144Y-109097129D01*
X167712144Y-109097129D02*
X167664525Y-108906653D01*
X167664525Y-108906653D02*
X167664525Y-108573320D01*
X167664525Y-108573320D02*
X167712144Y-108382844D01*
X167712144Y-108382844D02*
X167807382Y-108287606D01*
X167807382Y-108287606D02*
X167902620Y-108239987D01*
X168759763Y-109144748D02*
X168807382Y-109192368D01*
X168807382Y-109192368D02*
X168759763Y-109239987D01*
X168759763Y-109239987D02*
X168712144Y-109192368D01*
X168712144Y-109192368D02*
X168759763Y-109144748D01*
X168759763Y-109144748D02*
X168759763Y-109239987D01*
X168759763Y-108620939D02*
X168807382Y-108668558D01*
X168807382Y-108668558D02*
X168759763Y-108716177D01*
X168759763Y-108716177D02*
X168712144Y-108668558D01*
X168712144Y-108668558D02*
X168759763Y-108620939D01*
X168759763Y-108620939D02*
X168759763Y-108716177D01*
X170045477Y-109239987D02*
X170235953Y-109239987D01*
X170235953Y-109239987D02*
X170331191Y-109192368D01*
X170331191Y-109192368D02*
X170378810Y-109144748D01*
X170378810Y-109144748D02*
X170474048Y-109001891D01*
X170474048Y-109001891D02*
X170521667Y-108811415D01*
X170521667Y-108811415D02*
X170521667Y-108430463D01*
X170521667Y-108430463D02*
X170474048Y-108335225D01*
X170474048Y-108335225D02*
X170426429Y-108287606D01*
X170426429Y-108287606D02*
X170331191Y-108239987D01*
X170331191Y-108239987D02*
X170140715Y-108239987D01*
X170140715Y-108239987D02*
X170045477Y-108287606D01*
X170045477Y-108287606D02*
X169997858Y-108335225D01*
X169997858Y-108335225D02*
X169950239Y-108430463D01*
X169950239Y-108430463D02*
X169950239Y-108668558D01*
X169950239Y-108668558D02*
X169997858Y-108763796D01*
X169997858Y-108763796D02*
X170045477Y-108811415D01*
X170045477Y-108811415D02*
X170140715Y-108859034D01*
X170140715Y-108859034D02*
X170331191Y-108859034D01*
X170331191Y-108859034D02*
X170426429Y-108811415D01*
X170426429Y-108811415D02*
X170474048Y-108763796D01*
X170474048Y-108763796D02*
X170521667Y-108668558D01*
X165140716Y-110849931D02*
X165140716Y-109849931D01*
X165140716Y-109849931D02*
X165474049Y-110564216D01*
X165474049Y-110564216D02*
X165807382Y-109849931D01*
X165807382Y-109849931D02*
X165807382Y-110849931D01*
X166474049Y-109849931D02*
X166664525Y-109849931D01*
X166664525Y-109849931D02*
X166759763Y-109897550D01*
X166759763Y-109897550D02*
X166855001Y-109992788D01*
X166855001Y-109992788D02*
X166902620Y-110183264D01*
X166902620Y-110183264D02*
X166902620Y-110516597D01*
X166902620Y-110516597D02*
X166855001Y-110707073D01*
X166855001Y-110707073D02*
X166759763Y-110802312D01*
X166759763Y-110802312D02*
X166664525Y-110849931D01*
X166664525Y-110849931D02*
X166474049Y-110849931D01*
X166474049Y-110849931D02*
X166378811Y-110802312D01*
X166378811Y-110802312D02*
X166283573Y-110707073D01*
X166283573Y-110707073D02*
X166235954Y-110516597D01*
X166235954Y-110516597D02*
X166235954Y-110183264D01*
X166235954Y-110183264D02*
X166283573Y-109992788D01*
X166283573Y-109992788D02*
X166378811Y-109897550D01*
X166378811Y-109897550D02*
X166474049Y-109849931D01*
X167283573Y-110802312D02*
X167426430Y-110849931D01*
X167426430Y-110849931D02*
X167664525Y-110849931D01*
X167664525Y-110849931D02*
X167759763Y-110802312D01*
X167759763Y-110802312D02*
X167807382Y-110754692D01*
X167807382Y-110754692D02*
X167855001Y-110659454D01*
X167855001Y-110659454D02*
X167855001Y-110564216D01*
X167855001Y-110564216D02*
X167807382Y-110468978D01*
X167807382Y-110468978D02*
X167759763Y-110421359D01*
X167759763Y-110421359D02*
X167664525Y-110373740D01*
X167664525Y-110373740D02*
X167474049Y-110326121D01*
X167474049Y-110326121D02*
X167378811Y-110278502D01*
X167378811Y-110278502D02*
X167331192Y-110230883D01*
X167331192Y-110230883D02*
X167283573Y-110135645D01*
X167283573Y-110135645D02*
X167283573Y-110040407D01*
X167283573Y-110040407D02*
X167331192Y-109945169D01*
X167331192Y-109945169D02*
X167378811Y-109897550D01*
X167378811Y-109897550D02*
X167474049Y-109849931D01*
X167474049Y-109849931D02*
X167712144Y-109849931D01*
X167712144Y-109849931D02*
X167855001Y-109897550D01*
X168283573Y-110849931D02*
X168283573Y-109849931D01*
X168759763Y-110754692D02*
X168807382Y-110802312D01*
X168807382Y-110802312D02*
X168759763Y-110849931D01*
X168759763Y-110849931D02*
X168712144Y-110802312D01*
X168712144Y-110802312D02*
X168759763Y-110754692D01*
X168759763Y-110754692D02*
X168759763Y-110849931D01*
X168759763Y-110230883D02*
X168807382Y-110278502D01*
X168807382Y-110278502D02*
X168759763Y-110326121D01*
X168759763Y-110326121D02*
X168712144Y-110278502D01*
X168712144Y-110278502D02*
X168759763Y-110230883D01*
X168759763Y-110230883D02*
X168759763Y-110326121D01*
X170521667Y-110849931D02*
X169950239Y-110849931D01*
X170235953Y-110849931D02*
X170235953Y-109849931D01*
X170235953Y-109849931D02*
X170140715Y-109992788D01*
X170140715Y-109992788D02*
X170045477Y-110088026D01*
X170045477Y-110088026D02*
X169950239Y-110135645D01*
X171140715Y-109849931D02*
X171235953Y-109849931D01*
X171235953Y-109849931D02*
X171331191Y-109897550D01*
X171331191Y-109897550D02*
X171378810Y-109945169D01*
X171378810Y-109945169D02*
X171426429Y-110040407D01*
X171426429Y-110040407D02*
X171474048Y-110230883D01*
X171474048Y-110230883D02*
X171474048Y-110468978D01*
X171474048Y-110468978D02*
X171426429Y-110659454D01*
X171426429Y-110659454D02*
X171378810Y-110754692D01*
X171378810Y-110754692D02*
X171331191Y-110802312D01*
X171331191Y-110802312D02*
X171235953Y-110849931D01*
X171235953Y-110849931D02*
X171140715Y-110849931D01*
X171140715Y-110849931D02*
X171045477Y-110802312D01*
X171045477Y-110802312D02*
X170997858Y-110754692D01*
X170997858Y-110754692D02*
X170950239Y-110659454D01*
X170950239Y-110659454D02*
X170902620Y-110468978D01*
X170902620Y-110468978D02*
X170902620Y-110230883D01*
X170902620Y-110230883D02*
X170950239Y-110040407D01*
X170950239Y-110040407D02*
X170997858Y-109945169D01*
X170997858Y-109945169D02*
X171045477Y-109897550D01*
X171045477Y-109897550D02*
X171140715Y-109849931D01*
X165093097Y-112412256D02*
X165235954Y-112459875D01*
X165235954Y-112459875D02*
X165474049Y-112459875D01*
X165474049Y-112459875D02*
X165569287Y-112412256D01*
X165569287Y-112412256D02*
X165616906Y-112364636D01*
X165616906Y-112364636D02*
X165664525Y-112269398D01*
X165664525Y-112269398D02*
X165664525Y-112174160D01*
X165664525Y-112174160D02*
X165616906Y-112078922D01*
X165616906Y-112078922D02*
X165569287Y-112031303D01*
X165569287Y-112031303D02*
X165474049Y-111983684D01*
X165474049Y-111983684D02*
X165283573Y-111936065D01*
X165283573Y-111936065D02*
X165188335Y-111888446D01*
X165188335Y-111888446D02*
X165140716Y-111840827D01*
X165140716Y-111840827D02*
X165093097Y-111745589D01*
X165093097Y-111745589D02*
X165093097Y-111650351D01*
X165093097Y-111650351D02*
X165140716Y-111555113D01*
X165140716Y-111555113D02*
X165188335Y-111507494D01*
X165188335Y-111507494D02*
X165283573Y-111459875D01*
X165283573Y-111459875D02*
X165521668Y-111459875D01*
X165521668Y-111459875D02*
X165664525Y-111507494D01*
X166664525Y-112364636D02*
X166616906Y-112412256D01*
X166616906Y-112412256D02*
X166474049Y-112459875D01*
X166474049Y-112459875D02*
X166378811Y-112459875D01*
X166378811Y-112459875D02*
X166235954Y-112412256D01*
X166235954Y-112412256D02*
X166140716Y-112317017D01*
X166140716Y-112317017D02*
X166093097Y-112221779D01*
X166093097Y-112221779D02*
X166045478Y-112031303D01*
X166045478Y-112031303D02*
X166045478Y-111888446D01*
X166045478Y-111888446D02*
X166093097Y-111697970D01*
X166093097Y-111697970D02*
X166140716Y-111602732D01*
X166140716Y-111602732D02*
X166235954Y-111507494D01*
X166235954Y-111507494D02*
X166378811Y-111459875D01*
X166378811Y-111459875D02*
X166474049Y-111459875D01*
X166474049Y-111459875D02*
X166616906Y-111507494D01*
X166616906Y-111507494D02*
X166664525Y-111555113D01*
X167093097Y-112459875D02*
X167093097Y-111459875D01*
X167664525Y-112459875D02*
X167235954Y-111888446D01*
X167664525Y-111459875D02*
X167093097Y-112031303D01*
X168093097Y-112364636D02*
X168140716Y-112412256D01*
X168140716Y-112412256D02*
X168093097Y-112459875D01*
X168093097Y-112459875D02*
X168045478Y-112412256D01*
X168045478Y-112412256D02*
X168093097Y-112364636D01*
X168093097Y-112364636D02*
X168093097Y-112459875D01*
X168093097Y-111840827D02*
X168140716Y-111888446D01*
X168140716Y-111888446D02*
X168093097Y-111936065D01*
X168093097Y-111936065D02*
X168045478Y-111888446D01*
X168045478Y-111888446D02*
X168093097Y-111840827D01*
X168093097Y-111840827D02*
X168093097Y-111936065D01*
X169855001Y-112459875D02*
X169283573Y-112459875D01*
X169569287Y-112459875D02*
X169569287Y-111459875D01*
X169569287Y-111459875D02*
X169474049Y-111602732D01*
X169474049Y-111602732D02*
X169378811Y-111697970D01*
X169378811Y-111697970D02*
X169283573Y-111745589D01*
X170807382Y-112459875D02*
X170235954Y-112459875D01*
X170521668Y-112459875D02*
X170521668Y-111459875D01*
X170521668Y-111459875D02*
X170426430Y-111602732D01*
X170426430Y-111602732D02*
X170331192Y-111697970D01*
X170331192Y-111697970D02*
X170235954Y-111745589D01*
X165712144Y-113974580D02*
X165664525Y-114022200D01*
X165664525Y-114022200D02*
X165521668Y-114069819D01*
X165521668Y-114069819D02*
X165426430Y-114069819D01*
X165426430Y-114069819D02*
X165283573Y-114022200D01*
X165283573Y-114022200D02*
X165188335Y-113926961D01*
X165188335Y-113926961D02*
X165140716Y-113831723D01*
X165140716Y-113831723D02*
X165093097Y-113641247D01*
X165093097Y-113641247D02*
X165093097Y-113498390D01*
X165093097Y-113498390D02*
X165140716Y-113307914D01*
X165140716Y-113307914D02*
X165188335Y-113212676D01*
X165188335Y-113212676D02*
X165283573Y-113117438D01*
X165283573Y-113117438D02*
X165426430Y-113069819D01*
X165426430Y-113069819D02*
X165521668Y-113069819D01*
X165521668Y-113069819D02*
X165664525Y-113117438D01*
X165664525Y-113117438D02*
X165712144Y-113165057D01*
X166093097Y-114022200D02*
X166235954Y-114069819D01*
X166235954Y-114069819D02*
X166474049Y-114069819D01*
X166474049Y-114069819D02*
X166569287Y-114022200D01*
X166569287Y-114022200D02*
X166616906Y-113974580D01*
X166616906Y-113974580D02*
X166664525Y-113879342D01*
X166664525Y-113879342D02*
X166664525Y-113784104D01*
X166664525Y-113784104D02*
X166616906Y-113688866D01*
X166616906Y-113688866D02*
X166569287Y-113641247D01*
X166569287Y-113641247D02*
X166474049Y-113593628D01*
X166474049Y-113593628D02*
X166283573Y-113546009D01*
X166283573Y-113546009D02*
X166188335Y-113498390D01*
X166188335Y-113498390D02*
X166140716Y-113450771D01*
X166140716Y-113450771D02*
X166093097Y-113355533D01*
X166093097Y-113355533D02*
X166093097Y-113260295D01*
X166093097Y-113260295D02*
X166140716Y-113165057D01*
X166140716Y-113165057D02*
X166188335Y-113117438D01*
X166188335Y-113117438D02*
X166283573Y-113069819D01*
X166283573Y-113069819D02*
X166521668Y-113069819D01*
X166521668Y-113069819D02*
X166664525Y-113117438D01*
X167093097Y-113974580D02*
X167140716Y-114022200D01*
X167140716Y-114022200D02*
X167093097Y-114069819D01*
X167093097Y-114069819D02*
X167045478Y-114022200D01*
X167045478Y-114022200D02*
X167093097Y-113974580D01*
X167093097Y-113974580D02*
X167093097Y-114069819D01*
X167093097Y-113450771D02*
X167140716Y-113498390D01*
X167140716Y-113498390D02*
X167093097Y-113546009D01*
X167093097Y-113546009D02*
X167045478Y-113498390D01*
X167045478Y-113498390D02*
X167093097Y-113450771D01*
X167093097Y-113450771D02*
X167093097Y-113546009D01*
X168235954Y-113069819D02*
X168902620Y-113069819D01*
X168902620Y-113069819D02*
X168474049Y-114069819D01*
X113911496Y-89784318D02*
X113816258Y-89736699D01*
X113816258Y-89736699D02*
X113673401Y-89736699D01*
X113673401Y-89736699D02*
X113530544Y-89784318D01*
X113530544Y-89784318D02*
X113435306Y-89879556D01*
X113435306Y-89879556D02*
X113387687Y-89974794D01*
X113387687Y-89974794D02*
X113340068Y-90165270D01*
X113340068Y-90165270D02*
X113340068Y-90308127D01*
X113340068Y-90308127D02*
X113387687Y-90498603D01*
X113387687Y-90498603D02*
X113435306Y-90593841D01*
X113435306Y-90593841D02*
X113530544Y-90689080D01*
X113530544Y-90689080D02*
X113673401Y-90736699D01*
X113673401Y-90736699D02*
X113768639Y-90736699D01*
X113768639Y-90736699D02*
X113911496Y-90689080D01*
X113911496Y-90689080D02*
X113959115Y-90641460D01*
X113959115Y-90641460D02*
X113959115Y-90308127D01*
X113959115Y-90308127D02*
X113768639Y-90308127D01*
X114387687Y-90736699D02*
X114387687Y-89736699D01*
X114387687Y-89736699D02*
X114959115Y-90736699D01*
X114959115Y-90736699D02*
X114959115Y-89736699D01*
X115435306Y-90736699D02*
X115435306Y-89736699D01*
X115435306Y-89736699D02*
X115673401Y-89736699D01*
X115673401Y-89736699D02*
X115816258Y-89784318D01*
X115816258Y-89784318D02*
X115911496Y-89879556D01*
X115911496Y-89879556D02*
X115959115Y-89974794D01*
X115959115Y-89974794D02*
X116006734Y-90165270D01*
X116006734Y-90165270D02*
X116006734Y-90308127D01*
X116006734Y-90308127D02*
X115959115Y-90498603D01*
X115959115Y-90498603D02*
X115911496Y-90593841D01*
X115911496Y-90593841D02*
X115816258Y-90689080D01*
X115816258Y-90689080D02*
X115673401Y-90736699D01*
X115673401Y-90736699D02*
X115435306Y-90736699D01*
X113879047Y-79498017D02*
X113783809Y-79450398D01*
X113783809Y-79450398D02*
X113640952Y-79450398D01*
X113640952Y-79450398D02*
X113498095Y-79498017D01*
X113498095Y-79498017D02*
X113402857Y-79593255D01*
X113402857Y-79593255D02*
X113355238Y-79688493D01*
X113355238Y-79688493D02*
X113307619Y-79878969D01*
X113307619Y-79878969D02*
X113307619Y-80021826D01*
X113307619Y-80021826D02*
X113355238Y-80212302D01*
X113355238Y-80212302D02*
X113402857Y-80307540D01*
X113402857Y-80307540D02*
X113498095Y-80402779D01*
X113498095Y-80402779D02*
X113640952Y-80450398D01*
X113640952Y-80450398D02*
X113736190Y-80450398D01*
X113736190Y-80450398D02*
X113879047Y-80402779D01*
X113879047Y-80402779D02*
X113926666Y-80355159D01*
X113926666Y-80355159D02*
X113926666Y-80021826D01*
X113926666Y-80021826D02*
X113736190Y-80021826D01*
X114355238Y-80450398D02*
X114355238Y-79450398D01*
X114355238Y-79450398D02*
X114926666Y-80450398D01*
X114926666Y-80450398D02*
X114926666Y-79450398D01*
X115402857Y-80450398D02*
X115402857Y-79450398D01*
X115402857Y-79450398D02*
X115640952Y-79450398D01*
X115640952Y-79450398D02*
X115783809Y-79498017D01*
X115783809Y-79498017D02*
X115879047Y-79593255D01*
X115879047Y-79593255D02*
X115926666Y-79688493D01*
X115926666Y-79688493D02*
X115974285Y-79878969D01*
X115974285Y-79878969D02*
X115974285Y-80021826D01*
X115974285Y-80021826D02*
X115926666Y-80212302D01*
X115926666Y-80212302D02*
X115879047Y-80307540D01*
X115879047Y-80307540D02*
X115783809Y-80402779D01*
X115783809Y-80402779D02*
X115640952Y-80450398D01*
X115640952Y-80450398D02*
X115402857Y-80450398D01*
X173040716Y-106020099D02*
X173040716Y-105020099D01*
X173040716Y-105020099D02*
X173278811Y-105020099D01*
X173278811Y-105020099D02*
X173421668Y-105067718D01*
X173421668Y-105067718D02*
X173516906Y-105162956D01*
X173516906Y-105162956D02*
X173564525Y-105258194D01*
X173564525Y-105258194D02*
X173612144Y-105448670D01*
X173612144Y-105448670D02*
X173612144Y-105591527D01*
X173612144Y-105591527D02*
X173564525Y-105782003D01*
X173564525Y-105782003D02*
X173516906Y-105877241D01*
X173516906Y-105877241D02*
X173421668Y-105972480D01*
X173421668Y-105972480D02*
X173278811Y-106020099D01*
X173278811Y-106020099D02*
X173040716Y-106020099D01*
X174040716Y-106020099D02*
X174040716Y-105020099D01*
X174707382Y-105020099D02*
X174897858Y-105020099D01*
X174897858Y-105020099D02*
X174993096Y-105067718D01*
X174993096Y-105067718D02*
X175088334Y-105162956D01*
X175088334Y-105162956D02*
X175135953Y-105353432D01*
X175135953Y-105353432D02*
X175135953Y-105686765D01*
X175135953Y-105686765D02*
X175088334Y-105877241D01*
X175088334Y-105877241D02*
X174993096Y-105972480D01*
X174993096Y-105972480D02*
X174897858Y-106020099D01*
X174897858Y-106020099D02*
X174707382Y-106020099D01*
X174707382Y-106020099D02*
X174612144Y-105972480D01*
X174612144Y-105972480D02*
X174516906Y-105877241D01*
X174516906Y-105877241D02*
X174469287Y-105686765D01*
X174469287Y-105686765D02*
X174469287Y-105353432D01*
X174469287Y-105353432D02*
X174516906Y-105162956D01*
X174516906Y-105162956D02*
X174612144Y-105067718D01*
X174612144Y-105067718D02*
X174707382Y-105020099D01*
X175755001Y-105020099D02*
X175850239Y-105020099D01*
X175850239Y-105020099D02*
X175945477Y-105067718D01*
X175945477Y-105067718D02*
X175993096Y-105115337D01*
X175993096Y-105115337D02*
X176040715Y-105210575D01*
X176040715Y-105210575D02*
X176088334Y-105401051D01*
X176088334Y-105401051D02*
X176088334Y-105639146D01*
X176088334Y-105639146D02*
X176040715Y-105829622D01*
X176040715Y-105829622D02*
X175993096Y-105924860D01*
X175993096Y-105924860D02*
X175945477Y-105972480D01*
X175945477Y-105972480D02*
X175850239Y-106020099D01*
X175850239Y-106020099D02*
X175755001Y-106020099D01*
X175755001Y-106020099D02*
X175659763Y-105972480D01*
X175659763Y-105972480D02*
X175612144Y-105924860D01*
X175612144Y-105924860D02*
X175564525Y-105829622D01*
X175564525Y-105829622D02*
X175516906Y-105639146D01*
X175516906Y-105639146D02*
X175516906Y-105401051D01*
X175516906Y-105401051D02*
X175564525Y-105210575D01*
X175564525Y-105210575D02*
X175612144Y-105115337D01*
X175612144Y-105115337D02*
X175659763Y-105067718D01*
X175659763Y-105067718D02*
X175755001Y-105020099D01*
X176516906Y-105924860D02*
X176564525Y-105972480D01*
X176564525Y-105972480D02*
X176516906Y-106020099D01*
X176516906Y-106020099D02*
X176469287Y-105972480D01*
X176469287Y-105972480D02*
X176516906Y-105924860D01*
X176516906Y-105924860D02*
X176516906Y-106020099D01*
X176516906Y-105401051D02*
X176564525Y-105448670D01*
X176564525Y-105448670D02*
X176516906Y-105496289D01*
X176516906Y-105496289D02*
X176469287Y-105448670D01*
X176469287Y-105448670D02*
X176516906Y-105401051D01*
X176516906Y-105401051D02*
X176516906Y-105496289D01*
X178278810Y-106020099D02*
X177707382Y-106020099D01*
X177993096Y-106020099D02*
X177993096Y-105020099D01*
X177993096Y-105020099D02*
X177897858Y-105162956D01*
X177897858Y-105162956D02*
X177802620Y-105258194D01*
X177802620Y-105258194D02*
X177707382Y-105305813D01*
X178612144Y-105020099D02*
X179278810Y-105020099D01*
X179278810Y-105020099D02*
X178850239Y-106020099D01*
X173040716Y-107630043D02*
X173040716Y-106630043D01*
X173040716Y-106630043D02*
X173278811Y-106630043D01*
X173278811Y-106630043D02*
X173421668Y-106677662D01*
X173421668Y-106677662D02*
X173516906Y-106772900D01*
X173516906Y-106772900D02*
X173564525Y-106868138D01*
X173564525Y-106868138D02*
X173612144Y-107058614D01*
X173612144Y-107058614D02*
X173612144Y-107201471D01*
X173612144Y-107201471D02*
X173564525Y-107391947D01*
X173564525Y-107391947D02*
X173516906Y-107487185D01*
X173516906Y-107487185D02*
X173421668Y-107582424D01*
X173421668Y-107582424D02*
X173278811Y-107630043D01*
X173278811Y-107630043D02*
X173040716Y-107630043D01*
X174040716Y-107630043D02*
X174040716Y-106630043D01*
X174707382Y-106630043D02*
X174897858Y-106630043D01*
X174897858Y-106630043D02*
X174993096Y-106677662D01*
X174993096Y-106677662D02*
X175088334Y-106772900D01*
X175088334Y-106772900D02*
X175135953Y-106963376D01*
X175135953Y-106963376D02*
X175135953Y-107296709D01*
X175135953Y-107296709D02*
X175088334Y-107487185D01*
X175088334Y-107487185D02*
X174993096Y-107582424D01*
X174993096Y-107582424D02*
X174897858Y-107630043D01*
X174897858Y-107630043D02*
X174707382Y-107630043D01*
X174707382Y-107630043D02*
X174612144Y-107582424D01*
X174612144Y-107582424D02*
X174516906Y-107487185D01*
X174516906Y-107487185D02*
X174469287Y-107296709D01*
X174469287Y-107296709D02*
X174469287Y-106963376D01*
X174469287Y-106963376D02*
X174516906Y-106772900D01*
X174516906Y-106772900D02*
X174612144Y-106677662D01*
X174612144Y-106677662D02*
X174707382Y-106630043D01*
X176088334Y-107630043D02*
X175516906Y-107630043D01*
X175802620Y-107630043D02*
X175802620Y-106630043D01*
X175802620Y-106630043D02*
X175707382Y-106772900D01*
X175707382Y-106772900D02*
X175612144Y-106868138D01*
X175612144Y-106868138D02*
X175516906Y-106915757D01*
X176516906Y-107534804D02*
X176564525Y-107582424D01*
X176564525Y-107582424D02*
X176516906Y-107630043D01*
X176516906Y-107630043D02*
X176469287Y-107582424D01*
X176469287Y-107582424D02*
X176516906Y-107534804D01*
X176516906Y-107534804D02*
X176516906Y-107630043D01*
X176516906Y-107010995D02*
X176564525Y-107058614D01*
X176564525Y-107058614D02*
X176516906Y-107106233D01*
X176516906Y-107106233D02*
X176469287Y-107058614D01*
X176469287Y-107058614D02*
X176516906Y-107010995D01*
X176516906Y-107010995D02*
X176516906Y-107106233D01*
X178278810Y-107630043D02*
X177707382Y-107630043D01*
X177993096Y-107630043D02*
X177993096Y-106630043D01*
X177993096Y-106630043D02*
X177897858Y-106772900D01*
X177897858Y-106772900D02*
X177802620Y-106868138D01*
X177802620Y-106868138D02*
X177707382Y-106915757D01*
X178659763Y-106725281D02*
X178707382Y-106677662D01*
X178707382Y-106677662D02*
X178802620Y-106630043D01*
X178802620Y-106630043D02*
X179040715Y-106630043D01*
X179040715Y-106630043D02*
X179135953Y-106677662D01*
X179135953Y-106677662D02*
X179183572Y-106725281D01*
X179183572Y-106725281D02*
X179231191Y-106820519D01*
X179231191Y-106820519D02*
X179231191Y-106915757D01*
X179231191Y-106915757D02*
X179183572Y-107058614D01*
X179183572Y-107058614D02*
X178612144Y-107630043D01*
X178612144Y-107630043D02*
X179231191Y-107630043D01*
X173040716Y-109239987D02*
X173040716Y-108239987D01*
X173040716Y-108239987D02*
X173278811Y-108239987D01*
X173278811Y-108239987D02*
X173421668Y-108287606D01*
X173421668Y-108287606D02*
X173516906Y-108382844D01*
X173516906Y-108382844D02*
X173564525Y-108478082D01*
X173564525Y-108478082D02*
X173612144Y-108668558D01*
X173612144Y-108668558D02*
X173612144Y-108811415D01*
X173612144Y-108811415D02*
X173564525Y-109001891D01*
X173564525Y-109001891D02*
X173516906Y-109097129D01*
X173516906Y-109097129D02*
X173421668Y-109192368D01*
X173421668Y-109192368D02*
X173278811Y-109239987D01*
X173278811Y-109239987D02*
X173040716Y-109239987D01*
X174040716Y-109239987D02*
X174040716Y-108239987D01*
X174707382Y-108239987D02*
X174897858Y-108239987D01*
X174897858Y-108239987D02*
X174993096Y-108287606D01*
X174993096Y-108287606D02*
X175088334Y-108382844D01*
X175088334Y-108382844D02*
X175135953Y-108573320D01*
X175135953Y-108573320D02*
X175135953Y-108906653D01*
X175135953Y-108906653D02*
X175088334Y-109097129D01*
X175088334Y-109097129D02*
X174993096Y-109192368D01*
X174993096Y-109192368D02*
X174897858Y-109239987D01*
X174897858Y-109239987D02*
X174707382Y-109239987D01*
X174707382Y-109239987D02*
X174612144Y-109192368D01*
X174612144Y-109192368D02*
X174516906Y-109097129D01*
X174516906Y-109097129D02*
X174469287Y-108906653D01*
X174469287Y-108906653D02*
X174469287Y-108573320D01*
X174469287Y-108573320D02*
X174516906Y-108382844D01*
X174516906Y-108382844D02*
X174612144Y-108287606D01*
X174612144Y-108287606D02*
X174707382Y-108239987D01*
X175516906Y-108335225D02*
X175564525Y-108287606D01*
X175564525Y-108287606D02*
X175659763Y-108239987D01*
X175659763Y-108239987D02*
X175897858Y-108239987D01*
X175897858Y-108239987D02*
X175993096Y-108287606D01*
X175993096Y-108287606D02*
X176040715Y-108335225D01*
X176040715Y-108335225D02*
X176088334Y-108430463D01*
X176088334Y-108430463D02*
X176088334Y-108525701D01*
X176088334Y-108525701D02*
X176040715Y-108668558D01*
X176040715Y-108668558D02*
X175469287Y-109239987D01*
X175469287Y-109239987D02*
X176088334Y-109239987D01*
X176516906Y-109144748D02*
X176564525Y-109192368D01*
X176564525Y-109192368D02*
X176516906Y-109239987D01*
X176516906Y-109239987D02*
X176469287Y-109192368D01*
X176469287Y-109192368D02*
X176516906Y-109144748D01*
X176516906Y-109144748D02*
X176516906Y-109239987D01*
X176516906Y-108620939D02*
X176564525Y-108668558D01*
X176564525Y-108668558D02*
X176516906Y-108716177D01*
X176516906Y-108716177D02*
X176469287Y-108668558D01*
X176469287Y-108668558D02*
X176516906Y-108620939D01*
X176516906Y-108620939D02*
X176516906Y-108716177D01*
X178278810Y-109239987D02*
X177707382Y-109239987D01*
X177993096Y-109239987D02*
X177993096Y-108239987D01*
X177993096Y-108239987D02*
X177897858Y-108382844D01*
X177897858Y-108382844D02*
X177802620Y-108478082D01*
X177802620Y-108478082D02*
X177707382Y-108525701D01*
X178612144Y-108239987D02*
X179231191Y-108239987D01*
X179231191Y-108239987D02*
X178897858Y-108620939D01*
X178897858Y-108620939D02*
X179040715Y-108620939D01*
X179040715Y-108620939D02*
X179135953Y-108668558D01*
X179135953Y-108668558D02*
X179183572Y-108716177D01*
X179183572Y-108716177D02*
X179231191Y-108811415D01*
X179231191Y-108811415D02*
X179231191Y-109049510D01*
X179231191Y-109049510D02*
X179183572Y-109144748D01*
X179183572Y-109144748D02*
X179135953Y-109192368D01*
X179135953Y-109192368D02*
X179040715Y-109239987D01*
X179040715Y-109239987D02*
X178755001Y-109239987D01*
X178755001Y-109239987D02*
X178659763Y-109192368D01*
X178659763Y-109192368D02*
X178612144Y-109144748D01*
X173040716Y-110849931D02*
X173040716Y-109849931D01*
X173040716Y-109849931D02*
X173278811Y-109849931D01*
X173278811Y-109849931D02*
X173421668Y-109897550D01*
X173421668Y-109897550D02*
X173516906Y-109992788D01*
X173516906Y-109992788D02*
X173564525Y-110088026D01*
X173564525Y-110088026D02*
X173612144Y-110278502D01*
X173612144Y-110278502D02*
X173612144Y-110421359D01*
X173612144Y-110421359D02*
X173564525Y-110611835D01*
X173564525Y-110611835D02*
X173516906Y-110707073D01*
X173516906Y-110707073D02*
X173421668Y-110802312D01*
X173421668Y-110802312D02*
X173278811Y-110849931D01*
X173278811Y-110849931D02*
X173040716Y-110849931D01*
X174040716Y-110849931D02*
X174040716Y-109849931D01*
X174707382Y-109849931D02*
X174897858Y-109849931D01*
X174897858Y-109849931D02*
X174993096Y-109897550D01*
X174993096Y-109897550D02*
X175088334Y-109992788D01*
X175088334Y-109992788D02*
X175135953Y-110183264D01*
X175135953Y-110183264D02*
X175135953Y-110516597D01*
X175135953Y-110516597D02*
X175088334Y-110707073D01*
X175088334Y-110707073D02*
X174993096Y-110802312D01*
X174993096Y-110802312D02*
X174897858Y-110849931D01*
X174897858Y-110849931D02*
X174707382Y-110849931D01*
X174707382Y-110849931D02*
X174612144Y-110802312D01*
X174612144Y-110802312D02*
X174516906Y-110707073D01*
X174516906Y-110707073D02*
X174469287Y-110516597D01*
X174469287Y-110516597D02*
X174469287Y-110183264D01*
X174469287Y-110183264D02*
X174516906Y-109992788D01*
X174516906Y-109992788D02*
X174612144Y-109897550D01*
X174612144Y-109897550D02*
X174707382Y-109849931D01*
X175469287Y-109849931D02*
X176088334Y-109849931D01*
X176088334Y-109849931D02*
X175755001Y-110230883D01*
X175755001Y-110230883D02*
X175897858Y-110230883D01*
X175897858Y-110230883D02*
X175993096Y-110278502D01*
X175993096Y-110278502D02*
X176040715Y-110326121D01*
X176040715Y-110326121D02*
X176088334Y-110421359D01*
X176088334Y-110421359D02*
X176088334Y-110659454D01*
X176088334Y-110659454D02*
X176040715Y-110754692D01*
X176040715Y-110754692D02*
X175993096Y-110802312D01*
X175993096Y-110802312D02*
X175897858Y-110849931D01*
X175897858Y-110849931D02*
X175612144Y-110849931D01*
X175612144Y-110849931D02*
X175516906Y-110802312D01*
X175516906Y-110802312D02*
X175469287Y-110754692D01*
X176516906Y-110754692D02*
X176564525Y-110802312D01*
X176564525Y-110802312D02*
X176516906Y-110849931D01*
X176516906Y-110849931D02*
X176469287Y-110802312D01*
X176469287Y-110802312D02*
X176516906Y-110754692D01*
X176516906Y-110754692D02*
X176516906Y-110849931D01*
X176516906Y-110230883D02*
X176564525Y-110278502D01*
X176564525Y-110278502D02*
X176516906Y-110326121D01*
X176516906Y-110326121D02*
X176469287Y-110278502D01*
X176469287Y-110278502D02*
X176516906Y-110230883D01*
X176516906Y-110230883D02*
X176516906Y-110326121D01*
X178278810Y-110849931D02*
X177707382Y-110849931D01*
X177993096Y-110849931D02*
X177993096Y-109849931D01*
X177993096Y-109849931D02*
X177897858Y-109992788D01*
X177897858Y-109992788D02*
X177802620Y-110088026D01*
X177802620Y-110088026D02*
X177707382Y-110135645D01*
X179135953Y-109849931D02*
X178945477Y-109849931D01*
X178945477Y-109849931D02*
X178850239Y-109897550D01*
X178850239Y-109897550D02*
X178802620Y-109945169D01*
X178802620Y-109945169D02*
X178707382Y-110088026D01*
X178707382Y-110088026D02*
X178659763Y-110278502D01*
X178659763Y-110278502D02*
X178659763Y-110659454D01*
X178659763Y-110659454D02*
X178707382Y-110754692D01*
X178707382Y-110754692D02*
X178755001Y-110802312D01*
X178755001Y-110802312D02*
X178850239Y-110849931D01*
X178850239Y-110849931D02*
X179040715Y-110849931D01*
X179040715Y-110849931D02*
X179135953Y-110802312D01*
X179135953Y-110802312D02*
X179183572Y-110754692D01*
X179183572Y-110754692D02*
X179231191Y-110659454D01*
X179231191Y-110659454D02*
X179231191Y-110421359D01*
X179231191Y-110421359D02*
X179183572Y-110326121D01*
X179183572Y-110326121D02*
X179135953Y-110278502D01*
X179135953Y-110278502D02*
X179040715Y-110230883D01*
X179040715Y-110230883D02*
X178850239Y-110230883D01*
X178850239Y-110230883D02*
X178755001Y-110278502D01*
X178755001Y-110278502D02*
X178707382Y-110326121D01*
X178707382Y-110326121D02*
X178659763Y-110421359D01*
X173040716Y-112459875D02*
X173040716Y-111459875D01*
X173040716Y-111459875D02*
X173278811Y-111459875D01*
X173278811Y-111459875D02*
X173421668Y-111507494D01*
X173421668Y-111507494D02*
X173516906Y-111602732D01*
X173516906Y-111602732D02*
X173564525Y-111697970D01*
X173564525Y-111697970D02*
X173612144Y-111888446D01*
X173612144Y-111888446D02*
X173612144Y-112031303D01*
X173612144Y-112031303D02*
X173564525Y-112221779D01*
X173564525Y-112221779D02*
X173516906Y-112317017D01*
X173516906Y-112317017D02*
X173421668Y-112412256D01*
X173421668Y-112412256D02*
X173278811Y-112459875D01*
X173278811Y-112459875D02*
X173040716Y-112459875D01*
X174040716Y-112459875D02*
X174040716Y-111459875D01*
X174707382Y-111459875D02*
X174897858Y-111459875D01*
X174897858Y-111459875D02*
X174993096Y-111507494D01*
X174993096Y-111507494D02*
X175088334Y-111602732D01*
X175088334Y-111602732D02*
X175135953Y-111793208D01*
X175135953Y-111793208D02*
X175135953Y-112126541D01*
X175135953Y-112126541D02*
X175088334Y-112317017D01*
X175088334Y-112317017D02*
X174993096Y-112412256D01*
X174993096Y-112412256D02*
X174897858Y-112459875D01*
X174897858Y-112459875D02*
X174707382Y-112459875D01*
X174707382Y-112459875D02*
X174612144Y-112412256D01*
X174612144Y-112412256D02*
X174516906Y-112317017D01*
X174516906Y-112317017D02*
X174469287Y-112126541D01*
X174469287Y-112126541D02*
X174469287Y-111793208D01*
X174469287Y-111793208D02*
X174516906Y-111602732D01*
X174516906Y-111602732D02*
X174612144Y-111507494D01*
X174612144Y-111507494D02*
X174707382Y-111459875D01*
X175993096Y-111793208D02*
X175993096Y-112459875D01*
X175755001Y-111412256D02*
X175516906Y-112126541D01*
X175516906Y-112126541D02*
X176135953Y-112126541D01*
X176516906Y-112364636D02*
X176564525Y-112412256D01*
X176564525Y-112412256D02*
X176516906Y-112459875D01*
X176516906Y-112459875D02*
X176469287Y-112412256D01*
X176469287Y-112412256D02*
X176516906Y-112364636D01*
X176516906Y-112364636D02*
X176516906Y-112459875D01*
X176516906Y-111840827D02*
X176564525Y-111888446D01*
X176564525Y-111888446D02*
X176516906Y-111936065D01*
X176516906Y-111936065D02*
X176469287Y-111888446D01*
X176469287Y-111888446D02*
X176516906Y-111840827D01*
X176516906Y-111840827D02*
X176516906Y-111936065D01*
X178278810Y-112459875D02*
X177707382Y-112459875D01*
X177993096Y-112459875D02*
X177993096Y-111459875D01*
X177993096Y-111459875D02*
X177897858Y-111602732D01*
X177897858Y-111602732D02*
X177802620Y-111697970D01*
X177802620Y-111697970D02*
X177707382Y-111745589D01*
X178755001Y-112459875D02*
X178945477Y-112459875D01*
X178945477Y-112459875D02*
X179040715Y-112412256D01*
X179040715Y-112412256D02*
X179088334Y-112364636D01*
X179088334Y-112364636D02*
X179183572Y-112221779D01*
X179183572Y-112221779D02*
X179231191Y-112031303D01*
X179231191Y-112031303D02*
X179231191Y-111650351D01*
X179231191Y-111650351D02*
X179183572Y-111555113D01*
X179183572Y-111555113D02*
X179135953Y-111507494D01*
X179135953Y-111507494D02*
X179040715Y-111459875D01*
X179040715Y-111459875D02*
X178850239Y-111459875D01*
X178850239Y-111459875D02*
X178755001Y-111507494D01*
X178755001Y-111507494D02*
X178707382Y-111555113D01*
X178707382Y-111555113D02*
X178659763Y-111650351D01*
X178659763Y-111650351D02*
X178659763Y-111888446D01*
X178659763Y-111888446D02*
X178707382Y-111983684D01*
X178707382Y-111983684D02*
X178755001Y-112031303D01*
X178755001Y-112031303D02*
X178850239Y-112078922D01*
X178850239Y-112078922D02*
X179040715Y-112078922D01*
X179040715Y-112078922D02*
X179135953Y-112031303D01*
X179135953Y-112031303D02*
X179183572Y-111983684D01*
X179183572Y-111983684D02*
X179231191Y-111888446D01*
X173040716Y-114069819D02*
X173040716Y-113069819D01*
X173040716Y-113069819D02*
X173278811Y-113069819D01*
X173278811Y-113069819D02*
X173421668Y-113117438D01*
X173421668Y-113117438D02*
X173516906Y-113212676D01*
X173516906Y-113212676D02*
X173564525Y-113307914D01*
X173564525Y-113307914D02*
X173612144Y-113498390D01*
X173612144Y-113498390D02*
X173612144Y-113641247D01*
X173612144Y-113641247D02*
X173564525Y-113831723D01*
X173564525Y-113831723D02*
X173516906Y-113926961D01*
X173516906Y-113926961D02*
X173421668Y-114022200D01*
X173421668Y-114022200D02*
X173278811Y-114069819D01*
X173278811Y-114069819D02*
X173040716Y-114069819D01*
X174040716Y-114069819D02*
X174040716Y-113069819D01*
X174707382Y-113069819D02*
X174897858Y-113069819D01*
X174897858Y-113069819D02*
X174993096Y-113117438D01*
X174993096Y-113117438D02*
X175088334Y-113212676D01*
X175088334Y-113212676D02*
X175135953Y-113403152D01*
X175135953Y-113403152D02*
X175135953Y-113736485D01*
X175135953Y-113736485D02*
X175088334Y-113926961D01*
X175088334Y-113926961D02*
X174993096Y-114022200D01*
X174993096Y-114022200D02*
X174897858Y-114069819D01*
X174897858Y-114069819D02*
X174707382Y-114069819D01*
X174707382Y-114069819D02*
X174612144Y-114022200D01*
X174612144Y-114022200D02*
X174516906Y-113926961D01*
X174516906Y-113926961D02*
X174469287Y-113736485D01*
X174469287Y-113736485D02*
X174469287Y-113403152D01*
X174469287Y-113403152D02*
X174516906Y-113212676D01*
X174516906Y-113212676D02*
X174612144Y-113117438D01*
X174612144Y-113117438D02*
X174707382Y-113069819D01*
X176040715Y-113069819D02*
X175564525Y-113069819D01*
X175564525Y-113069819D02*
X175516906Y-113546009D01*
X175516906Y-113546009D02*
X175564525Y-113498390D01*
X175564525Y-113498390D02*
X175659763Y-113450771D01*
X175659763Y-113450771D02*
X175897858Y-113450771D01*
X175897858Y-113450771D02*
X175993096Y-113498390D01*
X175993096Y-113498390D02*
X176040715Y-113546009D01*
X176040715Y-113546009D02*
X176088334Y-113641247D01*
X176088334Y-113641247D02*
X176088334Y-113879342D01*
X176088334Y-113879342D02*
X176040715Y-113974580D01*
X176040715Y-113974580D02*
X175993096Y-114022200D01*
X175993096Y-114022200D02*
X175897858Y-114069819D01*
X175897858Y-114069819D02*
X175659763Y-114069819D01*
X175659763Y-114069819D02*
X175564525Y-114022200D01*
X175564525Y-114022200D02*
X175516906Y-113974580D01*
X176516906Y-113974580D02*
X176564525Y-114022200D01*
X176564525Y-114022200D02*
X176516906Y-114069819D01*
X176516906Y-114069819D02*
X176469287Y-114022200D01*
X176469287Y-114022200D02*
X176516906Y-113974580D01*
X176516906Y-113974580D02*
X176516906Y-114069819D01*
X176516906Y-113450771D02*
X176564525Y-113498390D01*
X176564525Y-113498390D02*
X176516906Y-113546009D01*
X176516906Y-113546009D02*
X176469287Y-113498390D01*
X176469287Y-113498390D02*
X176516906Y-113450771D01*
X176516906Y-113450771D02*
X176516906Y-113546009D01*
X178278810Y-114069819D02*
X177707382Y-114069819D01*
X177993096Y-114069819D02*
X177993096Y-113069819D01*
X177993096Y-113069819D02*
X177897858Y-113212676D01*
X177897858Y-113212676D02*
X177802620Y-113307914D01*
X177802620Y-113307914D02*
X177707382Y-113355533D01*
X178850239Y-113498390D02*
X178755001Y-113450771D01*
X178755001Y-113450771D02*
X178707382Y-113403152D01*
X178707382Y-113403152D02*
X178659763Y-113307914D01*
X178659763Y-113307914D02*
X178659763Y-113260295D01*
X178659763Y-113260295D02*
X178707382Y-113165057D01*
X178707382Y-113165057D02*
X178755001Y-113117438D01*
X178755001Y-113117438D02*
X178850239Y-113069819D01*
X178850239Y-113069819D02*
X179040715Y-113069819D01*
X179040715Y-113069819D02*
X179135953Y-113117438D01*
X179135953Y-113117438D02*
X179183572Y-113165057D01*
X179183572Y-113165057D02*
X179231191Y-113260295D01*
X179231191Y-113260295D02*
X179231191Y-113307914D01*
X179231191Y-113307914D02*
X179183572Y-113403152D01*
X179183572Y-113403152D02*
X179135953Y-113450771D01*
X179135953Y-113450771D02*
X179040715Y-113498390D01*
X179040715Y-113498390D02*
X178850239Y-113498390D01*
X178850239Y-113498390D02*
X178755001Y-113546009D01*
X178755001Y-113546009D02*
X178707382Y-113593628D01*
X178707382Y-113593628D02*
X178659763Y-113688866D01*
X178659763Y-113688866D02*
X178659763Y-113879342D01*
X178659763Y-113879342D02*
X178707382Y-113974580D01*
X178707382Y-113974580D02*
X178755001Y-114022200D01*
X178755001Y-114022200D02*
X178850239Y-114069819D01*
X178850239Y-114069819D02*
X179040715Y-114069819D01*
X179040715Y-114069819D02*
X179135953Y-114022200D01*
X179135953Y-114022200D02*
X179183572Y-113974580D01*
X179183572Y-113974580D02*
X179231191Y-113879342D01*
X179231191Y-113879342D02*
X179231191Y-113688866D01*
X179231191Y-113688866D02*
X179183572Y-113593628D01*
X179183572Y-113593628D02*
X179135953Y-113546009D01*
X179135953Y-113546009D02*
X179040715Y-113498390D01*
X113888033Y-94752494D02*
X113792795Y-94704875D01*
X113792795Y-94704875D02*
X113649938Y-94704875D01*
X113649938Y-94704875D02*
X113507081Y-94752494D01*
X113507081Y-94752494D02*
X113411843Y-94847732D01*
X113411843Y-94847732D02*
X113364224Y-94942970D01*
X113364224Y-94942970D02*
X113316605Y-95133446D01*
X113316605Y-95133446D02*
X113316605Y-95276303D01*
X113316605Y-95276303D02*
X113364224Y-95466779D01*
X113364224Y-95466779D02*
X113411843Y-95562017D01*
X113411843Y-95562017D02*
X113507081Y-95657256D01*
X113507081Y-95657256D02*
X113649938Y-95704875D01*
X113649938Y-95704875D02*
X113745176Y-95704875D01*
X113745176Y-95704875D02*
X113888033Y-95657256D01*
X113888033Y-95657256D02*
X113935652Y-95609636D01*
X113935652Y-95609636D02*
X113935652Y-95276303D01*
X113935652Y-95276303D02*
X113745176Y-95276303D01*
X114364224Y-95704875D02*
X114364224Y-94704875D01*
X114364224Y-94704875D02*
X114935652Y-95704875D01*
X114935652Y-95704875D02*
X114935652Y-94704875D01*
X115411843Y-95704875D02*
X115411843Y-94704875D01*
X115411843Y-94704875D02*
X115649938Y-94704875D01*
X115649938Y-94704875D02*
X115792795Y-94752494D01*
X115792795Y-94752494D02*
X115888033Y-94847732D01*
X115888033Y-94847732D02*
X115935652Y-94942970D01*
X115935652Y-94942970D02*
X115983271Y-95133446D01*
X115983271Y-95133446D02*
X115983271Y-95276303D01*
X115983271Y-95276303D02*
X115935652Y-95466779D01*
X115935652Y-95466779D02*
X115888033Y-95562017D01*
X115888033Y-95562017D02*
X115792795Y-95657256D01*
X115792795Y-95657256D02*
X115649938Y-95704875D01*
X115649938Y-95704875D02*
X115411843Y-95704875D01*
X173378470Y-75353180D02*
X173330851Y-75400800D01*
X173330851Y-75400800D02*
X173187994Y-75448419D01*
X173187994Y-75448419D02*
X173092756Y-75448419D01*
X173092756Y-75448419D02*
X172949899Y-75400800D01*
X172949899Y-75400800D02*
X172854661Y-75305561D01*
X172854661Y-75305561D02*
X172807042Y-75210323D01*
X172807042Y-75210323D02*
X172759423Y-75019847D01*
X172759423Y-75019847D02*
X172759423Y-74876990D01*
X172759423Y-74876990D02*
X172807042Y-74686514D01*
X172807042Y-74686514D02*
X172854661Y-74591276D01*
X172854661Y-74591276D02*
X172949899Y-74496038D01*
X172949899Y-74496038D02*
X173092756Y-74448419D01*
X173092756Y-74448419D02*
X173187994Y-74448419D01*
X173187994Y-74448419D02*
X173330851Y-74496038D01*
X173330851Y-74496038D02*
X173378470Y-74543657D01*
X173711804Y-74448419D02*
X174330851Y-74448419D01*
X174330851Y-74448419D02*
X173997518Y-74829371D01*
X173997518Y-74829371D02*
X174140375Y-74829371D01*
X174140375Y-74829371D02*
X174235613Y-74876990D01*
X174235613Y-74876990D02*
X174283232Y-74924609D01*
X174283232Y-74924609D02*
X174330851Y-75019847D01*
X174330851Y-75019847D02*
X174330851Y-75257942D01*
X174330851Y-75257942D02*
X174283232Y-75353180D01*
X174283232Y-75353180D02*
X174235613Y-75400800D01*
X174235613Y-75400800D02*
X174140375Y-75448419D01*
X174140375Y-75448419D02*
X173854661Y-75448419D01*
X173854661Y-75448419D02*
X173759423Y-75400800D01*
X173759423Y-75400800D02*
X173711804Y-75353180D01*
X170865833Y-69571453D02*
X170818214Y-69666691D01*
X170818214Y-69666691D02*
X170722976Y-69761929D01*
X170722976Y-69761929D02*
X170580118Y-69904786D01*
X170580118Y-69904786D02*
X170532499Y-70000024D01*
X170532499Y-70000024D02*
X170532499Y-70095262D01*
X170770595Y-70047643D02*
X170722976Y-70142881D01*
X170722976Y-70142881D02*
X170627737Y-70238119D01*
X170627737Y-70238119D02*
X170437261Y-70285738D01*
X170437261Y-70285738D02*
X170103928Y-70285738D01*
X170103928Y-70285738D02*
X169913452Y-70238119D01*
X169913452Y-70238119D02*
X169818214Y-70142881D01*
X169818214Y-70142881D02*
X169770595Y-70047643D01*
X169770595Y-70047643D02*
X169770595Y-69857167D01*
X169770595Y-69857167D02*
X169818214Y-69761929D01*
X169818214Y-69761929D02*
X169913452Y-69666691D01*
X169913452Y-69666691D02*
X170103928Y-69619072D01*
X170103928Y-69619072D02*
X170437261Y-69619072D01*
X170437261Y-69619072D02*
X170627737Y-69666691D01*
X170627737Y-69666691D02*
X170722976Y-69761929D01*
X170722976Y-69761929D02*
X170770595Y-69857167D01*
X170770595Y-69857167D02*
X170770595Y-70047643D01*
X170770595Y-68666691D02*
X170770595Y-69238119D01*
X170770595Y-68952405D02*
X169770595Y-68952405D01*
X169770595Y-68952405D02*
X169913452Y-69047643D01*
X169913452Y-69047643D02*
X170008690Y-69142881D01*
X170008690Y-69142881D02*
X170056309Y-69238119D01*
X180895821Y-74740567D02*
X180419630Y-75073900D01*
X180895821Y-75311995D02*
X179895821Y-75311995D01*
X179895821Y-75311995D02*
X179895821Y-74931043D01*
X179895821Y-74931043D02*
X179943440Y-74835805D01*
X179943440Y-74835805D02*
X179991059Y-74788186D01*
X179991059Y-74788186D02*
X180086297Y-74740567D01*
X180086297Y-74740567D02*
X180229154Y-74740567D01*
X180229154Y-74740567D02*
X180324392Y-74788186D01*
X180324392Y-74788186D02*
X180372011Y-74835805D01*
X180372011Y-74835805D02*
X180419630Y-74931043D01*
X180419630Y-74931043D02*
X180419630Y-75311995D01*
X179991059Y-74359614D02*
X179943440Y-74311995D01*
X179943440Y-74311995D02*
X179895821Y-74216757D01*
X179895821Y-74216757D02*
X179895821Y-73978662D01*
X179895821Y-73978662D02*
X179943440Y-73883424D01*
X179943440Y-73883424D02*
X179991059Y-73835805D01*
X179991059Y-73835805D02*
X180086297Y-73788186D01*
X180086297Y-73788186D02*
X180181535Y-73788186D01*
X180181535Y-73788186D02*
X180324392Y-73835805D01*
X180324392Y-73835805D02*
X180895821Y-74407233D01*
X180895821Y-74407233D02*
X180895821Y-73788186D01*
X188094003Y-60247332D02*
X188094003Y-61056855D01*
X188094003Y-61056855D02*
X188141622Y-61152093D01*
X188141622Y-61152093D02*
X188189241Y-61199713D01*
X188189241Y-61199713D02*
X188284479Y-61247332D01*
X188284479Y-61247332D02*
X188474955Y-61247332D01*
X188474955Y-61247332D02*
X188570193Y-61199713D01*
X188570193Y-61199713D02*
X188617812Y-61152093D01*
X188617812Y-61152093D02*
X188665431Y-61056855D01*
X188665431Y-61056855D02*
X188665431Y-60247332D01*
X189094003Y-60342570D02*
X189141622Y-60294951D01*
X189141622Y-60294951D02*
X189236860Y-60247332D01*
X189236860Y-60247332D02*
X189474955Y-60247332D01*
X189474955Y-60247332D02*
X189570193Y-60294951D01*
X189570193Y-60294951D02*
X189617812Y-60342570D01*
X189617812Y-60342570D02*
X189665431Y-60437808D01*
X189665431Y-60437808D02*
X189665431Y-60533046D01*
X189665431Y-60533046D02*
X189617812Y-60675903D01*
X189617812Y-60675903D02*
X189046384Y-61247332D01*
X189046384Y-61247332D02*
X189665431Y-61247332D01*
X168838756Y-74541666D02*
X168362565Y-74874999D01*
X168838756Y-75113094D02*
X167838756Y-75113094D01*
X167838756Y-75113094D02*
X167838756Y-74732142D01*
X167838756Y-74732142D02*
X167886375Y-74636904D01*
X167886375Y-74636904D02*
X167933994Y-74589285D01*
X167933994Y-74589285D02*
X168029232Y-74541666D01*
X168029232Y-74541666D02*
X168172089Y-74541666D01*
X168172089Y-74541666D02*
X168267327Y-74589285D01*
X168267327Y-74589285D02*
X168314946Y-74636904D01*
X168314946Y-74636904D02*
X168362565Y-74732142D01*
X168362565Y-74732142D02*
X168362565Y-75113094D01*
X168838756Y-73589285D02*
X168838756Y-74160713D01*
X168838756Y-73874999D02*
X167838756Y-73874999D01*
X167838756Y-73874999D02*
X167981613Y-73970237D01*
X167981613Y-73970237D02*
X168076851Y-74065475D01*
X168076851Y-74065475D02*
X168124470Y-74160713D01*
D12*
X162319003Y-110424932D02*
X162319003Y-111234455D01*
X162319003Y-111234455D02*
X162366622Y-111329693D01*
X162366622Y-111329693D02*
X162414241Y-111377313D01*
X162414241Y-111377313D02*
X162509479Y-111424932D01*
X162509479Y-111424932D02*
X162699955Y-111424932D01*
X162699955Y-111424932D02*
X162795193Y-111377313D01*
X162795193Y-111377313D02*
X162842812Y-111329693D01*
X162842812Y-111329693D02*
X162890431Y-111234455D01*
X162890431Y-111234455D02*
X162890431Y-110424932D01*
X163890431Y-111424932D02*
X163319003Y-111424932D01*
X163604717Y-111424932D02*
X163604717Y-110424932D01*
X163604717Y-110424932D02*
X163509479Y-110567789D01*
X163509479Y-110567789D02*
X163414241Y-110663027D01*
X163414241Y-110663027D02*
X163319003Y-110710646D01*
D10*
X121987270Y-63192771D02*
X121939651Y-63240391D01*
X121939651Y-63240391D02*
X121796794Y-63288010D01*
X121796794Y-63288010D02*
X121701556Y-63288010D01*
X121701556Y-63288010D02*
X121558699Y-63240391D01*
X121558699Y-63240391D02*
X121463461Y-63145152D01*
X121463461Y-63145152D02*
X121415842Y-63049914D01*
X121415842Y-63049914D02*
X121368223Y-62859438D01*
X121368223Y-62859438D02*
X121368223Y-62716581D01*
X121368223Y-62716581D02*
X121415842Y-62526105D01*
X121415842Y-62526105D02*
X121463461Y-62430867D01*
X121463461Y-62430867D02*
X121558699Y-62335629D01*
X121558699Y-62335629D02*
X121701556Y-62288010D01*
X121701556Y-62288010D02*
X121796794Y-62288010D01*
X121796794Y-62288010D02*
X121939651Y-62335629D01*
X121939651Y-62335629D02*
X121987270Y-62383248D01*
X122939651Y-63288010D02*
X122368223Y-63288010D01*
X122653937Y-63288010D02*
X122653937Y-62288010D01*
X122653937Y-62288010D02*
X122558699Y-62430867D01*
X122558699Y-62430867D02*
X122463461Y-62526105D01*
X122463461Y-62526105D02*
X122368223Y-62573724D01*
X125650072Y-63159580D02*
X125602453Y-63207200D01*
X125602453Y-63207200D02*
X125459596Y-63254819D01*
X125459596Y-63254819D02*
X125364358Y-63254819D01*
X125364358Y-63254819D02*
X125221501Y-63207200D01*
X125221501Y-63207200D02*
X125126263Y-63111961D01*
X125126263Y-63111961D02*
X125078644Y-63016723D01*
X125078644Y-63016723D02*
X125031025Y-62826247D01*
X125031025Y-62826247D02*
X125031025Y-62683390D01*
X125031025Y-62683390D02*
X125078644Y-62492914D01*
X125078644Y-62492914D02*
X125126263Y-62397676D01*
X125126263Y-62397676D02*
X125221501Y-62302438D01*
X125221501Y-62302438D02*
X125364358Y-62254819D01*
X125364358Y-62254819D02*
X125459596Y-62254819D01*
X125459596Y-62254819D02*
X125602453Y-62302438D01*
X125602453Y-62302438D02*
X125650072Y-62350057D01*
X126031025Y-62350057D02*
X126078644Y-62302438D01*
X126078644Y-62302438D02*
X126173882Y-62254819D01*
X126173882Y-62254819D02*
X126411977Y-62254819D01*
X126411977Y-62254819D02*
X126507215Y-62302438D01*
X126507215Y-62302438D02*
X126554834Y-62350057D01*
X126554834Y-62350057D02*
X126602453Y-62445295D01*
X126602453Y-62445295D02*
X126602453Y-62540533D01*
X126602453Y-62540533D02*
X126554834Y-62683390D01*
X126554834Y-62683390D02*
X125983406Y-63254819D01*
X125983406Y-63254819D02*
X126602453Y-63254819D01*
D12*
X193217032Y-74957419D02*
X193217032Y-75766942D01*
X193217032Y-75766942D02*
X193264651Y-75862180D01*
X193264651Y-75862180D02*
X193312270Y-75909800D01*
X193312270Y-75909800D02*
X193407508Y-75957419D01*
X193407508Y-75957419D02*
X193597984Y-75957419D01*
X193597984Y-75957419D02*
X193693222Y-75909800D01*
X193693222Y-75909800D02*
X193740841Y-75862180D01*
X193740841Y-75862180D02*
X193788460Y-75766942D01*
X193788460Y-75766942D02*
X193788460Y-74957419D01*
X194169413Y-74957419D02*
X194788460Y-74957419D01*
X194788460Y-74957419D02*
X194455127Y-75338371D01*
X194455127Y-75338371D02*
X194597984Y-75338371D01*
X194597984Y-75338371D02*
X194693222Y-75385990D01*
X194693222Y-75385990D02*
X194740841Y-75433609D01*
X194740841Y-75433609D02*
X194788460Y-75528847D01*
X194788460Y-75528847D02*
X194788460Y-75766942D01*
X194788460Y-75766942D02*
X194740841Y-75862180D01*
X194740841Y-75862180D02*
X194693222Y-75909800D01*
X194693222Y-75909800D02*
X194597984Y-75957419D01*
X194597984Y-75957419D02*
X194312270Y-75957419D01*
X194312270Y-75957419D02*
X194217032Y-75909800D01*
X194217032Y-75909800D02*
X194169413Y-75862180D01*
D10*
X173349855Y-73704226D02*
X173302236Y-73751846D01*
X173302236Y-73751846D02*
X173159379Y-73799465D01*
X173159379Y-73799465D02*
X173064141Y-73799465D01*
X173064141Y-73799465D02*
X172921284Y-73751846D01*
X172921284Y-73751846D02*
X172826046Y-73656607D01*
X172826046Y-73656607D02*
X172778427Y-73561369D01*
X172778427Y-73561369D02*
X172730808Y-73370893D01*
X172730808Y-73370893D02*
X172730808Y-73228036D01*
X172730808Y-73228036D02*
X172778427Y-73037560D01*
X172778427Y-73037560D02*
X172826046Y-72942322D01*
X172826046Y-72942322D02*
X172921284Y-72847084D01*
X172921284Y-72847084D02*
X173064141Y-72799465D01*
X173064141Y-72799465D02*
X173159379Y-72799465D01*
X173159379Y-72799465D02*
X173302236Y-72847084D01*
X173302236Y-72847084D02*
X173349855Y-72894703D01*
X174206998Y-73132798D02*
X174206998Y-73799465D01*
X173968903Y-72751846D02*
X173730808Y-73466131D01*
X173730808Y-73466131D02*
X174349855Y-73466131D01*
X174473382Y-67423245D02*
X174378144Y-67375626D01*
X174378144Y-67375626D02*
X174282906Y-67280388D01*
X174282906Y-67280388D02*
X174140049Y-67137530D01*
X174140049Y-67137530D02*
X174044811Y-67089911D01*
X174044811Y-67089911D02*
X173949573Y-67089911D01*
X173997192Y-67328007D02*
X173901954Y-67280388D01*
X173901954Y-67280388D02*
X173806716Y-67185149D01*
X173806716Y-67185149D02*
X173759097Y-66994673D01*
X173759097Y-66994673D02*
X173759097Y-66661340D01*
X173759097Y-66661340D02*
X173806716Y-66470864D01*
X173806716Y-66470864D02*
X173901954Y-66375626D01*
X173901954Y-66375626D02*
X173997192Y-66328007D01*
X173997192Y-66328007D02*
X174187668Y-66328007D01*
X174187668Y-66328007D02*
X174282906Y-66375626D01*
X174282906Y-66375626D02*
X174378144Y-66470864D01*
X174378144Y-66470864D02*
X174425763Y-66661340D01*
X174425763Y-66661340D02*
X174425763Y-66994673D01*
X174425763Y-66994673D02*
X174378144Y-67185149D01*
X174378144Y-67185149D02*
X174282906Y-67280388D01*
X174282906Y-67280388D02*
X174187668Y-67328007D01*
X174187668Y-67328007D02*
X173997192Y-67328007D01*
X174806716Y-66423245D02*
X174854335Y-66375626D01*
X174854335Y-66375626D02*
X174949573Y-66328007D01*
X174949573Y-66328007D02*
X175187668Y-66328007D01*
X175187668Y-66328007D02*
X175282906Y-66375626D01*
X175282906Y-66375626D02*
X175330525Y-66423245D01*
X175330525Y-66423245D02*
X175378144Y-66518483D01*
X175378144Y-66518483D02*
X175378144Y-66613721D01*
X175378144Y-66613721D02*
X175330525Y-66756578D01*
X175330525Y-66756578D02*
X174759097Y-67328007D01*
X174759097Y-67328007D02*
X175378144Y-67328007D01*
X183718753Y-69319145D02*
X183242562Y-69652478D01*
X183718753Y-69890573D02*
X182718753Y-69890573D01*
X182718753Y-69890573D02*
X182718753Y-69509621D01*
X182718753Y-69509621D02*
X182766372Y-69414383D01*
X182766372Y-69414383D02*
X182813991Y-69366764D01*
X182813991Y-69366764D02*
X182909229Y-69319145D01*
X182909229Y-69319145D02*
X183052086Y-69319145D01*
X183052086Y-69319145D02*
X183147324Y-69366764D01*
X183147324Y-69366764D02*
X183194943Y-69414383D01*
X183194943Y-69414383D02*
X183242562Y-69509621D01*
X183242562Y-69509621D02*
X183242562Y-69890573D01*
X182718753Y-68985811D02*
X182718753Y-68366764D01*
X182718753Y-68366764D02*
X183099705Y-68700097D01*
X183099705Y-68700097D02*
X183099705Y-68557240D01*
X183099705Y-68557240D02*
X183147324Y-68462002D01*
X183147324Y-68462002D02*
X183194943Y-68414383D01*
X183194943Y-68414383D02*
X183290181Y-68366764D01*
X183290181Y-68366764D02*
X183528276Y-68366764D01*
X183528276Y-68366764D02*
X183623514Y-68414383D01*
X183623514Y-68414383D02*
X183671134Y-68462002D01*
X183671134Y-68462002D02*
X183718753Y-68557240D01*
X183718753Y-68557240D02*
X183718753Y-68842954D01*
X183718753Y-68842954D02*
X183671134Y-68938192D01*
X183671134Y-68938192D02*
X183623514Y-68985811D01*
X186441767Y-72660432D02*
X185440011Y-72660432D01*
X185440011Y-72660432D02*
X185440011Y-72421919D01*
X185440011Y-72421919D02*
X185487714Y-72278811D01*
X185487714Y-72278811D02*
X185583119Y-72183406D01*
X185583119Y-72183406D02*
X185678525Y-72135703D01*
X185678525Y-72135703D02*
X185869335Y-72088000D01*
X185869335Y-72088000D02*
X186012443Y-72088000D01*
X186012443Y-72088000D02*
X186203254Y-72135703D01*
X186203254Y-72135703D02*
X186298659Y-72183406D01*
X186298659Y-72183406D02*
X186394065Y-72278811D01*
X186394065Y-72278811D02*
X186441767Y-72421919D01*
X186441767Y-72421919D02*
X186441767Y-72660432D01*
X186441767Y-71133947D02*
X186441767Y-71706379D01*
X186441767Y-71420163D02*
X185440011Y-71420163D01*
X185440011Y-71420163D02*
X185583119Y-71515568D01*
X185583119Y-71515568D02*
X185678525Y-71610974D01*
X185678525Y-71610974D02*
X185726227Y-71706379D01*
X117797574Y-69124819D02*
X117797574Y-69839104D01*
X117797574Y-69839104D02*
X117749955Y-69981961D01*
X117749955Y-69981961D02*
X117654717Y-70077200D01*
X117654717Y-70077200D02*
X117511860Y-70124819D01*
X117511860Y-70124819D02*
X117416622Y-70124819D01*
X118797574Y-70124819D02*
X118226146Y-70124819D01*
X118511860Y-70124819D02*
X118511860Y-69124819D01*
X118511860Y-69124819D02*
X118416622Y-69267676D01*
X118416622Y-69267676D02*
X118321384Y-69362914D01*
X118321384Y-69362914D02*
X118226146Y-69410533D01*
D13*
X170788357Y-74890000D02*
X171069517Y-74890000D01*
X170788357Y-75910000D02*
X171069517Y-75910000D01*
X166355776Y-69476215D02*
X166355776Y-68826215D01*
X166355776Y-69476215D02*
X166355776Y-70126215D01*
X169475776Y-69476215D02*
X169475776Y-68826215D01*
X169475776Y-69476215D02*
X169475776Y-70126215D01*
X169755776Y-68553715D02*
X169425776Y-68313715D01*
X169755776Y-68073715D01*
X169755776Y-68553715D01*
G36*
X169755776Y-68553715D02*
G01*
X169425776Y-68313715D01*
X169755776Y-68073715D01*
X169755776Y-68553715D01*
G37*
X181348502Y-74811159D02*
X181348502Y-74336643D01*
X182393502Y-74811159D02*
X182393502Y-74336643D01*
X166431437Y-74137742D02*
X166431437Y-74612258D01*
X167476437Y-74137742D02*
X167476437Y-74612258D01*
D12*
X121043408Y-109920774D02*
X164093408Y-109920774D01*
X121043408Y-109920774D02*
X164093408Y-109920774D01*
X164093408Y-66370774D01*
X121043408Y-66370774D01*
X121043408Y-109920774D01*
D13*
X122159719Y-63890000D02*
X121878559Y-63890000D01*
X122159719Y-64910000D02*
X121878559Y-64910000D01*
X125688559Y-63890000D02*
X125969719Y-63890000D01*
X125688559Y-64910000D02*
X125969719Y-64910000D01*
D12*
X165767575Y-99924234D02*
X165767575Y-80524234D01*
X168767575Y-77524234D02*
X191977575Y-77524234D01*
X191977575Y-102924234D02*
X168767575Y-102924234D01*
X194977575Y-80524234D02*
X194977575Y-99924234D01*
X165767575Y-80524234D02*
G75*
G02*
X168767575Y-77524233I3000004J-3D01*
G01*
X168767575Y-102924234D02*
G75*
G02*
X165767572Y-99924234I4J3000007D01*
G01*
X191977575Y-77524234D02*
G75*
G02*
X194977575Y-80524234I-8J-3000008D01*
G01*
X194977575Y-99924234D02*
G75*
G02*
X191977575Y-102924243I-2999976J-33D01*
G01*
D13*
X170788357Y-72863620D02*
X171069517Y-72863620D01*
X170788357Y-73883620D02*
X171069517Y-73883620D01*
X174568621Y-67713188D02*
X173918621Y-67713188D01*
X174568621Y-67713188D02*
X175218621Y-67713188D01*
X174568621Y-70833188D02*
X173918621Y-70833188D01*
X174568621Y-70833188D02*
X175218621Y-70833188D01*
X173406121Y-67763188D02*
X173166121Y-67433188D01*
X173646121Y-67433188D01*
X173406121Y-67763188D01*
G36*
X173406121Y-67763188D02*
G01*
X173166121Y-67433188D01*
X173646121Y-67433188D01*
X173406121Y-67763188D01*
G37*
X181311434Y-68915221D02*
X181311434Y-69389737D01*
X182356434Y-68915221D02*
X182356434Y-69389737D01*
D14*
X187207821Y-69143807D02*
X187557821Y-69143807D01*
X187207821Y-74443807D02*
X187207821Y-69143807D01*
X187557821Y-74443807D02*
X187207821Y-74443807D01*
X189757821Y-74443807D02*
X190107821Y-74443807D01*
X190107821Y-69143807D02*
X189757821Y-69143807D01*
X190107821Y-74443807D02*
X190107821Y-69143807D01*
D15*
X188757821Y-75539807D02*
G75*
G02*
X188557821Y-75539807I-100000J0D01*
G01*
X188557821Y-75539807D02*
G75*
G02*
X188757821Y-75539807I100000J0D01*
G01*
D13*
X116800908Y-73710000D02*
X116800908Y-104250000D01*
X116800908Y-73710000D02*
X119460908Y-73710000D01*
X116800908Y-104250000D02*
X119460908Y-104250000D01*
X118130908Y-71110000D02*
X119460908Y-71110000D01*
X119460908Y-71110000D02*
X119460908Y-72440000D01*
X119460908Y-73710000D02*
X119460908Y-104250000D01*
%LPC*%
D16*
X170153937Y-75400000D03*
X171703937Y-75400000D03*
D17*
X168865776Y-68538715D03*
X166965776Y-68538715D03*
X167915776Y-70413715D03*
D18*
X181871002Y-75398901D03*
X181871002Y-73748901D03*
D19*
X138370000Y-64770000D03*
D20*
X138370000Y-62230000D03*
X140910000Y-64770000D03*
X140910000Y-62230000D03*
X143450000Y-64770000D03*
X143450000Y-62230000D03*
X145990000Y-64770000D03*
X145990000Y-62230000D03*
X148530000Y-64770000D03*
X148530000Y-62230000D03*
X151070000Y-64770000D03*
X151070000Y-62230000D03*
X153610000Y-64770000D03*
X153610000Y-62230000D03*
X156150000Y-64770000D03*
X156150000Y-62230000D03*
X158690000Y-64770000D03*
X158690000Y-62230000D03*
X161230000Y-64770000D03*
X161230000Y-62230000D03*
X163770000Y-64770000D03*
X163770000Y-62230000D03*
X166310000Y-64770000D03*
X166310000Y-62230000D03*
X168850000Y-64770000D03*
X168850000Y-62230000D03*
X171390000Y-64770000D03*
X171390000Y-62230000D03*
X173930000Y-64770000D03*
X173930000Y-62230000D03*
X176470000Y-64770000D03*
X176470000Y-62230000D03*
X179010000Y-64770000D03*
X179010000Y-62230000D03*
X181550000Y-64770000D03*
X181550000Y-62230000D03*
X184090000Y-64770000D03*
X184090000Y-62230000D03*
X186630000Y-64770000D03*
X186630000Y-62230000D03*
D21*
X133500000Y-63500000D03*
X191500000Y-63500000D03*
X191500000Y-112500000D03*
X133500000Y-112500000D03*
D22*
X166953937Y-73550000D03*
X166953937Y-75200000D03*
D23*
X124518408Y-106445774D03*
X160618408Y-106345774D03*
X124518408Y-69795774D03*
X160618408Y-69695774D03*
D24*
X122794139Y-64400000D03*
X121244139Y-64400000D03*
D16*
X125054139Y-64400000D03*
X126604139Y-64400000D03*
D25*
X168307575Y-80064234D03*
X168307575Y-82604234D03*
X168307575Y-85144234D03*
X168307575Y-87684234D03*
X168307575Y-90224234D03*
X168307575Y-92764234D03*
X168307575Y-95304234D03*
X168307575Y-97844234D03*
X168307575Y-100384234D03*
X193694899Y-80116567D03*
X193694899Y-82656567D03*
X193694899Y-85196567D03*
X193694899Y-87736567D03*
X193694899Y-90276567D03*
X190418299Y-98607767D03*
D16*
X170153937Y-73373620D03*
X171703937Y-73373620D03*
D26*
X173631121Y-68323188D03*
X173631121Y-70223188D03*
X175506121Y-69273188D03*
D22*
X181833934Y-68327479D03*
X181833934Y-69977479D03*
D27*
X188657821Y-69743807D03*
X188657821Y-73843807D03*
D28*
X118130908Y-72440000D03*
D29*
X118130908Y-74980000D03*
X118130908Y-77520000D03*
X118130908Y-80060000D03*
X118130908Y-82600000D03*
X118130908Y-85140000D03*
X118130908Y-87680000D03*
X118130908Y-90220000D03*
X118130908Y-92760000D03*
X118130908Y-95300000D03*
X118130908Y-97840000D03*
X118130908Y-100380000D03*
X118130908Y-102920000D03*
%LPD*%
M02*
