M48
; DRILL file {KiCad 9.0.1} date 2025-09-15T20:32:43-0500
; FORMAT={-:-/ absolute / metric / decimal}
; #@! TF.CreationDate,2025-09-15T20:32:43-05:00
; #@! TF.GenerationSoftware,Kicad,Pcbnew,9.0.1
; #@! TF.FileFunction,Plated,1,4,PTH
FMAT,2
METRIC
; #@! TA.AperFunction,Plated,PTH,ComponentDrill
T1C0.200
; #@! TA.AperFunction,Plated,PTH,ComponentDrill
T2C0.250
; #@! TA.AperFunction,Plated,PTH,ViaDrill
T3C0.381
; #@! TA.AperFunction,Plated,PTH,ViaDrill
T4C0.400
; #@! TA.AperFunction,Plated,PTH,ComponentDrill
T5C0.650
; #@! TA.AperFunction,Plated,PTH,ComponentDrill
T6C1.000
; #@! TA.AperFunction,Plated,PTH,ComponentDrill
T7C3.200
%
G90
G05
T1
X113.617Y-104.383
X113.617Y-105.383
X114.867Y-103.383
X114.867Y-104.383
X114.867Y-105.383
X114.867Y-106.383
X116.117Y-103.383
X116.117Y-104.383
X116.117Y-105.383
X116.117Y-106.383
X117.367Y-103.383
X117.367Y-104.383
X117.367Y-105.383
X117.367Y-106.383
X118.172Y-74.452
X118.172Y-75.702
X118.172Y-76.952
X118.617Y-104.383
X118.617Y-105.383
X119.172Y-73.202
X119.172Y-74.452
X119.172Y-75.702
X119.172Y-76.952
X119.172Y-78.202
X120.172Y-73.202
X120.172Y-74.452
X120.172Y-75.702
X120.172Y-76.952
X120.172Y-78.202
X121.172Y-74.452
X121.172Y-75.702
X121.172Y-76.952
X143.047Y-74.327
X143.047Y-75.577
X143.047Y-76.827
X144.047Y-73.077
X144.047Y-74.327
X144.047Y-75.577
X144.047Y-76.827
X144.047Y-78.077
X145.047Y-73.077
X145.047Y-74.327
X145.047Y-75.577
X145.047Y-76.827
X145.047Y-78.077
X146.047Y-74.327
X146.047Y-75.577
X146.047Y-76.827
X165.047Y-74.127
X165.047Y-75.377
X165.047Y-76.627
X166.047Y-72.877
X166.047Y-74.127
X166.047Y-75.377
X166.047Y-76.627
X166.047Y-77.877
X167.047Y-72.877
X167.047Y-74.127
X167.047Y-75.377
X167.047Y-76.627
X167.047Y-77.877
X168.047Y-74.127
X168.047Y-75.377
X168.047Y-76.627
T2
X140.011Y-109.291
X140.011Y-110.424
X140.011Y-111.557
X141.144Y-109.291
X141.144Y-110.424
X141.144Y-111.557
X142.277Y-109.291
X142.277Y-110.424
X142.277Y-111.557
T3
X106.325Y-109.962
X106.47Y-90.69
X106.48Y-86.7
X106.564Y-93.286
X106.6Y-114.15
X106.99Y-110.51
X107.525Y-109.962
X107.564Y-93.386
X109.335Y-95.262
X110.2Y-96.012
X110.982Y-97.309
X111.1Y-78.9
X111.12Y-115.93
X111.425Y-102.062
X111.427Y-104.109
X111.443Y-105.609
X111.7Y-85.6
X112.28Y-112.68
X112.52Y-81.95
X112.525Y-101.262
X112.91Y-75.4
X113.154Y-96.037
X113.28Y-114.4
X113.33Y-87.82
X113.36Y-89.45
X113.5Y-84.28
X113.694Y-77.474
X113.964Y-111.286
X114.34Y-81.82
X114.521Y-93.012
X114.524Y-94.166
X114.7Y-111.0
X114.794Y-66.774
X114.86Y-85.35
X114.894Y-64.174
X115.049Y-91.866
X115.137Y-76.402
X115.137Y-77.334
X115.137Y-78.257
X115.221Y-93.812
X115.685Y-108.392
X115.721Y-91.587
X115.747Y-75.227
X116.1Y-110.724
X116.324Y-74.55
X116.474Y-108.941
X116.78Y-80.17
X116.8Y-93.3
X117.0Y-112.2
X117.136Y-94.576
X117.2Y-91.787
X117.36Y-108.917
X117.75Y-101.215
X117.847Y-87.027
X118.37Y-108.982
X118.922Y-70.971
X119.222Y-88.102
X119.322Y-81.152
X119.66Y-107.5
X119.787Y-101.966
X119.968Y-99.768
X119.997Y-88.652
X120.3Y-96.3
X120.376Y-102.314
X120.422Y-70.98
X120.47Y-103.908
X120.547Y-89.252
X120.594Y-103.056
X120.594Y-123.874
X120.9Y-104.5
X121.125Y-114.4
X121.197Y-89.802
X121.5Y-100.2
X121.947Y-122.903
X122.194Y-66.074
X122.2Y-79.5
X122.29Y-108.85
X122.325Y-110.562
X122.35Y-109.737
X122.504Y-101.92
X122.694Y-69.674
X122.922Y-71.249
X123.022Y-79.052
X123.1Y-106.568
X123.1Y-131.141
X123.347Y-77.202
X123.6Y-112.6
X123.704Y-107.041
X123.9Y-86.7
X124.264Y-107.65
X125.1Y-94.61
X125.114Y-108.0
X125.264Y-107.0
X125.37Y-111.27
X125.522Y-78.827
X125.8Y-101.9
X126.06Y-97.04
X126.494Y-107.014
X126.6Y-102.7
X126.64Y-105.62
X126.8Y-112.9
X126.939Y-103.186
X126.96Y-97.59
X127.0Y-85.95
X127.11Y-104.57
X127.4Y-83.492
X127.79Y-136.82
X128.197Y-72.802
X128.2Y-113.79
X128.247Y-69.552
X128.519Y-91.05
X128.594Y-79.874
X128.622Y-131.138
X128.95Y-104.105
X129.497Y-68.711
X129.5Y-136.8
X129.694Y-116.674
X129.7Y-109.4
X130.03Y-75.73
X130.15Y-82.6
X130.23Y-99.7
X130.24Y-73.95
X130.6Y-105.5
X130.72Y-107.16
X131.07Y-76.97
X131.094Y-64.474
X131.194Y-65.974
X131.341Y-67.846
X131.44Y-74.71
X131.519Y-105.649
X131.54Y-99.03
X131.96Y-75.81
X132.45Y-100.95
X132.7Y-79.03
X132.77Y-74.29
X132.94Y-76.88
X132.95Y-114.3
X132.979Y-117.509
X133.274Y-114.974
X133.407Y-109.561
X133.55Y-113.6
X133.794Y-111.674
X133.854Y-116.634
X134.119Y-115.724
X134.17Y-82.27
X134.19Y-81.43
X134.594Y-121.274
X134.75Y-107.45
X135.894Y-119.674
X136.0Y-77.8
X136.15Y-84.92
X136.631Y-115.937
X136.85Y-106.6
X137.011Y-118.026
X137.094Y-110.574
X137.1Y-111.314
X137.119Y-91.499
X137.521Y-117.35
X137.598Y-137.012
X137.61Y-111.89
X137.654Y-75.176
X137.73Y-95.85
X137.794Y-102.474
X137.904Y-144.064
X137.99Y-81.58
X137.994Y-77.074
X138.018Y-112.5
X138.03Y-82.4
X138.494Y-120.074
X138.585Y-119.074
X138.71Y-79.02
X138.794Y-100.374
X138.87Y-86.17
X139.094Y-84.074
X139.214Y-145.454
X139.433Y-76.933
X139.494Y-64.774
X139.57Y-94.99
X139.594Y-66.974
X139.75Y-114.45
X139.762Y-122.188
X139.94Y-84.65
X140.2Y-83.424
X140.286Y-77.007
X140.317Y-75.297
X140.744Y-141.349
X140.779Y-74.589
X140.794Y-120.674
X140.835Y-116.717
X140.944Y-82.914
X141.033Y-78.033
X141.15Y-79.84
X141.294Y-114.374
X141.394Y-106.474
X141.67Y-98.16
X141.694Y-120.774
X141.794Y-100.424
X141.87Y-93.91
X142.35Y-89.54
X142.594Y-128.074
X142.825Y-116.2
X143.2Y-90.58
X143.22Y-97.66
X143.394Y-86.174
X143.4Y-99.2
X143.667Y-70.366
X144.094Y-119.874
X144.294Y-100.374
X144.55Y-88.4
X144.644Y-109.774
X144.894Y-102.574
X144.894Y-109.024
X145.117Y-70.366
X145.194Y-111.274
X145.194Y-112.474
X145.194Y-113.274
X145.259Y-108.268
X145.294Y-116.374
X145.394Y-81.174
X145.394Y-118.524
X146.469Y-119.899
X146.85Y-97.7
X146.894Y-66.474
X146.952Y-108.916
X146.969Y-115.349
X146.985Y-105.821
X146.994Y-110.674
X147.2Y-125.7
X147.294Y-86.974
X147.524Y-141.384
X147.694Y-109.474
X147.794Y-78.824
X147.894Y-121.374
X147.95Y-97.35
X148.019Y-71.199
X148.044Y-69.549
X148.065Y-77.053
X148.084Y-104.722
X148.34Y-96.23
X148.394Y-139.574
X148.4Y-92.04
X149.144Y-127.624
X149.2Y-81.4
X149.269Y-118.699
X149.344Y-105.624
X149.569Y-70.049
X149.644Y-103.224
X149.844Y-101.724
X150.044Y-139.974
X150.06Y-91.39
X150.094Y-141.774
X150.494Y-110.174
X150.594Y-78.374
X150.692Y-122.765
X150.694Y-87.374
X150.719Y-123.449
X150.794Y-117.274
X150.844Y-119.574
X150.945Y-106.675
X151.094Y-115.874
X151.19Y-92.83
X151.294Y-107.924
X151.32Y-93.68
X151.39Y-90.12
X151.94Y-80.82
X151.944Y-126.474
X151.994Y-107.024
X152.144Y-72.524
X152.219Y-79.849
X152.3Y-116.2
X152.344Y-70.249
X152.38Y-88.66
X152.469Y-69.424
X152.694Y-109.974
X152.969Y-68.699
X153.3Y-74.0
X153.34Y-84.65
X153.35Y-90.14
X154.044Y-76.374
X154.1Y-95.98
X154.13Y-82.23
X154.2Y-74.8
X154.344Y-98.124
X154.794Y-103.174
X154.89Y-77.08
X155.044Y-118.074
X155.08Y-96.11
X155.2Y-75.0
X155.21Y-90.99
X155.4Y-74.0
X155.5Y-76.2
X155.52Y-82.38
X155.58Y-94.47
X155.594Y-137.674
X155.64Y-85.52
X155.694Y-66.374
X155.84Y-89.94
X155.994Y-64.674
X156.1Y-84.55
X156.194Y-123.074
X156.3Y-121.3
X157.194Y-118.274
X157.96Y-95.94
X158.1Y-119.8
X158.14Y-85.66
X158.2Y-84.6
X158.394Y-101.974
X158.4Y-78.0
X158.8Y-92.7
X158.994Y-109.774
X159.9Y-106.8
X160.07Y-86.02
X160.268Y-92.093
X160.294Y-110.974
X160.342Y-74.761
X160.54Y-84.84
X160.547Y-76.627
X160.55Y-78.74
X160.82Y-82.4
X160.84Y-81.63
X161.1Y-89.55
X161.453Y-76.406
X161.494Y-64.474
X161.494Y-66.174
X161.788Y-77.277
X161.894Y-98.974
X161.897Y-83.877
X162.094Y-94.874
X162.2Y-92.3
X162.3Y-100.0
X162.397Y-77.877
X162.597Y-83.077
X162.694Y-128.674
X162.897Y-85.277
X162.969Y-74.074
X162.972Y-74.913
X162.98Y-88.9
X163.247Y-82.577
X163.3Y-79.4
X163.794Y-128.074
X163.844Y-104.174
X164.044Y-118.724
X164.394Y-96.524
X164.394Y-129.374
X164.794Y-119.474
X164.994Y-124.149
X165.344Y-102.824
X165.594Y-128.174
X165.6Y-92.9
X165.822Y-70.559
X165.894Y-109.874
X166.294Y-118.974
X166.397Y-85.427
X166.794Y-129.274
X167.1Y-87.7
X167.294Y-127.974
X167.297Y-70.559
X167.309Y-103.489
X167.416Y-80.408
X167.594Y-93.874
X167.594Y-121.374
X167.63Y-88.84
X167.694Y-123.974
X167.794Y-122.574
X167.8Y-89.55
X168.094Y-97.974
X168.344Y-99.824
X169.094Y-119.613
X169.094Y-94.324
X169.29Y-116.12
X169.344Y-100.074
X169.43Y-107.09
X169.577Y-125.201
X169.597Y-71.252
X169.794Y-121.974
X169.997Y-78.277
X170.019Y-113.324
X170.094Y-94.324
X170.4Y-80.9
X170.447Y-77.127
X170.522Y-72.102
X170.537Y-104.031
X170.832Y-96.711
X170.922Y-117.44
X171.219Y-95.199
X171.3Y-114.7
X171.6Y-110.9
X172.094Y-97.574
X172.094Y-101.824
X172.544Y-103.424
X172.569Y-85.949
X172.704Y-94.622
X172.797Y-78.277
X172.994Y-115.674
X172.997Y-79.327
X173.097Y-81.677
X173.71Y-106.56
X173.8Y-125.9
X174.394Y-88.699
X174.572Y-72.177
X174.94Y-109.31
X174.944Y-104.424
X175.194Y-105.674
X175.372Y-70.027
X175.5Y-117.6
X175.622Y-72.327
X175.644Y-90.224
X175.694Y-84.074
X175.7Y-115.75
X175.772Y-109.702
X175.772Y-69.327
X175.844Y-94.324
X176.347Y-68.752
X176.544Y-102.774
X176.797Y-75.327
X176.894Y-99.774
X177.047Y-73.677
X177.144Y-91.924
X177.432Y-106.562
X177.694Y-65.674
X177.794Y-64.474
X177.8Y-81.2
X177.947Y-76.877
X178.1Y-108.9
X178.179Y-86.432
X178.39Y-107.91
X178.747Y-75.227
X178.897Y-73.427
X178.985Y-97.685
X179.097Y-77.077
X179.694Y-103.974
X179.997Y-75.027
X180.047Y-84.177
X180.197Y-78.027
X180.347Y-76.627
X180.616Y-109.136
X180.994Y-93.674
X181.097Y-73.677
X181.397Y-77.777
X181.547Y-75.977
X181.75Y-93.1
X182.394Y-102.674
X182.594Y-126.974
X183.594Y-90.474
X183.744Y-89.074
X183.844Y-99.2
X184.344Y-89.874
X184.894Y-88.924
X184.894Y-90.574
T4
X124.867Y-93.049
T6
X107.757Y-118.483
X110.297Y-118.483
X112.837Y-118.483
X115.377Y-118.483
X117.917Y-118.483
X120.457Y-118.483
X122.997Y-118.483
X130.15Y-86.2
X130.15Y-88.74
X130.15Y-91.28
X133.422Y-131.2
X133.7Y-86.21
X133.7Y-88.75
X133.7Y-91.29
X135.962Y-131.2
X138.502Y-131.2
X141.042Y-131.2
X143.582Y-131.2
X146.122Y-131.2
X148.662Y-131.2
X151.202Y-131.2
X153.742Y-131.2
X156.282Y-131.2
T7
X103.426Y-143.294
X105.946Y-57.564
X179.606Y-57.564
X183.426Y-143.294
T5
X179.685Y-105.53G85X180.785Y-105.53
G05
X179.685Y-114.17G85X180.785Y-114.17
G05
X183.975Y-105.53G85X184.775Y-105.53
G05
X183.975Y-114.17G85X184.775Y-114.17
G05
M30
