<?xml version="1.0" standalone="no"?>
<!DOCTYPE svg PUBLIC "-//W3C//DTD SVG 20010904//EN"
 "http://www.w3.org/TR/2001/REC-SVG-20010904/DTD/svg10.dtd">
<svg version="1.0" xmlns="http://www.w3.org/2000/svg"
 width="512.000000pt" height="512.000000pt" viewBox="0 0 512.000000 512.000000"
 preserveAspectRatio="xMidYMid meet">

<g transform="translate(0.000000,512.000000) scale(0.100000,-0.100000)"
fill="#000000" stroke="none">
<path d="M1725 3708 c-6 -18 -55 -215 -55 -222 0 -3 7 -6 15 -6 13 0 15 -22
15 -135 l0 -135 -40 0 -40 0 0 -145 0 -145 -185 0 -185 0 0 -150 0 -150 -150
0 -150 0 0 -145 0 -145 -140 0 -140 0 0 -145 0 -145 -170 0 -170 0 0 -150 0
-150 -165 0 -165 0 0 -170 0 -170 2560 0 2560 0 0 170 0 170 -165 0 -165 0 0
150 0 150 -170 0 -170 0 0 145 0 145 -140 0 -140 0 0 145 0 145 -150 0 -150 0
0 150 0 150 -185 0 -185 0 0 145 0 145 -40 0 -40 0 0 135 c0 113 2 135 15 135
19 0 20 -5 -13 125 l-28 110 -832 3 c-661 2 -833 0 -837 -10z m333 -370 l3
-108 -106 0 -105 0 0 103 c0 57 3 107 7 111 4 4 50 5 103 4 l95 -3 3 -107z
m402 2 l0 -110 -100 0 -100 0 0 110 0 110 100 0 100 0 0 -110z m400 0 l0 -110
-100 0 -100 0 0 110 0 110 100 0 100 0 0 -110z m408 -2 l3 -108 -106 0 -105 0
0 103 c0 57 3 107 7 111 4 4 50 5 103 4 l95 -3 3 -107z m-983 -1005 c-25 -447
-45 -815 -45 -818 0 -3 -25 -5 -55 -5 l-55 0 1 38 c0 20 33 390 72 822 l72
784 25 6 c14 4 26 2 28 -4 1 -6 -18 -376 -43 -823z m562 806 c6 -30 143 -1573
143 -1600 0 -28 -1 -29 -54 -29 l-54 0 -6 88 c-6 83 -86 1531 -86 1557 0 18
54 3 57 -16z"/>
</g>
</svg>
