%TF.GenerationSoftware,KiCad,Pcbnew,8.0.8*%
%TF.CreationDate,2025-03-15T17:23:19-07:00*%
%TF.ProjectId,Stationary_X_Panel,53746174-696f-46e6-9172-795f585f5061,1.4*%
%TF.SameCoordinates,Original*%
%TF.FileFunction,Drillmap*%
%TF.FilePolarity,Positive*%
%FSLAX45Y45*%
G04 Gerber Fmt 4.5, Leading zero omitted, Abs format (unit mm)*
G04 Created by KiCad (PCBNEW 8.0.8) date 2025-03-15 17:23:19*
%MOMM*%
%LPD*%
G01*
G04 APERTURE LIST*
%ADD10C,0.200000*%
%ADD11C,0.100000*%
G04 APERTURE END LIST*
D10*
X8200000Y-4300000D02*
X8200000Y-5200000D01*
X8200000Y-5200000D02*
G75*
G02*
X7900000Y-5534999I-317510J-17490D01*
G01*
D11*
X7300000Y-11400000D02*
X7300000Y-11850000D01*
D10*
X8408500Y-2710500D02*
G75*
G02*
X7908500Y-2710500I-250000J0D01*
G01*
X7908500Y-2710500D02*
G75*
G02*
X8408500Y-2710500I250000J0D01*
G01*
D11*
X6700000Y-11850000D02*
X7300000Y-11850000D01*
D10*
X10416000Y-22590500D02*
X10416000Y-13615500D01*
X10733500Y-12515500D02*
G75*
G02*
X11033500Y-12815500I0J-300000D01*
G01*
X4167106Y-22704917D02*
X3596709Y-21707521D01*
X3183500Y-2940500D02*
X3201000Y-2940500D01*
X6248500Y-22084083D02*
X6248500Y-22669490D01*
X11033500Y-23390500D02*
X11033500Y-23190500D01*
X3501000Y-22268160D02*
X3501000Y-22590500D01*
D11*
X6700000Y-11400000D02*
X6700000Y-11850000D01*
D10*
X11033500Y-13015500D02*
G75*
G02*
X10733500Y-13315500I-300000J0D01*
G01*
X2883500Y-23190500D02*
G75*
G02*
X3183500Y-22890500I300000J0D01*
G01*
X6008138Y-23133948D02*
G75*
G02*
X6128104Y-22909791I299602J-16162D01*
G01*
X10416000Y-3240500D02*
G75*
G02*
X10716000Y-2940500I300000J0D01*
G01*
X3501000Y-22590500D02*
G75*
G02*
X3201000Y-22890500I-300000J0D01*
G01*
X4100000Y-4000000D02*
X7900000Y-4000000D01*
X3183500Y-23690500D02*
G75*
G02*
X2883500Y-23390500I0J300000D01*
G01*
X10416000Y-13615500D02*
G75*
G02*
X10716000Y-13315500I300000J0D01*
G01*
D11*
X5962000Y-14680000D02*
X5962000Y-12680000D01*
D10*
X11033500Y-2640500D02*
X11033500Y-2440500D01*
X10733500Y-2140500D02*
G75*
G02*
X11033500Y-2440500I0J-300000D01*
G01*
D11*
X6200000Y-10900000D02*
X6700000Y-11400000D01*
D10*
X3183500Y-2940500D02*
G75*
G02*
X2883500Y-2640500I0J300000D01*
G01*
D11*
X7300000Y-9350000D02*
X6700000Y-9350000D01*
D10*
X10733500Y-22890500D02*
G75*
G02*
X11033500Y-23190500I0J-300000D01*
G01*
X10733500Y-12515500D02*
X10716000Y-12515500D01*
X2883500Y-12815500D02*
X2883500Y-13015500D01*
X3201000Y-12515500D02*
X3183500Y-12515500D01*
X10716000Y-22890500D02*
G75*
G02*
X10416000Y-22590500I0J300000D01*
G01*
D11*
X6200000Y-10300000D02*
X6700000Y-9800000D01*
D10*
X2883500Y-2440500D02*
G75*
G02*
X3183500Y-2140500I300000J0D01*
G01*
D11*
X8250000Y-10900000D02*
X8250000Y-10300000D01*
X6462000Y-12680000D02*
G75*
G02*
X7462000Y-12680000I500000J0D01*
G01*
D10*
X10716000Y-13315500D02*
X10733500Y-13315500D01*
X10716000Y-12515500D02*
G75*
G02*
X10416000Y-12215500I0J300000D01*
G01*
X10716000Y-2940500D02*
X10733500Y-2940500D01*
X3183500Y-13315500D02*
G75*
G02*
X2883500Y-13015500I0J300000D01*
G01*
X7900000Y-4000000D02*
G75*
G02*
X8200000Y-4300000I0J-300000D01*
G01*
X6248500Y-22669490D02*
G75*
G02*
X6128102Y-22909788I-300000J0D01*
G01*
X7900000Y-5535000D02*
X4100000Y-5535000D01*
D11*
X6700000Y-9800000D02*
X6700000Y-9350000D01*
D10*
X4100000Y-5535000D02*
G75*
G02*
X3800001Y-5300000I-28770J272260D01*
G01*
D11*
X5700000Y-10900000D02*
X5700000Y-10300000D01*
D10*
X6008138Y-23133948D02*
G75*
G02*
X5509021Y-23136630I-249638J13448D01*
G01*
X3800000Y-4300000D02*
G75*
G02*
X4100000Y-4000000I304763J-4763D01*
G01*
X3501000Y-12215500D02*
G75*
G02*
X3201000Y-12515500I-300000J0D01*
G01*
X10733500Y-22890500D02*
X10716000Y-22890500D01*
X3501000Y-3240500D02*
X3501000Y-12215500D01*
D11*
X7300000Y-11400000D02*
X7800000Y-10900000D01*
D10*
X11033500Y-13015500D02*
X11033500Y-12815500D01*
X3201000Y-13315500D02*
G75*
G02*
X3501000Y-13615500I0J-300000D01*
G01*
D11*
X7962000Y-12680000D02*
X7962000Y-14680000D01*
X7462000Y-12680000D02*
X7962000Y-12680000D01*
D10*
X3201000Y-22890500D02*
X3183500Y-22890500D01*
X2883500Y-2440500D02*
X2883500Y-2640500D01*
X10416000Y-12215500D02*
X10416000Y-3240500D01*
X5209646Y-22855986D02*
G75*
G02*
X5509030Y-23136629I14J-299994D01*
G01*
X11033500Y-2640500D02*
G75*
G02*
X10733500Y-2940500I-300000J0D01*
G01*
D11*
X5962000Y-12680000D02*
X6462000Y-12680000D01*
D10*
X6008500Y-2710500D02*
G75*
G02*
X5508500Y-2710500I-250000J0D01*
G01*
X5508500Y-2710500D02*
G75*
G02*
X6008500Y-2710500I250000J0D01*
G01*
X5209646Y-22855986D02*
X4427528Y-22855986D01*
D11*
X7300000Y-9800000D02*
X7300000Y-9350000D01*
D10*
X4427528Y-22855986D02*
G75*
G02*
X4167105Y-22704918I2J300006D01*
G01*
X3800000Y-4300000D02*
X3800000Y-5300000D01*
D11*
X7962000Y-14680000D02*
X5962000Y-14680000D01*
X7800000Y-10300000D02*
X8250000Y-10300000D01*
X7300000Y-9800000D02*
X7800000Y-10300000D01*
D10*
X5542277Y-20647816D02*
X6214875Y-21946081D01*
X6214875Y-21946081D02*
G75*
G02*
X6248497Y-22084083I-266385J-137999D01*
G01*
D11*
X5700000Y-10300000D02*
X6200000Y-10300000D01*
D10*
X2883500Y-23190500D02*
X2883500Y-23390500D01*
X3201000Y-2940500D02*
G75*
G02*
X3501000Y-3240500I0J-300000D01*
G01*
X10733500Y-2140500D02*
X3183500Y-2140500D01*
D11*
X7800000Y-10900000D02*
X8250000Y-10900000D01*
X5700000Y-10900000D02*
X6200000Y-10900000D01*
D10*
X3596709Y-21707521D02*
G75*
G02*
X5542277Y-20647816I961791J550035D01*
G01*
X11033500Y-23390500D02*
G75*
G02*
X10733500Y-23690500I-300000J0D01*
G01*
X3183500Y-13315500D02*
X3201000Y-13315500D01*
X3501000Y-22268160D02*
G75*
G02*
X3501000Y-20046812I1057501J1110674D01*
G01*
X3183500Y-23690500D02*
X10733500Y-23690500D01*
X3501000Y-13615500D02*
X3501000Y-20046812D01*
X2883500Y-12815500D02*
G75*
G02*
X3183500Y-12515500I300000J0D01*
G01*
X3134277Y-24011984D02*
X3134277Y-23811984D01*
X3134277Y-23811984D02*
X3181896Y-23811984D01*
X3181896Y-23811984D02*
X3210467Y-23821508D01*
X3210467Y-23821508D02*
X3229515Y-23840555D01*
X3229515Y-23840555D02*
X3239039Y-23859603D01*
X3239039Y-23859603D02*
X3248562Y-23897698D01*
X3248562Y-23897698D02*
X3248562Y-23926269D01*
X3248562Y-23926269D02*
X3239039Y-23964365D01*
X3239039Y-23964365D02*
X3229515Y-23983412D01*
X3229515Y-23983412D02*
X3210467Y-24002460D01*
X3210467Y-24002460D02*
X3181896Y-24011984D01*
X3181896Y-24011984D02*
X3134277Y-24011984D01*
X3334277Y-24011984D02*
X3334277Y-23878650D01*
X3334277Y-23916746D02*
X3343801Y-23897698D01*
X3343801Y-23897698D02*
X3353324Y-23888174D01*
X3353324Y-23888174D02*
X3372372Y-23878650D01*
X3372372Y-23878650D02*
X3391420Y-23878650D01*
X3458086Y-24011984D02*
X3458086Y-23878650D01*
X3458086Y-23811984D02*
X3448562Y-23821508D01*
X3448562Y-23821508D02*
X3458086Y-23831031D01*
X3458086Y-23831031D02*
X3467610Y-23821508D01*
X3467610Y-23821508D02*
X3458086Y-23811984D01*
X3458086Y-23811984D02*
X3458086Y-23831031D01*
X3581896Y-24011984D02*
X3562848Y-24002460D01*
X3562848Y-24002460D02*
X3553324Y-23983412D01*
X3553324Y-23983412D02*
X3553324Y-23811984D01*
X3686658Y-24011984D02*
X3667610Y-24002460D01*
X3667610Y-24002460D02*
X3658086Y-23983412D01*
X3658086Y-23983412D02*
X3658086Y-23811984D01*
X3915229Y-24011984D02*
X3915229Y-23811984D01*
X3915229Y-23811984D02*
X3981896Y-23954841D01*
X3981896Y-23954841D02*
X4048562Y-23811984D01*
X4048562Y-23811984D02*
X4048562Y-24011984D01*
X4229515Y-24011984D02*
X4229515Y-23907222D01*
X4229515Y-23907222D02*
X4219991Y-23888174D01*
X4219991Y-23888174D02*
X4200944Y-23878650D01*
X4200944Y-23878650D02*
X4162848Y-23878650D01*
X4162848Y-23878650D02*
X4143801Y-23888174D01*
X4229515Y-24002460D02*
X4210467Y-24011984D01*
X4210467Y-24011984D02*
X4162848Y-24011984D01*
X4162848Y-24011984D02*
X4143801Y-24002460D01*
X4143801Y-24002460D02*
X4134277Y-23983412D01*
X4134277Y-23983412D02*
X4134277Y-23964365D01*
X4134277Y-23964365D02*
X4143801Y-23945317D01*
X4143801Y-23945317D02*
X4162848Y-23935793D01*
X4162848Y-23935793D02*
X4210467Y-23935793D01*
X4210467Y-23935793D02*
X4229515Y-23926269D01*
X4324753Y-23878650D02*
X4324753Y-24078650D01*
X4324753Y-23888174D02*
X4343801Y-23878650D01*
X4343801Y-23878650D02*
X4381896Y-23878650D01*
X4381896Y-23878650D02*
X4400944Y-23888174D01*
X4400944Y-23888174D02*
X4410467Y-23897698D01*
X4410467Y-23897698D02*
X4419991Y-23916746D01*
X4419991Y-23916746D02*
X4419991Y-23973888D01*
X4419991Y-23973888D02*
X4410467Y-23992936D01*
X4410467Y-23992936D02*
X4400944Y-24002460D01*
X4400944Y-24002460D02*
X4381896Y-24011984D01*
X4381896Y-24011984D02*
X4343801Y-24011984D01*
X4343801Y-24011984D02*
X4324753Y-24002460D01*
X4505705Y-23992936D02*
X4515229Y-24002460D01*
X4515229Y-24002460D02*
X4505705Y-24011984D01*
X4505705Y-24011984D02*
X4496182Y-24002460D01*
X4496182Y-24002460D02*
X4505705Y-23992936D01*
X4505705Y-23992936D02*
X4505705Y-24011984D01*
X4505705Y-23888174D02*
X4515229Y-23897698D01*
X4515229Y-23897698D02*
X4505705Y-23907222D01*
X4505705Y-23907222D02*
X4496182Y-23897698D01*
X4496182Y-23897698D02*
X4505705Y-23888174D01*
X4505705Y-23888174D02*
X4505705Y-23907222D01*
M02*
