%TF.GenerationSoftware,KiCad,Pcbnew,9.0.1*%
%TF.CreationDate,2025-04-07T05:48:08-07:00*%
%TF.ProjectId,RPi_interface,5250695f-696e-4746-9572-666163652e6b,1.3*%
%TF.SameCoordinates,Original*%
%TF.FileFunction,Profile,NP*%
%FSLAX46Y46*%
G04 Gerber Fmt 4.6, Leading zero omitted, Abs format (unit mm)*
G04 Created by KiCad (PCBNEW 9.0.1) date 2025-04-07 05:48:08*
%MOMM*%
%LPD*%
G01*
G04 APERTURE LIST*
%TA.AperFunction,Profile*%
%ADD10C,0.200000*%
%TD*%
G04 APERTURE END LIST*
D10*
X90075216Y-50332437D02*
X90018863Y-50664107D01*
X145924784Y-110667563D02*
X145981137Y-110335893D01*
X91698349Y-48297093D02*
X91403904Y-48459827D01*
X145831650Y-110990837D02*
X145924784Y-110667563D01*
X90018863Y-110335893D02*
X90075216Y-110667563D01*
X144870469Y-48654506D02*
X144596096Y-48459827D01*
X143667563Y-112924784D02*
X143990837Y-112831650D01*
X91403904Y-48459827D02*
X91129531Y-48654506D01*
X91698349Y-112702907D02*
X92009163Y-112831650D01*
X90297093Y-111301651D02*
X90459827Y-111596096D01*
X144301651Y-112702907D02*
X144596096Y-112540173D01*
X91403904Y-112540173D02*
X91698349Y-112702907D01*
X90000000Y-99399999D02*
X90000000Y-110000000D01*
X92664107Y-48018863D02*
X92332437Y-48075216D01*
X146000000Y-51000000D02*
X145981137Y-50664107D01*
X92009163Y-112831650D02*
X92332437Y-112924784D01*
X145345494Y-111870469D02*
X145540173Y-111596096D01*
X90018863Y-50664107D02*
X90000000Y-51000000D01*
X90000000Y-99399999D02*
G75*
G02*
X91999999Y-97400000I2000000J-1D01*
G01*
X145831650Y-50009163D02*
X145702907Y-49698349D01*
X94999998Y-92500000D02*
X113000000Y-92500000D01*
X145540173Y-111596096D02*
X145702907Y-111301651D01*
X90297093Y-49698349D02*
X90168350Y-50009163D01*
X92664107Y-112981137D02*
X93000000Y-113000000D01*
X90459827Y-111596096D02*
X90654506Y-111870469D01*
X143335893Y-48018863D02*
X143000000Y-48000000D01*
X90878680Y-48878680D02*
X90654506Y-49129531D01*
X90459827Y-49403904D02*
X90297093Y-49698349D01*
X93000000Y-113000000D02*
X143000000Y-113000000D01*
X113000000Y-97400000D02*
X91999999Y-97400000D01*
X90000000Y-110000000D02*
X90018863Y-110335893D01*
X144596096Y-48459827D02*
X144301651Y-48297093D01*
X144301651Y-48297093D02*
X143990837Y-48168350D01*
X90168350Y-50009163D02*
X90075216Y-50332437D01*
X145121320Y-48878680D02*
X144870469Y-48654506D01*
X90000000Y-51000000D02*
X89999998Y-87499999D01*
X94999998Y-92500000D02*
G75*
G02*
X90000000Y-87499999I2J5000000D01*
G01*
X144870469Y-112345494D02*
X145121320Y-112121320D01*
X145345494Y-49129531D02*
X145121320Y-48878680D01*
X145981137Y-110335893D02*
X146000000Y-110000000D01*
X143667563Y-48075216D02*
X143335893Y-48018863D01*
X92009163Y-48168350D02*
X91698349Y-48297093D01*
X90654506Y-111870469D02*
X90878680Y-112121320D01*
X143335893Y-112981137D02*
X143667563Y-112924784D01*
X90168350Y-110990837D02*
X90297093Y-111301651D01*
X91129531Y-48654506D02*
X90878680Y-48878680D01*
X93000000Y-48000000D02*
X92664107Y-48018863D01*
X90878680Y-112121320D02*
X91129531Y-112345494D01*
X145924784Y-50332437D02*
X145831650Y-50009163D01*
X145702907Y-49698349D02*
X145540173Y-49403904D01*
X145121320Y-112121320D02*
X145345494Y-111870469D01*
X92332437Y-48075216D02*
X92009163Y-48168350D01*
X143990837Y-112831650D02*
X144301651Y-112702907D01*
X113000000Y-92500000D02*
X113000000Y-97400000D01*
X143000000Y-113000000D02*
X143335893Y-112981137D01*
X145981137Y-50664107D02*
X145924784Y-50332437D01*
X144596096Y-112540173D02*
X144870469Y-112345494D01*
X143000000Y-48000000D02*
X93000000Y-48000000D01*
X90075216Y-110667563D02*
X90168350Y-110990837D01*
X90654506Y-49129531D02*
X90459827Y-49403904D01*
X145702907Y-111301651D02*
X145831650Y-110990837D01*
X145540173Y-49403904D02*
X145345494Y-49129531D01*
X92332437Y-112924784D02*
X92664107Y-112981137D01*
X146000000Y-110000000D02*
X146000000Y-51000000D01*
X143990837Y-48168350D02*
X143667563Y-48075216D01*
X91129531Y-112345494D02*
X91403904Y-112540173D01*
M02*
