%TF.GenerationSoftware,KiCad,Pcbnew,9.0.1*%
%TF.CreationDate,2025-04-07T05:48:08-07:00*%
%TF.ProjectId,RPi_interface,5250695f-696e-4746-9572-666163652e6b,1.3*%
%TF.SameCoordinates,Original*%
%TF.FileFunction,Copper,L4,Bot*%
%TF.FilePolarity,Positive*%
%FSLAX46Y46*%
G04 Gerber Fmt 4.6, Leading zero omitted, Abs format (unit mm)*
G04 Created by KiCad (PCBNEW 9.0.1) date 2025-04-07 05:48:08*
%MOMM*%
%LPD*%
G01*
G04 APERTURE LIST*
%TA.AperFunction,ComponentPad*%
%ADD10C,4.700000*%
%TD*%
%TA.AperFunction,ComponentPad*%
%ADD11R,1.150000X1.150000*%
%TD*%
%TA.AperFunction,ComponentPad*%
%ADD12C,1.150000*%
%TD*%
%TA.AperFunction,ComponentPad*%
%ADD13C,1.400000*%
%TD*%
%TA.AperFunction,ComponentPad*%
%ADD14O,1.400000X1.400000*%
%TD*%
%TA.AperFunction,ComponentPad*%
%ADD15C,2.050000*%
%TD*%
%TA.AperFunction,ComponentPad*%
%ADD16C,2.250000*%
%TD*%
%TA.AperFunction,ComponentPad*%
%ADD17R,1.700000X1.700000*%
%TD*%
%TA.AperFunction,ComponentPad*%
%ADD18O,1.700000X1.700000*%
%TD*%
%TA.AperFunction,ViaPad*%
%ADD19C,0.800000*%
%TD*%
%TA.AperFunction,Conductor*%
%ADD20C,1.270000*%
%TD*%
%TA.AperFunction,Conductor*%
%ADD21C,1.000000*%
%TD*%
%TA.AperFunction,Conductor*%
%ADD22C,0.250000*%
%TD*%
G04 APERTURE END LIST*
D10*
%TO.P,H5,1,1*%
%TO.N,GND*%
X93500000Y-86200000D03*
%TD*%
D11*
%TO.P,J2,1,1*%
%TO.N,TX*%
X108825000Y-103200000D03*
D12*
%TO.P,J2,2,2*%
%TO.N,RX*%
X106824999Y-103200000D03*
%TO.P,J2,3,3*%
%TO.N,ENAB_RPI*%
X104825000Y-103200000D03*
%TO.P,J2,4,4*%
%TO.N,RPI_RST*%
X102824999Y-103200000D03*
%TO.P,J2,5,5*%
%TO.N,PyCubed_SENSE*%
X100825001Y-103200000D03*
%TO.P,J2,6,6*%
%TO.N,PYCUBED_3V3*%
X98825000Y-103200000D03*
%TO.P,J2,7,7*%
%TO.N,GND*%
X96825001Y-103200000D03*
%TO.P,J2,8,8*%
%TO.N,VBATT*%
X94825000Y-103200000D03*
%TO.P,J2,9,9*%
%TO.N,GND*%
X92824999Y-103200000D03*
%TD*%
D10*
%TO.P,H2,1,1*%
%TO.N,GND*%
X142500000Y-51500000D03*
%TD*%
%TO.P,H4,1,1*%
%TO.N,GND*%
X142500000Y-109500000D03*
%TD*%
%TO.P,H1,1,1*%
%TO.N,GND*%
X93500000Y-51500000D03*
%TD*%
D13*
%TO.P,TH1,1*%
%TO.N,PyCubed_SENSE*%
X120900000Y-88460000D03*
D14*
%TO.P,TH1,2*%
%TO.N,GND*%
X120900000Y-93540000D03*
%TD*%
D10*
%TO.P,H3,1,1*%
%TO.N,GND*%
X93500000Y-109500000D03*
%TD*%
D15*
%TO.P,J4,1,In*%
%TO.N,Net-(J4-In)*%
X133830000Y-108335000D03*
D16*
%TO.P,J4,2,Ext*%
%TO.N,GND*%
X131290000Y-105795000D03*
X131290000Y-110875000D03*
X136370000Y-105795000D03*
X136370000Y-110875000D03*
%TD*%
D17*
%TO.P,J3,1,Pin_1*%
%TO.N,Net-(J3-Pin_1)*%
X110500000Y-62540000D03*
D18*
%TO.P,J3,2,Pin_2*%
%TO.N,GND*%
X110500000Y-60000000D03*
%TO.P,J3,3,Pin_3*%
%TO.N,unconnected-(J3-Pin_3-Pad3)*%
X110500000Y-57460000D03*
%TD*%
D17*
%TO.P,J1,1,Pin_1*%
%TO.N,+3V3*%
X141230000Y-56370000D03*
D18*
%TO.P,J1,2,Pin_2*%
%TO.N,5V*%
X143770000Y-56370000D03*
%TO.P,J1,3,Pin_3*%
%TO.N,unconnected-(J1-Pin_3-Pad3)*%
X141230000Y-58910000D03*
%TO.P,J1,4,Pin_4*%
%TO.N,5V*%
X143770000Y-58910000D03*
%TO.P,J1,5,Pin_5*%
%TO.N,unconnected-(J1-Pin_5-Pad5)*%
X141230000Y-61450000D03*
%TO.P,J1,6,Pin_6*%
%TO.N,GND*%
X143770000Y-61450000D03*
%TO.P,J1,7,Pin_7*%
%TO.N,unconnected-(J1-Pin_7-Pad7)*%
X141230000Y-63990000D03*
%TO.P,J1,8,Pin_8*%
%TO.N,TX*%
X143770000Y-63990000D03*
%TO.P,J1,9,Pin_9*%
%TO.N,GND*%
X141230000Y-66530000D03*
%TO.P,J1,10,Pin_10*%
%TO.N,RX*%
X143770000Y-66530000D03*
%TO.P,J1,11,Pin_11*%
%TO.N,unconnected-(J1-Pin_11-Pad11)*%
X141230000Y-69070000D03*
%TO.P,J1,12,Pin_12*%
%TO.N,unconnected-(J1-Pin_12-Pad12)*%
X143770000Y-69070000D03*
%TO.P,J1,13,Pin_13*%
%TO.N,ENAB_RF*%
X141230000Y-71610000D03*
%TO.P,J1,14,Pin_14*%
%TO.N,GND*%
X143770000Y-71610000D03*
%TO.P,J1,15,Pin_15*%
%TO.N,RF_RST*%
X141230000Y-74150000D03*
%TO.P,J1,16,Pin_16*%
%TO.N,RF_TX_EN*%
X143770000Y-74150000D03*
%TO.P,J1,17,Pin_17*%
%TO.N,unconnected-(J1-Pin_17-Pad17)*%
X141230000Y-76690000D03*
%TO.P,J1,18,Pin_18*%
%TO.N,RF_RX_EN*%
X143770000Y-76690000D03*
%TO.P,J1,19,Pin_19*%
%TO.N,MOSI*%
X141230000Y-79230000D03*
%TO.P,J1,20,Pin_20*%
%TO.N,GND*%
X143770000Y-79230000D03*
%TO.P,J1,21,Pin_21*%
%TO.N,MISO*%
X141230000Y-81770000D03*
%TO.P,J1,22,Pin_22*%
%TO.N,TCXO_EN*%
X143770000Y-81770000D03*
%TO.P,J1,23,Pin_23*%
%TO.N,SCLK*%
X141230000Y-84310000D03*
%TO.P,J1,24,Pin_24*%
%TO.N,unconnected-(J1-Pin_24-Pad24)*%
X143770000Y-84310000D03*
%TO.P,J1,25,Pin_25*%
%TO.N,GND*%
X141230000Y-86850000D03*
%TO.P,J1,26,Pin_26*%
%TO.N,unconnected-(J1-Pin_26-Pad26)*%
X143770000Y-86850000D03*
%TO.P,J1,27,Pin_27*%
%TO.N,unconnected-(J1-Pin_27-Pad27)*%
X141230000Y-89390000D03*
%TO.P,J1,28,Pin_28*%
%TO.N,unconnected-(J1-Pin_28-Pad28)*%
X143770000Y-89390000D03*
%TO.P,J1,29,Pin_29*%
%TO.N,RF_CS*%
X141230000Y-91930000D03*
%TO.P,J1,30,Pin_30*%
%TO.N,GND*%
X143770000Y-91930000D03*
%TO.P,J1,31,Pin_31*%
%TO.N,unconnected-(J1-Pin_31-Pad31)*%
X141230000Y-94470000D03*
%TO.P,J1,32,Pin_32*%
%TO.N,unconnected-(J1-Pin_32-Pad32)*%
X143770000Y-94470000D03*
%TO.P,J1,33,Pin_33*%
%TO.N,unconnected-(J1-Pin_33-Pad33)*%
X141230000Y-97010000D03*
%TO.P,J1,34,Pin_34*%
%TO.N,GND*%
X143770000Y-97010000D03*
%TO.P,J1,35,Pin_35*%
%TO.N,RF_IO1*%
X141230000Y-99550000D03*
%TO.P,J1,36,Pin_36*%
%TO.N,unconnected-(J1-Pin_36-Pad36)*%
X143770000Y-99550000D03*
%TO.P,J1,37,Pin_37*%
%TO.N,RF_BUSY*%
X141230000Y-102090000D03*
%TO.P,J1,38,Pin_38*%
%TO.N,RF_IO2*%
X143770000Y-102090000D03*
%TO.P,J1,39,Pin_39*%
%TO.N,GND*%
X141230000Y-104630000D03*
%TO.P,J1,40,Pin_40*%
%TO.N,RF_IO3*%
X143770000Y-104630000D03*
%TD*%
D19*
%TO.N,GND*%
X109010000Y-83625000D03*
X131175000Y-64800000D03*
X97400000Y-101000000D03*
X130135000Y-88410000D03*
X129185000Y-88410000D03*
X117375000Y-59150000D03*
X129185000Y-89285000D03*
X106686341Y-77163659D03*
X97400000Y-101800000D03*
X98000000Y-111000000D03*
X98000000Y-112000000D03*
X107561341Y-74288659D03*
X132050000Y-64800000D03*
X131085000Y-89285000D03*
X93600000Y-99400000D03*
X97000000Y-108000000D03*
X92600000Y-100600000D03*
X109885000Y-83625000D03*
X131175000Y-63850000D03*
X130350000Y-54125000D03*
X107561341Y-75238659D03*
X105811341Y-74288659D03*
X138900000Y-68250000D03*
X126300000Y-55325000D03*
X125425000Y-54375000D03*
X117636341Y-82013659D03*
X97000000Y-110000000D03*
X110325000Y-79000000D03*
X124550000Y-54375000D03*
X124550000Y-52450000D03*
X106686341Y-74288659D03*
X97400000Y-100200000D03*
X97000000Y-112000000D03*
X132925000Y-63850000D03*
X96400000Y-101000000D03*
X132050000Y-63850000D03*
X131300000Y-54125000D03*
X132250000Y-55000000D03*
X130135000Y-89285000D03*
X117375000Y-60100000D03*
X131085000Y-88410000D03*
X126300000Y-52450000D03*
X99000000Y-110000000D03*
X99000000Y-111000000D03*
X109450000Y-79950000D03*
X129185000Y-90160000D03*
X98000000Y-108000000D03*
X133225000Y-55875000D03*
X119725000Y-67600000D03*
X120600000Y-67600000D03*
X125425000Y-52450000D03*
X110325000Y-79950000D03*
X108575000Y-79950000D03*
X132250000Y-55875000D03*
X99000000Y-108000000D03*
X96400000Y-101800000D03*
X98000000Y-109000000D03*
X99000000Y-109000000D03*
X105811341Y-77163659D03*
X107561341Y-77163659D03*
X91600000Y-100600000D03*
X99650000Y-85675000D03*
X97000000Y-111000000D03*
X130350000Y-55875000D03*
X131085000Y-90160000D03*
X98775000Y-84725000D03*
X120600000Y-66650000D03*
X99650000Y-84725000D03*
X130350000Y-55000000D03*
X126300000Y-54375000D03*
X107561341Y-76188659D03*
X116500000Y-60100000D03*
X110760000Y-83625000D03*
X109010000Y-84600000D03*
X91600000Y-99400000D03*
X121475000Y-66650000D03*
X110760000Y-84600000D03*
X93600000Y-100600000D03*
X130135000Y-90160000D03*
X131300000Y-55875000D03*
X105811341Y-75238659D03*
X92600000Y-99400000D03*
X119725000Y-66650000D03*
X124550000Y-55325000D03*
X109450000Y-79000000D03*
X109885000Y-84600000D03*
X126300000Y-53425000D03*
X106686341Y-75238659D03*
X133225000Y-54125000D03*
X108575000Y-79000000D03*
X97000000Y-107000000D03*
X97000000Y-109000000D03*
X132925000Y-64800000D03*
X125425000Y-55325000D03*
X105811341Y-76188659D03*
X124550000Y-53425000D03*
X98000000Y-107000000D03*
X125425000Y-53425000D03*
X131300000Y-55000000D03*
X106686341Y-76188659D03*
X115625000Y-60100000D03*
X132060000Y-90160000D03*
X98000000Y-110000000D03*
X98775000Y-85675000D03*
X132060000Y-88410000D03*
X96400000Y-100200000D03*
X132060000Y-89285000D03*
X121475000Y-67600000D03*
X116500000Y-59150000D03*
X115625000Y-59150000D03*
X99000000Y-107000000D03*
X99000000Y-112000000D03*
X132250000Y-54125000D03*
X133225000Y-55000000D03*
X117636341Y-80013659D03*
%TO.N,5V*%
X100961341Y-81788659D03*
X113236341Y-84813659D03*
X100427500Y-74052500D03*
X106000000Y-72750000D03*
X100236341Y-75125000D03*
X114136341Y-85713659D03*
X107250000Y-72750000D03*
X101511341Y-82688659D03*
X112286341Y-84813659D03*
X137625000Y-50750000D03*
X100011341Y-81788659D03*
X123250000Y-111750000D03*
X100561341Y-82688659D03*
X113186341Y-85713659D03*
%TO.N,Net-(U1-VREG5)*%
X115236341Y-81213659D03*
X117336341Y-77613659D03*
%TO.N,TX*%
X122200000Y-71550000D03*
%TO.N,RX*%
X123250000Y-72374156D03*
%TO.N,RF_TX_EN*%
X124300000Y-98875000D03*
%TO.N,RF_RX_EN*%
X126300000Y-98875000D03*
%TO.N,MOSI*%
X125625000Y-73025000D03*
%TO.N,MISO*%
X124360000Y-73010000D03*
%TO.N,TCXO_EN*%
X126540000Y-62110000D03*
X124975000Y-59725000D03*
%TO.N,SCLK*%
X126900000Y-74900000D03*
%TO.N,RF_CS*%
X139600000Y-85475000D03*
X135600500Y-83000000D03*
%TO.N,PyCubed_SENSE*%
X115150000Y-91450000D03*
%TO.N,ENAB_RPI*%
X112179541Y-78790000D03*
X118600000Y-88800000D03*
%TD*%
D20*
%TO.N,GND*%
X143770000Y-97010000D02*
X144910000Y-97010000D01*
X143770000Y-61450000D02*
X144900000Y-61450000D01*
D21*
X141230000Y-86850000D02*
X138825000Y-86850000D01*
D20*
X141230000Y-66530000D02*
X139680000Y-66530000D01*
D22*
%TO.N,Net-(U1-VREG5)*%
X117336341Y-77613659D02*
X117336341Y-79113659D01*
X117336341Y-79113659D02*
X115236341Y-81213659D01*
%TO.N,TX*%
X142585000Y-66836701D02*
X142585000Y-65175000D01*
X141526701Y-67895000D02*
X142585000Y-66836701D01*
X136875000Y-71550000D02*
X140530000Y-67895000D01*
X122200000Y-71550000D02*
X136875000Y-71550000D01*
X140530000Y-67895000D02*
X141526701Y-67895000D01*
X142585000Y-65175000D02*
X143770000Y-63990000D01*
%TO.N,RX*%
X142575000Y-67725000D02*
X143770000Y-66530000D01*
X136905000Y-72275000D02*
X123349156Y-72275000D01*
X136905000Y-72275000D02*
X138935000Y-70245000D01*
X138935000Y-70245000D02*
X141716701Y-70245000D01*
X141716701Y-70245000D02*
X142575000Y-69386701D01*
X123349156Y-72275000D02*
X123250000Y-72374156D01*
X142575000Y-69386701D02*
X142575000Y-67725000D01*
%TO.N,RF_TX_EN*%
X124300000Y-98875000D02*
X125250000Y-99825000D01*
X144256701Y-95645000D02*
X145550000Y-94351701D01*
X125250000Y-99825000D02*
X126750000Y-99825000D01*
X140933299Y-95645000D02*
X144256701Y-95645000D01*
X145550000Y-75930000D02*
X143770000Y-74150000D01*
X126750000Y-99825000D02*
X127975000Y-98600000D01*
X145550000Y-94351701D02*
X145550000Y-75930000D01*
X127975000Y-98600000D02*
X137978299Y-98600000D01*
X137978299Y-98600000D02*
X140933299Y-95645000D01*
%TO.N,RF_RX_EN*%
X138950000Y-96725000D02*
X138950000Y-92050000D01*
X137875000Y-97800000D02*
X138950000Y-96725000D01*
X138950000Y-92050000D02*
X140435000Y-90565000D01*
X144945000Y-77865000D02*
X143770000Y-76690000D01*
X127375000Y-97800000D02*
X137875000Y-97800000D01*
X144945000Y-89876701D02*
X144945000Y-77865000D01*
X126300000Y-98875000D02*
X127375000Y-97800000D01*
X144256701Y-90565000D02*
X144945000Y-89876701D01*
X140435000Y-90565000D02*
X144256701Y-90565000D01*
%TO.N,MOSI*%
X125625000Y-73025000D02*
X135025000Y-73025000D01*
X135025000Y-73025000D02*
X141230000Y-79230000D01*
%TO.N,MISO*%
X133635000Y-74175000D02*
X141230000Y-81770000D01*
X125525000Y-74175000D02*
X133635000Y-74175000D01*
X124360000Y-73010000D02*
X125525000Y-74175000D01*
%TO.N,TCXO_EN*%
X126540000Y-62110000D02*
X126540000Y-61290000D01*
X126540000Y-61290000D02*
X124975000Y-59725000D01*
%TO.N,SCLK*%
X140055000Y-81730000D02*
X140055000Y-83155000D01*
X126900000Y-74900000D02*
X127350000Y-75350000D01*
X133675000Y-75350000D02*
X140055000Y-81730000D01*
X140055000Y-83155000D02*
X141210000Y-84310000D01*
X141210000Y-84310000D02*
X141230000Y-84310000D01*
X127350000Y-75350000D02*
X133675000Y-75350000D01*
%TO.N,RF_CS*%
X137125000Y-83000000D02*
X139600000Y-85475000D01*
X135600500Y-83000000D02*
X137125000Y-83000000D01*
D21*
%TO.N,PyCubed_SENSE*%
X120615000Y-88460000D02*
X120900000Y-88460000D01*
X115150000Y-92675000D02*
X115150000Y-91450000D01*
X100900000Y-103100000D02*
X102700000Y-101300000D01*
X110231371Y-101300000D02*
X115150000Y-96381371D01*
X115150000Y-96381371D02*
X115150000Y-92675000D01*
X115150000Y-92675000D02*
X116400000Y-92675000D01*
X102700000Y-101300000D02*
X110231371Y-101300000D01*
X116400000Y-92675000D02*
X120615000Y-88460000D01*
D22*
%TO.N,ENAB_RPI*%
X112179541Y-81506859D02*
X118600000Y-87927318D01*
X118600000Y-87927318D02*
X118600000Y-88800000D01*
X112179541Y-78790000D02*
X112179541Y-81506859D01*
%TD*%
%TA.AperFunction,Conductor*%
%TO.N,GND*%
G36*
X142995043Y-48300694D02*
G01*
X143167512Y-48310380D01*
X143233340Y-48333791D01*
X143247852Y-48346117D01*
X143475730Y-48571996D01*
X143509485Y-48633171D01*
X143504808Y-48702884D01*
X143463183Y-48759002D01*
X143397827Y-48783707D01*
X143347482Y-48777105D01*
X143290225Y-48757070D01*
X143290227Y-48757070D01*
X142978144Y-48685840D01*
X142978130Y-48685837D01*
X142660059Y-48650000D01*
X142339940Y-48650000D01*
X142021869Y-48685837D01*
X142021855Y-48685840D01*
X141709772Y-48757070D01*
X141709764Y-48757073D01*
X141407630Y-48862795D01*
X141119231Y-49001681D01*
X140848189Y-49171988D01*
X140668687Y-49315134D01*
X141738282Y-50384728D01*
X141620534Y-50470278D01*
X141470278Y-50620534D01*
X141384729Y-50738282D01*
X140315134Y-49668687D01*
X140171988Y-49848189D01*
X140001681Y-50119231D01*
X139862795Y-50407630D01*
X139757073Y-50709764D01*
X139757070Y-50709772D01*
X139685840Y-51021855D01*
X139685837Y-51021869D01*
X139650000Y-51339940D01*
X139650000Y-51660059D01*
X139685837Y-51978130D01*
X139685840Y-51978144D01*
X139757070Y-52290227D01*
X139757073Y-52290235D01*
X139862795Y-52592369D01*
X140001681Y-52880768D01*
X140171988Y-53151810D01*
X140315134Y-53331311D01*
X141384728Y-52261716D01*
X141470278Y-52379466D01*
X141620534Y-52529722D01*
X141738281Y-52615270D01*
X140668687Y-53684864D01*
X140848189Y-53828011D01*
X141119231Y-53998318D01*
X141407630Y-54137204D01*
X141709764Y-54242926D01*
X141709772Y-54242929D01*
X142021855Y-54314159D01*
X142021869Y-54314162D01*
X142339940Y-54349999D01*
X142339944Y-54350000D01*
X142660056Y-54350000D01*
X142660059Y-54349999D01*
X142978130Y-54314162D01*
X142978144Y-54314159D01*
X143290227Y-54242929D01*
X143290235Y-54242926D01*
X143592369Y-54137204D01*
X143880768Y-53998318D01*
X144151810Y-53828011D01*
X144331311Y-53684863D01*
X143261718Y-52615270D01*
X143379466Y-52529722D01*
X143529722Y-52379466D01*
X143615270Y-52261717D01*
X144684863Y-53331311D01*
X144828011Y-53151810D01*
X144998318Y-52880768D01*
X145137204Y-52592369D01*
X145242926Y-52290235D01*
X145242929Y-52290227D01*
X145314159Y-51978144D01*
X145314162Y-51978130D01*
X145349999Y-51660059D01*
X145350000Y-51660055D01*
X145350000Y-51339944D01*
X145349999Y-51339940D01*
X145314162Y-51021869D01*
X145314159Y-51021855D01*
X145242929Y-50709772D01*
X145242926Y-50709764D01*
X145213724Y-50626308D01*
X145210162Y-50556529D01*
X145244890Y-50495902D01*
X145306884Y-50463674D01*
X145376459Y-50470079D01*
X145418059Y-50497287D01*
X145651853Y-50729031D01*
X145665187Y-50753196D01*
X145681390Y-50775546D01*
X145683618Y-50786599D01*
X145685608Y-50790206D01*
X145688364Y-50810144D01*
X145699305Y-51004955D01*
X145699500Y-51011908D01*
X145699500Y-75319811D01*
X145679815Y-75386850D01*
X145627011Y-75432605D01*
X145557853Y-75442549D01*
X145494297Y-75413524D01*
X145487819Y-75407492D01*
X144767431Y-74687104D01*
X144733946Y-74625781D01*
X144738930Y-74556089D01*
X144740551Y-74551970D01*
X144780130Y-74456420D01*
X144820500Y-74253465D01*
X144820500Y-74046535D01*
X144780130Y-73843580D01*
X144700941Y-73652402D01*
X144585977Y-73480345D01*
X144585975Y-73480342D01*
X144439657Y-73334024D01*
X144353626Y-73276541D01*
X144267598Y-73219059D01*
X144267593Y-73219057D01*
X144205891Y-73193499D01*
X144102890Y-73150834D01*
X144048488Y-73106994D01*
X144026423Y-73040700D01*
X144043702Y-72973001D01*
X144094839Y-72925390D01*
X144112026Y-72918343D01*
X144288217Y-72861095D01*
X144477557Y-72764620D01*
X144649459Y-72639727D01*
X144649464Y-72639723D01*
X144799723Y-72489464D01*
X144799727Y-72489459D01*
X144924620Y-72317557D01*
X145021095Y-72128217D01*
X145086757Y-71926129D01*
X145086757Y-71926126D01*
X145097231Y-71860000D01*
X144203012Y-71860000D01*
X144235925Y-71802993D01*
X144270000Y-71675826D01*
X144270000Y-71544174D01*
X144235925Y-71417007D01*
X144203012Y-71360000D01*
X145097231Y-71360000D01*
X145086757Y-71293873D01*
X145086757Y-71293870D01*
X145021095Y-71091782D01*
X144924620Y-70902442D01*
X144799727Y-70730540D01*
X144799723Y-70730535D01*
X144649464Y-70580276D01*
X144649459Y-70580272D01*
X144477557Y-70455379D01*
X144288216Y-70358904D01*
X144112026Y-70301656D01*
X144054350Y-70262218D01*
X144027152Y-70197860D01*
X144039067Y-70129013D01*
X144086311Y-70077538D01*
X144102882Y-70069168D01*
X144267598Y-70000941D01*
X144439655Y-69885977D01*
X144585977Y-69739655D01*
X144700941Y-69567598D01*
X144780130Y-69376420D01*
X144820500Y-69173465D01*
X144820500Y-68966535D01*
X144780130Y-68763580D01*
X144700941Y-68572402D01*
X144585977Y-68400345D01*
X144585975Y-68400342D01*
X144439657Y-68254024D01*
X144345019Y-68190790D01*
X144267598Y-68139059D01*
X144076420Y-68059870D01*
X144076412Y-68059868D01*
X143873469Y-68019500D01*
X143873465Y-68019500D01*
X143666535Y-68019500D01*
X143666530Y-68019500D01*
X143463587Y-68059868D01*
X143463579Y-68059870D01*
X143272403Y-68139058D01*
X143110379Y-68247318D01*
X143100347Y-68254022D01*
X143095279Y-68257408D01*
X143094056Y-68255578D01*
X143088248Y-68258045D01*
X143076011Y-68268649D01*
X143056753Y-68271417D01*
X143038845Y-68279022D01*
X143022884Y-68276287D01*
X143006853Y-68278593D01*
X142989153Y-68270509D01*
X142969978Y-68267225D01*
X142958029Y-68256295D01*
X142943297Y-68249568D01*
X142932777Y-68233199D01*
X142918422Y-68220069D01*
X142913879Y-68203792D01*
X142905523Y-68190790D01*
X142900500Y-68155855D01*
X142900500Y-67911188D01*
X142920185Y-67844149D01*
X142936815Y-67823511D01*
X143232895Y-67527430D01*
X143294218Y-67493946D01*
X143363910Y-67498930D01*
X143368023Y-67500548D01*
X143463580Y-67540130D01*
X143611229Y-67569499D01*
X143666530Y-67580499D01*
X143666534Y-67580500D01*
X143666535Y-67580500D01*
X143873466Y-67580500D01*
X143873467Y-67580499D01*
X144076420Y-67540130D01*
X144267598Y-67460941D01*
X144439655Y-67345977D01*
X144585977Y-67199655D01*
X144700941Y-67027598D01*
X144780130Y-66836420D01*
X144820500Y-66633465D01*
X144820500Y-66426535D01*
X144780130Y-66223580D01*
X144700941Y-66032402D01*
X144585977Y-65860345D01*
X144585975Y-65860342D01*
X144439657Y-65714024D01*
X144334588Y-65643820D01*
X144267598Y-65599059D01*
X144076420Y-65519870D01*
X144076412Y-65519868D01*
X143873469Y-65479500D01*
X143873465Y-65479500D01*
X143666535Y-65479500D01*
X143666530Y-65479500D01*
X143463587Y-65519868D01*
X143463579Y-65519870D01*
X143272403Y-65599058D01*
X143103390Y-65711988D01*
X143093689Y-65715025D01*
X143086011Y-65721679D01*
X143060913Y-65725287D01*
X143036713Y-65732865D01*
X143026913Y-65730176D01*
X143016853Y-65731623D01*
X142993784Y-65721088D01*
X142969333Y-65714380D01*
X142962542Y-65706820D01*
X142953297Y-65702598D01*
X142939586Y-65681263D01*
X142922643Y-65662401D01*
X142920011Y-65650804D01*
X142915523Y-65643820D01*
X142910500Y-65608885D01*
X142910500Y-65361188D01*
X142930185Y-65294149D01*
X142946815Y-65273511D01*
X143232895Y-64987430D01*
X143294218Y-64953946D01*
X143363910Y-64958930D01*
X143368023Y-64960548D01*
X143463580Y-65000130D01*
X143628855Y-65033005D01*
X143666530Y-65040499D01*
X143666534Y-65040500D01*
X143666535Y-65040500D01*
X143873466Y-65040500D01*
X143873467Y-65040499D01*
X144076420Y-65000130D01*
X144267598Y-64920941D01*
X144439655Y-64805977D01*
X144585977Y-64659655D01*
X144700941Y-64487598D01*
X144780130Y-64296420D01*
X144820500Y-64093465D01*
X144820500Y-63886535D01*
X144780130Y-63683580D01*
X144700941Y-63492402D01*
X144585977Y-63320345D01*
X144585975Y-63320342D01*
X144439657Y-63174024D01*
X144353626Y-63116541D01*
X144267598Y-63059059D01*
X144267593Y-63059057D01*
X144205891Y-63033499D01*
X144102890Y-62990834D01*
X144048488Y-62946994D01*
X144026423Y-62880700D01*
X144043702Y-62813001D01*
X144094839Y-62765390D01*
X144112026Y-62758343D01*
X144288217Y-62701095D01*
X144477557Y-62604620D01*
X144649459Y-62479727D01*
X144649464Y-62479723D01*
X144799723Y-62329464D01*
X144799727Y-62329459D01*
X144924620Y-62157557D01*
X145021095Y-61968217D01*
X145086757Y-61766129D01*
X145086757Y-61766126D01*
X145097231Y-61700000D01*
X144203012Y-61700000D01*
X144235925Y-61642993D01*
X144270000Y-61515826D01*
X144270000Y-61384174D01*
X144235925Y-61257007D01*
X144203012Y-61200000D01*
X145097231Y-61200000D01*
X145086757Y-61133873D01*
X145086757Y-61133870D01*
X145021095Y-60931782D01*
X144924620Y-60742442D01*
X144799727Y-60570540D01*
X144799723Y-60570535D01*
X144649464Y-60420276D01*
X144649459Y-60420272D01*
X144477557Y-60295379D01*
X144288216Y-60198904D01*
X144112026Y-60141656D01*
X144054350Y-60102218D01*
X144027152Y-60037860D01*
X144039067Y-59969013D01*
X144086311Y-59917538D01*
X144102882Y-59909168D01*
X144267598Y-59840941D01*
X144439655Y-59725977D01*
X144585977Y-59579655D01*
X144700941Y-59407598D01*
X144780130Y-59216420D01*
X144820500Y-59013465D01*
X144820500Y-58806535D01*
X144780130Y-58603580D01*
X144700941Y-58412402D01*
X144585977Y-58240345D01*
X144585975Y-58240342D01*
X144439657Y-58094024D01*
X144353626Y-58036541D01*
X144267598Y-57979059D01*
X144076420Y-57899870D01*
X144076412Y-57899868D01*
X143873469Y-57859500D01*
X143873465Y-57859500D01*
X143666535Y-57859500D01*
X143666530Y-57859500D01*
X143463587Y-57899868D01*
X143463579Y-57899870D01*
X143272403Y-57979058D01*
X143100342Y-58094024D01*
X142954024Y-58240342D01*
X142839058Y-58412403D01*
X142759870Y-58603579D01*
X142759868Y-58603587D01*
X142719500Y-58806530D01*
X142719500Y-59013469D01*
X142759868Y-59216412D01*
X142759870Y-59216420D01*
X142839058Y-59407596D01*
X142954024Y-59579657D01*
X143100342Y-59725975D01*
X143272405Y-59840943D01*
X143375043Y-59883456D01*
X143437108Y-59909164D01*
X143491511Y-59953005D01*
X143513576Y-60019299D01*
X143496297Y-60086998D01*
X143445160Y-60134609D01*
X143427974Y-60141656D01*
X143251781Y-60198905D01*
X143062442Y-60295379D01*
X142890540Y-60420272D01*
X142890535Y-60420276D01*
X142740276Y-60570535D01*
X142740272Y-60570540D01*
X142615379Y-60742442D01*
X142518905Y-60931781D01*
X142461656Y-61107974D01*
X142422218Y-61165649D01*
X142357859Y-61192847D01*
X142289013Y-61180932D01*
X142237537Y-61133688D01*
X142229164Y-61117107D01*
X142217994Y-61090141D01*
X142192969Y-61029723D01*
X142160943Y-60952405D01*
X142045975Y-60780342D01*
X141899657Y-60634024D01*
X141804638Y-60570535D01*
X141727598Y-60519059D01*
X141725565Y-60518217D01*
X141536420Y-60439870D01*
X141536412Y-60439868D01*
X141333469Y-60399500D01*
X141333465Y-60399500D01*
X141126535Y-60399500D01*
X141126530Y-60399500D01*
X140923587Y-60439868D01*
X140923579Y-60439870D01*
X140732403Y-60519058D01*
X140560342Y-60634024D01*
X140414024Y-60780342D01*
X140299058Y-60952403D01*
X140219870Y-61143579D01*
X140219868Y-61143587D01*
X140179500Y-61346530D01*
X140179500Y-61553469D01*
X140219868Y-61756412D01*
X140219870Y-61756420D01*
X140285939Y-61915925D01*
X140299059Y-61947598D01*
X140312836Y-61968217D01*
X140414024Y-62119657D01*
X140560342Y-62265975D01*
X140560345Y-62265977D01*
X140732402Y-62380941D01*
X140923580Y-62460130D01*
X141126530Y-62500499D01*
X141126534Y-62500500D01*
X141126535Y-62500500D01*
X141333466Y-62500500D01*
X141333467Y-62500499D01*
X141536420Y-62460130D01*
X141727598Y-62380941D01*
X141899655Y-62265977D01*
X142045977Y-62119655D01*
X142160941Y-61947598D01*
X142229165Y-61782889D01*
X142273004Y-61728488D01*
X142339298Y-61706423D01*
X142406998Y-61723702D01*
X142454609Y-61774839D01*
X142461656Y-61792026D01*
X142518904Y-61968216D01*
X142615379Y-62157557D01*
X142740272Y-62329459D01*
X142740276Y-62329464D01*
X142890535Y-62479723D01*
X142890540Y-62479727D01*
X143062442Y-62604620D01*
X143251782Y-62701095D01*
X143427973Y-62758343D01*
X143485648Y-62797780D01*
X143512847Y-62862139D01*
X143500932Y-62930985D01*
X143453688Y-62982461D01*
X143437108Y-62990835D01*
X143272403Y-63059057D01*
X143100342Y-63174024D01*
X142954024Y-63320342D01*
X142839058Y-63492403D01*
X142759870Y-63683579D01*
X142759868Y-63683587D01*
X142719500Y-63886530D01*
X142719500Y-64093469D01*
X142759868Y-64296412D01*
X142759870Y-64296420D01*
X142799448Y-64391969D01*
X142806917Y-64461438D01*
X142775642Y-64523918D01*
X142772568Y-64527103D01*
X142324537Y-64975135D01*
X142324533Y-64975141D01*
X142281681Y-65049361D01*
X142281682Y-65049362D01*
X142259500Y-65132147D01*
X142259500Y-65365919D01*
X142239815Y-65432958D01*
X142187011Y-65478713D01*
X142117853Y-65488657D01*
X142062615Y-65466238D01*
X141937553Y-65375376D01*
X141748216Y-65278904D01*
X141572026Y-65221656D01*
X141514350Y-65182218D01*
X141487152Y-65117860D01*
X141499067Y-65049013D01*
X141546311Y-64997538D01*
X141562882Y-64989168D01*
X141727598Y-64920941D01*
X141899655Y-64805977D01*
X142045977Y-64659655D01*
X142160941Y-64487598D01*
X142240130Y-64296420D01*
X142280500Y-64093465D01*
X142280500Y-63886535D01*
X142240130Y-63683580D01*
X142160941Y-63492402D01*
X142045977Y-63320345D01*
X142045975Y-63320342D01*
X141899657Y-63174024D01*
X141813626Y-63116541D01*
X141727598Y-63059059D01*
X141727593Y-63059057D01*
X141536420Y-62979870D01*
X141536412Y-62979868D01*
X141333469Y-62939500D01*
X141333465Y-62939500D01*
X141126535Y-62939500D01*
X141126530Y-62939500D01*
X140923587Y-62979868D01*
X140923579Y-62979870D01*
X140732403Y-63059058D01*
X140560342Y-63174024D01*
X140414024Y-63320342D01*
X140299058Y-63492403D01*
X140219870Y-63683579D01*
X140219868Y-63683587D01*
X140179500Y-63886530D01*
X140179500Y-64093469D01*
X140219868Y-64296412D01*
X140219870Y-64296420D01*
X140299058Y-64487596D01*
X140414024Y-64659657D01*
X140560342Y-64805975D01*
X140732405Y-64920943D01*
X140824115Y-64958930D01*
X140897108Y-64989164D01*
X140951511Y-65033005D01*
X140973576Y-65099299D01*
X140956297Y-65166998D01*
X140905160Y-65214609D01*
X140887974Y-65221656D01*
X140711781Y-65278905D01*
X140522442Y-65375379D01*
X140350540Y-65500272D01*
X140350535Y-65500276D01*
X140200276Y-65650535D01*
X140200272Y-65650540D01*
X140075379Y-65822442D01*
X139978904Y-66011782D01*
X139913242Y-66213870D01*
X139913242Y-66213873D01*
X139902769Y-66280000D01*
X140796988Y-66280000D01*
X140764075Y-66337007D01*
X140730000Y-66464174D01*
X140730000Y-66595826D01*
X140764075Y-66722993D01*
X140796988Y-66780000D01*
X139902769Y-66780000D01*
X139913242Y-66846126D01*
X139913242Y-66846129D01*
X139978904Y-67048217D01*
X140075379Y-67237557D01*
X140200272Y-67409459D01*
X140200276Y-67409464D01*
X140290061Y-67499249D01*
X140294398Y-67507192D01*
X140301645Y-67512617D01*
X140310881Y-67537378D01*
X140323546Y-67560572D01*
X140322900Y-67569599D01*
X140326064Y-67578081D01*
X140320447Y-67603904D01*
X140318562Y-67630264D01*
X140312744Y-67639315D01*
X140311214Y-67646354D01*
X140290063Y-67674609D01*
X140269537Y-67695136D01*
X136776492Y-71188181D01*
X136715169Y-71221666D01*
X136688811Y-71224500D01*
X122774830Y-71224500D01*
X122707791Y-71204815D01*
X122687320Y-71185977D01*
X122686267Y-71187031D01*
X122568717Y-71069481D01*
X122568709Y-71069475D01*
X122431790Y-70990426D01*
X122431786Y-70990424D01*
X122431784Y-70990423D01*
X122279057Y-70949500D01*
X122120943Y-70949500D01*
X121968216Y-70990423D01*
X121968209Y-70990426D01*
X121831290Y-71069475D01*
X121831282Y-71069481D01*
X121719481Y-71181282D01*
X121719475Y-71181290D01*
X121640426Y-71318209D01*
X121640423Y-71318216D01*
X121599500Y-71470943D01*
X121599500Y-71629057D01*
X121628156Y-71736000D01*
X121640423Y-71781783D01*
X121640426Y-71781790D01*
X121719475Y-71918709D01*
X121719479Y-71918714D01*
X121719480Y-71918716D01*
X121831284Y-72030520D01*
X121831286Y-72030521D01*
X121831290Y-72030524D01*
X121909928Y-72075925D01*
X121968216Y-72109577D01*
X122120943Y-72150500D01*
X122120945Y-72150500D01*
X122279055Y-72150500D01*
X122279057Y-72150500D01*
X122431784Y-72109577D01*
X122488901Y-72076600D01*
X122556796Y-72060129D01*
X122622823Y-72082981D01*
X122666014Y-72137902D01*
X122672656Y-72207455D01*
X122670672Y-72216081D01*
X122649500Y-72295097D01*
X122649500Y-72295099D01*
X122649500Y-72453213D01*
X122688966Y-72600500D01*
X122690423Y-72605939D01*
X122690426Y-72605946D01*
X122769475Y-72742865D01*
X122769479Y-72742870D01*
X122769480Y-72742872D01*
X122881284Y-72854676D01*
X122881286Y-72854677D01*
X122881290Y-72854680D01*
X123018209Y-72933729D01*
X123018216Y-72933733D01*
X123170943Y-72974656D01*
X123170945Y-72974656D01*
X123329055Y-72974656D01*
X123329057Y-72974656D01*
X123481784Y-72933733D01*
X123573500Y-72880780D01*
X123641400Y-72864308D01*
X123707427Y-72887161D01*
X123750618Y-72942082D01*
X123759500Y-72988168D01*
X123759500Y-73089057D01*
X123797405Y-73230518D01*
X123800423Y-73241783D01*
X123800426Y-73241790D01*
X123879475Y-73378709D01*
X123879479Y-73378714D01*
X123879480Y-73378716D01*
X123991284Y-73490520D01*
X123991286Y-73490521D01*
X123991290Y-73490524D01*
X124128209Y-73569573D01*
X124128216Y-73569577D01*
X124280943Y-73610500D01*
X124280945Y-73610500D01*
X124447185Y-73610500D01*
X124447185Y-73613683D01*
X124501398Y-73622102D01*
X124536302Y-73646629D01*
X125264533Y-74374859D01*
X125264535Y-74374862D01*
X125325138Y-74435465D01*
X125355510Y-74453000D01*
X125399361Y-74478318D01*
X125482147Y-74500500D01*
X125567853Y-74500500D01*
X126224314Y-74500500D01*
X126291353Y-74520185D01*
X126337108Y-74572989D01*
X126347052Y-74642147D01*
X126342087Y-74660247D01*
X126342527Y-74660365D01*
X126340423Y-74668214D01*
X126340423Y-74668216D01*
X126299500Y-74820943D01*
X126299500Y-74979057D01*
X126329103Y-75089535D01*
X126340423Y-75131783D01*
X126340426Y-75131790D01*
X126419475Y-75268709D01*
X126419479Y-75268714D01*
X126419480Y-75268716D01*
X126531284Y-75380520D01*
X126531286Y-75380521D01*
X126531290Y-75380524D01*
X126638722Y-75442549D01*
X126668216Y-75459577D01*
X126820943Y-75500500D01*
X126820945Y-75500500D01*
X126987185Y-75500500D01*
X126987185Y-75503683D01*
X127041398Y-75512102D01*
X127076302Y-75536629D01*
X127150138Y-75610465D01*
X127224361Y-75653318D01*
X127307147Y-75675500D01*
X133488811Y-75675500D01*
X133555850Y-75695185D01*
X133576492Y-75711819D01*
X139693181Y-81828507D01*
X139726666Y-81889830D01*
X139729500Y-81916188D01*
X139729500Y-83197852D01*
X139751682Y-83280640D01*
X139773108Y-83317750D01*
X139794535Y-83354862D01*
X139794537Y-83354864D01*
X140226710Y-83787037D01*
X140260195Y-83848360D01*
X140255211Y-83918052D01*
X140253591Y-83922169D01*
X140219871Y-84003579D01*
X140219869Y-84003583D01*
X140219867Y-84003587D01*
X140179500Y-84206530D01*
X140179500Y-84413469D01*
X140219868Y-84616412D01*
X140219870Y-84616420D01*
X140299058Y-84807596D01*
X140414024Y-84979657D01*
X140560342Y-85125975D01*
X140732405Y-85240943D01*
X140835043Y-85283456D01*
X140897108Y-85309164D01*
X140951511Y-85353005D01*
X140973576Y-85419299D01*
X140956297Y-85486998D01*
X140905160Y-85534609D01*
X140887974Y-85541656D01*
X140711781Y-85598905D01*
X140522446Y-85695376D01*
X140358942Y-85814168D01*
X140293135Y-85837647D01*
X140225081Y-85821821D01*
X140176387Y-85771715D01*
X140162512Y-85703237D01*
X140166279Y-85681771D01*
X140200500Y-85554057D01*
X140200500Y-85395943D01*
X140159577Y-85243216D01*
X140125551Y-85184280D01*
X140080524Y-85106290D01*
X140080518Y-85106282D01*
X139968717Y-84994481D01*
X139968709Y-84994475D01*
X139831790Y-84915426D01*
X139831786Y-84915424D01*
X139831784Y-84915423D01*
X139679057Y-84874500D01*
X139520943Y-84874500D01*
X139512816Y-84874500D01*
X139512816Y-84871334D01*
X139458493Y-84862846D01*
X139423696Y-84838370D01*
X138397729Y-83812403D01*
X137324862Y-82739535D01*
X137287750Y-82718108D01*
X137250640Y-82696682D01*
X137209246Y-82685591D01*
X137167853Y-82674500D01*
X137167852Y-82674500D01*
X136175330Y-82674500D01*
X136108291Y-82654815D01*
X136087820Y-82635977D01*
X136086767Y-82637031D01*
X135969217Y-82519481D01*
X135969209Y-82519475D01*
X135832290Y-82440426D01*
X135832286Y-82440424D01*
X135832284Y-82440423D01*
X135679557Y-82399500D01*
X135521443Y-82399500D01*
X135368716Y-82440423D01*
X135368709Y-82440426D01*
X135231790Y-82519475D01*
X135231782Y-82519481D01*
X135119981Y-82631282D01*
X135119975Y-82631290D01*
X135040926Y-82768209D01*
X135040923Y-82768216D01*
X135000000Y-82920943D01*
X135000000Y-83079057D01*
X135031832Y-83197853D01*
X135040923Y-83231783D01*
X135040926Y-83231790D01*
X135119975Y-83368709D01*
X135119979Y-83368714D01*
X135119980Y-83368716D01*
X135231784Y-83480520D01*
X135231786Y-83480521D01*
X135231790Y-83480524D01*
X135368709Y-83559573D01*
X135368716Y-83559577D01*
X135521443Y-83600500D01*
X135521445Y-83600500D01*
X135679555Y-83600500D01*
X135679557Y-83600500D01*
X135832284Y-83559577D01*
X135969216Y-83480520D01*
X136081020Y-83368716D01*
X136081020Y-83368715D01*
X136086767Y-83362969D01*
X136089012Y-83365214D01*
X136133355Y-83332821D01*
X136175330Y-83325500D01*
X136938811Y-83325500D01*
X137005850Y-83345185D01*
X137026492Y-83361819D01*
X137997813Y-84333140D01*
X138963370Y-85298696D01*
X138996855Y-85360019D01*
X138998018Y-85387816D01*
X138999500Y-85387816D01*
X138999500Y-85395943D01*
X138999500Y-85554057D01*
X139037367Y-85695376D01*
X139040423Y-85706783D01*
X139040426Y-85706790D01*
X139119475Y-85843709D01*
X139119479Y-85843714D01*
X139119480Y-85843716D01*
X139231284Y-85955520D01*
X139231286Y-85955521D01*
X139231290Y-85955524D01*
X139352158Y-86025306D01*
X139368216Y-86034577D01*
X139520943Y-86075500D01*
X139520945Y-86075500D01*
X139679055Y-86075500D01*
X139679057Y-86075500D01*
X139831784Y-86034577D01*
X139892240Y-85999673D01*
X139960137Y-85983201D01*
X140026164Y-86006053D01*
X140069354Y-86060974D01*
X140075996Y-86130528D01*
X140064722Y-86163356D01*
X139978904Y-86331782D01*
X139913242Y-86533870D01*
X139913242Y-86533873D01*
X139902769Y-86600000D01*
X140796988Y-86600000D01*
X140764075Y-86657007D01*
X140730000Y-86784174D01*
X140730000Y-86915826D01*
X140764075Y-87042993D01*
X140796988Y-87100000D01*
X139902769Y-87100000D01*
X139913242Y-87166126D01*
X139913242Y-87166129D01*
X139978904Y-87368217D01*
X140075379Y-87557557D01*
X140200272Y-87729459D01*
X140200276Y-87729464D01*
X140350535Y-87879723D01*
X140350540Y-87879727D01*
X140522442Y-88004620D01*
X140711782Y-88101095D01*
X140887973Y-88158343D01*
X140945648Y-88197780D01*
X140972847Y-88262139D01*
X140960932Y-88330985D01*
X140913688Y-88382461D01*
X140897108Y-88390835D01*
X140732403Y-88459057D01*
X140560342Y-88574024D01*
X140414024Y-88720342D01*
X140299058Y-88892403D01*
X140219870Y-89083579D01*
X140219868Y-89083587D01*
X140179500Y-89286530D01*
X140179500Y-89493469D01*
X140219868Y-89696412D01*
X140219870Y-89696420D01*
X140299059Y-89887598D01*
X140369936Y-89993674D01*
X140416485Y-90063340D01*
X140437362Y-90130017D01*
X140418877Y-90197397D01*
X140366898Y-90244087D01*
X140345477Y-90252004D01*
X140309362Y-90261681D01*
X140309361Y-90261681D01*
X140235138Y-90304535D01*
X140235135Y-90304537D01*
X138689537Y-91850135D01*
X138689533Y-91850141D01*
X138646681Y-91924361D01*
X138646682Y-91924362D01*
X138624500Y-92007147D01*
X138624500Y-96538811D01*
X138604815Y-96605850D01*
X138588181Y-96626492D01*
X137776492Y-97438181D01*
X137715169Y-97471666D01*
X137688811Y-97474500D01*
X127425465Y-97474500D01*
X127425449Y-97474499D01*
X127417853Y-97474499D01*
X127332148Y-97474499D01*
X127290755Y-97485590D01*
X127249360Y-97496682D01*
X127249355Y-97496685D01*
X127175144Y-97539530D01*
X127175136Y-97539536D01*
X127114533Y-97600140D01*
X126476301Y-98238370D01*
X126414978Y-98271855D01*
X126387184Y-98273014D01*
X126387184Y-98274500D01*
X126220943Y-98274500D01*
X126068216Y-98315423D01*
X126068209Y-98315426D01*
X125931290Y-98394475D01*
X125931282Y-98394481D01*
X125819481Y-98506282D01*
X125819475Y-98506290D01*
X125740426Y-98643209D01*
X125740423Y-98643216D01*
X125699500Y-98795943D01*
X125699500Y-98954057D01*
X125725852Y-99052402D01*
X125740423Y-99106783D01*
X125740426Y-99106790D01*
X125819475Y-99243709D01*
X125819481Y-99243717D01*
X125863583Y-99287819D01*
X125897068Y-99349142D01*
X125892084Y-99418834D01*
X125850212Y-99474767D01*
X125784748Y-99499184D01*
X125775902Y-99499500D01*
X125436189Y-99499500D01*
X125369150Y-99479815D01*
X125348508Y-99463181D01*
X124936629Y-99051302D01*
X124903144Y-98989979D01*
X124901994Y-98962185D01*
X124900500Y-98962185D01*
X124900500Y-98795945D01*
X124900500Y-98795943D01*
X124859577Y-98643216D01*
X124845629Y-98619057D01*
X124780524Y-98506290D01*
X124780518Y-98506282D01*
X124668717Y-98394481D01*
X124668709Y-98394475D01*
X124531790Y-98315426D01*
X124531786Y-98315424D01*
X124531784Y-98315423D01*
X124379057Y-98274500D01*
X124220943Y-98274500D01*
X124068216Y-98315423D01*
X124068209Y-98315426D01*
X123931290Y-98394475D01*
X123931282Y-98394481D01*
X123819481Y-98506282D01*
X123819475Y-98506290D01*
X123740426Y-98643209D01*
X123740423Y-98643216D01*
X123699500Y-98795943D01*
X123699500Y-98954057D01*
X123725852Y-99052402D01*
X123740423Y-99106783D01*
X123740426Y-99106790D01*
X123819475Y-99243709D01*
X123819479Y-99243714D01*
X123819480Y-99243716D01*
X123931284Y-99355520D01*
X123931286Y-99355521D01*
X123931290Y-99355524D01*
X124015992Y-99404426D01*
X124068216Y-99434577D01*
X124220943Y-99475500D01*
X124220945Y-99475500D01*
X124387185Y-99475500D01*
X124387185Y-99478683D01*
X124441398Y-99487102D01*
X124476302Y-99511629D01*
X125050138Y-100085465D01*
X125124361Y-100128318D01*
X125207147Y-100150500D01*
X125207149Y-100150500D01*
X126792851Y-100150500D01*
X126792853Y-100150500D01*
X126875639Y-100128318D01*
X126949862Y-100085465D01*
X127588796Y-99446530D01*
X140179500Y-99446530D01*
X140179500Y-99653469D01*
X140219868Y-99856412D01*
X140219870Y-99856420D01*
X140299058Y-100047596D01*
X140414024Y-100219657D01*
X140560342Y-100365975D01*
X140560345Y-100365977D01*
X140732402Y-100480941D01*
X140923580Y-100560130D01*
X141107260Y-100596666D01*
X141126530Y-100600499D01*
X141126534Y-100600500D01*
X141126535Y-100600500D01*
X141333466Y-100600500D01*
X141333467Y-100600499D01*
X141536420Y-100560130D01*
X141727598Y-100480941D01*
X141899655Y-100365977D01*
X142045977Y-100219655D01*
X142160941Y-100047598D01*
X142240130Y-99856420D01*
X142280500Y-99653465D01*
X142280500Y-99446535D01*
X142240130Y-99243580D01*
X142160941Y-99052402D01*
X142045977Y-98880345D01*
X142045975Y-98880342D01*
X141899657Y-98734024D01*
X141813626Y-98676541D01*
X141727598Y-98619059D01*
X141727593Y-98619057D01*
X141536420Y-98539870D01*
X141536412Y-98539868D01*
X141333469Y-98499500D01*
X141333465Y-98499500D01*
X141126535Y-98499500D01*
X141126530Y-98499500D01*
X140923587Y-98539868D01*
X140923579Y-98539870D01*
X140732403Y-98619058D01*
X140560342Y-98734024D01*
X140414024Y-98880342D01*
X140299058Y-99052403D01*
X140219870Y-99243579D01*
X140219868Y-99243587D01*
X140179500Y-99446530D01*
X127588796Y-99446530D01*
X128073507Y-98961818D01*
X128134830Y-98928334D01*
X128161188Y-98925500D01*
X138021150Y-98925500D01*
X138021152Y-98925500D01*
X138103938Y-98903318D01*
X138178161Y-98860465D01*
X139973264Y-97065360D01*
X140034585Y-97031877D01*
X140104276Y-97036861D01*
X140160210Y-97078733D01*
X140182560Y-97128852D01*
X140219868Y-97316412D01*
X140219870Y-97316420D01*
X140294538Y-97496685D01*
X140299059Y-97507598D01*
X140320399Y-97539536D01*
X140414024Y-97679657D01*
X140560342Y-97825975D01*
X140560345Y-97825977D01*
X140732402Y-97940941D01*
X140923580Y-98020130D01*
X141126530Y-98060499D01*
X141126534Y-98060500D01*
X141126535Y-98060500D01*
X141333466Y-98060500D01*
X141333467Y-98060499D01*
X141536420Y-98020130D01*
X141727598Y-97940941D01*
X141899655Y-97825977D01*
X142045977Y-97679655D01*
X142160941Y-97507598D01*
X142229165Y-97342889D01*
X142273004Y-97288488D01*
X142339298Y-97266423D01*
X142406998Y-97283702D01*
X142454609Y-97334839D01*
X142461656Y-97352026D01*
X142518904Y-97528216D01*
X142615379Y-97717557D01*
X142740272Y-97889459D01*
X142740276Y-97889464D01*
X142890535Y-98039723D01*
X142890540Y-98039727D01*
X143062442Y-98164620D01*
X143251782Y-98261095D01*
X143427973Y-98318343D01*
X143485648Y-98357780D01*
X143512847Y-98422139D01*
X143500932Y-98490985D01*
X143453688Y-98542461D01*
X143437108Y-98550835D01*
X143272403Y-98619057D01*
X143100342Y-98734024D01*
X142954024Y-98880342D01*
X142839058Y-99052403D01*
X142759870Y-99243579D01*
X142759868Y-99243587D01*
X142719500Y-99446530D01*
X142719500Y-99653469D01*
X142759868Y-99856412D01*
X142759870Y-99856420D01*
X142839058Y-100047596D01*
X142954024Y-100219657D01*
X143100342Y-100365975D01*
X143100345Y-100365977D01*
X143272402Y-100480941D01*
X143463580Y-100560130D01*
X143647260Y-100596666D01*
X143666530Y-100600499D01*
X143666534Y-100600500D01*
X143666535Y-100600500D01*
X143873466Y-100600500D01*
X143873467Y-100600499D01*
X144076420Y-100560130D01*
X144267598Y-100480941D01*
X144439655Y-100365977D01*
X144585977Y-100219655D01*
X144700941Y-100047598D01*
X144780130Y-99856420D01*
X144820500Y-99653465D01*
X144820500Y-99446535D01*
X144780130Y-99243580D01*
X144700941Y-99052402D01*
X144585977Y-98880345D01*
X144585975Y-98880342D01*
X144439657Y-98734024D01*
X144353626Y-98676541D01*
X144267598Y-98619059D01*
X144267593Y-98619057D01*
X144205891Y-98593499D01*
X144102890Y-98550834D01*
X144048488Y-98506994D01*
X144026423Y-98440700D01*
X144043702Y-98373001D01*
X144094839Y-98325390D01*
X144112026Y-98318343D01*
X144288217Y-98261095D01*
X144477557Y-98164620D01*
X144649459Y-98039727D01*
X144649464Y-98039723D01*
X144799723Y-97889464D01*
X144799727Y-97889459D01*
X144924620Y-97717557D01*
X145021095Y-97528217D01*
X145086757Y-97326129D01*
X145086757Y-97326126D01*
X145097231Y-97260000D01*
X144203012Y-97260000D01*
X144235925Y-97202993D01*
X144270000Y-97075826D01*
X144270000Y-96944174D01*
X144235925Y-96817007D01*
X144203012Y-96760000D01*
X145097231Y-96760000D01*
X145086757Y-96693873D01*
X145086757Y-96693870D01*
X145021095Y-96491782D01*
X144924620Y-96302442D01*
X144799727Y-96130540D01*
X144799723Y-96130535D01*
X144649466Y-95980278D01*
X144611864Y-95952959D01*
X144569198Y-95897629D01*
X144563219Y-95828016D01*
X144595824Y-95766220D01*
X144596994Y-95765033D01*
X145487821Y-94874206D01*
X145549142Y-94840723D01*
X145618834Y-94845707D01*
X145674767Y-94887579D01*
X145699184Y-94953043D01*
X145699500Y-94961889D01*
X145699500Y-109988090D01*
X145699305Y-109995042D01*
X145699305Y-109995044D01*
X145697160Y-110033235D01*
X145673747Y-110099065D01*
X145661036Y-110113962D01*
X145475753Y-110299245D01*
X145414430Y-110332730D01*
X145344738Y-110327746D01*
X145288805Y-110285874D01*
X145264388Y-110220410D01*
X145267181Y-110183971D01*
X145314159Y-109978144D01*
X145314162Y-109978130D01*
X145349999Y-109660059D01*
X145350000Y-109660055D01*
X145350000Y-109339944D01*
X145349999Y-109339940D01*
X145314162Y-109021869D01*
X145314159Y-109021855D01*
X145242929Y-108709772D01*
X145242926Y-108709764D01*
X145137204Y-108407630D01*
X144998318Y-108119231D01*
X144828011Y-107848189D01*
X144684863Y-107668687D01*
X143615270Y-108738281D01*
X143529722Y-108620534D01*
X143379466Y-108470278D01*
X143261716Y-108384728D01*
X144331311Y-107315134D01*
X144151810Y-107171988D01*
X143880768Y-107001681D01*
X143592369Y-106862795D01*
X143290235Y-106757073D01*
X143290227Y-106757070D01*
X142978144Y-106685840D01*
X142978130Y-106685837D01*
X142660059Y-106650000D01*
X142339940Y-106650000D01*
X142021869Y-106685837D01*
X142021855Y-106685840D01*
X141709772Y-106757070D01*
X141709764Y-106757073D01*
X141407630Y-106862795D01*
X141119231Y-107001681D01*
X140848189Y-107171988D01*
X140668687Y-107315134D01*
X141738282Y-108384729D01*
X141620534Y-108470278D01*
X141470278Y-108620534D01*
X141384729Y-108738282D01*
X140315134Y-107668687D01*
X140171988Y-107848189D01*
X140001681Y-108119231D01*
X139862795Y-108407630D01*
X139757073Y-108709764D01*
X139757070Y-108709772D01*
X139685840Y-109021855D01*
X139685837Y-109021869D01*
X139650000Y-109339940D01*
X139650000Y-109660059D01*
X139685837Y-109978130D01*
X139685840Y-109978144D01*
X139757070Y-110290227D01*
X139757073Y-110290235D01*
X139862795Y-110592369D01*
X140001681Y-110880768D01*
X140171988Y-111151810D01*
X140315134Y-111331311D01*
X141384728Y-110261716D01*
X141470278Y-110379466D01*
X141620534Y-110529722D01*
X141738281Y-110615270D01*
X140668687Y-111684863D01*
X140668687Y-111684864D01*
X140848189Y-111828011D01*
X141119231Y-111998318D01*
X141407630Y-112137204D01*
X141709764Y-112242926D01*
X141709772Y-112242929D01*
X142021855Y-112314159D01*
X142021869Y-112314162D01*
X142339940Y-112349999D01*
X142339944Y-112350000D01*
X142660056Y-112350000D01*
X142660059Y-112349999D01*
X142978130Y-112314162D01*
X142978144Y-112314159D01*
X143183971Y-112267181D01*
X143253710Y-112271454D01*
X143310068Y-112312753D01*
X143335151Y-112377965D01*
X143320997Y-112446386D01*
X143299245Y-112475753D01*
X143113962Y-112661036D01*
X143089970Y-112674136D01*
X143067833Y-112690186D01*
X143056332Y-112692504D01*
X143052639Y-112694521D01*
X143033235Y-112697160D01*
X143000613Y-112698992D01*
X142995042Y-112699305D01*
X142988090Y-112699500D01*
X136796283Y-112699500D01*
X136729244Y-112679815D01*
X136683489Y-112627011D01*
X136673545Y-112557853D01*
X136702570Y-112494297D01*
X136757965Y-112457569D01*
X136993781Y-112380948D01*
X136993784Y-112380947D01*
X137221685Y-112264825D01*
X137328595Y-112187148D01*
X137328596Y-112187148D01*
X136770562Y-111629114D01*
X136772626Y-111628260D01*
X136911844Y-111535238D01*
X137030238Y-111416844D01*
X137123260Y-111277626D01*
X137124114Y-111275562D01*
X137682148Y-111833596D01*
X137682148Y-111833595D01*
X137759825Y-111726685D01*
X137875947Y-111498784D01*
X137875948Y-111498781D01*
X137954986Y-111255523D01*
X137995000Y-111002889D01*
X137995000Y-110747110D01*
X137954986Y-110494476D01*
X137875948Y-110251218D01*
X137875947Y-110251215D01*
X137759824Y-110023313D01*
X137682148Y-109916403D01*
X137682148Y-109916402D01*
X137124114Y-110474436D01*
X137123260Y-110472374D01*
X137030238Y-110333156D01*
X136911844Y-110214762D01*
X136772626Y-110121740D01*
X136770560Y-110120884D01*
X137328596Y-109562850D01*
X137221686Y-109485175D01*
X137146671Y-109446953D01*
X136993784Y-109369052D01*
X136993781Y-109369051D01*
X136750523Y-109290013D01*
X136497889Y-109250000D01*
X136242111Y-109250000D01*
X135989476Y-109290013D01*
X135746218Y-109369051D01*
X135746215Y-109369052D01*
X135518310Y-109485177D01*
X135411403Y-109562849D01*
X135411402Y-109562850D01*
X135969437Y-110120885D01*
X135967374Y-110121740D01*
X135828156Y-110214762D01*
X135709762Y-110333156D01*
X135616740Y-110472374D01*
X135615885Y-110474437D01*
X135057850Y-109916402D01*
X135057849Y-109916403D01*
X134980177Y-110023310D01*
X134864052Y-110251215D01*
X134864051Y-110251218D01*
X134785013Y-110494476D01*
X134745000Y-110747110D01*
X134745000Y-111002889D01*
X134785013Y-111255523D01*
X134864051Y-111498781D01*
X134864052Y-111498784D01*
X134980175Y-111726686D01*
X135057850Y-111833595D01*
X135057850Y-111833596D01*
X135615884Y-111275561D01*
X135616740Y-111277626D01*
X135709762Y-111416844D01*
X135828156Y-111535238D01*
X135967374Y-111628260D01*
X135969437Y-111629114D01*
X135411402Y-112187148D01*
X135518313Y-112264824D01*
X135746215Y-112380947D01*
X135746218Y-112380948D01*
X135982035Y-112457569D01*
X136039710Y-112497006D01*
X136066909Y-112561365D01*
X136054995Y-112630211D01*
X136007751Y-112681687D01*
X135943717Y-112699500D01*
X131716283Y-112699500D01*
X131649244Y-112679815D01*
X131603489Y-112627011D01*
X131593545Y-112557853D01*
X131622570Y-112494297D01*
X131677965Y-112457569D01*
X131913781Y-112380948D01*
X131913784Y-112380947D01*
X132141685Y-112264825D01*
X132248595Y-112187148D01*
X132248596Y-112187148D01*
X131690562Y-111629114D01*
X131692626Y-111628260D01*
X131831844Y-111535238D01*
X131950238Y-111416844D01*
X132043260Y-111277626D01*
X132044114Y-111275562D01*
X132602148Y-111833596D01*
X132602148Y-111833595D01*
X132679825Y-111726685D01*
X132795947Y-111498784D01*
X132795948Y-111498781D01*
X132874986Y-111255523D01*
X132915000Y-111002889D01*
X132915000Y-110747110D01*
X132874986Y-110494476D01*
X132795948Y-110251218D01*
X132795947Y-110251215D01*
X132679824Y-110023313D01*
X132602148Y-109916403D01*
X132602148Y-109916402D01*
X132044114Y-110474436D01*
X132043260Y-110472374D01*
X131950238Y-110333156D01*
X131831844Y-110214762D01*
X131692626Y-110121740D01*
X131690560Y-110120884D01*
X132248596Y-109562850D01*
X132141686Y-109485175D01*
X131913784Y-109369052D01*
X131913781Y-109369051D01*
X131670523Y-109290013D01*
X131417889Y-109250000D01*
X131162111Y-109250000D01*
X130909476Y-109290013D01*
X130666218Y-109369051D01*
X130666215Y-109369052D01*
X130438310Y-109485177D01*
X130331403Y-109562849D01*
X130331402Y-109562850D01*
X130889437Y-110120885D01*
X130887374Y-110121740D01*
X130748156Y-110214762D01*
X130629762Y-110333156D01*
X130536740Y-110472374D01*
X130535885Y-110474437D01*
X129977850Y-109916402D01*
X129977849Y-109916403D01*
X129900177Y-110023310D01*
X129784052Y-110251215D01*
X129784051Y-110251218D01*
X129705013Y-110494476D01*
X129665000Y-110747110D01*
X129665000Y-111002889D01*
X129705013Y-111255523D01*
X129784051Y-111498781D01*
X129784052Y-111498784D01*
X129900175Y-111726686D01*
X129977850Y-111833595D01*
X129977850Y-111833596D01*
X130535884Y-111275561D01*
X130536740Y-111277626D01*
X130629762Y-111416844D01*
X130748156Y-111535238D01*
X130887374Y-111628260D01*
X130889437Y-111629114D01*
X130331402Y-112187148D01*
X130438313Y-112264824D01*
X130666215Y-112380947D01*
X130666218Y-112380948D01*
X130902035Y-112457569D01*
X130959710Y-112497006D01*
X130986909Y-112561365D01*
X130974995Y-112630211D01*
X130927751Y-112681687D01*
X130863717Y-112699500D01*
X93011910Y-112699500D01*
X93004957Y-112699305D01*
X93000815Y-112699072D01*
X92865336Y-112691463D01*
X92799506Y-112668050D01*
X92788681Y-112659230D01*
X92567814Y-112457569D01*
X92546302Y-112437928D01*
X92510068Y-112378190D01*
X92511882Y-112308344D01*
X92551171Y-112250567D01*
X92615459Y-112223202D01*
X92670867Y-112229315D01*
X92709776Y-112242930D01*
X93021855Y-112314159D01*
X93021869Y-112314162D01*
X93339940Y-112349999D01*
X93339944Y-112350000D01*
X93660056Y-112350000D01*
X93660059Y-112349999D01*
X93978130Y-112314162D01*
X93978144Y-112314159D01*
X94290227Y-112242929D01*
X94290235Y-112242926D01*
X94592369Y-112137204D01*
X94880768Y-111998318D01*
X95151810Y-111828011D01*
X95331311Y-111684863D01*
X95317391Y-111670943D01*
X122649500Y-111670943D01*
X122649500Y-111829056D01*
X122690423Y-111981783D01*
X122690426Y-111981790D01*
X122769475Y-112118709D01*
X122769479Y-112118714D01*
X122769480Y-112118716D01*
X122881284Y-112230520D01*
X122881286Y-112230521D01*
X122881290Y-112230524D01*
X122944783Y-112267181D01*
X123018216Y-112309577D01*
X123170943Y-112350500D01*
X123170945Y-112350500D01*
X123329055Y-112350500D01*
X123329057Y-112350500D01*
X123481784Y-112309577D01*
X123618716Y-112230520D01*
X123730520Y-112118716D01*
X123809577Y-111981784D01*
X123850500Y-111829057D01*
X123850500Y-111670943D01*
X123809577Y-111518216D01*
X123772039Y-111453198D01*
X123730524Y-111381290D01*
X123730518Y-111381282D01*
X123618717Y-111269481D01*
X123618709Y-111269475D01*
X123481790Y-111190426D01*
X123481786Y-111190424D01*
X123481784Y-111190423D01*
X123329057Y-111149500D01*
X123170943Y-111149500D01*
X123018216Y-111190423D01*
X123018209Y-111190426D01*
X122881290Y-111269475D01*
X122881282Y-111269481D01*
X122769481Y-111381282D01*
X122769475Y-111381290D01*
X122690426Y-111518209D01*
X122690423Y-111518216D01*
X122649500Y-111670943D01*
X95317391Y-111670943D01*
X94261717Y-110615270D01*
X94379466Y-110529722D01*
X94529722Y-110379466D01*
X94615270Y-110261718D01*
X95684863Y-111331311D01*
X95828011Y-111151810D01*
X95998318Y-110880768D01*
X96090941Y-110688436D01*
X96137204Y-110592369D01*
X96242926Y-110290235D01*
X96242929Y-110290227D01*
X96314159Y-109978144D01*
X96314162Y-109978130D01*
X96349999Y-109660059D01*
X96350000Y-109660055D01*
X96350000Y-109339944D01*
X96349999Y-109339940D01*
X96314162Y-109021869D01*
X96314159Y-109021855D01*
X96242929Y-108709772D01*
X96242926Y-108709764D01*
X96137204Y-108407630D01*
X96067670Y-108263241D01*
X96044106Y-108214311D01*
X132296500Y-108214311D01*
X132296500Y-108455688D01*
X132334260Y-108694096D01*
X132334260Y-108694099D01*
X132408848Y-108923657D01*
X132458883Y-109021855D01*
X132518433Y-109138729D01*
X132660312Y-109334008D01*
X132830992Y-109504688D01*
X133026271Y-109646567D01*
X133052751Y-109660059D01*
X133241342Y-109756151D01*
X133470901Y-109830739D01*
X133470902Y-109830739D01*
X133470905Y-109830740D01*
X133709311Y-109868500D01*
X133709312Y-109868500D01*
X133950688Y-109868500D01*
X133950689Y-109868500D01*
X134189095Y-109830740D01*
X134189098Y-109830739D01*
X134189099Y-109830739D01*
X134418657Y-109756151D01*
X134418657Y-109756150D01*
X134418660Y-109756150D01*
X134633729Y-109646567D01*
X134829008Y-109504688D01*
X134999688Y-109334008D01*
X135141567Y-109138729D01*
X135251150Y-108923660D01*
X135293784Y-108792446D01*
X135325739Y-108694099D01*
X135325739Y-108694098D01*
X135325740Y-108694095D01*
X135363500Y-108455689D01*
X135363500Y-108214311D01*
X135325740Y-107975905D01*
X135325739Y-107975901D01*
X135325739Y-107975900D01*
X135251151Y-107746342D01*
X135141566Y-107531270D01*
X134999688Y-107335992D01*
X134829008Y-107165312D01*
X134633729Y-107023433D01*
X134591038Y-107001681D01*
X134418657Y-106913848D01*
X134189098Y-106839260D01*
X134010290Y-106810940D01*
X133950689Y-106801500D01*
X133709311Y-106801500D01*
X133629842Y-106814086D01*
X133470903Y-106839260D01*
X133470900Y-106839260D01*
X133241342Y-106913848D01*
X133026270Y-107023433D01*
X132914856Y-107104380D01*
X132830992Y-107165312D01*
X132830990Y-107165314D01*
X132830989Y-107165314D01*
X132660314Y-107335989D01*
X132660314Y-107335990D01*
X132660312Y-107335992D01*
X132599380Y-107419856D01*
X132518433Y-107531270D01*
X132408848Y-107746342D01*
X132334260Y-107975900D01*
X132334260Y-107975903D01*
X132296500Y-108214311D01*
X96044106Y-108214311D01*
X95998318Y-108119231D01*
X95828011Y-107848189D01*
X95684864Y-107668687D01*
X94615270Y-108738281D01*
X94529722Y-108620534D01*
X94379466Y-108470278D01*
X94261716Y-108384728D01*
X95331311Y-107315134D01*
X95151810Y-107171988D01*
X95140503Y-107164883D01*
X94880768Y-107001681D01*
X94592369Y-106862795D01*
X94290235Y-106757073D01*
X94290227Y-106757070D01*
X93978144Y-106685840D01*
X93978130Y-106685837D01*
X93660059Y-106650000D01*
X93339940Y-106650000D01*
X93021869Y-106685837D01*
X93021855Y-106685840D01*
X92709772Y-106757070D01*
X92709764Y-106757073D01*
X92407630Y-106862795D01*
X92119231Y-107001681D01*
X91848189Y-107171988D01*
X91668687Y-107315134D01*
X92738282Y-108384729D01*
X92620534Y-108470278D01*
X92470278Y-108620534D01*
X92384728Y-108738282D01*
X91315134Y-107668687D01*
X91171988Y-107848189D01*
X91001681Y-108119231D01*
X90862795Y-108407630D01*
X90757073Y-108709764D01*
X90757070Y-108709772D01*
X90685840Y-109021855D01*
X90685837Y-109021869D01*
X90650000Y-109339940D01*
X90650000Y-109660059D01*
X90685837Y-109978130D01*
X90685840Y-109978144D01*
X90757070Y-110290227D01*
X90757073Y-110290235D01*
X90859049Y-110581663D01*
X90862611Y-110651442D01*
X90827883Y-110712069D01*
X90765889Y-110744297D01*
X90696314Y-110737892D01*
X90658399Y-110714190D01*
X90369779Y-110450667D01*
X90357675Y-110430711D01*
X90341944Y-110413466D01*
X90335997Y-110394973D01*
X90333544Y-110390928D01*
X90331140Y-110379866D01*
X90325594Y-110347226D01*
X90319108Y-110309050D01*
X90317552Y-110295239D01*
X90317026Y-110285874D01*
X90300695Y-109995042D01*
X90300500Y-109988090D01*
X90300500Y-105667110D01*
X129665000Y-105667110D01*
X129665000Y-105922889D01*
X129705013Y-106175523D01*
X129784051Y-106418781D01*
X129784052Y-106418784D01*
X129900175Y-106646686D01*
X129977850Y-106753595D01*
X129977850Y-106753596D01*
X130535884Y-106195561D01*
X130536740Y-106197626D01*
X130629762Y-106336844D01*
X130748156Y-106455238D01*
X130887374Y-106548260D01*
X130889437Y-106549114D01*
X130331402Y-107107148D01*
X130438313Y-107184824D01*
X130666215Y-107300947D01*
X130666218Y-107300948D01*
X130909476Y-107379986D01*
X131162111Y-107420000D01*
X131417889Y-107420000D01*
X131670523Y-107379986D01*
X131913781Y-107300948D01*
X131913784Y-107300947D01*
X132141685Y-107184825D01*
X132248595Y-107107148D01*
X132248596Y-107107148D01*
X131690562Y-106549114D01*
X131692626Y-106548260D01*
X131831844Y-106455238D01*
X131950238Y-106336844D01*
X132043260Y-106197626D01*
X132044114Y-106195562D01*
X132602148Y-106753596D01*
X132602148Y-106753595D01*
X132679825Y-106646685D01*
X132795947Y-106418784D01*
X132795948Y-106418781D01*
X132874986Y-106175523D01*
X132915000Y-105922889D01*
X132915000Y-105667110D01*
X134745000Y-105667110D01*
X134745000Y-105922889D01*
X134785013Y-106175523D01*
X134864051Y-106418781D01*
X134864052Y-106418784D01*
X134980175Y-106646686D01*
X135057850Y-106753595D01*
X135057850Y-106753596D01*
X135615884Y-106195561D01*
X135616740Y-106197626D01*
X135709762Y-106336844D01*
X135828156Y-106455238D01*
X135967374Y-106548260D01*
X135969437Y-106549114D01*
X135411402Y-107107148D01*
X135518313Y-107184824D01*
X135746215Y-107300947D01*
X135746218Y-107300948D01*
X135989476Y-107379986D01*
X136242111Y-107420000D01*
X136497889Y-107420000D01*
X136750523Y-107379986D01*
X136993781Y-107300948D01*
X136993784Y-107300947D01*
X137087697Y-107253096D01*
X137221685Y-107184825D01*
X137328595Y-107107148D01*
X137328596Y-107107148D01*
X136770562Y-106549114D01*
X136772626Y-106548260D01*
X136911844Y-106455238D01*
X137030238Y-106336844D01*
X137123260Y-106197626D01*
X137124114Y-106195562D01*
X137682148Y-106753596D01*
X137682148Y-106753595D01*
X137759825Y-106646685D01*
X137875947Y-106418784D01*
X137875948Y-106418781D01*
X137954986Y-106175523D01*
X137995000Y-105922889D01*
X137995000Y-105667110D01*
X137954986Y-105414476D01*
X137875948Y-105171218D01*
X137875947Y-105171215D01*
X137759822Y-104943310D01*
X137739853Y-104915824D01*
X137739851Y-104915822D01*
X137682148Y-104836403D01*
X137682148Y-104836402D01*
X137124114Y-105394436D01*
X137123260Y-105392374D01*
X137030238Y-105253156D01*
X136911844Y-105134762D01*
X136772626Y-105041740D01*
X136770560Y-105040884D01*
X137328595Y-104482851D01*
X137328595Y-104482850D01*
X137221686Y-104405175D01*
X137172278Y-104380000D01*
X139902769Y-104380000D01*
X140796988Y-104380000D01*
X140764075Y-104437007D01*
X140730000Y-104564174D01*
X140730000Y-104695826D01*
X140764075Y-104822993D01*
X140796988Y-104880000D01*
X139902769Y-104880000D01*
X139913242Y-104946126D01*
X139913242Y-104946129D01*
X139978904Y-105148217D01*
X140075379Y-105337557D01*
X140200272Y-105509459D01*
X140200276Y-105509464D01*
X140350535Y-105659723D01*
X140350540Y-105659727D01*
X140522442Y-105784620D01*
X140711782Y-105881095D01*
X140913871Y-105946757D01*
X140980000Y-105957231D01*
X140980000Y-105063012D01*
X141037007Y-105095925D01*
X141164174Y-105130000D01*
X141295826Y-105130000D01*
X141422993Y-105095925D01*
X141480000Y-105063012D01*
X141480000Y-105957230D01*
X141546126Y-105946757D01*
X141546129Y-105946757D01*
X141748217Y-105881095D01*
X141937557Y-105784620D01*
X142109459Y-105659727D01*
X142109464Y-105659723D01*
X142259723Y-105509464D01*
X142259727Y-105509459D01*
X142384620Y-105337557D01*
X142481095Y-105148217D01*
X142538343Y-104972026D01*
X142577780Y-104914351D01*
X142642139Y-104887152D01*
X142710985Y-104899066D01*
X142762461Y-104946310D01*
X142770833Y-104962887D01*
X142798673Y-105030099D01*
X142839058Y-105127596D01*
X142954024Y-105299657D01*
X143100342Y-105445975D01*
X143100345Y-105445977D01*
X143272402Y-105560941D01*
X143463580Y-105640130D01*
X143666530Y-105680499D01*
X143666534Y-105680500D01*
X143666535Y-105680500D01*
X143873466Y-105680500D01*
X143873467Y-105680499D01*
X144076420Y-105640130D01*
X144267598Y-105560941D01*
X144439655Y-105445977D01*
X144585977Y-105299655D01*
X144700941Y-105127598D01*
X144780130Y-104936420D01*
X144820500Y-104733465D01*
X144820500Y-104526535D01*
X144780130Y-104323580D01*
X144700941Y-104132402D01*
X144585977Y-103960345D01*
X144585975Y-103960342D01*
X144439657Y-103814024D01*
X144344638Y-103750535D01*
X144267598Y-103699059D01*
X144256234Y-103694352D01*
X144076420Y-103619870D01*
X144076412Y-103619868D01*
X143873469Y-103579500D01*
X143873465Y-103579500D01*
X143666535Y-103579500D01*
X143666530Y-103579500D01*
X143463587Y-103619868D01*
X143463579Y-103619870D01*
X143272403Y-103699058D01*
X143100342Y-103814024D01*
X142954024Y-103960342D01*
X142839057Y-104132403D01*
X142770835Y-104297108D01*
X142726994Y-104351511D01*
X142660700Y-104373576D01*
X142593000Y-104356297D01*
X142545390Y-104305159D01*
X142538343Y-104287973D01*
X142481095Y-104111782D01*
X142384620Y-103922442D01*
X142259727Y-103750540D01*
X142259723Y-103750535D01*
X142109464Y-103600276D01*
X142109459Y-103600272D01*
X141937557Y-103475379D01*
X141748216Y-103378904D01*
X141572026Y-103321656D01*
X141514350Y-103282218D01*
X141487152Y-103217860D01*
X141499067Y-103149013D01*
X141546311Y-103097538D01*
X141562882Y-103089168D01*
X141727598Y-103020941D01*
X141899655Y-102905977D01*
X142045977Y-102759655D01*
X142160941Y-102587598D01*
X142240130Y-102396420D01*
X142280500Y-102193465D01*
X142280500Y-101986535D01*
X142280499Y-101986530D01*
X142719500Y-101986530D01*
X142719500Y-102193469D01*
X142759868Y-102396412D01*
X142759870Y-102396420D01*
X142808061Y-102512764D01*
X142839059Y-102587598D01*
X142850852Y-102605247D01*
X142954024Y-102759657D01*
X143100342Y-102905975D01*
X143100345Y-102905977D01*
X143272402Y-103020941D01*
X143463580Y-103100130D01*
X143585273Y-103124336D01*
X143666530Y-103140499D01*
X143666534Y-103140500D01*
X143666535Y-103140500D01*
X143873466Y-103140500D01*
X143873467Y-103140499D01*
X144076420Y-103100130D01*
X144267598Y-103020941D01*
X144439655Y-102905977D01*
X144585977Y-102759655D01*
X144700941Y-102587598D01*
X144780130Y-102396420D01*
X144820500Y-102193465D01*
X144820500Y-101986535D01*
X144780130Y-101783580D01*
X144700941Y-101592402D01*
X144585977Y-101420345D01*
X144585975Y-101420342D01*
X144439657Y-101274024D01*
X144353626Y-101216541D01*
X144267598Y-101159059D01*
X144076420Y-101079870D01*
X144076412Y-101079868D01*
X143873469Y-101039500D01*
X143873465Y-101039500D01*
X143666535Y-101039500D01*
X143666530Y-101039500D01*
X143463587Y-101079868D01*
X143463579Y-101079870D01*
X143272403Y-101159058D01*
X143100342Y-101274024D01*
X142954024Y-101420342D01*
X142839058Y-101592403D01*
X142759870Y-101783579D01*
X142759868Y-101783587D01*
X142719500Y-101986530D01*
X142280499Y-101986530D01*
X142240130Y-101783580D01*
X142160941Y-101592402D01*
X142045977Y-101420345D01*
X142045975Y-101420342D01*
X141899657Y-101274024D01*
X141813626Y-101216541D01*
X141727598Y-101159059D01*
X141536420Y-101079870D01*
X141536412Y-101079868D01*
X141333469Y-101039500D01*
X141333465Y-101039500D01*
X141126535Y-101039500D01*
X141126530Y-101039500D01*
X140923587Y-101079868D01*
X140923579Y-101079870D01*
X140732403Y-101159058D01*
X140560342Y-101274024D01*
X140414024Y-101420342D01*
X140299058Y-101592403D01*
X140219870Y-101783579D01*
X140219868Y-101783587D01*
X140179500Y-101986530D01*
X140179500Y-102193469D01*
X140219868Y-102396412D01*
X140219870Y-102396420D01*
X140268061Y-102512764D01*
X140299059Y-102587598D01*
X140310852Y-102605247D01*
X140414024Y-102759657D01*
X140560342Y-102905975D01*
X140732405Y-103020943D01*
X140835043Y-103063456D01*
X140897108Y-103089164D01*
X140951511Y-103133005D01*
X140973576Y-103199299D01*
X140956297Y-103266998D01*
X140905160Y-103314609D01*
X140887974Y-103321656D01*
X140711781Y-103378905D01*
X140522442Y-103475379D01*
X140350540Y-103600272D01*
X140350535Y-103600276D01*
X140200276Y-103750535D01*
X140200272Y-103750540D01*
X140075379Y-103922442D01*
X139978904Y-104111782D01*
X139913242Y-104313870D01*
X139913242Y-104313873D01*
X139902769Y-104380000D01*
X137172278Y-104380000D01*
X136993784Y-104289052D01*
X136993781Y-104289051D01*
X136750523Y-104210013D01*
X136497889Y-104170000D01*
X136242111Y-104170000D01*
X135989476Y-104210013D01*
X135746218Y-104289051D01*
X135746215Y-104289052D01*
X135518310Y-104405177D01*
X135411403Y-104482849D01*
X135411402Y-104482850D01*
X135969437Y-105040885D01*
X135967374Y-105041740D01*
X135828156Y-105134762D01*
X135709762Y-105253156D01*
X135616740Y-105392374D01*
X135615885Y-105394437D01*
X135057850Y-104836402D01*
X135057849Y-104836403D01*
X134980177Y-104943310D01*
X134864052Y-105171215D01*
X134864051Y-105171218D01*
X134785013Y-105414476D01*
X134745000Y-105667110D01*
X132915000Y-105667110D01*
X132874986Y-105414476D01*
X132795948Y-105171218D01*
X132795947Y-105171215D01*
X132679824Y-104943313D01*
X132602148Y-104836403D01*
X132602148Y-104836402D01*
X132044114Y-105394436D01*
X132043260Y-105392374D01*
X131950238Y-105253156D01*
X131831844Y-105134762D01*
X131692626Y-105041740D01*
X131690560Y-105040884D01*
X132248596Y-104482850D01*
X132141686Y-104405175D01*
X131913784Y-104289052D01*
X131913781Y-104289051D01*
X131670523Y-104210013D01*
X131417889Y-104170000D01*
X131162111Y-104170000D01*
X130909476Y-104210013D01*
X130666218Y-104289051D01*
X130666215Y-104289052D01*
X130438310Y-104405177D01*
X130331403Y-104482849D01*
X130331402Y-104482850D01*
X130889437Y-105040885D01*
X130887374Y-105041740D01*
X130748156Y-105134762D01*
X130629762Y-105253156D01*
X130536740Y-105392374D01*
X130535885Y-105394437D01*
X129977850Y-104836402D01*
X129977849Y-104836403D01*
X129900177Y-104943310D01*
X129784052Y-105171215D01*
X129784051Y-105171218D01*
X129705013Y-105414476D01*
X129665000Y-105667110D01*
X90300500Y-105667110D01*
X90300500Y-103115390D01*
X91749999Y-103115390D01*
X91749999Y-103284609D01*
X91776468Y-103451726D01*
X91828759Y-103612659D01*
X91905579Y-103763427D01*
X91906605Y-103764838D01*
X91906606Y-103764839D01*
X92424999Y-103246446D01*
X92424999Y-103252661D01*
X92452258Y-103354394D01*
X92504919Y-103445606D01*
X92579393Y-103520080D01*
X92670605Y-103572741D01*
X92772338Y-103600000D01*
X92778552Y-103600000D01*
X92260158Y-104118391D01*
X92261577Y-104119422D01*
X92412339Y-104196239D01*
X92573272Y-104248530D01*
X92740390Y-104275000D01*
X92909608Y-104275000D01*
X93076725Y-104248530D01*
X93237658Y-104196239D01*
X93388423Y-104119420D01*
X93389838Y-104118391D01*
X92871447Y-103600000D01*
X92877660Y-103600000D01*
X92979393Y-103572741D01*
X93070605Y-103520080D01*
X93145079Y-103445606D01*
X93197740Y-103354394D01*
X93224999Y-103252661D01*
X93224999Y-103246448D01*
X93743390Y-103764839D01*
X93744419Y-103763424D01*
X93821238Y-103612659D01*
X93864767Y-103478693D01*
X93904204Y-103421018D01*
X93968563Y-103393819D01*
X94037409Y-103405734D01*
X94088885Y-103452978D01*
X94097259Y-103469558D01*
X94137759Y-103567333D01*
X94137764Y-103567343D01*
X94222629Y-103694351D01*
X94222632Y-103694355D01*
X94330644Y-103802367D01*
X94330648Y-103802370D01*
X94457656Y-103887235D01*
X94457662Y-103887238D01*
X94457663Y-103887239D01*
X94598795Y-103945698D01*
X94748615Y-103975499D01*
X94748619Y-103975500D01*
X94748620Y-103975500D01*
X94901381Y-103975500D01*
X94901381Y-103975499D01*
X94963751Y-103963093D01*
X95032048Y-103949509D01*
X95040234Y-103947880D01*
X95051205Y-103945698D01*
X95192337Y-103887239D01*
X95319352Y-103802370D01*
X95427370Y-103694352D01*
X95512239Y-103567337D01*
X95552740Y-103469558D01*
X95596581Y-103415155D01*
X95662875Y-103393090D01*
X95730574Y-103410369D01*
X95778185Y-103461506D01*
X95785232Y-103478692D01*
X95828761Y-103612661D01*
X95905581Y-103763427D01*
X95906607Y-103764838D01*
X95906608Y-103764839D01*
X96425001Y-103246446D01*
X96425001Y-103252661D01*
X96452260Y-103354394D01*
X96504921Y-103445606D01*
X96579395Y-103520080D01*
X96670607Y-103572741D01*
X96772340Y-103600000D01*
X96778554Y-103600000D01*
X96260160Y-104118391D01*
X96261579Y-104119422D01*
X96412341Y-104196239D01*
X96573274Y-104248530D01*
X96740392Y-104275000D01*
X96909610Y-104275000D01*
X97076727Y-104248530D01*
X97237660Y-104196239D01*
X97388425Y-104119420D01*
X97389840Y-104118391D01*
X96871449Y-103600000D01*
X96877662Y-103600000D01*
X96979395Y-103572741D01*
X97070607Y-103520080D01*
X97145081Y-103445606D01*
X97197742Y-103354394D01*
X97225001Y-103252661D01*
X97225001Y-103246448D01*
X97743392Y-103764839D01*
X97744421Y-103763424D01*
X97821240Y-103612659D01*
X97864768Y-103478695D01*
X97904205Y-103421020D01*
X97968564Y-103393821D01*
X98037410Y-103405735D01*
X98088886Y-103452979D01*
X98097260Y-103469560D01*
X98137759Y-103567333D01*
X98137764Y-103567343D01*
X98222629Y-103694351D01*
X98222632Y-103694355D01*
X98330644Y-103802367D01*
X98330648Y-103802370D01*
X98457656Y-103887235D01*
X98457662Y-103887238D01*
X98457663Y-103887239D01*
X98598795Y-103945698D01*
X98748615Y-103975499D01*
X98748619Y-103975500D01*
X98748620Y-103975500D01*
X98901381Y-103975500D01*
X98901382Y-103975499D01*
X99051205Y-103945698D01*
X99192337Y-103887239D01*
X99319352Y-103802370D01*
X99427370Y-103694352D01*
X99512239Y-103567337D01*
X99570698Y-103426205D01*
X99600500Y-103276380D01*
X99600500Y-103123620D01*
X99570698Y-102973795D01*
X99512239Y-102832663D01*
X99512238Y-102832662D01*
X99512235Y-102832656D01*
X99427370Y-102705648D01*
X99427367Y-102705644D01*
X99319355Y-102597632D01*
X99319351Y-102597629D01*
X99192343Y-102512764D01*
X99192334Y-102512759D01*
X99051205Y-102454302D01*
X99051197Y-102454300D01*
X98901384Y-102424500D01*
X98901380Y-102424500D01*
X98748620Y-102424500D01*
X98748615Y-102424500D01*
X98598802Y-102454300D01*
X98598794Y-102454302D01*
X98457665Y-102512759D01*
X98457656Y-102512764D01*
X98330648Y-102597629D01*
X98330644Y-102597632D01*
X98222632Y-102705644D01*
X98222629Y-102705648D01*
X98137764Y-102832656D01*
X98137759Y-102832666D01*
X98097260Y-102930439D01*
X98053418Y-102984843D01*
X97987124Y-103006907D01*
X97919425Y-102989627D01*
X97871815Y-102938490D01*
X97864768Y-102921304D01*
X97821240Y-102787340D01*
X97744423Y-102636578D01*
X97743392Y-102635159D01*
X97225001Y-103153551D01*
X97225001Y-103147339D01*
X97197742Y-103045606D01*
X97145081Y-102954394D01*
X97070607Y-102879920D01*
X96979395Y-102827259D01*
X96877662Y-102800000D01*
X96871448Y-102800000D01*
X97389840Y-102281607D01*
X97389839Y-102281606D01*
X97388428Y-102280580D01*
X97237660Y-102203760D01*
X97076727Y-102151469D01*
X96909610Y-102125000D01*
X96740392Y-102125000D01*
X96573274Y-102151469D01*
X96412341Y-102203760D01*
X96261576Y-102280579D01*
X96261573Y-102280581D01*
X96260161Y-102281606D01*
X96260161Y-102281607D01*
X96778555Y-102800000D01*
X96772340Y-102800000D01*
X96670607Y-102827259D01*
X96579395Y-102879920D01*
X96504921Y-102954394D01*
X96452260Y-103045606D01*
X96425001Y-103147339D01*
X96425001Y-103153553D01*
X95906608Y-102635160D01*
X95906607Y-102635160D01*
X95905582Y-102636572D01*
X95905580Y-102636575D01*
X95828761Y-102787338D01*
X95785232Y-102921307D01*
X95745794Y-102978982D01*
X95681435Y-103006180D01*
X95612589Y-102994265D01*
X95561113Y-102947021D01*
X95552740Y-102930441D01*
X95512240Y-102832665D01*
X95512235Y-102832656D01*
X95427370Y-102705648D01*
X95427367Y-102705644D01*
X95319355Y-102597632D01*
X95319351Y-102597629D01*
X95192343Y-102512764D01*
X95192334Y-102512759D01*
X95051205Y-102454302D01*
X95051197Y-102454300D01*
X95031978Y-102450477D01*
X94901384Y-102424500D01*
X94901380Y-102424500D01*
X94748620Y-102424500D01*
X94748615Y-102424500D01*
X94598802Y-102454300D01*
X94598794Y-102454302D01*
X94457665Y-102512759D01*
X94457656Y-102512764D01*
X94330648Y-102597629D01*
X94330644Y-102597632D01*
X94222632Y-102705644D01*
X94222629Y-102705648D01*
X94137764Y-102832656D01*
X94137761Y-102832662D01*
X94097259Y-102930442D01*
X94053417Y-102984845D01*
X93987123Y-103006909D01*
X93919424Y-102989629D01*
X93871814Y-102938492D01*
X93864767Y-102921306D01*
X93821238Y-102787340D01*
X93744421Y-102636578D01*
X93743390Y-102635159D01*
X93224999Y-103153551D01*
X93224999Y-103147339D01*
X93197740Y-103045606D01*
X93145079Y-102954394D01*
X93070605Y-102879920D01*
X92979393Y-102827259D01*
X92877660Y-102800000D01*
X92871446Y-102800000D01*
X93389838Y-102281607D01*
X93389837Y-102281606D01*
X93388426Y-102280580D01*
X93237658Y-102203760D01*
X93076725Y-102151469D01*
X92909608Y-102125000D01*
X92740390Y-102125000D01*
X92573272Y-102151469D01*
X92412339Y-102203760D01*
X92261574Y-102280579D01*
X92261571Y-102280581D01*
X92260159Y-102281606D01*
X92260159Y-102281607D01*
X92778553Y-102800000D01*
X92772338Y-102800000D01*
X92670605Y-102827259D01*
X92579393Y-102879920D01*
X92504919Y-102954394D01*
X92452258Y-103045606D01*
X92424999Y-103147339D01*
X92424999Y-103153553D01*
X91906605Y-102635160D01*
X91905580Y-102636572D01*
X91905578Y-102636575D01*
X91828759Y-102787340D01*
X91776468Y-102948273D01*
X91749999Y-103115390D01*
X90300500Y-103115390D01*
X90300500Y-99404426D01*
X90300816Y-99395580D01*
X90314044Y-99210629D01*
X90338460Y-99145169D01*
X90352730Y-99129194D01*
X91814239Y-97753656D01*
X91876548Y-97722045D01*
X91899106Y-97719954D01*
X112540554Y-97700681D01*
X112607612Y-97720303D01*
X112653416Y-97773064D01*
X112663424Y-97842213D01*
X112634459Y-97905796D01*
X112628351Y-97912362D01*
X109977533Y-100563181D01*
X109916210Y-100596666D01*
X109889852Y-100599500D01*
X102631003Y-100599500D01*
X102533760Y-100618843D01*
X102533758Y-100618843D01*
X102522591Y-100621065D01*
X102495671Y-100626420D01*
X102442866Y-100648292D01*
X102368189Y-100679225D01*
X102368188Y-100679226D01*
X102347199Y-100693249D01*
X102347192Y-100693253D01*
X102253457Y-100755886D01*
X102253453Y-100755889D01*
X100541542Y-102467799D01*
X100501318Y-102494677D01*
X100457665Y-102512760D01*
X100330648Y-102597629D01*
X100222633Y-102705644D01*
X100222630Y-102705648D01*
X100137765Y-102832656D01*
X100137760Y-102832665D01*
X100079303Y-102973794D01*
X100079301Y-102973802D01*
X100049501Y-103123615D01*
X100049501Y-103276384D01*
X100079301Y-103426197D01*
X100079303Y-103426205D01*
X100137760Y-103567334D01*
X100137765Y-103567343D01*
X100222630Y-103694351D01*
X100222633Y-103694355D01*
X100330645Y-103802367D01*
X100330649Y-103802370D01*
X100457657Y-103887235D01*
X100457663Y-103887238D01*
X100457664Y-103887239D01*
X100598796Y-103945698D01*
X100748616Y-103975499D01*
X100748620Y-103975500D01*
X100748621Y-103975500D01*
X100901382Y-103975500D01*
X100901383Y-103975499D01*
X101051206Y-103945698D01*
X101192338Y-103887239D01*
X101319353Y-103802370D01*
X101427371Y-103694352D01*
X101512240Y-103567337D01*
X101565679Y-103438323D01*
X101592557Y-103398098D01*
X101837819Y-103152836D01*
X101899141Y-103119352D01*
X101968833Y-103124336D01*
X102024766Y-103166208D01*
X102049183Y-103231672D01*
X102049499Y-103240518D01*
X102049499Y-103276384D01*
X102079299Y-103426197D01*
X102079301Y-103426205D01*
X102137758Y-103567334D01*
X102137763Y-103567343D01*
X102222628Y-103694351D01*
X102222631Y-103694355D01*
X102330643Y-103802367D01*
X102330647Y-103802370D01*
X102457655Y-103887235D01*
X102457661Y-103887238D01*
X102457662Y-103887239D01*
X102598794Y-103945698D01*
X102748614Y-103975499D01*
X102748618Y-103975500D01*
X102748619Y-103975500D01*
X102901380Y-103975500D01*
X102901381Y-103975499D01*
X103051204Y-103945698D01*
X103192336Y-103887239D01*
X103319351Y-103802370D01*
X103427369Y-103694352D01*
X103512238Y-103567337D01*
X103570697Y-103426205D01*
X103600499Y-103276380D01*
X103600499Y-103123620D01*
X103600498Y-103123615D01*
X104049500Y-103123615D01*
X104049500Y-103276384D01*
X104079300Y-103426197D01*
X104079302Y-103426205D01*
X104137759Y-103567334D01*
X104137764Y-103567343D01*
X104222629Y-103694351D01*
X104222632Y-103694355D01*
X104330644Y-103802367D01*
X104330648Y-103802370D01*
X104457656Y-103887235D01*
X104457662Y-103887238D01*
X104457663Y-103887239D01*
X104598795Y-103945698D01*
X104748615Y-103975499D01*
X104748619Y-103975500D01*
X104748620Y-103975500D01*
X104901381Y-103975500D01*
X104901382Y-103975499D01*
X105051205Y-103945698D01*
X105192337Y-103887239D01*
X105319352Y-103802370D01*
X105427370Y-103694352D01*
X105512239Y-103567337D01*
X105570698Y-103426205D01*
X105600500Y-103276380D01*
X105600500Y-103123620D01*
X105600499Y-103123615D01*
X106049499Y-103123615D01*
X106049499Y-103276384D01*
X106079299Y-103426197D01*
X106079301Y-103426205D01*
X106137758Y-103567334D01*
X106137763Y-103567343D01*
X106222628Y-103694351D01*
X106222631Y-103694355D01*
X106330643Y-103802367D01*
X106330647Y-103802370D01*
X106457655Y-103887235D01*
X106457661Y-103887238D01*
X106457662Y-103887239D01*
X106598794Y-103945698D01*
X106748614Y-103975499D01*
X106748618Y-103975500D01*
X106748619Y-103975500D01*
X106901380Y-103975500D01*
X106901381Y-103975499D01*
X107051204Y-103945698D01*
X107192336Y-103887239D01*
X107319351Y-103802370D01*
X107427369Y-103694352D01*
X107512238Y-103567337D01*
X107570697Y-103426205D01*
X107600499Y-103276380D01*
X107600499Y-103123620D01*
X107570697Y-102973795D01*
X107512238Y-102832663D01*
X107512237Y-102832662D01*
X107512234Y-102832656D01*
X107427369Y-102705648D01*
X107427366Y-102705644D01*
X107326969Y-102605247D01*
X108049500Y-102605247D01*
X108049500Y-103794752D01*
X108061131Y-103853229D01*
X108061132Y-103853230D01*
X108105447Y-103919552D01*
X108171769Y-103963867D01*
X108171770Y-103963868D01*
X108230247Y-103975499D01*
X108230250Y-103975500D01*
X108230252Y-103975500D01*
X109419750Y-103975500D01*
X109419751Y-103975499D01*
X109434568Y-103972552D01*
X109478229Y-103963868D01*
X109478229Y-103963867D01*
X109478231Y-103963867D01*
X109544552Y-103919552D01*
X109588867Y-103853231D01*
X109588867Y-103853229D01*
X109588868Y-103853229D01*
X109600499Y-103794752D01*
X109600500Y-103794750D01*
X109600500Y-102605249D01*
X109600499Y-102605247D01*
X109588868Y-102546770D01*
X109588867Y-102546769D01*
X109544552Y-102480447D01*
X109478230Y-102436132D01*
X109478229Y-102436131D01*
X109419752Y-102424500D01*
X109419748Y-102424500D01*
X108230252Y-102424500D01*
X108230247Y-102424500D01*
X108171770Y-102436131D01*
X108171769Y-102436132D01*
X108105447Y-102480447D01*
X108061132Y-102546769D01*
X108061131Y-102546770D01*
X108049500Y-102605247D01*
X107326969Y-102605247D01*
X107319354Y-102597632D01*
X107319350Y-102597629D01*
X107192342Y-102512764D01*
X107192333Y-102512759D01*
X107051204Y-102454302D01*
X107051196Y-102454300D01*
X106901383Y-102424500D01*
X106901379Y-102424500D01*
X106748619Y-102424500D01*
X106748614Y-102424500D01*
X106598801Y-102454300D01*
X106598793Y-102454302D01*
X106457664Y-102512759D01*
X106457655Y-102512764D01*
X106330647Y-102597629D01*
X106330643Y-102597632D01*
X106222631Y-102705644D01*
X106222628Y-102705648D01*
X106137763Y-102832656D01*
X106137758Y-102832665D01*
X106079301Y-102973794D01*
X106079299Y-102973802D01*
X106049499Y-103123615D01*
X105600499Y-103123615D01*
X105570698Y-102973795D01*
X105512239Y-102832663D01*
X105512238Y-102832662D01*
X105512235Y-102832656D01*
X105427370Y-102705648D01*
X105427367Y-102705644D01*
X105319355Y-102597632D01*
X105319351Y-102597629D01*
X105192343Y-102512764D01*
X105192334Y-102512759D01*
X105051205Y-102454302D01*
X105051197Y-102454300D01*
X104901384Y-102424500D01*
X104901380Y-102424500D01*
X104748620Y-102424500D01*
X104748615Y-102424500D01*
X104598802Y-102454300D01*
X104598794Y-102454302D01*
X104457665Y-102512759D01*
X104457656Y-102512764D01*
X104330648Y-102597629D01*
X104330644Y-102597632D01*
X104222632Y-102705644D01*
X104222629Y-102705648D01*
X104137764Y-102832656D01*
X104137759Y-102832665D01*
X104079302Y-102973794D01*
X104079300Y-102973802D01*
X104049500Y-103123615D01*
X103600498Y-103123615D01*
X103570697Y-102973795D01*
X103512238Y-102832663D01*
X103512237Y-102832662D01*
X103512234Y-102832656D01*
X103427369Y-102705648D01*
X103427366Y-102705644D01*
X103319354Y-102597632D01*
X103319350Y-102597629D01*
X103192342Y-102512764D01*
X103192333Y-102512759D01*
X103051204Y-102454302D01*
X103051196Y-102454300D01*
X102901383Y-102424500D01*
X102901379Y-102424500D01*
X102865518Y-102424500D01*
X102844272Y-102418261D01*
X102822184Y-102416682D01*
X102811400Y-102408609D01*
X102798479Y-102404815D01*
X102783979Y-102388081D01*
X102766251Y-102374810D01*
X102761543Y-102362189D01*
X102752724Y-102352011D01*
X102749572Y-102330093D01*
X102741834Y-102309346D01*
X102744696Y-102296185D01*
X102742780Y-102282853D01*
X102751979Y-102262709D01*
X102756686Y-102241073D01*
X102769954Y-102223347D01*
X102771805Y-102219297D01*
X102777837Y-102212819D01*
X102953837Y-102036819D01*
X103015160Y-102003334D01*
X103041518Y-102000500D01*
X110300367Y-102000500D01*
X110391411Y-101982389D01*
X110435699Y-101973580D01*
X110499440Y-101947177D01*
X110563178Y-101920777D01*
X110563179Y-101920776D01*
X110563182Y-101920775D01*
X110677914Y-101844114D01*
X115694114Y-96827914D01*
X115770775Y-96713182D01*
X115774753Y-96703580D01*
X115815233Y-96605850D01*
X115823580Y-96585699D01*
X115850500Y-96450365D01*
X115850500Y-96312377D01*
X115850500Y-93790000D01*
X119724638Y-93790000D01*
X119729548Y-93821002D01*
X119787914Y-94000637D01*
X119873670Y-94168940D01*
X119984685Y-94321741D01*
X119984689Y-94321746D01*
X120118253Y-94455310D01*
X120118258Y-94455314D01*
X120271059Y-94566329D01*
X120439362Y-94652085D01*
X120618997Y-94710451D01*
X120650000Y-94715362D01*
X120650000Y-94715361D01*
X121150000Y-94715361D01*
X121181002Y-94710451D01*
X121360637Y-94652085D01*
X121528940Y-94566329D01*
X121681741Y-94455314D01*
X121681746Y-94455310D01*
X121815310Y-94321746D01*
X121815314Y-94321741D01*
X121926329Y-94168940D01*
X122012085Y-94000637D01*
X122070451Y-93821002D01*
X122075362Y-93790000D01*
X121150000Y-93790000D01*
X121150000Y-94715361D01*
X120650000Y-94715361D01*
X120650000Y-93790000D01*
X119724638Y-93790000D01*
X115850500Y-93790000D01*
X115850500Y-93499500D01*
X115852138Y-93493922D01*
X120550000Y-93493922D01*
X120550000Y-93586078D01*
X120573852Y-93675095D01*
X120619930Y-93754905D01*
X120685095Y-93820070D01*
X120764905Y-93866148D01*
X120853922Y-93890000D01*
X120946078Y-93890000D01*
X121035095Y-93866148D01*
X121114905Y-93820070D01*
X121180070Y-93754905D01*
X121226148Y-93675095D01*
X121250000Y-93586078D01*
X121250000Y-93493922D01*
X121226148Y-93404905D01*
X121180070Y-93325095D01*
X121144975Y-93290000D01*
X121150000Y-93290000D01*
X122075362Y-93290000D01*
X122070451Y-93258997D01*
X122012085Y-93079362D01*
X121926329Y-92911059D01*
X121815314Y-92758258D01*
X121815310Y-92758253D01*
X121681746Y-92624689D01*
X121681741Y-92624685D01*
X121528940Y-92513670D01*
X121360635Y-92427913D01*
X121181004Y-92369549D01*
X121180995Y-92369547D01*
X121150000Y-92364637D01*
X121150000Y-93290000D01*
X121144975Y-93290000D01*
X121114905Y-93259930D01*
X121035095Y-93213852D01*
X120946078Y-93190000D01*
X120853922Y-93190000D01*
X120764905Y-93213852D01*
X120685095Y-93259930D01*
X120619930Y-93325095D01*
X120573852Y-93404905D01*
X120550000Y-93493922D01*
X115852138Y-93493922D01*
X115870185Y-93432461D01*
X115922989Y-93386706D01*
X115974500Y-93375500D01*
X116468996Y-93375500D01*
X116560040Y-93357389D01*
X116604328Y-93348580D01*
X116731811Y-93295775D01*
X116740454Y-93290000D01*
X119724638Y-93290000D01*
X120650000Y-93290000D01*
X120650000Y-92364637D01*
X120649999Y-92364637D01*
X120619004Y-92369547D01*
X120618995Y-92369549D01*
X120439364Y-92427913D01*
X120271059Y-92513670D01*
X120118258Y-92624685D01*
X120118253Y-92624689D01*
X119984689Y-92758253D01*
X119984685Y-92758258D01*
X119873670Y-92911059D01*
X119787914Y-93079362D01*
X119729548Y-93258997D01*
X119724638Y-93290000D01*
X116740454Y-93290000D01*
X116786854Y-93258997D01*
X116839290Y-93223961D01*
X116839291Y-93223960D01*
X116843221Y-93221333D01*
X116846543Y-93219114D01*
X120675903Y-89389752D01*
X120737224Y-89356269D01*
X120787771Y-89355818D01*
X120811309Y-89360500D01*
X120811312Y-89360500D01*
X120988693Y-89360500D01*
X120988694Y-89360499D01*
X121077232Y-89342888D01*
X121162658Y-89325896D01*
X121162661Y-89325894D01*
X121162666Y-89325894D01*
X121326547Y-89258013D01*
X121474035Y-89159464D01*
X121599464Y-89034035D01*
X121698013Y-88886547D01*
X121765894Y-88722666D01*
X121766357Y-88720342D01*
X121796616Y-88568215D01*
X121800500Y-88548691D01*
X121800500Y-88371309D01*
X121800500Y-88371306D01*
X121800499Y-88371304D01*
X121765896Y-88197341D01*
X121765893Y-88197332D01*
X121752662Y-88165390D01*
X121726031Y-88101095D01*
X121698016Y-88033459D01*
X121698009Y-88033446D01*
X121599464Y-87885965D01*
X121599461Y-87885961D01*
X121474038Y-87760538D01*
X121474034Y-87760535D01*
X121326553Y-87661990D01*
X121326540Y-87661983D01*
X121162667Y-87594106D01*
X121162658Y-87594103D01*
X120988694Y-87559500D01*
X120988691Y-87559500D01*
X120811309Y-87559500D01*
X120811306Y-87559500D01*
X120637341Y-87594103D01*
X120637332Y-87594106D01*
X120473459Y-87661983D01*
X120473446Y-87661990D01*
X120325965Y-87760535D01*
X120325961Y-87760538D01*
X120200538Y-87885961D01*
X120196779Y-87890542D01*
X120173130Y-87911976D01*
X120173167Y-87912021D01*
X120172254Y-87912769D01*
X120169826Y-87914971D01*
X120168462Y-87915882D01*
X120168453Y-87915889D01*
X119386792Y-88697549D01*
X119325469Y-88731034D01*
X119255777Y-88726050D01*
X119199844Y-88684178D01*
X119179337Y-88641965D01*
X119159577Y-88568216D01*
X119148307Y-88548695D01*
X119080524Y-88431290D01*
X119080518Y-88431282D01*
X118962969Y-88313733D01*
X118965207Y-88311494D01*
X118932798Y-88267080D01*
X118925500Y-88225169D01*
X118925500Y-87884467D01*
X118925500Y-87884465D01*
X118903318Y-87801680D01*
X118903318Y-87801679D01*
X118860465Y-87727456D01*
X112541360Y-81408351D01*
X112526656Y-81381423D01*
X112510064Y-81355605D01*
X112509172Y-81349404D01*
X112507875Y-81347028D01*
X112505041Y-81320670D01*
X112505041Y-81134602D01*
X114635841Y-81134602D01*
X114635841Y-81292716D01*
X114676123Y-81443048D01*
X114676764Y-81445442D01*
X114676767Y-81445449D01*
X114755816Y-81582368D01*
X114755820Y-81582373D01*
X114755821Y-81582375D01*
X114867625Y-81694179D01*
X114867627Y-81694180D01*
X114867631Y-81694183D01*
X115004550Y-81773232D01*
X115004557Y-81773236D01*
X115157284Y-81814159D01*
X115157286Y-81814159D01*
X115315396Y-81814159D01*
X115315398Y-81814159D01*
X115468125Y-81773236D01*
X115605057Y-81694179D01*
X115716861Y-81582375D01*
X115795918Y-81445443D01*
X115836841Y-81292716D01*
X115836841Y-81134602D01*
X115836841Y-81126474D01*
X115840021Y-81126474D01*
X115848453Y-81072238D01*
X115872967Y-81037358D01*
X117596806Y-79313521D01*
X117605193Y-79298994D01*
X117605194Y-79298994D01*
X117623065Y-79268038D01*
X117639659Y-79239297D01*
X117661841Y-79156512D01*
X117661841Y-78188489D01*
X117681526Y-78121450D01*
X117700363Y-78100979D01*
X117699310Y-78099926D01*
X117723857Y-78075379D01*
X117816861Y-77982375D01*
X117895918Y-77845443D01*
X117936841Y-77692716D01*
X117936841Y-77534602D01*
X117895918Y-77381875D01*
X117883091Y-77359657D01*
X117816865Y-77244949D01*
X117816859Y-77244941D01*
X117705058Y-77133140D01*
X117705050Y-77133134D01*
X117568131Y-77054085D01*
X117568127Y-77054083D01*
X117568125Y-77054082D01*
X117415398Y-77013159D01*
X117257284Y-77013159D01*
X117104557Y-77054082D01*
X117104550Y-77054085D01*
X116967631Y-77133134D01*
X116967623Y-77133140D01*
X116855822Y-77244941D01*
X116855816Y-77244949D01*
X116776767Y-77381868D01*
X116776764Y-77381875D01*
X116735841Y-77534602D01*
X116735841Y-77692716D01*
X116748645Y-77740499D01*
X116776764Y-77845442D01*
X116776767Y-77845449D01*
X116855816Y-77982368D01*
X116855822Y-77982376D01*
X116973372Y-78099926D01*
X116971126Y-78102171D01*
X117003520Y-78146514D01*
X117010841Y-78188489D01*
X117010841Y-78927469D01*
X116991156Y-78994508D01*
X116974522Y-79015150D01*
X115412642Y-80577029D01*
X115351319Y-80610514D01*
X115323525Y-80611673D01*
X115323525Y-80613159D01*
X115157284Y-80613159D01*
X115004557Y-80654082D01*
X115004550Y-80654085D01*
X114867631Y-80733134D01*
X114867623Y-80733140D01*
X114755822Y-80844941D01*
X114755816Y-80844949D01*
X114676767Y-80981868D01*
X114676764Y-80981875D01*
X114635841Y-81134602D01*
X112505041Y-81134602D01*
X112505041Y-79364830D01*
X112524726Y-79297791D01*
X112543563Y-79277320D01*
X112542510Y-79276267D01*
X112579481Y-79239296D01*
X112660061Y-79158716D01*
X112739118Y-79021784D01*
X112780041Y-78869057D01*
X112780041Y-78710943D01*
X112739118Y-78558216D01*
X112718464Y-78522442D01*
X112660065Y-78421290D01*
X112660059Y-78421282D01*
X112548258Y-78309481D01*
X112548250Y-78309475D01*
X112411331Y-78230426D01*
X112411327Y-78230424D01*
X112411325Y-78230423D01*
X112258598Y-78189500D01*
X112100484Y-78189500D01*
X111947757Y-78230423D01*
X111947750Y-78230426D01*
X111810831Y-78309475D01*
X111810823Y-78309481D01*
X111699022Y-78421282D01*
X111699016Y-78421290D01*
X111619967Y-78558209D01*
X111619964Y-78558216D01*
X111579041Y-78710943D01*
X111579041Y-78869057D01*
X111618187Y-79015150D01*
X111619964Y-79021783D01*
X111619967Y-79021790D01*
X111699016Y-79158709D01*
X111699022Y-79158717D01*
X111816572Y-79276267D01*
X111814326Y-79278512D01*
X111846720Y-79322855D01*
X111854041Y-79364830D01*
X111854041Y-81464006D01*
X111854041Y-81549712D01*
X111862791Y-81582368D01*
X111876223Y-81632499D01*
X111895874Y-81666534D01*
X111919076Y-81706721D01*
X111919078Y-81706723D01*
X118238181Y-88025826D01*
X118252884Y-88052753D01*
X118269477Y-88078572D01*
X118270368Y-88084772D01*
X118271666Y-88087149D01*
X118274500Y-88113507D01*
X118274500Y-88225169D01*
X118254815Y-88292208D01*
X118235982Y-88312684D01*
X118237031Y-88313733D01*
X118119481Y-88431282D01*
X118119475Y-88431290D01*
X118040426Y-88568209D01*
X118040423Y-88568216D01*
X117999500Y-88720943D01*
X117999500Y-88879057D01*
X118035701Y-89014159D01*
X118040423Y-89031783D01*
X118040426Y-89031790D01*
X118119475Y-89168709D01*
X118119479Y-89168714D01*
X118119480Y-89168716D01*
X118231284Y-89280520D01*
X118231286Y-89280521D01*
X118231290Y-89280524D01*
X118361705Y-89355818D01*
X118368216Y-89359577D01*
X118441963Y-89379337D01*
X118501621Y-89415701D01*
X118532151Y-89478547D01*
X118523857Y-89547923D01*
X118497549Y-89586792D01*
X116146162Y-91938181D01*
X116119234Y-91952884D01*
X116093416Y-91969477D01*
X116087215Y-91970368D01*
X116084839Y-91971666D01*
X116058481Y-91974500D01*
X115974500Y-91974500D01*
X115907461Y-91954815D01*
X115861706Y-91902011D01*
X115850500Y-91850500D01*
X115850500Y-91381004D01*
X115823581Y-91245677D01*
X115823580Y-91245676D01*
X115823580Y-91245672D01*
X115813958Y-91222442D01*
X115770778Y-91118195D01*
X115770771Y-91118182D01*
X115694114Y-91003458D01*
X115694111Y-91003454D01*
X115596545Y-90905888D01*
X115596541Y-90905885D01*
X115481817Y-90829228D01*
X115481804Y-90829221D01*
X115354332Y-90776421D01*
X115354322Y-90776418D01*
X115218995Y-90749500D01*
X115218993Y-90749500D01*
X115081007Y-90749500D01*
X115081005Y-90749500D01*
X114945677Y-90776418D01*
X114945667Y-90776421D01*
X114818195Y-90829221D01*
X114818182Y-90829228D01*
X114703458Y-90905885D01*
X114703454Y-90905888D01*
X114605888Y-91003454D01*
X114605885Y-91003458D01*
X114529228Y-91118182D01*
X114529221Y-91118195D01*
X114476421Y-91245667D01*
X114476418Y-91245677D01*
X114449500Y-91381004D01*
X114449500Y-96039852D01*
X114429815Y-96106891D01*
X114413181Y-96127533D01*
X113512181Y-97028533D01*
X113450858Y-97062018D01*
X113381166Y-97057034D01*
X113325233Y-97015162D01*
X113300816Y-96949698D01*
X113300500Y-96940852D01*
X113300500Y-92460439D01*
X113297225Y-92448216D01*
X113280021Y-92384011D01*
X113280019Y-92384008D01*
X113280018Y-92384003D01*
X113279438Y-92382602D01*
X113278847Y-92379634D01*
X113277917Y-92376161D01*
X113278144Y-92376099D01*
X113270000Y-92335153D01*
X113270000Y-92160000D01*
X113269999Y-92160000D01*
X94774892Y-92189544D01*
X94769286Y-92189426D01*
X94595818Y-92181853D01*
X94585040Y-92180910D01*
X94502691Y-92170068D01*
X94438795Y-92141801D01*
X94434092Y-92137614D01*
X90630896Y-88574024D01*
X90473882Y-88426902D01*
X90473881Y-88426900D01*
X90406556Y-88363817D01*
X90371095Y-88303615D01*
X90368403Y-88289528D01*
X90319087Y-87914936D01*
X90318147Y-87904201D01*
X90300615Y-87502647D01*
X90300498Y-87497255D01*
X90300498Y-86039940D01*
X90650000Y-86039940D01*
X90650000Y-86360059D01*
X90685837Y-86678130D01*
X90685840Y-86678144D01*
X90757070Y-86990227D01*
X90757073Y-86990235D01*
X90862795Y-87292369D01*
X91001681Y-87580768D01*
X91171988Y-87851810D01*
X91315134Y-88031311D01*
X92384728Y-86961716D01*
X92470278Y-87079466D01*
X92620534Y-87229722D01*
X92738281Y-87315270D01*
X91668687Y-88384864D01*
X91848189Y-88528011D01*
X92119231Y-88698318D01*
X92407630Y-88837204D01*
X92709764Y-88942926D01*
X92709772Y-88942929D01*
X93021855Y-89014159D01*
X93021869Y-89014162D01*
X93339940Y-89049999D01*
X93339944Y-89050000D01*
X93660056Y-89050000D01*
X93660059Y-89049999D01*
X93978130Y-89014162D01*
X93978144Y-89014159D01*
X94290227Y-88942929D01*
X94290235Y-88942926D01*
X94592369Y-88837204D01*
X94880768Y-88698318D01*
X95151810Y-88528011D01*
X95331311Y-88384863D01*
X94261718Y-87315270D01*
X94379466Y-87229722D01*
X94529722Y-87079466D01*
X94615270Y-86961718D01*
X95684863Y-88031311D01*
X95828011Y-87851810D01*
X95998318Y-87580768D01*
X96137204Y-87292369D01*
X96242926Y-86990235D01*
X96242929Y-86990227D01*
X96314159Y-86678144D01*
X96314162Y-86678130D01*
X96349999Y-86360059D01*
X96350000Y-86360055D01*
X96350000Y-86039944D01*
X96349999Y-86039940D01*
X96314162Y-85721869D01*
X96314159Y-85721855D01*
X96242929Y-85409772D01*
X96242926Y-85409764D01*
X96137204Y-85107630D01*
X95998316Y-84819227D01*
X95998315Y-84819226D01*
X95981490Y-84792448D01*
X95981489Y-84792447D01*
X95945142Y-84734602D01*
X111685841Y-84734602D01*
X111685841Y-84892716D01*
X111726747Y-85045377D01*
X111726764Y-85045442D01*
X111726767Y-85045449D01*
X111805816Y-85182368D01*
X111805820Y-85182373D01*
X111805821Y-85182375D01*
X111917625Y-85294179D01*
X111917627Y-85294180D01*
X111917631Y-85294183D01*
X112032497Y-85360500D01*
X112054557Y-85373236D01*
X112207284Y-85414159D01*
X112207286Y-85414159D01*
X112365395Y-85414159D01*
X112365398Y-85414159D01*
X112459076Y-85389058D01*
X112528922Y-85390721D01*
X112586785Y-85429883D01*
X112614289Y-85494111D01*
X112610941Y-85540926D01*
X112607423Y-85554056D01*
X112585841Y-85634602D01*
X112585841Y-85792716D01*
X112619695Y-85919059D01*
X112626764Y-85945442D01*
X112626767Y-85945449D01*
X112705816Y-86082368D01*
X112705820Y-86082373D01*
X112705821Y-86082375D01*
X112817625Y-86194179D01*
X112817627Y-86194180D01*
X112817631Y-86194183D01*
X112880563Y-86230516D01*
X112954557Y-86273236D01*
X113107284Y-86314159D01*
X113107286Y-86314159D01*
X113265396Y-86314159D01*
X113265398Y-86314159D01*
X113418125Y-86273236D01*
X113555057Y-86194179D01*
X113573660Y-86175576D01*
X113634983Y-86142091D01*
X113704675Y-86147075D01*
X113749022Y-86175576D01*
X113767625Y-86194179D01*
X113767627Y-86194180D01*
X113767631Y-86194183D01*
X113830563Y-86230516D01*
X113904557Y-86273236D01*
X114057284Y-86314159D01*
X114057286Y-86314159D01*
X114215396Y-86314159D01*
X114215398Y-86314159D01*
X114368125Y-86273236D01*
X114505057Y-86194179D01*
X114616861Y-86082375D01*
X114695918Y-85945443D01*
X114736841Y-85792716D01*
X114736841Y-85634602D01*
X114695918Y-85481875D01*
X114633196Y-85373236D01*
X114616865Y-85344949D01*
X114616859Y-85344941D01*
X114505058Y-85233140D01*
X114505050Y-85233134D01*
X114368131Y-85154085D01*
X114368127Y-85154083D01*
X114368125Y-85154082D01*
X114215398Y-85113159D01*
X114057284Y-85113159D01*
X113963608Y-85138259D01*
X113893758Y-85136596D01*
X113835896Y-85097433D01*
X113808392Y-85033204D01*
X113811739Y-84986395D01*
X113836841Y-84892716D01*
X113836841Y-84734602D01*
X113795918Y-84581875D01*
X113776470Y-84548189D01*
X113716865Y-84444949D01*
X113716859Y-84444941D01*
X113605058Y-84333140D01*
X113605050Y-84333134D01*
X113468131Y-84254085D01*
X113468127Y-84254083D01*
X113468125Y-84254082D01*
X113315398Y-84213159D01*
X113157284Y-84213159D01*
X113004557Y-84254082D01*
X113004550Y-84254085D01*
X112867631Y-84333134D01*
X112867623Y-84333140D01*
X112849022Y-84351742D01*
X112787699Y-84385227D01*
X112718007Y-84380243D01*
X112673660Y-84351742D01*
X112655058Y-84333140D01*
X112655050Y-84333134D01*
X112518131Y-84254085D01*
X112518127Y-84254083D01*
X112518125Y-84254082D01*
X112365398Y-84213159D01*
X112207284Y-84213159D01*
X112054557Y-84254082D01*
X112054550Y-84254085D01*
X111917631Y-84333134D01*
X111917623Y-84333140D01*
X111805822Y-84444941D01*
X111805816Y-84444949D01*
X111726767Y-84581868D01*
X111726764Y-84581875D01*
X111685841Y-84734602D01*
X95945142Y-84734602D01*
X95828011Y-84548189D01*
X95684864Y-84368687D01*
X94615270Y-85438281D01*
X94529722Y-85320534D01*
X94379466Y-85170278D01*
X94261716Y-85084728D01*
X95331311Y-84015134D01*
X95151810Y-83871988D01*
X94880768Y-83701681D01*
X94592369Y-83562795D01*
X94290235Y-83457073D01*
X94290227Y-83457070D01*
X93978144Y-83385840D01*
X93978130Y-83385837D01*
X93660059Y-83350000D01*
X93339940Y-83350000D01*
X93021869Y-83385837D01*
X93021855Y-83385840D01*
X92709772Y-83457070D01*
X92709764Y-83457073D01*
X92407630Y-83562795D01*
X92119231Y-83701681D01*
X91848189Y-83871988D01*
X91668687Y-84015134D01*
X92738282Y-85084729D01*
X92620534Y-85170278D01*
X92470278Y-85320534D01*
X92384729Y-85438282D01*
X91315134Y-84368687D01*
X91171988Y-84548189D01*
X91001681Y-84819231D01*
X90862795Y-85107630D01*
X90757073Y-85409764D01*
X90757070Y-85409772D01*
X90685840Y-85721855D01*
X90685837Y-85721869D01*
X90650000Y-86039940D01*
X90300498Y-86039940D01*
X90300498Y-81709602D01*
X99410841Y-81709602D01*
X99410841Y-81867716D01*
X99416767Y-81889830D01*
X99451764Y-82020442D01*
X99451767Y-82020449D01*
X99530816Y-82157368D01*
X99530820Y-82157373D01*
X99530821Y-82157375D01*
X99642625Y-82269179D01*
X99642627Y-82269180D01*
X99642631Y-82269183D01*
X99730562Y-82319949D01*
X99779557Y-82348236D01*
X99894265Y-82378972D01*
X99953924Y-82415336D01*
X99984453Y-82478183D01*
X99981945Y-82530838D01*
X99960841Y-82609600D01*
X99960841Y-82609602D01*
X99960841Y-82767716D01*
X99974985Y-82820500D01*
X100001764Y-82920442D01*
X100001767Y-82920449D01*
X100080816Y-83057368D01*
X100080820Y-83057373D01*
X100080821Y-83057375D01*
X100192625Y-83169179D01*
X100192627Y-83169180D01*
X100192631Y-83169183D01*
X100242290Y-83197853D01*
X100329557Y-83248236D01*
X100482284Y-83289159D01*
X100482286Y-83289159D01*
X100640396Y-83289159D01*
X100640398Y-83289159D01*
X100793125Y-83248236D01*
X100930057Y-83169179D01*
X100948660Y-83150576D01*
X101009983Y-83117091D01*
X101079675Y-83122075D01*
X101124022Y-83150576D01*
X101142625Y-83169179D01*
X101142627Y-83169180D01*
X101142631Y-83169183D01*
X101192290Y-83197853D01*
X101279557Y-83248236D01*
X101432284Y-83289159D01*
X101432286Y-83289159D01*
X101590396Y-83289159D01*
X101590398Y-83289159D01*
X101743125Y-83248236D01*
X101880057Y-83169179D01*
X101991861Y-83057375D01*
X102070918Y-82920443D01*
X102111841Y-82767716D01*
X102111841Y-82609602D01*
X102070918Y-82456875D01*
X102008194Y-82348232D01*
X101991865Y-82319949D01*
X101991859Y-82319941D01*
X101880058Y-82208140D01*
X101880050Y-82208134D01*
X101743131Y-82129085D01*
X101743126Y-82129082D01*
X101628417Y-82098346D01*
X101568757Y-82061980D01*
X101538228Y-81999133D01*
X101540735Y-81946481D01*
X101561841Y-81867716D01*
X101561841Y-81709602D01*
X101520918Y-81556875D01*
X101520914Y-81556868D01*
X101441865Y-81419949D01*
X101441859Y-81419941D01*
X101330058Y-81308140D01*
X101330050Y-81308134D01*
X101193131Y-81229085D01*
X101193127Y-81229083D01*
X101193125Y-81229082D01*
X101040398Y-81188159D01*
X100882284Y-81188159D01*
X100729557Y-81229082D01*
X100729550Y-81229085D01*
X100592631Y-81308134D01*
X100592623Y-81308140D01*
X100574022Y-81326742D01*
X100512699Y-81360227D01*
X100443007Y-81355243D01*
X100398660Y-81326742D01*
X100380058Y-81308140D01*
X100380050Y-81308134D01*
X100243131Y-81229085D01*
X100243127Y-81229083D01*
X100243125Y-81229082D01*
X100090398Y-81188159D01*
X99932284Y-81188159D01*
X99779557Y-81229082D01*
X99779550Y-81229085D01*
X99642631Y-81308134D01*
X99642623Y-81308140D01*
X99530822Y-81419941D01*
X99530816Y-81419949D01*
X99451767Y-81556868D01*
X99451764Y-81556875D01*
X99410841Y-81709602D01*
X90300498Y-81709602D01*
X90300498Y-75045943D01*
X99635841Y-75045943D01*
X99635841Y-75204057D01*
X99653167Y-75268716D01*
X99676764Y-75356783D01*
X99676767Y-75356790D01*
X99755816Y-75493709D01*
X99755820Y-75493714D01*
X99755821Y-75493716D01*
X99867625Y-75605520D01*
X99867627Y-75605521D01*
X99867631Y-75605524D01*
X99950414Y-75653318D01*
X100004557Y-75684577D01*
X100157284Y-75725500D01*
X100157286Y-75725500D01*
X100315396Y-75725500D01*
X100315398Y-75725500D01*
X100468125Y-75684577D01*
X100605057Y-75605520D01*
X100716861Y-75493716D01*
X100795918Y-75356784D01*
X100836841Y-75204057D01*
X100836841Y-75045943D01*
X100795918Y-74893216D01*
X100753448Y-74819655D01*
X100716865Y-74756290D01*
X100716862Y-74756287D01*
X100716861Y-74756284D01*
X100716858Y-74756281D01*
X100711915Y-74749839D01*
X100713486Y-74748632D01*
X100685146Y-74696731D01*
X100690130Y-74627039D01*
X100732002Y-74571106D01*
X100744309Y-74562987D01*
X100796216Y-74533020D01*
X100908020Y-74421216D01*
X100987077Y-74284284D01*
X101028000Y-74131557D01*
X101028000Y-73973443D01*
X100987077Y-73820716D01*
X100961844Y-73777011D01*
X100908024Y-73683790D01*
X100908018Y-73683782D01*
X100796217Y-73571981D01*
X100796209Y-73571975D01*
X100659290Y-73492926D01*
X100659286Y-73492924D01*
X100659284Y-73492923D01*
X100506557Y-73452000D01*
X100348443Y-73452000D01*
X100195716Y-73492923D01*
X100195709Y-73492926D01*
X100058790Y-73571975D01*
X100058782Y-73571981D01*
X99946981Y-73683782D01*
X99946975Y-73683790D01*
X99867926Y-73820709D01*
X99867923Y-73820716D01*
X99827000Y-73973443D01*
X99827000Y-74131557D01*
X99859666Y-74253466D01*
X99867923Y-74284283D01*
X99867926Y-74284290D01*
X99946975Y-74421209D01*
X99951926Y-74427661D01*
X99950353Y-74428867D01*
X99978694Y-74480768D01*
X99973710Y-74550460D01*
X99931838Y-74606393D01*
X99919529Y-74614513D01*
X99867625Y-74644479D01*
X99755822Y-74756282D01*
X99755816Y-74756290D01*
X99676767Y-74893209D01*
X99676764Y-74893216D01*
X99635841Y-75045943D01*
X90300498Y-75045943D01*
X90300498Y-72670943D01*
X105399500Y-72670943D01*
X105399500Y-72829057D01*
X105430820Y-72945943D01*
X105440423Y-72981783D01*
X105440426Y-72981790D01*
X105519475Y-73118709D01*
X105519479Y-73118714D01*
X105519480Y-73118716D01*
X105631284Y-73230520D01*
X105631286Y-73230521D01*
X105631290Y-73230524D01*
X105768209Y-73309573D01*
X105768216Y-73309577D01*
X105920943Y-73350500D01*
X105920945Y-73350500D01*
X106079055Y-73350500D01*
X106079057Y-73350500D01*
X106231784Y-73309577D01*
X106368716Y-73230520D01*
X106480520Y-73118716D01*
X106517613Y-73054467D01*
X106568179Y-73006253D01*
X106636786Y-72993029D01*
X106701651Y-73018997D01*
X106732385Y-73054466D01*
X106769480Y-73118716D01*
X106881284Y-73230520D01*
X106881286Y-73230521D01*
X106881290Y-73230524D01*
X107018209Y-73309573D01*
X107018216Y-73309577D01*
X107170943Y-73350500D01*
X107170945Y-73350500D01*
X107329055Y-73350500D01*
X107329057Y-73350500D01*
X107481784Y-73309577D01*
X107618716Y-73230520D01*
X107730520Y-73118716D01*
X107809577Y-72981784D01*
X107850500Y-72829057D01*
X107850500Y-72670943D01*
X107809577Y-72518216D01*
X107772048Y-72453213D01*
X107730524Y-72381290D01*
X107730518Y-72381282D01*
X107618717Y-72269481D01*
X107618709Y-72269475D01*
X107481790Y-72190426D01*
X107481786Y-72190424D01*
X107481784Y-72190423D01*
X107329057Y-72149500D01*
X107170943Y-72149500D01*
X107018216Y-72190423D01*
X107018209Y-72190426D01*
X106881290Y-72269475D01*
X106881282Y-72269481D01*
X106769481Y-72381282D01*
X106769477Y-72381287D01*
X106732387Y-72445531D01*
X106681821Y-72493746D01*
X106613214Y-72506970D01*
X106548349Y-72481002D01*
X106517613Y-72445531D01*
X106480522Y-72381287D01*
X106480518Y-72381282D01*
X106368717Y-72269481D01*
X106368709Y-72269475D01*
X106231790Y-72190426D01*
X106231786Y-72190424D01*
X106231784Y-72190423D01*
X106079057Y-72149500D01*
X105920943Y-72149500D01*
X105768216Y-72190423D01*
X105768209Y-72190426D01*
X105631290Y-72269475D01*
X105631282Y-72269481D01*
X105519481Y-72381282D01*
X105519475Y-72381290D01*
X105440426Y-72518209D01*
X105440423Y-72518216D01*
X105399500Y-72670943D01*
X90300498Y-72670943D01*
X90300498Y-69376412D01*
X90300498Y-59750000D01*
X109172769Y-59750000D01*
X110066988Y-59750000D01*
X110034075Y-59807007D01*
X110000000Y-59934174D01*
X110000000Y-60065826D01*
X110034075Y-60192993D01*
X110066988Y-60250000D01*
X109172769Y-60250000D01*
X109183242Y-60316126D01*
X109183242Y-60316129D01*
X109248904Y-60518217D01*
X109345379Y-60707557D01*
X109470272Y-60879459D01*
X109470276Y-60879464D01*
X109620535Y-61029723D01*
X109620540Y-61029727D01*
X109792442Y-61154620D01*
X109986121Y-61253306D01*
X109985603Y-61254321D01*
X110035808Y-61294779D01*
X110057873Y-61361073D01*
X110040594Y-61428772D01*
X109989458Y-61476383D01*
X109933952Y-61489500D01*
X109630247Y-61489500D01*
X109571770Y-61501131D01*
X109571769Y-61501132D01*
X109505447Y-61545447D01*
X109461132Y-61611769D01*
X109461131Y-61611770D01*
X109449500Y-61670247D01*
X109449500Y-63409752D01*
X109461131Y-63468229D01*
X109461132Y-63468230D01*
X109505447Y-63534552D01*
X109571769Y-63578867D01*
X109571770Y-63578868D01*
X109630247Y-63590499D01*
X109630250Y-63590500D01*
X109630252Y-63590500D01*
X111369750Y-63590500D01*
X111369751Y-63590499D01*
X111384568Y-63587552D01*
X111428229Y-63578868D01*
X111428229Y-63578867D01*
X111428231Y-63578867D01*
X111494552Y-63534552D01*
X111538867Y-63468231D01*
X111538867Y-63468229D01*
X111538868Y-63468229D01*
X111550499Y-63409752D01*
X111550500Y-63409750D01*
X111550500Y-61670249D01*
X111550499Y-61670247D01*
X111538868Y-61611770D01*
X111538867Y-61611769D01*
X111494552Y-61545447D01*
X111428230Y-61501132D01*
X111428229Y-61501131D01*
X111369752Y-61489500D01*
X111369748Y-61489500D01*
X111066048Y-61489500D01*
X110999009Y-61469815D01*
X110953254Y-61417011D01*
X110943310Y-61347853D01*
X110972335Y-61284297D01*
X111014264Y-61254061D01*
X111013879Y-61253306D01*
X111207557Y-61154620D01*
X111379459Y-61029727D01*
X111379464Y-61029723D01*
X111529723Y-60879464D01*
X111529727Y-60879459D01*
X111654620Y-60707557D01*
X111751095Y-60518217D01*
X111816757Y-60316129D01*
X111816757Y-60316126D01*
X111827231Y-60250000D01*
X110933012Y-60250000D01*
X110965925Y-60192993D01*
X111000000Y-60065826D01*
X111000000Y-59934174D01*
X110965925Y-59807007D01*
X110933012Y-59750000D01*
X111827231Y-59750000D01*
X111816758Y-59683874D01*
X111814244Y-59676138D01*
X111814243Y-59676136D01*
X111814243Y-59676134D01*
X111804433Y-59645943D01*
X124374500Y-59645943D01*
X124374500Y-59804057D01*
X124414411Y-59953005D01*
X124415423Y-59956783D01*
X124415426Y-59956790D01*
X124494475Y-60093709D01*
X124494479Y-60093714D01*
X124494480Y-60093716D01*
X124606284Y-60205520D01*
X124606286Y-60205521D01*
X124606290Y-60205524D01*
X124683326Y-60250000D01*
X124743216Y-60284577D01*
X124895943Y-60325500D01*
X124895945Y-60325500D01*
X125062185Y-60325500D01*
X125062185Y-60328683D01*
X125116398Y-60337102D01*
X125151302Y-60361629D01*
X126178181Y-61388508D01*
X126192884Y-61415435D01*
X126209477Y-61441254D01*
X126210368Y-61447454D01*
X126211666Y-61449831D01*
X126214500Y-61476189D01*
X126214500Y-61535169D01*
X126194815Y-61602208D01*
X126175982Y-61622684D01*
X126177031Y-61623733D01*
X126059481Y-61741282D01*
X126059475Y-61741290D01*
X125980426Y-61878209D01*
X125980423Y-61878216D01*
X125939500Y-62030943D01*
X125939500Y-62189056D01*
X125980423Y-62341783D01*
X125980426Y-62341790D01*
X126059475Y-62478709D01*
X126059479Y-62478714D01*
X126059480Y-62478716D01*
X126171284Y-62590520D01*
X126171286Y-62590521D01*
X126171290Y-62590524D01*
X126308209Y-62669573D01*
X126308216Y-62669577D01*
X126460943Y-62710500D01*
X126460945Y-62710500D01*
X126619055Y-62710500D01*
X126619057Y-62710500D01*
X126771784Y-62669577D01*
X126908716Y-62590520D01*
X127020520Y-62478716D01*
X127099577Y-62341784D01*
X127140500Y-62189057D01*
X127140500Y-62030943D01*
X127099577Y-61878216D01*
X127049816Y-61792026D01*
X127020524Y-61741290D01*
X127020518Y-61741282D01*
X126902969Y-61623733D01*
X126905207Y-61621494D01*
X126872798Y-61577080D01*
X126865500Y-61535169D01*
X126865500Y-61247149D01*
X126865500Y-61247147D01*
X126843318Y-61164362D01*
X126843318Y-61164361D01*
X126800465Y-61090138D01*
X125611629Y-59901302D01*
X125578144Y-59839979D01*
X125576994Y-59812185D01*
X125575500Y-59812185D01*
X125575500Y-59645945D01*
X125575500Y-59645943D01*
X125534577Y-59493216D01*
X125485145Y-59407596D01*
X125455524Y-59356290D01*
X125455518Y-59356282D01*
X125343717Y-59244481D01*
X125343709Y-59244475D01*
X125206790Y-59165426D01*
X125206786Y-59165424D01*
X125206784Y-59165423D01*
X125054057Y-59124500D01*
X124895943Y-59124500D01*
X124743216Y-59165423D01*
X124743209Y-59165426D01*
X124606290Y-59244475D01*
X124606282Y-59244481D01*
X124494481Y-59356282D01*
X124494475Y-59356290D01*
X124415426Y-59493209D01*
X124415423Y-59493216D01*
X124374500Y-59645943D01*
X111804433Y-59645943D01*
X111751095Y-59481782D01*
X111654620Y-59292442D01*
X111529727Y-59120540D01*
X111529723Y-59120535D01*
X111379464Y-58970276D01*
X111379459Y-58970272D01*
X111283785Y-58900761D01*
X111207557Y-58845379D01*
X111131312Y-58806530D01*
X140179500Y-58806530D01*
X140179500Y-59013469D01*
X140219868Y-59216412D01*
X140219870Y-59216420D01*
X140299058Y-59407596D01*
X140414024Y-59579657D01*
X140560342Y-59725975D01*
X140560345Y-59725977D01*
X140732402Y-59840941D01*
X140923580Y-59920130D01*
X141126530Y-59960499D01*
X141126534Y-59960500D01*
X141126535Y-59960500D01*
X141333466Y-59960500D01*
X141333467Y-59960499D01*
X141536420Y-59920130D01*
X141727598Y-59840941D01*
X141899655Y-59725977D01*
X142045977Y-59579655D01*
X142160941Y-59407598D01*
X142240130Y-59216420D01*
X142280500Y-59013465D01*
X142280500Y-58806535D01*
X142240130Y-58603580D01*
X142160941Y-58412402D01*
X142045977Y-58240345D01*
X142045975Y-58240342D01*
X141899657Y-58094024D01*
X141813626Y-58036541D01*
X141727598Y-57979059D01*
X141536420Y-57899870D01*
X141536412Y-57899868D01*
X141333469Y-57859500D01*
X141333465Y-57859500D01*
X141126535Y-57859500D01*
X141126530Y-57859500D01*
X140923587Y-57899868D01*
X140923579Y-57899870D01*
X140732403Y-57979058D01*
X140560342Y-58094024D01*
X140414024Y-58240342D01*
X140299058Y-58412403D01*
X140219870Y-58603579D01*
X140219868Y-58603587D01*
X140179500Y-58806530D01*
X111131312Y-58806530D01*
X111018216Y-58748904D01*
X110842026Y-58691656D01*
X110784350Y-58652218D01*
X110757152Y-58587860D01*
X110769067Y-58519013D01*
X110816311Y-58467538D01*
X110832882Y-58459168D01*
X110997598Y-58390941D01*
X111169655Y-58275977D01*
X111315977Y-58129655D01*
X111430941Y-57957598D01*
X111510130Y-57766420D01*
X111550500Y-57563465D01*
X111550500Y-57356535D01*
X111510130Y-57153580D01*
X111430941Y-56962402D01*
X111315977Y-56790345D01*
X111315975Y-56790342D01*
X111169657Y-56644024D01*
X111083626Y-56586541D01*
X110997598Y-56529059D01*
X110863385Y-56473466D01*
X110806420Y-56449870D01*
X110806412Y-56449868D01*
X110603469Y-56409500D01*
X110603465Y-56409500D01*
X110396535Y-56409500D01*
X110396530Y-56409500D01*
X110193587Y-56449868D01*
X110193579Y-56449870D01*
X110002403Y-56529058D01*
X109830342Y-56644024D01*
X109684024Y-56790342D01*
X109569058Y-56962403D01*
X109489870Y-57153579D01*
X109489868Y-57153587D01*
X109449500Y-57356530D01*
X109449500Y-57563469D01*
X109489868Y-57766412D01*
X109489870Y-57766420D01*
X109569058Y-57957596D01*
X109684024Y-58129657D01*
X109830342Y-58275975D01*
X110002405Y-58390943D01*
X110105043Y-58433456D01*
X110167108Y-58459164D01*
X110221511Y-58503005D01*
X110243576Y-58569299D01*
X110226297Y-58636998D01*
X110175160Y-58684609D01*
X110157974Y-58691656D01*
X109981781Y-58748905D01*
X109792442Y-58845379D01*
X109620540Y-58970272D01*
X109620535Y-58970276D01*
X109470276Y-59120535D01*
X109470272Y-59120540D01*
X109345379Y-59292442D01*
X109248904Y-59481782D01*
X109183242Y-59683870D01*
X109183242Y-59683873D01*
X109172769Y-59750000D01*
X90300498Y-59750000D01*
X90300498Y-55500247D01*
X140179500Y-55500247D01*
X140179500Y-57239752D01*
X140191131Y-57298229D01*
X140191132Y-57298230D01*
X140235447Y-57364552D01*
X140301769Y-57408867D01*
X140301770Y-57408868D01*
X140360247Y-57420499D01*
X140360250Y-57420500D01*
X140360252Y-57420500D01*
X142099750Y-57420500D01*
X142099751Y-57420499D01*
X142114568Y-57417552D01*
X142158229Y-57408868D01*
X142158229Y-57408867D01*
X142158231Y-57408867D01*
X142224552Y-57364552D01*
X142268867Y-57298231D01*
X142268867Y-57298229D01*
X142268868Y-57298229D01*
X142280499Y-57239752D01*
X142280500Y-57239750D01*
X142280500Y-56266530D01*
X142719500Y-56266530D01*
X142719500Y-56473469D01*
X142759868Y-56676412D01*
X142759870Y-56676420D01*
X142839058Y-56867596D01*
X142954024Y-57039657D01*
X143100342Y-57185975D01*
X143100345Y-57185977D01*
X143272402Y-57300941D01*
X143463580Y-57380130D01*
X143608052Y-57408867D01*
X143666530Y-57420499D01*
X143666534Y-57420500D01*
X143666535Y-57420500D01*
X143873466Y-57420500D01*
X143873467Y-57420499D01*
X144076420Y-57380130D01*
X144267598Y-57300941D01*
X144439655Y-57185977D01*
X144585977Y-57039655D01*
X144700941Y-56867598D01*
X144780130Y-56676420D01*
X144820500Y-56473465D01*
X144820500Y-56266535D01*
X144780130Y-56063580D01*
X144700941Y-55872402D01*
X144585977Y-55700345D01*
X144585975Y-55700342D01*
X144439657Y-55554024D01*
X144271655Y-55441770D01*
X144267598Y-55439059D01*
X144076420Y-55359870D01*
X144076412Y-55359868D01*
X143873469Y-55319500D01*
X143873465Y-55319500D01*
X143666535Y-55319500D01*
X143666530Y-55319500D01*
X143463587Y-55359868D01*
X143463579Y-55359870D01*
X143272403Y-55439058D01*
X143100342Y-55554024D01*
X142954024Y-55700342D01*
X142839058Y-55872403D01*
X142759870Y-56063579D01*
X142759868Y-56063587D01*
X142719500Y-56266530D01*
X142280500Y-56266530D01*
X142280500Y-55500249D01*
X142280499Y-55500247D01*
X142268868Y-55441770D01*
X142268867Y-55441769D01*
X142224552Y-55375447D01*
X142158230Y-55331132D01*
X142158229Y-55331131D01*
X142099752Y-55319500D01*
X142099748Y-55319500D01*
X140360252Y-55319500D01*
X140360247Y-55319500D01*
X140301770Y-55331131D01*
X140301769Y-55331132D01*
X140235447Y-55375447D01*
X140191132Y-55441769D01*
X140191131Y-55441770D01*
X140179500Y-55500247D01*
X90300498Y-55500247D01*
X90300498Y-51011872D01*
X90300691Y-51004993D01*
X90307191Y-50889260D01*
X90330603Y-50823434D01*
X90343674Y-50808178D01*
X90545751Y-50607814D01*
X90607213Y-50574593D01*
X90676883Y-50579874D01*
X90732638Y-50621983D01*
X90756776Y-50687551D01*
X90753946Y-50723463D01*
X90685840Y-51021855D01*
X90685837Y-51021869D01*
X90650000Y-51339940D01*
X90650000Y-51660059D01*
X90685837Y-51978130D01*
X90685840Y-51978144D01*
X90757070Y-52290227D01*
X90757073Y-52290235D01*
X90862795Y-52592369D01*
X91001681Y-52880768D01*
X91171988Y-53151810D01*
X91315134Y-53331311D01*
X92384728Y-52261716D01*
X92470278Y-52379466D01*
X92620534Y-52529722D01*
X92738281Y-52615270D01*
X91668687Y-53684864D01*
X91848189Y-53828011D01*
X92119231Y-53998318D01*
X92407630Y-54137204D01*
X92709764Y-54242926D01*
X92709772Y-54242929D01*
X93021855Y-54314159D01*
X93021869Y-54314162D01*
X93339940Y-54349999D01*
X93339944Y-54350000D01*
X93660056Y-54350000D01*
X93660059Y-54349999D01*
X93978130Y-54314162D01*
X93978144Y-54314159D01*
X94290227Y-54242929D01*
X94290235Y-54242926D01*
X94592369Y-54137204D01*
X94880768Y-53998318D01*
X95151810Y-53828011D01*
X95331311Y-53684863D01*
X94261718Y-52615270D01*
X94379466Y-52529722D01*
X94529722Y-52379466D01*
X94615270Y-52261718D01*
X95684863Y-53331311D01*
X95828011Y-53151810D01*
X95998318Y-52880768D01*
X96137204Y-52592369D01*
X96242926Y-52290235D01*
X96242929Y-52290227D01*
X96314159Y-51978144D01*
X96314162Y-51978130D01*
X96349999Y-51660059D01*
X96350000Y-51660055D01*
X96350000Y-51339944D01*
X96349999Y-51339940D01*
X96314162Y-51021869D01*
X96314159Y-51021855D01*
X96242929Y-50709772D01*
X96240828Y-50703767D01*
X96240827Y-50703764D01*
X96229342Y-50670943D01*
X137024500Y-50670943D01*
X137024500Y-50829057D01*
X137059704Y-50960438D01*
X137065423Y-50981783D01*
X137065426Y-50981790D01*
X137144475Y-51118709D01*
X137144479Y-51118714D01*
X137144480Y-51118716D01*
X137256284Y-51230520D01*
X137256286Y-51230521D01*
X137256290Y-51230524D01*
X137393209Y-51309573D01*
X137393216Y-51309577D01*
X137545943Y-51350500D01*
X137545945Y-51350500D01*
X137704055Y-51350500D01*
X137704057Y-51350500D01*
X137856784Y-51309577D01*
X137993716Y-51230520D01*
X138105520Y-51118716D01*
X138184577Y-50981784D01*
X138225500Y-50829057D01*
X138225500Y-50670943D01*
X138184577Y-50518216D01*
X138156900Y-50470278D01*
X138105524Y-50381290D01*
X138105518Y-50381282D01*
X137993717Y-50269481D01*
X137993709Y-50269475D01*
X137856790Y-50190426D01*
X137856786Y-50190424D01*
X137856784Y-50190423D01*
X137704057Y-50149500D01*
X137545943Y-50149500D01*
X137393216Y-50190423D01*
X137393209Y-50190426D01*
X137256290Y-50269475D01*
X137256282Y-50269481D01*
X137144481Y-50381282D01*
X137144475Y-50381290D01*
X137065426Y-50518209D01*
X137065423Y-50518216D01*
X137024500Y-50670943D01*
X96229342Y-50670943D01*
X96137204Y-50407630D01*
X95998318Y-50119231D01*
X95828011Y-49848189D01*
X95684864Y-49668687D01*
X94615270Y-50738281D01*
X94529722Y-50620534D01*
X94379466Y-50470278D01*
X94261716Y-50384728D01*
X95331311Y-49315134D01*
X95151810Y-49171988D01*
X94880768Y-49001681D01*
X94592369Y-48862795D01*
X94290235Y-48757073D01*
X94290227Y-48757070D01*
X93978144Y-48685840D01*
X93978130Y-48685837D01*
X93660059Y-48650000D01*
X93339940Y-48650000D01*
X93021869Y-48685837D01*
X93021851Y-48685840D01*
X92746365Y-48748718D01*
X92676626Y-48744445D01*
X92620269Y-48703146D01*
X92595186Y-48637934D01*
X92609340Y-48569513D01*
X92631459Y-48539781D01*
X92831249Y-48341685D01*
X92855070Y-48328809D01*
X92877001Y-48312910D01*
X92888935Y-48310504D01*
X92892709Y-48308465D01*
X92911593Y-48305937D01*
X93004956Y-48300694D01*
X93011908Y-48300500D01*
X142988092Y-48300500D01*
X142995043Y-48300694D01*
G37*
%TD.AperFunction*%
%TD*%
M02*
