%TF.GenerationSoftware,KiCad,Pcbnew,7.0.10*%
%TF.CreationDate,2024-05-04T16:42:37-07:00*%
%TF.ProjectId,Z_Panels,5a5f5061-6e65-46c7-932e-6b696361645f,rev?*%
%TF.SameCoordinates,Original*%
%TF.FileFunction,Legend,Top*%
%TF.FilePolarity,Positive*%
%FSLAX46Y46*%
G04 Gerber Fmt 4.6, Leading zero omitted, Abs format (unit mm)*
G04 Created by KiCad (PCBNEW 7.0.10) date 2024-05-04 16:42:37*
%MOMM*%
%LPD*%
G01*
G04 APERTURE LIST*
G04 Aperture macros list*
%AMRoundRect*
0 Rectangle with rounded corners*
0 $1 Rounding radius*
0 $2 $3 $4 $5 $6 $7 $8 $9 X,Y pos of 4 corners*
0 Add a 4 corners polygon primitive as box body*
4,1,4,$2,$3,$4,$5,$6,$7,$8,$9,$2,$3,0*
0 Add four circle primitives for the rounded corners*
1,1,$1+$1,$2,$3*
1,1,$1+$1,$4,$5*
1,1,$1+$1,$6,$7*
1,1,$1+$1,$8,$9*
0 Add four rect primitives between the rounded corners*
20,1,$1+$1,$2,$3,$4,$5,0*
20,1,$1+$1,$4,$5,$6,$7,0*
20,1,$1+$1,$6,$7,$8,$9,0*
20,1,$1+$1,$8,$9,$2,$3,0*%
%AMFreePoly0*
4,1,5,2.000000,-5.500000,-2.000000,-5.500000,-2.000000,5.500000,2.000000,5.500000,2.000000,-5.500000,2.000000,-5.500000,$1*%
G04 Aperture macros list end*
%ADD10C,0.150000*%
%ADD11C,0.200000*%
%ADD12C,0.300000*%
%ADD13C,0.075000*%
%ADD14C,0.100000*%
%ADD15C,0.250000*%
%ADD16C,0.120000*%
%ADD17C,0.152400*%
%ADD18FreePoly0,90.000000*%
%ADD19R,11.000000X4.000000*%
%ADD20R,1.000000X4.000000*%
%ADD21C,3.000000*%
%ADD22C,2.600000*%
%ADD23C,3.800000*%
%ADD24R,0.533400X1.460500*%
%ADD25RoundRect,0.187500X-0.562500X-0.862500X0.562500X-0.862500X0.562500X0.862500X-0.562500X0.862500X0*%
%ADD26RoundRect,0.162500X-0.587500X-0.487500X0.587500X-0.487500X0.587500X0.487500X-0.587500X0.487500X0*%
%ADD27RoundRect,0.175000X-0.525000X-0.825000X0.525000X-0.825000X0.525000X0.825000X-0.525000X0.825000X0*%
%ADD28RoundRect,0.150000X-0.550000X-0.450000X0.550000X-0.450000X0.550000X0.450000X-0.550000X0.450000X0*%
%ADD29R,0.350000X1.000000*%
%ADD30C,2.050000*%
%ADD31C,2.250000*%
G04 APERTURE END LIST*
D10*
X171746000Y-56000000D02*
X172000000Y-56000000D01*
X171746000Y-56000000D02*
X171492000Y-56000000D01*
X157124013Y-63956531D02*
X182124013Y-63956531D01*
X182124013Y-88956531D01*
X157124013Y-88956531D01*
X157124013Y-63956531D01*
D11*
X216712100Y-46237500D02*
X216712100Y-45094643D01*
X216283528Y-44326785D02*
X216712100Y-43237500D01*
X216712100Y-43237500D02*
X217140671Y-44433928D01*
X216987900Y-130662499D02*
X216987900Y-131805357D01*
X217416471Y-132573214D02*
X216987900Y-133662500D01*
X216987900Y-133662500D02*
X216559328Y-132466071D01*
D12*
X216096428Y-47184638D02*
X217179761Y-49184638D01*
X217429761Y-47184638D02*
X215846428Y-49184638D01*
D13*
X181177409Y-98113095D02*
X181177409Y-98017857D01*
X181177409Y-98017857D02*
X181201219Y-97970238D01*
X181201219Y-97970238D02*
X181248838Y-97922619D01*
X181248838Y-97922619D02*
X181344076Y-97898809D01*
X181344076Y-97898809D02*
X181510742Y-97898809D01*
X181510742Y-97898809D02*
X181605980Y-97922619D01*
X181605980Y-97922619D02*
X181653600Y-97970238D01*
X181653600Y-97970238D02*
X181677409Y-98017857D01*
X181677409Y-98017857D02*
X181677409Y-98113095D01*
X181677409Y-98113095D02*
X181653600Y-98160714D01*
X181653600Y-98160714D02*
X181605980Y-98208333D01*
X181605980Y-98208333D02*
X181510742Y-98232142D01*
X181510742Y-98232142D02*
X181344076Y-98232142D01*
X181344076Y-98232142D02*
X181248838Y-98208333D01*
X181248838Y-98208333D02*
X181201219Y-98160714D01*
X181201219Y-98160714D02*
X181177409Y-98113095D01*
X181177409Y-97684523D02*
X181582171Y-97684523D01*
X181582171Y-97684523D02*
X181629790Y-97660713D01*
X181629790Y-97660713D02*
X181653600Y-97636904D01*
X181653600Y-97636904D02*
X181677409Y-97589285D01*
X181677409Y-97589285D02*
X181677409Y-97494047D01*
X181677409Y-97494047D02*
X181653600Y-97446428D01*
X181653600Y-97446428D02*
X181629790Y-97422618D01*
X181629790Y-97422618D02*
X181582171Y-97398809D01*
X181582171Y-97398809D02*
X181177409Y-97398809D01*
X181177409Y-97232141D02*
X181177409Y-96946427D01*
X181677409Y-97089284D02*
X181177409Y-97089284D01*
X181225028Y-96803570D02*
X181201219Y-96779761D01*
X181201219Y-96779761D02*
X181177409Y-96732142D01*
X181177409Y-96732142D02*
X181177409Y-96613094D01*
X181177409Y-96613094D02*
X181201219Y-96565475D01*
X181201219Y-96565475D02*
X181225028Y-96541666D01*
X181225028Y-96541666D02*
X181272647Y-96517856D01*
X181272647Y-96517856D02*
X181320266Y-96517856D01*
X181320266Y-96517856D02*
X181391695Y-96541666D01*
X181391695Y-96541666D02*
X181677409Y-96827380D01*
X181677409Y-96827380D02*
X181677409Y-96517856D01*
D14*
X194174122Y-47096800D02*
X194269955Y-47130133D01*
X194269955Y-47130133D02*
X194436622Y-47130133D01*
X194436622Y-47130133D02*
X194507455Y-47096800D01*
X194507455Y-47096800D02*
X194544955Y-47063466D01*
X194544955Y-47063466D02*
X194586622Y-46996800D01*
X194586622Y-46996800D02*
X194594955Y-46930133D01*
X194594955Y-46930133D02*
X194569955Y-46863466D01*
X194569955Y-46863466D02*
X194540789Y-46830133D01*
X194540789Y-46830133D02*
X194478289Y-46796800D01*
X194478289Y-46796800D02*
X194349122Y-46763466D01*
X194349122Y-46763466D02*
X194286622Y-46730133D01*
X194286622Y-46730133D02*
X194257455Y-46696800D01*
X194257455Y-46696800D02*
X194232455Y-46630133D01*
X194232455Y-46630133D02*
X194240789Y-46563466D01*
X194240789Y-46563466D02*
X194282455Y-46496800D01*
X194282455Y-46496800D02*
X194319955Y-46463466D01*
X194319955Y-46463466D02*
X194390789Y-46430133D01*
X194390789Y-46430133D02*
X194557455Y-46430133D01*
X194557455Y-46430133D02*
X194653289Y-46463466D01*
X194828289Y-46663466D02*
X195094956Y-46663466D01*
X194957456Y-46430133D02*
X194882456Y-47030133D01*
X194882456Y-47030133D02*
X194907456Y-47096800D01*
X194907456Y-47096800D02*
X194969956Y-47130133D01*
X194969956Y-47130133D02*
X195036622Y-47130133D01*
X195569956Y-47130133D02*
X195615789Y-46763466D01*
X195615789Y-46763466D02*
X195590789Y-46696800D01*
X195590789Y-46696800D02*
X195528289Y-46663466D01*
X195528289Y-46663466D02*
X195394956Y-46663466D01*
X195394956Y-46663466D02*
X195324122Y-46696800D01*
X195574122Y-47096800D02*
X195503289Y-47130133D01*
X195503289Y-47130133D02*
X195336622Y-47130133D01*
X195336622Y-47130133D02*
X195274122Y-47096800D01*
X195274122Y-47096800D02*
X195249122Y-47030133D01*
X195249122Y-47030133D02*
X195257456Y-46963466D01*
X195257456Y-46963466D02*
X195299122Y-46896800D01*
X195299122Y-46896800D02*
X195369956Y-46863466D01*
X195369956Y-46863466D02*
X195536622Y-46863466D01*
X195536622Y-46863466D02*
X195607456Y-46830133D01*
X195961622Y-46663466D02*
X195903289Y-47130133D01*
X195953289Y-46730133D02*
X195990789Y-46696800D01*
X195990789Y-46696800D02*
X196061622Y-46663466D01*
X196061622Y-46663466D02*
X196161622Y-46663466D01*
X196161622Y-46663466D02*
X196224122Y-46696800D01*
X196224122Y-46696800D02*
X196249122Y-46763466D01*
X196249122Y-46763466D02*
X196203289Y-47130133D01*
X196494955Y-46663466D02*
X196761622Y-46663466D01*
X196536622Y-47130133D02*
X196611622Y-46530133D01*
X196611622Y-46530133D02*
X196653288Y-46463466D01*
X196653288Y-46463466D02*
X196724122Y-46430133D01*
X196724122Y-46430133D02*
X196790788Y-46430133D01*
X197036622Y-47130133D02*
X196974122Y-47096800D01*
X196974122Y-47096800D02*
X196944955Y-47063466D01*
X196944955Y-47063466D02*
X196919955Y-46996800D01*
X196919955Y-46996800D02*
X196944955Y-46796800D01*
X196944955Y-46796800D02*
X196986622Y-46730133D01*
X196986622Y-46730133D02*
X197024122Y-46696800D01*
X197024122Y-46696800D02*
X197094955Y-46663466D01*
X197094955Y-46663466D02*
X197194955Y-46663466D01*
X197194955Y-46663466D02*
X197257455Y-46696800D01*
X197257455Y-46696800D02*
X197286622Y-46730133D01*
X197286622Y-46730133D02*
X197311622Y-46796800D01*
X197311622Y-46796800D02*
X197286622Y-46996800D01*
X197286622Y-46996800D02*
X197244955Y-47063466D01*
X197244955Y-47063466D02*
X197207455Y-47096800D01*
X197207455Y-47096800D02*
X197136622Y-47130133D01*
X197136622Y-47130133D02*
X197036622Y-47130133D01*
X197569955Y-47130133D02*
X197628288Y-46663466D01*
X197611621Y-46796800D02*
X197653288Y-46730133D01*
X197653288Y-46730133D02*
X197690788Y-46696800D01*
X197690788Y-46696800D02*
X197761621Y-46663466D01*
X197761621Y-46663466D02*
X197828288Y-46663466D01*
X198303288Y-47130133D02*
X198390788Y-46430133D01*
X198307454Y-47096800D02*
X198236621Y-47130133D01*
X198236621Y-47130133D02*
X198103288Y-47130133D01*
X198103288Y-47130133D02*
X198040788Y-47096800D01*
X198040788Y-47096800D02*
X198011621Y-47063466D01*
X198011621Y-47063466D02*
X197986621Y-46996800D01*
X197986621Y-46996800D02*
X198011621Y-46796800D01*
X198011621Y-46796800D02*
X198053288Y-46730133D01*
X198053288Y-46730133D02*
X198090788Y-46696800D01*
X198090788Y-46696800D02*
X198161621Y-46663466D01*
X198161621Y-46663466D02*
X198294954Y-46663466D01*
X198294954Y-46663466D02*
X198357454Y-46696800D01*
X199140787Y-47096800D02*
X199236620Y-47130133D01*
X199236620Y-47130133D02*
X199403287Y-47130133D01*
X199403287Y-47130133D02*
X199474120Y-47096800D01*
X199474120Y-47096800D02*
X199511620Y-47063466D01*
X199511620Y-47063466D02*
X199553287Y-46996800D01*
X199553287Y-46996800D02*
X199561620Y-46930133D01*
X199561620Y-46930133D02*
X199536620Y-46863466D01*
X199536620Y-46863466D02*
X199507454Y-46830133D01*
X199507454Y-46830133D02*
X199444954Y-46796800D01*
X199444954Y-46796800D02*
X199315787Y-46763466D01*
X199315787Y-46763466D02*
X199253287Y-46730133D01*
X199253287Y-46730133D02*
X199224120Y-46696800D01*
X199224120Y-46696800D02*
X199199120Y-46630133D01*
X199199120Y-46630133D02*
X199207454Y-46563466D01*
X199207454Y-46563466D02*
X199249120Y-46496800D01*
X199249120Y-46496800D02*
X199286620Y-46463466D01*
X199286620Y-46463466D02*
X199357454Y-46430133D01*
X199357454Y-46430133D02*
X199524120Y-46430133D01*
X199524120Y-46430133D02*
X199619954Y-46463466D01*
X199807454Y-47096800D02*
X199903287Y-47130133D01*
X199903287Y-47130133D02*
X200069954Y-47130133D01*
X200069954Y-47130133D02*
X200140787Y-47096800D01*
X200140787Y-47096800D02*
X200178287Y-47063466D01*
X200178287Y-47063466D02*
X200219954Y-46996800D01*
X200219954Y-46996800D02*
X200228287Y-46930133D01*
X200228287Y-46930133D02*
X200203287Y-46863466D01*
X200203287Y-46863466D02*
X200174121Y-46830133D01*
X200174121Y-46830133D02*
X200111621Y-46796800D01*
X200111621Y-46796800D02*
X199982454Y-46763466D01*
X199982454Y-46763466D02*
X199919954Y-46730133D01*
X199919954Y-46730133D02*
X199890787Y-46696800D01*
X199890787Y-46696800D02*
X199865787Y-46630133D01*
X199865787Y-46630133D02*
X199874121Y-46563466D01*
X199874121Y-46563466D02*
X199915787Y-46496800D01*
X199915787Y-46496800D02*
X199953287Y-46463466D01*
X199953287Y-46463466D02*
X200024121Y-46430133D01*
X200024121Y-46430133D02*
X200190787Y-46430133D01*
X200190787Y-46430133D02*
X200286621Y-46463466D01*
X200503288Y-47130133D02*
X200590788Y-46430133D01*
X194203289Y-48257133D02*
X194290789Y-47557133D01*
X194603289Y-48257133D02*
X194353289Y-47857133D01*
X194690789Y-47557133D02*
X194240789Y-47957133D01*
X195203289Y-48257133D02*
X195249122Y-47890466D01*
X195249122Y-47890466D02*
X195224122Y-47823800D01*
X195224122Y-47823800D02*
X195161622Y-47790466D01*
X195161622Y-47790466D02*
X195028289Y-47790466D01*
X195028289Y-47790466D02*
X194957455Y-47823800D01*
X195207455Y-48223800D02*
X195136622Y-48257133D01*
X195136622Y-48257133D02*
X194969955Y-48257133D01*
X194969955Y-48257133D02*
X194907455Y-48223800D01*
X194907455Y-48223800D02*
X194882455Y-48157133D01*
X194882455Y-48157133D02*
X194890789Y-48090466D01*
X194890789Y-48090466D02*
X194932455Y-48023800D01*
X194932455Y-48023800D02*
X195003289Y-47990466D01*
X195003289Y-47990466D02*
X195169955Y-47990466D01*
X195169955Y-47990466D02*
X195240789Y-47957133D01*
X195536622Y-48257133D02*
X195594955Y-47790466D01*
X195624122Y-47557133D02*
X195586622Y-47590466D01*
X195586622Y-47590466D02*
X195615788Y-47623800D01*
X195615788Y-47623800D02*
X195653288Y-47590466D01*
X195653288Y-47590466D02*
X195624122Y-47557133D01*
X195624122Y-47557133D02*
X195615788Y-47623800D01*
X195828288Y-47790466D02*
X196094955Y-47790466D01*
X195957455Y-47557133D02*
X195882455Y-48157133D01*
X195882455Y-48157133D02*
X195907455Y-48223800D01*
X195907455Y-48223800D02*
X195969955Y-48257133D01*
X195969955Y-48257133D02*
X196036621Y-48257133D01*
X196369955Y-48257133D02*
X196307455Y-48223800D01*
X196307455Y-48223800D02*
X196282455Y-48157133D01*
X196282455Y-48157133D02*
X196357455Y-47557133D01*
X196628288Y-47790466D02*
X196736622Y-48257133D01*
X196961622Y-47790466D02*
X196736622Y-48257133D01*
X196736622Y-48257133D02*
X196649122Y-48423800D01*
X196649122Y-48423800D02*
X196611622Y-48457133D01*
X196611622Y-48457133D02*
X196540788Y-48490466D01*
X197228288Y-47790466D02*
X197169955Y-48257133D01*
X197219955Y-47857133D02*
X197257455Y-47823800D01*
X197257455Y-47823800D02*
X197328288Y-47790466D01*
X197328288Y-47790466D02*
X197428288Y-47790466D01*
X197428288Y-47790466D02*
X197490788Y-47823800D01*
X197490788Y-47823800D02*
X197515788Y-47890466D01*
X197515788Y-47890466D02*
X197469955Y-48257133D01*
X198669954Y-48257133D02*
X198336621Y-48257133D01*
X198336621Y-48257133D02*
X198424121Y-47557133D01*
X199174121Y-48223800D02*
X199103288Y-48257133D01*
X199103288Y-48257133D02*
X198969954Y-48257133D01*
X198969954Y-48257133D02*
X198907454Y-48223800D01*
X198907454Y-48223800D02*
X198882454Y-48157133D01*
X198882454Y-48157133D02*
X198915788Y-47890466D01*
X198915788Y-47890466D02*
X198957454Y-47823800D01*
X198957454Y-47823800D02*
X199028288Y-47790466D01*
X199028288Y-47790466D02*
X199161621Y-47790466D01*
X199161621Y-47790466D02*
X199224121Y-47823800D01*
X199224121Y-47823800D02*
X199249121Y-47890466D01*
X199249121Y-47890466D02*
X199240788Y-47957133D01*
X199240788Y-47957133D02*
X198899121Y-48023800D01*
X199503288Y-48257133D02*
X199561621Y-47790466D01*
X199590788Y-47557133D02*
X199553288Y-47590466D01*
X199553288Y-47590466D02*
X199582454Y-47623800D01*
X199582454Y-47623800D02*
X199619954Y-47590466D01*
X199619954Y-47590466D02*
X199590788Y-47557133D01*
X199590788Y-47557133D02*
X199582454Y-47623800D01*
X199794954Y-47790466D02*
X200061621Y-47790466D01*
X199924121Y-47557133D02*
X199849121Y-48157133D01*
X199849121Y-48157133D02*
X199874121Y-48223800D01*
X199874121Y-48223800D02*
X199936621Y-48257133D01*
X199936621Y-48257133D02*
X200003287Y-48257133D01*
X200236621Y-48257133D02*
X200324121Y-47557133D01*
X200536621Y-48257133D02*
X200582454Y-47890466D01*
X200582454Y-47890466D02*
X200557454Y-47823800D01*
X200557454Y-47823800D02*
X200494954Y-47790466D01*
X200494954Y-47790466D02*
X200394954Y-47790466D01*
X200394954Y-47790466D02*
X200324121Y-47823800D01*
X200324121Y-47823800D02*
X200286621Y-47857133D01*
X201140787Y-48223800D02*
X201069954Y-48257133D01*
X201069954Y-48257133D02*
X200936620Y-48257133D01*
X200936620Y-48257133D02*
X200874120Y-48223800D01*
X200874120Y-48223800D02*
X200849120Y-48157133D01*
X200849120Y-48157133D02*
X200882454Y-47890466D01*
X200882454Y-47890466D02*
X200924120Y-47823800D01*
X200924120Y-47823800D02*
X200994954Y-47790466D01*
X200994954Y-47790466D02*
X201128287Y-47790466D01*
X201128287Y-47790466D02*
X201190787Y-47823800D01*
X201190787Y-47823800D02*
X201215787Y-47890466D01*
X201215787Y-47890466D02*
X201207454Y-47957133D01*
X201207454Y-47957133D02*
X200865787Y-48023800D01*
X201469954Y-48257133D02*
X201528287Y-47790466D01*
X201511620Y-47923800D02*
X201553287Y-47857133D01*
X201553287Y-47857133D02*
X201590787Y-47823800D01*
X201590787Y-47823800D02*
X201661620Y-47790466D01*
X201661620Y-47790466D02*
X201728287Y-47790466D01*
X202174120Y-48223800D02*
X202103287Y-48257133D01*
X202103287Y-48257133D02*
X201969953Y-48257133D01*
X201969953Y-48257133D02*
X201907453Y-48223800D01*
X201907453Y-48223800D02*
X201882453Y-48157133D01*
X201882453Y-48157133D02*
X201915787Y-47890466D01*
X201915787Y-47890466D02*
X201957453Y-47823800D01*
X201957453Y-47823800D02*
X202028287Y-47790466D01*
X202028287Y-47790466D02*
X202161620Y-47790466D01*
X202161620Y-47790466D02*
X202224120Y-47823800D01*
X202224120Y-47823800D02*
X202249120Y-47890466D01*
X202249120Y-47890466D02*
X202240787Y-47957133D01*
X202240787Y-47957133D02*
X201899120Y-48023800D01*
X202503287Y-48257133D02*
X202561620Y-47790466D01*
X202544953Y-47923800D02*
X202586620Y-47857133D01*
X202586620Y-47857133D02*
X202624120Y-47823800D01*
X202624120Y-47823800D02*
X202694953Y-47790466D01*
X202694953Y-47790466D02*
X202761620Y-47790466D01*
X203515786Y-47623800D02*
X203553286Y-47590466D01*
X203553286Y-47590466D02*
X203624119Y-47557133D01*
X203624119Y-47557133D02*
X203790786Y-47557133D01*
X203790786Y-47557133D02*
X203853286Y-47590466D01*
X203853286Y-47590466D02*
X203882453Y-47623800D01*
X203882453Y-47623800D02*
X203907453Y-47690466D01*
X203907453Y-47690466D02*
X203899119Y-47757133D01*
X203899119Y-47757133D02*
X203853286Y-47857133D01*
X203853286Y-47857133D02*
X203403286Y-48257133D01*
X203403286Y-48257133D02*
X203836619Y-48257133D01*
X204357453Y-47557133D02*
X204424120Y-47557133D01*
X204424120Y-47557133D02*
X204486620Y-47590466D01*
X204486620Y-47590466D02*
X204515786Y-47623800D01*
X204515786Y-47623800D02*
X204540786Y-47690466D01*
X204540786Y-47690466D02*
X204557453Y-47823800D01*
X204557453Y-47823800D02*
X204536620Y-47990466D01*
X204536620Y-47990466D02*
X204486620Y-48123800D01*
X204486620Y-48123800D02*
X204444953Y-48190466D01*
X204444953Y-48190466D02*
X204407453Y-48223800D01*
X204407453Y-48223800D02*
X204336620Y-48257133D01*
X204336620Y-48257133D02*
X204269953Y-48257133D01*
X204269953Y-48257133D02*
X204207453Y-48223800D01*
X204207453Y-48223800D02*
X204178286Y-48190466D01*
X204178286Y-48190466D02*
X204153286Y-48123800D01*
X204153286Y-48123800D02*
X204136620Y-47990466D01*
X204136620Y-47990466D02*
X204157453Y-47823800D01*
X204157453Y-47823800D02*
X204207453Y-47690466D01*
X204207453Y-47690466D02*
X204249120Y-47623800D01*
X204249120Y-47623800D02*
X204286620Y-47590466D01*
X204286620Y-47590466D02*
X204357453Y-47557133D01*
X204849120Y-47623800D02*
X204886620Y-47590466D01*
X204886620Y-47590466D02*
X204957453Y-47557133D01*
X204957453Y-47557133D02*
X205124120Y-47557133D01*
X205124120Y-47557133D02*
X205186620Y-47590466D01*
X205186620Y-47590466D02*
X205215787Y-47623800D01*
X205215787Y-47623800D02*
X205240787Y-47690466D01*
X205240787Y-47690466D02*
X205232453Y-47757133D01*
X205232453Y-47757133D02*
X205186620Y-47857133D01*
X205186620Y-47857133D02*
X204736620Y-48257133D01*
X204736620Y-48257133D02*
X205169953Y-48257133D01*
X205828287Y-47790466D02*
X205769954Y-48257133D01*
X205694954Y-47523800D02*
X205465787Y-48023800D01*
X205465787Y-48023800D02*
X205899120Y-48023800D01*
D11*
X194353572Y-44158528D02*
X195353572Y-44158528D01*
X195353572Y-44158528D02*
X194166072Y-45658528D01*
X194166072Y-45658528D02*
X195166072Y-45658528D01*
X195808928Y-45087100D02*
X196951786Y-45087100D01*
X196308928Y-45658528D02*
X196451786Y-44515671D01*
X199335714Y-44872814D02*
X199541071Y-44944242D01*
X199541071Y-44944242D02*
X199603571Y-45015671D01*
X199603571Y-45015671D02*
X199657143Y-45158528D01*
X199657143Y-45158528D02*
X199630357Y-45372814D01*
X199630357Y-45372814D02*
X199541071Y-45515671D01*
X199541071Y-45515671D02*
X199460714Y-45587100D01*
X199460714Y-45587100D02*
X199308928Y-45658528D01*
X199308928Y-45658528D02*
X198737500Y-45658528D01*
X198737500Y-45658528D02*
X198925000Y-44158528D01*
X198925000Y-44158528D02*
X199425000Y-44158528D01*
X199425000Y-44158528D02*
X199558928Y-44229957D01*
X199558928Y-44229957D02*
X199621428Y-44301385D01*
X199621428Y-44301385D02*
X199675000Y-44444242D01*
X199675000Y-44444242D02*
X199657143Y-44587100D01*
X199657143Y-44587100D02*
X199567857Y-44729957D01*
X199567857Y-44729957D02*
X199487500Y-44801385D01*
X199487500Y-44801385D02*
X199335714Y-44872814D01*
X199335714Y-44872814D02*
X198835714Y-44872814D01*
X200451786Y-45658528D02*
X200317857Y-45587100D01*
X200317857Y-45587100D02*
X200255357Y-45515671D01*
X200255357Y-45515671D02*
X200201786Y-45372814D01*
X200201786Y-45372814D02*
X200255357Y-44944242D01*
X200255357Y-44944242D02*
X200344643Y-44801385D01*
X200344643Y-44801385D02*
X200425000Y-44729957D01*
X200425000Y-44729957D02*
X200576786Y-44658528D01*
X200576786Y-44658528D02*
X200791071Y-44658528D01*
X200791071Y-44658528D02*
X200925000Y-44729957D01*
X200925000Y-44729957D02*
X200987500Y-44801385D01*
X200987500Y-44801385D02*
X201041071Y-44944242D01*
X201041071Y-44944242D02*
X200987500Y-45372814D01*
X200987500Y-45372814D02*
X200898214Y-45515671D01*
X200898214Y-45515671D02*
X200817857Y-45587100D01*
X200817857Y-45587100D02*
X200666071Y-45658528D01*
X200666071Y-45658528D02*
X200451786Y-45658528D01*
X202237500Y-45658528D02*
X202335714Y-44872814D01*
X202335714Y-44872814D02*
X202282143Y-44729957D01*
X202282143Y-44729957D02*
X202148214Y-44658528D01*
X202148214Y-44658528D02*
X201862500Y-44658528D01*
X201862500Y-44658528D02*
X201710714Y-44729957D01*
X202246429Y-45587100D02*
X202094643Y-45658528D01*
X202094643Y-45658528D02*
X201737500Y-45658528D01*
X201737500Y-45658528D02*
X201603571Y-45587100D01*
X201603571Y-45587100D02*
X201550000Y-45444242D01*
X201550000Y-45444242D02*
X201567857Y-45301385D01*
X201567857Y-45301385D02*
X201657143Y-45158528D01*
X201657143Y-45158528D02*
X201808929Y-45087100D01*
X201808929Y-45087100D02*
X202166071Y-45087100D01*
X202166071Y-45087100D02*
X202317857Y-45015671D01*
X202951786Y-45658528D02*
X203076786Y-44658528D01*
X203041072Y-44944242D02*
X203130357Y-44801385D01*
X203130357Y-44801385D02*
X203210714Y-44729957D01*
X203210714Y-44729957D02*
X203362500Y-44658528D01*
X203362500Y-44658528D02*
X203505357Y-44658528D01*
X204523214Y-45658528D02*
X204710714Y-44158528D01*
X204532143Y-45587100D02*
X204380357Y-45658528D01*
X204380357Y-45658528D02*
X204094643Y-45658528D01*
X204094643Y-45658528D02*
X203960714Y-45587100D01*
X203960714Y-45587100D02*
X203898214Y-45515671D01*
X203898214Y-45515671D02*
X203844643Y-45372814D01*
X203844643Y-45372814D02*
X203898214Y-44944242D01*
X203898214Y-44944242D02*
X203987500Y-44801385D01*
X203987500Y-44801385D02*
X204067857Y-44729957D01*
X204067857Y-44729957D02*
X204219643Y-44658528D01*
X204219643Y-44658528D02*
X204505357Y-44658528D01*
X204505357Y-44658528D02*
X204639285Y-44729957D01*
D12*
X217603571Y-129715361D02*
X216520238Y-127715361D01*
X216270238Y-129715361D02*
X217853571Y-127715361D01*
D13*
X180002409Y-108163095D02*
X180002409Y-108067857D01*
X180002409Y-108067857D02*
X180026219Y-108020238D01*
X180026219Y-108020238D02*
X180073838Y-107972619D01*
X180073838Y-107972619D02*
X180169076Y-107948809D01*
X180169076Y-107948809D02*
X180335742Y-107948809D01*
X180335742Y-107948809D02*
X180430980Y-107972619D01*
X180430980Y-107972619D02*
X180478600Y-108020238D01*
X180478600Y-108020238D02*
X180502409Y-108067857D01*
X180502409Y-108067857D02*
X180502409Y-108163095D01*
X180502409Y-108163095D02*
X180478600Y-108210714D01*
X180478600Y-108210714D02*
X180430980Y-108258333D01*
X180430980Y-108258333D02*
X180335742Y-108282142D01*
X180335742Y-108282142D02*
X180169076Y-108282142D01*
X180169076Y-108282142D02*
X180073838Y-108258333D01*
X180073838Y-108258333D02*
X180026219Y-108210714D01*
X180026219Y-108210714D02*
X180002409Y-108163095D01*
X180002409Y-107734523D02*
X180407171Y-107734523D01*
X180407171Y-107734523D02*
X180454790Y-107710713D01*
X180454790Y-107710713D02*
X180478600Y-107686904D01*
X180478600Y-107686904D02*
X180502409Y-107639285D01*
X180502409Y-107639285D02*
X180502409Y-107544047D01*
X180502409Y-107544047D02*
X180478600Y-107496428D01*
X180478600Y-107496428D02*
X180454790Y-107472618D01*
X180454790Y-107472618D02*
X180407171Y-107448809D01*
X180407171Y-107448809D02*
X180002409Y-107448809D01*
X180002409Y-107282141D02*
X180002409Y-106996427D01*
X180502409Y-107139284D02*
X180002409Y-107139284D01*
X180502409Y-106567856D02*
X180502409Y-106853570D01*
X180502409Y-106710713D02*
X180002409Y-106710713D01*
X180002409Y-106710713D02*
X180073838Y-106758332D01*
X180073838Y-106758332D02*
X180121457Y-106805951D01*
X180121457Y-106805951D02*
X180145266Y-106853570D01*
D15*
X194152381Y-43217000D02*
X194426190Y-43312238D01*
X194426190Y-43312238D02*
X194902381Y-43312238D01*
X194902381Y-43312238D02*
X195104762Y-43217000D01*
X195104762Y-43217000D02*
X195211905Y-43121761D01*
X195211905Y-43121761D02*
X195330952Y-42931285D01*
X195330952Y-42931285D02*
X195354762Y-42740809D01*
X195354762Y-42740809D02*
X195283333Y-42550333D01*
X195283333Y-42550333D02*
X195200000Y-42455095D01*
X195200000Y-42455095D02*
X195021429Y-42359857D01*
X195021429Y-42359857D02*
X194652381Y-42264619D01*
X194652381Y-42264619D02*
X194473809Y-42169380D01*
X194473809Y-42169380D02*
X194390476Y-42074142D01*
X194390476Y-42074142D02*
X194319048Y-41883666D01*
X194319048Y-41883666D02*
X194342857Y-41693190D01*
X194342857Y-41693190D02*
X194461905Y-41502714D01*
X194461905Y-41502714D02*
X194569048Y-41407476D01*
X194569048Y-41407476D02*
X194771429Y-41312238D01*
X194771429Y-41312238D02*
X195247619Y-41312238D01*
X195247619Y-41312238D02*
X195521429Y-41407476D01*
X196116667Y-42740809D02*
X197069048Y-42740809D01*
X195854762Y-43312238D02*
X196771429Y-41312238D01*
X196771429Y-41312238D02*
X197188095Y-43312238D01*
X197854762Y-43312238D02*
X198104762Y-41312238D01*
X198104762Y-41312238D02*
X198592857Y-42740809D01*
X198592857Y-42740809D02*
X199438096Y-41312238D01*
X199438096Y-41312238D02*
X199188096Y-43312238D01*
X200200000Y-41312238D02*
X200426191Y-43312238D01*
X200426191Y-43312238D02*
X200985714Y-41883666D01*
X200985714Y-41883666D02*
X201188095Y-43312238D01*
X201188095Y-43312238D02*
X201914286Y-41312238D01*
X202426190Y-43312238D02*
X202676190Y-41312238D01*
X203295238Y-43217000D02*
X203569047Y-43312238D01*
X203569047Y-43312238D02*
X204045238Y-43312238D01*
X204045238Y-43312238D02*
X204247619Y-43217000D01*
X204247619Y-43217000D02*
X204354762Y-43121761D01*
X204354762Y-43121761D02*
X204473809Y-42931285D01*
X204473809Y-42931285D02*
X204497619Y-42740809D01*
X204497619Y-42740809D02*
X204426190Y-42550333D01*
X204426190Y-42550333D02*
X204342857Y-42455095D01*
X204342857Y-42455095D02*
X204164286Y-42359857D01*
X204164286Y-42359857D02*
X203795238Y-42264619D01*
X203795238Y-42264619D02*
X203616666Y-42169380D01*
X203616666Y-42169380D02*
X203533333Y-42074142D01*
X203533333Y-42074142D02*
X203461905Y-41883666D01*
X203461905Y-41883666D02*
X203485714Y-41693190D01*
X203485714Y-41693190D02*
X203604762Y-41502714D01*
X203604762Y-41502714D02*
X203711905Y-41407476D01*
X203711905Y-41407476D02*
X203914286Y-41312238D01*
X203914286Y-41312238D02*
X204390476Y-41312238D01*
X204390476Y-41312238D02*
X204664286Y-41407476D01*
X205414286Y-42264619D02*
X206080952Y-42264619D01*
X206235714Y-43312238D02*
X205283333Y-43312238D01*
X205283333Y-43312238D02*
X205533333Y-41312238D01*
X205533333Y-41312238D02*
X206485714Y-41312238D01*
D10*
X158523809Y-108129819D02*
X158714285Y-108129819D01*
X158714285Y-108129819D02*
X158809523Y-108177438D01*
X158809523Y-108177438D02*
X158904761Y-108272676D01*
X158904761Y-108272676D02*
X158952380Y-108463152D01*
X158952380Y-108463152D02*
X158952380Y-108796485D01*
X158952380Y-108796485D02*
X158904761Y-108986961D01*
X158904761Y-108986961D02*
X158809523Y-109082200D01*
X158809523Y-109082200D02*
X158714285Y-109129819D01*
X158714285Y-109129819D02*
X158523809Y-109129819D01*
X158523809Y-109129819D02*
X158428571Y-109082200D01*
X158428571Y-109082200D02*
X158333333Y-108986961D01*
X158333333Y-108986961D02*
X158285714Y-108796485D01*
X158285714Y-108796485D02*
X158285714Y-108463152D01*
X158285714Y-108463152D02*
X158333333Y-108272676D01*
X158333333Y-108272676D02*
X158428571Y-108177438D01*
X158428571Y-108177438D02*
X158523809Y-108129819D01*
X159380952Y-108129819D02*
X159380952Y-108939342D01*
X159380952Y-108939342D02*
X159428571Y-109034580D01*
X159428571Y-109034580D02*
X159476190Y-109082200D01*
X159476190Y-109082200D02*
X159571428Y-109129819D01*
X159571428Y-109129819D02*
X159761904Y-109129819D01*
X159761904Y-109129819D02*
X159857142Y-109082200D01*
X159857142Y-109082200D02*
X159904761Y-109034580D01*
X159904761Y-109034580D02*
X159952380Y-108939342D01*
X159952380Y-108939342D02*
X159952380Y-108129819D01*
X160285714Y-108129819D02*
X160857142Y-108129819D01*
X160571428Y-109129819D02*
X160571428Y-108129819D01*
X161714285Y-109129819D02*
X161142857Y-109129819D01*
X161428571Y-109129819D02*
X161428571Y-108129819D01*
X161428571Y-108129819D02*
X161333333Y-108272676D01*
X161333333Y-108272676D02*
X161238095Y-108367914D01*
X161238095Y-108367914D02*
X161142857Y-108415533D01*
X158023809Y-94954819D02*
X158214285Y-94954819D01*
X158214285Y-94954819D02*
X158309523Y-95002438D01*
X158309523Y-95002438D02*
X158404761Y-95097676D01*
X158404761Y-95097676D02*
X158452380Y-95288152D01*
X158452380Y-95288152D02*
X158452380Y-95621485D01*
X158452380Y-95621485D02*
X158404761Y-95811961D01*
X158404761Y-95811961D02*
X158309523Y-95907200D01*
X158309523Y-95907200D02*
X158214285Y-95954819D01*
X158214285Y-95954819D02*
X158023809Y-95954819D01*
X158023809Y-95954819D02*
X157928571Y-95907200D01*
X157928571Y-95907200D02*
X157833333Y-95811961D01*
X157833333Y-95811961D02*
X157785714Y-95621485D01*
X157785714Y-95621485D02*
X157785714Y-95288152D01*
X157785714Y-95288152D02*
X157833333Y-95097676D01*
X157833333Y-95097676D02*
X157928571Y-95002438D01*
X157928571Y-95002438D02*
X158023809Y-94954819D01*
X158880952Y-94954819D02*
X158880952Y-95764342D01*
X158880952Y-95764342D02*
X158928571Y-95859580D01*
X158928571Y-95859580D02*
X158976190Y-95907200D01*
X158976190Y-95907200D02*
X159071428Y-95954819D01*
X159071428Y-95954819D02*
X159261904Y-95954819D01*
X159261904Y-95954819D02*
X159357142Y-95907200D01*
X159357142Y-95907200D02*
X159404761Y-95859580D01*
X159404761Y-95859580D02*
X159452380Y-95764342D01*
X159452380Y-95764342D02*
X159452380Y-94954819D01*
X159785714Y-94954819D02*
X160357142Y-94954819D01*
X160071428Y-95954819D02*
X160071428Y-94954819D01*
X160642857Y-95050057D02*
X160690476Y-95002438D01*
X160690476Y-95002438D02*
X160785714Y-94954819D01*
X160785714Y-94954819D02*
X161023809Y-94954819D01*
X161023809Y-94954819D02*
X161119047Y-95002438D01*
X161119047Y-95002438D02*
X161166666Y-95050057D01*
X161166666Y-95050057D02*
X161214285Y-95145295D01*
X161214285Y-95145295D02*
X161214285Y-95240533D01*
X161214285Y-95240533D02*
X161166666Y-95383390D01*
X161166666Y-95383390D02*
X160595238Y-95954819D01*
X160595238Y-95954819D02*
X161214285Y-95954819D01*
D14*
X205351192Y-45151109D02*
X205517858Y-45651109D01*
X205517858Y-45651109D02*
X205684525Y-45151109D01*
X206041667Y-45627300D02*
X205994048Y-45651109D01*
X205994048Y-45651109D02*
X205898810Y-45651109D01*
X205898810Y-45651109D02*
X205851191Y-45627300D01*
X205851191Y-45627300D02*
X205827382Y-45579680D01*
X205827382Y-45579680D02*
X205827382Y-45389204D01*
X205827382Y-45389204D02*
X205851191Y-45341585D01*
X205851191Y-45341585D02*
X205898810Y-45317776D01*
X205898810Y-45317776D02*
X205994048Y-45317776D01*
X205994048Y-45317776D02*
X206041667Y-45341585D01*
X206041667Y-45341585D02*
X206065477Y-45389204D01*
X206065477Y-45389204D02*
X206065477Y-45436823D01*
X206065477Y-45436823D02*
X205827382Y-45484442D01*
X206279762Y-45651109D02*
X206279762Y-45317776D01*
X206279762Y-45413014D02*
X206303572Y-45365395D01*
X206303572Y-45365395D02*
X206327381Y-45341585D01*
X206327381Y-45341585D02*
X206375000Y-45317776D01*
X206375000Y-45317776D02*
X206422619Y-45317776D01*
X206946429Y-45198728D02*
X206970238Y-45174919D01*
X206970238Y-45174919D02*
X207017857Y-45151109D01*
X207017857Y-45151109D02*
X207136905Y-45151109D01*
X207136905Y-45151109D02*
X207184524Y-45174919D01*
X207184524Y-45174919D02*
X207208333Y-45198728D01*
X207208333Y-45198728D02*
X207232143Y-45246347D01*
X207232143Y-45246347D02*
X207232143Y-45293966D01*
X207232143Y-45293966D02*
X207208333Y-45365395D01*
X207208333Y-45365395D02*
X206922619Y-45651109D01*
X206922619Y-45651109D02*
X207232143Y-45651109D01*
X207446428Y-45603490D02*
X207470238Y-45627300D01*
X207470238Y-45627300D02*
X207446428Y-45651109D01*
X207446428Y-45651109D02*
X207422619Y-45627300D01*
X207422619Y-45627300D02*
X207446428Y-45603490D01*
X207446428Y-45603490D02*
X207446428Y-45651109D01*
X207779761Y-45151109D02*
X207827380Y-45151109D01*
X207827380Y-45151109D02*
X207874999Y-45174919D01*
X207874999Y-45174919D02*
X207898809Y-45198728D01*
X207898809Y-45198728D02*
X207922618Y-45246347D01*
X207922618Y-45246347D02*
X207946428Y-45341585D01*
X207946428Y-45341585D02*
X207946428Y-45460633D01*
X207946428Y-45460633D02*
X207922618Y-45555871D01*
X207922618Y-45555871D02*
X207898809Y-45603490D01*
X207898809Y-45603490D02*
X207874999Y-45627300D01*
X207874999Y-45627300D02*
X207827380Y-45651109D01*
X207827380Y-45651109D02*
X207779761Y-45651109D01*
X207779761Y-45651109D02*
X207732142Y-45627300D01*
X207732142Y-45627300D02*
X207708333Y-45603490D01*
X207708333Y-45603490D02*
X207684523Y-45555871D01*
X207684523Y-45555871D02*
X207660714Y-45460633D01*
X207660714Y-45460633D02*
X207660714Y-45341585D01*
X207660714Y-45341585D02*
X207684523Y-45246347D01*
X207684523Y-45246347D02*
X207708333Y-45198728D01*
X207708333Y-45198728D02*
X207732142Y-45174919D01*
X207732142Y-45174919D02*
X207779761Y-45151109D01*
X208113094Y-45317776D02*
X208374999Y-45317776D01*
X208374999Y-45317776D02*
X208113094Y-45651109D01*
X208113094Y-45651109D02*
X208374999Y-45651109D01*
D10*
X194769104Y-79966666D02*
X194769104Y-79490476D01*
X195054819Y-80061904D02*
X194054819Y-79728571D01*
X194054819Y-79728571D02*
X195054819Y-79395238D01*
X194531009Y-79061904D02*
X194531009Y-78728571D01*
X195054819Y-78585714D02*
X195054819Y-79061904D01*
X195054819Y-79061904D02*
X194054819Y-79061904D01*
X194054819Y-79061904D02*
X194054819Y-78585714D01*
X195054819Y-77633333D02*
X195054819Y-78204761D01*
X195054819Y-77919047D02*
X194054819Y-77919047D01*
X194054819Y-77919047D02*
X194197676Y-78014285D01*
X194197676Y-78014285D02*
X194292914Y-78109523D01*
X194292914Y-78109523D02*
X194340533Y-78204761D01*
X145407200Y-70861904D02*
X145454819Y-70719047D01*
X145454819Y-70719047D02*
X145454819Y-70480952D01*
X145454819Y-70480952D02*
X145407200Y-70385714D01*
X145407200Y-70385714D02*
X145359580Y-70338095D01*
X145359580Y-70338095D02*
X145264342Y-70290476D01*
X145264342Y-70290476D02*
X145169104Y-70290476D01*
X145169104Y-70290476D02*
X145073866Y-70338095D01*
X145073866Y-70338095D02*
X145026247Y-70385714D01*
X145026247Y-70385714D02*
X144978628Y-70480952D01*
X144978628Y-70480952D02*
X144931009Y-70671428D01*
X144931009Y-70671428D02*
X144883390Y-70766666D01*
X144883390Y-70766666D02*
X144835771Y-70814285D01*
X144835771Y-70814285D02*
X144740533Y-70861904D01*
X144740533Y-70861904D02*
X144645295Y-70861904D01*
X144645295Y-70861904D02*
X144550057Y-70814285D01*
X144550057Y-70814285D02*
X144502438Y-70766666D01*
X144502438Y-70766666D02*
X144454819Y-70671428D01*
X144454819Y-70671428D02*
X144454819Y-70433333D01*
X144454819Y-70433333D02*
X144502438Y-70290476D01*
X145359580Y-69290476D02*
X145407200Y-69338095D01*
X145407200Y-69338095D02*
X145454819Y-69480952D01*
X145454819Y-69480952D02*
X145454819Y-69576190D01*
X145454819Y-69576190D02*
X145407200Y-69719047D01*
X145407200Y-69719047D02*
X145311961Y-69814285D01*
X145311961Y-69814285D02*
X145216723Y-69861904D01*
X145216723Y-69861904D02*
X145026247Y-69909523D01*
X145026247Y-69909523D02*
X144883390Y-69909523D01*
X144883390Y-69909523D02*
X144692914Y-69861904D01*
X144692914Y-69861904D02*
X144597676Y-69814285D01*
X144597676Y-69814285D02*
X144502438Y-69719047D01*
X144502438Y-69719047D02*
X144454819Y-69576190D01*
X144454819Y-69576190D02*
X144454819Y-69480952D01*
X144454819Y-69480952D02*
X144502438Y-69338095D01*
X144502438Y-69338095D02*
X144550057Y-69290476D01*
X144550057Y-68909523D02*
X144502438Y-68861904D01*
X144502438Y-68861904D02*
X144454819Y-68766666D01*
X144454819Y-68766666D02*
X144454819Y-68528571D01*
X144454819Y-68528571D02*
X144502438Y-68433333D01*
X144502438Y-68433333D02*
X144550057Y-68385714D01*
X144550057Y-68385714D02*
X144645295Y-68338095D01*
X144645295Y-68338095D02*
X144740533Y-68338095D01*
X144740533Y-68338095D02*
X144883390Y-68385714D01*
X144883390Y-68385714D02*
X145454819Y-68957142D01*
X145454819Y-68957142D02*
X145454819Y-68338095D01*
D12*
X139277142Y-78719400D02*
X141562857Y-78719400D01*
X150809400Y-79632857D02*
X150809400Y-77347143D01*
X151952257Y-78490000D02*
X149666542Y-78490000D01*
D10*
X186600180Y-101911395D02*
X185790657Y-101911395D01*
X185790657Y-101911395D02*
X185695419Y-101959014D01*
X185695419Y-101959014D02*
X185647800Y-102006633D01*
X185647800Y-102006633D02*
X185600180Y-102101871D01*
X185600180Y-102101871D02*
X185600180Y-102292347D01*
X185600180Y-102292347D02*
X185647800Y-102387585D01*
X185647800Y-102387585D02*
X185695419Y-102435204D01*
X185695419Y-102435204D02*
X185790657Y-102482823D01*
X185790657Y-102482823D02*
X186600180Y-102482823D01*
X185600180Y-103482823D02*
X185600180Y-102911395D01*
X185600180Y-103197109D02*
X186600180Y-103197109D01*
X186600180Y-103197109D02*
X186457323Y-103101871D01*
X186457323Y-103101871D02*
X186362085Y-103006633D01*
X186362085Y-103006633D02*
X186314466Y-102911395D01*
X183079819Y-103099999D02*
X183317914Y-103099999D01*
X183222676Y-103338094D02*
X183317914Y-103099999D01*
X183317914Y-103099999D02*
X183222676Y-102861904D01*
X183508390Y-103242856D02*
X183317914Y-103099999D01*
X183317914Y-103099999D02*
X183508390Y-102957142D01*
X178629819Y-105274999D02*
X178867914Y-105274999D01*
X178772676Y-105513094D02*
X178867914Y-105274999D01*
X178867914Y-105274999D02*
X178772676Y-105036904D01*
X179058390Y-105417856D02*
X178867914Y-105274999D01*
X178867914Y-105274999D02*
X179058390Y-105132142D01*
X174338095Y-126907200D02*
X174480952Y-126954819D01*
X174480952Y-126954819D02*
X174719047Y-126954819D01*
X174719047Y-126954819D02*
X174814285Y-126907200D01*
X174814285Y-126907200D02*
X174861904Y-126859580D01*
X174861904Y-126859580D02*
X174909523Y-126764342D01*
X174909523Y-126764342D02*
X174909523Y-126669104D01*
X174909523Y-126669104D02*
X174861904Y-126573866D01*
X174861904Y-126573866D02*
X174814285Y-126526247D01*
X174814285Y-126526247D02*
X174719047Y-126478628D01*
X174719047Y-126478628D02*
X174528571Y-126431009D01*
X174528571Y-126431009D02*
X174433333Y-126383390D01*
X174433333Y-126383390D02*
X174385714Y-126335771D01*
X174385714Y-126335771D02*
X174338095Y-126240533D01*
X174338095Y-126240533D02*
X174338095Y-126145295D01*
X174338095Y-126145295D02*
X174385714Y-126050057D01*
X174385714Y-126050057D02*
X174433333Y-126002438D01*
X174433333Y-126002438D02*
X174528571Y-125954819D01*
X174528571Y-125954819D02*
X174766666Y-125954819D01*
X174766666Y-125954819D02*
X174909523Y-126002438D01*
X175909523Y-126859580D02*
X175861904Y-126907200D01*
X175861904Y-126907200D02*
X175719047Y-126954819D01*
X175719047Y-126954819D02*
X175623809Y-126954819D01*
X175623809Y-126954819D02*
X175480952Y-126907200D01*
X175480952Y-126907200D02*
X175385714Y-126811961D01*
X175385714Y-126811961D02*
X175338095Y-126716723D01*
X175338095Y-126716723D02*
X175290476Y-126526247D01*
X175290476Y-126526247D02*
X175290476Y-126383390D01*
X175290476Y-126383390D02*
X175338095Y-126192914D01*
X175338095Y-126192914D02*
X175385714Y-126097676D01*
X175385714Y-126097676D02*
X175480952Y-126002438D01*
X175480952Y-126002438D02*
X175623809Y-125954819D01*
X175623809Y-125954819D02*
X175719047Y-125954819D01*
X175719047Y-125954819D02*
X175861904Y-126002438D01*
X175861904Y-126002438D02*
X175909523Y-126050057D01*
X176766666Y-126288152D02*
X176766666Y-126954819D01*
X176528571Y-125907200D02*
X176290476Y-126621485D01*
X176290476Y-126621485D02*
X176909523Y-126621485D01*
D12*
X184719400Y-132222857D02*
X184719400Y-129937143D01*
X183347142Y-121149400D02*
X185632857Y-121149400D01*
X184489999Y-122292257D02*
X184489999Y-120006542D01*
D10*
X162661905Y-109154819D02*
X162661905Y-108154819D01*
X162661905Y-108154819D02*
X162900000Y-108154819D01*
X162900000Y-108154819D02*
X163042857Y-108202438D01*
X163042857Y-108202438D02*
X163138095Y-108297676D01*
X163138095Y-108297676D02*
X163185714Y-108392914D01*
X163185714Y-108392914D02*
X163233333Y-108583390D01*
X163233333Y-108583390D02*
X163233333Y-108726247D01*
X163233333Y-108726247D02*
X163185714Y-108916723D01*
X163185714Y-108916723D02*
X163138095Y-109011961D01*
X163138095Y-109011961D02*
X163042857Y-109107200D01*
X163042857Y-109107200D02*
X162900000Y-109154819D01*
X162900000Y-109154819D02*
X162661905Y-109154819D01*
X163566667Y-108154819D02*
X164233333Y-108154819D01*
X164233333Y-108154819D02*
X163804762Y-109154819D01*
X159318095Y-45279200D02*
X159460952Y-45326819D01*
X159460952Y-45326819D02*
X159699047Y-45326819D01*
X159699047Y-45326819D02*
X159794285Y-45279200D01*
X159794285Y-45279200D02*
X159841904Y-45231580D01*
X159841904Y-45231580D02*
X159889523Y-45136342D01*
X159889523Y-45136342D02*
X159889523Y-45041104D01*
X159889523Y-45041104D02*
X159841904Y-44945866D01*
X159841904Y-44945866D02*
X159794285Y-44898247D01*
X159794285Y-44898247D02*
X159699047Y-44850628D01*
X159699047Y-44850628D02*
X159508571Y-44803009D01*
X159508571Y-44803009D02*
X159413333Y-44755390D01*
X159413333Y-44755390D02*
X159365714Y-44707771D01*
X159365714Y-44707771D02*
X159318095Y-44612533D01*
X159318095Y-44612533D02*
X159318095Y-44517295D01*
X159318095Y-44517295D02*
X159365714Y-44422057D01*
X159365714Y-44422057D02*
X159413333Y-44374438D01*
X159413333Y-44374438D02*
X159508571Y-44326819D01*
X159508571Y-44326819D02*
X159746666Y-44326819D01*
X159746666Y-44326819D02*
X159889523Y-44374438D01*
X160889523Y-45231580D02*
X160841904Y-45279200D01*
X160841904Y-45279200D02*
X160699047Y-45326819D01*
X160699047Y-45326819D02*
X160603809Y-45326819D01*
X160603809Y-45326819D02*
X160460952Y-45279200D01*
X160460952Y-45279200D02*
X160365714Y-45183961D01*
X160365714Y-45183961D02*
X160318095Y-45088723D01*
X160318095Y-45088723D02*
X160270476Y-44898247D01*
X160270476Y-44898247D02*
X160270476Y-44755390D01*
X160270476Y-44755390D02*
X160318095Y-44564914D01*
X160318095Y-44564914D02*
X160365714Y-44469676D01*
X160365714Y-44469676D02*
X160460952Y-44374438D01*
X160460952Y-44374438D02*
X160603809Y-44326819D01*
X160603809Y-44326819D02*
X160699047Y-44326819D01*
X160699047Y-44326819D02*
X160841904Y-44374438D01*
X160841904Y-44374438D02*
X160889523Y-44422057D01*
X161841904Y-45326819D02*
X161270476Y-45326819D01*
X161556190Y-45326819D02*
X161556190Y-44326819D01*
X161556190Y-44326819D02*
X161460952Y-44469676D01*
X161460952Y-44469676D02*
X161365714Y-44564914D01*
X161365714Y-44564914D02*
X161270476Y-44612533D01*
D12*
X184919400Y-57222857D02*
X184919400Y-54937143D01*
X183547142Y-46149400D02*
X185832857Y-46149400D01*
X184689999Y-47292257D02*
X184689999Y-45006542D01*
X213577142Y-79319400D02*
X215862857Y-79319400D01*
X225109400Y-80232857D02*
X225109400Y-77947143D01*
X226252257Y-79090000D02*
X223966542Y-79090000D01*
D10*
X145307200Y-106261904D02*
X145354819Y-106119047D01*
X145354819Y-106119047D02*
X145354819Y-105880952D01*
X145354819Y-105880952D02*
X145307200Y-105785714D01*
X145307200Y-105785714D02*
X145259580Y-105738095D01*
X145259580Y-105738095D02*
X145164342Y-105690476D01*
X145164342Y-105690476D02*
X145069104Y-105690476D01*
X145069104Y-105690476D02*
X144973866Y-105738095D01*
X144973866Y-105738095D02*
X144926247Y-105785714D01*
X144926247Y-105785714D02*
X144878628Y-105880952D01*
X144878628Y-105880952D02*
X144831009Y-106071428D01*
X144831009Y-106071428D02*
X144783390Y-106166666D01*
X144783390Y-106166666D02*
X144735771Y-106214285D01*
X144735771Y-106214285D02*
X144640533Y-106261904D01*
X144640533Y-106261904D02*
X144545295Y-106261904D01*
X144545295Y-106261904D02*
X144450057Y-106214285D01*
X144450057Y-106214285D02*
X144402438Y-106166666D01*
X144402438Y-106166666D02*
X144354819Y-106071428D01*
X144354819Y-106071428D02*
X144354819Y-105833333D01*
X144354819Y-105833333D02*
X144402438Y-105690476D01*
X145259580Y-104690476D02*
X145307200Y-104738095D01*
X145307200Y-104738095D02*
X145354819Y-104880952D01*
X145354819Y-104880952D02*
X145354819Y-104976190D01*
X145354819Y-104976190D02*
X145307200Y-105119047D01*
X145307200Y-105119047D02*
X145211961Y-105214285D01*
X145211961Y-105214285D02*
X145116723Y-105261904D01*
X145116723Y-105261904D02*
X144926247Y-105309523D01*
X144926247Y-105309523D02*
X144783390Y-105309523D01*
X144783390Y-105309523D02*
X144592914Y-105261904D01*
X144592914Y-105261904D02*
X144497676Y-105214285D01*
X144497676Y-105214285D02*
X144402438Y-105119047D01*
X144402438Y-105119047D02*
X144354819Y-104976190D01*
X144354819Y-104976190D02*
X144354819Y-104880952D01*
X144354819Y-104880952D02*
X144402438Y-104738095D01*
X144402438Y-104738095D02*
X144450057Y-104690476D01*
X144354819Y-104357142D02*
X144354819Y-103738095D01*
X144354819Y-103738095D02*
X144735771Y-104071428D01*
X144735771Y-104071428D02*
X144735771Y-103928571D01*
X144735771Y-103928571D02*
X144783390Y-103833333D01*
X144783390Y-103833333D02*
X144831009Y-103785714D01*
X144831009Y-103785714D02*
X144926247Y-103738095D01*
X144926247Y-103738095D02*
X145164342Y-103738095D01*
X145164342Y-103738095D02*
X145259580Y-103785714D01*
X145259580Y-103785714D02*
X145307200Y-103833333D01*
X145307200Y-103833333D02*
X145354819Y-103928571D01*
X145354819Y-103928571D02*
X145354819Y-104214285D01*
X145354819Y-104214285D02*
X145307200Y-104309523D01*
X145307200Y-104309523D02*
X145259580Y-104357142D01*
D12*
X139177142Y-114119400D02*
X141462857Y-114119400D01*
X150709400Y-115032857D02*
X150709400Y-112747143D01*
X151852257Y-113890000D02*
X149566542Y-113890000D01*
D10*
X162336905Y-95954819D02*
X162336905Y-94954819D01*
X162336905Y-94954819D02*
X162575000Y-94954819D01*
X162575000Y-94954819D02*
X162717857Y-95002438D01*
X162717857Y-95002438D02*
X162813095Y-95097676D01*
X162813095Y-95097676D02*
X162860714Y-95192914D01*
X162860714Y-95192914D02*
X162908333Y-95383390D01*
X162908333Y-95383390D02*
X162908333Y-95526247D01*
X162908333Y-95526247D02*
X162860714Y-95716723D01*
X162860714Y-95716723D02*
X162813095Y-95811961D01*
X162813095Y-95811961D02*
X162717857Y-95907200D01*
X162717857Y-95907200D02*
X162575000Y-95954819D01*
X162575000Y-95954819D02*
X162336905Y-95954819D01*
X163479762Y-95383390D02*
X163384524Y-95335771D01*
X163384524Y-95335771D02*
X163336905Y-95288152D01*
X163336905Y-95288152D02*
X163289286Y-95192914D01*
X163289286Y-95192914D02*
X163289286Y-95145295D01*
X163289286Y-95145295D02*
X163336905Y-95050057D01*
X163336905Y-95050057D02*
X163384524Y-95002438D01*
X163384524Y-95002438D02*
X163479762Y-94954819D01*
X163479762Y-94954819D02*
X163670238Y-94954819D01*
X163670238Y-94954819D02*
X163765476Y-95002438D01*
X163765476Y-95002438D02*
X163813095Y-95050057D01*
X163813095Y-95050057D02*
X163860714Y-95145295D01*
X163860714Y-95145295D02*
X163860714Y-95192914D01*
X163860714Y-95192914D02*
X163813095Y-95288152D01*
X163813095Y-95288152D02*
X163765476Y-95335771D01*
X163765476Y-95335771D02*
X163670238Y-95383390D01*
X163670238Y-95383390D02*
X163479762Y-95383390D01*
X163479762Y-95383390D02*
X163384524Y-95431009D01*
X163384524Y-95431009D02*
X163336905Y-95478628D01*
X163336905Y-95478628D02*
X163289286Y-95573866D01*
X163289286Y-95573866D02*
X163289286Y-95764342D01*
X163289286Y-95764342D02*
X163336905Y-95859580D01*
X163336905Y-95859580D02*
X163384524Y-95907200D01*
X163384524Y-95907200D02*
X163479762Y-95954819D01*
X163479762Y-95954819D02*
X163670238Y-95954819D01*
X163670238Y-95954819D02*
X163765476Y-95907200D01*
X163765476Y-95907200D02*
X163813095Y-95859580D01*
X163813095Y-95859580D02*
X163860714Y-95764342D01*
X163860714Y-95764342D02*
X163860714Y-95573866D01*
X163860714Y-95573866D02*
X163813095Y-95478628D01*
X163813095Y-95478628D02*
X163765476Y-95431009D01*
X163765476Y-95431009D02*
X163670238Y-95383390D01*
X219707200Y-106861904D02*
X219754819Y-106719047D01*
X219754819Y-106719047D02*
X219754819Y-106480952D01*
X219754819Y-106480952D02*
X219707200Y-106385714D01*
X219707200Y-106385714D02*
X219659580Y-106338095D01*
X219659580Y-106338095D02*
X219564342Y-106290476D01*
X219564342Y-106290476D02*
X219469104Y-106290476D01*
X219469104Y-106290476D02*
X219373866Y-106338095D01*
X219373866Y-106338095D02*
X219326247Y-106385714D01*
X219326247Y-106385714D02*
X219278628Y-106480952D01*
X219278628Y-106480952D02*
X219231009Y-106671428D01*
X219231009Y-106671428D02*
X219183390Y-106766666D01*
X219183390Y-106766666D02*
X219135771Y-106814285D01*
X219135771Y-106814285D02*
X219040533Y-106861904D01*
X219040533Y-106861904D02*
X218945295Y-106861904D01*
X218945295Y-106861904D02*
X218850057Y-106814285D01*
X218850057Y-106814285D02*
X218802438Y-106766666D01*
X218802438Y-106766666D02*
X218754819Y-106671428D01*
X218754819Y-106671428D02*
X218754819Y-106433333D01*
X218754819Y-106433333D02*
X218802438Y-106290476D01*
X219659580Y-105290476D02*
X219707200Y-105338095D01*
X219707200Y-105338095D02*
X219754819Y-105480952D01*
X219754819Y-105480952D02*
X219754819Y-105576190D01*
X219754819Y-105576190D02*
X219707200Y-105719047D01*
X219707200Y-105719047D02*
X219611961Y-105814285D01*
X219611961Y-105814285D02*
X219516723Y-105861904D01*
X219516723Y-105861904D02*
X219326247Y-105909523D01*
X219326247Y-105909523D02*
X219183390Y-105909523D01*
X219183390Y-105909523D02*
X218992914Y-105861904D01*
X218992914Y-105861904D02*
X218897676Y-105814285D01*
X218897676Y-105814285D02*
X218802438Y-105719047D01*
X218802438Y-105719047D02*
X218754819Y-105576190D01*
X218754819Y-105576190D02*
X218754819Y-105480952D01*
X218754819Y-105480952D02*
X218802438Y-105338095D01*
X218802438Y-105338095D02*
X218850057Y-105290476D01*
X218754819Y-104385714D02*
X218754819Y-104861904D01*
X218754819Y-104861904D02*
X219231009Y-104909523D01*
X219231009Y-104909523D02*
X219183390Y-104861904D01*
X219183390Y-104861904D02*
X219135771Y-104766666D01*
X219135771Y-104766666D02*
X219135771Y-104528571D01*
X219135771Y-104528571D02*
X219183390Y-104433333D01*
X219183390Y-104433333D02*
X219231009Y-104385714D01*
X219231009Y-104385714D02*
X219326247Y-104338095D01*
X219326247Y-104338095D02*
X219564342Y-104338095D01*
X219564342Y-104338095D02*
X219659580Y-104385714D01*
X219659580Y-104385714D02*
X219707200Y-104433333D01*
X219707200Y-104433333D02*
X219754819Y-104528571D01*
X219754819Y-104528571D02*
X219754819Y-104766666D01*
X219754819Y-104766666D02*
X219707200Y-104861904D01*
X219707200Y-104861904D02*
X219659580Y-104909523D01*
D12*
X213577142Y-114719400D02*
X215862857Y-114719400D01*
X225109400Y-115632857D02*
X225109400Y-113347143D01*
X226252257Y-114490000D02*
X223966542Y-114490000D01*
D10*
X205454819Y-87761904D02*
X206264342Y-87761904D01*
X206264342Y-87761904D02*
X206359580Y-87714285D01*
X206359580Y-87714285D02*
X206407200Y-87666666D01*
X206407200Y-87666666D02*
X206454819Y-87571428D01*
X206454819Y-87571428D02*
X206454819Y-87380952D01*
X206454819Y-87380952D02*
X206407200Y-87285714D01*
X206407200Y-87285714D02*
X206359580Y-87238095D01*
X206359580Y-87238095D02*
X206264342Y-87190476D01*
X206264342Y-87190476D02*
X205454819Y-87190476D01*
X205550057Y-86761904D02*
X205502438Y-86714285D01*
X205502438Y-86714285D02*
X205454819Y-86619047D01*
X205454819Y-86619047D02*
X205454819Y-86380952D01*
X205454819Y-86380952D02*
X205502438Y-86285714D01*
X205502438Y-86285714D02*
X205550057Y-86238095D01*
X205550057Y-86238095D02*
X205645295Y-86190476D01*
X205645295Y-86190476D02*
X205740533Y-86190476D01*
X205740533Y-86190476D02*
X205883390Y-86238095D01*
X205883390Y-86238095D02*
X206454819Y-86809523D01*
X206454819Y-86809523D02*
X206454819Y-86190476D01*
D16*
X196090000Y-106590000D02*
X206250000Y-106590000D01*
X206250000Y-106590000D02*
X206250000Y-105320000D01*
X196090000Y-105320000D02*
X196090000Y-106590000D01*
X206250000Y-105320000D02*
X196090000Y-105320000D01*
X196090000Y-104050000D02*
X206250000Y-104050000D01*
X206250000Y-104050000D02*
X206250000Y-101510000D01*
X196090000Y-101510000D02*
X196090000Y-104050000D01*
X196090000Y-101510000D02*
X206250000Y-101510000D01*
X196090000Y-73570000D02*
X206250000Y-73570000D01*
X206250000Y-73570000D02*
X206250000Y-71030000D01*
X196090000Y-71030000D02*
X196090000Y-73570000D01*
X206250000Y-71030000D02*
X196090000Y-71030000D01*
X196090000Y-69760000D02*
X206250000Y-69760000D01*
X206250000Y-69760000D02*
X206250000Y-68490000D01*
X196090000Y-68490000D02*
X196090000Y-69760000D01*
X196090000Y-68490000D02*
X206250000Y-68490000D01*
D12*
X156500000Y-52100000D02*
X156500000Y-87100000D01*
X134500000Y-52100000D02*
X156500000Y-52100000D01*
X156500000Y-87100000D02*
X134500000Y-87100000D01*
X134500000Y-87100000D02*
X134500000Y-52100000D01*
D17*
X184748900Y-104420050D02*
X184748900Y-100178250D01*
X179491100Y-100178250D02*
X179491100Y-104420050D01*
D12*
X158100000Y-115000000D02*
X193100000Y-115000000D01*
X158100000Y-137000000D02*
X158100000Y-115000000D01*
X193100000Y-115000000D02*
X193100000Y-137000000D01*
X193100000Y-137000000D02*
X158100000Y-137000000D01*
D16*
X164890000Y-104140000D02*
X163700000Y-104140000D01*
X163710000Y-106850000D02*
X164890000Y-106850000D01*
X163700000Y-107650000D02*
X163700000Y-106850000D01*
X163700000Y-104140000D02*
X163700000Y-103250000D01*
X163700000Y-103250000D02*
X158900000Y-103250000D01*
X158900000Y-107650000D02*
X163700000Y-107650000D01*
X158900000Y-106850000D02*
X158900000Y-107650000D01*
X158900000Y-103250000D02*
X158900000Y-104140000D01*
D12*
X158300000Y-40000000D02*
X193300000Y-40000000D01*
X158300000Y-62000000D02*
X158300000Y-40000000D01*
X193300000Y-40000000D02*
X193300000Y-62000000D01*
X193300000Y-62000000D02*
X158300000Y-62000000D01*
X230800000Y-52700000D02*
X230800000Y-87700000D01*
X208800000Y-52700000D02*
X230800000Y-52700000D01*
X230800000Y-87700000D02*
X208800000Y-87700000D01*
X208800000Y-87700000D02*
X208800000Y-52700000D01*
X156400000Y-87500000D02*
X156400000Y-122500000D01*
X134400000Y-87500000D02*
X156400000Y-87500000D01*
X156400000Y-122500000D02*
X134400000Y-122500000D01*
X134400000Y-122500000D02*
X134400000Y-87500000D01*
D16*
X164840000Y-97340000D02*
X163650000Y-97340000D01*
X163660000Y-100050000D02*
X164840000Y-100050000D01*
X163650000Y-100850000D02*
X163650000Y-100050000D01*
X163650000Y-97340000D02*
X163650000Y-96450000D01*
X163650000Y-96450000D02*
X158850000Y-96450000D01*
X158850000Y-100850000D02*
X163650000Y-100850000D01*
X158850000Y-100050000D02*
X158850000Y-100850000D01*
X158850000Y-96450000D02*
X158850000Y-97340000D01*
D12*
X230800000Y-88100000D02*
X230800000Y-123100000D01*
X208800000Y-88100000D02*
X230800000Y-88100000D01*
X230800000Y-123100000D02*
X208800000Y-123100000D01*
X208800000Y-123100000D02*
X208800000Y-88100000D01*
D16*
X202274000Y-88484000D02*
X202274000Y-86584000D01*
X204374000Y-87784000D02*
X204374000Y-86584000D01*
%LPC*%
D18*
X201170000Y-96080000D03*
D19*
X201170000Y-79000000D03*
D20*
X206250000Y-96080000D03*
X206250000Y-79000000D03*
D21*
X150000000Y-82600000D03*
X141000000Y-82600000D03*
D22*
X155182000Y-45965600D03*
D23*
X155182000Y-45965600D03*
D24*
X180215000Y-105023300D03*
X181485000Y-105023300D03*
X182755000Y-105023300D03*
X184025000Y-105023300D03*
X184025000Y-99575000D03*
X182755000Y-99575000D03*
X181485000Y-99575000D03*
X180215000Y-99575000D03*
D21*
X188600000Y-121500000D03*
X188600000Y-130500000D03*
D22*
X159500000Y-112400000D03*
D23*
X159500000Y-112400000D03*
D22*
X172000000Y-112400000D03*
D23*
X172000000Y-112400000D03*
D25*
X164350000Y-105450000D03*
D26*
X158250000Y-105450000D03*
D27*
X164350000Y-105450000D03*
D28*
X158250000Y-105450000D03*
D22*
X172000000Y-91600000D03*
D23*
X172000000Y-91600000D03*
D22*
X211856000Y-45965600D03*
D23*
X211856000Y-45965600D03*
D21*
X188800000Y-46500000D03*
X188800000Y-55500000D03*
X224300000Y-83200000D03*
X215300000Y-83200000D03*
X149900000Y-118000000D03*
X140900000Y-118000000D03*
D22*
X211856000Y-130965600D03*
D23*
X211856000Y-130965600D03*
D25*
X164300000Y-98650000D03*
D26*
X158200000Y-98650000D03*
D27*
X164300000Y-98650000D03*
D28*
X158200000Y-98650000D03*
D21*
X224300000Y-118600000D03*
X215300000Y-118600000D03*
D22*
X155182000Y-130965600D03*
D23*
X155182000Y-130965600D03*
D29*
X202674000Y-88084000D03*
X203324000Y-88084000D03*
X203974000Y-88084000D03*
X203974000Y-86284000D03*
X203324000Y-86284000D03*
X202674000Y-86284000D03*
D22*
X159500000Y-91600000D03*
D23*
X159500000Y-91600000D03*
D30*
X195800000Y-88400000D03*
D31*
X193260000Y-90940000D03*
X198340000Y-90940000D03*
X193260000Y-85860000D03*
X198340000Y-85860000D03*
%LPD*%
M02*
