M48
; DRILL file {KiCad 8.0.8} date 2025-03-29T21:42:39-0400
; FORMAT={-:-/ absolute / metric / decimal}
; #@! TF.CreationDate,2025-03-29T21:42:39-04:00
; #@! TF.GenerationSoftware,Kicad,Pcbnew,8.0.8
; #@! TF.FileFunction,Plated,1,4,PTH
FMAT,2
METRIC
; #@! TA.AperFunction,Plated,PTH,ComponentDrill
T1C0.250
; #@! TA.AperFunction,Plated,PTH,ViaDrill
T2C0.300
; #@! TA.AperFunction,Plated,PTH,ComponentDrill
T3C0.600
; #@! TA.AperFunction,Plated,PTH,ComponentDrill
T4C0.800
; #@! TA.AperFunction,Plated,PTH,ComponentDrill
T5C1.000
; #@! TA.AperFunction,Plated,PTH,ComponentDrill
T6C1.500
; #@! TA.AperFunction,Plated,PTH,ComponentDrill
T7C1.700
; #@! TA.AperFunction,Plated,PTH,ComponentDrill
T8C3.200
%
G90
G05
T1
X149.327Y-103.01
X149.327Y-104.143
X149.327Y-105.277
X150.46Y-103.01
X150.46Y-104.143
X150.46Y-105.277
X151.593Y-103.01
X151.593Y-104.143
X151.593Y-105.277
T2
X102.65Y-129.6
X102.65Y-133.5
X102.65Y-134.4
X103.5Y-133.5
X103.5Y-134.4
X104.05Y-129.6
X104.7Y-133.0
X105.25Y-130.8
X105.25Y-132.2
X110.4Y-130.8
X110.8Y-80.0
X112.7Y-127.6
X112.725Y-124.425
X112.8Y-97.975
X113.0Y-92.2
X113.0Y-93.0
X113.0Y-93.8
X113.25Y-90.0
X113.5Y-100.55
X113.8Y-80.4
X114.04Y-84.96
X114.1Y-96.4
X114.7Y-120.2
X114.79Y-100.0
X114.86Y-84.95
X114.9Y-96.4
X115.05Y-86.95
X115.09Y-122.53
X115.1Y-121.7
X115.2Y-86.1
X115.292Y-98.667
X115.35Y-100.6
X115.4Y-80.4
X115.4Y-97.5
X115.7Y-96.4
X115.72Y-84.95
X116.4Y-85.71
X116.5Y-89.4
X116.599Y-102.8
X116.65Y-84.95
X116.8Y-101.4
X116.9Y-113.0
X116.9Y-113.95
X116.95Y-107.5
X116.95Y-108.45
X117.0Y-80.4
X117.4Y-68.45
X117.4Y-92.6
X117.59Y-89.75
X117.6Y-117.5
X118.15Y-127.4
X118.4Y-97.1
X118.4Y-117.5
X118.6Y-102.8
X118.8Y-121.4
X118.99Y-86.09
X119.0Y-81.8
X119.19Y-58.56
X119.19Y-60.06
X119.2Y-117.5
X119.4Y-125.0
X119.7Y-97.3
X119.85Y-121.9
X120.0Y-99.51
X120.03Y-60.06
X120.04Y-58.56
X120.05Y-89.2
X120.1Y-123.5
X120.3Y-116.8
X120.45Y-118.15
X120.45Y-119.0
X120.45Y-119.95
X120.8Y-84.6
X120.8Y-88.7
X120.86Y-58.56
X120.86Y-60.06
X120.9Y-112.85
X120.9Y-113.65
X120.945Y-98.19
X121.64Y-123.4
X121.67Y-58.56
X121.67Y-60.06
X121.67Y-124.3
X121.8Y-106.5
X121.8Y-114.8
X122.09Y-98.879
X122.39Y-104.98
X122.4Y-118.0
X122.41Y-56.35
X122.6Y-92.7
X122.65Y-64.45
X122.65Y-78.7
X122.91Y-55.55
X122.95Y-57.06
X122.98Y-119.3
X123.0Y-84.4
X123.2Y-120.45
X123.3Y-90.3
X123.41Y-56.31
X123.45Y-64.45
X123.6Y-99.5
X123.6Y-102.6
X123.7Y-88.6
X123.7Y-106.027
X123.75Y-68.55
X123.91Y-55.55
X123.91Y-57.06
X124.25Y-64.45
X124.41Y-56.31
X124.91Y-55.55
X124.95Y-57.05
X125.0Y-108.25
X125.21Y-107.28
X125.41Y-56.31
X125.55Y-64.45
X125.91Y-55.55
X125.95Y-57.06
X125.95Y-68.55
X126.0Y-83.6
X126.2Y-95.4
X126.35Y-64.45
X126.41Y-56.31
X126.8Y-107.3
X126.91Y-55.55
X126.91Y-57.06
X127.15Y-64.45
X127.3Y-95.4
X127.41Y-56.31
X127.6Y-107.3
X128.075Y-104.95
X128.66Y-58.55
X128.67Y-60.06
X129.39Y-107.39
X129.51Y-60.06
X129.53Y-58.56
X130.118Y-105.918
X130.33Y-60.06
X130.34Y-58.56
X130.57Y-124.81
X130.58Y-106.587
X130.6Y-119.35
X130.6Y-120.25
X131.13Y-60.06
X131.16Y-58.56
X131.4Y-109.4
X131.4Y-110.7
X131.4Y-112.05
X131.4Y-118.1
X131.4Y-119.0
X132.8Y-97.0
X133.4Y-80.2
X133.75Y-129.75
X134.6Y-80.2
X135.1Y-92.51
X135.1Y-94.6
X136.05Y-99.6
X136.2Y-103.5
X136.91Y-112.09
X138.15Y-90.05
X138.25Y-129.2
X138.75Y-86.0
X138.8Y-108.4
X139.05Y-112.08
X139.1Y-88.45
X139.4Y-77.6
X139.6Y-86.0
X139.975Y-128.025
X140.45Y-86.0
X140.7Y-61.8
X140.7Y-133.6
X140.8Y-98.9
X141.0Y-77.6
X141.25Y-89.835
X141.3Y-86.0
X141.5Y-133.6
X141.795Y-127.95
X141.8Y-119.6
X141.8Y-128.75
X141.9Y-104.5
X142.0Y-63.2
X142.0Y-87.25
X142.0Y-100.95
X142.35Y-133.6
X142.8Y-87.3
X143.0Y-119.6
X143.2Y-128.0
X143.2Y-129.4
X143.31Y-81.54
X143.75Y-73.16
X143.85Y-83.95
X144.0Y-128.0
X144.1Y-129.4
X144.2Y-97.4
X144.42Y-102.92
X144.894Y-96.306
X145.0Y-133.6
X145.65Y-95.95
X145.85Y-133.6
X146.17Y-93.61
X146.5Y-103.341
X146.6Y-128.2
X146.65Y-72.16
X146.65Y-133.6
X146.7Y-101.5
X146.8Y-88.6
X146.8Y-89.85
X146.85Y-91.15
X147.0Y-104.25
X147.1Y-116.05
X147.11Y-102.3
X147.4Y-128.2
X147.5Y-129.4
X147.707Y-139.945
X147.8Y-108.2
X148.35Y-117.45
X148.4Y-129.4
X148.5Y-112.25
X148.51Y-109.87
X148.6Y-113.6
X148.65Y-100.2
X148.65Y-110.75
X148.65Y-121.5
X148.725Y-95.275
X148.807Y-139.945
X148.84Y-97.415
X148.885Y-98.275
X149.2Y-129.4
X149.25Y-61.2
X149.3Y-117.45
X149.4Y-64.0
X149.55Y-100.1
X149.7Y-108.2
X149.807Y-139.945
X150.05Y-98.2
X150.1Y-133.7
X150.4Y-100.3
X150.6Y-108.2
X150.9Y-133.7
X150.907Y-139.945
X151.0Y-70.2
X151.1Y-84.8
X151.2Y-107.6
X151.3Y-100.1
X151.3Y-116.35
X151.75Y-133.7
X151.9Y-110.7
X152.1Y-107.5
X152.5Y-100.1
X152.507Y-135.145
X152.66Y-111.26
X152.9Y-75.8
X153.0Y-78.4
X153.1Y-120.9
X153.2Y-59.6
X153.225Y-106.65
X153.3Y-100.1
X153.4Y-91.2
X153.65Y-111.5
X153.9Y-108.0
X154.0Y-120.6
X154.5Y-103.1
X154.5Y-103.95
X154.56Y-109.91
X154.593Y-78.582
X154.6Y-79.8
X154.6Y-80.6
X154.6Y-104.81
X154.8Y-91.2
X154.9Y-120.6
X155.45Y-74.45
X155.8Y-120.6
X155.8Y-130.4
X155.8Y-131.2
X155.8Y-132.0
X155.95Y-72.15
X156.4Y-91.2
X156.536Y-106.921
X156.62Y-104.92
X156.625Y-94.825
X157.0Y-123.6
X157.48Y-74.359
X157.51Y-103.33
X157.607Y-104.7
X157.607Y-139.945
X157.7Y-106.88
X157.8Y-123.68
X157.97Y-109.04
X158.0Y-110.2
X158.2Y-90.0
X158.425Y-101.775
X158.707Y-139.945
X158.75Y-81.25
X158.9Y-106.1
X159.0Y-79.0
X159.2Y-99.7
X159.28Y-107.57
X159.563Y-101.25
X159.639Y-76.2
X159.707Y-139.945
X159.77Y-102.09
X160.0Y-83.2
X160.21Y-100.69
X160.4Y-76.8
X160.6Y-78.8
X160.7Y-97.35
X160.77Y-98.95
X160.8Y-96.2
X160.807Y-139.945
X160.95Y-105.15
X161.6Y-123.68
X161.8Y-79.0
X162.2Y-126.0
X162.2Y-127.2
X162.2Y-128.4
X162.225Y-105.525
X162.35Y-85.2
X162.4Y-123.6
X162.55Y-91.9
X162.607Y-139.945
X163.62Y-105.37
X163.707Y-139.945
X163.8Y-83.4
X163.9Y-90.75
X164.194Y-77.064
X164.707Y-139.945
X165.0Y-90.3
X165.007Y-135.145
X165.4Y-83.4
X165.8Y-87.35
X165.807Y-139.945
X166.125Y-101.125
X166.45Y-92.9
X166.475Y-73.875
X166.507Y-128.245
X166.65Y-71.77
X167.4Y-78.55
X167.607Y-128.245
X167.69Y-101.79
X167.8Y-83.8
X167.95Y-94.0
X168.1Y-79.17
X168.4Y-73.69
X168.4Y-74.97
X168.4Y-77.2
X168.707Y-122.345
X168.75Y-78.1
X170.2Y-103.0
X170.28Y-126.98
X170.4Y-119.6
X170.5Y-95.6
X170.6Y-75.8
X170.6Y-83.8
X171.0Y-68.8
X171.4Y-83.8
X171.807Y-124.545
X172.0Y-68.4
X172.24Y-128.05
X172.307Y-139.945
X173.2Y-84.0
X173.35Y-92.6
X173.4Y-98.91
X173.407Y-139.945
X173.528Y-100.022
X173.66Y-130.71
X174.407Y-139.945
X175.2Y-77.2
X175.507Y-139.945
X176.0Y-74.2
X176.0Y-79.4
X176.55Y-81.5
X177.9Y-108.2
X177.9Y-117.9
X177.9Y-128.4
X179.1Y-84.95
X179.2Y-79.2
X180.2Y-85.75
X180.2Y-128.0
X181.494Y-95.015
X181.494Y-96.015
X181.494Y-97.015
X181.494Y-100.615
X181.494Y-101.615
X181.494Y-102.615
X181.5Y-105.6
X181.5Y-106.6
X181.5Y-107.6
X181.5Y-111.2
X181.5Y-112.2
X181.5Y-113.2
X181.5Y-116.0
X181.5Y-117.0
X181.5Y-118.0
X181.5Y-121.6
X181.5Y-122.6
X181.5Y-123.6
X181.5Y-126.5
X181.5Y-127.5
X181.5Y-128.5
X181.5Y-132.1
X181.5Y-133.1
X181.5Y-134.1
X184.57Y-66.57
X184.57Y-70.57
X184.57Y-74.57
T4
X183.05Y-66.57
X183.05Y-68.57
X183.05Y-70.57
X183.05Y-72.57
X183.05Y-74.57
X183.05Y-76.57
X183.05Y-78.57
X183.05Y-80.57
X183.05Y-82.57
X183.05Y-84.57
X183.05Y-86.57
X183.05Y-88.57
T5
X130.56Y-131.2
X133.1Y-131.2
X135.64Y-131.2
X138.18Y-131.2
X140.72Y-131.2
X143.26Y-131.2
X145.8Y-131.2
X148.34Y-131.2
X150.88Y-131.2
X153.42Y-131.2
X159.8Y-118.6
X159.8Y-121.14
X159.8Y-123.68
X159.8Y-126.22
T6
X117.65Y-59.35
X132.45Y-59.35
T7
X115.11Y-56.81
X115.11Y-61.89
X120.19Y-56.81
X120.19Y-61.89
X129.91Y-56.81
X129.91Y-61.89
X134.99Y-56.81
X134.99Y-61.89
T8
X103.426Y-143.294
X107.236Y-57.564
X180.896Y-57.564
X183.426Y-143.294
T3
X141.232Y-55.713G85X141.232Y-55.113
G05
X141.232Y-60.103G85X141.232Y-59.003
G05
X149.872Y-55.713G85X149.872Y-55.113
G05
X149.872Y-60.103G85X149.872Y-59.003
G05
M30
