%TF.GenerationSoftware,KiCad,Pcbnew,(6.0.5)*%
%TF.CreationDate,2022-07-09T20:35:50-07:00*%
%TF.ProjectId,batteryboard,62617474-6572-4796-926f-6172642e6b69,1.C*%
%TF.SameCoordinates,Original*%
%TF.FileFunction,Profile,NP*%
%FSLAX46Y46*%
G04 Gerber Fmt 4.6, Leading zero omitted, Abs format (unit mm)*
G04 Created by KiCad (PCBNEW (6.0.5)) date 2022-07-09 20:35:50*
%MOMM*%
%LPD*%
G01*
G04 APERTURE LIST*
%TA.AperFunction,Profile*%
%ADD10C,0.150000*%
%TD*%
G04 APERTURE END LIST*
D10*
X53200300Y-141979900D02*
G75*
G03*
X55200300Y-143979900I2000000J0D01*
G01*
X147085300Y-143979900D02*
G75*
G03*
X149085300Y-141979900I0J2000000D01*
G01*
X149085300Y-55809900D02*
G75*
G03*
X147085300Y-53809900I-2000000J0D01*
G01*
X53200300Y-84582000D02*
X53200300Y-141979900D01*
X55200300Y-53809900D02*
G75*
G03*
X53200300Y-55809900I0J-2000000D01*
G01*
X55200300Y-143979900D02*
X64039500Y-143979900D01*
X149098000Y-113792000D02*
X149085300Y-55809900D01*
X135890000Y-141732000D02*
X66294000Y-141732000D01*
X64039500Y-143979900D02*
X66294000Y-141732000D01*
X147085300Y-143979900D02*
X138246100Y-143979900D01*
X66548000Y-56388000D02*
X64096900Y-53809900D01*
X136144000Y-56388000D02*
X66548000Y-56388000D01*
X136144000Y-56388000D02*
X138188700Y-53809900D01*
X147085300Y-53809900D02*
X138188700Y-53809900D01*
X64096900Y-53809900D02*
X55200300Y-53809900D01*
X53200300Y-72136000D02*
X53200300Y-55809900D01*
X149085300Y-141979900D02*
X149098000Y-126492000D01*
X146558000Y-123952000D02*
X149098000Y-126492000D01*
X146558000Y-116332000D02*
X146558000Y-123952000D01*
X53200300Y-84582000D02*
X55740300Y-82042000D01*
X138246100Y-143979900D02*
X135890000Y-141732000D01*
X55740300Y-74422000D02*
X53200300Y-72136000D01*
X55740300Y-82042000D02*
X55740300Y-74422000D01*
X149098000Y-113792000D02*
X146558000Y-116332000D01*
M02*
